# floor(40x40m,z=0) + femto14 support baked to world pose
v -20.000000 -20.000000 0.000000
v 20.000000 -20.000000 0.000000
v 20.000000 20.000000 0.000000
v -20.000000 20.000000 0.000000
v -1.754918 0.929675 0.705000
v -1.754918 0.929675 0.745000
v -1.175623 0.773416 0.705000
v -1.175623 0.773416 0.745000
v -1.989306 0.060731 0.705000
v -1.989306 0.060731 0.745000
v -1.410010 -0.095527 0.705000
v -1.410010 -0.095527 0.745000
v -1.740817 0.905156 0.000000
v -1.740817 0.905156 0.705000
v -1.692542 0.892135 0.000000
v -1.692542 0.892135 0.705000
v -1.753838 0.856881 0.000000
v -1.753838 0.856881 0.705000
v -1.705564 0.843860 0.000000
v -1.705564 0.843860 0.705000
v -1.248416 0.772336 0.000000
v -1.248416 0.772336 0.705000
v -1.200141 0.759315 0.000000
v -1.200141 0.759315 0.705000
v -1.261437 0.724062 0.000000
v -1.261437 0.724062 0.705000
v -1.213163 0.711040 0.000000
v -1.213163 0.711040 0.705000
v -1.951766 0.123107 0.000000
v -1.951766 0.123107 0.705000
v -1.903491 0.110086 0.000000
v -1.903491 0.110086 0.705000
v -1.964787 0.074832 0.000000
v -1.964787 0.074832 0.705000
v -1.916513 0.061811 0.000000
v -1.916513 0.061811 0.705000
v -1.459365 -0.009713 0.000000
v -1.459365 -0.009713 0.705000
v -1.411090 -0.022734 0.000000
v -1.411090 -0.022734 0.705000
v -1.472386 -0.057987 0.000000
v -1.472386 -0.057987 0.705000
v -1.424111 -0.071009 0.000000
v -1.424111 -0.071009 0.705000
f 1 2 3
f 1 3 4
f 6 8 5
f 9 6 5
f 5 8 7
f 7 9 5
f 6 12 8
f 10 6 9
f 10 12 6
f 8 12 7
f 11 9 7
f 7 12 11
f 11 10 9
f 12 10 11
f 14 16 13
f 17 14 13
f 13 16 15
f 15 17 13
f 14 20 16
f 18 14 17
f 18 20 14
f 16 20 15
f 19 17 15
f 15 20 19
f 19 18 17
f 20 18 19
f 22 24 21
f 25 22 21
f 21 24 23
f 23 25 21
f 22 28 24
f 26 22 25
f 26 28 22
f 24 28 23
f 27 25 23
f 23 28 27
f 27 26 25
f 28 26 27
f 30 32 29
f 33 30 29
f 29 32 31
f 31 33 29
f 30 36 32
f 34 30 33
f 34 36 30
f 32 36 31
f 35 33 31
f 31 36 35
f 35 34 33
f 36 34 35
f 38 40 37
f 41 38 37
f 37 40 39
f 39 41 37
f 38 44 40
f 42 38 41
f 42 44 38
f 40 44 39
f 43 41 39
f 39 44 43
f 43 42 41
f 44 42 43
