# https://github.com/mikedh/trimesh
v 0.12538801 0.02549662 -0.01970228
v 0.12949586 0.02567369 -0.02486582
v 0.12550892 0.02552941 -0.01975481
v 0.12838902 0.02610628 -0.02351163
v 0.12661124 0.02675883 -0.02163132
v 0.12676303 0.02699689 -0.02303626
v 0.12994548 0.02540004 -0.02493746
v 0.12870697 0.02610720 -0.02460282
v 0.13017693 0.02520701 -0.02471091
v 0.12876189 0.02576059 -0.02284159
v 0.12983987 0.02530101 -0.02405498
v 0.12583924 0.02588962 -0.02004841
v 0.12769060 0.02655995 -0.02368599
v 0.12717231 0.02663586 -0.02238834
v 0.12765425 0.02587690 -0.02087013
v 0.12872790 0.02563700 -0.02207142
v 0.12531115 0.02766242 -0.02261350
v 0.12901882 0.02549831 -0.02232114
v 0.12520655 0.02757360 -0.02197809
v 0.12796438 0.02612194 -0.02214949
v 0.12672673 0.02673206 -0.02178072
f 17 1 19
f 9 1 7
f 19 1 12
f 12 15 19
f 18 1 9
f 18 15 1
f 1 15 3
f 3 12 1
f 15 12 3
f 9 7 11
f 11 18 9
f 17 6 8
f 1 17 8
f 19 15 5
f 2 7 1
f 1 8 2
f 20 5 15
f 13 8 6
f 6 20 13
f 14 20 6
f 15 18 16
f 16 20 15
f 10 2 8
f 20 16 10
f 5 20 21
f 20 14 21
f 4 10 8
f 20 10 4
f 8 13 4
f 4 13 20
f 7 2 10
f 18 11 10
f 10 11 7
f 10 16 18
f 21 17 19
f 19 5 21
f 21 6 17
f 21 14 6

