# https://github.com/mikedh/trimesh
v -0.01056872 -0.02069185 -0.20019966
v -0.00759794 -0.00003628 -0.20034900
v -0.01386206 -0.01732775 -0.24799488
v -0.01410949 -0.01590509 -0.24952270
v -0.01450231 -0.00096051 -0.24903421
v -0.01837631 -0.00557172 -0.20046691
v -0.01843243 -0.00191454 -0.20051480
v -0.00860460 -0.00264527 -0.24988594
v -0.01139596 -0.00189226 -0.24968127
v -0.01761586 -0.01591034 -0.20018612
v -0.00758500 -0.01580923 -0.20014332
v -0.00952735 -0.02077083 -0.20011893
v -0.01620917 -0.02054952 -0.20077392
v -0.01307164 -0.01877965 -0.24826916
v -0.01083619 -0.00001435 -0.22385792
v -0.01429647 -0.01375640 -0.24991875
v -0.00008283 -0.01977813 -0.23145966
v -0.01364651 -0.01801493 -0.24662389
v -0.01739374 -0.01669184 -0.20114100
v -0.01661411 -0.01949840 -0.20187937
v -0.01261100 -0.02225144 -0.20081298
v -0.01238300 -0.01920640 -0.24729594
v -0.00619340 -0.01932630 -0.24959763
v -0.01433564 -0.01326784 -0.24976587
v -0.01445220 -0.01184501 -0.24882467
v -0.01446812 -0.02189071 -0.20135124
v -0.01565968 -0.00001532 -0.22651194
v -0.01644433 -0.00016238 -0.21740755
v -0.01267674 -0.01923585 -0.24618415
v -0.00012767 -0.02143990 -0.20795730
v -0.01258510 -0.01921800 -0.24685631
v -0.01451710 -0.00028256 -0.24880380
v -0.01774785 -0.01492660 -0.20008200
v -0.00063422 -0.02256539 -0.20037747
v -0.01793741 -0.01352498 -0.20040056
v -0.00618268 -0.02245437 -0.20105770
v -0.01843118 -0.00356312 -0.20037109
v -0.00086641 -0.01949286 -0.24504276
v -0.01495876 -0.02149152 -0.20265567
v -0.00026911 -0.01957166 -0.23984702
v -0.00187215 -0.01942632 -0.24891326
v -0.00949015 -0.01915985 -0.24990322
v -0.00860303 -0.00153829 -0.24977837
v -0.01581896 -0.02084845 -0.20249584
v -0.01801407 -0.01255302 -0.20051569
v -0.01771690 -0.00094074 -0.20583605
v -0.01567201 -0.02097027 -0.20272955
v -0.01444900 -0.00519520 -0.24973739
v -0.00841996 -0.00026100 -0.24074818
v -0.01394723 -0.02200655 -0.20158389
v -0.01824283 -0.01011762 -0.20013669
v -0.00474207 -0.02252763 -0.20031332
v -0.01444422 -0.00689983 -0.24998068
v -0.01139798 -0.01057539 -0.24995089
v -0.01145018 -0.01904632 -0.24994919
v -0.00813888 -0.02078335 -0.20007697
v -0.01675578 -0.01941229 -0.20064026
f 5 53 7
f 7 32 5
f 17 2 30
f 37 2 7
f 37 51 2
f 7 53 37
f 17 30 40
f 40 2 17
f 53 5 48
f 3 4 14
f 15 32 27
f 32 28 27
f 27 2 15
f 27 28 2
f 2 28 46
f 7 2 46
f 46 32 7
f 46 28 32
f 49 32 15
f 15 2 49
f 2 40 49
f 34 30 2
f 34 40 30
f 53 48 9
f 9 8 53
f 9 48 5
f 9 5 32
f 25 37 53
f 53 24 25
f 51 37 6
f 6 24 51
f 37 25 6
f 6 25 24
f 35 51 45
f 35 4 10
f 4 19 10
f 18 14 13
f 13 3 18
f 18 3 14
f 57 10 19
f 57 19 4
f 4 3 57
f 32 49 43
f 43 9 32
f 8 9 43
f 43 49 40
f 26 21 13
f 16 24 53
f 16 4 35
f 35 45 16
f 51 24 16
f 16 45 51
f 14 4 55
f 4 16 55
f 55 16 53
f 21 23 36
f 33 51 35
f 35 10 33
f 33 56 51
f 20 3 13
f 13 57 20
f 20 57 3
f 38 43 40
f 40 34 38
f 41 23 8
f 8 43 41
f 43 38 41
f 41 38 34
f 47 26 13
f 11 34 2
f 11 56 34
f 2 51 11
f 51 56 11
f 34 56 52
f 21 36 52
f 52 41 34
f 52 36 23
f 23 41 52
f 10 57 1
f 1 57 13
f 13 21 1
f 22 23 21
f 8 23 42
f 23 22 42
f 42 22 55
f 53 8 54
f 54 55 53
f 8 42 54
f 54 42 55
f 13 14 44
f 44 47 13
f 14 47 44
f 39 47 14
f 26 47 39
f 12 33 10
f 10 1 12
f 56 33 12
f 12 52 56
f 21 52 12
f 12 1 21
f 21 26 50
f 29 39 14
f 26 39 29
f 31 22 21
f 21 50 31
f 31 29 14
f 31 50 26
f 26 29 31
f 14 55 31
f 55 22 31

