# https://github.com/mikedh/trimesh
v 0.11575309 0.03335183 -0.03452312
v 0.11558482 0.03277479 -0.03507771
v 0.10598383 0.03464509 -0.03539615
v 0.12458109 0.02938911 -0.03491692
v 0.10104390 0.03488523 -0.02516569
v 0.12471622 0.02958751 -0.03241051
v 0.10721604 0.02954903 -0.03539612
v 0.12215876 0.03023404 -0.03515191
v 0.12420078 0.02977885 -0.03129702
v 0.11611598 0.03283380 -0.02993748
v 0.10234677 0.03466048 -0.02510782
v 0.10083389 0.03630150 -0.03336227
v 0.11805809 0.03173762 -0.03527782
v 0.11879366 0.03152837 -0.02728094
v 0.12437912 0.02982728 -0.03287280
v 0.12236418 0.03035137 -0.02893546
v 0.10996146 0.03389258 -0.02674848
v 0.10933689 0.03484820 -0.03186789
v 0.11203343 0.03341022 -0.02699401
v 0.11679856 0.03268264 -0.03033889
v 0.10074805 0.03638980 -0.03425608
v 0.12497362 0.02886990 -0.02735437
v 0.10544483 0.03421177 -0.02528115
v 0.12143582 0.03128857 -0.03417118
v 0.12493286 0.02516738 -0.02851223
v 0.10744511 0.03464809 -0.03519288
v 0.11854257 0.03130664 -0.03539558
v 0.11253093 0.03381727 -0.03495696
v 0.11923706 0.03078927 -0.03539555
v 0.10013279 0.03553239 -0.02845425
v 0.12356641 0.03029617 -0.03406088
v 0.10635189 0.03465807 -0.02739197
v 0.10663291 0.03540324 -0.03307918
v 0.12426914 0.02816185 -0.03539532
v 0.11774089 0.03217399 -0.03502390
v 0.11349843 0.03292951 -0.03539581
v 0.11950873 0.03137963 -0.02795515
v 0.11864654 0.03239199 -0.03457998
v 0.10997329 0.03484065 -0.03369460
v 0.11355426 0.03399949 -0.03453696
v 0.12487306 0.02868613 -0.02612560
v 0.11113017 0.03378607 -0.02751172
v 0.12282987 0.03040502 -0.03101154
v 0.11840456 0.03149158 -0.02647385
v 0.11854460 0.02531234 -0.03539560
v 0.12457199 0.02614880 -0.03539531
v 0.10079173 0.03555325 -0.03528333
v 0.10021720 0.02523792 -0.02851220
v 0.11615640 0.03286755 -0.03034518
v 0.11067553 0.03427472 -0.02980677
v 0.10138788 0.03111392 -0.03539639
v 0.11560046 0.03197864 -0.02533440
v 0.11935615 0.03162462 -0.03497938
v 0.10058480 0.03629035 -0.03290993
v 0.10637538 0.03509872 -0.02966032
v 0.11150445 0.03316996 -0.02558464
v 0.10381830 0.03592905 -0.03395426
v 0.11889744 0.03154275 -0.02757585
v 0.12094108 0.03039436 -0.02592629
v 0.12142460 0.03042372 -0.02681374
v 0.12401362 0.02946202 -0.03507932
v 0.10869468 0.03474171 -0.03006157
v 0.12291977 0.03014224 -0.03494573
v 0.10212635 0.03621289 -0.03423074
v 0.10781413 0.03492025 -0.03019688
v 0.10048910 0.03589742 -0.02942707
v 0.10110395 0.02544531 -0.03539641
v 0.12467629 0.02951454 -0.03143613
v 0.11207028 0.03439338 -0.03423964
v 0.11563641 0.03258680 -0.03521948
v 0.10084889 0.03625561 -0.03469055
v 0.12081378 0.03152943 -0.03388645
v 0.10232471 0.03566500 -0.03502644
v 0.10710133 0.02504471 -0.02852649
v 0.11473176 0.03312135 -0.02917951
v 0.10977427 0.03439577 -0.02921280
v 0.12269109 0.02989243 -0.02690978
v 0.10076162 0.03539989 -0.03539639
v 0.11062083 0.03475078 -0.03449852
v 0.10065749 0.03580462 -0.03508623
v 0.12027243 0.03123350 -0.02896178
v 0.10810106 0.02504497 -0.03539608
v 0.10104646 0.03598516 -0.03489772
v 0.10292323 0.02508632 -0.02851220
v 0.10490669 0.03526443 -0.02914779
v 0.10180183 0.03551546 -0.02788517
v 0.11682727 0.03180405 -0.02588588
v 0.10513605 0.03555210 -0.03476706
v 0.10641441 0.03492336 -0.03512956
v 0.10883456 0.03506060 -0.03345731
v 0.11658081 0.03298758 -0.03299056
v 0.12488146 0.02941573 -0.03172459
v 0.11501344 0.03251245 -0.03539573
v 0.11336543 0.03336250 -0.03512907
v 0.10866373 0.03442315 -0.03518306
v 0.10988104 0.03462520 -0.03107690
v 0.12164383 0.03023413 -0.02638486
v 0.10007894 0.03526200 -0.03539642
v 0.10224499 0.02507453 -0.02852671
v 0.11964064 0.03067232 -0.02502371
v 0.11787485 0.03254744 -0.03256108
v 0.11023956 0.03471436 -0.03284034
v 0.10269541 0.03613830 -0.03433010
v 0.11725929 0.03212834 -0.02762333
v 0.11064815 0.03400101 -0.03517633
v 0.12301232 0.02936104 -0.02520356
v 0.10374725 0.03580298 -0.03473256
v 0.11102353 0.03415974 -0.02960488
v 0.12227385 0.02502744 -0.02852582
v 0.11778005 0.03252271 -0.03195898
v 0.12375042 0.02958151 -0.02804180
v 0.12338908 0.02958348 -0.02695794
v 0.11949850 0.03131255 -0.03518532
v 0.10871535 0.03499749 -0.03469932
v 0.10998436 0.03404956 -0.02751640
v 0.11986732 0.03188678 -0.03369165
v 0.12437776 0.02583723 -0.03539532
v 0.11687680 0.03232654 -0.02806027
v 0.10876259 0.03423525 -0.02726869
v 0.12485575 0.02958048 -0.03466281
v 0.11543737 0.03338933 -0.03460803
v 0.10196520 0.02506566 -0.03539637
v 0.11787332 0.03172997 -0.02668345
v 0.11549706 0.03320044 -0.03179776
v 0.10634916 0.03505668 -0.03502737
v 0.12040617 0.03048198 -0.02544397
v 0.11812564 0.03248038 -0.03289020
v 0.11914070 0.03147275 -0.02769719
v 0.12364798 0.03027304 -0.03433997
v 0.10804124 0.03526803 -0.03421223
v 0.11447239 0.03296722 -0.03518719
v 0.12396821 0.02941613 -0.03513129
v 0.11248922 0.03376086 -0.02954040
v 0.10047563 0.03639247 -0.03393063
v 0.12472047 0.02698135 -0.03539531
v 0.10223047 0.03533772 -0.03531109
v 0.11776923 0.03198197 -0.03516905
v 0.10008558 0.03215318 -0.02851220
v 0.10968943 0.03466403 -0.03101900
v 0.10173095 0.03567684 -0.03508958
v 0.10116121 0.03563244 -0.02804552
v 0.11503028 0.03262130 -0.02711236
v 0.10775899 0.03520546 -0.03285889
v 0.10875684 0.03450851 -0.03509747
v 0.11080890 0.03466265 -0.03390931
v 0.11677011 0.03233861 -0.02792807
v 0.11046697 0.03353293 -0.02587194
v 0.10004826 0.02663477 -0.03539646
v 0.12155601 0.03064701 -0.03504032
v 0.12173650 0.03031913 -0.02688035
v 0.12075210 0.03116178 -0.03491946
v 0.12410558 0.02896884 -0.02568623
v 0.12447679 0.02855574 -0.03539530
v 0.11760285 0.03271179 -0.03335116
v 0.12438243 0.02911095 -0.02688061
v 0.12280974 0.03004834 -0.02819309
v 0.11911664 0.03211570 -0.03307028
v 0.12215253 0.02517803 -0.03539542
v 0.12329520 0.03026803 -0.03161176
v 0.11138691 0.03451853 -0.03460813
v 0.11007292 0.03364087 -0.02591686
v 0.10131482 0.03623703 -0.03333108
v 0.10002313 0.03278184 -0.03539643
v 0.10029542 0.03615339 -0.03115065
v 0.12221757 0.03019773 -0.02739481
v 0.11898100 0.03171797 -0.02901838
v 0.11804536 0.03192112 -0.02792601
v 0.12305230 0.03030372 -0.03476589
v 0.10649368 0.03500584 -0.02896848
v 0.11197566 0.03300720 -0.02546179
v 0.12401039 0.03010020 -0.03424440
f 100 48 106
f 148 48 138
f 163 148 138
f 138 30 163
f 5 30 138
f 138 48 5
f 67 48 148
f 67 7 135
f 148 51 67
f 51 7 67
f 48 67 122
f 117 67 135
f 117 122 67
f 152 106 25
f 25 41 152
f 22 41 25
f 158 117 25
f 25 120 22
f 135 120 25
f 150 165 81
f 52 170 100
f 51 78 29
f 29 7 51
f 135 7 29
f 38 154 116
f 153 120 135
f 153 29 27
f 8 153 27
f 32 86 5
f 66 30 5
f 86 32 169
f 163 30 98
f 98 134 71
f 98 148 163
f 98 78 51
f 98 51 148
f 103 71 21
f 71 134 21
f 158 122 45
f 45 117 158
f 122 117 45
f 99 106 48
f 99 84 106
f 48 122 99
f 82 122 158
f 109 25 106
f 158 25 109
f 109 82 158
f 46 117 135
f 135 25 46
f 46 25 117
f 104 167 118
f 106 150 97
f 81 167 37
f 37 150 81
f 147 42 17
f 17 161 147
f 47 136 78
f 27 29 36
f 36 29 78
f 129 120 38
f 135 29 34
f 34 153 135
f 29 153 34
f 113 8 27
f 8 113 151
f 153 8 132
f 5 86 141
f 141 66 5
f 30 66 164
f 164 98 30
f 134 98 164
f 54 134 164
f 66 141 164
f 119 169 32
f 119 161 17
f 119 23 161
f 32 23 119
f 64 21 12
f 103 21 64
f 77 150 106
f 165 150 77
f 77 112 165
f 84 99 74
f 106 84 74
f 74 109 106
f 82 109 74
f 74 99 122
f 122 82 74
f 104 118 146
f 146 118 10
f 166 167 81
f 81 110 166
f 154 110 101
f 100 106 126
f 106 97 126
f 123 167 104
f 100 44 123
f 104 146 123
f 167 123 14
f 14 123 44
f 150 37 14
f 100 170 11
f 170 23 11
f 11 48 100
f 5 48 11
f 11 32 5
f 11 23 32
f 56 147 161
f 56 23 170
f 161 23 56
f 136 47 140
f 80 98 71
f 80 140 47
f 78 98 80
f 80 47 78
f 105 114 160
f 160 114 79
f 79 114 103
f 103 130 79
f 139 18 62
f 62 76 139
f 169 76 62
f 143 18 130
f 22 120 92
f 120 6 92
f 24 129 38
f 38 120 168
f 168 151 38
f 38 151 53
f 53 151 113
f 120 153 4
f 153 132 4
f 139 76 50
f 85 164 141
f 103 64 85
f 86 169 85
f 85 141 86
f 162 12 54
f 162 64 12
f 54 164 162
f 164 85 162
f 162 85 64
f 165 112 155
f 155 156 165
f 155 41 22
f 152 41 155
f 22 9 155
f 81 165 16
f 165 156 16
f 16 43 81
f 159 43 16
f 16 156 159
f 42 146 75
f 75 146 10
f 127 116 154
f 154 101 127
f 127 101 116
f 116 101 157
f 157 101 110
f 81 116 157
f 157 110 81
f 59 126 97
f 170 52 87
f 87 56 170
f 87 52 100
f 100 123 87
f 147 56 87
f 167 14 58
f 150 14 60
f 60 14 44
f 60 97 150
f 60 59 97
f 71 140 83
f 83 80 71
f 140 80 83
f 27 36 93
f 107 140 71
f 107 71 103
f 103 114 107
f 28 105 160
f 39 79 130
f 18 102 39
f 169 62 65
f 65 62 18
f 57 130 103
f 57 143 130
f 57 33 143
f 20 110 154
f 10 118 20
f 20 118 167
f 167 166 20
f 20 166 110
f 91 20 154
f 124 20 91
f 69 102 18
f 133 75 69
f 69 75 10
f 22 92 68
f 68 9 22
f 68 92 6
f 6 9 68
f 15 9 6
f 15 6 120
f 159 9 15
f 31 24 159
f 72 43 159
f 159 24 72
f 72 116 81
f 81 43 72
f 38 116 72
f 72 24 38
f 8 151 149
f 151 168 149
f 61 132 8
f 61 168 120
f 120 4 61
f 61 4 132
f 42 76 115
f 17 42 115
f 115 76 169
f 115 119 17
f 169 119 115
f 103 85 55
f 55 85 169
f 55 57 103
f 33 57 55
f 143 33 55
f 18 143 55
f 169 65 55
f 55 65 18
f 159 156 111
f 156 155 111
f 111 9 159
f 111 155 9
f 108 75 133
f 133 69 108
f 108 69 50
f 42 75 108
f 108 76 42
f 108 50 76
f 19 87 123
f 42 147 19
f 147 87 19
f 128 14 37
f 128 58 14
f 38 53 13
f 13 137 38
f 13 53 113
f 13 113 27
f 27 93 13
f 70 137 13
f 13 93 70
f 35 121 38
f 38 137 35
f 35 137 70
f 136 140 73
f 140 107 73
f 88 125 136
f 136 73 88
f 88 73 107
f 114 125 88
f 88 107 114
f 70 28 2
f 2 28 121
f 2 35 70
f 121 35 2
f 70 93 131
f 89 125 114
f 136 125 89
f 114 105 144
f 105 95 144
f 130 18 90
f 90 39 130
f 18 39 90
f 10 20 49
f 49 20 124
f 49 69 10
f 124 69 49
f 145 69 79
f 102 69 145
f 40 28 160
f 121 28 40
f 160 79 40
f 79 69 40
f 124 91 40
f 40 69 124
f 96 18 139
f 96 69 18
f 139 50 96
f 50 69 96
f 120 129 171
f 171 15 120
f 159 15 171
f 171 31 159
f 8 149 63
f 63 149 168
f 63 61 8
f 168 61 63
f 42 19 142
f 142 19 123
f 142 146 42
f 142 123 146
f 36 105 94
f 105 28 94
f 94 93 36
f 94 131 93
f 136 89 3
f 78 136 3
f 3 36 78
f 3 105 36
f 3 95 105
f 26 144 95
f 95 3 26
f 26 3 89
f 26 89 114
f 114 144 26
f 38 121 1
f 121 40 1
f 1 154 38
f 1 91 154
f 1 40 91
f 54 12 21
f 21 134 54
f 155 106 152
f 155 77 106
f 112 77 155
f 100 126 60
f 60 44 100
f 126 59 60
f 167 58 128
f 128 37 167
f 145 39 102
f 79 39 145
f 24 31 171
f 129 24 171
f 70 131 94
f 94 28 70

