# https://github.com/mikedh/trimesh
v -0.02222150 0.02357891 0.01988381
v -0.01345065 0.02968525 0.01801836
v -0.00612017 0.03429616 0.00269480
v -0.00161182 0.02047599 0.02466611
v -0.01749380 0.02971426 0.01402443
v -0.00830683 0.03394419 0.00207225
v -0.02666433 0.02293526 0.01310197
v -0.01892729 0.03086994 0.00620182
v -0.01744639 0.02047598 0.00004835
v -0.00385923 0.03240810 0.01478830
v -0.01758733 0.03166478 0.00028518
v -0.02977185 0.02283015 0.00152855
v -0.00303878 0.03459449 0.00182926
v -0.00561936 0.02686960 0.02730370
v -0.02207465 0.02562640 0.02003653
v -0.00709668 0.03283945 0.01200002
v -0.00362500 0.03426782 0.00582985
v -0.02868891 0.02363571 0.00807333
v -0.00446328 0.03432621 0.00454344
v -0.02079287 0.02812809 0.01520393
v -0.00784248 0.03214910 0.01405005
v -0.01808179 0.02576200 0.02352713
v -0.00554918 0.03344418 0.00971026
v -0.01155169 0.02590251 0.02712778
v -0.00494890 0.02326919 0.02940491
v -0.02827040 0.02662553 0.00119134
v -0.00547385 0.03430461 0.00366538
v -0.00557645 0.03438036 0.00160666
v -0.00655074 0.02547962 0.02907416
v -0.02490995 0.02841037 0.00392699
v -0.02285766 0.02578867 0.01893010
v -0.02199809 0.02833202 0.01262483
v -0.00990972 0.02365262 0.02803611
v -0.02006217 0.03081137 0.00010885
v -0.02656128 0.02383799 0.01348594
v -0.01184737 0.03331592 0.00041897
v -0.01599774 0.02729424 0.02198331
v -0.01046338 0.02621717 0.02697842
v -0.01213583 0.03288055 0.00658688
v -0.01132079 0.03306471 0.00674554
v -0.00893725 0.03313963 0.00913976
v -0.01330505 0.03101139 0.01437311
v -0.01546915 0.02047598 0.01922655
v -0.02188449 0.02985867 0.00312132
v -0.01274164 0.03307315 0.00310633
v -0.00006811 0.03323623 0.01226599
v -0.00272957 0.03434221 0.00555643
v -0.02969515 0.02271019 0.00131349
v -0.01243050 0.02808347 0.02269040
v -0.02560648 0.02822222 0.00007103
v -0.01592039 0.03199998 0.00453413
v -0.00532689 0.03402680 0.00613512
v -0.02426770 0.02884367 0.00072040
v -0.00379639 0.02271018 0.02929220
v -0.01408245 0.02824637 0.02128638
v -0.00331601 0.03439974 0.00449720
v -0.02010601 0.02630461 0.02066091
v -0.02298348 0.02945295 0.00035481
v -0.00486062 0.02810588 0.02532726
v -0.00374615 0.03456629 0.00077404
v -0.00244284 0.03302235 0.01314228
v -0.00507975 0.02047598 0.00467116
v -0.01095879 0.02817922 0.02320719
v -0.00129712 0.03467323 0.00040197
v -0.01116723 0.03106716 0.01587655
v -0.00651433 0.03411107 0.00409124
v -0.02975460 0.02324942 0.00091517
v -0.01977487 0.03094356 0.00002055
v -0.01389147 0.03264465 0.00431947
v -0.02258299 0.02964010 0.00042297
v -0.01733260 0.02846098 0.01816459
v -0.00541307 0.03432731 0.00333448
v -0.00149814 0.03283622 0.01388738
v -0.02600699 0.02407366 0.01455979
v -0.00426974 0.03158300 0.01732108
v -0.02467642 0.02809432 0.00764418
v -0.01050832 0.02677545 0.02600322
v -0.02687851 0.02444564 0.01282589
v -0.02462648 0.02854598 0.00386502
v -0.01973669 0.02824641 0.01622615
v -0.00464384 0.03315943 0.01180290
v -0.00414437 0.03452583 0.00099928
v -0.02583480 0.02810127 0.00020613
v -0.00301104 0.03462093 0.00001494
v -0.02878781 0.02290725 0.00748798
v -0.01104973 0.02415656 0.02766792
v -0.01018469 0.02362701 0.02795345
v -0.00572175 0.03418740 0.00453422
v -0.00431417 0.03429569 0.00509942
v -0.02892934 0.02600794 0.00470491
v -0.02940048 0.02528696 0.00464747
v -0.01339515 0.02573076 0.02655662
v -0.01949461 0.02862608 0.01525196
v -0.00111183 0.03431380 0.00639161
v -0.02306629 0.02588493 0.01843400
v -0.01746486 0.02820615 0.01876702
v -0.00606028 0.02274300 0.02909634
v -0.01079796 0.03343800 0.00306592
v -0.01716481 0.03173948 0.00258112
v -0.02763276 0.02634453 0.00798745
v -0.02836639 0.02578421 0.00869286
v -0.00746482 0.03077420 0.01871518
v -0.01580230 0.03096002 0.01181206
v -0.00000375 0.02047599 0.02301040
v -0.00182751 0.03303061 0.01321408
v -0.00490028 0.02527071 0.02941178
v -0.00500748 0.03294086 0.01269533
v -0.02451197 0.02047598 0.00325115
v -0.00546103 0.03250256 0.01397111
v -0.01589155 0.02824668 0.01998509
v -0.02969763 0.02574158 0.00070909
v -0.00551265 0.03300154 0.01225080
v -0.02554282 0.02332172 0.01525628
v -0.02429997 0.02047598 0.00021287
v -0.00369704 0.03101924 0.01918914
v -0.00521794 0.02575262 0.02928147
v -0.00048900 0.02813849 0.02573989
v -0.01384458 0.02646440 0.02498910
v -0.02903012 0.02580465 0.00581917
v -0.00004502 0.03401516 0.00819156
v -0.02791634 0.02666001 0.00428029
v -0.01715775 0.03103606 0.00925102
v -0.00625568 0.03182159 0.01592045
v -0.02024469 0.02804779 0.01621038
v -0.01472084 0.02575172 0.02583352
v -0.02261462 0.02776088 0.01361896
v -0.00135135 0.03462342 0.00259228
v -0.01058187 0.03294376 0.00859176
v -0.01087408 0.03298481 0.00798372
v -0.02288548 0.02047599 0.00941753
v -0.01318177 0.02813735 0.02212046
v -0.00920767 0.03382298 0.00018347
v -0.02422712 0.02578343 0.01701499
v -0.00481912 0.03441741 0.00243785
v -0.00907223 0.03355349 0.00551701
v -0.02252251 0.02290004 0.01948642
v -0.02239166 0.02271019 0.01965335
v -0.02177295 0.02571147 0.02034715
v -0.02177932 0.02542362 0.02034369
v -0.00164810 0.03422702 0.00689406
v -0.02262393 0.02789193 0.01316864
v -0.01036429 0.03311033 0.00771894
v -0.02973737 0.02435435 0.00030280
v -0.00812834 0.03400660 0.00136297
v -0.00011754 0.02047599 0.00059260
v -0.00731836 0.03411659 0.00227374
v -0.02013922 0.03066571 0.00315247
v -0.01483690 0.02813246 0.02106570
v -0.01748159 0.03067855 0.01043011
v -0.00413286 0.02299730 0.02945907
v -0.00555868 0.03439004 0.00121610
v -0.02086843 0.02643523 0.01955528
v -0.01639049 0.02674563 0.02281992
v -0.00466271 0.02337311 0.02944533
v -0.00449958 0.03435032 0.00412656
v -0.00329955 0.03393814 0.00793763
v -0.01093860 0.03308593 0.00711438
v -0.00611076 0.02803924 0.02521668
v -0.00479964 0.03315761 0.01174009
v -0.00865627 0.03346188 0.00694359
v -0.00333572 0.03094505 0.01946247
v -0.00030232 0.02572597 0.02969451
v -0.00170203 0.02476135 0.02968100
v -0.00594796 0.03094493 0.01883048
v -0.00071693 0.02047599 0.00073925
v -0.01075179 0.02808779 0.02347294
v -0.02753476 0.02505787 0.01133567
v -0.02489776 0.02854455 0.00086380
v -0.00031476 0.03441702 0.00539455
v -0.00298457 0.02842764 0.02499800
v -0.00161729 0.03266428 0.01441166
v -0.02428427 0.02818044 0.00831295
v -0.02780610 0.02456424 0.01059969
v -0.02113629 0.02272561 0.02085076
v -0.00401967 0.03196774 0.01616130
v -0.02409804 0.02050079 0.00643393
v -0.02592067 0.02553621 0.01468948
v -0.00691312 0.03425999 0.00020937
v -0.02581299 0.02798689 0.00314480
v -0.00033980 0.02047599 0.00014606
v -0.01288633 0.02285755 0.02673736
v -0.02352566 0.02827850 0.00981035
v -0.00922930 0.02838936 0.02352288
v -0.00002372 0.02875051 0.02446949
v -0.01640210 0.03124066 0.00934210
v -0.02097496 0.02880003 0.01242525
v -0.00370737 0.03453686 0.00183523
v -0.00246048 0.02866337 0.02454204
v -0.00746839 0.02276867 0.02869075
v -0.00683863 0.03419439 0.00240695
v -0.00761265 0.03051066 0.01926885
v -0.01778702 0.02279571 0.02384937
v -0.02435886 0.02813625 0.00832553
v -0.00519648 0.03443744 0.00015847
v -0.00006894 0.03085483 0.01995947
v -0.01959541 0.02553749 0.02236276
v -0.00512685 0.03426130 0.00461562
v -0.00541883 0.02548144 0.02931141
v -0.00479973 0.03145431 0.01757393
v -0.02447924 0.02670631 0.01392109
v -0.01778051 0.02830592 0.01819241
v -0.02728225 0.02575877 0.01183003
v -0.00986847 0.03306060 0.00872844
v -0.01477340 0.02715954 0.02303815
v -0.00492155 0.03444771 0.00128999
v -0.00909142 0.02815399 0.02408322
v -0.00097721 0.03321762 0.01232085
v -0.01738380 0.02523649 0.02421039
v -0.00509386 0.02484043 0.02937953
v -0.02095358 0.02819266 0.01477484
v -0.02411884 0.02485486 0.01739392
v -0.00091932 0.03103667 0.01946716
v -0.01455119 0.02861624 0.02004397
v -0.01097383 0.03348519 0.00009450
v -0.01079489 0.03153194 0.01439573
v -0.00030238 0.02047599 0.02453938
v -0.02706058 0.02503952 0.01246734
v -0.00372986 0.03417794 0.00632087
v -0.01954334 0.03093384 0.00319145
v -0.01938512 0.02795105 0.01739990
v -0.01264637 0.03314502 0.00156456
v -0.00621422 0.02841112 0.02443705
v -0.00230357 0.03430998 0.00611766
v -0.00289533 0.02857908 0.02468483
v -0.02087843 0.02489770 0.02122855
v -0.00997203 0.02741373 0.02507599
v -0.01714271 0.02047598 0.01787098
v -0.00990684 0.03196948 0.01338060
v -0.00821687 0.03302830 0.01052609
v -0.02534693 0.02818621 0.00417385
v -0.01882055 0.03103277 0.00522732
v -0.02301637 0.02470097 0.01893800
v -0.00099530 0.03467627 0.00076271
v -0.00289228 0.02558218 0.02964753
v -0.00145309 0.03461351 0.00288532
v -0.01861180 0.03133274 0.00035773
v -0.02640592 0.02634168 0.01142269
v -0.02977328 0.02556149 0.00158006
v -0.00904586 0.02285863 0.02823992
v -0.00246368 0.03122120 0.01877826
v -0.01878953 0.02754092 0.01907050
v -0.01547690 0.03097481 0.01221846
v -0.02974801 0.02489415 0.00068104
v -0.00405637 0.03437398 0.00423978
v -0.00853327 0.03293830 0.01063120
v -0.01103075 0.02051421 0.02221655
v -0.00125511 0.03436905 0.00577609
v -0.00737990 0.03415888 0.00095590
v -0.02857228 0.02271019 0.00839873
v -0.01341025 0.03104321 0.01415561
v -0.01927009 0.03077302 0.00585935
v -0.00424182 0.03452710 0.00025792
v -0.00565374 0.03118383 0.01817629
v -0.00003522 0.02047599 0.00101581
v -0.00219477 0.03377268 0.00920819
v -0.00009660 0.03471300 0.00003799
v -0.00545184 0.03409009 0.00558879
v -0.00213059 0.02600055 0.02919550
v -0.02477439 0.02274625 0.01629379
v -0.02259244 0.02574267 0.01936388
v -0.02265578 0.02505883 0.01937245
v -0.00724622 0.02814104 0.02469491
v -0.00484915 0.02611758 0.02872894
v -0.01700538 0.02573685 0.02442426
v -0.02197890 0.02682955 0.01726883
v -0.00940795 0.03348987 0.00560634
v -0.02742157 0.02523567 0.01163816
v -0.01865657 0.03099272 0.00611623
v -0.00907407 0.03291472 0.01026875
v -0.02632950 0.02780599 0.00059424
v -0.00248810 0.03450106 0.00377048
v -0.00886261 0.03257671 0.01181251
v -0.02895156 0.02620990 0.00143117
v -0.01095191 0.02958116 0.01989482
v -0.00400072 0.02424241 0.02952624
v -0.01575116 0.03082114 0.01240758
v -0.02273498 0.02624579 0.01787608
v -0.00576680 0.03436505 0.00149354
v -0.01813676 0.03095090 0.00787942
v -0.02062622 0.02754704 0.01704388
v -0.00975961 0.03305636 0.00888135
v -0.01800302 0.03101049 0.00777801
v -0.02443417 0.02820057 0.00776617
v -0.00248280 0.02047599 0.00001791
v -0.02839738 0.02536754 0.00897038
v -0.00455270 0.03101364 0.01905304
v -0.01142263 0.03337641 0.00168127
v -0.02367200 0.02816060 0.01012552
v -0.01534928 0.03099441 0.01227802
v -0.00827219 0.03179596 0.01505839
v -0.02975205 0.02410819 0.00186696
v -0.01242205 0.03310986 0.00363105
v -0.00127491 0.03457309 0.00352336
v -0.01150416 0.03078612 0.01648353
v -0.00602674 0.03198951 0.01545041
v -0.01794604 0.03099338 0.00800439
v -0.00027778 0.02618265 0.02895074
v -0.01732650 0.02579348 0.02408688
v -0.00907882 0.03131954 0.01629473
v -0.01032632 0.03256396 0.01061500
v -0.01896130 0.02047598 0.01610974
v -0.02776788 0.02560244 0.01072993
v -0.00008090 0.02447563 0.02972659
v -0.00227426 0.03380628 0.00901154
v -0.02170801 0.02835833 0.01306379
v -0.00715764 0.03312499 0.01065934
v -0.01209599 0.03109212 0.01507044
v -0.02453127 0.02828185 0.00694142
v -0.02547544 0.02813226 0.00402362
v -0.00846250 0.03317935 0.00928401
v -0.00050488 0.03299793 0.01343490
v -0.00565916 0.03418314 0.00463697
v -0.00744241 0.03348602 0.00804756
v -0.00494240 0.02605075 0.02882647
v -0.02124126 0.02823806 0.01418917
v -0.00496172 0.03438603 0.00288187
v -0.00023425 0.02306609 0.02968490
v -0.01942153 0.02654129 0.02074268
v -0.00804564 0.02278239 0.02852467
v -0.02753762 0.02581095 0.01087781
v -0.02034278 0.02611148 0.02087698
v -0.00679429 0.03275386 0.01249114
v -0.00148554 0.03456501 0.00353279
v -0.01646988 0.03180695 0.00477791
v -0.00495484 0.03427200 0.00472189
v -0.00102050 0.03447804 0.00465464
v -0.00980639 0.02294585 0.02802511
v -0.02892820 0.02619086 0.00208338
v -0.02705725 0.02598271 0.01137567
v -0.02612163 0.02557550 0.01438282
v -0.00798764 0.03399218 0.00233380
v -0.01260656 0.03287870 0.00568313
v -0.00194247 0.03137387 0.01837882
v -0.01771545 0.02708384 0.02100909
v -0.00162650 0.03262818 0.01452305
v -0.01239063 0.02827501 0.02230157
v -0.00312973 0.03448974 0.00342994
v -0.00685657 0.02590729 0.02867577
v -0.00759717 0.03013800 0.02011631
v -0.00978080 0.03314125 0.00819788
v -0.01357512 0.03089424 0.01452383
v -0.01260264 0.02572187 0.02695566
v -0.00007405 0.03103654 0.01950714
v -0.00624831 0.03296097 0.01204267
v -0.01001173 0.02777680 0.02439345
v -0.00521709 0.03442985 0.00074347
v -0.00890692 0.03128356 0.01650503
v -0.01422214 0.03056463 0.01490018
v -0.01384585 0.02271018 0.02608319
v -0.00267528 0.03457381 0.00264137
v -0.00007054 0.02271018 0.02936477
v -0.02216023 0.02799362 0.01361303
v -0.01718040 0.02466038 0.02436641
v -0.00305092 0.02765069 0.02642020
v -0.00004532 0.03121243 0.01896577
v -0.00420655 0.02585813 0.02926165
v -0.00701962 0.03304686 0.01123356
v -0.01945632 0.03074658 0.00546130
v -0.02525444 0.02839201 0.00031995
v -0.02186209 0.02805617 0.01386544
v -0.02149946 0.02407394 0.02062393
v -0.01006931 0.03092984 0.01704066
v -0.01145147 0.03203103 0.01181918
v -0.00256211 0.02619529 0.02886589
v -0.02803847 0.02271019 0.00000396
v -0.02617119 0.02291092 0.01428171
v -0.01955580 0.02554021 0.02239593
v -0.02849853 0.02335083 0.00868765
v -0.02837169 0.02596770 0.00756294
v -0.02733175 0.02718172 0.00005000
v -0.02523831 0.02623356 0.01417481
v -0.02519210 0.02841434 0.00001038
v -0.00163471 0.03464964 0.00129830
v -0.01957055 0.03064363 0.00584147
v -0.00817465 0.03287229 0.01118652
v -0.01822469 0.02781185 0.01899776
v -0.00903915 0.03111292 0.01702408
v -0.01841325 0.02047598 0.01656356
v -0.01951153 0.02633249 0.02111973
v -0.00036318 0.03468429 0.00093376
v -0.01580272 0.03099826 0.01162150
v -0.00234565 0.03445141 0.00446868
v -0.01593391 0.02756796 0.02145463
v -0.02809942 0.02672624 0.00122452
v -0.00513045 0.02823781 0.02502527
v -0.00255227 0.03444196 0.00447160
v -0.02217861 0.02656387 0.01773884
v -0.02945337 0.02583207 0.00278709
v -0.01206671 0.03237696 0.00955193
v -0.00968230 0.03356550 0.00420767
v -0.01603526 0.02631981 0.02389305
v -0.02073184 0.02048577 0.01364427
v -0.00492600 0.03084406 0.01938349
v -0.02094012 0.02955285 0.00894207
v -0.01911515 0.03107500 0.00327429
v -0.00209908 0.03442801 0.00485541
v -0.01515275 0.03097233 0.01259584
v -0.00654674 0.03397024 0.00531461
v -0.00046654 0.03469958 0.00024125
v -0.02848816 0.02645136 0.00209883
v -0.00205979 0.03449049 0.00414936
v -0.00074188 0.03425396 0.00690957
v -0.02473507 0.02575585 0.01633425
v -0.01266798 0.03091028 0.01524667
v -0.00123074 0.03346404 0.01101969
v -0.00072997 0.02047599 0.00003719
v -0.00157649 0.02047599 0.02152405
v -0.02476221 0.02851426 0.00322576
v -0.02115203 0.02751809 0.01645507
v -0.02259918 0.02797409 0.01291531
v -0.02131696 0.02466051 0.02082457
v -0.00921113 0.03236350 0.01237843
v -0.01769403 0.02810325 0.01881440
v -0.00525846 0.03441999 0.00111468
v -0.02219870 0.02048600 0.01138014
v -0.01223069 0.03303606 0.00530242
v -0.02769058 0.02550469 0.01094599
v -0.02487917 0.02811846 0.00685298
v -0.01401161 0.03070016 0.01469846
v -0.02361481 0.02509367 0.01812541
v -0.01593690 0.02777550 0.02100907
v -0.00286436 0.03462212 0.00080089
v -0.02092201 0.02047599 0.01324925
v -0.00576089 0.03426639 0.00375306
v -0.00915971 0.02854226 0.02319571
v -0.00088753 0.02733848 0.02704826
v -0.00047679 0.03460117 0.00341504
v -0.00379503 0.03269747 0.01387254
v -0.01975770 0.03095523 0.00044197
v -0.01286264 0.03134752 0.01339033
v -0.00592688 0.02281809 0.02913924
v -0.02134844 0.02932561 0.00923714
v -0.00303919 0.03432960 0.00555720
v -0.00951614 0.02821735 0.02379629
v -0.01897549 0.03115746 0.00245706
v -0.01231470 0.03304626 0.00491725
v -0.00389572 0.03427249 0.00562681
v -0.01698711 0.03087251 0.01043117
v -0.02037361 0.02907454 0.01229879
v -0.01886805 0.02273325 0.02288152
v -0.02636714 0.02640253 0.01123969
v -0.00239257 0.03463474 0.00090624
v -0.02975454 0.02519901 0.00091354
v -0.01059892 0.03003040 0.01898821
v -0.01121886 0.03301942 0.00729904
v -0.00508825 0.03432935 0.00376493
v -0.02126895 0.02705848 0.01754496
v -0.00280051 0.03296369 0.01326173
v -0.00420922 0.02448699 0.02950938
v -0.00348321 0.03268050 0.01402586
v -0.00704758 0.03060831 0.01923539
v -0.00366498 0.03456614 0.00115035
v -0.02841203 0.02636864 0.00420139
v -0.00119082 0.03441921 0.00525219
v -0.02673820 0.02271019 0.01260479
v -0.00175413 0.03427273 0.00661855
v -0.01549433 0.03189099 0.00672315
v -0.00671217 0.03373686 0.00694709
v -0.02583690 0.02809713 0.00067672
v -0.01887608 0.03117615 0.00290874
v -0.00474303 0.03435849 0.00371814
v -0.01587237 0.03062048 0.01292598
v -0.02090567 0.02271019 0.02104122
v -0.00413442 0.02673744 0.02779746
v -0.02558902 0.02808663 0.00380360
v -0.00109182 0.03386239 0.00892984
v -0.01658964 0.02898111 0.01733538
v -0.01493965 0.02863476 0.01970289
v -0.01936658 0.02632514 0.02125838
v -0.01661575 0.02349231 0.02472192
v -0.01435371 0.03254413 0.00384761
v -0.02279308 0.02276853 0.01909347
v -0.01112405 0.03309311 0.00678095
v -0.00429066 0.03451430 0.00086909
v -0.01267661 0.03256094 0.00767647
v -0.01960009 0.02272034 0.02222612
v -0.02875330 0.02632802 0.00111941
v -0.00701867 0.03325832 0.00992027
v -0.00718945 0.02622430 0.02804557
v -0.01530357 0.02556845 0.02554811
v -0.01385417 0.03248897 0.00584776
v -0.02416553 0.02485283 0.01732633
v -0.02949449 0.02575618 0.00361015
v -0.01152782 0.03298878 0.00701905
v -0.01843549 0.03084417 0.00773990
v -0.02357500 0.02870208 0.00698193
v -0.02542753 0.02821634 0.00292356
v -0.01927892 0.03109026 0.00133251
v -0.00328417 0.03413631 0.00680018
v -0.02373016 0.02802608 0.01052490
v -0.00379538 0.03266965 0.01396246
v -0.01575228 0.03140232 0.00950794
v -0.02609741 0.02572140 0.01438923
v -0.02716123 0.02574207 0.01213993
v -0.00929472 0.03374189 0.00250442
v -0.00025813 0.02713767 0.02739446
v -0.00058101 0.03303575 0.01329098
v -0.02114455 0.02638951 0.01937136
v -0.00056447 0.02718953 0.02730131
v -0.02969515 0.02279785 0.00017029
v -0.01285755 0.03030866 0.01677272
v -0.00052166 0.03442882 0.00525236
v -0.00661350 0.02573952 0.02901115
v -0.00805135 0.02828528 0.02413293
v -0.01854853 0.02781377 0.01866562
v -0.02855957 0.02387377 0.00851705
v -0.01187405 0.02319102 0.02729804
v -0.02161440 0.02047598 0.00008885
v -0.00753354 0.02570152 0.02882854
v -0.00071227 0.03468359 0.00074749
v -0.00203740 0.02651505 0.02835940
v -0.00607068 0.02789844 0.02546463
v -0.00650092 0.03419078 0.00324876
v -0.00416107 0.03448796 0.00209483
v -0.00136875 0.02574210 0.02963823
v -0.00199227 0.03119332 0.01893359
v -0.00504251 0.03026950 0.02062449
v -0.01352337 0.03294105 0.00169960
v -0.00510356 0.02344825 0.02937749
v -0.01038597 0.03102139 0.01654666
v -0.00135548 0.03301136 0.01335366
v -0.01696939 0.02871833 0.01775061
v -0.00113942 0.03466736 0.00102970
v -0.01864279 0.03003844 0.01116673
v -0.00847574 0.02457493 0.02850399
v -0.00490000 0.03316281 0.01166282
v -0.00054371 0.02055133 0.02486562
v -0.02977172 0.02458221 0.00167738
v -0.00590409 0.02737950 0.02637958
v -0.01265437 0.03295907 0.00489988
v -0.01916943 0.02581991 0.02250068
v -0.00903698 0.02867477 0.02294011
v -0.02092186 0.02586216 0.02087156
v -0.01488067 0.03097505 0.01288317
v -0.00786945 0.03118411 0.01733229
v -0.00421303 0.03441542 0.00341265
v -0.02889292 0.02623316 0.00166051
v -0.01871159 0.02764285 0.01890755
v -0.01717862 0.02817191 0.01910162
v -0.00022387 0.03431684 0.00645267
v -0.00110512 0.03301745 0.01334657
v -0.01444774 0.03262890 0.00218288
v -0.01306073 0.02983772 0.01789514
v -0.01816532 0.03147611 0.00019562
v -0.01287376 0.03295973 0.00428088
v -0.00679342 0.02047599 0.02389697
v -0.02975909 0.02299781 0.00112282
v -0.00276169 0.02520825 0.02964321
v -0.00041379 0.02326132 0.02968400
v -0.00553344 0.03381151 0.00743433
v -0.00588905 0.03436639 0.00081089
v -0.00245470 0.02960114 0.02253342
v -0.01604796 0.02047598 0.01877848
v -0.02856817 0.02284644 0.00847950
v -0.01343458 0.03300487 0.00042227
v -0.01355070 0.03291949 0.00210694
v -0.01485404 0.03175040 0.00891771
v -0.00671438 0.03429094 0.00048574
v -0.01257712 0.03303644 0.00433664
v -0.00231481 0.03451283 0.00373890
v -0.00945368 0.03308243 0.00901567
v -0.01188321 0.03322663 0.00327536
v -0.02368109 0.02570239 0.01805414
v -0.00032016 0.03458754 0.00357852
v -0.00426011 0.02535788 0.02950220
v -0.01790110 0.02047598 0.01646453
v -0.02574543 0.02797517 0.00400741
v -0.00028197 0.02548955 0.02972093
v -0.00272155 0.02808690 0.02572090
v -0.00383663 0.03430733 0.00532815
v -0.01332142 0.03301628 0.00133832
v -0.01402833 0.03267361 0.00346793
v -0.02711436 0.02671932 0.00748288
v -0.01155696 0.02496730 0.02747367
v -0.00882603 0.03375791 0.00362494
v -0.00474599 0.03376723 0.00821945
v -0.00164301 0.03466266 0.00037882
v -0.00205621 0.02283593 0.02956988
v -0.02272914 0.02944786 0.00350778
v -0.01709684 0.02336132 0.02441901
v -0.01596867 0.03137384 0.00928758
v -0.00201295 0.02661891 0.02818914
v -0.00297266 0.03327093 0.01172568
v -0.02976087 0.02533258 0.00178188
v -0.02309660 0.02896395 0.00665566
v -0.01413459 0.03278179 0.00030425
v -0.00134102 0.03336229 0.01154035
v -0.02286815 0.02815789 0.01172524
v -0.00213121 0.03464035 0.00106530
v -0.00584242 0.02271018 0.02906052
v -0.00704114 0.03130462 0.01731174
v -0.00003426 0.02525456 0.02972790
v -0.02344580 0.02823906 0.01024158
v -0.00574126 0.02722849 0.02666927
v -0.00253888 0.03343872 0.01091959
v -0.02264590 0.02360566 0.01937054
v -0.00030242 0.03464973 0.00206204
v -0.00388590 0.03432251 0.00509241
v -0.00725773 0.03263438 0.01264789
v -0.00305673 0.02787597 0.02604175
v -0.00538095 0.03406704 0.00581391
v -0.01021806 0.03248647 0.01102970
v -0.00187895 0.03283614 0.01382655
v -0.00238677 0.03024661 0.02115119
v -0.02014288 0.03068305 0.00278671
v -0.02227749 0.02319772 0.01982205
v -0.00269048 0.03417401 0.00686121
v -0.02929405 0.02597176 0.00207806
v -0.02191913 0.02333213 0.02019534
v -0.01256890 0.03105822 0.01480710
v -0.00755643 0.02575793 0.02873761
v -0.01353452 0.03176146 0.01076012
v -0.02352327 0.02047599 0.00745790
v -0.00974295 0.03340369 0.00592385
v -0.00230078 0.03464221 0.00031733
v -0.02137617 0.02814659 0.01430961
v -0.01323490 0.03303939 0.00115946
v -0.02953372 0.02475676 0.00377320
v -0.01987966 0.02601811 0.02148803
v -0.02887433 0.02623789 0.00019897
v -0.01836044 0.02822995 0.01779520
v -0.00420007 0.03096626 0.01926114
v -0.01631952 0.02694687 0.02246046
v -0.00913614 0.03369184 0.00378340
v -0.00318819 0.02787496 0.02602245
v -0.00001120 0.03249173 0.01501994
v -0.00311922 0.03460799 0.00129288
v -0.00524896 0.03438088 0.00244162
v -0.00140685 0.03465270 0.00143009
v -0.01881779 0.03120748 0.00249215
v -0.01535463 0.02680297 0.02337227
v -0.02006585 0.02540604 0.02195804
v -0.02653978 0.02345192 0.01348634
v -0.00083444 0.02826455 0.02547254
v -0.00016726 0.03315672 0.01267739
v -0.02900210 0.02594732 0.00484213
v -0.00333344 0.03439028 0.00460915
v -0.01026286 0.03362159 0.00019772
v -0.00230387 0.03437107 0.00542151
v -0.01352219 0.03111043 0.01375923
v -0.01165221 0.03316487 0.00492828
v -0.02442200 0.02818190 0.00791875
v -0.01241836 0.02570500 0.02706569
v -0.00322733 0.03315101 0.01230229
v -0.01083210 0.03348722 0.00170869
v -0.02539364 0.02287656 0.01543012
v -0.00160899 0.02047599 0.02200777
v -0.00470825 0.03405982 0.00642574
v -0.02566390 0.02814640 0.00173664
v -0.01259303 0.02810693 0.02255938
v -0.00453099 0.03285021 0.01314334
v -0.02086883 0.03033435 0.00305459
v -0.00611697 0.03357635 0.00852400
v -0.00124217 0.02818019 0.02563417
v -0.01003125 0.03032131 0.01857789
v -0.02653990 0.02337455 0.01347364
v -0.00595744 0.02835606 0.02461969
v -0.00872072 0.03075098 0.01817876
v -0.00658355 0.03101418 0.01842824
v -0.02926988 0.02280365 0.00463490
v -0.01909526 0.03097100 0.00486306
v -0.00239501 0.03302817 0.01312520
v -0.00768550 0.03409712 0.00117174
v -0.01873198 0.02901757 0.01487809
v -0.00342282 0.03310148 0.01251159
v -0.01153650 0.03077004 0.01650363
v -0.01669549 0.02753278 0.02089755
v -0.01116101 0.02816515 0.02313858
v -0.01191883 0.02047599 0.02166524
v -0.01047555 0.03159979 0.01436964
v -0.02868732 0.02533481 0.00808278
v -0.02268071 0.02420205 0.01934281
v -0.02608160 0.02448347 0.01444769
v -0.01286493 0.02766673 0.02324901
v -0.02949987 0.02271019 0.00018368
v -0.01570699 0.03092334 0.01208735
v -0.01738128 0.02424734 0.02421264
v -0.00711953 0.03054850 0.01934676
v -0.00461158 0.03442715 0.00261753
v -0.00686222 0.03424741 0.00126002
v -0.00381031 0.02700803 0.02739016
v -0.01472595 0.02048163 0.02002850
v -0.00687389 0.03426149 0.00057734
v -0.00980508 0.02583448 0.02786191
v -0.00841791 0.02941660 0.02147460
v -0.02573538 0.02271019 0.01452234
v -0.00738897 0.03095622 0.01832041
v -0.00854160 0.02047599 0.02335636
v -0.00170287 0.03085082 0.01989156
v -0.00986322 0.03108291 0.01665738
v -0.00168288 0.02047599 0.02410579
v -0.00210076 0.03448513 0.00419234
v -0.00919771 0.03062697 0.01824746
v -0.02197736 0.02567886 0.02013772
v -0.02655424 0.02565499 0.01350030
v -0.00316450 0.03446517 0.00373879
v -0.02094121 0.02813791 0.01496195
v -0.02377658 0.02820200 0.00959496
v -0.02413469 0.02047599 0.00485957
v -0.01447500 0.02579246 0.02590851
v -0.00606367 0.03423959 0.00354150
v -0.01638414 0.02271019 0.02478578
v -0.00468232 0.03306656 0.01230098
v -0.01535018 0.03217401 0.00454882
v -0.01293943 0.03282244 0.00535323
v -0.00378594 0.03456187 0.00082529
v -0.02256713 0.02825168 0.01189320
v -0.02300592 0.02851830 0.00973978
v -0.01569034 0.02803378 0.02066120
v -0.01956448 0.02047598 0.01528058
v -0.01681827 0.02604631 0.02393320
v -0.01019062 0.03072322 0.01748827
v -0.01276923 0.03143542 0.01309857
v -0.01736094 0.02047598 0.01757823
v -0.00244147 0.03426001 0.00646888
v -0.00339753 0.03382103 0.00856795
v -0.00126536 0.02569029 0.02969328
v -0.01253312 0.03315700 0.00201066
v -0.00078611 0.03432661 0.00631326
v -0.00896463 0.03104482 0.01729114
v -0.00331404 0.03425804 0.00608301
v -0.01265542 0.02822732 0.02225260
v -0.00501582 0.03441996 0.00193668
v -0.00856853 0.03288402 0.01082054
v -0.02459371 0.02447255 0.01668305
v -0.02955193 0.02526604 0.00379565
v -0.00554185 0.03334185 0.01032651
v -0.00307372 0.02525234 0.02962751
v -0.01473812 0.03253366 0.00223233
v -0.00452870 0.02612654 0.02876625
v -0.01672354 0.03188306 0.00254798
v -0.00202375 0.02830681 0.02532631
v -0.02971182 0.02287177 0.00201934
v -0.02652423 0.02767872 0.00014168
v -0.00872534 0.03347607 0.00672767
v -0.01384006 0.03090894 0.01424711
v -0.02038189 0.03027217 0.00593332
v -0.00397123 0.03298995 0.01286997
v -0.00465439 0.03448941 0.00008407
v -0.01891903 0.03123256 0.00024287
v -0.00024414 0.03463405 0.00256216
v -0.01838640 0.03113146 0.00560187
v -0.00730817 0.02530335 0.02888365
v -0.01359772 0.03254427 0.00600917
v -0.00332620 0.02585431 0.02939239
v -0.01090810 0.02513627 0.02771468
v -0.02128691 0.03013838 0.00308631
v -0.00668954 0.03428923 0.00098691
v -0.00936989 0.02799943 0.02426029
v -0.01498024 0.02546074 0.02575168
v -0.00524543 0.02516776 0.02934776
v -0.02413101 0.02781964 0.01049299
v -0.01175205 0.03333650 0.00009729
v -0.00671719 0.02675755 0.02726354
v -0.01971530 0.03089081 0.00256897
v -0.00584281 0.02860940 0.02408955
v -0.00259336 0.02814733 0.02562666
v -0.02853168 0.02626995 0.00449148
v -0.00544484 0.03436916 0.00230895
v -0.02618510 0.02726266 0.00751790
v -0.00579725 0.03431207 0.00295703
v -0.01627888 0.03208820 0.00031493
v -0.00614739 0.02438599 0.02915870
v -0.00275948 0.02047599 0.02473328
v -0.00646097 0.02785579 0.02544130
v -0.02730304 0.02541995 0.01195464
v -0.00074747 0.03463656 0.00238733
v -0.01697186 0.03007312 0.01345618
v -0.00319500 0.02629922 0.02866407
v -0.01037179 0.03295811 0.00875740
v -0.02475434 0.02047598 0.00106224
v -0.00355461 0.03429553 0.00565685
v -0.00506941 0.03089364 0.01922630
v -0.00164259 0.03434409 0.00595228
v -0.01707717 0.02499731 0.02443140
v -0.00695162 0.03110259 0.01802463
v -0.01245348 0.03267886 0.00732880
v -0.01222674 0.02822751 0.02249596
v -0.01216337 0.03325709 0.00000598
v -0.00140100 0.02686019 0.02781467
v -0.00470023 0.03151861 0.01739764
v -0.01811511 0.02687490 0.02112362
v -0.01801774 0.03100876 0.00775461
v -0.01413443 0.02913575 0.01898001
v -0.00364572 0.02810155 0.02555285
f 145 180 256
f 256 254 145
f 104 592 351
f 104 254 626
f 180 145 406
f 256 180 406
f 500 620 370
f 184 592 104
f 104 626 184
f 104 351 216
f 317 578 351
f 54 578 97
f 54 764 351
f 351 578 54
f 351 764 527
f 527 216 351
f 303 351 592
f 303 317 351
f 97 764 590
f 590 54 97
f 764 54 590
f 189 688 97
f 97 578 150
f 750 643 92
f 546 764 97
f 97 688 546
f 553 688 669
f 143 111 620
f 620 500 143
f 143 243 111
f 660 618 733
f 48 500 771
f 249 660 48
f 365 500 370
f 682 669 702
f 476 463 682
f 592 184 297
f 580 192 702
f 702 669 246
f 246 669 688
f 238 111 443
f 111 243 443
f 85 660 249
f 618 660 85
f 771 500 675
f 137 463 174
f 174 463 476
f 440 682 702
f 476 682 440
f 702 192 440
f 553 669 43
f 43 682 553
f 669 682 43
f 488 236 429
f 372 365 370
f 372 68 779
f 779 365 372
f 165 406 145
f 431 25 519
f 97 150 431
f 150 25 431
f 525 743 87
f 87 743 509
f 116 234 745
f 565 234 116
f 116 198 565
f 509 743 29
f 29 198 509
f 565 198 106
f 592 297 162
f 470 580 702
f 775 264 208
f 192 580 677
f 192 677 196
f 176 415 249
f 249 48 176
f 259 392 137
f 415 392 259
f 455 366 249
f 249 415 455
f 249 366 554
f 554 85 249
f 733 618 726
f 120 540 402
f 256 540 120
f 120 254 256
f 120 626 254
f 404 65 307
f 355 184 626
f 634 117 184
f 741 540 256
f 410 141 352
f 352 305 410
f 555 779 586
f 779 68 586
f 68 359 58
f 488 429 435
f 219 460 435
f 435 429 219
f 435 236 488
f 555 586 435
f 68 429 740
f 740 429 236
f 111 273 477
f 273 26 477
f 439 210 438
f 305 210 439
f 416 332 484
f 4 527 764
f 216 527 4
f 9 508 365
f 771 675 114
f 114 675 500
f 500 365 114
f 365 508 114
f 525 87 33
f 317 303 163
f 154 25 150
f 763 29 743
f 743 431 763
f 763 431 519
f 751 106 198
f 25 106 209
f 519 25 209
f 106 751 209
f 745 234 717
f 353 775 208
f 208 677 353
f 353 677 580
f 264 775 480
f 192 196 632
f 566 4 764
f 691 4 566
f 566 114 508
f 508 9 566
f 771 114 378
f 114 566 378
f 423 392 415
f 415 259 686
f 686 455 415
f 686 259 366
f 366 455 686
f 672 606 261
f 137 606 596
f 7 554 366
f 67 143 500
f 500 547 67
f 119 101 369
f 369 101 100
f 402 635 46
f 46 120 402
f 46 635 626
f 626 120 46
f 690 375 520
f 520 375 65
f 184 355 195
f 195 355 343
f 195 343 212
f 117 426 496
f 496 297 184
f 184 117 496
f 748 663 680
f 287 663 178
f 178 221 287
f 221 718 287
f 402 540 94
f 94 456 402
f 437 648 23
f 540 741 564
f 564 741 427
f 456 94 223
f 621 201 462
f 96 201 413
f 505 376 413
f 413 621 505
f 201 621 413
f 148 110 709
f 709 421 383
f 709 37 148
f 383 37 709
f 709 667 421
f 334 667 709
f 260 563 694
f 588 410 305
f 141 410 588
f 588 200 141
f 493 200 588
f 352 141 126
f 141 200 126
f 80 210 124
f 124 621 80
f 34 429 68
f 68 58 34
f 630 435 460
f 555 435 630
f 544 586 68
f 68 740 544
f 11 740 236
f 586 544 11
f 11 544 740
f 26 459 270
f 384 26 273
f 384 459 26
f 119 121 758
f 122 279 438
f 438 492 122
f 438 279 149
f 229 269 245
f 245 375 229
f 40 416 484
f 424 27 3
f 424 325 27
f 406 165 284
f 284 9 365
f 284 365 779
f 779 84 284
f 256 406 284
f 284 84 256
f 342 674 92
f 92 643 342
f 643 24 342
f 684 643 509
f 684 24 643
f 611 684 509
f 479 611 338
f 206 611 479
f 327 33 87
f 643 574 746
f 509 643 746
f 507 327 87
f 643 750 507
f 507 574 643
f 548 163 234
f 234 728 548
f 275 154 150
f 592 162 568
f 162 717 568
f 623 37 383
f 469 667 334
f 469 379 619
f 264 22 367
f 208 264 367
f 367 677 208
f 367 196 677
f 298 22 264
f 298 264 711
f 138 632 196
f 196 367 138
f 138 367 22
f 138 260 694
f 108 48 771
f 108 176 48
f 691 566 647
f 647 566 407
f 714 378 566
f 764 546 714
f 714 566 764
f 771 378 301
f 366 259 646
f 694 563 15
f 563 261 15
f 472 259 137
f 202 329 320
f 320 101 202
f 100 101 320
f 237 493 752
f 237 202 493
f 182 737 698
f 698 737 172
f 766 695 494
f 493 202 494
f 494 695 493
f 366 673 330
f 493 695 330
f 673 177 330
f 330 177 563
f 330 563 493
f 217 695 766
f 12 528 238
f 733 726 12
f 12 67 547
f 12 660 733
f 12 48 660
f 500 48 12
f 12 547 500
f 584 726 238
f 238 528 584
f 405 466 587
f 402 466 405
f 587 466 140
f 140 105 587
f 402 456 140
f 140 466 402
f 229 375 357
f 357 23 648
f 215 307 65
f 215 269 307
f 322 344 16
f 344 357 16
f 16 357 375
f 591 344 322
f 299 375 690
f 61 105 662
f 662 665 61
f 105 140 662
f 497 635 402
f 402 405 497
f 148 55 213
f 213 110 148
f 468 110 213
f 294 65 404
f 364 769 745
f 356 116 745
f 356 730 116
f 14 116 314
f 116 730 314
f 224 757 188
f 779 36 753
f 638 753 36
f 680 663 144
f 178 663 683
f 683 748 178
f 739 84 779
f 779 178 739
f 663 287 645
f 645 287 718
f 645 144 663
f 680 146 190
f 190 748 680
f 3 748 190
f 513 3 190
f 445 40 484
f 473 40 445
f 770 300 269
f 770 128 363
f 363 300 770
f 601 648 437
f 437 325 601
f 601 325 257
f 601 52 648
f 721 218 576
f 576 23 721
f 218 23 576
f 540 564 169
f 84 627 422
f 256 510 127
f 17 218 721
f 437 23 17
f 17 23 218
f 639 223 396
f 71 201 96
f 96 522 71
f 71 522 201
f 419 110 468
f 462 276 768
f 539 110 96
f 539 709 110
f 96 413 539
f 752 493 490
f 493 588 490
f 707 588 305
f 593 588 707
f 707 432 593
f 279 432 707
f 352 126 133
f 315 210 305
f 305 616 315
f 315 616 210
f 360 305 352
f 360 616 305
f 95 133 563
f 20 124 210
f 498 138 152
f 260 138 498
f 498 152 505
f 505 621 220
f 621 124 220
f 545 559 45
f 45 556 545
f 559 292 45
f 680 144 45
f 45 645 718
f 144 645 45
f 429 34 70
f 70 34 58
f 70 58 359
f 762 11 236
f 586 11 762
f 236 435 762
f 762 435 586
f 219 429 755
f 487 408 429
f 429 70 487
f 487 465 309
f 309 230 487
f 50 372 370
f 50 459 359
f 50 359 68
f 68 372 50
f 636 119 90
f 119 758 90
f 636 90 483
f 483 119 636
f 238 726 483
f 483 111 238
f 483 388 111
f 608 273 111
f 111 388 608
f 608 328 273
f 309 465 567
f 567 465 121
f 567 369 309
f 567 121 119
f 119 369 567
f 358 737 374
f 374 737 182
f 172 737 585
f 585 737 358
f 593 432 708
f 395 460 219
f 661 556 460
f 661 395 219
f 219 358 661
f 460 395 661
f 279 122 296
f 332 416 705
f 484 777 475
f 484 332 39
f 39 777 484
f 332 777 39
f 279 186 524
f 524 149 279
f 524 186 305
f 305 439 524
f 524 439 438
f 438 149 524
f 602 300 363
f 269 300 602
f 307 269 602
f 363 128 713
f 128 640 713
f 307 602 430
f 430 713 640
f 430 602 363
f 363 713 430
f 390 40 513
f 416 40 390
f 735 160 88
f 88 424 735
f 701 3 513
f 701 424 3
f 197 424 88
f 325 424 197
f 88 312 197
f 197 312 41
f 62 284 165
f 62 566 9
f 9 284 62
f 62 145 254
f 62 165 145
f 254 407 62
f 407 566 62
f 92 700 125
f 125 480 750
f 125 750 92
f 264 480 125
f 711 264 391
f 509 198 503
f 198 116 503
f 503 611 509
f 503 338 611
f 688 189 319
f 86 746 574
f 86 507 87
f 574 507 86
f 327 507 181
f 181 470 702
f 750 470 181
f 181 507 750
f 317 163 549
f 163 548 549
f 154 275 449
f 449 275 728
f 449 234 565
f 449 728 234
f 619 533 531
f 533 138 531
f 531 138 22
f 321 533 619
f 619 379 318
f 318 321 619
f 37 623 153
f 623 298 153
f 153 298 711
f 782 469 619
f 667 469 782
f 415 176 130
f 176 613 130
f 130 423 415
f 130 613 108
f 176 108 699
f 699 613 176
f 108 613 699
f 227 546 688
f 227 714 546
f 227 688 553
f 553 682 227
f 378 714 227
f 227 301 378
f 227 682 463
f 227 463 137
f 137 301 227
f 392 423 710
f 137 392 710
f 710 301 137
f 423 130 710
f 710 130 108
f 710 108 771
f 771 301 710
f 482 211 563
f 672 261 232
f 232 261 563
f 232 606 672
f 232 596 606
f 113 482 725
f 211 482 113
f 366 646 113
f 1 261 606
f 1 15 261
f 137 596 136
f 136 472 137
f 78 633 366
f 78 217 766
f 656 7 366
f 366 633 656
f 119 483 671
f 671 101 119
f 671 285 101
f 441 76 329
f 441 329 202
f 202 237 441
f 100 320 760
f 760 320 329
f 329 76 760
f 760 369 100
f 172 585 642
f 528 12 291
f 291 12 726
f 23 357 727
f 721 23 727
f 107 703 112
f 112 357 344
f 61 665 738
f 665 703 738
f 738 448 61
f 738 703 107
f 450 448 738
f 107 651 738
f 228 245 269
f 269 215 228
f 107 112 123
f 344 591 123
f 123 112 344
f 322 16 599
f 21 16 375
f 375 299 21
f 21 599 16
f 322 599 21
f 21 290 322
f 299 290 21
f 587 105 541
f 343 355 541
f 626 635 311
f 635 497 311
f 497 541 311
f 311 355 626
f 311 541 355
f 61 171 603
f 335 171 61
f 543 213 55
f 404 2 501
f 2 543 501
f 745 717 515
f 515 717 162
f 582 364 426
f 769 364 582
f 654 757 117
f 117 634 654
f 769 569 354
f 569 600 354
f 745 769 354
f 604 224 552
f 552 224 188
f 552 654 634
f 132 178 779
f 331 292 559
f 331 146 680
f 663 748 248
f 248 683 663
f 748 683 248
f 178 748 558
f 84 739 252
f 416 390 641
f 641 190 146
f 146 331 641
f 3 27 761
f 27 72 761
f 203 445 129
f 129 770 203
f 128 770 129
f 142 445 203
f 160 735 142
f 142 735 424
f 203 770 281
f 281 770 269
f 281 269 229
f 281 160 203
f 648 52 550
f 229 478 550
f 550 601 229
f 52 601 550
f 458 601 257
f 257 325 458
f 325 197 458
f 458 197 41
f 446 461 13
f 715 223 721
f 456 223 715
f 427 326 719
f 719 94 540
f 540 169 719
f 256 84 615
f 84 422 615
f 442 422 627
f 350 560 235
f 235 560 323
f 235 13 350
f 627 13 235
f 427 741 235
f 629 127 510
f 627 235 629
f 629 235 127
f 47 223 639
f 47 433 223
f 736 397 462
f 462 201 736
f 468 213 784
f 784 2 404
f 213 543 784
f 784 543 2
f 467 522 96
f 201 522 467
f 467 736 201
f 397 736 534
f 438 768 103
f 276 676 103
f 103 768 276
f 93 210 80
f 438 210 93
f 93 768 438
f 462 768 5
f 5 621 462
f 538 376 505
f 538 241 376
f 505 152 538
f 288 588 593
f 288 490 588
f 752 490 288
f 182 698 288
f 288 698 172
f 288 237 752
f 593 708 288
f 288 708 182
f 288 441 237
f 305 186 32
f 32 707 305
f 32 186 279
f 279 707 32
f 493 563 403
f 563 133 403
f 563 260 31
f 31 95 563
f 210 616 697
f 697 20 210
f 20 697 265
f 260 498 280
f 280 447 260
f 124 447 280
f 460 556 731
f 518 542 556
f 545 556 572
f 572 471 545
f 556 471 572
f 51 471 556
f 652 755 429
f 359 459 649
f 465 487 649
f 649 179 465
f 168 487 70
f 359 649 168
f 168 649 487
f 30 79 408
f 408 487 30
f 230 79 30
f 30 487 230
f 83 270 459
f 459 50 83
f 121 465 453
f 453 758 121
f 453 90 758
f 453 483 90
f 400 328 465
f 465 179 400
f 279 268 8
f 783 268 279
f 530 705 416
f 530 559 545
f 416 559 530
f 481 705 530
f 545 783 530
f 530 783 481
f 557 777 332
f 492 475 557
f 557 475 777
f 307 430 610
f 404 307 610
f 88 160 398
f 398 312 88
f 160 281 398
f 398 281 312
f 92 674 118
f 118 700 92
f 77 345 24
f 684 611 77
f 24 684 38
f 38 77 24
f 684 77 38
f 327 181 239
f 239 181 319
f 349 181 702
f 702 246 349
f 349 246 688
f 688 319 349
f 319 181 349
f 376 241 57
f 57 318 376
f 321 318 57
f 632 138 225
f 138 411 225
f 192 632 225
f 225 411 192
f 139 138 694
f 139 411 138
f 137 174 609
f 609 606 137
f 609 174 476
f 411 1 609
f 609 1 606
f 563 211 420
f 420 232 563
f 74 113 725
f 74 673 366
f 366 113 74
f 35 78 366
f 217 78 35
f 554 173 368
f 368 173 417
f 302 494 202
f 202 101 302
f 766 494 302
f 302 417 766
f 101 285 302
f 618 85 91
f 91 726 618
f 91 483 726
f 91 671 483
f 418 760 76
f 76 642 418
f 418 230 309
f 304 140 456
f 456 715 304
f 240 448 450
f 61 448 240
f 240 335 61
f 306 357 648
f 648 478 306
f 229 357 306
f 306 478 229
f 526 112 703
f 357 112 526
f 526 727 357
f 721 727 526
f 10 175 450
f 156 489 721
f 670 215 65
f 670 228 215
f 65 375 670
f 375 228 670
f 347 290 299
f 587 541 207
f 207 541 497
f 207 405 587
f 207 497 405
f 521 541 105
f 521 105 61
f 61 603 521
f 343 541 521
f 499 496 426
f 426 780 499
f 426 364 511
f 511 780 426
f 258 364 745
f 745 515 258
f 188 757 732
f 757 654 732
f 732 552 188
f 654 552 732
f 681 464 730
f 600 464 681
f 263 314 730
f 730 464 263
f 625 464 600
f 779 753 214
f 214 132 779
f 753 638 214
f 638 132 214
f 292 331 98
f 194 739 178
f 178 558 194
f 513 190 575
f 575 390 513
f 436 331 559
f 436 641 331
f 436 559 416
f 416 641 436
f 72 13 316
f 316 761 72
f 242 445 484
f 484 475 242
f 242 475 492
f 242 103 676
f 242 676 276
f 242 276 462
f 462 397 242
f 203 160 340
f 340 142 203
f 160 142 340
f 473 445 157
f 445 142 157
f 41 312 561
f 312 281 561
f 229 41 561
f 561 281 229
f 653 478 648
f 648 550 653
f 653 550 478
f 350 13 536
f 536 461 350
f 13 461 536
f 350 461 155
f 271 560 350
f 560 271 570
f 665 662 644
f 607 703 665
f 665 644 607
f 607 644 715
f 489 156 607
f 721 489 607
f 607 715 721
f 502 169 564
f 502 719 169
f 427 719 502
f 577 422 256
f 256 615 577
f 577 615 422
f 256 422 64
f 422 442 64
f 723 28 3
f 723 452 28
f 767 235 741
f 589 442 627
f 774 454 326
f 247 454 774
f 94 247 774
f 774 223 94
f 293 235 323
f 427 235 293
f 293 326 427
f 293 774 326
f 223 774 293
f 293 396 223
f 323 560 401
f 401 396 323
f 639 396 401
f 341 736 419
f 341 784 404
f 341 419 468
f 468 784 341
f 419 736 348
f 736 467 348
f 348 467 96
f 96 110 348
f 110 419 348
f 381 492 438
f 438 103 381
f 381 242 492
f 103 242 381
f 664 93 80
f 768 93 664
f 664 5 768
f 80 621 664
f 621 5 664
f 76 441 193
f 441 288 193
f 193 288 172
f 172 642 193
f 193 642 76
f 371 133 126
f 371 403 133
f 493 403 371
f 371 200 493
f 371 126 200
f 387 447 124
f 124 265 387
f 387 265 95
f 124 20 409
f 409 265 124
f 20 265 409
f 277 697 616
f 277 265 697
f 616 360 277
f 277 360 352
f 95 265 277
f 352 133 277
f 133 95 277
f 556 542 729
f 729 731 556
f 99 630 460
f 460 731 99
f 555 630 99
f 99 731 555
f 571 45 718
f 542 518 571
f 556 45 571
f 571 518 556
f 571 729 542
f 555 731 571
f 731 729 571
f 231 661 268
f 231 51 556
f 556 661 231
f 408 79 579
f 579 79 230
f 755 652 605
f 53 70 359
f 359 168 53
f 53 168 70
f 270 83 734
f 734 50 370
f 734 83 50
f 273 328 537
f 328 400 537
f 358 374 251
f 251 8 268
f 708 8 251
f 251 661 358
f 268 661 251
f 251 374 182
f 182 708 251
f 279 8 485
f 481 457 744
f 332 705 744
f 744 705 481
f 744 122 332
f 744 457 122
f 279 296 282
f 282 783 279
f 282 296 122
f 122 457 282
f 282 457 481
f 481 783 282
f 581 557 332
f 492 557 581
f 404 610 42
f 42 341 404
f 736 341 42
f 42 610 430
f 513 40 266
f 266 701 513
f 701 266 135
f 135 157 142
f 473 157 135
f 345 77 226
f 226 77 611
f 622 224 604
f 75 175 781
f 175 10 781
f 781 738 651
f 781 10 738
f 262 765 158
f 262 206 479
f 479 765 262
f 479 338 754
f 754 765 479
f 158 765 754
f 754 512 158
f 14 314 594
f 594 512 14
f 757 224 170
f 224 622 170
f 158 385 657
f 650 118 674
f 650 131 204
f 650 204 631
f 650 631 711
f 711 391 650
f 434 63 345
f 345 63 166
f 476 440 361
f 361 609 476
f 411 609 361
f 361 440 192
f 192 411 361
f 417 173 167
f 554 368 506
f 285 671 506
f 18 91 85
f 671 91 18
f 85 554 18
f 554 506 18
f 18 506 671
f 369 760 573
f 760 418 573
f 309 369 573
f 573 418 309
f 230 418 308
f 308 579 230
f 308 358 219
f 308 585 358
f 486 585 308
f 583 304 715
f 715 644 583
f 583 644 662
f 662 595 583
f 333 335 516
f 335 240 516
f 212 333 516
f 703 607 81
f 450 738 428
f 375 245 724
f 724 272 375
f 245 272 724
f 245 228 412
f 412 272 245
f 412 228 375
f 375 272 412
f 776 123 591
f 107 123 109
f 109 651 107
f 109 781 651
f 377 347 299
f 377 299 690
f 290 347 377
f 73 603 171
f 73 521 603
f 171 335 73
f 73 335 333
f 73 333 212
f 212 343 73
f 343 521 73
f 785 600 569
f 785 625 600
f 569 757 785
f 757 170 785
f 785 170 385
f 680 45 562
f 562 98 680
f 562 45 292
f 292 98 562
f 6 331 680
f 624 641 390
f 390 575 624
f 190 641 624
f 624 575 190
f 187 13 627
f 187 514 13
f 389 129 445
f 445 242 389
f 128 129 389
f 310 41 229
f 229 601 310
f 310 458 41
f 350 244 337
f 89 570 598
f 89 325 437
f 598 570 637
f 637 570 271
f 433 386 772
f 772 17 721
f 437 17 772
f 721 223 772
f 223 433 772
f 772 89 437
f 570 89 772
f 551 252 748
f 28 452 82
f 452 706 82
f 256 127 380
f 627 629 373
f 373 589 627
f 560 386 692
f 692 401 560
f 617 718 221
f 617 571 718
f 555 571 617
f 617 132 638
f 617 638 36
f 617 779 555
f 617 221 178
f 178 132 617
f 617 36 779
f 742 231 268
f 69 783 545
f 69 704 783
f 545 471 69
f 471 51 69
f 51 704 69
f 408 579 44
f 429 408 44
f 652 579 147
f 579 308 147
f 147 308 219
f 147 605 652
f 219 755 147
f 755 605 147
f 394 8 708
f 394 485 8
f 394 708 432
f 394 432 279
f 279 485 394
f 185 122 492
f 492 581 185
f 332 122 185
f 185 581 332
f 736 42 250
f 640 534 250
f 250 534 736
f 250 430 640
f 250 42 430
f 614 40 473
f 473 135 614
f 614 266 40
f 614 135 266
f 286 175 75
f 206 262 504
f 14 512 529
f 512 754 529
f 222 262 158
f 158 657 222
f 222 504 262
f 385 170 517
f 517 170 622
f 778 650 49
f 49 650 674
f 49 342 24
f 674 342 49
f 206 434 749
f 611 206 749
f 749 226 611
f 345 226 749
f 749 434 345
f 183 434 206
f 206 504 183
f 183 222 685
f 504 222 183
f 362 520 65
f 65 294 362
f 690 520 362
f 336 650 778
f 444 362 336
f 336 362 294
f 766 417 267
f 417 167 267
f 283 418 642
f 283 308 418
f 486 308 283
f 283 585 486
f 283 642 585
f 255 583 595
f 304 583 255
f 140 304 255
f 255 662 140
f 255 595 662
f 161 622 604
f 159 526 703
f 703 81 159
f 721 526 159
f 159 81 721
f 716 607 156
f 716 81 607
f 716 156 721
f 721 81 716
f 738 10 491
f 491 428 738
f 491 10 450
f 450 428 491
f 290 377 720
f 322 290 720
f 720 377 690
f 690 362 720
f 295 109 123
f 123 776 295
f 295 776 659
f 659 109 295
f 253 109 659
f 659 286 253
f 59 385 158
f 59 785 385
f 495 98 331
f 331 6 495
f 680 98 495
f 495 6 680
f 628 134 13
f 628 514 3
f 13 514 628
f 679 316 13
f 13 134 679
f 3 514 759
f 759 723 3
f 452 723 759
f 627 452 759
f 289 242 397
f 458 310 313
f 601 458 313
f 313 310 601
f 696 271 350
f 350 337 696
f 19 89 244
f 325 89 19
f 19 244 350
f 19 446 27
f 27 325 19
f 461 446 19
f 19 155 461
f 474 551 748
f 748 82 474
f 474 82 706
f 252 551 346
f 597 380 767
f 597 767 741
f 597 741 256
f 256 380 597
f 589 373 233
f 233 510 256
f 382 386 433
f 382 692 386
f 324 704 51
f 51 231 324
f 231 742 324
f 324 742 268
f 268 783 324
f 783 704 324
f 747 579 652
f 747 44 579
f 747 652 429
f 429 44 747
f 66 135 142
f 66 142 424
f 701 135 66
f 424 701 66
f 115 286 622
f 622 161 115
f 175 286 115
f 115 516 240
f 115 161 516
f 450 175 115
f 115 240 450
f 75 781 199
f 199 286 75
f 199 253 286
f 781 109 199
f 109 253 199
f 622 286 773
f 756 657 385
f 385 517 756
f 756 222 657
f 756 517 222
f 668 63 778
f 778 49 668
f 668 49 24
f 668 166 63
f 24 345 668
f 345 166 668
f 778 63 274
f 274 336 778
f 63 434 274
f 444 336 274
f 131 650 722
f 650 336 722
f 148 131 722
f 722 55 148
f 722 543 55
f 722 336 543
f 666 336 294
f 543 336 666
f 666 501 543
f 666 294 404
f 404 501 666
f 212 516 689
f 516 161 689
f 689 195 212
f 689 161 604
f 184 195 689
f 604 552 689
f 689 634 184
f 689 552 634
f 535 591 322
f 322 720 535
f 659 776 687
f 687 535 720
f 687 720 362
f 687 776 591
f 591 535 687
f 128 389 612
f 612 289 397
f 612 389 242
f 242 289 612
f 397 534 612
f 612 640 128
f 612 534 640
f 56 637 271
f 271 696 56
f 56 696 598
f 598 637 56
f 252 346 60
f 84 252 60
f 60 627 84
f 60 452 627
f 60 706 452
f 414 82 748
f 748 151 414
f 278 151 748
f 278 748 3
f 3 28 278
f 399 233 256
f 589 233 399
f 523 629 510
f 510 233 523
f 164 286 659
f 164 773 286
f 659 687 164
f 164 687 102
f 393 517 622
f 622 773 393
f 222 517 393
f 393 164 222
f 773 164 393
f 434 183 425
f 183 532 425
f 425 693 434
f 655 693 362
f 444 274 655
f 434 693 655
f 655 274 434
f 102 687 191
f 191 687 532
f 191 183 685
f 191 532 183
f 532 687 658
f 658 425 532
f 693 425 658
f 362 693 658
f 658 687 362
f 28 82 205
f 205 278 28
f 712 362 444
f 444 655 712
f 712 655 362
f 339 191 685
f 685 222 339
f 451 164 102
f 102 191 451
f 222 164 451
f 191 339 678
f 678 451 191
f 678 339 222
f 222 451 678
f 198 29 209
f 209 763 519
f 29 763 209
f 209 751 198
f 580 470 480
f 480 470 750
f 480 353 580
f 775 353 480
f 234 163 568
f 568 303 592
f 568 717 234
f 568 163 303
f 104 216 647
f 647 254 104
f 647 407 254
f 216 4 647
f 647 4 691
f 243 143 12
f 238 443 12
f 12 443 243
f 143 67 12
f 86 87 509
f 509 746 86
f 549 150 578
f 578 317 549
f 549 275 150
f 549 548 728
f 728 275 549
f 565 106 449
f 449 106 25
f 25 154 449
f 318 469 334
f 334 709 318
f 318 539 413
f 318 413 376
f 379 469 318
f 709 539 318
f 383 421 782
f 421 667 782
f 782 623 383
f 782 298 623
f 619 531 782
f 22 298 782
f 782 531 22
f 726 584 291
f 291 584 528
f 117 757 582
f 582 426 117
f 582 569 769
f 582 757 569
f 446 13 72
f 446 72 27
f 505 220 280
f 280 498 505
f 280 220 124
f 453 608 388
f 465 328 453
f 388 483 453
f 328 608 453
f 148 37 131
f 711 631 131
f 131 153 711
f 37 153 131
f 631 204 131
f 97 431 239
f 239 189 97
f 239 743 525
f 525 33 239
f 239 431 743
f 33 327 239
f 239 319 189
f 533 321 57
f 152 138 57
f 57 138 533
f 57 538 152
f 241 538 57
f 15 1 139
f 694 15 139
f 139 1 411
f 211 113 420
f 420 646 259
f 259 472 420
f 420 113 646
f 596 232 420
f 420 136 596
f 472 136 420
f 74 177 673
f 725 482 74
f 563 177 74
f 74 482 563
f 35 330 695
f 366 330 35
f 695 217 35
f 258 162 297
f 297 496 258
f 258 515 162
f 496 499 258
f 258 511 364
f 258 499 780
f 780 511 258
f 745 354 681
f 681 356 745
f 730 356 681
f 681 354 600
f 748 252 194
f 194 558 748
f 194 252 739
f 502 564 427
f 94 719 454
f 454 719 326
f 454 247 94
f 323 396 293
f 387 31 260
f 260 447 387
f 95 31 387
f 620 111 734
f 370 620 734
f 111 477 734
f 734 477 26
f 26 270 734
f 537 649 459
f 459 384 537
f 537 384 273
f 179 649 537
f 537 400 179
f 264 125 650
f 650 391 264
f 650 125 700
f 700 118 650
f 506 368 417
f 506 302 285
f 417 302 506
f 772 386 560
f 560 570 772
f 235 767 380
f 127 235 380
f 529 503 116
f 529 116 14
f 338 503 529
f 529 754 338
f 7 656 267
f 554 7 267
f 267 78 766
f 633 78 267
f 267 656 633
f 267 173 554
f 267 167 173
f 314 263 59
f 59 594 314
f 158 512 59
f 59 263 464
f 464 625 59
f 512 594 59
f 625 785 59
f 3 761 679
f 761 316 679
f 679 628 3
f 134 628 679
f 759 187 627
f 514 187 759
f 696 337 244
f 696 89 598
f 244 89 696
f 350 155 19
f 433 47 382
f 382 47 639
f 639 401 382
f 401 692 382
f 551 474 60
f 60 474 706
f 60 346 551
f 399 64 442
f 256 64 399
f 442 589 399
f 523 233 373
f 523 373 629
f 151 278 205
f 82 414 205
f 205 414 151

