# https://github.com/mikedh/trimesh
v 0.05045714 0.01355418 -0.00051079
v 0.05205037 0.01070619 -0.00077160
v 0.05053773 0.01386144 -0.00051095
v 0.05035366 0.01405807 -0.00932764
v 0.05107875 0.00847156 -0.00733943
v 0.05009803 0.00028197 -0.01404208
v 0.05099211 0.00544821 -0.00050662
v 0.05053702 0.01600839 -0.00686191
v 0.05089146 0.00950906 -0.00816527
v 0.05005717 0.00068972 -0.01423963
v 0.05218543 0.00576491 -0.00121829
v 0.05012556 0.01036543 -0.01239013
v 0.05056709 0.02031536 -0.00270415
v 0.05044245 0.01014414 -0.01059337
v 0.05109419 0.01858681 -0.00130699
v 0.05117099 0.00974382 -0.00640111
v 0.05012968 0.02321939 -0.00051576
v 0.05147557 0.01618065 -0.00110976
v 0.05138259 0.00026137 -0.00653844
v 0.05014982 0.02359720 -0.00066892
v 0.05006545 0.00301886 -0.01407431
v 0.05003738 0.00648651 -0.00050718
v 0.05046063 0.00103360 -0.00050438
v 0.05012726 0.00955892 -0.01268646
v 0.05201578 0.01060767 -0.00102227
v 0.05201872 0.01001154 -0.00118343
v 0.05114243 0.01879464 -0.00080863
v 0.05082124 0.00315874 -0.00050545
v 0.05110734 0.01018120 -0.00662108
v 0.05058067 0.01541818 -0.00706087
v 0.05139912 0.01390150 -0.00314343
v 0.05129328 0.01475843 -0.00322855
v 0.05206947 0.00754689 -0.00161062
v 0.05231140 0.00356621 -0.00079587
v 0.05038454 0.00096300 -0.01244850
v 0.05024079 0.00667043 -0.01260022
v 0.05016681 0.01822452 -0.00717634
v 0.05124056 0.01712664 -0.00182991
v 0.05193611 0.01219063 -0.00074661
v 0.05019132 0.00930452 -0.01241253
v 0.05206367 0.01000533 -0.00091282
v 0.05018818 0.01407797 -0.01030887
v 0.05009836 0.02250809 -0.00250313
v 0.05008007 0.01696179 -0.00873266
v 0.05075556 0.01854678 -0.00338031
v 0.05004566 0.02117269 -0.00460264
v 0.05010808 0.01397593 -0.01083432
v 0.05207162 0.00636734 -0.00050706
v 0.05150454 0.00999934 -0.00430337
v 0.05028230 0.01386366 -0.00984781
v 0.05143045 0.01667447 -0.00102891
v 0.05036548 0.00180699 -0.01253105
v 0.05002662 0.02283237 -0.00246969
v 0.05154743 0.00034836 -0.00553941
v 0.05045266 0.00258963 -0.00050517
v 0.05044743 0.00002693 -0.01212340
v 0.05200004 0.01086433 -0.00099803
v 0.05215781 0.00910046 -0.00061204
v 0.05169912 0.01160547 -0.00050976
v 0.05098140 0.00017130 -0.00896605
v 0.05223796 0.00305205 -0.00128151
v 0.05217102 0.00235147 -0.00170793
v 0.05003156 0.01991373 -0.00635459
v 0.05049117 0.00072249 -0.01185241
v 0.05024469 0.00878072 -0.01223493
v 0.05151872 0.01028999 -0.00412419
v 0.05213162 0.00142070 -0.00050452
v 0.05075675 0.01958391 -0.00233171
v 0.05231654 0.00199221 -0.00050481
f 10 23 22
f 22 17 53
f 67 54 69
f 23 54 67
f 63 22 53
f 10 22 63
f 6 23 10
f 6 56 23
f 19 54 23
f 23 56 19
f 47 63 44
f 53 17 20
f 20 43 53
f 48 59 17
f 17 3 48
f 48 28 69
f 17 59 27
f 27 20 17
f 55 22 23
f 55 28 22
f 17 22 1
f 1 3 17
f 22 48 1
f 1 48 3
f 18 31 32
f 31 4 32
f 47 44 42
f 42 32 4
f 15 27 38
f 46 63 53
f 53 43 46
f 22 28 7
f 7 48 22
f 28 48 7
f 51 38 27
f 8 42 44
f 37 44 63
f 13 46 43
f 43 20 13
f 20 27 13
f 63 46 13
f 60 19 56
f 47 2 12
f 30 8 38
f 38 51 30
f 42 8 30
f 32 42 30
f 45 37 63
f 38 37 45
f 15 38 45
f 63 13 68
f 68 13 27
f 61 52 34
f 60 52 61
f 34 52 36
f 64 60 56
f 56 52 64
f 64 52 60
f 56 6 35
f 35 52 56
f 6 52 35
f 39 31 18
f 18 51 39
f 39 51 27
f 39 27 59
f 47 42 50
f 50 2 47
f 69 54 62
f 62 34 69
f 62 61 34
f 21 36 52
f 21 6 10
f 21 52 6
f 21 12 24
f 65 36 21
f 47 12 21
f 10 63 21
f 21 63 47
f 69 34 58
f 58 48 69
f 2 39 58
f 59 48 58
f 58 39 59
f 65 21 40
f 40 21 24
f 40 5 65
f 9 5 40
f 24 12 40
f 57 39 2
f 2 50 57
f 11 58 34
f 33 58 11
f 34 36 11
f 11 5 33
f 11 36 65
f 65 5 11
f 12 66 29
f 29 66 9
f 9 40 29
f 9 66 25
f 25 12 2
f 25 66 12
f 2 58 25
f 14 40 12
f 12 29 14
f 14 29 40
f 49 25 26
f 58 26 41
f 41 25 58
f 26 25 41
f 9 25 16
f 25 49 16
f 23 67 55
f 55 67 69
f 69 28 55
f 37 8 44
f 38 8 37
f 30 51 18
f 18 32 30
f 15 45 68
f 68 45 63
f 68 27 15
f 54 19 62
f 19 60 62
f 60 61 62
f 31 39 57
f 57 4 31
f 57 50 42
f 57 42 4
f 16 58 33
f 33 5 16
f 16 5 9
f 16 26 58
f 16 49 26

