# https://github.com/mikedh/trimesh
v -0.04819295 0.02159029 -0.00191241
v -0.04291339 0.02465229 -0.00268838
v -0.04991576 0.02204229 -0.00631578
v -0.04747409 0.02137070 -0.00037610
v -0.02625742 0.02423231 -0.00069227
v -0.04932860 0.02410316 -0.01171640
v -0.02753719 0.02498166 -0.00494698
v -0.02514681 0.00530421 -0.00289821
v -0.02647389 0.00034102 -0.01360260
v -0.04657804 0.02222213 -0.00106980
v -0.02515623 0.00035778 -0.00597801
v -0.03378248 0.02323406 -0.00020608
v -0.03623174 0.00007667 -0.01500006
v -0.04680950 0.02457533 -0.00822022
v -0.02508159 0.02280224 -0.01500006
v -0.04894239 0.02303330 -0.00719511
v -0.04778106 0.02262051 -0.00394281
v -0.04936621 0.02281697 -0.00737055
v -0.04975125 0.02220639 -0.00644958
v -0.04982019 0.01618211 -0.00153657
v -0.04841360 0.02330270 -0.00705632
v -0.02873721 0.02498991 -0.00522195
v -0.04806121 0.00011314 -0.01500006
v -0.04821675 0.02187693 -0.00272307
v -0.02559999 0.02495093 -0.01500006
v -0.03995608 0.02488208 -0.00033340
v -0.04076359 0.02453570 -0.00021746
v -0.04806759 0.02286477 -0.00515485
v -0.04796502 0.02482760 -0.01131359
v -0.02506911 0.02385167 -0.01149327
v -0.04964014 0.02291467 -0.00814190
v -0.04995178 0.01308097 -0.01500007
v -0.04996943 0.01550914 -0.01500006
v -0.02507173 0.02455382 -0.00213446
v -0.04865857 0.02230843 -0.00469623
v -0.04965610 0.02306101 -0.00857646
v -0.04983280 0.02390409 -0.01241291
v -0.02542215 0.00600438 -0.00078815
v -0.02649999 0.01111385 -0.00016402
v -0.02542585 0.02422842 -0.01500007
v -0.02553147 0.00058333 -0.01500006
v -0.04999616 0.01941979 -0.01412681
v -0.04441383 0.02374049 -0.00199559
v -0.04749535 0.02494283 -0.01086856
v -0.02599704 0.00032206 -0.00598156
v -0.02649998 0.00031236 -0.01079955
v -0.02514906 0.00305308 -0.01500006
v -0.04813878 0.02142388 -0.00146209
v -0.02506598 0.00409517 -0.01500006
v -0.02600298 0.02482842 -0.00385133
v -0.04151008 0.02485481 -0.00178554
v -0.04677037 0.02259453 -0.00222668
v -0.04493026 0.02283451 -0.00050654
v -0.02642260 0.00628119 -0.00036827
v -0.04979792 0.02308387 -0.00893905
v -0.04712622 0.02452241 -0.00857282
v -0.02505170 0.02385191 -0.01108229
v -0.04432810 0.02495561 -0.00548931
v -0.04878786 0.01645992 -0.00003887
v -0.03979405 0.02153365 -0.00007146
v -0.04933051 0.02242364 -0.00625033
v -0.04998733 0.01898186 -0.01500005
v -0.04927293 0.02498080 -0.01609029
v -0.02516077 0.01396435 -0.00159389
v -0.04915628 0.02147180 -0.00338189
v -0.04608008 0.02210162 -0.00018683
v -0.04969852 0.00083432 -0.01500006
v -0.04731732 0.02176043 -0.00098347
v -0.04443425 0.02427744 -0.00357114
v -0.04655627 0.02246189 -0.00160275
v -0.04997605 0.01555566 -0.01062482
v -0.04810454 0.02476325 -0.01136185
v -0.04488475 0.02360772 -0.00227631
v -0.02524163 0.00580841 -0.00172253
v -0.04950468 0.02471381 -0.01540029
v -0.04258224 0.02445762 -0.00179207
f 20 67 59
f 54 11 38
f 67 20 71
f 47 11 41
f 39 54 38
f 59 54 39
f 11 54 45
f 5 39 38
f 30 25 57
f 57 15 30
f 30 15 25
f 49 15 57
f 49 11 47
f 49 8 11
f 42 62 33
f 33 71 42
f 13 41 9
f 9 41 11
f 38 11 74
f 11 8 74
f 74 64 38
f 74 8 64
f 59 39 60
f 4 20 59
f 64 8 34
f 57 25 34
f 38 64 34
f 34 5 38
f 34 49 57
f 8 49 34
f 26 5 34
f 25 15 40
f 11 45 46
f 46 9 11
f 46 45 13
f 13 9 46
f 13 45 23
f 23 45 54
f 59 67 23
f 23 54 59
f 39 5 12
f 12 60 39
f 63 23 67
f 47 41 63
f 63 41 13
f 13 23 63
f 63 49 47
f 15 49 63
f 63 40 15
f 63 33 62
f 25 40 63
f 44 58 63
f 50 34 25
f 25 7 50
f 26 34 50
f 50 7 26
f 32 63 67
f 33 63 32
f 67 71 32
f 71 33 32
f 75 63 62
f 22 7 25
f 25 63 22
f 22 63 58
f 22 58 26
f 26 7 22
f 60 12 27
f 27 5 26
f 27 12 5
f 66 27 53
f 66 4 59
f 59 60 66
f 60 27 66
f 20 65 3
f 42 71 3
f 3 71 20
f 20 4 48
f 48 65 20
f 52 56 17
f 42 3 37
f 37 3 55
f 37 62 42
f 37 75 62
f 63 75 72
f 55 56 72
f 53 27 76
f 76 43 53
f 76 27 26
f 73 70 43
f 52 70 73
f 14 56 52
f 52 73 14
f 14 58 44
f 44 56 14
f 44 63 29
f 63 72 29
f 29 56 44
f 29 72 56
f 75 37 6
f 6 72 75
f 6 37 55
f 55 72 6
f 43 76 2
f 58 14 69
f 69 73 43
f 69 14 73
f 69 2 58
f 43 2 69
f 36 56 55
f 36 21 56
f 55 3 36
f 28 17 56
f 56 21 28
f 17 18 35
f 51 76 26
f 51 2 76
f 26 58 51
f 58 2 51
f 66 10 68
f 4 66 68
f 68 48 4
f 68 10 70
f 68 70 52
f 31 36 3
f 16 18 17
f 17 28 16
f 21 36 16
f 16 28 21
f 61 35 18
f 65 48 1
f 52 17 1
f 1 68 52
f 48 68 1
f 19 61 18
f 18 31 19
f 19 31 3
f 17 35 24
f 24 1 17
f 53 43 10
f 10 66 53
f 43 70 10
f 36 31 16
f 16 31 18
f 65 1 24
f 24 3 65
f 35 61 24
f 24 19 3
f 61 19 24

