# https://github.com/mikedh/trimesh
v -0.00000828 0.01603800 -0.01224098
v -0.00821339 0.03511315 -0.04788990
v -0.01209925 0.01537338 -0.02266686
v -0.01549216 0.03469503 -0.04912811
v -0.03876679 0.02978642 -0.00113235
v -0.00002962 0.01569385 -0.02716499
v -0.01954467 0.03436291 -0.00014185
v -0.03956308 0.02537878 -0.00495173
v -0.02607757 0.03456291 -0.00025226
v -0.02044146 0.03456291 -0.00018459
v -0.03421861 0.01568224 -0.00004666
v -0.02416254 0.01537338 -0.00942276
v -0.03350553 0.03395566 -0.00722598
v -0.01100564 0.03456290 -0.00014738
v -0.03558931 0.03309169 -0.00687256
v -0.03350398 0.03404862 -0.00532966
v -0.00833851 0.03436291 -0.00011517
v -0.02999929 0.01649862 -0.04987168
v -0.03746335 0.01568014 -0.00106342
v -0.02590735 0.03263172 -0.04956705
v -0.00020132 0.03248841 -0.00493861
v -0.00177594 0.03456291 -0.00059524
v -0.03972242 0.02612772 -0.00063010
v -0.02504061 0.01537337 -0.00502935
v -0.03617777 0.02039241 -0.04960991
v -0.00007226 0.03456291 -0.00786910
v -0.01763105 0.01563974 -0.04987750
v -0.00017962 0.01568807 -0.04929198
v -0.03136692 0.03089492 -0.04909032
v -0.02898969 0.01568506 -0.00043694
v -0.03973474 0.02461181 -0.00205257
v -0.03966187 0.02651395 -0.00041254
v -0.03338936 0.03409553 -0.00454192
v -0.03613826 0.01814527 -0.04951321
v -0.00956197 0.03456291 -0.00014798
v -0.03285039 0.03422884 -0.00421039
v -0.03503585 0.01585478 -0.04488140
v -0.02186873 0.01537338 -0.01391715
v -0.01867266 0.03423024 -0.04974643
v -0.00066957 0.03248841 -0.00057910
v -0.03401341 0.03394414 -0.00474369
v -0.03460895 0.03385192 -0.00021792
v -0.03617444 0.02306572 -0.04972376
v -0.02756747 0.03456291 -0.00139230
v -0.00030069 0.01604096 -0.00099196
v -0.03569080 0.03329985 -0.00012050
v -0.00017659 0.03456291 -0.00596939
v -0.00179000 0.03503795 -0.04997936
v -0.02412473 0.01553020 -0.00259564
v -0.03594421 0.02865876 -0.04959742
v -0.01449593 0.01537338 -0.02165337
v -0.00141432 0.01568733 -0.04975323
v -0.03962837 0.02321315 -0.00409884
v -0.03423499 0.01653316 -0.04976242
v -0.00000790 0.03449541 -0.03597070
v -0.03303439 0.03410088 -0.00650694
v -0.00457053 0.03505737 -0.04995973
v -0.02665150 0.01645049 -0.04990863
v -0.03329976 0.03414366 -0.00289430
v -0.00062098 0.03499894 -0.04895707
v -0.01694020 0.01537337 -0.02013062
v -0.03983320 0.02362052 -0.00027400
v -0.03614097 0.02643486 -0.04883027
v -0.03513789 0.03361882 -0.00194864
v -0.00183324 0.01537338 -0.02551559
v -0.03520595 0.03347136 -0.00488251
v -0.03292288 0.01567049 -0.04499918
v -0.00920573 0.01537338 -0.02385144
v -0.00020465 0.01537338 -0.02547646
v -0.03968563 0.02420277 -0.00303731
v -0.03643256 0.03276329 -0.00051514
v -0.03976430 0.01841093 -0.00161169
v -0.03482723 0.03370386 -0.00353454
v -0.03214987 0.03430031 -0.00217395
v -0.03962926 0.01775598 -0.00412528
v -0.03501859 0.01571705 -0.04403854
v -0.03958264 0.01738723 -0.00318481
v -0.03904936 0.02914127 -0.00204287
v -0.03549042 0.01694462 -0.04902908
v -0.03495430 0.01590768 -0.04584138
v -0.01406638 0.03483412 -0.04988270
v -0.02209121 0.03352242 -0.04923480
v -0.00048769 0.03497800 -0.04841533
v -0.01100836 0.03498476 -0.04981875
v -0.03985464 0.01902600 -0.00005816
v -0.02328455 0.01537338 -0.00646863
v -0.03367820 0.03405427 -0.00286834
v -0.03249961 0.03424530 -0.00548351
v -0.00105071 0.01568751 -0.04974000
v -0.03921461 0.02900811 -0.00030204
v -0.03346347 0.03411143 -0.00248831
v -0.03565276 0.01702753 -0.04840984
v -0.03935263 0.02851978 -0.00029854
v -0.00643651 0.03511359 -0.04955735
v -0.03420666 0.03380693 -0.00621355
v -0.03107385 0.03436290 -0.00095552
v -0.03438566 0.01566984 -0.04437078
v -0.03922140 0.02745524 -0.00513309
v -0.03492339 0.01566981 -0.04339507
v -0.03155162 0.03434601 -0.00142683
v -0.00869556 0.03512447 -0.04869613
v -0.00125612 0.03248841 -0.00035094
v -0.02957210 0.03436291 -0.00041510
v -0.01141250 0.03248841 -0.00002095
v -0.03814706 0.03087452 -0.00341025
v -0.03489919 0.03353069 -0.00591862
v -0.00194053 0.01604031 -0.00000749
v -0.03851727 0.02995704 -0.00470643
v -0.02818836 0.03193522 -0.04985696
v -0.03874280 0.01567911 -0.00221657
v -0.00004185 0.03248841 -0.01713574
v -0.01553645 0.01556325 -0.04989123
v -0.03610523 0.01773948 -0.04899372
v -0.02996920 0.03454966 -0.00296310
f 69 24 61
f 19 24 11
f 85 19 11
f 110 24 19
f 110 19 85
f 85 77 110
f 107 24 45
f 1 45 69
f 107 17 104
f 85 11 104
f 104 11 107
f 49 24 107
f 49 11 24
f 72 77 85
f 85 75 72
f 72 75 77
f 28 83 55
f 28 89 48
f 61 24 12
f 12 38 61
f 24 69 86
f 86 45 24
f 69 45 86
f 107 45 40
f 60 48 22
f 60 28 48
f 83 28 60
f 107 11 30
f 30 49 107
f 11 49 30
f 77 75 113
f 113 110 77
f 6 1 69
f 69 28 6
f 55 1 6
f 6 28 55
f 112 58 48
f 112 28 69
f 89 28 112
f 102 17 107
f 107 40 102
f 22 17 102
f 102 40 22
f 55 83 26
f 45 1 26
f 25 75 43
f 75 8 43
f 43 54 25
f 29 50 106
f 8 50 63
f 63 43 8
f 50 43 63
f 109 50 29
f 109 43 50
f 48 58 109
f 98 50 8
f 8 23 98
f 53 8 75
f 53 70 8
f 53 75 85
f 85 70 53
f 62 70 85
f 62 32 23
f 25 54 34
f 34 75 25
f 34 113 75
f 110 113 92
f 61 38 97
f 97 112 61
f 48 89 52
f 52 112 48
f 89 112 52
f 65 112 69
f 68 112 65
f 65 69 61
f 61 112 51
f 51 65 61
f 22 40 47
f 47 60 22
f 83 60 47
f 47 26 83
f 111 1 55
f 55 26 111
f 111 26 1
f 90 105 108
f 108 105 50
f 101 81 114
f 114 44 101
f 42 96 100
f 100 96 114
f 18 109 58
f 43 109 18
f 54 43 18
f 93 98 23
f 23 32 93
f 90 50 93
f 50 98 93
f 32 62 93
f 93 62 85
f 8 70 31
f 70 62 31
f 31 23 8
f 31 62 23
f 79 92 113
f 79 34 54
f 113 34 79
f 54 18 27
f 58 112 27
f 27 18 58
f 3 112 68
f 3 51 112
f 68 65 3
f 65 51 3
f 45 26 21
f 26 47 21
f 21 40 45
f 21 47 40
f 46 71 90
f 46 93 85
f 90 93 46
f 85 104 46
f 46 104 17
f 5 105 90
f 90 71 5
f 5 71 105
f 15 106 50
f 50 105 15
f 105 71 15
f 78 50 90
f 90 108 78
f 78 108 50
f 103 96 42
f 35 17 22
f 22 101 35
f 22 48 94
f 54 27 80
f 80 79 54
f 92 79 80
f 80 37 92
f 112 97 67
f 67 27 112
f 97 80 67
f 67 80 27
f 7 46 17
f 10 46 7
f 64 46 42
f 42 73 64
f 29 106 95
f 95 109 29
f 95 13 109
f 81 109 39
f 39 4 81
f 96 103 9
f 114 96 9
f 9 44 114
f 9 101 44
f 10 101 9
f 9 103 42
f 42 46 9
f 9 46 10
f 81 101 84
f 101 94 84
f 2 101 22
f 22 94 2
f 2 94 101
f 74 100 114
f 42 100 74
f 74 91 42
f 91 74 59
f 24 110 99
f 99 12 24
f 38 12 99
f 99 97 38
f 10 7 14
f 14 101 10
f 14 35 101
f 17 35 14
f 14 7 17
f 71 46 66
f 46 64 66
f 66 15 71
f 106 15 66
f 66 64 73
f 66 95 106
f 73 95 66
f 41 73 42
f 41 95 73
f 13 95 41
f 109 13 20
f 20 39 109
f 4 39 88
f 81 4 88
f 114 81 88
f 57 94 48
f 57 84 94
f 81 84 57
f 48 109 57
f 57 109 81
f 76 99 110
f 110 92 76
f 92 37 76
f 37 80 76
f 76 80 97
f 97 99 76
f 42 91 87
f 87 41 42
f 13 39 82
f 82 20 13
f 39 20 82
f 56 39 13
f 56 88 39
f 88 56 36
f 36 59 74
f 36 74 114
f 114 88 36
f 16 36 56
f 13 41 16
f 16 56 13
f 33 16 41
f 36 16 33
f 33 87 91
f 91 59 33
f 41 87 33
f 59 36 33

