# https://github.com/mikedh/trimesh
v -0.09473521 0.01752224 -0.15845524
v -0.07506568 0.01752223 -0.15207705
v -0.05690466 0.01752223 -0.16359294
v -0.05829533 0.01752224 -0.16143394
v -0.05383898 0.01662652 -0.15045401
v -0.09971475 0.01752224 -0.19110915
v -0.09353064 0.01752224 -0.15746473
v -0.09983378 0.01752224 -0.16563928
v -0.09991731 0.01752224 -0.18986806
v -0.05084896 0.01661452 -0.15142606
v -0.05270700 0.01752224 -0.17761289
v -0.06365862 0.01666245 -0.15425479
v -0.07871674 0.01752224 -0.15200685
v -0.09925363 0.01679584 -0.16172027
v -0.05566336 0.01752223 -0.16611760
v -0.09893221 0.01752224 -0.16230136
v -0.09463379 0.01752224 -0.19662244
v -0.05007317 0.01660816 -0.15815572
v -0.09419613 0.01752224 -0.15799367
v -0.05284326 0.01752224 -0.18026640
v -0.08135973 0.01673248 -0.15058341
v -0.05564627 0.01752224 -0.18828628
v -0.09112263 0.01674552 -0.19968484
v -0.05719616 0.01661477 -0.19974951
v -0.06974129 0.01752223 -0.15358667
v -0.05011308 0.01658889 -0.19695644
v -0.06998235 0.01746464 -0.15297470
v -0.05862083 0.01662024 -0.19979113
v -0.05138989 0.01659234 -0.19988102
v -0.09731317 0.01752224 -0.16059939
v -0.07798215 0.01671973 -0.15006193
v -0.05262357 0.01661287 -0.16836737
v -0.06132857 0.01665559 -0.15001446
v -0.05004393 0.01659253 -0.18915086
v -0.09463791 0.01748773 -0.15767223
v -0.05000142 0.01660899 -0.15594632
v -0.06724391 0.01752223 -0.19998203
v -0.05151043 0.01659276 -0.19996492
v -0.05890570 0.01664622 -0.15009960
v -0.05270857 0.01752224 -0.17631100
v -0.09998272 0.01752224 -0.16927466
v -0.05583419 0.01660966 -0.19949444
v -0.05710774 0.01661486 -0.19890345
v -0.05773851 0.01752224 -0.19119991
v -0.06361831 0.01752224 -0.19815897
v -0.07293679 0.01749130 -0.15232823
v -0.05324971 0.01752224 -0.17224896
v -0.05006929 0.01661080 -0.15285998
v -0.06582734 0.01752223 -0.15494445
v -0.06324673 0.01752223 -0.15663261
v -0.09857541 0.01679909 -0.15002288
v -0.09937101 0.01677730 -0.19967983
v -0.09979213 0.01679797 -0.16162489
v -0.05852435 0.01752224 -0.19343764
v -0.08083191 0.01751820 -0.15182145
v -0.05353426 0.01752224 -0.17098542
v -0.09906982 0.01679686 -0.15827654
v -0.06036483 0.01752224 -0.15907969
v -0.05639902 0.01663661 -0.15000992
v -0.08664865 0.01752224 -0.19976401
v -0.09947740 0.01678155 -0.19200359
v -0.09975331 0.01678006 -0.19710444
v -0.06528933 0.01666836 -0.15499862
v -0.08989080 0.01752224 -0.19951125
v -0.09402054 0.01675657 -0.19992081
v -0.09792418 0.01752224 -0.19360770
v -0.07980781 0.01672668 -0.15023978
v -0.05055323 0.01660549 -0.16717135
v -0.09953636 0.01680202 -0.15156551
v -0.05805184 0.01752224 -0.19288661
v -0.06169915 0.01752224 -0.19690812
v -0.08207195 0.01752224 -0.15196847
v -0.08888564 0.01752224 -0.15457062
v -0.05153215 0.01661740 -0.15093524
v -0.09906058 0.01679677 -0.15838962
v -0.06013873 0.01665060 -0.15083389
v -0.06053357 0.01662910 -0.19680838
v -0.05051358 0.01658968 -0.19845865
f 77 68 32
f 62 53 41
f 18 26 36
f 36 68 18
f 18 68 26
f 32 68 12
f 14 77 32
f 58 44 30
f 30 72 58
f 52 62 9
f 9 62 41
f 36 26 34
f 34 11 36
f 26 11 34
f 73 51 72
f 72 30 73
f 73 30 1
f 48 68 36
f 76 12 68
f 32 12 63
f 63 14 32
f 12 14 63
f 12 76 21
f 68 77 43
f 43 42 68
f 60 64 37
f 52 64 60
f 52 66 17
f 17 64 52
f 17 70 64
f 44 70 17
f 17 30 44
f 66 30 17
f 37 64 45
f 45 64 71
f 45 38 37
f 71 38 45
f 41 8 16
f 51 30 16
f 53 62 61
f 61 14 53
f 61 62 52
f 44 11 20
f 20 11 26
f 35 30 51
f 58 25 49
f 49 25 74
f 4 56 58
f 72 51 55
f 51 59 55
f 2 55 59
f 2 25 58
f 68 48 39
f 39 76 68
f 39 48 74
f 69 21 51
f 41 53 69
f 69 8 41
f 51 16 69
f 69 16 8
f 75 14 12
f 12 21 75
f 53 14 75
f 26 68 78
f 68 42 78
f 42 38 78
f 78 20 26
f 71 64 54
f 64 70 54
f 6 16 30
f 6 30 66
f 6 9 41
f 41 16 6
f 6 66 52
f 52 9 6
f 37 38 65
f 65 60 37
f 52 60 65
f 23 43 77
f 23 61 52
f 52 65 23
f 38 28 23
f 23 65 38
f 77 14 23
f 14 61 23
f 22 70 44
f 44 20 22
f 22 78 70
f 20 78 22
f 51 73 7
f 7 35 51
f 58 49 50
f 50 49 74
f 36 11 40
f 40 48 36
f 40 11 44
f 40 44 58
f 74 48 10
f 10 4 58
f 58 50 10
f 10 50 74
f 3 10 48
f 4 10 3
f 25 2 46
f 5 2 59
f 5 39 74
f 59 39 5
f 74 46 5
f 5 46 2
f 72 55 13
f 55 2 13
f 58 72 13
f 13 2 58
f 33 21 76
f 76 39 33
f 33 59 51
f 33 39 59
f 21 69 57
f 57 75 21
f 57 69 53
f 53 75 57
f 70 78 29
f 29 78 38
f 29 54 70
f 29 38 71
f 71 54 29
f 42 43 24
f 43 23 24
f 24 23 28
f 24 38 42
f 24 28 38
f 35 7 19
f 1 30 19
f 30 35 19
f 19 73 1
f 19 7 73
f 47 56 48
f 48 40 47
f 58 56 47
f 47 40 58
f 56 4 15
f 4 3 15
f 48 56 15
f 15 3 48
f 74 25 27
f 27 46 74
f 25 46 27
f 51 21 67
f 21 33 67
f 31 33 51
f 51 67 31
f 31 67 33

