# https://github.com/mikedh/trimesh
v -0.03329191 -0.00934920 -0.15817213
v -0.02492939 -0.03083871 -0.15079835
v -0.02290363 -0.03092638 -0.15001707
v -0.03351980 -0.00094884 -0.16920620
v -0.01056530 -0.01727303 -0.19995934
v -0.00263135 -0.03178526 -0.16376190
v -0.00354930 -0.00008502 -0.17926004
v -0.02358775 -0.03091269 -0.15004120
v -0.03338785 -0.00091154 -0.17067145
v -0.01165977 -0.03301418 -0.15433246
v -0.00661195 -0.03138758 -0.16492489
v -0.00669991 -0.03376080 -0.15025939
v -0.03339495 -0.00207459 -0.16306846
v -0.03307584 -0.01645708 -0.15339824
v -0.02472501 -0.03000080 -0.15610113
v -0.02514900 -0.02549903 -0.16608996
v -0.01842608 -0.00612469 -0.19999409
v -0.00752178 -0.02255047 -0.19970618
v -0.00191146 -0.03343026 -0.15303027
v -0.00135326 -0.03102780 -0.16728715
v -0.01226752 -0.03353691 -0.15107254
v -0.00021310 -0.03190401 -0.16310130
v -0.00151840 -0.02274159 -0.19940093
v -0.03313125 -0.00061984 -0.15000434
v -0.00535846 -0.03224588 -0.16091596
v -0.03330939 -0.00554663 -0.15893453
v -0.00286274 -0.03200693 -0.16242709
v -0.00334767 -0.00007208 -0.16935195
v -0.00064737 -0.00636246 -0.15642933
v -0.01208199 -0.03338587 -0.15203175
v -0.00432148 -0.03376330 -0.15050635
v -0.03314882 -0.00000619 -0.15085619
v -0.03313275 -0.01804000 -0.15054113
v -0.03350125 -0.00277523 -0.16833821
v -0.02520058 -0.02673717 -0.16408481
v -0.00517507 -0.03092701 -0.16744409
v -0.00179527 -0.03065065 -0.16895024
v -0.02524997 -0.02500839 -0.16647861
v -0.00894604 -0.00005027 -0.17784536
v -0.01281642 -0.03250777 -0.15005619
v -0.00833600 -0.03372728 -0.15050724
v -0.00814259 -0.03296973 -0.15606721
v -0.00083888 -0.02321688 -0.19728627
v -0.03316796 -0.00128874 -0.15183560
v -0.00609203 -0.03256126 -0.15902035
v -0.00201789 -0.02269860 -0.19960716
v -0.00004721 -0.02895410 -0.17536313
v -0.01101144 -0.03295667 -0.15520046
v -0.00003998 -0.03261853 -0.15834337
v -0.00136293 -0.00242019 -0.15843428
v -0.03313548 -0.00420627 -0.15030867
v -0.01042406 -0.03310145 -0.15460277
v -0.00149137 -0.00013004 -0.17798167
v -0.01008137 -0.03245673 -0.15832327
v -0.00295432 -0.01292806 -0.15002339
v -0.00346317 -0.03037041 -0.16995898
v -0.02496029 -0.03062666 -0.15231906
v -0.01445335 -0.02235758 -0.19884291
v -0.01700168 -0.01865329 -0.19982665
v -0.01807919 -0.01300086 -0.19964896
v -0.01307587 -0.02873144 -0.17379294
v -0.02491701 -0.02410526 -0.15000788
v -0.00394924 -0.03060247 -0.16903291
v -0.01070559 -0.03243464 -0.15809591
v -0.00027278 -0.02381780 -0.19464448
v -0.02512064 -0.02868267 -0.16018787
v -0.00641082 -0.03005976 -0.17074903
v -0.00295050 -0.03175472 -0.16390595
v -0.00021422 -0.00570643 -0.17744014
v -0.00412377 -0.03057509 -0.16911785
v -0.01403210 -0.02762926 -0.17765028
v -0.00080073 -0.03062131 -0.16906049
v -0.01595811 -0.02153010 -0.19863145
v -0.01624454 -0.02084956 -0.19936817
v -0.00905795 -0.03371422 -0.15044251
v -0.00265252 -0.03087913 -0.16798694
v -0.00970724 -0.03188289 -0.16139594
v -0.03344863 -0.00079777 -0.16568609
v -0.01896673 -0.00105159 -0.19664458
v -0.03334376 -0.00590519 -0.16064166
v -0.00933223 -0.03233098 -0.15932516
v -0.01262776 -0.02855383 -0.17471175
v -0.03316271 -0.01149169 -0.15184711
v -0.02516651 -0.02758005 -0.16242437
v -0.00756620 -0.00010983 -0.19879215
v -0.01217611 -0.02255241 -0.19935088
v -0.01047018 -0.03264780 -0.15711579
v -0.01233264 -0.02260345 -0.19912253
v -0.00213764 -0.03174743 -0.16393579
v -0.00098152 -0.03151208 -0.16502723
v -0.00065476 -0.03059213 -0.16918168
v -0.00182174 -0.00958735 -0.15077354
v -0.03348597 -0.00000863 -0.16751001
v -0.03340179 -0.00135597 -0.16338732
v -0.00756788 -0.00013604 -0.19887505
v -0.01860679 -0.00279556 -0.19914456
v -0.03343688 -0.00100835 -0.16511145
v -0.00001594 -0.01288405 -0.17507753
v -0.00006802 -0.02871066 -0.15347747
v -0.01552078 -0.02184837 -0.19848253
v -0.00631594 -0.03101893 -0.16682488
v -0.00052147 -0.03324694 -0.15421177
v -0.00080622 -0.00338199 -0.15818754
v -0.01175998 -0.03345597 -0.15180806
v -0.00885465 -0.03233814 -0.15948665
v -0.01938812 -0.00060091 -0.19371604
v -0.02506417 -0.02942823 -0.15741848
v -0.00852975 -0.03287068 -0.15670291
v -0.01435199 -0.02861471 -0.17330401
v -0.00758357 -0.01051639 -0.19992850
v -0.00050102 -0.00373091 -0.17773583
v -0.00980959 -0.03159376 -0.16271383
v -0.00720456 -0.03256450 -0.15885970
v -0.00136211 -0.03062229 -0.16906347
v -0.03314536 -0.01788906 -0.15116022
v -0.03318837 -0.01398090 -0.15318062
v -0.03344965 -0.00015842 -0.16571955
v -0.00083680 -0.03372367 -0.15051740
v -0.01056580 -0.01548139 -0.19998687
v -0.00288246 -0.00009789 -0.15902646
v -0.00380087 -0.03368077 -0.15120420
v -0.00734559 -0.03043283 -0.16907823
v -0.03312302 -0.01592044 -0.15000410
v -0.03337755 -0.00244070 -0.16221857
v -0.00064752 -0.00913920 -0.15247223
f 17 60 9
f 9 34 4
f 17 9 96
f 96 9 79
f 79 9 93
f 93 9 4
f 93 78 117
f 7 53 85
f 98 65 69
f 99 118 49
f 125 118 99
f 99 49 98
f 98 125 99
f 49 118 102
f 102 22 49
f 35 16 74
f 34 9 59
f 59 9 60
f 59 60 17
f 34 59 14
f 14 59 74
f 95 79 85
f 95 96 79
f 17 96 95
f 95 110 17
f 46 110 95
f 95 23 46
f 85 53 95
f 53 23 95
f 44 83 24
f 85 79 106
f 106 93 85
f 79 93 106
f 32 24 120
f 32 93 117
f 32 44 24
f 85 93 39
f 39 7 85
f 93 32 39
f 50 53 120
f 50 103 53
f 120 125 50
f 125 103 50
f 29 103 125
f 69 103 29
f 29 125 98
f 98 69 29
f 53 103 111
f 111 103 69
f 43 23 111
f 111 23 53
f 111 65 43
f 111 69 65
f 17 110 119
f 119 59 17
f 5 59 119
f 119 110 46
f 46 5 119
f 92 118 125
f 92 55 118
f 92 125 120
f 24 55 92
f 120 24 92
f 62 55 24
f 62 3 55
f 55 3 40
f 49 22 47
f 43 65 47
f 98 49 47
f 47 65 98
f 47 23 43
f 121 118 31
f 22 102 45
f 58 88 61
f 18 5 46
f 18 59 5
f 84 74 66
f 84 35 74
f 34 14 115
f 35 84 115
f 16 35 115
f 115 84 66
f 66 107 115
f 115 107 33
f 74 16 38
f 38 14 74
f 16 115 38
f 38 115 14
f 117 78 97
f 24 83 51
f 28 32 120
f 28 39 32
f 7 39 28
f 120 53 28
f 53 7 28
f 31 118 12
f 118 55 12
f 55 40 12
f 91 47 22
f 46 23 91
f 23 47 91
f 61 88 82
f 82 122 61
f 88 122 82
f 42 45 121
f 22 45 27
f 19 45 102
f 121 45 19
f 19 102 118
f 118 121 19
f 66 74 73
f 74 58 73
f 33 116 1
f 1 116 78
f 123 116 33
f 123 51 83
f 24 51 123
f 3 62 123
f 123 62 24
f 78 116 80
f 80 97 78
f 57 21 2
f 57 2 33
f 33 107 57
f 15 107 66
f 66 58 15
f 15 57 107
f 58 109 15
f 21 57 15
f 15 109 10
f 61 122 112
f 122 101 112
f 101 77 112
f 41 42 121
f 41 121 31
f 75 21 41
f 31 12 41
f 41 12 75
f 100 58 66
f 66 73 100
f 100 73 58
f 26 123 83
f 8 123 33
f 3 123 8
f 33 2 8
f 2 21 8
f 8 21 75
f 8 40 3
f 75 12 8
f 8 12 40
f 90 91 22
f 90 20 91
f 90 22 89
f 67 122 88
f 46 63 86
f 86 18 46
f 86 58 74
f 88 58 86
f 74 59 86
f 59 18 86
f 36 101 122
f 36 68 101
f 25 45 113
f 71 58 61
f 61 109 71
f 71 109 58
f 21 15 30
f 30 15 10
f 10 109 64
f 64 109 61
f 61 112 64
f 64 112 77
f 77 54 64
f 11 77 101
f 11 105 77
f 113 105 11
f 11 25 113
f 101 68 11
f 68 25 11
f 94 32 117
f 44 32 94
f 122 67 70
f 70 36 122
f 63 36 70
f 70 86 63
f 70 67 88
f 88 86 70
f 46 91 114
f 114 37 46
f 91 37 114
f 56 63 46
f 46 37 56
f 56 37 63
f 91 20 72
f 72 37 91
f 6 25 68
f 22 27 6
f 6 27 45
f 45 25 6
f 89 22 6
f 76 72 20
f 37 72 76
f 63 37 76
f 76 36 63
f 68 36 76
f 77 105 81
f 81 54 77
f 124 94 117
f 124 26 83
f 83 44 124
f 44 94 124
f 104 41 21
f 42 41 104
f 10 64 48
f 48 30 10
f 21 30 48
f 48 104 21
f 52 104 48
f 13 124 117
f 26 124 13
f 42 104 108
f 108 104 52
f 113 45 108
f 45 42 108
f 52 48 108
f 108 48 105
f 108 105 113
f 87 64 54
f 87 48 64
f 1 93 4
f 4 34 1
f 1 115 33
f 78 93 1
f 34 115 1
f 76 90 89
f 89 6 76
f 20 90 76
f 76 6 68
f 13 80 116
f 117 97 13
f 116 123 13
f 97 80 13
f 123 26 13
f 54 81 87
f 87 81 105
f 105 48 87

