# https://github.com/mikedh/trimesh
v 0.06672373 -0.00331019 0.05651398
v 0.07391534 -0.01680422 0.06093089
v 0.07479243 -0.00970172 0.06051131
v 0.07471672 -0.01229238 0.06190393
v 0.07458657 -0.02185053 0.05893787
v 0.07473540 -0.02434482 0.05551603
v 0.05162926 -0.00392310 0.05034327
v 0.07136724 -0.00223331 0.05152312
v 0.06620879 -0.01682894 0.05001048
v 0.07213638 -0.01136383 0.06119313
v 0.05398850 -0.00776090 0.05016087
v 0.06974628 -0.00126155 0.05198809
v 0.05643542 -0.00010793 0.05030858
v 0.07481683 -0.00615450 0.05530369
v 0.07495752 -0.02011743 0.06030833
v 0.06433232 -0.01654060 0.05013496
v 0.07289596 -0.01234711 0.06146744
v 0.07487458 -0.02275510 0.05126626
v 0.07474700 -0.00584192 0.05073675
v 0.07481996 -0.00612720 0.05054546
v 0.05391009 -0.00531339 0.05141821
v 0.07413722 -0.02062064 0.05934317
v 0.07224994 -0.00282842 0.05085657
v 0.07070761 -0.00170503 0.05098130
v 0.05572748 -0.00991817 0.05014193
v 0.06766871 -0.00225273 0.05469873
v 0.06074301 -0.00002671 0.05008113
v 0.07265101 -0.00329213 0.05015286
v 0.05383159 -0.00032283 0.05027610
v 0.07430520 -0.01697037 0.06111637
v 0.06825482 -0.00215976 0.05454672
v 0.07075252 -0.00187825 0.05027485
v 0.07497731 -0.01040840 0.06120509
v 0.07458690 -0.01285489 0.06188945
v 0.07477194 -0.00522776 0.05332236
v 0.05606793 -0.00625376 0.05258162
v 0.07204023 -0.01347056 0.06090586
v 0.07458211 -0.00504161 0.05186482
v 0.05556548 -0.00008825 0.05021704
v 0.07395979 -0.01304484 0.06174389
v 0.07036123 -0.00151764 0.05067353
v 0.06531458 -0.00621069 0.05805349
v 0.07429642 -0.02337857 0.05703801
v 0.06573587 -0.00495585 0.05777527
v 0.07470073 -0.02375020 0.05297654
v 0.06467764 -0.00528736 0.05760486
v 0.07213979 -0.00279346 0.05145235
v 0.05336300 -0.00539917 0.05098624
v 0.07048392 -0.00171218 0.05203197
v 0.06906542 -0.00090382 0.05051135
v 0.05275499 -0.00245129 0.05117648
v 0.07421644 -0.01381827 0.06174921
v 0.05165987 -0.00125999 0.05034445
v 0.07493837 -0.01142140 0.06176675
v 0.05457840 -0.00591669 0.05164654
v 0.06416326 -0.00503531 0.05730197
v 0.07439528 -0.02138746 0.05002161
v 0.07325751 -0.01616895 0.06073775
v 0.07352901 -0.01370866 0.06153162
v 0.06913680 -0.00159252 0.05319815
v 0.05189337 -0.00151900 0.05054559
v 0.07465721 -0.01320016 0.06189792
v 0.07202237 -0.01491436 0.06037894
v 0.07450481 -0.01866354 0.06059684
v 0.06871284 -0.00086615 0.05075978
v 0.07300926 -0.01248630 0.06149666
v 0.07296943 -0.01190751 0.06148024
v 0.05191880 -0.00505869 0.05008282
v 0.07075046 -0.00197213 0.05002852
v 0.06653847 -0.00037847 0.05011882
v 0.06150242 -0.01508556 0.05042666
v 0.05273378 -0.00065702 0.05033561
v 0.07174824 -0.01218227 0.06104088
v 0.07490065 -0.00586492 0.05472189
v 0.07376732 -0.01286638 0.06170644
v 0.07465730 -0.02430648 0.05505717
v 0.07300086 -0.01363476 0.06133604
v 0.06513575 -0.00024785 0.05017858
v 0.06479559 -0.00414373 0.05711627
v 0.07496917 -0.00559836 0.05411221
v 0.05743185 -0.01190076 0.05004076
v 0.06495484 -0.00577120 0.05782445
v 0.07479018 -0.00552119 0.05117416
v 0.06703988 -0.00275338 0.05558136
v 0.05671386 -0.01095929 0.05023829
v 0.05979483 -0.00004250 0.05018462
v 0.07423630 -0.01246575 0.06182043
v 0.06497294 -0.00876456 0.05786809
v 0.06850291 -0.00076659 0.05029991
v 0.05863200 -0.01296665 0.05014649
v 0.07402147 -0.01722218 0.06085273
v 0.07174267 -0.01288694 0.06089923
v 0.05212059 -0.00358721 0.05075846
v 0.07487152 -0.00590324 0.05482212
v 0.06490782 -0.00676845 0.05796119
v 0.07464699 -0.02002034 0.06011663
v 0.06524126 -0.00679476 0.05811912
v 0.07445716 -0.02330983 0.05738033
v 0.06517021 -0.00509695 0.05772617
v 0.07441789 -0.02304533 0.05209740
v 0.05313469 -0.00479618 0.05107284
v 0.07499063 -0.01839368 0.06103609
v 0.07460862 -0.01084315 0.06145796
v 0.07020392 -0.00155756 0.05214374
v 0.07412120 -0.00594815 0.05002625
v 0.06595142 -0.00401094 0.05730524
v 0.07322677 -0.01172659 0.06151421
v 0.06588080 -0.00378267 0.05700618
v 0.07417032 -0.01648085 0.06119122
v 0.05398148 -0.00574018 0.05128943
v 0.06895023 -0.00089281 0.05008475
v 0.05116697 -0.00363584 0.05012603
v 0.06504426 -0.00993103 0.05750450
v 0.07164130 -0.01242698 0.06094728
v 0.07288030 -0.00333076 0.05063486
v 0.06843738 -0.00219517 0.05449040
v 0.06982810 -0.00113087 0.05097877
v 0.07454600 -0.01777581 0.06098391
v 0.05172114 -0.00287202 0.05063900
v 0.07461486 -0.01471673 0.06176432
v 0.06489341 -0.01671412 0.05008635
v 0.07470528 -0.00525258 0.05151846
v 0.07478377 -0.02181725 0.05025145
v 0.06991675 -0.00121511 0.05078719
v 0.06499670 -0.00555038 0.05779583
v 0.06613851 -0.00741195 0.05856678
v 0.06472245 -0.00800535 0.05784086
v 0.07476632 -0.01126643 0.06168677
v 0.06050650 -0.01443148 0.05031592
v 0.05229153 -0.00558695 0.05011056
v 0.07263604 -0.01167071 0.06136719
v 0.07349337 -0.01346334 0.06155849
v 0.05147426 -0.00366405 0.05032513
v 0.07326708 -0.01270733 0.06156732
v 0.07486520 -0.02282249 0.05843250
v 0.05641287 -0.01060990 0.05024108
v 0.07230550 -0.01322187 0.06111046
v 0.05720326 -0.00002537 0.05017065
v 0.07489155 -0.01378162 0.06193328
v 0.07441791 -0.01685175 0.06121725
v 0.06568389 -0.00518972 0.05785815
v 0.05180117 -0.00065077 0.05006149
v 0.05274136 -0.00226505 0.05113680
v 0.05270642 -0.00612469 0.05015748
v 0.07460612 -0.01661675 0.06138587
v 0.06755385 -0.00281693 0.05564939
v 0.06891951 -0.00088365 0.05061396
v 0.07456716 -0.01313445 0.06187963
v 0.06467855 -0.00447343 0.05737146
v 0.07493759 -0.02427707 0.05646374
v 0.06902871 -0.00087480 0.05025406
v 0.07217788 -0.00277833 0.05118335
v 0.06572261 -0.00654760 0.05826244
v 0.07261944 -0.00316245 0.05138684
v 0.07081153 -0.00187175 0.05178916
v 0.05265114 -0.00340843 0.05113004
v 0.07321407 -0.01084950 0.06126513
v 0.07062822 -0.00164610 0.05103200
v 0.05796450 -0.00002200 0.05016112
v 0.06531351 -0.00739498 0.05820791
v 0.07263334 -0.00313120 0.05063894
v 0.06553782 -0.00545661 0.05792290
v 0.06896414 -0.00134798 0.05252662
v 0.06519934 -0.00947608 0.05780922
v 0.07357860 -0.01740437 0.06048176
v 0.07183593 -0.01154719 0.06111697
v 0.07466511 -0.01561375 0.06164622
v 0.07499000 -0.02413648 0.05343732
v 0.06527434 -0.00702874 0.05816354
v 0.06427940 -0.00496727 0.05734258
v 0.06470225 -0.00026199 0.05034464
v 0.07483927 -0.02266478 0.05855599
v 0.06460713 -0.00633433 0.05775672
v 0.05088451 -0.00217304 0.05019338
v 0.05156355 -0.00411003 0.05022198
v 0.06377183 -0.00430513 0.05690082
v 0.07217958 -0.01383313 0.06087209
v 0.06823826 -0.00206910 0.05435582
v 0.06500388 -0.00778622 0.05801851
v 0.06901837 -0.00129657 0.05234637
v 0.05449913 -0.00548347 0.05177099
v 0.07191689 -0.00263413 0.05051558
v 0.06546662 -0.00571145 0.05798190
v 0.06957239 -0.00123073 0.05194982
v 0.07454808 -0.01398915 0.06182668
v 0.06647826 -0.00816150 0.05875826
v 0.06636636 -0.00348557 0.05670918
v 0.07455242 -0.02328143 0.05755650
v 0.07021005 -0.00138911 0.05083696
f 20 123 105
f 9 81 142
f 9 105 57
f 57 105 123
f 123 16 57
f 69 105 9
f 9 142 69
f 80 33 102
f 68 142 81
f 20 80 168
f 102 150 168
f 168 80 102
f 9 57 121
f 121 57 16
f 121 81 9
f 121 16 81
f 27 69 142
f 111 69 27
f 20 105 28
f 105 69 28
f 174 142 112
f 142 68 112
f 112 119 174
f 133 119 112
f 90 129 150
f 81 16 90
f 16 129 90
f 18 16 123
f 18 123 20
f 20 168 18
f 71 129 16
f 16 168 71
f 71 76 129
f 168 76 71
f 174 119 179
f 179 119 127
f 143 61 174
f 170 143 56
f 61 143 170
f 142 29 39
f 39 29 187
f 86 27 159
f 111 27 70
f 70 27 78
f 104 117 12
f 130 68 81
f 81 25 130
f 188 135 81
f 150 135 188
f 81 135 85
f 85 25 81
f 136 25 85
f 102 64 15
f 15 150 102
f 15 135 150
f 68 130 15
f 127 119 156
f 45 168 16
f 45 18 168
f 150 129 6
f 129 76 6
f 6 168 150
f 6 76 168
f 51 143 174
f 106 149 44
f 53 149 142
f 61 149 53
f 53 142 174
f 174 61 53
f 61 170 176
f 176 149 61
f 170 149 176
f 142 39 138
f 159 27 138
f 138 27 142
f 1 39 187
f 1 106 33
f 187 106 1
f 78 27 171
f 171 163 78
f 83 80 20
f 83 122 80
f 32 69 111
f 32 28 69
f 117 124 151
f 111 70 151
f 151 32 111
f 124 32 151
f 157 107 54
f 54 107 4
f 54 4 139
f 102 33 54
f 54 139 102
f 80 104 74
f 33 80 74
f 74 14 33
f 117 104 155
f 144 130 11
f 11 130 25
f 43 90 150
f 81 90 43
f 93 119 133
f 93 156 119
f 16 18 100
f 100 45 16
f 18 45 100
f 92 114 88
f 127 156 88
f 156 93 88
f 88 93 133
f 72 29 142
f 72 106 29
f 142 149 79
f 149 106 79
f 79 72 142
f 106 72 79
f 187 29 108
f 108 106 187
f 29 106 108
f 13 138 39
f 31 86 159
f 138 13 31
f 159 138 31
f 12 70 184
f 184 70 78
f 20 28 19
f 19 83 20
f 28 83 19
f 12 117 147
f 80 122 35
f 35 155 80
f 38 35 122
f 152 154 115
f 115 38 122
f 154 35 115
f 35 38 115
f 115 83 28
f 122 83 115
f 117 155 158
f 41 32 124
f 102 139 167
f 167 145 102
f 139 4 34
f 52 75 134
f 139 75 40
f 87 34 4
f 157 54 128
f 94 104 14
f 14 74 94
f 94 74 104
f 49 104 80
f 80 155 49
f 49 155 104
f 150 188 98
f 98 43 150
f 98 188 81
f 81 43 98
f 175 112 68
f 92 88 164
f 133 112 164
f 164 88 133
f 137 114 92
f 145 167 137
f 137 167 77
f 52 134 132
f 132 134 66
f 46 149 170
f 46 170 56
f 56 143 46
f 114 137 73
f 73 137 77
f 73 132 66
f 77 132 73
f 127 88 73
f 73 88 114
f 75 87 67
f 4 107 67
f 67 87 4
f 174 179 160
f 160 95 174
f 126 42 97
f 27 86 60
f 60 171 27
f 12 163 60
f 60 104 12
f 163 171 60
f 14 104 60
f 1 31 84
f 39 1 84
f 84 13 39
f 146 31 1
f 78 163 180
f 180 184 78
f 180 163 12
f 12 184 180
f 89 151 70
f 70 147 89
f 65 147 70
f 65 70 12
f 12 147 65
f 117 151 50
f 50 147 117
f 151 89 50
f 50 89 147
f 47 154 152
f 47 35 154
f 155 35 47
f 23 158 152
f 24 158 23
f 189 124 117
f 189 41 124
f 117 158 189
f 189 158 24
f 24 41 189
f 102 145 140
f 145 109 140
f 139 40 185
f 185 75 52
f 185 40 75
f 148 75 139
f 148 87 75
f 34 87 148
f 103 106 44
f 44 128 103
f 33 106 103
f 103 54 33
f 103 128 54
f 172 25 136
f 172 11 25
f 135 15 172
f 136 85 172
f 172 85 135
f 144 22 96
f 96 22 15
f 96 130 144
f 96 15 130
f 21 101 175
f 165 15 64
f 165 64 102
f 63 164 165
f 165 58 63
f 36 55 165
f 7 164 112
f 101 164 7
f 112 175 7
f 175 101 7
f 177 164 63
f 63 58 177
f 52 132 120
f 120 132 167
f 120 185 52
f 120 167 139
f 139 185 120
f 77 167 59
f 59 132 77
f 167 132 59
f 141 162 157
f 141 128 44
f 157 128 141
f 149 46 125
f 10 107 157
f 157 162 10
f 126 166 10
f 75 67 17
f 66 134 17
f 17 134 75
f 17 67 166
f 17 73 66
f 166 73 17
f 186 73 166
f 186 166 126
f 126 160 186
f 186 160 179
f 186 179 127
f 127 73 186
f 169 160 126
f 126 97 169
f 95 160 169
f 169 97 95
f 95 97 173
f 174 95 173
f 173 51 174
f 143 51 173
f 173 46 143
f 86 31 178
f 178 60 86
f 31 60 178
f 116 60 31
f 26 31 13
f 13 84 26
f 26 84 31
f 3 1 33
f 3 146 1
f 31 146 3
f 3 116 31
f 33 14 3
f 60 116 3
f 14 60 3
f 8 47 152
f 155 47 8
f 152 158 8
f 8 158 155
f 152 115 161
f 161 23 152
f 161 115 28
f 24 23 161
f 139 34 62
f 62 148 139
f 34 148 62
f 11 172 5
f 144 11 5
f 5 172 15
f 5 22 144
f 15 22 5
f 36 21 48
f 181 21 36
f 101 21 181
f 36 164 181
f 181 164 101
f 113 164 36
f 36 165 113
f 113 165 164
f 92 164 37
f 164 177 37
f 37 137 92
f 145 137 37
f 37 109 145
f 30 140 109
f 109 37 30
f 30 37 177
f 102 140 30
f 149 125 99
f 162 141 99
f 44 149 99
f 99 141 44
f 166 67 131
f 131 10 166
f 131 67 107
f 107 10 131
f 153 125 42
f 153 42 126
f 126 10 153
f 42 125 82
f 82 97 42
f 82 173 97
f 82 125 46
f 46 173 82
f 182 41 24
f 24 161 182
f 32 41 182
f 28 32 182
f 182 161 28
f 110 48 68
f 68 15 110
f 110 55 36
f 36 48 110
f 15 165 110
f 110 165 55
f 91 177 58
f 91 165 102
f 58 165 91
f 183 10 162
f 183 153 10
f 162 99 183
f 183 99 125
f 125 153 183
f 2 30 177
f 177 91 2
f 2 91 30
f 102 30 118
f 118 91 102
f 30 91 118
f 48 21 175
f 48 175 68

