# https://github.com/mikedh/trimesh
v -0.03073327 0.03463318 -0.14925586
v -0.00627711 0.02881707 -0.14654972
v -0.04294373 0.03304766 -0.10279455
v -0.00037135 0.03220546 -0.12133434
v -0.01863865 0.03258436 -0.14979662
v -0.04144744 0.03527214 -0.14063846
v -0.04245905 0.03337273 -0.10217851
v -0.04998679 0.00606558 -0.14904643
v -0.03188411 0.03471011 -0.14972484
v -0.04323346 0.03248445 -0.10253261
v -0.00392343 0.03488800 -0.10001785
v -0.00442660 0.03163377 -0.13189684
v -0.04916471 0.00020622 -0.11506545
v -0.03983062 0.03377882 -0.10011693
v -0.04984045 0.01505809 -0.12424054
v -0.04028038 0.03539915 -0.14847127
v -0.04708025 0.00067858 -0.10164087
v -0.00846183 0.02949084 -0.14801601
v -0.03283219 0.03477273 -0.10022874
v -0.00433605 0.03160895 -0.13186958
v -0.00010752 0.03411088 -0.10461027
v -0.04180483 0.03535098 -0.14451054
v -0.01346769 0.03214940 -0.14434221
v -0.04263253 0.03538983 -0.14936808
v -0.01449194 0.03136625 -0.14994660
v -0.04306936 0.03437487 -0.14788590
v -0.04349671 0.02995854 -0.10087432
v -0.00020540 0.02877083 -0.13558740
v -0.04335133 0.01792324 -0.14996197
v -0.00481738 0.03146953 -0.13339277
v -0.00071355 0.02628183 -0.14305097
v -0.04121438 0.03420063 -0.11361512
v -0.01187611 0.03166977 -0.14432923
v -0.04664194 0.00894498 -0.10050312
v -0.00018773 0.02785975 -0.13804408
v -0.04982926 0.00028602 -0.14920955
v -0.00095519 0.03444368 -0.10178254
v -0.04075144 0.03500677 -0.13101761
v -0.01812865 0.03249772 -0.14961355
v -0.01648361 0.03228518 -0.14847284
v -0.02018982 0.03310458 -0.14827807
v -0.01693652 0.03235127 -0.14873279
v -0.00781384 0.02937627 -0.14739391
v -0.00025493 0.02361884 -0.14680940
v -0.00119663 0.02333879 -0.14893509
v -0.01043530 0.02990617 -0.14956802
v -0.00018679 0.02239437 -0.14852745
v -0.02858800 0.03510359 -0.10003698
v -0.04912200 0.00324450 -0.14990375
v -0.03023622 0.03460252 -0.14895343
v -0.00993405 0.03081283 -0.14539271
v -0.02806625 0.03427402 -0.14946729
v -0.00662031 0.02764209 -0.14992876
v -0.01033013 0.03194376 -0.14031970
v -0.00075732 0.02687596 -0.14168503
v -0.04910465 0.00667746 -0.14998196
v -0.04042044 0.03436897 -0.11429699
v -0.01179644 0.03086580 -0.14812442
v -0.01405577 0.03218619 -0.14507954
v -0.00618642 0.02858214 -0.14705917
v -0.00846852 0.02989467 -0.14657729
v -0.00021688 0.02625223 -0.14221226
v -0.00023566 0.03166402 -0.12423053
v -0.01584144 0.03180791 -0.14988087
v -0.00496080 0.03174100 -0.13225690
v -0.00067433 0.02974596 -0.13380911
v -0.04632476 0.01105589 -0.10032150
v -0.00043595 0.02314764 -0.14796618
v -0.03886007 0.03525054 -0.14968181
v -0.00047865 0.03170196 -0.12449712
v -0.02101878 0.03528444 -0.10014073
v -0.00045001 0.02923195 -0.13486435
v -0.00167478 0.02657258 -0.14405318
v -0.04983100 0.00410728 -0.11668577
v -0.00130688 0.03179275 -0.12558927
v -0.04782149 0.00000978 -0.10900003
v -0.04165353 0.03369003 -0.10437749
v -0.01850416 0.03256072 -0.14975477
v -0.03394788 0.03486833 -0.14977666
v -0.04357468 0.02830886 -0.10029325
v -0.00723749 0.02838206 -0.14927161
v -0.00199405 0.02941452 -0.13720650
v -0.04697702 0.00238744 -0.10021491
v -0.00714677 0.03510296 -0.10070471
v -0.00373764 0.02939689 -0.14031585
v -0.04999346 0.01605197 -0.14906914
v -0.03847840 0.03403518 -0.10025859
v -0.04151970 0.03386333 -0.10742151
v -0.04692399 0.00551745 -0.10065067
v -0.01125635 0.03115404 -0.14589902
v -0.01135786 0.03090680 -0.14724430
v -0.00969965 0.03198790 -0.13894447
v -0.04953637 0.00027326 -0.14949921
v -0.04147409 0.03512420 -0.13673348
v -0.00142631 0.02925125 -0.13661502
v -0.04955633 0.01208457 -0.11947043
v -0.01076336 0.03037635 -0.14851874
v -0.02652286 0.03515809 -0.10027134
v -0.04169071 0.03348979 -0.10097696
v -0.00039265 0.03039176 -0.13050948
v -0.04715974 0.00033018 -0.10282508
v -0.01608783 0.03535253 -0.10024300
v -0.00157134 0.03171262 -0.12645739
v -0.00130625 0.03453276 -0.10116499
v -0.02618155 0.03391742 -0.14984187
v -0.04145574 0.03399731 -0.10996597
v -0.04739147 0.00004530 -0.10674718
v -0.00874155 0.02931442 -0.14900301
v -0.00066455 0.03201749 -0.12320641
v -0.03517040 0.03455822 -0.10001606
v -0.00004300 0.03356978 -0.11066040
v -0.04131817 0.03405692 -0.11069748
v -0.04911480 0.01470770 -0.14987286
v -0.04994629 0.01661189 -0.14972680
v -0.00658182 0.02843421 -0.14815765
v -0.00629833 0.03120695 -0.13723422
v -0.00251671 0.03474011 -0.10016900
v -0.04595334 0.01228674 -0.10027256
v -0.04074445 0.03449633 -0.11856703
v -0.04257282 0.03335184 -0.10286733
v -0.04990319 0.01662227 -0.12859335
v -0.02237817 0.03345760 -0.14915337
v -0.01289958 0.03176616 -0.14555404
v -0.04119063 0.03484194 -0.12865303
v -0.01542011 0.03212014 -0.14768998
v -0.04970057 0.00013381 -0.14933545
v -0.01135107 0.03034491 -0.14948703
v -0.04191636 0.03547430 -0.14928238
v -0.00469314 0.02651046 -0.14942986
v -0.00347538 0.02582072 -0.14877921
v -0.02195337 0.03347465 -0.14828636
v -0.00485601 0.02700754 -0.14854508
v -0.01417781 0.03180605 -0.14735933
v -0.04974576 0.00892755 -0.11745897
v -0.04984024 0.00238337 -0.11664271
f 21 47 111
f 13 126 76
f 110 83 11
f 11 83 117
f 101 13 76
f 50 11 117
f 86 8 121
f 121 15 10
f 10 26 121
f 15 121 74
f 14 83 110
f 14 80 83
f 107 101 76
f 47 101 107
f 76 126 107
f 107 126 47
f 13 101 17
f 117 83 17
f 47 21 17
f 17 101 47
f 21 50 37
f 37 17 21
f 52 50 21
f 52 21 111
f 86 121 114
f 114 121 26
f 114 8 86
f 10 15 27
f 10 7 3
f 126 13 36
f 36 114 126
f 8 114 36
f 87 14 110
f 67 34 83
f 80 27 67
f 15 74 134
f 34 67 134
f 134 67 27
f 110 11 48
f 128 102 84
f 84 102 11
f 84 16 128
f 13 17 135
f 135 36 13
f 83 74 135
f 135 17 83
f 8 36 135
f 135 121 8
f 135 74 121
f 104 50 117
f 104 37 50
f 117 17 104
f 17 37 104
f 56 113 29
f 53 49 56
f 56 114 113
f 49 114 56
f 45 49 53
f 126 114 93
f 93 114 49
f 49 45 93
f 47 126 93
f 93 45 47
f 99 7 10
f 10 27 99
f 80 14 99
f 99 27 80
f 14 87 99
f 120 3 7
f 24 114 26
f 3 120 24
f 24 26 10
f 10 3 24
f 24 120 7
f 57 87 110
f 83 80 118
f 118 67 83
f 80 67 118
f 83 34 89
f 34 134 89
f 89 74 83
f 89 134 74
f 96 27 15
f 15 134 96
f 96 134 27
f 110 48 19
f 71 102 128
f 11 102 71
f 71 48 11
f 9 79 11
f 69 84 11
f 11 79 69
f 16 84 69
f 128 16 69
f 69 24 128
f 29 113 69
f 69 79 29
f 113 114 69
f 114 24 69
f 129 45 53
f 130 45 129
f 25 56 29
f 53 56 25
f 47 45 68
f 68 44 47
f 68 45 130
f 109 92 23
f 23 92 54
f 92 109 54
f 7 99 77
f 77 99 87
f 110 19 6
f 6 48 128
f 6 19 48
f 128 48 98
f 98 71 128
f 48 71 98
f 50 52 1
f 52 9 1
f 11 50 1
f 1 9 11
f 18 97 43
f 108 18 43
f 115 129 53
f 53 81 115
f 115 108 43
f 81 108 115
f 53 25 46
f 46 81 53
f 46 108 81
f 39 40 64
f 131 52 111
f 111 122 131
f 131 122 52
f 125 40 23
f 125 64 40
f 111 23 59
f 59 40 111
f 23 40 59
f 42 39 111
f 111 40 42
f 42 40 39
f 44 68 62
f 47 44 62
f 4 23 111
f 4 109 23
f 111 63 4
f 63 109 4
f 106 24 7
f 7 77 106
f 128 24 22
f 22 6 128
f 24 6 22
f 94 6 24
f 24 106 94
f 41 122 111
f 127 46 25
f 108 46 127
f 97 18 127
f 18 108 127
f 105 9 52
f 79 9 105
f 52 122 105
f 29 79 105
f 105 25 29
f 28 63 111
f 112 94 106
f 87 57 112
f 32 112 119
f 119 112 57
f 85 82 2
f 43 85 2
f 2 115 43
f 65 54 109
f 23 54 123
f 123 125 23
f 43 97 61
f 97 51 61
f 5 105 122
f 122 41 5
f 5 41 111
f 5 64 25
f 25 105 5
f 95 82 72
f 115 55 73
f 62 55 35
f 47 62 35
f 72 28 35
f 111 47 35
f 35 28 111
f 35 95 72
f 124 112 32
f 94 112 124
f 32 119 124
f 88 106 77
f 88 112 106
f 88 77 87
f 87 112 88
f 115 2 60
f 60 2 82
f 82 95 60
f 60 55 115
f 60 35 55
f 95 35 60
f 20 103 30
f 100 51 116
f 116 30 100
f 100 30 103
f 100 103 63
f 63 28 100
f 100 28 72
f 70 109 63
f 75 103 20
f 75 65 109
f 109 70 75
f 25 64 133
f 64 125 133
f 125 123 133
f 33 123 54
f 111 39 78
f 78 5 111
f 39 64 78
f 64 5 78
f 129 115 132
f 132 73 129
f 115 73 132
f 31 55 62
f 31 73 55
f 129 73 31
f 130 129 31
f 31 68 130
f 31 62 68
f 38 124 119
f 38 57 110
f 38 119 57
f 94 124 38
f 110 6 38
f 6 94 38
f 66 61 51
f 51 100 66
f 66 85 43
f 43 61 66
f 66 82 85
f 72 82 66
f 66 100 72
f 12 75 20
f 65 75 12
f 90 91 123
f 51 91 90
f 123 33 90
f 97 127 58
f 58 127 25
f 58 51 97
f 58 91 51
f 75 70 63
f 63 103 75
f 90 30 116
f 54 65 90
f 90 33 54
f 116 51 90
f 20 30 90
f 90 12 20
f 65 12 90
f 25 133 58
f 58 133 123
f 123 91 58

