# https://github.com/mikedh/trimesh
v 0.00023309 0.00120150 -0.00000000
v 0.02520472 0.02126864 -0.00004818
v 0.02858723 0.00036723 -0.04976580
v 0.00000088 0.00082136 -0.00021495
v 0.00000032 0.02256383 -0.03328941
v 0.00279007 0.03173362 -0.00379723
v 0.00000032 0.00590145 -0.00504464
v 0.00008712 0.02969219 -0.01710080
v 0.00000004 0.03062930 -0.01247180
v 0.00276794 0.01905628 -0.00000000
v 0.00088248 0.03003496 -0.01555821
v 0.01869055 0.01977999 -0.04999745
v 0.00415363 0.03180761 -0.00141970
v 0.03139858 0.00597048 -0.00022272
v 0.00146895 0.02347500 -0.00000000
v 0.00541340 0.03133923 -0.00505170
v 0.00592505 0.03169751 -0.00035945
v 0.02872157 0.01268511 -0.04989234
v 0.00000001 0.00601088 -0.03549400
v 0.00000000 0.02856291 -0.01293479
v 0.00008420 0.02256603 -0.04862887
v 0.02865974 0.00279682 -0.04981279
v 0.00829120 0.03125207 -0.00039499
v 0.00000276 0.02329827 -0.03712612
v 0.00077309 0.03207110 -0.00042685
v 0.02324709 0.02344865 -0.00025367
v 0.02717357 0.02247825 -0.04999626
v 0.00000052 0.02100768 -0.03824708
v 0.00000001 0.02918246 -0.00966689
v 0.02094162 0.02548320 -0.00049478
v 0.00003469 0.03084785 -0.01158910
v 0.01490856 0.02908262 -0.00097205
v 0.00000024 0.03141230 -0.00702849
v 0.02212831 0.00041706 -0.00000000
v 0.00000091 0.01023324 -0.00000408
v 0.00000000 0.00916658 -0.03990116
v 0.01800665 0.00010751 -0.04991306
v 0.00000049 0.03159368 -0.00544353
v 0.00533794 0.03171197 -0.00108919
v 0.00254680 0.03166637 -0.00462710
v 0.00000074 0.00243374 -0.04153202
v 0.00058472 0.03099945 -0.01049980
v 0.00000089 0.02243025 -0.03741124
v 0.00000060 0.00001759 -0.00248152
v 0.00234144 0.03042898 -0.01331734
v 0.00000095 0.02951794 -0.00004108
v 0.00003464 0.03197869 -0.00191007
v 0.00000090 0.00385668 -0.00004169
v 0.02150603 0.02499567 -0.00038674
v 0.00000000 0.00225195 -0.01215130
v 0.02210468 0.00004186 -0.00000000
v 0.01085678 0.01450812 -0.00000000
v 0.00000002 0.00204100 -0.01056932
v 0.00207054 0.02341934 -0.00000000
v 0.03097056 0.00833740 -0.00056894
v 0.00000264 0.02367105 -0.03684301
v 0.00000000 0.01978875 -0.03223326
v 0.01381370 0.02955955 -0.00051865
v 0.01868811 0.02136958 -0.04999715
v 0.00877742 0.03099468 -0.00233696
v 0.03084284 0.00006699 -0.00351982
v 0.01224904 0.03020456 -0.00026914
v 0.00293827 0.03056228 -0.01224825
v 0.00000017 0.01453663 -0.00655642
v 0.00000140 0.00001030 -0.03872916
v 0.00000040 0.00074471 -0.04036079
v 0.02832255 0.01935067 -0.04999023
v 0.00654050 0.03121908 -0.00446406
v 0.00000131 0.03172231 -0.00107582
v 0.00104650 0.00015204 -0.00000000
v 0.02145463 0.00271586 -0.00000000
v 0.00062298 0.03161863 -0.00574836
v 0.00596646 0.03080588 -0.00842812
v 0.00862542 0.03114231 -0.00109095
v 0.00000027 0.00016477 -0.00850270
v 0.00292413 0.03199893 -0.00052621
v 0.00000056 0.00016544 -0.04023479
v 0.00000022 0.01208530 -0.00599697
v 0.00102439 0.03134221 -0.00793411
v 0.01651863 0.02831700 -0.00046102
v 0.00000090 0.00655295 -0.00000000
v 0.00000079 0.03159487 -0.00234835
v 0.00000038 0.00270165 -0.00441671
v 0.00000011 0.03124175 -0.00780994
v 0.01189968 0.01855351 -0.04999863
v 0.00002577 0.00536424 -0.00000000
v 0.00045480 0.03117008 -0.00934956
v 0.00009540 0.03062640 -0.01271524
v 0.02790736 0.02192023 -0.04997690
v 0.00716628 0.03105000 -0.00492520
v 0.00000000 0.02852525 -0.00945337
v 0.00433677 0.03137514 -0.00565580
v 0.00952116 0.03101374 -0.00001341
v 0.00000023 0.01859948 -0.03702279
v 0.00000010 0.00065591 -0.00976536
v 0.00000029 0.02808852 -0.00568435
v 0.03000669 0.01216531 -0.00031093
v 0.00000089 0.00224631 -0.00007797
v 0.03169156 0.00012204 -0.00008963
v 0.02903297 0.01461697 -0.00062344
v 0.01208947 0.00236299 -0.04997777
v 0.00087609 0.03149176 -0.00674748
v 0.00003072 0.03179436 -0.00431026
v 0.01790239 0.02755024 -0.00083169
v 0.00000018 0.00660286 -0.04194270
v 0.02960345 0.01326473 -0.00053216
v 0.02271266 0.02393231 -0.00035444
v 0.00938224 0.03097344 -0.00117433
v 0.00565751 0.03144795 -0.00360275
v 0.00000274 0.02372012 -0.03680770
v 0.00337637 0.03149109 -0.00558103
v 0.00658266 0.03157698 -0.00046585
v 0.00455631 0.03059871 -0.01085987
v 0.00387823 0.03192983 -0.00004410
v 0.00012121 0.02314404 -0.00000001
v 0.00047408 0.03089824 -0.01120857
v 0.00000000 0.02484141 -0.00836369
v 0.00669078 0.03116318 -0.00473224
v 0.00000005 0.00108943 -0.02512005
v 0.00000003 0.00114940 -0.01035082
v 0.00919685 0.03088714 -0.00253098
v 0.02193953 0.02461682 -0.00034193
v 0.00000087 0.03188799 -0.00219927
v 0.00000010 0.00056040 -0.01080918
v 0.00313975 0.03171882 -0.00358363
v 0.00000007 0.02175732 -0.00743489
v 0.00315507 0.03185764 -0.00200959
v 0.00000094 0.03047658 -0.00027315
v 0.01212391 0.00105937 -0.04997399
v 0.00000026 0.00970477 -0.00563374
v 0.00000022 0.00483015 -0.04202001
v 0.03148179 0.00504168 -0.00024415
v 0.01814976 0.00120146 -0.04993072
v 0.00000015 0.02871954 -0.00695703
v 0.01847920 0.00499035 -0.04997137
v 0.01312666 0.00015957 -0.04986377
v 0.00000003 0.02908625 -0.00797032
v 0.00049679 0.03112550 -0.00965787
v 0.00000034 0.03127256 -0.00845112
v 0.00000080 0.03169393 -0.00233178
v 0.00675895 0.03155458 -0.00028752
v 0.00000149 0.03159422 -0.00057530
v 0.00643748 0.03131903 -0.00364572
v 0.02201326 0.00127588 -0.00000000
v 0.00587668 0.03157597 -0.00199305
v 0.02880922 0.01030022 -0.04993597
v 0.01236157 0.00031271 -0.04994786
v 0.00000007 0.00552231 -0.03776273
v 0.02642810 0.01951764 -0.00012162
v 0.02786354 0.01710870 -0.00027539
v 0.00000004 0.03016001 -0.01017699
v 0.00000059 0.00265385 -0.04160701
v 0.02697620 0.01871212 -0.00025932
v 0.00616361 0.03162882 -0.00091096
v 0.01920843 0.02670066 -0.00062235
v 0.00259830 0.03189453 -0.00201397
v 0.00000087 0.00012195 -0.00029506
v 0.00380290 0.00021425 -0.00000000
v 0.00093048 0.03141655 -0.00736598
v 0.00000073 0.00094960 -0.00138889
v 0.03169089 0.00178829 -0.00013039
v 0.00000002 0.02656081 -0.00796343
v 0.01309679 0.02985944 -0.00038336
v 0.01542106 0.02885440 -0.00100139
v 0.00162455 0.02250099 -0.04994292
v 0.00891645 0.03089264 -0.00307708
f 61 3 99
f 65 61 51
f 51 44 65
f 51 61 99
f 157 44 51
f 51 70 157
f 85 101 165
f 89 27 30
f 21 105 28
f 41 165 147
f 21 165 41
f 36 28 105
f 21 56 110
f 85 27 12
f 12 101 85
f 27 101 12
f 83 120 44
f 157 70 1
f 1 54 86
f 49 89 30
f 122 89 49
f 59 27 85
f 85 165 59
f 59 165 27
f 147 165 129
f 129 165 101
f 101 135 129
f 2 89 26
f 24 56 21
f 21 28 24
f 77 41 147
f 77 136 65
f 147 136 77
f 65 44 77
f 2 26 93
f 93 26 122
f 67 101 27
f 67 135 101
f 67 146 135
f 27 89 67
f 115 93 46
f 44 120 95
f 35 115 46
f 70 51 158
f 158 1 70
f 46 134 96
f 117 126 162
f 27 165 11
f 11 88 27
f 147 129 37
f 37 136 147
f 3 61 37
f 37 61 65
f 65 136 37
f 14 67 89
f 107 89 122
f 122 26 107
f 107 26 89
f 56 24 43
f 43 24 28
f 137 134 46
f 117 162 137
f 21 110 9
f 9 110 56
f 56 43 9
f 131 105 21
f 131 36 105
f 119 120 50
f 50 19 119
f 117 36 50
f 36 19 50
f 122 49 80
f 80 93 122
f 80 49 30
f 2 93 71
f 128 142 69
f 128 137 46
f 54 93 15
f 93 115 15
f 117 120 64
f 64 126 117
f 44 95 75
f 75 77 44
f 48 1 86
f 48 98 1
f 157 1 4
f 1 98 4
f 54 1 10
f 1 158 10
f 8 11 165
f 88 11 8
f 8 165 21
f 21 9 8
f 133 129 135
f 133 37 129
f 135 146 133
f 161 2 99
f 161 14 2
f 99 146 161
f 89 97 55
f 55 14 89
f 97 14 55
f 153 150 89
f 89 150 100
f 5 43 28
f 5 9 43
f 20 36 117
f 41 77 152
f 21 41 152
f 152 131 21
f 119 19 148
f 148 19 36
f 36 131 148
f 53 120 117
f 117 50 53
f 53 50 120
f 93 80 62
f 62 80 163
f 27 93 62
f 62 163 27
f 27 80 104
f 164 80 27
f 108 93 27
f 52 93 54
f 52 71 93
f 54 10 52
f 34 158 51
f 99 2 34
f 34 51 99
f 120 83 7
f 77 75 124
f 119 77 124
f 124 75 95
f 124 120 119
f 124 95 120
f 88 8 31
f 31 8 9
f 27 88 31
f 3 37 22
f 37 133 22
f 22 133 146
f 99 3 22
f 22 146 99
f 146 67 18
f 18 161 146
f 67 161 18
f 67 14 132
f 132 161 67
f 14 161 132
f 149 89 2
f 149 153 89
f 150 153 149
f 97 150 149
f 2 14 149
f 149 14 97
f 106 150 97
f 106 100 150
f 106 97 89
f 89 100 106
f 123 128 69
f 103 38 123
f 84 128 82
f 137 128 84
f 84 9 151
f 9 5 57
f 36 20 57
f 57 20 9
f 57 5 28
f 117 137 91
f 91 20 117
f 66 152 77
f 131 152 66
f 66 77 119
f 119 148 66
f 66 148 131
f 30 27 155
f 27 104 155
f 155 80 30
f 155 104 80
f 32 164 27
f 163 80 58
f 80 164 58
f 164 32 58
f 27 163 58
f 58 32 27
f 23 141 93
f 144 10 158
f 144 52 10
f 158 34 144
f 71 52 144
f 2 71 144
f 144 34 2
f 126 64 78
f 160 4 98
f 160 44 157
f 157 4 160
f 139 38 103
f 139 31 9
f 142 128 25
f 25 128 46
f 140 84 82
f 82 128 140
f 128 123 140
f 28 36 94
f 94 57 28
f 36 57 94
f 9 20 29
f 20 91 29
f 151 9 29
f 29 91 137
f 29 84 151
f 137 84 29
f 121 108 27
f 27 60 121
f 121 60 108
f 108 60 74
f 93 108 74
f 74 23 93
f 60 143 74
f 130 64 120
f 130 78 64
f 120 7 130
f 38 139 33
f 33 123 38
f 9 84 33
f 33 139 9
f 33 140 123
f 84 140 33
f 103 123 47
f 47 25 103
f 47 123 69
f 69 142 47
f 142 25 47
f 27 31 45
f 45 63 27
f 73 16 27
f 31 139 87
f 87 139 103
f 166 60 27
f 81 162 126
f 81 7 83
f 81 83 44
f 134 137 81
f 126 78 81
f 81 96 134
f 81 137 162
f 44 160 81
f 78 130 81
f 81 130 7
f 46 96 81
f 81 35 46
f 81 160 98
f 81 48 86
f 98 48 81
f 86 54 81
f 54 15 81
f 81 15 115
f 115 35 81
f 154 74 143
f 114 76 25
f 93 141 114
f 46 93 114
f 114 25 46
f 116 45 31
f 63 45 116
f 27 63 113
f 113 73 27
f 60 166 118
f 27 16 118
f 76 114 17
f 17 112 154
f 141 112 17
f 17 114 141
f 103 25 156
f 25 76 156
f 111 113 63
f 73 113 111
f 63 116 42
f 90 166 27
f 27 118 90
f 90 118 166
f 16 143 68
f 68 118 16
f 68 143 60
f 60 118 68
f 145 154 143
f 6 156 76
f 6 40 103
f 103 156 6
f 6 111 40
f 16 111 6
f 39 17 154
f 154 145 39
f 39 145 13
f 39 13 76
f 76 17 39
f 16 73 92
f 92 111 16
f 73 111 92
f 103 40 72
f 40 102 72
f 72 87 103
f 40 111 79
f 79 111 63
f 63 42 79
f 138 42 116
f 31 87 138
f 138 116 31
f 87 79 138
f 138 79 42
f 109 143 16
f 16 145 109
f 109 145 143
f 76 13 127
f 127 6 76
f 13 145 125
f 125 127 13
f 6 127 125
f 125 145 16
f 16 6 125
f 159 102 40
f 40 79 159
f 159 79 87
f 87 72 159
f 159 72 102
f 23 74 112
f 141 23 112
f 74 154 112

