# https://github.com/mikedh/trimesh
v 0.00004619 -0.01073671 -0.15350141
v 0.00119156 -0.01366210 -0.15079906
v 0.00004877 -0.01977492 -0.15047470
v 0.00004869 -0.01959498 -0.15056106
v 0.00218465 -0.00616394 -0.15018479
v 0.00090812 -0.01097229 -0.15196750
v 0.00048020 -0.01902076 -0.15007882
v 0.00201305 -0.01115963 -0.15001211
v 0.00062773 -0.00467140 -0.15306215
v 0.00093603 -0.00122142 -0.15283573
v 0.00178460 -0.00714932 -0.15079666
v 0.00117694 -0.00297120 -0.15225128
v 0.00145129 -0.00011451 -0.15202926
v 0.00157893 -0.00651008 -0.15121850
v 0.00042802 -0.01347068 -0.15218233
v 0.00026093 -0.01198847 -0.15285997
v 0.00151101 -0.01258443 -0.15052143
v 0.00105128 -0.01452848 -0.15081484
v 0.00226315 -0.00037361 -0.15057742
v 0.00024880 -0.01379735 -0.15240727
v 0.00017017 -0.00398134 -0.15393081
v 0.00125030 -0.00541290 -0.15189830
v 0.00011694 -0.00493207 -0.15393312
v 0.00067306 -0.00695137 -0.15276465
v 0.00015829 -0.01647847 -0.15178282
v 0.00231896 -0.00057465 -0.15046076
v 0.00042311 -0.00162196 -0.15370187
f 20 25 1
f 26 3 7
f 1 3 23
f 3 21 23
f 26 7 5
f 5 7 8
f 27 21 3
f 16 20 1
f 20 16 15
f 8 7 18
f 18 7 25
f 25 20 18
f 20 15 18
f 4 7 3
f 25 7 4
f 4 3 1
f 1 25 4
f 1 23 24
f 11 5 8
f 13 27 3
f 26 5 12
f 6 16 1
f 8 16 6
f 2 18 15
f 2 15 16
f 5 11 14
f 14 23 21
f 14 24 23
f 14 11 8
f 19 3 26
f 19 13 3
f 17 16 8
f 17 2 16
f 8 18 17
f 18 2 17
f 5 14 22
f 27 13 10
f 13 19 10
f 9 14 21
f 9 22 14
f 8 6 14
f 14 6 1
f 1 24 14
f 10 12 27
f 26 12 10
f 10 19 26
f 9 12 5
f 27 12 9
f 5 22 9
f 21 27 9

