# https://github.com/mikedh/trimesh
v -0.12013066 0.00547906 -0.20244676
v -0.10400469 0.01212644 -0.21735012
v -0.11879903 0.00026020 -0.20476592
v -0.11821286 0.00767190 -0.20545797
v -0.10292224 0.01679070 -0.20023946
v -0.10690275 0.01680391 -0.20448946
v -0.11256881 0.01490920 -0.20703627
v -0.11102282 0.00104897 -0.20013852
v -0.11357218 0.00871847 -0.21083624
v -0.11132056 0.01049468 -0.21247600
v -0.12074415 0.01026858 -0.20033197
v -0.11042104 0.01408702 -0.21054029
v -0.11788853 0.00228521 -0.20605983
v -0.10207834 0.00025337 -0.21989179
v -0.11389204 0.00943943 -0.21035007
v -0.10248004 0.01445754 -0.21623232
v -0.11035775 0.00013237 -0.20081957
v -0.10635157 0.00744306 -0.21725984
v -0.12127471 0.00069315 -0.20051429
v -0.10020662 0.01630505 -0.21499249
v -0.10204971 0.00010111 -0.20940874
v -0.11463126 0.01118481 -0.20859430
v -0.11915446 0.00901963 -0.20368230
v -0.11279099 0.01656987 -0.20309454
v -0.11153120 0.00986125 -0.21257007
v -0.11326775 0.00007064 -0.21153189
v -0.10137391 0.01647849 -0.21383752
v -0.12127857 0.00484454 -0.20048079
v -0.10576591 0.00929391 -0.21749871
v -0.10107499 0.01677678 -0.21254760
v -0.11153761 0.00562312 -0.21309827
v -0.10630889 0.00538702 -0.21745099
v -0.10572806 0.01343163 -0.21507061
v -0.10005493 0.01284160 -0.21059270
v -0.11499452 0.01087719 -0.20832141
v -0.11830472 0.00597731 -0.20552058
v -0.11173914 0.01682403 -0.20021993
v -0.10774382 0.01374170 -0.21309665
v -0.10424104 0.01352256 -0.21601619
v -0.10631137 0.00534333 -0.21744905
v -0.11377518 0.00561668 -0.21090801
v -0.11487700 0.00856975 -0.20930933
v -0.11955618 0.01253158 -0.20048890
v -0.11825296 0.01234137 -0.20300190
v -0.11003118 0.01615567 -0.20766514
v -0.10014911 0.00170084 -0.22099359
v -0.10955692 0.01488688 -0.21034919
v -0.10639305 0.01160358 -0.21609746
v -0.11135002 0.01420887 -0.20947971
v -0.10016703 0.01677367 -0.21153842
v -0.10999215 0.01631870 -0.20740377
v -0.10418335 0.01225722 -0.21713882
v -0.10654663 0.00952802 -0.21685137
v -0.10562783 0.01501493 -0.21339672
v -0.10664916 0.00041854 -0.21718236
v -0.10094087 0.01677861 -0.20915506
v -0.11182669 0.01608545 -0.20569647
v -0.10989533 0.01605642 -0.20799095
v -0.10705143 0.01650568 -0.20961623
v -0.10089491 0.01677958 -0.20686525
v -0.10690437 0.00006701 -0.20520644
v -0.10017684 0.01644955 -0.21462251
v -0.11289865 0.01013211 -0.21117153
v -0.11264314 0.01214763 -0.21036957
v -0.10438685 0.01679590 -0.20112345
v -0.10339793 0.01621163 -0.21322339
v -0.10025793 0.01677859 -0.20393861
v -0.10012993 0.01677994 -0.20025468
v -0.12014954 0.01167780 -0.20043427
v -0.11155584 0.01320256 -0.21041492
v -0.10023178 0.01393089 -0.21804441
v -0.11295841 0.01682865 -0.20099717
v -0.11995175 0.00026878 -0.20278754
v -0.11564286 0.01029201 -0.20785266
v -0.11130119 0.01247627 -0.21139406
v -0.11329520 0.00950416 -0.21102152
v -0.11071313 0.01107674 -0.21273329
v -0.11925444 0.01096099 -0.20243382
v -0.10413851 0.01472967 -0.21498051
v -0.10615778 0.01680192 -0.20273072
v -0.10454446 0.01619998 -0.21241084
v -0.11671935 0.01224832 -0.20545431
v -0.10731880 0.01680628 -0.20296276
v -0.12118478 0.00750489 -0.20039668
v -0.10418443 0.01613371 -0.21278557
v -0.10027667 0.00366888 -0.22091688
v -0.11994811 0.00607802 -0.20270455
v -0.11579281 0.01477238 -0.20349085
v -0.11528728 0.01456457 -0.20442961
v -0.10592695 0.00589846 -0.21765391
v -0.11814663 0.00798924 -0.20550418
v -0.11115213 0.00576593 -0.21340703
v -0.12080205 0.00987659 -0.20048768
v -0.11464683 0.01105275 -0.20864278
v -0.10131163 0.00911466 -0.22007442
v -0.12118383 0.00662161 -0.20051356
v -0.10586580 0.00549513 -0.21771341
v -0.10717835 0.01679777 -0.20778730
v -0.10601202 0.01679997 -0.20551499
v -0.11354274 0.00574631 -0.21117124
v -0.11736274 0.01200117 -0.20495814
v -0.11297472 0.01122288 -0.21052960
v -0.10003095 0.00029583 -0.21071693
v -0.10513548 0.00929392 -0.21785613
v -0.11631697 0.01508480 -0.20184599
v -0.10776478 0.01674180 -0.20777119
v -0.11175593 0.00540428 -0.21291720
v -0.11254743 0.00296395 -0.21226557
v -0.10576261 0.01342418 -0.21504931
v -0.11749841 0.00057692 -0.20652842
v -0.11242842 0.01647903 -0.20398634
v -0.10499691 0.01137486 -0.21715611
v -0.11668281 0.00946592 -0.20704381
v -0.10668686 0.01649745 -0.20997352
v -0.10604760 0.01260297 -0.21562020
v -0.12034928 0.00954719 -0.20147754
v -0.10296192 0.01674738 -0.21169555
v -0.11841389 0.00276967 -0.20541065
v -0.11962381 0.01018910 -0.20230297
v -0.10015703 0.01677949 -0.20135990
v -0.10648988 0.01465059 -0.21324203
v -0.11894148 0.00545700 -0.20448779
v -0.11491297 0.00813554 -0.20931068
v -0.11907554 0.01120704 -0.20258032
v -0.11048102 0.01268217 -0.21187097
v -0.10564558 0.01680044 -0.20173900
v -0.11219716 0.00002514 -0.21256574
v -0.10556363 0.01528143 -0.21303998
v -0.10939809 0.01595928 -0.20868455
v -0.10752281 0.01555018 -0.21100901
v -0.10140476 0.01455317 -0.21666557
v -0.10020425 0.00570562 -0.22090481
v -0.10648540 0.00267656 -0.21731203
v -0.11290395 0.00721172 -0.21177810
v -0.12083667 0.01034694 -0.20012251
v -0.11683790 0.01302832 -0.20438886
v -0.10830188 0.00886796 -0.21551729
v -0.11308397 0.00962734 -0.21120839
v -0.10575185 0.00354361 -0.21778236
v -0.11290168 0.00286374 -0.21195255
v -0.10021502 0.01166369 -0.21983476
v -0.11283654 0.00678082 -0.21190128
v -0.10100471 0.00516141 -0.22049202
v -0.11916690 0.00553127 -0.20410044
v -0.11695028 0.00282750 -0.20716664
v -0.10874150 0.00006894 -0.21544186
v -0.10598695 0.01680113 -0.20300092
v -0.11966720 0.00637007 -0.20314836
v -0.10994101 0.01521698 -0.20947736
v -0.11639180 0.01287878 -0.20510213
v -0.11038155 0.01675288 -0.20515704
v -0.11410457 0.01658550 -0.20135964
v -0.11098929 0.01379607 -0.20007099
v -0.10439017 0.01656686 -0.21167215
v -0.11958668 0.01022843 -0.20234100
v -0.10700779 0.00942614 -0.21651163
v -0.11311932 0.00857589 -0.21138580
v -0.11030379 0.00913520 -0.21382925
v -0.10102914 0.01677918 -0.20869156
v -0.11584095 0.00741524 -0.20828682
v -0.11437424 0.01558031 -0.20357167
v -0.11621174 0.00199246 -0.20804333
v -0.10831880 0.01681148 -0.20025929
v -0.10758808 0.00616726 -0.21633847
v -0.12091625 0.00888212 -0.20067767
v -0.10501026 0.00135430 -0.21821110
v -0.10913755 0.01603455 -0.20879357
v -0.11822904 0.00551210 -0.20564333
v -0.11000025 0.01681522 -0.20487212
v -0.10380527 0.01632797 -0.21275030
v -0.10537905 0.01679987 -0.20083624
v -0.10470872 0.01679420 -0.20700748
v -0.10569169 0.01680116 -0.20066427
v -0.10424600 0.01672433 -0.21098069
v -0.10869864 0.01475834 -0.21125552
v -0.11248292 0.00924716 -0.21200683
v -0.11530961 0.01533324 -0.20293037
v -0.11744400 0.00999154 -0.20587960
v -0.11062118 0.01201502 -0.21241041
v -0.11117913 0.01647905 -0.20559295
v -0.11682319 0.00618977 -0.20724987
v -0.10956470 0.01681579 -0.20124704
v -0.11850668 0.01396486 -0.20013035
v -0.11574590 0.01218113 -0.20667861
v -0.10696627 0.00033532 -0.21691866
v -0.11039548 0.01487419 -0.20965567
f 34 68 103
f 50 68 34
f 103 46 34
f 14 46 103
f 103 68 17
f 72 37 163
f 50 56 67
f 21 14 103
f 103 17 21
f 73 17 19
f 28 19 135
f 5 163 37
f 5 153 68
f 37 153 5
f 68 67 5
f 72 163 182
f 120 68 50
f 50 67 120
f 120 67 68
f 61 21 17
f 183 37 72
f 183 153 37
f 183 135 153
f 23 101 178
f 50 34 62
f 28 135 84
f 153 135 8
f 68 153 8
f 8 135 19
f 8 17 68
f 8 19 17
f 72 182 6
f 67 60 6
f 56 172 159
f 172 60 159
f 159 67 56
f 159 60 67
f 127 17 73
f 127 61 17
f 21 61 127
f 88 183 105
f 106 98 174
f 179 64 75
f 136 183 88
f 69 183 43
f 135 183 69
f 165 135 93
f 165 84 135
f 102 101 64
f 102 64 179
f 50 62 30
f 30 56 50
f 30 172 56
f 154 106 174
f 20 62 71
f 28 84 96
f 84 165 96
f 65 5 67
f 99 60 172
f 99 6 60
f 99 172 72
f 72 6 99
f 46 132 141
f 71 62 141
f 141 34 46
f 141 62 34
f 14 21 146
f 21 127 146
f 152 183 72
f 152 105 183
f 130 167 81
f 57 51 186
f 129 51 167
f 106 154 59
f 12 49 186
f 186 175 12
f 12 175 121
f 70 75 64
f 70 12 75
f 49 12 70
f 44 136 101
f 44 69 43
f 101 69 44
f 43 183 44
f 183 136 44
f 93 135 11
f 124 69 101
f 135 69 124
f 124 11 135
f 116 165 93
f 23 165 116
f 3 118 110
f 110 162 26
f 26 3 110
f 73 3 26
f 26 127 73
f 101 102 22
f 98 106 151
f 106 59 151
f 151 152 72
f 117 30 62
f 117 154 174
f 174 98 117
f 98 30 117
f 28 96 1
f 148 165 23
f 67 6 147
f 147 65 67
f 163 5 173
f 14 55 166
f 95 141 132
f 132 143 95
f 95 143 90
f 127 55 185
f 185 146 127
f 185 55 14
f 14 146 185
f 88 105 177
f 105 152 177
f 177 57 88
f 2 141 112
f 112 48 2
f 71 141 2
f 33 38 121
f 128 130 81
f 149 130 186
f 167 130 149
f 7 186 88
f 88 57 7
f 7 57 186
f 51 57 180
f 180 59 51
f 180 151 59
f 58 129 186
f 51 129 58
f 167 51 114
f 51 59 114
f 81 167 114
f 114 170 81
f 114 59 154
f 154 170 114
f 186 130 47
f 47 175 186
f 101 136 82
f 155 124 101
f 168 110 13
f 13 118 168
f 110 118 13
f 145 110 168
f 145 162 110
f 91 23 178
f 178 113 91
f 32 127 108
f 98 151 169
f 169 151 72
f 169 30 98
f 72 172 169
f 172 30 169
f 79 128 81
f 79 33 121
f 62 20 27
f 20 170 27
f 27 170 154
f 27 117 62
f 154 117 27
f 144 1 87
f 87 1 96
f 87 96 165
f 165 148 87
f 5 65 171
f 171 173 5
f 32 90 97
f 90 143 97
f 133 55 127
f 141 95 104
f 29 90 32
f 29 95 90
f 29 104 95
f 29 48 112
f 112 141 29
f 141 104 29
f 179 48 77
f 111 177 152
f 152 180 111
f 111 180 57
f 179 75 125
f 115 48 179
f 115 79 39
f 33 79 115
f 152 151 24
f 24 180 152
f 151 180 24
f 186 51 45
f 45 58 186
f 51 58 45
f 64 101 184
f 101 82 184
f 89 136 88
f 89 184 82
f 88 186 89
f 64 184 89
f 186 49 89
f 89 70 64
f 49 70 89
f 101 23 119
f 119 155 101
f 23 116 119
f 11 124 78
f 124 155 78
f 94 22 102
f 102 35 94
f 74 35 102
f 178 35 74
f 74 113 178
f 63 102 179
f 179 176 63
f 140 41 100
f 127 26 140
f 140 108 127
f 36 41 168
f 100 41 36
f 36 118 122
f 168 118 36
f 36 122 144
f 36 148 23
f 144 87 36
f 36 87 148
f 176 164 92
f 32 108 31
f 31 164 32
f 31 92 164
f 176 92 31
f 16 79 20
f 71 39 16
f 39 79 16
f 66 170 20
f 20 79 66
f 54 79 121
f 128 79 54
f 121 175 54
f 81 170 85
f 85 79 81
f 170 66 85
f 85 66 79
f 65 147 80
f 80 147 6
f 86 97 143
f 86 132 46
f 86 143 132
f 46 14 86
f 14 166 86
f 32 97 139
f 139 86 166
f 97 86 139
f 139 166 55
f 55 133 139
f 40 127 32
f 40 133 127
f 32 139 40
f 40 139 133
f 32 164 18
f 18 29 32
f 18 176 158
f 18 164 176
f 179 77 10
f 10 176 179
f 10 25 176
f 57 177 161
f 161 111 57
f 177 111 161
f 179 125 109
f 109 125 38
f 38 33 109
f 52 115 39
f 52 39 71
f 71 2 52
f 52 2 48
f 48 115 52
f 150 82 136
f 136 89 150
f 150 89 82
f 176 76 138
f 138 63 176
f 23 91 4
f 4 36 23
f 142 140 100
f 176 31 142
f 15 76 176
f 176 157 15
f 100 36 181
f 42 91 113
f 108 140 107
f 107 31 108
f 140 142 107
f 107 142 31
f 131 20 71
f 71 16 131
f 131 16 20
f 126 171 65
f 65 80 126
f 83 6 182
f 83 80 6
f 29 18 156
f 158 176 156
f 176 25 156
f 25 10 156
f 156 10 77
f 134 157 176
f 176 142 134
f 160 181 36
f 113 15 9
f 9 42 113
f 9 15 157
f 123 42 9
f 9 160 123
f 181 160 9
f 137 18 158
f 158 156 137
f 137 156 18
f 48 29 53
f 29 156 53
f 53 77 48
f 53 156 77
f 122 118 1
f 1 19 28
f 73 19 1
f 1 3 73
f 144 122 1
f 118 3 1
f 149 129 167
f 186 129 149
f 75 12 125
f 125 12 121
f 121 38 125
f 78 116 93
f 78 119 116
f 93 11 78
f 155 119 78
f 101 22 94
f 178 101 94
f 94 35 178
f 140 26 162
f 168 41 140
f 162 145 140
f 140 145 168
f 54 47 130
f 130 128 54
f 175 47 54
f 33 115 109
f 109 115 179
f 15 138 76
f 15 74 102
f 113 74 15
f 102 63 15
f 63 138 15
f 163 173 83
f 83 182 163
f 171 126 83
f 173 171 83
f 83 126 80
f 91 42 160
f 160 4 91
f 36 4 160
f 160 42 123
f 100 181 9
f 9 142 100
f 157 134 9
f 9 134 142

