# https://github.com/mikedh/trimesh
v 0.09916610 -0.03640445 -0.03314373
v 0.09328510 -0.03560575 -0.02540951
v 0.08160930 -0.03708963 -0.02943417
v 0.08563375 -0.03663903 -0.03524658
v 0.09930073 -0.03614385 -0.03093813
v 0.07514676 -0.03636907 -0.02530591
v 0.09024124 -0.03692269 -0.03118807
v 0.09965671 -0.02619594 -0.02851222
v 0.09685851 -0.03643361 -0.03480770
v 0.08248806 -0.03618854 -0.02529653
v 0.09284726 -0.03605365 -0.03535466
v 0.09627855 -0.02530872 -0.03539677
v 0.08643952 -0.03650443 -0.03532879
v 0.07789164 -0.03717583 -0.03496909
v 0.08081154 -0.03747873 -0.03290451
v 0.07532422 -0.03666721 -0.02652229
v 0.08315447 -0.03643814 -0.03539741
v 0.09885107 -0.02512939 -0.02852684
v 0.09546896 -0.03267811 -0.03539683
v 0.08852034 -0.03726729 -0.03435227
v 0.09896006 -0.03604204 -0.02975002
v 0.09909500 -0.03643903 -0.03340200
v 0.08745676 -0.03654309 -0.02752639
v 0.09162082 -0.03682845 -0.03088909
v 0.08947448 -0.03703241 -0.03192156
v 0.07699163 -0.03724095 -0.02986097
v 0.07637032 -0.03671895 -0.02673804
v 0.09961544 -0.03503530 -0.03539664
v 0.09710485 -0.03664181 -0.03373786
v 0.09573173 -0.03532113 -0.02506996
v 0.09940801 -0.03562399 -0.02740422
v 0.07749249 -0.03741533 -0.03115057
v 0.09001761 -0.03716729 -0.03431359
v 0.07518449 -0.02558709 -0.02851221
v 0.07501988 -0.03241906 -0.03539777
v 0.09336922 -0.02550270 -0.03539691
v 0.07623906 -0.03671647 -0.02672729
v 0.09954641 -0.03624070 -0.03205104
v 0.08060230 -0.03725463 -0.03050816
v 0.08446662 -0.03679909 -0.02811635
v 0.09980685 -0.03617656 -0.03176338
v 0.09975296 -0.02814711 -0.03539661
v 0.07508007 -0.02801944 -0.03539776
v 0.09964084 -0.03497930 -0.02503467
v 0.09952979 -0.03642565 -0.03417230
v 0.09933081 -0.03516584 -0.02557405
v 0.09048037 -0.03607667 -0.02633498
v 0.09198740 -0.03581229 -0.02579564
v 0.09812721 -0.03654210 -0.03356793
v 0.08561491 -0.03689472 -0.03503206
v 0.07500841 -0.03761668 -0.03314711
v 0.09878075 -0.03578996 -0.03519159
v 0.07898585 -0.03753314 -0.03299697
v 0.09346232 -0.02767943 -0.03539692
v 0.08246625 -0.02501721 -0.03539741
v 0.08098776 -0.03754553 -0.03412466
v 0.08722912 -0.03620084 -0.02599957
v 0.07521566 -0.03623535 -0.03539777
v 0.09456334 -0.03611281 -0.02771628
v 0.08245866 -0.03674941 -0.02753620
v 0.07632325 -0.02524178 -0.03539770
v 0.08328213 -0.03702831 -0.02932424
v 0.09453683 -0.03635824 -0.03500630
v 0.07634904 -0.03742614 -0.03116095
v 0.07788316 -0.03748696 -0.03176065
v 0.07501786 -0.02848578 -0.02852788
v 0.07899058 -0.03759351 -0.03402889
v 0.09433436 -0.03616737 -0.02794984
v 0.07879455 -0.03717302 -0.02947693
v 0.09433050 -0.03687370 -0.03407947
v 0.09610329 -0.03619799 -0.02908137
v 0.08338327 -0.03683548 -0.02816289
v 0.09595561 -0.03674994 -0.03387577
v 0.09851868 -0.03602479 -0.02927650
v 0.09976700 -0.03600376 -0.03015029
v 0.08654741 -0.03598236 -0.02503385
v 0.09329343 -0.03683973 -0.03203634
v 0.09988271 -0.03306761 -0.02851222
v 0.07921466 -0.03748955 -0.03235826
v 0.09212870 -0.03692605 -0.03203824
v 0.09755710 -0.03311984 -0.03539674
v 0.09891048 -0.03478390 -0.03539668
v 0.07858065 -0.03625573 -0.02506194
v 0.09797634 -0.03660957 -0.03446062
v 0.08679232 -0.03735634 -0.03406506
v 0.09470545 -0.03133256 -0.03539687
v 0.08523395 -0.03698140 -0.03496773
v 0.07819585 -0.02503821 -0.02851221
v 0.07713060 -0.03752135 -0.03203791
v 0.08671638 -0.03639096 -0.02669386
v 0.09489953 -0.02671722 -0.03539684
v 0.09595566 -0.02852052 -0.03539680
v 0.09489675 -0.03679580 -0.03328038
v 0.08478865 -0.03648377 -0.03539605
v 0.07534322 -0.03750691 -0.03474326
v 0.07827738 -0.03737190 -0.03091310
v 0.09975567 -0.03616123 -0.03154887
v 0.09350765 -0.03611856 -0.03526391
v 0.09984590 -0.03138725 -0.03539662
v 0.09670112 -0.02993757 -0.03539677
v 0.09245919 -0.02507143 -0.03539695
v 0.09917473 -0.03521104 -0.02566883
v 0.07812233 -0.03718066 -0.02949233
v 0.08992413 -0.03696094 -0.03142031
v 0.09274399 -0.03696051 -0.03460012
v 0.09052817 -0.03638020 -0.02745272
v 0.09916532 -0.03555069 -0.02692520
v 0.07504261 -0.02869599 -0.03539776
v 0.07930906 -0.03682268 -0.03523394
v 0.09631779 -0.03552814 -0.03539680
v 0.07549987 -0.03745437 -0.03137884
v 0.09296813 -0.03696890 -0.03420786
v 0.09673646 -0.02985736 -0.03539676
v 0.08895612 -0.03723847 -0.03434732
v 0.08642248 -0.03649702 -0.02709969
v 0.08956671 -0.03672913 -0.02916552
v 0.07656856 -0.03761044 -0.03321845
v 0.07836175 -0.03735591 -0.03080612
v 0.09267646 -0.02500535 -0.02852712
v 0.08817439 -0.03722755 -0.03334068
v 0.07637950 -0.03655372 -0.03539772
v 0.07527979 -0.02678138 -0.03539775
v 0.08792379 -0.03657902 -0.02781986
v 0.07657744 -0.03666772 -0.02653436
v 0.09175709 -0.02522150 -0.03539699
v 0.09907624 -0.03578229 -0.02803714
v 0.09289937 -0.03617907 -0.02738988
v 0.08805119 -0.03618769 -0.03539718
v 0.08787036 -0.03710707 -0.03474547
v 0.09583975 -0.02715340 -0.03539680
v 0.09521295 -0.02715962 -0.03539683
v 0.07618337 -0.03721029 -0.03497853
v 0.08721502 -0.03612074 -0.02567804
v 0.09755881 -0.03518662 -0.03539674
v 0.09939693 -0.02555447 -0.03539662
f 119 44 18
f 88 44 119
f 119 55 88
f 51 6 66
f 66 6 34
f 61 122 34
f 34 88 61
f 61 88 55
f 59 106 116
f 30 44 76
f 101 55 119
f 119 18 101
f 135 18 8
f 8 44 78
f 8 18 44
f 34 6 83
f 83 88 34
f 76 44 83
f 44 88 83
f 122 61 58
f 78 44 75
f 28 99 41
f 41 99 78
f 78 75 41
f 41 75 97
f 68 59 116
f 126 75 31
f 31 75 44
f 107 59 126
f 126 31 107
f 107 31 44
f 12 18 135
f 12 101 18
f 36 101 12
f 135 8 42
f 78 99 42
f 42 8 78
f 51 58 95
f 125 61 55
f 125 58 61
f 55 101 125
f 21 75 126
f 28 41 45
f 16 6 51
f 51 111 16
f 116 106 123
f 123 40 116
f 133 47 76
f 106 47 133
f 2 30 76
f 127 2 106
f 30 2 127
f 106 59 127
f 59 107 127
f 46 107 44
f 111 65 64
f 122 58 35
f 35 58 51
f 51 66 35
f 66 108 35
f 129 95 87
f 121 95 58
f 58 125 86
f 86 125 101
f 75 21 5
f 59 68 71
f 28 45 52
f 22 45 41
f 26 16 111
f 111 64 26
f 124 83 6
f 83 124 60
f 23 123 106
f 40 123 23
f 57 90 106
f 106 133 57
f 57 60 90
f 48 47 106
f 106 2 48
f 76 47 48
f 48 2 76
f 30 127 102
f 102 127 107
f 107 46 102
f 44 30 102
f 102 46 44
f 28 134 82
f 19 134 110
f 58 86 110
f 110 86 101
f 110 134 28
f 110 11 94
f 28 52 110
f 110 52 11
f 116 40 62
f 69 62 40
f 51 117 89
f 89 117 65
f 89 111 51
f 89 65 111
f 79 15 65
f 65 117 79
f 122 35 43
f 43 35 108
f 34 122 43
f 43 66 34
f 43 108 66
f 51 95 67
f 95 56 67
f 67 117 51
f 13 11 129
f 94 11 13
f 109 121 94
f 74 21 126
f 126 59 74
f 59 71 74
f 9 105 63
f 129 105 20
f 20 95 129
f 20 56 95
f 1 41 97
f 1 22 41
f 27 26 103
f 103 69 27
f 27 124 6
f 27 60 124
f 27 69 60
f 76 83 10
f 83 60 10
f 60 57 10
f 115 60 40
f 90 60 115
f 40 23 115
f 106 90 115
f 115 23 106
f 58 110 128
f 128 110 94
f 54 110 101
f 19 110 54
f 65 39 96
f 62 69 3
f 40 60 72
f 72 69 40
f 60 69 72
f 53 79 117
f 117 67 53
f 94 13 4
f 132 109 94
f 94 4 132
f 95 121 132
f 121 109 132
f 11 52 98
f 52 9 98
f 98 9 63
f 63 105 98
f 129 11 98
f 98 105 129
f 105 9 84
f 84 52 45
f 84 9 52
f 45 22 84
f 15 56 85
f 56 20 85
f 65 15 85
f 85 39 65
f 85 62 39
f 38 1 97
f 5 1 38
f 21 74 77
f 77 5 21
f 77 1 5
f 22 1 77
f 16 26 37
f 26 27 37
f 81 82 134
f 81 100 82
f 82 100 113
f 17 121 58
f 58 128 17
f 94 121 17
f 17 128 94
f 32 96 69
f 32 64 65
f 65 96 32
f 69 96 118
f 118 3 69
f 50 4 13
f 129 87 50
f 50 13 129
f 87 132 50
f 50 132 4
f 14 87 95
f 95 132 14
f 14 132 87
f 49 84 22
f 22 77 49
f 80 85 20
f 91 12 130
f 36 12 91
f 73 84 29
f 84 49 29
f 84 112 33
f 70 84 73
f 70 112 84
f 116 62 24
f 24 80 77
f 24 68 116
f 24 71 68
f 24 74 71
f 24 77 74
f 130 113 131
f 131 91 130
f 114 20 105
f 105 84 114
f 84 33 114
f 80 70 93
f 93 70 73
f 77 80 93
f 85 80 120
f 80 25 120
f 62 85 120
f 120 25 62
f 7 24 62
f 80 24 7
f 92 113 100
f 92 131 113
f 62 25 104
f 104 7 62
f 104 25 80
f 80 7 104
f 10 57 133
f 10 133 76
f 53 56 15
f 15 79 53
f 53 67 56
f 75 5 38
f 97 75 38
f 37 27 6
f 6 16 37
f 135 42 113
f 113 12 135
f 113 99 28
f 130 12 113
f 113 42 99
f 28 82 113
f 32 26 64
f 103 26 32
f 32 69 103
f 39 62 118
f 62 3 118
f 118 96 39
f 112 70 114
f 114 80 20
f 114 33 112
f 114 70 80
f 93 49 77
f 73 29 93
f 93 29 49
f 92 81 134
f 92 101 36
f 92 134 19
f 92 54 101
f 19 54 92
f 100 81 92
f 36 91 92
f 91 131 92

