# https://github.com/mikedh/trimesh
v 0.04959923 0.02332971 -0.02851219
v 0.02504064 0.02298916 -0.02851216
v 0.04990001 0.00103042 -0.03539886
v 0.04134930 0.02351904 -0.02851217
v 0.04897345 0.00744942 -0.02851218
v 0.04994334 0.01929133 -0.02851218
v 0.04264246 0.00023187 -0.02851218
v 0.02539960 0.02452933 -0.03378608
v 0.02806860 0.00011162 -0.03378607
v 0.02501170 0.01001122 -0.02853014
v 0.04499861 0.02304445 -0.03539904
v 0.04883517 0.00094642 -0.02851218
v 0.03909741 0.02495052 -0.02851217
v 0.02533484 0.02445458 -0.03378608
v 0.02998297 0.02494886 -0.03378608
v 0.02541976 0.02427209 -0.02851216
v 0.02748557 0.02444923 -0.02851216
v 0.04240952 0.02126596 -0.02851217
v 0.04399059 0.01844130 -0.03539909
v 0.04423005 0.02415433 -0.03539907
v 0.04421211 0.00195245 -0.03539913
v 0.02836576 0.02480608 -0.02851216
v 0.04988596 0.00408565 -0.02852903
v 0.04489308 0.02242134 -0.03539904
v 0.04590068 0.02461903 -0.03539899
v 0.04233956 0.02479274 -0.02851217
v 0.02705890 0.02473340 -0.03378607
v 0.04387435 0.01255122 -0.03539911
v 0.02505439 0.02401581 -0.02853014
v 0.04984034 0.02441857 -0.02852891
v 0.02514306 0.02412689 -0.03378608
v 0.04507447 0.00001325 -0.03539909
v 0.03675020 0.02204590 -0.02851217
v 0.04963411 0.00316993 -0.02852904
v 0.04996861 0.00906559 -0.02852903
v 0.03824123 0.00003968 -0.02852947
v 0.02647169 0.00115339 -0.02851217
v 0.04923195 0.00248939 -0.02851218
v 0.04901165 0.00696007 -0.02851218
v 0.04622193 0.02484474 -0.03539898
v 0.04407621 0.00265308 -0.03539913
v 0.03726806 0.01571097 -0.02851217
v 0.04677815 0.02492770 -0.02851218
v 0.04824200 0.00856233 -0.03539893
v 0.03269642 0.02497488 -0.03378608
v 0.04411265 0.00990165 -0.03539911
v 0.04925450 0.00323993 -0.02851218
v 0.02502971 0.01114414 -0.02851217
v 0.04992806 0.01174287 -0.03539884
v 0.04117629 0.02461544 -0.02851217
v 0.04994085 0.00618653 -0.03539885
v 0.04922026 0.00127075 -0.03539890
v 0.04737936 0.01715348 -0.03539894
v 0.04433757 0.01652248 -0.03539908
v 0.04987904 0.02368201 -0.03539881
v 0.04410853 0.00509928 -0.03539912
v 0.02517211 0.00149546 -0.02853012
v 0.04841631 0.00003939 -0.02851218
v 0.04782810 0.01250986 -0.03539894
v 0.04991807 0.01045603 -0.02851218
v 0.02532715 0.00131241 -0.03378607
v 0.02759434 0.00020399 -0.02851217
v 0.04862216 0.00275344 -0.03539892
v 0.02822161 0.02499966 -0.02852999
v 0.02581312 0.00064634 -0.02853010
v 0.03806134 0.00563015 -0.02851217
v 0.02528810 0.00088400 -0.02853012
v 0.04390642 0.01509947 -0.03539910
v 0.03066280 0.02496470 -0.03378608
v 0.02502281 0.01162347 -0.03378608
v 0.02971971 0.02499424 -0.02851217
v 0.02623098 0.02493530 -0.02851216
v 0.04370055 0.00008934 -0.02851218
v 0.04935846 0.02391145 -0.02851218
v 0.03136609 0.00001620 -0.03378608
v 0.04834517 0.00019636 -0.03539894
v 0.03747694 0.00039625 -0.02851218
v 0.04400314 0.01011792 -0.03539911
v 0.04141137 0.02242346 -0.02851217
v 0.04979773 0.00731205 -0.02851218
v 0.02528548 0.00219432 -0.02851217
v 0.04394385 0.01119773 -0.03539911
v 0.04702301 0.01206643 -0.02851218
v 0.03380609 0.00008861 -0.02852974
v 0.03640489 0.02484627 -0.02851216
f 52 76 63
f 3 76 52
f 9 62 65
f 62 67 65
f 57 48 10
f 48 57 81
f 81 57 67
f 75 62 9
f 75 9 32
f 20 19 31
f 67 57 61
f 9 65 61
f 61 65 67
f 41 21 61
f 61 21 32
f 32 9 61
f 37 67 62
f 37 81 67
f 84 36 62
f 62 75 84
f 84 75 36
f 31 19 68
f 68 28 31
f 20 11 24
f 40 20 8
f 45 43 40
f 40 53 59
f 55 53 40
f 55 59 53
f 55 52 63
f 72 8 29
f 64 15 72
f 3 52 51
f 35 3 51
f 70 57 10
f 70 61 57
f 31 28 70
f 70 28 41
f 41 61 70
f 62 36 58
f 58 76 3
f 32 76 58
f 58 75 32
f 36 75 58
f 4 18 1
f 25 20 40
f 25 11 20
f 20 24 54
f 27 15 40
f 40 8 27
f 27 72 15
f 8 72 27
f 14 20 31
f 14 8 20
f 31 29 14
f 29 8 14
f 69 15 64
f 64 45 69
f 40 15 69
f 69 45 40
f 40 43 30
f 30 55 40
f 44 55 63
f 59 55 44
f 10 48 2
f 2 70 10
f 2 29 31
f 31 70 2
f 64 72 71
f 71 45 64
f 43 45 71
f 49 51 52
f 52 55 49
f 35 51 49
f 74 30 43
f 1 30 74
f 74 4 1
f 55 30 6
f 35 49 6
f 6 49 55
f 6 30 1
f 1 18 80
f 16 72 29
f 29 2 16
f 13 71 72
f 43 71 13
f 13 85 33
f 81 37 77
f 77 7 81
f 77 37 62
f 81 7 66
f 62 58 73
f 73 77 62
f 7 77 73
f 58 66 73
f 73 66 7
f 24 56 46
f 46 54 24
f 60 6 1
f 1 80 60
f 35 6 60
f 23 3 35
f 23 34 3
f 35 60 23
f 23 60 80
f 50 13 4
f 4 74 50
f 18 4 79
f 4 13 79
f 79 33 18
f 79 13 33
f 72 16 17
f 17 16 2
f 33 85 17
f 17 2 48
f 48 81 17
f 81 66 17
f 18 33 42
f 42 66 18
f 33 17 42
f 42 17 66
f 83 80 18
f 18 66 83
f 78 46 56
f 26 74 43
f 26 50 74
f 43 13 26
f 13 50 26
f 72 17 22
f 22 17 85
f 22 13 72
f 85 13 22
f 12 66 58
f 34 23 12
f 12 58 3
f 3 34 12
f 38 23 80
f 80 47 38
f 38 12 23
f 38 47 66
f 66 12 38
f 80 83 5
f 5 83 66
f 82 56 41
f 82 78 56
f 41 28 82
f 66 47 39
f 39 5 66
f 39 47 80
f 80 5 39
f 56 76 32
f 56 44 63
f 32 21 56
f 63 76 56
f 56 21 41
f 56 25 40
f 56 24 11
f 40 59 56
f 11 25 56
f 59 44 56
f 20 54 82
f 28 68 82
f 82 68 19
f 19 20 82
f 54 46 82
f 46 78 82

