# https://github.com/mikedh/trimesh
v -0.01883898 -0.01331759 -0.03540212
v -0.00006454 -0.00745213 -0.03378607
v -0.01733167 -0.01904753 -0.03540207
v -0.01446599 -0.02168856 -0.03540194
v -0.01433902 -0.02246512 -0.03540194
v -0.02489609 -0.01493070 -0.02851214
v -0.00304143 -0.02495690 -0.03378606
v -0.00871649 -0.02463377 -0.02851216
v -0.00530355 -0.02488090 -0.02851216
v -0.01222579 -0.02440927 -0.03540183
v -0.01406466 -0.00640693 -0.03540188
v -0.02372006 -0.00036583 -0.02851214
v -0.01467261 -0.02494906 -0.02853188
v -0.00208609 -0.02485603 -0.02851217
v -0.00017920 -0.00079673 -0.02851216
v -0.01150492 -0.00031413 -0.03513599
v -0.00941811 -0.02486043 -0.03399810
v -0.02409702 -0.02166043 -0.02851215
v -0.00038488 -0.02344346 -0.02853124
v -0.00020081 -0.02427087 -0.03378607
v -0.00794783 -0.00407550 -0.02851215
v -0.01641406 -0.00032486 -0.03540197
v -0.02272558 -0.00085963 -0.03540227
v -0.02486939 -0.02281710 -0.03540242
v -0.02187808 -0.00160631 -0.03540223
v -0.00592378 -0.00036755 -0.03378606
v -0.00777278 -0.00294575 -0.02851215
v -0.02475223 -0.01815122 -0.02851214
v -0.02490772 -0.00614963 -0.02851214
v -0.00106011 -0.00038581 -0.02853123
v -0.00192538 -0.02477608 -0.03378606
v -0.01407379 -0.01054424 -0.03540189
v -0.01419079 -0.01328302 -0.03540191
v -0.02436939 -0.00007678 -0.02853231
v -0.02496658 -0.01968342 -0.02853233
v -0.00997521 -0.02495837 -0.02853172
v -0.00643052 -0.02476750 -0.02851216
v -0.02464854 -0.00133207 -0.02851214
v -0.00831355 -0.00005632 -0.02851215
v -0.01881492 -0.00034752 -0.03540208
v -0.02087977 -0.00544670 -0.03540220
v -0.02495034 -0.00468350 -0.03540237
v -0.01232938 -0.00272727 -0.03540178
v -0.02022216 -0.02484417 -0.02851215
v -0.02434127 -0.02100201 -0.02851215
v -0.00664282 -0.00013291 -0.02851215
v -0.00311519 -0.00074150 -0.03378606
v -0.01216917 -0.01209843 -0.03539119
v -0.01284086 -0.00243291 -0.03540181
v -0.02183235 -0.02460038 -0.03540228
v -0.01434670 -0.01806475 -0.03540193
v -0.02179457 -0.00009374 -0.02851214
v -0.00813408 -0.02215276 -0.02851216
v -0.02130666 -0.00408955 -0.03540221
v -0.00000460 -0.01214748 -0.02851217
v -0.00796154 -0.01856078 -0.02851216
v -0.01576189 -0.02444620 -0.03540201
v -0.00002822 -0.02261993 -0.02851217
v -0.02471938 -0.00014671 -0.03540235
v -0.02260337 -0.02482378 -0.02851215
v -0.00796224 -0.01136333 -0.02851216
v -0.01565647 -0.00044565 -0.03540194
v -0.00770602 -0.02396742 -0.02851216
v -0.02226059 -0.00123749 -0.03540225
v -0.00013800 -0.00336164 -0.03378607
v -0.01506320 -0.02266036 -0.03540197
v -0.00687296 -0.00028940 -0.03378606
v -0.00715225 -0.02452970 -0.02851216
v -0.02480562 -0.02485328 -0.02853232
v -0.01414911 -0.00389281 -0.03540188
v -0.00037531 -0.00212967 -0.03378607
v -0.02283089 -0.02472019 -0.02851215
v -0.02482801 -0.02453981 -0.03540242
v -0.00118402 -0.02437666 -0.02851217
v -0.01366834 -0.00456916 -0.03540186
v -0.02497561 -0.01168738 -0.03540239
v -0.01439725 -0.01946430 -0.03540193
f 38 59 29
f 34 59 38
f 42 59 76
f 42 29 59
f 76 35 42
f 42 35 29
f 7 14 36
f 73 50 69
f 69 35 73
f 20 19 74
f 74 14 20
f 74 15 14
f 2 15 55
f 30 15 47
f 13 7 36
f 69 7 13
f 13 60 69
f 13 44 60
f 69 50 17
f 17 7 69
f 50 7 17
f 20 14 31
f 14 7 31
f 10 7 50
f 10 31 7
f 20 31 10
f 10 2 20
f 24 35 76
f 24 73 35
f 36 14 9
f 9 13 36
f 44 13 9
f 14 15 9
f 45 28 69
f 6 35 69
f 69 28 6
f 29 35 6
f 58 74 19
f 58 19 20
f 58 2 55
f 20 2 58
f 55 15 58
f 15 74 58
f 40 59 22
f 54 25 41
f 73 25 54
f 71 47 15
f 30 67 39
f 59 34 39
f 39 67 59
f 38 29 39
f 29 6 39
f 39 6 28
f 28 45 39
f 50 73 57
f 57 10 50
f 2 10 48
f 69 60 72
f 59 40 23
f 76 59 23
f 23 24 76
f 30 47 26
f 26 67 30
f 22 59 16
f 59 67 16
f 67 26 16
f 16 26 47
f 47 71 16
f 15 2 65
f 65 71 15
f 46 15 30
f 30 39 46
f 52 39 34
f 3 57 73
f 4 10 5
f 5 57 4
f 10 57 5
f 4 57 66
f 18 45 69
f 69 72 18
f 18 39 45
f 18 72 39
f 64 40 25
f 64 23 40
f 64 25 73
f 73 24 64
f 24 23 64
f 2 48 43
f 43 65 2
f 43 16 71
f 71 65 43
f 43 48 10
f 12 34 38
f 12 52 34
f 38 39 12
f 39 52 12
f 60 44 8
f 8 53 60
f 21 72 60
f 39 72 21
f 73 54 1
f 1 3 73
f 1 54 41
f 41 57 1
f 57 3 1
f 66 33 51
f 33 32 51
f 75 32 11
f 10 51 75
f 75 51 32
f 60 53 56
f 27 46 39
f 39 21 27
f 15 46 27
f 27 21 15
f 37 9 15
f 15 68 37
f 37 68 8
f 44 9 37
f 37 8 44
f 4 66 77
f 66 51 77
f 77 10 4
f 77 51 10
f 70 75 11
f 61 21 60
f 60 56 61
f 15 21 61
f 61 56 15
f 63 56 53
f 53 8 63
f 8 68 63
f 63 68 15
f 15 56 63
f 22 16 62
f 16 43 62
f 75 70 62
f 49 62 43
f 75 62 49
f 49 43 10
f 10 75 49
f 41 25 62
f 62 40 22
f 11 32 62
f 25 40 62
f 62 57 41
f 62 66 57
f 62 33 66
f 62 70 11
f 62 32 33

