# https://github.com/mikedh/trimesh
v -0.02404532 0.00049096 -0.01500006
v -0.00044585 0.02476416 -0.00015540
v -0.00981118 0.00007947 -0.01500006
v -0.02477950 0.00092094 -0.01396577
v -0.00013685 0.02439651 -0.01400064
v -0.02172250 0.00005141 -0.01500006
v -0.00571115 0.02498228 -0.00238205
v -0.00490370 0.02490899 -0.01500007
v -0.02113642 0.02498037 -0.00395718
v -0.00138030 0.02499339 -0.00226256
v -0.02481267 0.02385518 -0.01023496
v -0.00028554 0.00785412 -0.01500006
v -0.01993049 0.00603490 -0.00041443
v -0.01918102 0.00000117 -0.00598348
v -0.00055844 0.00143180 -0.01500006
v -0.01588388 0.02472035 -0.00124766
v -0.00743255 0.02498894 -0.00257166
v -0.01215195 0.02462098 -0.00016647
v -0.02343539 0.02481212 -0.00327006
v -0.02457498 0.02428933 -0.01500007
v -0.02021846 0.02497810 -0.00381866
v -0.02465953 0.02477887 -0.01500006
v -0.02474124 0.02327656 -0.01500006
v -0.00750007 0.02467052 -0.00009152
v -0.00831857 0.02499175 -0.01500006
v -0.02442940 0.02489961 -0.01500007
v -0.01542784 0.02493735 -0.00283737
v -0.02261484 0.01404713 -0.00030404
v -0.02489959 0.00057467 -0.00596820
v -0.02267043 0.02429475 -0.00006648
v -0.00372053 0.02498577 -0.01500007
v -0.00008427 0.02318363 -0.01500005
v -0.00003033 0.02498230 -0.00207108
v -0.01736663 0.02496507 -0.01500007
v -0.02490196 0.01399482 -0.00129482
v -0.02495397 0.02436617 -0.00100392
v -0.00049202 0.02479492 -0.01500007
v -0.01710709 0.02456214 -0.00035827
v -0.02496505 0.01064592 -0.01500006
v -0.02488241 0.00193483 -0.01500006
v -0.02499728 0.00479264 -0.00368408
v -0.00063460 0.00035048 -0.01500006
v -0.02401350 0.02422940 -0.00004047
v -0.00261930 0.02486521 -0.00116985
v -0.01849999 0.01234256 -0.00020872
v -0.01552448 0.02464881 -0.00067851
v -0.00855702 0.02499607 -0.00272088
v -0.02270604 0.00600326 -0.00080095
v -0.00004941 0.01756394 -0.01500006
v -0.02481621 0.00577793 -0.00180470
f 2 42 33
f 2 13 42
f 42 13 14
f 33 32 5
f 37 5 32
f 33 5 37
f 43 50 48
f 43 13 45
f 13 2 45
f 35 50 43
f 43 36 35
f 41 50 35
f 35 36 41
f 8 42 20
f 42 40 20
f 41 36 39
f 39 40 41
f 39 20 40
f 31 42 8
f 31 37 42
f 33 37 31
f 8 20 31
f 49 37 32
f 49 32 33
f 28 13 43
f 43 48 28
f 28 48 13
f 43 45 24
f 24 45 2
f 29 6 14
f 41 40 29
f 29 48 50
f 29 50 41
f 29 14 13
f 13 48 29
f 25 9 47
f 42 14 3
f 3 6 42
f 14 6 3
f 22 20 23
f 20 39 23
f 26 20 22
f 26 31 20
f 26 19 9
f 22 36 26
f 36 19 26
f 12 49 33
f 37 49 12
f 6 29 1
f 1 40 42
f 42 6 1
f 38 19 36
f 9 19 38
f 27 24 2
f 2 47 27
f 33 31 10
f 10 7 33
f 47 7 10
f 10 31 25
f 25 47 10
f 11 39 36
f 11 23 39
f 11 36 22
f 22 23 11
f 25 31 34
f 31 26 34
f 34 9 25
f 34 26 9
f 33 42 15
f 15 12 33
f 42 37 15
f 37 12 15
f 4 29 40
f 40 1 4
f 4 1 29
f 30 36 43
f 30 38 36
f 43 24 30
f 44 2 33
f 33 7 44
f 44 7 2
f 17 47 2
f 2 7 17
f 17 7 47
f 21 47 9
f 9 27 21
f 21 27 47
f 16 27 9
f 24 27 16
f 18 30 24
f 38 30 18
f 38 18 46
f 9 38 46
f 46 16 9
f 24 16 46
f 46 18 24

