# https://github.com/mikedh/trimesh
v 0.08794507 -0.00021910 -0.00719364
v 0.09996486 -0.00009871 -0.00886671
v 0.09132497 -0.01183544 -0.00936218
v 0.09221446 -0.00915681 -0.01966696
v 0.09917451 -0.01454379 -0.01448310
v 0.08443093 -0.00052446 -0.01977995
v 0.07793267 -0.00437551 -0.00674906
v 0.09677154 -0.01018640 -0.00825666
v 0.09924552 -0.01143227 -0.01985598
v 0.09691003 -0.00019426 -0.01975187
v 0.09854455 -0.01441211 -0.01371153
v 0.07839010 -0.00870619 -0.01790518
v 0.09074997 -0.01097425 -0.01880550
v 0.07660708 -0.00342798 -0.00658107
v 0.08740800 -0.00447363 -0.01991483
v 0.07573721 -0.00361377 -0.01900038
v 0.07867848 -0.00010626 -0.00650565
v 0.09679359 -0.01378344 -0.01145880
v 0.08000946 -0.00978963 -0.00901136
v 0.07722923 -0.00316995 -0.00657871
v 0.08654636 -0.00875024 -0.01913314
v 0.08372182 -0.01142165 -0.01300527
v 0.07520981 -0.00130968 -0.00704752
v 0.09149694 -0.01218247 -0.01785543
v 0.09691364 -0.01371336 -0.01726617
v 0.09881266 -0.00435058 -0.02067253
v 0.09008381 -0.01084865 -0.01876008
v 0.09116239 -0.01192966 -0.00951245
v 0.09249823 -0.01181896 -0.01855690
v 0.07686837 -0.00915298 -0.01704710
v 0.07791882 -0.01002305 -0.01548873
v 0.09916189 -0.00243192 -0.02048900
v 0.08244114 -0.00956466 -0.00838183
v 0.09834609 -0.01403616 -0.01725116
v 0.07746191 -0.00657983 -0.00718241
v 0.08492838 -0.01154735 -0.01543048
v 0.07766519 -0.00594569 -0.01885751
v 0.07747770 -0.00806704 -0.00776008
v 0.07518912 -0.00530209 -0.01832080
v 0.07536901 -0.00923556 -0.01040304
v 0.07535611 -0.00816011 -0.01690235
v 0.09903757 -0.01452820 -0.01451591
v 0.08942098 -0.01133824 -0.00912487
v 0.09845312 -0.01427723 -0.01629127
v 0.08939057 -0.00996340 -0.00822695
v 0.07880948 -0.00952558 -0.00890800
v 0.07626337 -0.00150676 -0.01929127
v 0.09966329 -0.01444632 -0.01241084
v 0.09895060 -0.01016901 -0.02014305
v 0.09240423 -0.00250810 -0.00734926
v 0.09070610 -0.01250798 -0.01092196
v 0.08922607 -0.00012403 -0.00734600
v 0.09654768 -0.01357244 -0.01742249
v 0.08801876 -0.00046026 -0.01990451
v 0.09642232 -0.01243501 -0.00925072
v 0.09241721 -0.01253736 -0.01762082
v 0.07747264 -0.00338189 -0.00661013
v 0.07851632 -0.00078092 -0.00649015
v 0.07734297 -0.00714523 -0.01849752
v 0.08165841 -0.00156226 -0.00668029
v 0.09645618 -0.00060635 -0.00808420
v 0.09447433 -0.00587621 -0.02033990
v 0.09668967 -0.00461684 -0.00758047
v 0.08930340 -0.00129166 -0.00718473
v 0.09756144 -0.01124908 -0.00857934
v 0.08706923 -0.01211541 -0.01348589
v 0.09949898 -0.00513474 -0.00775065
v 0.07715321 -0.00574487 -0.01884757
v 0.09374174 -0.00007071 -0.00791286
v 0.09189719 -0.01272007 -0.01089288
v 0.09779915 -0.01368640 -0.01061668
v 0.09182971 -0.01137204 -0.01875335
v 0.07536237 -0.00104827 -0.01877097
v 0.08897252 -0.01142665 -0.01802649
v 0.08733380 -0.01108567 -0.01793903
v 0.09720749 -0.00635813 -0.02050868
v 0.07650825 -0.00462902 -0.00674733
v 0.09913217 -0.00033942 -0.01975514
v 0.09551199 -0.00768184 -0.00776828
v 0.07969791 -0.00035936 -0.00656400
v 0.09998955 -0.00060729 -0.00859711
v 0.07821350 -0.01032192 -0.01301564
v 0.09877045 -0.00853418 -0.02040908
v 0.09868309 -0.01344326 -0.01854920
v 0.08869786 -0.00151356 -0.00712960
v 0.07520011 -0.00026085 -0.00700174
v 0.07500818 -0.00909477 -0.01557768
v 0.07536809 -0.00841286 -0.01668468
v 0.07514749 -0.00437128 -0.00737494
v 0.08856020 -0.00036079 -0.00722923
v 0.09999757 -0.00139367 -0.00827499
v 0.07729930 -0.00253995 -0.01929984
v 0.08157411 -0.00079627 -0.00667554
v 0.08129443 -0.01026013 -0.00945070
v 0.09392265 -0.01344258 -0.01535135
v 0.07543017 -0.00109916 -0.01882493
v 0.09340399 -0.01062069 -0.00840459
v 0.07830738 -0.00479730 -0.01912745
v 0.09920253 -0.01307648 -0.00948087
v 0.07544276 -0.00395188 -0.01874280
v 0.07641013 -0.00385160 -0.00671665
v 0.07677302 -0.00611574 -0.00705577
v 0.08315768 -0.00977309 -0.00847431
v 0.09979799 -0.00325994 -0.00784580
v 0.09922500 -0.01378295 -0.01032902
v 0.09769071 -0.01295134 -0.01879574
v 0.09823625 -0.01420698 -0.01644027
v 0.09161594 -0.00226303 -0.02021787
v 0.09722598 -0.00460187 -0.02057942
v 0.09956621 -0.01435922 -0.01666698
v 0.08538083 -0.01094733 -0.00944457
v 0.08449578 -0.00013394 -0.01974177
v 0.09941449 -0.00106816 -0.00831959
v 0.09101711 -0.00013033 -0.00753544
v 0.09938715 -0.00238748 -0.00795527
v 0.09807980 -0.01042193 -0.00832773
v 0.09226555 -0.00059926 -0.01999946
v 0.09809277 -0.01232848 -0.01932223
v 0.09461841 -0.00974477 -0.00812648
v 0.09952712 -0.00669202 -0.02065454
v 0.09933575 -0.01384288 -0.01820551
v 0.07734398 -0.00824230 -0.00787586
v 0.07719123 -0.00737184 -0.00745212
v 0.08657221 -0.00009447 -0.00708171
v 0.08277448 -0.00684503 -0.01919109
v 0.08061462 -0.00792647 -0.00759720
v 0.09077326 -0.01272025 -0.01584495
v 0.08069464 -0.00472044 -0.00688400
v 0.09529904 -0.00090951 -0.00783367
v 0.07798531 -0.01025042 -0.01361102
v 0.08592425 -0.01071886 -0.00901185
v 0.09736764 -0.00933557 -0.02015131
v 0.09668281 -0.01156680 -0.00872021
v 0.07789605 -0.01020418 -0.01414101
v 0.07535473 -0.00432452 -0.01863419
v 0.07527710 -0.00888662 -0.00954538
v 0.07807222 -0.01020203 -0.01461868
v 0.09327488 -0.00063167 -0.00766629
v 0.07955279 -0.00945962 -0.01753182
v 0.08229341 -0.01055681 -0.00971154
v 0.08620892 -0.00999254 -0.01857090
v 0.09916560 -0.01455349 -0.01424155
v 0.08889219 -0.01054319 -0.00854069
v 0.08425517 -0.01096902 -0.01696837
v 0.09111690 -0.00029289 -0.01991377
v 0.09405173 -0.01211715 -0.01866545
v 0.09876314 -0.01372731 -0.01817072
v 0.07533625 -0.00853113 -0.00905157
v 0.07771076 -0.00939248 -0.01702967
v 0.07742954 -0.01009938 -0.01273406
v 0.09883261 -0.01275662 -0.00927604
v 0.09801513 -0.01385159 -0.01093869
v 0.07573465 -0.00202146 -0.01907980
v 0.09190590 -0.00845883 -0.01978320
v 0.09983728 -0.00871749 -0.00804896
v 0.09321524 -0.01314122 -0.01636162
v 0.08139458 -0.00915013 -0.01819517
v 0.09578303 -0.00805433 -0.02021393
v 0.09990193 -0.00742591 -0.00794177
v 0.07758103 -0.01011080 -0.01185903
v 0.09286115 -0.01236339 -0.00974146
v 0.07611946 -0.00056571 -0.01929892
v 0.09965437 -0.01438208 -0.01655574
v 0.09851273 -0.00894312 -0.00804764
v 0.09918313 -0.01285049 -0.01920216
v 0.07617578 -0.00010772 -0.00682220
v 0.09664430 -0.01083302 -0.01972591
v 0.09393544 -0.00067101 -0.00773575
v 0.08987642 -0.00054143 -0.00732997
v 0.09612910 -0.00006278 -0.00827926
v 0.07655775 -0.00262290 -0.00655809
v 0.07683988 -0.00448928 -0.01904092
v 0.07860492 -0.00735919 -0.00742332
v 0.07668795 -0.00368015 -0.00661545
v 0.07982084 -0.00134169 -0.01953786
v 0.09982970 -0.01251002 -0.01951054
v 0.08279811 -0.00965485 -0.01813431
v 0.08408306 -0.00780847 -0.00754788
v 0.09011582 -0.01076692 -0.01881446
v 0.07649981 -0.00598043 -0.00705158
v 0.09931002 -0.00899145 -0.00807751
v 0.09419705 -0.01344397 -0.01586198
v 0.07816400 -0.00988668 -0.00990187
v 0.08083212 -0.00655966 -0.01905243
v 0.09628730 -0.01343063 -0.01762666
v 0.07529541 -0.00236762 -0.01873701
v 0.09974129 -0.01381879 -0.01024416
v 0.07933677 -0.01043625 -0.01496566
v 0.09898020 -0.01075924 -0.02001678
v 0.09889969 -0.00722033 -0.02056457
v 0.09720590 -0.01347941 -0.01796207
v 0.08452790 -0.01126429 -0.01634229
v 0.08532302 -0.01017722 -0.01827854
v 0.09277252 -0.01217992 -0.00951214
v 0.07783909 -0.00939161 -0.00895458
v 0.07619860 -0.00404743 -0.01904280
v 0.08099353 -0.00826302 -0.00772402
v 0.09398285 -0.01305104 -0.01727479
v 0.09996880 -0.01453442 -0.01485142
v 0.07873974 -0.01005280 -0.01009422
v 0.07864366 -0.01001927 -0.01004034
v 0.09868261 -0.00815745 -0.00794527
v 0.09081358 -0.01280102 -0.01527806
v 0.09910452 -0.01438391 -0.01228218
v 0.07614389 -0.00192305 -0.01925630
v 0.07670534 -0.00765776 -0.00770452
v 0.08896773 -0.01238697 -0.01553373
v 0.09922887 -0.00417057 -0.02068401
v 0.07895856 -0.00932647 -0.01750930
v 0.08693490 -0.01171622 -0.01659392
v 0.07929150 -0.00908686 -0.00832948
v 0.07673011 -0.00730028 -0.01836283
v 0.09909431 -0.01209319 -0.01958923
v 0.09588239 -0.01320520 -0.01789289
v 0.09443762 -0.01360697 -0.01392409
v 0.08438933 -0.00956640 -0.01849418
v 0.08298946 -0.00706623 -0.00735391
v 0.08397281 -0.00996046 -0.00854119
v 0.08158883 -0.01031105 -0.01702309
v 0.09317702 -0.01180558 -0.00907740
v 0.07549288 -0.00768235 -0.01742230
v 0.09792235 -0.00263454 -0.00776074
v 0.07517028 -0.00948118 -0.01351009
v 0.07719962 -0.00874770 -0.00832192
v 0.08844546 -0.01227366 -0.01555388
v 0.07682258 -0.00806091 -0.00792883
v 0.09952645 -0.01258602 -0.00911534
v 0.09922690 -0.01044432 -0.00835000
v 0.09262092 -0.01166728 -0.01870735
v 0.08288928 -0.01126151 -0.01310201
v 0.09272494 -0.00569653 -0.02022154
v 0.07838284 -0.00707116 -0.01865229
v 0.09705778 -0.00214336 -0.02039209
v 0.07524205 -0.00946044 -0.01176262
v 0.08148542 -0.00811827 -0.00765535
v 0.09806347 -0.01413392 -0.01198787
v 0.07763237 -0.00971245 -0.00969088
v 0.09435219 -0.01282661 -0.01008954
v 0.07667624 -0.00572886 -0.01880169
v 0.08885751 -0.00118961 -0.00715793
v 0.08760874 -0.00139658 -0.00706019
v 0.08159249 -0.00333799 -0.01956353
v 0.09961926 -0.01447545 -0.01585995
v 0.09300521 -0.00019788 -0.00776623
v 0.09886387 -0.01446472 -0.01535733
v 0.09734987 -0.01394403 -0.01169267
v 0.09910339 -0.01264954 -0.00917621
v 0.09559736 -0.00013492 -0.01977110
v 0.07593297 -0.00417399 -0.01900339
v 0.09528424 -0.01027990 -0.00827643
v 0.08668362 -0.00004865 -0.01980197
v 0.07586662 -0.00030991 -0.01910181
v 0.07886331 -0.00873767 -0.01797624
v 0.09970470 -0.00075926 -0.01994669
v 0.08628966 -0.01168883 -0.01616076
v 0.09917327 -0.00870582 -0.02042117
v 0.09204971 -0.00123271 -0.00742092
v 0.08090481 -0.01053986 -0.01608954
v 0.08685820 -0.01146807 -0.01718034
v 0.08648292 -0.00073712 -0.00701311
v 0.08582102 -0.01057786 -0.00887765
v 0.07841051 -0.01007150 -0.01042151
v 0.09820016 -0.00942800 -0.02021394
v 0.09732799 -0.01300874 -0.01864670
v 0.08100405 -0.00914056 -0.00819918
v 0.07522030 -0.00407217 -0.01856067
v 0.07818624 -0.00419465 -0.00673235
v 0.09469672 -0.01359064 -0.01547897
v 0.07915994 -0.00916934 -0.00842137
v 0.07775251 -0.00872250 -0.00819848
v 0.07582973 -0.00046052 -0.01908371
v 0.08390281 -0.01029054 -0.00886930
v 0.09957631 -0.00274650 -0.00790165
v 0.09992517 -0.01115195 -0.02001802
v 0.08022599 -0.00637429 -0.00715787
v 0.09933921 -0.01448976 -0.01274466
v 0.08554258 -0.01036512 -0.01817770
v 0.07734217 -0.00916688 -0.00878771
v 0.07995748 -0.00917904 -0.00833059
v 0.07746225 -0.01011194 -0.01408329
v 0.09881806 -0.01285086 -0.00934524
v 0.07918318 -0.00014704 -0.00653697
v 0.08218468 -0.00121324 -0.00670664
v 0.09729742 -0.01397978 -0.01655411
v 0.08390788 -0.00946658 -0.00820215
v 0.08698476 -0.01170444 -0.01052633
v 0.07712037 -0.00150735 -0.00644158
v 0.08980434 -0.00327870 -0.02013548
v 0.07651879 -0.00840677 -0.01772238
v 0.09977276 -0.00332953 -0.00783838
v 0.09791947 -0.01332764 -0.01845415
v 0.09878417 -0.01349532 -0.01000354
v 0.09322338 -0.01275681 -0.01756218
v 0.09298329 -0.01260524 -0.01011216
v 0.08814493 -0.00105221 -0.01997270
v 0.09891312 -0.01448233 -0.01513034
v 0.07955788 -0.00990341 -0.00933694
v 0.08893909 -0.00868088 -0.00780873
v 0.09749050 -0.00882041 -0.00799975
v 0.09986937 -0.00596516 -0.02071280
v 0.09699202 -0.00875522 -0.00797556
v 0.07638330 -0.00607834 -0.00715310
v 0.08164796 -0.00769058 -0.01885931
v 0.07626461 -0.00612556 -0.01866045
v 0.09432491 -0.01242172 -0.00951735
v 0.09596626 -0.01075935 -0.00842409
v 0.09784072 -0.00179175 -0.02032835
v 0.08428424 -0.01127793 -0.01605623
v 0.09961895 -0.00094198 -0.00839840
v 0.07723572 -0.00986506 -0.01546940
v 0.07817184 -0.00011637 -0.00647274
v 0.07706185 -0.00915486 -0.01713769
v 0.08842090 -0.00061923 -0.01993763
v 0.07702526 -0.00073228 -0.00640621
v 0.09994009 -0.01452633 -0.01339730
v 0.07611989 -0.00513259 -0.01885876
v 0.09926930 -0.01442461 -0.01233574
v 0.07810307 -0.01023191 -0.01195037
v 0.07661170 -0.00389870 -0.00664236
v 0.07702608 -0.00744454 -0.01834803
v 0.09545931 -0.01324591 -0.01055779
v 0.08329952 -0.01073686 -0.00971870
v 0.09846405 -0.00959976 -0.00815703
v 0.09969811 -0.00952146 -0.02033816
v 0.07804398 -0.00890745 -0.01766851
v 0.07524734 -0.00531202 -0.01836511
v 0.07659347 -0.00678443 -0.00728926
v 0.09042574 -0.00033706 -0.01991837
v 0.09976193 -0.01445886 -0.01251342
v 0.07649277 -0.00533152 -0.01885890
v 0.09947174 -0.00141976 -0.02022115
v 0.08286908 -0.00042199 -0.01969489
v 0.09274051 -0.01131438 -0.00876566
v 0.08976760 -0.01255790 -0.01212872
v 0.08419634 -0.01064592 -0.00927496
v 0.09024077 -0.01219557 -0.01729291
v 0.08719392 -0.01044744 -0.00860849
v 0.09983850 -0.01448955 -0.01574969
v 0.07979074 -0.00991701 -0.01696796
v 0.09332667 -0.00053952 -0.00769969
v 0.08136528 -0.01059610 -0.01623130
v 0.09996655 -0.00823398 -0.02054097
v 0.09936169 -0.00173043 -0.00809211
v 0.09971471 -0.00595248 -0.00781821
v 0.07775300 -0.00967729 -0.01652541
v 0.09850631 -0.01433526 -0.01594865
v 0.09116056 -0.01177589 -0.00932183
v 0.08448214 -0.00228484 -0.01981694
v 0.08618908 -0.00079953 -0.01987387
v 0.09732449 -0.01334184 -0.01823601
v 0.09945446 -0.01245555 -0.00905124
v 0.09724857 -0.01302052 -0.01861483
v 0.07691857 -0.00112267 -0.00641587
v 0.08640641 -0.00770064 -0.00754617
v 0.09923005 -0.01014625 -0.00828656
v 0.09971339 -0.00976762 -0.00821443
v 0.09819198 -0.01426748 -0.01596742
v 0.09594831 -0.01207634 -0.00903272
v 0.09610883 -0.00015168 -0.01976273
v 0.08598886 -0.00010175 -0.01979584
v 0.09819046 -0.01049726 -0.01999458
v 0.09272139 -0.00375634 -0.02030988
v 0.07768709 -0.00860935 -0.00810852
v 0.09740833 -0.01385896 -0.01130237
v 0.08576617 -0.01071793 -0.00904022
v 0.08123984 -0.00017271 -0.01960016
v 0.09027582 -0.00984548 -0.00816583
v 0.07536656 -0.00307212 -0.01875912
v 0.08060783 -0.00981814 -0.00891546
v 0.07687965 -0.00188237 -0.00645777
v 0.09986661 -0.01200140 -0.01972816
v 0.08108246 -0.00817580 -0.01862466
v 0.09894578 -0.01088009 -0.01997996
v 0.07735139 -0.00562840 -0.00695146
v 0.09459207 -0.01300165 -0.01035121
v 0.09977286 -0.01427348 -0.01707985
v 0.09556934 -0.01379990 -0.01508712
v 0.09305136 -0.01136114 -0.01899012
v 0.09856105 -0.01435873 -0.01583950
v 0.07511044 -0.00398982 -0.01848381
v 0.07552625 -0.00545111 -0.01855405
v 0.07606219 -0.00290584 -0.01916896
v 0.09945853 -0.01071502 -0.00841368
v 0.09949732 -0.01297897 -0.01917576
v 0.07972535 -0.00860679 -0.00794430
v 0.07602351 -0.00450863 -0.01896073
v 0.09867667 -0.00491136 -0.02066632
v 0.09113177 -0.00211580 -0.02018665
v 0.09871451 -0.01411919 -0.01724729
v 0.08103518 -0.01076061 -0.01137126
v 0.08387166 -0.00805567 -0.01901583
v 0.09902398 -0.01117431 -0.00853964
v 0.09486910 -0.01358751 -0.01583428
v 0.09692934 -0.01171529 -0.00878187
v 0.09959107 -0.01380695 -0.01026637
v 0.07810427 -0.01025565 -0.01226429
v 0.08984942 -0.01134178 -0.01834239
v 0.09785658 -0.01411614 -0.01648876
v 0.09821508 -0.00683828 -0.02054772
v 0.08482631 -0.00974576 -0.01846792
v 0.07636104 -0.00015005 -0.00671362
v 0.09981132 -0.00384713 -0.02068191
v 0.08897526 -0.01196024 -0.01023948
v 0.09611374 -0.01359947 -0.01707013
v 0.09862032 -0.01125909 -0.01983572
v 0.08594260 -0.00013191 -0.01979862
v 0.08101403 -0.00670671 -0.00724549
v 0.07798164 -0.00897271 -0.01759338
v 0.07536848 -0.00577237 -0.00767708
v 0.08898831 -0.01098020 -0.00884519
v 0.07645902 -0.00771663 -0.01813952
v 0.09447812 -0.01176274 -0.01900849
v 0.07603272 -0.00780920 -0.01781926
v 0.09859676 -0.00533585 -0.00772067
v 0.07749267 -0.00779896 -0.00762351
v 0.09709684 -0.01328877 -0.01009470
v 0.09925995 -0.01452023 -0.01509597
v 0.08611100 -0.01068348 -0.00894366
v 0.07812634 -0.00964653 -0.00931751
v 0.07905885 -0.00619988 -0.01894684
v 0.07992411 -0.00909947 -0.00826586
v 0.09649626 -0.01073917 -0.00841323
v 0.09869014 -0.01414419 -0.01712965
v 0.09206735 -0.01154685 -0.00898430
v 0.07894110 -0.00827082 -0.00779859
v 0.07976576 -0.00990643 -0.00928023
v 0.07746299 -0.00391694 -0.00667198
v 0.09772076 -0.00001893 -0.00855843
v 0.07863366 -0.00608761 -0.00707093
v 0.09195495 -0.01305577 -0.01293009
v 0.09852053 -0.01168869 -0.00872418
v 0.07865772 -0.00977814 -0.00940074
v 0.09966901 -0.00648174 -0.02067458
v 0.07777851 -0.00970392 -0.01647105
v 0.09087949 -0.00903271 -0.00791386
v 0.07838779 -0.01024513 -0.01489236
v 0.09872951 -0.01296019 -0.01903042
v 0.09986530 -0.00029128 -0.00874039
v 0.07979753 -0.00677799 -0.00724870
v 0.08207651 -0.01026134 -0.00921797
v 0.09779748 -0.01192918 -0.00885353
v 0.08980736 -0.00046958 -0.00733719
v 0.07967271 -0.00012303 -0.00657229
v 0.09992591 -0.01442328 -0.01223394
v 0.07769095 -0.00459182 -0.01910123
v 0.09467748 -0.01190657 -0.01895311
v 0.08944596 -0.01164571 -0.00949867
v 0.09958192 -0.01397309 -0.01800195
v 0.09877801 -0.01402361 -0.01103467
v 0.09773483 -0.01394749 -0.01708677
v 0.09871666 -0.01332975 -0.01868898
v 0.09997508 -0.00084476 -0.00848879
v 0.07506560 -0.00810701 -0.00866549
v 0.09481186 -0.01052765 -0.00835527
v 0.09479214 -0.00035637 -0.00794853
v 0.08278191 -0.00949627 -0.00830249
v 0.08322171 -0.01100624 -0.01623826
v 0.09589983 -0.01305179 -0.01815285
v 0.08596721 -0.01102639 -0.01757744
v 0.08066234 -0.00930708 -0.01794599
v 0.08731405 -0.01055248 -0.00867461
v 0.09895007 -0.01315552 -0.00958921
v 0.08595174 -0.01068020 -0.01798918
v 0.07774519 -0.00927222 -0.00878978
v 0.09168222 -0.01243731 -0.01748478
v 0.09940183 -0.01077732 -0.02005913
v 0.09592168 -0.00926333 -0.02002546
v 0.09009625 -0.00171388 -0.02011168
v 0.07581047 -0.00697645 -0.01819368
v 0.07634555 -0.00003523 -0.01932051
v 0.09600650 -0.01152508 -0.00872370
v 0.07829894 -0.01019603 -0.01505129
v 0.08599080 -0.01025659 -0.00857399
v 0.09616664 -0.00057616 -0.01995043
v 0.09789009 -0.01428674 -0.01379660
v 0.09634270 -0.01359851 -0.01109196
v 0.09840166 -0.00172876 -0.02030889
v 0.08002350 -0.01053435 -0.01119646
v 0.07813542 -0.00028791 -0.00646545
v 0.09937355 -0.00461031 -0.02070666
v 0.07865860 -0.01012942 -0.01574310
v 0.09238245 -0.00850214 -0.00781915
v 0.09886907 -0.01383792 -0.01054939
v 0.09787214 -0.00811615 -0.00790631
v 0.08319639 -0.01051059 -0.01734543
v 0.07956096 -0.00502312 -0.01920685
v 0.07836760 -0.00658927 -0.00718800
v 0.07664896 -0.00214409 -0.00649904
v 0.09512349 -0.01291885 -0.01806869
v 0.09382785 -0.01257362 -0.01811002
v 0.07944884 -0.00760725 -0.00749973
v 0.09921330 -0.00447488 -0.02069673
v 0.09678316 -0.01353382 -0.01764933
v 0.07888458 -0.00900977 -0.01778147
v 0.07686930 -0.00226048 -0.00648683
v 0.09737283 -0.01419866 -0.01419092
v 0.09905039 -0.01360351 -0.01009615
v 0.07575693 -0.00035457 -0.01902253
v 0.08274023 -0.01056662 -0.00956552
v 0.08968488 -0.00052364 -0.00731361
v 0.07827551 -0.01000576 -0.01022965
v 0.07930387 -0.01042416 -0.01147622
v 0.09794552 -0.01339479 -0.01005069
v 0.09877960 -0.01439762 -0.01278445
v 0.09921049 -0.01379461 -0.01823499
v 0.08449568 -0.00009712 -0.00690775
v 0.08705738 -0.01086422 -0.00898870
v 0.07883921 -0.00130717 -0.01947283
v 0.09236290 -0.00912161 -0.00795186
v 0.09515804 -0.00126210 -0.02018119
v 0.07662001 -0.00368299 -0.00661366
v 0.09543599 -0.01279647 -0.00977219
v 0.09692847 -0.00142374 -0.00788703
v 0.07758834 -0.00681836 -0.00725427
v 0.07515123 -0.00948822 -0.01319294
v 0.08252999 -0.00848500 -0.00777810
v 0.07731370 -0.00077910 -0.00642309
v 0.07808567 -0.00711204 -0.00734598
v 0.07559326 -0.00324449 -0.01892695
v 0.09988488 -0.01065562 -0.02013494
v 0.09981361 -0.00415066 -0.00781539
v 0.07782852 -0.00389442 -0.00668097
v 0.09575441 -0.01280620 -0.00971810
v 0.09833098 -0.01386371 -0.01770088
v 0.09323351 -0.01024053 -0.00827170
v 0.07858601 -0.01012981 -0.01054790
v 0.08025870 -0.00740427 -0.01877770
v 0.07720345 -0.00744487 -0.01837260
v 0.09821691 -0.01085690 -0.00844782
v 0.09587575 -0.00020262 -0.01979434
v 0.08925488 -0.01198755 -0.01018071
v 0.09078450 -0.00009721 -0.01985620
v 0.09417107 -0.01313928 -0.01715281
v 0.07655851 -0.00224085 -0.01926636
v 0.07808513 -0.00961544 -0.00926872
v 0.09292684 -0.01163003 -0.01879486
v 0.09621783 -0.00789915 -0.00781881
v 0.08884748 -0.00673270 -0.01978676
v 0.09355578 -0.01146974 -0.01901645
v 0.09884512 -0.00524028 -0.02067579
v 0.07658343 -0.00145367 -0.01931585
v 0.08603216 -0.00863987 -0.01910415
v 0.08419974 -0.00001273 -0.00689154
v 0.07852697 -0.01001719 -0.01606855
v 0.07613642 -0.00047745 -0.01930141
v 0.09847019 -0.01350426 -0.01840113
v 0.09907007 -0.01447315 -0.01295282
v 0.09969931 -0.00338905 -0.02063453
f 470 428 251
f 389 376 110
f 163 110 376
f 110 163 243
f 438 81 2
f 32 331 548
f 87 223 515
f 87 515 453
f 110 243 245
f 356 383 227
f 227 187 356
f 142 276 547
f 86 498 73
f 470 498 86
f 87 453 86
f 252 498 470
f 448 376 389
f 448 121 384
f 384 121 451
f 99 187 227
f 73 153 186
f 91 199 342
f 342 81 91
f 91 159 444
f 444 199 91
f 338 163 376
f 376 199 338
f 338 243 163
f 248 251 428
f 54 251 32
f 402 342 300
f 2 81 402
f 81 342 402
f 310 223 87
f 87 345 310
f 82 515 280
f 280 515 223
f 223 310 280
f 136 40 237
f 417 245 243
f 243 338 417
f 417 199 142
f 417 338 199
f 155 356 187
f 155 444 159
f 187 444 155
f 89 86 453
f 237 40 501
f 496 215 82
f 150 515 82
f 82 160 150
f 150 160 515
f 545 252 470
f 96 153 73
f 384 451 437
f 106 437 451
f 247 99 227
f 247 122 456
f 524 448 389
f 121 448 524
f 384 437 229
f 229 437 460
f 87 88 289
f 411 289 413
f 176 448 384
f 376 448 176
f 176 199 376
f 176 371 199
f 300 342 433
f 433 342 120
f 199 444 315
f 315 276 142
f 142 199 315
f 366 26 470
f 332 26 366
f 10 2 78
f 32 251 328
f 251 145 328
f 251 248 532
f 532 145 251
f 331 145 532
f 32 548 233
f 233 54 32
f 388 402 208
f 254 548 331
f 254 402 548
f 2 402 254
f 78 2 254
f 82 280 130
f 436 310 472
f 234 453 515
f 234 136 453
f 40 136 234
f 515 160 234
f 234 501 40
f 160 501 234
f 224 226 453
f 122 226 224
f 5 417 142
f 351 392 431
f 227 383 351
f 383 392 351
f 431 392 65
f 227 351 425
f 202 155 159
f 344 370 159
f 543 428 470
f 50 67 290
f 86 314 401
f 91 81 452
f 244 114 91
f 81 438 170
f 2 428 170
f 170 438 2
f 123 102 327
f 514 102 123
f 422 392 514
f 449 444 187
f 317 547 276
f 444 449 317
f 262 501 160
f 501 262 246
f 246 262 478
f 82 215 66
f 66 230 82
f 142 496 42
f 42 5 142
f 42 496 82
f 417 5 42
f 142 547 11
f 547 318 396
f 82 230 396
f 396 160 82
f 396 318 160
f 488 14 370
f 77 155 7
f 101 89 77
f 77 14 101
f 86 89 23
f 89 101 23
f 23 101 14
f 99 247 281
f 385 122 143
f 122 247 143
f 456 122 265
f 187 440 416
f 535 195 237
f 535 440 195
f 460 177 193
f 193 229 460
f 47 433 120
f 300 433 47
f 324 342 520
f 41 221 413
f 41 289 88
f 413 289 41
f 41 88 87
f 289 411 12
f 460 289 12
f 12 177 460
f 469 411 413
f 413 221 469
f 9 371 372
f 372 405 9
f 372 371 213
f 371 176 213
f 213 176 411
f 120 342 190
f 190 399 120
f 329 444 276
f 276 315 329
f 329 315 444
f 2 10 359
f 359 428 2
f 359 248 428
f 359 10 78
f 78 254 359
f 359 254 248
f 477 331 32
f 32 307 477
f 477 307 331
f 117 145 331
f 331 307 117
f 117 328 145
f 32 328 117
f 208 26 108
f 108 388 208
f 548 402 468
f 402 388 468
f 468 406 548
f 474 532 248
f 331 532 474
f 474 254 331
f 377 245 82
f 82 130 377
f 245 377 134
f 134 130 280
f 134 377 130
f 36 398 107
f 237 195 278
f 278 136 237
f 453 136 148
f 148 224 453
f 136 278 148
f 148 278 224
f 363 224 270
f 122 224 363
f 363 265 122
f 421 265 363
f 415 425 471
f 471 425 351
f 454 392 422
f 38 425 415
f 123 122 38
f 38 415 123
f 38 122 385
f 227 425 38
f 97 516 431
f 301 77 356
f 181 155 77
f 77 164 181
f 356 155 181
f 181 164 356
f 370 14 495
f 159 370 495
f 495 202 159
f 155 202 484
f 370 344 414
f 414 344 67
f 290 67 521
f 67 344 521
f 521 344 159
f 521 159 91
f 114 543 124
f 166 543 470
f 17 543 166
f 470 86 166
f 86 401 166
f 370 414 287
f 85 50 290
f 91 452 309
f 455 244 91
f 69 543 114
f 114 244 69
f 428 543 69
f 69 170 428
f 244 455 69
f 81 170 69
f 69 452 81
f 69 309 452
f 91 114 340
f 340 129 91
f 104 521 91
f 290 521 104
f 257 124 104
f 104 124 543
f 453 327 302
f 206 122 123
f 123 327 206
f 206 226 122
f 453 226 206
f 206 327 453
f 383 356 228
f 356 77 374
f 77 102 374
f 529 392 383
f 102 514 35
f 35 514 392
f 71 449 483
f 483 187 105
f 483 449 187
f 152 449 71
f 547 317 504
f 390 246 478
f 236 246 390
f 390 504 317
f 276 444 48
f 48 317 276
f 444 317 48
f 478 262 526
f 526 262 160
f 364 501 18
f 18 246 364
f 501 246 18
f 82 245 296
f 296 42 82
f 245 417 296
f 417 42 296
f 215 496 475
f 475 496 142
f 142 11 475
f 22 396 230
f 14 488 171
f 171 23 14
f 171 488 86
f 86 23 171
f 451 139 352
f 84 451 121
f 460 437 146
f 146 29 460
f 437 106 146
f 106 29 146
f 99 281 55
f 333 143 247
f 333 247 227
f 227 38 333
f 385 143 333
f 105 187 395
f 187 416 395
f 187 99 462
f 464 278 195
f 224 278 464
f 345 524 53
f 524 25 53
f 53 25 533
f 157 411 216
f 216 400 157
f 96 271 162
f 153 96 162
f 162 271 252
f 252 545 162
f 175 348 540
f 470 26 175
f 541 540 300
f 300 47 541
f 541 175 540
f 47 162 541
f 342 324 256
f 494 289 460
f 494 325 289
f 87 86 380
f 380 86 73
f 73 186 380
f 304 212 411
f 411 469 304
f 411 212 320
f 320 213 411
f 382 190 342
f 399 190 382
f 382 231 399
f 540 387 480
f 300 540 480
f 480 402 300
f 208 402 480
f 288 362 387
f 540 348 288
f 288 387 540
f 348 175 288
f 288 175 362
f 510 307 32
f 32 117 510
f 510 117 307
f 548 406 313
f 313 406 54
f 313 233 548
f 54 233 313
f 251 54 360
f 54 406 360
f 470 251 360
f 332 366 6
f 6 468 388
f 388 108 6
f 6 26 332
f 6 108 26
f 248 254 530
f 530 474 248
f 254 474 530
f 107 398 423
f 389 110 423
f 434 310 345
f 434 544 310
f 472 310 31
f 310 544 31
f 31 36 472
f 398 36 31
f 245 134 95
f 137 134 280
f 137 280 310
f 310 436 137
f 436 95 137
f 137 95 134
f 44 423 110
f 107 423 44
f 441 351 431
f 441 471 351
f 431 516 45
f 306 65 392
f 392 454 306
f 299 164 77
f 77 301 299
f 356 164 299
f 299 301 356
f 20 495 14
f 202 495 20
f 20 484 202
f 114 124 52
f 442 513 52
f 17 166 311
f 311 166 401
f 311 401 314
f 314 479 311
f 67 283 63
f 63 414 67
f 63 287 414
f 290 104 240
f 240 104 543
f 58 479 314
f 283 479 58
f 58 63 283
f 309 69 61
f 61 69 455
f 61 455 91
f 409 89 453
f 453 302 409
f 409 302 89
f 180 327 102
f 180 302 327
f 180 102 77
f 77 89 180
f 89 302 180
f 429 217 275
f 429 374 102
f 275 374 429
f 392 529 250
f 250 35 392
f 102 35 487
f 237 501 183
f 183 152 237
f 449 152 183
f 183 286 449
f 364 449 476
f 476 286 364
f 449 286 476
f 236 390 204
f 204 390 317
f 204 246 236
f 364 246 204
f 204 449 364
f 204 317 449
f 502 390 478
f 318 390 502
f 160 318 502
f 478 526 502
f 502 526 160
f 547 504 334
f 504 390 334
f 334 318 547
f 334 390 318
f 430 22 547
f 547 396 430
f 396 22 430
f 155 484 537
f 537 7 155
f 537 128 7
f 264 106 451
f 451 352 264
f 209 352 139
f 291 84 546
f 505 350 546
f 505 84 121
f 546 84 505
f 358 247 456
f 456 265 473
f 285 38 385
f 385 333 285
f 285 333 38
f 105 440 111
f 111 238 105
f 294 483 105
f 105 238 294
f 71 499 419
f 419 535 237
f 321 152 71
f 195 440 19
f 410 218 99
f 218 410 220
f 99 55 220
f 220 410 99
f 34 524 389
f 34 25 524
f 533 25 210
f 210 434 533
f 144 336 345
f 293 336 144
f 345 259 144
f 185 336 293
f 345 336 185
f 345 149 339
f 149 147 191
f 191 147 121
f 121 524 191
f 253 12 411
f 411 157 253
f 72 446 536
f 536 193 72
f 72 193 177
f 165 176 384
f 536 446 165
f 508 541 162
f 175 541 508
f 508 162 545
f 508 545 470
f 470 175 508
f 120 399 76
f 76 47 120
f 534 382 205
f 205 162 47
f 153 162 205
f 205 16 153
f 205 382 16
f 158 256 324
f 29 325 277
f 325 494 277
f 460 29 277
f 277 494 460
f 39 380 135
f 39 469 221
f 221 41 39
f 39 41 87
f 87 380 39
f 519 186 153
f 153 16 519
f 100 16 135
f 100 519 16
f 372 213 528
f 213 320 528
f 528 212 372
f 528 320 212
f 387 362 109
f 109 480 387
f 362 480 109
f 362 175 492
f 492 480 362
f 492 175 26
f 492 26 208
f 208 480 492
f 349 6 406
f 468 6 349
f 112 6 366
f 406 6 112
f 112 360 406
f 112 366 470
f 470 360 112
f 255 308 258
f 255 31 308
f 284 423 398
f 198 53 533
f 533 434 198
f 345 53 198
f 198 434 345
f 481 544 258
f 481 31 544
f 258 308 481
f 308 31 481
f 357 44 346
f 188 436 472
f 472 36 188
f 127 36 107
f 133 441 431
f 431 45 133
f 415 471 133
f 197 45 516
f 123 415 197
f 197 516 123
f 415 133 197
f 197 133 45
f 173 454 422
f 14 484 57
f 57 20 14
f 484 20 57
f 91 129 343
f 169 513 442
f 169 500 513
f 513 500 273
f 273 104 91
f 91 343 273
f 1 52 124
f 353 63 314
f 287 63 353
f 370 287 353
f 353 488 370
f 353 314 86
f 86 488 353
f 17 282 443
f 443 543 17
f 443 282 543
f 260 282 85
f 85 240 260
f 93 479 283
f 93 283 67
f 64 85 290
f 290 240 64
f 64 240 85
f 63 58 60
f 91 309 113
f 113 61 91
f 309 61 113
f 482 323 356
f 356 374 482
f 482 374 275
f 355 228 356
f 356 323 355
f 509 217 102
f 102 116 509
f 275 217 509
f 509 116 383
f 509 354 275
f 228 354 509
f 383 228 509
f 383 116 8
f 102 435 119
f 119 116 102
f 435 8 119
f 119 8 116
f 102 217 407
f 407 429 102
f 217 429 407
f 35 250 178
f 178 487 35
f 439 435 102
f 102 487 439
f 439 487 435
f 71 483 375
f 375 499 71
f 286 200 51
f 51 501 364
f 51 200 501
f 286 183 201
f 201 200 286
f 201 183 501
f 501 200 201
f 79 484 14
f 14 537 79
f 79 537 484
f 14 174 522
f 522 537 14
f 128 537 522
f 7 128 267
f 128 522 267
f 511 174 14
f 352 209 463
f 408 325 29
f 289 325 408
f 350 505 489
f 458 350 149
f 149 459 458
f 312 459 149
f 312 291 546
f 312 408 209
f 312 209 139
f 289 408 312
f 139 75 312
f 84 291 312
f 151 281 247
f 247 358 151
f 337 358 456
f 456 473 337
f 440 535 426
f 535 297 426
f 426 111 440
f 94 297 535
f 238 297 94
f 94 294 238
f 535 419 94
f 94 419 499
f 322 140 71
f 71 419 322
f 152 321 403
f 237 152 403
f 403 140 237
f 99 218 269
f 269 464 272
f 270 224 269
f 224 464 269
f 335 440 187
f 335 19 440
f 46 464 195
f 195 19 46
f 462 43 305
f 305 523 462
f 421 218 103
f 218 220 103
f 424 220 55
f 423 450 404
f 389 423 404
f 544 434 341
f 434 210 341
f 192 210 25
f 192 341 210
f 192 404 450
f 258 544 192
f 544 341 192
f 149 259 219
f 219 339 149
f 219 259 345
f 345 339 219
f 56 259 149
f 56 191 259
f 465 191 293
f 259 191 465
f 293 144 465
f 465 144 259
f 493 185 293
f 293 191 493
f 493 191 524
f 493 524 345
f 345 185 493
f 412 165 446
f 62 76 399
f 15 76 62
f 98 386 172
f 324 98 486
f 486 158 324
f 98 172 486
f 256 158 83
f 196 382 83
f 83 158 196
f 342 256 83
f 83 382 342
f 135 16 381
f 469 39 381
f 316 304 381
f 381 304 469
f 368 380 186
f 186 519 368
f 368 519 380
f 135 380 266
f 266 100 135
f 380 519 266
f 519 100 266
f 132 386 98
f 212 304 59
f 304 232 59
f 59 405 372
f 372 212 59
f 231 382 92
f 92 382 534
f 406 468 295
f 295 349 406
f 468 349 295
f 156 255 258
f 258 284 156
f 156 284 398
f 398 31 156
f 31 255 156
f 203 95 436
f 436 188 203
f 182 44 357
f 471 441 394
f 394 133 471
f 441 133 394
f 422 514 518
f 518 173 422
f 518 514 123
f 123 173 518
f 126 525 454
f 454 173 126
f 367 525 126
f 126 97 367
f 123 516 126
f 114 343 168
f 168 343 129
f 138 343 114
f 513 343 138
f 114 52 138
f 138 52 513
f 257 104 222
f 222 273 257
f 104 273 222
f 115 343 513
f 513 273 115
f 115 273 343
f 90 124 257
f 90 1 124
f 257 273 90
f 90 273 500
f 543 282 506
f 282 260 506
f 506 240 543
f 506 260 240
f 85 282 241
f 50 85 241
f 67 50 241
f 241 93 67
f 479 93 80
f 80 241 282
f 93 241 80
f 314 63 517
f 63 60 517
f 517 58 314
f 517 60 58
f 435 487 298
f 487 178 298
f 364 286 70
f 70 51 364
f 286 51 70
f 427 522 174
f 427 267 522
f 7 267 319
f 77 7 319
f 319 14 77
f 319 511 14
f 397 463 209
f 397 408 29
f 209 408 397
f 106 463 397
f 397 29 106
f 485 147 149
f 490 312 546
f 459 312 490
f 84 312 74
f 74 312 75
f 74 75 139
f 87 289 30
f 289 312 30
f 30 345 87
f 30 149 345
f 30 312 149
f 140 322 432
f 432 322 419
f 237 140 432
f 432 419 237
f 140 403 531
f 531 403 321
f 261 269 272
f 261 43 462
f 261 462 99
f 99 269 261
f 270 269 211
f 211 363 270
f 421 363 211
f 211 269 218
f 447 28 464
f 447 46 187
f 464 46 447
f 187 462 292
f 462 523 292
f 464 28 369
f 272 464 369
f 369 365 272
f 369 28 523
f 347 43 272
f 347 305 43
f 523 305 3
f 55 473 461
f 461 424 55
f 258 192 457
f 457 192 450
f 149 191 214
f 214 56 149
f 191 56 214
f 27 412 446
f 176 165 118
f 165 412 118
f 216 411 118
f 411 176 118
f 249 172 386
f 249 382 196
f 16 382 249
f 249 381 16
f 249 386 316
f 316 381 249
f 196 158 538
f 538 486 196
f 158 486 538
f 196 486 445
f 445 486 172
f 326 39 135
f 135 381 326
f 326 381 39
f 263 98 324
f 263 132 98
f 467 132 263
f 467 68 154
f 316 386 154
f 386 132 154
f 154 132 467
f 239 304 316
f 316 68 239
f 239 37 304
f 239 68 37
f 125 68 467
f 231 92 242
f 242 92 534
f 534 205 242
f 242 205 47
f 47 76 242
f 242 76 15
f 95 203 268
f 188 182 207
f 225 188 36
f 225 182 188
f 36 127 225
f 97 126 235
f 516 97 235
f 491 173 123
f 123 126 491
f 491 126 173
f 24 485 149
f 149 350 24
f 350 489 24
f 272 43 418
f 418 261 272
f 279 218 421
f 421 211 279
f 279 211 218
f 523 28 512
f 512 292 523
f 523 3 194
f 194 3 365
f 272 365 131
f 365 3 131
f 131 347 272
f 33 461 473
f 33 265 421
f 33 473 265
f 467 263 49
f 49 324 520
f 49 263 324
f 405 59 167
f 330 68 316
f 316 154 330
f 330 154 68
f 420 125 184
f 68 125 420
f 37 68 420
f 95 268 379
f 245 95 379
f 110 245 379
f 379 44 110
f 379 346 44
f 393 182 357
f 393 207 182
f 43 261 507
f 507 418 43
f 261 418 507
f 161 447 187
f 187 503 161
f 187 292 497
f 497 503 187
f 539 118 412
f 539 378 118
f 141 27 400
f 141 400 216
f 304 37 466
f 466 189 304
f 527 232 304
f 216 118 179
f 179 141 216
f 118 378 179
f 412 27 13
f 27 141 13
f 520 466 361
f 304 189 391
f 391 527 304
f 189 373 391
f 391 373 527
f 527 373 303
f 405 167 274
f 274 9 405
f 274 466 520
f 189 466 274
f 274 373 189
f 371 9 274
f 520 342 274
f 199 371 274
f 274 342 199
f 184 361 4
f 4 420 184
f 37 420 4
f 4 466 37
f 4 361 466
f 232 527 21
f 21 59 232
f 21 167 59
f 527 303 542
f 542 21 527
f 498 252 271
f 73 498 271
f 271 96 73
f 22 66 215
f 215 475 22
f 230 66 22
f 22 11 547
f 22 475 11
f 395 416 440
f 395 440 105
f 431 65 306
f 306 97 431
f 306 525 367
f 367 97 306
f 454 525 306
f 165 193 536
f 384 229 165
f 229 193 165
f 355 482 275
f 275 354 355
f 355 354 228
f 323 482 355
f 463 264 352
f 106 264 463
f 337 473 55
f 337 55 281
f 281 151 337
f 337 151 358
f 426 297 238
f 238 111 426
f 94 375 483
f 483 294 94
f 499 375 94
f 19 335 46
f 46 335 187
f 192 34 389
f 25 34 192
f 389 404 192
f 129 340 168
f 168 340 114
f 90 169 442
f 442 52 90
f 500 169 90
f 52 1 90
f 80 311 479
f 17 311 80
f 80 282 17
f 298 178 250
f 298 529 383
f 383 8 298
f 298 250 529
f 298 8 435
f 319 427 174
f 174 511 319
f 267 427 319
f 350 458 490
f 546 350 490
f 490 458 459
f 451 84 74
f 74 139 451
f 531 321 71
f 71 140 531
f 423 284 457
f 457 450 423
f 457 284 258
f 27 157 400
f 177 12 27
f 12 253 27
f 27 72 177
f 27 253 157
f 446 72 27
f 172 249 445
f 445 249 196
f 399 231 242
f 242 62 399
f 15 62 242
f 225 127 107
f 107 44 225
f 44 182 225
f 235 126 516
f 24 489 505
f 147 485 24
f 24 505 121
f 121 147 24
f 365 369 194
f 194 369 523
f 131 3 305
f 305 347 131
f 33 103 220
f 421 103 33
f 220 424 33
f 424 461 33
f 346 379 393
f 357 346 393
f 393 203 188
f 393 268 203
f 188 207 393
f 393 379 268
f 497 512 28
f 28 447 497
f 292 512 497
f 447 161 497
f 497 161 503
f 13 179 378
f 13 539 412
f 378 539 13
f 141 179 13
f 361 49 520
f 361 125 467
f 184 125 361
f 467 49 361
f 542 274 167
f 542 303 373
f 373 274 542
f 167 21 542

