# https://github.com/mikedh/trimesh
v -0.02272913 0.01694589 -0.10312344
v -0.02263619 0.02396844 -0.11233103
v -0.02523182 0.00645778 -0.11488795
v -0.02380768 0.01438564 -0.10844898
v -0.02374447 0.00011069 -0.10362235
v -0.02329504 0.00127447 -0.10068954
v -0.01869021 0.03315248 -0.11780950
v -0.02455572 0.01440033 -0.11412126
v -0.01805328 0.03415057 -0.12186829
v -0.01581339 0.03595018 -0.11324626
v -0.02605263 0.00358147 -0.12357579
v -0.02432965 0.00551911 -0.10791799
v -0.00428466 0.00519526 -0.12412407
v -0.02405110 0.01435666 -0.11012926
v -0.02285043 0.01162459 -0.10033697
v -0.01373863 0.03753777 -0.11249522
v -0.00142742 0.04166086 -0.12308375
v -0.00015183 0.02985716 -0.10136234
v -0.01881542 0.03081519 -0.10329652
v -0.02382387 0.02010268 -0.11512328
v -0.01627338 0.03459512 -0.10327244
v -0.02034680 0.03066151 -0.11705858
v -0.02474978 0.00340634 -0.11069571
v -0.01523305 0.03608964 -0.10754187
v -0.02586546 0.00610978 -0.12016018
v -0.02451600 0.00005689 -0.10896270
v -0.02223510 0.01846648 -0.10123469
v -0.02581740 0.00169051 -0.12386256
v -0.02103855 0.02850815 -0.11237669
v -0.01826642 0.03399932 -0.12321497
v -0.01282223 0.03772451 -0.10139096
v -0.00504511 0.04036173 -0.12387344
v -0.01490290 0.03675564 -0.11619722
v -0.02544419 0.00573929 -0.11640778
v -0.02308078 0.02528318 -0.12059755
v -0.02374990 0.02313312 -0.12075694
v -0.01164192 0.03878645 -0.10956070
v -0.01601323 0.03594136 -0.11946939
v -0.00302785 0.04188043 -0.11430044
v -0.00316330 0.04063273 -0.12389041
v -0.00177468 0.04275856 -0.10038644
v -0.01026385 0.03952125 -0.11307754
v -0.02273263 0.01277787 -0.10013952
v -0.02376779 0.02305343 -0.12072061
v -0.02190874 0.02757108 -0.12388748
v -0.00238373 0.04258287 -0.10064352
v -0.01724954 0.03457794 -0.11441120
v -0.02442831 0.00341296 -0.10829376
v -0.02035814 0.02969146 -0.11140685
v -0.02516128 0.00117196 -0.11357206
v -0.02550056 0.01197439 -0.12023993
v -0.02204330 0.02790779 -0.12362384
v -0.00045322 0.04050822 -0.12389084
v -0.02339360 0.02319369 -0.12388726
v -0.01531605 0.03645539 -0.11752209
v -0.02504586 0.00385028 -0.11296504
v -0.01963896 0.03125151 -0.11285105
v -0.00776946 0.04019053 -0.12213780
v -0.00282645 0.00056598 -0.12412407
v -0.02307366 0.00009763 -0.12388759
v -0.00972961 0.03978142 -0.11005673
v -0.02322920 0.02544430 -0.12265317
v -0.01917961 0.03243101 -0.12372598
v -0.02135942 0.02927705 -0.12361948
v -0.01696710 0.03472091 -0.11202778
v -0.00540967 0.04158765 -0.10102232
v -0.02068159 0.03084681 -0.12257792
v -0.01873039 0.03309467 -0.12364106
v -0.02292935 0.02405990 -0.11543261
v -0.02216439 0.02683006 -0.11716651
v -0.02019712 0.03052508 -0.11422064
v -0.01494331 0.00254034 -0.10015449
v -0.02050879 0.02558005 -0.10009280
v -0.02348845 0.02388218 -0.12366896
v -0.02592960 0.01075263 -0.12300468
v -0.00037825 0.00204188 -0.12412407
v -0.02064282 0.02664065 -0.10355301
v -0.01096210 0.03899343 -0.10091992
v -0.01089253 0.03857919 -0.12375191
v -0.02214712 0.02707384 -0.11797191
v -0.02415894 0.01386952 -0.11064360
v -0.01807772 0.03377324 -0.11608474
v -0.02532131 0.00702305 -0.11591358
v -0.02323232 0.00325057 -0.10040313
v -0.02521129 0.01462921 -0.11993832
v -0.02585762 0.01076818 -0.12240739
v -0.02615762 0.00543206 -0.12253522
v -0.00365940 0.04214825 -0.10177932
v -0.01704462 0.03457596 -0.11132226
v -0.01485718 0.00040050 -0.10132422
v -0.01456755 0.03694107 -0.11281131
v -0.00244579 0.00037181 -0.12412407
v -0.02025317 0.03050126 -0.11473476
v -0.00068706 0.00944677 -0.12412407
v -0.02461885 0.02009294 -0.12217042
v -0.02478584 0.01977034 -0.12312196
v -0.02444250 0.00472238 -0.10860064
v -0.02285033 0.01851053 -0.10556432
v -0.02312999 0.01158207 -0.10225069
v -0.01440116 0.03713781 -0.11709470
v -0.01168369 0.03863745 -0.12305095
v -0.01200775 0.03862942 -0.11392967
v -0.02237334 0.02709250 -0.12040143
v -0.02288051 0.02277866 -0.11211467
v -0.01036231 0.03933371 -0.10020713
v -0.02206848 0.02606452 -0.11312945
v -0.02482545 0.00282820 -0.11119807
v -0.00890845 0.03946682 -0.12365525
v -0.00381414 0.04126512 -0.12212749
v -0.02310998 0.00744280 -0.10039092
v -0.02068904 0.03050371 -0.12010737
v -0.00950394 0.03988779 -0.10811650
v -0.01504624 0.03672130 -0.12190765
v -0.01925262 0.03247182 -0.11831633
v -0.01804076 0.03408254 -0.12348269
v -0.01918985 0.03239205 -0.11651215
v -0.02621516 0.00203391 -0.12263969
v -0.00418648 0.04134294 -0.11928158
v -0.02400029 0.00387693 -0.10551158
v -0.00003830 0.03621316 -0.12389093
v -0.01483838 0.00056723 -0.10067066
v -0.02349140 0.00318702 -0.10208645
v -0.02358088 0.01562056 -0.10777983
v -0.01980034 0.03065169 -0.11081926
v -0.02230069 0.02367379 -0.10928587
v -0.02382457 0.01701178 -0.11089601
v -0.02325874 0.02094191 -0.11180071
v -0.02334277 0.02008740 -0.11093435
v -0.02479373 0.00590157 -0.11134138
v -0.02216266 0.02525316 -0.11159484
v -0.02510025 0.01306907 -0.11768089
v -0.00588101 0.04066843 -0.12312735
v -0.02430355 0.01525906 -0.11276430
v -0.02301932 0.02605264 -0.12292555
v -0.01746596 0.03412829 -0.11150078
v -0.02562461 0.00631206 -0.11813423
v -0.01870036 0.03273448 -0.11326574
v -0.01998195 0.03184196 -0.12215554
v -0.01543458 0.03646009 -0.12237559
v -0.02319226 0.01425200 -0.10411419
v -0.01867358 0.03327042 -0.12357074
v -0.02397145 0.00003219 -0.10518638
v -0.02305349 0.02544655 -0.12083324
v -0.02567294 0.00614739 -0.11848978
v -0.02222777 0.02623439 -0.11542029
v -0.01574484 0.03599306 -0.11273965
v -0.00025742 0.00487061 -0.12412407
v -0.02332636 0.00016906 -0.10084991
v -0.02367384 0.02418167 -0.12337742
v -0.02069675 0.02636063 -0.10322999
v -0.02541190 0.00630363 -0.11626864
v -0.02550317 0.00766912 -0.11775203
v -0.02338747 0.01435716 -0.10552288
v -0.00204277 0.01144935 -0.12412407
v -0.01919617 0.03273882 -0.12059365
v -0.02297979 0.01645287 -0.10438616
v -0.01226932 0.03810085 -0.10071997
v -0.00001166 0.03105964 -0.10714892
v -0.01372611 0.03721153 -0.12367642
v -0.02277132 0.01399923 -0.10106272
v -0.01100106 0.03915160 -0.11346311
v -0.00280045 0.00962091 -0.12412407
v -0.01564162 0.03603706 -0.11206215
v -0.02442623 0.02117077 -0.12257943
v -0.01811874 0.03133598 -0.10000895
v -0.02559659 0.01429534 -0.12296548
v -0.00070383 0.04188868 -0.12151179
v -0.02433613 0.00465654 -0.10782533
v -0.02325416 0.02531886 -0.12240633
v -0.02380057 0.00744067 -0.10491051
v -0.02120437 0.03002116 -0.12318101
v -0.01993283 0.02876132 -0.10438762
v -0.00773742 0.04068196 -0.10048709
v -0.02333323 0.02475443 -0.12354446
v -0.02502323 0.01721879 -0.12359385
v -0.01458892 0.03635669 -0.10331564
v -0.01843291 0.03300023 -0.11237437
v -0.02105970 0.02840321 -0.11205203
v -0.01622705 0.03553038 -0.11271555
v -0.01533283 0.03651611 -0.12091178
v -0.01896222 0.03243525 -0.12388792
v -0.02360079 0.00320036 -0.10280298
v -0.02454010 0.01029091 -0.11161224
v -0.02313653 0.01450001 -0.10390604
v -0.02115227 0.02829259 -0.11255540
v -0.02183867 0.02606156 -0.11105916
v -0.01823670 0.03334209 -0.11336890
v -0.00972857 0.03974691 -0.11400972
v -0.02476234 0.00704613 -0.11157199
v -0.02531003 0.00505475 -0.11516719
v -0.02180895 0.02857877 -0.12116751
v -0.02307649 0.00945357 -0.10080329
v -0.02117806 0.02940245 -0.11867920
v -0.02520086 0.01506979 -0.12028231
v -0.02586064 0.01142174 -0.12282852
v -0.00235244 0.01145409 -0.12412407
v -0.02376833 0.01343282 -0.10767193
v -0.01489012 0.00010991 -0.10760407
v -0.01319512 0.03765190 -0.10551363
v -0.02434551 0.00657796 -0.10829588
v -0.00197707 0.04205460 -0.11515147
v -0.02060192 0.02991651 -0.12388767
v -0.01477081 0.03674339 -0.12352794
v -0.01064036 0.03926442 -0.11737960
v -0.02454140 0.00482608 -0.10932832
v -0.00844046 0.03992894 -0.12284701
v -0.02227746 0.01971198 -0.10285785
v -0.01066249 0.03932287 -0.11368904
v -0.01717112 0.03300717 -0.10055857
v -0.02583454 0.01127377 -0.12344173
v -0.02218636 0.02711256 -0.11853649
v -0.02521406 0.00017161 -0.11403213
v -0.01925132 0.03286939 -0.12330587
v -0.02551011 0.00313818 -0.11648563
v -0.02183254 0.01993609 -0.10007787
v -0.02526972 0.01523019 -0.12104695
v -0.00841801 0.04028873 -0.11379856
v -0.02329866 0.02396126 -0.11871680
v -0.02326706 0.02426986 -0.12377222
v -0.00823380 0.04025002 -0.11695798
v -0.02420743 0.02118154 -0.12065858
v -0.02482473 0.01936214 -0.12277243
v -0.00109547 0.03014738 -0.10008222
v -0.02514322 0.00792570 -0.11500791
v -0.00790884 0.04032197 -0.11790497
v -0.01586915 0.03584203 -0.11212279
v -0.02314964 0.02376957 -0.11669786
v -0.02451857 0.01513297 -0.11446026
v -0.01299164 0.03798133 -0.12289218
v -0.01939499 0.02882657 -0.10035823
v -0.00476541 0.00012682 -0.12237877
v -0.02470762 0.01057485 -0.11306353
v -0.02326348 0.01946156 -0.10945047
v -0.02420718 0.02116310 -0.12367075
v -0.02187080 0.02791830 -0.11851344
v -0.00009352 0.01459590 -0.12412407
v -0.02275285 0.01230457 -0.10002576
v -0.01493521 0.03576318 -0.10071389
v -0.01580104 0.03617517 -0.12238309
v -0.01065601 0.03921259 -0.10244510
v -0.01232918 0.03737273 -0.12388896
v -0.00531490 0.04161095 -0.10152043
v -0.02412518 0.01929342 -0.11635085
v -0.02448127 0.01491968 -0.11391671
v -0.01019985 0.03900027 -0.12362509
v -0.02428730 0.00037863 -0.12388742
v -0.02392032 0.01981158 -0.11540670
v -0.00794553 0.04043227 -0.11486003
v -0.00711028 0.04095224 -0.10010368
v -0.02537168 0.00416538 -0.11548582
v -0.01832085 0.03261579 -0.10846262
v -0.02095300 0.02415296 -0.10032105
v -0.02528866 0.01674447 -0.12299834
v -0.01050447 0.03923406 -0.12056659
v -0.01865812 0.03245741 -0.11052813
v -0.02447140 0.01015044 -0.11101170
v -0.02135251 0.02677627 -0.10934743
v -0.00033302 0.00239148 -0.12412407
v -0.02367753 0.00640013 -0.10377832
v -0.02599515 0.00022154 -0.12063287
v -0.00006120 0.04312564 -0.10105146
v -0.01381018 0.03682715 -0.10039712
v -0.02454973 0.00608176 -0.10959090
v -0.02267129 0.01454453 -0.10079462
v -0.02215291 0.02476447 -0.11038848
v -0.01519888 0.03647592 -0.11448216
v -0.00431693 0.04108700 -0.12320610
v -0.02093689 0.02870922 -0.11233635
v -0.02420979 0.01254706 -0.11033888
v -0.02175925 0.02877198 -0.12165294
v -0.02605311 0.00480495 -0.12147530
v -0.02618858 0.00314425 -0.12250640
v -0.02594395 0.00558848 -0.12366871
v -0.02104623 0.03019173 -0.12238976
v -0.01560954 0.03625351 -0.12346938
v -0.02067966 0.02997906 -0.11644895
v -0.02241449 0.02769531 -0.12331034
v -0.01516252 0.03604298 -0.10624936
v -0.02432494 0.01210052 -0.11094295
v -0.01827042 0.03339515 -0.11445263
v -0.01232389 0.03832627 -0.12269620
v -0.00935188 0.03960029 -0.12318129
v -0.01920673 0.03240717 -0.11692628
v -0.02582630 0.00516195 -0.11958952
v -0.02220308 0.02808812 -0.12299134
v -0.02560877 0.01286528 -0.12353011
v -0.02457204 0.01395876 -0.11393214
v -0.00358356 0.00108786 -0.12412407
v -0.02508455 0.00491552 -0.11340275
v -0.02232758 0.01669231 -0.10013621
v -0.01887115 0.03332170 -0.12337755
v -0.02417532 0.01996085 -0.11796635
v -0.01421240 0.03651154 -0.10083319
v -0.01796021 0.03350920 -0.11160710
v -0.00013017 0.04270597 -0.10942526
v -0.02482516 0.00622381 -0.11163239
v -0.02304080 0.02532272 -0.12032885
v -0.01533579 0.03533122 -0.10067662
v -0.02192331 0.02417378 -0.10734960
v -0.02291326 0.02218128 -0.11124423
v -0.02255749 0.01729003 -0.10226539
v -0.00909438 0.04007613 -0.10413836
v -0.02571664 0.00923147 -0.12038695
v -0.01540506 0.03648440 -0.12337430
v -0.02266312 0.02608155 -0.12373545
v -0.00097108 0.04223063 -0.11563353
v -0.02509679 0.01600269 -0.12370358
v -0.02617021 0.00673890 -0.12312037
v -0.02517745 0.01566768 -0.12075379
v -0.02371149 0.02297893 -0.11999236
v -0.00410679 0.04047337 -0.12389026
v -0.02420094 0.00293087 -0.10672290
v -0.01770584 0.03408484 -0.12373178
v -0.02066458 0.02886806 -0.11063312
v -0.02603150 0.00030534 -0.12094671
v -0.02428496 0.01926705 -0.11774540
v -0.02396231 0.01524643 -0.11007276
v -0.01476483 0.03689761 -0.11855880
v -0.01206434 0.03860668 -0.11288102
v -0.02353009 0.01300011 -0.10578287
v -0.01745026 0.03478331 -0.12296620
v -0.02196071 0.02790422 -0.12370710
v -0.00161471 0.01285238 -0.12412407
v -0.00413076 0.02587826 -0.10004637
v -0.02052501 0.02870988 -0.10890378
v -0.00936247 0.03991150 -0.10205657
v -0.02279946 0.01192480 -0.10014489
v -0.01913339 0.03070959 -0.10544776
v -0.01331732 0.03725233 -0.10051284
v -0.02607357 0.00634991 -0.12208177
v -0.01023258 0.03951439 -0.11486378
v -0.02456978 0.02028888 -0.12211726
v -0.02497644 0.01806170 -0.12349637
v -0.01691238 0.03530091 -0.12292404
v -0.02423000 0.01122366 -0.10981471
v -0.02215298 0.02499314 -0.11091354
v -0.02264008 0.02419102 -0.11302310
v -0.02456928 0.00605316 -0.10972688
v -0.02082756 0.02489488 -0.10094332
v -0.01782013 0.03378762 -0.12386984
v -0.00247556 0.01171620 -0.12412407
v -0.02310420 0.01986383 -0.10890189
v -0.01202507 0.03860023 -0.11140219
v -0.02521348 0.00296655 -0.11410903
v -0.02024795 0.02689396 -0.10130639
v -0.01466425 0.00211238 -0.10020872
v -0.01835873 0.03387316 -0.12240386
v -0.02354718 0.01945547 -0.11145762
v -0.02592795 0.00125117 -0.12374661
v -0.00086719 0.00992651 -0.12412407
v -0.01235110 0.03843564 -0.11499986
v -0.01470113 0.03691607 -0.11618114
v -0.00060827 0.02940068 -0.10008378
v -0.02532759 0.01599753 -0.12243750
v -0.01062257 0.03921256 -0.11956008
v -0.00428966 0.00199743 -0.12412407
v -0.02209546 0.02456539 -0.10951046
v -0.01632627 0.03548080 -0.11368281
v -0.02336335 0.00054958 -0.10109166
v -0.01944420 0.03140270 -0.11173273
v -0.02045471 0.02950638 -0.11145347
v -0.01963977 0.03157597 -0.11528105
v -0.02513824 0.01672854 -0.12168830
v -0.01660100 0.03548288 -0.12010085
v -0.02454392 0.00256921 -0.10907309
v -0.02584896 0.00561566 -0.11988886
v -0.00386929 0.04153264 -0.11736355
v -0.02138372 0.02722626 -0.11092219
v -0.02205719 0.02591190 -0.11255925
v -0.02304883 0.01439587 -0.10323228
v -0.02388918 0.02045538 -0.11640139
v -0.01258940 0.03828811 -0.11400106
v -0.02582980 0.01065936 -0.12349728
v -0.02040412 0.03086146 -0.11924715
v -0.00893315 0.03991871 -0.11904771
v -0.02491639 0.00089885 -0.12388731
v -0.00028992 0.00676472 -0.12412407
v -0.01547782 0.03630743 -0.11678779
v -0.02381817 0.00619950 -0.10465803
v -0.00801749 0.04035852 -0.11615945
v -0.02315797 0.00690021 -0.10053465
v -0.01959963 0.03049505 -0.10841408
v -0.00002279 0.02934761 -0.12122924
v -0.01607094 0.03593390 -0.12118418
v -0.01778157 0.03261963 -0.10367044
v -0.02141069 0.02919361 -0.12361432
v -0.02425574 0.01425963 -0.11156471
v -0.01608373 0.03462019 -0.10160772
v -0.02294717 0.02562499 -0.12362960
v -0.02355403 0.01439928 -0.10669925
v -0.02402119 0.01978538 -0.11625739
v -0.01044956 0.03842406 -0.12388926
v -0.02076840 0.02641094 -0.10387578
v -0.01977141 0.03201596 -0.12351359
v -0.00009210 0.04305942 -0.10270764
v -0.02111723 0.02453677 -0.10227031
v -0.01060624 0.03927911 -0.11745098
v -0.02049355 0.02987930 -0.11372072
v -0.01084248 0.03903088 -0.10016812
v -0.02397251 0.00672595 -0.10581149
v -0.02137856 0.02769054 -0.11247398
v -0.02484240 0.00105723 -0.11117977
v -0.02140590 0.02188093 -0.10004992
v -0.02085575 0.03038591 -0.12136042
v -0.02619218 0.00171239 -0.12241928
v -0.00751817 0.04072431 -0.10827194
v -0.00680124 0.04008510 -0.12369907
v -0.02496899 0.00656106 -0.11290883
v -0.01673018 0.03539728 -0.12088413
v -0.01967610 0.03059834 -0.10948186
v -0.01960616 0.02823538 -0.10021960
v -0.01628336 0.03473089 -0.12388833
v -0.02440205 0.01268312 -0.11184172
v -0.00075230 0.04101143 -0.12389079
v -0.02528615 0.00650074 -0.11533196
v -0.01316343 0.03768159 -0.12354134
v -0.00061428 0.04193158 -0.12112163
v -0.00639766 0.04125345 -0.10158647
v -0.01806264 0.03397455 -0.11864506
v -0.01679218 0.03448083 -0.10759734
v -0.02520904 0.00180136 -0.12388723
v -0.02440294 0.01118313 -0.11104091
v -0.02596522 0.00419096 -0.12059559
v -0.00368953 0.04177604 -0.11320085
v -0.01930064 0.03210268 -0.11520032
v -0.01662373 0.03512568 -0.11271386
v -0.00430343 0.04196223 -0.10018758
v -0.02161378 0.02924131 -0.12294524
v -0.02444377 0.01961596 -0.12375067
v -0.02378577 0.00341033 -0.10404211
v -0.01962896 0.03149832 -0.11457049
v -0.00972680 0.03870783 -0.12388937
v -0.01281856 0.03779023 -0.10244918
v -0.01079390 0.03915949 -0.11877103
v -0.02421114 0.00473084 -0.10701364
v -0.00328338 0.04176885 -0.11538413
v -0.02332073 0.00155859 -0.10085803
v -0.02506806 0.01489842 -0.11895416
v -0.00337540 0.04192730 -0.11170579
v -0.00337605 0.04182809 -0.11390148
v -0.02482070 0.01626942 -0.12388706
v -0.02059759 0.02908782 -0.11095744
v -0.00007580 0.01417654 -0.12412407
v -0.02469945 0.00639235 -0.11075341
v -0.01965586 0.03121851 -0.11281047
v -0.00024970 0.04233284 -0.11632740
v -0.00774205 0.04068059 -0.10211764
v -0.02037706 0.02844902 -0.10680914
v -0.01599827 0.03580703 -0.11363226
v -0.02417244 0.02196516 -0.12201497
v -0.00144791 0.04134208 -0.12366414
v -0.01416035 0.03729380 -0.11643065
v -0.01816050 0.03367484 -0.11611901
v -0.02276274 0.01846232 -0.10490102
v -0.02458700 0.01901613 -0.12372809
v -0.01409120 0.03733053 -0.11427174
v -0.02340803 0.01487691 -0.10603424
v -0.02478444 0.01521632 -0.11684357
v -0.01656595 0.03532261 -0.11529943
v -0.00059825 0.00036763 -0.12412407
v -0.01994739 0.03037109 -0.11077998
v -0.01780124 0.03265210 -0.10401055
v -0.02126387 0.02641452 -0.10759873
v -0.00958479 0.01994967 -0.10001953
v -0.02427336 0.00641984 -0.10769778
v -0.00510211 0.04130612 -0.11458088
v -0.01773162 0.00002475 -0.12388833
v -0.01975229 0.03126121 -0.12388780
v -0.02474744 0.01372109 -0.11520359
v -0.01725977 0.03426702 -0.11050514
v -0.00009012 0.03819255 -0.12389092
v -0.00267898 0.04232424 -0.10619559
v -0.00180148 0.04273183 -0.10117415
v -0.01008249 0.03961060 -0.11369743
v -0.01415375 0.03730753 -0.12292723
v -0.01962953 0.03211513 -0.12356541
v -0.01453348 0.00617526 -0.10002927
v -0.01961696 0.02857204 -0.10127713
v -0.02509846 0.00583802 -0.11367302
v -0.02311733 0.00599172 -0.10004541
v -0.01861919 0.03359885 -0.12274334
v -0.01372178 0.03688758 -0.10017221
v -0.02508750 0.01671712 -0.12360491
v -0.00483279 0.04095062 -0.12321707
v -0.01920585 0.03264492 -0.11958143
v -0.02286798 0.01424034 -0.10188870
v -0.01779955 0.03225347 -0.10193952
v -0.01607221 0.03593252 -0.12116723
v -0.02125404 0.02790378 -0.11204143
v -0.02492403 0.01535946 -0.11820959
v -0.02470277 0.01848779 -0.12371878
v -0.01290200 0.03804034 -0.12262232
v -0.02158960 0.02418403 -0.10495617
v -0.00759579 0.04074441 -0.10220839
v -0.02344412 0.01911461 -0.11035450
v -0.02294869 0.02582627 -0.12354539
v -0.01381788 0.03746584 -0.11182780
v -0.02367848 0.02404929 -0.12266727
v -0.02336469 0.00613736 -0.10168384
v -0.02499952 0.00458285 -0.11271186
v -0.02356940 0.02237577 -0.12388723
v -0.02285505 0.01638699 -0.10346618
v -0.02554848 0.00985599 -0.12385696
v -0.01655965 0.03518173 -0.11253953
v -0.01863564 0.03041759 -0.10024931
v -0.00668595 0.04114366 -0.10054860
v -0.02557870 0.00342313 -0.11710941
v -0.01360037 0.03762550 -0.11249233
v -0.02537366 0.01215904 -0.12384971
v -0.01377623 0.03743569 -0.11019661
v -0.00271905 0.04247520 -0.10051629
v -0.01761140 0.03441531 -0.12355212
v -0.00756548 0.04064013 -0.11173494
v -0.02298874 0.00974933 -0.10032480
v -0.01046856 0.03938516 -0.11564750
v -0.01333978 0.03777902 -0.12316623
v -0.02176509 0.02737232 -0.11520639
v -0.01503588 0.03593174 -0.10363807
f 158 120 261
f 383 120 158
f 121 460 353
f 477 464 165
f 90 460 121
f 121 148 90
f 148 198 90
f 471 261 120
f 28 349 273
f 18 353 460
f 18 147 158
f 258 147 18
f 158 261 18
f 261 353 18
f 353 477 72
f 464 477 324
f 324 477 353
f 165 464 324
f 167 414 17
f 315 246 260
f 349 246 315
f 460 467 92
f 231 467 460
f 460 90 231
f 231 90 198
f 260 246 60
f 246 92 60
f 60 92 467
f 40 414 236
f 236 311 40
f 40 311 32
f 236 414 53
f 53 471 236
f 446 471 53
f 261 471 295
f 295 471 446
f 158 147 443
f 443 383 158
f 120 383 443
f 443 471 120
f 236 471 443
f 377 147 258
f 377 443 147
f 260 60 26
f 214 315 260
f 237 477 165
f 11 349 117
f 11 273 349
f 13 356 421
f 76 18 460
f 258 18 76
f 346 148 121
f 346 72 148
f 121 353 346
f 353 72 346
f 451 17 414
f 451 40 32
f 414 40 451
f 446 17 109
f 41 353 261
f 41 427 353
f 353 427 223
f 223 324 353
f 249 223 427
f 165 324 249
f 324 223 249
f 165 482 209
f 117 349 405
f 349 315 405
f 405 214 117
f 315 214 405
f 446 53 417
f 167 17 417
f 417 17 446
f 417 414 167
f 417 53 414
f 350 443 94
f 443 377 94
f 94 377 258
f 258 76 94
f 460 350 94
f 94 76 460
f 212 214 260
f 260 26 212
f 212 26 402
f 272 87 117
f 423 272 117
f 403 237 165
f 14 317 387
f 178 277 235
f 2 300 125
f 125 299 2
f 300 299 125
f 186 106 369
f 106 498 369
f 376 421 356
f 356 288 376
f 376 288 246
f 28 421 376
f 376 349 28
f 376 246 349
f 273 210 373
f 162 350 460
f 460 92 162
f 13 341 162
f 162 356 13
f 162 288 356
f 154 443 350
f 350 162 154
f 429 501 441
f 441 501 13
f 441 421 28
f 13 421 441
f 267 109 17
f 17 451 267
f 267 451 32
f 506 249 427
f 21 238 420
f 251 388 255
f 251 209 388
f 462 251 255
f 209 251 462
f 59 92 246
f 246 288 59
f 59 162 92
f 288 162 59
f 395 295 446
f 261 295 395
f 178 368 448
f 165 505 411
f 214 344 250
f 359 5 148
f 142 198 148
f 148 5 142
f 402 26 142
f 142 231 198
f 467 231 142
f 142 60 467
f 142 26 60
f 402 142 365
f 365 142 5
f 214 212 50
f 50 344 214
f 50 212 402
f 214 250 507
f 117 214 507
f 507 423 117
f 87 272 271
f 272 423 271
f 477 237 480
f 480 72 477
f 480 84 72
f 252 342 207
f 128 342 252
f 348 342 128
f 128 127 348
f 300 127 128
f 387 317 133
f 489 368 178
f 489 106 186
f 186 368 489
f 62 498 169
f 164 95 332
f 2 164 221
f 104 300 2
f 104 127 300
f 2 221 104
f 130 336 186
f 2 336 130
f 186 369 130
f 265 336 2
f 253 333 210
f 196 162 341
f 196 154 162
f 429 441 491
f 333 234 491
f 503 441 28
f 28 273 503
f 273 373 503
f 165 328 19
f 19 505 165
f 328 505 19
f 171 277 428
f 285 277 178
f 285 428 277
f 398 461 71
f 71 461 124
f 46 513 88
f 406 474 418
f 474 506 418
f 418 513 406
f 418 427 66
f 418 506 427
f 447 506 494
f 494 506 474
f 173 105 249
f 173 506 447
f 249 506 173
f 399 157 482
f 249 105 399
f 78 157 399
f 399 105 78
f 399 482 165
f 165 249 399
f 217 474 406
f 406 513 217
f 298 21 388
f 238 21 298
f 388 209 298
f 482 238 298
f 298 209 482
f 433 31 157
f 482 157 329
f 157 31 329
f 306 395 446
f 201 395 306
f 446 109 306
f 109 201 306
f 39 201 436
f 39 395 201
f 473 46 41
f 473 41 261
f 261 395 473
f 478 448 368
f 478 463 411
f 252 403 73
f 73 403 165
f 165 411 73
f 73 411 345
f 73 150 299
f 345 150 73
f 224 415 387
f 117 87 308
f 308 11 117
f 273 11 308
f 308 210 273
f 151 415 152
f 48 344 107
f 107 365 48
f 87 271 366
f 48 97 205
f 148 72 6
f 72 84 6
f 5 359 312
f 48 365 312
f 312 365 5
f 514 480 237
f 514 465 192
f 237 403 215
f 215 290 237
f 215 403 252
f 252 207 215
f 126 495 348
f 348 133 126
f 126 133 317
f 348 495 233
f 233 342 348
f 233 207 342
f 103 235 277
f 277 134 103
f 62 134 149
f 149 498 62
f 164 498 149
f 149 134 277
f 178 235 185
f 185 489 178
f 386 52 277
f 386 277 171
f 171 64 386
f 310 164 2
f 450 498 164
f 450 44 498
f 450 310 44
f 164 310 450
f 35 169 498
f 348 127 20
f 20 221 164
f 2 299 357
f 357 265 2
f 299 150 357
f 150 265 357
f 243 253 348
f 363 133 348
f 348 253 363
f 54 234 219
f 54 501 429
f 429 234 54
f 54 341 13
f 13 501 54
f 322 305 52
f 52 386 322
f 455 234 429
f 429 491 455
f 455 491 234
f 210 333 286
f 333 483 286
f 333 491 175
f 175 483 333
f 307 491 441
f 307 286 483
f 307 175 491
f 483 175 307
f 31 433 146
f 484 282 132
f 109 267 367
f 436 201 367
f 367 201 109
f 367 132 58
f 407 282 484
f 407 267 32
f 484 267 407
f 360 462 255
f 360 124 462
f 374 111 22
f 71 22 93
f 93 22 111
f 461 398 49
f 314 505 328
f 328 442 314
f 314 325 505
f 178 325 314
f 314 442 178
f 410 124 461
f 410 328 165
f 427 41 511
f 41 46 511
f 513 46 248
f 248 217 513
f 242 418 66
f 88 513 242
f 513 418 242
f 262 176 293
f 293 482 262
f 293 238 482
f 293 518 238
f 293 176 278
f 278 518 293
f 46 473 472
f 472 248 46
f 472 473 395
f 230 411 505
f 230 478 411
f 448 478 230
f 178 448 230
f 393 150 345
f 393 463 186
f 186 336 393
f 336 265 393
f 393 265 150
f 257 478 368
f 463 478 257
f 257 368 186
f 186 463 257
f 396 73 299
f 444 189 408
f 3 415 151
f 151 190 479
f 479 3 151
f 330 308 87
f 387 133 244
f 166 253 210
f 151 152 303
f 152 86 303
f 415 224 83
f 83 152 415
f 23 344 48
f 23 56 344
f 48 205 129
f 151 144 34
f 34 144 366
f 34 190 151
f 250 190 34
f 34 507 250
f 444 465 200
f 263 465 444
f 437 312 359
f 437 6 84
f 110 514 192
f 480 514 110
f 290 215 27
f 27 301 290
f 27 215 207
f 290 301 502
f 301 27 454
f 290 264 43
f 237 290 43
f 43 264 160
f 81 14 387
f 387 279 81
f 256 189 444
f 219 234 74
f 234 149 74
f 164 149 96
f 96 95 164
f 96 253 222
f 333 253 96
f 96 234 333
f 96 149 234
f 496 149 277
f 277 52 496
f 52 305 496
f 498 44 36
f 36 227 498
f 297 498 106
f 297 35 498
f 371 20 127
f 221 20 371
f 127 104 371
f 371 104 221
f 348 20 247
f 222 253 316
f 253 243 316
f 219 305 45
f 45 54 219
f 305 322 45
f 202 341 45
f 341 54 45
f 45 64 202
f 45 386 64
f 45 322 386
f 210 286 509
f 286 307 509
f 441 503 509
f 509 307 441
f 278 176 24
f 262 482 24
f 24 176 262
f 482 329 24
f 163 329 31
f 31 146 163
f 163 24 329
f 146 24 163
f 58 132 206
f 206 132 282
f 118 267 484
f 118 367 267
f 484 132 118
f 132 367 118
f 71 124 445
f 124 360 445
f 276 398 71
f 276 193 398
f 71 93 276
f 270 193 428
f 428 285 270
f 398 193 270
f 461 49 382
f 328 410 382
f 382 410 461
f 361 442 328
f 328 382 361
f 361 382 49
f 178 442 361
f 361 268 178
f 361 49 398
f 398 268 361
f 124 410 487
f 487 410 165
f 165 209 487
f 466 367 58
f 466 58 225
f 225 248 466
f 248 472 466
f 380 248 225
f 375 220 282
f 217 248 375
f 380 220 375
f 248 380 375
f 470 21 420
f 78 343 16
f 16 497 78
f 456 497 16
f 510 157 78
f 78 497 510
f 91 497 456
f 91 510 497
f 91 146 433
f 172 325 178
f 178 230 172
f 505 325 172
f 172 230 505
f 77 393 345
f 463 393 77
f 345 411 77
f 411 463 77
f 252 396 493
f 493 396 299
f 493 299 300
f 493 128 252
f 300 128 493
f 252 73 339
f 339 396 252
f 73 396 339
f 387 415 232
f 232 413 387
f 183 189 387
f 387 413 183
f 195 86 51
f 75 303 86
f 75 86 195
f 210 308 75
f 195 166 75
f 75 166 210
f 228 244 133
f 3 479 296
f 408 3 296
f 444 408 296
f 344 56 500
f 136 144 151
f 25 330 87
f 25 136 330
f 144 136 25
f 284 366 271
f 284 34 366
f 119 430 480
f 312 430 119
f 182 430 312
f 312 437 182
f 480 430 182
f 465 263 12
f 12 379 465
f 327 514 237
f 327 15 514
f 514 15 99
f 99 197 514
f 317 457 123
f 123 156 317
f 502 156 123
f 301 454 98
f 98 454 233
f 98 233 495
f 184 457 317
f 317 370 184
f 317 390 153
f 153 370 317
f 160 264 486
f 269 81 279
f 387 189 422
f 189 256 422
f 422 279 387
f 389 305 219
f 389 496 305
f 498 227 218
f 227 69 218
f 218 69 130
f 218 369 498
f 218 130 369
f 337 227 2
f 337 69 227
f 2 130 337
f 130 69 337
f 169 35 143
f 35 297 143
f 143 297 106
f 143 106 145
f 391 247 95
f 391 243 348
f 348 247 391
f 292 332 95
f 95 247 292
f 302 173 447
f 241 392 236
f 32 311 432
f 432 311 236
f 236 392 432
f 245 101 282
f 57 445 360
f 191 285 178
f 191 270 285
f 209 462 385
f 385 487 209
f 462 124 385
f 124 487 385
f 439 466 472
f 439 472 395
f 474 217 188
f 282 101 254
f 254 375 282
f 217 375 254
f 474 188 254
f 254 188 217
f 294 470 135
f 21 470 294
f 508 16 343
f 199 433 157
f 157 510 199
f 199 91 433
f 510 91 199
f 146 91 266
f 195 51 469
f 490 228 133
f 85 244 438
f 244 228 438
f 438 166 85
f 129 296 289
f 289 500 129
f 289 250 344
f 344 500 289
f 338 296 129
f 338 263 444
f 444 296 338
f 338 129 205
f 122 437 84
f 122 182 437
f 84 480 122
f 480 182 122
f 168 97 48
f 48 312 168
f 312 119 168
f 465 379 259
f 259 400 465
f 379 499 259
f 465 400 170
f 192 465 170
f 317 14 4
f 4 390 317
f 1 502 301
f 1 156 502
f 370 153 140
f 140 486 370
f 160 486 140
f 465 81 335
f 81 269 335
f 335 200 465
f 103 70 211
f 211 70 80
f 235 103 211
f 401 70 145
f 145 106 401
f 106 489 401
f 174 389 219
f 219 74 174
f 174 74 149
f 149 496 174
f 496 389 174
f 105 173 326
f 173 302 326
f 61 494 474
f 226 24 146
f 226 504 24
f 89 470 420
f 135 470 89
f 420 238 89
f 89 518 278
f 238 518 89
f 449 226 146
f 351 102 492
f 516 475 492
f 492 475 351
f 67 213 171
f 67 138 213
f 67 404 111
f 67 111 374
f 374 362 67
f 304 475 516
f 282 407 108
f 108 245 282
f 108 407 32
f 32 432 108
f 178 268 29
f 29 191 178
f 367 466 424
f 466 439 424
f 436 367 440
f 367 424 440
f 440 424 439
f 440 39 436
f 440 439 395
f 395 39 440
f 351 475 372
f 456 16 372
f 387 244 8
f 435 168 119
f 435 119 480
f 480 499 435
f 435 499 379
f 12 168 435
f 379 12 435
f 381 259 499
f 480 110 381
f 381 499 480
f 197 99 320
f 14 197 320
f 320 4 14
f 80 70 517
f 70 401 517
f 105 326 240
f 240 326 37
f 78 105 240
f 240 343 78
f 240 37 343
f 42 61 474
f 112 302 447
f 447 494 112
f 494 61 112
f 504 226 179
f 226 449 179
f 47 419 135
f 229 101 516
f 516 492 229
f 229 492 101
f 208 492 102
f 208 42 474
f 61 42 208
f 352 91 456
f 274 67 171
f 404 67 274
f 138 67 425
f 425 116 138
f 425 67 362
f 425 137 116
f 255 137 425
f 362 431 425
f 425 360 255
f 425 431 57
f 425 57 360
f 334 304 30
f 340 159 241
f 79 432 392
f 79 108 432
f 245 108 79
f 392 241 79
f 241 159 79
f 416 159 203
f 416 304 516
f 203 304 416
f 416 79 159
f 245 79 416
f 516 101 416
f 101 245 416
f 515 208 474
f 492 208 515
f 355 254 101
f 101 434 355
f 16 508 319
f 319 372 16
f 319 508 343
f 343 37 319
f 319 102 351
f 351 372 319
f 37 326 319
f 319 326 302
f 302 112 319
f 195 469 131
f 469 8 131
f 387 8 287
f 287 8 469
f 228 490 458
f 490 216 458
f 253 166 354
f 166 216 354
f 166 438 194
f 194 216 166
f 10 449 146
f 24 504 65
f 135 89 65
f 65 47 135
f 278 24 65
f 65 89 278
f 409 364 334
f 409 10 364
f 449 10 409
f 161 112 61
f 61 208 161
f 161 319 112
f 161 208 102
f 102 319 161
f 33 266 91
f 91 352 33
f 239 304 334
f 139 304 239
f 177 137 255
f 21 294 177
f 177 294 135
f 255 388 177
f 388 21 177
f 213 138 155
f 138 485 155
f 114 485 138
f 347 481 419
f 347 30 481
f 236 323 181
f 181 323 341
f 213 481 291
f 481 30 291
f 275 304 203
f 203 159 275
f 159 340 275
f 456 100 318
f 318 352 456
f 139 352 318
f 452 100 456
f 456 372 452
f 475 100 452
f 452 372 475
f 475 304 113
f 113 100 475
f 331 515 474
f 474 254 331
f 254 355 331
f 101 515 204
f 101 492 281
f 281 515 101
f 492 515 281
f 309 216 490
f 309 354 216
f 426 65 504
f 47 65 426
f 504 179 426
f 334 30 321
f 321 409 334
f 266 33 378
f 180 352 139
f 139 239 180
f 138 116 283
f 283 114 138
f 135 419 82
f 419 481 82
f 30 347 9
f 358 179 449
f 412 340 241
f 412 181 340
f 412 241 236
f 236 181 412
f 468 341 202
f 468 181 341
f 115 291 30
f 115 275 512
f 115 30 304
f 304 275 115
f 213 291 394
f 394 64 171
f 171 213 394
f 181 468 394
f 202 64 394
f 394 468 202
f 141 115 340
f 291 115 141
f 512 275 313
f 313 275 340
f 313 115 512
f 340 115 313
f 397 355 434
f 397 331 355
f 397 434 101
f 101 204 397
f 515 331 397
f 397 204 515
f 38 378 55
f 55 378 33
f 334 38 55
f 55 488 334
f 384 239 334
f 334 488 384
f 449 9 459
f 459 9 347
f 459 358 449
f 340 181 68
f 68 141 340
f 187 177 135
f 135 280 187
f 135 82 453
f 453 280 135
f 63 68 181
f 291 141 63
f 141 68 63
f 485 280 7
f 280 453 7
f 7 155 485
f 181 394 476
f 476 63 181
f 476 394 291
f 291 63 476
f 196 323 236
f 236 443 196
f 341 323 196
f 443 154 196
f 107 50 402
f 402 365 107
f 344 50 107
f 427 511 242
f 66 427 242
f 242 46 88
f 242 511 46
f 148 6 437
f 437 359 148
f 207 233 454
f 454 27 207
f 465 514 81
f 81 197 14
f 514 197 81
f 44 310 36
f 36 310 2
f 2 227 36
f 509 373 210
f 509 503 373
f 58 206 220
f 225 58 220
f 220 206 282
f 220 380 225
f 183 408 189
f 415 3 183
f 183 232 415
f 183 3 408
f 413 232 183
f 500 23 48
f 48 129 500
f 56 23 500
f 151 303 136
f 136 75 308
f 308 330 136
f 303 75 136
f 366 144 25
f 87 366 25
f 423 507 284
f 507 34 284
f 284 271 423
f 457 184 486
f 502 123 486
f 486 123 457
f 290 502 486
f 486 264 290
f 486 184 370
f 143 134 62
f 62 169 143
f 145 70 143
f 143 103 134
f 143 70 103
f 222 316 391
f 391 96 222
f 95 96 391
f 391 316 243
f 292 247 20
f 164 332 292
f 292 20 164
f 289 479 190
f 289 190 250
f 289 296 479
f 263 338 168
f 168 205 97
f 168 338 205
f 168 12 263
f 317 156 1
f 1 126 317
f 495 126 1
f 1 98 495
f 301 98 1
f 335 256 444
f 444 200 335
f 335 269 279
f 279 422 335
f 335 422 256
f 431 362 374
f 431 22 71
f 374 22 431
f 71 445 431
f 445 57 431
f 29 268 398
f 398 270 29
f 270 191 29
f 192 170 381
f 381 170 400
f 381 110 192
f 400 259 381
f 237 43 320
f 390 4 320
f 320 99 15
f 320 327 237
f 320 43 160
f 15 327 320
f 320 153 390
f 160 140 320
f 320 140 153
f 489 185 517
f 517 185 235
f 235 211 517
f 517 211 80
f 517 401 489
f 274 276 93
f 171 428 274
f 428 193 274
f 111 404 274
f 274 93 111
f 193 276 274
f 131 244 85
f 131 166 195
f 85 166 131
f 131 8 244
f 287 224 387
f 287 83 224
f 287 86 152
f 152 83 287
f 287 51 86
f 287 469 51
f 228 458 194
f 194 438 228
f 194 458 216
f 139 318 113
f 113 304 139
f 113 318 100
f 309 490 133
f 133 363 309
f 309 363 253
f 253 354 309
f 146 266 378
f 378 38 334
f 378 10 146
f 334 364 378
f 364 10 378
f 449 409 9
f 9 321 30
f 409 321 9
f 352 180 384
f 384 33 352
f 384 180 239
f 384 55 33
f 488 55 384
f 419 47 459
f 47 426 459
f 459 347 419
f 459 426 179
f 179 358 459
f 137 177 187
f 116 137 187
f 187 280 485
f 485 114 187
f 187 283 116
f 114 283 187
f 213 155 7
f 7 481 213
f 7 82 481
f 7 453 82

