# https://github.com/mikedh/trimesh
v -0.03978664 0.02651254 -0.00528316
v -0.03867238 0.02526644 -0.00019391
v -0.04566497 0.02766972 -0.02286462
v -0.03932767 0.02903124 -0.01904241
v -0.04449100 0.02728957 -0.01625275
v -0.04384953 0.02741012 -0.01557137
v -0.02533684 0.02516850 -0.00566316
v -0.04699953 0.02527336 -0.01101780
v -0.04518222 0.02763562 -0.02030623
v -0.03960583 0.02720167 -0.00768508
v -0.03310990 0.02778752 -0.00534749
v -0.04523383 0.02603431 -0.01057438
v -0.03141904 0.02753457 -0.00347766
v -0.03912366 0.02772353 -0.00934816
v -0.02500971 0.02580116 -0.01500007
v -0.03566571 0.02723377 -0.00448709
v -0.03531029 0.02770004 -0.00628292
v -0.04584831 0.02692557 -0.01775051
v -0.04440056 0.02782971 -0.01966996
v -0.04321496 0.02511884 -0.00460016
v -0.03025794 0.02863541 -0.00909651
v -0.04658217 0.02618491 -0.01532843
v -0.04708133 0.02542994 -0.01216194
v -0.04379203 0.02776577 -0.01792891
v -0.03329444 0.02898913 -0.01238802
v -0.03234351 0.02736166 -0.00310104
v -0.02984473 0.02905106 -0.01284866
v -0.03791233 0.02840325 -0.01175749
v -0.04968938 0.02570748 -0.02255754
v -0.04607215 0.02517681 -0.00880052
v -0.03378092 0.02966248 -0.02049618
v -0.04011288 0.02592054 -0.00338474
v -0.03774734 0.02952806 -0.02352990
v -0.03620900 0.02705131 -0.00406525
v -0.03269308 0.02952831 -0.01811990
v -0.04041779 0.02576030 -0.00321217
v -0.03918234 0.02920820 -0.02031311
v -0.03177613 0.02957393 -0.01906729
v -0.04081298 0.02910286 -0.02417235
v -0.03913074 0.02927321 -0.02124738
v -0.04635225 0.02706093 -0.02022372
v -0.04042508 0.02665962 -0.00644913
v -0.04820422 0.02662646 -0.02427985
v -0.04835054 0.02618847 -0.02104363
v -0.04477034 0.02635161 -0.01113985
v -0.03868878 0.02916223 -0.01920326
v -0.04126753 0.02756370 -0.01136371
v -0.04200539 0.02847686 -0.02007807
v -0.03060874 0.02976816 -0.02493244
v -0.03563075 0.02707130 -0.00376665
v -0.04579415 0.02505721 -0.01206696
v -0.02650135 0.02946212 -0.01957088
v -0.03884591 0.02927526 -0.02074514
v -0.03999703 0.02766532 -0.00999966
v -0.03691203 0.02851843 -0.01137605
v -0.03801416 0.02624754 -0.00268785
v -0.03901154 0.02547389 -0.00107424
v -0.03238990 0.02769099 -0.00456844
v -0.03495505 0.02970072 -0.02268354
v -0.02748792 0.02949881 -0.01968844
v -0.03188328 0.02844402 -0.00836750
v -0.03121379 0.02813544 -0.00651649
v -0.03997035 0.02513406 -0.00100978
v -0.03546900 0.02779083 -0.00678355
v -0.03407069 0.02961884 -0.02006383
v -0.03817008 0.02943613 -0.02254883
v -0.04390926 0.02803508 -0.02056766
v -0.04714325 0.02512366 -0.01082142
v -0.04027455 0.02587803 -0.00342027
v -0.03462897 0.02636760 -0.00064063
v -0.03616334 0.02595874 -0.00040820
v -0.02991887 0.02512115 -0.01500007
v -0.03153687 0.02891602 -0.01128322
v -0.04329650 0.02844936 -0.02379049
v -0.04538702 0.02786779 -0.02388428
v -0.03567734 0.02869766 -0.01167337
v -0.04937154 0.02521177 -0.01767568
v -0.04428774 0.02802579 -0.02161568
v -0.04175350 0.02527992 -0.00330236
v -0.04551668 0.02574267 -0.00993668
v -0.04152315 0.02703150 -0.00902418
v -0.02504574 0.02959182 -0.02365882
v -0.03663236 0.02751444 -0.00639627
v -0.04160434 0.02675255 -0.00803458
v -0.03439356 0.02718789 -0.00353092
v -0.04921403 0.02591127 -0.02227728
v -0.02562341 0.02708909 -0.00001988
v -0.04029512 0.02702084 -0.00767419
v -0.02562201 0.02880928 -0.01062775
v -0.04863995 0.02506557 -0.01462131
v -0.03188721 0.02758658 -0.00384942
v -0.03741752 0.02957214 -0.02382739
v -0.03326975 0.02973953 -0.02226077
v -0.04795153 0.02633548 -0.02064029
v -0.03719833 0.02652073 -0.00291551
v -0.02668233 0.02874031 -0.00987934
v -0.04370795 0.02514638 -0.00532430
v -0.02506334 0.02870012 -0.00973089
v -0.03545996 0.02632308 -0.00096630
v -0.02890600 0.02842903 -0.00757705
v -0.03232078 0.02975649 -0.02340075
v -0.03927121 0.02817824 -0.01207808
v -0.03880239 0.02819896 -0.01142782
v -0.03878611 0.02899651 -0.01781130
v -0.03719988 0.02720113 -0.00544187
v -0.03748370 0.02796347 -0.00915041
v -0.02540782 0.02724051 -0.00079302
v -0.04727269 0.02581291 -0.01508730
v -0.03584345 0.02717434 -0.00434558
v -0.04194057 0.02653958 -0.00767925
v -0.04291694 0.02641504 -0.00850670
v -0.03496581 0.02687681 -0.00262881
v -0.04654255 0.02691302 -0.01977501
v -0.02610560 0.02541930 -0.01500006
v -0.03839553 0.02528481 -0.00004541
v -0.03426264 0.02848719 -0.00935957
v -0.03946414 0.02940775 -0.02450278
v -0.03811823 0.02927899 -0.01981801
v -0.03367645 0.02796869 -0.00646548
v -0.03927156 0.02635379 -0.00420656
v -0.04598512 0.02521914 -0.00877512
v -0.03891513 0.02934999 -0.02218709
v -0.03437376 0.02631509 -0.00032916
v -0.03999979 0.02501834 -0.01466038
v -0.04723089 0.02716519 -0.02488287
v -0.02692237 0.02501561 -0.00500522
v -0.04116266 0.02906855 -0.02485225
v -0.03650242 0.02758295 -0.00660460
v -0.03572669 0.02822519 -0.00896882
v -0.03238245 0.02892050 -0.01130756
v -0.03376619 0.02968097 -0.02093951
v -0.02567662 0.02816213 -0.00563203
v -0.03834826 0.02725907 -0.00671519
v -0.04242472 0.02728594 -0.01169913
v -0.04076662 0.02777773 -0.01180701
v -0.03903493 0.02614411 -0.00321037
v -0.04065235 0.02513425 -0.00167975
v -0.04388408 0.02672854 -0.01121817
v -0.03609486 0.02857916 -0.01107092
v -0.03128803 0.02709682 -0.00150281
v -0.02721318 0.02877554 -0.01009831
v -0.03523797 0.02969519 -0.02294469
v -0.02509023 0.02939624 -0.01922299
v -0.03932371 0.02840523 -0.01397453
v -0.03515766 0.02974523 -0.02400178
v -0.02556011 0.02948991 -0.02076964
v -0.03108862 0.02927220 -0.01528711
v -0.03800395 0.02743115 -0.00703646
v -0.02501521 0.02859315 -0.01167190
v -0.04919975 0.02610072 -0.02390822
v -0.04102687 0.02669845 -0.00718821
v -0.04407332 0.02529618 -0.00628916
v -0.03418655 0.02864888 -0.01017010
v -0.02734859 0.02518871 -0.01500006
v -0.03329673 0.02963770 -0.01941521
v -0.04983488 0.02533471 -0.01985047
v -0.02881764 0.02837291 -0.00725239
v -0.04688144 0.02728249 -0.02442869
v -0.03060842 0.02511124 -0.01500007
v -0.03145200 0.02832857 -0.00761422
v -0.04966989 0.02502582 -0.01752234
v -0.02501283 0.02799397 -0.00454554
v -0.04547727 0.02698692 -0.01707452
v -0.03581346 0.02774115 -0.00680988
v -0.03379919 0.02972722 -0.02212250
v -0.02872127 0.02687511 -0.00009728
v -0.02853984 0.02872106 -0.00965401
v -0.03460226 0.02799661 -0.00713774
v -0.04554775 0.02519702 -0.00800601
v -0.02525055 0.02963399 -0.02461189
v -0.03668513 0.02684042 -0.00362893
v -0.04681605 0.02605510 -0.01522282
v -0.02691372 0.02878110 -0.01019024
v -0.04471682 0.02595490 -0.00949532
v -0.03548991 0.02875991 -0.01211675
v -0.03332918 0.02945248 -0.01735785
v -0.03874481 0.02869459 -0.01532398
v -0.03983591 0.02532391 -0.00137620
f 115 126 87
f 63 126 115
f 51 126 63
f 63 161 51
f 51 161 126
f 150 170 154
f 126 161 124
f 72 161 156
f 72 154 126
f 93 155 170
f 86 150 156
f 114 170 15
f 114 154 170
f 29 72 156
f 154 72 29
f 156 150 29
f 150 154 29
f 159 124 161
f 161 72 159
f 126 124 159
f 159 72 126
f 166 115 87
f 87 140 166
f 170 155 82
f 155 60 82
f 60 146 82
f 82 146 143
f 15 170 82
f 143 98 82
f 101 170 49
f 101 93 170
f 38 60 155
f 20 161 63
f 161 20 90
f 126 154 7
f 154 114 7
f 87 126 7
f 7 114 15
f 15 162 7
f 115 166 123
f 123 166 140
f 14 54 10
f 143 146 52
f 52 146 60
f 49 127 117
f 125 75 127
f 125 127 49
f 49 170 125
f 125 170 150
f 127 75 74
f 149 82 98
f 98 162 149
f 15 82 149
f 149 162 15
f 156 161 77
f 161 90 77
f 30 121 8
f 107 162 87
f 87 7 107
f 107 7 162
f 84 151 81
f 20 79 110
f 153 25 76
f 76 139 153
f 55 139 76
f 76 46 55
f 140 26 112
f 99 112 34
f 56 57 99
f 171 99 34
f 85 112 26
f 129 139 55
f 39 117 127
f 37 117 39
f 127 74 39
f 39 74 37
f 103 135 54
f 103 14 55
f 54 14 103
f 150 86 43
f 43 125 150
f 137 178 36
f 36 79 137
f 63 178 137
f 137 20 63
f 137 79 20
f 138 5 45
f 30 8 68
f 68 8 90
f 68 20 30
f 68 90 20
f 91 26 140
f 91 62 153
f 55 46 104
f 104 46 37
f 104 103 177
f 144 103 104
f 132 162 98
f 130 25 153
f 130 35 155
f 61 130 153
f 21 130 61
f 87 162 157
f 157 62 87
f 88 81 151
f 10 54 88
f 54 81 88
f 138 81 134
f 175 76 25
f 2 57 178
f 63 115 2
f 2 178 63
f 115 99 2
f 2 99 57
f 32 57 56
f 36 178 32
f 178 57 32
f 32 151 84
f 70 99 123
f 112 99 70
f 70 123 140
f 140 112 70
f 115 123 71
f 71 99 115
f 123 99 71
f 148 14 10
f 34 112 50
f 112 85 50
f 55 14 106
f 106 129 55
f 14 148 106
f 106 148 129
f 37 46 118
f 118 175 25
f 46 76 118
f 76 175 118
f 122 33 117
f 155 93 165
f 49 117 145
f 145 101 49
f 93 101 145
f 145 165 93
f 102 144 135
f 135 103 102
f 102 103 144
f 28 103 55
f 177 103 28
f 55 104 28
f 28 104 177
f 22 45 18
f 44 86 156
f 156 94 44
f 41 94 156
f 75 125 158
f 158 3 75
f 78 74 75
f 75 19 78
f 37 74 78
f 23 45 22
f 8 45 23
f 90 8 23
f 23 108 77
f 23 77 90
f 12 45 8
f 138 45 12
f 62 91 13
f 87 62 13
f 13 140 87
f 13 91 140
f 35 130 147
f 176 130 155
f 25 130 176
f 155 118 176
f 176 118 25
f 62 157 160
f 153 62 160
f 160 61 153
f 21 61 100
f 61 160 100
f 100 160 157
f 162 132 100
f 100 157 162
f 47 81 54
f 47 134 81
f 54 135 47
f 135 134 47
f 135 19 24
f 24 134 135
f 6 19 5
f 6 5 138
f 138 134 6
f 6 24 19
f 134 24 6
f 56 99 95
f 99 171 95
f 42 88 151
f 151 32 42
f 36 32 69
f 84 110 69
f 69 32 84
f 105 171 34
f 168 129 64
f 109 50 16
f 34 50 109
f 65 118 155
f 40 117 37
f 40 122 117
f 33 122 66
f 131 31 155
f 155 165 131
f 117 33 92
f 92 145 117
f 113 18 9
f 156 113 9
f 9 41 156
f 5 19 9
f 9 45 5
f 9 19 75
f 75 3 9
f 3 158 9
f 37 78 48
f 4 19 135
f 135 144 4
f 4 48 19
f 37 48 4
f 4 104 37
f 144 104 4
f 172 23 22
f 108 23 172
f 80 8 121
f 80 12 8
f 58 91 153
f 96 132 98
f 98 141 96
f 96 141 132
f 73 141 27
f 130 141 73
f 27 147 73
f 73 147 130
f 35 147 89
f 89 147 27
f 27 141 89
f 60 38 89
f 89 38 155
f 155 35 89
f 89 52 60
f 89 98 143
f 143 52 89
f 132 141 167
f 167 100 132
f 21 100 167
f 167 130 21
f 167 141 130
f 136 32 56
f 56 95 136
f 136 120 32
f 32 120 1
f 133 148 10
f 10 1 133
f 133 1 120
f 129 148 164
f 164 64 129
f 168 64 17
f 64 109 17
f 17 109 16
f 122 40 53
f 53 66 122
f 37 118 53
f 53 40 37
f 145 92 142
f 142 65 155
f 163 18 45
f 45 9 163
f 163 9 18
f 67 78 19
f 19 48 67
f 67 48 78
f 138 12 111
f 111 110 84
f 20 110 111
f 111 81 138
f 84 81 111
f 116 58 153
f 119 58 116
f 168 119 116
f 116 129 168
f 153 139 116
f 139 129 116
f 11 58 119
f 11 85 26
f 26 91 11
f 91 58 11
f 173 141 98
f 98 89 173
f 173 89 141
f 148 105 83
f 83 105 34
f 145 142 59
f 155 31 59
f 59 142 155
f 12 80 174
f 174 111 12
f 128 164 148
f 148 83 128
f 152 111 169
f 111 174 169
f 169 97 152
f 169 80 121
f 169 174 80
f 169 121 30
f 20 97 169
f 30 20 169
f 69 110 79
f 69 79 36
f 9 43 86
f 86 44 9
f 125 43 9
f 9 44 94
f 94 41 9
f 9 158 125
f 172 113 156
f 156 77 172
f 22 18 172
f 77 108 172
f 172 18 113
f 88 42 1
f 10 88 1
f 1 42 32
f 133 95 171
f 133 136 95
f 171 105 133
f 133 105 148
f 120 136 133
f 118 65 142
f 33 66 142
f 142 92 33
f 142 53 118
f 66 53 142
f 152 97 111
f 111 97 20
f 11 119 168
f 11 50 85
f 16 50 11
f 168 17 11
f 11 17 16
f 31 131 59
f 165 145 59
f 59 131 165
f 64 164 128
f 128 109 64
f 34 109 128
f 128 83 34

