# https://github.com/mikedh/trimesh
v -0.05203167 0.01297250 0.00616035
v -0.05133378 0.01531510 0.00462186
v -0.05451978 0.01354396 0.00111768
v -0.05012969 0.00541965 0.01154206
v -0.05525597 0.00055754 0.00508542
v -0.05065592 0.01704719 0.00317860
v -0.05613040 0.00574801 0.00281856
v -0.05415703 0.00212139 0.00672378
v -0.05522845 0.00634446 0.00436215
v -0.05499568 0.00244715 0.00544959
v -0.05642741 0.00498072 0.00247530
v -0.05267409 0.01405753 0.00384735
v -0.05002609 0.01306886 0.00888104
v -0.05209559 0.01680843 0.00114525
v -0.05028474 0.00377838 0.01160939
v -0.05201349 0.00734550 0.00889049
v -0.05439169 0.00843376 0.00496529
v -0.05092812 0.01352649 0.00056680
v -0.05310169 0.01239531 0.00482725
v -0.05643268 0.00511932 0.00242657
v -0.05211543 0.00026570 0.00470254
v -0.05010647 0.00983481 0.01058016
v -0.05177141 0.01627765 0.00253640
v -0.05043321 0.01767708 0.00244330
v -0.05572605 0.00908840 0.00222464
v -0.05489739 0.00415804 0.00533528
v -0.05757924 0.00197034 0.00083786
v -0.05770492 0.00383586 0.00032719
v -0.05046476 0.01587019 0.00544675
v -0.05639052 0.01000752 0.00040110
v -0.05015376 0.00301483 0.01187195
v -0.05739938 0.00645174 0.00006994
v -0.05731711 0.00396825 0.00105253
v -0.05412954 0.00645508 0.00599611
v -0.05148439 0.00459450 0.01005829
v -0.05405759 0.00952913 0.00505143
v -0.05548025 0.00383195 0.00446560
v -0.05240780 0.00232707 0.00904289
v -0.05374001 0.00012877 0.00194724
v -0.05439300 0.00147228 0.00641967
v -0.05233243 0.01240832 0.00612200
v -0.05084875 0.01055830 0.00942867
v -0.05285318 0.00330677 0.00850071
v -0.05007858 0.01256153 0.00318149
v -0.05489439 0.00721956 0.00463045
v -0.05418187 0.01296054 0.00247862
v -0.05779478 0.00403077 0.00008468
v -0.05019195 0.00142210 0.00740096
v -0.05001108 0.00330645 0.01199174
v -0.05403438 0.01329795 0.00242823
v -0.05630726 0.00941059 0.00092413
v -0.05278416 0.00343209 0.00857863
v -0.05515307 0.01329994 0.00012914
v -0.05047184 0.01872280 0.00052590
v -0.05044895 0.01125077 0.00958769
v -0.05003960 0.01510224 0.00683961
v -0.05352342 0.00321497 0.00754922
v -0.05295072 0.01068949 0.00633673
v -0.05362296 0.01141531 0.00471251
v -0.05775895 0.00099785 0.00052468
v -0.05601998 0.00017873 0.00369233
v -0.05101398 0.00909340 0.00970813
v -0.05384833 0.01312147 0.00294521
v -0.05351779 0.00983875 0.00580864
v -0.05102961 0.00938067 0.00959409
v -0.05035923 0.01104748 0.00981127
v -0.05445752 0.00485580 0.00006787
v -0.05764515 0.00122944 0.00073065
v -0.05541142 0.01248124 0.00036909
v -0.05514289 0.00208619 0.00523619
v -0.05264875 0.01658943 0.00052703
v -0.05504470 0.00373360 0.00518459
v -0.05118500 0.00560089 0.01031138
v -0.05525487 0.00646276 0.00429212
v -0.05696094 0.00170132 0.00198033
v -0.05125951 0.01570526 0.00423287
v -0.05304285 0.01324160 0.00417650
v -0.05723386 0.00336405 0.00136422
v -0.05478913 0.01326089 0.00092568
v -0.05000077 0.01506311 0.00693279
v -0.05508604 0.01129927 0.00217278
v -0.05511950 0.00922436 0.00333312
v -0.05194066 0.00622613 0.00931255
v -0.05112759 0.00536817 0.01041150
v -0.05046733 0.01386913 0.00099338
v -0.05328055 0.00007022 0.00272760
v -0.05540716 0.00275570 0.00476967
v -0.05539944 0.01140458 0.00141861
v -0.05573223 0.00312704 0.00418597
v -0.05636518 0.00243339 0.00306538
v -0.05042527 0.00013982 0.01151427
v -0.05446969 0.01095502 0.00359603
v -0.05032183 0.00744136 0.01096822
v -0.05459880 0.01169210 0.00275516
v -0.05153308 0.00290698 0.01017039
v -0.05489665 0.01123198 0.00258419
v -0.05417012 0.01392863 0.00128931
v -0.05435640 0.00085936 0.00087417
v -0.05097225 0.01224250 0.00820028
v -0.05262351 0.01314768 0.00498860
v -0.05465510 0.00287376 0.00017059
v -0.05414953 0.00064993 0.00675293
v -0.05174467 0.01385995 0.00563501
v -0.05151418 0.00609588 0.00985589
v -0.05474068 0.01103638 0.00303114
v -0.05530098 0.01060591 0.00235235
v -0.05111826 0.00684126 0.01020096
v -0.05106948 0.00735104 0.01013674
v -0.05305520 0.00996641 0.00018746
v -0.05569107 0.01094153 0.00123591
v -0.05367214 0.01443428 0.00156377
v -0.05571110 0.00271160 0.00426002
v -0.05030596 0.00951865 0.01043284
v -0.05339005 0.00476013 0.00747071
v -0.05227956 0.00616738 0.00883177
v -0.05039517 0.01111062 0.00973340
v -0.05527295 0.00088937 0.00505510
v -0.05258545 0.00577270 0.00845839
v -0.05019948 0.01338045 0.00202895
v -0.05196822 0.01364248 0.00551272
v -0.05377655 0.00369449 0.00710090
v -0.05410777 0.01250503 0.00299189
v -0.05589056 0.00732483 0.00270902
v -0.05149894 0.01363731 0.00624751
v -0.05506069 0.00608620 0.00467973
v -0.05668173 0.00293809 0.00247261
v -0.05543419 0.00788783 0.00335515
v -0.05749671 0.00276029 0.00097476
v -0.05493989 0.01136201 0.00239823
v -0.05342104 0.00665922 0.00701424
f 80 49 44
f 44 54 80
f 47 101 60
f 91 61 86
f 13 49 80
f 13 22 49
f 54 53 71
f 32 53 67
f 67 101 47
f 47 32 67
f 86 85 48
f 48 44 49
f 49 91 48
f 128 28 47
f 47 60 128
f 98 60 101
f 54 44 119
f 119 85 54
f 44 48 119
f 119 48 85
f 30 53 32
f 109 53 54
f 109 67 53
f 21 91 86
f 86 48 21
f 21 48 91
f 31 91 49
f 43 38 91
f 39 85 86
f 39 98 85
f 60 98 39
f 86 61 39
f 61 60 39
f 22 13 66
f 124 1 13
f 51 30 32
f 106 30 51
f 32 123 51
f 110 30 106
f 101 67 18
f 67 109 18
f 18 98 101
f 85 98 18
f 54 85 18
f 18 109 54
f 49 22 4
f 22 113 108
f 91 31 95
f 95 43 91
f 38 43 102
f 43 40 102
f 91 38 102
f 61 91 102
f 61 102 5
f 5 102 40
f 13 55 116
f 116 66 13
f 58 65 42
f 66 116 42
f 22 66 42
f 42 55 58
f 42 116 55
f 80 54 24
f 58 59 92
f 92 36 58
f 106 36 92
f 41 59 58
f 13 1 99
f 99 55 13
f 1 41 99
f 58 55 99
f 99 41 58
f 1 124 29
f 29 24 6
f 80 24 29
f 29 23 76
f 71 23 29
f 106 51 25
f 93 4 22
f 22 108 93
f 31 35 52
f 52 95 31
f 43 95 52
f 43 57 8
f 8 40 43
f 121 83 115
f 62 83 108
f 62 108 113
f 62 113 22
f 22 42 62
f 62 42 65
f 108 83 107
f 4 93 107
f 114 26 121
f 26 114 125
f 10 57 121
f 10 8 57
f 40 8 10
f 106 25 127
f 128 126 78
f 78 126 89
f 33 28 78
f 28 128 78
f 2 29 76
f 97 71 53
f 56 29 124
f 56 124 13
f 80 29 56
f 56 13 80
f 71 29 14
f 14 29 6
f 54 71 14
f 110 88 69
f 53 30 69
f 30 110 69
f 27 128 60
f 60 68 27
f 104 107 83
f 83 52 104
f 104 52 35
f 15 31 49
f 58 36 64
f 36 17 64
f 64 17 45
f 121 115 118
f 118 114 121
f 26 125 9
f 89 37 9
f 72 37 89
f 121 26 72
f 72 10 121
f 40 10 70
f 106 127 82
f 82 127 45
f 45 17 82
f 82 36 106
f 82 17 36
f 89 126 112
f 71 97 111
f 1 29 103
f 103 120 1
f 107 104 73
f 4 107 73
f 16 64 45
f 16 65 58
f 58 64 16
f 16 115 83
f 16 62 65
f 83 62 16
f 33 78 11
f 130 16 45
f 115 16 130
f 87 72 89
f 10 72 87
f 89 112 87
f 87 70 10
f 87 112 70
f 117 5 40
f 40 70 117
f 70 112 117
f 90 112 126
f 75 112 90
f 60 75 90
f 90 68 60
f 106 92 105
f 106 129 81
f 81 110 106
f 81 88 110
f 3 97 53
f 122 94 92
f 122 129 94
f 122 92 59
f 59 41 19
f 19 41 1
f 1 63 19
f 1 120 100
f 100 63 1
f 84 104 31
f 84 73 104
f 31 15 84
f 33 11 20
f 34 9 125
f 74 130 45
f 45 127 74
f 74 34 130
f 9 34 74
f 74 127 123
f 32 7 74
f 74 123 32
f 7 20 74
f 74 20 11
f 89 9 74
f 96 129 106
f 106 105 96
f 53 79 50
f 50 3 53
f 97 3 50
f 50 111 97
f 2 111 50
f 12 29 50
f 29 2 50
f 46 81 129
f 129 122 46
f 46 122 63
f 63 50 46
f 46 50 79
f 12 50 77
f 63 100 77
f 77 50 63
f 52 83 121
f 121 57 52
f 52 57 43
f 107 93 108
f 127 25 51
f 127 51 123
f 14 24 54
f 6 24 14
f 104 35 31
f 26 9 72
f 72 9 37
f 111 23 71
f 76 23 111
f 111 2 76
f 117 75 60
f 117 60 61
f 61 5 117
f 117 112 75
f 90 126 128
f 128 27 90
f 90 27 68
f 19 122 59
f 63 122 19
f 84 15 49
f 49 4 84
f 4 73 84
f 20 7 32
f 20 32 47
f 47 28 20
f 20 28 33
f 34 118 115
f 34 125 114
f 114 118 34
f 115 130 34
f 74 78 89
f 74 11 78
f 94 129 96
f 92 94 96
f 96 105 92
f 46 69 88
f 53 69 46
f 46 79 53
f 88 81 46
f 77 103 29
f 77 29 12
f 120 103 77
f 77 100 120

