# https://github.com/mikedh/trimesh
v -0.02368154 0.01331811 -0.08811545
v -0.03179512 0.00220286 -0.05053041
v -0.02630301 0.01428358 -0.07023976
v -0.02885427 0.00506783 -0.07973047
v -0.03125810 0.00320975 -0.06289116
v -0.02199401 0.01918483 -0.07595704
v -0.02345610 0.00523740 -0.09433711
v -0.02862384 0.01058244 -0.06767033
v -0.02328604 0.00706655 -0.09405262
v -0.03101325 0.00064203 -0.06833785
v -0.01427499 0.02244576 -0.06555765
v -0.02204196 0.00068246 -0.09729324
v -0.03118676 0.00176036 -0.06545324
v -0.02060172 0.01332644 -0.09469402
v -0.02601059 0.01387059 -0.07685738
v -0.02963991 0.00857511 -0.06592498
v -0.02957488 0.00728420 -0.07173011
v -0.03020572 0.00258874 -0.07432813
v -0.02793561 0.00614296 -0.08262308
v -0.03026469 0.00819238 -0.05140950
v -0.02685538 0.00089122 -0.08819464
v -0.02904802 0.00944666 -0.06912248
v -0.03101706 0.00612323 -0.05105136
v -0.02915265 0.00673393 -0.07609319
v -0.02562005 0.01528243 -0.06737371
v -0.02679069 0.00572944 -0.08677407
v -0.03070059 0.00488264 -0.06641312
v -0.00000289 0.00021759 -0.05109420
v -0.02165278 0.01884852 -0.08235228
v -0.03081375 0.00659286 -0.05241626
v -0.01666782 0.02244467 -0.07187634
v -0.02683599 0.01310679 -0.07358664
v -0.01776008 0.02246402 -0.07887519
v -0.02935295 0.00095324 -0.07943593
v -0.03054683 0.00714511 -0.05509541
v -0.02429559 0.01633869 -0.07760446
v -0.02513054 0.00409193 -0.09139198
v -0.02238650 0.00356117 -0.09635939
v -0.02531130 0.01501895 -0.07678543
v -0.01736119 0.01396005 -0.09904804
v -0.02116986 0.01343261 -0.09368292
v -0.02032860 0.01529854 -0.09351209
v -0.01085914 0.02203521 -0.05011357
v -0.02792214 0.01211327 -0.05012014
v -0.02781994 0.01203250 -0.06821515
v -0.02857567 0.00855388 -0.07631225
v -0.02700238 0.01348534 -0.06328141
v -0.02228977 0.01854242 -0.08036905
v -0.02441387 0.00298791 -0.09324274
v -0.02510401 0.01394292 -0.08205584
v -0.03009327 0.00827615 -0.05693943
v -0.01969562 0.01704505 -0.09263670
v -0.01408073 0.02247834 -0.09542807
v -0.02512874 0.00871376 -0.08902584
v -0.02404650 0.01654125 -0.07853413
v -0.02629140 0.01182483 -0.08158061
v -0.02774716 0.00123129 -0.08555088
v -0.03159585 0.00299770 -0.05476094
v -0.02884576 0.01091018 -0.05037402
v -0.01787480 0.02233008 -0.07724711
v -0.03092341 0.00237677 -0.06845000
v -0.01865035 0.02113075 -0.08688829
v -0.01450218 0.02247834 -0.09454837
v -0.02164163 0.00917662 -0.09554409
v -0.02318850 0.01802621 -0.07436234
v -0.01939031 0.01971425 -0.05018904
v -0.03188975 0.00063483 -0.05087571
v -0.02794577 0.00243724 -0.08450855
v -0.02571271 0.00071496 -0.09084650
v -0.03183781 0.00041229 -0.05258473
v -0.02344394 0.01433039 -0.08741298
v -0.00002678 0.02047598 -0.07214859
v -0.02135636 0.01848468 -0.08515507
v -0.03083512 0.00219885 -0.06930633
v -0.02498027 0.00090066 -0.09241735
v -0.02787704 0.01165248 -0.07060305
v -0.01524160 0.02244599 -0.06758979
v -0.02890752 0.01081286 -0.05161060
v -0.02032403 0.02058925 -0.07963706
v -0.02834176 0.00909953 -0.07650736
v -0.02266482 0.01658522 -0.08532823
v -0.02665131 0.00601088 -0.08702043
v -0.00000173 0.02203140 -0.05128462
v -0.02694786 0.01354667 -0.06499061
v -0.03154692 0.00074172 -0.06063508
v -0.02960536 0.00616775 -0.07436841
v -0.03180043 0.00103517 -0.05322817
v -0.03016389 0.00156538 -0.07499293
v -0.02636486 0.01306640 -0.07751633
v -0.02020731 0.01933669 -0.08712997
v -0.00027369 0.02047599 -0.09940082
v -0.02577847 0.00291869 -0.09022326
v -0.02123342 0.01814968 -0.08683231
v -0.02992396 0.00852941 -0.05950890
v -0.01840954 0.02181546 -0.07370005
v -0.02043511 0.01972258 -0.08461661
v -0.02588465 0.01351296 -0.07917462
v -0.01920062 0.01725805 -0.09343351
v -0.02878644 0.00097483 -0.08187656
v -0.02079496 0.02004370 -0.08072324
v -0.02562018 0.00817194 -0.08833073
v -0.01756917 0.02100144 -0.09073674
v -0.02853373 0.00859216 -0.07648520
v -0.02477188 0.01629378 -0.07101123
v -0.03037490 0.00098944 -0.07356026
v -0.01981875 0.01823617 -0.09072632
v -0.01991486 0.00968335 -0.09783661
v -0.01939729 0.01020514 -0.09832018
v -0.02334146 0.01533999 -0.08574376
v -0.01584465 0.02247834 -0.09105510
v -0.02557874 0.01346898 -0.08116077
v -0.01689218 0.01480567 -0.09912052
v -0.02739244 0.01277471 -0.06751742
v -0.01804179 0.01104247 -0.09969547
v -0.01721887 0.02234867 -0.07332172
v -0.02631115 0.01121140 -0.08253915
v -0.00000277 0.02129416 -0.05021165
v -0.02681112 0.00045083 -0.08832672
v -0.02693064 0.01358475 -0.06128403
v -0.02163610 0.00049595 -0.09787630
v -0.01595417 0.02247624 -0.09141422
v -0.02825769 0.01133293 -0.06796777
v -0.02486115 0.01620899 -0.06989434
v -0.01182796 0.02230229 -0.09968718
v -0.02426565 0.01637554 -0.05014731
v -0.02953328 0.00585571 -0.07536032
v -0.03111210 0.00547116 -0.05457559
v -0.02386500 0.01718425 -0.07529211
v -0.02463860 0.01369350 -0.08429267
v -0.02108878 0.00535825 -0.09784799
v -0.02700712 0.00853464 -0.08358846
v -0.02828179 0.01119678 -0.06852590
v -0.02098108 0.00615012 -0.09778062
v -0.02479149 0.01622264 -0.07266423
v -0.01595272 0.02247652 -0.06980942
v -0.03147871 0.00295991 -0.05872754
v -0.02519441 0.00395975 -0.09128162
v -0.02414186 0.00714244 -0.09225587
v -0.01818442 0.01469161 -0.09744084
v -0.03111575 0.00580376 -0.05149936
v -0.02942480 0.00813966 -0.07050356
v -0.03133669 0.00255501 -0.06268247
v -0.03117330 0.00412736 -0.06133968
v -0.02377177 0.00092842 -0.09466051
v -0.02446447 0.00032645 -0.09340427
v -0.01369403 0.02150504 -0.05021603
v -0.03165096 0.00318950 -0.05170180
v -0.02806872 0.00819755 -0.07977031
v -0.02510008 0.01433374 -0.08118941
v -0.02344441 0.01288618 -0.08911352
v -0.02882631 0.01063946 -0.06133966
v -0.02139364 0.01956044 -0.07924658
v -0.02732777 0.00962047 -0.08104624
v -0.02628967 0.01174422 -0.08173994
v -0.03169583 0.00280455 -0.05220880
v -0.03174277 0.00100798 -0.05488415
v -0.03065395 0.00645955 -0.05983269
v -0.02076598 0.00610699 -0.09811462
v -0.01475824 0.01946371 -0.09841627
v -0.02870562 0.01092401 -0.06023316
v -0.02737412 0.01257526 -0.07029970
v -0.02805945 0.00988851 -0.07628114
v -0.02429873 0.01583974 -0.08038926
v -0.00000280 0.00407304 -0.05001349
v -0.02701630 0.00031210 -0.08777891
v -0.01353101 0.02109286 -0.09854366
v -0.01749281 0.02004639 -0.09301291
v -0.03187349 0.00092028 -0.05102883
v -0.00000193 0.00343054 -0.05135150
v -0.02030086 0.02049964 -0.08095851
v -0.01379599 0.02247834 -0.09599853
v -0.01662145 0.01537071 -0.09908919
v -0.03088809 0.00297219 -0.06842171
v -0.01719350 0.01336681 -0.09955676
v -0.02405059 0.01413214 -0.08559692
v -0.02504866 0.01412111 -0.08189359
v -0.01272245 0.02134891 -0.09942762
v -0.02216928 0.00641912 -0.09592184
v -0.02274539 0.01739287 -0.08262658
v -0.02620835 0.01433399 -0.05049098
v -0.03027331 0.00466822 -0.07120265
v -0.02871442 0.00457634 -0.08082664
v -0.03093102 0.00254884 -0.06825009
v -0.02709891 0.00033850 -0.08756220
v -0.02817828 0.00991238 -0.07548498
v -0.02600661 0.00279829 -0.08973976
v -0.00888047 0.02247833 -0.09975160
v -0.02953585 0.00908926 -0.06326672
v -0.02755411 0.00260857 -0.08574723
v -0.03136511 0.00326239 -0.06063889
v -0.02481743 0.01625964 -0.06835024
v -0.02335108 0.00079676 -0.09537742
v -0.03140600 0.00139963 -0.06274589
v -0.02913356 0.00983116 -0.06431301
v -0.01319373 0.02225446 -0.09770188
v -0.02869039 0.00995555 -0.07060729
v -0.02584952 0.01498498 -0.06725490
v -0.03071890 0.00130897 -0.07078911
v -0.01914209 0.02134486 -0.07366101
v -0.01824372 0.01167283 -0.09922872
v -0.00208544 0.02250752 -0.05018748
v -0.02812595 0.00581213 -0.08224495
v -0.02194435 0.00652075 -0.09622886
v -0.03016252 0.00622581 -0.06930614
v -0.03049113 0.00073237 -0.07275095
v -0.02497027 0.00849759 -0.08954363
v -0.01773503 0.02247835 -0.07962188
v -0.01358139 0.02247834 -0.09634913
v -0.03164208 0.00176615 -0.05646613
v -0.03018747 0.00318294 -0.07402975
v -0.02697330 0.00834779 -0.08392020
v -0.01959041 0.02059384 -0.08468656
v -0.02183604 0.01829829 -0.05015581
v -0.02321332 0.01655273 -0.08317821
v -0.03005119 0.00201724 -0.07545794
v -0.02592443 0.01479246 -0.07069584
v -0.02977216 0.00321071 -0.07640427
v -0.02109720 0.01901453 -0.08430692
v -0.02212919 0.01869816 -0.08069272
v -0.03044562 0.00696649 -0.06096804
v -0.03141996 0.00173165 -0.06225177
v -0.02065542 0.02038067 -0.07450139
v -0.01818985 0.01607270 -0.09637604
v -0.02960740 0.00816791 -0.06859816
v -0.01496695 0.01831892 -0.09909613
v -0.03060202 0.00608967 -0.06380418
v -0.02996269 0.00408578 -0.07464014
v -0.02645125 0.00758861 -0.08645431
v -0.02822547 0.01155688 -0.06439542
v -0.02229523 0.00490083 -0.09617457
v -0.02324576 0.01703946 -0.08156731
v -0.01654277 0.02233109 -0.09011847
v -0.02787891 0.00816309 -0.08086184
v -0.01876792 0.00952544 -0.09951835
v -0.03187173 0.00054420 -0.05188566
v -0.02347197 0.00750360 -0.09351144
v -0.01587362 0.02019873 -0.09586865
v -0.03016267 0.00840873 -0.05162408
v -0.03095534 0.00523958 -0.06129635
v -0.01965852 0.00990192 -0.09809708
v -0.02764766 0.00817240 -0.08175859
v -0.02491919 0.01476174 -0.08075118
v -0.02197582 0.00913875 -0.09506361
v -0.03010018 0.00814067 -0.05857416
v -0.02706564 0.01319011 -0.06908482
v -0.02929407 0.00277191 -0.07920026
v -0.02734955 0.00917788 -0.08160586
v -0.01532604 0.01784825 -0.09900310
v -0.02886166 0.00571663 -0.07909291
v -0.02847862 0.00529157 -0.08138494
v -0.03110295 0.00292218 -0.06563606
v -0.02592694 0.00789181 -0.08783845
v -0.01740673 0.01742894 -0.09640625
v -0.02221852 0.01896848 -0.07580899
v -0.01910718 0.00737808 -0.09987353
v -0.03094786 0.00570955 -0.05846363
v -0.02004506 0.01654370 -0.09251923
v -0.02869291 0.00440190 -0.08106918
v -0.01614061 0.02098412 -0.05014696
v -0.02949225 0.00004239 -0.07867919
v -0.02413043 0.01183636 -0.08862633
v -0.02935671 0.00694117 -0.07454640
v -0.03083284 0.00315408 -0.06870182
v -0.02430992 0.01172789 -0.08832537
v -0.03027827 0.00816104 -0.05131866
v -0.02700804 0.00467364 -0.08673703
v -0.02795606 0.01078790 -0.07453265
v -0.02788558 0.01095619 -0.07452679
v -0.02143750 0.01017054 -0.09535014
v -0.02877286 0.01079222 -0.06031924
v -0.02862196 0.01081915 -0.06481257
v -0.02246224 0.01521663 -0.08856649
v -0.00000283 0.00017831 -0.05029721
v -0.02549043 0.01545312 -0.06615430
v -0.02503955 0.01565092 -0.05042555
v -0.01834263 0.02021841 -0.05090439
v -0.01908507 0.02139914 -0.07400799
v -0.01197601 0.02231721 -0.09946820
v -0.02430663 0.01344384 -0.08602210
v -0.02756964 0.00027419 -0.08616867
v -0.02732801 0.00483814 -0.08556210
v -0.02853199 0.01110619 -0.06321371
v -0.02762352 0.01133175 -0.07519494
v -0.01973239 0.00834736 -0.09875330
v -0.02711979 0.00905553 -0.08259692
v -0.01597340 0.01587156 -0.09951329
v -0.00011989 0.02164409 -0.09955751
v -0.02971684 0.00875371 -0.06276098
v -0.02573051 0.01209732 -0.08318651
v -0.02522958 0.01133611 -0.08615244
v -0.02135453 0.01965234 -0.07849944
v -0.02854361 0.01103473 -0.06393218
v -0.02358890 0.01444138 -0.08668039
v -0.02482997 0.01624907 -0.06983858
v -0.02909194 0.00095699 -0.08073228
v -0.02031051 0.00447263 -0.09920798
v -0.01744401 0.02053152 -0.05036260
v -0.02171525 0.01943154 -0.07595909
v -0.03146685 0.00144285 -0.06174633
v -0.02144681 0.01879601 -0.08352842
v -0.02269910 0.01859430 -0.07412693
v -0.02435556 0.01629324 -0.05000037
v -0.03148063 0.00403321 -0.05181395
v -0.02575764 0.01384351 -0.07877089
v -0.02930309 0.00231203 -0.07930282
v -0.02001983 0.00865861 -0.09819633
v -0.01953997 0.00642128 -0.09967498
v -0.03106678 0.00287482 -0.06618664
v -0.02497384 0.01588609 -0.07431014
v -0.01900710 0.02155551 -0.08069765
v -0.03156593 0.00206798 -0.05808620
v -0.02852480 0.00943446 -0.07456126
v -0.03037569 0.00050674 -0.07362275
v -0.01779054 0.02234045 -0.07669945
v -0.02246812 0.01423634 -0.08985895
v -0.03127468 0.00129250 -0.06460914
v -0.02804662 0.00872591 -0.07893894
v -0.03103202 0.00563729 -0.05614163
v -0.03061980 0.00144811 -0.07152017
v -0.02805520 0.00344511 -0.08373630
v -0.02956687 0.00074094 -0.07838289
v -0.02092096 0.01463311 -0.09293567
v -0.03136356 0.00310733 -0.06165021
v -0.02194932 0.00488092 -0.09669088
v -0.03090398 0.00324915 -0.06782031
v -0.01563583 0.01952645 -0.09700281
v -0.02961047 0.00405152 -0.07657248
v -0.02879447 0.00885079 -0.07432966
v -0.02033084 0.00224023 -0.09950158
v -0.02503048 0.01049964 -0.08785708
v -0.03029156 0.00698796 -0.06405330
v -0.01759300 0.01964974 -0.09336863
v -0.01783552 0.02057130 -0.09109872
v -0.00000276 0.01932402 -0.05003393
v -0.01353062 0.02217141 -0.09724918
v -0.02022797 0.00460042 -0.09928785
v -0.01998292 0.00474491 -0.09951088
v -0.03053419 0.00748044 -0.05087460
v -0.02800143 0.01196391 -0.06341682
v -0.02942503 0.00779893 -0.07160156
v -0.02772940 0.01129343 -0.07464149
v -0.00952716 0.02220587 -0.05020759
v -0.02188556 0.01891602 -0.08093641
v -0.03042992 0.00434587 -0.07034325
v -0.03149750 0.00280514 -0.05851027
v -0.02631434 0.00797411 -0.08657587
v -0.02238243 0.01876285 -0.07638065
v -0.02918844 0.00991322 -0.06140230
v -0.02971853 0.00929315 -0.05120871
v -0.02134485 0.01027123 -0.09543286
v -0.02938047 0.00735344 -0.07326351
v -0.02683444 0.00816704 -0.08459052
v -0.01760934 0.01206231 -0.09975241
v -0.02877560 0.01072670 -0.06162202
v -0.01954444 0.00811145 -0.09912036
v -0.02069351 0.00522407 -0.09846360
v -0.02866758 0.00090500 -0.08233106
v -0.03061130 0.00502081 -0.06731850
v -0.02308539 0.01115082 -0.09163857
v -0.02992689 0.00761512 -0.06664999
v -0.02089466 0.00271804 -0.09872233
v -0.02504020 0.01599957 -0.06907735
v -0.02671221 0.01360561 -0.07090155
v -0.02693954 0.01354490 -0.06613017
v -0.02694663 0.00693608 -0.08531080
v -0.02812423 0.00838902 -0.07913703
v -0.01744143 0.02247835 -0.08383736
v -0.02564319 0.01437383 -0.07732225
v -0.02510171 0.01524609 -0.07724074
v -0.01867763 0.01979326 -0.09054829
v -0.02586343 0.01102816 -0.08439596
v -0.03149188 0.00028129 -0.06199398
v -0.02203344 0.01870663 -0.08111560
v -0.02651394 0.01413039 -0.06441959
v -0.02654753 0.01407638 -0.06799220
v -0.01768564 0.02241023 -0.07695048
v -0.02391678 0.01197378 -0.08897590
v -0.03001633 0.00847601 -0.05660629
v -0.02998727 0.00253829 -0.07562832
v -0.02877457 0.00368313 -0.08116313
v -0.02747297 0.00926866 -0.08098235
v -0.02616079 0.01369354 -0.07648695
v -0.02249787 0.01821530 -0.08074020
v -0.01534186 0.01780033 -0.09901921
v -0.01562426 0.02247834 -0.06946501
v -0.02073044 0.01443648 -0.09356846
v -0.02885861 0.01030571 -0.06542156
v -0.02326488 0.01634846 -0.08353368
v -0.02144513 0.00020336 -0.09813197
v -0.02342717 0.00977693 -0.09205334
v -0.02821962 0.01157288 -0.06426191
v -0.02798083 0.00675106 -0.08190690
v -0.02460406 0.01181078 -0.08756009
v -0.02608362 0.00808525 -0.08724967
v -0.01891729 0.02058932 -0.08790695
v -0.02931800 0.00174604 -0.07939409
v -0.02361991 0.01732918 -0.07685232
v -0.00007958 0.02247831 -0.05356029
v -0.02079323 0.01354586 -0.09422969
v -0.01629621 0.01674043 -0.09854507
v -0.01660365 0.02113694 -0.09292342
v -0.02610427 0.01293148 -0.07967951
v -0.02666499 0.01135660 -0.08103132
v -0.02946758 0.00875861 -0.06774826
v -0.01988956 0.00368118 -0.09977268
v -0.02530009 0.01523069 -0.07554534
v -0.02681112 0.00166315 -0.08818948
v -0.01201835 0.02247818 -0.06197076
v -0.02716093 0.01280777 -0.07157992
v -0.03056935 0.00640095 -0.06266360
v -0.01705310 0.02215908 -0.08878982
v -0.01630744 0.02243449 -0.09050574
v -0.02423853 0.00420699 -0.09337593
v -0.02941014 0.00787449 -0.07150553
v -0.02019776 0.02060019 -0.07270158
v -0.02530415 0.01567192 -0.06595318
v -0.02295252 0.00689361 -0.09460813
v -0.02128714 0.01047764 -0.09540762
v -0.01894687 0.00811935 -0.09983305
v -0.03029697 0.00769939 -0.05707875
v -0.01923732 0.01800161 -0.09238369
v -0.02974773 0.00017359 -0.07738088
v -0.03111306 0.00059613 -0.06708462
v -0.02503059 0.00027093 -0.09234930
v -0.02566934 0.01502411 -0.05039212
v -0.02468003 0.01496870 -0.08127439
v -0.01366798 0.02042845 -0.09902375
v -0.02997961 0.00043414 -0.07623601
v -0.00000283 0.02223380 -0.05108081
v -0.01432517 0.01878114 -0.09954415
v -0.02364262 0.01383985 -0.08759925
v -0.02353412 0.01660300 -0.08172846
v -0.02764420 0.00532797 -0.08423364
v -0.02779289 0.01180725 -0.07058578
v -0.02956150 0.00912506 -0.06210421
v -0.02213596 0.01628744 -0.08784053
v -0.02984850 0.00797720 -0.06591960
v -0.02497529 0.01592894 -0.07370781
v -0.02571185 0.00561196 -0.08951020
v -0.01344177 0.02154345 -0.09817085
v -0.02785048 0.01121010 -0.07375457
v -0.00156999 0.02247820 -0.09946917
v -0.02285854 0.00926394 -0.09368061
v -0.02286188 0.01546733 -0.08727058
v -0.02938522 0.00878952 -0.06868066
v -0.02820084 0.00026087 -0.08410114
v -0.03027973 0.00617591 -0.06835035
v -0.01774341 0.02247431 -0.07904714
v -0.01756145 0.02013622 -0.09268099
v -0.02559265 0.01532075 -0.06634303
v -0.02624866 0.00082338 -0.08963598
v -0.03015082 0.00271284 -0.07470948
v -0.01773365 0.02233943 -0.08323681
v -0.02603350 0.00069873 -0.09014163
v -0.03150369 0.00025683 -0.06158880
v -0.02009817 0.01359627 -0.09528807
v -0.01989344 0.01531324 -0.09424107
v -0.02664178 0.00333714 -0.08816298
v -0.02654973 0.01297516 -0.07655805
v -0.03062587 0.00573490 -0.06502914
v -0.02797058 0.01092626 -0.07380316
v -0.02167741 0.01308616 -0.09295865
v -0.02349176 0.01336186 -0.08850774
v -0.03067491 0.00508559 -0.06623806
v -0.02167980 0.01726621 -0.08732741
v -0.01788813 0.02240440 -0.08001172
v -0.03133366 0.00316832 -0.06192452
v -0.03014320 0.00573226 -0.07061467
v -0.01986015 0.00675999 -0.09918548
v -0.01787988 0.01674064 -0.09628272
v -0.02291130 0.01757473 -0.08116230
v -0.00233059 0.02247821 -0.09950081
v -0.02748312 0.01045363 -0.07836049
v -0.02780796 0.00041888 -0.08546537
v -0.02227782 0.01860074 -0.07998231
v -0.03002734 0.00541381 -0.07216111
v -0.02002653 0.01656742 -0.09252936
v -0.02899750 0.00104617 -0.08107584
v -0.02796270 0.01140220 -0.07126417
v -0.02661698 0.00528352 -0.08764586
v -0.01965737 0.01870701 -0.09027190
v -0.02596976 0.01027757 -0.08504353
v -0.03142507 0.00240652 -0.06141088
v -0.02458032 0.01645516 -0.07386050
v -0.01034408 0.02212698 -0.05030963
v -0.02495462 0.01158373 -0.08673188
v -0.01782908 0.01892968 -0.09385998
v -0.02309590 0.01095158 -0.09179344
v -0.01771060 0.02247835 -0.08077749
v -0.02987196 0.00066794 -0.07681622
v -0.02221707 0.01036901 -0.09408161
v -0.01995181 0.00365286 -0.09971095
v -0.02486937 0.00443139 -0.09188699
v -0.02603123 0.01468919 -0.07002466
v -0.03188943 0.00065923 -0.05082922
v -0.02043153 0.00614878 -0.09858774
v -0.01134850 0.02247833 -0.09901975
v -0.03020010 0.00592515 -0.06975775
v -0.02126977 0.01346571 -0.09345885
v -0.02914115 0.01040711 -0.05098386
v -0.03130168 0.00169423 -0.06394675
v -0.01383078 0.02215207 -0.09677160
v -0.01535626 0.01706861 -0.09951176
v -0.01753372 0.02223539 -0.08630835
v -0.02868449 0.01099705 -0.05923303
v -0.02976465 0.00283253 -0.07670658
v -0.03004689 0.00360210 -0.07461443
v -0.02849204 0.00584985 -0.08085479
v -0.03032635 0.00298908 -0.07313660
v -0.02979938 0.00051580 -0.07719313
v -0.01504235 0.02237769 -0.09397360
v -0.02593605 0.00832266 -0.08747594
v -0.01465209 0.01921460 -0.09881303
v -0.03168400 0.00003311 -0.05613133
v -0.02718476 0.01312524 -0.06731586
v -0.02808221 0.00947031 -0.07716723
v -0.02079964 0.02026064 -0.07412165
v -0.01874283 0.01387229 -0.09715807
v -0.02344193 0.00048386 -0.09521125
v -0.02943187 0.00006717 -0.07899925
v -0.02878616 0.00286021 -0.08153007
v -0.03139718 0.00462924 -0.05065363
v -0.02975685 0.00506077 -0.07487974
v -0.02237898 0.01340695 -0.09099828
v -0.02882883 0.00528656 -0.07967122
v -0.01519313 0.02247834 -0.09277514
v -0.03130252 0.00042966 -0.06457215
v -0.02182701 0.01725125 -0.08690151
v -0.02309855 0.01782962 -0.07803224
v -0.02579073 0.01010289 -0.08590471
v -0.02947283 0.00963633 -0.05492405
v -0.02301982 0.01577369 -0.08603878
v -0.02638878 0.01274008 -0.07852073
v -0.01458481 0.02233866 -0.09505125
v -0.02283239 0.00638358 -0.09493848
v -0.02712752 0.00289187 -0.08705730
v -0.02381648 0.00945603 -0.09142115
v -0.01891159 0.01753130 -0.09363852
v -0.01243549 0.02247833 -0.06275778
v -0.03114314 0.00242354 -0.06551898
v -0.02806457 0.00793342 -0.08020365
v -0.02778226 0.01205134 -0.06869142
v -0.02469333 0.01611017 -0.07545745
v -0.01866564 0.02044161 -0.08914267
v -0.01798761 0.02027827 -0.09136001
v -0.02346721 0.01381472 -0.08805281
v -0.03027318 0.00644073 -0.06720489
v -0.03176079 0.00072962 -0.05481871
v -0.02567935 0.01331147 -0.08107863
v -0.03093122 0.00321229 -0.06753015
v -0.03057395 0.00624221 -0.06346447
v -0.02545653 0.01403853 -0.08013334
v -0.03071055 0.00700949 -0.05059577
v -0.02461584 0.01290351 -0.08585187
v -0.02214536 0.01908263 -0.07425076
v -0.02486452 0.00628314 -0.09107540
v -0.02744878 0.01261065 -0.06854827
v -0.02191791 0.01894238 -0.08050988
v -0.00440237 0.02252151 -0.05048425
v -0.02114504 0.00546775 -0.09773332
v -0.02764469 0.01157996 -0.07402572
v -0.02339642 0.01044650 -0.09157661
v -0.02642685 0.00443573 -0.08836430
v -0.02718033 0.00080181 -0.08734413
v -0.02136324 0.01567637 -0.09057588
v -0.02800533 0.00740859 -0.08121730
v -0.02723027 0.01174637 -0.07639151
v -0.02990536 0.00494986 -0.07391176
v -0.00000003 0.02090250 -0.05153772
v -0.02917505 0.00050996 -0.08044035
v -0.02707486 0.00211791 -0.08749855
v -0.00119483 0.02247819 -0.09939023
v -0.02922518 0.00686852 -0.07545881
v -0.01377392 0.02052171 -0.09879807
v -0.02454646 0.01078340 -0.08871601
v -0.03147410 0.00401322 -0.05216320
v -0.02432137 0.01611879 -0.07876462
v -0.01237367 0.02153600 -0.09971655
v -0.03023046 0.00252280 -0.07415962
v -0.02384428 0.01309953 -0.08796809
v -0.01626247 0.01642870 -0.09882914
v -0.02053336 0.00172256 -0.09929684
v -0.02940407 0.00570439 -0.07620098
v -0.02805253 0.00565923 -0.08260976
v -0.02846595 0.00056954 -0.08312332
v -0.02809198 0.00017905 -0.08449179
v -0.03133639 0.00021690 -0.06402290
v -0.02331062 0.00054570 -0.09544614
v -0.02067095 0.01539111 -0.09261701
v -0.02712549 0.00130995 -0.08745020
v -0.01829685 0.01419905 -0.09758856
v -0.01253609 0.02113789 -0.09986751
v -0.03163587 0.00331741 -0.05136838
v -0.03168911 0.00053846 -0.05685890
v -0.03185505 0.00127908 -0.05089366
v -0.02998485 0.00093435 -0.07615264
v -0.02684436 0.01334562 -0.07138412
v -0.02885235 0.00880200 -0.07395687
v -0.02432399 0.01259824 -0.08735925
v -0.02499610 0.01602840 -0.06568248
v -0.02674353 0.01101292 -0.08126288
v -0.01784569 0.01762549 -0.09546110
v -0.02937966 0.00621477 -0.07566937
v -0.02304645 0.01752976 -0.08064028
v -0.01209222 0.02181313 -0.05002345
v -0.02218670 0.01873904 -0.07953874
v -0.02392924 0.01659351 -0.07922951
v -0.03045602 0.00598899 -0.06663276
v -0.01702902 0.01325885 -0.09979843
v -0.01619542 0.02247834 -0.07168886
v -0.02856214 0.01076794 -0.06717539
v -0.03094504 0.00125559 -0.06884316
v -0.03057566 0.00495386 -0.06800122
v -0.01678647 0.02247834 -0.08713918
v -0.02593783 0.00534495 -0.08912996
v -0.03058868 0.00463867 -0.06845897
v -0.01767611 0.01435429 -0.09836232
v -0.02494959 0.01437287 -0.08170919
v -0.02851614 0.00278838 -0.08246224
v -0.02682755 0.01318526 -0.07314783
v -0.02426643 0.00635447 -0.09236779
v -0.03139763 0.00410093 -0.05412620
v -0.01788221 0.02218944 -0.07507875
v -0.02027308 0.01079718 -0.09672594
v -0.02474300 0.00874765 -0.08987354
v -0.02406883 0.00349742 -0.09383375
v -0.01998460 0.01816536 -0.09044987
v -0.02369794 0.01157670 -0.08989444
v -0.01956294 0.01503871 -0.09504661
v -0.02391038 0.00557447 -0.09349617
v -0.02318704 0.00742253 -0.09404333
v -0.02082827 0.00317297 -0.09875273
v -0.03066877 0.00620524 -0.06207127
v -0.02049480 0.01914131 -0.05036949
v -0.03022494 0.00827003 -0.05187293
v -0.03000170 0.00370786 -0.07477533
v -0.02893915 0.00355646 -0.08043781
v -0.01440749 0.02201917 -0.09598098
v -0.00000276 0.01767776 -0.05001805
v -0.02644776 0.01399950 -0.07126554
v -0.03098394 0.00625690 -0.05048049
v -0.02979829 0.00869254 -0.06145520
v -0.00080674 0.02249886 -0.05009904
v -0.02393577 0.01708404 -0.07553844
v -0.02228055 0.01896208 -0.07440402
v -0.02969613 0.00136314 -0.07753486
v -0.02436604 0.01581130 -0.08003671
v -0.02433681 0.01632400 -0.07732498
v -0.01931491 0.02131174 -0.08080144
v -0.02052987 0.00908430 -0.09724221
v -0.03171804 0.00134536 -0.05504261
v -0.02999021 0.00791191 -0.06366374
v -0.02916831 0.00977276 -0.06414969
v -0.03031424 0.00273472 -0.07338291
v -0.03113983 0.00043197 -0.06665275
v -0.01616266 0.01942585 -0.09629815
v -0.00639558 0.02242714 -0.05002520
v -0.03060242 0.00468261 -0.06826546
v -0.01770283 0.02234786 -0.07611642
v -0.03174174 0.00069084 -0.05539795
v -0.02405147 0.01705390 -0.07427180
v -0.03187908 0.00085958 -0.05086276
v -0.00000001 0.02001821 -0.05154017
v -0.01632350 0.02238368 -0.09062434
v -0.02968947 0.00925454 -0.05382651
v -0.02450963 0.01460901 -0.08289588
v -0.02582890 0.01360036 -0.07922615
v -0.02328054 0.00098257 -0.09547071
v -0.02927959 0.00731415 -0.07425501
v -0.01844711 0.02199137 -0.07960415
v -0.02970312 0.00929182 -0.05210750
v -0.03142603 0.00413558 -0.05295417
v -0.03088236 0.00527200 -0.06249323
v -0.02009055 0.01701349 -0.09177550
v -0.02710331 0.01038914 -0.08066977
v -0.02070592 0.01853662 -0.08765042
v -0.02999992 0.00826642 -0.06071997
v -0.02745094 0.01095253 -0.07725328
v -0.01279545 0.02240461 -0.09816858
v -0.02179385 0.01175455 -0.09386350
v -0.02988157 0.00894071 -0.05227874
v -0.02315474 0.01387707 -0.08870031
v -0.02645483 0.00738310 -0.08660624
v -0.02861983 0.01101913 -0.06189899
v -0.02942480 0.00408682 -0.07753378
v -0.00000154 0.00558779 -0.05138954
v -0.03087648 0.00564875 -0.06123700
v -0.02495926 0.01600350 -0.07272771
v -0.02972770 0.00795566 -0.06805250
v -0.02784377 0.01142564 -0.07259588
v -0.02675937 0.00233545 -0.08815710
f 67 273 495
f 273 2 495
f 164 273 663
f 164 2 273
f 70 273 67
f 70 514 273
f 260 389 273
f 273 514 260
f 329 405 91
f 663 273 686
f 273 169 686
f 492 405 329
f 663 334 639
f 639 164 663
f 334 657 639
f 302 164 639
f 639 657 302
f 67 495 168
f 2 595 662
f 662 495 2
f 662 168 495
f 595 168 662
f 273 389 28
f 389 91 28
f 28 169 273
f 582 91 389
f 329 91 582
f 302 66 213
f 302 657 605
f 526 559 63
f 569 334 663
f 643 657 334
f 302 425 44
f 44 164 302
f 2 164 44
f 170 62 212
f 96 212 62
f 235 70 67
f 67 168 235
f 595 87 235
f 235 168 595
f 287 28 91
f 287 405 255
f 287 91 405
f 302 213 125
f 115 297 31
f 634 213 66
f 275 425 302
f 302 301 275
f 275 301 425
f 31 297 259
f 259 297 66
f 259 66 302
f 302 605 259
f 497 559 187
f 187 124 497
f 559 526 110
f 201 559 657
f 657 643 201
f 572 559 201
f 201 643 572
f 117 643 334
f 334 569 117
f 2 44 641
f 72 686 169
f 169 28 72
f 28 287 72
f 663 686 72
f 72 569 663
f 572 643 398
f 398 287 572
f 623 634 66
f 66 297 276
f 297 115 276
f 213 634 95
f 95 623 60
f 634 623 95
f 517 125 213
f 302 125 517
f 517 301 302
f 517 555 301
f 425 301 600
f 31 259 135
f 135 448 31
f 135 207 448
f 559 385 135
f 43 605 657
f 657 342 43
f 43 135 605
f 63 559 53
f 559 171 53
f 511 63 53
f 53 171 511
f 208 559 497
f 208 171 559
f 442 559 572
f 572 287 442
f 581 112 139
f 419 609 255
f 200 518 591
f 591 518 139
f 656 253 602
f 42 98 602
f 602 470 42
f 253 470 602
f 167 638 237
f 534 638 167
f 511 171 534
f 286 112 503
f 503 609 286
f 286 609 112
f 353 114 200
f 353 419 114
f 609 419 353
f 504 411 62
f 504 62 170
f 59 641 44
f 59 78 500
f 2 641 522
f 349 59 500
f 283 567 403
f 620 640 309
f 309 406 620
f 78 339 505
f 500 78 505
f 627 589 565
f 565 444 627
f 565 272 444
f 100 79 170
f 212 96 343
f 343 96 219
f 426 163 432
f 570 295 585
f 429 72 287
f 287 398 429
f 429 398 643
f 643 117 429
f 329 582 361
f 361 632 329
f 361 668 632
f 336 492 329
f 405 492 336
f 277 95 60
f 213 415 222
f 222 517 213
f 415 277 222
f 222 277 60
f 60 33 222
f 489 559 367
f 489 207 559
f 610 385 559
f 559 207 610
f 610 135 385
f 207 135 610
f 376 33 60
f 376 115 31
f 31 448 376
f 448 33 376
f 191 600 301
f 119 59 44
f 301 555 645
f 146 259 605
f 605 135 146
f 146 135 259
f 657 559 408
f 485 43 342
f 135 43 485
f 472 187 559
f 559 442 472
f 287 187 472
f 472 442 287
f 503 112 172
f 172 581 503
f 112 581 172
f 139 112 617
f 112 40 617
f 112 609 174
f 174 40 112
f 200 40 174
f 174 353 200
f 609 353 174
f 592 609 503
f 124 187 592
f 255 609 592
f 592 287 255
f 592 187 287
f 253 513 248
f 513 225 248
f 159 253 656
f 159 513 253
f 253 248 400
f 400 581 139
f 200 108 624
f 200 114 234
f 114 419 234
f 530 486 330
f 530 330 512
f 284 9 306
f 284 108 200
f 284 306 108
f 463 682 524
f 524 462 463
f 42 322 315
f 315 589 42
f 42 589 257
f 257 477 42
f 167 237 332
f 332 421 167
f 106 421 627
f 167 421 106
f 52 421 98
f 52 98 42
f 42 477 52
f 93 73 90
f 90 73 96
f 481 106 627
f 167 106 481
f 375 245 515
f 640 245 375
f 514 70 372
f 70 235 372
f 136 155 58
f 2 522 593
f 140 522 641
f 641 59 553
f 32 406 39
f 32 620 406
f 391 339 515
f 56 154 403
f 388 81 532
f 388 426 432
f 444 272 71
f 71 293 444
f 627 444 436
f 436 465 627
f 444 465 436
f 532 81 528
f 528 444 532
f 528 465 444
f 529 397 644
f 529 48 397
f 291 79 152
f 79 100 152
f 100 343 558
f 558 343 219
f 219 606 558
f 558 152 100
f 96 73 218
f 73 300 218
f 432 163 604
f 604 231 432
f 163 607 604
f 604 48 219
f 179 73 93
f 93 432 179
f 432 231 179
f 242 426 149
f 163 426 242
f 678 283 403
f 403 473 678
f 516 473 403
f 585 295 357
f 357 521 585
f 433 480 266
f 586 520 570
f 260 520 586
f 389 260 586
f 569 72 83
f 72 429 83
f 83 117 569
f 83 429 117
f 668 361 12
f 329 632 296
f 296 336 329
f 255 405 307
f 307 419 255
f 632 668 38
f 668 626 38
f 213 95 199
f 95 277 199
f 199 415 213
f 199 277 415
f 207 489 466
f 466 222 33
f 448 207 466
f 466 33 448
f 60 623 314
f 314 376 60
f 659 623 66
f 115 376 659
f 66 276 659
f 659 276 115
f 294 191 301
f 362 191 294
f 301 661 294
f 274 191 362
f 274 119 425
f 180 119 44
f 180 44 425
f 425 119 180
f 65 661 301
f 301 606 65
f 475 606 219
f 475 65 606
f 219 48 475
f 48 529 475
f 347 606 301
f 301 254 347
f 6 79 291
f 6 254 301
f 301 645 6
f 342 11 77
f 77 11 135
f 77 485 342
f 135 485 77
f 559 135 539
f 539 408 559
f 135 11 539
f 539 11 342
f 539 342 657
f 657 408 539
f 42 470 457
f 457 629 42
f 470 629 457
f 513 592 430
f 430 225 513
f 430 592 503
f 503 581 384
f 384 430 503
f 581 400 384
f 384 400 248
f 656 237 440
f 440 166 656
f 427 592 513
f 326 159 656
f 223 470 253
f 253 400 223
f 223 400 139
f 139 629 223
f 223 629 470
f 418 269 491
f 200 624 418
f 418 518 200
f 491 518 418
f 491 269 443
f 443 562 488
f 330 486 393
f 486 599 393
f 393 575 330
f 431 599 279
f 279 71 431
f 293 71 279
f 279 175 293
f 682 463 546
f 546 315 682
f 589 315 546
f 674 589 627
f 674 257 589
f 487 332 237
f 98 421 538
f 421 332 538
f 332 487 538
f 538 487 237
f 538 602 98
f 656 602 538
f 538 237 656
f 232 664 544
f 62 411 232
f 411 504 232
f 412 504 367
f 412 232 504
f 664 232 412
f 511 534 401
f 401 534 167
f 544 664 121
f 664 412 121
f 511 401 121
f 121 401 333
f 121 63 511
f 121 526 63
f 121 110 526
f 121 412 367
f 544 90 395
f 62 232 395
f 395 232 544
f 395 96 62
f 395 90 96
f 370 481 544
f 438 216 494
f 640 375 3
f 3 375 494
f 494 216 3
f 78 59 47
f 59 119 47
f 299 372 85
f 514 372 455
f 246 521 295
f 58 155 147
f 147 155 2
f 2 593 147
f 522 140 127
f 256 140 157
f 363 245 640
f 122 113 45
f 214 388 432
f 81 388 214
f 175 279 129
f 176 111 149
f 96 29 373
f 219 96 373
f 373 29 300
f 373 300 73
f 383 604 219
f 552 242 149
f 149 111 552
f 647 607 163
f 647 577 607
f 647 369 577
f 39 369 647
f 543 406 309
f 644 397 543
f 26 480 433
f 675 516 403
f 403 153 675
f 403 116 601
f 601 153 403
f 116 371 601
f 236 443 9
f 236 630 621
f 9 630 236
f 295 521 478
f 433 266 281
f 281 266 521
f 281 250 433
f 480 563 571
f 446 570 585
f 446 586 570
f 120 582 389
f 120 361 582
f 120 12 361
f 12 120 588
f 389 519 588
f 588 120 389
f 405 336 337
f 337 307 405
f 336 307 337
f 469 307 336
f 419 307 469
f 79 222 670
f 670 466 79
f 222 466 670
f 79 466 310
f 362 294 123
f 600 191 416
f 191 274 416
f 425 600 416
f 416 274 425
f 362 375 25
f 25 274 362
f 119 274 374
f 374 47 119
f 375 47 374
f 644 661 128
f 661 65 128
f 79 6 298
f 298 6 645
f 491 443 680
f 488 462 680
f 680 443 488
f 359 462 488
f 359 628 462
f 377 628 261
f 150 463 462
f 462 628 150
f 628 377 150
f 679 440 237
f 638 534 679
f 166 440 679
f 679 534 171
f 171 208 679
f 679 208 497
f 159 326 574
f 513 159 574
f 574 427 513
f 656 166 574
f 574 326 656
f 108 306 240
f 306 107 240
f 350 418 624
f 269 418 350
f 306 9 631
f 9 443 631
f 269 107 650
f 650 107 306
f 562 443 390
f 390 575 562
f 330 575 390
f 580 393 599
f 580 599 431
f 264 628 575
f 575 393 264
f 261 628 264
f 554 279 599
f 486 530 290
f 530 371 290
f 290 371 116
f 482 371 530
f 285 131 241
f 530 131 285
f 285 482 530
f 333 401 545
f 481 370 545
f 544 333 545
f 545 370 544
f 102 333 544
f 544 121 102
f 102 121 333
f 614 121 367
f 110 121 614
f 367 559 614
f 559 110 614
f 544 481 676
f 676 90 544
f 93 90 676
f 676 481 627
f 627 465 676
f 676 528 93
f 465 528 676
f 364 339 78
f 515 339 364
f 364 375 515
f 594 372 235
f 594 85 372
f 660 594 235
f 85 594 660
f 136 483 311
f 58 190 323
f 323 136 58
f 323 483 136
f 587 455 372
f 587 260 514
f 514 455 587
f 303 593 522
f 303 576 593
f 318 140 256
f 318 127 140
f 51 677 244
f 23 140 641
f 94 677 51
f 642 677 94
f 59 349 265
f 288 677 642
f 689 404 445
f 122 282 229
f 229 282 391
f 20 265 238
f 238 265 349
f 22 445 132
f 132 404 122
f 132 445 404
f 461 445 441
f 437 404 689
f 689 360 437
f 557 45 113
f 557 113 515
f 515 245 557
f 122 45 542
f 542 409 122
f 161 409 542
f 597 409 161
f 597 363 640
f 620 409 597
f 640 620 597
f 175 129 50
f 50 129 111
f 111 176 50
f 231 604 471
f 604 383 471
f 549 552 111
f 549 56 403
f 39 647 368
f 241 566 233
f 233 566 508
f 80 103 328
f 328 312 80
f 480 26 82
f 521 246 380
f 202 250 508
f 508 566 202
f 480 615 493
f 493 563 480
f 439 556 621
f 480 556 439
f 439 615 480
f 626 144 75
f 521 357 99
f 99 478 521
f 536 266 480
f 480 571 536
f 37 493 413
f 563 493 37
f 585 521 57
f 668 12 192
f 12 588 192
f 192 588 144
f 496 469 336
f 496 356 158
f 296 356 496
f 336 296 496
f 419 469 355
f 355 234 419
f 200 234 355
f 355 284 200
f 453 310 466
f 453 489 367
f 453 466 489
f 367 504 453
f 170 79 649
f 79 310 649
f 649 504 170
f 649 453 504
f 310 453 649
f 688 438 494
f 438 688 484
f 309 438 484
f 484 661 644
f 484 543 309
f 644 543 484
f 197 25 375
f 375 374 197
f 274 25 450
f 450 374 274
f 399 680 41
f 14 680 399
f 491 680 14
f 335 237 638
f 497 124 278
f 278 679 497
f 166 679 278
f 427 574 177
f 177 278 124
f 177 574 166
f 166 278 177
f 269 650 64
f 1 546 463
f 431 546 1
f 1 580 431
f 279 554 289
f 403 154 289
f 289 554 116
f 289 116 403
f 241 131 211
f 228 346 394
f 512 252 394
f 394 252 480
f 480 82 394
f 153 601 247
f 247 285 241
f 241 233 247
f 167 481 449
f 481 545 449
f 449 401 167
f 449 545 401
f 78 47 84
f 84 364 78
f 84 47 375
f 375 364 84
f 548 235 87
f 548 660 235
f 87 156 548
f 299 483 221
f 483 323 221
f 256 687 672
f 143 323 190
f 256 157 633
f 633 687 256
f 677 652 633
f 313 428 422
f 260 587 422
f 422 587 313
f 508 525 249
f 4 525 508
f 420 244 677
f 677 23 35
f 35 420 677
f 338 553 59
f 59 265 338
f 196 445 22
f 441 445 196
f 16 288 404
f 404 437 16
f 677 288 16
f 16 652 677
f 681 238 349
f 665 681 270
f 270 681 531
f 20 238 635
f 635 94 51
f 268 461 341
f 341 461 441
f 441 561 341
f 267 268 341
f 341 312 267
f 567 283 341
f 341 185 312
f 479 132 122
f 532 666 618
f 618 666 176
f 618 176 149
f 532 444 109
f 109 666 532
f 552 549 402
f 402 549 403
f 304 552 667
f 577 36 55
f 607 577 55
f 55 543 397
f 473 516 162
f 516 80 162
f 312 185 162
f 162 80 312
f 262 603 126
f 153 247 381
f 381 247 233
f 366 233 148
f 603 24 148
f 433 250 584
f 250 202 584
f 365 202 19
f 138 236 621
f 621 556 138
f 252 236 138
f 413 626 49
f 626 75 49
f 389 586 424
f 521 266 320
f 68 57 521
f 571 57 68
f 280 586 474
f 474 564 280
f 586 446 474
f 474 446 585
f 585 57 474
f 7 626 413
f 413 630 7
f 7 630 9
f 104 123 294
f 104 294 661
f 661 484 104
f 386 41 499
f 499 680 462
f 499 41 680
f 42 386 499
f 499 322 42
f 139 518 456
f 456 629 139
f 456 518 491
f 491 14 456
f 456 399 629
f 456 14 399
f 638 679 502
f 502 335 638
f 679 335 502
f 195 679 237
f 237 335 195
f 195 335 679
f 124 592 578
f 578 177 124
f 243 631 443
f 243 443 269
f 269 64 243
f 537 390 443
f 443 625 537
f 101 236 252
f 512 330 101
f 101 252 512
f 241 211 352
f 211 394 352
f 352 394 346
f 228 394 683
f 683 394 82
f 683 19 228
f 365 19 683
f 136 311 345
f 311 209 345
f 651 209 311
f 87 209 651
f 651 156 87
f 299 221 193
f 193 372 299
f 622 672 687
f 576 672 622
f 593 576 622
f 323 143 239
f 220 633 157
f 677 633 220
f 331 437 360
f 428 596 490
f 509 173 263
f 10 423 316
f 612 198 10
f 198 205 10
f 10 205 313
f 316 423 527
f 372 193 527
f 527 193 316
f 527 587 372
f 250 380 258
f 30 23 641
f 30 35 23
f 122 404 8
f 8 611 122
f 122 611 188
f 188 288 642
f 445 598 224
f 224 598 141
f 689 445 224
f 141 598 414
f 414 598 340
f 340 598 17
f 17 598 351
f 671 681 349
f 531 681 671
f 684 505 339
f 339 391 684
f 391 282 684
f 94 635 378
f 378 635 238
f 382 561 32
f 382 341 561
f 382 32 39
f 76 479 122
f 441 132 690
f 132 479 690
f 690 561 441
f 97 402 533
f 552 402 97
f 667 552 97
f 97 533 567
f 567 341 97
f 543 55 648
f 648 55 36
f 573 24 603
f 603 262 573
f 328 262 669
f 669 598 328
f 351 598 669
f 86 262 126
f 317 233 366
f 317 381 233
f 366 103 317
f 103 80 317
f 603 148 541
f 541 148 233
f 392 202 566
f 392 19 202
f 413 49 454
f 145 519 389
f 389 424 145
f 145 588 519
f 144 588 145
f 145 75 144
f 145 424 75
f 189 536 571
f 571 68 189
f 521 320 619
f 619 68 521
f 590 57 571
f 564 474 590
f 590 474 57
f 137 37 413
f 458 571 563
f 458 691 571
f 417 7 9
f 230 38 626
f 626 7 230
f 134 484 688
f 134 104 484
f 206 625 443
f 206 101 625
f 625 101 54
f 54 101 330
f 551 331 360
f 447 17 204
f 340 17 447
f 689 224 447
f 447 204 498
f 510 490 570
f 428 490 510
f 295 570 34
f 313 205 105
f 61 183 173
f 173 74 61
f 61 74 198
f 61 198 612
f 142 221 323
f 423 10 655
f 313 587 655
f 655 10 313
f 319 205 198
f 227 636 507
f 217 452 507
f 507 636 217
f 88 452 596
f 313 105 88
f 88 428 313
f 88 596 428
f 210 452 509
f 507 452 210
f 509 263 210
f 509 452 654
f 126 249 583
f 583 249 525
f 250 258 182
f 508 250 182
f 182 4 508
f 637 380 246
f 637 258 380
f 122 188 194
f 505 684 160
f 160 684 270
f 500 505 160
f 354 435 642
f 270 684 354
f 341 382 459
f 39 368 15
f 15 382 39
f 15 368 552
f 552 304 15
f 122 409 434
f 434 76 122
f 46 573 262
f 328 103 46
f 46 262 328
f 498 86 468
f 468 86 476
f 451 92 413
f 413 454 451
f 407 571 451
f 571 691 451
f 69 49 75
f 69 454 49
f 75 424 69
f 424 454 69
f 165 586 280
f 165 424 586
f 691 137 186
f 186 137 413
f 413 92 186
f 92 451 186
f 186 451 691
f 7 417 535
f 38 230 324
f 410 551 633
f 331 551 410
f 633 551 226
f 608 460 226
f 687 633 226
f 226 460 687
f 673 239 687
f 687 460 673
f 323 239 673
f 325 263 173
f 689 447 547
f 547 447 608
f 570 490 321
f 321 34 570
f 295 34 396
f 316 193 501
f 173 183 308
f 523 86 126
f 636 227 523
f 126 583 523
f 506 217 246
f 452 217 506
f 506 379 452
f 327 4 685
f 685 636 327
f 685 217 636
f 4 182 685
f 596 452 215
f 452 379 215
f 18 654 452
f 122 194 387
f 387 271 122
f 642 435 653
f 653 188 642
f 653 194 188
f 292 282 122
f 122 271 292
f 270 354 151
f 665 270 151
f 89 97 341
f 341 459 89
f 118 454 424
f 424 165 118
f 118 451 454
f 280 564 184
f 184 165 280
f 564 118 184
f 184 118 165
f 130 324 230
f 230 560 130
f 158 356 130
f 130 560 158
f 613 447 498
f 608 447 613
f 344 181 263
f 305 506 246
f 305 246 295
f 295 396 305
f 251 142 323
f 13 308 183
f 316 501 13
f 476 86 568
f 86 523 568
f 568 523 227
f 568 181 476
f 263 181 568
f 198 654 579
f 654 18 579
f 579 319 198
f 348 354 642
f 348 151 354
f 407 451 21
f 451 118 21
f 21 571 407
f 21 590 571
f 21 118 564
f 133 203 158
f 158 560 133
f 616 344 263
f 596 305 646
f 646 305 396
f 646 490 596
f 550 251 323
f 323 467 550
f 308 251 550
f 550 325 173
f 173 308 550
f 540 13 501
f 308 13 540
f 203 133 178
f 417 203 178
f 178 535 417
f 263 325 658
f 658 616 263
f 325 613 658
f 658 613 498
f 498 468 658
f 27 467 464
f 358 27 464
f 358 464 460
f 358 460 608
f 608 613 358
f 5 550 467
f 467 27 5
f 343 100 170
f 170 212 343
f 200 591 617
f 617 40 200
f 617 591 139
f 300 29 218
f 218 29 96
f 376 314 659
f 659 314 623
f 152 558 6
f 606 347 6
f 291 152 6
f 6 558 606
f 6 347 254
f 225 430 384
f 384 248 225
f 431 71 546
f 546 565 589
f 272 565 546
f 546 71 272
f 674 52 477
f 627 421 674
f 477 257 674
f 421 52 674
f 3 438 309
f 309 640 3
f 216 438 3
f 214 528 81
f 214 432 93
f 93 528 214
f 128 475 529
f 128 529 644
f 65 475 128
f 517 222 298
f 555 517 298
f 298 222 79
f 298 645 555
f 562 575 359
f 488 562 359
f 575 628 359
f 108 240 350
f 350 624 108
f 350 107 269
f 350 240 107
f 290 554 599
f 290 599 486
f 116 554 290
f 515 113 229
f 229 391 515
f 229 113 122
f 597 542 45
f 245 363 597
f 597 557 245
f 45 557 597
f 161 542 597
f 219 373 471
f 73 179 471
f 471 179 231
f 471 373 73
f 471 383 219
f 242 552 368
f 163 242 368
f 368 647 163
f 250 281 380
f 380 281 521
f 621 630 439
f 439 630 413
f 413 493 439
f 439 493 615
f 295 478 99
f 99 357 295
f 192 144 626
f 192 626 668
f 450 197 374
f 25 197 450
f 42 629 41
f 41 386 42
f 629 399 41
f 261 264 1
f 463 150 1
f 1 377 261
f 1 150 377
f 393 580 1
f 1 264 393
f 111 129 289
f 289 129 279
f 154 56 289
f 289 549 111
f 56 549 289
f 394 131 530
f 394 530 512
f 394 211 131
f 247 601 371
f 482 285 247
f 371 482 247
f 672 303 522
f 672 318 256
f 522 127 672
f 576 303 672
f 127 318 672
f 196 132 441
f 22 132 196
f 598 268 267
f 267 312 598
f 445 461 598
f 598 312 328
f 598 461 268
f 149 426 618
f 426 388 618
f 618 388 532
f 293 175 109
f 444 293 109
f 175 50 109
f 176 666 109
f 109 50 176
f 567 533 402
f 403 567 402
f 55 604 607
f 397 48 55
f 48 604 55
f 162 678 473
f 283 678 162
f 162 341 283
f 185 341 162
f 138 556 480
f 480 252 138
f 499 462 524
f 524 682 499
f 499 315 322
f 682 315 499
f 427 177 578
f 592 427 578
f 243 650 306
f 306 631 243
f 243 64 650
f 683 82 26
f 683 26 433
f 433 584 683
f 683 202 365
f 683 584 202
f 2 155 345
f 345 595 2
f 345 87 595
f 155 136 345
f 345 209 87
f 651 483 299
f 299 85 651
f 651 548 156
f 85 660 651
f 651 311 483
f 660 548 651
f 58 147 239
f 239 190 58
f 239 147 593
f 239 143 190
f 593 622 239
f 239 622 687
f 140 23 220
f 220 157 140
f 220 23 677
f 641 553 30
f 553 338 30
f 30 635 51
f 51 244 30
f 30 265 20
f 244 420 30
f 420 35 30
f 30 338 265
f 20 635 30
f 188 8 404
f 404 288 188
f 611 8 188
f 648 369 39
f 39 406 648
f 577 369 648
f 406 543 648
f 648 36 577
f 86 17 351
f 351 669 86
f 498 204 86
f 204 17 86
f 86 669 262
f 317 80 516
f 153 381 317
f 516 675 317
f 317 675 153
f 508 249 541
f 541 233 508
f 126 603 541
f 541 249 126
f 228 19 392
f 392 346 228
f 392 566 241
f 241 352 392
f 392 352 346
f 619 320 266
f 266 536 619
f 536 189 619
f 619 189 68
f 37 137 458
f 563 37 458
f 458 137 691
f 494 375 134
f 134 375 362
f 362 123 134
f 134 688 494
f 123 104 134
f 236 101 206
f 443 236 206
f 330 390 54
f 390 537 54
f 54 537 625
f 141 414 447
f 447 224 141
f 447 414 340
f 570 520 510
f 510 520 260
f 260 422 510
f 510 422 428
f 655 527 423
f 587 527 655
f 654 173 509
f 198 74 654
f 654 74 173
f 160 671 349
f 160 349 500
f 160 270 531
f 531 671 160
f 434 409 620
f 32 561 434
f 561 690 434
f 620 32 434
f 479 76 434
f 434 690 479
f 366 148 46
f 46 103 366
f 46 148 24
f 24 573 46
f 652 16 410
f 437 331 410
f 410 633 652
f 410 16 437
f 608 226 547
f 547 360 689
f 547 551 360
f 547 226 551
f 327 636 523
f 523 4 327
f 525 4 523
f 523 583 525
f 246 217 685
f 685 182 258
f 685 637 246
f 258 637 685
f 435 354 292
f 292 387 194
f 292 684 282
f 292 653 435
f 292 354 684
f 271 387 292
f 194 653 292
f 89 304 667
f 667 97 89
f 89 459 382
f 89 15 304
f 382 15 89
f 203 496 158
f 284 355 203
f 9 284 203
f 469 496 203
f 203 355 469
f 203 417 9
f 632 38 130
f 130 296 632
f 130 356 296
f 38 324 130
f 379 506 305
f 596 215 305
f 305 215 379
f 13 61 612
f 612 10 13
f 13 10 316
f 183 61 13
f 568 227 507
f 507 210 568
f 568 210 263
f 452 88 579
f 205 319 579
f 579 105 205
f 579 88 105
f 579 18 452
f 642 94 348
f 348 681 665
f 94 378 348
f 238 681 348
f 665 151 348
f 348 378 238
f 564 590 21
f 467 673 460
f 323 673 467
f 460 464 467
f 34 321 646
f 646 321 490
f 646 396 34
f 221 142 540
f 540 193 221
f 540 501 193
f 142 251 540
f 540 251 308
f 7 535 178
f 178 230 7
f 178 560 230
f 178 133 560
f 344 616 658
f 658 468 476
f 476 181 658
f 181 344 658
f 325 550 5
f 5 613 325
f 5 358 613
f 27 358 5

