# https://github.com/mikedh/trimesh
v -0.01450704 0.02869555 -0.17252412
v -0.01891706 0.00012160 -0.19706167
v -0.01283869 0.02251444 -0.19910608
v -0.00039035 0.00925022 -0.15171145
v -0.03349113 0.00103901 -0.16773685
v -0.00022334 0.03315013 -0.15475393
v -0.02417843 0.03030093 -0.15453100
v -0.02926291 0.02477085 -0.15010902
v -0.00741177 0.00001800 -0.19120282
v -0.03315102 0.01436004 -0.15058340
v -0.03343801 0.00035049 -0.16513090
v -0.03357733 0.00462595 -0.17189966
v -0.00117614 0.00218299 -0.15847636
v -0.02596174 0.00001932 -0.15988973
v -0.00266939 0.03306255 -0.15546229
v -0.00056529 0.03302994 -0.15567886
v -0.00775706 0.03299367 -0.15525041
v -0.01098718 0.03352752 -0.15082297
v -0.00141001 0.03259938 -0.15853766
v -0.00057193 0.02283818 -0.19870753
v -0.03335063 0.02147906 -0.16025392
v -0.03359157 0.00438563 -0.17260931
v -0.03357866 0.00626104 -0.17192162
v -0.00030995 0.00347707 -0.17783577
v -0.00018604 0.02327622 -0.19677443
v -0.01470130 0.02860692 -0.17275539
v -0.03316097 0.02437308 -0.15080886
v -0.00882726 0.03094878 -0.16579319
v -0.00010754 0.03366803 -0.15026229
v -0.02507503 0.02975226 -0.15638325
v -0.00225254 0.03069571 -0.16847160
v -0.00903399 0.02241493 -0.19965177
v -0.00933296 0.03199825 -0.16066103
v -0.03326473 0.01974308 -0.15605706
v -0.00757543 0.00033901 -0.19923338
v -0.00778048 0.03257221 -0.15815834
v -0.00205796 0.02262817 -0.19964519
v -0.00050718 0.02888482 -0.15004165
v -0.01744135 0.01738590 -0.19944095
v -0.01637485 0.02048849 -0.19966167
v -0.01846376 0.00540237 -0.19991666
v -0.00418666 0.03271172 -0.15790229
v -0.03344415 0.00038112 -0.16543364
v -0.03322623 0.00029695 -0.15467148
v -0.00015637 0.00919050 -0.15193889
v -0.03347254 0.00070517 -0.16682754
v -0.00745322 0.03121114 -0.16517675
v -0.03357107 0.00459190 -0.17159096
v -0.01239848 0.00001428 -0.17777385
v -0.01242298 0.02248666 -0.19928665
v -0.00712897 0.03128534 -0.16491193
v -0.00860957 0.03120501 -0.16472605
v -0.00000257 0.02887350 -0.17522333
v -0.00352646 0.00002596 -0.17813739
v -0.00774915 0.03125707 -0.16485351
v -0.03319936 0.01679700 -0.15290646
v -0.01851470 0.00136952 -0.19996376
v -0.02322525 0.03072177 -0.15110732
v -0.03328643 0.01153196 -0.17054918
v -0.03322325 0.00028226 -0.15452488
v -0.00558284 0.03128801 -0.16520852
v -0.00605228 0.03351227 -0.15179994
v -0.00038358 0.03161014 -0.16374182
v -0.01524638 0.02228524 -0.19740911
v -0.03352239 0.01192484 -0.16899189
v -0.00375937 0.03047460 -0.16924106
v -0.00758372 0.00102497 -0.19962145
v -0.02504191 0.02956963 -0.15716249
v -0.00318100 0.00090178 -0.16116221
v -0.03330383 0.02124210 -0.15794863
v -0.00758758 0.00222681 -0.19977854
v -0.00428780 0.03090125 -0.16733046
v -0.03347891 0.01543896 -0.16675109
v -0.00312042 0.03115963 -0.16608235
v -0.02496270 0.03012053 -0.15082487
v -0.00320532 0.03298129 -0.15605645
v -0.03314343 0.00061987 -0.15057326
v -0.03315978 0.01559643 -0.15098315
v -0.00594787 0.03193947 -0.16188042
v -0.03345265 0.01723954 -0.16540611
v -0.03352091 0.00010026 -0.16923287
v -0.00120857 0.00934910 -0.15132614
v -0.00759284 0.00405802 -0.19998723
v -0.01043142 0.00002563 -0.19144333
v -0.00615268 0.03034969 -0.16945938
v -0.00236872 0.03266466 -0.15818610
v -0.03303456 0.02465207 -0.15099762
v -0.00220498 0.00103500 -0.17791752
v -0.01163111 0.03326978 -0.15256069
v -0.00295480 0.01503889 -0.15004743
v -0.02217484 0.03082434 -0.15019116
v -0.00023016 0.03334748 -0.15324405
v -0.00358958 0.03291644 -0.15650404
v -0.00639698 0.03177953 -0.16262447
v -0.00266266 0.03080815 -0.16793226
v -0.00391025 0.03346606 -0.15229708
v -0.01223481 0.02785378 -0.17743288
v -0.00472372 0.03097043 -0.16692322
v -0.01319790 0.03343953 -0.15002053
v -0.01308041 0.02804744 -0.17626135
v -0.00337601 0.03370519 -0.15010024
v -0.00254011 0.00070234 -0.17792746
v -0.00532002 0.03256721 -0.15863195
v -0.00015119 0.00413176 -0.15797554
v -0.00762902 0.03261746 -0.15794530
v -0.01278146 0.03319347 -0.15176547
v -0.00283949 0.03213695 -0.16095288
v -0.01054478 0.03174156 -0.16117814
v -0.00054512 0.03076448 -0.16818102
v -0.00267190 0.03345497 -0.15245987
v -0.00356323 0.03263807 -0.15830537
v -0.03324364 0.02342185 -0.15491764
v -0.00602769 0.03327063 -0.15358875
v -0.00759926 0.01626270 -0.19997082
v -0.03314708 0.01806737 -0.15029041
v -0.00153177 0.00938158 -0.15119845
v -0.00318092 0.03113632 -0.16620374
v -0.00008994 0.01653391 -0.17272376
v -0.01442144 0.02793080 -0.17581656
v -0.00572004 0.03134468 -0.16490469
v -0.00750637 0.00003899 -0.19584954
v -0.00198391 0.03346820 -0.15234790
v -0.03329084 0.02260644 -0.15727069
v -0.00977123 0.03116668 -0.16435190
v -0.01816964 0.01251655 -0.19937346
v -0.00708267 0.03196071 -0.16156956
v -0.03219726 0.00015828 -0.15992168
v -0.03327148 0.02018209 -0.15637877
v -0.00948870 0.02088693 -0.19990606
v -0.00071150 0.03222437 -0.16051333
v -0.00332448 0.00035453 -0.16821234
v -0.00217089 0.02262009 -0.19968080
v -0.03346019 0.00067962 -0.17243865
v -0.00009996 0.03255725 -0.15871760
v -0.00922624 0.03061564 -0.16712579
v -0.01988513 0.00008030 -0.19081820
v -0.03316356 0.00047481 -0.15157161
v -0.03292959 0.02292351 -0.15797976
v -0.00878993 0.03147701 -0.16339870
v -0.00797668 0.03212763 -0.16045300
v -0.03357142 0.00018992 -0.17172572
v -0.03329103 0.02196753 -0.15729691
v -0.00139646 0.03358661 -0.15114721
v -0.01307432 0.02257127 -0.19884009
v -0.01079963 0.03240718 -0.15772817
v -0.00792048 0.03012286 -0.16977969
f 14 81 136
f 118 25 53
f 24 25 118
f 77 90 8
f 99 8 90
f 53 109 134
f 20 25 24
f 24 35 20
f 53 25 20
f 20 109 53
f 54 14 49
f 57 133 22
f 81 14 127
f 116 90 77
f 101 99 38
f 38 99 90
f 81 43 46
f 30 138 87
f 27 8 91
f 91 99 58
f 8 99 91
f 79 126 103
f 88 35 24
f 35 54 121
f 2 57 35
f 2 121 136
f 35 121 2
f 136 81 2
f 4 38 90
f 45 38 4
f 29 38 45
f 29 45 53
f 53 134 29
f 29 143 101
f 101 38 29
f 11 43 81
f 81 46 5
f 43 70 23
f 23 46 43
f 23 59 22
f 23 5 46
f 128 78 27
f 128 70 43
f 43 44 128
f 112 27 87
f 87 138 112
f 138 30 68
f 68 30 26
f 115 8 27
f 77 8 115
f 87 27 75
f 27 91 75
f 75 91 58
f 75 30 87
f 18 99 101
f 18 89 99
f 99 89 106
f 63 134 109
f 119 68 26
f 109 20 37
f 37 132 109
f 40 50 32
f 50 132 32
f 132 37 83
f 102 54 35
f 35 88 102
f 9 54 49
f 9 121 54
f 49 14 9
f 133 57 141
f 57 2 141
f 141 2 81
f 22 133 141
f 41 57 22
f 22 125 41
f 90 116 82
f 82 4 90
f 82 116 77
f 43 11 60
f 60 44 43
f 60 11 81
f 81 127 60
f 60 127 14
f 14 137 60
f 78 44 60
f 60 137 78
f 40 59 80
f 5 23 48
f 56 44 78
f 78 128 56
f 27 78 10
f 10 115 27
f 77 115 10
f 10 137 77
f 78 137 10
f 30 75 7
f 7 75 58
f 99 106 7
f 7 106 30
f 58 99 7
f 96 110 76
f 122 110 101
f 101 143 122
f 122 29 92
f 143 29 122
f 134 16 6
f 92 29 6
f 6 29 134
f 76 110 15
f 15 16 76
f 105 36 89
f 105 42 103
f 103 126 105
f 126 36 105
f 62 96 76
f 62 18 101
f 101 110 62
f 110 96 62
f 89 18 113
f 18 62 113
f 89 145 1
f 1 106 89
f 1 145 108
f 26 30 1
f 30 106 1
f 1 119 26
f 108 145 33
f 89 36 33
f 33 145 89
f 130 19 134
f 134 63 130
f 68 119 144
f 66 132 50
f 50 85 66
f 129 32 132
f 40 32 129
f 129 41 40
f 57 41 129
f 57 83 71
f 71 83 37
f 84 14 136
f 84 9 14
f 136 121 84
f 121 9 84
f 13 102 88
f 13 88 24
f 45 4 13
f 13 82 77
f 4 82 13
f 40 41 39
f 39 41 125
f 39 59 40
f 22 59 39
f 39 125 22
f 59 23 65
f 21 23 70
f 21 138 40
f 40 80 21
f 12 23 22
f 12 48 23
f 34 128 44
f 44 56 34
f 34 56 128
f 17 105 89
f 89 113 17
f 42 105 17
f 17 113 42
f 93 62 76
f 93 113 62
f 42 113 93
f 76 16 93
f 16 42 93
f 140 36 126
f 140 33 36
f 86 42 16
f 134 19 86
f 86 16 134
f 3 85 50
f 3 144 85
f 3 50 40
f 40 144 3
f 146 144 97
f 85 144 146
f 146 135 85
f 68 144 64
f 64 144 40
f 40 138 64
f 138 68 64
f 132 66 31
f 109 132 31
f 119 1 100
f 100 146 97
f 135 146 100
f 97 144 100
f 100 144 119
f 85 135 47
f 108 33 124
f 124 1 108
f 124 100 1
f 135 100 124
f 126 79 94
f 114 83 57
f 57 129 114
f 132 83 114
f 114 129 132
f 67 20 35
f 35 57 67
f 57 71 67
f 67 37 20
f 67 71 37
f 54 102 131
f 102 13 131
f 14 54 131
f 104 13 24
f 45 13 104
f 24 118 104
f 53 45 104
f 104 118 53
f 73 65 23
f 23 21 73
f 73 21 80
f 73 80 59
f 59 65 73
f 142 128 27
f 70 128 142
f 123 112 138
f 138 21 123
f 27 112 123
f 123 142 27
f 123 21 70
f 70 142 123
f 111 86 107
f 42 86 111
f 109 31 95
f 139 124 33
f 126 94 51
f 85 47 51
f 69 137 14
f 14 131 69
f 77 137 69
f 69 13 77
f 69 131 13
f 117 79 103
f 117 95 79
f 117 111 107
f 79 95 72
f 72 66 85
f 72 31 66
f 72 95 31
f 55 139 33
f 55 47 135
f 61 51 120
f 120 51 94
f 74 117 107
f 95 117 74
f 85 51 98
f 98 72 85
f 98 51 61
f 139 55 52
f 28 55 135
f 28 52 55
f 92 6 15
f 15 122 92
f 110 122 15
f 15 6 16
f 81 5 12
f 22 141 12
f 12 141 81
f 5 48 12
f 42 111 117
f 103 42 117
f 33 140 55
f 55 140 126
f 126 51 55
f 55 51 47
f 74 63 109
f 109 95 74
f 19 130 74
f 74 86 19
f 74 130 63
f 107 86 74
f 79 72 98
f 98 94 79
f 61 120 98
f 98 120 94
f 124 139 28
f 135 124 28
f 139 52 28

