# https://github.com/mikedh/trimesh
v -0.01634874 0.02881593 -0.03515675
v -0.00006213 0.02777985 -0.02853114
v -0.02346016 0.02969730 -0.03423581
v -0.00049358 0.02915698 -0.03304563
v -0.01916090 0.02877511 -0.03525420
v -0.02094302 0.02962757 -0.03436130
v -0.01673292 0.02841909 -0.03540190
v -0.02286564 0.02902819 -0.03513565
v -0.00027582 0.02641643 -0.03378608
v -0.02485346 0.02646463 -0.03540229
v -0.00055985 0.02915098 -0.02992071
v -0.02346305 0.02527352 -0.02851214
v -0.02392358 0.02851286 -0.03540224
v -0.02022565 0.02851305 -0.03540206
v -0.00079333 0.02854515 -0.03378607
v -0.02279200 0.02506940 -0.03540219
v -0.01448099 0.02510537 -0.03540181
v -0.00102880 0.02525539 -0.03378607
v -0.01830470 0.02924327 -0.03485704
v -0.02432044 0.02541031 -0.03540226
v -0.02481166 0.02969777 -0.03463872
v -0.02449342 0.02558598 -0.02853233
v -0.02487676 0.02968171 -0.02963623
v -0.00187988 0.02503057 -0.02853124
v -0.01608293 0.02935583 -0.03471498
v -0.02476900 0.02963562 -0.02608390
v -0.02491950 0.02582619 -0.02853235
v -0.01275776 0.02564615 -0.03540173
v -0.01263422 0.02938663 -0.03431692
v -0.02308866 0.02514474 -0.02853227
v -0.01999793 0.02951200 -0.03467851
v -0.01619964 0.02931252 -0.02500355
v -0.01933211 0.02502056 -0.02851214
v -0.02451228 0.02961421 -0.02506163
v -0.00135033 0.02504779 -0.02853121
v -0.02135611 0.02500467 -0.02853219
v -0.00027343 0.02915366 -0.03279018
v -0.00034901 0.02912527 -0.02539651
v -0.02092617 0.02892398 -0.03517505
v -0.00504146 0.02501838 -0.03378606
v -0.00079031 0.02553608 -0.03378607
v -0.01283600 0.02803029 -0.03540172
v -0.00008393 0.02792617 -0.03378608
v -0.00192607 0.02508245 -0.03378606
v -0.00005856 0.02855033 -0.02851215
v -0.00035512 0.02914138 -0.02910164
v -0.02398165 0.02969843 -0.03364248
v -0.00079542 0.02902619 -0.03348769
v -0.00025946 0.02517120 -0.02851215
v -0.01660404 0.02903033 -0.03498989
v -0.00140814 0.02511133 -0.03378607
v -0.01244091 0.02705257 -0.03540171
f 32 38 34
f 45 38 2
f 38 49 2
f 26 34 38
f 38 23 26
f 27 34 26
f 26 23 27
f 46 11 38
f 21 23 47
f 16 40 36
f 32 34 36
f 18 49 51
f 37 38 45
f 37 46 38
f 11 46 37
f 13 21 8
f 10 21 13
f 27 23 10
f 23 21 10
f 51 44 17
f 17 40 16
f 17 44 40
f 16 36 30
f 30 36 34
f 32 36 33
f 40 44 24
f 24 36 40
f 24 33 36
f 32 33 24
f 24 38 32
f 41 9 49
f 49 18 41
f 13 8 14
f 1 42 7
f 1 25 48
f 48 42 1
f 27 10 20
f 16 30 20
f 28 18 51
f 51 17 28
f 28 41 18
f 28 52 9
f 9 41 28
f 52 42 43
f 9 52 43
f 48 4 43
f 43 4 37
f 43 37 45
f 45 2 43
f 43 2 49
f 49 9 43
f 22 34 27
f 27 20 22
f 22 20 30
f 35 44 51
f 35 24 44
f 51 49 35
f 35 49 38
f 38 24 35
f 48 25 29
f 29 4 48
f 3 21 47
f 37 4 3
f 11 37 3
f 38 11 3
f 47 23 3
f 3 23 38
f 7 14 5
f 5 14 8
f 5 1 7
f 25 1 50
f 15 42 48
f 48 43 15
f 15 43 42
f 12 30 34
f 34 22 12
f 12 22 30
f 21 29 31
f 31 29 25
f 4 29 6
f 6 3 4
f 6 29 21
f 21 3 6
f 25 50 19
f 19 50 8
f 19 8 21
f 8 50 39
f 39 50 1
f 39 5 8
f 1 5 39
f 7 42 28
f 28 14 7
f 28 17 16
f 28 10 13
f 16 20 28
f 28 42 52
f 13 14 28
f 28 20 10
f 21 31 19
f 19 31 25

