# https://github.com/mikedh/trimesh
v -0.01886007 -0.04270469 -0.00133661
v -0.04998356 -0.02393151 -0.02098224
v -0.03740100 -0.00000544 -0.01763053
v -0.04606602 -0.03136419 -0.01426579
v -0.03752504 -0.03811791 -0.00581201
v -0.01215489 -0.04292751 -0.00048390
v -0.04552555 -0.03172864 -0.04899168
v -0.04777756 -0.02732955 -0.00074768
v -0.00117776 -0.03962181 -0.04853168
v -0.01553595 -0.01882831 -0.00000000
v -0.01581669 -0.01926601 -0.00000000
v -0.04271967 -0.03474911 -0.01209283
v -0.04298550 -0.03342785 -0.04928916
v -0.03942156 -0.03714038 -0.00503086
v -0.04903128 -0.02482739 -0.00492873
v -0.04989218 -0.02087056 -0.00220621
v -0.04692346 -0.00000467 -0.01360618
v -0.00415885 -0.04321596 -0.00048349
v -0.04694789 -0.02882240 -0.00049229
v -0.04390564 -0.03367918 -0.00526593
v -0.04881528 -0.02503308 -0.00277779
v -0.01396088 -0.03922792 -0.04936300
v -0.04541749 -0.03182500 -0.00302823
v -0.04290896 -0.03458609 -0.01308772
v -0.04988766 -0.02491669 -0.02897036
v -0.04688699 -0.02953128 -0.00309126
v -0.02228257 -0.04234933 -0.00063816
v -0.04482676 -0.03246639 -0.00058970
v -0.00703882 -0.01227540 -0.00000000
v -0.04630107 -0.03106626 -0.01504718
v -0.04369318 -0.03390705 -0.01323566
v -0.04228892 -0.03516437 -0.00199782
v -0.00883382 -0.02362679 -0.00000000
v -0.04041621 -0.03659972 -0.00110434
v -0.04571913 -0.00001074 -0.01763051
v -0.03662317 -0.00000328 -0.00050674
v -0.03303622 -0.03702263 -0.04966386
v -0.04995638 -0.02320048 -0.01162535
v -0.04600864 -0.03116463 -0.00680491
v -0.01569814 -0.03909157 -0.04996492
v -0.03804155 -0.03795074 -0.00348438
v -0.04999661 -0.01369741 -0.00050015
v -0.04967570 -0.02665263 -0.04617186
v -0.00924162 -0.04346050 -0.00061122
v -0.00752341 -0.04353923 -0.00055837
v -0.03994102 -0.03499946 -0.04831406
v -0.00010310 -0.02715354 -0.01761668
v -0.00815341 -0.01296633 -0.00000000
v -0.04968247 -0.02386864 -0.01022424
v -0.01896429 -0.04268881 -0.00141710
v -0.00094308 -0.04351265 -0.00291750
v -0.00080778 -0.04124974 -0.00095672
v -0.04655697 -0.03070951 -0.01337572
v -0.04774680 -0.02951609 -0.04994744
v -0.01292496 -0.04318512 -0.00134341
v -0.00151925 -0.00052536 -0.00050531
v -0.04845171 -0.02729615 -0.01195571
v -0.01147874 -0.03928297 -0.04992742
v -0.04829306 -0.02620362 -0.00172364
v -0.01910968 -0.00000414 -0.01350615
v -0.02957236 -0.04078304 -0.00475014
v -0.01865937 -0.04267084 -0.00048425
v -0.04639046 -0.03014068 -0.00090924
v -0.03403982 -0.03937226 -0.00048645
v -0.04910761 -0.02398854 -0.00258439
v -0.03955585 -0.03712491 -0.00345866
v -0.00518458 -0.00012358 -0.01350563
v -0.04226915 -0.03519188 -0.00287069
v -0.04860910 -0.00183554 -0.00050619
v -0.02429121 -0.00836377 -0.00018554
v -0.04748184 -0.02819613 -0.00198383
v -0.04947803 -0.00046608 -0.01660596
v -0.04444228 -0.03201590 -0.00049057
v -0.00081829 -0.04337150 -0.00240204
v -0.04958712 -0.02433055 -0.01073581
v -0.00204340 -0.02535109 -0.00001152
v -0.03574003 -0.03638446 -0.04975354
v -0.03503208 -0.03929021 -0.00309848
v -0.03611684 -0.03894311 -0.00109348
v -0.00015454 -0.02412633 -0.00000000
v -0.00155955 -0.04153974 -0.00048427
v -0.00065591 -0.00000595 -0.00570832
v -0.04135675 -0.03593421 -0.00183362
v -0.00009076 -0.02859724 -0.01659136
v -0.00065264 -0.00040528 -0.00269723
v -0.00548066 -0.02443359 -0.00000000
v -0.04094120 -0.03449955 -0.04996544
v -0.02946752 -0.04104027 -0.00111071
v -0.00325006 -0.04367177 -0.00062370
v -0.04789608 -0.02819157 -0.00927760
v -0.04382718 -0.03366409 -0.00151679
v -0.04681811 -0.02977278 -0.00504954
v -0.04516468 -0.03239145 -0.01534619
v -0.00716497 -0.02414769 -0.00000000
v -0.04724454 -0.02867903 -0.00194444
v -0.04133732 -0.03573064 -0.01271526
v -0.04535914 -0.03174065 -0.00055844
v -0.01228155 -0.03936678 -0.04867996
v -0.03871436 -0.03759198 -0.00325779
v -0.03695386 -0.03843396 -0.00437983
v -0.00065356 -0.00011239 -0.00398108
v -0.04906203 -0.02786427 -0.04913239
v -0.03021069 -0.03762572 -0.04947609
v -0.04821390 -0.02728175 -0.00728302
v -0.03637844 -0.03881448 -0.00163390
v -0.04966286 -0.00071029 -0.01763015
v -0.04752185 -0.00006234 -0.01660616
v -0.04798196 -0.02730598 -0.00319941
v -0.04369968 -0.03305294 -0.04863420
v -0.02420641 -0.04208111 -0.00081972
v -0.04009667 -0.03680534 -0.00190662
v -0.04920891 -0.02563053 -0.01324884
v -0.04955341 -0.02702163 -0.04881519
v -0.00161659 -0.00013638 -0.00050551
v -0.02265010 -0.03871209 -0.04826187
v -0.04656279 -0.03054317 -0.01081779
v -0.01706021 -0.04292494 -0.00054352
v -0.00149974 -0.04142346 -0.00048432
v -0.03134551 -0.04059694 -0.00091174
v -0.02553872 -0.03825774 -0.04998906
v -0.04613355 -0.03068855 -0.00240205
v -0.04937862 -0.02509840 -0.01246538
v -0.04005510 -0.03496543 -0.04814501
v -0.03652195 -0.03619409 -0.04914265
v -0.04806604 -0.02741762 -0.00563513
v -0.04787217 -0.02715622 -0.00101026
v -0.04969623 -0.02012796 -0.00049685
v -0.04195685 -0.03545859 -0.00332913
v -0.04875077 -0.00033763 -0.01763034
v -0.00106509 -0.00068340 -0.01350520
v -0.03468077 -0.03938014 -0.00378909
v -0.04799284 -0.02642306 -0.00049355
v -0.00131699 -0.04073769 -0.00048467
v -0.04836514 -0.02771522 -0.01417020
v -0.00629312 -0.04358812 -0.00057565
v -0.04992662 -0.00121660 -0.01762989
v -0.04075273 -0.03625310 -0.00724253
v -0.03097117 -0.03750708 -0.04954590
v -0.00071012 -0.01946180 -0.00000000
v -0.04893830 -0.02472058 -0.00292599
v -0.01596282 -0.03908789 -0.04981178
v -0.00635992 -0.03942388 -0.04986568
v -0.04170370 -0.03558411 -0.00692376
v -0.04317321 -0.03433336 -0.00055994
v -0.01479881 -0.02074951 -0.00000000
v -0.04510938 -0.03245054 -0.01561993
v -0.02731191 -0.04147342 -0.00169133
v -0.00067673 -0.00258047 -0.01250799
v -0.04988155 -0.00107949 -0.01360564
v -0.02660609 -0.04167310 -0.00075848
v -0.03878683 -0.03750356 -0.00470063
v -0.04998671 -0.01166436 -0.01762453
v -0.04147142 -0.03568326 -0.01029261
v -0.04953694 -0.00007675 -0.01350713
v -0.04646978 -0.03080764 -0.01266466
v -0.04427023 -0.03324332 -0.00430235
v -0.00079797 -0.03884817 -0.00062841
v -0.00309811 -0.01604986 -0.00000000
v -0.04420985 -0.03340017 -0.01313473
v -0.04999363 -0.02035086 -0.00176720
v -0.00246149 -0.04213416 -0.00048399
v -0.02763808 -0.04130433 -0.00048526
v -0.04171416 -0.03544686 -0.00048872
v -0.04828418 -0.02889886 -0.04936364
v -0.01967864 -0.04261480 -0.00126839
v -0.04608463 -0.03124653 -0.04864319
v -0.03932432 -0.03730693 -0.00182032
v -0.03137992 -0.00035920 -0.01763036
v -0.04676073 -0.03008649 -0.00864830
v -0.00276827 -0.04367185 -0.00075909
v -0.00008287 -0.02509030 -0.00000000
v -0.04964469 -0.02684004 -0.04831937
v -0.01372904 -0.04316918 -0.00087680
v -0.04979162 -0.02579506 -0.03727176
v -0.03016670 -0.04061792 -0.00518928
v -0.04514429 -0.00007279 -0.00050698
v -0.04591080 -0.03106483 -0.00278558
v -0.04963888 -0.00328873 -0.00050548
v -0.04178518 -0.03547804 -0.00930445
v -0.04176735 -0.03558948 -0.00433372
v -0.00003065 -0.04190666 -0.01997269
v -0.04249322 -0.03490439 -0.01246475
v -0.04759456 -0.02796842 -0.00201752
v -0.00066210 -0.00048247 -0.00842869
v -0.04402027 -0.03356315 -0.00629414
v -0.00066072 -0.00319834 -0.00099789
v -0.00006359 -0.04026291 -0.04055516
v -0.04198844 -0.03536155 -0.00784718
v -0.03241384 -0.04029819 -0.00050289
v -0.03673951 -0.03859320 -0.00300220
v -0.04114452 -0.03608997 -0.00159807
v -0.04227509 -0.03515793 -0.00056818
v -0.04821275 -0.02800397 -0.01368907
v -0.04823061 -0.02677637 -0.00395408
v -0.03799397 -0.03563651 -0.04983597
v -0.03559038 -0.03894354 -0.00580519
v -0.02646085 -0.00066277 -0.01763021
v -0.04385896 -0.03292317 -0.04943737
v -0.03727302 -0.03840937 -0.00184253
v -0.00406764 -0.03946517 -0.04998100
v -0.04567734 -0.03139523 -0.00226536
v -0.04718357 -0.02913606 -0.00483732
v -0.03775999 -0.03817215 -0.00126829
v -0.04078979 -0.03629547 -0.00378695
v -0.04654829 -0.03080325 -0.04869693
v -0.03557166 -0.03901517 -0.00450533
v -0.04086430 -0.03594251 -0.00048845
f 35 154 17
f 17 154 176
f 29 176 70
f 181 171 74
f 74 171 52
f 9 148 187
f 187 171 181
f 98 58 89
f 136 149 154
f 42 149 136
f 200 58 40
f 200 40 120
f 120 54 200
f 130 148 9
f 9 200 130
f 94 11 145
f 94 171 11
f 11 171 10
f 69 70 176
f 176 154 69
f 69 10 70
f 9 187 51
f 181 74 51
f 51 187 181
f 51 200 9
f 36 176 29
f 29 114 36
f 36 17 176
f 40 58 22
f 58 98 22
f 42 136 152
f 106 136 154
f 89 58 142
f 58 200 142
f 120 27 110
f 127 11 42
f 127 132 11
f 52 171 157
f 52 118 81
f 81 118 171
f 33 94 145
f 171 85 186
f 29 70 48
f 48 10 29
f 70 10 48
f 11 10 178
f 10 69 178
f 42 11 178
f 178 149 42
f 154 149 178
f 178 69 154
f 171 187 84
f 84 47 171
f 187 47 84
f 171 47 82
f 82 36 114
f 171 186 80
f 80 10 171
f 80 139 10
f 29 10 158
f 10 139 158
f 158 114 29
f 158 139 114
f 40 55 141
f 120 40 141
f 141 115 120
f 107 154 35
f 129 107 35
f 154 107 129
f 35 17 3
f 130 197 67
f 67 82 130
f 160 127 42
f 132 127 160
f 145 11 19
f 11 132 19
f 171 118 133
f 133 157 171
f 133 118 52
f 52 157 133
f 89 81 161
f 161 81 171
f 170 74 52
f 52 81 170
f 170 81 89
f 170 51 74
f 200 51 170
f 89 142 170
f 170 142 200
f 56 85 114
f 56 186 85
f 56 80 186
f 114 139 56
f 139 80 56
f 184 82 47
f 184 187 148
f 184 47 187
f 148 130 184
f 130 82 184
f 114 85 101
f 101 82 114
f 101 85 171
f 171 82 101
f 120 110 103
f 103 138 120
f 110 138 103
f 120 138 37
f 87 54 120
f 115 141 173
f 173 141 55
f 72 106 154
f 154 129 72
f 72 129 106
f 168 67 197
f 3 67 168
f 82 67 60
f 60 67 3
f 36 82 60
f 17 36 60
f 60 3 17
f 150 110 27
f 147 138 150
f 150 138 110
f 61 138 147
f 163 207 145
f 34 207 163
f 163 192 34
f 44 173 55
f 44 22 98
f 44 55 40
f 40 22 44
f 162 150 27
f 105 87 123
f 13 87 151
f 120 37 77
f 120 115 50
f 115 1 50
f 203 207 34
f 203 79 207
f 34 167 203
f 147 150 88
f 88 150 119
f 88 61 147
f 8 19 132
f 62 162 27
f 119 150 189
f 150 162 189
f 207 79 189
f 94 33 64
f 64 162 94
f 64 189 162
f 207 189 64
f 145 207 64
f 64 33 145
f 111 167 34
f 66 167 111
f 100 5 87
f 13 151 14
f 14 151 66
f 87 5 41
f 41 151 87
f 41 203 167
f 119 77 175
f 175 88 119
f 61 88 175
f 175 77 37
f 175 37 138
f 138 61 175
f 165 1 27
f 165 50 1
f 165 27 120
f 120 50 165
f 54 93 4
f 192 128 83
f 198 7 54
f 54 87 198
f 198 87 13
f 198 96 182
f 182 7 198
f 144 97 28
f 163 97 144
f 192 163 144
f 19 97 73
f 73 97 163
f 145 19 73
f 73 163 145
f 28 97 23
f 117 62 27
f 27 1 117
f 117 1 115
f 115 173 117
f 173 44 117
f 89 161 18
f 18 161 171
f 76 62 171
f 94 162 86
f 162 62 86
f 62 76 86
f 171 94 86
f 86 76 171
f 78 189 79
f 137 96 66
f 66 111 137
f 195 87 120
f 120 77 195
f 190 87 105
f 190 100 87
f 5 100 190
f 199 41 5
f 203 41 199
f 199 190 105
f 5 190 199
f 105 79 199
f 79 203 199
f 99 41 167
f 151 41 99
f 54 7 205
f 53 102 164
f 164 102 54
f 54 4 164
f 34 192 191
f 192 83 191
f 191 83 96
f 96 137 191
f 180 83 128
f 66 96 109
f 96 198 109
f 109 198 13
f 13 14 109
f 109 14 66
f 91 144 28
f 201 23 97
f 177 39 201
f 201 39 23
f 53 4 155
f 4 23 155
f 23 39 155
f 155 39 177
f 160 38 16
f 65 16 38
f 160 16 65
f 132 160 65
f 65 8 132
f 65 59 8
f 8 59 126
f 89 18 135
f 135 98 89
f 206 79 105
f 124 195 77
f 124 77 119
f 119 189 124
f 146 93 54
f 54 205 146
f 166 205 7
f 30 4 53
f 53 164 30
f 30 164 4
f 19 8 63
f 63 97 19
f 8 126 108
f 108 126 59
f 194 75 108
f 59 21 108
f 113 200 54
f 54 102 113
f 113 130 200
f 113 197 130
f 113 168 197
f 3 168 113
f 35 3 113
f 113 129 35
f 106 129 113
f 136 106 113
f 113 172 136
f 204 137 111
f 204 191 137
f 204 111 34
f 34 191 204
f 83 180 188
f 144 91 20
f 20 68 144
f 20 4 93
f 192 144 32
f 144 68 32
f 49 38 75
f 49 65 38
f 15 75 194
f 194 108 15
f 15 108 21
f 75 38 2
f 2 25 75
f 2 38 160
f 42 152 2
f 2 160 42
f 45 135 18
f 62 117 45
f 45 117 44
f 45 44 98
f 98 135 45
f 105 123 196
f 196 206 105
f 78 206 196
f 205 166 31
f 31 166 7
f 68 20 31
f 43 152 136
f 136 172 43
f 95 63 8
f 26 63 95
f 121 63 26
f 177 201 121
f 121 201 97
f 97 63 121
f 121 155 177
f 92 121 26
f 193 92 26
f 172 113 193
f 193 102 53
f 193 113 102
f 122 108 75
f 112 108 122
f 75 25 122
f 25 112 122
f 96 83 153
f 156 20 91
f 156 91 28
f 4 20 156
f 28 23 156
f 156 23 4
f 140 15 21
f 59 65 140
f 140 21 59
f 75 15 140
f 140 49 75
f 65 49 140
f 62 45 6
f 6 45 18
f 171 62 6
f 6 18 171
f 46 196 123
f 195 196 46
f 46 123 87
f 87 195 46
f 78 196 131
f 189 78 131
f 131 124 189
f 195 124 131
f 131 196 195
f 159 31 20
f 93 146 159
f 159 146 205
f 205 31 159
f 24 7 182
f 24 31 7
f 128 68 24
f 68 31 24
f 112 43 134
f 134 43 172
f 172 193 134
f 174 43 112
f 174 112 25
f 152 43 174
f 174 2 152
f 25 2 174
f 8 108 183
f 53 155 116
f 116 92 53
f 155 121 116
f 121 92 116
f 53 92 169
f 169 193 53
f 92 193 169
f 96 153 179
f 179 153 188
f 83 188 143
f 143 153 83
f 188 153 143
f 185 20 93
f 93 159 185
f 185 159 20
f 12 24 182
f 12 188 180
f 12 180 128
f 128 24 12
f 57 134 193
f 193 90 57
f 112 134 57
f 71 90 95
f 183 90 71
f 71 95 8
f 8 183 71
f 26 95 202
f 95 90 202
f 202 193 26
f 202 90 193
f 125 57 90
f 125 183 108
f 125 90 183
f 112 57 104
f 57 125 104
f 104 108 112
f 104 125 108
f 66 151 99
f 99 167 66
f 206 78 79
f 32 68 128
f 32 128 192
f 96 179 12
f 182 96 12
f 12 179 188

