# https://github.com/mikedh/trimesh
v 0.07608915 0.02544944 -0.11205217
v 0.05118395 0.04312599 -0.11664127
v 0.05647865 0.04252528 -0.11256004
v 0.05006506 0.00143259 -0.12412407
v 0.07830866 0.01796598 -0.10359314
v 0.06610493 0.03786000 -0.12091077
v 0.07782864 0.01524762 -0.11342189
v 0.05624921 0.04268246 -0.11131509
v 0.07451829 0.02670694 -0.12223949
v 0.07408971 0.02776600 -0.12215987
v 0.06643353 0.03867752 -0.11213693
v 0.06344546 0.04106849 -0.10358306
v 0.05457598 0.04183958 -0.12345859
v 0.07542462 0.02875216 -0.10407635
v 0.06852002 0.03586985 -0.12197047
v 0.05199931 0.00897520 -0.12412408
v 0.07799452 0.00143000 -0.11957967
v 0.05269750 0.04228189 -0.12276251
v 0.07801760 0.01312415 -0.11402186
v 0.06145807 0.04089916 -0.11404219
v 0.07312585 0.03330890 -0.10376286
v 0.05285564 0.04256141 -0.11968017
v 0.07429069 0.02585519 -0.12377291
v 0.07099642 0.03439135 -0.11553080
v 0.07731293 0.00936059 -0.12323389
v 0.05929685 0.04265092 -0.10241948
v 0.06146084 0.04061242 -0.11692251
v 0.07736257 0.00208901 -0.12360550
v 0.07741004 0.00057412 -0.12357642
v 0.07113552 0.03478645 -0.11183114
v 0.05962637 0.04270771 -0.10032217
v 0.07682950 0.00516266 -0.12390351
v 0.07037765 0.03440410 -0.11979772
v 0.07486676 0.03009956 -0.10412702
v 0.07355760 0.03088831 -0.11435890
v 0.07743947 0.01866740 -0.11335996
v 0.07800380 0.00012452 -0.11961172
v 0.07089650 0.03499012 -0.11247084
v 0.05940882 0.04218231 -0.10722719
v 0.06055676 0.04224484 -0.10247691
v 0.05207262 0.04346143 -0.11166241
v 0.06316646 0.03973988 -0.11795990
v 0.07949604 0.00002798 -0.10198676
v 0.06756070 0.03873306 -0.10488439
v 0.06250234 0.04145066 -0.10446549
v 0.07667770 0.02526035 -0.10497878
v 0.06298323 0.04106878 -0.10598299
v 0.05909682 0.04174701 -0.11287754
v 0.05497962 0.04390867 -0.10000166
v 0.07470476 0.02633057 -0.12185231
v 0.06623724 0.03639288 -0.12390161
v 0.06977598 0.03742244 -0.10018012
v 0.06124429 0.04111748 -0.11247168
v 0.06665688 0.03813235 -0.11604343
v 0.06671736 0.03832139 -0.11416954
v 0.06298202 0.04152131 -0.10106420
v 0.07112664 0.03543485 -0.10668453
v 0.06786432 0.03796496 -0.10974232
v 0.07909999 0.01061856 -0.10363604
v 0.06993616 0.03471780 -0.12086973
v 0.07928904 0.00241495 -0.10476309
v 0.05003536 0.04262422 -0.12342382
v 0.07724084 0.02031339 -0.11341071
v 0.07725390 0.00060422 -0.12370970
v 0.05302505 0.04429813 -0.10000069
v 0.07902437 0.01083714 -0.10450774
v 0.07474543 0.02645780 -0.12112620
v 0.06583707 0.03724170 -0.12381598
v 0.07278508 0.03371014 -0.10404366
v 0.05049370 0.00056575 -0.12412407
v 0.07912225 0.01080345 -0.10249797
v 0.07922133 0.00691282 -0.10398284
v 0.07872833 0.01471603 -0.10397895
v 0.07832227 0.00966817 -0.11465761
v 0.05001421 0.01630219 -0.12290566
v 0.07286379 0.03095197 -0.11975429
v 0.06068563 0.04212112 -0.10344841
v 0.07868769 0.01556444 -0.10294155
v 0.07022444 0.03611543 -0.10852412
v 0.07414431 0.02820225 -0.12006327
v 0.07263393 0.02844203 -0.12390269
v 0.06679487 0.03707482 -0.12324217
v 0.06701090 0.03941876 -0.10081860
v 0.06715728 0.03926164 -0.10184076
v 0.05511460 0.04105355 -0.12389979
v 0.06020131 0.03987528 -0.12380598
v 0.07683448 0.02508202 -0.10329385
v 0.07755655 0.00537953 -0.12256276
v 0.05856738 0.04266393 -0.10488214
v 0.07870512 0.01521729 -0.10356990
v 0.07761881 0.00068397 -0.12270703
v 0.07611696 0.01501540 -0.12390334
v 0.07717837 0.02356463 -0.10393258
v 0.07421589 0.02821001 -0.11939541
v 0.06742445 0.03809421 -0.11160304
v 0.06991638 0.03446860 -0.12254754
v 0.05070135 0.04230443 -0.12362179
v 0.06358766 0.04078531 -0.10573271
v 0.07123633 0.03324235 -0.12030488
v 0.07391707 0.03084609 -0.11129689
v 0.05441493 0.00336432 -0.12412407
v 0.06379229 0.03856843 -0.12361570
v 0.07818487 0.00876094 -0.11612165
v 0.07884189 0.01501348 -0.10002147
v 0.07752468 0.02261588 -0.10121677
v 0.07031913 0.03295920 -0.12387440
v 0.07372387 0.03003832 -0.11699509
v 0.07593390 0.02377828 -0.11765179
v 0.06686883 0.03771886 -0.11797680
v 0.07614965 0.02068001 -0.12229644
v 0.05717104 0.04276005 -0.10838726
v 0.07756923 0.01911262 -0.11136113
v 0.07328594 0.03335674 -0.10065295
v 0.07750097 0.00392671 -0.12332853
v 0.06455904 0.00006184 -0.12122932
v 0.05805721 0.04196049 -0.11399778
v 0.07483988 0.02498035 -0.12355390
v 0.07669959 0.02063995 -0.11771077
v 0.07858371 0.01313771 -0.10773297
v 0.06826235 0.03849633 -0.10170208
v 0.06570582 0.03776459 -0.12347725
v 0.06223810 0.04064276 -0.11388377
v 0.07675926 0.01051319 -0.12383058
v 0.05009036 0.04378814 -0.11092908
v 0.05294831 0.04240312 -0.12116476
v 0.07338252 0.03138544 -0.11292956
v 0.05033400 0.00455866 -0.12412408
v 0.05708361 0.04137233 -0.12276096
v 0.06726292 0.03766533 -0.11602957
v 0.07741085 0.01028474 -0.12208095
v 0.06733024 0.03828029 -0.11059612
v 0.07025420 0.03423826 -0.12158983
v 0.07753307 0.00022343 -0.12340911
v 0.06664837 0.03680510 -0.12367808
v 0.07523786 0.02398401 -0.12313710
v 0.06549766 0.03905815 -0.11312331
v 0.05546185 0.04298736 -0.10964519
v 0.07496067 0.02511096 -0.12304494
v 0.06521227 0.03958916 -0.10932443
v 0.07846397 0.01768459 -0.10035443
v 0.06643491 0.03754598 -0.12174487
v 0.06474158 0.04037879 -0.10367225
v 0.07831172 0.01789308 -0.10381042
v 0.07776852 0.02065236 -0.10560750
v 0.05620926 0.04363221 -0.10041430
v 0.07639843 0.01811453 -0.12352044
v 0.05721166 0.04146917 -0.12144589
v 0.06182475 0.04119571 -0.10962292
v 0.07667570 0.01389480 -0.12371770
v 0.07929533 0.00863972 -0.10042558
v 0.07368110 0.02957176 -0.11914312
v 0.07765721 0.02121697 -0.10526811
v 0.07518061 0.02379880 -0.12353009
v 0.07072916 0.03328887 -0.12347697
v 0.07720972 0.02393290 -0.10093775
v 0.07463784 0.02354325 -0.12390304
v 0.07610493 0.02482794 -0.11385069
v 0.06423685 0.04071301 -0.10292288
v 0.05834529 0.04280310 -0.10413067
v 0.06070076 0.04123101 -0.11306065
v 0.05560459 0.04265172 -0.11303320
v 0.07629952 0.01858285 -0.12353570
v 0.06796162 0.03882529 -0.10047062
v 0.06561286 0.03746635 -0.12374825
v 0.07656766 0.02311791 -0.11332512
v 0.07062490 0.03533746 -0.11178845
v 0.07729977 0.01990731 -0.11332196
v 0.07420681 0.02666668 -0.12362571
v 0.07377484 0.02573186 -0.12390289
v 0.07257524 0.03087164 -0.12237198
v 0.07319756 0.03326790 -0.10319031
v 0.07813592 0.01718314 -0.10756627
v 0.05024642 0.01555651 -0.12412408
v 0.05373234 0.00746978 -0.12412408
v 0.07425275 0.03108787 -0.10606730
v 0.07588907 0.02521942 -0.11489734
v 0.07692574 0.02020836 -0.11643160
v 0.07685569 0.00102790 -0.12390354
v 0.06914714 0.03544096 -0.12109677
v 0.07948351 0.00124881 -0.10099767
v 0.07035020 0.03684741 -0.10022484
v 0.06242692 0.04059760 -0.11341755
v 0.07770088 0.02180007 -0.10187876
v 0.07328091 0.03287672 -0.10498069
v 0.07415066 0.03155462 -0.10413507
v 0.07801677 0.02026666 -0.10218300
v 0.06005811 0.04047932 -0.12262022
v 0.07815540 0.01961259 -0.10099676
v 0.07709302 0.02134035 -0.11219983
v 0.05220419 0.00912506 -0.12412408
v 0.06877357 0.03565166 -0.12198424
v 0.07117537 0.03202331 -0.12378580
v 0.05275380 0.01112410 -0.12412408
v 0.07107126 0.03304755 -0.12255012
v 0.05144714 0.00813310 -0.12412408
v 0.07805003 0.00136508 -0.11911719
v 0.07595394 0.02534352 -0.11406389
v 0.05106332 0.04364043 -0.11125212
v 0.07790977 0.02071325 -0.10334467
v 0.06848793 0.03794375 -0.10559668
v 0.07141270 0.03450443 -0.11127352
v 0.07655022 0.01464910 -0.12376084
v 0.07655664 0.01672884 -0.12354096
v 0.05595313 0.04096181 -0.12389993
v 0.05169745 0.04440234 -0.10163409
v 0.07397970 0.02983052 -0.11552460
v 0.06853067 0.03511555 -0.12377239
v 0.07408640 0.03203237 -0.10050160
v 0.05499085 0.04312221 -0.10917148
v 0.05827483 0.04034412 -0.12389840
v 0.05505537 0.04275110 -0.11311159
v 0.06587661 0.03665382 -0.12390155
v 0.05707270 0.04253214 -0.11116747
v 0.07404015 0.02954295 -0.11604562
v 0.07440695 0.02916291 -0.11416549
v 0.07843383 0.00525826 -0.11481279
v 0.07531892 0.02059012 -0.12390316
v 0.07594309 0.02237502 -0.12062913
v 0.05583581 0.00000800 -0.12122932
v 0.05135487 0.04438148 -0.10245739
v 0.05002245 0.01380818 -0.12412408
v 0.06979826 0.03519901 -0.11852309
v 0.05256725 0.04390010 -0.10578856
v 0.07863404 0.01635731 -0.10112037
v 0.07493864 0.02523093 -0.12297146
v 0.07735382 0.00358941 -0.12359504
v 0.07318813 0.03347694 -0.10089637
v 0.05331212 0.04224992 -0.12203983
v 0.06979496 0.03696947 -0.10486400
v 0.06365214 0.04120071 -0.10065958
v 0.06813552 0.03788168 -0.10861142
v 0.07400630 0.03061354 -0.11184200
v 0.07719428 0.00458444 -0.12371463
v 0.07709067 0.00103928 -0.12384086
v 0.07082334 0.03621542 -0.10219377
v 0.05598371 0.04140878 -0.12357629
v 0.07743458 0.00625760 -0.12332704
v 0.06173461 0.04194295 -0.10152320
v 0.07747198 0.01782970 -0.11404174
v 0.07259434 0.02960683 -0.12381825
v 0.05142711 0.04444643 -0.10150227
v 0.07717304 0.02119223 -0.11163718
v 0.05710962 0.04327708 -0.10271459
v 0.07028429 0.03604178 -0.10865919
v 0.07042704 0.03489597 -0.11646401
v 0.07632723 0.02609545 -0.10636302
v 0.07860943 0.00050232 -0.11408652
v 0.07701958 0.00737663 -0.12378298
v 0.06776701 0.03696659 -0.11825227
v 0.06243218 0.04167132 -0.10216155
v 0.07863134 0.01561358 -0.10406877
v 0.06612640 0.03886476 -0.11186428
v 0.07666565 0.02217299 -0.11470097
v 0.06788971 0.03652276 -0.12085393
v 0.05001268 0.03764435 -0.12122922
v 0.05068053 0.04350850 -0.11322793
v 0.07143982 0.03208881 -0.12361294
v 0.07388501 0.03027341 -0.11473537
v 0.07675858 0.02548084 -0.10270515
v 0.07752546 0.00156512 -0.12342274
v 0.05035473 0.04464694 -0.10064436
v 0.07928951 0.00153883 -0.10507655
v 0.07581814 0.02592228 -0.11337828
v 0.06141891 0.03899032 -0.12390081
v 0.05692048 0.04250190 -0.11184676
v 0.07609338 0.02021254 -0.12345463
v 0.06720932 0.03912767 -0.10318159
v 0.07825171 0.00973396 -0.11522584
v 0.07323806 0.03012404 -0.12047805
v 0.07811632 0.00010207 -0.11870400
v 0.07108730 0.03460492 -0.11347078
v 0.07427716 0.03165071 -0.10117366
v 0.07607155 0.02116079 -0.12214321
v 0.07671258 0.02082900 -0.11721642
v 0.05243839 0.04327470 -0.11293473
v 0.05056996 0.04287744 -0.12007013
v 0.07479638 0.03076621 -0.10010631
v 0.07612350 0.02566542 -0.11090706
v 0.06081955 0.04029981 -0.12206894
v 0.05228050 0.04335358 -0.11240447
v 0.07757595 0.00618885 -0.12216602
v 0.07844868 0.01599012 -0.10563502
v 0.07482635 0.02972311 -0.10648200
v 0.07619458 0.02688483 -0.10404463
v 0.07852144 0.00175392 -0.11484350
v 0.05138520 0.04342823 -0.11317976
v 0.06718694 0.03906588 -0.10396211
v 0.07414070 0.02773629 -0.12181456
v 0.07858629 0.01535259 -0.10492886
v 0.07716344 0.00856706 -0.12361352
v 0.06741102 0.03911389 -0.10193122
v 0.05211902 0.00089689 -0.12412407
v 0.07456609 0.02621923 -0.12332277
v 0.07579588 0.02584330 -0.11399180
v 0.05173396 0.04344377 -0.11252720
v 0.06978159 0.03449011 -0.12330732
v 0.07369536 0.02877585 -0.12195227
v 0.07904734 0.01013264 -0.10501495
v 0.06706084 0.03795783 -0.11504256
v 0.05208692 0.04095685 -0.12389930
v 0.07277687 0.03099868 -0.12020721
v 0.05686455 0.04136282 -0.12331034
v 0.06970142 0.03494168 -0.12092015
v 0.07651061 0.02641019 -0.10165153
v 0.06141021 0.03998109 -0.12262735
v 0.07850865 0.01174573 -0.11034308
v 0.06784390 0.03889934 -0.10067652
v 0.06171148 0.03967933 -0.12349705
v 0.05386055 0.04188372 -0.12355712
v 0.07928267 0.00426891 -0.10416811
v 0.07730014 0.01179051 -0.12209038
v 0.07792311 0.00769572 -0.11871339
v 0.07129247 0.03518716 -0.10735550
v 0.07649021 0.02318848 -0.11403410
v 0.06047911 0.04022960 -0.12348459
v 0.07791154 0.02086473 -0.10238477
v 0.07843032 0.00951085 -0.11362989
v 0.07574518 0.02561678 -0.11520403
v 0.05000279 0.04415676 -0.10691314
v 0.06615189 0.03968437 -0.10318109
v 0.07701891 0.01969443 -0.11636898
v 0.07606449 0.02752396 -0.10144657
v 0.05752215 0.04226307 -0.11259728
v 0.07643584 0.02565843 -0.10685209
v 0.07592404 0.00018805 -0.12259493
v 0.05266952 0.04390697 -0.10549518
v 0.07734567 0.01011311 -0.12268926
v 0.07761681 0.02156679 -0.10466713
v 0.07945557 0.00319665 -0.10014207
v 0.07201051 0.03159655 -0.12324307
v 0.07662896 0.02606451 -0.10211571
v 0.05062718 0.00794470 -0.12412408
v 0.07086582 0.03626158 -0.10111366
v 0.07862807 0.01447070 -0.10559114
v 0.07907643 0.01221209 -0.10024046
v 0.07303550 0.03024452 -0.12152084
v 0.07195095 0.03410712 -0.10905544
v 0.07700469 0.01327416 -0.12335397
v 0.07742869 0.00149362 -0.12355557
v 0.07419439 0.02835923 -0.11903670
v 0.07095918 0.03467784 -0.11412164
v 0.05164740 0.04342434 -0.11286948
v 0.07868103 0.00015739 -0.11330336
v 0.05100088 0.04440394 -0.10270448
v 0.05185220 0.04323242 -0.11455089
v 0.07785385 0.00079328 -0.12080441
v 0.05964892 0.04211944 -0.10708115
v 0.07726610 0.01074959 -0.12308439
v 0.07188375 0.03517834 -0.10078771
v 0.06167188 0.04076364 -0.11473398
v 0.07449080 0.03071759 -0.10558938
v 0.07443075 0.03127980 -0.10239716
v 0.06970014 0.03507449 -0.12003829
v 0.07918585 0.00995869 -0.10260860
v 0.07482746 0.03045660 -0.10218435
v 0.07922425 0.00969717 -0.10167619
v 0.05717622 0.04280727 -0.10784516
v 0.07437982 0.03059390 -0.10753154
v 0.07751716 0.02223795 -0.10380144
v 0.06545174 0.04023759 -0.10085799
v 0.07165294 0.03535687 -0.10217388
v 0.06280039 0.03958574 -0.12091615
v 0.07523257 0.02352192 -0.12354636
v 0.06447023 0.03858219 -0.12247646
v 0.07360858 0.02974283 -0.11908244
v 0.06255361 0.04012360 -0.11723180
v 0.07514410 0.02878736 -0.10729360
v 0.06783548 0.03630242 -0.12282766
v 0.07629369 0.02672054 -0.10362068
v 0.07664062 0.02246439 -0.11428649
v 0.07867605 0.01576240 -0.10243763
v 0.05328916 0.04370214 -0.10642533
v 0.05563402 0.04134431 -0.12370764
v 0.07593662 0.02119046 -0.12326635
v 0.07189504 0.03505066 -0.10210065
v 0.06707068 0.03819918 -0.11307766
v 0.07064074 0.03455105 -0.11713530
v 0.06834008 0.03830785 -0.10332115
v 0.07244594 0.03410022 -0.10439180
v 0.06645663 0.03694857 -0.12368614
v 0.05788037 0.04269924 -0.10678510
v 0.07776629 0.01852203 -0.10991134
v 0.07887970 0.01305480 -0.10387718
v 0.07515861 0.02559123 -0.12016339
v 0.07813196 0.00025567 -0.11857440
v 0.07362668 0.03148183 -0.11028181
v 0.07720714 0.00254360 -0.12372800
v 0.07651972 0.01783382 -0.12332983
v 0.06481011 0.04060277 -0.10051306
v 0.07917498 0.00010258 -0.10705378
v 0.07718074 0.01160093 -0.12331738
v 0.06247426 0.04105895 -0.10863947
v 0.07694745 0.02458965 -0.10352184
v 0.05739832 0.04211569 -0.11448720
v 0.07496071 0.02932111 -0.10685808
v 0.07594096 0.02454817 -0.11591167
v 0.05657726 0.04238974 -0.11378464
v 0.07812521 0.00061374 -0.11860939
v 0.06225353 0.04120409 -0.10803620
v 0.07779031 0.02114357 -0.10376687
v 0.07136462 0.03035157 -0.12390247
v 0.07768537 0.00074546 -0.12216851
v 0.05281621 0.04417882 -0.10210887
v 0.06090027 0.04109930 -0.11377740
v 0.05713173 0.04332858 -0.10198477
v 0.06824930 0.03442659 -0.12390194
v 0.07290804 0.03389128 -0.10037952
v 0.07844477 0.01006286 -0.11313995
v 0.07334445 0.03251040 -0.10661445
v 0.06959174 0.03429727 -0.12368565
v 0.05105180 0.04453702 -0.10093501
v 0.05728516 0.04265729 -0.10919494
v 0.07308409 0.03086282 -0.11843799
v 0.05803469 0.04321150 -0.10036899
v 0.05205210 0.04322539 -0.11424027
v 0.06905221 0.03801828 -0.10008372
v 0.07687843 0.02204736 -0.11272089
v 0.07058697 0.03452791 -0.11764087
v 0.06365701 0.04106837 -0.10229234
v 0.06208189 0.04037461 -0.11681597
v 0.07026244 0.03681222 -0.10172130
v 0.07834069 0.00999518 -0.11437435
v 0.07753371 0.02075131 -0.10837115
v 0.07842715 0.00553673 -0.11479940
v 0.07431004 0.02964433 -0.11306220
v 0.07541623 0.02756935 -0.11005536
v 0.07344900 0.02958034 -0.12100308
v 0.06414503 0.03882657 -0.12183592
v 0.06780894 0.03880187 -0.10223976
v 0.05473198 0.04184625 -0.12309375
v 0.07061236 0.03624380 -0.10412276
v 0.06852704 0.03780390 -0.10659362
v 0.07942156 0.00026033 -0.10359425
v 0.07893147 0.01250187 -0.10381170
v 0.07490635 0.02803200 -0.11387154
v 0.07690015 0.00932816 -0.12378107
v 0.07848078 0.00207638 -0.11521898
v 0.06920654 0.03742527 -0.10522396
v 0.05898909 0.04267098 -0.10333468
v 0.07850772 0.00995432 -0.11242496
v 0.05175055 0.04416893 -0.10430153
v 0.07875499 0.00983416 -0.10914206
v 0.07949674 0.00012750 -0.10186501
v 0.07921251 0.00819211 -0.10327541
v 0.07839580 0.01035598 -0.11339489
v 0.05182460 0.04392281 -0.10698055
v 0.07847989 0.00226547 -0.11517847
v 0.07847443 0.00423521 -0.11469660
v 0.07949431 0.00059809 -0.10142640
v 0.07753779 0.01038061 -0.12098184
v 0.06856032 0.03522565 -0.12369746
v 0.07355259 0.03041906 -0.11678762
v 0.07419451 0.02948692 -0.11487072
v 0.05970033 0.04155124 -0.11296355
v 0.06418605 0.03970075 -0.11339606
v 0.06314400 0.04141145 -0.10137355
v 0.05137463 0.04211464 -0.12368464
v 0.07432571 0.02956142 -0.11328412
v 0.05304551 0.04312926 -0.11323915
v 0.07616206 0.02577328 -0.10996120
v 0.05277672 0.04412277 -0.10287603
v 0.07938049 0.00143812 -0.10384701
v 0.05863467 0.04014885 -0.12390036
v 0.05249911 0.04427426 -0.10168611
v 0.07330393 0.03135882 -0.11375572
v 0.07579585 0.01840105 -0.12390326
v 0.07352078 0.03269556 -0.10353214
v 0.05602162 0.04154119 -0.12336614
v 0.07112228 0.03575473 -0.10397284
v 0.07674755 0.02583185 -0.10074371
v 0.06658123 0.03725380 -0.12317442
v 0.06668746 0.03798710 -0.11701489
v 0.06768106 0.03515819 -0.12390185
v 0.07825407 0.01092648 -0.11418243
v 0.07154056 0.03551694 -0.10193415
v 0.06825023 0.03785823 -0.10802620
v 0.07159177 0.03255603 -0.12126446
v 0.07497772 0.02791478 -0.11360594
v 0.07840594 0.00116984 -0.11609595
f 4 261 319
f 219 133 115
f 70 133 219
f 219 43 70
f 70 43 443
f 261 4 70
f 325 115 133
f 133 70 64
f 64 70 178
f 300 173 221
f 4 221 127
f 178 101 32
f 443 43 150
f 298 354 72
f 198 124 319
f 75 4 319
f 75 221 4
f 319 255 75
f 255 221 75
f 178 70 292
f 292 101 178
f 19 388 321
f 298 72 442
f 240 23 169
f 466 363 266
f 217 363 466
f 43 354 356
f 356 150 43
f 443 150 329
f 444 354 43
f 43 72 444
f 444 72 354
f 133 64 29
f 29 339 133
f 64 339 29
f 234 64 178
f 178 32 234
f 248 234 32
f 319 261 344
f 261 220 344
f 295 446 223
f 349 181 407
f 416 181 52
f 156 363 217
f 23 363 156
f 156 169 23
f 168 23 240
f 240 169 81
f 92 32 101
f 101 466 92
f 338 203 388
f 202 203 149
f 149 338 391
f 203 338 149
f 266 388 146
f 388 203 146
f 202 466 146
f 146 203 202
f 261 70 180
f 180 329 261
f 462 72 43
f 59 354 298
f 114 237 88
f 234 248 233
f 416 52 378
f 428 136 55
f 314 197 157
f 197 1 157
f 239 19 321
f 321 167 239
f 174 156 217
f 217 466 174
f 174 466 101
f 117 363 23
f 23 168 117
f 202 149 123
f 123 466 202
f 123 92 466
f 123 248 32
f 32 92 123
f 162 466 266
f 266 146 162
f 162 146 466
f 443 329 449
f 329 180 449
f 449 70 443
f 449 180 70
f 43 390 433
f 433 462 43
f 390 462 433
f 262 462 390
f 270 390 43
f 270 343 390
f 270 43 219
f 219 115 270
f 422 338 388
f 422 348 391
f 66 59 298
f 260 114 398
f 133 339 260
f 237 114 260
f 196 114 88
f 88 479 196
f 196 479 398
f 28 339 64
f 64 234 28
f 290 233 248
f 391 237 290
f 290 149 391
f 290 123 149
f 52 229 438
f 438 378 52
f 56 45 250
f 12 45 56
f 159 243 414
f 414 439 159
f 357 243 159
f 159 412 357
f 205 441 220
f 223 446 461
f 461 326 223
f 416 378 120
f 44 376 55
f 2 286 342
f 124 198 342
f 342 286 124
f 276 286 2
f 41 295 223
f 41 415 295
f 401 81 173
f 173 212 51
f 51 473 173
f 212 68 51
f 51 68 473
f 122 350 399
f 399 392 122
f 45 392 399
f 136 428 42
f 421 431 229
f 421 229 52
f 313 361 379
f 38 57 313
f 313 57 469
f 266 374 110
f 374 118 110
f 273 374 218
f 274 374 273
f 274 118 374
f 321 388 177
f 332 127 221
f 63 274 253
f 63 177 118
f 118 274 63
f 63 167 321
f 321 177 63
f 25 237 391
f 391 348 25
f 156 174 193
f 169 156 193
f 193 81 169
f 173 81 193
f 363 117 153
f 266 363 153
f 153 374 266
f 416 49 104
f 72 462 310
f 343 270 247
f 247 270 479
f 285 343 247
f 247 479 285
f 37 325 133
f 115 325 37
f 37 270 115
f 317 262 390
f 19 7 445
f 450 130 348
f 348 422 450
f 391 338 311
f 311 422 391
f 338 422 311
f 88 237 281
f 346 260 398
f 398 114 17
f 17 196 398
f 114 196 17
f 339 28 226
f 226 28 233
f 233 290 226
f 226 260 339
f 237 260 226
f 226 290 237
f 234 233 387
f 387 28 234
f 233 28 387
f 248 123 436
f 436 290 248
f 123 290 436
f 394 323 116
f 31 49 416
f 414 49 31
f 26 439 414
f 77 250 45
f 439 26 77
f 122 392 182
f 182 42 122
f 47 392 45
f 45 12 47
f 47 12 98
f 412 159 381
f 241 220 261
f 241 205 220
f 414 243 405
f 441 205 464
f 446 441 464
f 464 461 446
f 389 31 416
f 124 286 256
f 286 276 256
f 137 209 461
f 326 461 372
f 461 209 372
f 412 323 213
f 213 323 394
f 8 265 3
f 3 265 397
f 3 137 8
f 397 228 3
f 209 137 3
f 345 342 295
f 295 415 345
f 2 342 345
f 24 377 341
f 245 38 341
f 341 377 245
f 201 21 337
f 337 21 24
f 379 361 69
f 361 21 69
f 264 68 212
f 264 463 210
f 264 212 173
f 173 463 264
f 364 6 121
f 364 362 428
f 364 428 55
f 121 68 164
f 173 473 406
f 406 401 173
f 296 410 451
f 161 3 228
f 62 221 255
f 62 255 319
f 319 124 62
f 124 256 62
f 62 256 276
f 148 350 20
f 148 399 350
f 20 53 148
f 54 364 55
f 6 364 54
f 55 376 54
f 376 472 54
f 82 368 296
f 82 451 121
f 296 451 82
f 229 79 222
f 299 472 376
f 315 187 279
f 394 116 279
f 279 187 394
f 428 362 366
f 366 42 428
f 122 42 366
f 469 431 235
f 431 421 235
f 38 313 30
f 30 341 38
f 201 341 30
f 475 313 469
f 361 313 475
f 469 235 475
f 475 235 333
f 349 361 475
f 475 333 181
f 181 349 475
f 132 194 296
f 99 377 24
f 24 21 99
f 374 176 108
f 108 218 374
f 318 67 294
f 197 318 294
f 314 157 165
f 165 63 314
f 195 16 127
f 127 332 195
f 195 193 16
f 314 63 370
f 370 63 253
f 36 7 19
f 19 239 36
f 36 239 167
f 348 130 327
f 327 25 348
f 16 193 190
f 190 193 174
f 225 318 197
f 197 176 225
f 416 104 277
f 407 181 277
f 277 181 416
f 335 356 354
f 150 356 335
f 335 329 150
f 335 104 329
f 423 63 242
f 242 165 423
f 423 165 157
f 359 157 1
f 462 262 61
f 61 310 462
f 262 317 61
f 61 317 310
f 408 317 422
f 422 445 408
f 19 445 474
f 474 445 422
f 388 19 474
f 474 422 388
f 285 479 437
f 437 447 285
f 437 479 88
f 88 447 437
f 268 450 422
f 260 346 402
f 160 53 20
f 229 244 166
f 166 79 229
f 166 244 38
f 166 222 79
f 166 38 245
f 245 222 166
f 58 231 438
f 56 250 238
f 238 31 56
f 250 77 40
f 40 77 26
f 136 42 455
f 42 182 455
f 39 148 53
f 205 411 65
f 65 411 261
f 65 464 205
f 261 329 65
f 329 104 65
f 65 104 49
f 145 49 414
f 414 405 145
f 243 461 403
f 461 464 403
f 403 405 243
f 98 12 139
f 56 31 230
f 31 389 230
f 163 389 416
f 83 389 163
f 163 307 83
f 44 267 291
f 267 84 291
f 83 307 291
f 291 84 83
f 357 412 111
f 412 213 111
f 459 211 22
f 22 275 459
f 211 161 22
f 22 161 228
f 415 275 22
f 22 345 415
f 415 41 280
f 280 275 415
f 24 341 271
f 271 337 24
f 271 341 201
f 201 337 271
f 375 21 361
f 375 171 21
f 407 171 375
f 288 94 9
f 9 10 288
f 68 264 86
f 210 315 86
f 86 264 210
f 308 364 121
f 308 86 315
f 394 187 147
f 210 463 204
f 204 463 173
f 236 315 210
f 401 406 106
f 240 81 106
f 81 401 106
f 106 406 473
f 410 257 106
f 154 410 296
f 154 257 410
f 296 194 154
f 380 68 121
f 380 451 68
f 471 82 121
f 303 60 296
f 245 60 303
f 296 368 191
f 20 350 27
f 27 279 116
f 27 350 122
f 122 279 27
f 122 366 420
f 420 279 122
f 96 132 296
f 296 60 96
f 96 60 245
f 96 377 418
f 245 377 96
f 409 99 21
f 386 99 409
f 21 184 409
f 409 184 386
f 194 99 330
f 330 154 194
f 257 154 330
f 330 168 240
f 240 257 330
f 396 176 197
f 396 108 176
f 215 458 435
f 435 458 478
f 478 263 435
f 435 263 294
f 197 294 278
f 278 1 197
f 278 263 460
f 294 263 278
f 460 324 278
f 278 359 1
f 242 63 189
f 167 63 112
f 63 382 112
f 374 153 135
f 293 153 117
f 293 117 168
f 293 10 9
f 168 330 293
f 318 225 384
f 225 293 384
f 246 324 460
f 354 59 71
f 71 335 354
f 400 423 152
f 152 423 157
f 470 277 104
f 104 140 470
f 317 408 440
f 310 317 440
f 298 442 440
f 440 442 72
f 72 310 440
f 306 408 445
f 448 216 317
f 447 216 448
f 448 317 390
f 285 447 448
f 448 343 285
f 390 343 448
f 422 317 74
f 74 268 422
f 103 447 88
f 103 216 447
f 103 74 216
f 59 66 434
f 334 73 119
f 119 306 334
f 334 306 445
f 385 402 346
f 385 346 398
f 398 479 385
f 479 270 385
f 133 260 91
f 260 402 91
f 48 116 323
f 15 438 229
f 229 191 15
f 15 191 368
f 376 44 131
f 378 438 200
f 438 432 200
f 438 231 476
f 476 432 438
f 148 39 347
f 98 139 252
f 252 139 11
f 55 136 252
f 252 11 55
f 12 320 142
f 287 142 320
f 287 320 267
f 55 11 287
f 287 44 55
f 287 267 44
f 158 320 12
f 360 389 83
f 83 84 360
f 378 44 429
f 44 291 429
f 429 291 307
f 429 120 378
f 228 13 18
f 13 62 18
f 125 22 228
f 228 18 125
f 345 22 125
f 232 386 100
f 386 184 100
f 427 151 297
f 10 293 297
f 297 330 170
f 297 293 330
f 258 458 215
f 232 458 258
f 425 458 232
f 460 263 426
f 102 164 68
f 68 86 102
f 86 308 102
f 121 164 102
f 102 308 121
f 362 364 305
f 364 308 305
f 315 279 305
f 305 308 315
f 265 213 128
f 397 265 128
f 128 213 394
f 394 147 128
f 128 187 315
f 128 147 187
f 210 204 373
f 373 236 210
f 13 236 373
f 204 457 373
f 192 257 240
f 240 106 192
f 192 106 257
f 207 451 410
f 410 106 207
f 68 451 207
f 473 68 207
f 207 106 473
f 121 451 134
f 134 380 121
f 451 380 134
f 97 457 300
f 300 221 97
f 221 62 97
f 85 457 204
f 85 204 173
f 300 457 85
f 85 173 300
f 472 471 141
f 6 54 141
f 141 54 472
f 121 6 141
f 141 471 121
f 472 299 109
f 109 471 472
f 229 222 179
f 179 191 229
f 179 303 296
f 296 191 179
f 20 27 404
f 404 27 116
f 404 160 20
f 116 48 404
f 33 96 418
f 132 96 33
f 35 386 232
f 232 258 35
f 35 258 452
f 63 165 417
f 417 189 63
f 417 165 242
f 242 189 417
f 138 135 153
f 153 293 138
f 138 293 225
f 9 67 50
f 50 293 9
f 50 67 318
f 284 369 246
f 227 171 407
f 407 113 227
f 227 113 171
f 328 359 400
f 400 152 328
f 157 359 328
f 328 152 157
f 322 277 304
f 277 470 304
f 304 369 322
f 155 140 188
f 155 470 140
f 188 105 155
f 317 216 424
f 424 74 317
f 216 74 424
f 74 103 312
f 88 281 312
f 312 103 88
f 383 434 66
f 90 78 104
f 90 383 73
f 434 383 90
f 438 15 249
f 89 347 39
f 89 39 381
f 89 381 159
f 419 158 12
f 355 369 34
f 336 269 427
f 336 297 170
f 427 297 336
f 452 258 107
f 107 269 452
f 427 269 107
f 107 258 151
f 232 175 351
f 351 355 34
f 351 175 185
f 430 228 397
f 430 13 228
f 302 128 315
f 315 236 302
f 13 373 309
f 309 373 457
f 457 97 309
f 309 62 13
f 309 97 62
f 353 179 222
f 303 179 353
f 353 222 245
f 245 303 353
f 160 404 454
f 454 404 48
f 465 35 99
f 477 330 99
f 99 35 477
f 477 35 330
f 170 330 301
f 301 76 170
f 330 76 301
f 330 35 413
f 413 76 330
f 413 35 452
f 413 452 170
f 170 76 413
f 34 369 14
f 369 284 14
f 400 359 393
f 73 334 251
f 251 90 73
f 251 112 382
f 78 90 251
f 224 140 104
f 95 131 58
f 376 131 95
f 95 299 376
f 95 249 299
f 95 58 438
f 438 249 95
f 254 15 368
f 254 249 15
f 456 12 56
f 456 419 12
f 21 171 467
f 467 185 184
f 467 184 21
f 277 272 208
f 407 277 208
f 208 113 407
f 94 288 80
f 365 151 427
f 427 107 365
f 365 107 151
f 358 425 232
f 232 351 358
f 395 426 263
f 277 355 352
f 355 351 352
f 352 351 185
f 352 272 277
f 185 467 352
f 397 128 468
f 468 430 397
f 128 302 468
f 13 430 468
f 468 236 13
f 468 302 236
f 126 99 386
f 126 465 99
f 386 35 126
f 35 465 126
f 87 393 46
f 46 259 87
f 324 246 331
f 331 46 324
f 259 46 331
f 246 369 331
f 369 304 331
f 470 259 331
f 331 304 470
f 5 224 371
f 78 5 371
f 104 78 371
f 371 224 104
f 400 183 316
f 316 199 400
f 316 183 105
f 316 105 188
f 144 423 400
f 400 199 144
f 63 423 144
f 299 249 129
f 249 254 129
f 453 214 206
f 453 206 258
f 453 258 215
f 206 214 340
f 340 80 206
f 94 80 340
f 367 395 34
f 426 395 367
f 283 351 34
f 34 395 283
f 93 393 359
f 93 46 393
f 324 46 93
f 93 278 324
f 359 278 93
f 289 251 334
f 289 282 251
f 112 251 172
f 251 282 172
f 186 316 188
f 199 316 186
f 143 199 5
f 143 144 199
f 143 5 78
f 78 251 143
f 342 441 446
f 342 198 319
f 319 344 342
f 220 441 342
f 342 344 220
f 446 295 342
f 266 110 177
f 177 388 266
f 177 110 118
f 469 57 244
f 244 431 469
f 229 431 244
f 244 57 38
f 205 241 411
f 411 241 261
f 181 333 235
f 235 52 181
f 235 421 52
f 30 21 201
f 30 313 379
f 379 69 30
f 30 69 21
f 195 221 173
f 195 332 221
f 173 193 195
f 190 70 4
f 4 127 190
f 190 292 70
f 101 292 190
f 127 16 190
f 190 174 101
f 40 26 414
f 414 31 40
f 40 238 250
f 31 238 40
f 403 65 49
f 464 65 403
f 49 145 403
f 403 145 405
f 111 243 357
f 111 461 243
f 8 137 111
f 111 265 8
f 111 137 461
f 111 213 265
f 223 326 280
f 280 41 223
f 209 3 280
f 326 372 280
f 459 275 280
f 3 161 280
f 280 372 209
f 280 211 459
f 280 161 211
f 375 361 349
f 375 349 407
f 396 197 314
f 273 218 396
f 314 370 396
f 396 274 273
f 253 274 396
f 218 108 396
f 396 370 253
f 270 37 91
f 91 37 133
f 91 385 270
f 402 385 91
f 476 44 378
f 476 131 44
f 231 58 476
f 378 200 476
f 58 131 476
f 476 200 432
f 252 47 98
f 252 182 392
f 392 47 252
f 136 455 252
f 252 455 182
f 11 139 287
f 287 139 12
f 12 142 287
f 416 120 429
f 429 163 416
f 307 163 429
f 125 62 276
f 125 276 2
f 2 345 125
f 125 18 62
f 305 420 366
f 279 420 305
f 305 366 362
f 377 99 33
f 418 377 33
f 194 132 33
f 33 99 194
f 138 176 374
f 138 225 176
f 374 135 138
f 318 384 50
f 50 384 293
f 312 281 237
f 237 25 312
f 130 450 312
f 312 327 130
f 25 327 312
f 450 268 312
f 268 74 312
f 383 66 298
f 383 306 119
f 119 73 383
f 298 440 383
f 383 440 408
f 408 306 383
f 104 335 90
f 90 71 59
f 335 71 90
f 59 434 90
f 89 159 439
f 45 399 89
f 89 77 45
f 439 77 89
f 399 148 89
f 148 347 89
f 232 100 175
f 175 100 184
f 184 185 175
f 322 369 355
f 355 277 322
f 452 269 336
f 170 452 336
f 454 323 412
f 53 160 454
f 412 381 454
f 454 39 53
f 381 39 454
f 454 48 323
f 259 183 400
f 470 155 259
f 400 393 259
f 259 155 105
f 105 183 259
f 259 393 87
f 389 360 456
f 56 230 456
f 456 230 389
f 267 320 456
f 456 84 267
f 320 158 456
f 456 360 84
f 158 419 456
f 80 288 10
f 10 297 80
f 80 297 151
f 151 258 80
f 258 206 80
f 352 467 171
f 171 113 352
f 113 208 352
f 352 208 272
f 129 109 299
f 368 82 129
f 82 471 129
f 471 109 129
f 129 254 368
f 340 67 9
f 9 94 340
f 340 294 67
f 215 435 340
f 340 435 294
f 340 453 215
f 214 453 340
f 460 426 367
f 367 246 460
f 367 284 246
f 34 14 367
f 367 14 284
f 458 425 283
f 425 358 283
f 283 263 478
f 478 458 283
f 283 358 351
f 283 395 263
f 172 36 167
f 172 289 334
f 172 334 445
f 167 112 172
f 7 36 172
f 172 445 7
f 282 289 172
f 140 224 186
f 188 140 186
f 186 224 5
f 5 199 186
f 143 382 63
f 63 144 143
f 143 251 382

