# https://github.com/mikedh/trimesh
v 0.12434225 0.00004338 -0.01447177
v 0.10050969 0.00464396 -0.00752947
v 0.10021267 0.00616296 -0.00753233
v 0.10006752 0.02135055 -0.01109714
v 0.10001009 0.00294285 -0.00992015
v 0.10100392 0.01043697 -0.00820825
v 0.12420582 0.01168339 -0.01496572
v 0.10142732 0.00865495 -0.00811198
v 0.12419254 0.02486304 -0.01902231
v 0.11083349 0.00010476 -0.01500006
v 0.11237516 0.00018047 -0.01500006
v 0.12412029 0.01567059 -0.01565561
v 0.12495157 0.00767813 -0.01475656
v 0.12476086 0.00417748 -0.01450916
v 0.12443206 0.02188908 -0.01760780
v 0.10051898 0.00045649 -0.01500006
v 0.10082439 0.02062061 -0.01094717
v 0.10044576 0.01342781 -0.00851803
v 0.11624547 0.02497351 -0.01720102
v 0.10034921 0.02406152 -0.01273802
v 0.10028371 0.01502621 -0.00887502
v 0.10256949 0.02491228 -0.01391519
v 0.10291089 0.00000011 -0.01500006
v 0.12399749 0.02431964 -0.01867426
v 0.10002830 0.01870898 -0.01500006
v 0.10025503 0.01590036 -0.00908320
v 0.10007726 0.00131342 -0.00993535
v 0.12384538 0.02378838 -0.01834825
v 0.10115578 0.02484173 -0.01347400
v 0.12460300 0.00917967 -0.01476949
v 0.12462886 0.02189413 -0.01766298
v 0.12470066 0.02223684 -0.01781704
v 0.12459615 0.02124693 -0.01741866
v 0.12464717 0.01701733 -0.01608562
v 0.11912439 0.02496544 -0.01784860
v 0.12343693 0.00062822 -0.01409809
v 0.10006356 0.02103115 -0.01317464
v 0.10034165 0.02294088 -0.01206853
v 0.11324760 0.02495966 -0.01651326
v 0.12450827 0.01741593 -0.01615158
v 0.12474780 0.01261728 -0.01526783
v 0.10974278 0.00010118 -0.01036676
v 0.12463039 0.00661471 -0.01458500
v 0.10027042 0.00210148 -0.00741425
v 0.10056470 0.00025255 -0.00749616
v 0.10009633 0.00059601 -0.00733925
v 0.12495187 0.01891580 -0.01672294
v 0.10018827 0.01834972 -0.00975421
v 0.12378123 0.00250864 -0.01421034
v 0.10030702 0.02375555 -0.01253537
v 0.10069636 0.02022168 -0.01499723
v 0.12439542 0.02243627 -0.01782776
v 0.10011162 0.00389664 -0.01500006
v 0.10033470 0.01275816 -0.00834596
v 0.10264693 0.00016601 -0.00816138
v 0.10992477 0.00007758 -0.01500007
v 0.12481935 0.00596486 -0.01460262
f 11 9 1
f 47 33 48
f 4 50 37
f 56 1 23
f 23 9 56
f 53 27 5
f 35 9 19
f 35 50 9
f 38 4 9
f 9 50 38
f 38 50 4
f 22 35 19
f 4 52 28
f 15 48 33
f 4 48 17
f 17 52 4
f 48 52 17
f 10 11 1
f 1 56 10
f 9 11 10
f 10 56 9
f 30 41 7
f 41 54 7
f 5 27 46
f 46 4 5
f 46 48 4
f 27 53 16
f 16 9 23
f 16 53 9
f 16 46 27
f 9 53 25
f 25 53 5
f 5 4 25
f 4 37 25
f 23 1 42
f 39 22 19
f 9 4 24
f 4 28 24
f 31 15 33
f 31 33 47
f 32 52 48
f 48 15 32
f 15 31 32
f 9 24 32
f 32 31 47
f 32 28 52
f 32 24 28
f 1 9 32
f 32 14 1
f 6 7 54
f 6 8 30
f 30 7 6
f 26 54 21
f 21 18 26
f 54 18 21
f 34 18 54
f 34 41 47
f 26 18 34
f 1 14 36
f 45 16 23
f 46 16 45
f 1 36 45
f 45 36 46
f 9 25 51
f 19 9 51
f 51 39 19
f 22 39 51
f 13 41 30
f 47 41 13
f 13 32 47
f 14 32 13
f 12 54 41
f 41 34 12
f 12 34 54
f 40 48 26
f 26 34 40
f 47 48 40
f 40 34 47
f 14 46 49
f 49 36 14
f 46 36 49
f 23 42 55
f 55 45 23
f 55 42 1
f 1 45 55
f 29 51 25
f 22 51 29
f 35 22 29
f 8 6 3
f 30 8 3
f 3 6 54
f 3 13 30
f 46 2 3
f 43 13 3
f 3 2 43
f 3 54 26
f 26 48 3
f 48 46 3
f 44 46 14
f 14 2 44
f 44 2 46
f 57 2 14
f 43 2 57
f 14 13 57
f 57 13 43
f 20 29 25
f 20 37 50
f 20 25 37
f 50 35 20
f 35 29 20

