# https://github.com/mikedh/trimesh
v 0.05377032 0.01865124 -0.12741134
v 0.05027312 0.02544016 -0.13998457
v 0.05001165 0.02898948 -0.12785406
v 0.05095883 0.02662198 -0.13120354
v 0.05396952 0.00644669 -0.14501017
v 0.05456420 0.01285962 -0.13131586
v 0.05093632 0.02481733 -0.13695136
v 0.05378349 0.02493408 -0.11074463
v 0.05642067 0.01434240 -0.10832809
v 0.05499743 0.00992167 -0.13089251
v 0.05116605 0.02476009 -0.13527957
v 0.05612128 0.01597502 -0.10825817
v 0.05651973 0.00071787 -0.12141995
v 0.05447022 0.01905562 -0.11934220
v 0.05004059 0.03018213 -0.11810199
v 0.05518492 0.01555428 -0.11929750
v 0.05384059 0.02583355 -0.10725955
v 0.05572802 0.01767589 -0.10907013
v 0.05032334 0.02653106 -0.13616200
v 0.05542687 0.01763867 -0.11242076
v 0.05162085 0.02494440 -0.13113504
v 0.05459342 0.02493818 -0.10153437
v 0.05357923 0.01913592 -0.12823662
v 0.05559167 0.01913800 -0.10754183
v 0.05127779 0.01877897 -0.14861319
v 0.05309944 0.00984493 -0.14940266
v 0.05326549 0.01809006 -0.13337262
v 0.05197128 0.02429934 -0.12972044
v 0.05352556 0.02048149 -0.12521009
v 0.05359490 0.01800375 -0.13057849
v 0.05534264 0.00000183 -0.11201846
v 0.05471481 0.01334615 -0.12886033
v 0.05755357 0.00410151 -0.10793532
v 0.05257489 0.02943058 -0.10100773
v 0.05728836 0.01202465 -0.10098263
v 0.05403636 0.01147112 -0.13837143
v 0.05357165 0.00471797 -0.14994306
v 0.05373198 0.01852016 -0.12808310
v 0.05643261 0.01369367 -0.10951965
v 0.05354594 0.01985666 -0.12666193
v 0.05522368 0.01913965 -0.11139640
v 0.05700453 0.00211731 -0.11542399
v 0.05069296 0.03027390 -0.11193546
v 0.05539626 0.00623462 -0.13141866
v 0.05207457 0.02712363 -0.11917798
v 0.05190278 0.01830955 -0.14454508
v 0.05009975 0.02655021 -0.13759527
v 0.05157018 0.02501766 -0.13137466
v 0.05577902 0.00580125 -0.12744200
v 0.05672883 0.01347961 -0.10655238
v 0.05416959 0.02547622 -0.10486528
v 0.05217073 0.02753699 -0.11667313
v 0.05404546 0.00025894 -0.14753995
v 0.05613684 0.01838383 -0.10238499
v 0.05707544 0.00463588 -0.11330027
v 0.05775240 0.00653814 -0.10329877
v 0.05404346 0.01912779 -0.12351635
v 0.05195986 0.02929171 -0.10881613
v 0.05013637 0.03056228 -0.11415876
v 0.05015815 0.03141656 -0.10504094
v 0.05772674 0.00773178 -0.10163233
v 0.05756127 0.00601999 -0.10685288
v 0.05231365 0.02964643 -0.10229027
v 0.05451704 0.00587627 -0.14016886
v 0.05467059 0.01197288 -0.13161829
v 0.05597453 0.01872650 -0.10363776
v 0.05197419 0.02544828 -0.12658448
v 0.05321946 0.01033273 -0.14765631
v 0.05426950 0.01480157 -0.13038261
v 0.05013748 0.02832568 -0.13036611
v 0.05276219 0.02914167 -0.10094301
v 0.05743931 0.00002396 -0.11116758
v 0.05773570 0.00487751 -0.10509059
v 0.05013408 0.02726211 -0.13459351
v 0.05119510 0.02690739 -0.12811947
v 0.05218335 0.02992653 -0.10062189
v 0.05708200 0.00435079 -0.11337463
v 0.05178748 0.01633552 -0.14979930
v 0.05004851 0.02632542 -0.11919331
v 0.05159377 0.01847733 -0.14671167
v 0.05123484 0.03073427 -0.10219867
v 0.05681154 0.00149758 -0.11794398
v 0.05635908 0.01749950 -0.10166191
v 0.05011515 0.02273714 -0.14767580
v 0.05755400 0.00483577 -0.10757208
v 0.05619507 0.00069084 -0.10007310
v 0.05224154 0.01466386 -0.14890704
v 0.05355319 0.02228690 -0.12009441
v 0.05622678 0.00025672 -0.10017164
v 0.05130754 0.03003969 -0.10878159
v 0.05004267 0.02484441 -0.14352085
v 0.05001434 0.01747030 -0.14424018
v 0.05445925 0.01927766 -0.11887125
v 0.05544281 0.02199148 -0.10061939
v 0.05794343 0.00346369 -0.10299926
v 0.05006569 0.02700266 -0.13604413
v 0.05559402 0.01954825 -0.10633479
v 0.05536367 0.02013291 -0.10728130
v 0.05512411 0.00000519 -0.13650469
v 0.05283688 0.01791659 -0.13753758
v 0.05366109 0.00539785 -0.14869397
v 0.05270507 0.02288650 -0.12671743
v 0.05002851 0.01475400 -0.14967567
v 0.05333132 0.02088107 -0.12602646
v 0.05113985 0.03080928 -0.10242202
v 0.05322136 0.00864809 -0.14964631
v 0.05643070 0.00044922 -0.12243543
v 0.05336710 0.02662868 -0.10902128
v 0.05117089 0.02942415 -0.11501164
v 0.05238151 0.02886365 -0.10738047
v 0.05695948 0.01494810 -0.10006370
v 0.05177843 0.01670886 -0.14906939
v 0.05325290 0.02836880 -0.10088970
v 0.05200695 0.02979508 -0.10405504
v 0.05762905 0.00117147 -0.10835677
v 0.05154994 0.02586090 -0.12880053
v 0.05233483 0.02977345 -0.10063825
v 0.05240947 0.02876976 -0.10774077
v 0.05683598 0.01555075 -0.10023272
v 0.05761852 0.00262198 -0.10782441
v 0.05350174 0.02555008 -0.11176019
v 0.05288866 0.02783407 -0.10870731
v 0.05610601 0.01644822 -0.10740620
v 0.05481256 0.02454962 -0.10015236
v 0.05037300 0.03156222 -0.10048369
v 0.05807401 0.00363663 -0.10112595
v 0.05187495 0.00003747 -0.14853159
v 0.05602245 0.00003972 -0.12700081
v 0.05403998 0.02529935 -0.10693650
v 0.05318020 0.02769312 -0.10664945
v 0.05517864 0.00893933 -0.13026269
v 0.05701418 0.01064814 -0.10754046
v 0.05284733 0.02473296 -0.12037416
v 0.05347941 0.01138074 -0.14362909
v 0.05008846 0.02900493 -0.10195728
v 0.05820227 0.00111076 -0.10069494
v 0.05229690 0.01701218 -0.14404319
v 0.05553552 0.02135511 -0.10148997
v 0.05281380 0.02712996 -0.11231832
v 0.05694716 0.00651695 -0.11360545
v 0.05584330 0.00460646 -0.12733540
v 0.05697932 0.01250689 -0.10488186
v 0.05405300 0.02514054 -0.10727282
v 0.05764963 0.00914809 -0.10037161
v 0.05307032 0.00999084 -0.14951122
v 0.05534504 0.01261049 -0.12350026
v 0.05740749 0.00707011 -0.10767688
v 0.05640027 0.00204661 -0.12233647
v 0.05022666 0.02326856 -0.14579495
v 0.05175646 0.01775951 -0.14698599
v 0.05084031 0.02752292 -0.12848488
v 0.05737393 0.00708802 -0.10805611
v 0.05361569 0.02625139 -0.10802208
v 0.05329853 0.02520802 -0.11471690
v 0.05021370 0.02920616 -0.12474974
v 0.05709392 0.00965396 -0.10796247
v 0.05175551 0.02974647 -0.10740154
v 0.05111342 0.02805381 -0.10031804
v 0.05388595 0.02525122 -0.10885742
v 0.05544286 0.00657149 -0.13056461
v 0.05768372 0.00104310 -0.10775068
v 0.05685787 0.00648738 -0.11465772
v 0.05522443 0.00742839 -0.13166265
v 0.05282885 0.01852574 -0.13628997
v 0.05212341 0.02473538 -0.12730117
v 0.05312499 0.02011619 -0.13004425
v 0.05026023 0.02972900 -0.12003424
v 0.05253952 0.02414272 -0.12494883
v 0.05059061 0.03142821 -0.10036057
v 0.05182784 0.00035228 -0.14913329
v 0.05672353 0.01254164 -0.10846335
v 0.05505448 0.00698445 -0.13384133
v 0.05226394 0.01633520 -0.14570776
v 0.05174373 0.00307599 -0.14966214
v 0.05214692 0.01819055 -0.14276324
v 0.05188661 0.02964370 -0.10708488
v 0.05340386 0.00903877 -0.14740977
v 0.05411734 0.00088946 -0.14657409
v 0.05473276 0.02228924 -0.10806085
v 0.05780590 0.00001911 -0.10661887
v 0.05302750 0.01872469 -0.13418317
v 0.05328567 0.00876750 -0.14887991
v 0.05742875 0.00524206 -0.10892276
v 0.05274175 0.02146737 -0.13003234
v 0.05243149 0.01676621 -0.14339801
v 0.05577780 0.00640797 -0.12699916
v 0.05618184 0.01302356 -0.11361158
v 0.05177305 0.02507616 -0.12952002
v 0.05082241 0.02430064 -0.13915600
v 0.05375908 0.01152798 -0.14087960
v 0.05390336 0.01650319 -0.13056538
v 0.05768349 0.00860835 -0.10078336
v 0.05053680 0.01257513 -0.14976234
v 0.05598119 0.00614415 -0.12496230
v 0.05810724 0.00355126 -0.10069269
v 0.05053361 0.02428238 -0.14150149
v 0.05783951 0.00624126 -0.10238224
v 0.05708774 0.01275555 -0.10288914
v 0.05529740 0.01961716 -0.10940805
v 0.05423702 0.00575756 -0.14295066
v 0.05377398 0.00158367 -0.14955321
v 0.05495019 0.01284873 -0.12736108
v 0.05553630 0.01844581 -0.10958673
v 0.05687164 0.01473418 -0.10172970
v 0.05647597 0.00624345 -0.11928063
v 0.05753913 0.00002285 -0.10996379
v 0.05071282 0.02474984 -0.13890806
v 0.05411075 0.02460889 -0.10823208
v 0.05369018 0.00308199 -0.14969416
v 0.05223837 0.01505634 -0.14823310
v 0.05047785 0.02425584 -0.14197107
v 0.05430555 0.02620067 -0.10014238
v 0.05430431 0.00055874 -0.14481170
v 0.05539506 0.01839759 -0.11119418
v 0.05696979 0.00102519 -0.11637698
v 0.05388006 0.01893922 -0.12567258
v 0.05287928 0.02815837 -0.10675268
v 0.05691649 0.01333235 -0.10425401
v 0.05653221 0.00121446 -0.12120231
f 79 135 3
f 31 89 127
f 127 89 135
f 127 99 31
f 103 127 135
f 99 127 53
f 136 89 180
f 31 99 180
f 180 89 31
f 86 111 212
f 135 89 86
f 86 89 136
f 125 60 135
f 125 169 60
f 135 86 125
f 92 79 3
f 135 79 92
f 92 103 135
f 193 78 37
f 193 103 78
f 99 53 213
f 37 78 106
f 212 111 124
f 111 94 124
f 60 169 105
f 105 59 60
f 212 169 158
f 158 86 212
f 169 125 158
f 158 125 86
f 78 103 84
f 103 193 174
f 174 193 37
f 37 201 174
f 178 213 53
f 94 54 138
f 119 94 111
f 206 180 99
f 99 72 206
f 128 72 99
f 13 128 219
f 110 58 176
f 60 59 15
f 3 135 15
f 135 60 15
f 90 105 157
f 59 105 90
f 117 169 212
f 30 181 23
f 122 70 3
f 127 103 170
f 103 174 170
f 170 174 201
f 170 53 127
f 170 201 53
f 209 201 37
f 27 181 30
f 27 100 181
f 137 100 185
f 78 137 185
f 185 173 78
f 100 27 185
f 185 27 30
f 30 191 185
f 181 100 164
f 183 62 85
f 197 62 56
f 98 138 97
f 24 98 97
f 83 54 94
f 94 119 83
f 72 128 107
f 128 13 107
f 43 15 59
f 59 90 43
f 3 15 155
f 169 117 76
f 110 176 34
f 199 98 24
f 48 11 7
f 3 58 118
f 118 122 3
f 118 58 110
f 78 173 210
f 210 87 78
f 166 23 181
f 181 21 166
f 104 29 166
f 181 164 175
f 46 21 181
f 46 80 21
f 181 175 46
f 46 175 150
f 150 80 46
f 37 106 101
f 106 5 101
f 180 206 161
f 62 126 73
f 73 85 62
f 136 126 195
f 144 195 197
f 144 35 111
f 136 195 144
f 144 86 136
f 111 86 144
f 147 56 62
f 147 62 152
f 24 97 66
f 66 138 54
f 66 97 138
f 215 42 183
f 215 13 219
f 72 107 215
f 215 107 13
f 77 55 183
f 183 42 77
f 15 43 167
f 167 155 15
f 109 58 3
f 3 155 109
f 109 176 58
f 157 176 109
f 109 90 157
f 81 105 169
f 169 76 81
f 176 81 114
f 114 81 76
f 63 34 176
f 117 34 63
f 176 114 63
f 113 117 212
f 159 51 129
f 212 124 22
f 22 51 212
f 179 199 159
f 98 199 179
f 159 208 179
f 108 67 139
f 108 121 67
f 139 67 45
f 67 75 45
f 151 19 70
f 19 151 4
f 4 151 75
f 4 2 19
f 152 62 140
f 188 28 21
f 21 48 188
f 188 67 165
f 48 4 188
f 21 28 184
f 184 166 21
f 104 166 102
f 102 166 165
f 165 168 102
f 23 166 40
f 40 166 29
f 91 84 103
f 103 92 91
f 91 92 3
f 91 47 19
f 78 84 25
f 25 112 78
f 11 48 25
f 150 112 25
f 25 80 150
f 21 80 25
f 25 48 21
f 7 11 207
f 207 91 2
f 2 4 207
f 5 64 200
f 200 101 5
f 37 101 200
f 200 209 37
f 200 64 209
f 44 64 5
f 178 209 44
f 209 64 44
f 213 178 44
f 99 213 44
f 44 141 99
f 85 161 120
f 95 126 136
f 95 73 126
f 204 119 111
f 111 50 204
f 197 56 61
f 148 215 219
f 219 128 148
f 99 141 148
f 148 128 99
f 71 34 117
f 117 113 71
f 143 208 159
f 159 129 143
f 159 29 8
f 30 23 38
f 70 19 74
f 19 47 74
f 3 70 96
f 96 91 3
f 47 91 96
f 70 74 96
f 96 74 47
f 130 108 139
f 130 217 113
f 130 113 212
f 118 217 130
f 122 118 130
f 121 108 153
f 108 130 153
f 153 130 212
f 52 45 75
f 75 151 52
f 122 130 52
f 70 122 52
f 52 151 70
f 139 45 52
f 52 130 139
f 116 75 67
f 116 4 75
f 67 188 116
f 116 188 4
f 134 68 87
f 152 140 162
f 24 12 18
f 202 32 16
f 32 20 16
f 214 20 32
f 149 25 84
f 211 25 149
f 84 91 149
f 149 91 211
f 11 25 189
f 141 44 49
f 49 44 194
f 6 32 202
f 202 65 6
f 173 185 6
f 6 185 191
f 6 210 173
f 87 210 6
f 115 161 206
f 115 120 161
f 183 85 33
f 85 120 33
f 171 39 50
f 50 39 9
f 9 123 50
f 24 123 9
f 9 12 24
f 192 144 197
f 197 61 192
f 42 215 82
f 215 148 82
f 154 121 159
f 159 8 154
f 165 67 154
f 67 121 154
f 88 29 104
f 88 8 29
f 23 216 1
f 1 38 23
f 57 14 216
f 57 216 23
f 41 199 24
f 41 14 199
f 24 214 41
f 17 51 159
f 159 121 17
f 121 153 17
f 212 51 17
f 17 153 212
f 194 44 186
f 186 44 160
f 152 162 186
f 160 171 186
f 203 214 24
f 20 214 203
f 24 18 203
f 196 25 211
f 196 189 25
f 211 91 196
f 91 207 196
f 196 207 11
f 11 189 196
f 10 131 160
f 160 44 10
f 69 6 191
f 32 6 69
f 69 191 30
f 30 38 69
f 36 6 65
f 39 171 187
f 111 35 198
f 56 147 198
f 198 61 56
f 198 192 61
f 35 144 198
f 144 192 198
f 133 168 165
f 165 154 133
f 199 14 93
f 14 57 93
f 194 186 205
f 205 186 162
f 205 62 183
f 183 55 205
f 205 140 62
f 205 162 140
f 152 186 156
f 156 186 171
f 156 147 152
f 44 182 177
f 163 10 44
f 6 36 190
f 190 134 87
f 87 6 190
f 190 36 68
f 68 134 190
f 218 171 50
f 218 198 171
f 218 50 111
f 111 198 218
f 132 156 171
f 132 198 147
f 147 156 132
f 202 187 146
f 146 65 202
f 146 187 171
f 146 10 65
f 146 171 160
f 131 10 146
f 160 131 146
f 87 68 145
f 145 106 78
f 78 87 145
f 172 163 44
f 44 177 172
f 171 198 142
f 142 132 171
f 198 132 142
f 26 177 182
f 26 182 106
f 106 145 26
f 53 201 209
f 209 178 53
f 175 137 78
f 78 112 175
f 175 100 137
f 175 112 150
f 175 164 100
f 195 126 62
f 195 62 197
f 109 43 90
f 109 167 43
f 155 167 109
f 81 176 157
f 157 105 81
f 63 114 76
f 63 76 117
f 184 188 165
f 165 166 184
f 28 188 184
f 19 2 91
f 207 4 48
f 207 48 7
f 180 161 95
f 136 180 95
f 85 73 95
f 95 161 85
f 54 83 123
f 119 204 123
f 123 83 119
f 24 66 123
f 123 66 54
f 123 204 50
f 217 118 110
f 110 34 217
f 34 71 217
f 217 71 113
f 143 22 124
f 143 138 98
f 94 138 143
f 143 124 94
f 98 179 143
f 143 129 51
f 51 22 143
f 143 179 208
f 182 44 5
f 182 5 106
f 33 215 183
f 72 215 33
f 33 206 72
f 33 115 206
f 120 115 33
f 14 41 69
f 69 214 32
f 69 1 216
f 216 14 69
f 38 1 69
f 69 41 214
f 20 203 187
f 187 18 12
f 202 16 187
f 12 9 187
f 187 16 20
f 187 9 39
f 187 203 18
f 133 88 104
f 104 102 133
f 133 102 168
f 133 154 8
f 8 88 133
f 93 29 159
f 23 40 93
f 159 199 93
f 93 40 29
f 93 57 23
f 205 148 141
f 55 77 205
f 42 82 205
f 205 77 42
f 141 49 205
f 205 49 194
f 205 82 148
f 26 36 65
f 68 36 26
f 65 10 26
f 10 163 26
f 26 172 177
f 26 145 68
f 163 172 26

