# https://github.com/mikedh/trimesh
v 0.08813761 -0.00959845 0.00138324
v 0.09590307 -0.01277762 0.00282849
v 0.07959852 -0.00689068 0.00101609
v 0.09172428 -0.01036939 0.00140521
v 0.07881690 -0.00803463 0.00154859
v 0.09962563 -0.00334795 0.00024772
v 0.09545805 -0.01142228 0.00156813
v 0.08974246 -0.00994188 0.00139193
v 0.08164895 -0.00966467 0.00247383
v 0.07520206 -0.00564928 0.00159269
v 0.09963140 -0.00143782 0.02225331
v 0.09646019 -0.00099137 0.00049686
v 0.09944991 -0.00705226 0.00033939
v 0.07940968 -0.00967289 0.00333706
v 0.07701435 -0.00000654 0.00092166
v 0.07948296 -0.00888175 0.00208421
v 0.09297155 -0.00354905 0.00020803
v 0.08348957 -0.01005195 0.00249189
v 0.07506245 -0.00882449 0.00357736
v 0.09224102 -0.01231152 0.00343669
v 0.09984912 -0.01123945 0.00109844
v 0.09907201 -0.01342818 0.00284744
v 0.09683087 -0.01315126 0.00320749
v 0.09957762 -0.00743834 0.00037915
v 0.09675568 -0.01328989 0.00362148
v 0.09920513 -0.01381894 0.00373400
v 0.07838173 -0.00566444 0.00076599
v 0.08387773 -0.01049729 0.00313141
v 0.09905722 -0.01352092 0.00302628
v 0.07978513 -0.00569917 0.00071693
v 0.08609666 -0.01036024 0.00222041
v 0.08312996 -0.01055821 0.00369302
v 0.09985533 -0.00439375 0.00021550
v 0.08858908 -0.00389599 0.00026676
v 0.07996647 -0.00010655 0.00022649
v 0.08008493 -0.00905472 0.00212939
v 0.08925809 -0.00465244 0.00030929
v 0.08725907 -0.00949395 0.00141878
v 0.08732986 -0.01135088 0.00352589
v 0.08734763 -0.01059991 0.00220397
v 0.07816494 -0.00019714 0.00049150
v 0.09981646 -0.00189009 0.00046669
v 0.09860670 -0.00225157 0.00034817
v 0.09795681 -0.00010223 0.01241952
v 0.09030343 -0.00961672 0.00120676
v 0.08479359 -0.00852947 0.00121840
v 0.07522221 -0.00037613 0.00092727
v 0.07997778 -0.01150594 0.02492808
v 0.09825958 -0.01342887 0.00318110
v 0.09991347 -0.00079086 0.01255294
v 0.07519438 -0.00736957 0.00218166
v 0.08749052 -0.01296015 0.02494927
v 0.09682401 -0.00980573 0.00086520
v 0.07867787 -0.00043498 0.00022357
v 0.09815055 -0.01381838 0.00469225
v 0.08941749 -0.00929324 0.00115298
v 0.09641316 -0.01328584 0.00384280
v 0.09528803 -0.00359805 0.00021376
v 0.09964721 -0.00092938 0.00073523
v 0.09972024 -0.00046879 0.00092684
v 0.09958387 -0.00572262 0.00024696
v 0.08469836 -0.00000572 0.00024984
v 0.08032986 -0.00702891 0.00101285
v 0.09053833 -0.01123840 0.00219641
v 0.09997555 -0.01383614 0.02325541
v 0.08963663 -0.00934569 0.00115595
v 0.08600241 -0.00001986 0.00027687
v 0.08233877 -0.00305742 0.00029220
v 0.07517746 -0.00099431 0.01913641
v 0.09629861 -0.01022409 0.00100301
v 0.08046869 -0.00597607 0.00074241
v 0.08632718 -0.00048078 0.00023722
v 0.08644750 -0.01070255 0.00255878
v 0.09996649 -0.01088545 0.00098187
v 0.09652740 -0.00096179 0.00050759
v 0.07895846 -0.00214570 0.00027858
v 0.09912227 -0.01306868 0.00230512
v 0.09167800 -0.01208073 0.00314079
v 0.09979465 -0.00378859 0.00022393
v 0.07521720 -0.00927327 0.00509189
v 0.08306018 -0.00931454 0.00182432
v 0.09778195 -0.00461116 0.00021241
v 0.09892554 -0.01364993 0.00339978
v 0.09678160 -0.00237915 0.00027496
v 0.09936266 -0.01054166 0.00092314
v 0.09959530 -0.01321481 0.00236906
v 0.09055383 -0.01087699 0.00186284
v 0.09714461 -0.01166462 0.00150704
v 0.08757258 -0.00001945 0.02039814
v 0.09483407 -0.01201948 0.00210999
v 0.09256860 -0.00041649 0.00043954
v 0.09137629 -0.01043881 0.00147575
v 0.09895626 -0.00755431 0.00040793
v 0.09625355 -0.01261903 0.00247110
v 0.09958570 -0.01409102 0.00458846
v 0.09051586 -0.00422720 0.00026381
v 0.09694790 -0.01283844 0.00258050
v 0.09710732 -0.00890672 0.00066000
v 0.08329284 -0.00886691 0.00150798
v 0.09341050 -0.01040490 0.00127187
v 0.07590831 -0.00043604 0.01880881
v 0.07933268 -0.00149199 0.00023521
v 0.08218455 -0.00002166 0.00022755
v 0.09471223 -0.01289628 0.00368258
v 0.07509905 -0.00906812 0.00417690
v 0.08905807 -0.00032401 0.00031337
v 0.09714182 -0.00023984 0.00080236
v 0.09795270 -0.00911685 0.00066825
v 0.09905598 -0.00335927 0.00023558
v 0.07516963 -0.00842880 0.00297427
v 0.08933792 -0.01101351 0.00221669
v 0.09881476 -0.01275933 0.00204825
v 0.07978068 -0.00257435 0.00029493
v 0.09995451 -0.01065904 0.00092255
v 0.07500028 -0.00932497 0.00582093
v 0.09698133 -0.00959322 0.00080437
v 0.09668185 -0.00186110 0.00033893
v 0.09149252 -0.00038943 0.00039732
v 0.07965998 -0.00987235 0.00374516
v 0.08256156 -0.01019004 0.00303141
v 0.09890900 -0.00439791 0.00021277
v 0.09995200 -0.00915611 0.00060279
v 0.08140736 -0.00888663 0.00176283
v 0.09375440 -0.00085250 0.00040489
v 0.09989856 -0.00876577 0.00053999
v 0.09912880 -0.01339829 0.00277114
v 0.09135378 -0.00046909 0.00037525
v 0.07812297 -0.01114580 0.02491109
v 0.08337760 -0.00656559 0.00074331
v 0.09960698 -0.01401445 0.00420239
v 0.09756452 -0.01326847 0.00313470
v 0.09654259 -0.00003308 0.01251811
v 0.08006224 -0.00959122 0.00287110
v 0.08613085 -0.00818034 0.00100639
v 0.09224044 -0.00725617 0.00054411
v 0.09955818 -0.00443504 0.00021408
v 0.09800198 -0.01275345 0.00220320
v 0.09880882 -0.00025050 0.01241210
v 0.07501553 -0.00697298 0.01977444
v 0.09044399 -0.01350651 0.02489251
v 0.09760995 -0.00836059 0.00054684
v 0.07500419 -0.00949140 0.02165416
v 0.09829239 -0.01343040 0.00316916
v 0.09980309 -0.00433592 0.02154698
v 0.07845464 -0.00290169 0.00034964
v 0.08436793 -0.00833235 0.00117430
v 0.09643392 -0.00419363 0.00020865
v 0.07937524 -0.00016111 0.01909478
v 0.07508314 -0.00412126 0.00127276
v 0.09187398 -0.01059945 0.00150702
v 0.09726707 -0.01082544 0.00113391
v 0.09955274 -0.01347184 0.00274974
v 0.08024451 -0.00475706 0.00053269
v 0.07941635 -0.00729268 0.00116009
v 0.09687537 -0.01219491 0.00189521
v 0.09361501 -0.01143843 0.00181777
v 0.08484843 -0.01086761 0.00357644
v 0.09746451 -0.00116630 0.00050606
v 0.09812160 -0.01199831 0.00159243
v 0.08087547 -0.00932969 0.00225400
v 0.09898014 -0.00980957 0.00076699
v 0.09382483 -0.01161972 0.00193157
v 0.09932369 -0.00104674 0.00067293
v 0.09964263 -0.00283520 0.00029197
v 0.09192032 -0.00165206 0.00024188
v 0.08794746 -0.01153368 0.00369823
v 0.09944443 -0.01358411 0.00299815
v 0.07833219 -0.00432052 0.00052536
v 0.07892350 -0.00574204 0.00075903
v 0.07654607 -0.01083012 0.02444219
v 0.09903422 -0.00073465 0.02250586
v 0.08062359 -0.00812280 0.00140410
v 0.07950314 -0.00388061 0.00043740
v 0.09485805 -0.00951630 0.00089299
v 0.09775392 -0.01333652 0.00320423
v 0.08214666 -0.00023844 0.00022429
v 0.09842539 -0.00924582 0.00067519
v 0.09158427 -0.01172475 0.00253619
v 0.07827820 -0.00670281 0.00109078
v 0.09832271 -0.01339105 0.00306505
v 0.07935883 -0.00956189 0.00308496
v 0.09228234 -0.00939905 0.00099944
v 0.09970976 -0.01423433 0.00558284
v 0.09291502 -0.01236100 0.00321332
v 0.09900009 -0.01396588 0.00454790
v 0.08633146 -0.00877393 0.00119125
v 0.09963003 -0.01150856 0.00121077
v 0.08575384 -0.00909344 0.00137302
v 0.09766736 -0.00017346 0.02255204
v 0.09822195 -0.01486401 0.02488231
v 0.09579572 -0.00409785 0.00020819
v 0.07572341 -0.01047935 0.02469382
v 0.08214361 -0.00731913 0.00099135
v 0.09408732 -0.00375660 0.00020815
v 0.08510393 -0.00784992 0.00097333
v 0.09970582 -0.01466688 0.02447729
v 0.09758259 -0.01294011 0.00254064
v 0.09960657 -0.00674099 0.00031611
v 0.09976208 -0.00921141 0.00061849
v 0.09316811 -0.01154859 0.00198670
v 0.07842484 -0.00117798 0.00026525
v 0.08337729 -0.00164222 0.00020963
v 0.09352286 -0.01076977 0.00142336
v 0.07502526 -0.00824232 0.00279375
v 0.09977214 -0.00082133 0.00078059
v 0.09953962 -0.00115582 0.02237349
v 0.09885774 -0.01318557 0.00252344
v 0.08769699 -0.01127671 0.00314500
v 0.09282219 -0.00006286 0.00053793
v 0.07528822 -0.01027386 0.02466634
v 0.09405209 -0.00764608 0.00054795
v 0.07860000 -0.00342382 0.00040223
v 0.09155265 -0.01149391 0.00225486
v 0.09079616 -0.01004176 0.00134200
v 0.08339474 -0.00836357 0.00126750
v 0.07874092 -0.00769833 0.00138837
v 0.09994092 -0.01408470 0.00916344
v 0.09226639 -0.01007526 0.00123114
v 0.09689280 -0.01312305 0.00311226
v 0.07860149 -0.00060071 0.00022605
v 0.09935937 -0.01407943 0.00481712
v 0.09969766 -0.00834076 0.00049031
v 0.09854190 -0.01156889 0.00132524
v 0.09639690 -0.01456185 0.02489985
v 0.09883003 -0.00938388 0.00068675
v 0.07957533 -0.00883825 0.00202446
v 0.07922504 -0.00620578 0.00085713
v 0.09849362 -0.01373942 0.00397861
v 0.09315286 -0.01233751 0.00304636
v 0.08263681 -0.00842104 0.00135555
v 0.08591395 -0.00565748 0.00050021
v 0.07509399 -0.00018316 0.01243701
v 0.07894125 -0.00308313 0.00035728
v 0.09882373 -0.00118507 0.00059242
v 0.08163233 -0.00908074 0.00187302
v 0.08697719 -0.00610375 0.00053035
v 0.09766492 -0.00515689 0.00023644
v 0.09367903 -0.00942857 0.00093251
v 0.07503515 -0.00227131 0.00102878
v 0.09666229 -0.01333441 0.00383660
v 0.09964783 -0.01346985 0.00271446
v 0.08283767 -0.00310663 0.00028800
v 0.08241785 -0.01035560 0.00352674
v 0.07934581 -0.00929736 0.00260411
v 0.08198920 -0.00000866 0.00022955
v 0.09451512 -0.00846162 0.00067510
v 0.09946424 -0.00503001 0.00021555
v 0.09942567 -0.01015148 0.00081911
v 0.09561998 -0.01104684 0.00135528
v 0.08831976 -0.00951158 0.00132980
v 0.09936542 -0.01257511 0.00180174
v 0.08568154 -0.00204731 0.00020850
v 0.07503209 -0.00223669 0.00102575
v 0.09388050 -0.01043055 0.00124282
v 0.09351662 -0.00567078 0.00032321
v 0.09916438 -0.00115269 0.00062671
v 0.08963487 -0.00996477 0.00141388
v 0.09722851 -0.00522415 0.00024383
v 0.08059121 -0.00139888 0.00022148
v 0.09128533 -0.01127221 0.00208123
v 0.09066773 -0.00137615 0.00024180
v 0.09991873 -0.00741053 0.00036809
v 0.09984294 -0.00430829 0.00021666
v 0.09314619 -0.00342302 0.00021018
v 0.08037241 -0.00889520 0.00193551
v 0.09988590 -0.01423629 0.00525378
v 0.09122520 -0.01217721 0.00363553
v 0.09794420 -0.00432106 0.00021112
v 0.08874066 -0.01114696 0.00253180
v 0.08861077 -0.01041409 0.00180917
v 0.07893317 -0.00711289 0.00113166
f 115 183 170
f 170 183 52
f 115 210 142
f 142 210 69
f 47 232 15
f 62 15 89
f 89 132 62
f 69 232 139
f 139 142 69
f 74 50 65
f 48 170 52
f 48 128 170
f 192 128 210
f 170 128 192
f 192 210 115
f 115 170 192
f 52 183 140
f 101 232 69
f 69 210 189
f 189 101 69
f 210 128 189
f 132 89 189
f 128 48 189
f 189 48 52
f 189 190 171
f 245 15 62
f 15 245 35
f 65 50 144
f 144 11 65
f 50 11 144
f 206 50 171
f 206 11 50
f 217 74 65
f 74 217 266
f 266 183 115
f 266 190 183
f 241 266 130
f 86 74 241
f 74 266 241
f 115 204 19
f 19 204 110
f 183 190 224
f 224 140 183
f 52 140 224
f 224 189 52
f 190 189 224
f 62 132 209
f 132 107 209
f 44 107 132
f 44 60 107
f 132 189 44
f 232 101 148
f 148 15 232
f 148 89 15
f 148 189 89
f 101 189 148
f 10 149 27
f 253 232 47
f 253 139 232
f 253 204 115
f 253 149 204
f 115 142 253
f 142 139 253
f 54 220 47
f 171 190 196
f 196 206 171
f 65 11 196
f 11 206 196
f 190 266 196
f 196 217 65
f 196 266 217
f 116 248 27
f 185 130 95
f 130 266 95
f 167 130 26
f 167 241 130
f 115 19 105
f 105 130 185
f 60 44 138
f 138 44 189
f 50 60 138
f 171 50 138
f 138 189 171
f 51 5 204
f 204 149 51
f 149 10 51
f 27 149 168
f 5 159 251
f 244 19 110
f 181 19 244
f 110 204 244
f 41 54 47
f 35 54 41
f 47 15 41
f 15 35 41
f 103 245 62
f 62 72 103
f 103 35 245
f 248 116 161
f 55 95 221
f 221 95 266
f 221 266 115
f 83 167 26
f 14 19 181
f 14 105 19
f 130 105 228
f 228 105 57
f 57 240 228
f 26 130 228
f 228 240 26
f 80 105 185
f 185 95 80
f 80 95 55
f 115 105 80
f 80 221 115
f 55 221 80
f 79 103 72
f 42 79 164
f 27 248 227
f 5 51 216
f 216 271 154
f 149 253 239
f 239 168 149
f 253 168 239
f 220 102 76
f 145 168 253
f 112 251 86
f 271 63 21
f 21 74 86
f 86 251 21
f 251 187 21
f 86 241 207
f 160 244 36
f 103 79 176
f 35 103 176
f 176 54 35
f 27 168 30
f 30 168 153
f 27 30 169
f 169 116 27
f 205 209 107
f 107 60 205
f 205 60 50
f 50 42 205
f 13 233 145
f 109 79 72
f 193 63 227
f 3 63 271
f 227 63 3
f 3 271 27
f 27 227 3
f 271 216 179
f 179 216 51
f 27 271 179
f 179 10 27
f 179 51 10
f 242 76 102
f 220 76 201
f 76 145 201
f 201 145 253
f 47 220 201
f 201 253 47
f 168 145 212
f 145 233 212
f 251 112 155
f 74 21 70
f 70 21 63
f 154 271 151
f 271 21 151
f 151 21 187
f 241 244 97
f 181 244 133
f 133 120 181
f 244 120 133
f 71 169 30
f 71 129 116
f 116 169 71
f 248 114 53
f 114 174 53
f 53 227 248
f 53 174 227
f 238 174 85
f 85 174 114
f 54 176 202
f 25 83 26
f 14 157 243
f 26 240 119
f 119 240 57
f 57 105 119
f 119 243 157
f 105 14 119
f 14 243 119
f 163 256 209
f 234 256 42
f 42 158 234
f 209 256 234
f 234 158 209
f 12 91 209
f 12 158 91
f 67 72 62
f 62 209 67
f 209 106 67
f 72 67 261
f 261 67 106
f 209 91 118
f 118 106 209
f 91 158 118
f 6 164 79
f 79 109 6
f 5 216 172
f 34 242 102
f 113 145 76
f 76 242 113
f 113 13 145
f 153 168 236
f 112 137 90
f 77 112 86
f 77 137 112
f 40 160 36
f 81 226 235
f 204 5 16
f 5 226 16
f 16 244 204
f 36 244 16
f 16 226 36
f 36 226 260
f 112 90 260
f 5 270 123
f 123 270 81
f 81 235 123
f 81 270 156
f 251 155 156
f 156 155 81
f 5 251 156
f 156 270 5
f 112 260 200
f 200 260 226
f 162 226 81
f 162 200 226
f 162 155 112
f 112 200 162
f 63 193 134
f 134 70 63
f 195 174 238
f 195 193 227
f 227 174 195
f 244 160 9
f 160 77 9
f 197 207 241
f 241 97 197
f 152 244 241
f 152 126 244
f 241 167 152
f 167 22 152
f 22 126 152
f 2 120 244
f 244 126 2
f 2 126 22
f 58 176 79
f 17 247 102
f 220 54 259
f 54 202 259
f 259 102 220
f 259 17 102
f 202 17 259
f 39 157 14
f 256 163 59
f 42 256 59
f 59 205 42
f 209 205 59
f 59 163 209
f 209 158 75
f 75 12 209
f 158 12 75
f 84 106 164
f 84 261 106
f 164 106 117
f 46 215 154
f 7 159 5
f 5 88 7
f 7 88 159
f 233 13 262
f 262 212 233
f 262 42 50
f 168 212 173
f 173 236 168
f 212 93 173
f 98 71 30
f 98 30 153
f 153 199 98
f 64 90 137
f 64 40 36
f 36 260 64
f 64 260 90
f 160 40 31
f 137 77 111
f 77 40 111
f 265 235 226
f 265 123 235
f 265 226 5
f 5 123 265
f 81 155 87
f 87 162 81
f 155 162 87
f 182 134 193
f 70 134 182
f 193 195 182
f 269 77 86
f 167 83 29
f 120 180 219
f 28 14 181
f 181 120 28
f 14 184 20
f 20 39 14
f 20 23 83
f 184 23 20
f 83 157 20
f 157 39 20
f 263 58 79
f 252 202 176
f 252 17 202
f 58 264 252
f 176 58 252
f 252 264 194
f 194 17 252
f 104 25 26
f 26 119 104
f 119 166 104
f 32 119 157
f 32 166 119
f 261 84 165
f 165 109 72
f 72 261 165
f 165 84 164
f 127 118 158
f 106 118 127
f 127 117 106
f 42 164 43
f 43 117 42
f 164 117 43
f 154 151 56
f 56 146 154
f 154 146 186
f 186 46 154
f 223 88 203
f 159 88 223
f 223 254 187
f 223 251 159
f 223 187 251
f 100 254 223
f 154 215 230
f 230 216 154
f 230 172 216
f 5 172 99
f 218 45 187
f 187 254 218
f 218 186 45
f 46 186 218
f 255 37 13
f 13 113 255
f 113 37 255
f 242 37 68
f 68 113 242
f 68 37 113
f 24 93 212
f 212 262 24
f 236 173 231
f 231 173 93
f 248 161 225
f 225 199 248
f 129 71 246
f 71 98 246
f 153 236 141
f 141 135 153
f 213 40 77
f 213 31 40
f 213 77 160
f 160 31 213
f 73 269 178
f 244 269 73
f 178 197 73
f 73 97 244
f 73 197 97
f 244 9 18
f 18 269 244
f 18 9 77
f 77 269 18
f 207 269 94
f 86 207 94
f 94 269 86
f 120 29 229
f 229 180 120
f 229 29 180
f 180 29 143
f 83 49 143
f 143 29 83
f 208 23 184
f 208 28 120
f 208 184 14
f 14 28 208
f 175 49 83
f 83 23 175
f 102 247 237
f 247 61 237
f 198 262 13
f 198 61 262
f 267 104 166
f 166 32 267
f 25 104 267
f 267 32 157
f 124 158 42
f 124 127 158
f 42 117 124
f 117 127 124
f 66 56 151
f 146 56 66
f 172 8 257
f 203 38 257
f 257 38 172
f 249 4 8
f 203 4 249
f 249 223 203
f 100 223 214
f 1 8 172
f 1 249 8
f 150 88 5
f 5 99 150
f 172 38 92
f 92 99 172
f 92 38 203
f 92 150 99
f 203 88 92
f 88 150 92
f 93 24 222
f 262 125 222
f 222 24 262
f 199 225 177
f 122 141 125
f 199 141 122
f 122 114 248
f 248 199 122
f 122 125 262
f 74 114 122
f 50 74 122
f 122 262 50
f 211 141 199
f 135 141 211
f 211 199 153
f 153 135 211
f 131 219 180
f 180 143 131
f 78 208 120
f 23 208 78
f 120 219 78
f 191 147 247
f 191 17 194
f 100 214 250
f 230 250 188
f 188 250 214
f 172 230 188
f 188 1 172
f 108 98 199
f 199 177 108
f 247 17 82
f 82 191 247
f 17 191 82
f 247 136 33
f 33 61 247
f 262 61 33
f 42 262 33
f 33 79 42
f 33 263 79
f 121 136 247
f 258 237 61
f 102 237 258
f 258 34 102
f 247 147 268
f 268 121 247
f 34 258 96
f 242 34 96
f 40 64 111
f 111 64 137
f 74 70 182
f 182 114 74
f 238 85 182
f 182 85 114
f 182 195 238
f 269 197 178
f 207 197 269
f 29 22 167
f 120 2 29
f 29 2 22
f 165 6 109
f 164 6 165
f 83 25 267
f 267 157 83
f 187 45 66
f 66 151 187
f 45 186 66
f 66 186 146
f 4 257 8
f 203 257 4
f 236 231 222
f 222 231 93
f 222 141 236
f 125 141 222
f 78 143 49
f 49 175 78
f 219 131 78
f 78 175 23
f 78 131 143
f 250 254 100
f 215 46 250
f 250 230 215
f 46 218 250
f 250 218 254
f 223 249 188
f 188 214 223
f 249 1 188
f 108 225 161
f 116 129 108
f 108 161 116
f 129 246 108
f 108 246 98
f 108 177 225
f 58 263 268
f 194 264 268
f 268 264 58
f 268 191 194
f 147 191 268
f 263 33 268
f 268 33 136
f 136 121 268
f 13 37 96
f 96 37 242
f 96 198 13
f 61 198 96
f 96 258 61

