# https://github.com/mikedh/trimesh
v -0.05463383 -0.00768219 -0.05869802
v -0.05357802 -0.01528155 -0.06193401
v -0.05384656 -0.01215596 -0.05004730
v -0.05472814 -0.00356708 -0.05844672
v -0.05041484 -0.02573041 -0.05078808
v -0.05448169 -0.00014685 -0.05998203
v -0.05256268 -0.00008794 -0.06525053
v -0.05449906 -0.00979225 -0.05865733
v -0.05414029 -0.01188824 -0.06054152
v -0.05003140 -0.02175859 -0.07116733
v -0.05038025 -0.02594788 -0.05324040
v -0.05409756 -0.01391465 -0.05892425
v -0.05433959 -0.00999582 -0.05444027
v -0.05434925 -0.00660909 -0.05048720
v -0.05009277 -0.01441825 -0.07323092
v -0.05026818 -0.02672470 -0.06810008
v -0.05300577 -0.02010583 -0.06153761
v -0.05224860 -0.02137758 -0.05207032
v -0.05036233 -0.01709453 -0.07220617
v -0.05297120 -0.01997676 -0.05978998
v -0.05346394 -0.01717032 -0.06185560
v -0.05445686 -0.00953200 -0.05630569
v -0.05038226 -0.02654656 -0.06706306
v -0.05457119 -0.00876888 -0.05853542
v -0.05466640 -0.00517223 -0.05877701
v -0.05476811 -0.00118319 -0.05753216
v -0.05055993 -0.01740939 -0.07151422
v -0.05357999 -0.01680125 -0.05667763
v -0.05298828 -0.01814553 -0.05035970
v -0.05399573 -0.01369431 -0.06069796
v -0.05333644 -0.01652293 -0.05003363
v -0.05345861 -0.01641368 -0.05220672
v -0.05468359 -0.00577588 -0.05774450
v -0.05385604 -0.01383059 -0.06124906
v -0.05439549 -0.00569511 -0.06015465
v -0.05432024 -0.00882779 -0.05196247
v -0.05324162 -0.01745769 -0.06267674
v -0.05011285 -0.02649405 -0.05503450
v -0.05010844 -0.02662651 -0.05748208
v -0.05475350 -0.00367705 -0.05812720
v -0.05369485 -0.01384340 -0.05037500
v -0.05204287 -0.02303270 -0.06234249
v -0.05214684 -0.02251148 -0.05990428
v -0.05118104 -0.02476339 -0.05910140
v -0.05425150 -0.01251812 -0.05971214
v -0.05104752 -0.02512859 -0.06676421
v -0.05235714 -0.02214113 -0.06236046
v -0.05375804 -0.01650076 -0.06031344
v -0.05452878 -0.00016617 -0.05102801
v -0.05012231 -0.02634855 -0.05276390
v -0.05438152 -0.00776361 -0.05226557
v -0.05391683 -0.01425767 -0.06086967
v -0.05152456 -0.02309720 -0.05063458
v -0.05371464 -0.01377985 -0.05057424
v -0.05004172 -0.02384424 -0.07092294
v -0.05030505 -0.01698564 -0.07240738
v -0.05089634 -0.02440434 -0.06831080
v -0.05172947 -0.02354288 -0.05978753
v -0.05408206 -0.01206473 -0.05363213
v -0.05473096 -0.00037615 -0.05866849
v -0.05435213 -0.00598205 -0.05010880
v -0.05448500 -0.00100129 -0.05026910
v -0.05433700 -0.01180413 -0.05813261
v -0.05423060 -0.01263005 -0.05796453
v -0.05372299 -0.01656869 -0.05921124
v -0.05066218 -0.02513917 -0.05015690
v -0.05330925 -0.01697971 -0.05109941
v -0.05439963 -0.01016069 -0.05607856
v -0.05268891 -0.02059876 -0.05715033
v -0.05231870 -0.02127081 -0.06450343
v -0.05006894 -0.00009901 -0.07373030
v -0.05477472 -0.00045111 -0.05723059
v -0.05452928 -0.00871791 -0.05667920
v -0.05450712 -0.00054929 -0.05057338
v -0.05393661 -0.01267223 -0.06116933
v -0.05449994 -0.00966666 -0.05884427
v -0.05254887 -0.02050539 -0.06398062
v -0.05463802 -0.00685769 -0.05885278
v -0.05006337 -0.01267537 -0.07339486
v -0.05323197 -0.01864560 -0.06212493
v -0.05150193 -0.02438132 -0.06308179
v -0.05458947 -0.00179669 -0.05959047
v -0.05090921 -0.02568910 -0.06589243
v -0.05056537 -0.02554381 -0.05204111
v -0.05473333 -0.00002816 -0.05599524
v -0.05302489 -0.01995024 -0.06092920
v -0.05329411 -0.01782669 -0.06232326
v -0.05382438 -0.01604891 -0.06011303
v -0.05348825 -0.01576221 -0.05049488
v -0.05243531 -0.02128632 -0.05567255
v -0.05384020 -0.01588492 -0.05961824
v -0.05167972 -0.02300317 -0.06613592
v -0.05196483 -0.02225298 -0.05280557
v -0.05257228 -0.02107876 -0.05760751
v -0.05007917 -0.02624088 -0.05013474
v -0.05132063 -0.02354303 -0.05019618
v -0.05338851 -0.01669922 -0.05175818
v -0.05051847 -0.02627413 -0.06453248
v -0.05041038 -0.02650523 -0.06770787
v -0.05368414 -0.01577306 -0.06142257
v -0.05462703 -0.00299251 -0.05922857
v -0.05258714 -0.02106772 -0.06341719
v -0.05412819 -0.01011018 -0.05111773
v -0.05438596 -0.00482624 -0.06021921
v -0.05058126 -0.02614048 -0.06342842
v -0.05363197 -0.01715677 -0.05964994
v -0.05409451 -0.01355571 -0.05763805
v -0.05133159 -0.02434038 -0.06668616
v -0.05466616 -0.00730512 -0.05855422
v -0.05425443 -0.01032864 -0.06031183
v -0.05475874 -0.00280069 -0.05796642
v -0.05442290 -0.00614603 -0.06002754
v -0.05468579 -0.00286670 -0.05881108
v -0.05311229 -0.01775572 -0.05089477
v -0.05285831 -0.02048387 -0.06052757
v -0.05009612 -0.00928732 -0.07340395
v -0.05437613 -0.00927340 -0.05388634
v -0.05204313 -0.02225275 -0.05462130
v -0.05445874 -0.00919873 -0.05574037
f 71 62 95
f 10 71 95
f 79 71 10
f 11 38 50
f 38 95 50
f 85 49 71
f 55 79 10
f 10 95 55
f 71 79 116
f 15 55 56
f 79 55 15
f 40 85 72
f 61 95 62
f 62 40 61
f 66 95 31
f 71 6 7
f 7 85 71
f 6 85 7
f 49 85 74
f 74 62 71
f 71 49 74
f 74 40 62
f 85 40 74
f 75 56 19
f 19 27 75
f 75 27 2
f 2 27 37
f 110 56 75
f 35 15 56
f 56 110 35
f 35 110 112
f 79 15 35
f 33 40 109
f 33 61 40
f 63 89 59
f 3 89 31
f 31 95 3
f 95 61 3
f 24 73 109
f 109 76 24
f 51 73 36
f 109 73 51
f 95 66 5
f 11 50 5
f 5 50 95
f 39 16 55
f 39 95 38
f 39 55 95
f 83 108 46
f 108 16 46
f 55 16 57
f 57 16 108
f 108 92 57
f 27 19 57
f 37 27 57
f 57 92 37
f 56 55 57
f 57 19 56
f 1 76 109
f 109 40 4
f 82 35 112
f 111 40 72
f 72 26 111
f 104 116 79
f 79 35 104
f 71 116 104
f 104 6 71
f 104 82 6
f 35 82 104
f 14 3 61
f 14 51 36
f 109 51 14
f 14 33 109
f 61 33 14
f 54 59 89
f 36 59 54
f 36 73 117
f 67 29 31
f 11 5 84
f 84 83 11
f 84 66 58
f 84 5 66
f 31 29 96
f 96 66 31
f 58 66 118
f 118 42 58
f 118 93 18
f 23 98 83
f 16 39 23
f 23 39 98
f 83 98 105
f 98 39 105
f 11 83 105
f 105 38 11
f 105 39 38
f 83 46 99
f 99 46 16
f 99 23 83
f 16 23 99
f 21 100 37
f 48 100 21
f 34 2 37
f 37 100 34
f 75 2 34
f 9 110 75
f 75 34 9
f 8 24 76
f 63 73 8
f 73 24 8
f 64 89 63
f 63 12 64
f 60 4 40
f 40 111 60
f 60 111 26
f 60 26 72
f 72 85 60
f 60 85 6
f 6 82 60
f 36 3 103
f 103 14 36
f 3 14 103
f 89 3 41
f 41 54 89
f 41 3 36
f 36 54 41
f 119 117 73
f 13 117 68
f 63 59 13
f 13 68 63
f 13 59 36
f 36 117 13
f 47 108 83
f 83 42 47
f 80 17 48
f 48 21 80
f 65 32 89
f 58 42 81
f 83 84 81
f 81 42 83
f 53 118 66
f 93 118 53
f 66 96 53
f 18 93 53
f 53 29 18
f 53 96 29
f 30 34 100
f 30 9 34
f 107 12 89
f 89 64 107
f 107 64 12
f 109 4 78
f 78 101 82
f 78 1 109
f 78 82 112
f 112 110 78
f 110 1 78
f 4 60 113
f 22 119 73
f 22 73 63
f 63 68 22
f 108 47 102
f 102 47 17
f 17 80 102
f 102 92 108
f 90 118 18
f 87 21 37
f 87 80 21
f 89 12 91
f 91 65 89
f 12 88 91
f 91 88 48
f 48 65 91
f 97 32 28
f 32 65 28
f 28 67 97
f 44 84 58
f 58 81 44
f 44 81 84
f 52 100 48
f 52 30 100
f 25 113 101
f 101 78 25
f 25 78 4
f 4 113 25
f 92 102 70
f 42 118 43
f 118 90 43
f 43 47 42
f 47 43 94
f 94 43 90
f 29 67 114
f 67 20 114
f 18 29 69
f 69 90 18
f 29 114 69
f 69 114 20
f 45 52 48
f 30 52 45
f 48 88 45
f 45 88 12
f 9 30 45
f 45 8 76
f 76 1 45
f 45 12 63
f 63 8 45
f 45 1 110
f 110 9 45
f 77 102 80
f 77 70 102
f 80 87 77
f 77 87 37
f 37 92 77
f 92 70 77
f 17 47 115
f 47 94 115
f 86 20 106
f 106 20 67
f 17 86 106
f 67 28 106
f 48 17 106
f 106 28 65
f 106 65 48
f 89 32 67
f 31 89 67
f 67 32 97
f 82 101 113
f 113 60 82
f 117 119 22
f 68 117 22
f 115 20 86
f 115 86 17
f 90 69 115
f 115 94 90
f 115 69 20

