# https://github.com/mikedh/trimesh
v 0.12497340 -0.00098174 -0.01462005
v 0.10077518 -0.00897729 -0.00795200
v 0.10062192 -0.00018465 -0.01012014
v 0.11111670 -0.00004708 -0.01500006
v 0.12379481 -0.02376514 -0.01837256
v 0.10064837 -0.02227590 -0.01186416
v 0.10040277 -0.01851377 -0.01500007
v 0.10071817 -0.02413828 -0.01294481
v 0.10069353 -0.01908433 -0.01043534
v 0.12498569 -0.00199555 -0.01457632
v 0.10071388 -0.00162116 -0.01500006
v 0.10089250 -0.01620874 -0.00946124
v 0.11066674 -0.02490688 -0.01588347
v 0.10003084 -0.02092149 -0.01291783
v 0.10149589 -0.02089154 -0.01139104
v 0.10044147 -0.01201233 -0.00827159
v 0.12463337 -0.00903406 -0.01479895
v 0.12406458 -0.01709181 -0.01602764
v 0.10056600 -0.02022810 -0.01496482
v 0.10127916 -0.00074204 -0.01500006
v 0.12490980 -0.02488164 -0.01928621
v 0.12470816 -0.00667773 -0.01461078
v 0.12427251 -0.02390685 -0.01857930
v 0.12263154 -0.02456563 -0.01849550
v 0.12311980 -0.02427242 -0.01846722
v 0.10007805 -0.00468688 -0.00740598
v 0.12489542 -0.01188688 -0.01519968
v 0.12445902 -0.01889017 -0.01661077
v 0.12433337 -0.00031533 -0.01447272
v 0.10006493 -0.00767421 -0.00759629
v 0.12179907 -0.02492553 -0.01847747
v 0.12482791 -0.01082036 -0.01503939
v 0.12477760 -0.01367745 -0.01544472
v 0.10177269 -0.02433135 -0.01335428
v 0.10376867 -0.00028956 -0.01500006
v 0.10012248 -0.02326719 -0.01225293
v 0.12373019 -0.02170275 -0.01739848
v 0.10058628 -0.01974357 -0.01500007
v 0.10081770 -0.00121196 -0.01500006
v 0.10065001 -0.01934204 -0.01052072
v 0.10008956 -0.00075110 -0.00735544
v 0.10038781 -0.00644860 -0.01500006
v 0.10012454 -0.00693354 -0.01016438
v 0.10600315 -0.02473745 -0.01468694
v 0.10062128 -0.00003563 -0.00752055
v 0.12462652 -0.00305984 -0.01444224
v 0.10011835 -0.02307202 -0.01213684
v 0.12480462 -0.01828213 -0.01655036
v 0.11202157 -0.00008362 -0.01500007
v 0.12494933 -0.02407311 -0.01885367
v 0.10030509 -0.01302480 -0.00842899
v 0.12297252 -0.02340245 -0.01798416
v 0.10006068 -0.01665734 -0.01212087
v 0.10351174 -0.02466242 -0.01404156
v 0.12241433 -0.00003898 -0.01394866
v 0.12495715 -0.02240320 -0.01800185
v 0.12456855 -0.01461403 -0.01553099
v 0.12492377 -0.02018057 -0.01717422
v 0.10160158 -0.01735785 -0.01000162
v 0.10037021 -0.00828586 -0.01500006
f 30 41 14
f 21 49 1
f 41 42 43
f 41 39 11
f 11 42 41
f 11 39 21
f 21 42 11
f 14 42 60
f 60 42 21
f 41 30 26
f 4 49 21
f 21 35 4
f 14 41 53
f 41 43 53
f 53 42 14
f 53 43 42
f 7 60 21
f 7 19 14
f 14 60 7
f 51 30 47
f 47 30 14
f 54 8 19
f 22 26 30
f 51 57 16
f 57 27 16
f 27 2 16
f 16 30 51
f 16 2 30
f 29 1 49
f 49 4 29
f 29 4 55
f 20 35 21
f 21 39 20
f 45 4 35
f 55 4 45
f 45 29 55
f 1 29 45
f 10 1 45
f 21 19 38
f 38 7 21
f 19 7 38
f 51 47 40
f 14 19 36
f 36 47 14
f 19 8 36
f 18 57 51
f 51 28 18
f 58 28 59
f 13 19 21
f 17 22 30
f 46 22 10
f 26 22 46
f 41 26 46
f 10 45 46
f 46 45 41
f 35 20 3
f 3 45 35
f 3 20 39
f 3 39 41
f 41 45 3
f 51 40 12
f 12 28 51
f 59 28 12
f 59 40 37
f 37 58 59
f 33 27 57
f 28 58 48
f 57 18 48
f 48 18 28
f 48 33 57
f 48 58 27
f 27 33 48
f 44 54 19
f 19 13 44
f 44 13 54
f 8 54 34
f 34 13 8
f 54 13 34
f 22 17 32
f 32 27 10
f 10 22 32
f 32 2 27
f 32 17 30
f 30 2 32
f 9 40 59
f 59 12 9
f 9 12 40
f 47 36 31
f 31 36 8
f 31 13 21
f 8 13 31
f 50 1 10
f 21 1 50
f 47 31 24
f 24 31 21
f 21 50 24
f 52 15 6
f 6 40 47
f 6 15 40
f 56 15 52
f 56 37 40
f 40 15 56
f 58 37 56
f 56 50 10
f 10 27 56
f 27 58 56
f 47 24 5
f 5 6 47
f 52 6 5
f 5 56 52
f 50 56 5
f 50 5 23
f 25 5 24
f 25 23 5
f 50 23 25
f 25 24 50

