# https://github.com/mikedh/trimesh
v 0.06960110 0.02181366 -0.00053249
v 0.05776858 0.01373747 -0.01500007
v 0.05907164 0.02294652 -0.01500007
v 0.07042390 0.02129951 -0.00051120
v 0.05046052 0.02418973 -0.00368804
v 0.06128923 0.02395762 -0.00015252
v 0.05647509 0.00098736 -0.01500007
v 0.07450616 0.02329359 -0.00390737
v 0.06736567 0.02419226 -0.00245076
v 0.05682181 0.02496517 -0.00079145
v 0.07498755 0.01929045 -0.00126969
v 0.06135025 0.02442958 -0.00092804
v 0.05219803 0.02479827 -0.01500007
v 0.07432100 0.00311153 -0.00008234
v 0.06040817 0.02492982 -0.00154058
v 0.06715885 0.02266259 -0.00027885
v 0.05022888 0.02378964 -0.00279446
v 0.07240848 0.01065707 -0.00002656
v 0.07483347 0.00069081 -0.01500006
v 0.06581282 0.02498177 -0.01500006
v 0.05715408 0.02457543 -0.01500007
v 0.05021513 0.00080256 -0.01500007
v 0.07489677 0.02115771 -0.00242554
v 0.05654557 0.00285726 -0.01500007
v 0.07412927 0.02487813 -0.01279137
v 0.07291049 0.02207082 -0.00212970
v 0.05634417 0.00230746 -0.01500007
v 0.06481347 0.02477804 -0.00253750
v 0.07356870 0.01833823 -0.00007667
v 0.05965366 0.02416733 -0.00000636
v 0.05014873 0.02274164 -0.00065566
v 0.07496292 0.00448227 -0.01500006
v 0.05756533 0.02495001 -0.00695037
v 0.05618598 0.02487872 -0.01500007
v 0.07318944 0.02497764 -0.01374459
v 0.06063344 0.02473428 -0.01500007
v 0.05850107 0.02109554 -0.01500007
v 0.07362091 0.02460102 -0.00510827
v 0.06980692 0.02446233 -0.00364109
v 0.05847459 0.02178920 -0.01500007
v 0.07039446 0.02054463 -0.00007459
v 0.07499671 0.02063420 -0.00546040
v 0.07484650 0.02215179 -0.00304003
v 0.05776787 0.02430834 -0.01500007
v 0.07486203 0.00251210 -0.00031517
v 0.07188224 0.00004775 -0.01500006
v 0.07091975 0.02288281 -0.00201664
v 0.07189295 0.02494692 -0.00505105
v 0.07488551 0.02456262 -0.01500006
v 0.07469983 0.00135097 -0.00021865
v 0.06723033 0.02301428 -0.00072506
v 0.07079464 0.02444069 -0.00392490
v 0.05751072 0.01104005 -0.01500007
v 0.05091402 0.00024748 -0.01500007
v 0.05800252 0.01580209 -0.01500007
v 0.07453640 0.01815569 -0.00036987
v 0.05571428 0.00052292 -0.01500007
v 0.05238329 0.02472457 -0.00524171
v 0.07429520 0.02267837 -0.00322621
v 0.06379172 0.02347757 -0.00022569
v 0.06097513 0.02400045 -0.00011848
v 0.07276394 0.02479193 -0.00508967
v 0.06202875 0.02498232 -0.00207630
v 0.05007680 0.02442019 -0.01500007
v 0.07487664 0.02304287 -0.00379666
v 0.07140647 0.02354675 -0.00294980
v 0.05869477 0.00013248 -0.01500007
v 0.07435074 0.02485062 -0.01126361
v 0.05457119 0.02490396 -0.00610324
v 0.07110551 0.01329946 -0.00002106
v 0.05064526 0.02444250 -0.00426001
v 0.06170853 0.02489408 -0.01500007
v 0.07449288 0.00064584 -0.00009745
v 0.05008668 0.01069107 -0.01500007
v 0.05048513 0.02248195 -0.00022757
v 0.06774291 0.02380734 -0.00199007
v 0.07344431 0.02494456 -0.01155103
v 0.05016870 0.00295900 -0.01500007
v 0.06493027 0.02391424 -0.00125030
f 75 73 30
f 10 75 30
f 32 49 42
f 73 75 22
f 45 56 73
f 73 56 29
f 42 49 65
f 50 45 73
f 30 73 18
f 10 63 20
f 58 71 10
f 15 10 30
f 15 63 10
f 27 3 53
f 53 24 27
f 73 22 54
f 70 29 30
f 30 18 70
f 70 18 29
f 73 29 14
f 14 18 73
f 29 18 14
f 2 3 27
f 40 44 3
f 3 37 40
f 49 20 35
f 35 20 63
f 10 71 5
f 5 17 10
f 5 71 64
f 64 17 5
f 64 74 31
f 31 17 64
f 74 78 31
f 31 78 22
f 31 22 75
f 10 17 31
f 75 10 31
f 4 29 56
f 8 65 38
f 12 28 63
f 63 28 48
f 48 35 63
f 67 54 57
f 67 46 73
f 73 54 67
f 46 67 19
f 24 53 19
f 73 46 19
f 19 53 3
f 19 50 73
f 32 45 19
f 45 50 19
f 49 32 19
f 19 20 49
f 55 37 3
f 3 2 55
f 3 44 36
f 36 19 3
f 64 71 13
f 71 58 13
f 10 20 33
f 20 34 33
f 68 65 49
f 38 65 68
f 11 4 56
f 23 4 11
f 56 45 11
f 11 32 42
f 11 45 32
f 42 65 11
f 65 23 11
f 30 29 41
f 29 4 41
f 43 23 65
f 43 4 23
f 7 57 27
f 7 67 57
f 7 19 67
f 27 24 7
f 24 19 7
f 21 36 44
f 34 36 21
f 20 19 72
f 19 36 72
f 72 34 20
f 72 36 34
f 69 58 10
f 69 13 58
f 10 33 69
f 34 13 69
f 69 33 34
f 49 35 25
f 25 68 49
f 35 68 25
f 35 48 77
f 77 68 35
f 48 68 77
f 1 41 4
f 30 41 16
f 41 1 16
f 4 43 26
f 26 1 4
f 66 8 38
f 65 8 47
f 47 16 1
f 8 66 47
f 47 66 16
f 38 68 62
f 62 68 48
f 62 76 38
f 16 66 51
f 38 76 51
f 65 47 59
f 59 47 1
f 1 26 59
f 59 43 65
f 59 26 43
f 52 62 39
f 76 62 52
f 30 16 60
f 16 51 60
f 60 51 76
f 61 12 30
f 30 60 61
f 28 12 61
f 6 60 79
f 6 61 60
f 6 79 9
f 9 39 6
f 39 62 6
f 63 15 12
f 12 15 30
f 21 74 64
f 44 40 21
f 27 57 21
f 21 78 74
f 21 54 22
f 22 78 21
f 21 2 27
f 57 54 21
f 37 55 21
f 21 40 37
f 64 13 21
f 21 55 2
f 21 13 34
f 51 66 38
f 60 52 39
f 60 39 9
f 76 52 60
f 9 79 60
f 6 62 48
f 6 48 28
f 28 61 6

