# https://github.com/mikedh/trimesh
v -0.01929550 0.02508433 -0.01500006
v -0.00290868 0.02505338 -0.01500006
v -0.00129852 0.02912121 -0.02406485
v -0.00117907 0.02783511 -0.00084506
v -0.02393092 0.02874206 -0.01017931
v -0.02425073 0.02557213 -0.01500006
v -0.00080887 0.02863053 -0.00957502
v -0.01001237 0.02774054 -0.00067397
v -0.00001496 0.02604975 -0.01500007
v -0.02296044 0.02502360 -0.00446603
v -0.00000361 0.02884523 -0.01453099
v -0.00655592 0.02501217 -0.01500006
v -0.01264698 0.02923809 -0.02498511
v -0.02187944 0.02883832 -0.01124829
v -0.01747420 0.02824253 -0.00539051
v -0.00032688 0.02877804 -0.01274136
v -0.00047380 0.02819525 -0.00408497
v -0.00097159 0.02829288 -0.00514864
v -0.00005847 0.02530673 -0.00556080
v -0.02493903 0.02734387 -0.00117642
v -0.02305302 0.02954424 -0.02361678
v -0.02498323 0.02860268 -0.00899704
v -0.01370148 0.02500095 -0.00317080
v -0.00050037 0.02855676 -0.00849283
v -0.00139367 0.02871360 -0.01085119
v -0.02478366 0.02522853 -0.00607081
v -0.00115644 0.02828535 -0.00505178
v -0.02237103 0.02883028 -0.01113844
v -0.00184793 0.02906944 -0.01968501
v -0.00188168 0.02500767 -0.00681834
v -0.00990542 0.02920120 -0.02497310
v -0.00254706 0.02511990 -0.01500006
v -0.02236954 0.02743045 -0.00065235
v -0.02418018 0.02955382 -0.02319241
v -0.00064897 0.02509894 -0.00336960
v -0.02268321 0.02744321 -0.00076681
v -0.00007393 0.02843174 -0.00691401
v -0.00000601 0.02909268 -0.02272354
v -0.02484701 0.02802390 -0.00466564
v -0.02457046 0.02568919 -0.01500006
v -0.02453623 0.02944641 -0.02025939
v -0.00165832 0.02776694 -0.00041859
v -0.01430108 0.02761546 -0.00006710
v -0.00099723 0.02904624 -0.01933620
v -0.02478469 0.02884593 -0.01185283
v -0.02234608 0.02953320 -0.02484511
v -0.02494978 0.02670356 -0.01428330
v -0.00068188 0.02570718 -0.01500006
v -0.02498589 0.02670840 -0.01345629
v -0.00399034 0.02501566 -0.00258636
v -0.02338422 0.02957062 -0.02483080
v -0.00126229 0.02789282 -0.00123120
v -0.02398717 0.02504287 -0.00472191
v -0.00261372 0.02914064 -0.02454148
v -0.00688219 0.02501297 -0.01500006
v -0.00008770 0.02898195 -0.01796489
v -0.00904534 0.02765874 -0.00008290
v -0.00007446 0.02839449 -0.00644253
v -0.00238078 0.02775306 -0.00036398
v -0.02491239 0.02910342 -0.01530929
v -0.01499241 0.02802018 -0.00333252
v -0.00038797 0.02792071 -0.00138424
v -0.00162582 0.02505431 -0.00293668
f 49 20 22
f 43 22 39
f 39 22 20
f 61 22 43
f 51 1 6
f 6 40 51
f 51 40 34
f 34 47 41
f 40 47 34
f 11 9 38
f 38 29 44
f 38 3 51
f 3 38 48
f 48 38 9
f 62 42 35
f 51 31 13
f 13 31 1
f 51 3 54
f 54 31 51
f 54 3 2
f 2 31 54
f 12 31 2
f 43 50 57
f 43 39 36
f 36 39 20
f 62 22 15
f 15 61 62
f 22 61 15
f 22 45 60
f 49 22 60
f 60 47 49
f 41 47 60
f 53 6 1
f 21 34 44
f 44 29 21
f 51 34 21
f 21 38 51
f 29 38 21
f 56 38 44
f 11 38 56
f 56 34 41
f 44 34 56
f 56 41 11
f 2 3 32
f 3 48 32
f 32 35 2
f 63 42 50
f 63 35 42
f 46 1 51
f 51 13 46
f 46 13 1
f 37 58 11
f 5 22 62
f 5 45 22
f 5 60 45
f 19 48 9
f 19 9 11
f 11 58 19
f 62 35 19
f 19 58 62
f 19 32 48
f 35 32 19
f 11 41 16
f 41 25 16
f 16 37 11
f 24 37 16
f 7 25 41
f 24 16 7
f 7 16 25
f 4 42 62
f 62 52 4
f 62 61 8
f 8 52 62
f 8 61 43
f 50 42 59
f 59 57 50
f 43 36 33
f 33 50 43
f 33 23 50
f 33 36 20
f 20 53 10
f 10 33 20
f 23 33 10
f 10 12 23
f 10 53 1
f 26 53 20
f 26 20 49
f 40 6 26
f 6 53 26
f 49 47 26
f 26 47 40
f 2 35 30
f 35 63 30
f 30 63 50
f 30 12 2
f 50 23 30
f 23 12 30
f 62 58 17
f 17 5 62
f 58 37 14
f 14 37 24
f 14 7 41
f 24 7 14
f 55 10 1
f 12 10 55
f 1 31 55
f 31 12 55
f 60 5 28
f 41 60 28
f 28 14 41
f 5 17 27
f 27 28 5
f 14 28 27
f 58 14 18
f 14 27 18
f 18 17 58
f 18 27 17
f 43 57 59
f 42 4 59
f 59 8 43
f 59 4 52
f 52 8 59

