# https://github.com/mikedh/trimesh
v 0.06797666 0.04004890 -0.08483821
v 0.07242928 0.03659344 -0.06190058
v 0.07845253 0.02146074 -0.08405917
v 0.08013656 0.00013639 -0.07526223
v 0.06088297 0.04495901 -0.05045047
v 0.07925765 0.01060079 -0.09903366
v 0.06415081 0.04282648 -0.07371950
v 0.07490889 0.03232489 -0.07824977
v 0.07095591 0.03672617 -0.09433966
v 0.05358413 0.04675342 -0.05859788
v 0.05181675 0.04594279 -0.08090758
v 0.05118239 0.04467109 -0.09896619
v 0.07376219 0.03443125 -0.07379120
v 0.07991880 0.00704005 -0.08132256
v 0.06337853 0.04308461 -0.07668737
v 0.06994813 0.03934499 -0.05323126
v 0.07986268 0.00067562 -0.06003275
v 0.06600758 0.04002570 -0.09984240
v 0.07499542 0.03223783 -0.07470299
v 0.07842137 0.02089525 -0.06171664
v 0.07998189 0.00039790 -0.06471632
v 0.07831522 0.01917234 -0.05262798
v 0.05006177 0.04707420 -0.06355974
v 0.07330665 0.03498534 -0.07731756
v 0.06818683 0.03990619 -0.08470446
v 0.06160170 0.04379585 -0.07506686
v 0.06119904 0.04461613 -0.06076966
v 0.07936861 0.00465414 -0.05126993
v 0.07635939 0.02697442 -0.09992959
v 0.07858914 0.01855457 -0.09310405
v 0.07999211 0.00061633 -0.08914662
v 0.07674002 0.02788535 -0.07970507
v 0.05778007 0.04577344 -0.06056088
v 0.07846642 0.02101048 -0.06380673
v 0.07815700 0.02143338 -0.05660567
v 0.07724035 0.02654194 -0.07854375
v 0.05802637 0.04551062 -0.06475201
v 0.07958393 0.01047493 -0.06146692
v 0.07035414 0.03887007 -0.06636199
v 0.07994056 0.00195890 -0.08932044
v 0.07944037 0.00056497 -0.05043360
v 0.07988319 0.00601621 -0.08640957
v 0.07934132 0.01542126 -0.08154903
v 0.05378044 0.04518430 -0.08641859
v 0.07541635 0.03062947 -0.05191278
v 0.07956204 0.01185908 -0.06761233
v 0.06604242 0.04244319 -0.05138330
v 0.07499656 0.03152416 -0.08903021
v 0.06454607 0.04335872 -0.05103597
v 0.05582389 0.04395467 -0.09719543
v 0.06823033 0.04084809 -0.05043967
v 0.05286327 0.04690032 -0.05917480
v 0.06700909 0.03954381 -0.09912358
v 0.07863673 0.01715517 -0.09766711
v 0.07203350 0.03617785 -0.08694113
v 0.06675900 0.04191700 -0.06135743
v 0.07307699 0.03374379 -0.09949021
v 0.07525856 0.03185215 -0.06265044
v 0.05746679 0.04465365 -0.08327378
v 0.06805346 0.03989318 -0.08615623
v 0.07789710 0.02154807 -0.09833127
v 0.07375233 0.03457440 -0.06877289
v 0.07277568 0.03472223 -0.09262050
v 0.07939218 0.01498528 -0.08275523
v 0.06823760 0.03875561 -0.09868105
v 0.07913499 0.01548909 -0.09007148
v 0.07817877 0.02191268 -0.05941485
v 0.06986157 0.03758805 -0.09711686
v 0.07194686 0.03705756 -0.05327194
v 0.07946048 0.01425275 -0.08336080
v 0.06649899 0.04204753 -0.06256026
v 0.05476446 0.04605596 -0.06787064
v 0.07207125 0.03684693 -0.05178922
v 0.07684178 0.02697954 -0.05481833
v 0.07845536 0.02144557 -0.07488108
v 0.06536884 0.04278788 -0.06137849
v 0.07470726 0.03297498 -0.06374594
v 0.07481870 0.03244443 -0.05584367
v 0.07811215 0.02167252 -0.05635530
v 0.07787029 0.02192805 -0.05122353
v 0.05261509 0.04707143 -0.05310376
v 0.07767207 0.02355534 -0.05556492
v 0.05810268 0.04489261 -0.07664165
v 0.06348833 0.04382140 -0.05808095
v 0.07981891 0.00353328 -0.06135038
v 0.05937820 0.04525037 -0.06078446
v 0.07186145 0.03732742 -0.06120060
v 0.07941922 0.01433322 -0.07807731
v 0.07921390 0.00802771 -0.05020880
v 0.06091878 0.04472904 -0.06035700
v 0.07988703 0.00626978 -0.08584138
v 0.07733340 0.02584196 -0.08549795
v 0.07744392 0.02570572 -0.08324257
v 0.06967658 0.03957185 -0.05172519
v 0.07377037 0.03445102 -0.07246748
v 0.07019380 0.03852260 -0.08022024
v 0.07992068 0.00211514 -0.06353702
v 0.05020405 0.04682157 -0.06812931
v 0.06314642 0.04395109 -0.05997104
v 0.07233973 0.03668839 -0.06447239
v 0.07986345 0.00760176 -0.08495884
v 0.08014504 0.00014239 -0.07669983
v 0.05869986 0.04561409 -0.05550971
v 0.07824643 0.02220925 -0.06338573
v 0.06496628 0.04265177 -0.06852021
v 0.05277127 0.04703928 -0.05307563
v 0.05335220 0.04661335 -0.06278666
v 0.07955554 0.01097237 -0.06184001
v 0.05033355 0.04583432 -0.08496849
v 0.07973033 0.00836934 -0.06342434
v 0.07869734 0.01880680 -0.06287202
v 0.07934458 0.01173357 -0.05835125
v 0.07141007 0.03783997 -0.06183796
v 0.06774602 0.04028338 -0.08339427
v 0.06320854 0.04281041 -0.08328160
v 0.05863041 0.04312293 -0.09905580
v 0.06851416 0.03953468 -0.08612147
v 0.06952706 0.03927530 -0.07540959
v 0.05797459 0.04536195 -0.06794363
v 0.05804838 0.04444591 -0.08431542
v 0.07933710 0.00421988 -0.05030821
v 0.07825079 0.01915236 -0.05089147
v 0.05019954 0.04562679 -0.08797216
v 0.07941711 0.01095538 -0.05842437
v 0.07908878 0.01129531 -0.05116569
v 0.06818431 0.04065918 -0.06850285
v 0.07918382 0.00975639 -0.05091704
v 0.07954757 0.01133695 -0.06285696
v 0.07990045 0.00015517 -0.09218334
v 0.05915458 0.04551057 -0.05294901
v 0.07922513 0.01094347 -0.05372160
v 0.07960818 0.00040116 -0.09891166
v 0.07837260 0.02103250 -0.08879496
v 0.07522328 0.02976330 -0.09977055
v 0.07975047 0.01051941 -0.07738723
v 0.07938892 0.01487020 -0.08066928
v 0.05584916 0.04516064 -0.08089541
v 0.07604332 0.02779606 -0.09948726
v 0.05652806 0.04537429 -0.07391061
v 0.07189578 0.03725010 -0.05846622
v 0.07333125 0.03355182 -0.09768934
v 0.06815981 0.04062846 -0.06972520
v 0.07853433 0.02072617 -0.08547912
v 0.07144395 0.03765057 -0.05121834
v 0.07928465 0.00964265 -0.09991373
v 0.06262807 0.04428815 -0.05275561
v 0.07717412 0.02680063 -0.06366937
v 0.07682875 0.02579455 -0.09888083
v 0.06590409 0.04242238 -0.06295137
v 0.06741054 0.03949056 -0.09678779
v 0.06814556 0.04011142 -0.08246824
v 0.05401881 0.04676335 -0.05337238
v 0.07378858 0.03416308 -0.08274979
v 0.07687481 0.02742781 -0.08390646
v 0.07827139 0.02229136 -0.08313001
v 0.07676022 0.02782911 -0.08003692
v 0.06994356 0.03833913 -0.08656838
v 0.07902289 0.01610075 -0.06350027
v 0.07662966 0.02819722 -0.07759023
v 0.07553700 0.03111651 -0.06656403
v 0.05269724 0.04638559 -0.06992095
v 0.05510721 0.04658972 -0.05012331
v 0.05084486 0.04651676 -0.07238678
v 0.07483518 0.03256572 -0.05850594
v 0.07522565 0.03163855 -0.08195993
v 0.05016905 0.04557376 -0.08873303
v 0.07713058 0.02698274 -0.06348985
v 0.05430773 0.04676512 -0.05005398
v 0.07967069 0.01043931 -0.06387757
v 0.07920813 0.01530553 -0.08836580
v 0.05623144 0.04391640 -0.09662403
v 0.06791983 0.04096351 -0.06568135
v 0.07566074 0.03078268 -0.06824820
v 0.07506152 0.03213510 -0.05939237
v 0.07927841 0.00998084 -0.09981991
v 0.05421883 0.04407078 -0.09986346
v 0.07932889 0.01018017 -0.09803389
v 0.07937253 0.00266692 -0.05017308
v 0.05837370 0.04545098 -0.06377367
v 0.07769652 0.02466355 -0.08333644
v 0.07810398 0.02114749 -0.09540652
v 0.06349168 0.04383456 -0.05668221
v 0.06759949 0.03921969 -0.09900930
v 0.05049303 0.04591487 -0.08361315
v 0.07537846 0.03153842 -0.06264425
v 0.07690058 0.02545582 -0.09919006
v 0.07166918 0.03743219 -0.05351794
v 0.07338347 0.03348232 -0.09755724
v 0.07963005 0.00966679 -0.06183935
v 0.07163765 0.03604530 -0.09393234
v 0.06283333 0.04200926 -0.09579864
v 0.07827221 0.02108935 -0.09128950
v 0.06836643 0.04068238 -0.06436096
v 0.05296902 0.04562840 -0.08271791
v 0.06623589 0.04227814 -0.06003933
v 0.07214009 0.03638389 -0.08295201
v 0.07512044 0.03222120 -0.06321938
v 0.07084499 0.03775334 -0.08273598
v 0.07561370 0.02996247 -0.05085521
v 0.07507890 0.03158389 -0.08672105
v 0.07045052 0.03691734 -0.09815116
v 0.05187887 0.04693345 -0.06145282
v 0.07944375 0.01411908 -0.08448077
v 0.07669046 0.02797045 -0.08199319
v 0.07961830 0.01245949 -0.08365822
v 0.05284276 0.04694778 -0.05699679
v 0.07184671 0.03712599 -0.05069036
v 0.07865209 0.01652377 -0.09990092
v 0.06849055 0.03959457 -0.08558799
v 0.07741658 0.02558743 -0.08492913
v 0.06356261 0.04258840 -0.08379287
v 0.07030272 0.03877102 -0.07052927
v 0.06482471 0.04320115 -0.05189988
v 0.05651588 0.04504998 -0.08031910
v 0.07833604 0.02133794 -0.06089318
v 0.07125780 0.03731053 -0.08290575
v 0.06530246 0.04292800 -0.05313457
v 0.07941953 0.01024188 -0.09521828
v 0.07881811 0.01555279 -0.09923178
v 0.07043271 0.03821298 -0.08200746
v 0.07858295 0.01760145 -0.09731327
v 0.07265416 0.03536730 -0.08684711
v 0.07975293 0.01035203 -0.07548063
v 0.07757253 0.02349595 -0.09434447
v 0.06858062 0.03974167 -0.08270140
v 0.07489758 0.03065053 -0.09894209
v 0.07532947 0.03136832 -0.08256359
v 0.06956907 0.03896338 -0.08213715
v 0.05289714 0.04583183 -0.07990987
v 0.07056551 0.03752692 -0.08930722
v 0.07920679 0.00995816 -0.05171246
v 0.06212070 0.04429883 -0.06062624
v 0.07713812 0.02684235 -0.08223635
v 0.06425585 0.04201281 -0.08639586
v 0.05260643 0.04700075 -0.05671404
v 0.07493131 0.03255316 -0.06455991
v 0.07245316 0.03597260 -0.08263553
v 0.07183331 0.03681181 -0.08011741
v 0.05315333 0.04686107 -0.05796401
v 0.07984663 0.00447525 -0.06337291
v 0.07198746 0.03605446 -0.08906327
v 0.05796594 0.04446661 -0.08438776
v 0.05749204 0.04342865 -0.09965970
v 0.07523883 0.03190329 -0.06264647
v 0.05472538 0.04464403 -0.09103062
v 0.07200456 0.03650238 -0.08325163
v 0.07884502 0.01400728 -0.05113015
v 0.06526039 0.04296561 -0.05050853
v 0.07966683 0.01056952 -0.06503066
v 0.07912580 0.01715167 -0.08344676
v 0.06285637 0.04307455 -0.08100130
v 0.07985540 0.00221359 -0.06121182
v 0.05226700 0.04474751 -0.09605328
v 0.07920818 0.01654193 -0.08173398
v 0.08003562 0.00018354 -0.08626852
v 0.07714510 0.02684076 -0.08000648
v 0.07953052 0.01241098 -0.06997218
v 0.05391746 0.04676975 -0.05416655
v 0.07393985 0.03386671 -0.05136281
v 0.07864590 0.02031145 -0.08402333
v 0.06479575 0.04148497 -0.08948849
v 0.07934981 0.00344018 -0.05012709
v 0.07029911 0.03846766 -0.07889258
v 0.07959533 0.01118518 -0.06434117
v 0.06338982 0.04270798 -0.08343265
v 0.05038493 0.04503901 -0.09546567
v 0.05756884 0.04378244 -0.09469281
v 0.06760454 0.04134340 -0.06136841
v 0.07842775 0.01750219 -0.05019915
v 0.07244376 0.03457986 -0.09934349
v 0.07896449 0.01803927 -0.07584195
v 0.07866164 0.01993588 -0.06979742
v 0.06694588 0.04183874 -0.05120299
v 0.06809396 0.04015945 -0.08232567
v 0.07531210 0.03100152 -0.05278363
v 0.07926336 0.01610062 -0.08151909
v 0.06587764 0.04253307 -0.05667563
v 0.07978588 0.01017305 -0.08447201
v 0.07395770 0.03417930 -0.07032653
v 0.07834066 0.01908835 -0.05303458
v 0.07813099 0.02178084 -0.05733346
v 0.06899802 0.04022192 -0.06205430
v 0.05644943 0.04497277 -0.08182491
v 0.06814428 0.04097003 -0.06133670
v 0.07427719 0.03183504 -0.09919643
v 0.07788859 0.02386443 -0.07512922
v 0.06953466 0.03976083 -0.06177672
v 0.06386868 0.04367543 -0.05400720
v 0.08000039 0.00052543 -0.08861729
v 0.05027059 0.04726460 -0.05926953
v 0.07792492 0.02209089 -0.05356345
v 0.07129376 0.03768516 -0.07144777
v 0.05472895 0.04607368 -0.06767039
v 0.07901531 0.01767281 -0.07638230
v 0.07983882 0.00013854 -0.05906756
v 0.07965883 0.01199092 -0.08327609
v 0.07981134 0.00985217 -0.08178713
v 0.07687507 0.02610876 -0.09567040
v 0.06175374 0.04214817 -0.09878466
v 0.07742728 0.02322727 -0.09982378
v 0.07832899 0.02183899 -0.06313587
v 0.05826407 0.04581644 -0.05195929
v 0.07819182 0.02261425 -0.08353131
v 0.07889251 0.01303507 -0.05017096
v 0.07016693 0.03913837 -0.06404292
v 0.07720700 0.02644169 -0.08494764
v 0.07812361 0.02225478 -0.05998911
v 0.06829643 0.04081625 -0.06239067
v 0.05769445 0.04583679 -0.05918857
v 0.06527067 0.04295226 -0.05227810
v 0.07837971 0.02180877 -0.08374401
v 0.07972218 0.01049792 -0.08568756
v 0.07530349 0.03138696 -0.08355128
v 0.07303973 0.03379376 -0.09949231
v 0.05029539 0.04676944 -0.06890639
v 0.05213142 0.04531667 -0.08870241
v 0.06157116 0.04227613 -0.09788065
v 0.05989508 0.04339763 -0.09027123
v 0.06631819 0.03999701 -0.09814600
v 0.07734385 0.02417766 -0.05038328
v 0.07025396 0.03897386 -0.05004232
v 0.07235099 0.03636417 -0.05081245
v 0.07967644 0.00198085 -0.05654351
v 0.07419462 0.03391776 -0.06302192
v 0.07974007 0.00154963 -0.05774392
v 0.05906303 0.04551091 -0.05457977
v 0.07279194 0.03424559 -0.09800638
v 0.06361528 0.04373596 -0.05954763
v 0.06628681 0.04225505 -0.05764178
v 0.05304133 0.04567293 -0.08192662
v 0.07729792 0.02630740 -0.08230742
v 0.05785512 0.04502632 -0.07515997
v 0.07815629 0.02036234 -0.09779911
v 0.07369806 0.03434401 -0.05194925
v 0.07680034 0.02785367 -0.06414088
v 0.07689378 0.02761192 -0.06401935
v 0.07314419 0.03506700 -0.08174052
v 0.07113057 0.03785253 -0.07187081
v 0.06987599 0.03944139 -0.06263803
v 0.07715629 0.02687245 -0.07180939
v 0.07302727 0.03383740 -0.09917001
v 0.07809535 0.02166949 -0.05590530
v 0.07965609 0.01069766 -0.06511330
v 0.07374057 0.03474586 -0.06252661
v 0.07766418 0.02468204 -0.06304442
v 0.07010763 0.03922913 -0.06296492
v 0.07958255 0.01178759 -0.06859178
v 0.07970565 0.00886710 -0.06307177
v 0.06328581 0.04399631 -0.05066202
v 0.06410727 0.04272261 -0.07623805
v 0.07848017 0.02085691 -0.06352284
v 0.06572292 0.04263403 -0.05715255
v 0.06165119 0.04445477 -0.06084745
v 0.07730518 0.02584128 -0.08625024
v 0.07915938 0.01285196 -0.05632163
v 0.05917822 0.04505479 -0.06626486
v 0.06334412 0.04386357 -0.06060820
v 0.05012103 0.04660203 -0.07263512
v 0.06393546 0.04253122 -0.08164420
v 0.06983520 0.03949062 -0.06049902
v 0.07910547 0.01197359 -0.09998913
v 0.07728682 0.02631301 -0.06319217
v 0.07793164 0.02191865 -0.05277522
v 0.06619617 0.04231194 -0.05860325
v 0.07212132 0.03667348 -0.07445515
v 0.07759491 0.02496934 -0.06297366
v 0.06798272 0.04048236 -0.07633158
v 0.08011025 0.00013331 -0.07331696
v 0.05249312 0.04538608 -0.08713481
v 0.05290742 0.04432765 -0.09992089
v 0.06294318 0.04416312 -0.05035070
v 0.07713575 0.02667786 -0.08481745
v 0.05226812 0.04455979 -0.09854810
v 0.07932369 0.00557127 -0.05085465
v 0.07893224 0.01398770 -0.09996858
v 0.07763131 0.02288942 -0.05039963
v 0.07829280 0.01897523 -0.09977525
v 0.07345890 0.03458521 -0.08323958
v 0.07031252 0.03905190 -0.06098287
v 0.05010271 0.04731752 -0.05863634
v 0.07039204 0.03693997 -0.09858561
v 0.07885651 0.01343454 -0.05016355
v 0.06978310 0.03855818 -0.08540643
v 0.07505078 0.03228613 -0.06713772
v 0.07425683 0.03332188 -0.05210765
v 0.07040607 0.03889793 -0.06411906
v 0.07373897 0.03471673 -0.06397868
v 0.07007262 0.03926618 -0.05780143
v 0.05761323 0.04444091 -0.08572326
v 0.05904362 0.04521827 -0.06391530
v 0.07522620 0.03136821 -0.08544647
v 0.07528713 0.03121729 -0.08546773
v 0.07985853 0.00883639 -0.08251931
v 0.05779425 0.04364827 -0.09570220
v 0.07979253 0.01013690 -0.08030338
v 0.07494853 0.03199174 -0.08481049
v 0.06020404 0.04518671 -0.05099653
v 0.07860700 0.02068856 -0.08339174
v 0.06109206 0.04412845 -0.07181796
v 0.07457619 0.03278803 -0.08308056
v 0.07407806 0.03412581 -0.06317866
v 0.07857250 0.02001267 -0.08740522
v 0.07487323 0.03127050 -0.09396064
v 0.05057467 0.04721130 -0.05949997
v 0.05563887 0.04384617 -0.09909989
v 0.06777341 0.04126587 -0.05190857
v 0.05014539 0.04634719 -0.07752230
v 0.07729128 0.02474643 -0.05251231
v 0.05781447 0.04398590 -0.09124324
v 0.06404186 0.04236229 -0.08325339
v 0.05729839 0.04515701 -0.07494123
v 0.06312791 0.04308451 -0.07884726
v 0.06651360 0.04189344 -0.06606136
v 0.07977485 0.01060646 -0.08238333
v 0.07654156 0.02654801 -0.09967055
v 0.07508981 0.03190900 -0.08258770
v 0.05034507 0.04742116 -0.05170757
v 0.07845113 0.02121963 -0.06444990
v 0.06898953 0.03844189 -0.09536284
v 0.07563243 0.03087409 -0.06583359
v 0.07708192 0.02702276 -0.06194133
v 0.07002513 0.03923453 -0.05001664
v 0.07468424 0.03113027 -0.09927801
v 0.05301385 0.04702534 -0.05108509
v 0.05002924 0.04722478 -0.06069596
v 0.07838207 0.02045695 -0.05901295
v 0.07005376 0.03806246 -0.08898563
v 0.07366104 0.03440553 -0.08036484
v 0.05030413 0.04623246 -0.07933548
v 0.05821494 0.04436823 -0.08463403
v 0.06382329 0.04120545 -0.09946633
v 0.05449965 0.04668764 -0.05189219
v 0.07681370 0.02643980 -0.05005616
v 0.07856272 0.02096327 -0.08241487
v 0.05165015 0.04458922 -0.09925144
v 0.06761153 0.04055871 -0.07998424
v 0.07659789 0.02827133 -0.07793681
v 0.07220473 0.03692657 -0.06265661
v 0.07403657 0.03415955 -0.06528682
v 0.05022746 0.04481897 -0.09860339
v 0.06348701 0.04389697 -0.05097661
v 0.07743198 0.02425293 -0.05327284
v 0.05770550 0.04584926 -0.05845206
v 0.07818705 0.01986738 -0.09901620
v 0.08000006 0.00451682 -0.07917316
v 0.05914546 0.04528125 -0.06184257
v 0.07616855 0.02925732 -0.08315895
v 0.05375957 0.04648952 -0.06352924
v 0.07388895 0.03386944 -0.08430875
v 0.06779685 0.03965269 -0.09162435
v 0.07387932 0.03327125 -0.09092937
v 0.05887788 0.04555376 -0.05560612
v 0.05261315 0.04646786 -0.06861074
v 0.07686534 0.02628009 -0.09469663
v 0.07709981 0.02707180 -0.06470405
v 0.05721306 0.04610288 -0.05127678
v 0.07709454 0.02695778 -0.08193143
v 0.05221869 0.04594611 -0.07988477
v 0.07582276 0.02829440 -0.09983688
v 0.07465805 0.03301761 -0.06129062
v 0.07417102 0.03384899 -0.06870016
v 0.06333084 0.04373916 -0.06358115
v 0.07043167 0.03812606 -0.08352071
v 0.07012769 0.03921467 -0.05738625
v 0.07713991 0.02694613 -0.06580439
v 0.05173962 0.04707969 -0.05892220
v 0.07956346 0.00073527 -0.09962815
v 0.07259523 0.03615227 -0.07070988
v 0.07771186 0.02256701 -0.05063888
v 0.06582664 0.04142310 -0.08246729
v 0.06231215 0.04320554 -0.08198220
v 0.07617464 0.02759358 -0.09844194
v 0.07501245 0.03166065 -0.08723100
v 0.07982222 0.00058375 -0.05896270
v 0.06808141 0.04062088 -0.07135961
v 0.07793077 0.02368668 -0.07457130
v 0.07925292 0.01626763 -0.08366967
v 0.07856536 0.01735405 -0.09886169
v 0.07817995 0.02266669 -0.08068450
v 0.05265923 0.04599129 -0.07777370
v 0.05395334 0.04555648 -0.08094682
v 0.06895036 0.03823764 -0.09830934
v 0.07779119 0.02234431 -0.05145146
v 0.06931370 0.03910223 -0.08327519
v 0.06521816 0.04299239 -0.05085058
v 0.05866577 0.04426598 -0.08408630
v 0.07068809 0.03696193 -0.09471879
v 0.07078424 0.03847260 -0.06435749
v 0.05478637 0.04467163 -0.09050980
v 0.07105997 0.03806781 -0.05044681
v 0.06979352 0.03786432 -0.09438789
v 0.07852968 0.02007903 -0.06218209
v 0.07851389 0.02122548 -0.07988208
v 0.07914657 0.01603333 -0.08772815
v 0.07373174 0.03460709 -0.05903952
v 0.07944218 0.01024912 -0.05775378
v 0.07213512 0.03644309 -0.08130190
v 0.07679302 0.02661363 -0.05063818
v 0.07841363 0.02150928 -0.06557279
v 0.07253470 0.03605675 -0.05052457
v 0.06223215 0.04192087 -0.09970261
v 0.05035143 0.04661990 -0.07168456
v 0.06996591 0.03871331 -0.08035816
v 0.05846484 0.04453775 -0.08126050
v 0.06079067 0.04239692 -0.09953982
v 0.07990775 0.00049278 -0.06122513
v 0.07793269 0.02177515 -0.05215543
v 0.07411681 0.03393009 -0.06924690
v 0.07377453 0.03417349 -0.08308312
v 0.06617674 0.04124102 -0.08227759
v 0.05759519 0.04394414 -0.09244701
v 0.05915327 0.04551847 -0.05251412
v 0.05391319 0.04640608 -0.06453024
v 0.05724260 0.04472626 -0.08292388
v 0.07361738 0.03373474 -0.09065602
v 0.07272695 0.03425264 -0.09889850
v 0.07468971 0.03253692 -0.08373854
v 0.05186475 0.04723644 -0.05016185
v 0.06773811 0.04056519 -0.07831326
v 0.07218075 0.03652083 -0.07685099
v 0.07990013 0.00195240 -0.06254870
v 0.07954447 0.00317757 -0.05431283
v 0.07729534 0.02452632 -0.05117945
v 0.07858229 0.02072611 -0.08409893
v 0.06767548 0.04040151 -0.08226437
v 0.07943087 0.01259191 -0.06405206
v 0.05871078 0.04553629 -0.05909153
v 0.06557429 0.04074593 -0.09364612
v 0.07992387 0.00041324 -0.09135101
v 0.07851033 0.02130144 -0.08291361
v 0.05804816 0.04471027 -0.08061763
v 0.07150265 0.03704741 -0.08299554
v 0.06274414 0.04326216 -0.07792492
v 0.07219459 0.03632533 -0.08252561
v 0.05189052 0.04452988 -0.09961907
v 0.06809317 0.04046090 -0.07505007
v 0.07988836 0.00317447 -0.06350686
v 0.07023036 0.03816580 -0.08557683
v 0.07511089 0.03214926 -0.06856258
v 0.06295622 0.04398051 -0.06125113
v 0.07911404 0.01051529 -0.05032939
v 0.06557964 0.04272276 -0.05817510
v 0.07513058 0.03213694 -0.06667574
v 0.07684878 0.02679969 -0.05355335
v 0.07824252 0.02241052 -0.08316896
v 0.06336201 0.04375618 -0.06290640
v 0.06662382 0.04171362 -0.06862664
v 0.07199603 0.03702785 -0.05469485
v 0.06334589 0.04332731 -0.07199482
v 0.06562338 0.04269988 -0.05721603
v 0.07873103 0.01502782 -0.05085026
v 0.05257499 0.04600789 -0.07772648
v 0.06761142 0.04067875 -0.07762468
v 0.05840894 0.04452561 -0.08173552
v 0.05302449 0.04664279 -0.06355719
v 0.05217499 0.04468405 -0.09706166
v 0.07926245 0.01223932 -0.05745125
v 0.07970638 0.00782020 -0.06217191
v 0.07199611 0.03717441 -0.06292669
v 0.07845847 0.01781082 -0.09997722
v 0.06878102 0.03893342 -0.09115902
v 0.07984343 0.00928173 -0.08298779
v 0.06318081 0.04269805 -0.08492495
v 0.07646924 0.02861829 -0.07647859
v 0.07795051 0.02143298 -0.05126682
v 0.07458472 0.03267759 -0.05147871
v 0.05768607 0.04580738 -0.06028673
v 0.07772537 0.02226907 -0.09823572
v 0.07947577 0.01006447 -0.05837055
v 0.05236274 0.04448381 -0.09929662
v 0.07104961 0.03656683 -0.09511897
v 0.05395691 0.04555677 -0.08092955
v 0.05575904 0.04566693 -0.07136943
v 0.07940822 0.01106066 -0.05843689
v 0.07281073 0.03522422 -0.08603615
v 0.08008733 0.00007324 -0.08194916
v 0.07368812 0.03481818 -0.06283915
v 0.06748189 0.04146923 -0.05244206
v 0.06763367 0.04136073 -0.05360225
v 0.05211401 0.04606632 -0.07781577
v 0.07924868 0.01631349 -0.08344309
v 0.07424462 0.03226318 -0.09518685
v 0.07990790 0.00110958 -0.06190650
v 0.07910385 0.01717182 -0.07881081
v 0.06327681 0.04338722 -0.07138423
v 0.06004529 0.04502260 -0.06068241
v 0.06930138 0.03807367 -0.09688462
v 0.06627088 0.04204467 -0.06618504
v 0.06682612 0.03961415 -0.09955863
v 0.07830484 0.01897375 -0.05165128
v 0.07735809 0.02545293 -0.08736538
v 0.07858750 0.01810946 -0.09503414
v 0.07933545 0.01494567 -0.08551629
v 0.06761805 0.04129304 -0.06260902
v 0.06719828 0.04061064 -0.08310210
v 0.07188000 0.03532944 -0.09908987
v 0.05960872 0.04278564 -0.09938521
v 0.06283075 0.04183429 -0.09812827
v 0.07221616 0.03676394 -0.06751377
v 0.06198428 0.04332737 -0.08180077
v 0.05274513 0.04651717 -0.06715592
v 0.06068371 0.04287556 -0.09377889
v 0.07191476 0.03525928 -0.09938349
v 0.06277771 0.04417363 -0.05576015
v 0.07885815 0.01487580 -0.09989116
v 0.07890782 0.01710071 -0.06343247
v 0.07965581 0.00906334 -0.06196825
v 0.07343077 0.03518858 -0.06262733
v 0.07876696 0.01833220 -0.06341336
v 0.07348013 0.03467708 -0.07968963
v 0.05652013 0.04523610 -0.07666849
v 0.07902053 0.01550791 -0.09343131
f 440 41 425
f 425 41 417
f 41 518 417
f 425 417 380
f 535 467 440
f 518 168 424
f 145 467 361
f 361 175 145
f 361 467 370
f 467 535 370
f 29 370 18
f 371 168 422
f 467 145 132
f 132 295 41
f 132 145 175
f 41 440 132
f 440 467 132
f 433 382 269
f 262 168 518
f 262 382 433
f 422 168 262
f 262 433 422
f 368 21 295
f 295 576 368
f 361 370 560
f 560 370 29
f 29 18 134
f 501 370 176
f 501 18 370
f 300 560 29
f 433 269 376
f 565 269 122
f 122 269 590
f 178 518 41
f 178 262 518
f 4 576 102
f 4 368 576
f 314 18 603
f 314 134 18
f 196 341 314
f 377 300 444
f 560 300 377
f 6 175 361
f 278 296 414
f 205 296 278
f 278 42 175
f 255 576 129
f 129 576 295
f 295 132 129
f 129 132 175
f 175 42 40
f 42 31 40
f 562 278 414
f 393 14 562
f 135 223 414
f 469 269 565
f 469 376 269
f 551 269 382
f 590 269 280
f 190 241 596
f 500 199 566
f 433 199 500
f 144 187 422
f 207 187 144
f 102 14 445
f 445 4 102
f 28 522 374
f 4 445 169
f 169 445 14
f 393 223 169
f 169 14 393
f 570 370 535
f 535 373 570
f 196 314 327
f 423 134 57
f 134 314 57
f 18 501 431
f 501 598 431
f 299 501 505
f 381 596 603
f 603 183 381
f 18 319 589
f 603 18 589
f 589 183 603
f 415 300 29
f 454 148 415
f 12 535 440
f 440 266 12
f 535 12 435
f 435 12 266
f 429 11 184
f 369 11 194
f 302 456 5
f 205 278 312
f 255 129 289
f 289 129 31
f 31 129 529
f 529 40 31
f 529 129 175
f 175 40 529
f 414 223 395
f 395 223 393
f 393 562 395
f 42 278 101
f 278 562 101
f 355 551 247
f 247 551 382
f 557 355 247
f 379 113 386
f 559 488 386
f 386 113 559
f 55 190 196
f 55 241 190
f 196 190 246
f 259 500 566
f 334 500 259
f 207 500 322
f 322 500 334
f 490 144 422
f 207 144 490
f 548 344 2
f 2 438 548
f 548 187 207
f 78 164 566
f 197 344 460
f 460 164 197
f 344 495 460
f 334 164 460
f 460 495 334
f 566 199 45
f 45 275 566
f 74 45 199
f 63 341 196
f 196 222 63
f 196 509 378
f 517 449 509
f 472 392 29
f 382 262 304
f 262 89 304
f 125 304 541
f 541 89 127
f 541 304 89
f 121 374 89
f 121 89 262
f 28 374 121
f 271 418 584
f 108 355 557
f 4 169 110
f 158 169 526
f 526 169 264
f 458 580 552
f 458 11 429
f 458 480 229
f 552 480 458
f 243 501 176
f 505 501 243
f 270 314 603
f 317 486 501
f 501 299 317
f 190 596 571
f 596 381 571
f 587 68 482
f 482 68 381
f 528 589 319
f 319 211 528
f 528 211 261
f 300 415 186
f 186 415 148
f 298 148 454
f 444 300 61
f 380 466 290
f 425 380 290
f 166 435 266
f 166 266 440
f 166 440 425
f 425 407 166
f 166 407 429
f 429 123 166
f 109 123 429
f 429 184 109
f 253 369 373
f 146 5 371
f 162 5 456
f 162 432 168
f 168 371 162
f 371 5 162
f 177 278 175
f 175 6 177
f 297 562 414
f 414 395 297
f 297 395 562
f 91 31 42
f 42 101 91
f 80 469 565
f 362 147 167
f 433 376 320
f 320 523 433
f 442 523 82
f 295 17 474
f 295 21 506
f 506 17 295
f 348 110 169
f 187 548 140
f 140 548 438
f 422 187 140
f 559 438 365
f 497 365 599
f 599 365 438
f 422 113 464
f 464 113 379
f 238 196 198
f 346 386 305
f 379 386 346
f 305 212 96
f 198 196 216
f 216 463 198
f 385 164 334
f 334 259 385
f 566 164 385
f 385 259 566
f 321 490 422
f 422 433 321
f 433 500 321
f 321 500 207
f 207 490 321
f 396 517 416
f 344 577 608
f 608 438 2
f 2 344 608
f 69 548 207
f 197 164 174
f 164 78 174
f 566 275 174
f 174 78 566
f 73 495 344
f 207 322 73
f 73 322 334
f 334 495 73
f 73 69 207
f 344 548 73
f 548 69 73
f 575 222 196
f 196 378 575
f 226 134 423
f 423 403 226
f 48 403 423
f 29 134 459
f 231 541 127
f 127 496 231
f 125 541 131
f 169 343 347
f 347 136 88
f 347 46 264
f 264 169 347
f 249 169 223
f 249 343 169
f 223 135 249
f 569 496 127
f 112 108 557
f 128 169 158
f 128 108 169
f 580 458 502
f 245 489 50
f 50 489 171
f 330 489 194
f 330 458 229
f 194 11 330
f 11 458 330
f 405 243 176
f 405 171 243
f 50 171 405
f 516 327 314
f 314 270 516
f 115 471 251
f 115 15 359
f 462 540 357
f 410 211 359
f 427 157 538
f 587 482 419
f 65 381 183
f 65 482 381
f 183 589 53
f 53 150 183
f 568 61 300
f 466 202 404
f 404 290 466
f 518 424 81
f 11 369 316
f 369 253 316
f 556 373 535
f 556 253 373
f 168 432 152
f 604 146 357
f 5 146 604
f 531 37 83
f 83 37 179
f 179 37 33
f 567 309 33
f 443 456 302
f 453 480 552
f 218 312 278
f 278 177 218
f 507 80 565
f 590 280 22
f 433 523 408
f 523 442 408
f 606 128 158
f 272 418 271
f 272 499 418
f 301 499 104
f 418 499 301
f 301 307 67
f 82 307 301
f 104 362 301
f 362 345 301
f 301 442 82
f 374 474 325
f 325 474 17
f 323 374 522
f 323 474 374
f 97 506 21
f 21 368 97
f 368 4 97
f 558 348 607
f 85 348 558
f 422 140 87
f 87 113 422
f 559 113 87
f 87 438 559
f 87 140 438
f 305 386 39
f 39 212 305
f 100 599 438
f 196 497 534
f 196 238 338
f 338 497 196
f 338 292 497
f 488 292 338
f 338 386 488
f 1 274 60
f 470 410 359
f 538 157 383
f 422 464 16
f 464 406 16
f 248 371 422
f 71 149 56
f 198 463 220
f 196 246 532
f 532 216 196
f 197 543 539
f 539 543 165
f 165 416 539
f 153 100 428
f 400 517 509
f 400 416 517
f 509 153 400
f 197 174 244
f 167 455 336
f 509 188 141
f 509 449 515
f 515 188 509
f 396 416 200
f 403 48 200
f 138 472 29
f 29 459 138
f 38 131 541
f 169 108 38
f 496 569 38
f 66 203 205
f 477 398 250
f 478 208 560
f 361 560 375
f 560 208 375
f 375 6 361
f 375 177 6
f 294 584 418
f 294 276 584
f 88 136 43
f 43 136 64
f 257 347 88
f 46 347 257
f 124 38 108
f 131 38 124
f 358 407 425
f 194 489 44
f 489 245 44
f 481 330 229
f 243 394 116
f 120 554 486
f 179 390 356
f 504 554 531
f 359 15 350
f 357 542 76
f 412 115 251
f 15 115 412
f 546 462 357
f 357 76 546
f 261 211 234
f 211 410 234
f 157 427 491
f 491 427 68
f 491 68 587
f 587 419 561
f 561 419 25
f 233 331 306
f 306 298 454
f 106 81 424
f 119 37 531
f 531 332 119
f 411 332 531
f 103 443 302
f 99 604 357
f 342 507 565
f 421 362 167
f 74 544 421
f 275 45 421
f 45 74 421
f 167 185 421
f 421 174 275
f 185 174 421
f 67 291 281
f 291 363 281
f 281 301 67
f 483 363 291
f 80 363 483
f 469 80 483
f 426 22 280
f 128 606 111
f 418 301 34
f 110 348 240
f 252 85 17
f 17 506 252
f 348 85 252
f 497 599 520
f 520 534 497
f 237 509 196
f 196 534 237
f 388 406 464
f 406 388 360
f 360 464 379
f 360 388 464
f 25 60 151
f 151 60 274
f 151 561 25
f 450 60 183
f 1 60 450
f 183 150 450
f 51 16 406
f 51 248 422
f 371 248 49
f 49 288 441
f 579 284 268
f 406 284 579
f 263 96 212
f 263 220 96
f 324 344 197
f 344 439 461
f 8 416 461
f 384 236 197
f 197 539 384
f 19 416 8
f 19 539 416
f 58 174 185
f 58 244 174
f 58 185 167
f 167 336 58
f 197 244 58
f 58 336 197
f 498 544 74
f 498 199 433
f 498 74 199
f 457 204 156
f 447 204 457
f 233 447 457
f 465 340 455
f 465 455 167
f 36 331 233
f 340 465 36
f 285 141 188
f 57 141 285
f 423 57 285
f 396 200 473
f 473 200 48
f 189 38 569
f 189 607 348
f 189 348 169
f 169 38 189
f 524 133 3
f 333 61 181
f 444 61 333
f 205 203 70
f 70 477 64
f 70 296 205
f 203 66 593
f 593 70 203
f 477 70 593
f 612 66 205
f 584 276 254
f 524 398 260
f 398 477 260
f 208 478 221
f 605 208 219
f 605 375 208
f 219 612 605
f 312 218 605
f 205 312 605
f 605 612 205
f 605 218 177
f 177 375 605
f 402 54 143
f 524 402 143
f 143 133 524
f 143 54 208
f 143 208 30
f 64 477 581
f 581 43 64
f 276 43 581
f 581 254 276
f 581 477 250
f 108 112 574
f 574 124 108
f 98 315 502
f 502 358 98
f 580 502 163
f 502 315 163
f 283 481 137
f 283 137 531
f 572 481 229
f 137 481 572
f 505 243 597
f 243 116 597
f 531 554 242
f 554 120 242
f 242 59 531
f 389 59 242
f 598 563 265
f 265 563 115
f 359 211 265
f 265 115 359
f 191 563 598
f 191 598 501
f 471 554 600
f 554 504 600
f 251 471 600
f 274 525 436
f 510 470 359
f 413 149 71
f 413 547 149
f 105 76 149
f 15 412 585
f 26 356 390
f 9 487 230
f 463 9 230
f 538 463 230
f 201 487 9
f 201 9 571
f 201 571 381
f 81 106 206
f 258 152 432
f 258 206 152
f 446 390 179
f 179 86 446
f 179 33 527
f 527 86 179
f 527 33 309
f 527 103 452
f 309 443 527
f 443 103 527
f 531 137 214
f 214 611 531
f 302 5 397
f 397 512 302
f 52 453 202
f 52 202 466
f 466 235 52
f 52 239 10
f 235 81 52
f 81 206 52
f 52 258 239
f 206 258 52
f 52 10 309
f 52 309 567
f 35 342 565
f 366 345 362
f 362 421 366
f 22 426 215
f 215 426 20
f 215 20 351
f 301 281 215
f 351 34 215
f 215 34 301
f 215 281 79
f 79 342 215
f 342 35 215
f 351 111 609
f 609 111 606
f 351 20 492
f 492 111 351
f 110 240 537
f 537 240 97
f 4 110 537
f 537 97 4
f 97 240 521
f 509 610 24
f 24 153 509
f 100 153 24
f 337 610 509
f 509 237 337
f 117 151 209
f 561 151 117
f 268 284 594
f 594 56 268
f 71 56 594
f 287 284 406
f 406 360 287
f 379 346 287
f 287 360 379
f 422 16 94
f 94 51 422
f 16 51 94
f 273 51 406
f 248 51 273
f 371 49 349
f 349 49 441
f 441 288 182
f 288 84 182
f 357 84 328
f 328 542 357
f 328 84 288
f 401 439 344
f 344 324 401
f 197 236 77
f 77 324 197
f 13 153 428
f 508 461 416
f 313 200 416
f 313 227 447
f 165 227 313
f 313 416 165
f 29 392 313
f 372 306 454
f 233 306 372
f 256 36 233
f 340 36 256
f 423 285 582
f 192 3 133
f 133 333 192
f 192 333 181
f 530 398 524
f 524 3 530
f 530 3 311
f 66 477 170
f 170 593 66
f 477 593 170
f 494 612 219
f 494 477 66
f 66 612 494
f 30 208 592
f 208 221 592
f 23 358 425
f 23 98 358
f 531 59 514
f 514 283 531
f 486 317 602
f 602 318 486
f 430 120 486
f 486 318 430
f 389 242 511
f 409 394 243
f 243 242 409
f 274 436 588
f 588 547 274
f 149 547 588
f 114 510 525
f 114 274 1
f 114 525 274
f 274 547 553
f 553 519 274
f 76 105 7
f 7 105 350
f 7 350 15
f 549 585 462
f 15 585 549
f 462 546 549
f 251 26 533
f 533 412 251
f 531 611 139
f 611 573 139
f 139 411 531
f 601 52 555
f 453 52 601
f 506 97 583
f 97 521 583
f 599 100 468
f 100 24 468
f 96 503 118
f 308 118 193
f 193 118 503
f 228 220 463
f 96 220 228
f 228 503 96
f 228 463 538
f 538 383 228
f 126 284 308
f 308 193 126
f 172 594 284
f 284 126 172
f 172 126 475
f 308 284 282
f 284 287 282
f 406 579 578
f 578 273 406
f 485 49 248
f 195 56 149
f 195 76 542
f 149 76 195
f 248 273 47
f 387 577 344
f 344 461 387
f 461 508 387
f 391 313 392
f 200 313 391
f 154 313 447
f 154 447 233
f 233 372 154
f 173 564 197
f 173 159 564
f 564 159 437
f 449 582 451
f 451 515 449
f 451 582 285
f 493 530 499
f 303 530 311
f 499 530 75
f 104 499 75
f 167 147 476
f 476 530 167
f 267 242 243
f 267 511 242
f 470 510 595
f 510 114 595
f 399 26 390
f 399 533 26
f 130 326 452
f 452 103 130
f 397 326 130
f 512 397 130
f 480 453 161
f 453 601 161
f 555 52 107
f 293 573 611
f 484 228 383
f 274 519 367
f 367 536 274
f 274 536 142
f 142 536 475
f 475 126 142
f 339 287 346
f 339 282 287
f 49 485 213
f 213 217 542
f 62 387 508
f 153 13 62
f 32 437 159
f 32 159 457
f 32 457 156
f 398 530 434
f 530 493 434
f 210 92 306
f 306 303 210
f 167 530 286
f 530 479 286
f 92 591 354
f 306 92 354
f 232 27 90
f 357 540 232
f 232 99 357
f 90 27 586
f 527 90 586
f 86 527 586
f 513 107 448
f 448 107 52
f 448 293 513
f 72 293 611
f 513 293 72
f 151 228 225
f 228 484 225
f 209 151 225
f 217 213 310
f 310 213 485
f 277 47 273
f 352 277 364
f 153 62 95
f 197 336 335
f 335 420 197
f 160 173 197
f 197 420 160
f 93 306 331
f 530 303 155
f 303 545 155
f 155 479 530
f 224 354 591
f 224 591 568
f 224 568 300
f 353 232 540
f 27 232 353
f 329 277 273
f 364 277 329
f 550 364 195
f 550 352 364
f 550 195 542
f 542 217 550
f 279 62 508
f 279 95 62
f 180 545 303
f 180 303 306
f 306 93 180
f 102 576 91
f 91 14 102
f 91 576 255
f 91 562 14
f 91 101 562
f 255 289 91
f 91 289 31
f 559 365 292
f 292 488 559
f 292 365 497
f 516 596 241
f 603 596 516
f 196 327 516
f 516 55 196
f 241 55 516
f 516 270 603
f 81 380 417
f 81 417 518
f 81 466 380
f 81 235 466
f 535 435 556
f 123 109 556
f 556 166 123
f 556 184 11
f 435 166 556
f 556 109 184
f 11 316 556
f 556 316 253
f 28 121 323
f 41 295 323
f 323 178 41
f 323 522 28
f 262 178 323
f 323 121 262
f 295 474 323
f 25 419 60
f 60 65 183
f 60 419 482
f 482 65 60
f 190 571 532
f 532 246 190
f 532 9 463
f 463 216 532
f 571 9 532
f 341 63 141
f 222 575 141
f 141 314 341
f 141 57 314
f 141 63 222
f 141 378 509
f 141 575 378
f 541 231 38
f 38 231 496
f 358 458 429
f 429 407 358
f 358 502 458
f 370 570 44
f 176 370 44
f 44 405 176
f 44 570 373
f 44 369 194
f 373 369 44
f 44 245 50
f 50 405 44
f 80 507 281
f 281 342 79
f 281 363 80
f 507 342 281
f 483 307 82
f 483 320 376
f 82 523 483
f 376 469 483
f 523 320 483
f 483 291 67
f 67 307 483
f 386 338 263
f 263 238 198
f 263 39 386
f 198 220 263
f 212 39 263
f 263 338 238
f 127 89 189
f 89 374 189
f 189 85 558
f 189 569 127
f 374 325 189
f 558 607 189
f 189 325 17
f 17 85 189
f 414 296 70
f 70 135 414
f 70 249 135
f 136 347 70
f 70 347 343
f 64 136 70
f 343 249 70
f 131 124 574
f 574 247 382
f 382 304 574
f 557 247 574
f 574 304 125
f 125 131 574
f 574 112 557
f 265 211 319
f 265 319 18
f 265 431 598
f 18 431 265
f 471 115 191
f 501 486 191
f 486 554 191
f 191 554 471
f 115 563 191
f 531 83 26
f 179 356 26
f 251 600 26
f 26 83 179
f 26 600 504
f 26 504 531
f 381 68 201
f 68 427 201
f 201 427 538
f 538 230 201
f 201 230 487
f 168 152 206
f 206 424 168
f 206 106 424
f 456 443 258
f 258 162 456
f 309 10 258
f 432 162 258
f 258 443 309
f 10 239 258
f 442 301 366
f 433 408 366
f 366 498 433
f 366 421 544
f 366 301 345
f 366 408 442
f 544 498 366
f 215 35 565
f 565 122 215
f 590 22 215
f 215 122 590
f 609 294 418
f 264 46 609
f 609 606 158
f 158 526 609
f 88 43 609
f 609 526 264
f 609 257 88
f 418 34 609
f 276 294 609
f 609 43 276
f 46 257 609
f 609 34 351
f 269 551 492
f 492 280 269
f 492 551 355
f 108 128 492
f 355 108 492
f 128 111 492
f 492 426 280
f 20 426 492
f 182 146 371
f 182 84 357
f 357 146 182
f 371 349 182
f 182 349 441
f 236 384 77
f 439 401 77
f 8 461 77
f 77 19 8
f 77 461 439
f 77 384 539
f 539 19 77
f 77 401 324
f 396 473 582
f 582 48 423
f 582 517 396
f 449 517 582
f 582 473 48
f 208 54 494
f 219 208 494
f 494 402 524
f 524 260 494
f 494 260 477
f 494 54 402
f 592 377 444
f 560 377 592
f 592 478 560
f 592 143 30
f 444 333 592
f 592 333 133
f 592 221 478
f 133 143 592
f 425 290 23
f 290 404 23
f 552 580 23
f 23 453 552
f 202 453 23
f 23 404 202
f 580 163 23
f 315 98 23
f 23 163 315
f 409 317 299
f 409 299 505
f 505 597 409
f 409 116 394
f 120 430 409
f 409 597 116
f 409 602 317
f 409 242 120
f 318 602 409
f 409 430 318
f 588 510 359
f 359 350 588
f 588 105 149
f 588 436 525
f 525 510 588
f 350 105 588
f 549 546 76
f 549 7 15
f 76 7 549
f 583 240 348
f 583 252 506
f 348 252 583
f 583 521 240
f 468 520 599
f 468 237 534
f 534 520 468
f 610 337 468
f 468 24 610
f 468 337 237
f 391 459 134
f 134 226 391
f 392 472 391
f 391 226 403
f 472 138 391
f 403 200 391
f 391 138 459
f 154 372 454
f 29 313 154
f 454 415 154
f 154 415 29
f 451 285 188
f 188 515 451
f 476 362 104
f 104 75 476
f 147 362 476
f 476 75 530
f 267 171 489
f 243 171 267
f 481 283 267
f 489 330 267
f 267 514 59
f 330 481 267
f 267 59 389
f 283 514 267
f 389 511 267
f 410 470 595
f 595 53 589
f 595 528 261
f 261 234 595
f 589 528 595
f 595 450 150
f 1 450 595
f 150 53 595
f 595 234 410
f 595 114 1
f 130 103 302
f 302 512 130
f 367 413 71
f 71 594 367
f 547 413 367
f 594 172 367
f 367 553 547
f 519 553 367
f 367 172 475
f 475 536 367
f 142 151 274
f 142 228 151
f 142 193 503
f 503 228 142
f 142 126 193
f 305 96 339
f 339 346 305
f 96 118 339
f 339 118 308
f 308 282 339
f 288 49 213
f 542 328 213
f 213 328 288
f 438 608 62
f 62 100 438
f 62 608 577
f 428 100 62
f 62 13 428
f 577 387 62
f 156 204 32
f 165 543 32
f 32 543 197
f 197 564 32
f 32 227 165
f 32 204 447
f 447 227 32
f 564 437 32
f 250 398 434
f 434 581 250
f 434 493 499
f 499 272 434
f 254 581 434
f 434 272 271
f 271 584 434
f 584 254 434
f 181 61 210
f 210 303 311
f 3 192 210
f 61 568 210
f 568 591 210
f 311 3 210
f 210 192 181
f 210 591 92
f 232 527 452
f 5 604 232
f 604 99 232
f 232 397 5
f 452 326 232
f 232 90 527
f 232 326 397
f 567 33 448
f 448 52 567
f 448 33 37
f 37 119 448
f 448 119 332
f 332 411 448
f 411 139 448
f 448 139 573
f 573 293 448
f 72 572 229
f 229 480 72
f 72 601 555
f 555 107 72
f 72 214 137
f 137 572 72
f 611 214 72
f 480 161 72
f 72 161 601
f 72 107 513
f 225 491 587
f 225 117 209
f 225 383 157
f 157 491 225
f 587 561 225
f 561 117 225
f 225 484 383
f 160 336 455
f 160 256 233
f 455 340 160
f 233 457 160
f 457 159 160
f 340 256 160
f 159 173 160
f 160 335 336
f 420 335 160
f 300 186 224
f 148 298 224
f 224 186 148
f 298 306 224
f 306 354 224
f 540 462 353
f 390 446 353
f 353 399 390
f 462 585 353
f 353 585 412
f 353 446 86
f 412 533 353
f 533 399 353
f 86 586 353
f 353 586 27
f 329 579 268
f 268 56 329
f 329 578 579
f 273 578 329
f 56 195 329
f 195 364 329
f 248 47 550
f 550 485 248
f 217 310 550
f 550 310 485
f 47 277 550
f 277 352 550
f 279 508 416
f 279 400 153
f 416 400 279
f 153 95 279
f 180 36 465
f 167 286 180
f 180 465 167
f 331 36 180
f 180 93 331
f 180 286 479
f 479 155 180
f 180 155 545

