# https://github.com/mikedh/trimesh
v -0.02444244 -0.00020711 -0.01398571
v -0.02482472 -0.02443526 -0.00266126
v -0.02427688 -0.02396159 -0.00003904
v -0.00035988 -0.02421029 -0.01500007
v -0.01604582 -0.02485520 -0.00380557
v -0.00147942 -0.02461482 -0.00056152
v -0.00001247 -0.02417763 -0.00683504
v -0.02410286 -0.00096421 -0.00590765
v -0.00159904 -0.02487199 -0.00294179
v -0.02434868 -0.02420815 -0.01500007
v -0.00294990 -0.00021004 -0.01500006
v -0.00045728 -0.00093111 -0.01500006
v -0.01849998 -0.00004142 -0.01313635
v -0.02491812 -0.00050846 -0.01500006
v -0.01125822 -0.02481438 -0.01500007
v -0.00047134 -0.02496655 -0.00392695
v -0.02298004 -0.02451075 -0.00257517
v -0.01850756 -0.00637679 -0.00035670
v -0.01974436 -0.02499191 -0.00562782
v -0.00035701 -0.02427234 -0.01476921
v -0.02487506 -0.02489577 -0.00549683
v -0.00183964 -0.02464913 -0.00087356
v -0.02466850 -0.02449571 -0.00291178
v -0.02488598 -0.02492937 -0.00571854
v -0.00007629 -0.02481923 -0.00232770
v -0.01009477 -0.02499925 -0.00489480
v -0.00013885 -0.01513239 -0.01500007
v -0.00141606 -0.02489801 -0.00318357
v -0.02486445 -0.00360363 -0.00474127
v -0.01897554 -0.00592258 -0.00045605
v -0.02240191 -0.02421456 -0.00069789
v -0.00014605 -0.01730069 -0.01500007
v -0.01791246 -0.02428110 -0.00013164
v -0.00268864 -0.02462511 -0.00073119
v -0.02319523 -0.02406772 -0.00019782
v -0.02409292 -0.02494034 -0.00558520
v -0.02472608 -0.00500671 -0.00317209
v -0.02245047 -0.00066279 -0.00594647
v -0.02473485 -0.01391979 -0.00022303
v -0.00061607 -0.02466769 -0.00094081
v -0.02253207 -0.00008166 -0.01399083
v -0.00079518 -0.02482701 -0.01500007
v -0.02138036 -0.02498976 -0.00573221
v -0.00406742 -0.02439499 -0.01500008
v -0.02365629 -0.02461111 -0.00332786
v -0.00289866 -0.02499122 -0.00419620
v -0.00090565 -0.02464415 -0.00075663
v -0.01971008 -0.02498346 -0.01500006
v -0.01509840 -0.00005076 -0.01500006
v -0.00202657 -0.00041210 -0.01500006
v -0.00670328 -0.02447398 -0.00007355
v -0.00020448 -0.02335538 -0.01500007
v -0.02494278 -0.02365615 -0.01115934
v -0.01662206 -0.02434703 -0.00021328
v -0.01905762 -0.02499267 -0.00558298
v -0.02478227 -0.02193448 -0.01500006
v -0.01870837 -0.00038503 -0.00607966
v -0.02411685 -0.00008677 -0.01500006
v -0.02483257 -0.01611871 -0.01500006
v -0.01504990 -0.02494558 -0.00458584
v -0.01373174 -0.02439056 -0.00004323
v -0.00353281 -0.02487869 -0.01500008
v -0.00015148 -0.00632291 -0.01500006
v -0.02479431 -0.01377194 -0.00208372
v -0.00892338 -0.02467401 -0.01500007
v -0.02181249 -0.00590537 -0.00000647
v -0.02490296 -0.02365670 -0.00682732
v -0.02310747 -0.00590438 -0.00023781
v -0.00276625 -0.02493584 -0.00364222
v -0.01784955 -0.02477578 -0.00346449
v -0.02469213 -0.00512328 -0.00298873
v -0.02316263 -0.02485462 -0.01500007
f 51 6 66
f 13 57 11
f 66 6 18
f 44 12 42
f 39 3 66
f 39 2 3
f 42 16 62
f 62 44 42
f 20 52 7
f 42 12 63
f 57 12 50
f 50 11 57
f 13 11 49
f 30 12 57
f 30 18 12
f 30 57 66
f 66 18 30
f 53 56 10
f 10 44 72
f 68 39 66
f 2 39 64
f 1 8 38
f 66 57 38
f 38 68 66
f 8 68 38
f 29 39 37
f 29 64 39
f 2 64 29
f 7 63 25
f 25 63 12
f 25 20 7
f 25 16 42
f 42 20 25
f 72 44 65
f 44 62 65
f 42 52 4
f 4 20 42
f 52 20 4
f 42 63 27
f 27 63 7
f 41 57 13
f 11 50 14
f 14 50 12
f 12 44 14
f 44 10 14
f 14 8 1
f 14 29 8
f 53 29 14
f 72 62 48
f 66 3 61
f 61 51 66
f 6 51 61
f 37 39 71
f 39 68 71
f 71 68 8
f 71 29 37
f 8 29 71
f 67 29 53
f 40 25 12
f 15 62 72
f 72 65 15
f 15 65 62
f 32 52 42
f 42 27 32
f 7 52 32
f 32 27 7
f 58 49 11
f 11 14 58
f 13 49 58
f 58 41 13
f 58 14 1
f 57 41 58
f 1 38 58
f 58 38 57
f 59 10 56
f 59 14 10
f 59 56 53
f 53 14 59
f 24 10 72
f 53 10 24
f 72 48 24
f 24 67 53
f 2 29 24
f 29 67 24
f 17 45 54
f 54 31 17
f 17 31 45
f 12 18 47
f 47 40 12
f 47 18 6
f 45 31 23
f 31 35 23
f 3 2 23
f 23 35 3
f 43 24 48
f 33 31 54
f 33 35 31
f 3 35 33
f 33 61 3
f 54 61 33
f 45 23 21
f 2 24 21
f 21 23 2
f 24 43 36
f 36 61 54
f 54 45 36
f 46 69 60
f 46 62 16
f 46 48 62
f 25 40 5
f 5 60 25
f 43 60 5
f 5 36 43
f 25 60 9
f 60 69 9
f 26 60 43
f 26 46 60
f 48 46 26
f 69 46 28
f 25 9 28
f 28 9 69
f 40 47 22
f 22 5 40
f 61 36 70
f 70 5 61
f 36 5 70
f 48 26 55
f 5 22 34
f 34 47 6
f 34 22 47
f 6 61 34
f 61 5 34
f 19 26 43
f 19 55 26
f 19 43 48
f 48 55 19
f 36 21 24
f 45 21 36
f 28 46 16
f 16 25 28

