# https://github.com/mikedh/trimesh
v 0.10174132 -0.00528238 0.00020840
v 0.10003771 -0.00986307 0.00073485
v 0.11616883 -0.00688165 0.00209259
v 0.10000003 -0.01428097 0.00544081
v 0.11590774 -0.01209778 0.00064252
v 0.11347095 -0.00781457 0.00072999
v 0.11543102 -0.01771499 0.00078944
v 0.12172166 -0.02445896 0.00130478
v 0.11742740 -0.01396928 0.00072201
v 0.11997167 -0.02447543 0.00138985
v 0.10573328 -0.00202761 0.00076910
v 0.11756431 -0.01842867 0.00080396
v 0.11601328 -0.01156861 0.00074763
v 0.12474341 -0.01676356 0.00561245
v 0.12489534 -0.02128877 0.00150891
v 0.11567755 -0.00504752 0.00346553
v 0.10356240 -0.00567827 0.00020806
v 0.10273300 -0.00000609 0.01192111
v 0.11643700 -0.00611079 0.00307224
v 0.11534938 -0.02478275 0.00375903
v 0.11258484 -0.01153253 0.00041193
v 0.11705814 -0.02076635 0.00104018
v 0.12003970 -0.02336623 0.02496351
v 0.12344416 -0.02183340 0.00114072
v 0.10595819 -0.00173398 0.00097689
v 0.11522614 -0.01960373 0.00100049
v 0.11802901 -0.02030928 0.00095727
v 0.11403711 -0.00687109 0.00115158
v 0.11794421 -0.02012511 0.00094284
v 0.10513521 -0.00113426 0.00114039
v 0.11641511 -0.00530968 0.00795493
v 0.10416108 -0.00579609 0.00020812
v 0.11243841 -0.00693337 0.02474770
v 0.11918447 -0.01666447 0.00078267
v 0.11505710 -0.01011368 0.00074838
v 0.11551987 -0.00469968 0.00858255
v 0.10070386 -0.00454213 0.00021581
v 0.10151155 -0.00003481 0.02382717
v 0.10478411 -0.00081522 0.00126232
v 0.12050744 -0.02417879 0.00130336
v 0.10030334 -0.01066754 0.00090613
v 0.11502678 -0.00437639 0.00714777
v 0.12300746 -0.02066332 0.00110156
v 0.12061833 -0.02099159 0.00097427
v 0.11477378 -0.02481173 0.00499237
v 0.12493543 -0.01806772 0.00306705
v 0.10092615 -0.00441545 0.00021822
v 0.12167307 -0.02430127 0.00128821
v 0.11399513 -0.00385737 0.00560888
v 0.11495383 -0.00437853 0.00815000
v 0.12283535 -0.01856165 0.00139147
v 0.11401273 -0.01067528 0.00046178
v 0.12157758 -0.02271561 0.00111892
v 0.10158529 -0.00584661 0.00022919
v 0.10402241 -0.00121116 0.00092462
v 0.12332974 -0.02366279 0.00124259
v 0.11338982 -0.00624814 0.00111512
v 0.12485068 -0.01734249 0.00395576
v 0.12165132 -0.01935317 0.00096832
v 0.10508138 -0.00169209 0.00081930
v 0.10000019 -0.00484915 0.02153107
v 0.11306456 -0.00674913 0.00084856
v 0.11635438 -0.00515894 0.00653732
v 0.11369472 -0.01150883 0.00042845
v 0.10076333 -0.01522481 0.02479731
v 0.12027419 -0.02420422 0.00132077
v 0.11426162 -0.00984898 0.02489945
v 0.12424961 -0.02050105 0.00142187
v 0.10507572 -0.00587237 0.00020844
v 0.11351743 -0.00487798 0.00193441
v 0.10658887 -0.01991932 0.02498148
v 0.12471318 -0.02357743 0.00133038
v 0.11528468 -0.00545248 0.00248044
v 0.10042977 -0.00318253 0.00027766
v 0.12489377 -0.01836659 0.00274601
v 0.11550230 -0.00461723 0.00679844
v 0.11473661 -0.00749669 0.00124756
v 0.10441340 -0.00313909 0.00034786
v 0.12449121 -0.02351947 0.00130714
v 0.11727503 -0.01393367 0.00069858
v 0.11476153 -0.02498164 0.00755944
v 0.10241884 -0.00217276 0.00050167
v 0.12471875 -0.02062664 0.00157967
v 0.11909021 -0.02333929 0.00126656
v 0.10231466 -0.00121840 0.00080314
v 0.11782021 -0.02377896 0.00150212
v 0.11556004 -0.00545620 0.00267169
v 0.11593733 -0.00513168 0.00972986
v 0.12487942 -0.01956654 0.00201356
v 0.11357108 -0.01145006 0.00042332
v 0.10446926 -0.00629908 0.00022226
v 0.11572169 -0.00711619 0.00179898
v 0.10046150 -0.00054537 0.02290982
v 0.10131517 -0.00010171 0.02360401
v 0.11572361 -0.01962866 0.00097425
v 0.10062948 -0.00492232 0.00021027
v 0.12234927 -0.02073163 0.00102253
v 0.10110078 -0.00198750 0.00050084
v 0.11510757 -0.00452526 0.00892303
v 0.11991363 -0.02342400 0.00123087
v 0.12363029 -0.01916449 0.00153680
v 0.11415785 -0.00392933 0.00604583
v 0.10479445 -0.00350320 0.00030407
v 0.11251602 -0.00585340 0.00093671
v 0.11384733 -0.01721428 0.00079581
v 0.11767767 -0.02136819 0.00108150
v 0.11892797 -0.02287005 0.00120981
v 0.11087917 -0.00857723 0.00031517
v 0.11468721 -0.02494713 0.00734623
v 0.12492505 -0.01882058 0.01091912
v 0.11607423 -0.01545572 0.00060348
v 0.11467187 -0.01820304 0.00086107
v 0.10504567 -0.00591542 0.00020898
v 0.12181275 -0.01830024 0.00111781
v 0.11279442 -0.01207380 0.00043243
v 0.10520652 -0.00179324 0.00079183
v 0.11926778 -0.02206080 0.00108758
v 0.11498753 -0.00454933 0.00396647
v 0.12132017 -0.01780386 0.00107151
v 0.11659173 -0.00714848 0.00228584
v 0.10027205 -0.00855955 0.00050371
v 0.11887144 -0.01807432 0.00077013
v 0.11429346 -0.01016892 0.00055441
v 0.10202485 -0.00560639 0.00021571
v 0.12461980 -0.01677730 0.00866007
v 0.11967407 -0.02452374 0.00142607
v 0.12421489 -0.02344536 0.00128313
v 0.11123330 -0.00809965 0.00032396
v 0.10452700 -0.00166385 0.00076625
v 0.11315183 -0.00450834 0.00209615
v 0.11566131 -0.00509484 0.00332233
v 0.10327023 -0.00063353 0.00114358
v 0.12065953 -0.02427151 0.00130790
v 0.11613892 -0.01892401 0.00087776
v 0.11327754 -0.00433869 0.00241159
v 0.12253051 -0.02214130 0.00107978
v 0.11410248 -0.00394901 0.00506368
v 0.11493141 -0.01253237 0.00049474
v 0.11417285 -0.00400642 0.00862337
v 0.11073527 -0.00744546 0.00030638
v 0.12490021 -0.01781984 0.01006677
v 0.11801886 -0.02403184 0.00153808
v 0.12472861 -0.01701939 0.00901215
v 0.11589886 -0.00704756 0.00190095
v 0.11993955 -0.02441801 0.00138184
v 0.12300952 -0.02145860 0.00108485
v 0.11459591 -0.00687200 0.00137482
v 0.11446582 -0.01169812 0.00046464
v 0.12498780 -0.01922034 0.00225514
v 0.11650282 -0.00741388 0.00206752
v 0.11604865 -0.00697383 0.00199821
v 0.11492563 -0.00434947 0.00792493
v 0.11421126 -0.00584033 0.00162724
v 0.11709859 -0.02034864 0.00098445
v 0.12388570 -0.02331526 0.00125160
v 0.11470689 -0.01057366 0.02495819
v 0.11138811 -0.00898917 0.00032793
v 0.10548775 -0.00078113 0.00153144
v 0.12275073 -0.01991764 0.00111109
v 0.11819931 -0.01521664 0.00073991
v 0.11613890 -0.00529291 0.00968094
v 0.10512575 -0.00173345 0.00080704
v 0.11587954 -0.02497680 0.00341127
v 0.11521446 -0.00451034 0.00810194
v 0.12241066 -0.02496281 0.00135464
v 0.11139877 -0.00761145 0.00035720
v 0.11913234 -0.02337587 0.00126929
v 0.10413456 -0.00609292 0.00021630
v 0.10035923 -0.01316773 0.00214025
v 0.12321620 -0.01957865 0.00128450
v 0.11224088 -0.00713224 0.00055221
v 0.10385681 -0.00159804 0.00074342
v 0.11863297 -0.02181916 0.00108443
v 0.11427360 -0.00401946 0.00803532
v 0.12321692 -0.02111749 0.00110981
v 0.11471517 -0.02490094 0.00559100
v 0.11845024 -0.02318337 0.00128690
v 0.10544665 -0.00113653 0.00122789
v 0.10038072 -0.00013083 0.00116197
v 0.10577805 -0.00123514 0.00126442
v 0.11444520 -0.00406894 0.00676538
v 0.11494134 -0.00483309 0.00306146
v 0.10466473 -0.00341831 0.00031071
v 0.11480221 -0.00625282 0.00170240
v 0.12172688 -0.02035908 0.00097310
v 0.10404059 -0.00100449 0.00101754
v 0.12313173 -0.02177978 0.00110119
v 0.12380957 -0.02225776 0.00119149
v 0.11678446 -0.01721316 0.00071667
v 0.10521500 -0.00196042 0.00072009
v 0.11201830 -0.00879582 0.00035827
v 0.11862050 -0.02341528 0.00131231
v 0.11486092 -0.00438969 0.00451244
v 0.11624457 -0.00541909 0.00376729
v 0.11519520 -0.00516160 0.00275513
v 0.12476982 -0.01711633 0.00913718
v 0.12429547 -0.02201450 0.00127173
v 0.12254040 -0.02029270 0.00105004
v 0.10120422 -0.00437707 0.00021955
v 0.11222202 -0.00695223 0.00057894
v 0.10567634 -0.00045196 0.00201127
v 0.12326954 -0.01889256 0.00146737
v 0.11554019 -0.00464368 0.00722668
v 0.12452696 -0.02152809 0.00135788
v 0.11606213 -0.01722822 0.00073492
v 0.11582290 -0.00485919 0.00474187
v 0.12259751 -0.01826125 0.00138071
v 0.11639959 -0.00660377 0.00247602
v 0.11472033 -0.00718157 0.00133259
v 0.10478288 -0.01850187 0.02494336
v 0.12379303 -0.02166192 0.00119171
v 0.12466880 -0.01660812 0.00650641
v 0.11916384 -0.01648559 0.00079168
v 0.11804097 -0.02410090 0.00155731
v 0.11690718 -0.02441423 0.00208399
v 0.10193040 -0.00019343 0.02402819
v 0.11845832 -0.01723047 0.00073262
v 0.10586848 -0.00007472 0.00291839
v 0.11286192 -0.00711996 0.00071005
v 0.11558622 -0.00529958 0.00289501
v 0.11501566 -0.01061796 0.00064935
v 0.11366287 -0.00548259 0.00157218
v 0.11509927 -0.00442278 0.00571100
v 0.10206144 -0.00304569 0.00032276
v 0.11917491 -0.01700600 0.00076395
v 0.11977503 -0.02258500 0.00113042
v 0.11529527 -0.00464766 0.00425998
v 0.10541981 -0.00503663 0.00021610
v 0.11957746 -0.01911465 0.00082964
v 0.11338801 -0.00648934 0.00103860
v 0.10028576 -0.01264957 0.00173005
v 0.11605882 -0.00495837 0.00508951
v 0.11258752 -0.00636990 0.00081822
v 0.12491958 -0.02459547 0.00141481
v 0.10615957 -0.00018656 0.01014413
v 0.10496997 -0.00613987 0.00021270
v 0.11713560 -0.01445707 0.00064215
v 0.10538876 -0.00539204 0.00021304
v 0.11274651 -0.00953206 0.00038885
v 0.10639566 -0.00007535 0.00466940
v 0.11758891 -0.01630781 0.00067513
v 0.11670767 -0.02135040 0.00113729
v 0.11508540 -0.00458477 0.00403746
v 0.11419813 -0.00400302 0.00499500
v 0.12189057 -0.01828454 0.00114112
v 0.11368373 -0.00784947 0.00078660
v 0.10038318 -0.00767234 0.00038648
v 0.11717090 -0.01652517 0.00066113
v 0.12253615 -0.02141031 0.00104757
v 0.11446197 -0.02477977 0.00620885
v 0.12316391 -0.02265480 0.00115679
v 0.10438351 -0.00202518 0.00062706
v 0.12493471 -0.02307139 0.00136924
v 0.10573090 -0.00017243 0.00249879
v 0.12046251 -0.01840977 0.00086104
v 0.11539050 -0.00468154 0.00437118
v 0.12097431 -0.02455390 0.00133741
v 0.12296918 -0.02324538 0.00118573
v 0.12274795 -0.01886160 0.00128480
v 0.12236694 -0.02024336 0.00102883
v 0.10347192 -0.00188529 0.00062606
v 0.11445985 -0.00802593 0.00100758
v 0.11568700 -0.00485312 0.00912711
v 0.12499952 -0.02473239 0.01195181
v 0.12459735 -0.01662434 0.00802256
v 0.10287416 -0.00062293 0.02483139
v 0.11742465 -0.01692512 0.00068057
v 0.11630004 -0.00566287 0.00343536
v 0.12207436 -0.02125327 0.00101549
v 0.11506321 -0.02484405 0.00443983
v 0.11507418 -0.01149579 0.00055576
v 0.12406268 -0.02324679 0.00125888
v 0.11907694 -0.02153971 0.00104592
v 0.11855388 -0.02232478 0.00115674
v 0.11478768 -0.01146434 0.00051663
v 0.11629754 -0.00523243 0.00462329
v 0.10560282 -0.00416228 0.00025970
v 0.12031601 -0.01804666 0.00085037
v 0.12113003 -0.01859202 0.00093508
v 0.11121045 -0.00709469 0.00036809
v 0.11977187 -0.02495113 0.00149932
v 0.12008563 -0.02155598 0.00103112
v 0.12500000 -0.02021600 0.01153107
v 0.12489998 -0.01769127 0.00990531
v 0.10427566 -0.00009242 0.00163316
v 0.10085228 -0.00228510 0.00043543
v 0.10569498 -0.00299763 0.00044335
v 0.11212799 -0.00673747 0.00059487
v 0.11192297 -0.00872691 0.00035383
v 0.11116296 -0.00746293 0.00034286
v 0.11639164 -0.02499092 0.00293747
v 0.12230118 -0.02393319 0.00124288
v 0.10238366 -0.01635093 0.02490876
v 0.10549683 -0.00466763 0.00022493
v 0.10035656 -0.01143019 0.00112708
v 0.10001870 -0.00233160 0.02196259
v 0.11425855 -0.00818756 0.00089978
v 0.11742891 -0.01778141 0.00075134
v 0.11645212 -0.01386811 0.00058748
v 0.11950802 -0.01986843 0.02499475
v 0.11757567 -0.01670898 0.00068003
v 0.11388020 -0.02480806 0.02494234
v 0.10251527 -0.00592349 0.00022390
v 0.12185330 -0.02256839 0.00109986
v 0.12498991 -0.02043311 0.01161085
v 0.11444393 -0.00407535 0.00617940
v 0.12342623 -0.02172959 0.00113748
v 0.11414000 -0.00395186 0.00805693
v 0.11167101 -0.00725174 0.00042570
v 0.11627948 -0.00514973 0.00500829
v 0.10004656 -0.01442366 0.02411143
v 0.12259473 -0.01972536 0.00109873
v 0.11407546 -0.01705216 0.00077159
v 0.11030333 -0.00804512 0.00030040
v 0.10019239 -0.00007780 0.00117418
v 0.11568013 -0.00527744 0.00300572
v 0.11793376 -0.01477172 0.00073318
v 0.11409634 -0.01890835 0.00097882
v 0.10002296 -0.01413681 0.00437545
v 0.11279497 -0.00832357 0.00049798
v 0.12160161 -0.01758688 0.00119540
v 0.10045626 -0.00123569 0.00068860
v 0.12370788 -0.02284770 0.00120686
v 0.10535033 -0.00340754 0.00034700
v 0.11514247 -0.01435413 0.00054952
v 0.12400215 -0.01925386 0.00167168
v 0.10000409 -0.00695063 0.00032520
v 0.12462051 -0.01657687 0.00734040
v 0.11607921 -0.00505346 0.00908762
v 0.11713378 -0.02201233 0.00120585
v 0.11870093 -0.02169691 0.00106552
v 0.10907094 -0.02160431 0.02486329
v 0.11643532 -0.00529144 0.00715031
v 0.10217884 -0.00398503 0.00023857
v 0.11773203 -0.01747540 0.00071895
v 0.11462858 -0.00423878 0.00479235
v 0.11737222 -0.01991235 0.00093560
v 0.11964138 -0.02031012 0.00093117
v 0.11919988 -0.02416246 0.00140131
v 0.11630033 -0.00575843 0.00328269
v 0.10378131 -0.00280299 0.00039618
v 0.12499803 -0.01731967 0.00443472
v 0.11444610 -0.00615331 0.00158935
v 0.12499138 -0.02011772 0.00186581
v 0.11534106 -0.01791864 0.00080890
v 0.11472628 -0.02487110 0.02476389
v 0.12031345 -0.02247277 0.00111042
v 0.11414355 -0.01117129 0.00044915
v 0.11878392 -0.02291668 0.00122505
v 0.11407685 -0.00523780 0.00195332
v 0.10479043 -0.00103313 0.00112417
v 0.11352076 -0.01055567 0.00041702
v 0.11820524 -0.02386488 0.00146260
v 0.11641283 -0.01314186 0.00063032
v 0.11960019 -0.02441412 0.00141193
v 0.11561895 -0.00468244 0.00709753
v 0.10419238 -0.00111026 0.00098550
v 0.10370654 -0.00012558 0.00147895
v 0.11798017 -0.02481587 0.00186429
v 0.10106684 -0.00053009 0.00102176
v 0.11698785 -0.02371163 0.00167677
v 0.11135180 -0.00602340 0.02460123
v 0.10579071 -0.00347073 0.00036723
v 0.11598149 -0.00490225 0.00533669
v 0.11636188 -0.00545771 0.00923553
v 0.10078185 -0.00568502 0.00022979
v 0.11306608 -0.00996533 0.00040020
v 0.11311124 -0.00993888 0.00040453
v 0.11966164 -0.02419810 0.00136526
v 0.11465044 -0.01033601 0.00060566
v 0.11152683 -0.00718024 0.00041007
v 0.10002701 -0.00577621 0.00024481
v 0.11942141 -0.02476582 0.02499716
v 0.12097498 -0.02035124 0.00092017
v 0.11268724 -0.00743914 0.00060460
v 0.12490825 -0.02325225 0.00136387
v 0.11534246 -0.00454528 0.00592176
v 0.11943297 -0.02402832 0.00135375
v 0.12033760 -0.01721900 0.00091983
v 0.11462332 -0.00440394 0.00376858
v 0.11820783 -0.02498993 0.02482691
v 0.11639355 -0.00555140 0.00399961
v 0.11291914 -0.00815291 0.00054210
v 0.11148495 -0.00751728 0.00037227
v 0.12222534 -0.02089848 0.00101638
v 0.12484708 -0.02021952 0.00175105
v 0.10130801 -0.00000418 0.01202503
v 0.10354787 -0.00186854 0.00063526
v 0.11347120 -0.00421002 0.00273105
v 0.10374609 -0.00040133 0.00131461
v 0.11824432 -0.02390280 0.00146623
v 0.11269984 -0.00960684 0.00038463
v 0.12217202 -0.02261350 0.00110621
v 0.11338692 -0.00489010 0.00184472
v 0.12084052 -0.02246019 0.00110257
v 0.10594346 -0.00003531 0.00319032
v 0.11188202 -0.00976981 0.00035101
v 0.12484690 -0.01724829 0.00413232
f 250 302 332
f 381 264 373
f 373 302 381
f 110 300 283
f 283 300 23
f 373 264 23
f 23 300 373
f 71 332 302
f 71 302 373
f 373 300 71
f 4 250 71
f 250 332 71
f 156 71 300
f 4 65 311
f 305 264 283
f 283 23 305
f 305 23 264
f 74 372 315
f 109 302 250
f 109 81 302
f 346 381 302
f 302 81 346
f 346 81 381
f 264 381 165
f 165 234 264
f 88 329 362
f 362 33 88
f 67 33 156
f 210 293 65
f 71 293 210
f 210 65 4
f 4 71 210
f 311 93 296
f 296 93 315
f 315 372 296
f 372 327 296
f 322 74 315
f 38 18 387
f 387 315 38
f 38 311 65
f 38 93 311
f 396 315 387
f 387 18 396
f 18 38 396
f 396 38 240
f 4 327 2
f 381 81 291
f 291 165 381
f 4 311 61
f 311 296 61
f 61 327 4
f 61 296 327
f 104 11 25
f 60 25 11
f 358 39 351
f 25 60 351
f 360 322 315
f 201 254 389
f 264 234 344
f 266 38 65
f 65 293 266
f 266 293 71
f 266 33 362
f 362 329 266
f 71 156 266
f 156 33 266
f 315 93 94
f 94 38 315
f 93 38 94
f 285 254 201
f 285 358 315
f 315 396 285
f 285 39 358
f 193 396 240
f 4 2 319
f 319 2 231
f 231 169 319
f 295 359 231
f 231 2 295
f 253 344 234
f 372 74 96
f 281 291 359
f 165 291 281
f 163 291 81
f 163 169 291
f 163 319 169
f 231 359 215
f 359 291 215
f 215 169 231
f 291 169 215
f 161 88 33
f 33 196 161
f 329 88 161
f 33 67 284
f 284 196 33
f 284 67 156
f 104 25 222
f 222 25 394
f 358 351 390
f 390 351 186
f 186 132 390
f 315 358 390
f 390 132 315
f 186 351 357
f 357 351 60
f 357 129 186
f 60 129 357
f 30 351 39
f 25 351 30
f 179 360 315
f 186 360 179
f 315 132 179
f 179 132 186
f 308 181 240
f 240 38 235
f 235 308 240
f 254 285 218
f 218 285 396
f 131 254 218
f 111 267 327
f 234 258 155
f 104 62 233
f 359 295 361
f 81 109 176
f 176 163 81
f 176 109 250
f 176 250 4
f 4 319 176
f 329 161 365
f 365 161 196
f 300 110 141
f 141 156 300
f 141 284 156
f 141 110 283
f 283 284 141
f 196 284 342
f 342 212 196
f 342 149 46
f 342 284 283
f 342 194 382
f 344 149 342
f 283 264 342
f 264 344 342
f 322 360 85
f 116 60 11
f 287 11 104
f 280 363 287
f 394 25 180
f 350 222 394
f 131 194 316
f 46 149 75
f 222 350 153
f 104 222 153
f 104 153 57
f 76 356 364
f 329 356 36
f 181 308 42
f 336 193 240
f 38 266 216
f 216 235 38
f 266 235 216
f 396 193 227
f 380 218 396
f 396 118 380
f 165 281 257
f 344 253 15
f 253 204 15
f 15 204 68
f 327 7 313
f 205 7 327
f 7 205 189
f 327 267 189
f 189 205 327
f 234 165 56
f 56 258 234
f 165 258 56
f 251 258 136
f 251 155 258
f 286 98 341
f 74 322 286
f 322 98 286
f 228 294 140
f 294 228 199
f 1 228 69
f 96 228 1
f 74 183 103
f 224 183 74
f 74 286 224
f 41 295 2
f 41 142 295
f 214 361 295
f 295 142 214
f 359 361 214
f 214 281 359
f 214 142 281
f 163 176 270
f 63 356 329
f 364 356 63
f 212 342 14
f 14 63 212
f 310 63 14
f 58 342 46
f 276 342 382
f 382 194 276
f 310 14 276
f 276 14 342
f 186 129 55
f 55 360 186
f 55 85 360
f 60 116 162
f 324 287 363
f 324 103 183
f 341 287 78
f 183 224 78
f 78 324 183
f 287 324 78
f 78 286 341
f 78 224 286
f 190 162 116
f 190 116 11
f 11 287 190
f 190 129 60
f 60 162 190
f 25 30 178
f 178 180 25
f 178 30 39
f 39 285 178
f 285 180 178
f 158 285 201
f 158 180 285
f 201 130 158
f 394 180 158
f 158 130 394
f 73 350 394
f 73 153 350
f 87 3 73
f 389 316 195
f 87 73 195
f 195 73 130
f 182 316 389
f 182 389 254
f 131 316 182
f 182 254 131
f 28 57 147
f 89 149 344
f 89 3 149
f 120 75 149
f 149 3 120
f 364 49 223
f 308 235 139
f 139 235 266
f 206 336 49
f 193 336 206
f 240 49 137
f 49 336 137
f 243 118 396
f 396 227 243
f 131 218 16
f 218 380 16
f 16 380 118
f 118 243 16
f 16 243 227
f 227 206 16
f 16 206 276
f 16 194 131
f 16 276 194
f 126 281 339
f 121 2 327
f 197 204 253
f 197 175 204
f 198 175 260
f 68 204 159
f 83 15 68
f 69 140 314
f 327 313 105
f 345 313 7
f 352 348 148
f 352 239 368
f 368 348 352
f 165 257 8
f 8 257 133
f 252 287 341
f 129 190 252
f 252 190 287
f 341 98 82
f 82 252 341
f 352 128 392
f 392 128 289
f 140 239 191
f 191 128 140
f 289 128 191
f 191 392 289
f 290 239 140
f 290 166 239
f 290 140 280
f 280 166 290
f 238 140 69
f 69 228 238
f 238 228 140
f 334 199 74
f 294 199 334
f 37 228 96
f 37 96 74
f 372 96 366
f 96 1 366
f 74 103 277
f 277 334 74
f 294 334 277
f 103 324 277
f 277 324 363
f 277 363 280
f 280 140 277
f 140 294 277
f 281 142 86
f 2 353 86
f 86 41 2
f 142 41 86
f 319 163 20
f 20 270 319
f 163 270 20
f 45 176 319
f 319 270 45
f 45 270 176
f 196 212 328
f 328 265 196
f 125 265 365
f 194 342 398
f 342 58 398
f 394 130 70
f 70 73 394
f 130 73 70
f 389 195 135
f 135 195 130
f 201 389 135
f 135 130 201
f 220 316 87
f 87 195 220
f 220 195 316
f 340 58 46
f 46 19 340
f 230 28 62
f 57 28 230
f 230 62 104
f 104 57 230
f 209 28 147
f 77 28 209
f 77 202 207
f 150 89 344
f 3 89 150
f 150 151 3
f 92 209 147
f 326 209 92
f 3 151 184
f 153 73 184
f 184 73 3
f 46 75 208
f 75 120 208
f 208 19 46
f 87 316 208
f 208 3 87
f 208 120 3
f 316 340 208
f 208 340 19
f 181 76 306
f 36 164 50
f 152 50 164
f 36 139 99
f 329 36 99
f 99 139 266
f 232 49 364
f 232 206 49
f 364 63 232
f 232 63 310
f 310 276 232
f 276 206 232
f 256 227 193
f 193 206 256
f 256 206 227
f 244 336 240
f 240 137 244
f 244 137 336
f 281 126 10
f 10 257 281
f 247 121 327
f 318 242 121
f 121 247 318
f 376 253 234
f 175 197 211
f 211 307 175
f 211 197 253
f 253 376 211
f 204 175 43
f 43 159 204
f 175 198 43
f 344 15 386
f 15 83 386
f 386 150 344
f 101 209 326
f 326 386 101
f 101 386 83
f 68 202 101
f 101 83 68
f 101 202 77
f 77 209 101
f 91 236 115
f 115 111 327
f 115 327 372
f 372 366 115
f 325 90 111
f 111 115 325
f 325 115 90
f 225 301 241
f 241 301 138
f 138 301 248
f 248 301 267
f 267 111 248
f 111 90 248
f 374 229 267
f 225 255 374
f 136 393 374
f 44 229 374
f 338 44 282
f 338 229 44
f 64 90 352
f 352 148 64
f 64 148 138
f 138 248 64
f 64 248 90
f 271 80 354
f 317 80 9
f 9 379 317
f 317 354 80
f 246 6 62
f 246 245 6
f 288 233 62
f 288 371 280
f 104 233 288
f 288 287 104
f 280 287 288
f 165 8 292
f 292 393 258
f 292 258 165
f 44 374 304
f 304 374 393
f 393 292 304
f 322 85 172
f 129 252 172
f 172 55 129
f 85 55 172
f 252 82 261
f 261 98 322
f 261 82 98
f 367 239 352
f 352 392 367
f 367 191 239
f 392 191 367
f 47 199 228
f 228 37 47
f 74 199 47
f 47 37 74
f 113 32 69
f 236 32 113
f 17 32 236
f 17 1 69
f 69 32 17
f 124 366 1
f 1 17 124
f 391 353 281
f 281 86 391
f 391 86 353
f 212 63 333
f 333 328 212
f 143 365 196
f 143 125 365
f 196 265 143
f 265 125 143
f 268 316 194
f 268 340 316
f 58 340 268
f 194 398 268
f 268 398 58
f 51 202 68
f 51 207 202
f 262 28 77
f 77 207 262
f 297 246 262
f 62 28 262
f 262 246 62
f 326 92 144
f 144 386 326
f 144 92 147
f 151 150 144
f 150 386 144
f 147 184 144
f 144 184 151
f 147 57 343
f 343 184 147
f 343 57 153
f 153 184 343
f 377 306 76
f 377 76 364
f 364 223 377
f 181 306 102
f 240 181 102
f 102 49 240
f 102 223 49
f 102 377 223
f 306 377 102
f 42 152 203
f 203 152 164
f 203 36 356
f 203 164 36
f 174 42 308
f 174 152 42
f 50 152 174
f 263 266 329
f 329 99 263
f 263 99 266
f 355 126 339
f 226 8 133
f 112 345 134
f 112 105 313
f 313 345 112
f 327 105 112
f 112 247 327
f 337 331 134
f 12 298 335
f 267 229 335
f 335 298 189
f 335 189 267
f 134 331 154
f 154 112 134
f 247 112 154
f 155 251 323
f 323 251 136
f 136 187 323
f 24 187 307
f 97 255 260
f 175 307 146
f 307 187 146
f 260 175 146
f 146 97 260
f 279 379 312
f 213 317 279
f 279 317 379
f 312 159 279
f 279 43 198
f 159 43 279
f 157 397 236
f 236 113 157
f 157 128 352
f 140 128 157
f 352 90 157
f 157 90 397
f 397 90 21
f 90 115 21
f 236 397 21
f 21 115 236
f 91 115 54
f 54 115 366
f 217 301 225
f 225 374 217
f 249 187 136
f 249 146 187
f 97 146 249
f 384 368 239
f 384 166 280
f 239 166 384
f 348 368 52
f 368 384 52
f 52 384 280
f 160 317 213
f 354 317 160
f 68 159 170
f 170 159 312
f 62 6 219
f 219 288 62
f 6 288 219
f 280 371 309
f 395 347 282
f 395 304 347
f 347 304 53
f 48 292 8
f 48 304 292
f 48 53 304
f 347 53 48
f 8 226 48
f 48 226 347
f 388 172 252
f 252 261 388
f 322 172 388
f 388 261 322
f 265 328 31
f 328 333 31
f 365 265 31
f 329 365 31
f 31 63 329
f 31 333 63
f 66 369 378
f 145 369 66
f 66 10 145
f 133 257 66
f 257 10 66
f 100 226 133
f 331 226 100
f 347 226 117
f 117 226 331
f 282 347 117
f 117 331 273
f 117 338 282
f 273 338 117
f 29 337 12
f 12 335 29
f 22 106 242
f 154 106 22
f 95 154 318
f 95 318 247
f 247 154 95
f 79 323 187
f 185 374 255
f 255 97 185
f 59 198 260
f 59 279 198
f 69 314 108
f 108 113 69
f 108 157 113
f 168 236 91
f 168 17 236
f 168 124 17
f 301 217 122
f 122 217 374
f 267 301 122
f 122 374 267
f 136 374 269
f 269 249 136
f 374 249 269
f 385 249 374
f 97 249 385
f 271 354 275
f 275 52 271
f 207 51 259
f 259 51 68
f 68 170 259
f 297 262 259
f 259 262 207
f 259 246 297
f 259 170 245
f 375 288 6
f 6 383 375
f 309 383 320
f 280 309 320
f 370 383 6
f 6 221 370
f 370 221 379
f 9 5 370
f 370 379 9
f 312 379 114
f 114 170 312
f 245 170 114
f 167 177 84
f 66 177 167
f 84 100 167
f 192 353 2
f 339 281 192
f 281 353 192
f 378 355 192
f 192 355 339
f 192 66 378
f 192 177 66
f 242 177 330
f 2 121 330
f 121 242 330
f 330 192 2
f 177 192 330
f 242 274 349
f 349 177 242
f 84 177 349
f 331 337 27
f 337 29 27
f 273 331 27
f 27 338 273
f 331 100 173
f 100 274 173
f 173 154 331
f 173 106 154
f 173 274 242
f 242 106 173
f 318 154 26
f 154 22 26
f 234 155 127
f 127 79 234
f 155 323 272
f 323 79 272
f 72 79 187
f 72 376 234
f 234 79 72
f 72 211 376
f 279 59 278
f 260 255 278
f 278 59 260
f 278 255 225
f 213 279 278
f 278 160 213
f 278 34 160
f 303 54 366
f 91 54 303
f 303 168 91
f 52 275 237
f 354 160 237
f 237 275 354
f 160 34 237
f 34 278 237
f 245 246 321
f 321 259 245
f 246 259 321
f 171 375 383
f 171 383 309
f 371 288 171
f 171 309 371
f 35 221 6
f 35 13 221
f 123 320 383
f 383 370 123
f 271 52 123
f 123 5 271
f 123 370 5
f 123 52 280
f 280 320 123
f 221 13 119
f 379 221 119
f 119 114 379
f 245 114 119
f 13 35 119
f 6 245 119
f 119 35 6
f 40 100 133
f 40 167 100
f 133 66 40
f 66 167 40
f 107 274 100
f 107 349 274
f 107 100 84
f 84 349 107
f 187 24 188
f 188 72 187
f 188 24 307
f 307 211 188
f 211 72 188
f 348 52 299
f 52 237 299
f 299 148 348
f 299 278 225
f 299 237 278
f 138 148 299
f 225 241 299
f 299 241 138
f 288 375 200
f 200 171 288
f 375 171 200
f 271 5 80
f 80 5 9
f 136 258 393
f 356 76 203
f 203 76 181
f 181 42 203
f 174 139 36
f 308 139 174
f 36 50 174
f 145 10 369
f 126 355 369
f 369 10 126
f 369 355 378
f 7 189 337
f 134 345 337
f 337 345 7
f 189 298 337
f 337 298 12
f 44 304 395
f 282 44 395
f 140 157 108
f 108 314 140
f 385 185 97
f 374 185 385
f 27 335 229
f 229 338 27
f 27 29 335
f 26 22 242
f 242 318 26
f 79 127 272
f 272 127 155
f 124 168 303
f 366 124 303

