# https://github.com/mikedh/trimesh
v 0.01706794 0.00093161 0.03438838
v 0.01388760 0.00504574 0.02751758
v 0.01907136 0.00288410 0.03529506
v 0.01410972 0.00348949 0.03017427
v 0.00963834 0.00261811 0.02532647
v 0.01621899 0.00245850 0.03315142
v 0.01469238 0.00345852 0.03087801
v 0.02171607 0.00719749 0.03171052
v 0.02153360 0.00581289 0.03438011
v 0.02024027 0.00684475 0.03103558
v 0.02036399 0.00612143 0.03287691
v 0.02275612 0.00437365 0.03558720
v 0.02478012 0.00865081 0.02980633
v 0.02000976 0.00123347 0.03607974
v 0.01673906 0.00660518 0.02721556
v 0.01878353 0.00264702 0.03520026
v 0.01005001 0.00135080 0.02660113
v 0.01871743 0.00226152 0.03532046
v 0.01183418 0.00064310 0.02895647
v 0.01514591 0.00316167 0.03161170
v 0.01947602 0.00501935 0.03380978
v 0.01217836 0.00168487 0.02913095
v 0.02077793 0.00029867 0.03616676
v 0.01584685 0.00383434 0.03176390
v 0.01551329 0.00059517 0.03302471
v 0.02255131 0.00359936 0.03572056
v 0.01364620 0.00285985 0.03020148
v 0.02068249 0.00681747 0.03162119
v 0.02090490 0.00039197 0.03615329
v 0.01909914 0.00426426 0.03432828
v 0.02331877 0.00689303 0.03395721
v 0.00981510 0.00135843 0.02630095
v 0.00978273 0.00156720 0.02617816
v 0.01350472 0.00073205 0.03094185
v 0.01738547 0.00478806 0.03217461
v 0.01652716 0.00554641 0.02986092
v 0.01909371 0.00395166 0.03460660
v 0.01626001 0.00596597 0.02848374
v 0.01364359 0.00292124 0.03014604
v 0.02031618 0.00619653 0.03268923
v 0.02394958 0.00617419 0.03493076
v 0.01738553 0.00180842 0.03444874
v 0.01689293 0.00230716 0.03382583
v 0.01590402 0.00373057 0.03192065
v 0.01187701 0.00414753 0.02649540
v 0.01089569 0.00424565 0.02503786
v 0.01774123 0.00513405 0.03201870
v 0.02428224 0.00821021 0.03119814
v 0.01361535 0.00586346 0.02517643
v 0.01111933 0.00249093 0.02734385
v 0.01743065 0.00445538 0.03265265
v 0.02467685 0.00455492 0.03515945
v 0.02176317 0.00563211 0.03475953
v 0.02327055 0.00168527 0.03556696
v 0.01797684 0.00001270 0.03519906
v 0.02353690 0.00706715 0.03377026
v 0.01692900 0.00192253 0.03401266
v 0.01459746 0.00323254 0.03097608
v 0.02038971 0.00566401 0.03368457
v 0.01622929 0.00341636 0.03252328
v 0.00966873 0.00060326 0.02634488
v 0.01704598 0.00522950 0.03111054
v 0.02441130 0.00765763 0.03309987
v 0.02064405 0.00503344 0.03470432
v 0.01748858 0.00648158 0.02861749
v 0.00973039 0.00099522 0.02630447
v 0.02393378 0.00222947 0.03538012
v 0.02136783 0.00297935 0.03593632
v 0.01889068 0.00626434 0.03100831
v 0.01798367 0.00574419 0.03113278
v 0.01822417 0.00590947 0.03105310
v 0.02084138 0.00855643 0.02504130
v 0.02207829 0.00563940 0.03490878
v 0.02278621 0.00909882 0.02504909
v 0.02010250 0.00798721 0.02661204
v 0.01678018 0.00039939 0.03419902
v 0.01955236 0.00550099 0.03320121
v 0.01919565 0.00503602 0.03354362
v 0.02004689 0.00155178 0.03605681
v 0.01323119 0.00339375 0.02919634
v 0.01788679 0.00662541 0.02872225
v 0.01719095 0.00541125 0.03094207
v 0.01159264 0.00147939 0.02849095
v 0.01812315 0.00542827 0.03193005
v 0.02141811 0.00319086 0.03590574
v 0.01301580 0.00180387 0.03007464
v 0.02039051 0.00584371 0.03339573
v 0.01291631 0.00419685 0.02778944
v 0.01137508 0.00447454 0.02527051
v 0.01597801 0.00495291 0.03037247
v 0.02407841 0.00714588 0.03398815
v 0.01825163 0.00460434 0.03324638
v 0.01657714 0.00501861 0.03095061
v 0.01725675 0.00470820 0.03215846
v 0.01138005 0.00157185 0.02820208
v 0.02350420 0.00016853 0.03550493
v 0.02145645 0.00742460 0.03071465
v 0.01515142 0.00268579 0.03195177
v 0.02112850 0.00554165 0.03446750
v 0.02153238 0.00066073 0.03604165
v 0.01836361 0.00252388 0.03494483
v 0.01613060 0.00690240 0.02529680
v 0.00919432 0.00123478 0.02555163
v 0.01852190 0.00328420 0.03465638
v 0.01937368 0.00383542 0.03491596
v 0.01629803 0.00350799 0.03251894
v 0.02406219 0.00269373 0.03534218
v 0.01864769 0.00639006 0.03039852
v 0.02118708 0.00718845 0.03113867
v 0.02120433 0.00153573 0.03607981
v 0.01923345 0.00317000 0.03525267
v 0.02057307 0.00263149 0.03596107
v 0.01881822 0.00623215 0.03100141
v 0.02137611 0.00448676 0.03549189
v 0.02121505 0.00459980 0.03537882
v 0.01047066 0.00305930 0.02600640
v 0.01239777 0.00142985 0.02947539
v 0.01612147 0.00283825 0.03283953
v 0.01188908 0.00247372 0.02834816
v 0.01441654 0.00316541 0.03082817
v 0.02497546 0.00853325 0.03055564
v 0.01631471 0.00617655 0.02794517
v 0.01573006 0.00093948 0.03319025
v 0.02034117 0.00487733 0.03466737
v 0.02338233 0.00325941 0.03552761
v 0.01390677 0.00050043 0.03138730
v 0.01639850 0.00501043 0.03075939
v 0.01931363 0.00543823 0.03307697
v 0.01420796 0.00270192 0.03093169
v 0.02047784 0.00213813 0.03603073
v 0.02308892 0.00913340 0.02533787
v 0.01361294 0.00361805 0.02944580
v 0.01832925 0.00321953 0.03454373
v 0.02038362 0.00445688 0.03509691
v 0.02477788 0.00959285 0.02504803
v 0.01966921 0.00356536 0.03529808
v 0.02270182 0.00314457 0.03571456
v 0.02369865 0.00767106 0.03238171
v 0.02231365 0.00428348 0.03564224
v 0.02091000 0.00660490 0.03236532
v 0.02473143 0.00765204 0.03335842
v 0.01955786 0.00100995 0.03599408
v 0.02153037 0.00148858 0.03602432
v 0.01704475 0.00088455 0.03437925
v 0.01883330 0.00575398 0.03204865
v 0.01792210 0.00490616 0.03254095
v 0.01052498 0.00253951 0.02653736
v 0.01592260 0.00471526 0.03070121
v 0.01348175 0.00066985 0.03093166
v 0.02433150 0.00022412 0.03527433
v 0.01518073 0.00513782 0.02901209
v 0.01702248 0.00456912 0.03210778
v 0.01305464 0.00129572 0.03028252
v 0.00984781 0.00054475 0.02657933
v 0.01445976 0.00410886 0.02986125
v 0.02167697 0.00568988 0.03463998
v 0.02065876 0.00255751 0.03598415
v 0.01967564 0.00782823 0.02668778
v 0.02155883 0.00715640 0.03166677
v 0.01838034 0.00551345 0.03204956
v 0.01688143 0.00464366 0.03186968
v 0.01917275 0.00680600 0.02986127
v 0.01225052 0.00467396 0.02607981
v 0.01580269 0.00446406 0.03094015
v 0.01593640 0.00243110 0.03289940
v 0.01664436 0.00500727 0.03104635
v 0.01220055 0.00285677 0.02841806
v 0.02190669 0.00684178 0.03281468
v 0.01939768 0.00636539 0.03131538
v 0.02421076 0.00521450 0.03523496
v 0.02301644 0.00786682 0.03098192
v 0.01412808 0.00002891 0.03165806
v 0.01418110 0.00446656 0.02896363
v 0.02288384 0.00128438 0.03567591
v 0.02377132 0.00715518 0.03376931
v 0.01105030 0.00206595 0.02754409
v 0.01917803 0.00288903 0.03536062
v 0.02254794 0.00645414 0.03414881
v 0.01793826 0.00472749 0.03280558
v 0.02054928 0.00216720 0.03603467
v 0.01553610 0.00022658 0.03308018
v 0.02423354 0.00476579 0.03526720
v 0.02496089 0.00105096 0.03509779
v 0.01924260 0.00786195 0.02593803
v 0.02118538 0.00411218 0.03562003
v 0.02365340 0.00155422 0.03546084
v 0.02165546 0.00504560 0.03523638
v 0.02265596 0.00000423 0.03574143
v 0.01666531 0.00495678 0.03115370
v 0.01339325 0.00401263 0.02867449
v 0.02112679 0.00672312 0.03231540
v 0.01004243 0.00236069 0.02604425
v 0.01711677 0.00336574 0.03341608
v 0.01924034 0.00293700 0.03537468
v 0.00989196 0.00327097 0.02504081
v 0.01618489 0.00165648 0.03344378
v 0.01712289 0.00722451 0.02555399
v 0.01559470 0.00168885 0.03288013
v 0.01325716 0.00470957 0.02735515
v 0.01471138 0.00268364 0.03150335
v 0.02383376 0.00399749 0.03539593
v 0.01039859 0.00361599 0.02530378
v 0.02049420 0.00337519 0.03574143
v 0.02290769 0.00899421 0.02577182
v 0.01738140 0.00172939 0.03446686
v 0.01698446 0.00130196 0.03424325
v 0.01182921 0.00216786 0.02846285
v 0.02331505 0.00800031 0.03084623
v 0.01352133 0.00426605 0.02845506
v 0.02399434 0.00149372 0.03536611
v 0.01304382 0.00160853 0.03019123
v 0.00998079 0.00032707 0.02678356
v 0.01770551 0.00169121 0.03473330
v 0.01817852 0.00026906 0.03533892
v 0.01630999 0.00578824 0.02899700
v 0.01010480 0.00099078 0.02677912
v 0.01355386 0.00260253 0.03025704
v 0.01394583 0.00455655 0.02853155
v 0.01425632 0.00309907 0.03070186
v 0.02027826 0.00618688 0.03267187
v 0.01562431 0.00572834 0.02823864
v 0.02040247 0.00576700 0.03353004
v 0.02263417 0.00649370 0.03414509
v 0.01389861 0.00025032 0.03140234
v 0.01392897 0.00319928 0.03022786
v 0.01981056 0.00517326 0.03389293
v 0.01649558 0.00515809 0.03060489
v 0.01428011 0.00403467 0.02973884
v 0.01975373 0.00794624 0.02630434
v 0.02485206 0.00948029 0.02564167
v 0.01227418 0.00169129 0.02924547
v 0.02355805 0.00812991 0.03060197
v 0.02133693 0.00694235 0.03200394
v 0.01930987 0.00576347 0.03252729
v 0.02193737 0.00437929 0.03561827
v 0.01630704 0.00027862 0.03378788
v 0.01912111 0.00660650 0.03038206
v 0.01506564 0.00017564 0.03261384
v 0.01930505 0.00453818 0.03421950
v 0.01660724 0.00465288 0.03155694
v 0.02476804 0.00188947 0.03514916
v 0.01692816 0.00406664 0.03260804
v 0.02387881 0.00794224 0.03169314
v 0.01638865 0.00656182 0.02686341
v 0.01919682 0.00435912 0.03431799
v 0.01853337 0.00042386 0.03558136
v 0.02176729 0.00506401 0.03526245
v 0.02048995 0.00091648 0.03614818
v 0.01476389 0.00372890 0.03068480
v 0.02176839 0.00318650 0.03588376
v 0.02448383 0.00792236 0.03241697
v 0.01191710 0.00005008 0.02916493
v 0.01259141 0.00153699 0.02967806
v 0.01113800 0.00030629 0.02818120
v 0.01984705 0.00414991 0.03500348
v 0.01391278 0.00549340 0.02652296
v 0.02104748 0.00745410 0.03011531
v 0.01352527 0.00587819 0.02501120
v 0.01790926 0.00432404 0.03324457
v 0.01996078 0.00249789 0.03586312
v 0.01478385 0.00638660 0.02516284
v 0.01692318 0.00388317 0.03279319
v 0.01742201 0.00729981 0.02567052
v 0.01786353 0.00568243 0.03112859
v 0.01496399 0.00175414 0.03223109
v 0.00995593 0.00209113 0.02612081
v 0.01465113 0.00153743 0.03195829
v 0.01574018 0.00340641 0.03205020
v 0.01395605 0.00136721 0.03127221
v 0.02301054 0.00315713 0.03563057
v 0.02171818 0.00157424 0.03598489
v 0.02499097 0.00437942 0.03507493
v 0.01731618 0.00065183 0.03462659
v 0.02448649 0.00503483 0.03518647
v 0.01610027 0.00182123 0.03331736
v 0.01944592 0.00607174 0.03203667
v 0.02486928 0.00905298 0.02799125
v 0.02084707 0.00393651 0.03560940
v 0.01842730 0.00210424 0.03516483
v 0.01210577 0.00358328 0.02756632
v 0.01093667 0.00161467 0.02762859
v 0.01065342 0.00385408 0.02531481
v 0.02086024 0.00226658 0.03604064
v 0.02368396 0.00736481 0.03321712
v 0.01700035 0.00668018 0.02732110
v 0.02295225 0.00066024 0.03565818
v 0.02193818 0.00548455 0.03499265
v 0.02082714 0.00019274 0.03616264
v 0.02332753 0.00425536 0.03550455
v 0.02350929 0.00498439 0.03538900
v 0.02089353 0.00618415 0.03325615
v 0.02191471 0.00527824 0.03516111
v 0.01843592 0.00317628 0.03465446
v 0.01689390 0.00092996 0.03423893
v 0.01253683 0.00526604 0.02522098
v 0.01218601 0.00101629 0.02930490
v 0.01735497 0.00559153 0.03075060
v 0.01297664 0.00035794 0.03038401
v 0.01581948 0.00123346 0.03321594
v 0.01643792 0.00018629 0.03391215
v 0.01362751 0.00202858 0.03066785
v 0.01376405 0.00555795 0.02617138
v 0.01989284 0.00826152 0.02514987
v 0.02039320 0.00555803 0.03384652
v 0.02340480 0.00773971 0.03186445
v 0.02108377 0.00324038 0.03588372
v 0.01913997 0.00684239 0.02970856
v 0.02044780 0.00522428 0.03435025
v 0.01713826 0.00662690 0.02769478
v 0.02147736 0.00464896 0.03542747
v 0.02105484 0.00092344 0.03612147
v 0.02485287 0.00611743 0.03494059
v 0.02418099 0.00077453 0.03531559
v 0.02106877 0.00155119 0.03609353
v 0.02218641 0.00848622 0.02726354
v 0.01798539 0.00100642 0.03510984
v 0.01318474 0.00019903 0.03065031
v 0.01682351 0.00381090 0.03276370
v 0.02179910 0.00783363 0.02957376
v 0.02496986 0.00920034 0.02730778
v 0.02198405 0.00157505 0.03592296
v 0.02333041 0.00279853 0.03554523
v 0.01349209 0.00557704 0.02574695
v 0.02146043 0.00292965 0.03593751
v 0.02179164 0.00647177 0.03347473
v 0.01931583 0.00531698 0.03326171
v 0.02231148 0.00209168 0.03583077
v 0.02293326 0.00098806 0.03566285
v 0.00917694 0.00130243 0.02550897
v 0.01876738 0.00563460 0.03221846
v 0.02376015 0.00881473 0.02772667
v 0.01553243 0.00493213 0.02985700
v 0.01847504 0.00627906 0.03049307
v 0.01470808 0.00269553 0.03149251
v 0.01605927 0.00587090 0.02846924
v 0.01975318 0.00376467 0.03522962
v 0.02194838 0.00774942 0.03010406
v 0.00979962 0.00289441 0.02531165
v 0.01773918 0.00742985 0.02558497
v 0.01286363 0.00251608 0.02951097
v 0.02182233 0.00670511 0.03305561
v 0.01755330 0.00050806 0.03482741
v 0.02162933 0.00876849 0.02504189
v 0.01810246 0.00015673 0.03528932
v 0.02199682 0.00334907 0.03583486
v 0.02451306 0.00810523 0.03181202
f 329 135 103
f 183 150 135
f 195 135 329
f 195 258 135
f 258 195 46
f 272 183 320
f 320 121 272
f 141 121 251
f 288 55 188
f 272 121 312
f 312 121 141
f 329 17 32
f 252 150 188
f 241 183 272
f 188 150 96
f 150 183 313
f 230 183 135
f 135 320 230
f 230 320 183
f 141 251 63
f 265 267 123
f 183 241 210
f 210 241 186
f 174 210 186
f 261 303 258
f 197 307 257
f 258 46 295
f 346 251 121
f 121 48 346
f 346 48 251
f 251 48 243
f 243 305 251
f 138 63 251
f 251 305 138
f 121 320 277
f 277 320 135
f 319 315 303
f 185 203 306
f 283 248 314
f 314 324 283
f 250 324 314
f 188 174 321
f 18 142 260
f 91 312 141
f 91 41 312
f 185 306 235
f 329 32 33
f 265 123 299
f 301 211 265
f 61 103 135
f 210 174 328
f 183 210 328
f 328 174 188
f 107 241 272
f 10 28 159
f 81 307 309
f 257 319 158
f 309 307 285
f 307 197 285
f 89 295 46
f 171 97 305
f 305 243 171
f 257 97 171
f 8 138 305
f 303 315 72
f 258 303 72
f 13 48 121
f 121 277 13
f 13 315 48
f 131 277 135
f 48 315 232
f 112 203 260
f 112 306 203
f 85 324 250
f 85 235 306
f 271 321 137
f 137 26 271
f 271 26 143
f 137 321 327
f 327 321 174
f 325 341 291
f 291 341 40
f 287 187 292
f 38 215 333
f 38 122 258
f 142 18 246
f 55 288 246
f 288 142 246
f 101 18 16
f 41 91 73
f 287 292 73
f 73 292 41
f 73 91 223
f 223 91 31
f 345 12 250
f 345 26 12
f 143 26 345
f 235 85 139
f 250 12 139
f 139 85 250
f 185 235 114
f 5 195 329
f 27 119 340
f 202 46 195
f 269 267 265
f 265 211 269
f 149 123 267
f 267 269 149
f 103 61 66
f 329 103 66
f 66 17 329
f 135 150 212
f 212 61 135
f 154 61 212
f 150 252 212
f 183 328 286
f 286 313 183
f 150 313 286
f 286 328 188
f 286 96 150
f 188 96 286
f 54 174 186
f 54 327 174
f 186 241 54
f 28 10 237
f 159 97 109
f 109 10 159
f 257 307 109
f 109 97 257
f 75 319 303
f 75 158 319
f 102 285 197
f 303 261 102
f 102 197 303
f 295 302 323
f 221 302 256
f 256 302 295
f 333 113 69
f 69 237 333
f 28 237 69
f 69 169 28
f 220 169 69
f 69 276 220
f 113 276 69
f 48 232 208
f 257 171 208
f 315 319 208
f 208 232 315
f 204 72 315
f 204 131 72
f 331 13 277
f 277 131 331
f 131 204 331
f 315 13 331
f 331 204 315
f 74 131 135
f 72 131 74
f 278 203 185
f 185 114 278
f 306 112 157
f 283 85 157
f 157 85 306
f 283 324 68
f 68 85 283
f 324 85 68
f 110 311 143
f 314 311 110
f 250 314 110
f 110 345 250
f 143 345 110
f 23 314 248
f 23 311 314
f 23 142 288
f 23 248 142
f 29 23 288
f 311 23 29
f 188 321 100
f 321 271 100
f 100 288 188
f 100 29 288
f 100 271 143
f 143 311 100
f 311 29 100
f 137 327 270
f 125 270 327
f 159 28 233
f 28 191 233
f 341 191 140
f 140 40 341
f 220 40 140
f 140 191 28
f 140 169 220
f 28 169 140
f 326 77 128
f 78 226 326
f 9 99 156
f 9 59 99
f 122 38 65
f 65 38 333
f 221 215 335
f 215 38 335
f 335 302 221
f 2 256 295
f 128 77 234
f 234 11 220
f 284 168 341
f 63 138 284
f 284 233 168
f 159 233 284
f 284 8 159
f 138 8 284
f 52 125 272
f 270 125 52
f 247 235 41
f 41 292 247
f 247 292 187
f 216 95 17
f 61 95 216
f 154 117 83
f 83 61 154
f 83 95 61
f 117 253 83
f 338 116 195
f 195 5 338
f 340 301 217
f 217 27 340
f 190 202 280
f 280 132 190
f 280 202 195
f 280 80 132
f 195 116 280
f 116 80 280
f 155 190 228
f 190 132 228
f 76 144 294
f 294 299 123
f 206 299 294
f 294 144 206
f 316 246 18
f 316 214 246
f 224 149 317
f 34 269 211
f 211 149 34
f 34 149 269
f 126 149 224
f 254 212 252
f 154 212 19
f 212 254 19
f 241 107 67
f 67 54 241
f 327 54 322
f 322 125 327
f 322 67 107
f 54 67 322
f 322 107 272
f 272 125 322
f 333 237 108
f 108 237 81
f 81 65 108
f 108 65 333
f 162 109 307
f 10 109 162
f 162 237 10
f 307 81 162
f 81 237 162
f 158 184 263
f 263 197 257
f 257 158 263
f 229 184 158
f 158 75 229
f 303 184 229
f 229 75 303
f 285 102 15
f 309 285 15
f 258 122 15
f 282 202 190
f 46 202 282
f 282 45 46
f 337 319 257
f 257 208 337
f 337 208 319
f 343 74 135
f 72 74 343
f 135 258 343
f 258 72 343
f 293 111 104
f 37 193 104
f 64 99 308
f 308 124 64
f 336 278 115
f 115 278 114
f 115 247 187
f 130 157 112
f 21 226 78
f 21 78 92
f 21 124 308
f 308 226 21
f 87 234 77
f 291 11 87
f 11 234 87
f 308 99 304
f 99 59 304
f 304 226 308
f 77 326 304
f 304 326 226
f 178 9 156
f 291 9 178
f 178 325 291
f 341 325 178
f 223 31 178
f 178 31 341
f 49 38 258
f 49 335 38
f 302 335 49
f 49 323 302
f 258 295 49
f 295 323 49
f 88 282 190
f 45 282 88
f 46 45 88
f 295 89 163
f 163 2 295
f 196 299 206
f 341 31 56
f 56 284 341
f 201 182 137
f 201 52 182
f 137 270 201
f 270 52 201
f 12 26 290
f 26 170 290
f 290 170 312
f 290 139 12
f 235 139 290
f 312 41 290
f 41 235 290
f 289 170 26
f 182 170 289
f 289 26 137
f 137 182 289
f 182 52 274
f 274 170 182
f 312 170 274
f 272 312 274
f 274 52 272
f 310 114 235
f 235 247 310
f 310 115 114
f 247 115 310
f 281 176 33
f 95 176 281
f 281 33 32
f 281 32 17
f 17 95 281
f 207 176 95
f 340 119 207
f 119 176 207
f 117 149 153
f 153 253 117
f 153 149 211
f 211 253 153
f 33 176 266
f 329 33 266
f 266 176 119
f 266 5 329
f 266 192 5
f 119 338 50
f 50 266 119
f 192 266 50
f 27 217 129
f 129 217 301
f 275 196 57
f 43 275 57
f 193 37 262
f 60 193 106
f 106 268 60
f 116 338 167
f 167 80 116
f 167 338 119
f 39 80 167
f 119 27 167
f 27 39 167
f 55 246 344
f 246 214 344
f 206 144 1
f 1 316 206
f 144 316 1
f 273 316 144
f 273 76 55
f 273 144 76
f 238 126 224
f 55 76 300
f 181 238 300
f 252 317 298
f 298 317 149
f 149 19 298
f 298 254 252
f 298 19 254
f 296 149 117
f 296 19 149
f 296 117 154
f 154 19 296
f 339 263 184
f 197 263 339
f 303 197 339
f 244 261 258
f 258 15 244
f 244 102 261
f 244 15 102
f 16 18 3
f 111 293 3
f 3 101 16
f 3 293 101
f 336 111 136
f 203 278 136
f 136 278 336
f 105 37 104
f 105 111 336
f 104 111 105
f 156 99 53
f 99 64 53
f 53 64 287
f 287 73 53
f 53 73 223
f 223 178 53
f 53 178 156
f 283 157 180
f 157 130 180
f 180 248 283
f 142 248 14
f 79 112 260
f 79 130 112
f 260 142 79
f 142 14 79
f 79 180 130
f 248 180 79
f 79 14 248
f 77 59 222
f 222 87 77
f 59 9 222
f 222 9 291
f 291 87 222
f 128 234 160
f 160 47 128
f 297 70 71
f 71 113 333
f 333 297 71
f 71 276 113
f 264 297 82
f 264 70 297
f 82 160 264
f 264 160 70
f 46 88 218
f 221 256 36
f 36 215 221
f 256 2 36
f 2 151 36
f 82 297 36
f 333 215 36
f 36 297 333
f 284 56 175
f 141 63 175
f 63 284 175
f 175 91 141
f 175 31 91
f 175 56 31
f 231 253 211
f 95 83 231
f 231 83 253
f 5 192 147
f 192 50 147
f 147 338 5
f 147 50 338
f 299 196 198
f 196 275 198
f 265 299 198
f 193 43 133
f 101 293 133
f 133 43 101
f 104 193 133
f 133 293 104
f 193 60 118
f 118 60 268
f 106 193 318
f 193 262 318
f 27 129 334
f 268 20 334
f 98 118 334
f 334 118 268
f 132 80 4
f 4 80 39
f 24 7 268
f 24 318 262
f 279 316 18
f 279 213 316
f 18 101 279
f 214 316 342
f 316 273 342
f 342 344 214
f 55 344 342
f 342 273 55
f 224 317 172
f 172 238 224
f 172 317 252
f 188 55 172
f 172 252 188
f 55 300 172
f 172 300 238
f 123 149 25
f 25 238 181
f 149 126 25
f 126 238 25
f 194 136 111
f 260 203 194
f 203 136 194
f 239 21 92
f 92 245 239
f 124 21 239
f 239 245 124
f 30 262 37
f 37 245 30
f 336 115 134
f 134 64 124
f 134 115 187
f 134 187 287
f 287 64 134
f 37 105 255
f 255 245 37
f 255 105 336
f 336 134 255
f 124 245 255
f 255 134 124
f 84 160 82
f 47 160 84
f 179 51 92
f 179 152 51
f 94 152 179
f 92 78 179
f 70 160 145
f 145 71 70
f 276 71 145
f 220 276 145
f 145 234 220
f 2 163 199
f 199 151 2
f 46 218 199
f 199 89 46
f 199 163 89
f 209 88 190
f 209 218 88
f 209 190 155
f 155 173 209
f 209 173 218
f 148 164 240
f 155 164 148
f 148 173 155
f 148 90 218
f 218 173 148
f 332 90 151
f 218 90 332
f 151 199 332
f 332 199 218
f 82 36 227
f 227 36 151
f 151 90 227
f 22 207 95
f 95 231 22
f 22 231 207
f 340 207 86
f 207 231 86
f 86 301 340
f 86 231 211
f 211 301 86
f 6 43 193
f 193 118 6
f 275 43 6
f 240 164 161
f 161 152 94
f 164 24 161
f 161 24 152
f 94 35 161
f 161 35 47
f 200 129 301
f 200 334 129
f 200 301 265
f 98 334 200
f 249 228 132
f 132 4 249
f 155 228 249
f 249 4 7
f 7 24 249
f 249 164 155
f 249 24 164
f 51 152 242
f 152 24 242
f 242 24 262
f 44 268 106
f 44 24 268
f 106 318 44
f 318 24 44
f 219 39 27
f 27 334 219
f 334 120 219
f 219 120 4
f 58 334 20
f 58 120 334
f 58 20 268
f 268 7 58
f 7 4 58
f 4 120 58
f 42 279 101
f 101 43 42
f 42 43 57
f 213 279 42
f 42 196 206
f 57 196 42
f 181 300 236
f 236 25 181
f 123 25 236
f 236 300 76
f 236 294 123
f 76 294 236
f 111 3 177
f 177 194 111
f 177 3 18
f 177 18 260
f 260 194 177
f 262 30 259
f 259 242 262
f 259 245 92
f 259 30 245
f 92 51 259
f 51 242 259
f 47 35 146
f 146 326 128
f 128 47 146
f 78 326 146
f 146 179 78
f 330 160 234
f 234 145 330
f 330 145 160
f 189 148 240
f 240 161 189
f 189 161 47
f 165 198 275
f 275 6 165
f 265 198 165
f 165 200 265
f 98 200 165
f 165 118 98
f 165 6 118
f 225 4 39
f 39 219 225
f 225 219 4
f 205 42 206
f 213 42 205
f 206 316 205
f 316 213 205
f 127 227 90
f 127 93 227
f 82 227 62
f 227 93 62
f 62 84 82
f 47 84 62
f 62 189 47
f 189 62 166
f 166 62 93
f 305 97 8
f 8 97 159
f 291 40 11
f 11 40 220
f 208 171 243
f 208 243 48
f 233 191 341
f 341 168 233
f 216 66 61
f 17 66 216
f 122 65 15
f 15 81 309
f 15 65 81
f 304 59 77
f 339 184 303
f 94 179 146
f 146 35 94
f 148 189 166
f 90 148 166
f 166 127 90
f 93 127 166

