# https://github.com/mikedh/trimesh
v 0.01093017 -0.03031553 0.02777378
v 0.03155604 -0.00557184 0.00298632
v 0.01325271 -0.02864564 0.03076408
v 0.02554467 -0.01966783 0.00617327
v 0.00000272 -0.03138897 0.03016840
v 0.00176831 -0.03145714 0.00373965
v 0.03093972 -0.01021495 0.02612425
v 0.02235511 -0.02301915 0.00453153
v 0.00000205 -0.02402886 0.01643486
v 0.02203410 -0.02301732 0.00225431
v 0.00796237 -0.03080305 0.03000168
v 0.01462233 -0.02781333 0.00019611
v 0.00998289 -0.03019573 0.00604062
v 0.00038645 -0.03130341 0.00005159
v 0.00417564 -0.03068994 0.03150368
v 0.01996949 -0.00001590 0.00000000
v 0.03142319 -0.00745365 0.00848559
v 0.02718844 -0.01694421 0.00334184
v 0.00930931 -0.03041740 0.00652276
v 0.01550277 -0.02818323 0.01106011
v 0.00347832 -0.03194556 0.02811354
v 0.00988490 -0.03065403 0.02933454
v 0.02294280 -0.02294580 0.01857538
v 0.02837804 -0.01399146 0.00013988
v 0.00831740 -0.03007945 0.03116059
v 0.00000086 -0.02409368 0.00034315
v 0.02839869 -0.01344313 0.03157352
v 0.00002847 -0.03197319 0.01592565
v 0.02594299 -0.01869665 0.03060140
v 0.00344247 -0.03109061 0.00011417
v 0.00337605 -0.03171528 0.01518195
v 0.02528135 -0.01942167 0.00204711
v 0.02180706 -0.02340983 0.00349469
v 0.02288705 -0.02210650 0.00168584
v 0.02157465 -0.02399633 0.00711536
v 0.02551327 -0.01985176 0.00894868
v 0.01223833 -0.02939981 0.00514601
v 0.03219673 -0.00033645 0.03008677
v 0.02342149 -0.02245103 0.02962276
v 0.02638587 -0.01776820 0.03092646
v 0.03168517 -0.00058509 0.00024759
v 0.01388770 -0.02836482 0.03075197
v 0.02034094 -0.01234069 0.00000000
v 0.03179347 -0.00576506 0.02982057
v 0.03065307 -0.01078573 0.02034309
v 0.02905246 -0.01392601 0.00608687
v 0.03214406 -0.00387912 0.01256848
v 0.00000258 -0.03207238 0.02381717
v 0.01692487 -0.02649193 0.00004530
v 0.01500909 -0.02808936 0.00361439
v 0.01509103 -0.02854778 0.02220294
v 0.02844031 -0.01378998 0.03128096
v 0.02789654 -0.01544423 0.03073350
v 0.01127266 -0.02917770 0.03115222
v 0.03013940 -0.00992873 0.00085169
v 0.02134899 -0.02454277 0.02874894
v 0.03143061 -0.00738706 0.00782083
v 0.00141654 -0.03128381 0.00051920
v 0.03159783 -0.00768814 0.02270425
v 0.01443351 -0.02892054 0.02646133
v 0.03247626 -0.00188970 0.02329330
v 0.03239995 -0.00012619 0.01031087
v 0.02125348 -0.02414013 0.02998824
v 0.00000091 -0.03133120 0.00119421
v 0.02937131 -0.01316602 0.03015834
v 0.01622111 -0.02693687 0.00022042
v 0.03150768 -0.00710186 0.00814526
v 0.02983379 -0.01285564 0.02141390
v 0.00000163 -0.03185356 0.01090742
v 0.01506784 -0.02859572 0.02479834
v 0.00504415 -0.03172303 0.02715297
v 0.01879173 -0.02521437 0.03134240
v 0.03155231 -0.00450404 0.00185279
v 0.00204961 -0.03160019 0.00662986
v 0.02594692 -0.01915694 0.00660730
v 0.01284269 -0.02929018 0.00677119
v 0.03121335 -0.00565472 0.00058621
v 0.02328627 -0.02235737 0.00690087
v 0.03251673 -0.00158742 0.02512022
v 0.02350129 -0.02222773 0.00941231
v 0.01859755 -0.02631712 0.02974568
v 0.01869196 -0.02600962 0.00473288
v 0.01383538 -0.02874422 0.03013491
v 0.02591763 -0.01961735 0.02957319
v 0.03009827 -0.01000174 0.03105747
v 0.01347039 -0.02926361 0.02076323
v 0.02751714 -0.01616127 0.00228369
v 0.00355868 -0.03176747 0.01892560
v 0.03087153 -0.01029194 0.02356005
v 0.02335788 -0.02221733 0.00612615
v 0.01560357 -0.01822026 0.03157353
v 0.02257704 -0.02306189 0.00735560
v 0.03034568 -0.01078527 0.00595351
v 0.03196169 -0.00407017 0.00643283
v 0.02570286 -0.02007548 0.02659903
v 0.00000084 -0.02951237 0.00021470
v 0.03162106 -0.00797978 0.02894685
v 0.02613995 -0.01954215 0.02805458
v 0.02926576 -0.01290355 0.00274765
v 0.00250690 -0.03154228 0.00591627
v 0.02879323 -0.01139924 0.03157353
v 0.02373901 -0.02230761 0.02624835
v 0.00992937 -0.02970528 0.00050499
v 0.02727965 -0.01723143 0.00676266
v 0.00731065 -0.03130732 0.02680103
v 0.02988868 -0.01267800 0.02044158
v 0.03102018 -0.00655067 0.00061693
v 0.00257226 -0.03158445 0.00681671
v 0.00712856 -0.03127725 0.02271766
v 0.00928466 -0.03084134 0.02825989
v 0.03113562 -0.00655434 0.00142167
v 0.00691166 -0.03103442 0.00704396
v 0.01543310 -0.02781258 0.00292553
v 0.02075966 -0.02447537 0.00464912
v 0.02902350 -0.01477441 0.02423799
v 0.00602767 -0.02171950 0.00000000
v 0.03221484 -0.00209509 0.00753933
v 0.03212673 -0.00376244 0.01034849
v 0.03252925 -0.00052593 0.02172432
v 0.03151987 -0.00288659 0.00048982
v 0.02782460 -0.01617957 0.00576038
v 0.00414044 -0.03186761 0.02812130
v 0.02967612 -0.01270199 0.02995128
v 0.01805038 -0.02675827 0.01376693
v 0.00513652 -0.03169680 0.02647619
v 0.01726348 -0.02745030 0.02773829
v 0.01799145 -0.02668001 0.00714470
v 0.02011320 -0.02351183 0.03157352
v 0.01029206 -0.03023228 0.00950647
v 0.00760807 -0.03123188 0.02657679
v 0.02073505 -0.02386946 0.00068586
v 0.03207463 -0.00281583 0.00576593
v 0.03079547 -0.01073928 0.02800943
v 0.01594803 -0.02818363 0.02903587
v 0.00368017 -0.03188045 0.02578551
v 0.02179867 -0.02415823 0.02745168
v 0.01536062 -0.02842760 0.02348149
v 0.02356171 -0.02104956 0.00038650
v 0.01211693 -0.02873529 0.03139213
v 0.03099649 -0.01008451 0.02716133
v 0.00383767 -0.03152902 0.00827537
v 0.00000106 -0.02401661 0.00292631
v 0.00706023 -0.03109946 0.01196825
v 0.00937253 -0.03011520 0.03059251
v 0.02917078 -0.01464490 0.02830741
v 0.02909656 -0.01448481 0.02003686
v 0.01922292 -0.02501692 0.00051722
v 0.00491100 -0.01944677 0.00000000
v 0.03105648 -0.00989098 0.02741661
v 0.00000308 -0.03210824 0.02865328
v 0.02119646 -0.01075095 0.00000000
v 0.02125675 -0.02433030 0.00831428
v 0.02624694 -0.01774944 0.03116912
v 0.01517051 -0.02772770 0.00141142
v 0.02384282 -0.02207111 0.02951702
v 0.02844315 -0.01484579 0.00405187
v 0.02977887 -0.01119535 0.03087223
v 0.00214000 -0.03203556 0.02898175
v 0.03217741 -0.00036818 0.00501235
v 0.00096690 -0.03162637 0.00611395
v 0.02922929 -0.01294802 0.03057178
v 0.01265232 -0.02876195 0.00052613
v 0.02038188 -0.02426052 0.03082606
v 0.03068208 -0.01040445 0.01448057
v 0.00564308 -0.03083354 0.00108785
v 0.00587849 -0.03113785 0.00607576
v 0.00240512 -0.03127543 0.00136243
v 0.02762858 -0.01556809 0.03106128
v 0.02289598 -0.02190498 0.00085528
v 0.02912861 -0.01372520 0.03014439
v 0.01681018 -0.02722707 0.00521026
v 0.03260059 -0.00013970 0.02687002
v 0.03198949 -0.00207153 0.00308852
v 0.00657151 -0.03113384 0.00810543
v 0.00000136 -0.03027681 0.00058750
v 0.01958625 -0.02394372 0.03157352
v 0.02138615 -0.02405989 0.00599654
v 0.02829190 -0.01419625 0.00018269
v 0.01710086 -0.02677171 0.00233357
v 0.01090928 -0.02919986 0.03135259
v 0.02015321 -0.02482523 0.00341861
v 0.02537218 -0.01916982 0.03092102
v 0.02635670 -0.01785121 0.00173009
v 0.00595462 -0.03140247 0.01735102
v 0.01971044 -0.02531916 0.03010429
v 0.00966041 -0.02983313 0.00086638
v 0.02094827 -0.02437996 0.00527473
v 0.02357532 -0.02208317 0.00708738
v 0.02644514 -0.01847949 0.00706368
v 0.01522328 -0.02856584 0.02844033
v 0.01512422 -0.02857973 0.02560361
v 0.02947923 -0.01389370 0.02523092
v 0.03000511 -0.01073126 0.00181204
v 0.01244448 -0.02861027 0.03140107
v 0.02746297 -0.01718897 0.01296548
v 0.02143610 -0.02418307 0.00938887
v 0.00032610 -0.03133447 0.03082130
v 0.02760595 -0.01603212 0.00236884
v 0.01840169 -0.02567678 0.00085887
v 0.02939945 -0.01189425 0.00060756
v 0.02250819 -0.02214755 0.00014500
v 0.02744123 -0.01767860 0.02803594
v 0.02283833 -0.02292167 0.02975158
v 0.00698618 -0.03112614 0.01246109
v 0.01359051 -0.02886783 0.00550223
v 0.02818790 -0.01478445 0.03087841
v 0.00000263 -0.02409921 0.02419182
v 0.00000304 -0.02499458 0.03154603
v 0.01464208 -0.02856141 0.00914882
v 0.00014403 -0.03213041 0.02861925
v 0.00912152 -0.03053413 0.00806098
v 0.02136731 -0.02316248 0.00004244
v 0.00146179 -0.03128615 0.00058656
v 0.01441991 -0.02862855 0.00719958
v 0.01907544 -0.02560272 0.03040806
v 0.01409482 -0.02801730 0.03119161
v 0.01510674 -0.02839549 0.01201469
v 0.03064641 -0.01075972 0.01941492
v 0.00845618 -0.03090107 0.01953391
v 0.01779626 -0.02710748 0.02872042
v 0.02759632 -0.01743916 0.02853693
v 0.02328957 -0.02235247 0.00688165
v 0.01332014 -0.02926465 0.01644307
v 0.02626347 -0.01937996 0.02801156
v 0.02021541 -0.02466072 0.00247631
v 0.02352777 -0.02215540 0.00731135
v 0.02873301 -0.01454823 0.00616520
v 0.02918076 -0.00540088 0.03157352
v 0.02725591 -0.01577942 0.03147671
v 0.02458846 -0.01854461 0.03157353
v 0.00572219 -0.03072753 0.03103818
v 0.03197885 -0.00231228 0.00313361
v 0.01873198 -0.02622060 0.00808862
v 0.03208917 -0.00064786 0.00361287
v 0.03068030 -0.01107903 0.02857152
v 0.02539690 -0.02002890 0.02984982
v 0.01772350 -0.02642921 0.03051540
v 0.03154718 -0.00663237 0.00685041
v 0.00643947 -0.03084823 0.00315942
v 0.02331191 -0.00006286 0.00000000
v 0.03075749 -0.01042593 0.01937805
v 0.03113142 -0.00944371 0.02438431
v 0.03103978 -0.01005541 0.02916672
v 0.03061231 -0.00067965 0.03157352
v 0.00672227 -0.03123168 0.01540218
v 0.00000117 -0.03156090 0.00446698
v 0.03181479 -0.00038100 0.00097469
v 0.00521786 -0.03086453 0.00063706
v 0.00629174 -0.03068672 0.00061116
v 0.02458507 -0.01990287 0.00036170
v 0.03140054 -0.00482479 0.00107481
v 0.02950744 -0.01260604 0.00417817
v 0.02940099 -0.01281140 0.03038057
v 0.00103023 -0.03189685 0.01544046
v 0.02060918 -0.02463194 0.00517001
v 0.02955026 -0.01206817 0.00213245
v 0.02030493 -0.02427289 0.00078580
v 0.02324980 -0.00169094 0.00000000
v 0.01553511 -0.02797374 0.00544720
v 0.00679115 -0.03049387 0.03110679
v 0.02926265 -0.01444415 0.02800578
v 0.00081721 -0.03102695 0.03139415
v 0.00915738 -0.03003969 0.00131631
v 0.02380070 -0.02227535 0.02809901
v 0.02556457 -0.01945028 0.03031237
v 0.00647557 -0.03122770 0.01239336
v 0.02086031 -0.02443338 0.00505139
v 0.00362133 -0.03174979 0.01834034
v 0.03074871 -0.00868291 0.00217677
v 0.01992137 -0.02515107 0.03009888
v 0.01728040 -0.02559759 0.03157352
v 0.02945606 -0.01228169 0.03067725
v 0.00894932 -0.03093674 0.02894645
v 0.02125918 -0.02321287 0.03124934
v 0.02142745 -0.02421989 0.01077971
v 0.01409338 -0.02827368 0.00164734
v 0.01540375 -0.02835837 0.01996560
v 0.03225342 -0.00152177 0.00728692
v 0.03067575 -0.00811085 0.00068507
v 0.02970449 -0.01338866 0.02629432
v 0.03046363 -0.01027217 0.03021934
v 0.03211492 -0.00399490 0.02975236
v 0.02832150 -0.01400117 0.03132251
v 0.03247648 -0.00056659 0.01733064
v 0.02001765 -0.02559974 0.02679875
v 0.00601725 -0.03142227 0.02961284
v 0.02204268 -0.02356928 0.00744764
v 0.03096664 -0.00438204 0.03157352
v 0.01451186 -0.02789888 0.00042463
v 0.02788634 -0.01613401 0.00636900
v 0.01476263 -0.02864926 0.01838210
v 0.02574810 -0.01957904 0.00940965
v 0.03180284 -0.00321076 0.00243089
v 0.00587342 -0.03117325 0.00658728
v 0.00378804 -0.03183282 0.02384480
v 0.02646194 -0.01850519 0.02998528
v 0.01943471 -0.02536805 0.03035929
v 0.02875747 -0.00038461 0.03157352
v 0.03130062 -0.00625283 0.00211232
v 0.02529525 -0.02009160 0.00816495
v 0.01639335 -0.02679902 0.00000873
v 0.01485166 -0.02853748 0.01370107
v 0.02411947 -0.02101600 0.00314660
v 0.03128154 -0.00330109 0.03138976
v 0.00295128 -0.03087903 0.03138358
v 0.01601725 -0.02787685 0.00853555
v 0.03220331 -0.00421145 0.01974367
v 0.00967907 -0.03042259 0.00929608
v 0.00769903 -0.03122249 0.02736341
v 0.00702950 -0.03129564 0.02268341
v 0.00315371 -0.03142552 0.00463222
v 0.03249255 -0.00134591 0.02190730
v 0.00362266 -0.03193583 0.02931112
v 0.00792058 -0.03081410 0.00760301
v 0.03069433 -0.00856147 0.00156676
v 0.01752844 -0.02711461 0.02958678
v 0.02382080 -0.00026409 0.03150431
v 0.02800004 -0.01505439 0.03093556
v 0.02571424 -0.01973650 0.01376999
v 0.01187536 -0.02997942 0.02913376
v 0.00000084 -0.02847656 0.00015787
v 0.02117182 -0.02389846 0.00273475
v 0.02103493 -0.02448848 0.00775953
v 0.01907930 -0.02627821 0.02928017
v 0.01754030 -0.02701150 0.02974560
v 0.03249682 -0.00274059 0.02861804
v 0.03118963 -0.00605214 0.00102839
v 0.01474314 -0.02866698 0.01896824
v 0.02149846 -0.02325232 0.00104643
v 0.02477912 -0.00003229 0.03157352
v 0.03094209 -0.00806130 0.00252509
v 0.03080074 -0.00956823 0.00757857
v 0.01345056 -0.02911684 0.02978403
v 0.02223051 -0.02380268 0.02741204
v 0.03114817 -0.00930350 0.02304145
v 0.02250337 -0.02252885 0.00195105
v 0.03211738 -0.00550301 0.02916971
v 0.00000106 -0.03145852 0.00314457
v 0.02238072 -0.02369356 0.02907685
v 0.02034939 -0.02534693 0.02803493
v 0.03230454 -0.00442802 0.02902404
v 0.02888697 -0.01284737 0.00007876
v 0.02979163 -0.01328456 0.02884116
v 0.01851598 -0.02582410 0.00211673
v 0.03117129 -0.00461289 0.03140862
v 0.03064453 -0.01090887 0.02264213
v 0.01538560 -0.02807024 0.00570820
v 0.03058564 -0.00998714 0.03017035
v 0.02382080 -0.00001307 0.02371397
v 0.02861643 -0.01464748 0.00513339
v 0.02353513 -0.02223682 0.01156535
v 0.00999018 -0.03038416 0.02977558
v 0.01107096 -0.03026887 0.02823132
v 0.02731420 -0.01723383 0.00731091
v 0.03246440 -0.00221922 0.02408198
v 0.01564214 -0.02834670 0.02891913
v 0.00000313 -0.03098695 0.03120766
v 0.01684841 -0.02768490 0.02793443
v 0.00707239 -0.03134901 0.02636088
v 0.03125437 -0.00864371 0.01831335
v 0.01228937 -0.02923703 0.03036231
v 0.02965451 -0.01267898 0.00754257
v 0.01992044 -0.02493322 0.00279986
v 0.00719923 -0.03096681 0.00706185
v 0.02913450 -0.01380454 0.00644908
v 0.03146048 -0.00776741 0.02967039
v 0.00998202 -0.03018564 0.03014777
v 0.02701500 -0.01738873 0.00461675
v 0.01940213 -0.01358214 0.00000000
v 0.02753273 -0.01742719 0.02449468
v 0.00643079 -0.02024438 0.00000000
v 0.00000384 -0.03155986 0.00402004
v 0.03004050 -0.01141229 0.00486298
v 0.01777153 -0.02617220 0.03088752
v 0.02117344 -0.02398640 0.00350870
v 0.01858004 -0.02634335 0.00938738
v 0.00948286 -0.03011906 0.00329623
v 0.02314782 -0.02227693 0.00461434
v 0.01677579 -0.02773884 0.02908001
v 0.03182527 -0.00020673 0.00097325
v 0.03212395 -0.00362107 0.02981978
v 0.02946531 -0.01283019 0.00497276
v 0.01758686 -0.02597121 0.03136412
v 0.00148662 -0.03136941 0.00198799
v 0.00219323 -0.03151695 0.03030359
v 0.00000314 -0.03031229 0.03136834
v 0.01650194 -0.02776326 0.01960764
v 0.03185006 -0.00509003 0.00751308
v 0.01525832 -0.02831594 0.01164250
v 0.00000313 -0.02432339 0.03108500
v 0.02575041 -0.01838636 0.00053102
v 0.02985940 -0.01043177 0.00008128
v 0.03007932 -0.01124650 0.03029710
v 0.01316325 -0.02926195 0.01168559
v 0.00031506 -0.03000061 0.03157352
v 0.01374142 -0.02883735 0.00596641
v 0.02550741 -0.01920798 0.00243767
v 0.00301086 -0.03126569 0.00182079
v 0.01273534 -0.02929298 0.00620910
v 0.02189562 -0.02293159 0.00123563
v 0.01278063 -0.02937997 0.00968158
v 0.01460681 -0.02803880 0.00165312
v 0.02118741 -0.02438658 0.00829962
v 0.02658735 -0.01895385 0.02922262
v 0.01921940 -0.02410382 0.03157352
v 0.03190853 -0.00288586 0.00290260
v 0.01335343 -0.02782937 0.03157352
v 0.01944194 -0.02568258 0.00737714
v 0.02616690 -0.01866839 0.00508796
v 0.02804140 -0.01465483 0.00014172
v 0.01833351 -0.02676366 0.02909825
v 0.01274945 -0.02917328 0.00465889
v 0.02156285 -0.02396536 0.00665972
v 0.02367234 -0.00003901 0.00000000
v 0.02012515 -0.02514229 0.00692599
v 0.02297767 -0.02220671 0.00256174
v 0.02031390 -0.02447538 0.03061050
v 0.02852063 -0.01490574 0.03019664
v 0.03027852 -0.00716004 0.03157352
v 0.00313245 -0.03145549 0.00511024
v 0.01332220 -0.02942062 0.02790331
v 0.00636687 -0.03149585 0.02722962
v 0.01306244 -0.02857652 0.03103395
v 0.03072253 -0.00936574 0.00465425
v 0.02515926 -0.01985192 0.00339684
v 0.02558754 -0.01985224 0.01236028
v 0.00000296 -0.02421473 0.02871627
v 0.03218809 -0.00482378 0.02562516
v 0.01091636 -0.02999720 0.00816097
v 0.02609208 -0.01860665 0.00377617
v 0.01499132 -0.02861816 0.02941831
v 0.02798266 -0.01602449 0.00697661
v 0.01998656 -0.02453844 0.00095075
v 0.00593291 -0.03114129 0.03017895
v 0.00686337 -0.03109588 0.02993269
v 0.03037742 -0.01098849 0.00935601
v 0.02107340 -0.00771869 0.00000000
v 0.02837329 -0.01472147 0.00242248
v 0.00948793 -0.03022715 0.00467015
v 0.03160599 -0.00759292 0.02179750
v 0.00000310 -0.02485868 0.03145798
v 0.03137295 -0.00799677 0.01453847
v 0.03049917 -0.01060975 0.02994567
v 0.00000145 -0.03172662 0.00796859
v 0.01176477 -0.00033407 0.00000000
v 0.03199259 -0.00122535 0.03039551
v 0.02757314 -0.01503427 0.03157352
v 0.02624894 -0.01860589 0.00556467
v 0.01487870 -0.02838670 0.00672384
v 0.01510980 -0.02858460 0.02542693
v 0.02915739 -0.01393064 0.00846606
v 0.01666104 -0.02767906 0.01984851
v 0.03181551 -0.00704772 0.02911063
v 0.02102686 -0.02344133 0.03120419
v 0.01810821 -0.01515671 0.00000000
v 0.00009966 -0.02748306 0.03157352
v 0.01686470 -0.02723529 0.00572196
v 0.00442726 -0.03011125 0.03157352
v 0.02400311 -0.01984687 0.03157352
v 0.00495381 -0.03134931 0.00725175
v 0.01309416 -0.02928011 0.01100279
v 0.00687172 -0.03139519 0.02687219
v 0.01280344 -0.01944913 0.00000000
v 0.03129548 -0.00530094 0.03095542
v 0.01247407 -0.02952780 0.01214398
v 0.02931785 -0.01341466 0.00665470
v 0.01163094 -0.02954227 0.00404211
v 0.02943612 -0.01382213 0.02123935
v 0.00195121 -0.03153580 0.00524129
v 0.00318236 -0.03133206 0.00316032
v 0.03045342 -0.00894702 0.00074387
v 0.00819329 -0.03057517 0.03031888
v 0.00386944 -0.03184527 0.02942914
v 0.02412644 -0.01762867 0.03157353
v 0.02548538 -0.01977219 0.00645854
v 0.00951646 -0.03018294 0.00420054
v 0.02071505 -0.02505731 0.02861900
v 0.03015264 -0.00990999 0.00090012
v 0.01068095 -0.03001488 0.00641319
v 0.01282200 -0.02905231 0.00353726
v 0.03025261 -0.01146817 0.01327797
v 0.03059576 -0.01034147 0.00853581
v 0.01794373 -0.02672364 0.00773177
v 0.03007818 -0.01106764 0.00349509
v 0.01751614 -0.02724038 0.02415197
v 0.00384625 -0.00001500 0.00000000
v 0.00821670 -0.03112305 0.02913662
v 0.02972303 -0.01148564 0.03078051
v 0.01516524 -0.02838931 0.02964395
v 0.03103505 -0.00996368 0.02738355
v 0.00341287 -0.03169490 0.02979705
v 0.00922396 -0.03004308 0.03079431
v 0.01547011 -0.02817712 0.00943497
v 0.02342468 -0.02228020 0.00833515
v 0.02581171 -0.01875235 0.00230392
v 0.03251941 -0.00064751 0.02130963
v 0.03249805 -0.00174997 0.02409445
v 0.01854449 -0.02604079 0.00394314
v 0.01230011 -0.02891517 0.03094459
v 0.01333876 -0.02911531 0.00724000
v 0.00963227 -0.03042854 0.00900232
v 0.00448145 -0.03156992 0.02980495
v 0.03071975 -0.00714447 0.03127212
v 0.01400599 -0.02863829 0.03018415
v 0.03178857 -0.00281850 0.00204437
v 0.02984230 -0.01212505 0.00661789
v 0.01562232 -0.02778653 0.00385706
v 0.00074727 -0.00980394 0.00000000
v 0.03239207 -0.00152952 0.02960978
v 0.03181186 -0.00474373 0.03015257
v 0.02750645 -0.01746740 0.02943441
v 0.00575743 -0.03121622 0.00697608
v 0.03233711 -0.00043850 0.00773904
v 0.00129392 -0.03185906 0.01440557
v 0.01307509 -0.02932152 0.02966805
v 0.02343890 -0.00179897 0.00000000
v 0.02348090 -0.02262473 0.02867055
v 0.01633511 -0.02758410 0.00618230
v 0.02474575 -0.02011475 0.00209352
v 0.00069265 -0.03171967 0.00809398
v 0.01067280 -0.02818095 0.03157353
v 0.01483012 -0.02860104 0.02958171
v 0.02749280 -0.01701950 0.00919096
v 0.02983216 -0.01100387 0.00124594
v 0.03090880 -0.01037914 0.02933502
v 0.00595704 -0.03145414 0.02012891
v 0.00013500 -0.03175551 0.03002945
v 0.03236049 -0.00027141 0.00837327
v 0.02965380 -0.01102293 0.00004111
v 0.01393551 -0.02855327 0.00345907
v 0.02397314 -0.02037263 0.03143520
v 0.03024515 -0.01122044 0.00728195
v 0.00172543 -0.03083712 0.03157352
v 0.02382080 -0.00000958 0.00591986
v 0.01755119 -0.02650431 0.00227047
v 0.01745468 -0.02621951 0.00027817
v 0.02146563 -0.02398106 0.00593410
v 0.01438616 -0.02834948 0.03038542
v 0.02356412 -0.02167764 0.00347015
v 0.02258387 -0.02206205 0.03129911
v 0.01256600 -0.01763255 0.00000000
v 0.00000278 -0.02760826 0.03129284
v 0.01370563 -0.02887898 0.00629972
v 0.00871746 -0.02802729 0.03157353
v 0.03090829 -0.01042065 0.02838427
v 0.01870626 -0.02593829 0.03025796
v 0.00449501 -0.03077588 0.03128621
v 0.02887543 -0.01382591 0.00310976
v 0.02935925 -0.01379609 0.01641138
v 0.00540694 -0.03158369 0.02952285
v 0.03042394 -0.01043312 0.00536614
v 0.01327207 -0.02938891 0.02412628
v 0.03177540 -0.00459119 0.03026368
v 0.02757722 -0.01721384 0.02956108
v 0.00751388 -0.02979809 0.03157352
v 0.02007584 -0.01275715 0.00000000
v 0.03052685 -0.01147759 0.02902458
v 0.01042066 -0.03049234 0.02798556
v 0.03192300 -0.00084526 0.00192961
v 0.03064334 -0.01074159 0.01886284
v 0.03179203 -0.00012441 0.00070572
v 0.02619621 -0.01941394 0.02588406
v 0.02641139 -0.01918986 0.02858650
v 0.01064822 -0.03004862 0.00678120
v 0.01180769 -0.02945334 0.00363021
v 0.00813640 -0.03035385 0.03074865
v 0.03191658 -0.00451849 0.00685920
v 0.03200973 -0.00117116 0.00269374
v 0.01556255 -0.02823126 0.01672346
v 0.01371023 -0.02925010 0.02688571
v 0.00126151 -0.03184390 0.01344513
v 0.03042569 -0.00952503 0.00190156
v 0.01272725 -0.02898251 0.00244026
v 0.02851846 -0.01453651 0.00269023
v 0.01722560 -0.02721971 0.02971747
v 0.02965295 -0.01341398 0.02401086
v 0.00341373 -0.03157018 0.00746814
v 0.02294448 -0.02218823 0.00232002
v 0.03075985 -0.00891766 0.00282565
v 0.01419107 -0.02904374 0.02743282
v 0.00409843 -0.03185432 0.02711782
v 0.01599417 -0.02745117 0.00263941
v 0.00010107 -0.02383352 0.00000000
v 0.02941971 -0.01317367 0.00672078
v 0.02285295 -0.02119275 0.03157352
v 0.03261284 -0.00032870 0.02885833
v 0.01236592 -0.02873259 0.03123231
v 0.02969179 -0.01346358 0.02729406
v 0.02704433 -0.01675818 0.00151324
v 0.02285764 -0.02195822 0.00089955
v 0.02750485 -0.01729926 0.01879159
v 0.01606563 -0.02783208 0.00753938
v 0.00836533 -0.03019697 0.00089982
v 0.02520418 -0.02070334 0.02904611
v 0.01591752 -0.02792883 0.00813609
v 0.03153800 -0.00740023 0.01435646
v 0.02257984 -0.02340032 0.02392027
v 0.02439875 -0.02087335 0.00462336
v 0.01868386 -0.02536638 0.00027737
v 0.01764397 -0.02655522 0.00299087
v 0.01561409 -0.02725079 0.03111767
v 0.03089763 -0.01022637 0.02384829
v 0.03052567 -0.01072363 0.01166128
v 0.00379869 -0.03073151 0.03149733
v 0.02086178 -0.02471639 0.01288823
v 0.00300210 -0.03163232 0.02998856
v 0.01234383 -0.02980174 0.02897871
v 0.03251503 -0.00246546 0.02875601
v 0.03196850 -0.00199402 0.00273959
v 0.00253629 -0.03160875 0.00729573
v 0.02930981 -0.01334424 0.00600643
v 0.02202306 -0.02395173 0.02576594
v 0.03259134 -0.00082007 0.02892970
v 0.00564061 -0.02307934 0.00000000
v 0.03101831 -0.00539974 0.03145078
v 0.02487339 -0.02019785 0.00342747
v 0.00109097 -0.03104839 0.03133594
v 0.03105704 -0.00770603 0.00276528
v 0.02812288 -0.01578930 0.00718697
v 0.03013269 -0.00788189 0.03157352
v 0.01493906 -0.02829851 0.00592793
v 0.00376645 -0.03175496 0.01948861
v 0.03155725 -0.00747890 0.01680893
v 0.01832383 -0.02645403 0.00677170
v 0.03181272 -0.00165068 0.00156789
v 0.02354688 -0.02227976 0.01431183
v 0.01384040 -0.01923282 0.00000000
v 0.03015793 -0.01122927 0.00567162
v 0.03142129 -0.00176863 0.03133959
v 0.03255944 -0.00025524 0.02343792
v 0.02652744 -0.01704119 0.03147125
v 0.00446153 -0.03142299 0.00741335
v 0.02866021 -0.01478269 0.00705574
v 0.01447536 -0.02861608 0.00784798
v 0.00004982 -0.03212534 0.02743814
v 0.03035514 -0.00814663 0.03148293
v 0.01299187 -0.02928237 0.00830464
v 0.00524181 -0.03172951 0.02929796
v 0.01220287 -0.02916528 0.00207070
v 0.02583328 -0.01942831 0.00852574
v 0.03104963 -0.00370019 0.03157352
v 0.02969341 -0.01329990 0.02367364
v 0.01240737 -0.02947102 0.00737967
v 0.01443273 -0.02894735 0.02826205
v 0.03161516 -0.00334668 0.00129794
v 0.02344211 -0.00226566 0.00000000
v 0.02926005 -0.01367197 0.00814159
v 0.00009547 -0.02567226 0.03157352
v 0.00718619 -0.03042761 0.03106277
v 0.02070722 -0.02473330 0.00755594
v 0.00000128 -0.03009635 0.00048432
v 0.01417999 -0.02749320 0.03157352
v 0.03040259 -0.00054095 0.03157352
v 0.00976248 -0.03052233 0.01690295
v 0.00000251 -0.03205114 0.02210139
v 0.01303722 -0.02917893 0.00633803
v 0.01897992 -0.02588942 0.00565556
v 0.00354514 -0.03154364 0.00712835
v 0.01488603 -0.01860970 0.00000000
v 0.02274635 -0.02232883 0.00205028
v 0.00940260 -0.03006149 0.03067569
v 0.01766776 -0.02653551 0.00292147
v 0.00029343 -0.03150485 0.00302393
v 0.02913558 -0.01396927 0.00841436
v 0.03016763 -0.01183006 0.02969411
v 0.02978442 -0.01184571 0.00336474
v 0.03237604 -0.00079127 0.01174323
v 0.01514472 -0.02841764 0.01484547
v 0.02314157 -0.00223538 0.00000000
v 0.03148671 -0.00652621 0.00515048
v 0.02521474 -0.01914010 0.03117804
v 0.00004218 -0.01025497 0.00000000
v 0.02248261 -0.02281229 0.03038564
v 0.03249810 -0.00195570 0.02502706
v 0.03143796 -0.00717757 0.00674753
v 0.02585518 -0.01794154 0.03157352
v 0.02895547 -0.01504247 0.02810856
v 0.01228077 -0.02889792 0.00031308
v 0.03106374 -0.00595660 0.00001205
v 0.02358206 -0.02106888 0.03114457
v 0.00544480 -0.03167950 0.02787019
v 0.00000085 -0.02622243 0.00020430
v 0.01619479 -0.01742165 0.00000001
f 486 672 390
f 534 486 349
f 486 330 349
f 172 349 330
f 317 330 486
f 486 390 317
f 414 561 41
f 534 561 414
f 508 672 486
f 321 672 583
f 583 14 321
f 151 669 646
f 16 486 534
f 534 414 16
f 16 414 486
f 64 175 14
f 586 172 38
f 38 172 330
f 244 653 330
f 244 38 653
f 210 150 635
f 682 672 321
f 321 542 682
f 26 682 542
f 672 682 26
f 427 390 672
f 672 207 427
f 62 561 534
f 534 349 62
f 349 172 62
f 486 669 437
f 437 669 151
f 437 508 486
f 151 508 437
f 486 414 240
f 321 14 96
f 96 542 321
f 529 342 212
f 330 653 298
f 298 38 330
f 653 38 298
f 103 678 639
f 639 186 103
f 372 64 14
f 357 542 5
f 5 150 357
f 542 96 5
f 5 96 64
f 527 150 210
f 357 150 527
f 208 427 207
f 390 427 208
f 208 456 648
f 330 317 208
f 208 648 330
f 672 26 142
f 142 26 542
f 542 208 142
f 200 342 529
f 529 256 200
f 679 414 41
f 679 646 414
f 151 646 679
f 529 212 679
f 445 669 486
f 486 240 445
f 445 240 669
f 669 240 258
f 175 64 651
f 64 96 651
f 14 175 651
f 651 96 14
f 410 342 24
f 410 212 342
f 614 583 672
f 672 508 614
f 508 148 614
f 79 608 497
f 586 38 509
f 38 244 629
f 244 641 629
f 558 22 110
f 480 565 639
f 263 103 186
f 263 186 639
f 639 565 263
f 69 64 338
f 69 5 64
f 460 512 174
f 408 605 285
f 334 612 152
f 226 494 92
f 339 517 155
f 155 517 594
f 158 527 210
f 313 527 158
f 158 21 313
f 210 635 158
f 339 63 324
f 441 317 390
f 390 208 441
f 441 208 317
f 9 208 207
f 9 142 208
f 9 207 672
f 672 142 9
f 256 193 666
f 424 579 675
f 343 511 145
f 195 354 523
f 189 354 640
f 640 195 202
f 640 354 195
f 659 556 683
f 120 679 41
f 77 679 120
f 388 47 307
f 67 307 428
f 388 307 67
f 516 258 240
f 414 646 516
f 516 240 414
f 574 410 178
f 178 410 24
f 178 200 574
f 24 342 178
f 342 200 178
f 257 212 131
f 250 34 590
f 326 307 47
f 608 509 341
f 341 509 282
f 341 326 608
f 428 307 341
f 307 326 341
f 496 79 497
f 586 509 613
f 613 509 608
f 446 509 38
f 38 629 446
f 573 480 639
f 50 573 276
f 50 276 113
f 19 239 249
f 654 558 110
f 110 308 654
f 129 308 564
f 129 1 558
f 558 654 129
f 129 654 308
f 249 103 593
f 593 263 249
f 103 263 593
f 21 158 28
f 28 158 635
f 246 69 338
f 338 64 246
f 64 372 246
f 663 372 14
f 663 160 372
f 339 334 597
f 612 334 136
f 594 517 264
f 415 650 408
f 267 650 415
f 403 605 408
f 408 650 403
f 12 162 678
f 614 463 627
f 627 463 151
f 71 681 122
f 313 21 122
f 184 460 174
f 174 681 184
f 88 21 577
f 71 622 141
f 141 622 577
f 260 25 15
f 15 25 555
f 648 456 544
f 357 527 197
f 197 262 357
f 527 262 197
f 15 555 533
f 456 208 386
f 386 542 357
f 386 208 542
f 527 385 617
f 617 262 527
f 617 533 262
f 305 533 617
f 313 122 638
f 638 122 681
f 638 473 313
f 502 473 638
f 110 22 273
f 22 487 273
f 487 638 105
f 72 383 374
f 203 63 339
f 339 324 477
f 524 256 529
f 524 193 256
f 93 482 532
f 93 332 482
f 424 332 93
f 170 511 343
f 532 362 584
f 584 362 466
f 451 466 647
f 466 362 647
f 365 466 451
f 619 523 354
f 574 200 99
f 256 666 99
f 99 200 256
f 594 563 404
f 95 594 226
f 300 95 226
f 189 640 75
f 397 430 425
f 425 32 397
f 579 193 572
f 455 683 556
f 118 47 388
f 118 326 47
f 117 326 118
f 561 62 528
f 675 67 57
f 596 17 57
f 57 67 596
f 57 424 675
f 57 332 424
f 151 463 541
f 541 463 614
f 541 148 508
f 541 508 151
f 97 59 440
f 282 44 337
f 337 341 282
f 428 341 337
f 337 440 596
f 337 67 428
f 596 67 337
f 312 496 497
f 284 496 312
f 630 284 62
f 630 62 172
f 304 446 629
f 304 629 641
f 510 44 282
f 282 553 510
f 558 1 353
f 22 558 353
f 565 480 412
f 595 592 306
f 480 573 530
f 573 50 530
f 564 308 501
f 501 19 564
f 564 76 643
f 643 76 637
f 37 467 565
f 520 69 372
f 372 160 520
f 571 69 577
f 571 28 69
f 21 514 571
f 48 635 150
f 150 5 48
f 5 69 48
f 372 69 444
f 444 246 372
f 69 246 444
f 14 58 213
f 213 663 14
f 512 460 658
f 323 403 650
f 152 403 323
f 323 35 152
f 226 92 78
f 92 35 78
f 275 334 152
f 152 196 275
f 287 196 152
f 152 35 287
f 287 35 92
f 80 494 226
f 594 264 102
f 102 264 517
f 517 626 102
f 255 415 181
f 585 72 540
f 447 676 631
f 113 276 402
f 113 402 154
f 154 402 12
f 624 662 498
f 600 662 624
f 43 556 659
f 659 627 43
f 43 627 151
f 151 679 43
f 201 590 34
f 250 138 201
f 201 410 250
f 212 410 201
f 329 131 212
f 174 143 204
f 581 622 71
f 71 122 581
f 581 122 622
f 622 122 295
f 526 681 174
f 174 266 526
f 577 622 268
f 268 88 577
f 71 141 125
f 125 141 184
f 125 681 71
f 125 184 681
f 460 184 632
f 184 141 632
f 632 141 577
f 577 658 632
f 632 658 460
f 435 487 22
f 11 435 22
f 139 555 180
f 180 555 25
f 652 216 383
f 15 533 604
f 604 533 305
f 395 544 456
f 456 386 395
f 262 533 395
f 357 262 395
f 395 386 357
f 305 617 606
f 606 617 385
f 313 491 606
f 606 527 313
f 606 385 527
f 550 638 286
f 286 638 487
f 487 435 286
f 231 260 15
f 231 638 550
f 487 105 309
f 374 383 601
f 383 216 601
f 185 324 63
f 39 155 540
f 339 155 39
f 39 203 339
f 540 63 673
f 63 203 673
f 673 39 540
f 203 39 673
f 340 324 285
f 340 477 324
f 339 477 56
f 56 334 339
f 56 136 334
f 126 324 411
f 411 220 126
f 126 124 485
f 485 324 126
f 485 124 324
f 233 624 408
f 408 285 233
f 484 93 666
f 484 193 579
f 484 666 193
f 579 424 551
f 424 93 551
f 628 93 532
f 221 404 202
f 511 404 221
f 221 145 511
f 221 677 145
f 511 170 418
f 418 554 511
f 442 17 596
f 525 393 665
f 133 243 235
f 466 365 611
f 46 365 633
f 523 619 146
f 451 145 146
f 548 46 574
f 574 99 548
f 292 404 563
f 292 640 202
f 202 404 292
f 475 75 640
f 640 292 475
f 475 292 300
f 475 300 226
f 475 616 425
f 495 18 430
f 430 397 495
f 529 679 392
f 679 107 279
f 279 315 471
f 279 392 679
f 471 392 279
f 369 455 556
f 388 67 238
f 238 67 675
f 238 2 388
f 269 331 579
f 315 331 269
f 471 315 269
f 579 572 269
f 670 238 675
f 2 238 670
f 77 2 299
f 77 120 645
f 41 561 625
f 561 247 625
f 567 118 388
f 388 2 567
f 117 118 94
f 94 132 117
f 118 567 94
f 94 567 2
f 2 73 406
f 406 94 2
f 132 94 406
f 117 132 278
f 278 528 667
f 667 61 278
f 278 326 117
f 303 616 598
f 539 416 303
f 250 590 169
f 169 138 250
f 590 201 169
f 169 201 138
f 116 614 148
f 116 541 614
f 326 61 674
f 497 608 674
f 608 326 674
f 596 440 623
f 623 440 59
f 440 337 453
f 97 440 453
f 453 243 97
f 453 525 243
f 119 496 284
f 284 630 119
f 282 509 381
f 509 446 381
f 565 412 399
f 399 37 565
f 347 592 449
f 449 592 595
f 214 449 595
f 595 306 452
f 421 570 644
f 130 309 105
f 249 263 377
f 377 476 249
f 377 263 565
f 565 467 377
f 439 19 249
f 249 476 439
f 13 439 476
f 13 377 467
f 476 377 13
f 564 19 13
f 19 439 13
f 429 129 564
f 564 643 429
f 1 129 429
f 1 429 465
f 465 429 643
f 160 74 610
f 610 520 160
f 74 108 610
f 610 108 577
f 577 69 610
f 69 520 610
f 21 28 254
f 254 514 21
f 28 571 254
f 254 571 514
f 577 21 31
f 31 571 577
f 21 571 31
f 655 28 635
f 635 48 655
f 69 28 655
f 655 48 69
f 384 213 167
f 663 213 384
f 384 6 663
f 378 416 539
f 8 416 378
f 519 416 250
f 250 32 519
f 519 303 416
f 519 32 425
f 616 303 519
f 425 616 519
f 114 255 181
f 267 114 375
f 257 131 322
f 322 375 114
f 35 323 187
f 187 650 267
f 187 323 650
f 267 375 187
f 35 187 413
f 413 187 177
f 626 80 351
f 351 80 226
f 226 594 351
f 594 102 351
f 351 102 626
f 494 80 23
f 23 597 494
f 339 597 23
f 459 676 176
f 176 585 459
f 459 585 676
f 531 585 540
f 676 585 531
f 531 671 676
f 176 72 128
f 128 585 176
f 72 585 128
f 84 155 594
f 594 404 84
f 511 631 40
f 289 402 276
f 12 402 289
f 276 162 289
f 162 12 289
f 66 154 12
f 582 662 113
f 113 154 582
f 483 592 127
f 624 233 127
f 127 233 483
f 181 415 657
f 408 624 657
f 657 415 408
f 518 127 592
f 599 212 257
f 599 49 212
f 49 599 536
f 536 599 199
f 344 536 199
f 135 122 21
f 135 295 122
f 109 310 245
f 245 266 174
f 245 204 109
f 174 204 245
f 109 105 359
f 359 310 109
f 25 260 649
f 260 435 649
f 435 11 649
f 492 180 25
f 661 180 492
f 367 180 661
f 407 521 555
f 271 652 383
f 271 72 176
f 383 72 271
f 271 407 652
f 230 521 676
f 544 521 230
f 676 101 230
f 458 521 544
f 544 395 458
f 458 395 533
f 458 533 555
f 555 521 458
f 228 244 330
f 228 641 244
f 27 676 447
f 27 101 676
f 419 101 27
f 260 231 434
f 434 231 550
f 550 286 434
f 547 231 15
f 547 473 502
f 502 638 547
f 638 231 547
f 313 473 547
f 547 491 313
f 72 163 454
f 417 72 63
f 417 163 72
f 63 72 270
f 270 185 63
f 324 185 215
f 215 546 324
f 215 72 374
f 374 546 215
f 324 546 81
f 358 452 126
f 376 124 483
f 483 233 376
f 324 124 376
f 285 324 376
f 376 233 285
f 666 93 373
f 93 628 373
f 532 584 506
f 506 628 532
f 576 280 192
f 370 221 202
f 677 221 370
f 511 554 168
f 419 27 620
f 620 27 636
f 242 243 149
f 360 335 17
f 17 442 360
f 360 149 335
f 242 149 360
f 532 482 436
f 482 603 436
f 557 665 343
f 557 525 665
f 235 243 557
f 243 525 557
f 45 133 235
f 382 666 466
f 466 611 382
f 121 18 574
f 574 156 121
f 46 633 227
f 145 677 115
f 115 146 145
f 115 677 523
f 523 146 115
f 451 146 664
f 664 146 619
f 619 633 664
f 664 365 451
f 664 633 365
f 224 292 563
f 409 448 75
f 75 475 4
f 4 409 75
f 4 475 425
f 188 475 226
f 598 616 188
f 104 354 189
f 104 121 354
f 18 121 104
f 574 18 198
f 18 87 198
f 198 87 410
f 589 87 18
f 410 87 589
f 55 392 471
f 471 269 55
f 618 299 2
f 2 670 618
f 579 331 618
f 675 579 618
f 618 670 675
f 111 279 107
f 293 645 505
f 505 406 293
f 293 406 73
f 505 625 609
f 609 406 505
f 609 625 247
f 528 278 513
f 355 61 326
f 326 278 355
f 355 278 61
f 148 541 371
f 371 116 148
f 541 116 371
f 50 396 205
f 205 530 50
f 621 50 347
f 347 449 621
f 217 644 328
f 86 570 421
f 421 223 86
f 328 644 60
f 277 137 190
f 421 644 607
f 644 431 607
f 30 294 512
f 30 166 294
f 30 58 14
f 30 213 58
f 30 103 249
f 678 103 30
f 19 501 211
f 211 314 19
f 174 512 112
f 112 314 143
f 112 143 174
f 512 294 112
f 294 166 112
f 112 166 239
f 309 130 219
f 219 130 501
f 219 501 308
f 564 13 479
f 479 13 467
f 401 643 637
f 401 465 643
f 100 469 663
f 663 6 100
f 100 658 577
f 108 469 100
f 577 108 100
f 90 378 539
f 598 188 90
f 90 188 226
f 257 322 225
f 225 114 181
f 225 322 114
f 375 322 33
f 33 416 8
f 33 322 416
f 8 413 537
f 537 413 177
f 537 33 8
f 540 155 680
f 680 531 540
f 153 631 676
f 153 40 631
f 676 29 153
f 153 29 40
f 301 66 12
f 301 30 14
f 301 12 678
f 678 30 301
f 14 583 301
f 583 614 301
f 614 627 301
f 301 627 659
f 212 49 301
f 659 683 301
f 301 679 212
f 683 455 301
f 455 369 301
f 301 369 556
f 301 43 679
f 556 43 301
f 154 66 535
f 535 344 662
f 536 344 535
f 624 498 82
f 82 657 624
f 259 592 347
f 259 518 592
f 259 50 113
f 347 50 259
f 171 600 624
f 416 322 660
f 660 201 34
f 462 359 105
f 462 105 638
f 472 649 11
f 472 11 22
f 352 367 22
f 652 407 194
f 216 652 194
f 194 555 139
f 194 407 555
f 194 423 216
f 521 407 405
f 405 271 176
f 407 271 405
f 176 676 405
f 676 521 405
f 474 101 544
f 544 230 474
f 474 230 101
f 288 228 101
f 641 228 288
f 288 101 419
f 419 620 288
f 288 620 636
f 288 615 641
f 636 615 288
f 544 101 91
f 101 228 91
f 91 228 330
f 330 648 91
f 648 544 91
f 283 27 447
f 206 418 283
f 283 418 170
f 665 393 488
f 540 72 274
f 72 454 274
f 72 215 297
f 297 215 185
f 489 601 216
f 216 431 489
f 220 411 379
f 379 411 324
f 126 220 379
f 379 358 126
f 575 489 431
f 374 601 575
f 601 489 575
f 595 452 387
f 452 358 387
f 576 192 468
f 343 192 588
f 588 192 280
f 343 145 261
f 261 192 343
f 195 523 591
f 202 195 591
f 591 370 202
f 523 677 591
f 677 370 591
f 53 168 554
f 318 168 53
f 123 65 170
f 343 665 123
f 123 170 343
f 44 510 464
f 464 615 44
f 510 615 464
f 345 510 553
f 345 615 510
f 345 304 641
f 641 615 345
f 446 304 345
f 345 381 446
f 481 436 603
f 481 106 436
f 280 106 481
f 393 525 443
f 503 615 636
f 366 348 525
f 525 453 366
f 366 337 44
f 366 453 337
f 44 615 366
f 615 503 366
f 366 503 636
f 346 45 235
f 603 45 346
f 164 603 482
f 490 149 243
f 243 140 490
f 252 99 666
f 666 382 252
f 252 548 99
f 432 619 354
f 574 46 350
f 46 227 350
f 350 156 574
f 98 563 594
f 98 224 563
f 594 95 98
f 426 319 95
f 95 300 426
f 292 224 562
f 562 319 292
f 438 410 574
f 574 198 438
f 438 198 410
f 18 495 183
f 183 589 18
f 478 269 572
f 478 55 269
f 299 111 327
f 77 299 327
f 327 111 107
f 645 293 251
f 251 293 73
f 77 645 251
f 251 2 77
f 251 73 2
f 173 513 278
f 173 234 513
f 656 205 396
f 76 399 656
f 656 399 412
f 450 190 644
f 552 223 421
f 552 461 223
f 637 76 500
f 76 656 500
f 500 543 214
f 396 543 500
f 500 656 396
f 328 60 500
f 291 217 328
f 291 302 217
f 493 214 595
f 569 277 595
f 569 137 277
f 580 644 570
f 580 60 644
f 570 86 580
f 580 86 223
f 320 607 431
f 22 353 320
f 239 166 165
f 166 30 165
f 249 239 165
f 398 658 311
f 167 213 398
f 213 30 398
f 19 314 364
f 314 112 364
f 239 19 364
f 364 112 239
f 311 658 420
f 658 100 420
f 378 90 222
f 226 78 222
f 222 90 226
f 147 225 599
f 147 599 257
f 662 344 363
f 363 498 662
f 181 498 363
f 363 225 181
f 155 84 236
f 236 680 155
f 296 29 84
f 296 404 511
f 296 84 404
f 511 40 296
f 40 29 296
f 179 582 154
f 154 535 179
f 662 582 179
f 179 535 662
f 507 259 113
f 518 259 507
f 518 171 457
f 127 518 457
f 457 171 624
f 10 660 322
f 578 660 34
f 416 660 578
f 578 34 250
f 250 416 578
f 422 638 681
f 422 462 638
f 25 649 566
f 649 472 566
f 144 472 22
f 22 367 144
f 144 367 661
f 144 566 472
f 180 367 54
f 367 352 54
f 499 587 54
f 447 631 229
f 229 283 447
f 229 168 318
f 229 318 206
f 206 283 229
f 636 27 85
f 85 366 636
f 348 366 85
f 216 423 42
f 423 83 42
f 538 431 216
f 499 54 361
f 361 54 352
f 134 379 431
f 431 379 316
f 316 575 431
f 316 379 324
f 316 325 575
f 324 81 316
f 549 468 192
f 549 192 451
f 451 647 549
f 642 280 576
f 602 140 243
f 354 121 290
f 290 432 354
f 300 292 36
f 36 426 300
f 292 319 36
f 319 426 36
f 368 409 430
f 430 18 368
f 18 104 368
f 448 409 368
f 391 495 397
f 391 397 32
f 391 183 495
f 391 32 250
f 589 183 391
f 250 410 391
f 410 589 391
f 380 234 568
f 568 173 609
f 234 173 568
f 159 234 380
f 159 380 561
f 513 234 159
f 561 528 159
f 528 513 159
f 232 278 132
f 232 173 278
f 132 406 232
f 406 609 232
f 609 173 232
f 70 450 644
f 277 190 191
f 190 450 191
f 394 461 637
f 637 500 394
f 223 461 394
f 394 500 60
f 394 580 223
f 60 580 394
f 634 500 214
f 214 493 634
f 634 493 217
f 328 500 634
f 634 291 328
f 217 493 389
f 595 277 20
f 20 493 595
f 515 320 431
f 22 320 515
f 499 361 515
f 515 352 22
f 515 361 352
f 248 30 249
f 249 165 248
f 248 165 30
f 658 398 470
f 470 398 30
f 512 658 470
f 470 30 512
f 257 225 433
f 433 147 257
f 225 147 433
f 265 236 84
f 84 29 265
f 400 329 212
f 161 272 52
f 27 283 52
f 52 272 488
f 52 488 27
f 65 123 253
f 161 65 253
f 253 272 161
f 27 488 157
f 157 85 27
f 157 488 393
f 393 443 157
f 443 85 157
f 281 443 525
f 281 85 443
f 431 538 522
f 356 134 431
f 356 431 644
f 644 190 356
f 374 575 237
f 575 325 237
f 237 546 374
f 68 106 280
f 280 642 68
f 7 602 243
f 164 602 7
f 380 568 559
f 559 568 609
f 450 70 51
f 217 302 209
f 209 634 217
f 302 291 209
f 291 634 209
f 668 389 450
f 217 389 668
f 450 51 668
f 423 194 333
f 333 515 431
f 333 194 587
f 431 522 333
f 333 522 83
f 333 587 499
f 499 515 333
f 182 265 29
f 676 671 182
f 182 29 676
f 10 400 336
f 660 10 336
f 336 400 212
f 83 522 504
f 504 522 538
f 545 7 243
f 243 133 545
f 3 83 423
f 423 333 3
f 3 333 83
f 164 241 560
f 603 164 560
f 164 7 89
f 89 241 164
f 218 45 603
f 603 560 218
f 669 258 516
f 516 646 669
f 678 162 573
f 639 678 573
f 573 162 276
f 494 597 287
f 287 92 494
f 287 597 334
f 334 275 287
f 287 275 196
f 612 136 56
f 152 612 56
f 56 285 605
f 56 403 152
f 605 403 56
f 56 340 285
f 477 340 56
f 93 484 551
f 551 484 579
f 625 120 41
f 625 645 120
f 505 645 625
f 62 284 674
f 674 312 497
f 674 528 62
f 667 528 674
f 674 61 667
f 284 312 674
f 586 613 119
f 119 172 586
f 608 79 119
f 79 496 119
f 119 613 608
f 119 630 172
f 452 592 483
f 452 124 126
f 483 124 452
f 452 306 592
f 160 663 469
f 469 74 160
f 469 108 74
f 415 255 114
f 267 415 114
f 23 626 517
f 23 517 339
f 23 80 626
f 135 268 622
f 21 88 135
f 622 295 135
f 88 268 135
f 434 435 260
f 434 286 435
f 15 604 547
f 305 606 547
f 547 604 305
f 547 606 491
f 506 584 466
f 466 666 506
f 666 373 506
f 506 373 628
f 360 59 97
f 97 243 360
f 360 442 596
f 360 243 242
f 596 623 360
f 360 623 59
f 425 430 4
f 430 409 4
f 616 475 188
f 315 279 111
f 111 331 315
f 111 618 331
f 299 618 111
f 621 543 396
f 621 396 50
f 449 214 621
f 214 543 621
f 211 105 109
f 143 314 211
f 109 204 211
f 211 204 143
f 211 130 105
f 501 130 211
f 110 273 219
f 219 308 110
f 219 273 487
f 487 309 219
f 479 399 76
f 479 76 564
f 467 37 479
f 37 399 479
f 539 303 90
f 90 303 598
f 537 187 375
f 177 187 537
f 375 33 537
f 535 301 49
f 49 536 535
f 66 301 535
f 181 657 82
f 82 498 181
f 274 417 63
f 274 63 540
f 274 454 163
f 163 417 274
f 185 270 297
f 297 270 72
f 451 192 261
f 261 145 451
f 554 418 53
f 53 418 206
f 206 318 53
f 282 381 345
f 345 553 282
f 346 481 603
f 346 557 343
f 343 588 346
f 235 557 346
f 346 588 280
f 280 481 346
f 252 611 365
f 252 365 46
f 46 548 252
f 252 382 611
f 562 98 95
f 95 319 562
f 224 98 562
f 193 524 478
f 478 524 529
f 478 572 193
f 529 392 478
f 392 55 478
f 327 107 679
f 327 679 77
f 656 412 480
f 530 205 656
f 480 530 656
f 320 552 421
f 421 607 320
f 320 353 1
f 637 461 320
f 1 465 320
f 320 401 637
f 465 401 320
f 461 552 320
f 420 384 167
f 167 398 420
f 6 384 420
f 420 100 6
f 420 398 311
f 222 78 35
f 8 378 222
f 222 413 8
f 35 413 222
f 363 344 199
f 199 599 363
f 599 225 363
f 662 600 507
f 113 662 507
f 600 171 507
f 507 171 518
f 624 127 457
f 422 526 266
f 681 526 422
f 266 245 422
f 422 245 310
f 310 359 422
f 359 462 422
f 661 492 144
f 144 492 25
f 25 566 144
f 54 194 139
f 139 180 54
f 587 194 54
f 511 168 229
f 229 631 511
f 482 332 602
f 602 57 17
f 332 57 602
f 17 335 602
f 602 164 482
f 335 149 602
f 149 490 602
f 602 490 140
f 290 633 619
f 619 432 290
f 290 121 156
f 290 227 633
f 156 350 290
f 290 350 227
f 75 448 368
f 189 75 368
f 368 104 189
f 277 191 20
f 20 191 450
f 450 389 20
f 20 389 493
f 131 329 400
f 400 322 131
f 400 10 322
f 52 65 161
f 170 65 52
f 52 283 170
f 253 123 665
f 665 488 253
f 488 272 253
f 348 85 281
f 525 348 281
f 356 569 595
f 358 379 356
f 595 387 356
f 356 190 137
f 356 387 358
f 137 569 356
f 379 134 356
f 237 316 81
f 237 81 546
f 325 316 237
f 68 362 532
f 532 436 68
f 68 647 362
f 576 468 68
f 68 549 647
f 436 106 68
f 468 549 68
f 68 642 576
f 561 380 559
f 559 247 561
f 559 609 247
f 668 70 644
f 644 217 668
f 668 51 70
f 531 680 182
f 671 531 182
f 680 236 182
f 236 265 182
f 201 660 336
f 212 201 336
f 504 42 83
f 216 42 504
f 504 538 216
f 7 545 218
f 133 45 218
f 218 545 133
f 218 89 7
f 218 560 241
f 241 89 218

