# https://github.com/mikedh/trimesh
v 0.12751231 -0.02625633 -0.02200909
v 0.12687092 -0.02562344 -0.02024943
v 0.12620240 -0.02739285 -0.02447270
v 0.12903615 -0.02569044 -0.02372181
v 0.12816306 -0.02603500 -0.02274502
v 0.12529286 -0.02795935 -0.02459384
v 0.12825517 -0.02639273 -0.02484790
v 0.12686993 -0.02654789 -0.02182935
v 0.12530612 -0.02687078 -0.02055508
v 0.12553581 -0.02727458 -0.02212920
v 0.12845161 -0.02566267 -0.02179632
v 0.12928614 -0.02512560 -0.02170807
v 0.12663677 -0.02616900 -0.02059769
v 0.12690092 -0.02510652 -0.01997242
f 9 14 6
f 6 14 3
f 3 7 6
f 14 7 3
f 4 14 12
f 4 7 14
f 9 8 13
f 10 9 6
f 6 8 10
f 10 8 9
f 1 8 6
f 6 7 1
f 14 9 2
f 9 13 2
f 12 14 2
f 2 13 12
f 12 13 11
f 11 13 8
f 8 1 11
f 5 1 7
f 5 11 1
f 7 4 5
f 5 4 12
f 12 11 5

