# https://github.com/mikedh/trimesh
v 0.06699916 -0.01297241 0.03000072
v 0.06584664 -0.02027567 0.02823743
v 0.05677937 -0.02566868 0.02939000
v 0.06720346 -0.03634185 0.00730102
v 0.06775154 -0.02424754 0.02424327
v 0.06206894 -0.00572830 0.03370147
v 0.06346105 -0.03722609 0.01307888
v 0.06693403 -0.03587296 0.00964786
v 0.07011940 -0.02140084 0.01692892
v 0.06858809 -0.02052147 0.02478008
v 0.06887863 -0.00034755 0.02962636
v 0.06655996 -0.03723612 0.00695640
v 0.06712755 -0.00764009 0.03093973
v 0.06886283 -0.02879871 0.01578373
v 0.06521679 -0.02947373 0.02236356
v 0.05052465 -0.04311082 0.00690307
v 0.06990412 -0.01909200 0.01956891
v 0.07237979 -0.01769696 0.00440489
v 0.06949875 -0.01050699 0.02550234
v 0.06898562 -0.01742165 0.02516274
v 0.06626010 -0.03789063 0.00573278
v 0.06502460 -0.03969581 0.00359277
v 0.07053979 -0.02397033 0.01265412
v 0.07166262 -0.02688866 0.00344278
v 0.06947735 -0.01388200 0.02430939
v 0.06804942 -0.00357688 0.03066305
v 0.06160856 -0.04280199 0.00077000
v 0.06608681 -0.03516211 0.01397826
v 0.06319199 -0.03952996 0.00845349
v 0.06861559 -0.03057751 0.01418323
v 0.07115886 -0.02590437 0.00734584
v 0.07290136 -0.01924516 0.00018999
v 0.06957253 -0.00988688 0.02527041
v 0.06923632 -0.00332736 0.02839657
v 0.07057398 -0.02687838 0.00975540
v 0.05134175 -0.02228357 0.03398170
v 0.06346638 -0.04121172 0.00293215
v 0.06810267 -0.01755383 0.02755475
v 0.07188546 -0.02710222 0.00184270
v 0.07095357 -0.01497332 0.01474579
v 0.05839257 -0.04372244 0.00108461
v 0.07298701 -0.01761253 0.00050887
v 0.06777975 -0.01521597 0.02873795
v 0.06398987 -0.03556943 0.01555663
v 0.06696906 -0.03838493 0.00003561
v 0.06971404 -0.01265892 0.02358557
v 0.05015387 -0.00042482 0.03945311
v 0.06753651 -0.03708254 0.00308930
v 0.06628371 -0.03889533 0.00116594
v 0.07203729 -0.01842126 0.00627423
v 0.05985913 -0.03749540 0.01447146
v 0.05659504 -0.04108726 0.00894764
v 0.06645187 -0.01024578 0.03102316
v 0.07304286 -0.01631213 0.00067705
v 0.06953567 -0.01881694 0.02166114
v 0.07059258 -0.02327420 0.01275947
v 0.06683442 -0.01518239 0.02942975
v 0.06562231 -0.03682521 0.01133489
v 0.05859064 -0.04385389 0.00044023
v 0.06809676 -0.00435967 0.03057774
v 0.06891487 -0.01747277 0.02540666
v 0.06701887 -0.03777898 0.00257234
v 0.06812944 -0.02948617 0.01767682
v 0.05566703 -0.01924796 0.03342996
v 0.05119405 -0.03121645 0.02724222
v 0.06928246 -0.02738409 0.01572454
v 0.06979770 -0.03059907 0.00863574
v 0.06963649 -0.00875456 0.02516439
v 0.05263091 -0.04299740 0.00618399
v 0.06675640 -0.03661121 0.00823999
v 0.06815979 -0.02511603 0.02264933
v 0.05858993 -0.03538420 0.01854727
v 0.07313476 -0.01607047 0.00018045
v 0.07090236 -0.01690286 0.01428839
v 0.05940123 -0.04263477 0.00370241
v 0.06761380 -0.02935859 0.01969624
v 0.06652685 -0.01490246 0.02972847
v 0.06405985 -0.03441799 0.01720397
v 0.05028066 -0.02278172 0.03419464
v 0.07195333 -0.00080719 0.01101595
v 0.07005422 -0.02536321 0.01409871
v 0.06059929 -0.04256137 0.00307953
v 0.07313579 -0.01632027 0.00007144
v 0.06915649 -0.02629773 0.01750408
v 0.06015668 -0.04184930 0.00526341
v 0.06947634 -0.00156816 0.02707980
v 0.06703510 -0.00993619 0.03065185
v 0.06778264 -0.00544617 0.03075183
v 0.06820362 -0.02442284 0.02320738
v 0.05280742 -0.03131595 0.02638763
v 0.07072668 -0.02924244 0.00619064
v 0.06931967 -0.01967049 0.02225682
v 0.05902320 -0.01908743 0.03195751
v 0.06668323 -0.01696557 0.02897339
v 0.06344021 -0.02905169 0.02357873
v 0.06846895 -0.01282375 0.02864678
v 0.05004181 -0.01083993 0.03843407
v 0.06684529 -0.03540257 0.01128878
v 0.06967756 -0.03385036 0.00210990
v 0.07299321 -0.01380740 0.00201286
v 0.05011209 -0.04051899 0.01338964
v 0.06628562 -0.03791542 0.00551186
v 0.06623610 -0.03427690 0.01548102
v 0.06956459 -0.01983886 0.02088026
v 0.07075703 -0.01268374 0.01684671
v 0.07009879 -0.02011617 0.01783178
v 0.05561393 -0.04114918 0.00930254
v 0.06864637 -0.00732387 0.02956100
v 0.07035151 -0.02400624 0.01365058
v 0.06824814 -0.02934558 0.01741272
v 0.06900058 -0.01139825 0.02759925
v 0.05619851 -0.04438436 0.00019816
v 0.06533212 -0.01121617 0.03138854
v 0.06841452 -0.01736307 0.02703621
v 0.07299488 -0.01566976 0.00124925
v 0.06771618 -0.02602978 0.02302688
v 0.06943719 -0.01699211 0.02315024
v 0.07363207 -0.00048980 0.00008908
v 0.06936815 -0.01549724 0.02417098
v 0.06624965 -0.03286207 0.01747150
v 0.06907717 -0.01014110 0.02771223
v 0.07106473 -0.01698892 0.01320266
v 0.06909718 -0.00555003 0.02879825
v 0.07133771 -0.01861749 0.01067489
v 0.06895516 -0.02553340 0.01923423
v 0.07056681 -0.02907637 0.00733562
v 0.06313878 -0.03585644 0.01552789
v 0.06794227 -0.00010180 0.03093880
v 0.06161949 -0.03632733 0.01552088
v 0.07353932 -0.00007641 0.00072063
v 0.06800406 -0.02654947 0.02171034
v 0.06961403 -0.01159513 0.02454731
v 0.07150998 -0.02701656 0.00422286
v 0.05265616 -0.04476378 0.00067022
v 0.05916246 -0.03692726 0.01577063
v 0.06977478 -0.01800706 0.02085958
v 0.06969150 -0.01637218 0.02217599
v 0.06895855 -0.01682547 0.02555156
v 0.07192637 -0.00769261 0.01049373
v 0.06853299 -0.02278532 0.02333239
v 0.07029295 -0.02211424 0.01542396
v 0.06991456 -0.03405158 0.00003297
v 0.06892502 -0.02183291 0.02260146
v 0.06852732 -0.00693713 0.02978976
v 0.06236389 -0.04091082 0.00604527
v 0.06699795 -0.02644512 0.02369032
v 0.07041780 -0.00017647 0.02100068
v 0.06621247 -0.03530802 0.01340652
v 0.06742210 -0.00708014 0.03081368
v 0.05548024 -0.03482616 0.02082285
v 0.06627537 -0.01189790 0.03081319
v 0.06964342 -0.03337241 0.00356354
v 0.07231225 -0.01335688 0.00656830
v 0.07324059 -0.00017963 0.00266494
v 0.06639774 -0.00586951 0.03168420
v 0.06708382 -0.02640771 0.02363569
v 0.07127220 -0.02692588 0.00570686
v 0.05073649 -0.03183517 0.02678647
v 0.06001889 -0.04135516 0.00655115
v 0.06677607 -0.03497111 0.01274473
v 0.05087103 -0.03342845 0.02489126
v 0.06763339 -0.02678002 0.02243271
v 0.06110417 -0.04045098 0.00791849
v 0.06701675 -0.02874615 0.02136384
v 0.07053466 -0.02115949 0.01443296
v 0.07145276 -0.02733161 0.00417919
v 0.07138505 -0.02858456 0.00303692
v 0.07241728 -0.01867435 0.00368889
v 0.06781267 -0.02576639 0.02303242
v 0.06994170 -0.01928656 0.01923783
v 0.05983871 -0.03530778 0.01805138
v 0.05463210 -0.00004439 0.03739176
v 0.06996134 -0.01759304 0.02001115
v 0.07147709 -0.02969516 0.00101331
v 0.07054503 -0.01578288 0.01706040
v 0.06540292 -0.01062926 0.03145127
v 0.06969725 -0.00773530 0.02494647
v 0.05068441 -0.02465077 0.03288452
v 0.05143111 -0.01960486 0.03522027
v 0.06916173 -0.03342114 0.00629317
v 0.06665238 -0.03291114 0.01675263
v 0.07216759 -0.00912224 0.00867363
v 0.07098235 -0.02979483 0.00396874
v 0.06276577 -0.03885827 0.01017985
v 0.07307070 -0.01332446 0.00165372
v 0.06932935 -0.00930630 0.02674421
v 0.05713481 -0.02674211 0.02845538
v 0.06955546 -0.00417931 0.02637560
v 0.06053083 -0.04205339 0.00448224
v 0.06416242 -0.02317922 0.02754705
v 0.06580251 -0.00499990 0.03201167
v 0.06816274 -0.00729075 0.03021824
v 0.06672850 -0.03457767 0.01382201
v 0.05022744 -0.02103737 0.03511103
v 0.06430440 -0.03221105 0.01994970
v 0.07111532 -0.03107552 0.00010985
v 0.06839438 -0.02666827 0.02009366
v 0.06769062 -0.03440243 0.01028331
v 0.05882977 -0.04278406 0.00361907
v 0.06679865 -0.03136305 0.01877649
v 0.07274210 -0.01819173 0.00185255
v 0.06959338 -0.01355349 0.02388036
v 0.06996974 -0.02711765 0.01288721
v 0.05301496 -0.03151776 0.02606763
v 0.05002994 -0.00601514 0.03921279
v 0.05946935 -0.02910127 0.02540256
v 0.07340175 -0.01116584 0.00010968
v 0.06951572 -0.00250752 0.02677051
v 0.06991336 -0.00572374 0.02389247
v 0.06966682 -0.00976234 0.02470580
v 0.06629347 -0.02240828 0.02689104
v 0.06906855 -0.00595070 0.02884039
v 0.06502723 -0.03788632 0.00978495
v 0.07055995 -0.03033243 0.00534920
v 0.06656690 -0.03844387 0.00182076
v 0.06995968 -0.00883505 0.02305395
v 0.07006582 -0.01697383 0.01963319
v 0.06501659 -0.03210697 0.01964422
v 0.06700000 -0.03788008 0.00220411
v 0.06397503 -0.04047892 0.00437079
v 0.06264370 -0.03831700 0.01139280
v 0.05867588 -0.04118737 0.00765831
v 0.05055572 -0.01303936 0.03778007
v 0.06588449 -0.01725114 0.02937151
v 0.07083228 -0.02631924 0.00886953
v 0.06668666 -0.03648656 0.00888047
v 0.06993625 -0.01802105 0.01996942
v 0.06205614 -0.00537753 0.03372435
v 0.06778024 -0.01906983 0.02737236
v 0.06708304 -0.03419318 0.01339205
v 0.05049849 -0.03071278 0.02802272
v 0.06644591 -0.03580907 0.01171346
v 0.07064921 -0.00385536 0.01927083
v 0.06929626 -0.02546744 0.01781300
v 0.06972212 -0.01238386 0.02363252
v 0.06994727 -0.00448963 0.02379585
v 0.05038343 -0.02731849 0.03114890
v 0.06524116 -0.02248306 0.02745827
v 0.05228210 -0.02565533 0.03148423
v 0.05302288 -0.03583525 0.02058055
v 0.06989340 -0.01551935 0.02138517
v 0.07041865 -0.01528273 0.01808214
v 0.06457878 -0.03489255 0.01626604
v 0.06284307 -0.01118268 0.03253133
v 0.05229481 -0.02538646 0.03166152
v 0.07138542 -0.00307085 0.01453273
v 0.06948123 -0.00354737 0.02689112
v 0.07086777 -0.02248325 0.01145934
v 0.05945093 -0.03745668 0.01474887
v 0.06884463 -0.01334772 0.02751854
v 0.06831810 -0.03370199 0.00935699
v 0.07230817 -0.02435278 0.00085437
v 0.06682265 -0.03681894 0.00735607
v 0.06754156 -0.02983825 0.01929572
v 0.06934541 -0.01917971 0.02242634
v 0.07288085 -0.01796667 0.00105176
v 0.06657188 -0.03395143 0.01532009
v 0.07048047 -0.02532591 0.01180099
v 0.07016717 -0.02113905 0.01682854
v 0.07074385 -0.01630060 0.01556221
v 0.06902604 -0.01652768 0.02540396
v 0.05021983 -0.04389462 0.00455347
v 0.06215749 -0.03797248 0.01233188
v 0.06760602 -0.02787939 0.02132277
v 0.06902391 -0.01838517 0.02446514
v 0.06178064 -0.00018442 0.03409705
v 0.07002453 -0.02792536 0.01176702
v 0.06308913 -0.00145469 0.03343373
v 0.06157676 -0.01218070 0.03291645
v 0.07042308 -0.03062974 0.00548540
v 0.06774832 -0.01738411 0.02804031
v 0.06187745 -0.03252822 0.02073808
v 0.06497413 -0.03080465 0.02114200
v 0.06283813 -0.03919079 0.00943646
v 0.07188493 -0.02753711 0.00130707
v 0.05090674 -0.02185467 0.03441377
v 0.07170545 -0.01849316 0.00837316
v 0.05890267 -0.04334066 0.00198240
v 0.05332080 -0.02879442 0.02854549
v 0.06775514 -0.01959701 0.02714559
v 0.06296837 -0.01874872 0.03026239
v 0.06627201 -0.03791429 0.00558186
v 0.05441444 -0.04464170 0.00023471
v 0.07043760 -0.02710711 0.01028804
v 0.06720427 -0.03809130 0.00016518
v 0.05564253 -0.03746925 0.01663293
v 0.06960504 -0.00184419 0.02624207
v 0.07257410 -0.01803672 0.00300600
v 0.06639007 -0.03124250 0.01955826
v 0.06959746 -0.00443270 0.02608118
v 0.05017474 -0.01190928 0.03820034
v 0.06568374 -0.02560655 0.02525523
v 0.05648433 -0.03708839 0.01683893
v 0.06855160 -0.00862281 0.02946722
v 0.06372215 -0.03613651 0.01478078
v 0.07014773 -0.01507864 0.01991521
v 0.06162972 -0.02279788 0.02895992
v 0.05001881 -0.02363449 0.03384335
v 0.07042477 -0.02266638 0.01423049
v 0.06894624 -0.02761900 0.01688368
v 0.06884225 -0.01796567 0.02540570
v 0.06834879 -0.01961052 0.02612304
v 0.06760244 -0.00779928 0.03057309
v 0.06889116 -0.00896828 0.02867782
v 0.05084609 -0.02414151 0.03313613
v 0.05550291 -0.04451966 0.00011681
v 0.05004094 -0.04221751 0.00939951
v 0.06657603 -0.03481636 0.01368746
v 0.06921962 -0.01592520 0.02471715
v 0.05838430 -0.02237301 0.03068940
v 0.05612269 -0.03135969 0.02477529
v 0.06722925 -0.02649650 0.02333317
v 0.06534527 -0.00175523 0.03237721
v 0.07313681 -0.00880309 0.00244917
v 0.06044432 -0.04328651 0.00100777
v 0.06981974 -0.00058580 0.02487861
v 0.06390015 -0.02281141 0.02790546
v 0.06849082 -0.01687773 0.02705000
v 0.07055030 -0.02462373 0.01203127
v 0.06623035 -0.01297714 0.03050940
v 0.07308558 -0.00104043 0.00361069
v 0.06906124 -0.00937869 0.02803818
v 0.06849765 -0.00513342 0.03001604
v 0.06773259 -0.00815052 0.03042307
v 0.06580332 -0.03725054 0.00976562
v 0.06889328 -0.00843215 0.02878491
v 0.07073549 -0.00386208 0.01870636
v 0.07014596 -0.02928271 0.00918239
v 0.06809156 -0.01235596 0.02930817
v 0.05295113 -0.02626449 0.03074307
v 0.06902739 -0.00822053 0.02847001
v 0.06651974 -0.03707367 0.00768195
v 0.06325653 -0.04130704 0.00309204
v 0.06653033 -0.03192879 0.01838689
v 0.06916036 -0.00204839 0.02888791
v 0.06860364 -0.03404880 0.00726430
v 0.05844424 -0.04387451 0.00049838
v 0.06107734 -0.02594466 0.02720848
v 0.05186709 -0.03735138 0.01870310
v 0.06975881 -0.02837720 0.01239029
v 0.06240758 -0.04134547 0.00474040
v 0.06378184 -0.03556518 0.01567939
v 0.05772795 -0.03726363 0.01593829
v 0.06244968 -0.03815056 0.01182712
v 0.06967646 -0.01605634 0.02240360
v 0.05050666 -0.02585660 0.03216340
v 0.06909693 -0.00647263 0.02861179
v 0.06988451 -0.01847729 0.02003319
v 0.07058950 -0.02866460 0.00768846
v 0.07065332 -0.02089765 0.01382051
v 0.06926943 -0.01850517 0.02321461
v 0.05639230 -0.00541876 0.03633881
v 0.07265866 -0.02182569 0.00015860
v 0.06900845 -0.02416191 0.02022887
v 0.05138608 -0.03454700 0.02317578
v 0.06606769 -0.03421914 0.01578724
v 0.06822062 -0.03189846 0.01351933
v 0.06905746 -0.00798209 0.02842123
v 0.05067495 -0.03652458 0.02063176
v 0.07322074 -0.01267866 0.00086138
v 0.06741622 -0.03436670 0.01154569
v 0.05977822 -0.00265993 0.03490589
v 0.07097743 -0.02758785 0.00666731
v 0.05820093 -0.04365632 0.00141678
v 0.06886580 -0.01291900 0.02763045
v 0.06781668 -0.01403462 0.02909147
v 0.06956075 -0.03078291 0.00942159
v 0.06807297 -0.02090137 0.02603956
v 0.06935120 -0.01721014 0.02347534
v 0.05181163 -0.03685417 0.01953541
v 0.06800188 -0.03710455 0.00037908
v 0.06700638 -0.01648500 0.02890282
v 0.06473424 -0.01909004 0.02931963
v 0.06891602 -0.03076288 0.01254209
v 0.07064494 -0.00013165 0.01952371
v 0.06803612 -0.02494930 0.02320331
v 0.06944343 -0.02921131 0.01256214
v 0.06834390 -0.02280459 0.02400822
v 0.06226651 -0.04144568 0.00465370
v 0.05006240 -0.04250323 0.00868395
v 0.07043318 -0.02963267 0.00720098
v 0.06989544 -0.03183263 0.00580492
v 0.07189718 -0.02682979 0.00196989
v 0.05047555 -0.04102792 0.01218766
v 0.06789040 -0.02235232 0.02533743
v 0.07106752 -0.02166811 0.01065745
v 0.06718391 -0.00921493 0.03065641
v 0.06944386 -0.00573667 0.02689188
v 0.06567047 -0.03731515 0.00997847
v 0.05563831 -0.04293782 0.00483127
v 0.06923040 -0.00080795 0.02857756
v 0.06331882 -0.03145434 0.02126951
v 0.06582169 -0.02193164 0.02745473
v 0.06817528 -0.03124530 0.01491184
v 0.07248258 -0.01889409 0.00314182
v 0.06773531 -0.02565831 0.02327983
v 0.06531196 -0.02851688 0.02313144
v 0.07190206 -0.01948332 0.00655912
v 0.07332196 -0.01209045 0.00036930
v 0.06725191 -0.03046733 0.01921648
v 0.06636545 -0.01951224 0.02828177
v 0.06070392 -0.04104630 0.00693354
v 0.07340539 -0.00944180 0.00056587
v 0.06939708 -0.02340009 0.01929723
v 0.06335959 -0.03713058 0.01333854
v 0.06308016 -0.04014627 0.00719511
v 0.07341811 -0.01038518 0.00022096
v 0.06897977 -0.01287497 0.02712528
v 0.05098079 -0.03631270 0.02082232
v 0.06769628 -0.03212652 0.01515652
v 0.06405125 -0.04031036 0.00483197
v 0.06293308 -0.04114871 0.00438839
v 0.05454261 -0.00481901 0.03722180
v 0.07076447 -0.01701550 0.01512251
v 0.06661865 -0.01620391 0.02925684
v 0.07079620 -0.00647526 0.01803057
v 0.06683784 -0.00866434 0.03099106
v 0.06599168 -0.00204647 0.03206475
v 0.06480782 -0.03927151 0.00621625
v 0.06724339 -0.02487174 0.02447902
v 0.06534886 -0.02655459 0.02475239
v 0.06533916 -0.03398112 0.01684289
v 0.06988016 -0.00596647 0.02406586
v 0.06292266 -0.03512398 0.01681839
v 0.05052955 -0.01857137 0.03606078
v 0.06751181 -0.03398209 0.01209170
v 0.05128289 -0.04507876 0.00019375
v 0.06869269 -0.02158408 0.02369480
v 0.06963313 -0.01164405 0.02442163
v 0.05447871 -0.03780211 0.01661531
v 0.06685230 -0.00250847 0.03158611
v 0.06915364 -0.03375186 0.00563578
v 0.06510160 -0.03067693 0.02118048
v 0.06115773 -0.04247126 0.00287483
v 0.06795243 -0.01156021 0.02972419
v 0.06521036 -0.03864074 0.00710882
v 0.07013571 -0.01615675 0.01955486
v 0.05862848 -0.03145668 0.02348356
v 0.06885876 -0.00632420 0.02930688
v 0.06789864 -0.03097090 0.01636310
v 0.06938858 -0.00568711 0.02722995
v 0.07176073 -0.02785807 0.00166167
v 0.06579377 -0.03841385 0.00564427
v 0.06796377 -0.02653874 0.02186649
v 0.05793550 -0.01213288 0.03460758
v 0.06822444 -0.01723480 0.02750575
v 0.06383798 -0.03486253 0.01672888
v 0.06655990 -0.00604924 0.03158328
v 0.07026821 -0.01879735 0.01746579
v 0.05006433 -0.03823431 0.01803251
v 0.06884582 -0.01399316 0.02724960
v 0.06924000 -0.01792140 0.02367455
v 0.06440459 -0.03501873 0.01621113
v 0.06880323 -0.00512581 0.02955852
v 0.06696449 -0.02756259 0.02262912
v 0.05151069 -0.00006536 0.03883367
v 0.06085490 -0.04294220 0.00185320
v 0.05001278 -0.03552142 0.02249173
v 0.06281478 -0.04048020 0.00666598
v 0.05072315 -0.02425271 0.03312204
v 0.06714999 -0.01543745 0.02912992
v 0.06642800 -0.00373352 0.03178295
v 0.07271902 -0.00847025 0.00521738
v 0.05046994 -0.01980958 0.03557145
v 0.05909583 -0.00562707 0.03508000
v 0.06823820 -0.02302642 0.02416220
v 0.06904051 -0.02574849 0.01862589
v 0.06984171 -0.00168337 0.02471206
v 0.05568063 -0.01194205 0.03567670
v 0.05336252 -0.02207936 0.03316421
v 0.06477649 -0.02865839 0.02327710
v 0.06338721 -0.04027611 0.00621449
v 0.06869296 -0.00106856 0.03001228
v 0.06666474 -0.03204129 0.01801823
v 0.05006722 -0.02590671 0.03233130
v 0.06639477 -0.03168744 0.01894082
v 0.06972612 -0.00540329 0.02515490
v 0.06789337 -0.02722677 0.02137084
v 0.06717934 -0.03246623 0.01638656
v 0.06195220 -0.04089125 0.00641416
v 0.05421401 -0.03291145 0.02393498
v 0.07174827 -0.00002028 0.01235211
v 0.06953720 -0.01634407 0.02296757
v 0.07105515 -0.00000554 0.01685371
v 0.06481097 -0.02617515 0.02531714
v 0.06952680 -0.00163269 0.02676392
v 0.05725458 -0.04417261 0.00032401
v 0.06925069 -0.03376767 0.00500590
v 0.06699768 -0.01284177 0.03004225
v 0.05689426 -0.01236645 0.03503870
v 0.05231414 -0.03574219 0.02107504
v 0.06871368 -0.01607683 0.02679457
v 0.06417451 -0.03522275 0.01601754
v 0.05602887 -0.04108179 0.00924736
v 0.06773664 -0.01105632 0.02996441
v 0.06705511 -0.02113924 0.02702885
v 0.06852122 -0.03084940 0.01415505
v 0.06700296 -0.01775698 0.02850571
v 0.07026396 -0.02832751 0.00993954
v 0.06536377 -0.03810659 0.00838283
v 0.06389192 -0.04020591 0.00544640
v 0.06884188 -0.01708235 0.02585884
v 0.06911219 -0.00297312 0.02897609
v 0.06863304 -0.01847402 0.02589975
v 0.06833990 -0.03660483 0.00017139
v 0.06277299 -0.04201138 0.00122225
v 0.07209371 -0.01906314 0.00555949
v 0.06553262 -0.03013046 0.02143156
v 0.06479517 -0.02621258 0.02529603
v 0.06828004 -0.02350983 0.02366917
v 0.06521312 -0.03950825 0.00355183
v 0.05108395 -0.04468801 0.00170525
v 0.06855714 -0.02001389 0.02522318
v 0.06940550 -0.02222034 0.02010668
v 0.06569808 -0.03837812 0.00615408
v 0.07006443 -0.01862568 0.01885874
v 0.07302780 -0.01684747 0.00055645
v 0.07021033 -0.02119096 0.01652194
v 0.05026178 -0.02831810 0.03037732
v 0.06873014 -0.00260376 0.02985100
v 0.06875489 -0.01574279 0.02680211
v 0.06704395 -0.01031529 0.03058594
v 0.06145262 -0.02255473 0.02917601
v 0.06378504 -0.01843190 0.02998175
v 0.05019253 -0.03809291 0.01823679
v 0.07136726 -0.02153026 0.00878939
v 0.06724953 -0.00411033 0.03121238
v 0.07308791 -0.00045819 0.00364706
v 0.06780382 -0.02909104 0.01940096
v 0.07313464 -0.00935973 0.00234269
v 0.06979075 -0.00159423 0.02505003
v 0.06093469 -0.04154222 0.00555282
v 0.06552960 -0.03653607 0.01214829
v 0.06475731 -0.03724017 0.01189659
v 0.06383609 -0.03617585 0.01464224
v 0.06068768 -0.04276233 0.00248072
v 0.06984609 -0.02906967 0.01093568
v 0.07346286 -0.00857340 0.00033758
v 0.06501934 -0.00036846 0.03259339
v 0.06651589 -0.03021060 0.02050815
v 0.07052472 -0.00133734 0.02028678
v 0.05639599 -0.03715712 0.01677166
v 0.06911313 -0.00737350 0.02833921
v 0.06419652 -0.03278394 0.01927928
v 0.05162934 -0.04112176 0.01138732
v 0.05348870 -0.00466755 0.03771584
v 0.06975976 -0.02675087 0.01438008
v 0.06961666 -0.01775023 0.02182120
v 0.06720020 -0.03375452 0.01397319
v 0.06730125 -0.02930083 0.02039087
v 0.06929392 -0.01936590 0.02257879
v 0.05066518 -0.04266050 0.00799538
v 0.07000955 -0.03162038 0.00565926
v 0.06953640 -0.02376801 0.01827424
v 0.05366529 -0.03713690 0.01815890
v 0.06766839 -0.03634268 0.00512019
v 0.05499762 -0.04110500 0.00971879
v 0.06981864 -0.00898326 0.02392953
v 0.06465699 -0.03476639 0.01637113
v 0.05434397 -0.03146953 0.02549396
v 0.06963428 -0.01219304 0.02424214
v 0.06174148 -0.04051495 0.00739048
v 0.06536976 -0.03662871 0.01220870
v 0.05797863 -0.03735277 0.01566943
v 0.06607236 -0.03908282 0.00134149
v 0.05017630 -0.04121562 0.01190368
v 0.05009964 -0.01472508 0.03746623
v 0.05629357 -0.00573758 0.03636413
v 0.06871803 -0.00018373 0.02999813
v 0.07106234 -0.01692869 0.01324298
v 0.07137524 -0.02983965 0.00145837
v 0.06612323 -0.02287125 0.02672447
v 0.06032759 -0.03520758 0.01795519
v 0.06963689 -0.01102928 0.02456261
v 0.06704615 -0.03763469 0.00309606
v 0.06884097 -0.02827961 0.01652068
v 0.06097149 -0.04306170 0.00106111
v 0.05322405 -0.04129581 0.01017002
v 0.05086346 -0.04483158 0.00130116
v 0.06899906 -0.03350576 0.00683725
v 0.05013345 -0.01852309 0.03626157
v 0.07005025 -0.02648886 0.01305976
v 0.06173805 -0.03940462 0.00968521
v 0.05000744 -0.00539815 0.03928883
v 0.06685648 -0.02330694 0.02582292
v 0.06574829 -0.01990973 0.02845835
v 0.05324818 -0.01939112 0.03447801
v 0.06648564 -0.03816716 0.00343838
v 0.05091945 -0.03763994 0.01868976
v 0.06697316 -0.02775251 0.02242572
v 0.06927896 -0.00391711 0.02810729
v 0.07024347 -0.02271334 0.01525177
v 0.06475876 -0.03927687 0.00631128
v 0.06761406 -0.03753371 0.00060328
v 0.05597476 -0.03468853 0.02076693
v 0.07283536 -0.01408507 0.00292727
v 0.05775338 -0.03711292 0.01616973
v 0.06799485 -0.03562968 0.00574844
v 0.07168849 -0.00906361 0.01179370
v 0.07171486 -0.02880135 0.00070787
v 0.06366049 -0.02621845 0.02581896
v 0.06905133 -0.01839349 0.02435457
v 0.05665028 -0.04432891 0.00014655
v 0.06415554 -0.03385585 0.01789432
v 0.06899151 -0.02624040 0.01827059
v 0.05180929 -0.04497440 0.00031663
v 0.05248981 -0.01217905 0.03709418
v 0.06265959 -0.03236941 0.02054910
v 0.06434012 -0.03821313 0.01038919
v 0.07020884 -0.02804494 0.01057385
v 0.06870153 -0.00082544 0.03000471
v 0.06880116 -0.02281303 0.02224310
v 0.06682057 -0.00860810 0.03101212
v 0.07118942 -0.02652339 0.00662667
v 0.07142070 -0.02882667 0.00250981
v 0.06776474 -0.01565967 0.02860630
v 0.05798999 -0.03743874 0.01551267
v 0.05005880 -0.00582880 0.03922911
v 0.06376438 -0.03652990 0.01407475
v 0.05290718 -0.04469758 0.00078173
v 0.05201152 -0.02356076 0.03296579
v 0.06246421 -0.04211166 0.00163420
v 0.06734803 -0.01167631 0.03013987
v 0.07175478 -0.01441841 0.00978364
v 0.05078187 -0.03479505 0.02313138
v 0.06965370 -0.03263843 0.00538314
v 0.06768315 -0.02709252 0.02200971
v 0.06452456 -0.02582800 0.02567756
v 0.05102759 -0.03285105 0.02550951
v 0.06697786 -0.03211289 0.01733471
v 0.07220645 -0.00065220 0.00937441
v 0.06769335 -0.03267134 0.01416482
v 0.06154942 -0.04281416 0.00085040
v 0.06978264 -0.01516927 0.02223829
v 0.06833069 -0.01266142 0.02889452
v 0.06340575 -0.04161602 0.00078829
v 0.06828324 -0.00915134 0.02973508
v 0.06520628 -0.02581083 0.02537083
v 0.06949701 -0.00081139 0.02697113
v 0.06469601 -0.02614589 0.02539108
v 0.07262746 -0.00890738 0.00573571
v 0.07315102 -0.00078467 0.00320906
f 118 427 47
f 118 47 130
f 83 142 118
f 456 130 47
f 39 275 252
f 252 275 353
f 475 519 237
f 584 6 465
f 465 6 228
f 568 6 584
f 142 83 196
f 196 83 353
f 520 454 503
f 569 503 11
f 503 335 11
f 569 484 128
f 130 456 482
f 228 6 191
f 88 192 60
f 108 454 144
f 584 97 205
f 6 568 618
f 618 568 584
f 584 205 618
f 439 454 108
f 353 83 32
f 306 427 118
f 458 519 475
f 176 618 205
f 176 205 97
f 607 291 223
f 469 291 607
f 113 291 469
f 569 128 473
f 473 128 60
f 473 520 503
f 454 520 323
f 323 144 454
f 323 473 60
f 520 473 323
f 60 192 323
f 192 144 323
f 172 128 484
f 484 482 172
f 172 482 456
f 431 128 539
f 155 191 6
f 155 618 448
f 6 618 155
f 539 546 268
f 149 88 448
f 192 88 149
f 60 128 26
f 26 88 60
f 128 88 26
f 567 223 291
f 567 291 97
f 142 196 99
f 142 371 505
f 42 32 83
f 256 32 42
f 100 185 153
f 39 252 383
f 252 56 383
f 503 454 212
f 454 439 212
f 212 439 326
f 304 212 326
f 304 439 108
f 326 439 304
f 519 65 279
f 421 485 509
f 519 458 231
f 231 65 519
f 53 176 113
f 448 618 53
f 618 176 53
f 97 291 244
f 244 176 97
f 244 291 113
f 113 176 244
f 607 223 490
f 611 503 569
f 569 473 611
f 611 473 503
f 539 128 266
f 128 172 266
f 266 172 456
f 266 456 47
f 527 88 128
f 128 431 527
f 448 88 527
f 527 431 448
f 130 375 154
f 391 335 34
f 391 11 335
f 448 431 462
f 462 155 448
f 191 155 462
f 73 42 83
f 399 73 83
f 294 144 192
f 192 637 294
f 108 144 294
f 294 304 108
f 224 401 498
f 224 490 223
f 362 268 546
f 546 413 362
f 352 546 584
f 352 413 546
f 584 465 352
f 196 626 152
f 152 99 196
f 553 626 196
f 196 270 553
f 45 565 636
f 45 505 371
f 45 636 27
f 27 59 45
f 45 59 603
f 142 505 45
f 603 306 45
f 118 142 45
f 45 306 118
f 411 333 37
f 626 553 180
f 254 400 479
f 479 440 254
f 529 254 63
f 63 254 440
f 167 183 442
f 214 270 196
f 201 32 256
f 217 437 241
f 24 133 39
f 39 383 24
f 349 133 363
f 363 267 610
f 91 183 166
f 166 133 91
f 166 183 167
f 39 133 166
f 23 383 56
f 23 24 383
f 353 32 248
f 32 526 248
f 248 252 353
f 248 56 252
f 395 526 32
f 32 201 395
f 395 201 168
f 395 248 526
f 404 9 514
f 9 104 514
f 514 143 404
f 358 347 212
f 261 451 138
f 261 408 365
f 365 451 261
f 322 304 365
f 95 15 471
f 146 15 540
f 540 156 146
f 289 400 540
f 95 279 206
f 206 15 95
f 65 15 206
f 206 279 65
f 187 509 485
f 485 601 187
f 158 458 161
f 158 231 458
f 65 231 158
f 564 405 295
f 195 392 481
f 448 53 613
f 151 53 113
f 151 490 269
f 113 469 445
f 445 151 113
f 490 151 445
f 445 469 607
f 607 490 445
f 147 154 375
f 11 391 147
f 569 11 147
f 147 375 484
f 147 484 569
f 118 130 528
f 130 154 528
f 528 642 118
f 154 80 528
f 418 431 539
f 418 462 431
f 118 642 321
f 517 73 54
f 42 73 517
f 596 73 100
f 153 399 207
f 207 399 83
f 118 538 207
f 207 83 118
f 153 185 360
f 360 399 153
f 185 100 360
f 100 73 360
f 73 399 360
f 194 464 581
f 194 79 276
f 94 224 498
f 223 567 281
f 281 567 581
f 79 194 298
f 298 194 581
f 298 97 584
f 298 567 97
f 581 567 298
f 584 458 298
f 298 458 475
f 317 298 621
f 501 411 609
f 609 406 501
f 501 406 411
f 412 333 411
f 379 333 412
f 406 459 412
f 594 371 48
f 565 45 49
f 411 37 220
f 506 37 333
f 27 636 506
f 636 37 506
f 627 478 116
f 550 540 400
f 559 218 243
f 272 481 161
f 602 265 513
f 143 602 428
f 377 374 537
f 404 125 234
f 126 267 328
f 126 183 91
f 91 133 126
f 126 133 349
f 125 612 89
f 576 478 529
f 497 63 394
f 394 63 440
f 251 632 549
f 626 180 432
f 226 4 232
f 529 478 76
f 76 254 529
f 76 627 264
f 478 627 76
f 400 254 76
f 264 550 76
f 76 550 400
f 529 63 110
f 110 576 529
f 213 389 609
f 609 500 213
f 213 500 389
f 600 174 196
f 353 275 600
f 600 196 353
f 275 442 600
f 196 174 571
f 571 214 196
f 183 214 571
f 354 612 125
f 143 612 354
f 354 125 404
f 404 143 354
f 288 201 256
f 137 348 227
f 137 227 634
f 25 408 309
f 309 408 261
f 106 227 348
f 17 104 9
f 548 137 351
f 592 23 9
f 9 23 141
f 92 602 143
f 143 514 92
f 92 514 104
f 212 347 123
f 34 335 123
f 123 335 503
f 503 212 123
f 477 233 236
f 543 358 322
f 347 358 543
f 212 304 331
f 331 358 212
f 331 304 322
f 322 358 331
f 304 294 96
f 96 365 304
f 111 365 408
f 111 121 322
f 322 365 111
f 261 369 483
f 483 309 261
f 119 309 483
f 452 369 261
f 452 602 351
f 351 137 452
f 261 138 20
f 20 452 261
f 602 452 20
f 112 306 603
f 603 16 112
f 112 16 306
f 306 16 512
f 421 471 397
f 397 471 15
f 397 146 421
f 397 15 146
f 273 392 195
f 195 218 273
f 273 218 289
f 289 433 273
f 330 187 601
f 237 187 330
f 475 237 330
f 65 158 90
f 90 15 65
f 589 564 339
f 13 149 448
f 448 613 13
f 320 151 269
f 269 490 320
f 490 224 320
f 320 224 77
f 77 151 320
f 366 461 498
f 366 616 43
f 498 616 366
f 435 366 329
f 435 637 192
f 192 324 435
f 435 294 637
f 329 635 435
f 435 96 294
f 635 96 435
f 417 613 53
f 316 391 639
f 316 147 391
f 86 486 639
f 639 391 86
f 86 391 34
f 86 208 486
f 539 268 313
f 313 418 539
f 642 233 327
f 233 477 327
f 54 73 115
f 73 596 115
f 407 538 403
f 407 207 538
f 182 530 641
f 498 461 372
f 581 464 179
f 77 224 415
f 224 94 415
f 524 224 223
f 223 281 524
f 581 179 425
f 475 245 178
f 178 298 475
f 382 180 553
f 30 374 377
f 497 374 30
f 30 63 497
f 328 374 67
f 270 214 67
f 67 553 270
f 67 382 553
f 180 382 67
f 7 274 609
f 609 534 7
f 29 406 609
f 609 274 29
f 341 459 379
f 379 412 341
f 341 412 459
f 411 406 472
f 472 412 411
f 406 412 472
f 27 333 633
f 633 577 27
f 285 45 371
f 371 594 285
f 622 333 27
f 27 506 622
f 622 506 333
f 164 550 156
f 540 550 164
f 162 627 116
f 243 534 356
f 289 540 508
f 508 540 15
f 508 433 289
f 129 564 295
f 295 127 129
f 295 405 535
f 195 481 608
f 608 272 195
f 481 272 608
f 453 534 243
f 544 218 195
f 195 272 544
f 604 453 544
f 243 218 544
f 544 453 243
f 625 355 161
f 161 458 625
f 479 400 630
f 630 257 479
f 58 389 232
f 232 308 58
f 609 389 58
f 58 534 609
f 143 428 140
f 140 612 143
f 140 89 612
f 378 140 428
f 396 156 116
f 396 5 156
f 499 126 349
f 267 126 499
f 610 267 499
f 499 363 610
f 349 363 499
f 258 81 582
f 582 225 258
f 23 592 554
f 554 9 404
f 554 592 9
f 133 24 614
f 258 225 614
f 376 89 466
f 466 368 376
f 368 396 376
f 478 576 300
f 377 537 340
f 340 537 328
f 328 267 340
f 357 394 632
f 357 632 251
f 497 394 357
f 357 374 497
f 180 374 357
f 410 440 479
f 410 394 440
f 632 394 410
f 479 549 410
f 410 549 632
f 99 152 488
f 142 99 488
f 488 152 626
f 626 432 488
f 411 220 22
f 22 220 37
f 636 565 22
f 22 37 636
f 615 442 183
f 615 600 442
f 74 437 217
f 217 241 173
f 241 634 173
f 173 634 227
f 516 106 449
f 227 106 516
f 18 175 241
f 241 260 18
f 18 288 256
f 241 175 242
f 296 634 241
f 259 17 9
f 9 141 259
f 55 17 348
f 104 17 55
f 136 348 137
f 137 548 136
f 56 248 299
f 299 23 56
f 299 141 23
f 351 602 551
f 602 92 551
f 403 538 314
f 139 463 314
f 463 641 314
f 314 209 139
f 314 530 403
f 314 641 530
f 446 96 635
f 446 635 329
f 114 96 446
f 137 483 117
f 117 483 369
f 119 483 345
f 137 634 345
f 345 483 137
f 61 138 502
f 61 20 138
f 502 138 521
f 521 492 502
f 451 492 521
f 521 138 451
f 318 492 250
f 250 365 318
f 365 96 318
f 318 96 114
f 427 306 283
f 283 606 427
f 579 47 427
f 101 384 450
f 566 384 101
f 629 158 161
f 161 481 629
f 629 481 392
f 90 560 311
f 392 273 311
f 311 273 15
f 15 90 311
f 405 564 249
f 249 51 405
f 525 458 450
f 450 51 525
f 359 589 339
f 458 525 359
f 359 525 589
f 495 435 324
f 366 435 623
f 53 151 623
f 623 495 53
f 435 495 623
f 87 417 53
f 486 208 287
f 287 531 486
f 468 531 287
f 541 468 80
f 541 531 468
f 182 641 599
f 246 321 642
f 642 327 246
f 2 586 276
f 401 586 2
f 464 194 373
f 276 586 373
f 373 524 281
f 373 194 276
f 224 524 373
f 401 224 373
f 373 586 401
f 587 179 64
f 64 425 587
f 587 425 179
f 346 245 475
f 346 239 245
f 621 298 305
f 638 485 421
f 276 238 393
f 393 2 276
f 401 2 393
f 276 79 36
f 470 238 276
f 276 36 470
f 576 110 14
f 14 30 377
f 14 110 63
f 63 30 14
f 377 340 14
f 328 67 381
f 381 67 214
f 381 126 328
f 381 214 183
f 183 126 381
f 367 374 180
f 180 67 367
f 367 67 374
f 274 7 184
f 156 540 455
f 540 164 455
f 116 156 312
f 312 162 116
f 550 162 312
f 156 550 312
f 422 559 243
f 243 356 422
f 289 218 422
f 218 559 422
f 342 44 493
f 295 44 342
f 342 127 295
f 405 7 619
f 619 535 405
f 619 7 534
f 619 453 535
f 534 453 619
f 447 453 78
f 78 453 604
f 355 625 150
f 479 257 193
f 193 549 479
f 193 160 549
f 193 308 232
f 232 160 193
f 148 308 28
f 28 58 148
f 148 58 308
f 534 58 533
f 533 58 28
f 401 393 496
f 466 89 510
f 510 378 466
f 513 378 10
f 10 378 428
f 602 513 10
f 10 428 602
f 267 284 203
f 225 582 203
f 23 554 109
f 109 554 81
f 157 363 133
f 133 614 157
f 267 363 157
f 157 614 267
f 24 23 31
f 31 614 24
f 258 614 319
f 319 31 23
f 614 31 319
f 319 81 258
f 169 396 116
f 169 376 396
f 125 89 71
f 71 131 125
f 89 376 444
f 444 71 89
f 131 71 444
f 478 131 444
f 376 169 444
f 197 300 125
f 478 300 197
f 125 131 197
f 197 131 478
f 267 203 547
f 404 234 547
f 547 554 404
f 81 554 547
f 547 582 81
f 547 203 582
f 580 357 251
f 180 357 580
f 251 432 580
f 580 432 180
f 232 4 8
f 336 432 251
f 142 488 556
f 556 4 48
f 556 371 142
f 48 371 556
f 609 411 593
f 411 22 419
f 419 593 411
f 419 436 500
f 419 500 609
f 609 593 419
f 48 4 253
f 443 419 22
f 515 436 443
f 436 419 443
f 414 74 217
f 288 74 414
f 277 516 449
f 449 124 277
f 277 124 168
f 570 18 260
f 241 242 40
f 40 296 241
f 170 259 106
f 17 259 170
f 170 106 348
f 348 17 170
f 518 259 141
f 248 395 386
f 386 299 248
f 255 55 351
f 351 551 255
f 104 55 255
f 423 477 177
f 423 209 477
f 477 209 416
f 209 314 416
f 498 401 229
f 401 496 229
f 368 446 229
f 504 318 114
f 492 318 504
f 502 492 504
f 301 61 504
f 504 61 502
f 265 301 504
f 504 513 265
f 390 278 199
f 390 199 566
f 566 199 578
f 545 384 566
f 402 51 450
f 606 283 134
f 512 579 134
f 262 512 16
f 262 579 512
f 47 579 262
f 51 583 344
f 158 629 204
f 204 629 560
f 204 90 158
f 204 560 90
f 438 629 392
f 560 629 438
f 392 311 438
f 438 311 560
f 564 589 286
f 51 249 430
f 430 525 51
f 489 623 151
f 489 151 77
f 366 623 489
f 149 417 303
f 192 149 303
f 303 324 192
f 53 495 522
f 522 87 53
f 34 123 591
f 388 188 591
f 591 86 34
f 208 86 591
f 631 80 154
f 631 541 80
f 216 599 641
f 57 372 461
f 57 489 77
f 93 425 64
f 464 373 93
f 581 425 93
f 93 179 464
f 64 179 93
f 93 281 581
f 93 373 281
f 298 178 460
f 460 305 298
f 190 238 317
f 190 638 238
f 238 638 292
f 292 638 421
f 421 146 292
f 3 338 628
f 239 338 3
f 245 239 3
f 628 338 640
f 640 638 628
f 485 638 640
f 317 238 523
f 66 14 340
f 66 300 576
f 576 14 66
f 66 340 267
f 267 547 66
f 590 164 156
f 156 455 590
f 590 455 164
f 181 630 200
f 200 474 181
f 200 630 400
f 200 400 289
f 289 476 200
f 181 474 103
f 103 193 257
f 308 193 103
f 28 308 103
f 103 356 534
f 103 533 28
f 171 72 240
f 240 72 491
f 595 150 447
f 355 150 595
f 447 150 424
f 424 453 447
f 493 453 424
f 424 342 493
f 156 5 420
f 146 156 420
f 420 585 146
f 420 496 585
f 225 203 35
f 35 203 284
f 35 614 225
f 267 614 35
f 35 284 267
f 4 160 98
f 98 8 4
f 98 160 232
f 232 8 98
f 251 549 426
f 549 160 230
f 160 361 230
f 230 426 549
f 432 336 598
f 4 556 598
f 598 488 432
f 598 556 488
f 251 361 198
f 198 336 251
f 198 361 160
f 282 575 48
f 4 226 70
f 70 253 4
f 232 389 325
f 325 226 232
f 389 500 325
f 500 436 325
f 511 22 565
f 511 443 22
f 168 201 50
f 50 277 168
f 18 570 122
f 122 74 288
f 288 18 122
f 186 543 322
f 322 121 186
f 121 19 186
f 561 19 121
f 121 111 561
f 561 408 25
f 561 111 408
f 105 407 403
f 153 207 105
f 207 407 105
f 105 100 153
f 624 40 596
f 296 40 624
f 624 596 100
f 507 395 168
f 271 616 498
f 498 229 271
f 280 496 368
f 368 229 280
f 280 229 496
f 302 504 114
f 513 504 302
f 302 378 513
f 114 446 302
f 302 446 368
f 302 368 466
f 466 378 302
f 603 59 487
f 487 16 603
f 278 41 315
f 315 59 27
f 27 577 315
f 69 552 16
f 69 390 566
f 566 552 69
f 75 578 199
f 199 278 75
f 222 402 52
f 52 402 450
f 163 583 51
f 51 402 163
f 379 459 145
f 145 434 379
f 562 29 274
f 512 134 620
f 620 134 283
f 380 262 16
f 380 552 566
f 16 552 380
f 47 262 380
f 405 51 263
f 263 344 405
f 51 344 263
f 405 344 221
f 221 7 405
f 221 184 7
f 221 344 583
f 583 163 221
f 274 184 221
f 221 562 274
f 221 163 402
f 402 562 221
f 617 249 564
f 564 286 617
f 370 359 339
f 339 555 370
f 417 87 387
f 387 303 417
f 290 388 477
f 290 188 388
f 290 477 236
f 441 591 123
f 388 591 441
f 441 123 347
f 347 543 441
f 543 186 441
f 247 188 208
f 208 591 247
f 247 591 188
f 182 599 574
f 574 530 182
f 1 57 461
f 489 57 1
f 211 496 393
f 585 496 211
f 146 585 211
f 238 470 310
f 310 523 238
f 298 317 297
f 317 523 297
f 125 300 605
f 84 66 547
f 120 103 476
f 356 103 120
f 120 476 289
f 476 103 334
f 334 103 474
f 534 533 563
f 563 103 534
f 533 103 563
f 409 240 491
f 409 491 458
f 458 359 409
f 171 424 573
f 573 424 150
f 573 72 171
f 368 496 385
f 496 420 385
f 385 420 5
f 5 396 385
f 385 396 368
f 48 253 12
f 45 219 215
f 215 49 45
f 46 561 634
f 235 561 46
f 202 345 634
f 634 561 202
f 119 345 202
f 202 561 25
f 165 518 141
f 165 350 518
f 398 507 518
f 395 507 398
f 518 350 398
f 38 229 446
f 38 271 229
f 616 271 38
f 43 616 38
f 38 366 43
f 329 366 38
f 38 446 329
f 337 487 59
f 41 487 337
f 59 315 337
f 337 315 41
f 364 41 278
f 364 487 41
f 16 487 364
f 278 390 364
f 390 69 364
f 364 69 16
f 379 434 457
f 457 315 577
f 278 315 457
f 457 75 278
f 457 333 379
f 577 633 457
f 457 633 333
f 384 545 557
f 222 52 557
f 450 384 494
f 494 52 450
f 384 557 494
f 494 557 52
f 434 145 532
f 480 145 459
f 480 562 402
f 402 532 480
f 480 532 145
f 566 101 307
f 307 380 566
f 307 101 450
f 450 458 307
f 307 458 584
f 584 47 307
f 47 380 307
f 388 441 68
f 177 477 68
f 477 388 68
f 599 216 558
f 558 574 599
f 216 68 558
f 235 105 429
f 429 561 235
f 429 105 403
f 403 530 429
f 530 574 429
f 572 393 238
f 572 211 393
f 238 292 572
f 572 292 146
f 146 211 572
f 125 605 467
f 467 84 547
f 467 234 125
f 467 547 234
f 21 282 48
f 48 12 21
f 443 282 21
f 515 443 21
f 332 12 253
f 436 12 332
f 332 325 436
f 588 215 575
f 575 215 62
f 62 215 219
f 159 402 222
f 107 578 222
f 222 557 107
f 536 457 434
f 434 532 536
f 75 457 536
f 293 370 555
f 135 343 564
f 135 597 343
f 564 129 135
f 33 441 186
f 33 68 441
f 33 186 19
f 574 68 33
f 33 429 574
f 210 68 574
f 574 558 210
f 210 558 68
f 19 561 132
f 561 429 132
f 132 33 19
f 429 33 132
f 575 282 102
f 102 588 575
f 402 159 85
f 85 532 402
f 85 159 222
f 222 578 85
f 578 75 85
f 189 536 532
f 189 85 75
f 532 85 189
f 597 293 542
f 542 293 555
f 343 597 542
f 75 536 82
f 82 189 75
f 536 189 82
f 375 482 484
f 130 482 375
f 266 546 539
f 266 47 584
f 584 546 266
f 166 442 275
f 166 275 39
f 167 442 166
f 187 237 519
f 519 279 187
f 187 471 421
f 187 279 95
f 421 509 187
f 95 471 187
f 537 374 328
f 451 365 492
f 492 365 250
f 417 13 613
f 149 13 417
f 191 462 313
f 313 465 228
f 228 191 313
f 268 362 313
f 313 352 465
f 313 362 413
f 413 352 313
f 462 418 313
f 162 550 264
f 264 627 162
f 15 273 508
f 508 273 433
f 453 44 295
f 295 535 453
f 493 44 453
f 174 600 615
f 183 571 615
f 615 571 174
f 351 55 136
f 136 548 351
f 136 55 348
f 369 452 117
f 117 452 137
f 602 20 61
f 61 301 265
f 61 265 602
f 89 140 510
f 140 378 510
f 23 109 319
f 319 109 81
f 444 169 116
f 116 478 444
f 40 517 54
f 40 18 256
f 256 42 40
f 42 517 40
f 54 115 40
f 40 115 596
f 175 18 40
f 40 242 175
f 255 551 92
f 255 92 104
f 416 327 477
f 416 538 118
f 118 321 416
f 416 314 538
f 321 246 416
f 416 246 327
f 134 579 427
f 427 606 134
f 631 316 639
f 639 486 631
f 154 147 631
f 147 316 631
f 486 531 631
f 531 541 631
f 498 372 57
f 57 94 498
f 77 415 57
f 57 415 94
f 3 190 317
f 3 317 621
f 3 178 245
f 621 305 3
f 3 460 178
f 628 638 3
f 305 460 3
f 638 190 3
f 640 601 485
f 475 330 640
f 640 330 601
f 640 346 475
f 239 346 640
f 640 338 239
f 103 630 181
f 257 630 103
f 595 272 161
f 595 544 272
f 161 355 595
f 447 78 595
f 604 544 595
f 595 78 604
f 251 426 230
f 230 361 251
f 4 598 198
f 198 160 4
f 198 598 336
f 201 288 50
f 50 414 217
f 217 173 50
f 50 173 227
f 227 516 50
f 288 414 50
f 516 277 50
f 122 260 241
f 122 241 437
f 437 74 122
f 122 570 260
f 449 106 507
f 168 124 507
f 507 124 449
f 106 259 507
f 259 518 507
f 620 283 306
f 306 512 620
f 617 286 589
f 589 525 617
f 617 430 249
f 525 430 617
f 387 495 324
f 324 303 387
f 387 522 495
f 87 522 387
f 290 528 80
f 236 233 290
f 468 287 290
f 642 528 290
f 80 468 290
f 290 233 642
f 290 287 208
f 208 188 290
f 366 489 1
f 461 366 1
f 297 36 79
f 79 298 297
f 297 470 36
f 297 310 470
f 523 310 297
f 120 422 356
f 289 422 120
f 474 200 334
f 334 200 476
f 573 625 458
f 458 491 573
f 491 72 573
f 573 150 625
f 46 624 100
f 100 105 46
f 634 296 46
f 46 105 235
f 296 624 46
f 202 309 119
f 25 309 202
f 141 299 398
f 398 386 395
f 299 386 398
f 398 165 141
f 350 165 398
f 406 29 480
f 480 459 406
f 29 562 480
f 68 463 139
f 68 641 463
f 68 423 177
f 68 216 641
f 139 209 68
f 209 423 68
f 467 605 300
f 300 66 467
f 66 84 467
f 21 12 436
f 21 436 515
f 332 70 226
f 226 325 332
f 253 70 332
f 62 594 48
f 45 285 62
f 62 285 594
f 48 575 62
f 62 219 45
f 107 545 566
f 566 578 107
f 107 557 545
f 135 424 171
f 135 129 127
f 127 342 135
f 171 240 135
f 135 409 359
f 342 424 135
f 359 370 135
f 240 409 135
f 370 293 135
f 135 293 597
f 102 282 443
f 565 49 102
f 102 511 565
f 443 511 102
f 49 215 102
f 215 588 102
f 542 555 339
f 339 564 542
f 564 343 542

