# https://github.com/mikedh/trimesh
v 0.05200264 -0.04443385 -0.10473056
v 0.05210562 -0.04279774 -0.12202782
v 0.06590765 -0.03696335 -0.12390201
v 0.07148360 -0.03264637 -0.12347032
v 0.05185664 -0.04276600 -0.12277054
v 0.05682188 -0.04264368 -0.11422970
v 0.07238647 -0.03204105 -0.11950643
v 0.05427494 -0.04206676 -0.12361973
v 0.06129323 -0.04235380 -0.10242682
v 0.07780811 -0.02125839 -0.10427617
v 0.07598175 -0.02619306 -0.11174990
v 0.07911401 -0.00835408 -0.10501075
v 0.07458306 -0.02933298 -0.11301006
v 0.07393482 -0.02830492 -0.12293182
v 0.07471003 -0.03110322 -0.10196724
v 0.06885635 -0.03826501 -0.10315857
v 0.05255047 -0.04436766 -0.10439687
v 0.06676372 -0.03968592 -0.10337014
v 0.07671187 -0.01663914 -0.12341419
v 0.07606390 -0.02579089 -0.11238443
v 0.07804685 -0.00228030 -0.11908592
v 0.05462392 -0.00050669 -0.12412407
v 0.06843545 -0.03500111 -0.12390241
v 0.07061595 -0.03535744 -0.11425574
v 0.07756483 -0.00535201 -0.12260966
v 0.07754190 -0.00436124 -0.12298938
v 0.07618240 -0.02103714 -0.12205526
v 0.06175359 -0.03999915 -0.12352994
v 0.07053173 -0.03402127 -0.12295848
v 0.07858641 -0.00016512 -0.11462195
v 0.06995836 -0.03479285 -0.12234982
v 0.07684088 -0.02122097 -0.11597921
v 0.05258023 -0.04303897 -0.11859586
v 0.07640272 -0.02619647 -0.10664562
v 0.07922156 -0.00940360 -0.10260223
v 0.06313657 -0.03933000 -0.12361437
v 0.05453751 -0.00452361 -0.12412407
v 0.07927920 -0.00059770 -0.10569987
v 0.07915076 -0.01043474 -0.10348031
v 0.06023450 -0.04265732 -0.10288852
v 0.07768547 -0.01899031 -0.11066992
v 0.06892009 -0.03836958 -0.10111088
v 0.05275681 -0.04453823 -0.10202042
v 0.07721097 -0.02003959 -0.11451064
v 0.07839889 -0.01790902 -0.10269519
v 0.07080518 -0.03494086 -0.11575597
v 0.07216780 -0.02933655 -0.12390298
v 0.07532034 -0.02432349 -0.12270338
v 0.05275964 -0.04452935 -0.10213238
v 0.06899337 -0.03567158 -0.12295767
v 0.05003789 -0.00011875 -0.12412407
v 0.07100055 -0.03409641 -0.11922579
v 0.07341453 -0.03052729 -0.11884817
v 0.07786106 -0.02090933 -0.10452871
v 0.07742689 -0.02072603 -0.11075692
v 0.05825152 -0.04317348 -0.10409485
v 0.07865167 -0.00021220 -0.11378255
v 0.07280409 -0.03436161 -0.10027755
v 0.07813879 -0.01110305 -0.11551870
v 0.06040593 -0.04034195 -0.12366585
v 0.07267147 -0.03189925 -0.11798602
v 0.07734733 -0.00614177 -0.12354788
v 0.07855758 -0.01495738 -0.10618446
v 0.07041162 -0.03417256 -0.12290918
v 0.07937488 -0.00750253 -0.10020389
v 0.06391734 -0.03914074 -0.12343763
v 0.07921806 -0.01008466 -0.10193513
v 0.07265711 -0.03449028 -0.10102474
v 0.07726922 -0.00049743 -0.12369833
v 0.07222342 -0.03493416 -0.10244421
v 0.07865557 -0.00787982 -0.11138051
v 0.07706984 -0.00399369 -0.12379385
v 0.05153423 -0.01267246 -0.12412407
v 0.07752833 -0.00023562 -0.12345455
v 0.05138575 -0.04205388 -0.12389970
v 0.07892289 -0.00016958 -0.11035270
v 0.07852592 -0.00037829 -0.11532807
v 0.05940315 -0.04195655 -0.11326227
v 0.07668838 -0.02094595 -0.11787855
v 0.06644077 -0.03865948 -0.11554878
v 0.06238621 -0.04203651 -0.10200064
v 0.07744978 -0.01081061 -0.12166394
v 0.07820612 -0.00189718 -0.11779936
v 0.07109561 -0.03445362 -0.11632114
v 0.05426667 -0.04238062 -0.12214177
v 0.05093597 -0.04481906 -0.10189700
v 0.07000280 -0.03538622 -0.11826824
v 0.07864042 -0.01458249 -0.10570194
v 0.07440301 -0.02756756 -0.12153700
v 0.07843559 -0.01665912 -0.10529932
v 0.07723149 -0.01096756 -0.12342155
v 0.07704011 -0.02436441 -0.10425688
v 0.07010909 -0.03694763 -0.10530681
v 0.07914594 -0.01178490 -0.10020349
v 0.06025248 -0.04286067 -0.10005088
v 0.07822120 -0.01045147 -0.11530442
v 0.07109411 -0.03519034 -0.11176545
v 0.07690239 -0.01730594 -0.12080097
v 0.07699170 -0.02173662 -0.11334843
v 0.06322062 -0.03974306 -0.12108818
v 0.07742826 -0.00657443 -0.12338707
v 0.07808598 -0.01765055 -0.10795745
v 0.07318051 -0.03068951 -0.12003315
v 0.07846318 -0.00640065 -0.11428743
v 0.07745023 -0.02227693 -0.10565385
v 0.05494295 -0.04350739 -0.10879030
v 0.07533217 -0.02720247 -0.11437538
v 0.07895983 -0.01200363 -0.10441669
v 0.06684439 -0.03824156 -0.11678132
v 0.05461489 -0.04154093 -0.12390022
v 0.07743160 -0.01385021 -0.11948890
v 0.06984603 -0.03744079 -0.10327137
v 0.07607981 -0.02078775 -0.12334535
v 0.05733240 -0.04229220 -0.11634614
v 0.07874193 -0.01615563 -0.10030746
v 0.07665824 -0.01371471 -0.12375689
v 0.06668313 -0.03768646 -0.12199576
v 0.06475601 -0.04098091 -0.10014046
v 0.07658470 -0.02195006 -0.11667402
v 0.07544593 -0.02253570 -0.12365537
v 0.07395177 -0.02783934 -0.12354798
v 0.05622646 -0.04155947 -0.12366243
v 0.07852223 -0.00783756 -0.11309960
v 0.07733127 -0.00230674 -0.12363108
v 0.07816013 -0.00027718 -0.11835400
v 0.07052596 -0.03558533 -0.11312214
v 0.07668652 -0.01904318 -0.12062960
v 0.07948859 -0.00023626 -0.10232936
v 0.05877643 -0.04213694 -0.11342033
v 0.06971952 -0.03734204 -0.10512707
v 0.06539646 -0.03727481 -0.12390193
v 0.07807307 -0.01783971 -0.10782442
v 0.07039125 -0.03400596 -0.12351658
v 0.07792598 -0.00766234 -0.11880195
v 0.06226779 -0.04129517 -0.11071439
v 0.07618824 -0.01863825 -0.12368148
v 0.06195034 -0.04208992 -0.10312229
v 0.07578074 -0.02864822 -0.10047547
v 0.07129536 -0.03535832 -0.10859391
v 0.07321478 -0.03355170 -0.10349993
v 0.07060370 -0.03585019 -0.11051512
v 0.05118263 -0.04125060 -0.12389967
v 0.07890425 -0.01340135 -0.10319776
v 0.07449444 -0.03151611 -0.10233140
v 0.07811142 -0.00897479 -0.11679652
v 0.07858110 -0.01385206 -0.10733270
v 0.07857448 -0.01454572 -0.10652220
v 0.07220137 -0.03421968 -0.10827586
v 0.05726531 -0.04348166 -0.10390805
v 0.06223883 -0.04100281 -0.11373602
v 0.06419294 -0.03861329 -0.12374754
v 0.07425194 -0.03051985 -0.11111316
v 0.07727791 -0.01958824 -0.11436125
v 0.06668954 -0.03997109 -0.10001822
v 0.07892441 -0.01286232 -0.10389766
v 0.07092023 -0.03632276 -0.10375262
v 0.07865401 -0.01633967 -0.10205325
v 0.07773031 -0.00258376 -0.12168373
v 0.05045075 -0.04298030 -0.12276405
v 0.07558207 -0.02435085 -0.12031729
v 0.07929399 -0.00084316 -0.10543717
v 0.07774607 -0.00104097 -0.12167975
v 0.06204346 -0.04139306 -0.11042461
v 0.07283976 -0.03077757 -0.12223191
v 0.05794764 -0.04322928 -0.10452619
v 0.07643651 -0.02663336 -0.10406374
v 0.07856332 -0.01322297 -0.10830157
v 0.05488618 -0.04217739 -0.12302991
v 0.05425327 -0.04383967 -0.10660310
v 0.05005387 -0.04471681 -0.10425111
v 0.07919013 -0.01080014 -0.10140099
v 0.05755151 -0.04370864 -0.10032089
v 0.07343138 -0.03110264 -0.11608100
v 0.07827757 -0.01221523 -0.11276613
v 0.07491626 -0.02827347 -0.11414729
v 0.07715583 -0.02290519 -0.10746455
v 0.07032684 -0.03510708 -0.11794075
v 0.07829894 -0.01004083 -0.11484272
v 0.07455255 -0.03105955 -0.10484538
v 0.07789101 -0.01044322 -0.11812554
v 0.07699725 -0.02451567 -0.10432723
v 0.07678969 -0.00686470 -0.12390358
v 0.07859997 -0.00976313 -0.11140374
v 0.07941801 -0.00007669 -0.10397992
v 0.07677290 -0.02527734 -0.10479252
v 0.07830250 -0.01802432 -0.10435720
v 0.07156414 -0.03595509 -0.10036523
v 0.05721669 -0.04115647 -0.12378577
v 0.07516977 -0.02977233 -0.10378618
v 0.07799755 -0.00105111 -0.11964127
v 0.06337951 -0.03973894 -0.12037898
v 0.05640622 -0.04238893 -0.11774065
v 0.07715151 -0.02066169 -0.11436210
v 0.05153536 -0.04467127 -0.10276576
v 0.07791629 -0.01466004 -0.11363838
v 0.07441092 -0.02984464 -0.11254134
v 0.05532243 -0.04397094 -0.10274380
v 0.07047618 -0.03469803 -0.11942427
v 0.06954925 -0.03509951 -0.12305572
v 0.07553899 -0.02692580 -0.11345012
v 0.07630834 -0.01771566 -0.12368814
v 0.05120105 -0.00791333 -0.12412407
v 0.07321171 -0.03346465 -0.10412892
v 0.07946996 -0.00426236 -0.10009060
v 0.06672933 -0.03879254 -0.11285414
v 0.05017908 -0.01152145 -0.12412407
v 0.07699996 -0.01858421 -0.11833042
v 0.07920787 -0.00646193 -0.10447458
v 0.06159826 -0.03976640 -0.12375075
v 0.06578506 -0.03893092 -0.11626837
v 0.07389950 -0.03268703 -0.10036407
v 0.06934974 -0.03778693 -0.10412536
v 0.06416074 -0.03793032 -0.12390174
v 0.07556082 -0.02619369 -0.11599795
v 0.05839299 -0.04152712 -0.12094911
v 0.07664855 -0.01709236 -0.12342272
v 0.07419352 -0.03091420 -0.10986985
v 0.05077827 -0.04332026 -0.11860059
v 0.07299967 -0.03047543 -0.12231743
v 0.07639138 -0.02575857 -0.10821539
v 0.07839101 -0.01171418 -0.11215274
v 0.07027126 -0.03443604 -0.12234987
v 0.06487451 -0.03905366 -0.11961077
v 0.05622255 -0.04206136 -0.12133447
v 0.07755781 -0.01323755 -0.11889449
v 0.07738197 -0.01961596 -0.11322152
v 0.07536033 -0.02298344 -0.12363978
v 0.07692347 -0.01263509 -0.12361501
v 0.07800800 -0.02116368 -0.10008379
v 0.07734742 -0.02328497 -0.10370689
v 0.06661586 -0.03764621 -0.12265364
v 0.07579958 -0.02575428 -0.11528836
v 0.07677713 -0.02588082 -0.10180031
v 0.07373449 -0.03147326 -0.11142211
v 0.06739135 -0.03908734 -0.10594841
v 0.07098237 -0.03412170 -0.11921765
v 0.06622780 -0.03783100 -0.12321685
v 0.06308063 -0.03951710 -0.12348461
v 0.05466721 -0.00374891 -0.12412407
v 0.07334441 -0.02955935 -0.12330173
v 0.06996216 -0.03694436 -0.10655316
v 0.06441035 -0.03859893 -0.12366419
v 0.06012219 -0.04072096 -0.12311306
v 0.05152885 -0.00003299 -0.12412407
v 0.05667241 -0.04242529 -0.11674235
v 0.07470863 -0.02467625 -0.12384296
v 0.05783467 -0.04199524 -0.11790463
v 0.07522910 -0.02664556 -0.11742346
v 0.05516559 -0.04416695 -0.10055389
v 0.07677684 -0.02158520 -0.11576614
v 0.07842765 -0.00052191 -0.11617072
v 0.05311088 -0.04278748 -0.12018763
v 0.07246121 -0.03425531 -0.10563092
v 0.06379021 -0.03931127 -0.12250364
v 0.07822475 -0.01132545 -0.11443382
v 0.06494176 -0.03961105 -0.11383761
v 0.06957450 -0.03545913 -0.12059295
v 0.05316083 -0.00936422 -0.12412407
v 0.07956356 -0.00090981 -0.10008776
v 0.07735447 -0.02023975 -0.11270988
v 0.05217022 -0.04293276 -0.12048178
v 0.07753103 -0.02109306 -0.10840677
v 0.06217634 -0.03946928 -0.12379998
v 0.07558266 -0.02639872 -0.11508831
v 0.07788979 -0.02130212 -0.10232179
v 0.07365310 -0.02520197 -0.12390319
v 0.07087135 -0.03404844 -0.12046518
v 0.06679036 -0.03688781 -0.12380988
v 0.05725179 -0.04251615 -0.11439724
v 0.07119028 -0.03579488 -0.10598358
v 0.05921627 -0.04299101 -0.10277103
v 0.06633341 -0.03996913 -0.10264265
v 0.07686022 -0.02543699 -0.10250760
v 0.07900173 -0.00016876 -0.10935174
v 0.06738965 -0.03652235 -0.12374809
v 0.07775924 -0.02163101 -0.10363279
v 0.07610010 -0.01843023 -0.12378175
v 0.07087092 -0.03556373 -0.11069565
v 0.05219808 -0.04369360 -0.11231511
v 0.07135034 -0.03242858 -0.12366461
v 0.07100255 -0.03545256 -0.11052742
v 0.07803170 -0.00148694 -0.11933197
v 0.07795944 -0.02087537 -0.10267989
v 0.07739383 -0.00981222 -0.12252518
v 0.07583173 -0.01786817 -0.12390350
v 0.05918795 -0.04298615 -0.10292848
v 0.05542719 -0.04205035 -0.12326388
v 0.07891594 -0.01038532 -0.10687181
v 0.07167167 -0.03288889 -0.12067024
v 0.07201300 -0.03192838 -0.12293420
v 0.07206658 -0.03506228 -0.10335381
v 0.07791105 -0.01210159 -0.11669205
v 0.07893536 -0.01405128 -0.10063998
v 0.07375498 -0.03079292 -0.11510170
v 0.06461694 -0.03906378 -0.12077247
v 0.06349203 -0.03932866 -0.12348080
v 0.07687340 -0.01994693 -0.11779295
v 0.07412171 -0.02769349 -0.12345898
v 0.06523221 -0.00000174 -0.12122932
v 0.06617604 -0.03834104 -0.11949987
v 0.07840393 -0.01730237 -0.10443635
v 0.07612899 -0.00010939 -0.12123995
v 0.07424042 -0.03208310 -0.10074174
v 0.07846076 -0.00101312 -0.11576334
v 0.06331735 -0.04143702 -0.10394542
v 0.05661196 -0.04248791 -0.11628951
v 0.05750706 -0.04308930 -0.10748802
v 0.06256470 -0.04032217 -0.11860719
v 0.06432012 -0.04098005 -0.10326489
v 0.05822792 -0.04138104 -0.12275333
v 0.07703320 -0.02465803 -0.10303145
v 0.07028479 -0.03724746 -0.10011904
v 0.05441764 -0.04208244 -0.12358120
v 0.05572873 -0.04391627 -0.10241832
v 0.07593498 -0.02587074 -0.11380842
v 0.07590308 -0.02546092 -0.11501332
v 0.07673827 -0.02537057 -0.10494293
v 0.06220892 -0.04092165 -0.11464420
v 0.07781225 -0.02120224 -0.10440249
v 0.07656224 -0.02658705 -0.10193339
v 0.07893611 -0.00478257 -0.10877810
v 0.07651388 -0.01370708 -0.12386473
v 0.07928872 -0.00925674 -0.10079114
v 0.06256945 -0.04174793 -0.10471750
v 0.05123518 -0.04171978 -0.12389968
v 0.05422201 -0.04419757 -0.10265176
v 0.07715623 -0.01127429 -0.12351465
v 0.07427264 -0.02987692 -0.11398994
v 0.06688791 -0.03974603 -0.10168714
v 0.07927885 -0.00444240 -0.10429636
v 0.05001942 -0.04138028 -0.12165255
v 0.05638214 -0.04293959 -0.11196511
v 0.07210664 -0.03493540 -0.10397415
v 0.05665772 -0.04293429 -0.11141286
v 0.06213811 -0.03996745 -0.12314193
v 0.07696443 -0.01871040 -0.11851462
v 0.05251282 -0.01083501 -0.12412407
v 0.07568660 -0.02394721 -0.12027515
v 0.05147388 -0.04280872 -0.12293559
v 0.07490770 -0.02703627 -0.11891700
v 0.07786355 -0.01481914 -0.11400868
v 0.07857905 -0.01730322 -0.10009514
v 0.05704900 -0.04323142 -0.10720188
v 0.07896279 -0.00970582 -0.10652963
v 0.07733136 -0.01441247 -0.11984488
v 0.07467321 -0.03140652 -0.10011675
v 0.06558073 -0.03831124 -0.12257439
v 0.07694129 -0.01848726 -0.11900532
v 0.06250001 -0.03877914 -0.12390148
v 0.05384969 -0.04406606 -0.10495957
v 0.07749242 -0.00398843 -0.12345875
v 0.07771898 -0.01610701 -0.11396704
v 0.07233306 -0.03420715 -0.10721402
v 0.07870864 -0.00690954 -0.11101652
v 0.07004705 -0.03717106 -0.10391642
v 0.07743264 -0.00641140 -0.12340824
v 0.07326355 -0.03319862 -0.10525835
v 0.07519033 -0.02041403 -0.12390341
v 0.07505653 -0.02464555 -0.12355659
v 0.05648333 -0.04290532 -0.11212723
v 0.07637134 -0.01360303 -0.12390356
v 0.05214649 -0.04447315 -0.10407767
v 0.06717469 -0.03898733 -0.10836288
v 0.07832114 -0.00068130 -0.11703446
v 0.07405835 -0.03113166 -0.11012473
v 0.05476791 -0.00002650 -0.12224785
v 0.07682181 -0.02193969 -0.11458489
v 0.07151937 -0.03535774 -0.10645579
v 0.05236555 -0.04380870 -0.11078034
v 0.07738540 -0.01073692 -0.12226723
v 0.05003686 -0.04323825 -0.12043435
v 0.07628970 -0.02020130 -0.12246323
v 0.07595298 -0.02137590 -0.12341615
v 0.07874541 -0.01546667 -0.10262500
v 0.07839395 -0.00888686 -0.11432470
v 0.06943560 -0.03405241 -0.12390256
v 0.07338322 -0.03334965 -0.10260944
v 0.06996385 -0.03397754 -0.12380490
v 0.07661404 -0.02311057 -0.11384516
v 0.06695191 -0.03728441 -0.12337303
v 0.07941073 -0.00038307 -0.10408384
v 0.07654012 -0.02659347 -0.10237805
v 0.05050158 -0.04499986 -0.10021286
v 0.06856833 -0.03804536 -0.10721587
v 0.05789846 -0.04082493 -0.12390075
v 0.07501372 -0.02513653 -0.12334524
v 0.06273235 -0.04191053 -0.10210777
v 0.07096945 -0.03632285 -0.10326877
v 0.07029273 -0.03505491 -0.11849638
v 0.06570623 -0.03798898 -0.12355437
v 0.07851600 -0.01069020 -0.11185878
v 0.07843890 -0.00527974 -0.11485630
v 0.06174824 -0.04127972 -0.11268304
v 0.07366519 -0.03085846 -0.11548275
v 0.07657720 -0.02073206 -0.11918338
v 0.07642809 -0.01906988 -0.12294280
v 0.07278710 -0.03002164 -0.12369663
v 0.07921525 -0.00876817 -0.10317695
v 0.07857613 -0.00785113 -0.11241133
v 0.07749908 -0.00573903 -0.12308929
v 0.07921453 -0.00929182 -0.10284500
v 0.07625618 -0.02446916 -0.11405235
v 0.07114740 -0.03470671 -0.11437779
v 0.07316020 -0.02670700 -0.12390312
v 0.06764282 -0.03944182 -0.10004623
v 0.07923121 -0.00168587 -0.10597706
v 0.07704759 -0.02504503 -0.10009837
v 0.06205424 -0.04107538 -0.11379719
v 0.07786759 -0.00766560 -0.11930962
v 0.07755015 -0.00041705 -0.12327458
v 0.07801657 -0.01339494 -0.11412379
v 0.06662871 -0.03773540 -0.12189719
v 0.07666694 -0.01544315 -0.12361009
v 0.05234433 -0.04424467 -0.10614409
v 0.07850239 -0.01098477 -0.11170010
v 0.07481468 -0.02868368 -0.11344572
v 0.07238149 -0.03450666 -0.10452780
v 0.07881731 -0.01485796 -0.10205908
v 0.05504519 -0.04404725 -0.10248928
v 0.07762948 -0.01310922 -0.11835705
v 0.07446828 -0.03134307 -0.10428540
v 0.07344478 -0.03313017 -0.10377303
v 0.07380912 -0.03064826 -0.11525950
v 0.07589606 -0.02804193 -0.10351910
v 0.06829107 -0.03863599 -0.10378536
v 0.07787338 -0.00101093 -0.12065282
v 0.07698860 -0.00026335 -0.12390357
v 0.06956270 -0.03777273 -0.10248512
v 0.05030420 -0.01441075 -0.12412407
v 0.05145298 -0.04468717 -0.10270594
v 0.07933709 -0.00864763 -0.10005730
v 0.06296007 -0.03983909 -0.12133177
v 0.07679577 -0.01596460 -0.12337741
v 0.05881239 -0.04132097 -0.12176804
v 0.07934496 -0.00308143 -0.10386669
v 0.07608255 -0.02553242 -0.11297672
v 0.07645203 -0.02031092 -0.12090483
v 0.07675484 -0.02620254 -0.10034760
v 0.06644749 -0.03986307 -0.10326206
v 0.07738539 -0.00324337 -0.12357381
v 0.06700442 -0.03860870 -0.11298283
v 0.05049785 -0.00785582 -0.12412407
v 0.06622244 -0.04001391 -0.10283213
v 0.07760821 -0.00483270 -0.12235795
v 0.07943390 -0.00099062 -0.10313403
v 0.07766110 -0.00203870 -0.12231058
v 0.07844059 -0.01622955 -0.10585487
v 0.05720225 -0.04270360 -0.11259250
v 0.05275156 -0.01029794 -0.12412407
v 0.05002863 -0.04493043 -0.10193546
v 0.06747157 -0.03670240 -0.12355440
v 0.07088296 -0.03388368 -0.12133875
v 0.07668079 -0.02029996 -0.11895295
v 0.07539770 -0.02375228 -0.12323720
v 0.07907500 -0.00358251 -0.10737929
v 0.07203041 -0.03215155 -0.12170273
v 0.06497732 -0.03962196 -0.11355135
v 0.07881813 -0.01460121 -0.10268521
v 0.07372700 -0.03119122 -0.11315872
v 0.06841421 -0.03859731 -0.10325802
v 0.07617070 -0.02277355 -0.11854800
v 0.07336804 -0.03051777 -0.11925183
v 0.06208532 -0.04219119 -0.10120321
f 259 51 383
f 450 51 331
f 450 383 51
f 128 51 259
f 128 184 51
f 331 51 206
f 206 159 331
f 184 299 366
f 74 299 302
f 302 299 184
f 371 450 331
f 331 159 371
f 182 239 427
f 182 62 327
f 22 239 51
f 427 239 22
f 228 116 327
f 450 371 170
f 170 371 159
f 450 170 430
f 73 47 376
f 159 206 142
f 69 427 74
f 74 124 69
f 69 124 427
f 440 124 74
f 72 182 427
f 62 182 72
f 427 124 72
f 72 440 62
f 124 440 72
f 244 22 51
f 427 22 244
f 244 366 299
f 74 427 244
f 244 299 74
f 51 184 244
f 184 366 244
f 442 206 51
f 51 239 442
f 239 202 442
f 128 445 381
f 184 128 381
f 383 450 86
f 450 430 86
f 218 170 159
f 218 430 170
f 159 1 218
f 218 1 430
f 259 383 95
f 95 431 259
f 421 15 346
f 358 258 37
f 337 47 73
f 47 258 404
f 159 75 339
f 429 142 206
f 206 442 429
f 429 442 202
f 73 376 429
f 429 202 239
f 429 258 73
f 429 37 258
f 239 37 429
f 424 346 15
f 274 381 38
f 184 381 274
f 327 62 356
f 356 91 327
f 194 43 383
f 383 86 194
f 194 86 430
f 194 1 362
f 430 1 194
f 172 95 383
f 405 428 42
f 135 393 408
f 243 310 287
f 306 168 287
f 259 431 204
f 431 65 204
f 375 77 104
f 375 392 77
f 407 346 438
f 438 229 407
f 239 182 361
f 322 361 182
f 327 116 322
f 322 182 327
f 216 396 113
f 216 113 373
f 449 258 47
f 47 337 449
f 73 258 449
f 449 337 73
f 266 258 358
f 266 404 258
f 378 376 47
f 397 378 47
f 280 378 397
f 4 397 240
f 280 397 4
f 240 423 53
f 325 429 75
f 142 429 325
f 325 75 159
f 159 142 325
f 75 429 110
f 110 429 385
f 213 429 131
f 131 429 3
f 131 263 213
f 151 263 131
f 23 429 376
f 3 429 23
f 376 378 23
f 217 179 421
f 166 424 189
f 179 11 189
f 421 179 189
f 189 15 421
f 189 424 15
f 77 392 304
f 190 364 446
f 74 410 446
f 125 364 426
f 426 364 190
f 190 446 426
f 76 274 38
f 321 406 455
f 455 406 381
f 38 381 161
f 381 406 161
f 327 91 433
f 137 40 324
f 369 414 362
f 383 43 249
f 249 172 383
f 137 324 81
f 324 387 81
f 66 390 237
f 16 428 405
f 405 460 16
f 213 263 349
f 349 263 385
f 349 429 213
f 385 429 349
f 36 263 151
f 243 287 60
f 287 122 60
f 224 287 310
f 313 122 287
f 313 287 339
f 34 11 315
f 166 189 34
f 34 189 11
f 276 438 230
f 138 438 346
f 203 140 353
f 421 346 144
f 346 303 144
f 144 140 421
f 372 113 396
f 27 373 113
f 358 37 285
f 285 37 239
f 239 361 285
f 361 322 285
f 322 277 285
f 246 266 358
f 358 285 246
f 246 285 277
f 404 266 246
f 47 404 246
f 246 397 47
f 216 373 136
f 201 277 322
f 201 136 277
f 216 136 201
f 237 390 380
f 397 246 121
f 222 198 31
f 164 240 219
f 164 4 240
f 133 378 280
f 280 4 133
f 219 240 462
f 240 53 462
f 33 252 6
f 6 168 306
f 434 310 243
f 243 408 434
f 434 408 393
f 2 252 33
f 268 23 378
f 3 23 268
f 268 390 151
f 151 131 268
f 268 131 3
f 365 217 421
f 200 11 179
f 179 217 200
f 315 11 200
f 77 304 251
f 251 125 77
f 251 364 125
f 351 446 158
f 74 446 351
f 351 356 62
f 400 356 351
f 351 26 400
f 351 440 74
f 62 440 351
f 162 446 410
f 162 426 446
f 57 76 38
f 327 433 19
f 135 324 163
f 163 324 40
f 163 393 135
f 362 414 17
f 279 369 362
f 95 172 463
f 172 81 463
f 463 81 387
f 463 118 95
f 463 387 118
f 172 40 9
f 9 81 172
f 9 40 137
f 137 81 9
f 238 66 432
f 432 335 238
f 151 390 242
f 390 66 242
f 254 432 66
f 235 460 405
f 235 425 460
f 58 140 377
f 58 187 70
f 428 16 212
f 384 50 212
f 50 130 212
f 460 425 212
f 212 16 460
f 31 198 46
f 46 52 84
f 296 66 238
f 238 36 296
f 296 36 151
f 151 242 296
f 296 242 66
f 385 263 209
f 209 60 385
f 385 60 188
f 188 60 122
f 306 287 192
f 192 224 306
f 287 224 192
f 306 224 245
f 8 339 75
f 8 313 339
f 75 110 8
f 8 110 385
f 385 188 8
f 122 313 8
f 8 188 122
f 435 330 381
f 435 39 330
f 435 381 445
f 431 94 171
f 35 39 401
f 35 65 431
f 123 375 104
f 183 178 375
f 183 123 399
f 375 123 183
f 91 356 101
f 375 178 134
f 166 273 233
f 233 273 438
f 230 438 311
f 438 273 311
f 438 138 320
f 320 138 346
f 421 140 422
f 422 140 203
f 84 203 148
f 203 353 148
f 454 386 373
f 373 386 359
f 120 246 277
f 277 136 120
f 120 136 373
f 413 322 116
f 413 201 322
f 116 228 413
f 413 228 327
f 327 19 413
f 413 19 216
f 216 201 413
f 14 423 240
f 14 89 423
f 50 109 117
f 117 380 50
f 298 359 386
f 298 14 240
f 240 397 298
f 397 121 298
f 89 14 298
f 298 121 246
f 246 359 298
f 31 199 64
f 64 222 31
f 199 133 64
f 168 6 85
f 85 6 252
f 85 2 168
f 252 2 85
f 310 434 215
f 215 434 247
f 168 2 5
f 5 287 168
f 339 287 5
f 378 133 275
f 275 268 378
f 459 365 234
f 459 234 203
f 203 357 459
f 423 217 294
f 217 365 294
f 365 459 294
f 294 459 173
f 423 89 328
f 328 217 423
f 315 316 402
f 83 251 304
f 364 251 282
f 158 446 282
f 282 446 364
f 30 57 77
f 77 125 30
f 30 125 74
f 74 302 30
f 30 302 184
f 76 57 30
f 184 274 30
f 274 76 30
f 78 434 393
f 307 78 393
f 33 369 261
f 369 279 261
f 261 2 33
f 362 17 49
f 49 194 362
f 43 194 49
f 33 6 360
f 347 66 237
f 237 300 347
f 80 300 109
f 335 432 308
f 305 387 324
f 305 309 387
f 305 324 205
f 205 309 305
f 363 235 18
f 205 363 18
f 18 235 405
f 211 303 346
f 346 58 211
f 211 58 377
f 187 58 312
f 312 346 405
f 312 58 346
f 405 42 312
f 312 42 428
f 140 58 68
f 281 139 270
f 270 139 368
f 50 199 257
f 257 87 50
f 241 130 50
f 50 87 241
f 31 46 389
f 389 46 177
f 24 87 177
f 177 46 24
f 24 241 87
f 452 52 236
f 52 46 236
f 263 36 28
f 28 209 263
f 28 36 238
f 60 209 28
f 243 60 28
f 28 335 243
f 238 335 28
f 220 34 315
f 401 39 398
f 39 435 398
f 67 35 431
f 39 35 67
f 67 171 39
f 71 183 399
f 91 370 82
f 370 96 82
f 180 96 370
f 178 96 180
f 284 370 91
f 91 101 284
f 145 134 178
f 373 27 79
f 382 233 438
f 438 320 382
f 166 233 382
f 382 424 166
f 346 424 382
f 382 320 346
f 403 46 84
f 84 148 403
f 403 148 353
f 386 454 48
f 373 359 227
f 227 120 373
f 227 359 246
f 246 120 227
f 237 380 231
f 380 117 231
f 412 300 237
f 237 231 412
f 412 231 117
f 109 300 412
f 412 117 109
f 29 133 4
f 29 64 133
f 29 4 452
f 4 164 290
f 289 357 203
f 289 203 84
f 84 52 289
f 452 4 289
f 289 52 452
f 451 275 133
f 451 133 199
f 451 380 390
f 451 199 50
f 50 380 451
f 390 268 451
f 268 275 451
f 394 294 173
f 103 164 219
f 103 394 164
f 294 394 103
f 416 200 217
f 217 13 416
f 416 328 200
f 13 328 416
f 315 200 107
f 196 328 13
f 21 251 444
f 251 83 444
f 444 26 21
f 400 26 444
f 78 307 129
f 434 78 129
f 172 314 149
f 350 49 17
f 326 49 350
f 332 369 33
f 33 360 332
f 210 80 205
f 205 80 441
f 441 80 109
f 441 363 205
f 441 50 384
f 441 109 50
f 335 308 318
f 318 408 243
f 243 335 318
f 457 324 135
f 135 256 457
f 205 324 457
f 256 210 457
f 457 210 205
f 439 309 205
f 205 18 439
f 387 309 439
f 388 270 187
f 253 353 140
f 291 333 140
f 140 68 291
f 70 187 291
f 187 270 291
f 368 333 291
f 291 270 368
f 452 236 267
f 267 236 46
f 448 129 307
f 448 149 6
f 307 149 448
f 20 220 315
f 431 171 323
f 323 67 431
f 171 67 323
f 39 344 12
f 183 344 288
f 288 344 39
f 354 71 399
f 455 71 354
f 321 455 354
f 400 134 409
f 134 145 409
f 265 283 229
f 229 438 265
f 438 276 265
f 113 372 395
f 181 311 273
f 273 185 181
f 166 34 317
f 317 273 166
f 317 185 273
f 34 220 317
f 97 403 353
f 97 139 281
f 46 403 97
f 281 24 97
f 97 24 46
f 4 290 456
f 61 459 357
f 357 289 61
f 173 459 61
f 248 214 315
f 340 328 89
f 89 248 340
f 340 248 107
f 152 13 217
f 152 196 13
f 217 328 152
f 328 196 152
f 315 402 379
f 25 134 400
f 400 444 25
f 172 149 165
f 165 149 307
f 165 307 393
f 197 149 314
f 334 360 6
f 169 350 17
f 295 254 66
f 432 254 100
f 95 118 154
f 118 387 154
f 431 95 154
f 154 229 431
f 407 229 154
f 405 346 154
f 154 346 407
f 140 333 417
f 417 253 140
f 278 24 281
f 278 141 24
f 241 24 126
f 126 141 241
f 24 141 126
f 269 114 247
f 247 434 269
f 269 448 6
f 434 129 269
f 129 448 269
f 269 6 306
f 245 114 269
f 306 245 269
f 330 39 208
f 39 12 208
f 178 183 391
f 183 288 391
f 391 96 178
f 458 418 374
f 374 143 458
f 94 115 293
f 374 418 293
f 293 115 374
f 229 115 342
f 342 115 94
f 431 229 342
f 342 94 431
f 157 115 229
f 374 115 157
f 157 301 374
f 90 88 374
f 374 301 90
f 437 395 372
f 127 396 216
f 230 311 92
f 311 181 92
f 338 48 461
f 338 160 48
f 232 160 316
f 48 160 232
f 232 316 315
f 386 48 232
f 315 214 232
f 173 61 7
f 4 456 7
f 7 289 4
f 7 61 289
f 315 107 264
f 264 248 315
f 107 248 264
f 328 340 175
f 175 340 107
f 200 328 175
f 175 107 200
f 367 379 402
f 271 40 172
f 326 197 419
f 419 197 314
f 419 49 326
f 6 149 343
f 343 334 6
f 106 169 17
f 360 169 106
f 106 332 360
f 106 17 414
f 414 369 106
f 369 332 106
f 223 295 80
f 80 210 223
f 254 295 223
f 135 408 150
f 408 318 150
f 150 256 135
f 318 100 150
f 329 439 18
f 329 18 405
f 405 154 329
f 329 154 387
f 270 388 156
f 241 141 93
f 93 355 241
f 130 241 112
f 241 355 112
f 428 212 112
f 112 212 130
f 112 312 428
f 355 156 112
f 112 156 388
f 436 20 315
f 39 143 155
f 374 88 155
f 155 143 374
f 433 225 420
f 420 111 433
f 420 225 59
f 420 59 292
f 301 157 45
f 229 283 45
f 45 157 229
f 283 54 186
f 186 45 283
f 301 45 186
f 88 90 447
f 79 395 193
f 437 453 193
f 395 437 193
f 193 453 396
f 99 379 193
f 379 367 193
f 172 165 56
f 56 271 172
f 56 165 393
f 191 100 254
f 191 150 100
f 387 439 443
f 108 288 39
f 39 155 108
f 255 59 96
f 96 391 255
f 292 59 255
f 10 276 230
f 230 92 10
f 10 265 276
f 92 105 10
f 283 265 10
f 10 54 283
f 10 319 54
f 10 105 176
f 176 436 10
f 10 436 315
f 297 193 396
f 396 127 297
f 98 19 433
f 79 193 32
f 367 250 32
f 32 193 367
f 373 79 32
f 286 56 393
f 271 56 286
f 393 163 286
f 286 163 40
f 40 271 286
f 439 329 272
f 272 443 439
f 272 329 387
f 387 443 272
f 415 167 221
f 415 255 391
f 221 255 415
f 88 447 63
f 63 147 88
f 146 167 88
f 88 147 146
f 221 167 146
f 262 99 55
f 99 193 55
f 55 319 262
f 54 319 55
f 19 98 348
f 433 111 345
f 345 98 433
f 48 32 119
f 119 32 250
f 461 48 119
f 260 55 193
f 207 348 98
f 90 132 102
f 102 447 90
f 132 260 102
f 102 260 41
f 352 195 226
f 41 260 226
f 226 260 193
f 336 207 193
f 348 207 336
f 352 226 153
f 341 195 352
f 341 411 195
f 195 411 174
f 174 411 255
f 174 255 221
f 193 207 44
f 44 226 193
f 44 153 226
f 162 410 74
f 74 125 162
f 125 426 162
f 203 234 422
f 422 365 421
f 234 365 422
f 21 26 282
f 282 351 158
f 282 251 21
f 26 351 282
f 362 1 261
f 261 1 159
f 159 339 261
f 339 5 261
f 261 279 362
f 261 5 2
f 377 140 211
f 211 144 303
f 140 144 211
f 389 199 31
f 389 257 199
f 177 87 389
f 87 257 389
f 114 224 310
f 310 215 114
f 114 245 224
f 114 215 247
f 398 445 128
f 398 128 259
f 398 435 445
f 259 204 398
f 398 204 65
f 65 35 398
f 398 35 401
f 103 53 423
f 219 462 103
f 103 462 53
f 423 294 103
f 441 235 363
f 425 235 441
f 384 212 441
f 441 212 425
f 291 68 58
f 291 58 70
f 267 29 452
f 267 46 198
f 198 222 267
f 222 64 267
f 64 29 267
f 38 161 354
f 104 77 354
f 77 57 354
f 354 406 321
f 354 161 406
f 354 123 104
f 354 57 38
f 399 123 354
f 409 101 356
f 370 284 409
f 409 356 400
f 409 180 370
f 178 180 409
f 409 284 101
f 409 145 178
f 395 79 27
f 395 27 113
f 392 375 25
f 375 134 25
f 25 304 392
f 25 83 304
f 25 444 83
f 295 347 300
f 66 347 295
f 300 80 295
f 100 318 308
f 100 308 432
f 368 139 417
f 353 253 417
f 417 333 368
f 417 97 353
f 139 97 417
f 381 330 208
f 208 455 381
f 208 71 455
f 208 344 183
f 183 71 208
f 208 12 344
f 225 433 91
f 91 82 225
f 225 82 96
f 96 59 225
f 293 143 39
f 39 171 293
f 293 171 94
f 418 458 293
f 293 458 143
f 453 437 372
f 453 372 396
f 89 298 232
f 232 298 386
f 232 248 89
f 214 248 232
f 164 394 7
f 7 290 164
f 7 394 173
f 7 456 290
f 172 249 419
f 419 249 43
f 43 49 419
f 419 314 172
f 343 197 326
f 326 350 343
f 360 334 343
f 149 197 343
f 343 169 360
f 350 169 343
f 93 278 281
f 281 270 93
f 270 156 93
f 141 278 93
f 93 156 355
f 187 312 112
f 112 388 187
f 105 317 220
f 220 20 105
f 20 436 105
f 105 181 185
f 185 317 105
f 105 92 181
f 105 436 176
f 191 210 256
f 256 150 191
f 191 223 210
f 254 223 191
f 315 379 10
f 10 99 262
f 262 319 10
f 10 379 99
f 32 454 373
f 32 48 454
f 288 108 415
f 415 155 88
f 415 391 288
f 415 108 155
f 88 167 415
f 160 338 119
f 316 160 119
f 119 338 461
f 119 402 316
f 119 367 402
f 119 250 367
f 301 186 260
f 54 55 260
f 260 90 301
f 260 186 54
f 260 132 90
f 193 297 336
f 336 127 216
f 216 19 336
f 336 297 127
f 19 348 336
f 447 102 174
f 174 63 447
f 221 146 174
f 41 226 174
f 147 63 174
f 174 146 147
f 174 102 41
f 174 226 195
f 44 420 292
f 111 420 44
f 292 255 44
f 44 345 111
f 352 153 44
f 44 207 98
f 98 345 44
f 255 411 44
f 44 341 352
f 411 341 44

