# https://github.com/mikedh/trimesh
v 0.07101719 -0.02504864 -0.01476317
v 0.05155118 -0.02530873 -0.00000863
v 0.05356609 -0.03582236 -0.02315473
v 0.05084455 -0.02574251 -0.01500007
v 0.05024294 -0.02728549 -0.00387806
v 0.07414786 -0.03506741 -0.02094879
v 0.05002586 -0.02684378 -0.01462533
v 0.05457775 -0.03627710 -0.02488210
v 0.07487902 -0.03377495 -0.01879901
v 0.05333847 -0.03529007 -0.02142939
v 0.06000713 -0.02510457 -0.00223852
v 0.05791296 -0.03623326 -0.02468528
v 0.07479984 -0.02742891 -0.01445688
v 0.07472853 -0.03607597 -0.02410899
v 0.06363821 -0.03506840 -0.02068277
v 0.07005951 -0.02507249 -0.00496992
v 0.05000392 -0.02684671 -0.01358495
v 0.05424242 -0.02516079 -0.00698581
v 0.05806098 -0.03493389 -0.02034584
v 0.05004813 -0.03427449 -0.01872756
v 0.05387827 -0.03505734 -0.02070122
v 0.07378617 -0.03624349 -0.02478768
v 0.06437193 -0.02512118 -0.00334634
v 0.07447166 -0.03548252 -0.02217657
v 0.05013130 -0.03591240 -0.02357080
v 0.06200122 -0.03603087 -0.02387111
v 0.05606761 -0.03596156 -0.02361010
v 0.06836262 -0.03519806 -0.02113039
v 0.05517506 -0.03604771 -0.02390390
v 0.07372052 -0.03555498 -0.02233807
v 0.05561379 -0.03617338 -0.02443452
v 0.07407462 -0.02686430 -0.00869558
v 0.06939019 -0.03534184 -0.02160418
v 0.05003684 -0.03120282 -0.01199855
v 0.07124278 -0.03629530 -0.02498721
v 0.06611512 -0.03545042 -0.02195098
v 0.05373570 -0.03616422 -0.02440379
v 0.06595213 -0.03541696 -0.02184004
v 0.06408003 -0.03494569 -0.02039811
v 0.05967010 -0.03601581 -0.02380923
v 0.07460861 -0.03474020 -0.02034499
v 0.05026779 -0.03405742 -0.01817022
v 0.05036781 -0.03248939 -0.01474422
v 0.05118218 -0.02557059 -0.00040266
v 0.05037415 -0.02624737 -0.00162950
v 0.05973240 -0.03502780 -0.02058333
v 0.06453665 -0.03604829 -0.02394931
v 0.05096770 -0.03504308 -0.02069540
v 0.05031083 -0.03299870 -0.01585586
v 0.07496788 -0.02787445 -0.01042936
v 0.07495963 -0.02908118 -0.01221120
v 0.07079820 -0.02500590 -0.01390635
v 0.06077660 -0.03570777 -0.02278494
v 0.06722794 -0.02537425 -0.00452448
v 0.05356837 -0.02546995 -0.01500007
v 0.07445592 -0.03508160 -0.02099444
v 0.07431189 -0.03452682 -0.01989698
v 0.05186568 -0.03500026 -0.02055463
v 0.07307656 -0.03603332 -0.02393399
v 0.07393916 -0.03573176 -0.02293013
v 0.05258303 -0.03595943 -0.02363700
v 0.07203230 -0.03546761 -0.02203765
v 0.07445832 -0.02727775 -0.00939566
v 0.05755225 -0.03510216 -0.02080658
v 0.05862922 -0.02513485 -0.00194659
v 0.05137111 -0.03497512 -0.02049453
v 0.07361380 -0.02500337 -0.01500006
v 0.06579745 -0.03510589 -0.02081566
v 0.05285021 -0.03567574 -0.02269126
v 0.05375890 -0.03607519 -0.02401916
v 0.05179420 -0.03514098 -0.02096311
v 0.05007492 -0.02958684 -0.00863245
v 0.05000844 -0.03406067 -0.01819710
v 0.05040910 -0.02625149 -0.00842501
v 0.06454593 -0.03502478 -0.02059387
v 0.05112282 -0.03527044 -0.02141187
v 0.05179081 -0.03473750 -0.01986598
v 0.06117065 -0.03502994 -0.02058076
v 0.07496798 -0.02785010 -0.01231175
v 0.07385739 -0.02560541 -0.00685114
v 0.05050042 -0.03469143 -0.01977725
v 0.07439964 -0.02545475 -0.01500006
v 0.06256820 -0.03624361 -0.02473658
v 0.05318978 -0.03548695 -0.02206757
v 0.05764059 -0.03611447 -0.02418741
f 79 9 14
f 18 4 2
f 55 4 18
f 8 67 35
f 8 55 67
f 8 4 55
f 25 4 8
f 8 37 25
f 82 50 79
f 35 67 22
f 67 82 22
f 22 82 14
f 74 4 17
f 17 4 7
f 7 4 25
f 7 73 17
f 25 73 7
f 55 18 52
f 52 16 67
f 23 54 16
f 2 9 23
f 9 54 23
f 25 37 70
f 37 8 70
f 51 9 79
f 79 50 51
f 51 50 9
f 16 54 80
f 50 82 80
f 67 16 80
f 80 82 67
f 79 14 13
f 13 82 79
f 14 82 13
f 4 74 45
f 45 74 17
f 67 55 1
f 1 52 67
f 55 52 1
f 16 52 11
f 11 52 18
f 11 23 16
f 2 23 11
f 9 50 63
f 50 80 63
f 63 54 9
f 5 45 17
f 41 14 9
f 41 56 14
f 17 73 34
f 42 73 20
f 20 73 25
f 65 18 2
f 2 11 65
f 65 11 18
f 70 12 29
f 31 70 8
f 8 12 31
f 31 12 70
f 32 80 54
f 54 63 32
f 32 63 80
f 57 9 2
f 57 41 9
f 45 56 57
f 56 41 57
f 6 56 45
f 45 34 6
f 43 34 73
f 43 6 34
f 45 5 72
f 72 34 45
f 72 5 17
f 17 34 72
f 25 70 61
f 61 76 25
f 70 29 61
f 61 29 3
f 83 8 35
f 83 12 8
f 44 57 2
f 45 57 44
f 2 4 44
f 4 45 44
f 30 60 14
f 14 60 59
f 49 73 42
f 49 43 73
f 56 6 68
f 48 76 71
f 25 76 48
f 71 76 69
f 76 61 69
f 69 3 71
f 69 61 3
f 71 3 84
f 84 10 71
f 85 29 12
f 12 83 85
f 14 56 24
f 24 30 14
f 56 30 24
f 14 59 47
f 15 3 27
f 3 29 27
f 43 49 39
f 42 15 39
f 39 49 42
f 6 43 39
f 64 21 71
f 71 10 64
f 10 84 64
f 64 3 15
f 64 84 3
f 78 15 42
f 78 64 15
f 21 64 78
f 42 20 81
f 81 77 42
f 81 20 25
f 25 48 81
f 71 21 58
f 58 48 71
f 33 68 15
f 29 47 26
f 26 47 59
f 75 68 6
f 6 39 75
f 15 68 75
f 75 39 15
f 77 58 19
f 19 58 78
f 42 77 19
f 19 78 42
f 21 78 46
f 46 58 21
f 78 58 46
f 66 81 48
f 48 58 66
f 77 81 66
f 66 58 77
f 68 33 28
f 28 30 56
f 56 68 28
f 40 27 29
f 29 26 40
f 30 28 62
f 62 28 33
f 15 27 53
f 53 36 15
f 38 36 33
f 38 33 15
f 15 36 38
f 29 85 47
f 35 22 47
f 47 22 14
f 47 83 35
f 47 85 83
f 60 30 53
f 53 59 60
f 27 40 53
f 53 26 59
f 30 62 53
f 33 36 53
f 53 40 26
f 53 62 33

