# https://github.com/mikedh/trimesh
v 0.07976052 -0.01090825 -0.07960050
v 0.07007253 -0.03954590 -0.05197871
v 0.05418336 -0.04583522 -0.08114911
v 0.06405584 -0.04382761 -0.06098569
v 0.07723223 -0.02688877 -0.06375352
v 0.05238300 -0.04728001 -0.06000851
v 0.07673030 -0.02723608 -0.05093451
v 0.07805718 -0.02116737 -0.09866480
v 0.07004218 -0.03955681 -0.05023053
v 0.07544069 -0.03095449 -0.05103325
v 0.07782910 -0.02445739 -0.08336314
v 0.05278784 -0.04735012 -0.05461364
v 0.07201371 -0.03722856 -0.05074115
v 0.06812051 -0.04097219 -0.07044543
v 0.06624881 -0.04022484 -0.09971981
v 0.07974571 -0.00814271 -0.06335629
v 0.05727353 -0.04629040 -0.05823185
v 0.05697053 -0.04527106 -0.08080067
v 0.07215989 -0.03710031 -0.05301328
v 0.07594167 -0.02834084 -0.09967982
v 0.07287884 -0.03596639 -0.05025369
v 0.05082191 -0.04645644 -0.08026804
v 0.07951378 -0.01393892 -0.08378188
v 0.07945082 -0.00649359 -0.09906074
v 0.07489629 -0.03165053 -0.09311131
v 0.07738464 -0.02612711 -0.06236551
v 0.06372423 -0.04400130 -0.06101495
v 0.07662020 -0.02846964 -0.08276888
v 0.05844948 -0.04590017 -0.06106557
v 0.05018652 -0.04762365 -0.05915973
v 0.07525600 -0.03221402 -0.06294730
v 0.07947709 -0.00042563 -0.05096088
v 0.07710892 -0.02694999 -0.05986308
v 0.05785721 -0.04367091 -0.09952782
v 0.07940675 -0.00174097 -0.05014708
v 0.07960171 -0.00001060 -0.09950085
v 0.07931641 -0.01614742 -0.08297184
v 0.07904327 -0.01583303 -0.09280404
v 0.07017036 -0.03954738 -0.06121856
v 0.07942191 -0.01472690 -0.07916165
v 0.06773178 -0.03957597 -0.09749423
v 0.05789826 -0.04598865 -0.06256901
v 0.05256869 -0.04584834 -0.08535598
v 0.05417301 -0.04695902 -0.05893241
v 0.06235830 -0.04220253 -0.09986593
v 0.07847384 -0.02149670 -0.06757363
v 0.05582333 -0.04676562 -0.05040393
v 0.07367963 -0.03463954 -0.05020105
v 0.06319654 -0.04294414 -0.08602778
v 0.06530694 -0.04328174 -0.05073550
v 0.07834570 -0.01893011 -0.09986436
v 0.07020564 -0.03948218 -0.06303671
v 0.06737994 -0.03998645 -0.09477040
v 0.07533740 -0.03129324 -0.05208125
v 0.07429941 -0.03357310 -0.08350948
v 0.05458547 -0.04685283 -0.05955692
v 0.05853182 -0.04611477 -0.05041551
v 0.07334062 -0.03386942 -0.09782497
v 0.05207990 -0.04737510 -0.05882655
v 0.07964753 -0.01132322 -0.08666565
v 0.07843924 -0.02192866 -0.08233759
v 0.06612206 -0.04269138 -0.06119558
v 0.05823068 -0.04495867 -0.08124432
v 0.05291728 -0.04701346 -0.06341686
v 0.07836007 -0.02219647 -0.08395836
v 0.06821422 -0.04039723 -0.08246322
v 0.06285960 -0.04452912 -0.05181577
v 0.08010522 -0.00009899 -0.08075270
v 0.07964652 -0.00445500 -0.09570700
v 0.05380883 -0.04699626 -0.06001445
v 0.06762761 -0.04070133 -0.08318699
v 0.07992280 -0.00069079 -0.09164458
v 0.07192524 -0.03578578 -0.09694929
v 0.06527776 -0.04206075 -0.08257819
v 0.07933625 -0.01005887 -0.09844206
v 0.07822855 -0.02262653 -0.06355410
v 0.07836505 -0.01828766 -0.05005863
v 0.06990112 -0.03969536 -0.05074259
v 0.07957414 -0.01154532 -0.06324314
v 0.07666659 -0.02818165 -0.05770264
v 0.08015672 -0.00008125 -0.07616706
v 0.07352212 -0.03472794 -0.08452963
v 0.07937530 -0.01027587 -0.09702567
v 0.05605300 -0.04668579 -0.05188169
v 0.06280718 -0.04440154 -0.06047812
v 0.07927863 -0.00955077 -0.05270705
v 0.06994652 -0.03834955 -0.09085883
v 0.07025371 -0.03858617 -0.08429106
v 0.07982601 -0.00981372 -0.08410361
v 0.07991438 -0.00272428 -0.06362773
v 0.08014272 -0.00022819 -0.07747071
v 0.07972554 -0.01073026 -0.07170168
v 0.07999947 -0.00037184 -0.06464861
v 0.07031580 -0.03922133 -0.06708672
v 0.07830738 -0.02142219 -0.09040608
v 0.05801441 -0.04627561 -0.05036221
v 0.07703182 -0.02688071 -0.05709222
v 0.06516239 -0.04313513 -0.06349933
v 0.07950216 -0.00032993 -0.05146516
v 0.06489926 -0.04350079 -0.05116496
v 0.07071275 -0.03880184 -0.05067037
v 0.07715486 -0.02681399 -0.08609831
v 0.05266336 -0.04732022 -0.05740500
v 0.07292183 -0.03621287 -0.06076354
v 0.07980433 -0.01061426 -0.08259339
v 0.07824395 -0.02213320 -0.06047021
v 0.07356080 -0.03449472 -0.08670107
v 0.07918289 -0.01710683 -0.08354785
v 0.06272138 -0.04348544 -0.08044582
v 0.07968855 -0.00978583 -0.06309406
v 0.07985002 -0.00295572 -0.06145597
v 0.07977720 -0.00537773 -0.06158081
v 0.07370980 -0.03508959 -0.06140695
v 0.07794040 -0.02322863 -0.05883334
v 0.07931881 -0.00566330 -0.05043786
v 0.06987905 -0.03789595 -0.09726228
v 0.07997734 -0.00083952 -0.06406206
v 0.07200828 -0.03647773 -0.08779667
v 0.07734949 -0.02490012 -0.05283320
v 0.07940193 -0.00773296 -0.09918791
v 0.05802142 -0.04481873 -0.08401708
v 0.05648777 -0.04398861 -0.09940601
v 0.07705277 -0.02752492 -0.06525217
v 0.08014010 -0.00047448 -0.07522477
v 0.05803338 -0.04524991 -0.07675654
v 0.08014565 -0.00054183 -0.07651391
v 0.07836199 -0.01960952 -0.05432762
v 0.07761887 -0.02531993 -0.08348292
v 0.06229158 -0.04356468 -0.08182284
v 0.08011916 -0.00109116 -0.07517151
v 0.06354870 -0.04322883 -0.07896120
v 0.07970496 -0.01001065 -0.06456213
v 0.07097632 -0.03845255 -0.05029987
v 0.07768454 -0.02306741 -0.05089529
v 0.06301804 -0.04303721 -0.08566603
v 0.06695711 -0.04214841 -0.05003110
v 0.07699545 -0.02764257 -0.06224276
v 0.08008259 -0.00023897 -0.07046901
v 0.07903129 -0.01421199 -0.09741561
v 0.07880765 -0.01835149 -0.06370008
v 0.07691692 -0.02766460 -0.08388072
v 0.05012901 -0.04761257 -0.05952749
v 0.05196081 -0.04634138 -0.07951335
v 0.07948222 -0.00409582 -0.09990849
v 0.05739442 -0.04641669 -0.05024668
v 0.07515999 -0.03217976 -0.05848189
v 0.07483656 -0.03168256 -0.09407263
v 0.06424815 -0.04263624 -0.08256212
v 0.05007289 -0.04646504 -0.08155543
v 0.07974877 -0.01122864 -0.08216352
v 0.06801268 -0.04142078 -0.05512667
v 0.06296928 -0.04441643 -0.05707242
v 0.07966714 -0.01175191 -0.08496128
v 0.07991739 -0.00029795 -0.06098752
v 0.07975505 -0.00790160 -0.06343681
v 0.07943939 -0.00564086 -0.09990265
v 0.08008173 -0.00248492 -0.07753072
v 0.06458724 -0.04351111 -0.06189108
v 0.05262584 -0.04700269 -0.06479854
v 0.07785943 -0.02188101 -0.09931650
v 0.07722645 -0.02694171 -0.08134255
v 0.07840994 -0.02189081 -0.06697205
v 0.07376972 -0.03493772 -0.06040104
v 0.07965990 -0.01145610 -0.08595307
v 0.07959524 -0.00494572 -0.09663980
v 0.06828411 -0.04118589 -0.06190909
v 0.07722168 -0.02696200 -0.08126741
v 0.07829474 -0.02252923 -0.08274507
v 0.05256219 -0.04714595 -0.06215988
v 0.06500321 -0.04326155 -0.06258958
v 0.07218877 -0.03676677 -0.07947242
v 0.07922689 -0.00840743 -0.05045697
v 0.07920339 -0.01067619 -0.05216828
v 0.05713822 -0.04637074 -0.05568040
v 0.05014472 -0.04765434 -0.05859283
v 0.07944354 -0.01425739 -0.07632712
v 0.07988880 -0.00157624 -0.09183085
v 0.05809721 -0.04554755 -0.07047266
v 0.07990720 -0.00530399 -0.08694947
v 0.05183842 -0.04627261 -0.08102451
v 0.07019463 -0.03940600 -0.05079793
v 0.05791363 -0.04618233 -0.05645440
v 0.07846063 -0.02183820 -0.08212826
v 0.07930396 -0.01293272 -0.09266363
v 0.06792040 -0.03995015 -0.09097339
v 0.07847723 -0.02131760 -0.08604514
v 0.06336901 -0.04419098 -0.06070365
v 0.07811933 -0.02309336 -0.06332486
v 0.08002179 -0.00049359 -0.08755501
v 0.07977569 -0.01008818 -0.08530855
v 0.07838310 -0.02172173 -0.06227418
v 0.05340744 -0.04728720 -0.05093041
v 0.07246726 -0.03485121 -0.09960841
v 0.06332204 -0.04369193 -0.07178282
v 0.07986277 -0.00169023 -0.09241354
v 0.05240345 -0.04556270 -0.08949744
v 0.07887289 -0.01570876 -0.09819780
v 0.07219743 -0.03699081 -0.05083405
v 0.07992081 -0.00139134 -0.09109152
v 0.07457984 -0.03159043 -0.09990338
v 0.05838015 -0.04588419 -0.06185954
v 0.06856238 -0.04094890 -0.06062918
v 0.05772591 -0.04423483 -0.09276553
v 0.07967024 -0.01201692 -0.08417358
v 0.07892725 -0.01590176 -0.09605485
v 0.07969680 -0.00971661 -0.06330656
v 0.08000255 -0.00487657 -0.07937811
v 0.07513877 -0.03239464 -0.07035066
v 0.06626404 -0.04263451 -0.05258071
v 0.07593632 -0.02961369 -0.05030282
v 0.06549112 -0.04197843 -0.08202111
v 0.05213909 -0.04618099 -0.08170289
v 0.06324759 -0.04383228 -0.06941290
v 0.06900163 -0.03972654 -0.08288105
v 0.05900933 -0.04590652 -0.05328151
v 0.05271372 -0.04683549 -0.06774272
v 0.06813372 -0.04032541 -0.08419119
v 0.07039254 -0.03716367 -0.09981515
v 0.07854393 -0.02088275 -0.06559432
v 0.05281119 -0.04595647 -0.08328487
v 0.08005863 -0.00013934 -0.06865114
v 0.06800672 -0.04141172 -0.06139054
v 0.07960618 -0.01098561 -0.06248495
v 0.07846794 -0.02159819 -0.06976630
v 0.06631991 -0.04260356 -0.05098701
v 0.07927084 -0.00701503 -0.05037551
v 0.07782148 -0.02196253 -0.09979060
v 0.07962320 -0.00012657 -0.09910948
v 0.07699000 -0.02706037 -0.08773859
v 0.05008985 -0.04665684 -0.07827556
v 0.05622361 -0.04650266 -0.05917875
v 0.05198312 -0.04491424 -0.09886495
v 0.07228824 -0.03685326 -0.05052014
v 0.08002118 -0.00018453 -0.06582909
v 0.07969050 -0.01079528 -0.06712752
v 0.07527730 -0.03180114 -0.08347551
v 0.05739020 -0.04627172 -0.05788103
v 0.05288665 -0.04621155 -0.07919159
v 0.07508107 -0.03264996 -0.06317207
v 0.06592251 -0.04172966 -0.08217603
v 0.06291503 -0.04255825 -0.09261997
v 0.08000488 -0.00085976 -0.08823308
v 0.05679946 -0.04646490 -0.05471656
v 0.06333638 -0.04428508 -0.05097396
v 0.06590981 -0.04277893 -0.06221005
v 0.07752467 -0.02402776 -0.05226532
v 0.07791063 -0.02237877 -0.05292298
v 0.07337676 -0.03369276 -0.09904399
v 0.07803829 -0.02359493 -0.08344897
v 0.07872012 -0.01639146 -0.09992787
v 0.07194148 -0.03754080 -0.06008464
v 0.06324003 -0.04359142 -0.07453866
v 0.05883570 -0.04600716 -0.05106775
v 0.05715591 -0.04406181 -0.09662623
v 0.07006033 -0.03832732 -0.08981826
v 0.05321223 -0.04722398 -0.05625353
v 0.07796494 -0.02371873 -0.06295291
v 0.07004348 -0.03853568 -0.08738276
v 0.06313108 -0.04426538 -0.06115692
v 0.07928636 -0.01048429 -0.09937906
v 0.06298016 -0.04197885 -0.09953851
v 0.07778578 -0.02452019 -0.06334957
v 0.07731899 -0.02646131 -0.08406308
v 0.07180094 -0.03771390 -0.06334977
v 0.07515072 -0.03237619 -0.06108302
v 0.07232342 -0.03705192 -0.06020835
v 0.07862649 -0.02042300 -0.06784809
v 0.07512459 -0.03218870 -0.08251985
v 0.07572879 -0.03014674 -0.05018017
v 0.07847835 -0.02163082 -0.08447684
v 0.07222460 -0.03519043 -0.09929152
v 0.07928003 -0.01592107 -0.08553125
v 0.06312037 -0.04279608 -0.08839835
v 0.05629428 -0.04538712 -0.08128276
v 0.07976287 -0.00196234 -0.05834485
v 0.07928266 -0.01639801 -0.08370800
v 0.07425534 -0.03369495 -0.08265503
v 0.07850300 -0.02164403 -0.08025851
v 0.06536192 -0.04323209 -0.05394911
v 0.07853792 -0.02105688 -0.06747641
v 0.06772094 -0.04034274 -0.08735123
v 0.07560268 -0.03131501 -0.06289554
v 0.05355913 -0.04455895 -0.09958719
v 0.07983569 -0.00977314 -0.08246122
v 0.07953468 -0.01050224 -0.09201168
v 0.08001155 -0.00001994 -0.08884563
v 0.05927468 -0.04456148 -0.08194995
v 0.05224847 -0.04748324 -0.05197194
v 0.07517138 -0.03242526 -0.06263776
v 0.07920684 -0.01694140 -0.08347564
v 0.05863646 -0.04588331 -0.06006107
v 0.06974385 -0.03985108 -0.05143733
v 0.07667957 -0.02662917 -0.09886094
v 0.07007774 -0.03872764 -0.08447155
v 0.06748934 -0.04176249 -0.06158633
v 0.07916543 -0.01716781 -0.08146886
v 0.06148003 -0.04506458 -0.05130335
v 0.06266509 -0.04455824 -0.05544954
v 0.05211788 -0.04753006 -0.05049257
v 0.07967690 -0.01051962 -0.06351787
v 0.06341177 -0.04411117 -0.06210261
v 0.07997960 -0.00148043 -0.08908397
v 0.07942710 -0.01292697 -0.06371052
v 0.07862735 -0.02047448 -0.06846352
v 0.07219992 -0.03719776 -0.06510605
v 0.07509642 -0.03217803 -0.08369189
v 0.07968246 -0.01011651 -0.06322458
v 0.07957358 -0.01329294 -0.08315109
v 0.07982414 -0.00947754 -0.08457417
v 0.07861250 -0.02020680 -0.06494958
v 0.05804229 -0.04585980 -0.06453732
v 0.05928508 -0.04565061 -0.06023277
v 0.05185472 -0.04486591 -0.09972628
v 0.07235996 -0.03640233 -0.08326709
v 0.06273936 -0.04240605 -0.09544929
v 0.07027598 -0.03943155 -0.06067263
v 0.07888374 -0.01502795 -0.09966234
v 0.05335369 -0.04605798 -0.08028254
v 0.07693774 -0.02669994 -0.09230557
v 0.05789236 -0.04617142 -0.05727854
v 0.07043044 -0.03927310 -0.06188001
v 0.05010673 -0.04780950 -0.05041657
v 0.05012071 -0.04661341 -0.07904497
v 0.07906456 -0.01606313 -0.06337442
v 0.07941245 -0.00153722 -0.05015729
v 0.07689327 -0.02674883 -0.05206193
v 0.05699560 -0.04630198 -0.06020004
v 0.07851067 -0.02157969 -0.07953531
v 0.07084262 -0.03880087 -0.06265342
v 0.07990075 -0.00020842 -0.09249337
v 0.05774918 -0.04517892 -0.07936873
v 0.07484034 -0.03218249 -0.05050040
v 0.07367596 -0.03313684 -0.09951458
v 0.07941125 -0.01513441 -0.08308788
v 0.07967669 -0.01067605 -0.06415781
v 0.05046497 -0.04502966 -0.09987644
v 0.07961588 -0.01160591 -0.08686921
v 0.06914861 -0.03831837 -0.09945181
v 0.05265455 -0.04731634 -0.05766641
v 0.05857449 -0.04599445 -0.05620729
v 0.06892900 -0.04063042 -0.06122139
v 0.07958806 -0.00075473 -0.09960537
v 0.07736519 -0.02629023 -0.08394366
v 0.07797152 -0.02301617 -0.05834199
v 0.07381044 -0.03435455 -0.08418134
v 0.07720694 -0.02537100 -0.05185355
v 0.07375259 -0.03498378 -0.06603608
v 0.07808345 -0.02298657 -0.06141073
v 0.07946483 -0.01047700 -0.09412313
v 0.05818845 -0.04620748 -0.05124266
v 0.07781155 -0.02440993 -0.06333135
v 0.07528147 -0.03148839 -0.05282552
v 0.06088072 -0.04530375 -0.05000383
v 0.07379393 -0.03452234 -0.08165571
v 0.07796633 -0.02125169 -0.05004315
v 0.05030619 -0.04558627 -0.09270954
v 0.06456794 -0.04304998 -0.07162076
v 0.07891932 -0.01462917 -0.09964749
v 0.07958020 -0.01007604 -0.06064561
v 0.07887537 -0.01893604 -0.07394647
v 0.07876710 -0.01856972 -0.06305257
v 0.07204981 -0.03739833 -0.05921836
v 0.07805408 -0.02153694 -0.09639784
v 0.07947982 -0.01376705 -0.07502819
v 0.07962755 -0.00007877 -0.05422552
v 0.05361165 -0.04594796 -0.08122573
v 0.05287458 -0.04738011 -0.05215367
v 0.05245627 -0.04629730 -0.07906793
v 0.05696464 -0.04404019 -0.09743095
v 0.07159027 -0.03609789 -0.09817875
v 0.05772138 -0.04619869 -0.05785838
v 0.07835179 -0.01920013 -0.05261188
v 0.07685294 -0.02806181 -0.06337000
v 0.07976009 -0.01065719 -0.07632531
v 0.07238219 -0.03644886 -0.08108803
v 0.07285417 -0.03608306 -0.05195422
v 0.07740109 -0.02475402 -0.05335599
v 0.07896520 -0.01405698 -0.09975079
v 0.07920039 -0.01098065 -0.05274251
v 0.07979784 -0.00263035 -0.09331707
v 0.06296586 -0.04262631 -0.09147500
v 0.06821482 -0.03902770 -0.09956150
v 0.07869641 -0.01939427 -0.06428553
v 0.07974225 -0.00075282 -0.05706377
v 0.07952674 -0.01304505 -0.07244322
v 0.06794857 -0.04061372 -0.08162486
v 0.07684432 -0.02607704 -0.09881636
v 0.07716655 -0.02716151 -0.07515555
v 0.07823566 -0.01974391 -0.09955644
v 0.07992964 -0.00511073 -0.07006622
v 0.06556750 -0.04304309 -0.05986535
v 0.06894345 -0.04060651 -0.05193340
v 0.06330496 -0.04337529 -0.07854713
v 0.07372897 -0.03497869 -0.06758723
v 0.06958531 -0.04005718 -0.06201945
v 0.06315226 -0.04351022 -0.07687057
v 0.07695627 -0.02632613 -0.05101052
v 0.06698855 -0.03986916 -0.09924862
v 0.07369385 -0.03510312 -0.06461745
v 0.06671452 -0.03999132 -0.09955599
v 0.06957272 -0.04006990 -0.06117268
v 0.05776578 -0.04403458 -0.09522998
v 0.07844937 -0.01820548 -0.09997473
v 0.08012187 -0.00120094 -0.07618923
v 0.07657801 -0.02682670 -0.09932971
v 0.07183030 -0.03623198 -0.09332234
v 0.07387257 -0.03483621 -0.06322096
v 0.07450273 -0.03369939 -0.06258623
v 0.07523845 -0.03192730 -0.08317273
v 0.07999479 -0.00510814 -0.07967254
v 0.06803485 -0.04139705 -0.05149772
v 0.05781589 -0.04491772 -0.08332628
v 0.07943375 -0.01282966 -0.06338027
v 0.07966178 -0.01096808 -0.06501788
v 0.07998698 -0.00020756 -0.06341388
v 0.08003422 -0.00000382 -0.08680918
v 0.07956344 -0.00334479 -0.05456354
v 0.06594206 -0.04283221 -0.05695168
v 0.07985065 -0.00937852 -0.08289685
v 0.07960002 -0.01291336 -0.08390880
v 0.06605847 -0.04274901 -0.05815554
v 0.06981845 -0.03985527 -0.06060235
v 0.05006361 -0.04756487 -0.06062730
v 0.07349665 -0.03542641 -0.06296318
v 0.05970470 -0.04571877 -0.05030787
v 0.07998055 -0.00108715 -0.08966453
v 0.07731028 -0.02642244 -0.06219854
v 0.07378693 -0.03498013 -0.06367095
v 0.07771069 -0.02494507 -0.08326266
v 0.06805184 -0.04134711 -0.06232297
v 0.07856817 -0.02128782 -0.08312614
v 0.06278147 -0.04333819 -0.08266012
v 0.07473834 -0.03137517 -0.09896922
v 0.07967109 -0.00024074 -0.05518236
v 0.07295701 -0.03558523 -0.08342481
v 0.06953093 -0.03816092 -0.09763363
v 0.06480440 -0.04311623 -0.06775418
v 0.07313485 -0.03577363 -0.05548837
v 0.05495739 -0.04678403 -0.05904805
v 0.06604939 -0.04276294 -0.05633288
v 0.05226512 -0.04527110 -0.09362464
v 0.07184882 -0.03703652 -0.08285925
v 0.07743783 -0.02410190 -0.05035911
v 0.07686253 -0.02587368 -0.09962759
v 0.07917089 -0.01062743 -0.05132350
v 0.05266940 -0.04676159 -0.06937036
v 0.07384512 -0.03444238 -0.05242631
v 0.06308332 -0.04350149 -0.07754310
v 0.07818961 -0.02231814 -0.06009776
v 0.07910498 -0.01753500 -0.07985393
v 0.07605519 -0.02923260 -0.05007608
v 0.06306018 -0.04293561 -0.08686372
v 0.07279182 -0.03447154 -0.09912692
v 0.05556855 -0.04682426 -0.05028680
v 0.06303911 -0.04440250 -0.05589080
v 0.06675340 -0.04120861 -0.08294131
v 0.07024441 -0.03881968 -0.08016113
v 0.07958173 -0.00317026 -0.05487121
v 0.07968223 -0.00240593 -0.05671452
v 0.07908088 -0.01271020 -0.09976866
v 0.07479681 -0.03164320 -0.09525594
v 0.07219510 -0.03712260 -0.05583613
v 0.07932461 -0.00964322 -0.09927204
v 0.07688912 -0.02645018 -0.09529672
v 0.06812521 -0.04132828 -0.05961659
v 0.07482631 -0.03311639 -0.06293590
v 0.07814609 -0.02214897 -0.05792070
v 0.07933405 -0.00568165 -0.05082239
v 0.05679932 -0.04529974 -0.08094740
v 0.07967101 -0.01086979 -0.08712497
v 0.07276816 -0.03619534 -0.05154894
v 0.07976487 -0.01093500 -0.08064707
v 0.07980999 -0.00608712 -0.06343724
v 0.07964066 -0.01111392 -0.06420236
v 0.07378237 -0.03477160 -0.05715510
v 0.07946521 -0.00000174 -0.05065003
v 0.07992911 -0.00414724 -0.08760875
v 0.06387330 -0.04278231 -0.08334567
v 0.07721051 -0.02700246 -0.08133560
v 0.07758190 -0.02338436 -0.05000047
v 0.07678912 -0.02822474 -0.06290894
v 0.07373158 -0.03432630 -0.08591430
v 0.05244647 -0.04489940 -0.09809190
v 0.07214757 -0.03702242 -0.07312993
v 0.07805857 -0.02316927 -0.06193510
v 0.07995762 -0.00001200 -0.09099269
v 0.06969557 -0.03918594 -0.08250503
v 0.07050376 -0.03845355 -0.08273221
v 0.07846078 -0.02172839 -0.07267738
v 0.07931840 -0.00519242 -0.05015823
v 0.07942007 -0.01053489 -0.05714975
v 0.06212703 -0.04227189 -0.09992595
v 0.06810967 -0.03911430 -0.09948413
v 0.07989174 -0.00819611 -0.08180814
v 0.07517158 -0.03235883 -0.06739589
v 0.07786474 -0.02205217 -0.05027965
v 0.07698835 -0.02740231 -0.05966950
v 0.07219270 -0.03718142 -0.06596065
v 0.06961853 -0.04000692 -0.05511358
v 0.05832120 -0.04605951 -0.05699827
v 0.07945844 -0.00641993 -0.09892776
v 0.05759720 -0.04612092 -0.06121055
v 0.07972305 -0.01052734 -0.08636732
v 0.06900808 -0.03974634 -0.08253360
v 0.06377692 -0.04298540 -0.08095580
v 0.06782203 -0.04066561 -0.08209357
v 0.07855998 -0.02133388 -0.08361502
v 0.06999798 -0.03900637 -0.08066434
v 0.07900679 -0.01807888 -0.07629359
v 0.07939573 -0.01039178 -0.05636852
f 336 476 36
f 403 336 144
f 356 476 336
f 81 476 221
f 336 36 342
f 342 144 336
f 149 322 476
f 476 356 149
f 423 322 149
f 149 230 423
f 149 356 336
f 454 322 299
f 81 221 138
f 379 77 223
f 445 77 379
f 228 342 36
f 36 486 228
f 121 45 63
f 313 149 336
f 483 313 283
f 283 313 34
f 299 322 175
f 175 322 423
f 218 200 193
f 173 379 223
f 445 379 173
f 219 304 267
f 79 474 223
f 79 413 474
f 223 77 79
f 77 372 79
f 372 413 79
f 361 140 324
f 334 40 37
f 37 276 334
f 37 40 176
f 415 365 154
f 415 221 476
f 476 365 415
f 81 138 124
f 124 126 81
f 124 130 404
f 404 126 124
f 342 228 330
f 330 228 486
f 180 22 149
f 311 56 125
f 125 56 70
f 412 63 18
f 121 63 412
f 287 63 45
f 121 412 203
f 402 45 121
f 402 34 45
f 121 203 402
f 283 34 122
f 122 483 283
f 45 34 492
f 492 313 336
f 492 34 313
f 492 336 403
f 403 200 492
f 492 200 218
f 227 200 403
f 227 444 200
f 446 318 469
f 18 64 469
f 469 412 18
f 446 368 238
f 238 318 446
f 368 318 238
f 230 149 323
f 423 230 323
f 149 22 323
f 142 175 423
f 423 323 142
f 142 323 22
f 480 136 451
f 333 193 200
f 9 136 411
f 192 454 299
f 276 205 272
f 172 77 445
f 355 372 77
f 355 77 480
f 480 496 355
f 37 296 290
f 290 276 37
f 108 276 290
f 37 304 360
f 509 304 37
f 509 267 304
f 127 413 372
f 474 413 303
f 413 324 303
f 23 334 276
f 276 272 23
f 474 176 364
f 364 176 40
f 474 414 335
f 154 112 111
f 110 111 112
f 507 250 205
f 507 205 276
f 507 276 108
f 507 270 95
f 157 126 404
f 130 124 390
f 212 318 368
f 368 180 212
f 143 180 368
f 22 180 143
f 311 125 178
f 178 125 63
f 331 125 70
f 331 64 18
f 70 64 331
f 18 63 331
f 63 125 331
f 196 212 180
f 196 441 483
f 196 180 149
f 149 441 196
f 318 212 220
f 313 483 232
f 483 441 232
f 149 313 232
f 232 441 149
f 45 492 15
f 15 261 45
f 400 261 15
f 15 382 400
f 15 492 218
f 218 382 15
f 403 250 8
f 293 405 444
f 446 469 216
f 216 469 64
f 327 56 311
f 353 454 145
f 322 454 353
f 353 136 480
f 480 451 7
f 70 56 339
f 339 6 70
f 59 6 339
f 175 59 339
f 145 454 47
f 44 339 56
f 367 192 299
f 154 365 434
f 434 384 154
f 434 365 476
f 154 384 275
f 275 112 154
f 134 496 480
f 134 247 496
f 450 296 37
f 37 360 450
f 420 204 105
f 105 150 308
f 334 23 308
f 23 420 308
f 308 420 105
f 385 414 474
f 474 364 385
f 111 110 307
f 205 250 197
f 250 317 197
f 431 507 108
f 126 157 410
f 189 242 426
f 156 463 260
f 260 460 156
f 460 250 156
f 403 144 156
f 156 250 403
f 206 307 300
f 223 474 300
f 474 335 300
f 300 307 510
f 486 426 72
f 72 330 486
f 254 402 203
f 34 402 254
f 122 220 43
f 483 122 43
f 43 196 483
f 212 196 43
f 43 220 212
f 381 49 452
f 152 215 85
f 45 261 315
f 315 287 45
f 400 49 273
f 273 261 400
f 273 49 381
f 381 261 273
f 95 270 128
f 464 227 102
f 227 263 102
f 363 8 95
f 95 128 363
f 479 102 263
f 389 8 227
f 186 507 95
f 95 8 186
f 250 507 186
f 186 8 250
f 464 293 387
f 387 293 444
f 387 227 464
f 444 227 387
f 274 469 318
f 318 3 274
f 274 3 203
f 412 469 274
f 274 203 412
f 318 220 366
f 366 3 318
f 220 254 366
f 203 3 366
f 366 254 203
f 244 353 67
f 67 100 244
f 405 25 433
f 405 293 236
f 236 25 405
f 193 406 73
f 73 406 370
f 193 333 248
f 248 333 200
f 200 58 248
f 118 58 314
f 406 58 118
f 482 58 200
f 225 151 411
f 225 411 136
f 244 100 50
f 136 353 50
f 50 353 244
f 50 225 136
f 48 136 9
f 48 451 136
f 169 64 70
f 70 6 169
f 30 59 175
f 30 6 59
f 175 142 30
f 30 169 6
f 30 143 368
f 30 142 22
f 22 143 30
f 12 367 288
f 288 367 299
f 299 175 288
f 339 44 103
f 12 288 103
f 175 339 103
f 103 288 175
f 190 309 89
f 105 204 89
f 459 275 384
f 86 172 445
f 445 510 86
f 77 172 490
f 472 150 105
f 374 92 105
f 335 92 374
f 235 335 414
f 235 92 335
f 234 138 221
f 221 415 234
f 378 358 317
f 378 250 460
f 378 317 250
f 38 272 205
f 205 197 38
f 494 410 207
f 207 410 157
f 81 126 91
f 286 91 189
f 286 426 486
f 286 189 426
f 165 380 69
f 195 380 165
f 260 463 75
f 285 470 260
f 260 349 285
f 120 156 24
f 463 156 120
f 120 165 69
f 206 300 155
f 223 300 491
f 491 300 510
f 491 173 223
f 390 300 132
f 132 300 335
f 130 390 132
f 369 220 122
f 369 254 220
f 369 122 34
f 34 254 369
f 340 85 215
f 398 41 53
f 398 49 400
f 338 382 218
f 338 41 382
f 241 261 381
f 241 315 261
f 241 381 287
f 287 315 241
f 319 293 464
f 464 102 319
f 319 236 293
f 227 8 160
f 8 363 160
f 160 263 227
f 160 363 263
f 263 363 343
f 343 363 128
f 102 479 141
f 236 319 141
f 51 227 403
f 51 389 227
f 403 8 51
f 8 389 51
f 353 425 297
f 297 67 353
f 215 425 253
f 253 340 215
f 269 210 451
f 451 48 269
f 269 48 332
f 20 433 200
f 405 433 20
f 200 444 20
f 444 405 20
f 200 433 461
f 443 346 119
f 193 73 271
f 271 73 370
f 218 193 271
f 271 370 218
f 116 338 218
f 436 338 116
f 218 370 116
f 294 88 487
f 193 248 453
f 453 248 58
f 453 406 193
f 453 58 406
f 314 58 435
f 9 411 392
f 166 465 222
f 465 151 222
f 151 225 222
f 279 50 100
f 391 62 279
f 53 41 281
f 9 101 133
f 181 101 9
f 251 101 181
f 362 251 266
f 362 101 251
f 233 133 13
f 13 133 101
f 101 362 13
f 13 362 19
f 159 216 64
f 64 169 159
f 446 216 159
f 159 368 446
f 159 30 368
f 169 30 159
f 12 103 256
f 256 103 44
f 164 60 470
f 105 89 419
f 419 410 494
f 179 89 309
f 359 307 110
f 510 307 359
f 359 86 510
f 496 247 467
f 105 92 1
f 1 472 105
f 415 117 93
f 93 234 415
f 191 162 219
f 219 310 191
f 191 310 383
f 191 140 361
f 191 383 140
f 361 324 191
f 191 324 413
f 413 127 191
f 496 467 191
f 191 127 372
f 416 476 81
f 416 286 486
f 416 36 476
f 416 486 36
f 81 91 68
f 91 286 68
f 177 380 195
f 195 72 177
f 83 349 260
f 260 75 83
f 470 285 503
f 503 89 204
f 190 89 503
f 501 120 24
f 165 120 501
f 312 340 291
f 85 340 312
f 291 29 312
f 245 62 391
f 386 62 245
f 382 41 493
f 41 398 493
f 400 382 493
f 493 398 400
f 436 66 217
f 217 338 436
f 65 128 270
f 65 249 128
f 270 507 65
f 161 343 128
f 161 479 263
f 263 343 161
f 28 141 479
f 236 141 409
f 141 28 409
f 409 28 208
f 25 236 409
f 229 319 102
f 102 141 229
f 229 141 319
f 96 353 145
f 350 96 500
f 291 340 500
f 500 320 291
f 56 327 231
f 311 29 42
f 42 29 502
f 42 327 311
f 42 502 327
f 502 29 371
f 327 502 371
f 291 320 371
f 371 29 291
f 311 178 201
f 201 29 311
f 152 67 298
f 67 297 298
f 298 297 425
f 298 215 152
f 298 425 215
f 352 48 146
f 239 289 265
f 146 48 265
f 265 48 239
f 147 433 25
f 147 461 433
f 25 409 147
f 7 326 397
f 397 346 443
f 397 443 480
f 480 7 397
f 214 294 487
f 436 116 87
f 87 66 436
f 87 214 66
f 251 181 321
f 82 435 58
f 314 435 354
f 268 208 239
f 268 409 208
f 202 465 166
f 295 222 225
f 166 222 430
f 222 295 430
f 421 279 62
f 62 295 421
f 152 85 187
f 187 279 100
f 506 66 386
f 386 245 506
f 506 217 66
f 71 281 506
f 281 217 506
f 428 268 407
f 438 376 471
f 462 362 266
f 19 362 462
f 233 13 198
f 198 13 19
f 153 164 470
f 153 503 204
f 470 503 153
f 358 60 184
f 105 419 284
f 284 419 494
f 426 242 302
f 468 115 226
f 226 115 490
f 226 490 172
f 468 459 417
f 417 115 468
f 99 434 476
f 476 32 99
f 325 32 476
f 476 322 325
f 344 377 114
f 119 377 344
f 280 304 219
f 219 162 280
f 162 46 280
f 199 72 426
f 199 177 72
f 16 473 415
f 155 473 16
f 206 155 16
f 90 117 415
f 415 473 90
f 135 452 49
f 49 432 135
f 135 432 452
f 185 281 41
f 185 217 281
f 41 338 185
f 338 217 185
f 61 183 5
f 507 183 61
f 61 65 507
f 128 249 11
f 11 429 128
f 239 208 495
f 208 28 495
f 57 96 350
f 57 253 425
f 57 425 353
f 353 96 57
f 320 500 182
f 182 500 96
f 439 44 56
f 56 231 439
f 17 231 327
f 327 371 17
f 84 47 454
f 10 269 332
f 332 48 10
f 31 289 239
f 239 495 31
f 31 28 479
f 31 495 28
f 504 214 487
f 66 214 504
f 255 87 116
f 370 88 255
f 255 116 370
f 88 294 258
f 258 255 88
f 87 255 258
f 294 214 258
f 214 87 258
f 251 321 264
f 266 251 264
f 2 181 9
f 166 487 508
f 508 457 166
f 487 457 508
f 487 88 488
f 488 457 487
f 370 406 488
f 488 88 370
f 58 482 107
f 107 82 58
f 482 82 107
f 314 354 375
f 435 82 345
f 345 354 435
f 345 82 482
f 345 482 200
f 200 461 345
f 347 268 428
f 354 268 347
f 409 268 306
f 306 147 409
f 9 392 78
f 392 292 78
f 499 292 392
f 52 321 39
f 392 422 39
f 181 2 39
f 39 499 392
f 14 62 386
f 14 295 62
f 386 66 14
f 14 430 295
f 166 430 14
f 66 504 14
f 14 487 166
f 14 504 487
f 279 421 418
f 259 187 85
f 85 312 259
f 455 67 152
f 152 187 455
f 100 67 455
f 455 187 100
f 391 279 4
f 456 281 71
f 408 407 466
f 466 268 239
f 466 407 268
f 48 475 447
f 475 408 447
f 408 466 447
f 239 48 447
f 447 466 239
f 438 104 113
f 113 376 438
f 428 407 113
f 113 407 408
f 113 475 48
f 21 471 376
f 233 471 21
f 21 133 233
f 21 48 9
f 9 133 21
f 60 164 337
f 337 184 60
f 317 358 139
f 358 184 139
f 89 179 477
f 477 179 426
f 426 302 477
f 458 459 384
f 458 417 459
f 322 353 35
f 35 325 322
f 35 353 480
f 480 77 35
f 77 490 35
f 443 119 246
f 119 344 246
f 224 46 162
f 162 489 224
f 507 431 278
f 278 183 507
f 278 489 162
f 5 183 278
f 29 201 129
f 129 109 29
f 129 201 178
f 129 178 63
f 432 109 129
f 63 287 129
f 452 432 129
f 287 381 129
f 381 452 129
f 393 432 49
f 49 131 393
f 393 109 432
f 249 65 168
f 65 61 168
f 168 5 249
f 168 61 5
f 429 11 167
f 128 429 167
f 167 161 128
f 167 11 249
f 249 5 167
f 479 161 167
f 106 191 467
f 47 84 243
f 48 352 54
f 54 10 48
f 137 481 373
f 137 123 5
f 373 123 137
f 5 123 388
f 479 167 388
f 388 167 5
f 388 123 373
f 282 481 289
f 289 31 282
f 373 481 282
f 282 388 373
f 282 31 479
f 479 388 282
f 329 321 52
f 329 264 321
f 457 488 442
f 442 329 52
f 442 488 406
f 406 118 442
f 442 118 314
f 264 329 484
f 329 442 484
f 399 347 428
f 347 399 424
f 424 399 428
f 428 113 424
f 424 113 104
f 424 104 266
f 147 306 55
f 461 147 55
f 55 345 461
f 52 39 395
f 166 457 395
f 395 457 52
f 316 321 181
f 181 39 316
f 316 39 321
f 440 418 421
f 187 259 301
f 170 245 391
f 279 187 27
f 27 4 279
f 187 301 27
f 163 408 475
f 475 113 163
f 163 113 408
f 328 278 431
f 489 278 328
f 148 398 53
f 396 312 29
f 26 427 5
f 257 26 351
f 47 243 174
f 174 243 371
f 237 17 371
f 371 243 237
f 33 97 497
f 497 427 33
f 497 97 326
f 497 326 7
f 5 427 497
f 497 137 5
f 52 457 94
f 94 442 52
f 457 442 94
f 266 264 305
f 305 424 266
f 354 424 305
f 171 375 354
f 354 484 171
f 314 375 171
f 171 442 314
f 171 484 442
f 354 347 394
f 394 424 354
f 347 424 394
f 354 345 277
f 345 55 277
f 277 268 354
f 277 306 268
f 277 55 306
f 341 202 166
f 166 395 341
f 209 440 421
f 209 295 225
f 209 421 295
f 194 301 259
f 391 4 158
f 158 170 391
f 4 27 158
f 506 357 240
f 240 357 131
f 71 506 240
f 240 456 71
f 478 131 49
f 398 148 478
f 49 398 478
f 29 109 448
f 448 396 29
f 109 393 448
f 393 396 448
f 114 348 449
f 449 348 106
f 449 344 114
f 191 106 76
f 162 191 76
f 262 26 5
f 262 351 26
f 5 278 262
f 278 351 262
f 137 497 80
f 210 137 80
f 451 210 80
f 264 484 498
f 498 305 264
f 498 484 354
f 354 305 498
f 401 341 395
f 401 39 422
f 401 395 39
f 252 259 312
f 312 396 252
f 393 194 252
f 252 396 393
f 131 357 437
f 131 148 211
f 211 240 131
f 148 240 211
f 74 148 53
f 74 240 148
f 53 281 74
f 281 456 74
f 456 240 74
f 505 148 131
f 131 478 505
f 505 478 148
f 257 351 188
f 106 348 188
f 188 76 106
f 162 76 188
f 188 278 162
f 188 351 278
f 213 194 259
f 259 252 213
f 213 252 194
f 245 170 98
f 98 437 357
f 98 506 245
f 98 357 506
f 257 188 485
f 485 188 348
f 37 176 310
f 474 303 310
f 219 267 310
f 310 509 37
f 310 324 140
f 310 176 474
f 267 509 310
f 140 383 310
f 310 303 324
f 260 470 378
f 378 460 260
f 470 60 378
f 378 60 358
f 491 510 445
f 445 173 491
f 40 334 1
f 1 364 40
f 334 308 1
f 150 472 1
f 1 308 150
f 414 385 1
f 1 385 364
f 1 235 414
f 92 235 1
f 372 355 191
f 191 355 496
f 286 416 68
f 68 416 81
f 342 330 501
f 144 342 501
f 195 165 501
f 330 72 501
f 501 156 144
f 24 156 501
f 501 72 195
f 266 104 198
f 198 471 233
f 198 462 266
f 198 104 438
f 438 471 198
f 19 462 198
f 494 207 284
f 130 132 284
f 404 130 284
f 284 157 404
f 284 374 105
f 284 132 335
f 335 374 284
f 284 207 157
f 226 359 110
f 275 459 226
f 112 275 226
f 226 110 112
f 226 459 468
f 86 359 226
f 172 86 226
f 199 75 463
f 463 120 199
f 199 309 190
f 349 83 199
f 426 179 199
f 69 380 199
f 190 503 199
f 199 285 349
f 199 120 69
f 199 179 309
f 380 177 199
f 199 83 75
f 199 503 285
f 16 307 206
f 16 415 154
f 154 111 16
f 111 307 16
f 90 124 138
f 90 300 390
f 90 390 124
f 138 234 90
f 90 93 117
f 90 155 300
f 234 93 90
f 90 473 155
f 340 253 57
f 350 500 57
f 57 500 340
f 9 78 39
f 39 2 9
f 39 78 292
f 292 499 39
f 21 113 48
f 376 113 21
f 204 420 139
f 139 23 272
f 272 38 139
f 139 420 23
f 139 197 317
f 139 38 197
f 139 153 204
f 164 153 139
f 139 337 164
f 184 337 139
f 410 419 477
f 126 410 477
f 242 189 477
f 477 91 126
f 189 91 477
f 477 419 89
f 477 302 242
f 35 458 384
f 384 434 35
f 490 115 35
f 434 99 35
f 115 417 35
f 35 99 32
f 32 325 35
f 417 458 35
f 137 54 352
f 269 10 137
f 210 269 137
f 137 352 146
f 289 481 137
f 146 265 137
f 137 265 289
f 10 54 137
f 328 431 108
f 296 450 328
f 108 290 328
f 328 290 296
f 328 360 304
f 328 450 360
f 46 224 328
f 304 280 328
f 328 280 46
f 328 224 489
f 174 96 145
f 145 47 174
f 320 182 174
f 174 371 320
f 174 182 96
f 237 367 12
f 454 192 237
f 237 84 454
f 192 367 237
f 12 256 237
f 44 439 237
f 237 256 44
f 237 439 231
f 231 17 237
f 237 243 84
f 50 279 209
f 225 50 209
f 279 418 209
f 418 440 209
f 449 134 480
f 480 443 449
f 247 134 449
f 449 467 247
f 443 246 449
f 449 246 344
f 449 106 467
f 80 7 451
f 80 497 7
f 401 392 411
f 411 151 401
f 401 151 465
f 465 202 401
f 401 422 392
f 202 341 401
f 98 393 131
f 98 27 301
f 170 158 98
f 98 194 393
f 301 194 98
f 98 158 27
f 131 437 98
f 485 26 257
f 346 397 485
f 485 119 346
f 114 377 485
f 485 377 119
f 485 397 326
f 326 97 485
f 33 427 485
f 485 97 33
f 427 26 485
f 485 348 114

