# https://github.com/mikedh/trimesh
v 0.07519753 0.02463155 -0.00560798
v 0.07527698 0.01854364 -0.00092087
v 0.07544191 0.02426126 -0.00524134
v 0.09925237 0.00531161 -0.00716317
v 0.07514470 0.00770008 -0.00077552
v 0.09970219 0.02262272 -0.01170211
v 0.09773626 0.00080091 -0.00649149
v 0.09966076 0.00358382 -0.00721819
v 0.09374027 0.02244033 -0.01500007
v 0.09979764 0.02106922 -0.01491313
v 0.08431571 0.02489626 -0.00864908
v 0.08082012 0.00265286 -0.00002820
v 0.07524421 0.02479783 -0.00581713
v 0.08057861 0.00616071 -0.00016862
v 0.09955676 0.01351165 -0.00824901
v 0.07585034 0.02368881 -0.00478481
v 0.08129088 0.00076596 -0.00028016
v 0.09139022 0.02462380 -0.01500006
v 0.09979769 0.00925652 -0.00763982
v 0.09003901 0.02473919 -0.01500007
v 0.09994996 0.01686679 -0.00919554
v 0.09190310 0.02214407 -0.01500008
v 0.09945050 0.02489088 -0.01305802
v 0.09549623 0.02291039 -0.01500005
v 0.07572184 0.00249319 -0.00068480
v 0.07502213 0.01772911 -0.00039038
v 0.09996529 0.02368568 -0.01239888
v 0.08544874 0.02488692 -0.01500006
v 0.09360577 0.02148729 -0.01500007
v 0.09911119 0.02129981 -0.01500006
v 0.09998533 0.01685073 -0.01500006
v 0.09100644 0.02494136 -0.01471566
v 0.07518170 0.00644958 -0.00063830
v 0.08407603 0.00001340 -0.00140929
v 0.07825076 0.02497845 -0.01500007
v 0.07914882 0.01068858 -0.00008462
v 0.07501778 0.02271779 -0.00779992
v 0.07512588 0.02477842 -0.01444821
v 0.09674613 0.02173749 -0.01500007
v 0.09987802 0.00005947 -0.00987516
v 0.09593214 0.00019589 -0.00586669
v 0.09663073 0.00012507 -0.01500006
v 0.09807818 0.02182045 -0.01500005
v 0.09988691 0.02008821 -0.01500006
v 0.09294822 0.02266423 -0.01500007
v 0.08290779 0.02490735 -0.01500007
v 0.09896960 0.02012495 -0.01500007
v 0.09992986 0.00494208 -0.00995900
v 0.09983402 0.00677682 -0.01500006
v 0.09962800 0.01263209 -0.00808544
v 0.08048354 0.00487196 -0.00003502
v 0.09979597 0.02037509 -0.01500006
v 0.07583690 0.00237394 -0.00073431
v 0.07568720 0.00109191 -0.01500006
v 0.09993796 0.01855289 -0.01500006
v 0.09928951 0.01952171 -0.01500007
v 0.08114489 0.00084073 -0.00021953
v 0.09375258 0.02330825 -0.01500007
v 0.08254488 0.02491531 -0.01500007
v 0.07541779 0.00167781 -0.01500006
v 0.09058116 0.00000023 -0.00397824
v 0.09941265 0.00415463 -0.00714821
v 0.07566808 0.01622841 -0.00003557
v 0.09975860 0.02001137 -0.01032228
v 0.09986601 0.01885668 -0.00982374
v 0.09738034 0.00051649 -0.00637079
v 0.07505083 0.00466592 -0.01500006
v 0.07696705 0.02481004 -0.01500006
v 0.07541449 0.01815819 -0.00075911
v 0.07803457 0.00032533 -0.00166832
v 0.09082003 0.02499307 -0.01304388
v 0.07525722 0.02234305 -0.00334466
v 0.07968724 0.00020825 -0.01500006
v 0.08023077 0.02494676 -0.00758307
v 0.07501543 0.02294761 -0.01500006
v 0.09937807 0.00009906 -0.01500006
v 0.07522887 0.00515106 -0.00058304
v 0.07735812 0.01437544 -0.00014792
v 0.07501320 0.01599913 -0.00267163
v 0.08030823 0.00859943 -0.00029826
v 0.09884612 0.00135232 -0.00691309
f 61 76 40
f 44 52 10
f 53 25 54
f 54 70 53
f 53 57 25
f 70 57 53
f 31 40 49
f 49 40 76
f 79 75 67
f 67 5 79
f 79 5 26
f 52 44 56
f 31 49 56
f 56 49 76
f 27 44 10
f 65 21 27
f 27 21 31
f 17 57 70
f 70 34 17
f 42 54 22
f 22 76 42
f 73 70 54
f 73 34 70
f 54 42 73
f 73 42 76
f 73 76 61
f 61 34 73
f 48 40 31
f 31 21 48
f 77 67 60
f 54 25 60
f 25 77 60
f 63 21 65
f 65 26 63
f 78 21 63
f 63 26 77
f 33 26 5
f 77 26 33
f 5 67 33
f 33 67 77
f 29 76 22
f 29 56 76
f 38 13 35
f 35 20 22
f 35 67 75
f 35 60 67
f 22 54 35
f 54 60 35
f 38 75 37
f 37 75 79
f 79 26 37
f 55 27 31
f 44 27 55
f 31 56 55
f 55 56 44
f 64 26 65
f 65 27 64
f 2 72 26
f 27 72 2
f 32 20 28
f 28 35 32
f 68 75 38
f 38 35 68
f 68 35 75
f 39 58 30
f 10 52 30
f 26 72 1
f 1 37 26
f 1 13 38
f 38 37 1
f 74 35 13
f 69 2 26
f 6 64 27
f 27 2 6
f 2 69 6
f 26 64 6
f 6 69 26
f 19 48 21
f 40 48 19
f 19 8 40
f 66 17 34
f 57 17 66
f 78 63 36
f 63 51 36
f 80 19 36
f 25 57 12
f 12 77 25
f 12 63 77
f 12 51 63
f 56 29 9
f 9 58 56
f 56 58 47
f 47 58 39
f 39 30 47
f 52 56 47
f 47 30 52
f 20 35 59
f 35 28 59
f 43 30 58
f 18 20 32
f 18 58 20
f 24 43 18
f 18 43 58
f 3 1 72
f 13 1 3
f 11 74 13
f 32 35 71
f 35 74 71
f 14 19 80
f 51 19 14
f 80 36 14
f 14 36 51
f 8 19 62
f 62 12 8
f 51 12 62
f 61 40 41
f 40 66 41
f 41 34 61
f 41 66 34
f 40 8 81
f 81 66 40
f 8 12 81
f 50 19 21
f 50 36 19
f 78 36 50
f 20 58 45
f 58 9 45
f 22 20 45
f 46 28 20
f 20 59 46
f 46 59 28
f 23 71 74
f 32 71 23
f 74 11 23
f 13 3 23
f 23 11 13
f 23 18 32
f 23 72 27
f 24 18 23
f 23 43 24
f 23 27 10
f 10 30 23
f 30 43 23
f 4 19 51
f 51 62 4
f 4 62 19
f 66 81 7
f 7 81 12
f 57 66 7
f 7 12 57
f 15 21 78
f 78 50 15
f 15 50 21
f 16 3 72
f 72 23 16
f 16 23 3
f 45 9 29
f 45 29 22

