# https://github.com/mikedh/trimesh
v -0.01378520 -0.03784904 -0.11239575
v -0.02257778 -0.02653764 -0.11877530
v -0.02548166 -0.00423193 -0.11676613
v -0.01999182 -0.02861967 -0.10328194
v -0.02025112 -0.03083479 -0.11465830
v -0.02372710 -0.00828634 -0.10471197
v -0.02479983 -0.00025983 -0.11091561
v -0.00561998 -0.04185332 -0.10003784
v -0.01650647 -0.03599052 -0.12337253
v -0.00040647 -0.04232626 -0.12128051
v -0.02235859 -0.02593563 -0.11451858
v -0.02274811 -0.02403194 -0.11274976
v -0.00950370 -0.03969015 -0.12356976
v -0.01083254 -0.03945521 -0.10196722
v -0.01999548 -0.03171090 -0.11812884
v -0.02592441 -0.01014891 -0.12345242
v -0.01416186 -0.03762656 -0.11408724
v -0.00231607 -0.04283560 -0.10417704
v -0.01194714 -0.03842538 -0.12374739
v -0.02557348 -0.01449123 -0.12257421
v -0.02483663 -0.00450825 -0.11152451
v -0.01318215 -0.03808785 -0.10771773
v -0.01963520 -0.02994154 -0.10511942
v -0.01935598 -0.03195386 -0.11211217
v -0.01216737 -0.03874545 -0.12139987
v -0.00015299 -0.00048208 -0.12412407
v -0.01381925 -0.03776711 -0.11066569
v -0.01723581 -0.03530584 -0.12192705
v -0.01808238 -0.03446288 -0.12172309
v -0.02355509 -0.02302972 -0.11789024
v -0.01755100 -0.03265785 -0.10006925
v -0.00588728 -0.04099018 -0.12342880
v -0.01626518 -0.03540808 -0.10781636
v -0.00023255 -0.04184541 -0.12375653
v -0.02335255 -0.02069393 -0.11145316
v -0.02227546 -0.02757998 -0.11980355
v -0.01547095 -0.03675036 -0.12272554
v -0.02631544 -0.00045402 -0.12331117
v -0.02420289 -0.01405252 -0.11089327
v -0.02299020 -0.02242770 -0.11169866
v -0.01563937 -0.03546027 -0.10174035
v -0.02501539 -0.01885339 -0.12306485
v -0.02248728 -0.02439666 -0.11122503
v -0.02581465 -0.00539968 -0.12381167
v -0.02422152 -0.02259104 -0.12306478
v -0.02263756 -0.02658943 -0.11955702
v -0.00327819 -0.04254311 -0.10468718
v -0.01123996 -0.03935714 -0.11043512
v -0.02054539 -0.03034271 -0.11494565
v -0.02021166 -0.02740847 -0.10147970
v -0.01285679 -0.03833677 -0.12336714
v -0.01027707 -0.03966824 -0.12048082
v -0.02228445 -0.02792236 -0.12145544
v -0.02278511 -0.01432741 -0.10118772
v -0.01730405 -0.03491306 -0.11531544
v -0.01991455 -0.02976841 -0.10669109
v -0.00290625 -0.04185899 -0.12097853
v -0.02120070 -0.02855274 -0.11271135
v -0.01591851 -0.03634112 -0.11845910
v -0.01593412 -0.03622019 -0.11427386
v -0.01725882 -0.03468555 -0.11115185
v -0.02488237 -0.01518692 -0.11731330
v -0.02103847 -0.02868147 -0.11161168
v -0.01908842 -0.03027977 -0.10204067
v -0.02014240 -0.03205299 -0.12320847
v -0.02343761 -0.02063908 -0.11209602
v -0.00654734 -0.04131623 -0.11156836
v -0.02086786 -0.02894028 -0.11118958
v -0.01763003 -0.03492718 -0.12171068
v -0.01161535 -0.03917565 -0.11246848
v -0.00416470 -0.04168827 -0.11931240
v -0.01849554 -0.03382436 -0.12356103
v -0.01184075 -0.03894214 -0.12030689
v -0.02269016 -0.01995294 -0.10562073
v -0.02078325 -0.03036878 -0.11793272
v -0.01088630 -0.03941566 -0.10176303
v -0.02291038 -0.01047952 -0.10007635
v -0.01755983 -0.03500511 -0.12182774
v -0.02272895 -0.01730693 -0.10317307
v -0.02284625 -0.01980694 -0.10654531
v -0.01726499 -0.03397274 -0.10566084
v -0.01623801 -0.03606171 -0.11771209
v -0.02367166 -0.02327889 -0.11956376
v -0.01850837 -0.03333012 -0.12388123
v -0.02032374 -0.03051559 -0.11344358
v -0.00612375 -0.04149620 -0.11007769
v -0.00764555 -0.04053305 -0.12285200
v -0.01813339 -0.03195220 -0.10148250
v -0.02247252 -0.02595384 -0.11573571
v -0.01771134 -0.03407657 -0.11086090
v -0.02382374 -0.01888282 -0.11272463
v -0.00163943 -0.00005845 -0.12412407
v -0.02459932 -0.01860979 -0.12386970
v -0.02199290 -0.01953571 -0.10030158
v -0.01381951 -0.03764125 -0.10830251
v -0.01062513 -0.03956227 -0.10142847
v -0.01641592 -0.03576397 -0.11430350
v -0.00971619 -0.04012469 -0.10902593
v -0.00153416 -0.04040470 -0.12389109
v -0.01430262 -0.03755547 -0.11965336
v -0.00966727 -0.03975314 -0.12345428
v -0.01312342 -0.03803868 -0.10535180
v -0.01124650 -0.03929615 -0.10626480
v -0.00840370 -0.04065197 -0.11253595
v -0.01293668 -0.03734325 -0.12388924
v -0.02247286 -0.02747443 -0.12140734
v -0.00977638 -0.03998719 -0.10033159
v -0.02198316 -0.02482497 -0.10846670
v -0.01869441 -0.03183796 -0.10565083
v -0.00030381 -0.04325411 -0.10499210
v -0.02424673 -0.01932797 -0.11696478
v -0.02578535 -0.01000219 -0.12361224
v -0.02502691 -0.01504910 -0.12388719
v -0.02406893 -0.02241313 -0.12120820
v -0.02356983 -0.00651697 -0.10316972
v -0.02597182 -0.00013906 -0.12040626
v -0.01237667 -0.03877046 -0.11384985
v -0.02346022 -0.02388200 -0.11905536
v -0.01411438 -0.03767123 -0.11803772
v -0.02620896 -0.00513971 -0.12297164
v -0.02546300 -0.00926252 -0.12388709
v -0.02105821 -0.02472923 -0.10149109
v -0.02529202 -0.00660433 -0.11554531
v -0.01691341 -0.03561030 -0.12219035
v -0.02612172 -0.00169205 -0.12353965
v -0.02338277 -0.00703257 -0.10202929
v -0.01679621 -0.03484238 -0.10782822
v -0.01431552 -0.00759471 -0.10004186
v -0.02531676 -0.00781335 -0.11626731
v -0.02537078 -0.00005158 -0.11533738
v -0.02132178 -0.02934383 -0.11811238
v -0.00377916 -0.00083020 -0.12412407
v -0.00308677 -0.01018932 -0.12412407
v -0.02438981 -0.00000824 -0.10808084
v -0.02017721 -0.02889783 -0.10557036
v -0.00233321 -0.04248640 -0.11209535
v -0.01610540 -0.03597152 -0.12366444
v -0.00217361 -0.04233330 -0.11551141
v -0.00428467 -0.04217897 -0.10641809
v -0.02402673 -0.02123870 -0.11849701
v -0.00708765 -0.04131362 -0.10234396
v -0.02514169 -0.00029705 -0.11339931
v -0.02027809 -0.02818070 -0.10417334
v -0.01900207 -0.03060991 -0.10258182
v -0.00000114 -0.03140757 -0.10479598
v -0.02615802 -0.00247702 -0.12214419
v -0.01506921 -0.03649218 -0.10634413
v -0.00055601 -0.04301800 -0.10896667
v -0.02394977 -0.01474972 -0.10947484
v -0.02182701 -0.02903054 -0.12196722
v -0.01762723 -0.03432873 -0.12386458
v -0.01995071 -0.02766343 -0.10022566
v -0.01826889 -0.03427979 -0.12189494
v -0.01450720 -0.03733414 -0.11288836
v -0.02552649 -0.01525580 -0.12337983
v -0.00127444 -0.04202216 -0.12332751
v -0.02331695 -0.02405661 -0.11815627
v -0.00034496 -0.04251013 -0.11870661
v -0.02359471 -0.01985839 -0.11195864
v -0.00714263 -0.04128672 -0.10311280
v -0.01219503 -0.03881736 -0.11686279
v -0.02103191 -0.02560155 -0.10320522
v -0.00324346 -0.00959194 -0.12412407
v -0.02329239 -0.00353407 -0.10090894
v -0.02001599 -0.02892564 -0.10440080
v -0.01278266 -0.03828859 -0.12347684
v -0.01769859 -0.03488680 -0.12341256
v -0.01651329 -0.03578508 -0.11673525
v -0.01469210 -0.03658398 -0.10301525
v -0.01458867 -0.03696267 -0.12374483
v -0.02389424 -0.02385609 -0.12313459
v -0.02424833 -0.02196041 -0.12189177
v -0.02296140 -0.01480063 -0.10267750
v -0.02262152 -0.02465527 -0.11321123
v -0.01258537 -0.03847262 -0.10720621
v -0.00993127 -0.03978605 -0.12135261
v -0.01833931 -0.00008520 -0.12388825
v -0.01978864 -0.02861726 -0.10169643
v -0.01628875 -0.03596962 -0.11613561
v -0.00431553 -0.04227388 -0.10174003
v -0.00482163 -0.04174328 -0.11423064
v -0.01906453 -0.03098125 -0.10458875
v -0.02491633 -0.00667715 -0.11242843
v -0.01080642 -0.03948876 -0.11886654
v -0.02022087 -0.03056382 -0.11257603
v -0.02585091 -0.00671362 -0.12025882
v -0.02607242 -0.00636186 -0.12201664
v -0.01733979 -0.03490534 -0.11584561
v -0.02188979 -0.02009292 -0.10020313
v -0.01879191 -0.03120807 -0.10334743
v -0.00724797 -0.04120218 -0.10647729
v -0.02548269 -0.01398082 -0.12141769
v -0.02418810 -0.01576712 -0.11200100
v -0.01978900 -0.03234450 -0.12101050
v -0.02431740 -0.01330977 -0.11134625
v -0.00309485 -0.04248063 -0.10804758
v -0.00056268 -0.03093445 -0.10006061
v -0.02578795 -0.00735790 -0.11995929
v -0.02602334 -0.00243223 -0.12101564
v -0.02570994 -0.00644347 -0.11900360
v -0.02109867 -0.02613141 -0.10488859
v -0.02588193 -0.00959688 -0.12353712
v -0.02261156 -0.01569275 -0.10105064
v -0.02631720 -0.00067675 -0.12333023
v -0.02485746 -0.01906298 -0.12197824
v -0.01770512 -0.03316285 -0.10417865
v -0.01513659 -0.03582260 -0.10001824
v -0.01468865 -0.03706404 -0.11054289
v -0.01870205 -0.03288524 -0.11148202
v -0.00838493 -0.04071456 -0.10825440
v -0.00315855 -0.04256956 -0.10496188
v -0.02070849 -0.03055863 -0.11825290
v -0.02582776 -0.00025271 -0.12387959
v -0.02339673 -0.01997495 -0.11058988
v -0.02124364 -0.02595275 -0.10555455
v -0.00397021 -0.04166242 -0.12055841
v -0.00711567 -0.04127479 -0.10037747
v -0.01721665 -0.03528556 -0.12085016
v -0.01456629 -0.03708602 -0.12365264
v -0.02189476 -0.02914222 -0.12333699
v -0.02091656 -0.02663260 -0.10469861
v -0.02245250 -0.02494899 -0.11246010
v -0.02445442 -0.00683475 -0.10917300
v -0.02300914 -0.00873442 -0.10001876
v -0.01921318 -0.03096627 -0.10574951
v -0.02239523 -0.02662743 -0.11723020
v -0.01266255 -0.03816433 -0.10074338
v -0.01368558 -0.03794710 -0.12041982
v -0.00698672 -0.04136019 -0.10129412
v -0.01898346 -0.03033294 -0.10140609
v -0.02343796 -0.00073094 -0.10155172
v -0.00033487 -0.04264188 -0.11667940
v -0.02324107 -0.00496825 -0.10077116
v -0.01442050 -0.03643183 -0.12388900
v -0.02213080 -0.02796398 -0.11996805
v -0.01900813 -0.03095702 -0.10402801
v -0.02437287 -0.02180713 -0.12269681
v -0.02563179 -0.01327248 -0.12350146
v -0.02365453 -0.02464928 -0.12333242
v -0.01868380 -0.03385211 -0.12273622
v -0.02388625 -0.01704384 -0.11101727
v -0.02171097 -0.02721763 -0.11261840
v -0.00995742 -0.03998553 -0.10547523
v -0.01175863 -0.03906520 -0.10959061
v -0.02279617 -0.01738185 -0.10368984
v -0.02563641 -0.01450749 -0.12336217
v -0.00005361 -0.03136249 -0.10250040
v -0.01346475 -0.03803421 -0.12207881
v -0.02562998 -0.00657713 -0.12388705
v -0.01902173 -0.03251565 -0.11223783
v -0.02124714 -0.02834072 -0.11234566
v -0.02312700 -0.00746782 -0.10043834
v -0.02326889 -0.02468628 -0.11956371
v -0.02552014 -0.00771651 -0.11787666
v -0.00034931 -0.04257243 -0.11776191
v -0.00789988 -0.04083406 -0.11366642
v -0.01460957 -0.03672379 -0.10392954
v -0.01350618 -0.03801534 -0.12189975
v -0.02426548 -0.00746633 -0.10808999
v -0.02332337 -0.00012889 -0.10082207
v -0.02440024 -0.01534952 -0.11332350
v -0.02297068 -0.01007529 -0.10028958
v -0.01153074 -0.03906050 -0.12270672
v -0.02530556 -0.01525840 -0.12108378
v -0.01669704 -0.03441588 -0.10345386
v -0.01039433 -0.03979250 -0.11174074
v -0.00852187 -0.04068263 -0.10190353
v -0.02613943 -0.00721398 -0.12284864
v -0.02586318 -0.00884171 -0.12122938
v -0.01795183 -0.03450724 -0.12006797
v -0.02122880 -0.02968773 -0.11892751
v -0.00000669 -0.03326409 -0.12389129
v -0.02306104 -0.02516549 -0.12379670
v -0.01979553 -0.02810479 -0.10029932
v -0.02315609 -0.02391980 -0.11627127
v -0.01834403 -0.03345277 -0.11236399
v -0.02368010 -0.01509398 -0.10777132
v -0.01154488 -0.03920247 -0.11420037
v -0.01123028 -0.03937185 -0.11372433
v -0.01616773 -0.03476538 -0.10095783
v -0.02270294 -0.02725028 -0.12286053
v -0.01993834 -0.03090555 -0.12388808
v -0.00193228 -0.04265122 -0.11040446
v -0.02412731 -0.02226239 -0.12142262
v -0.01710851 -0.03531787 -0.11910562
v -0.02471771 -0.00654975 -0.11087532
v -0.01854878 -0.03316932 -0.11214980
v -0.01931638 -0.03244142 -0.11543721
v -0.01576026 -0.03650597 -0.11990087
v -0.02192380 -0.02681195 -0.11317636
v -0.02233257 -0.02737121 -0.11953423
v -0.00403510 -0.00573692 -0.12412407
v -0.02090357 -0.02533406 -0.10168172
v -0.02007534 -0.02846564 -0.10346304
v -0.00805123 -0.04071292 -0.11550162
v -0.02384701 -0.02081645 -0.11606819
v -0.02367544 -0.02410236 -0.12173898
v -0.00294593 -0.04271904 -0.10144141
v -0.02113612 -0.02374284 -0.10043557
v -0.01953674 -0.03147731 -0.11109062
v -0.01978688 -0.02919147 -0.10354211
v -0.02355025 -0.01943744 -0.11108369
v -0.02014837 -0.03020554 -0.11037026
v -0.02309689 -0.00761256 -0.10027859
v -0.01068731 -0.03963928 -0.11432227
v -0.00058689 -0.04253857 -0.11754959
v -0.02577968 -0.01229968 -0.12277491
v -0.02619012 -0.00030826 -0.12224997
v -0.01124383 -0.03921854 -0.12165514
v -0.02135505 -0.02949002 -0.11925453
v -0.02204747 -0.02027595 -0.10157545
v -0.00093619 -0.04327515 -0.10055620
v -0.00918590 -0.04016170 -0.11900288
v -0.00542741 -0.04083376 -0.12369424
v -0.02472055 -0.02004939 -0.12343110
v -0.01668909 -0.03544346 -0.11352973
v -0.00421074 -0.00188854 -0.12412407
v -0.01549509 -0.03640235 -0.11044511
v -0.00101174 -0.04254359 -0.11599112
v -0.02046176 -0.03150890 -0.12267080
v -0.02327687 -0.01967090 -0.10939708
v -0.00003883 -0.04313448 -0.10876687
v -0.02168300 -0.02685289 -0.11106222
v -0.02618693 -0.00147267 -0.12224534
v -0.01658640 -0.03414415 -0.10056936
v -0.01712187 -0.03533019 -0.11964977
v -0.01097278 -0.03942241 -0.11835591
v -0.01901231 -0.03171956 -0.10776744
v -0.02093450 -0.03068697 -0.12188564
v -0.01632400 -0.03570748 -0.11192977
v -0.00920418 -0.04036211 -0.10400387
v -0.01199140 -0.03897958 -0.11222840
v -0.02307684 -0.02608026 -0.12229813
v -0.00902962 -0.04045071 -0.10399001
v -0.02362985 -0.00016536 -0.10279682
v -0.02260764 -0.02142258 -0.10724616
v -0.00775130 -0.04100231 -0.10601690
v -0.02255728 -0.02676114 -0.11940169
v -0.02583619 -0.00341555 -0.11959984
v -0.01892748 -0.03263722 -0.12388825
v -0.01174846 -0.03857863 -0.12370779
v -0.00794774 -0.04085417 -0.11130503
v -0.00394895 -0.04176779 -0.11884368
v -0.01299177 -0.03827179 -0.10925490
v -0.02616243 -0.00058262 -0.12350748
v -0.01976528 -0.03256044 -0.12306197
v -0.00453999 -0.00313507 -0.12412407
v -0.02410509 -0.01544903 -0.11093761
v -0.02397729 -0.01674379 -0.11138664
v -0.00235041 -0.04189817 -0.12207950
v -0.00477230 -0.04212606 -0.10146582
v -0.00117896 -0.04320895 -0.10100044
v -0.00020280 -0.04341538 -0.10140907
v -0.02313925 -0.01676112 -0.10549342
v -0.02087401 -0.02465474 -0.10000081
v -0.01733149 -0.03312349 -0.10054504
v -0.02344870 -0.00030806 -0.10160452
v -0.01642829 -0.03559692 -0.11187455
v -0.00073761 -0.04331959 -0.10054932
v -0.00389126 -0.04202517 -0.11419181
v -0.00973224 -0.04005958 -0.11489414
v -0.01382722 -0.03750671 -0.10588855
v -0.00929117 -0.03993545 -0.12332393
v -0.00188115 -0.04181725 -0.12350185
v -0.01254080 -0.03866518 -0.11509003
v -0.01670993 -0.03522667 -0.11090416
v -0.02427517 -0.01466667 -0.11179055
v -0.02142391 -0.02676783 -0.10884290
v -0.01323054 -0.03802866 -0.10701460
v -0.02503930 -0.00055774 -0.11259661
v -0.00013351 -0.04282364 -0.11418706
v -0.01603839 -0.03635325 -0.12300013
v -0.02451136 -0.00998831 -0.11106287
v -0.02309319 -0.02063516 -0.10946157
v -0.00030902 -0.01546093 -0.12412407
v -0.02417172 -0.02144438 -0.12371405
v -0.01696128 -0.03368341 -0.10087559
v -0.02188647 -0.02776585 -0.11656212
v -0.00224958 -0.04106177 -0.12389098
v -0.00436410 -0.04216292 -0.10606365
v -0.02621003 -0.00242206 -0.12257004
v -0.00863154 -0.04044540 -0.11696395
v -0.01942978 -0.03259098 -0.11844565
v -0.02423839 -0.02097941 -0.12374491
v -0.02094982 -0.02487950 -0.10102660
v -0.02505233 -0.00563750 -0.11339510
v -0.01207587 -0.03854667 -0.10024974
v -0.01799571 -0.03443205 -0.11952036
v -0.02613875 -0.00840666 -0.12329949
v -0.02362001 -0.00686255 -0.10357364
v -0.02496312 -0.00312304 -0.11230684
v -0.00107080 -0.04206326 -0.12329977
v -0.01531170 -0.03684358 -0.11899367
v -0.01662732 -0.03513674 -0.10895040
v -0.01249587 -0.03834915 -0.10230977
v -0.02186484 -0.02276654 -0.10407228
v -0.01819373 -0.03358895 -0.11187256
v -0.01477953 -0.03715388 -0.11438594
v -0.01928956 -0.03155672 -0.10933434
v -0.02600291 -0.00214327 -0.12080606
v -0.01930723 -0.03227445 -0.11391520
v -0.00007570 -0.00084567 -0.12412407
v -0.00943291 -0.04023311 -0.10293769
v -0.00405962 -0.04190078 -0.11581275
v -0.02233084 -0.02700086 -0.12385254
v -0.02538074 -0.01446998 -0.12089573
v -0.02521114 -0.01509088 -0.12005253
v -0.02340199 -0.02537234 -0.12320945
v -0.01572460 -0.03534829 -0.12388879
v -0.01862770 -0.03328995 -0.12381809
v -0.00985423 -0.04004035 -0.10586509
v -0.02628340 -0.00270896 -0.12322575
v -0.00228709 -0.04255152 -0.11085627
v -0.00158574 -0.04248098 -0.11503788
v -0.00869590 -0.04059125 -0.10073315
v -0.02059498 -0.02881381 -0.10856447
v -0.02425286 -0.02185054 -0.12171329
v -0.01937119 -0.03231953 -0.11508849
v -0.00000475 -0.03249750 -0.10392094
v -0.02563174 -0.01454871 -0.12313038
v -0.02490460 -0.00631940 -0.11226312
v -0.01589904 -0.03631302 -0.11676565
v -0.01458276 -0.03646426 -0.10051026
v -0.01331099 -0.03816988 -0.11315997
v -0.02466447 -0.00690454 -0.11062215
v -0.00964041 -0.04015850 -0.11083882
v -0.00596449 -0.00000295 -0.12122932
v -0.02383605 -0.01572924 -0.10934750
v -0.02425145 -0.02225825 -0.12254657
v -0.02133595 -0.03012672 -0.12296278
v -0.01549235 -0.03645742 -0.11124587
v -0.02287166 -0.02317258 -0.11213246
v -0.02095935 -0.02551392 -0.10248284
v -0.01386287 -0.03781772 -0.11354788
v -0.02344930 -0.02321469 -0.11732629
v -0.02096083 -0.03076308 -0.12277586
v -0.02590258 -0.00120960 -0.11984393
v -0.02149290 -0.02838836 -0.11505566
v -0.01745268 -0.03332149 -0.10293429
v -0.00480674 -0.04123051 -0.12347905
v -0.02451099 -0.00696919 -0.10959276
v -0.02227327 -0.02565520 -0.11285050
v -0.00873014 -0.04056868 -0.10830665
v -0.02479389 -0.00722277 -0.11173709
v -0.00292729 -0.04242797 -0.11037641
v -0.02157303 -0.02687237 -0.11026715
v -0.01897093 -0.03243685 -0.11131997
v -0.01590449 -0.03505137 -0.10051677
v -0.02525464 -0.01654502 -0.12225318
v -0.00733431 -0.03987289 -0.12389015
v -0.01767274 -0.03434493 -0.11267289
v -0.00605422 -0.04170880 -0.10154114
v -0.01944290 -0.03171168 -0.11153976
v -0.01491030 -0.03694985 -0.12355700
v -0.01579363 -0.03572041 -0.10592616
v -0.02335610 -0.01489590 -0.10542589
v -0.02066320 -0.03109005 -0.12165147
v -0.02100128 -0.03019337 -0.12367348
v -0.00096350 -0.04260671 -0.11506545
v -0.02087577 -0.03054981 -0.12019486
v -0.01287612 -0.03845571 -0.11660586
v -0.02561151 -0.01201509 -0.12364355
v -0.02359927 -0.02432983 -0.12169296
v -0.02233706 -0.01700025 -0.10027464
v -0.02498775 -0.01915530 -0.12333841
v -0.01563729 -0.03644216 -0.11360092
v -0.02427010 -0.01414358 -0.11144194
v -0.02475822 -0.01960177 -0.12348913
v -0.02609020 -0.00842276 -0.12290482
v -0.00057025 -0.03881467 -0.12389123
v -0.02198537 -0.02585870 -0.11087738
v -0.01490706 -0.00004046 -0.10748406
v -0.02409596 -0.00676400 -0.10674322
v -0.02230918 -0.02651173 -0.12388768
v -0.02325223 -0.00382851 -0.10067431
v -0.00386416 -0.04241610 -0.10204806
v -0.01642959 -0.03577069 -0.11468490
v -0.01709205 -0.03463850 -0.10906893
v -0.02087151 -0.03067464 -0.12103164
v -0.00337051 -0.04258261 -0.10062128
v -0.00830441 -0.04065243 -0.11473363
v -0.02173583 -0.02879346 -0.12366437
v -0.02273904 -0.02655936 -0.12048583
v -0.01492868 -0.00023407 -0.10117760
v -0.01794437 -0.03431802 -0.11672927
v -0.00340531 -0.04224909 -0.11198337
v -0.01731955 -0.03304281 -0.10002632
v -0.01927189 -0.02959712 -0.10096501
v -0.02036319 -0.02929918 -0.10850698
v -0.01520143 -0.03611058 -0.10353723
v -0.02514248 -0.01425522 -0.11875290
v -0.01015961 -0.03973425 -0.11992816
v -0.01252680 -0.03867259 -0.11331774
v -0.02319257 -0.02366111 -0.12388753
v -0.00939645 -0.04023495 -0.11340454
v -0.02511706 -0.00017013 -0.11318491
v -0.01206061 -0.03860149 -0.10118393
v -0.01580460 -0.03644543 -0.12345552
v -0.00428496 -0.04219552 -0.10576479
v -0.00259577 -0.04270512 -0.10572560
v -0.00921822 -0.04032571 -0.10131048
v -0.02489160 -0.00506044 -0.11198060
v -0.01930504 -0.03249744 -0.11578622
v -0.02394394 -0.01530762 -0.10972854
v -0.01385430 -0.03717272 -0.10102573
v -0.00316170 -0.04203075 -0.11719228
v -0.02455672 -0.00919211 -0.11099149
v -0.01063191 -0.03965234 -0.10774101
v -0.01817203 -0.03438746 -0.12203615
v -0.02111268 -0.02870333 -0.11243906
v -0.01460392 -0.03654319 -0.10152364
v -0.00839336 -0.04074191 -0.10114643
v -0.02278298 -0.02633585 -0.12366558
v -0.00479405 -0.04131285 -0.12293532
v -0.00737849 -0.04060248 -0.12331915
v -0.02564041 -0.00799361 -0.11899377
v -0.01494479 -0.00037721 -0.10035664
v -0.01975810 -0.03245700 -0.12169349
v -0.00954857 -0.04014169 -0.10101807
v -0.02327902 -0.00047532 -0.10055523
v -0.01886957 -0.03029312 -0.10035627
v -0.00000330 -0.01166137 -0.12412407
v -0.01504527 -0.03690063 -0.11287637
v -0.02425264 -0.01373914 -0.11108654
v -0.02577997 -0.00416902 -0.12386994
v -0.00797461 -0.04039429 -0.12338586
v -0.02017361 -0.03172951 -0.12353996
v -0.00135015 -0.04313994 -0.10213401
v -0.02606567 -0.00956549 -0.12328662
v -0.02274678 -0.01254921 -0.10001429
v -0.02491329 -0.00601768 -0.11229304
v -0.02416960 -0.02229311 -0.12186336
v -0.00478135 -0.02688112 -0.10002302
v -0.02310310 -0.02403192 -0.11604545
v -0.02072354 -0.02703834 -0.10430713
v -0.01611843 -0.03618454 -0.11866407
v -0.01861336 -0.03282914 -0.11029502
v -0.00105462 -0.04319105 -0.10254851
v -0.00331550 -0.04195841 -0.11788018
v -0.02597174 -0.00884541 -0.12349048
v -0.01089616 -0.03947825 -0.11740802
v -0.02172550 -0.02095831 -0.10035019
v -0.01047707 -0.03956895 -0.12093524
v -0.02309808 -0.00890169 -0.10066566
v -0.02314921 -0.02149604 -0.11127052
v -0.02183568 -0.02643455 -0.11110403
v -0.02110798 -0.02884558 -0.11312198
v -0.00614281 -0.04138428 -0.11310739
v -0.02332366 -0.02035978 -0.11067590
v -0.02325648 -0.00573017 -0.10099526
v -0.01984041 -0.03120186 -0.11239535
v -0.02404516 -0.02323981 -0.12338384
v -0.00002045 -0.00130210 -0.12412407
v -0.00583566 -0.04070439 -0.12371542
v -0.02380378 -0.01808990 -0.11155922
v -0.02229226 -0.01896111 -0.10174775
v -0.00194700 -0.04294236 -0.10363706
v -0.00387028 -0.04237897 -0.10363010
v -0.01375052 -0.03791145 -0.12025501
v -0.02130145 -0.02560450 -0.10518345
v -0.02316152 -0.00927323 -0.10121772
v -0.00033078 -0.04327494 -0.10437360
v -0.02100070 -0.03059290 -0.12201812
v -0.00567964 -0.04149248 -0.11400483
v -0.02213564 -0.02508873 -0.11020148
f 322 272 145
f 34 272 322
f 92 177 427
f 427 472 92
f 520 517 260
f 145 272 522
f 522 553 145
f 402 553 522
f 26 197 402
f 517 197 26
f 145 553 247
f 247 553 402
f 402 197 247
f 359 197 8
f 128 197 517
f 484 92 472
f 484 472 260
f 260 517 484
f 517 26 484
f 484 26 92
f 419 322 145
f 145 247 419
f 353 197 359
f 353 247 197
f 322 419 353
f 353 419 247
f 470 272 34
f 34 99 470
f 177 92 213
f 204 38 213
f 38 308 213
f 116 177 213
f 213 308 116
f 487 207 355
f 220 527 65
f 197 128 533
f 533 8 197
f 355 207 533
f 207 8 533
f 530 77 54
f 530 54 464
f 464 54 203
f 355 530 189
f 530 464 189
f 189 464 94
f 224 77 530
f 224 533 128
f 224 128 517
f 224 530 355
f 355 533 224
f 517 520 224
f 116 308 496
f 183 198 389
f 44 389 204
f 92 26 375
f 402 522 375
f 375 26 402
f 375 470 99
f 375 522 272
f 272 470 375
f 207 487 448
f 152 487 355
f 521 152 274
f 217 8 107
f 217 229 8
f 512 229 217
f 203 54 173
f 456 77 277
f 456 54 77
f 277 173 456
f 456 173 54
f 94 464 556
f 556 464 245
f 245 464 79
f 215 560 565
f 43 565 560
f 260 472 134
f 134 472 427
f 204 389 412
f 389 120 412
f 389 198 268
f 187 120 268
f 268 120 389
f 125 44 204
f 389 44 540
f 112 540 44
f 132 213 92
f 92 375 132
f 207 448 41
f 190 521 144
f 488 521 274
f 430 220 65
f 65 436 430
f 408 220 281
f 408 239 220
f 565 43 471
f 227 362 95
f 387 8 207
f 107 8 387
f 322 353 110
f 8 229 452
f 415 217 107
f 512 217 415
f 181 256 515
f 515 360 181
f 136 360 343
f 193 348 261
f 80 556 321
f 94 556 80
f 428 348 245
f 420 261 406
f 529 269 389
f 420 307 529
f 529 246 420
f 45 237 465
f 465 552 45
f 465 42 420
f 420 246 465
f 420 42 449
f 449 264 420
f 299 396 355
f 321 302 214
f 214 302 159
f 45 552 171
f 171 552 239
f 116 496 130
f 496 134 130
f 130 177 116
f 427 177 130
f 130 134 427
f 260 134 335
f 204 412 324
f 142 496 324
f 187 268 186
f 516 269 183
f 379 375 99
f 379 99 34
f 101 341 13
f 554 379 34
f 204 213 345
f 345 125 204
f 213 125 345
f 525 125 213
f 44 125 525
f 525 213 249
f 249 44 525
f 540 112 202
f 282 375 340
f 282 474 375
f 163 375 133
f 375 474 133
f 113 246 238
f 527 220 458
f 220 239 513
f 249 213 347
f 347 375 163
f 325 448 487
f 325 280 448
f 478 61 448
f 127 41 448
f 448 61 127
f 109 328 487
f 109 190 328
f 487 152 31
f 152 521 31
f 206 537 209
f 144 521 230
f 230 64 144
f 423 387 207
f 227 387 423
f 227 423 505
f 505 423 511
f 97 330 316
f 322 110 148
f 136 148 283
f 283 148 110
f 562 110 353
f 34 322 371
f 392 156 34
f 255 371 232
f 340 375 409
f 256 452 191
f 519 415 107
f 515 256 295
f 156 514 440
f 350 514 156
f 350 255 57
f 136 343 506
f 216 350 57
f 514 350 216
f 404 360 515
f 404 343 360
f 136 283 413
f 348 193 349
f 349 193 261
f 245 79 354
f 354 428 245
f 348 428 504
f 355 43 122
f 122 385 355
f 293 152 355
f 355 385 293
f 433 221 293
f 20 307 420
f 420 406 20
f 261 348 367
f 367 406 261
f 192 529 307
f 406 529 192
f 307 20 192
f 192 20 406
f 159 42 205
f 42 465 205
f 159 237 296
f 296 66 159
f 355 189 542
f 542 299 355
f 74 214 189
f 74 80 321
f 321 214 74
f 429 237 45
f 187 186 123
f 183 421 123
f 254 183 389
f 254 516 183
f 389 269 469
f 269 516 469
f 183 269 129
f 129 444 183
f 269 444 129
f 286 421 183
f 77 224 262
f 224 561 262
f 277 77 262
f 259 561 6
f 370 496 142
f 142 391 370
f 375 379 450
f 379 554 450
f 450 554 13
f 450 341 19
f 13 341 450
f 166 170 19
f 19 341 166
f 341 101 166
f 540 202 16
f 389 540 16
f 16 529 389
f 238 246 16
f 246 529 16
f 16 202 112
f 494 113 163
f 163 133 494
f 494 133 474
f 462 113 238
f 238 16 462
f 462 16 112
f 113 494 93
f 474 282 405
f 405 282 340
f 340 458 405
f 405 494 474
f 220 513 405
f 249 347 121
f 121 347 113
f 113 462 121
f 121 44 249
f 121 112 44
f 121 462 112
f 163 113 292
f 292 347 163
f 113 347 292
f 213 132 317
f 317 347 213
f 317 132 375
f 375 347 317
f 448 280 265
f 377 325 356
f 356 325 487
f 487 328 356
f 537 206 356
f 358 61 316
f 316 330 358
f 521 190 88
f 88 31 521
f 320 436 65
f 320 457 436
f 209 537 250
f 178 488 274
f 281 338 483
f 546 323 446
f 222 442 546
f 546 290 323
f 546 43 222
f 546 471 43
f 546 442 11
f 11 290 546
f 201 560 215
f 511 423 490
f 147 330 318
f 76 387 497
f 497 175 76
f 497 387 227
f 318 330 431
f 330 97 431
f 208 362 431
f 431 362 227
f 153 485 240
f 27 175 22
f 22 369 27
f 227 95 27
f 76 175 344
f 175 27 344
f 344 27 1
f 57 255 306
f 306 255 232
f 10 392 34
f 34 371 10
f 19 170 105
f 105 450 19
f 375 450 105
f 361 305 184
f 279 305 266
f 426 98 266
f 266 305 426
f 160 452 229
f 160 191 452
f 337 191 160
f 515 295 87
f 256 181 564
f 32 514 515
f 32 440 514
f 554 440 32
f 34 156 364
f 156 440 364
f 314 554 34
f 314 440 554
f 34 364 314
f 314 364 440
f 136 506 138
f 539 506 343
f 343 216 539
f 539 216 57
f 71 404 515
f 343 404 71
f 515 514 71
f 514 216 71
f 71 216 343
f 353 528 538
f 538 562 353
f 159 302 555
f 302 349 555
f 555 91 159
f 348 349 241
f 241 349 302
f 420 264 407
f 407 555 349
f 264 91 407
f 91 555 407
f 108 43 560
f 108 122 43
f 491 529 406
f 406 367 491
f 491 367 529
f 524 561 259
f 12 534 43
f 264 449 111
f 111 91 264
f 111 449 42
f 111 42 159
f 159 91 111
f 189 214 311
f 311 542 189
f 545 549 35
f 35 214 159
f 35 549 214
f 159 66 35
f 214 549 374
f 45 534 83
f 45 171 118
f 118 534 45
f 222 43 174
f 43 534 174
f 146 199 324
f 142 324 437
f 187 123 200
f 200 123 421
f 149 262 561
f 277 262 149
f 149 504 277
f 348 504 149
f 544 561 224
f 544 6 561
f 7 134 496
f 496 370 7
f 7 335 134
f 7 370 335
f 21 286 335
f 335 370 21
f 51 166 101
f 246 113 155
f 113 93 155
f 155 465 246
f 155 93 465
f 482 458 220
f 220 405 482
f 482 405 458
f 209 265 81
f 81 265 280
f 287 265 209
f 287 276 451
f 377 356 439
f 439 356 206
f 451 276 518
f 276 287 518
f 388 485 153
f 451 485 55
f 316 61 55
f 61 451 55
f 485 388 55
f 288 250 418
f 447 250 537
f 328 190 225
f 281 220 53
f 291 338 281
f 165 301 488
f 488 178 165
f 135 301 165
f 463 171 239
f 11 253 463
f 11 463 89
f 333 408 281
f 281 483 333
f 226 290 11
f 221 535 50
f 152 293 50
f 50 293 221
f 368 535 221
f 221 546 368
f 368 546 446
f 560 201 162
f 162 201 221
f 162 221 433
f 257 147 318
f 227 27 102
f 102 27 369
f 523 431 466
f 82 124 9
f 372 393 9
f 28 78 124
f 124 78 167
f 167 9 124
f 154 393 17
f 17 1 154
f 1 27 154
f 154 431 523
f 208 431 154
f 70 117 279
f 279 266 70
f 371 255 158
f 158 10 371
f 170 151 234
f 234 105 170
f 234 409 375
f 375 105 234
f 340 409 84
f 84 458 340
f 409 234 84
f 84 234 151
f 527 458 84
f 84 410 527
f 73 25 263
f 25 51 263
f 263 363 176
f 101 363 263
f 263 51 101
f 492 361 184
f 426 305 495
f 305 361 495
f 495 443 426
f 512 415 334
f 415 331 334
f 334 267 512
f 426 267 334
f 334 98 426
f 256 191 342
f 342 104 256
f 528 298 18
f 18 298 47
f 352 298 528
f 476 558 47
f 47 298 476
f 8 452 351
f 47 380 139
f 47 558 499
f 499 380 47
f 141 229 512
f 141 160 229
f 96 519 107
f 107 387 96
f 96 387 76
f 515 87 526
f 526 363 101
f 526 32 515
f 526 101 13
f 13 554 526
f 554 32 526
f 548 67 256
f 256 564 548
f 136 138 414
f 500 196 486
f 486 445 500
f 486 360 136
f 413 445 486
f 136 413 486
f 211 196 500
f 500 18 211
f 211 18 47
f 62 349 261
f 62 407 349
f 62 261 420
f 420 407 62
f 467 367 348
f 348 524 467
f 269 529 467
f 529 367 467
f 39 524 348
f 348 149 39
f 561 524 39
f 39 149 561
f 425 524 259
f 183 444 425
f 425 286 183
f 534 12 275
f 275 83 534
f 40 43 545
f 545 35 40
f 336 374 396
f 396 299 336
f 214 374 336
f 157 174 534
f 231 475 520
f 335 286 231
f 421 199 339
f 199 146 339
f 381 324 412
f 381 146 324
f 502 531 421
f 421 286 502
f 286 21 502
f 502 370 391
f 502 21 370
f 421 531 386
f 324 199 400
f 400 437 324
f 115 475 286
f 465 93 468
f 273 405 513
f 552 376 273
f 494 405 273
f 239 552 273
f 273 513 239
f 273 93 494
f 61 478 90
f 65 518 194
f 383 518 287
f 383 194 518
f 61 358 366
f 366 33 61
f 455 33 511
f 511 490 455
f 563 430 436
f 436 418 401
f 401 418 250
f 436 457 15
f 15 418 436
f 236 190 144
f 301 68 489
f 416 301 135
f 416 68 301
f 281 53 235
f 143 178 446
f 446 323 143
f 11 89 2
f 2 226 11
f 147 257 169
f 169 257 505
f 169 505 511
f 395 497 227
f 227 102 395
f 179 124 82
f 60 179 82
f 60 466 431
f 97 477 60
f 60 431 97
f 365 117 559
f 258 228 559
f 278 161 73
f 73 263 278
f 278 365 161
f 117 365 278
f 279 117 278
f 559 100 37
f 37 258 559
f 289 9 393
f 137 151 170
f 137 167 151
f 9 167 137
f 326 285 78
f 509 167 78
f 78 69 509
f 153 240 509
f 240 167 509
f 509 69 29
f 65 167 346
f 346 167 240
f 346 518 65
f 346 240 485
f 346 485 451
f 451 518 346
f 65 527 72
f 72 167 65
f 527 410 72
f 151 167 72
f 72 84 151
f 410 84 72
f 434 1 17
f 434 424 1
f 17 100 434
f 493 244 1
f 1 424 493
f 327 263 184
f 184 263 309
f 176 363 313
f 481 495 361
f 104 495 481
f 256 104 481
f 382 295 481
f 481 295 256
f 481 313 382
f 176 313 481
f 176 492 52
f 52 492 184
f 443 495 210
f 210 160 443
f 337 160 210
f 557 538 528
f 528 18 557
f 8 480 312
f 359 8 312
f 312 480 298
f 298 352 312
f 452 476 180
f 180 351 452
f 180 476 298
f 86 380 256
f 86 139 380
f 256 67 86
f 14 96 76
f 103 96 14
f 319 414 138
f 195 467 524
f 195 444 269
f 269 467 195
f 524 425 373
f 444 195 373
f 373 195 524
f 237 172 417
f 237 429 532
f 532 172 237
f 432 12 43
f 43 40 432
f 297 157 171
f 174 157 297
f 171 463 297
f 297 463 253
f 357 520 260
f 357 231 520
f 260 335 357
f 335 231 357
f 286 475 164
f 164 231 286
f 475 231 164
f 3 199 421
f 421 386 3
f 475 252 304
f 304 224 520
f 520 475 304
f 233 252 475
f 475 115 233
f 233 115 126
f 286 223 473
f 473 115 286
f 286 425 441
f 441 223 286
f 441 425 259
f 259 6 441
f 465 468 315
f 552 465 315
f 315 376 552
f 384 468 93
f 93 273 384
f 384 273 376
f 376 315 384
f 384 315 468
f 397 451 61
f 61 90 397
f 397 287 451
f 194 383 503
f 503 383 287
f 503 287 209
f 209 250 503
f 503 250 288
f 270 55 388
f 29 69 270
f 61 33 394
f 33 455 394
f 329 563 436
f 479 563 329
f 329 5 479
f 460 212 430
f 430 563 460
f 460 5 212
f 460 563 479
f 479 5 460
f 182 225 190
f 190 236 182
f 56 68 144
f 56 489 68
f 68 416 63
f 338 291 378
f 303 68 185
f 68 63 185
f 5 551 185
f 185 225 303
f 185 300 225
f 551 300 185
f 150 131 547
f 150 53 220
f 310 131 150
f 271 310 150
f 220 271 150
f 106 235 438
f 281 235 106
f 4 165 178
f 226 2 46
f 338 226 46
f 46 483 338
f 422 60 59
f 466 60 422
f 59 60 536
f 536 289 59
f 9 289 536
f 559 228 461
f 461 365 559
f 248 37 51
f 258 37 248
f 393 154 398
f 398 289 393
f 398 154 523
f 170 166 219
f 166 51 219
f 51 454 219
f 9 137 498
f 498 454 51
f 498 219 454
f 372 9 498
f 498 137 170
f 170 219 498
f 498 37 372
f 51 37 498
f 78 28 218
f 218 326 78
f 168 477 285
f 285 326 168
f 179 60 168
f 168 60 477
f 119 100 559
f 119 434 100
f 48 411 243
f 243 411 331
f 332 493 117
f 117 70 332
f 244 493 332
f 332 70 48
f 332 14 244
f 103 14 332
f 184 305 541
f 541 327 184
f 176 52 543
f 543 263 176
f 543 309 263
f 414 319 459
f 459 319 232
f 232 371 459
f 507 425 444
f 444 373 507
f 507 373 425
f 140 296 237
f 237 417 140
f 172 532 284
f 126 252 550
f 550 233 126
f 252 233 550
f 126 115 390
f 115 473 390
f 55 270 188
f 188 270 69
f 328 225 399
f 225 300 399
f 250 447 24
f 144 64 23
f 23 56 144
f 251 63 242
f 242 63 323
f 323 290 242
f 58 63 251
f 58 378 291
f 291 36 58
f 36 106 58
f 58 106 438
f 547 185 510
f 510 185 63
f 63 58 510
f 510 58 438
f 510 150 547
f 220 75 49
f 49 75 212
f 49 271 220
f 178 143 294
f 294 4 178
f 415 519 501
f 48 243 508
f 508 332 48
f 114 284 532
f 551 24 453
f 453 300 551
f 453 24 447
f 212 5 85
f 85 49 212
f 5 185 85
f 403 331 415
f 415 501 403
f 403 243 331
f 284 114 30
f 435 275 12
f 12 30 435
f 435 30 114
f 324 308 38
f 324 38 204
f 324 496 308
f 504 464 203
f 504 173 277
f 203 173 504
f 504 79 464
f 504 354 79
f 428 354 504
f 205 465 237
f 205 237 159
f 94 80 74
f 74 189 94
f 123 268 198
f 198 183 123
f 123 186 268
f 516 254 469
f 469 254 389
f 190 109 88
f 88 109 487
f 487 31 88
f 565 471 201
f 215 565 201
f 471 546 201
f 201 546 221
f 241 556 245
f 245 348 241
f 321 556 241
f 241 302 321
f 355 396 374
f 374 43 355
f 545 43 374
f 374 549 545
f 439 206 209
f 439 325 377
f 280 325 439
f 209 81 439
f 439 81 280
f 446 178 368
f 274 152 368
f 368 178 274
f 152 50 368
f 368 50 535
f 162 293 385
f 162 108 560
f 385 122 162
f 433 293 162
f 122 108 162
f 257 431 227
f 227 505 257
f 318 431 257
f 154 95 362
f 154 362 208
f 154 27 95
f 158 350 156
f 156 392 158
f 255 350 158
f 392 10 158
f 334 266 98
f 48 70 334
f 334 411 48
f 334 70 266
f 331 411 334
f 256 380 499
f 499 452 256
f 499 476 452
f 558 476 499
f 512 267 141
f 141 267 426
f 443 160 141
f 426 443 141
f 336 311 214
f 299 542 336
f 542 311 336
f 534 118 157
f 157 118 171
f 381 120 187
f 187 200 381
f 381 412 120
f 421 339 381
f 381 200 421
f 381 339 146
f 430 212 75
f 220 430 75
f 169 358 330
f 169 366 358
f 330 147 169
f 511 33 169
f 33 366 169
f 395 369 22
f 22 175 395
f 175 497 395
f 395 102 369
f 17 393 37
f 37 100 17
f 37 393 372
f 363 526 313
f 313 295 382
f 313 87 295
f 313 526 87
f 481 492 176
f 361 492 481
f 210 342 191
f 210 191 337
f 210 495 104
f 104 342 210
f 562 538 557
f 557 413 283
f 557 283 110
f 110 562 557
f 557 445 413
f 500 445 557
f 557 18 500
f 312 528 353
f 312 353 359
f 312 352 528
f 8 351 180
f 298 480 180
f 180 480 8
f 86 181 360
f 86 564 181
f 67 548 86
f 47 139 86
f 360 486 86
f 86 211 47
f 86 548 564
f 86 486 196
f 196 211 86
f 1 244 14
f 76 344 14
f 14 344 1
f 57 306 319
f 319 539 57
f 319 306 232
f 319 138 506
f 506 539 319
f 11 442 297
f 297 442 222
f 297 253 11
f 222 174 297
f 142 437 3
f 3 391 142
f 3 502 391
f 3 400 199
f 531 502 3
f 3 386 531
f 437 400 3
f 448 265 397
f 397 478 448
f 265 287 397
f 397 90 478
f 503 320 65
f 288 418 503
f 65 194 503
f 457 320 503
f 503 15 457
f 418 15 503
f 153 509 270
f 270 388 153
f 270 509 29
f 41 127 394
f 207 41 394
f 394 127 61
f 394 423 207
f 394 490 423
f 394 455 490
f 303 225 182
f 144 68 182
f 182 68 303
f 182 236 144
f 106 36 291
f 106 291 281
f 46 463 239
f 239 408 46
f 408 333 46
f 46 89 463
f 46 333 483
f 46 2 89
f 536 60 82
f 82 9 536
f 248 25 73
f 248 51 25
f 248 461 228
f 161 365 248
f 73 161 248
f 228 258 248
f 365 461 248
f 398 422 59
f 523 466 398
f 59 289 398
f 466 422 398
f 124 179 168
f 168 218 28
f 168 28 124
f 326 218 168
f 117 493 119
f 559 117 119
f 424 434 119
f 119 493 424
f 279 278 541
f 541 305 279
f 541 278 263
f 263 327 541
f 184 309 543
f 543 52 184
f 459 148 136
f 322 148 459
f 459 371 322
f 136 414 459
f 390 441 6
f 390 544 224
f 223 441 390
f 6 544 390
f 390 252 126
f 224 304 390
f 390 304 252
f 390 473 223
f 316 55 188
f 188 97 316
f 188 69 78
f 78 285 188
f 188 477 97
f 285 477 188
f 24 551 5
f 436 401 24
f 24 401 250
f 24 329 436
f 5 329 24
f 23 230 521
f 521 488 23
f 301 489 23
f 64 230 23
f 488 301 23
f 489 56 23
f 58 226 338
f 338 378 58
f 290 226 58
f 58 242 290
f 251 242 58
f 53 150 510
f 438 235 510
f 510 235 53
f 323 63 294
f 135 165 294
f 294 143 323
f 294 416 135
f 294 63 416
f 165 4 294
f 537 356 453
f 453 447 537
f 453 356 328
f 328 399 453
f 453 399 300
f 85 131 310
f 85 310 271
f 271 49 85
f 85 185 547
f 547 131 85
f 403 96 103
f 519 96 403
f 403 501 519
f 103 332 403
f 403 508 243
f 332 508 403
f 66 296 30
f 30 35 66
f 12 432 30
f 296 140 30
f 30 40 35
f 30 417 172
f 30 432 40
f 30 140 417
f 172 284 30
f 435 114 532
f 435 429 45
f 45 83 435
f 83 275 435
f 435 532 429

