# https://github.com/mikedh/trimesh
v 0.02148744 -0.03010454 -0.03378609
v 0.00014532 -0.02905540 -0.03025459
v 0.02297764 -0.02505570 -0.03378609
v 0.00100046 -0.02539205 -0.03378607
v 0.00142109 -0.02903527 -0.03332623
v 0.02487153 -0.02527959 -0.02851217
v 0.02435906 -0.02840724 -0.03378608
v 0.00005312 -0.02513498 -0.02851217
v 0.00242234 -0.02857019 -0.03377438
v 0.01952105 -0.03042246 -0.02509793
v 0.02205326 -0.02501933 -0.02851217
v 0.02205769 -0.02519693 -0.03378609
v 0.00029810 -0.02904874 -0.03158093
v 0.00004344 -0.02780043 -0.02853123
v 0.00227720 -0.02806705 -0.03378606
v 0.00042464 -0.02903473 -0.02697175
v 0.00381148 -0.02908202 -0.02544913
v 0.02401965 -0.02636009 -0.03378608
v 0.02446136 -0.03115623 -0.02521161
v 0.00044127 -0.02540826 -0.03378607
v 0.02493595 -0.02958055 -0.03378608
v 0.00698887 -0.02922983 -0.02511228
v 0.02486095 -0.03097657 -0.02849559
v 0.02481002 -0.02988429 -0.03378608
v 0.02361897 -0.03048209 -0.03378051
v 0.02476758 -0.03121161 -0.02712379
v 0.02488467 -0.03104860 -0.03353913
v 0.02452453 -0.02549980 -0.03378608
v 0.00153077 -0.02731332 -0.03378606
v 0.02397724 -0.03107373 -0.03241423
v 0.00940582 -0.02518068 -0.03378607
v 0.00108822 -0.02903781 -0.03291738
v 0.02476422 -0.03122816 -0.03091054
v 0.02309082 -0.02507762 -0.02853021
v 0.02277386 -0.02895289 -0.03378609
v 0.02208461 -0.02984025 -0.03378609
v 0.00091974 -0.02866385 -0.03368429
v 0.01753425 -0.02503559 -0.02853046
f 23 27 21
f 38 8 11
f 11 3 38
f 38 3 8
f 31 3 20
f 8 3 31
f 37 25 27
f 9 25 37
f 6 23 21
f 20 3 12
f 12 35 20
f 3 35 12
f 20 8 4
f 4 31 20
f 8 31 4
f 21 27 24
f 27 25 24
f 35 7 24
f 5 37 27
f 20 15 29
f 29 37 20
f 29 15 9
f 9 37 29
f 28 6 21
f 3 6 28
f 34 3 11
f 34 6 3
f 10 6 34
f 9 15 1
f 1 25 9
f 1 24 25
f 1 15 20
f 16 8 14
f 18 35 3
f 3 28 18
f 18 7 35
f 20 35 36
f 36 1 20
f 35 24 36
f 24 1 36
f 8 16 17
f 19 17 16
f 19 6 10
f 22 19 10
f 17 19 22
f 22 34 11
f 10 34 22
f 11 8 22
f 8 17 22
f 23 6 26
f 6 19 26
f 27 23 26
f 26 19 16
f 27 26 33
f 30 5 27
f 27 33 30
f 2 26 16
f 2 33 26
f 2 16 14
f 14 8 2
f 2 8 20
f 5 30 32
f 37 5 32
f 33 2 13
f 13 30 33
f 13 32 30
f 37 32 13
f 20 37 13
f 13 2 20
f 18 24 7
f 21 24 18
f 18 28 21

