# https://github.com/mikedh/trimesh
v -0.02815684 0.03682785 0.02500285
v -0.00543651 0.04341141 0.02440544
v -0.01285774 0.00520002 0.03960331
v -0.02964763 0.04943498 0.01861669
v -0.02823382 0.04882983 0.02011927
v -0.02138963 0.04355053 0.02332535
v -0.02906397 0.02889063 0.02636882
v -0.02076633 0.02741095 0.03020198
v -0.02735327 0.00504881 0.03536762
v -0.00813760 0.01517991 0.03634946
v -0.01050870 0.01825674 0.03500540
v -0.00005746 0.03130043 0.02998657
v -0.02126118 0.04303297 0.02357474
v -0.00006702 0.04862200 0.02185300
v -0.01749830 0.00545156 0.03901488
v -0.02808874 0.04254352 0.02283534
v -0.02847998 0.03803298 0.02442098
v -0.00554781 0.04374851 0.02424222
v -0.01417491 0.04330563 0.02407281
v -0.00001996 0.04193997 0.02516504
v -0.02862511 0.03027810 0.02683234
v -0.02507943 0.00567613 0.03701726
v -0.01511864 0.00720375 0.03878105
v -0.01226687 0.00504767 0.03950466
v -0.03101226 0.02376610 0.01468987
v -0.02100816 0.00519772 0.03836612
v -0.02594830 0.00747983 0.03602691
v -0.01251833 0.00586364 0.03953442
v -0.02879885 0.04432523 0.02182799
v -0.02723899 0.03085011 0.02750367
v -0.00933464 0.00554780 0.03988993
v -0.02872610 0.03076157 0.02655128
v -0.02876526 0.03766439 0.02429285
v -0.00882294 0.00566592 0.03988102
v -0.00774866 0.01586141 0.03611542
v -0.02687324 0.00570723 0.03601331
v -0.00629922 0.00563879 0.03998711
v -0.00795462 0.00573599 0.03990191
v -0.00651329 0.00648532 0.03966584
v -0.03101232 0.01322755 0.00036862
v -0.02098022 0.01798775 0.03380017
v -0.00436064 0.00574969 0.03995183
v -0.01464681 0.04372178 0.02384252
v -0.00060383 0.02582208 0.03226358
v -0.02339044 0.00577197 0.03755637
v -0.02794953 0.00000000 0.00379266
v -0.02053607 0.04958156 0.02054704
v -0.02631751 0.00599892 0.03631287
v -0.00439417 0.02185430 0.03382427
v -0.02241659 0.04338771 0.02327962
v -0.01315246 0.02874044 0.03057188
v -0.02157550 0.01818625 0.03361245
v -0.01820669 0.01840165 0.03416249
v -0.00967436 0.00602512 0.03970005
v -0.02174471 0.01739568 0.03386914
v -0.02710115 0.01757712 0.03212413
v -0.02147751 0.04992879 0.02029498
v -0.02176835 0.01832613 0.03351953
v -0.02941639 0.04341849 0.02138185
v -0.02733304 0.01560568 0.03255886
v -0.01858426 0.00585236 0.03874158
v -0.00699541 0.01426486 0.03674389
v -0.02883979 0.00550197 0.03199262
v -0.02881396 0.02514127 0.02792871
v -0.00639299 0.04353122 0.02433625
v -0.00306426 0.03414984 0.02869795
v -0.01421301 0.03095607 0.02959167
v -0.00066287 0.00009564 0.02848039
v -0.01133091 0.00772354 0.03895346
v -0.02945217 0.04185014 0.02181631
v -0.02516374 0.01171688 0.03490571
v -0.02120662 0.02935374 0.02936606
v -0.02869067 0.04508326 0.02159070
v -0.02877428 0.00507738 0.03053712
v -0.03098694 0.00936446 0.00034691
v -0.03101224 0.04988200 0.01134757
v -0.00387082 0.00504781 0.03986847
v -0.00022530 0.03120968 0.03002439
v -0.03101224 0.03731630 0.01804992
v -0.01793974 0.00003122 0.02209075
v -0.00052106 0.03737080 0.02728928
v -0.02899218 0.04765157 0.02033462
v -0.02166890 0.04964467 0.02042889
v -0.02798075 0.00510825 0.03456026
v -0.00716563 0.02816175 0.03119440
v -0.02872278 0.00557174 0.03265486
v -0.00083485 0.02724292 0.03168617
v -0.00307337 0.04963294 0.02127443
v -0.01591872 0.00589251 0.03914901
v -0.02685255 0.04192315 0.02329496
v -0.02732631 0.01741168 0.03199917
v -0.02141716 0.01259007 0.03569110
v -0.01041405 0.00509042 0.03972098
v -0.02766411 0.03149423 0.02714290
v -0.02927180 0.03916092 0.02307293
v -0.00729512 0.03025221 0.03033323
v -0.02125868 0.04892964 0.02081278
v -0.00776440 0.00670989 0.03954551
v -0.01243532 0.00507942 0.03954269
v -0.00908135 0.04353212 0.02422522
v -0.00910552 0.04341796 0.02427914
v -0.02773744 0.01521365 0.03235760
v -0.02855042 0.03246373 0.02622769
v -0.00016535 0.04668585 0.02283873
v -0.00517013 0.00513805 0.03997804
v -0.00246337 0.04910775 0.02156314
v -0.02611562 0.01734804 0.03263638
v -0.01451821 0.02820353 0.03068766
v -0.00726282 0.02553827 0.03226342
v -0.00031269 0.03729210 0.02732881
v -0.02488473 0.03034988 0.02826520
v -0.00230062 0.02454090 0.03276413
v -0.00458357 0.03301522 0.02917744
v -0.03101231 0.01252586 0.00129848
v -0.02700091 0.01939873 0.03155913
v -0.02667093 0.00547187 0.03623818
v -0.02873209 0.03999579 0.02351012
v -0.01351913 0.01837346 0.03473898
v -0.01263928 0.00000000 0.02537200
v -0.02858389 0.03672555 0.02478410
v -0.00425126 0.00002174 0.02677099
v -0.03100053 0.01306168 0.00612380
v -0.00759698 0.00566657 0.03994036
v -0.02916007 0.02928810 0.02602911
v -0.02513924 0.00791263 0.03622578
v -0.02089508 0.04219372 0.02398238
v -0.03099635 0.03071084 0.01729464
v -0.02784919 0.03143218 0.02709630
v -0.03100903 0.02606716 0.01576247
v -0.00001765 0.03161095 0.02985067
v -0.03071082 0.04991481 0.01090651
v -0.03087794 0.04953360 0.01614738
v -0.01772176 0.00000000 0.02204034
v -0.02840367 0.00921918 0.03293657
v -0.01596080 0.03086877 0.02942366
v -0.00707874 0.00000000 0.02738971
v -0.00990803 0.00868729 0.03868887
v -0.01478761 0.03179706 0.02917127
v -0.00731749 0.01570532 0.03619609
v -0.01084632 0.01812514 0.03503289
v -0.01458499 0.01813408 0.03475629
v -0.03101223 0.04979006 0.01571621
v -0.02930177 0.04431141 0.02130064
v -0.01508135 0.00549264 0.03941224
v -0.01511499 0.01802829 0.03472506
v -0.00624753 0.04255471 0.02479348
v -0.02093654 0.00725445 0.03773359
v -0.02098057 0.04997364 0.02031055
v -0.00113342 0.00199999 0.00001204
v -0.00079833 0.01574681 0.03624360
v -0.00717846 0.03409986 0.02862023
v -0.00054334 0.04391790 0.02422870
v -0.03041246 0.04936080 0.00052775
v -0.02109908 0.04915073 0.02072238
v -0.02656048 0.04514461 0.02199283
v -0.02123961 0.00506055 0.03816452
v -0.00740649 0.04709268 0.02247285
v -0.02895027 0.04465699 0.02158866
v -0.02131869 0.04288734 0.02363414
v -0.01105609 0.01810606 0.03502492
v -0.02696380 0.00000000 0.00323822
v -0.02722948 0.00632269 0.03553892
v -0.01582740 0.00749304 0.03857308
v -0.00225621 0.04425989 0.02403884
v -0.01980332 0.04793819 0.02140740
v -0.02834597 0.00563190 0.03400036
v -0.03093492 0.04116897 0.01814072
v -0.02523617 0.01735895 0.03293549
v -0.01428249 0.01759584 0.03498490
v -0.02042252 0.04934217 0.02067691
v -0.01269599 0.04336686 0.02412029
v -0.03096517 0.04499165 0.01736792
v -0.02935786 0.04624916 0.02044943
v -0.00027234 0.00017536 0.02848839
v -0.03041246 0.04994126 0.00283995
v -0.01767497 0.00506340 0.03885167
v -0.01044886 0.00000000 0.02582254
v -0.00616147 0.04482366 0.02368240
v -0.03041246 0.03429925 0.00003551
v -0.02666093 0.00000000 0.00936034
v -0.02470567 0.00000289 0.01391165
v -0.02736680 0.01263358 0.03346126
v -0.00245656 0.00501571 0.03973234
v -0.00764484 0.00535566 0.04001553
v -0.03101225 0.04579772 0.01266395
v -0.02839173 0.01722229 0.03082065
v -0.01277581 0.04341996 0.02409198
v -0.01458153 0.04217319 0.02455011
v -0.01528383 0.00616630 0.03914771
v -0.01875755 0.00632785 0.03853873
v -0.02750094 0.04207407 0.02313053
v -0.02757089 0.02701083 0.02873226
v -0.01913583 0.00000000 0.02091943
v -0.00601491 0.03177307 0.02970660
v -0.02849255 0.00314230 0.00004733
v -0.02550420 0.01825378 0.03253466
v -0.00759686 0.00000000 0.02704317
v -0.02922600 0.04459080 0.02128927
v -0.00011387 0.02305421 0.03337263
v -0.02837614 0.03007510 0.02716687
v -0.00358858 0.00571707 0.03995920
v -0.00830603 0.00545024 0.03997576
v -0.01640583 0.00576813 0.03911773
v -0.02792368 0.04657832 0.02117749
v -0.02135824 0.04838179 0.02106102
v -0.02515898 0.01774119 0.03282491
v -0.02247899 0.04978319 0.02028691
v -0.01503925 0.03125328 0.02937826
v -0.02579542 0.00913406 0.03554778
v -0.02831598 0.03853331 0.02430720
v -0.02999218 0.04928085 0.01800069
v -0.02654227 0.01325312 0.03383056
v -0.00757333 0.01264683 0.03733061
v -0.00248399 0.00552986 0.04001671
v -0.00719446 0.03249377 0.02935110
v -0.01695792 0.01323849 0.03627324
v -0.02090034 0.04314622 0.02355603
v -0.00054888 0.00018734 0.02718815
v -0.02732201 0.00000000 0.00530028
v -0.00102771 0.03563839 0.02806944
v -0.03101231 0.01140071 0.00332648
v -0.01518880 0.04330419 0.02399069
v -0.00150195 0.01447739 0.03671578
v -0.02772633 0.03529097 0.02572237
v -0.03100057 0.00942174 0.00037916
v -0.03100376 0.04870847 0.01622966
v -0.02135965 0.03099337 0.02868002
v -0.00124819 0.03553580 0.02811127
v -0.00687976 0.01785515 0.03539866
v -0.00061123 0.00560019 0.03998208
v -0.01857557 0.00969207 0.03732656
v -0.01614895 0.03381926 0.02814657
v -0.02817194 0.03036940 0.02727112
v -0.03040290 0.04963374 0.01704337
v -0.01629277 0.00999220 0.03757747
v -0.03101229 0.01450415 0.00761790
v -0.03101231 0.01177202 0.00263515
v -0.00627652 0.03059643 0.03021391
v -0.01165676 0.00539108 0.03971018
v -0.02089432 0.00504158 0.03821786
v -0.01049657 0.00560059 0.03980163
v -0.02797827 0.02275170 0.02981459
v -0.01636720 0.03422073 0.02794785
v -0.02154891 0.00577140 0.03811933
v -0.00047669 0.00542544 0.04003918
v -0.02785540 0.03959008 0.02406116
v -0.03101231 0.01133034 0.00361805
v -0.00646463 0.03101878 0.03003244
v -0.03100878 0.01494706 0.00823223
v -0.01720846 0.00001377 0.02257884
v -0.02280182 0.04984597 0.02022325
v -0.02771092 0.04117504 0.02346797
v -0.02928737 0.04522737 0.02096105
v -0.01280720 0.00000000 0.02434476
v -0.02642261 0.02102258 0.03126193
v -0.03100354 0.01438700 0.00010909
v -0.02798405 0.04045412 0.02369371
v -0.00306357 0.00513637 0.03998457
v -0.01777051 0.01788071 0.03442476
v -0.00672391 0.00515923 0.03998844
v -0.01237138 0.00560254 0.03964253
v -0.03101227 0.02078981 0.01242626
v -0.00526948 0.00549760 0.04001340
v -0.02793699 0.00000000 0.00108174
v -0.00758569 0.01747983 0.03551484
v -0.01972199 0.04796436 0.02140187
v -0.02669428 0.01381200 0.03356779
v -0.02475765 0.03069986 0.02816043
v -0.00170110 0.04985601 0.02119503
v -0.02128477 0.00750444 0.03756286
v -0.00459211 0.02147715 0.03397386
v -0.02159013 0.00541073 0.03819197
v -0.03101224 0.03866046 0.01777941
v -0.02777217 0.03384477 0.02624540
v -0.02593771 0.01437946 0.03371762
v -0.03099247 0.03327951 0.01778995
v -0.02859269 0.04420889 0.02201187
v -0.01667501 0.04996107 0.02062747
v -0.02806372 0.04729553 0.02085188
v -0.02912902 0.03674439 0.02409381
v -0.00017406 0.03003828 0.03052228
v -0.02559765 0.00585043 0.03673960
v -0.02842470 0.02987752 0.02717672
v -0.01897573 0.01804832 0.03415633
v -0.02893374 0.03553678 0.02479136
v -0.02762410 0.04628616 0.02134708
v -0.00746422 0.01829297 0.03521244
v -0.00246349 0.00568850 0.03996293
v -0.01777415 0.01819820 0.03430214
v -0.02663036 0.01846809 0.03203833
v -0.02770450 0.02901819 0.02798993
v -0.01374037 0.00568532 0.03948169
v -0.01540241 0.00000000 0.02377267
v -0.01452291 0.02889325 0.03040773
v -0.01444598 0.01697231 0.03520427
v -0.00096125 0.02628594 0.03207515
v -0.00682691 0.00000000 0.02756180
v -0.02151235 0.04613061 0.02210285
v -0.00920250 0.00561335 0.03987698
v -0.03101225 0.04508815 0.01276983
v -0.00717797 0.04212662 0.02496535
v -0.03101228 0.02198604 0.00887083
v -0.02657279 0.00637450 0.03604330
v -0.02546429 0.00957611 0.03553920
v -0.02121039 0.01014476 0.03662492
v -0.02815269 0.00000000 0.00261167
v -0.00790661 0.01800638 0.03529131
v -0.00737678 0.01859293 0.03509683
v -0.00832215 0.00510950 0.03990948
v -0.00044602 0.01774527 0.03549166
v -0.02826650 0.00538009 0.03419643
v -0.02518964 0.00772392 0.03627349
v -0.01163602 0.00519020 0.03969782
v -0.00112638 0.03057864 0.03028286
v -0.01424946 0.04042358 0.02535684
v -0.02799513 0.04329413 0.02254166
v -0.00006204 0.04807358 0.02213279
v -0.02547069 0.00873807 0.03581923
v -0.00691834 0.04374312 0.02422125
v -0.00727662 0.04989983 0.02102187
v -0.02605075 0.04461988 0.02228889
v -0.03041246 0.01444229 0.00001166
v -0.02842887 0.03613693 0.02512170
v -0.02800486 0.00510989 0.03451569
v -0.01471005 0.01402340 0.03627807
v -0.00786753 0.03124624 0.02987544
v -0.01552633 0.04989841 0.02074295
v -0.02221577 0.00735851 0.03737062
v -0.00741761 0.01575015 0.03617513
v -0.03101224 0.04475331 0.01586407
v -0.02554787 0.00003293 0.01253867
v -0.01743814 0.01480289 0.03562146
v -0.03101232 0.00989162 0.00032640
v -0.02774686 0.00000000 0.00475384
v -0.00796009 0.01924482 0.03479135
v -0.01939563 0.03953267 0.02530483
v -0.00851417 0.00000000 0.02692992
v -0.02688908 0.02366331 0.03017081
v -0.00062664 0.01633956 0.03602311
v -0.02559197 0.01116707 0.03494780
v -0.01503633 0.01795270 0.03476392
v -0.01101385 0.00610549 0.03959101
v -0.01534854 0.03106149 0.02942015
v -0.00138909 0.04976866 0.02124504
v -0.00125195 0.03773869 0.02710780
v -0.00008198 0.01700525 0.03577519
v -0.01915476 0.00000993 0.02095979
v -0.02888503 0.00567670 0.03163410
v -0.02540275 0.00505256 0.03676276
v -0.01467791 0.01722960 0.03508290
v -0.02783227 0.00000000 0.00041191
v -0.01520723 0.03208749 0.02900250
v -0.00401561 0.00536000 0.04003048
v -0.00808127 0.01508872 0.03638716
v -0.02550907 0.01898581 0.03227420
v -0.02870963 0.03058381 0.02662739
v -0.02803856 0.00507621 0.03434210
v -0.02831184 0.04943774 0.01982623
v -0.02905285 0.00537307 0.02838052
v -0.00248810 0.04430573 0.02401192
v -0.01295976 0.01823229 0.03483680
v -0.01955094 0.04948795 0.02066686
v -0.02940597 0.04363782 0.02132638
v -0.02799852 0.03230572 0.02671081
v -0.02880815 0.03717114 0.02442556
v -0.02802566 0.04271304 0.02277914
v -0.00263895 0.00517515 0.04001393
v -0.00001771 0.00499990 0.03916797
v -0.02761192 0.03106397 0.02731345
v -0.00368660 0.04995037 0.02109328
v -0.00507410 0.03100266 0.03005641
v -0.01440045 0.04445814 0.02349939
v -0.00016769 0.00670888 0.03957277
v -0.01330114 0.04996262 0.02080805
v -0.02638047 0.01841416 0.03216795
v -0.00904126 0.02146100 0.03381583
v -0.02614435 0.00000000 0.00988032
v -0.02046181 0.04140422 0.02437362
v -0.01551017 0.03054948 0.02961098
v -0.02654486 0.00000000 0.00879439
v -0.02609421 0.03180982 0.02744052
v -0.00681449 0.01487777 0.03651891
v -0.02809420 0.03030576 0.02733677
v -0.01940020 0.00565980 0.03865165
v -0.00656694 0.01801355 0.03534182
v -0.02702484 0.01764073 0.03214043
v -0.02169887 0.04964986 0.02042366
v -0.00208120 0.02836348 0.03120513
v -0.00036400 0.03037672 0.03037717
v -0.02850364 0.00593619 0.03346109
v -0.02724883 0.02164604 0.03068846
v -0.01815022 0.01548548 0.03525687
v -0.02741104 0.02876637 0.02819487
v -0.00670106 0.00618667 0.03977201
v -0.01950668 0.04998521 0.02041076
v -0.02697651 0.01566437 0.03281437
v -0.02164197 0.00552268 0.03817513
v -0.00469454 0.01797388 0.03537292
v -0.01340764 0.03072709 0.02974276
v -0.02711822 0.02640472 0.02912767
v -0.02820710 0.04650468 0.02116188
v -0.01812277 0.00545789 0.03890174
v -0.02850211 0.02061033 0.02971441
v -0.01095369 0.02461502 0.03240135
v -0.02770933 0.00000000 0.00026661
v -0.03101231 0.01023197 0.00146152
v -0.01479121 0.01395073 0.03629648
v -0.02759116 0.02803942 0.02837600
v -0.02609161 0.00001546 0.01124248
v -0.01035153 0.00771448 0.03902796
v -0.02170588 0.02131851 0.03237786
v -0.02789241 0.03476329 0.02586551
v -0.02250851 0.00613324 0.03772423
v -0.01446943 0.04170627 0.02476880
v -0.02833786 0.04681459 0.02099741
v -0.02724557 0.01173963 0.03383624
v -0.02842235 0.02018818 0.02996570
v -0.01925126 0.04750097 0.02166165
v -0.02786958 0.03516047 0.02572468
v -0.00020125 0.03644402 0.02772332
v -0.03101225 0.02771806 0.01635735
v -0.01425271 0.04344169 0.02400433
v -0.01628512 0.00503621 0.03902442
v -0.01848403 0.01817068 0.03420263
v -0.03101224 0.04448735 0.01728285
v -0.02923179 0.03698896 0.02384353
v -0.02677250 0.03229540 0.02709965
v -0.02539301 0.04303649 0.02305975
v -0.01526266 0.00523672 0.03942035
v -0.02787323 0.04202783 0.02309121
v -0.01887907 0.03079960 0.02907967
v -0.03101225 0.03308972 0.01748261
v -0.02782633 0.03121011 0.02718583
v -0.02205690 0.00000000 0.01785854
v -0.00807769 0.04321372 0.02442241
v -0.03101223 0.04546840 0.01710600
v -0.03101225 0.04556609 0.01307921
v -0.02797894 0.04635446 0.02126253
v -0.00506141 0.04996623 0.02104769
v -0.00834700 0.00505494 0.03982863
v -0.02214980 0.00912930 0.03674837
v -0.00043828 0.04448424 0.02395475
v -0.02898062 0.00576658 0.03080773
v -0.00751449 0.04904143 0.02146018
v -0.02647093 0.00735366 0.03579003
v -0.01469725 0.04351601 0.02393645
v -0.02818304 0.04066859 0.02354530
v -0.03101229 0.01653122 0.00971276
v -0.01451609 0.02585651 0.03163836
v -0.00005423 0.03540240 0.02818492
v -0.02296233 0.00508217 0.03765965
v -0.02916664 0.04251762 0.02214529
v -0.02051352 0.00605184 0.03826425
v -0.02145466 0.02990604 0.02910810
v -0.02826823 0.00506034 0.03380345
v -0.00030031 0.04936778 0.02146856
v -0.00495923 0.03097096 0.03007156
v -0.00408719 0.00547225 0.04002101
v -0.00177353 0.04446789 0.02394173
v -0.02823588 0.03140115 0.02688409
v -0.00620796 0.04371597 0.02424754
v -0.02636857 0.00000000 0.01035567
v -0.01822303 0.01786072 0.03436712
v -0.00623748 0.03041594 0.03028970
v -0.01980216 0.00578306 0.03851869
v -0.01071610 0.00674770 0.03936918
v -0.00558171 0.00614917 0.03981189
v -0.01285658 0.01242930 0.03705318
v -0.00716849 0.04389038 0.02413859
v -0.02850169 0.04482396 0.02178656
v -0.02932879 0.04773445 0.01990753
v -0.03101228 0.01916026 0.01184880
v -0.01513585 0.04404576 0.02364887
v -0.00755429 0.01190934 0.03760811
v -0.00068867 0.00586879 0.03988572
v -0.00719122 0.01987040 0.03458419
v -0.00693397 0.01851869 0.03514080
v -0.02939927 0.04853031 0.01946761
v -0.00968740 0.00505913 0.03972868
v -0.02131362 0.00711641 0.03769542
v -0.01641405 0.03066018 0.02945105
v -0.02886041 0.02927724 0.02673871
v -0.02849040 0.00507435 0.03298886
v -0.00469462 0.04118146 0.02545552
v -0.02774877 0.03846326 0.02451575
v -0.01238074 0.00000518 0.02558091
v -0.02891122 0.00550851 0.03126223
v -0.00001551 0.02099464 0.03419616
v -0.00002077 0.01801420 0.03538695
v -0.00350478 0.02921369 0.03083056
v -0.02816579 0.00533883 0.03439034
v -0.02736066 0.00565852 0.03563074
v -0.02559156 0.01099641 0.03500597
v -0.00024486 0.00499989 0.03946167
v -0.01857517 0.01113252 0.03679439
v -0.01478232 0.01411221 0.03623716
v -0.02624838 0.00000000 0.00954306
v -0.00037510 0.01743246 0.03561430
v -0.02659901 0.00738295 0.03570728
v -0.02229041 0.03068858 0.02864394
v -0.01599684 0.00862978 0.03812691
v -0.00226825 0.00538812 0.04003627
v -0.01018559 0.00524578 0.03982946
v -0.02910527 0.04960825 0.01938145
v -0.02937429 0.04954227 0.01908386
v -0.01452433 0.01868449 0.03453998
v -0.02482005 0.00520997 0.03716381
v -0.01282172 0.01229314 0.03710745
v -0.02914733 0.03527878 0.02449795
v -0.00004212 0.00200001 0.02643293
v -0.01274489 0.00518507 0.03960797
v -0.02915430 0.03028342 0.02579524
v -0.03041246 0.04948055 0.00076687
v -0.03041246 0.04696986 0.00011073
v -0.01444950 0.03257809 0.02885197
v -0.02018265 0.00509314 0.03844757
v -0.02809539 0.03956582 0.02399184
v -0.02758843 0.00538878 0.03541051
v -0.02754306 0.01390486 0.03292493
v -0.00002519 0.00200000 0.02157589
v -0.00001016 0.00200000 0.00342537
v -0.02724960 0.00164018 0.00000357
v -0.03041246 0.04966949 0.00122215
v -0.03100432 0.04034408 0.01797259
v -0.00790899 0.00633921 0.03967814
v -0.03101231 0.01182244 0.00255673
v -0.00049652 0.00199999 0.00013678
v -0.02847710 0.00111805 0.00069220
v -0.02894820 0.00514274 0.02871218
v -0.03087866 0.04945440 0.01617886
v -0.02711294 0.00000000 0.00133737
v -0.00201684 0.01778319 0.03546638
v -0.02486089 0.01806505 0.03279079
v -0.03101228 0.02144995 0.01053006
v -0.00005300 0.01031527 0.03824212
v -0.03101075 0.01873979 0.01158084
v -0.00604262 0.03099227 0.03004921
v -0.03101225 0.03109184 0.01713501
v -0.00435522 0.00006114 0.02799968
v -0.00646579 0.01123015 0.03789364
v -0.02019298 0.00539839 0.03852710
v -0.03101224 0.04433013 0.01733663
v -0.00382572 0.04404945 0.02411919
v -0.02760024 0.01213391 0.03343208
v -0.01576161 0.03065179 0.02953767
v -0.02567234 0.00694610 0.03633823
v -0.00635304 0.00540108 0.04001849
v -0.00576000 0.00738689 0.03934515
v -0.01382805 0.03021012 0.02992696
v -0.01416862 0.03009321 0.02995156
v -0.01649932 0.04966948 0.02079219
v -0.00154896 0.03800700 0.02697865
v -0.03101227 0.02110059 0.01304176
v -0.03054787 0.04907576 0.01698913
v -0.02091825 0.04999700 0.02030285
v -0.02933193 0.04939163 0.01922501
v -0.01458435 0.03226278 0.02898102
v -0.00079585 0.02719653 0.03170586
v -0.02833236 0.04810226 0.02044542
v -0.00759333 0.03083325 0.03007624
v -0.00040982 0.04498847 0.02370012
v -0.02723352 0.00000000 0.00710501
v -0.02245560 0.04992026 0.02021825
v -0.02861158 0.04708068 0.02079911
v -0.03041246 0.04887703 0.00017339
v -0.02725142 0.01271656 0.03352672
v -0.02149900 0.04412206 0.02304743
v -0.00020885 0.02391189 0.03302933
v -0.01444225 0.02980790 0.03004703
v -0.02827299 0.03104888 0.02696551
v -0.03095327 0.04728624 0.01680855
v -0.01429274 0.01712935 0.03516066
v -0.01451677 0.04949202 0.02102519
v -0.00780370 0.00554142 0.03997328
v -0.03101227 0.02113186 0.01307492
v -0.00688053 0.03107710 0.03000177
v -0.02719121 0.01790801 0.03194993
v -0.01278139 0.00000000 0.02526584
v -0.02951763 0.04918131 0.01897371
v -0.00503481 0.00744737 0.03932873
v -0.02225067 0.00622606 0.03777047
v -0.02925708 0.04874065 0.01960931
v -0.03041246 0.04997501 0.00813542
v -0.02607800 0.00658226 0.03625026
v -0.00856512 0.03092439 0.02997597
v -0.01039918 0.00654428 0.03946596
v -0.02343213 0.00539084 0.03760604
v -0.00671002 0.00557385 0.03999512
v -0.02200349 0.00509676 0.03798465
v -0.03073790 0.00862287 0.00001865
v -0.00690763 0.01677247 0.03580558
v -0.03100861 0.02133009 0.01336271
v -0.03096913 0.04363668 0.01762489
v -0.00634605 0.04301353 0.02457870
v -0.01894675 0.00518812 0.03873901
v -0.03101231 0.01044623 0.00210396
v -0.00257859 0.01226138 0.03753970
v -0.02830302 0.03844290 0.02434580
v -0.00004312 0.02769675 0.03151208
v -0.01712179 0.00519791 0.03907232
v -0.02287992 0.00551208 0.03777745
v -0.00075257 0.00584150 0.03989617
v -0.00173595 0.01766335 0.03551562
v -0.02927602 0.03862584 0.02323512
v -0.03101228 0.01967906 0.01209570
v -0.00304818 0.00525321 0.04003525
v -0.02752200 0.02843211 0.02827484
v -0.00615490 0.01961597 0.03470723
v -0.00050555 0.03572650 0.02803709
v -0.01260195 0.00000000 0.02457900
v -0.02808688 0.04992699 0.01962295
v -0.02867296 0.04542918 0.02145637
v -0.01521649 0.00644309 0.03905300
v -0.03070203 0.00853705 0.00001516
v -0.00701809 0.04297502 0.02458330
v -0.02877212 0.03566205 0.02496367
v -0.02282976 0.00508049 0.03769880
v -0.00656567 0.01214614 0.03754835
v -0.02109223 0.03053851 0.02890320
v -0.02842729 0.04122753 0.02325072
v -0.00605774 0.00763853 0.03924792
v -0.01510602 0.03119428 0.02939478
v -0.02671655 0.02318563 0.03039991
v -0.02590355 0.00883966 0.03559905
v -0.01848093 0.01871387 0.03399339
v -0.00278556 0.03098361 0.03009215
v -0.00647561 0.04333469 0.02442716
v -0.02426133 0.00505951 0.03721268
v -0.02556942 0.00537584 0.03684109
v -0.02874623 0.03011716 0.02670018
v -0.03101224 0.04126362 0.01769571
v -0.02881294 0.04343783 0.02218148
v -0.00347870 0.04367785 0.02430505
v -0.01754946 0.01584365 0.03521774
v -0.00628966 0.03188228 0.02965160
v -0.00703189 0.04263629 0.02473718
v -0.02128908 0.00853952 0.03718786
v -0.00704705 0.03055946 0.03021617
v -0.02887088 0.04262279 0.02245662
v -0.02845659 0.00703877 0.03339796
v -0.02884168 0.04109919 0.02302480
v -0.02141421 0.00650469 0.03788991
v -0.02855081 0.04283961 0.02259669
v -0.03101224 0.04540648 0.01345699
v -0.02826285 0.04101269 0.02338800
v -0.01250059 0.02736510 0.03117642
v -0.00018172 0.04341470 0.02447505
v -0.02866046 0.04996929 0.01950313
v -0.02881339 0.03131497 0.02625722
v -0.00641598 0.00506732 0.03989256
v -0.02718012 0.00535072 0.03578151
v -0.02045797 0.04341610 0.02347125
v -0.03101232 0.01081895 0.00009978
v -0.02174081 0.03054863 0.02880163
v -0.02755255 0.03217935 0.02693423
v -0.03101224 0.04184762 0.01763562
v -0.00618956 0.00511302 0.03995509
v -0.00645908 0.00554903 0.04000302
v -0.00724484 0.02965019 0.03058273
v -0.00326536 0.03102481 0.03006866
v -0.01495739 0.03023132 0.02980973
v -0.01608204 0.00559912 0.03922859
v -0.02823912 0.03574498 0.02537789
v -0.01485720 0.03180663 0.02916083
v -0.02901954 0.03344086 0.02527528
v -0.02944994 0.04328292 0.02135658
v -0.01832931 0.00505148 0.03871374
v -0.00004408 0.01630446 0.03603339
v -0.00605904 0.00727910 0.03938234
v -0.00247224 0.02400238 0.03297858
v -0.02948415 0.04733618 0.01980293
v -0.02873155 0.00546312 0.03262108
v -0.01541492 0.01807555 0.03466719
v -0.01915416 0.00565818 0.03870556
v -0.02745538 0.02501240 0.02945894
v -0.02906569 0.04295507 0.02213163
v -0.01500954 0.03202945 0.02904773
v -0.02595207 0.01962733 0.03190685
v -0.00113954 0.03745202 0.02724147
v -0.00319122 0.00534232 0.04003475
v -0.00690352 0.03182500 0.02966269
v -0.02666721 0.00570086 0.03617861
v -0.01513691 0.00659682 0.03900558
v -0.02299369 0.00550971 0.03774089
f 256 76 565
f 565 514 256
f 256 514 179
f 368 520 521
f 565 527 149
f 149 514 565
f 179 514 149
f 521 527 14
f 583 648 555
f 583 175 76
f 523 175 269
f 76 175 523
f 524 79 63
f 573 374 327
f 320 374 573
f 521 520 174
f 174 527 521
f 174 218 527
f 68 218 174
f 456 14 527
f 456 527 565
f 322 614 179
f 522 614 322
f 179 149 322
f 322 149 522
f 653 256 590
f 590 256 179
f 179 614 590
f 195 614 522
f 76 648 131
f 131 583 76
f 648 583 131
f 142 648 76
f 142 505 648
f 63 79 276
f 488 368 521
f 278 327 374
f 573 327 551
f 551 362 573
f 555 57 148
f 573 362 170
f 520 368 510
f 510 174 520
f 368 174 510
f 153 456 565
f 565 76 153
f 648 82 564
f 564 559 648
f 504 82 648
f 648 505 504
f 82 504 582
f 648 559 358
f 521 14 317
f 477 608 476
f 527 218 405
f 405 149 527
f 405 218 68
f 522 149 405
f 405 195 522
f 614 195 405
f 405 590 614
f 405 351 590
f 306 562 46
f 306 264 161
f 161 264 351
f 161 405 531
f 351 405 161
f 236 122 249
f 122 236 247
f 63 276 348
f 575 592 25
f 472 592 575
f 538 421 127
f 25 421 538
f 129 421 25
f 79 524 631
f 631 656 79
f 524 656 631
f 653 114 40
f 76 256 40
f 40 256 653
f 390 593 86
f 640 172 390
f 390 172 593
f 524 86 167
f 167 593 524
f 86 593 167
f 494 368 245
f 494 183 68
f 68 174 494
f 494 174 368
f 489 535 368
f 368 488 489
f 395 374 555
f 395 278 374
f 444 320 573
f 47 170 362
f 222 446 652
f 647 317 104
f 76 523 513
f 513 153 76
f 513 523 269
f 269 153 513
f 344 153 269
f 456 153 344
f 45 71 22
f 82 29 73
f 556 505 478
f 556 504 505
f 556 582 504
f 90 430 227
f 227 428 90
f 159 6 279
f 159 428 378
f 238 576 638
f 245 368 373
f 368 535 373
f 467 580 548
f 87 558 599
f 599 388 87
f 599 558 296
f 431 428 227
f 227 619 431
f 352 232 428
f 569 67 208
f 208 352 428
f 287 307 265
f 287 229 477
f 287 140 307
f 306 74 529
f 529 359 306
f 590 351 528
f 351 264 528
f 528 264 306
f 219 562 306
f 306 161 219
f 221 247 472
f 472 247 448
f 448 247 236
f 536 472 448
f 448 236 249
f 63 348 443
f 122 247 443
f 443 225 359
f 421 129 443
f 127 421 443
f 249 122 443
f 443 129 25
f 443 276 127
f 443 348 276
f 443 448 249
f 25 592 443
f 536 448 443
f 443 592 472
f 443 472 536
f 142 226 132
f 127 276 432
f 432 538 127
f 432 276 79
f 79 273 432
f 432 575 25
f 25 538 432
f 63 74 483
f 483 74 306
f 306 46 483
f 300 40 644
f 644 40 330
f 644 437 300
f 644 330 142
f 644 142 76
f 76 40 185
f 185 40 300
f 300 437 185
f 185 644 76
f 437 644 185
f 21 518 492
f 64 134 403
f 640 512 124
f 124 172 640
f 512 172 124
f 436 226 142
f 324 491 311
f 462 377 434
f 531 405 297
f 71 45 168
f 58 427 55
f 643 645 257
f 257 252 430
f 629 507 22
f 22 282 629
f 629 282 116
f 269 175 370
f 372 43 422
f 422 446 19
f 422 43 446
f 269 106 319
f 125 312 22
f 22 71 125
f 612 564 82
f 82 73 612
f 643 470 277
f 277 470 564
f 564 612 277
f 652 6 217
f 217 222 652
f 430 90 191
f 191 90 428
f 401 279 559
f 204 279 401
f 5 358 559
f 559 279 5
f 286 279 204
f 428 232 336
f 336 378 428
f 473 43 266
f 446 43 473
f 599 12 281
f 420 609 450
f 220 609 420
f 389 281 78
f 78 281 12
f 78 660 626
f 215 171 19
f 19 326 215
f 490 388 599
f 464 238 638
f 464 490 238
f 388 490 464
f 346 489 498
f 599 296 44
f 216 634 332
f 284 41 495
f 392 332 463
f 332 634 463
f 463 231 392
f 463 495 231
f 284 495 463
f 463 424 284
f 463 634 259
f 449 619 141
f 449 108 545
f 569 108 449
f 449 506 569
f 141 506 449
f 379 545 569
f 243 336 232
f 515 557 67
f 67 557 138
f 622 343 569
f 569 208 622
f 428 343 622
f 622 208 428
f 141 140 361
f 141 169 160
f 160 140 141
f 308 477 476
f 308 287 477
f 550 67 569
f 638 96 659
f 585 515 67
f 585 326 19
f 359 529 487
f 63 443 487
f 487 443 359
f 487 74 63
f 487 529 74
f 653 225 333
f 247 221 333
f 333 114 653
f 590 528 75
f 653 590 75
f 75 225 653
f 75 528 306
f 306 359 75
f 359 225 75
f 497 219 161
f 497 434 377
f 226 143 671
f 471 556 478
f 582 556 471
f 478 671 471
f 82 582 158
f 526 40 114
f 63 483 672
f 672 524 63
f 672 86 524
f 672 390 86
f 334 46 562
f 562 483 334
f 334 483 46
f 186 518 403
f 102 21 492
f 84 9 518
f 84 491 324
f 84 518 491
f 507 629 349
f 349 629 116
f 518 9 651
f 492 518 651
f 651 116 492
f 651 349 116
f 9 349 651
f 7 512 640
f 640 64 7
f 593 172 542
f 172 436 542
f 524 593 542
f 542 656 524
f 79 656 542
f 542 273 79
f 542 432 273
f 330 40 542
f 40 432 542
f 571 436 172
f 226 436 571
f 571 666 226
f 571 512 426
f 571 172 512
f 324 311 455
f 455 672 483
f 311 672 455
f 455 180 462
f 562 180 455
f 455 483 562
f 462 434 181
f 181 434 9
f 9 434 347
f 121 405 68
f 68 297 121
f 121 297 405
f 197 161 531
f 197 497 161
f 413 168 45
f 206 168 413
f 255 375 107
f 206 413 581
f 655 206 30
f 30 427 655
f 30 55 427
f 107 375 275
f 275 375 209
f 620 645 643
f 381 427 58
f 500 252 268
f 268 411 500
f 655 427 224
f 268 252 246
f 252 257 246
f 246 381 268
f 427 381 246
f 209 375 546
f 116 282 48
f 48 682 116
f 303 682 48
f 56 233 242
f 192 233 56
f 200 242 570
f 242 233 570
f 498 489 310
f 385 398 477
f 477 229 385
f 88 106 269
f 269 370 88
f 374 320 439
f 555 374 439
f 439 583 555
f 175 583 439
f 439 370 175
f 442 647 104
f 20 110 420
f 420 450 20
f 317 647 20
f 521 317 20
f 187 422 19
f 19 171 187
f 372 422 187
f 573 372 187
f 13 6 159
f 13 217 6
f 470 401 415
f 415 401 559
f 559 564 415
f 643 257 16
f 16 257 430
f 16 470 643
f 16 401 470
f 159 279 50
f 279 321 50
f 50 428 159
f 50 321 428
f 567 279 6
f 567 5 279
f 428 321 155
f 155 321 279
f 279 286 155
f 418 473 266
f 266 154 418
f 418 154 165
f 83 47 148
f 83 148 57
f 83 154 170
f 170 47 83
f 165 154 97
f 130 12 599
f 130 20 450
f 599 488 130
f 130 488 521
f 521 20 130
f 389 78 314
f 314 78 626
f 576 635 681
f 681 215 576
f 457 537 238
f 626 660 457
f 576 238 248
f 238 537 248
f 137 354 10
f 265 10 35
f 35 10 354
f 535 489 668
f 489 346 668
f 339 346 498
f 245 606 367
f 367 494 245
f 183 494 367
f 367 258 183
f 183 258 77
f 68 183 77
f 599 44 568
f 670 44 296
f 55 92 674
f 189 332 235
f 189 216 332
f 507 26 272
f 572 169 141
f 613 189 683
f 342 54 586
f 673 145 141
f 141 289 673
f 673 289 259
f 341 350 141
f 141 145 341
f 428 431 135
f 135 343 428
f 135 379 343
f 545 379 135
f 569 545 294
f 294 108 569
f 545 108 294
f 619 449 481
f 481 449 545
f 481 431 619
f 481 135 431
f 545 135 481
f 569 343 661
f 661 379 569
f 343 379 661
f 53 289 141
f 259 289 53
f 53 463 259
f 625 424 53
f 424 463 53
f 625 53 8
f 352 208 664
f 664 208 67
f 67 138 664
f 118 506 141
f 141 361 118
f 140 287 11
f 11 361 140
f 638 659 85
f 85 659 476
f 109 308 476
f 476 659 109
f 399 585 67
f 67 550 399
f 399 550 549
f 326 585 560
f 638 576 560
f 560 96 638
f 576 215 560
f 560 215 326
f 596 443 247
f 225 443 596
f 562 219 380
f 219 497 380
f 530 132 226
f 363 143 226
f 676 452 365
f 143 452 676
f 676 158 582
f 582 471 253
f 173 671 143
f 173 471 671
f 234 4 505
f 505 142 234
f 142 132 234
f 579 671 478
f 579 4 671
f 478 505 579
f 505 4 579
f 605 221 472
f 605 262 221
f 575 432 553
f 432 262 553
f 262 605 553
f 472 575 553
f 553 605 472
f 302 432 40
f 40 526 302
f 390 672 166
f 166 672 311
f 640 390 166
f 166 64 640
f 166 311 491
f 134 64 166
f 491 518 166
f 518 186 166
f 403 134 166
f 166 186 403
f 21 102 283
f 283 242 200
f 283 102 242
f 103 616 21
f 103 283 200
f 21 283 103
f 200 570 103
f 103 570 616
f 403 518 417
f 518 630 417
f 518 21 356
f 356 630 518
f 482 64 403
f 403 417 482
f 482 417 630
f 486 349 293
f 425 436 142
f 425 542 436
f 142 330 425
f 330 542 425
f 604 571 426
f 357 84 324
f 324 455 357
f 9 84 357
f 357 181 9
f 331 357 455
f 181 357 331
f 293 349 250
f 250 349 9
f 193 347 434
f 531 297 136
f 136 197 531
f 434 497 254
f 497 197 254
f 678 255 107
f 375 255 338
f 206 581 533
f 533 30 206
f 55 30 533
f 290 338 115
f 375 338 290
f 107 275 340
f 22 312 340
f 663 364 128
f 460 364 663
f 460 570 233
f 616 570 460
f 58 268 111
f 111 381 58
f 268 381 111
f 52 268 58
f 52 411 268
f 58 55 52
f 52 41 284
f 284 424 52
f 55 674 52
f 454 500 411
f 454 619 227
f 655 224 274
f 447 257 645
f 1 598 663
f 485 246 224
f 485 224 427
f 427 246 485
f 282 546 624
f 624 546 375
f 242 519 60
f 303 48 499
f 499 48 445
f 282 624 212
f 663 598 210
f 210 17 663
f 643 17 210
f 210 620 643
f 120 33 365
f 365 616 120
f 616 460 120
f 498 310 603
f 398 385 603
f 561 442 104
f 647 442 152
f 345 552 420
f 157 444 573
f 573 469 157
f 573 187 100
f 100 469 573
f 319 469 100
f 178 319 106
f 178 469 319
f 319 435 615
f 159 378 126
f 126 13 159
f 378 336 126
f 336 243 126
f 204 401 438
f 401 316 438
f 430 316 366
f 366 16 430
f 401 16 366
f 366 316 401
f 298 567 205
f 563 57 555
f 228 220 420
f 228 66 220
f 220 66 194
f 371 457 660
f 537 457 371
f 137 10 410
f 410 586 137
f 621 467 548
f 139 287 265
f 229 287 139
f 580 467 597
f 37 42 467
f 37 214 42
f 245 373 230
f 230 214 245
f 502 353 680
f 502 606 245
f 502 680 606
f 199 488 599
f 599 568 199
f 112 670 296
f 662 203 61
f 61 674 662
f 662 674 15
f 144 189 662
f 662 15 144
f 397 272 26
f 45 601 397
f 397 413 45
f 244 581 397
f 397 581 413
f 539 297 68
f 539 423 297
f 169 572 468
f 342 69 468
f 613 683 23
f 19 446 188
f 188 414 19
f 446 222 188
f 315 585 19
f 19 414 315
f 315 414 515
f 515 585 315
f 232 352 677
f 352 664 677
f 677 243 232
f 550 646 51
f 549 550 51
f 287 308 335
f 406 333 225
f 225 596 406
f 247 333 406
f 406 596 247
f 226 671 554
f 554 530 226
f 226 666 59
f 59 363 226
f 143 363 59
f 639 17 643
f 158 676 639
f 198 253 143
f 143 676 198
f 198 676 582
f 582 253 198
f 237 302 526
f 221 262 237
f 237 333 221
f 114 333 237
f 237 526 114
f 21 616 32
f 32 356 21
f 119 486 293
f 297 240 628
f 628 486 297
f 349 486 628
f 507 349 628
f 666 571 70
f 462 181 409
f 181 331 409
f 409 455 462
f 409 331 455
f 9 347 80
f 80 250 9
f 347 193 80
f 80 193 250
f 293 250 133
f 133 193 293
f 250 193 133
f 610 193 434
f 434 254 610
f 293 193 610
f 610 254 197
f 196 168 206
f 623 338 255
f 255 678 623
f 55 533 441
f 305 465 92
f 22 340 304
f 338 623 607
f 192 408 291
f 408 607 291
f 291 233 192
f 291 383 233
f 663 17 323
f 323 460 663
f 17 120 323
f 323 120 460
f 72 454 8
f 72 8 53
f 619 454 72
f 72 53 141
f 141 619 72
f 654 454 227
f 227 430 654
f 430 252 654
f 252 500 654
f 500 454 654
f 412 1 663
f 412 274 224
f 598 1 517
f 517 447 598
f 257 447 517
f 544 102 492
f 242 102 544
f 544 519 242
f 566 60 519
f 303 499 566
f 242 60 91
f 56 499 396
f 396 499 445
f 396 212 56
f 56 212 386
f 115 391 386
f 386 391 56
f 386 290 115
f 282 212 27
f 192 56 675
f 56 391 675
f 398 603 532
f 532 603 310
f 319 615 65
f 65 615 627
f 442 561 459
f 420 552 679
f 420 110 81
f 81 345 420
f 101 100 187
f 101 187 171
f 101 435 319
f 319 100 101
f 101 615 435
f 146 679 552
f 615 101 301
f 215 151 301
f 171 215 301
f 301 101 171
f 154 83 387
f 113 194 66
f 576 194 113
f 113 635 576
f 342 586 466
f 586 410 466
f 466 69 342
f 618 621 382
f 467 621 669
f 669 37 467
f 265 35 329
f 329 139 265
f 474 139 329
f 329 213 474
f 346 339 150
f 34 54 342
f 98 38 123
f 214 37 658
f 245 214 658
f 475 230 373
f 602 230 475
f 288 230 602
f 214 230 288
f 458 502 245
f 245 658 458
f 670 112 271
f 674 61 190
f 231 495 190
f 190 495 41
f 41 52 190
f 190 52 674
f 384 674 92
f 92 465 384
f 384 465 244
f 244 397 384
f 244 465 453
f 453 305 147
f 465 305 453
f 270 480 453
f 147 270 453
f 402 15 674
f 501 189 235
f 501 163 189
f 189 163 89
f 89 203 662
f 662 189 89
f 22 507 684
f 684 45 22
f 684 601 45
f 587 397 601
f 587 684 507
f 601 684 587
f 507 272 587
f 272 397 587
f 24 539 68
f 423 539 24
f 68 77 650
f 342 468 508
f 508 468 572
f 189 144 292
f 292 683 189
f 141 350 496
f 376 51 646
f 376 335 308
f 671 4 211
f 211 554 671
f 641 676 365
f 641 639 676
f 632 639 643
f 158 639 632
f 643 277 632
f 632 277 73
f 632 73 29
f 534 237 262
f 302 237 534
f 534 262 432
f 432 302 534
f 285 32 616
f 285 616 365
f 365 452 285
f 452 280 285
f 665 280 426
f 665 285 280
f 297 486 337
f 486 119 337
f 337 136 297
f 197 136 337
f 337 119 197
f 507 628 451
f 667 516 240
f 297 423 667
f 667 240 297
f 571 604 95
f 95 70 571
f 666 70 95
f 95 59 666
f 143 59 95
f 95 452 143
f 95 604 426
f 426 280 95
f 95 280 452
f 578 119 293
f 293 610 578
f 197 119 578
f 678 196 355
f 355 196 206
f 355 206 655
f 328 533 581
f 328 441 533
f 637 305 92
f 637 270 147
f 147 305 637
f 493 340 275
f 493 304 340
f 318 282 22
f 22 304 318
f 655 274 94
f 433 291 607
f 383 291 433
f 233 383 433
f 433 460 233
f 433 128 364
f 364 460 433
f 419 412 224
f 1 412 419
f 162 544 492
f 303 566 416
f 577 56 242
f 242 91 577
f 584 48 282
f 282 27 584
f 212 396 267
f 267 27 212
f 2 65 627
f 647 65 2
f 647 152 633
f 633 65 647
f 319 65 461
f 442 459 164
f 484 146 552
f 615 301 636
f 636 301 151
f 618 382 62
f 62 382 139
f 229 139 591
f 139 382 591
f 540 621 618
f 540 669 621
f 123 37 394
f 597 150 223
f 223 150 339
f 580 597 223
f 38 34 574
f 123 38 574
f 574 37 123
f 525 98 474
f 38 98 525
f 474 213 525
f 42 214 201
f 214 288 201
f 49 271 112
f 477 271 49
f 608 477 49
f 541 397 26
f 541 384 397
f 674 384 541
f 541 402 674
f 15 402 541
f 244 453 642
f 642 453 480
f 26 516 595
f 516 600 595
f 440 24 68
f 68 650 440
f 429 144 15
f 15 541 429
f 429 541 26
f 26 595 429
f 429 595 600
f 258 367 260
f 260 367 606
f 613 23 407
f 23 496 407
f 325 496 23
f 141 496 325
f 404 376 646
f 335 376 404
f 17 639 117
f 639 641 117
f 117 120 17
f 33 120 117
f 512 482 509
f 482 665 509
f 426 512 509
f 509 665 426
f 32 285 649
f 285 665 649
f 630 356 649
f 356 32 649
f 649 482 630
f 649 665 482
f 589 26 507
f 507 451 589
f 156 628 240
f 26 589 156
f 156 516 26
f 240 516 156
f 176 600 516
f 516 667 176
f 176 429 600
f 176 667 423
f 423 429 176
f 177 610 197
f 197 578 177
f 177 578 610
f 678 355 393
f 36 162 492
f 492 116 36
f 116 682 36
f 182 566 519
f 182 416 566
f 543 461 18
f 18 461 65
f 18 164 543
f 543 164 360
f 360 164 459
f 146 484 594
f 615 146 594
f 627 615 594
f 298 205 207
f 207 567 298
f 207 251 567
f 207 205 97
f 207 97 154
f 154 387 207
f 207 387 563
f 563 251 207
f 567 251 611
f 5 567 611
f 648 358 611
f 358 5 611
f 611 251 563
f 555 648 611
f 611 563 555
f 37 669 39
f 39 394 37
f 588 658 37
f 37 574 588
f 423 24 99
f 99 429 423
f 657 77 258
f 657 650 77
f 184 260 606
f 606 680 184
f 680 353 184
f 658 588 184
f 184 588 574
f 261 241 342
f 261 292 144
f 144 429 261
f 429 241 261
f 299 34 342
f 342 241 299
f 295 572 141
f 141 325 295
f 617 589 451
f 617 156 589
f 617 451 628
f 655 94 369
f 369 355 655
f 369 393 355
f 607 393 369
f 94 433 369
f 369 433 607
f 400 607 623
f 400 393 607
f 400 623 678
f 678 393 400
f 24 440 479
f 479 99 24
f 440 99 479
f 258 260 105
f 105 657 258
f 260 657 105
f 309 657 260
f 309 440 650
f 650 657 309
f 260 184 309
f 263 658 547
f 658 184 547
f 547 458 263
f 502 458 547
f 503 309 184
f 313 309 503
f 28 261 342
f 292 261 28
f 429 99 511
f 511 309 313
f 93 99 440
f 440 309 93
f 93 511 99
f 309 511 93
f 239 241 429
f 429 503 239
f 239 503 241
f 202 574 34
f 34 299 202
f 202 184 574
f 241 503 202
f 202 503 184
f 3 503 429
f 429 511 3
f 313 503 3
f 3 511 313
f 241 202 31
f 31 299 241
f 555 148 47
f 47 551 327
f 327 278 47
f 362 551 47
f 47 395 555
f 278 395 47
f 277 612 73
f 573 170 154
f 154 372 573
f 266 43 154
f 154 43 372
f 564 470 415
f 389 314 457
f 599 281 457
f 457 490 599
f 457 281 389
f 238 490 457
f 457 314 626
f 462 180 380
f 380 377 462
f 380 180 562
f 380 497 377
f 173 253 471
f 143 253 173
f 482 7 64
f 512 7 482
f 454 52 424
f 454 424 625
f 625 8 454
f 411 52 454
f 210 447 645
f 645 620 210
f 598 447 210
f 320 444 178
f 106 88 178
f 370 439 178
f 178 439 320
f 178 88 370
f 444 157 178
f 178 157 469
f 430 191 438
f 428 155 438
f 438 316 430
f 438 191 428
f 438 286 204
f 438 155 286
f 205 6 652
f 652 446 205
f 446 473 205
f 205 418 165
f 165 97 205
f 205 567 6
f 473 418 205
f 12 130 371
f 576 248 371
f 371 450 609
f 609 220 371
f 371 78 12
f 660 78 371
f 371 194 576
f 371 130 450
f 371 248 537
f 220 194 371
f 217 13 677
f 222 217 677
f 677 126 243
f 557 515 677
f 677 138 557
f 677 188 222
f 515 414 677
f 677 664 138
f 13 126 677
f 414 188 677
f 71 168 196
f 196 678 107
f 312 125 196
f 107 340 196
f 196 125 71
f 196 340 312
f 375 290 386
f 386 624 375
f 386 212 624
f 675 607 408
f 675 408 192
f 115 338 675
f 675 391 115
f 338 607 675
f 57 563 387
f 387 83 57
f 466 10 265
f 466 160 169
f 265 307 466
f 307 140 466
f 140 160 466
f 466 468 69
f 169 468 466
f 466 410 10
f 458 658 263
f 477 398 271
f 271 489 488
f 271 310 489
f 398 532 271
f 488 199 271
f 271 568 44
f 44 670 271
f 271 199 568
f 271 532 310
f 89 332 392
f 392 231 89
f 235 332 89
f 231 190 89
f 89 61 203
f 89 501 235
f 89 190 61
f 163 501 89
f 376 659 96
f 96 560 376
f 308 109 376
f 376 399 549
f 376 109 659
f 585 399 376
f 376 560 585
f 549 51 376
f 211 234 132
f 132 530 211
f 4 234 211
f 530 554 211
f 82 158 632
f 632 29 82
f 209 546 318
f 318 275 209
f 318 546 282
f 318 493 275
f 304 493 318
f 433 412 663
f 663 128 433
f 433 94 274
f 274 412 433
f 224 246 419
f 419 246 257
f 257 517 419
f 419 517 1
f 577 499 56
f 60 566 577
f 577 566 499
f 577 91 60
f 267 396 445
f 445 48 267
f 48 584 267
f 267 584 27
f 636 681 635
f 636 151 215
f 420 679 636
f 635 113 636
f 636 228 420
f 636 146 615
f 215 681 636
f 66 228 636
f 679 146 636
f 636 113 66
f 548 580 223
f 223 339 498
f 498 603 223
f 223 385 229
f 223 603 385
f 223 621 548
f 223 382 621
f 229 591 223
f 223 591 382
f 525 354 137
f 137 586 525
f 54 34 525
f 525 329 35
f 525 586 54
f 525 35 354
f 213 329 525
f 525 34 38
f 535 668 201
f 346 150 201
f 201 373 535
f 467 42 201
f 201 668 346
f 201 475 373
f 201 597 467
f 201 150 597
f 602 475 201
f 201 288 602
f 49 296 558
f 49 464 638
f 476 608 49
f 558 87 49
f 49 87 388
f 638 85 49
f 388 464 49
f 49 85 476
f 49 112 296
f 55 441 642
f 642 581 244
f 642 92 55
f 642 328 581
f 642 637 92
f 642 480 270
f 441 328 642
f 270 637 642
f 216 189 407
f 259 634 407
f 634 216 407
f 350 341 407
f 407 673 259
f 407 189 613
f 145 673 407
f 407 341 145
f 407 496 350
f 404 550 569
f 569 506 404
f 506 118 404
f 404 11 287
f 404 118 361
f 361 11 404
f 404 646 550
f 287 335 404
f 117 641 365
f 365 33 117
f 303 416 182
f 182 682 303
f 519 544 182
f 544 162 182
f 182 36 682
f 162 36 182
f 18 633 152
f 18 152 442
f 65 633 18
f 442 164 18
f 360 561 104
f 269 319 360
f 360 344 269
f 14 456 360
f 360 459 561
f 360 317 14
f 104 317 360
f 456 344 360
f 319 461 360
f 360 461 543
f 594 2 627
f 647 2 594
f 594 20 647
f 594 81 110
f 110 20 594
f 552 345 594
f 345 81 594
f 594 484 552
f 39 139 474
f 474 98 39
f 39 540 618
f 618 62 39
f 39 98 123
f 39 62 139
f 669 540 39
f 123 394 39
f 628 156 617
f 547 184 353
f 353 502 547
f 342 508 28
f 683 292 28
f 572 295 28
f 28 23 683
f 28 508 572
f 28 325 23
f 28 295 325
f 31 202 299

