# https://github.com/mikedh/trimesh
v -0.01346686 -0.02517898 -0.04928771
v -0.02990027 -0.01466911 -0.00008492
v -0.03007561 -0.01416944 -0.00082666
v -0.03141349 -0.00504280 -0.04824296
v -0.01793349 -0.02771146 -0.00091849
v -0.03211712 -0.00572878 -0.00418660
v -0.02767474 -0.01863737 -0.00367165
v -0.03231043 -0.00409005 -0.00006051
v -0.03126491 -0.01058785 -0.00123823
v -0.00132303 -0.03097150 -0.00426851
v -0.00000008 -0.00073580 -0.01310626
v -0.02775646 -0.01860518 -0.00174128
v -0.03067895 -0.01238854 -0.00214604
v -0.00041851 -0.03124218 -0.00098872
v -0.00606015 -0.02609750 -0.04969280
v -0.01041243 -0.02122005 -0.00000000
v -0.03178741 -0.00205264 -0.04977635
v -0.03066887 -0.01182383 -0.01063971
v -0.02664518 -0.02011654 -0.00375171
v -0.02942454 -0.01554492 -0.00005958
v -0.03120757 -0.00578823 -0.04993462
v -0.01966548 -0.02678772 -0.00044435
v -0.00732973 -0.03070098 -0.00210874
v -0.02363226 -0.00041026 -0.00000000
v -0.02242489 -0.00651216 -0.00000000
v -0.00000041 -0.03053302 -0.00722289
v -0.00779219 -0.03055726 -0.00304166
v -0.02882588 -0.01657876 -0.00450864
v -0.03231396 -0.00302065 -0.00436569
v -0.03087055 -0.01182111 -0.00261258
v -0.00832394 -0.03038324 -0.00423103
v -0.03226950 -0.00482490 -0.00130895
v -0.00000237 -0.00000345 -0.04421374
v -0.01895044 -0.02707647 -0.00267210
v -0.01081239 -0.03003367 -0.00278665
v -0.00000016 -0.00547519 -0.04050486
v -0.00000001 -0.02241434 -0.01150666
v -0.00066456 -0.03100141 -0.00410804
v -0.02584062 -0.02106951 -0.00419902
v -0.02702911 -0.01956897 -0.00402094
v -0.02810872 -0.01794669 -0.00359743
v -0.02276652 -0.02431830 -0.00398140
v -0.00590153 -0.03093531 -0.00042684
v -0.03228199 -0.00476165 -0.00044748
v -0.02353958 -0.00119848 -0.00000000
v -0.02065520 -0.02595744 -0.00427728
v -0.01192179 -0.02984591 -0.00216847
v -0.03166514 -0.00327190 -0.04844523
v -0.02734393 -0.01913494 -0.00375404
v -0.02408485 -0.02331402 -0.00039786
v -0.00000088 -0.00006382 -0.02401052
v -0.02813431 -0.01787295 -0.00422877
v -0.00000003 -0.01386404 -0.04011397
v -0.03114978 -0.01091804 -0.00465483
v -0.00138030 -0.03098209 -0.00412677
v -0.01768953 -0.01248891 -0.00000000
v -0.02178073 -0.02511379 -0.00437432
v -0.02825243 -0.01771205 -0.00022722
v -0.00719525 -0.03062917 -0.00328746
v -0.00791931 -0.03041754 -0.00450311
v -0.02124276 -0.02168091 -0.04966913
v -0.00000003 -0.00042667 -0.03730445
v -0.00000000 -0.00443712 -0.01196546
v -0.02788502 -0.01828077 -0.00406501
v -0.02666313 -0.02008736 -0.00404776
v -0.02423265 -0.02300624 -0.00319337
v -0.03224824 -0.00466117 -0.00411185
v -0.00934331 -0.03033594 -0.00232243
v -0.03204923 -0.00010363 -0.03731114
v -0.02480255 -0.02248740 -0.00116972
v -0.03211223 -0.00118995 -0.02853761
v -0.02957810 -0.01088506 -0.04939827
v -0.02457337 -0.02271933 -0.00183994
v -0.00000002 -0.00858859 -0.00862234
v -0.00194979 -0.03081902 -0.00560158
v -0.00000001 -0.00236613 -0.01216573
v -0.01290805 -0.02949074 -0.00355974
v -0.01996061 -0.02653233 -0.00251346
v -0.03180467 -0.00805664 -0.00483228
v -0.00030502 -0.03094426 -0.00478229
v -0.02242931 -0.02463857 -0.00388465
v -0.00000272 -0.00031791 -0.04891114
v -0.00041075 -0.02620519 -0.04989128
v -0.00000286 -0.02313032 -0.04996014
v -0.02287470 -0.00406975 -0.00000000
v -0.02777750 -0.01436273 -0.04991509
v -0.02923117 -0.01164194 -0.04953911
v -0.02052742 -0.02608184 -0.00385147
v -0.00000109 -0.00001698 -0.01666860
v -0.02838473 -0.01733270 -0.00539189
v -0.00859889 -0.03058794 -0.00018221
v -0.02751890 -0.01898403 -0.00175600
v -0.00000002 -0.02377292 -0.01991079
v -0.03144256 -0.00481415 -0.04849649
v -0.03057092 -0.01265483 -0.00401921
v -0.01693740 -0.02807270 -0.00354604
v -0.00000286 -0.02543705 -0.04984203
v -0.00000013 -0.02973101 -0.01293613
v -0.02398405 -0.01928354 -0.04976347
v -0.01971381 -0.02276302 -0.04961306
v -0.02988147 -0.01449238 -0.00458253
v -0.00000012 -0.00021240 -0.01102440
v -0.02176196 -0.02516973 -0.00382676
v -0.00333611 -0.03111175 -0.00016704
v -0.00694309 -0.03051036 -0.00486284
v -0.01837153 -0.02733126 -0.00361194
v -0.01564059 -0.02877347 -0.00007303
v -0.02630928 -0.01655245 -0.04929457
v -0.03145478 -0.00446326 -0.04985236
v -0.01253808 -0.02960743 -0.00341940
v -0.01860942 -0.02725824 -0.00275078
v -0.02609621 -0.02082798 -0.00313271
v -0.00000252 -0.02615539 -0.04544252
v -0.03165997 -0.00874465 -0.00060682
v -0.01746280 -0.02779703 -0.00380732
v -0.02936969 -0.01553764 -0.00407611
v -0.01149112 -0.02074339 -0.00000000
v -0.00002661 -0.00499879 -0.00000000
v -0.01304944 -0.02937686 -0.00445278
v -0.01308562 -0.02956648 -0.00169054
v -0.03127277 -0.00556905 -0.04962516
v -0.01631606 -0.02432953 -0.04938311
v -0.03012848 -0.01400464 -0.00030228
v -0.02946099 -0.01477544 -0.01065402
v -0.02978590 -0.01033136 -0.04967704
v -0.02506948 -0.02218384 -0.00043042
v -0.01949550 -0.02286845 -0.04967231
v -0.01262358 -0.02954443 -0.00398137
v -0.02985384 -0.01459353 -0.00378943
v -0.00813762 -0.03066508 -0.00037899
v -0.00000002 -0.01873047 -0.00652290
v -0.03227820 -0.00385754 -0.00480217
v -0.00000128 -0.00010296 -0.03641043
v -0.00877983 -0.03031513 -0.00408884
v -0.02848599 -0.01717262 -0.00509263
v -0.00100155 -0.03062036 -0.00776720
v -0.00000096 -0.02578001 -0.04028801
v -0.02132237 -0.02558625 -0.00239629
v -0.00000019 -0.03015599 -0.00607847
v -0.02572031 -0.01728788 -0.04978350
v -0.03114626 -0.01098456 -0.00256878
v -0.02819518 -0.01781629 -0.00026556
v -0.03148918 -0.00423874 -0.04978436
v -0.00715459 -0.03084357 -0.00046986
v -0.02215436 -0.02496919 -0.00000734
v -0.02475722 -0.02245028 -0.00267242
v -0.01226217 -0.02982975 -0.00121893
v -0.00000034 -0.00007558 -0.01242819
v -0.00884693 -0.01864344 -0.00000000
v -0.01449302 -0.02913904 -0.00041511
v -0.03053282 -0.01273934 -0.00430855
v -0.03146368 -0.00986631 -0.00259988
v -0.01143819 -0.02563315 -0.04996883
v -0.00000272 -0.00025828 -0.04883876
v -0.02228164 -0.00713194 -0.00000000
v -0.03200574 -0.00009031 -0.04021762
v -0.02326880 -0.00497015 -0.00000000
v -0.03164240 -0.00897694 -0.00323967
v -0.02415564 -0.02302696 -0.00395907
v -0.03097270 -0.01140660 -0.00542119
v -0.03227830 -0.00451423 -0.00247209
v -0.03093710 -0.01158169 -0.00451220
v -0.03125916 -0.01059525 -0.00360931
v -0.03183766 -0.00130262 -0.04899306
v -0.00000006 -0.01135777 -0.04022744
v -0.03188799 -0.00032608 -0.04678193
v -0.03210419 -0.00008800 -0.03211557
v -0.01347021 -0.02939901 -0.00249927
v -0.02855493 -0.01712741 -0.00337956
v -0.01723617 -0.02804537 -0.00166684
v -0.00984965 -0.03010591 -0.00434012
v -0.02019621 -0.02244030 -0.04959871
v -0.00000071 -0.03040720 -0.00871108
v -0.00934136 -0.03031142 -0.00273090
v -0.03181484 -0.00202731 -0.04902571
v -0.02254157 -0.02453000 -0.00394608
v -0.01571555 -0.02455359 -0.04968202
v -0.00764587 -0.02177300 -0.00000000
v -0.03211024 -0.00135377 -0.02812773
v -0.01189688 -0.02975933 -0.00352546
v -0.01781883 -0.02772060 -0.00197424
v -0.03143471 -0.00461261 -0.04980662
v -0.03184174 -0.00116417 -0.04886194
v -0.03244579 -0.00016426 -0.00048696
v -0.00000003 -0.02871112 -0.00505739
v -0.02879637 -0.01248276 -0.04974318
v -0.01427238 -0.02905672 -0.00385634
v -0.01130502 -0.02997077 -0.00220104
v -0.02355363 -0.02379542 -0.00052389
v -0.00291275 -0.03096426 -0.00385375
v -0.00324464 -0.03093026 -0.00415050
v -0.03037858 -0.01326016 -0.00236847
v -0.02458100 -0.02248516 -0.00485626
v -0.01373435 -0.00476296 -0.00000000
v -0.00948818 -0.03022018 -0.00369228
v -0.02632586 -0.02050231 -0.00403716
v -0.03063165 -0.00801209 -0.04984052
v -0.00700380 -0.03074742 -0.00194719
v -0.01643833 -0.02849411 -0.00020625
v -0.02644771 -0.01636483 -0.04933265
v -0.02339399 -0.01986465 -0.04996432
v -0.03144054 -0.01001787 -0.00112079
v -0.02996190 -0.01435080 -0.00407323
v -0.00000281 -0.00151948 -0.04999972
v -0.00962285 -0.03015714 -0.00424713
v -0.00000009 -0.02715246 -0.00524708
v -0.00000019 -0.00011457 -0.01146775
v -0.01265997 -0.02967062 -0.00197183
v -0.03224183 -0.00452978 -0.00548928
v -0.03190475 -0.00735231 -0.00458188
v -0.02103386 -0.02584875 -0.00162795
v -0.00924138 -0.03022832 -0.00419416
v -0.02213898 -0.02488675 -0.00376270
v -0.00000055 -0.00183636 -0.04132658
v -0.01148200 -0.03003441 -0.00032830
v -0.02145768 -0.02554034 -0.00018703
v -0.01740883 -0.01634096 -0.00000000
v -0.00000012 -0.02448040 -0.03978905
v -0.02560256 -0.02136778 -0.00394836
v -0.00000013 -0.00027776 -0.03428760
v -0.00000009 -0.02955828 -0.01237763
v -0.00040642 -0.03122069 -0.00127850
v -0.02127640 -0.02568107 -0.00056662
v -0.02013445 -0.02650315 -0.00107164
v -0.03191037 -0.00019188 -0.04596359
v -0.02728215 -0.01934835 -0.00096666
v -0.03242926 -0.00076623 -0.00009391
v -0.01800137 -0.01341586 -0.00000000
v -0.00000171 -0.00002019 -0.03523111
v -0.01295948 -0.01998041 -0.00000000
v -0.01939040 -0.02693748 -0.00045265
v -0.01248254 -0.00696588 -0.00000000
v -0.00008631 -0.03062278 -0.00796850
v -0.00042175 -0.03060529 -0.00805716
v -0.01192076 -0.02975151 -0.00355686
v -0.03147401 -0.00974468 -0.00411688
v -0.00000284 -0.01446259 -0.04998565
v -0.00000001 -0.01633864 -0.03583491
v -0.02156391 -0.02539847 -0.00234796
v -0.02359545 -0.00178837 -0.00000000
v -0.01153329 -0.03000796 -0.00065093
v -0.00191385 -0.03079825 -0.00581274
v -0.01536680 -0.02466484 -0.04954854
v -0.03043914 -0.01306314 -0.00004955
v -0.00931150 -0.02579633 -0.04992066
v -0.03037428 -0.01326086 -0.00001991
v -0.00804311 -0.02187314 -0.00000000
v -0.03208526 -0.00026987 -0.03360142
v -0.03150589 -0.00972156 -0.00155560
v -0.00000266 -0.02590882 -0.04720209
v -0.00811577 -0.02031972 -0.00000000
v -0.01709166 -0.02802934 -0.00319022
v -0.00000000 -0.00872518 -0.02855127
v -0.03041458 -0.01316470 -0.00126072
v -0.03038919 -0.00875144 -0.04987414
f 185 118 14
f 184 24 207
f 63 253 62
f 62 76 63
f 118 24 194
f 204 201 21
f 21 17 204
f 227 24 184
f 183 225 166
f 154 166 225
f 62 214 154
f 183 166 154
f 102 62 207
f 102 24 118
f 102 207 24
f 118 194 232
f 86 21 201
f 24 227 8
f 8 246 24
f 118 185 206
f 206 131 118
f 185 131 206
f 37 131 185
f 37 253 63
f 63 131 37
f 118 131 74
f 74 102 118
f 76 102 74
f 63 76 74
f 74 131 63
f 82 214 204
f 82 154 214
f 204 17 82
f 82 17 183
f 183 154 82
f 62 154 33
f 33 154 225
f 225 156 33
f 76 62 11
f 11 102 76
f 62 102 11
f 153 201 204
f 84 97 83
f 83 153 84
f 118 232 149
f 149 232 194
f 140 86 201
f 246 20 145
f 2 246 123
f 2 20 246
f 167 69 184
f 167 156 69
f 167 33 156
f 179 175 209
f 69 175 179
f 209 175 6
f 69 156 164
f 164 175 69
f 164 225 183
f 164 156 225
f 183 17 164
f 17 175 164
f 161 179 209
f 161 8 227
f 36 214 62
f 204 214 36
f 207 62 220
f 62 33 220
f 89 167 184
f 33 167 89
f 14 118 104
f 118 178 104
f 59 191 198
f 198 144 59
f 191 144 198
f 191 153 15
f 105 191 59
f 59 153 105
f 105 153 191
f 201 153 127
f 127 153 177
f 61 81 201
f 201 127 61
f 61 127 100
f 83 97 250
f 250 113 83
f 237 153 204
f 237 84 153
f 42 159 201
f 155 145 217
f 251 56 178
f 251 149 56
f 251 178 118
f 118 149 251
f 85 149 194
f 56 149 85
f 85 194 24
f 24 45 85
f 201 159 99
f 99 140 201
f 21 86 255
f 216 145 223
f 50 81 189
f 189 145 50
f 123 246 254
f 17 21 109
f 21 182 109
f 121 182 21
f 4 182 121
f 69 179 71
f 71 161 132
f 179 161 71
f 48 175 17
f 209 6 67
f 133 220 33
f 14 104 190
f 190 104 191
f 83 113 233
f 113 173 233
f 233 15 83
f 43 144 191
f 191 104 43
f 43 104 144
f 247 145 107
f 178 247 107
f 107 104 178
f 59 144 23
f 245 153 83
f 83 15 245
f 245 15 153
f 187 177 119
f 119 128 187
f 177 128 119
f 177 153 243
f 243 128 177
f 150 107 120
f 172 100 88
f 172 61 100
f 139 185 14
f 253 37 238
f 238 62 253
f 204 36 165
f 165 36 62
f 201 81 176
f 176 42 201
f 223 211 224
f 22 216 224
f 224 216 223
f 224 211 88
f 100 127 115
f 228 155 217
f 217 117 228
f 56 85 228
f 228 85 155
f 178 56 228
f 228 247 178
f 145 155 157
f 246 145 157
f 193 99 159
f 140 99 193
f 21 255 197
f 54 197 160
f 217 145 230
f 230 117 217
f 145 117 230
f 239 211 223
f 223 145 239
f 196 65 140
f 86 140 200
f 50 145 126
f 20 2 58
f 58 145 20
f 58 126 145
f 142 126 58
f 226 126 142
f 186 255 86
f 184 69 248
f 248 71 184
f 69 71 248
f 184 71 29
f 29 71 132
f 29 227 184
f 29 161 227
f 132 161 29
f 94 182 4
f 4 79 94
f 94 79 48
f 17 109 143
f 143 48 17
f 143 109 182
f 182 94 143
f 143 94 48
f 8 161 44
f 80 233 222
f 144 104 91
f 104 107 91
f 153 128 1
f 1 243 153
f 128 243 1
f 168 120 107
f 235 128 153
f 46 172 88
f 61 172 46
f 46 57 61
f 26 173 113
f 113 98 26
f 26 98 139
f 26 139 14
f 26 233 173
f 14 222 26
f 222 233 26
f 137 98 113
f 218 98 137
f 113 250 137
f 137 250 97
f 97 218 137
f 221 218 185
f 221 98 218
f 185 139 221
f 139 98 221
f 185 218 93
f 218 238 93
f 93 37 185
f 93 238 37
f 53 238 218
f 53 218 97
f 62 238 53
f 53 165 62
f 97 84 53
f 84 237 53
f 53 237 204
f 204 165 53
f 100 115 106
f 96 177 187
f 247 228 16
f 16 228 117
f 16 145 247
f 16 117 145
f 24 246 240
f 246 157 240
f 240 45 24
f 240 85 45
f 39 196 140
f 140 193 39
f 39 193 219
f 66 193 159
f 50 73 66
f 66 81 50
f 219 193 146
f 146 66 73
f 193 66 146
f 162 192 30
f 95 192 162
f 162 54 160
f 48 79 210
f 210 6 175
f 175 48 210
f 79 44 210
f 4 121 236
f 236 79 4
f 236 121 21
f 21 197 236
f 197 54 236
f 213 239 145
f 145 189 213
f 213 189 81
f 81 61 213
f 61 57 213
f 211 239 213
f 30 192 13
f 246 30 13
f 13 254 246
f 72 203 125
f 125 203 255
f 255 186 125
f 255 203 18
f 160 197 18
f 18 197 255
f 3 203 2
f 3 2 123
f 123 254 3
f 254 13 3
f 3 13 192
f 140 65 108
f 108 200 140
f 65 200 108
f 65 196 112
f 169 58 2
f 12 226 142
f 19 226 65
f 65 112 19
f 135 186 86
f 87 186 124
f 72 125 87
f 87 125 186
f 32 67 6
f 6 210 32
f 32 210 44
f 32 44 161
f 32 161 209
f 209 67 32
f 114 44 79
f 249 202 114
f 8 44 114
f 229 133 33
f 33 89 229
f 220 133 229
f 229 51 220
f 184 207 148
f 148 89 184
f 207 220 148
f 220 51 148
f 148 229 89
f 51 229 148
f 38 80 222
f 15 233 234
f 234 136 15
f 215 91 107
f 215 107 150
f 144 91 130
f 120 168 77
f 187 128 77
f 77 168 187
f 241 215 147
f 120 208 147
f 150 120 147
f 147 215 150
f 88 100 78
f 100 106 78
f 78 224 88
f 122 127 177
f 177 96 122
f 122 96 127
f 252 115 127
f 127 96 252
f 199 96 187
f 187 168 199
f 199 168 107
f 199 252 96
f 231 5 199
f 22 231 199
f 199 216 22
f 145 216 199
f 199 107 145
f 155 85 25
f 85 240 25
f 152 202 249
f 249 236 152
f 141 30 246
f 246 9 141
f 141 162 30
f 54 162 141
f 141 9 202
f 244 9 246
f 202 9 244
f 244 114 202
f 246 8 244
f 8 114 244
f 103 213 57
f 57 46 103
f 103 46 88
f 151 203 95
f 151 18 203
f 160 18 151
f 151 162 160
f 95 162 151
f 2 203 129
f 129 116 2
f 70 112 196
f 126 112 70
f 70 73 50
f 50 126 70
f 86 200 49
f 142 58 41
f 41 12 142
f 58 169 41
f 124 186 28
f 186 135 28
f 2 116 28
f 28 169 2
f 28 135 52
f 52 41 28
f 28 41 169
f 86 52 90
f 90 135 86
f 52 135 90
f 101 87 124
f 101 129 203
f 101 203 72
f 72 87 101
f 116 129 101
f 124 28 101
f 101 28 116
f 249 114 158
f 158 114 79
f 158 236 249
f 79 236 158
f 80 38 10
f 180 235 153
f 153 171 180
f 59 23 31
f 241 147 188
f 110 147 208
f 128 235 110
f 235 147 110
f 34 78 106
f 170 199 5
f 252 199 170
f 163 236 54
f 163 152 236
f 54 141 163
f 163 141 202
f 211 213 138
f 213 103 138
f 86 49 7
f 40 49 200
f 40 200 65
f 226 12 92
f 12 7 92
f 92 7 49
f 65 226 92
f 55 10 38
f 55 190 191
f 191 10 55
f 75 10 191
f 205 171 153
f 60 153 59
f 59 31 60
f 60 31 153
f 47 188 147
f 5 34 111
f 111 34 106
f 64 41 52
f 64 52 86
f 86 7 64
f 191 15 242
f 242 75 191
f 15 136 242
f 136 234 242
f 153 31 212
f 212 205 153
f 144 130 68
f 171 205 35
f 35 180 171
f 35 47 180
f 188 47 35
f 181 170 5
f 5 111 181
f 27 31 23
f 68 35 174
f 144 68 174
f 134 212 31
f 31 27 134
f 195 35 205
f 195 174 35
f 205 212 195
f 159 42 66
f 66 176 81
f 42 176 66
f 95 203 3
f 3 192 95
f 19 112 126
f 126 226 19
f 25 240 157
f 25 157 155
f 70 39 219
f 196 39 70
f 70 146 73
f 219 146 70
f 110 208 120
f 110 77 128
f 120 77 110
f 22 224 34
f 34 231 22
f 224 78 34
f 34 5 231
f 202 152 163
f 138 103 88
f 88 211 138
f 49 40 92
f 92 40 65
f 14 190 55
f 55 222 14
f 55 38 222
f 235 180 47
f 47 147 235
f 64 7 12
f 12 41 64
f 242 234 233
f 233 80 242
f 80 10 242
f 10 75 242
f 35 215 241
f 241 188 35
f 91 215 35
f 35 130 91
f 35 68 130
f 115 252 181
f 181 106 115
f 252 170 181
f 181 111 106
f 195 27 23
f 195 23 144
f 144 174 195
f 212 134 195
f 195 134 27

