# https://github.com/mikedh/trimesh
v 0.02667733 -0.02735646 0.00296147
v 0.02596006 -0.02516888 0.00024916
v 0.02972449 -0.02663982 0.00431628
v 0.03571919 -0.02697745 0.00173946
v 0.04627582 -0.02610354 0.00003084
v 0.02610870 -0.02518675 0.00016645
v 0.02700786 -0.02551215 0.00790375
v 0.03662049 -0.02658690 0.00243326
v 0.02526848 -0.02686459 0.00459822
v 0.02884298 -0.02805476 0.00045883
v 0.04233776 -0.02511899 0.00397114
v 0.04687580 -0.02595783 0.00016860
v 0.02601186 -0.02822783 0.00039412
v 0.02565544 -0.02756048 0.00257561
v 0.02730522 -0.02779577 0.00154975
v 0.02514904 -0.02714993 0.00385396
v 0.02916436 -0.02597747 0.00625190
v 0.03485427 -0.02740339 0.00077956
v 0.04649213 -0.02522243 0.00203445
v 0.03606124 -0.02687387 0.00191309
v 0.03056786 -0.02702078 0.00301399
v 0.03034505 -0.02557741 0.00690852
v 0.02857522 -0.02553669 0.00748550
v 0.02955329 -0.02696041 0.00344227
v 0.04419974 -0.02642571 0.00000888
v 0.04697766 -0.02583427 0.00041767
v 0.02981448 -0.02727823 0.00247614
v 0.03226925 -0.02672347 0.00339061
v 0.03395914 -0.02502058 0.00713997
v 0.03728910 -0.02715367 0.00077766
v 0.03743710 -0.02708176 0.00092449
v 0.02814007 -0.02672182 0.00444249
v 0.03110704 -0.02521952 0.00757535
v 0.03837994 -0.02546805 0.00459362
v 0.02930853 -0.02509628 0.00836125
v 0.03288680 -0.02765773 0.00059020
v 0.03768262 -0.02709824 0.00079636
v 0.04037576 -0.02530346 0.00428051
v 0.02553852 -0.02757902 0.00253458
v 0.02929398 -0.02502280 0.00007054
v 0.02542878 -0.02648861 0.00557820
v 0.02539968 -0.02742596 0.00303159
v 0.03556074 -0.02749861 0.00031273
v 0.02977773 -0.02806524 0.00023811
v 0.04401863 -0.02505933 0.00345087
v 0.02653092 -0.02748681 0.00262250
v 0.02759895 -0.02817203 0.00030355
v 0.02824139 -0.02618932 0.00587074
v 0.02594570 -0.02764766 0.00225306
v 0.02986524 -0.02780862 0.00095080
v 0.03776863 -0.02507972 0.00572772
v 0.04685734 -0.02548958 0.00124608
v 0.03675214 -0.02741905 0.00018149
v 0.03206227 -0.02512884 0.00749874
v 0.04009640 -0.02697412 0.00021048
f 35 2 7
f 16 2 13
f 41 7 2
f 19 45 26
f 40 2 35
f 45 19 40
f 40 5 25
f 44 40 25
f 16 13 42
f 9 2 16
f 9 41 2
f 35 7 23
f 7 17 23
f 7 41 48
f 48 17 7
f 41 9 48
f 48 9 16
f 52 19 26
f 26 40 52
f 52 40 19
f 6 13 2
f 2 40 6
f 40 44 6
f 29 40 35
f 45 40 29
f 25 5 55
f 39 42 13
f 3 28 17
f 53 44 25
f 25 55 53
f 13 6 47
f 47 6 44
f 44 10 47
f 49 13 47
f 12 40 26
f 5 40 12
f 26 45 12
f 12 55 5
f 38 55 12
f 11 12 45
f 38 12 11
f 51 29 34
f 34 38 51
f 38 11 51
f 45 29 51
f 51 11 45
f 42 39 14
f 16 42 32
f 32 48 16
f 17 48 32
f 32 3 17
f 44 36 50
f 28 3 18
f 49 47 15
f 15 47 10
f 15 14 49
f 42 14 15
f 15 46 42
f 44 46 15
f 15 10 44
f 35 33 54
f 54 29 35
f 33 20 54
f 34 29 54
f 17 20 22
f 22 20 33
f 17 28 4
f 4 20 17
f 28 18 4
f 30 20 4
f 31 20 30
f 3 32 24
f 42 46 1
f 1 32 42
f 3 24 27
f 34 54 8
f 8 54 20
f 8 31 34
f 20 31 8
f 43 53 30
f 30 4 43
f 43 4 18
f 43 18 36
f 44 53 43
f 43 36 44
f 37 38 34
f 34 31 37
f 37 55 38
f 37 31 30
f 30 53 37
f 37 53 55
f 3 27 21
f 21 18 3
f 36 18 21
f 21 27 50
f 21 50 36
f 14 39 13
f 14 13 49
f 22 23 17
f 35 23 22
f 22 33 35
f 27 46 44
f 27 1 46
f 44 50 27
f 27 24 32
f 32 1 27

