# https://github.com/mikedh/trimesh
v 0.10612067 0.00381223 -0.03539624
v 0.10017197 0.02406360 -0.03539646
v 0.12449419 0.00150419 -0.03539538
v 0.12493638 0.01642124 -0.03539531
v 0.12417772 0.02459505 -0.02851223
v 0.11989792 0.00006073 -0.02851223
v 0.11035377 0.00014936 -0.03539605
v 0.10351121 0.02491609 -0.03539630
v 0.10197163 0.00065796 -0.02851222
v 0.12307133 0.00129983 -0.03539545
v 0.12489906 0.01844176 -0.02851223
v 0.12418508 0.00169165 -0.02851223
v 0.12499442 0.00742738 -0.02851223
v 0.10335781 0.02397754 -0.02851221
v 0.10735960 0.00011873 -0.02851223
v 0.11134029 0.00002582 -0.02851222
v 0.12484100 0.02312957 -0.02851223
v 0.10820054 0.00002721 -0.03539614
v 0.12423635 0.00017539 -0.03539540
v 0.10020218 0.02148015 -0.02851221
v 0.10026225 0.02416616 -0.02852681
v 0.10918947 0.02497997 -0.03539603
v 0.10058302 0.00027120 -0.02852678
v 0.11663658 0.02479769 -0.03539569
v 0.10004909 0.01090849 -0.03539650
v 0.12192465 0.02491834 -0.03539544
v 0.10001903 0.01705163 -0.03539648
v 0.10064096 0.00020236 -0.03539650
v 0.11152459 0.02492329 -0.02852620
v 0.10005319 0.02064048 -0.03539647
v 0.12203551 0.00003361 -0.02852574
v 0.10003684 0.02248799 -0.02852681
v 0.12479648 0.02287402 -0.02851223
v 0.11920669 0.00011126 -0.03539563
v 0.12466855 0.01201299 -0.02851223
v 0.11940864 0.02424098 -0.02851222
v 0.10318173 0.02328117 -0.02851221
v 0.10014202 0.00043791 -0.03539653
v 0.10031470 0.00275125 -0.02851221
v 0.12291598 0.02432216 -0.03539539
v 0.10771635 0.02418739 -0.03539611
v 0.12396306 0.00100040 -0.02851223
v 0.11801120 0.02488180 -0.02851222
v 0.10015019 0.00717884 -0.02851221
v 0.12464576 0.00144052 -0.02852570
v 0.10943885 0.00005739 -0.02851222
v 0.10150030 0.02482857 -0.02851220
v 0.10018450 0.02398333 -0.03539646
v 0.12475278 0.01222830 -0.02851223
v 0.10802839 0.02496570 -0.03539608
v 0.12466898 0.00865722 -0.02851223
v 0.12175863 0.02452270 -0.03539545
v 0.11825147 0.00033123 -0.02851222
v 0.10349975 0.02451534 -0.02851221
v 0.10058585 0.02478471 -0.02852679
v 0.12426217 0.01400263 -0.03539537
v 0.12417436 0.02485244 -0.02852574
v 0.10249260 0.02324004 -0.02851221
v 0.12172524 0.02447524 -0.02851223
v 0.10004602 0.01825845 -0.02851221
v 0.11953605 0.02363531 -0.03539556
v 0.12471370 0.00743774 -0.03539535
v 0.10092868 0.02494660 -0.02851220
v 0.10012217 0.00877698 -0.02851221
v 0.12336885 0.00031569 -0.02851223
v 0.12472602 0.02168688 -0.03539531
f 27 38 25
f 25 60 27
f 27 60 32
f 20 32 60
f 45 3 13
f 19 3 45
f 62 3 19
f 19 56 62
f 62 4 13
f 13 3 62
f 8 2 63
f 27 32 30
f 32 2 30
f 21 2 32
f 21 20 63
f 32 20 21
f 63 43 29
f 13 4 11
f 4 17 11
f 66 17 4
f 4 62 66
f 66 62 56
f 26 29 57
f 57 29 43
f 17 66 57
f 38 23 39
f 39 44 38
f 63 20 64
f 64 44 63
f 64 20 60
f 38 44 64
f 64 25 38
f 60 25 64
f 28 23 38
f 38 7 28
f 28 7 18
f 12 45 13
f 10 56 19
f 19 7 10
f 10 7 56
f 34 7 19
f 18 7 34
f 19 31 34
f 34 31 18
f 22 8 63
f 63 29 22
f 22 29 26
f 24 8 26
f 48 30 2
f 48 38 27
f 27 30 48
f 2 8 48
f 8 24 48
f 63 2 55
f 55 21 63
f 2 21 55
f 56 61 40
f 40 66 56
f 26 57 40
f 40 57 66
f 47 43 63
f 47 54 43
f 63 44 47
f 43 54 36
f 5 57 43
f 17 57 5
f 9 39 23
f 23 28 46
f 46 28 18
f 19 45 65
f 65 31 19
f 65 6 31
f 53 6 65
f 26 8 50
f 50 22 26
f 8 22 50
f 41 61 56
f 56 48 41
f 41 48 24
f 1 7 38
f 56 7 1
f 1 48 56
f 38 48 1
f 52 40 61
f 61 41 52
f 52 41 24
f 52 24 26
f 26 40 52
f 54 47 14
f 14 12 54
f 54 12 51
f 51 36 54
f 51 12 13
f 43 36 59
f 59 5 43
f 53 39 16
f 39 9 16
f 16 6 53
f 9 46 16
f 31 6 16
f 18 31 16
f 16 46 18
f 15 9 23
f 23 46 15
f 15 46 9
f 45 12 42
f 42 65 45
f 53 65 42
f 58 47 44
f 44 39 58
f 49 51 13
f 12 14 37
f 37 42 12
f 53 42 37
f 37 39 53
f 37 58 39
f 37 14 47
f 47 58 37
f 33 59 36
f 17 5 33
f 5 59 33
f 49 33 35
f 51 49 35
f 36 51 35
f 35 33 36
f 33 11 17
f 13 11 33
f 33 49 13

