# https://github.com/mikedh/trimesh
v 0.03851146 0.01702570 0.01037172
v 0.04551469 0.01686347 0.00987255
v 0.04058776 0.01768296 0.00543704
v 0.03588240 0.01784274 0.00585444
v 0.03456551 0.01823255 0.00230024
v 0.03659781 0.00371647 0.00412431
v 0.03801501 0.01806579 0.00174428
v 0.02793785 0.00365346 0.00492601
v 0.03570895 0.01822450 0.00126043
v 0.03745011 0.00361310 0.00441479
v 0.04132185 0.01506131 0.01747584
v 0.03551618 0.01693354 0.01066716
v 0.04398044 0.01603750 0.01446402
v 0.02519626 0.00438968 0.00557120
v 0.04870716 0.01693197 0.00237261
v 0.04824112 0.01493296 0.01816191
v 0.04272376 0.01739803 0.00694347
v 0.04856607 0.01516776 0.01730540
v 0.04207638 0.01708897 0.00956950
v 0.03915765 0.00378079 0.00402263
v 0.03880327 0.01781024 0.00510001
v 0.04819536 0.01464328 0.01913209
v 0.03099643 0.00361143 0.00476911
v 0.03955190 0.00371711 0.00412290
v 0.04940600 0.01674511 0.00616472
v 0.02837433 0.01849483 0.00151910
v 0.03707672 0.01699222 0.01046786
v 0.03775479 0.01811597 0.00060739
v 0.04935656 0.00360486 0.00449525
v 0.04717291 0.01637112 0.01218808
v 0.04244145 0.01613941 0.01409844
v 0.04595065 0.01638483 0.01248294
v 0.04797121 0.01702243 0.00422872
v 0.04729084 0.01712510 0.00032595
v 0.03731609 0.01719769 0.00958092
v 0.04527246 0.00385534 0.00392689
v 0.04295326 0.01750576 0.00558254
v 0.04978030 0.01467203 0.01882259
v 0.04840988 0.00386927 0.00391292
v 0.04966771 0.01535877 0.01614859
v 0.03312697 0.01835671 0.00130245
v 0.04949311 0.01489314 0.01810587
v 0.04972375 0.01644404 0.00996398
v 0.04484161 0.01584037 0.01516954
v 0.02766244 0.00403191 0.00377410
v 0.03055952 0.01787393 0.00622749
v 0.03509598 0.01822720 0.00198658
v 0.04987951 0.01634905 0.01049067
v 0.03882701 0.01652239 0.01252382
v 0.04403257 0.01485850 0.01840600
v 0.03413466 0.01794188 0.00551850
v 0.03518926 0.01811917 0.00356226
v 0.04341236 0.01761319 0.00109543
v 0.03657861 0.01806201 0.00340938
v 0.03093101 0.01743004 0.00835506
v 0.04481738 0.01745875 0.00077638
v 0.04713175 0.00361429 0.00477956
v 0.04938641 0.01678622 0.00023381
v 0.03888567 0.01722869 0.00927944
v 0.04584784 0.01731549 0.00027380
v 0.02675410 0.00360389 0.00468371
v 0.03502839 0.01740295 0.00864457
v 0.03754066 0.01807774 0.00217309
v 0.02556039 0.00365287 0.00492384
v 0.03634116 0.01676052 0.01143013
v 0.03526941 0.00383136 0.00395100
v 0.04213322 0.00364354 0.00430113
v 0.03120401 0.01788121 0.00615942
v 0.03573070 0.01685444 0.01101072
v 0.02508019 0.01840824 0.00269438
v 0.04858113 0.01617211 0.01278279
v 0.04851156 0.01694225 0.00497546
v 0.02724374 0.00367486 0.00421367
v 0.03867730 0.01804366 0.00120363
v 0.04638407 0.00361337 0.00477613
v 0.04401288 0.01683606 0.01058738
v 0.04627171 0.01671793 0.01049732
v 0.04933304 0.00420990 0.00367579
v 0.04336777 0.01705925 0.00935821
v 0.04863490 0.01625152 0.01224327
v 0.04813381 0.01612926 0.01319993
v 0.03519837 0.01808859 0.00392032
v 0.03062112 0.00363521 0.00433238
v 0.04338217 0.01702153 0.00963058
v 0.03879135 0.00407947 0.00374066
v 0.04946032 0.01650394 0.00963301
v 0.04986780 0.01673577 0.00219427
v 0.02901895 0.01840376 0.00239507
v 0.04833909 0.01458907 0.01928806
v 0.03834235 0.01775525 0.00587890
v 0.03874731 0.01797604 0.00283390
v 0.03894025 0.01688327 0.01099153
v 0.04432904 0.01597617 0.01467350
v 0.04295430 0.00398414 0.00380735
v 0.04711900 0.01714633 0.00029057
v 0.04959483 0.01494557 0.01790632
v 0.02941933 0.01797544 0.00569090
v 0.04741145 0.01536987 0.01668777
v 0.04963268 0.01403142 0.02084875
v 0.03139026 0.01841692 0.00135411
v 0.03814006 0.01798901 0.00336253
v 0.03720894 0.01762795 0.00714053
v 0.02522087 0.01636113 0.01100240
v 0.04305128 0.01744495 0.00616709
v 0.04273830 0.01726817 0.00804184
v 0.04898019 0.00391504 0.00386713
v 0.03590474 0.01802578 0.00425076
v 0.04545666 0.01684664 0.01002225
v 0.04357947 0.00394401 0.00383824
v 0.02506744 0.01846872 0.00217996
v 0.02849419 0.01829019 0.00361901
v 0.03890486 0.01698458 0.01055941
v 0.04630987 0.01726579 0.00051834
v 0.04563988 0.01683393 0.01003516
v 0.04474988 0.01599182 0.01454281
v 0.04405961 0.00361023 0.00443400
v 0.04002797 0.01526128 0.01672607
v 0.03256487 0.00402491 0.00377894
v 0.03547600 0.01747550 0.00820848
v 0.03936176 0.01702363 0.01033688
v 0.03466320 0.01734457 0.00888289
v 0.04618975 0.00360577 0.00448490
v 0.04910859 0.00360448 0.00469015
v 0.04686975 0.01437439 0.01992888
v 0.02519478 0.01821413 0.00424063
v 0.03894663 0.01538628 0.01619287
v 0.04794605 0.01652852 0.01082181
v 0.03890053 0.01573760 0.01515662
v 0.04830223 0.01424972 0.02030952
v 0.04809694 0.01702066 0.00069663
v 0.03505706 0.01825823 0.00140802
v 0.04597833 0.01620965 0.01341041
v 0.02500063 0.01707549 0.00897561
v 0.04982868 0.01672707 0.00055424
v 0.03850572 0.01527275 0.01639959
v 0.02877573 0.01739323 0.00835025
v 0.04742270 0.01650695 0.01130183
v 0.04401904 0.01725767 0.00727256
v 0.03436733 0.00370181 0.00415577
v 0.02955737 0.01744547 0.00821823
v 0.03791150 0.00362343 0.00437625
v 0.04117508 0.01763502 0.00555320
v 0.04844911 0.01514125 0.01741730
v 0.02584101 0.00388814 0.00389435
v 0.04928770 0.01684247 0.00368954
v 0.04315025 0.01737260 0.00687668
v 0.02533608 0.01776574 0.00653476
v 0.04289656 0.01603556 0.01449115
v 0.03145759 0.00427437 0.00364998
v 0.04854376 0.00363287 0.00484889
v 0.03913590 0.00361290 0.00441551
v 0.03861099 0.01762337 0.00680965
v 0.03212206 0.01686353 0.01058982
v 0.03663969 0.01804869 0.00354531
v 0.03435518 0.01774246 0.00678245
v 0.04801743 0.01551184 0.01608080
v 0.03889363 0.01792543 0.00366654
v 0.04996940 0.00426744 0.00365159
v 0.04859401 0.00371542 0.00412640
v 0.02791566 0.01849278 0.00159734
v 0.04001149 0.00376246 0.00404881
v 0.03585077 0.01774070 0.00663903
v 0.04112270 0.01722388 0.00893237
v 0.03734453 0.01806358 0.00281438
v 0.04389050 0.01550777 0.01637662
v 0.03471030 0.01778284 0.00652208
v 0.04954134 0.00368007 0.00498752
v 0.04945154 0.01681656 0.00416024
v 0.04854170 0.01695583 0.00225036
v 0.04088638 0.01184623 0.02486465
v 0.04792931 0.01451434 0.01953188
v 0.02536777 0.01854143 0.00101799
v 0.04051346 0.01722299 0.00906660
v 0.03422621 0.01799256 0.00506757
v 0.04952271 0.01680088 0.00293057
v 0.04985419 0.01218978 0.02460586
v 0.04400421 0.01577865 0.01542549
v 0.04119141 0.01782296 0.00132002
v 0.04974566 0.01580248 0.01422453
v 0.02519810 0.01547467 0.01293983
v 0.03204948 0.00427287 0.00365038
v 0.03390883 0.01811581 0.00410680
v 0.02710714 0.00380560 0.00398737
v 0.04999682 0.00444793 0.00360782
v 0.04943016 0.01516249 0.01706578
v 0.03693885 0.01667229 0.01180081
v 0.04648394 0.01724324 0.00094562
v 0.04242391 0.00401862 0.00378321
v 0.04801571 0.01696850 0.00582711
v 0.02598923 0.00378965 0.00401015
v 0.02575974 0.01826508 0.00393640
v 0.02538411 0.01592535 0.01205424
v 0.02954986 0.01845563 0.00168339
v 0.04450175 0.01738359 0.00521484
v 0.04716000 0.01424807 0.02024058
v 0.03728609 0.01813962 0.00008350
v 0.04171217 0.01670181 0.01170913
v 0.04025260 0.01791127 0.00126605
v 0.04847770 0.01480813 0.01857200
v 0.04194043 0.01776576 0.00093752
v 0.03492670 0.01827733 0.00111045
v 0.04371875 0.01698752 0.00974985
v 0.03312526 0.01820713 0.00343824
v 0.02511173 0.01809099 0.00488370
v 0.04878962 0.01689972 0.00050023
v 0.03656261 0.01781049 0.00592372
v 0.04448476 0.01654906 0.01201765
v 0.03594860 0.01698167 0.01047633
v 0.02995785 0.01824323 0.00387094
v 0.03530238 0.01823567 0.00160456
v 0.03706666 0.01754298 0.00768836
v 0.03009005 0.01070368 0.02495959
v 0.02531380 0.01754901 0.00733707
v 0.03977780 0.01637381 0.01310934
v 0.03930799 0.00360992 0.00475244
v 0.04228607 0.01773470 0.00086487
v 0.03895558 0.01744322 0.00807694
v 0.03910469 0.01584325 0.01487325
v 0.04935413 0.01485653 0.01825661
v 0.04824450 0.01405172 0.02079387
v 0.04999946 0.01255716 0.02383630
v 0.04840741 0.01587780 0.01444037
v 0.04830682 0.01573113 0.01510513
v 0.02547293 0.00404780 0.00376301
v 0.03481011 0.01688765 0.01082622
v 0.04728911 0.01607127 0.01376042
v 0.03393622 0.01834360 0.00058035
v 0.02517903 0.00433736 0.00363319
v 0.03525153 0.01747165 0.00824854
v 0.03378016 0.01835801 0.00021122
v 0.03937779 0.01771834 0.00578128
v 0.04736486 0.01708326 0.00527422
v 0.03057868 0.00366311 0.00423881
v 0.03293482 0.00360979 0.00475100
v 0.04968800 0.01520721 0.01677581
v 0.02843380 0.00359946 0.00455721
v 0.02530047 0.01784849 0.00615841
v 0.04841908 0.01634383 0.01178221
v 0.03863278 0.01737910 0.00847439
v 0.04611591 0.01720649 0.00559385
v 0.04963649 0.01511408 0.01718796
v 0.04955686 0.01596248 0.01345453
v 0.04616140 0.01679740 0.00999671
v 0.04564615 0.01633374 0.01284623
v 0.02954842 0.01816828 0.00442573
v 0.03368084 0.01829864 0.00187650
v 0.03467306 0.01825265 0.00191238
v 0.04329697 0.01760893 0.00011242
v 0.04645094 0.01539223 0.01665617
v 0.03869448 0.01752085 0.00756596
v 0.03127438 0.01843766 0.00055094
v 0.04327619 0.01546565 0.01647359
v 0.03235732 0.00378585 0.00401550
v 0.03498491 0.01786912 0.00588761
v 0.03717940 0.01814587 0.00093198
v 0.04460946 0.01476150 0.01872504
v 0.04735652 0.01551537 0.01616553
v 0.04592344 0.01594263 0.01457491
v 0.02817547 0.00366310 0.00423886
v 0.04818180 0.01701164 0.00126479
v 0.04994927 0.01626375 0.01102128
v 0.02863770 0.01738387 0.00837120
v 0.04944992 0.01681299 0.00474154
v 0.03763280 0.00423189 0.00366569
v 0.03860676 0.00364536 0.00489563
v 0.03801184 0.01786052 0.00497346
v 0.04475109 0.01733992 0.00564016
v 0.03024184 0.01825817 0.00367154
v 0.03145562 0.01822166 0.00374685
v 0.03933088 0.01700176 0.01046096
v 0.03937389 0.01593891 0.01457884
v 0.04353548 0.01522168 0.01728720
v 0.04394848 0.01642127 0.01282181
v 0.02589072 0.01647720 0.01081815
v 0.03193582 0.01842031 0.00023679
v 0.04197432 0.01697587 0.01020732
v 0.04647323 0.01718366 0.00538324
v 0.04547815 0.01737649 0.00105512
v 0.04451351 0.01544025 0.01658218
v 0.04546128 0.01729465 0.00529350
v 0.04771415 0.01442043 0.01982385
v 0.03729884 0.01812792 0.00126623
v 0.03808017 0.01808612 0.00039808
v 0.04460650 0.01653132 0.01208045
v 0.04779407 0.01706691 0.00110808
v 0.04995288 0.01443335 0.01953012
v 0.04919977 0.01467543 0.01889973
v 0.03718484 0.01815223 0.00045151
v 0.03945721 0.01774245 0.00547582
v 0.03025357 0.00419386 0.00368352
v 0.03448172 0.01697407 0.01046103
v 0.04290419 0.01598089 0.01467983
v 0.04686893 0.00359823 0.00461873
v 0.04912407 0.01682414 0.00011865
v 0.04283155 0.01496195 0.01796516
v 0.03610636 0.01781072 0.00604095
v 0.04973533 0.01665532 0.00678099
v 0.04811245 0.01682521 0.00753344
v 0.03998364 0.01691702 0.01082603
v 0.02506870 0.00463566 0.00359864
v 0.03264302 0.01789605 0.00601231
v 0.04805465 0.01588072 0.01451534
v 0.04254179 0.01743676 0.00666780
v 0.03762178 0.01812325 0.00048312
v 0.03062680 0.00365624 0.00425390
v 0.03990142 0.00426882 0.00365136
v 0.04505612 0.00414596 0.00370566
v 0.02581341 0.00360071 0.00454300
v 0.04626962 0.01615032 0.01363090
v 0.04798200 0.01702451 0.00367960
v 0.03453342 0.01826077 0.00189227
v 0.03461400 0.01820198 0.00273189
v 0.04387630 0.01625013 0.01356735
v 0.03423020 0.01722898 0.00936298
v 0.04332406 0.01650848 0.01250080
v 0.02932568 0.01848836 0.00118687
v 0.03728558 0.01533486 0.01600228
v 0.03772023 0.00363964 0.00431575
v 0.02501891 0.01018770 0.02298072
v 0.03555561 0.01735182 0.00888097
v 0.03414863 0.01739556 0.00864495
v 0.02736262 0.01852414 0.00000869
v 0.04400966 0.01715200 0.00840863
v 0.04679325 0.01672374 0.01015114
v 0.04146229 0.01183846 0.02496404
v 0.03605997 0.01770559 0.00684732
v 0.03454797 0.00419551 0.00368270
v 0.04091573 0.00367112 0.00422150
v 0.02523014 0.00987101 0.02435714
v 0.03223582 0.01840171 0.00077911
v 0.04883592 0.00388881 0.00389337
v 0.04995447 0.01591901 0.01339890
v 0.03033190 0.00423922 0.00366237
v 0.03697432 0.01757215 0.00752999
v 0.03546820 0.01826019 0.00002841
v 0.03903208 0.01707571 0.01009975
v 0.04565502 0.01569307 0.01564444
v 0.04797841 0.01473757 0.01883713
v 0.04530826 0.01188068 0.02497207
v 0.04894491 0.01683381 0.00586739
v 0.03382449 0.01820670 0.00320285
v 0.03782875 0.01780149 0.00564852
v 0.04913249 0.01479915 0.01849346
v 0.02920510 0.00360788 0.00472927
v 0.02837225 0.00409307 0.00373127
v 0.03871113 0.01798390 0.00270541
v 0.04170290 0.01514557 0.01731718
v 0.04352723 0.01722774 0.00806285
v 0.04053957 0.01771342 0.00509462
v 0.04214178 0.00395876 0.00382513
v 0.04987517 0.01416190 0.02040523
v 0.03346256 0.00391818 0.00386421
v 0.03895999 0.01689306 0.01094946
v 0.04848389 0.01462731 0.01915218
v 0.03925185 0.01608490 0.01406762
v 0.03742552 0.01536371 0.01596125
v 0.02506877 0.01853129 0.00145930
v 0.03929514 0.01586964 0.01480619
v 0.04222794 0.00360077 0.00454213
v 0.04823091 0.01579626 0.01484590
v 0.04701376 0.01630629 0.01258684
v 0.04056739 0.00365700 0.00493816
v 0.03725831 0.01538874 0.01586549
v 0.03802477 0.01808370 0.00011373
v 0.04818191 0.01700724 0.00205632
v 0.04320274 0.00409896 0.00372761
v 0.04789195 0.01593592 0.01430376
v 0.04983656 0.01328103 0.02245031
v 0.02581207 0.01853839 0.00077465
v 0.04007734 0.01793916 0.00091194
v 0.04908425 0.01684396 0.00037400
v 0.02839001 0.01788960 0.00616067
v 0.02919624 0.01844488 0.00194552
v 0.04877351 0.01539635 0.01633805
v 0.03876213 0.01791682 0.00385628
v 0.03880984 0.01771705 0.00604117
v 0.04786479 0.01665433 0.00997690
v 0.03850371 0.01805821 0.00060292
v 0.04932040 0.01571078 0.01480395
v 0.03926221 0.01636852 0.01309169
v 0.04146127 0.01514653 0.01728386
v 0.04867568 0.01194436 0.02496503
v 0.03627820 0.01151553 0.02490402
v 0.03774010 0.01799108 0.00358171
v 0.04384405 0.01609092 0.01425558
v 0.04587035 0.00379667 0.00399986
v 0.04797714 0.01637091 0.01192448
v 0.03920429 0.01649308 0.01264906
v 0.04398401 0.01546160 0.01653326
v 0.03800081 0.01809942 0.00070610
v 0.03476193 0.01639905 0.01247947
v 0.04201928 0.01696918 0.01023738
v 0.04856422 0.01657353 0.01002560
v 0.03913516 0.01705933 0.01017444
v 0.03177014 0.01842539 0.00026899
v 0.03865901 0.01712527 0.00986650
v 0.02535540 0.01717652 0.00871713
v 0.04355266 0.01683774 0.01072593
v 0.04243923 0.01506058 0.01765198
v 0.02945338 0.01774229 0.00688262
v 0.03991763 0.01686252 0.01106038
v 0.02630379 0.00998417 0.02492517
v 0.03377414 0.01820356 0.00326725
v 0.04161922 0.01778441 0.00034575
v 0.03881826 0.01580932 0.01493230
v 0.03481497 0.01815082 0.00336495
v 0.03461780 0.01811739 0.00390969
v 0.03434614 0.01789093 0.00588585
v 0.04713741 0.00378841 0.00401164
v 0.04817928 0.01583594 0.01468588
v 0.04276932 0.01666076 0.01180891
v 0.04580419 0.01459328 0.01926358
v 0.04357439 0.01627774 0.01348360
v 0.04133457 0.00380715 0.00398496
v 0.03648419 0.01749699 0.00800009
v 0.04578860 0.01726702 0.00501530
v 0.03530951 0.01805505 0.00423637
v 0.04427741 0.01595087 0.01478828
v 0.02759635 0.01826878 0.00386407
v 0.03463230 0.00399918 0.00379692
v 0.02527347 0.00363936 0.00431695
v 0.02991578 0.00421554 0.00367342
v 0.04953022 0.00373090 0.00409374
v 0.03447046 0.01770281 0.00699861
v 0.04342407 0.01606852 0.01438229
f 319 421 329
f 329 402 180
f 133 319 180
f 180 319 329
f 329 421 64
f 64 402 329
f 212 325 383
f 212 180 402
f 212 402 382
f 176 325 382
f 221 368 176
f 176 368 325
f 300 319 133
f 221 332 286
f 133 180 103
f 308 64 421
f 382 325 339
f 339 212 382
f 325 212 339
f 295 11 383
f 383 11 135
f 421 319 14
f 14 300 421
f 319 300 14
f 228 300 322
f 421 300 228
f 357 300 133
f 11 295 381
f 167 176 382
f 382 402 167
f 325 368 220
f 99 220 368
f 129 220 99
f 317 103 383
f 356 103 317
f 383 135 317
f 317 135 356
f 192 212 383
f 383 103 192
f 180 212 192
f 192 103 180
f 10 308 421
f 116 308 10
f 383 325 170
f 256 170 325
f 383 170 256
f 133 103 274
f 274 126 133
f 103 126 274
f 363 103 356
f 363 126 103
f 421 228 224
f 300 357 172
f 252 358 272
f 399 381 295
f 11 381 117
f 117 381 126
f 117 135 11
f 126 363 117
f 356 135 117
f 117 363 356
f 150 167 402
f 402 362 150
f 379 179 222
f 242 179 332
f 81 222 71
f 351 99 368
f 351 368 221
f 221 286 351
f 286 38 351
f 402 64 8
f 8 362 402
f 64 23 8
f 64 308 61
f 61 23 64
f 83 10 421
f 151 67 116
f 116 10 151
f 281 338 272
f 325 220 195
f 133 126 128
f 128 405 133
f 126 381 128
f 381 405 128
f 218 397 133
f 133 405 218
f 218 405 381
f 272 358 218
f 253 386 20
f 322 300 369
f 300 172 369
f 110 419 111
f 110 191 419
f 110 357 133
f 261 242 332
f 261 332 221
f 221 184 261
f 166 408 301
f 250 217 376
f 347 399 272
f 381 399 347
f 272 218 347
f 347 218 381
f 50 399 295
f 50 295 383
f 383 256 50
f 50 256 272
f 272 399 50
f 158 167 423
f 176 167 158
f 221 176 158
f 158 184 221
f 236 359 293
f 293 61 236
f 236 61 308
f 24 6 423
f 423 159 24
f 179 379 40
f 379 374 40
f 129 99 89
f 156 374 223
f 223 379 222
f 223 374 379
f 96 374 18
f 18 374 156
f 23 150 265
f 265 8 23
f 265 150 362
f 362 8 265
f 23 61 344
f 272 256 412
f 412 281 272
f 391 153 397
f 397 218 391
f 391 218 358
f 421 224 144
f 161 253 20
f 66 36 386
f 66 109 36
f 125 191 70
f 191 110 70
f 70 204 125
f 133 204 70
f 70 110 133
f 376 217 105
f 105 348 376
f 377 323 243
f 202 348 84
f 87 184 134
f 87 261 184
f 277 393 86
f 86 393 43
f 43 189 86
f 25 263 340
f 340 189 43
f 277 189 232
f 155 166 301
f 316 369 172
f 322 369 316
f 291 314 55
f 65 69 291
f 237 204 133
f 133 147 237
f 372 237 147
f 204 237 372
f 125 204 372
f 358 252 271
f 271 355 358
f 355 49 186
f 380 49 355
f 388 49 31
f 272 338 389
f 75 150 23
f 29 159 423
f 423 167 29
f 293 359 29
f 29 122 116
f 116 67 29
f 67 159 29
f 23 344 234
f 423 331 106
f 106 158 423
f 331 109 106
f 350 94 106
f 106 109 350
f 306 158 333
f 228 149 333
f 333 422 228
f 184 158 294
f 294 158 306
f 294 149 228
f 294 228 322
f 423 409 39
f 39 331 423
f 39 109 331
f 36 109 39
f 39 409 386
f 386 36 39
f 179 40 235
f 235 38 286
f 96 38 235
f 235 286 332
f 332 179 235
f 99 351 287
f 287 351 38
f 338 281 22
f 129 89 22
f 222 81 367
f 81 226 367
f 156 223 360
f 360 223 222
f 16 389 338
f 141 151 10
f 124 412 256
f 124 256 325
f 325 195 124
f 124 220 129
f 124 195 220
f 129 281 124
f 281 412 124
f 366 106 94
f 290 327 366
f 366 327 307
f 45 144 224
f 386 253 414
f 414 66 386
f 84 348 79
f 348 105 79
f 376 348 231
f 240 267 377
f 377 393 240
f 240 393 277
f 138 323 377
f 377 267 138
f 348 323 138
f 280 240 277
f 267 240 280
f 280 37 267
f 127 393 377
f 387 137 77
f 387 81 71
f 76 202 398
f 76 387 77
f 263 87 168
f 297 87 263
f 297 263 25
f 261 87 297
f 25 340 297
f 297 340 43
f 298 189 277
f 277 86 298
f 298 86 189
f 72 232 189
f 72 340 263
f 189 340 72
f 301 62 424
f 424 155 301
f 424 62 229
f 217 250 102
f 326 102 162
f 217 102 326
f 326 162 408
f 408 166 326
f 335 294 322
f 335 288 196
f 230 335 322
f 397 262 213
f 213 262 147
f 133 397 213
f 213 147 133
f 140 372 147
f 140 291 55
f 65 291 225
f 225 262 397
f 291 140 225
f 397 153 225
f 225 49 65
f 225 186 49
f 355 186 225
f 153 391 225
f 358 355 225
f 225 391 358
f 62 372 400
f 400 140 55
f 372 140 400
f 46 372 62
f 165 271 252
f 165 252 272
f 272 389 165
f 92 112 49
f 92 49 388
f 388 31 92
f 35 112 270
f 143 18 257
f 257 18 156
f 215 75 23
f 23 234 215
f 150 75 57
f 293 29 123
f 150 57 123
f 167 150 123
f 123 29 167
f 123 57 75
f 75 215 123
f 158 106 78
f 78 366 307
f 106 366 78
f 307 327 78
f 306 333 181
f 181 333 149
f 181 294 306
f 149 294 181
f 134 184 58
f 184 294 58
f 134 58 371
f 305 233 328
f 67 305 328
f 328 159 67
f 185 40 374
f 185 374 96
f 171 281 129
f 129 22 171
f 171 22 281
f 354 22 89
f 354 89 99
f 99 287 354
f 270 392 120
f 19 392 398
f 84 163 19
f 19 163 217
f 217 173 19
f 19 202 84
f 398 202 19
f 222 367 302
f 42 38 96
f 143 16 199
f 22 354 199
f 338 22 199
f 199 16 338
f 199 354 287
f 199 287 38
f 38 343 199
f 62 121 320
f 320 35 62
f 112 35 320
f 352 45 350
f 144 45 352
f 350 109 352
f 109 66 352
f 352 66 144
f 350 45 420
f 420 45 118
f 421 144 190
f 190 73 421
f 6 73 190
f 423 6 190
f 190 161 423
f 253 161 190
f 259 305 421
f 421 73 259
f 259 233 305
f 139 73 6
f 142 37 349
f 17 231 348
f 416 280 277
f 37 280 194
f 77 137 324
f 324 243 77
f 377 243 324
f 30 76 398
f 387 76 30
f 30 361 81
f 81 387 30
f 71 242 80
f 80 387 71
f 77 243 114
f 114 76 77
f 145 168 175
f 175 168 87
f 48 297 43
f 261 297 48
f 242 261 48
f 43 80 48
f 48 80 242
f 152 250 376
f 26 172 357
f 26 316 172
f 131 201 41
f 157 349 37
f 41 230 330
f 41 201 227
f 227 230 41
f 147 262 136
f 136 140 147
f 262 225 136
f 136 225 140
f 321 400 55
f 62 400 321
f 321 121 62
f 314 121 321
f 55 314 321
f 301 245 97
f 419 191 97
f 372 46 97
f 97 245 419
f 97 191 125
f 125 372 97
f 148 271 292
f 292 165 148
f 271 165 292
f 148 165 177
f 112 92 353
f 353 92 31
f 396 35 336
f 336 35 270
f 148 31 214
f 214 31 49
f 49 380 214
f 112 353 425
f 425 353 31
f 425 31 148
f 148 177 425
f 425 177 418
f 411 315 398
f 264 333 158
f 158 78 264
f 264 78 327
f 288 255 28
f 241 235 40
f 40 185 241
f 96 235 241
f 241 185 96
f 398 315 273
f 132 367 226
f 276 120 392
f 392 19 276
f 410 360 222
f 222 302 410
f 219 343 38
f 38 42 219
f 1 27 112
f 112 320 1
f 1 208 27
f 291 208 1
f 211 239 217
f 188 366 94
f 188 85 366
f 118 85 188
f 366 85 345
f 290 366 345
f 422 290 345
f 345 224 228
f 228 422 345
f 144 66 183
f 183 190 144
f 66 414 183
f 3 17 142
f 231 17 3
f 142 349 3
f 349 157 3
f 146 17 348
f 348 138 146
f 146 138 267
f 303 37 142
f 142 17 303
f 289 21 231
f 231 3 289
f 277 232 56
f 32 30 398
f 361 30 32
f 387 80 238
f 238 80 43
f 43 393 238
f 127 387 238
f 393 127 238
f 2 243 323
f 2 114 243
f 202 76 108
f 76 114 108
f 316 26 193
f 193 26 373
f 373 403 193
f 373 26 160
f 357 110 160
f 160 26 357
f 111 419 209
f 419 245 209
f 301 408 209
f 209 245 301
f 373 269 203
f 203 403 373
f 269 407 203
f 203 407 403
f 91 157 37
f 346 164 91
f 322 316 395
f 301 97 68
f 68 97 46
f 68 62 301
f 68 46 62
f 44 257 418
f 418 177 44
f 270 120 394
f 394 336 270
f 396 336 59
f 217 239 59
f 59 336 173
f 59 173 217
f 12 291 69
f 12 208 291
f 270 112 299
f 315 411 299
f 196 288 304
f 288 28 304
f 244 32 284
f 284 32 398
f 284 132 244
f 273 132 284
f 367 132 309
f 309 132 273
f 217 326 334
f 334 211 217
f 239 211 415
f 267 37 104
f 104 146 267
f 182 407 269
f 53 416 277
f 277 56 53
f 280 416 53
f 282 255 201
f 316 193 100
f 41 330 100
f 100 330 316
f 254 162 296
f 408 162 254
f 111 209 88
f 88 110 111
f 88 160 110
f 373 160 88
f 268 269 373
f 268 209 269
f 373 88 268
f 268 88 209
f 41 246 311
f 311 131 41
f 247 131 311
f 407 82 52
f 47 131 247
f 346 7 63
f 63 164 346
f 316 330 251
f 251 395 316
f 275 330 230
f 275 230 322
f 322 395 275
f 98 16 143
f 143 257 98
f 112 425 401
f 401 299 112
f 425 299 401
f 413 299 425
f 425 385 413
f 413 273 315
f 398 273 207
f 207 284 398
f 273 284 207
f 367 115 258
f 258 302 367
f 13 425 418
f 13 385 425
f 229 239 119
f 239 415 119
f 119 424 229
f 51 182 269
f 51 209 408
f 269 209 51
f 407 417 107
f 107 82 407
f 248 335 196
f 294 335 248
f 278 56 232
f 201 131 9
f 9 282 201
f 341 193 403
f 341 100 193
f 341 311 246
f 341 246 41
f 41 100 341
f 403 407 341
f 157 91 101
f 101 91 164
f 101 375 157
f 21 375 266
f 266 107 417
f 231 21 266
f 417 342 266
f 266 342 231
f 210 47 164
f 131 47 210
f 164 63 210
f 257 44 337
f 337 98 257
f 389 16 279
f 315 299 197
f 197 413 315
f 299 413 197
f 273 413 313
f 313 413 385
f 93 258 115
f 115 13 93
f 93 13 418
f 407 182 174
f 182 51 174
f 90 342 4
f 376 231 90
f 231 342 90
f 90 152 376
f 390 28 255
f 134 371 205
f 187 285 113
f 113 278 187
f 56 278 113
f 294 248 60
f 60 248 56
f 56 113 60
f 407 52 406
f 406 341 407
f 406 312 341
f 311 341 5
f 341 312 5
f 375 101 384
f 384 266 375
f 16 98 249
f 249 279 16
f 206 90 4
f 4 254 206
f 206 254 296
f 37 194 198
f 198 91 37
f 198 194 280
f 364 248 196
f 33 285 187
f 33 310 285
f 187 278 33
f 232 72 33
f 33 278 232
f 285 310 365
f 134 205 130
f 285 260 130
f 130 113 285
f 130 205 294
f 52 101 54
f 54 406 52
f 154 101 52
f 154 384 101
f 74 7 346
f 74 282 7
f 255 282 74
f 74 390 255
f 175 260 15
f 145 175 15
f 15 260 285
f 113 130 34
f 34 130 294
f 178 198 280
f 280 200 178
f 216 53 56
f 56 248 216
f 280 53 216
f 216 200 280
f 285 365 169
f 169 15 285
f 294 60 95
f 95 34 294
f 248 364 404
f 404 216 248
f 370 404 364
f 200 216 370
f 216 404 370
f 390 74 370
f 198 178 370
f 370 178 200
f 390 370 378
f 378 370 364
f 390 378 283
f 283 378 364
f 222 179 242
f 71 222 242
f 122 308 116
f 318 83 421
f 318 305 67
f 421 305 318
f 20 386 161
f 161 409 423
f 386 409 161
f 308 122 29
f 29 236 308
f 359 236 29
f 141 318 67
f 67 151 141
f 83 318 141
f 10 83 141
f 79 105 217
f 79 163 84
f 217 163 79
f 123 61 293
f 123 234 344
f 123 344 61
f 123 215 234
f 139 24 159
f 6 24 139
f 233 259 139
f 159 328 139
f 139 328 233
f 139 259 73
f 137 387 324
f 324 127 377
f 324 387 127
f 201 255 227
f 288 335 227
f 335 230 227
f 227 255 288
f 214 271 148
f 214 380 355
f 355 271 214
f 264 327 290
f 264 290 422
f 422 333 264
f 219 18 143
f 96 18 219
f 219 42 96
f 143 199 219
f 219 199 343
f 314 291 1
f 1 121 314
f 1 320 121
f 350 420 188
f 188 94 350
f 188 420 118
f 345 45 224
f 345 85 118
f 118 45 345
f 253 190 183
f 183 414 253
f 81 361 32
f 32 226 81
f 32 132 226
f 244 132 32
f 348 202 108
f 108 2 323
f 108 323 348
f 114 2 108
f 375 3 157
f 21 289 375
f 375 289 3
f 173 336 394
f 394 19 173
f 120 276 394
f 394 276 19
f 62 35 59
f 229 62 59
f 59 35 396
f 59 239 229
f 12 69 65
f 65 49 12
f 49 112 12
f 112 27 12
f 27 208 12
f 398 392 299
f 299 392 270
f 299 411 398
f 17 146 104
f 37 303 104
f 104 303 17
f 395 251 275
f 275 251 330
f 166 155 119
f 119 326 166
f 155 424 119
f 119 415 211
f 119 334 326
f 211 334 119
f 7 282 210
f 210 9 131
f 210 63 7
f 282 9 210
f 385 13 313
f 367 309 313
f 313 309 273
f 313 115 367
f 313 13 115
f 93 257 156
f 156 360 93
f 418 257 93
f 302 258 93
f 360 410 93
f 93 410 302
f 4 342 174
f 408 254 174
f 174 51 408
f 174 417 407
f 174 342 417
f 174 254 4
f 205 371 58
f 205 58 294
f 249 177 165
f 249 165 389
f 249 44 177
f 249 337 44
f 98 337 249
f 389 279 249
f 296 162 206
f 206 102 250
f 250 152 206
f 162 102 206
f 152 90 206
f 130 175 87
f 130 87 134
f 130 260 175
f 311 5 54
f 247 311 54
f 54 47 247
f 164 47 54
f 312 406 54
f 54 101 164
f 54 5 312
f 107 266 154
f 82 107 154
f 154 52 82
f 266 384 154
f 169 168 145
f 263 168 169
f 169 72 263
f 169 33 72
f 310 33 169
f 169 365 310
f 145 15 169
f 95 60 113
f 113 34 95
f 370 74 346
f 91 198 370
f 346 91 370
f 283 304 28
f 196 304 283
f 28 390 283
f 283 364 196

