# https://github.com/mikedh/trimesh
v -0.00121289 -0.01782169 0.02408391
v -0.01516475 -0.00149715 0.02583228
v -0.01087364 -0.01044779 0.02590565
v -0.01227642 -0.00857705 0.02596959
v -0.00897581 -0.00109995 0.02858518
v -0.01140731 -0.01384660 0.02108811
v -0.01368489 -0.00936572 0.02497940
v -0.00793527 -0.00403760 0.02861984
v -0.00462991 -0.00498046 0.02920904
v -0.00420309 -0.01198619 0.02716086
v -0.00302568 -0.00027188 0.02981756
v -0.00697207 -0.01571038 0.02457867
v -0.01669628 -0.00347129 0.02467587
v -0.01676430 -0.00549163 0.02424546
v -0.00273572 -0.01718247 0.02441290
v -0.00914542 -0.00179795 0.02849744
v -0.00226423 -0.01313868 0.02684141
v -0.00830657 -0.01595380 0.02142800
v -0.00357345 -0.00800652 0.02863842
v -0.01211596 -0.00531497 0.02690112
v -0.01769258 -0.00326754 0.02385048
v -0.00907659 -0.00829850 0.02734178
v -0.00427767 -0.01686234 0.02442925
v -0.00000017 -0.01729750 0.02448286
v -0.00835153 -0.01593565 0.02304423
v -0.00239066 -0.00790401 0.02880718
v -0.00543130 -0.01714935 0.02283508
v -0.00879507 -0.01113452 0.02642006
v -0.01595840 -0.00830561 0.02214188
v -0.00813774 -0.00897174 0.02741524
v -0.01523845 -0.00535235 0.02526112
v -0.00013643 -0.00677794 0.02919841
v -0.01523623 -0.00955556 0.02353900
v -0.00009694 -0.01027333 0.02815258
v -0.00981394 -0.00613967 0.02764870
v -0.00576049 -0.01470845 0.02548627
v -0.01249151 -0.01024251 0.02525020
v -0.00189529 -0.00952535 0.02835376
v -0.00276505 -0.00719466 0.02896877
v -0.00766692 -0.01047533 0.02702011
v -0.01460201 -0.01050817 0.02177662
v -0.00857900 -0.00072259 0.02870766
v -0.00700137 -0.01656660 0.02394271
v -0.00237303 -0.01778933 0.02403658
v -0.01525059 -0.00761253 0.02466361
v -0.01477920 -0.01021907 0.02119620
v -0.00259209 -0.00057780 0.02985069
v -0.00493911 -0.01726149 0.02102346
v -0.00732832 -0.01000995 0.02729761
v -0.00937032 -0.00545802 0.02794795
v -0.00262130 -0.00501293 0.02943657
v -0.01125264 -0.01346694 0.02431126
v -0.00204417 -0.01583054 0.02538356
v -0.00029062 -0.00002959 0.02998020
v -0.01196458 -0.00109649 0.02746942
v -0.00834589 -0.01593992 0.02349026
v -0.00247314 -0.01516494 0.02573602
v -0.01543091 -0.00737987 0.02461813
v -0.01769690 -0.00324076 0.02338878
v -0.00666475 -0.01044947 0.02729274
v -0.00731283 -0.01079042 0.02697824
v -0.00046975 -0.01776082 0.02415810
v -0.01171965 -0.00762367 0.02651496
v -0.01786046 -0.00215799 0.02368830
v -0.01542708 -0.00489995 0.02523496
v -0.01674417 -0.00423647 0.02450272
v -0.01356323 -0.00998088 0.02481183
v -0.01520660 -0.00426459 0.02547003
v -0.01086584 -0.01422762 0.02406302
v -0.00560386 -0.01685975 0.02416289
v -0.01198684 -0.01086519 0.02524579
v -0.00291317 -0.01775361 0.02372331
v -0.01577190 -0.00167024 0.02543323
v -0.00037179 -0.01654099 0.02100000
v -0.00857504 -0.01446407 0.02483727
v -0.00956058 -0.01334556 0.02508720
v -0.01310309 -0.00054838 0.02695150
v -0.00641209 -0.00093521 0.02926019
v -0.00929718 -0.01478994 0.02437264
v -0.00704319 -0.01255063 0.02629837
v -0.00925900 -0.01541544 0.02399939
v -0.00016881 -0.00599368 0.02935754
v -0.00261072 -0.01622337 0.02507619
v -0.01783112 -0.00237398 0.02367625
v -0.00252658 -0.01270594 0.02702503
v -0.00394270 -0.01205875 0.02716211
v -0.01501793 -0.00232282 0.02583204
v -0.01709660 -0.00559904 0.02108086
v -0.00760009 -0.01626846 0.02115128
v -0.01691711 -0.00610502 0.02399233
v -0.00517705 -0.00110044 0.02952062
v -0.00548933 -0.01713259 0.02154612
v -0.01255292 -0.00070647 0.02720090
v -0.00026049 -0.00234257 0.02988875
v -0.00492885 -0.00972930 0.02792727
v -0.01610606 -0.00713809 0.02426819
v -0.01299961 -0.00934117 0.02535140
v -0.01633870 -0.00752006 0.02316352
v -0.01462781 -0.00611594 0.02542148
v -0.01165324 -0.01173305 0.02500501
v -0.01056671 -0.00309021 0.02790158
v -0.00654308 -0.01266157 0.02637573
v -0.00939149 -0.01431302 0.02461133
v -0.00718516 -0.00253090 0.02898412
v -0.00589886 -0.00002173 0.02937703
v -0.01475776 -0.00819395 0.02479933
v -0.00418859 -0.00691106 0.02887649
v -0.00014178 -0.01100753 0.02787539
v -0.00026335 -0.01338246 0.02681563
v -0.00912917 -0.00807966 0.02738789
v -0.00346667 -0.01601935 0.02511052
v -0.00031998 -0.01688999 0.02475856
v -0.00482737 -0.01297115 0.02659876
v -0.01326740 -0.01208508 0.02101949
v -0.01213017 -0.00883907 0.02594117
v -0.01496007 -0.00965354 0.02413273
v -0.01274533 -0.01270017 0.02290269
v -0.00252947 -0.00362053 0.02963623
v -0.00120452 -0.01385411 0.02655170
v -0.00881532 -0.01551570 0.02410218
v -0.00735059 -0.01627754 0.02100000
v -0.00849574 -0.00458220 0.02838624
v -0.01431481 -0.00270498 0.02619641
v -0.01031995 -0.01299448 0.02497933
v -0.00618348 -0.00667595 0.02855857
v -0.01188792 -0.00310491 0.02731689
v -0.00763134 -0.01628602 0.02386878
v -0.01478012 -0.00109545 0.02605730
v -0.00400359 -0.00107578 0.02968337
v -0.00467491 -0.01129249 0.02739435
v -0.00449754 -0.01236691 0.02695440
v -0.01330470 -0.01155669 0.02425827
v -0.00193006 -0.01784243 0.02111766
v -0.00254863 -0.00951441 0.02831905
v -0.01048361 -0.00621010 0.02739585
v -0.01345688 -0.01137185 0.02426066
v -0.00720783 -0.01270535 0.02618945
v -0.00703689 -0.00270298 0.02901286
v -0.00231142 -0.01361921 0.02661440
v -0.00672412 -0.01347465 0.02591925
v -0.00802475 -0.01610004 0.02350121
v -0.00339911 -0.01766558 0.02348104
v -0.00780802 -0.00251204 0.02882773
v -0.01081454 -0.01435684 0.02195845
v -0.01745315 -0.00414192 0.02103900
v -0.00063194 -0.01797952 0.02375688
v -0.01766876 -0.00329304 0.02173627
v -0.00334442 -0.00001680 0.02978719
v -0.00765240 -0.00549603 0.02844080
v -0.00657426 -0.00700659 0.02839693
v -0.00552764 -0.01117625 0.02726832
v -0.01434364 -0.00661740 0.02545794
v -0.00222000 -0.00494322 0.02948038
v -0.00468951 -0.01024783 0.02778232
v -0.00776147 -0.01622427 0.02268151
v -0.00230488 -0.00241552 0.02979562
v -0.01272815 -0.01149260 0.02458670
v -0.01032457 -0.00630984 0.02743840
v -0.01595007 -0.00436730 0.02499669
v -0.01464314 -0.01044751 0.02163337
v -0.00224767 -0.00772097 0.02886562
v -0.00418484 -0.00928167 0.02819816
v -0.00255475 -0.00514644 0.02941742
v -0.01581906 -0.00215814 0.02536587
v -0.00568293 -0.00197945 0.02937055
v -0.01608784 -0.00180053 0.02521367
v -0.00262982 -0.01326610 0.02675200
v -0.01778570 -0.00234829 0.02403899
v -0.01798566 -0.00011536 0.02115926
v -0.00890201 -0.00654825 0.02783894
v -0.01782332 -0.00234416 0.02401361
v -0.00698899 -0.00617886 0.02848990
v -0.01286666 -0.01256822 0.02200525
v -0.00830414 -0.01418091 0.02507926
v -0.00099313 -0.01179394 0.02753160
v -0.00733094 -0.01329290 0.02585389
v -0.00271587 -0.01778250 0.02130674
v -0.00110169 -0.01790903 0.02121619
v -0.00875957 -0.00740616 0.02768221
v -0.00423858 -0.01467622 0.02579883
v -0.00431599 -0.01744741 0.02322269
v -0.01021536 -0.01479977 0.02232304
v -0.01665742 -0.00302993 0.02474303
v -0.01732536 -0.00212999 0.02436564
v -0.01377335 -0.01122316 0.02100000
v -0.00241743 -0.01579772 0.02538181
v -0.01212735 -0.00485122 0.02700099
v -0.00955874 -0.00740019 0.02742950
v -0.00606925 -0.01177246 0.02688429
v -0.01193210 -0.00326826 0.02727809
v -0.00303537 -0.01772287 0.02128600
v -0.00464772 -0.01359824 0.02633038
v -0.00070960 -0.01794150 0.02132843
v -0.01478461 -0.00766868 0.02492351
v -0.00358012 -0.00814019 0.02859929
v -0.00399072 -0.00676059 0.02893458
v -0.01745897 -0.00320031 0.02417696
v -0.01268782 -0.01275284 0.02105297
v -0.01412774 -0.01107769 0.02100579
v -0.00847642 -0.01536004 0.02431923
v -0.01545872 -0.00918646 0.02391088
v -0.01157417 -0.00223380 0.02755859
v -0.00693400 -0.00629471 0.02848382
v -0.01607039 -0.00764975 0.02413564
v -0.00120161 -0.01740960 0.02436508
v -0.00654067 -0.00157434 0.02919535
v -0.00984688 -0.00256806 0.02819146
v -0.00294801 -0.00199506 0.02975700
v -0.00389903 -0.01754429 0.02309318
v -0.01541287 -0.00926070 0.02335518
v -0.00407739 -0.01389677 0.02626031
v -0.00357904 -0.01686435 0.02452449
v -0.01649593 -0.00717375 0.02387476
v -0.01764068 -0.00340354 0.02164440
v -0.01303885 -0.01238273 0.02255258
v -0.01753315 -0.00397723 0.02381732
v -0.00628593 -0.00593770 0.02869911
v -0.00399864 -0.01702701 0.02435664
v -0.00772547 -0.01624155 0.02392097
v -0.00558063 -0.00377648 0.02920296
v -0.00485688 -0.01731337 0.02296959
v -0.00998625 -0.01495342 0.02270967
v -0.01050533 -0.00944486 0.02645032
v -0.01795555 -0.00087801 0.02344242
v -0.01296013 -0.00229366 0.02692932
v -0.00966738 -0.01497213 0.02100000
v -0.01257179 -0.01257136 0.02415273
v -0.00397878 -0.01239661 0.02700275
v -0.00017558 -0.00614281 0.02932719
v -0.00819318 -0.00061867 0.02882628
v -0.00153637 -0.01789940 0.02298227
v -0.00165000 -0.01788440 0.02251406
v -0.00243757 -0.00044798 0.02987037
v -0.01377398 -0.01077102 0.02435192
v -0.00022442 -0.00481886 0.02959480
v -0.01188287 -0.00746061 0.02648196
v -0.00874607 -0.00123037 0.02865565
v -0.01452225 -0.01061608 0.02107488
v -0.01706555 -0.00569600 0.02383573
v -0.01042721 -0.01268993 0.02508916
v -0.00768740 -0.00056312 0.02895686
v -0.00728788 -0.00173950 0.02899823
v -0.00420148 -0.01724601 0.02417359
v -0.00452821 -0.00516429 0.02918648
v -0.00850406 -0.01561923 0.02414924
v -0.00014756 -0.01069955 0.02799148
v -0.01070663 -0.00719280 0.02705444
v -0.00519417 -0.00008899 0.02952148
v -0.01717193 -0.00535372 0.02161186
v -0.01712893 -0.00039539 0.02461118
v -0.00368462 -0.01460314 0.02591715
v -0.01162939 -0.00183313 0.02756312
v -0.00382359 -0.01555726 0.02535413
v -0.01166441 -0.00532254 0.02710057
v -0.00467032 -0.00656605 0.02889193
v -0.00477508 -0.01293501 0.02662745
v -0.00267422 -0.01779144 0.02229898
v -0.01720586 -0.00427407 0.02418940
v -0.01443003 -0.00234120 0.02616581
v -0.00857817 -0.01420382 0.02498695
v -0.00470827 -0.00039088 0.02961837
v -0.01332700 -0.00290415 0.02669979
v -0.00813163 -0.00260612 0.02872517
v -0.00032872 -0.01780729 0.02100000
v -0.00445599 -0.00312553 0.02948695
v -0.01786363 -0.00166010 0.02112407
v -0.00287374 -0.01391316 0.02640417
v -0.00499314 -0.01126852 0.02734114
v -0.01386429 -0.01077941 0.02429885
v -0.00960528 -0.00073479 0.02838133
v -0.00064047 -0.01792230 0.02404471
v -0.00311476 -0.00209300 0.02973333
v -0.00889449 -0.00038915 0.02860399
v -0.00320928 -0.01768916 0.02180837
v -0.00353616 -0.00471843 0.02938859
v -0.01751178 -0.00406401 0.02365058
v -0.01057334 -0.00321842 0.02788747
v -0.00368591 -0.01605795 0.02505450
v -0.00453026 -0.00192774 0.02958201
v -0.01015606 -0.01483968 0.02379048
v -0.01126704 -0.00848998 0.02644854
v -0.00013328 -0.00650937 0.02925301
v -0.00037845 -0.01171603 0.02759751
v -0.01259018 -0.01284897 0.02397408
v -0.01630264 -0.00752642 0.02157266
v -0.01277280 -0.01267015 0.02255059
v -0.00300828 -0.01142410 0.02754840
v -0.01266655 -0.01277539 0.02151772
v -0.00484899 -0.00938452 0.02806818
v -0.01782892 -0.00210176 0.02112822
v -0.01050762 -0.01390812 0.02439533
v -0.00877930 -0.00469585 0.02828874
v -0.01358160 -0.00350147 0.02650448
v -0.00368888 -0.01760399 0.02396220
v -0.00229245 -0.01379567 0.02653168
v -0.00088914 -0.01374886 0.02661534
v -0.01287515 -0.01256054 0.02353365
v -0.00825928 -0.01557925 0.02425497
v -0.01551313 -0.00900193 0.02403761
v -0.00736445 -0.00047829 0.02904274
v -0.00739507 -0.00461457 0.02865623
v -0.01645556 -0.00715476 0.02145762
v -0.01644399 -0.00532265 0.02448828
v -0.00393558 -0.00031313 0.02971714
v -0.00995951 -0.01497257 0.02304124
v -0.01711350 -0.00555294 0.02353437
v -0.01396310 -0.00325415 0.02633239
v -0.01059972 -0.00316451 0.02788335
v -0.01695254 -0.00542932 0.02413511
v -0.01703824 -0.00011936 0.02100000
v -0.00396572 -0.01246394 0.02697340
v -0.00480742 -0.00802815 0.02847859
v -0.01000158 -0.01275928 0.02523264
v -0.01055349 -0.01354646 0.02457391
v -0.00678131 -0.01307825 0.02612204
v -0.00314485 -0.01770533 0.02190170
v -0.00473605 -0.00129564 0.02958339
v -0.01334631 -0.00645128 0.02607565
v -0.00839252 -0.01591545 0.02376535
v -0.01723103 -0.00506983 0.02107716
v -0.01029184 -0.01331931 0.02481233
v -0.00710411 -0.00690948 0.02829898
v -0.01510125 -0.00968770 0.02103044
v -0.01663840 -0.00349948 0.02471205
v -0.00373956 -0.00464333 0.02937791
v -0.00416256 -0.01749372 0.02397116
v -0.00318534 -0.01743158 0.02419041
v -0.01368118 -0.00986737 0.02478972
v -0.01383294 -0.01148244 0.02384438
v -0.01181147 -0.01117166 0.02520560
v -0.00559202 -0.01709922 0.02104520
v -0.01735041 -0.00139182 0.02440049
v -0.01599817 -0.00376596 0.02506867
v -0.00246410 -0.00779394 0.02883351
v -0.00102852 -0.00457642 0.02959099
v -0.00464886 -0.00525939 0.02915232
v -0.00205133 -0.00912158 0.02847361
v -0.00393239 -0.01188299 0.02723972
v -0.00457735 -0.00033952 0.02964424
v -0.01249962 -0.01286768 0.02100000
v -0.01772913 -0.00290433 0.02100000
v -0.01313986 -0.01226293 0.02218326
v -0.00434735 -0.00598228 0.02904840
v -0.00641592 -0.00068944 0.02926965
v -0.00736816 -0.01548758 0.02459721
v -0.00538847 -0.00464769 0.02913284
v -0.00464451 -0.01176993 0.02719603
v -0.00900317 -0.01554829 0.02234837
v -0.00377272 -0.00754459 0.02874663
v -0.00746619 -0.00143414 0.02896865
v -0.00628515 -0.01072302 0.02727524
v -0.01778006 -0.00274922 0.02168886
v -0.00452720 -0.00861527 0.02834778
v -0.00021539 -0.01798818 0.02226354
v -0.00851579 -0.01582065 0.02109087
v -0.00253523 -0.00959170 0.02829166
v -0.00645084 -0.00930161 0.02775743
v -0.01028191 -0.01240026 0.02528735
v -0.00558536 -0.00198192 0.02938989
v -0.00629376 -0.00950301 0.02772342
v -0.00275355 -0.01258867 0.02705711
v -0.01436421 -0.00003759 0.02630727
v -0.01386897 -0.00579732 0.02592879
v -0.00000479 -0.01025745 0.02815874
v -0.00986771 -0.01450234 0.02431550
v -0.01556644 -0.00506868 0.02511120
v -0.00718269 -0.01584732 0.02443681
v -0.01434875 -0.01082596 0.02265053
v -0.00892914 -0.00771127 0.02755736
v -0.00554991 -0.01291752 0.02646812
v -0.01435895 -0.00428328 0.02595892
v -0.00848117 -0.00742635 0.02776483
v -0.01688779 -0.00052635 0.02476790
v -0.00959505 -0.00560309 0.02783804
v -0.01344921 -0.00304808 0.02662853
v -0.01353140 -0.00021302 0.02675506
v -0.01100634 -0.01418987 0.02126452
v -0.00027231 -0.00479971 0.02959656
v -0.01744146 -0.00350806 0.02414632
v -0.00305944 -0.01582909 0.02528831
v -0.00423880 -0.00626663 0.02900526
v -0.01773387 -0.00300142 0.02155300
v -0.00008393 -0.01596837 0.02539097
v -0.00754447 -0.01263700 0.02611548
v -0.00419356 -0.01542203 0.02537327
v -0.01744798 -0.00275631 0.02423228
v -0.01207729 -0.00031418 0.02741212
v -0.01021080 -0.01478266 0.02112483
v -0.01153793 -0.01096776 0.02541126
v -0.00341666 -0.01549107 0.02545052
v -0.00757809 -0.00201083 0.02891119
v -0.01627980 -0.00764494 0.02328808
v -0.01798731 -0.00026943 0.02282135
v -0.00491497 -0.00477896 0.02920152
v -0.00630295 -0.01501784 0.02515988
v -0.00620976 -0.00373558 0.02907935
v -0.00629324 -0.01654458 0.02420376
v -0.00218744 -0.01783983 0.02401479
v -0.01440782 -0.01075505 0.02224128
v -0.01238820 -0.01043888 0.02522343
v -0.00566386 -0.01396559 0.02591561
v -0.01240507 -0.01063593 0.02513313
v -0.01292799 -0.00075285 0.02703215
v -0.00529338 -0.01664149 0.02437317
v -0.01464644 -0.01005215 0.02415835
v -0.01349609 -0.01006459 0.02481205
v -0.00969755 -0.01498154 0.02410369
v -0.00453099 -0.01694745 0.02432914
v -0.01431335 -0.00804449 0.02508063
v -0.00481089 -0.00141937 0.02956511
v -0.00576072 -0.01441587 0.02565236
v -0.00474135 -0.01686225 0.02434815
v -0.00636579 -0.00411525 0.02899945
v -0.01762950 -0.00355100 0.02373385
v -0.01041873 -0.01441731 0.02414582
v -0.00015152 -0.01602661 0.02535115
v -0.01609847 -0.00802904 0.02328052
v -0.01306965 -0.00369676 0.02672151
v -0.01201268 -0.00504421 0.02701317
v -0.01726567 -0.00503840 0.02398310
v -0.00381195 -0.01611399 0.02499923
v -0.00823831 -0.01455036 0.02488773
v -0.01248542 -0.00056681 0.02723018
v -0.01633501 -0.00752778 0.02306949
v -0.00569416 -0.00483759 0.02904383
v -0.00324234 -0.00896114 0.02840476
v -0.00563194 -0.00135742 0.02942811
v -0.01457310 -0.00968348 0.02434513
v -0.00801196 -0.01609981 0.02126228
v -0.00245876 -0.01782235 0.02332611
v -0.01566114 -0.00404291 0.02523121
v -0.00664039 -0.01670846 0.02396530
v -0.00038191 -0.00738180 0.02904722
v -0.01257038 -0.00911836 0.02563632
v -0.00498495 -0.01419764 0.02594620
v -0.00498961 -0.01636473 0.02461848
v -0.00719847 -0.00970174 0.02745038
v -0.01622567 -0.00029216 0.02519767
v -0.00799106 -0.00238297 0.02878802
v -0.01472028 -0.00821747 0.02481272
v -0.00246373 -0.00890137 0.02851635
v -0.01385935 -0.01018891 0.02455909
v -0.00560401 -0.00531158 0.02897421
v -0.00011722 -0.00095591 0.02994718
v -0.01215490 -0.01325136 0.02297960
v -0.01085682 -0.01431874 0.02152272
v -0.00587347 -0.01700181 0.02304444
v -0.01064679 -0.00015574 0.02802395
v -0.00530850 -0.00866455 0.02821587
v -0.00501327 -0.00592469 0.02896126
v -0.00823584 -0.01479183 0.02474589
v -0.00603219 -0.01219958 0.02670725
v -0.01610627 -0.00770218 0.02100000
v -0.00457017 -0.00085855 0.02963078
v -0.00801810 -0.01588990 0.02414222
v -0.00639485 -0.00401480 0.02900640
v -0.01039939 -0.01374781 0.02452910
v -0.01786483 -0.00212588 0.02382844
v -0.00221260 -0.00232750 0.02980534
v -0.01348597 -0.01054133 0.02460966
v -0.00503356 -0.01441965 0.02581399
v -0.01479270 -0.01022605 0.02372911
v -0.01683993 -0.00622134 0.02120430
v -0.00445495 -0.01099519 0.02753789
v -0.01596656 -0.00829557 0.02293633
v -0.00260026 -0.01780230 0.02364722
v -0.00298122 -0.01178032 0.02740428
v -0.01792756 -0.00129624 0.02369776
v -0.00931638 -0.01072830 0.02639544
v -0.01493308 -0.01000632 0.02228829
v -0.00966907 -0.00981759 0.02661816
v -0.01000932 -0.00347106 0.02803970
v -0.00838331 -0.00803438 0.02764357
v -0.00329744 -0.01766924 0.02185936
v -0.00023219 -0.00369906 0.02973144
v -0.01201119 -0.00519785 0.02697638
v -0.00270164 -0.01075173 0.02783673
v -0.00667691 -0.01003977 0.02745343
v -0.00235546 -0.00165826 0.02982580
v -0.01312160 -0.00363174 0.02670601
v -0.01154195 -0.01096588 0.02541014
v -0.00451664 -0.01552001 0.02525479
v -0.01194885 -0.00027632 0.02746972
v -0.01215123 -0.00049793 0.02738030
v -0.01371997 -0.01161356 0.02364578
v -0.00324096 -0.00237858 0.02970369
v -0.01137216 -0.01311529 0.02443650
v -0.00734251 -0.01642138 0.02350207
v -0.01701523 -0.00562123 0.02405475
v -0.00052735 -0.00970999 0.02834767
v -0.01123198 -0.01158506 0.02526921
v -0.00542853 -0.00336654 0.02928239
v -0.00453103 -0.01064812 0.02765873
v -0.00890039 -0.01549407 0.02100000
v -0.00243849 -0.01782539 0.02396360
v -0.00858414 -0.00084301 0.02870722
v -0.01472470 -0.00501795 0.02563387
v -0.00714692 -0.01611071 0.02427296
v -0.00407199 -0.01678072 0.02451289
v -0.00431402 -0.00213008 0.02959630
v -0.01282763 -0.01250618 0.02405460
v -0.00865527 -0.00194270 0.02863501
v -0.00811426 -0.01141759 0.02650172
v -0.00809728 -0.01606568 0.02309111
v -0.00423501 -0.00436212 0.02936103
v -0.00610035 -0.00301735 0.02918258
v -0.01776175 -0.00169260 0.02410362
v -0.01279080 -0.00726751 0.02611810
v -0.00193429 -0.01787470 0.02397820
v -0.01060232 -0.01453671 0.02373514
v -0.01438921 -0.00024018 0.02629270
v -0.00167483 -0.01369507 0.02660647
v -0.01047589 -0.01462359 0.02374875
v -0.00509709 -0.00960019 0.02794057
v -0.01618126 -0.00637779 0.02442824
v -0.00683492 -0.00666767 0.02842757
v -0.00450036 -0.01731469 0.02100000
v -0.00518324 -0.01433067 0.02583522
v -0.00750773 -0.01046503 0.02706606
v -0.01178148 -0.00406310 0.02725204
v -0.01179553 -0.00941433 0.02587730
v -0.01090573 -0.00953067 0.02623793
v -0.01610329 -0.00077109 0.02527143
v -0.00172974 -0.01621792 0.02514274
v -0.00394194 -0.00766456 0.02869179
v -0.00755036 -0.00400289 0.02872215
v -0.01145867 -0.01158427 0.02517092
v -0.01003895 -0.00189969 0.02816418
v -0.00397625 -0.00249460 0.02960526
v -0.00533761 -0.01717686 0.02176222
v -0.00246228 -0.01312034 0.02683724
v -0.00897693 -0.00453158 0.02824509
v -0.00632065 -0.00791840 0.02819888
v -0.00515813 -0.00512507 0.02909548
v -0.00022861 -0.01154755 0.02766732
v -0.01645219 -0.00670920 0.02416632
v -0.01196034 -0.00490687 0.02706710
v -0.01097413 -0.00701658 0.02699530
v -0.01797488 -0.00049533 0.02261865
v -0.00994915 -0.00606060 0.02762395
v -0.01430791 -0.00799537 0.02509905
v -0.00951233 -0.00923054 0.02688134
v -0.00860273 -0.00528582 0.02822925
v -0.01193823 -0.00799506 0.02632699
v -0.00001285 -0.00035698 0.02997177
v -0.00885211 -0.01146845 0.02625537
v -0.00812200 -0.00741869 0.02787934
v -0.01579635 -0.00855771 0.02115299
v -0.01779052 -0.00263738 0.02138570
v -0.00990060 -0.00374303 0.02804344
v -0.00469665 -0.01380998 0.02620965
v -0.00577626 -0.00131163 0.02939887
v -0.01219755 -0.01316647 0.02100000
v -0.00226147 -0.01153507 0.02758424
v -0.01649634 -0.00060595 0.02100000
v -0.00444700 -0.00010723 0.02966146
v -0.00038437 -0.01797199 0.02167200
v -0.00345797 -0.01677288 0.02460261
v -0.00779956 -0.01589226 0.02421132
v -0.01221373 -0.00238103 0.02725664
v -0.00986980 -0.00009209 0.02829080
v -0.00210507 -0.01188470 0.02743553
v -0.00233993 -0.00036674 0.02987780
v -0.00131763 -0.01599764 0.02531207
v -0.00393585 -0.00664368 0.02896497
v -0.01792429 -0.00031377 0.02100000
v -0.01165360 -0.01370133 0.02389393
v -0.01698253 -0.00187831 0.02461235
v -0.00798433 -0.01525739 0.02454153
v -0.00671653 -0.01249681 0.02640659
v -0.01728742 -0.00496098 0.02286296
v -0.01581687 -0.00727983 0.02440831
v -0.00493180 -0.00268900 0.02945018
v -0.00532637 -0.00329172 0.02931041
v -0.00303935 -0.00005399 0.02982132
v -0.00403410 -0.00395913 0.02944052
v -0.00500603 -0.00686756 0.02875502
v -0.00480969 -0.00016507 0.02959988
v -0.01172935 -0.00431427 0.02724582
v -0.01460128 -0.01050935 0.02148620
v -0.00210548 -0.00695941 0.02907862
v -0.00312227 -0.00002119 0.02981229
v -0.01341791 -0.00937759 0.02512257
v -0.01323120 -0.00998564 0.02499021
v -0.00026816 -0.00240981 0.02988574
v -0.00058754 -0.00968996 0.02835244
v -0.01712380 -0.00551940 0.02202856
v -0.01713299 -0.00198308 0.02450460
v -0.00391943 -0.00697094 0.02889320
v -0.00746873 -0.00966426 0.02737810
v -0.00930766 -0.00879685 0.02710299
v -0.01605416 -0.00279827 0.02516080
v -0.01773867 -0.00299549 0.02191384
v -0.00006672 -0.01648877 0.02246644
v -0.00481667 -0.00716064 0.02872109
v -0.00539512 -0.00963902 0.02786500
v -0.00531670 -0.01138036 0.02723601
v -0.00795412 -0.01376504 0.02541266
v -0.00843928 -0.01553988 0.02422087
v -0.00029416 -0.01025424 0.02815290
v -0.01066806 -0.01448870 0.02373275
v -0.00432107 -0.01683210 0.02444339
v -0.01174255 -0.00169186 0.02752746
v -0.00266106 -0.01694601 0.02458174
v -0.01623771 -0.00302029 0.02502303
v -0.00363603 -0.01737704 0.02417026
v -0.01558581 -0.00000679 0.02382160
v -0.00582400 -0.00871324 0.02808957
v -0.00218005 -0.01655942 0.02488682
v -0.00039318 -0.01798303 0.02249374
v -0.00091477 -0.01754305 0.02428971
v -0.01242387 -0.00392640 0.02698208
v -0.00299346 -0.01342893 0.02663897
v -0.00401075 -0.00946832 0.02816211
v -0.01007372 -0.00950699 0.02659614
v -0.00078004 -0.01756473 0.02428185
v -0.00454457 -0.01243521 0.02691473
v -0.01787892 -0.00065985 0.02407624
v -0.00212452 -0.01774385 0.02100000
v -0.01752012 -0.00398592 0.02278075
v -0.00282775 -0.01208047 0.02728479
v -0.00649425 -0.01335272 0.02604520
v -0.00305936 -0.01745639 0.02418876
v -0.00868959 -0.01567054 0.02405131
v -0.01418808 -0.00665287 0.02554033
v -0.01680505 -0.00436112 0.02443859
v -0.00021225 -0.00892106 0.02861092
v -0.01798587 -0.00034729 0.02290551
v -0.01163360 -0.00035711 0.02761254
v -0.01746028 -0.00186434 0.02429497
v -0.01056554 -0.01456304 0.02354311
v -0.01202700 -0.00552543 0.02688947
v -0.01595726 -0.00794354 0.02100000
v -0.01726329 -0.00504730 0.02296345
v -0.01711181 -0.00533337 0.02100000
v -0.01406679 -0.00019855 0.02647881
v -0.01499257 -0.00532121 0.02541413
v -0.01537434 -0.00533732 0.02517827
v -0.00249807 -0.00163166 0.02981857
v -0.00016243 -0.00940982 0.02847220
v -0.00386687 -0.01756295 0.02399721
v -0.00390004 -0.01589120 0.02513166
v -0.01147771 -0.00750204 0.02665247
v -0.01267920 -0.00107076 0.02714607
v -0.01564600 -0.00883551 0.02207638
v -0.00696317 -0.01075550 0.02708440
v -0.01276438 -0.00086181 0.02710683
v -0.00226898 -0.00955069 0.02832682
v -0.00327067 -0.01766210 0.02102664
v -0.00767740 -0.00609166 0.02833043
v -0.00324353 -0.00693167 0.02898161
v -0.01592336 -0.00642438 0.02457754
v -0.00241280 -0.01782603 0.02316702
v -0.00558525 -0.00133696 0.02943760
v -0.01235789 -0.00780994 0.02617077
v -0.00853914 -0.01110443 0.02651290
v -0.01498546 -0.00994163 0.02348973
v -0.00240730 -0.00412183 0.02958643
v -0.00240934 -0.01781052 0.02152465
v -0.00291856 -0.00471172 0.02946174
v -0.01261377 -0.01282657 0.02350655
v -0.01002252 -0.00663830 0.02746617
v -0.01787221 -0.00206922 0.02385702
v -0.01771520 -0.00255769 0.02406777
v -0.00228840 -0.00965344 0.02828751
v -0.01617753 -0.00784869 0.02179690
v -0.00033893 -0.00008580 0.02848455
v -0.00712765 -0.01332868 0.02589005
v -0.00367011 -0.00137391 0.02970635
v -0.01120396 -0.01404300 0.02401627
v -0.01387337 -0.00347257 0.02635696
v -0.00416387 -0.01386983 0.02626312
v -0.00713660 -0.00373311 0.02887195
v -0.00479571 -0.01733475 0.02388686
v -0.00229175 -0.00882825 0.02854718
v -0.01258055 -0.01258294 0.02414278
v -0.01194580 -0.01199442 0.02473641
v -0.00414291 -0.01197917 0.02717150
v -0.00304758 -0.01188246 0.02734953
v -0.01414229 -0.00373315 0.02616503
v -0.00740062 -0.00435824 0.02869876
v -0.01041612 -0.01466414 0.02222147
v -0.01441654 -0.01064688 0.02405452
v -0.00066837 -0.01797798 0.02365761
v -0.01320562 -0.01220388 0.02389851
v -0.00679586 -0.00648714 0.02847565
v -0.00500974 -0.00209282 0.02949451
v -0.01711057 -0.00089769 0.02459407
v -0.01277377 -0.01266996 0.02342106
v -0.01546477 -0.00150312 0.02564931
v -0.00412039 -0.00772273 0.02865340
v -0.00735731 -0.00951264 0.02746611
v -0.00343011 -0.01320967 0.02669484
v -0.00925445 -0.01373017 0.02499281
v -0.00006178 -0.00010613 0.02849457
v -0.00740096 -0.00563453 0.02848002
v -0.00853724 -0.00472342 0.02835165
v -0.00768210 -0.01340806 0.02568421
v -0.01234317 -0.00784634 0.02616687
v -0.00021040 -0.00695675 0.02916047
v -0.01573071 -0.00447328 0.02511953
v -0.00908196 -0.00178106 0.02851923
v -0.00233566 -0.01499838 0.02584460
v -0.01184249 -0.00116811 0.02751675
v -0.00487286 -0.01298361 0.02658296
v -0.00955633 -0.00524476 0.02791560
v -0.00443253 -0.01569425 0.02516066
v -0.00520571 -0.01721505 0.02394663
v -0.01586771 -0.00847611 0.02361762
v -0.00465266 -0.01351152 0.02637422
v -0.01167149 -0.00831678 0.02634562
v -0.00246809 -0.00338978 0.02967100
v -0.01441882 -0.00971111 0.02442367
v -0.01596373 -0.00830116 0.02309752
v -0.00992466 -0.00397171 0.02800012
v -0.00240405 -0.00668922 0.02912034
v -0.00530424 -0.00844186 0.02829106
v -0.01378716 -0.00719615 0.02562322
v -0.00161071 -0.00953600 0.02836298
v -0.00534475 -0.01487208 0.02547893
v -0.01060889 -0.00636758 0.02731633
v -0.00949050 -0.01527252 0.02344173
v -0.00589306 -0.01493504 0.02531619
v -0.01160137 -0.01089688 0.02540904
v -0.01474385 -0.00556318 0.02549748
v -0.00804023 -0.00857872 0.02756945
v -0.00512174 -0.01231448 0.02684923
v -0.00008086 -0.01176862 0.02758514
v -0.00702471 -0.01650593 0.02106108
v -0.00789082 -0.01616297 0.02188843
v -0.00265766 -0.01779409 0.02348806
v -0.01208141 -0.00530490 0.02691898
v -0.00135393 -0.01704025 0.02460684
v -0.01080353 -0.01199061 0.02526086
v -0.01273434 -0.00944026 0.02544099
v -0.01204878 -0.01133977 0.02500728
v -0.00739194 -0.00553781 0.02849885
v -0.00014424 -0.01400903 0.02651486
v -0.00038202 -0.01797417 0.02181168
v -0.01624280 -0.00330011 0.02498493
v -0.00875016 -0.01150241 0.02627912
v -0.01798912 -0.00016449 0.02328094
v -0.00762814 -0.00394708 0.02871224
v -0.01166991 -0.00909721 0.02605341
v -0.00541925 -0.00805738 0.02837350
v -0.00257911 -0.01012640 0.02808588
v -0.00557677 -0.01710631 0.02167039
v -0.01750448 -0.00033713 0.02434914
v -0.01311368 -0.01175685 0.02426423
v -0.00850187 -0.01584300 0.02187164
v -0.01284345 -0.00568549 0.02647716
v -0.00996945 -0.00215520 0.02817729
v -0.01387794 -0.00951212 0.02481270
v -0.01493890 -0.00885052 0.02444815
v -0.00716892 -0.00662901 0.02836383
v -0.00875095 -0.00689799 0.02780423
v -0.01431685 -0.01073168 0.02407208
v -0.00808690 -0.01597473 0.02100000
v -0.00478822 -0.00098314 0.02959052
v -0.00098935 -0.01795587 0.02399757
v -0.01161957 -0.00798932 0.02646546
v -0.01572799 -0.00847372 0.02409376
v -0.00851300 -0.00200786 0.02867235
v -0.00016126 -0.01729280 0.02448406
f 742 607 169
f 169 607 310
f 362 607 742
f 24 594 545
f 594 695 545
f 545 695 54
f 667 607 54
f 54 695 667
f 310 607 667
f 667 695 310
f 354 594 24
f 74 695 594
f 566 169 310
f 310 695 555
f 695 74 555
f 264 354 557
f 594 354 264
f 264 74 594
f 557 354 739
f 444 545 54
f 54 94 444
f 444 94 545
f 563 233 54
f 24 728 383
f 383 728 738
f 398 641 495
f 615 591 223
f 169 539 628
f 628 224 742
f 539 224 628
f 663 539 169
f 235 282 545
f 448 362 376
f 323 199 238
f 24 545 364
f 364 728 24
f 545 282 364
f 282 32 364
f 364 32 640
f 738 728 109
f 607 362 105
f 233 563 575
f 575 563 54
f 193 264 557
f 193 178 264
f 610 739 354
f 354 684 610
f 62 354 24
f 62 271 354
f 146 684 354
f 354 271 146
f 53 383 738
f 738 703 53
f 53 703 186
f 1 398 271
f 761 538 544
f 670 501 284
f 284 567 670
f 742 169 393
f 393 628 742
f 169 628 393
f 549 290 341
f 352 663 549
f 549 663 290
f 566 341 266
f 341 290 266
f 169 566 266
f 266 663 169
f 290 663 266
f 453 199 323
f 635 453 88
f 352 549 382
f 382 549 341
f 468 663 618
f 468 618 742
f 742 224 468
f 468 224 539
f 539 663 468
f 475 235 545
f 362 438 511
f 644 376 128
f 55 704 448
f 293 375 671
f 323 238 46
f 46 238 580
f 288 198 445
f 445 198 567
f 567 284 445
f 34 364 640
f 119 703 738
f 295 703 119
f 295 267 57
f 57 703 295
f 186 703 57
f 295 119 512
f 283 109 728
f 728 535 283
f 554 283 246
f 63 236 544
f 11 575 304
f 233 575 11
f 148 105 556
f 54 607 148
f 607 105 148
f 226 388 553
f 729 758 331
f 649 517 619
f 186 57 390
f 390 57 267
f 432 455 43
f 43 331 432
f 707 412 642
f 397 432 70
f 70 432 708
f 70 708 641
f 641 243 70
f 693 617 710
f 268 597 130
f 130 597 347
f 347 597 617
f 271 398 760
f 760 146 271
f 684 146 760
f 609 53 186
f 616 1 271
f 271 112 616
f 22 761 591
f 3 223 389
f 615 223 3
f 3 469 615
f 546 469 3
f 676 501 670
f 389 223 522
f 281 223 591
f 591 761 281
f 538 761 247
f 247 761 188
f 280 81 670
f 670 567 601
f 601 510 670
f 43 455 624
f 498 432 397
f 455 432 498
f 683 501 757
f 742 618 748
f 748 362 742
f 748 438 362
f 21 84 352
f 145 341 635
f 635 88 145
f 145 382 341
f 548 453 323
f 548 88 453
f 64 663 352
f 545 94 585
f 585 475 545
f 585 94 54
f 475 585 658
f 225 644 259
f 644 128 259
f 259 375 225
f 123 375 259
f 636 128 376
f 636 376 362
f 362 511 636
f 629 55 448
f 403 376 644
f 293 418 480
f 480 375 293
f 262 560 225
f 225 375 262
f 538 247 721
f 307 375 123
f 307 671 375
f 363 497 318
f 318 751 363
f 363 751 497
f 299 201 683
f 318 497 637
f 238 329 399
f 199 185 340
f 340 114 199
f 553 198 340
f 198 114 340
f 199 453 633
f 633 185 199
f 160 46 580
f 108 535 728
f 728 364 108
f 246 283 108
f 108 283 535
f 108 34 246
f 364 34 108
f 296 512 119
f 738 109 296
f 296 119 738
f 109 283 296
f 296 283 512
f 449 289 717
f 154 268 130
f 597 268 154
f 175 283 562
f 283 554 562
f 600 554 246
f 490 554 600
f 246 34 600
f 600 34 640
f 640 490 600
f 544 538 643
f 643 63 544
f 248 105 344
f 556 105 248
f 248 578 556
f 54 233 479
f 233 11 47
f 582 575 54
f 54 148 582
f 388 226 494
f 553 388 6
f 388 377 6
f 6 198 553
f 6 377 567
f 567 198 6
f 388 222 182
f 355 494 758
f 388 494 355
f 355 758 729
f 121 331 758
f 133 649 619
f 133 619 264
f 264 178 133
f 133 177 649
f 495 641 294
f 708 432 447
f 447 432 331
f 642 412 602
f 412 707 436
f 436 707 482
f 710 617 256
f 131 693 311
f 617 693 131
f 131 347 617
f 617 597 727
f 727 256 617
f 764 62 24
f 24 112 764
f 509 398 495
f 509 760 398
f 604 327 15
f 604 83 327
f 733 609 205
f 383 53 416
f 53 564 416
f 24 383 416
f 416 112 24
f 416 616 112
f 524 609 733
f 53 609 524
f 524 564 53
f 44 604 15
f 641 398 44
f 398 609 44
f 83 604 44
f 44 609 186
f 186 83 44
f 606 243 641
f 641 44 606
f 606 44 327
f 372 179 369
f 28 469 546
f 437 692 30
f 30 692 726
f 30 22 591
f 30 726 473
f 473 22 30
f 357 437 478
f 52 676 670
f 501 676 736
f 544 318 508
f 318 718 508
f 584 583 67
f 670 510 513
f 513 280 670
f 305 182 222
f 567 377 446
f 446 377 388
f 388 182 682
f 682 446 388
f 367 498 397
f 481 71 389
f 711 522 223
f 544 4 711
f 223 281 711
f 711 761 544
f 711 281 761
f 460 136 584
f 234 136 460
f 269 136 234
f 757 136 269
f 683 329 685
f 685 501 683
f 685 284 501
f 485 329 238
f 485 685 329
f 438 373 523
f 523 511 438
f 523 373 690
f 250 373 438
f 438 748 250
f 250 748 618
f 618 507 250
f 250 507 373
f 420 258 379
f 324 258 66
f 458 21 663
f 84 21 458
f 663 64 458
f 414 21 59
f 666 548 29
f 306 587 88
f 320 145 88
f 382 145 214
f 29 548 645
f 420 276 571
f 620 571 276
f 420 21 216
f 216 276 420
f 216 21 414
f 235 475 378
f 687 573 265
f 459 585 54
f 54 479 459
f 2 259 128
f 123 259 2
f 2 87 123
f 2 523 690
f 2 636 511
f 128 636 2
f 511 523 2
f 344 105 300
f 561 300 105
f 561 362 448
f 561 105 362
f 644 55 647
f 647 403 644
f 376 403 77
f 740 605 324
f 671 307 740
f 662 247 188
f 662 721 247
f 158 721 662
f 188 369 662
f 277 308 579
f 579 537 277
f 225 560 202
f 101 202 308
f 101 16 752
f 101 308 277
f 721 537 254
f 135 721 158
f 158 537 135
f 135 537 721
f 419 254 537
f 207 277 472
f 207 101 277
f 16 101 207
f 448 704 528
f 704 752 528
f 671 680 371
f 293 671 371
f 116 299 683
f 41 329 368
f 41 399 329
f 580 238 41
f 238 399 41
f 46 160 470
f 551 192 518
f 518 192 710
f 586 490 640
f 586 554 490
f 608 449 717
f 473 726 608
f 726 692 608
f 608 437 357
f 608 692 437
f 95 289 514
f 95 154 289
f 597 154 95
f 717 289 162
f 493 154 130
f 237 16 702
f 687 165 506
f 578 248 552
f 552 427 578
f 552 248 344
f 317 759 410
f 359 165 687
f 687 427 359
f 359 427 165
f 639 479 233
f 233 47 639
f 639 459 479
f 18 355 429
f 729 730 429
f 18 750 722
f 722 750 81
f 722 305 222
f 280 305 722
f 81 280 722
f 488 331 43
f 729 331 488
f 488 730 729
f 48 121 517
f 331 121 48
f 517 649 48
f 177 133 659
f 649 177 191
f 191 142 316
f 191 177 142
f 641 708 326
f 708 674 326
f 181 209 326
f 72 294 142
f 495 294 72
f 142 177 72
f 251 390 267
f 267 211 251
f 408 602 412
f 412 70 408
f 408 70 243
f 404 70 412
f 412 436 404
f 245 624 455
f 81 624 120
f 624 245 120
f 120 245 200
f 176 137 698
f 176 698 598
f 176 140 668
f 668 140 315
f 315 176 668
f 137 176 315
f 315 622 710
f 113 705 710
f 710 256 113
f 113 256 705
f 347 131 10
f 10 86 678
f 131 86 10
f 477 287 554
f 228 131 311
f 228 86 131
f 130 347 338
f 347 10 338
f 613 267 295
f 613 211 267
f 139 613 295
f 139 283 175
f 295 512 139
f 512 283 139
f 380 83 186
f 186 390 380
f 380 253 642
f 390 253 380
f 733 205 611
f 611 205 1
f 1 616 611
f 15 327 623
f 623 44 15
f 327 44 623
f 243 606 23
f 558 606 327
f 327 83 558
f 83 380 558
f 540 537 158
f 540 662 35
f 158 662 540
f 110 22 473
f 473 369 110
f 110 369 188
f 188 761 110
f 761 22 110
f 49 478 437
f 60 478 49
f 542 30 591
f 542 591 615
f 357 478 360
f 360 608 357
f 449 608 360
f 501 736 749
f 157 749 736
f 457 291 415
f 97 583 584
f 584 37 97
f 97 37 735
f 97 4 583
f 699 4 544
f 7 67 583
f 144 601 567
f 567 446 144
f 144 682 601
f 446 682 144
f 510 601 631
f 601 682 631
f 631 513 510
f 455 498 559
f 498 367 559
f 12 367 397
f 36 395 12
f 397 70 12
f 12 723 36
f 70 404 12
f 436 723 12
f 12 404 436
f 584 402 400
f 400 37 584
f 584 67 406
f 406 460 584
f 689 284 297
f 284 685 297
f 199 114 342
f 342 238 199
f 342 485 238
f 342 114 198
f 159 701 324
f 324 66 159
f 507 168 630
f 630 332 507
f 588 568 630
f 352 382 593
f 593 21 352
f 593 59 21
f 29 645 210
f 420 571 634
f 147 276 382
f 147 620 276
f 382 214 147
f 475 658 335
f 335 378 475
f 282 235 82
f 87 2 592
f 605 740 592
f 592 2 690
f 123 87 592
f 690 164 592
f 592 164 605
f 592 307 123
f 592 740 307
f 241 300 230
f 5 16 237
f 376 77 483
f 448 376 483
f 483 629 448
f 166 568 588
f 333 740 324
f 324 701 333
f 333 701 431
f 671 740 333
f 333 680 671
f 431 680 333
f 612 579 560
f 418 579 612
f 187 579 418
f 537 579 187
f 187 418 293
f 293 371 187
f 187 371 497
f 497 751 187
f 187 751 318
f 318 419 187
f 187 419 537
f 603 752 704
f 704 55 603
f 225 202 603
f 603 644 225
f 603 55 644
f 476 318 20
f 476 419 318
f 20 732 476
f 732 632 476
f 476 632 236
f 236 63 476
f 68 680 431
f 68 371 680
f 497 371 68
f 405 116 683
f 4 699 409
f 583 4 409
f 754 116 753
f 299 116 754
f 754 106 299
f 625 718 318
f 625 106 718
f 762 106 204
f 299 106 762
f 31 637 497
f 462 41 368
f 368 329 462
f 462 329 683
f 683 201 462
f 411 518 622
f 36 518 411
f 622 315 411
f 411 315 140
f 140 176 411
f 411 176 598
f 720 518 36
f 36 723 720
f 720 436 482
f 720 723 436
f 710 622 401
f 401 518 710
f 622 518 401
f 551 518 435
f 640 627 337
f 337 627 433
f 337 433 675
f 130 287 464
f 464 493 130
f 134 493 464
f 154 493 614
f 289 154 614
f 614 162 289
f 614 493 134
f 454 759 317
f 454 129 11
f 454 11 304
f 78 552 344
f 344 300 78
f 91 410 759
f 687 410 91
f 372 369 547
f 547 369 473
f 89 355 729
f 729 429 89
f 89 429 355
f 348 355 18
f 18 722 348
f 18 429 504
f 504 429 730
f 331 48 530
f 747 447 331
f 177 659 231
f 684 760 231
f 181 191 474
f 474 209 181
f 495 72 466
f 466 72 731
f 257 72 177
f 731 72 257
f 180 251 211
f 180 385 253
f 180 253 390
f 390 251 180
f 599 245 455
f 200 245 599
f 698 137 384
f 313 698 384
f 351 189 597
f 597 151 351
f 151 478 351
f 351 478 60
f 137 315 102
f 646 61 80
f 287 477 746
f 746 477 554
f 554 621 85
f 85 562 554
f 85 531 562
f 554 287 467
f 467 621 554
f 467 287 130
f 130 338 467
f 678 86 467
f 361 621 693
f 693 613 361
f 361 85 621
f 562 531 17
f 531 139 17
f 175 562 17
f 17 139 175
f 167 139 531
f 613 139 167
f 499 23 218
f 218 23 606
f 606 558 212
f 111 380 642
f 111 558 380
f 111 212 558
f 656 503 40
f 40 49 656
f 656 49 28
f 137 503 741
f 503 656 741
f 741 384 137
f 741 28 546
f 741 656 28
f 313 384 741
f 437 30 590
f 590 49 437
f 30 542 590
f 590 542 49
f 60 49 519
f 519 49 40
f 519 646 60
f 519 61 646
f 471 542 615
f 615 469 471
f 469 28 471
f 28 49 471
f 49 542 471
f 596 360 478
f 289 360 596
f 514 289 596
f 330 157 736
f 389 71 330
f 71 400 330
f 330 400 402
f 749 157 132
f 501 749 132
f 132 757 501
f 132 136 757
f 598 698 260
f 291 457 321
f 321 457 415
f 415 291 69
f 69 407 415
f 670 81 69
f 81 407 69
f 544 508 655
f 655 699 544
f 345 12 395
f 345 395 36
f 367 12 345
f 115 521 711
f 724 521 71
f 71 481 724
f 685 485 215
f 485 342 215
f 373 507 688
f 507 332 688
f 588 630 184
f 184 630 168
f 13 386 197
f 197 379 13
f 197 386 664
f 88 548 463
f 548 302 463
f 463 666 88
f 463 302 666
f 548 666 285
f 285 302 548
f 666 302 285
f 417 666 29
f 489 258 420
f 392 417 213
f 201 299 213
f 299 762 213
f 33 210 645
f 160 657 33
f 33 470 160
f 201 210 33
f 657 462 33
f 33 462 201
f 587 634 249
f 88 587 249
f 249 634 571
f 249 320 88
f 433 627 700
f 640 32 700
f 700 627 640
f 153 335 658
f 378 335 153
f 576 486 265
f 717 162 353
f 353 312 717
f 263 207 472
f 237 230 496
f 496 5 237
f 270 561 448
f 16 5 270
f 270 496 561
f 5 496 270
f 448 528 270
f 752 16 270
f 270 528 752
f 568 166 73
f 73 166 164
f 73 164 690
f 560 579 520
f 520 190 560
f 126 202 560
f 560 190 126
f 252 101 752
f 752 603 252
f 202 101 252
f 252 603 202
f 683 67 442
f 442 405 683
f 718 106 440
f 583 409 440
f 440 7 583
f 106 754 440
f 318 637 725
f 725 625 318
f 194 725 637
f 106 625 194
f 194 45 106
f 204 106 572
f 106 45 572
f 45 58 572
f 572 58 652
f 701 303 366
f 461 720 482
f 518 720 461
f 482 385 461
f 385 180 461
f 461 435 518
f 356 648 134
f 356 665 648
f 554 665 356
f 356 746 554
f 287 746 356
f 134 464 356
f 356 464 287
f 719 586 640
f 554 586 719
f 134 648 441
f 648 337 441
f 441 337 675
f 441 426 162
f 441 614 134
f 162 614 441
f 339 454 304
f 556 578 339
f 759 454 339
f 339 91 759
f 279 454 317
f 317 410 279
f 279 410 687
f 687 265 279
f 265 500 279
f 669 454 208
f 129 454 669
f 208 639 669
f 529 500 265
f 265 486 529
f 529 486 500
f 208 486 156
f 585 459 156
f 156 639 208
f 459 639 156
f 156 658 585
f 272 486 208
f 500 486 272
f 492 573 687
f 687 506 492
f 578 427 654
f 654 91 578
f 654 427 687
f 687 91 654
f 473 608 533
f 533 608 717
f 473 533 322
f 745 533 717
f 107 353 589
f 312 353 107
f 18 504 56
f 56 504 319
f 127 488 43
f 221 530 48
f 181 326 221
f 674 530 221
f 221 326 674
f 331 530 92
f 92 747 331
f 684 231 232
f 232 231 659
f 274 191 316
f 274 474 191
f 177 653 430
f 430 257 177
f 430 653 509
f 430 509 495
f 672 180 211
f 672 192 551
f 551 435 672
f 710 192 672
f 435 461 672
f 672 461 180
f 672 693 710
f 672 613 693
f 211 613 672
f 367 345 451
f 597 189 452
f 452 727 597
f 256 727 452
f 452 102 256
f 370 102 315
f 710 705 370
f 370 315 710
f 705 256 370
f 256 102 370
f 646 80 570
f 570 80 137
f 570 452 189
f 137 102 570
f 102 452 570
f 679 467 86
f 621 467 679
f 642 602 421
f 602 23 421
f 421 23 499
f 277 537 715
f 537 706 715
f 50 540 35
f 50 715 706
f 755 322 533
f 533 745 755
f 755 547 473
f 473 322 755
f 227 736 676
f 227 330 736
f 546 734 358
f 358 741 546
f 313 741 358
f 313 358 240
f 240 358 734
f 389 330 491
f 491 330 527
f 491 3 389
f 527 240 491
f 491 240 734
f 546 3 491
f 491 734 546
f 415 407 365
f 75 120 200
f 75 451 345
f 314 69 291
f 76 698 313
f 76 260 698
f 422 345 36
f 260 75 422
f 422 75 345
f 434 115 711
f 434 711 4
f 434 97 735
f 4 97 434
f 711 521 744
f 521 724 744
f 117 198 288
f 117 286 198
f 288 661 117
f 117 661 284
f 117 284 689
f 173 342 198
f 173 215 342
f 198 286 173
f 183 184 168
f 168 386 183
f 386 13 183
f 183 13 324
f 324 605 183
f 171 379 197
f 197 664 171
f 420 379 171
f 171 21 420
f 663 21 171
f 618 663 171
f 171 507 618
f 171 168 507
f 465 417 29
f 714 417 465
f 515 489 536
f 652 31 515
f 515 31 638
f 309 159 66
f 258 489 309
f 701 159 309
f 309 303 701
f 201 213 709
f 709 213 417
f 709 417 714
f 714 465 709
f 709 465 29
f 666 417 424
f 88 666 424
f 424 213 88
f 90 489 420
f 536 489 90
f 204 536 90
f 90 762 204
f 90 213 762
f 88 213 90
f 229 700 32
f 229 82 235
f 235 700 229
f 675 433 26
f 433 161 26
f 26 441 675
f 378 153 716
f 235 378 716
f 552 78 206
f 350 242 300
f 300 241 350
f 715 50 292
f 763 702 16
f 16 207 763
f 207 263 763
f 230 300 273
f 300 561 273
f 77 423 387
f 387 483 77
f 93 647 55
f 55 423 93
f 328 442 67
f 405 442 328
f 753 713 328
f 328 7 753
f 67 7 328
f 753 116 428
f 428 713 753
f 718 440 541
f 541 440 409
f 541 508 718
f 541 655 508
f 541 409 699
f 699 655 541
f 725 194 99
f 96 536 204
f 204 572 96
f 96 515 536
f 96 572 652
f 652 515 96
f 701 366 65
f 65 31 497
f 638 31 65
f 65 366 638
f 497 68 65
f 431 701 65
f 65 68 431
f 648 665 38
f 38 337 648
f 38 665 554
f 554 719 38
f 640 337 38
f 38 719 640
f 578 91 261
f 261 339 578
f 91 339 261
f 486 576 712
f 712 156 486
f 658 156 712
f 574 265 573
f 573 492 574
f 505 394 9
f 505 576 265
f 265 394 505
f 143 673 138
f 138 506 165
f 673 456 138
f 165 427 138
f 427 552 138
f 552 206 138
f 717 312 595
f 312 107 595
f 107 255 595
f 595 745 717
f 595 255 577
f 18 56 25
f 25 56 319
f 730 488 155
f 488 127 155
f 319 504 141
f 747 92 27
f 708 447 27
f 447 747 27
f 569 559 367
f 367 451 569
f 455 559 569
f 278 111 642
f 642 421 278
f 212 111 278
f 543 292 50
f 540 50 374
f 374 50 706
f 537 540 374
f 374 706 537
f 516 755 150
f 150 755 745
f 527 330 100
f 676 52 487
f 52 240 487
f 487 227 676
f 487 240 527
f 527 100 487
f 313 240 124
f 124 76 313
f 321 76 124
f 124 240 52
f 291 321 124
f 124 314 291
f 79 75 260
f 120 75 79
f 79 407 81
f 81 120 79
f 365 79 103
f 103 79 260
f 415 365 103
f 598 260 174
f 260 422 174
f 174 411 598
f 36 411 174
f 174 422 36
f 303 309 14
f 14 309 489
f 14 366 303
f 638 366 14
f 626 66 258
f 258 309 626
f 626 309 66
f 392 213 98
f 213 424 98
f 420 306 239
f 239 90 420
f 239 306 88
f 88 90 239
f 441 26 334
f 334 26 161
f 581 700 235
f 235 716 581
f 433 700 581
f 581 161 433
f 581 334 161
f 589 353 691
f 691 525 589
f 242 350 391
f 550 263 472
f 550 292 263
f 472 277 550
f 277 715 550
f 263 292 8
f 143 263 8
f 8 673 143
f 439 263 143
f 439 763 263
f 237 763 439
f 237 702 502
f 502 763 237
f 702 763 502
f 561 496 42
f 42 273 561
f 42 496 230
f 230 273 42
f 484 423 55
f 484 387 423
f 152 194 625
f 152 99 194
f 658 712 118
f 9 275 325
f 325 505 9
f 346 394 265
f 265 574 346
f 346 425 394
f 346 574 492
f 346 492 220
f 394 425 534
f 516 577 125
f 125 255 516
f 577 255 125
f 413 456 673
f 413 346 456
f 425 346 413
f 506 138 396
f 396 138 456
f 396 492 506
f 220 492 396
f 143 138 104
f 104 391 143
f 242 391 104
f 319 141 219
f 81 319 219
f 219 127 43
f 43 624 219
f 219 624 81
f 298 599 455
f 455 569 298
f 756 179 372
f 755 203 650
f 330 227 677
f 677 100 330
f 227 487 677
f 677 487 100
f 260 76 694
f 694 103 260
f 694 76 321
f 694 321 415
f 415 103 694
f 39 581 716
f 334 581 39
f 589 525 349
f 525 19 349
f 195 19 525
f 441 19 195
f 426 441 195
f 715 292 532
f 532 550 715
f 292 550 532
f 697 203 149
f 697 650 203
f 543 650 697
f 292 543 697
f 336 534 255
f 443 534 425
f 425 203 443
f 179 756 170
f 170 756 543
f 170 543 50
f 589 39 651
f 651 107 589
f 651 39 716
f 673 8 743
f 149 203 172
f 122 8 292
f 292 697 122
f 255 381 343
f 343 336 255
f 516 255 686
f 686 755 516
f 686 203 755
f 255 534 450
f 450 443 255
f 534 443 450
f 107 651 196
f 196 255 107
f 196 381 255
f 660 343 381
f 660 153 658
f 660 325 275
f 658 118 660
f 660 712 576
f 660 118 712
f 163 651 716
f 163 716 153
f 526 681 673
f 673 743 526
f 301 172 673
f 673 681 301
f 9 336 244
f 336 343 244
f 244 275 9
f 244 660 275
f 343 660 244
f 255 443 217
f 217 686 255
f 217 443 203
f 203 686 217
f 153 660 51
f 51 163 153
f 51 660 381
f 565 196 651
f 651 163 565
f 381 196 565
f 565 51 381
f 163 51 565
f 149 172 696
f 172 301 737
f 737 696 172
f 661 445 284
f 288 445 661
f 635 341 121
f 310 555 121
f 121 566 310
f 264 619 121
f 758 494 121
f 121 555 74
f 74 264 121
f 121 341 566
f 553 340 121
f 121 453 635
f 619 517 121
f 121 226 553
f 121 633 453
f 121 340 185
f 185 633 121
f 121 494 226
f 764 112 271
f 271 62 764
f 205 609 398
f 398 1 205
f 458 64 352
f 352 84 458
f 632 318 544
f 20 318 632
f 544 236 632
f 632 732 20
f 616 416 611
f 611 524 733
f 611 416 564
f 564 524 611
f 602 408 23
f 23 408 243
f 289 449 360
f 631 305 280
f 280 513 631
f 182 305 631
f 631 682 182
f 234 460 406
f 683 757 406
f 406 269 234
f 406 67 683
f 757 269 406
f 382 276 593
f 593 216 414
f 414 59 593
f 276 216 593
f 587 306 634
f 634 306 420
f 612 480 418
f 560 262 612
f 375 480 612
f 612 262 375
f 254 419 476
f 538 721 476
f 476 643 538
f 63 643 476
f 721 254 476
f 462 160 580
f 580 41 462
f 462 657 160
f 385 707 642
f 482 707 385
f 642 253 385
f 388 355 348
f 348 222 388
f 348 722 222
f 760 509 231
f 231 653 177
f 509 653 231
f 467 10 678
f 467 338 10
f 531 85 167
f 167 361 613
f 85 361 167
f 519 503 137
f 40 503 519
f 137 80 519
f 519 80 61
f 596 95 514
f 596 478 151
f 596 151 597
f 597 95 596
f 132 402 584
f 584 136 132
f 132 330 402
f 157 330 132
f 13 379 258
f 13 258 324
f 323 46 33
f 33 548 323
f 33 645 548
f 46 470 33
f 145 320 249
f 571 620 249
f 249 214 145
f 249 147 214
f 620 147 249
f 73 630 568
f 690 373 73
f 332 630 73
f 373 688 73
f 73 688 332
f 308 202 126
f 126 579 308
f 126 520 579
f 190 520 126
f 440 754 753
f 753 7 440
f 58 31 652
f 45 194 58
f 58 194 637
f 637 31 58
f 304 575 339
f 575 582 339
f 339 148 556
f 339 582 148
f 11 129 669
f 669 639 47
f 669 47 11
f 272 279 500
f 208 454 272
f 454 279 272
f 649 191 221
f 221 48 649
f 221 191 181
f 232 659 133
f 557 739 232
f 739 610 232
f 232 193 557
f 178 193 232
f 232 610 684
f 232 133 178
f 316 142 274
f 274 294 641
f 142 294 274
f 641 326 274
f 274 326 209
f 209 474 274
f 731 257 430
f 495 466 430
f 430 466 731
f 570 351 60
f 60 646 570
f 189 351 570
f 693 621 679
f 311 693 679
f 679 228 311
f 86 228 679
f 735 37 434
f 434 400 71
f 37 400 434
f 71 521 434
f 521 115 434
f 744 481 389
f 389 522 744
f 522 711 744
f 744 724 481
f 173 117 689
f 689 297 173
f 173 297 685
f 685 215 173
f 286 117 173
f 605 164 183
f 183 166 588
f 164 166 183
f 588 184 183
f 171 664 386
f 171 386 168
f 709 210 201
f 29 210 709
f 282 82 229
f 229 32 282
f 93 77 403
f 403 647 93
f 93 423 77
f 405 328 428
f 116 405 428
f 428 328 713
f 25 750 18
f 81 750 25
f 25 319 81
f 27 92 530
f 27 674 708
f 27 530 674
f 499 218 278
f 606 212 278
f 278 218 606
f 278 421 499
f 150 595 577
f 150 577 516
f 745 595 150
f 670 69 124
f 124 52 670
f 69 314 124
f 79 365 407
f 489 515 14
f 14 515 638
f 98 424 417
f 98 417 392
f 439 241 230
f 439 230 237
f 143 391 439
f 439 350 241
f 439 391 350
f 629 483 484
f 55 629 484
f 483 387 484
f 725 99 152
f 625 725 152
f 456 346 396
f 396 346 220
f 300 242 104
f 104 78 300
f 104 206 78
f 104 138 206
f 730 155 219
f 219 504 730
f 219 155 127
f 219 141 504
f 298 75 200
f 200 599 298
f 451 75 298
f 298 569 451
f 547 755 650
f 372 547 650
f 650 756 372
f 543 756 650
f 349 39 589
f 349 19 441
f 441 334 349
f 334 39 349
f 162 426 195
f 195 353 162
f 195 691 353
f 525 691 195
f 394 534 336
f 9 394 336
f 170 369 179
f 35 662 170
f 170 662 369
f 170 50 35
f 172 413 673
f 172 203 425
f 425 413 172
f 505 325 660
f 576 505 660
f 737 697 149
f 681 526 737
f 737 743 8
f 8 122 737
f 737 122 697
f 737 526 743
f 737 301 681
f 149 696 737

