# https://github.com/mikedh/trimesh
v -0.00965476 0.02667973 0.00604904
v -0.00501294 0.02682649 0.00593075
v -0.02232259 0.02724734 0.00050117
v -0.01082695 0.02523254 0.00865808
v -0.01841095 0.02614871 0.00634055
v -0.00066968 0.02751968 0.00195540
v -0.01255198 0.02653982 0.00628902
v -0.01690811 0.02546413 0.00805614
v -0.01057255 0.02558524 0.00813463
v -0.00776502 0.02638793 0.00686270
v -0.02286998 0.02513815 0.00795982
v -0.02369981 0.02718247 0.00030691
v -0.01674624 0.02611130 0.00692258
v -0.02104775 0.02503770 0.00844317
v -0.01501524 0.02754019 0.00016067
v -0.01929620 0.02600633 0.00657214
v -0.02261683 0.02722691 0.00050728
v -0.01744548 0.02629561 0.00607955
v -0.01845497 0.02598095 0.00690447
v -0.01827590 0.02502946 0.00860769
v -0.02068581 0.02635534 0.00493972
v -0.00854839 0.02635386 0.00690425
v -0.01880664 0.02636462 0.00548296
v -0.01970682 0.02568283 0.00744826
v -0.01288167 0.02682162 0.00483456
v -0.00004238 0.02709627 0.00520910
v -0.02480765 0.02639545 0.00300885
v -0.02136936 0.02676873 0.00304530
v -0.00457402 0.02690394 0.00572923
v -0.00577474 0.02675265 0.00609337
v -0.02028432 0.02520168 0.00823682
v -0.01040976 0.02615419 0.00720373
v -0.02099315 0.02529788 0.00798775
v -0.00738101 0.02570808 0.00801876
v -0.00780638 0.02577878 0.00789181
v -0.00479988 0.02500914 0.00917109
v -0.00185516 0.02518762 0.00886732
v -0.00692517 0.02636593 0.00691132
v -0.00504169 0.02655134 0.00661223
v -0.02215362 0.02634952 0.00447467
v -0.01659853 0.02614559 0.00686629
v -0.00577308 0.02611241 0.00735237
v -0.00152707 0.02747378 0.00221112
v -0.00233288 0.02684229 0.00599572
v -0.00496733 0.02520162 0.00888680
v -0.01650236 0.02536295 0.00822072
v -0.00088750 0.02512166 0.00894839
v -0.01881791 0.02554139 0.00779673
v -0.01336359 0.02713628 0.00315209
v -0.01382926 0.02728032 0.00213633
v -0.01170579 0.02636249 0.00674573
v -0.00034331 0.02771763 0.00024968
v -0.02429086 0.02598458 0.00499832
v -0.01904766 0.02652714 0.00471283
v -0.01310017 0.02745875 0.00103174
v -0.00603795 0.02586072 0.00777556
v -0.02487163 0.02713730 0.00004055
v -0.01356737 0.02728743 0.00214135
v -0.02280697 0.02720603 0.00053837
v -0.01967507 0.02581175 0.00705717
v -0.01832441 0.02741115 0.00028645
v -0.00037023 0.02673397 0.00634762
v -0.02479265 0.02506649 0.00754994
v -0.00689180 0.02545669 0.00844872
v -0.01112790 0.02591179 0.00759886
v -0.01219438 0.02639667 0.00664601
f 15 52 57
f 57 52 47
f 47 52 26
f 57 47 63
f 63 47 36
f 26 52 6
f 52 15 6
f 62 47 26
f 26 44 62
f 55 6 15
f 57 63 27
f 53 63 24
f 53 27 63
f 57 27 53
f 61 15 57
f 57 3 61
f 61 3 15
f 28 7 3
f 24 63 11
f 63 14 11
f 29 44 26
f 26 49 29
f 30 62 44
f 26 6 43
f 43 55 26
f 6 55 43
f 58 55 15
f 58 49 26
f 26 55 58
f 23 7 54
f 54 28 23
f 7 28 54
f 33 14 24
f 24 11 33
f 33 11 14
f 47 62 37
f 62 45 37
f 36 47 37
f 37 45 36
f 41 19 24
f 60 53 24
f 23 28 21
f 25 29 49
f 25 49 3
f 3 7 25
f 62 30 39
f 39 30 7
f 44 29 2
f 2 30 44
f 2 29 7
f 7 30 2
f 15 3 50
f 50 58 15
f 3 49 50
f 49 58 50
f 12 3 57
f 57 28 12
f 28 59 12
f 17 28 3
f 17 59 28
f 3 12 17
f 17 12 59
f 14 8 31
f 8 46 4
f 36 45 4
f 48 31 8
f 24 14 48
f 14 31 48
f 13 8 65
f 13 48 8
f 13 41 24
f 24 48 13
f 41 13 51
f 10 39 51
f 18 7 23
f 23 41 18
f 18 41 7
f 5 41 23
f 19 41 5
f 16 21 53
f 53 60 16
f 23 21 16
f 24 19 16
f 16 60 24
f 53 21 40
f 57 53 40
f 40 21 28
f 40 28 57
f 7 29 1
f 1 25 7
f 29 25 1
f 62 39 38
f 38 39 10
f 10 34 38
f 38 34 56
f 35 34 10
f 64 4 45
f 64 35 65
f 34 35 64
f 56 34 64
f 64 45 62
f 62 56 64
f 65 8 9
f 8 4 9
f 9 64 65
f 4 64 9
f 36 4 20
f 20 63 36
f 20 14 63
f 20 4 46
f 20 8 14
f 20 46 8
f 32 13 65
f 32 51 13
f 66 39 7
f 66 51 39
f 7 41 66
f 41 51 66
f 42 56 62
f 62 38 42
f 42 38 56
f 10 51 22
f 51 32 22
f 19 5 16
f 16 5 23
f 22 35 10
f 65 35 22
f 22 32 65

