# https://github.com/mikedh/trimesh
v 0.08117761 -0.01238211 0.05062620
v 0.08593211 -0.02388334 0.05076757
v 0.08210782 -0.01272603 0.05120624
v 0.07801625 -0.02484842 0.05983721
v 0.07541538 -0.00552708 0.05264076
v 0.07616049 -0.02485819 0.05757292
v 0.08392536 -0.01476608 0.05143395
v 0.08830641 -0.02327927 0.05205117
v 0.08030818 -0.02084650 0.06285812
v 0.07758059 -0.00888269 0.05002902
v 0.07502485 -0.00838764 0.05868784
v 0.07764971 -0.02008663 0.06199108
v 0.08139159 -0.02296429 0.06283112
v 0.07870463 -0.00734647 0.05230106
v 0.07572702 -0.01939671 0.06115413
v 0.07524401 -0.02391723 0.05769193
v 0.07783202 -0.02117623 0.06177423
v 0.08680946 -0.02108726 0.05085729
v 0.08723319 -0.01982908 0.05149087
v 0.08857065 -0.02006389 0.05270190
v 0.08217633 -0.01374151 0.05058498
v 0.08672940 -0.02343389 0.06331738
v 0.07686284 -0.02366834 0.05113050
v 0.08329616 -0.02357872 0.06322615
v 0.08971348 -0.02219568 0.06109438
v 0.08924851 -0.02211512 0.05278885
v 0.08949631 -0.01858698 0.05629862
v 0.08295509 -0.01395567 0.05110062
v 0.08261010 -0.02322079 0.06314259
v 0.08982266 -0.01927643 0.05546406
v 0.08524306 -0.02492037 0.05113189
v 0.07959419 -0.00766410 0.05360594
v 0.08884067 -0.01793445 0.05699444
v 0.08703644 -0.02353772 0.05121410
v 0.08381328 -0.02235879 0.06340221
v 0.07865172 -0.02193582 0.06195681
v 0.08874224 -0.02224795 0.05231624
v 0.07723741 -0.02335646 0.05056281
v 0.08180315 -0.02362327 0.06280642
v 0.08530019 -0.01489527 0.05294564
v 0.07816759 -0.00686790 0.05466794
v 0.09127640 -0.02476836 0.05621038
v 0.08683599 -0.02234067 0.05088882
v 0.07670237 -0.02284620 0.05027023
v 0.08859216 -0.01883434 0.05357008
v 0.07921977 -0.02373657 0.05017250
v 0.09087657 -0.02079944 0.05600191
v 0.07714901 -0.02499786 0.05285533
v 0.07939925 -0.00816931 0.05726064
v 0.08003058 -0.00787146 0.05542730
v 0.07926733 -0.01091736 0.05004283
v 0.08828152 -0.01805467 0.05389856
v 0.08502694 -0.01531308 0.05214242
v 0.07738416 -0.02399702 0.05996265
v 0.08302537 -0.01589700 0.05003375
v 0.08635482 -0.02118115 0.05054154
v 0.08848741 -0.01934300 0.05303397
v 0.07964448 -0.02226476 0.06234825
v 0.08276741 -0.02493949 0.05078120
v 0.09140446 -0.02227896 0.05589975
v 0.08379552 -0.02332588 0.06335043
v 0.07908444 -0.02333221 0.06163104
v 0.08345866 -0.02426343 0.05029120
v 0.08422219 -0.01600688 0.05088314
v 0.09217105 -0.02370122 0.05852946
v 0.07583034 -0.00859413 0.05893959
v 0.08570367 -0.01935716 0.05048086
v 0.08703612 -0.02360166 0.06328423
v 0.07578114 -0.01697256 0.06184544
v 0.07624335 -0.00828633 0.05837545
v 0.09011073 -0.02422195 0.06190781
v 0.07501495 -0.00957646 0.06036050
v 0.08376818 -0.02409594 0.05020787
v 0.08331800 -0.02121234 0.06327234
v 0.09132781 -0.02255842 0.05561032
v 0.09165386 -0.02280685 0.05627888
v 0.07500649 -0.00690521 0.05634380
v 0.08380391 -0.02416992 0.05025993
v 0.08622273 -0.02022581 0.05059721
v 0.09170662 -0.02331693 0.05630998
v 0.07813332 -0.02224833 0.06153156
v 0.08938128 -0.02177801 0.05297767
v 0.08669361 -0.02368199 0.05107052
v 0.07887128 -0.02396988 0.05054870
v 0.08208273 -0.02414677 0.05010701
v 0.09031364 -0.01964496 0.05697375
v 0.08839417 -0.01760581 0.05479190
v 0.07830446 -0.02457289 0.05147882
v 0.07599124 -0.01607701 0.06204716
v 0.07790851 -0.00895917 0.05911929
v 0.08938094 -0.01985359 0.05387549
v 0.08786379 -0.02054595 0.05181339
v 0.07894987 -0.02203533 0.06208067
v 0.08405160 -0.02473125 0.06310339
v 0.08890072 -0.02276279 0.05246303
v 0.08280544 -0.01418911 0.05081647
v 0.08852711 -0.02144131 0.05218683
v 0.08677335 -0.02304200 0.05093013
v 0.08100696 -0.02471428 0.05073215
v 0.07563053 -0.01327544 0.06207725
v 0.08682180 -0.02130466 0.06241150
v 0.08221124 -0.02478683 0.06253899
v 0.08883067 -0.01803632 0.05505499
v 0.08209809 -0.02234755 0.06315281
v 0.07580472 -0.02410427 0.05251102
v 0.07818836 -0.02466738 0.05167088
v 0.09076283 -0.02059557 0.05833797
v 0.07615268 -0.01052665 0.06138285
v 0.08108222 -0.02486340 0.06198042
v 0.08372288 -0.02193953 0.06336309
v 0.07908963 -0.02436429 0.06107054
v 0.08764396 -0.01937656 0.05207836
v 0.07709218 -0.02326517 0.05053168
v 0.07535007 -0.01949869 0.06084646
v 0.07502538 -0.02119466 0.05977869
v 0.08108068 -0.00957160 0.05309438
v 0.09011479 -0.01938397 0.05677746
v 0.07730250 -0.00900360 0.05930812
v 0.09074157 -0.02205614 0.06005387
v 0.08661461 -0.01890165 0.05137274
v 0.08592730 -0.01906080 0.05075327
v 0.08644318 -0.01819003 0.05157054
v 0.07934564 -0.00760892 0.05576644
v 0.08724157 -0.02368225 0.05139092
v 0.08946897 -0.02195850 0.05305242
v 0.07809643 -0.02469881 0.05176356
v 0.09168907 -0.02215424 0.05887367
v 0.08497537 -0.02208088 0.06331299
v 0.08322997 -0.01300202 0.05215656
v 0.08623900 -0.01992077 0.05070162
v 0.08496538 -0.01815362 0.05038183
v 0.08838503 -0.02307162 0.05207278
v 0.08081975 -0.02345522 0.06248335
v 0.07854777 -0.00749231 0.05187299
v 0.08998013 -0.02408896 0.05387421
v 0.08984910 -0.01904976 0.05643880
v 0.08897343 -0.02304532 0.05255331
v 0.08677211 -0.01738178 0.05241745
v 0.07580240 -0.01833060 0.06153894
v 0.07700858 -0.00984587 0.06057286
v 0.08707245 -0.01611036 0.05443750
v 0.09132053 -0.02143297 0.05648398
v 0.08892972 -0.02137074 0.05258124
v 0.07637188 -0.02238607 0.06021363
v 0.07561161 -0.02483235 0.05429451
v 0.08848229 -0.02112387 0.05221273
v 0.07932882 -0.00782432 0.05647349
v 0.07847419 -0.00826544 0.05111248
v 0.08070608 -0.02392830 0.05004398
v 0.07562382 -0.01022592 0.06108005
v 0.08973749 -0.02330756 0.05337983
v 0.08810323 -0.02422446 0.06314622
v 0.07550872 -0.01815706 0.06142990
v 0.08470777 -0.01579048 0.05145246
v 0.08050072 -0.02392113 0.06214534
v 0.08019401 -0.01072110 0.05090571
v 0.08209781 -0.01425707 0.05021388
v 0.08055817 -0.00828844 0.05491545
v 0.07842676 -0.00826573 0.05780896
v 0.07527798 -0.01681168 0.06166511
v 0.07675422 -0.01963430 0.06166350
v 0.07926323 -0.00740782 0.05496480
v 0.08704805 -0.01876963 0.05181667
v 0.08554914 -0.02421351 0.06340272
v 0.08966868 -0.02292988 0.06161959
v 0.08902123 -0.02184299 0.06138742
v 0.08527217 -0.02359320 0.06344620
v 0.07589558 -0.01793118 0.06169209
v 0.09063689 -0.02247836 0.06048832
v 0.07976322 -0.00813046 0.05688207
v 0.08966705 -0.02102666 0.05355309
v 0.08938242 -0.02141841 0.05307105
v 0.07794761 -0.02231906 0.06139235
v 0.09073002 -0.02418035 0.06126670
v 0.09154883 -0.02484202 0.05994503
v 0.09190962 -0.02312351 0.05677056
v 0.08503002 -0.01913348 0.05008242
v 0.08650672 -0.02376528 0.05100398
v 0.07576796 -0.02349427 0.05883004
v 0.08833149 -0.02344341 0.05210203
v 0.08949855 -0.01879992 0.05747541
v 0.08719227 -0.02039950 0.05129363
v 0.07632884 -0.01030684 0.06118093
v 0.07857915 -0.00822135 0.05123871
v 0.08749092 -0.01920088 0.05201308
v 0.08758774 -0.02164203 0.05136936
v 0.07854198 -0.00740387 0.05197284
v 0.08888802 -0.02399941 0.06276470
v 0.08444321 -0.02207048 0.06336821
v 0.08884057 -0.02244686 0.05239743
v 0.09108348 -0.02191244 0.05958849
v 0.08233042 -0.01420890 0.05042150
v 0.07875880 -0.02244525 0.06181594
v 0.09168663 -0.02239648 0.05916363
v 0.08702868 -0.02430378 0.05152411
v 0.07627624 -0.02497274 0.05754760
v 0.08163169 -0.00949222 0.05500903
v 0.08378422 -0.01320695 0.05268510
v 0.07878574 -0.00711255 0.05456357
v 0.07896247 -0.02390559 0.06125314
v 0.08033527 -0.01174432 0.05035113
v 0.09091385 -0.02058365 0.05666471
v 0.08297771 -0.01519063 0.05034603
v 0.07802061 -0.00902208 0.05919571
v 0.07555911 -0.01165087 0.06191254
v 0.07834719 -0.02291769 0.06138428
v 0.09217653 -0.02377367 0.05846264
v 0.08476229 -0.01659904 0.05098993
v 0.07624792 -0.00999707 0.06083219
v 0.09107771 -0.02271064 0.05513479
v 0.07691879 -0.01891222 0.06194135
v 0.08164905 -0.02131921 0.06313837
v 0.08015085 -0.02459548 0.06162355
v 0.09113846 -0.02376071 0.05532507
v 0.07829053 -0.02375674 0.06087436
v 0.08691487 -0.01676333 0.05316739
v 0.08378974 -0.01377766 0.05209179
v 0.07739708 -0.02321671 0.06052479
v 0.08533140 -0.01758863 0.05093048
v 0.07925091 -0.00744590 0.05328927
v 0.08985167 -0.02482327 0.05414230
v 0.08985751 -0.01939611 0.05534705
v 0.08438012 -0.02494589 0.06309982
v 0.07620744 -0.01018481 0.06105025
v 0.08903498 -0.01828455 0.05514493
v 0.08067697 -0.02458327 0.05065131
v 0.08867449 -0.02240265 0.06204701
v 0.07630437 -0.02364744 0.05924349
v 0.07584439 -0.01145679 0.06188822
v 0.07668646 -0.00859684 0.05002994
v 0.08051781 -0.02444308 0.05054901
v 0.08468165 -0.02466613 0.06323651
v 0.08036532 -0.02498150 0.05115638
v 0.08553840 -0.02330122 0.05037433
v 0.08736481 -0.01690880 0.05371416
v 0.07661784 -0.02459906 0.05260729
v 0.07965993 -0.00831259 0.05241723
v 0.08067445 -0.02282298 0.06260779
v 0.08877586 -0.01985891 0.05303345
v 0.08534577 -0.02405882 0.05061743
v 0.07642550 -0.02170279 0.06064210
v 0.07633545 -0.00989406 0.06070544
v 0.09122938 -0.02150880 0.05892354
v 0.08956320 -0.02346396 0.05320642
v 0.09154200 -0.02240146 0.05618516
v 0.08806506 -0.01832024 0.05329689
v 0.08681362 -0.01999730 0.05110627
v 0.09036135 -0.02181744 0.05420638
v 0.08549855 -0.02209401 0.05008343
v 0.07931217 -0.02156453 0.06237517
v 0.08859469 -0.01974679 0.06000192
v 0.07547287 -0.01082528 0.06155597
v 0.08473097 -0.02375046 0.05024788
v 0.08102385 -0.02403506 0.06234269
v 0.08652686 -0.02226077 0.05068555
v 0.08065164 -0.00858323 0.05407586
v 0.08764653 -0.01948245 0.06053569
v 0.07719938 -0.02392320 0.05124692
v 0.08765184 -0.02284630 0.05145922
v 0.08034468 -0.00846144 0.05349570
v 0.08335859 -0.01236303 0.05310160
v 0.08904254 -0.02093525 0.05283223
v 0.07766064 -0.02298569 0.05000151
v 0.07775344 -0.02405655 0.05107794
v 0.07917170 -0.00837178 0.05775482
v 0.09011390 -0.01959371 0.05779681
v 0.08853228 -0.02139354 0.06140175
v 0.08974608 -0.02102978 0.06014838
v 0.08970374 -0.02146067 0.06054251
v 0.07776549 -0.00939512 0.05979938
v 0.08308332 -0.01438672 0.05092889
v 0.09035845 -0.02451921 0.06172329
v 0.08947986 -0.02317989 0.05309194
v 0.07510189 -0.00555442 0.05381130
v 0.08032412 -0.00810983 0.05472355
v 0.08056497 -0.00935980 0.05250193
v 0.07837835 -0.01983101 0.06236133
v 0.09104611 -0.02291015 0.05506165
v 0.09064464 -0.02390567 0.06127775
v 0.07993775 -0.00780106 0.05523169
v 0.07568274 -0.00843671 0.05871772
v 0.07961430 -0.02099238 0.06261467
v 0.08830050 -0.02180971 0.05193418
v 0.09192703 -0.02244894 0.05858278
v 0.09043988 -0.02241561 0.05416680
v 0.08438514 -0.01681795 0.05057221
v 0.09144193 -0.02137859 0.05771363
v 0.08810337 -0.02446979 0.06316953
v 0.08054379 -0.02371510 0.06225405
v 0.08370259 -0.01288689 0.05296275
v 0.08596012 -0.02423010 0.06340366
v 0.07923170 -0.00871331 0.05804568
v 0.08970321 -0.02316350 0.06174142
v 0.07519428 -0.02428935 0.05350783
v 0.07870191 -0.00906561 0.05075938
v 0.07802714 -0.02199670 0.06157107
v 0.09049318 -0.02221885 0.05428624
v 0.07553974 -0.01474882 0.06202588
v 0.08871839 -0.02461791 0.05288680
v 0.08593004 -0.02221333 0.06317486
v 0.08855886 -0.01757363 0.05535580
v 0.07507781 -0.01318707 0.06199035
v 0.08253578 -0.02379500 0.06299135
v 0.08708422 -0.01638335 0.05394131
v 0.08732966 -0.02440477 0.05174983
v 0.08475741 -0.01544172 0.05174887
v 0.08997113 -0.02023083 0.05454214
v 0.09054937 -0.02331636 0.05433186
v 0.09150373 -0.02269127 0.05968771
v 0.08707834 -0.01832770 0.05210838
v 0.09212140 -0.02366819 0.05747123
v 0.08631880 -0.02489183 0.05151469
v 0.09116051 -0.02090413 0.05755777
v 0.08457780 -0.01596387 0.05122242
v 0.07884454 -0.00949624 0.05059298
v 0.07598799 -0.01185620 0.06199376
v 0.08614387 -0.01920448 0.05086670
v 0.09047692 -0.02014364 0.05584820
v 0.07571700 -0.02424616 0.05791817
v 0.08666582 -0.02174867 0.05073193
v 0.07504427 -0.02429201 0.05668825
v 0.08974511 -0.02072579 0.05381601
v 0.07651532 -0.02351366 0.05114719
v 0.08016255 -0.02417151 0.06186010
v 0.07686922 -0.02200142 0.06081271
v 0.08881776 -0.01990622 0.05305903
v 0.08868075 -0.01772767 0.05533195
v 0.08085593 -0.01142894 0.05099316
v 0.08182346 -0.02230299 0.06309203
v 0.07717227 -0.02476517 0.05906941
v 0.08936238 -0.02047253 0.05999523
v 0.08311587 -0.02384496 0.06312894
v 0.09003235 -0.01933174 0.05616568
v 0.07674704 -0.01726316 0.06215065
v 0.09084504 -0.02399747 0.05495967
v 0.08899210 -0.02320775 0.06232318
v 0.07912215 -0.02448205 0.06102122
v 0.07799780 -0.02429608 0.06026979
v 0.09206774 -0.02264598 0.05796228
v 0.09185020 -0.02326708 0.05946212
v 0.07909131 -0.00833576 0.05771487
v 0.09123827 -0.02184030 0.05932155
v 0.07570292 -0.02283062 0.05079706
v 0.08706536 -0.01671645 0.05345835
v 0.07826620 -0.00855404 0.05075848
v 0.08030452 -0.00813483 0.05443215
v 0.08130250 -0.01184290 0.05110116
v 0.08826820 -0.01883704 0.05312274
v 0.08959779 -0.02389049 0.05337367
v 0.09003519 -0.02021005 0.05897778
v 0.08057626 -0.00827762 0.05524268
v 0.07886392 -0.02429387 0.06095497
v 0.07892130 -0.00850773 0.05133035
v 0.08825391 -0.02228795 0.05188825
v 0.08854099 -0.02456710 0.06303696
v 0.08914349 -0.02260067 0.06183456
v 0.08852274 -0.02237275 0.06212735
v 0.07978362 -0.02361864 0.06191029
v 0.08841162 -0.02070352 0.06095646
v 0.07551493 -0.02495044 0.05535162
v 0.09007195 -0.02228043 0.05373210
v 0.08384310 -0.02467840 0.06307517
v 0.08283207 -0.01190539 0.05283625
v 0.08364529 -0.02142117 0.06329354
v 0.08114244 -0.02430221 0.06228585
v 0.08992215 -0.01962974 0.05513951
v 0.07600075 -0.02270363 0.05968745
v 0.08759572 -0.02062334 0.05156042
v 0.07522267 -0.02175758 0.05962748
v 0.08458190 -0.01794147 0.05020334
v 0.09082515 -0.02075783 0.05850341
v 0.07578908 -0.01281648 0.06208068
v 0.08994478 -0.02179680 0.05367249
v 0.08955671 -0.02161858 0.05321729
v 0.07617092 -0.00988597 0.06070081
v 0.08652826 -0.02407258 0.05114192
v 0.08941444 -0.01890338 0.05791287
v 0.09192939 -0.02465752 0.05798118
v 0.07583044 -0.02111307 0.06048742
v 0.09199655 -0.02285849 0.05717649
v 0.08965728 -0.02098831 0.05355564
v 0.09031876 -0.02000164 0.05560854
v 0.08824611 -0.01747596 0.05467471
v 0.08898375 -0.01849901 0.05463050
v 0.07952579 -0.01096225 0.05021046
v 0.08976793 -0.02193726 0.05340830
v 0.08829781 -0.01726357 0.05534533
v 0.09115126 -0.02158182 0.05579724
v 0.08153565 -0.01150690 0.05158533
v 0.08189030 -0.01208769 0.05148428
v 0.08844574 -0.02320417 0.05214536
v 0.08672957 -0.02162819 0.06264286
v 0.08764879 -0.02096987 0.05151157
v 0.08885148 -0.01977711 0.05319486
v 0.08768648 -0.02252392 0.06268337
v 0.08809364 -0.02190509 0.06208783
v 0.08751914 -0.02089978 0.05141780
v 0.09091311 -0.02389025 0.05502209
v 0.09108836 -0.02435152 0.05554004
v 0.08437904 -0.01487807 0.05180198
v 0.08329528 -0.01430596 0.05116972
v 0.08851338 -0.02327775 0.06266735
v 0.08999933 -0.01951873 0.05553865
v 0.08493952 -0.02194450 0.06328450
v 0.07905710 -0.00746560 0.05272785
v 0.08982520 -0.02057460 0.05964682
v 0.08629764 -0.02359544 0.05083216
v 0.08855698 -0.01746629 0.05601926
v 0.08779842 -0.02168246 0.05153095
v 0.08319756 -0.01280013 0.05231641
v 0.07784561 -0.02396097 0.06041093
v 0.07695774 -0.02338886 0.06004265
v 0.07756540 -0.02112680 0.06164746
v 0.07696494 -0.02420948 0.05940707
v 0.07507769 -0.01805198 0.06122094
v 0.09175965 -0.02482898 0.05753967
v 0.07708294 -0.00931673 0.05982822
v 0.07932915 -0.00750413 0.05535497
v 0.07597024 -0.01108717 0.06174183
v 0.08710669 -0.01646633 0.05384717
v 0.07706072 -0.02406577 0.05151133
v 0.07528843 -0.01227876 0.06198578
v 0.08249605 -0.01188967 0.05235832
v 0.08972427 -0.01971019 0.05459582
v 0.07747506 -0.02245131 0.06101455
v 0.08521173 -0.02430619 0.06336833
v 0.08851273 -0.01746832 0.05558975
v 0.08842344 -0.02133386 0.06143533
v 0.08026151 -0.01214051 0.05007102
v 0.07747088 -0.02418531 0.05141252
v 0.08180434 -0.02437170 0.05030047
v 0.09198944 -0.02442863 0.05888598
v 0.07531252 -0.02242470 0.05059279
v 0.08993932 -0.02460901 0.05410081
v 0.07873219 -0.01999123 0.06245970
v 0.08146521 -0.00922694 0.05546039
v 0.08791517 -0.02498823 0.06319581
v 0.07798279 -0.02470798 0.05992751
v 0.08682631 -0.01829790 0.05186189
v 0.07994538 -0.01083186 0.05062304
v 0.07588768 -0.02199771 0.06003933
v 0.09005059 -0.01943465 0.05591411
v 0.08156864 -0.02484116 0.06224471
v 0.08903033 -0.02036900 0.05306867
v 0.08422654 -0.01506811 0.05150186
v 0.07536616 -0.00935260 0.06007522
v 0.07967191 -0.00819594 0.05258536
v 0.07581142 -0.01064727 0.06146020
v 0.09090058 -0.02145341 0.05535200
v 0.08250695 -0.01226075 0.05199715
v 0.07555030 -0.02095504 0.06034717
v 0.08789028 -0.01864210 0.05278893
v 0.07545805 -0.02293134 0.05898425
v 0.09095413 -0.02331710 0.05492437
v 0.08019123 -0.00944389 0.05191535
v 0.07506495 -0.00911420 0.05977814
v 0.08724872 -0.01647189 0.05414696
v 0.09074607 -0.02360104 0.05467535
v 0.07615254 -0.02014569 0.06113719
v 0.08156508 -0.02073014 0.06312364
v 0.08740798 -0.02473465 0.05200122
v 0.07619090 -0.02448011 0.05822717
v 0.09070747 -0.02406225 0.06126201
v 0.08708254 -0.02364049 0.05127565
v 0.08816720 -0.01774244 0.05410434
v 0.09146418 -0.02179683 0.05645949
v 0.08917058 -0.02196228 0.05273389
v 0.08549738 -0.01560380 0.05245686
v 0.09195680 -0.02445537 0.05902353
v 0.07920162 -0.02369731 0.05014207
v 0.09130315 -0.02448911 0.05602173
v 0.08270801 -0.01467913 0.05043639
v 0.07584116 -0.02389457 0.05214519
v 0.09011354 -0.02252325 0.06098710
v 0.08841411 -0.01820145 0.05395063
v 0.09162222 -0.02400609 0.06004956
v 0.09052691 -0.02164340 0.05994899
v 0.09089357 -0.02114513 0.05897466
v 0.08909037 -0.02251181 0.05262138
v 0.08141866 -0.02384099 0.06259350
v 0.09056969 -0.02342468 0.06113390
v 0.07938558 -0.02050941 0.06260919
v 0.07782052 -0.02324035 0.05019538
v 0.09098243 -0.02073485 0.05799555
v 0.08901708 -0.02142978 0.05265994
v 0.08093051 -0.02465037 0.05068114
v 0.08041187 -0.00814563 0.05503023
v 0.07929212 -0.02209951 0.06222708
v 0.07702008 -0.02373906 0.05112387
v 0.09147799 -0.02154113 0.05831249
v 0.09187810 -0.02400020 0.05953543
v 0.08288703 -0.02485458 0.05071168
v 0.09142230 -0.02428551 0.05607910
v 0.09000048 -0.02405539 0.06195930
v 0.08926476 -0.01936736 0.05414359
v 0.08267237 -0.02259873 0.06324879
v 0.08678181 -0.02282826 0.06316348
v 0.08273398 -0.02418338 0.06294121
v 0.07912240 -0.00747626 0.05284915
v 0.08583198 -0.02251741 0.06328869
v 0.07508291 -0.02458029 0.05473954
v 0.09118643 -0.02484987 0.05612101
v 0.09131976 -0.02175165 0.05908168
v 0.08791815 -0.02353541 0.06303883
v 0.08047883 -0.02282883 0.06253370
v 0.07578997 -0.01782234 0.06166584
v 0.07531850 -0.00646516 0.05548799
v 0.08568381 -0.01706985 0.05153941
v 0.08237227 -0.02350785 0.06301833
v 0.07630665 -0.02099437 0.06088593
v 0.08662101 -0.01738042 0.05225899
v 0.08609260 -0.01868051 0.05102899
v 0.07874116 -0.01011933 0.05013645
v 0.09206551 -0.02283086 0.05747407
v 0.09022095 -0.02009387 0.05521407
v 0.07726969 -0.01891086 0.06209018
v 0.07964889 -0.00760600 0.05484607
v 0.07977674 -0.00794749 0.05327253
v 0.07571214 -0.02315219 0.05906797
v 0.07850383 -0.00698203 0.05264322
v 0.08678684 -0.02064620 0.05090760
v 0.08025294 -0.01144985 0.05047421
v 0.08000386 -0.00783941 0.05518026
v 0.07641190 -0.02287211 0.05994162
v 0.08928534 -0.01833487 0.05654598
v 0.07517443 -0.01867579 0.06105370
v 0.09177910 -0.02364861 0.05648466
v 0.08987240 -0.01912684 0.05606919
v 0.08037363 -0.00891108 0.05277103
v 0.08987305 -0.02059314 0.05408351
v 0.08960578 -0.02031983 0.05386664
v 0.07958533 -0.00859542 0.05200073
v 0.09207706 -0.02428984 0.05849923
v 0.09082194 -0.02046131 0.05780260
v 0.08913262 -0.02346611 0.05278822
v 0.08150929 -0.02280348 0.06290908
v 0.09194819 -0.02349684 0.05933344
v 0.07849739 -0.02158445 0.06199100
v 0.08949558 -0.01923293 0.05836478
v 0.08739776 -0.01649413 0.05445177
v 0.08495245 -0.02337748 0.05014641
v 0.08013200 -0.00828435 0.05336435
v 0.07518359 -0.02357932 0.05803414
v 0.08107069 -0.02310546 0.06267867
v 0.08272347 -0.01535903 0.05007893
v 0.07615275 -0.02293910 0.05965232
v 0.07668191 -0.02362100 0.05961031
v 0.07981940 -0.00796061 0.05335221
v 0.08098004 -0.00927843 0.05338168
v 0.07834272 -0.02188680 0.06179873
v 0.07683508 -0.02490032 0.05293445
v 0.09040313 -0.02172172 0.05429817
v 0.08912926 -0.01846245 0.05505545
v 0.08614244 -0.02232464 0.06316139
v 0.09185584 -0.02427113 0.05951827
v 0.08664833 -0.02319691 0.06329403
v 0.07507938 -0.02456652 0.05468305
v 0.08518888 -0.01559326 0.05207822
v 0.08497893 -0.02346061 0.05019497
v 0.09181813 -0.02213868 0.05839811
v 0.08896662 -0.02433418 0.06280604
v 0.07879006 -0.00715392 0.05288952
v 0.08601205 -0.01801172 0.05128178
v 0.08591469 -0.01715360 0.05170121
v 0.09096343 -0.02087542 0.05616839
v 0.07854967 -0.00862459 0.05839870
v 0.08951444 -0.01995337 0.05400601
v 0.08601148 -0.02091563 0.05035486
v 0.09021335 -0.02395237 0.06171468
v 0.08678681 -0.01613325 0.05375764
v 0.08682375 -0.01989111 0.05114760
v 0.08028352 -0.02314220 0.06235082
v 0.08265274 -0.02485627 0.06266746
v 0.08637344 -0.02216434 0.05058004
v 0.08873140 -0.02125838 0.05241850
v 0.09148535 -0.02450721 0.05638246
v 0.08867782 -0.01888596 0.05364607
v 0.07860444 -0.00780632 0.05162039
v 0.08887336 -0.01872144 0.05412117
v 0.08282705 -0.02123930 0.06327255
v 0.08726429 -0.01909659 0.05184553
v 0.07778427 -0.00872051 0.05028275
v 0.08157271 -0.02167201 0.06309552
v 0.07934153 -0.00742265 0.05474295
v 0.07995972 -0.01062177 0.05077384
v 0.08002326 -0.02354950 0.06207850
v 0.07735509 -0.02460311 0.05943121
v 0.09204061 -0.02264086 0.05764003
v 0.07520808 -0.02371838 0.05790252
v 0.09057387 -0.02470356 0.05500517
v 0.08105133 -0.02230868 0.06286077
v 0.07574030 -0.02348688 0.05158899
v 0.07877800 -0.00758724 0.05206477
v 0.08838415 -0.01877371 0.05332478
v 0.08413593 -0.01383861 0.05246561
v 0.08747295 -0.02011108 0.06118962
v 0.07689294 -0.00775437 0.05732723
v 0.07561670 -0.01129881 0.06181137
v 0.08344364 -0.01385608 0.05164657
v 0.08897468 -0.02353923 0.05266498
v 0.08575511 -0.02276387 0.06335954
v 0.08231720 -0.02268388 0.06316953
v 0.08930135 -0.02459924 0.05339687
v 0.09217134 -0.02326063 0.05844653
v 0.07737910 -0.01816458 0.06224543
v 0.08761234 -0.02006208 0.05173573
v 0.07714126 -0.02422067 0.05956632
v 0.08512158 -0.01598578 0.05170904
v 0.08486456 -0.01794551 0.05038783
v 0.07507887 -0.02418865 0.05696955
v 0.08964790 -0.02336978 0.06191960
v 0.08647114 -0.01691197 0.05246327
v 0.07866816 -0.00697389 0.05393528
v 0.07912607 -0.02471388 0.05128213
v 0.08742853 -0.01640011 0.05475163
v 0.08951077 -0.02348793 0.06210842
v 0.07505747 -0.01002651 0.06085598
v 0.08128803 -0.01043933 0.05230027
v 0.07665393 -0.01075035 0.06130484
v 0.07577851 -0.02263760 0.05951890
v 0.09170746 -0.02329584 0.05630981
v 0.08445981 -0.01760178 0.05024318
v 0.08596686 -0.02174255 0.05029571
v 0.07519896 -0.01957670 0.06070436
v 0.07952087 -0.02375687 0.06169815
v 0.07505367 -0.00542082 0.05180599
v 0.08766559 -0.02090743 0.06165100
v 0.07567085 -0.01117383 0.06176127
v 0.08376570 -0.01660561 0.05021066
v 0.07512932 -0.00720874 0.05004393
v 0.08024082 -0.00825176 0.05634227
v 0.08681182 -0.01650202 0.05332522
v 0.07521380 -0.02304151 0.05136759
v 0.07784302 -0.02498725 0.05952815
v 0.08037209 -0.02305179 0.06242411
v 0.08298049 -0.01394402 0.05113254
v 0.08737760 -0.01661502 0.05417428
v 0.08023881 -0.02121097 0.06279952
v 0.09134699 -0.02326049 0.06021675
v 0.09001340 -0.02268251 0.05362616
v 0.07876882 -0.00715228 0.05284001
v 0.07584149 -0.00857638 0.05890959
v 0.08163860 -0.02477008 0.05070353
v 0.07602925 -0.02372583 0.05171991
v 0.08401182 -0.01383078 0.05231533
v 0.07590398 -0.02422794 0.05818542
v 0.08848455 -0.01862479 0.05361433
v 0.07858804 -0.02028055 0.06236108
v 0.07643801 -0.02384098 0.05920852
v 0.08653077 -0.02331438 0.05086685
v 0.07552930 -0.02299601 0.05900568
v 0.07922927 -0.02403546 0.06136268
v 0.09081470 -0.02419552 0.05502037
v 0.09211666 -0.02296020 0.05849036
v 0.08932263 -0.02374742 0.06237368
v 0.09184895 -0.02418006 0.05693282
v 0.08925918 -0.01983233 0.05370922
v 0.09071441 -0.02061814 0.05849059
v 0.08926600 -0.01849749 0.05733952
v 0.08514255 -0.01446659 0.05324925
v 0.08661080 -0.02492955 0.05167690
v 0.08880939 -0.02437248 0.06289740
v 0.07800841 -0.02487317 0.05980771
v 0.08823808 -0.02022299 0.05227957
v 0.08336902 -0.01449675 0.05110386
v 0.08681894 -0.02166131 0.05082380
v 0.09026036 -0.01959789 0.05647326
v 0.08253825 -0.02301406 0.06316307
v 0.08249807 -0.02414614 0.06288039
v 0.07691953 -0.02481733 0.05869809
v 0.08172152 -0.01111504 0.05215006
v 0.07923671 -0.00743217 0.05329912
v 0.07873479 -0.00719546 0.05264976
v 0.08382269 -0.02420797 0.06319995
v 0.07868208 -0.00723006 0.05246624
v 0.09087042 -0.02095135 0.05874908
v 0.07907956 -0.00728794 0.05337468
v 0.07543083 -0.02488763 0.05540517
v 0.08171927 -0.02259837 0.06301160
v 0.09073221 -0.02109992 0.05526347
v 0.08505151 -0.01486339 0.05260228
v 0.07897689 -0.00728721 0.05300630
v 0.07556984 -0.02202383 0.05000245
v 0.08808406 -0.01732890 0.05455626
v 0.09212640 -0.02323203 0.05747917
v 0.08049023 -0.02159581 0.06281973
v 0.08799642 -0.02256559 0.06254015
v 0.08946768 -0.02435734 0.06248826
f 77 11 281
f 433 630 683
f 626 321 77
f 77 281 70
f 70 90 77
f 90 70 118
f 469 378 432
f 378 533 432
f 207 469 432
f 432 533 207
f 55 249 263
f 263 10 55
f 683 10 263
f 48 233 437
f 65 469 207
f 274 626 77
f 321 626 557
f 557 501 321
f 557 626 630
f 77 321 115
f 582 10 630
f 230 683 630
f 630 10 230
f 230 10 683
f 77 90 597
f 433 683 343
f 126 233 48
f 126 430 264
f 614 126 106
f 233 126 614
f 683 263 44
f 44 343 683
f 396 627 270
f 356 336 616
f 469 65 555
f 118 66 417
f 642 70 281
f 281 66 642
f 642 118 70
f 642 66 118
f 456 281 11
f 456 66 281
f 456 417 66
f 507 274 77
f 77 597 507
f 294 557 633
f 433 343 633
f 633 630 433
f 633 557 630
f 145 557 294
f 48 360 145
f 501 557 145
f 145 360 501
f 302 115 415
f 148 582 630
f 312 31 240
f 270 265 204
f 204 417 270
f 90 118 204
f 118 417 204
f 159 507 597
f 274 265 49
f 49 147 274
f 49 265 170
f 170 147 49
f 240 31 253
f 149 263 249
f 249 541 149
f 149 226 231
f 264 614 88
f 88 614 106
f 88 126 264
f 106 126 88
f 46 149 231
f 233 614 46
f 231 226 46
f 46 226 233
f 264 343 113
f 343 44 113
f 113 38 264
f 113 44 263
f 263 38 113
f 321 501 678
f 501 360 678
f 48 437 634
f 227 336 356
f 68 437 288
f 395 396 101
f 101 392 395
f 537 476 491
f 476 555 491
f 491 65 537
f 491 555 65
f 270 627 596
f 270 596 257
f 140 396 270
f 101 396 140
f 270 417 140
f 72 456 11
f 72 11 77
f 77 115 72
f 302 617 72
f 72 115 302
f 422 617 302
f 302 100 422
f 74 110 189
f 167 601 189
f 626 274 5
f 5 520 626
f 5 613 520
f 41 5 274
f 613 5 41
f 421 430 236
f 236 126 48
f 430 126 236
f 68 504 556
f 629 622 55
f 609 622 286
f 622 629 286
f 666 186 259
f 370 622 609
f 55 622 370
f 186 666 18
f 158 256 346
f 626 520 187
f 603 221 299
f 299 221 461
f 566 204 265
f 265 159 566
f 90 204 566
f 566 597 90
f 566 159 597
f 341 159 265
f 507 159 341
f 341 265 274
f 274 507 341
f 23 343 264
f 23 323 343
f 421 236 644
f 592 633 343
f 343 323 592
f 592 323 421
f 421 644 592
f 240 253 559
f 559 253 541
f 98 650 249
f 234 541 249
f 249 650 234
f 85 149 541
f 643 59 233
f 263 46 483
f 264 38 483
f 483 38 263
f 84 614 264
f 84 46 614
f 264 483 84
f 84 483 46
f 263 149 470
f 470 46 263
f 149 46 470
f 321 678 196
f 196 678 360
f 196 360 48
f 48 634 196
f 655 616 336
f 152 504 68
f 68 288 152
f 396 395 687
f 504 188 402
f 402 395 504
f 402 687 395
f 402 655 336
f 188 655 402
f 537 65 604
f 604 654 537
f 604 65 207
f 197 256 158
f 169 481 639
f 639 309 169
f 169 474 481
f 359 257 596
f 596 267 359
f 617 422 252
f 252 422 205
f 205 422 316
f 417 456 446
f 446 140 417
f 456 72 446
f 372 422 100
f 372 316 422
f 551 236 48
f 48 145 551
f 551 145 294
f 35 61 167
f 167 189 35
f 35 189 110
f 167 61 426
f 332 674 24
f 24 674 61
f 413 510 173
f 497 556 504
f 504 395 497
f 497 395 392
f 68 556 22
f 22 556 601
f 22 601 167
f 167 291 22
f 291 437 22
f 22 437 68
f 578 532 353
f 389 353 450
f 10 582 315
f 249 568 623
f 177 568 249
f 177 370 609
f 177 249 55
f 55 370 177
f 208 286 64
f 434 221 603
f 603 299 600
f 600 299 180
f 186 18 397
f 393 409 397
f 397 409 186
f 56 18 666
f 56 623 568
f 666 623 56
f 275 487 158
f 158 346 275
f 276 532 237
f 549 542 260
f 615 141 260
f 260 256 615
f 637 684 384
f 389 450 217
f 416 502 42
f 399 214 493
f 493 214 527
f 399 502 590
f 590 502 221
f 221 434 590
f 292 265 270
f 270 257 292
f 331 359 269
f 264 258 489
f 489 23 264
f 489 258 421
f 421 323 489
f 323 23 489
f 473 644 236
f 473 592 644
f 259 180 124
f 407 234 650
f 541 253 73
f 73 85 541
f 63 85 73
f 492 85 63
f 59 85 492
f 31 59 492
f 233 226 99
f 99 643 233
f 431 85 59
f 59 643 431
f 149 85 431
f 226 149 431
f 643 99 431
f 411 337 352
f 356 474 25
f 25 169 269
f 474 169 25
f 356 616 165
f 165 474 356
f 175 555 476
f 476 272 175
f 469 555 175
f 175 378 469
f 175 416 378
f 175 272 437
f 437 502 175
f 502 416 175
f 174 476 639
f 174 272 476
f 662 188 504
f 504 152 662
f 688 655 188
f 336 227 357
f 357 402 336
f 357 227 396
f 396 687 357
f 687 402 357
f 194 284 127
f 75 449 60
f 527 176 311
f 207 533 311
f 311 533 378
f 428 596 627
f 428 267 596
f 627 396 428
f 396 227 428
f 269 359 166
f 166 359 267
f 166 25 269
f 166 428 227
f 267 428 166
f 166 227 356
f 356 25 166
f 419 316 300
f 419 497 392
f 300 316 500
f 500 316 404
f 601 556 500
f 556 497 500
f 128 316 189
f 404 316 128
f 128 189 601
f 601 500 128
f 128 500 404
f 74 189 364
f 364 316 74
f 189 316 364
f 619 183 108
f 108 419 619
f 619 419 392
f 140 183 619
f 619 392 101
f 101 140 619
f 108 183 150
f 242 446 72
f 140 446 242
f 242 183 140
f 123 418 41
f 274 147 123
f 123 41 274
f 123 147 170
f 613 41 199
f 41 418 199
f 418 123 50
f 50 123 170
f 170 631 50
f 436 197 158
f 436 631 266
f 164 291 167
f 167 426 164
f 164 437 291
f 164 426 437
f 441 369 144
f 624 415 115
f 15 413 415
f 184 148 578
f 578 353 184
f 184 353 148
f 455 532 671
f 671 450 455
f 455 353 532
f 455 450 353
f 295 315 582
f 201 429 51
f 55 10 51
f 64 286 203
f 203 286 629
f 157 429 201
f 472 203 157
f 283 409 393
f 320 623 666
f 568 177 79
f 79 56 568
f 131 177 609
f 138 452 310
f 246 452 138
f 185 452 239
f 239 112 185
f 310 452 185
f 608 306 558
f 558 138 608
f 608 138 511
f 495 91 577
f 579 495 577
f 577 647 579
f 424 495 579
f 384 424 579
f 262 381 171
f 444 381 262
f 621 278 75
f 75 176 621
f 621 176 527
f 593 237 532
f 447 237 593
f 518 542 447
f 447 405 518
f 549 116 529
f 529 542 549
f 447 542 529
f 276 237 529
f 529 237 447
f 457 304 549
f 457 637 304
f 540 141 615
f 637 457 540
f 540 457 549
f 549 260 540
f 540 260 141
f 304 637 420
f 549 304 420
f 420 116 549
f 570 529 420
f 420 529 116
f 420 637 384
f 384 235 420
f 465 235 384
f 389 217 599
f 599 217 558
f 558 217 53
f 53 681 558
f 217 681 53
f 399 493 471
f 471 502 399
f 42 502 471
f 656 493 527
f 527 311 656
f 378 416 656
f 656 311 378
f 335 214 399
f 257 359 251
f 359 331 251
f 251 292 257
f 251 331 292
f 191 169 309
f 105 473 236
f 105 551 294
f 236 551 105
f 294 633 105
f 633 592 105
f 592 473 105
f 650 98 34
f 34 98 259
f 259 124 34
f 305 299 461
f 180 299 305
f 305 124 180
f 312 376 661
f 376 195 661
f 195 305 661
f 661 305 461
f 461 221 661
f 221 502 661
f 31 312 661
f 661 502 437
f 661 437 233
f 661 59 31
f 233 59 661
f 541 234 2
f 234 407 2
f 240 559 2
f 2 559 541
f 2 312 240
f 2 376 312
f 78 253 31
f 78 73 253
f 63 73 78
f 31 492 78
f 78 492 63
f 486 99 226
f 226 431 486
f 486 431 99
f 321 196 610
f 610 115 321
f 670 196 634
f 411 607 438
f 607 4 438
f 438 4 337
f 228 414 607
f 337 4 663
f 54 607 411
f 411 412 54
f 524 369 367
f 144 369 524
f 524 412 411
f 223 634 437
f 669 573 498
f 669 39 480
f 616 481 611
f 481 474 611
f 639 481 279
f 481 569 279
f 355 152 288
f 355 662 152
f 355 288 437
f 437 272 355
f 272 688 355
f 655 688 494
f 616 655 494
f 494 481 616
f 494 569 481
f 494 279 569
f 188 662 561
f 561 688 188
f 662 355 561
f 561 355 688
f 654 284 340
f 284 194 340
f 537 654 340
f 340 194 309
f 340 309 639
f 639 476 340
f 340 476 537
f 76 176 75
f 75 60 76
f 685 604 207
f 207 311 685
f 685 380 514
f 685 311 176
f 176 380 685
f 266 107 534
f 448 419 108
f 252 419 448
f 108 150 448
f 617 252 448
f 448 150 617
f 598 252 205
f 300 500 554
f 554 500 497
f 554 419 300
f 497 419 554
f 224 72 617
f 617 150 224
f 224 150 183
f 266 631 377
f 162 199 418
f 418 50 162
f 50 584 162
f 613 199 162
f 162 584 613
f 33 436 659
f 631 436 351
f 351 50 631
f 158 487 351
f 351 436 158
f 487 523 351
f 351 523 50
f 303 498 332
f 303 669 498
f 39 669 303
f 61 35 496
f 496 24 61
f 460 100 302
f 460 372 100
f 218 524 411
f 144 524 218
f 144 218 325
f 173 510 325
f 625 324 586
f 367 369 620
f 369 453 620
f 451 624 115
f 115 369 451
f 369 441 451
f 510 413 459
f 413 15 459
f 415 624 526
f 526 15 415
f 582 148 345
f 345 295 582
f 148 295 345
f 148 353 156
f 156 295 148
f 10 315 513
f 513 51 10
f 315 51 513
f 385 315 201
f 201 51 385
f 385 51 315
f 545 157 203
f 545 629 55
f 545 203 629
f 429 157 545
f 55 51 545
f 545 51 429
f 623 320 574
f 574 98 249
f 249 623 574
f 18 56 521
f 56 79 521
f 521 397 18
f 67 79 177
f 177 131 67
f 239 452 57
f 452 348 57
f 57 394 239
f 45 647 577
f 612 138 558
f 20 112 239
f 20 664 112
f 239 444 20
f 262 664 20
f 20 444 262
f 314 208 64
f 594 45 577
f 594 57 348
f 394 57 594
f 594 452 246
f 594 348 452
f 246 647 594
f 647 45 594
f 475 647 52
f 475 579 647
f 384 579 475
f 475 465 384
f 52 235 475
f 235 465 475
f 552 449 75
f 552 171 381
f 680 530 307
f 449 552 680
f 680 552 530
f 307 530 567
f 567 424 307
f 91 495 567
f 567 495 424
f 91 567 531
f 531 567 530
f 637 540 87
f 615 256 387
f 256 197 387
f 458 308 454
f 454 214 458
f 278 621 454
f 527 214 454
f 603 600 349
f 134 532 578
f 134 593 532
f 187 593 134
f 134 148 630
f 578 148 134
f 630 626 134
f 626 187 134
f 14 593 187
f 14 405 447
f 447 593 14
f 542 518 548
f 256 260 548
f 548 260 542
f 548 346 256
f 570 290 261
f 261 529 570
f 290 529 261
f 276 529 363
f 363 529 290
f 363 198 276
f 290 198 363
f 138 612 216
f 246 138 216
f 216 235 52
f 216 647 246
f 52 647 216
f 558 306 400
f 400 599 558
f 306 599 400
f 618 410 671
f 618 532 276
f 671 532 618
f 645 681 217
f 276 198 423
f 423 198 410
f 423 618 276
f 410 618 423
f 595 198 681
f 410 198 595
f 681 645 595
f 595 645 410
f 40 198 290
f 681 198 40
f 40 216 681
f 493 656 576
f 42 471 576
f 576 471 493
f 576 416 42
f 576 656 416
f 653 590 434
f 399 590 653
f 653 335 399
f 458 214 398
f 398 335 458
f 214 335 398
f 309 194 342
f 342 191 309
f 269 169 477
f 83 407 650
f 650 34 83
f 83 195 376
f 179 453 543
f 543 453 369
f 543 369 115
f 115 610 543
f 543 610 589
f 6 610 196
f 196 670 6
f 6 670 462
f 319 6 462
f 610 6 319
f 330 670 634
f 462 670 330
f 338 337 411
f 411 438 338
f 338 438 337
f 179 228 519
f 649 228 179
f 414 228 649
f 179 330 649
f 649 330 414
f 109 663 634
f 634 223 109
f 109 223 573
f 547 54 412
f 538 488 12
f 93 488 538
f 93 538 36
f 586 93 36
f 437 426 232
f 232 223 437
f 61 674 232
f 232 426 61
f 332 498 362
f 362 674 332
f 498 573 362
f 573 223 362
f 254 365 480
f 289 365 254
f 155 289 586
f 155 365 289
f 586 324 155
f 324 365 155
f 474 165 293
f 293 611 474
f 463 174 639
f 639 279 463
f 71 688 272
f 71 494 688
f 272 174 71
f 174 463 71
f 279 494 71
f 71 463 279
f 245 380 176
f 176 76 245
f 245 76 60
f 86 534 313
f 266 534 86
f 484 534 107
f 313 534 484
f 588 287 339
f 339 284 654
f 654 604 339
f 514 588 339
f 604 685 339
f 339 685 514
f 628 419 252
f 252 598 628
f 628 598 419
f 316 419 229
f 419 598 229
f 205 316 229
f 229 598 205
f 375 242 72
f 183 242 209
f 209 224 183
f 242 375 209
f 72 224 209
f 209 375 72
f 181 436 266
f 181 659 436
f 24 496 602
f 212 460 302
f 212 496 35
f 35 460 212
f 372 460 580
f 580 110 74
f 580 35 110
f 580 460 35
f 74 316 580
f 316 372 580
f 411 352 215
f 215 218 411
f 425 325 218
f 425 215 206
f 218 215 425
f 425 206 173
f 173 325 425
f 586 206 62
f 206 625 62
f 652 625 206
f 510 624 379
f 624 451 379
f 379 451 441
f 168 506 139
f 211 139 12
f 168 139 211
f 250 686 282
f 114 459 15
f 114 526 624
f 15 526 114
f 114 624 510
f 510 459 114
f 472 157 192
f 192 157 201
f 21 192 1
f 1 192 201
f 295 156 585
f 156 1 585
f 386 82 374
f 125 82 386
f 97 283 393
f 393 397 92
f 146 664 262
f 262 575 146
f 146 92 664
f 575 97 146
f 146 97 393
f 393 92 146
f 8 180 259
f 259 132 8
f 180 8 391
f 391 8 132
f 43 666 259
f 43 320 666
f 259 98 43
f 247 521 79
f 247 67 571
f 112 664 606
f 606 185 112
f 664 92 606
f 310 185 439
f 439 138 310
f 511 138 439
f 286 208 219
f 208 563 219
f 609 286 219
f 121 67 131
f 75 278 210
f 297 552 75
f 75 210 297
f 366 424 384
f 515 680 307
f 307 424 515
f 424 366 515
f 142 287 588
f 91 531 657
f 239 394 657
f 577 91 657
f 657 594 577
f 394 594 657
f 326 444 239
f 326 531 444
f 239 657 326
f 326 657 531
f 381 444 322
f 444 531 322
f 322 531 530
f 322 552 381
f 530 552 322
f 384 684 383
f 684 637 383
f 637 87 383
f 103 87 540
f 615 327 103
f 103 540 615
f 103 327 225
f 225 553 103
f 103 553 384
f 384 383 103
f 103 383 87
f 301 327 615
f 615 387 301
f 197 436 427
f 427 387 197
f 427 436 408
f 427 301 387
f 327 301 427
f 80 621 527
f 527 454 80
f 80 454 621
f 135 308 458
f 458 335 135
f 135 653 434
f 335 653 135
f 135 434 603
f 603 349 135
f 675 187 520
f 675 14 187
f 520 673 675
f 675 673 405
f 405 14 675
f 499 518 405
f 520 641 499
f 499 673 520
f 405 673 499
f 346 548 32
f 32 275 346
f 344 420 235
f 235 216 344
f 570 420 344
f 344 40 570
f 468 612 558
f 468 216 612
f 558 681 468
f 681 216 468
f 445 599 306
f 306 608 445
f 129 645 217
f 410 645 129
f 129 217 450
f 129 450 671
f 671 410 129
f 660 290 570
f 570 40 660
f 660 40 290
f 503 194 127
f 503 342 194
f 539 377 631
f 266 377 539
f 169 191 119
f 119 477 169
f 191 477 119
f 268 331 269
f 269 477 268
f 331 268 406
f 406 268 477
f 191 342 406
f 406 477 191
f 170 265 406
f 265 292 406
f 292 331 406
f 178 83 376
f 407 83 178
f 376 2 178
f 178 2 407
f 195 83 464
f 124 305 464
f 464 305 195
f 464 34 124
f 464 83 34
f 589 610 16
f 16 319 589
f 610 319 16
f 634 663 587
f 587 330 634
f 414 330 587
f 607 414 587
f 587 4 607
f 587 663 4
f 646 330 179
f 462 330 646
f 179 543 646
f 646 319 462
f 646 543 589
f 589 319 646
f 651 453 179
f 179 519 651
f 337 663 213
f 663 109 213
f 213 109 324
f 213 652 337
f 324 625 213
f 625 652 213
f 443 109 573
f 480 365 443
f 443 365 324
f 324 109 443
f 228 547 546
f 546 524 367
f 412 524 546
f 546 547 412
f 367 519 546
f 546 519 228
f 58 93 586
f 58 488 93
f 58 686 250
f 250 12 58
f 12 488 58
f 296 413 173
f 193 206 586
f 586 36 193
f 94 232 674
f 674 362 94
f 223 232 94
f 94 362 223
f 127 284 560
f 284 339 560
f 560 339 287
f 490 287 313
f 313 484 490
f 490 560 287
f 127 560 490
f 490 484 107
f 50 523 280
f 523 517 280
f 280 584 50
f 613 584 280
f 280 517 613
f 659 181 525
f 33 659 525
f 266 86 525
f 525 181 266
f 408 436 525
f 525 436 33
f 24 602 668
f 104 602 496
f 104 212 583
f 496 212 104
f 302 298 9
f 583 212 9
f 9 212 302
f 358 625 586
f 586 62 358
f 358 62 625
f 111 352 337
f 337 652 111
f 111 215 352
f 111 652 215
f 206 215 200
f 200 652 206
f 215 652 200
f 144 325 241
f 241 441 144
f 241 379 441
f 241 325 510
f 510 379 241
f 12 139 161
f 139 153 161
f 415 413 161
f 161 153 415
f 160 516 69
f 160 211 516
f 168 211 160
f 160 506 168
f 302 415 160
f 415 153 160
f 160 298 302
f 160 139 506
f 160 153 139
f 277 334 69
f 69 516 277
f 21 1 96
f 96 203 472
f 96 271 64
f 64 203 96
f 315 295 440
f 295 585 440
f 201 315 440
f 440 585 1
f 172 374 82
f 262 171 172
f 171 374 172
f 386 374 373
f 171 552 248
f 248 374 171
f 248 373 374
f 552 297 248
f 386 373 248
f 361 125 386
f 125 361 640
f 151 640 308
f 143 97 575
f 143 575 262
f 255 574 320
f 320 43 255
f 98 574 255
f 255 43 98
f 79 67 130
f 130 247 79
f 67 247 130
f 397 521 182
f 521 247 182
f 368 92 397
f 368 606 92
f 564 608 511
f 511 439 564
f 278 454 285
f 285 454 308
f 285 210 278
f 285 297 210
f 308 640 285
f 285 640 361
f 285 361 386
f 386 248 285
f 285 248 297
f 30 553 225
f 388 60 449
f 449 680 388
f 466 588 514
f 466 142 588
f 514 380 466
f 380 245 466
f 466 388 142
f 466 245 60
f 60 388 466
f 313 287 202
f 287 142 202
f 202 86 313
f 202 667 86
f 442 667 202
f 202 318 442
f 682 499 562
f 562 499 641
f 562 641 520
f 220 499 682
f 682 562 220
f 220 32 548
f 220 548 518
f 518 499 220
f 487 275 677
f 275 32 677
f 677 523 487
f 677 517 523
f 613 517 677
f 520 613 677
f 677 562 520
f 216 40 632
f 632 344 216
f 40 344 632
f 401 445 665
f 64 271 665
f 665 314 64
f 271 96 665
f 390 353 389
f 389 599 390
f 353 390 3
f 599 636 3
f 3 390 599
f 7 445 401
f 401 636 7
f 599 445 7
f 7 636 599
f 328 1 156
f 328 156 353
f 480 443 102
f 102 443 573
f 102 669 480
f 573 669 102
f 550 36 413
f 413 296 550
f 550 193 36
f 173 206 81
f 81 296 173
f 206 193 81
f 86 667 117
f 667 136 117
f 117 525 86
f 225 327 528
f 528 30 225
f 442 30 528
f 602 536 509
f 39 303 509
f 509 536 39
f 509 303 332
f 602 104 329
f 329 104 583
f 583 9 329
f 638 282 686
f 686 329 638
f 638 329 9
f 89 9 298
f 69 334 89
f 334 638 89
f 89 638 9
f 89 160 69
f 298 160 89
f 536 591 13
f 544 39 13
f 39 536 13
f 17 161 413
f 12 161 17
f 17 538 12
f 413 36 17
f 17 36 538
f 516 211 648
f 648 277 516
f 648 12 250
f 648 211 12
f 250 282 648
f 282 277 648
f 522 1 201
f 201 440 522
f 522 440 1
f 354 132 259
f 409 283 354
f 259 186 354
f 186 409 354
f 283 97 26
f 26 479 283
f 82 125 26
f 125 640 26
f 640 479 26
f 244 135 349
f 308 135 244
f 244 151 308
f 535 349 600
f 535 244 349
f 485 172 82
f 82 26 485
f 485 26 143
f 262 172 485
f 485 143 262
f 19 182 247
f 19 247 571
f 397 182 19
f 563 120 512
f 609 219 512
f 512 219 563
f 512 131 609
f 512 121 131
f 120 19 512
f 508 563 208
f 608 564 508
f 208 314 508
f 508 314 608
f 384 553 222
f 553 30 222
f 222 366 384
f 47 388 680
f 142 388 47
f 680 515 47
f 672 220 562
f 562 677 672
f 32 220 672
f 672 677 32
f 314 665 154
f 154 665 445
f 608 314 154
f 154 445 608
f 353 3 347
f 347 328 353
f 342 503 243
f 243 503 127
f 127 490 243
f 350 676 539
f 170 406 350
f 350 631 170
f 350 539 631
f 539 676 658
f 658 107 266
f 266 539 658
f 586 289 133
f 133 254 480
f 289 254 133
f 480 39 133
f 133 39 544
f 572 58 586
f 572 635 58
f 586 133 572
f 572 133 635
f 58 635 505
f 505 133 544
f 635 133 505
f 686 58 505
f 333 667 442
f 442 528 333
f 333 528 667
f 27 136 667
f 667 528 27
f 408 525 27
f 27 427 408
f 27 117 136
f 525 117 27
f 327 427 27
f 27 528 327
f 29 668 602
f 602 509 29
f 29 509 332
f 332 24 29
f 24 668 29
f 679 591 536
f 679 536 602
f 602 329 679
f 686 591 679
f 679 329 686
f 283 479 37
f 132 354 95
f 97 143 467
f 467 26 97
f 143 26 467
f 151 244 273
f 273 244 479
f 640 151 273
f 273 479 640
f 317 19 571
f 571 67 317
f 67 121 317
f 121 512 317
f 317 512 19
f 606 19 581
f 185 606 581
f 581 439 185
f 581 163 439
f 581 19 120
f 366 222 382
f 382 515 366
f 382 47 515
f 318 47 382
f 318 202 565
f 565 47 318
f 565 202 142
f 142 47 565
f 328 347 28
f 1 328 28
f 28 3 636
f 28 347 3
f 28 96 1
f 28 665 96
f 28 636 401
f 401 665 28
f 342 243 478
f 478 243 676
f 676 350 478
f 478 406 342
f 478 350 406
f 676 243 371
f 107 658 371
f 371 658 676
f 371 490 107
f 371 243 490
f 238 591 686
f 686 505 238
f 238 13 591
f 544 13 238
f 238 505 544
f 334 277 605
f 277 435 605
f 482 435 277
f 482 277 282
f 282 638 482
f 482 605 435
f 482 638 334
f 334 605 482
f 479 95 190
f 190 95 354
f 190 37 479
f 190 354 283
f 283 37 190
f 479 244 137
f 137 95 479
f 244 535 137
f 137 535 600
f 137 391 132
f 132 95 137
f 137 600 180
f 180 391 137
f 122 120 563
f 122 581 120
f 163 581 122
f 439 163 122
f 122 564 439
f 563 508 122
f 122 508 564
f 403 222 30
f 403 382 222
f 318 382 403
f 403 30 442
f 442 318 403
f 258 430 421
f 264 430 258
f 607 54 547
f 547 228 607
f 616 611 293
f 293 165 616
f 651 620 453
f 367 620 651
f 651 519 367
f 472 192 96
f 96 192 21
f 193 550 81
f 81 550 296
f 19 368 397
f 606 368 19

