# https://github.com/mikedh/trimesh
v 0.01685459 0.02329955 -0.10080115
v 0.01203266 0.02699955 -0.10051239
v 0.02343655 0.01051982 -0.10318611
v 0.02329968 0.01155948 -0.10233243
v 0.02064447 0.01842264 -0.10140616
v 0.01272482 0.02646843 -0.10291912
v 0.02124873 0.01701422 -0.10320000
v 0.00051295 0.03017247 -0.10319749
v 0.01245153 0.02667814 -0.10010441
v 0.01477807 0.02471830 -0.10320000
v 0.02304088 0.01247664 -0.10320000
v 0.02355411 0.00962684 -0.10318913
v 0.01436336 0.02521114 -0.10318424
v 0.00553807 0.02929791 -0.10320000
v 0.02120752 0.01721900 -0.10319065
v 0.02340467 0.00171802 -0.10312305
v 0.00015232 0.03021994 -0.10239330
v 0.00233339 0.02993280 -0.10006949
v 0.00078939 0.02979736 -0.10320000
v 0.01058168 0.02751342 -0.10320000
v 0.02336703 0.00143209 -0.10017201
v 0.02318747 0.01241180 -0.10013931
v 0.01561409 0.02425142 -0.10313539
v 0.00956671 0.02803251 -0.10008744
v 0.00002653 0.02162834 -0.10320000
v 0.02099767 0.01751542 -0.10320000
v 0.00008232 0.02792821 -0.10320000
v 0.02395038 0.00586311 -0.10025513
v 0.00826015 0.02857371 -0.10309291
v 0.01778183 0.02215330 -0.10027251
v 0.01171375 0.02714318 -0.10245451
v 0.02398702 0.00614143 -0.10313209
v 0.02268599 0.00029267 -0.10320000
v 0.01168562 0.02715483 -0.10022012
v 0.02319459 0.01235768 -0.10035457
v 0.02338279 0.00860257 -0.10320000
v 0.02069632 0.01835506 -0.10151789
v 0.00089630 0.02990854 -0.10320000
v 0.02280871 0.01335338 -0.10312895
v 0.01698071 0.02319734 -0.10192987
v 0.00678214 0.02918592 -0.10007638
v 0.00003191 0.01244628 -0.10320000
v 0.00656557 0.02906570 -0.10320000
v 0.02390548 0.00695792 -0.10291986
v 0.02323946 0.00046315 -0.10072061
v 0.01732143 0.02275330 -0.10030548
v 0.02090039 0.01796049 -0.10280418
v 0.00618535 0.02942569 -0.10001765
v 0.00740921 0.02892618 -0.10302207
v 0.02324459 0.00050211 -0.10255122
v 0.00694899 0.02911681 -0.10005372
v 0.00032927 0.00068786 -0.10320000
v 0.02383416 0.00749970 -0.10033178
v 0.00602934 0.02944622 -0.10303228
v 0.00006432 0.00578282 -0.10320000
v 0.01680629 0.02333661 -0.10150558
v 0.02371362 0.00406476 -0.10316956
v 0.02366120 0.00366659 -0.10001345
v 0.02312979 0.00107136 -0.10320000
v 0.02074188 0.01829568 -0.10260368
v 0.00120853 0.00006927 -0.10320000
v 0.02391035 0.00555906 -0.10007900
v 0.01213157 0.02692366 -0.10105244
v 0.02091638 0.01792189 -0.10029071
v 0.00003196 0.03023579 -0.10241516
v 0.01703414 0.02312770 -0.10050090
v 0.02397449 0.00643379 -0.10104138
v 0.02341246 0.00244326 -0.10320000
v 0.00626456 0.02940031 -0.10248872
v 0.01720943 0.02289926 -0.10273297
v 0.01882706 0.02078084 -0.10320000
v 0.02310876 0.01262900 -0.10030899
v 0.02109062 0.01750123 -0.10001010
v 0.02016580 0.01904645 -0.10043496
v 0.01893807 0.02064646 -0.10319951
v 0.00029279 0.03020145 -0.10041275
v 0.02397225 0.00645075 -0.10117635
v 0.02389590 0.00703068 -0.10311262
v 0.00103121 0.03010424 -0.10079571
v 0.02305247 0.01276490 -0.10131869
v 0.01667749 0.00000288 -0.10320000
v 0.00646572 0.02931699 -0.10125531
v 0.01312728 0.02615962 -0.10015897
v 0.01533728 0.02446382 -0.10316410
f 21 18 52
f 80 11 39
f 35 11 80
f 76 55 52
f 52 18 76
f 73 9 48
f 81 45 61
f 61 45 21
f 61 21 52
f 28 53 62
f 50 45 33
f 33 45 81
f 79 76 18
f 39 11 15
f 36 12 68
f 11 12 36
f 57 12 32
f 68 12 57
f 57 16 68
f 4 11 35
f 67 28 32
f 67 53 28
f 73 62 22
f 22 62 53
f 35 80 22
f 73 48 58
f 58 62 73
f 58 48 18
f 18 21 58
f 68 16 59
f 59 16 50
f 50 33 59
f 8 38 19
f 19 27 8
f 17 79 8
f 76 79 17
f 10 20 13
f 3 12 11
f 11 4 3
f 32 12 78
f 73 22 72
f 72 22 80
f 8 27 65
f 65 17 8
f 65 27 25
f 76 17 65
f 25 42 65
f 65 42 55
f 55 76 65
f 60 64 47
f 30 9 73
f 14 38 8
f 13 20 6
f 23 40 70
f 23 70 71
f 66 40 1
f 1 83 66
f 75 26 71
f 15 26 75
f 47 15 75
f 75 60 47
f 71 70 75
f 7 15 11
f 7 26 15
f 77 67 32
f 5 64 37
f 64 60 37
f 73 64 74
f 74 30 73
f 74 64 5
f 66 83 46
f 46 83 9
f 9 30 46
f 54 14 8
f 43 14 54
f 20 43 29
f 43 54 29
f 29 54 49
f 84 23 71
f 71 10 84
f 84 10 13
f 40 23 56
f 56 1 40
f 32 78 44
f 44 77 32
f 69 54 48
f 49 54 69
f 24 48 9
f 9 34 24
f 20 29 31
f 31 63 6
f 31 6 20
f 48 41 82
f 82 69 48
f 51 41 48
f 48 24 51
f 2 31 34
f 63 31 2
f 2 34 9
f 32 28 58
f 21 45 58
f 58 45 50
f 58 57 32
f 50 16 58
f 28 62 58
f 16 57 58
f 72 15 47
f 72 80 39
f 72 64 73
f 39 15 72
f 47 64 72
f 7 33 81
f 71 26 7
f 81 61 7
f 52 55 7
f 7 42 25
f 55 42 7
f 7 19 38
f 25 27 7
f 7 61 52
f 7 36 68
f 68 59 7
f 7 10 71
f 11 36 7
f 7 59 33
f 27 19 7
f 20 10 7
f 7 43 20
f 38 14 7
f 7 14 43
f 46 40 66
f 46 74 5
f 46 75 70
f 70 40 46
f 5 37 46
f 60 75 46
f 46 37 60
f 30 74 46
f 54 79 18
f 18 48 54
f 8 79 54
f 44 4 35
f 12 3 44
f 35 22 44
f 53 67 44
f 44 22 53
f 44 3 4
f 44 78 12
f 67 77 44
f 51 29 49
f 51 24 34
f 49 69 51
f 34 31 51
f 51 82 41
f 51 31 29
f 69 82 51
f 83 1 2
f 9 83 2
f 2 56 23
f 13 6 2
f 2 84 13
f 6 63 2
f 23 84 2
f 1 56 2

