# https://github.com/mikedh/trimesh
v 0.12731412 -0.04036594 0.01183353
v 0.12642275 -0.03635289 0.00137182
v 0.12834793 -0.03804758 0.01197620
v 0.12963236 -0.02949244 0.01133745
v 0.12656596 -0.04019217 0.01181289
v 0.13168805 -0.04131047 0.00763098
v 0.12879807 -0.03413828 0.01197037
v 0.13123905 -0.03323719 0.01011347
v 0.12767550 -0.04345936 0.00208131
v 0.12604567 -0.04071045 0.01166264
v 0.13077384 -0.03328800 0.01090266
v 0.12750246 -0.02512822 0.01154781
v 0.13104444 -0.03216998 0.00296908
v 0.12667377 -0.04655971 0.00505030
v 0.13154806 -0.04272424 0.00819841
v 0.12971687 -0.04030279 0.00180776
v 0.13064491 -0.03532196 0.01120032
v 0.12671463 -0.03621592 0.01202362
v 0.12863067 -0.03107503 0.01182904
v 0.13159309 -0.04296167 0.00735714
v 0.13138623 -0.02689054 0.00784486
v 0.13063142 -0.02793970 0.00314372
v 0.13151189 -0.03204835 0.00924361
v 0.12618282 -0.04265632 0.01127994
v 0.13062038 -0.03978506 0.01115843
v 0.13041142 -0.04375944 0.00275159
v 0.13094622 -0.04553705 0.00872421
v 0.13072594 -0.04665981 0.00617875
v 0.12936074 -0.02838985 0.01131475
v 0.12715504 -0.04238634 0.00184863
v 0.13138322 -0.04287024 0.00435618
v 0.13049414 -0.04681277 0.00531057
v 0.12866769 -0.02586157 0.01119483
v 0.12961626 -0.03927988 0.01168326
v 0.12703322 -0.04306489 0.01135896
v 0.13085270 -0.04240255 0.00280905
v 0.13127145 -0.03338844 0.00332256
v 0.12923114 -0.03237511 0.00155798
v 0.13034016 -0.04717145 0.00605291
v 0.13123606 -0.03881090 0.01035666
v 0.12667062 -0.04091003 0.00163805
v 0.12935779 -0.02583214 0.01075981
v 0.13051908 -0.04348743 0.01061777
v 0.13026128 -0.04004844 0.00199732
v 0.13113942 -0.03295934 0.00306581
v 0.12901896 -0.04129043 0.01159665
v 0.13100683 -0.04588410 0.00783702
v 0.12622539 -0.03654696 0.01196542
v 0.12589725 -0.04466911 0.00975706
v 0.12633472 -0.03745717 0.01196538
v 0.13086763 -0.02743850 0.00972395
v 0.13124480 -0.04274428 0.00375555
v 0.12848872 -0.04347614 0.01125074
v 0.12579222 -0.04477659 0.00388954
v 0.13051430 -0.04267057 0.00252923
v 0.12600143 -0.03893343 0.00151463
v 0.12964688 -0.04089219 0.00185574
v 0.12546200 -0.04463931 0.00910154
v 0.12570809 -0.04338698 0.01064889
v 0.13082182 -0.04543451 0.00919460
v 0.13153262 -0.02724709 0.00715201
v 0.13090147 -0.04632602 0.00609493
v 0.12518618 -0.03659616 0.01179764
v 0.12911271 -0.03758707 0.01189601
v 0.12803095 -0.03559827 0.01205338
v 0.12741685 -0.04722584 0.00521094
v 0.13050889 -0.04455180 0.00313375
v 0.12742836 -0.04405567 0.00226913
v 0.13148189 -0.04420243 0.00655409
v 0.12641441 -0.04525506 0.00980502
v 0.13156096 -0.04353870 0.00691612
v 0.13032032 -0.04101957 0.01124501
v 0.12897500 -0.04742916 0.00456723
v 0.13147610 -0.03676917 0.00374779
v 0.13149127 -0.02799863 0.00840122
v 0.12527636 -0.04022859 0.01151943
v 0.13030276 -0.03487283 0.00190235
v 0.13180771 -0.03002107 0.00642556
v 0.12708433 -0.02517585 0.01167090
v 0.12618111 -0.04376671 0.00256834
v 0.13106185 -0.04187106 0.01036112
v 0.13134142 -0.02769352 0.00462123
v 0.13038404 -0.03360678 0.01133169
v 0.13161887 -0.03824483 0.00441464
v 0.13036752 -0.03671469 0.01146285
v 0.13084194 -0.03619721 0.00236685
v 0.13153975 -0.03207538 0.00913734
v 0.13153975 -0.03008070 0.00442527
v 0.12764739 -0.04214143 0.01158078
v 0.12891305 -0.04725202 0.00911623
v 0.13045919 -0.02781413 0.01038342
v 0.12548609 -0.04074829 0.00186039
v 0.12785612 -0.04623936 0.00338308
v 0.12968534 -0.04139931 0.01144546
v 0.13181506 -0.03039744 0.00652203
v 0.13008085 -0.02763952 0.01069238
v 0.13160419 -0.04212197 0.00819041
v 0.12880568 -0.02957466 0.01167150
v 0.12634578 -0.04030777 0.01177265
v 0.12874773 -0.03661758 0.01199456
v 0.13064847 -0.02731630 0.00999855
v 0.13162717 -0.02867714 0.00515664
v 0.13082897 -0.04412473 0.00998046
v 0.13113245 -0.02744763 0.00920737
v 0.12726529 -0.02510327 0.00175153
v 0.12569794 -0.03856106 0.00153367
v 0.12575091 -0.03696007 0.00147711
v 0.12665355 -0.04263157 0.00196659
v 0.12994567 -0.03985127 0.01152647
v 0.12592237 -0.04005900 0.00163561
v 0.12928659 -0.04202164 0.00192955
v 0.12677040 -0.04689517 0.00565347
v 0.12561612 -0.03981125 0.01168588
v 0.12647498 -0.04081670 0.01171797
v 0.12718656 -0.04543006 0.00304780
v 0.13158202 -0.03616056 0.00910847
v 0.13133970 -0.02915592 0.00400657
v 0.12523162 -0.04352258 0.00992564
v 0.12983206 -0.03537962 0.01174120
v 0.12795638 -0.04670899 0.00380790
v 0.13061470 -0.03405964 0.01114853
v 0.13059751 -0.03971969 0.00218669
v 0.13152836 -0.02721306 0.00710939
v 0.13064957 -0.03118106 0.00255119
v 0.12856147 -0.04303734 0.01134144
v 0.13062584 -0.04476098 0.01000339
v 0.13094938 -0.03215077 0.00281669
v 0.12820740 -0.04349332 0.01127438
v 0.12529254 -0.02570301 0.01185869
v 0.13137339 -0.04257622 0.00414437
v 0.12979979 -0.02918359 0.00216491
v 0.12598925 -0.03800028 0.01190579
v 0.12782059 -0.03990514 0.00150796
v 0.12993654 -0.02852893 0.00236968
v 0.12891248 -0.03642442 0.00139854
v 0.13178981 -0.03430112 0.00744085
v 0.13011197 -0.02953947 0.00231767
v 0.13080202 -0.03459655 0.01096303
v 0.12798620 -0.04635619 0.00343990
v 0.12911634 -0.03062497 0.01169527
v 0.13145160 -0.03975782 0.00369434
v 0.12808592 -0.03696096 0.01203765
v 0.12601641 -0.03858832 0.00148392
v 0.12920070 -0.03315602 0.01186115
v 0.12782859 -0.04562323 0.01042695
v 0.12700209 -0.04457962 0.01078101
v 0.12740158 -0.04696879 0.00867764
v 0.13122779 -0.04305335 0.00954394
v 0.12892995 -0.04564020 0.00294099
v 0.12704735 -0.04400392 0.01105040
v 0.12728889 -0.04343902 0.01127172
v 0.12600642 -0.03844789 0.00147684
v 0.12597434 -0.04364618 0.01071141
v 0.13088777 -0.03770576 0.01096397
v 0.13017702 -0.04046988 0.01137119
v 0.12996612 -0.02501884 0.00979425
v 0.12621377 -0.04296169 0.00218488
v 0.12592583 -0.04157948 0.01147536
v 0.13113662 -0.04049018 0.01043811
v 0.13177046 -0.02985166 0.00574160
v 0.12660772 -0.04517796 0.01009264
v 0.12694097 -0.04701095 0.00555513
v 0.13133655 -0.03049997 0.00374286
v 0.12812886 -0.04262501 0.00189099
v 0.13070179 -0.02615843 0.00404601
v 0.13008433 -0.02951883 0.01106220
v 0.13126214 -0.04102384 0.01007634
v 0.13053185 -0.03333652 0.01117483
v 0.13108845 -0.03578776 0.01058346
v 0.13124080 -0.03730041 0.01034985
v 0.12776354 -0.04575776 0.01032586
v 0.13169856 -0.04077308 0.00529216
v 0.13114826 -0.04519209 0.00823301
v 0.13074356 -0.03176109 0.00258727
v 0.12567727 -0.04517889 0.00457207
v 0.13173308 -0.04008323 0.00768796
v 0.13098629 -0.03791725 0.00254043
v 0.12716940 -0.03810746 0.01199668
v 0.13122681 -0.04056157 0.01023681
v 0.13173423 -0.03055415 0.00803756
v 0.12947592 -0.02562953 0.01060904
v 0.13132343 -0.04344459 0.00895664
v 0.12531170 -0.04237900 0.00250002
v 0.12664415 -0.04229064 0.01147651
v 0.12699748 -0.04698338 0.00533971
v 0.13062872 -0.04042141 0.00226776
v 0.12982666 -0.02560753 0.00308431
v 0.13024399 -0.03864307 0.00188603
v 0.12948529 -0.04063567 0.01158113
v 0.12781779 -0.03534935 0.00130752
v 0.12845824 -0.03700734 0.01201021
v 0.13130121 -0.04188635 0.00359325
v 0.12514573 -0.04322139 0.00330344
v 0.12501708 -0.04209605 0.01071550
v 0.13038181 -0.04089142 0.00214074
v 0.13127539 -0.02750349 0.00450123
v 0.12714058 -0.04421085 0.01098812
v 0.12893413 -0.03238811 0.01186695
v 0.13129320 -0.03593755 0.00322554
v 0.13100130 -0.02634616 0.00463402
v 0.13068410 -0.02985688 0.01057932
v 0.12815878 -0.02553869 0.00199790
v 0.13101659 -0.04580344 0.00795639
v 0.12720839 -0.04387906 0.01112645
v 0.13023881 -0.04538612 0.01006781
v 0.12558162 -0.04309958 0.00265831
v 0.13083381 -0.04618933 0.00815254
v 0.12572576 -0.04121172 0.00187955
v 0.12899732 -0.04731205 0.00900783
v 0.13025501 -0.03663388 0.00183263
v 0.12976972 -0.03499109 0.00161321
v 0.12679586 -0.04707230 0.00685053
v 0.13070909 -0.04371643 0.01034451
v 0.13089380 -0.04382843 0.00334646
v 0.13094557 -0.03624768 0.00251208
v 0.12717756 -0.02506681 0.01163626
v 0.13002486 -0.03730664 0.00172050
v 0.12678787 -0.04614325 0.00918143
v 0.13034461 -0.04549947 0.00991363
v 0.13135527 -0.04284922 0.00917394
v 0.13149007 -0.04357347 0.00548409
v 0.12990473 -0.04648666 0.00957274
v 0.13062653 -0.02524949 0.00869991
v 0.12505973 -0.03830273 0.00168412
v 0.13108448 -0.04477015 0.00439869
v 0.12764446 -0.04511731 0.00269821
v 0.13140128 -0.02840010 0.00894693
v 0.13037406 -0.02501158 0.00907177
v 0.12932631 -0.03655433 0.01189012
v 0.13033388 -0.03329938 0.00201971
v 0.13114836 -0.03920078 0.00284509
v 0.12735607 -0.04509253 0.01062251
v 0.13136590 -0.03810279 0.00331486
v 0.12695555 -0.03862428 0.01196902
v 0.13095547 -0.03164499 0.00288343
v 0.13141719 -0.04448083 0.00733539
v 0.12967040 -0.03832428 0.01172583
v 0.12994506 -0.02958499 0.01117475
v 0.12942827 -0.03265987 0.01177123
v 0.12965450 -0.04763894 0.00753403
v 0.13139705 -0.03797327 0.00996602
v 0.13114598 -0.04404163 0.00924275
v 0.13006345 -0.04724371 0.00522922
v 0.13166638 -0.03751683 0.00868673
v 0.12621788 -0.04336394 0.01102719
v 0.12790374 -0.04034093 0.00155277
v 0.12705540 -0.04718024 0.00751939
v 0.13100599 -0.02957025 0.00326825
v 0.12634183 -0.04274216 0.01130113
v 0.13035572 -0.04433618 0.01046073
v 0.13093459 -0.02729618 0.00955845
v 0.13151364 -0.03082578 0.00916312
v 0.12819497 -0.04341783 0.01129242
v 0.13117843 -0.03690167 0.01046810
v 0.12683361 -0.04704812 0.00604320
v 0.13086131 -0.03251850 0.01070353
v 0.12600205 -0.04433107 0.01023274
v 0.13080531 -0.02565349 0.00867935
v 0.13176026 -0.02901054 0.00616196
v 0.12788122 -0.04233530 0.00181457
v 0.12873226 -0.02511908 0.00238319
v 0.12994804 -0.04100595 0.01141027
v 0.13090894 -0.04030425 0.01082876
v 0.13053984 -0.03052423 0.00252816
v 0.12623180 -0.04290708 0.00215805
v 0.12753674 -0.04606556 0.00998020
v 0.12574878 -0.04108106 0.00184433
v 0.13026395 -0.02790864 0.01061012
v 0.12835097 -0.04784507 0.00625391
v 0.12823784 -0.04200082 0.01157536
v 0.13132819 -0.04367978 0.00461155
v 0.13016062 -0.02688978 0.01040232
v 0.13079420 -0.04152364 0.00257914
v 0.12715614 -0.04086016 0.01177185
v 0.13069765 -0.02612419 0.00406023
v 0.13035785 -0.03093570 0.00230394
v 0.12729200 -0.04528620 0.00289126
v 0.12721035 -0.04728144 0.00755066
v 0.12856997 -0.02811433 0.01157800
v 0.12804503 -0.03939093 0.01189493
v 0.12726388 -0.04016433 0.01185426
v 0.12846148 -0.04476450 0.01086473
v 0.12986333 -0.03741078 0.01171003
v 0.12843022 -0.03676994 0.00134969
v 0.13106312 -0.02830647 0.00367300
v 0.12762150 -0.04074300 0.01179269
v 0.12865870 -0.03429037 0.01198960
v 0.13150341 -0.04162680 0.00905062
v 0.12899551 -0.03753556 0.01191901
v 0.13173856 -0.04054693 0.00750741
v 0.13133968 -0.02981660 0.00384879
v 0.12960789 -0.03481346 0.01181171
v 0.13043134 -0.04593633 0.00385718
v 0.13089177 -0.03379622 0.00257791
v 0.13176990 -0.04014387 0.00710456
v 0.12667262 -0.03998529 0.00151490
v 0.12831246 -0.03338595 0.01199153
v 0.12920455 -0.04720013 0.00423501
v 0.12946878 -0.03800807 0.00155762
v 0.12906932 -0.03838921 0.01186936
v 0.13087360 -0.03541927 0.01091452
v 0.12672892 -0.03671889 0.00134824
v 0.13150248 -0.04250004 0.00857397
v 0.12607881 -0.04580575 0.00856014
v 0.12853228 -0.02877029 0.01166065
v 0.12532051 -0.04017097 0.01154489
v 0.13061757 -0.03673015 0.01126362
v 0.12771817 -0.04249089 0.00184410
v 0.13040602 -0.04664650 0.00870107
v 0.12900565 -0.03867159 0.01186105
v 0.12959688 -0.03066371 0.00185198
v 0.12825510 -0.04268545 0.00191696
v 0.12905986 -0.03974370 0.01176581
v 0.13039009 -0.03117483 0.01106161
v 0.12977613 -0.02610953 0.01052351
v 0.12866522 -0.03882680 0.00147152
v 0.12519685 -0.04221143 0.00251784
v 0.13088781 -0.04454822 0.00374023
v 0.13151464 -0.04396590 0.00644256
v 0.12665512 -0.03791025 0.01198844
v 0.12678728 -0.04082833 0.01175323
v 0.12985784 -0.04311447 0.01108075
v 0.13045930 -0.03032481 0.01088790
v 0.13081781 -0.02846330 0.01012173
v 0.13095912 -0.03231872 0.01055092
v 0.13165461 -0.04075341 0.00490904
v 0.12653041 -0.03719088 0.01199432
v 0.13112119 -0.03833736 0.01061108
v 0.12771072 -0.04354354 0.00210317
v 0.12969408 -0.03370278 0.01174087
v 0.13062071 -0.03858182 0.01123336
v 0.13007537 -0.02583500 0.00325441
v 0.12867411 -0.04572550 0.01040664
v 0.12584025 -0.03982234 0.00162957
v 0.12646787 -0.04421579 0.00264601
v 0.12584151 -0.04446862 0.00348622
v 0.12948580 -0.03647141 0.01184844
v 0.12764155 -0.04111786 0.01174884
v 0.12537964 -0.03715297 0.00153425
v 0.13127727 -0.04523393 0.00624527
v 0.12960384 -0.03904934 0.00166602
v 0.12968642 -0.04672253 0.00387876
v 0.13047777 -0.04434034 0.01035224
v 0.13173128 -0.02959440 0.00789854
v 0.12950943 -0.03280978 0.01175346
v 0.13145500 -0.04433348 0.00632708
v 0.12862721 -0.03593336 0.00135798
v 0.12882023 -0.02807415 0.01149394
v 0.12790284 -0.02543709 0.00191766
v 0.12611969 -0.03887699 0.01187428
v 0.13068748 -0.04530710 0.00958410
v 0.12931499 -0.02940353 0.01147792
v 0.12620747 -0.04618951 0.00517476
v 0.12501083 -0.03680752 0.00162557
v 0.13055792 -0.02892863 0.01053942
v 0.12831998 -0.02689572 0.01151096
v 0.12899324 -0.03279893 0.00148121
v 0.13006034 -0.03518817 0.01163063
v 0.12528954 -0.02511715 0.00146766
v 0.12627944 -0.04629246 0.00813511
v 0.13139614 -0.02903114 0.00916679
v 0.13155937 -0.04087906 0.00433798
v 0.12888381 -0.04783973 0.00590202
v 0.13163185 -0.02842739 0.00795307
v 0.12834629 -0.02555538 0.01128673
v 0.12942098 -0.04164223 0.00188869
v 0.12697029 -0.04039655 0.01181725
v 0.13052440 -0.03478142 0.00207961
v 0.13070411 -0.03019674 0.01061619
v 0.13054476 -0.02980486 0.00264737
v 0.12900340 -0.03628059 0.00141233
v 0.12773682 -0.04566953 0.00298885
v 0.12948626 -0.04501217 0.01060072
v 0.13142305 -0.04011720 0.00359859
v 0.12908041 -0.03942787 0.00157969
v 0.12905486 -0.04718050 0.00416568
v 0.13137164 -0.03360616 0.00978740
v 0.12916786 -0.03421203 0.00145741
v 0.12682362 -0.03989207 0.00149886
v 0.13095437 -0.04620626 0.00615577
v 0.13179092 -0.03022266 0.00754307
v 0.13161022 -0.03845105 0.00898087
v 0.13093568 -0.04629524 0.00699302
v 0.13100392 -0.04462355 0.00404473
v 0.12798387 -0.02550438 0.01143114
v 0.12507021 -0.03741751 0.00162499
v 0.12981984 -0.04478369 0.01057934
v 0.12934847 -0.04593058 0.00317367
v 0.13021210 -0.03730033 0.00181164
v 0.13162657 -0.04208615 0.00788817
v 0.13181779 -0.03090039 0.00639786
v 0.12980893 -0.04560430 0.00315528
v 0.13151091 -0.02812113 0.00838506
v 0.12746702 -0.03739655 0.01202409
v 0.12726331 -0.04714000 0.00525612
v 0.13016847 -0.03194858 0.01133553
v 0.12780732 -0.03900601 0.00142823
v 0.13039622 -0.03200850 0.00220025
v 0.13143543 -0.04105495 0.00382771
v 0.13129680 -0.03264137 0.00343306
v 0.12987421 -0.04417372 0.00259233
v 0.13104703 -0.04275626 0.00322863
v 0.12899482 -0.03901377 0.00153356
v 0.12871063 -0.03548249 0.01199993
v 0.12703224 -0.04240590 0.01149915
v 0.13178712 -0.04039996 0.00664519
v 0.12887199 -0.03751625 0.01194137
v 0.13179328 -0.03109077 0.00755589
v 0.12509035 -0.04345934 0.00975409
v 0.12783857 -0.03468944 0.01204454
v 0.13002563 -0.04718471 0.00498452
v 0.12826765 -0.04215621 0.00181793
v 0.12731402 -0.04148708 0.01168747
v 0.12639473 -0.04183298 0.01153682
v 0.13146223 -0.04320571 0.00834003
v 0.12514812 -0.04020852 0.00190067
v 0.12859536 -0.04583972 0.01035099
v 0.13177167 -0.02902977 0.00630813
v 0.12865825 -0.04608492 0.00315903
v 0.12595605 -0.04200431 0.01138907
v 0.12694929 -0.04718741 0.00673165
v 0.13144295 -0.04238565 0.00440988
v 0.13180873 -0.03068558 0.00717036
v 0.13102122 -0.02588675 0.00525006
v 0.12975109 -0.03834576 0.01169874
v 0.13030305 -0.04640371 0.00412941
v 0.13095962 -0.03257722 0.01057816
v 0.13097933 -0.04306239 0.01016830
v 0.13017610 -0.03529408 0.00179900
v 0.13058829 -0.03518081 0.01125056
v 0.12917869 -0.03740269 0.00148033
v 0.13086846 -0.04419779 0.00986544
v 0.13134403 -0.04315649 0.00432462
v 0.12860538 -0.03216134 0.01189640
v 0.13060125 -0.03966977 0.00218551
v 0.12816861 -0.04080780 0.01174877
v 0.12866989 -0.03577211 0.00136473
v 0.12927784 -0.04071347 0.00174447
v 0.13111623 -0.04554683 0.00781597
v 0.13176036 -0.03890863 0.00750685
v 0.13075775 -0.03118335 0.01068899
v 0.13178753 -0.03910560 0.00704496
v 0.12913573 -0.02721421 0.00214837
v 0.12654210 -0.03779637 0.01198034
v 0.12544973 -0.04568850 0.00657013
v 0.12930312 -0.03413625 0.01187895
v 0.13098365 -0.02544209 0.00602652
v 0.12980891 -0.04250768 0.01121325
v 0.13069172 -0.02674169 0.00967082
v 0.12751537 -0.04245662 0.00184192
v 0.13147654 -0.04027528 0.00951501
v 0.12686351 -0.04651955 0.00464055
v 0.13149263 -0.04407608 0.00624019
v 0.13053057 -0.03479286 0.00208494
v 0.12683418 -0.04666096 0.00842684
v 0.13070732 -0.04002749 0.00230533
v 0.12881746 -0.04761812 0.00835528
v 0.13022447 -0.03279379 0.00197859
v 0.13129104 -0.03565120 0.01013312
v 0.13118636 -0.04268114 0.00355995
v 0.12520087 -0.04321089 0.01015307
v 0.13057646 -0.03245317 0.00232523
v 0.13096197 -0.02767601 0.00964846
v 0.13038704 -0.04471766 0.01027122
v 0.13000023 -0.03225257 0.01148034
v 0.12581231 -0.04016935 0.01169295
v 0.12609364 -0.03764613 0.00144046
v 0.13080249 -0.04322352 0.00297262
v 0.13054108 -0.04143161 0.00233541
v 0.12859147 -0.02783596 0.00182859
v 0.13093043 -0.02666349 0.00419159
v 0.12796245 -0.04535193 0.00276962
v 0.13140951 -0.03759280 0.00990397
v 0.13093294 -0.02650867 0.00906686
v 0.12897566 -0.04202379 0.01150212
v 0.12529102 -0.04527756 0.00566308
v 0.13166702 -0.04256770 0.00672301
v 0.13168304 -0.04126005 0.00543742
v 0.13022561 -0.03158386 0.00211478
v 0.12579632 -0.03804593 0.01187124
v 0.12955563 -0.02877171 0.00209657
v 0.13144437 -0.03974292 0.00973558
v 0.13132594 -0.03882031 0.00322961
v 0.12914875 -0.04510465 0.00272291
v 0.12768805 -0.03754748 0.00134799
v 0.12738133 -0.04746541 0.00697572
v 0.12880870 -0.04749647 0.00469725
v 0.12709807 -0.04705927 0.00533636
v 0.12513195 -0.04251627 0.00276979
v 0.13105286 -0.02922206 0.00340847
v 0.12730190 -0.04048248 0.01181995
v 0.13028232 -0.03747745 0.00185468
v 0.13002207 -0.02807899 0.01084664
v 0.13165657 -0.03911847 0.00475455
v 0.12958151 -0.02559347 0.00286705
v 0.13002635 -0.03943188 0.00182792
v 0.13085151 -0.03468383 0.00245802
v 0.13147993 -0.02808722 0.00491793
v 0.12697374 -0.04642231 0.00435417
v 0.12861888 -0.04034229 0.00159263
v 0.12862507 -0.02627911 0.00207498
v 0.12974627 -0.03304310 0.01167500
v 0.12804824 -0.04775841 0.00617430
v 0.12599703 -0.04572474 0.00481935
v 0.12606596 -0.04490546 0.00975530
v 0.12968256 -0.03443048 0.01177742
v 0.12668605 -0.03621027 0.01202204
v 0.13135678 -0.04493849 0.00698803
v 0.13003990 -0.04644550 0.00386916
v 0.13082332 -0.04354135 0.00311222
v 0.13127031 -0.04384109 0.00891894
v 0.13127317 -0.02795781 0.00912958
v 0.12535739 -0.04270207 0.00263523
v 0.12583324 -0.03914753 0.00155655
v 0.12763100 -0.04426214 0.00232405
v 0.13008516 -0.04014487 0.00192311
v 0.12996912 -0.02650585 0.00290136
v 0.12592102 -0.04525946 0.00910253
v 0.13152782 -0.03791511 0.00388770
v 0.13027082 -0.02805224 0.00273348
v 0.12935537 -0.03506511 0.01188097
v 0.12709310 -0.04323952 0.00205066
v 0.12882219 -0.03332537 0.00143111
v 0.13072504 -0.03468720 0.00229333
v 0.12939115 -0.03883738 0.01176732
v 0.13007059 -0.04424119 0.00269834
v 0.13170694 -0.03775285 0.00839765
v 0.12545951 -0.04568159 0.00706214
v 0.12905638 -0.03781087 0.01189802
v 0.12907506 -0.04771431 0.00537076
v 0.12765290 -0.03774690 0.00135748
v 0.12555076 -0.04036075 0.00176744
v 0.12986301 -0.04757994 0.00623694
v 0.13129826 -0.03859883 0.00314392
v 0.13023131 -0.02663253 0.01024719
v 0.12747679 -0.04112363 0.00161753
v 0.13104779 -0.03128989 0.00306763
v 0.12528320 -0.04001117 0.01155479
v 0.12567582 -0.04443749 0.00370823
v 0.13161757 -0.03147687 0.00462213
v 0.13065690 -0.04300283 0.01063083
v 0.12509605 -0.03539585 0.00158438
v 0.13063214 -0.02731283 0.00335100
v 0.12840342 -0.04151296 0.01163306
v 0.13166545 -0.04219498 0.00619519
v 0.12877467 -0.04606780 0.00315877
v 0.13085119 -0.04562613 0.00442324
v 0.13150695 -0.03838036 0.00953244
v 0.12711097 -0.03744617 0.01201846
v 0.13065309 -0.03248818 0.00240141
v 0.12994083 -0.04559117 0.00321371
v 0.12942204 -0.03968608 0.00167029
v 0.12624359 -0.04443172 0.00296963
v 0.13167877 -0.03734594 0.00859478
v 0.12706939 -0.03814777 0.00136962
v 0.12874732 -0.03271487 0.00144780
v 0.12732251 -0.03695634 0.00133568
v 0.13158947 -0.03977138 0.00438620
v 0.12938869 -0.04101941 0.01156200
v 0.12653080 -0.04571056 0.00397971
v 0.13173717 -0.03985004 0.00767255
v 0.12844203 -0.04404045 0.01111153
v 0.12876152 -0.03563330 0.00137862
v 0.13177924 -0.03714722 0.00742359
v 0.13034774 -0.04300692 0.00249390
v 0.13066117 -0.04569627 0.00933525
v 0.12644543 -0.04070983 0.00163724
v 0.12865583 -0.02846343 0.01159237
v 0.12828908 -0.03270196 0.00140855
v 0.13179795 -0.02988933 0.00613457
v 0.12620366 -0.04064834 0.00166085
v 0.12680850 -0.04398750 0.01099517
v 0.13061625 -0.02959786 0.01061466
v 0.13130337 -0.04497696 0.00579892
v 0.12812030 -0.03626244 0.00132536
v 0.12975634 -0.03987735 0.01159047
v 0.12642357 -0.04502513 0.00332009
v 0.13086289 -0.03283905 0.00262567
v 0.13016373 -0.03389188 0.01151522
v 0.13152723 -0.04365463 0.00607534
v 0.13091968 -0.03864943 0.01091413
v 0.12948364 -0.02540328 0.01051416
v 0.13092616 -0.03903705 0.00248712
v 0.13143184 -0.03925531 0.00981818
v 0.13171433 -0.04173155 0.00665892
v 0.13107283 -0.04582061 0.00581925
v 0.13177382 -0.04018902 0.00634530
v 0.12901155 -0.02924655 0.00179223
v 0.12885512 -0.03617604 0.01197974
v 0.12715551 -0.04218594 0.00180967
v 0.12664413 -0.04318627 0.00211851
v 0.13131072 -0.02865270 0.00408224
v 0.12736656 -0.04743991 0.00715690
v 0.12551056 -0.04436403 0.00948521
v 0.13182601 -0.03159286 0.00670293
v 0.12731015 -0.04032329 0.00152948
v 0.12670302 -0.04244599 0.01145099
v 0.12853881 -0.04733599 0.00443122
v 0.12935646 -0.04765119 0.00534570
v 0.13143981 -0.03339378 0.00379888
v 0.13164880 -0.03817026 0.00461065
v 0.13155932 -0.02725331 0.00667465
v 0.12744922 -0.04751676 0.00680382
v 0.12750380 -0.04246577 0.01152301
v 0.12764173 -0.04124468 0.01173048
v 0.13180540 -0.03253362 0.00717578
v 0.13127723 -0.04447008 0.00495004
v 0.12764733 -0.04720680 0.00486738
v 0.13170471 -0.02950384 0.00536946
v 0.13088517 -0.03585401 0.01091634
v 0.13030195 -0.03206324 0.00211723
v 0.12502739 -0.02895797 0.00161674
v 0.12916026 -0.04661568 0.00978515
v 0.13167221 -0.02954224 0.00515607
v 0.12529329 -0.04438745 0.00910227
v 0.12509455 -0.03917427 0.00175871
v 0.12663816 -0.04453927 0.00274080
v 0.13064873 -0.03996034 0.00224636
v 0.13112365 -0.04437418 0.00426968
v 0.13027886 -0.03902206 0.00192230
v 0.13154556 -0.04374074 0.00671342
v 0.13127362 -0.04252325 0.00961247
v 0.12993707 -0.02848569 0.00237796
v 0.12926857 -0.04062285 0.01163603
v 0.13023879 -0.02658831 0.00314774
v 0.13170104 -0.04181284 0.00647110
v 0.12597008 -0.03833204 0.01188946
v 0.13172088 -0.03813120 0.00523949
v 0.13122499 -0.02978782 0.00361143
v 0.13005264 -0.03855048 0.00179015
v 0.12599681 -0.03955915 0.00156786
v 0.12820947 -0.04714433 0.00425094
v 0.13084057 -0.04360570 0.01020817
v 0.13125823 -0.02617583 0.00652973
v 0.13148114 -0.04287514 0.00847002
v 0.13142337 -0.03351994 0.00373472
v 0.12606678 -0.02524937 0.00152982
v 0.12957548 -0.03722643 0.00156508
v 0.12926166 -0.04037313 0.00170142
v 0.12882259 -0.03160556 0.00152758
v 0.13169253 -0.04197080 0.00647543
v 0.12516415 -0.02556263 0.00149535
v 0.13006425 -0.02817175 0.00253535
v 0.13159306 -0.04037346 0.00447487
v 0.12671107 -0.03727239 0.01200977
v 0.13095870 -0.02815516 0.00983462
v 0.13145767 -0.04122557 0.00395327
v 0.12651391 -0.04082192 0.00164455
v 0.12574277 -0.04506375 0.00428218
v 0.12518275 -0.04410880 0.00924801
v 0.13090363 -0.03140047 0.00283842
v 0.13133798 -0.04105956 0.00350098
v 0.13062278 -0.02737742 0.00331409
v 0.12590458 -0.04269613 0.00223368
v 0.12864482 -0.04756613 0.00487851
v 0.13124327 -0.04023575 0.00311769
v 0.12756190 -0.03570285 0.00131516
v 0.13166408 -0.04060346 0.00840890
v 0.12526577 -0.04312291 0.00305659
v 0.13144119 -0.03049742 0.00401693
v 0.12880057 -0.03339479 0.00142466
v 0.12819134 -0.04211908 0.01156182
v 0.13155729 -0.03303716 0.00909410
v 0.12810588 -0.04094675 0.01173488
v 0.12816154 -0.04016728 0.01181610
v 0.13146420 -0.02901939 0.00896228
v 0.13142635 -0.04275532 0.00452501
v 0.13066504 -0.03130127 0.01081321
v 0.13067588 -0.04117157 0.01096262
v 0.13027296 -0.04036030 0.01133593
v 0.12956325 -0.03295961 0.01174315
v 0.12711779 -0.04598305 0.00360989
v 0.12586810 -0.02507490 0.01186516
v 0.12616703 -0.04127061 0.01159404
v 0.12788756 -0.03432296 0.01203423
v 0.13002965 -0.03371982 0.00178231
v 0.13068137 -0.04596905 0.00435160
v 0.12521597 -0.04042579 0.01145804
v 0.13175851 -0.02968156 0.00570891
v 0.12833548 -0.04460069 0.01093536
v 0.13166489 -0.03734021 0.00469627
v 0.12758136 -0.04754714 0.00606385
v 0.13170529 -0.03798731 0.00838748
v 0.13149775 -0.03998446 0.00943649
v 0.12970923 -0.03050685 0.01144444
v 0.12998577 -0.04561852 0.01011422
v 0.13179136 -0.03133240 0.00758690
v 0.13019097 -0.02666439 0.00306607
v 0.12812891 -0.04299490 0.00197265
v 0.12934539 -0.04584606 0.01024266
v 0.12624991 -0.04539449 0.00397466
v 0.13171796 -0.03038478 0.00814569
v 0.13069229 -0.03930300 0.00223662
v 0.13095035 -0.03439506 0.00262148
v 0.13175392 -0.03760985 0.00782317
v 0.12871633 -0.02861441 0.01159184
v 0.12789607 -0.04741951 0.00504521
v 0.12695902 -0.04547432 0.00323952
v 0.12607583 -0.04639834 0.00635552
v 0.12938780 -0.02607203 0.00255700
v 0.13114188 -0.03467595 0.00294119
v 0.12919524 -0.03414794 0.01190005
v 0.12997864 -0.04149617 0.01132966
v 0.12590589 -0.04587762 0.00810206
v 0.13158657 -0.03807630 0.00418274
v 0.13085309 -0.02512776 0.00610392
v 0.13099226 -0.04041685 0.00266413
v 0.13044708 -0.03939872 0.01131833
v 0.13121775 -0.04451334 0.00471160
v 0.13104424 -0.04603698 0.00694827
v 0.13135610 -0.03370521 0.00352961
v 0.12515394 -0.04000210 0.00186088
v 0.13104121 -0.04425927 0.00944115
v 0.12949500 -0.03083983 0.00178647
v 0.13082447 -0.02567151 0.00474683
v 0.12977377 -0.03742492 0.01173755
v 0.12785098 -0.03534198 0.00130645
v 0.12921538 -0.02583398 0.00250461
v 0.13108656 -0.04402062 0.00944660
v 0.12818280 -0.03816260 0.00139188
v 0.13098146 -0.03829466 0.00252913
v 0.12762552 -0.04761423 0.00665910
v 0.13057762 -0.02511475 0.00867205
v 0.12542283 -0.03829937 0.01178116
v 0.13112943 -0.02581235 0.00645545
v 0.13149070 -0.03247607 0.00934540
v 0.12722087 -0.04298135 0.00197321
v 0.12546268 -0.03736210 0.01184155
v 0.12873893 -0.02584084 0.01115371
v 0.12594996 -0.03959291 0.01179047
v 0.12865907 -0.03052114 0.01178507
v 0.12909087 -0.03672501 0.01193257
v 0.12995600 -0.04675016 0.00412093
v 0.13065454 -0.02797270 0.01020168
v 0.13134165 -0.03297511 0.00983959
v 0.13040209 -0.04711483 0.00617070
v 0.12901373 -0.03170950 0.00156115
v 0.12686698 -0.04148588 0.00169892
v 0.12890069 -0.02731853 0.00201356
v 0.13180566 -0.03096439 0.00613863
v 0.13177340 -0.03082167 0.00563307
v 0.13168397 -0.04228730 0.00669807
v 0.13051344 -0.02698749 0.00333148
v 0.13031677 -0.03617338 0.00187406
v 0.12543674 -0.04566491 0.00646381
v 0.13040441 -0.02660269 0.01002379
v 0.13086736 -0.03227123 0.00268874
v 0.13117805 -0.02708308 0.00889616
v 0.13051089 -0.04172248 0.01100867
v 0.12972277 -0.03717784 0.01175973
v 0.12653225 -0.04474054 0.01040757
v 0.12945135 -0.04554127 0.01037901
v 0.12848713 -0.03898145 0.00145849
v 0.12800170 -0.04691140 0.00933937
v 0.13057369 -0.03222087 0.01101621
v 0.13147715 -0.02973023 0.00907714
v 0.12574943 -0.04489748 0.00928807
v 0.12574903 -0.04241182 0.00220598
v 0.12872991 -0.02722784 0.01140827
v 0.13154906 -0.02906765 0.00469813
v 0.12948499 -0.02665888 0.01090617
v 0.13174735 -0.04070298 0.00716800
v 0.13076256 -0.04550034 0.00408568
v 0.12645198 -0.04324158 0.00219235
v 0.13145917 -0.03993720 0.00964123
v 0.12523135 -0.03888087 0.00167711
v 0.12520015 -0.04057102 0.00194372
v 0.13172756 -0.04087868 0.00593826
v 0.12899808 -0.03096804 0.00161494
v 0.13116427 -0.03868244 0.00284884
v 0.12666405 -0.04166415 0.00175114
v 0.13179857 -0.03429303 0.00723103
v 0.12622873 -0.04217658 0.00194062
v 0.13048304 -0.03805687 0.00201087
v 0.12518247 -0.03704008 0.01178621
v 0.13178926 -0.03914130 0.00692223
v 0.13091459 -0.04412616 0.00355348
v 0.13088567 -0.04528331 0.00422587
v 0.12753715 -0.04634542 0.00970091
v 0.12816067 -0.04239421 0.01151958
v 0.13166325 -0.04137982 0.00523770
v 0.13002084 -0.03911928 0.00180769
v 0.13135471 -0.04475772 0.00750280
v 0.12974914 -0.03955016 0.00174461
v 0.12724060 -0.04698232 0.00493304
v 0.13076944 -0.02505544 0.00566678
v 0.12505626 -0.02594619 0.00151920
v 0.13047664 -0.04656008 0.00467516
v 0.12841353 -0.04307539 0.01134741
v 0.13122724 -0.04224554 0.00985486
v 0.12517797 -0.04000240 0.01151611
v 0.12926221 -0.02814184 0.00204870
v 0.13144894 -0.02917399 0.00431258
v 0.12951274 -0.04625632 0.00994878
v 0.13107043 -0.03061964 0.00319658
v 0.13167227 -0.03207067 0.00492902
v 0.12673756 -0.04332036 0.01122486
v 0.12724823 -0.03754311 0.00134672
v 0.12914861 -0.03336598 0.01187900
v 0.13114005 -0.03286737 0.01028981
v 0.12867373 -0.02526888 0.01105463
v 0.13142614 -0.04167192 0.00938873
v 0.13090607 -0.04276786 0.00298096
v 0.12887895 -0.04684673 0.00375395
v 0.12887165 -0.02955548 0.00171799
v 0.12721470 -0.04042094 0.00154387
v 0.13063584 -0.02580428 0.00922329
v 0.13076339 -0.03582980 0.00228734
v 0.13138958 -0.04448598 0.00761616
v 0.13181898 -0.03104839 0.00694135
v 0.13148376 -0.04051735 0.00392894
v 0.13151127 -0.03908305 0.00944702
v 0.13162271 -0.04112286 0.00477468
v 0.13166597 -0.02791426 0.00694767
v 0.12549705 -0.03890922 0.01175802
v 0.13177476 -0.02931367 0.00739459
v 0.13170381 -0.04013525 0.00812197
v 0.13147876 -0.03815850 0.00968024
v 0.12833559 -0.04776969 0.00759562
v 0.13151186 -0.03744678 0.00953359
v 0.13103489 -0.04304601 0.01006441
v 0.13085499 -0.02735083 0.00365379
v 0.12887088 -0.04362091 0.00217917
v 0.13127930 -0.04530362 0.00652277
v 0.12775497 -0.03603702 0.00131580
v 0.13024830 -0.02748340 0.01050020
v 0.13107820 -0.04592507 0.00630610
v 0.12767557 -0.04757983 0.00599638
v 0.13163369 -0.02791711 0.00746947
v 0.13050710 -0.03267633 0.00222945
v 0.12950028 -0.04303891 0.00216410
v 0.12567030 -0.04264839 0.00234631
v 0.13135640 -0.02912909 0.00405636
v 0.13181388 -0.03061183 0.00688776
v 0.13110351 -0.02673149 0.00457593
v 0.12852934 -0.04160984 0.01160950
v 0.12957306 -0.04452389 0.00260581
v 0.12500648 -0.03437633 0.00161630
v 0.13139658 -0.03725685 0.00345552
v 0.12779595 -0.02520361 0.01145434
v 0.12825167 -0.04291167 0.00196211
v 0.13178612 -0.03319774 0.00759767
v 0.12711180 -0.03707669 0.00134173
v 0.12996281 -0.04706971 0.00461609
v 0.13072165 -0.04557050 0.00931722
v 0.12840561 -0.03884081 0.00144012
v 0.12710591 -0.03744277 0.00134609
v 0.12985214 -0.02939881 0.00216168
v 0.12627747 -0.03994911 0.00156058
v 0.12541373 -0.02513714 0.01190241
v 0.12953546 -0.03784903 0.01179505
v 0.13088319 -0.04632126 0.00750961
v 0.12842209 -0.04492940 0.00257295
v 0.13049993 -0.03738204 0.01136725
v 0.13102381 -0.02932617 0.00334365
v 0.12785922 -0.04712853 0.00887457
v 0.12782491 -0.04172676 0.01164669
v 0.12566020 -0.04493549 0.00426833
v 0.12640739 -0.03985023 0.01183412
v 0.12715363 -0.03927946 0.01193826
v 0.12636312 -0.04665592 0.00614450
v 0.13133016 -0.03300027 0.00349868
v 0.12631486 -0.04351940 0.01100121
v 0.13120851 -0.03102753 0.00339419
v 0.13132174 -0.04475861 0.00773709
v 0.12735824 -0.03879822 0.01195923
v 0.13111064 -0.04426462 0.00416407
v 0.13078056 -0.04149628 0.00256039
v 0.12705217 -0.04711376 0.00558785
v 0.13169557 -0.03893572 0.00836473
v 0.12576133 -0.04394127 0.01028816
v 0.13003601 -0.02851979 0.00244133
v 0.13031010 -0.04038135 0.00205464
v 0.12665883 -0.04672619 0.00790385
v 0.12900809 -0.04458476 0.01086099
v 0.12733082 -0.04280397 0.00191844
v 0.12889783 -0.03001773 0.00167477
v 0.12804450 -0.03661060 0.00132366
v 0.13084414 -0.03329866 0.01080760
v 0.12815298 -0.03562880 0.01204628
v 0.12500061 -0.02911162 0.01174708
v 0.13050905 -0.03380256 0.01122918
v 0.13008096 -0.03243936 0.01144720
v 0.13069145 -0.03484809 0.01112350
v 0.13031270 -0.04456672 0.01039515
v 0.13119585 -0.02761488 0.00422342
v 0.13175568 -0.03776778 0.00778002
v 0.13150573 -0.03836766 0.00953996
v 0.13149129 -0.04175822 0.00904480
v 0.13117603 -0.02644764 0.00825647
v 0.12649444 -0.04559849 0.00950376
v 0.13004000 -0.04006849 0.01147048
v 0.13064048 -0.02663348 0.00969833
v 0.12760722 -0.03480375 0.01204164
v 0.12914628 -0.03806268 0.00149796
v 0.13124143 -0.02634385 0.00567656
v 0.12942936 -0.04512195 0.01057120
v 0.12542291 -0.03986994 0.01162717
v 0.12629037 -0.04488720 0.00332149
v 0.13034257 -0.02868282 0.01070429
v 0.13011769 -0.03969713 0.00189525
v 0.12613739 -0.03942895 0.00153676
v 0.12706978 -0.04634204 0.00925675
v 0.12983864 -0.04724775 0.00480367
v 0.12701206 -0.04714356 0.00754873
v 0.12758158 -0.04511246 0.01066407
v 0.13029665 -0.03441919 0.00191824
v 0.12826566 -0.04784545 0.00665907
v 0.12635622 -0.04668091 0.00697989
v 0.13143780 -0.02962839 0.00418031
v 0.12963257 -0.02899287 0.01126042
v 0.13154450 -0.03284598 0.00421576
v 0.12841241 -0.03978291 0.01183862
v 0.13101795 -0.02550748 0.00616322
v 0.13081547 -0.03111222 0.00275330
v 0.12792977 -0.02538653 0.01143329
v 0.12687154 -0.04693051 0.00786333
v 0.13163868 -0.04076399 0.00855526
v 0.12569420 -0.03743287 0.01187411
v 0.12973773 -0.04739712 0.00831977
v 0.13095547 -0.02554194 0.00788233
f 838 194 881
f 190 359 717
f 359 2 339
f 339 642 359
f 542 787 339
f 787 642 339
f 881 194 775
f 717 359 569
f 359 105 637
f 261 105 786
f 881 787 612
f 612 838 881
f 787 838 612
f 586 547 607
f 129 787 881
f 290 406 295
f 723 258 921
f 921 706 723
f 495 517 700
f 520 688 22
f 517 688 520
f 475 448 94
f 613 222 794
f 420 678 194
f 510 402 214
f 62 28 32
f 763 318 384
f 619 52 433
f 881 775 63
f 63 129 881
f 6 477 290
f 428 541 633
f 541 428 81
f 786 706 447
f 12 916 840
f 893 807 156
f 156 807 228
f 228 807 258
f 786 105 228
f 228 706 786
f 228 723 706
f 228 105 359
f 359 673 228
f 228 673 156
f 800 252 361
f 459 241 735
f 29 4 911
f 685 4 29
f 29 352 685
f 345 502 685
f 556 569 359
f 359 637 556
f 359 190 657
f 657 190 717
f 717 825 657
f 626 406 585
f 406 290 762
f 478 406 626
f 776 406 595
f 295 406 442
f 406 776 442
f 442 776 595
f 595 772 442
f 332 715 275
f 259 102 602
f 595 406 391
f 21 61 123
f 123 61 602
f 660 910 88
f 912 88 540
f 660 88 912
f 105 877 769
f 769 877 714
f 517 495 187
f 332 688 187
f 187 688 517
f 187 715 332
f 786 715 187
f 187 261 786
f 187 495 261
f 718 495 700
f 261 495 718
f 700 443 718
f 718 443 261
f 643 520 872
f 700 517 643
f 517 520 643
f 370 520 22
f 805 877 105
f 311 848 479
f 479 458 311
f 311 676 714
f 311 458 676
f 479 848 137
f 872 520 137
f 520 370 137
f 623 443 700
f 700 643 623
f 623 643 872
f 739 443 792
f 105 261 349
f 261 202 349
f 349 470 105
f 739 470 349
f 349 202 739
f 261 443 501
f 501 202 261
f 501 443 739
f 739 202 501
f 528 745 445
f 194 489 193
f 193 409 194
f 895 135 431
f 457 240 920
f 613 90 209
f 209 222 613
f 209 920 222
f 209 90 457
f 457 920 209
f 222 920 309
f 852 207 309
f 309 920 240
f 43 541 749
f 417 613 690
f 613 794 690
f 686 222 219
f 686 794 222
f 322 448 475
f 322 43 749
f 749 72 322
f 118 409 650
f 171 613 417
f 74 233 839
f 741 796 540
f 384 318 777
f 777 214 384
f 318 214 777
f 460 402 192
f 192 52 460
f 460 214 402
f 384 214 460
f 460 52 384
f 32 28 736
f 736 39 32
f 852 309 736
f 736 309 240
f 533 736 240
f 39 736 533
f 778 763 384
f 547 763 778
f 788 62 32
f 384 619 225
f 225 607 547
f 225 778 384
f 547 778 225
f 709 619 433
f 607 225 709
f 709 225 619
f 384 52 867
f 867 619 384
f 52 619 867
f 380 62 586
f 28 62 383
f 383 710 852
f 62 380 383
f 852 736 383
f 383 736 28
f 574 607 221
f 586 607 574
f 220 15 303
f 170 241 459
f 220 802 622
f 673 79 216
f 12 156 216
f 156 673 216
f 345 685 140
f 140 685 352
f 914 447 706
f 921 725 914
f 914 706 921
f 896 196 835
f 447 914 896
f 385 916 12
f 12 356 385
f 315 535 156
f 181 42 315
f 801 42 181
f 801 156 12
f 12 840 801
f 156 535 746
f 746 893 156
f 746 535 101
f 101 893 746
f 258 723 223
f 223 228 258
f 723 228 223
f 666 361 756
f 756 361 252
f 252 692 756
f 734 646 101
f 258 807 474
f 474 748 258
f 258 748 890
f 890 748 21
f 921 258 890
f 890 21 921
f 101 646 51
f 646 361 512
f 8 252 800
f 8 735 252
f 459 735 8
f 8 170 459
f 252 735 726
f 687 527 842
f 180 692 244
f 527 687 180
f 348 356 696
f 696 140 348
f 348 140 352
f 348 352 29
f 4 685 238
f 238 911 4
f 640 556 637
f 640 637 105
f 105 769 640
f 717 569 661
f 569 556 661
f 431 135 371
f 347 575 717
f 211 371 378
f 638 371 211
f 626 585 641
f 641 478 626
f 742 585 406
f 406 762 742
f 742 641 585
f 290 477 742
f 742 762 290
f 681 741 628
f 796 741 681
f 130 52 192
f 433 52 130
f 221 433 667
f 781 172 478
f 817 658 290
f 842 527 695
f 136 442 772
f 136 687 842
f 490 855 22
f 915 370 248
f 22 855 248
f 248 370 22
f 855 490 248
f 835 196 886
f 196 896 82
f 165 822 332
f 332 275 165
f 740 391 406
f 628 741 740
f 660 400 163
f 864 163 400
f 676 458 907
f 625 688 332
f 22 688 653
f 653 822 22
f 653 543 822
f 688 625 653
f 105 470 588
f 588 805 105
f 588 470 739
f 714 877 588
f 877 805 588
f 739 792 588
f 588 311 714
f 588 792 311
f 134 137 848
f 872 137 134
f 134 623 872
f 443 623 481
f 481 792 443
f 848 311 481
f 311 792 481
f 542 339 354
f 339 386 354
f 354 787 542
f 354 838 787
f 194 838 354
f 354 489 194
f 212 255 421
f 353 175 504
f 650 409 476
f 409 193 476
f 528 650 476
f 476 745 528
f 175 353 476
f 467 152 339
f 106 386 339
f 339 152 106
f 657 847 843
f 557 657 825
f 557 847 657
f 717 575 878
f 878 825 717
f 635 15 220
f 809 15 415
f 415 511 809
f 703 94 448
f 448 322 703
f 703 322 72
f 213 126 633
f 633 541 213
f 541 43 213
f 387 686 885
f 119 283 358
f 358 506 119
f 119 506 292
f 330 506 358
f 633 126 103
f 103 432 633
f 821 428 633
f 633 432 821
f 821 81 428
f 417 690 333
f 662 780 475
f 89 604 780
f 413 89 605
f 604 89 413
f 836 662 475
f 270 662 836
f 475 94 559
f 913 436 46
f 436 836 46
f 46 836 475
f 475 559 46
f 46 559 624
f 300 3 310
f 3 913 310
f 860 286 280
f 280 286 913
f 280 3 860
f 280 913 3
f 436 286 338
f 338 413 605
f 270 836 338
f 665 436 913
f 913 286 665
f 665 286 436
f 70 505 891
f 891 161 70
f 70 161 505
f 49 757 505
f 194 409 461
f 409 118 461
f 751 161 266
f 266 232 751
f 266 171 232
f 145 906 232
f 232 171 145
f 145 171 417
f 151 604 35
f 233 483 534
f 770 534 656
f 656 534 483
f 192 402 656
f 402 707 656
f 374 483 233
f 374 656 483
f 160 259 418
f 273 868 707
f 707 868 456
f 363 533 240
f 32 39 243
f 39 533 243
f 510 214 67
f 763 293 67
f 67 214 318
f 318 763 67
f 62 788 677
f 677 763 547
f 677 293 763
f 677 547 586
f 586 62 677
f 271 709 433
f 607 709 271
f 271 433 221
f 221 607 271
f 827 824 710
f 710 383 827
f 827 383 380
f 586 824 827
f 827 380 586
f 27 207 203
f 203 173 27
f 439 173 203
f 340 824 586
f 586 574 340
f 340 574 824
f 824 574 346
f 728 63 775
f 775 724 728
f 477 6 390
f 579 430 83
f 83 883 579
f 579 330 358
f 502 330 579
f 85 854 307
f 307 430 85
f 358 283 85
f 85 283 854
f 85 579 358
f 430 579 85
f 17 430 307
f 465 685 502
f 502 579 465
f 465 579 883
f 97 658 918
f 15 20 97
f 290 658 97
f 97 20 477
f 477 390 97
f 97 6 290
f 97 390 6
f 802 451 167
f 244 692 116
f 116 820 244
f 692 820 116
f 87 692 252
f 244 820 382
f 918 658 382
f 382 527 244
f 818 241 584
f 818 820 241
f 482 818 584
f 482 167 451
f 918 451 288
f 288 451 802
f 288 97 918
f 288 802 220
f 288 303 15
f 15 97 288
f 749 541 669
f 541 81 669
f 669 72 749
f 669 25 72
f 854 283 708
f 670 72 708
f 72 25 708
f 696 356 279
f 279 568 696
f 279 216 568
f 279 356 12
f 12 216 279
f 345 140 239
f 239 330 345
f 98 140 696
f 98 216 79
f 79 140 98
f 447 896 424
f 424 715 786
f 786 447 424
f 424 200 715
f 424 896 835
f 835 200 424
f 634 914 725
f 634 896 914
f 602 896 634
f 634 123 602
f 21 123 634
f 634 725 921
f 921 21 634
f 582 315 156
f 181 315 582
f 156 801 582
f 582 801 181
f 493 238 166
f 911 238 493
f 29 911 493
f 916 385 365
f 365 840 916
f 365 801 840
f 646 734 324
f 807 893 449
f 449 893 101
f 251 51 646
f 748 474 251
f 251 474 807
f 807 449 251
f 101 51 251
f 251 449 101
f 227 361 666
f 227 512 361
f 169 8 800
f 377 735 241
f 241 726 377
f 377 726 735
f 241 820 473
f 473 726 241
f 820 726 473
f 606 136 772
f 687 136 606
f 244 527 554
f 554 180 244
f 527 180 554
f 829 61 21
f 364 816 829
f 759 385 356
f 356 348 759
f 759 365 385
f 759 348 29
f 556 640 357
f 378 661 357
f 717 661 437
f 437 347 717
f 210 744 492
f 873 195 44
f 44 195 516
f 492 744 774
f 774 744 808
f 782 630 496
f 478 641 545
f 641 742 545
f 545 742 477
f 545 781 478
f 477 580 545
f 221 781 545
f 545 580 221
f 406 172 587
f 587 172 628
f 587 740 406
f 628 740 587
f 406 478 768
f 768 172 406
f 478 172 768
f 494 172 326
f 628 172 494
f 540 796 705
f 796 681 705
f 705 494 326
f 31 130 422
f 422 667 31
f 433 130 31
f 31 667 433
f 658 817 870
f 870 382 658
f 442 136 564
f 842 695 564
f 564 136 842
f 822 886 285
f 22 822 285
f 285 490 22
f 498 82 896
f 602 102 498
f 498 896 602
f 498 102 760
f 760 82 498
f 471 886 822
f 822 165 471
f 835 886 471
f 471 165 275
f 471 200 835
f 471 275 715
f 715 200 471
f 862 400 660
f 636 862 660
f 711 862 636
f 233 711 636
f 74 839 636
f 636 839 233
f 629 864 795
f 795 490 629
f 795 248 490
f 795 651 915
f 915 248 795
f 400 37 701
f 676 907 429
f 429 211 676
f 744 210 429
f 611 458 479
f 230 907 458
f 743 625 332
f 332 822 743
f 822 543 743
f 623 134 131
f 131 481 623
f 131 134 848
f 848 481 131
f 528 909 360
f 360 704 528
f 304 704 360
f 58 757 650
f 518 704 304
f 757 58 518
f 518 58 704
f 891 505 518
f 505 757 518
f 891 518 218
f 218 518 304
f 304 360 218
f 218 360 455
f 489 616 416
f 819 722 908
f 819 240 457
f 908 363 819
f 819 363 240
f 212 421 486
f 861 255 212
f 212 909 861
f 107 339 2
f 2 467 107
f 107 467 339
f 849 571 110
f 152 467 302
f 302 555 152
f 302 467 2
f 847 555 302
f 302 843 847
f 657 843 302
f 302 2 359
f 359 657 302
f 366 831 111
f 111 412 366
f 57 195 366
f 516 195 57
f 366 438 57
f 299 552 375
f 299 895 431
f 431 371 299
f 299 371 638
f 299 782 496
f 630 782 299
f 511 415 182
f 182 635 220
f 15 635 182
f 182 415 15
f 205 686 219
f 205 885 686
f 126 213 343
f 343 213 43
f 43 322 250
f 250 343 43
f 250 322 387
f 387 885 250
f 671 502 345
f 345 330 671
f 671 330 502
f 351 103 126
f 432 103 351
f 351 126 219
f 713 821 432
f 713 60 27
f 432 351 713
f 713 351 60
f 875 897 373
f 387 322 373
f 373 322 875
f 752 686 387
f 387 373 752
f 752 373 897
f 752 690 794
f 794 686 752
f 752 333 690
f 752 897 333
f 35 604 405
f 604 413 405
f 791 724 775
f 678 76 791
f 791 775 194
f 194 678 791
f 605 89 857
f 857 89 780
f 780 662 857
f 604 151 128
f 128 151 562
f 860 3 866
f 3 142 866
f 913 46 313
f 313 46 624
f 313 310 913
f 436 338 664
f 594 118 650
f 594 49 118
f 650 757 594
f 757 49 594
f 194 461 59
f 457 90 856
f 856 819 457
f 278 819 856
f 562 151 680
f 875 562 680
f 249 797 35
f 249 24 797
f 249 414 420
f 420 24 249
f 770 656 231
f 231 656 707
f 231 721 770
f 707 721 231
f 192 656 652
f 656 374 652
f 811 374 141
f 141 705 811
f 102 259 679
f 259 160 679
f 760 102 614
f 614 88 760
f 540 88 614
f 614 741 540
f 614 160 741
f 570 740 741
f 741 160 570
f 391 740 570
f 570 160 418
f 583 721 707
f 693 721 583
f 707 456 583
f 583 456 693
f 36 707 402
f 36 273 707
f 186 456 868
f 195 122 186
f 908 722 503
f 565 831 366
f 366 195 565
f 809 511 865
f 511 173 865
f 710 439 47
f 439 203 47
f 852 710 47
f 47 207 852
f 47 203 207
f 453 574 221
f 453 346 574
f 221 580 453
f 453 69 346
f 71 621 477
f 477 20 71
f 480 728 724
f 396 465 883
f 396 238 685
f 685 465 396
f 396 883 83
f 83 314 396
f 166 238 396
f 396 314 166
f 668 11 441
f 790 622 802
f 802 167 790
f 790 167 81
f 81 821 790
f 663 820 692
f 692 87 663
f 663 87 820
f 23 726 820
f 820 87 23
f 252 726 23
f 23 87 252
f 684 382 812
f 684 451 918
f 918 382 684
f 818 482 888
f 888 382 820
f 820 818 888
f 303 288 889
f 889 288 220
f 854 708 331
f 331 708 25
f 307 854 331
f 731 140 79
f 731 198 140
f 144 239 140
f 140 198 144
f 297 675 65
f 696 568 305
f 305 98 696
f 568 216 305
f 216 98 305
f 761 315 42
f 42 801 761
f 29 493 761
f 573 324 355
f 355 324 734
f 369 668 441
f 646 324 369
f 441 11 256
f 646 512 463
f 463 251 646
f 512 251 463
f 104 512 748
f 748 251 104
f 104 251 512
f 666 364 393
f 393 227 666
f 170 8 254
f 8 169 254
f 381 180 687
f 692 180 381
f 814 816 418
f 814 829 816
f 814 259 602
f 418 259 814
f 602 61 814
f 61 829 814
f 523 661 556
f 556 357 523
f 523 357 661
f 38 357 640
f 38 769 714
f 714 676 38
f 676 211 38
f 38 211 378
f 378 357 38
f 563 661 378
f 563 437 661
f 378 371 563
f 638 211 217
f 211 429 217
f 217 429 210
f 217 299 638
f 630 299 217
f 188 630 217
f 901 516 496
f 901 44 516
f 601 681 628
f 628 494 601
f 601 705 681
f 540 705 519
f 519 912 540
f 74 912 519
f 519 233 74
f 519 705 141
f 519 374 233
f 141 374 519
f 176 817 290
f 176 561 817
f 817 561 440
f 527 382 683
f 382 870 683
f 683 870 817
f 442 564 887
f 887 564 695
f 887 440 442
f 817 440 887
f 808 524 86
f 86 774 808
f 86 721 693
f 693 774 86
f 629 490 117
f 490 285 117
f 660 912 600
f 600 636 660
f 600 912 74
f 74 636 600
f 915 651 747
f 747 174 915
f 537 795 864
f 651 795 537
f 233 534 199
f 199 701 37
f 199 534 770
f 770 701 199
f 199 711 233
f 199 862 711
f 199 37 400
f 400 862 199
f 744 429 77
f 77 429 907
f 264 370 915
f 524 830 550
f 174 747 550
f 368 230 830
f 907 230 368
f 368 77 907
f 744 77 368
f 874 360 909
f 917 455 874
f 455 360 874
f 615 58 650
f 704 58 615
f 615 650 528
f 528 704 615
f 712 416 616
f 767 416 712
f 489 416 317
f 317 416 767
f 758 317 767
f 832 317 758
f 905 278 917
f 905 247 278
f 917 874 905
f 905 874 909
f 905 909 212
f 212 247 905
f 603 486 421
f 722 819 593
f 593 603 722
f 486 603 593
f 593 819 278
f 278 247 593
f 593 247 212
f 212 486 593
f 699 861 909
f 528 445 699
f 699 909 528
f 699 445 745
f 745 476 699
f 699 476 353
f 353 861 699
f 504 175 649
f 649 560 504
f 452 353 504
f 504 560 452
f 489 317 513
f 157 758 265
f 831 565 401
f 567 849 296
f 571 849 567
f 590 30 771
f 92 758 767
f 767 712 92
f 386 106 224
f 106 766 224
f 224 766 616
f 224 354 386
f 224 616 489
f 489 354 224
f 514 766 106
f 878 485 798
f 798 555 847
f 798 485 555
f 366 412 500
f 500 438 366
f 823 111 831
f 639 57 438
f 375 552 639
f 639 500 375
f 438 500 639
f 496 516 16
f 516 57 16
f 16 639 552
f 57 639 16
f 496 16 784
f 784 16 552
f 885 205 464
f 464 250 885
f 343 250 464
f 464 205 219
f 219 126 464
f 126 343 464
f 716 851 283
f 283 750 716
f 716 750 851
f 94 576 189
f 189 576 624
f 189 559 94
f 624 559 189
f 94 703 262
f 262 576 94
f 262 703 72
f 155 72 670
f 155 262 72
f 283 851 425
f 566 351 219
f 219 222 566
f 222 309 566
f 566 207 27
f 566 309 207
f 622 790 148
f 148 790 821
f 220 622 148
f 148 182 220
f 511 182 148
f 898 791 538
f 674 414 114
f 114 10 674
f 898 538 306
f 413 338 274
f 859 5 860
f 780 604 253
f 604 128 253
f 125 322 475
f 475 780 125
f 407 3 300
f 191 142 3
f 191 100 142
f 3 407 191
f 191 407 100
f 65 142 880
f 142 100 880
f 624 576 34
f 34 313 624
f 544 338 836
f 544 664 338
f 751 863 153
f 797 24 245
f 194 59 245
f 245 153 863
f 59 153 245
f 245 572 797
f 863 572 245
f 245 420 194
f 245 24 420
f 871 461 118
f 871 59 461
f 118 49 871
f 871 49 505
f 779 266 161
f 204 680 151
f 35 797 204
f 204 151 35
f 875 680 282
f 282 897 875
f 333 897 282
f 417 333 282
f 282 680 906
f 282 145 417
f 906 145 282
f 597 249 35
f 414 249 597
f 35 405 597
f 751 232 146
f 146 863 751
f 146 572 863
f 362 811 705
f 102 679 609
f 609 614 102
f 609 679 160
f 160 614 609
f 595 391 95
f 803 402 510
f 803 36 402
f 620 188 492
f 492 774 620
f 44 901 620
f 873 44 620
f 620 901 496
f 620 195 873
f 620 122 195
f 496 630 620
f 620 630 188
f 456 186 618
f 693 456 618
f 269 363 908
f 908 503 269
f 243 904 411
f 411 788 32
f 32 243 411
f 55 565 195
f 868 273 55
f 273 36 55
f 236 69 621
f 621 71 236
f 236 71 20
f 236 15 809
f 236 20 15
f 621 69 319
f 69 453 319
f 477 621 319
f 319 580 477
f 319 453 580
f 350 320 627
f 627 480 724
f 898 113 815
f 724 791 815
f 815 791 898
f 815 627 724
f 765 482 451
f 451 684 765
f 812 382 548
f 382 888 548
f 81 167 179
f 179 159 81
f 179 482 584
f 167 482 179
f 263 669 81
f 81 159 263
f 25 669 263
f 263 331 25
f 581 331 263
f 170 254 328
f 581 263 328
f 328 263 159
f 328 169 610
f 328 254 169
f 673 198 19
f 198 731 19
f 19 79 673
f 19 731 79
f 434 198 673
f 673 297 434
f 7 144 198
f 198 434 7
f 7 434 297
f 729 761 801
f 29 761 729
f 535 315 272
f 101 535 91
f 91 734 101
f 91 355 734
f 91 268 355
f 96 761 493
f 493 268 96
f 315 761 96
f 96 268 315
f 573 355 900
f 355 268 900
f 900 493 166
f 900 268 493
f 201 324 573
f 573 369 201
f 201 369 324
f 314 668 323
f 668 369 323
f 323 369 573
f 166 314 323
f 323 900 166
f 573 900 323
f 83 430 882
f 430 121 882
f 168 121 11
f 168 882 121
f 83 882 168
f 168 314 83
f 884 17 610
f 430 17 884
f 884 121 430
f 11 121 884
f 884 138 11
f 427 256 11
f 427 169 800
f 512 227 75
f 227 393 75
f 748 512 75
f 21 748 75
f 75 829 21
f 364 829 75
f 75 393 364
f 687 606 810
f 595 95 810
f 810 772 595
f 810 606 772
f 692 381 344
f 344 381 816
f 344 816 364
f 344 364 666
f 666 756 344
f 344 756 692
f 737 640 769
f 769 38 737
f 737 38 640
f 389 210 492
f 389 217 210
f 492 188 389
f 188 217 389
f 494 705 84
f 84 601 494
f 705 601 84
f 721 86 177
f 770 721 177
f 215 177 86
f 215 701 770
f 770 177 215
f 629 117 291
f 291 864 629
f 163 864 291
f 660 163 291
f 291 910 660
f 592 285 886
f 592 117 285
f 592 886 196
f 196 82 592
f 592 82 760
f 45 864 400
f 400 701 45
f 651 537 235
f 830 230 398
f 398 611 479
f 458 611 398
f 398 230 458
f 174 550 124
f 915 174 124
f 124 264 915
f 830 398 124
f 124 398 264
f 578 550 747
f 578 294 524
f 524 550 578
f 454 830 524
f 454 368 830
f 454 524 808
f 808 744 454
f 744 368 454
f 858 649 175
f 175 476 858
f 858 476 193
f 80 335 553
f 255 861 112
f 112 861 353
f 183 317 832
f 183 513 317
f 832 758 654
f 758 157 654
f 654 80 832
f 654 157 80
f 526 401 565
f 571 567 648
f 648 771 571
f 110 766 334
f 334 514 110
f 766 514 334
f 631 849 110
f 110 514 631
f 296 849 143
f 143 106 152
f 143 514 106
f 143 555 296
f 152 555 143
f 296 555 379
f 536 260 450
f 536 500 412
f 412 260 536
f 720 485 878
f 133 596 397
f 397 846 133
f 397 379 555
f 596 379 397
f 397 720 846
f 895 299 403
f 403 299 375
f 895 403 316
f 841 823 689
f 552 299 341
f 341 784 552
f 341 299 496
f 496 784 341
f 262 155 892
f 892 155 670
f 670 708 892
f 892 708 283
f 60 351 845
f 351 566 845
f 27 60 845
f 845 566 27
f 821 713 719
f 719 148 821
f 420 414 158
f 414 674 158
f 158 306 76
f 158 674 10
f 678 420 158
f 158 76 678
f 491 338 286
f 491 274 338
f 413 274 321
f 114 414 321
f 414 405 321
f 321 405 413
f 466 113 898
f 898 306 466
f 466 158 10
f 306 158 466
f 53 128 562
f 322 125 53
f 875 322 53
f 53 562 875
f 780 253 789
f 789 125 780
f 234 859 860
f 350 859 234
f 234 320 350
f 894 18 65
f 18 894 850
f 129 63 850
f 63 728 850
f 850 673 359
f 359 642 850
f 850 297 673
f 675 297 850
f 850 642 787
f 787 129 850
f 851 750 337
f 337 229 851
f 283 119 337
f 337 750 283
f 337 119 292
f 100 407 732
f 310 313 525
f 313 34 525
f 300 310 525
f 525 851 300
f 525 34 851
f 237 425 851
f 851 34 237
f 237 34 425
f 257 871 505
f 257 161 751
f 505 161 257
f 751 153 257
f 257 153 59
f 59 871 257
f 754 856 90
f 266 779 754
f 754 90 613
f 613 171 754
f 171 266 754
f 856 754 147
f 147 455 917
f 917 278 147
f 278 856 147
f 797 572 150
f 150 204 797
f 184 405 414
f 414 597 184
f 184 597 405
f 326 362 644
f 813 362 326
f 326 172 813
f 172 781 813
f 813 667 422
f 221 667 813
f 813 781 221
f 422 130 647
f 647 813 422
f 362 813 647
f 647 130 192
f 811 362 647
f 418 816 78
f 816 95 78
f 78 570 418
f 435 620 774
f 122 620 435
f 435 774 693
f 693 618 435
f 435 186 122
f 435 618 186
f 426 677 788
f 293 677 426
f 868 55 469
f 469 55 195
f 469 186 868
f 195 186 469
f 510 67 468
f 468 55 36
f 468 803 510
f 36 803 468
f 69 236 508
f 824 346 508
f 346 69 508
f 710 824 508
f 508 439 710
f 159 179 40
f 40 328 159
f 40 179 584
f 584 241 40
f 241 170 40
f 170 328 40
f 154 328 610
f 581 328 154
f 154 17 307
f 610 17 154
f 307 331 154
f 154 331 581
f 100 732 589
f 589 732 229
f 287 7 297
f 287 297 65
f 65 880 287
f 292 506 446
f 506 330 446
f 330 239 446
f 239 144 446
f 801 365 33
f 33 729 801
f 365 759 33
f 33 759 29
f 29 729 33
f 315 268 826
f 826 272 315
f 268 91 826
f 535 272 826
f 826 91 535
f 11 668 755
f 755 168 11
f 755 668 314
f 314 168 755
f 301 884 610
f 138 884 301
f 610 169 301
f 169 427 301
f 11 138 879
f 879 427 11
f 138 301 879
f 879 301 427
f 441 256 325
f 256 427 325
f 325 369 441
f 646 369 325
f 325 361 646
f 800 361 325
f 325 427 800
f 687 810 408
f 408 810 423
f 408 381 687
f 423 381 408
f 423 810 834
f 834 810 95
f 834 95 816
f 816 381 834
f 834 381 423
f 497 215 86
f 524 294 497
f 497 86 524
f 793 592 760
f 760 88 793
f 793 88 910
f 910 291 793
f 694 45 701
f 701 215 694
f 694 497 294
f 215 497 694
f 13 694 294
f 45 694 13
f 13 537 864
f 864 45 13
f 276 398 479
f 264 398 276
f 479 137 276
f 276 137 370
f 370 264 276
f 462 550 830
f 830 124 462
f 462 124 550
f 577 553 698
f 698 553 617
f 617 553 335
f 659 193 489
f 80 553 206
f 832 80 206
f 553 659 206
f 206 183 832
f 513 183 206
f 489 513 206
f 206 659 489
f 553 577 899
f 899 577 560
f 353 452 14
f 80 157 764
f 764 335 80
f 764 157 265
f 764 617 335
f 68 617 764
f 329 68 522
f 515 68 329
f 329 823 515
f 689 823 329
f 450 260 308
f 308 260 689
f 67 526 26
f 26 526 565
f 565 55 26
f 26 468 67
f 55 468 26
f 532 267 92
f 532 766 110
f 110 571 532
f 571 267 532
f 616 766 532
f 532 712 616
f 532 92 712
f 773 764 265
f 265 758 773
f 771 108 773
f 571 771 773
f 773 267 571
f 902 143 849
f 41 567 296
f 41 648 567
f 806 536 296
f 596 536 806
f 296 379 806
f 806 379 596
f 590 771 738
f 450 590 738
f 738 536 450
f 771 648 738
f 648 41 738
f 296 536 738
f 738 41 296
f 500 536 246
f 133 846 246
f 846 500 246
f 246 596 133
f 246 536 596
f 846 720 284
f 284 316 846
f 284 720 878
f 135 895 284
f 895 316 284
f 284 347 135
f 575 347 284
f 284 878 575
f 485 720 531
f 720 397 531
f 555 485 531
f 531 397 555
f 753 500 846
f 846 316 753
f 375 500 753
f 753 403 375
f 753 316 403
f 823 841 312
f 412 111 312
f 111 823 312
f 689 260 164
f 164 841 689
f 164 312 841
f 164 260 412
f 412 312 164
f 576 262 109
f 262 892 109
f 109 34 576
f 425 34 109
f 283 425 109
f 109 892 283
f 511 148 242
f 148 719 242
f 242 719 713
f 242 713 27
f 27 173 242
f 242 173 511
f 281 286 860
f 99 466 10
f 99 10 114
f 5 859 99
f 114 321 99
f 99 321 5
f 730 859 350
f 730 99 859
f 466 99 730
f 730 815 113
f 113 466 730
f 350 627 730
f 627 815 730
f 860 866 178
f 178 234 860
f 178 866 142
f 320 234 178
f 444 50 132
f 132 627 444
f 444 627 320
f 50 444 327
f 919 728 132
f 132 50 919
f 410 894 65
f 410 850 894
f 65 675 410
f 675 850 410
f 529 407 300
f 300 851 529
f 903 779 161
f 903 218 455
f 455 147 903
f 903 754 779
f 903 147 754
f 903 161 891
f 891 218 903
f 572 146 197
f 197 150 572
f 232 906 197
f 197 146 232
f 204 150 197
f 906 680 197
f 680 204 197
f 558 362 705
f 558 644 362
f 558 705 326
f 326 644 558
f 192 652 399
f 399 647 192
f 399 652 374
f 672 577 698
f 560 577 672
f 804 632 120
f 783 236 809
f 783 508 236
f 809 865 783
f 439 508 783
f 783 173 439
f 783 865 173
f 7 287 404
f 100 589 404
f 404 880 100
f 404 287 880
f 702 446 144
f 7 404 702
f 117 592 833
f 592 793 833
f 833 291 117
f 833 793 291
f 127 235 537
f 537 13 127
f 127 578 747
f 294 578 127
f 127 13 294
f 127 747 651
f 651 235 127
f 336 659 553
f 553 899 336
f 193 659 336
f 560 649 691
f 691 899 560
f 649 899 691
f 591 108 522
f 522 68 591
f 68 764 591
f 591 773 108
f 764 773 591
f 450 308 876
f 876 590 450
f 876 30 590
f 876 771 30
f 876 108 771
f 844 411 904
f 788 411 844
f 844 426 788
f 844 733 426
f 733 342 509
f 293 426 509
f 426 733 509
f 758 92 208
f 208 773 758
f 92 267 208
f 267 773 208
f 56 902 514
f 514 143 56
f 143 902 56
f 1 491 286
f 286 281 1
f 394 178 142
f 394 142 65
f 645 320 549
f 320 178 549
f 178 394 549
f 549 18 645
f 65 18 549
f 549 394 65
f 50 327 48
f 48 919 50
f 728 919 48
f 48 850 728
f 289 732 407
f 407 529 289
f 289 529 732
f 229 732 64
f 732 529 64
f 851 229 64
f 64 529 851
f 837 484 823
f 831 401 837
f 837 823 831
f 401 526 837
f 484 837 392
f 392 837 526
f 853 472 515
f 515 823 853
f 823 484 853
f 93 120 672
f 672 120 499
f 499 452 560
f 560 672 499
f 185 14 452
f 185 112 353
f 353 14 185
f 722 603 682
f 682 503 722
f 682 421 255
f 682 603 421
f 599 243 533
f 599 904 243
f 533 363 599
f 363 530 599
f 73 599 530
f 904 599 73
f 144 7 799
f 799 702 144
f 7 702 799
f 521 404 589
f 521 702 404
f 446 702 521
f 521 589 229
f 292 446 521
f 521 337 292
f 229 337 521
f 698 617 115
f 617 277 115
f 115 672 698
f 115 93 672
f 115 277 372
f 372 93 115
f 226 617 68
f 226 277 617
f 226 68 515
f 515 472 226
f 226 472 372
f 372 277 226
f 539 858 193
f 193 336 539
f 649 858 54
f 858 539 54
f 54 899 649
f 54 336 899
f 54 539 336
f 9 329 522
f 522 876 9
f 9 876 308
f 689 329 9
f 9 308 689
f 522 108 727
f 727 876 522
f 108 876 727
f 491 1 367
f 274 491 367
f 367 1 281
f 860 5 367
f 367 281 860
f 5 321 367
f 367 321 274
f 507 48 327
f 507 327 645
f 645 18 507
f 18 850 507
f 850 48 507
f 551 509 342
f 342 392 551
f 293 509 551
f 551 67 293
f 551 526 67
f 551 392 526
f 484 392 388
f 388 392 342
f 388 342 804
f 804 546 388
f 372 472 419
f 419 546 804
f 804 120 139
f 120 93 139
f 139 419 804
f 139 93 372
f 372 419 139
f 632 697 608
f 608 697 66
f 608 120 632
f 112 185 162
f 828 697 503
f 503 682 828
f 66 697 828
f 828 682 66
f 598 632 804
f 598 697 632
f 904 73 298
f 298 844 904
f 298 342 733
f 733 844 298
f 484 388 149
f 149 388 546
f 149 853 484
f 546 419 149
f 472 853 149
f 149 419 472
f 785 499 120
f 120 608 785
f 452 499 785
f 785 185 452
f 785 608 66
f 66 395 785
f 66 682 869
f 869 682 255
f 869 162 185
f 255 112 869
f 112 162 869
f 697 598 655
f 655 530 363
f 363 269 655
f 655 269 503
f 503 697 655
f 73 598 376
f 376 298 73
f 376 598 804
f 804 342 376
f 342 298 376
f 185 785 488
f 488 785 395
f 488 869 185
f 488 395 66
f 66 869 488
f 487 598 73
f 487 655 598
f 487 73 530
f 530 655 487
f 743 653 625
f 543 653 743
f 857 662 270
f 857 338 605
f 270 338 857
f 220 303 889
f 135 347 563
f 563 371 135
f 347 437 563
f 440 290 295
f 295 442 440
f 440 176 290
f 561 176 440
f 887 695 527
f 887 683 817
f 527 683 887
f 847 557 798
f 798 557 825
f 825 878 798
f 306 538 791
f 306 791 76
f 436 664 544
f 544 836 436
f 728 480 627
f 132 728 627
f 482 765 548
f 548 684 812
f 548 888 482
f 548 765 684
f 128 53 789
f 789 253 128
f 789 53 125
f 78 95 391
f 391 570 78
f 902 631 514
f 849 631 902
f 327 444 320
f 327 320 645
f 811 647 399
f 374 811 399

