# https://github.com/mikedh/trimesh
v 0.00525307 -0.02742226 -0.13016255
v 0.02363365 -0.01254602 -0.10487875
v 0.00673813 -0.01294758 -0.14091735
v 0.02063795 -0.00638287 -0.11262014
v 0.00599078 -0.01213121 -0.14256790
v 0.00065616 -0.02421444 -0.14472018
v 0.00247711 -0.02631536 -0.13775780
v 0.00180053 -0.01755520 -0.14846363
v 0.00567819 -0.02193456 -0.13916753
v 0.01062605 -0.00021144 -0.13488243
v 0.02524009 -0.00406609 -0.10159957
v 0.00005233 -0.03360314 -0.11366684
v 0.01074544 -0.02382342 -0.12737835
v 0.02189237 -0.01859841 -0.10719862
v 0.02284323 -0.02331522 -0.10194526
v 0.02550788 -0.01185256 -0.10008730
v 0.01812240 -0.01228753 -0.11789971
v 0.01185859 -0.01209735 -0.13122916
v 0.01243980 -0.02929752 -0.11177282
v 0.00197045 -0.03186036 -0.12142172
v 0.02150916 -0.01264795 -0.10991940
v 0.01106577 -0.01494347 -0.13206329
v 0.00186866 -0.02056318 -0.14679139
v 0.02382993 -0.00044288 -0.10564011
v 0.01062557 -0.03255159 -0.10209694
v 0.01162962 -0.02291618 -0.12668655
v 0.00451065 -0.02366168 -0.13916416
v 0.01922832 -0.02381142 -0.10992949
v 0.01828045 -0.00113861 -0.11865894
v 0.00171266 -0.02797659 -0.13544795
v 0.00354886 -0.01562363 -0.14617131
v 0.01205476 -0.01131580 -0.13095124
v 0.00113561 -0.02601401 -0.14090535
v 0.00038473 -0.03067767 -0.12885445
v 0.00873789 -0.02887567 -0.12045554
v 0.00228732 -0.00721102 -0.14990809
v 0.00075786 -0.03289123 -0.11696780
v 0.00665947 -0.02249910 -0.13676368
v 0.02200736 -0.01015769 -0.10903977
v 0.02232631 -0.01277768 -0.10798086
v 0.00585966 -0.03236830 -0.11188147
v 0.01786752 -0.02195059 -0.11488456
v 0.02415210 -0.01803139 -0.10175906
v 0.00036561 -0.02819478 -0.13726743
v 0.00411159 -0.01655532 -0.14488637
v 0.00612329 -0.02329497 -0.13675886
v 0.01602054 -0.02600052 -0.11268004
v 0.00514392 -0.02040182 -0.14123132
v 0.00177795 -0.02312478 -0.14439495
v 0.02283768 -0.01794587 -0.10518770
v 0.00165314 -0.01406776 -0.14988729
v 0.02036149 -0.02691098 -0.10137366
v 0.00258407 -0.02197772 -0.14436770
v 0.00340858 -0.02321779 -0.14155683
v 0.00108030 -0.03488832 -0.10156162
v 0.00255252 -0.03466674 -0.10182169
v 0.01486992 -0.02175285 -0.12129503
v 0.00698194 -0.01661773 -0.13943141
v 0.02035766 -0.02458555 -0.10632205
v 0.01903438 -0.02822317 -0.10082605
v 0.00164840 -0.02989161 -0.12947837
v 0.01015421 -0.03265363 -0.10260707
v 0.02240880 -0.02420148 -0.10211630
v 0.01208785 -0.02685277 -0.11864537
v 0.01678211 -0.02919167 -0.10306141
v 0.00388243 -0.01017371 -0.14682863
v 0.00594545 -0.01282907 -0.14246410
v 0.01774404 -0.01251009 -0.11871098
v 0.00479884 -0.01758309 -0.14317477
v 0.01756458 -0.02364542 -0.11396130
v 0.02355022 -0.00077601 -0.10632401
v 0.00335007 -0.03177586 -0.11928802
v 0.02183416 -0.00004845 -0.11042273
v 0.02023803 -0.01983926 -0.11045107
v 0.01026770 -0.01190122 -0.13444447
v 0.02496729 -0.00396375 -0.10231868
v 0.01138873 -0.01316292 -0.13190395
v 0.01321266 -0.02949792 -0.10963596
v 0.01223478 -0.02701280 -0.11795585
v 0.01868488 -0.02818845 -0.10163929
v 0.00523096 -0.00104202 -0.14525360
v 0.00575318 -0.01674236 -0.14170624
v 0.00708113 -0.01376890 -0.14003823
v 0.01821032 -0.02502973 -0.11047805
v 0.00540119 -0.03215693 -0.11384587
v 0.00491607 -0.01383859 -0.14414338
v 0.00851990 -0.02302625 -0.13258705
v 0.00004858 -0.03078123 -0.12907481
v 0.00527988 -0.01710258 -0.14245730
v 0.01127589 -0.01115272 -0.13261069
v 0.02273209 -0.02420919 -0.10135194
v 0.00042187 -0.03182719 -0.12415483
v 0.00675018 -0.02917972 -0.12292643
v 0.02102061 -0.02251556 -0.10698150
v 0.00065593 -0.02063428 -0.14882808
v 0.00505302 -0.01047324 -0.14466556
v 0.02349107 -0.00021783 -0.10651671
v 0.02432398 -0.00013116 -0.10438814
v 0.00316097 -0.03363099 -0.10837823
v 0.00237510 -0.02338624 -0.14307725
v 0.01493443 -0.01742853 -0.12327445
v 0.02468950 -0.00003163 -0.10344832
v 0.00375691 -0.00017805 -0.14796600
v 0.01675160 -0.01855249 -0.11901629
v 0.01631909 -0.02466125 -0.11521783
v 0.01541300 -0.00805630 -0.12418974
v 0.02563072 -0.00821956 -0.10014996
v 0.01733105 -0.02503786 -0.11238308
v 0.01650916 -0.02596571 -0.11175387
v 0.01411061 -0.01171052 -0.12657461
v 0.00570791 -0.02014285 -0.14036548
v 0.00908854 -0.01157695 -0.13678552
v 0.01739832 -0.01161114 -0.11964511
v 0.00022279 -0.03333504 -0.11506640
v 0.00050423 -0.02382377 -0.14555370
v 0.01041007 -0.02354092 -0.12835594
v 0.01704010 -0.02764815 -0.10641538
v 0.01545493 -0.02494821 -0.11650122
v 0.01620940 -0.00934551 -0.12238005
v 0.01766903 -0.00005315 -0.12014665
v 0.02326632 -0.00890603 -0.10620657
v 0.00580497 -0.01956600 -0.14047154
v 0.00478585 -0.00790757 -0.14543322
v 0.00061935 -0.03422097 -0.10859801
v 0.00648071 -0.02007834 -0.13899223
v 0.01841877 -0.01774662 -0.11555331
v 0.01184826 -0.01717459 -0.12978009
v 0.00249638 -0.01160290 -0.14905563
v 0.00482413 -0.00568851 -0.14557851
v 0.01760744 -0.02429155 -0.11292883
v 0.00638825 -0.03029780 -0.11935020
v 0.01583087 -0.02950763 -0.10423176
v 0.00007051 -0.03446039 -0.10698606
v 0.00720578 -0.02148381 -0.13662593
v 0.00991037 -0.01729203 -0.13362048
v 0.01501344 -0.02542599 -0.11621058
v 0.02000017 -0.02743259 -0.10081079
v 0.00369478 -0.03173915 -0.11879876
v 0.00325184 -0.03211214 -0.11776001
v 0.01684488 -0.01889285 -0.11867132
v 0.02116552 -0.01929514 -0.10855089
v 0.01753677 -0.02094773 -0.11617610
v 0.01117774 -0.00106832 -0.13373440
v 0.02098647 -0.02589335 -0.10263785
v 0.01798502 -0.00288801 -0.11917278
v 0.01727982 -0.02203618 -0.11620326
v 0.01718779 -0.01413708 -0.11949123
v 0.01040168 -0.01758333 -0.13250847
v 0.02334514 -0.00820409 -0.10608343
v 0.00179903 -0.02151810 -0.14611265
v 0.01554067 -0.02530245 -0.11543189
v 0.00330293 -0.03200951 -0.11831746
v 0.00276853 -0.01679383 -0.14712942
v 0.00237310 -0.02834890 -0.13326755
v 0.00138968 -0.01703428 -0.14941606
v 0.00138067 -0.02559682 -0.14134145
v 0.00267822 -0.02473154 -0.14055563
v 0.00835904 -0.01908549 -0.13582278
v 0.01971878 -0.00446491 -0.11496220
v 0.02447748 -0.01898076 -0.10051632
v 0.01611403 -0.02622515 -0.11192051
v 0.00019093 -0.02635176 -0.14184270
v 0.01057324 -0.01113319 -0.13397025
v 0.01679264 -0.02708084 -0.10835759
v 0.01084089 -0.01370047 -0.13286209
v 0.00795567 -0.01181165 -0.13889355
v 0.00014223 -0.02440260 -0.14528373
v 0.00486224 -0.03192688 -0.11581430
v 0.01046760 -0.02904401 -0.11648959
v 0.02531402 -0.01247656 -0.10052489
v 0.00252243 -0.00977509 -0.14925151
v 0.00611031 -0.02295641 -0.13721501
v 0.00507878 -0.03436830 -0.10022985
v 0.02422387 -0.01794371 -0.10160181
v 0.01820410 -0.02357943 -0.11255589
v 0.00432204 -0.02834949 -0.12980300
v 0.01676564 -0.01758132 -0.11940957
v 0.01088823 -0.01662065 -0.13194802
v 0.00915003 -0.01689330 -0.13521890
v 0.02027838 -0.00552064 -0.11354740
v 0.01763604 -0.01170541 -0.11909853
v 0.01654014 -0.02258111 -0.11731171
v 0.00070331 -0.02638019 -0.14088247
v 0.00266913 -0.01533264 -0.14778305
v 0.02311109 -0.01423798 -0.10569154
v 0.00743525 -0.01968148 -0.13734537
v 0.00821468 -0.01907804 -0.13611263
v 0.01281360 -0.00016051 -0.13044433
v 0.00415804 -0.02043219 -0.14294403
v 0.00270168 -0.00142582 -0.14970906
v 0.02366968 -0.01880722 -0.10268520
v 0.00064423 -0.02983343 -0.13141723
v 0.02351370 -0.00341672 -0.10614866
v 0.01542162 -0.01220145 -0.12373468
v 0.00688877 -0.01633716 -0.13968785
v 0.01853818 -0.00131070 -0.11803855
v 0.01061568 -0.02251726 -0.12903348
v 0.00254008 -0.01082223 -0.14912030
v 0.00692087 -0.02382405 -0.13454264
v 0.01138252 -0.02621300 -0.12145282
v 0.00611059 -0.00203522 -0.14346122
v 0.01647755 -0.02155761 -0.11818405
v 0.00053105 -0.03377902 -0.11175745
v 0.01683279 -0.02942020 -0.10238054
v 0.02296846 -0.01417806 -0.10607188
v 0.00188461 -0.03361336 -0.11059964
v 0.02149093 -0.01185188 -0.11007562
v 0.02334141 -0.01246773 -0.10564542
v 0.00881445 -0.01172912 -0.13727224
v 0.02300147 -0.02471175 -0.10009627
v 0.00872815 -0.01451546 -0.13668576
v 0.00491272 -0.00041342 -0.14590994
v 0.00978720 -0.00932000 -0.13566283
v 0.00186582 -0.02507462 -0.14137577
v 0.02349800 -0.01800949 -0.10345844
v 0.00858973 -0.03351354 -0.10013758
v 0.01800198 -0.01769740 -0.11653385
v 0.01710873 -0.01955569 -0.11778500
v 0.00609879 -0.02087761 -0.13925476
v 0.02069876 -0.01237753 -0.11187372
v 0.00871490 -0.03294103 -0.10361491
v 0.00219325 -0.01471029 -0.14877673
v 0.01621952 -0.02424503 -0.11606820
v 0.00024921 -0.02693265 -0.14048277
v 0.02373044 -0.02141728 -0.10116639
v 0.00920985 -0.02383024 -0.13026222
v 0.00264889 -0.03015326 -0.12671420
v 0.00018503 -0.02453215 -0.14501190
v 0.00885459 -0.01644677 -0.13591223
v 0.00273775 -0.01989391 -0.14569799
v 0.02379873 -0.02057620 -0.10149584
v 0.01074818 -0.00962028 -0.13377536
v 0.00570836 -0.02886882 -0.12575828
v 0.01125279 -0.00748061 -0.13299576
v 0.00199823 -0.03426020 -0.10608113
v 0.02209587 -0.01816600 -0.10690683
v 0.01722754 -0.02509701 -0.11244910
v 0.01990825 -0.00008505 -0.11494041
v 0.02438922 -0.02021544 -0.10014645
v 0.00716329 -0.03312455 -0.10500879
v 0.00652427 -0.02843915 -0.12554270
v 0.00520384 -0.02258532 -0.13928990
v 0.01813435 -0.00117771 -0.11899640
v 0.01892938 -0.01210686 -0.11603574
v 0.01764618 -0.00546710 -0.11969101
v 0.00431463 -0.01470718 -0.14504673
v 0.00393238 -0.02219318 -0.14186902
v 0.00281136 -0.02329224 -0.14247374
v 0.01335556 -0.02466041 -0.12118751
v 0.00958335 -0.00811470 -0.13617120
v 0.01194401 -0.00081398 -0.13222784
v 0.00734912 -0.03262276 -0.10784661
v 0.00005493 -0.03245578 -0.12083136
v 0.00045026 -0.02477213 -0.14419904
v 0.00294475 -0.02181795 -0.14390701
v 0.01069360 -0.01221667 -0.13354424
v 0.00417523 -0.01229538 -0.14594307
v 0.01105009 -0.02434616 -0.12604952
v 0.01152291 -0.00590239 -0.13261095
v 0.00466551 -0.02861598 -0.12840180
v 0.00490611 -0.03354327 -0.10606515
v 0.02109233 -0.01918047 -0.10878021
v 0.00969803 -0.02807907 -0.12045211
v 0.01261489 -0.02504515 -0.12173686
v 0.02237978 -0.01878110 -0.10594670
v 0.02439091 -0.01308306 -0.10275483
v 0.00419196 -0.01164474 -0.14608311
v 0.00245632 -0.02394646 -0.14214057
v 0.00580602 -0.00021073 -0.14422005
v 0.00353499 -0.01034403 -0.14742155
v 0.00966766 -0.01511894 -0.13472485
v 0.00181479 -0.01935219 -0.14757754
v 0.02109400 -0.00738736 -0.11145266
v 0.00795675 -0.02250091 -0.13426180
v 0.00960952 -0.02820202 -0.12034297
v 0.00486775 -0.02272782 -0.13968637
v 0.01379086 -0.03138914 -0.10086846
v 0.01540317 -0.02466708 -0.11716167
v 0.00069737 -0.03162613 -0.12469085
v 0.02313230 -0.00952799 -0.10646122
v 0.01725909 -0.01219740 -0.11988363
v 0.02526761 -0.00360147 -0.10157612
v 0.00927607 -0.02883843 -0.11947144
v 0.00451750 -0.01068050 -0.14566439
v 0.01763685 -0.00638204 -0.11962563
v 0.01226151 -0.00091243 -0.13154636
v 0.02395333 -0.02079498 -0.10099093
v 0.00198541 -0.02124456 -0.14605014
v 0.01743332 -0.02232869 -0.11556241
v 0.02387041 -0.02267332 -0.10009393
v 0.02236948 -0.02308471 -0.10327509
v 0.01714121 -0.01726726 -0.11865873
v 0.00155216 -0.01790626 -0.14873134
v 0.01736190 -0.01393565 -0.11916355
v 0.00002200 -0.02195833 -0.14867553
v 0.01589750 -0.02214687 -0.11893829
v 0.01949144 -0.01238488 -0.11468858
v 0.02024835 -0.01847679 -0.11103866
v 0.01681281 -0.03001088 -0.10088396
v 0.02268158 -0.01922893 -0.10496147
v 0.01948785 -0.02519655 -0.10740064
v 0.00763486 -0.00021086 -0.14067713
v 0.01135136 -0.00285721 -0.13323256
v 0.00804517 -0.02086318 -0.13550420
v 0.01302182 -0.02419627 -0.12256987
v 0.00389888 -0.01506965 -0.14570405
v 0.00013804 -0.03368487 -0.11301452
v 0.00884701 -0.01545771 -0.13620272
v 0.01502991 -0.02371177 -0.11921748
v 0.02517470 -0.01375940 -0.10050411
v 0.00605132 -0.01135293 -0.14265634
v 0.00065586 -0.03406254 -0.10964328
f 190 36 295
f 173 216 107
f 282 102 55
f 282 173 107
f 55 173 282
f 103 190 55
f 55 102 103
f 133 190 295
f 55 190 133
f 53 247 295
f 120 103 102
f 36 198 51
f 295 36 51
f 51 155 295
f 90 18 256
f 56 173 55
f 160 310 239
f 216 299 210
f 128 51 198
f 36 284 66
f 219 125 304
f 45 153 31
f 88 92 253
f 49 115 295
f 295 247 49
f 247 248 49
f 115 49 100
f 100 49 248
f 293 272 95
f 295 155 95
f 155 293 95
f 205 208 185
f 182 197 304
f 239 290 287
f 290 231 287
f 310 170 16
f 239 310 16
f 16 290 239
f 107 216 16
f 216 210 16
f 16 210 290
f 266 170 310
f 290 210 91
f 91 210 63
f 63 146 91
f 146 94 91
f 277 299 216
f 277 62 299
f 103 120 188
f 8 293 155
f 155 153 8
f 171 198 36
f 36 66 171
f 270 284 198
f 270 66 284
f 111 122 125
f 111 219 48
f 125 219 111
f 257 246 306
f 306 246 45
f 45 31 306
f 155 51 184
f 184 153 155
f 184 31 153
f 284 311 267
f 267 246 257
f 198 284 267
f 267 128 198
f 178 165 22
f 22 101 178
f 77 256 18
f 77 165 256
f 77 22 165
f 77 18 177
f 177 101 77
f 101 22 77
f 133 307 124
f 192 61 88
f 105 108 278
f 278 305 309
f 223 278 309
f 105 278 223
f 116 13 87
f 305 13 116
f 304 125 186
f 230 95 272
f 48 219 189
f 189 230 48
f 242 248 247
f 292 217 177
f 26 182 309
f 197 182 26
f 158 187 148
f 148 202 158
f 158 202 304
f 158 186 187
f 304 186 158
f 57 182 304
f 304 202 57
f 146 182 296
f 296 202 146
f 182 57 296
f 296 57 202
f 265 191 231
f 107 76 11
f 11 282 107
f 170 266 2
f 185 208 2
f 2 266 185
f 144 210 52
f 210 137 52
f 60 210 299
f 60 137 210
f 299 204 60
f 290 91 15
f 15 91 94
f 216 62 25
f 25 277 216
f 62 277 25
f 299 62 85
f 62 252 85
f 103 188 269
f 90 303 259
f 103 269 212
f 212 269 81
f 90 112 163
f 110 281 18
f 18 281 194
f 222 184 51
f 31 184 222
f 5 267 311
f 271 165 178
f 56 124 235
f 173 56 235
f 132 204 299
f 299 19 132
f 169 19 299
f 61 93 34
f 88 61 34
f 268 6 115
f 144 108 301
f 301 210 144
f 9 242 247
f 247 53 9
f 53 255 9
f 69 122 45
f 125 122 69
f 178 148 135
f 148 187 135
f 95 230 23
f 230 189 23
f 150 53 295
f 295 95 150
f 276 54 248
f 248 242 276
f 309 182 70
f 70 223 309
f 70 182 146
f 146 289 70
f 127 202 148
f 127 148 178
f 178 101 127
f 290 94 42
f 42 94 146
f 225 231 290
f 14 265 141
f 236 265 14
f 191 265 50
f 50 215 191
f 50 265 236
f 236 205 50
f 50 205 185
f 185 266 43
f 43 50 185
f 215 50 43
f 160 191 43
f 191 215 43
f 76 193 24
f 24 11 76
f 291 94 290
f 290 15 291
f 291 15 94
f 299 138 131
f 168 138 299
f 299 85 168
f 168 85 138
f 279 20 92
f 279 92 88
f 152 20 85
f 302 188 10
f 302 269 188
f 251 259 303
f 303 143 251
f 251 143 10
f 10 188 251
f 96 311 284
f 284 123 96
f 284 212 129
f 129 123 284
f 129 212 81
f 32 18 90
f 32 110 18
f 208 205 40
f 40 220 208
f 311 112 209
f 216 261 221
f 221 62 216
f 221 252 62
f 312 235 124
f 307 203 312
f 312 124 307
f 226 199 46
f 226 13 305
f 93 233 35
f 283 169 35
f 299 131 35
f 46 199 27
f 54 276 27
f 248 54 27
f 27 276 242
f 27 100 248
f 115 100 27
f 27 268 115
f 84 108 105
f 84 301 108
f 304 197 134
f 134 9 219
f 134 219 304
f 46 27 172
f 172 27 242
f 95 9 288
f 288 9 255
f 288 150 95
f 45 82 89
f 89 69 45
f 178 135 179
f 179 271 178
f 175 70 289
f 175 146 63
f 175 289 146
f 223 70 130
f 130 70 301
f 210 301 59
f 301 70 59
f 142 42 146
f 146 202 142
f 202 218 142
f 300 265 231
f 231 225 300
f 177 217 140
f 217 218 140
f 140 218 202
f 202 127 140
f 298 218 217
f 217 126 298
f 298 126 236
f 236 14 298
f 174 266 310
f 174 43 266
f 310 160 174
f 160 43 174
f 208 280 121
f 208 220 207
f 207 280 208
f 98 97 102
f 98 24 97
f 80 60 204
f 20 279 72
f 138 85 72
f 85 20 72
f 81 269 201
f 286 251 188
f 73 120 102
f 73 238 120
f 102 97 73
f 29 238 196
f 281 181 17
f 17 68 281
f 17 205 236
f 236 68 17
f 281 68 294
f 294 292 177
f 217 292 294
f 294 126 217
f 236 126 294
f 294 68 236
f 5 67 86
f 246 267 86
f 267 5 86
f 166 5 311
f 311 209 166
f 75 209 112
f 90 256 75
f 75 112 90
f 211 271 308
f 308 3 211
f 83 3 308
f 5 3 83
f 83 67 5
f 261 99 206
f 206 99 203
f 206 203 307
f 44 224 30
f 88 224 44
f 44 192 88
f 162 88 295
f 162 224 88
f 176 35 154
f 154 44 176
f 176 44 30
f 275 64 283
f 283 35 275
f 260 35 233
f 154 35 260
f 78 169 299
f 299 35 78
f 78 35 169
f 227 34 93
f 93 35 227
f 118 278 108
f 118 151 136
f 136 79 118
f 118 79 283
f 283 64 118
f 305 278 249
f 278 118 249
f 157 199 156
f 157 27 199
f 9 134 274
f 274 134 197
f 274 116 87
f 197 26 274
f 308 271 229
f 271 179 229
f 28 175 63
f 70 175 28
f 63 210 28
f 42 142 74
f 74 142 262
f 262 14 74
f 74 14 141
f 104 101 177
f 177 140 104
f 104 127 101
f 104 140 127
f 208 121 149
f 97 24 71
f 71 24 193
f 193 149 71
f 71 149 121
f 117 80 204
f 41 139 152
f 41 85 252
f 41 152 85
f 152 139 37
f 81 201 213
f 90 163 213
f 234 303 90
f 90 232 234
f 251 286 106
f 280 207 39
f 113 181 281
f 113 285 181
f 181 285 145
f 220 17 244
f 244 17 181
f 297 17 220
f 205 17 297
f 147 294 177
f 281 294 147
f 147 194 281
f 177 18 147
f 18 194 147
f 240 221 261
f 261 206 240
f 115 6 167
f 295 115 167
f 167 162 295
f 151 118 47
f 156 199 258
f 258 249 156
f 305 249 258
f 258 226 305
f 199 226 258
f 38 274 87
f 9 274 38
f 242 9 38
f 38 172 242
f 45 246 58
f 58 229 179
f 58 82 45
f 65 117 204
f 161 117 65
f 161 47 109
f 109 47 118
f 114 37 139
f 253 37 114
f 250 232 90
f 90 213 250
f 250 213 201
f 29 196 159
f 280 39 273
f 281 106 119
f 119 113 281
f 119 106 286
f 120 145 245
f 245 145 285
f 243 145 120
f 120 238 243
f 243 238 29
f 21 40 205
f 205 297 21
f 220 40 21
f 21 297 220
f 156 162 254
f 241 275 35
f 35 176 241
f 33 162 156
f 33 249 264
f 156 249 33
f 263 1 200
f 263 241 1
f 275 241 263
f 195 58 246
f 229 58 195
f 164 117 161
f 161 109 164
f 237 118 108
f 237 109 118
f 253 114 12
f 12 307 133
f 12 133 295
f 295 88 12
f 88 253 12
f 39 159 4
f 4 273 39
f 162 167 228
f 228 254 162
f 214 157 156
f 156 254 214
f 224 162 183
f 162 33 183
f 7 264 200
f 7 33 264
f 200 1 7
f 180 159 196
f 180 4 159
f 239 287 191
f 191 160 239
f 191 287 231
f 270 171 66
f 198 171 270
f 124 56 55
f 55 133 124
f 45 122 230
f 230 153 45
f 230 111 48
f 293 8 230
f 230 272 293
f 230 8 153
f 122 111 230
f 190 103 212
f 36 190 212
f 212 284 36
f 51 128 222
f 128 267 222
f 222 306 31
f 257 306 222
f 222 267 257
f 23 189 219
f 219 9 23
f 23 9 95
f 312 261 216
f 216 173 312
f 173 235 312
f 203 99 312
f 312 99 261
f 53 150 288
f 288 255 53
f 130 84 105
f 105 223 130
f 301 84 130
f 262 142 298
f 298 14 262
f 298 142 218
f 282 11 98
f 102 282 98
f 11 24 98
f 165 271 211
f 256 165 211
f 5 166 211
f 211 3 5
f 211 75 256
f 211 166 209
f 209 75 211
f 61 192 260
f 192 44 260
f 260 93 61
f 260 44 154
f 260 233 93
f 227 131 138
f 138 72 227
f 227 279 88
f 88 34 227
f 227 35 131
f 227 72 279
f 274 26 309
f 309 305 274
f 305 116 274
f 210 59 28
f 28 59 70
f 290 42 74
f 265 300 74
f 141 265 74
f 74 225 290
f 74 300 225
f 149 2 208
f 149 76 107
f 149 193 76
f 107 16 149
f 149 16 170
f 170 2 149
f 92 20 37
f 37 253 92
f 20 152 37
f 213 163 112
f 213 129 81
f 213 112 311
f 311 96 213
f 213 96 123
f 123 129 213
f 90 259 106
f 106 32 90
f 281 110 106
f 259 251 106
f 110 32 106
f 87 13 38
f 38 226 46
f 13 226 38
f 46 172 38
f 187 186 58
f 58 186 125
f 125 69 58
f 58 135 187
f 58 89 82
f 69 89 58
f 58 179 135
f 65 169 283
f 204 132 65
f 283 79 65
f 65 79 136
f 65 132 19
f 19 169 65
f 136 151 65
f 151 47 65
f 65 47 161
f 250 302 10
f 10 143 250
f 269 302 250
f 250 201 269
f 250 143 303
f 303 234 250
f 250 234 232
f 245 286 188
f 245 188 120
f 285 113 245
f 245 119 286
f 113 119 245
f 220 244 243
f 243 207 220
f 29 159 243
f 243 39 207
f 181 145 243
f 243 244 181
f 243 159 39
f 200 264 263
f 263 118 64
f 263 249 118
f 264 249 263
f 64 275 263
f 246 86 195
f 308 229 195
f 195 83 308
f 195 86 67
f 67 83 195
f 144 52 237
f 237 108 144
f 237 52 137
f 137 60 237
f 80 117 237
f 60 80 237
f 117 164 237
f 237 164 109
f 252 221 12
f 221 240 12
f 12 206 307
f 12 41 252
f 139 41 12
f 12 240 206
f 12 114 139
f 6 268 214
f 268 27 214
f 27 157 214
f 214 167 6
f 214 228 167
f 254 228 214
f 7 176 30
f 30 224 7
f 7 241 176
f 1 241 7
f 224 183 7
f 7 183 33
f 180 73 97
f 97 71 180
f 180 121 280
f 238 73 180
f 180 196 238
f 180 71 121
f 280 273 180
f 273 4 180

