# https://github.com/mikedh/trimesh
v 0.04090689 -0.01785869 -0.05969874
v 0.04434895 -0.00634628 -0.06477070
v 0.04632352 -0.02505933 -0.09190006
v 0.04200310 -0.00050927 -0.09999724
v 0.04510716 -0.02955385 -0.09195283
v 0.00261464 -0.04134281 -0.09676488
v 0.03661509 -0.03715031 -0.09708074
v 0.04424937 -0.00156948 -0.06460620
v 0.00370875 -0.04141094 -0.09643746
v 0.03803695 -0.03680385 -0.09571756
v 0.04816035 -0.00135934 -0.07701018
v 0.04442924 -0.00622876 -0.09620673
v 0.04068649 -0.02255456 -0.05940723
v 0.04071933 -0.02586394 -0.05947539
v 0.00618188 -0.02874824 -0.05008387
v 0.00009186 -0.02621245 -0.09896902
v 0.04825935 -0.02287663 -0.07853204
v 0.04427950 -0.03477051 -0.08560269
v 0.00325401 -0.04141246 -0.06110636
v 0.03946489 -0.03509088 -0.06454018
v 0.04204011 -0.03724869 -0.08393958
v 0.04821870 -0.02578697 -0.08034187
v 0.04195988 -0.03625695 -0.07239475
v 0.04439200 -0.00254027 -0.06485385
v 0.04596567 -0.02971255 -0.08915555
v 0.04065993 -0.03734378 -0.07192793
v 0.02127032 -0.04136881 -0.08765703
v 0.04812335 -0.01158819 -0.07675838
v 0.00026422 -0.04139612 -0.09682313
v 0.04408651 -0.00049506 -0.09686243
v 0.04298172 -0.03592886 -0.07510040
v 0.04721208 -0.00037204 -0.07202712
v 0.04398846 -0.00109690 -0.09705001
v 0.02020582 -0.04141249 -0.05222845
v 0.02895042 -0.00147198 -0.05000273
v 0.03923397 -0.00972186 -0.09999853
v 0.04154754 -0.03770905 -0.07789282
v 0.04622695 -0.00000306 -0.08243453
v 0.04775653 -0.00015893 -0.07462450
v 0.04665426 -0.01252070 -0.09115528
v 0.03763766 -0.03768118 -0.09466856
v 0.04222465 -0.03507300 -0.06960794
v 0.03181320 -0.00007704 -0.05187025
v 0.03912200 -0.03770691 -0.09182646
v 0.04252836 -0.03464224 -0.09179902
v 0.04415684 -0.02274420 -0.06447180
v 0.04662329 -0.02601701 -0.07021216
v 0.03626717 -0.02536380 -0.05510751
v 0.03646896 -0.03746189 -0.06444182
v 0.00066195 -0.04141244 -0.05996160
v 0.00027199 -0.04141244 -0.06783546
v 0.04193006 -0.02160981 -0.09996849
v 0.04463636 -0.00424605 -0.09577496
v 0.03509067 -0.03771253 -0.09767128
v 0.04587567 -0.02610793 -0.06841959
v 0.04465004 -0.03471929 -0.08333854
v 0.04702592 -0.02174521 -0.07125628
v 0.04161748 -0.03660533 -0.08878445
v 0.04526548 -0.00005944 -0.06671396
v 0.02424132 -0.04141251 -0.07856875
v 0.04791907 -0.00573681 -0.08585133
v 0.00447694 -0.04139745 -0.09644702
v 0.04155023 -0.03694971 -0.07336136
v 0.03943172 -0.02966065 -0.05990305
v 0.00137549 -0.03867713 -0.05575434
v 0.04143605 -0.03736286 -0.08664400
v 0.03599583 -0.02433311 -0.05484237
v 0.04298318 -0.03650809 -0.08029964
v 0.04626283 -0.01440762 -0.09212511
v 0.04790060 -0.00690776 -0.08595386
v 0.04333879 -0.03519971 -0.07330462
v 0.02144316 -0.04141250 -0.08711518
v 0.04826223 -0.00501384 -0.07780912
v 0.00215828 -0.04141245 -0.05915810
v 0.00341428 -0.02621739 -0.05009244
v 0.04153681 -0.03689547 -0.08808454
v 0.00907279 -0.04137443 -0.09614491
v 0.04374290 -0.03488532 -0.07369887
v 0.04133393 -0.03518835 -0.09328838
v 0.00007575 -0.02936325 -0.05285449
v 0.04652143 -0.02971255 -0.08690451
v 0.04382851 -0.01507749 -0.09735596
v 0.00000081 -0.02453984 -0.05163403
v 0.00010231 -0.04141244 -0.07113333
v 0.04084150 -0.03593259 -0.06860566
v 0.03024259 -0.02303375 -0.05098378
v 0.03359469 -0.03621243 -0.09966843
v 0.00197332 -0.03839611 -0.05513487
v 0.04182468 -0.02924038 -0.06289123
v 0.03914143 -0.03518120 -0.09699538
v 0.02834149 -0.02410274 -0.05010096
v 0.04671726 -0.00044070 -0.07032401
v 0.04603445 -0.02971254 -0.07226939
v 0.04366659 -0.00016494 -0.06364366
v 0.03835657 -0.03571936 -0.06404500
v 0.04369229 -0.03554196 -0.07677657
v 0.00346101 -0.04141246 -0.06168804
v 0.03851949 -0.03766196 -0.09330479
v 0.03340887 -0.02952268 -0.05460291
v 0.04001767 -0.03474042 -0.09645274
v 0.04313453 -0.03629458 -0.08255958
v 0.04445928 -0.02505611 -0.06501212
v 0.00010015 -0.04141244 -0.07126306
v 0.03825068 -0.00000353 -0.05688366
v 0.04227594 -0.03519137 -0.07003281
v 0.04720197 -0.02937969 -0.08170743
v 0.02908604 -0.00055485 -0.05009120
v 0.04363774 -0.03462579 -0.07256870
v 0.00375454 -0.04141246 -0.06100000
v 0.04226461 -0.03718614 -0.08198347
v 0.03318625 -0.02084182 -0.05276693
v 0.04580073 -0.00090079 -0.09325396
v 0.03641298 -0.03716710 -0.09730064
v 0.04027523 -0.02223168 -0.05893356
v 0.04826399 -0.02236010 -0.07786573
v 0.04814308 -0.01221322 -0.07688229
v 0.04602593 -0.00181345 -0.09274228
v 0.04504767 -0.00345760 -0.06623894
v 0.00001390 -0.00095209 -0.05264329
v 0.03977313 -0.00864544 -0.05838541
v 0.04654751 -0.00320098 -0.09143158
v 0.03918362 -0.03517751 -0.09694254
v 0.03913678 -0.03757075 -0.09234864
v 0.03921357 -0.02548055 -0.05793203
v 0.01173680 -0.00328143 -0.05001653
v 0.04002431 -0.03473474 -0.06475222
v 0.01284740 -0.02971248 -0.05005894
v 0.02953221 -0.02351098 -0.05063023
v 0.03652859 -0.01137152 -0.05528914
v 0.00083276 -0.00004005 -0.05514734
v 0.04327380 -0.03491995 -0.08907604
v 0.04419274 -0.02963331 -0.09403124
v 0.04014634 -0.03769960 -0.08951130
v 0.04568901 -0.02621250 -0.09326103
v 0.04288703 -0.02611360 -0.09864010
v 0.04700546 -0.00007811 -0.08991743
v 0.03796007 -0.00029098 -0.09915225
v 0.04826733 -0.02160152 -0.07832823
v 0.04277575 -0.03545995 -0.07235867
v 0.04341072 -0.02602514 -0.09792865
v 0.03826417 -0.03742797 -0.06700619
v 0.04173711 -0.03687163 -0.08746242
v 0.00944419 -0.02621267 -0.05000167
v 0.04380068 -0.01773411 -0.09740065
v 0.00794920 -0.04137737 -0.09623810
v 0.04307250 -0.03490796 -0.07150566
v 0.04621151 -0.02560400 -0.09214066
v 0.04822570 -0.00133710 -0.08344745
v 0.04030353 -0.02971253 -0.09992381
v 0.03828463 -0.03756613 -0.09390788
v 0.04658522 -0.00537198 -0.06994983
v 0.04162211 -0.00074279 -0.06064474
v 0.04213463 -0.03713295 -0.08411672
v 0.04397538 -0.02614036 -0.06422842
v 0.04818999 -0.01690201 -0.08394754
v 0.04218713 -0.02941284 -0.09773799
v 0.04699705 -0.01521195 -0.07113663
v 0.01482539 -0.04114559 -0.05165520
v 0.03859339 -0.03765366 -0.06801305
v 0.00000270 -0.04141244 -0.08477720
v 0.03002212 -0.02543496 -0.05095813
v 0.04047799 -0.00025890 -0.05914234
v 0.04500622 -0.00178640 -0.06615138
v 0.00057530 -0.02620877 -0.05032538
v 0.03329143 -0.00260172 -0.05285272
v 0.04116753 -0.03700925 -0.07236754
v 0.00058746 -0.02621245 -0.09997747
v 0.04018272 -0.03658124 -0.09247942
v 0.04003294 -0.00073882 -0.05866426
v 0.04741463 -0.00377844 -0.07290727
v 0.04490854 -0.00161132 -0.09520169
v 0.04190188 -0.03662312 -0.07339958
v 0.00000073 -0.02352857 -0.05135381
v 0.00088910 -0.04141244 -0.09667230
v 0.04232050 -0.02971254 -0.06410756
v 0.04072825 -0.02971254 -0.09953375
v 0.04639372 -0.00047218 -0.09181805
v 0.00463152 -0.02621613 -0.05004309
v 0.03668129 -0.00829398 -0.05542034
v 0.04212131 -0.03732016 -0.07897481
v 0.04478248 -0.02971255 -0.09256853
v 0.00738190 -0.02621313 -0.05001388
v 0.04757400 -0.00035675 -0.07367470
v 0.04814925 -0.00050384 -0.08451903
v 0.02967695 -0.01128557 -0.05048215
v 0.03815363 -0.03771254 -0.09366301
v 0.04278345 -0.03653931 -0.08367432
v 0.04380521 -0.01251334 -0.09739380
v 0.03170153 -0.03771252 -0.09955462
v 0.04499610 -0.02961884 -0.06904800
v 0.04381167 -0.00010452 -0.06388328
v 0.02825510 -0.02607321 -0.05016831
v 0.04285208 -0.00095609 -0.09883618
v 0.04002765 -0.03716461 -0.06980168
v 0.04029943 -0.02444168 -0.05896764
v 0.03612877 -0.03761708 -0.06428536
v 0.04566001 -0.02612278 -0.06790238
v 0.04362062 -0.00227471 -0.06356774
v 0.04610017 -0.00030882 -0.06871856
v 0.04680356 -0.02588003 -0.09049362
v 0.03060487 -0.02576708 -0.05128087
v 0.03712632 -0.00346560 -0.05582309
v 0.04042630 -0.03489558 -0.06567460
v 0.03518833 -0.02445176 -0.05418417
v 0.03851259 -0.03735206 -0.09394826
v 0.04661604 -0.00748691 -0.07003719
v 0.04830560 -0.00681052 -0.07921277
v 0.00356503 -0.04141246 -0.06209229
v 0.04684530 -0.02958785 -0.08519478
v 0.03939382 -0.00075645 -0.09978487
v 0.02270424 -0.04094157 -0.05247749
v 0.03313002 -0.00487312 -0.05272925
v 0.04821068 -0.02183945 -0.07740983
v 0.01002813 -0.00032380 -0.05020433
v 0.03985009 -0.01033244 -0.05846786
v 0.04384637 -0.02073101 -0.09732175
v 0.04824429 -0.02509167 -0.07895859
v 0.04012822 -0.02527109 -0.05880763
v 0.04053380 -0.01220967 -0.05920522
v 0.03754366 -0.02621248 -0.05633594
v 0.01094290 -0.04141248 -0.09140444
v 0.04828470 -0.00031512 -0.08185940
v 0.03651988 -0.00182789 -0.05534161
v 0.04512050 -0.00312059 -0.06639459
v 0.04813486 -0.01749150 -0.08462009
v 0.04683809 -0.01844396 -0.07066656
v 0.04636803 -0.00096087 -0.06936718
v 0.03903992 -0.00134444 -0.05764671
v 0.04158079 -0.03693886 -0.08777780
v 0.02353870 -0.04141250 -0.07826150
v 0.03831990 -0.03665552 -0.06565033
v 0.00474535 -0.04141246 -0.05848292
v 0.02374107 -0.04141250 -0.08395871
v 0.04170773 -0.03764262 -0.08332263
v 0.03432169 -0.00025607 -0.05367385
v 0.01921041 -0.04086991 -0.05186089
v 0.04163626 -0.03771238 -0.07950507
v 0.04551804 -0.02600416 -0.09365587
v 0.04830497 -0.00488315 -0.07915722
v 0.04454157 -0.02184021 -0.06517966
v 0.03859613 -0.03511769 -0.09784869
v 0.04067135 -0.03495558 -0.09500467
v 0.04088711 -0.03761029 -0.07344955
v 0.03723224 -0.03599725 -0.09815928
v 0.02160219 -0.04138473 -0.08728933
v 0.03561610 -0.03764514 -0.09747881
v 0.04420738 -0.03528696 -0.08038119
v 0.04125243 -0.03476136 -0.06686785
v 0.02345264 -0.04141250 -0.08449063
v 0.04699055 -0.02278741 -0.07110980
v 0.03737224 -0.00261229 -0.05605458
v 0.04250849 -0.03590933 -0.08827894
v 0.04666302 -0.00550739 -0.09112445
v 0.04657707 -0.00925008 -0.09135728
v 0.04826095 -0.01123903 -0.07776905
v 0.04385434 -0.01280014 -0.09730655
v 0.04664827 -0.02259530 -0.09117629
v 0.01093928 -0.04005164 -0.05201152
v 0.04822718 -0.00913285 -0.08341106
v 0.04369895 -0.02328662 -0.09755340
v 0.04210168 -0.00018106 -0.06133058
v 0.03895009 -0.03770872 -0.09215539
v 0.04423797 -0.02463084 -0.09647107
v 0.03140904 -0.02496498 -0.05169288
v 0.02890246 -0.01794980 -0.05014335
v 0.04126165 -0.03491811 -0.06721352
v 0.04212765 -0.03697809 -0.07612906
v 0.00031813 -0.03796748 -0.05609921
v 0.00812069 -0.04133957 -0.09628882
v 0.03985945 -0.03730321 -0.09143868
v 0.03949643 -0.00170813 -0.05808793
v 0.04824815 -0.02283492 -0.07766188
v 0.01617514 -0.04141249 -0.05169389
v 0.04431978 -0.01949993 -0.06472256
v 0.03945250 -0.03572850 -0.06569902
v 0.04159945 -0.03771254 -0.08164427
v 0.04704448 -0.00528028 -0.07133298
v 0.01887650 -0.03771249 -0.09991191
v 0.03914361 -0.00010612 -0.09751238
v 0.01123696 -0.00005145 -0.05007147
v 0.00000049 -0.01042718 -0.05159827
v 0.04442981 -0.00689835 -0.09620436
v 0.00005716 -0.02621262 -0.09889276
v 0.04459756 -0.00065450 -0.09588473
v 0.04254412 -0.03668733 -0.08438900
v 0.03650128 -0.03700966 -0.09744332
v 0.03762745 -0.03554203 -0.09839615
v 0.04822861 -0.00755931 -0.08340642
v 0.04045447 -0.03765506 -0.08894998
v 0.04039977 -0.02261396 -0.05905837
v 0.04117077 -0.01259538 -0.06005047
v 0.04680484 -0.02126568 -0.07060356
v 0.00082192 -0.04141244 -0.05968795
v 0.04310623 -0.02615637 -0.06296025
v 0.04713252 -0.02620494 -0.07186054
v 0.00702477 -0.03775279 -0.09982768
v 0.04379687 -0.01983305 -0.09740640
v 0.00163600 -0.03902602 -0.05600006
v 0.01423332 -0.04141248 -0.05172817
v 0.00000061 -0.00239723 -0.05134919
v 0.02900496 -0.00407939 -0.05004063
v 0.03688527 -0.03629749 -0.09810739
v 0.04751208 -0.00031638 -0.08777816
v 0.04608943 -0.00467531 -0.09258269
v 0.00248263 -0.04141246 -0.05961204
v 0.04827175 -0.02089757 -0.07811046
v 0.04350344 -0.01616828 -0.09785044
v 0.04403874 -0.03533517 -0.07793436
v 0.01667539 -0.04141249 -0.05174613
v 0.03375619 -0.03737216 -0.09935059
v 0.04199887 -0.03580923 -0.09011257
v 0.04424822 -0.00000630 -0.06994041
v 0.04265544 -0.03660686 -0.07703256
v 0.03903894 -0.03766890 -0.09228297
v 0.04120493 -0.03728245 -0.08783832
v 0.01888252 -0.00001533 -0.05165043
v 0.01616250 -0.04126322 -0.05165507
v 0.04803828 -0.00365833 -0.07616302
v 0.00000873 -0.02536711 -0.05156850
v 0.04373690 -0.02497014 -0.09749159
v 0.03343488 -0.01438845 -0.05294305
v 0.04057089 -0.02423391 -0.05925432
v 0.04558709 -0.00002219 -0.09372942
v 0.04830424 -0.00021920 -0.07913370
v 0.04822575 -0.02621250 -0.07898104
v 0.04704789 -0.02948812 -0.07703284
v 0.04360801 -0.00421683 -0.06355409
v 0.04812550 -0.02433247 -0.08467341
v 0.02911508 -0.00855207 -0.05011650
v 0.04827288 -0.01986713 -0.07836836
v 0.04407743 -0.03479510 -0.08652145
v 0.00728583 -0.00019383 -0.05076870
v 0.04745396 -0.02612848 -0.07353830
v 0.04074347 -0.03503209 -0.06649303
v 0.01894352 -0.00006127 -0.05002868
v 0.04827963 -0.01737214 -0.07835893
v 0.04693981 -0.00128639 -0.07095474
v 0.04812747 -0.00593661 -0.07676636
v 0.04655745 -0.00065010 -0.06987109
v 0.03676376 -0.02543498 -0.05558381
v 0.00020898 -0.03987339 -0.09875889
v 0.04688520 -0.00054116 -0.07079996
v 0.04447686 -0.02599041 -0.06506296
v 0.04796555 -0.01101563 -0.08558611
v 0.04653617 -0.02205033 -0.09145998
v 0.04283049 -0.03498598 -0.09018801
v 0.04284417 -0.03568227 -0.07328642
v 0.00967490 -0.04141247 -0.09572544
v 0.04146125 -0.03517866 -0.06814627
v 0.04699950 -0.00823265 -0.08991475
v 0.04114866 -0.03664073 -0.09002136
v 0.04746685 -0.00188198 -0.07314400
v 0.03997841 -0.03639174 -0.06792990
v 0.04187628 -0.03463470 -0.09327145
v 0.04412137 -0.01674432 -0.09679465
v 0.04830062 -0.00008335 -0.08095582
v 0.04665313 -0.02583898 -0.09115912
v 0.02920776 -0.02084740 -0.05035908
v 0.00054604 -0.04141244 -0.09644259
v 0.00000048 -0.02276985 -0.05160060
v 0.04396201 -0.02204676 -0.09709777
v 0.00002462 -0.04020275 -0.05843344
v 0.04346160 -0.00039160 -0.06331632
v 0.04471132 -0.01502153 -0.06552847
v 0.04455421 -0.00030227 -0.09596767
v 0.04327676 -0.03537158 -0.08748429
v 0.04407837 -0.01733147 -0.09687793
v 0.04386904 -0.02195884 -0.09727837
v 0.04826735 -0.02244232 -0.07797177
v 0.04819384 -0.00056849 -0.07725863
v 0.03752773 -0.03704240 -0.09604952
v 0.04175319 -0.02621249 -0.06101810
v 0.01156637 -0.00061553 -0.05003526
v 0.04452472 -0.03473647 -0.07697864
v 0.04457590 -0.01677146 -0.06524239
v 0.04687640 -0.02954059 -0.07608846
v 0.04148508 -0.00730539 -0.06047576
v 0.04645760 -0.02408549 -0.09161486
v 0.01028611 -0.04138702 -0.09569932
v 0.04115198 -0.03756147 -0.07431594
v 0.04493843 -0.00002412 -0.06600815
v 0.00002627 -0.00040876 -0.05283194
v 0.03683567 -0.00405697 -0.05556188
v 0.04011454 -0.03769002 -0.07150450
v 0.02908989 -0.01505232 -0.05016595
v 0.04673616 -0.02554377 -0.07047852
v 0.04815206 -0.00793721 -0.08447945
v 0.04439145 -0.01759817 -0.06485275
v 0.04373619 -0.02095577 -0.09749823
v 0.03685615 -0.03716993 -0.06446345
v 0.04250720 -0.03692102 -0.07862226
v 0.04278855 -0.00333669 -0.09891221
v 0.03940510 -0.03718295 -0.06853542
v 0.03600745 -0.02379913 -0.05485087
v 0.02455673 -0.04140200 -0.08120584
v 0.02549107 -0.03771250 -0.09991588
v 0.04819164 -0.02610861 -0.08189333
v 0.04814801 -0.02605084 -0.08451902
v 0.04704939 -0.02971256 -0.07924820
v 0.02238171 -0.04084279 -0.05236439
v 0.03908218 -0.03515319 -0.06407851
v 0.04258990 -0.03688872 -0.07996321
v 0.00105431 -0.04115590 -0.09715066
v 0.03769085 -0.03754883 -0.06633004
v 0.04223686 -0.00074974 -0.09967797
v 0.02767062 -0.03771251 -0.09983856
v 0.04104171 -0.03504342 -0.06706900
v 0.02883322 -0.02585466 -0.05038903
v 0.01762803 -0.02621249 -0.09999199
v 0.03616773 -0.00057318 -0.05508702
v 0.04807381 -0.00594250 -0.07639209
v 0.04770022 -0.02596404 -0.08652946
v 0.04701054 -0.00818424 -0.07119244
v 0.04206934 -0.02559203 -0.09975496
v 0.04653309 -0.00754762 -0.06982428
v 0.03421188 -0.02617869 -0.05349299
v 0.04310477 -0.03569311 -0.08682498
v 0.04137835 -0.03533447 -0.09286677
v 0.04815907 -0.01961003 -0.08438089
v 0.03217891 -0.03489816 -0.05691441
v 0.00176213 -0.04132418 -0.09687185
v 0.04049830 -0.01697253 -0.05916419
v 0.04824020 -0.00373885 -0.08324408
v 0.02877619 -0.02533322 -0.05033476
v 0.04026512 -0.00020681 -0.09862029
v 0.04136291 -0.00020386 -0.06030188
v 0.04812868 -0.00698992 -0.08465551
v 0.04392291 -0.02349028 -0.09717091
v 0.04158230 -0.03764779 -0.08427644
v 0.04795230 -0.02511921 -0.08542911
v 0.04072634 -0.03495016 -0.06628957
v 0.04067176 -0.02390296 -0.05939361
v 0.00000771 -0.00113584 -0.05232124
v 0.04188634 -0.03555442 -0.07003016
v 0.04369860 -0.00184561 -0.09755517
v 0.03926345 -0.03504056 -0.09706648
v 0.00017134 -0.04052662 -0.09798072
v 0.00391389 -0.04141246 -0.06367642
v 0.04053263 -0.02310365 -0.05920371
v 0.03982801 -0.03771254 -0.09012647
v 0.02458160 -0.04139089 -0.07987606
v 0.04265383 -0.02971254 -0.09672975
v 0.04808770 -0.02219188 -0.08487836
v 0.04336976 -0.03467708 -0.08943216
v 0.00047883 -0.03818036 -0.09975312
v 0.04787382 -0.00028953 -0.08610955
v 0.04419160 -0.03524042 -0.08248218
v 0.02991798 -0.02251732 -0.05079299
v 0.04796066 -0.02581407 -0.07617939
v 0.04377297 -0.02928370 -0.06632346
v 0.04503730 -0.00279155 -0.06621702
v 0.04262410 -0.00123414 -0.09914855
v 0.03304530 -0.00293036 -0.05267399
v 0.04061824 -0.00057858 -0.05931688
v 0.03580330 -0.02223979 -0.05465621
v 0.04809462 -0.02342098 -0.08482776
v 0.01698682 -0.04123650 -0.05171074
v 0.04827769 -0.00033395 -0.07829637
v 0.04442597 -0.03479168 -0.08458311
v 0.01871648 -0.01590124 -0.05000066
v 0.03296775 -0.02474525 -0.05262766
v 0.03315847 -0.02399528 -0.05274773
v 0.03691255 -0.03728228 -0.09647328
v 0.04682802 -0.00063671 -0.09054290
v 0.03901739 -0.03758666 -0.06866589
v 0.01108461 -0.04141248 -0.09073521
v 0.04363250 -0.00502200 -0.06359490
v 0.03406594 -0.01767249 -0.05338973
v 0.04026314 -0.03497761 -0.09563091
v 0.04826527 -0.00147350 -0.08277457
v 0.04813543 -0.02409344 -0.08461677
v 0.04257153 -0.03520406 -0.09028285
v 0.03547911 -0.02371171 -0.05440269
v 0.04692302 -0.01774590 -0.07090724
v 0.04819587 -0.01856761 -0.07727401
v 0.03266157 -0.02609224 -0.05244348
v 0.04695505 -0.00871544 -0.09009504
v 0.04643016 -0.02185179 -0.09169428
v 0.04463180 -0.00071603 -0.06536040
v 0.04715070 -0.00058523 -0.08937090
v 0.03979332 -0.03770056 -0.07067147
v 0.00006764 -0.00002704 -0.05314597
v 0.02273692 -0.04139757 -0.08600473
v 0.04412028 -0.03529097 -0.08287183
v 0.02908837 -0.01300443 -0.05012951
v 0.04776942 -0.00088553 -0.08663160
v 0.03319097 -0.02285532 -0.05277020
v 0.04823797 -0.00477096 -0.08327538
v 0.00076875 -0.03933370 -0.09935554
v 0.04695578 -0.01157647 -0.07100006
v 0.01620269 -0.02621248 -0.05001850
v 0.04040164 -0.03507484 -0.06596894
v 0.04706891 -0.01968383 -0.07143429
v 0.04226044 -0.03624402 -0.08793196
v 0.04813419 -0.01085835 -0.08462402
v 0.03320657 -0.01368100 -0.05278146
v 0.04712053 -0.01867176 -0.07165447
v 0.04110490 -0.03770273 -0.07505151
v 0.04316546 -0.03593474 -0.07600183
v 0.02152052 -0.04140528 -0.05417956
v 0.04219055 -0.03731121 -0.08062626
v 0.04374823 -0.00481977 -0.09748007
v 0.02908165 -0.02612584 -0.05051772
v 0.02390605 -0.04141250 -0.08364328
v 0.02953012 -0.02611378 -0.05073868
v 0.04542675 -0.00037733 -0.09407749
v 0.01097713 -0.04141248 -0.09277327
v 0.03909649 -0.03724689 -0.09310939
v 0.04352466 -0.03594329 -0.07967922
v 0.03890370 -0.03488346 -0.09783022
v 0.02639293 -0.03771251 -0.09989277
v 0.00183540 -0.04020947 -0.05727703
v 0.00074182 -0.02620908 -0.05028598
v 0.04734989 -0.00137252 -0.07259790
v 0.04331521 -0.03516214 -0.08818392
v 0.03351003 -0.03255720 -0.09998679
v 0.04825214 -0.00016020 -0.07769113
v 0.03436589 -0.02533045 -0.05360190
v 0.04023094 -0.03512852 -0.09540101
v 0.04734126 -0.00426497 -0.07256216
v 0.04241972 -0.03488823 -0.09161125
v 0.01017003 -0.04136221 -0.09587064
v 0.04457706 -0.02621250 -0.06543342
v 0.04719255 -0.02944904 -0.08290888
v 0.04075822 -0.03735449 -0.07222926
v 0.01147125 -0.04141248 -0.05255541
v 0.04710534 -0.02961297 -0.08348298
v 0.00032817 -0.04141244 -0.06483692
v 0.03620674 -0.01796524 -0.05501315
v 0.04154710 -0.03531472 -0.06866671
v 0.00004569 -0.04141244 -0.09504861
v 0.04785045 -0.02581052 -0.08586800
v 0.04808620 -0.00507135 -0.08489786
v 0.02087533 -0.04141249 -0.05624531
v 0.04623625 -0.00023818 -0.09221378
v 0.03862004 -0.03567822 -0.06433466
v 0.03868910 -0.03642483 -0.06579879
v 0.03809800 -0.00032149 -0.05673890
v 0.01909467 -0.04141249 -0.05207710
v 0.03834013 -0.03510630 -0.06300420
v 0.04711206 -0.00231819 -0.07161288
v 0.04436672 -0.02971254 -0.06775604
v 0.02433803 -0.02892816 -0.05004668
v 0.04342852 -0.03607206 -0.08065793
v 0.04825992 -0.00924832 -0.07774900
v 0.04158578 -0.03648338 -0.08925546
v 0.04480049 -0.02620444 -0.09522555
v 0.03319691 -0.02521349 -0.05277432
v 0.02219930 -0.04133797 -0.05246962
f 360 300 281
f 130 137 167
f 130 283 482
f 4 167 210
f 210 137 4
f 167 137 210
f 382 332 482
f 300 332 382
f 482 283 382
f 283 119 382
f 36 516 409
f 409 516 167
f 409 4 36
f 409 167 4
f 167 516 278
f 60 395 441
f 504 395 60
f 360 83 173
f 173 300 360
f 300 173 164
f 60 441 549
f 549 441 37
f 14 220 64
f 369 272 325
f 16 130 167
f 283 130 16
f 16 167 445
f 445 283 16
f 433 283 300
f 433 119 283
f 300 382 433
f 433 382 119
f 4 137 425
f 438 174 507
f 374 78 499
f 56 399 374
f 374 313 308
f 186 483 41
f 41 98 186
f 414 149 52
f 36 4 52
f 52 516 36
f 52 149 516
f 445 167 296
f 296 278 445
f 167 278 296
f 396 278 516
f 445 278 396
f 341 283 445
f 245 379 27
f 72 245 483
f 379 245 72
f 60 507 72
f 72 504 60
f 319 173 83
f 319 164 173
f 531 359 208
f 174 438 208
f 208 359 174
f 482 332 280
f 280 332 300
f 300 214 280
f 549 49 540
f 99 220 416
f 99 64 220
f 59 32 39
f 325 272 449
f 326 376 374
f 374 399 326
f 326 399 325
f 325 449 326
f 326 449 333
f 326 333 376
f 91 485 35
f 491 460 143
f 279 130 482
f 137 130 279
f 279 425 137
f 323 279 482
f 425 279 323
f 4 425 323
f 372 64 89
f 14 64 372
f 175 154 89
f 374 376 93
f 104 261 191
f 96 313 374
f 374 499 96
f 96 499 313
f 498 549 37
f 384 549 498
f 267 498 37
f 380 498 267
f 313 499 267
f 499 380 267
f 31 499 78
f 31 380 499
f 459 527 56
f 247 56 374
f 374 308 247
f 440 504 44
f 150 98 41
f 150 205 98
f 150 519 205
f 270 123 168
f 44 504 262
f 504 186 262
f 483 186 233
f 233 186 504
f 418 270 168
f 176 149 414
f 516 149 511
f 511 396 516
f 531 283 437
f 283 341 437
f 445 396 489
f 489 341 445
f 396 511 489
f 87 149 310
f 149 287 310
f 310 189 87
f 25 357 81
f 174 359 29
f 29 359 531
f 531 437 29
f 174 29 9
f 379 72 348
f 348 72 507
f 174 9 348
f 507 174 348
f 373 280 513
f 513 280 214
f 513 214 300
f 300 164 513
f 164 319 80
f 80 268 164
f 51 528 84
f 160 83 360
f 360 281 160
f 160 281 300
f 160 283 531
f 300 283 160
f 60 549 500
f 549 34 500
f 60 34 539
f 107 43 335
f 335 35 107
f 335 280 373
f 373 35 335
f 316 104 482
f 482 280 316
f 280 335 316
f 316 43 104
f 316 335 43
f 196 549 404
f 404 49 196
f 196 49 549
f 404 231 536
f 536 231 401
f 549 540 211
f 64 99 211
f 211 99 416
f 126 540 401
f 64 540 126
f 89 64 126
f 126 175 89
f 126 248 175
f 213 449 272
f 527 398 524
f 399 56 524
f 56 527 524
f 217 369 325
f 419 398 387
f 209 527 81
f 81 398 209
f 209 398 527
f 485 329 301
f 301 35 485
f 182 15 127
f 127 143 182
f 460 35 125
f 125 143 460
f 125 35 373
f 125 182 143
f 272 369 115
f 4 30 193
f 368 367 361
f 356 39 517
f 365 30 4
f 4 323 365
f 221 438 507
f 221 466 438
f 383 455 179
f 165 455 383
f 179 202 383
f 426 152 261
f 426 261 104
f 104 162 426
f 14 372 294
f 89 154 294
f 294 372 89
f 154 175 450
f 295 93 376
f 376 333 295
f 386 47 295
f 295 190 93
f 47 190 295
f 250 386 295
f 2 24 8
f 384 498 243
f 243 498 380
f 484 56 447
f 56 247 447
f 98 123 314
f 44 262 314
f 314 186 98
f 314 262 186
f 504 72 249
f 249 233 504
f 249 72 483
f 483 233 249
f 510 287 149
f 149 176 510
f 87 189 406
f 406 149 87
f 406 511 149
f 406 437 341
f 341 489 406
f 406 489 511
f 189 310 54
f 27 379 54
f 41 483 54
f 54 245 27
f 483 245 54
f 246 54 310
f 7 463 246
f 246 463 41
f 41 54 246
f 428 368 361
f 320 368 428
f 320 547 140
f 547 132 140
f 403 29 437
f 437 406 403
f 421 29 403
f 189 421 403
f 403 406 189
f 77 348 9
f 379 348 77
f 534 34 60
f 60 500 534
f 534 500 34
f 60 539 230
f 466 221 230
f 230 507 60
f 230 221 507
f 476 211 416
f 505 211 476
f 264 476 385
f 385 476 485
f 201 476 264
f 505 476 201
f 390 540 49
f 390 49 404
f 404 536 390
f 420 540 64
f 64 211 420
f 420 211 540
f 401 231 20
f 20 126 401
f 218 220 14
f 416 220 48
f 220 340 48
f 169 162 104
f 104 271 169
f 183 39 32
f 325 399 106
f 106 524 325
f 399 524 106
f 325 524 397
f 397 524 398
f 412 532 398
f 398 532 328
f 328 471 398
f 453 165 43
f 373 513 75
f 75 513 15
f 342 337 32
f 292 386 250
f 250 226 292
f 474 226 250
f 339 199 227
f 207 239 336
f 255 545 272
f 272 115 255
f 435 193 30
f 38 356 323
f 38 323 482
f 482 104 38
f 104 312 38
f 517 458 324
f 324 356 517
f 207 356 324
f 324 239 207
f 361 367 355
f 367 12 355
f 355 12 282
f 282 12 284
f 284 365 323
f 204 468 518
f 204 518 416
f 204 48 67
f 416 48 204
f 104 410 538
f 43 165 235
f 165 410 235
f 104 43 235
f 235 410 104
f 223 410 165
f 165 383 223
f 223 383 202
f 223 538 410
f 261 152 377
f 152 291 377
f 195 218 322
f 322 218 14
f 481 549 384
f 492 431 203
f 248 126 203
f 203 431 248
f 537 231 404
f 248 190 542
f 175 248 542
f 542 450 175
f 343 154 542
f 154 450 542
f 146 71 78
f 170 520 497
f 261 363 94
f 94 191 261
f 198 46 274
f 198 94 363
f 234 56 484
f 180 267 37
f 313 267 180
f 544 447 247
f 508 123 98
f 241 7 287
f 287 510 241
f 241 463 7
f 510 463 241
f 371 463 510
f 41 463 371
f 371 150 41
f 302 310 287
f 302 246 310
f 263 547 320
f 320 428 263
f 98 205 242
f 205 519 242
f 242 508 98
f 134 132 547
f 357 25 5
f 5 134 357
f 132 134 5
f 5 25 444
f 135 176 414
f 156 135 140
f 176 135 156
f 6 29 421
f 62 9 29
f 269 421 189
f 189 77 269
f 269 6 421
f 522 77 189
f 379 77 522
f 189 54 522
f 522 54 379
f 109 230 539
f 466 230 109
f 109 208 438
f 438 466 109
f 84 528 362
f 268 80 362
f 362 103 84
f 362 80 319
f 160 103 362
f 362 319 83
f 83 160 362
f 164 268 88
f 91 35 543
f 543 143 127
f 491 143 543
f 543 460 491
f 543 35 460
f 107 35 462
f 462 43 107
f 462 453 43
f 185 329 485
f 485 476 185
f 185 301 329
f 35 301 185
f 185 462 35
f 91 358 265
f 358 385 265
f 265 485 91
f 265 385 485
f 86 201 264
f 264 385 86
f 86 385 358
f 505 201 161
f 201 86 161
f 540 390 95
f 95 390 536
f 401 540 95
f 95 536 401
f 124 340 220
f 220 218 124
f 228 271 104
f 228 120 271
f 195 290 114
f 486 446 70
f 387 398 184
f 398 471 184
f 184 446 356
f 517 39 370
f 39 11 370
f 514 183 32
f 475 213 272
f 318 11 39
f 22 217 325
f 325 397 22
f 200 412 398
f 81 357 200
f 200 398 81
f 369 138 306
f 207 336 306
f 369 217 17
f 17 138 369
f 344 328 70
f 155 259 398
f 398 419 155
f 178 125 373
f 373 75 178
f 182 125 178
f 15 182 178
f 178 75 15
f 32 337 541
f 157 413 337
f 92 342 32
f 59 199 92
f 92 32 59
f 92 199 339
f 490 474 250
f 250 157 490
f 490 157 337
f 545 255 73
f 517 545 73
f 73 458 517
f 193 392 452
f 260 392 193
f 323 356 136
f 356 446 136
f 394 455 67
f 394 529 455
f 179 455 129
f 455 529 129
f 473 455 165
f 165 204 473
f 67 455 473
f 473 204 67
f 468 204 212
f 212 321 468
f 165 453 212
f 212 204 165
f 496 321 212
f 453 462 212
f 251 223 202
f 538 223 251
f 162 422 219
f 248 266 349
f 349 266 353
f 465 85 349
f 353 266 407
f 159 431 492
f 159 492 141
f 159 141 404
f 353 407 159
f 404 549 159
f 549 481 159
f 159 481 465
f 231 537 275
f 275 537 492
f 492 203 275
f 42 190 248
f 42 146 190
f 248 349 42
f 108 146 78
f 108 78 374
f 374 93 108
f 93 190 108
f 190 146 108
f 71 146 347
f 347 23 63
f 380 31 347
f 523 197 343
f 190 197 523
f 343 542 523
f 523 542 190
f 55 190 47
f 55 197 190
f 295 497 57
f 250 295 57
f 364 240 224
f 274 46 102
f 102 46 154
f 102 154 343
f 381 224 59
f 104 191 381
f 381 312 104
f 381 38 312
f 356 38 381
f 59 39 381
f 39 356 381
f 327 198 363
f 384 243 525
f 187 21 56
f 56 234 187
f 187 234 21
f 351 311 289
f 289 270 351
f 123 270 289
f 289 314 123
f 131 346 444
f 237 180 37
f 395 276 237
f 276 234 237
f 37 441 237
f 237 441 395
f 391 308 313
f 313 180 391
f 391 247 308
f 150 371 10
f 519 150 10
f 287 7 244
f 244 302 287
f 7 302 244
f 7 246 113
f 246 302 113
f 238 147 357
f 357 134 238
f 238 134 547
f 3 378 357
f 357 147 3
f 469 242 519
f 519 10 469
f 442 140 132
f 442 156 140
f 132 354 442
f 145 77 9
f 9 62 145
f 145 62 29
f 29 6 145
f 145 269 77
f 6 269 145
f 539 526 232
f 232 109 539
f 208 109 97
f 531 208 97
f 164 88 258
f 258 88 526
f 258 513 164
f 268 362 65
f 65 88 268
f 526 88 65
f 127 15 158
f 91 543 192
f 111 487 496
f 111 462 487
f 496 212 111
f 111 212 462
f 462 185 548
f 548 476 416
f 487 462 548
f 416 518 548
f 518 468 548
f 468 321 548
f 496 487 548
f 548 321 496
f 505 161 128
f 128 161 358
f 448 86 358
f 358 161 448
f 448 161 86
f 120 114 215
f 215 114 290
f 271 120 215
f 183 514 352
f 352 514 520
f 352 520 170
f 411 116 338
f 338 11 411
f 11 318 411
f 411 475 116
f 207 306 330
f 330 306 138
f 430 328 532
f 430 456 328
f 328 456 443
f 70 328 443
f 70 446 61
f 61 344 70
f 337 413 277
f 277 541 337
f 339 227 151
f 227 206 151
f 226 206 415
f 415 206 227
f 415 292 226
f 4 193 405
f 193 452 405
f 33 435 30
f 216 368 320
f 357 257 477
f 464 253 121
f 480 477 136
f 121 253 40
f 357 378 345
f 345 257 357
f 506 284 323
f 506 171 284
f 282 284 53
f 284 171 53
f 432 13 322
f 432 322 14
f 439 219 422
f 439 422 290
f 439 290 195
f 195 322 439
f 454 426 162
f 162 219 454
f 465 481 194
f 194 85 465
f 194 481 434
f 393 349 353
f 465 349 393
f 431 159 334
f 334 159 407
f 380 347 172
f 172 347 63
f 172 243 380
f 63 243 172
f 146 23 139
f 139 347 146
f 23 347 139
f 493 497 520
f 493 57 497
f 364 224 118
f 118 224 451
f 274 102 388
f 388 2 274
f 24 2 388
f 388 102 240
f 8 24 479
f 479 191 8
f 479 381 191
f 451 224 163
f 224 381 163
f 46 198 467
f 198 327 467
f 434 525 105
f 105 42 434
f 146 42 105
f 26 481 384
f 384 525 26
f 434 481 26
f 26 525 434
f 314 289 133
f 133 440 44
f 44 314 133
f 504 440 133
f 395 504 133
f 331 131 444
f 515 131 331
f 444 25 331
f 331 25 81
f 21 234 429
f 66 285 429
f 289 66 429
f 429 133 289
f 395 133 429
f 429 276 395
f 429 234 276
f 509 180 247
f 247 391 509
f 509 391 180
f 286 302 7
f 7 113 286
f 286 113 302
f 45 354 132
f 45 5 444
f 242 354 79
f 79 418 168
f 508 242 79
f 168 123 79
f 123 508 79
f 122 10 371
f 74 232 526
f 528 51 74
f 74 51 84
f 512 362 526
f 91 192 424
f 424 358 91
f 503 211 505
f 503 192 211
f 505 128 503
f 503 128 358
f 358 424 503
f 211 192 400
f 400 192 543
f 549 211 400
f 400 236 549
f 400 543 236
f 461 185 476
f 476 548 461
f 461 548 185
f 495 427 184
f 446 184 533
f 184 427 533
f 222 184 356
f 222 470 184
f 213 475 28
f 475 411 28
f 307 260 193
f 307 389 260
f 435 33 502
f 177 464 121
f 136 464 177
f 446 486 303
f 303 136 446
f 303 480 136
f 357 477 350
f 477 480 350
f 254 40 257
f 121 40 254
f 257 345 254
f 112 345 69
f 304 112 117
f 304 345 112
f 1 432 291
f 13 432 1
f 1 291 152
f 530 349 85
f 85 194 530
f 530 42 349
f 434 42 530
f 530 194 434
f 375 240 364
f 375 388 240
f 146 105 166
f 166 105 525
f 166 23 146
f 63 23 166
f 166 243 63
f 166 525 243
f 484 447 101
f 101 234 484
f 447 544 101
f 402 180 501
f 501 68 402
f 501 237 234
f 180 237 501
f 247 68 501
f 501 544 247
f 252 58 131
f 252 131 515
f 546 289 311
f 546 58 289
f 459 285 18
f 18 331 81
f 18 285 66
f 81 527 18
f 527 459 18
f 66 417 18
f 18 417 331
f 21 429 153
f 153 429 285
f 153 285 459
f 132 5 181
f 181 45 132
f 5 45 181
f 444 346 521
f 521 45 444
f 346 472 521
f 521 472 311
f 418 79 521
f 521 311 351
f 354 45 521
f 521 79 354
f 351 270 521
f 270 418 521
f 100 469 10
f 10 122 100
f 100 510 176
f 176 156 100
f 156 442 100
f 242 469 100
f 100 354 242
f 100 442 354
f 90 371 510
f 90 122 371
f 232 74 305
f 305 74 84
f 528 74 293
f 526 362 293
f 293 74 526
f 298 65 362
f 362 512 298
f 526 65 298
f 298 512 526
f 236 543 457
f 457 34 549
f 549 236 457
f 299 526 539
f 299 258 526
f 513 258 299
f 15 513 299
f 299 158 15
f 408 424 192
f 192 503 408
f 408 503 424
f 225 184 471
f 225 495 184
f 488 470 259
f 488 423 470
f 184 470 148
f 470 423 148
f 82 216 297
f 297 144 82
f 297 216 320
f 320 260 297
f 260 389 297
f 188 502 33
f 82 144 188
f 535 112 323
f 323 136 535
f 136 177 535
f 117 112 535
f 478 345 378
f 478 69 345
f 110 501 234
f 234 101 110
f 544 501 110
f 110 101 544
f 366 417 66
f 515 331 366
f 331 417 366
f 510 100 436
f 436 100 122
f 436 90 510
f 122 90 436
f 19 97 109
f 109 232 19
f 232 305 19
f 19 103 160
f 84 103 19
f 19 305 84
f 19 160 531
f 531 97 19
f 50 362 528
f 528 293 50
f 50 293 362
f 309 457 273
f 309 299 539
f 273 299 309
f 309 539 34
f 34 457 309
f 317 457 543
f 273 457 317
f 317 543 127
f 127 158 317
f 158 299 317
f 317 299 273
f 259 155 288
f 288 488 259
f 82 188 256
f 256 188 33
f 515 366 142
f 142 366 66
f 315 66 289
f 315 142 66
f 229 142 315
f 515 142 494
f 494 142 229
f 289 58 76
f 76 315 289
f 58 252 76
f 141 492 537
f 404 141 537
f 198 2 8
f 8 191 198
f 274 2 198
f 191 94 198
f 475 545 517
f 272 545 475
f 517 370 475
f 475 11 338
f 338 116 475
f 475 370 11
f 369 306 73
f 73 115 369
f 73 324 458
f 73 336 239
f 73 255 115
f 239 324 73
f 73 306 336
f 195 114 251
f 67 48 251
f 340 124 251
f 251 202 179
f 251 218 195
f 104 538 251
f 251 48 340
f 251 228 104
f 251 394 67
f 179 129 251
f 251 124 218
f 120 228 251
f 251 114 120
f 529 394 251
f 251 129 529
f 126 20 275
f 275 20 231
f 275 203 126
f 347 31 78
f 78 71 347
f 290 422 215
f 162 169 215
f 215 169 271
f 215 422 162
f 151 92 339
f 151 490 337
f 337 342 151
f 226 474 151
f 342 92 151
f 474 490 151
f 151 206 226
f 415 199 59
f 343 197 415
f 415 227 199
f 415 47 386
f 386 292 415
f 415 102 343
f 415 55 47
f 59 224 415
f 197 55 415
f 415 224 240
f 240 102 415
f 414 52 405
f 405 52 4
f 405 135 414
f 320 140 405
f 405 260 320
f 140 135 405
f 405 452 392
f 392 260 405
f 253 464 40
f 136 477 40
f 40 477 257
f 40 464 136
f 393 159 465
f 353 159 393
f 248 431 334
f 334 266 248
f 334 407 266
f 493 157 250
f 493 514 32
f 32 541 493
f 520 514 493
f 250 57 493
f 413 157 493
f 493 277 413
f 541 277 493
f 14 294 467
f 467 327 363
f 154 46 467
f 467 294 154
f 467 363 261
f 261 377 467
f 467 377 291
f 467 432 14
f 291 432 467
f 68 180 402
f 247 180 68
f 222 397 398
f 222 356 207
f 138 17 222
f 259 470 222
f 398 259 222
f 207 330 222
f 217 22 222
f 222 17 217
f 222 22 397
f 222 330 138
f 333 449 28
f 170 497 28
f 39 183 28
f 28 295 333
f 449 213 28
f 28 318 39
f 28 497 295
f 28 352 170
f 183 352 28
f 28 411 318
f 350 303 486
f 350 486 70
f 350 443 456
f 350 430 532
f 350 200 357
f 532 412 350
f 70 443 350
f 412 200 350
f 456 430 350
f 480 303 350
f 322 13 1
f 152 426 1
f 426 454 1
f 1 439 322
f 219 439 1
f 1 454 219
f 451 163 375
f 364 118 375
f 24 388 375
f 375 479 24
f 375 118 451
f 381 479 375
f 375 163 381
f 311 472 546
f 131 58 546
f 546 472 346
f 346 131 546
f 56 21 153
f 153 459 56
f 471 328 225
f 225 61 446
f 328 344 225
f 446 533 225
f 344 61 225
f 427 495 225
f 225 533 427
f 188 307 193
f 193 435 188
f 389 307 188
f 435 502 188
f 188 297 389
f 144 297 188
f 535 254 345
f 535 177 121
f 121 254 535
f 535 304 117
f 345 304 535
f 478 428 361
f 323 112 478
f 378 3 478
f 361 355 478
f 547 263 478
f 478 355 282
f 478 263 428
f 478 238 547
f 282 53 478
f 478 506 323
f 147 238 478
f 478 3 147
f 112 69 478
f 171 506 478
f 478 53 171
f 387 184 288
f 288 419 387
f 288 155 419
f 184 148 288
f 423 488 288
f 288 148 423
f 256 284 12
f 365 284 256
f 367 368 256
f 30 365 256
f 256 12 367
f 256 33 30
f 368 216 256
f 256 216 82
f 515 494 76
f 76 252 515
f 229 315 76
f 76 494 229

