# https://github.com/mikedh/trimesh
v 0.10172520 0.00025256 0.02462109
v 0.10340609 0.00054064 0.00189370
v 0.10486647 0.00099052 0.00381771
v 0.10004146 0.00062009 0.01176294
v 0.10477685 0.00031660 0.00227113
v 0.10488081 0.00074489 0.00306928
v 0.10496593 0.00101641 0.00440132
v 0.10067649 0.00157718 0.00300875
v 0.10105306 0.00198567 0.00655477
v 0.10586751 0.00029521 0.00433280
v 0.10187230 0.00177704 0.00442364
v 0.10324175 0.00179065 0.00637754
v 0.10244611 0.00098650 0.00207774
v 0.10122159 0.00197219 0.00675319
v 0.10440904 0.00004446 0.00179155
v 0.10045280 0.00168464 0.00333894
v 0.10403109 0.00161963 0.00864792
v 0.10087363 0.00003792 0.02349693
v 0.10446116 0.00028953 0.00203976
v 0.10115739 0.00184348 0.00450838
v 0.10439276 0.00148762 0.00878826
v 0.10008999 0.00084287 0.02467985
v 0.10524034 0.00075150 0.00924337
v 0.10039583 0.00006674 0.01207188
v 0.10590544 0.00002075 0.00326985
v 0.10127897 0.00068225 0.02490892
v 0.10432142 0.00165838 0.00712666
v 0.10455071 0.00147634 0.00614894
v 0.10066132 0.00030131 0.00144757
v 0.10587827 0.00041912 0.00601550
v 0.10253626 0.00173013 0.00452013
v 0.10021504 0.00088835 0.00180221
v 0.10461737 0.00137383 0.00533661
v 0.10458179 0.00123946 0.00396073
v 0.10629856 0.00009153 0.00726946
v 0.10588930 0.00011592 0.00353042
v 0.10447599 0.00150641 0.00563951
v 0.10035988 0.00204084 0.00654990
v 0.10599016 0.00026123 0.00857270
v 0.10611399 0.00013534 0.00455544
v 0.10510884 0.00058084 0.00309720
v 0.10429655 0.00168495 0.00662226
v 0.10284969 0.00082555 0.00200509
v 0.10214170 0.00186479 0.00603316
v 0.10349605 0.00166688 0.00474725
v 0.10023772 0.00195139 0.00494542
v 0.10203486 0.00189528 0.00699101
v 0.10609824 0.00023840 0.00591716
v 0.10457960 0.00137342 0.00492916
v 0.10301446 0.00044740 0.00175521
v 0.10536368 0.00064468 0.00928971
v 0.10411962 0.00170619 0.00734299
v 0.10334112 0.00178475 0.00653868
v 0.10183142 0.00191585 0.00690446
v 0.10491097 0.00116638 0.00569875
v 0.10432214 0.00160767 0.00798361
v 0.10629843 0.00004232 0.00817773
v 0.10381249 0.00173980 0.00701167
v 0.10348006 0.00177364 0.00675723
v 0.10276168 0.00146597 0.00324063
v 0.10085296 0.00117113 0.00209085
v 0.10120841 0.00002630 0.02367156
v 0.10407377 0.00163161 0.00492312
v 0.10319170 0.00163840 0.00425764
v 0.10185659 0.00191487 0.00651876
v 0.10235810 0.00179982 0.00529852
v 0.10375508 0.00151703 0.00383979
v 0.10001661 0.00202524 0.00771673
v 0.10000697 0.00184350 0.00385404
v 0.10394179 0.00172434 0.00723689
v 0.10497402 0.00105752 0.00482008
v 0.10236065 0.00083912 0.00196150
v 0.10370553 0.00065910 0.00206210
v 0.10326585 0.00009812 0.00155462
v 0.10317769 0.00123951 0.00267574
v 0.10021887 0.00201802 0.00592691
v 0.10212785 0.00127691 0.00253242
v 0.10459106 0.00113900 0.00980863
v 0.10217184 0.00108175 0.00214942
v 0.10217175 0.00098481 0.00204956
v 0.10284422 0.00183058 0.00669850
v 0.10532708 0.00086990 0.00700128
v 0.10381446 0.00153011 0.00393449
v 0.10333999 0.00138606 0.00313692
v 0.10553365 0.00041609 0.00361488
v 0.10410232 0.00127039 0.00305026
v 0.10337571 0.00138731 0.00315128
v 0.10460223 0.00032167 0.00215248
v 0.10263093 0.00166841 0.00414182
v 0.10440492 0.00158603 0.00737913
v 0.10059451 0.00099584 0.00192304
v 0.10587146 0.00020381 0.00948062
v 0.10400764 0.00138289 0.00334145
v 0.10401083 0.00145029 0.00362449
v 0.10003432 0.00145810 0.00251192
v 0.10446234 0.00144972 0.00863959
v 0.10392007 0.00165742 0.00510596
v 0.10404100 0.00153663 0.00409370
v 0.10343289 0.00129982 0.00289751
v 0.10157479 0.00133783 0.00255847
v 0.10475725 0.00131630 0.00630535
v 0.10374711 0.00086311 0.00226749
f 26 22 1
f 57 25 35
f 17 22 26
f 69 95 4
f 4 68 69
f 22 68 4
f 18 1 22
f 90 57 35
f 26 1 92
f 1 57 92
f 32 4 95
f 62 57 1
f 1 18 62
f 25 57 62
f 16 95 69
f 16 8 95
f 26 21 56
f 56 17 26
f 82 90 35
f 35 25 40
f 40 48 35
f 69 68 76
f 68 38 76
f 42 37 63
f 52 68 22
f 22 17 52
f 17 56 52
f 78 21 26
f 39 92 57
f 57 90 39
f 90 56 39
f 25 15 5
f 102 75 86
f 13 75 102
f 24 62 18
f 24 74 15
f 24 15 25
f 25 62 24
f 29 74 24
f 24 32 29
f 4 32 24
f 22 4 24
f 24 18 22
f 89 83 69
f 69 11 89
f 8 16 60
f 60 87 8
f 60 93 87
f 60 16 69
f 36 40 25
f 48 40 55
f 69 76 46
f 90 82 27
f 82 42 27
f 27 56 90
f 27 52 56
f 42 52 27
f 23 39 21
f 21 78 23
f 23 78 26
f 96 56 21
f 21 39 96
f 96 39 56
f 79 75 13
f 99 75 95
f 95 8 99
f 86 75 99
f 99 93 86
f 87 93 99
f 32 91 80
f 13 72 80
f 80 72 32
f 6 5 86
f 86 34 6
f 6 34 3
f 15 102 19
f 50 74 29
f 29 32 50
f 32 72 50
f 64 89 11
f 11 31 64
f 83 98 94
f 86 93 94
f 94 60 69
f 93 60 94
f 94 34 86
f 98 34 94
f 10 36 3
f 40 36 10
f 71 55 40
f 37 55 71
f 49 98 63
f 49 34 98
f 63 37 49
f 37 42 28
f 28 55 37
f 20 31 11
f 20 46 31
f 20 11 69
f 69 46 20
f 66 46 76
f 97 42 63
f 97 12 42
f 63 46 97
f 46 66 97
f 9 76 38
f 92 39 51
f 39 23 51
f 26 92 51
f 51 23 26
f 77 79 95
f 75 79 77
f 8 87 84
f 84 99 8
f 87 99 84
f 61 80 91
f 61 79 13
f 13 80 61
f 95 79 61
f 61 32 95
f 61 91 32
f 25 5 41
f 5 6 41
f 41 36 25
f 41 6 3
f 88 19 102
f 86 5 88
f 88 102 86
f 88 5 15
f 15 19 88
f 13 102 43
f 43 72 13
f 43 50 72
f 15 74 2
f 74 50 2
f 50 43 2
f 45 64 31
f 45 46 63
f 31 46 45
f 98 64 45
f 63 98 45
f 69 83 67
f 67 94 69
f 83 94 67
f 37 71 33
f 33 49 37
f 71 49 33
f 34 49 7
f 7 49 71
f 3 34 7
f 7 10 3
f 40 10 7
f 7 71 40
f 55 28 30
f 48 55 30
f 35 48 30
f 30 82 35
f 44 66 76
f 44 97 66
f 76 9 44
f 12 97 44
f 44 9 12
f 58 52 42
f 42 59 58
f 42 12 53
f 53 59 42
f 95 75 100
f 100 77 95
f 75 77 100
f 3 36 85
f 85 41 3
f 36 41 85
f 73 102 15
f 15 2 73
f 73 43 102
f 73 2 43
f 101 28 42
f 101 30 28
f 101 42 82
f 82 30 101
f 14 38 68
f 14 9 38
f 12 9 65
f 65 53 12
f 59 53 81
f 9 14 81
f 81 65 9
f 53 65 81
f 52 58 70
f 68 52 47
f 52 70 54
f 54 47 52
f 54 14 68
f 68 47 54
f 83 89 64
f 64 98 83
f 59 81 54
f 54 58 59
f 54 81 14
f 54 70 58

