# https://github.com/mikedh/trimesh
v 0.13786297 0.01722961 -0.02520905
v 0.13416935 0.02143727 -0.03532326
v 0.13344683 0.02169772 -0.03539491
v 0.14153233 0.00828289 -0.02808601
v 0.13760641 0.01822847 -0.03402533
v 0.13986483 0.01270262 -0.03494010
v 0.13477667 0.02130944 -0.02571652
v 0.13642032 0.01989932 -0.03190816
v 0.14060147 0.01089220 -0.03480115
v 0.13710808 0.01904092 -0.03352710
v 0.13507859 0.02090044 -0.02527848
v 0.13321725 0.02226072 -0.03539492
v 0.14196081 0.00579635 -0.02970160
v 0.14025418 0.01260897 -0.02717369
v 0.14135925 0.00219829 -0.03536369
v 0.13911943 0.00167040 -0.03539470
v 0.13569155 0.02048273 -0.02773951
v 0.14067117 0.00005515 -0.03539463
v 0.14225515 0.00304463 -0.03459120
v 0.13111293 0.02457558 -0.02538153
v 0.13951090 0.01445104 -0.02808917
v 0.14111900 0.00624539 -0.03523065
v 0.14215518 0.00047454 -0.03474796
v 0.12572626 0.02420677 -0.02851223
v 0.13794001 0.01736538 -0.02746024
v 0.12633920 0.01310708 -0.03539527
v 0.12510568 0.00478959 -0.03539534
v 0.14001369 0.01321250 -0.02748850
v 0.14103314 0.00914696 -0.03485791
v 0.13403631 0.02136709 -0.03539488
v 0.13882527 0.01573446 -0.02717282
v 0.14158098 0.00614758 -0.03484808
v 0.13750300 0.01730649 -0.03507464
v 0.13929457 0.01516196 -0.03349592
v 0.12506947 0.01690335 -0.02851223
v 0.14230942 0.00188416 -0.03373425
v 0.14149554 0.00850555 -0.02922773
v 0.13879053 0.01620487 -0.03446724
v 0.14035459 0.01242413 -0.02942418
v 0.14211396 0.00460265 -0.02901056
v 0.12572386 0.00014636 -0.02852565
v 0.13423262 0.02158961 -0.03519903
v 0.13080537 0.02426424 -0.03539502
v 0.13996271 0.01360859 -0.03428053
v 0.14164942 0.00778273 -0.03454362
v 0.13426377 0.00990467 -0.03539491
v 0.14219013 0.00397494 -0.02976072
v 0.14128323 0.00924262 -0.02822711
v 0.14154642 0.00260087 -0.03519425
v 0.13941930 0.01491069 -0.03402452
v 0.13764095 0.01253345 -0.03539474
v 0.14223888 0.00226975 -0.02588489
v 0.14164859 0.00083185 -0.03516052
v 0.14007711 0.01038439 -0.03535967
v 0.13678194 0.01911354 -0.02802707
v 0.13431203 0.02189485 -0.02622801
v 0.13626461 0.01972446 -0.03482909
v 0.14048950 0.00058867 -0.03539464
v 0.14235112 0.00042677 -0.03441254
v 0.14125798 0.00951037 -0.03120557
v 0.13675602 0.01942532 -0.03097428
v 0.13712903 0.01885232 -0.03078963
v 0.13485157 0.02145748 -0.02742778
v 0.14137054 0.00912668 -0.03257729
v 0.13998512 0.01356132 -0.03457180
v 0.14089016 0.00662324 -0.03537521
v 0.12503920 0.02339394 -0.03539529
v 0.13401224 0.02259028 -0.02950697
v 0.13358718 0.02329028 -0.03334472
v 0.13717169 0.01445389 -0.03539475
v 0.12564211 0.01339111 -0.03539530
v 0.12560712 0.00105845 -0.03539533
v 0.14235708 0.00037252 -0.03075472
v 0.14136739 0.00469024 -0.03519995
v 0.13497461 0.02173220 -0.03325376
v 0.13630101 0.01996157 -0.02996699
v 0.13816943 0.01699727 -0.02779298
v 0.13330929 0.02266294 -0.02547820
v 0.13390119 0.00001737 -0.03539494
v 0.12710617 0.02476627 -0.02852563
v 0.13942348 0.01458361 -0.02746738
v 0.13599409 0.01930523 -0.03523376
v 0.14116189 0.00110472 -0.03539460
v 0.14223791 0.00341635 -0.03041457
v 0.14194688 0.00573060 -0.03455801
v 0.13312269 0.02355362 -0.03034585
v 0.13942998 0.01480744 -0.03194680
v 0.13550482 0.02033218 -0.02505535
v 0.14135608 0.00919542 -0.03274715
v 0.13644118 0.01977011 -0.02985464
v 0.14232593 0.00130696 -0.03451752
v 0.14149885 0.00453615 -0.03510638
v 0.13135387 0.01473530 -0.03539503
v 0.12520018 0.00223526 -0.02851223
v 0.13734948 0.01764594 -0.03504452
v 0.13697770 0.01877216 -0.03481466
v 0.14193764 0.00369915 -0.03480952
v 0.12971648 0.00101481 -0.03539514
v 0.13108363 0.00027560 -0.03539508
v 0.14071740 0.01093588 -0.02550914
v 0.14095522 0.00845581 -0.03504272
v 0.13649121 0.01965833 -0.02918576
v 0.13347367 0.02328953 -0.03131357
v 0.14108100 0.00945817 -0.03475670
v 0.14230871 0.00190858 -0.03439657
v 0.12505301 0.00861753 -0.02852569
v 0.14082355 0.01096066 -0.03435338
v 0.13729771 0.01851721 -0.02967453
v 0.13495390 0.02076706 -0.03518429
v 0.14091310 0.01033417 -0.03468069
v 0.14122600 0.00801959 -0.03490115
v 0.13195829 0.02450696 -0.02953946
v 0.13242460 0.02439245 -0.03365247
v 0.14222246 0.00359092 -0.03321336
v 0.12661273 0.00014381 -0.03539528
v 0.14067664 0.00919467 -0.03513245
v 0.14140347 0.00894814 -0.03066624
v 0.13946933 0.01046612 -0.03539465
v 0.14181450 0.00664820 -0.02568004
v 0.13942497 0.01489637 -0.03393862
v 0.14088951 0.00979799 -0.03483212
v 0.14220832 0.00377131 -0.03347131
v 0.12520107 0.02019237 -0.02851223
v 0.14166974 0.00743056 -0.02563180
v 0.13495498 0.02106802 -0.03502494
v 0.14156082 0.00664610 -0.03480355
v 0.13763357 0.01777620 -0.02675212
v 0.13769331 0.01751659 -0.02529360
v 0.12510401 0.01920786 -0.02852569
v 0.13986227 0.01341825 -0.02597425
v 0.13110667 0.02496471 -0.02756269
v 0.13416179 0.02266845 -0.03331041
v 0.12507718 0.00490808 -0.02852568
v 0.14113526 0.00929424 -0.03474830
v 0.13961722 0.01432505 -0.03025959
v 0.13214839 0.02434707 -0.02945737
v 0.13428049 0.02255896 -0.03362722
v 0.14065493 0.01152168 -0.02960526
v 0.13824097 0.01673213 -0.03476992
v 0.12967519 0.02474132 -0.03539508
v 0.13206832 0.02460053 -0.03267770
v 0.14236089 0.00012114 -0.03017941
v 0.13537031 0.02105995 -0.03016441
v 0.12547358 0.02375420 -0.03539528
v 0.13998001 0.01308141 -0.03473626
v 0.12507024 0.00828171 -0.02851223
v 0.13818110 0.01705925 -0.02946938
v 0.14210848 0.00456954 -0.03399139
v 0.14080755 0.00590456 -0.03539460
v 0.13845574 0.01604202 -0.03490043
v 0.14170533 0.00738112 -0.02969294
v 0.13455083 0.02163250 -0.03497481
v 0.14078525 0.00738740 -0.03535291
v 0.12650508 0.00066491 -0.03539529
v 0.13995329 0.01328631 -0.03469342
v 0.14197070 0.00520298 -0.02507434
v 0.13532610 0.02101284 -0.03480559
v 0.13413533 0.02272673 -0.03381826
v 0.13523196 0.02081747 -0.03497316
v 0.12695346 0.00000243 -0.02851223
v 0.12531743 0.01462759 -0.03539531
v 0.14234663 0.00092776 -0.03029668
v 0.13339747 0.02324404 -0.02989917
v 0.14147973 0.00813821 -0.02518808
v 0.14236236 0.00031919 -0.02577137
v 0.13319676 0.02361329 -0.03182854
v 0.13736742 0.01863037 -0.03387464
v 0.14182728 0.00655721 -0.03457134
v 0.13636910 0.01817221 -0.03539477
f 165 160 142
f 160 18 142
f 94 27 72
f 161 27 67
f 59 142 18
f 41 160 165
f 20 94 41
f 41 94 72
f 41 115 160
f 72 115 41
f 24 20 80
f 115 99 79
f 79 18 160
f 160 115 79
f 154 115 72
f 154 99 115
f 99 154 98
f 72 27 98
f 98 154 72
f 27 161 71
f 26 98 71
f 71 98 27
f 165 142 73
f 142 59 73
f 15 149 66
f 66 149 54
f 54 150 6
f 20 35 146
f 67 35 129
f 129 35 20
f 109 82 2
f 131 80 20
f 20 78 131
f 131 78 56
f 149 15 83
f 95 82 96
f 139 95 96
f 169 54 118
f 118 54 149
f 118 83 51
f 149 83 118
f 33 54 169
f 150 54 33
f 169 82 33
f 82 95 33
f 33 139 150
f 95 139 33
f 66 54 153
f 88 20 156
f 20 41 156
f 156 41 165
f 48 164 4
f 27 94 133
f 133 94 20
f 20 146 133
f 123 24 67
f 67 129 123
f 123 20 24
f 123 129 20
f 11 20 88
f 11 78 20
f 144 161 67
f 144 71 161
f 67 24 144
f 24 80 144
f 96 82 57
f 96 57 157
f 136 131 56
f 30 82 169
f 2 82 30
f 53 83 15
f 18 83 53
f 162 73 59
f 59 91 162
f 165 73 162
f 74 15 66
f 165 162 84
f 38 139 96
f 150 139 38
f 9 54 6
f 66 153 111
f 116 153 54
f 52 156 165
f 47 156 52
f 165 84 52
f 52 84 47
f 67 27 106
f 27 133 106
f 106 133 146
f 106 35 67
f 106 146 35
f 143 63 76
f 10 157 158
f 56 78 7
f 78 11 7
f 7 63 56
f 7 11 63
f 46 16 98
f 46 98 26
f 99 98 58
f 98 16 58
f 18 79 58
f 58 79 99
f 58 83 18
f 51 83 58
f 58 46 51
f 16 46 58
f 26 71 93
f 71 144 93
f 93 46 26
f 51 46 93
f 125 109 2
f 82 109 159
f 159 57 82
f 159 157 57
f 109 125 159
f 159 125 157
f 113 136 166
f 131 136 112
f 112 141 131
f 112 136 113
f 113 141 112
f 113 43 140
f 140 144 80
f 51 93 140
f 140 93 144
f 140 141 113
f 80 131 140
f 131 141 140
f 23 91 59
f 23 59 18
f 18 53 23
f 23 19 91
f 15 19 23
f 23 53 15
f 91 19 105
f 105 162 91
f 19 84 105
f 168 111 45
f 49 19 15
f 15 74 49
f 22 74 66
f 19 148 122
f 47 84 122
f 121 104 54
f 54 9 121
f 6 150 155
f 54 104 134
f 134 116 54
f 45 111 134
f 101 111 153
f 153 116 101
f 164 156 119
f 100 164 48
f 48 138 100
f 45 89 64
f 48 4 37
f 37 117 48
f 45 64 37
f 89 117 37
f 37 64 89
f 89 138 60
f 60 117 89
f 60 138 48
f 48 117 60
f 63 11 17
f 17 76 63
f 17 11 88
f 75 8 10
f 10 158 75
f 75 76 8
f 143 76 75
f 152 125 2
f 157 125 152
f 152 43 113
f 113 158 152
f 152 158 157
f 69 158 113
f 113 166 69
f 56 63 68
f 143 75 68
f 68 63 143
f 169 118 70
f 70 118 51
f 12 140 43
f 2 30 12
f 43 152 12
f 12 70 51
f 12 30 169
f 169 70 12
f 36 84 162
f 162 105 36
f 36 105 84
f 85 148 19
f 19 168 85
f 19 49 97
f 97 168 19
f 32 168 97
f 32 22 126
f 126 168 32
f 111 168 126
f 66 111 126
f 126 22 66
f 114 84 19
f 19 122 114
f 114 122 84
f 130 100 14
f 14 100 138
f 104 121 110
f 110 121 9
f 110 134 104
f 45 134 110
f 145 9 6
f 6 155 145
f 145 110 9
f 107 138 89
f 45 110 107
f 107 89 45
f 116 134 29
f 29 101 116
f 29 134 111
f 111 101 29
f 40 156 47
f 40 119 156
f 47 122 40
f 40 122 148
f 4 119 151
f 45 37 151
f 151 37 4
f 124 4 164
f 164 119 124
f 124 119 4
f 10 8 61
f 61 76 90
f 8 76 61
f 5 38 96
f 38 31 21
f 77 31 38
f 102 61 90
f 90 76 102
f 76 17 102
f 127 102 128
f 108 61 127
f 61 102 127
f 1 128 88
f 88 156 1
f 1 156 164
f 164 100 1
f 1 100 130
f 130 31 1
f 31 77 1
f 103 69 166
f 166 68 103
f 137 75 158
f 137 68 75
f 86 166 136
f 51 140 3
f 3 12 51
f 140 12 3
f 42 152 2
f 2 12 42
f 42 12 152
f 92 49 74
f 92 97 49
f 32 97 92
f 92 22 32
f 74 22 92
f 138 107 65
f 65 107 110
f 150 38 65
f 65 155 150
f 65 145 155
f 110 145 65
f 148 85 13
f 13 40 148
f 13 85 168
f 13 168 45
f 119 40 13
f 45 151 13
f 13 151 119
f 10 61 62
f 62 61 108
f 38 21 34
f 81 31 130
f 130 21 81
f 81 21 31
f 167 157 10
f 96 157 167
f 167 5 96
f 88 128 55
f 128 102 55
f 55 17 88
f 55 102 17
f 108 127 25
f 10 62 25
f 25 62 108
f 25 167 10
f 25 1 77
f 25 127 128
f 128 1 25
f 132 103 68
f 68 137 132
f 69 103 132
f 163 68 166
f 166 86 163
f 56 68 163
f 163 136 56
f 163 86 136
f 39 14 138
f 138 65 39
f 39 65 14
f 50 65 38
f 120 65 50
f 38 34 50
f 50 34 120
f 14 135 28
f 28 135 21
f 130 14 28
f 28 21 130
f 14 65 44
f 44 135 14
f 44 65 120
f 120 135 44
f 87 34 21
f 21 135 87
f 120 34 87
f 87 135 120
f 5 167 147
f 38 5 147
f 147 77 38
f 147 25 77
f 167 25 147
f 132 137 158
f 158 69 132

