# https://github.com/mikedh/trimesh
v -0.00196793 -0.01848207 -0.30846729
v -0.00590377 -0.01058138 -0.31073373
v -0.00944911 -0.01419701 -0.30769044
v -0.01237689 -0.00909422 -0.30014708
v -0.01144272 -0.01229317 -0.30435722
v -0.00864601 -0.01596813 -0.30853741
v -0.00882923 -0.01772235 -0.30555071
v -0.00592364 -0.01577293 -0.31064594
v -0.00137762 -0.01491995 -0.31211575
v -0.00975179 -0.00862146 -0.30738709
v -0.01155900 -0.01692753 -0.30159648
v -0.00257460 -0.01124947 -0.31196335
v -0.00562640 -0.01616240 -0.31071870
v -0.01183499 -0.00976901 -0.30314698
v -0.00763069 -0.01120168 -0.30948210
v -0.01048271 -0.00966577 -0.30633056
v -0.00802480 -0.00852617 -0.30917410
v -0.00014012 -0.01819257 -0.30794429
v -0.00505436 -0.01677814 -0.31081327
v -0.01033885 -0.01241488 -0.30655336
v -0.00374242 -0.00962335 -0.31164897
v -0.00023774 -0.00928749 -0.31224597
v -0.00805796 -0.00936943 -0.30914935
v -0.00896360 -0.00917053 -0.30835029
v -0.00537306 -0.01532028 -0.31092746
v -0.00556452 -0.00977342 -0.31091502
v -0.00776902 -0.01474470 -0.30936324
v -0.00596534 -0.00843670 -0.31070187
v -0.00045503 -0.00981614 -0.30773389
v -0.00910599 -0.01785310 -0.30297009
v -0.00050816 -0.01499656 -0.31224679
v -0.01172928 -0.01231966 -0.30353755
v -0.01200178 -0.01191102 -0.30231742
v -0.00087885 -0.00803662 -0.30885067
v -0.01034685 -0.01679135 -0.30560467
v -0.00080823 -0.00803662 -0.31096313
v -0.01111095 -0.01190070 -0.30504930
v -0.00262674 -0.00925658 -0.31196539
v -0.00292627 -0.00888243 -0.31187780
v -0.00905832 -0.01356132 -0.30821105
v -0.01152399 -0.01380931 -0.30416650
v -0.01016173 -0.01642039 -0.30625547
v -0.01198521 -0.01601653 -0.30170218
v -0.00799301 -0.00803662 -0.30860430
v -0.00125740 -0.01040138 -0.31218037
v -0.00907553 -0.01272736 -0.30820622
v -0.00242233 -0.00803662 -0.31157896
v -0.00498181 -0.00803662 -0.31052435
v -0.00088135 -0.00803662 -0.31193150
v -0.00392704 -0.01249583 -0.31159276
v -0.00737397 -0.01236841 -0.30968123
v -0.00658353 -0.00902245 -0.31029035
v -0.00917674 -0.00803663 -0.30701595
v -0.00186413 -0.00835871 -0.31210578
v -0.00001765 -0.01589620 -0.30789732
v -0.00762833 -0.01693902 -0.30888630
v -0.00861487 -0.01769968 -0.30622043
v -0.01190912 -0.01586858 -0.30221007
v -0.01218674 -0.01517122 -0.30107498
v -0.00016070 -0.01862919 -0.31021445
v -0.00029035 -0.01342939 -0.31225383
v -0.00798078 -0.01495733 -0.30919600
v -0.00937021 -0.01570587 -0.30764838
v -0.00502110 -0.01559506 -0.31107737
v -0.00097513 -0.01838256 -0.31074667
v -0.00648787 -0.01716469 -0.30971176
v -0.00778774 -0.00932280 -0.30026859
v -0.00242688 -0.01606910 -0.31191146
v -0.01137967 -0.01684887 -0.30279740
v -0.01065184 -0.01764800 -0.30035739
v -0.00504192 -0.00803662 -0.31082807
v -0.00792878 -0.01631181 -0.30010296
v -0.01052658 -0.00803662 -0.30027363
v -0.00666315 -0.01803854 -0.30556154
v -0.01140804 -0.01441730 -0.30444785
v -0.01119452 -0.00803662 -0.30312081
v -0.00409693 -0.01358777 -0.31150510
v -0.00868332 -0.01791949 -0.30177515
v -0.00818882 -0.00803662 -0.30077433
v -0.00313361 -0.01385321 -0.31184496
v -0.00904572 -0.01678646 -0.30749957
v -0.00656395 -0.01441295 -0.31031139
v -0.01068841 -0.01629876 -0.30543619
v -0.00626815 -0.01775029 -0.30898129
v -0.00446121 -0.01688226 -0.31104395
v -0.00873883 -0.00803662 -0.30041140
v -0.00053544 -0.01317085 -0.31224078
v -0.00758160 -0.01654366 -0.30921517
v -0.00912897 -0.01782257 -0.30353919
v -0.01208001 -0.00909206 -0.30204625
v -0.01129023 -0.01429377 -0.30469374
v -0.00003104 -0.01470871 -0.31224871
v -0.01210672 -0.01174648 -0.30174939
v -0.00287328 -0.01137800 -0.31190688
v -0.01026337 -0.00838892 -0.30670588
v -0.00323388 -0.01492490 -0.31181711
v -0.00331748 -0.01415870 -0.31179564
v -0.01008875 -0.01596719 -0.30661364
v -0.01177978 -0.01110889 -0.30335105
v -0.00173355 -0.01547948 -0.31205238
v -0.01084735 -0.01537299 -0.30555799
v -0.01079099 -0.01515971 -0.30573580
v -0.01143597 -0.00803662 -0.30040122
v -0.00917793 -0.01589847 -0.30786874
v -0.00236759 -0.00809473 -0.31182973
v -0.00062479 -0.00832789 -0.30771096
v -0.01213234 -0.00989569 -0.30171690
v -0.00096463 -0.00803662 -0.30966190
v -0.00625420 -0.01754970 -0.30939887
f 4 72 67
f 67 72 55
f 55 72 18
f 18 60 55
f 70 72 4
f 4 67 73
f 67 86 73
f 35 57 69
f 59 70 4
f 43 69 11
f 11 69 70
f 11 59 43
f 70 59 11
f 70 69 7
f 7 69 57
f 7 57 60
f 58 69 43
f 43 59 58
f 55 60 92
f 92 22 55
f 60 65 92
f 55 22 29
f 22 106 29
f 29 67 55
f 29 106 67
f 76 53 95
f 95 53 44
f 53 76 44
f 76 48 44
f 70 30 78
f 60 18 78
f 78 18 72
f 72 70 78
f 89 30 70
f 70 7 89
f 4 76 90
f 90 76 95
f 32 58 59
f 31 68 100
f 31 92 65
f 65 68 31
f 35 69 83
f 69 58 83
f 57 109 84
f 84 109 65
f 60 57 84
f 84 65 60
f 28 82 52
f 62 8 6
f 82 8 62
f 79 34 86
f 106 34 79
f 79 86 67
f 67 106 79
f 108 73 86
f 86 34 108
f 4 73 103
f 103 76 4
f 28 44 71
f 71 44 48
f 105 28 71
f 1 30 60
f 60 78 1
f 1 78 30
f 74 7 60
f 74 89 7
f 60 30 74
f 30 89 74
f 75 5 37
f 107 59 4
f 4 90 107
f 14 90 95
f 95 5 14
f 14 32 99
f 5 32 14
f 41 5 75
f 41 32 5
f 75 58 41
f 58 32 41
f 59 107 93
f 99 32 33
f 33 14 99
f 90 14 33
f 33 107 90
f 33 93 107
f 33 32 59
f 59 93 33
f 22 92 61
f 92 31 61
f 54 28 105
f 22 45 54
f 12 38 54
f 35 83 42
f 42 83 98
f 102 98 101
f 98 83 101
f 75 102 101
f 101 58 75
f 101 83 58
f 20 3 102
f 95 10 20
f 6 42 104
f 104 42 98
f 63 98 102
f 102 3 63
f 63 104 98
f 63 3 6
f 6 104 63
f 65 109 85
f 109 66 85
f 85 68 65
f 81 57 35
f 81 109 57
f 35 42 81
f 81 42 6
f 6 8 88
f 13 66 88
f 88 8 13
f 100 68 96
f 28 21 26
f 26 21 50
f 28 52 17
f 24 10 17
f 17 44 28
f 95 44 17
f 17 10 95
f 49 48 76
f 49 71 48
f 49 54 105
f 22 54 49
f 46 10 24
f 3 20 46
f 46 20 10
f 24 62 46
f 91 102 75
f 75 37 91
f 91 37 102
f 102 37 16
f 95 20 16
f 16 20 102
f 16 5 95
f 16 37 5
f 9 31 100
f 9 45 31
f 9 54 45
f 12 54 9
f 87 45 22
f 31 45 87
f 28 54 39
f 39 21 28
f 39 54 38
f 19 66 13
f 13 85 19
f 19 85 66
f 56 88 66
f 56 66 109
f 109 81 56
f 56 81 6
f 6 88 56
f 97 96 50
f 50 21 97
f 2 8 82
f 2 82 28
f 28 26 2
f 8 2 25
f 25 2 26
f 23 62 24
f 24 17 23
f 76 103 36
f 36 49 76
f 73 108 36
f 36 103 73
f 36 108 34
f 36 34 106
f 36 106 22
f 22 49 36
f 105 71 47
f 47 49 105
f 71 49 47
f 40 62 6
f 40 46 62
f 6 3 40
f 3 46 40
f 96 97 80
f 80 38 12
f 64 25 26
f 64 85 13
f 13 8 64
f 8 25 64
f 68 85 64
f 64 96 68
f 38 80 94
f 94 80 97
f 77 26 50
f 77 64 26
f 50 96 77
f 96 64 77
f 82 51 15
f 15 23 17
f 62 23 15
f 15 51 62
f 82 62 27
f 27 51 82
f 62 51 27
f 22 61 87
f 87 61 31
f 80 9 100
f 100 96 80
f 12 9 80
f 94 97 21
f 94 39 38
f 21 39 94
f 15 17 52
f 15 52 82

