# https://github.com/mikedh/trimesh
v 0.03103596 0.01753214 0.01050001
v 0.02162127 0.04967676 0.02042404
v 0.02916826 0.03551023 0.02432832
v 0.00001698 0.04808752 0.02212684
v 0.01404313 0.03095149 0.02932271
v 0.03103592 0.04995231 0.01183041
v 0.02856663 0.04755603 0.02065601
v 0.00046113 0.04985232 0.02121597
v 0.01466711 0.02084439 0.03310248
v 0.02820834 0.04527022 0.02173169
v 0.02115271 0.00529694 0.03651551
v 0.02815545 0.03480980 0.02555694
v 0.02868116 0.04434649 0.02191183
v 0.01374866 0.01036599 0.03692785
v 0.02893661 0.04646668 0.02094755
v 0.03084904 0.04882449 0.01651648
v 0.00718652 0.04485923 0.02361972
v 0.02622939 0.01576401 0.03183747
v 0.00691458 0.00984371 0.03804057
v 0.02711269 0.04151705 0.02339459
v 0.02864672 0.00879630 0.03079116
v 0.02783650 0.02005228 0.02983795
v 0.00747197 0.00821561 0.03855594
v 0.02890237 0.04434434 0.02178945
v 0.02235833 0.04376356 0.02308038
v 0.00733571 0.00947006 0.03813035
v 0.00665514 0.02475060 0.03244081
v 0.02851162 0.04620066 0.02127162
v 0.02942798 0.04506558 0.02084124
v 0.01100051 0.04971228 0.02106200
v 0.02538670 0.00730463 0.03439584
v 0.02920637 0.04775194 0.02013282
v 0.02074596 0.03724096 0.02598039
v 0.02698917 0.01521143 0.03161748
v 0.02815950 0.00759685 0.03209608
v 0.02578933 0.01462395 0.03232180
v 0.02662325 0.00534558 0.03412715
v 0.01758637 0.00570578 0.03759343
v 0.02820390 0.01316393 0.03093719
v 0.02848882 0.04652978 0.02113084
v 0.01500124 0.04980467 0.02082577
v 0.02805336 0.03661781 0.02500273
v 0.00757209 0.03158836 0.02958759
v 0.02855541 0.00510122 0.03109392
v 0.00102079 0.00530363 0.03996083
v 0.01404745 0.02458605 0.03179996
v 0.01718670 0.00548630 0.03776300
v 0.01434020 0.03041212 0.02950746
v 0.03103597 0.02431427 0.01485944
v 0.02838361 0.04534313 0.02165957
v 0.01479210 0.03746554 0.02655112
v 0.02883913 0.04763844 0.02049878
v 0.02807140 0.00014699 0.00405539
v 0.02854277 0.02518765 0.02789981
v 0.01095145 0.00000000 0.02603696
v 0.02229422 0.00570445 0.03609576
v 0.00690305 0.01737023 0.03528093
v 0.02893813 0.03401348 0.02508985
v 0.00664937 0.03679383 0.02737950
v 0.00261720 0.04355199 0.02435983
v 0.02647593 0.01930094 0.03079421
v 0.02749252 0.04613554 0.02144567
v 0.00436585 0.03105402 0.02994379
v 0.02760999 0.03654705 0.02515556
v 0.00544870 0.00000000 0.02752745
v 0.01371719 0.04986927 0.02086335
v 0.00571091 0.03113080 0.02986316
v 0.01439683 0.00523278 0.03840902
v 0.02579853 0.03719404 0.02525173
v 0.02881018 0.04088897 0.02311853
v 0.03042154 0.04997301 0.01689773
v 0.00616643 0.00614730 0.03941412
v 0.02767678 0.04955270 0.01987772
v 0.01469913 0.00702885 0.03785173
v 0.00045761 0.03635146 0.02775485
v 0.02293733 0.00006789 0.01689806
v 0.01282573 0.03093010 0.02943268
v 0.02841964 0.01891338 0.02943010
v 0.00895930 0.04977193 0.02111728
v 0.01861295 0.01823238 0.03330664
v 0.01583329 0.00542226 0.03808999
v 0.00190869 0.00555180 0.03987474
v 0.00684045 0.01756181 0.03521367
v 0.02875807 0.02763482 0.02700123
v 0.02891713 0.04077720 0.02310857
v 0.02838719 0.02290079 0.02861441
v 0.02190883 0.00852754 0.03542455
v 0.01492134 0.01075652 0.03657662
v 0.01437669 0.04314290 0.02407234
v 0.03103594 0.04813186 0.01349906
v 0.02209277 0.02517467 0.03020934
v 0.03103579 0.01499133 0.00014996
v 0.00718268 0.01201897 0.03723623
v 0.02658630 0.01954186 0.03067830
v 0.01453710 0.04955286 0.02098607
v 0.00742593 0.02359629 0.03285365
v 0.01288381 0.04340562 0.02403388
v 0.01433615 0.00596696 0.03826721
v 0.03103595 0.03154537 0.01212115
v 0.02918254 0.03296087 0.02488599
v 0.01100537 0.00527057 0.03898725
v 0.01823391 0.00551313 0.03744777
v 0.02891383 0.03961913 0.02348463
v 0.00575914 0.00595544 0.03951392
v 0.00742686 0.01796848 0.03502753
v 0.00764182 0.03711112 0.02719505
v 0.02779151 0.02696290 0.02806125
v 0.03103595 0.04731212 0.01635417
v 0.01446118 0.04255681 0.02432587
v 0.01197207 0.00527040 0.03884411
v 0.02389051 0.00622883 0.03529986
v 0.02694332 0.03515109 0.02577455
v 0.00815674 0.03732032 0.02707294
v 0.02871098 0.04487968 0.02170160
v 0.02014781 0.00546201 0.03683764
v 0.00732428 0.02043721 0.03408786
v 0.02207576 0.01891793 0.03225543
v 0.02764162 0.01596563 0.03098475
v 0.00571192 0.00000000 0.02765495
v 0.02650399 0.01741671 0.03128232
v 0.02871310 0.02085571 0.02850701
v 0.01435592 0.00003290 0.02453214
v 0.00023992 0.03101332 0.03010464
v 0.03103595 0.04552244 0.01710579
v 0.03103594 0.04985878 0.01550828
v 0.02381371 0.00519246 0.03549830
v 0.00831266 0.00562759 0.03935420
v 0.03022804 0.00742201 0.00014058
v 0.02821901 0.01325847 0.03089182
v 0.02573127 0.00566464 0.03461789
v 0.01804617 0.01815262 0.03345751
v 0.02170966 0.02839398 0.02915670
v 0.02738523 0.02780258 0.02799888
v 0.01911736 0.00504383 0.03696244
v 0.01451360 0.03481229 0.02768699
v 0.02860973 0.04947235 0.01979396
v 0.02850566 0.01672638 0.02970136
v 0.01195789 0.04354787 0.02401666
v 0.00004751 0.02804927 0.03136228
v 0.01429382 0.03838530 0.02618813
v 0.02823512 0.01453464 0.03061289
v 0.01604164 0.00545998 0.03803637
v 0.00359283 0.00547264 0.03978533
v 0.02907888 0.04122711 0.02275525
v 0.01344495 0.03725338 0.02674973
v 0.02863702 0.01412653 0.02992375
v 0.01922535 0.04990492 0.02047546
v 0.02097131 0.03623562 0.02636513
v 0.00000357 0.04395070 0.02422028
v 0.01063910 0.00524922 0.03903595
v 0.02879110 0.02998488 0.02635061
v 0.03103592 0.04829600 0.01082678
v 0.02825050 0.03796390 0.02443797
v 0.02747654 0.01124076 0.03217892
v 0.01389424 0.00535238 0.03853349
v 0.00715051 0.02523356 0.03222495
v 0.03043597 0.04757092 0.00014110
v 0.02776390 0.02791763 0.02779294
v 0.02306859 0.00005143 0.01667371
v 0.02588845 0.03263674 0.02685542
v 0.02472476 0.00520162 0.03511586
v 0.01557836 0.04342324 0.02384340
v 0.00172035 0.00199999 0.00007803
v 0.02391117 0.00000362 0.01284225
v 0.02813098 0.03898034 0.02411499
v 0.02648015 0.00806041 0.03364482
v 0.02907225 0.00561916 0.02805306
v 0.02252837 0.00535303 0.03607054
v 0.00743217 0.01384167 0.03654763
v 0.02782615 0.02552131 0.02845530
v 0.02717669 0.03709294 0.02504322
v 0.02003052 0.00559681 0.03687530
v 0.00536919 0.00000000 0.02747961
v 0.02895388 0.04163089 0.02277395
v 0.00705392 0.03777391 0.02692854
v 0.00288185 0.03101316 0.03001318
v 0.02870262 0.02693139 0.02725907
v 0.01882736 0.03713029 0.02624290
v 0.03103595 0.02851425 0.01124624
v 0.02856240 0.02727535 0.02736469
v 0.00545430 0.00003392 0.02780971
v 0.00004185 0.02898243 0.03096870
v 0.02296187 0.00593427 0.03576336
v 0.02816538 0.03011756 0.02694451
v 0.00724090 0.01280875 0.03694247
v 0.02743476 0.03639056 0.02524681
v 0.01426231 0.03708308 0.02676604
v 0.01393173 0.04952021 0.02103359
v 0.02771901 0.04454424 0.02209477
v 0.02904407 0.04713805 0.02057278
v 0.02761108 0.03561944 0.02546117
v 0.03103594 0.04963872 0.01433510
v 0.03043597 0.04988877 0.00127304
v 0.00687021 0.03089325 0.02992396
v 0.01124787 0.03100226 0.02953420
v 0.01872651 0.04962616 0.02065686
v 0.02603913 0.03263412 0.02682092
v 0.01392632 0.04329903 0.02402662
v 0.01456538 0.01857842 0.03394314
v 0.01501254 0.01830206 0.03396953
v 0.01996256 0.00525994 0.03689297
v 0.02159405 0.03891841 0.02518997
v 0.03102149 0.01124796 0.00361129
v 0.01460075 0.02061530 0.03319512
v 0.00710276 0.01134493 0.03748575
v 0.02836621 0.04546572 0.02161369
v 0.03043597 0.04627501 0.00005002
v 0.02219589 0.03192363 0.02781699
v 0.02463129 0.03679879 0.02559643
v 0.00449496 0.00553906 0.03971898
v 0.02904376 0.04476421 0.02151333
v 0.00046843 0.01770544 0.03548815
v 0.02929295 0.04384168 0.02152581
v 0.02875794 0.03350171 0.02548204
v 0.02826581 0.04361593 0.02236687
v 0.02896272 0.04689351 0.02074768
v 0.02542557 0.01151791 0.03329212
v 0.02767247 0.00501384 0.03247049
v 0.02929470 0.04152414 0.02233672
v 0.02923496 0.03360585 0.02461814
v 0.01462613 0.01488143 0.03522386
v 0.02817993 0.04885964 0.02014054
v 0.01563494 0.00576906 0.03805372
v 0.02658880 0.02145563 0.03013667
v 0.00864035 0.03108420 0.02971651
v 0.00750694 0.04984376 0.02114106
v 0.00304331 0.03685884 0.02745702
v 0.00240563 0.00542511 0.03986691
v 0.02548561 0.00003860 0.01255183
v 0.02193836 0.01210829 0.03437573
v 0.01485199 0.03097539 0.02923212
v 0.02877728 0.00523703 0.03023776
v 0.01451802 0.02320866 0.03225568
v 0.01795246 0.00528179 0.03753658
v 0.00716441 0.04957564 0.02129166
v 0.02901513 0.00573400 0.02902539
v 0.01018618 0.00527959 0.03910837
v 0.02626059 0.01650710 0.03162907
v 0.00001760 0.04043237 0.02586845
v 0.01901003 0.00000000 0.01981826
v 0.02772005 0.03191155 0.02663159
v 0.02648660 0.01834665 0.03104364
v 0.01438862 0.04539203 0.02300129
v 0.02841265 0.02495610 0.02812901
v 0.02864813 0.02533062 0.02772259
v 0.02578473 0.00517740 0.03459101
v 0.00114988 0.00000043 0.02846445
v 0.01878978 0.00622809 0.03709381
v 0.00731493 0.04298918 0.02451812
v 0.01451827 0.03656371 0.02696157
v 0.02729510 0.03580135 0.02547665
v 0.00077257 0.01742882 0.03557872
v 0.03101844 0.01705394 0.01034505
v 0.00002498 0.04721129 0.02257352
v 0.02244693 0.04372905 0.02308647
v 0.03098976 0.00932768 0.00037682
v 0.02512714 0.00590699 0.03486518
v 0.01429279 0.04356912 0.02388280
v 0.00172120 0.04395054 0.02418505
v 0.03101742 0.03703385 0.01810268
v 0.02828326 0.02046846 0.02927722
v 0.02772723 0.01606736 0.03088426
v 0.02736855 0.03057029 0.02718312
v 0.02874627 0.00570758 0.03070199
v 0.02858343 0.02228266 0.02847272
v 0.02735580 0.04518471 0.02187524
v 0.00756531 0.00505761 0.03934154
v 0.02687607 0.00543452 0.03392198
v 0.00597244 0.04355018 0.02429163
v 0.02584048 0.01268196 0.03281640
v 0.02812900 0.00514587 0.03237756
v 0.00095194 0.03105476 0.03006253
v 0.02805439 0.01728684 0.03024496
v 0.02380684 0.00579867 0.03544480
v 0.00768051 0.01074082 0.03764091
v 0.01761650 0.01817103 0.03353140
v 0.00087014 0.02719827 0.03168301
v 0.00137038 0.00560524 0.03989277
v 0.00000749 0.04271445 0.02480420
v 0.00384040 0.04999236 0.02110277
v 0.00730044 0.03966540 0.02605008
v 0.02843085 0.02370758 0.02837788
v 0.02862075 0.00521675 0.03124261
v 0.00751433 0.04378692 0.02413337
v 0.00009355 0.01720460 0.03569632
v 0.03103593 0.04972006 0.01365643
v 0.02126488 0.00556958 0.03647284
v 0.02863512 0.01513536 0.02975969
v 0.01975658 0.00548449 0.03696251
v 0.03103004 0.02160700 0.01353408
v 0.01436233 0.04155281 0.02477879
v 0.01710203 0.00507920 0.03767806
v 0.01315811 0.00551303 0.03864192
v 0.03103593 0.04469793 0.01219989
v 0.02742641 0.00639112 0.03328591
v 0.02804392 0.03270423 0.02623800
v 0.00004975 0.00546660 0.04000511
v 0.02883944 0.04880748 0.01999100
v 0.02191288 0.01993137 0.03196440
v 0.00015841 0.01797704 0.03539482
v 0.00741711 0.02516561 0.03223719
v 0.01832814 0.03147616 0.02859301
v 0.01420183 0.04998922 0.02077887
v 0.02652229 0.01485412 0.03194475
v 0.02832356 0.00510842 0.03176747
v 0.02664626 0.01491995 0.03187215
v 0.02668803 0.01140504 0.03271914
v 0.02109008 0.03688867 0.02608684
v 0.03103581 0.01252674 0.00004497
v 0.01789876 0.00546636 0.03755394
v 0.02172110 0.03704054 0.02594630
v 0.00737345 0.03420236 0.02847315
v 0.02902173 0.03735468 0.02405252
v 0.01466440 0.04353852 0.02387042
v 0.02935645 0.04739630 0.02006683
v 0.02120155 0.00565128 0.03648251
v 0.02826841 0.02483848 0.02829840
v 0.00915460 0.04360720 0.02413547
v 0.00529200 0.00569828 0.03963552
v 0.03043597 0.04994977 0.00285356
v 0.02735099 0.00840459 0.03290829
v 0.02758098 0.00528464 0.03324677
v 0.00650741 0.00000000 0.02714979
v 0.02835933 0.01685169 0.02994324
v 0.02846547 0.04941644 0.01984727
v 0.03043597 0.04949622 0.00067923
v 0.02066751 0.03548134 0.02670511
v 0.00724895 0.01541288 0.03598343
v 0.00093611 0.00531975 0.03996544
v 0.00298951 0.04418092 0.02404674
v 0.02652177 0.00000773 0.01006507
v 0.01391732 0.00541978 0.03852630
v 0.01851256 0.00000000 0.02055136
v 0.01330350 0.00957880 0.03726855
v 0.02295898 0.03716802 0.02571003
v 0.03043597 0.03826458 0.00000814
v 0.02816581 0.03798256 0.02446430
v 0.01966337 0.00199999 0.00000774
v 0.02923024 0.04323845 0.02183761
v 0.01458464 0.02195847 0.03270585
v 0.02878018 0.04041575 0.02330522
v 0.02869810 0.03934327 0.02373471
v 0.00013209 0.04868927 0.02181714
v 0.03103597 0.03076342 0.01709717
v 0.02680859 0.02384096 0.02936862
v 0.01507473 0.00676175 0.03785928
v 0.00636197 0.03716254 0.02722862
v 0.02531520 0.00603727 0.03474427
v 0.01657122 0.04965576 0.02079324
v 0.00869749 0.04994493 0.02103687
v 0.00693256 0.04371015 0.02419109
v 0.02865384 0.03568060 0.02495573
v 0.02622266 0.00580242 0.03433061
v 0.03103577 0.01415831 0.00007814
v 0.01465494 0.01399819 0.03552596
v 0.00675491 0.03660683 0.02745721
v 0.03103594 0.01360622 0.00546874
v 0.00016390 0.03416440 0.02872418
v 0.00041744 0.00000001 0.02847252
v 0.02931736 0.04374578 0.02151427
v 0.02415701 0.04439945 0.02259704
v 0.00354550 0.00574929 0.03971886
v 0.01447812 0.03597605 0.02720916
v 0.02888195 0.02604101 0.02712021
v 0.00001650 0.00099051 0.02724814
v 0.02875232 0.04722618 0.02072822
v 0.00839923 0.00000000 0.02715829
v 0.02667000 0.02100750 0.03023662
v 0.03103593 0.01550769 0.00450412
v 0.03034610 0.04998038 0.01704178
v 0.02755732 0.01500387 0.03127065
v 0.03103597 0.02628860 0.01516815
v 0.02157763 0.04264203 0.02364469
v 0.02763338 0.01436959 0.03135368
v 0.03103595 0.04685861 0.01663739
v 0.02897160 0.02606546 0.02689770
v 0.02772366 0.02448151 0.02878781
v 0.01724279 0.00694452 0.03729009
v 0.02674487 0.04966781 0.01992004
v 0.00727730 0.01419286 0.03643106
v 0.01453110 0.02505941 0.03156637
v 0.02495176 0.00507537 0.03490232
v 0.02902021 0.03167316 0.02554822
v 0.02881825 0.00547866 0.03019393
v 0.01426754 0.01137905 0.03649282
v 0.02470817 0.04987306 0.02003352
v 0.02820175 0.02301801 0.02879539
v 0.00279630 0.00562825 0.03980346
v 0.01102590 0.00634845 0.03874624
v 0.02901705 0.03817999 0.02380903
v 0.02877067 0.02647278 0.02728257
v 0.01489043 0.00983757 0.03688744
v 0.01468266 0.02459773 0.03172143
v 0.02890796 0.03787131 0.02405295
v 0.00386657 0.02597965 0.03205736
v 0.01437332 0.02448561 0.03180364
v 0.01645900 0.00002568 0.02306666
v 0.02043901 0.03101847 0.02843617
v 0.02807740 0.04227055 0.02293916
v 0.02805447 0.03412222 0.02581220
v 0.03103596 0.04175409 0.01776931
v 0.02792259 0.00501652 0.03217666
v 0.00928029 0.04349226 0.02418401
v 0.00720108 0.04668822 0.02271680
v 0.02189918 0.00623648 0.03608548
v 0.02173578 0.04315205 0.02341005
v 0.01083251 0.00568402 0.03900080
v 0.01220310 0.00547869 0.03880820
v 0.03103596 0.04046023 0.01793565
v 0.02824734 0.02409308 0.02849625
v 0.00697978 0.03204368 0.02942355
v 0.00702911 0.03445364 0.02838006
v 0.02192314 0.01098523 0.03470992
v 0.01184635 0.00559500 0.03884941
v 0.02921186 0.03091442 0.02526031
v 0.02761039 0.04354680 0.02252040
v 0.03103384 0.02061060 0.01291326
v 0.01939521 0.03316899 0.02778551
v 0.03103597 0.02710175 0.01606059
v 0.03103595 0.04624951 0.01689016
v 0.02868213 0.01896981 0.02894117
v 0.02442238 0.00676681 0.03493990
v 0.01956600 0.04338122 0.02351411
v 0.02684242 0.01553643 0.03162321
v 0.02779250 0.01851811 0.03024573
v 0.00027653 0.00002620 0.02721884
v 0.00027904 0.04444593 0.02397403
v 0.01449041 0.02803606 0.03041596
v 0.00736617 0.02915949 0.03061033
v 0.02154091 0.04937353 0.02058151
v 0.00613518 0.01781697 0.03515648
v 0.00689108 0.00505857 0.03943973
v 0.03103592 0.04903974 0.01090021
v 0.02603985 0.00006842 0.01155431
v 0.02874163 0.04625632 0.02115365
v 0.00005712 0.02071577 0.03430553
v 0.02566235 0.01246374 0.03294668
v 0.01466441 0.04988142 0.02080925
v 0.02862071 0.01772351 0.02929682
v 0.02241033 0.00500663 0.03571522
v 0.02837204 0.02456386 0.02826221
v 0.03103124 0.01525046 0.00003987
v 0.02758645 0.03726603 0.02490666
v 0.01736810 0.00572632 0.03764710
v 0.00700639 0.00574846 0.03947140
v 0.02884171 0.03396337 0.02525650
v 0.02912394 0.03932018 0.02330394
v 0.02932940 0.04894384 0.01945917
v 0.00746105 0.02435065 0.03255715
v 0.02372295 0.04982498 0.02015514
v 0.02399700 0.00530965 0.03544838
v 0.02499237 0.03037048 0.02781537
v 0.01012917 0.00697390 0.03864817
v 0.00018121 0.02471481 0.03270165
v 0.02658101 0.00587776 0.03406967
v 0.00215099 0.00523733 0.03988216
v 0.02700496 0.02489930 0.02898732
v 0.02566712 0.03833648 0.02484636
v 0.00838366 0.00574545 0.03930746
v 0.00024856 0.04332000 0.02451572
v 0.03043597 0.04920831 0.00052966
v 0.02607638 0.03910928 0.02448465
v 0.00678380 0.04981551 0.02117518
v 0.02859117 0.03704608 0.02458418
v 0.02924636 0.04891099 0.01959790
v 0.02180308 0.02877966 0.02900313
v 0.02915562 0.02575122 0.02650312
v 0.01447554 0.01071011 0.03668232
v 0.02956471 0.04774603 0.01952553
v 0.01369326 0.00554892 0.03852998
v 0.02819340 0.04835390 0.02036818
v 0.00002489 0.03735430 0.02730384
v 0.02538364 0.00739394 0.03437531
v 0.03103593 0.01152640 0.00368327
v 0.00724018 0.00535251 0.03954208
v 0.02887353 0.04515143 0.02150396
v 0.02865959 0.00686852 0.03104945
v 0.00142110 0.00501331 0.03961571
v 0.02712433 0.00000000 0.00284685
v 0.02909561 0.04107407 0.02278668
v 0.03103592 0.04948839 0.01130289
v 0.02629267 0.00593879 0.03426037
v 0.02785159 0.02117385 0.02955243
v 0.02873347 0.04860239 0.02013426
v 0.00496075 0.00503760 0.03949688
v 0.01826396 0.03088940 0.02883028
v 0.00000663 0.02278617 0.03348050
v 0.00943504 0.00744168 0.03857554
v 0.02901107 0.03828895 0.02378259
v 0.03103592 0.00962724 0.00056649
v 0.02751487 0.02425265 0.02895005
v 0.03103593 0.01173633 0.00401966
v 0.00294462 0.00561658 0.03979772
v 0.02472085 0.00565697 0.03509748
v 0.02860322 0.00656956 0.03124610
v 0.02869458 0.03162485 0.02606214
v 0.02904425 0.00527293 0.02674827
v 0.01405073 0.04967958 0.02094954
v 0.02838318 0.00001856 0.00089616
v 0.02682953 0.01383094 0.03205237
v 0.01474521 0.01837640 0.03399205
v 0.02208828 0.04338148 0.02327443
v 0.00059847 0.00000000 0.02826112
v 0.00001081 0.00200000 0.02157761
v 0.02827893 0.02570696 0.02808062
v 0.02762003 0.03365757 0.02610125
v 0.03103597 0.03830452 0.01773044
v 0.02159018 0.03873244 0.02526765
v 0.00025548 0.02775723 0.03147582
v 0.03103593 0.01649970 0.00372522
v 0.02922638 0.04467061 0.02133467
v 0.02105932 0.00502719 0.03626223
v 0.00085557 0.04345477 0.02444084
v 0.00726521 0.04157784 0.02517154
v 0.02449904 0.03595610 0.02593479
v 0.03103597 0.03688612 0.01756873
v 0.00531016 0.03094501 0.02995687
v 0.02926271 0.03935419 0.02305755
v 0.02842234 0.01999749 0.02919912
v 0.03103596 0.01853803 0.01108048
v 0.00267932 0.00552399 0.03983544
v 0.02476344 0.03665315 0.02563167
v 0.02868769 0.00587802 0.03103819
v 0.03102662 0.01877045 0.01166748
v 0.03103590 0.00988754 0.00016966
v 0.02642873 0.00660846 0.03401848
v 0.01004563 0.00589467 0.03904110
v 0.03101719 0.03895309 0.01806677
v 0.02912023 0.04111026 0.02274098
v 0.01457061 0.03126730 0.02914687
v 0.00504315 0.02547184 0.03221534
v 0.01152400 0.02461512 0.03204497
v 0.02721705 0.00012032 0.00793967
v 0.02885176 0.04376887 0.02203495
v 0.01436844 0.03104830 0.02925366
v 0.03103596 0.02083866 0.01304336
v 0.02880254 0.02650590 0.02721141
v 0.02876795 0.03562975 0.02487431
v 0.00456780 0.00557298 0.03970951
v 0.00737652 0.03767279 0.02696283
v 0.01437790 0.03673196 0.02690345
v 0.02827226 0.01769079 0.02991042
v 0.02728467 0.02940958 0.02758609
v 0.00692980 0.01001085 0.03797997
v 0.02838025 0.03615758 0.02504393
v 0.03095885 0.04311496 0.01780922
v 0.02748773 0.00541539 0.03339031
v 0.02590049 0.03091742 0.02742009
v 0.02611955 0.04518343 0.02202926
v 0.02846658 0.00254602 0.00005225
v 0.01364120 0.04966073 0.02097694
v 0.00743481 0.00713630 0.03894035
v 0.02584951 0.03039200 0.02760545
v 0.00032147 0.00000000 0.02815637
v 0.03103594 0.01272315 0.00546331
v 0.02182692 0.02155049 0.03145664
v 0.02864760 0.02441238 0.02792365
v 0.02888629 0.00522781 0.02945078
v 0.02154057 0.03809586 0.02553619
v 0.00019387 0.00584834 0.03987838
v 0.02767782 0.00537299 0.03314038
v 0.02318717 0.02725583 0.02926665
v 0.00281278 0.02637925 0.03193793
v 0.02918730 0.04815240 0.01998481
v 0.03103594 0.01333278 0.00607829
v 0.02832596 0.03416074 0.02566311
v 0.02385448 0.00503486 0.03522785
v 0.01322803 0.04997478 0.02082832
v 0.00033439 0.00199999 0.00044186
v 0.02152506 0.04664914 0.02183860
v 0.00717341 0.02257339 0.03326616
v 0.00934716 0.00808430 0.03836058
v 0.03103597 0.03771030 0.01769175
v 0.00718328 0.01635065 0.03564165
v 0.00027071 0.04512766 0.02363021
v 0.02911813 0.03321580 0.02498655
v 0.03099127 0.04840946 0.01639412
v 0.01253092 0.04355141 0.02398463
v 0.02393920 0.03716569 0.02556198
v 0.00754805 0.01153812 0.03737733
v 0.00003461 0.00499991 0.03641664
v 0.02732696 0.03035914 0.02726352
v 0.00700052 0.02457667 0.03249663
v 0.00717274 0.00568749 0.03947641
v 0.02644951 0.01981139 0.03066212
v 0.01726672 0.00717252 0.03721071
v 0.02714880 0.02951012 0.02758602
v 0.02904508 0.02591929 0.02674865
v 0.01989415 0.00004069 0.02022193
v 0.02776070 0.00628204 0.03287171
v 0.00713047 0.00563770 0.03949682
v 0.02619298 0.03945150 0.02433503
v 0.01030636 0.00562325 0.03909204
v 0.02907000 0.03830314 0.02369405
v 0.02227788 0.04998310 0.02020490
v 0.02853281 0.02803123 0.02721112
v 0.02821156 0.00571372 0.03233331
v 0.02149255 0.03757971 0.02575459
v 0.02162320 0.04985369 0.02033112
v 0.02675944 0.01251229 0.03241114
v 0.02805597 0.02565949 0.02829432
v 0.03103595 0.04701387 0.01608973
v 0.02760026 0.00543906 0.03323453
v 0.01379571 0.04957364 0.02101358
v 0.02563132 0.00504130 0.03447342
v 0.01066599 0.00634124 0.03879924
v 0.02772890 0.04327511 0.02261488
v 0.02150483 0.04541186 0.02240988
v 0.00745270 0.01174272 0.03731751
v 0.03103594 0.04899056 0.01598222
v 0.03103593 0.04530228 0.01245449
v 0.02724547 0.00112635 0.00004018
v 0.01799702 0.04342740 0.02363137
v 0.02727669 0.00000000 0.00048078
v 0.00725677 0.03060017 0.03003022
v 0.01334849 0.00502607 0.03836761
v 0.02606929 0.01248845 0.03276241
v 0.00002876 0.01515076 0.03645752
v 0.02125247 0.00522082 0.03646745
v 0.02907533 0.00574408 0.02814823
v 0.00017473 0.03322496 0.02913642
v 0.02806741 0.01522222 0.03068019
v 0.00686124 0.04316369 0.02445127
v 0.02782226 0.03941571 0.02405922
v 0.01453000 0.03940912 0.02571693
v 0.00148645 0.02685260 0.03179936
v 0.02593184 0.01362537 0.03252892
v 0.02860472 0.04537778 0.02156905
v 0.02164837 0.03697820 0.02598100
v 0.03103597 0.03552714 0.01785953
v 0.00705594 0.02500113 0.03232312
v 0.02190876 0.01832189 0.03248856
v 0.02913705 0.03448924 0.02463934
v 0.02202083 0.02543367 0.03013416
v 0.02878895 0.03352133 0.02544334
v 0.02678159 0.01505714 0.03177508
v 0.02802319 0.02809137 0.02761433
v 0.00443928 0.01797974 0.03518407
v 0.03101188 0.03186269 0.01754060
v 0.00424985 0.04377629 0.02421740
v 0.00004171 0.00744056 0.03930010
v 0.02915098 0.02625761 0.02642128
v 0.03103594 0.01337315 0.00592375
v 0.02898485 0.04244766 0.02243693
v 0.01123563 0.00520775 0.03893452
v 0.02895185 0.00551708 0.02934451
v 0.03103593 0.01746038 0.00430194
v 0.02885446 0.03694728 0.02439559
v 0.00002479 0.00199999 0.00100611
v 0.00714663 0.04252388 0.02473994
v 0.02634381 0.01758439 0.03130999
v 0.02561159 0.01127591 0.03327927
v 0.01212859 0.04999226 0.02086585
v 0.00516639 0.04379791 0.02418790
v 0.00742643 0.02008634 0.03421353
v 0.00728931 0.00592122 0.03938272
v 0.02771211 0.01567247 0.03098894
v 0.03103595 0.01476338 0.00800937
v 0.03103596 0.04275817 0.01762441
v 0.00029001 0.03655040 0.02767194
v 0.02820841 0.03172601 0.02644705
v 0.02959392 0.04944942 0.01873410
v 0.01653458 0.03712781 0.02650138
v 0.02085457 0.00524629 0.03660368
v 0.02207812 0.03119658 0.02810012
v 0.02680875 0.01491795 0.03179570
v 0.00021605 0.00000001 0.02832134
v 0.02723375 0.00041911 0.00014425
v 0.01441570 0.04663094 0.02240256
v 0.02375550 0.00551462 0.03553058
v 0.02175121 0.04374443 0.02315325
v 0.00012232 0.00057315 0.02849746
v 0.02143606 0.00570007 0.03639443
v 0.02807595 0.04318034 0.02260347
v 0.01750674 0.04955992 0.02077693
v 0.02924464 0.03686956 0.02382584
v 0.03103595 0.04716309 0.01629409
v 0.01446052 0.04477465 0.02329284
v 0.02912938 0.03547600 0.02440143
f 4 649 149
f 207 157 442
f 163 157 207
f 326 8 193
f 343 8 649
f 649 4 343
f 207 442 336
f 338 163 336
f 336 163 207
f 326 433 461
f 433 442 461
f 461 442 157
f 461 8 326
f 641 581 297
f 487 581 641
f 297 581 365
f 649 667 365
f 365 581 487
f 485 478 247
f 247 181 616
f 612 163 338
f 338 336 612
f 612 336 442
f 6 193 320
f 326 193 6
f 520 536 1
f 159 333 331
f 589 333 159
f 49 520 419
f 536 520 49
f 1 536 524
f 510 433 152
f 92 442 433
f 433 525 92
f 672 667 297
f 297 365 672
f 672 365 667
f 649 365 504
f 504 365 487
f 149 649 504
f 504 487 149
f 256 497 499
f 499 525 256
f 426 614 554
f 426 667 649
f 426 554 667
f 554 614 503
f 667 554 503
f 456 478 485
f 267 247 616
f 667 503 359
f 359 247 478
f 297 667 359
f 359 478 297
f 481 433 326
f 326 6 481
f 427 575 149
f 254 4 149
f 149 575 254
f 8 343 463
f 463 343 4
f 4 254 463
f 463 254 575
f 419 520 372
f 516 372 520
f 520 179 516
f 523 495 283
f 218 159 402
f 409 523 528
f 528 260 409
f 523 260 528
f 167 497 256
f 167 658 620
f 555 658 167
f 218 589 76
f 76 159 218
f 589 159 76
f 536 49 290
f 417 524 536
f 256 525 490
f 490 433 510
f 490 525 433
f 490 167 256
f 253 658 1
f 309 92 525
f 525 550 309
f 309 612 442
f 309 550 612
f 479 499 331
f 614 499 479
f 331 164 479
f 479 503 614
f 612 550 668
f 550 499 668
f 668 499 614
f 668 614 163
f 163 612 668
f 128 550 525
f 525 499 128
f 128 499 550
f 569 426 649
f 614 426 569
f 163 614 569
f 649 8 569
f 8 461 569
f 157 163 569
f 569 461 157
f 173 479 323
f 503 479 173
f 397 333 589
f 297 478 45
f 478 456 45
f 45 456 475
f 560 641 297
f 475 456 432
f 432 456 485
f 247 267 432
f 485 247 432
f 645 267 616
f 645 432 267
f 259 427 149
f 8 463 280
f 280 653 320
f 280 193 8
f 320 193 280
f 575 427 235
f 235 463 575
f 595 653 303
f 218 402 271
f 595 450 386
f 477 495 523
f 21 495 477
f 477 523 409
f 409 401 477
f 477 467 21
f 331 499 53
f 229 159 331
f 229 402 159
f 555 167 203
f 167 490 203
f 565 658 555
f 555 490 565
f 565 520 1
f 1 658 565
f 442 92 354
f 354 309 442
f 92 309 354
f 234 619 201
f 240 479 164
f 331 333 240
f 240 164 331
f 323 479 240
f 503 173 65
f 65 173 323
f 181 247 119
f 247 359 119
f 119 65 323
f 119 359 503
f 503 65 119
f 605 246 382
f 605 589 218
f 605 397 589
f 218 271 605
f 333 397 55
f 55 119 323
f 323 240 55
f 55 240 333
f 475 432 150
f 432 645 150
f 660 472 358
f 269 472 660
f 149 487 279
f 487 472 279
f 487 285 436
f 285 300 436
f 640 259 269
f 330 235 427
f 404 235 330
f 463 235 226
f 226 280 463
f 595 303 147
f 438 147 303
f 671 386 450
f 21 467 146
f 467 288 146
f 421 288 467
f 657 295 622
f 61 242 94
f 94 368 61
f 136 465 662
f 136 298 465
f 85 13 70
f 70 341 85
f 596 601 505
f 446 679 313
f 446 538 635
f 467 477 659
f 659 477 401
f 659 401 409
f 409 124 659
f 331 53 533
f 44 533 53
f 331 533 44
f 434 229 331
f 434 271 402
f 402 229 434
f 523 283 264
f 264 260 523
f 639 344 630
f 409 260 630
f 630 344 419
f 516 573 630
f 419 372 630
f 372 516 630
f 236 167 620
f 236 646 167
f 236 49 419
f 419 344 236
f 236 290 49
f 236 344 639
f 536 290 236
f 639 630 236
f 236 417 536
f 236 630 260
f 524 417 236
f 260 264 236
f 1 524 236
f 236 253 1
f 620 658 236
f 658 253 236
f 558 499 497
f 497 167 558
f 167 646 558
f 283 44 558
f 558 53 499
f 558 44 53
f 183 56 274
f 274 56 494
f 11 234 201
f 168 11 619
f 172 11 168
f 492 490 555
f 555 203 492
f 369 490 510
f 369 179 520
f 369 294 179
f 102 38 47
f 134 619 292
f 619 234 292
f 47 38 444
f 444 223 47
f 641 431 618
f 431 252 618
f 618 252 285
f 487 641 618
f 618 285 487
f 212 300 285
f 285 252 212
f 382 440 567
f 512 440 382
f 512 619 134
f 122 55 397
f 397 605 122
f 382 55 122
f 122 605 382
f 367 55 382
f 382 567 367
f 367 567 440
f 119 55 367
f 440 512 367
f 367 512 134
f 134 292 367
f 181 119 367
f 367 292 616
f 616 181 367
f 278 560 297
f 228 45 475
f 475 319 539
f 539 210 475
f 544 319 104
f 641 560 574
f 545 464 85
f 545 352 538
f 239 472 269
f 269 279 239
f 239 279 472
f 653 280 350
f 280 226 350
f 568 303 653
f 95 349 41
f 41 438 95
f 374 295 657
f 374 154 295
f 321 455 295
f 295 154 321
f 321 154 455
f 37 482 353
f 455 482 37
f 353 130 37
f 37 130 246
f 597 271 283
f 597 283 495
f 597 495 21
f 597 146 288
f 21 146 597
f 35 597 288
f 265 391 557
f 265 421 391
f 244 596 505
f 491 94 377
f 368 94 491
f 377 601 170
f 170 491 377
f 424 94 242
f 377 94 424
f 424 601 377
f 34 601 424
f 526 482 455
f 325 136 73
f 298 136 484
f 190 298 216
f 465 298 190
f 216 15 190
f 211 190 15
f 211 15 476
f 476 15 435
f 248 413 230
f 248 102 172
f 38 102 248
f 446 391 58
f 58 679 446
f 576 391 537
f 151 391 446
f 151 84 391
f 391 84 177
f 648 538 446
f 446 313 648
f 464 545 648
f 648 545 538
f 496 635 214
f 214 635 538
f 214 596 496
f 538 601 214
f 601 596 214
f 184 601 538
f 184 637 601
f 467 659 546
f 546 659 124
f 6 71 125
f 125 286 6
f 192 286 125
f 90 286 602
f 305 434 331
f 271 434 305
f 331 44 305
f 283 271 305
f 305 44 283
f 384 264 283
f 646 236 384
f 384 236 264
f 283 558 232
f 232 558 646
f 232 384 283
f 646 384 232
f 201 619 664
f 664 11 201
f 619 11 664
f 115 11 172
f 234 11 115
f 494 56 670
f 56 168 670
f 474 203 490
f 490 492 474
f 474 492 203
f 490 369 357
f 357 369 520
f 647 369 510
f 510 152 647
f 152 294 647
f 294 369 647
f 655 46 532
f 47 234 310
f 310 102 47
f 234 102 310
f 638 252 431
f 638 212 252
f 126 512 382
f 619 512 126
f 126 168 619
f 362 544 560
f 319 544 362
f 493 539 319
f 475 210 143
f 143 228 475
f 297 45 329
f 329 228 297
f 45 228 329
f 521 82 297
f 297 228 521
f 521 493 82
f 539 493 521
f 205 93 560
f 560 544 205
f 609 205 544
f 93 205 609
f 340 233 609
f 609 233 396
f 83 431 641
f 19 609 544
f 475 150 237
f 591 319 475
f 104 319 591
f 591 445 104
f 400 296 661
f 661 545 400
f 85 341 342
f 342 545 85
f 47 223 142
f 110 150 645
f 75 660 358
f 149 279 460
f 460 513 149
f 279 513 460
f 60 279 269
f 60 513 279
f 149 513 60
f 60 259 149
f 269 259 60
f 404 330 654
f 654 17 404
f 269 17 654
f 654 640 269
f 2 450 595
f 2 430 450
f 532 46 428
f 295 455 268
f 455 37 268
f 268 547 295
f 268 37 547
f 547 37 322
f 322 37 246
f 322 605 271
f 246 605 322
f 295 35 39
f 39 622 295
f 597 35 561
f 547 322 561
f 271 597 561
f 561 322 271
f 657 622 542
f 542 39 141
f 622 39 542
f 557 391 245
f 61 368 585
f 585 56 61
f 405 56 585
f 657 542 262
f 425 262 387
f 483 601 34
f 107 637 158
f 601 637 107
f 107 170 601
f 651 242 61
f 61 56 651
f 379 73 136
f 386 671 379
f 671 73 379
f 28 484 7
f 7 484 136
f 465 190 564
f 325 471 40
f 40 136 325
f 325 73 222
f 222 471 325
f 674 399 215
f 215 399 545
f 215 70 13
f 341 70 215
f 215 342 341
f 545 342 215
f 674 50 10
f 62 266 10
f 28 40 10
f 10 471 62
f 10 40 471
f 28 50 628
f 628 435 28
f 628 215 13
f 628 50 674
f 674 215 628
f 298 484 366
f 366 484 28
f 28 435 366
f 543 107 158
f 543 248 230
f 543 444 38
f 38 248 543
f 230 413 543
f 383 391 576
f 576 633 383
f 100 415 220
f 220 415 124
f 576 100 220
f 124 415 642
f 642 421 467
f 467 546 642
f 642 546 124
f 391 177 180
f 596 244 180
f 394 648 313
f 352 545 566
f 538 352 566
f 566 184 538
f 661 184 566
f 566 545 661
f 662 465 448
f 190 211 511
f 469 29 577
f 662 448 469
f 370 136 662
f 662 469 370
f 370 469 71
f 370 379 136
f 386 379 370
f 595 386 370
f 370 653 595
f 320 653 370
f 370 6 320
f 370 71 6
f 420 577 124
f 420 124 409
f 577 420 610
f 179 294 99
f 294 602 99
f 99 516 179
f 99 602 516
f 90 602 611
f 611 602 294
f 270 652 473
f 183 652 217
f 217 56 183
f 217 437 56
f 270 437 217
f 217 652 270
f 289 102 234
f 234 115 289
f 172 102 289
f 289 115 172
f 172 168 287
f 287 316 172
f 168 316 287
f 673 168 56
f 673 316 168
f 673 56 405
f 172 316 673
f 673 248 172
f 413 248 673
f 643 565 490
f 490 357 643
f 520 565 643
f 643 357 520
f 212 638 116
f 116 638 431
f 665 208 501
f 451 670 168
f 168 126 451
f 494 670 451
f 388 493 319
f 319 362 388
f 560 278 388
f 388 362 560
f 199 609 501
f 560 93 185
f 185 380 560
f 93 609 185
f 609 380 185
f 328 574 560
f 560 380 328
f 641 574 57
f 57 83 641
f 431 83 105
f 105 116 431
f 655 116 105
f 83 57 105
f 105 57 574
f 574 328 105
f 46 655 105
f 396 46 105
f 105 328 380
f 609 19 26
f 104 445 72
f 72 544 104
f 72 19 544
f 445 591 584
f 200 355 276
f 501 355 200
f 276 665 200
f 200 665 501
f 296 400 241
f 400 543 241
f 545 337 42
f 42 337 165
f 165 399 42
f 545 399 153
f 153 337 545
f 68 292 234
f 155 110 68
f 616 292 68
f 68 645 616
f 68 110 645
f 101 237 150
f 150 110 101
f 223 444 378
f 378 586 223
f 563 626 487
f 123 621 182
f 358 472 182
f 182 621 358
f 182 472 487
f 487 139 182
f 79 226 235
f 235 30 79
f 196 2 147
f 430 2 196
f 595 147 599
f 599 2 595
f 147 2 599
f 671 502 255
f 471 222 255
f 406 502 671
f 381 46 396
f 381 428 46
f 671 608 423
f 269 660 623
f 660 650 623
f 626 563 615
f 590 561 35
f 295 547 590
f 590 35 295
f 519 265 557
f 54 245 391
f 391 180 54
f 54 180 244
f 273 262 542
f 34 600 371
f 371 526 455
f 455 154 371
f 154 374 371
f 601 483 22
f 118 483 34
f 34 371 118
f 425 22 118
f 118 22 483
f 118 262 425
f 657 262 118
f 118 374 657
f 118 371 374
f 56 437 36
f 36 651 56
f 270 304 18
f 120 424 242
f 242 651 120
f 34 424 500
f 500 600 34
f 600 500 307
f 549 266 62
f 62 471 549
f 549 255 361
f 471 255 549
f 624 399 674
f 624 42 399
f 206 50 28
f 28 10 206
f 206 10 50
f 24 534 174
f 24 211 476
f 24 174 211
f 114 628 13
f 114 13 85
f 85 174 114
f 476 435 114
f 435 628 114
f 174 534 114
f 216 298 52
f 298 366 52
f 107 543 133
f 345 585 368
f 368 543 345
f 345 543 413
f 121 364 537
f 421 364 121
f 391 421 121
f 121 537 391
f 588 364 421
f 421 642 588
f 390 394 313
f 313 594 390
f 390 594 447
f 577 29 219
f 124 577 676
f 676 220 124
f 676 313 679
f 447 594 676
f 190 511 32
f 32 564 190
f 211 174 644
f 644 511 211
f 174 511 644
f 16 469 577
f 71 469 16
f 577 610 16
f 16 125 71
f 16 610 125
f 192 125 108
f 257 274 494
f 494 130 257
f 270 473 617
f 87 585 413
f 413 673 87
f 405 585 87
f 87 673 405
f 212 116 571
f 458 522 69
f 69 462 458
f 161 451 126
f 382 246 161
f 161 126 382
f 246 130 161
f 161 130 494
f 494 451 161
f 656 584 459
f 9 199 501
f 169 609 396
f 396 105 169
f 169 380 609
f 169 105 380
f 580 23 275
f 609 23 580
f 501 609 580
f 580 572 501
f 527 572 488
f 488 580 275
f 572 580 488
f 453 527 501
f 501 572 453
f 453 572 527
f 501 527 606
f 606 389 501
f 527 389 606
f 221 355 501
f 501 389 221
f 14 355 221
f 221 389 14
f 88 468 392
f 385 355 14
f 14 468 385
f 385 468 355
f 12 400 545
f 545 42 12
f 263 543 400
f 263 582 543
f 332 142 223
f 74 346 392
f 392 468 74
f 468 470 74
f 155 68 81
f 81 332 155
f 142 332 81
f 47 142 81
f 81 234 47
f 81 68 234
f 454 139 487
f 509 139 454
f 532 428 48
f 404 17 604
f 604 235 404
f 675 196 349
f 675 349 95
f 430 196 675
f 675 243 430
f 671 255 25
f 25 255 222
f 25 73 671
f 25 222 73
f 502 406 373
f 373 255 502
f 450 430 570
f 570 608 671
f 570 671 450
f 95 188 669
f 669 675 95
f 243 675 669
f 269 623 351
f 351 17 269
f 277 615 509
f 626 615 277
f 509 454 277
f 487 626 277
f 277 454 487
f 243 669 318
f 318 669 188
f 439 137 35
f 288 421 439
f 439 35 288
f 35 137 324
f 141 39 324
f 547 561 603
f 603 590 547
f 561 590 603
f 244 542 86
f 261 542 244
f 261 273 542
f 526 371 166
f 166 371 600
f 600 307 166
f 482 526 166
f 353 482 166
f 166 307 353
f 317 244 505
f 651 36 627
f 270 18 238
f 238 627 270
f 651 627 238
f 666 500 424
f 202 549 361
f 255 373 202
f 361 255 202
f 457 543 368
f 457 133 543
f 543 582 587
f 413 585 224
f 224 345 413
f 585 345 224
f 543 587 117
f 117 587 299
f 364 588 376
f 376 588 642
f 29 511 213
f 447 219 529
f 577 219 518
f 518 676 577
f 518 219 447
f 447 676 518
f 3 676 679
f 3 633 576
f 576 220 3
f 220 676 3
f 315 32 511
f 315 511 29
f 465 32 315
f 315 448 465
f 29 469 315
f 315 469 448
f 192 108 677
f 677 286 192
f 677 602 286
f 677 573 516
f 516 602 677
f 125 610 375
f 375 108 125
f 375 610 420
f 375 677 108
f 375 420 409
f 348 257 130
f 473 257 348
f 348 130 353
f 353 307 348
f 500 666 348
f 348 307 500
f 422 257 473
f 422 652 183
f 422 473 652
f 270 617 306
f 306 304 270
f 64 42 443
f 42 624 443
f 208 665 443
f 515 522 208
f 208 69 515
f 515 69 522
f 665 132 466
f 656 459 552
f 552 26 656
f 552 23 609
f 609 26 552
f 527 459 127
f 127 591 475
f 127 584 591
f 127 459 584
f 204 9 340
f 199 9 204
f 340 609 204
f 609 199 204
f 407 389 527
f 407 414 389
f 14 389 334
f 389 414 334
f 414 407 408
f 408 110 155
f 155 332 408
f 582 263 191
f 191 42 64
f 64 112 251
f 293 332 470
f 414 408 293
f 293 408 332
f 293 470 468
f 293 468 14
f 14 334 293
f 293 334 414
f 470 332 98
f 98 74 470
f 346 74 98
f 223 346 98
f 98 332 223
f 551 30 235
f 235 604 551
f 231 48 428
f 428 381 231
f 592 462 674
f 458 462 592
f 598 559 308
f 598 416 559
f 311 416 598
f 613 625 423
f 613 570 430
f 613 423 608
f 608 570 613
f 17 351 284
f 284 604 17
f 188 604 284
f 284 318 188
f 660 75 347
f 358 621 347
f 347 75 358
f 347 621 123
f 395 615 563
f 395 156 615
f 96 571 116
f 96 655 532
f 96 116 655
f 129 39 35
f 35 324 129
f 129 324 39
f 265 519 78
f 78 519 542
f 78 542 141
f 141 324 78
f 282 54 244
f 244 86 282
f 441 317 410
f 244 317 441
f 441 410 387
f 441 387 262
f 636 617 473
f 636 666 424
f 424 306 636
f 636 306 617
f 607 311 674
f 607 416 311
f 674 10 607
f 10 416 607
f 189 10 266
f 189 416 10
f 559 416 508
f 308 559 508
f 416 189 508
f 508 189 266
f 266 549 508
f 549 202 508
f 586 378 632
f 632 378 444
f 444 543 632
f 543 117 632
f 394 390 489
f 360 219 29
f 29 213 360
f 360 213 219
f 339 529 219
f 339 213 511
f 219 213 339
f 480 174 85
f 85 103 480
f 480 103 394
f 394 489 480
f 447 529 480
f 573 677 507
f 677 375 507
f 507 375 409
f 409 630 507
f 507 630 573
f 473 348 31
f 31 348 666
f 31 636 473
f 666 636 31
f 111 422 183
f 257 422 111
f 171 443 69
f 171 69 208
f 208 443 171
f 64 443 186
f 186 443 665
f 665 466 186
f 186 466 132
f 186 112 64
f 186 91 112
f 110 408 593
f 593 101 110
f 593 408 407
f 237 101 593
f 475 237 593
f 593 127 475
f 527 127 593
f 593 407 527
f 42 191 506
f 506 191 263
f 95 438 498
f 498 438 303
f 498 551 604
f 498 188 95
f 498 604 188
f 308 231 148
f 530 231 308
f 48 231 530
f 20 592 674
f 592 20 335
f 674 311 335
f 335 20 674
f 629 598 308
f 311 598 629
f 308 148 629
f 430 243 678
f 145 312 43
f 43 312 615
f 113 312 145
f 106 312 113
f 194 139 509
f 509 615 194
f 227 650 660
f 660 347 227
f 227 347 650
f 300 212 583
f 212 571 583
f 571 96 583
f 615 156 301
f 156 583 301
f 225 541 615
f 363 541 225
f 650 514 249
f 249 623 650
f 249 351 623
f 249 284 351
f 403 249 514
f 318 284 403
f 284 249 403
f 308 508 33
f 33 530 308
f 299 587 556
f 587 91 556
f 144 511 174
f 174 480 144
f 144 480 529
f 250 541 363
f 51 406 671
f 671 423 51
f 51 373 406
f 51 250 373
f 423 625 51
f 303 568 66
f 66 498 303
f 363 5 135
f 5 530 135
f 135 250 363
f 48 530 535
f 535 530 5
f 458 592 579
f 592 335 579
f 209 522 458
f 458 579 209
f 393 381 396
f 396 233 393
f 393 233 340
f 340 9 393
f 615 312 411
f 411 194 615
f 176 182 139
f 59 347 123
f 156 395 531
f 487 436 531
f 531 436 300
f 531 563 487
f 531 395 563
f 615 301 429
f 429 301 5
f 449 583 96
f 449 301 583
f 532 48 449
f 449 96 532
f 48 535 449
f 5 301 449
f 449 535 5
f 195 5 363
f 363 225 195
f 195 225 615
f 553 91 587
f 80 556 91
f 299 556 80
f 80 117 299
f 80 346 223
f 223 586 80
f 586 632 80
f 80 632 117
f 91 186 634
f 663 202 373
f 373 250 663
f 663 508 202
f 541 250 187
f 250 51 187
f 145 43 187
f 187 140 145
f 615 541 187
f 187 43 615
f 625 140 187
f 187 51 625
f 208 522 486
f 522 209 486
f 381 393 486
f 486 231 381
f 89 113 145
f 175 514 650
f 650 347 175
f 123 182 272
f 182 176 272
f 63 272 176
f 412 411 312
f 272 63 412
f 631 583 156
f 156 531 631
f 77 429 5
f 5 195 77
f 615 429 77
f 77 195 615
f 548 553 587
f 452 553 548
f 91 553 562
f 562 553 452
f 112 91 562
f 131 80 91
f 91 634 131
f 131 634 186
f 468 88 131
f 131 88 392
f 131 186 132
f 355 468 131
f 392 346 131
f 346 80 131
f 131 132 665
f 276 355 131
f 131 665 276
f 178 33 508
f 508 663 178
f 530 33 178
f 178 135 530
f 250 135 178
f 178 663 250
f 208 486 398
f 398 486 393
f 398 393 9
f 501 208 398
f 398 9 501
f 418 579 335
f 418 209 579
f 418 486 209
f 113 89 540
f 106 113 540
f 347 59 540
f 540 175 347
f 145 140 291
f 291 89 145
f 291 140 625
f 625 89 291
f 625 613 109
f 109 89 625
f 613 162 109
f 162 89 109
f 194 411 67
f 67 63 194
f 411 412 67
f 67 412 63
f 194 63 517
f 517 63 176
f 139 194 517
f 517 176 139
f 356 312 106
f 356 412 312
f 106 540 356
f 356 540 59
f 272 412 356
f 356 59 123
f 123 272 356
f 583 631 27
f 27 631 531
f 300 583 27
f 27 531 300
f 452 548 197
f 327 335 311
f 327 418 335
f 311 629 327
f 327 629 148
f 327 148 231
f 231 418 327
f 231 486 302
f 302 418 231
f 486 418 302
f 514 175 281
f 175 540 281
f 540 97 281
f 281 403 514
f 281 97 403
f 314 89 162
f 314 613 430
f 314 162 613
f 160 197 251
f 160 251 112
f 452 197 160
f 112 562 160
f 160 562 452
f 258 540 89
f 89 314 258
f 258 678 243
f 430 678 258
f 258 314 430
f 198 97 540
f 540 258 198
f 198 258 97
f 403 97 138
f 318 403 138
f 243 318 138
f 97 258 578
f 578 138 97
f 578 258 243
f 243 138 578
f 521 143 210
f 210 539 521
f 228 143 521
f 259 640 654
f 427 259 654
f 654 330 427
f 40 7 136
f 28 7 40
f 446 635 180
f 496 596 180
f 180 151 446
f 180 635 496
f 84 151 180
f 180 177 84
f 6 286 611
f 433 481 611
f 611 152 433
f 611 286 90
f 611 481 6
f 611 294 152
f 388 278 297
f 297 82 388
f 82 493 388
f 656 26 584
f 584 72 445
f 584 26 19
f 19 72 584
f 241 543 158
f 661 296 241
f 241 184 661
f 158 637 241
f 637 184 241
f 165 337 153
f 153 399 165
f 147 438 196
f 196 41 349
f 438 41 196
f 114 24 476
f 534 24 114
f 52 435 15
f 52 15 216
f 52 366 435
f 464 648 103
f 85 464 103
f 648 394 103
f 676 594 313
f 465 564 32
f 601 22 317
f 505 601 317
f 425 387 317
f 387 410 317
f 317 22 425
f 627 36 437
f 627 437 270
f 368 491 457
f 107 133 457
f 491 170 457
f 170 107 457
f 376 642 415
f 576 537 376
f 376 100 576
f 376 415 100
f 537 364 376
f 391 383 3
f 3 58 391
f 679 58 3
f 3 383 633
f 651 238 306
f 424 120 306
f 306 18 304
f 306 120 651
f 306 238 18
f 443 624 674
f 674 462 443
f 462 69 443
f 275 23 552
f 552 459 527
f 552 488 275
f 527 488 552
f 78 439 421
f 421 265 78
f 137 439 78
f 78 324 137
f 282 519 557
f 557 245 282
f 542 519 282
f 245 54 282
f 282 86 542
f 262 273 441
f 441 261 244
f 273 261 441
f 480 390 447
f 480 489 390
f 274 257 111
f 183 274 111
f 506 12 42
f 400 12 506
f 506 263 400
f 529 339 144
f 144 339 511
f 66 350 226
f 653 350 66
f 66 568 653
f 226 79 66
f 66 79 30
f 30 551 66
f 551 498 66
f 64 251 197
f 197 191 64
f 197 587 582
f 582 191 197
f 197 548 587

