# https://github.com/mikedh/trimesh
v 0.13732166 -0.01094696 -0.01838968
v 0.13893599 -0.00815654 -0.01881765
v 0.13028003 -0.00892874 -0.01624039
v 0.13997371 -0.00753946 -0.01943698
v 0.13177273 -0.01837083 -0.01834431
v 0.13455446 -0.02069684 -0.02097121
v 0.12949187 -0.00874521 -0.01602047
v 0.13260557 -0.01542044 -0.01776668
v 0.14195266 -0.00556359 -0.02208633
v 0.13459531 -0.01091326 -0.01755898
v 0.13141739 -0.02291500 -0.02039408
v 0.12742448 -0.00994996 -0.01559787
v 0.14014764 -0.01238109 -0.02277940
v 0.12888515 -0.01711972 -0.01721114
v 0.13431423 -0.01234736 -0.01767812
v 0.14032899 -0.00161744 -0.01907939
v 0.12546759 -0.02086203 -0.01754160
v 0.14142011 -0.00835112 -0.02277944
v 0.13849874 -0.00405148 -0.01807085
v 0.12802399 -0.00010879 -0.01545495
v 0.13847128 -0.01246827 -0.01957575
v 0.13842143 -0.00395692 -0.01804267
v 0.13395310 -0.02186144 -0.02491051
v 0.12735438 -0.02030602 -0.01778714
v 0.13086766 -0.02416652 -0.02235739
v 0.12751715 -0.02487421 -0.02002530
v 0.14034072 -0.01139600 -0.02074392
v 0.13114767 -0.01962792 -0.01867534
v 0.13662733 -0.01271986 -0.01849653
v 0.13729699 -0.01090649 -0.01836810
v 0.14124193 -0.00901480 -0.02260980
v 0.13368232 -0.00330551 -0.01679080
v 0.13910840 -0.01002283 -0.01933517
v 0.12934132 -0.02498440 -0.02118229
v 0.13733087 -0.01759247 -0.02243659
v 0.13101056 -0.02428487 -0.02365094
v 0.14120613 -0.00912086 -0.02339720
v 0.13605409 -0.00945783 -0.01778002
v 0.14227387 -0.00221258 -0.02385335
v 0.14227246 -0.00220328 -0.02199809
v 0.13900054 -0.01483377 -0.02377275
v 0.14031578 -0.00310954 -0.01913104
v 0.13717314 -0.01695630 -0.02040297
v 0.13551399 -0.01864474 -0.02017749
v 0.13227911 -0.02275436 -0.02102138
v 0.14044981 -0.01068303 -0.02051403
v 0.13969911 -0.00528941 -0.01889866
v 0.14136139 -0.00667915 -0.02030960
v 0.12596801 -0.00369648 -0.01481632
v 0.13776718 -0.01610294 -0.02041456
v 0.14056842 -0.01118422 -0.02451388
v 0.12533050 -0.02064018 -0.01743135
v 0.12669531 -0.00030391 -0.01510147
v 0.12696912 -0.00689426 -0.01521195
v 0.14010399 -0.01255507 -0.02482147
v 0.13913011 -0.00774322 -0.01886900
v 0.12547259 -0.01481459 -0.01580179
v 0.13110960 -0.00006106 -0.01620316
v 0.13447419 -0.01370687 -0.01794308
v 0.13896289 -0.01349665 -0.02021863
v 0.12502818 -0.02276771 -0.01816738
v 0.13840274 -0.01425746 -0.02013641
v 0.13721844 -0.01052016 -0.01825383
v 0.14218596 -0.00345988 -0.02421674
v 0.13340810 -0.01922405 -0.01944262
v 0.13582209 -0.01762866 -0.01992413
v 0.14082234 -0.00280433 -0.01950044
v 0.13406571 -0.02170212 -0.02440619
v 0.12980721 -0.01885718 -0.01793557
v 0.12978792 -0.01666835 -0.01733514
v 0.12501613 -0.02479984 -0.01927105
v 0.14041452 -0.00149718 -0.01914175
v 0.12735327 -0.01985478 -0.01762787
v 0.14109044 -0.00276927 -0.01970706
v 0.13885381 -0.00768638 -0.01866395
v 0.13586333 -0.01932642 -0.02154789
v 0.12695211 -0.01147725 -0.01565936
v 0.13700129 -0.01824898 -0.02398270
v 0.13613756 -0.01057254 -0.01791794
v 0.13124637 -0.02399109 -0.02305190
v 0.14018961 -0.01157853 -0.02055096
v 0.12548202 -0.01788982 -0.01660274
v 0.14234523 -0.00081447 -0.02383120
v 0.12526909 -0.01014473 -0.01507291
v 0.13068547 -0.02071654 -0.01901206
v 0.12877167 -0.01667465 -0.01707764
v 0.13116064 -0.01602206 -0.01753376
v 0.13508394 -0.01461159 -0.01833314
v 0.12549347 -0.02228935 -0.01808275
v 0.13503778 -0.01914297 -0.02017513
v 0.13727814 -0.01775668 -0.02311939
v 0.14058749 -0.01059758 -0.02077977
v 0.14179477 -0.00238278 -0.02024167
v 0.12506544 -0.00757508 -0.01477585
v 0.14005786 -0.01127562 -0.02030844
v 0.13269551 -0.02041333 -0.01967747
v 0.14183582 -0.00627484 -0.02188264
v 0.13849369 -0.01509114 -0.02064472
v 0.12651214 -0.00323030 -0.01493646
v 0.12521297 -0.00920358 -0.01496314
v 0.12851328 -0.00851598 -0.01574778
v 0.13112611 -0.01612591 -0.01754925
v 0.14107579 -0.00867366 -0.02059623
v 0.13123575 -0.01040923 -0.01663317
v 0.12972627 -0.02337172 -0.01997463
v 0.13359104 -0.01479607 -0.01790820
v 0.13270047 -0.00592927 -0.01664668
v 0.14154008 -0.00786363 -0.02334249
v 0.13666537 -0.01871108 -0.02408767
v 0.13582597 -0.00977748 -0.01775072
v 0.14059301 -0.01058763 -0.02078673
v 0.12634266 -0.01168605 -0.01553164
v 0.12692523 -0.00283697 -0.01504428
v 0.14129088 -0.00009022 -0.01978049
v 0.13336780 -0.02184767 -0.02103523
v 0.13723983 -0.01529554 -0.01978096
v 0.13947474 -0.01211230 -0.02013438
v 0.12548019 -0.01598918 -0.01607851
v 0.13567362 -0.01356777 -0.01827372
v 0.13805341 -0.01584480 -0.02057110
v 0.13023258 -0.01211877 -0.01659258
v 0.13791254 -0.01691362 -0.02393636
v 0.13680342 -0.01713336 -0.02025744
v 0.13794465 -0.01655026 -0.02138007
v 0.14034862 -0.00905505 -0.01999383
v 0.13677067 -0.01849011 -0.02345833
v 0.14144059 -0.00823595 -0.02232985
v 0.14231143 -0.00141630 -0.02425082
v 0.14206254 -0.00462007 -0.02126865
v 0.13478928 -0.01836433 -0.01971065
v 0.13115548 -0.01891099 -0.01835555
v 0.12751435 -0.01838359 -0.01724029
v 0.13018123 -0.00688671 -0.01604337
v 0.12984789 -0.02482062 -0.02198850
v 0.14171787 -0.00697201 -0.02344324
v 0.13768485 -0.01687816 -0.02093600
v 0.14025854 -0.01170493 -0.02076537
v 0.12705396 -0.02156636 -0.01818060
v 0.13361863 -0.01887363 -0.01938286
v 0.14222506 -0.00272516 -0.02160212
v 0.12677676 -0.01988897 -0.01750503
v 0.14208147 -0.00466343 -0.02386015
v 0.12865881 -0.02076057 -0.01827852
v 0.14207353 -0.00469026 -0.02320792
v 0.13464531 -0.01655514 -0.01885836
v 0.13780716 -0.00660341 -0.01800302
v 0.13270658 -0.02194817 -0.02047852
v 0.13201657 -0.02250081 -0.02046407
v 0.14230398 -0.00167608 -0.02348314
v 0.14215263 -0.00206127 -0.02068252
v 0.12806334 -0.00685746 -0.01549230
v 0.13910585 -0.01438873 -0.02111723
v 0.14009772 -0.01145033 -0.02040253
v 0.13780430 -0.00351936 -0.01786426
v 0.13846211 -0.00763935 -0.01839059
v 0.12696519 -0.02252179 -0.01861945
v 0.14180020 -0.00320579 -0.02028190
v 0.14191714 -0.00578752 -0.02171202
v 0.12672930 -0.01657373 -0.01653358
v 0.14072355 -0.00135849 -0.01937704
v 0.14145209 -0.00228711 -0.01997205
v 0.12530476 -0.00764410 -0.01484363
v 0.14179011 -0.00654005 -0.02316037
v 0.12656924 -0.00537904 -0.01503389
v 0.13226964 -0.00917545 -0.01677606
v 0.12999200 -0.02461134 -0.02142084
v 0.12539066 -0.00211192 -0.01467677
v 0.14070021 -0.01070222 -0.02439669
v 0.13657064 -0.01231133 -0.01835223
v 0.12780757 -0.02271705 -0.01899891
v 0.14164205 -0.00729665 -0.02121467
v 0.14043130 -0.00721785 -0.01971776
v 0.12529356 -0.02341289 -0.01858541
v 0.13687782 -0.01172835 -0.01835445
v 0.12965523 -0.02154977 -0.01902025
v 0.12961645 -0.01982714 -0.01822168
v 0.13838335 -0.01509222 -0.02046769
v 0.13250911 -0.02203518 -0.02041220
v 0.14046973 -0.00299502 -0.01923782
v 0.13203551 -0.02359654 -0.02473944
v 0.13384318 -0.00004046 -0.01686630
v 0.13661097 -0.01791506 -0.02055154
v 0.13709013 -0.01788518 -0.02219100
v 0.14230047 -0.00056221 -0.02078733
v 0.13765487 -0.00694004 -0.01798469
v 0.14017426 -0.01116865 -0.02037691
v 0.13308246 -0.01737685 -0.01846947
v 0.13443437 -0.01385110 -0.01795801
v 0.13016825 -0.02209097 -0.01947925
v 0.13228308 -0.02106465 -0.01982459
v 0.13913773 -0.01374382 -0.02052324
v 0.13901836 -0.00117720 -0.01816736
v 0.13779757 -0.01152694 -0.01885728
v 0.13976327 -0.01066573 -0.01995144
v 0.13155085 -0.00322060 -0.01623684
v 0.14233412 -0.00131150 -0.02099734
v 0.13811080 -0.00734644 -0.01817774
v 0.12507233 -0.01017451 -0.01502658
v 0.14164319 -0.00362182 -0.02020321
v 0.13061359 -0.02259578 -0.01990097
v 0.13868780 -0.00979063 -0.01898431
v 0.13476470 -0.01427178 -0.01811943
v 0.14005989 -0.01159975 -0.02041912
v 0.12840883 -0.02094196 -0.01828841
v 0.12605750 -0.02423822 -0.01925480
v 0.12518554 -0.00639239 -0.01472091
v 0.13127194 -0.01538218 -0.01741242
v 0.13059987 -0.01220081 -0.01669990
v 0.12503855 -0.00094235 -0.01463890
v 0.14227557 -0.00226080 -0.02330055
v 0.14072247 -0.00430186 -0.01956409
v 0.13717829 -0.01463015 -0.01950598
v 0.12776328 -0.02376922 -0.01952676
v 0.13847588 -0.00068521 -0.01799917
v 0.13742574 -0.00710139 -0.01793794
v 0.13129442 -0.02039549 -0.01910337
v 0.12716519 -0.01979396 -0.01756243
v 0.13425097 -0.02058400 -0.02049758
v 0.13772149 -0.01721262 -0.02390991
v 0.13794708 -0.01204476 -0.01911026
v 0.12733143 -0.00307670 -0.01514127
v 0.13791001 -0.00623275 -0.01800991
v 0.13994589 -0.01276758 -0.02240334
v 0.13426349 -0.01565084 -0.01832692
v 0.13389310 -0.01570347 -0.01821986
v 0.13615454 -0.01700830 -0.01985217
v 0.14023604 -0.01202712 -0.02216589
v 0.13917358 -0.01451275 -0.02430333
v 0.12572074 -0.00439879 -0.01478312
v 0.13663979 -0.01857000 -0.02274165
v 0.12636489 -0.00042144 -0.01500967
v 0.13724410 -0.00815261 -0.01797895
f 71 209 180
f 83 20 114
f 128 180 209
f 53 20 83
f 83 128 53
f 209 181 231
f 181 53 231
f 231 128 209
f 231 53 128
f 58 53 181
f 20 53 58
f 181 114 58
f 58 114 20
f 83 114 184
f 61 209 71
f 129 48 171
f 180 128 23
f 128 55 23
f 214 114 181
f 214 192 114
f 198 61 118
f 173 61 71
f 60 117 21
f 117 193 21
f 83 184 196
f 158 129 171
f 60 62 50
f 192 214 22
f 93 184 114
f 93 157 184
f 192 47 42
f 171 48 103
f 159 118 82
f 71 180 36
f 34 166 45
f 45 11 34
f 45 166 25
f 204 143 138
f 138 143 24
f 24 17 138
f 205 173 71
f 138 61 156
f 61 173 156
f 156 204 138
f 52 141 82
f 61 17 52
f 82 118 52
f 52 118 61
f 89 61 138
f 138 17 89
f 89 17 61
f 202 8 225
f 106 8 202
f 226 145 66
f 88 145 226
f 218 178 147
f 129 196 150
f 48 129 150
f 150 157 48
f 184 157 150
f 150 196 184
f 51 13 55
f 171 135 97
f 97 158 171
f 135 158 97
f 142 144 9
f 9 144 129
f 129 158 9
f 123 226 66
f 116 62 212
f 116 50 62
f 88 226 116
f 226 123 116
f 109 23 55
f 55 13 228
f 19 47 192
f 192 22 19
f 211 47 48
f 211 42 47
f 114 192 16
f 192 42 16
f 171 103 111
f 201 193 117
f 201 33 125
f 4 56 125
f 155 19 197
f 47 19 155
f 197 63 155
f 203 117 60
f 60 191 203
f 203 191 81
f 95 201 117
f 117 203 95
f 95 203 153
f 209 206 167
f 167 113 214
f 167 181 209
f 167 214 181
f 214 113 221
f 134 34 71
f 71 36 134
f 134 166 34
f 25 166 134
f 134 36 25
f 147 45 115
f 115 218 147
f 6 218 115
f 148 45 147
f 11 45 148
f 25 36 80
f 80 45 25
f 80 115 45
f 80 36 180
f 180 115 80
f 73 24 143
f 105 11 200
f 200 189 105
f 175 143 105
f 105 189 175
f 173 205 26
f 26 156 173
f 26 205 71
f 71 34 26
f 34 11 26
f 26 11 105
f 204 156 170
f 105 143 170
f 143 204 170
f 224 88 202
f 202 225 224
f 224 225 187
f 187 145 224
f 224 145 88
f 198 118 57
f 57 112 198
f 197 19 222
f 222 19 22
f 94 206 209
f 209 61 94
f 94 61 198
f 220 21 193
f 66 145 44
f 44 123 66
f 90 218 44
f 29 116 212
f 29 220 193
f 60 21 29
f 21 220 29
f 182 218 6
f 6 136 182
f 182 44 218
f 178 218 96
f 96 218 90
f 37 51 108
f 108 135 171
f 31 51 37
f 13 51 31
f 83 196 149
f 140 196 129
f 140 40 196
f 128 39 64
f 142 51 64
f 64 55 128
f 64 51 55
f 163 158 135
f 163 9 158
f 135 142 163
f 142 9 163
f 152 136 124
f 124 136 219
f 98 136 152
f 152 191 98
f 23 109 68
f 6 115 68
f 180 23 68
f 68 115 180
f 152 124 122
f 122 124 219
f 55 228 122
f 122 109 55
f 219 109 122
f 157 93 74
f 74 67 157
f 48 157 199
f 199 211 48
f 179 16 42
f 67 16 179
f 157 67 179
f 114 16 72
f 13 31 227
f 92 111 103
f 103 27 92
f 125 56 2
f 2 201 125
f 48 47 172
f 47 4 172
f 47 155 75
f 75 4 47
f 56 4 75
f 75 2 56
f 75 155 201
f 201 2 75
f 125 33 194
f 194 95 125
f 48 125 186
f 125 95 186
f 186 95 153
f 82 141 217
f 217 132 82
f 69 217 73
f 132 217 69
f 69 73 143
f 156 26 213
f 213 170 156
f 213 26 105
f 105 170 213
f 198 112 77
f 8 106 207
f 106 57 207
f 208 57 15
f 188 106 202
f 188 57 106
f 116 29 119
f 88 116 119
f 202 88 119
f 119 79 202
f 119 63 79
f 1 29 193
f 193 201 1
f 201 155 1
f 123 44 43
f 44 182 43
f 50 116 43
f 43 116 123
f 43 136 50
f 43 182 136
f 65 96 90
f 189 200 85
f 85 175 189
f 143 175 85
f 11 178 190
f 178 96 190
f 190 200 11
f 190 85 200
f 96 85 190
f 135 108 168
f 168 108 51
f 168 142 135
f 168 51 142
f 171 31 127
f 37 108 18
f 18 31 37
f 18 127 31
f 40 64 210
f 210 64 39
f 196 40 210
f 210 149 196
f 120 98 191
f 50 136 120
f 136 98 120
f 78 109 219
f 219 91 78
f 76 68 109
f 109 230 76
f 6 68 76
f 76 136 6
f 76 230 136
f 136 230 183
f 152 122 41
f 41 122 228
f 41 228 13
f 114 72 160
f 152 41 223
f 223 41 13
f 137 227 31
f 171 111 137
f 137 31 171
f 152 223 137
f 137 191 152
f 81 191 137
f 13 227 137
f 137 223 13
f 46 103 48
f 48 186 46
f 46 186 81
f 46 27 103
f 46 137 27
f 81 137 46
f 154 164 22
f 154 22 214
f 107 222 22
f 22 164 107
f 206 222 107
f 107 164 206
f 229 167 206
f 206 49 229
f 229 49 167
f 167 49 99
f 113 167 99
f 99 221 113
f 99 164 221
f 206 164 99
f 99 49 206
f 14 70 86
f 86 159 14
f 14 102 70
f 14 69 102
f 14 159 82
f 187 225 5
f 5 225 8
f 5 65 187
f 96 65 5
f 8 102 5
f 102 69 5
f 10 15 79
f 79 104 10
f 104 77 10
f 100 94 198
f 12 104 79
f 79 110 12
f 12 77 104
f 94 100 12
f 87 102 8
f 8 207 87
f 121 208 15
f 15 10 121
f 121 10 77
f 121 77 112
f 112 57 121
f 57 208 121
f 15 57 59
f 57 188 59
f 59 188 202
f 202 79 59
f 79 15 59
f 146 222 206
f 197 222 146
f 206 94 54
f 38 110 79
f 169 119 29
f 63 119 169
f 30 155 63
f 30 1 155
f 90 44 139
f 139 65 90
f 44 130 139
f 139 130 187
f 187 65 139
f 50 120 177
f 177 120 191
f 60 50 177
f 177 191 60
f 126 230 109
f 109 78 126
f 136 183 35
f 219 136 35
f 35 91 219
f 161 74 93
f 161 72 74
f 161 160 72
f 164 154 32
f 32 154 214
f 176 69 143
f 176 5 69
f 131 176 143
f 5 176 131
f 96 5 28
f 5 131 28
f 143 85 28
f 28 131 143
f 84 100 198
f 84 12 100
f 198 77 84
f 77 12 84
f 101 12 7
f 151 146 206
f 206 54 151
f 232 38 79
f 232 63 197
f 79 63 232
f 165 12 110
f 110 38 165
f 29 1 174
f 174 169 29
f 1 30 174
f 63 169 174
f 174 30 63
f 221 164 195
f 164 32 195
f 214 221 195
f 195 32 214
f 216 85 96
f 96 28 216
f 216 28 85
f 94 12 162
f 12 101 162
f 146 151 185
f 215 232 185
f 197 146 185
f 185 232 197
f 3 165 7
f 7 12 3
f 12 165 3
f 215 185 133
f 133 185 151
f 148 178 11
f 147 178 148
f 212 62 29
f 29 62 60
f 64 140 129
f 129 144 64
f 64 144 142
f 40 140 64
f 42 211 179
f 179 199 157
f 211 199 179
f 67 74 72
f 72 16 67
f 172 4 125
f 172 125 48
f 201 95 194
f 33 201 194
f 186 203 81
f 153 203 186
f 17 24 217
f 141 52 217
f 217 52 17
f 24 73 217
f 130 44 145
f 130 145 187
f 171 127 18
f 18 108 171
f 210 39 128
f 210 128 83
f 83 149 210
f 137 92 27
f 111 92 137
f 82 132 14
f 132 69 14
f 70 102 87
f 86 70 87
f 118 159 87
f 87 159 86
f 87 57 118
f 87 207 57
f 230 126 35
f 35 78 91
f 35 183 230
f 35 126 78
f 114 160 161
f 161 93 114
f 94 162 133
f 133 232 215
f 133 54 94
f 133 101 7
f 7 165 133
f 133 151 54
f 38 232 133
f 133 165 38
f 133 162 101

