# https://github.com/mikedh/trimesh
v 0.00193489 -0.00373421 0.00408979
v 0.01806276 -0.00365627 0.00425429
v 0.00000246 -0.00520458 0.01861797
v 0.00008474 -0.01176428 0.01761666
v 0.00714361 -0.00368501 0.00419238
v 0.00040225 -0.01570041 0.00247843
v 0.01717745 -0.01192518 0.02469083
v 0.00051940 -0.01463969 0.01109671
v 0.00060543 -0.01555928 0.00454891
v 0.00755234 -0.00021831 0.02392150
v 0.00054032 -0.01467017 0.01096078
v 0.02494533 -0.01239937 0.01650951
v 0.00301997 -0.00362032 0.00438868
v 0.00382518 -0.00370412 0.00415142
v 0.00082536 -0.00406209 0.00375340
v 0.00021446 -0.01408350 0.01300704
v 0.02495755 -0.00369920 0.00416171
v 0.02161972 -0.01261472 0.02495849
v 0.02243573 -0.01272411 0.02488595
v 0.00006051 -0.00271718 0.01831729
v 0.02210077 -0.00395615 0.00382729
v 0.00060447 -0.01494003 0.00945996
v 0.00005515 -0.00813125 0.01900498
v 0.00001927 -0.01410879 0.01181112
v 0.00010275 -0.01552605 0.00214027
v 0.00023258 -0.00532673 0.01902143
v 0.00014072 -0.00508415 0.00372385
v 0.02493506 -0.00999910 0.00073559
v 0.00002826 -0.00201741 0.01809201
v 0.00014313 -0.00406708 0.01872032
v 0.00035387 -0.01567007 0.00297331
v 0.00008668 -0.01548247 0.00268519
v 0.00058947 -0.01080958 0.01866945
v 0.00013328 -0.00607951 0.01903299
v 0.00040854 -0.01551142 0.00503032
v 0.00024216 -0.00030433 0.01790871
v 0.00024939 -0.01557439 0.00374285
v 0.00197644 -0.01542635 0.00009994
v 0.02135657 -0.00365503 0.00425889
v 0.02008769 -0.00386946 0.00391321
v 0.02499703 -0.01291721 0.02487629
v 0.00042016 -0.01508711 0.00847431
v 0.02297162 -0.01279097 0.02484348
v 0.00820313 -0.00163734 0.02487908
v 0.00035328 -0.01544872 0.00554468
v 0.00006253 -0.00195915 0.01815880
v 0.00025927 -0.01565519 0.00226725
v 0.01858939 -0.00367281 0.00421839
v 0.00697607 -0.00396393 0.00382205
v 0.00000503 -0.01443548 0.00984282
v 0.00000556 -0.01479969 0.00759849
v 0.02490821 -0.01313338 0.02161884
v 0.00091728 -0.00436070 0.00362728
v 0.00225180 -0.00380307 0.00399144
v 0.00788023 -0.00074348 0.02440209
v 0.00041693 -0.01444248 0.01195243
v 0.00908235 -0.00609355 0.02498288
v 0.00113185 -0.01563761 0.00032126
v 0.02394516 -0.00379308 0.00400542
v 0.00353022 -0.01502248 0.00002595
v 0.02482360 -0.01304510 0.02044691
v 0.00000571 -0.01148647 0.01759996
v 0.00003073 -0.01508021 0.00617604
v 0.00000940 -0.01431633 0.01069726
v 0.00040489 -0.00470164 0.00360473
v 0.00010676 -0.01300821 0.01580736
v 0.00390690 -0.00400864 0.00379078
v 0.02051436 -0.00371844 0.00412051
v 0.01033409 -0.00808682 0.02498237
v 0.00057784 -0.01342442 0.01531551
v 0.01269116 -0.00394939 0.00383337
v 0.02484216 -0.00415266 0.00370286
v 0.00008672 -0.01301142 0.01572441
v 0.02484302 -0.01294876 0.01962703
v 0.00009893 -0.00067442 0.01787872
v 0.02484061 -0.01306334 0.02363011
v 0.00024517 -0.00305293 0.01858570
v 0.01142797 -0.00365276 0.00426748
v 0.01077310 -0.00393195 0.00385084
v 0.00809654 -0.00119322 0.02471604
v 0.00032251 -0.00993950 0.01898190
v 0.00022714 -0.01139808 0.01816640
v 0.00948953 -0.00693094 0.02498528
v 0.00030481 -0.00837291 0.01924686
v 0.01855020 -0.01214755 0.02494735
v 0.00003848 -0.00359630 0.00459484
v 0.00010088 -0.00532407 0.00391451
v 0.02478066 -0.01295309 0.02461803
v 0.02489919 -0.00361060 0.00475930
v 0.00075387 -0.01568909 0.00200206
v 0.00003739 -0.01211620 0.01706546
v 0.01328738 -0.01043306 0.02487328
v 0.01587029 -0.00383411 0.00394861
v 0.00052702 -0.01533900 0.00692071
v 0.01435410 -0.01219512 0.00000911
v 0.01548623 -0.00366984 0.00422479
v 0.00010562 -0.01339112 0.01481118
v 0.01145208 -0.00395045 0.00383233
v 0.00024012 -0.01532548 0.00630518
v 0.01127308 -0.00900464 0.02499513
v 0.00025395 -0.00685088 0.01921457
v 0.00672577 -0.01418754 0.00001440
v 0.00013163 -0.01185442 0.01762137
v 0.02304374 -0.00409236 0.00373190
v 0.02032314 -0.01082422 0.00002638
v 0.00000048 -0.01331084 0.01417519
v 0.00044537 -0.01540813 0.00616976
v 0.02209139 -0.00381253 0.00397767
v 0.00000434 -0.01438749 0.01011112
v 0.00030380 -0.01559949 0.00376687
v 0.00450864 -0.00389513 0.00388774
v 0.00008464 -0.01376625 0.01364283
v 0.00062120 -0.01225366 0.01742177
v 0.00006804 -0.01543539 0.00319584
v 0.01302601 -0.01025323 0.02493817
v 0.00114411 -0.00425780 0.00365485
v 0.02490172 -0.01002756 0.00000213
v 0.00017559 -0.01361904 0.01442680
v 0.00013192 -0.00033640 0.01782446
v 0.00023571 -0.00026084 0.01789191
v 0.00830096 -0.00381842 0.00396945
v 0.00048271 -0.01569657 0.00282521
v 0.00010066 -0.01375021 0.01378594
v 0.02496515 -0.00507913 0.00372118
v 0.00032301 -0.01408886 0.01320094
v 0.00055773 -0.01568597 0.00303784
v 0.00046097 -0.01435099 0.01238460
v 0.00053295 -0.01481348 0.01024158
v 0.00000433 -0.01185308 0.01721528
v 0.00257473 -0.00002907 0.01909587
v 0.02125337 -0.01256927 0.02496982
v 0.02309770 -0.00383241 0.00395021
v 0.01058639 -0.00836511 0.02498266
v 0.00045750 -0.01499621 0.00907334
v 0.00028293 -0.01515604 0.00777615
v 0.00531219 -0.00008116 0.02145031
v 0.00026556 -0.01569045 0.00139252
v 0.00046554 -0.01264992 0.01685846
v 0.02363621 -0.00373825 0.00408373
v 0.02076189 -0.00361230 0.00441837
v 0.00008090 -0.00262013 0.01833284
v 0.00005191 -0.01420372 0.01177281
v 0.00053653 -0.01554048 0.00479461
v 0.02332860 -0.01280242 0.02490498
v 0.00005404 -0.01365924 0.01382872
v 0.00843016 -0.00386853 0.02499607
v 0.01397715 -0.01080830 0.02479344
v 0.02469705 -0.01313876 0.02271271
v 0.00032423 -0.01559674 0.00387869
v 0.02484580 -0.00385182 0.00393078
v 0.00006908 -0.01114476 0.01813562
f 41 89 10
f 136 89 130
f 130 10 136
f 136 10 89
f 120 10 130
f 120 86 119
f 12 74 117
f 117 74 38
f 38 74 58
f 38 60 117
f 38 58 65
f 28 124 41
f 41 12 28
f 28 12 117
f 17 89 41
f 41 124 17
f 117 72 17
f 17 28 117
f 124 28 17
f 130 89 17
f 17 120 130
f 147 138 7
f 7 85 147
f 138 85 7
f 80 44 41
f 146 44 84
f 83 100 146
f 41 44 146
f 52 12 41
f 74 12 52
f 27 137 25
f 27 86 65
f 65 58 27
f 58 137 27
f 90 137 58
f 58 52 90
f 90 52 148
f 117 95 105
f 117 60 102
f 102 95 117
f 65 86 15
f 114 86 25
f 114 51 86
f 113 138 147
f 147 82 113
f 81 146 84
f 84 23 81
f 70 85 138
f 147 85 115
f 85 100 115
f 115 100 82
f 41 10 55
f 55 80 41
f 10 120 55
f 120 80 55
f 36 120 119
f 119 80 36
f 36 80 120
f 58 74 61
f 61 52 58
f 74 52 61
f 25 86 87
f 87 27 25
f 86 27 87
f 150 17 72
f 1 15 86
f 104 72 117
f 117 15 104
f 104 150 72
f 117 105 53
f 53 105 95
f 95 102 53
f 53 102 60
f 65 15 53
f 53 38 65
f 60 38 53
f 120 17 140
f 32 114 25
f 106 64 24
f 24 64 142
f 106 51 109
f 109 64 106
f 51 114 63
f 63 64 51
f 142 64 63
f 63 135 142
f 114 32 37
f 37 32 25
f 138 113 103
f 103 113 82
f 83 146 57
f 57 81 83
f 146 81 57
f 69 100 83
f 83 81 69
f 82 100 33
f 33 81 82
f 151 81 23
f 82 81 151
f 151 103 82
f 11 128 41
f 85 70 131
f 131 70 18
f 131 100 85
f 131 146 100
f 131 18 41
f 41 146 131
f 18 70 125
f 127 43 125
f 92 82 147
f 147 115 92
f 92 115 82
f 116 15 117
f 117 53 116
f 116 53 15
f 101 23 84
f 101 34 23
f 84 44 101
f 44 34 101
f 23 34 3
f 3 29 86
f 3 51 106
f 86 51 3
f 44 80 26
f 26 34 44
f 51 64 50
f 50 109 51
f 64 109 50
f 135 42 134
f 100 69 133
f 133 69 81
f 133 33 100
f 81 33 133
f 106 91 129
f 129 3 106
f 91 103 4
f 103 151 4
f 4 129 91
f 56 134 128
f 135 134 56
f 142 135 56
f 127 125 56
f 41 18 144
f 144 127 41
f 144 43 127
f 18 125 19
f 19 125 43
f 19 144 18
f 43 144 19
f 39 140 17
f 17 2 39
f 13 1 86
f 86 120 13
f 120 140 13
f 140 39 13
f 13 39 2
f 17 139 68
f 68 139 1
f 150 104 21
f 29 46 75
f 119 86 75
f 86 29 75
f 29 3 20
f 141 46 20
f 20 46 29
f 30 26 80
f 34 26 30
f 141 20 30
f 30 3 34
f 30 20 3
f 25 137 47
f 47 37 25
f 126 90 148
f 41 128 22
f 128 134 22
f 62 4 151
f 129 4 62
f 62 151 23
f 23 3 62
f 3 129 62
f 127 56 8
f 41 127 8
f 8 11 41
f 128 11 8
f 8 56 128
f 142 56 16
f 16 56 125
f 66 70 138
f 138 103 66
f 66 103 91
f 1 13 14
f 14 68 1
f 15 1 54
f 54 111 15
f 150 21 71
f 77 30 80
f 141 30 77
f 77 46 141
f 77 75 46
f 77 80 119
f 119 75 77
f 137 90 6
f 37 110 99
f 135 63 99
f 99 63 114
f 114 37 99
f 143 35 126
f 118 16 125
f 118 125 70
f 70 66 118
f 118 66 97
f 97 66 73
f 73 91 106
f 73 66 91
f 48 2 17
f 48 96 2
f 17 68 48
f 78 13 2
f 121 93 111
f 111 54 121
f 121 132 93
f 150 71 79
f 49 21 104
f 90 126 122
f 122 6 90
f 126 35 122
f 35 149 122
f 135 99 107
f 35 143 107
f 45 149 35
f 35 107 45
f 45 107 99
f 45 99 110
f 110 149 45
f 76 126 148
f 41 88 76
f 76 52 41
f 148 52 76
f 16 118 123
f 142 16 123
f 123 112 142
f 123 118 97
f 97 73 145
f 145 123 97
f 112 123 145
f 145 73 106
f 106 24 145
f 145 24 142
f 142 112 145
f 5 14 13
f 13 78 5
f 5 78 2
f 2 96 5
f 1 139 108
f 132 121 108
f 108 54 1
f 108 121 54
f 150 79 40
f 40 79 111
f 111 79 98
f 98 79 71
f 98 49 111
f 98 71 21
f 21 49 98
f 15 111 67
f 111 49 67
f 6 122 31
f 31 149 110
f 31 122 149
f 31 110 37
f 37 47 31
f 31 47 137
f 137 6 31
f 9 143 126
f 126 76 9
f 9 76 143
f 94 107 143
f 143 76 94
f 94 76 88
f 94 88 41
f 41 22 94
f 94 134 42
f 94 42 135
f 135 107 94
f 94 22 134
f 59 108 139
f 132 108 59
f 150 132 59
f 17 150 59
f 59 139 17
f 68 14 5
f 5 48 68
f 96 48 5
f 111 93 40
f 40 132 150
f 93 132 40
f 67 49 104
f 67 104 15

