# https://github.com/mikedh/trimesh
v -0.04877906 -0.00014847 -0.07981648
v -0.03633235 -0.03481996 -0.09926948
v -0.04969847 -0.00080494 -0.07507947
v -0.04564973 -0.03161819 -0.05026957
v -0.04902277 -0.02805300 -0.05209124
v -0.01770555 -0.03894882 -0.05007386
v -0.04573591 -0.03155267 -0.05019405
v -0.00135287 -0.03948048 -0.05022971
v -0.03843657 -0.03448667 -0.09996325
v -0.04004557 -0.03414559 -0.09998827
v -0.02932524 -0.03555157 -0.09996545
v -0.04999944 -0.01544206 -0.07351553
v -0.04979180 -0.02714507 -0.05831649
v -0.00091004 -0.03573723 -0.09552088
v -0.04694762 -0.00064503 -0.09831022
v -0.04548199 -0.03206631 -0.09903251
v -0.04721124 -0.00024695 -0.09114198
v -0.00413094 -0.03565320 -0.09950281
v -0.04901200 -0.02805018 -0.05157545
v -0.04499119 -0.03297292 -0.09981150
v -0.03272317 -0.03525610 -0.09970837
v -0.03094089 -0.03731793 -0.05271324
v -0.04771126 -0.02957175 -0.05055877
v -0.04664421 -0.03070698 -0.05041246
v -0.00000099 -0.03879124 -0.05812341
v -0.02939332 -0.03768640 -0.05036302
v -0.04345620 -0.03314865 -0.05091175
v -0.01363497 -0.03594358 -0.09983123
v -0.04716908 -0.00019536 -0.09237737
v -0.04792510 -0.02968211 -0.06792726
v -0.01251577 -0.03925446 -0.05005212
v -0.04691895 -0.03041877 -0.05060270
v -0.04693958 -0.00141700 -0.09930294
v -0.04542659 -0.03239029 -0.09766281
v -0.04006434 -0.03487192 -0.05054647
v -0.03838464 -0.03548623 -0.05012012
v -0.04860893 -0.02857369 -0.05085729
v -0.04700584 -0.01671499 -0.09968047
v -0.04155097 -0.03416413 -0.05062696
v -0.04410524 -0.03323991 -0.09943024
v -0.04729314 -0.03043733 -0.07754386
v -0.04841659 -0.00008734 -0.08167536
v -0.04697142 -0.00650660 -0.09965468
v -0.04085922 -0.03452432 -0.05058616
v -0.04996411 -0.01694282 -0.07358765
v -0.00299183 -0.03940433 -0.05099075
v -0.04844954 -0.02879868 -0.05264867
v -0.03513459 -0.03496325 -0.09954814
v -0.00000090 -0.03676685 -0.08308033
v -0.03590710 -0.03486956 -0.09948582
v -0.00146633 -0.03551413 -0.09868448
v -0.04881611 -0.02881969 -0.07208637
v -0.01714309 -0.03602491 -0.09966182
v -0.04994177 -0.02656269 -0.07090883
v -0.04945216 -0.02735716 -0.05111381
v -0.02620567 -0.03811847 -0.05072156
v -0.04762225 -0.02968149 -0.05128209
v -0.02157393 -0.03589895 -0.09998222
v -0.04865562 -0.02856909 -0.05269973
v -0.02983656 -0.03557424 -0.09870393
v -0.00001073 -0.03625756 -0.08869107
v -0.03318706 -0.03690311 -0.05118802
v -0.04942309 -0.02801363 -0.06927524
v -0.00026789 -0.03931116 -0.05216894
v -0.03629314 -0.03616320 -0.05106723
v -0.02359216 -0.03848809 -0.05015689
v -0.03537632 -0.03643921 -0.05030435
v -0.04997583 -0.00142046 -0.07403468
v -0.04391363 -0.03286779 -0.05024465
v -0.00031828 -0.03686672 -0.08224336
v -0.04991834 -0.02697617 -0.06291151
v -0.01201115 -0.03591741 -0.09973247
v -0.00051943 -0.03535194 -0.09912076
v -0.00537561 -0.03593043 -0.09736005
v -0.04937553 -0.02756073 -0.05218404
v -0.00031581 -0.03936636 -0.05150039
v -0.00170650 -0.03542565 -0.09992391
v -0.04938106 -0.02810052 -0.07056091
v -0.02812731 -0.03560464 -0.09998510
v -0.02562008 -0.03818618 -0.05097237
v -0.04949352 -0.02745616 -0.05394246
v -0.02322076 -0.03853061 -0.05016232
v -0.00012478 -0.03702352 -0.08016515
v -0.02738580 -0.03797596 -0.05031189
v -0.00721128 -0.03585872 -0.09933621
v -0.00648774 -0.03937060 -0.05058114
v -0.04997320 -0.02645035 -0.05068899
v -0.04894659 -0.02866246 -0.07190673
v -0.04970987 -0.02717080 -0.05466451
v -0.00548574 -0.03574747 -0.09964213
v -0.04651854 -0.03084112 -0.05119605
v -0.04811029 -0.02959978 -0.07621971
f 68 38 12
f 3 68 8
f 76 3 8
f 38 68 43
f 68 33 43
f 10 20 43
f 43 20 38
f 77 43 33
f 64 25 42
f 42 76 64
f 1 76 42
f 3 76 1
f 42 29 1
f 87 68 12
f 8 68 87
f 40 20 10
f 20 40 65
f 17 29 42
f 73 77 33
f 6 31 36
f 20 65 36
f 10 43 58
f 43 77 58
f 12 38 45
f 54 87 12
f 12 45 54
f 54 45 38
f 69 36 7
f 7 36 31
f 8 87 7
f 7 31 8
f 70 77 49
f 61 73 29
f 29 17 61
f 61 17 42
f 61 25 49
f 42 25 61
f 15 73 33
f 29 73 15
f 15 1 29
f 3 1 15
f 15 33 68
f 68 3 15
f 6 36 66
f 67 36 65
f 67 62 26
f 26 66 67
f 67 66 36
f 67 65 40
f 67 40 10
f 10 62 67
f 44 36 69
f 11 31 6
f 8 31 86
f 31 58 86
f 85 64 76
f 87 54 71
f 16 54 38
f 38 20 16
f 26 62 22
f 41 92 20
f 4 20 69
f 69 7 4
f 4 7 20
f 20 7 91
f 91 7 24
f 91 41 20
f 24 41 91
f 87 37 23
f 23 7 87
f 24 7 23
f 83 70 49
f 64 70 83
f 49 25 83
f 25 64 83
f 77 73 51
f 49 77 51
f 51 61 49
f 84 66 26
f 69 20 27
f 20 36 35
f 35 44 20
f 36 44 35
f 79 58 31
f 31 11 79
f 10 58 79
f 6 66 82
f 82 11 6
f 66 21 82
f 53 86 58
f 53 76 8
f 53 85 76
f 30 41 24
f 92 41 30
f 20 92 52
f 52 88 20
f 92 30 52
f 52 30 24
f 34 16 20
f 87 71 13
f 13 89 87
f 71 63 13
f 13 63 89
f 73 61 14
f 14 51 73
f 61 51 14
f 66 84 56
f 20 44 39
f 39 27 20
f 39 44 69
f 69 27 39
f 50 56 84
f 11 21 9
f 10 79 9
f 9 79 11
f 26 22 9
f 9 62 10
f 9 22 62
f 60 21 11
f 11 82 60
f 60 82 21
f 8 86 46
f 46 53 8
f 86 53 46
f 85 53 28
f 28 58 77
f 28 53 58
f 77 70 18
f 74 70 64
f 64 85 74
f 47 52 23
f 24 23 32
f 32 52 24
f 87 89 55
f 89 75 55
f 75 19 55
f 55 37 87
f 55 19 37
f 78 71 54
f 78 63 71
f 54 16 78
f 16 34 78
f 20 88 78
f 78 34 20
f 48 21 66
f 66 50 48
f 48 9 21
f 50 9 48
f 66 56 80
f 80 50 66
f 56 50 80
f 2 50 84
f 2 84 26
f 2 9 50
f 26 9 2
f 90 28 77
f 77 18 90
f 90 74 85
f 90 18 70
f 70 74 90
f 23 52 57
f 57 32 23
f 52 32 57
f 63 78 59
f 59 78 88
f 88 52 59
f 52 47 59
f 81 75 89
f 89 63 81
f 85 28 72
f 72 90 85
f 28 90 72
f 5 81 63
f 63 59 5
f 5 59 37
f 37 19 5
f 59 47 23
f 59 23 37
f 75 81 5
f 5 19 75

