# https://github.com/mikedh/trimesh
v 0.02831508 0.00028434 -0.00220145
v 0.03642712 0.00914605 -0.04861343
v 0.03184197 0.00500000 -0.04919524
v 0.03600175 0.00799695 -0.04575399
v 0.00019748 0.01000000 -0.00277339
v 0.03581695 0.00661504 -0.04531417
v 0.03100849 0.00000000 -0.01818018
v 0.03665874 0.04977601 -0.04539564
v 0.03532780 0.04227716 -0.03786382
v 0.00058200 0.00000000 -0.01495144
v 0.02869043 0.03639881 -0.00030287
v 0.03406099 0.00512479 -0.04840458
v 0.02968168 0.02932309 -0.00591243
v 0.03593730 0.00769409 -0.04541289
v 0.03046412 0.00000000 -0.02583406
v 0.00526164 0.01000000 -0.00004123
v 0.03731418 0.04954544 -0.04910479
v 0.02708448 0.00000000 -0.02899661
v 0.03285846 0.02225308 -0.02388986
v 0.03567742 0.00666309 -0.04789149
v 0.02949784 0.04988768 -0.03762817
v 0.03527335 0.04996270 -0.03920499
v 0.03592382 0.00705859 -0.04563666
v 0.02881646 0.03515100 -0.00101611
v 0.02880211 0.03572901 -0.00093488
v 0.03544325 0.00516238 -0.04357529
v 0.02864216 0.03901716 -0.00002972
v 0.00009698 0.00499999 -0.04515013
v 0.03404717 0.02274647 -0.03061671
v 0.03152695 0.00014014 -0.02037750
v 0.02557339 0.04998101 -0.01541969
v 0.00005558 0.00500000 -0.03233561
v 0.00010730 0.00000000 -0.02962598
v 0.01490627 0.00000000 -0.00121872
v 0.03115804 0.00542731 -0.04999553
v 0.00013421 0.00499999 -0.04656099
v 0.03054781 0.02573031 -0.01081383
v 0.02906006 0.03276431 -0.00239466
v 0.03540874 0.00501967 -0.04452570
v 0.00000916 0.01000000 -0.00685671
v 0.03524214 0.00610775 -0.04818882
v 0.03609478 0.00767968 -0.04713250
v 0.03387606 0.00562146 -0.04937744
v 0.03331191 0.00558247 -0.04973206
v 0.03651965 0.03023414 -0.04460852
v 0.03476655 0.00598709 -0.04898919
v 0.03376827 0.03623042 -0.02903842
v 0.00136436 0.00000000 -0.03099666
v 0.03164875 0.00000000 -0.02251314
v 0.02872585 0.00019860 -0.00452600
v 0.03446960 0.02345965 -0.03300727
v 0.03461465 0.00592232 -0.04906442
v 0.02793291 0.00068158 -0.00003874
v 0.02929942 0.03094356 -0.00374920
v 0.00080724 0.01000000 -0.00056023
v 0.03674205 0.01295776 -0.04988965
v 0.03474477 0.00639920 -0.04965092
v 0.02489754 0.04993654 -0.01159502
v 0.03556924 0.00714160 -0.04926452
v 0.02864355 0.04800905 -0.00003763
v 0.03602874 0.00745539 -0.04783121
v 0.03108625 0.00001635 -0.02486545
v 0.03597686 0.00748162 -0.04827499
v 0.02100719 0.00000000 -0.03382480
v 0.02921274 0.00018221 -0.00728134
v 0.03390641 0.02345909 -0.02982015
v 0.03642512 0.00916668 -0.04939939
v 0.03576001 0.00698816 -0.04834616
v 0.03113595 0.02431253 -0.01414214
v 0.02879461 0.04891907 -0.00089246
v 0.02594893 0.00500000 -0.04986580
v 0.03744894 0.03923779 -0.04986737
v 0.03040208 0.04971752 -0.03993790
v 0.02680383 0.00000000 -0.00011796
v 0.00025122 0.00000000 -0.03000905
v 0.01403289 0.00500000 -0.04996848
v 0.02813158 0.00035961 -0.00116302
v 0.00000686 0.01000000 -0.00795892
v 0.03618448 0.00820459 -0.04879993
v 0.03562200 0.00627639 -0.04706736
v 0.03490575 0.00649331 -0.04958895
v 0.03524779 0.00502623 -0.04147061
v 0.02915769 0.04990245 -0.00294715
v 0.03410238 0.00500000 -0.04792246
v 0.03724530 0.03678091 -0.04993511
v 0.03623671 0.00827465 -0.04785173
v 0.03455195 0.00628559 -0.04971736
v 0.03670473 0.01210141 -0.04967851
v 0.00008147 0.00000000 -0.02350826
v 0.03255432 0.02225798 -0.02216868
v 0.03351895 0.00500000 -0.04860299
v 0.03741452 0.04826102 -0.04967264
v 0.03509902 0.00631897 -0.04892356
v 0.03111073 0.00500000 -0.04934828
v 0.03337736 0.00530110 -0.04920817
v 0.03730737 0.03656455 -0.04906625
v 0.03609588 0.02792464 -0.04221043
v 0.03524101 0.00712479 -0.04997068
v 0.03480229 0.00592848 -0.04880915
v 0.02826354 0.00000000 -0.00208715
v 0.02865951 0.04930194 -0.00012791
v 0.03640119 0.00933494 -0.04814451
v 0.00020115 0.00499999 -0.04870803
v 0.03520156 0.02499299 -0.03714943
v 0.00080677 0.00499999 -0.04945749
v 0.01483975 0.00023326 -0.00019410
v 0.03166222 0.02337939 -0.01712027
v 0.03586207 0.00727275 -0.04850011
v 0.01724256 0.00000000 -0.00010074
v 0.03510520 0.00642615 -0.04909095
v 0.02811242 0.00000000 -0.00152868
v 0.02336371 0.00000000 -0.03213929
v 0.03336227 0.00562288 -0.04977076
v 0.03164727 0.00000000 -0.02346533
v 0.03559320 0.00597250 -0.04632973
v 0.00198265 0.00000000 -0.03153794
v 0.02830434 0.04998780 -0.03087412
v 0.03601042 0.00731838 -0.04750943
v 0.03715667 0.03497109 -0.04821344
v 0.03581756 0.00753572 -0.04921084
v 0.00569935 0.01000000 -0.00003117
v 0.03081657 0.04999553 -0.01635745
v 0.03656953 0.00986479 -0.04927060
v 0.03569112 0.00683356 -0.04825022
v 0.03560526 0.02627834 -0.03943400
v 0.02792898 0.02225836 -0.00001644
v 0.02910177 0.00000000 -0.00670863
v 0.03660791 0.01086566 -0.04913067
v 0.03386004 0.02256562 -0.02955777
v 0.00901239 0.00500000 -0.04994358
v 0.00233217 0.00499999 -0.04977442
v 0.00009361 0.01000000 -0.01466625
v 0.03022960 0.02707274 -0.00901307
v 0.02769064 0.00000000 -0.00050291
v 0.03631798 0.00887681 -0.04773850
v 0.03567425 0.04175807 -0.03982442
v 0.00004740 0.01000000 -0.00454988
v 0.01761362 0.00000000 -0.00007175
v 0.03547712 0.00531443 -0.04309370
v 0.03376212 0.03288267 -0.02900366
v 0.00116959 0.00499999 -0.04968799
v 0.03736152 0.03900333 -0.04937266
v 0.02990319 0.04961493 -0.03992203
v 0.03668564 0.03127249 -0.04554787
v 0.03606346 0.00757143 -0.04670666
v 0.03582825 0.00677422 -0.04504619
v 0.03468765 0.00509297 -0.04741818
v 0.03491109 0.02445297 -0.03550565
v 0.02868913 0.04980155 -0.00029555
v 0.03047853 0.02659014 -0.01042178
v 0.03399690 0.02284114 -0.03033226
v 0.00011443 0.00000000 -0.01547066
f 58 55 149
f 78 58 132
f 132 58 103
f 149 55 101
f 126 27 121
f 40 58 78
f 40 137 58
f 55 58 5
f 58 137 5
f 53 27 126
f 126 121 53
f 53 121 138
f 138 121 16
f 16 101 55
f 103 58 31
f 31 117 103
f 67 56 123
f 98 56 67
f 98 113 35
f 27 53 11
f 11 53 24
f 134 53 74
f 74 53 138
f 77 1 90
f 1 77 100
f 101 16 60
f 60 16 121
f 60 121 27
f 27 11 60
f 60 11 101
f 105 75 103
f 64 141 131
f 152 5 137
f 137 40 152
f 55 5 152
f 120 98 67
f 85 98 35
f 35 76 85
f 72 56 85
f 56 98 85
f 104 119 96
f 128 96 119
f 19 129 90
f 66 70 129
f 129 70 25
f 24 37 25
f 25 70 101
f 101 11 25
f 25 11 24
f 90 1 50
f 111 53 134
f 111 77 53
f 111 100 77
f 141 64 116
f 116 105 141
f 130 64 131
f 131 85 130
f 76 64 130
f 130 85 76
f 71 76 35
f 71 64 76
f 12 113 43
f 89 40 78
f 89 152 40
f 106 16 55
f 138 16 106
f 39 147 41
f 41 80 39
f 80 115 39
f 117 31 122
f 83 58 149
f 83 31 58
f 83 122 31
f 67 123 2
f 2 86 67
f 123 23 2
f 98 120 59
f 120 68 59
f 96 128 88
f 88 56 72
f 72 96 88
f 88 123 56
f 88 128 123
f 90 129 107
f 107 77 90
f 53 77 107
f 142 96 72
f 142 29 51
f 104 96 142
f 70 66 140
f 66 9 140
f 150 37 129
f 129 25 150
f 150 25 37
f 75 105 48
f 105 116 48
f 78 132 28
f 41 147 93
f 93 59 41
f 98 59 93
f 147 12 46
f 81 93 46
f 141 105 17
f 118 39 115
f 115 61 118
f 86 42 118
f 67 86 118
f 20 80 41
f 20 115 80
f 20 68 115
f 108 68 120
f 108 61 115
f 115 68 108
f 144 128 119
f 128 97 4
f 123 128 102
f 128 4 102
f 129 37 69
f 69 107 129
f 69 37 53
f 53 107 69
f 24 53 38
f 53 54 38
f 53 37 13
f 13 54 53
f 37 54 13
f 151 66 129
f 129 29 151
f 151 142 66
f 29 142 151
f 148 142 51
f 148 51 104
f 104 142 148
f 47 9 70
f 70 140 47
f 47 140 9
f 129 19 30
f 30 29 129
f 30 19 90
f 147 39 114
f 39 49 114
f 35 113 44
f 113 95 44
f 35 44 3
f 3 44 95
f 84 12 147
f 32 89 78
f 78 28 32
f 32 28 89
f 36 132 103
f 36 28 132
f 89 28 33
f 28 36 33
f 103 75 33
f 33 36 103
f 138 106 109
f 106 34 109
f 10 34 106
f 55 152 10
f 10 106 55
f 110 81 98
f 98 93 110
f 110 93 81
f 99 93 147
f 147 46 99
f 99 46 93
f 52 46 12
f 143 105 103
f 143 17 105
f 141 17 92
f 131 141 92
f 92 142 72
f 92 17 142
f 72 85 92
f 92 85 131
f 117 122 22
f 122 83 22
f 136 17 9
f 142 17 136
f 136 9 66
f 66 142 136
f 145 42 86
f 86 2 145
f 145 2 23
f 145 23 139
f 26 118 139
f 39 118 26
f 26 49 39
f 139 118 6
f 6 118 42
f 6 145 139
f 42 145 6
f 124 20 41
f 68 20 124
f 41 59 124
f 124 59 68
f 67 118 79
f 79 118 61
f 79 120 67
f 79 108 120
f 45 97 128
f 128 144 45
f 45 125 97
f 104 125 45
f 45 119 104
f 45 144 119
f 135 146 23
f 135 23 123
f 123 102 135
f 133 54 37
f 133 38 54
f 133 37 24
f 24 38 133
f 49 30 7
f 90 50 65
f 65 30 90
f 29 30 82
f 51 29 82
f 82 30 49
f 104 51 82
f 82 26 139
f 49 26 82
f 82 125 104
f 82 4 97
f 97 125 82
f 146 135 82
f 62 114 15
f 147 114 62
f 15 84 62
f 62 84 147
f 91 3 95
f 113 12 91
f 91 95 113
f 12 84 91
f 64 3 91
f 15 18 91
f 91 84 15
f 94 3 64
f 64 71 94
f 35 3 94
f 94 71 35
f 46 52 87
f 43 113 87
f 87 12 43
f 87 52 12
f 113 98 87
f 103 117 21
f 21 143 103
f 117 22 21
f 61 108 63
f 63 79 61
f 108 79 63
f 127 7 30
f 30 65 127
f 127 65 50
f 1 100 127
f 127 50 1
f 4 82 14
f 14 82 135
f 64 91 112
f 112 91 18
f 81 46 57
f 46 87 57
f 98 81 57
f 57 87 98
f 17 143 73
f 73 21 17
f 143 21 73
f 17 21 8
f 8 21 22
f 8 22 83
f 8 83 149
f 149 101 8
f 9 17 8
f 101 70 8
f 70 9 8
f 23 146 82
f 139 23 82
f 14 102 4
f 14 135 102
f 134 74 112
f 112 111 134
f 75 48 112
f 112 74 138
f 112 18 15
f 15 114 112
f 112 10 152
f 100 111 112
f 112 116 64
f 152 89 112
f 112 33 75
f 112 48 116
f 112 127 100
f 138 109 112
f 112 114 49
f 89 33 112
f 112 109 34
f 34 10 112
f 49 7 112
f 7 127 112

