# https://github.com/mikedh/trimesh
v 0.04427603 -0.01216055 -0.02104019
v 0.04891718 -0.00910968 -0.00026700
v 0.03213145 -0.01179207 -0.02413451
v 0.04802143 -0.01228779 -0.02484746
v 0.04264920 -0.01232889 -0.02437916
v 0.02615833 -0.00407374 -0.00374695
v 0.04963508 -0.01224130 -0.02318079
v 0.04525858 -0.01215154 -0.02105864
v 0.03326531 -0.01193304 -0.02384096
v 0.03576217 -0.00361452 -0.00441218
v 0.03246787 -0.01192080 -0.02291530
v 0.04998434 -0.00539150 -0.00399647
v 0.03838620 -0.01224486 -0.02303852
v 0.03643631 -0.00359919 -0.00456365
v 0.03508225 -0.01198020 -0.02492527
v 0.04365417 -0.01234669 -0.02396012
v 0.03917108 -0.01226668 -0.02301625
v 0.02972908 -0.01135638 -0.02494789
v 0.03058034 -0.00363537 -0.00486027
v 0.03247534 -0.00371338 -0.00413340
v 0.03416623 -0.01197944 -0.02414849
v 0.03459407 -0.00363657 -0.00432987
v 0.03510916 -0.01209460 -0.02320413
v 0.04970226 -0.01218084 -0.02214862
v 0.02528078 -0.01134558 -0.01858656
v 0.04208932 -0.01230176 -0.02493055
v 0.02963453 -0.01140251 -0.02464263
v 0.03784847 -0.00371758 -0.00412448
v 0.04142460 -0.00381203 -0.00398058
v 0.02588566 -0.01143387 -0.02088040
v 0.04716492 -0.00386928 -0.00391562
v 0.02506680 -0.01079386 -0.02391091
v 0.04934061 -0.00359702 -0.00458866
v 0.04983354 -0.00364540 -0.00429713
v 0.02704599 -0.01151478 -0.02143934
v 0.03691719 -0.01219356 -0.02305383
v 0.04989331 -0.00417677 -0.00369396
v 0.04223918 -0.01225481 -0.02236129
v 0.03864937 -0.01207750 -0.02087835
v 0.03718711 -0.01218876 -0.02253012
v 0.04418562 -0.01218108 -0.02128715
v 0.04227812 -0.00361128 -0.00476926
v 0.03811653 -0.01217320 -0.02209193
v 0.04386289 -0.01232428 -0.02477987
v 0.02518996 -0.01119453 -0.02239729
v 0.04440517 -0.00374725 -0.00407313
v 0.02511412 -0.01134478 -0.02117083
v 0.03849411 -0.01222727 -0.02415367
v 0.02762687 -0.01144573 -0.02285051
v 0.02507571 -0.00451899 -0.00360396
v 0.04974191 -0.01226796 -0.02371896
v 0.04677710 -0.00361066 -0.00443273
v 0.04663096 -0.00359632 -0.00459837
v 0.04175435 -0.01230583 -0.02301857
v 0.04578029 -0.00365261 -0.00492480
v 0.04165897 -0.01231139 -0.02310024
v 0.04956454 -0.01225739 -0.02461316
v 0.03199707 -0.00397415 -0.00381676
v 0.04891190 -0.00362880 -0.00483599
v 0.04346808 -0.01226277 -0.02228828
v 0.04910171 -0.01226933 -0.02479334
v 0.02879566 -0.01149915 -0.02346877
v 0.02936177 -0.00360172 -0.00465988
v 0.04075660 -0.01215164 -0.02140415
v 0.03635140 -0.00391100 -0.00387376
v 0.04811343 -0.00394876 -0.00383616
v 0.04212553 -0.01230293 -0.02492258
v 0.03147713 -0.01177794 -0.02370908
v 0.04992114 -0.01208322 -0.02112138
v 0.02781942 -0.00393449 -0.00385017
v 0.03170332 -0.01171597 -0.02443017
v 0.04913719 -0.00359684 -0.00460436
v 0.04592270 -0.01230970 -0.02472622
v 0.02543268 -0.01141346 -0.02044267
v 0.04725666 -0.00368657 -0.00419110
v 0.02747907 -0.01155933 -0.02137537
v 0.03569284 -0.00361043 -0.00475951
v 0.02853585 -0.00360872 -0.00445463
v 0.04969686 -0.01227945 -0.02398269
v 0.03913014 -0.00881866 -0.00003102
v 0.04165888 -0.01211423 -0.02086752
v 0.03426231 -0.01189983 -0.02492065
v 0.04395922 -0.00366096 -0.00494894
v 0.02642997 -0.01147093 -0.01952844
v 0.04882109 -0.00364009 -0.00487812
v 0.04064702 -0.00390974 -0.00387508
v 0.04876795 -0.01227599 -0.02485626
v 0.04239864 -0.01231314 -0.02479211
v 0.02951281 -0.01162963 -0.01969232
v 0.02966542 -0.01146446 -0.02433558
v 0.02843516 -0.01148912 -0.02324052
v 0.03474348 -0.01195819 -0.02483829
v 0.04541271 -0.01231415 -0.02471460
v 0.02777105 -0.01128731 -0.02387371
v 0.04088203 -0.00381594 -0.00397499
v 0.03472914 -0.01207139 -0.02259845
v 0.03805838 -0.00372430 -0.00411006
v 0.03615778 -0.01213398 -0.02407717
v 0.02670894 -0.01117801 -0.02362928
v 0.04648792 -0.00387884 -0.00390606
v 0.04544158 -0.00367068 -0.00422515
v 0.03582887 -0.00365536 -0.00493494
v 0.04662193 -0.00361038 -0.00475909
v 0.02762572 -0.01156762 -0.02148429
v 0.02606433 -0.00364675 -0.00429178
v 0.04771260 -0.01214716 -0.02129581
v 0.02500421 -0.01018952 -0.00373508
v 0.03256941 -0.01174898 -0.02480385
v 0.03385903 -0.00361373 -0.00477954
v 0.03004960 -0.01167781 -0.02320795
v 0.03802229 -0.01221234 -0.02256690
v 0.03458315 -0.01198258 -0.02449907
v 0.03118636 -0.01164269 -0.02450593
v 0.04194655 -0.00879193 -0.00000526
v 0.03871556 -0.01223090 -0.02422766
v 0.03384850 -0.01202326 -0.02269254
v 0.02735056 -0.01117234 -0.02407506
v 0.04942055 -0.00394016 -0.00384477
v 0.04786524 -0.01229638 -0.02461880
v 0.02568828 -0.01109030 -0.02327700
v 0.03510056 -0.01208254 -0.02360688
v 0.04504295 -0.00887558 -0.00012805
v 0.03209697 -0.01191378 -0.02199446
v 0.03794871 -0.01215991 -0.02197188
v 0.02673392 -0.00366408 -0.00423906
v 0.03054082 -0.01173462 -0.02049115
v 0.04960152 -0.01144284 -0.01628788
v 0.04888705 -0.01228483 -0.02458210
v 0.03240368 -0.01193199 -0.02203992
v 0.02500125 -0.01116979 -0.01623545
v 0.04997032 -0.00928566 -0.00188501
v 0.03136877 -0.01173386 -0.02400744
v 0.03057121 -0.00365405 -0.00492996
v 0.02583320 -0.01070026 -0.02472827
v 0.03400668 -0.00903929 -0.00014938
v 0.04957234 -0.00393941 -0.00534953
v 0.02684261 -0.01085695 -0.02490000
v 0.04446258 -0.01231893 -0.02319852
v 0.02510020 -0.01126649 -0.01766149
v 0.03046312 -0.01174635 -0.02295737
v 0.02539937 -0.00360440 -0.00450400
v 0.04258544 -0.01234927 -0.02345273
v 0.02549502 -0.01141312 -0.01980757
v 0.03444556 -0.01204355 -0.02339677
v 0.02517516 -0.01002031 -0.00098963
v 0.03676929 -0.01214800 -0.02447107
v 0.02895950 -0.01144916 -0.02389022
v 0.04296096 -0.00362556 -0.00437109
v 0.03571028 -0.00360514 -0.00449566
v 0.04976221 -0.01171846 -0.01839736
v 0.02634727 -0.00400716 -0.00379357
v 0.02645391 -0.00371131 -0.00413777
v 0.04852383 -0.01227760 -0.02491100
v 0.02739969 -0.00359632 -0.00459809
v 0.02937828 -0.00379791 -0.00400058
v 0.03837222 -0.01223763 -0.02280292
v 0.04986847 -0.00411399 -0.00372323
v 0.02550248 -0.01068433 -0.02454101
v 0.04380051 -0.01229785 -0.02275426
v 0.04812200 -0.00364624 -0.00429397
v 0.04440226 -0.00372401 -0.00411076
v 0.03864664 -0.01205049 -0.02057589
v 0.03531995 -0.01208931 -0.02381312
v 0.04946482 -0.01214575 -0.02151169
v 0.04867437 -0.00360354 -0.00451411
v 0.03756439 -0.01221631 -0.02355914
v 0.04999989 -0.01047244 -0.01058026
v 0.03841312 -0.01218472 -0.02497487
v 0.04710751 -0.01231818 -0.02383697
v 0.03552733 -0.01205492 -0.02453539
v 0.02863390 -0.01120931 -0.02478299
v 0.04935920 -0.01214469 -0.02147904
v 0.03585496 -0.00368594 -0.00419231
v 0.03680092 -0.01219005 -0.02381927
v 0.03970581 -0.01211339 -0.02111673
v 0.02808606 -0.00366225 -0.00424300
v 0.02602707 -0.01145653 -0.02036715
v 0.04918343 -0.00363880 -0.00432177
v 0.04991446 -0.01224331 -0.02456902
v 0.04409873 -0.01233543 -0.02427719
v 0.04486538 -0.01234179 -0.02375156
v 0.03064383 -0.01178747 -0.02252296
v 0.02565745 -0.01141774 -0.01945672
v 0.04323100 -0.01227067 -0.02240781
v 0.03112929 -0.01176557 -0.02347602
v 0.04880537 -0.00365106 -0.00427598
v 0.02550639 -0.00994245 -0.00006507
v 0.04801881 -0.01230515 -0.02420173
v 0.03677102 -0.01211418 -0.02486925
v 0.04796174 -0.00385705 -0.00392787
v 0.03483711 -0.00384329 -0.00394146
v 0.03482515 -0.01196470 -0.02484906
v 0.02816455 -0.00387199 -0.00391267
v 0.02721694 -0.00380925 -0.00398436
v 0.04112668 -0.01211207 -0.02091348
v 0.04070736 -0.01218165 -0.02174586
v 0.02856390 -0.01156145 -0.01935915
v 0.03674766 -0.01213161 -0.02465127
v 0.04073270 -0.00362052 -0.00480497
v 0.03226168 -0.00360963 -0.00475031
v 0.02513391 -0.01123882 -0.02211578
f 107 50 130
f 130 50 32
f 158 32 141
f 141 32 50
f 145 107 130
f 187 50 145
f 50 107 145
f 14 33 154
f 154 141 14
f 187 114 80
f 2 114 187
f 154 33 53
f 134 32 158
f 137 32 134
f 55 85 134
f 133 102 134
f 154 133 134
f 134 141 154
f 158 141 134
f 103 42 154
f 154 53 103
f 33 34 136
f 136 34 179
f 109 85 55
f 109 102 133
f 55 102 109
f 187 80 135
f 167 179 12
f 179 34 12
f 12 131 167
f 187 1 8
f 154 200 63
f 83 102 55
f 55 134 83
f 83 134 102
f 42 103 59
f 85 109 59
f 33 136 59
f 59 136 179
f 72 53 33
f 72 103 53
f 33 59 72
f 72 59 103
f 19 109 133
f 200 109 19
f 19 63 200
f 19 133 154
f 154 63 19
f 42 109 77
f 77 109 200
f 154 42 77
f 77 200 154
f 120 32 137
f 6 80 114
f 114 151 6
f 6 135 80
f 187 135 6
f 6 50 187
f 6 141 50
f 6 105 141
f 152 105 6
f 6 151 152
f 167 131 69
f 164 24 69
f 69 179 167
f 183 25 143
f 139 25 130
f 114 2 122
f 122 157 114
f 2 157 122
f 37 2 131
f 37 157 2
f 131 12 37
f 37 12 34
f 34 157 37
f 165 34 33
f 165 52 34
f 141 105 78
f 10 78 105
f 52 78 10
f 44 26 153
f 137 134 153
f 153 26 168
f 153 134 85
f 106 8 1
f 187 8 106
f 142 159 60
f 199 109 42
f 42 59 199
f 199 59 109
f 143 25 74
f 82 108 18
f 18 153 168
f 137 153 18
f 125 105 152
f 125 176 105
f 131 2 127
f 127 2 187
f 187 69 127
f 114 157 118
f 118 66 114
f 118 157 34
f 152 151 194
f 52 165 149
f 34 52 178
f 61 59 179
f 85 59 61
f 61 153 85
f 142 5 16
f 16 5 44
f 44 153 4
f 36 174 13
f 168 189 15
f 15 18 168
f 82 18 15
f 44 5 88
f 88 5 142
f 142 48 88
f 168 26 115
f 26 48 115
f 115 174 168
f 115 48 174
f 172 159 164
f 172 106 159
f 187 106 172
f 172 69 187
f 164 69 172
f 1 60 41
f 41 60 159
f 41 106 1
f 159 106 41
f 24 169 7
f 138 24 164
f 138 169 24
f 164 159 138
f 138 159 142
f 113 108 71
f 113 18 108
f 137 18 171
f 22 10 105
f 150 69 131
f 131 127 150
f 150 127 69
f 123 183 143
f 116 129 123
f 96 129 116
f 130 25 84
f 84 197 130
f 129 197 84
f 84 123 129
f 25 183 84
f 183 123 84
f 70 194 151
f 70 151 114
f 52 10 148
f 148 178 52
f 179 79 57
f 57 61 179
f 79 61 57
f 153 61 87
f 180 16 44
f 79 169 188
f 166 13 174
f 17 13 166
f 142 17 166
f 166 48 142
f 174 48 166
f 40 124 145
f 36 13 40
f 40 145 130
f 40 96 36
f 129 96 40
f 170 15 189
f 145 124 39
f 81 1 187
f 67 26 44
f 44 88 67
f 67 48 26
f 67 88 48
f 51 169 79
f 51 7 169
f 24 7 51
f 51 69 24
f 51 79 179
f 179 69 51
f 181 138 142
f 169 138 181
f 142 16 181
f 181 188 169
f 32 120 45
f 45 201 32
f 45 120 99
f 130 32 47
f 32 201 47
f 47 139 130
f 25 139 47
f 47 74 25
f 49 47 201
f 137 171 117
f 117 120 137
f 99 120 117
f 143 74 177
f 177 123 143
f 74 123 177
f 76 123 74
f 123 76 182
f 114 66 58
f 58 70 114
f 66 70 58
f 44 4 73
f 79 188 128
f 128 61 79
f 128 87 61
f 124 40 111
f 156 13 17
f 156 40 13
f 156 111 40
f 130 197 89
f 89 40 130
f 3 132 71
f 3 68 132
f 9 68 3
f 23 121 174
f 116 121 23
f 15 170 112
f 9 3 112
f 168 174 146
f 196 54 38
f 175 54 196
f 99 18 94
f 94 45 99
f 201 45 94
f 91 49 201
f 91 113 71
f 71 132 91
f 132 49 91
f 140 47 110
f 47 49 110
f 110 49 132
f 74 47 30
f 116 123 11
f 123 182 11
f 140 9 11
f 11 182 140
f 194 70 193
f 193 191 194
f 70 65 193
f 190 75 46
f 190 118 34
f 34 75 190
f 194 191 95
f 191 190 95
f 34 160 186
f 186 75 34
f 105 176 186
f 160 22 186
f 186 22 105
f 46 97 155
f 152 194 155
f 155 97 152
f 46 75 161
f 161 97 46
f 119 73 4
f 4 128 119
f 119 128 188
f 93 180 44
f 44 73 93
f 43 39 124
f 124 111 43
f 56 156 17
f 56 17 142
f 142 54 56
f 129 40 126
f 40 89 126
f 126 197 129
f 126 89 197
f 71 15 92
f 92 3 71
f 9 112 21
f 21 112 170
f 174 121 163
f 163 11 9
f 121 11 163
f 198 170 189
f 198 146 170
f 170 146 98
f 98 146 174
f 174 163 98
f 184 38 54
f 142 60 184
f 184 54 142
f 64 175 196
f 195 175 64
f 162 175 195
f 195 81 162
f 162 81 187
f 39 175 162
f 187 145 162
f 145 39 162
f 18 113 27
f 27 94 18
f 201 94 147
f 62 91 201
f 113 91 62
f 201 147 62
f 62 147 113
f 140 110 185
f 185 9 140
f 185 68 9
f 35 30 47
f 35 47 140
f 144 121 116
f 116 11 144
f 144 11 121
f 86 65 118
f 86 193 65
f 101 186 176
f 75 186 101
f 46 155 29
f 29 190 46
f 29 95 190
f 173 161 75
f 173 125 152
f 15 112 192
f 192 92 15
f 94 27 90
f 90 147 94
f 90 27 113
f 113 147 90
f 30 35 104
f 104 35 140
f 140 182 104
f 104 182 76
f 100 86 118
f 20 173 152
f 118 190 31
f 31 100 118
f 161 173 28
f 173 20 28
f 149 78 52
f 141 78 149
f 149 165 33
f 33 14 149
f 149 14 141
f 15 108 82
f 71 108 15
f 34 178 148
f 148 160 34
f 10 22 148
f 148 22 160
f 117 171 18
f 117 18 99
f 153 87 128
f 128 4 153
f 36 96 23
f 23 174 36
f 23 96 116
f 65 70 66
f 66 118 65
f 16 180 93
f 188 181 93
f 93 181 16
f 93 119 188
f 73 119 93
f 39 43 56
f 54 175 56
f 56 175 39
f 111 156 56
f 56 43 111
f 168 146 198
f 198 189 168
f 98 163 9
f 9 21 98
f 98 21 170
f 1 81 64
f 64 60 1
f 64 184 60
f 64 81 195
f 196 38 64
f 38 184 64
f 185 110 132
f 132 68 185
f 29 155 194
f 194 95 29
f 176 125 173
f 173 101 176
f 75 101 173
f 192 112 3
f 3 92 192
f 74 30 104
f 104 76 74
f 31 190 191
f 191 193 31
f 193 86 31
f 86 100 31
f 97 161 28
f 152 97 28
f 28 20 152

