# https://github.com/mikedh/trimesh
v -0.05748998 -0.04530650 -0.14813202
v -0.05016464 -0.00032114 -0.14885469
v -0.09370164 -0.01440680 -0.13067674
v -0.08314527 -0.00002571 -0.12798336
v -0.05002606 -0.00476480 -0.14900440
v -0.06572167 -0.04520562 -0.14319320
v -0.09336369 -0.00250455 -0.13058623
v -0.09942324 -0.01729457 -0.13339743
v -0.09152004 -0.04517473 -0.14771813
v -0.05003300 -0.00887984 -0.11677278
v -0.09490743 -0.01641511 -0.13109194
v -0.07031924 -0.04525787 -0.14990509
v -0.05128735 -0.00042913 -0.11941676
v -0.09465769 -0.00401377 -0.13101618
v -0.09476140 -0.00461625 -0.13105304
v -0.09911317 -0.00053154 -0.13300517
v -0.06275443 -0.00004697 -0.12640010
v -0.09886641 -0.00076875 -0.14307989
v -0.09096540 -0.01320595 -0.12976099
v -0.09068313 -0.01003812 -0.12967200
v -0.09484487 -0.00193197 -0.13109630
v -0.08792136 -0.03588134 -0.13441782
v -0.09051832 -0.04513315 -0.14277284
v -0.08505558 -0.04520093 -0.14995270
v -0.09617928 -0.04515607 -0.14651661
v -0.07999223 -0.03584779 -0.13340025
v -0.09979078 -0.00481955 -0.13329735
v -0.07334511 -0.00001716 -0.13755622
v -0.05190302 -0.00021101 -0.12032383
v -0.09435421 -0.00083615 -0.13092010
v -0.05002967 -0.01501475 -0.11663617
v -0.09229391 -0.00583179 -0.13021994
v -0.06028496 -0.04529483 -0.14654142
v -0.09828016 -0.04514889 -0.14826680
v -0.09997898 -0.03211424 -0.13895596
v -0.09260469 -0.00006506 -0.13994271
v -0.09349941 -0.03583936 -0.13598869
v -0.05519780 -0.00012575 -0.14469967
v -0.09426545 -0.01312368 -0.13086819
v -0.09995637 -0.03469169 -0.13893382
v -0.05460683 -0.04419930 -0.14985024
v -0.09519798 -0.04515902 -0.14497015
v -0.08378536 -0.03577307 -0.13360016
v -0.08661486 -0.03579421 -0.13411162
v -0.07773108 -0.04522427 -0.14080708
v -0.09471016 -0.00938722 -0.13102410
v -0.07031932 -0.04525364 -0.14212356
v -0.07955527 -0.04514905 -0.14088908
v -0.05467245 -0.03772332 -0.14977501
v -0.09454502 -0.01731221 -0.13101240
v -0.09834250 -0.03584304 -0.13806800
v -0.06287784 -0.00002615 -0.14044321
v -0.05001867 -0.03090991 -0.13116061
v -0.09319409 -0.00043512 -0.13053828
v -0.09195013 -0.01388759 -0.13009010
v -0.06066267 -0.04529309 -0.14602502
v -0.05003332 -0.00233210 -0.11694868
v -0.05002155 -0.03551959 -0.14743011
v -0.09968085 -0.03583860 -0.13942527
v -0.09202384 -0.04517401 -0.14998282
v -0.09339964 -0.00123167 -0.13060308
v -0.09520034 -0.04515997 -0.14673369
v -0.09978489 -0.04149718 -0.14777950
v -0.08978135 -0.00700525 -0.12938499
v -0.09826675 -0.04443927 -0.14666196
v -0.07006432 -0.04491451 -0.14171096
v -0.09827354 -0.01705124 -0.13259120
v -0.09050963 -0.00199922 -0.12964519
v -0.05021937 -0.01747551 -0.11753497
v -0.05494360 -0.04524668 -0.14956064
v -0.09238372 -0.00492344 -0.13025298
v -0.09978759 -0.01603008 -0.13326869
v -0.09793933 -0.00017307 -0.14259902
v -0.09875335 -0.03542224 -0.13818140
v -0.09994842 -0.00381245 -0.14385984
v -0.06298353 -0.04528319 -0.14432651
v -0.05001120 -0.02339716 -0.14909500
v -0.08968424 -0.01491407 -0.12934516
v -0.08373671 -0.00003482 -0.12807680
v -0.08994981 -0.00796379 -0.12943691
v -0.09906583 -0.04514679 -0.14998990
v -0.09390184 -0.01407828 -0.13074449
v -0.09350439 -0.01465238 -0.13061012
v -0.09387084 -0.01724103 -0.13073365
v -0.06719304 -0.04526997 -0.14993951
v -0.06265034 -0.04528748 -0.14985167
v -0.09535495 -0.03584612 -0.13676458
v -0.05012729 -0.00161981 -0.11717849
v -0.05031081 -0.03603499 -0.14960926
v -0.09996149 -0.03414767 -0.13893871
v -0.09080875 -0.01235807 -0.12970996
v -0.09706053 -0.01717965 -0.13205009
v -0.05008493 -0.03406695 -0.13171157
v -0.07325356 -0.04524190 -0.14138444
v -0.08731324 -0.04518792 -0.14206874
v -0.05000106 -0.03566200 -0.14005507
v -0.09062084 -0.01674284 -0.12966150
v -0.09036834 -0.01352907 -0.12956432
v -0.09285522 -0.01727994 -0.13039945
v -0.09508148 -0.00080678 -0.13120445
v -0.09053922 -0.00934589 -0.12962626
v -0.05723064 -0.04530809 -0.14921085
v -0.08897772 -0.00048255 -0.12918265
f 96 31 53
f 53 93 96
f 31 93 53
f 69 93 31
f 31 10 103
f 90 72 35
f 38 29 2
f 13 88 2
f 2 29 13
f 49 89 41
f 96 93 70
f 41 89 70
f 27 72 16
f 35 72 27
f 2 81 75
f 75 27 16
f 35 27 75
f 31 78 97
f 88 103 57
f 57 103 10
f 2 88 57
f 57 31 96
f 57 10 31
f 63 75 81
f 63 90 35
f 35 75 63
f 79 103 88
f 88 13 79
f 79 13 29
f 29 4 79
f 5 81 2
f 5 49 81
f 89 49 5
f 5 77 89
f 2 57 5
f 5 57 96
f 96 77 5
f 85 49 41
f 73 38 2
f 16 79 73
f 50 37 84
f 31 97 99
f 99 37 31
f 84 37 99
f 11 15 92
f 92 50 11
f 11 50 84
f 98 78 31
f 98 19 84
f 16 72 100
f 31 103 68
f 92 15 67
f 17 4 29
f 29 38 17
f 38 52 17
f 28 4 17
f 17 52 28
f 54 79 16
f 103 79 54
f 16 100 54
f 54 100 30
f 54 68 103
f 58 77 96
f 89 77 58
f 96 70 58
f 58 70 89
f 81 49 60
f 49 85 60
f 45 94 93
f 93 69 45
f 45 69 26
f 2 75 18
f 18 73 2
f 18 75 16
f 16 73 18
f 36 52 38
f 38 73 36
f 28 52 36
f 36 4 28
f 36 79 4
f 36 73 79
f 92 67 51
f 14 15 46
f 15 11 46
f 21 100 72
f 72 67 21
f 21 67 15
f 21 15 14
f 14 30 21
f 30 100 21
f 34 65 81
f 12 1 94
f 93 94 66
f 66 6 93
f 70 1 102
f 102 12 85
f 1 12 102
f 93 6 76
f 76 70 93
f 76 1 70
f 23 37 87
f 87 51 23
f 92 51 87
f 87 50 92
f 37 50 87
f 65 51 59
f 81 65 59
f 59 63 81
f 8 67 72
f 39 11 84
f 39 46 11
f 98 101 20
f 31 68 64
f 94 25 62
f 62 12 94
f 48 95 45
f 22 37 23
f 23 95 22
f 22 69 31
f 31 37 22
f 42 51 65
f 23 51 42
f 42 34 25
f 65 34 42
f 42 25 94
f 42 95 23
f 94 45 42
f 45 95 42
f 70 102 86
f 86 102 85
f 41 70 86
f 86 85 41
f 1 76 56
f 74 59 51
f 74 8 72
f 74 51 67
f 67 8 74
f 90 63 40
f 63 59 40
f 59 74 40
f 72 90 40
f 40 74 72
f 32 101 30
f 32 20 101
f 19 98 91
f 98 20 91
f 61 54 30
f 30 7 61
f 30 101 71
f 71 7 30
f 80 98 31
f 31 64 80
f 80 101 98
f 24 60 85
f 85 12 24
f 95 48 43
f 43 45 26
f 43 48 45
f 26 69 43
f 94 1 33
f 1 56 33
f 47 56 76
f 47 76 6
f 94 33 47
f 47 33 56
f 47 66 94
f 6 66 47
f 84 19 55
f 55 83 84
f 82 39 84
f 12 62 9
f 9 24 12
f 44 22 95
f 95 43 44
f 69 22 44
f 44 43 69
f 84 83 3
f 3 82 84
f 98 99 97
f 98 97 78
f 84 99 98
f 80 64 68
f 68 54 80
f 54 61 80
f 80 71 101
f 80 61 7
f 7 71 80
f 9 34 81
f 81 60 9
f 25 34 9
f 9 62 25
f 60 24 9
f 19 91 3
f 3 30 14
f 3 32 30
f 14 46 3
f 46 39 3
f 3 55 19
f 20 32 3
f 3 91 20
f 83 55 3
f 39 82 3

