# https://github.com/mikedh/trimesh
v 0.07778805 -0.00057736 -0.02688257
v 0.05992627 -0.04557659 -0.02221370
v 0.07275640 -0.02965852 -0.00841754
v 0.07540809 -0.03083144 -0.04789131
v 0.05177736 -0.04743776 -0.01421614
v 0.07181620 -0.03514709 -0.02293043
v 0.07045445 -0.03451990 -0.00545183
v 0.07326485 -0.03394564 -0.03305912
v 0.05881838 -0.04451650 -0.00211645
v 0.07715070 -0.02521079 -0.04917202
v 0.05499386 -0.04681691 -0.01460405
v 0.05840063 -0.04486482 -0.00354098
v 0.07831708 -0.01714573 -0.04450612
v 0.06368857 -0.04353639 -0.01925340
v 0.05660019 -0.04648798 -0.01784124
v 0.05876658 -0.04596905 -0.02161999
v 0.06003622 -0.04432009 -0.00352158
v 0.06295185 -0.04457881 -0.03874897
v 0.07416915 -0.02207857 -0.00957168
v 0.06015301 -0.04576863 -0.04154646
v 0.06285028 -0.04455000 -0.04979497
v 0.06030413 -0.04573963 -0.03695402
v 0.07499094 -0.02263293 -0.01520878
v 0.06871215 -0.03771490 -0.00782473
v 0.05202738 -0.04759037 -0.04803683
v 0.07690299 -0.01476592 -0.02401393
v 0.05229430 -0.04645656 -0.00628343
v 0.07745339 -0.00011201 -0.02469534
v 0.05690105 -0.04501541 -0.00254444
v 0.07806037 -0.00692303 -0.03053070
v 0.07535744 -0.02241956 -0.01780441
v 0.07588380 -0.02897764 -0.04305414
v 0.07209792 -0.03383436 -0.01833522
v 0.07225346 -0.03686173 -0.04891879
v 0.07637944 -0.02715793 -0.04165176
v 0.07472247 -0.00857659 -0.00779361
v 0.07651512 -0.02706094 -0.04332047
v 0.06322059 -0.04377000 -0.01856081
v 0.07553713 -0.02100381 -0.01782633
v 0.07118113 -0.03723898 -0.03212817
v 0.07216002 -0.03476234 -0.02446535
v 0.05915671 -0.04611186 -0.03808194
v 0.07539908 -0.03028951 -0.04204784
v 0.06579740 -0.04058935 -0.00500930
v 0.06869925 -0.04073729 -0.04165156
v 0.07422208 -0.02443653 -0.01134344
v 0.05529516 -0.04548768 -0.00334541
v 0.07928098 -0.00591902 -0.04974089
v 0.07640181 -0.01477949 -0.02045493
v 0.06140851 -0.04479727 -0.01907149
v 0.05803778 -0.04638466 -0.04421043
v 0.07668767 -0.02658168 -0.04479506
v 0.05848884 -0.04537197 -0.00853581
v 0.05997984 -0.04567295 -0.02662862
v 0.07843254 -0.01519173 -0.04317926
v 0.07110007 -0.03694588 -0.02842276
v 0.07765607 -0.01096094 -0.02823219
v 0.07772566 -0.00965069 -0.02834119
v 0.07464365 -0.02554329 -0.01610610
v 0.05477786 -0.04686155 -0.01419903
v 0.06421599 -0.04386338 -0.04924714
v 0.07355949 -0.03457650 -0.04433385
v 0.06146380 -0.04325841 -0.00099530
v 0.05732634 -0.04579586 -0.00862866
v 0.07396238 -0.03371548 -0.04214644
v 0.07535903 -0.02910768 -0.03547905
v 0.06984784 -0.03966780 -0.04308002
v 0.05842129 -0.04634417 -0.03873592
v 0.07354321 -0.02754451 -0.01015419
v 0.07679124 -0.01679471 -0.02447656
v 0.06815209 -0.03764095 -0.00269467
v 0.07271760 -0.03081353 -0.01172988
v 0.06351285 -0.04371804 -0.02043610
v 0.06613593 -0.04276220 -0.04210685
v 0.06069651 -0.04524080 -0.02183829
v 0.07689952 -0.01568374 -0.02458492
v 0.05843000 -0.04575447 -0.01310296
v 0.07423679 -0.00021260 -0.00380653
v 0.06609200 -0.04161599 -0.01727816
v 0.07360016 -0.01839626 -0.00380147
v 0.07391641 -0.02820185 -0.01551972
v 0.05486804 -0.04705491 -0.02193723
v 0.07502728 -0.02909623 -0.03118389
v 0.07903757 -0.01134608 -0.04983555
v 0.07367364 -0.03395363 -0.03938524
v 0.06011401 -0.04538697 -0.01969333
v 0.07528127 -0.03076544 -0.04267094
v 0.05744745 -0.04660648 -0.03964182
v 0.06846292 -0.04100887 -0.04622302
v 0.07515581 -0.02857663 -0.03041285
v 0.07902685 -0.00772211 -0.04510726
v 0.05312634 -0.04754950 -0.03273200
v 0.07010481 -0.03748830 -0.01988480
v 0.07926630 -0.00617074 -0.04955803
v 0.06408789 -0.04379589 -0.02953313
v 0.06070231 -0.04490928 -0.01454360
v 0.07669400 -0.02258439 -0.03204203
v 0.05382605 -0.04581255 -0.00395374
v 0.07898049 -0.00917475 -0.04497954
v 0.05009166 -0.04802071 -0.03529530
v 0.07679753 -0.01898366 -0.02765314
v 0.06974363 -0.03973430 -0.04161788
v 0.07397799 -0.02844702 -0.01696702
v 0.07383877 -0.03356765 -0.03888666
v 0.07468191 -0.02498178 -0.01549236
v 0.07863231 -0.00000386 -0.03603896
v 0.07755200 -0.00746642 -0.02595554
v 0.07570018 -0.02216513 -0.02056223
v 0.07482774 -0.02869092 -0.02705825
v 0.06363787 -0.04399473 -0.02837241
v 0.07230783 -0.03656733 -0.04255437
v 0.07056601 -0.03884580 -0.04170281
v 0.06969187 -0.03867783 -0.02499294
v 0.07882101 -0.00955684 -0.04243101
v 0.06256175 -0.04470815 -0.04898100
v 0.06666606 -0.04213729 -0.03253203
v 0.07589752 -0.02756660 -0.03652227
v 0.07237088 -0.03075136 -0.00837261
v 0.06462411 -0.04136092 -0.00340692
v 0.05458088 -0.04725427 -0.03043321
v 0.07874573 -0.00035112 -0.03748218
v 0.07219393 -0.03241194 -0.01294724
v 0.05633375 -0.04669130 -0.02276822
v 0.05319326 -0.04730028 -0.01845597
v 0.07758590 -0.00031951 -0.02555969
v 0.07359085 -0.02678880 -0.00929430
v 0.07295781 -0.03536617 -0.04140471
v 0.05820865 -0.04585599 -0.01337472
v 0.06005282 -0.04572265 -0.02982633
v 0.05713518 -0.04618497 -0.01315059
v 0.07606278 -0.02107761 -0.02245437
v 0.07888766 -0.00995947 -0.04366127
v 0.07835448 -0.01094474 -0.03700546
v 0.07900321 -0.00032750 -0.04140498
v 0.07706012 -0.01249648 -0.02399498
v 0.05581472 -0.04652919 -0.01276906
v 0.07353395 -0.00753297 -0.00001617
v 0.07814225 -0.01825614 -0.04397379
v 0.05595608 -0.04674615 -0.04986426
v 0.06169647 -0.04479808 -0.02204320
v 0.07914415 -0.00017029 -0.04350746
v 0.07508519 -0.02223404 -0.01554344
v 0.07669489 -0.01414971 -0.02213423
v 0.05902029 -0.04550849 -0.01290576
v 0.06911124 -0.03654756 -0.00455748
v 0.07607321 -0.01607889 -0.01883889
v 0.05348698 -0.04736763 -0.02393213
v 0.06817022 -0.04123904 -0.04164992
v 0.06650902 -0.04205895 -0.02830292
v 0.06072875 -0.04465827 -0.01090511
v 0.06181235 -0.04335951 -0.00374264
v 0.07190639 -0.03100503 -0.00498046
v 0.06238802 -0.04415207 -0.01703913
v 0.07463732 -0.02278010 -0.01297588
v 0.05344802 -0.04707836 -0.01270900
v 0.06526502 -0.04310579 -0.03120576
v 0.07819359 -0.00137403 -0.03059168
v 0.07592883 -0.02055909 -0.02058206
v 0.05284481 -0.04741236 -0.02071230
v 0.06586076 -0.04196870 -0.01888539
v 0.06046146 -0.04556409 -0.02989409
v 0.07004762 -0.03862670 -0.02913782
v 0.05437986 -0.04599671 -0.00524710
v 0.05635076 -0.04606094 -0.00847544
v 0.05047043 -0.04696367 -0.00801127
v 0.07309884 -0.03527616 -0.04293878
v 0.07829928 -0.01571726 -0.04191821
v 0.05387898 -0.04731172 -0.02447394
v 0.07743786 -0.00939176 -0.02570702
v 0.07773887 -0.02105975 -0.04359491
v 0.07853299 -0.01118456 -0.03975640
v 0.05091166 -0.04704930 -0.00883197
v 0.07589455 -0.01460710 -0.01709911
v 0.06067576 -0.04356080 -0.00084618
v 0.07300717 -0.02685549 -0.00526384
v 0.07903312 -0.00561555 -0.04403748
v 0.07392230 -0.03256568 -0.03382616
v 0.06702055 -0.04210616 -0.03805103
v 0.06307180 -0.04404051 -0.02195462
v 0.07771187 -0.02126304 -0.04362459
v 0.05416532 -0.04737091 -0.03104969
v 0.06216610 -0.04497841 -0.04169150
v 0.05354681 -0.04749870 -0.03867086
v 0.06471727 -0.04370315 -0.04365205
v 0.07825937 -0.01074532 -0.03553838
v 0.07678512 -0.02608411 -0.04447120
v 0.07075306 -0.03817634 -0.03438960
v 0.07020093 -0.03409576 -0.00196507
v 0.07825070 -0.00061068 -0.03115102
v 0.07588815 -0.01888012 -0.01889230
v 0.07831545 -0.01818869 -0.04813261
v 0.06170078 -0.04447881 -0.01611337
v 0.07826086 -0.01717881 -0.04337898
v 0.07312164 -0.03394927 -0.03104935
v 0.07393050 -0.01421815 -0.00421604
v 0.06657399 -0.04236126 -0.03594513
v 0.05697447 -0.04492995 -0.00223573
v 0.05823059 -0.04608281 -0.01959543
v 0.05662969 -0.04658860 -0.02158855
v 0.05927814 -0.04479015 -0.00539792
v 0.06198163 -0.04310365 -0.00222697
v 0.05992409 -0.04478811 -0.00848409
v 0.05025732 -0.04725718 -0.00996187
v 0.07904120 -0.01078617 -0.04844531
v 0.06583264 -0.04282264 -0.03412790
v 0.07898260 -0.00005703 -0.04107311
v 0.06561589 -0.04233342 -0.02089087
v 0.07651335 -0.01506482 -0.02129060
v 0.06153108 -0.04326309 -0.00137244
v 0.07397259 -0.02804162 -0.01566717
v 0.06550792 -0.04019630 -0.00099190
v 0.05819899 -0.04555420 -0.00935404
v 0.06241412 -0.04486441 -0.04122179
v 0.07513677 -0.02092844 -0.01510480
v 0.07756953 -0.02223737 -0.04345840
v 0.06984232 -0.03424205 -0.00017762
v 0.07681179 -0.01496833 -0.02336913
v 0.07206302 -0.03420944 -0.01989285
v 0.07623265 -0.01636164 -0.01998699
v 0.06268585 -0.04274484 -0.00259697
v 0.07390320 -0.02697995 -0.01217501
v 0.05091151 -0.04764544 -0.01669824
v 0.07912210 -0.00932129 -0.04862300
v 0.06411111 -0.04348028 -0.02218494
v 0.07896153 -0.00759470 -0.04362474
v 0.05920444 -0.04579759 -0.02104305
v 0.05964975 -0.04565593 -0.02142880
v 0.07847911 -0.00029906 -0.03402466
v 0.05980743 -0.04556206 -0.02077581
v 0.05800470 -0.04565993 -0.00972314
v 0.06303587 -0.04223372 -0.00112197
v 0.07817872 -0.01429872 -0.03848601
v 0.07652489 -0.02753982 -0.04792600
v 0.07125965 -0.03214006 -0.00350107
v 0.07886399 -0.00917232 -0.04279880
v 0.07816480 -0.00110630 -0.03018554
v 0.07544322 -0.03051410 -0.04451937
v 0.07508932 -0.02422834 -0.01797198
v 0.07527560 -0.01550742 -0.01344417
v 0.06705289 -0.04111084 -0.02120580
v 0.06671639 -0.04197728 -0.02984560
v 0.06601946 -0.04180518 -0.01854417
v 0.05935467 -0.04426893 -0.00166541
v 0.07132650 -0.03495842 -0.01607872
v 0.07710047 -0.01558884 -0.02661213
v 0.07777927 -0.01135215 -0.02988436
v 0.07112725 -0.03821429 -0.04253583
v 0.05255311 -0.04754133 -0.04683707
v 0.05028314 -0.04791144 -0.02481725
v 0.07282879 -0.03545628 -0.04025305
v 0.05330649 -0.04751704 -0.04052351
v 0.06165548 -0.04401106 -0.00960148
v 0.05306731 -0.04636435 -0.00619812
v 0.07682772 -0.01649744 -0.02453111
v 0.07692116 -0.02613605 -0.04865195
v 0.07162138 -0.02996833 -0.00028447
v 0.06139909 -0.04324634 -0.00078078
v 0.07035278 -0.03896033 -0.03940394
v 0.07670629 -0.02652165 -0.04493346
v 0.06725367 -0.04201708 -0.04158890
v 0.05827690 -0.04617064 -0.02273660
v 0.07308537 -0.01737108 -0.00003095
v 0.06869548 -0.03769051 -0.00749288
v 0.07384211 -0.02581065 -0.00998953
v 0.07884992 -0.00937437 -0.04271252
v 0.07047525 -0.03855223 -0.03491935
v 0.07527791 -0.02374085 -0.01900415
v 0.07712844 -0.01172986 -0.02420641
v 0.06052317 -0.04556522 -0.03120283
v 0.07046639 -0.03710754 -0.02123658
v 0.07275523 -0.03335303 -0.02314351
v 0.05053735 -0.04784019 -0.02302690
v 0.05121061 -0.04658284 -0.00638874
v 0.07827900 -0.00056282 -0.03150499
v 0.07726437 -0.01366909 -0.02647822
v 0.07346788 -0.01200352 -0.00055282
v 0.06480108 -0.04361294 -0.04691440
v 0.07028548 -0.03885572 -0.03648803
v 0.07417596 -0.03325372 -0.04210335
v 0.07100695 -0.03788521 -0.03531420
v 0.06567828 -0.04209751 -0.01875426
v 0.07240540 -0.02913047 -0.00422798
v 0.07516216 -0.02366462 -0.01771665
v 0.07677762 -0.01741978 -0.02500144
v 0.07624083 -0.02850602 -0.04870584
v 0.06046715 -0.04569648 -0.03882539
v 0.07810132 -0.01100053 -0.03355080
v 0.06531229 -0.04088783 -0.00409895
v 0.05085735 -0.04530502 -0.00045158
v 0.05566053 -0.04663848 -0.01466439
v 0.06798648 -0.03963297 -0.01593827
v 0.07775807 -0.00278244 -0.02677468
v 0.07297451 -0.02782371 -0.00618218
v 0.06803423 -0.03754450 -0.00163562
v 0.07322725 -0.03370686 -0.03067508
v 0.07776412 -0.02238071 -0.04897782
v 0.06145255 -0.04468235 -0.01737587
v 0.07148575 -0.03410632 -0.01335432
v 0.05977169 -0.04428744 -0.00266326
v 0.07571069 -0.02137436 -0.01953476
v 0.07131518 -0.03792287 -0.04166626
v 0.05333398 -0.04745313 -0.02761800
v 0.07906130 -0.00785781 -0.04595388
v 0.05810742 -0.04638693 -0.04290066
v 0.07390849 -0.01952350 -0.00640118
v 0.07366864 -0.02983686 -0.01837171
v 0.07511242 -0.03121307 -0.04297046
v 0.07600646 -0.01890567 -0.01975308
v 0.05074480 -0.04537557 -0.00068379
v 0.05634074 -0.04560589 -0.00541095
v 0.06662021 -0.04242183 -0.04625006
v 0.07612884 -0.02013986 -0.02196018
v 0.07622904 -0.01465923 -0.01928948
v 0.06543034 -0.04020097 -0.00067083
v 0.07697382 -0.02227969 -0.03523697
v 0.06112590 -0.04522595 -0.04958908
v 0.06856357 -0.03742175 -0.00451725
v 0.07812403 -0.00276084 -0.03003640
v 0.05957272 -0.04453206 -0.00386488
v 0.06664341 -0.04004255 -0.00750454
v 0.07447628 -0.00125910 -0.00542585
v 0.05853883 -0.04587089 -0.01659807
v 0.07330321 -0.02845889 -0.00989580
v 0.07702744 -0.01036068 -0.02315782
v 0.06031303 -0.04564427 -0.03055375
v 0.07918572 -0.00901738 -0.04994797
v 0.06385965 -0.04415456 -0.03998010
v 0.06048758 -0.04393048 -0.00238186
v 0.07058347 -0.03814355 -0.03153237
v 0.07684762 -0.01886260 -0.02805763
v 0.07459857 -0.02402150 -0.01362157
v 0.07759723 -0.02227934 -0.04428896
v 0.07746099 -0.00403401 -0.02492724
v 0.07393342 -0.02528131 -0.01006391
v 0.07349310 -0.00986364 -0.00012006
v 0.07387444 -0.03346476 -0.03870815
v 0.07885927 -0.01090652 -0.04436219
v 0.05474136 -0.04595842 -0.00549115
v 0.06141515 -0.04311556 -0.00015036
v 0.07043480 -0.03429355 -0.00427404
v 0.07824941 -0.01517417 -0.04055048
v 0.07890103 -0.00835214 -0.04299406
v 0.07396384 -0.00923953 -0.00299974
v 0.07688809 -0.02636532 -0.04925524
v 0.05264742 -0.04738630 -0.01808707
v 0.06626939 -0.03958488 -0.00185644
v 0.06364645 -0.04358383 -0.01951593
v 0.07496181 -0.01379149 -0.01075331
v 0.06598354 -0.04041351 -0.00482956
v 0.06847811 -0.03968328 -0.02088015
v 0.07882116 -0.00423892 -0.04015949
v 0.07148620 -0.03547092 -0.02125958
v 0.05439530 -0.04579498 -0.00415829
v 0.07668019 -0.02277569 -0.03224164
v 0.07031866 -0.03812397 -0.02774561
v 0.05140901 -0.04768786 -0.02252037
v 0.07860732 -0.00105911 -0.03585466
v 0.07361529 -0.03306519 -0.03230451
v 0.05238803 -0.04585991 -0.00347501
v 0.05363493 -0.04706518 -0.01307118
v 0.07559747 -0.03022587 -0.04623452
v 0.07221599 -0.03457996 -0.02368932
v 0.07543224 -0.02769849 -0.03103982
v 0.06509801 -0.04041588 -0.00032345
v 0.06432347 -0.04164244 -0.00366138
v 0.07881646 -0.01039308 -0.04301727
v 0.07438329 -0.03314354 -0.04985506
v 0.05453652 -0.04716739 -0.02340950
v 0.06539824 -0.04321373 -0.03682434
v 0.07144985 -0.03701045 -0.03397281
v 0.05419625 -0.04701129 -0.01483759
v 0.07086422 -0.03841616 -0.04034854
v 0.06650199 -0.03967225 -0.00347983
v 0.07357253 -0.02694775 -0.00935271
v 0.06818253 -0.03962684 -0.01763469
v 0.07430102 -0.03247344 -0.03867171
v 0.07014699 -0.03944545 -0.04948657
v 0.07353676 -0.02779560 -0.01054918
v 0.07635551 -0.02749646 -0.04299369
v 0.06127356 -0.04453402 -0.01312227
v 0.07266183 -0.03346457 -0.02254377
v 0.05152573 -0.04513585 -0.00013357
v 0.06260286 -0.04298449 -0.00442073
v 0.05476215 -0.04479419 -0.00047257
v 0.07784964 -0.02188321 -0.04930224
v 0.07347040 -0.01879915 -0.00317338
v 0.06362692 -0.04276440 -0.00945433
v 0.05571493 -0.04627260 -0.00903005
v 0.05362123 -0.04598489 -0.00463922
v 0.07832383 -0.01684787 -0.04368403
v 0.07222940 -0.02965674 -0.00390483
v 0.07569169 -0.02176727 -0.01989204
v 0.07813562 -0.00400663 -0.03045503
v 0.07546119 -0.02203645 -0.01821319
v 0.07727706 -0.00444401 -0.02378266
v 0.07645959 -0.01352890 -0.02038759
v 0.06811371 -0.04131776 -0.04413796
v 0.05359398 -0.04722728 -0.01842335
v 0.07899603 -0.00977552 -0.04595746
v 0.07548526 -0.02090368 -0.01736657
v 0.07133779 -0.03068707 -0.00024733
v 0.05674881 -0.04512466 -0.00296360
v 0.07095558 -0.03821430 -0.03887918
v 0.05796271 -0.04582242 -0.01149351
v 0.06055834 -0.04565405 -0.04059822
v 0.07558336 -0.02009243 -0.01755782
v 0.07256230 -0.03351803 -0.02166853
v 0.05642989 -0.04612886 -0.00961360
v 0.07557773 -0.03037431 -0.04766835
v 0.06976276 -0.03981525 -0.04967149
v 0.07439548 -0.00009597 -0.00483799
v 0.07443543 -0.02620132 -0.01554558
v 0.05920359 -0.04503822 -0.00795558
v 0.06508533 -0.04345129 -0.04540456
v 0.05975219 -0.04591818 -0.04027294
v 0.06926771 -0.03899757 -0.02276768
v 0.07225060 -0.02661855 -0.00017494
v 0.05405588 -0.04741281 -0.03432773
v 0.05125164 -0.04756014 -0.01537623
v 0.07563951 -0.02775340 -0.03369073
v 0.06788785 -0.04151955 -0.04699316
v 0.06839825 -0.03787931 -0.00617186
v 0.07250725 -0.02755214 -0.00267541
v 0.07034650 -0.03419651 -0.00316587
v 0.05655311 -0.04653444 -0.01894622
v 0.07825396 -0.00712262 -0.03327493
v 0.07536544 -0.02152618 -0.01699343
v 0.05834817 -0.04576413 -0.01267039
v 0.06188394 -0.04475657 -0.02371497
v 0.05991629 -0.04380486 -0.00047863
v 0.05271095 -0.04756894 -0.04430417
v 0.07909178 -0.00377256 -0.04428774
v 0.06030913 -0.04521889 -0.01777165
v 0.07255209 -0.03502441 -0.03232072
v 0.05291447 -0.04672993 -0.00860144
v 0.06326916 -0.04277329 -0.00667500
v 0.07739859 -0.02033942 -0.03743087
v 0.05785454 -0.04651888 -0.03920323
v 0.07668521 -0.01376077 -0.02193369
v 0.05277262 -0.04757264 -0.02925640
v 0.05505566 -0.04698048 -0.04811637
v 0.07339880 -0.01415942 -0.00075504
v 0.06959547 -0.03805457 -0.01851629
v 0.07657381 -0.00269943 -0.01908087
v 0.06079728 -0.04443594 -0.00900638
v 0.05789615 -0.04554866 -0.00797240
v 0.07892848 -0.01071127 -0.04564694
v 0.06915369 -0.03790971 -0.01335122
v 0.07906013 -0.00821673 -0.04615139
v 0.06515422 -0.04313824 -0.03013691
v 0.07344928 -0.03392478 -0.03567289
v 0.07912885 -0.00757727 -0.04732026
v 0.07227963 -0.02953943 -0.00405365
v 0.07415501 -0.02171247 -0.00925924
v 0.07657548 -0.02716702 -0.04597153
v 0.07396137 -0.03227293 -0.03288717
v 0.06115079 -0.04503335 -0.02143961
v 0.07696915 -0.01678361 -0.02649703
v 0.07480264 -0.00964932 -0.00854536
v 0.07264846 -0.02919330 -0.00620577
v 0.07563060 -0.02987273 -0.04396865
v 0.07166407 -0.03412728 -0.01525314
v 0.07786358 -0.00013983 -0.02747631
v 0.06283376 -0.04395743 -0.01796231
v 0.06172020 -0.04311988 -0.00102398
v 0.06845660 -0.03986284 -0.02289451
v 0.05377510 -0.04719341 -0.01842221
v 0.07247708 -0.02931270 -0.00507926
v 0.07710385 -0.02150199 -0.03555576
v 0.06873731 -0.03926919 -0.01963031
v 0.07653250 -0.02345694 -0.03232354
v 0.06386140 -0.04403231 -0.04952560
v 0.06532893 -0.04274237 -0.02433843
v 0.07680949 -0.01550521 -0.02370089
v 0.06803070 -0.03725193 -0.00032541
v 0.07076315 -0.03575179 -0.01532037
v 0.07411239 -0.02710062 -0.01451180
v 0.05342650 -0.04728892 -0.01958697
v 0.07225715 -0.02665179 -0.00023775
v 0.06943441 -0.04004962 -0.04219689
v 0.06192935 -0.04508926 -0.03966893
v 0.07764980 -0.02239906 -0.04604417
v 0.07652799 -0.01854295 -0.02387304
v 0.07751910 -0.01072904 -0.02693881
v 0.05780965 -0.04583461 -0.01097673
v 0.07784892 -0.01146666 -0.03078859
v 0.06542193 -0.04253399 -0.02155473
v 0.07345575 -0.03327974 -0.03135012
v 0.06202123 -0.04503412 -0.04370056
v 0.06649218 -0.03991752 -0.00525638
v 0.06867691 -0.03854336 -0.01362079
v 0.07144189 -0.03561447 -0.02177512
v 0.07417013 -0.03339494 -0.04348682
v 0.07173089 -0.03340388 -0.01269507
v 0.07004149 -0.03950896 -0.04546063
v 0.05040667 -0.04789895 -0.02530180
v 0.07345556 -0.03469983 -0.04324542
v 0.07225795 -0.03014776 -0.00543942
v 0.07031841 -0.03916742 -0.04302350
v 0.07850178 -0.00213636 -0.03474343
v 0.07880873 -0.00200171 -0.03907783
v 0.06827087 -0.03767435 -0.00352225
v 0.06912423 -0.03880843 -0.01972003
v 0.07720564 -0.02260209 -0.03908708
v 0.07780009 -0.00753749 -0.02818022
v 0.05262232 -0.04673117 -0.00826583
v 0.05899824 -0.04581233 -0.01943976
v 0.07873283 -0.01190866 -0.04347905
v 0.05841114 -0.04595229 -0.01765841
v 0.06086679 -0.04525348 -0.02475867
v 0.05847816 -0.04616195 -0.04877352
v 0.06443568 -0.04347650 -0.02640968
v 0.07407955 -0.03254774 -0.03579217
v 0.05836025 -0.04480804 -0.00308948
v 0.07455573 -0.00004891 -0.00588023
v 0.06953606 -0.03534223 -0.00233519
v 0.05268094 -0.04495223 -0.00002956
v 0.07022424 -0.03469216 -0.00436748
v 0.06476572 -0.04365252 -0.03755522
v 0.07192601 -0.03688181 -0.03968677
v 0.05022525 -0.04777460 -0.01744476
v 0.06788788 -0.04028698 -0.02113256
v 0.05400495 -0.04532893 -0.00207468
v 0.06640487 -0.04188014 -0.02304220
v 0.05500597 -0.04702977 -0.02231596
v 0.07757822 -0.00566684 -0.02586199
v 0.07745929 -0.01127428 -0.02670030
v 0.06612097 -0.04004995 -0.00322932
v 0.07626886 -0.01666040 -0.02035377
v 0.07718331 -0.01045638 -0.02419476
v 0.05770205 -0.04629771 -0.02115422
v 0.05426579 -0.04706460 -0.01713518
v 0.07834508 -0.01583545 -0.04271354
v 0.06352463 -0.04432902 -0.04076901
v 0.06270473 -0.04421617 -0.02147463
v 0.05958048 -0.04449105 -0.00352354
v 0.05827273 -0.04548421 -0.00885514
v 0.07536260 -0.03009393 -0.04047620
v 0.07695392 -0.01288872 -0.02341023
v 0.07192700 -0.03101349 -0.00519228
v 0.07392394 -0.01370287 -0.00398526
v 0.07372848 -0.03365157 -0.03776842
v 0.07573808 -0.01977844 -0.01839476
v 0.07849339 -0.01132517 -0.03936289
v 0.07146773 -0.03755187 -0.03927378
v 0.06691828 -0.04001508 -0.00967087
v 0.07381282 -0.02693955 -0.01128288
v 0.05023818 -0.04793603 -0.04294671
v 0.05915608 -0.04593518 -0.04950906
v 0.07696804 -0.02251843 -0.03561484
v 0.07893109 -0.01020900 -0.04500935
v 0.07378152 -0.00902608 -0.00177053
v 0.06351737 -0.04377074 -0.02146645
v 0.07474107 -0.02423000 -0.01487160
v 0.05279634 -0.04744108 -0.04996048
v 0.07273596 -0.02735140 -0.00397536
v 0.05985805 -0.04579536 -0.03031993
v 0.06531834 -0.04316878 -0.03354803
v 0.05702381 -0.04646567 -0.02084657
v 0.06106452 -0.04489438 -0.01756188
v 0.06070883 -0.04481618 -0.01260534
v 0.05501104 -0.04670635 -0.01214026
v 0.06278522 -0.04226673 -0.00028195
v 0.06501150 -0.04349094 -0.04782186
v 0.07532265 -0.03099321 -0.04697006
v 0.06948000 -0.03806898 -0.01754852
v 0.07335624 -0.02616860 -0.00694241
v 0.06349355 -0.04308501 -0.01221741
v 0.05484096 -0.04678740 -0.01267475
v 0.05496385 -0.04718122 -0.03867375
v 0.07165862 -0.03744850 -0.04149495
v 0.07875257 -0.01191621 -0.04390997
v 0.07587142 -0.02909727 -0.04370225
v 0.07816559 -0.00491623 -0.03105267
v 0.07897719 -0.00708620 -0.04366509
v 0.05981324 -0.04579054 -0.04614836
v 0.05693291 -0.04508573 -0.00295888
v 0.06021348 -0.04526756 -0.01797000
v 0.07408083 -0.02935439 -0.02117270
v 0.07219067 -0.03685409 -0.04513547
v 0.07090284 -0.03853052 -0.04654258
v 0.06787383 -0.04152900 -0.04870895
v 0.07742983 -0.00024814 -0.02454338
v 0.05352690 -0.04597300 -0.00453903
v 0.06625235 -0.04261262 -0.03668222
v 0.07774591 -0.00355739 -0.02672621
v 0.06957553 -0.03991822 -0.04239280
v 0.07551893 -0.03004993 -0.04272767
v 0.07732249 -0.00336214 -0.02396887
v 0.07409284 -0.03339370 -0.04173892
v 0.06469408 -0.04304121 -0.02129133
v 0.07942701 -0.00030671 -0.04977544
v 0.07631070 -0.02719921 -0.04086316
v 0.07747953 -0.01039446 -0.02646292
v 0.06151986 -0.04326177 -0.00130208
v 0.06726241 -0.04182314 -0.03619920
v 0.07008518 -0.03948863 -0.04752377
v 0.07252586 -0.02830922 -0.00377010
v 0.07256292 -0.03327457 -0.02053945
v 0.07351802 -0.02779828 -0.01040535
v 0.05005918 -0.04788606 -0.04677663
v 0.07818999 -0.01933875 -0.04899257
v 0.06944207 -0.03580962 -0.00351053
v 0.07173708 -0.03498096 -0.02067715
v 0.06036334 -0.04536962 -0.02161378
v 0.05251798 -0.04742243 -0.01866169
v 0.05446566 -0.04731904 -0.03437890
v 0.05422573 -0.04736790 -0.03199967
v 0.05004663 -0.04790731 -0.02227360
v 0.05558504 -0.04480132 -0.00090178
v 0.07451698 -0.00082781 -0.00565025
v 0.06044896 -0.04497189 -0.01368094
v 0.05171185 -0.04782093 -0.03843534
v 0.07821978 -0.01721495 -0.04288882
v 0.07558265 -0.02823130 -0.03449227
v 0.07580395 -0.02035668 -0.01930919
v 0.07322421 -0.03424158 -0.03513469
v 0.07269021 -0.03542102 -0.03780044
v 0.07192941 -0.03730004 -0.04982589
v 0.07344219 -0.03457911 -0.04159330
v 0.07389403 -0.03245940 -0.03293054
v 0.07802037 -0.01196412 -0.03347844
v 0.07910029 -0.00071744 -0.04304893
v 0.07481865 -0.02317698 -0.01442136
v 0.07278927 -0.03098286 -0.01306828
v 0.07920154 -0.00091113 -0.04509287
v 0.05280320 -0.04729874 -0.01578043
v 0.07516128 -0.03146356 -0.04871446
v 0.06500001 -0.04301630 -0.02506046
v 0.06023102 -0.04466442 -0.00850770
v 0.07401944 -0.03392961 -0.04858415
v 0.07565808 -0.03031150 -0.04988383
v 0.05517484 -0.04692630 -0.04951698
v 0.06199172 -0.04361172 -0.00737485
v 0.05065630 -0.04781542 -0.02271318
v 0.07629118 -0.01354788 -0.01930025
v 0.07084981 -0.03857747 -0.04533271
v 0.05215735 -0.04730545 -0.01253279
v 0.06872067 -0.03866919 -0.01495576
v 0.07238134 -0.03142034 -0.01070673
v 0.07823308 -0.01573021 -0.04105146
v 0.05402264 -0.04506846 -0.00111102
v 0.07658821 -0.01530772 -0.02187181
v 0.07750015 -0.00784806 -0.02569746
v 0.05294976 -0.04525092 -0.00125456
v 0.07862698 -0.00840230 -0.03910354
v 0.05831653 -0.04441090 -0.00129137
v 0.05574246 -0.04662665 -0.01498001
v 0.07771719 -0.01140594 -0.02920049
v 0.07396913 -0.03263576 -0.03478508
v 0.06880922 -0.03673483 -0.00307281
v 0.07810311 -0.01288161 -0.03569068
v 0.06960604 -0.03460757 -0.00010378
v 0.06209908 -0.04490955 -0.04830073
v 0.06759418 -0.04171737 -0.04938529
v 0.06757671 -0.04176884 -0.04145674
v 0.07170044 -0.03023213 -0.00126738
v 0.07711959 -0.02437860 -0.04340361
v 0.07421254 -0.02534808 -0.01220519
v 0.07544308 -0.01362113 -0.01381835
v 0.07296151 -0.03397928 -0.02908803
v 0.06684528 -0.03856601 -0.00015508
v 0.06436751 -0.04228686 -0.01025740
v 0.07907314 -0.00994156 -0.04803170
v 0.05013661 -0.04801761 -0.03672027
v 0.07198687 -0.03469855 -0.02164827
v 0.06320120 -0.04448844 -0.04066936
v 0.07037944 -0.03414190 -0.00322609
v 0.07551790 -0.02212192 -0.01882028
v 0.07103612 -0.03521876 -0.01468713
v 0.06423834 -0.04375708 -0.03080719
v 0.07776614 -0.00421670 -0.02699069
v 0.07311574 -0.03441355 -0.03505293
v 0.07562755 -0.03025881 -0.04788594
v 0.07370465 -0.02793973 -0.01245950
v 0.05707813 -0.04480311 -0.00177292
v 0.07288700 -0.02003770 -0.00020579
v 0.05406705 -0.04660600 -0.00918033
v 0.06471088 -0.04366580 -0.03690734
v 0.06069341 -0.04528083 -0.02311798
v 0.06368252 -0.04226888 -0.00470950
v 0.05103962 -0.04623483 -0.00464696
v 0.05848437 -0.04426195 -0.00091312
v 0.07762506 -0.00457909 -0.02603800
v 0.07586449 -0.00803725 -0.01510540
v 0.06708168 -0.04191931 -0.03484125
v 0.07310273 -0.01845920 -0.00061161
v 0.06596481 -0.04229813 -0.02479599
v 0.07226120 -0.03126033 -0.00904715
v 0.07240808 -0.03649475 -0.04464402
v 0.07520609 -0.02132101 -0.01577340
v 0.07469294 -0.00020220 -0.00676830
v 0.07252500 -0.02774504 -0.00301613
v 0.07021827 -0.03836142 -0.02859870
v 0.05397371 -0.04732712 -0.04266450
v 0.05463578 -0.04671469 -0.01090186
v 0.07842780 -0.00281162 -0.03394602
v 0.07549082 -0.02873833 -0.03561565
v 0.07055432 -0.03378244 -0.00337254
v 0.07525336 -0.02908590 -0.03399041
v 0.07740588 -0.01088167 -0.02605223
v 0.05033756 -0.04718677 -0.00937810
v 0.07253756 -0.02350911 -0.00010177
v 0.07910259 -0.00230250 -0.04370804
v 0.07717364 -0.02106726 -0.03570167
v 0.07766800 -0.00769203 -0.02706352
v 0.07230183 -0.02940649 -0.00397988
v 0.07752429 -0.00839293 -0.02606852
v 0.07014005 -0.03772138 -0.02188222
v 0.07463306 -0.00126495 -0.00643537
v 0.06868843 -0.03815241 -0.01083831
v 0.06414517 -0.04231153 -0.00875244
v 0.07100658 -0.03485848 -0.01204587
v 0.07908423 -0.01049462 -0.04906730
v 0.07329666 -0.02644008 -0.00681448
v 0.07436113 -0.03112690 -0.03244377
v 0.06170904 -0.04471050 -0.02052417
v 0.06866948 -0.03850657 -0.01328015
v 0.07160394 -0.03017784 -0.00048456
v 0.06110359 -0.04458920 -0.01250596
v 0.06784832 -0.04155072 -0.04433128
v 0.05685293 -0.04502522 -0.00254498
v 0.06941057 -0.03905885 -0.02541193
v 0.07478221 -0.02463149 -0.01581315
v 0.07676404 -0.01522670 -0.02313469
v 0.05780567 -0.04637403 -0.04764558
v 0.07591413 -0.02957747 -0.04924285
v 0.07767251 -0.00042316 -0.02612621
v 0.05221453 -0.04765554 -0.02880613
v 0.07442898 -0.02520118 -0.01371157
v 0.07070817 -0.03521686 -0.01138646
v 0.06297266 -0.04282437 -0.00504424
v 0.05048284 -0.04573663 -0.00202441
v 0.06986408 -0.03518527 -0.00385900
v 0.06187196 -0.04372703 -0.00787525
v 0.07813165 -0.00038082 -0.02981100
v 0.07889812 -0.00825634 -0.04291215
v 0.07435336 -0.02225563 -0.01084841
v 0.06949361 -0.03628064 -0.00646054
v 0.06046461 -0.04563122 -0.03322242
v 0.07371723 -0.00089430 -0.00050367
v 0.05668128 -0.04575712 -0.00683406
v 0.07793975 -0.01100585 -0.03152910
v 0.07549133 -0.00196698 -0.01203395
v 0.07753850 -0.01068603 -0.02709092
v 0.06489526 -0.04355531 -0.03635738
v 0.05905800 -0.04614470 -0.03834948
v 0.07076491 -0.03765873 -0.02989270
v 0.07578873 -0.00016349 -0.01388333
v 0.05456023 -0.04699700 -0.01702142
v 0.07705512 -0.02555340 -0.04861977
v 0.07761029 -0.01179806 -0.02841960
v 0.07663432 -0.01578430 -0.02245349
v 0.05685511 -0.04656409 -0.04884784
v 0.07372535 -0.03405836 -0.04114465
v 0.06472823 -0.04369873 -0.03993379
v 0.07374890 -0.02618967 -0.00973585
v 0.07759653 -0.00889322 -0.02689519
v 0.07686023 -0.01568337 -0.02424988
v 0.05459959 -0.04700874 -0.01780492
v 0.06526716 -0.04288011 -0.02633407
v 0.07575253 -0.02693706 -0.03260259
v 0.05708544 -0.04651750 -0.02430780
v 0.07320779 -0.03341800 -0.02896439
v 0.07735337 -0.00728838 -0.02463314
v 0.05166756 -0.04764321 -0.02242690
v 0.07750291 -0.02264950 -0.04351547
v 0.07404063 -0.02516447 -0.01071237
v 0.07708196 -0.01019331 -0.02346465
v 0.07351028 -0.00900302 -0.00001733
v 0.07917948 -0.00821120 -0.04911321
v 0.07644260 -0.02385689 -0.03235122
v 0.05822825 -0.04638001 -0.04121681
v 0.07696473 -0.02583050 -0.04783330
v 0.07398275 -0.03398084 -0.04804200
v 0.06198812 -0.04433183 -0.01630666
v 0.07842647 -0.00755504 -0.03587405
v 0.07302587 -0.02863826 -0.00807017
v 0.07814900 -0.00214377 -0.03019530
v 0.07346220 -0.01260396 -0.00068327
v 0.06785841 -0.04038633 -0.02185025
v 0.07374945 -0.02615114 -0.00969736
v 0.06000179 -0.04582558 -0.04103746
v 0.07738464 -0.00868035 -0.02511895
v 0.06683508 -0.04138915 -0.02186785
v 0.06929347 -0.04025676 -0.04946609
v 0.07889783 -0.00019464 -0.03973476
v 0.05346114 -0.04527440 -0.00159284
v 0.07394299 -0.02931506 -0.01947600
v 0.07268191 -0.03063222 -0.01081932
v 0.06132101 -0.04501943 -0.02321753
v 0.07284415 -0.03310913 -0.02310087
v 0.07263110 -0.03494609 -0.03276373
v 0.07535060 -0.02975638 -0.03858075
v 0.05709795 -0.04583355 -0.00828598
v 0.07767766 -0.00685338 -0.02683588
v 0.07462112 -0.02349108 -0.01329693
v 0.05923855 -0.04388191 -0.00021769
v 0.06954893 -0.03830705 -0.01994583
v 0.05056809 -0.04760773 -0.01359894
v 0.07157610 -0.03731159 -0.03844304
v 0.06571009 -0.04301618 -0.04975275
v 0.05959457 -0.04570928 -0.02249334
v 0.06471619 -0.04355100 -0.03227123
v 0.07732416 -0.00492653 -0.02413596
v 0.07688096 -0.02559341 -0.04415346
v 0.07340716 -0.03199416 -0.02481524
v 0.07404377 -0.02830235 -0.01722780
v 0.05657249 -0.04625090 -0.01166030
v 0.05783112 -0.04648673 -0.04141952
v 0.06408066 -0.04403291 -0.03942620
v 0.07041028 -0.03867701 -0.03574310
v 0.07561254 -0.01448513 -0.01522450
v 0.07323538 -0.01918955 -0.00189308
v 0.07487123 -0.02375577 -0.01537741
v 0.05926063 -0.04460229 -0.00345647
v 0.07079236 -0.03758167 -0.02961317
v 0.07834838 -0.01845690 -0.04997488
v 0.06858759 -0.04091344 -0.04955057
v 0.07060443 -0.03560162 -0.01281009
v 0.06834638 -0.03727186 -0.00227842
v 0.05010502 -0.04781811 -0.04995963
v 0.05912617 -0.04612445 -0.03976357
v 0.05790910 -0.04616517 -0.01888224
v 0.06214102 -0.04270577 -0.00014011
v 0.05816193 -0.04617660 -0.02158648
v 0.05303865 -0.04517000 -0.00099942
v 0.07399010 -0.01381045 -0.00444998
v 0.05721111 -0.04592297 -0.00981657
v 0.07774210 -0.00578219 -0.02710540
v 0.05100935 -0.04629830 -0.00493638
v 0.07666867 -0.01439113 -0.02204946
v 0.06367549 -0.04219257 -0.00391424
v 0.07310218 -0.03553678 -0.04890423
v 0.05327864 -0.04710322 -0.01261963
v 0.07726206 -0.00342310 -0.02358544
v 0.07377873 -0.03443962 -0.04939392
v 0.07394126 -0.02496439 -0.00988883
v 0.07362872 -0.02717907 -0.01018293
v 0.05156088 -0.04767097 -0.02302000
v 0.07428505 -0.01405040 -0.00645023
v 0.07815331 -0.00580378 -0.03122675
v 0.07013677 -0.03803035 -0.02446324
v 0.07803940 -0.00617786 -0.02980847
v 0.05787055 -0.04641403 -0.04477787
v 0.07685352 -0.01418580 -0.02321272
v 0.07367239 -0.03388312 -0.03876679
v 0.07200666 -0.03035162 -0.00381979
v 0.07816540 -0.00117938 -0.03019963
v 0.07832350 -0.01746613 -0.04579586
v 0.07455588 -0.03076219 -0.03317579
v 0.07180526 -0.03415844 -0.01682616
v 0.07772866 -0.00621397 -0.02710410
v 0.07299055 -0.03270999 -0.02304650
v 0.06600955 -0.04219639 -0.02329395
v 0.06996915 -0.03777033 -0.02034425
v 0.07541757 -0.02308907 -0.01920676
v 0.07266093 -0.03134619 -0.01300176
v 0.05323623 -0.04753450 -0.03301353
v 0.07319231 -0.03362364 -0.02977787
v 0.05187780 -0.04732917 -0.01239862
v 0.06624633 -0.04171355 -0.01946179
v 0.06401340 -0.04302518 -0.01554252
v 0.06437424 -0.04236455 -0.01108164
v 0.07542562 -0.02149900 -0.01742356
v 0.07368396 -0.03462169 -0.04996158
v 0.06428907 -0.04394241 -0.04165336
v 0.07499224 -0.02277282 -0.01535204
v 0.06642252 -0.03917548 -0.00076500
v 0.07254277 -0.02974939 -0.00676559
v 0.07201796 -0.02828438 -0.00053306
v 0.07811830 -0.00540752 -0.03056223
v 0.07759435 -0.00996101 -0.02729338
f 822 733 741
f 609 733 601
f 601 733 822
f 137 741 382
f 592 822 411
f 326 822 592
f 818 822 326
f 289 382 741
f 822 741 78
f 78 411 822
f 555 822 818
f 866 802 21
f 866 555 818
f 21 555 866
f 309 741 733
f 309 289 741
f 137 382 517
f 48 326 592
f 48 94 326
f 132 99 225
f 818 326 84
f 818 344 632
f 632 866 818
f 702 800 861
f 861 800 638
f 800 5 638
f 611 78 741
f 419 5 800
f 800 521 419
f 521 222 419
f 132 508 337
f 366 508 132
f 133 287 622
f 133 366 132
f 132 114 133
f 622 287 486
f 385 344 818
f 482 296 385
f 344 385 10
f 10 385 296
f 714 84 326
f 204 84 714
f 326 664 714
f 57 484 527
f 527 484 701
f 137 517 770
f 871 256 598
f 733 702 165
f 203 521 800
f 800 702 203
f 609 521 203
f 203 733 609
f 203 702 733
f 435 163 253
f 253 163 353
f 609 601 100
f 822 555 25
f 25 248 822
f 555 248 25
f 819 802 410
f 326 94 771
f 94 452 771
f 223 664 326
f 399 99 132
f 399 223 99
f 664 223 399
f 132 337 447
f 447 337 204
f 508 366 171
f 366 133 171
f 171 133 622
f 287 133 185
f 185 133 114
f 57 752 649
f 649 486 246
f 186 37 52
f 767 296 482
f 818 850 191
f 866 632 367
f 632 628 367
f 631 367 628
f 169 701 594
f 701 484 594
f 135 527 701
f 169 708 107
f 169 107 530
f 541 530 780
f 442 541 780
f 687 214 386
f 262 677 687
f 262 517 653
f 262 770 517
f 687 386 80
f 80 262 687
f 219 262 80
f 458 652 622
f 798 430 339
f 517 798 339
f 289 523 788
f 683 430 798
f 683 647 430
f 610 683 798
f 610 788 523
f 642 788 610
f 733 831 682
f 273 831 733
f 733 165 273
f 388 164 742
f 230 485 404
f 446 485 230
f 200 319 446
f 17 319 200
f 388 163 678
f 163 435 678
f 253 165 172
f 172 165 702
f 172 702 861
f 861 638 172
f 638 435 172
f 253 353 389
f 411 78 749
f 246 486 743
f 743 486 287
f 321 741 137
f 496 100 613
f 613 100 665
f 665 100 601
f 606 419 222
f 802 819 655
f 655 819 582
f 855 524 487
f 528 349 373
f 34 247 619
f 866 34 619
f 410 802 619
f 802 866 619
f 656 260 582
f 8 542 295
f 21 802 472
f 472 61 21
f 802 61 472
f 449 303 99
f 94 303 449
f 449 452 94
f 176 575 91
f 91 575 225
f 91 225 99
f 99 303 91
f 592 141 626
f 206 141 592
f 206 787 141
f 132 225 235
f 551 399 132
f 132 447 551
f 622 652 544
f 544 171 622
f 486 649 245
f 622 486 245
f 245 458 622
f 186 52 259
f 233 285 344
f 727 632 344
f 344 285 727
f 332 180 215
f 332 767 482
f 215 767 332
f 504 767 215
f 550 354 504
f 504 658 767
f 504 354 658
f 602 385 818
f 818 191 602
f 37 379 32
f 32 573 37
f 461 573 32
f 588 461 32
f 4 628 632
f 4 565 628
f 628 565 493
f 493 631 628
f 866 367 837
f 367 631 837
f 837 493 65
f 821 651 475
f 475 502 821
f 821 502 651
f 373 502 71
f 71 528 373
f 71 502 475
f 526 107 586
f 552 526 770
f 268 530 541
f 539 135 268
f 169 530 268
f 268 701 169
f 268 135 701
f 769 530 784
f 343 552 335
f 335 552 770
f 335 262 442
f 770 262 335
f 653 401 417
f 417 401 256
f 417 256 871
f 871 479 417
f 142 797 624
f 221 59 547
f 797 417 46
f 423 479 871
f 142 400 691
f 691 797 142
f 543 691 400
f 797 738 454
f 687 814 454
f 529 80 190
f 219 80 529
f 254 725 753
f 753 529 190
f 563 364 825
f 653 517 825
f 517 339 825
f 63 339 257
f 63 825 339
f 174 299 257
f 257 339 174
f 174 339 430
f 827 788 642
f 382 289 645
f 289 788 645
f 645 827 382
f 788 827 645
f 430 647 243
f 647 9 243
f 243 174 430
f 299 174 243
f 17 299 816
f 816 9 514
f 299 243 816
f 816 243 9
f 446 319 816
f 816 795 446
f 384 798 517
f 384 610 798
f 47 610 523
f 47 353 163
f 27 165 253
f 27 273 165
f 829 485 64
f 64 485 446
f 446 795 64
f 514 163 310
f 310 742 514
f 164 795 12
f 12 742 164
f 514 742 12
f 12 816 514
f 795 816 12
f 338 163 388
f 388 742 338
f 338 310 163
f 742 310 338
f 212 230 404
f 537 200 446
f 53 200 537
f 446 230 537
f 230 212 537
f 53 561 413
f 413 200 53
f 506 435 253
f 253 172 506
f 506 172 435
f 733 682 359
f 681 436 864
f 144 612 561
f 125 28 583
f 28 749 583
f 728 28 125
f 779 872 393
f 318 872 779
f 844 872 318
f 57 649 844
f 287 30 844
f 844 743 287
f 710 611 741
f 741 321 710
f 710 321 137
f 609 100 249
f 100 496 249
f 440 496 729
f 729 496 613
f 478 168 368
f 419 606 345
f 345 606 478
f 311 655 582
f 582 260 311
f 802 655 311
f 582 819 421
f 819 721 421
f 421 656 582
f 721 656 421
f 277 115 21
f 184 115 277
f 349 546 320
f 187 162 266
f 812 266 162
f 247 571 301
f 834 34 866
f 410 619 377
f 397 721 819
f 397 656 721
f 148 656 397
f 241 686 524
f 524 855 241
f 596 656 148
f 45 148 480
f 45 596 148
f 162 416 723
f 723 812 162
f 350 781 466
f 466 723 350
f 350 723 416
f 522 781 350
f 451 542 8
f 666 604 492
f 603 424 516
f 516 651 603
f 475 651 516
f 216 401 653
f 216 516 424
f 216 653 475
f 475 516 216
f 237 461 87
f 87 461 588
f 713 731 476
f 799 709 856
f 704 626 141
f 704 575 176
f 141 623 704
f 141 787 134
f 134 623 141
f 787 206 106
f 106 121 787
f 342 235 225
f 265 114 132
f 132 235 265
f 265 235 646
f 646 235 777
f 232 341 652
f 652 458 232
f 232 458 641
f 572 337 508
f 344 10 751
f 455 233 344
f 344 52 455
f 455 52 37
f 806 37 186
f 806 658 37
f 284 245 254
f 458 245 284
f 705 330 97
f 97 469 705
f 97 354 550
f 593 762 117
f 658 354 35
f 37 658 35
f 762 593 35
f 35 379 37
f 631 493 775
f 775 837 631
f 493 837 775
f 475 653 662
f 364 314 662
f 662 314 869
f 653 825 662
f 662 825 364
f 745 484 57
f 57 873 745
f 586 589 684
f 684 526 586
f 107 526 765
f 586 107 672
f 672 844 318
f 644 530 107
f 644 784 530
f 459 769 343
f 343 335 459
f 324 530 769
f 324 780 530
f 769 459 324
f 324 459 335
f 19 417 797
f 814 417 19
f 797 454 19
f 19 454 814
f 677 262 703
f 687 677 703
f 703 262 653
f 653 417 703
f 703 814 687
f 703 417 814
f 868 624 815
f 547 59 105
f 59 221 412
f 354 59 471
f 471 35 354
f 256 401 719
f 719 598 256
f 401 216 719
f 547 839 378
f 378 221 547
f 852 713 666
f 479 567 838
f 838 417 479
f 838 46 417
f 615 593 117
f 615 35 593
f 797 691 154
f 154 738 797
f 305 214 687
f 305 691 214
f 190 543 308
f 308 753 190
f 254 753 308
f 214 691 406
f 691 543 406
f 442 262 195
f 262 239 195
f 146 262 219
f 146 239 262
f 146 195 239
f 539 268 396
f 846 135 539
f 846 753 725
f 527 135 846
f 231 119 364
f 231 364 563
f 17 561 150
f 150 561 720
f 595 63 17
f 328 299 17
f 17 63 328
f 536 319 17
f 17 816 536
f 536 816 319
f 610 47 676
f 647 683 676
f 683 610 676
f 676 9 647
f 577 163 514
f 630 561 17
f 733 359 98
f 98 389 353
f 481 18 791
f 404 485 130
f 429 140 791
f 791 18 429
f 18 679 429
f 429 679 671
f 512 591 224
f 387 864 436
f 96 612 578
f 561 612 96
f 791 140 457
f 464 38 380
f 720 561 380
f 561 776 380
f 192 776 561
f 224 553 179
f 73 553 224
f 692 749 78
f 692 583 749
f 787 121 501
f 872 121 697
f 796 844 853
f 844 796 505
f 611 710 444
f 444 710 589
f 744 836 589
f 589 710 744
f 548 665 601
f 613 665 548
f 548 601 822
f 822 613 548
f 638 155 835
f 124 627 5
f 478 627 124
f 398 627 478
f 5 627 360
f 360 638 5
f 360 155 638
f 478 606 159
f 159 168 478
f 609 249 272
f 272 635 609
f 74 756 184
f 260 756 74
f 184 414 74
f 811 756 519
f 327 756 811
f 564 414 184
f 184 277 564
f 564 61 802
f 21 61 564
f 564 277 21
f 487 524 207
f 524 862 207
f 785 862 524
f 785 781 522
f 44 862 349
f 373 349 490
f 349 320 490
f 291 320 546
f 403 372 247
f 247 301 403
f 403 266 372
f 187 266 403
f 755 65 85
f 410 377 597
f 581 619 247
f 581 377 619
f 102 45 480
f 596 45 102
f 686 596 102
f 102 723 466
f 524 686 102
f 466 781 102
f 102 785 524
f 781 785 102
f 786 819 410
f 149 241 855
f 260 656 178
f 686 196 178
f 656 596 178
f 178 596 686
f 686 241 116
f 116 196 686
f 694 162 187
f 187 329 694
f 617 451 8
f 847 451 85
f 542 451 847
f 85 65 847
f 8 295 194
f 352 492 604
f 6 362 666
f 666 492 6
f 336 295 542
f 65 590 104
f 104 336 542
f 590 336 104
f 65 493 279
f 279 590 65
f 43 87 588
f 307 565 237
f 237 87 307
f 307 493 565
f 307 279 493
f 295 336 513
f 666 713 244
f 244 604 666
f 820 476 731
f 502 263 317
f 317 739 145
f 651 502 317
f 713 739 317
f 317 145 603
f 603 651 317
f 317 731 713
f 799 856 443
f 24 443 263
f 432 704 176
f 626 704 432
f 515 106 206
f 592 411 515
f 515 206 592
f 28 106 515
f 463 106 28
f 463 728 1
f 28 728 463
f 1 292 463
f 463 292 586
f 235 342 737
f 342 501 737
f 842 777 235
f 872 844 842
f 844 777 842
f 426 844 30
f 426 777 844
f 774 751 259
f 774 259 52
f 727 361 674
f 632 727 674
f 674 361 237
f 390 193 215
f 390 84 204
f 390 55 533
f 13 850 390
f 204 337 390
f 508 55 390
f 533 167 390
f 818 84 390
f 390 850 818
f 337 572 390
f 390 572 508
f 641 458 390
f 390 167 341
f 390 232 641
f 341 232 390
f 614 330 705
f 705 193 614
f 614 284 330
f 193 390 614
f 458 284 614
f 614 390 458
f 705 469 437
f 437 193 705
f 330 284 101
f 101 97 330
f 315 97 550
f 469 97 315
f 294 71 475
f 475 662 294
f 589 836 333
f 333 684 589
f 770 526 805
f 526 684 805
f 137 770 805
f 805 710 137
f 107 765 685
f 685 765 526
f 830 672 107
f 107 796 830
f 830 796 853
f 853 844 830
f 844 672 830
f 780 324 276
f 276 324 335
f 442 780 276
f 276 335 442
f 142 624 23
f 624 868 23
f 762 35 772
f 35 471 772
f 772 59 762
f 772 471 59
f 238 59 354
f 707 719 391
f 188 216 424
f 188 719 216
f 598 293 693
f 871 598 693
f 693 423 871
f 175 567 479
f 479 423 175
f 282 293 598
f 468 293 282
f 598 719 282
f 719 707 282
f 778 468 323
f 323 293 778
f 778 293 468
f 839 293 69
f 374 293 839
f 374 175 293
f 374 839 547
f 323 468 460
f 391 719 657
f 117 762 420
f 420 615 117
f 643 146 219
f 219 529 643
f 529 753 643
f 753 846 643
f 832 643 846
f 275 846 26
f 26 76 275
f 57 527 275
f 527 846 275
f 275 752 57
f 275 76 254
f 254 245 275
f 275 649 752
f 275 245 649
f 474 725 254
f 211 119 528
f 528 346 211
f 211 314 364
f 364 119 211
f 211 346 869
f 869 314 211
f 17 150 445
f 209 595 17
f 63 595 465
f 825 63 465
f 402 47 163
f 163 577 402
f 514 9 29
f 29 577 514
f 29 402 577
f 202 413 561
f 561 630 202
f 389 98 584
f 584 98 359
f 18 481 667
f 667 327 18
f 667 534 327
f 667 481 213
f 213 481 182
f 428 144 561
f 110 671 95
f 110 429 671
f 140 429 110
f 671 679 804
f 804 512 95
f 95 671 804
f 561 96 560
f 560 457 140
f 433 96 578
f 464 380 153
f 153 380 776
f 140 179 535
f 535 179 553
f 863 14 591
f 863 387 436
f 224 591 347
f 591 14 347
f 347 38 464
f 464 73 347
f 347 73 224
f 586 236 736
f 736 463 586
f 106 463 736
f 318 779 849
f 849 672 318
f 586 672 849
f 849 236 586
f 393 872 574
f 872 697 574
f 121 106 228
f 106 736 228
f 57 844 58
f 844 505 58
f 706 796 107
f 706 505 796
f 286 481 740
f 478 368 467
f 467 398 478
f 155 360 696
f 696 835 155
f 388 678 696
f 696 408 164
f 696 164 388
f 638 835 696
f 696 435 638
f 696 678 435
f 130 60 290
f 371 60 360
f 371 750 60
f 240 785 522
f 862 785 240
f 862 44 79
f 288 44 349
f 349 528 288
f 528 119 288
f 375 291 546
f 618 111 250
f 520 111 618
f 34 834 580
f 580 247 34
f 580 111 571
f 580 571 247
f 250 111 127
f 65 755 497
f 571 111 545
f 258 102 112
f 247 372 112
f 258 812 278
f 278 102 258
f 812 723 278
f 723 102 278
f 89 397 819
f 819 786 89
f 113 694 843
f 843 709 799
f 416 113 843
f 799 416 843
f 8 194 434
f 661 194 295
f 362 194 661
f 93 820 856
f 476 820 93
f 93 856 709
f 41 194 362
f 362 6 41
f 817 6 492
f 329 40 56
f 734 424 603
f 734 518 424
f 340 518 7
f 424 518 340
f 340 7 713
f 713 298 340
f 713 852 462
f 462 298 713
f 794 87 538
f 87 43 538
f 538 698 794
f 376 513 336
f 87 513 376
f 376 307 87
f 713 476 670
f 670 244 713
f 799 443 566
f 327 534 867
f 867 534 115
f 184 756 867
f 867 756 327
f 867 115 184
f 351 501 121
f 351 737 501
f 344 751 255
f 751 774 255
f 237 565 409
f 409 674 237
f 13 390 138
f 395 805 684
f 710 805 395
f 36 552 107
f 107 685 36
f 526 552 36
f 36 685 526
f 354 97 131
f 724 105 59
f 59 238 724
f 616 39 300
f 616 308 543
f 616 543 400
f 400 39 616
f 423 693 556
f 556 175 423
f 556 693 293
f 293 175 556
f 391 468 453
f 468 282 453
f 600 69 293
f 323 378 600
f 600 293 323
f 547 105 730
f 730 374 547
f 659 374 730
f 757 374 659
f 757 768 264
f 659 768 757
f 666 407 218
f 218 852 666
f 218 407 852
f 295 513 358
f 358 488 295
f 295 488 860
f 323 81 675
f 675 378 323
f 221 378 675
f 675 412 221
f 477 412 675
f 323 789 103
f 103 81 323
f 477 675 210
f 210 675 81
f 363 420 762
f 762 59 363
f 59 412 363
f 173 841 195
f 195 841 828
f 828 541 442
f 442 195 828
f 208 832 49
f 643 832 208
f 539 396 439
f 254 76 759
f 759 474 254
f 217 846 725
f 725 474 217
f 681 833 732
f 732 436 681
f 201 209 151
f 151 209 17
f 17 445 151
f 9 676 197
f 197 29 9
f 722 676 47
f 47 402 722
f 402 29 722
f 128 130 824
f 128 428 404
f 404 130 128
f 826 261 803
f 746 679 519
f 746 804 679
f 519 756 746
f 746 756 260
f 50 560 140
f 561 560 50
f 269 481 791
f 269 325 740
f 740 481 269
f 791 680 510
f 740 325 129
f 568 863 436
f 14 863 568
f 121 228 357
f 236 849 189
f 189 736 236
f 708 873 758
f 758 107 708
f 758 706 107
f 758 873 57
f 183 418 613
f 481 286 405
f 438 261 763
f 532 467 368
f 750 371 532
f 360 60 569
f 569 696 360
f 159 766 147
f 168 159 147
f 365 288 119
f 365 231 833
f 119 231 365
f 291 375 470
f 470 375 350
f 470 350 416
f 673 618 250
f 8 618 673
f 673 617 8
f 690 580 834
f 111 580 690
f 620 127 111
f 620 497 755
f 62 837 65
f 65 497 62
f 801 111 520
f 801 545 111
f 637 581 247
f 587 102 480
f 587 67 102
f 102 67 499
f 499 112 102
f 499 67 495
f 495 597 499
f 247 112 499
f 499 597 377
f 499 637 247
f 688 149 855
f 355 694 329
f 355 843 694
f 270 93 709
f 709 492 270
f 492 352 270
f 329 56 748
f 748 56 6
f 6 817 748
f 443 24 448
f 448 566 443
f 170 138 390
f 215 180 170
f 170 390 215
f 354 131 857
f 254 308 70
f 308 616 70
f 70 483 284
f 70 284 254
f 105 724 554
f 554 730 105
f 659 730 554
f 554 768 659
f 815 624 554
f 264 768 334
f 334 838 567
f 46 838 334
f 797 46 334
f 334 768 797
f 567 175 715
f 852 407 33
f 407 599 33
f 33 462 852
f 716 700 83
f 716 358 456
f 66 698 615
f 794 698 66
f 381 599 407
f 323 460 870
f 870 3 323
f 300 39 865
f 865 394 300
f 865 23 868
f 865 868 815
f 815 394 865
f 313 173 49
f 49 832 313
f 539 439 143
f 143 846 539
f 143 832 846
f 541 828 660
f 660 268 541
f 252 150 720
f 220 732 833
f 833 231 220
f 383 732 220
f 825 465 220
f 220 465 201
f 220 151 383
f 201 151 220
f 428 128 77
f 144 428 77
f 824 826 198
f 198 509 824
f 227 128 322
f 322 128 824
f 824 509 322
f 86 433 578
f 227 803 2
f 585 178 196
f 585 746 178
f 260 178 369
f 369 746 260
f 178 746 369
f 140 535 717
f 717 50 140
f 297 192 561
f 561 50 297
f 161 269 791
f 325 269 161
f 791 510 161
f 557 129 261
f 54 129 325
f 325 2 54
f 54 2 803
f 500 697 121
f 121 357 500
f 157 849 779
f 157 189 849
f 274 228 736
f 736 189 274
f 607 418 438
f 438 608 607
f 607 608 418
f 181 368 168
f 168 302 181
f 181 608 438
f 181 302 440
f 613 418 181
f 418 608 181
f 822 248 431
f 431 248 555
f 431 613 822
f 489 182 481
f 481 405 489
f 213 182 489
f 489 667 213
f 115 534 489
f 534 667 489
f 21 115 316
f 139 555 21
f 696 569 562
f 531 261 826
f 531 826 824
f 199 123 531
f 531 123 763
f 531 763 261
f 356 147 766
f 609 635 356
f 681 864 712
f 864 663 712
f 864 281 160
f 160 663 864
f 160 281 207
f 160 207 862
f 793 434 40
f 40 370 793
f 8 434 793
f 166 620 111
f 497 620 166
f 187 545 280
f 545 801 280
f 280 329 187
f 280 40 329
f 280 370 40
f 450 688 855
f 719 188 699
f 391 657 848
f 498 870 848
f 848 468 391
f 848 460 468
f 848 870 460
f 83 700 90
f 700 66 90
f 90 66 615
f 90 363 412
f 615 420 90
f 420 363 90
f 267 238 354
f 354 857 267
f 267 857 238
f 392 131 300
f 300 857 392
f 283 554 724
f 283 724 238
f 238 857 283
f 300 131 158
f 158 616 300
f 158 70 616
f 483 70 158
f 331 554 624
f 768 554 331
f 331 624 797
f 797 768 331
f 782 334 567
f 567 715 782
f 782 715 757
f 374 757 126
f 757 715 126
f 175 374 126
f 126 715 175
f 851 716 456
f 700 716 851
f 456 358 621
f 358 177 621
f 650 358 513
f 650 177 358
f 807 854 792
f 427 865 39
f 427 400 142
f 427 39 400
f 841 173 813
f 173 313 813
f 348 660 828
f 439 660 348
f 636 439 396
f 636 660 439
f 636 396 268
f 268 660 636
f 634 252 732
f 634 732 383
f 227 226 16
f 826 803 16
f 16 803 227
f 507 226 227
f 227 322 507
f 229 86 578
f 605 86 229
f 227 2 229
f 229 2 605
f 605 2 75
f 791 457 75
f 75 2 680
f 75 680 791
f 558 585 196
f 68 261 438
f 68 557 261
f 438 763 120
f 120 181 438
f 92 181 440
f 92 729 613
f 440 729 92
f 251 431 555
f 251 183 613
f 613 431 251
f 115 489 654
f 654 489 405
f 654 316 115
f 576 654 405
f 316 654 576
f 438 773 823
f 823 68 438
f 51 726 511
f 511 726 754
f 754 139 511
f 570 88 438
f 438 418 570
f 418 183 570
f 408 696 809
f 696 562 809
f 809 485 829
f 809 130 485
f 760 532 368
f 750 532 760
f 368 123 525
f 525 123 199
f 559 531 425
f 199 531 559
f 425 531 11
f 11 531 15
f 15 648 11
f 11 648 290
f 11 290 60
f 840 356 635
f 147 356 840
f 862 79 242
f 242 160 862
f 470 491 422
f 422 263 502
f 422 24 263
f 503 416 799
f 503 470 416
f 512 804 629
f 804 450 629
f 487 591 629
f 591 512 629
f 804 558 205
f 205 558 196
f 234 699 152
f 234 848 657
f 152 848 234
f 234 657 719
f 719 699 234
f 668 188 424
f 668 699 188
f 424 340 668
f 340 699 668
f 599 381 858
f 306 625 858
f 381 271 858
f 858 271 792
f 83 90 858
f 792 854 858
f 858 807 83
f 854 807 858
f 109 103 789
f 306 858 109
f 109 858 90
f 109 210 81
f 477 210 109
f 109 412 477
f 109 90 412
f 108 857 131
f 131 392 108
f 108 392 857
f 669 857 300
f 669 283 857
f 300 394 669
f 31 394 815
f 815 554 31
f 554 283 31
f 131 483 312
f 312 158 131
f 483 158 312
f 764 381 860
f 764 271 381
f 764 860 488
f 150 252 735
f 252 634 735
f 22 286 740
f 740 129 22
f 129 557 22
f 613 181 859
f 859 92 613
f 181 92 859
f 183 251 695
f 555 139 633
f 316 576 549
f 511 139 549
f 21 316 549
f 549 139 21
f 20 576 405
f 304 773 438
f 438 51 304
f 438 88 810
f 810 51 438
f 130 809 136
f 136 60 130
f 136 569 60
f 136 562 569
f 136 809 562
f 82 760 368
f 368 525 82
f 718 422 491
f 639 491 470
f 470 503 639
f 761 450 855
f 761 629 450
f 473 855 487
f 487 629 473
f 156 450 804
f 804 205 156
f 540 118 498
f 498 848 540
f 540 848 152
f 152 699 540
f 599 858 122
f 790 118 72
f 118 540 72
f 3 790 72
f 72 858 625
f 323 3 72
f 72 625 306
f 72 789 323
f 72 306 789
f 789 306 579
f 579 109 789
f 306 109 579
f 81 103 808
f 808 109 81
f 103 109 808
f 557 68 42
f 42 22 557
f 139 695 441
f 441 633 139
f 441 695 251
f 415 405 286
f 286 823 415
f 726 51 845
f 51 810 845
f 24 422 711
f 422 718 711
f 640 699 340
f 340 122 640
f 640 122 858
f 494 340 298
f 494 122 340
f 858 72 689
f 689 72 540
f 689 640 858
f 689 540 699
f 699 640 689
f 747 823 286
f 68 823 747
f 747 42 68
f 783 20 405
f 405 415 783
f 449 223 326
f 326 771 449
f 449 771 452
f 99 223 449
f 551 714 664
f 204 714 551
f 664 399 551
f 551 447 204
f 382 827 384
f 384 517 382
f 642 610 384
f 384 827 642
f 246 743 844
f 844 649 246
f 508 171 55
f 55 167 533
f 55 544 652
f 652 341 55
f 171 544 55
f 341 167 55
f 361 461 237
f 37 573 361
f 361 455 37
f 285 233 361
f 361 727 285
f 361 573 461
f 233 455 361
f 186 259 806
f 806 10 296
f 296 767 806
f 806 751 10
f 767 658 806
f 259 751 806
f 745 708 169
f 169 594 745
f 745 594 484
f 745 873 708
f 644 552 343
f 343 769 644
f 107 552 644
f 769 784 644
f 738 154 305
f 305 154 691
f 687 454 305
f 305 454 738
f 406 386 214
f 190 80 406
f 406 80 386
f 406 543 190
f 328 63 257
f 257 299 328
f 98 309 733
f 98 523 289
f 289 309 98
f 98 47 523
f 353 47 98
f 501 342 225
f 225 575 501
f 575 704 501
f 501 134 787
f 501 704 623
f 623 134 501
f 78 611 444
f 444 589 586
f 444 728 125
f 586 292 444
f 444 692 78
f 125 583 444
f 444 292 1
f 1 728 444
f 583 692 444
f 419 345 124
f 5 419 124
f 124 345 478
f 18 327 811
f 519 679 811
f 811 679 18
f 564 311 260
f 802 311 564
f 260 74 564
f 564 74 414
f 694 113 416
f 694 416 162
f 104 847 65
f 542 847 104
f 443 820 731
f 731 317 443
f 443 317 263
f 856 820 443
f 176 91 432
f 432 48 592
f 94 48 432
f 592 626 432
f 432 303 94
f 432 91 303
f 515 749 28
f 411 749 515
f 287 185 426
f 114 265 426
f 426 30 287
f 426 185 114
f 426 265 646
f 646 777 426
f 550 504 315
f 315 437 469
f 315 504 215
f 215 193 315
f 193 437 315
f 528 71 294
f 294 662 869
f 869 346 294
f 294 346 528
f 465 209 201
f 595 209 465
f 200 413 202
f 17 200 202
f 202 630 17
f 584 27 253
f 584 682 831
f 253 389 584
f 831 273 584
f 273 27 584
f 584 359 682
f 53 537 428
f 428 561 53
f 428 212 404
f 428 537 212
f 224 179 110
f 110 512 224
f 95 512 110
f 110 179 140
f 281 591 487
f 864 387 281
f 487 207 281
f 281 863 591
f 387 863 281
f 375 240 522
f 349 862 375
f 375 546 349
f 522 350 375
f 862 240 375
f 545 301 571
f 187 403 545
f 545 403 301
f 372 266 112
f 112 812 258
f 266 812 112
f 40 434 56
f 194 41 56
f 56 434 194
f 56 41 6
f 603 145 734
f 734 739 713
f 145 739 734
f 713 7 734
f 7 518 734
f 588 32 538
f 379 35 538
f 35 615 538
f 538 32 379
f 538 43 588
f 615 698 538
f 376 336 590
f 279 307 376
f 590 279 376
f 235 737 351
f 351 121 872
f 872 842 351
f 351 842 235
f 255 774 52
f 255 52 344
f 565 4 409
f 409 4 632
f 632 674 409
f 836 744 395
f 395 744 710
f 395 333 836
f 684 333 395
f 453 282 707
f 453 707 391
f 839 69 600
f 600 378 839
f 195 146 208
f 49 173 208
f 146 643 208
f 208 173 195
f 217 76 26
f 26 846 217
f 217 759 76
f 474 759 217
f 29 197 722
f 722 197 676
f 57 58 758
f 505 706 758
f 758 58 505
f 627 398 532
f 532 360 627
f 398 467 532
f 532 371 360
f 250 127 620
f 85 451 620
f 620 755 85
f 617 673 620
f 451 617 620
f 620 673 250
f 410 597 587
f 480 148 587
f 587 786 410
f 397 89 587
f 148 397 587
f 587 597 495
f 495 67 587
f 587 89 786
f 581 637 499
f 377 581 499
f 604 244 270
f 270 352 604
f 476 93 270
f 270 670 476
f 244 670 270
f 709 843 748
f 748 492 709
f 748 355 329
f 748 817 492
f 843 355 748
f 482 385 170
f 170 850 13
f 170 332 482
f 385 602 170
f 170 191 850
f 180 332 170
f 170 602 191
f 13 138 170
f 483 101 284
f 483 131 97
f 97 101 483
f 666 362 381
f 381 661 295
f 381 407 666
f 362 661 381
f 295 860 381
f 720 380 252
f 38 347 252
f 252 380 38
f 252 568 436
f 252 347 14
f 436 732 252
f 14 568 252
f 220 231 563
f 563 825 220
f 776 192 297
f 297 73 464
f 464 153 297
f 553 73 297
f 297 153 776
f 297 535 553
f 297 717 535
f 50 717 297
f 680 2 161
f 161 510 680
f 161 2 325
f 261 129 54
f 54 803 261
f 393 574 274
f 274 779 393
f 274 574 697
f 697 500 274
f 274 357 228
f 274 157 779
f 274 500 357
f 189 157 274
f 356 222 521
f 356 521 609
f 356 606 222
f 356 766 159
f 356 159 606
f 866 837 166
f 166 834 866
f 166 690 834
f 837 62 166
f 111 690 166
f 166 62 497
f 280 801 520
f 280 618 8
f 520 618 280
f 8 793 280
f 280 793 370
f 264 334 782
f 782 757 264
f 650 851 456
f 650 513 87
f 650 87 794
f 794 66 650
f 650 66 700
f 456 621 650
f 700 851 650
f 650 621 177
f 23 865 427
f 142 23 427
f 832 143 348
f 348 828 841
f 841 813 348
f 348 313 832
f 348 143 439
f 348 813 313
f 509 198 507
f 507 198 826
f 507 322 509
f 826 16 507
f 507 16 226
f 578 612 229
f 144 77 229
f 612 144 229
f 229 77 128
f 229 128 227
f 75 560 96
f 457 560 75
f 96 433 75
f 433 86 75
f 75 86 605
f 746 585 558
f 804 746 558
f 368 181 120
f 120 123 368
f 763 123 120
f 809 795 164
f 829 64 809
f 164 408 809
f 809 64 795
f 130 290 648
f 824 130 648
f 15 531 648
f 648 531 824
f 840 272 249
f 840 496 440
f 840 249 496
f 440 302 840
f 840 302 168
f 635 272 840
f 168 147 840
f 242 833 681
f 242 365 833
f 242 79 44
f 44 288 242
f 681 712 242
f 288 365 242
f 242 712 663
f 663 160 242
f 373 490 422
f 422 502 373
f 422 490 320
f 320 291 422
f 291 470 422
f 118 790 3
f 118 870 498
f 3 870 118
f 283 669 31
f 31 669 394
f 764 716 83
f 83 807 764
f 488 358 764
f 358 716 764
f 792 271 764
f 764 807 792
f 735 151 445
f 383 151 735
f 735 445 150
f 735 634 383
f 82 559 425
f 60 750 82
f 82 11 60
f 82 525 199
f 750 760 82
f 199 559 82
f 425 11 82
f 629 761 473
f 473 761 855
f 688 450 156
f 149 688 156
f 241 149 156
f 156 116 241
f 196 116 156
f 156 205 196
f 555 633 441
f 441 251 555
f 845 754 726
f 845 570 183
f 183 695 845
f 139 754 845
f 88 570 845
f 845 695 139
f 845 810 88
f 491 639 711
f 799 566 711
f 711 503 799
f 711 448 24
f 566 448 711
f 711 718 491
f 711 639 503
f 298 462 494
f 462 33 494
f 599 122 494
f 494 33 599
f 22 42 747
f 286 22 747
f 783 823 773
f 511 549 783
f 783 51 511
f 783 549 576
f 576 20 783
f 773 304 783
f 783 304 51
f 783 415 823

