# https://github.com/mikedh/trimesh
v 0.01893471 -0.03739659 -0.05732302
v 0.02929889 -0.01361757 -0.08969181
v 0.03245799 -0.02451503 -0.07566814
v 0.03854223 -0.01354553 -0.06161538
v 0.03338856 -0.00885907 -0.07922766
v 0.03231303 -0.01992282 -0.07884845
v 0.03298879 -0.02521301 -0.07320339
v 0.03529638 -0.03126356 -0.05019862
v 0.02840258 -0.02832583 -0.07920540
v 0.00803949 -0.03930579 -0.05014302
v 0.03420133 -0.02908798 -0.06067474
v 0.03688309 -0.01926132 -0.06489747
v 0.02997752 -0.03078650 -0.06805897
v 0.03738838 -0.02377969 -0.05984506
v 0.02570798 -0.00959089 -0.09980545
v 0.00697486 -0.03936272 -0.05018861
v 0.03186874 -0.03118732 -0.06164678
v 0.03139977 -0.02596483 -0.07684807
v 0.03807475 -0.01865082 -0.06086853
v 0.03774134 -0.00098005 -0.06603037
v 0.00001479 -0.03862855 -0.06004281
v 0.03281299 -0.00077056 -0.08142104
v 0.03698501 -0.02486454 -0.06038817
v 0.02441792 -0.02356004 -0.09802425
v 0.04185793 -0.00580555 -0.05086612
v 0.03707210 -0.02049779 -0.06357278
v 0.02231248 -0.03597879 -0.06179052
v 0.01698770 -0.03550202 -0.07408352
v 0.03572342 -0.02743349 -0.06032115
v 0.04152790 -0.01365394 -0.05077470
v 0.03054127 -0.02648773 -0.07835532
v 0.02390452 -0.03580512 -0.05949475
v 0.03320331 -0.02848116 -0.06585119
v 0.04031080 -0.02183815 -0.05012181
v 0.02717325 -0.03475135 -0.05852196
v 0.02487628 -0.02007049 -0.09895953
v 0.03800989 -0.01369424 -0.06346834
v 0.02824601 -0.00008094 -0.09419849
v 0.02992575 -0.00146699 -0.08951073
v 0.03345892 -0.00302026 -0.07942794
v 0.03242599 -0.01008432 -0.08169013
v 0.01266971 -0.03213806 -0.09989576
v 0.00315807 -0.03483791 -0.09939436
v 0.03480762 -0.02926199 -0.05811086
v 0.03373911 -0.02616039 -0.06965870
v 0.01316273 -0.03285924 -0.09598503
v 0.02129684 -0.03017926 -0.09049851
v 0.03728096 -0.00032682 -0.06755812
v 0.02691907 -0.02930487 -0.08032604
v 0.00004937 -0.03610790 -0.09036852
v 0.03492676 -0.03082621 -0.05280430
v 0.02673968 -0.00740273 -0.09735624
v 0.02700430 -0.01832808 -0.09428366
v 0.02407201 -0.02419714 -0.09822589
v 0.01760430 -0.03037345 -0.09787328
v 0.02731453 -0.03014834 -0.07707658
v 0.03253626 -0.02486205 -0.07500949
v 0.01633019 -0.03287174 -0.08973170
v 0.03201380 -0.01710337 -0.08103574
v 0.03697156 -0.02088866 -0.06364637
v 0.02041519 -0.03692087 -0.05841816
v 0.02876776 -0.02726359 -0.08098716
v 0.00756885 -0.03380378 -0.09988399
v 0.02926037 -0.02605300 -0.08236596
v 0.04033026 -0.02061217 -0.05128384
v 0.03492318 -0.02511259 -0.06723746
v 0.03304183 -0.01219310 -0.07937438
v 0.02973563 -0.03287104 -0.06056986
v 0.03320690 -0.02793891 -0.06739172
v 0.02748979 -0.02551689 -0.08772900
v 0.03324636 -0.00242899 -0.08009315
v 0.02612788 -0.03159360 -0.07495646
v 0.02839357 -0.00234615 -0.09358049
v 0.03053027 -0.03176085 -0.06319397
v 0.03796363 -0.00120184 -0.06529068
v 0.03215576 -0.03132989 -0.06025913
v 0.03453462 -0.00048581 -0.07621511
v 0.03230541 -0.00952401 -0.08217045
v 0.02432296 -0.02504495 -0.09649758
v 0.02031519 -0.03269710 -0.08266589
v 0.02140801 -0.03392045 -0.07506959
v 0.02330716 -0.03291945 -0.07576425
v 0.03064797 -0.03446208 -0.05081905
v 0.01343023 -0.03875515 -0.05229469
v 0.03688786 -0.01916401 -0.06492640
v 0.02831051 -0.01433528 -0.09218393
v 0.02836109 -0.00663239 -0.09322130
v 0.01701227 -0.03755141 -0.05901553
v 0.03297831 -0.02455446 -0.07411085
v 0.01766439 -0.03782944 -0.05576234
v 0.04212350 -0.00233543 -0.05044345
v 0.01318080 -0.03884236 -0.05179324
v 0.01341214 -0.03890523 -0.05094662
v 0.03864173 -0.02030354 -0.05781090
v 0.02595303 -0.03021895 -0.07993069
v 0.03746722 -0.02396947 -0.05937770
v 0.02758779 -0.01842918 -0.09274129
v 0.02533812 -0.01727180 -0.09893699
v 0.02737216 -0.00932499 -0.09551325
v 0.01440804 -0.03329648 -0.09163566
v 0.00402610 -0.03903582 -0.05506115
v 0.02556317 -0.03655031 -0.05128979
v 0.02224129 -0.02648102 -0.09832886
v 0.03184058 -0.03381351 -0.05028763
v 0.00423656 -0.03464430 -0.09977483
v 0.03287312 -0.01628128 -0.07872976
v 0.02153066 -0.03378879 -0.07545276
v 0.03235222 -0.03012816 -0.06341912
v 0.01712178 -0.03634083 -0.06790700
v 0.04196493 -0.00267289 -0.05097607
v 0.02576875 -0.02593536 -0.09135273
v 0.03290219 -0.02449464 -0.07441570
v 0.02789463 -0.01712274 -0.09237120
v 0.03937449 -0.02529447 -0.05028339
v 0.02109074 -0.03063066 -0.08953031
v 0.03260704 -0.00025725 -0.08202418
v 0.02768113 -0.01246798 -0.09438235
v 0.01545684 -0.03117910 -0.09863942
v 0.03748952 -0.02873245 -0.05082565
v 0.00991867 -0.03331190 -0.09928299
v 0.03284254 -0.01437730 -0.07938687
v 0.02795855 -0.01855850 -0.09169048
v 0.02626641 -0.00490025 -0.09884545
v 0.02990895 -0.03142218 -0.06609322
v 0.02161457 -0.03470730 -0.07035754
v 0.04020715 -0.02138215 -0.05101836
v 0.02613632 -0.00709514 -0.09895583
v 0.00014647 -0.03925791 -0.05277375
v 0.02472190 -0.03703045 -0.05020660
v 0.02468438 -0.03656361 -0.05318804
v 0.01505305 -0.03155057 -0.09785575
v 0.02829669 -0.02650868 -0.08395702
v 0.02151589 -0.03382804 -0.07529909
v 0.02867587 -0.01831977 -0.08981384
v 0.03442513 -0.02967044 -0.05810200
v 0.02690336 -0.03123739 -0.07429665
v 0.03257038 -0.00606000 -0.08176360
v 0.03524804 -0.02466533 -0.06665241
v 0.01759076 -0.02974588 -0.09999036
v 0.03046487 -0.03128498 -0.06517606
v 0.02924211 -0.02823626 -0.07733096
v 0.02771796 -0.00868640 -0.09468048
v 0.03831442 -0.02774363 -0.05040603
v 0.03314097 -0.00363018 -0.08031265
v 0.02849280 -0.01118795 -0.09240098
v 0.04198622 -0.00540067 -0.05045646
v 0.03821276 -0.00066429 -0.06445919
v 0.01551396 -0.03872831 -0.05008120
v 0.02642630 -0.00019126 -0.09891720
v 0.02482372 -0.02700626 -0.09113256
v 0.03135665 -0.02741149 -0.07388386
v 0.03017921 -0.03470754 -0.05106887
v 0.03200575 -0.00017440 -0.08372029
v 0.02784989 -0.01794988 -0.09221561
v 0.03228253 -0.00638866 -0.08255341
v 0.03055821 -0.02743349 -0.07597193
v 0.02866888 -0.03551206 -0.05045843
v 0.03465225 -0.03069018 -0.05413528
v 0.03508074 -0.02526697 -0.06654944
v 0.02608320 -0.01848185 -0.09661352
v 0.02243325 -0.03321952 -0.07619246
v 0.03518171 -0.03119196 -0.05080588
v 0.03494338 -0.01064026 -0.07399093
v 0.02814149 -0.02922725 -0.07757077
v 0.03646254 -0.01206875 -0.06889738
v 0.03007619 -0.00320421 -0.08893974
v 0.02250097 -0.03082804 -0.08574223
v 0.03266853 -0.01829641 -0.07866931
v 0.03285376 -0.02069178 -0.07682870
v 0.02516088 -0.02294767 -0.09683229
v 0.03701603 -0.01356682 -0.06677695
v 0.02895625 -0.03492675 -0.05339285
v 0.03464934 -0.02658982 -0.06596781
v 0.00011300 -0.03714902 -0.07841356
v 0.03909482 -0.01698356 -0.05798676
v 0.03471473 -0.03136768 -0.05178839
v 0.01609139 -0.03090209 -0.09858385
v 0.03149697 -0.00028332 -0.08516024
v 0.02449159 -0.02554957 -0.09521964
v 0.02444056 -0.03135130 -0.07972814
v 0.03646523 -0.02506661 -0.06210826
v 0.02834871 -0.03347098 -0.06163375
v 0.01365992 -0.03346259 -0.09213145
v 0.03805100 -0.02327123 -0.05775062
v 0.04137412 -0.01362905 -0.05134300
v 0.01317503 -0.03852313 -0.05470180
v 0.02622179 -0.02531344 -0.09126443
v 0.03298156 -0.01802683 -0.07783496
v 0.02285634 -0.03647187 -0.05766422
v 0.01783023 -0.02969042 -0.09963266
v 0.03723663 -0.02763117 -0.05451198
v 0.03274014 -0.01190278 -0.08032181
v 0.03724266 -0.01560814 -0.06531483
v 0.01802218 -0.03384989 -0.08205087
v 0.02487697 -0.02354388 -0.09696476
v 0.03203934 -0.02330098 -0.07781723
v 0.01607650 -0.03363998 -0.08676780
v 0.00585524 -0.03940407 -0.05036628
v 0.02600480 -0.00330598 -0.09969048
v 0.03659480 -0.02741268 -0.05727701
v 0.03341214 -0.02831157 -0.06570607
v 0.01495841 -0.03441884 -0.08413614
v 0.02963662 -0.01159524 -0.08923382
v 0.01875446 -0.03758163 -0.05622414
v 0.01692965 -0.03670935 -0.06545047
v 0.02930202 -0.01396065 -0.08958101
v 0.02907178 -0.01169868 -0.09076494
v 0.02282266 -0.03240366 -0.07902119
v 0.03335769 -0.02415496 -0.07337696
v 0.02881145 -0.02705528 -0.08140385
v 0.03743031 -0.01459921 -0.06513304
v 0.00040485 -0.03707859 -0.07929495
v 0.02477933 -0.03267536 -0.07381219
v 0.02892304 -0.03157794 -0.06799534
v 0.02654325 -0.02484258 -0.09118222
v 0.02447408 -0.03088821 -0.08112665
v 0.03217696 -0.02369637 -0.07719436
v 0.01829591 -0.03782323 -0.05507405
v 0.02799670 -0.01316559 -0.09339061
v 0.02314165 -0.02642963 -0.09643320
v 0.03885568 -0.01748723 -0.05860480
v 0.03424164 -0.02748198 -0.06546374
v 0.04002785 -0.02139218 -0.05173228
v 0.01833534 -0.03042164 -0.09623767
v 0.03624029 -0.02493902 -0.06308008
v 0.03280666 -0.01348375 -0.07972150
v 0.02311739 -0.03642154 -0.05754665
v 0.02713761 -0.02338613 -0.09117547
v 0.03266410 -0.02604064 -0.07302092
v 0.02908360 -0.03503402 -0.05244574
v 0.01920087 -0.03417606 -0.07801141
v 0.02279808 -0.03618540 -0.05961768
v 0.03416283 -0.02742881 -0.06585897
v 0.02379129 -0.02531024 -0.09735337
v 0.03004740 -0.02757779 -0.07696658
v 0.03293032 -0.00903080 -0.08051743
v 0.01262948 -0.03218703 -0.09977095
v 0.03069982 -0.00406092 -0.08714443
v 0.00044959 -0.03595347 -0.09182386
v 0.01059470 -0.03308097 -0.09965745
v 0.03768590 -0.01300483 -0.06478587
v 0.02979332 -0.00082915 -0.08992497
v 0.03267589 -0.01481528 -0.07974868
v 0.01937402 -0.03811394 -0.05114409
v 0.02842468 -0.02672571 -0.08316122
v 0.04111896 -0.00023374 -0.05432148
v 0.00176337 -0.03940854 -0.05075854
v 0.03981369 -0.02368400 -0.05019626
v 0.03984262 -0.01349774 -0.05693001
v 0.02772250 -0.01095007 -0.09443436
v 0.01006070 -0.03917651 -0.05028124
v 0.02425074 -0.03686150 -0.05230281
v 0.01565824 -0.03488018 -0.08014795
v 0.02238772 -0.02997009 -0.08869432
v 0.03608218 -0.02569664 -0.06244193
v 0.03316212 -0.00872699 -0.07991732
v 0.00350283 -0.03905983 -0.05482522
v 0.03568298 -0.01169889 -0.07141336
v 0.02548983 -0.02447332 -0.09437050
v 0.04105733 -0.01740778 -0.05041036
v 0.02486745 -0.01955969 -0.09922957
v 0.02886635 -0.00219566 -0.09235207
v 0.02642005 -0.02936666 -0.08128305
v 0.04080963 -0.01923088 -0.05030188
v 0.02060746 -0.03395478 -0.07653511
v 0.02205838 -0.03099423 -0.08616186
v 0.04112118 -0.01276877 -0.05240338
v 0.02306960 -0.03611551 -0.05947218
v 0.03766615 -0.00844343 -0.06542770
v 0.03638636 -0.02662523 -0.05968771
v 0.01850221 -0.03390452 -0.08087025
v 0.03098677 -0.01521700 -0.08446214
v 0.02486931 -0.02608336 -0.09333502
v 0.02672269 -0.03479739 -0.05926419
v 0.01635168 -0.03524095 -0.07676847
v 0.02430441 -0.02409173 -0.09778238
v 0.02741514 -0.01893403 -0.09295697
v 0.03277817 -0.02522313 -0.07381313
v 0.02925813 -0.02568530 -0.08296995
v 0.03778896 -0.00328400 -0.06562059
v 0.01315229 -0.03889790 -0.05131016
v 0.02375712 -0.03725556 -0.05014087
v 0.01920344 -0.03068029 -0.09343810
v 0.02328158 -0.02577367 -0.09782955
v 0.03212894 -0.00045700 -0.08336852
v 0.02296594 -0.03262227 -0.07778325
v 0.02788590 -0.02971374 -0.07689931
v 0.03743220 -0.02659569 -0.05594810
v 0.02324678 -0.03268383 -0.07695897
v 0.03192836 -0.01518266 -0.08178542
v 0.02393792 -0.03575983 -0.05968019
v 0.04189858 -0.00763437 -0.05041392
v 0.03709773 -0.02037737 -0.06354732
v 0.00191023 -0.03494763 -0.09992844
v 0.02086847 -0.02716776 -0.09958003
v 0.02528892 -0.02965807 -0.08303688
v 0.02521263 -0.02358146 -0.09605508
v 0.02238061 -0.03628755 -0.05976415
v 0.03312014 -0.02386603 -0.07430997
v 0.01923528 -0.03046900 -0.09416339
v 0.03026407 -0.01199585 -0.08736006
v 0.01958147 -0.03397477 -0.07846467
v 0.04216137 -0.00338816 -0.05009129
v 0.02708257 -0.01985150 -0.09335084
v 0.02460109 -0.03252104 -0.07489006
v 0.03756159 -0.01011938 -0.06556929
v 0.03791115 -0.02701100 -0.05340023
v 0.00046376 -0.03562121 -0.09529817
v 0.00098456 -0.03507180 -0.09991130
v 0.03253949 -0.02497528 -0.07484923
v 0.03655269 -0.02239613 -0.06399218
v 0.01763710 -0.03694133 -0.06266512
v 0.03186157 -0.01761273 -0.08128074
v 0.03202521 -0.03185705 -0.05871630
v 0.03375527 -0.03241108 -0.05116979
v 0.02079463 -0.03023017 -0.09146348
v 0.01568955 -0.03823332 -0.05439939
v 0.03780145 -0.02578206 -0.05590683
v 0.03083900 -0.02573434 -0.07883414
v 0.01974376 -0.03793230 -0.05191966
v 0.02716528 -0.01270283 -0.09569471
v 0.02348617 -0.03221235 -0.07853709
v 0.02971389 -0.02361154 -0.08408150
v 0.02781023 -0.02335255 -0.08940212
v 0.03573301 -0.02708026 -0.06105849
v 0.01378857 -0.03239873 -0.09672030
v 0.02576972 -0.01214028 -0.09937751
v 0.03660666 -0.01993286 -0.06548774
v 0.04059703 -0.02014675 -0.05058220
v 0.03868912 -0.02635960 -0.05158445
v 0.02253418 -0.03642095 -0.05860445
v 0.03669013 -0.02389494 -0.06237038
v 0.02851739 -0.00539301 -0.09294330
v 0.03677070 -0.02401472 -0.06197586
v 0.03581651 -0.02626562 -0.06244832
v 0.03676562 -0.02481978 -0.06132149
v 0.03233233 -0.01511238 -0.08065143
v 0.03494551 -0.02783654 -0.06212445
v 0.02528033 -0.01859314 -0.09863183
v 0.03307899 -0.02706583 -0.06989454
v 0.02211540 -0.03263336 -0.07940701
v 0.01669216 -0.03557214 -0.07415845
v 0.03085950 -0.02595196 -0.07844982
v 0.03017922 -0.02379134 -0.08271029
v 0.03163366 -0.02225723 -0.07953601
v 0.02490539 -0.02134178 -0.09826903
v 0.03766613 -0.01044902 -0.06518391
v 0.03993615 -0.02142874 -0.05206448
v 0.03625925 -0.02502753 -0.06292114
v 0.02944369 -0.03478945 -0.05277180
v 0.02175570 -0.03659344 -0.05862131
v 0.02098715 -0.03020764 -0.09110308
v 0.03250278 -0.02741164 -0.07079582
v 0.02570685 -0.01124278 -0.09963494
v 0.00037373 -0.03518013 -0.09964504
v 0.03738719 -0.02886710 -0.05074443
v 0.03721202 -0.01403143 -0.06602101
v 0.02533504 -0.01487993 -0.09972269
v 0.02515739 -0.03065143 -0.08034457
v 0.03214111 -0.01851262 -0.08005381
v 0.02738666 -0.03435977 -0.06038392
v 0.03050905 -0.01520398 -0.08582811
v 0.03106738 -0.02523347 -0.07878274
v 0.01381610 -0.03211765 -0.09785676
v 0.02918272 -0.01302383 -0.09017737
v 0.01872596 -0.02984992 -0.09720312
v 0.02988168 -0.00034593 -0.08970717
v 0.03699122 -0.01807911 -0.06506790
v 0.02818441 -0.01423157 -0.09255922
v 0.03384575 -0.02635022 -0.06898045
v 0.01629230 -0.03061325 -0.09939588
v 0.02763582 -0.03479556 -0.05719925
v 0.03144016 -0.00511698 -0.08500871
v 0.01474284 -0.03126301 -0.09961960
v 0.03055730 -0.03163373 -0.06365008
v 0.03775292 -0.02614816 -0.05553238
v 0.01043884 -0.03318227 -0.09927852
v 0.02383832 -0.03016064 -0.08485796
v 0.03708681 -0.01731476 -0.06508530
f 91 247 303
f 128 91 246
f 247 91 128
f 355 50 149
f 149 50 21
f 21 128 149
f 149 246 38
f 149 128 246
f 355 149 309
f 309 149 199
f 110 241 246
f 246 91 110
f 21 50 174
f 174 128 21
f 294 309 199
f 308 50 355
f 355 309 90
f 38 246 153
f 281 308 355
f 309 294 88
f 88 90 309
f 241 110 4
f 303 260 30
f 38 153 367
f 246 75 147
f 246 147 48
f 77 116 48
f 48 153 246
f 48 116 153
f 15 358 139
f 139 294 15
f 15 294 199
f 8 143 114
f 212 174 50
f 50 198 212
f 128 174 212
f 251 281 93
f 157 230 152
f 152 83 157
f 157 104 129
f 157 83 104
f 152 230 350
f 355 90 186
f 50 308 239
f 308 281 239
f 281 251 239
f 90 88 218
f 93 90 218
f 218 244 93
f 37 211 241
f 241 4 37
f 25 110 91
f 34 65 329
f 329 65 26
f 303 30 292
f 30 185 292
f 292 185 25
f 153 116 178
f 178 367 153
f 241 165 306
f 20 147 75
f 20 48 147
f 348 184 65
f 248 34 8
f 8 114 248
f 330 114 143
f 101 212 198
f 93 244 148
f 148 251 93
f 148 34 303
f 43 88 294
f 102 157 129
f 230 157 102
f 172 350 230
f 230 102 172
f 54 261 24
f 356 143 8
f 356 119 143
f 56 180 95
f 296 49 56
f 150 49 103
f 284 273 150
f 93 281 92
f 186 84 92
f 92 281 355
f 355 186 92
f 92 90 93
f 129 244 320
f 34 329 264
f 264 329 260
f 303 34 264
f 264 260 303
f 175 185 30
f 249 185 4
f 249 4 110
f 110 25 249
f 146 25 91
f 146 292 25
f 48 20 5
f 5 20 75
f 77 48 40
f 48 5 40
f 262 73 38
f 38 367 242
f 242 262 38
f 39 262 242
f 22 116 77
f 241 306 347
f 246 241 347
f 347 75 246
f 171 165 241
f 127 15 199
f 126 65 34
f 307 330 143
f 307 270 288
f 114 330 318
f 328 209 299
f 128 212 257
f 212 101 257
f 282 244 129
f 282 148 244
f 282 104 8
f 129 104 282
f 8 34 282
f 34 148 282
f 10 148 303
f 251 148 10
f 10 239 251
f 371 374 139
f 300 224 139
f 56 13 140
f 104 83 315
f 8 104 315
f 315 83 152
f 350 172 361
f 152 350 314
f 314 315 152
f 179 273 284
f 284 103 295
f 295 54 284
f 295 190 139
f 261 54 295
f 139 358 295
f 358 261 295
f 24 170 195
f 346 170 24
f 288 270 335
f 143 119 338
f 56 95 254
f 254 296 56
f 190 295 254
f 254 295 296
f 245 273 132
f 220 103 284
f 284 150 220
f 220 150 103
f 90 92 317
f 317 92 84
f 317 186 90
f 317 84 186
f 244 218 204
f 204 320 244
f 88 43 105
f 105 43 294
f 205 204 105
f 105 218 88
f 105 204 218
f 94 329 26
f 26 293 94
f 12 293 26
f 26 328 12
f 19 12 175
f 293 12 19
f 25 185 267
f 267 249 25
f 185 249 267
f 256 40 5
f 75 347 269
f 269 347 306
f 285 178 116
f 116 22 285
f 71 256 144
f 40 256 71
f 77 40 71
f 71 22 77
f 241 211 357
f 357 171 241
f 169 328 299
f 250 127 52
f 52 99 250
f 358 15 354
f 354 327 358
f 223 348 65
f 65 126 223
f 181 349 336
f 336 318 181
f 114 318 23
f 23 318 336
f 303 247 16
f 16 10 303
f 247 198 16
f 16 198 50
f 50 239 16
f 239 10 16
f 177 371 55
f 139 224 55
f 55 371 139
f 180 300 115
f 115 300 316
f 124 140 375
f 287 13 56
f 56 49 287
f 139 374 42
f 42 237 240
f 240 237 46
f 350 361 68
f 68 314 350
f 375 140 17
f 17 314 375
f 17 140 13
f 13 108 17
f 79 54 259
f 79 179 284
f 64 279 343
f 49 296 263
f 296 295 263
f 103 49 263
f 263 295 103
f 187 79 215
f 215 79 259
f 259 54 276
f 276 195 259
f 24 261 36
f 36 346 24
f 210 235 62
f 31 235 210
f 210 245 31
f 31 245 132
f 343 340 31
f 31 64 343
f 132 64 31
f 270 200 173
f 173 335 270
f 349 335 173
f 143 338 191
f 191 338 222
f 200 191 29
f 29 191 222
f 359 95 180
f 180 216 359
f 378 254 95
f 190 254 366
f 139 190 366
f 366 300 139
f 316 300 366
f 320 204 1
f 61 320 1
f 342 105 63
f 63 42 240
f 63 105 294
f 63 294 139
f 139 42 63
f 205 105 109
f 109 105 342
f 109 1 204
f 109 342 61
f 61 1 109
f 61 342 351
f 342 331 351
f 351 320 61
f 351 331 320
f 320 331 189
f 221 175 30
f 221 19 175
f 365 207 203
f 280 5 75
f 75 269 280
f 5 280 163
f 163 280 269
f 163 269 306
f 163 306 165
f 166 262 39
f 39 238 166
f 250 99 142
f 142 87 250
f 73 262 333
f 123 127 199
f 123 52 127
f 98 339 261
f 98 261 358
f 277 97 122
f 336 334 14
f 65 184 14
f 336 349 225
f 138 209 311
f 209 89 112
f 217 112 3
f 299 209 217
f 209 112 217
f 376 181 318
f 376 318 330
f 376 307 288
f 330 307 376
f 255 335 349
f 349 181 255
f 167 216 180
f 180 115 167
f 72 180 56
f 182 361 72
f 69 287 353
f 235 151 353
f 151 31 353
f 353 31 340
f 372 361 172
f 372 35 361
f 372 172 102
f 102 35 372
f 364 46 237
f 100 183 240
f 240 46 100
f 224 300 283
f 361 107 213
f 213 72 361
f 375 314 74
f 314 68 74
f 74 68 361
f 74 361 182
f 176 162 8
f 8 315 176
f 284 54 234
f 234 79 284
f 54 79 234
f 273 179 111
f 132 273 111
f 111 64 132
f 279 64 70
f 187 215 70
f 70 215 279
f 259 195 297
f 297 195 170
f 170 228 297
f 156 151 235
f 235 31 156
f 156 31 151
f 7 89 45
f 325 173 200
f 200 29 325
f 44 11 338
f 338 11 201
f 222 338 201
f 254 378 47
f 47 366 254
f 240 342 377
f 377 63 240
f 312 204 205
f 205 109 312
f 312 109 204
f 129 320 252
f 320 189 252
f 327 117 321
f 358 327 321
f 321 97 358
f 321 113 97
f 373 155 256
f 256 238 373
f 373 238 39
f 144 256 137
f 256 155 137
f 236 256 5
f 5 163 121
f 145 333 262
f 207 117 145
f 87 333 145
f 145 117 250
f 250 87 145
f 339 98 160
f 97 277 160
f 170 277 304
f 304 277 122
f 206 86 2
f 96 14 184
f 336 14 96
f 332 334 336
f 336 225 332
f 332 225 138
f 138 311 332
f 196 217 344
f 344 345 196
f 344 217 3
f 122 345 344
f 3 363 344
f 170 324 344
f 344 228 170
f 259 297 344
f 344 297 228
f 344 215 259
f 344 363 215
f 3 112 319
f 319 363 3
f 215 363 319
f 343 279 319
f 279 215 319
f 124 72 136
f 136 72 56
f 214 124 375
f 214 72 124
f 182 72 214
f 375 74 214
f 214 74 182
f 164 353 287
f 49 9 164
f 164 287 49
f 131 364 177
f 118 371 177
f 177 364 118
f 183 100 197
f 58 100 46
f 266 300 180
f 266 283 300
f 133 107 361
f 361 81 133
f 72 213 305
f 180 72 305
f 76 176 315
f 315 314 76
f 314 17 76
f 349 173 159
f 173 45 159
f 159 45 89
f 229 340 343
f 229 45 340
f 7 45 229
f 233 353 340
f 69 353 233
f 233 201 69
f 222 201 233
f 176 158 51
f 162 176 51
f 69 201 33
f 33 108 13
f 33 287 69
f 13 287 33
f 316 366 352
f 366 47 352
f 342 63 120
f 120 377 342
f 63 377 120
f 253 342 240
f 274 35 102
f 361 35 274
f 274 32 361
f 379 193 211
f 379 368 193
f 85 12 328
f 328 368 85
f 113 321 369
f 122 97 154
f 97 113 154
f 154 369 86
f 113 369 154
f 365 203 78
f 313 360 134
f 122 154 134
f 6 345 122
f 122 134 6
f 6 134 360
f 196 345 6
f 328 169 188
f 188 368 328
f 211 193 188
f 193 368 188
f 188 357 211
f 171 357 188
f 171 121 258
f 258 121 163
f 165 171 258
f 258 163 165
f 67 236 5
f 5 121 67
f 67 121 236
f 97 160 53
f 53 160 98
f 358 97 53
f 53 98 358
f 60 332 311
f 60 311 209
f 60 328 26
f 209 328 60
f 323 304 122
f 122 344 323
f 323 344 324
f 323 324 170
f 170 304 323
f 57 319 112
f 310 319 57
f 278 319 310
f 7 229 278
f 278 229 319
f 9 62 141
f 141 164 9
f 141 62 235
f 235 353 141
f 353 164 141
f 46 364 326
f 364 131 326
f 271 100 302
f 302 231 271
f 208 58 46
f 180 305 322
f 322 266 180
f 283 266 322
f 66 209 138
f 66 89 209
f 66 159 89
f 343 319 18
f 18 229 343
f 319 229 18
f 173 233 370
f 370 45 173
f 340 45 370
f 370 233 340
f 44 51 135
f 11 44 135
f 135 51 158
f 183 197 27
f 27 271 231
f 27 231 302
f 302 125 27
f 27 125 268
f 275 28 342
f 342 253 275
f 275 27 28
f 253 27 275
f 240 183 202
f 202 253 240
f 183 27 202
f 202 27 253
f 361 32 291
f 291 125 361
f 32 268 291
f 268 125 291
f 265 125 302
f 265 133 81
f 265 81 361
f 361 125 265
f 107 133 265
f 130 274 102
f 130 102 129
f 129 252 130
f 219 321 117
f 219 369 321
f 219 207 365
f 219 117 207
f 365 2 219
f 2 86 219
f 86 369 219
f 236 41 301
f 301 78 236
f 365 78 301
f 192 41 236
f 169 6 168
f 168 188 169
f 168 6 360
f 168 360 313
f 59 168 313
f 188 168 59
f 194 197 100
f 100 271 194
f 194 27 197
f 271 27 194
f 298 331 342
f 342 28 298
f 28 27 298
f 106 59 121
f 188 59 106
f 106 121 171
f 171 188 106
f 272 59 362
f 362 59 206
f 362 206 2
f 58 208 80
f 208 322 289
f 289 286 208
f 289 322 305
f 232 27 268
f 232 298 27
f 121 59 243
f 59 337 243
f 290 59 272
f 290 337 59
f 208 286 341
f 341 80 208
f 82 213 107
f 82 305 213
f 82 289 305
f 298 232 227
f 227 189 331
f 331 298 227
f 227 252 189
f 227 232 268
f 227 130 252
f 227 268 32
f 32 274 227
f 274 130 227
f 121 243 226
f 236 121 226
f 226 192 236
f 161 82 107
f 289 82 161
f 303 292 146
f 146 91 303
f 257 101 198
f 247 128 257
f 257 198 247
f 24 195 276
f 276 54 24
f 62 245 210
f 49 150 62
f 62 150 273
f 62 9 49
f 273 245 62
f 270 307 191
f 191 307 143
f 191 200 270
f 260 329 221
f 221 30 260
f 329 94 221
f 221 94 293
f 293 19 221
f 117 127 250
f 15 127 117
f 117 354 15
f 327 354 117
f 199 149 123
f 123 149 38
f 38 73 123
f 123 142 99
f 73 333 123
f 99 52 123
f 87 142 123
f 123 333 87
f 255 376 288
f 288 335 255
f 181 376 255
f 179 79 70
f 70 79 187
f 70 111 179
f 64 111 70
f 137 373 39
f 137 71 144
f 367 178 137
f 137 242 367
f 39 242 137
f 178 285 137
f 137 285 22
f 22 71 137
f 155 373 137
f 160 36 261
f 261 339 160
f 170 346 160
f 346 36 160
f 160 277 170
f 34 248 96
f 114 23 96
f 348 223 96
f 184 348 96
f 96 248 114
f 96 126 34
f 96 223 126
f 96 23 336
f 56 140 136
f 140 124 136
f 118 42 374
f 374 371 118
f 237 42 118
f 118 364 237
f 173 325 233
f 233 29 222
f 233 325 29
f 8 162 51
f 51 356 8
f 119 356 51
f 51 338 119
f 51 44 338
f 352 115 316
f 95 359 352
f 216 167 352
f 352 359 216
f 352 378 95
f 352 167 115
f 352 47 378
f 185 175 85
f 85 37 4
f 211 37 85
f 4 185 85
f 175 12 85
f 85 379 211
f 368 379 85
f 78 203 207
f 256 236 78
f 78 238 256
f 262 166 78
f 78 166 238
f 78 145 262
f 207 145 78
f 6 169 299
f 299 217 6
f 6 217 196
f 26 65 60
f 65 14 60
f 60 14 334
f 334 332 60
f 278 112 89
f 278 89 7
f 278 57 112
f 310 57 278
f 177 55 322
f 46 326 322
f 322 55 224
f 224 283 322
f 322 208 46
f 322 131 177
f 322 326 131
f 66 225 349
f 138 225 66
f 349 159 66
f 135 17 108
f 135 76 17
f 108 33 135
f 135 201 11
f 176 76 135
f 135 158 176
f 135 33 201
f 313 134 59
f 86 206 59
f 59 154 86
f 59 134 154
f 365 301 226
f 226 2 365
f 226 290 272
f 226 301 41
f 41 192 226
f 226 362 2
f 272 362 226
f 226 243 337
f 337 290 226
f 302 100 161
f 107 265 161
f 100 58 161
f 161 265 302
f 58 80 161
f 161 341 286
f 286 289 161
f 80 341 161

