# https://github.com/mikedh/trimesh
v -0.02323069 0.00039649 -0.10076537
v -0.00517098 0.02955923 -0.10004491
v -0.02399265 0.00618415 -0.10057372
v -0.01159290 0.02719324 -0.10025661
v -0.00045799 0.03008053 -0.10320000
v -0.00178262 0.03000531 -0.10318153
v -0.00006587 0.03023133 -0.10082690
v -0.02054909 0.01854694 -0.10286783
v -0.02311776 0.01260728 -0.10130946
v -0.01183450 0.02709316 -0.10035656
v -0.02070108 0.01834886 -0.10035703
v -0.02395643 0.00590903 -0.10226290
v -0.01720915 0.02289962 -0.10285396
v -0.02385370 0.00512870 -0.10296193
v -0.02275844 0.01300017 -0.10320000
v -0.00054317 0.03016849 -0.10287812
v -0.01138585 0.02727900 -0.10017413
v -0.01671889 0.02340368 -0.10189617
v -0.00606041 0.02944213 -0.10235289
v -0.00658526 0.02926747 -0.10122912
v -0.00192332 0.02998679 -0.10000034
v -0.01697968 0.02319868 -0.10085154
v -0.02154794 0.01639717 -0.10031855
v -0.00535189 0.02953541 -0.10304480
v -0.01937540 0.01997450 -0.10320000
v -0.01850870 0.00003473 -0.10320000
v -0.00295736 0.00014073 -0.10320000
v -0.00888866 0.02831337 -0.10300656
v -0.02178749 0.01581883 -0.10313944
v -0.02318618 0.01242158 -0.10211792
v -0.02397979 0.00639348 -0.10040412
v -0.01657336 0.02351535 -0.10239260
v -0.02345434 0.01038471 -0.10317989
v -0.02331174 0.01146789 -0.10108237
v -0.02102631 0.01765650 -0.10305774
v -0.02364922 0.00357554 -0.10026725
v -0.02128099 0.01678478 -0.10320000
v -0.02366492 0.00645484 -0.10320000
v -0.00027796 0.02966972 -0.10320000
v -0.02322654 0.00036498 -0.10260520
v -0.01245211 0.02667769 -0.10279630
v -0.01351553 0.02586170 -0.10318055
v -0.01773329 0.02221656 -0.10035917
v -0.02389221 0.00705871 -0.10002202
v -0.00049047 0.00096254 -0.10320000
v -0.01121383 0.02735025 -0.10316595
v -0.00001006 0.03023867 -0.10201517
v -0.00620426 0.02942320 -0.10023668
v -0.02041049 0.01851565 -0.10320000
v -0.02364972 0.00478401 -0.10320000
v -0.01724553 0.02285222 -0.10048604
v -0.02330385 0.00975818 -0.10320000
v -0.01215745 0.02690379 -0.10012289
v -0.02322208 0.00033110 -0.10240128
v -0.00965291 0.02799681 -0.10015357
v -0.02172782 0.01596289 -0.10006053
v -0.02325645 0.00059220 -0.10028265
v -0.01271405 0.02647670 -0.10289444
v -0.01190135 0.02706547 -0.10162349
v -0.01157886 0.02710417 -0.10320000
v -0.00000375 0.02702681 -0.10320000
v -0.02390829 0.00554337 -0.10272916
v -0.02226475 0.00040634 -0.10320000
v -0.00605729 0.02944254 -0.10155622
v -0.02324428 0.00049973 -0.10285821
v -0.01819768 0.02161135 -0.10031894
v -0.00000822 0.00162485 -0.10320000
v -0.00177686 0.02996439 -0.10320000
v -0.01260544 0.02644779 -0.10320000
v -0.00835002 0.02830427 -0.10320000
v -0.01708096 0.02296871 -0.10320000
v -0.01674453 0.02338400 -0.10076201
v -0.01177620 0.02711731 -0.10206736
v -0.02322883 0.01209760 -0.10245066
v -0.02247340 0.01416291 -0.10238294
v -0.00702963 0.02908341 -0.10069816
v -0.00595783 0.02945564 -0.10219357
v -0.00018461 0.03021569 -0.10273140
v -0.02337059 0.00187441 -0.10320000
v -0.02288986 0.01315747 -0.10049166
v -0.00634928 0.02936522 -0.10272889
v -0.00001359 0.02781899 -0.10320000
v -0.02340332 0.00170773 -0.10306726
v -0.02081945 0.01815589 -0.10160310
v -0.02298033 0.00087251 -0.10320000
v -0.02398853 0.00632709 -0.10318895
f 27 1 26
f 7 21 67
f 1 27 57
f 21 44 57
f 56 44 21
f 47 67 61
f 47 7 67
f 53 56 2
f 2 56 21
f 45 57 27
f 67 21 45
f 21 57 45
f 36 57 44
f 3 36 31
f 31 36 44
f 85 65 79
f 85 63 65
f 26 1 54
f 71 42 69
f 11 56 66
f 66 56 53
f 53 2 55
f 55 2 48
f 55 17 53
f 79 65 83
f 86 83 14
f 79 83 86
f 86 12 3
f 3 31 86
f 65 63 40
f 40 63 26
f 26 54 40
f 74 15 33
f 41 59 73
f 53 59 41
f 53 51 43
f 43 66 53
f 32 42 71
f 10 59 53
f 76 55 48
f 35 49 37
f 8 49 35
f 23 56 11
f 79 86 50
f 50 86 38
f 62 86 14
f 12 86 62
f 38 86 52
f 52 86 33
f 33 15 52
f 15 74 30
f 58 69 42
f 58 41 69
f 18 22 72
f 72 22 51
f 72 51 53
f 71 8 13
f 13 22 18
f 18 32 13
f 13 32 71
f 82 47 61
f 53 17 4
f 4 10 53
f 29 37 15
f 35 37 29
f 15 30 29
f 25 8 71
f 49 8 25
f 11 8 84
f 84 8 35
f 84 23 11
f 78 82 39
f 47 82 78
f 78 39 5
f 5 16 78
f 68 70 24
f 19 81 48
f 24 81 19
f 46 70 60
f 24 70 46
f 46 41 73
f 60 69 46
f 69 41 46
f 20 76 48
f 48 81 20
f 9 30 34
f 6 68 24
f 5 68 6
f 6 16 5
f 24 19 77
f 77 19 2
f 48 2 64
f 64 19 48
f 2 19 64
f 28 81 24
f 24 46 28
f 75 29 30
f 30 9 75
f 80 9 34
f 80 34 44
f 44 56 80
f 62 54 1
f 62 36 3
f 1 57 62
f 57 36 62
f 3 12 62
f 62 83 65
f 65 40 62
f 14 83 62
f 62 40 54
f 30 74 33
f 30 31 44
f 33 86 30
f 30 86 31
f 44 34 30
f 72 58 42
f 53 41 72
f 42 32 72
f 72 32 18
f 41 58 72
f 13 43 51
f 51 22 13
f 11 66 13
f 66 43 13
f 13 8 11
f 61 67 68
f 67 45 68
f 68 69 60
f 60 70 68
f 68 27 26
f 26 63 68
f 68 85 79
f 15 37 68
f 68 45 27
f 79 50 68
f 63 85 68
f 71 69 68
f 68 82 61
f 68 52 15
f 5 39 68
f 68 37 49
f 68 50 38
f 38 52 68
f 39 82 68
f 68 25 71
f 49 25 68
f 7 47 77
f 21 7 77
f 77 2 21
f 47 78 77
f 77 6 24
f 77 78 16
f 16 6 77
f 73 59 28
f 17 55 28
f 76 20 28
f 28 4 17
f 28 46 73
f 59 10 28
f 55 76 28
f 10 4 28
f 28 20 81
f 23 84 80
f 56 23 80
f 80 84 35
f 35 29 80
f 29 75 80
f 80 75 9

