# https://github.com/mikedh/trimesh
v 0.03369759 -0.03278316 -0.00110930
v 0.04087268 -0.00140951 -0.00890634
v 0.03691146 -0.02229055 -0.01771381
v 0.03949414 -0.02169120 -0.00222494
v 0.04092009 -0.00443357 -0.00636361
v 0.03937720 -0.02210811 -0.00251189
v 0.04008897 -0.01596061 -0.00973702
v 0.04049004 -0.00523355 -0.01391918
v 0.03244369 -0.03283228 -0.00068897
v 0.03639071 -0.02535078 -0.01454323
v 0.03450914 -0.03083030 -0.00944554
v 0.03952868 -0.00731741 -0.02052837
v 0.03993532 -0.01966963 -0.00013898
v 0.03359886 -0.03058291 -0.01206994
v 0.04022690 -0.01723830 -0.00364308
v 0.04011579 -0.01736157 -0.00642558
v 0.03815380 -0.01997524 -0.01631521
v 0.03787630 -0.02628782 -0.00291252
v 0.03975725 -0.01136584 -0.01749045
v 0.03766481 -0.02193904 -0.01551500
v 0.03684297 -0.02239491 -0.01776157
v 0.03556573 -0.02870786 -0.01055663
v 0.04036795 -0.01252112 -0.01052841
v 0.03906245 -0.01462446 -0.01836049
v 0.04014500 -0.00754954 -0.01684734
v 0.04010625 -0.01007933 -0.01578566
v 0.03864615 -0.01965646 -0.01481240
v 0.04027924 -0.00062434 -0.01741067
v 0.04081020 -0.00000426 -0.01004060
v 0.03795471 -0.02501571 -0.00793538
v 0.04060573 -0.01191693 -0.00493162
v 0.03348887 -0.00001335 -0.03695687
v 0.03270673 -0.03193489 -0.00791748
v 0.04088713 -0.00673725 -0.00528628
v 0.03466916 -0.02640084 -0.01820890
v 0.03958038 -0.02049023 -0.00643072
v 0.04096123 -0.00443701 -0.00180689
v 0.04099474 -0.00133301 -0.00217175
v 0.03905589 -0.01235913 -0.02009805
v 0.03987418 -0.01931861 -0.00524504
v 0.03837483 -0.02225897 -0.01189175
v 0.04087155 -0.00421020 -0.00787937
v 0.03445807 -0.02619140 -0.01899189
v 0.03507771 -0.02908464 -0.01176369
v 0.04049684 -0.01283365 -0.00695299
v 0.04018294 -0.01661142 -0.00708826
v 0.03958264 -0.01681679 -0.01342245
v 0.03311391 -0.03273276 -0.00313235
v 0.04091423 -0.00507329 -0.00641034
v 0.03905586 -0.02269210 -0.00546665
v 0.02453411 -0.01596930 -0.04972173
v 0.04081014 -0.00517602 -0.00836313
v 0.02485624 -0.01566918 -0.04997710
v 0.04028360 -0.01197867 -0.01226656
v 0.04018188 -0.00530173 -0.01747831
v 0.03965086 -0.02114644 -0.00008916
v 0.04025150 -0.01514287 -0.00857595
v 0.04100210 -0.00151429 -0.00124182
v 0.04022262 -0.01673720 -0.00568697
v 0.03074268 -0.02676210 -0.00001959
v 0.04003472 -0.01812775 -0.00590426
v 0.04053674 -0.01055395 -0.00925362
v 0.04038188 -0.00997547 -0.01285244
v 0.03074153 -0.03222600 -0.00006921
v 0.03875844 -0.02425429 -0.00065916
v 0.03966018 -0.01487226 -0.01506610
v 0.03479298 -0.02794364 -0.01531809
v 0.04059879 -0.00766431 -0.01061353
v 0.03768561 -0.02395682 -0.01217882
v 0.03870540 -0.01957279 -0.01468444
v 0.04092013 -0.00453245 -0.00629049
v 0.04004573 -0.01780782 -0.00650074
v 0.04044418 -0.01201696 -0.00969660
v 0.03887668 -0.02292262 -0.00732847
v 0.04011313 -0.01143780 -0.01475360
v 0.03321000 -0.03261471 -0.00429102
v 0.03726054 -0.02314051 -0.01534866
v 0.04026963 -0.01524828 -0.00801132
v 0.03750490 -0.02608115 -0.00801163
v 0.03038657 -0.03192606 -0.00605525
v 0.00193514 -0.00016750 -0.04562587
v 0.02660409 -0.01348500 -0.04999975
v 0.03826733 -0.01662145 -0.01946889
v 0.03859513 -0.02460624 -0.00247517
v 0.03140651 -0.00095909 -0.04986913
v 0.03393779 -0.03226445 -0.00548256
v 0.03970904 -0.02091095 -0.00116777
v 0.03973026 -0.01942357 -0.00759342
v 0.03911869 -0.02061531 -0.01067494
v 0.03473701 -0.03057853 -0.00920937
v 0.03166944 -0.00009834 -0.04836426
v 0.04062898 -0.01238774 -0.00207333
v 0.04098682 -0.00205399 -0.00226278
v 0.03891510 -0.01237812 -0.02061849
v 0.03880673 -0.01846320 -0.01568405
v 0.02871168 -0.01018244 -0.04975307
v 0.03889786 -0.01836242 -0.01547893
v 0.03481973 -0.03172569 -0.00182160
v 0.04030726 -0.01582805 -0.00591183
v 0.03971956 -0.01604633 -0.01349826
v 0.04023267 -0.00531050 -0.01697853
v 0.03999244 -0.00350314 -0.01931324
v 0.03969456 -0.02096285 -0.00127619
v 0.03599333 -0.02939875 -0.00522795
v 0.03992220 -0.01259852 -0.01537097
v 0.04096662 -0.00007645 -0.00470218
v 0.04021761 -0.00723443 -0.01634566
v 0.04072561 -0.00054072 -0.01130775
v 0.03462516 -0.03091739 -0.00866046
v 0.04037799 -0.00469819 -0.01571445
v 0.04029764 -0.00525629 -0.01635614
v 0.04027110 -0.00201198 -0.01737614
v 0.04091507 -0.00730458 -0.00328270
v 0.02330776 -0.00010937 -0.04798300
v 0.04062604 -0.00104517 -0.01281019
v 0.03593460 -0.02995325 -0.00103756
v 0.03948976 -0.01173067 -0.01850730
v 0.03587087 -0.02893123 -0.00828838
v 0.03779649 -0.01892410 -0.01865432
v 0.03488623 -0.02920579 -0.01224202
v 0.03890905 -0.02386930 -0.00207216
v 0.03467347 -0.03050058 -0.00982374
v 0.04085455 -0.00780493 -0.00463876
v 0.00004708 -0.01816011 -0.04666962
v 0.04050293 -0.01447787 -0.00056472
v 0.03527294 -0.03033453 -0.00658909
v 0.04026849 -0.01124694 -0.01318826
v 0.03930603 -0.02014323 -0.00999352
v 0.04032180 -0.01471937 -0.00798578
v 0.03461827 -0.02334977 -0.02212244
v 0.04037847 -0.00085670 -0.01645185
v 0.03043597 -0.00102948 -0.00027642
v 0.03307803 -0.03273725 -0.00306118
v 0.04063714 -0.00170397 -0.01258017
v 0.03981900 -0.01976731 -0.00483532
v 0.03968476 -0.01994352 -0.00677291
v 0.03951527 -0.01238695 -0.01791683
v 0.03689787 -0.02548835 -0.01259729
v 0.03310514 -0.03263304 -0.00418113
v 0.03979474 -0.01290739 -0.01613865
v 0.03874081 -0.02430597 -0.00007379
v 0.03971986 -0.00039451 -0.02060679
v 0.03690928 -0.02237172 -0.01762054
v 0.03906016 -0.02060886 -0.01109180
v 0.03899920 -0.02128596 -0.01021455
v 0.03569476 -0.02782278 -0.01214529
v 0.04019988 -0.01789919 -0.00024547
v 0.03735603 -0.02230662 -0.01629006
v 0.03427935 -0.03139247 -0.00845520
v 0.03905103 -0.01875215 -0.01408922
v 0.03890324 -0.02346085 -0.00458403
v 0.03460562 -0.03181259 -0.00442306
v 0.04047141 -0.00038295 -0.01527025
v 0.03723251 -0.02566338 -0.01071421
v 0.03518553 -0.02600998 -0.01723246
v 0.03739546 -0.02706997 -0.00464392
v 0.04031004 -0.01561952 -0.00635213
v 0.04023396 -0.00127860 -0.01778917
v 0.03894468 -0.01797256 -0.01565285
v 0.03876565 -0.01560194 -0.01877395
v 0.04025972 -0.00136373 -0.01754157
v 0.03465601 -0.03134633 -0.00660681
v 0.03977010 -0.01627524 -0.01294784
v 0.04022850 -0.00898316 -0.01530934
v 0.04047951 -0.00645767 -0.01352814
v 0.03933117 -0.02207251 -0.00348796
v 0.04091886 -0.00744692 -0.00209369
v 0.04092900 -0.00695753 -0.00115359
v 0.03948919 -0.01858111 -0.01131500
v 0.04076083 -0.01044043 -0.00092066
v 0.03640209 -0.02562624 -0.01406108
v 0.04084349 -0.00458351 -0.00814803
v 0.04093221 -0.00456898 -0.00513931
v 0.03734622 -0.02490865 -0.01196075
v 0.04086650 -0.00279732 -0.00862732
v 0.04010567 -0.00722131 -0.01731205
v 0.03872965 -0.01589516 -0.01865455
v 0.04017777 -0.01788654 -0.00264372
v 0.03411848 -0.03262287 -0.00078031
v 0.03734751 -0.02328344 -0.01478404
v 0.03842072 -0.02155868 -0.01279679
v 0.03421463 -0.03254016 -0.00099741
v 0.04003725 -0.01759519 -0.00715904
v 0.03914452 -0.01232286 -0.01971228
v 0.04035992 -0.00615803 -0.01535029
v 0.04084537 -0.00791475 -0.00473125
v 0.04099976 -0.00048106 -0.00225469
v 0.04004093 -0.01607028 -0.01015490
v 0.03561581 -0.02988534 -0.00596424
v 0.03892122 -0.02333870 -0.00484133
v 0.03388914 -0.03276082 -0.00052241
v 0.04095814 -0.00369139 -0.00345743
v 0.04086873 -0.00824399 -0.00317808
v 0.03725087 -0.02748910 -0.00417189
v 0.03951644 -0.00889340 -0.01991138
v 0.04089867 -0.00806316 -0.00214355
v 0.03893627 -0.01665559 -0.01709632
v 0.04088771 -0.00762157 -0.00381791
v 0.03503527 -0.02544986 -0.01855638
v 0.03750035 -0.02158625 -0.01679455
v 0.04095290 -0.00149220 -0.00537757
v 0.03521241 -0.03096176 -0.00369524
v 0.03974353 -0.01214836 -0.01699718
v 0.03959741 -0.01047326 -0.01882442
v 0.03574090 -0.03018359 -0.00282186
v 0.04040082 -0.00389613 -0.01570779
v 0.03535182 -0.02722750 -0.01473431
v 0.04094823 -0.00568850 -0.00026060
v 0.03296956 -0.03215749 -0.00685820
v 0.04040783 -0.01043698 -0.01212910
v 0.04089788 -0.00453894 -0.00715177
v 0.03987700 -0.01685674 -0.01081210
v 0.04064783 -0.00931823 -0.00805639
v 0.03488761 -0.02483622 -0.01977909
v 0.03709401 -0.02801424 -0.00148837
v 0.03720661 -0.00003054 -0.02943278
v 0.03333520 -0.03130206 -0.00989251
v 0.03345072 -0.03065265 -0.01193525
v 0.03879558 -0.02167285 -0.01087324
v 0.00016588 -0.01487409 -0.04562587
v 0.04069545 -0.00950548 -0.00650434
v 0.04088028 -0.00453530 -0.00748669
v 0.03668763 -0.02854108 -0.00366936
v 0.04078933 -0.00889504 -0.00468925
v 0.04007656 -0.01706321 -0.00780235
v 0.02702162 -0.01288145 -0.04996579
v 0.03896630 -0.00021239 -0.02415467
v 0.03156656 -0.00043377 -0.04900757
v 0.03947241 -0.01438869 -0.01659688
v 0.03990292 -0.01081717 -0.01688489
v 0.04025769 -0.01167722 -0.01291824
v 0.03439907 -0.02747912 -0.01713585
v 0.04079335 -0.00939641 -0.00346458
v 0.04040051 -0.00709695 -0.01448267
v 0.04013339 -0.01447471 -0.01150067
v 0.04100587 -0.00153567 -0.00065397
v 0.04085427 -0.00086165 -0.00928094
v 0.04049025 -0.01064064 -0.01018448
v 0.04035188 -0.01589583 -0.00416779
v 0.03946158 -0.01952697 -0.00997130
v 0.04092387 -0.00269601 -0.00706826
v 0.04074398 -0.00853094 -0.00658679
v 0.03687599 -0.02159389 -0.01855523
v 0.04040341 -0.01226920 -0.01030920
v 0.03036250 -0.03237991 -0.00201915
v 0.03875014 -0.02333181 -0.00688778
v 0.03881419 -0.01474633 -0.01925220
v 0.03914225 -0.02197726 -0.00713091
v 0.03759795 -0.02694436 -0.00277367
v 0.04008463 -0.01079458 -0.01547644
v 0.03699344 -0.02656404 -0.00956173
v 0.04032066 -0.01595840 -0.00509482
v 0.04042712 -0.00093062 -0.01591027
v 0.03903890 -0.01150017 -0.02072269
v 0.03709127 -0.02802328 -0.00122969
v 0.04101661 -0.00004085 -0.00116170
v 0.03408762 -0.02708488 -0.01827911
v 0.03987989 -0.01990819 -0.00245041
v 0.03447605 -0.02901885 -0.01408658
v 0.03962309 -0.00961148 -0.01912482
v 0.04021444 -0.00106427 -0.01798557
v 0.03357855 -0.03058906 -0.01206999
v 0.04082198 -0.00934693 -0.00193776
v 0.04041290 -0.01139851 -0.01109886
v 0.03733672 -0.02157241 -0.01741812
v 0.04007942 -0.01048331 -0.01574795
v 0.04094672 -0.00546959 -0.00195806
v 0.04057608 -0.00615762 -0.01201925
v 0.04039422 -0.01397161 -0.00797605
v 0.03525048 -0.03107513 -0.00084098
v 0.03422054 -0.03243616 -0.00306924
v 0.04093610 -0.00267262 -0.00613709
v 0.04083738 -0.00929057 -0.00047270
v 0.03246513 -0.03267088 -0.00370238
v 0.03979238 -0.01414578 -0.01498812
v 0.04069254 -0.00653378 -0.00963408
v 0.03922056 -0.00394768 -0.02261296
v 0.03542540 -0.02711103 -0.01469918
v 0.03552382 -0.02209674 -0.02130015
v 0.03933295 -0.01253358 -0.01867516
v 0.03529648 -0.02338554 -0.02048368
v 0.03954973 -0.01301443 -0.01730239
v 0.03328985 -0.03282730 -0.00100873
v 0.03948324 -0.02031197 -0.00784829
v 0.03891879 -0.01174059 -0.02102313
v 0.03467039 -0.02735606 -0.01665622
v 0.03888237 -0.02005339 -0.01314801
v 0.04055698 -0.00609223 -0.01237582
v 0.04049551 -0.01463863 -0.00004409
v 0.04092608 -0.00690343 -0.00217456
v 0.04040573 -0.01596267 -0.00020176
v 0.04089503 -0.00836653 -0.00079857
v 0.03833296 -0.01669074 -0.01918741
v 0.04066399 -0.00570397 -0.01072963
v 0.04076061 -0.00946131 -0.00452644
v 0.04095674 -0.00065305 -0.00532472
v 0.03994474 -0.01698654 -0.00980867
v 0.04029726 -0.01040160 -0.01353582
v 0.03762559 -0.01831084 -0.01989036
v 0.04092839 -0.00596485 -0.00385710
v 0.00002753 -0.01067105 -0.04562587
v 0.04086799 -0.00609741 -0.00646108
v 0.04029312 -0.01268707 -0.01139657
v 0.04096963 -0.00038432 -0.00446410
v 0.04045149 -0.01446337 -0.00499468
v 0.04091247 -0.00806580 -0.00113850
v 0.04043443 -0.01518902 -0.00330610
v 0.01208579 -0.00000255 -0.04562587
v 0.03885929 -0.01286500 -0.02045320
v 0.04089892 -0.00809156 -0.00202241
v 0.04020142 -0.01760128 -0.00306671
v 0.00003864 -0.01816123 -0.04684405
v 0.04099205 -0.00250507 -0.00079314
v 0.04095136 -0.00546258 -0.00033128
v 0.04013928 -0.01811435 -0.00320011
v 0.03759476 -0.01766402 -0.02066442
v 0.04096435 -0.00287322 -0.00366247
v 0.04093759 -0.00069529 -0.00668280
v 0.04009358 -0.01631226 -0.00908186
v 0.03628179 -0.02939139 -0.00008749
v 0.03518231 -0.03007271 -0.00835005
v 0.03960006 -0.02019306 -0.00699434
v 0.04047610 -0.00468838 -0.01438119
v 0.03018237 -0.03201926 -0.00538473
v 0.04041836 -0.00177472 -0.01597244
v 0.04088032 -0.00202744 -0.00861827
v 0.03451906 -0.03113536 -0.00838339
v 0.03883969 -0.00043775 -0.02465486
v 0.03309251 -0.03200360 -0.00760984
v 0.03736601 -0.02626900 -0.00852550
v 0.04021283 -0.00053786 -0.01803587
v 0.03484605 -0.03161659 -0.00318499
v 0.04061616 -0.00748391 -0.01041169
v 0.03043597 -0.00040582 -0.00290079
v 0.03845256 -0.01921563 -0.01609831
v 0.03445298 -0.03225921 -0.00163775
v 0.03866585 -0.02436615 -0.00303061
v 0.04040380 -0.01353167 -0.00849973
v 0.01009780 -0.01568800 -0.04998416
v 0.03714443 -0.02207985 -0.01737447
v 0.03900389 -0.00213172 -0.02375125
v 0.03977174 -0.01860020 -0.00911445
v 0.04039994 -0.01472195 -0.00623698
v 0.04069581 -0.00549533 -0.01028374
v 0.04091764 -0.00695589 -0.00360697
v 0.03605010 -0.02972643 -0.00191646
v 0.03244368 -0.03246916 -0.00491853
v 0.00161604 -0.01795356 -0.04982797
v 0.03487566 -0.02782754 -0.01525164
v 0.04043886 -0.01449212 -0.00551931
v 0.04047357 -0.01465973 -0.00294132
v 0.03351271 -0.03272935 -0.00293405
v 0.04044061 -0.00891257 -0.01272763
v 0.03286629 -0.03135127 -0.00976718
v 0.03660642 -0.02726619 -0.00953677
v 0.03428054 -0.03030031 -0.01187591
v 0.03895926 -0.02370716 -0.00067702
v 0.04089898 -0.00353813 -0.00772725
v 0.04012808 -0.01050006 -0.01530691
v 0.03940659 -0.01572720 -0.01553298
v 0.03527698 -0.03091923 -0.00315942
v 0.04044920 -0.00914753 -0.01240074
v 0.03291331 -0.03123747 -0.01012804
v 0.04092733 -0.00188440 -0.00712068
v 0.03994149 -0.01783573 -0.00816116
v 0.04045355 -0.01051181 -0.01111650
v 0.03414657 -0.03210673 -0.00558999
v 0.04091517 -0.00786800 -0.00151674
v 0.03284128 -0.03217246 -0.00678471
v 0.03747732 -0.02211546 -0.01605952
v 0.03704257 -0.02718697 -0.00721848
v 0.04044341 -0.01524421 -0.00237238
v 0.04043889 -0.00982881 -0.01211846
v 0.03646321 -0.02906520 -0.00147329
v 0.03776260 -0.01836246 -0.01936641
v 0.04096547 -0.00199326 -0.00419172
v 0.04080266 -0.00972608 -0.00166024
v 0.03948867 -0.01617458 -0.01461337
v 0.03973236 -0.01650364 -0.01290790
v 0.04042828 -0.01339223 -0.00816153
v 0.04069440 -0.00933858 -0.00677085
v 0.03202084 -0.00252501 -0.04967911
v 0.03043597 -0.02363268 -0.00003354
v 0.03892565 -0.02365807 -0.00328248
v 0.03461395 -0.02997763 -0.01156939
v 0.04038241 -0.00098227 -0.01640323
v 0.03731076 -0.02568534 -0.01028869
v 0.03945219 -0.01227010 -0.01830154
v 0.04050189 -0.00728762 -0.01270783
v 0.03728125 -0.02459667 -0.01298386
v 0.04071845 -0.01046754 -0.00391221
v 0.03952834 -0.02159663 -0.00039128
v 0.04069139 -0.01152278 -0.00087918
v 0.04093294 -0.00325317 -0.00609488
v 0.03813787 -0.00006181 -0.02680663
v 0.03689921 -0.01916883 -0.02107246
v 0.03948518 -0.01899270 -0.01069244
v 0.03843974 -0.02179543 -0.01233918
v 0.03469097 -0.02808300 -0.01540604
v 0.03725273 -0.01821363 -0.02121986
v 0.03946444 -0.00196555 -0.02185025
v 0.04091764 -0.00719227 -0.00309912
v 0.02325470 -0.00023747 -0.04864429
v 0.04091808 -0.00018098 -0.00809481
v 0.03659359 -0.02232889 -0.01845998
v 0.03950459 -0.01070565 -0.01912647
v 0.03457631 -0.03093057 -0.00884080
v 0.03887468 -0.02392470 -0.00275147
v 0.04034432 -0.00753765 -0.01487205
v 0.03340471 -0.03244201 -0.00518129
v 0.03984440 -0.01748632 -0.01019268
v 0.04000224 -0.01924787 -0.00086418
v 0.03924672 -0.00700991 -0.02191215
v 0.03917255 -0.01788749 -0.01450832
v 0.04035224 -0.00241545 -0.01656059
v 0.03444862 -0.03145928 -0.00747958
v 0.04023284 -0.01753734 -0.00124435
v 0.04028239 -0.01439993 -0.00926093
v 0.03646075 -0.02257092 -0.01852160
v 0.04091342 -0.00207597 -0.00807470
v 0.03043597 -0.00145936 -0.00002905
v 0.03986385 -0.01080512 -0.01716268
v 0.00008767 -0.00200143 -0.04562587
v 0.04033909 -0.01657974 -0.00048855
v 0.03159760 -0.00399193 -0.04992206
v 0.00005277 -0.01815936 -0.04949758
v 0.04031509 -0.01005524 -0.01357864
v 0.03994124 -0.01091503 -0.01652035
v 0.03773288 -0.02665336 -0.00128163
v 0.04092360 -0.00566963 -0.00486177
v 0.03844302 -0.01649148 -0.01902198
v 0.04032000 -0.01263198 -0.01109092
v 0.04030503 -0.00936083 -0.01418262
v 0.03893771 -0.02278336 -0.00712555
v 0.04008607 -0.01491932 -0.01140283
v 0.02293996 -0.00099732 -0.04986347
v 0.04098360 -0.00088894 -0.00330974
v 0.03041981 -0.03238370 -0.00155506
v 0.04009943 -0.00913541 -0.01646877
v 0.04028514 -0.00890174 -0.01473368
v 0.04080049 -0.00741246 -0.00662303
v 0.03933512 -0.02227394 -0.00248448
v 0.03956195 -0.02041168 -0.00683499
v 0.03586282 -0.02994959 -0.00338139
v 0.03721965 -0.02759597 -0.00392261
v 0.03894696 -0.02362022 -0.00308242
v 0.04032448 -0.00547485 -0.01600601
v 0.03918617 -0.00098457 -0.02313814
v 0.03900645 -0.01158994 -0.02079679
v 0.03542343 -0.02924627 -0.00972910
v 0.04097009 -0.00302965 -0.00293912
v 0.04021451 -0.01140880 -0.01370161
v 0.03892221 -0.01708800 -0.01671350
v 0.02773663 -0.00994259 -0.04998563
v 0.04033061 -0.01654599 -0.00180839
v 0.03396487 -0.03116968 -0.00993458
v 0.04089205 -0.00838029 -0.00116999
v 0.03540817 -0.02973125 -0.00821354
v 0.03890008 -0.01723838 -0.01666421
v 0.04024517 -0.01667292 -0.00519433
v 0.04045597 -0.00249215 -0.01529223
v 0.04034395 -0.01559346 -0.00554051
v 0.04092593 -0.00361878 -0.00643636
v 0.04092234 -0.00455441 -0.00608727
v 0.03244369 -0.03281780 -0.00174944
v 0.03622098 -0.02842482 -0.00796309
v 0.03974534 -0.01770536 -0.01091892
v 0.04039929 -0.01189657 -0.01078476
v 0.03735140 -0.02649976 -0.00778040
v 0.03433209 -0.02874634 -0.01510262
v 0.03981089 -0.02013265 -0.00338820
v 0.03951900 -0.00678855 -0.02076552
v 0.04039428 -0.00246973 -0.01615360
v 0.03328746 -0.03278024 -0.00200834
v 0.04077720 -0.00627420 -0.00821640
v 0.04073005 -0.00846723 -0.00705363
v 0.00002540 -0.00673416 -0.04562587
v 0.03755555 -0.02705335 -0.00224035
v 0.03733814 -0.02505827 -0.01164639
v 0.03914305 -0.02301273 -0.00131872
v 0.03982094 -0.01834234 -0.00892645
v 0.04044909 -0.01325682 -0.00779337
v 0.03985069 -0.01557160 -0.01296620
v 0.04082919 -0.00262570 -0.00927711
v 0.03583720 -0.02876641 -0.00906941
v 0.03888841 -0.01383159 -0.01967102
v 0.03891099 -0.01750179 -0.01633512
v 0.04026801 -0.01725466 -0.00047017
v 0.03328755 -0.03077996 -0.01155067
v 0.03940072 -0.01954828 -0.01040136
v 0.03456753 -0.03071832 -0.00959324
v 0.03519213 -0.02938857 -0.01045034
v 0.03523647 -0.03025508 -0.00724572
v 0.04020931 -0.00325562 -0.01773867
v 0.03788541 -0.01890429 -0.01837083
v 0.03674210 -0.02862445 -0.00010026
v 0.04054846 -0.01299209 -0.00468737
v 0.03652720 -0.02898340 -0.00004295
v 0.03893572 -0.02304489 -0.00594807
v 0.04027649 -0.01585477 -0.00660894
v 0.03450346 -0.03017066 -0.01144295
v 0.03428455 -0.02835051 -0.01595233
v 0.03868530 -0.02086249 -0.01273496
v 0.03692919 -0.02247980 -0.01741793
v 0.03718113 -0.02075672 -0.01870380
v 0.03433246 -0.03073264 -0.01037358
v 0.03847347 -0.02324227 -0.00904461
v 0.03990048 -0.01539589 -0.01270389
v 0.03960075 -0.01360867 -0.01661681
v 0.04005893 -0.01457360 -0.01211608
v 0.04099782 -0.00164791 -0.00157200
v 0.03876040 -0.02424300 -0.00104028
v 0.04020079 -0.01098649 -0.01421142
v 0.03912824 -0.02307157 -0.00110303
v 0.03262140 -0.03279830 -0.00032536
v 0.03900070 -0.01615124 -0.01728249
v 0.04051802 -0.01062584 -0.00959154
v 0.04022585 -0.01406997 -0.01064391
v 0.03946190 -0.01886584 -0.01105466
v 0.04025673 -0.01638466 -0.00574293
v 0.03999673 -0.01918804 -0.00223882
v 0.03987521 -0.00346459 -0.01994253
v 0.04000783 -0.01567522 -0.01117188
v 0.04059789 -0.00202533 -0.01314374
v 0.03477927 -0.02997259 -0.01080379
v 0.04020832 -0.01706680 -0.00509285
v 0.04088397 -0.00276712 -0.00834316
v 0.03794957 -0.02320923 -0.01225762
v 0.04050634 -0.00894949 -0.01145997
v 0.04002916 -0.01689365 -0.00890470
v 0.04100579 -0.00146324 -0.00082350
v 0.00400070 -0.00004960 -0.04562587
v 0.03409689 -0.02693143 -0.01851354
v 0.03784243 -0.02640835 -0.00056876
v 0.03509349 -0.02946386 -0.01071662
v 0.04023053 -0.01151450 -0.01342347
v 0.03994687 -0.01761682 -0.00860480
v 0.03994609 -0.01958893 -0.00097172
v 0.04009755 -0.00827482 -0.01688859
v 0.03998917 -0.01490136 -0.01241528
v 0.03730778 -0.02766564 -0.00049971
v 0.04066080 -0.00773944 -0.00935341
v 0.03931466 -0.01484035 -0.01697242
v 0.03508962 -0.02570865 -0.01800895
v 0.03751362 -0.02717126 -0.00112153
v 0.03710365 -0.01913890 -0.02060852
v 0.03884562 -0.01633527 -0.01780912
v 0.04039492 -0.00831212 -0.01386458
v 0.03970735 -0.02076331 -0.00292909
v 0.03485181 -0.03159595 -0.00341734
v 0.03900521 -0.01916954 -0.01374809
v 0.04003705 -0.01898530 -0.00159666
v 0.04091805 -0.00119683 -0.00797556
v 0.03498102 -0.02373954 -0.02087246
v 0.03646017 -0.02293804 -0.01807739
v 0.03746611 -0.01920136 -0.01949138
v 0.04049788 -0.01364739 -0.00516972
v 0.04041677 -0.00807989 -0.01376111
v 0.04078679 -0.00642312 -0.00791232
v 0.04015147 -0.01372926 -0.01216650
v 0.04090321 -0.00527543 -0.00651211
v 0.04093963 -0.00627647 -0.00042433
v 0.04063867 -0.01023954 -0.00698776
v 0.03967664 -0.00474297 -0.02060673
v 0.04090017 -0.00539512 -0.00645899
v 0.03988522 -0.01868545 -0.00702532
v 0.03430995 -0.03074585 -0.01041100
v 0.03811061 -0.02363176 -0.01034110
v 0.03956851 -0.01398492 -0.01648355
v 0.03443009 -0.02733405 -0.01729383
v 0.03779288 -0.02367805 -0.01219395
v 0.03451238 -0.03186558 -0.00479017
v 0.04021502 -0.00766344 -0.01618226
v 0.03757103 -0.01808111 -0.02032100
v 0.04088781 -0.00317934 -0.00808532
v 0.03940206 -0.01214346 -0.01863137
v 0.03990205 -0.00175719 -0.01980699
v 0.04043370 -0.00375499 -0.01531060
v 0.04015118 -0.01695786 -0.00679502
v 0.03932877 -0.02134191 -0.00685226
v 0.03843127 -0.02162007 -0.01265343
v 0.03807754 -0.01847850 -0.01816479
v 0.04100705 -0.00030760 -0.00177402
v 0.04022065 -0.01753126 -0.00247285
v 0.03877557 -0.02193975 -0.01034718
v 0.03943807 -0.00011755 -0.02192554
v 0.03709438 -0.02510315 -0.01267973
v 0.04052484 -0.00474648 -0.01355219
v 0.03694533 -0.02827761 -0.00058122
v 0.03698388 -0.02536383 -0.01252610
v 0.04068658 -0.01141282 -0.00232333
v 0.03899947 -0.02355982 -0.00055778
v 0.03056380 -0.00644677 -0.04976498
v 0.04002048 -0.00889573 -0.01721354
v 0.03385874 -0.02910963 -0.01506495
v 0.04004432 -0.00937869 -0.01679837
v 0.00044028 -0.00074208 -0.04562587
v 0.03503164 -0.02597252 -0.01777145
v 0.03520774 -0.03032126 -0.00716556
v 0.04004008 -0.01387344 -0.01305064
v 0.04094283 -0.00573393 -0.00201966
v 0.03734295 -0.02438588 -0.01306212
v 0.03575417 -0.03023894 -0.00124411
v 0.03808314 -0.02475692 -0.00771021
v 0.04041110 -0.00942200 -0.01289787
v 0.04085182 -0.00532744 -0.00746962
v 0.04064531 -0.00397109 -0.01185677
v 0.03940335 -0.00492904 -0.02172356
v 0.03559732 -0.02914383 -0.00916227
v 0.03707534 -0.02793312 -0.00349790
v 0.04095251 -0.00232477 -0.00503528
v 0.03975712 -0.00253005 -0.02053510
v 0.04057234 -0.00157004 -0.01359841
v 0.03484501 -0.02505398 -0.01961707
v 0.03898137 -0.01628000 -0.01725059
v 0.04058073 -0.00409358 -0.01286428
v 0.04063830 -0.01166826 -0.00425681
v 0.04092665 -0.00252359 -0.00693479
v 0.03974915 -0.02050770 -0.00337721
v 0.04048670 -0.01392400 -0.00490241
v 0.03441132 -0.02946569 -0.01331560
v 0.04025773 -0.01571204 -0.00734081
v 0.04068984 -0.01161875 -0.00005737
v 0.04099234 -0.00225469 -0.00134744
v 0.03416916 -0.03243647 -0.00365938
v 0.03977344 -0.02065421 -0.00038581
v 0.04024676 -0.00784420 -0.01575876
v 0.04005239 -0.01564133 -0.01071207
v 0.03874570 -0.01517301 -0.01916381
v 0.00003775 -0.00525669 -0.04562587
v 0.03430535 -0.02961959 -0.01328603
v 0.04084876 -0.00057880 -0.00939126
v 0.04079218 -0.00043486 -0.01028282
v 0.03730865 -0.02015259 -0.01902106
v 0.03744864 -0.02727982 -0.00307762
v 0.03537974 -0.02992584 -0.00764187
v 0.03864831 -0.02452069 -0.00022493
v 0.03611447 -0.02837174 -0.00881541
v 0.03972929 -0.00982704 -0.01857056
v 0.03264717 -0.00037223 -0.04850422
v 0.04094201 -0.00603074 -0.00113463
v 0.03776612 -0.02657889 -0.00107222
v 0.03722869 -0.02730189 -0.00521559
v 0.03597082 -0.02982386 -0.00255484
v 0.03043597 -0.00090490 -0.00055041
v 0.03473179 -0.03160376 -0.00450901
v 0.04040131 -0.00980495 -0.01274436
v 0.04018804 -0.01483747 -0.01018827
v 0.03061088 -0.03244154 -0.00162934
v 0.04086545 -0.00415393 -0.00801263
v 0.04041796 -0.01499872 -0.00500120
v 0.04055841 -0.01154568 -0.00728787
f 256 421 236
f 477 426 301
f 421 597 423
f 423 597 426
f 312 301 426
f 312 124 301
f 426 245 312
f 312 245 124
f 256 236 531
f 630 426 477
f 630 423 426
f 477 421 630
f 421 423 630
f 256 532 334
f 403 85 436
f 348 51 262
f 436 339 348
f 426 597 348
f 597 436 348
f 82 339 454
f 454 339 436
f 82 454 425
f 436 85 425
f 425 454 436
f 308 532 256
f 256 29 308
f 383 421 477
f 477 301 383
f 301 124 220
f 220 383 301
f 124 245 438
f 256 334 645
f 81 334 532
f 81 436 597
f 597 645 81
f 81 645 334
f 81 403 436
f 532 403 81
f 91 403 114
f 114 403 532
f 114 308 91
f 532 308 114
f 228 403 91
f 85 403 228
f 426 489 363
f 218 489 426
f 426 348 218
f 218 348 262
f 85 228 640
f 640 228 91
f 53 348 339
f 53 339 82
f 51 348 53
f 82 43 53
f 586 29 153
f 32 216 91
f 91 308 32
f 32 29 216
f 32 308 29
f 51 53 595
f 595 53 502
f 421 383 60
f 383 220 64
f 64 60 383
f 64 220 124
f 124 438 64
f 64 438 9
f 9 515 64
f 9 438 649
f 649 438 245
f 649 465 9
f 245 465 649
f 586 153 331
f 132 597 421
f 132 645 597
f 132 421 256
f 256 645 132
f 354 33 426
f 426 363 354
f 354 363 33
f 489 218 217
f 262 456 217
f 217 218 262
f 33 363 217
f 217 363 489
f 625 179 191
f 191 352 625
f 139 352 48
f 324 245 426
f 86 367 625
f 625 352 86
f 226 43 82
f 82 425 226
f 425 96 226
f 593 96 425
f 425 554 593
f 395 29 586
f 216 29 395
f 91 216 395
f 395 640 91
f 533 53 43
f 256 583 187
f 106 29 256
f 262 51 14
f 51 595 14
f 14 456 262
f 456 14 356
f 356 14 595
f 382 425 85
f 85 640 382
f 142 612 586
f 586 331 142
f 9 465 283
f 283 515 9
f 283 191 515
f 139 48 274
f 274 465 245
f 245 324 274
f 426 33 80
f 80 324 426
f 76 352 139
f 139 369 76
f 546 425 400
f 546 396 425
f 279 554 425
f 425 396 279
f 96 593 130
f 130 593 554
f 130 226 96
f 232 533 43
f 502 533 232
f 232 399 502
f 232 286 399
f 502 53 257
f 257 533 502
f 53 533 257
f 470 595 502
f 502 399 470
f 625 367 416
f 379 163 467
f 287 97 551
f 449 382 640
f 102 564 522
f 586 612 227
f 227 328 640
f 227 395 586
f 640 395 227
f 131 153 253
f 102 331 261
f 612 142 577
f 577 142 331
f 577 522 612
f 577 331 102
f 102 522 577
f 271 179 625
f 182 270 179
f 182 336 270
f 179 271 182
f 182 271 336
f 352 191 1
f 1 283 352
f 191 283 1
f 133 283 465
f 48 283 133
f 465 274 133
f 133 274 48
f 474 48 352
f 352 283 474
f 474 283 48
f 324 80 347
f 347 274 324
f 33 369 347
f 347 80 33
f 347 369 139
f 139 274 347
f 410 86 352
f 352 76 410
f 570 232 43
f 286 232 570
f 631 356 595
f 595 470 631
f 149 86 456
f 367 86 149
f 149 416 367
f 270 336 98
f 35 570 43
f 286 570 35
f 240 467 342
f 342 88 240
f 287 551 144
f 150 551 97
f 94 382 285
f 285 449 94
f 382 449 285
f 640 413 254
f 254 449 640
f 472 12 413
f 413 564 472
f 472 564 102
f 58 624 300
f 531 624 58
f 256 531 58
f 317 49 38
f 38 49 464
f 376 583 256
f 256 38 376
f 38 394 376
f 448 227 612
f 328 227 448
f 640 328 341
f 341 277 640
f 608 564 413
f 608 413 640
f 640 277 608
f 461 134 524
f 234 165 558
f 323 8 234
f 234 8 165
f 314 313 236
f 314 168 313
f 289 147 291
f 421 60 289
f 289 623 421
f 209 76 369
f 209 410 76
f 554 279 281
f 505 634 340
f 505 546 400
f 400 634 505
f 614 35 43
f 614 130 554
f 43 226 614
f 226 130 614
f 24 543 516
f 309 382 94
f 94 486 309
f 309 486 382
f 70 97 287
f 414 150 97
f 97 159 414
f 621 631 470
f 356 631 621
f 621 385 356
f 287 144 219
f 179 270 320
f 320 191 179
f 515 191 320
f 320 64 515
f 4 392 480
f 480 121 4
f 413 12 639
f 639 472 102
f 12 472 639
f 173 430 49
f 511 38 256
f 256 58 511
f 345 430 300
f 49 430 345
f 300 624 345
f 304 106 256
f 296 304 256
f 302 34 441
f 612 522 401
f 401 448 612
f 112 261 158
f 158 161 112
f 131 161 28
f 28 331 153
f 153 131 28
f 161 158 28
f 323 206 578
f 386 131 253
f 112 415 494
f 102 261 494
f 494 261 112
f 56 626 13
f 13 289 56
f 147 289 13
f 208 236 421
f 208 314 236
f 421 623 208
f 623 273 208
f 208 273 292
f 292 562 208
f 178 417 147
f 584 417 178
f 329 369 33
f 329 209 369
f 33 217 329
f 329 217 456
f 456 86 329
f 86 410 329
f 410 209 329
f 554 281 405
f 35 614 199
f 340 504 199
f 569 543 24
f 39 486 94
f 24 486 39
f 94 449 39
f 449 254 39
f 574 634 400
f 566 88 342
f 379 150 47
f 150 414 47
f 47 163 379
f 47 100 163
f 47 378 100
f 551 150 169
f 467 397 169
f 490 240 89
f 467 240 490
f 490 397 467
f 259 470 399
f 259 621 470
f 399 385 259
f 385 621 259
f 145 144 89
f 145 219 144
f 240 128 145
f 89 240 145
f 145 128 284
f 336 271 550
f 498 289 60
f 60 64 498
f 64 320 498
f 56 289 141
f 289 498 141
f 406 39 254
f 66 569 275
f 275 100 66
f 163 100 275
f 192 511 430
f 430 173 192
f 313 168 641
f 236 313 267
f 49 463 5
f 611 376 394
f 175 607 323
f 123 34 198
f 198 295 123
f 542 302 441
f 134 461 325
f 325 613 134
f 325 386 253
f 558 165 389
f 389 165 268
f 102 494 55
f 596 639 594
f 594 639 102
f 409 234 558
f 110 185 447
f 234 185 110
f 110 206 323
f 323 234 110
f 101 447 107
f 107 55 101
f 107 185 573
f 447 185 107
f 258 135 315
f 626 619 258
f 136 619 36
f 135 619 136
f 136 88 135
f 580 443 136
f 136 36 580
f 4 121 442
f 87 626 56
f 168 562 306
f 306 562 292
f 455 417 584
f 125 170 289
f 291 147 488
f 147 417 488
f 243 505 340
f 340 405 243
f 554 405 419
f 419 405 340
f 340 3 419
f 614 555 143
f 555 21 143
f 143 21 3
f 143 3 340
f 214 555 614
f 214 614 554
f 35 199 544
f 544 199 504
f 340 634 265
f 265 148 340
f 200 148 265
f 97 70 27
f 77 504 340
f 340 148 77
f 556 574 299
f 634 574 556
f 247 486 24
f 24 160 247
f 382 486 247
f 24 516 547
f 547 160 24
f 316 574 400
f 400 425 316
f 487 97 459
f 459 453 487
f 487 159 97
f 543 569 229
f 229 569 66
f 100 378 360
f 360 378 516
f 360 516 543
f 40 566 61
f 315 135 40
f 40 61 315
f 135 88 40
f 88 566 40
f 551 169 519
f 519 169 397
f 330 466 638
f 41 503 287
f 287 219 41
f 219 571 41
f 219 145 74
f 408 442 121
f 152 271 625
f 152 550 271
f 332 98 336
f 336 550 332
f 84 408 121
f 18 408 84
f 357 141 121
f 541 141 496
f 496 141 498
f 413 639 195
f 195 254 413
f 195 406 254
f 204 639 19
f 19 406 204
f 204 406 639
f 19 639 422
f 422 639 596
f 596 230 422
f 428 230 596
f 452 75 513
f 560 75 452
f 600 275 105
f 105 75 600
f 600 75 560
f 93 317 38
f 38 511 93
f 236 267 37
f 37 267 402
f 290 167 402
f 71 464 49
f 49 5 71
f 437 618 201
f 437 201 256
f 256 187 437
f 272 611 394
f 201 618 364
f 211 358 49
f 588 8 323
f 323 607 588
f 484 578 461
f 527 575 268
f 527 358 575
f 113 198 34
f 193 198 113
f 49 345 113
f 113 34 49
f 402 167 113
f 123 295 224
f 242 476 34
f 302 542 565
f 34 302 565
f 613 325 115
f 386 325 473
f 473 494 415
f 112 386 473
f 473 415 112
f 473 578 206
f 473 55 494
f 101 55 473
f 461 578 473
f 473 325 461
f 358 211 42
f 333 276 529
f 102 55 176
f 176 594 102
f 513 75 359
f 164 439 573
f 164 359 439
f 513 359 164
f 111 447 101
f 111 110 447
f 206 110 111
f 111 473 206
f 101 473 111
f 471 619 135
f 135 258 471
f 471 258 619
f 626 258 538
f 322 136 443
f 284 136 322
f 322 145 284
f 549 619 626
f 626 87 549
f 310 306 377
f 168 306 368
f 368 641 168
f 368 113 167
f 306 113 368
f 311 178 315
f 584 178 311
f 291 488 424
f 424 488 417
f 598 155 35
f 35 544 598
f 330 251 387
f 120 385 399
f 571 69 390
f 602 571 390
f 390 77 148
f 200 265 17
f 17 27 200
f 97 27 17
f 382 247 629
f 629 247 160
f 425 382 629
f 629 160 425
f 459 547 197
f 197 453 459
f 177 547 431
f 160 547 177
f 425 160 177
f 293 316 431
f 574 316 293
f 509 203 140
f 140 569 509
f 140 275 569
f 105 275 140
f 140 428 105
f 230 428 140
f 140 203 19
f 19 422 140
f 140 422 230
f 282 203 509
f 117 406 19
f 90 122 609
f 609 122 485
f 356 385 501
f 385 122 501
f 355 638 485
f 485 22 355
f 355 251 330
f 330 638 355
f 90 321 109
f 109 122 90
f 118 638 466
f 356 506 567
f 456 356 567
f 567 149 456
f 149 567 11
f 528 571 602
f 528 41 571
f 200 503 181
f 507 74 568
f 434 74 145
f 580 36 434
f 568 74 174
f 174 69 568
f 174 390 69
f 625 416 572
f 572 152 625
f 416 152 572
f 116 346 374
f 116 320 270
f 534 141 541
f 374 346 644
f 512 84 121
f 30 79 330
f 56 141 592
f 141 357 592
f 592 392 56
f 541 496 589
f 639 406 260
f 260 195 639
f 406 195 260
f 342 467 411
f 411 467 163
f 540 600 560
f 163 275 483
f 511 192 451
f 451 93 511
f 402 267 601
f 601 290 402
f 241 272 394
f 394 463 241
f 241 463 49
f 616 175 323
f 616 484 175
f 323 578 616
f 578 484 616
f 268 165 288
f 288 527 268
f 358 527 420
f 618 241 420
f 49 358 420
f 420 241 49
f 420 364 618
f 420 527 175
f 175 484 420
f 196 306 310
f 196 113 306
f 193 113 196
f 45 482 123
f 186 34 123
f 123 482 186
f 221 242 34
f 475 606 561
f 561 606 211
f 561 211 49
f 49 34 561
f 34 565 561
f 613 115 108
f 29 633 108
f 108 633 613
f 358 42 650
f 344 42 389
f 344 650 42
f 529 276 52
f 529 362 68
f 68 333 529
f 25 107 573
f 573 439 25
f 55 107 25
f 25 176 55
f 266 428 596
f 596 439 26
f 439 359 26
f 26 266 596
f 359 266 26
f 558 605 548
f 573 409 627
f 627 164 573
f 409 164 627
f 513 164 440
f 440 298 513
f 440 548 433
f 433 427 440
f 440 427 298
f 558 548 440
f 440 409 558
f 440 164 409
f 147 13 412
f 412 538 258
f 4 549 103
f 103 549 87
f 4 442 6
f 6 549 4
f 170 377 457
f 457 377 306
f 170 125 393
f 393 377 170
f 310 377 263
f 377 591 263
f 291 455 372
f 372 289 291
f 372 125 289
f 485 122 450
f 450 22 485
f 587 174 479
f 390 174 587
f 602 390 180
f 180 390 148
f 598 390 10
f 155 598 10
f 582 95 335
f 335 95 97
f 97 17 335
f 335 375 582
f 299 375 335
f 335 495 299
f 119 556 299
f 299 495 119
f 615 547 516
f 615 197 547
f 431 316 83
f 83 177 431
f 83 316 425
f 425 177 83
f 576 282 280
f 203 282 137
f 327 109 416
f 407 109 327
f 416 149 327
f 149 11 327
f 491 501 122
f 356 501 491
f 491 109 407
f 122 109 491
f 407 327 491
f 491 327 11
f 491 506 356
f 503 41 398
f 200 181 20
f 219 74 585
f 74 507 585
f 580 434 248
f 248 434 145
f 442 408 446
f 408 384 446
f 190 434 499
f 162 152 416
f 416 109 162
f 636 109 321
f 444 361 550
f 205 361 444
f 444 644 205
f 603 116 270
f 346 116 603
f 541 249 478
f 121 141 65
f 65 512 121
f 79 30 604
f 604 30 74
f 604 74 246
f 514 480 392
f 392 592 514
f 255 215 541
f 541 589 255
f 605 210 647
f 373 362 529
f 373 210 605
f 373 353 362
f 558 353 373
f 373 605 558
f 475 561 373
f 560 235 510
f 510 540 560
f 275 600 508
f 508 483 275
f 600 540 508
f 163 483 508
f 508 235 163
f 29 106 404
f 2 404 420
f 524 134 2
f 366 542 441
f 441 62 366
f 366 373 542
f 73 62 213
f 213 62 441
f 441 34 213
f 34 476 213
f 350 224 295
f 482 45 350
f 380 482 350
f 652 482 380
f 294 389 268
f 294 344 389
f 222 42 211
f 222 52 42
f 172 52 276
f 42 52 172
f 596 594 539
f 594 176 539
f 176 25 539
f 250 359 75
f 250 266 359
f 428 266 250
f 315 178 552
f 552 412 258
f 552 178 147
f 147 412 552
f 166 434 549
f 549 6 166
f 307 372 455
f 307 651 263
f 497 617 310
f 497 350 617
f 525 122 385
f 278 587 207
f 390 587 278
f 479 387 154
f 154 587 479
f 154 387 251
f 576 280 184
f 184 117 576
f 39 406 184
f 406 117 184
f 388 282 576
f 388 137 282
f 581 181 503
f 503 398 581
f 370 148 200
f 200 20 370
f 74 434 151
f 434 190 151
f 151 190 384
f 151 384 408
f 246 74 151
f 550 152 646
f 152 162 646
f 458 636 321
f 458 118 466
f 466 636 458
f 126 162 599
f 599 162 109
f 644 444 610
f 610 215 374
f 374 644 610
f 72 481 16
f 61 72 16
f 342 411 530
f 411 297 530
f 319 46 530
f 530 46 225
f 244 73 380
f 432 235 560
f 432 23 235
f 432 244 23
f 63 127 298
f 298 427 63
f 63 647 210
f 210 127 63
f 560 452 536
f 542 373 559
f 559 373 561
f 559 565 542
f 559 561 565
f 553 404 318
f 420 404 553
f 553 318 304
f 304 296 553
f 524 2 326
f 326 461 524
f 326 484 461
f 326 420 484
f 326 2 420
f 233 391 193
f 193 196 233
f 233 196 310
f 310 617 233
f 238 366 62
f 210 373 264
f 373 366 264
f 366 238 264
f 73 244 264
f 264 62 73
f 391 233 557
f 617 350 557
f 557 233 617
f 563 652 380
f 221 652 563
f 521 258 315
f 315 552 521
f 521 552 258
f 499 434 50
f 434 166 50
f 239 455 584
f 239 307 455
f 651 307 239
f 252 651 239
f 377 92 351
f 351 591 377
f 92 372 351
f 372 307 351
f 351 263 591
f 351 307 263
f 651 350 305
f 310 263 305
f 263 651 305
f 235 23 518
f 462 651 252
f 648 46 319
f 235 518 648
f 648 518 23
f 23 244 648
f 648 244 418
f 500 46 622
f 157 46 500
f 385 22 535
f 535 525 385
f 171 10 390
f 390 278 171
f 349 278 207
f 146 587 138
f 202 444 550
f 550 646 202
f 109 636 493
f 493 599 109
f 18 249 635
f 635 249 541
f 541 215 635
f 215 610 635
f 635 408 18
f 635 337 408
f 223 610 444
f 637 429 478
f 141 534 637
f 541 478 545
f 478 429 545
f 225 46 579
f 579 16 225
f 46 16 579
f 537 481 342
f 342 530 537
f 537 530 225
f 537 365 481
f 188 297 411
f 411 628 188
f 163 235 435
f 235 628 435
f 212 411 163
f 237 2 134
f 404 2 237
f 244 432 468
f 468 264 244
f 432 54 468
f 517 238 62
f 62 264 517
f 517 264 238
f 31 350 295
f 31 557 350
f 242 221 381
f 221 563 381
f 584 311 15
f 15 239 584
f 350 497 620
f 620 305 350
f 620 497 310
f 310 305 620
f 418 269 57
f 57 648 418
f 46 648 57
f 418 244 338
f 338 269 418
f 338 244 380
f 380 269 338
f 252 239 526
f 239 15 526
f 526 16 46
f 526 311 315
f 526 15 311
f 315 61 526
f 61 16 526
f 651 462 343
f 343 350 651
f 380 350 343
f 343 269 380
f 22 450 492
f 492 535 22
f 67 349 207
f 286 349 67
f 399 286 67
f 587 154 590
f 590 138 587
f 146 138 44
f 44 22 385
f 120 146 44
f 385 120 44
f 469 371 466
f 469 466 330
f 330 79 469
f 469 79 408
f 408 337 469
f 126 610 189
f 189 162 126
f 642 637 534
f 429 637 642
f 183 16 481
f 481 365 183
f 7 188 628
f 7 648 319
f 7 628 235
f 235 648 7
f 163 435 523
f 523 435 628
f 523 212 163
f 303 432 560
f 560 54 303
f 303 54 432
f 560 536 231
f 231 54 560
f 231 536 127
f 231 127 210
f 29 404 632
f 404 237 632
f 632 633 29
f 622 46 78
f 46 57 78
f 460 462 252
f 252 526 460
f 59 526 46
f 445 635 610
f 445 194 635
f 371 469 643
f 643 469 194
f 635 194 156
f 194 469 156
f 610 223 104
f 104 189 610
f 129 269 622
f 622 78 129
f 129 57 269
f 129 78 57
f 99 46 157
f 157 343 99
f 99 343 462
f 520 99 462
f 520 59 46
f 46 99 520
f 511 58 300
f 300 430 511
f 401 341 328
f 401 522 564
f 328 448 401
f 564 608 401
f 277 341 401
f 401 608 277
f 28 158 261
f 28 261 331
f 386 161 131
f 112 161 386
f 168 314 208
f 208 562 168
f 169 150 379
f 379 467 169
f 185 409 573
f 234 409 185
f 136 128 240
f 136 240 88
f 284 128 136
f 243 279 396
f 396 546 243
f 243 281 279
f 546 505 243
f 243 405 281
f 143 199 614
f 340 199 143
f 3 21 214
f 554 419 214
f 214 419 3
f 214 21 555
f 287 503 27
f 27 70 287
f 27 503 200
f 66 100 360
f 543 229 360
f 360 229 66
f 519 144 551
f 89 144 519
f 519 490 89
f 397 490 519
f 38 464 71
f 71 394 38
f 71 463 394
f 71 5 463
f 113 624 531
f 113 531 236
f 113 345 624
f 236 37 113
f 113 37 402
f 417 455 424
f 424 455 291
f 504 77 390
f 390 544 504
f 390 598 544
f 299 574 293
f 459 97 293
f 293 547 459
f 293 375 299
f 97 95 293
f 431 547 293
f 293 95 582
f 582 375 293
f 36 619 434
f 619 549 434
f 330 387 30
f 479 174 30
f 30 387 479
f 30 174 74
f 451 173 49
f 49 317 451
f 451 192 173
f 317 93 451
f 167 290 601
f 313 641 601
f 601 267 313
f 601 368 167
f 641 368 601
f 583 376 241
f 241 187 583
f 376 611 241
f 241 437 187
f 618 437 241
f 611 272 241
f 288 588 607
f 165 8 288
f 8 588 288
f 607 175 288
f 175 527 288
f 108 153 29
f 253 153 108
f 108 325 253
f 108 115 325
f 626 538 412
f 412 13 626
f 56 392 103
f 103 392 4
f 103 87 56
f 623 289 457
f 292 273 457
f 457 273 623
f 289 170 457
f 457 306 292
f 377 393 372
f 372 393 125
f 372 92 377
f 634 556 119
f 119 265 634
f 495 335 119
f 119 17 265
f 119 335 17
f 615 47 414
f 615 414 159
f 378 47 615
f 159 487 615
f 516 378 615
f 615 487 453
f 453 197 615
f 491 11 567
f 491 567 506
f 585 571 219
f 585 69 571
f 568 69 585
f 585 507 568
f 145 322 248
f 248 322 443
f 248 443 580
f 98 332 603
f 270 98 603
f 603 361 205
f 550 361 603
f 603 332 550
f 205 644 603
f 603 644 346
f 514 357 121
f 121 480 514
f 514 592 357
f 255 498 320
f 255 496 498
f 374 215 255
f 320 116 255
f 255 116 374
f 255 589 496
f 61 566 481
f 481 566 342
f 481 72 61
f 508 510 235
f 540 510 508
f 106 304 404
f 304 318 404
f 123 224 350
f 350 45 123
f 652 186 482
f 34 186 652
f 652 221 34
f 575 358 294
f 268 575 294
f 358 650 294
f 650 344 294
f 222 606 475
f 529 52 222
f 475 373 222
f 222 373 529
f 211 606 222
f 558 389 172
f 172 68 362
f 172 353 558
f 389 42 172
f 362 353 172
f 276 333 172
f 333 68 172
f 539 25 439
f 539 439 596
f 105 428 250
f 250 75 105
f 509 569 184
f 184 569 24
f 24 39 184
f 184 282 509
f 184 280 282
f 19 203 388
f 388 117 19
f 576 117 388
f 203 137 388
f 370 528 602
f 370 398 41
f 41 528 370
f 602 180 370
f 370 180 148
f 181 581 370
f 370 20 181
f 370 581 398
f 408 79 151
f 151 604 246
f 79 604 151
f 485 638 458
f 458 321 90
f 90 609 458
f 458 609 485
f 638 118 458
f 433 548 63
f 63 427 433
f 63 548 605
f 605 647 63
f 536 452 513
f 513 298 536
f 298 127 536
f 364 420 553
f 553 296 256
f 256 201 553
f 201 364 553
f 442 446 50
f 50 6 442
f 50 190 499
f 50 446 384
f 384 190 50
f 50 166 6
f 155 10 349
f 286 35 349
f 10 171 349
f 35 155 349
f 349 171 278
f 18 84 637
f 637 249 18
f 637 65 141
f 84 512 637
f 637 478 249
f 512 65 637
f 193 391 31
f 31 198 193
f 295 198 31
f 391 557 31
f 380 73 381
f 476 242 381
f 381 213 476
f 73 213 381
f 381 563 380
f 343 500 622
f 622 269 343
f 157 500 343
f 122 525 492
f 492 450 122
f 525 535 492
f 67 120 399
f 67 587 146
f 67 146 120
f 207 587 67
f 44 355 22
f 251 355 44
f 44 154 251
f 44 590 154
f 138 590 44
f 541 545 642
f 642 534 541
f 642 545 429
f 183 537 225
f 225 16 183
f 365 537 183
f 7 530 297
f 319 530 7
f 297 188 7
f 411 212 523
f 523 628 411
f 264 468 231
f 210 264 231
f 231 468 54
f 613 633 632
f 134 613 632
f 632 237 134
f 643 636 466
f 126 599 643
f 643 493 636
f 643 610 126
f 599 493 643
f 466 371 643
f 643 445 610
f 194 445 643
f 156 469 337
f 337 635 156
f 162 189 104
f 104 646 162
f 444 202 104
f 104 202 646
f 104 223 444
f 526 59 520
f 462 460 520
f 520 460 526

