# https://github.com/mikedh/trimesh
v -0.12464622 -0.01622843 -0.19293746
v -0.12576149 -0.00616591 -0.16477121
v -0.11320786 -0.04510194 -0.16803051
v -0.12700052 -0.01649743 -0.18286093
v -0.12659126 -0.00690358 -0.16957138
v -0.12715276 -0.00635739 -0.18179502
v -0.11203132 -0.00000047 -0.15579110
v -0.12549049 -0.00043766 -0.19048062
v -0.12649011 -0.00630525 -0.16899845
v -0.12595901 -0.01461978 -0.18859198
v -0.11942066 -0.01463854 -0.15050512
v -0.12570492 -0.01297739 -0.18996419
v -0.12264076 -0.00677689 -0.19821822
v -0.10025888 -0.04515168 -0.16743970
v -0.12227865 -0.03536777 -0.17940646
v -0.12714204 -0.00233259 -0.17287913
v -0.12713226 -0.01530561 -0.17251094
v -0.12550427 -0.01238472 -0.19056858
v -0.12659499 -0.00762039 -0.16957583
v -0.12232342 -0.00032924 -0.19872109
v -0.12722660 -0.01660154 -0.17823332
v -0.12569201 -0.00524506 -0.18986629
v -0.11134864 -0.00008519 -0.19975392
v -0.11129385 -0.02336305 -0.19997549
v -0.10052048 -0.04515718 -0.17941801
v -0.10044557 -0.04515950 -0.18316677
v -0.11936304 -0.00033713 -0.15051344
v -0.10132238 -0.03586505 -0.19974364
v -0.12307856 -0.01668304 -0.15716413
v -0.12135442 -0.03577916 -0.18417407
v -0.12715301 -0.00070751 -0.18058412
v -0.12675092 -0.01107060 -0.17039839
v -0.12693011 -0.00083174 -0.17168462
v -0.10093507 -0.04514955 -0.16833678
v -0.12219483 -0.00045131 -0.19894258
v -0.12295384 -0.00031616 -0.19736326
v -0.12561868 -0.00097839 -0.19013842
v -0.12381403 -0.00008093 -0.15940087
v -0.12721907 -0.00979961 -0.17322223
v -0.12723477 -0.01442380 -0.17397323
v -0.12724157 -0.01692957 -0.17480873
v -0.10718968 -0.04511797 -0.15472397
v -0.11959464 -0.03572146 -0.16194012
v -0.10087797 -0.04514212 -0.15427743
v -0.12299020 -0.00547127 -0.15704483
v -0.12579673 -0.00030130 -0.16511658
v -0.12320407 -0.01334022 -0.19682084
v -0.10034533 -0.04515860 -0.18079508
v -0.12720864 -0.01607323 -0.17293602
v -0.12690188 -0.01609095 -0.17115442
v -0.12270631 -0.01498270 -0.19815884
v -0.11312364 -0.04510176 -0.16710258
v -0.12367525 -0.00012510 -0.19540351
v -0.12583758 -0.00101816 -0.18896691
v -0.11529291 -0.03571179 -0.15316052
v -0.12721986 -0.01596175 -0.17927632
v -0.12719562 -0.01194684 -0.18128799
v -0.11984755 -0.01722482 -0.15135584
v -0.10211372 -0.04513805 -0.15557303
v -0.12272734 -0.01259553 -0.19810677
v -0.12671686 -0.01700381 -0.17005824
v -0.10655641 -0.04512050 -0.15488054
v -0.11121490 -0.00420746 -0.19996887
v -0.12501424 -0.01539468 -0.19192997
v -0.12603105 -0.01715014 -0.18824815
v -0.12584817 -0.01720026 -0.16500968
v -0.12234944 -0.03511884 -0.17416074
v -0.12669553 -0.00107927 -0.18421341
v -0.11121776 -0.00138073 -0.19993020
v -0.10294206 -0.04514774 -0.17928132
v -0.12322010 -0.01406525 -0.19678494
v -0.12146998 -0.00017562 -0.15425705
v -0.10147924 -0.04515717 -0.18623615
v -0.11148193 -0.04462408 -0.16172312
v -0.10771451 -0.02314060 -0.15003516
v -0.12357068 -0.00012955 -0.19568733
v -0.12643010 -0.00557266 -0.18578292
v -0.12573845 -0.00107609 -0.16475956
v -0.12103304 -0.00770698 -0.15342267
v -0.10059252 -0.04416159 -0.18806049
v -0.10020199 -0.04514664 -0.15777820
v -0.11924886 -0.01691747 -0.15018251
v -0.12185675 -0.01548663 -0.19962013
v -0.12584226 -0.01698458 -0.16498051
v -0.11143135 -0.03339192 -0.19991761
v -0.12589023 -0.01383691 -0.18895598
v -0.10782235 -0.00020640 -0.15026314
v -0.12165832 -0.00795161 -0.19991190
v -0.12674298 -0.01699477 -0.18429910
v -0.12715792 -0.00298422 -0.18166265
v -0.12278251 -0.01707836 -0.15646362
v -0.11790116 -0.03525743 -0.15800189
v -0.12560888 -0.00593594 -0.19021704
v -0.10000221 -0.03586072 -0.18239908
v -0.12716220 -0.00003441 -0.17759395
v -0.12575602 -0.01078840 -0.16468199
v -0.10394699 -0.04513097 -0.15559006
v -0.12077636 -0.03570442 -0.18526176
v -0.10014910 -0.04515582 -0.17427603
v -0.12114829 -0.01714812 -0.15355771
v -0.11930932 -0.01612554 -0.15029584
v -0.12238100 -0.01723908 -0.19826518
v -0.12715080 -0.01110344 -0.18190984
v -0.10918155 -0.04511985 -0.17234580
v -0.12701575 -0.00069253 -0.17218523
v -0.12674854 -0.00260855 -0.18395315
v -0.12149379 -0.01715704 -0.15417190
v -0.12679866 -0.01686282 -0.17053658
v -0.12155450 -0.00474552 -0.15437180
v -0.12229526 -0.03533124 -0.17876779
v -0.10390104 -0.04512907 -0.15177666
v -0.12354203 -0.01723307 -0.19528942
v -0.12570824 -0.01352937 -0.18995783
v -0.12179268 -0.01724199 -0.19950621
v -0.12594606 -0.01531504 -0.18867893
v -0.12308693 -0.01565294 -0.19716299
v -0.11912736 -0.00175915 -0.15008383
v -0.12581954 -0.01515668 -0.16489250
v -0.11078828 -0.04510755 -0.16115526
v -0.10475011 -0.04513555 -0.16970829
v -0.12577188 -0.00255668 -0.18936473
v -0.10126089 -0.04513852 -0.15037746
v -0.11252538 -0.04510448 -0.16783833
v -0.12720845 -0.01450199 -0.18065860
v -0.10009388 -0.04515537 -0.17306765
v -0.12258075 -0.00123209 -0.19828531
v -0.12709126 -0.00151917 -0.18202985
v -0.12304387 -0.01326963 -0.15710641
v -0.10193224 -0.04513580 -0.15015055
v -0.10344642 -0.04513959 -0.16787950
v -0.11778980 -0.01723212 -0.15007833
v -0.11278038 -0.03579404 -0.15061179
v -0.10737848 -0.01212745 -0.15001263
v -0.11542362 -0.03575375 -0.19366408
v -0.10155691 -0.04499687 -0.18663343
v -0.12717903 -0.00057713 -0.17391745
v -0.12204320 -0.00060571 -0.15527186
v -0.10634965 -0.04513230 -0.17510530
v -0.12635369 -0.00266662 -0.16829370
v -0.12646185 -0.00507817 -0.18559610
v -0.12272316 -0.00778559 -0.15642669
v -0.12663150 -0.00817580 -0.16977448
v -0.10583909 -0.04508773 -0.17991229
v -0.12435603 -0.00392231 -0.19359587
v -0.10022062 -0.04516145 -0.18514673
v -0.10734916 -0.00247044 -0.15002546
v -0.12362759 -0.01675997 -0.15869056
v -0.11218983 -0.03579610 -0.15019261
v -0.12158601 -0.03575344 -0.16910014
v -0.12445517 -0.00475644 -0.19333556
v -0.12720135 -0.01326514 -0.18118764
v -0.10256644 -0.04514893 -0.17880302
v -0.10323395 -0.04514603 -0.17820291
v -0.12205693 -0.00113640 -0.19918367
v -0.10015041 -0.03586718 -0.19532044
v -0.12269313 -0.00397325 -0.15640145
v -0.12213154 -0.03577407 -0.18034739
v -0.11254244 -0.04510518 -0.16925470
v -0.10826294 -0.02908791 -0.15008434
v -0.12718145 -0.00079322 -0.17352999
v -0.12620031 -0.00330736 -0.16738771
v -0.11111735 -0.03582703 -0.19944554
v -0.11269603 -0.03576524 -0.19794559
v -0.12235104 -0.01662068 -0.19877917
v -0.12484777 -0.01630078 -0.16209035
v -0.10877397 -0.00005055 -0.15132717
v -0.12088803 -0.00988242 -0.15314863
v -0.11179189 -0.03554600 -0.19936359
v -0.12714429 -0.01539063 -0.18203984
v -0.12426343 -0.01722929 -0.19336222
v -0.11979110 -0.01724998 -0.19998936
v -0.12568174 -0.01516131 -0.16442379
v -0.10165794 -0.04514006 -0.15603336
v -0.10674646 -0.04513005 -0.17378575
v -0.10060311 -0.04514122 -0.15067720
v -0.10989279 -0.04510675 -0.15888861
v -0.10003611 -0.04415587 -0.17359897
v -0.11405440 -0.03518068 -0.15157036
v -0.10358668 -0.04513239 -0.15563495
v -0.12268697 -0.00240787 -0.19810944
v -0.12409463 -0.01637219 -0.19443586
v -0.10006427 -0.04514835 -0.15996258
v -0.12303713 -0.00405713 -0.15719150
v -0.10000839 -0.03585140 -0.16529257
v -0.11915221 -0.00859220 -0.15007508
v -0.12683720 -0.01380942 -0.17083364
v -0.12465544 -0.00349490 -0.19277885
v -0.12512184 -0.01488916 -0.19163268
v -0.12648143 -0.00500703 -0.16897923
v -0.12312408 -0.00301263 -0.15744554
v -0.12216975 -0.00073997 -0.15549561
v -0.10060684 -0.03586652 -0.19735367
v -0.12704440 -0.00008469 -0.18225813
v -0.12560239 -0.00029725 -0.16437829
v -0.12721931 -0.01189873 -0.17309817
f 94 87 184
f 7 23 95
f 95 23 53
f 166 23 7
f 87 23 166
f 129 133 75
f 7 95 38
f 38 166 7
f 72 166 38
f 146 184 87
f 146 175 184
f 146 122 175
f 129 122 146
f 146 133 129
f 87 117 146
f 146 117 133
f 69 154 23
f 23 28 69
f 129 75 159
f 27 117 87
f 87 166 27
f 27 166 72
f 131 75 133
f 131 159 75
f 129 159 131
f 41 67 61
f 148 132 129
f 82 132 148
f 129 131 148
f 148 131 82
f 155 87 94
f 155 23 87
f 162 28 80
f 31 95 193
f 193 95 53
f 40 39 31
f 160 95 31
f 31 39 160
f 160 39 16
f 16 105 160
f 171 83 88
f 154 69 88
f 30 157 65
f 184 175 182
f 175 81 182
f 63 24 171
f 171 88 63
f 63 88 69
f 63 69 28
f 28 24 63
f 133 117 185
f 185 131 133
f 82 131 185
f 185 101 82
f 185 11 101
f 4 157 21
f 151 56 21
f 110 67 41
f 110 157 67
f 49 40 41
f 149 61 67
f 66 61 149
f 67 157 149
f 149 52 43
f 43 66 149
f 178 132 82
f 82 55 178
f 178 55 132
f 14 81 175
f 176 55 43
f 80 28 192
f 192 155 80
f 192 28 23
f 23 155 192
f 31 193 90
f 90 21 41
f 41 40 90
f 90 40 31
f 194 38 46
f 46 38 95
f 95 160 136
f 136 160 105
f 136 46 95
f 105 46 136
f 91 66 43
f 91 147 66
f 98 134 30
f 23 154 35
f 35 20 23
f 89 157 4
f 89 65 157
f 188 64 113
f 64 65 113
f 124 56 151
f 80 155 145
f 15 21 157
f 157 110 15
f 41 21 15
f 15 110 41
f 16 39 195
f 39 40 195
f 40 49 195
f 3 149 157
f 52 149 3
f 3 157 30
f 44 14 175
f 125 182 81
f 81 14 125
f 43 52 74
f 74 176 43
f 55 176 42
f 132 55 42
f 52 3 42
f 42 3 123
f 42 123 130
f 135 162 80
f 85 24 28
f 28 162 85
f 171 24 85
f 169 124 151
f 56 124 169
f 4 21 169
f 169 21 56
f 194 46 78
f 84 172 118
f 43 55 92
f 92 91 43
f 55 91 92
f 114 164 83
f 114 83 171
f 171 85 114
f 102 164 114
f 134 98 114
f 30 102 114
f 114 98 30
f 188 113 18
f 54 193 37
f 177 155 94
f 177 145 155
f 177 125 145
f 182 125 177
f 94 184 177
f 184 182 177
f 158 3 30
f 30 134 158
f 34 125 14
f 145 125 48
f 119 74 52
f 176 74 119
f 52 42 119
f 119 42 176
f 129 132 111
f 132 42 111
f 162 135 163
f 134 114 163
f 163 158 134
f 80 145 73
f 73 135 80
f 33 46 105
f 33 139 46
f 19 9 139
f 46 139 161
f 139 9 161
f 194 78 96
f 96 38 194
f 96 172 38
f 118 172 96
f 38 172 190
f 172 183 190
f 183 156 190
f 172 84 165
f 165 84 66
f 66 147 165
f 147 91 29
f 191 190 156
f 38 190 191
f 82 100 58
f 58 55 82
f 58 100 55
f 107 91 55
f 55 100 107
f 144 187 8
f 53 144 8
f 8 193 53
f 37 193 8
f 150 187 144
f 168 85 162
f 168 114 85
f 162 163 168
f 168 163 114
f 1 65 64
f 51 164 116
f 164 181 116
f 116 60 51
f 47 60 116
f 112 164 102
f 112 181 164
f 112 102 30
f 180 126 13
f 13 60 180
f 51 60 13
f 36 126 180
f 20 126 36
f 93 18 113
f 130 34 179
f 143 163 135
f 158 163 143
f 135 73 143
f 143 73 158
f 127 90 193
f 127 6 90
f 151 21 57
f 21 90 57
f 57 169 151
f 41 61 108
f 108 49 41
f 118 96 2
f 2 96 78
f 45 183 172
f 172 165 45
f 45 165 147
f 147 29 45
f 91 141 45
f 45 141 156
f 45 156 183
f 101 11 79
f 72 38 137
f 38 191 137
f 144 47 71
f 71 150 144
f 47 116 71
f 30 65 170
f 170 112 30
f 181 112 170
f 170 1 181
f 65 1 170
f 20 36 76
f 53 23 76
f 23 20 76
f 37 93 12
f 12 93 113
f 12 22 37
f 10 77 86
f 193 54 68
f 86 77 68
f 121 54 37
f 37 22 121
f 62 42 130
f 59 34 14
f 59 179 34
f 59 62 179
f 99 25 48
f 99 48 125
f 125 34 99
f 34 25 99
f 90 6 103
f 103 57 90
f 169 57 103
f 19 5 17
f 17 108 50
f 49 108 17
f 189 19 139
f 189 5 19
f 128 29 91
f 91 45 128
f 128 45 29
f 101 79 167
f 167 79 156
f 109 191 156
f 156 79 109
f 115 10 86
f 115 86 113
f 115 113 65
f 140 68 77
f 130 179 97
f 97 62 130
f 179 62 97
f 44 59 173
f 14 44 173
f 173 59 14
f 48 70 26
f 26 70 73
f 145 48 26
f 26 73 145
f 120 174 25
f 120 34 130
f 120 25 34
f 130 123 120
f 3 174 120
f 123 3 120
f 19 17 142
f 142 17 32
f 186 17 50
f 32 17 186
f 193 68 106
f 68 140 106
f 70 153 104
f 3 158 104
f 158 73 104
f 73 70 104
f 152 70 48
f 152 153 70
f 3 104 138
f 138 104 153
f 13 35 154
f 13 88 83
f 83 164 13
f 154 88 13
f 13 164 51
f 20 35 13
f 13 126 20
f 71 64 188
f 71 93 37
f 188 18 71
f 37 8 71
f 71 1 64
f 71 116 181
f 71 8 187
f 187 150 71
f 181 1 71
f 18 93 71
f 180 60 76
f 76 144 53
f 76 47 144
f 76 60 47
f 76 36 180
f 121 12 113
f 113 86 121
f 86 68 121
f 22 12 121
f 121 68 54
f 59 44 175
f 59 122 129
f 175 122 59
f 129 111 59
f 59 111 42
f 42 62 59
f 49 17 189
f 189 195 49
f 189 105 16
f 16 195 189
f 189 17 5
f 189 33 105
f 139 33 189
f 82 101 167
f 91 107 167
f 167 100 82
f 167 141 91
f 156 141 167
f 167 107 100
f 117 27 109
f 109 27 72
f 109 185 117
f 11 185 109
f 109 79 11
f 72 137 109
f 109 137 191
f 186 78 46
f 186 61 66
f 66 84 186
f 9 19 186
f 19 142 186
f 186 84 118
f 46 161 186
f 186 108 61
f 186 161 9
f 50 108 186
f 118 2 186
f 186 2 78
f 186 142 32
f 106 115 65
f 106 89 4
f 65 89 106
f 4 169 106
f 169 103 106
f 106 127 193
f 6 127 106
f 77 10 106
f 106 103 6
f 10 115 106
f 106 140 77
f 48 25 138
f 138 174 3
f 25 174 138
f 138 152 48
f 153 152 138

