# https://github.com/mikedh/trimesh
v 0.07690178 0.00021906 -0.01935458
v 0.08128350 0.00001791 -0.01959986
v 0.07720131 0.00533958 -0.01545893
v 0.07898909 0.00240469 -0.01915932
v 0.07764399 0.00468321 -0.00831669
v 0.09100509 0.00043921 -0.01966004
v 0.08595731 0.00042563 -0.01969627
v 0.09894899 0.00058134 -0.01921384
v 0.09978563 0.00183403 -0.01230118
v 0.07510240 0.00513465 -0.01472635
v 0.07741060 0.00264050 -0.01909433
v 0.07847137 0.00323759 -0.00706318
v 0.07759454 0.00545367 -0.01323484
v 0.09969100 0.00010543 -0.00895176
v 0.08428799 0.00137949 -0.00714648
v 0.09910734 0.00114604 -0.01880044
v 0.07820296 0.00485291 -0.00898884
v 0.07714925 0.00476532 -0.00866579
v 0.08188527 0.00202699 -0.00704712
v 0.08922815 0.00057033 -0.00752573
v 0.08887302 0.00027639 -0.01975373
v 0.07784076 0.00338718 -0.01875357
v 0.09968493 0.00154018 -0.01776723
v 0.09989381 0.00187173 -0.01308529
v 0.07550091 0.00441699 -0.00854675
v 0.08201731 0.00088119 -0.00680389
v 0.08227688 0.00142614 -0.00693365
v 0.07708269 0.00501112 -0.01679185
v 0.07541353 0.00001808 -0.01875703
v 0.07884666 0.00156174 -0.01935275
v 0.07739301 0.00438654 -0.00783277
v 0.08409955 0.00011448 -0.00689478
v 0.07516377 0.00369106 -0.01778012
v 0.07892425 0.00239447 -0.01916375
v 0.07645063 0.00230797 -0.01912723
v 0.07506024 0.00273605 -0.00728538
v 0.07840335 0.00332416 -0.00709837
v 0.09973638 0.00159393 -0.01080710
v 0.08075147 0.00149944 -0.01940017
v 0.07858637 0.00188279 -0.00664424
v 0.07840996 0.00215593 -0.00667982
v 0.07746361 0.00548858 -0.01229475
v 0.07792165 0.00464746 -0.01729463
v 0.07698868 0.00427434 -0.01809967
v 0.09975264 0.00115367 -0.00969424
v 0.08274568 0.00078090 -0.00685556
v 0.07916950 0.00203519 -0.01926049
v 0.07710014 0.00397520 -0.01838513
v 0.09991742 0.00185863 -0.01548375
v 0.08197061 0.00062730 -0.00676968
v 0.07804167 0.00299674 -0.01895272
v 0.07826626 0.00128598 -0.01936540
v 0.08532255 0.00012670 -0.00699945
v 0.07791131 0.00049336 -0.01940786
v 0.09898895 0.00142205 -0.01823802
v 0.07952114 0.00107842 -0.00661651
v 0.09012274 0.00013246 -0.00750376
v 0.07877008 0.00241749 -0.01915741
v 0.08212853 0.00215479 -0.00712691
v 0.07734321 0.00286269 -0.00674155
v 0.08486198 0.00003212 -0.01974240
v 0.08032695 0.00114403 -0.00668908
v 0.08303009 0.00040603 -0.00683547
v 0.07781928 0.00072488 -0.00647430
v 0.08879700 0.00041905 -0.01971085
v 0.07814846 0.00324270 -0.00701200
v 0.07734291 0.00510081 -0.01639204
v 0.07725420 0.00094772 -0.00644434
v 0.08828893 0.00058888 -0.01966232
v 0.07728262 0.00350665 -0.00707628
v 0.08241204 0.00050646 -0.00679409
v 0.07716059 0.00137702 -0.01930511
v 0.07690738 0.00132740 -0.00656749
v 0.07514178 0.00488289 -0.01598463
v 0.08571589 0.00114541 -0.00725568
v 0.07500011 0.00440075 -0.01704073
v 0.07541950 0.00465389 -0.00897290
v 0.09991285 0.00168447 -0.01705205
v 0.07948574 0.00187002 -0.01930131
v 0.07773997 0.00191566 -0.01925574
v 0.07647207 0.00003953 -0.00666631
v 0.07828407 0.00143380 -0.01935425
v 0.07786472 0.00538679 -0.01145470
v 0.08097132 0.00250103 -0.01907916
v 0.07782356 0.00529285 -0.01050893
v 0.08657853 0.00012559 -0.00712056
v 0.07731928 0.00542430 -0.01467044
v 0.07893226 0.00153723 -0.01935966
v 0.07647508 0.00137158 -0.01927216
v 0.07610061 0.00025279 -0.01924145
v 0.08071747 0.00015928 -0.01956616
v 0.09014745 0.00038942 -0.00758650
v 0.07507029 0.00454725 -0.01679084
v 0.08879119 0.00015087 -0.00735587
v 0.09537898 0.00002379 -0.01970004
v 0.07674713 0.00453677 -0.01766586
v 0.08617929 0.00138866 -0.01939873
v 0.07859628 0.00356881 -0.00729347
v 0.07509612 0.00523747 -0.01269121
v 0.09987160 0.00015314 -0.00900452
v 0.08840044 0.00033695 -0.00735250
v 0.07752481 0.00541746 -0.01442852
v 0.07782298 0.00475582 -0.00854284
v 0.07573892 0.00515937 -0.01127326
v 0.07730936 0.00511333 -0.00946157
v 0.07903014 0.00111234 -0.01941496
v 0.07952752 0.00254985 -0.00691896
v 0.09296547 0.00016803 -0.01971614
v 0.08175697 0.00096814 -0.01952367
v 0.09299819 0.00022463 -0.00792853
v 0.08106766 0.00003569 -0.00668021
v 0.07516973 0.00522165 -0.01382104
v 0.07867554 0.00235560 -0.00675015
v 0.08173009 0.00174865 -0.00694137
v 0.08569972 0.00015176 -0.01974691
v 0.08117686 0.00134246 -0.01943885
v 0.08424962 0.00134840 -0.00713210
v 0.07781974 0.00096331 -0.00648365
v 0.08347658 0.00040403 -0.01965212
v 0.07504656 0.00262155 -0.01826933
v 0.07864971 0.00145840 -0.01936231
v 0.08296387 0.00153385 -0.00702817
v 0.09050921 0.00014721 -0.00755678
v 0.07753566 0.00387280 -0.00729760
v 0.07778262 0.00318677 -0.01887078
v 0.08341248 0.00027549 -0.00685388
v 0.08162147 0.00006780 -0.01961365
v 0.07847240 0.00153121 -0.00658364
v 0.07501399 0.00032656 -0.00699306
v 0.07733031 0.00407029 -0.00750447
v 0.07778356 0.00535252 -0.01093357
v 0.08308483 0.00097407 -0.00692716
v 0.08253253 0.00105355 -0.01951808
v 0.08582361 0.00000922 -0.01977572
v 0.08331257 0.00165350 -0.01935784
v 0.07970629 0.00266496 -0.00698467
v 0.08173993 0.00053738 -0.01957665
v 0.07516793 0.00521020 -0.01400841
v 0.08416570 0.00082288 -0.01958907
v 0.08421070 0.00063851 -0.00697703
v 0.07773095 0.00135558 -0.00650473
v 0.09611454 0.00002452 -0.00832029
v 0.08044364 0.00112902 -0.00669711
v 0.07710120 0.00527069 -0.01046590
v 0.08411165 0.00104158 -0.01954273
v 0.07722220 0.00548898 -0.01412102
v 0.07517517 0.00095048 -0.01851985
v 0.08319703 0.00144345 -0.00703284
v 0.08389764 0.00040311 -0.01966469
v 0.07694291 0.00247647 -0.01912390
v 0.09332333 0.00005038 -0.00790181
v 0.07698276 0.00004682 -0.00640088
v 0.09253199 0.00003585 -0.01978600
v 0.07698706 0.00080201 -0.00645843
v 0.09961782 0.00013295 -0.01947641
v 0.07517865 0.00368561 -0.00773820
v 0.07546466 0.00476798 -0.00923718
v 0.09987352 0.00183792 -0.01249189
v 0.07882940 0.00306577 -0.00703208
v 0.08686467 0.00059554 -0.01966891
v 0.07505770 0.00298103 -0.00736662
v 0.07831191 0.00037621 -0.00649596
v 0.08864074 0.00048009 -0.01969325
v 0.07927866 0.00103420 -0.01943263
v 0.08983046 0.00018903 -0.00748406
v 0.07785178 0.00536852 -0.01118675
v 0.08300667 0.00046380 -0.00683962
v 0.07746114 0.00010239 -0.01938210
v 0.08206559 0.00095162 -0.01953169
v 0.07756061 0.00240598 -0.01915111
v 0.07723100 0.00547815 -0.01223751
v 0.07731848 0.00032090 -0.01937850
v 0.09988203 0.00154115 -0.01067004
v 0.07851555 0.00502461 -0.00978800
v 0.09983516 0.00193671 -0.01415083
v 0.08356305 0.00117108 -0.01950805
v 0.07657014 0.00348329 -0.01869004
v 0.08116340 0.00252350 -0.00713643
v 0.08292667 0.00201158 -0.00718443
v 0.08095412 0.00056010 -0.01954365
f 16 48 44
f 29 81 129
f 129 147 29
f 129 81 152
f 129 161 76
f 173 100 49
f 49 100 78
f 16 23 155
f 155 78 100
f 23 78 155
f 161 129 36
f 36 60 161
f 146 42 13
f 100 173 45
f 161 156 99
f 76 161 99
f 99 10 76
f 22 48 16
f 134 29 2
f 29 168 2
f 90 168 29
f 29 147 90
f 3 10 146
f 55 23 16
f 16 28 55
f 55 28 23
f 16 44 43
f 43 28 16
f 44 28 43
f 96 44 76
f 96 28 44
f 76 10 74
f 10 3 74
f 74 3 28
f 60 36 73
f 100 45 124
f 85 144 105
f 105 144 157
f 174 173 85
f 174 17 173
f 85 105 174
f 174 105 17
f 173 158 9
f 158 166 9
f 175 13 42
f 49 146 175
f 146 13 175
f 152 81 111
f 111 29 134
f 111 81 29
f 171 99 144
f 171 42 146
f 146 99 171
f 112 99 146
f 10 99 112
f 157 144 104
f 104 99 157
f 144 99 104
f 157 99 77
f 77 99 156
f 77 156 25
f 77 105 157
f 153 95 134
f 134 21 153
f 16 155 8
f 8 22 16
f 155 22 8
f 48 22 177
f 11 150 177
f 177 44 48
f 76 44 177
f 134 2 61
f 1 90 89
f 168 90 1
f 1 2 168
f 120 90 147
f 120 129 76
f 147 129 120
f 170 150 11
f 88 150 170
f 87 3 146
f 78 3 87
f 49 78 87
f 67 78 23
f 67 3 78
f 23 28 67
f 28 3 67
f 76 74 93
f 93 74 28
f 93 96 76
f 28 96 93
f 70 124 156
f 161 60 70
f 70 156 161
f 60 66 70
f 70 66 124
f 156 124 130
f 103 105 5
f 17 105 103
f 173 17 103
f 5 45 103
f 103 45 173
f 131 166 42
f 42 171 131
f 85 9 131
f 131 9 166
f 131 144 85
f 131 171 144
f 85 173 38
f 38 9 85
f 173 9 38
f 49 175 24
f 24 173 49
f 24 158 173
f 134 95 142
f 142 111 134
f 142 151 111
f 146 10 138
f 138 112 146
f 10 112 138
f 5 105 18
f 18 77 5
f 105 77 18
f 11 177 125
f 125 177 22
f 125 22 155
f 95 153 108
f 52 106 54
f 2 54 91
f 134 61 119
f 172 54 2
f 2 1 172
f 89 54 172
f 172 1 89
f 89 90 35
f 90 120 35
f 35 120 177
f 35 80 89
f 150 80 35
f 35 177 150
f 76 177 33
f 33 120 76
f 177 120 33
f 30 150 88
f 30 80 150
f 39 109 88
f 102 146 49
f 49 87 102
f 102 87 146
f 124 66 37
f 31 130 124
f 156 130 31
f 5 77 31
f 25 156 31
f 31 77 25
f 31 45 5
f 31 124 45
f 83 24 175
f 42 166 83
f 83 175 42
f 83 166 158
f 158 24 83
f 60 73 154
f 154 129 152
f 154 36 129
f 154 73 36
f 152 111 162
f 114 19 60
f 178 142 100
f 14 155 100
f 100 142 14
f 95 155 14
f 14 142 95
f 65 153 21
f 115 21 134
f 134 109 115
f 6 108 153
f 54 106 164
f 164 91 54
f 149 109 134
f 134 119 149
f 149 119 109
f 80 30 82
f 89 80 82
f 82 30 88
f 106 52 82
f 82 164 106
f 88 170 79
f 79 39 88
f 109 39 116
f 100 124 98
f 98 37 100
f 124 37 98
f 100 37 12
f 12 37 66
f 86 151 57
f 111 151 86
f 86 53 111
f 111 53 32
f 32 162 111
f 57 151 123
f 151 92 123
f 20 92 151
f 151 178 179
f 179 20 151
f 151 142 110
f 110 178 151
f 142 178 110
f 60 19 107
f 159 178 100
f 100 12 159
f 159 12 66
f 163 69 153
f 153 65 163
f 163 160 69
f 4 135 69
f 108 6 84
f 95 108 84
f 84 155 95
f 84 125 155
f 153 69 51
f 69 135 51
f 135 4 51
f 125 84 51
f 11 125 51
f 51 4 11
f 91 164 127
f 127 61 2
f 2 91 127
f 89 82 72
f 72 82 52
f 72 54 89
f 72 52 54
f 88 109 121
f 121 82 88
f 109 119 121
f 119 82 121
f 47 170 11
f 47 79 170
f 39 79 47
f 169 109 133
f 109 116 133
f 113 114 60
f 60 41 113
f 113 41 114
f 167 53 143
f 167 32 53
f 60 107 136
f 178 159 136
f 136 107 19
f 136 66 60
f 136 159 66
f 69 160 34
f 34 4 69
f 153 51 97
f 97 51 84
f 97 6 153
f 97 84 6
f 61 127 137
f 164 82 137
f 137 119 61
f 137 82 119
f 169 133 7
f 7 160 21
f 21 115 7
f 94 86 57
f 57 101 94
f 94 101 86
f 114 86 148
f 86 101 148
f 140 86 114
f 162 32 64
f 32 118 64
f 56 62 128
f 92 20 75
f 75 123 92
f 75 15 123
f 75 20 19
f 19 15 75
f 123 15 117
f 59 179 178
f 178 136 59
f 59 136 19
f 58 34 160
f 180 127 164
f 164 137 180
f 180 137 127
f 39 47 176
f 176 47 11
f 11 58 176
f 176 58 160
f 27 140 114
f 132 140 27
f 114 41 27
f 41 132 27
f 143 53 26
f 40 132 41
f 40 140 132
f 40 62 143
f 128 62 40
f 68 64 118
f 68 154 152
f 60 154 68
f 118 56 141
f 141 68 118
f 60 68 141
f 128 40 141
f 141 41 60
f 141 40 41
f 71 118 32
f 71 56 118
f 165 101 57
f 57 123 165
f 123 117 165
f 122 148 101
f 101 165 122
f 122 165 117
f 114 148 122
f 122 117 15
f 19 114 122
f 122 15 19
f 160 7 145
f 145 176 160
f 140 40 46
f 86 140 46
f 143 26 46
f 46 40 143
f 53 86 46
f 46 26 53
f 126 71 32
f 50 167 143
f 143 62 50
f 71 126 50
f 62 56 50
f 56 71 50
f 139 7 133
f 139 145 7
f 167 50 63
f 63 50 126
f 21 160 163
f 163 65 21
f 7 109 169
f 7 115 109
f 20 179 59
f 19 20 59
f 4 34 58
f 11 4 58
f 162 64 68
f 152 162 68
f 141 56 128
f 139 133 116
f 139 116 39
f 39 176 139
f 176 145 139
f 63 126 32
f 32 167 63

