# https://github.com/mikedh/trimesh
v -0.05131076 0.02512782 -0.02633610
v -0.05024575 0.02551484 -0.02851212
v -0.05156461 0.02536576 -0.03466389
v -0.05105383 0.02545855 -0.02782056
v -0.05092749 0.02572810 -0.03454099
v -0.05176792 0.02523553 -0.03409525
v -0.05048872 0.02505567 -0.03529604
v -0.05016152 0.02615032 -0.03424725
v -0.05153860 0.02521459 -0.02980862
v -0.05075753 0.02562458 -0.02752199
v -0.05186949 0.02515153 -0.03340036
v -0.05021536 0.02604146 -0.03218931
v -0.05000813 0.02584920 -0.02876861
v -0.05052729 0.02582677 -0.02974169
f 13 7 8
f 11 7 1
f 2 7 13
f 13 1 2
f 2 1 7
f 10 1 13
f 6 7 11
f 6 3 7
f 5 8 7
f 7 3 5
f 3 6 5
f 1 10 4
f 4 6 11
f 10 6 4
f 13 8 12
f 14 6 10
f 14 5 6
f 8 5 14
f 14 12 8
f 14 10 13
f 13 12 14
f 11 1 9
f 9 4 11
f 1 4 9

