# https://github.com/mikedh/trimesh
v -0.00682967 -0.02998124 -0.07310220
v -0.01897017 -0.02990024 -0.09969770
v -0.00562670 -0.04175684 -0.09048239
v -0.01560568 -0.03501565 -0.09790285
v -0.02061778 -0.02509343 -0.09906516
v -0.01819561 -0.03104696 -0.09798215
v -0.01551707 -0.03518893 -0.09836256
v -0.00249223 -0.04294516 -0.09563101
v -0.01817238 -0.03117180 -0.09825692
v -0.00192400 -0.04311974 -0.09743083
v -0.00722592 -0.04100112 -0.09136245
v -0.02102809 -0.02375021 -0.09968843
v -0.01825152 -0.00043235 -0.07310171
v -0.01912238 -0.02965037 -0.09997781
v -0.02306500 -0.00643871 -0.09976999
v -0.00341713 -0.02833769 -0.09992752
v -0.01657850 -0.03397792 -0.09943455
v -0.00031551 -0.04359986 -0.09441943
v -0.01633808 -0.03431038 -0.09948795
v -0.02301622 -0.00774126 -0.09977432
v -0.01236801 -0.03806570 -0.09681498
v -0.00600091 -0.04160718 -0.09118589
v -0.00029665 -0.04367635 -0.08877357
v -0.01881651 -0.00398480 -0.07321905
v -0.00386862 -0.03424243 -0.07325166
v -0.01426193 -0.03608537 -0.09494470
v -0.02157853 -0.00006786 -0.09866994
v -0.00682857 -0.04136344 -0.09883525
v -0.00141657 -0.04331829 -0.09371408
v -0.01719692 -0.03323459 -0.09997790
v -0.00205537 -0.04305631 -0.09878520
v -0.01615878 -0.03403020 -0.09661586
v -0.01452408 -0.03642339 -0.09964964
v -0.01881651 -0.00070113 -0.07395253
v -0.01592714 -0.03427207 -0.09620139
v -0.00010203 -0.02887003 -0.07310240
v -0.01846372 -0.03034010 -0.09749350
v -0.02127961 -0.02260475 -0.09971697
v -0.02218176 -0.01678596 -0.09904962
v -0.02166227 -0.02047882 -0.09917923
v -0.00167372 -0.04323786 -0.09069487
v -0.01038903 -0.00010812 -0.07310194
v -0.02088267 -0.02342786 -0.09830086
v -0.00238197 -0.04293169 -0.09964248
v -0.00299802 -0.02527789 -0.07310229
v -0.01188770 -0.02398099 -0.07310202
v -0.00007460 -0.04366847 -0.09380340
v -0.00845767 -0.04044428 -0.09361332
v -0.00005243 -0.01527308 -0.07310233
v -0.00372082 -0.04253491 -0.09131083
v -0.02301518 -0.00013215 -0.09941344
v -0.00603423 -0.04165618 -0.09376531
v -0.00871235 -0.02950128 -0.07314626
v -0.00555127 -0.02988484 -0.07310224
v -0.01833618 -0.03062407 -0.09753345
v -0.01254138 -0.02399452 -0.07327896
v -0.01894448 -0.02995329 -0.09969071
v -0.00395471 -0.04242498 -0.09035991
v -0.02081188 -0.02453935 -0.09936740
v -0.00608444 -0.03213353 -0.07319744
v -0.01562209 -0.03530204 -0.09999983
v -0.00500015 -0.04207834 -0.09328363
v -0.01046979 -0.03929948 -0.09491961
v -0.01420545 -0.03680116 -0.09998514
v -0.01459136 -0.00606929 -0.09985879
v -0.01103800 -0.03882963 -0.09411894
v -0.02175546 -0.01980726 -0.09895016
v -0.02200509 -0.01874241 -0.09950490
v -0.02147708 -0.02102727 -0.09863634
v -0.00066944 -0.02503999 -0.07310236
v -0.01671443 -0.03363999 -0.09858947
v -0.00092035 -0.04330317 -0.09965647
v -0.00015565 -0.04368423 -0.09043413
v -0.02044414 -0.02590209 -0.09956225
v -0.02193010 -0.01888337 -0.09913897
v -0.01844553 -0.03084417 -0.09907059
v -0.01685751 -0.03279309 -0.09621295
v -0.02294204 -0.00880466 -0.09958852
v -0.02056010 -0.02482456 -0.09827620
v -0.00307598 -0.04268652 -0.09997384
v -0.01139353 -0.02544471 -0.07310204
v -0.00062346 -0.03688080 -0.07399663
v -0.00171428 -0.04322203 -0.09185896
v -0.01957765 -0.02773836 -0.09787393
v -0.01524609 -0.03569056 -0.09989236
v -0.01373591 -0.03664454 -0.09479193
v -0.00024965 -0.03490444 -0.07310243
v -0.01825696 -0.03140713 -0.09982014
v -0.01816458 -0.03147574 -0.09939411
v -0.02312824 -0.00360155 -0.09977583
v -0.00597509 -0.04174346 -0.09688845
v -0.00080552 -0.04350034 -0.08804252
v -0.00008292 -0.03133564 -0.09772351
v -0.01872869 -0.00523976 -0.07310172
v -0.02273497 -0.01250998 -0.09990968
v -0.01517254 -0.01864749 -0.07310189
v -0.01813660 -0.00824888 -0.07310175
v -0.00547818 -0.04183198 -0.09090943
v -0.01158360 -0.03880643 -0.09934681
v -0.00770553 -0.03021205 -0.07310218
v -0.01312614 -0.01275847 -0.09998140
v -0.02247066 -0.01470808 -0.09928813
v -0.00838494 -0.04066857 -0.09868777
v -0.01190088 -0.03824836 -0.09490215
v -0.01464192 -0.03567126 -0.09506459
v -0.00001585 -0.03248590 -0.08351008
v -0.00156133 -0.04316195 -0.09959653
v -0.01810324 -0.00916812 -0.07321607
v -0.02213282 -0.01787331 -0.09961505
v -0.01926677 -0.02849206 -0.09753971
v -0.00072226 -0.04348020 -0.09522760
v -0.02197523 -0.01931131 -0.09992904
v -0.00233853 -0.04300840 -0.09252182
v -0.00158449 -0.04326156 -0.09394048
v -0.00970396 -0.03965221 -0.09260434
v -0.02028034 -0.02651114 -0.09969509
v -0.01566042 -0.00009966 -0.07310179
v -0.00874484 -0.01627997 -0.07310207
v -0.00211220 -0.04303045 -0.09925058
v -0.00265741 -0.04290191 -0.09140568
v -0.00490801 -0.02024770 -0.07310221
v -0.00490124 -0.03297955 -0.07310228
v -0.01381701 -0.02189571 -0.07335617
v -0.01717256 -0.03271800 -0.09756135
v -0.01169370 -0.02268828 -0.07310202
v -0.01241389 -0.03786797 -0.09513225
v -0.00872308 -0.04048059 -0.09842240
v -0.00000892 -0.04078556 -0.08748567
v -0.00316808 -0.04272783 -0.09069850
v -0.01155047 -0.03846694 -0.09434771
v -0.00042994 -0.00090661 -0.07310224
v -0.01064165 -0.03934466 -0.09759366
v -0.01503884 -0.00001530 -0.09968688
v -0.00173179 -0.04321384 -0.09307003
v -0.01866492 -0.00643271 -0.07324835
v -0.01759365 -0.00005742 -0.07840173
v -0.00854570 -0.02934266 -0.07310215
v -0.02150619 -0.02100005 -0.09878800
v -0.00829746 -0.04055233 -0.09389580
v -0.01808031 -0.00862466 -0.07310175
v -0.00017181 -0.03126203 -0.09967315
v -0.00099208 -0.04345507 -0.09173972
v -0.00491335 -0.04208337 -0.09966757
v -0.01540575 -0.00927841 -0.07310183
v -0.01881652 -0.00454308 -0.07329532
v -0.01666797 -0.01524644 -0.07340141
v -0.01532348 -0.03503950 -0.09588669
v -0.02250085 -0.01507104 -0.09979099
v -0.01821901 -0.03100756 -0.09800519
v -0.00010097 -0.00474724 -0.07310227
v -0.00312232 -0.02952649 -0.07310231
v -0.01889365 -0.03011687 -0.09989401
v -0.00018833 -0.03315834 -0.07310242
v -0.00057215 -0.03691284 -0.07438557
v -0.02263413 -0.01306038 -0.09948646
v -0.00493957 -0.04207494 -0.09962080
v -0.01733889 -0.03290180 -0.09950757
v -0.02309923 -0.00194288 -0.09948618
v -0.00538820 -0.04186360 -0.09073299
v -0.01036421 -0.03958510 -0.09870016
v -0.02207050 -0.01873508 -0.09995773
v -0.01744685 -0.03200829 -0.09654068
v -0.01113613 -0.02292385 -0.07310203
v -0.00695451 -0.02420286 -0.07310216
v -0.01810217 -0.03134575 -0.09841173
v -0.02268733 -0.01253933 -0.09958728
v -0.00530413 -0.02719793 -0.09996544
v -0.01588873 -0.01706384 -0.07324009
v -0.00221365 -0.00020119 -0.07310219
v -0.01427772 -0.00003084 -0.07310183
v -0.00121388 -0.04337622 -0.09375089
v -0.00064121 -0.04340542 -0.09818571
v -0.02028227 -0.02635878 -0.09937623
v -0.00024958 -0.04368002 -0.08800922
v -0.01977435 -0.02723126 -0.09806094
v -0.02198208 -0.01914814 -0.09979529
v -0.01881652 -0.00008616 -0.07452331
v -0.00079455 -0.02974926 -0.07310238
v -0.02244850 -0.00009892 -0.09912017
v -0.01559682 -0.03518707 -0.09895503
v -0.00093303 -0.04346984 -0.08865677
v -0.00048333 -0.02650375 -0.07310237
v -0.01876961 -0.00251487 -0.07310170
v -0.02250587 -0.01437475 -0.09927281
v -0.00620172 -0.04163641 -0.09666638
v -0.02317174 -0.00090668 -0.09990264
v -0.00568203 -0.04181369 -0.09356198
v -0.01025835 -0.02716440 -0.07310208
v -0.01965359 -0.02825690 -0.09965516
v -0.02213478 -0.01735919 -0.09920474
v -0.01780851 -0.03132283 -0.09670595
v -0.02304637 -0.00527680 -0.09946222
v -0.00025663 -0.04368070 -0.08817724
v -0.00025649 -0.03224566 -0.09984760
v -0.00154734 -0.03468433 -0.07310239
v -0.01182187 -0.02435621 -0.07310202
v -0.01682781 -0.01458044 -0.07310183
v -0.02005231 -0.02704691 -0.09925116
v -0.01889304 -0.02938124 -0.09759313
v -0.00057488 -0.04353312 -0.09442686
f 131 141 133
f 47 93 128
f 141 93 47
f 194 133 141
f 51 133 186
f 101 161 186
f 61 161 101
f 150 141 131
f 150 93 141
f 186 183 34
f 34 51 186
f 177 51 34
f 172 47 72
f 72 194 172
f 141 47 172
f 172 194 141
f 186 133 65
f 65 101 186
f 53 86 115
f 3 82 25
f 135 39 75
f 183 42 13
f 13 34 183
f 13 117 177
f 177 34 13
f 136 27 177
f 133 51 179
f 179 27 133
f 179 51 177
f 177 27 179
f 101 65 16
f 167 101 16
f 133 194 16
f 16 65 133
f 109 148 161
f 130 115 86
f 137 188 53
f 81 188 151
f 188 137 151
f 56 188 81
f 53 188 56
f 56 105 53
f 26 86 53
f 53 105 26
f 153 87 128
f 128 36 153
f 150 36 49
f 70 121 45
f 70 150 131
f 195 82 87
f 195 25 82
f 3 25 11
f 11 25 115
f 92 82 3
f 128 87 174
f 82 92 174
f 123 56 96
f 96 56 81
f 94 145 135
f 94 42 183
f 94 144 42
f 117 13 170
f 170 13 42
f 177 117 170
f 170 136 177
f 133 27 170
f 27 136 170
f 42 121 169
f 131 133 169
f 169 70 131
f 121 70 169
f 133 170 169
f 169 170 42
f 42 144 118
f 118 121 42
f 118 144 45
f 45 121 118
f 112 40 67
f 67 40 138
f 67 135 75
f 135 145 184
f 186 161 95
f 161 148 95
f 148 184 95
f 68 109 161
f 68 176 75
f 112 176 68
f 161 112 68
f 75 39 190
f 190 68 75
f 109 68 190
f 146 197 110
f 1 151 137
f 19 30 61
f 93 150 106
f 150 49 106
f 128 93 106
f 106 36 128
f 106 49 36
f 25 195 122
f 122 195 87
f 48 11 115
f 139 11 48
f 22 139 103
f 22 11 139
f 3 11 22
f 103 52 22
f 73 23 47
f 73 47 128
f 128 174 73
f 87 82 154
f 154 174 87
f 82 174 154
f 15 145 192
f 192 90 15
f 15 90 186
f 186 90 158
f 168 197 146
f 168 96 197
f 146 110 168
f 24 94 183
f 145 94 24
f 24 183 186
f 186 158 24
f 24 158 90
f 24 90 192
f 192 145 24
f 125 163 144
f 144 94 125
f 69 108 135
f 69 67 138
f 135 67 69
f 140 108 197
f 197 96 140
f 140 94 135
f 135 108 140
f 10 111 171
f 103 91 185
f 185 52 103
f 28 91 103
f 103 143 28
f 72 107 80
f 143 64 80
f 80 194 72
f 167 16 80
f 80 16 194
f 80 64 61
f 61 101 80
f 80 101 167
f 102 184 148
f 39 135 102
f 135 184 102
f 166 145 78
f 78 95 166
f 166 95 184
f 99 143 103
f 99 64 143
f 85 86 61
f 61 64 85
f 126 130 86
f 86 64 126
f 38 40 112
f 112 12 38
f 138 40 38
f 38 12 138
f 123 96 162
f 14 112 161
f 14 161 61
f 61 30 14
f 87 151 54
f 54 1 87
f 151 1 54
f 45 144 164
f 144 163 164
f 180 19 61
f 4 19 180
f 61 86 180
f 86 26 180
f 30 19 17
f 17 19 4
f 178 153 36
f 45 151 178
f 178 151 87
f 87 153 178
f 60 122 53
f 25 122 60
f 53 115 60
f 115 25 60
f 100 137 53
f 53 122 100
f 100 122 87
f 87 1 100
f 100 1 137
f 29 10 171
f 23 73 193
f 193 73 174
f 78 145 20
f 145 15 20
f 20 95 78
f 186 95 20
f 20 15 186
f 46 94 96
f 46 125 94
f 163 125 46
f 46 151 45
f 45 164 46
f 46 164 163
f 79 110 197
f 197 108 79
f 96 94 97
f 97 140 96
f 94 140 97
f 171 111 200
f 23 171 200
f 18 111 107
f 18 107 72
f 72 47 18
f 18 200 111
f 47 23 18
f 23 200 18
f 31 143 119
f 31 10 143
f 111 10 31
f 119 107 31
f 107 111 31
f 143 10 8
f 91 28 156
f 156 28 143
f 156 8 91
f 143 8 156
f 119 143 44
f 143 80 44
f 44 107 119
f 44 80 107
f 155 184 145
f 145 166 155
f 155 166 184
f 33 64 86
f 86 85 33
f 33 85 64
f 130 126 104
f 96 168 191
f 191 162 96
f 191 168 110
f 77 56 123
f 123 162 77
f 105 56 77
f 77 35 105
f 77 162 35
f 7 180 26
f 30 17 71
f 147 17 4
f 35 71 147
f 147 71 17
f 105 35 147
f 4 180 147
f 180 7 147
f 147 7 26
f 147 26 105
f 182 70 45
f 182 178 36
f 45 178 182
f 182 36 150
f 150 70 182
f 23 41 142
f 41 29 142
f 142 171 23
f 142 29 171
f 196 96 81
f 196 46 96
f 81 151 196
f 151 46 196
f 138 12 59
f 59 69 138
f 10 29 114
f 114 8 10
f 160 48 115
f 115 63 160
f 139 48 160
f 160 99 103
f 110 14 199
f 35 162 32
f 162 124 32
f 32 71 35
f 32 124 30
f 30 71 32
f 88 14 30
f 30 124 157
f 157 88 30
f 113 134 83
f 113 114 134
f 8 114 113
f 91 8 113
f 91 62 187
f 187 185 91
f 52 185 187
f 3 22 187
f 187 22 52
f 181 41 23
f 23 193 181
f 69 59 43
f 43 59 79
f 108 69 43
f 43 79 108
f 103 139 127
f 127 160 103
f 139 160 127
f 132 63 99
f 99 160 132
f 132 160 63
f 115 130 66
f 66 63 115
f 64 99 21
f 21 126 64
f 99 63 21
f 63 66 21
f 21 66 130
f 21 104 126
f 130 104 21
f 37 191 110
f 110 199 37
f 162 191 37
f 37 199 14
f 98 159 3
f 3 187 98
f 189 14 110
f 198 189 110
f 89 165 88
f 88 157 89
f 162 165 89
f 89 157 124
f 89 124 162
f 14 88 152
f 88 76 152
f 2 37 14
f 2 76 37
f 55 76 149
f 37 76 55
f 149 6 55
f 162 37 55
f 55 6 162
f 41 181 129
f 129 181 92
f 79 198 175
f 189 198 116
f 14 189 116
f 198 173 116
f 116 12 112
f 112 14 116
f 116 59 12
f 116 74 59
f 59 74 5
f 79 59 5
f 5 198 79
f 5 173 198
f 9 6 149
f 149 76 9
f 9 165 162
f 162 6 9
f 88 165 9
f 9 76 88
f 57 152 76
f 76 2 57
f 3 159 58
f 58 92 3
f 58 129 92
f 91 113 120
f 120 129 91
f 41 129 120
f 120 83 41
f 120 113 83
f 110 79 84
f 79 175 84
f 84 198 110
f 84 175 198
f 50 58 62
f 129 58 50
f 50 62 91
f 91 129 50
f 67 176 112
f 75 176 67
f 148 109 102
f 102 190 39
f 109 190 102
f 114 29 41
f 41 83 114
f 83 134 114
f 181 193 174
f 181 174 92
f 5 116 173
f 74 116 5
f 57 2 14
f 14 152 57
f 58 187 62
f 159 98 58
f 58 98 187

