# https://github.com/mikedh/trimesh
v -0.10003479 -0.04501124 -0.14795001
v -0.10832078 -0.00930575 -0.13843739
v -0.10184589 -0.01580317 -0.13418967
v -0.10855862 -0.00969887 -0.13864049
v -0.10003322 -0.01729412 -0.13712162
v -0.11369752 -0.00268016 -0.14334726
v -0.11351006 -0.00147557 -0.14318180
v -0.11902495 -0.00459597 -0.14987996
v -0.11672104 -0.01716713 -0.14691234
v -0.10891783 -0.01694523 -0.13893646
v -0.11374095 -0.00310007 -0.14338500
v -0.10083507 -0.04513987 -0.14983095
v -0.10246831 -0.00006430 -0.13464707
v -0.11229320 -0.03548790 -0.14930323
v -0.11239213 -0.01550791 -0.14210448
v -0.11856976 -0.01699142 -0.14923533
v -0.11394423 -0.01372949 -0.14352461
v -0.10957827 -0.01681951 -0.13953805
v -0.10059427 -0.00135407 -0.14427581
v -0.10331331 -0.03582554 -0.14121635
v -0.10523018 -0.03582287 -0.14993744
v -0.10701488 -0.00034119 -0.13761403
v -0.10772108 -0.01660224 -0.13802223
v -0.11391179 -0.01505410 -0.14348943
v -0.11886071 -0.00113606 -0.14969036
v -0.11734482 -0.00001114 -0.14779276
v -0.10000044 -0.03854633 -0.14794669
v -0.11239342 -0.01083672 -0.14212560
v -0.10698873 -0.00051064 -0.14966834
v -0.10608529 -0.00035698 -0.14863749
v -0.10823773 -0.01206433 -0.13837422
v -0.10014984 -0.00009898 -0.13346890
v -0.10821350 -0.03580870 -0.14509128
v -0.10731593 -0.00229891 -0.14977785
v -0.10021204 -0.03422030 -0.13909811
v -0.11440153 -0.01640479 -0.14400334
v -0.10067687 -0.00004720 -0.14425064
v -0.10218949 -0.00174625 -0.13445961
v -0.10175503 -0.00241595 -0.13417891
v -0.10735844 -0.01268819 -0.14998983
v -0.10701755 -0.03578700 -0.14392560
v -0.10006611 -0.01258682 -0.14377582
v -0.10173886 -0.00157693 -0.13417374
v -0.11340675 -0.01477062 -0.14303101
v -0.10803042 -0.01726981 -0.14999138
v -0.11174487 -0.00017992 -0.14158087
v -0.11249271 -0.03440880 -0.14956581
v -0.11907781 -0.00866965 -0.14994234
v -0.10572775 -0.03582094 -0.14993129
v -0.10176206 -0.03509269 -0.14008295
v -0.10175159 -0.01530064 -0.13414607
v -0.11460987 -0.01724156 -0.14451664
v -0.11424074 -0.01632625 -0.14380183
v -0.10847180 -0.00666825 -0.13857442
v -0.11794214 -0.00017431 -0.14854208
v -0.11544509 -0.00024480 -0.14540539
v -0.10792234 -0.00423856 -0.13819374
v -0.10964025 -0.00062471 -0.13966359
v -0.10369922 -0.01720895 -0.13539491
v -0.10194780 -0.01667553 -0.13425336
v -0.10017452 -0.01047112 -0.13345470
v -0.10771773 -0.00259412 -0.13806552
v -0.11126156 -0.03557017 -0.14797579
v -0.11310589 -0.00056962 -0.14281784
v -0.10310403 -0.03537930 -0.14093701
v -0.11678259 -0.01723596 -0.14997206
v -0.10839283 -0.00249818 -0.13852035
v -0.11135265 -0.00187419 -0.14121668
v -0.11210455 -0.00880708 -0.14187137
v -0.11151621 -0.00038687 -0.14137189
v -0.10720960 -0.00430119 -0.14987576
v -0.10052346 -0.04514040 -0.14858809
v -0.11135765 -0.00158388 -0.14122247
v -0.11895468 -0.00553556 -0.14978353
v -0.10700477 -0.01686160 -0.13755380
v -0.10155386 -0.01690471 -0.13405402
v -0.11424584 -0.00107357 -0.14389444
v -0.11131098 -0.00499535 -0.14116543
v -0.11892079 -0.01366460 -0.14969502
f 27 42 5
f 61 35 5
f 37 13 32
f 61 5 32
f 32 5 42
f 8 71 48
f 26 13 37
f 27 5 1
f 1 5 35
f 37 32 19
f 19 32 42
f 27 37 19
f 19 42 27
f 20 10 41
f 41 1 20
f 59 20 65
f 29 71 34
f 71 8 34
f 37 29 30
f 30 26 37
f 29 26 30
f 29 34 25
f 25 34 8
f 8 74 25
f 25 74 9
f 22 13 46
f 13 26 46
f 46 26 56
f 27 1 12
f 12 71 29
f 12 29 37
f 12 37 27
f 50 1 35
f 50 20 1
f 65 20 50
f 10 20 75
f 20 59 75
f 76 50 35
f 76 35 61
f 76 59 65
f 65 50 76
f 76 51 3
f 60 3 22
f 60 76 3
f 59 76 60
f 9 74 16
f 14 63 16
f 16 63 9
f 55 26 29
f 29 25 55
f 41 10 53
f 62 60 22
f 67 62 22
f 33 1 41
f 41 53 33
f 33 53 63
f 72 63 14
f 14 12 72
f 72 12 1
f 1 33 72
f 72 33 63
f 71 12 40
f 48 71 40
f 40 66 48
f 45 66 40
f 49 12 47
f 47 66 49
f 47 12 14
f 14 16 47
f 21 66 45
f 49 66 21
f 45 40 21
f 21 12 49
f 21 40 12
f 38 13 22
f 22 3 38
f 43 32 13
f 10 75 23
f 79 8 48
f 48 66 79
f 79 74 8
f 79 16 74
f 66 47 79
f 79 47 16
f 56 26 77
f 26 55 77
f 77 55 25
f 25 53 77
f 9 63 52
f 63 53 52
f 18 53 10
f 2 23 75
f 2 75 59
f 59 60 2
f 58 70 73
f 46 70 58
f 22 46 58
f 58 67 22
f 3 51 39
f 39 38 3
f 13 38 39
f 39 43 13
f 64 46 56
f 56 77 64
f 9 52 36
f 36 52 53
f 36 25 9
f 36 53 25
f 28 58 69
f 10 2 4
f 31 2 10
f 10 23 31
f 23 2 31
f 62 67 57
f 67 2 57
f 60 62 57
f 57 2 60
f 11 77 53
f 78 69 58
f 54 2 67
f 54 4 2
f 7 64 77
f 18 15 24
f 53 18 24
f 73 78 68
f 68 58 73
f 68 78 58
f 77 11 6
f 6 7 77
f 17 11 53
f 53 24 17
f 44 24 15
f 69 24 44
f 28 69 44
f 61 32 39
f 39 76 61
f 51 76 39
f 32 43 39
f 17 6 11
f 17 24 69
f 17 70 46
f 46 64 17
f 73 70 17
f 17 78 73
f 64 7 17
f 69 78 17
f 7 6 17
f 44 58 28
f 44 15 18
f 44 18 10
f 67 58 44
f 44 54 67
f 10 4 44
f 4 54 44

