# https://github.com/mikedh/trimesh
v 0.02934617 0.03525599 -0.09536061
v 0.03107877 0.03485685 -0.05001034
v 0.04938948 0.03343320 -0.06857145
v 0.03845848 0.03500681 -0.08934031
v 0.00859975 0.03498035 -0.05007754
v 0.04622802 0.03422498 -0.07844363
v 0.04225450 0.03460059 -0.05031423
v 0.01240241 0.03535841 -0.07032643
v 0.02539386 0.03517547 -0.07108227
v 0.03905043 0.00011427 -0.05159653
v 0.04540040 0.03376174 -0.09954355
v 0.04427103 0.03442506 -0.08717315
v 0.04488298 0.03444265 -0.05034514
v 0.00011090 0.03568780 -0.09532872
v 0.03424010 0.03514730 -0.09123481
v 0.03228416 0.03519145 -0.09638835
v 0.01409161 0.03552424 -0.09745676
v 0.03419765 0.03514967 -0.09265046
v 0.04864237 0.03299328 -0.09035356
v 0.04667638 0.03389962 -0.08477028
v 0.04822061 0.03062656 -0.09979895
v 0.04802277 0.03288728 -0.09839722
v 0.04818114 0.03311260 -0.09140928
v 0.04293190 0.03474151 -0.06317777
v 0.04643788 0.03435998 -0.06035164
v 0.01293296 0.03555265 -0.09981904
v 0.03391965 0.03515574 -0.09320251
v 0.04715655 0.03395818 -0.07713055
v 0.02229821 0.03540403 -0.09750525
v 0.04256362 0.03475417 -0.06047167
v 0.00261667 0.03506875 -0.05089124
v 0.04123322 0.03481555 -0.08655234
v 0.04030047 0.03489783 -0.08852834
v 0.04499601 0.03418577 -0.09238794
v 0.04891180 0.03272023 -0.09478050
v 0.02800696 0.00044265 -0.09739254
v 0.04447858 0.03414429 -0.09783064
v 0.04519891 0.03388380 -0.09823511
v 0.04071344 0.03490335 -0.07885654
v 0.04906852 0.03368565 -0.05838289
v 0.04937256 0.03360174 -0.06197929
v 0.01989417 0.03518651 -0.06165601
v 0.04041435 0.00036842 -0.05162502
v 0.02700822 0.03530826 -0.09754946
v 0.04800941 0.03403438 -0.06059967
v 0.04431744 0.03463912 -0.06528971
v 0.03481517 0.03508136 -0.07801874
v 0.04428250 0.03439461 -0.08864378
v 0.01497659 0.03530732 -0.06796068
v 0.01254502 0.03532309 -0.06552132
v 0.04073846 0.03464505 -0.05001821
v 0.03568846 0.03510701 -0.08541481
v 0.04710098 0.03329579 -0.09630412
v 0.02661485 0.00002198 -0.07665016
v 0.03547841 0.03509393 -0.08082850
v 0.04780871 0.03409374 -0.06056404
v 0.03997496 0.03494842 -0.08591404
v 0.00030887 0.03571321 -0.09869846
v 0.01945378 0.03499320 -0.05044242
v 0.02340063 0.03538069 -0.09648463
v 0.02209568 0.03499515 -0.05117462
v 0.01517050 0.03535806 -0.07565279
v 0.04195828 0.03478313 -0.05948841
v 0.04462420 0.03458892 -0.05929189
v 0.04064764 0.03490811 -0.08262194
v 0.03630750 0.03506951 -0.09423663
v 0.04996488 0.03285983 -0.08110936
v 0.04599544 0.03440334 -0.05572793
v 0.03694566 0.03506810 -0.09001731
v 0.03929446 0.03493372 -0.09187977
v 0.01781962 0.03523207 -0.06317815
v 0.02279826 0.03519578 -0.06848011
v 0.02795920 0.00315081 -0.09973961
v 0.04553755 0.03444032 -0.07133993
v 0.00001783 0.03547103 -0.06872264
v 0.01501355 0.03533528 -0.07205547
v 0.00016675 0.03544800 -0.06552982
v 0.04246484 0.03467887 -0.08522194
v 0.04194237 0.03474896 -0.05678383
v 0.02685792 0.03508248 -0.06254248
v 0.02514386 0.03534755 -0.09789849
v 0.03557123 0.03509783 -0.08158056
v 0.04566030 0.03435182 -0.07793480
v 0.03654946 0.03506232 -0.07952663
v 0.01541201 0.03532030 -0.07071138
v 0.02802340 0.00015460 -0.09658469
v 0.03118711 0.03486200 -0.05040909
v 0.02576776 0.03491989 -0.05010600
v 0.04430110 0.03463870 -0.06727501
v 0.04164496 0.00168913 -0.05006282
v 0.04556111 0.03428881 -0.08478111
v 0.03991666 0.00027115 -0.05161461
v 0.01451557 0.03526757 -0.06134947
v 0.04541187 0.03426232 -0.08677900
v 0.04251270 0.03465854 -0.05133764
v 0.04485799 0.03455792 -0.06852447
v 0.01163749 0.03530864 -0.06176199
v 0.04599355 0.03255247 -0.05026157
v 0.04603278 0.03424202 -0.08039452
v 0.02220691 0.03540921 -0.09835465
v 0.04064946 0.03470001 -0.09735495
v 0.04651389 0.03433678 -0.06405466
v 0.02797047 0.00119428 -0.09918571
v 0.04898977 0.03306917 -0.08536733
v 0.03525314 0.03512169 -0.08862028
v 0.03403387 0.03514278 -0.09494429
v 0.04297828 0.03431575 -0.09965136
v 0.04399316 0.03459268 -0.05499927
v 0.04534216 0.03453152 -0.05953324
v 0.04895446 0.03010985 -0.09975278
v 0.01776779 0.03548705 -0.09983496
v 0.03608901 0.03502101 -0.09930827
v 0.03348355 0.03515949 -0.09525384
v 0.01217995 0.03533629 -0.06671276
v 0.04402110 0.03447696 -0.08599118
v 0.02580548 0.03509560 -0.06208898
v 0.02855082 0.03504506 -0.06159231
v 0.04502716 0.03425107 -0.09015678
v 0.00047084 0.03528203 -0.05685671
v 0.01921334 0.03546299 -0.09944244
v 0.03131467 0.03520453 -0.09961261
v 0.03167343 0.03520455 -0.09353839
v 0.04999949 0.03228729 -0.09274867
v 0.03856516 0.03488713 -0.09907553
v 0.02626615 0.00008542 -0.09448303
v 0.04516199 0.03428899 -0.08778775
v 0.04058056 0.03491278 -0.08483773
v 0.01747710 0.03515942 -0.05714055
v 0.04188229 0.03481871 -0.06543820
v 0.04980838 0.03252337 -0.09094481
v 0.04957004 0.03266821 -0.09032320
v 0.04633042 0.03352555 -0.09730579
v 0.03458423 0.03512056 -0.09546422
v 0.03900343 0.03490178 -0.09585991
v 0.04352033 0.03458629 -0.05130070
v 0.03709283 0.03506819 -0.08864256
v 0.04226950 0.03471055 -0.05446393
v 0.00071829 0.03533581 -0.05861776
v 0.02605880 0.03532890 -0.09987871
v 0.04536416 0.03445766 -0.05456214
v 0.04540051 0.03452364 -0.05937264
v 0.04221910 0.03455839 -0.09412673
v 0.04169870 0.03289060 -0.05003694
v 0.04362578 0.03468967 -0.07009467
v 0.01987679 0.03505169 -0.05255558
v 0.04709332 0.03424477 -0.06277052
v 0.03792142 0.03500930 -0.09187087
v 0.01499948 0.03535594 -0.07500108
v 0.04987135 0.03318531 -0.07125110
v 0.04440735 0.03448527 -0.05015846
v 0.04968413 0.03347222 -0.05442643
v 0.04980897 0.03342837 -0.06341917
v 0.04730084 0.03308879 -0.09969866
v 0.04604904 0.03410311 -0.08518003
v 0.04866433 0.03380290 -0.05648568
v 0.00032831 0.00017678 -0.05035760
v 0.04979365 0.03119105 -0.06675619
v 0.04128155 0.03484121 -0.06561335
v 0.02808099 0.03503808 -0.06026145
v 0.03724714 0.03505284 -0.08427262
v 0.00007680 0.01045638 -0.05037412
v 0.03200403 0.03518578 -0.09889479
v 0.04126579 0.03483128 -0.06291585
v 0.04881614 0.03374680 -0.05536247
v 0.01475203 0.03551968 -0.09811448
v 0.03938411 0.03482695 -0.09914478
v 0.04940368 0.02995080 -0.09736934
v 0.04609038 0.03440062 -0.05754474
v 0.04713984 0.03422005 -0.05877268
v 0.03873923 0.03488792 -0.09821556
v 0.00594181 0.03536269 -0.06138933
v 0.03947589 0.03469655 -0.05050182
v 0.04792900 0.03395541 -0.05133344
v 0.04690128 0.03422883 -0.06781664
v 0.03055407 0.03513378 -0.07606959
v 0.00365651 0.03537782 -0.06088732
v 0.04503197 0.03432864 -0.08692065
v 0.04211668 0.03476407 -0.05834329
v 0.04334122 0.03448975 -0.09012521
v 0.00079639 0.00013873 -0.05032685
v 0.04607363 0.03439726 -0.06596770
v 0.04920819 0.03290978 -0.08747077
v 0.04420153 0.03464752 -0.06678373
v 0.01888472 0.03498186 -0.05029793
v 0.00482341 0.00012897 -0.05006234
v 0.04630569 0.03415783 -0.08025593
v 0.04829027 0.03391850 -0.06326150
v 0.03606313 0.03506214 -0.09596402
v 0.03228320 0.03518966 -0.09687571
v 0.04867090 0.03359435 -0.07159529
v 0.01663383 0.03522474 -0.06057571
v 0.04513510 0.03455800 -0.06000083
v 0.03840339 0.03501783 -0.08746042
v 0.03040872 0.03523241 -0.09998734
v 0.04919933 0.03284799 -0.08909665
v 0.04725922 0.03415963 -0.05391603
v 0.04943351 0.03300560 -0.08244967
v 0.03590337 0.03508815 -0.08095190
v 0.02903421 0.03506690 -0.06489407
v 0.04993081 0.03015897 -0.08943139
v 0.00651543 0.01061679 -0.05000320
v 0.04763916 0.03354429 -0.08527494
v 0.00032265 0.03504447 -0.05011672
v 0.04633636 0.03425989 -0.07490327
v 0.04687711 0.03414663 -0.07288855
v 0.03997012 0.03491728 -0.08977920
v 0.04169428 0.03478149 -0.05890112
v 0.04425613 0.03415985 -0.09850812
v 0.00338813 0.03568019 -0.09987874
v 0.03506093 0.03511912 -0.08490607
v 0.03071129 0.03521465 -0.08809129
v 0.04954258 0.03347546 -0.06505845
v 0.04556755 0.03449388 -0.05841401
v 0.03472790 0.03512114 -0.08315017
v 0.01688036 0.03524502 -0.06296575
v 0.01570539 0.03529166 -0.06719861
v 0.02904584 0.00006543 -0.05204586
v 0.04367208 0.03468693 -0.06305464
v 0.04536596 0.03438457 -0.07939034
v 0.04968988 0.03328318 -0.07008999
v 0.03443122 0.03513285 -0.08529346
v 0.01303816 0.03544537 -0.08408041
v 0.03213270 0.03518313 -0.08679624
v 0.02417154 0.03536377 -0.09568522
v 0.00056023 0.03542604 -0.06285550
v 0.04769951 0.03401377 -0.05068139
f 58 156 14
f 226 90 151
f 54 125 10
f 167 110 123
f 185 10 90
f 75 14 161
f 161 14 156
f 161 203 75
f 156 203 161
f 200 167 123
f 90 167 200
f 90 10 92
f 103 156 58
f 125 156 103
f 103 73 110
f 180 203 156
f 180 185 203
f 180 156 125
f 180 125 54
f 54 185 180
f 90 51 201
f 201 185 90
f 203 185 201
f 54 10 217
f 217 185 54
f 10 185 217
f 157 151 90
f 90 200 157
f 125 103 36
f 36 103 110
f 209 103 58
f 73 103 209
f 73 209 194
f 98 90 226
f 226 150 98
f 98 150 90
f 143 51 90
f 90 150 143
f 143 150 51
f 203 201 5
f 107 194 166
f 90 92 43
f 43 167 90
f 110 167 43
f 110 73 21
f 73 194 21
f 51 150 7
f 7 95 51
f 150 95 7
f 51 95 172
f 2 201 51
f 2 5 201
f 51 172 2
f 2 95 87
f 2 172 95
f 203 5 2
f 198 84 160
f 163 84 198
f 226 151 173
f 151 164 173
f 155 164 151
f 226 56 196
f 112 194 121
f 166 194 112
f 37 11 208
f 11 107 208
f 38 11 37
f 37 34 38
f 37 91 94
f 94 34 37
f 86 43 92
f 86 92 10
f 86 36 110
f 110 43 86
f 86 10 125
f 125 36 86
f 87 95 137
f 58 14 225
f 58 222 17
f 17 209 58
f 17 165 209
f 111 194 209
f 111 139 194
f 44 139 81
f 199 117 163
f 163 117 63
f 63 117 207
f 87 207 159
f 207 117 159
f 159 117 116
f 13 150 226
f 56 146 169
f 169 196 56
f 56 187 174
f 174 146 56
f 212 3 28
f 45 41 187
f 45 187 56
f 56 155 45
f 45 155 151
f 152 41 151
f 151 157 152
f 152 3 212
f 166 112 124
f 52 198 160
f 160 136 52
f 52 82 198
f 66 162 133
f 66 112 188
f 188 162 66
f 188 112 121
f 121 162 188
f 127 33 206
f 101 142 107
f 101 107 166
f 126 177 91
f 12 177 48
f 144 89 127
f 91 177 115
f 115 177 12
f 110 21 153
f 153 107 11
f 194 107 153
f 153 21 194
f 91 202 154
f 154 94 91
f 79 207 87
f 87 137 79
f 79 63 207
f 137 63 79
f 135 95 150
f 135 137 95
f 119 59 138
f 138 225 119
f 184 59 203
f 176 225 138
f 87 93 128
f 58 97 114
f 114 222 58
f 77 14 75
f 77 225 14
f 77 119 225
f 75 203 77
f 203 119 77
f 148 62 165
f 165 17 148
f 139 111 120
f 165 111 26
f 209 165 26
f 26 111 209
f 122 18 44
f 116 117 80
f 117 199 80
f 198 199 47
f 163 198 47
f 47 199 163
f 191 93 87
f 87 159 191
f 42 159 116
f 42 215 93
f 93 191 42
f 42 191 159
f 198 82 55
f 226 196 68
f 68 13 226
f 205 174 187
f 91 99 186
f 186 28 91
f 91 28 190
f 190 28 3
f 151 41 40
f 41 45 40
f 220 152 149
f 3 152 220
f 112 70 134
f 70 206 134
f 82 52 214
f 105 52 136
f 136 18 105
f 127 206 57
f 57 39 127
f 147 112 66
f 147 70 112
f 142 101 179
f 179 48 142
f 12 48 179
f 118 91 37
f 118 126 91
f 46 89 183
f 89 144 183
f 181 74 96
f 74 83 219
f 219 96 74
f 219 83 91
f 91 115 219
f 115 78 219
f 91 20 104
f 104 202 91
f 123 35 130
f 123 110 22
f 110 153 22
f 22 35 123
f 53 153 11
f 81 139 100
f 100 120 29
f 139 120 100
f 163 63 129
f 160 84 129
f 63 30 129
f 203 59 31
f 31 119 203
f 59 119 31
f 225 176 171
f 171 97 58
f 58 225 171
f 2 61 88
f 88 61 59
f 59 184 88
f 203 2 88
f 88 184 203
f 145 93 97
f 145 128 93
f 97 171 145
f 145 171 176
f 145 61 2
f 145 176 138
f 59 61 145
f 145 2 87
f 87 128 145
f 138 59 145
f 72 55 175
f 175 55 82
f 49 93 216
f 93 215 216
f 216 85 49
f 97 93 50
f 50 114 97
f 8 17 222
f 222 114 8
f 62 148 76
f 76 85 62
f 49 85 76
f 1 44 81
f 1 122 44
f 178 63 137
f 178 30 63
f 108 30 178
f 137 135 178
f 178 135 108
f 24 30 218
f 24 129 30
f 72 215 71
f 215 42 71
f 25 169 146
f 174 205 204
f 204 99 91
f 91 83 204
f 170 124 112
f 112 134 170
f 166 124 170
f 170 206 166
f 170 134 206
f 210 214 52
f 18 113 189
f 121 194 189
f 66 133 106
f 106 18 66
f 106 113 18
f 18 122 15
f 15 105 18
f 193 136 160
f 39 57 193
f 160 129 193
f 193 129 39
f 32 115 33
f 32 78 115
f 32 33 127
f 182 104 67
f 123 130 67
f 67 200 123
f 67 157 200
f 149 152 67
f 67 152 157
f 224 211 223
f 223 100 224
f 223 211 214
f 60 100 29
f 224 100 60
f 127 39 65
f 39 129 65
f 65 144 127
f 158 84 163
f 163 129 158
f 158 129 84
f 9 215 72
f 72 175 9
f 102 25 146
f 181 141 102
f 102 141 25
f 99 204 6
f 6 204 205
f 16 189 194
f 66 18 69
f 69 18 136
f 4 193 57
f 4 57 206
f 4 147 66
f 4 206 70
f 70 147 4
f 66 69 4
f 136 193 4
f 4 69 136
f 197 104 20
f 197 67 104
f 132 19 53
f 132 53 11
f 131 130 35
f 182 67 131
f 131 67 130
f 214 210 221
f 221 223 214
f 13 68 140
f 108 135 192
f 218 30 192
f 46 218 192
f 192 89 46
f 192 96 89
f 18 189 27
f 189 16 27
f 182 19 23
f 19 132 23
f 195 19 182
f 182 131 195
f 213 140 68
f 68 168 213
f 213 168 25
f 25 141 213
f 64 30 108
f 108 192 64
f 64 192 30
f 96 192 109
f 181 96 109
f 109 141 181
f 226 173 155
f 155 56 226
f 155 173 164
f 40 45 151
f 179 101 166
f 166 206 179
f 179 115 12
f 179 206 33
f 33 115 179
f 118 208 107
f 37 208 118
f 107 142 118
f 142 48 118
f 177 126 118
f 118 48 177
f 76 93 49
f 76 50 93
f 17 8 76
f 76 148 17
f 114 50 76
f 76 8 114
f 116 80 71
f 71 199 198
f 71 42 116
f 71 80 199
f 71 55 72
f 198 55 71
f 106 133 162
f 106 162 121
f 121 189 106
f 106 189 113
f 89 96 32
f 127 89 32
f 32 219 78
f 96 219 32
f 129 24 65
f 65 218 46
f 46 183 65
f 65 183 144
f 65 24 218
f 29 120 9
f 9 111 165
f 9 175 82
f 165 62 9
f 9 211 224
f 85 216 9
f 62 85 9
f 214 211 9
f 9 120 111
f 82 214 9
f 9 60 29
f 9 216 215
f 224 60 9
f 102 74 181
f 174 204 102
f 102 83 74
f 102 204 83
f 146 174 102
f 187 41 6
f 6 152 212
f 6 205 187
f 212 28 6
f 41 152 6
f 6 186 99
f 28 186 6
f 91 190 197
f 149 67 197
f 197 20 91
f 197 220 149
f 197 190 3
f 3 220 197
f 52 105 221
f 81 100 221
f 221 1 81
f 100 223 221
f 221 15 122
f 122 1 221
f 221 210 52
f 105 15 221
f 168 68 196
f 196 169 168
f 169 25 168
f 139 44 27
f 194 139 27
f 44 18 27
f 27 16 194
f 11 38 23
f 34 94 23
f 23 38 34
f 202 104 23
f 23 154 202
f 94 154 23
f 23 104 182
f 23 132 11
f 195 22 153
f 35 22 195
f 153 53 195
f 53 19 195
f 195 131 35
f 13 140 109
f 109 192 135
f 109 135 150
f 150 13 109
f 109 213 141
f 140 213 109

