# https://github.com/mikedh/trimesh
v 0.13270175 0.02252184 -0.02117565
v 0.13347743 0.02201754 -0.02218901
v 0.14185411 0.00636625 -0.02488114
v 0.13416942 0.02170536 -0.02414669
v 0.13964480 0.00632296 -0.01896267
v 0.14158306 0.00776398 -0.02377363
v 0.13410060 0.00361221 -0.01690357
v 0.13793396 0.00325576 -0.01789035
v 0.14052746 0.00830902 -0.01996961
v 0.13916135 0.01480896 -0.02442956
v 0.13189232 0.01846575 -0.01836902
v 0.13274632 0.01999534 -0.01945133
v 0.12956152 0.02022318 -0.01831243
v 0.14136167 0.00509468 -0.02010821
v 0.14236457 0.00010154 -0.02340397
v 0.13137475 0.02428448 -0.02497919
v 0.14055112 0.00573264 -0.01955979
v 0.12587294 0.00085384 -0.01473033
v 0.13655346 0.01270681 -0.01845266
v 0.12616216 0.00910444 -0.01517230
v 0.12715398 0.00032012 -0.01505747
v 0.13058071 0.02424514 -0.02118431
v 0.13849816 0.00640156 -0.01819525
v 0.13814150 0.00523325 -0.01802001
v 0.13328210 0.02252639 -0.02441756
v 0.14234262 0.00075929 -0.02413668
v 0.13063670 0.01729382 -0.01766894
v 0.13985438 0.01315297 -0.02292443
v 0.13140828 0.01249588 -0.01693613
v 0.14192734 0.00576209 -0.02449325
v 0.13583896 0.01919673 -0.02092110
v 0.12710769 0.01175400 -0.01571880
v 0.14034920 0.01188605 -0.02157531
v 0.13465311 0.01444184 -0.01810629
v 0.12568463 0.02171393 -0.01785429
v 0.14099245 0.00243833 -0.01963993
v 0.12693728 0.02494485 -0.01983616
v 0.13452455 0.02113334 -0.02284674
v 0.13519822 0.01701588 -0.01929771
v 0.13645262 0.00011675 -0.01746211
v 0.13554944 0.01910474 -0.02041427
v 0.13625672 0.00805264 -0.01770981
v 0.14003095 0.00402696 -0.01898312
v 0.13582568 0.01528605 -0.01895908
v 0.12757205 0.00966286 -0.01559338
v 0.13110385 0.02278444 -0.02013048
v 0.12616883 0.02466554 -0.01946303
v 0.13356398 0.02077806 -0.02017914
v 0.13037200 0.02460727 -0.02229622
v 0.13619811 0.01940209 -0.02464897
v 0.12618838 0.01830698 -0.01683989
v 0.14221758 0.00260948 -0.02129897
v 0.14215996 0.00333916 -0.02455225
v 0.13816466 0.00304390 -0.01794714
v 0.13729996 0.01690658 -0.02039795
v 0.13125760 0.01957519 -0.01862597
v 0.14094149 0.01006300 -0.02245482
v 0.13776711 0.01587418 -0.02026663
v 0.13275361 0.00676261 -0.01669694
v 0.12628337 0.01995512 -0.01737108
v 0.14141163 0.00845181 -0.02126749
v 0.13526017 0.00601574 -0.01730756
v 0.13726537 0.01800709 -0.02440540
v 0.13948038 0.00055463 -0.01840010
v 0.13795681 0.01595275 -0.02044194
v 0.12618654 0.00208639 -0.01482792
v 0.13922558 0.01365868 -0.02050850
v 0.13295231 0.01967656 -0.01938941
v 0.12863470 0.00290494 -0.01547435
v 0.12623588 0.02249043 -0.01834269
v 0.13937255 0.00477126 -0.01855363
v 0.13910610 0.01489213 -0.02415650
v 0.13611935 0.01942266 -0.02385934
v 0.13072439 0.01843359 -0.01799600
v 0.13883004 0.01370503 -0.02019757
v 0.14100271 0.00990321 -0.02449725
v 0.13037199 0.02456257 -0.02206086
v 0.13432503 0.02156734 -0.02415952
v 0.12533602 0.02260504 -0.01813638
v 0.13285001 0.01910603 -0.01907974
v 0.13906155 0.00042665 -0.01816666
v 0.13253362 0.02191388 -0.02029944
v 0.13570136 0.01983482 -0.02298747
v 0.13492611 0.01988476 -0.02046142
v 0.12547225 0.02038396 -0.01730553
v 0.13352281 0.02160031 -0.02075277
v 0.12715498 0.02499386 -0.01992609
v 0.12576186 0.01180285 -0.01538153
v 0.13033533 0.00311639 -0.01591844
v 0.12640806 0.02428042 -0.01932195
v 0.14235601 0.00037900 -0.02267555
v 0.13205202 0.01518923 -0.01757420
v 0.14042414 0.01161725 -0.02118444
v 0.12512266 0.01283071 -0.01540055
v 0.13919245 0.00696830 -0.01872965
v 0.12518040 0.02280650 -0.01818313
v 0.13511454 0.01516274 -0.01853091
v 0.12542785 0.00294656 -0.01464443
v 0.12540284 0.01338220 -0.01556884
v 0.13756057 0.01732236 -0.02221431
v 0.14194738 0.00339227 -0.02057588
v 0.12625097 0.00398152 -0.01488661
v 0.13420887 0.01263434 -0.01767439
v 0.13565017 0.01246330 -0.01802577
v 0.12567769 0.01671139 -0.01627602
v 0.14091781 0.00197604 -0.01956331
v 0.13754198 0.01768091 -0.02490561
v 0.12660663 0.01430490 -0.01601325
v 0.13978929 0.00684802 -0.01914603
v 0.13068283 0.02308372 -0.02012468
v 0.12668992 0.00977507 -0.01538027
v 0.13475498 0.01393193 -0.01803653
v 0.14117437 0.00300318 -0.01980444
v 0.13994368 0.01306708 -0.02407600
v 0.13759785 0.00588021 -0.01790712
v 0.13470082 0.01549458 -0.01844047
v 0.12766380 0.01774603 -0.01703041
v 0.13826912 0.01408448 -0.01995620
v 0.14078564 0.01047684 -0.02135572
v 0.12635203 0.01999253 -0.01739952
v 0.14037393 0.01194440 -0.02338357
v 0.13668567 0.01077448 -0.01807473
v 0.13358161 0.01912987 -0.01942487
v 0.13955550 0.01289411 -0.02046140
v 0.13605518 0.01945996 -0.02341793
v 0.13651896 0.00709720 -0.01769804
v 0.12511181 0.02362923 -0.01858806
v 0.13063226 0.00058870 -0.01595978
v 0.12879019 0.02076033 -0.01828592
v 0.12995918 0.02474500 -0.02151158
v 0.14093270 0.01016396 -0.02428964
v 0.13113751 0.01611947 -0.01753670
v 0.13073460 0.00962164 -0.01640275
v 0.13890693 0.01022616 -0.01923035
v 0.12880003 0.02141557 -0.01859540
v 0.14216440 0.00360350 -0.02209929
v 0.13558520 0.01945856 -0.02084520
v 0.14121820 0.00914802 -0.02219490
v 0.12914443 0.02210639 -0.01906959
v 0.13693047 0.01582269 -0.01975992
v 0.13330688 0.02215866 -0.02214764
v 0.13919499 0.00208252 -0.01827638
v 0.13245921 0.02221833 -0.02044816
v 0.13969748 0.01356646 -0.02357539
v 0.12746487 0.02143107 -0.01818937
v 0.12555365 0.01045692 -0.01517327
v 0.14203161 0.00509892 -0.02115271
v 0.12928225 0.02345355 -0.01981123
v 0.12541783 0.00636629 -0.01477366
v 0.13373838 0.02157355 -0.02096815
v 0.13792304 0.01628494 -0.02060936
v 0.13407939 0.02151881 -0.02239038
v 0.13169205 0.01773498 -0.01804792
v 0.12828083 0.02014406 -0.01792122
v 0.13915006 0.01445491 -0.02138911
v 0.13998239 0.01245096 -0.02080626
v 0.13099055 0.01224446 -0.01678894
v 0.13473390 0.01701151 -0.01905409
v 0.13321405 0.02003449 -0.01967034
v 0.14179887 0.00013691 -0.02017543
v 0.13638650 0.01760055 -0.02015401
v 0.13532647 0.01411228 -0.01826115
v 0.13987306 0.01131059 -0.02015324
v 0.13659902 0.01008368 -0.01797123
v 0.13237491 0.02254391 -0.02075442
v 0.14202937 0.00462490 -0.02491396
v 0.13044224 0.01967916 -0.01837321
v 0.12605560 0.01929163 -0.01711056
v 0.12639790 0.02120461 -0.01783454
v 0.12548297 0.01720656 -0.01634416
v 0.13860700 0.00329749 -0.01807142
v 0.13448427 0.01969619 -0.02012171
v 0.13234706 0.01519308 -0.01764973
v 0.14180632 0.00667142 -0.02443991
v 0.13305304 0.02144645 -0.02029020
v 0.13783146 0.01691016 -0.02201866
v 0.14186326 0.00621521 -0.02125243
v 0.14059346 0.01107138 -0.02111016
v 0.13984773 0.00446490 -0.01887630
v 0.13804181 0.01014604 -0.01860294
v 0.13829335 0.00826545 -0.01837974
v 0.13827534 0.01093848 -0.01897788
v 0.13128477 0.02385884 -0.02188844
v 0.13015913 0.01886707 -0.01799035
v 0.13310150 0.01687481 -0.01825870
v 0.13876501 0.01558555 -0.02480567
v 0.13698141 0.00678576 -0.01779616
v 0.12953074 0.00018301 -0.01568466
v 0.12598491 0.00355725 -0.01480106
v 0.14066527 0.00244277 -0.01938904
v 0.13875198 0.01533503 -0.02168192
v 0.13716757 0.00019741 -0.01764793
v 0.12775514 0.02222033 -0.01867570
v 0.13968272 0.01337040 -0.02174681
v 0.14210531 0.00001517 -0.02045532
v 0.12900666 0.02443455 -0.02023438
v 0.13304286 0.01803933 -0.01867971
v 0.13776357 0.00063733 -0.01780874
v 0.13886822 0.00925215 -0.01899186
v 0.13806866 0.01670165 -0.02384452
v 0.13798828 0.00389107 -0.01792243
v 0.14175401 0.00700804 -0.02491880
v 0.12917302 0.00338336 -0.01562294
v 0.13755650 0.01132006 -0.01863416
v 0.13973929 0.01315532 -0.02100289
v 0.13022337 0.02428430 -0.02072573
v 0.14189149 0.00337980 -0.02042339
v 0.14064869 0.01111145 -0.02395929
v 0.14222414 0.00273602 -0.02361616
v 0.13175514 0.01938549 -0.01873478
v 0.13279509 0.02201517 -0.02051598
v 0.13253564 0.02308834 -0.02379432
v 0.12538326 0.00694650 -0.01480722
v 0.13821921 0.00764496 -0.01825527
v 0.14018038 0.00428281 -0.01911139
v 0.12500952 0.00125623 -0.01451089
v 0.13705099 0.00981241 -0.01807594
v 0.14119456 0.00746030 -0.02028420
v 0.14176327 0.00413219 -0.02030955
v 0.14126691 0.00893806 -0.02411029
v 0.13542709 0.00034423 -0.01719878
v 0.14173939 0.00695484 -0.02180272
v 0.14208102 0.00474226 -0.02144949
v 0.13849323 0.00729535 -0.01832389
v 0.14042442 0.01180692 -0.02369447
v 0.14158266 0.00774653 -0.02327909
f 216 16 26
f 87 16 37
f 16 47 37
f 21 26 15
f 216 26 18
f 26 21 18
f 213 94 216
f 130 16 87
f 166 26 16
f 81 195 160
f 160 195 219
f 192 195 81
f 40 195 192
f 188 40 21
f 188 195 40
f 188 21 15
f 15 195 188
f 15 26 91
f 91 195 15
f 206 130 87
f 16 50 107
f 78 50 16
f 216 94 127
f 127 16 216
f 127 47 16
f 87 37 127
f 127 37 47
f 142 171 81
f 23 24 171
f 171 142 23
f 23 142 71
f 115 24 23
f 163 199 9
f 81 171 198
f 198 192 81
f 40 192 128
f 128 192 221
f 128 221 216
f 216 18 128
f 219 195 207
f 195 101 207
f 16 130 49
f 49 183 16
f 175 84 211
f 130 206 22
f 183 49 22
f 22 1 183
f 22 206 150
f 150 1 22
f 196 206 87
f 202 107 186
f 186 76 202
f 202 166 16
f 16 107 202
f 26 166 53
f 195 91 52
f 94 99 105
f 105 170 94
f 94 170 96
f 96 127 94
f 96 170 85
f 81 160 64
f 64 142 81
f 115 23 187
f 149 213 216
f 216 98 149
f 149 24 115
f 189 149 98
f 146 20 111
f 94 213 146
f 213 20 146
f 171 8 54
f 54 198 171
f 134 199 163
f 151 205 155
f 186 107 200
f 124 75 163
f 114 76 186
f 150 206 165
f 206 211 165
f 86 84 150
f 86 211 84
f 150 165 86
f 86 165 211
f 77 49 130
f 130 22 77
f 77 22 49
f 143 211 206
f 175 211 143
f 26 53 209
f 84 41 137
f 150 84 137
f 137 31 150
f 151 31 137
f 151 137 55
f 55 137 41
f 176 31 151
f 176 100 31
f 107 100 176
f 176 200 107
f 150 152 2
f 2 1 150
f 25 78 16
f 78 152 38
f 150 31 38
f 38 152 150
f 31 100 83
f 83 38 31
f 78 38 83
f 63 100 107
f 63 107 50
f 50 73 63
f 71 142 179
f 179 17 71
f 106 64 160
f 142 64 43
f 43 179 142
f 59 20 213
f 213 149 59
f 115 187 59
f 17 179 14
f 71 17 5
f 66 98 216
f 66 69 98
f 89 69 8
f 98 69 89
f 201 8 171
f 171 24 201
f 24 149 201
f 94 146 88
f 88 111 32
f 88 146 111
f 32 111 45
f 45 133 32
f 111 20 45
f 20 133 45
f 186 200 191
f 200 176 191
f 191 176 151
f 151 155 191
f 67 205 151
f 75 124 67
f 10 114 186
f 218 14 219
f 163 9 218
f 17 14 218
f 218 5 17
f 140 55 161
f 161 55 41
f 1 2 141
f 141 2 16
f 4 152 78
f 78 25 4
f 16 2 212
f 212 25 16
f 125 83 100
f 100 63 125
f 125 63 73
f 78 83 125
f 50 78 125
f 125 73 50
f 108 105 99
f 108 99 94
f 94 88 108
f 32 133 122
f 87 127 90
f 127 96 90
f 113 160 219
f 219 43 113
f 215 43 219
f 179 43 215
f 126 133 20
f 126 42 133
f 20 59 126
f 126 59 187
f 62 149 115
f 115 59 62
f 62 59 149
f 95 9 199
f 95 218 9
f 95 23 71
f 71 5 95
f 7 89 8
f 8 201 7
f 7 201 149
f 112 108 103
f 205 67 156
f 156 67 124
f 156 124 163
f 163 218 156
f 186 191 72
f 72 10 186
f 58 55 140
f 58 118 75
f 35 96 85
f 85 169 35
f 46 143 206
f 220 202 76
f 220 6 202
f 61 6 220
f 226 6 61
f 114 10 144
f 144 28 114
f 194 155 205
f 205 28 194
f 76 114 208
f 3 30 166
f 166 202 3
f 61 218 177
f 173 108 112
f 164 122 133
f 133 42 164
f 164 126 187
f 42 126 164
f 163 75 182
f 36 106 160
f 160 113 36
f 64 106 36
f 190 43 64
f 190 113 43
f 64 36 190
f 190 36 113
f 224 95 181
f 23 95 224
f 181 214 224
f 214 23 224
f 5 218 109
f 109 95 5
f 218 95 109
f 203 7 189
f 89 7 203
f 149 189 102
f 102 7 149
f 189 7 102
f 157 88 32
f 32 122 157
f 112 103 104
f 104 157 122
f 103 157 104
f 29 108 88
f 29 103 108
f 88 157 29
f 29 157 103
f 205 156 93
f 151 55 65
f 55 58 65
f 65 67 151
f 75 67 65
f 65 58 75
f 87 90 193
f 148 135 139
f 148 193 135
f 148 196 87
f 87 193 148
f 175 143 82
f 143 46 82
f 46 210 82
f 76 208 131
f 114 121 225
f 225 208 114
f 222 177 202
f 222 226 61
f 61 177 222
f 174 3 202
f 202 177 174
f 30 3 223
f 136 209 223
f 223 52 136
f 223 209 53
f 105 108 92
f 92 173 105
f 108 173 92
f 170 105 27
f 34 173 112
f 153 173 34
f 112 104 34
f 217 187 23
f 217 164 187
f 122 164 217
f 217 23 214
f 217 214 181
f 181 122 217
f 180 122 181
f 181 95 180
f 180 95 199
f 199 134 180
f 180 134 163
f 163 182 180
f 153 74 117
f 170 27 117
f 117 27 153
f 154 169 85
f 11 74 153
f 204 180 182
f 75 118 204
f 204 182 75
f 178 93 156
f 178 218 61
f 178 156 218
f 33 121 114
f 114 28 33
f 33 28 205
f 205 93 33
f 96 35 79
f 70 90 96
f 70 193 90
f 110 148 139
f 135 46 110
f 139 135 110
f 196 148 110
f 206 196 110
f 110 46 206
f 147 223 3
f 52 223 147
f 219 207 147
f 147 207 101
f 147 218 219
f 147 177 218
f 147 101 195
f 195 52 147
f 161 116 97
f 132 173 153
f 153 27 132
f 105 173 132
f 132 27 105
f 170 117 51
f 85 170 51
f 51 168 85
f 120 154 85
f 169 154 145
f 145 35 169
f 145 79 35
f 96 79 145
f 135 193 145
f 193 70 145
f 145 70 96
f 56 46 135
f 56 11 210
f 56 210 46
f 135 145 129
f 129 145 154
f 185 11 153
f 153 34 185
f 185 34 116
f 19 204 118
f 118 58 19
f 19 58 140
f 122 180 19
f 180 204 19
f 85 168 60
f 60 120 85
f 184 129 154
f 74 11 167
f 11 56 167
f 167 56 135
f 135 129 167
f 11 185 197
f 197 185 116
f 48 84 175
f 210 11 80
f 11 197 80
f 80 197 159
f 162 19 140
f 162 97 116
f 116 34 162
f 162 34 104
f 162 104 122
f 122 19 162
f 208 57 138
f 138 57 61
f 138 131 208
f 119 178 61
f 61 57 119
f 74 167 13
f 13 167 129
f 13 184 74
f 129 184 13
f 159 197 123
f 123 48 159
f 158 197 116
f 158 123 197
f 210 159 12
f 159 48 12
f 68 159 210
f 210 80 68
f 68 80 159
f 44 162 140
f 97 162 44
f 140 161 44
f 161 97 44
f 48 123 172
f 84 48 172
f 123 158 172
f 172 41 84
f 172 158 161
f 172 161 41
f 39 116 161
f 161 158 39
f 39 158 116
f 128 18 21
f 21 40 128
f 209 52 91
f 209 91 26
f 136 52 209
f 216 221 66
f 66 54 8
f 221 192 66
f 192 198 66
f 8 69 66
f 198 54 66
f 16 183 141
f 183 1 141
f 152 4 212
f 212 2 152
f 212 4 25
f 215 14 179
f 219 14 215
f 194 144 10
f 194 191 155
f 194 72 191
f 10 72 194
f 28 144 194
f 98 89 203
f 203 189 98
f 202 6 222
f 6 226 222
f 166 30 223
f 223 53 166
f 147 174 177
f 3 174 147
f 184 60 168
f 168 51 184
f 184 117 74
f 184 51 117
f 154 120 184
f 120 60 184
f 61 220 138
f 138 220 76
f 76 131 138
f 208 225 119
f 121 33 119
f 119 33 93
f 119 225 121
f 119 57 208
f 93 178 119
f 12 82 210
f 175 82 12
f 12 48 175

