# https://github.com/mikedh/trimesh
v 0.07092688 -0.00173603 -0.02528276
v 0.07479905 -0.01075785 -0.03129680
v 0.07127909 -0.00040022 -0.02526876
v 0.05026199 -0.01126464 -0.03105098
v 0.05031978 -0.00305361 -0.03799124
v 0.07158734 -0.00007034 -0.02530918
v 0.05736676 -0.01189527 -0.02506919
v 0.07454374 -0.00364560 -0.03867946
v 0.05184822 -0.00491914 -0.03761458
v 0.07489778 -0.01064587 -0.03502842
v 0.05762676 -0.00001170 -0.03713990
v 0.05186335 -0.00112592 -0.03826703
v 0.07440624 -0.00927000 -0.03717957
v 0.05295221 -0.00006097 -0.03827757
v 0.07220888 -0.00114406 -0.02541698
v 0.07451186 -0.00013569 -0.02575931
v 0.05064385 -0.00722960 -0.03650199
v 0.05094421 -0.00214313 -0.03813933
v 0.06373868 -0.01090870 -0.02502173
v 0.07424572 -0.00809563 -0.03776877
v 0.05128692 -0.00271857 -0.03810601
v 0.05238865 -0.00186702 -0.03823225
v 0.07488601 -0.00760690 -0.02667689
v 0.06508425 -0.00013078 -0.02512022
v 0.05291400 -0.00297525 -0.03814545
v 0.05062701 -0.00483331 -0.03757451
v 0.05190279 -0.00009198 -0.03827318
v 0.06410849 -0.00110864 -0.02502260
v 0.07453473 -0.00667767 -0.02637928
v 0.05033657 -0.00933340 -0.03464670
v 0.05010456 -0.01175069 -0.02899075
v 0.05035125 -0.00089181 -0.03820361
v 0.07486794 -0.01056295 -0.03538706
v 0.05031577 -0.00257046 -0.03807236
v 0.06423121 -0.00085834 -0.02502340
v 0.07241927 -0.00031186 -0.02542680
v 0.05232545 -0.00464121 -0.03773895
v 0.07490141 -0.01032022 -0.02905712
v 0.07442689 -0.00966232 -0.03683485
v 0.05202613 -0.00412144 -0.03786291
v 0.07126617 -0.00141689 -0.02530410
v 0.07472653 -0.00393014 -0.02596671
v 0.07463569 -0.00600026 -0.03838256
v 0.07269416 -0.00058103 -0.02546705
v 0.05008099 -0.00430344 -0.03772360
v 0.07476447 -0.01075726 -0.03427262
v 0.07463774 -0.00970993 -0.02800354
v 0.07480668 -0.00571585 -0.02621872
v 0.05208464 -0.00488479 -0.03764013
v 0.05018119 -0.00219859 -0.03809790
v 0.05025689 -0.01073718 -0.03240773
v 0.05842295 -0.00000069 -0.03580813
v 0.05338190 -0.00209641 -0.03824595
v 0.05297597 -0.00350634 -0.03803931
v 0.05010054 -0.00800044 -0.03592499
v 0.06872839 -0.00002075 -0.02562676
v 0.05021254 -0.01083968 -0.03215905
v 0.07408036 -0.00068914 -0.03872661
v 0.07131504 -0.00096035 -0.02528859
v 0.05017724 -0.00419101 -0.03775179
v 0.06214937 -0.01159565 -0.02509933
v 0.05079372 -0.00333764 -0.03795878
v 0.05313926 -0.00259045 -0.03820143
v 0.07492566 -0.01034320 -0.03603119
v 0.07492533 -0.01053059 -0.02973065
v 0.05350497 -0.00453035 -0.03783564
v 0.05000412 -0.00098980 -0.03818615
v 0.07461659 -0.00111831 -0.03880641
v 0.07270624 -0.00130939 -0.02549199
v 0.05029178 -0.00837874 -0.03562941
v 0.07213289 -0.00001271 -0.03845035
v 0.05006853 -0.01197784 -0.02765812
v 0.05331937 -0.01206650 -0.02521657
v 0.07461172 -0.00939670 -0.02765415
v 0.07460608 -0.00521347 -0.03851185
v 0.06471391 -0.00026368 -0.02506819
v 0.05572894 -0.01198869 -0.02504097
v 0.07456519 -0.00893232 -0.03744624
v 0.05199230 -0.00134720 -0.03825770
v 0.05058796 -0.00909149 -0.03494359
v 0.05041135 -0.01202268 -0.02730337
v 0.05052910 -0.00680407 -0.03675343
v 0.06379324 -0.00901329 -0.02500483
v 0.07133100 -0.00058340 -0.02527923
v 0.05036446 -0.00154515 -0.03816188
v 0.05088041 -0.01018929 -0.03345953
v 0.05019272 -0.01123175 -0.03113747
v 0.05189427 -0.00053064 -0.03827997
v 0.05070053 -0.01155026 -0.02992143
v 0.05058747 -0.00596246 -0.03717578
v 0.05170320 -0.00519802 -0.03750833
v 0.05064536 -0.01047332 -0.03294850
v 0.07253879 -0.00124130 -0.02546579
v 0.05064145 -0.00864961 -0.03540464
v 0.07451198 -0.00643031 -0.02631781
v 0.07434759 -0.00084688 -0.02569964
v 0.05071270 -0.01215862 -0.02542635
v 0.07480334 -0.00193159 -0.03882917
v 0.05228999 -0.00274930 -0.03815132
v 0.05030870 -0.01210977 -0.02666409
v 0.07449275 -0.00055164 -0.02573518
v 0.07469305 -0.00189888 -0.02580315
v 0.05044396 -0.00767377 -0.03619791
v 0.07172091 -0.00006670 -0.02532826
f 67 97 76
f 83 77 19
f 19 77 61
f 19 3 83
f 97 77 73
f 83 3 35
f 35 3 76
f 35 73 77
f 35 76 97
f 97 73 35
f 16 58 71
f 58 14 71
f 67 76 27
f 27 14 58
f 68 58 16
f 16 98 68
f 68 27 58
f 98 27 68
f 102 98 16
f 64 30 39
f 55 72 67
f 86 30 64
f 57 51 64
f 30 51 57
f 57 55 30
f 100 97 67
f 67 72 100
f 100 77 97
f 28 77 83
f 83 35 28
f 28 35 77
f 61 77 7
f 74 19 61
f 88 27 98
f 76 3 6
f 14 56 52
f 52 56 71
f 42 19 48
f 48 102 42
f 42 102 19
f 43 98 64
f 101 102 16
f 102 101 96
f 80 39 30
f 13 39 70
f 70 55 13
f 30 55 70
f 70 80 30
f 92 51 30
f 30 86 92
f 64 51 92
f 92 86 64
f 64 4 87
f 87 57 64
f 77 100 46
f 46 7 77
f 46 2 61
f 61 7 46
f 67 27 32
f 32 88 67
f 27 88 32
f 76 6 24
f 24 6 56
f 24 27 76
f 14 27 24
f 24 56 14
f 71 56 104
f 56 6 104
f 16 71 104
f 104 101 16
f 104 96 101
f 104 6 36
f 36 96 104
f 11 71 14
f 14 52 11
f 11 52 71
f 19 102 1
f 102 41 1
f 41 59 1
f 3 19 1
f 1 59 3
f 98 43 75
f 75 43 25
f 78 43 64
f 64 39 78
f 78 39 13
f 78 82 90
f 13 55 78
f 3 96 44
f 44 96 36
f 44 6 3
f 36 6 44
f 69 41 102
f 102 96 69
f 39 80 94
f 94 70 39
f 80 70 94
f 55 57 31
f 57 87 31
f 72 55 31
f 31 87 4
f 4 89 31
f 81 100 72
f 72 46 81
f 81 46 100
f 74 38 23
f 48 29 23
f 23 102 48
f 98 102 23
f 64 98 23
f 23 29 19
f 19 74 23
f 47 74 61
f 61 38 47
f 47 38 74
f 63 75 25
f 12 88 98
f 98 79 12
f 67 88 12
f 12 79 67
f 84 96 3
f 3 59 84
f 84 59 96
f 67 79 85
f 55 82 103
f 103 78 55
f 25 43 54
f 43 66 54
f 66 40 54
f 20 78 90
f 43 78 20
f 20 66 43
f 96 59 15
f 10 46 72
f 72 31 10
f 10 31 89
f 2 46 10
f 48 19 95
f 95 29 48
f 19 29 95
f 64 23 65
f 65 23 38
f 65 10 64
f 2 10 65
f 61 2 65
f 65 38 61
f 53 79 98
f 98 63 53
f 98 75 8
f 8 63 98
f 75 63 8
f 99 63 25
f 25 60 62
f 62 5 25
f 60 5 62
f 50 85 79
f 67 85 50
f 82 78 17
f 17 103 82
f 78 103 17
f 45 40 66
f 90 82 45
f 45 82 55
f 45 55 67
f 67 50 45
f 45 5 60
f 34 5 45
f 45 50 34
f 93 69 96
f 96 15 93
f 41 69 93
f 33 89 4
f 33 10 89
f 33 4 64
f 64 10 33
f 79 53 22
f 22 53 63
f 63 99 22
f 21 5 34
f 25 5 21
f 21 99 25
f 66 20 37
f 37 45 66
f 34 50 18
f 18 50 79
f 79 22 18
f 90 45 26
f 45 37 26
f 91 20 90
f 90 26 91
f 26 9 91
f 49 37 20
f 20 91 49
f 49 91 9
f 25 54 45
f 45 60 25
f 45 54 40
f 93 15 59
f 93 59 41
f 18 22 99
f 18 21 34
f 99 21 18
f 49 9 26
f 49 26 37

