# https://github.com/mikedh/trimesh
v 0.03769351 -0.00850344 0.02273124
v 0.03834222 -0.00968867 0.02278824
v 0.03347073 -0.02415313 0.00953343
v 0.04302956 -0.02485992 0.00436539
v 0.03772509 -0.00798285 0.02277874
v 0.04552693 -0.02180511 0.00972560
v 0.04990475 -0.02312629 0.00504806
v 0.03844741 -0.00229168 0.02324481
v 0.04520627 -0.02192717 0.00961346
v 0.03880749 -0.00159229 0.02337396
v 0.03949725 -0.01355813 0.02060523
v 0.04847881 -0.02472270 0.00230102
v 0.04211470 -0.02130450 0.01215840
v 0.03252110 -0.02468865 0.00847599
v 0.04099241 -0.02405427 0.00702674
v 0.03191701 -0.02315969 0.01223550
v 0.04975347 -0.01974314 0.01057032
v 0.03974353 -0.00624306 0.02292771
v 0.03323701 -0.02420422 0.00947565
v 0.03255251 -0.02293831 0.01251559
v 0.04023475 -0.00898421 0.02194027
v 0.03807681 -0.01958698 0.01653901
v 0.03748956 -0.00551792 0.02284314
v 0.02913061 -0.02496504 0.00027085
v 0.03534357 -0.01355384 0.02086918
v 0.02500586 -0.02201541 0.01073773
v 0.04996908 -0.01143337 0.01462835
v 0.03339400 -0.02383885 0.01032017
v 0.04002672 -0.00371255 0.02315418
v 0.02631281 -0.02444574 0.00239311
v 0.04470860 -0.00002579 0.01665960
v 0.03224654 -0.02478319 0.00004599
v 0.03880925 -0.00060402 0.02338685
v 0.03721995 -0.00244572 0.02284360
v 0.04972580 -0.02231650 0.00002453
v 0.02580722 -0.02386614 0.01065515
v 0.03838228 -0.02008801 0.01577810
v 0.03505430 -0.02169868 0.01421335
v 0.04999590 -0.02221965 0.00012362
v 0.04074854 -0.01748040 0.01739426
v 0.03023929 -0.02376713 0.01131259
v 0.03935747 -0.00012203 0.02355349
v 0.03146514 -0.02352360 0.01157166
v 0.03950367 -0.00414863 0.02340761
v 0.04210345 -0.02407498 0.00652764
v 0.03880439 -0.01965003 0.01626593
v 0.03841489 -0.00074941 0.02325955
v 0.03776340 -0.01041555 0.02259011
v 0.03728700 -0.00657047 0.02272224
v 0.03915733 -0.02482785 0.00590192
v 0.03911106 -0.00206324 0.02345881
v 0.03162353 -0.02490327 0.00820694
v 0.03234604 -0.02339756 0.01160491
v 0.04462447 -0.02221505 0.00927256
v 0.03943996 -0.00154868 0.02352380
v 0.02540466 -0.02401134 0.00379801
v 0.04908245 -0.02464956 0.00222744
v 0.04920671 -0.00022897 0.01668370
v 0.04994097 -0.02442295 0.00236824
v 0.04027093 -0.01908687 0.01625595
v 0.04890647 -0.01002825 0.01577928
v 0.04088157 -0.01643337 0.01802892
v 0.02596028 -0.02469229 0.00990819
v 0.04951143 -0.02235924 0.00683266
v 0.03430087 -0.02345414 0.01087501
v 0.02863816 -0.02468997 0.00953274
v 0.04015378 -0.01029891 0.02155460
v 0.03630344 -0.02405684 0.00882965
v 0.03745698 -0.00476297 0.02286300
v 0.04453567 -0.02148016 0.01077189
v 0.03338184 -0.02370796 0.01063427
v 0.03931422 -0.00157811 0.02351160
v 0.03516011 -0.02495718 0.00689963
v 0.03728937 -0.00015503 0.02290260
v 0.04758563 -0.01988240 0.01152563
v 0.03814967 -0.01171710 0.02232788
v 0.04860426 -0.00003224 0.01398217
v 0.03590698 -0.01106009 0.02193117
v 0.03737210 -0.01086040 0.02241986
v 0.02999289 -0.02342324 0.01195017
v 0.04817616 -0.02301975 0.00605066
v 0.04891541 -0.02183839 0.00804003
v 0.02803826 -0.02478770 0.00945641
v 0.04990657 -0.01133063 0.01470367
v 0.03239509 -0.02408203 0.01000078
v 0.03855945 -0.00811191 0.02300950
v 0.03883397 -0.01994749 0.01579433
v 0.02614590 -0.02493821 0.00955056
v 0.03415215 -0.02166327 0.01429828
v 0.03012114 -0.02335481 0.01203777
v 0.04274504 -0.02357044 0.00001854
v 0.04532027 -0.02164128 0.01015245
v 0.04974575 -0.00249082 0.01317960
v 0.03993683 -0.00133141 0.02337011
v 0.03904559 -0.00522557 0.02331968
v 0.03631330 -0.00912404 0.02224234
v 0.04938301 -0.00199981 0.01651733
v 0.02526721 -0.02253462 0.00786564
v 0.03404813 -0.02317789 0.01156324
v 0.04931419 -0.01481265 0.01383965
v 0.03590780 -0.01191787 0.02182315
v 0.03956905 -0.00579916 0.02313182
v 0.02930916 -0.02395589 0.01110591
v 0.03973404 -0.02129215 0.01315414
v 0.04185804 -0.02444748 0.00585452
v 0.03717437 -0.00190263 0.02282475
v 0.04999310 -0.01740135 0.01210501
v 0.02623137 -0.02444334 0.01022055
v 0.04229110 -0.02379020 0.00703484
v 0.03775365 -0.00001147 0.02305385
v 0.03813590 -0.00232940 0.02314363
v 0.04179925 -0.02448564 0.00579943
v 0.03725810 -0.01316071 0.02184318
v 0.04004169 -0.00436926 0.02306801
v 0.02751986 -0.02489977 0.00083326
v 0.03919470 -0.01517510 0.01984792
v 0.02796095 -0.02458356 0.00996684
v 0.04080581 -0.02447267 0.00624897
v 0.04941364 -0.00695230 0.01605678
v 0.04916570 -0.00647119 0.01629940
v 0.04473078 -0.02491658 0.00353520
v 0.03793193 -0.00007822 0.02059236
v 0.03368853 -0.02378000 0.01038321
v 0.04915282 -0.02058362 0.00975097
v 0.03887001 -0.00359269 0.02334517
v 0.04866378 -0.00418407 0.01690075
v 0.03334030 -0.02237019 0.01341482
v 0.03598458 -0.02134618 0.01454198
v 0.04652818 -0.02154961 0.00968184
v 0.03675096 -0.00808713 0.02246177
v 0.02869178 -0.02419103 0.01070886
v 0.04035292 -0.00410466 0.02289383
v 0.03199289 -0.02349976 0.01149077
v 0.03603746 -0.01343262 0.02128398
v 0.03333418 -0.02411367 0.00967017
v 0.03956886 -0.00807017 0.02266943
v 0.03452690 -0.02197055 0.01387651
v 0.03966424 -0.00212037 0.02347616
v 0.03983075 -0.00013860 0.02348999
v 0.03808215 -0.01203121 0.02224565
v 0.03554236 -0.02377645 0.00972038
v 0.04157993 -0.02127874 0.01242985
v 0.03709404 -0.02495116 0.00626565
v 0.04975159 -0.02093656 0.00893731
v 0.03755420 -0.00341598 0.02293652
v 0.03832842 -0.01581198 0.01971488
v 0.03777400 -0.00826566 0.02277543
v 0.04213058 -0.02418482 0.00628840
v 0.04765320 -0.01979262 0.01161565
v 0.03763516 -0.00255630 0.02297701
v 0.04621533 -0.02150507 0.00990656
v 0.03875461 -0.00742594 0.02310370
v 0.04973495 -0.01104918 0.01491024
v 0.03628944 -0.01192470 0.02194335
v 0.04309941 -0.02485695 0.00434504
v 0.04051069 -0.02455121 0.00614729
v 0.03700890 -0.00730447 0.02259300
v 0.03968048 -0.00825965 0.02253678
v 0.04945821 -0.00091373 0.01650403
f 98 56 26
f 115 77 24
f 35 77 39
f 39 77 93
f 74 98 26
f 26 78 74
f 110 74 47
f 146 116 113
f 40 116 146
f 91 35 57
f 32 35 91
f 91 57 32
f 24 77 32
f 77 35 32
f 115 30 122
f 122 30 56
f 77 115 122
f 56 98 122
f 98 74 122
f 122 74 110
f 101 78 26
f 26 25 101
f 59 35 39
f 59 57 35
f 39 93 27
f 110 77 31
f 31 122 110
f 77 122 31
f 113 101 134
f 134 101 25
f 79 48 78
f 113 48 79
f 57 59 121
f 36 25 26
f 36 134 25
f 113 134 36
f 107 59 39
f 39 27 107
f 58 93 77
f 78 48 96
f 96 147 130
f 96 74 78
f 96 106 74
f 110 47 33
f 78 101 154
f 154 79 78
f 154 101 113
f 113 79 154
f 12 121 24
f 57 121 12
f 24 32 12
f 12 32 57
f 17 124 144
f 17 107 40
f 62 116 40
f 40 107 62
f 62 107 116
f 100 107 27
f 114 119 132
f 93 58 159
f 159 27 93
f 159 119 27
f 97 119 159
f 74 106 34
f 69 145 34
f 34 130 69
f 106 96 34
f 34 96 130
f 48 147 1
f 1 96 48
f 147 96 1
f 139 77 110
f 139 58 77
f 139 159 58
f 110 33 42
f 42 139 110
f 49 23 157
f 69 130 157
f 157 23 69
f 24 121 143
f 143 73 24
f 124 17 149
f 114 44 102
f 44 152 102
f 102 152 136
f 102 119 114
f 145 111 150
f 150 34 145
f 86 147 48
f 95 86 152
f 95 152 44
f 29 44 114
f 114 132 29
f 132 126 29
f 44 29 138
f 73 143 50
f 88 115 24
f 88 30 115
f 24 73 88
f 88 73 52
f 56 30 88
f 63 36 26
f 26 56 63
f 56 88 63
f 119 61 153
f 119 102 18
f 18 102 136
f 18 61 119
f 136 61 18
f 67 100 27
f 67 76 100
f 113 116 140
f 140 48 113
f 140 76 48
f 100 76 140
f 136 152 2
f 2 76 136
f 152 86 2
f 48 76 2
f 2 86 48
f 120 132 119
f 120 126 132
f 120 119 97
f 97 126 120
f 5 95 23
f 5 23 49
f 147 86 5
f 86 95 5
f 49 157 5
f 130 147 5
f 5 157 130
f 69 23 125
f 23 95 125
f 125 145 69
f 55 95 44
f 44 138 55
f 139 42 55
f 55 138 139
f 139 138 94
f 94 138 29
f 97 159 94
f 159 139 94
f 94 126 97
f 94 29 126
f 144 82 64
f 124 46 151
f 144 124 151
f 124 149 75
f 75 46 124
f 149 46 75
f 60 46 149
f 60 149 17
f 60 17 40
f 40 146 60
f 146 46 60
f 4 143 121
f 4 50 143
f 27 119 84
f 119 153 84
f 136 76 158
f 76 67 158
f 158 61 136
f 158 153 61
f 116 107 11
f 11 140 116
f 107 100 11
f 100 140 11
f 10 33 47
f 10 145 8
f 10 111 145
f 51 125 95
f 51 42 33
f 33 10 51
f 51 10 8
f 144 64 7
f 7 64 59
f 59 107 7
f 7 17 144
f 107 17 7
f 112 121 59
f 112 118 121
f 59 64 81
f 81 148 59
f 15 109 104
f 118 109 15
f 118 148 45
f 45 109 118
f 129 82 144
f 144 151 129
f 22 46 146
f 22 146 113
f 121 118 155
f 155 4 121
f 118 4 155
f 118 50 156
f 156 4 118
f 50 4 156
f 68 50 118
f 68 3 50
f 52 73 14
f 14 19 52
f 3 19 14
f 73 50 14
f 50 3 14
f 137 15 104
f 118 15 137
f 131 88 117
f 153 158 21
f 21 158 67
f 21 84 153
f 21 67 27
f 27 84 21
f 95 55 72
f 72 51 95
f 72 55 42
f 42 51 72
f 105 148 118
f 118 112 105
f 59 148 105
f 105 112 59
f 92 13 109
f 92 129 151
f 92 151 46
f 92 64 82
f 82 129 92
f 104 109 142
f 109 13 142
f 36 63 108
f 80 63 88
f 80 108 63
f 36 108 80
f 83 88 52
f 83 117 88
f 9 92 54
f 54 92 109
f 70 92 46
f 13 92 70
f 6 92 9
f 64 92 6
f 37 142 13
f 104 142 37
f 37 128 104
f 46 22 37
f 22 128 37
f 89 22 113
f 38 137 104
f 104 128 38
f 38 128 22
f 22 89 38
f 13 70 87
f 87 37 13
f 87 70 46
f 46 37 87
f 3 68 123
f 141 68 118
f 141 123 68
f 65 123 141
f 80 16 127
f 127 89 80
f 137 38 127
f 127 38 89
f 103 16 80
f 103 88 131
f 103 80 88
f 131 41 103
f 103 41 16
f 90 89 113
f 80 89 90
f 113 36 90
f 36 80 90
f 117 83 66
f 66 85 117
f 99 123 65
f 118 137 99
f 99 141 118
f 65 141 99
f 135 123 85
f 135 19 3
f 3 123 135
f 117 85 28
f 85 123 28
f 133 16 43
f 16 41 43
f 123 99 71
f 20 99 137
f 137 127 20
f 20 127 16
f 133 71 53
f 53 16 133
f 53 71 99
f 99 20 53
f 10 150 111
f 10 47 74
f 74 34 10
f 34 150 10
f 145 125 51
f 8 145 51
f 6 45 148
f 9 54 6
f 6 81 64
f 148 81 6
f 109 45 6
f 6 54 109
f 52 19 135
f 135 83 52
f 135 66 83
f 85 66 135
f 71 41 131
f 131 117 71
f 133 43 71
f 117 28 71
f 71 28 123
f 71 43 41
f 53 20 16

