# https://github.com/mikedh/trimesh
v 0.12628182 0.02881724 -0.03463374
v 0.12809007 0.02745153 -0.03033937
v 0.12756094 0.02737673 -0.03511527
v 0.12659374 0.02534612 -0.02852564
v 0.12517072 0.02518970 -0.03539528
v 0.12888205 0.02690575 -0.03483237
v 0.12892402 0.02688144 -0.02990518
v 0.12554914 0.02728222 -0.03539527
v 0.12520639 0.02586226 -0.02851223
v 0.12768558 0.02756542 -0.02906484
v 0.13156694 0.02518290 -0.03457165
v 0.12547581 0.02613752 -0.03539527
v 0.13044128 0.02520772 -0.02572102
v 0.12912652 0.02686769 -0.03133155
v 0.12558667 0.02889917 -0.03006347
v 0.12816108 0.02660175 -0.03538925
v 0.12511325 0.02646832 -0.02851223
v 0.12605001 0.02838355 -0.02805369
v 0.13098453 0.02509332 -0.02776473
v 0.12623082 0.02545852 -0.02852566
v 0.12523259 0.02766444 -0.02851223
v 0.13002055 0.02544656 -0.02543817
v 0.12985286 0.02566354 -0.02602066
v 0.12967407 0.02592831 -0.03510778
v 0.12608449 0.02513483 -0.03539524
v 0.12783332 0.02505013 -0.02851223
v 0.12713783 0.02840754 -0.03449382
v 0.12510268 0.02944439 -0.03310223
v 0.12795504 0.02778159 -0.03291461
v 0.12647101 0.02756607 -0.03539522
v 0.12765109 0.02692468 -0.02560923
v 0.12617187 0.02849968 -0.02912223
v 0.12967860 0.02671592 -0.03456852
v 0.12681205 0.02856358 -0.03399936
v 0.12913478 0.02537935 -0.03539511
v 0.12989529 0.02544298 -0.03531864
v 0.12811162 0.02776470 -0.03419963
v 0.12840333 0.02721110 -0.02988213
v 0.12573451 0.02879427 -0.02976612
v 0.12835285 0.02642559 -0.02518997
v 0.12935126 0.02688509 -0.03343408
v 0.12733188 0.02825349 -0.03402907
v 0.13142595 0.02507922 -0.03216201
v 0.12814639 0.02769889 -0.03351849
v 0.12908996 0.02533317 -0.03539510
v 0.12883125 0.02687472 -0.02918232
v 0.12922830 0.02505091 -0.02851224
v 0.12858719 0.02510290 -0.03539513
v 0.12685715 0.02811646 -0.03489020
f 31 9 40
f 40 18 31
f 31 18 21
f 20 9 5
f 5 4 20
f 4 13 20
f 8 1 30
f 8 5 28
f 28 1 8
f 35 8 30
f 28 21 15
f 21 18 15
f 23 13 46
f 46 10 23
f 23 18 40
f 23 10 18
f 26 4 5
f 26 13 4
f 9 31 17
f 17 31 21
f 17 21 28
f 28 5 17
f 5 9 17
f 27 1 28
f 16 35 30
f 36 35 16
f 30 3 16
f 5 8 12
f 12 35 5
f 8 35 12
f 5 35 48
f 11 43 48
f 48 36 11
f 43 26 48
f 30 1 49
f 49 3 30
f 1 3 49
f 18 10 32
f 22 23 40
f 13 23 22
f 40 9 22
f 9 20 22
f 22 20 13
f 13 26 19
f 46 13 19
f 19 43 11
f 44 41 37
f 11 36 33
f 33 27 37
f 1 27 33
f 37 41 33
f 33 19 11
f 41 19 33
f 45 35 36
f 36 48 45
f 45 48 35
f 25 26 5
f 5 48 25
f 25 48 26
f 39 15 18
f 18 32 39
f 28 15 39
f 39 32 28
f 2 32 10
f 34 27 28
f 28 32 34
f 47 26 43
f 43 19 47
f 47 19 26
f 14 19 41
f 6 16 3
f 6 3 1
f 1 33 6
f 2 38 29
f 32 2 29
f 29 34 32
f 29 38 46
f 41 44 29
f 29 14 41
f 24 33 36
f 24 6 33
f 36 16 24
f 16 6 24
f 42 29 44
f 27 34 42
f 34 29 42
f 7 29 46
f 14 29 7
f 46 19 7
f 19 14 7
f 38 2 10
f 38 10 46
f 42 44 37
f 37 27 42

