# https://github.com/mikedh/trimesh
v 0.04450082 0.01961816 0.01366428
v 0.03424839 0.02419834 0.00967565
v 0.03437306 0.02496639 0.00771068
v 0.03762124 0.02100757 0.01499012
v 0.03717282 0.02138234 0.01445677
v 0.02638928 0.02400977 0.01082181
v 0.03460689 0.02320553 0.01169568
v 0.04449297 0.00003951 0.02006270
v 0.03683482 0.01301425 0.02189567
v 0.03761540 0.01255463 0.02223793
v 0.03336844 0.02285971 0.01278235
v 0.04866809 0.01509548 0.01417069
v 0.03939616 0.01654314 0.01898598
v 0.03861759 0.02074656 0.01497389
v 0.04993830 0.00834078 0.01551233
v 0.04037405 0.02419644 0.00739556
v 0.03969968 0.00436647 0.02329301
v 0.03873096 0.00891457 0.02293959
v 0.02547176 0.02498203 0.00973339
v 0.03485930 0.02494560 0.00761101
v 0.04983631 0.00420074 0.01305067
v 0.04999132 0.01075177 0.01168772
v 0.03513373 0.02120009 0.01497301
v 0.03343731 0.02252740 0.01342687
v 0.02577057 0.02252252 0.01125038
v 0.03246802 0.02472117 0.00889766
v 0.03490411 0.02291172 0.01219814
v 0.04694040 0.02291999 0.00029683
v 0.03910333 0.01679315 0.01894872
v 0.02920651 0.02483861 0.00946859
v 0.03353140 0.02230764 0.01377732
v 0.03777338 0.00529034 0.02294425
v 0.04976765 0.00333470 0.01623755
v 0.04829890 0.02216353 0.00817241
v 0.04240151 0.02432938 0.00626006
v 0.04977951 0.00628778 0.01599180
v 0.04290375 0.02325642 0.00826878
v 0.03874464 0.02004241 0.01600034
v 0.03791809 0.00065620 0.02310334
v 0.04969588 0.02183094 0.00792823
v 0.03627974 0.01360841 0.02140316
v 0.03899983 0.00165314 0.02342440
v 0.03727198 0.00937851 0.02254377
v 0.02552550 0.02479499 0.00994777
v 0.03797871 0.02118404 0.01451238
v 0.03309665 0.02491399 0.00003514
v 0.03699013 0.02494507 0.00687833
v 0.04985395 0.00988010 0.01526133
v 0.02989997 0.02492436 0.00077096
v 0.03724975 0.00639983 0.02271710
v 0.04356920 0.02138274 0.01166321
v 0.03970242 0.00139552 0.02350649
v 0.03077693 0.02366945 0.01186925
v 0.03981865 0.00971140 0.02207110
v 0.04884124 0.02486174 0.00227894
v 0.03639005 0.01352783 0.02149132
v 0.03784956 0.01304396 0.02200024
v 0.02543933 0.02479848 0.00215129
v 0.04521022 0.02121898 0.01109857
v 0.02512190 0.02437755 0.00339939
v 0.03312447 0.02342876 0.01169327
v 0.03866935 0.02099787 0.01455471
v 0.03854336 0.01590045 0.01980661
v 0.02886848 0.02322793 0.01203205
v 0.03942449 0.02431239 0.00752640
v 0.04092539 0.02414744 0.00727608
v 0.04818515 0.02217641 0.00819597
v 0.04945307 0.00089436 0.01343459
v 0.02503046 0.02205520 0.01000462
v 0.03944709 0.00355544 0.02347729
v 0.03321272 0.02299445 0.01255449
v 0.03885314 0.00011979 0.02077036
v 0.03936325 0.00140456 0.02351884
v 0.03327454 0.02341345 0.01167861
v 0.03763053 0.00040902 0.02119221
v 0.03720022 0.00126485 0.02279211
v 0.03491199 0.02381867 0.01028626
v 0.03955732 0.02480166 0.00635017
v 0.04014483 0.00336181 0.02314113
v 0.03665477 0.01133175 0.02216307
v 0.04773789 0.01948526 0.01204152
v 0.04428067 0.02272785 0.00876188
v 0.03380556 0.02224022 0.01385671
v 0.04318400 0.02143425 0.01176945
v 0.03884089 0.00296158 0.02335122
v 0.03940736 0.01540807 0.01970277
v 0.02968265 0.02488612 0.00922332
v 0.03926968 0.01032703 0.02218588
v 0.03691903 0.01350354 0.02166769
v 0.03925815 0.00353958 0.02344722
v 0.03786466 0.01510602 0.02050877
v 0.03454208 0.02420974 0.00954770
v 0.04631930 0.02202676 0.00932044
v 0.03581938 0.02400819 0.00954662
v 0.03735429 0.01064105 0.02245691
v 0.04989025 0.02333363 0.00501455
v 0.03977108 0.02487626 0.00609130
v 0.04053666 0.00017889 0.02300864
v 0.04268651 0.02477664 0.00519200
v 0.03963398 0.00273788 0.02347703
v 0.03136836 0.02289083 0.01285250
v 0.03689617 0.01117247 0.02225671
v 0.03845928 0.01170807 0.02218725
v 0.04955634 0.00218683 0.01640704
v 0.03794440 0.00959545 0.02274061
v 0.04931546 0.01303905 0.01459505
v 0.04971467 0.01707302 0.01250336
v 0.04888479 0.01452338 0.01430514
v 0.04034971 0.00093915 0.02311208
v 0.04066795 0.01741235 0.01761454
v 0.04925151 0.02014866 0.01063406
v 0.04934091 0.00102675 0.01657950
v 0.04095703 0.02494612 0.00550806
v 0.04978023 0.02060776 0.00975280
v 0.03411066 0.02419743 0.00971998
v 0.04000009 0.02122265 0.01358443
v 0.04954954 0.00437766 0.01634104
v 0.02775475 0.02353040 0.01153379
v 0.03275033 0.02390388 0.01079485
v 0.03464975 0.02352498 0.01100152
v 0.03829990 0.00013274 0.02059382
v 0.04995698 0.02276275 0.00619057
v 0.03235646 0.02495652 0.00009365
v 0.03835352 0.01529948 0.02033045
v 0.03848107 0.00783389 0.02304157
v 0.03806849 0.01241278 0.02216883
v 0.04991514 0.00916929 0.01537298
v 0.03630857 0.00972067 0.02220793
v 0.03644406 0.00878825 0.02232726
v 0.03682201 0.02062565 0.01567044
v 0.03710483 0.00138582 0.02214062
v 0.04950758 0.02405228 0.00366358
v 0.04557692 0.01954616 0.01315860
v 0.03492386 0.02205860 0.01394427
v 0.04985208 0.01136378 0.01485656
v 0.04999201 0.00617226 0.01272747
v 0.02625002 0.02423810 0.01059254
v 0.04442246 0.02178026 0.01063910
v 0.03946767 0.00762728 0.02275677
v 0.03718001 0.00355800 0.02280814
v 0.03796852 0.00020591 0.02312228
v 0.03904053 0.00037583 0.02345992
v 0.04984930 0.02216218 0.00073917
v 0.03499541 0.02412105 0.00961180
v 0.04340771 0.00024760 0.01756492
v 0.04327088 0.02359549 0.00021587
v 0.03295431 0.02398887 0.01053783
v 0.03763672 0.01290578 0.02211950
v 0.03823400 0.01256746 0.02198979
v 0.03816969 0.01412478 0.02123602
v 0.04800914 0.02490759 0.00250770
v 0.04999473 0.01933459 0.00699342
v 0.03536318 0.01342790 0.02123271
v 0.04963796 0.01751632 0.01232466
v 0.03551028 0.01241729 0.02162880
v 0.03616634 0.02140944 0.01481638
v 0.04312134 0.01962782 0.01438468
v 0.04898104 0.00023921 0.01685713
v 0.04046471 0.02131123 0.01322431
v 0.04912723 0.01384965 0.01441758
v 0.02839364 0.02456414 0.01035543
f 136 143 152
f 152 143 122
f 69 19 60
f 19 58 60
f 49 58 19
f 121 58 68
f 58 49 68
f 153 25 155
f 22 136 152
f 143 136 21
f 21 68 143
f 33 21 136
f 68 21 33
f 28 55 143
f 28 68 46
f 143 68 28
f 113 55 151
f 143 55 132
f 123 49 19
f 113 151 123
f 46 68 123
f 123 68 49
f 123 55 46
f 123 151 55
f 121 68 145
f 145 68 158
f 8 121 145
f 145 158 8
f 72 121 8
f 8 141 72
f 72 141 121
f 98 141 8
f 142 141 98
f 8 158 98
f 158 33 98
f 121 141 75
f 69 60 75
f 75 58 121
f 75 60 58
f 39 141 142
f 158 68 112
f 46 55 146
f 146 28 46
f 55 28 146
f 55 122 96
f 96 132 55
f 96 122 143
f 143 132 96
f 99 55 113
f 107 12 108
f 107 154 57
f 57 12 107
f 122 34 40
f 29 38 130
f 59 38 114
f 122 40 114
f 114 40 34
f 114 34 59
f 154 107 114
f 135 122 114
f 114 107 135
f 3 123 19
f 113 123 3
f 19 87 3
f 142 98 52
f 79 36 17
f 76 75 141
f 76 25 69
f 155 25 76
f 108 12 126
f 127 122 135
f 68 33 104
f 104 112 68
f 104 33 158
f 158 112 104
f 135 107 160
f 160 107 108
f 108 126 160
f 67 34 122
f 57 154 150
f 38 29 157
f 157 114 38
f 19 53 161
f 101 53 19
f 101 31 53
f 153 56 41
f 41 6 153
f 25 153 44
f 153 6 44
f 44 19 69
f 69 25 44
f 44 101 19
f 17 18 70
f 70 18 125
f 33 36 117
f 117 79 33
f 36 79 117
f 100 79 17
f 52 79 100
f 17 70 100
f 100 70 52
f 109 52 98
f 109 79 52
f 109 98 33
f 33 79 109
f 69 75 131
f 131 76 69
f 75 76 131
f 155 76 129
f 149 12 57
f 57 126 149
f 149 126 12
f 88 18 54
f 17 127 139
f 139 18 17
f 54 18 139
f 17 36 15
f 15 127 17
f 15 36 33
f 15 33 136
f 136 22 15
f 15 22 152
f 152 122 15
f 122 127 15
f 135 54 48
f 48 127 135
f 54 139 48
f 48 139 127
f 106 54 135
f 135 160 106
f 106 160 54
f 54 160 103
f 103 160 126
f 103 88 54
f 126 18 103
f 18 88 103
f 51 38 59
f 59 34 51
f 156 31 130
f 130 38 156
f 29 150 13
f 110 157 29
f 29 13 110
f 30 87 19
f 19 161 30
f 130 31 23
f 23 91 130
f 31 91 23
f 89 91 31
f 89 41 56
f 31 101 89
f 150 91 89
f 6 41 89
f 89 56 153
f 124 150 29
f 124 91 150
f 65 99 113
f 26 3 87
f 26 115 3
f 87 30 26
f 26 30 161
f 147 26 161
f 115 26 147
f 113 3 20
f 137 44 6
f 125 85 90
f 90 70 125
f 142 52 73
f 52 70 73
f 70 90 73
f 32 85 125
f 38 51 84
f 84 14 38
f 138 51 34
f 138 84 51
f 86 150 154
f 154 13 86
f 86 13 150
f 81 13 154
f 81 110 13
f 64 89 101
f 63 124 29
f 63 29 130
f 130 91 63
f 91 124 63
f 119 161 53
f 119 147 161
f 115 147 119
f 3 115 2
f 2 20 3
f 115 119 2
f 42 90 85
f 42 39 142
f 42 85 39
f 142 73 42
f 42 73 90
f 128 80 155
f 155 129 128
f 129 43 128
f 10 18 126
f 80 102 10
f 155 80 10
f 125 129 50
f 50 32 125
f 34 67 93
f 93 138 34
f 154 114 111
f 111 81 154
f 114 157 111
f 157 110 133
f 110 81 133
f 81 111 133
f 118 64 101
f 101 44 118
f 44 137 118
f 118 137 6
f 6 89 118
f 89 64 118
f 97 78 113
f 99 66 35
f 35 66 37
f 35 37 67
f 35 67 122
f 35 122 55
f 55 99 35
f 99 65 16
f 16 66 99
f 156 66 16
f 113 78 144
f 144 65 113
f 144 94 65
f 77 94 144
f 144 2 119
f 144 120 77
f 119 120 144
f 148 126 57
f 148 10 126
f 57 150 148
f 150 89 148
f 125 18 105
f 18 10 105
f 105 129 125
f 105 43 129
f 105 128 43
f 32 50 140
f 39 85 140
f 85 32 140
f 141 39 140
f 140 76 141
f 140 129 76
f 140 50 129
f 156 45 5
f 5 138 37
f 5 66 156
f 37 66 5
f 53 31 83
f 83 24 53
f 31 156 83
f 156 134 83
f 134 24 83
f 61 119 53
f 37 138 82
f 138 93 82
f 67 37 82
f 82 93 67
f 138 5 159
f 159 5 45
f 1 111 157
f 157 133 1
f 1 133 111
f 113 20 47
f 47 97 113
f 20 2 92
f 2 144 92
f 10 148 9
f 9 153 155
f 155 10 9
f 9 89 153
f 9 148 89
f 95 10 102
f 95 105 10
f 128 105 95
f 95 102 80
f 80 128 95
f 11 24 134
f 53 24 11
f 65 94 7
f 7 94 77
f 77 120 7
f 4 159 45
f 14 62 4
f 4 45 156
f 4 156 38
f 38 14 4
f 71 61 53
f 53 11 71
f 74 7 120
f 74 120 119
f 119 61 74
f 27 7 134
f 27 134 156
f 65 7 27
f 156 16 27
f 27 16 65
f 116 4 62
f 159 4 116
f 14 84 116
f 116 62 14
f 84 138 116
f 138 159 116
f 78 97 92
f 92 47 20
f 92 144 78
f 97 47 92
f 134 7 74
f 74 11 134
f 61 71 74
f 74 71 11

