# https://github.com/mikedh/trimesh
v 0.09795394 0.01100824 -0.03762971
v 0.10000000 0.01438020 -0.01965155
v 0.06686223 0.03470965 -0.01107449
v 0.05027143 0.03378577 -0.02038626
v 0.10000000 0.00203424 -0.02550233
v 0.09942935 0.01908017 -0.00007511
v 0.05001010 0.00584586 -0.04427121
v 0.05115593 0.03460589 -0.00736352
v 0.09873732 0.02776733 -0.02167410
v 0.06853947 0.03470521 -0.01124048
v 0.05019002 0.02437154 -0.03933354
v 0.06719232 0.03470705 -0.01115641
v 0.05002155 0.00488771 -0.04428253
v 0.05075113 0.03370583 -0.00011996
v 0.05064818 0.02737123 -0.03651304
v 0.06858942 0.03193111 -0.02680171
v 0.09853673 0.02803633 -0.02157124
v 0.09804406 0.00214718 -0.03900581
v 0.05111966 0.03460717 -0.01358605
v 0.05014906 0.03449385 -0.00591366
v 0.09876503 0.02103493 -0.03073708
v 0.05084160 0.03326836 -0.02287011
v 0.09888423 0.02674834 -0.02308125
v 0.05005787 0.03374230 -0.02064418
v 0.05009591 0.03368944 -0.00005111
v 0.09857623 0.01363320 -0.03594650
v 0.09837674 0.00006966 -0.03860107
v 0.06355447 0.03372063 -0.00016320
v 0.09789228 0.00940935 -0.03813585
v 0.06895949 0.02854337 -0.03281938
v 0.09880037 0.00019063 -0.03811069
v 0.06881126 0.01690469 -0.04164056
v 0.05146067 0.00714690 -0.04542019
v 0.06207023 0.03458842 -0.00678089
v 0.05007545 0.02397181 -0.03964079
v 0.06794001 0.02463533 -0.03723367
v 0.09840356 0.02144601 -0.03093183
v 0.09793767 0.00872936 -0.03829857
v 0.09785204 0.00020593 -0.03907143
v 0.08265751 0.00000205 -0.03905240
v 0.05009839 0.02287496 -0.04023130
v 0.05021777 0.03456311 -0.01445217
v 0.10000000 0.01526909 -0.02393681
v 0.09781147 0.03023594 -0.01693395
v 0.06893625 0.03263432 -0.02488398
v 0.09812043 0.02359526 -0.02914852
v 0.06853684 0.03297325 -0.02381527
v 0.06880736 0.02731881 -0.03443773
v 0.06654326 0.03449544 -0.01525920
v 0.09795188 0.02116862 -0.03180953
v 0.09884238 0.02840815 -0.01941833
v 0.06485760 0.00715174 -0.04541844
v 0.05095265 0.02960400 -0.03314167
v 0.06214281 0.00726889 -0.04540149
v 0.10000000 0.02005821 -0.01730238
v 0.05058413 0.00714158 -0.04484136
v 0.06674913 0.00533005 -0.04542570
v 0.06284255 0.03429296 -0.01696079
v 0.05052416 0.03307707 -0.02364492
v 0.05528835 0.03374800 -0.02061145
v 0.05020259 0.00375665 -0.04446579
v 0.09891683 0.02872491 -0.01799117
v 0.09883469 0.03001090 -0.00753697
v 0.09879335 0.00123189 -0.03826910
v 0.09821268 0.02931207 -0.01904618
v 0.09891681 0.01153037 -0.03614641
v 0.09992089 0.00320379 -0.02970642
v 0.05004030 0.03464385 -0.00844905
v 0.06888473 0.03428836 -0.01710945
v 0.06827184 0.03414135 -0.01824441
v 0.05100685 0.03458702 -0.01414025
v 0.09826843 0.02890761 -0.02003627
v 0.09999999 0.02160155 -0.01106037
v 0.06021202 0.03465729 -0.01239227
v 0.09804587 0.02491678 -0.02773411
v 0.09888025 0.01129025 -0.03639322
v 0.09808786 0.00159424 -0.03898600
v 0.09870866 0.02786210 -0.02154643
v 0.09789812 0.00302875 -0.03909477
v 0.05023326 0.03327695 -0.02283758
v 0.05073273 0.02837272 -0.03518238
v 0.09804070 0.00385394 -0.03893520
v 0.06107971 0.03375066 -0.02059355
v 0.05009503 0.03300809 -0.02391045
v 0.09878547 0.02747648 -0.02208440
v 0.09788258 0.00700345 -0.03866955
v 0.09786945 0.01750283 -0.03464402
v 0.06451804 0.03458772 -0.00677630
v 0.05115879 0.03457596 -0.01428996
v 0.06859235 0.03427503 -0.00378532
v 0.06888960 0.02600782 -0.03579939
v 0.09777017 0.02987605 -0.00149056
v 0.09786170 0.03104206 -0.00794839
v 0.10000000 0.00733020 -0.00417488
v 0.09787420 0.01320648 -0.03683554
v 0.05324955 0.03387663 -0.01982648
v 0.05445993 0.03374174 -0.00027029
v 0.05271756 0.03458951 -0.01410559
v 0.06874235 0.02279334 -0.03858009
v 0.09846270 0.03055069 -0.00984552
v 0.05265308 0.00000492 -0.04542977
v 0.09999999 0.02159460 -0.00897246
v 0.05019250 0.02009132 -0.04133573
v 0.06671241 0.03431972 -0.00408129
v 0.06104452 0.03466497 -0.01219573
v 0.05025978 0.03470159 -0.01088632
v 0.09890016 0.02435079 -0.02706412
v 0.06035253 0.03374496 -0.00028325
v 0.06883253 0.03205825 -0.02644847
v 0.09785116 0.00240448 -0.03912187
v 0.09792757 0.02478418 -0.02806800
v 0.09794231 0.03012292 -0.01727726
v 0.09878723 0.01341125 -0.03575455
v 0.09777642 0.01951653 -0.03320666
v 0.09822378 0.00153623 -0.03885270
v 0.07403397 0.02930113 -0.00000054
v 0.09785810 0.02668576 -0.02538160
v 0.05127234 0.00500718 -0.04543015
v 0.09885982 0.02858374 -0.00089031
v 0.06889333 0.03406573 -0.01869843
v 0.05026185 0.02941974 -0.03352977
v 0.05109761 0.03155719 -0.02873085
v 0.05006717 0.03396158 -0.01907352
v 0.05257740 0.03471281 -0.01062406
v 0.05077796 0.02160299 -0.04078048
v 0.05013728 0.03467226 -0.01171520
v 0.09891682 0.00566380 -0.03772294
v 0.06853373 0.03445210 -0.01571610
v 0.09891681 0.02809080 -0.00017032
v 0.05173383 0.02193632 -0.04057212
v 0.10000000 0.00775147 -0.02765349
v 0.09770710 0.02737406 -0.02420184
v 0.06868072 0.03362910 -0.02110658
v 0.05239528 0.03458053 -0.00667679
v 0.05079433 0.02532650 -0.03856027
v 0.09891681 0.00198282 -0.03808505
v 0.05125515 0.03460119 -0.01375601
v 0.09891682 0.02616873 -0.02392756
v 0.09891681 0.02775062 -0.02109139
v 0.05001024 0.02655107 -0.03749549
v 0.06760753 0.03370118 -0.00006734
v 0.06414318 0.03471035 -0.01098630
v 0.10000000 0.00152684 -0.00412277
v 0.05101186 0.03449007 -0.01506815
v 0.09802100 0.02139684 -0.03150696
v 0.06850487 0.03280270 -0.02436089
v 0.09852430 0.02846405 -0.02048318
v 0.06516552 0.03440269 -0.00476030
v 0.06822913 0.03450528 -0.01512555
v 0.09783179 0.02880861 -0.02128231
v 0.06706600 0.03470333 -0.01125874
v 0.09887738 0.01949772 -0.03201617
v 0.09837900 0.02998829 -0.00389490
v 0.05272188 0.00724858 -0.04540826
v 0.09809974 0.02814781 -0.02232141
v 0.05036462 0.03383296 -0.02006553
v 0.06855574 0.03374733 -0.00029651
v 0.05239093 0.03461174 -0.01348833
v 0.05046786 0.00112046 -0.04469963
v 0.09869835 0.02901380 -0.00151009
v 0.05077057 0.03467555 -0.00934228
v 0.09884997 0.00764158 -0.03761463
v 0.05185217 0.00014826 -0.04543000
v 0.06432837 0.03460558 -0.00724956
v 0.05036314 0.00203512 -0.04462514
v 0.06718081 0.03117980 -0.02858381
v 0.09891682 0.02970220 -0.00627429
v 0.05863463 0.03447925 -0.00554809
v 0.09809931 0.02924162 -0.00043097
v 0.10000000 0.00468925 -0.00010057
v 0.06719630 0.03458778 -0.00678112
v 0.06854949 0.03470402 -0.01127349
v 0.05078629 0.00055463 -0.04502863
v 0.09999999 0.02147106 -0.00718095
v 0.09846674 0.00618538 -0.03822173
v 0.06876693 0.02910437 -0.03209727
v 0.09803350 0.01405414 -0.03635867
v 0.10000000 0.01506607 -0.02469987
v 0.09806661 0.03095984 -0.00892428
v 0.05049786 0.03459367 -0.01394771
v 0.05289096 0.03458576 -0.00677860
v 0.09872196 0.02801610 -0.02110482
v 0.06875764 0.03419094 -0.01793253
v 0.09795533 0.03095888 -0.00765594
v 0.06852466 0.02698213 -0.03483853
v 0.09884503 0.01499762 -0.03491911
v 0.09808186 0.02757155 -0.02346619
v 0.05158968 0.03453777 -0.00620512
v 0.09770656 0.00420946 -0.03904378
v 0.09803747 0.01748490 -0.03446343
v 0.05123402 0.03386596 -0.00108604
v 0.09883913 0.00909632 -0.03719825
v 0.06738767 0.03044446 -0.03001875
v 0.05051304 0.03319581 -0.02316776
v 0.06894909 0.02073597 -0.03981451
v 0.09891681 0.01504626 -0.03465748
v 0.06800368 0.03447334 -0.01552679
v 0.09813197 0.00102934 -0.03891631
v 0.09856505 0.02749020 -0.02257827
v 0.09552865 0.02939952 -0.00011815
v 0.09788201 0.02403955 -0.02894550
v 0.09796748 0.02987066 -0.01817274
v 0.06488131 0.03459938 -0.00706921
v 0.06881451 0.01933447 -0.04060438
v 0.06411312 0.03370500 -0.00008696
v 0.09865810 0.02844325 -0.00002684
v 0.06714961 0.03470915 -0.01109595
v 0.06869848 0.03398070 -0.00183935
v 0.10000000 0.00371072 -0.02559510
v 0.09797043 0.01895954 -0.03354261
v 0.09807015 0.01886722 -0.03348645
v 0.06016791 0.03400935 -0.01903928
v 0.05004382 0.01464763 -0.04248656
v 0.09822703 0.02163177 -0.03101294
v 0.09987896 0.01921614 -0.00029376
v 0.09784406 0.03107527 -0.01122006
v 0.09991613 0.00145622 -0.02989256
v 0.06853727 0.02236487 -0.03890036
v 0.06725621 0.03036754 -0.03017654
v 0.09807041 0.02690351 -0.02468388
v 0.06514127 0.00708133 -0.04542622
v 0.06894722 0.03464813 -0.00942801
v 0.05004878 0.03384198 -0.00093899
v 0.06113587 0.03433327 -0.01659216
v 0.09999999 0.02159084 -0.01161965
v 0.10000000 0.00006873 -0.00316141
v 0.10000000 0.00133913 -0.02413840
v 0.06823243 0.03431200 -0.00402986
v 0.05263142 0.03385572 -0.01996532
v 0.05039242 0.03461318 -0.01339744
v 0.10000000 0.00803062 -0.02792820
v 0.05007106 0.00769440 -0.04430311
v 0.09891682 0.02028625 -0.03111218
v 0.06865103 0.03470111 -0.01080194
v 0.06739785 0.03432694 -0.00412887
v 0.09830957 0.02951079 -0.00170116
v 0.09891683 0.02967906 -0.01413880
v 0.09809630 0.00835910 -0.03823527
v 0.06051862 0.03282504 -0.02444873
v 0.06867355 0.03463986 -0.00856468
v 0.06880979 0.03386256 -0.01991885
v 0.09795289 0.03093757 -0.01262022
v 0.06886858 0.02119481 -0.03956705
v 0.05094833 0.00749525 -0.04520208
v 0.06291867 0.00708954 -0.04542686
v 0.05049501 0.00169877 -0.04475480
v 0.05195031 0.03468282 -0.00953906
v 0.06866114 0.03385237 -0.00099095
v 0.05029625 0.03462505 -0.00791383
v 0.09891683 0.02994561 -0.01014167
v 0.05144809 0.03455601 -0.00639977
v 0.09795924 0.02877137 -0.02126115
v 0.09788482 0.02235419 -0.03077131
v 0.05010162 0.00644903 -0.04436230
v 0.06823642 0.03109069 -0.02870494
v 0.09817505 0.00113567 -0.03888096
v 0.09796031 0.03095810 -0.01238636
v 0.09827024 0.02974735 -0.01742722
v 0.09891682 0.02935342 -0.00400005
v 0.05735049 0.03344052 -0.02205985
v 0.09854765 0.02964371 -0.00309661
v 0.09846291 0.02980118 -0.01642937
v 0.05119038 0.02544384 -0.03842924
v 0.06599713 0.00718755 -0.04541348
v 0.06896331 0.03442772 -0.01565678
v 0.06858990 0.03036650 -0.03004440
v 0.09884586 0.02377553 -0.02777925
v 0.09999999 0.02140295 -0.01358525
v 0.05154531 0.00146202 -0.04543006
v 0.05036366 0.02606933 -0.03793885
v 0.06121001 0.03463486 -0.00810483
v 0.06866344 0.03459728 -0.00700864
v 0.09813589 0.01483630 -0.03585678
v 0.09989081 0.01927512 -0.00038860
v 0.09763923 0.02842144 -0.02219141
v 0.06881948 0.03387480 -0.01984531
v 0.06864455 0.03367528 -0.02091612
v 0.09829451 0.01837267 -0.03356226
v 0.05789692 0.03459259 -0.01404744
v 0.05002510 0.03383023 -0.02007527
v 0.05279069 0.03468252 -0.00952540
v 0.05403894 0.03452113 -0.00601169
v 0.09831231 0.01296797 -0.03650693
v 0.07984295 0.02934580 -0.00000203
v 0.09780652 0.02871070 -0.02153936
v 0.09841151 0.03060005 -0.00996359
v 0.05115894 0.00637195 -0.04541425
v 0.05841942 0.03280729 -0.02453049
v 0.09999287 0.02045660 -0.00279636
v 0.06396138 0.03408466 -0.01858638
v 0.09961594 0.00014255 -0.02968371
v 0.06721850 0.03372914 -0.00020357
v 0.05082098 0.00673844 -0.04507804
v 0.05597930 0.03453787 -0.01475893
v 0.06444646 0.03468287 -0.01177319
v 0.06855981 0.03470655 -0.01099701
v 0.06884057 0.03178681 -0.02711961
v 0.09885105 0.02952913 -0.01583272
v 0.05422753 0.03375167 -0.02058978
v 0.06876430 0.03447115 -0.00547265
v 0.06490582 0.00739241 -0.04537895
v 0.06865088 0.01990100 -0.04034289
v 0.10000000 0.01981963 -0.00258893
v 0.06161074 0.03291031 -0.02413751
v 0.05558689 0.03291862 -0.02419010
v 0.06444777 0.03443200 -0.00502595
v 0.09875628 0.03027044 -0.00898010
v 0.06884511 0.02316971 -0.03830595
v 0.06865908 0.02837871 -0.03312513
v 0.09843648 0.00438136 -0.03844168
v 0.05076888 0.00197473 -0.04502748
v 0.09891683 0.02985538 -0.00786551
v 0.06882333 0.02163777 -0.03931051
v 0.05370914 0.03367881 -0.00000536
v 0.09849633 0.00723576 -0.03804616
v 0.09787634 0.03067890 -0.01496043
v 0.09887622 0.02737016 -0.02205580
v 0.09839384 0.01442575 -0.03581442
v 0.09797283 0.03096374 -0.01221166
v 0.09889795 0.02975296 -0.01388978
v 0.09773567 0.03069914 -0.00495075
v 0.06676944 0.00003844 -0.04542570
v 0.05036720 0.03313233 -0.02342560
v 0.05017479 0.03184616 -0.02778907
v 0.09999999 0.02123565 -0.00598330
v 0.06667982 0.00547764 -0.04542573
v 0.06684068 0.03460487 -0.00721729
v 0.05004540 0.03208362 -0.02690531
v 0.06805069 0.03368839 -0.02086920
v 0.06890066 0.01864965 -0.04091395
v 0.06409868 0.03373877 -0.02065627
v 0.05062718 0.02859122 -0.03486383
v 0.05099844 0.03376986 -0.00045016
v 0.09823323 0.02037446 -0.03215592
v 0.05064565 0.02135017 -0.04089267
v 0.06822678 0.03414197 -0.01824072
v 0.05136731 0.03457799 -0.01426302
v 0.05067677 0.03469426 -0.00987458
v 0.05055974 0.00765336 -0.04480848
v 0.09832831 0.02399901 -0.02836435
v 0.06851081 0.00000620 -0.04384345
v 0.09800037 0.01569888 -0.03551808
v 0.09818388 0.00485424 -0.03869593
v 0.09808974 0.01788864 -0.03415569
v 0.09891681 0.02837128 -0.00065301
v 0.09999999 0.00001908 -0.00746577
v 0.09810703 0.02238301 -0.03047450
v 0.06793767 0.02715646 -0.03472775
v 0.06766172 0.03435167 -0.00429471
v 0.09831603 0.00803267 -0.03810014
v 0.05164563 0.03449010 -0.01508873
v 0.05143765 0.03451695 -0.01486476
v 0.10000000 0.02063035 -0.01576134
v 0.09788610 0.02090981 -0.03209399
v 0.09884776 0.02974906 -0.01462616
v 0.05190917 0.03459692 -0.00710291
v 0.09999999 0.01274259 -0.02659548
v 0.09891682 0.02268540 -0.02866699
v 0.09780088 0.03045128 -0.00383101
v 0.06723112 0.03418845 -0.01790253
v 0.10000000 0.01381441 -0.02047359
v 0.06901528 0.03357405 -0.00000523
v 0.05062558 0.02709945 -0.03686527
v 0.09857936 0.02054420 -0.03153195
v 0.09796776 0.03069805 -0.00526397
v 0.09891681 0.02725433 -0.02201217
v 0.09799095 0.02950910 -0.00074553
v 0.06896294 0.03465921 -0.01166782
v 0.09885834 0.00529121 -0.03784398
v 0.09779081 0.03092140 -0.00676359
v 0.09860613 0.00224543 -0.03843990
v 0.06605174 0.03366978 -0.02098030
v 0.09783313 0.01262937 -0.03707437
v 0.05009759 0.02294879 -0.04019174
v 0.06864292 0.03370323 -0.00007702
v 0.06201017 0.00000400 -0.04542708
v 0.05055486 0.03441796 -0.01560399
v 0.09787964 0.01016625 -0.03792145
v 0.10000000 0.00884131 -0.02817393
v 0.06846919 0.01973586 -0.04043768
v 0.06839347 0.02855871 -0.03291792
v 0.06880968 0.03016968 -0.03034525
v 0.09865854 0.03034053 -0.00970321
v 0.05113128 0.00682050 -0.04538676
v 0.10000000 0.02061051 -0.00362403
v 0.09859790 0.02359747 -0.02838617
v 0.09849193 0.03007363 -0.01503344
v 0.09796176 0.03105139 -0.00980859
v 0.09886306 0.03006266 -0.01013206
v 0.05184310 0.03376420 -0.00041250
v 0.06778734 0.03416411 -0.01810668
v 0.09856153 0.02870787 -0.01958005
v 0.06147828 0.03356112 -0.02149448
v 0.09758253 0.02954897 -0.00054858
v 0.09802913 0.02968449 -0.01859262
v 0.09783914 0.03021517 -0.00276440
v 0.06193189 0.03470974 -0.01094814
v 0.05528147 0.00726289 -0.04540533
v 0.06851172 0.03451059 -0.01505612
v 0.05000732 0.03120518 -0.02967372
v 0.06702143 0.00764689 -0.04526270
v 0.09847880 0.00672569 -0.03814603
v 0.05129233 0.03384056 -0.00091750
v 0.06692547 0.03378233 -0.02040137
v 0.06698754 0.00620127 -0.04534727
v 0.05097084 0.00754510 -0.04522391
v 0.06881101 0.03467175 -0.01216491
v 0.06558641 0.03371626 -0.02076191
v 0.09823385 0.03075876 -0.01101246
v 0.05696378 0.03449326 -0.00570300
v 0.05085648 0.03148613 -0.02892730
v 0.09780457 0.01651734 -0.03519362
v 0.05039825 0.02804341 -0.03565826
v 0.06649400 0.00758307 -0.04529910
v 0.09827183 0.02287145 -0.02969035
v 0.06858405 0.03333522 -0.02232170
v 0.09812887 0.03033978 -0.01565930
v 0.09823982 0.03009499 -0.00371339
v 0.10000000 0.00000697 -0.01940848
v 0.10000000 0.00632278 -0.00027749
v 0.06629832 0.03460983 -0.01378985
v 0.05045634 0.03154419 -0.02879407
v 0.06840649 0.03142105 -0.02796601
v 0.09891683 0.02991690 -0.01120557
v 0.05008972 0.03197370 -0.02731912
v 0.05746288 0.03458597 -0.00674820
v 0.09882088 0.02842205 -0.01945935
v 0.06882856 0.03456330 -0.01437721
v 0.05210049 0.00703514 -0.04542998
v 0.09999156 0.02170243 -0.00884636
v 0.05021201 0.02455395 -0.03919636
v 0.09800980 0.01394447 -0.03642966
v 0.06882910 0.02530363 -0.03653187
v 0.09828059 0.02974301 -0.00231164
v 0.06875980 0.03161541 -0.02750847
v 0.05033489 0.02891151 -0.03436600
v 0.05183248 0.03471246 -0.01058290
v 0.10000000 0.00479637 -0.00007822
v 0.06881894 0.02037607 -0.04005132
v 0.05288510 0.03390999 -0.00137606
v 0.09780651 0.03098279 -0.01265785
v 0.05512728 0.03374736 -0.00030040
v 0.09992554 0.01735007 -0.02241787
v 0.06880602 0.02466931 -0.03711067
v 0.05165372 0.03299282 -0.02396202
v 0.09792858 0.01078203 -0.03773016
v 0.06806465 0.02517313 -0.03674323
v 0.06677235 0.00114468 -0.04542568
v 0.09775058 0.00542334 -0.03892401
v 0.05020450 0.03449996 -0.00595860
v 0.05033633 0.02977038 -0.03286971
v 0.06881515 0.01828628 -0.04108477
v 0.06877398 0.03439781 -0.00464831
v 0.05097749 0.00285008 -0.04523431
v 0.09834039 0.02823665 -0.02159599
v 0.09884327 0.03013403 -0.00942603
v 0.06829356 0.03461700 -0.01365835
v 0.09862416 0.00461855 -0.03819284
v 0.05960137 0.03446348 -0.00539391
v 0.09891682 0.01930254 -0.03190459
v 0.05106497 0.03457418 -0.00660341
v 0.05054893 0.03470539 -0.01078573
v 0.09764384 0.00136121 -0.03915596
v 0.09819390 0.01424428 -0.03610669
v 0.10000000 0.00439669 -0.00035919
v 0.09795220 0.02388937 -0.02906516
v 0.06885029 0.02680591 -0.03498190
v 0.05062722 0.02581906 -0.03815931
v 0.05082359 0.02970184 -0.03296645
v 0.09889406 0.02981455 -0.01310101
v 0.06588421 0.03422732 -0.01756165
v 0.05021962 0.03470986 -0.01042733
v 0.06236720 0.03358731 -0.02137074
v 0.05152860 0.00745878 -0.04534256
v 0.06826160 0.03470835 -0.01105180
f 322 27 376
f 40 27 419
f 274 420 303
f 25 226 170
f 341 27 40
f 40 376 341
f 341 376 27
f 114 87 308
f 118 287 33
f 451 121 400
f 400 121 140
f 223 13 25
f 141 362 375
f 141 314 362
f 394 92 375
f 394 200 169
f 375 362 394
f 362 200 394
f 375 92 396
f 291 27 31
f 291 419 27
f 31 217 291
f 217 419 291
f 346 419 226
f 420 226 143
f 226 419 143
f 94 303 143
f 303 420 143
f 136 217 31
f 173 226 25
f 7 232 254
f 400 140 7
f 7 223 400
f 13 223 7
f 465 226 420
f 420 170 465
f 465 170 226
f 438 314 25
f 25 170 438
f 420 274 438
f 438 170 420
f 309 30 48
f 176 30 309
f 432 412 342
f 342 412 87
f 468 444 263
f 201 467 48
f 201 253 467
f 201 466 253
f 313 35 218
f 428 441 265
f 255 266 193
f 117 176 382
f 176 332 382
f 382 332 266
f 193 266 219
f 150 45 202
f 150 285 109
f 109 45 150
f 87 412 439
f 406 103 474
f 474 33 406
f 406 33 384
f 384 33 287
f 384 244 406
f 39 27 322
f 57 264 401
f 33 474 154
f 301 474 103
f 301 154 474
f 56 293 254
f 244 384 56
f 56 384 293
f 339 103 406
f 339 232 103
f 406 244 339
f 244 56 339
f 254 232 339
f 339 56 254
f 103 232 213
f 232 7 213
f 213 140 35
f 213 7 140
f 41 213 35
f 103 213 41
f 81 332 176
f 413 332 81
f 436 332 413
f 413 140 436
f 436 140 121
f 121 266 436
f 266 332 436
f 35 140 431
f 363 140 413
f 363 309 48
f 433 140 363
f 268 237 225
f 353 303 55
f 353 268 303
f 55 139 353
f 139 268 353
f 370 453 321
f 316 120 183
f 367 394 169
f 92 394 367
f 367 396 92
f 359 321 375
f 375 396 359
f 64 136 31
f 31 27 64
f 55 178 443
f 289 274 303
f 101 346 226
f 419 346 101
f 101 376 40
f 40 419 101
f 362 314 116
f 314 438 116
f 114 308 354
f 308 444 354
f 433 253 354
f 354 444 433
f 447 468 433
f 433 444 447
f 447 444 468
f 36 444 308
f 308 263 36
f 36 263 444
f 35 308 99
f 99 218 35
f 313 218 99
f 99 87 313
f 99 308 87
f 428 265 128
f 42 144 377
f 297 451 400
f 109 285 297
f 132 285 117
f 117 382 132
f 285 132 275
f 275 132 382
f 121 451 53
f 53 266 121
f 53 219 266
f 193 219 53
f 53 255 193
f 117 285 187
f 45 47 44
f 285 150 252
f 252 187 285
f 155 187 252
f 252 150 202
f 243 35 313
f 243 439 35
f 313 87 243
f 322 110 463
f 463 39 322
f 110 39 463
f 448 110 322
f 322 57 448
f 448 57 110
f 405 57 401
f 326 57 322
f 264 57 326
f 401 264 414
f 264 301 414
f 414 301 103
f 264 154 398
f 154 301 398
f 118 33 429
f 376 101 429
f 374 41 35
f 381 309 413
f 413 81 381
f 176 309 381
f 381 81 176
f 468 431 270
f 270 431 140
f 433 468 270
f 270 140 433
f 11 308 35
f 35 431 11
f 11 431 308
f 135 263 308
f 308 431 135
f 468 263 135
f 135 431 468
f 413 309 15
f 15 363 413
f 309 363 15
f 348 363 48
f 433 363 91
f 91 363 467
f 91 253 433
f 467 253 91
f 62 268 139
f 62 237 268
f 250 430 73
f 73 225 250
f 250 225 424
f 424 225 237
f 365 370 321
f 321 359 365
f 365 359 396
f 276 316 241
f 120 316 276
f 216 441 428
f 272 171 300
f 148 349 453
f 42 180 71
f 68 20 450
f 223 20 68
f 68 280 400
f 400 223 68
f 188 461 450
f 428 457 407
f 407 216 428
f 368 216 407
f 421 457 428
f 234 216 368
f 234 407 296
f 368 407 234
f 396 367 434
f 418 365 434
f 434 365 396
f 55 303 2
f 2 361 55
f 2 303 94
f 231 5 217
f 227 419 217
f 217 5 227
f 227 5 419
f 127 136 369
f 136 64 371
f 371 369 136
f 217 136 67
f 67 136 127
f 312 430 250
f 312 167 430
f 61 165 13
f 293 384 61
f 254 293 61
f 61 384 287
f 287 165 61
f 13 7 61
f 61 7 254
f 454 287 118
f 118 269 454
f 454 269 173
f 25 13 159
f 13 165 159
f 159 173 25
f 159 165 173
f 362 116 284
f 284 116 438
f 215 438 274
f 210 87 114
f 114 354 210
f 399 128 197
f 428 128 399
f 294 197 42
f 294 49 197
f 69 128 265
f 69 265 441
f 441 316 69
f 69 316 183
f 123 280 42
f 42 377 123
f 229 156 96
f 16 297 400
f 109 297 16
f 451 255 469
f 469 53 451
f 255 53 469
f 146 47 45
f 45 422 146
f 146 422 47
f 122 45 109
f 122 422 45
f 109 16 122
f 47 422 239
f 445 422 324
f 324 422 400
f 455 17 155
f 155 252 455
f 87 439 195
f 195 243 87
f 439 243 195
f 401 32 446
f 221 326 322
f 322 376 221
f 264 326 221
f 401 449 189
f 401 38 86
f 86 449 401
f 54 301 264
f 264 398 54
f 54 398 301
f 163 269 118
f 118 429 163
f 163 429 101
f 173 269 163
f 226 173 163
f 163 101 226
f 335 32 401
f 103 41 335
f 401 414 335
f 335 414 103
f 467 363 185
f 363 348 185
f 48 467 185
f 185 348 48
f 153 365 418
f 112 44 316
f 202 45 112
f 45 44 112
f 320 424 237
f 237 355 320
f 417 112 316
f 216 234 388
f 375 157 292
f 462 106 472
f 450 461 249
f 249 68 450
f 472 68 338
f 251 188 282
f 461 188 251
f 457 421 98
f 98 337 71
f 272 222 240
f 222 234 240
f 236 434 367
f 379 67 127
f 379 231 217
f 217 67 379
f 43 178 55
f 43 379 178
f 231 379 43
f 5 231 131
f 55 361 131
f 131 43 55
f 231 43 131
f 27 39 198
f 310 371 343
f 64 256 115
f 115 371 64
f 178 379 357
f 430 167 174
f 345 289 259
f 289 325 259
f 259 174 167
f 325 174 259
f 385 289 303
f 385 325 289
f 303 268 385
f 268 225 385
f 225 73 385
f 73 325 385
f 173 165 246
f 311 165 287
f 287 454 311
f 311 246 165
f 311 454 173
f 173 246 311
f 206 284 438
f 169 200 206
f 206 200 362
f 362 284 206
f 206 367 169
f 50 354 253
f 432 342 177
f 342 273 177
f 117 75 111
f 111 176 117
f 111 30 176
f 111 201 48
f 466 201 111
f 48 30 111
f 197 49 149
f 149 399 197
f 471 58 183
f 351 224 183
f 183 58 351
f 352 224 351
f 42 352 351
f 351 144 42
f 391 336 290
f 183 120 70
f 70 391 183
f 70 336 391
f 229 96 212
f 212 290 229
f 391 290 212
f 241 316 277
f 47 323 194
f 194 323 80
f 445 324 84
f 80 323 84
f 166 255 451
f 451 423 166
f 166 423 255
f 255 423 435
f 266 255 435
f 451 297 435
f 435 423 451
f 435 382 266
f 435 275 382
f 435 297 285
f 285 275 435
f 395 252 202
f 411 16 400
f 411 122 16
f 400 422 411
f 422 122 411
f 305 422 445
f 445 47 305
f 35 439 302
f 302 374 35
f 41 374 302
f 130 330 452
f 32 335 452
f 29 38 401
f 29 446 38
f 376 429 245
f 245 221 376
f 245 429 33
f 33 154 245
f 38 446 350
f 343 86 402
f 402 350 315
f 86 350 402
f 389 383 307
f 409 100 307
f 307 383 409
f 242 417 316
f 242 316 441
f 237 62 298
f 298 355 237
f 298 62 139
f 179 388 93
f 370 365 93
f 272 300 93
f 93 222 272
f 93 300 453
f 453 370 93
f 93 234 222
f 93 388 234
f 286 100 409
f 409 388 286
f 333 14 97
f 333 223 25
f 25 14 333
f 157 403 333
f 223 333 191
f 191 333 403
f 306 148 453
f 306 168 148
f 148 168 459
f 124 462 437
f 437 462 472
f 42 71 89
f 71 337 89
f 89 294 42
f 207 475 10
f 10 475 296
f 397 462 124
f 279 98 421
f 337 98 279
f 66 379 127
f 196 357 66
f 66 357 379
f 5 131 209
f 419 5 209
f 209 131 361
f 361 2 209
f 209 2 94
f 94 143 209
f 209 143 419
f 369 371 458
f 371 310 458
f 256 198 77
f 77 115 256
f 77 39 110
f 77 198 39
f 424 320 470
f 470 389 424
f 470 383 389
f 470 320 409
f 409 383 470
f 102 325 73
f 102 174 325
f 102 73 430
f 430 174 102
f 434 236 160
f 160 236 367
f 261 259 153
f 418 434 261
f 261 153 418
f 434 160 261
f 261 160 259
f 438 215 6
f 6 206 438
f 215 206 6
f 345 206 129
f 129 206 215
f 129 215 274
f 274 289 129
f 129 289 345
f 334 210 354
f 354 50 334
f 334 152 210
f 107 152 267
f 107 443 178
f 107 340 75
f 107 138 55
f 55 443 107
f 267 386 107
f 46 340 107
f 107 386 46
f 87 210 344
f 366 139 55
f 55 138 366
f 183 391 360
f 360 471 183
f 24 84 280
f 80 84 24
f 24 60 331
f 133 44 47
f 316 44 133
f 133 277 316
f 445 84 59
f 59 84 323
f 59 47 445
f 59 323 47
f 425 324 400
f 425 84 324
f 252 395 72
f 72 395 147
f 288 239 422
f 422 305 288
f 288 305 239
f 47 239 304
f 304 305 47
f 239 305 304
f 204 330 130
f 204 439 412
f 204 302 439
f 125 452 335
f 125 335 41
f 130 452 125
f 41 130 125
f 32 452 95
f 95 452 330
f 330 204 95
f 95 412 432
f 95 204 412
f 401 446 378
f 378 29 401
f 446 29 378
f 264 221 52
f 221 245 52
f 52 154 264
f 52 245 154
f 238 86 38
f 38 350 238
f 238 350 86
f 343 402 175
f 63 307 365
f 63 259 167
f 167 312 63
f 365 153 63
f 153 259 63
f 456 312 250
f 389 307 456
f 456 63 312
f 307 63 456
f 250 424 456
f 424 389 456
f 387 242 355
f 417 242 387
f 355 298 387
f 387 298 417
f 409 320 319
f 319 320 355
f 319 388 409
f 216 388 319
f 417 298 262
f 139 182 51
f 51 298 139
f 179 93 184
f 184 93 365
f 184 307 179
f 365 307 184
f 205 28 97
f 97 14 205
f 205 14 25
f 25 314 205
f 314 141 205
f 453 90 208
f 321 453 208
f 349 191 104
f 104 235 349
f 104 90 235
f 104 208 90
f 188 459 410
f 410 459 168
f 282 188 410
f 327 203 272
f 124 475 142
f 142 397 124
f 296 407 172
f 172 10 296
f 230 19 180
f 230 180 42
f 162 66 127
f 127 369 162
f 162 402 315
f 315 350 162
f 162 175 402
f 162 350 446
f 343 371 82
f 82 86 343
f 449 86 82
f 119 206 345
f 345 259 119
f 259 160 119
f 367 206 119
f 119 160 367
f 152 334 364
f 152 107 233
f 178 357 233
f 220 75 117
f 220 107 75
f 117 187 220
f 199 107 220
f 187 199 220
f 87 344 190
f 331 60 83
f 83 404 331
f 329 404 241
f 241 277 329
f 4 156 229
f 280 156 4
f 4 24 280
f 416 133 47
f 22 416 47
f 47 194 22
f 22 194 80
f 328 425 400
f 84 425 328
f 400 280 328
f 280 84 328
f 78 182 139
f 139 9 78
f 78 9 155
f 155 17 78
f 199 9 85
f 302 204 380
f 41 302 380
f 380 204 130
f 380 130 41
f 373 446 32
f 32 95 373
f 373 95 446
f 355 242 257
f 257 319 355
f 257 242 441
f 441 216 257
f 216 319 257
f 258 298 395
f 258 262 298
f 258 395 202
f 427 182 147
f 427 51 182
f 157 442 108
f 108 442 97
f 108 292 157
f 108 28 292
f 97 28 108
f 390 333 97
f 97 442 390
f 157 333 390
f 390 442 157
f 349 235 228
f 235 90 228
f 453 349 228
f 228 90 453
f 248 157 375
f 375 321 248
f 321 208 248
f 208 104 248
f 440 191 403
f 440 104 191
f 440 248 104
f 440 403 157
f 157 248 440
f 338 247 271
f 461 134 8
f 8 249 461
f 34 171 272
f 272 203 34
f 161 338 68
f 161 247 338
f 3 475 207
f 3 142 475
f 126 230 42
f 472 106 126
f 126 68 472
f 42 280 126
f 280 68 126
f 186 152 196
f 186 278 152
f 344 278 186
f 186 190 344
f 190 186 318
f 87 190 318
f 318 342 87
f 318 273 342
f 66 162 76
f 113 186 76
f 196 66 76
f 76 186 196
f 79 77 110
f 401 189 79
f 79 189 449
f 449 82 79
f 79 405 401
f 110 57 79
f 57 405 79
f 358 107 178
f 178 233 358
f 358 233 107
f 460 233 357
f 152 233 460
f 460 357 196
f 196 152 460
f 211 344 210
f 211 278 344
f 210 152 211
f 152 278 211
f 331 404 408
f 404 329 408
f 60 24 299
f 24 4 299
f 277 133 372
f 372 329 277
f 133 416 372
f 473 408 372
f 372 408 329
f 317 366 138
f 139 366 317
f 199 85 317
f 317 9 139
f 317 85 9
f 392 427 147
f 338 271 281
f 281 271 327
f 203 327 164
f 327 271 164
f 134 181 356
f 356 8 134
f 171 34 88
f 88 34 134
f 426 181 134
f 134 34 426
f 158 74 137
f 19 158 137
f 180 19 137
f 295 74 158
f 464 177 273
f 273 318 464
f 26 186 113
f 26 318 186
f 113 76 26
f 26 76 283
f 26 464 318
f 192 162 446
f 192 76 162
f 283 76 1
f 432 283 1
f 1 192 446
f 76 192 1
f 1 95 432
f 446 95 1
f 77 79 18
f 18 79 82
f 347 214 145
f 145 50 347
f 347 50 253
f 466 46 347
f 253 466 347
f 364 214 347
f 393 372 80
f 473 372 393
f 260 22 80
f 80 372 260
f 416 22 260
f 260 372 416
f 138 107 23
f 23 317 138
f 23 107 199
f 199 317 23
f 147 395 65
f 65 392 147
f 10 295 151
f 46 386 415
f 415 347 46
f 152 364 21
f 267 152 21
f 105 295 158
f 105 151 295
f 207 10 12
f 10 151 12
f 364 347 37
f 37 21 364
f 42 197 224
f 224 352 42
f 197 128 224
f 224 69 183
f 128 69 224
f 198 256 64
f 198 64 27
f 466 111 340
f 340 46 466
f 340 111 75
f 179 307 286
f 286 388 179
f 286 307 100
f 459 188 450
f 450 20 459
f 459 20 223
f 349 148 459
f 223 191 459
f 459 191 349
f 279 421 428
f 49 294 279
f 428 399 279
f 294 89 279
f 279 149 49
f 399 149 279
f 279 89 337
f 280 123 360
f 360 156 280
f 360 377 144
f 391 212 360
f 360 123 377
f 144 351 360
f 360 96 156
f 58 471 360
f 360 351 58
f 360 212 96
f 9 199 187
f 9 187 155
f 375 292 205
f 205 141 375
f 292 28 205
f 343 175 162
f 369 458 162
f 162 310 343
f 162 458 310
f 252 72 78
f 17 455 78
f 78 455 252
f 147 182 78
f 78 72 147
f 202 112 258
f 112 417 258
f 417 262 258
f 214 334 50
f 214 50 145
f 214 364 334
f 299 276 241
f 299 70 120
f 120 276 299
f 229 290 299
f 299 290 336
f 336 70 299
f 299 83 60
f 241 404 299
f 404 83 299
f 299 4 229
f 281 475 124
f 272 240 281
f 124 437 281
f 281 234 296
f 472 338 281
f 281 240 234
f 281 437 472
f 296 475 281
f 281 327 272
f 453 300 88
f 88 306 453
f 88 251 282
f 88 300 171
f 282 410 88
f 461 251 88
f 168 306 88
f 88 134 461
f 88 410 168
f 426 161 68
f 68 249 426
f 249 8 426
f 426 34 203
f 426 271 247
f 203 164 426
f 426 356 181
f 247 161 426
f 426 164 271
f 8 356 426
f 295 407 457
f 457 98 295
f 295 71 180
f 295 98 71
f 295 172 407
f 10 172 295
f 180 137 295
f 295 137 74
f 26 283 432
f 432 177 26
f 177 464 26
f 115 77 18
f 371 115 18
f 18 82 371
f 393 24 331
f 80 24 393
f 331 408 393
f 393 408 473
f 395 298 65
f 298 51 65
f 51 427 65
f 427 392 65
f 12 126 106
f 462 397 12
f 106 462 12
f 12 3 207
f 397 142 12
f 19 230 12
f 12 158 19
f 142 3 12
f 230 126 12
f 12 105 158
f 151 105 12
f 267 21 37
f 37 386 267
f 37 415 386
f 347 415 37

