# https://github.com/mikedh/trimesh
v -0.00279090 0.03107685 -0.01944795
v -0.01849352 0.02564075 -0.02338616
v -0.02582519 0.02809385 -0.00026181
v -0.01336949 0.03270517 -0.00528575
v -0.02968845 0.02475364 -0.00143687
v -0.00574431 0.03438184 -0.00064822
v -0.00689183 0.02734530 -0.02628264
v -0.01816751 0.03129816 -0.00452985
v -0.00699932 0.03418234 -0.00212234
v -0.02856232 0.02631888 -0.00369180
v -0.00873630 0.02537234 -0.02848113
v -0.01902594 0.03116379 -0.00200854
v -0.01805886 0.02579812 -0.02350327
v -0.00983934 0.02568419 -0.02808650
v -0.00012902 0.02047599 -0.00198084
v -0.00914613 0.02684252 -0.02638371
v -0.01663713 0.02778913 -0.02044599
v -0.00025081 0.02271019 -0.03078491
v -0.00104134 0.03413143 -0.00783162
v -0.01676937 0.03040534 -0.01254343
v -0.01244707 0.03275729 -0.00686801
v -0.01795614 0.02696359 -0.02112478
v -0.02535284 0.02571745 -0.01559119
v -0.00695813 0.03415423 -0.00273431
v -0.01698454 0.02923304 -0.01617145
v -0.00231790 0.03436917 -0.00547173
v -0.02337472 0.02047598 -0.00033854
v -0.00947671 0.03298205 -0.00962203
v -0.01149961 0.03280283 -0.00808742
v -0.01985198 0.02279773 -0.02225210
v -0.02038708 0.02584377 -0.02143026
v -0.00751639 0.02737009 -0.02605784
v -0.01039472 0.02460473 -0.02788781
v -0.00350157 0.03436663 -0.00479891
v -0.01997407 0.03080933 -0.00186687
v -0.00476483 0.03447087 -0.00085240
v -0.00751092 0.02575229 -0.02879905
v -0.02519135 0.02569658 -0.01587016
v -0.02577923 0.02592666 -0.01425925
v -0.00974236 0.02379763 -0.02810948
v -0.01824017 0.02832385 -0.01768663
v -0.01273445 0.02577758 -0.02680333
v -0.02949102 0.02271018 -0.00296529
v -0.02123328 0.02818296 -0.01441757
v -0.02029062 0.02838055 -0.01508874
v -0.02117117 0.03028992 -0.00006125
v -0.01199062 0.03305830 -0.00549480
v -0.01756106 0.03094821 -0.00904540
v -0.02486910 0.02436513 -0.01638198
v -0.00369754 0.03321174 -0.01205008
v -0.00324643 0.03446303 -0.00370304
v -0.01346426 0.03285577 -0.00347640
v -0.00040018 0.02905287 -0.02485090
v -0.02235760 0.02801401 -0.01319507
v -0.01980361 0.02410816 -0.02229299
v -0.00756385 0.03113709 -0.01766751
v -0.00227524 0.03419044 -0.00704101
v -0.02754374 0.02594054 -0.01020943
v -0.01366026 0.03281248 -0.00322924
v -0.01269957 0.03224181 -0.00941553
v -0.02077831 0.03019592 -0.00508390
v -0.01127640 0.03299564 -0.00733585
v -0.00952451 0.03347691 -0.00552769
v -0.02650097 0.02643049 -0.01080975
v -0.02116878 0.02699822 -0.01774423
v -0.02392930 0.02047599 -0.00625923
v -0.02130187 0.02993890 -0.00527943
v -0.02943292 0.02486255 -0.00475054
v -0.01337256 0.03300704 -0.00127742
v -0.01986284 0.03089267 -0.00042893
v -0.00205492 0.03405835 -0.00807640
v -0.00882197 0.03308470 -0.00961811
v -0.00714763 0.03298215 -0.01146579
v -0.00254986 0.03086337 -0.02006294
v -0.01125029 0.03023313 -0.01808540
v -0.01506722 0.02283328 -0.02564809
v -0.00644793 0.03302206 -0.01171893
v -0.01704054 0.03183688 -0.00005203
v -0.02329789 0.02923730 -0.00265656
v -0.02810750 0.02402032 -0.00971799
v -0.00411088 0.03306629 -0.01253798
v -0.00637470 0.03422225 -0.00313906
v -0.00683679 0.03347805 -0.00864069
v -0.02351166 0.02806634 -0.01075459
v -0.01495762 0.02893650 -0.01889164
v -0.00512521 0.03120045 -0.01838861
v -0.01083069 0.03313349 -0.00681570
v -0.01753660 0.03077645 -0.00990756
v -0.01539397 0.02344677 -0.02545174
v -0.00332433 0.03291440 -0.01338321
v -0.00254276 0.03232998 -0.01576213
v -0.00566683 0.03428868 -0.00368113
v -0.01872609 0.02047598 -0.00002861
v -0.00363304 0.03426842 -0.00583364
v -0.01851915 0.02821824 -0.01771905
v -0.02366678 0.02656798 -0.01562273
v -0.02961105 0.02524202 -0.00335324
v -0.02904849 0.02554447 -0.00667318
v -0.00388053 0.03323002 -0.01190576
v -0.01247164 0.03236618 -0.00906399
v -0.00648561 0.02953263 -0.02207970
v -0.02534895 0.02721530 -0.01018826
v -0.01506539 0.03174478 -0.00857139
v -0.02401717 0.02816800 -0.00922506
v -0.00603330 0.03416168 -0.00433871
v -0.01817868 0.02047599 -0.01703318
v -0.00823269 0.02335409 -0.02866131
v -0.01026156 0.03304591 -0.00839262
v -0.02573180 0.02811010 -0.00168073
v -0.00333773 0.02047598 -0.02459740
v -0.00247558 0.03336887 -0.01173601
v -0.01786160 0.02618647 -0.02286279
v -0.02441493 0.02357313 -0.01710332
v -0.01774563 0.03121841 -0.00665897
v -0.02111665 0.02575784 -0.02092652
v -0.02952470 0.02430319 -0.00407859
v -0.00321187 0.03442195 -0.00428897
v -0.00061219 0.03456449 -0.00394992
v -0.00315268 0.03450380 -0.00320914
v -0.02285091 0.02817168 -0.01174824
v -0.00335628 0.03454060 -0.00234710
v -0.00093085 0.03239189 -0.01601977
v -0.00339785 0.03430436 -0.00566651
v -0.02569545 0.02815615 -0.00082562
v -0.01972710 0.03081517 -0.00344196
v -0.02300619 0.02864172 -0.00906501
v -0.00010680 0.03466268 -0.00142739
v -0.02879256 0.02616701 -0.00386387
v -0.02795515 0.02676949 -0.00167531
v -0.00926993 0.02574500 -0.02823032
v -0.00722461 0.03419772 -0.00034287
v -0.02971481 0.02492743 -0.00049950
v -0.00893861 0.02968067 -0.02064886
v -0.02113388 0.02047598 -0.00024040
v -0.02907371 0.02577541 -0.00602553
v -0.00422728 0.03451284 -0.00122522
v -0.00555739 0.03085701 -0.01918847
v -0.00867855 0.02315727 -0.02850179
v -0.02972738 0.02431101 -0.00005253
v -0.01742235 0.02727837 -0.02089396
v -0.01615116 0.02797998 -0.02043699
v -0.00690016 0.02858785 -0.02394283
v -0.00850118 0.03015954 -0.01972006
v -0.02589207 0.02758345 -0.00653576
v -0.00989513 0.02574309 -0.02800994
v -0.02343374 0.02845356 -0.00906012
v -0.01061417 0.03310682 -0.00741021
v -0.00480373 0.03380840 -0.00794839
v -0.00776089 0.03314741 -0.01010338
v -0.01098969 0.02817816 -0.02320886
v -0.00222416 0.03229177 -0.01597921
v -0.01782163 0.02823171 -0.01833260
v -0.00451544 0.03433274 -0.00440206
v -0.00519323 0.03103354 -0.01886632
v -0.02665334 0.02759614 -0.00005356
v -0.00223232 0.02613659 -0.02967579
v -0.01535000 0.02825258 -0.02040006
v -0.02423569 0.02271018 -0.01703321
v -0.00978440 0.02655562 -0.02664967
v -0.01903262 0.03101533 -0.00464868
v -0.02525290 0.02800159 -0.00625099
v -0.00701430 0.02047599 -0.02384582
v -0.00919366 0.02937964 -0.02124184
v -0.00841134 0.03397268 -0.00014851
v -0.00449840 0.03448364 -0.00138596
v -0.00857389 0.02791010 -0.02470758
v -0.01702265 0.03109426 -0.00918223
v -0.00758063 0.02905466 -0.02272938
v -0.02584158 0.02802950 -0.00219088
v -0.01776794 0.02809606 -0.01872255
v -0.02336512 0.02571270 -0.01840399
v -0.00566511 0.03409640 -0.00532293
v -0.01657213 0.02271018 -0.02452312
v -0.01516071 0.03126025 -0.01118413
v -0.00081250 0.03061654 -0.02116455
v -0.02957854 0.02565227 -0.00371953
v -0.01613949 0.03071522 -0.01226136
v -0.01098375 0.02564895 -0.02767707
v -0.02969624 0.02567063 -0.00115995
v -0.02712537 0.02577925 -0.01203086
v -0.01968976 0.02315822 -0.02238878
v -0.00836904 0.02626027 -0.02766488
v -0.02949518 0.02276689 -0.00330712
v -0.01414100 0.03167850 -0.01038656
v -0.00770770 0.03317878 -0.00994072
v -0.00600330 0.02558669 -0.02930162
v -0.01316443 0.03109390 -0.01413355
v -0.00114884 0.03465697 -0.00146583
v -0.02306868 0.02737009 -0.01407694
v -0.00799964 0.02663400 -0.02715315
v -0.01121324 0.03313740 -0.00617540
v -0.00007265 0.03456610 -0.00406664
v -0.00861093 0.03386469 -0.00253401
v -0.00817735 0.03062237 -0.01877511
v -0.02415199 0.02699022 -0.01353892
v -0.01143931 0.03070980 -0.01671358
v -0.00847106 0.03391641 -0.00206465
v -0.01961724 0.02275574 -0.02242141
v -0.00030658 0.02808650 -0.02685349
v -0.02869707 0.02591277 -0.00671161
v -0.02540496 0.02569024 -0.01553089
v -0.01634841 0.02784568 -0.02056909
v -0.02490629 0.02846973 -0.00299102
v -0.00054082 0.02815836 -0.02664261
v -0.01939627 0.02589311 -0.02223911
v -0.00724942 0.03106910 -0.01802844
v -0.02438099 0.02549056 -0.01715722
v -0.00271116 0.03462925 -0.00031802
v -0.00078147 0.02632809 -0.02977143
v -0.02139588 0.02945801 -0.00837702
v -0.02376522 0.02585486 -0.01755641
v -0.00563315 0.03437354 -0.00163842
v -0.01946191 0.03045185 -0.00744324
v -0.01554586 0.03101010 -0.01192891
v -0.00039629 0.03469178 -0.00066419
v -0.02779321 0.02292429 -0.01060427
v -0.01318917 0.02830643 -0.02175727
v -0.00052162 0.03233467 -0.01632692
v -0.00547853 0.03439813 -0.00120605
v -0.01055986 0.03340965 -0.00422173
v -0.01183174 0.03322760 -0.00339608
v -0.00223326 0.02275356 -0.03038402
v -0.00676924 0.02851526 -0.02412996
v -0.01868108 0.02531628 -0.02323433
v -0.01502491 0.02580799 -0.02550312
v -0.00315831 0.03461435 -0.00052387
v -0.00248473 0.03415093 -0.00726643
v -0.00800755 0.02547778 -0.02872619
v -0.01334445 0.02047599 -0.02100415
v -0.02839280 0.02271018 -0.00843707
v -0.01987485 0.02539835 -0.02223011
v -0.01186260 0.02938469 -0.01985890
v -0.00380423 0.03306518 -0.01265114
v -0.00050456 0.02758373 -0.02772679
v -0.00599806 0.03374303 -0.00753367
v -0.00574815 0.03428874 -0.00355385
v -0.00327208 0.02574948 -0.03002080
v -0.00952777 0.03086567 -0.01749639
v -0.00120631 0.02585760 -0.03043462
v -0.00204202 0.03410673 -0.00779393
v -0.02873745 0.02550671 -0.00780950
v -0.02085113 0.02618271 -0.02020402
v -0.00072085 0.02271019 -0.03069391
v -0.00325211 0.03433170 -0.00541817
v -0.00389969 0.02772042 -0.02650330
v -0.01917959 0.02696473 -0.02001149
v -0.00669212 0.03297365 -0.01176125
v -0.00780549 0.02623410 -0.02789866
v -0.00744854 0.02829419 -0.02435724
v -0.00095283 0.03341048 -0.01197490
v -0.00022118 0.02047598 -0.00476042
v -0.02488871 0.02823178 -0.00596909
v -0.01452140 0.03096447 -0.01334761
v -0.00356534 0.03455288 -0.00176339
v -0.00394681 0.03454338 -0.00104744
v -0.02966044 0.02546541 -0.00243292
v -0.02466973 0.02808614 -0.00762304
v -0.01660622 0.03194725 -0.00191039
v -0.01313092 0.03283170 -0.00476420
v -0.00525821 0.03085115 -0.01929947
v -0.00343251 0.03448460 -0.00321551
v -0.01170828 0.02610538 -0.02669950
v -0.01240723 0.02565687 -0.02709005
v -0.02924978 0.02287156 -0.00555524
v -0.01264255 0.03315316 -0.00138192
v -0.02943455 0.02280639 -0.00440242
v -0.02941235 0.02393932 -0.00489619
v -0.02858802 0.02621701 -0.00468857
v -0.01054108 0.02815231 -0.02348741
v -0.02297278 0.02658105 -0.01664369
v -0.01414105 0.02324104 -0.02624015
v -0.02384099 0.02576972 -0.01768409
v -0.02318795 0.02928931 -0.00263928
v -0.00580244 0.03437506 -0.00077381
v -0.02429124 0.02321934 -0.01729348
v -0.01086046 0.03251130 -0.01030274
v -0.00984370 0.03300765 -0.00913605
v -0.01462129 0.03259720 -0.00161741
v -0.02468838 0.02858930 -0.00274375
v -0.00751789 0.03270560 -0.01224626
v -0.00924359 0.03145793 -0.01570201
v -0.00279678 0.03461935 -0.00119912
v -0.01359738 0.03295088 -0.00017483
v -0.01333525 0.02774175 -0.02282459
v -0.02569443 0.02776436 -0.00606304
v -0.02700701 0.02590611 -0.01178850
v -0.00107634 0.03083284 -0.02056648
v -0.00483384 0.03437425 -0.00331304
v -0.00222277 0.03461854 -0.00215231
v -0.01517369 0.03100970 -0.01237056
v -0.00009463 0.02567921 -0.03099805
v -0.00377138 0.03452212 -0.00208952
v -0.00905399 0.02307367 -0.02834589
v -0.00012258 0.03088653 -0.02070194
v -0.02860841 0.02498369 -0.00819630
v -0.00408905 0.03327418 -0.01156188
v -0.00138232 0.03465952 -0.00112773
v -0.01003068 0.02271019 -0.02777136
v -0.00868720 0.03389785 -0.00140917
v -0.00931646 0.03255196 -0.01155737
v -0.02106058 0.02688297 -0.01817035
v -0.01881790 0.02508758 -0.02312235
v -0.00121699 0.03455359 -0.00392810
v -0.01877773 0.03091806 -0.00630680
v -0.00727336 0.02810486 -0.02480090
v -0.00253867 0.03299954 -0.01330144
v -0.02734079 0.02685048 -0.00559896
v -0.00125128 0.03467659 -0.00001407
v -0.00288595 0.03343188 -0.01126381
v -0.00964261 0.02048739 -0.02300047
v -0.01498430 0.03132429 -0.01109347
v -0.00307103 0.03350726 -0.01079274
v -0.00335540 0.02814357 -0.02586678
v -0.02945764 0.02271018 -0.00354722
v -0.02510783 0.02626069 -0.01429034
v -0.00635248 0.03423532 -0.00302581
v -0.02699028 0.02611314 -0.01098756
v -0.00618785 0.02899203 -0.02332349
v -0.00183203 0.02582105 -0.03031557
v -0.01792518 0.03059221 -0.01003206
v -0.02094702 0.02750856 -0.01669906
v -0.00342376 0.03440308 -0.00437670
v -0.02441739 0.02844486 -0.00601457
v -0.02754358 0.02422927 -0.01142645
v -0.02881565 0.02277441 -0.00703753
v -0.02572512 0.02811794 -0.00154554
v -0.02799070 0.02356214 -0.01004870
v -0.02221570 0.02903454 -0.00877098
v -0.00032922 0.03304524 -0.01375465
v -0.02219058 0.02835432 -0.01224061
v -0.01931794 0.02558311 -0.02270163
v -0.00677028 0.03410508 -0.00373689
v -0.00693871 0.02271019 -0.02887010
v -0.02101034 0.02787901 -0.01567018
v -0.00003508 0.02047598 -0.00481435
v -0.00244324 0.03448807 -0.00397814
v -0.00243554 0.03461386 -0.00211390
v -0.01029033 0.03361347 -0.00016615
v -0.01020100 0.03209033 -0.01267588
v -0.00898421 0.02819737 -0.02400963
v -0.02800674 0.02620318 -0.00741947
v -0.00359174 0.02570159 -0.02999400
v -0.00001122 0.02047598 -0.01927220
v -0.00955836 0.03101414 -0.01707788
v -0.01820486 0.03054079 -0.00972432
v -0.00407617 0.03259475 -0.01434049
v -0.00417760 0.03445731 -0.00271832
v -0.00963262 0.02825974 -0.02364827
v -0.01225049 0.02886007 -0.02092136
v -0.00504010 0.03442735 -0.00163573
v -0.01254406 0.02049869 -0.02155976
v -0.00221807 0.03404712 -0.00808800
v -0.02893984 0.02564414 -0.00718193
v -0.02819213 0.02410245 -0.00946000
v -0.00612231 0.03429270 -0.00276053
v -0.01002498 0.03107885 -0.01660926
v -0.01996731 0.03084479 -0.00038856
v -0.01332799 0.02566471 -0.02663870
v -0.00840203 0.02420642 -0.02860072
v -0.00334514 0.03443837 -0.00395961
v -0.01378678 0.02587746 -0.02610013
v -0.01407675 0.02047598 -0.00005556
v -0.01026374 0.02810881 -0.02371084
v -0.00165805 0.03299053 -0.01359527
v -0.00158243 0.03098266 -0.02003820
v -0.01888670 0.02808500 -0.01765647
v -0.00579174 0.03010346 -0.02093965
v -0.00345667 0.03455809 -0.00187010
v -0.02855413 0.02560431 -0.00836487
v -0.02618376 0.02271018 -0.01375257
v -0.01910356 0.02274625 -0.02278462
v -0.01062490 0.03302406 -0.00813475
v -0.02758967 0.02673406 -0.00532570
v -0.00581623 0.03422235 -0.00408999
v -0.01652935 0.02759175 -0.02095681
v -0.00055113 0.03212850 -0.01697399
v -0.02601096 0.02545937 -0.01453283
v -0.01803589 0.03086334 -0.00846319
v -0.02708965 0.02568910 -0.01236412
v -0.01386025 0.02972842 -0.01759059
v -0.00674330 0.03094685 -0.01855099
v -0.02541231 0.02826102 -0.00230062
v -0.01423304 0.02433179 -0.02619505
v -0.00635944 0.03431206 -0.00142087
v -0.01655689 0.03099327 -0.01053430
v -0.00082189 0.02944712 -0.02392648
v -0.01861135 0.03101286 -0.00603059
v -0.01763579 0.02871426 -0.01710721
v -0.02187040 0.02565989 -0.02020447
v -0.00346767 0.02574121 -0.02997836
v -0.02024960 0.02849692 -0.01470530
v -0.00212406 0.02957652 -0.02327929
v -0.01357460 0.03291406 -0.00193455
v -0.01935736 0.03089466 -0.00453889
v -0.00664340 0.03139760 -0.01725072
v -0.02579516 0.02773065 -0.00583111
v -0.01311860 0.02423830 -0.02674134
v -0.01206873 0.02926755 -0.02003177
v -0.01081630 0.02733778 -0.02486277
v -0.00646583 0.02586470 -0.02891127
v -0.02113079 0.02519129 -0.02102249
v -0.01962482 0.03097301 -0.00179010
v -0.02894329 0.02612018 -0.00335235
v -0.00044243 0.03034196 -0.02193255
v -0.02371577 0.02738951 -0.01295305
v -0.00141473 0.03302641 -0.01352254
v -0.00539888 0.03111349 -0.01856287
v -0.02549477 0.02812616 -0.00373867
v -0.00273535 0.02813562 -0.02606075
v -0.00598982 0.03427037 -0.00335571
v -0.01808811 0.03051493 -0.01008438
v -0.02108222 0.02818864 -0.01462998
v -0.01248355 0.02807275 -0.02263788
v -0.00526305 0.03439292 -0.00209232
v -0.02491404 0.02854379 -0.00000604
v -0.00307375 0.03351173 -0.01076732
v -0.02551656 0.02793706 -0.00541748
v -0.01142661 0.02531148 -0.02751399
v -0.02433600 0.02520857 -0.01722868
v -0.02679296 0.02271018 -0.01266527
v -0.00041572 0.03404485 -0.00865385
v -0.01573645 0.03103302 -0.01158361
v -0.02209758 0.02047598 -0.00005055
v -0.00789393 0.03238287 -0.01319074
v -0.02395954 0.02827982 -0.00863573
v -0.01840017 0.02806343 -0.01822301
v -0.02131712 0.02776915 -0.01556867
v -0.00387079 0.03428027 -0.00559348
v -0.00530091 0.03190839 -0.01618616
v -0.02468192 0.02047598 -0.00241869
v -0.01635891 0.03165901 -0.00650576
v -0.01555427 0.03110301 -0.01146807
v -0.02900885 0.02610556 -0.00268862
v -0.00024809 0.02047598 -0.02449797
v -0.01539720 0.02047599 -0.01942340
v -0.00470597 0.03180775 -0.01670129
v -0.01278698 0.03306727 -0.00314267
v -0.00681509 0.02788372 -0.02535685
v -0.00532421 0.03429883 -0.00400494
v -0.01219986 0.03295690 -0.00594873
v -0.01974529 0.03092900 -0.00127795
v -0.01812674 0.02619348 -0.02265588
v -0.01230436 0.03111224 -0.01483769
v -0.00446119 0.03426447 -0.00524751
v -0.00302178 0.03333801 -0.01171717
v -0.02181509 0.02047599 -0.01214814
v -0.00764236 0.02814410 -0.02459417
v -0.00657775 0.03103370 -0.01837873
v -0.02499079 0.02375024 -0.01615560
v -0.02815163 0.02278974 -0.00933753
v -0.02690980 0.02290317 -0.01257500
v -0.02341638 0.02699693 -0.01468639
v -0.01285286 0.03258058 -0.00724941
v -0.02906845 0.02606396 -0.00289796
v -0.00896399 0.03342717 -0.00684058
v -0.02914683 0.02398447 -0.00613396
v -0.00735091 0.02811834 -0.02474747
v -0.02497770 0.02845546 -0.00268752
v -0.02466013 0.02398309 -0.01671388
v -0.02372463 0.02823384 -0.00958774
v -0.01016956 0.02047599 -0.02261223
v -0.02755507 0.02559794 -0.01139159
v -0.00418685 0.03223338 -0.01558538
v -0.01108113 0.03332310 -0.00410596
v -0.01298124 0.03133029 -0.01331600
v -0.00564724 0.02771873 -0.02600263
v -0.00015007 0.03160512 -0.01865372
v -0.02857996 0.02637292 -0.00238670
v -0.00437596 0.03233434 -0.01520887
v -0.01651704 0.02813719 -0.01976415
v -0.02878117 0.02608337 -0.00488526
v -0.01245017 0.02846575 -0.02176711
v -0.00542906 0.03424766 -0.00437774
v -0.01467074 0.02321354 -0.02593314
v -0.01199225 0.03308750 -0.00513294
v -0.00881183 0.03322711 -0.00862200
v -0.00827689 0.02727803 -0.02594405
v -0.01393349 0.02633260 -0.02517451
v -0.01222915 0.03314167 -0.00362837
v -0.01130848 0.02638752 -0.02637069
v -0.00209158 0.03460958 -0.00261688
v -0.01940891 0.03081901 -0.00502709
v -0.00422089 0.03300871 -0.01273263
v -0.00119961 0.02047598 -0.02396575
v -0.00002813 0.02970207 -0.02359119
v -0.00209892 0.03436745 -0.00554601
v -0.00744096 0.02755906 -0.02575926
v -0.00018980 0.02868443 -0.02566236
v -0.02754790 0.02527871 -0.01141332
v -0.00395696 0.03426912 -0.00560464
v -0.00107079 0.02047598 -0.02123827
v -0.00697141 0.02879861 -0.02347931
v -0.00779880 0.03329108 -0.00908980
v -0.01309118 0.03307684 -0.00032653
v -0.00702288 0.03414161 -0.00274874
v -0.02270229 0.02814753 -0.01215775
v -0.00003587 0.03455759 -0.00427514
v -0.00033575 0.03186701 -0.01781765
v -0.02743894 0.02294501 -0.01161967
v -0.02401141 0.02612527 -0.01645301
v -0.01296084 0.02276058 -0.02671106
v -0.01227504 0.03299643 -0.00550299
v -0.02943113 0.02341192 -0.00476327
v -0.00709326 0.03421995 -0.00066500
v -0.02483127 0.02347613 -0.01640736
v -0.00886479 0.03387878 -0.00096309
v -0.01070785 0.02728339 -0.02500951
v -0.00413521 0.03449052 -0.00209725
v -0.00145310 0.03462046 -0.00257561
v -0.01810417 0.02542698 -0.02364778
v -0.00959406 0.02819350 -0.02379973
v -0.00141188 0.02271019 -0.03055534
v -0.02705022 0.02733447 -0.00099773
v -0.00397685 0.03317381 -0.01211670
v -0.01503338 0.02328606 -0.02569175
v -0.00589412 0.03101885 -0.01867098
v -0.01366509 0.02337921 -0.02646112
v -0.00816370 0.03320110 -0.00939386
v -0.00638728 0.03321905 -0.01059974
v -0.00873464 0.03296701 -0.01035803
v -0.01125574 0.03325788 -0.00460630
v -0.00435580 0.02949390 -0.02282268
v -0.00015215 0.02843864 -0.02617784
v -0.00445337 0.03093143 -0.01934220
v -0.00488528 0.03445056 -0.00131754
v -0.00069877 0.03329421 -0.01256884
v -0.01275359 0.02047598 -0.00007287
v -0.01631487 0.03207271 -0.00000821
v -0.01250365 0.03160884 -0.01259017
v -0.01377358 0.03276749 -0.00338270
v -0.02968376 0.02564406 -0.00160368
v -0.00534320 0.03128606 -0.01805934
v -0.00376374 0.02593603 -0.02957019
v -0.01523278 0.03118593 -0.01145999
v -0.00336529 0.03440416 -0.00440865
v -0.00894171 0.03322681 -0.00848828
v -0.02965797 0.02490007 -0.00224445
v -0.01111637 0.03235341 -0.01075037
v -0.01380901 0.02271019 -0.02619910
v -0.00141418 0.03081225 -0.02051819
v -0.02739980 0.02707681 -0.00265830
v -0.02758470 0.02368804 -0.01130188
v -0.01267091 0.03085839 -0.01541828
v -0.02169827 0.02271018 -0.02016096
v -0.00451129 0.03420155 -0.00564620
v -0.00605411 0.02961073 -0.02204665
v -0.02789541 0.02629759 -0.00725809
v -0.02944684 0.02584797 -0.00204323
v -0.00382950 0.03456501 -0.00025357
v -0.02129143 0.02558045 -0.02086804
v -0.00119153 0.02271019 -0.03060248
v -0.02109340 0.02788549 -0.01555343
v -0.01349006 0.03093501 -0.01445362
v -0.01299261 0.02422968 -0.02679531
v -0.00899790 0.03096253 -0.01753559
v -0.01995341 0.02689610 -0.01942536
v -0.00672329 0.02767931 -0.02576567
v -0.00924210 0.02561559 -0.02830017
v -0.01043712 0.02588307 -0.02757486
v -0.00438079 0.03433779 -0.00445253
v -0.01200382 0.03106604 -0.01528596
v -0.02525925 0.02837607 -0.00030638
v -0.00837782 0.03283949 -0.01114822
v -0.02618271 0.02740863 -0.00657861
v -0.02718634 0.02271019 -0.00000790
v -0.00797547 0.03075064 -0.01856468
v -0.00212686 0.03460327 -0.00268857
v -0.00658964 0.03429695 -0.00103712
v -0.00291802 0.03460658 -0.00175984
v -0.01657751 0.03091331 -0.01085757
v -0.02428680 0.02307823 -0.01729844
v -0.01102616 0.02606583 -0.02704895
v -0.00822075 0.02809089 -0.02448893
v -0.00082184 0.02282967 -0.03078925
v -0.00412525 0.03452395 -0.00116074
v -0.02173847 0.02996235 -0.00256415
v -0.00378218 0.03430188 -0.00543323
v -0.00759429 0.03412840 -0.00019452
v -0.01078422 0.02277129 -0.02761102
v -0.02956556 0.02520303 -0.00381149
v -0.01309177 0.03036237 -0.01646931
v -0.01863639 0.03128435 -0.00216382
v -0.01481700 0.03075124 -0.01370450
v -0.02914050 0.02449926 -0.00623422
v -0.00723052 0.02706602 -0.02665724
v -0.01620204 0.03090418 -0.01147752
v -0.00057473 0.02603827 -0.03031627
v -0.02089915 0.02715658 -0.01765950
v -0.01451467 0.02556324 -0.02603702
v -0.00015545 0.03470830 -0.00019679
v -0.02339343 0.02641749 -0.01651226
v -0.00538111 0.03441718 -0.00051624
v -0.02936692 0.02522964 -0.00515400
v -0.02034759 0.02672592 -0.01941538
v -0.01987242 0.02809508 -0.01646608
v -0.02488054 0.02820806 -0.00625680
v -0.00658183 0.03308292 -0.01130148
v -0.02041956 0.02569893 -0.02170636
v -0.01244149 0.03070721 -0.01602582
v -0.01399360 0.03114943 -0.01309819
v -0.00003287 0.03373982 -0.01044759
v -0.00693440 0.02300039 -0.02903431
v -0.00527864 0.03290307 -0.01270328
v -0.01318203 0.03304480 -0.00160600
v -0.01537829 0.02561186 -0.02546217
v -0.01882134 0.02578075 -0.02296652
v -0.01118077 0.03058186 -0.01722578
v -0.00023696 0.03394806 -0.00924064
v -0.01525062 0.03023188 -0.01488731
v -0.00180286 0.02776908 -0.02701669
v -0.00713078 0.03305131 -0.01115144
v -0.02588247 0.02290373 -0.01442979
v -0.01952343 0.03102349 -0.00062802
v -0.01767229 0.03083718 -0.00936680
v -0.02575089 0.02804431 -0.00309168
v -0.01372277 0.02328244 -0.02643087
v -0.02268298 0.02047598 -0.00017368
v -0.00614922 0.02814751 -0.02505469
v -0.00381222 0.03438514 -0.00429612
v -0.00177645 0.02764864 -0.02724474
v -0.02485264 0.02047598 -0.00044843
v -0.00481822 0.03446378 -0.00097732
v -0.00038818 0.02423392 -0.03091375
v -0.01111179 0.02047599 -0.02225016
v -0.01700509 0.02048879 -0.01814460
v -0.00861338 0.02522959 -0.02852510
v -0.00749597 0.02772005 -0.02545538
v -0.01355080 0.02817889 -0.02183867
v -0.02474495 0.02578826 -0.01633638
v -0.01311626 0.03146078 -0.01264937
v -0.01940969 0.03103151 -0.00226636
v -0.00796076 0.02324667 -0.02873963
v -0.01595629 0.03203557 -0.00398288
v -0.02919947 0.02414578 -0.00595288
v -0.00688806 0.02831512 -0.02450424
v -0.01695430 0.03144168 -0.00681371
v -0.01629367 0.02790653 -0.02048319
v -0.00057951 0.03266590 -0.01511243
v -0.01036124 0.03192488 -0.01320357
v -0.00593012 0.03399982 -0.00578255
v -0.00429385 0.03232620 -0.01526719
v -0.02966965 0.02443059 -0.00164597
v -0.01534169 0.02847712 -0.01982131
v -0.00036903 0.02963253 -0.02365849
v -0.01573946 0.02353518 -0.02521315
v -0.02112864 0.02886204 -0.01189431
v -0.00777158 0.03311510 -0.01030155
v -0.00359238 0.03452550 -0.00229772
v -0.01707327 0.02561777 -0.02433396
v -0.02059634 0.02577188 -0.02139452
v -0.01279615 0.03297292 -0.00438170
v -0.01674641 0.03177305 -0.00416773
v -0.01625628 0.02810187 -0.02008101
v -0.00950570 0.03087245 -0.01749141
v -0.01439070 0.02601487 -0.02551975
v -0.00997872 0.02289907 -0.02795228
v -0.00948869 0.03375332 -0.00122002
v -0.01698120 0.03098757 -0.00990695
v -0.00310057 0.03100740 -0.01954048
v -0.00119292 0.02953031 -0.02365095
v -0.02638247 0.02775208 -0.00046621
v -0.00060070 0.03238393 -0.01614228
v -0.01225297 0.02588330 -0.02684104
v -0.02956408 0.02559899 -0.00382195
v -0.00235701 0.03401879 -0.00820035
v -0.00349360 0.03458522 -0.00100570
v -0.01395912 0.03095491 -0.01397048
v -0.00048995 0.02662479 -0.02935369
v -0.02015486 0.02806885 -0.01619967
v -0.00584239 0.03437413 -0.00047325
v -0.01401410 0.02319383 -0.02630238
v -0.01551962 0.02854669 -0.01951150
v -0.01962479 0.02280548 -0.02241898
v -0.01733803 0.03117366 -0.00793789
v -0.01887315 0.03064312 -0.00779100
v -0.02317074 0.02274073 -0.01854501
v -0.01676112 0.03051021 -0.01216647
v -0.01335556 0.03294644 -0.00259002
v -0.00061013 0.02047598 -0.01176170
v -0.01029727 0.03277430 -0.00971343
v -0.02537444 0.02716550 -0.01033032
v -0.00687902 0.02838488 -0.02436455
v -0.02967691 0.02278331 -0.00013708
v -0.00775853 0.02771839 -0.02535987
v -0.00367831 0.03430103 -0.00551607
v -0.02084215 0.02651970 -0.01935986
v -0.02187308 0.02837987 -0.01264391
v -0.01351313 0.02751073 -0.02317072
v -0.00859015 0.03195789 -0.01430552
v -0.01904700 0.02653755 -0.02110292
v -0.02164055 0.02795548 -0.01449066
v -0.02299844 0.02776477 -0.01296146
v -0.00010949 0.03116314 -0.01998401
v -0.02926256 0.02599604 -0.00001371
v -0.01234024 0.03271834 -0.00726161
v -0.00778218 0.02588487 -0.02849636
v -0.02829227 0.02573634 -0.00902017
v -0.00003169 0.02098864 -0.02487177
v -0.00712316 0.02901767 -0.02296976
v -0.02430130 0.02047598 -0.00457891
v -0.01219194 0.03074498 -0.01610043
v -0.00805153 0.02403278 -0.02871357
v -0.00746756 0.03379421 -0.00563853
v -0.02949835 0.02413540 -0.00428731
v -0.01346806 0.03293331 -0.00219226
v -0.02942614 0.02292715 -0.00465109
v -0.00827342 0.03103109 -0.01767912
v -0.00243447 0.03450154 -0.00381183
v -0.02569568 0.02815936 -0.00070716
v -0.01744327 0.03130309 -0.00674780
v -0.01065733 0.03042575 -0.01797422
v -0.00355231 0.03447602 -0.00321366
v -0.02965530 0.02575062 -0.00027261
v -0.00084858 0.03287826 -0.01424910
v -0.01922176 0.03099658 -0.00392225
v -0.02869935 0.02606529 -0.00546724
v -0.00870176 0.03308769 -0.00970610
v -0.02938666 0.02440892 -0.00505981
v -0.00272081 0.03447700 -0.00392742
v -0.01279475 0.02861598 -0.02122477
v -0.02070302 0.02575626 -0.02132787
v -0.01034684 0.03314401 -0.00746652
v -0.01866049 0.02271018 -0.02308538
v -0.02903626 0.02543227 -0.00673151
v -0.00374583 0.03452459 -0.00208132
v -0.01150141 0.02603017 -0.02693138
v -0.00075458 0.02047598 -0.02445518
v -0.02922247 0.02597776 -0.00249954
v -0.01386230 0.03283635 -0.00168729
v -0.00006915 0.02047598 -0.02167503
v -0.02245511 0.02800446 -0.01307292
v -0.00978725 0.03305958 -0.00884246
v -0.02005818 0.03012876 -0.00784839
v -0.01012948 0.02809195 -0.02379478
v -0.01208642 0.02818998 -0.02261717
v -0.02174976 0.02603058 -0.01953261
v -0.01910124 0.02701152 -0.01997683
v -0.01961742 0.02615902 -0.02144477
v -0.00065794 0.02301973 -0.03083631
v -0.01043551 0.02818184 -0.02348466
v -0.01543574 0.03164793 -0.00854681
v -0.01898237 0.03101467 -0.00485044
v -0.02655144 0.02752913 -0.00353818
v -0.00838588 0.02301177 -0.02860650
v -0.01981590 0.02511737 -0.02228264
v -0.02546031 0.02819267 -0.00325945
v -0.00032387 0.02047599 -0.00029013
v -0.02450970 0.02557083 -0.01695279
v -0.02937673 0.02337138 -0.00510723
v -0.02218667 0.02976381 -0.00244213
v -0.00808646 0.02778732 -0.02511277
f 590 747 15
f 698 18 291
f 343 698 485
f 485 698 291
f 343 485 601
f 335 15 251
f 430 446 621
f 310 333 162
f 291 18 623
f 623 739 291
f 18 739 623
f 501 76 671
f 539 501 310
f 539 76 501
f 298 333 310
f 329 601 467
f 467 601 693
f 693 601 485
f 485 294 693
f 683 43 621
f 451 420 499
f 370 158 446
f 446 420 370
f 700 66 446
f 446 430 700
f 730 698 343
f 512 162 333
f 310 501 579
f 579 298 310
f 333 298 579
f 218 329 467
f 497 335 343
f 343 601 497
f 134 251 15
f 139 683 565
f 565 694 139
f 415 694 565
f 423 683 621
f 423 565 683
f 139 694 713
f 446 66 230
f 230 420 446
f 66 700 230
f 698 730 434
f 18 698 434
f 434 110 18
f 222 512 333
f 222 602 291
f 18 110 243
f 110 162 551
f 162 512 551
f 551 243 110
f 587 668 291
f 539 351 173
f 76 539 173
f 293 40 138
f 544 30 198
f 676 30 544
f 198 30 673
f 102 697 104
f 353 176 135
f 335 497 127
f 590 15 127
f 127 15 335
f 308 747 590
f 611 77 73
f 46 357 70
f 70 415 46
f 78 69 613
f 613 70 78
f 78 70 357
f 78 357 46
f 494 283 338
f 69 283 494
f 527 15 747
f 527 134 15
f 747 308 527
f 5 683 139
f 98 176 353
f 98 593 176
f 264 325 266
f 749 634 264
f 264 634 456
f 314 230 700
f 314 325 230
f 266 325 314
f 314 700 430
f 621 43 314
f 314 430 621
f 291 739 574
f 574 222 291
f 512 222 574
f 574 551 512
f 243 551 574
f 574 739 18
f 18 243 574
f 198 625 106
f 106 544 198
f 676 544 106
f 446 158 106
f 621 446 106
f 158 676 106
f 110 434 727
f 727 106 110
f 291 668 234
f 234 199 291
f 501 671 616
f 671 517 616
f 554 671 397
f 554 517 671
f 418 178 33
f 418 33 138
f 138 40 418
f 418 554 397
f 178 418 263
f 263 418 397
f 2 89 645
f 645 89 76
f 510 89 2
f 271 671 76
f 76 474 271
f 76 89 515
f 515 474 76
f 723 625 198
f 76 173 723
f 744 293 138
f 333 579 744
f 744 222 333
f 602 222 744
f 181 30 55
f 181 224 673
f 181 673 30
f 363 42 361
f 607 344 711
f 571 676 158
f 158 370 571
f 401 30 676
f 377 451 499
f 499 379 377
f 353 697 462
f 462 369 353
f 353 369 241
f 372 277 311
f 452 692 189
f 692 496 731
f 731 189 692
f 180 462 697
f 379 462 180
f 681 102 84
f 84 102 104
f 460 84 104
f 200 697 353
f 353 135 200
f 218 376 151
f 498 218 467
f 498 376 218
f 638 714 329
f 611 73 520
f 469 395 707
f 707 344 469
f 707 555 344
f 566 555 707
f 631 125 402
f 402 70 613
f 402 12 631
f 528 283 69
f 69 78 528
f 415 565 528
f 565 308 528
f 46 415 528
f 528 78 46
f 251 134 679
f 134 491 679
f 621 27 617
f 617 423 621
f 134 527 617
f 362 527 308
f 179 713 176
f 176 580 97
f 230 325 450
f 450 216 499
f 499 420 450
f 420 230 450
f 176 593 664
f 593 68 664
f 718 68 593
f 353 456 584
f 456 634 584
f 749 264 706
f 706 264 266
f 706 503 749
f 266 314 183
f 43 683 183
f 183 314 43
f 229 173 351
f 229 723 173
f 621 106 484
f 106 727 484
f 484 27 621
f 484 617 27
f 484 491 134
f 134 617 484
f 668 587 209
f 199 234 610
f 186 342 228
f 228 359 626
f 228 342 702
f 228 107 359
f 702 107 228
f 37 342 186
f 186 228 37
f 37 228 558
f 42 263 358
f 589 225 358
f 358 361 42
f 225 361 358
f 649 510 2
f 383 474 589
f 383 271 474
f 589 358 383
f 371 723 198
f 76 723 371
f 632 744 107
f 602 744 632
f 632 107 702
f 291 602 632
f 632 342 291
f 702 342 632
f 656 744 579
f 293 744 656
f 224 181 302
f 363 361 478
f 1 659 154
f 612 571 370
f 420 451 612
f 612 370 420
f 451 505 612
f 505 571 612
f 676 571 550
f 550 401 676
f 550 571 389
f 449 505 451
f 451 377 449
f 449 571 505
f 449 377 571
f 324 379 499
f 500 272 629
f 452 189 500
f 353 241 295
f 295 241 354
f 167 658 48
f 388 609 667
f 191 372 62
f 372 29 62
f 62 29 658
f 147 372 191
f 277 372 732
f 732 72 277
f 391 45 412
f 366 556 594
f 412 45 552
f 594 556 242
f 48 658 88
f 64 102 681
f 697 102 64
f 379 180 39
f 39 23 379
f 58 180 697
f 120 496 681
f 681 84 120
f 84 460 120
f 330 496 120
f 120 460 330
f 304 675 213
f 213 675 733
f 378 304 48
f 378 675 304
f 733 675 328
f 675 378 328
f 328 378 48
f 576 402 125
f 576 125 394
f 613 69 278
f 278 402 613
f 12 402 278
f 715 160 394
f 715 125 631
f 394 125 715
f 122 638 662
f 662 91 122
f 329 218 662
f 662 638 329
f 469 77 603
f 603 483 469
f 77 483 603
f 497 509 192
f 590 127 192
f 192 127 497
f 289 297 590
f 337 297 289
f 670 549 592
f 569 297 337
f 469 281 689
f 356 281 469
f 469 344 356
f 356 689 281
f 344 607 356
f 563 520 73
f 300 520 563
f 247 73 77
f 247 77 469
f 429 395 469
f 532 429 436
f 381 101 566
f 546 101 381
f 532 436 407
f 711 344 238
f 448 381 206
f 566 707 206
f 206 381 566
f 111 250 526
f 526 250 601
f 601 329 526
f 277 72 28
f 28 72 520
f 35 576 750
f 402 576 35
f 504 494 338
f 220 521 464
f 220 464 24
f 565 423 93
f 93 308 565
f 93 362 308
f 139 713 132
f 713 179 132
f 116 97 580
f 503 706 116
f 68 718 267
f 267 718 749
f 749 503 267
f 724 98 353
f 353 584 724
f 435 106 625
f 625 723 435
f 723 229 435
f 239 587 291
f 620 610 234
f 11 228 626
f 558 228 11
f 342 37 390
f 291 342 390
f 390 237 291
f 14 37 558
f 399 42 363
f 363 511 734
f 734 511 166
f 2 225 605
f 605 649 2
f 605 225 589
f 25 388 95
f 25 609 388
f 95 45 25
f 655 361 225
f 655 478 361
f 688 478 655
f 688 284 413
f 472 735 217
f 711 555 232
f 232 398 711
f 75 607 711
f 711 398 75
f 720 472 217
f 349 472 720
f 720 232 349
f 398 232 720
f 380 599 196
f 196 356 607
f 581 599 380
f 543 599 581
f 701 543 561
f 701 599 543
f 701 196 599
f 561 356 701
f 356 196 701
f 365 1 693
f 365 693 294
f 659 1 365
f 404 294 485
f 363 740 348
f 348 511 363
f 199 618 409
f 522 101 546
f 419 207 171
f 171 207 748
f 748 272 171
f 13 225 2
f 2 606 13
f 112 13 442
f 442 13 606
f 489 462 379
f 379 324 489
f 499 216 542
f 542 324 499
f 201 377 379
f 379 23 201
f 201 49 377
f 591 552 270
f 453 62 103
f 103 62 658
f 600 290 630
f 630 667 600
f 586 422 214
f 214 630 290
f 561 543 553
f 553 667 561
f 253 290 600
f 600 667 253
f 253 667 609
f 253 214 290
f 60 372 311
f 60 29 372
f 100 60 311
f 29 60 100
f 658 29 100
f 651 437 475
f 475 464 521
f 372 147 722
f 191 63 87
f 87 147 191
f 732 172 536
f 372 722 455
f 455 722 703
f 45 391 677
f 677 391 412
f 552 591 427
f 669 552 45
f 31 738 205
f 22 738 690
f 22 205 738
f 140 205 22
f 570 658 586
f 570 88 658
f 48 88 614
f 286 64 681
f 681 496 286
f 496 180 286
f 405 180 496
f 405 39 180
f 405 496 692
f 692 39 405
f 195 39 692
f 155 694 415
f 415 3 155
f 562 709 3
f 562 3 415
f 562 750 279
f 415 35 562
f 562 35 750
f 709 562 382
f 279 458 382
f 382 562 279
f 596 482 304
f 304 213 596
f 596 213 733
f 733 328 126
f 126 460 104
f 104 146 126
f 126 328 48
f 48 614 126
f 126 614 460
f 425 146 104
f 104 596 425
f 279 750 273
f 750 576 273
f 273 576 394
f 67 596 323
f 482 596 67
f 48 304 114
f 304 387 114
f 114 387 710
f 742 387 304
f 304 482 742
f 394 160 742
f 742 482 394
f 329 714 364
f 469 483 346
f 81 483 77
f 483 81 233
f 590 192 215
f 215 192 509
f 119 153 261
f 261 569 119
f 611 520 647
f 261 153 439
f 703 722 105
f 105 87 63
f 105 722 147
f 147 87 105
f 72 732 476
f 732 536 476
f 72 476 545
f 208 549 308
f 6 549 274
f 6 592 549
f 6 274 670
f 670 592 6
f 549 208 226
f 226 308 590
f 73 247 424
f 469 689 424
f 424 247 469
f 689 356 280
f 73 424 280
f 280 424 689
f 561 73 280
f 280 356 561
f 639 73 561
f 639 563 73
f 300 563 639
f 154 407 86
f 86 407 436
f 344 555 654
f 654 238 344
f 654 555 711
f 711 238 654
f 133 740 735
f 163 740 133
f 133 143 163
f 395 206 56
f 56 707 395
f 56 206 707
f 70 402 441
f 402 35 441
f 415 70 441
f 441 35 415
f 308 549 578
f 670 274 568
f 9 504 568
f 494 504 506
f 506 265 494
f 355 24 9
f 9 568 355
f 332 521 220
f 332 475 521
f 9 24 495
f 221 9 495
f 495 24 464
f 5 537 642
f 683 5 642
f 256 537 5
f 97 537 256
f 176 97 256
f 503 116 704
f 704 116 580
f 624 435 229
f 106 435 624
f 310 162 624
f 624 229 351
f 624 539 310
f 624 351 539
f 291 237 319
f 319 239 291
f 610 620 245
f 42 663 726
f 37 400 156
f 156 533 37
f 587 533 156
f 156 209 587
f 637 205 140
f 735 740 150
f 150 413 735
f 688 413 150
f 150 478 688
f 194 555 566
f 194 472 349
f 566 143 194
f 194 232 555
f 349 232 194
f 143 133 194
f 735 472 194
f 194 133 735
f 540 287 175
f 175 287 294
f 294 404 175
f 659 287 524
f 154 659 524
f 524 260 154
f 516 381 448
f 516 407 154
f 635 249 142
f 168 348 740
f 168 740 163
f 168 101 699
f 163 143 168
f 566 101 168
f 168 143 566
f 313 618 635
f 313 409 618
f 392 522 546
f 699 101 318
f 101 522 318
f 199 409 204
f 409 318 204
f 204 318 522
f 419 171 275
f 389 571 275
f 275 171 389
f 598 606 2
f 598 550 389
f 598 205 606
f 327 542 216
f 38 201 23
f 38 272 748
f 38 23 629
f 629 272 38
f 211 591 270
f 272 500 211
f 500 591 211
f 96 500 189
f 96 591 500
f 259 4 710
f 651 4 259
f 259 742 651
f 710 387 259
f 387 742 259
f 69 494 604
f 494 265 604
f 265 506 604
f 193 9 221
f 221 437 193
f 193 437 9
f 277 28 680
f 680 214 277
f 465 520 300
f 432 214 422
f 609 25 583
f 583 253 609
f 583 25 45
f 45 253 583
f 464 475 479
f 479 475 437
f 479 437 221
f 221 495 479
f 479 495 464
f 687 646 586
f 586 677 687
f 330 646 687
f 412 552 44
f 552 427 44
f 330 687 44
f 44 496 330
f 44 731 496
f 44 677 412
f 44 687 677
f 95 366 595
f 595 45 95
f 595 669 45
f 426 366 95
f 556 366 426
f 31 205 650
f 650 598 721
f 205 598 650
f 411 646 330
f 586 646 411
f 411 570 586
f 64 286 317
f 317 286 180
f 180 58 317
f 697 64 317
f 317 58 697
f 23 39 315
f 39 195 315
f 661 155 3
f 403 135 176
f 176 454 403
f 176 713 548
f 548 454 176
f 109 382 615
f 615 169 109
f 323 596 252
f 252 67 323
f 257 596 104
f 161 596 257
f 697 200 341
f 200 547 341
f 104 697 341
f 341 547 104
f 733 126 210
f 210 126 146
f 146 425 210
f 210 596 733
f 210 425 596
f 394 482 61
f 482 67 61
f 406 364 306
f 329 364 406
f 306 233 406
f 90 346 483
f 483 233 90
f 90 233 306
f 77 99 514
f 514 81 77
f 590 215 188
f 445 309 111
f 445 50 99
f 233 50 445
f 445 406 233
f 329 406 445
f 445 526 329
f 111 526 445
f 608 497 601
f 608 421 497
f 149 185 94
f 94 647 149
f 717 518 185
f 185 149 717
f 717 149 647
f 520 72 717
f 717 647 520
f 374 105 63
f 640 536 172
f 640 476 536
f 473 455 703
f 172 455 473
f 703 105 473
f 105 374 473
f 518 717 235
f 72 545 235
f 235 717 72
f 282 226 590
f 569 226 282
f 590 297 282
f 297 569 282
f 641 429 469
f 641 463 436
f 641 436 429
f 641 91 151
f 376 463 641
f 641 151 376
f 122 91 641
f 469 346 641
f 670 568 131
f 131 568 504
f 131 549 670
f 131 578 549
f 131 504 338
f 338 578 131
f 164 578 338
f 308 578 164
f 164 528 308
f 338 283 164
f 283 528 164
f 384 355 568
f 410 355 236
f 410 63 191
f 191 332 410
f 531 179 176
f 176 256 531
f 106 624 461
f 110 106 461
f 461 624 162
f 461 162 110
f 262 726 663
f 262 663 42
f 42 399 262
f 37 14 130
f 363 734 507
f 557 620 234
f 466 245 557
f 557 245 620
f 17 637 140
f 653 637 17
f 112 442 202
f 85 581 380
f 85 672 581
f 380 196 85
f 85 196 607
f 152 426 95
f 581 672 152
f 269 740 363
f 269 150 740
f 363 478 269
f 478 150 269
f 74 287 540
f 74 524 287
f 154 260 137
f 137 516 154
f 546 381 137
f 381 516 137
f 522 392 660
f 660 204 522
f 699 318 492
f 492 318 142
f 142 318 223
f 223 318 409
f 419 275 113
f 113 275 571
f 231 598 331
f 331 598 2
f 2 224 331
f 224 302 331
f 115 598 389
f 721 598 115
f 389 171 115
f 115 171 736
f 736 242 115
f 30 231 745
f 55 30 745
f 231 331 745
f 80 327 354
f 542 327 80
f 354 241 80
f 710 4 431
f 431 636 710
f 21 440 62
f 636 431 21
f 21 431 440
f 502 4 651
f 651 475 502
f 502 431 4
f 440 431 502
f 62 440 502
f 652 715 631
f 631 530 652
f 160 715 652
f 630 214 276
f 214 680 276
f 630 276 538
f 538 28 520
f 538 680 28
f 538 276 680
f 561 667 443
f 667 630 187
f 630 465 187
f 187 443 667
f 187 465 300
f 534 432 311
f 214 432 534
f 311 277 534
f 277 214 534
f 311 432 174
f 108 455 172
f 372 455 108
f 108 172 732
f 108 732 372
f 214 253 177
f 586 214 177
f 691 44 427
f 736 301 686
f 594 242 686
f 686 242 736
f 556 426 246
f 88 570 320
f 570 411 320
f 320 614 88
f 320 411 614
f 345 411 330
f 614 411 345
f 330 460 345
f 460 614 345
f 155 661 129
f 541 403 454
f 541 169 615
f 615 403 541
f 135 403 471
f 433 454 728
f 454 548 728
f 709 382 124
f 746 252 596
f 67 252 746
f 615 382 746
f 746 382 458
f 746 61 67
f 394 61 746
f 746 458 279
f 200 161 564
f 564 547 200
f 104 547 564
f 203 746 279
f 394 746 203
f 279 273 79
f 79 203 279
f 79 273 394
f 394 203 79
f 278 258 582
f 631 12 582
f 12 278 582
f 497 486 26
f 26 303 497
f 123 303 26
f 486 57 26
f 26 57 123
f 567 119 569
f 567 51 119
f 244 303 123
f 119 51 619
f 51 360 619
f 619 360 322
f 322 577 619
f 77 416 296
f 296 99 77
f 296 416 99
f 597 416 77
f 597 77 611
f 611 519 597
f 352 416 665
f 416 597 665
f 665 597 519
f 309 445 312
f 99 416 312
f 312 445 99
f 497 421 19
f 19 57 486
f 19 486 497
f 240 19 421
f 57 19 240
f 352 665 240
f 569 121 648
f 648 121 439
f 439 288 648
f 648 288 347
f 712 569 261
f 712 121 569
f 261 439 712
f 439 121 712
f 428 123 94
f 518 235 493
f 545 490 83
f 83 235 545
f 490 428 83
f 83 493 235
f 94 185 83
f 83 428 94
f 185 518 83
f 518 493 83
f 274 549 36
f 549 255 36
f 299 506 504
f 355 384 212
f 414 254 355
f 414 212 350
f 355 212 414
f 236 355 292
f 220 24 316
f 24 355 316
f 355 410 316
f 480 262 399
f 726 262 480
f 480 399 363
f 363 507 480
f 751 734 166
f 585 557 7
f 7 557 234
f 466 557 438
f 457 249 635
f 112 202 375
f 653 672 157
f 157 75 398
f 41 152 95
f 95 388 41
f 581 152 41
f 543 581 41
f 41 553 543
f 388 667 41
f 667 553 41
f 426 152 170
f 546 137 367
f 367 137 260
f 53 488 523
f 199 204 523
f 291 199 523
f 523 485 291
f 523 488 485
f 644 660 392
f 485 488 644
f 644 488 53
f 682 223 409
f 682 313 635
f 409 313 682
f 635 142 682
f 142 223 682
f 459 113 571
f 571 377 459
f 377 49 459
f 695 62 453
f 453 21 695
f 695 21 62
f 636 21 674
f 710 636 674
f 674 167 48
f 48 114 674
f 674 114 710
f 47 502 475
f 47 332 191
f 475 332 47
f 191 62 47
f 62 502 47
f 729 258 278
f 729 278 69
f 69 393 729
f 258 729 705
f 705 729 393
f 705 393 69
f 8 742 160
f 160 652 8
f 651 742 8
f 529 465 630
f 630 538 529
f 520 465 529
f 529 538 520
f 561 443 339
f 339 639 561
f 300 639 339
f 339 187 300
f 443 187 339
f 658 100 184
f 184 174 658
f 184 100 311
f 311 174 184
f 658 174 385
f 385 174 432
f 385 432 422
f 586 658 385
f 385 422 586
f 20 253 45
f 20 177 253
f 45 677 20
f 20 677 586
f 586 177 20
f 731 44 54
f 44 691 54
f 65 301 736
f 65 321 301
f 588 321 669
f 301 321 588
f 552 669 334
f 669 321 334
f 738 246 737
f 737 246 426
f 690 738 737
f 513 129 661
f 128 471 403
f 716 471 307
f 135 471 716
f 382 109 326
f 326 124 382
f 285 396 161
f 307 396 285
f 161 396 417
f 307 471 373
f 373 396 307
f 161 257 144
f 144 564 161
f 144 257 104
f 104 564 144
f 481 569 337
f 481 567 569
f 337 289 481
f 481 509 497
f 481 215 509
f 481 188 215
f 303 567 481
f 34 535 117
f 322 535 34
f 34 577 322
f 685 244 123
f 123 428 685
f 685 428 577
f 708 567 303
f 560 577 153
f 560 619 577
f 611 647 148
f 148 519 611
f 148 647 94
f 94 665 148
f 148 665 519
f 352 240 71
f 71 240 421
f 227 665 94
f 227 240 665
f 94 123 227
f 123 57 227
f 57 240 227
f 236 288 92
f 92 288 439
f 439 473 92
f 92 473 374
f 92 410 236
f 92 374 63
f 63 410 92
f 444 439 153
f 153 577 444
f 577 428 444
f 444 473 439
f 444 490 545
f 444 428 490
f 172 473 444
f 444 545 476
f 476 640 444
f 444 640 172
f 622 36 255
f 657 604 506
f 506 299 657
f 525 384 255
f 525 212 384
f 165 414 350
f 254 414 666
f 569 254 666
f 414 165 666
f 666 226 569
f 549 226 666
f 666 255 549
f 368 254 569
f 355 254 368
f 82 410 332
f 82 316 410
f 82 332 220
f 220 316 82
f 696 400 37
f 37 130 696
f 130 182 696
f 696 182 248
f 627 751 166
f 627 557 487
f 627 438 557
f 42 726 145
f 145 130 14
f 145 14 178
f 145 263 42
f 178 263 145
f 249 457 447
f 618 438 305
f 635 618 305
f 305 457 635
f 438 627 305
f 112 375 628
f 628 13 112
f 225 13 628
f 628 655 225
f 628 284 688
f 628 413 284
f 688 655 628
f 217 735 628
f 735 413 628
f 628 720 217
f 398 720 628
f 628 157 398
f 672 85 643
f 643 157 672
f 643 85 607
f 607 75 643
f 75 157 643
f 470 170 152
f 470 672 653
f 470 152 672
f 386 644 53
f 660 644 386
f 204 660 386
f 53 523 386
f 386 523 204
f 167 674 741
f 741 674 21
f 658 167 741
f 741 103 658
f 453 103 741
f 741 21 453
f 59 530 631
f 678 604 437
f 69 604 678
f 678 705 69
f 258 705 678
f 678 582 258
f 631 582 678
f 678 59 631
f 129 513 468
f 433 129 468
f 468 454 433
f 471 128 268
f 10 403 615
f 615 128 10
f 10 128 403
f 161 417 408
f 615 746 408
f 408 596 161
f 408 746 596
f 497 303 118
f 118 481 497
f 303 481 118
f 117 567 719
f 567 708 719
f 719 34 117
f 303 244 336
f 336 708 303
f 244 685 336
f 255 384 219
f 219 622 255
f 437 604 197
f 197 657 299
f 604 657 197
f 9 437 197
f 197 504 9
f 197 299 504
f 136 666 165
f 725 368 569
f 292 368 725
f 569 648 725
f 725 648 347
f 508 292 355
f 355 368 508
f 508 368 292
f 248 182 190
f 477 627 487
f 726 572 559
f 559 145 726
f 572 159 559
f 340 447 511
f 249 447 340
f 166 511 573
f 511 447 573
f 141 375 202
f 141 628 375
f 141 202 637
f 157 628 141
f 141 637 653
f 653 157 141
f 52 678 437
f 59 678 52
f 52 437 651
f 530 59 52
f 743 128 615
f 743 268 128
f 255 666 575
f 666 136 575
f 248 190 32
f 585 248 32
f 487 557 32
f 32 557 585
f 751 627 684
f 627 477 684
f 16 477 487
f 572 477 16
f 16 159 572
f 633 8 652
f 633 652 530
f 530 52 633
f 651 8 633
f 633 52 651
f 335 251 484
f 343 335 484
f 484 434 730
f 484 730 343
f 251 679 484
f 484 727 434
f 484 679 491
f 383 263 397
f 397 671 383
f 671 271 383
f 383 358 263
f 198 673 371
f 371 224 2
f 2 645 371
f 371 645 76
f 673 224 371
f 656 418 40
f 656 579 501
f 40 293 656
f 501 616 656
f 554 418 656
f 656 616 517
f 517 554 656
f 151 91 662
f 218 151 662
f 423 617 93
f 93 617 527
f 527 362 93
f 593 98 724
f 724 634 749
f 749 718 724
f 724 718 593
f 724 584 634
f 626 359 14
f 138 33 14
f 359 107 14
f 14 744 138
f 33 178 14
f 14 11 626
f 107 744 14
f 558 11 14
f 605 515 89
f 589 474 605
f 89 510 605
f 474 515 605
f 510 649 605
f 659 365 287
f 287 365 294
f 226 208 308
f 436 463 86
f 467 693 86
f 86 498 467
f 376 498 86
f 693 1 86
f 86 1 154
f 86 463 376
f 642 706 266
f 642 183 683
f 97 116 642
f 266 183 642
f 642 537 97
f 642 116 706
f 176 664 704
f 704 580 176
f 68 267 704
f 704 664 68
f 704 267 503
f 587 239 319
f 237 390 319
f 319 533 587
f 319 390 37
f 37 533 319
f 395 429 516
f 532 407 516
f 516 429 532
f 516 206 395
f 448 206 516
f 598 231 30
f 30 401 598
f 401 550 598
f 216 450 327
f 327 456 353
f 325 264 327
f 353 295 327
f 327 264 456
f 327 450 325
f 327 295 354
f 452 500 315
f 315 692 452
f 315 195 692
f 629 23 315
f 315 500 629
f 50 233 81
f 50 514 99
f 81 514 50
f 641 638 122
f 714 638 641
f 641 90 306
f 641 364 714
f 306 364 641
f 346 90 641
f 139 132 531
f 531 5 139
f 531 132 179
f 531 256 5
f 202 442 606
f 205 637 202
f 606 205 202
f 745 181 55
f 745 331 302
f 745 302 181
f 369 462 80
f 462 489 80
f 80 241 369
f 80 489 324
f 324 542 80
f 246 115 242
f 246 242 556
f 246 738 31
f 31 650 246
f 246 650 721
f 721 115 246
f 694 155 728
f 728 713 694
f 728 548 713
f 728 129 433
f 155 129 728
f 322 360 535
f 535 567 117
f 51 567 535
f 535 360 51
f 438 618 199
f 199 610 438
f 438 245 466
f 610 245 438
f 644 404 485
f 546 367 644
f 644 74 540
f 540 175 644
f 644 175 404
f 260 524 644
f 644 392 546
f 524 74 644
f 644 367 260
f 459 38 748
f 748 207 459
f 459 207 419
f 49 201 459
f 201 38 459
f 419 113 459
f 54 427 591
f 189 731 54
f 54 96 189
f 591 96 54
f 54 691 427
f 588 366 594
f 588 595 366
f 669 595 588
f 594 686 588
f 588 686 301
f 334 211 270
f 334 171 272
f 270 552 334
f 736 171 334
f 272 211 334
f 334 65 736
f 321 65 334
f 285 200 135
f 135 716 285
f 285 161 200
f 285 716 307
f 590 188 481
f 481 289 590
f 119 619 560
f 153 119 560
f 71 250 111
f 601 250 71
f 111 309 71
f 71 416 352
f 309 312 71
f 71 608 601
f 421 608 71
f 71 312 416
f 668 209 696
f 696 234 668
f 696 7 234
f 585 7 696
f 209 156 696
f 696 156 400
f 696 248 585
f 470 22 690
f 690 737 470
f 140 22 470
f 470 17 140
f 653 17 470
f 470 737 426
f 426 170 470
f 169 541 468
f 3 709 468
f 468 541 454
f 468 661 3
f 709 124 468
f 468 109 169
f 468 326 109
f 468 513 661
f 124 326 468
f 336 685 577
f 577 34 336
f 34 719 336
f 336 719 708
f 219 384 568
f 219 568 274
f 274 36 219
f 36 622 219
f 347 288 725
f 725 288 236
f 236 292 725
f 699 492 340
f 340 168 699
f 511 348 340
f 340 142 249
f 348 168 340
f 340 492 142
f 573 627 166
f 457 305 573
f 573 447 457
f 573 305 627
f 743 373 471
f 615 408 743
f 743 417 396
f 396 373 743
f 471 268 743
f 743 408 417
f 350 212 575
f 575 525 255
f 212 525 575
f 575 165 350
f 575 136 165
f 684 507 734
f 726 480 684
f 684 480 507
f 734 751 684
f 684 572 726
f 684 477 572
f 16 182 130
f 130 145 16
f 487 32 16
f 16 559 159
f 16 190 182
f 145 559 16
f 16 32 190

