# https://github.com/mikedh/trimesh
v -0.01169631 0.01257095 -0.30359694
v -0.00424301 0.01614305 -0.31133082
v -0.01059296 0.01415107 -0.30609511
v -0.00640397 0.01064352 -0.31040064
v -0.00653011 0.01744992 -0.30917344
v -0.00346373 0.01762734 -0.31097644
v -0.00100624 0.01213471 -0.30776569
v -0.00198944 0.01616859 -0.31198033
v -0.00161321 0.00933323 -0.30765414
v -0.01161850 0.01477264 -0.30384293
v -0.01134013 0.00920802 -0.30459176
v -0.01184820 0.00897214 -0.30309209
v -0.00019621 0.00885517 -0.31225128
v -0.01153387 0.00892125 -0.30413434
v -0.00032326 0.01019596 -0.31225366
v -0.00629666 0.01384546 -0.31050291
v -0.00097961 0.01851840 -0.30792674
v -0.00861268 0.01776845 -0.30475594
v -0.00781659 0.00877717 -0.30068477
v -0.01004769 0.01580867 -0.30672651
v -0.01091582 0.01701779 -0.30346681
v -0.00577534 0.01499716 -0.31075787
v -0.01042218 0.01712830 -0.30438349
v -0.01030875 0.01188430 -0.30662709
v -0.01127715 0.01339810 -0.30468562
v -0.01179400 0.01002740 -0.30328028
v -0.01026206 0.00796338 -0.30546406
v -0.01157516 0.01395599 -0.30402612
v -0.00505377 0.01807497 -0.30834790
v -0.00718773 0.01721884 -0.30899512
v -0.01235787 0.01513479 -0.30022767
v -0.00574776 0.01802188 -0.30779354
v -0.01170912 0.00796338 -0.30191943
v -0.00202687 0.01374034 -0.31199680
v -0.01045088 0.01757257 -0.30108471
v -0.00358963 0.00796337 -0.31125581
v -0.01150528 0.01311883 -0.30420745
v -0.00964903 0.01582231 -0.30726843
v -0.00744351 0.01091718 -0.30969793
v -0.01023971 0.01767103 -0.30030819
v -0.00501557 0.01282637 -0.31111250
v -0.00095161 0.00796338 -0.30878422
v -0.00779073 0.01069447 -0.30029305
v -0.00925364 0.01606472 -0.30772712
v -0.00349442 0.01159393 -0.31174262
v -0.01224784 0.01370219 -0.30124073
v -0.00913637 0.00796338 -0.30022259
v -0.00815648 0.00910206 -0.30912226
v -0.01184475 0.01526569 -0.30261017
v -0.01238806 0.01102714 -0.30021786
v -0.00064440 0.01659161 -0.30786890
v -0.01111365 0.01703706 -0.30273803
v -0.00591589 0.01679499 -0.31032556
v -0.01007274 0.00901226 -0.30698276
v -0.00048784 0.01114077 -0.31223641
v -0.01163598 0.00983564 -0.30382544
v -0.01137407 0.01516716 -0.30443032
v -0.01232823 0.00841995 -0.30072293
v -0.00911725 0.01781604 -0.30122986
v -0.01195528 0.01453960 -0.30245054
v -0.00329708 0.00836701 -0.31178921
v -0.00792756 0.01145049 -0.30931736
v -0.01116030 0.01387131 -0.30492131
v -0.00883799 0.01762699 -0.30574063
v -0.00968674 0.01712205 -0.30597815
v -0.01207807 0.01169901 -0.30202895
v -0.00710948 0.01218152 -0.30993534
v -0.00088392 0.01846270 -0.30996191
v -0.00058004 0.00878054 -0.31222928
v -0.00533177 0.01049114 -0.31098140
v -0.00806957 0.01762759 -0.30722320
v -0.00793751 0.01305959 -0.30928970
v -0.00863118 0.01668868 -0.30810745
v -0.00806059 0.01400716 -0.30918208
v -0.00116242 0.01849160 -0.30892829
v -0.01220791 0.00900512 -0.30146221
v -0.00794502 0.01784173 -0.30532073
v -0.00065927 0.01688909 -0.30786994
v -0.00181488 0.00796338 -0.30980660
v -0.00502554 0.01798112 -0.30912063
v -0.00767032 0.01154132 -0.30951562
v -0.00299947 0.01779019 -0.31092346
v -0.01238850 0.01267380 -0.30015762
v -0.00961545 0.01630424 -0.30706619
v -0.01107654 0.01719204 -0.30176137
v -0.01075976 0.01554145 -0.30563445
v -0.00346072 0.01727163 -0.31125705
v -0.00874213 0.01470306 -0.30853714
v -0.00752750 0.00796338 -0.30801254
v -0.01091342 0.01698190 -0.30361579
v -0.01221258 0.01352454 -0.30140242
v -0.00362590 0.01406629 -0.31167607
v -0.00552984 0.01270076 -0.31089850
v -0.00745654 0.00881800 -0.30971393
v -0.00432138 0.01684080 -0.31109255
v -0.00787438 0.01746998 -0.30028386
v -0.00868892 0.00796338 -0.30054916
v -0.00664681 0.01139472 -0.31027894
v -0.00026420 0.01040779 -0.31225345
v -0.01083324 0.01011491 -0.30565522
v -0.01109716 0.00967223 -0.30510240
v -0.00733034 0.00803519 -0.30965610
v -0.00041470 0.01399877 -0.31223877
v -0.00222707 0.01837352 -0.30938959
v -0.00667229 0.01757625 -0.30877694
v -0.01232106 0.01190902 -0.30079065
v -0.00979834 0.01730762 -0.30530133
v -0.00905803 0.01777861 -0.30320089
f 79 36 13
f 13 42 79
f 79 42 36
f 31 85 52
f 40 85 31
f 83 96 31
f 31 96 40
f 73 71 30
f 65 71 73
f 36 42 47
f 19 43 47
f 83 50 47
f 47 96 83
f 47 43 96
f 36 47 27
f 27 47 33
f 19 42 9
f 42 7 9
f 9 43 19
f 7 43 9
f 52 85 107
f 71 65 107
f 49 31 52
f 59 96 17
f 40 96 59
f 71 107 64
f 17 68 75
f 75 59 17
f 54 88 48
f 73 30 53
f 53 88 73
f 13 36 69
f 36 61 69
f 96 43 51
f 51 43 7
f 13 103 51
f 51 42 13
f 51 7 42
f 97 42 19
f 19 47 97
f 97 47 42
f 58 47 50
f 33 47 58
f 36 27 89
f 102 27 54
f 54 48 102
f 102 48 94
f 102 89 27
f 36 89 102
f 102 61 36
f 94 61 102
f 65 86 90
f 90 86 57
f 90 49 52
f 57 49 90
f 35 85 40
f 35 107 85
f 35 64 107
f 108 35 40
f 64 35 108
f 40 59 108
f 68 82 80
f 84 65 73
f 84 86 65
f 20 86 84
f 73 88 44
f 44 84 73
f 20 84 44
f 24 88 54
f 94 48 62
f 70 61 94
f 6 80 82
f 6 82 87
f 87 53 6
f 87 82 8
f 8 68 103
f 8 82 68
f 87 8 2
f 2 8 92
f 13 69 15
f 17 96 78
f 96 51 78
f 78 68 17
f 103 68 78
f 78 51 103
f 21 90 52
f 23 107 65
f 65 90 23
f 90 21 23
f 52 107 23
f 23 21 52
f 77 64 18
f 18 108 77
f 64 108 18
f 77 108 32
f 71 64 32
f 32 64 77
f 32 80 71
f 29 80 32
f 68 80 104
f 104 80 29
f 104 75 68
f 29 32 104
f 104 32 108
f 59 75 104
f 104 108 59
f 88 24 38
f 38 44 88
f 20 44 38
f 3 86 20
f 20 38 3
f 3 38 24
f 57 86 3
f 74 48 88
f 74 62 48
f 94 98 4
f 4 70 94
f 98 70 4
f 80 6 5
f 5 53 30
f 5 6 53
f 92 8 45
f 61 70 45
f 95 53 87
f 87 2 95
f 95 2 53
f 53 2 22
f 88 53 22
f 22 74 88
f 22 2 92
f 99 103 13
f 13 15 99
f 99 15 103
f 103 15 55
f 55 15 69
f 58 76 12
f 31 49 60
f 37 28 57
f 37 101 11
f 57 28 10
f 10 49 57
f 10 28 1
f 10 60 49
f 67 98 94
f 94 39 67
f 94 62 81
f 81 39 94
f 71 80 105
f 80 5 105
f 105 30 71
f 105 5 30
f 61 45 34
f 34 45 8
f 34 69 61
f 34 55 69
f 34 8 103
f 103 55 34
f 1 28 26
f 31 60 46
f 57 3 63
f 74 22 16
f 16 67 74
f 98 67 16
f 22 93 16
f 16 70 98
f 16 93 70
f 39 81 72
f 72 67 39
f 74 67 72
f 62 74 72
f 72 81 62
f 92 45 41
f 41 45 70
f 70 93 41
f 14 37 11
f 28 37 14
f 54 27 14
f 14 11 54
f 14 27 33
f 33 58 14
f 58 12 14
f 83 31 106
f 31 46 106
f 106 50 83
f 106 58 50
f 106 76 58
f 106 46 76
f 91 60 12
f 91 46 60
f 25 37 57
f 57 63 25
f 56 26 28
f 28 14 56
f 12 26 56
f 56 14 12
f 66 12 76
f 66 91 12
f 101 37 100
f 37 25 100
f 100 3 24
f 100 63 3
f 100 25 63
f 100 24 54
f 54 11 100
f 11 101 100
f 60 10 26
f 26 10 1
f 12 60 26
f 41 93 22
f 41 22 92
f 46 91 66
f 76 46 66

