# https://github.com/mikedh/trimesh
v 0.00029019 -0.00258808 -0.02851216
v 0.01320788 -0.02498961 -0.03378607
v 0.00171904 -0.00008364 -0.03378606
v 0.01598421 -0.01070398 -0.02851216
v 0.02466408 -0.00362354 -0.02851217
v 0.02377427 -0.02208190 -0.03378608
v 0.00793364 -0.02453020 -0.02851217
v 0.02474902 -0.00561103 -0.03378608
v 0.01642707 -0.02474422 -0.02851217
v 0.02438013 -0.00222755 -0.02851217
v 0.02460113 -0.01530857 -0.03378608
v 0.00995276 -0.02484094 -0.03378607
v 0.02270500 -0.00018066 -0.03378607
v 0.01901422 -0.00033294 -0.03378608
v 0.00004615 -0.00141132 -0.03378607
v 0.02442708 -0.01653640 -0.03378608
v 0.00002055 -0.00391906 -0.02851216
v 0.02482076 -0.02151377 -0.03378608
v 0.02117357 -0.00116092 -0.02851216
v 0.00406781 -0.02430577 -0.02851217
v 0.01601280 -0.00344825 -0.02851216
v 0.00034114 -0.02109767 -0.03378607
v 0.02483955 -0.01631599 -0.03378608
v 0.02483572 -0.00519441 -0.02851217
v 0.01909368 -0.00133529 -0.02851216
v 0.01624590 -0.01976350 -0.02851217
v 0.00760740 -0.02469789 -0.03378607
v 0.02195773 -0.02165146 -0.03378608
v 0.02000992 -0.00006035 -0.03378607
v 0.02269022 -0.02487126 -0.02853023
v 0.02000788 -0.00804494 -0.03378608
v 0.02425375 -0.02369557 -0.02851217
v 0.01832606 -0.02494542 -0.03378608
v 0.00013780 -0.01321431 -0.03378607
v 0.02328184 -0.02290057 -0.03378608
v 0.02455782 -0.01144713 -0.03378608
v 0.00171385 -0.02288632 -0.03378606
v 0.02423404 -0.01796762 -0.03378608
v 0.02064176 -0.02430289 -0.03378608
v 0.02176438 -0.00818068 -0.02851216
v 0.02288012 -0.01471866 -0.02851217
v 0.00810781 -0.00025052 -0.02851217
v 0.02315008 -0.02292402 -0.03378608
v 0.00006142 -0.00581473 -0.03378607
v 0.02476874 -0.00084736 -0.03378607
v 0.00276573 -0.02470811 -0.02853114
v 0.02439789 -0.01537654 -0.03378608
v 0.02466009 -0.02325009 -0.02853013
v 0.00237005 -0.00021597 -0.02853114
v 0.00523785 -0.02398164 -0.03378607
v 0.00911414 -0.00020009 -0.02851217
v 0.00286656 -0.02407631 -0.02851217
v 0.02488083 -0.02213728 -0.02853012
v 0.02445611 -0.02068987 -0.03378608
v 0.01990353 -0.02497394 -0.02853035
v 0.02077852 -0.00308221 -0.02851216
v 0.02482446 -0.00605717 -0.02851217
v 0.02489811 -0.01463563 -0.02853012
v 0.00008997 -0.00176012 -0.02853118
v 0.02091491 -0.00189561 -0.02851216
v 0.02180641 -0.02389902 -0.03378608
v 0.02417404 -0.02468214 -0.02851217
v 0.01091885 -0.02482213 -0.02851217
v 0.01612898 -0.00030126 -0.02851216
v 0.01922007 -0.02489618 -0.02851217
v 0.00000089 -0.01147127 -0.02851217
v 0.00115502 -0.00132896 -0.02851216
v 0.02450808 -0.00236972 -0.02851217
v 0.00022347 -0.02304879 -0.02851217
v 0.00000708 -0.01585110 -0.02853121
v 0.01715616 -0.00011544 -0.02851216
v 0.02470351 -0.00022471 -0.02853014
v 0.00001456 -0.01991536 -0.02853121
f 29 15 3
f 15 59 3
f 3 59 49
f 73 69 66
f 46 69 37
f 58 45 24
f 24 45 72
f 72 5 24
f 23 45 58
f 29 72 13
f 72 45 13
f 55 46 2
f 46 55 63
f 53 23 58
f 18 23 53
f 58 24 53
f 14 15 29
f 17 15 66
f 17 59 15
f 49 59 67
f 66 15 70
f 70 73 66
f 15 73 70
f 62 39 61
f 15 28 61
f 46 63 20
f 69 63 9
f 48 62 18
f 18 53 48
f 48 53 62
f 62 53 32
f 32 24 5
f 31 28 15
f 15 14 31
f 59 17 1
f 1 67 59
f 49 67 42
f 22 37 69
f 69 73 22
f 73 34 22
f 34 61 22
f 22 61 39
f 22 27 37
f 44 73 15
f 44 34 73
f 15 61 44
f 44 61 34
f 2 46 12
f 46 27 12
f 46 37 50
f 50 27 46
f 37 27 50
f 18 62 35
f 62 61 35
f 52 69 46
f 46 20 52
f 52 20 69
f 7 63 69
f 69 20 7
f 7 20 63
f 65 9 63
f 65 63 55
f 65 30 62
f 55 30 65
f 57 53 24
f 24 32 57
f 57 32 53
f 68 32 5
f 68 5 72
f 49 42 51
f 33 22 39
f 27 22 33
f 33 12 27
f 2 12 33
f 33 55 2
f 33 30 55
f 33 39 62
f 62 30 33
f 45 23 8
f 23 11 8
f 18 35 6
f 43 61 28
f 43 35 61
f 69 9 26
f 26 4 69
f 72 19 10
f 10 68 72
f 64 1 17
f 67 1 64
f 64 17 66
f 66 69 64
f 68 56 40
f 16 8 11
f 16 6 38
f 60 56 68
f 68 10 60
f 60 10 19
f 69 4 21
f 21 64 69
f 41 40 32
f 32 68 41
f 68 40 41
f 47 16 38
f 18 6 54
f 6 16 54
f 71 60 19
f 71 19 72
f 71 51 42
f 71 72 29
f 71 42 67
f 67 64 71
f 49 51 71
f 29 3 71
f 71 3 49
f 8 16 36
f 16 47 36
f 56 60 25
f 60 71 25
f 54 11 23
f 54 23 18
f 54 16 11
f 36 14 29
f 29 13 36
f 36 13 45
f 38 6 36
f 28 31 36
f 36 31 14
f 45 8 36
f 36 43 28
f 36 6 35
f 35 43 36
f 36 47 38
f 25 65 62
f 62 32 25
f 32 40 25
f 9 65 25
f 25 26 9
f 25 21 4
f 4 26 25
f 25 40 56
f 64 21 25
f 25 71 64

