# https://github.com/mikedh/trimesh
v -0.05022637 -0.05314334 -0.04767965
v -0.05026319 -0.05033505 -0.04236902
v -0.05000671 -0.05003471 -0.04822375
v -0.05084463 -0.05039912 -0.04547745
v -0.05001168 -0.05274224 -0.04578709
v -0.05081357 -0.05054992 -0.04556492
v -0.05016699 -0.05031425 -0.04186706
v -0.05019286 -0.05175965 -0.04471915
v -0.05145943 -0.05063531 -0.04922785
v -0.05030659 -0.05193487 -0.04561514
v -0.05143974 -0.05039666 -0.04865667
v -0.05034734 -0.05382918 -0.04989524
v -0.05090235 -0.05122255 -0.04715388
v -0.05066288 -0.05007392 -0.04400414
v -0.05000767 -0.05080665 -0.04197879
v -0.05067608 -0.05063250 -0.04499053
v -0.05059527 -0.05200468 -0.04719908
v -0.05018182 -0.05371328 -0.04872071
v -0.05044651 -0.05234159 -0.04714251
v -0.05051983 -0.05259149 -0.04805368
v -0.05064985 -0.05120177 -0.04587917
v -0.05109659 -0.05189075 -0.04965600
v -0.05148517 -0.05006987 -0.04830487
f 23 3 9
f 14 3 23
f 14 7 3
f 3 12 22
f 22 9 3
f 3 7 15
f 15 5 3
f 9 22 13
f 13 6 23
f 4 14 23
f 23 6 4
f 18 1 12
f 5 1 18
f 18 12 3
f 3 5 18
f 20 13 22
f 20 22 12
f 12 1 20
f 17 20 1
f 13 20 17
f 5 15 8
f 23 9 11
f 11 13 23
f 9 13 11
f 6 13 16
f 2 15 7
f 2 13 15
f 2 16 13
f 7 14 2
f 19 1 5
f 5 17 19
f 19 17 1
f 10 17 5
f 13 17 10
f 5 8 10
f 10 8 13
f 15 13 21
f 21 8 15
f 13 8 21
f 6 16 2
f 14 4 2
f 2 4 6

