# https://github.com/mikedh/trimesh
v -0.00407742 0.04428884 0.00052244
v -0.02879999 0.03222042 0.00176660
v -0.03829549 0.01764548 0.00250000
v -0.03809308 0.02200344 0.00056392
v -0.02723453 0.03286135 0.00227133
v -0.01130719 0.04230050 0.00120764
v -0.00393634 0.01439248 0.00000000
v -0.01671618 0.03909373 0.00244797
v -0.04367761 0.00023639 0.00131316
v -0.02197132 0.03810023 0.00038233
v -0.04064313 0.01353214 0.00215995
v -0.00192841 0.04476093 0.00015790
v -0.03873252 0.01795349 0.00226621
v -0.04333023 0.00616742 0.00036957
v -0.04340692 0.00594087 0.00064926
v -0.01139999 0.04141321 0.00203319
v -0.00347025 0.04237348 0.00246080
v -0.03315335 0.02667837 0.00238589
v -0.03145731 0.03008135 0.00147011
v -0.03961891 0.01843112 0.00129344
v -0.04041874 0.01734703 0.00005559
v -0.03053734 0.03152154 0.00036357
v -0.04261868 0.00797164 0.00162814
v -0.00030219 0.03965930 0.00250000
v -0.01933764 0.03893716 0.00152375
v -0.01150898 0.04203491 0.00141072
v -0.01015178 0.04186677 0.00189140
v -0.02524589 0.03560564 0.00133989
v -0.00501927 0.04306182 0.00161801
v -0.04180749 0.00743345 0.00246852
v -0.04021473 0.00057410 0.00250000
v -0.03969931 0.01700526 0.00180708
v -0.01857066 0.00019248 0.00250000
v -0.04220238 0.00131724 0.00250000
v -0.01748432 0.03849574 0.00250000
v -0.00534948 0.04369300 0.00094725
v -0.01588903 0.04041581 0.00005390
v -0.00003194 0.04330409 0.00169513
v -0.00070250 0.04346455 0.00150673
v -0.00693906 0.04408207 0.00033843
v -0.00478929 0.04350701 0.00120683
v -0.04082807 0.01639979 0.00026291
v -0.00008734 0.01698763 0.00250000
v -0.04240622 0.00266565 0.00245980
v -0.04313917 0.00354023 0.00168193
v -0.03943112 0.01950516 0.00005489
v -0.00144731 0.01487080 0.00248493
v -0.02818374 0.03231615 0.00208800
v -0.02420081 0.03538770 0.00207186
v -0.01224965 0.04222988 0.00102717
v -0.01935873 0.03831248 0.00203376
v -0.03942231 0.01952022 0.00097904
v -0.03949863 0.01784864 0.00164497
v -0.03155796 0.02923226 0.00197831
v -0.01286194 0.00673949 0.00000000
v -0.04241714 0.00910731 0.00005612
v -0.04181062 0.00991634 0.00202748
v -0.03692722 0.02391464 0.00018084
v -0.01230461 0.04224297 0.00026702
v -0.01561592 0.04000404 0.00204623
v -0.04266537 0.00386540 0.00213903
v -0.01742436 0.03941721 0.00189533
v -0.00748252 0.04352019 0.00081504
v -0.00758251 0.04248092 0.00182557
v -0.00182826 0.04241577 0.00249711
v -0.04321979 0.00221134 0.00166956
v -0.00004978 0.03308980 0.00250000
v -0.00861257 0.04218181 0.00193700
v -0.01063506 0.00944839 0.00000000
v -0.03969628 0.01493545 0.00250000
v -0.02635899 0.03403698 0.00194240
v -0.01324546 0.00591508 0.00000000
v -0.02809985 0.03326308 0.00143885
v -0.02156979 0.03821209 0.00100227
v -0.02359793 0.03712123 0.00033971
v -0.02703520 0.03379091 0.00170643
v -0.01472165 0.00008087 0.00000000
v -0.02906249 0.03249478 0.00138703
v -0.01408149 0.00411249 0.00000000
v -0.04171725 0.01256807 0.00121520
v -0.02819513 0.03296285 0.00160220
v -0.01350358 0.04049577 0.00227301
v -0.01263475 0.04141305 0.00169622
v -0.03653441 0.02437045 0.00102374
v -0.02496715 0.03551078 0.00156613
v -0.02620372 0.03298281 0.00250000
v -0.04081898 0.01621394 0.00107389
v -0.00004580 0.01984780 0.00250000
v -0.02699442 0.03473517 0.00088084
v -0.00848802 0.04200582 0.00213663
v -0.04045576 0.01414098 0.00213461
v -0.01641057 0.04008316 0.00168071
v -0.04361777 0.00133177 0.00131675
v -0.04187408 0.00558620 0.00250000
v -0.03642343 0.02447436 0.00011687
v -0.01140156 0.04066437 0.00250000
v -0.00026687 0.03883491 0.00250000
v -0.03405271 0.00001322 0.00250000
v -0.02909958 0.03178920 0.00189536
v -0.03227922 0.02870463 0.00179669
v -0.00514422 0.04184358 0.00250000
v -0.01268510 0.04091016 0.00215763
v -0.04208404 0.01036551 0.00165648
v -0.00346379 0.04475162 0.00009387
v -0.02470715 0.03628070 0.00108359
v -0.04293553 0.00047753 0.00204285
v -0.04317032 0.00008142 0.00182840
v -0.04232850 0.00570343 0.00223938
v -0.04245770 0.00359504 0.00236059
v -0.00026048 0.01077816 0.00000000
v -0.02441749 0.03457923 0.00250000
v -0.00188482 0.04165959 0.00250000
v -0.04168998 0.00921644 0.00229659
v -0.01589435 0.00027988 0.00250000
v -0.00699555 0.04155922 0.00250000
v -0.03621736 0.02215525 0.00249350
v -0.04391239 0.00176505 0.00094328
v -0.00065315 0.04386722 0.00110612
v -0.03838840 0.02149307 0.00002052
v -0.00041225 0.04094649 0.00250000
v -0.02851872 0.03348095 0.00008598
v -0.03993273 0.01843768 0.00048563
v -0.03752035 0.02067323 0.00213460
v -0.01107489 0.04257912 0.00021118
v -0.01974933 0.03753992 0.00250000
v -0.04205453 0.00097418 0.00250000
v -0.03767971 0.02194919 0.00137687
v -0.03410999 0.02527235 0.00250000
v -0.00512189 0.01402162 0.00000000
v -0.02176053 0.03775913 0.00141876
v -0.04140867 0.00949763 0.00250000
v -0.02619440 0.03452066 0.00166224
v -0.03137302 0.02975761 0.00175429
v -0.02708961 0.03466043 0.00033036
v -0.00259346 0.00026794 0.00000000
v -0.03653584 0.02422820 0.00114383
v -0.03268364 0.02732221 0.00234472
v -0.01055697 0.04232335 0.00136723
v -0.04348929 0.00531814 0.00117830
v -0.00571176 0.04442278 0.00017222
v -0.01462063 0.00208954 0.00000000
v -0.04396130 0.00083934 0.00032094
v -0.00381622 0.04279733 0.00202238
v -0.00158188 0.04431431 0.00061902
v -0.00071593 0.04259501 0.00237179
v -0.02979532 0.03236967 0.00085211
v -0.02237203 0.03733211 0.00147135
v -0.03837191 0.01828972 0.00243786
v -0.03942241 0.01678366 0.00215228
v -0.04181975 0.01195537 0.00144380
v -0.01396954 0.04024808 0.00234930
v -0.04383055 0.00339301 0.00014614
v -0.00059328 0.01221354 0.00000000
v -0.03831327 0.02096384 0.00129807
v -0.02433524 0.03474889 0.00250000
v -0.04299023 0.00397154 0.00180872
v -0.00133238 0.01449167 0.00000000
v -0.02682766 0.03479101 0.00105881
v -0.04397152 0.00064780 0.00014956
v -0.04289731 0.00467333 0.00184976
v -0.03489315 0.02397156 0.00250000
v -0.03751820 0.02294611 0.00015211
v -0.01536827 0.03732763 0.00250000
v -0.04181446 0.00935250 0.00215156
v -0.00422414 0.04446966 0.00032285
v -0.00019064 0.00242260 0.00000000
v -0.04368561 0.00006652 0.00131388
v -0.02290959 0.03756225 0.00010629
v -0.03392992 0.02692311 0.00167674
v -0.04292276 0.00491413 0.00179018
v -0.03701827 0.02170826 0.00206853
v -0.02114791 0.03686584 0.00248654
v -0.03322903 0.02788869 0.00155544
v -0.00963489 0.04311153 0.00080312
v -0.00186643 0.01485225 0.00250000
v -0.01793995 0.03932678 0.00176314
v -0.02764473 0.03422752 0.00052163
v -0.03743103 0.02308811 0.00085395
v -0.03476084 0.02486087 0.00223896
v -0.03255055 0.02769618 0.00221449
v -0.01416698 0.03966509 0.00250000
v -0.01264776 0.04214197 0.00095950
v -0.00952199 0.04232956 0.00159438
v -0.02610791 0.03530622 0.00108830
f 56 77 159
f 38 118 39
f 39 118 12
f 33 77 135
f 135 114 33
f 98 77 33
f 37 104 157
f 157 7 37
f 37 59 124
f 152 56 159
f 31 107 98
f 175 47 43
f 114 47 175
f 38 67 88
f 110 104 12
f 12 118 110
f 110 118 38
f 37 121 168
f 168 59 37
f 168 10 59
f 144 39 12
f 119 121 37
f 129 69 119
f 119 69 55
f 7 129 119
f 37 7 119
f 119 79 141
f 56 21 119
f 141 77 119
f 77 56 119
f 131 155 70
f 107 31 126
f 114 175 163
f 163 175 43
f 43 88 163
f 163 88 67
f 120 24 38
f 120 163 24
f 97 67 38
f 38 24 97
f 97 163 67
f 24 163 97
f 96 17 90
f 153 157 104
f 104 110 153
f 38 88 166
f 166 110 38
f 166 88 43
f 43 47 166
f 166 114 135
f 166 47 114
f 161 155 128
f 42 87 52
f 42 21 56
f 57 131 11
f 11 131 70
f 152 117 139
f 52 127 136
f 52 119 46
f 46 119 21
f 52 136 178
f 178 136 84
f 121 119 95
f 72 119 55
f 79 119 72
f 44 34 94
f 44 94 30
f 30 94 131
f 164 131 57
f 107 126 106
f 106 126 34
f 106 34 44
f 68 90 63
f 38 39 145
f 145 120 38
f 145 65 120
f 39 144 145
f 115 65 17
f 115 17 96
f 96 181 115
f 64 90 17
f 63 90 64
f 134 168 121
f 167 117 142
f 167 142 159
f 159 77 167
f 167 77 98
f 98 107 167
f 128 155 86
f 155 5 86
f 71 5 155
f 70 155 3
f 155 161 3
f 122 42 52
f 21 42 122
f 52 46 122
f 122 46 21
f 52 87 20
f 116 3 161
f 116 161 128
f 128 179 116
f 70 3 116
f 116 179 136
f 150 11 87
f 91 149 87
f 87 11 91
f 70 149 91
f 91 11 70
f 56 152 14
f 14 42 56
f 169 173 84
f 84 136 169
f 136 179 169
f 169 179 128
f 99 54 48
f 48 54 5
f 84 173 19
f 19 146 84
f 173 169 19
f 158 146 78
f 78 19 99
f 146 19 78
f 4 119 52
f 52 178 4
f 84 146 22
f 22 146 121
f 121 95 22
f 58 95 119
f 58 178 84
f 84 22 58
f 58 22 95
f 155 131 111
f 131 94 111
f 111 94 34
f 34 126 111
f 111 126 31
f 111 31 98
f 98 33 111
f 111 33 114
f 114 155 111
f 44 30 109
f 113 30 131
f 131 164 113
f 120 65 112
f 29 64 143
f 143 64 17
f 140 165 104
f 140 104 37
f 37 124 140
f 140 124 59
f 59 40 140
f 89 146 158
f 49 155 172
f 172 147 49
f 147 105 49
f 10 168 75
f 75 89 105
f 168 134 75
f 134 89 75
f 93 139 117
f 158 71 132
f 132 71 155
f 76 71 158
f 87 149 32
f 32 20 87
f 52 20 123
f 57 11 103
f 11 150 103
f 103 150 139
f 103 164 57
f 80 150 87
f 139 150 80
f 5 54 137
f 128 86 137
f 137 86 5
f 54 19 100
f 100 19 169
f 133 54 99
f 99 19 133
f 133 19 54
f 2 78 99
f 119 4 162
f 162 58 119
f 139 160 170
f 108 170 160
f 108 109 30
f 108 160 109
f 65 115 101
f 101 112 65
f 101 115 181
f 29 143 1
f 1 143 104
f 104 165 1
f 40 29 36
f 36 140 40
f 35 181 96
f 96 8 35
f 35 101 181
f 35 155 114
f 112 101 35
f 114 163 35
f 120 112 35
f 163 120 35
f 130 147 172
f 172 25 130
f 130 105 147
f 51 25 172
f 62 8 92
f 59 10 182
f 182 25 92
f 182 40 59
f 174 68 63
f 63 40 174
f 40 182 174
f 184 89 158
f 105 89 184
f 28 105 184
f 158 132 184
f 184 132 28
f 121 146 177
f 146 89 177
f 177 134 121
f 177 89 134
f 155 49 85
f 85 132 155
f 28 132 85
f 85 105 28
f 85 49 105
f 117 167 9
f 9 93 117
f 156 160 139
f 158 78 73
f 73 76 158
f 78 2 73
f 53 32 149
f 20 32 53
f 116 123 148
f 148 149 70
f 70 116 148
f 148 123 20
f 20 53 148
f 127 123 171
f 171 123 116
f 171 136 127
f 171 116 136
f 154 127 52
f 52 123 154
f 154 123 127
f 23 103 139
f 139 170 23
f 164 103 23
f 170 108 23
f 23 113 164
f 23 108 30
f 30 113 23
f 139 80 15
f 152 139 15
f 15 14 152
f 42 14 15
f 87 42 15
f 15 80 87
f 18 169 128
f 128 137 18
f 18 137 169
f 169 137 180
f 180 100 169
f 180 137 54
f 54 100 180
f 29 1 41
f 41 36 29
f 125 35 8
f 125 51 172
f 8 51 125
f 172 155 125
f 155 35 125
f 27 16 90
f 151 8 96
f 105 130 74
f 10 75 74
f 74 75 105
f 74 130 25
f 74 182 10
f 25 182 74
f 92 25 176
f 176 62 92
f 25 51 176
f 109 160 61
f 160 156 61
f 66 106 44
f 81 73 2
f 99 48 81
f 81 2 99
f 13 53 149
f 149 148 13
f 13 148 53
f 92 8 60
f 8 151 60
f 50 174 182
f 50 6 174
f 50 182 92
f 92 60 50
f 183 174 138
f 174 6 138
f 90 183 138
f 138 27 90
f 16 27 138
f 138 6 16
f 45 66 44
f 93 66 45
f 139 93 45
f 45 156 139
f 16 6 26
f 26 50 16
f 6 50 26
f 90 16 102
f 96 90 102
f 102 151 96
f 82 60 151
f 151 102 82
f 82 102 60
f 83 50 60
f 60 102 83
f 16 50 83
f 83 102 16
f 159 142 117
f 117 152 159
f 55 69 72
f 135 77 72
f 72 77 141
f 72 129 7
f 157 153 72
f 7 157 72
f 72 69 129
f 141 79 72
f 72 166 135
f 72 153 110
f 110 166 72
f 64 29 40
f 64 40 63
f 65 145 143
f 12 104 143
f 143 144 12
f 143 145 144
f 17 65 143
f 178 58 162
f 162 4 178
f 174 183 90
f 90 68 174
f 41 1 165
f 165 140 41
f 140 36 41
f 8 62 176
f 176 51 8
f 107 106 66
f 66 9 167
f 66 167 107
f 93 9 66
f 81 48 5
f 5 71 81
f 76 73 81
f 71 76 81
f 109 61 45
f 44 109 45
f 45 61 156

