# https://github.com/mikedh/trimesh
v 0.05202959 -0.05410219 -0.05460804
v 0.05325640 -0.05281858 -0.06026997
v 0.05088350 -0.05626214 -0.05427452
v 0.05105399 -0.05699634 -0.06851502
v 0.05468830 -0.05014617 -0.06532064
v 0.05127982 -0.05685086 -0.06113164
v 0.05010366 -0.05170108 -0.05013458
v 0.05003102 -0.05321172 -0.07242134
v 0.05359108 -0.05237745 -0.07129624
v 0.05303404 -0.05353648 -0.06155393
v 0.05332212 -0.05255459 -0.05977703
v 0.05149128 -0.05013775 -0.08151655
v 0.05190330 -0.05325288 -0.05107166
v 0.05064714 -0.05091382 -0.08280401
v 0.05057338 -0.05093122 -0.05096065
v 0.05312337 -0.05385000 -0.06609665
v 0.05444599 -0.05046093 -0.06320993
v 0.05129658 -0.05705030 -0.06288692
v 0.05038765 -0.05743744 -0.05607416
v 0.05436572 -0.05009815 -0.06017489
v 0.05203634 -0.05584726 -0.06846501
v 0.05372302 -0.05083404 -0.07369667
v 0.05161639 -0.05374324 -0.05082307
v 0.05001909 -0.05409471 -0.05628600
v 0.05364045 -0.05263713 -0.06515262
v 0.05226466 -0.05364624 -0.05466581
v 0.05384454 -0.05088049 -0.05822843
v 0.05301113 -0.05291956 -0.05825874
v 0.05274923 -0.05126057 -0.05109322
v 0.05291296 -0.05419670 -0.06495486
v 0.05211699 -0.05010653 -0.05825671
v 0.05192490 -0.05612436 -0.06811940
v 0.05292822 -0.05002220 -0.07226467
v 0.05340367 -0.05001391 -0.05214340
v 0.05311367 -0.05321351 -0.06068764
v 0.05256731 -0.05302241 -0.05465260
v 0.05388809 -0.05207990 -0.07083065
v 0.05395614 -0.05196458 -0.07077930
v 0.05408006 -0.05166371 -0.06559699
v 0.05450519 -0.05068023 -0.06577699
v 0.05370382 -0.05190904 -0.07190476
v 0.05433825 -0.05115951 -0.06694099
v 0.05000899 -0.05875886 -0.06709743
v 0.05183372 -0.05014950 -0.05648911
v 0.05453175 -0.05051317 -0.06501981
v 0.05105407 -0.05058179 -0.08226933
v 0.05001619 -0.05508751 -0.06950520
v 0.05022399 -0.05864771 -0.06267054
v 0.05014777 -0.05835922 -0.05942528
v 0.05271492 -0.05411942 -0.07028600
v 0.05399726 -0.05201267 -0.06852532
v 0.05102154 -0.05042919 -0.05233221
v 0.05047379 -0.05686342 -0.05402656
v 0.05008080 -0.05215019 -0.05123366
v 0.05283909 -0.05084741 -0.05065736
v 0.05011418 -0.05775591 -0.05552945
v 0.05067489 -0.05800492 -0.06270805
v 0.05038394 -0.05775259 -0.05754215
v 0.05371661 -0.05171813 -0.06027921
v 0.05155555 -0.05645132 -0.06182867
v 0.05423697 -0.05133348 -0.06599070
v 0.05017135 -0.05289698 -0.07834511
v 0.05027681 -0.05881554 -0.06611207
v 0.05325468 -0.05355127 -0.06600138
v 0.05032474 -0.05853577 -0.06287779
v 0.05262616 -0.05107407 -0.05000236
v 0.05373698 -0.05054478 -0.07411886
v 0.05329826 -0.05356238 -0.06814344
v 0.05149141 -0.05691165 -0.06554648
v 0.05274329 -0.05377740 -0.05937336
v 0.05000740 -0.05817018 -0.05689298
v 0.05290735 -0.05041412 -0.05013217
v 0.05153904 -0.05672574 -0.06411290
v 0.05471587 -0.05020279 -0.07159127
v 0.05433159 -0.05031320 -0.06066180
v 0.05433707 -0.05050406 -0.06169842
v 0.05251621 -0.05515095 -0.06731951
v 0.05115115 -0.05691409 -0.06009661
v 0.05278837 -0.05299817 -0.05647442
v 0.05046799 -0.05668776 -0.05325465
v 0.05234655 -0.05545370 -0.06816453
v 0.05452761 -0.05009342 -0.06212162
v 0.05108405 -0.05663803 -0.05763877
v 0.05073578 -0.05788490 -0.06237535
v 0.05165601 -0.05579132 -0.05876039
v 0.05019920 -0.05808805 -0.05790916
v 0.05237610 -0.05531437 -0.06858398
v 0.05009874 -0.05069936 -0.07796608
v 0.05466214 -0.05048941 -0.07057311
v 0.05262563 -0.05362152 -0.05765898
v 0.05051241 -0.05588645 -0.05065806
v 0.05229190 -0.05528272 -0.06376380
v 0.05311150 -0.05046819 -0.05139027
v 0.05371181 -0.05039498 -0.05532868
v 0.05271031 -0.05459264 -0.06917620
v 0.05438237 -0.05106526 -0.07090039
v 0.05335642 -0.05324128 -0.06463506
v 0.05042461 -0.05857196 -0.06656073
v 0.05217062 -0.05569662 -0.06833246
v 0.05460591 -0.05055594 -0.06797898
v 0.05063869 -0.05832303 -0.06627054
v 0.05026706 -0.05728189 -0.05444732
v 0.05298742 -0.05023782 -0.05019280
v 0.05092241 -0.05707599 -0.05867103
v 0.05301792 -0.05415736 -0.06786762
v 0.05067072 -0.05651612 -0.05386616
v 0.05237105 -0.05544175 -0.06755236
v 0.05156622 -0.05681194 -0.06746292
v 0.05355917 -0.05242942 -0.07129405
v 0.05101433 -0.05480532 -0.05040959
v 0.05046376 -0.05055058 -0.08407896
v 0.05076660 -0.05605680 -0.05276868
v 0.05304346 -0.05386866 -0.06412689
v 0.05064068 -0.05603166 -0.05190603
v 0.05351378 -0.05312284 -0.06875769
v 0.05240056 -0.05508618 -0.06388820
v 0.05151404 -0.05602618 -0.05849518
v 0.05454334 -0.05025079 -0.06345107
v 0.05004148 -0.05896179 -0.06350955
v 0.05456152 -0.05064193 -0.06723142
v 0.05214776 -0.05274527 -0.05105963
v 0.05077543 -0.05794803 -0.06396743
v 0.05127102 -0.05733988 -0.06618523
v 0.05302127 -0.05241670 -0.05643275
v 0.05026586 -0.05029016 -0.07902993
f 72 7 66
f 72 103 7
f 74 12 33
f 88 8 24
f 7 103 15
f 103 52 15
f 109 50 111
f 111 41 109
f 4 98 111
f 111 21 4
f 4 21 98
f 111 50 14
f 14 21 111
f 50 21 14
f 117 83 78
f 74 41 22
f 74 33 82
f 55 93 103
f 103 93 34
f 34 36 94
f 93 36 34
f 34 52 103
f 34 44 52
f 34 82 33
f 94 36 124
f 52 44 125
f 125 12 111
f 111 88 125
f 125 15 52
f 125 88 7
f 7 15 125
f 7 88 54
f 54 88 24
f 71 7 54
f 54 24 71
f 65 119 63
f 71 24 47
f 24 8 47
f 9 109 41
f 78 83 104
f 71 119 49
f 49 86 71
f 56 7 71
f 56 91 7
f 83 117 3
f 111 12 46
f 46 12 74
f 46 41 111
f 46 22 41
f 74 82 5
f 5 82 118
f 31 33 12
f 12 125 31
f 31 125 44
f 31 34 33
f 44 34 31
f 121 36 93
f 121 13 36
f 121 55 66
f 76 82 75
f 20 34 94
f 75 82 20
f 82 34 20
f 79 124 36
f 36 90 79
f 65 63 101
f 101 63 98
f 8 88 43
f 43 47 8
f 43 119 71
f 71 47 43
f 43 63 119
f 111 98 43
f 98 63 43
f 70 90 117
f 35 2 70
f 70 79 90
f 37 41 74
f 37 9 41
f 109 9 37
f 74 5 89
f 98 21 32
f 58 104 83
f 83 3 58
f 71 86 58
f 58 56 71
f 48 119 65
f 65 49 48
f 48 49 119
f 6 117 78
f 1 3 117
f 117 90 1
f 74 22 67
f 67 46 74
f 22 46 67
f 93 55 29
f 29 121 93
f 55 121 29
f 110 121 66
f 66 7 110
f 7 91 110
f 82 76 17
f 123 18 122
f 122 101 123
f 62 88 111
f 111 43 62
f 62 43 88
f 35 70 10
f 10 2 35
f 10 76 2
f 100 5 120
f 100 89 5
f 96 89 115
f 74 89 96
f 120 5 40
f 40 42 120
f 115 89 51
f 51 42 115
f 120 42 51
f 51 100 120
f 89 100 51
f 105 81 115
f 73 18 123
f 32 81 108
f 123 101 108
f 108 101 98
f 98 32 108
f 109 37 95
f 95 21 50
f 50 109 95
f 19 58 3
f 56 58 19
f 53 80 102
f 91 56 102
f 102 80 91
f 26 90 36
f 26 1 90
f 36 13 26
f 13 1 26
f 91 80 114
f 114 13 91
f 91 13 23
f 23 110 91
f 13 121 23
f 121 110 23
f 124 79 27
f 94 124 27
f 27 20 94
f 27 11 75
f 75 20 27
f 75 11 59
f 59 11 2
f 59 76 75
f 2 76 59
f 84 122 18
f 18 6 84
f 84 49 65
f 86 49 84
f 84 6 78
f 78 104 84
f 84 58 86
f 104 58 84
f 38 96 115
f 115 81 38
f 38 37 74
f 74 96 38
f 38 95 37
f 81 95 38
f 45 5 118
f 45 40 5
f 118 82 45
f 82 17 45
f 97 45 17
f 76 10 97
f 97 17 76
f 68 105 115
f 87 95 81
f 21 95 87
f 106 19 3
f 106 80 53
f 85 70 117
f 28 27 79
f 11 27 28
f 79 70 28
f 28 70 2
f 2 11 28
f 57 84 65
f 122 84 57
f 65 101 57
f 101 122 57
f 42 40 61
f 81 105 107
f 105 77 107
f 123 108 107
f 107 108 81
f 107 77 73
f 16 77 105
f 105 68 16
f 64 97 16
f 16 115 64
f 16 68 115
f 99 81 32
f 99 87 81
f 99 32 21
f 21 87 99
f 112 106 3
f 112 114 80
f 80 106 112
f 3 1 112
f 13 114 112
f 112 1 13
f 39 61 40
f 40 45 39
f 45 97 39
f 69 73 123
f 123 107 69
f 69 107 73
f 73 77 92
f 77 116 92
f 18 73 92
f 30 116 77
f 77 16 30
f 25 39 97
f 61 39 25
f 25 97 64
f 42 61 25
f 64 115 25
f 115 42 25
f 18 92 60
f 60 6 18
f 60 92 10
f 117 6 60
f 60 10 70
f 60 85 117
f 70 85 60
f 116 30 113
f 113 92 116
f 10 92 113
f 113 97 10
f 113 16 97
f 113 30 16
f 55 72 66
f 103 72 55
f 56 19 106
f 53 102 106
f 106 102 56

