# https://github.com/mikedh/trimesh
v 0.00097838 -0.01569260 -0.15107871
v 0.00851067 -0.00319681 -0.15152050
v 0.01217423 -0.00967715 -0.15071765
v 0.00757965 -0.01306970 -0.15107130
v 0.00310059 -0.01966628 -0.15045957
v 0.01238025 -0.00208160 -0.15097683
v 0.00905656 -0.01267254 -0.15093886
v 0.00030097 -0.01327258 -0.15005771
v 0.00383675 -0.01223270 -0.15141521
v 0.01375768 -0.00404811 -0.15070603
v 0.00454952 -0.00527698 -0.15178981
v 0.00107615 -0.01676120 -0.15093999
v 0.00308990 -0.01623742 -0.15097556
v 0.01571990 -0.00932654 -0.15002223
v 0.00867658 -0.01190585 -0.15105837
v 0.00677246 -0.00567580 -0.15159807
v 0.00667227 -0.00799664 -0.15152420
v 0.00468737 -0.00299548 -0.15185659
v 0.00882607 -0.01114536 -0.15109778
v 0.01332565 -0.00641382 -0.15071149
v 0.00160622 -0.01459626 -0.15119759
v 0.01275745 -0.00459508 -0.15085860
v 0.01032345 -0.00503246 -0.15122250
v 0.00307739 -0.00897038 -0.15000206
v 0.00309010 -0.00146545 -0.15192568
v 0.00948076 -0.01749241 -0.15027110
v 0.00994034 -0.00167036 -0.15136672
v 0.00030078 -0.01462926 -0.15004623
v 0.00923968 -0.00427471 -0.15141408
v 0.00633985 -0.00436055 -0.15167463
v 0.00203963 -0.00199901 -0.15194638
v 0.00157089 -0.01931454 -0.15055866
v 0.00578886 -0.00117251 -0.15004473
v 0.00047970 -0.01314244 -0.15136053
v 0.00048941 -0.01956275 -0.15052270
v 0.00432893 -0.01235822 -0.15136930
v 0.00829620 -0.00694064 -0.15142993
v 0.00835070 -0.00325897 -0.15153254
v 0.00030788 -0.01742906 -0.15068350
v 0.00032265 -0.00787847 -0.15157195
v 0.01155572 -0.01318491 -0.15052148
v 0.00449227 -0.00848380 -0.15165401
v 0.01166338 -0.00688926 -0.15095381
v 0.01026623 -0.01339491 -0.15068758
v 0.00865960 -0.01332096 -0.15093170
v 0.01271811 -0.00015421 -0.15092954
v 0.00153421 -0.00817518 -0.15174768
v 0.00075721 -0.01065162 -0.15158793
v 0.01574275 -0.00519574 -0.15020388
v 0.00713466 -0.00383700 -0.15162104
v 0.01329977 -0.00089882 -0.15082688
v 0.00030024 -0.01713519 -0.15045116
v 0.00179364 -0.01417207 -0.15124263
v 0.00331779 -0.01349126 -0.15129779
v 0.01007521 -0.00951667 -0.15104298
v 0.00602916 -0.01010517 -0.15141648
v 0.00731364 -0.02041998 -0.15002324
v 0.00260011 -0.00882582 -0.15168574
v 0.00034668 -0.00654025 -0.15177927
v 0.00555890 -0.01129810 -0.15135979
v 0.00977502 -0.00331196 -0.15136416
v 0.00110438 -0.00331370 -0.15194651
v 0.00066149 -0.00051833 -0.15033550
v 0.00030027 -0.02006830 -0.15011140
v 0.01092695 -0.00808701 -0.15102477
v 0.01396221 -0.01220203 -0.15017540
v 0.00062486 -0.00900723 -0.15170898
v 0.00030287 -0.01281614 -0.15095405
v 0.01384654 -0.00548812 -0.15063059
v 0.01368471 -0.00207576 -0.15075332
v 0.00453908 -0.01771283 -0.15070073
v 0.00854755 -0.01820005 -0.15029109
v 0.00471702 -0.00206485 -0.15185892
v 0.00047593 -0.01164363 -0.15151087
v 0.00839875 -0.00026387 -0.15156267
v 0.00060699 -0.00953981 -0.15167478
v 0.01650418 -0.00466347 -0.15004817
v 0.00181927 -0.00309418 -0.15193284
v 0.00120250 -0.01511366 -0.15114344
v 0.00868197 -0.01960245 -0.15000282
v 0.00864965 -0.00388838 -0.15148830
v 0.01307117 -0.00054674 -0.15086753
v 0.00867386 -0.01797886 -0.15031275
v 0.01367331 -0.01040054 -0.15039558
v 0.00270688 -0.01877304 -0.15062472
v 0.00030111 -0.01885363 -0.15043955
v 0.00913509 -0.00625781 -0.15136146
v 0.00198310 -0.02202539 -0.15009336
v 0.00270174 -0.00797302 -0.15174125
v 0.00245530 -0.00068496 -0.15195130
v 0.00795772 -0.01618124 -0.15064841
v 0.00093060 -0.00987141 -0.15001416
v 0.00283831 -0.01224246 -0.15143482
v 0.01017481 -0.01854269 -0.15000586
v 0.01070090 -0.00512791 -0.15116147
v 0.00170684 -0.01812153 -0.15074273
v 0.01344954 -0.00404869 -0.15076851
v 0.00057720 -0.01761719 -0.15083101
v 0.00068431 -0.00002274 -0.15034543
v 0.00164529 -0.01433597 -0.15122613
v 0.01538644 -0.00623656 -0.15024662
v 0.01059765 -0.00680722 -0.15111928
v 0.00030222 -0.01310595 -0.15084834
v 0.01423964 -0.00166036 -0.15062685
v 0.01536201 -0.00543208 -0.15028287
v 0.01288725 -0.01102722 -0.15050010
v 0.00117616 -0.00847704 -0.15173411
v 0.00045114 -0.00874437 -0.15171713
v 0.00790095 -0.01405703 -0.15092345
v 0.00869455 -0.00596733 -0.15142380
v 0.01358952 -0.00784352 -0.15060007
v 0.00244612 -0.01383473 -0.15127282
v 0.00983226 -0.00032595 -0.15139277
v 0.01087860 -0.00324597 -0.15119372
v 0.01270211 -0.01252030 -0.15040427
v 0.00909339 -0.00018888 -0.15148652
v 0.00805716 -0.00701645 -0.15144843
v 0.00648746 -0.00772418 -0.15155104
v 0.00051531 -0.02047719 -0.15038742
v 0.01406869 -0.00875960 -0.15044473
v 0.00366136 -0.01257521 -0.15139651
v 0.00109179 -0.01733195 -0.15086481
v 0.00097032 -0.00443386 -0.15191685
v 0.01639890 -0.00377384 -0.15010627
v 0.00699802 -0.00419329 -0.15162248
v 0.00226698 -0.00011489 -0.15028563
v 0.00051902 -0.01682317 -0.15093674
v 0.00429905 -0.00054278 -0.15020254
v 0.00066308 -0.02250093 -0.15001580
v 0.00300865 -0.00087456 -0.15193575
v 0.00804746 -0.00168362 -0.15158519
v 0.01045073 -0.00042840 -0.15130691
v 0.00031943 -0.02075517 -0.15021897
v 0.00315682 -0.01573056 -0.15103458
v 0.00603425 -0.00985187 -0.15143498
v 0.00367531 -0.01401555 -0.15122521
v 0.00769684 -0.01279829 -0.15108723
v 0.00514276 -0.00848425 -0.15160506
v 0.00042196 -0.01933132 -0.15053732
v 0.01448844 -0.01240461 -0.15004662
v 0.01131883 -0.00843765 -0.15094723
v 0.01139889 -0.00112574 -0.15114670
v 0.00769759 -0.01796947 -0.15043997
v 0.00491465 -0.01767995 -0.15067844
v 0.00282011 -0.00009450 -0.15194783
v 0.01111114 -0.00285177 -0.15116366
v 0.01271493 -0.00835323 -0.15074272
v 0.00123073 -0.00976086 -0.15001165
v 0.00147929 -0.01709865 -0.15089209
v 0.01465327 -0.00393807 -0.15050335
v 0.00758962 -0.01965102 -0.15014062
v 0.01455652 -0.01268004 -0.15000792
v 0.00420906 -0.00004090 -0.15190102
v 0.00282343 -0.02184428 -0.15010114
v 0.01314165 -0.00989259 -0.15055251
v 0.00156357 -0.00091208 -0.15196987
v 0.00282759 -0.00244340 -0.15191955
v 0.00256176 -0.01956831 -0.15049436
v 0.00391722 -0.01813026 -0.15066727
v 0.00035903 -0.00884662 -0.15165626
v 0.00154995 -0.01229402 -0.15144224
v 0.00408214 -0.00682749 -0.15176135
v 0.00793064 -0.00998487 -0.15127982
v 0.00030214 -0.01102033 -0.15039337
v 0.00209929 -0.01529304 -0.15110581
v 0.01320928 -0.01473207 -0.15002846
v 0.00030981 -0.00213020 -0.15052558
v 0.00040486 -0.01439050 -0.15120147
v 0.00319180 -0.01244560 -0.15141349
v 0.00077491 -0.00030293 -0.15199302
v 0.00530802 -0.02132375 -0.15000156
v 0.01357457 -0.00199399 -0.15077449
v 0.00216502 -0.00363961 -0.15191033
v 0.01480650 -0.00852511 -0.15029318
v 0.00639137 -0.00801494 -0.15154435
v 0.01301208 -0.01337774 -0.15027162
v 0.00030571 -0.01127802 -0.15116343
v 0.00036597 -0.00274993 -0.15175117
v 0.00074067 -0.01284640 -0.15139905
v 0.00937931 -0.00186447 -0.15144390
v 0.01242848 -0.00140749 -0.15097216
v 0.00200220 -0.01298143 -0.15137150
v 0.01437736 -0.01092339 -0.15019559
v 0.01185145 -0.00516707 -0.15098115
v 0.01551437 -0.00109039 -0.15034001
v 0.00036905 -0.01005544 -0.15157843
v 0.00214148 -0.00219631 -0.15194104
v 0.01364398 -0.00286795 -0.15075704
v 0.00417122 -0.01616088 -0.15092180
v 0.01633239 -0.00298663 -0.15012878
v 0.00538313 -0.00777709 -0.15163773
v 0.00409745 -0.01264791 -0.15136418
v 0.00489121 -0.00420210 -0.15179910
v 0.00165988 -0.02142895 -0.15020210
v 0.00238443 -0.00831430 -0.15172444
v 0.00272168 -0.01902778 -0.15058157
v 0.00081049 -0.01301595 -0.15138005
v 0.00091802 -0.01217698 -0.15145868
v 0.00058922 -0.00667441 -0.15184266
v 0.00828498 -0.00419026 -0.15151109
v 0.01480366 -0.01002120 -0.15017322
v 0.00822010 -0.00759208 -0.15141670
v 0.00030091 -0.01492187 -0.15081980
v 0.00720041 -0.01160670 -0.15121504
f 99 170 167
f 170 178 167
f 92 33 99
f 190 33 77
f 185 33 190
f 99 33 126
f 129 64 133
f 167 164 8
f 128 33 185
f 185 126 128
f 128 126 33
f 86 64 52
f 86 133 64
f 46 126 185
f 99 126 46
f 99 46 153
f 153 46 116
f 106 41 7
f 63 92 99
f 63 8 92
f 99 167 63
f 167 8 63
f 28 64 129
f 129 92 28
f 92 8 28
f 52 64 28
f 28 8 52
f 148 92 129
f 129 24 148
f 33 92 148
f 148 24 33
f 14 24 152
f 77 33 14
f 33 24 14
f 94 152 80
f 152 24 80
f 143 154 71
f 57 154 143
f 74 186 108
f 40 167 178
f 201 14 183
f 166 152 94
f 94 176 166
f 166 176 152
f 115 41 106
f 115 176 41
f 145 170 99
f 99 153 145
f 45 7 41
f 19 163 202
f 129 154 171
f 171 154 57
f 57 80 171
f 171 24 129
f 171 80 24
f 151 80 57
f 57 143 151
f 26 176 94
f 41 176 26
f 91 45 26
f 74 48 93
f 168 186 74
f 65 202 87
f 76 48 74
f 74 108 76
f 195 58 76
f 76 58 121
f 121 93 76
f 76 93 48
f 199 108 59
f 59 178 170
f 170 199 59
f 59 40 178
f 203 86 52
f 52 8 203
f 203 8 164
f 201 183 120
f 120 14 201
f 152 176 66
f 116 46 113
f 46 132 113
f 180 116 113
f 113 132 180
f 130 145 153
f 75 153 116
f 75 116 180
f 180 131 75
f 180 29 2
f 2 131 180
f 204 163 137
f 202 163 17
f 55 202 65
f 55 19 202
f 19 55 141
f 141 55 65
f 144 143 71
f 109 45 91
f 91 143 109
f 143 144 109
f 71 13 189
f 121 192 136
f 136 189 13
f 88 154 129
f 94 80 72
f 80 151 72
f 72 151 143
f 44 45 41
f 41 26 44
f 44 26 45
f 89 58 195
f 42 58 89
f 89 162 42
f 199 162 89
f 121 58 9
f 9 58 42
f 9 192 121
f 139 168 127
f 98 35 127
f 127 35 139
f 186 168 39
f 86 203 39
f 133 86 39
f 39 139 133
f 39 168 139
f 121 112 182
f 182 179 121
f 197 179 182
f 54 112 121
f 121 136 54
f 110 87 202
f 29 87 110
f 67 108 199
f 67 76 108
f 40 59 160
f 186 39 160
f 160 39 40
f 160 108 186
f 160 59 108
f 167 40 177
f 40 39 177
f 177 39 203
f 102 87 29
f 84 120 183
f 84 66 176
f 152 66 84
f 120 84 155
f 155 84 176
f 155 115 106
f 176 115 155
f 77 14 174
f 14 120 174
f 174 120 111
f 180 132 27
f 145 130 90
f 90 156 170
f 170 145 90
f 106 7 3
f 7 141 3
f 15 141 7
f 19 141 15
f 7 45 15
f 15 45 137
f 137 163 15
f 163 19 15
f 4 109 144
f 4 144 71
f 71 189 4
f 189 136 4
f 137 45 4
f 45 109 4
f 4 192 137
f 4 136 192
f 119 35 98
f 119 85 194
f 119 88 129
f 194 88 119
f 129 133 119
f 133 139 119
f 139 35 119
f 159 13 71
f 159 85 13
f 158 88 194
f 154 88 158
f 83 72 143
f 83 143 91
f 91 26 83
f 83 26 94
f 94 72 83
f 169 93 121
f 121 179 169
f 74 93 169
f 192 9 36
f 34 127 168
f 34 168 74
f 74 179 34
f 134 136 13
f 134 54 136
f 37 110 202
f 81 2 29
f 29 110 81
f 123 162 199
f 123 199 170
f 170 62 123
f 170 156 31
f 31 62 170
f 156 90 31
f 31 90 130
f 153 75 73
f 73 75 131
f 199 89 47
f 167 177 68
f 68 177 203
f 152 84 140
f 140 84 183
f 140 14 152
f 140 183 14
f 147 141 65
f 147 3 141
f 111 120 147
f 120 155 147
f 147 155 106
f 106 3 147
f 101 174 111
f 77 174 101
f 101 49 77
f 124 190 77
f 185 190 124
f 77 49 124
f 124 49 150
f 56 204 137
f 17 175 191
f 162 11 191
f 42 162 191
f 138 56 42
f 42 191 138
f 138 191 175
f 98 127 122
f 127 149 122
f 13 85 96
f 96 149 13
f 96 122 149
f 98 122 96
f 96 119 98
f 13 149 1
f 1 179 197
f 1 34 179
f 127 34 1
f 85 159 5
f 71 154 5
f 5 159 71
f 154 158 196
f 196 5 154
f 85 5 196
f 198 179 74
f 74 169 198
f 131 2 18
f 18 73 131
f 18 11 162
f 25 130 18
f 18 130 153
f 153 73 18
f 107 67 199
f 199 47 107
f 76 67 107
f 107 47 89
f 103 203 164
f 103 68 203
f 103 164 167
f 167 68 103
f 61 29 180
f 180 27 61
f 150 49 105
f 49 101 105
f 105 10 150
f 101 10 105
f 185 104 51
f 69 101 111
f 111 10 69
f 69 10 101
f 202 17 118
f 17 191 118
f 204 56 135
f 56 138 135
f 85 119 32
f 32 96 85
f 119 96 32
f 12 149 127
f 127 1 12
f 12 1 149
f 161 169 179
f 179 198 161
f 161 198 169
f 173 18 162
f 162 123 173
f 173 123 62
f 25 18 157
f 29 61 95
f 97 61 114
f 114 6 97
f 146 6 114
f 114 61 27
f 82 46 185
f 185 51 82
f 142 6 146
f 142 27 132
f 181 6 142
f 46 181 142
f 142 132 46
f 97 6 188
f 188 10 97
f 150 10 188
f 188 124 150
f 185 124 188
f 193 18 202
f 11 18 193
f 79 1 197
f 197 21 79
f 100 21 197
f 112 21 100
f 50 30 18
f 110 37 117
f 117 37 202
f 18 30 117
f 62 31 187
f 187 31 130
f 78 157 18
f 78 173 62
f 18 173 78
f 78 187 157
f 62 187 78
f 29 95 23
f 22 61 97
f 172 188 6
f 13 1 165
f 53 182 112
f 112 100 53
f 38 18 2
f 2 50 38
f 38 50 18
f 202 18 16
f 16 117 202
f 18 117 16
f 43 95 147
f 43 23 95
f 184 95 61
f 61 22 184
f 70 172 51
f 70 51 104
f 188 172 70
f 70 104 185
f 185 188 70
f 30 50 125
f 110 117 125
f 125 117 30
f 125 200 110
f 20 184 22
f 95 184 20
f 147 95 20
f 20 22 97
f 111 147 20
f 20 10 111
f 97 10 20
f 36 9 42
f 42 60 36
f 137 192 36
f 36 60 137
f 65 87 147
f 87 102 147
f 138 17 163
f 138 175 17
f 196 158 194
f 194 85 196
f 107 89 195
f 195 76 107
f 56 60 42
f 137 60 56
f 135 138 163
f 163 204 135
f 142 114 27
f 146 114 142
f 193 191 11
f 193 118 191
f 202 118 193
f 25 157 187
f 187 130 25
f 172 6 181
f 172 181 46
f 46 82 172
f 172 82 51
f 165 21 112
f 112 54 165
f 54 134 165
f 165 134 13
f 165 79 21
f 1 79 165
f 53 100 197
f 197 182 53
f 200 81 110
f 2 81 200
f 43 147 102
f 43 102 29
f 29 23 43
f 2 200 125
f 125 50 2

