# https://github.com/mikedh/trimesh
v -0.01146664 -0.01434072 -0.15030929
v -0.00851398 -0.01034705 -0.15113310
v -0.00434421 -0.00281162 -0.15188020
v -0.01497060 -0.00803010 -0.15018737
v -0.00204130 -0.00830220 -0.15171829
v -0.01424250 -0.00751693 -0.15037215
v -0.01050924 -0.01527778 -0.15036260
v -0.01464234 -0.01113532 -0.15000166
v -0.00336317 -0.00712651 -0.15175668
v -0.01417435 -0.00070611 -0.15061935
v -0.00538818 -0.01376066 -0.15110594
v -0.00839914 -0.01656027 -0.15048190
v -0.00751839 -0.01792571 -0.15036945
v -0.00765164 -0.01148570 -0.15115311
v -0.01333069 -0.01179632 -0.15022339
v -0.01131259 -0.01362395 -0.15041755
v -0.00505831 -0.00939232 -0.15151422
v -0.00658922 -0.00388440 -0.15168431
v -0.00285732 -0.01266626 -0.15135268
v -0.00366322 -0.01452271 -0.15113814
v -0.01418144 -0.00515363 -0.15049697
v -0.00098645 -0.00684705 -0.15180840
v -0.00031881 -0.01144812 -0.15117335
v -0.00137355 -0.00053719 -0.15198738
v -0.00191409 -0.00944205 -0.15164769
v -0.00304614 -0.01296956 -0.15131937
v -0.00836906 -0.00508664 -0.15147119
v -0.00413386 -0.00878385 -0.15163119
v -0.00651128 -0.00177216 -0.15173905
v -0.01287592 -0.00634587 -0.15071383
v -0.01233250 -0.01279325 -0.15032573
v -0.01272939 -0.01184131 -0.15034589
v -0.00403643 -0.01811725 -0.15065159
v -0.01357724 -0.00771648 -0.15050213
v -0.01076256 -0.00400201 -0.15118083
v -0.01606000 -0.00449210 -0.15012497
v -0.00923358 -0.00093104 -0.15003219
v -0.00609696 -0.00986821 -0.15139775
v -0.00996677 -0.01603798 -0.15034337
v -0.00778438 -0.00528571 -0.15153062
v -0.00382586 -0.01988797 -0.15035429
v -0.00931947 -0.00075021 -0.15146243
v -0.00846630 -0.00824027 -0.15130113
v -0.01034646 -0.00934261 -0.15094930
v -0.00075932 -0.02194661 -0.15010500
v -0.00383008 -0.00374436 -0.15189027
v -0.00487166 -0.00067838 -0.15187688
v -0.01190226 -0.00644482 -0.15090831
v -0.00709111 -0.00809289 -0.15145178
v -0.00585746 -0.00344177 -0.15175243
v -0.00893078 -0.00650356 -0.15132851
v -0.00383926 -0.01053679 -0.15151974
v -0.01199036 -0.00985500 -0.15066549
v -0.00846820 -0.01402603 -0.15078913
v -0.00697056 -0.01953445 -0.15015193
v -0.00182935 -0.00007416 -0.15199114
v -0.00826821 -0.01850767 -0.15020287
v -0.00256537 -0.01835940 -0.15065553
v -0.00226759 -0.00452203 -0.15189250
v -0.01229740 -0.01045757 -0.15055284
v -0.01595404 -0.00132536 -0.15022470
v -0.00047004 -0.01429916 -0.15122910
v -0.01024235 -0.01448825 -0.15048916
v -0.00371614 -0.00976318 -0.15157921
v -0.01543183 -0.00350093 -0.15030441
v -0.00195450 -0.01452486 -0.15118261
v -0.01089833 -0.00140669 -0.15121875
v -0.00844955 -0.00389373 -0.15151299
v -0.00191775 -0.02213082 -0.15003811
v -0.01230116 -0.00675884 -0.15081451
v -0.00956940 -0.01610400 -0.15039275
v -0.00263186 -0.01546160 -0.15106532
v -0.00032549 -0.01038377 -0.15132728
v -0.01062527 -0.00770540 -0.15103281
v -0.00616999 -0.01891322 -0.15033251
v -0.01296436 -0.00801793 -0.15060872
v -0.01033484 -0.01714127 -0.15010499
v -0.00807436 -0.01009868 -0.15121464
v -0.00378749 -0.01224746 -0.15137672
v -0.01111826 -0.01593075 -0.15016664
v -0.01415636 -0.00132478 -0.15061425
v -0.00188986 -0.02183130 -0.15009089
v -0.00034559 -0.00618994 -0.15158991
v -0.00431147 -0.00984119 -0.15153927
v -0.00048603 -0.00358744 -0.15194367
v -0.00321254 -0.00747326 -0.15174454
v -0.00691785 -0.00553868 -0.15158728
v -0.00030021 -0.01563442 -0.15004053
v -0.00793010 -0.00320917 -0.15159384
v -0.01563341 -0.00686045 -0.15011179
v -0.01027971 -0.00916839 -0.15097216
v -0.00763613 -0.01553855 -0.15071793
v -0.01243886 -0.00422754 -0.15090354
v -0.00682149 -0.01255526 -0.15111542
v -0.00837129 -0.01262060 -0.15095328
v -0.00403730 -0.01469286 -0.15110796
v -0.00307570 -0.01084274 -0.15151655
v -0.00939841 -0.01136125 -0.15092747
v -0.01063528 -0.00864774 -0.15096144
v -0.00503214 -0.02063891 -0.15013065
v -0.01173763 -0.00819278 -0.15083905
v -0.00879809 -0.01768984 -0.15027395
v -0.00123945 -0.00089174 -0.15197527
v -0.01220609 -0.01239314 -0.15039634
v -0.00041512 -0.02098776 -0.15026431
v -0.01507514 -0.00955445 -0.15004070
v -0.00905566 -0.00785827 -0.15124654
v -0.01210313 -0.00374598 -0.15099381
v -0.00880087 -0.00012204 -0.15153588
v -0.00705840 -0.01639128 -0.15065237
v -0.01456235 -0.00375066 -0.15048060
v -0.00932245 -0.00245977 -0.15142342
v -0.00118899 -0.00580789 -0.15185246
v -0.00598956 -0.00754398 -0.15157210
v -0.00030046 -0.01411509 -0.15038842
v -0.01174450 -0.00268729 -0.15106966
v -0.01176462 -0.00862971 -0.15080086
v -0.00552324 -0.01795449 -0.15055559
v -0.00734124 -0.01975017 -0.15008047
v -0.00660337 -0.01758736 -0.15050995
v -0.00042977 -0.00207811 -0.15048297
v -0.00830872 -0.01292675 -0.15093046
v -0.01082827 -0.00112104 -0.15123376
v -0.00927958 -0.01616023 -0.15042675
v -0.01196525 -0.00028258 -0.15107153
v -0.00134135 -0.00783911 -0.15175227
v -0.00589640 -0.01687603 -0.15068851
v -0.01156675 -0.01219935 -0.15053695
v -0.00806377 -0.01041367 -0.15119204
v -0.00402022 -0.01458233 -0.15112062
v -0.00718187 -0.00446694 -0.15161341
v -0.00128326 -0.01947843 -0.15051885
v -0.01381266 -0.00522377 -0.15057063
v -0.00827760 -0.00082803 -0.15158901
v -0.01325867 -0.00098573 -0.15081058
v -0.00534705 -0.00600286 -0.15168943
v -0.00390951 -0.00313027 -0.15189766
v -0.00708105 -0.01628988 -0.15066597
v -0.00387121 -0.02001164 -0.15033131
v -0.00461253 -0.00305715 -0.15185750
v -0.00892098 -0.01790137 -0.15022551
v -0.00373569 -0.00044949 -0.15193775
v -0.01113026 -0.00508130 -0.15108030
v -0.01394176 -0.00952078 -0.15028341
v -0.00528527 -0.01666643 -0.15077457
v -0.00715165 -0.00304588 -0.15166097
v -0.00694635 -0.00251809 -0.15168867
v -0.00394801 -0.01407277 -0.15117851
v -0.00397297 -0.01555122 -0.15101894
v -0.01642554 -0.00435329 -0.15002961
v -0.00341243 -0.01778893 -0.15071791
v -0.01247695 -0.00857472 -0.15066620
v -0.00356851 -0.00512380 -0.15183798
v -0.00416436 -0.01447908 -0.15112347
v -0.00030487 -0.00048495 -0.15061441
v -0.01090825 -0.01650660 -0.15010932
v -0.00089329 -0.02180045 -0.15013122
v -0.00471597 -0.00019566 -0.15042124
v -0.01384865 -0.01132248 -0.15015446
v -0.00573493 -0.02048002 -0.15007291
v -0.00033989 -0.00138334 -0.15130071
v -0.01634915 -0.00491874 -0.15002336
v -0.00421308 -0.00316814 -0.15188345
v -0.00638338 -0.00622900 -0.15159885
v -0.00790715 -0.00336863 -0.15159371
v -0.00031016 -0.00614283 -0.15034074
v -0.00408994 -0.00263457 -0.15189864
v -0.00751831 -0.01182673 -0.15113452
v -0.00363518 -0.00378061 -0.15189262
v -0.01576991 -0.00253132 -0.15024706
v -0.00071747 -0.00165311 -0.15048790
v -0.01165977 -0.00343537 -0.15107045
v -0.01186291 -0.01154955 -0.15055631
v -0.01144309 -0.00249415 -0.15111885
v -0.00048238 -0.02162585 -0.15016716
v -0.00531347 -0.01113550 -0.15136455
v -0.01109072 -0.01127645 -0.15069020
v -0.01641466 -0.00290504 -0.15007364
v -0.01678376 -0.00113415 -0.15000069
v -0.01379004 -0.00476011 -0.15059692
v -0.00165054 -0.01411646 -0.15122906
v -0.00148397 -0.01028247 -0.15001185
v -0.00968119 -0.01560759 -0.15044873
v -0.00732555 -0.01692368 -0.15054388
v -0.00788486 -0.00701475 -0.15144711
v -0.01505869 -0.00678979 -0.15023564
v -0.01334578 -0.01357898 -0.15002496
v -0.00168426 -0.01090768 -0.15153299
v -0.00574601 -0.01080784 -0.15135492
v -0.01484351 -0.00069337 -0.15047453
v -0.00594737 -0.01515053 -0.15091760
v -0.00694834 -0.01457863 -0.15089535
v -0.00324222 -0.00882585 -0.15165938
v -0.00970603 -0.01337325 -0.15068291
v -0.00106176 -0.01475125 -0.15117565
v -0.00384464 -0.01274548 -0.15132229
v -0.00954800 -0.00266760 -0.15138679
v -0.00931514 -0.01203100 -0.15087869
v -0.00594158 -0.00081317 -0.15180462
v -0.00422994 -0.00607581 -0.15177276
v -0.01407139 -0.00077205 -0.15064070
v -0.00033867 -0.00866131 -0.15162183
v -0.00341267 -0.01443942 -0.15115355
v -0.00659140 -0.01626669 -0.15071660
v -0.00906708 -0.01700937 -0.15033408
v -0.00618785 -0.01647312 -0.15072322
v -0.01098074 -0.01526358 -0.15028495
v -0.01061061 -0.01379816 -0.15050808
v -0.01421826 -0.00959323 -0.15021918
v -0.01528589 -0.00928889 -0.15001799
v -0.00988021 -0.00165263 -0.15136267
v -0.00096079 -0.01598881 -0.15103426
v -0.01044312 -0.01375979 -0.15053650
v -0.00958497 -0.01693798 -0.15026571
v -0.00688108 -0.01507730 -0.15084893
v -0.01490591 -0.00229480 -0.15043773
v -0.01221459 -0.01233468 -0.15040094
v -0.00776923 -0.00477952 -0.15155395
v -0.00219085 -0.00761076 -0.15175219
v -0.00906107 -0.01327324 -0.15078615
v -0.00764957 -0.00902662 -0.15133807
v -0.00125897 -0.01920703 -0.15056382
v -0.00846623 -0.00243205 -0.15154297
v -0.00401510 -0.01634340 -0.15090747
v -0.00580905 -0.00561855 -0.15167018
v -0.00081869 -0.01586408 -0.15105458
v -0.00047692 -0.02097475 -0.15028564
v -0.00046254 -0.00377683 -0.15194087
v -0.00661918 -0.01142829 -0.15123917
v -0.00507876 -0.00481538 -0.15176122
v -0.00785801 -0.01906805 -0.15014692
v -0.00099207 -0.00816877 -0.15174002
v -0.00034704 -0.00052827 -0.15136280
v -0.00105304 -0.00416736 -0.15192537
f 115 155 88
f 115 23 155
f 56 155 233
f 179 37 158
f 158 37 155
f 158 155 56
f 182 69 88
f 182 37 179
f 182 8 69
f 179 8 182
f 88 69 45
f 45 175 88
f 88 155 166
f 166 182 88
f 155 37 171
f 56 233 24
f 161 233 155
f 233 83 228
f 56 24 228
f 109 158 56
f 37 182 121
f 121 171 37
f 182 166 121
f 121 166 155
f 155 171 121
f 69 8 187
f 187 119 69
f 69 119 160
f 233 228 85
f 85 228 24
f 179 158 190
f 67 123 42
f 15 187 8
f 109 42 125
f 10 190 125
f 125 42 123
f 158 109 125
f 125 190 158
f 10 125 135
f 21 90 111
f 4 210 90
f 157 45 69
f 175 45 157
f 82 157 69
f 132 157 82
f 168 11 94
f 191 94 11
f 168 94 191
f 215 204 92
f 103 24 233
f 233 85 103
f 103 85 24
f 178 150 179
f 36 150 178
f 36 178 170
f 159 15 8
f 187 15 217
f 162 36 90
f 162 150 36
f 90 210 162
f 179 150 162
f 162 8 179
f 162 210 8
f 180 21 111
f 133 21 180
f 32 217 15
f 98 14 198
f 173 198 128
f 98 198 173
f 217 32 173
f 15 159 173
f 173 32 15
f 175 157 227
f 227 157 132
f 155 23 73
f 222 33 58
f 132 33 222
f 222 227 132
f 226 227 222
f 154 191 11
f 145 204 215
f 215 191 145
f 192 215 168
f 168 191 192
f 192 191 215
f 183 92 124
f 168 215 122
f 215 92 122
f 122 14 168
f 141 119 77
f 119 187 77
f 207 80 187
f 231 119 141
f 141 57 231
f 138 92 204
f 100 160 119
f 69 160 100
f 33 100 118
f 118 145 33
f 165 89 199
f 36 170 65
f 111 90 65
f 90 36 65
f 179 190 61
f 61 178 179
f 61 170 178
f 223 89 165
f 223 42 109
f 67 42 172
f 42 211 172
f 90 21 186
f 186 34 90
f 21 34 186
f 6 4 90
f 90 34 6
f 6 34 4
f 129 14 98
f 168 14 229
f 210 4 209
f 209 173 159
f 173 53 117
f 105 115 88
f 23 115 105
f 88 175 105
f 175 227 105
f 62 227 226
f 62 105 227
f 212 222 58
f 226 222 212
f 149 145 191
f 149 154 96
f 191 154 149
f 92 138 102
f 102 57 141
f 54 92 183
f 183 122 54
f 54 122 92
f 95 198 14
f 14 122 95
f 95 122 198
f 128 198 194
f 141 39 71
f 71 39 183
f 141 80 214
f 214 39 141
f 80 39 214
f 156 80 141
f 141 77 156
f 187 80 156
f 156 77 187
f 1 207 187
f 69 100 139
f 139 100 33
f 139 82 69
f 132 82 139
f 75 118 100
f 145 118 127
f 13 118 57
f 58 33 151
f 151 212 58
f 230 46 200
f 142 109 56
f 109 199 134
f 134 199 89
f 134 223 109
f 89 223 134
f 140 18 50
f 146 18 165
f 50 18 146
f 146 140 50
f 9 28 200
f 86 28 9
f 200 46 9
f 46 153 9
f 200 28 114
f 216 65 170
f 51 27 185
f 143 74 48
f 143 51 74
f 42 223 68
f 68 223 165
f 185 27 68
f 27 51 68
f 93 180 111
f 133 180 93
f 93 70 133
f 30 34 21
f 30 70 34
f 144 209 4
f 173 209 144
f 106 159 8
f 106 209 159
f 8 210 106
f 210 209 106
f 185 43 107
f 107 51 185
f 74 51 107
f 129 43 78
f 14 129 78
f 98 173 177
f 173 117 177
f 34 70 76
f 4 34 76
f 86 113 22
f 228 232 22
f 59 153 46
f 59 9 153
f 59 113 86
f 86 9 59
f 202 232 228
f 202 62 232
f 202 228 83
f 105 62 202
f 155 73 202
f 202 73 23
f 23 105 202
f 202 161 155
f 202 83 233
f 233 161 202
f 33 145 224
f 145 149 224
f 224 151 33
f 224 149 212
f 212 151 224
f 130 149 96
f 96 154 130
f 205 102 141
f 124 102 205
f 12 124 92
f 92 102 12
f 12 102 124
f 16 1 128
f 183 39 7
f 7 39 80
f 80 207 7
f 7 16 128
f 213 208 128
f 128 194 213
f 187 217 31
f 31 1 187
f 41 33 132
f 132 139 41
f 41 139 33
f 55 100 119
f 55 75 100
f 204 145 206
f 145 127 206
f 184 13 57
f 57 102 184
f 184 102 138
f 120 13 127
f 120 127 118
f 118 13 120
f 218 68 165
f 185 68 218
f 165 18 218
f 18 131 218
f 18 140 163
f 163 230 18
f 46 230 163
f 163 140 199
f 147 146 165
f 140 146 147
f 14 78 221
f 221 43 185
f 221 78 43
f 185 114 49
f 49 221 185
f 49 114 28
f 84 17 49
f 232 25 5
f 193 28 86
f 86 5 193
f 193 5 25
f 135 65 81
f 65 216 81
f 67 172 174
f 172 116 174
f 174 123 67
f 108 116 172
f 125 116 108
f 108 135 125
f 108 93 111
f 48 70 108
f 70 93 108
f 42 68 112
f 172 68 35
f 35 108 172
f 35 143 48
f 48 108 35
f 51 143 35
f 35 68 51
f 2 129 98
f 98 44 2
f 74 107 101
f 48 74 101
f 101 70 48
f 101 76 70
f 101 117 53
f 60 53 173
f 60 144 4
f 173 144 60
f 56 228 234
f 113 59 234
f 228 22 234
f 234 22 113
f 52 84 28
f 176 84 52
f 195 62 226
f 226 212 72
f 212 149 72
f 72 195 226
f 66 195 72
f 183 7 63
f 208 213 63
f 128 208 63
f 63 7 128
f 63 122 183
f 104 31 217
f 1 31 104
f 128 1 104
f 104 173 128
f 217 173 104
f 110 138 204
f 131 225 164
f 200 114 136
f 114 164 136
f 136 164 225
f 56 46 137
f 137 142 56
f 47 199 109
f 109 142 47
f 165 199 29
f 29 147 165
f 176 229 189
f 189 229 14
f 221 49 38
f 176 189 38
f 38 49 17
f 14 221 38
f 38 189 14
f 38 84 176
f 38 17 84
f 86 22 219
f 219 5 86
f 201 81 10
f 10 135 201
f 135 81 201
f 197 68 172
f 197 112 68
f 197 172 211
f 197 211 42
f 42 112 197
f 44 101 99
f 99 101 107
f 152 101 53
f 76 101 152
f 53 60 152
f 4 76 152
f 152 60 4
f 169 59 46
f 169 234 59
f 169 46 56
f 56 234 169
f 64 193 25
f 28 193 64
f 64 52 28
f 176 52 79
f 79 11 168
f 168 229 79
f 79 229 176
f 122 63 220
f 198 122 220
f 220 194 198
f 220 213 194
f 220 63 213
f 185 218 40
f 87 218 131
f 131 164 87
f 3 163 199
f 199 47 3
f 167 47 142
f 142 137 167
f 163 3 167
f 167 3 47
f 46 163 167
f 167 137 46
f 126 22 232
f 126 219 22
f 232 5 126
f 5 219 126
f 91 2 44
f 44 99 91
f 129 2 91
f 62 195 181
f 181 19 62
f 181 195 66
f 26 79 19
f 26 181 66
f 19 181 26
f 149 130 148
f 148 130 154
f 20 72 149
f 149 148 20
f 79 148 196
f 196 148 154
f 196 154 11
f 11 79 196
f 79 26 203
f 203 148 79
f 19 79 188
f 62 19 188
f 232 62 188
f 188 25 232
f 97 79 52
f 97 188 79
f 25 188 97
f 97 64 25
f 52 64 97
f 133 70 30
f 30 21 133
f 183 124 205
f 205 71 183
f 141 71 205
f 1 16 7
f 207 1 7
f 57 118 55
f 119 231 55
f 118 75 55
f 55 231 57
f 18 230 225
f 225 131 18
f 28 84 49
f 81 216 170
f 170 61 81
f 81 61 190
f 81 190 10
f 65 135 111
f 111 135 108
f 101 44 98
f 98 177 101
f 101 177 117
f 13 184 110
f 110 184 138
f 127 13 110
f 110 206 127
f 204 206 110
f 136 225 230
f 136 230 200
f 140 147 29
f 199 140 29
f 174 125 123
f 174 116 125
f 87 40 218
f 87 164 114
f 87 114 185
f 185 40 87
f 91 43 129
f 91 107 43
f 91 99 107
f 203 20 148
f 72 20 203
f 66 72 203
f 203 26 66

