# https://github.com/mikedh/trimesh
v 0.00961938 0.05275566 -0.02776390
v 0.00963029 0.05213236 -0.02776390
v 0.00797953 0.06527721 -0.03332175
v 0.04029453 0.06329931 -0.04501900
v 0.02437861 0.05897907 -0.02784205
v 0.01509519 0.06488749 -0.03236435
v 0.01422779 0.06554407 -0.03587100
v 0.04561098 0.06099064 -0.04793841
v 0.04141312 0.06088530 -0.03548017
v 0.03058301 0.06087095 -0.02948637
v 0.00759846 0.06748478 -0.04879422
v 0.04159692 0.06236850 -0.04260973
v 0.04575506 0.05989822 -0.04354612
v 0.03825511 0.06378252 -0.04358861
v 0.01502490 0.06684604 -0.04481853
v 0.04320818 0.05886100 -0.03357590
v 0.04794288 0.05794489 -0.04487455
v 0.01004982 0.05615316 -0.02776390
v 0.04706469 0.05398390 -0.03426818
v 0.03565204 0.06318213 -0.03562847
v 0.04821063 0.05223529 -0.03497519
v 0.02418490 0.06350088 -0.03086730
v 0.01588118 0.05957895 -0.02784900
v 0.02236496 0.06568248 -0.03945316
v 0.00079386 0.05030541 -0.02776506
v 0.02478173 0.06420352 -0.03205252
v 0.02743428 0.06327691 -0.03095820
v 0.04811398 0.05697612 -0.04279697
v 0.04867309 0.05739232 -0.04621723
v 0.04750950 0.05616646 -0.03896656
v 0.03990888 0.06087890 -0.03260504
v 0.00762392 0.06704925 -0.04475058
v 0.02046211 0.06559430 -0.03786255
v 0.04655677 0.05509977 -0.03450346
v 0.04083075 0.05045486 -0.02776390
v 0.02151452 0.06478908 -0.03380224
v 0.00029888 0.05121755 -0.02912950
v 0.04398646 0.05007367 -0.02878967
v 0.04081280 0.06059180 -0.03332660
v 0.03964269 0.06065549 -0.03161923
v 0.00029896 0.06079108 -0.03013758
v 0.00248086 0.06069483 -0.02817417
v 0.00102927 0.05934881 -0.02776390
v 0.00713308 0.06673189 -0.04236641
v 0.04623156 0.05433021 -0.03265579
v 0.02646713 0.06665744 -0.04981539
v 0.03880808 0.06092459 -0.03133739
v 0.02784047 0.06487837 -0.03755315
v 0.01608609 0.05982319 -0.02792645
v 0.04851549 0.05290968 -0.03660235
v 0.04118627 0.06002575 -0.03235092
v 0.04478974 0.05941141 -0.03892601
v 0.03695455 0.06401122 -0.04279527
v 0.03995277 0.06368604 -0.04682913
v 0.02217852 0.06644255 -0.04470902
v 0.03610289 0.06250317 -0.03275560
v 0.03907268 0.05447875 -0.02778702
v 0.04388705 0.06215458 -0.04823253
v 0.01100477 0.06311322 -0.03005348
v 0.03074926 0.05981818 -0.02873209
v 0.03356221 0.06336393 -0.03403296
v 0.00155975 0.06508166 -0.03193889
v 0.03193819 0.06435035 -0.03792659
v 0.04844328 0.05714527 -0.04442885
v 0.02649545 0.06455084 -0.03482445
v 0.01738386 0.06468915 -0.03198603
v 0.00029897 0.06256805 -0.03010106
v 0.02050691 0.06679116 -0.04667622
v 0.03784164 0.06373954 -0.04242484
v 0.03619767 0.06450556 -0.04512572
v 0.00848195 0.06395546 -0.03062662
v 0.03731340 0.06449690 -0.04726102
v 0.04980944 0.05015401 -0.03724968
v 0.04232567 0.05155389 -0.02811951
v 0.00829741 0.06759589 -0.04998009
v 0.02037537 0.06344980 -0.03061397
v 0.01805279 0.05986110 -0.02796890
v 0.04185527 0.05024142 -0.02778482
v 0.03831404 0.06035239 -0.03063885
v 0.03817388 0.06202167 -0.03383300
v 0.02137927 0.05914258 -0.02782773
v 0.01324038 0.06701717 -0.04576755
v 0.01774027 0.05976088 -0.02792701
v 0.04410300 0.05605940 -0.03099425
v 0.03293947 0.06571430 -0.04989769
v 0.04163854 0.06134280 -0.03781632
v 0.02802258 0.06602688 -0.04568291
v 0.04550236 0.06111375 -0.04814057
v 0.00274370 0.06497890 -0.03172807
v 0.01068507 0.06740498 -0.04871563
v 0.04302272 0.05661434 -0.03057640
v 0.02235969 0.06013373 -0.02828512
v 0.03918495 0.06424407 -0.04948317
v 0.04902094 0.05640322 -0.04485129
v 0.04948363 0.05430988 -0.04220860
v 0.01510009 0.05014633 -0.02776390
v 0.04620167 0.05723010 -0.03731614
v 0.02232216 0.05848380 -0.02776390
v 0.01914173 0.06329998 -0.03044780
v 0.00119030 0.06097528 -0.02836332
v 0.00041152 0.05625739 -0.02776423
v 0.02891114 0.06330975 -0.03117678
v 0.03031480 0.06344444 -0.03169928
v 0.02912898 0.06610273 -0.04764649
v 0.04236939 0.06287932 -0.04800638
v 0.01210094 0.06586883 -0.03733088
v 0.00926437 0.05066326 -0.02776407
v 0.03840225 0.06058253 -0.03082046
v 0.01355927 0.06628018 -0.04032073
v 0.03074927 0.06494042 -0.04044514
v 0.00930633 0.06506201 -0.03227359
v 0.02884669 0.06607614 -0.04708409
v 0.02551506 0.06618049 -0.04498037
v 0.01161858 0.06281489 -0.02984727
v 0.01331026 0.06072459 -0.02834338
v 0.04545852 0.06113056 -0.04804201
v 0.04301341 0.06250832 -0.04761621
v 0.01389476 0.06470254 -0.03163763
v 0.00342904 0.06457734 -0.03111908
v 0.01918505 0.06463249 -0.03212171
v 0.04528698 0.05895666 -0.04999575
v 0.04772252 0.05456735 -0.03671561
v 0.00087857 0.05125445 -0.03325681
v 0.02627781 0.06341636 -0.03096328
v 0.03388585 0.05764684 -0.02786654
v 0.01255597 0.05046270 -0.02776390
v 0.02357678 0.06119281 -0.02913223
v 0.03500894 0.06335682 -0.03574462
v 0.00635333 0.06480940 -0.03150139
v 0.03104881 0.06603458 -0.04983390
v 0.04816062 0.05044283 -0.03313705
v 0.00959022 0.06744654 -0.04886431
v 0.03789521 0.06462594 -0.04970816
v 0.02767295 0.05876464 -0.02787145
v 0.03504770 0.05892812 -0.02878371
v 0.00029946 0.06432182 -0.04335116
v 0.04269101 0.06000608 -0.03540857
v 0.04137707 0.05967312 -0.03184526
v 0.04430202 0.06117503 -0.04430385
v 0.04158099 0.06105651 -0.03647417
v 0.01806445 0.06400658 -0.03095825
v 0.04717490 0.05894522 -0.04521260
v 0.00029900 0.06432773 -0.03170928
v 0.04184274 0.06300075 -0.04712966
v 0.03741491 0.06411199 -0.04437896
v 0.03436241 0.06243018 -0.03133253
v 0.02960406 0.06533287 -0.04213787
v 0.00153448 0.06504883 -0.04991080
v 0.01442027 0.06605563 -0.03897032
v 0.03773788 0.06218682 -0.03379719
v 0.03737469 0.05897753 -0.02942328
v 0.02569975 0.05863903 -0.02779100
v 0.02920388 0.05900395 -0.02803558
v 0.03739469 0.06274671 -0.03587512
v 0.03595724 0.06500000 -0.04878157
v 0.03829566 0.05927334 -0.02992083
v 0.03506236 0.06221412 -0.03125678
v 0.04492691 0.05825724 -0.03615965
v 0.02757743 0.06623136 -0.04701664
v 0.00438507 0.06692985 -0.04361891
v 0.00712659 0.06755446 -0.04938917
v 0.02208276 0.06697052 -0.04928225
v 0.03892604 0.06317482 -0.04107733
v 0.04629349 0.06070853 -0.04936068
v 0.03549987 0.06518011 -0.04942195
v 0.00036282 0.06492379 -0.04869440
v 0.01883456 0.06438067 -0.03146091
v 0.02574830 0.05993104 -0.02834144
v 0.04664684 0.05555030 -0.03539447
v 0.04681348 0.05693634 -0.03845951
v 0.01558051 0.06408829 -0.03092877
v 0.00051834 0.06716273 -0.04518667
v 0.03820392 0.06397645 -0.04487956
v 0.00679558 0.06639487 -0.03990085
v 0.02460108 0.06406443 -0.03165760
v 0.03323522 0.06300291 -0.03189450
v 0.03655264 0.05888360 -0.02913476
v 0.04386288 0.05962215 -0.03716153
v 0.01049831 0.05000716 -0.03325681
v 0.04766116 0.05518410 -0.03758775
v 0.04503866 0.05355582 -0.03057508
v 0.04739464 0.05871890 -0.04521412
v 0.01305285 0.06583319 -0.03727039
v 0.04423738 0.05841214 -0.03489055
v 0.02399327 0.06681591 -0.04926456
v 0.04880468 0.05676775 -0.04491025
v 0.03903114 0.06380745 -0.04557169
v 0.04966083 0.05363369 -0.04979071
v 0.01741438 0.06724182 -0.04952263
v 0.01626273 0.06200696 -0.02938789
v 0.03752575 0.05653887 -0.02799171
v 0.03769964 0.05571087 -0.02779745
v 0.00029959 0.06450080 -0.04450472
v 0.01479276 0.06733276 -0.04924693
v 0.00782509 0.06258424 -0.02960381
v 0.04426325 0.06161146 -0.04646867
v 0.02066792 0.05000019 -0.03325681
v 0.04138613 0.06330049 -0.04806654
v 0.04198701 0.06281615 -0.04636312
v 0.00902369 0.06270714 -0.02971245
v 0.03948615 0.05994271 -0.03077299
v 0.02778735 0.06036747 -0.02884545
v 0.03914422 0.06401689 -0.04743520
v 0.03775956 0.05816093 -0.02900472
v 0.02597925 0.06055838 -0.02881964
v 0.03458515 0.06535092 -0.04919169
v 0.02760059 0.06599107 -0.04495651
v 0.00767100 0.06615526 -0.03831987
v 0.04807875 0.05879604 -0.04824380
v 0.04323421 0.06080719 -0.03957780
v 0.04630733 0.05423417 -0.03272263
v 0.03541059 0.06472893 -0.04539381
v 0.04295766 0.05170402 -0.02856551
v 0.00714213 0.06433864 -0.03092791
v 0.03246510 0.06408662 -0.03689407
v 0.04582520 0.06033762 -0.04571425
v 0.04803851 0.05039044 -0.03280506
v 0.02314463 0.06638843 -0.04495784
v 0.04403019 0.05753791 -0.03260874
v 0.02444221 0.06555613 -0.03979128
v 0.02366318 0.05896224 -0.02782592
v 0.03230740 0.05950244 -0.02870964
v 0.03289203 0.05875825 -0.02826297
v 0.04786291 0.05785130 -0.04425143
v 0.03832780 0.06404331 -0.04565353
v 0.02350952 0.06616802 -0.04353301
v 0.02790260 0.06645382 -0.04943212
v 0.02679597 0.06532527 -0.03960357
v 0.00823819 0.06405411 -0.03069551
v 0.01190958 0.06499294 -0.03227553
v 0.01004035 0.06088753 -0.02838961
v 0.03620258 0.06088055 -0.03043145
v 0.00325813 0.05008289 -0.02776487
v 0.04196297 0.06323470 -0.04932660
v 0.03937508 0.05378902 -0.02776390
v 0.01338694 0.06667619 -0.04312744
v 0.00638501 0.06670921 -0.04213779
v 0.04066852 0.06317787 -0.04519604
v 0.00029894 0.06107679 -0.02894653
v 0.01259706 0.06487870 -0.03191370
v 0.02209768 0.06674837 -0.04725738
v 0.00985747 0.06647712 -0.04103813
v 0.04776051 0.05867021 -0.04648636
v 0.04045405 0.05209533 -0.02776390
v 0.04871968 0.05169616 -0.03570320
v 0.04436705 0.06152367 -0.04634733
v 0.03954355 0.05582411 -0.02831864
v 0.04748600 0.05725204 -0.04130293
v 0.02132644 0.06674447 -0.04669205
v 0.04394576 0.06079115 -0.04150095
v 0.02757721 0.06511912 -0.03876229
v 0.00029901 0.06355179 -0.03280892
v 0.04305752 0.06103140 -0.04003067
v 0.02172817 0.06082074 -0.02875455
v 0.04051248 0.06106378 -0.03440116
v 0.02222991 0.06667186 -0.04668938
v 0.02768725 0.05847936 -0.02780353
v 0.03515163 0.06255117 -0.03190130
v 0.04671496 0.05770174 -0.03984589
v 0.04706596 0.05914444 -0.04554854
v 0.01015587 0.06603369 -0.03798371
v 0.02522031 0.06559919 -0.04054097
v 0.04107220 0.06351633 -0.04883610
v 0.01506604 0.06594736 -0.03841716
v 0.02455095 0.06155488 -0.02945763
v 0.01209958 0.06733355 -0.04839279
v 0.03940466 0.06175604 -0.03485406
v 0.00515517 0.05994383 -0.02786592
v 0.03440355 0.06376259 -0.03729191
v 0.04449263 0.06017959 -0.04069790
v 0.04389266 0.06000416 -0.03843727
v 0.01051025 0.06608185 -0.03832653
v 0.01260074 0.06678321 -0.04374809
v 0.01509349 0.06426171 -0.03107646
v 0.03404140 0.05929804 -0.02885466
v 0.01021180 0.06452198 -0.03117259
v 0.03678518 0.06302678 -0.03631743
v 0.04599136 0.05800436 -0.03844920
v 0.02041357 0.06030430 -0.02830187
v 0.01436960 0.06700612 -0.04602317
v 0.02314087 0.05841370 -0.02776390
v 0.03346538 0.06514396 -0.04549764
v 0.00475151 0.06526563 -0.03301421
v 0.03831964 0.05956606 -0.03012200
v 0.04798390 0.05504201 -0.03830464
v 0.04354602 0.05625930 -0.03072233
v 0.01153042 0.06484804 -0.03173346
v 0.01397798 0.06324142 -0.03022344
v 0.02109632 0.06684231 -0.04743027
v 0.03949153 0.06258581 -0.03891951
v 0.01411711 0.06591122 -0.03793537
v 0.03482547 0.06352241 -0.03646230
v 0.04578431 0.05374394 -0.03129306
v 0.04868866 0.05248696 -0.03655007
v 0.04833449 0.05379456 -0.03737023
v 0.01532912 0.06393638 -0.03077686
v 0.01571646 0.06681698 -0.04484804
v 0.02622588 0.06548906 -0.04037234
v 0.00029892 0.05122508 -0.03198001
v 0.00030897 0.06658158 -0.04101772
v 0.01494971 0.06203729 -0.02936270
v 0.00627134 0.06509075 -0.03216680
v 0.00300281 0.06661877 -0.04124586
v 0.04831679 0.05325893 -0.03646835
v 0.02001394 0.06578799 -0.03895509
v 0.04963751 0.05371876 -0.04988628
v 0.04445523 0.06154347 -0.04674818
v 0.04267840 0.06013416 -0.03577487
v 0.03585773 0.06461817 -0.04536314
v 0.03545326 0.06518778 -0.04938576
v 0.00736303 0.06185616 -0.02906121
v 0.04094421 0.06261023 -0.04230998
v 0.01970775 0.06045333 -0.02837353
v 0.04138886 0.05850283 -0.03070447
v 0.02063762 0.06628645 -0.04270671
v 0.02092365 0.06521281 -0.03590848
v 0.04712582 0.05297789 -0.03319957
v 0.01974923 0.06571378 -0.03833694
v 0.02814870 0.06567793 -0.04316191
v 0.04610371 0.05015105 -0.03028627
v 0.04461671 0.06066317 -0.04292120
v 0.00310750 0.06708644 -0.04472050
v 0.02164328 0.06659825 -0.04561450
v 0.03361291 0.06264377 -0.03138696
v 0.01339372 0.06570146 -0.03657753
v 0.03873235 0.06223028 -0.03567553
v 0.00559696 0.06683644 -0.04299908
v 0.01586000 0.06043694 -0.02821902
v 0.03904775 0.06267657 -0.03847812
v 0.03810242 0.06290322 -0.03795397
v 0.00565425 0.06493308 -0.03172354
v 0.04524886 0.05805978 -0.03653807
v 0.00029894 0.05258133 -0.03266810
v 0.03451980 0.06456980 -0.04264021
v 0.04786865 0.05618211 -0.04008607
v 0.01348172 0.06689678 -0.04472818
v 0.04225339 0.05903468 -0.03197375
v 0.04955456 0.05514312 -0.04409690
v 0.01659163 0.05944773 -0.02782496
v 0.04603346 0.05459164 -0.03251567
v 0.00535500 0.06710543 -0.04501732
v 0.04730280 0.05348649 -0.03424364
v 0.04414937 0.06071418 -0.04174240
v 0.00067262 0.05106395 -0.03230403
v 0.02190915 0.06703585 -0.04976148
v 0.04589323 0.05459730 -0.03218337
v 0.04856927 0.05856348 -0.04986556
v 0.03435682 0.05853008 -0.02835994
v 0.03563438 0.06516099 -0.04955721
v 0.01497020 0.06513715 -0.03374158
v 0.00791544 0.06701275 -0.04453179
v 0.02835456 0.06402425 -0.03305414
v 0.02526688 0.06422506 -0.03235557
v 0.02536933 0.06061398 -0.02881880
v 0.04651026 0.05581133 -0.03545043
v 0.01179755 0.06699145 -0.04519591
v 0.00187601 0.06448459 -0.03098733
v 0.02824464 0.06613320 -0.04684988
v 0.04986148 0.05153730 -0.03905943
v 0.04589241 0.05132568 -0.03044679
v 0.03593406 0.06389431 -0.04031560
v 0.03257822 0.05807192 -0.02789234
v 0.01057636 0.06753559 -0.04990596
v 0.04670466 0.05135796 -0.03106906
v 0.00262312 0.06627830 -0.03879308
v 0.00466059 0.06468478 -0.03127301
v 0.03008812 0.06377969 -0.03301519
v 0.03064903 0.06480277 -0.03937656
v 0.01710623 0.06676117 -0.04493120
v 0.02041467 0.06563287 -0.03806361
v 0.04531714 0.05978144 -0.04175417
v 0.02001565 0.06374185 -0.03081319
v 0.03845898 0.06184708 -0.03359503
v 0.04867373 0.05347678 -0.03797752
v 0.02780642 0.06320387 -0.03093398
v 0.00029894 0.06009750 -0.02913270
v 0.00684413 0.06117359 -0.02855191
v 0.04616686 0.05512950 -0.03359696
v 0.03314748 0.06411137 -0.03777409
v 0.04159089 0.05996432 -0.03301190
v 0.04889528 0.05571520 -0.04276932
v 0.04854759 0.05478322 -0.03964871
v 0.04914400 0.05184750 -0.03709414
v 0.02959690 0.05794152 -0.02776875
v 0.04768465 0.05318221 -0.03480601
v 0.03787644 0.06211278 -0.03370018
v 0.04200598 0.06308377 -0.04827559
v 0.03636617 0.05979118 -0.02971654
v 0.04489699 0.05781517 -0.03512750
v 0.03180445 0.06336438 -0.03224154
v 0.01522705 0.06071822 -0.02840136
v 0.01389091 0.06696692 -0.04546429
v 0.02890002 0.06526198 -0.04087728
v 0.00088287 0.06713381 -0.04496483
v 0.00029899 0.05994760 -0.03323245
v 0.02109665 0.06554307 -0.03786087
v 0.02717195 0.05862100 -0.02782108
v 0.00029892 0.05866264 -0.02809951
v 0.03244466 0.06545822 -0.04655388
v 0.04304463 0.05119692 -0.02847565
v 0.04482337 0.05571961 -0.03150179
v 0.04324017 0.06169253 -0.04349302
v 0.04696683 0.05870479 -0.04357702
v 0.01941371 0.06450209 -0.03175378
v 0.00718135 0.06726709 -0.04668254
v 0.04055548 0.06247191 -0.04063194
v 0.01465307 0.06202771 -0.02934495
v 0.01800928 0.06579033 -0.03829859
v 0.01406913 0.06117283 -0.02869385
v 0.04974871 0.05300243 -0.04882684
v 0.04467358 0.06015218 -0.04115367
v 0.02966101 0.06449722 -0.03680310
v 0.04232871 0.06065936 -0.04998301
v 0.04784320 0.05068893 -0.03260192
v 0.01741446 0.06702108 -0.04746955
v 0.03615608 0.05696989 -0.02788951
v 0.00695413 0.06447544 -0.03106261
v 0.04907591 0.05458191 -0.04113724
v 0.00692452 0.06760543 -0.04985448
v 0.03669601 0.06349555 -0.03893995
v 0.01446235 0.06696524 -0.04568214
v 0.02040390 0.05894153 -0.02777989
v 0.02648884 0.06410218 -0.03228403
v 0.04150205 0.06159265 -0.03858053
v 0.02488063 0.06421959 -0.03213963
v 0.02586632 0.06669402 -0.04966493
v 0.04332489 0.05696327 -0.03093239
v 0.03410236 0.05794202 -0.02798754
v 0.03396372 0.05731920 -0.02779361
v 0.04346849 0.06050321 -0.03901448
v 0.03528574 0.06395397 -0.03966687
v 0.04819931 0.05434954 -0.03784994
v 0.00029893 0.05633815 -0.03063646
v 0.01222669 0.06519810 -0.03349968
v 0.04144194 0.06234275 -0.04207493
v 0.04140031 0.05391719 -0.02840461
v 0.04016925 0.05272241 -0.02776390
v 0.03254071 0.06167308 -0.03031862
v 0.02952994 0.06500633 -0.03971433
v 0.00030441 0.06707856 -0.04784383
v 0.03194910 0.06582261 -0.04914592
v 0.04658194 0.06044453 -0.04916885
v 0.01941584 0.06348686 -0.03059803
v 0.00045674 0.06562964 -0.03477905
v 0.03121869 0.05909069 -0.02826589
v 0.00996276 0.05587722 -0.02776390
v 0.03862203 0.06260167 -0.03725658
v 0.00160825 0.06081570 -0.02824822
v 0.03740586 0.06359600 -0.04070443
v 0.02819651 0.06502260 -0.03867903
v 0.04831047 0.05692923 -0.04338845
v 0.02360512 0.05910660 -0.02785789
v 0.02697647 0.06556334 -0.04131774
v 0.02706700 0.06454433 -0.03507303
v 0.00834765 0.06634774 -0.03982779
v 0.04862578 0.05583335 -0.04203302
v 0.04729515 0.05920359 -0.04669230
v 0.00736819 0.06689104 -0.04355486
v 0.03946580 0.06200740 -0.03604608
v 0.04485902 0.05013536 -0.02940507
v 0.00842519 0.06516247 -0.03271643
v 0.04115095 0.06300476 -0.04532012
v 0.03175298 0.06454454 -0.03892562
v 0.00030914 0.06695213 -0.04472745
v 0.02783012 0.06326660 -0.03098807
v 0.03271965 0.05001313 -0.02776390
v 0.00666501 0.06101943 -0.02843642
v 0.01121050 0.05851172 -0.02776390
v 0.00045056 0.06503436 -0.04973759
v 0.04075554 0.06341187 -0.04700712
v 0.03042516 0.06237440 -0.03057289
v 0.03340036 0.06522973 -0.04612870
v 0.03091396 0.06571997 -0.04660881
v 0.03648818 0.06286046 -0.03500718
v 0.04198672 0.06144929 -0.03904098
v 0.04739666 0.05061565 -0.03164333
v 0.00892004 0.06722096 -0.04662218
v 0.03706573 0.05613544 -0.02780906
v 0.04199496 0.05948162 -0.03252373
v 0.04279115 0.05030473 -0.02807068
v 0.04626534 0.05639366 -0.03578280
v 0.01536236 0.06395955 -0.03079514
v 0.00321329 0.06435628 -0.03088711
v 0.00073218 0.05930430 -0.02776391
v 0.03826046 0.06349531 -0.04173970
v 0.00816349 0.06411316 -0.03073855
v 0.01892457 0.05963392 -0.02791188
v 0.03958776 0.06346453 -0.04437696
v 0.04824032 0.05861709 -0.04835452
v 0.01300614 0.06261536 -0.02973303
v 0.04755729 0.05720017 -0.04141690
v 0.01285256 0.06554854 -0.03560623
v 0.02698383 0.06610142 -0.04542638
v 0.03454723 0.06046761 -0.02979032
v 0.02093318 0.06654905 -0.04468434
v 0.03324644 0.06362108 -0.03496616
v 0.04616732 0.05576797 -0.03454954
v 0.02945807 0.06501520 -0.03971013
v 0.00862235 0.06444132 -0.03105265
v 0.04913001 0.05005542 -0.04065764
v 0.04387393 0.05900526 -0.03539939
v 0.04212820 0.06318598 -0.04945329
v 0.04636405 0.05714073 -0.03759456
v 0.04643427 0.05841992 -0.04089897
v 0.02681055 0.06386377 -0.03163595
v 0.01008596 0.06241202 -0.02951592
v 0.04033680 0.05517469 -0.02838082
v 0.00055763 0.06720840 -0.04562298
v 0.02745027 0.06609488 -0.04573001
v 0.04338920 0.06260303 -0.04959342
v 0.04362770 0.06238079 -0.04884867
v 0.04949116 0.05689744 -0.04844255
v 0.04093774 0.05910743 -0.03085665
v 0.04046677 0.06076644 -0.03325665
v 0.02988606 0.06343650 -0.03154762
v 0.04329287 0.06263795 -0.04950586
v 0.02832925 0.06584147 -0.04457200
v 0.03097803 0.06282914 -0.03099018
v 0.04083127 0.05997664 -0.03170854
v 0.00050468 0.05897648 -0.02776394
v 0.01622475 0.06702271 -0.04697218
v 0.00075087 0.06639399 -0.03946559
v 0.00030040 0.06585247 -0.04903406
v 0.02602263 0.06221179 -0.03004120
v 0.01411893 0.06056135 -0.02824477
v 0.02798519 0.06437968 -0.03480715
v 0.00757009 0.05979133 -0.02783532
v 0.00403406 0.06761056 -0.04969231
v 0.03441356 0.06444058 -0.04156343
v 0.04469199 0.05736128 -0.03375409
v 0.00813730 0.06758352 -0.04983038
v 0.02275031 0.06547586 -0.03829190
v 0.03977513 0.06155569 -0.03476898
v 0.02319025 0.06677461 -0.04829828
v 0.04163615 0.06002208 -0.03327143
v 0.01380854 0.06567343 -0.03650870
v 0.03668233 0.06241966 -0.03323113
v 0.04130095 0.06188156 -0.03939015
v 0.01850717 0.05945817 -0.02785042
v 0.00139523 0.06650340 -0.04030576
v 0.00957168 0.06502648 -0.03211008
v 0.02647666 0.06418032 -0.03268070
v 0.04259170 0.05897438 -0.03252190
v 0.01946756 0.06425601 -0.03132170
v 0.03910015 0.05473793 -0.02783073
v 0.03557150 0.06016297 -0.02977357
v 0.00066645 0.06516254 -0.03224357
v 0.04291206 0.05484188 -0.02971213
v 0.04642749 0.06035218 -0.04799137
v 0.03327942 0.05979773 -0.02907750
v 0.00053007 0.06605568 -0.03737197
v 0.03583621 0.06102514 -0.03044344
v 0.04014664 0.06050206 -0.03183666
v 0.04482044 0.05594960 -0.03173210
v 0.03010095 0.05976338 -0.02862083
v 0.01876820 0.06707538 -0.04855616
v 0.02654824 0.06663796 -0.04971147
v 0.03226949 0.06165240 -0.03026478
v 0.01455503 0.06265296 -0.02980345
v 0.02925062 0.06374799 -0.03215011
v 0.03988195 0.06354439 -0.04563791
v 0.03945744 0.05435968 -0.02781979
v 0.04487706 0.06052578 -0.04320723
v 0.00029897 0.05615354 -0.03322305
v 0.03524175 0.06516659 -0.04871005
v 0.04466415 0.05459912 -0.03073788
v 0.01378589 0.05026591 -0.02776390
v 0.03288049 0.06561433 -0.04871490
v 0.03147925 0.06565372 -0.04678831
v 0.02351160 0.06680383 -0.04879275
v 0.03265252 0.05867100 -0.02816582
v 0.04970666 0.05253816 -0.03987288
v 0.01346647 0.06172690 -0.02908765
v 0.02488063 0.06537268 -0.03881454
v 0.03708430 0.06404922 -0.04327558
v 0.03402778 0.06445587 -0.04109647
v 0.04505951 0.05900979 -0.03849418
v 0.01588803 0.06677168 -0.04456608
v 0.01659812 0.06482952 -0.03244067
v 0.00135964 0.06549974 -0.03408173
v 0.03270741 0.06449943 -0.03971187
v 0.04697088 0.05583487 -0.03670971
v 0.04425055 0.05290319 -0.02982850
v 0.03925073 0.06202923 -0.03572971
v 0.02002364 0.06654369 -0.04432957
v 0.04224492 0.05774620 -0.03072015
v 0.01645210 0.05894072 -0.02776390
v 0.00221024 0.05952224 -0.02777837
v 0.03301421 0.06160706 -0.03034253
v 0.04311660 0.06043348 -0.03790814
v 0.03663981 0.06420145 -0.04359735
v 0.01242251 0.06579513 -0.03695613
v 0.01785105 0.06046969 -0.02831636
v 0.02223214 0.06688269 -0.04858019
v 0.04572684 0.05269256 -0.03076578
v 0.03773058 0.06467670 -0.04980172
v 0.02390377 0.05878236 -0.02779189
v 0.00854901 0.06093120 -0.02839128
v 0.03874623 0.06021900 -0.03069879
v 0.01980943 0.06572157 -0.03841280
v 0.03318588 0.06070125 -0.02971033
v 0.03750026 0.06457706 -0.04838353
v 0.00905272 0.06056558 -0.02814408
v 0.02918893 0.06222257 -0.03032865
v 0.04314711 0.06270471 -0.04947330
v 0.04609989 0.05668709 -0.03589972
v 0.00029901 0.06200072 -0.03318670
v 0.04920966 0.05560436 -0.04369158
v 0.02586690 0.06523199 -0.03844154
v 0.00701642 0.06614860 -0.03816881
v 0.01407681 0.06675049 -0.04380687
v 0.03868206 0.06422610 -0.04796777
v 0.01520293 0.06693230 -0.04569361
v 0.00588300 0.06410124 -0.03071252
v 0.04564482 0.05910346 -0.04044461
v 0.02374505 0.06400921 -0.03143198
v 0.02274199 0.06015063 -0.02831886
v 0.03171676 0.06228577 -0.03065935
v 0.03796343 0.06206570 -0.03365329
v 0.02811068 0.06553425 -0.04206575
v 0.03057798 0.06439301 -0.03695831
v 0.01329177 0.06585085 -0.03740816
v 0.00412560 0.06470866 -0.03129587
v 0.03742654 0.06292090 -0.03686755
v 0.00193954 0.06493820 -0.03161550
v 0.04977933 0.05667756 -0.04915148
v 0.01682479 0.06584485 -0.03828681
v 0.01722342 0.05923337 -0.02778819
v 0.04086617 0.05232297 -0.02779490
v 0.03909097 0.05627577 -0.02836589
v 0.04809735 0.05610153 -0.04067487
v 0.00081671 0.06707614 -0.04453315
v 0.03413830 0.06369278 -0.03650513
v 0.03967746 0.06387246 -0.04764746
v 0.00863660 0.06636014 -0.03997050
v 0.03261855 0.06312133 -0.03182463
v 0.01396191 0.06459274 -0.03144319
v 0.04398703 0.06124007 -0.04360535
v 0.04758126 0.05402613 -0.03559368
v 0.02777468 0.06520288 -0.03948090
v 0.00530205 0.06053995 -0.02810352
v 0.03930285 0.06286313 -0.03997434
v 0.01989897 0.06107399 -0.02883983
v 0.02114268 0.06573638 -0.03911526
v 0.00029893 0.06010270 -0.02838358
v 0.03516199 0.05997764 -0.02955672
v 0.03641108 0.05595994 -0.02776390
v 0.00505322 0.06083850 -0.02829054
v 0.04984140 0.05567816 -0.04657782
v 0.02965975 0.06586261 -0.04626186
v 0.01764978 0.06357616 -0.03059471
v 0.03798396 0.05553194 -0.02779523
v 0.00052081 0.06550350 -0.03404912
v 0.03672218 0.06328866 -0.03774864
v 0.00434016 0.06629277 -0.03899056
v 0.03742727 0.06109381 -0.03090430
v 0.00165255 0.05011365 -0.02776487
v 0.04423622 0.05783432 -0.03367719
v 0.03551160 0.06453687 -0.04405910
v 0.01331874 0.06033266 -0.02810099
v 0.04569889 0.06046625 -0.04583365
v 0.00043526 0.06745742 -0.04798018
v 0.04630428 0.05865293 -0.04120694
v 0.00800000 0.05002559 -0.02930034
v 0.02315452 0.06446437 -0.03273474
v 0.04068427 0.05950537 -0.03102311
v 0.02760790 0.06573592 -0.04303374
v 0.01260709 0.05941911 -0.02778872
v 0.00047881 0.05258578 -0.02776461
v 0.03995058 0.06367335 -0.04673182
v 0.04228122 0.06295065 -0.04821382
v 0.04413052 0.06013606 -0.03947908
v 0.04471867 0.05753665 -0.03415800
v 0.04995167 0.05480348 -0.04500902
v 0.00056043 0.06495949 -0.03161639
v 0.03729038 0.06354029 -0.04013666
v 0.00029894 0.05255363 -0.03282033
v 0.04124061 0.05648729 -0.02953750
v 0.00029890 0.05608695 -0.02813292
v 0.03415559 0.06536173 -0.04851563
v 0.02242351 0.06251552 -0.03003997
v 0.04542281 0.05996460 -0.04276607
v 0.04477554 0.05913996 -0.03805354
v 0.00029898 0.06131640 -0.03136340
v 0.00690572 0.06625170 -0.03887655
v 0.00541545 0.06475446 -0.03139265
v 0.03626240 0.05825212 -0.02862178
v 0.04783056 0.05937347 -0.04974654
v 0.00861935 0.06740088 -0.04823057
v 0.04008126 0.06370953 -0.04736076
v 0.04849858 0.05005860 -0.03825996
v 0.01446582 0.06292499 -0.03000248
v 0.02995916 0.05928416 -0.02825708
v 0.00030061 0.06631395 -0.04926213
v 0.04933922 0.05053469 -0.03625105
v 0.02211827 0.05889384 -0.02778925
v 0.03392152 0.06175479 -0.03059668
v 0.01405018 0.06718342 -0.04753950
v 0.04881858 0.05101711 -0.03531860
v 0.03656679 0.06377844 -0.04056677
v 0.02542252 0.05819755 -0.02776390
v 0.01826224 0.06414913 -0.03111418
v 0.03855948 0.06296531 -0.03908867
v 0.01283572 0.06358526 -0.03044670
v 0.04677849 0.05905328 -0.04406184
v 0.02532588 0.06378158 -0.03128544
v 0.04420575 0.05904878 -0.03628940
v 0.03829887 0.06445019 -0.04901297
v 0.01516044 0.06439040 -0.03122902
v 0.01084152 0.06551946 -0.03513307
v 0.03039362 0.06336021 -0.03155766
v 0.04100637 0.05926140 -0.03100671
v 0.03359118 0.06435372 -0.03978889
v 0.02916714 0.05921135 -0.02814184
v 0.03826011 0.06147774 -0.03187051
v 0.04262201 0.05936045 -0.03357997
v 0.03906044 0.06420600 -0.04882094
v 0.03951760 0.06331985 -0.04317236
v 0.03220285 0.06575772 -0.04893895
v 0.03628545 0.06409487 -0.04226602
v 0.02315376 0.06020419 -0.02838118
v 0.02548496 0.06381236 -0.03135160
v 0.04336989 0.06222041 -0.04689562
v 0.03277640 0.06129699 -0.03008109
v 0.04441752 0.05837078 -0.03521349
v 0.02045210 0.06545226 -0.03707317
v 0.04034011 0.06023510 -0.03158345
v 0.03972678 0.05398496 -0.02780631
v 0.03906021 0.06151357 -0.03326214
v 0.04066694 0.05578179 -0.02886933
v 0.01201725 0.06460994 -0.03133811
v 0.03964141 0.06188647 -0.03581103
v 0.04308650 0.05839329 -0.03222539
v 0.04474347 0.06042446 -0.04240595
v 0.00030819 0.06700724 -0.04583704
v 0.00029988 0.06475916 -0.03287017
v 0.04882113 0.05197471 -0.03628305
v 0.00125697 0.06755482 -0.04896426
v 0.00029895 0.05404573 -0.03312365
v 0.04258661 0.06233918 -0.04526662
v 0.04256525 0.06242494 -0.04572050
v 0.00060701 0.06346346 -0.03020057
v 0.04875332 0.05173964 -0.03583569
v 0.03901773 0.06197622 -0.03510376
v 0.00879773 0.06100213 -0.02844781
v 0.04551822 0.06041141 -0.04492743
v 0.00970368 0.06367650 -0.03044302
v 0.03022495 0.06354247 -0.03190219
v 0.01014869 0.06114114 -0.02857917
v 0.03745097 0.06294254 -0.03702666
v 0.04601417 0.05448248 -0.03231705
v 0.04924418 0.05756191 -0.04936429
v 0.03222042 0.06428640 -0.03783227
v 0.02254900 0.06223059 -0.02983710
v 0.04381083 0.06072311 -0.04082126
v 0.00121635 0.06645243 -0.03991994
v 0.04492412 0.05547722 -0.03143241
v 0.01551644 0.06501870 -0.03319475
v 0.03956509 0.05437753 -0.02784166
v 0.04015910 0.06394303 -0.04986582
v 0.04072338 0.05999471 -0.03162394
v 0.00286182 0.06432214 -0.03085412
v 0.01371098 0.06718085 -0.04739877
v 0.01009082 0.06458855 -0.03125403
v 0.04990608 0.05033578 -0.04430304
v 0.01063531 0.06363564 -0.03043199
v 0.04037624 0.06325825 -0.04495959
v 0.04552246 0.06101990 -0.04772087
v 0.03858691 0.06285936 -0.03856499
v 0.04291398 0.06033181 -0.03704737
v 0.04795370 0.05316679 -0.03544594
v 0.03884068 0.06430753 -0.04909165
v 0.01794044 0.06718234 -0.04919389
v 0.02562609 0.06583913 -0.04247633
v 0.02724408 0.06512209 -0.03850019
v 0.03643726 0.06484102 -0.04840890
v 0.04633495 0.05379297 -0.03225775
v 0.00469252 0.06681789 -0.04280195
v 0.01500893 0.06690953 -0.04539920
v 0.02319133 0.06103910 -0.02899657
v 0.03140522 0.06501487 -0.04185431
v 0.03042303 0.06491959 -0.03992979
v 0.02339457 0.06634770 -0.04481289
v 0.04998244 0.05423802 -0.04403217
v 0.04356912 0.06213741 -0.04699430
v 0.02077007 0.06667652 -0.04572891
v 0.03525076 0.05816641 -0.02830628
v 0.04552985 0.06038812 -0.04486489
v 0.03079078 0.05968525 -0.02864037
v 0.02505494 0.06307610 -0.03061076
v 0.04368339 0.06158702 -0.04440287
v 0.03928694 0.06395413 -0.04728658
v 0.04583279 0.06095103 -0.04868589
v 0.03961034 0.06228241 -0.03766512
v 0.04359190 0.05927641 -0.03548048
v 0.00563062 0.06761738 -0.04987119
v 0.04306646 0.06203861 -0.04490815
v 0.03479839 0.06535230 -0.04961828
v 0.02931729 0.06496456 -0.03925712
v 0.01351338 0.06729006 -0.04835189
v 0.04931331 0.05401843 -0.04097809
v 0.04713591 0.05680709 -0.03911820
v 0.03510387 0.06291606 -0.03362147
v 0.04219782 0.05867907 -0.03139916
v 0.01871378 0.06374302 -0.03075619
v 0.03206291 0.06553787 -0.04666796
v 0.02168080 0.06654955 -0.04522918
v 0.02771943 0.06354511 -0.03129159
v 0.04509400 0.05017273 -0.02958012
v 0.04490039 0.05032316 -0.02948313
f 123 469 188
f 78 35 466
f 466 38 78
f 469 123 299
f 299 25 37
f 784 73 765
f 347 752 626
f 73 38 691
f 38 466 691
f 675 736 143
f 669 25 657
f 37 25 669
f 669 679 37
f 25 299 344
f 344 299 123
f 657 25 344
f 433 299 37
f 410 123 188
f 410 765 123
f 188 626 410
f 796 148 528
f 528 148 469
f 662 464 300
f 662 738 694
f 738 528 694
f 694 528 469
f 694 143 736
f 306 626 188
f 306 347 626
f 121 347 306
f 148 121 306
f 188 469 306
f 469 148 306
f 75 148 796
f 75 121 148
f 75 413 121
f 567 126 657
f 657 96 567
f 500 765 73
f 73 691 500
f 500 691 466
f 657 126 107
f 107 669 657
f 2 43 484
f 2 107 126
f 123 765 179
f 179 344 123
f 657 344 179
f 765 500 179
f 37 679 239
f 679 398 239
f 239 398 645
f 784 765 674
f 765 410 674
f 674 410 626
f 662 300 172
f 444 736 675
f 444 300 736
f 444 551 300
f 662 694 440
f 440 694 736
f 736 300 440
f 440 300 464
f 523 694 469
f 78 38 480
f 359 73 784
f 784 572 359
f 209 347 688
f 520 2 484
f 107 2 520
f 520 484 645
f 645 398 520
f 664 179 466
f 197 500 466
f 466 179 197
f 197 179 500
f 376 433 37
f 37 239 376
f 675 143 67
f 143 239 67
f 784 674 338
f 338 674 608
f 649 674 626
f 608 674 649
f 625 331 675
f 522 172 300
f 300 551 522
f 522 632 172
f 508 172 796
f 662 172 508
f 172 632 394
f 735 464 662
f 662 440 735
f 735 440 464
f 469 299 166
f 166 523 469
f 299 523 166
f 143 694 136
f 299 677 136
f 32 351 336
f 413 75 85
f 715 157 47
f 244 35 78
f 78 480 629
f 643 279 76
f 372 482 805
f 168 205 790
f 217 414 476
f 383 359 572
f 73 359 383
f 382 432 295
f 504 259 224
f 504 278 259
f 64 186 29
f 224 64 17
f 64 29 17
f 669 107 101
f 107 520 101
f 101 520 398
f 679 669 101
f 101 398 679
f 43 468 587
f 153 134 362
f 49 603 268
f 268 527 49
f 588 527 268
f 233 664 466
f 466 96 233
f 233 96 657
f 657 179 233
f 179 664 233
f 299 433 333
f 333 677 299
f 418 338 608
f 418 631 382
f 796 172 419
f 419 75 796
f 419 531 75
f 560 352 542
f 175 26 404
f 540 522 756
f 632 522 540
f 675 331 89
f 653 444 675
f 675 547 653
f 653 610 444
f 551 444 365
f 444 610 365
f 365 522 551
f 365 610 522
f 607 684 239
f 694 523 193
f 193 136 694
f 193 523 299
f 299 136 193
f 156 599 284
f 284 599 108
f 656 47 157
f 108 47 656
f 157 552 656
f 40 553 715
f 715 47 40
f 201 47 108
f 108 599 201
f 201 599 156
f 201 630 513
f 427 804 586
f 553 40 727
f 727 40 47
f 766 482 486
f 766 704 482
f 486 482 499
f 429 384 647
f 437 629 235
f 437 244 78
f 78 629 437
f 436 213 583
f 153 362 571
f 362 428 571
f 372 76 22
f 790 124 22
f 706 544 22
f 22 124 706
f 525 805 301
f 190 805 525
f 313 279 643
f 313 328 279
f 643 99 313
f 313 99 805
f 153 168 92
f 714 168 153
f 153 571 714
f 294 383 572
f 374 304 572
f 374 295 304
f 608 649 94
f 94 451 608
f 94 186 64
f 64 451 94
f 489 29 752
f 752 347 489
f 347 209 489
f 209 17 489
f 489 17 29
f 577 278 615
f 278 504 615
f 683 577 615
f 615 52 683
f 672 430 308
f 430 770 308
f 308 770 140
f 715 553 31
f 31 729 715
f 553 39 31
f 43 2 1
f 1 446 43
f 18 468 43
f 43 446 18
f 231 603 525
f 645 484 100
f 100 239 645
f 603 49 660
f 525 603 660
f 660 328 525
f 41 376 239
f 239 684 41
f 631 418 456
f 456 451 631
f 801 572 784
f 801 382 572
f 801 418 382
f 11 405 32
f 423 560 542
f 141 482 372
f 141 171 482
f 465 518 102
f 790 205 524
f 524 124 790
f 616 544 706
f 616 175 404
f 404 167 616
f 616 167 544
f 26 175 505
f 505 423 26
f 560 423 505
f 175 616 505
f 425 423 542
f 26 423 425
f 240 230 541
f 120 425 665
f 404 26 120
f 26 425 120
f 32 160 327
f 522 610 655
f 143 136 252
f 136 607 252
f 252 239 143
f 252 607 239
f 688 347 760
f 413 85 760
f 760 347 121
f 121 413 760
f 400 480 38
f 293 566 181
f 697 552 157
f 157 518 697
f 518 618 697
f 108 656 151
f 513 630 314
f 137 308 535
f 513 314 712
f 712 586 804
f 712 314 586
f 525 301 407
f 240 541 287
f 331 625 287
f 701 647 384
f 213 436 74
f 480 400 74
f 74 400 213
f 74 629 480
f 74 759 629
f 436 759 74
f 235 629 728
f 629 759 728
f 507 759 436
f 678 730 507
f 507 586 678
f 125 362 429
f 125 428 362
f 687 787 191
f 135 552 646
f 546 552 135
f 177 388 687
f 656 388 177
f 687 151 177
f 177 151 656
f 232 656 552
f 232 388 656
f 552 546 232
f 279 254 754
f 754 76 279
f 721 168 265
f 790 22 265
f 372 805 443
f 805 99 443
f 651 805 482
f 651 301 805
f 525 328 593
f 328 313 593
f 617 168 721
f 617 92 168
f 445 714 571
f 168 714 693
f 714 445 693
f 293 346 757
f 346 401 757
f 733 804 427
f 572 304 50
f 50 294 572
f 304 294 50
f 21 317 414
f 73 383 695
f 554 401 346
f 427 401 554
f 554 733 427
f 304 295 122
f 122 295 432
f 209 457 243
f 457 182 243
f 243 17 209
f 224 17 243
f 243 182 224
f 13 615 705
f 491 335 631
f 512 649 626
f 512 94 649
f 186 94 512
f 626 752 512
f 752 29 512
f 512 29 186
f 178 308 137
f 52 615 371
f 672 52 371
f 371 270 672
f 371 615 13
f 371 411 270
f 682 371 13
f 411 371 682
f 590 430 140
f 140 770 590
f 590 770 430
f 9 308 140
f 39 308 9
f 43 587 668
f 668 588 43
f 527 588 668
f 603 231 598
f 598 231 745
f 745 231 506
f 506 200 745
f 268 603 641
f 608 451 381
f 451 456 381
f 381 418 608
f 381 456 418
f 784 338 95
f 95 801 784
f 322 160 341
f 341 160 32
f 394 322 341
f 32 405 341
f 172 394 341
f 405 11 161
f 531 419 161
f 161 11 531
f 324 518 157
f 258 157 715
f 636 324 258
f 471 618 518
f 27 465 124
f 706 124 808
f 808 465 102
f 124 465 808
f 722 616 706
f 722 505 616
f 706 808 722
f 722 808 505
f 272 208 610
f 622 291 272
f 272 291 149
f 149 109 272
f 353 425 542
f 370 600 318
f 62 541 302
f 62 302 547
f 62 547 675
f 675 89 62
f 62 89 331
f 62 287 541
f 331 287 62
f 283 3 610
f 36 120 665
f 665 425 36
f 261 106 622
f 261 272 610
f 622 272 261
f 778 540 756
f 778 327 160
f 685 655 610
f 610 208 685
f 739 136 677
f 739 564 136
f 395 607 136
f 136 564 395
f 236 109 336
f 336 273 236
f 264 291 627
f 149 291 264
f 627 318 264
f 611 109 149
f 336 109 611
f 611 15 336
f 578 15 611
f 32 336 356
f 336 82 356
f 336 15 392
f 392 82 336
f 548 181 566
f 548 286 436
f 548 436 583
f 583 181 548
f 436 286 91
f 91 286 427
f 91 507 436
f 427 586 91
f 586 507 91
f 618 558 438
f 438 697 618
f 204 284 108
f 156 284 204
f 204 201 156
f 630 201 204
f 204 191 630
f 204 151 687
f 687 191 204
f 666 727 47
f 666 712 727
f 47 201 666
f 666 201 513
f 513 712 666
f 704 288 296
f 482 704 296
f 747 506 766
f 200 506 747
f 115 231 525
f 276 499 482
f 544 167 637
f 637 709 544
f 731 709 637
f 287 731 637
f 129 287 625
f 129 731 287
f 129 625 675
f 652 647 235
f 759 507 247
f 630 191 247
f 247 507 730
f 247 314 630
f 586 314 247
f 247 730 678
f 678 586 247
f 348 787 135
f 348 571 428
f 428 787 348
f 135 646 348
f 348 646 494
f 494 697 348
f 697 275 348
f 571 348 223
f 721 265 127
f 127 265 22
f 681 22 76
f 76 754 681
f 681 754 22
f 780 754 254
f 721 127 780
f 22 754 780
f 780 127 22
f 354 168 790
f 790 265 354
f 354 265 168
f 525 593 391
f 391 190 525
f 222 445 571
f 571 223 222
f 222 223 601
f 222 438 558
f 60 558 618
f 771 21 304
f 84 548 566
f 286 548 84
f 84 566 293
f 293 757 84
f 427 286 84
f 84 401 427
f 84 757 401
f 804 733 337
f 707 178 137
f 414 217 131
f 131 695 699
f 131 21 414
f 131 217 73
f 73 695 131
f 383 294 737
f 737 695 383
f 737 743 695
f 737 294 304
f 304 21 737
f 21 743 737
f 699 695 245
f 695 743 245
f 245 131 699
f 245 743 21
f 21 131 245
f 304 122 639
f 639 771 304
f 19 771 639
f 639 45 19
f 169 122 582
f 335 30 582
f 497 481 554
f 403 705 615
f 182 705 403
f 403 504 224
f 224 182 403
f 224 259 248
f 248 491 224
f 28 451 64
f 28 64 224
f 224 491 28
f 631 451 28
f 28 491 631
f 271 178 52
f 271 52 672
f 672 308 271
f 308 178 271
f 514 31 39
f 39 9 514
f 729 31 514
f 487 83 539
f 23 83 49
f 23 49 527
f 339 539 23
f 23 539 83
f 527 668 23
f 23 668 339
f 77 660 49
f 49 83 77
f 328 660 77
f 279 328 77
f 77 92 279
f 77 83 487
f 153 92 77
f 257 362 134
f 257 384 429
f 429 362 257
f 628 668 587
f 339 668 628
f 628 539 339
f 42 641 603
f 268 641 42
f 42 588 268
f 742 357 675
f 239 100 742
f 675 67 742
f 742 67 239
f 486 499 214
f 499 357 214
f 146 324 157
f 157 258 146
f 146 258 324
f 56 258 715
f 542 352 454
f 636 496 390
f 636 258 176
f 176 496 636
f 258 56 176
f 518 465 375
f 375 471 518
f 465 27 375
f 124 524 375
f 375 27 124
f 10 471 555
f 555 60 10
f 693 60 555
f 560 505 748
f 748 103 636
f 748 390 560
f 636 390 748
f 505 808 515
f 515 748 505
f 103 748 515
f 515 808 102
f 102 518 515
f 434 541 230
f 208 455 44
f 44 685 208
f 44 327 237
f 408 318 627
f 461 283 302
f 3 283 461
f 541 111 461
f 302 541 461
f 610 3 461
f 653 283 580
f 610 653 580
f 580 283 610
f 370 318 758
f 758 579 370
f 318 408 758
f 758 408 627
f 758 7 350
f 627 291 758
f 291 7 758
f 404 120 66
f 66 240 404
f 120 36 316
f 316 36 425
f 106 592 183
f 622 106 183
f 303 778 756
f 327 778 303
f 208 236 242
f 242 236 273
f 82 392 266
f 46 85 75
f 75 345 46
f 510 164 688
f 688 760 510
f 510 760 502
f 549 209 688
f 549 457 209
f 549 260 457
f 13 705 549
f 705 260 549
f 270 411 321
f 533 9 140
f 140 732 533
f 715 729 619
f 502 760 263
f 596 760 85
f 364 476 293
f 601 697 589
f 697 438 589
f 108 151 79
f 79 204 108
f 151 204 79
f 559 296 692
f 692 296 288
f 417 357 499
f 499 276 417
f 544 709 702
f 702 141 372
f 372 22 702
f 702 22 544
f 731 276 274
f 274 709 731
f 482 171 274
f 274 276 482
f 274 702 709
f 171 141 274
f 141 702 274
f 118 167 404
f 118 637 167
f 287 637 118
f 404 240 118
f 240 287 118
f 281 701 384
f 235 728 57
f 57 652 235
f 429 647 478
f 478 652 191
f 550 697 601
f 601 223 550
f 550 275 697
f 724 222 601
f 438 222 724
f 558 60 789
f 789 693 445
f 789 60 693
f 293 476 777
f 777 346 293
f 476 414 777
f 414 317 777
f 385 771 19
f 317 21 385
f 21 771 385
f 543 337 733
f 716 479 543
f 543 479 337
f 337 479 138
f 804 337 138
f 34 122 169
f 34 639 122
f 802 30 335
f 802 248 259
f 335 491 802
f 491 248 802
f 481 582 802
f 802 582 30
f 169 582 355
f 355 582 481
f 481 497 355
f 285 432 382
f 285 122 432
f 382 631 285
f 631 335 285
f 554 481 530
f 142 705 182
f 142 260 705
f 142 182 457
f 457 260 142
f 663 615 504
f 504 403 663
f 663 403 615
f 487 539 452
f 452 77 487
f 452 5 134
f 452 134 153
f 153 77 452
f 134 5 397
f 397 257 134
f 587 98 422
f 422 628 587
f 98 281 422
f 422 281 384
f 467 742 648
f 598 467 648
f 603 598 648
f 648 42 603
f 229 598 745
f 745 200 229
f 229 195 598
f 486 195 229
f 229 766 486
f 229 747 766
f 357 742 762
f 363 477 90
f 363 132 477
f 90 266 363
f 363 345 75
f 477 132 689
f 32 477 689
f 689 11 32
f 412 48 560
f 560 390 367
f 367 390 496
f 368 412 367
f 367 412 560
f 526 454 352
f 352 560 526
f 560 48 526
f 542 454 65
f 542 65 532
f 496 176 61
f 61 176 56
f 604 524 205
f 604 375 524
f 693 555 604
f 471 375 604
f 604 555 471
f 518 324 711
f 711 515 518
f 711 324 636
f 636 103 711
f 103 515 711
f 230 325 492
f 492 434 230
f 492 325 622
f 536 7 291
f 536 291 622
f 622 325 536
f 458 351 32
f 32 327 458
f 327 44 458
f 174 44 237
f 685 44 174
f 6 758 350
f 579 758 6
f 6 230 240
f 240 66 6
f 120 579 6
f 6 66 120
f 120 316 726
f 33 726 316
f 120 726 33
f 370 579 33
f 33 579 120
f 710 183 592
f 111 183 710
f 710 461 111
f 635 455 208
f 208 242 635
f 85 46 130
f 421 392 15
f 392 698 763
f 305 600 370
f 164 510 793
f 688 164 442
f 442 549 688
f 746 321 563
f 411 682 734
f 734 321 411
f 672 270 343
f 270 321 343
f 343 430 672
f 140 430 210
f 729 533 267
f 267 533 732
f 255 514 9
f 9 533 255
f 729 514 255
f 255 533 729
f 154 537 150
f 150 326 154
f 154 326 447
f 293 181 595
f 595 364 293
f 595 181 583
f 583 213 595
f 476 364 320
f 320 217 476
f 320 38 73
f 73 217 320
f 409 115 525
f 409 573 115
f 525 407 409
f 407 296 409
f 409 296 559
f 731 129 764
f 764 276 731
f 764 366 276
f 276 366 119
f 357 417 119
f 119 417 276
f 652 57 562
f 562 728 759
f 562 57 728
f 647 652 192
f 192 478 647
f 652 478 192
f 416 125 429
f 429 478 416
f 416 478 191
f 428 125 416
f 416 787 428
f 416 191 787
f 342 385 19
f 380 479 137
f 716 543 795
f 795 707 137
f 137 479 795
f 795 479 716
f 707 795 501
f 553 727 519
f 519 138 553
f 378 554 346
f 378 497 554
f 346 777 751
f 751 777 45
f 45 639 751
f 639 34 751
f 259 278 97
f 180 582 122
f 122 285 180
f 335 582 180
f 180 285 335
f 733 554 219
f 554 530 219
f 277 20 474
f 474 154 277
f 56 537 474
f 537 154 474
f 152 397 5
f 257 397 152
f 384 257 152
f 152 422 384
f 598 195 311
f 311 195 742
f 42 648 448
f 448 100 484
f 448 742 100
f 448 648 742
f 484 43 448
f 43 588 448
f 588 42 448
f 200 747 71
f 71 229 200
f 747 229 71
f 486 762 614
f 614 762 742
f 614 195 486
f 742 195 614
f 486 214 483
f 483 762 486
f 483 214 357
f 357 762 483
f 345 363 189
f 799 450 368
f 799 368 782
f 215 367 496
f 370 532 644
f 644 305 370
f 202 604 205
f 693 604 202
f 205 168 202
f 168 693 202
f 396 532 370
f 370 33 396
f 542 532 396
f 396 353 542
f 396 33 316
f 425 353 396
f 396 316 425
f 85 130 441
f 441 130 569
f 569 130 104
f 569 104 473
f 319 517 667
f 667 517 207
f 207 159 509
f 116 793 88
f 88 793 510
f 88 58 116
f 8 793 116
f 788 563 13
f 788 746 563
f 402 538 475
f 402 785 797
f 116 58 307
f 58 785 307
f 253 475 140
f 140 210 253
f 253 402 475
f 424 732 140
f 424 538 732
f 475 538 424
f 199 144 312
f 386 326 150
f 715 619 386
f 386 56 715
f 150 537 386
f 386 537 56
f 459 326 732
f 447 326 459
f 584 267 732
f 732 326 584
f 732 538 406
f 406 312 642
f 277 703 676
f 750 703 277
f 769 154 447
f 447 329 769
f 769 329 642
f 642 703 769
f 760 596 93
f 364 595 360
f 360 320 364
f 360 810 320
f 360 595 213
f 213 400 360
f 360 400 38
f 38 810 360
f 704 114 490
f 490 114 115
f 115 573 490
f 704 766 59
f 59 114 704
f 766 506 59
f 686 764 129
f 686 129 675
f 623 119 366
f 623 686 675
f 675 357 623
f 357 119 623
f 366 764 623
f 764 686 623
f 545 562 759
f 652 562 545
f 191 652 545
f 759 247 545
f 545 247 191
f 19 45 211
f 211 342 19
f 45 777 211
f 51 138 479
f 479 380 51
f 553 138 51
f 51 39 553
f 51 308 39
f 51 535 308
f 16 543 733
f 733 501 16
f 16 795 543
f 16 501 795
f 707 501 158
f 683 707 158
f 158 577 683
f 158 278 577
f 804 138 761
f 138 519 761
f 761 712 804
f 727 712 761
f 761 519 727
f 346 751 340
f 340 751 34
f 34 378 340
f 340 378 346
f 170 802 259
f 606 530 481
f 389 530 606
f 481 802 606
f 802 170 606
f 658 389 733
f 733 219 658
f 673 530 389
f 673 219 530
f 20 61 803
f 803 474 20
f 803 61 56
f 485 676 703
f 5 452 81
f 81 452 539
f 539 628 81
f 377 742 467
f 377 311 742
f 377 467 598
f 598 311 377
f 345 189 773
f 194 189 363
f 367 215 63
f 358 104 227
f 227 159 358
f 227 130 46
f 227 104 130
f 87 207 517
f 358 159 87
f 159 207 87
f 185 46 345
f 345 570 185
f 369 297 495
f 495 297 15
f 495 15 578
f 779 421 15
f 779 613 421
f 768 8 116
f 321 746 768
f 549 8 768
f 511 785 58
f 511 88 510
f 58 88 511
f 13 549 216
f 216 788 13
f 746 788 216
f 638 343 321
f 402 253 638
f 246 307 196
f 785 402 196
f 196 307 785
f 755 253 210
f 430 343 755
f 755 210 430
f 140 475 86
f 86 424 140
f 475 424 86
f 198 470 144
f 373 619 729
f 729 267 373
f 732 406 794
f 794 459 732
f 447 459 794
f 277 154 624
f 624 750 277
f 703 750 330
f 330 769 703
f 750 624 330
f 133 93 596
f 772 93 133
f 690 470 263
f 38 320 460
f 460 810 38
f 749 506 231
f 749 59 506
f 733 389 725
f 389 158 725
f 725 158 501
f 259 97 503
f 503 170 259
f 97 606 503
f 503 606 170
f 389 606 332
f 332 606 97
f 332 158 389
f 332 97 278
f 278 158 332
f 163 703 642
f 163 485 703
f 449 676 69
f 676 485 69
f 221 152 5
f 5 81 221
f 628 422 696
f 556 773 521
f 421 613 521
f 800 763 698
f 698 194 800
f 800 266 392
f 392 763 800
f 800 363 266
f 800 194 363
f 280 194 698
f 280 698 392
f 392 421 280
f 620 319 667
f 368 367 621
f 621 63 368
f 367 63 621
f 640 620 667
f 393 620 640
f 640 498 393
f 609 65 454
f 609 532 65
f 212 282 334
f 565 282 212
f 782 368 110
f 569 473 110
f 368 63 463
f 379 215 496
f 496 633 379
f 633 713 379
f 431 420 676
f 557 227 46
f 159 227 557
f 46 509 557
f 509 159 557
f 147 319 782
f 517 319 147
f 782 110 147
f 650 87 517
f 650 473 104
f 426 509 46
f 46 185 426
f 426 185 509
f 493 207 509
f 509 185 493
f 369 495 786
f 585 495 578
f 149 264 585
f 578 611 585
f 585 611 149
f 199 741 723
f 199 312 12
f 12 402 797
f 785 511 117
f 117 723 785
f 199 723 117
f 661 768 746
f 746 216 661
f 549 768 661
f 661 216 549
f 116 307 139
f 139 307 246
f 139 638 321
f 139 768 116
f 321 768 139
f 343 638 250
f 250 638 253
f 246 196 791
f 791 196 402
f 791 139 246
f 402 638 791
f 638 139 791
f 387 198 144
f 387 671 502
f 144 671 387
f 502 263 234
f 263 470 234
f 470 198 234
f 462 312 144
f 144 238 462
f 267 584 744
f 744 373 267
f 290 794 406
f 642 329 290
f 290 406 642
f 290 329 447
f 447 794 290
f 654 20 277
f 277 676 654
f 676 420 654
f 420 431 654
f 320 810 809
f 809 460 320
f 810 460 809
f 184 501 733
f 733 725 184
f 184 725 501
f 690 792 54
f 670 470 54
f 470 690 54
f 792 225 54
f 634 690 93
f 634 792 690
f 152 221 597
f 597 221 81
f 422 152 597
f 597 696 422
f 597 81 628
f 628 696 597
f 556 521 415
f 415 521 613
f 782 393 439
f 393 498 439
f 439 799 782
f 453 640 667
f 453 226 495
f 574 644 532
f 532 609 574
f 569 806 568
f 798 596 85
f 798 206 565
f 680 282 565
f 565 206 680
f 206 568 680
f 581 110 368
f 368 463 581
f 569 110 781
f 781 110 282
f 753 63 215
f 215 379 753
f 753 463 63
f 269 713 633
f 633 431 269
f 269 431 713
f 112 650 104
f 87 650 112
f 594 241 570
f 323 241 495
f 345 773 289
f 289 773 556
f 495 585 315
f 644 495 315
f 305 644 315
f 600 305 315
f 315 318 600
f 315 264 318
f 315 585 264
f 740 741 199
f 199 12 740
f 740 723 741
f 740 12 797
f 785 723 740
f 538 402 435
f 402 12 435
f 435 406 538
f 312 406 435
f 435 12 312
f 105 671 144
f 105 144 199
f 199 117 105
f 642 312 718
f 718 163 642
f 312 462 718
f 485 163 718
f 488 718 561
f 561 470 670
f 619 373 80
f 373 744 80
f 20 654 128
f 128 633 496
f 772 133 708
f 203 225 792
f 173 225 145
f 145 575 173
f 173 575 69
f 717 93 772
f 717 634 93
f 449 69 53
f 69 575 53
f 774 453 667
f 226 453 774
f 799 251 775
f 450 799 775
f 48 450 775
f 775 526 48
f 454 526 775
f 775 609 454
f 775 251 640
f 640 453 775
f 775 574 609
f 644 574 220
f 719 441 569
f 569 568 719
f 85 441 719
f 596 798 349
f 282 680 472
f 399 568 806
f 399 680 568
f 399 472 680
f 282 472 399
f 399 806 569
f 569 781 399
f 399 781 282
f 713 431 576
f 431 529 576
f 576 529 334
f 334 282 576
f 576 581 713
f 282 110 576
f 110 581 576
f 162 570 345
f 162 594 570
f 241 323 256
f 68 289 556
f 786 289 68
f 495 241 249
f 249 786 495
f 249 289 786
f 207 493 113
f 113 185 570
f 113 493 185
f 807 323 495
f 671 105 605
f 605 510 502
f 502 671 605
f 516 105 117
f 510 605 516
f 516 605 105
f 767 462 238
f 767 718 462
f 633 128 292
f 292 128 654
f 292 431 633
f 292 654 431
f 772 708 612
f 612 708 225
f 225 203 612
f 659 212 334
f 145 70 659
f 69 718 14
f 14 173 69
f 14 718 488
f 187 173 14
f 670 187 14
f 14 561 670
f 361 431 676
f 361 529 431
f 644 220 24
f 453 220 298
f 310 798 565
f 310 349 798
f 534 113 570
f 570 241 534
f 241 256 534
f 495 226 55
f 783 113 218
f 218 55 783
f 218 807 495
f 495 55 218
f 323 807 218
f 218 256 323
f 218 534 256
f 113 534 218
f 4 561 718
f 718 767 4
f 470 561 4
f 212 659 309
f 309 659 70
f 591 659 334
f 591 575 145
f 145 659 591
f 449 53 700
f 53 361 700
f 529 361 720
f 720 361 53
f 262 220 453
f 262 24 220
f 228 775 453
f 453 298 228
f 596 349 165
f 165 310 596
f 349 310 165
f 72 776 565
f 72 309 70
f 145 225 72
f 72 70 145
f 225 708 72
f 565 776 155
f 596 310 155
f 155 310 565
f 776 72 602
f 602 72 708
f 508 738 662
f 796 528 508
f 508 528 738
f 382 295 374
f 572 382 374
f 646 697 494
f 552 697 646
f 687 388 232
f 135 787 232
f 232 787 687
f 232 546 135
f 643 76 443
f 443 76 372
f 443 99 643
f 418 801 95
f 338 418 95
f 172 341 161
f 161 419 172
f 161 341 405
f 547 302 283
f 283 653 547
f 632 540 778
f 778 394 632
f 778 322 394
f 778 160 322
f 684 607 395
f 433 376 395
f 395 333 433
f 376 41 395
f 677 333 395
f 395 41 684
f 395 739 677
f 564 739 395
f 236 272 109
f 208 272 236
f 296 407 301
f 296 651 482
f 301 651 296
f 780 254 279
f 780 617 721
f 279 92 780
f 92 617 780
f 391 313 805
f 805 190 391
f 391 593 313
f 618 471 60
f 60 471 10
f 52 178 707
f 683 52 707
f 32 356 266
f 266 477 32
f 90 477 266
f 266 356 82
f 126 567 281
f 35 244 281
f 281 466 35
f 281 96 466
f 281 567 96
f 281 2 126
f 281 437 235
f 468 18 281
f 235 647 281
f 281 1 2
f 281 587 468
f 244 437 281
f 446 1 281
f 281 18 446
f 647 701 281
f 281 98 587
f 550 223 348
f 550 348 275
f 724 589 438
f 601 589 724
f 445 222 789
f 789 222 558
f 75 531 689
f 531 11 689
f 689 363 75
f 132 363 689
f 450 412 368
f 48 412 450
f 492 111 541
f 541 434 492
f 622 183 492
f 492 183 111
f 756 522 174
f 174 303 756
f 237 327 174
f 522 655 174
f 655 685 174
f 327 303 174
f 6 536 325
f 7 536 6
f 6 325 230
f 350 7 6
f 610 461 710
f 710 261 610
f 106 261 710
f 710 592 106
f 635 273 336
f 635 336 351
f 351 458 635
f 635 44 455
f 635 242 273
f 635 458 44
f 13 563 734
f 734 682 13
f 563 321 734
f 169 355 378
f 378 34 169
f 378 355 497
f 8 442 164
f 164 793 8
f 549 442 8
f 490 692 288
f 490 288 704
f 559 692 490
f 490 409 559
f 573 409 490
f 317 385 211
f 211 777 317
f 385 342 211
f 51 380 137
f 137 535 51
f 673 658 219
f 389 658 673
f 56 474 803
f 330 624 154
f 154 769 330
f 690 263 760
f 760 93 690
f 115 114 749
f 231 115 749
f 114 59 749
f 280 773 189
f 421 521 280
f 189 194 280
f 280 521 773
f 620 393 782
f 782 319 620
f 650 110 473
f 650 147 110
f 517 147 650
f 253 755 250
f 250 755 343
f 198 387 234
f 234 387 502
f 498 640 251
f 799 439 251
f 251 439 498
f 713 581 753
f 753 379 713
f 753 581 463
f 358 87 112
f 112 104 358
f 797 785 740
f 718 69 485
f 80 744 584
f 80 584 326
f 326 386 80
f 80 386 619
f 128 61 20
f 496 61 128
f 670 54 173
f 173 187 670
f 173 54 225
f 719 568 206
f 719 798 85
f 206 798 719
f 556 415 68
f 15 297 68
f 369 786 68
f 68 779 15
f 68 297 369
f 613 779 68
f 68 415 613
f 241 594 249
f 345 289 249
f 249 162 345
f 594 162 249
f 516 117 511
f 516 511 510
f 792 634 612
f 612 717 772
f 612 203 792
f 634 717 612
f 488 561 14
f 55 774 667
f 667 207 55
f 207 113 55
f 226 774 55
f 55 113 783
f 4 238 144
f 144 470 4
f 4 767 238
f 700 361 676
f 700 676 449
f 334 529 720
f 720 53 575
f 720 591 334
f 575 591 720
f 262 453 495
f 262 495 644
f 644 24 262
f 228 220 574
f 574 775 228
f 228 298 220
f 565 212 72
f 212 309 72
f 602 708 133
f 602 133 596
f 596 155 602
f 602 155 776

