# https://github.com/mikedh/trimesh
v -0.05064805 0.05249853 -0.04845443
v -0.05120696 0.05008902 -0.04678954
v -0.05013267 0.05426987 -0.04965998
v -0.05164461 0.05047551 -0.04992447
v -0.05126791 0.05037118 -0.04755297
v -0.05039648 0.05070980 -0.04361165
v -0.05092812 0.05142123 -0.04759091
v -0.05022728 0.05379177 -0.04905142
v -0.05014087 0.05053349 -0.04984503
v -0.05093092 0.05102284 -0.04688403
v -0.05013353 0.05359428 -0.04808871
v -0.05023125 0.05306743 -0.04746511
v -0.05001841 0.05195863 -0.04423767
v -0.05080430 0.05218304 -0.04860443
v -0.05077761 0.05021691 -0.04478795
v -0.05023159 0.05043001 -0.04229475
v -0.05017516 0.05080802 -0.04273363
v -0.05019114 0.05035775 -0.04974279
v -0.05127641 0.05073021 -0.04823538
f 4 3 9
f 9 3 13
f 14 3 4
f 4 7 14
f 13 3 11
f 13 7 6
f 18 9 16
f 16 15 18
f 4 9 18
f 12 7 13
f 13 11 12
f 12 11 7
f 3 14 8
f 8 11 3
f 1 14 7
f 7 11 1
f 1 8 14
f 11 8 1
f 13 6 17
f 17 6 16
f 17 9 13
f 16 9 17
f 10 6 7
f 16 6 10
f 10 5 16
f 19 7 4
f 4 5 19
f 19 10 7
f 5 10 19
f 2 15 16
f 16 5 2
f 2 5 4
f 4 18 2
f 2 18 15

