# https://github.com/mikedh/trimesh
v -0.04875000 -0.04997239 -0.07964146
v -0.04416690 -0.04648370 -0.05028269
v -0.04875000 -0.04999472 -0.07196237
v -0.04186003 -0.04650248 -0.05008854
v -0.04864462 -0.00112566 -0.09465668
v -0.04863564 -0.00151237 -0.09507947
v -0.04875000 -0.00263578 -0.05003147
v -0.04874998 -0.04933265 -0.05827560
v -0.04875000 -0.00507184 -0.08962349
v -0.04875000 -0.04865520 -0.08804444
v -0.04863314 -0.03352773 -0.09519682
v -0.04843859 -0.04953126 -0.09725106
v -0.04874940 -0.01326818 -0.08972409
v -0.04863338 -0.01194090 -0.09518566
v -0.04870372 -0.00026667 -0.09187439
v -0.04874931 -0.04513198 -0.08972845
v -0.04875001 -0.02663561 -0.05012636
v -0.04818053 -0.04947883 -0.09996316
v -0.04875001 -0.02566415 -0.05024241
v -0.04875002 -0.04768748 -0.05911646
v -0.04875002 -0.03208110 -0.05323727
v -0.04874986 -0.01896871 -0.08970232
v -0.04860959 -0.04806961 -0.09545386
v -0.04875000 -0.00120869 -0.08840224
v -0.04874887 -0.00695212 -0.08974904
v -0.04867679 -0.04997093 -0.09314209
v -0.04875000 -0.00016412 -0.08656526
v -0.03679788 -0.04998382 -0.05172498
v -0.04875000 -0.00135632 -0.08893714
v -0.04872500 -0.04974147 -0.05770648
v -0.04875001 -0.04967027 -0.07604876
v -0.04875001 -0.02803015 -0.05109779
v -0.04875002 -0.03569300 -0.06261124
v -0.04875000 -0.04718078 -0.08966389
v -0.03735725 -0.04838543 -0.05070831
v -0.04864209 -0.04968027 -0.09477580
v -0.04875002 -0.04780720 -0.06173107
v -0.04875000 -0.00001390 -0.06675077
v -0.04817726 -0.01220887 -0.09999687
v -0.04875000 -0.04893194 -0.06052308
v -0.04863272 -0.00115775 -0.09521084
v -0.04817928 -0.04359767 -0.09997613
v -0.04871573 -0.00042813 -0.09130917
v -0.04835156 -0.04973235 -0.09816575
v -0.04863487 -0.04418514 -0.09511549
v -0.04821860 -0.00054648 -0.09956244
v -0.04874999 -0.04922658 -0.05907112
v -0.04875000 -0.04987627 -0.08664261
v -0.04874997 -0.04948133 -0.05842539
v -0.04851802 -0.04924472 -0.09641620
v -0.04874998 -0.04997760 -0.06539131
v -0.04068517 -0.04650795 -0.05006838
v -0.04875000 -0.00685515 -0.08968727
v -0.04874999 -0.04948722 -0.06328641
v -0.04737017 -0.04494660 -0.05007754
v -0.04863055 -0.04732655 -0.09523369
v -0.04875002 -0.03848267 -0.05996269
v -0.04818049 -0.00629421 -0.09996286
v -0.04875002 -0.03542984 -0.06270056
v -0.04874998 -0.04942531 -0.05835011
v -0.03681620 -0.04985359 -0.05204676
v -0.04863170 -0.00094251 -0.09522155
v -0.04804108 -0.04406723 -0.05053444
v -0.04875000 -0.00234082 -0.08791387
v -0.04855691 -0.04286658 -0.05047911
v -0.04875000 -0.00248245 -0.08942516
v -0.04875001 -0.02846977 -0.05003074
v -0.04874422 -0.00256030 -0.08996779
v -0.04829600 -0.04999306 -0.05641186
v -0.04875000 -0.00011882 -0.05328499
v -0.04817798 -0.03649914 -0.09998952
v -0.04875000 -0.00125851 -0.08841919
v -0.04850919 -0.00047465 -0.09650897
v -0.04545844 -0.04997633 -0.05519433
v -0.04875000 -0.00052595 -0.05043042
v -0.04875002 -0.03941061 -0.05723939
v -0.04875002 -0.04100204 -0.05032311
v -0.04308465 -0.04650249 -0.05011241
v -0.04872341 -0.04972099 -0.09094746
v -0.04875002 -0.03806981 -0.06043524
v -0.04875001 -0.04937465 -0.07307375
f 28 18 61
f 61 75 28
f 70 46 38
f 75 61 70
f 70 61 46
f 39 61 71
f 58 61 39
f 46 61 58
f 39 18 58
f 18 46 58
f 28 75 35
f 28 35 78
f 42 61 18
f 42 71 61
f 42 18 39
f 39 71 42
f 38 46 27
f 77 67 17
f 7 35 75
f 52 35 7
f 7 67 52
f 7 17 67
f 77 17 7
f 55 67 77
f 52 67 55
f 28 78 2
f 2 55 69
f 78 55 2
f 1 26 3
f 28 69 3
f 3 26 28
f 18 56 41
f 41 62 18
f 62 41 15
f 15 27 46
f 77 7 19
f 19 32 77
f 65 55 77
f 77 30 65
f 65 30 69
f 52 55 4
f 4 55 78
f 4 35 52
f 4 78 35
f 74 69 28
f 28 2 74
f 74 2 69
f 77 32 21
f 69 30 51
f 51 3 69
f 44 56 18
f 44 18 28
f 28 26 44
f 56 50 23
f 27 15 43
f 73 15 46
f 62 15 73
f 73 46 18
f 18 62 73
f 69 55 63
f 63 65 69
f 55 65 63
f 12 50 56
f 56 44 12
f 34 79 10
f 48 79 26
f 48 26 1
f 48 10 79
f 16 79 34
f 37 20 77
f 34 37 33
f 77 21 76
f 76 37 77
f 57 37 76
f 36 45 56
f 56 23 36
f 36 23 50
f 50 12 36
f 36 44 26
f 36 12 44
f 27 43 29
f 20 40 47
f 34 53 22
f 22 16 34
f 81 37 31
f 31 37 34
f 34 10 31
f 10 48 31
f 31 48 1
f 3 81 31
f 1 3 31
f 5 15 41
f 41 6 5
f 14 6 41
f 24 29 72
f 27 29 24
f 72 29 66
f 54 40 3
f 54 47 40
f 3 51 54
f 49 51 30
f 33 59 64
f 72 66 64
f 64 53 34
f 34 33 64
f 80 59 33
f 80 37 57
f 80 33 37
f 11 41 56
f 11 14 41
f 56 45 11
f 68 29 43
f 68 66 29
f 68 25 53
f 60 30 77
f 60 49 30
f 13 22 53
f 53 25 13
f 53 64 9
f 9 64 66
f 9 68 53
f 66 68 9
f 77 20 8
f 8 60 77
f 20 47 8
f 37 81 3
f 37 40 20
f 3 40 37
f 80 76 21
f 80 70 38
f 75 70 80
f 38 27 80
f 57 76 80
f 80 19 7
f 80 24 72
f 80 7 75
f 32 19 80
f 80 21 32
f 72 64 80
f 27 24 80
f 80 64 59
f 79 16 13
f 26 79 13
f 13 36 26
f 13 43 15
f 13 11 45
f 45 36 13
f 15 5 13
f 16 22 13
f 13 5 6
f 6 14 13
f 25 68 13
f 14 11 13
f 13 68 43
f 47 54 8
f 8 54 51
f 51 49 8
f 49 60 8

