# https://github.com/mikedh/trimesh
v 0.04579453 0.04605699 -0.03637890
v 0.00468159 0.04747846 -0.00273081
v 0.00009599 0.04799554 -0.02751149
v 0.04655128 0.04563474 -0.03810104
v 0.04869957 0.04218728 -0.04104623
v 0.04875000 0.00009616 -0.03980657
v 0.04851671 0.04300504 -0.03992807
v 0.00436000 0.04778558 -0.00325840
v 0.04875000 0.00076227 -0.03663615
v 0.00926880 0.04523241 -0.00126333
v 0.04862067 0.04260088 -0.04861495
v 0.04875000 0.00008581 -0.04135718
v 0.00835997 0.04673191 -0.00299578
v 0.04867989 0.04231749 -0.03823708
v 0.04757006 0.04470844 -0.04914287
v 0.04606571 0.04592650 -0.03860168
v 0.04849314 0.04307458 -0.04187498
v 0.04029897 0.01764261 -0.00003083
v 0.04783525 0.04438019 -0.03922549
v 0.00000668 0.04799802 -0.01281511
v 0.04399763 0.00014176 -0.00579138
v 0.04874341 0.04166204 -0.04930034
v 0.04800539 0.04411271 -0.04545410
v 0.04846079 0.04316190 -0.03998063
v 0.00870617 0.04479564 -0.00064064
v 0.04821337 0.04374451 -0.04430007
v 0.04837271 0.04338477 -0.04062848
v 0.04875000 0.00016007 -0.03681823
v 0.04718038 0.04513201 -0.04302242
v 0.04680353 0.04545372 -0.04361629
v 0.00494527 0.04763374 -0.00291912
v 0.04845680 0.04316685 -0.03736773
v 0.04875000 0.00497880 -0.03632311
v 0.00800000 0.04972346 -0.03481952
v 0.04614240 0.04587931 -0.03770998
v 0.00468055 0.04557061 -0.00082772
v 0.00423085 0.04483741 -0.00005274
v 0.04763721 0.04462119 -0.03633576
v 0.00611017 0.04735056 -0.00278322
v 0.04875000 0.00162129 -0.04994609
v 0.04629697 0.04547240 -0.03592953
v 0.00387971 0.04658369 -0.00174702
v 0.04671873 0.04552013 -0.04175677
v 0.04690353 0.04537007 -0.04391054
v 0.04806311 0.04400682 -0.03903755
v 0.04856025 0.04285937 -0.04010223
v 0.04875000 0.02889741 -0.04996604
v 0.04399424 0.00023194 -0.00190010
v 0.04816012 0.04383861 -0.04700919
v 0.04627107 0.04580984 -0.04949395
v 0.04852504 0.04297773 -0.04282630
v 0.04613843 0.04588944 -0.04662384
v 0.02248720 0.03781268 -0.00024727
v 0.00705803 0.04479977 -0.00035547
v 0.00356050 0.04595104 -0.00109253
v 0.04854397 0.04291371 -0.04371055
v 0.04864985 0.04242865 -0.04915430
v 0.00373862 0.04528361 -0.00044278
v 0.02743414 0.03439268 -0.00000801
v 0.03679995 0.04990833 -0.04991542
v 0.04873652 0.04169615 -0.03821511
v 0.04858882 0.04275419 -0.04467809
v 0.04662819 0.04558570 -0.04500619
v 0.00067196 0.04793849 -0.00296576
v 0.03624259 0.04936441 -0.03554553
v 0.04692105 0.04535267 -0.04195432
v 0.04875000 0.04102962 -0.03662676
v 0.04717066 0.04513490 -0.03760596
v 0.04319166 0.00659079 -0.00003688
v 0.04078842 0.01649881 -0.00010913
v 0.04806039 0.04401607 -0.04196354
v 0.04669099 0.04554093 -0.04323449
v 0.04384367 0.00317826 -0.00003177
v 0.03473474 0.02615692 -0.00003074
v 0.04875001 0.01931127 -0.04997474
v 0.04874911 0.04152020 -0.04876228
v 0.04767596 0.04457544 -0.04874442
v 0.04739700 0.04491214 -0.04396366
v 0.04595599 0.04598410 -0.04487391
v 0.04871095 0.04207824 -0.04852324
v 0.00001566 0.04799886 -0.02704216
v 0.00416156 0.04696962 -0.00215975
v 0.04705276 0.04525058 -0.04963928
v 0.04875001 0.03078710 -0.04680379
v 0.04654031 0.04564139 -0.04514404
v 0.00800000 0.04984417 -0.03315949
v 0.04874970 0.03983161 -0.03619971
v 0.00327069 0.04786209 -0.00325940
v 0.04483328 0.04637810 -0.04994386
v 0.04875000 0.00023516 -0.04967159
v 0.04334640 0.00613027 -0.00007777
v 0.04874847 0.04153593 -0.04259153
v 0.04793500 0.00223481 -0.02557582
v 0.04604881 0.04593724 -0.03968242
v 0.04385996 0.00285911 -0.00009611
v 0.04875000 0.04144192 -0.03782485
v 0.00845543 0.04752842 -0.03520000
v 0.04798762 0.00048415 -0.02603126
v 0.04875000 0.00225473 -0.03691518
v 0.03687156 0.04953048 -0.03983175
v 0.04780143 0.04442378 -0.04560129
v 0.04875000 0.03943992 -0.03625164
v 0.04873784 0.04180082 -0.04859446
v 0.04666673 0.04555814 -0.04553283
v 0.04860284 0.04268437 -0.04159866
v 0.00252666 0.04499702 -0.00009746
v 0.04828133 0.04361046 -0.04981113
v 0.04140709 0.01467512 -0.00015049
v 0.04807799 0.04398461 -0.04051756
v 0.03350865 0.04985583 -0.03520000
v 0.04840687 0.04329405 -0.03818113
v 0.04730682 0.04500864 -0.03712586
v 0.04641102 0.04571862 -0.03734824
v 0.04875002 0.03993713 -0.04992615
v 0.04399635 0.00017551 -0.02186022
v 0.00522750 0.04992542 -0.02776506
v 0.00022656 0.04798810 -0.00319116
v 0.04875001 0.04134508 -0.04379761
v 0.00544755 0.04598720 -0.00133819
v 0.04871244 0.04208684 -0.04472909
v 0.04875000 0.02187654 -0.03620494
v 0.03704027 0.02373527 -0.00019574
v 0.00091080 0.04975199 -0.02776506
v 0.04561428 0.04613180 -0.04798107
v 0.04850753 0.04303089 -0.04799897
v 0.00322058 0.04510945 -0.00023527
v 0.00018826 0.04723190 -0.00223914
v 0.04372587 0.00492173 -0.00040576
v 0.04397923 0.00053684 -0.00097505
v 0.04838988 0.04333773 -0.03866234
v 0.00976967 0.04419399 -0.00028639
v 0.00647162 0.04751899 -0.00307375
v 0.04869082 0.04225060 -0.03885643
v 0.01574159 0.04999652 -0.03520000
v 0.04301800 0.00710778 -0.00000401
v 0.00077273 0.04511968 -0.00015113
v 0.04863649 0.04253127 -0.04321348
v 0.00860248 0.04972998 -0.03520000
v 0.04866865 0.04237564 -0.03893202
v 0.04621436 0.04583625 -0.03721267
v 0.04734351 0.04497378 -0.04976802
v 0.00178313 0.04779902 -0.00287229
v 0.04869714 0.04220464 -0.03881277
v 0.04875000 0.02966465 -0.03621092
v 0.00711969 0.04698939 -0.00254984
v 0.04870252 0.04210288 -0.03635601
v 0.00868718 0.04509804 -0.00093395
v 0.04793226 0.04318017 -0.03571733
v 0.01655710 0.04009188 -0.00010315
v 0.04875000 0.03517799 -0.04994665
v 0.04851517 0.04301024 -0.04559830
v 0.04673006 0.04551170 -0.04531782
v 0.04875000 0.00008840 -0.04786108
v 0.04690478 0.04536963 -0.04439312
v 0.02395433 0.03688539 -0.00012721
v 0.04875000 0.00243829 -0.03640048
v 0.00572556 0.04553861 -0.00092528
v 0.04400184 0.00002955 -0.01456362
v 0.00259650 0.04755834 -0.00266530
v 0.00800000 0.04888043 -0.03502838
v 0.04873176 0.04189322 -0.04825173
v 0.04799385 0.00027178 -0.02670685
v 0.04875002 0.04098037 -0.04870627
f 123 81 20
f 90 115 3
f 3 115 81
f 81 123 3
f 122 38 59
f 160 60 97
f 90 3 97
f 97 3 160
f 65 132 1
f 138 60 160
f 110 132 65
f 18 59 135
f 38 122 18
f 129 48 98
f 95 73 136
f 129 95 136
f 136 48 129
f 136 21 48
f 158 21 136
f 136 115 158
f 81 115 136
f 90 97 40
f 40 97 60
f 114 90 40
f 60 75 40
f 40 75 114
f 65 1 100
f 100 1 60
f 100 110 65
f 60 110 100
f 59 38 41
f 38 1 41
f 34 138 160
f 160 3 34
f 34 3 123
f 134 110 60
f 74 122 59
f 59 18 74
f 74 18 122
f 84 90 114
f 107 22 114
f 93 95 129
f 129 98 93
f 93 73 95
f 108 18 135
f 13 1 132
f 89 75 60
f 89 107 114
f 141 107 89
f 60 50 89
f 112 1 38
f 60 1 124
f 124 50 60
f 141 89 83
f 83 89 50
f 155 41 1
f 59 41 155
f 110 134 116
f 110 116 117
f 117 116 123
f 117 123 20
f 158 115 153
f 153 115 90
f 90 84 153
f 48 21 162
f 21 28 162
f 162 98 48
f 162 28 98
f 87 93 98
f 73 93 87
f 73 128 91
f 38 18 148
f 135 59 37
f 37 73 135
f 114 75 47
f 75 89 47
f 78 112 38
f 141 112 78
f 1 112 113
f 104 83 50
f 1 16 94
f 1 13 53
f 53 155 1
f 13 10 53
f 131 155 53
f 53 10 131
f 86 34 123
f 123 116 86
f 138 34 86
f 86 116 134
f 60 138 86
f 86 134 60
f 132 110 8
f 22 107 57
f 107 11 57
f 57 80 22
f 107 24 125
f 125 11 107
f 156 33 98
f 158 153 12
f 12 153 84
f 135 73 69
f 73 91 69
f 69 108 135
f 69 91 108
f 18 108 70
f 114 22 76
f 54 37 131
f 149 155 131
f 131 37 149
f 59 155 149
f 149 37 59
f 150 89 114
f 114 47 150
f 150 47 89
f 1 113 140
f 140 113 16
f 16 113 52
f 52 94 16
f 4 50 52
f 52 113 4
f 50 124 52
f 63 104 50
f 4 113 68
f 68 113 112
f 110 117 88
f 88 8 110
f 117 64 88
f 15 107 141
f 15 77 107
f 141 78 15
f 101 77 15
f 15 78 38
f 27 24 107
f 38 45 19
f 19 15 38
f 101 15 19
f 107 77 23
f 23 77 101
f 101 19 23
f 23 19 45
f 6 21 158
f 158 12 6
f 6 28 21
f 84 28 6
f 6 12 84
f 98 33 121
f 121 87 98
f 121 144 87
f 87 144 102
f 102 67 87
f 114 76 163
f 145 13 132
f 145 10 13
f 37 54 36
f 35 16 1
f 1 140 35
f 35 140 16
f 79 52 124
f 94 52 79
f 79 124 1
f 1 94 79
f 85 50 4
f 4 63 85
f 85 63 50
f 29 68 112
f 83 68 29
f 29 112 141
f 141 83 29
f 83 104 152
f 152 30 83
f 83 30 154
f 132 8 31
f 8 88 31
f 31 88 64
f 127 64 117
f 127 117 20
f 136 126 127
f 127 126 64
f 20 81 127
f 81 136 127
f 26 27 107
f 38 148 146
f 108 91 146
f 146 91 128
f 146 70 108
f 146 128 73
f 146 148 18
f 18 70 146
f 73 87 146
f 87 67 146
f 11 125 62
f 9 99 156
f 98 28 9
f 9 156 98
f 84 99 9
f 9 28 84
f 120 80 5
f 120 161 80
f 103 161 61
f 103 61 92
f 22 80 103
f 80 161 103
f 147 145 54
f 131 10 147
f 10 145 147
f 106 126 136
f 37 126 106
f 106 136 73
f 73 37 106
f 58 126 37
f 30 152 43
f 4 68 43
f 43 68 66
f 66 30 43
f 44 30 66
f 44 154 30
f 39 145 132
f 132 31 39
f 82 159 42
f 157 36 54
f 107 23 49
f 49 26 107
f 45 26 109
f 27 26 130
f 45 111 130
f 130 26 45
f 14 146 143
f 143 120 5
f 161 120 143
f 61 146 96
f 96 146 67
f 92 61 96
f 96 76 92
f 11 62 137
f 105 62 46
f 46 62 56
f 17 125 24
f 24 7 17
f 46 7 32
f 14 46 32
f 32 7 24
f 32 146 14
f 38 146 32
f 32 45 38
f 32 111 45
f 25 54 131
f 131 147 25
f 25 147 54
f 55 58 42
f 126 58 55
f 42 159 55
f 64 126 55
f 72 152 104
f 72 43 152
f 104 63 72
f 72 63 4
f 4 43 72
f 2 82 36
f 31 159 2
f 159 82 2
f 71 49 23
f 26 49 71
f 71 109 26
f 133 143 5
f 14 143 133
f 118 163 76
f 76 96 118
f 139 14 11
f 11 137 139
f 139 46 14
f 139 105 46
f 51 7 46
f 46 56 51
f 64 55 142
f 142 55 159
f 142 31 64
f 142 159 31
f 36 157 119
f 119 2 36
f 151 51 56
f 151 62 125
f 151 56 62
f 7 51 151
f 125 17 151
f 151 17 7
f 92 76 103
f 103 76 22
f 66 68 44
f 44 68 83
f 83 154 44
f 82 58 37
f 37 36 82
f 42 58 82
f 61 161 143
f 143 146 61
f 27 130 32
f 24 27 32
f 32 130 111
f 45 109 71
f 71 23 45
f 11 14 133
f 133 57 11
f 5 80 133
f 80 57 133
f 118 84 114
f 118 102 144
f 118 99 84
f 114 163 118
f 118 121 33
f 156 99 118
f 33 156 118
f 144 121 118
f 67 102 118
f 118 96 67
f 62 105 139
f 139 137 62
f 145 39 119
f 54 145 119
f 119 39 31
f 119 157 54
f 31 2 119

