# https://github.com/mikedh/trimesh
v 0.05041667 0.00177065 -0.03325128
v 0.05074075 0.04825716 -0.03812453
v 0.05871411 0.00190627 -0.04985873
v 0.05475591 0.03743129 -0.04324372
v 0.05785728 0.02501993 -0.04988281
v 0.05240805 0.04643890 -0.04185289
v 0.05675463 0.02269981 -0.04450704
v 0.05841757 0.00015742 -0.04842610
v 0.05455451 0.03758987 -0.04262713
v 0.05060998 0.03925982 -0.03266661
v 0.05062796 0.01136153 -0.03040035
v 0.05143333 0.04228176 -0.03574894
v 0.05533129 0.03600449 -0.04446270
v 0.05309456 0.01618377 -0.03409578
v 0.05217981 0.04433388 -0.03919211
v 0.05421279 0.02535677 -0.03747958
v 0.05341426 0.03883033 -0.03956150
v 0.05402849 0.04156915 -0.04334762
v 0.05445308 0.00326575 -0.03646080
v 0.05745460 0.01768676 -0.04607182
v 0.05312968 0.01096317 -0.03393955
v 0.05462709 0.03396628 -0.04098548
v 0.05632261 0.02343521 -0.04318563
v 0.05321768 0.00002016 -0.03746109
v 0.05499271 0.00444628 -0.03769268
v 0.05833200 0.01409743 -0.04915872
v 0.05049713 0.04364749 -0.03415705
v 0.05444806 0.04566936 -0.04984483
v 0.05555581 0.00310144 -0.03905031
v 0.05042068 0.04129381 -0.03297124
v 0.05029190 0.04335841 -0.03356164
v 0.05092160 0.03931086 -0.03336241
v 0.05356612 0.03469914 -0.03808118
v 0.05152400 0.02763437 -0.03211642
v 0.05060505 0.04354169 -0.03435030
v 0.05336555 0.04059321 -0.04033260
v 0.05470902 0.01871832 -0.03775263
v 0.05548172 0.03915630 -0.04744935
v 0.05203968 0.00435420 -0.03191190
v 0.05020425 0.01719913 -0.03017751
v 0.05267215 0.00075723 -0.03301977
v 0.05328665 0.01528814 -0.03440192
v 0.05038043 0.02221537 -0.03044490
v 0.05427645 0.02786029 -0.03808939
v 0.05114753 0.04927945 -0.04849445
v 0.05475955 0.01653371 -0.03766160
v 0.05493365 0.04386583 -0.04985621
v 0.05805491 0.00973668 -0.04741193
v 0.05062427 0.01932160 -0.03053760
v 0.05178449 0.04686170 -0.04019340
v 0.05073270 0.01340589 -0.03050593
v 0.05453629 0.01180399 -0.03684594
v 0.05565803 0.02308427 -0.04096227
v 0.05781274 0.02079886 -0.04829884
v 0.05787930 0.02213504 -0.04898441
v 0.05480524 0.00011927 -0.03718133
v 0.05834102 0.01139281 -0.04879715
v 0.05796150 0.01200051 -0.04717309
v 0.05127503 0.04341228 -0.03599781
v 0.05378874 0.01508436 -0.03538061
v 0.05413354 0.03513749 -0.03995284
v 0.05517283 0.01188750 -0.03832803
v 0.05371335 0.04298959 -0.04338844
v 0.05153534 0.04920809 -0.04174962
v 0.05077237 0.03318560 -0.03156586
v 0.05002364 0.01288916 -0.02997182
v 0.05709335 0.01847071 -0.04485805
v 0.05059699 0.04505970 -0.03526174
v 0.05201372 0.04619921 -0.04031104
v 0.05092320 0.04984523 -0.04048118
v 0.05679783 0.02254889 -0.04463839
v 0.05335239 0.04518677 -0.04413383
v 0.05150046 0.02720133 -0.03202669
v 0.05586578 0.00802304 -0.04004565
v 0.05535720 0.00706779 -0.03864890
v 0.05171498 0.03312109 -0.03339742
v 0.05672549 0.02979415 -0.04677261
v 0.05499358 0.04246210 -0.04840119
v 0.05416662 0.03968984 -0.04254560
v 0.05586993 0.00922204 -0.04009659
v 0.05273899 0.04935721 -0.04706067
v 0.05550281 0.04063459 -0.04895581
v 0.05869067 0.00552969 -0.04998298
v 0.05278779 0.00114904 -0.03322878
v 0.05234726 0.02938241 -0.03396223
v 0.05090216 0.01049543 -0.03059799
v 0.05470592 0.01118186 -0.03719923
v 0.05177695 0.04832276 -0.04158720
v 0.05053489 0.04173932 -0.03339650
v 0.05188227 0.04519097 -0.03892363
v 0.05133485 0.01563556 -0.03105286
v 0.05189600 0.01282769 -0.03180350
v 0.05170840 0.04067785 -0.03567745
v 0.05232679 0.01167926 -0.03250808
v 0.05165572 0.04501779 -0.03807064
v 0.05522506 0.04107631 -0.04795496
v 0.05133287 0.01369770 -0.03099770
v 0.05254475 0.02423354 -0.03367849
v 0.05153784 0.02793832 -0.03218018
v 0.05367862 0.03452616 -0.03835283
v 0.05256108 0.03454638 -0.03553133
v 0.05102406 0.00526978 -0.03065692
v 0.05750880 0.01787301 -0.04631137
v 0.05685785 0.02008273 -0.04431800
v 0.05248961 0.01637957 -0.03300650
v 0.05678071 0.03048228 -0.04734489
v 0.05275260 0.02119512 -0.03381405
v 0.05567710 0.03566772 -0.04562063
v 0.05148094 0.02538057 -0.03183023
v 0.05426883 0.03577886 -0.04064462
v 0.05518804 0.03434008 -0.04306817
v 0.05300233 0.04401597 -0.04165042
v 0.05006213 0.00247532 -0.02993662
v 0.05620322 0.02766935 -0.04397302
v 0.05192468 0.00207430 -0.03169829
v 0.05423308 0.04266519 -0.04515472
v 0.05862635 0.00359027 -0.04955877
v 0.05330233 0.04488361 -0.04360255
v 0.05629058 0.01032786 -0.04130741
v 0.05466176 0.03890164 -0.04385492
v 0.05211753 0.04781457 -0.04230128
v 0.05192869 0.00351951 -0.03171595
v 0.05152686 0.02732881 -0.03208554
v 0.05024132 0.03770898 -0.03152460
v 0.05545065 0.00049977 -0.03871827
v 0.05410204 0.02736894 -0.03757223
v 0.05665364 0.02078560 -0.04376629
v 0.05016335 0.01578695 -0.03011822
v 0.05718385 0.00964774 -0.04412059
v 0.05526692 0.02451341 -0.04014797
v 0.05506364 0.01030461 -0.03797748
v 0.05010123 0.04845864 -0.03633624
v 0.05296572 0.02705565 -0.03485749
v 0.05785994 0.01633190 -0.04742931
v 0.05423979 0.02900926 -0.03823925
v 0.05395790 0.03483933 -0.03929918
v 0.05444250 0.02593440 -0.03815405
v 0.05303771 0.03538935 -0.03700451
v 0.05092839 0.01960102 -0.03077227
v 0.05013859 0.04686420 -0.03530639
v 0.05147762 0.01307773 -0.03115917
v 0.05171225 0.01652545 -0.03164527
v 0.05635109 0.02703411 -0.04429867
v 0.05088277 0.03520540 -0.03213242
v 0.05230863 0.04104938 -0.03743333
v 0.05284759 0.04074319 -0.03881763
v 0.05245070 0.03763037 -0.03633489
v 0.05618789 0.02376070 -0.04282340
v 0.05583339 0.01216848 -0.04012075
v 0.05325903 0.04817862 -0.04776438
v 0.05011209 0.01042883 -0.03324956
v 0.05245031 0.04235702 -0.03861304
v 0.05385197 0.01013108 -0.03527847
v 0.05475239 0.01330824 -0.03742051
v 0.05345164 0.04734460 -0.04740045
v 0.05741565 0.02980758 -0.04990253
v 0.05005044 0.04814813 -0.03597897
v 0.05121968 0.04558035 -0.03728147
v 0.05715015 0.00276582 -0.04373505
v 0.05059156 0.03245185 -0.03119535
v 0.05063137 0.04882983 -0.03833748
v 0.05649695 0.01113982 -0.04199416
v 0.05577078 0.03054560 -0.04346673
v 0.05735692 0.01552517 -0.04537701
v 0.05010577 0.04461944 -0.03373220
v 0.05348228 0.02921801 -0.03644319
v 0.05195995 0.04914381 -0.04338967
v 0.05164150 0.04839203 -0.04974077
v 0.05470971 0.00999698 -0.03718101
v 0.05256167 0.04525344 -0.04124656
v 0.05530640 0.00003319 -0.04698011
v 0.05437852 0.04163754 -0.04476043
v 0.05004975 0.04909373 -0.03677370
v 0.05692818 0.01897677 -0.04434007
v 0.05000758 0.01554952 -0.02999804
v 0.05209783 0.02967311 -0.03351756
v 0.05533408 0.00769851 -0.03860778
v 0.05782092 0.02216462 -0.04872347
v 0.05488059 0.01846578 -0.03816070
v 0.05420708 0.01497240 -0.03630475
v 0.05403055 0.03815978 -0.04114410
v 0.05228099 0.01174467 -0.03242758
v 0.05165618 0.04797934 -0.04085278
v 0.05723340 0.02698622 -0.04783253
v 0.05254101 0.04720921 -0.04327737
v 0.05547295 0.02872018 -0.04180558
v 0.05547601 0.03555392 -0.04472092
v 0.05865467 0.00660237 -0.04988697
v 0.05108713 0.01560091 -0.03080173
v 0.05022906 0.03599201 -0.03120939
v 0.05125626 0.04168648 -0.03499650
v 0.05043400 0.02244746 -0.03049204
v 0.05242214 0.01234051 -0.03270682
v 0.05558928 0.01422251 -0.04991449
v 0.05411887 0.03940888 -0.04218681
v 0.05495478 0.03262841 -0.04154426
v 0.05255002 0.01137276 -0.03290080
v 0.05303703 0.02869279 -0.03526167
v 0.05412807 0.00244989 -0.03571910
v 0.05619658 0.01077271 -0.04102759
v 0.05215702 0.03624643 -0.03512537
v 0.05562393 0.00057009 -0.04906703
v 0.05610613 0.00849122 -0.04070949
v 0.05418434 0.02326028 -0.03707035
v 0.05318479 0.04797276 -0.04705789
v 0.05256524 0.03374332 -0.03530976
v 0.05126805 0.03617670 -0.03316223
v 0.05517418 0.00152799 -0.03804595
v 0.05049935 0.02767212 -0.03074718
v 0.05745006 0.02314372 -0.04732222
v 0.05103596 0.00957597 -0.03069180
v 0.05438112 0.01775161 -0.03690471
v 0.05495147 0.03502218 -0.04253510
v 0.05572083 0.00243127 -0.04975028
v 0.05180833 0.04435342 -0.03804105
v 0.05591068 0.03007002 -0.04374978
v 0.05184418 0.04668143 -0.04021652
v 0.05469427 0.01822748 -0.03766172
v 0.05492297 0.00515050 -0.03755172
v 0.05277711 0.02869393 -0.03470057
v 0.05673461 0.01879627 -0.04364995
v 0.05004491 0.02707061 -0.03038168
v 0.05375339 0.04517852 -0.04585662
v 0.05361302 0.02591756 -0.03615518
v 0.05162423 0.04898320 -0.04177034
v 0.05136989 0.02976898 -0.03210742
v 0.05626017 0.00826482 -0.04113833
v 0.05401339 0.01721727 -0.03602373
v 0.05703275 0.00100314 -0.04329804
v 0.05386283 0.04694443 -0.04882345
v 0.05690862 0.02390958 -0.04541992
v 0.05755117 0.02381559 -0.04796435
v 0.05622855 0.03531274 -0.04769808
v 0.05106456 0.00426981 -0.03068260
v 0.05282661 0.02317551 -0.03411518
v 0.05625769 0.03452892 -0.04736028
v 0.05312119 0.02393430 -0.03475968
v 0.05392289 0.03007838 -0.03770808
v 0.05551365 0.02525947 -0.04101848
v 0.05140247 0.02285140 -0.03150351
v 0.05494558 0.04240979 -0.04810983
v 0.05269533 0.04850729 -0.04561894
v 0.05339668 0.02310631 -0.03522911
v 0.05352282 0.02274426 -0.03547236
v 0.05337769 0.04786343 -0.04784903
v 0.05273251 0.04620705 -0.04281091
v 0.05209948 0.01582692 -0.03227971
v 0.05740804 0.01155144 -0.04504936
v 0.05018157 0.03913248 -0.03177020
v 0.05406796 0.03632034 -0.04030066
v 0.05713070 0.01290051 -0.04416917
v 0.05362980 0.03374610 -0.03796907
v 0.05653584 0.02895761 -0.04570203
v 0.05160017 0.04175778 -0.03592451
v 0.05451703 0.02185903 -0.03767146
v 0.05490186 0.03591011 -0.04285854
v 0.05601601 0.00597772 -0.04038530
v 0.05181931 0.02002702 -0.03198627
v 0.05647108 0.00043278 -0.04152818
v 0.05657764 0.02264309 -0.04387363
v 0.05564393 0.03272707 -0.04396520
v 0.05580676 0.00482937 -0.03978123
v 0.05579073 0.01158108 -0.03996233
v 0.05126231 0.01639606 -0.03099128
v 0.05216803 0.03561624 -0.03494126
v 0.05378120 0.02719532 -0.03677346
v 0.05280319 0.04333500 -0.04041374
v 0.05490877 0.01400585 -0.03782241
v 0.05785260 0.01902654 -0.04798692
v 0.05718405 0.03138213 -0.04979573
v 0.05309535 0.04969157 -0.04960927
v 0.05835304 0.01795709 -0.04995782
v 0.05264363 0.03081786 -0.03484189
v 0.05259438 0.04554429 -0.04161588
v 0.05060451 0.03214473 -0.03117857
v 0.05473512 0.04047226 -0.04530355
v 0.05397316 0.04224144 -0.04371148
v 0.05211537 0.00834836 -0.03208368
v 0.05457392 0.00043812 -0.03667085
v 0.05628933 0.02826959 -0.04447710
v 0.05184037 0.02369340 -0.03232056
v 0.05325930 0.04741628 -0.04659314
v 0.05532212 0.04004515 -0.04747471
v 0.05419535 0.03477865 -0.03998170
v 0.05274393 0.04842353 -0.04571387
v 0.05002481 0.03021186 -0.03052444
v 0.05247388 0.03260352 -0.03485115
v 0.05071846 0.01926002 -0.03060568
v 0.05574446 0.02123002 -0.04097370
v 0.05161912 0.03124584 -0.03284072
v 0.05212746 0.01257378 -0.03218657
v 0.05122093 0.03933453 -0.03402304
v 0.05302185 0.02178108 -0.03436410
v 0.05155935 0.03090898 -0.03265865
v 0.05709846 0.02069899 -0.04537417
v 0.05127355 0.02220527 -0.03126520
v 0.05371751 0.04788737 -0.04970458
v 0.05612605 0.02852078 -0.04396010
v 0.05715915 0.01033920 -0.04407199
v 0.05812101 0.00250418 -0.04730237
v 0.05280329 0.04889583 -0.04660755
v 0.05263182 0.02127847 -0.03359565
v 0.05717763 0.02942530 -0.04861240
v 0.05426227 0.03235442 -0.03933507
v 0.05432349 0.02268398 -0.03731887
v 0.05843243 0.01438345 -0.04966345
v 0.05198278 0.01498837 -0.03203624
v 0.05348843 0.04228635 -0.04196403
v 0.05173190 0.00946002 -0.03144937
v 0.05054713 0.00442921 -0.03029843
v 0.05524594 0.04229720 -0.04944001
v 0.05737662 0.01883022 -0.04601996
v 0.05434604 0.02872295 -0.03847184
v 0.05759686 0.01539841 -0.04627734
v 0.05548003 0.00305051 -0.03885343
v 0.05860636 0.00174454 -0.04934686
v 0.05131935 0.01955166 -0.03115496
v 0.05666284 0.02351741 -0.04434024
v 0.05299562 0.03907470 -0.03840211
v 0.05142637 0.01193603 -0.03105598
v 0.05441443 0.03151378 -0.03950871
v 0.05437003 0.00467908 -0.03630677
v 0.05469318 0.03549979 -0.04189989
v 0.05046618 0.01513828 -0.03033158
v 0.05454705 0.03594386 -0.04165093
v 0.05585394 0.03130974 -0.04408439
v 0.05223321 0.03970821 -0.03661260
v 0.05566580 0.03540052 -0.04537887
v 0.05578711 0.02187610 -0.04118618
v 0.05209486 0.02465568 -0.03287411
v 0.05224014 0.02892207 -0.03368389
v 0.05582761 0.03202068 -0.04431153
v 0.05580239 0.02155623 -0.04118966
v 0.05144694 0.00258503 -0.03099543
v 0.05389248 0.04197885 -0.04318116
v 0.05302359 0.04263882 -0.04993015
v 0.05045512 0.02839279 -0.03074772
v 0.05784868 0.00102996 -0.04622511
v 0.05276590 0.04553761 -0.04221768
v 0.05083339 0.02293910 -0.03080504
v 0.05774850 0.01580897 -0.04691954
v 0.05407890 0.04211287 -0.04399631
v 0.05497375 0.03016183 -0.04069118
v 0.05115624 0.02570271 -0.03134928
v 0.05192129 0.02333408 -0.03244165
v 0.05208054 0.03355804 -0.03423512
v 0.05730547 0.01079709 -0.04462914
v 0.05592361 0.01553956 -0.04076860
v 0.05070737 0.04758925 -0.03736686
v 0.05734153 0.02039323 -0.04623938
v 0.05533249 0.02808408 -0.04116244
v 0.05797543 0.01855944 -0.04841309
v 0.05501174 0.00009403 -0.03764258
v 0.05348717 0.01984803 -0.03509570
v 0.05498118 0.02968931 -0.04056060
v 0.05491914 0.01701003 -0.03807066
v 0.05679174 0.02915364 -0.04679502
v 0.05394525 0.00076870 -0.03532736
v 0.05404255 0.00371425 -0.03555755
v 0.05724128 0.02350452 -0.04659410
v 0.05786865 0.02469155 -0.04979335
v 0.05215091 0.01952883 -0.03255564
v 0.05105840 0.04656539 -0.03755037
v 0.05763196 0.02768518 -0.04999953
v 0.05047895 0.01038765 -0.03028270
v 0.05181740 0.03925571 -0.03533585
v 0.05338571 0.03245540 -0.03701002
v 0.05364261 0.04450376 -0.04456535
v 0.05064688 0.03742487 -0.03218779
v 0.05633852 0.00051205 -0.04111748
v 0.05352268 0.02675781 -0.03607693
v 0.05539930 0.02478614 -0.04058062
v 0.05002688 0.02773255 -0.03039897
v 0.05044708 0.04290317 -0.03369879
v 0.05125380 0.00295129 -0.03082180
v 0.05765735 0.01540591 -0.04651029
v 0.05315634 0.03710989 -0.03798272
v 0.05284987 0.02951733 -0.03500738
v 0.05387346 0.01130272 -0.03535257
v 0.05294664 0.04220397 -0.04007660
v 0.05712661 0.01257876 -0.04412272
v 0.05143510 0.02088192 -0.03139996
v 0.05466161 0.02202905 -0.03803763
v 0.05007383 0.04875363 -0.04254968
v 0.05269950 0.02943749 -0.03468008
v 0.05229902 0.00261369 -0.03234861
v 0.05295877 0.02365765 -0.03440880
v 0.05768044 0.01992945 -0.04745850
v 0.05139419 0.04858924 -0.04058386
v 0.05491187 0.03389054 -0.04190257
v 0.05369652 0.01727199 -0.03531381
v 0.05384150 0.03880726 -0.04088947
v 0.05049788 0.02724787 -0.03072642
v 0.05506362 0.04104180 -0.04716730
v 0.05222071 0.01089755 -0.03230494
v 0.05796329 0.01786384 -0.04816896
v 0.05184496 0.04300356 -0.03726448
v 0.05145874 0.04314929 -0.03631742
v 0.05316721 0.02741517 -0.03535360
v 0.05175459 0.01585590 -0.03168901
v 0.05781305 0.02418747 -0.04932136
v 0.05283573 0.04219929 -0.03971765
v 0.05485449 0.02506343 -0.03911741
v 0.05153802 0.01671228 -0.03137062
v 0.05852897 0.01280111 -0.04981721
v 0.05359049 0.01063779 -0.03476549
v 0.05095018 0.04220425 -0.03452714
v 0.05507610 0.01032135 -0.03800930
v 0.05487942 0.03517889 -0.04235869
v 0.05166436 0.03528266 -0.03376022
v 0.05003135 0.03568418 -0.03093575
v 0.05289741 0.00043702 -0.03342685
v 0.05585223 0.00516465 -0.03991441
v 0.05535710 0.02062454 -0.04998280
v 0.05567988 0.02959536 -0.04278838
v 0.05037741 0.04227656 -0.03326958
v 0.05415170 0.01454432 -0.03615395
v 0.05651497 0.03273028 -0.04745636
v 0.05337708 0.01175109 -0.03440011
v 0.05060157 0.03399126 -0.03142318
v 0.05411891 0.03228441 -0.03890455
v 0.05613883 0.01553539 -0.04141090
v 0.05812987 0.01906130 -0.04925151
v 0.05143440 0.04766241 -0.03981544
v 0.05154385 0.03245524 -0.03291287
v 0.05670585 0.02258237 -0.04429459
v 0.05095485 0.03018414 -0.03145431
v 0.05237587 0.04217804 -0.03826942
v 0.05687156 0.01776351 -0.04393459
v 0.05515030 0.02701559 -0.04038330
v 0.05803491 0.01346403 -0.04771641
v 0.05309034 0.03654984 -0.03757880
v 0.05562679 0.02529389 -0.04138913
v 0.05119327 0.04857624 -0.03991416
v 0.05520771 0.04073727 -0.04754538
v 0.05125980 0.04894584 -0.04049731
v 0.05529683 0.00710743 -0.03848875
v 0.05462897 0.01261612 -0.03709926
v 0.05782201 0.02378751 -0.04920710
v 0.05847328 0.00036149 -0.04867800
v 0.05601516 0.02236321 -0.04196570
v 0.05428115 0.03539194 -0.04050394
v 0.05434380 0.03945147 -0.04304259
v 0.05183156 0.03746383 -0.03477721
v 0.05066755 0.01566785 -0.03049088
v 0.05131375 0.03145021 -0.03226521
v 0.05330139 0.01758423 -0.03454217
v 0.05618359 0.00148375 -0.04071107
v 0.05214068 0.03597105 -0.03499082
v 0.05715484 0.01708257 -0.04483314
v 0.05711534 0.03198702 -0.04985673
v 0.05030992 0.04601586 -0.03516140
v 0.05580289 0.02691107 -0.04239530
v 0.05490757 0.02604141 -0.03946556
v 0.05256960 0.01667878 -0.03316463
v 0.05470581 0.03490370 -0.04162100
v 0.05147704 0.04040250 -0.03494993
v 0.05652308 0.01226619 -0.04217166
v 0.05493562 0.03128445 -0.04096931
v 0.05281896 0.03892512 -0.03783708
v 0.05480776 0.03950174 -0.04487397
v 0.05437760 0.02853356 -0.03851845
v 0.05192393 0.03561629 -0.03441018
v 0.05054688 0.03637973 -0.03177460
v 0.05618499 0.02475122 -0.04307604
v 0.05135554 0.03135152 -0.03233093
v 0.05741397 0.02135270 -0.04675204
v 0.05707346 0.01547128 -0.04429868
v 0.05151674 0.02021042 -0.03147644
v 0.05001292 0.04375457 -0.03311929
v 0.05574503 0.02936287 -0.04291586
v 0.05136230 0.00044942 -0.03324941
v 0.05602289 0.03895312 -0.04996415
v 0.05372197 0.04776939 -0.04952024
v 0.05213626 0.04254253 -0.03779675
v 0.05807591 0.00760226 -0.04738217
v 0.05037864 0.04021491 -0.03247646
v 0.05564418 0.01484561 -0.03988458
v 0.05683999 0.03368394 -0.04964290
v 0.05113559 0.02212114 -0.03106845
v 0.05619633 0.03498474 -0.04735238
v 0.05077189 0.03692442 -0.03232064
v 0.05549646 0.00144554 -0.03885641
v 0.05327876 0.04925002 -0.04976090
v 0.05010684 0.04985758 -0.04444304
v 0.05170990 0.04421523 -0.03768611
v 0.05735571 0.02431836 -0.04729501
v 0.05295143 0.03869717 -0.03809930
v 0.05588417 0.01179607 -0.04022607
v 0.05528632 0.02493770 -0.04029162
v 0.05599325 0.02948006 -0.04379546
v 0.05581297 0.03699710 -0.04716911
v 0.05759155 0.01682398 -0.04646865
v 0.05286240 0.04215633 -0.03977290
v 0.05318144 0.00042262 -0.03394015
v 0.05533435 0.03100276 -0.04218061
v 0.05161682 0.02530445 -0.03204065
v 0.05531669 0.03208801 -0.04254742
v 0.05733945 0.01614057 -0.04540090
v 0.05795973 0.02080026 -0.04896453
v 0.05731118 0.00129035 -0.04425209
v 0.05428280 0.01921552 -0.03682733
v 0.05858560 0.01019946 -0.04982788
v 0.05596842 0.00267813 -0.04015449
v 0.05318324 0.03999958 -0.03944969
v 0.05726976 0.01800240 -0.04542738
v 0.05306999 0.03784184 -0.03805729
v 0.05741351 0.01216354 -0.04512540
v 0.05364329 0.04111190 -0.04159121
v 0.05319610 0.04562059 -0.04398094
v 0.05202488 0.04357808 -0.03811570
v 0.05345633 0.01819468 -0.03488105
v 0.05327641 0.04624983 -0.04512631
v 0.05376578 0.03996637 -0.04127156
v 0.05157732 0.00703223 -0.03120051
v 0.05022870 0.03799975 -0.03157399
v 0.05182832 0.01002660 -0.03161829
v 0.05157976 0.00345372 -0.03116837
v 0.05516180 0.01643124 -0.03869244
v 0.05026409 0.03219439 -0.03082190
v 0.05033976 0.03564518 -0.03131012
v 0.05130840 0.04859767 -0.04031149
v 0.05681014 0.01175906 -0.04301500
v 0.05380744 0.02993288 -0.03738287
v 0.05356025 0.02251603 -0.03553261
v 0.05140748 0.01170395 -0.03102815
v 0.05455484 0.04246475 -0.04633325
v 0.05025679 0.03112197 -0.03075151
v 0.05729802 0.02515448 -0.04736476
v 0.05033309 0.04815096 -0.03673965
v 0.05550659 0.03225536 -0.04327734
v 0.05082016 0.00632891 -0.03051189
v 0.05087085 0.02782494 -0.03109685
v 0.05383712 0.00544010 -0.03516911
v 0.05321405 0.02219169 -0.03475612
v 0.05263585 0.04906994 -0.04610639
v 0.05083930 0.03647056 -0.03234689
v 0.05001952 0.04147690 -0.03518416
v 0.05464295 0.02696194 -0.03892099
v 0.05395005 0.04288979 -0.04418995
v 0.05008067 0.04903027 -0.04301397
v 0.05297061 0.04984996 -0.04927865
v 0.05164469 0.00276055 -0.03125655
v 0.05110013 0.02944322 -0.03160151
v 0.05427566 0.04177883 -0.04446366
v 0.05299741 0.01534808 -0.03387859
v 0.05459776 0.01719487 -0.03734221
v 0.05379249 0.03728133 -0.03993604
v 0.05357112 0.01780490 -0.03508359
v 0.05076062 0.02877187 -0.03102937
v 0.05294848 0.03651982 -0.03719214
v 0.05150923 0.04432563 -0.03722134
v 0.05542428 0.01045337 -0.03894132
v 0.05255791 0.04032617 -0.03772293
f 175 470 538
f 538 384 175
f 470 384 538
f 45 1 485
f 202 1 45
f 3 202 214
f 485 1 151
f 113 151 1
f 485 151 113
f 113 541 485
f 175 384 113
f 384 541 113
f 173 70 485
f 485 541 173
f 173 384 470
f 173 541 384
f 485 70 542
f 542 45 485
f 440 202 3
f 440 8 202
f 412 113 472
f 472 113 1
f 214 414 194
f 364 272 83
f 83 414 364
f 83 194 414
f 3 214 83
f 214 194 83
f 202 45 168
f 168 214 202
f 470 411 249
f 175 113 66
f 175 66 324
f 189 211 526
f 81 542 70
f 316 440 3
f 45 542 271
f 271 168 45
f 271 484 168
f 542 81 271
f 81 484 271
f 336 414 214
f 214 168 336
f 364 414 336
f 336 473 364
f 28 473 336
f 336 484 28
f 168 484 336
f 259 353 8
f 370 353 259
f 412 472 24
f 470 249 477
f 477 249 369
f 365 66 113
f 526 211 375
f 375 334 526
f 113 334 375
f 43 222 175
f 66 365 11
f 175 324 445
f 324 189 445
f 445 128 175
f 286 470 175
f 286 411 470
f 479 473 233
f 233 451 479
f 479 451 473
f 70 173 436
f 272 361 439
f 356 53 179
f 372 53 239
f 53 372 130
f 130 372 490
f 454 130 490
f 83 503 188
f 28 484 297
f 412 24 56
f 56 24 353
f 171 24 472
f 171 1 202
f 171 472 1
f 202 8 171
f 8 353 171
f 353 24 171
f 174 429 450
f 125 353 370
f 227 200 370
f 489 200 348
f 348 519 478
f 369 124 464
f 464 124 420
f 369 249 516
f 516 124 369
f 516 249 411
f 411 124 516
f 190 124 411
f 310 365 113
f 113 375 310
f 222 43 192
f 51 324 66
f 66 11 51
f 51 189 324
f 51 11 189
f 86 365 211
f 86 11 365
f 211 189 86
f 189 11 86
f 420 190 160
f 160 190 411
f 411 286 520
f 520 160 411
f 275 160 520
f 337 286 373
f 175 222 373
f 373 286 175
f 139 480 340
f 222 192 340
f 139 189 264
f 550 520 337
f 275 520 550
f 550 340 480
f 526 334 518
f 364 473 156
f 473 451 156
f 276 283 394
f 394 96 527
f 352 396 272
f 388 103 396
f 388 350 103
f 210 487 360
f 433 351 239
f 239 53 433
f 53 148 433
f 332 328 187
f 233 328 481
f 457 554 93
f 554 488 319
f 109 73 544
f 53 130 383
f 255 37 383
f 383 179 53
f 356 179 383
f 383 37 356
f 466 226 294
f 466 446 226
f 230 297 474
f 28 297 230
f 474 150 230
f 230 150 245
f 83 188 117
f 412 56 495
f 495 56 358
f 478 519 149
f 489 348 149
f 149 348 478
f 149 519 356
f 483 504 29
f 263 200 489
f 200 227 229
f 370 259 229
f 229 227 370
f 229 259 8
f 200 523 458
f 458 348 200
f 458 523 429
f 470 416 374
f 30 477 457
f 470 477 30
f 30 416 470
f 65 464 420
f 226 446 65
f 420 160 65
f 420 124 521
f 521 190 420
f 124 190 521
f 139 43 288
f 43 49 288
f 288 189 139
f 528 286 337
f 337 520 528
f 528 520 286
f 222 340 393
f 317 480 139
f 139 264 317
f 97 189 526
f 97 264 189
f 275 550 427
f 427 160 275
f 427 65 160
f 544 226 427
f 226 65 427
f 526 518 515
f 515 518 309
f 41 113 412
f 41 334 113
f 334 41 115
f 362 258 247
f 281 258 362
f 447 362 455
f 455 362 247
f 303 156 106
f 303 357 184
f 270 451 233
f 233 156 270
f 270 156 451
f 161 436 173
f 70 436 64
f 436 225 64
f 64 81 70
f 394 283 435
f 435 96 394
f 435 283 473
f 473 96 435
f 473 311 82
f 82 96 473
f 311 96 82
f 172 276 394
f 394 527 172
f 120 276 172
f 461 276 120
f 461 187 328
f 276 461 492
f 185 246 510
f 241 527 96
f 450 429 468
f 450 468 164
f 396 352 269
f 269 388 396
f 467 388 210
f 350 388 467
f 318 360 231
f 231 360 487
f 465 453 351
f 318 453 465
f 114 453 318
f 351 453 186
f 272 439 55
f 55 500 272
f 423 352 272
f 272 500 423
f 54 500 232
f 232 388 54
f 210 388 232
f 232 487 210
f 261 187 111
f 332 187 261
f 236 328 106
f 236 481 328
f 284 442 61
f 366 554 457
f 366 327 554
f 530 161 173
f 554 319 505
f 319 17 505
f 533 550 480
f 544 427 533
f 533 427 550
f 281 330 497
f 73 109 497
f 497 258 281
f 497 240 469
f 497 109 240
f 228 547 212
f 403 383 130
f 369 537 482
f 410 346 206
f 491 280 253
f 332 261 326
f 536 282 301
f 301 81 536
f 301 150 81
f 245 150 301
f 353 125 208
f 67 174 450
f 450 506 67
f 426 7 318
f 71 350 318
f 318 7 71
f 504 483 448
f 448 483 125
f 448 125 370
f 370 200 448
f 29 504 262
f 504 413 262
f 257 413 504
f 200 263 80
f 129 523 159
f 159 501 129
f 159 229 501
f 519 348 289
f 289 329 53
f 333 329 289
f 289 53 356
f 356 519 289
f 10 477 369
f 292 366 457
f 457 477 292
f 99 331 226
f 524 238 206
f 89 30 457
f 416 30 89
f 365 310 532
f 234 310 375
f 40 445 189
f 189 288 40
f 128 445 40
f 40 288 49
f 175 128 40
f 40 43 175
f 40 49 43
f 340 550 209
f 209 393 340
f 209 550 337
f 141 317 320
f 309 141 320
f 526 515 320
f 320 515 309
f 404 317 141
f 469 317 404
f 309 518 543
f 543 518 334
f 334 115 543
f 386 115 41
f 42 419 447
f 105 455 247
f 419 455 105
f 447 419 379
f 419 406 379
f 395 182 291
f 419 182 197
f 395 278 197
f 5 303 361
f 156 303 5
f 364 156 5
f 5 272 364
f 5 361 272
f 77 303 106
f 357 303 77
f 77 253 357
f 77 328 332
f 106 328 77
f 332 326 77
f 491 253 77
f 77 326 491
f 167 225 536
f 167 64 225
f 536 81 167
f 81 64 167
f 116 172 527
f 283 276 38
f 276 492 38
f 38 492 233
f 233 473 38
f 473 283 38
f 108 328 233
f 233 492 108
f 108 461 328
f 108 492 461
f 527 241 223
f 285 282 536
f 246 185 121
f 78 96 311
f 78 241 96
f 78 223 241
f 429 523 251
f 251 468 429
f 103 506 20
f 20 506 450
f 314 164 58
f 440 316 48
f 8 440 48
f 143 114 318
f 318 231 143
f 487 280 143
f 143 231 487
f 500 55 178
f 178 232 500
f 401 232 439
f 401 439 361
f 184 232 401
f 401 303 184
f 361 303 401
f 529 232 184
f 487 232 529
f 184 357 529
f 357 253 529
f 529 280 487
f 529 253 280
f 111 187 213
f 187 409 213
f 418 236 106
f 418 156 233
f 106 156 418
f 233 481 418
f 481 236 418
f 101 265 206
f 206 33 101
f 252 33 206
f 327 366 147
f 284 33 100
f 100 33 304
f 284 61 136
f 136 33 284
f 432 33 377
f 436 161 2
f 157 173 470
f 548 17 319
f 146 505 36
f 554 505 146
f 146 428 554
f 382 317 469
f 480 317 382
f 469 240 382
f 240 109 344
f 344 382 240
f 344 109 544
f 544 533 344
f 354 512 549
f 549 512 447
f 447 379 549
f 502 525 354
f 126 44 198
f 126 16 44
f 137 16 383
f 44 16 137
f 383 403 137
f 290 425 446
f 425 290 385
f 385 290 294
f 346 410 144
f 144 410 537
f 446 425 144
f 144 65 446
f 464 65 144
f 369 464 144
f 144 537 369
f 463 10 369
f 265 10 463
f 206 265 463
f 463 410 206
f 369 482 207
f 207 463 369
f 410 463 207
f 186 471 343
f 28 230 155
f 155 223 28
f 282 223 155
f 315 483 29
f 29 437 315
f 23 465 148
f 318 465 23
f 23 148 53
f 53 441 23
f 350 71 295
f 200 413 203
f 413 257 203
f 74 413 200
f 200 80 74
f 162 523 200
f 162 159 523
f 200 229 119
f 229 159 119
f 119 162 200
f 159 162 119
f 348 458 422
f 422 458 429
f 422 289 348
f 333 289 422
f 366 292 444
f 477 10 32
f 32 292 477
f 10 444 32
f 32 444 292
f 34 99 226
f 34 226 544
f 354 525 244
f 244 243 354
f 198 44 166
f 238 524 135
f 44 313 135
f 524 166 135
f 135 166 44
f 135 252 238
f 33 252 135
f 310 234 102
f 102 532 310
f 365 532 102
f 211 365 102
f 102 375 211
f 102 234 375
f 91 317 264
f 91 320 317
f 264 97 91
f 469 404 142
f 115 386 39
f 39 386 278
f 39 278 309
f 534 386 358
f 406 386 534
f 358 359 534
f 84 495 358
f 358 386 84
f 84 386 41
f 447 455 14
f 14 42 447
f 546 455 419
f 419 42 546
f 193 182 419
f 193 291 182
f 92 141 309
f 92 404 141
f 400 142 92
f 92 142 404
f 94 182 395
f 395 197 94
f 94 197 182
f 21 386 406
f 21 406 419
f 419 197 21
f 278 386 21
f 21 197 278
f 183 389 424
f 424 50 183
f 545 116 540
f 172 116 545
f 120 172 545
f 545 18 120
f 308 267 509
f 510 118 72
f 339 6 274
f 246 6 339
f 339 118 510
f 510 246 339
f 242 285 536
f 185 285 242
f 513 285 185
f 513 185 510
f 510 223 513
f 513 223 282
f 88 6 246
f 246 121 88
f 88 121 225
f 88 389 183
f 88 225 436
f 436 389 88
f 47 78 311
f 47 473 28
f 47 311 473
f 28 223 47
f 223 78 47
f 468 251 508
f 508 248 58
f 299 523 129
f 396 103 134
f 134 341 58
f 103 20 134
f 431 134 58
f 57 188 503
f 58 48 57
f 57 117 188
f 57 48 316
f 316 117 57
f 58 341 376
f 376 314 58
f 450 164 499
f 164 314 499
f 8 48 476
f 476 48 58
f 58 248 476
f 298 471 186
f 491 471 298
f 114 143 298
f 298 280 491
f 298 143 280
f 256 409 187
f 206 238 367
f 367 252 206
f 238 252 367
f 551 33 432
f 551 147 33
f 327 147 551
f 138 101 33
f 33 147 138
f 507 377 33
f 507 488 554
f 436 2 434
f 132 530 173
f 173 157 132
f 165 157 470
f 254 93 554
f 554 12 254
f 457 93 191
f 93 254 191
f 191 254 12
f 112 267 308
f 308 335 112
f 112 335 63
f 112 339 274
f 112 63 540
f 540 118 112
f 118 339 112
f 402 267 511
f 530 132 363
f 363 132 157
f 511 267 15
f 15 95 511
f 110 548 250
f 250 548 319
f 296 533 480
f 480 382 296
f 296 344 533
f 382 344 296
f 293 302 107
f 107 302 362
f 281 362 345
f 362 302 345
f 228 212 391
f 525 502 218
f 218 547 356
f 356 37 218
f 218 502 212
f 218 212 547
f 539 454 490
f 351 313 430
f 239 351 430
f 266 126 198
f 287 378 206
f 206 346 287
f 331 99 220
f 198 378 220
f 378 385 220
f 346 144 76
f 76 144 425
f 456 213 409
f 409 323 456
f 110 442 456
f 459 471 415
f 459 343 471
f 415 496 459
f 459 496 196
f 351 186 355
f 186 343 355
f 355 313 351
f 355 135 313
f 355 343 304
f 205 301 282
f 282 155 205
f 75 437 29
f 75 177 437
f 260 426 318
f 318 23 260
f 103 350 312
f 350 295 312
f 449 10 265
f 449 444 10
f 366 444 449
f 449 201 366
f 101 201 449
f 265 101 449
f 544 73 123
f 123 34 544
f 73 497 123
f 123 497 330
f 99 34 387
f 387 237 99
f 371 266 198
f 243 244 204
f 383 16 204
f 16 371 204
f 304 33 421
f 33 135 421
f 307 291 247
f 247 258 307
f 307 142 400
f 307 258 469
f 469 142 307
f 400 92 307
f 307 92 291
f 122 39 309
f 115 39 122
f 309 543 122
f 122 543 115
f 153 534 359
f 153 379 406
f 406 534 153
f 199 359 358
f 322 199 19
f 517 92 309
f 291 92 517
f 395 291 517
f 309 278 517
f 517 278 395
f 63 335 277
f 342 335 18
f 18 545 342
f 342 277 335
f 342 545 540
f 120 18 443
f 368 116 527
f 527 223 368
f 540 116 368
f 368 118 540
f 368 72 118
f 381 299 248
f 381 508 251
f 248 508 381
f 381 251 523
f 523 299 381
f 341 134 493
f 493 134 20
f 26 306 396
f 396 134 26
f 8 476 300
f 300 476 248
f 13 256 187
f 4 256 13
f 120 4 13
f 13 461 120
f 187 461 13
f 325 181 110
f 110 456 325
f 325 456 323
f 392 548 110
f 110 181 392
f 514 509 36
f 36 392 514
f 514 392 181
f 460 507 554
f 377 507 460
f 522 389 436
f 436 434 522
f 470 374 31
f 145 12 554
f 475 428 511
f 511 397 475
f 554 428 475
f 475 145 554
f 12 397 398
f 398 397 511
f 407 374 416
f 511 428 152
f 152 402 511
f 152 146 36
f 428 146 152
f 380 509 267
f 36 509 380
f 530 363 349
f 161 530 349
f 349 2 161
f 50 424 349
f 60 391 549
f 60 549 379
f 379 52 60
f 44 539 462
f 462 313 44
f 462 539 490
f 273 385 378
f 378 287 273
f 85 385 294
f 85 220 385
f 99 237 133
f 133 220 99
f 133 237 243
f 198 220 133
f 491 326 216
f 498 390 196
f 22 442 284
f 22 456 442
f 22 459 196
f 390 456 22
f 196 390 22
f 429 174 221
f 221 441 53
f 53 329 221
f 221 329 333
f 221 422 429
f 333 422 221
f 34 123 98
f 98 387 34
f 98 123 330
f 399 371 198
f 198 133 399
f 399 133 243
f 305 204 244
f 255 383 305
f 383 204 305
f 224 204 371
f 371 399 224
f 321 355 304
f 304 421 321
f 19 199 279
f 358 56 279
f 279 199 358
f 228 391 180
f 438 154 180
f 169 322 19
f 306 26 405
f 405 57 503
f 272 306 405
f 405 431 58
f 58 57 405
f 405 83 272
f 405 503 83
f 8 300 338
f 338 229 8
f 501 229 338
f 129 501 338
f 338 300 129
f 129 300 347
f 347 300 248
f 347 299 129
f 248 299 347
f 195 514 4
f 9 256 4
f 4 514 9
f 157 165 140
f 140 452 157
f 165 452 140
f 158 363 157
f 157 452 158
f 95 363 158
f 486 398 511
f 374 407 35
f 35 31 374
f 35 407 191
f 35 191 12
f 12 398 35
f 398 59 35
f 494 152 36
f 402 152 494
f 36 380 494
f 274 6 69
f 170 112 274
f 294 226 176
f 176 85 294
f 531 216 326
f 390 216 531
f 163 216 390
f 390 498 163
f 104 221 174
f 426 260 104
f 387 98 535
f 535 512 354
f 535 302 293
f 354 243 535
f 243 237 535
f 237 387 535
f 438 180 417
f 391 60 417
f 417 180 391
f 356 547 46
f 46 268 356
f 356 268 62
f 553 263 62
f 62 263 489
f 18 509 79
f 79 443 18
f 509 514 79
f 514 195 79
f 95 158 68
f 68 158 452
f 68 452 165
f 165 35 68
f 68 35 59
f 511 95 215
f 215 486 511
f 552 59 398
f 398 486 552
f 552 68 59
f 27 165 470
f 27 35 165
f 470 31 27
f 31 35 27
f 50 349 217
f 349 69 217
f 90 69 349
f 90 349 363
f 274 69 90
f 90 363 95
f 95 15 90
f 90 15 267
f 267 112 90
f 112 170 90
f 127 104 260
f 221 104 127
f 235 98 330
f 235 535 98
f 302 535 235
f 553 62 408
f 408 177 553
f 437 177 408
f 131 25 353
f 353 208 131
f 219 25 131
f 131 19 219
f 131 169 19
f 131 268 154
f 131 62 268
f 131 408 62
f 169 131 87
f 87 52 379
f 438 52 87
f 87 154 438
f 87 131 154
f 340 192 43
f 340 43 139
f 150 484 81
f 474 297 150
f 150 297 484
f 117 316 3
f 3 83 117
f 318 350 467
f 210 360 467
f 467 360 318
f 465 433 148
f 351 433 465
f 423 500 54
f 54 388 423
f 423 269 352
f 388 269 423
f 469 258 497
f 337 373 209
f 209 373 222
f 222 393 209
f 272 396 306
f 439 232 178
f 178 55 439
f 290 466 294
f 446 466 290
f 537 410 207
f 207 482 537
f 203 448 200
f 504 448 203
f 203 257 504
f 166 378 198
f 206 378 166
f 166 524 206
f 526 320 91
f 91 97 526
f 84 41 412
f 412 495 84
f 42 14 546
f 546 14 455
f 419 105 193
f 193 105 247
f 247 291 193
f 18 335 509
f 509 335 308
f 225 121 242
f 536 225 242
f 242 121 185
f 282 285 513
f 508 164 468
f 58 164 508
f 298 186 453
f 453 114 298
f 366 201 138
f 138 147 366
f 138 201 101
f 250 442 110
f 488 507 250
f 250 136 61
f 250 319 488
f 250 61 442
f 33 136 250
f 250 507 33
f 391 502 354
f 354 549 391
f 212 502 391
f 130 454 539
f 539 137 403
f 539 403 130
f 44 137 539
f 245 301 205
f 205 230 245
f 205 155 230
f 75 263 553
f 75 80 263
f 29 262 75
f 75 262 413
f 413 74 75
f 553 177 75
f 75 74 80
f 126 266 371
f 16 126 371
f 63 277 342
f 540 63 342
f 510 72 368
f 368 223 510
f 450 499 493
f 493 20 450
f 493 376 341
f 314 376 493
f 493 499 314
f 392 505 17
f 36 505 392
f 17 548 392
f 554 327 460
f 327 551 460
f 460 551 432
f 432 377 460
f 12 145 475
f 475 397 12
f 457 191 407
f 407 89 457
f 416 89 407
f 349 424 389
f 389 522 349
f 349 434 2
f 349 522 434
f 462 430 313
f 462 372 239
f 490 372 462
f 239 430 462
f 425 385 273
f 273 287 346
f 346 76 273
f 273 76 425
f 22 100 304
f 284 100 22
f 304 343 22
f 343 459 22
f 305 218 37
f 525 218 305
f 305 37 255
f 305 244 525
f 243 204 224
f 224 399 243
f 321 421 135
f 135 355 321
f 353 25 279
f 279 56 353
f 279 25 219
f 219 19 279
f 134 431 405
f 405 26 134
f 409 256 9
f 9 323 409
f 9 325 323
f 181 325 9
f 9 514 181
f 494 380 267
f 267 402 494
f 331 220 176
f 226 331 176
f 220 85 176
f 531 261 111
f 531 326 261
f 213 456 531
f 111 213 531
f 531 456 390
f 163 496 415
f 163 471 491
f 415 471 163
f 491 216 163
f 196 496 163
f 163 498 196
f 174 67 104
f 104 506 103
f 103 312 104
f 104 67 506
f 7 426 104
f 104 71 7
f 104 295 71
f 104 312 295
f 535 362 447
f 293 107 535
f 447 512 535
f 535 107 362
f 417 60 52
f 417 52 438
f 228 180 46
f 46 547 228
f 46 180 154
f 154 268 46
f 62 149 356
f 489 149 62
f 120 443 79
f 79 4 120
f 79 195 4
f 552 215 95
f 95 68 552
f 486 215 552
f 217 88 183
f 183 50 217
f 217 69 6
f 6 88 217
f 90 170 274
f 127 260 23
f 127 23 441
f 441 221 127
f 281 345 235
f 235 330 281
f 235 345 302
f 125 483 131
f 483 315 131
f 131 208 125
f 131 315 437
f 437 408 131
f 359 199 87
f 87 153 359
f 199 322 87
f 379 153 87
f 322 169 87

