# https://github.com/mikedh/trimesh
v 0.03235221 -0.05496158 -0.04412069
v 0.03205680 -0.05498915 -0.04954555
v 0.00026667 -0.05093192 -0.02776506
v 0.03259118 -0.05493316 -0.04890105
v 0.03077927 -0.05500248 -0.04982674
v 0.03523931 -0.05357580 -0.03792606
v 0.03667371 -0.05092787 -0.04780424
v 0.03651151 -0.05156174 -0.04944541
v 0.03579009 -0.05296098 -0.04858101
v 0.02211491 -0.05002056 -0.03520000
v 0.03294501 -0.05484936 -0.04160947
v 0.00986005 -0.05018062 -0.03520000
v 0.03678275 -0.05009139 -0.04321012
v 0.03200036 -0.05009140 -0.03520000
v 0.03259779 -0.05493229 -0.04382563
v 0.03220526 -0.05497930 -0.04894379
v 0.03604592 -0.05094905 -0.03558905
v 0.03591810 -0.05276971 -0.03712803
v 0.00019727 -0.05254729 -0.03520000
v 0.03607863 -0.05250776 -0.03700993
v 0.03176812 -0.05500229 -0.04014516
v 0.03626670 -0.05214350 -0.03706498
v 0.00114470 -0.05476197 -0.03595949
v 0.03667275 -0.05092564 -0.04283056
v 0.03650894 -0.05152613 -0.03742761
v 0.03667052 -0.05089872 -0.03741165
v 0.03560665 -0.05173090 -0.03541476
v 0.03550858 -0.05331426 -0.04473557
v 0.03403577 -0.05445209 -0.04272604
v 0.03674684 -0.05035367 -0.03709383
v 0.00667026 -0.05038608 -0.02776506
v 0.03601190 -0.05263767 -0.04254788
v 0.03443566 -0.05422037 -0.04440719
v 0.03395322 -0.05448596 -0.04017495
v 0.03191053 -0.05499581 -0.04926888
v 0.03638040 -0.05192191 -0.04273442
v 0.03197407 -0.05499292 -0.04427423
v 0.03535443 -0.05347580 -0.04483776
v 0.00546691 -0.05066247 -0.02776506
v 0.03639359 -0.05188815 -0.04221352
v 0.01782442 -0.05500248 -0.04996203
v 0.03639943 -0.05187231 -0.04383186
v 0.00061682 -0.05500248 -0.03729040
v 0.03549940 -0.05332543 -0.04774154
v 0.03265389 -0.05492050 -0.04214772
v 0.03183029 -0.05499946 -0.04910088
v 0.03608700 -0.05250179 -0.04126097
v 0.00661876 -0.05064194 -0.02785188
v 0.03621555 -0.05226546 -0.04655062
v 0.00115399 -0.05002810 -0.02776506
v 0.03496650 -0.05383769 -0.04327407
v 0.00032058 -0.05098481 -0.02776506
v 0.03667853 -0.05090212 -0.04960239
v 0.03167484 -0.05498217 -0.03617970
v 0.00446595 -0.05500248 -0.03633218
v 0.03623526 -0.05107856 -0.03580268
v 0.03165012 -0.05500248 -0.04823620
v 0.03598616 -0.05267898 -0.03884169
v 0.00064564 -0.05500248 -0.04973041
v 0.03362826 -0.05463674 -0.04834086
v 0.00299623 -0.05500248 -0.03654337
v 0.03285361 -0.05487731 -0.04684032
v 0.03418436 -0.05437750 -0.04933840
v 0.03270259 -0.05490997 -0.04537372
v 0.03212612 -0.05498164 -0.04501507
v 0.00033013 -0.05500248 -0.04615658
v 0.03278753 -0.05488619 -0.03827135
v 0.03666397 -0.05097986 -0.04595543
v 0.03303203 -0.05480389 -0.03618391
v 0.03374271 -0.05458480 -0.04398505
v 0.03546207 -0.05336503 -0.04237055
v 0.03171841 -0.05500248 -0.03653507
v 0.01327152 -0.05498499 -0.03618251
v 0.03361159 -0.05464202 -0.04275680
v 0.00026125 -0.05051010 -0.02776506
v 0.03662968 -0.05114690 -0.04259808
v 0.03237930 -0.05495355 -0.03891628
v 0.03632570 -0.05203406 -0.03908028
v 0.03662028 -0.05118006 -0.03846486
v 0.03210439 -0.05497671 -0.03889024
v 0.03437380 -0.05425307 -0.03790474
v 0.00663069 -0.05027712 -0.02776506
v 0.03626785 -0.05105824 -0.03582919
v 0.03618359 -0.05232877 -0.04712741
v 0.03658584 -0.05130618 -0.04637632
v 0.03593819 -0.05274559 -0.03853776
v 0.00214776 -0.05101055 -0.03369128
v 0.03569289 -0.05308825 -0.04750565
v 0.03244091 -0.05409570 -0.03536210
v 0.03299545 -0.05483493 -0.04037088
v 0.03381756 -0.05454619 -0.03976634
v 0.00802787 -0.05500248 -0.03627995
v 0.03530784 -0.05352358 -0.04620517
v 0.03434490 -0.05427951 -0.04499626
v 0.03575851 -0.05298255 -0.03748035
v 0.03604900 -0.05257292 -0.04687331
v 0.03569092 -0.05196847 -0.03560515
v 0.03535920 -0.05346621 -0.04043365
v 0.00006639 -0.05500248 -0.03850339
v 0.03597098 -0.05270100 -0.04495235
v 0.03471797 -0.05403124 -0.04844254
v 0.03591404 -0.05278360 -0.04842172
v 0.03673871 -0.05045256 -0.04390928
v 0.03665010 -0.05105387 -0.04212985
v 0.03676769 -0.05019838 -0.04782629
v 0.03589668 -0.05280878 -0.04346364
v 0.03420435 -0.05436529 -0.04927110
v 0.00344950 -0.05107671 -0.03520000
v 0.03338282 -0.05328385 -0.03520000
v 0.00543990 -0.05495548 -0.03615300
v 0.03677053 -0.05017823 -0.04726423
v 0.03645509 -0.05172110 -0.04983898
v 0.01746940 -0.05500248 -0.03634916
v 0.03211489 -0.05498047 -0.04309834
v 0.03318827 -0.05479139 -0.04852844
v 0.01677719 -0.05003303 -0.03520000
v 0.03669444 -0.05079760 -0.04614927
v 0.03575642 -0.05300672 -0.04909881
v 0.03633053 -0.05202635 -0.03976824
v 0.00800000 -0.05001903 -0.03209451
v 0.03474069 -0.05401033 -0.03980093
v 0.03676805 -0.05019588 -0.03690978
v 0.02751717 -0.05500248 -0.04987786
v 0.00025716 -0.05181330 -0.03520000
v 0.03354780 -0.05466892 -0.04168426
v 0.03455734 -0.05378681 -0.03591495
v 0.03637683 -0.05192957 -0.04901994
v 0.03496025 -0.05383795 -0.03673681
v 0.03645941 -0.05170936 -0.04860912
v 0.03561614 -0.05317550 -0.03946506
v 0.03601161 -0.05263818 -0.04768225
v 0.03593836 -0.05113822 -0.03553098
v 0.03637961 -0.05192359 -0.04780663
v 0.00279766 -0.05500248 -0.04996619
f 59 12 105
f 23 55 110
f 5 112 63
f 99 3 75
f 75 19 99
f 108 12 59
f 108 50 12
f 10 14 13
f 10 50 14
f 41 134 112
f 12 50 120
f 120 105 12
f 50 10 120
f 59 105 53
f 53 134 59
f 112 134 53
f 31 109 27
f 48 109 31
f 124 75 50
f 19 75 124
f 59 66 124
f 124 66 99
f 99 19 124
f 123 112 5
f 123 41 112
f 13 14 122
f 105 120 111
f 55 23 61
f 23 43 61
f 99 43 52
f 52 3 99
f 52 43 23
f 52 23 110
f 54 72 69
f 69 48 54
f 89 48 69
f 89 109 48
f 126 89 69
f 109 89 126
f 126 97 27
f 27 109 126
f 14 50 82
f 115 4 63
f 118 63 112
f 50 108 87
f 87 124 50
f 87 108 59
f 59 124 87
f 13 111 116
f 116 111 120
f 116 10 13
f 116 120 10
f 117 53 105
f 117 24 53
f 79 85 76
f 76 53 68
f 76 85 53
f 112 53 8
f 53 85 8
f 8 85 79
f 53 24 7
f 72 54 113
f 73 52 110
f 73 54 52
f 39 54 48
f 52 54 39
f 48 31 39
f 128 126 69
f 5 63 2
f 2 35 5
f 63 4 2
f 127 118 112
f 44 118 88
f 27 97 56
f 97 83 56
f 105 111 103
f 103 117 105
f 103 111 13
f 13 122 103
f 122 117 103
f 30 122 26
f 30 117 122
f 79 76 104
f 104 24 26
f 104 26 79
f 104 76 68
f 104 7 24
f 92 113 54
f 54 73 92
f 110 55 92
f 92 73 110
f 63 118 101
f 101 118 44
f 60 115 63
f 60 125 115
f 81 128 69
f 4 115 62
f 115 11 62
f 90 125 69
f 115 125 90
f 90 11 115
f 46 57 5
f 5 35 46
f 16 2 4
f 96 131 84
f 84 131 127
f 17 122 14
f 17 83 122
f 14 82 17
f 93 101 44
f 94 81 63
f 128 81 121
f 15 45 77
f 15 16 4
f 4 62 64
f 62 45 64
f 64 15 4
f 45 15 64
f 67 62 11
f 67 45 62
f 11 90 67
f 67 90 69
f 77 45 67
f 69 72 67
f 72 77 67
f 72 57 21
f 57 46 21
f 80 77 72
f 112 8 129
f 133 127 112
f 112 42 133
f 49 84 127
f 27 56 132
f 132 31 27
f 132 82 31
f 132 17 82
f 51 93 128
f 101 93 51
f 128 121 51
f 51 121 101
f 125 60 74
f 60 70 74
f 63 101 107
f 107 94 63
f 101 94 107
f 81 94 33
f 33 121 81
f 33 94 101
f 101 121 33
f 1 15 77
f 16 15 1
f 72 21 37
f 37 80 72
f 2 16 37
f 32 131 96
f 32 58 131
f 118 127 102
f 127 131 102
f 86 58 18
f 18 58 20
f 20 83 97
f 128 18 20
f 97 126 20
f 126 128 20
f 38 93 44
f 88 130 28
f 44 88 28
f 6 130 95
f 95 18 128
f 128 6 95
f 69 125 91
f 91 81 69
f 91 34 81
f 125 74 91
f 29 60 63
f 29 70 60
f 63 81 29
f 81 34 29
f 65 37 16
f 131 58 100
f 100 102 131
f 58 86 106
f 58 32 47
f 47 20 58
f 96 84 47
f 47 32 96
f 83 20 22
f 122 83 22
f 71 28 130
f 71 38 44
f 44 28 71
f 80 37 114
f 37 65 114
f 9 106 86
f 102 106 9
f 118 102 9
f 119 49 127
f 98 130 6
f 98 71 130
f 38 71 98
f 93 38 98
f 36 119 127
f 40 36 133
f 40 133 42
f 119 36 40
f 40 129 8
f 25 40 8
f 79 26 25
f 26 122 25
f 122 22 25
f 119 40 78
f 40 25 78
f 78 25 22
f 50 75 39
f 39 75 3
f 3 52 39
f 39 82 50
f 31 82 39
f 24 117 30
f 26 24 30
f 53 7 104
f 68 53 104
f 5 57 92
f 55 61 92
f 99 66 92
f 92 43 99
f 92 66 59
f 59 134 92
f 134 41 92
f 92 123 5
f 41 123 92
f 92 61 43
f 72 113 92
f 92 57 72
f 83 17 132
f 132 56 83
f 37 46 35
f 35 2 37
f 37 21 46
f 29 91 74
f 29 74 70
f 34 91 29
f 106 100 58
f 102 100 106
f 114 1 77
f 77 80 114
f 16 1 114
f 114 65 16
f 9 130 88
f 9 88 118
f 18 95 9
f 9 86 18
f 9 95 130
f 98 6 128
f 128 93 98
f 127 133 36
f 112 129 40
f 40 42 112
f 25 8 79
f 78 47 84
f 84 49 78
f 20 47 78
f 78 22 20
f 49 119 78

