# https://github.com/mikedh/trimesh
v -0.04971998 -0.05564950 -0.05124505
v -0.04877702 -0.05791850 -0.05363072
v -0.03309885 -0.06616903 -0.05583106
v -0.03109647 -0.06607632 -0.05094202
v -0.03717871 -0.06480206 -0.05140559
v -0.04938881 -0.05945727 -0.06289128
v -0.03735261 -0.06476660 -0.05152506
v -0.02865340 -0.06705852 -0.05833341
v -0.04318618 -0.06370437 -0.06071254
v -0.04747180 -0.06065198 -0.05870302
v -0.03743584 -0.06545291 -0.05907692
v -0.04991056 -0.05808793 -0.06019266
v -0.04741859 -0.05910485 -0.05174348
v -0.02227614 -0.06734853 -0.05397854
v -0.03125028 -0.06677558 -0.06004014
v -0.02481225 -0.06730526 -0.05595715
v -0.03043980 -0.06598229 -0.06221445
v -0.04841183 -0.05834682 -0.05339087
v -0.04893413 -0.05339998 -0.05027385
v -0.04956560 -0.05000822 -0.08613149
v -0.04793875 -0.05828315 -0.05099615
v -0.01514354 -0.06755499 -0.05212611
v -0.01476715 -0.06751568 -0.05156425
v -0.04466775 -0.06248048 -0.05756465
v -0.02570324 -0.06671342 -0.05025442
v -0.03727363 -0.06544411 -0.05846441
v -0.02471281 -0.06733661 -0.05631346
v -0.04986601 -0.05752334 -0.05777406
v -0.02860960 -0.06652256 -0.05156515
v -0.02546620 -0.06719182 -0.05529131
v -0.03547163 -0.06535595 -0.05226785
v -0.04879509 -0.05759005 -0.05261071
v -0.04060243 -0.06479181 -0.06188165
v -0.00556829 -0.06760830 -0.05032627
v -0.03933706 -0.06404275 -0.05086985
v -0.03951767 -0.06498301 -0.06023184
v -0.04725598 -0.06007005 -0.05517679
v -0.04097146 -0.06420039 -0.05740336
v -0.03252541 -0.06624291 -0.05546905
v -0.03778625 -0.06554868 -0.06146935
v -0.03166963 -0.06664079 -0.06137821
v -0.00096651 -0.06504872 -0.05034114
v -0.03373267 -0.06588412 -0.05388307
v -0.03432304 -0.06621919 -0.05994048
v -0.04055004 -0.06432246 -0.05714010
v -0.04878048 -0.05001646 -0.08583959
v -0.02150288 -0.06744137 -0.05445291
v -0.03756603 -0.06513077 -0.05576798
v -0.04001458 -0.06372264 -0.05029842
v -0.04994527 -0.05159386 -0.08189351
v -0.04444953 -0.06329275 -0.06219371
v -0.03267529 -0.06615388 -0.05454738
v -0.03610600 -0.06570700 -0.05805458
v -0.02497765 -0.06690666 -0.05136860
v -0.04827402 -0.05453146 -0.05011296
v -0.04985941 -0.05610483 -0.05325308
v -0.04017894 -0.06482486 -0.06253975
v -0.04917086 -0.05695007 -0.05230730
v -0.02999251 -0.06694567 -0.05989744
v -0.02741365 -0.06705710 -0.05620077
v -0.03154248 -0.06633045 -0.05437286
v -0.03684336 -0.06488762 -0.05133955
v -0.01820342 -0.06744993 -0.05246355
v -0.03754646 -0.06518385 -0.05627948
v -0.03398652 -0.06631172 -0.06027529
v -0.04487406 -0.06105277 -0.05011329
v -0.03660240 -0.06544521 -0.05638168
v -0.01287160 -0.06744069 -0.05016016
v -0.04161622 -0.06395621 -0.05739565
v -0.02268683 -0.06726350 -0.05334328
v -0.04483390 -0.06281148 -0.06034577
v -0.02717851 -0.06665223 -0.05121160
v -0.04954526 -0.05809239 -0.05812309
v -0.04889423 -0.05883961 -0.05757722
v -0.03033723 -0.06634262 -0.05238835
v -0.04681332 -0.06188953 -0.06479663
v -0.04668207 -0.06118955 -0.05812011
v -0.01625267 -0.06732005 -0.05035034
v -0.04590082 -0.06109916 -0.05445411
v -0.04823986 -0.06103335 -0.06473003
v -0.03128204 -0.06671277 -0.06130679
v -0.04986519 -0.05513099 -0.05061776
v -0.03115399 -0.06614782 -0.06211416
v -0.03782235 -0.06546012 -0.06042041
v -0.01835184 -0.06719991 -0.05013033
v -0.02458330 -0.06693047 -0.05121833
v -0.02680127 -0.06719150 -0.05798801
v -0.04128055 -0.06405755 -0.05713264
v -0.00060276 -0.06752467 -0.05131443
v -0.02149760 -0.06727249 -0.05244998
v -0.04718025 -0.06042808 -0.05643338
v -0.04411639 -0.06317969 -0.06017888
v -0.02647358 -0.06708520 -0.05527170
v -0.02145266 -0.06442785 -0.05000265
v -0.04487309 -0.06319000 -0.06315817
v -0.00067067 -0.06591361 -0.05140000
v -0.03662192 -0.06521838 -0.05392543
v -0.03743818 -0.06548566 -0.05947864
v -0.02455368 -0.06713979 -0.05364357
v -0.00029928 -0.06723259 -0.05120926
v -0.00029926 -0.06536323 -0.05041946
v -0.02976417 -0.06662427 -0.05449347
v -0.03562467 -0.06509822 -0.05014626
v -0.04572777 -0.06161420 -0.05653682
v -0.01067462 -0.06758917 -0.05106575
v -0.04864708 -0.05934789 -0.05838607
v -0.04385390 -0.06283830 -0.05686176
v -0.02381409 -0.06732858 -0.05514023
v -0.03994522 -0.06495363 -0.06138626
v -0.02744456 -0.06659848 -0.05096925
v -0.04957645 -0.05565398 -0.05054558
v -0.03383105 -0.06634787 -0.06122568
v -0.00031195 -0.06733379 -0.05140000
v -0.00029937 -0.06659794 -0.05017125
v -0.02718240 -0.06689243 -0.05386677
v -0.02340306 -0.06706185 -0.05164718
v -0.03987806 -0.06444741 -0.05611401
v -0.04553569 -0.06092523 -0.05207492
v -0.04642327 -0.06107680 -0.05648712
v -0.04267568 -0.06403763 -0.06168000
v -0.02863335 -0.06640095 -0.05039418
v -0.04953481 -0.05590721 -0.05106344
v -0.03877207 -0.06156246 -0.05000437
v -0.04699890 -0.05931237 -0.05077933
v -0.04291610 -0.06240700 -0.05058975
v -0.02958698 -0.06692190 -0.05831625
v -0.03524299 -0.06524750 -0.05066004
v -0.00849108 -0.06755359 -0.05028908
v -0.04800676 -0.06119592 -0.06489962
v -0.03536495 -0.06591256 -0.05868365
v -0.02689141 -0.06679798 -0.05239274
v -0.02823075 -0.06688840 -0.05514497
v -0.04616450 -0.06230571 -0.06227758
v -0.04712811 -0.05914006 -0.05063820
v -0.03527868 -0.06596706 -0.05918920
v -0.04793940 -0.05967291 -0.05642888
v -0.04115637 -0.06062848 -0.05003471
v -0.04521695 -0.06094507 -0.05091088
v -0.02357202 -0.06705895 -0.05175736
v -0.03461528 -0.06533872 -0.05024342
v -0.01859892 -0.06736727 -0.05182729
v -0.01943673 -0.06751802 -0.05405684
v -0.00331947 -0.06766856 -0.05077079
v -0.04255649 -0.06275076 -0.05169351
v -0.03597291 -0.06565139 -0.05697004
v -0.04935915 -0.05945600 -0.06272069
v -0.04881536 -0.05864279 -0.05644092
v -0.04692236 -0.06174878 -0.06222753
v -0.02990046 -0.06684995 -0.05791443
v -0.00249859 -0.06762151 -0.05119584
v -0.04999627 -0.05287820 -0.07846170
v -0.03585543 -0.06554275 -0.06246184
v -0.03393331 -0.06634918 -0.06077990
v -0.04928691 -0.05841554 -0.05792920
v -0.04859257 -0.06068151 -0.06437079
v -0.00635906 -0.06764810 -0.05075805
v -0.04886123 -0.05769490 -0.05327258
v -0.04188009 -0.06440476 -0.06243572
v -0.04259761 -0.06401038 -0.06326566
v -0.04584462 -0.06245490 -0.06190178
v -0.02682857 -0.06657511 -0.05009434
v -0.02778227 -0.06681612 -0.05370458
v -0.04827642 -0.05984723 -0.05865624
v -0.03254181 -0.06648284 -0.05901488
v -0.04917734 -0.05740096 -0.05384530
v -0.04996299 -0.05147995 -0.05100392
v -0.04602829 -0.06230461 -0.06172326
v -0.03615367 -0.06575747 -0.05883609
v -0.02713690 -0.06714940 -0.05704735
v -0.04188327 -0.06399167 -0.05860162
v -0.01407292 -0.06740724 -0.05023589
v -0.03720841 -0.06491758 -0.05258858
v -0.02474509 -0.06698769 -0.05199199
v -0.04988014 -0.05070050 -0.08426065
v -0.03677153 -0.06577318 -0.06097497
v -0.02671463 -0.06705883 -0.05525726
v -0.02610721 -0.06664847 -0.05004824
v -0.04507637 -0.06208628 -0.05668533
v -0.03195966 -0.06625966 -0.05436698
v -0.04452250 -0.06323908 -0.06205779
v -0.03240995 -0.06640097 -0.05748473
v -0.03158224 -0.06673734 -0.06031545
v -0.04078718 -0.06439320 -0.05858602
v -0.04824593 -0.05938970 -0.05666057
v -0.02726903 -0.06716058 -0.05741134
v -0.03460437 -0.06593736 -0.05685795
v -0.02907162 -0.06640938 -0.05107654
v -0.01408664 -0.06738750 -0.05005579
v -0.04424104 -0.06170527 -0.05124949
v -0.04892653 -0.05720330 -0.05196177
v -0.04740591 -0.05992300 -0.05519039
v -0.01904422 -0.06747189 -0.05315101
v -0.03506615 -0.06604448 -0.05965077
v -0.02752426 -0.06711422 -0.05863296
v -0.04603510 -0.06024208 -0.05077817
v -0.04666514 -0.06215734 -0.06429059
v -0.04373368 -0.06213125 -0.05192446
v -0.03255799 -0.06615255 -0.06207504
v -0.02305791 -0.06696173 -0.05045808
v -0.01977130 -0.06723064 -0.05102444
v -0.04410214 -0.06333358 -0.06381905
v -0.04242539 -0.06421703 -0.06259442
v -0.01491172 -0.06740963 -0.05061046
v -0.04483445 -0.06313488 -0.06248399
v -0.03480049 -0.06576295 -0.05515679
v -0.03171906 -0.06672279 -0.06080505
v -0.03384246 -0.06606719 -0.05647314
v -0.02993216 -0.06666091 -0.06111338
v -0.04933634 -0.05872307 -0.05928800
v -0.04889155 -0.05822235 -0.05526680
v -0.01915328 -0.06735286 -0.05193427
v -0.04707594 -0.05915186 -0.05046186
v -0.03388309 -0.06635679 -0.06086207
v -0.03328868 -0.06619524 -0.05669339
v -0.04789231 -0.05895346 -0.05330287
v -0.04899289 -0.06016598 -0.06590167
v -0.03565032 -0.06511228 -0.05034854
v -0.03421563 -0.06604646 -0.06200504
v -0.02857883 -0.06694387 -0.05970436
v -0.04446282 -0.06177314 -0.05249792
v -0.02220285 -0.06743437 -0.05550108
v -0.03407553 -0.06593929 -0.05541724
v -0.04995003 -0.05807837 -0.06040318
v -0.02896800 -0.06662462 -0.05321869
v -0.00280939 -0.06759137 -0.05000601
v -0.02809110 -0.06667426 -0.05240773
v -0.04335153 -0.06346692 -0.05954733
v -0.04948944 -0.05686368 -0.05366290
v -0.03375988 -0.06588658 -0.05396632
v -0.02404023 -0.06690642 -0.05062602
v -0.04912644 -0.05676676 -0.05153688
v -0.04933602 -0.05911526 -0.06103139
v -0.02419501 -0.06722774 -0.05432525
v -0.03448911 -0.06536112 -0.05020146
v -0.00497647 -0.06498910 -0.05009842
v -0.03280809 -0.06577496 -0.05079706
v -0.04994038 -0.05862807 -0.06740596
v -0.04758182 -0.05862964 -0.05066793
v -0.04643679 -0.06224975 -0.06306008
v -0.03782855 -0.06472493 -0.05237968
v -0.03425972 -0.06597598 -0.05640546
v -0.04108105 -0.06358597 -0.05264375
v -0.02155244 -0.06745290 -0.05524154
v -0.04642686 -0.06023475 -0.05235989
v -0.02718243 -0.06689491 -0.05389610
v -0.03507679 -0.06552760 -0.05317636
v -0.03317669 -0.06647928 -0.06067490
v -0.01666826 -0.06753172 -0.05257966
v -0.02231426 -0.06715587 -0.05179771
v -0.02085440 -0.06730142 -0.05228834
v -0.03291521 -0.06637140 -0.05832737
v -0.04464317 -0.06243870 -0.05720302
v -0.04128354 -0.06333924 -0.05148940
v -0.04734330 -0.05878107 -0.05015068
v -0.04904669 -0.05732001 -0.05291999
v -0.03045670 -0.06645806 -0.05379896
v -0.03006766 -0.06685850 -0.05843888
v -0.04518439 -0.06109267 -0.05155264
v -0.04002955 -0.06447702 -0.05688025
v -0.04542915 -0.06263000 -0.06144162
v -0.04883710 -0.06039764 -0.06430845
v -0.01991164 -0.06745844 -0.05350944
v -0.03830194 -0.06438443 -0.05058439
v -0.03568256 -0.06597869 -0.06160903
v -0.02622409 -0.06681776 -0.05181590
v -0.02394553 -0.06711905 -0.05276064
v -0.03487675 -0.06574463 -0.05513244
v -0.04764096 -0.05962869 -0.05493668
v -0.02823059 -0.06687207 -0.05492065
v -0.03654803 -0.06559322 -0.05799452
v -0.04836136 -0.05762924 -0.05067111
v -0.04127733 -0.06381414 -0.05506964
v -0.04678550 -0.06177404 -0.06177319
v -0.02497431 -0.06727607 -0.05721256
v -0.04387386 -0.06289390 -0.05731317
v -0.04301529 -0.06243629 -0.05114734
v -0.04637406 -0.06086794 -0.05524241
v -0.04442541 -0.06279171 -0.05868010
v -0.04991223 -0.05894984 -0.06374758
v -0.04695872 -0.05953124 -0.05154257
v -0.04344699 -0.06371872 -0.06176544
v -0.04433600 -0.06148820 -0.05036725
v -0.03625488 -0.06558200 -0.05694410
v -0.01961369 -0.06718512 -0.05053295
v -0.03947292 -0.06447850 -0.05511042
v -0.04995734 -0.05848708 -0.06218878
v -0.00542443 -0.06763399 -0.05056262
v -0.01298868 -0.06746452 -0.05041725
v -0.01882166 -0.06747047 -0.05300406
v -0.04932070 -0.05937662 -0.06214343
v -0.03015850 -0.06659872 -0.05485224
v -0.03807361 -0.06447974 -0.05069627
v -0.04480873 -0.06220344 -0.05637914
v -0.02173508 -0.06716371 -0.05139995
v -0.04451592 -0.06325710 -0.06216708
v -0.03878673 -0.06476150 -0.05554121
v -0.04579402 -0.06170512 -0.05729259
v -0.02430088 -0.06736093 -0.05626156
v -0.02527939 -0.06678769 -0.05053295
v -0.04145585 -0.06370590 -0.05483236
v -0.03044994 -0.06656322 -0.05495780
v -0.04822010 -0.05814071 -0.05175713
v -0.02386309 -0.06719476 -0.05355560
v -0.03645036 -0.06545864 -0.05606874
v -0.04518596 -0.06296466 -0.06386650
v -0.02013862 -0.06730566 -0.05191504
v -0.02728314 -0.06717365 -0.05771965
f 177 225 94
f 101 113 96
f 96 46 101
f 113 46 96
f 89 114 225
f 89 225 143
f 143 150 89
f 94 225 55
f 225 177 188
f 166 46 20
f 20 89 17
f 20 46 113
f 113 89 20
f 237 216 279
f 261 216 155
f 279 216 261
f 100 89 113
f 114 89 100
f 100 113 101
f 101 114 100
f 225 114 235
f 235 55 225
f 243 150 143
f 123 103 177
f 123 177 94
f 94 55 123
f 17 89 208
f 83 20 17
f 17 208 83
f 50 237 151
f 151 166 50
f 174 20 216
f 216 237 174
f 237 50 174
f 166 20 174
f 174 50 166
f 42 114 101
f 42 235 114
f 101 46 42
f 42 46 166
f 150 243 221
f 103 49 263
f 66 49 103
f 103 123 66
f 125 49 66
f 66 282 125
f 218 20 198
f 218 152 20
f 305 76 20
f 216 20 129
f 20 76 129
f 20 152 57
f 152 218 57
f 57 218 264
f 264 40 57
f 279 261 6
f 163 261 155
f 55 235 19
f 235 42 19
f 19 42 166
f 19 111 55
f 19 82 111
f 166 82 19
f 85 188 177
f 225 128 34
f 34 128 156
f 156 22 142
f 142 243 143
f 143 156 142
f 142 221 243
f 33 57 40
f 137 123 55
f 55 66 137
f 137 66 123
f 55 111 254
f 254 66 55
f 124 268 280
f 10 163 155
f 219 89 150
f 274 221 298
f 150 221 274
f 81 219 59
f 81 208 89
f 89 219 81
f 81 83 208
f 198 20 81
f 20 83 81
f 51 9 295
f 95 51 295
f 95 305 202
f 20 57 159
f 202 305 159
f 155 216 80
f 216 129 80
f 196 95 239
f 305 95 196
f 239 80 196
f 196 80 129
f 76 305 196
f 196 129 76
f 223 82 166
f 191 163 37
f 37 280 191
f 191 280 268
f 253 49 125
f 125 144 253
f 199 85 177
f 199 86 294
f 287 156 143
f 287 34 156
f 143 225 287
f 225 34 287
f 298 221 47
f 221 142 47
f 188 288 68
f 225 188 68
f 68 128 225
f 105 22 156
f 156 128 105
f 128 68 105
f 105 68 288
f 35 263 49
f 35 38 263
f 57 33 158
f 202 159 158
f 158 159 57
f 106 163 184
f 124 280 195
f 195 212 124
f 66 254 195
f 254 212 195
f 282 66 258
f 258 297 282
f 239 160 133
f 133 297 239
f 239 297 273
f 87 274 298
f 126 8 149
f 264 218 41
f 41 218 198
f 198 81 41
f 9 51 281
f 281 95 202
f 51 95 281
f 204 160 239
f 239 95 204
f 204 95 295
f 201 305 20
f 20 159 201
f 201 159 305
f 73 154 28
f 286 237 279
f 279 223 286
f 151 237 286
f 286 166 151
f 286 223 166
f 12 28 223
f 12 223 279
f 106 184 18
f 163 290 146
f 146 6 261
f 261 163 146
f 209 12 279
f 209 154 73
f 73 28 209
f 28 12 209
f 136 191 268
f 163 191 136
f 136 268 124
f 125 282 189
f 252 293 160
f 160 293 178
f 293 189 178
f 282 297 178
f 278 204 107
f 29 226 121
f 284 199 294
f 85 199 284
f 294 200 284
f 86 199 230
f 188 203 171
f 171 288 188
f 188 85 78
f 78 203 188
f 203 200 23
f 23 171 203
f 288 171 23
f 22 105 23
f 23 105 288
f 70 303 14
f 264 41 112
f 112 41 81
f 103 263 292
f 263 38 292
f 183 158 33
f 36 296 33
f 84 11 36
f 242 253 9
f 49 253 242
f 242 272 49
f 10 195 244
f 244 280 37
f 244 195 280
f 77 273 297
f 148 10 155
f 155 80 148
f 148 77 10
f 273 77 148
f 148 80 239
f 239 273 148
f 274 87 194
f 194 219 150
f 150 274 194
f 59 219 194
f 194 87 59
f 132 8 185
f 233 303 99
f 111 82 1
f 215 18 184
f 106 209 232
f 232 163 106
f 232 290 163
f 279 6 232
f 232 209 279
f 74 209 106
f 209 74 147
f 106 18 147
f 147 74 106
f 134 212 254
f 125 189 197
f 197 189 293
f 197 252 125
f 293 252 197
f 24 252 160
f 167 133 160
f 160 178 167
f 297 133 167
f 167 178 297
f 220 189 282
f 282 178 220
f 220 178 189
f 276 107 125
f 278 107 276
f 276 24 278
f 125 252 276
f 252 24 276
f 180 204 295
f 161 121 110
f 110 121 226
f 226 72 110
f 25 199 177
f 25 230 199
f 248 142 22
f 22 23 248
f 248 23 63
f 90 14 47
f 294 70 90
f 70 14 90
f 262 47 142
f 63 23 211
f 84 40 175
f 175 153 65
f 175 40 264
f 264 153 175
f 65 153 247
f 247 182 65
f 164 251 65
f 65 182 164
f 257 126 149
f 98 11 84
f 84 175 98
f 296 292 285
f 240 292 296
f 240 7 292
f 109 33 40
f 109 36 33
f 109 40 84
f 84 36 109
f 26 67 64
f 64 11 26
f 64 36 11
f 64 67 304
f 304 97 64
f 296 36 64
f 38 35 88
f 49 272 88
f 88 35 49
f 9 281 120
f 120 272 9
f 120 281 202
f 202 158 120
f 38 88 120
f 120 183 38
f 158 183 120
f 9 272 300
f 300 242 9
f 272 242 300
f 91 244 37
f 10 244 91
f 79 77 297
f 173 30 99
f 86 54 173
f 99 303 173
f 173 139 86
f 131 173 226
f 27 185 307
f 298 27 307
f 307 87 298
f 307 185 8
f 307 8 59
f 59 87 307
f 30 169 16
f 99 30 16
f 16 185 27
f 16 169 185
f 294 86 116
f 86 139 116
f 13 215 184
f 13 184 163
f 163 136 13
f 13 136 124
f 254 215 13
f 13 134 254
f 165 28 154
f 271 254 111
f 71 204 278
f 278 24 71
f 275 180 92
f 275 92 144
f 275 107 204
f 204 180 275
f 275 144 125
f 125 107 275
f 144 92 227
f 227 253 144
f 9 253 227
f 92 180 227
f 295 9 227
f 227 180 295
f 226 176 93
f 234 121 161
f 234 161 177
f 177 103 234
f 217 97 31
f 103 217 31
f 31 127 103
f 31 97 304
f 162 176 226
f 226 269 162
f 162 269 176
f 301 257 149
f 127 31 229
f 229 31 246
f 86 230 299
f 230 25 299
f 25 54 299
f 299 54 86
f 142 248 192
f 192 262 142
f 141 23 200
f 141 211 23
f 168 135 130
f 270 98 175
f 168 283 270
f 270 175 168
f 65 207 44
f 193 135 168
f 168 175 193
f 193 175 65
f 65 44 193
f 213 247 153
f 213 153 264
f 264 112 213
f 182 247 206
f 206 112 81
f 206 213 112
f 247 213 206
f 206 81 59
f 59 182 206
f 33 296 259
f 259 183 33
f 5 62 103
f 103 292 5
f 292 7 5
f 5 240 62
f 7 240 5
f 62 240 172
f 172 240 97
f 296 64 48
f 48 64 97
f 48 240 296
f 97 240 48
f 69 88 272
f 272 120 69
f 297 258 104
f 104 79 297
f 258 79 104
f 118 79 258
f 77 79 118
f 226 173 265
f 265 173 54
f 265 72 226
f 266 173 303
f 139 173 266
f 303 233 108
f 108 14 303
f 47 14 108
f 108 16 27
f 108 27 298
f 298 47 108
f 249 70 294
f 294 116 249
f 18 2 210
f 210 147 18
f 154 209 210
f 209 147 210
f 28 228 56
f 56 1 82
f 82 223 56
f 223 28 56
f 28 165 58
f 58 228 28
f 58 165 255
f 58 56 228
f 254 271 21
f 2 271 157
f 255 165 157
f 157 165 154
f 154 210 157
f 157 210 2
f 260 24 160
f 260 71 24
f 160 204 260
f 204 71 260
f 226 93 245
f 60 93 176
f 176 269 60
f 30 93 60
f 60 169 30
f 60 269 132
f 304 283 145
f 145 31 304
f 246 31 145
f 186 130 241
f 168 130 186
f 224 226 29
f 224 269 226
f 257 301 15
f 59 8 15
f 15 182 59
f 8 126 15
f 126 257 15
f 43 229 52
f 127 229 43
f 267 229 246
f 205 229 267
f 246 145 267
f 222 229 205
f 222 186 241
f 241 207 222
f 207 3 222
f 52 229 222
f 222 3 52
f 65 251 214
f 214 207 65
f 214 3 207
f 289 248 63
f 289 192 248
f 296 285 117
f 117 259 296
f 117 285 292
f 170 120 88
f 88 69 170
f 170 69 120
f 138 258 66
f 138 118 258
f 66 195 138
f 195 118 138
f 277 195 10
f 277 118 195
f 190 58 255
f 56 58 231
f 231 271 111
f 231 190 271
f 58 190 231
f 254 21 238
f 238 21 18
f 238 215 254
f 18 215 238
f 18 21 302
f 302 21 271
f 302 2 18
f 302 271 2
f 255 157 32
f 32 157 271
f 115 131 226
f 226 245 115
f 53 283 168
f 53 145 283
f 29 121 187
f 187 224 29
f 224 187 256
f 256 187 75
f 236 43 52
f 121 234 236
f 127 43 236
f 182 15 181
f 306 200 294
f 63 211 306
f 306 289 63
f 306 141 200
f 211 141 306
f 259 117 45
f 38 183 45
f 183 259 45
f 45 292 38
f 45 117 292
f 77 118 119
f 118 277 119
f 10 77 119
f 119 277 10
f 122 231 111
f 56 231 122
f 111 1 122
f 1 56 122
f 291 256 301
f 132 269 291
f 291 8 132
f 291 301 149
f 149 8 291
f 179 236 52
f 52 301 179
f 4 256 75
f 4 236 256
f 75 187 4
f 4 187 121
f 121 236 4
f 127 236 140
f 140 236 234
f 103 127 140
f 140 234 103
f 3 181 39
f 52 3 39
f 39 181 15
f 294 90 250
f 250 306 294
f 250 90 47
f 47 262 250
f 224 256 102
f 256 291 102
f 269 224 102
f 102 291 269
f 256 236 61
f 236 179 61
f 301 256 61
f 61 179 301
f 78 200 203
f 85 284 78
f 78 284 200
f 232 146 290
f 6 146 232
f 163 10 91
f 37 163 91
f 212 134 13
f 124 212 13
f 270 283 304
f 304 67 270
f 26 11 270
f 270 67 26
f 11 98 270
f 241 130 193
f 193 207 241
f 193 130 135
f 193 44 207
f 172 217 103
f 103 62 172
f 172 97 217
f 161 110 265
f 177 161 265
f 265 110 72
f 265 25 177
f 265 54 25
f 99 16 108
f 108 233 99
f 249 266 303
f 249 303 70
f 249 116 139
f 139 266 249
f 185 169 60
f 132 185 60
f 271 190 32
f 32 190 255
f 173 131 115
f 30 173 115
f 115 93 30
f 115 245 93
f 168 186 53
f 53 222 205
f 205 267 53
f 53 267 145
f 186 222 53
f 251 164 181
f 181 164 182
f 181 214 251
f 3 214 181
f 39 15 301
f 39 301 52
f 192 289 250
f 262 192 250
f 289 306 250

