# https://github.com/mikedh/trimesh
v -0.04598438 -0.03493700 -0.02797940
v -0.04373555 -0.04353509 -0.02777017
v -0.04807318 -0.01965631 -0.02865691
v -0.04666825 -0.01928170 -0.02785500
v -0.04924973 -0.01065435 -0.02937157
v -0.04524717 -0.01711751 -0.02776506
v -0.03728015 -0.04971436 -0.02776506
v -0.03336748 -0.04994428 -0.02776506
v -0.04946596 -0.04418742 -0.03211562
v -0.04642521 -0.01553234 -0.02778558
v -0.04901823 -0.04630797 -0.03234125
v -0.04718723 -0.01002155 -0.02794869
v -0.04960815 -0.00009013 -0.02960056
v -0.00029891 -0.04836602 -0.03293786
v -0.04953344 -0.01539006 -0.02964547
v -0.04617754 -0.03686782 -0.02819265
v -0.04770780 -0.02526321 -0.02856178
v -0.04563367 -0.04477093 -0.02882417
v -0.04622194 -0.03612004 -0.02815839
v -0.04781049 -0.04546941 -0.03051339
v -0.04774194 -0.00022125 -0.02942528
v -0.04993523 -0.03646806 -0.03093353
v -0.04988673 -0.04166505 -0.03194738
v -0.04985449 -0.04122057 -0.03172689
v -0.04900256 -0.00267227 -0.02915129
v -0.04980980 -0.04597544 -0.03502149
v -0.04876190 -0.03999338 -0.03043244
v -0.04817832 -0.04130320 -0.03015010
v -0.04736830 -0.02946208 -0.02851364
v -0.04975782 -0.02403067 -0.03004210
v -0.04998246 -0.01513630 -0.02997429
v -0.04494029 -0.04350060 -0.02811579
v -0.00325202 -0.04996834 -0.03325681
v -0.04882351 -0.04888108 -0.03433272
v -0.04901700 -0.02769942 -0.02964357
v -0.04687823 -0.04151993 -0.02921531
v -0.04750897 -0.01026603 -0.02809924
v -0.04834002 -0.04850642 -0.03209892
v -0.04824577 -0.04841461 -0.03179091
v -0.04954184 -0.02651058 -0.02998083
v -0.04900225 -0.04651140 -0.03246719
v -0.04326243 -0.04741179 -0.02786655
v -0.04893911 -0.04398137 -0.03114209
v -0.04894359 -0.02500518 -0.02946963
v -0.04770244 -0.00557407 -0.02819270
v -0.04273769 -0.04817827 -0.02779943
v -0.04682190 -0.04982870 -0.03072540
v -0.04645085 -0.01555252 -0.02778933
v -0.04997399 -0.01834839 -0.03003867
v -0.04901257 -0.04595552 -0.03200270
v -0.04742834 -0.02767955 -0.02846357
v -0.04503503 -0.04722142 -0.02886113
v -0.04717005 -0.02623635 -0.02821221
v -0.04236598 -0.04938877 -0.02781844
v -0.04494789 -0.04599530 -0.02855117
v -0.04909312 -0.02597942 -0.02962262
v -0.04664920 -0.03605803 -0.02846357
v -0.04624357 -0.04127176 -0.02871807
v -0.04755456 -0.00602411 -0.02809837
v -0.00125088 -0.04764096 -0.02868660
v -0.04634496 -0.03130872 -0.02798297
v -0.04526798 -0.03995109 -0.02796615
v -0.04569854 -0.04066809 -0.02824878
v -0.04999371 -0.03802404 -0.03507930
v -0.00714686 -0.04993695 -0.02776506
v -0.04982201 -0.04503471 -0.03422406
v -0.04683149 -0.02640992 -0.02803958
v -0.04798806 -0.04851433 -0.03141066
v -0.04947808 -0.03274738 -0.03028286
v -0.04991424 -0.00445668 -0.03325562
v -0.04833663 -0.04853688 -0.03212054
v -0.04858659 -0.01369547 -0.02891493
v -0.04358969 -0.04505982 -0.02779016
v -0.04954471 -0.03978424 -0.03100570
v -0.04547890 -0.03481370 -0.02782198
v -0.04982062 -0.03897635 -0.03116933
v -0.04995130 -0.04946446 -0.03974997
v -0.04999334 -0.00663949 -0.02990519
v -0.04932183 -0.02914957 -0.02994675
v -0.04263773 -0.04722847 -0.02776506
v -0.04930233 -0.02776765 -0.02985919
v -0.04733887 -0.01512185 -0.02807450
v -0.04490021 -0.03850900 -0.02779704
v -0.04682424 -0.02224698 -0.02793919
v -0.04552009 -0.04288431 -0.02842708
v -0.04277509 -0.04700171 -0.02776702
v -0.04773675 -0.00411834 -0.02821518
v -0.00045618 -0.04765496 -0.03138811
v -0.04967399 -0.04324429 -0.03221833
v -0.04777641 -0.01542660 -0.02834090
v -0.04904479 -0.02888880 -0.02972485
v -0.04749828 -0.04627161 -0.03043085
v -0.04623429 -0.03767857 -0.02831323
v -0.04470516 -0.03853711 -0.02777622
v -0.04972887 -0.00272242 -0.02969060
v -0.04733168 -0.02184871 -0.02817109
v -0.04859552 -0.04758430 -0.03202926
v -0.04725322 -0.02642408 -0.02827304
v -0.04641681 -0.02753364 -0.02789807
v -0.00760213 -0.04998708 -0.03325681
v -0.04900892 -0.03426191 -0.03005849
v -0.04976657 -0.04709918 -0.03593573
v -0.04798132 -0.02468338 -0.02874098
v -0.04728739 -0.00905549 -0.02798411
v -0.04942545 -0.04919638 -0.03705629
v -0.04979401 -0.03442934 -0.03065170
v -0.04113813 -0.04936951 -0.02776506
v -0.04516884 -0.03459990 -0.02777033
v -0.04605148 -0.02430824 -0.02777952
v -0.04840831 -0.04351155 -0.03062180
v -0.00029886 -0.04981540 -0.02859516
v -0.04996930 -0.04958279 -0.03999138
v -0.04957209 -0.02744976 -0.03004577
v -0.04791926 -0.00192881 -0.02834674
v -0.04810987 -0.00005456 -0.03325681
v -0.04638204 -0.04869477 -0.03013869
v -0.04868025 -0.04766692 -0.03242784
v -0.04996110 -0.04396571 -0.03384039
v -0.04434180 -0.04244871 -0.02781828
v -0.04845568 -0.00473262 -0.02874715
v -0.04762572 -0.04426617 -0.03017086
v -0.04827342 -0.04659147 -0.03108547
v -0.04816252 -0.00081134 -0.02852723
v -0.04781256 -0.00171898 -0.02826749
v -0.00029892 -0.04910687 -0.03305134
v -0.02737146 -0.04997998 -0.03325681
v -0.04826474 -0.01051808 -0.02863824
v -0.04581098 -0.03013179 -0.02779464
v -0.04925764 -0.04389773 -0.03155133
v -0.00138715 -0.04987187 -0.02776506
v -0.04947162 -0.01340979 -0.02956952
v -0.04836656 -0.03165523 -0.02938835
v -0.04837591 -0.03709822 -0.02982240
v -0.04939193 -0.01166112 -0.02948735
v -0.04708291 -0.02250906 -0.02805695
v -0.04641006 -0.03367237 -0.02812513
v -0.04658455 -0.03198070 -0.02813086
v -0.04975363 -0.04427435 -0.03327893
v -0.00029887 -0.04979638 -0.02904433
v -0.04993480 -0.03495120 -0.03079818
v -0.04923137 -0.04997235 -0.03733625
v -0.04410030 -0.04390053 -0.02783849
v -0.04968015 -0.04113379 -0.03141116
v -0.00029887 -0.04826204 -0.02945208
v -0.04604875 -0.02639044 -0.02779244
v -0.04491784 -0.03935366 -0.02782916
v -0.04854594 -0.04492354 -0.03095259
v -0.04854728 -0.01511742 -0.02890728
v -0.04840829 -0.04961422 -0.03362806
v -0.04611937 -0.02694415 -0.02781301
v -0.04688152 -0.03663247 -0.02868125
v -0.00030756 -0.04765758 -0.03279935
v -0.04597105 -0.03218161 -0.02787875
v -0.04957992 -0.04507912 -0.03333435
v -0.04939280 -0.02127366 -0.02968019
v -0.04775193 -0.01254853 -0.02827962
v -0.04976008 -0.04953260 -0.03899488
v -0.04899753 -0.00434695 -0.02914914
v -0.04958235 -0.03703258 -0.03070767
v -0.04756016 -0.04701802 -0.03061317
v -0.04601317 -0.02395097 -0.02777282
v -0.04373951 -0.04416300 -0.02778027
v -0.04565914 -0.01842884 -0.02776506
v -0.04683016 -0.04846940 -0.03040813
v -0.04521506 -0.04170435 -0.02806789
v -0.00029887 -0.04803191 -0.03018114
v -0.00035274 -0.04980403 -0.03325681
v -0.04956185 -0.00215962 -0.02956635
v -0.04594258 -0.03831100 -0.02817752
v -0.00043571 -0.04802640 -0.03325681
v -0.00135684 -0.04763898 -0.02849852
v -0.04884514 -0.00003573 -0.03325681
v -0.04375748 -0.04805532 -0.02815525
v -0.04895285 -0.04584177 -0.03179391
v -0.04332352 -0.04947854 -0.02818468
v -0.04424416 -0.04427648 -0.02789650
v -0.04973763 -0.02827604 -0.03020709
v -0.04877340 -0.03731558 -0.03013869
v -0.04791489 -0.01003899 -0.02837541
v -0.04995087 -0.04319836 -0.03323990
v -0.04951797 -0.04693902 -0.03480694
v -0.04875271 -0.01417875 -0.02904552
v -0.04702765 -0.02113647 -0.02799400
v -0.04758624 -0.04916131 -0.03116249
v -0.04751516 -0.02289985 -0.02833387
v -0.04939284 -0.04872826 -0.03632146
v -0.04230805 -0.04933230 -0.02779963
v -0.04966862 -0.01195224 -0.02969634
v -0.00029892 -0.04963420 -0.03253024
v -0.04895918 -0.01265292 -0.02917771
v -0.04897504 -0.04226611 -0.03085038
v -0.04991273 -0.04660811 -0.03598864
v -0.04599252 -0.02162526 -0.02776506
v -0.00029889 -0.04782052 -0.03178594
v -0.00054743 -0.04765335 -0.03072785
v -0.04779698 -0.00715492 -0.02826981
v -0.04922831 -0.04500235 -0.03194374
v -0.04373959 -0.04559537 -0.02785436
v -0.04780004 -0.02159096 -0.02850203
v -0.04998926 -0.04417286 -0.03993143
v -0.04925117 -0.04534650 -0.03233954
v -0.04728474 -0.02039756 -0.02811358
v -0.04692864 -0.03085210 -0.02827183
v -0.04877814 -0.04469666 -0.03112691
v -0.04961721 -0.01211452 -0.02966007
v -0.04776904 -0.00062663 -0.02823513
v -0.04870222 -0.04911872 -0.03414597
v -0.04977037 -0.04314301 -0.03251153
v -0.04564866 -0.03733146 -0.02796514
v -0.04912178 -0.04707877 -0.03344795
v -0.04983697 -0.04996508 -0.04719301
v -0.04735299 -0.02715621 -0.02838127
v -0.04828300 -0.04685870 -0.03117488
v -0.04652034 -0.02610802 -0.02790684
v -0.04628577 -0.02847362 -0.02787328
v -0.04997485 -0.03663840 -0.03098419
v -0.00029888 -0.04977184 -0.02961849
v -0.04769849 -0.02433119 -0.02851910
v -0.04914844 -0.03370876 -0.03011686
v -0.04727971 -0.03157893 -0.02857704
v -0.04869268 -0.02813287 -0.02942454
v -0.04505469 -0.03414497 -0.02776506
v -0.04385445 -0.04724827 -0.02806221
v -0.04842923 -0.04800856 -0.03192043
v -0.04912526 -0.03048337 -0.02988136
v -0.04681595 -0.02137759 -0.02791844
v -0.04934506 -0.04868218 -0.03608745
v -0.04901487 -0.04696321 -0.03292830
v -0.04434508 -0.04509255 -0.02801281
v -0.04886640 -0.04775033 -0.03321962
v -0.04366443 -0.04684856 -0.02793528
v -0.04946471 -0.04882777 -0.03675562
v -0.04791366 -0.00573014 -0.02834827
v -0.04995509 -0.04428965 -0.03406813
v -0.04690523 -0.04980919 -0.03077694
v -0.04683837 -0.03235238 -0.02830677
v -0.04588212 -0.04121071 -0.02844523
v -0.04721732 -0.00889777 -0.02795608
v -0.04779036 -0.02682121 -0.02869025
v -0.04858107 -0.02061315 -0.02905493
v -0.04440608 -0.03989667 -0.02776844
v -0.04955590 -0.01009678 -0.02959660
v -0.04980804 -0.00374847 -0.03325590
v -0.04994863 -0.01252058 -0.02991213
v -0.04975359 -0.02532204 -0.03008530
v -0.04876903 -0.04999299 -0.04263105
v -0.00029888 -0.04795280 -0.03054119
v -0.04961983 -0.04211513 -0.03156538
v -0.04758387 -0.01190476 -0.02816468
f 211 170 167
f 115 211 172
f 115 170 211
f 172 211 243
f 211 70 243
f 13 243 70
f 172 243 13
f 13 115 172
f 211 167 33
f 33 167 111
f 111 130 33
f 60 144 206
f 170 115 152
f 200 70 211
f 238 130 206
f 238 6 130
f 211 33 100
f 206 130 171
f 171 60 206
f 171 130 111
f 111 144 171
f 144 60 171
f 78 13 70
f 70 200 78
f 64 216 78
f 78 200 64
f 65 33 130
f 65 100 33
f 217 189 111
f 167 189 217
f 111 189 125
f 125 189 167
f 125 167 170
f 166 144 111
f 111 247 166
f 152 247 194
f 194 247 111
f 111 125 194
f 21 152 115
f 115 13 21
f 21 13 206
f 206 144 21
f 144 166 21
f 232 186 102
f 118 216 64
f 13 78 95
f 158 95 78
f 59 238 206
f 53 135 96
f 203 137 53
f 107 54 7
f 135 53 67
f 67 137 61
f 67 53 137
f 6 238 10
f 211 100 246
f 246 141 211
f 211 141 112
f 112 200 211
f 192 234 112
f 234 118 112
f 64 200 112
f 112 118 64
f 100 65 8
f 111 167 139
f 139 217 111
f 167 217 139
f 152 194 14
f 14 194 125
f 170 152 14
f 14 125 170
f 88 247 152
f 152 21 88
f 177 81 113
f 192 102 181
f 110 191 147
f 13 95 168
f 242 158 78
f 25 168 95
f 177 49 140
f 140 49 216
f 140 69 177
f 31 78 216
f 216 49 31
f 155 49 30
f 240 49 155
f 136 1 61
f 61 137 136
f 136 137 203
f 203 236 136
f 191 110 85
f 187 107 80
f 54 107 187
f 46 54 187
f 187 86 46
f 80 86 187
f 241 222 108
f 80 222 241
f 61 215 99
f 99 67 61
f 96 135 183
f 183 202 96
f 135 67 183
f 67 99 183
f 183 99 84
f 108 222 193
f 105 186 232
f 105 149 186
f 141 149 105
f 232 102 77
f 77 105 232
f 77 102 192
f 192 112 77
f 7 54 175
f 175 8 7
f 207 149 71
f 186 149 207
f 100 8 126
f 126 8 141
f 126 246 100
f 141 246 126
f 247 88 195
f 195 88 21
f 195 166 247
f 195 21 166
f 177 69 79
f 79 91 177
f 177 91 221
f 203 212 29
f 29 132 203
f 91 132 29
f 119 146 62
f 220 236 203
f 69 236 220
f 203 132 220
f 220 132 69
f 35 81 177
f 177 212 35
f 98 53 96
f 98 212 203
f 203 53 98
f 71 149 184
f 26 234 192
f 27 159 191
f 216 159 22
f 22 140 216
f 159 140 22
f 78 31 244
f 244 242 78
f 49 240 90
f 96 202 90
f 177 113 245
f 56 98 245
f 245 49 177
f 245 30 49
f 199 240 155
f 155 30 199
f 96 90 199
f 13 168 123
f 168 124 123
f 206 13 123
f 123 124 206
f 42 54 46
f 46 198 42
f 198 231 42
f 42 175 54
f 46 86 73
f 86 162 73
f 73 198 46
f 73 142 198
f 73 162 119
f 119 142 73
f 2 86 80
f 80 241 2
f 2 162 86
f 2 241 162
f 119 162 83
f 162 241 83
f 83 146 119
f 108 75 83
f 83 75 146
f 84 99 214
f 249 202 37
f 6 10 163
f 10 193 163
f 108 193 161
f 161 193 10
f 157 112 141
f 141 105 157
f 157 77 112
f 105 77 157
f 186 207 34
f 91 79 225
f 225 132 91
f 225 79 69
f 69 132 225
f 51 29 212
f 91 29 51
f 51 221 91
f 128 75 108
f 108 161 128
f 128 161 145
f 1 75 153
f 153 215 61
f 61 1 153
f 153 128 215
f 75 128 153
f 209 62 146
f 209 75 1
f 146 75 209
f 151 93 16
f 239 98 56
f 239 35 212
f 212 98 239
f 210 230 117
f 230 34 117
f 216 118 180
f 180 23 216
f 234 26 66
f 28 27 191
f 158 242 233
f 188 244 205
f 242 244 188
f 15 31 49
f 49 90 15
f 40 245 113
f 56 245 40
f 30 245 44
f 185 98 96
f 96 199 185
f 3 90 240
f 240 199 3
f 3 199 90
f 235 160 184
f 235 184 149
f 235 149 141
f 121 18 85
f 121 110 147
f 121 85 110
f 92 160 55
f 55 18 92
f 147 160 92
f 94 241 108
f 108 83 94
f 94 83 241
f 104 183 12
f 104 37 183
f 104 12 238
f 238 59 104
f 59 37 104
f 202 183 82
f 82 37 202
f 183 37 82
f 48 4 145
f 12 4 48
f 238 12 48
f 48 10 238
f 12 183 226
f 226 4 12
f 226 183 84
f 215 4 226
f 84 214 226
f 226 99 215
f 226 214 99
f 55 160 52
f 52 173 55
f 55 173 223
f 223 231 229
f 223 173 175
f 223 42 231
f 175 42 223
f 186 34 227
f 227 34 230
f 215 128 150
f 150 128 145
f 150 4 215
f 145 4 150
f 169 165 62
f 62 209 169
f 169 63 165
f 16 93 169
f 93 63 169
f 119 62 176
f 62 165 176
f 176 142 119
f 198 142 176
f 229 231 176
f 176 231 198
f 106 219 69
f 69 140 106
f 93 151 133
f 133 63 93
f 210 117 228
f 228 181 210
f 192 181 228
f 184 213 68
f 122 160 147
f 184 160 122
f 122 213 184
f 74 143 191
f 74 159 216
f 191 159 74
f 216 23 24
f 191 143 43
f 165 63 32
f 237 85 32
f 32 63 237
f 229 176 32
f 32 176 165
f 32 223 229
f 55 223 32
f 85 18 32
f 32 18 55
f 27 28 58
f 237 63 58
f 158 233 120
f 120 233 124
f 95 158 120
f 45 233 196
f 45 59 206
f 45 37 59
f 5 127 196
f 5 233 242
f 196 233 5
f 242 188 5
f 196 127 179
f 90 72 148
f 31 15 148
f 148 15 90
f 205 244 190
f 131 244 31
f 31 72 131
f 30 44 103
f 103 199 30
f 103 185 199
f 116 235 175
f 173 52 116
f 175 173 116
f 8 175 47
f 175 235 47
f 141 8 47
f 47 235 141
f 18 121 20
f 20 92 18
f 20 121 147
f 147 92 20
f 145 161 109
f 109 48 145
f 109 161 10
f 10 48 109
f 219 106 101
f 101 57 219
f 151 57 101
f 236 57 19
f 19 136 236
f 19 151 16
f 19 57 151
f 1 136 19
f 19 209 1
f 16 169 19
f 19 169 209
f 178 133 159
f 159 27 178
f 27 58 178
f 63 133 178
f 178 58 63
f 184 68 39
f 39 38 71
f 71 184 39
f 224 38 39
f 97 117 38
f 97 38 224
f 97 228 117
f 23 180 208
f 23 208 89
f 234 66 138
f 138 66 26
f 138 118 234
f 216 24 76
f 76 24 143
f 76 74 216
f 143 74 76
f 147 191 204
f 191 43 204
f 204 122 147
f 213 122 204
f 43 129 204
f 36 28 191
f 36 58 28
f 237 58 36
f 36 85 237
f 191 85 36
f 25 120 114
f 114 120 124
f 168 25 114
f 114 124 168
f 124 233 87
f 233 45 87
f 206 124 87
f 87 45 206
f 182 72 31
f 31 148 182
f 182 148 72
f 156 190 72
f 156 72 90
f 156 179 127
f 205 190 156
f 156 202 249
f 156 90 202
f 249 37 156
f 196 179 156
f 156 45 196
f 37 45 156
f 98 185 218
f 185 103 218
f 160 235 164
f 235 116 164
f 164 52 160
f 164 116 52
f 224 39 174
f 174 97 224
f 174 129 197
f 174 68 213
f 174 39 68
f 213 204 174
f 174 204 129
f 197 201 11
f 154 201 197
f 154 138 26
f 9 197 23
f 23 89 9
f 9 154 197
f 138 154 9
f 118 138 9
f 143 24 248
f 248 43 143
f 248 129 43
f 248 24 23
f 23 197 248
f 197 129 248
f 134 156 127
f 127 5 134
f 134 5 188
f 98 218 17
f 17 218 103
f 17 103 44
f 50 174 197
f 97 174 50
f 197 11 50
f 228 97 41
f 97 50 41
f 41 50 11
f 163 107 7
f 130 6 163
f 163 65 130
f 7 8 163
f 80 107 163
f 163 222 80
f 163 8 65
f 163 193 222
f 177 221 51
f 51 212 177
f 117 34 207
f 117 207 71
f 71 38 117
f 40 239 56
f 40 113 81
f 81 35 40
f 35 239 40
f 227 102 186
f 227 181 102
f 210 181 227
f 227 230 210
f 57 236 69
f 69 219 57
f 120 25 95
f 72 190 131
f 131 190 244
f 101 140 159
f 101 106 140
f 159 133 101
f 101 133 151
f 9 208 180
f 9 180 118
f 9 89 208
f 205 156 134
f 134 188 205
f 17 245 98
f 17 44 245
f 201 154 41
f 41 26 192
f 41 154 26
f 192 228 41
f 41 11 201

