# https://github.com/mikedh/trimesh
v -0.02681739 -0.06293683 -0.13605357
v -0.03148289 -0.05421374 -0.13449348
v -0.00397063 -0.05465585 -0.14724665
v -0.02851588 -0.05732922 -0.13704323
v -0.04155275 -0.06290937 -0.11530033
v -0.04416763 -0.06265139 -0.10697609
v -0.01063710 -0.06102728 -0.14524084
v -0.00342269 -0.05534550 -0.14725719
v -0.03500041 -0.05636787 -0.13062757
v -0.03265898 -0.06215421 -0.13133316
v -0.03236837 -0.05197909 -0.13361476
v -0.02747074 -0.05803071 -0.13777270
v -0.01199273 -0.05363286 -0.14586280
v -0.03409381 -0.05828335 -0.13150456
v -0.01862065 -0.05345720 -0.14346807
v -0.02919635 -0.06333746 -0.13333749
v -0.00957420 -0.05773010 -0.14621489
v -0.04568640 -0.05160270 -0.11205755
v -0.01348792 -0.06317561 -0.14303473
v -0.03196545 -0.06445248 -0.12660533
v -0.04099583 -0.05579157 -0.12194329
v -0.04344195 -0.05778797 -0.11693160
v -0.01434004 -0.05623574 -0.14502923
v -0.04250581 -0.06008239 -0.11791502
v -0.00439115 -0.05664784 -0.14714143
v -0.02088768 -0.05284871 -0.14233644
v -0.00682644 -0.05290289 -0.14694964
v -0.02847207 -0.05713789 -0.13710336
v -0.00205313 -0.05326797 -0.14740571
v -0.00453798 -0.05228474 -0.14723382
v -0.03236235 -0.05188644 -0.13362094
v -0.04456650 -0.05344249 -0.11488778
v -0.01011871 -0.05022801 -0.14634208
v -0.03806248 -0.05350700 -0.12666784
v -0.02293043 -0.06035454 -0.14037135
v -0.03091578 -0.06041150 -0.13427079
v -0.04576485 -0.05786225 -0.11070048
v -0.01256553 -0.05820504 -0.14540989
v -0.02440102 -0.05854186 -0.13992833
v -0.03733768 -0.06445248 -0.11680039
v -0.01194289 -0.05802653 -0.14560510
v -0.04106525 -0.06339195 -0.11426064
v -0.02476873 -0.06445248 -0.13407779
v -0.03797978 -0.06308789 -0.12250977
v -0.00298207 -0.05392834 -0.14734134
v -0.03018030 -0.06338577 -0.13223587
v -0.00733590 -0.05053840 -0.14686593
v -0.04506089 -0.06134734 -0.10858695
v -0.00160862 -0.05945248 -0.10004753
v -0.03356426 -0.05995132 -0.13173747
v -0.03522537 -0.05868299 -0.13009651
v -0.04098409 -0.06209996 -0.11869015
v -0.04378138 -0.05965595 -0.11534137
v -0.04512877 -0.06178919 -0.10653471
v -0.02900625 -0.05482579 -0.13674721
v -0.03793198 -0.05390181 -0.12685547
v -0.03095535 -0.05538006 -0.13496130
v -0.00079874 -0.05945248 -0.10253550
v -0.02479252 -0.05026465 -0.13998848
v -0.00641248 -0.06103763 -0.14606171
v -0.01529651 -0.05342448 -0.14481710
v -0.00954230 -0.05487406 -0.14642239
v -0.04418786 -0.06250761 -0.10788267
v -0.03440652 -0.06320675 -0.12770580
v -0.02880973 -0.06086625 -0.13593112
v -0.03512732 -0.05264341 -0.13053664
v -0.02242366 -0.06027180 -0.14069809
v -0.04031058 -0.06195225 -0.12038689
v -0.00269923 -0.06334156 -0.14493041
v -0.03991040 -0.05332567 -0.12379934
v -0.03668415 -0.05799525 -0.12834796
v -0.01829114 -0.05722278 -0.14340422
v -0.02591824 -0.05481888 -0.13916016
v -0.03432181 -0.05121453 -0.13147972
v -0.02861872 -0.05160839 -0.13710792
v -0.03522800 -0.05741434 -0.13025966
v -0.04257911 -0.05613133 -0.11897392
v -0.03932344 -0.06210909 -0.12194116
v -0.03904046 -0.05053442 -0.12524990
v -0.04211933 -0.05884319 -0.11937288
v -0.04126329 -0.05934030 -0.12086337
v -0.00113820 -0.05442881 -0.14740576
v -0.04002309 -0.05005074 -0.12361039
v -0.00699794 -0.05090268 -0.14692144
v -0.00574198 -0.06246972 -0.14546748
v -0.03400725 -0.06098857 -0.13073221
v -0.03785684 -0.05673423 -0.12688884
v -0.04027923 -0.06352396 -0.11557206
v -0.03766969 -0.05067561 -0.12723733
v -0.00539045 -0.06039152 -0.14641393
v -0.03748735 -0.06199103 -0.12518474
v -0.01718032 -0.06035331 -0.14333310
v -0.04338264 -0.06155567 -0.11388874
v -0.04568655 -0.05319097 -0.11205711
v -0.03933557 -0.05683771 -0.12467619
v -0.02550405 -0.05397620 -0.13949386
v -0.02560487 -0.05782024 -0.13917679
v -0.02785786 -0.06257369 -0.13556268
v -0.03718057 -0.05252497 -0.12791535
v -0.02710380 -0.06276493 -0.13601390
v -0.04335706 -0.06071563 -0.11531159
v -0.00016604 -0.06445248 -0.11863822
v -0.00151276 -0.05201421 -0.14741737
v -0.04325364 -0.06001351 -0.11629433
v -0.04234804 -0.06027262 -0.11807942
v -0.02910437 -0.05036428 -0.13669267
v -0.03868588 -0.05435776 -0.12575300
v -0.04302578 -0.06230222 -0.11304515
v -0.03720318 -0.05490692 -0.12785396
v -0.02220334 -0.05816986 -0.14129712
v -0.04591278 -0.05542831 -0.11110743
v -0.04555832 -0.05979875 -0.10977834
v -0.03814603 -0.06445248 -0.11414981
v -0.04754171 -0.05388694 -0.10453918
v -0.03396318 -0.06069282 -0.13094786
v -0.04322058 -0.06208031 -0.11310857
v -0.00866697 -0.05551146 -0.14657727
v -0.04195359 -0.05394831 -0.12033386
v -0.03444559 -0.05332089 -0.13134191
v -0.00280809 -0.06253632 -0.14570890
v -0.04484043 -0.05802128 -0.11349247
v -0.00962273 -0.05748608 -0.14623031
v -0.04519030 -0.05852172 -0.11225796
v -0.02683163 -0.05654164 -0.13838887
v -0.00050607 -0.05949125 -0.14696556
v -0.03163594 -0.05359147 -0.13435884
v -0.02800776 -0.06274785 -0.13524062
v -0.01416535 -0.06098008 -0.14424551
v -0.00450299 -0.05004084 -0.14723783
v -0.04530548 -0.06193364 -0.10474283
v -0.00938566 -0.05686504 -0.14634417
v -0.04399650 -0.06294895 -0.10528840
v -0.03934984 -0.06266684 -0.12090708
v -0.04726856 -0.05042204 -0.10589361
v -0.00776952 -0.05377093 -0.14679475
v -0.02258684 -0.05064231 -0.14137921
v -0.03457912 -0.05233383 -0.13119299
v -0.00679367 -0.06332286 -0.14449508
v -0.02985349 -0.05772063 -0.13580326
v -0.01638021 -0.05021076 -0.14440672
v -0.04713694 -0.05273770 -0.10654491
v -0.01973789 -0.06146583 -0.14171042
v -0.03335960 -0.06445248 -0.12449240
v -0.02159060 -0.05854254 -0.14162259
v -0.02546871 -0.05524399 -0.13947294
v -0.04395459 -0.06161625 -0.11209156
v -0.02197673 -0.05924704 -0.14129166
v -0.03904352 -0.05689408 -0.12510976
v -0.02503092 -0.05288801 -0.13983102
v -0.04374032 -0.06075031 -0.11429983
v -0.02534088 -0.05697124 -0.13946610
v -0.03415240 -0.06227078 -0.12945208
v -0.04522772 -0.05014022 -0.11321437
v -0.04696791 -0.05171813 -0.10738159
v -0.02189384 -0.06228211 -0.14002028
v -0.02576498 -0.05329050 -0.13931624
v -0.03048768 -0.06355515 -0.13143712
v -0.03749702 -0.06249256 -0.12448997
v -0.04678533 -0.05949200 -0.10386513
v -0.03491206 -0.06445248 -0.12169996
v -0.02976691 -0.05704048 -0.13595059
v -0.01211608 -0.05251536 -0.14582979
v -0.04437275 -0.06272807 -0.10506230
v -0.03705031 -0.06051622 -0.12709510
v -0.04530680 -0.05490337 -0.11294973
v -0.03650403 -0.06181914 -0.12685600
v -0.01546511 -0.05962728 -0.14419142
v -0.03809506 -0.06065244 -0.12546010
v -0.03264622 -0.05437414 -0.13331612
v -0.02954464 -0.05981347 -0.13573931
v -0.03741598 -0.05386574 -0.12760285
v -0.04100755 -0.06112204 -0.12010520
v -0.01409124 -0.06055635 -0.14440823
v -0.01826868 -0.05898310 -0.14322601
v -0.04593800 -0.05926427 -0.10899374
v -0.01530316 -0.05934602 -0.14431918
v -0.04210220 -0.06079199 -0.11810049
v -0.01048251 -0.05112515 -0.14626438
v -0.04561731 -0.05872984 -0.11072060
v -0.01995926 -0.06445248 -0.13732568
v -0.04741232 -0.05516895 -0.10498635
v -0.04671677 -0.05703395 -0.10763095
v -0.03598429 -0.05688553 -0.12936182
v -0.02798459 -0.06181618 -0.13609463
v -0.03707291 -0.06336328 -0.12331238
v -0.02982105 -0.05283389 -0.13605766
v -0.04656650 -0.05087524 -0.10899208
v -0.03741458 -0.05411946 -0.12760002
v -0.00979923 -0.06236667 -0.14480119
v -0.03808168 -0.05993519 -0.12594157
v -0.02673981 -0.06053252 -0.13773091
v -0.02050247 -0.05830394 -0.14223726
v -0.03847892 -0.05750086 -0.12587378
v -0.03337991 -0.05833739 -0.13226278
v -0.02757803 -0.05763899 -0.13773291
v -0.02717786 -0.05866814 -0.13789873
v -0.04448631 -0.06192425 -0.10908124
v -0.04654542 -0.05975863 -0.10503191
v -0.01699580 -0.06445248 -0.13857617
v -0.03127226 -0.06224662 -0.13270386
v -0.03761071 -0.05082844 -0.12732285
v -0.01904175 -0.06200704 -0.14175100
v -0.01766264 -0.06284752 -0.14174555
v -0.04415518 -0.05019588 -0.11588481
v -0.01778269 -0.05926876 -0.14337269
v -0.01786151 -0.05679494 -0.14365422
v -0.04320007 -0.05877370 -0.11712919
v -0.00008009 -0.05862996 -0.14712758
v -0.02391808 -0.05448844 -0.14051721
v -0.04582324 -0.06063182 -0.10690432
v -0.00080163 -0.05025983 -0.14743271
v -0.03151379 -0.06011717 -0.13380029
v -0.02652577 -0.05792450 -0.13848375
v -0.04290326 -0.06044029 -0.11672314
v -0.02061180 -0.06003108 -0.14183911
v -0.04712428 -0.05042961 -0.10660773
v -0.04678557 -0.05868840 -0.10565679
v -0.02396219 -0.06050530 -0.13971240
v -0.03826034 -0.06314282 -0.12185287
v -0.04750335 -0.05378547 -0.10473120
v -0.04374716 -0.05859661 -0.11603596
v -0.03503704 -0.05516543 -0.13061955
v -0.02675436 -0.05455908 -0.13854596
v -0.04341318 -0.06062580 -0.11527847
v -0.04488125 -0.05058995 -0.11408975
v -0.02442594 -0.05399394 -0.14021401
v -0.01038676 -0.06156963 -0.14509243
v -0.01206184 -0.06262148 -0.14405912
v -0.03655213 -0.06288664 -0.12525086
v -0.02873891 -0.05930311 -0.13656975
v -0.04442495 -0.05505896 -0.11513935
v -0.02176904 -0.05225947 -0.14185824
v -0.04185320 -0.05310338 -0.12054192
v -0.01668056 -0.06171394 -0.14301155
v -0.01274147 -0.05867687 -0.14530289
v -0.03767511 -0.05425899 -0.12722052
v -0.04416008 -0.05664370 -0.11560824
v -0.04092046 -0.05437078 -0.12210573
v -0.04574783 -0.05068645 -0.11187562
v -0.03529729 -0.05334975 -0.13032902
v -0.03470131 -0.05924248 -0.13062459
v -0.00610161 -0.05795100 -0.14678367
v -0.03480855 -0.05125171 -0.13092601
v -0.02822040 -0.05040714 -0.13743004
v -0.00810048 -0.06168447 -0.14556787
v -0.03745080 -0.05210233 -0.12755481
v -0.00836352 -0.06071722 -0.14590074
v -0.03487405 -0.05793023 -0.13064904
v -0.03023325 -0.05447663 -0.13565737
v -0.02838531 -0.05693299 -0.13720206
v -0.04173902 -0.06012635 -0.11952813
v -0.02698669 -0.06216762 -0.13667598
v -0.03382078 -0.05677203 -0.13195022
v -0.01547934 -0.05574421 -0.14465401
v -0.01303694 -0.05854127 -0.14523736
v -0.01442885 -0.05137755 -0.14513749
v -0.02765615 -0.06027981 -0.13716007
v -0.04513392 -0.05005140 -0.10370000
v -0.04027849 -0.05349264 -0.12318217
v -0.02458710 -0.05002392 -0.14011799
v -0.04712217 -0.05193394 -0.10661807
v -0.03004592 -0.06251590 -0.13370427
v -0.01836844 -0.06056651 -0.14271330
v -0.04261863 -0.06341276 -0.10798008
v -0.04214580 -0.06242634 -0.11520042
v -0.01907186 -0.05049945 -0.14324271
v -0.04538381 -0.05380553 -0.11282447
v -0.03079079 -0.06270751 -0.13269885
v -0.04688222 -0.05907536 -0.10456962
v -0.03651820 -0.05681998 -0.12868842
v -0.03941250 -0.06445248 -0.10804486
v -0.03403320 -0.05920462 -0.13141276
v -0.03709260 -0.05955059 -0.12748448
v -0.03022506 -0.05466555 -0.13566082
v -0.04644179 -0.06022027 -0.10446595
v -0.03877410 -0.06358042 -0.11887750
v -0.03797080 -0.05892301 -0.12637407
v -0.00443526 -0.05163888 -0.14724557
v -0.02781411 -0.05652948 -0.13765715
v -0.03949093 -0.05432383 -0.12450257
v -0.01786038 -0.06166577 -0.14249119
v -0.02297475 -0.06136892 -0.13992763
v -0.02380365 -0.06043407 -0.13982999
v -0.04451340 -0.06081476 -0.11189109
v -0.00131949 -0.06008907 -0.14679469
v -0.01310892 -0.05516713 -0.14550568
v -0.00201097 -0.06323387 -0.14511261
v -0.01071176 -0.05216652 -0.14620529
v -0.02408605 -0.05881841 -0.14007714
v -0.03668127 -0.05679584 -0.12848192
v -0.02316635 -0.05828680 -0.14070477
v -0.02614506 -0.06320306 -0.13620275
v -0.04729164 -0.05592752 -0.10528133
v -0.04642305 -0.05908561 -0.10711373
v -0.00111619 -0.06355544 -0.14460194
v -0.04388983 -0.06253817 -0.10892546
v -0.04635307 -0.05816959 -0.10830813
v -0.00681615 -0.05375769 -0.14695134
v -0.04030164 -0.05828750 -0.12287339
v -0.04152247 -0.06229219 -0.11708689
v -0.04371688 -0.06320406 -0.10397706
v -0.00975698 -0.06031508 -0.14568603
v -0.02945190 -0.06301706 -0.13362847
v -0.02784656 -0.06058071 -0.13689458
v -0.04517823 -0.06075394 -0.10959470
v -0.00314906 -0.06040762 -0.14662120
v -0.03424072 -0.06183638 -0.12978563
v -0.02917643 -0.06160289 -0.13518745
v -0.00628254 -0.06274912 -0.14518404
v -0.03056723 -0.06010308 -0.13470451
v -0.03317298 -0.06321355 -0.12927110
v -0.02165384 -0.05810814 -0.14163454
v -0.04554173 -0.05883565 -0.11090273
v -0.00249646 -0.05396782 -0.14737262
v -0.04133320 -0.05000927 -0.12141378
v -0.04296305 -0.06157677 -0.11500613
v -0.02426259 -0.06234286 -0.13850369
v -0.00982810 -0.06241600 -0.14476192
v -0.04030249 -0.06304008 -0.11796986
v -0.00023128 -0.06368222 -0.14423890
v -0.01593195 -0.05956522 -0.14404345
v -0.04810138 -0.05036270 -0.10079508
v -0.03381768 -0.05836946 -0.13179123
v -0.04541297 -0.06095897 -0.10813890
v -0.01211879 -0.05743562 -0.14562429
v -0.00347796 -0.05783249 -0.14707978
v -0.03767075 -0.06291007 -0.12348774
v -0.02115575 -0.05707874 -0.14204911
v -0.00620990 -0.05748451 -0.14680900
v -0.03144893 -0.06027983 -0.13379255
v -0.04561796 -0.06114619 -0.10370000
v -0.04502786 -0.05028997 -0.10152715
v -0.04657398 -0.05606165 -0.10854353
v -0.01652580 -0.06279933 -0.14232433
v -0.01955131 -0.05496560 -0.14296057
v -0.03191055 -0.05955724 -0.13358076
v -0.04201602 -0.06321174 -0.11242712
v -0.04493775 -0.05683212 -0.11368729
v -0.01891998 -0.05475347 -0.14327405
v -0.01788768 -0.05928379 -0.14331960
v -0.04716756 -0.05808623 -0.10425503
v -0.04538835 -0.06040141 -0.10946181
v -0.03359625 -0.06164844 -0.13075394
v -0.04549804 -0.05856576 -0.11122323
v -0.04484036 -0.05876898 -0.11313008
v -0.01532997 -0.05592195 -0.14469640
v -0.00809517 -0.05369310 -0.14674126
v -0.00020045 -0.05705528 -0.14728533
v -0.01096544 -0.05032474 -0.14613741
v -0.01943941 -0.05396827 -0.14305401
v -0.03442848 -0.05708586 -0.13126773
v -0.04555186 -0.05337013 -0.11239962
v -0.03544613 -0.05418176 -0.13013994
v -0.00142654 -0.06138365 -0.14637765
v -0.04211368 -0.05635001 -0.11990615
v -0.03015396 -0.06356635 -0.13175209
v -0.03021563 -0.05689172 -0.13556112
v -0.02459477 -0.05305570 -0.14011332
v -0.04696136 -0.05393691 -0.10740541
v -0.02610194 -0.05014750 -0.13907223
v -0.04322991 -0.05578144 -0.11765748
v -0.02104312 -0.05638321 -0.14216251
v -0.01169443 -0.05804496 -0.14567196
v -0.03871357 -0.06088004 -0.12438322
v -0.04664638 -0.05527863 -0.10852463
v -0.02284069 -0.05218867 -0.14121924
v -0.03736482 -0.05926650 -0.12720042
v -0.04520927 -0.05470283 -0.11320887
v -0.02090132 -0.05046437 -0.14232953
v -0.02128603 -0.05477896 -0.14209319
v -0.02598555 -0.05706577 -0.13897663
v -0.03944939 -0.05251240 -0.12457229
v -0.01805549 -0.05071136 -0.14372237
v -0.03182016 -0.05139018 -0.13417666
v -0.01348007 -0.06027205 -0.14470634
v -0.00227549 -0.05161842 -0.14739301
v -0.02171039 -0.05325537 -0.14189124
v -0.03278653 -0.06289199 -0.13034830
v -0.03394081 -0.05504437 -0.13188140
v -0.03657693 -0.06349403 -0.12362576
v -0.03740778 -0.06069854 -0.12644852
v -0.03865949 -0.05410344 -0.12579651
v -0.04360999 -0.06241865 -0.11058471
v -0.02145848 -0.05932313 -0.14156728
v -0.03819687 -0.06271536 -0.12295178
v -0.03610049 -0.05846765 -0.12903179
v -0.02995700 -0.05738280 -0.13574571
v -0.03670467 -0.05879787 -0.12820194
v -0.04188041 -0.06281171 -0.11477787
v -0.00914697 -0.05482431 -0.14650886
v -0.00995509 -0.06041240 -0.14561073
v -0.00254608 -0.06193257 -0.14608879
v -0.02057519 -0.05428951 -0.14247497
v -0.03376418 -0.05949528 -0.13164872
v -0.03726946 -0.06352064 -0.12224616
v -0.02305890 -0.05289647 -0.14108169
v -0.04615875 -0.05867917 -0.10869887
v -0.02500957 -0.06251261 -0.13782199
v -0.01482857 -0.06170367 -0.14373729
v -0.02795291 -0.05996870 -0.13705449
v -0.03883922 -0.05363179 -0.12554167
v -0.04272729 -0.06343083 -0.10006665
v -0.04670270 -0.05427818 -0.10845275
v -0.01256703 -0.06439908 -0.14057402
v -0.04525480 -0.05971073 -0.11099564
v -0.04325282 -0.06332494 -0.10520906
v -0.00197983 -0.05879711 -0.14706138
v -0.01415610 -0.06192479 -0.14385922
v -0.00925543 -0.06313027 -0.14427544
v -0.01321212 -0.05606326 -0.14543575
v -0.00078120 -0.06293983 -0.14548284
v -0.00114563 -0.05553719 -0.14735551
v -0.02813963 -0.05633191 -0.13742229
v -0.02113675 -0.05084458 -0.14221203
v -0.03641279 -0.05309923 -0.12893101
v -0.00019415 -0.05945248 -0.10864535
v -0.01550878 -0.06445248 -0.10010922
v -0.03179454 -0.05569685 -0.13415899
v -0.00333384 -0.05891890 -0.14696394
v -0.02520430 -0.06187518 -0.13816748
v -0.04357742 -0.06228307 -0.11130824
v -0.02050156 -0.06318927 -0.13993942
v -0.03307461 -0.05396114 -0.13286756
v -0.01852220 -0.05247347 -0.14351721
v -0.04383418 -0.06043705 -0.11444935
v -0.02096893 -0.05240030 -0.14229586
v -0.04250867 -0.06306281 -0.11157818
v -0.03643103 -0.05883081 -0.12854167
v -0.01664527 -0.06342931 -0.14145212
v -0.00960851 -0.06024148 -0.14574264
v -0.04439008 -0.06121485 -0.11150674
v -0.04456646 -0.05614515 -0.11468562
v -0.03857187 -0.06059268 -0.12479221
v -0.02470669 -0.06101365 -0.13900153
v -0.02633130 -0.06445248 -0.10011747
v -0.02528454 -0.05104913 -0.13965316
v -0.02917417 -0.06196120 -0.13494340
v -0.04431641 -0.06070163 -0.11268649
v -0.01422024 -0.05466508 -0.14516606
v -0.04751231 -0.05042475 -0.10468709
v -0.03490024 -0.05486933 -0.13079269
v -0.03988903 -0.05976381 -0.12313423
v -0.03973862 -0.06163699 -0.12184199
v -0.03907903 -0.05407948 -0.12518249
v -0.03461637 -0.05260963 -0.13115149
v -0.01818179 -0.06231248 -0.14194635
v -0.01252727 -0.06301628 -0.14355141
v -0.02143845 -0.05325944 -0.14204427
v -0.04310400 -0.05413028 -0.11799844
v -0.03776142 -0.06090114 -0.12579210
v -0.02013028 -0.05871428 -0.14236688
v -0.01453212 -0.06287339 -0.14299399
v -0.02536586 -0.05873853 -0.13922680
v -0.04260597 -0.05398875 -0.11901220
v -0.00866051 -0.05883777 -0.14628393
v -0.03069618 -0.05104278 -0.13523834
v -0.04663095 -0.05776324 -0.10740196
v -0.02322060 -0.06250171 -0.13907447
v -0.00513690 -0.06445248 -0.14224264
v -0.02830418 -0.05702846 -0.13725295
v -0.02596763 -0.05725730 -0.13897063
v -0.02994757 -0.06151471 -0.13456246
v -0.02393096 -0.05821451 -0.14025299
v -0.02943724 -0.05439916 -0.13638601
v -0.01211674 -0.06346394 -0.14306851
v -0.00254598 -0.05631743 -0.14724668
v -0.01692144 -0.05677897 -0.14407521
v -0.04516930 -0.05992495 -0.11099726
v -0.01391575 -0.06298957 -0.14309166
v -0.01781839 -0.06209674 -0.14226230
v -0.01746755 -0.06126873 -0.14285118
v -0.04590034 -0.06021958 -0.10756109
v -0.01357611 -0.06349799 -0.14249108
v -0.03503129 -0.05614278 -0.13060192
v -0.04707024 -0.05871872 -0.10390398
v -0.00330957 -0.06350752 -0.14461298
v -0.00308683 -0.05524689 -0.14728013
v -0.00037961 -0.06445248 -0.14242496
v -0.00780267 -0.05879369 -0.14643420
v -0.04390578 -0.05816029 -0.11580262
v -0.02304907 -0.05952331 -0.14056905
v -0.04388952 -0.06267840 -0.10825831
v -0.00891697 -0.05973754 -0.14604968
v -0.03238143 -0.06444797 -0.12618260
v -0.01503302 -0.05142533 -0.14491688
v -0.04683462 -0.05697782 -0.10705190
v -0.00958016 -0.05421673 -0.14644113
v -0.04566904 -0.06064944 -0.10771604
v -0.04393046 -0.05577590 -0.11621323
v -0.00366066 -0.06130337 -0.14630246
v -0.04641749 -0.05328474 -0.10951879
v -0.03932982 -0.06318023 -0.11961846
v -0.03387063 -0.06129779 -0.13068653
v -0.02830776 -0.05280504 -0.13736249
v -0.03889675 -0.05897805 -0.12497402
v -0.00952521 -0.06001717 -0.14582536
v -0.02263231 -0.06134612 -0.14013991
v -0.04716930 -0.05632565 -0.10041384
v -0.01585825 -0.06283521 -0.14256774
v -0.04297672 -0.05780674 -0.11790693
v -0.00889563 -0.05278086 -0.14660331
v -0.04508855 -0.05991898 -0.11127984
v -0.00042409 -0.05896863 -0.14707549
v -0.04145558 -0.06300737 -0.11517958
v -0.03862730 -0.06445248 -0.11224911
v -0.04657409 -0.05729139 -0.10808929
v -0.04129549 -0.05880725 -0.12097581
v -0.02990817 -0.06131433 -0.13471469
v -0.03318577 -0.05303755 -0.13274617
v -0.01155630 -0.06011032 -0.14530516
v -0.00536178 -0.05988775 -0.14655234
v -0.02211543 -0.05837929 -0.14132603
v -0.04576949 -0.05432016 -0.11174943
v -0.02446691 -0.06341379 -0.13705257
v -0.04712551 -0.05236411 -0.10660149
v -0.00028375 -0.06088182 -0.14661312
v -0.01706252 -0.05564105 -0.14407786
v -0.02950400 -0.06307068 -0.13350603
v -0.00797792 -0.06252221 -0.14510653
v -0.02515731 -0.05638174 -0.13964533
v -0.01053761 -0.06251923 -0.14451055
v -0.01748769 -0.05851097 -0.14364651
v -0.03982351 -0.06445248 -0.10023009
v -0.03766333 -0.05762684 -0.12707374
v -0.00471457 -0.05765407 -0.14699683
v -0.04672750 -0.05833139 -0.10632473
v -0.00060122 -0.06443614 -0.11764741
v -0.04294072 -0.06151600 -0.11519898
v -0.02498248 -0.05191466 -0.13986500
v -0.03987736 -0.05681352 -0.12385427
v -0.03998108 -0.06122431 -0.12186386
v -0.02027361 -0.05640641 -0.14253266
v -0.04191565 -0.05377581 -0.12041594
v -0.01540276 -0.06360872 -0.14156675
v -0.00032800 -0.05435271 -0.14742573
v -0.04162428 -0.05788673 -0.12059877
v -0.03648891 -0.06165292 -0.12704701
v -0.03392407 -0.06091667 -0.13087588
v -0.04510142 -0.06142956 -0.10818912
v -0.02038178 -0.05893582 -0.14221806
v -0.00810592 -0.05007012 -0.14673945
v -0.01019196 -0.06445248 -0.14113845
v -0.03707970 -0.05761372 -0.12789029
v -0.02797081 -0.05035343 -0.13762350
v -0.04163722 -0.06331669 -0.11298424
v -0.03218512 -0.05050111 -0.13380259
v -0.03367020 -0.06177873 -0.13055173
v -0.04590163 -0.05115038 -0.11134224
v -0.02879486 -0.06343335 -0.13348943
v -0.01053238 -0.05935652 -0.14575595
v -0.02541755 -0.06263626 -0.13740552
v -0.04659872 -0.05400110 -0.10885575
v -0.00797850 -0.05672497 -0.14662307
v -0.04746783 -0.05654721 -0.10399905
v -0.01513607 -0.06127446 -0.14380438
v -0.04311404 -0.05986619 -0.11677784
v -0.02614315 -0.05354599 -0.13904036
v -0.01519409 -0.06199520 -0.14344360
v -0.01243895 -0.06092092 -0.14484221
v -0.04310817 -0.06327063 -0.10703811
v -0.01644490 -0.05373168 -0.14438223
v -0.04218084 -0.06329300 -0.11110237
v -0.04076533 -0.05921001 -0.12179129
v -0.03362297 -0.05713997 -0.13212572
v -0.01396665 -0.05749737 -0.14504847
v -0.03097731 -0.05631862 -0.13490753
v -0.03218297 -0.05243415 -0.13380479
v -0.04130890 -0.06038780 -0.12020439
v -0.01423533 -0.05925988 -0.14471379
v -0.03296837 -0.06168801 -0.13139866
v -0.03800486 -0.05722105 -0.12661748
v -0.00560904 -0.05524507 -0.14704502
v -0.01626146 -0.05491815 -0.14440927
v -0.03103637 -0.05411356 -0.13491368
v -0.03327873 -0.05786804 -0.13241850
v -0.04103119 -0.06180671 -0.11910136
v -0.02301211 -0.05496096 -0.14106465
v -0.04287630 -0.05663496 -0.11832619
v -0.03416680 -0.06145592 -0.13019979
v -0.02838615 -0.05598100 -0.13724110
v -0.04091249 -0.05338720 -0.12211918
v -0.00699367 -0.05774443 -0.14667446
v -0.03463865 -0.05888804 -0.13078446
v -0.04414310 -0.06150274 -0.11172078
v -0.03062068 -0.05695492 -0.13519012
v -0.01943919 -0.05667879 -0.14291433
v -0.03420743 -0.06356208 -0.12696350
v -0.03758170 -0.06092187 -0.12604552
v -0.03787222 -0.06356216 -0.12086829
v -0.01436374 -0.05003040 -0.14515837
v -0.02220535 -0.06236995 -0.13977282
v -0.04710687 -0.05713294 -0.10553719
v -0.02946490 -0.05634056 -0.13626933
v -0.04299143 -0.06283611 -0.11102832
v -0.00460685 -0.05441993 -0.14720303
v -0.00902224 -0.05925679 -0.14612654
v -0.01745516 -0.05724439 -0.14379796
v -0.04573172 -0.05834857 -0.11055318
v -0.00169895 -0.06084538 -0.14656008
v -0.00477478 -0.05806713 -0.14694566
v -0.01686269 -0.05096616 -0.14422402
v -0.03973043 -0.06329378 -0.11830440
v -0.01581672 -0.06442577 -0.13939654
v -0.00784245 -0.06216994 -0.14535242
v -0.02911765 -0.05763048 -0.13647170
v -0.00229495 -0.05054382 -0.14739169
v -0.03963313 -0.06154238 -0.12214249
v -0.01406207 -0.06330533 -0.14265555
v -0.02812219 -0.06445248 -0.13090852
v -0.00000775 -0.05945248 -0.11120946
v -0.01248076 -0.05999943 -0.14511088
v -0.01813496 -0.05039402 -0.14368768
v -0.04424265 -0.06221956 -0.10894970
v -0.02890506 -0.06437839 -0.13034011
v -0.01297914 -0.05617008 -0.14550312
v -0.02703786 -0.05571765 -0.13827840
v -0.03050990 -0.05494442 -0.13538798
v -0.04411913 -0.06209774 -0.10990560
v -0.04244739 -0.05030072 -0.11934010
v -0.03682247 -0.05134828 -0.12838896
v -0.04495681 -0.06141202 -0.10885490
v -0.01502734 -0.06257894 -0.14310390
v -0.00069423 -0.05814795 -0.14716981
v -0.03830419 -0.06357809 -0.11994118
v -0.02256507 -0.06137777 -0.14016448
v -0.02901907 -0.05204034 -0.13676561
v -0.01014611 -0.05660589 -0.14617900
v -0.01912895 -0.06192690 -0.14175533
v -0.00392207 -0.05684164 -0.14714637
v -0.01333905 -0.06015989 -0.14478881
v -0.04085213 -0.05429387 -0.12222030
v -0.04636866 -0.05872476 -0.10779010
v -0.00969549 -0.05067188 -0.14643248
v -0.04188310 -0.06375248 -0.10074790
v -0.02380892 -0.05769052 -0.14038335
v -0.04696199 -0.05766140 -0.10578651
v -0.00470786 -0.06050283 -0.14648152
v -0.01166633 -0.05071005 -0.14595001
v -0.03613568 -0.06032466 -0.12843322
v -0.02019100 -0.05028483 -0.14268408
v -0.02214311 -0.05534212 -0.14156948
v -0.04238175 -0.05045431 -0.11947291
v -0.00092894 -0.06173055 -0.14626057
v -0.04667757 -0.05259319 -0.10859948
v -0.03530222 -0.05828599 -0.13006574
v -0.00543291 -0.06255200 -0.14545177
v -0.04616653 -0.05372334 -0.11040587
v -0.04700873 -0.05149804 -0.10717961
v -0.01031788 -0.06093707 -0.14535308
v -0.03364019 -0.05002480 -0.13223941
v -0.04248390 -0.06347656 -0.10761804
v -0.04434264 -0.05436290 -0.11540826
v -0.01148718 -0.05932661 -0.14553137
v -0.01922240 -0.06244551 -0.14137234
v -0.01510593 -0.05056999 -0.14488927
v -0.03388498 -0.06078791 -0.13099346
v -0.01829891 -0.06011685 -0.14288758
v -0.00718394 -0.06104992 -0.14594669
v -0.02594830 -0.05941495 -0.13869099
v -0.03625633 -0.06293594 -0.12561729
v -0.00790068 -0.05858081 -0.14644204
v -0.02455261 -0.05353040 -0.14013993
v -0.01042545 -0.05248730 -0.14627657
v -0.01865273 -0.05667934 -0.14328902
v -0.00585163 -0.05060852 -0.14708361
v -0.01401157 -0.05895524 -0.14486427
v -0.00190029 -0.05807611 -0.14713441
v -0.04486097 -0.05928436 -0.11270756
v -0.04489576 -0.05395281 -0.11404866
v -0.04376444 -0.05875493 -0.11591846
v -0.04468294 -0.05823342 -0.11383514
v -0.00557084 -0.05260338 -0.14711571
v -0.00531985 -0.05437099 -0.14712339
v -0.00971319 -0.06332932 -0.14389940
v -0.04205100 -0.05247631 -0.12014210
v -0.00470864 -0.06354363 -0.14439800
v -0.03380517 -0.06327691 -0.12831578
v -0.04656932 -0.05686755 -0.10827287
v -0.01125441 -0.06350983 -0.14320260
v -0.03238208 -0.06228738 -0.13149516
v -0.02704730 -0.05687558 -0.13820463
v -0.01815204 -0.06315434 -0.14117900
v -0.04603400 -0.05733264 -0.11001737
v -0.04623359 -0.05019574 -0.11016884
v -0.01166591 -0.06070756 -0.14511049
v -0.04465990 -0.05961371 -0.11301130
v -0.02584363 -0.05106286 -0.13926108
v -0.04621697 -0.06034423 -0.10544184
v -0.04603730 -0.05782450 -0.10973711
v -0.04740532 -0.05584803 -0.10474110
v -0.01471497 -0.06145727 -0.14388910
v -0.04181895 -0.06263882 -0.11549848
v -0.01612210 -0.05874002 -0.14416946
v -0.00821101 -0.06363944 -0.14360701
v -0.03753301 -0.05600426 -0.12739051
v -0.04663311 -0.05142884 -0.10875666
v -0.01318302 -0.05072690 -0.14553706
v -0.03510398 -0.05863452 -0.13025970
v -0.03456111 -0.06262110 -0.12850460
v -0.04351246 -0.06316111 -0.10596565
v -0.01391920 -0.06159610 -0.14410554
v -0.04236323 -0.06316831 -0.11142562
v -0.01773132 -0.05387987 -0.14386173
v -0.02359951 -0.05710927 -0.14056986
v -0.04026235 -0.06073941 -0.12181102
v -0.00006507 -0.06445248 -0.13306009
v -0.04004570 -0.06337022 -0.11716584
v -0.01362525 -0.05487635 -0.14535203
v -0.01725220 -0.06250153 -0.14223883
v -0.02224649 -0.05704718 -0.14139528
v -0.03987972 -0.05921398 -0.12334549
v -0.00177026 -0.05053990 -0.14741181
v -0.01752012 -0.05721654 -0.14377027
v -0.02550291 -0.05058151 -0.13950002
v -0.04763251 -0.05154091 -0.10409207
v -0.00572137 -0.06033208 -0.14638262
v -0.04191526 -0.06234617 -0.11609115
v -0.00851043 -0.05895175 -0.14629866
v -0.02981710 -0.05133614 -0.13606124
v -0.02752141 -0.05327061 -0.13797203
v -0.04421139 -0.05400326 -0.11575956
v -0.04551200 -0.05468112 -0.11244585
v -0.02908194 -0.05431735 -0.13669742
v -0.03591756 -0.05003890 -0.12957138
v -0.01220927 -0.05958546 -0.14528807
v -0.03894259 -0.05797915 -0.12511331
v -0.04045975 -0.06269497 -0.11853215
v -0.00271858 -0.06445248 -0.14240591
v -0.00630870 -0.06055675 -0.14623822
v -0.04265848 -0.06333091 -0.10862785
v -0.01818651 -0.06363026 -0.14023668
v -0.02953929 -0.06104599 -0.13519395
v -0.03414968 -0.06347984 -0.12732979
v -0.02277702 -0.05584601 -0.14115715
v -0.03283640 -0.05863968 -0.13278567
v -0.03987729 -0.06445248 -0.10469975
v -0.03477796 -0.05027316 -0.13096348
v -0.04458498 -0.05440484 -0.11479964
v -0.04531745 -0.05765853 -0.11231879
v -0.04186238 -0.05944681 -0.11967644
v -0.04430158 -0.05271666 -0.11555587
v -0.03595734 -0.05244656 -0.12952280
v -0.04299340 -0.06202434 -0.11389252
v -0.04408213 -0.05329849 -0.11603262
v -0.02182359 -0.06365108 -0.13816765
v -0.04527212 -0.06203150 -0.10443385
v -0.04009861 -0.06253504 -0.11974920
v -0.00920246 -0.05582465 -0.14645617
v -0.02968690 -0.06348052 -0.13251876
v -0.02963693 -0.06131141 -0.13495444
v -0.00041489 -0.05482353 -0.14740849
v -0.03724926 -0.06339916 -0.12283056
v -0.01919020 -0.05933061 -0.14269991
v -0.00577686 -0.06173423 -0.14587711
v -0.03189798 -0.05520989 -0.13406440
v -0.04266695 -0.06344020 -0.10712713
v -0.00912684 -0.06192130 -0.14522730
v -0.00810317 -0.06225878 -0.14526251
v -0.01460527 -0.06079000 -0.14415669
v -0.03289499 -0.05392550 -0.13306809
v -0.02080783 -0.06189045 -0.14092413
v -0.01065004 -0.06244908 -0.14453605
v -0.03470539 -0.06090382 -0.12990378
v -0.01466430 -0.06010117 -0.14434194
v -0.00848037 -0.05112977 -0.14667796
v -0.03449984 -0.05485627 -0.13126185
v -0.03949519 -0.05992215 -0.12375412
v -0.00151752 -0.06138832 -0.14637171
v -0.03150057 -0.06126079 -0.13322371
v -0.02459847 -0.06142590 -0.13886690
v -0.04149930 -0.06353593 -0.11143676
v -0.02802425 -0.05543827 -0.13753689
v -0.04594291 -0.05920032 -0.10905883
v -0.02368163 -0.05577829 -0.14061308
v -0.04484300 -0.05495195 -0.11410656
v -0.01658940 -0.05863160 -0.14400039
v -0.04764508 -0.05509815 -0.10004030
v -0.03731702 -0.05737499 -0.12761683
v -0.04403843 -0.05653984 -0.11591104
v -0.00196415 -0.05872123 -0.14707530
v -0.01685547 -0.06445248 -0.10010345
v -0.04226073 -0.05815335 -0.11930562
v -0.01995728 -0.05377741 -0.14280089
v -0.04686342 -0.05176283 -0.10789870
v -0.02731435 -0.06054872 -0.13730810
v -0.00860787 -0.06361296 -0.14359136
v -0.00948165 -0.05976212 -0.14590583
v -0.04174360 -0.05113421 -0.12072568
v -0.03563925 -0.05454670 -0.12989659
v -0.00815470 -0.06440667 -0.14177419
v -0.04319822 -0.06142458 -0.11469547
v -0.04584948 -0.05348750 -0.11152656
v -0.04474025 -0.06107696 -0.11058718
v -0.00586362 -0.06342936 -0.14445954
v -0.01088680 -0.05928337 -0.14568878
v -0.02370352 -0.06106455 -0.13964306
v -0.03583620 -0.05885478 -0.12928959
v -0.04032666 -0.05049292 -0.10152704
v -0.00440622 -0.05415000 -0.14723637
v -0.04562041 -0.05155133 -0.11222445
v -0.00073864 -0.05836042 -0.14714788
v -0.04537185 -0.06146583 -0.10658065
v -0.03607146 -0.06297378 -0.12583163
v -0.02840940 -0.06337404 -0.13395292
v -0.02062987 -0.06355090 -0.13918557
v -0.04218727 -0.05665170 -0.11974423
v -0.01008662 -0.05798961 -0.14607154
v -0.02219127 -0.05421108 -0.14160406
v -0.03499231 -0.05845712 -0.13043611
v -0.04597806 -0.05939716 -0.10861924
v -0.03532604 -0.06265314 -0.12749129
v -0.04119176 -0.06311823 -0.11543188
v -0.01304818 -0.05643173 -0.14547319
v -0.01692807 -0.05153766 -0.14419926
v -0.03306768 -0.05142231 -0.13287768
v -0.04713710 -0.05441150 -0.10648311
v -0.03190484 -0.05944383 -0.13360989
v -0.04494376 -0.05715155 -0.11358225
v -0.03900313 -0.06357023 -0.11839621
v -0.04247850 -0.05840581 -0.11878009
v -0.03356992 -0.06256916 -0.12982388
v -0.02561213 -0.05921156 -0.13896529
v -0.00076275 -0.05725489 -0.14725262
v -0.04178734 -0.06292324 -0.11460708
v -0.00398505 -0.05987354 -0.14672219
v -0.04439008 -0.05480312 -0.11524989
v -0.04761829 -0.05454942 -0.10409387
v -0.04694221 -0.05044327 -0.10750877
v -0.00842361 -0.06058956 -0.14592672
v -0.03554399 -0.05010699 -0.13002768
v -0.03132883 -0.06198884 -0.13287568
v -0.03924092 -0.05051572 -0.12492182
v -0.04472766 -0.06171039 -0.10887354
v -0.04721345 -0.05116700 -0.10616631
v -0.01872640 -0.05704081 -0.14321653
v -0.03044349 -0.05055026 -0.13547484
v -0.01329655 -0.05945248 -0.10000733
v -0.04548523 -0.05932712 -0.10004452
v -0.04786775 -0.05371489 -0.10115727
v -0.04031199 -0.06307748 -0.11782483
v -0.03847349 -0.06341762 -0.12042078
v -0.04703868 -0.05235595 -0.10703131
v -0.03761399 -0.06237429 -0.12449721
v -0.04374334 -0.06311083 -0.10507646
v -0.04669575 -0.05933142 -0.10512229
v -0.00151327 -0.06234635 -0.14590674
v -0.01309363 -0.05309831 -0.14556573
v -0.01532781 -0.06273449 -0.14285214
v -0.00186280 -0.05121122 -0.14740981
v -0.04714310 -0.05833915 -0.10408917
v -0.04439887 -0.06246765 -0.10686960
v -0.02405614 -0.06148250 -0.13923003
v -0.01397410 -0.05679533 -0.14511990
v -0.04452312 -0.05804989 -0.11433051
v -0.04237326 -0.06189771 -0.11591844
v -0.04684479 -0.05616888 -0.10742249
f 322 49 798
f 798 49 211
f 211 49 58
f 258 798 211
f 610 211 416
f 211 58 416
f 102 58 49
f 102 416 58
f 102 706 610
f 610 416 102
f 322 798 332
f 332 258 322
f 798 258 332
f 535 211 610
f 777 49 322
f 435 402 523
f 322 258 684
f 724 315 650
f 724 83 315
f 320 706 478
f 839 777 322
f 49 777 837
f 527 102 49
f 49 837 781
f 402 435 781
f 781 837 402
f 548 684 239
f 746 301 402
f 724 737 742
f 82 29 535
f 211 606 129
f 129 258 211
f 315 258 129
f 129 590 315
f 211 535 103
f 535 29 103
f 712 606 211
f 523 402 634
f 634 301 523
f 402 301 634
f 523 301 736
f 736 301 406
f 402 837 838
f 838 837 777
f 102 527 417
f 417 527 49
f 49 781 417
f 475 777 554
f 777 839 554
f 301 746 163
f 830 724 650
f 650 737 830
f 830 737 724
f 240 742 737
f 79 724 89
f 83 724 79
f 612 140 601
f 612 424 266
f 462 437 262
f 139 585 387
f 593 464 250
f 250 357 593
f 751 535 348
f 751 82 535
f 606 29 376
f 849 29 606
f 606 712 849
f 295 320 478
f 439 61 256
f 29 82 314
f 412 751 348
f 82 751 412
f 412 314 82
f 411 516 320
f 320 295 411
f 498 838 777
f 404 542 603
f 447 228 409
f 846 392 643
f 643 411 846
f 516 411 643
f 827 839 322
f 827 554 839
f 619 204 315
f 153 18 239
f 239 684 153
f 315 204 153
f 153 258 315
f 153 684 258
f 744 721 204
f 779 721 489
f 239 18 94
f 722 513 94
f 94 267 722
f 607 78 443
f 299 530 726
f 838 498 159
f 475 269 159
f 159 269 275
f 159 275 746
f 159 777 475
f 159 498 777
f 301 163 132
f 851 163 746
f 746 63 851
f 737 445 243
f 74 737 650
f 89 724 201
f 724 620 201
f 83 79 832
f 315 83 832
f 424 612 373
f 439 256 847
f 439 813 23
f 250 464 55
f 464 723 55
f 626 723 464
f 755 126 418
f 783 424 15
f 226 209 520
f 520 96 226
f 145 96 520
f 557 96 73
f 73 96 145
f 831 462 262
f 769 462 831
f 262 268 680
f 36 769 330
f 36 462 769
f 262 437 252
f 252 437 184
f 161 357 250
f 250 387 161
f 357 585 566
f 566 593 357
f 464 593 566
f 566 735 418
f 585 735 566
f 418 126 2
f 467 693 776
f 853 693 467
f 853 23 813
f 467 23 853
f 541 129 665
f 590 129 541
f 541 33 590
f 655 140 590
f 590 256 655
f 314 412 477
f 477 466 25
f 412 466 477
f 255 813 38
f 271 736 756
f 756 736 406
f 406 264 756
f 406 301 560
f 560 264 406
f 730 264 560
f 383 63 613
f 603 542 199
f 199 180 603
f 514 180 43
f 728 295 478
f 465 679 542
f 542 404 465
f 521 409 228
f 516 643 354
f 762 189 318
f 318 521 762
f 762 521 228
f 189 762 757
f 120 392 846
f 120 646 392
f 846 411 120
f 392 646 85
f 187 696 784
f 784 828 187
f 187 828 684
f 554 827 690
f 820 22 500
f 22 779 500
f 165 338 722
f 18 153 800
f 204 721 741
f 784 403 359
f 784 696 644
f 644 403 784
f 352 94 18
f 267 94 352
f 18 800 352
f 480 779 22
f 820 500 782
f 782 500 806
f 536 806 530
f 530 299 536
f 536 782 806
f 746 275 130
f 275 802 130
f 217 341 636
f 488 342 305
f 472 342 488
f 275 269 198
f 331 746 402
f 331 159 746
f 402 838 331
f 838 159 331
f 482 132 6
f 6 132 163
f 6 63 482
f 163 851 6
f 6 851 63
f 739 683 111
f 111 338 739
f 722 338 111
f 111 513 722
f 686 425 438
f 66 240 737
f 737 243 66
f 445 240 66
f 66 243 445
f 323 272 14
f 323 14 564
f 564 14 351
f 137 445 737
f 737 74 137
f 315 832 788
f 832 233 788
f 788 233 642
f 642 619 788
f 788 619 315
f 721 744 533
f 533 233 530
f 530 21 533
f 77 361 721
f 817 585 139
f 817 735 585
f 394 272 323
f 735 817 394
f 394 241 272
f 495 299 726
f 15 424 703
f 424 373 703
f 573 561 61
f 573 61 439
f 697 256 590
f 697 847 256
f 467 776 522
f 346 23 467
f 723 626 75
f 75 494 723
f 244 494 75
f 250 55 580
f 580 55 723
f 723 494 580
f 448 426 26
f 26 426 424
f 424 783 26
f 448 26 393
f 393 26 783
f 266 424 640
f 424 369 640
f 640 612 266
f 140 612 640
f 590 140 640
f 424 426 414
f 414 369 424
f 414 426 448
f 15 703 339
f 796 218 35
f 796 282 852
f 852 282 625
f 250 4 28
f 28 387 250
f 139 387 28
f 808 209 226
f 460 4 250
f 659 257 400
f 230 605 4
f 139 605 230
f 250 279 681
f 10 831 200
f 200 680 10
f 200 831 262
f 262 680 200
f 308 65 184
f 184 437 308
f 437 462 308
f 443 78 68
f 78 607 843
f 843 607 91
f 304 252 184
f 184 65 304
f 304 257 785
f 400 257 304
f 518 268 262
f 484 157 614
f 614 609 484
f 157 356 614
f 614 356 609
f 484 609 20
f 46 518 16
f 43 609 749
f 609 356 749
f 46 16 749
f 157 46 749
f 749 356 157
f 274 249 464
f 464 566 274
f 574 2 126
f 408 228 622
f 622 228 447
f 142 263 471
f 471 281 142
f 693 321 205
f 205 776 693
f 693 666 176
f 176 321 693
f 666 569 176
f 471 263 92
f 92 205 321
f 565 666 693
f 693 853 565
f 565 853 813
f 565 813 255
f 255 666 565
f 485 256 61
f 485 655 256
f 765 501 633
f 633 541 765
f 33 541 633
f 672 298 665
f 665 129 672
f 278 129 606
f 606 376 278
f 278 672 129
f 30 672 278
f 799 672 30
f 30 278 799
f 298 672 799
f 25 466 823
f 823 412 348
f 823 466 412
f 8 477 25
f 314 477 8
f 320 516 208
f 208 503 780
f 706 320 208
f 610 706 208
f 208 535 610
f 348 535 208
f 125 516 285
f 125 208 516
f 503 208 125
f 287 411 295
f 295 69 287
f 287 120 411
f 646 120 287
f 651 264 271
f 271 756 651
f 651 756 264
f 700 560 301
f 700 132 482
f 482 560 700
f 702 560 482
f 730 560 702
f 594 383 421
f 421 383 613
f 482 63 296
f 63 383 296
f 296 594 482
f 296 383 594
f 317 252 420
f 420 852 317
f 295 728 476
f 476 69 295
f 476 728 459
f 476 459 676
f 676 459 694
f 790 459 542
f 542 679 790
f 679 786 790
f 790 694 459
f 786 694 790
f 768 354 643
f 516 354 768
f 519 85 646
f 519 521 318
f 409 521 519
f 475 554 850
f 554 341 850
f 850 269 475
f 850 217 269
f 341 217 850
f 592 341 554
f 636 341 592
f 154 828 784
f 154 648 828
f 828 648 216
f 684 828 216
f 181 690 827
f 856 182 293
f 182 690 293
f 293 181 856
f 690 181 293
f 806 500 578
f 578 500 779
f 578 779 489
f 578 77 806
f 361 77 578
f 237 480 338
f 779 480 237
f 721 779 826
f 722 267 669
f 225 153 204
f 204 741 225
f 104 425 53
f 53 425 686
f 54 130 802
f 613 63 54
f 54 833 613
f 54 63 746
f 746 130 54
f 112 810 175
f 112 342 472
f 472 810 112
f 539 54 802
f 833 54 539
f 275 198 688
f 688 198 472
f 845 198 269
f 472 198 845
f 403 111 365
f 856 359 365
f 365 359 403
f 345 123 739
f 739 121 345
f 345 121 671
f 313 123 668
f 686 405 668
f 668 405 313
f 123 345 668
f 668 53 686
f 668 345 53
f 108 421 116
f 791 438 150
f 150 438 425
f 150 101 791
f 425 101 150
f 502 405 686
f 686 438 502
f 119 766 445
f 119 509 760
f 351 766 379
f 809 14 583
f 583 14 272
f 272 241 583
f 169 755 418
f 760 126 169
f 126 755 169
f 418 564 253
f 253 564 351
f 253 169 418
f 351 379 253
f 253 379 760
f 418 735 575
f 575 564 418
f 832 280 372
f 259 280 631
f 642 233 675
f 233 533 675
f 212 36 330
f 246 201 620
f 246 79 89
f 89 201 246
f 742 240 353
f 353 789 742
f 726 193 524
f 277 495 726
f 367 495 277
f 726 524 277
f 277 524 367
f 91 607 364
f 607 531 364
f 364 705 767
f 364 531 705
f 767 495 190
f 190 495 367
f 166 843 91
f 517 703 561
f 517 573 467
f 561 573 517
f 814 703 373
f 814 612 601
f 814 373 612
f 561 703 814
f 254 573 439
f 467 573 254
f 254 346 467
f 410 813 439
f 439 847 708
f 847 286 708
f 708 410 439
f 813 286 615
f 13 286 847
f 13 615 286
f 847 697 638
f 467 522 597
f 641 808 362
f 244 75 106
f 106 75 626
f 650 106 546
f 546 106 836
f 413 616 279
f 413 279 250
f 250 580 413
f 350 393 783
f 350 783 15
f 15 339 350
f 350 339 335
f 215 142 625
f 263 142 215
f 770 852 420
f 770 304 785
f 420 252 770
f 252 304 770
f 434 218 796
f 796 852 434
f 434 770 785
f 852 770 434
f 209 808 577
f 369 414 136
f 822 659 453
f 12 230 4
f 12 460 195
f 4 460 12
f 170 817 139
f 139 230 170
f 170 230 400
f 400 304 170
f 170 65 36
f 170 304 65
f 151 681 520
f 124 681 279
f 520 681 124
f 65 308 732
f 36 65 732
f 576 68 52
f 52 855 576
f 133 68 78
f 303 518 262
f 484 20 143
f 43 749 549
f 549 514 43
f 804 514 549
f 549 16 804
f 549 749 16
f 617 274 566
f 558 399 408
f 408 622 558
f 725 611 666
f 764 321 167
f 321 176 167
f 167 176 569
f 666 611 630
f 630 569 666
f 630 167 569
f 764 167 630
f 665 298 27
f 27 84 665
f 47 541 665
f 665 84 47
f 795 363 807
f 347 501 765
f 487 501 347
f 25 572 673
f 673 572 298
f 298 799 673
f 667 780 25
f 667 823 780
f 25 799 3
f 3 8 25
f 801 208 780
f 780 503 407
f 503 125 407
f 407 419 780
f 407 125 285
f 363 41 325
f 325 807 363
f 325 41 38
f 325 38 813
f 235 666 255
f 235 725 666
f 326 600 25
f 326 419 600
f 25 780 326
f 780 419 326
f 25 600 525
f 69 138 309
f 646 287 309
f 309 287 69
f 309 519 646
f 309 138 409
f 409 519 309
f 674 786 679
f 674 138 786
f 409 138 674
f 679 465 674
f 447 409 674
f 674 465 447
f 301 132 844
f 844 700 301
f 132 700 844
f 88 40 42
f 271 264 505
f 618 421 613
f 794 476 676
f 676 694 794
f 794 138 69
f 69 476 794
f 786 138 794
f 794 694 786
f 603 429 534
f 318 189 758
f 758 519 318
f 189 757 758
f 758 757 245
f 85 519 758
f 486 690 182
f 182 592 486
f 827 359 816
f 816 181 827
f 816 359 856
f 856 181 816
f 105 24 251
f 775 165 738
f 738 669 721
f 338 165 432
f 432 165 775
f 432 237 338
f 32 669 267
f 32 741 721
f 721 669 32
f 715 827 322
f 114 359 827
f 827 715 114
f 403 644 552
f 552 647 513
f 513 111 552
f 552 111 403
f 792 94 513
f 513 647 792
f 239 94 792
f 792 548 239
f 818 854 671
f 671 121 818
f 338 480 818
f 480 854 818
f 739 338 818
f 818 121 739
f 221 854 480
f 221 22 820
f 221 480 22
f 705 531 172
f 576 177 172
f 172 68 576
f 443 68 172
f 172 607 443
f 172 531 607
f 711 495 767
f 299 495 711
f 507 536 299
f 782 536 507
f 442 711 767
f 740 507 81
f 457 632 636
f 636 592 457
f 457 592 182
f 526 217 636
f 636 632 526
f 526 632 217
f 175 810 294
f 294 810 472
f 472 845 294
f 294 845 269
f 269 217 294
f 217 632 294
f 506 457 182
f 632 457 506
f 689 598 506
f 324 539 802
f 324 488 305
f 833 539 621
f 472 488 210
f 210 688 472
f 210 324 802
f 488 324 210
f 210 802 275
f 275 688 210
f 333 182 856
f 856 365 333
f 333 111 683
f 333 365 111
f 37 598 689
f 37 683 739
f 739 598 37
f 344 598 739
f 179 598 344
f 739 123 344
f 313 179 344
f 344 123 313
f 743 116 93
f 93 855 743
f 833 621 584
f 717 52 300
f 855 52 717
f 727 319 717
f 743 855 717
f 717 116 743
f 265 108 717
f 108 116 717
f 528 177 576
f 576 855 528
f 528 855 791
f 791 101 528
f 528 101 177
f 177 101 214
f 214 425 104
f 24 105 214
f 342 112 468
f 468 112 405
f 405 502 468
f 423 119 760
f 766 119 423
f 760 379 423
f 423 379 766
f 797 241 428
f 323 564 194
f 564 575 194
f 194 575 735
f 194 394 323
f 735 394 194
f 148 193 726
f 259 832 70
f 832 372 70
f 70 280 259
f 70 372 280
f 259 631 581
f 581 631 233
f 581 832 259
f 581 233 832
f 530 233 238
f 233 631 238
f 355 118 533
f 355 533 21
f 530 806 355
f 355 21 530
f 721 533 454
f 533 118 454
f 99 246 620
f 171 246 99
f 789 290 415
f 742 789 415
f 724 742 415
f 415 620 724
f 415 99 620
f 171 99 415
f 695 290 778
f 367 524 778
f 778 388 367
f 778 543 388
f 445 766 441
f 441 240 445
f 441 353 240
f 71 386 388
f 388 543 71
f 433 364 767
f 767 190 433
f 843 166 811
f 811 166 152
f 164 190 273
f 273 639 164
f 273 190 367
f 367 388 273
f 241 639 273
f 273 388 428
f 428 241 273
f 241 394 50
f 50 639 241
f 50 212 330
f 487 13 663
f 663 13 288
f 288 178 663
f 663 501 487
f 162 13 847
f 847 638 162
f 349 178 288
f 33 178 349
f 349 638 697
f 590 33 349
f 349 697 590
f 467 597 206
f 206 517 467
f 664 339 206
f 206 339 703
f 703 517 206
f 393 362 370
f 448 393 370
f 370 808 448
f 370 362 808
f 451 540 192
f 836 106 719
f 374 546 836
f 650 546 815
f 815 546 760
f 760 509 815
f 223 720 557
f 557 73 223
f 73 616 223
f 616 413 223
f 494 720 772
f 772 580 494
f 720 223 772
f 156 96 557
f 156 149 96
f 360 494 244
f 360 720 494
f 557 720 360
f 360 106 650
f 796 215 497
f 497 215 625
f 384 215 147
f 540 215 384
f 540 451 174
f 174 522 776
f 776 205 174
f 174 451 192
f 174 206 522
f 657 92 263
f 263 215 657
f 205 92 657
f 657 215 205
f 205 215 340
f 147 215 67
f 67 35 218
f 218 283 67
f 796 35 67
f 67 215 796
f 191 659 218
f 218 434 191
f 191 434 785
f 785 257 191
f 257 659 191
f 641 362 734
f 362 328 734
f 448 808 377
f 808 136 377
f 396 808 226
f 39 822 453
f 453 97 39
f 97 151 39
f 39 151 520
f 520 635 39
f 635 463 39
f 218 659 289
f 659 822 289
f 822 39 289
f 289 39 147
f 453 659 196
f 196 12 453
f 196 659 400
f 400 230 196
f 230 12 196
f 213 97 453
f 453 12 213
f 36 212 310
f 310 170 36
f 681 151 371
f 461 12 195
f 195 371 461
f 461 371 151
f 750 732 308
f 462 36 508
f 36 732 508
f 732 750 508
f 78 843 385
f 385 133 78
f 44 133 385
f 300 52 747
f 747 319 727
f 747 52 68
f 68 133 747
f 727 717 747
f 747 717 300
f 484 143 380
f 311 46 157
f 518 303 1
f 57 566 418
f 57 617 566
f 418 2 57
f 764 173 759
f 759 321 764
f 555 92 759
f 759 92 321
f 611 725 787
f 787 496 611
f 611 496 510
f 496 391 510
f 510 685 611
f 391 685 510
f 408 399 701
f 701 399 691
f 701 228 408
f 375 173 764
f 764 630 375
f 487 347 390
f 390 347 117
f 117 748 390
f 298 117 135
f 117 347 135
f 595 799 25
f 25 673 595
f 595 673 799
f 25 823 629
f 629 667 25
f 823 667 629
f 45 3 799
f 45 799 278
f 29 314 45
f 45 376 29
f 45 278 376
f 780 823 623
f 623 801 780
f 623 823 348
f 825 407 285
f 419 407 825
f 600 419 825
f 813 748 627
f 627 325 813
f 62 13 487
f 615 13 62
f 813 615 62
f 62 748 813
f 653 235 363
f 653 363 795
f 725 235 653
f 392 85 754
f 247 649 685
f 600 479 242
f 242 479 582
f 242 525 600
f 25 525 242
f 242 329 25
f 596 795 455
f 795 807 455
f 427 337 702
f 482 594 427
f 427 702 482
f 771 505 264
f 841 589 624
f 160 40 624
f 624 589 160
f 492 747 133
f 319 747 492
f 840 319 492
f 613 833 197
f 197 618 613
f 833 618 197
f 180 514 745
f 745 805 180
f 514 805 745
f 180 805 731
f 731 805 429
f 603 180 731
f 731 429 603
f 422 805 514
f 429 805 422
f 473 534 429
f 603 534 473
f 473 404 603
f 473 465 404
f 848 622 447
f 848 499 622
f 429 499 608
f 608 473 429
f 465 473 608
f 709 558 622
f 652 826 775
f 775 738 652
f 721 826 652
f 652 738 721
f 368 738 165
f 669 738 368
f 775 826 231
f 231 432 775
f 440 715 322
f 322 684 440
f 491 552 644
f 647 552 491
f 104 53 556
f 556 214 104
f 24 214 556
f 251 24 556
f 556 740 251
f 568 172 177
f 568 105 251
f 705 172 568
f 177 214 568
f 568 214 105
f 767 705 568
f 568 442 767
f 81 442 568
f 251 740 568
f 568 740 81
f 81 507 563
f 563 442 81
f 711 442 563
f 299 711 563
f 563 507 299
f 207 221 820
f 207 556 221
f 740 556 207
f 175 294 773
f 773 294 632
f 773 179 313
f 313 405 773
f 773 112 175
f 405 112 773
f 179 773 397
f 397 773 632
f 397 598 179
f 397 506 598
f 539 324 48
f 48 621 539
f 324 621 48
f 683 506 678
f 678 333 683
f 678 506 182
f 182 333 678
f 791 855 316
f 316 93 791
f 855 93 316
f 305 342 284
f 342 468 284
f 284 502 438
f 284 468 502
f 791 93 146
f 146 93 116
f 146 438 791
f 146 284 438
f 146 116 421
f 421 618 146
f 146 618 833
f 833 584 146
f 692 717 319
f 265 717 692
f 692 108 265
f 224 101 425
f 425 214 224
f 224 214 101
f 51 583 241
f 241 797 51
f 726 530 95
f 95 148 726
f 444 832 79
f 444 280 832
f 530 280 444
f 444 95 530
f 449 77 721
f 721 454 449
f 171 415 188
f 695 778 87
f 571 778 524
f 571 524 193
f 193 148 571
f 148 87 571
f 571 87 778
f 789 222 474
f 222 441 474
f 474 766 351
f 474 441 766
f 168 433 190
f 168 588 433
f 364 588 537
f 91 364 537
f 537 166 91
f 537 588 164
f 164 639 537
f 364 433 450
f 450 588 364
f 433 588 450
f 64 311 677
f 639 50 115
f 769 831 570
f 570 831 10
f 835 206 192
f 713 597 522
f 522 206 713
f 713 206 597
f 586 328 362
f 192 328 586
f 586 835 192
f 664 206 586
f 206 835 586
f 147 39 144
f 144 39 463
f 144 384 147
f 540 384 144
f 192 540 144
f 144 328 192
f 464 249 186
f 186 626 464
f 249 574 186
f 186 106 626
f 186 719 106
f 186 574 126
f 126 374 456
f 456 374 836
f 567 126 760
f 567 374 126
f 714 360 59
f 687 156 557
f 557 360 687
f 687 360 714
f 244 106 544
f 544 360 244
f 106 360 544
f 753 215 540
f 540 174 753
f 753 340 215
f 192 206 72
f 72 174 192
f 206 174 72
f 710 734 328
f 710 463 635
f 710 328 463
f 774 520 209
f 209 577 774
f 734 710 774
f 232 414 448
f 448 377 232
f 232 136 414
f 232 377 136
f 366 136 808
f 808 396 366
f 218 289 481
f 481 289 147
f 481 283 218
f 147 67 481
f 481 67 283
f 817 170 336
f 170 310 336
f 336 310 212
f 336 394 817
f 212 50 336
f 336 50 394
f 44 385 327
f 327 185 44
f 395 143 160
f 395 380 143
f 160 589 395
f 395 589 841
f 378 680 268
f 10 680 378
f 268 518 378
f 378 518 46
f 46 311 378
f 378 64 811
f 311 64 378
f 262 252 98
f 550 795 596
f 227 757 762
f 245 757 227
f 227 762 228
f 228 701 227
f 227 247 245
f 649 247 227
f 173 375 128
f 128 759 173
f 128 701 691
f 611 685 559
f 559 630 611
f 559 375 630
f 701 128 559
f 559 128 375
f 559 227 701
f 685 649 559
f 637 825 306
f 306 825 285
f 285 516 306
f 516 599 306
f 511 825 637
f 511 479 600
f 600 825 511
f 392 754 490
f 490 754 637
f 490 643 392
f 490 768 643
f 490 599 516
f 516 768 490
f 490 306 599
f 637 306 490
f 85 758 604
f 604 754 85
f 604 758 245
f 245 754 604
f 829 685 391
f 829 247 685
f 245 247 658
f 131 627 748
f 325 627 131
f 707 88 42
f 42 812 707
f 40 88 707
f 707 819 40
f 42 771 545
f 545 812 42
f 337 812 545
f 505 771 113
f 42 40 113
f 113 771 42
f 730 702 562
f 562 264 730
f 562 771 264
f 562 545 771
f 702 337 562
f 337 545 562
f 219 133 44
f 219 492 133
f 44 185 219
f 219 185 841
f 841 492 219
f 682 499 429
f 429 422 682
f 422 654 682
f 452 848 447
f 499 848 452
f 469 452 447
f 499 452 469
f 447 465 19
f 465 608 19
f 19 469 447
f 19 608 499
f 499 469 19
f 558 709 234
f 234 281 471
f 399 558 234
f 471 92 234
f 234 92 555
f 555 691 234
f 691 399 234
f 648 154 842
f 842 515 261
f 842 154 784
f 684 216 134
f 134 440 684
f 670 556 53
f 221 556 670
f 53 345 670
f 670 345 671
f 671 854 670
f 854 221 670
f 80 207 820
f 740 207 80
f 820 782 80
f 782 507 80
f 507 740 80
f 632 506 297
f 297 397 632
f 506 397 297
f 305 284 793
f 793 584 621
f 793 324 305
f 793 621 324
f 5 319 840
f 5 692 319
f 809 583 698
f 583 51 698
f 401 444 79
f 79 246 401
f 109 415 290
f 109 188 415
f 109 290 695
f 695 188 109
f 248 76 351
f 248 14 809
f 351 14 248
f 107 87 444
f 695 87 107
f 270 290 789
f 789 474 270
f 270 778 290
f 381 190 164
f 381 168 190
f 164 588 381
f 588 168 381
f 811 64 803
f 803 64 185
f 185 327 803
f 733 380 185
f 185 64 733
f 733 64 677
f 733 157 484
f 733 311 157
f 677 311 733
f 763 537 639
f 579 537 763
f 532 586 362
f 532 362 335
f 335 339 532
f 328 144 312
f 291 463 110
f 291 144 463
f 11 567 760
f 149 156 529
f 156 687 529
f 529 687 714
f 369 136 260
f 260 640 369
f 260 59 360
f 590 640 260
f 260 360 650
f 650 315 260
f 315 590 260
f 662 396 226
f 149 529 662
f 226 96 662
f 96 149 662
f 704 635 520
f 520 774 704
f 704 710 635
f 704 774 710
f 158 385 843
f 158 327 385
f 229 327 158
f 843 811 158
f 185 380 752
f 380 395 752
f 841 185 752
f 752 395 841
f 10 378 821
f 152 547 821
f 821 547 10
f 252 551 100
f 100 551 1
f 100 98 252
f 1 551 292
f 292 514 804
f 804 16 292
f 292 16 518
f 518 1 292
f 458 422 514
f 458 317 852
f 514 292 458
f 458 292 551
f 649 227 7
f 7 559 649
f 227 559 7
f 483 430 496
f 483 829 430
f 496 787 483
f 483 550 596
f 302 829 391
f 430 829 302
f 716 829 511
f 60 247 637
f 60 658 247
f 637 754 60
f 60 754 245
f 245 658 60
f 17 455 807
f 17 131 455
f 582 479 661
f 455 131 553
f 582 661 553
f 553 748 117
f 553 131 748
f 553 117 298
f 298 572 553
f 553 572 25
f 25 329 553
f 602 812 840
f 602 707 812
f 840 492 602
f 602 492 841
f 841 624 602
f 819 707 276
f 276 624 40
f 40 819 276
f 276 602 624
f 707 602 276
f 203 682 654
f 470 234 709
f 784 359 141
f 141 842 784
f 515 842 141
f 261 440 834
f 440 134 834
f 834 842 261
f 584 793 431
f 431 793 284
f 431 146 584
f 284 146 431
f 840 812 504
f 504 5 840
f 108 692 389
f 692 5 389
f 389 421 108
f 594 421 389
f 34 246 171
f 34 401 246
f 809 386 645
f 645 248 809
f 386 71 645
f 71 76 645
f 76 248 645
f 444 401 382
f 382 107 444
f 183 270 474
f 778 270 183
f 543 778 183
f 183 71 543
f 183 76 71
f 660 327 229
f 660 803 327
f 229 158 660
f 811 803 660
f 660 158 811
f 484 380 587
f 587 733 484
f 380 733 587
f 493 579 86
f 579 763 86
f 86 763 639
f 343 579 493
f 343 547 579
f 343 570 10
f 10 547 343
f 307 547 152
f 152 166 307
f 166 537 307
f 307 537 579
f 579 547 307
f 512 291 110
f 144 291 512
f 110 312 512
f 512 312 144
f 760 546 31
f 31 11 760
f 714 59 436
f 436 529 714
f 59 529 436
f 358 529 59
f 358 662 529
f 699 811 152
f 152 821 699
f 699 378 811
f 699 821 378
f 262 98 127
f 98 100 127
f 127 303 262
f 127 1 303
f 127 100 1
f 317 458 398
f 398 458 551
f 252 317 398
f 398 551 252
f 591 654 422
f 422 458 591
f 596 455 718
f 718 483 596
f 718 661 479
f 479 511 718
f 455 553 718
f 718 553 661
f 511 829 718
f 829 483 718
f 829 716 729
f 637 247 729
f 247 829 729
f 122 17 807
f 131 17 122
f 622 499 334
f 334 709 622
f 499 682 334
f 682 203 334
f 334 654 709
f 334 203 654
f 709 654 446
f 446 470 709
f 654 470 446
f 281 234 202
f 234 470 202
f 202 470 654
f 359 114 220
f 220 141 359
f 220 114 715
f 824 427 594
f 594 389 824
f 337 427 824
f 824 812 337
f 824 504 812
f 5 504 824
f 824 389 5
f 56 34 171
f 401 34 56
f 56 382 401
f 76 183 9
f 9 183 474
f 351 76 9
f 9 474 351
f 493 86 538
f 769 570 538
f 538 343 493
f 570 343 538
f 639 115 538
f 538 86 639
f 155 458 852
f 155 591 458
f 654 591 155
f 637 729 90
f 90 729 716
f 628 142 281
f 281 202 628
f 171 188 236
f 236 56 171
f 236 188 695
f 330 769 656
f 769 538 656
f 656 538 115
f 656 50 330
f 656 115 50
f 654 155 761
f 761 202 654
f 761 628 202
f 142 628 761
f 625 142 761
f 761 852 625
f 761 155 852
f 849 103 29
f 211 103 849
f 849 712 211
f 161 387 585
f 161 585 357
f 605 28 4
f 139 28 605
f 721 361 578
f 489 721 578
f 760 169 253
f 675 619 642
f 204 619 675
f 675 744 204
f 675 533 744
f 601 140 814
f 140 655 814
f 814 485 61
f 61 561 814
f 655 485 814
f 23 346 254
f 439 23 254
f 813 410 708
f 708 286 813
f 335 362 350
f 350 362 393
f 145 520 124
f 279 616 124
f 124 73 145
f 124 616 73
f 38 41 235
f 255 38 235
f 235 41 363
f 486 592 554
f 554 690 486
f 267 352 32
f 32 800 153
f 153 225 32
f 32 352 800
f 32 225 741
f 689 506 37
f 37 506 683
f 238 631 280
f 238 280 530
f 441 222 789
f 789 353 441
f 663 633 501
f 663 178 33
f 33 633 663
f 13 162 349
f 288 13 349
f 349 162 638
f 815 119 445
f 509 119 815
f 445 137 815
f 815 74 650
f 815 137 74
f 772 223 413
f 772 413 580
f 625 282 497
f 497 282 796
f 250 681 371
f 195 460 371
f 371 460 250
f 97 213 461
f 461 151 97
f 461 213 12
f 508 750 308
f 508 308 462
f 57 574 249
f 249 274 57
f 2 574 57
f 274 617 57
f 765 541 135
f 541 47 135
f 135 27 298
f 135 347 765
f 84 27 135
f 135 47 84
f 8 3 45
f 314 8 45
f 208 801 623
f 348 208 623
f 62 390 748
f 487 390 62
f 722 669 368
f 368 165 722
f 237 432 231
f 779 237 231
f 231 826 779
f 491 644 696
f 684 548 491
f 491 187 684
f 696 187 491
f 548 792 491
f 491 792 647
f 449 355 806
f 806 77 449
f 118 355 449
f 449 454 118
f 95 444 87
f 148 95 87
f 836 719 456
f 456 186 126
f 719 186 456
f 753 174 205
f 205 340 753
f 774 577 808
f 774 808 641
f 641 734 774
f 555 759 128
f 128 691 555
f 706 102 113
f 523 736 113
f 478 706 113
f 43 180 113
f 113 435 523
f 113 781 435
f 113 417 781
f 102 417 113
f 113 736 271
f 160 143 113
f 113 199 542
f 113 609 43
f 542 459 113
f 113 728 478
f 113 40 160
f 180 199 113
f 459 728 113
f 113 20 609
f 113 143 20
f 271 505 113
f 428 388 698
f 698 386 809
f 388 386 698
f 698 797 428
f 698 51 797
f 532 339 664
f 664 586 532
f 463 328 312
f 110 463 312
f 483 787 725
f 483 653 795
f 725 653 483
f 795 550 483
f 496 430 302
f 302 391 496
f 329 242 553
f 553 242 582
f 834 216 648
f 834 134 216
f 648 842 834
f 374 567 31
f 546 374 31
f 567 11 31
f 358 260 136
f 136 366 358
f 358 366 396
f 59 260 358
f 396 662 358
f 807 325 122
f 325 131 122
f 220 440 261
f 261 515 220
f 715 440 220
f 515 141 220
f 90 716 511
f 90 511 637
f 107 382 236
f 695 107 236
f 382 56 236

