# https://github.com/mikedh/trimesh
v 0.00762902 0.06155855 -0.14569349
v 0.04356162 0.06030148 -0.11526776
v 0.03762854 0.05012541 -0.12729580
v 0.00766067 0.06283363 -0.14490783
v 0.03674815 0.05974611 -0.12791700
v 0.00833002 0.06233873 -0.14517739
v 0.04201110 0.06223629 -0.11611676
v 0.04449377 0.06176087 -0.10961107
v 0.04457459 0.05787196 -0.11427215
v 0.04416812 0.06290709 -0.10460491
v 0.03143286 0.05699432 -0.13445457
v 0.04618135 0.05385681 -0.11034806
v 0.04083766 0.05990094 -0.12143885
v 0.02437376 0.06346940 -0.13699060
v 0.04394714 0.05352076 -0.11630746
v 0.04174478 0.06352720 -0.11036638
v 0.04190432 0.05005183 -0.10152709
v 0.04360933 0.06155855 -0.11324580
v 0.00268029 0.05198874 -0.14737095
v 0.04407256 0.05396468 -0.11604683
v 0.00236807 0.06026682 -0.14669456
v 0.03959257 0.05423411 -0.12434571
v 0.03672363 0.05116173 -0.12852431
v 0.01174207 0.05069992 -0.14593457
v 0.03349657 0.06087616 -0.13135973
v 0.04075012 0.05991297 -0.12159138
v 0.02404074 0.06171861 -0.13911383
v 0.03638780 0.06305802 -0.12514563
v 0.01300889 0.05588032 -0.14550766
v 0.03766859 0.05939213 -0.12672257
v 0.03781642 0.05204780 -0.12702217
v 0.03695564 0.05840025 -0.12795820
v 0.04372831 0.05936912 -0.11565263
v 0.02219676 0.06110191 -0.14051097
v 0.02726275 0.05804723 -0.13792488
v 0.01425028 0.05070701 -0.14519107
v 0.03164817 0.06353846 -0.13026154
v 0.04426175 0.06193960 -0.10990024
v 0.03009168 0.05314759 -0.13581305
v 0.02306288 0.05727622 -0.14087749
v 0.03586584 0.06214857 -0.12742502
v 0.00003848 0.06445248 -0.14211063
v 0.04223103 0.06142217 -0.11704847
v 0.01007438 0.06262032 -0.14454670
v 0.04355187 0.06004386 -0.11553433
v 0.00258991 0.05606652 -0.14725847
v 0.02301757 0.05379857 -0.14111618
v 0.02578183 0.05230676 -0.13930038
v 0.01836802 0.05328126 -0.14358175
v 0.04031140 0.06289062 -0.11835619
v 0.04753982 0.05602545 -0.10394388
v 0.03099976 0.05291510 -0.13495817
v 0.04710867 0.05280556 -0.10668403
v 0.00926214 0.05645830 -0.14640152
v 0.00665595 0.05661059 -0.14682079
v 0.01422487 0.06185401 -0.14387343
v 0.03714304 0.05989402 -0.12733641
v 0.02567253 0.05938263 -0.13891528
v 0.04149032 0.06355238 -0.11115459
v 0.03931533 0.05234547 -0.12481528
v 0.04503328 0.05295818 -0.11380946
v 0.01869010 0.06210881 -0.14184933
v 0.03229858 0.05953062 -0.13319628
v 0.03987245 0.06445248 -0.10472506
v 0.04201354 0.06287474 -0.11417579
v 0.02706704 0.05103307 -0.13833105
v 0.03503781 0.05104324 -0.13064398
v 0.00697180 0.06445248 -0.14199174
v 0.03923559 0.06272548 -0.12100938
v 0.04366877 0.05919004 -0.11590667
v 0.01849452 0.05162979 -0.14352632
v 0.04261970 0.06290817 -0.11212230
v 0.02360913 0.05818996 -0.14044945
v 0.00003519 0.05945248 -0.10413729
v 0.03414716 0.06366392 -0.12654101
v 0.04293737 0.06333268 -0.10719477
v 0.01753666 0.05222955 -0.14394786
v 0.00021076 0.05379102 -0.14744485
v 0.04488370 0.05853841 -0.11312537
v 0.02301445 0.05622038 -0.14099308
v 0.02724160 0.05765510 -0.13798201
v 0.03864402 0.05043914 -0.12581712
v 0.04112199 0.05507537 -0.12175742
v 0.03728892 0.06123757 -0.12622525
v 0.04366184 0.05859436 -0.11622999
v 0.04573544 0.05524982 -0.11175767
v 0.04573588 0.05623568 -0.11148015
v 0.01275247 0.06067034 -0.14484350
v 0.00242802 0.05918352 -0.14693719
v 0.00610352 0.05405708 -0.14704035
v 0.04031901 0.06335765 -0.11654839
v 0.04206036 0.05132953 -0.12013180
v 0.03290278 0.05021542 -0.13306091
v 0.02107463 0.05749122 -0.14205094
v 0.04233991 0.06371071 -0.10144645
v 0.03616751 0.06235955 -0.12669857
v 0.03619197 0.06108723 -0.12792959
v 0.02222097 0.06002141 -0.14090267
v 0.04578392 0.06032019 -0.10795126
v 0.03480310 0.05739618 -0.13080023
v 0.02085140 0.05806494 -0.14209712
v 0.04321120 0.06305240 -0.10867471
v 0.04493530 0.05946160 -0.11230685
v 0.04405187 0.05998158 -0.11433108
v 0.01466903 0.05369245 -0.14505493
v 0.01426994 0.05810759 -0.14489271
v 0.02644694 0.05650077 -0.13867819
v 0.01073117 0.06054336 -0.14538442
v 0.00068219 0.06031218 -0.14676659
v 0.02976099 0.06011197 -0.13540793
v 0.04277237 0.06235667 -0.11358971
v 0.03235295 0.06353356 -0.12945858
v 0.01952656 0.05999670 -0.14235437
v 0.00459396 0.05115179 -0.14722681
v 0.04511957 0.05251679 -0.11357537
v 0.01717446 0.06170975 -0.14278402
v 0.03610141 0.05642611 -0.12923481
v 0.02530296 0.05041840 -0.13963843
v 0.03192477 0.05016102 -0.13406849
v 0.04167766 0.05967771 -0.11994451
v 0.01806717 0.05999502 -0.14303356
v 0.01361866 0.06176049 -0.14411782
v 0.03004391 0.06151045 -0.13447996
v 0.04553907 0.06078104 -0.10802337
v 0.04549519 0.06147180 -0.10581588
v 0.02331782 0.06308411 -0.13841485
v 0.04697454 0.05850044 -0.10486742
v 0.00617441 0.06253789 -0.14535477
v 0.01834484 0.05406412 -0.14358240
v 0.03560298 0.06323771 -0.12594739
v 0.04686286 0.05437026 -0.10783319
v 0.01636775 0.05668610 -0.14428150
v 0.02161605 0.05685267 -0.14179675
v 0.03105478 0.06105853 -0.13382014
v 0.01641044 0.06267047 -0.14248684
v 0.04284759 0.06015388 -0.11710451
v 0.01262677 0.05742661 -0.14549496
v 0.00822372 0.05729029 -0.14653822
v 0.00826597 0.06349456 -0.14397009
v 0.03274204 0.06257296 -0.13081418
v 0.02493185 0.05646222 -0.13980684
v 0.00179036 0.05052215 -0.14740610
v 0.01176225 0.06160027 -0.14474348
v 0.03292139 0.05439486 -0.13301405
v 0.01884076 0.05268849 -0.14336706
v 0.00904697 0.05704702 -0.14640445
v 0.01666401 0.05177722 -0.14429587
v 0.01568838 0.06355148 -0.14161798
v 0.00904408 0.05186705 -0.14657064
v 0.03964200 0.06236815 -0.12095006
v 0.03666324 0.05474262 -0.12858735
v 0.04330026 0.05857074 -0.11699923
v 0.03427691 0.06165432 -0.12989199
v 0.00563080 0.05945248 -0.10013711
v 0.01484421 0.06038207 -0.14419569
v 0.04521373 0.06093927 -0.10902159
v 0.01012358 0.05647949 -0.14618981
v 0.03000771 0.06346617 -0.13221456
v 0.04447037 0.06110124 -0.11147007
v 0.03702419 0.05515897 -0.12809969
v 0.04130294 0.05402957 -0.12145990
v 0.01305168 0.05214582 -0.14557927
v 0.04719848 0.05795310 -0.10428325
v 0.01267091 0.05886446 -0.14531361
v 0.04536309 0.05689669 -0.11247705
v 0.04548880 0.05518404 -0.11248472
v 0.04398345 0.05162154 -0.11623298
v 0.04555904 0.05138656 -0.11238353
v 0.02400722 0.05974963 -0.13994807
v 0.03849237 0.05910143 -0.12556278
v 0.04522040 0.05224025 -0.11330191
v 0.02731606 0.06340169 -0.13485870
v 0.00379286 0.05784253 -0.14705519
v 0.02038762 0.05063311 -0.14258907
v 0.02551201 0.05805716 -0.13921946
v 0.02038526 0.05981308 -0.14200671
v 0.03814152 0.05993809 -0.12586125
v 0.03013907 0.06445248 -0.12884839
v 0.01466230 0.05410782 -0.14504411
v 0.02347181 0.06358633 -0.13733567
v 0.01846316 0.05402876 -0.14353172
v 0.04155875 0.05004561 -0.12102910
v 0.01346619 0.06124483 -0.14439245
v 0.02152667 0.06311960 -0.13943155
v 0.03963084 0.05882408 -0.12390487
v 0.01334086 0.06278906 -0.14349636
v 0.03576153 0.05286093 -0.12975557
v 0.04451033 0.06132405 -0.11084007
v 0.01928101 0.05895690 -0.14274501
v 0.04492699 0.06154864 -0.10857036
v 0.00196605 0.05827383 -0.14711982
v 0.04450863 0.05776750 -0.11447543
v 0.04757496 0.05303805 -0.10437643
v 0.02044847 0.05893807 -0.14217245
v 0.03125801 0.06184030 -0.13307777
v 0.04657335 0.05738370 -0.10803125
v 0.00447775 0.05541246 -0.14717939
v 0.01092977 0.05841814 -0.14580930
v 0.00139020 0.06044902 -0.14669264
v 0.03694713 0.06345900 -0.12316243
v 0.04494117 0.05176476 -0.11405520
v 0.04252650 0.05702276 -0.11901534
v 0.04100960 0.06101399 -0.12022040
v 0.01034618 0.05022165 -0.14628805
v 0.03894500 0.06083655 -0.12406883
v 0.04269251 0.05847611 -0.11830838
v 0.01260709 0.05968593 -0.14516177
v 0.04168556 0.05020167 -0.12081470
v 0.03924718 0.05410782 -0.12492524
v 0.03752157 0.05517207 -0.12742371
v 0.04364970 0.06159526 -0.11304688
v 0.03689476 0.06181925 -0.12626592
v 0.01101400 0.06076430 -0.14524943
v 0.04688633 0.05747422 -0.10637299
v 0.04549646 0.06123496 -0.10674251
v 0.02726185 0.06047755 -0.13737235
v 0.04611891 0.05378517 -0.11057270
v 0.00840260 0.05215819 -0.14669189
v 0.04099944 0.06013201 -0.12097941
v 0.03756027 0.06278913 -0.12389982
v 0.03239830 0.05495031 -0.13355409
v 0.04441870 0.05911276 -0.11407660
v 0.02778288 0.06204009 -0.13610419
v 0.03574791 0.05704792 -0.12964250
v 0.00627063 0.06353857 -0.14418082
v 0.02505308 0.05386415 -0.13981350
v 0.01197483 0.06044482 -0.14510881
v 0.03817742 0.06330069 -0.12151029
v 0.03397775 0.05390331 -0.13186238
v 0.01262147 0.06225040 -0.14415981
v 0.04265769 0.06327835 -0.10913148
v 0.01344229 0.05854160 -0.14511829
v 0.00105676 0.06024053 -0.14676771
v 0.04226551 0.05771625 -0.11939520
v 0.02500356 0.05666109 -0.13974551
v 0.04548773 0.05369672 -0.11257748
v 0.03205471 0.05010822 -0.13393462
v 0.04432613 0.05580226 -0.11531352
v 0.04731495 0.05162801 -0.10566331
v 0.04266791 0.06328362 -0.10903812
v 0.00513359 0.05057850 -0.14716336
v 0.00578110 0.06346170 -0.14441245
v 0.01285058 0.05229308 -0.14563415
v 0.00409830 0.06445248 -0.14232722
v 0.02695181 0.05787426 -0.13817408
v 0.00300895 0.05326858 -0.14734772
v 0.00125806 0.05067554 -0.14741916
v 0.02278959 0.05349696 -0.14126090
v 0.04540897 0.05483981 -0.11273421
v 0.02111244 0.06089172 -0.14124696
v 0.04189676 0.05884238 -0.11984830
v 0.04061594 0.06254586 -0.11853738
v 0.03006802 0.05214757 -0.13583534
v 0.00409595 0.05054166 -0.14727107
v 0.01103197 0.06445248 -0.14095628
v 0.03828241 0.05770989 -0.12613959
v 0.00722587 0.05302529 -0.14688912
v 0.02231091 0.06280270 -0.13933304
v 0.00350437 0.05428304 -0.14729518
v 0.03170412 0.06258829 -0.13188873
v 0.02737650 0.05505822 -0.13805496
v 0.01728110 0.05807413 -0.14378862
v 0.01008134 0.05887712 -0.14596794
v 0.02224007 0.05812753 -0.14127992
v 0.00001018 0.05816047 -0.14717558
v 0.03233595 0.06062591 -0.13269924
v 0.00122150 0.06357759 -0.14454080
v 0.04292659 0.05697604 -0.11819891
v 0.03080884 0.06072938 -0.13423255
v 0.03841888 0.06265350 -0.12265600
v 0.00158362 0.05358877 -0.14741117
v 0.04550186 0.05642473 -0.11220228
v 0.04270659 0.06291624 -0.11172220
v 0.03943752 0.06333666 -0.11877230
v 0.04649023 0.05724910 -0.10841463
v 0.00325841 0.06133010 -0.14631127
v 0.01725070 0.06445248 -0.13859356
v 0.04115881 0.06298309 -0.11607436
v 0.04100326 0.05376709 -0.12196649
v 0.03590366 0.06445248 -0.12020216
v 0.04660236 0.05747821 -0.10072069
v 0.04434653 0.06266319 -0.10575556
v 0.04499769 0.05371858 -0.11390617
v 0.04241233 0.05941135 -0.11851648
v 0.02675658 0.06202902 -0.13694086
v 0.04571320 0.05791157 -0.11086097
v 0.01145742 0.05061024 -0.14601170
v 0.00587289 0.06154553 -0.14595062
v 0.00341599 0.05365713 -0.14731898
v 0.04131595 0.06342742 -0.11312790
v 0.04309850 0.05332266 -0.11802792
v 0.03871079 0.05460620 -0.12570369
v 0.02823767 0.06307360 -0.13461599
v 0.02862980 0.06318546 -0.13410842
v 0.04309191 0.05866787 -0.11740554
v 0.04712172 0.05404798 -0.10660385
v 0.00974091 0.05538659 -0.14635153
v 0.04208981 0.05677346 -0.11993699
v 0.01531246 0.05972858 -0.14421822
v 0.01526408 0.05669450 -0.14467262
v 0.02741543 0.05628869 -0.13796766
v 0.00629824 0.05342323 -0.14702640
v 0.01149737 0.06076147 -0.14513284
v 0.04250361 0.06196003 -0.11541488
v 0.00651235 0.05219538 -0.14700123
v 0.04679289 0.05960393 -0.10399806
v 0.03283578 0.06246605 -0.13082831
v 0.00895492 0.05832877 -0.14628459
v 0.03131688 0.05169866 -0.13465965
v 0.01471310 0.05336742 -0.14504069
v 0.00167698 0.06445248 -0.14253918
v 0.02101553 0.05152283 -0.14227325
v 0.04810018 0.05194403 -0.10078123
v 0.04425588 0.06101227 -0.11238243
v 0.04750147 0.05523596 -0.10443623
v 0.00233669 0.05058293 -0.14739291
v 0.01132103 0.06291473 -0.14398611
v 0.01724132 0.06319024 -0.14155203
v 0.00356573 0.06346295 -0.14468589
v 0.03732387 0.05228956 -0.12772646
v 0.03688618 0.06330379 -0.12377868
v 0.03932036 0.05943719 -0.12421515
v 0.03037698 0.05792970 -0.13531193
v 0.03164631 0.05256844 -0.13434951
v 0.03798527 0.05504744 -0.12675106
v 0.02428808 0.05457241 -0.14028383
v 0.02422641 0.05363704 -0.14034868
v 0.04144850 0.06262542 -0.11646934
v 0.03998442 0.05026137 -0.10227393
v 0.01906507 0.06182061 -0.14184457
v 0.04276202 0.06313016 -0.11001083
v 0.00038912 0.05391008 -0.14743768
v 0.04510304 0.05723736 -0.11310545
v 0.03657453 0.05985696 -0.12811852
v 0.01457808 0.05396719 -0.14507854
v 0.00548115 0.05411925 -0.14711114
v 0.02581977 0.06324933 -0.13636374
v 0.03050255 0.05790660 -0.13520205
v 0.03911311 0.05136269 -0.12513404
v 0.03757086 0.05676307 -0.12731458
v 0.02878036 0.05111001 -0.13696829
v 0.03515637 0.05508768 -0.13047265
v 0.03319151 0.05941068 -0.13226272
v 0.04180318 0.05188949 -0.12061626
v 0.01952648 0.06326757 -0.14038636
v 0.04774585 0.05000962 -0.10152731
v 0.03238030 0.05161359 -0.13359913
v 0.04465845 0.06020784 -0.11233880
v 0.03894758 0.06027338 -0.12443067
v 0.01370945 0.05327829 -0.14536602
v 0.02178724 0.06207616 -0.14023501
v 0.04424941 0.05220619 -0.11569038
v 0.02697786 0.06102320 -0.13735303
v 0.04733025 0.05407484 -0.10557151
v 0.02859657 0.06024206 -0.13637594
v 0.04515172 0.05714640 -0.11301033
v 0.00888956 0.05861809 -0.14626228
v 0.00425205 0.05455459 -0.14723201
v 0.04668254 0.05866113 -0.10622375
v 0.00184444 0.05341062 -0.14740477
v 0.03732359 0.05234291 -0.12772682
v 0.03625086 0.05850868 -0.12882794
v 0.04699590 0.05557762 -0.10694872
v 0.00867167 0.06206575 -0.14525902
v 0.04175615 0.06068757 -0.11895004
v 0.03644891 0.06042233 -0.12798561
v 0.01514285 0.06052053 -0.14404995
v 0.03606174 0.06076462 -0.12827963
v 0.03761913 0.06445248 -0.10002104
v 0.02408297 0.05708080 -0.14027998
v 0.04430603 0.06054396 -0.11295193
v 0.04667047 0.05703587 -0.10785550
v 0.00539313 0.05998855 -0.14652078
v 0.01647232 0.06014717 -0.14369454
v 0.04236300 0.06353264 -0.10721814
v 0.04583357 0.05378945 -0.11158042
v 0.01141659 0.06220878 -0.14450103
v 0.02610604 0.05088469 -0.13907146
v 0.04816531 0.05188914 -0.10019297
v 0.04296751 0.05027868 -0.11829213
v 0.00610982 0.06442151 -0.14220959
v 0.04265674 0.05404801 -0.11891346
v 0.00723709 0.05458935 -0.14685637
v 0.01728158 0.05805360 -0.14379067
v 0.01982503 0.06264595 -0.14092211
v 0.02791729 0.05694825 -0.13754900
v 0.03748148 0.06097457 -0.12615554
v 0.02620420 0.05300071 -0.13900220
v 0.00395514 0.05595839 -0.14719918
v 0.04260396 0.06144446 -0.11618525
v 0.02681610 0.05227324 -0.13852681
v 0.02781818 0.05002772 -0.13774511
v 0.03434984 0.05574070 -0.13139940
v 0.03182673 0.05152982 -0.13416943
v 0.04131857 0.06340820 -0.11329289
v 0.01930323 0.06365462 -0.13963378
v 0.02261272 0.05528359 -0.14129061
v 0.02215680 0.05056690 -0.14163592
v 0.03226054 0.06282947 -0.13099052
v 0.02135336 0.05574808 -0.14201711
v 0.04513371 0.06176594 -0.10659615
v 0.00494087 0.06037528 -0.14648212
v 0.02034721 0.06111525 -0.14158019
v 0.01666685 0.05903664 -0.14389729
v 0.04091115 0.05788570 -0.12186815
v 0.00895136 0.06133855 -0.14553180
v 0.04205109 0.05838525 -0.11968482
v 0.03945708 0.06232387 -0.12135706
v 0.02625759 0.06215245 -0.13721452
v 0.00752646 0.06355202 -0.14396783
v 0.04804219 0.05021414 -0.10141643
v 0.02218597 0.06445248 -0.13578510
v 0.03989390 0.06352815 -0.11653878
v 0.03819522 0.06255547 -0.12325123
v 0.01686741 0.05687812 -0.14408601
v 0.01694495 0.05679613 -0.14406619
v 0.03487254 0.06184543 -0.12898248
v 0.04681268 0.05567658 -0.10783496
v 0.03323680 0.05041861 -0.13269729
v 0.02309106 0.05782733 -0.14080146
v 0.03994487 0.05011836 -0.12375286
v 0.04191502 0.05245159 -0.12042695
v 0.04370622 0.05543438 -0.11670040
v 0.03724830 0.06064978 -0.12671555
v 0.01229395 0.06169074 -0.14456844
v 0.01270104 0.05643960 -0.14556053
v 0.04578881 0.05843514 -0.11030343
v 0.04032824 0.05707937 -0.12303177
v 0.03596922 0.05251390 -0.12950063
v 0.03941914 0.05049208 -0.12464015
v 0.03240355 0.06220785 -0.13155598
v 0.02497936 0.06445248 -0.10004476
v 0.04215286 0.06354343 -0.10821064
v 0.04705836 0.05579019 -0.10654358
v 0.03475985 0.05458674 -0.13096960
v 0.02472734 0.06325006 -0.13715426
v 0.02354008 0.05417022 -0.14077256
v 0.04068555 0.05730304 -0.12236678
v 0.01326080 0.06344615 -0.14269847
v 0.03825116 0.06445248 -0.11388134
v 0.04264704 0.05053775 -0.11894199
v 0.00234955 0.05697350 -0.14720660
v 0.03255751 0.06272173 -0.13081796
v 0.03357192 0.06332675 -0.12849829
v 0.04437613 0.05237491 -0.11539367
v 0.03583827 0.06111690 -0.12835015
v 0.04556695 0.05513578 -0.11228930
v 0.04718581 0.05669131 -0.10544979
v 0.03178538 0.05680625 -0.13413551
v 0.04405706 0.06156939 -0.11184981
v 0.04608665 0.06074266 -0.10507766
v 0.02471132 0.06248136 -0.13806682
v 0.00684027 0.05601287 -0.14682960
v 0.01628945 0.05110214 -0.14443730
v 0.02910629 0.05807488 -0.13643348
v 0.03828061 0.06243902 -0.12330752
v 0.04399671 0.06026782 -0.11419905
v 0.01555665 0.05364835 -0.14472393
v 0.04052272 0.05867445 -0.12238028
v 0.02714391 0.06179356 -0.13682009
v 0.01737399 0.05082005 -0.14401969
v 0.00933799 0.05861144 -0.14616896
v 0.03171946 0.06114838 -0.13306858
v 0.00584072 0.05866151 -0.14673554
v 0.04507448 0.06012474 -0.11104095
v 0.00801847 0.05476861 -0.14671819
v 0.03114581 0.05798384 -0.13461612
v 0.01333091 0.06356055 -0.14242402
v 0.04663457 0.05999825 -0.10401735
v 0.01378180 0.05890748 -0.14495982
v 0.04624115 0.06063899 -0.10382793
v 0.04172450 0.05682670 -0.12060338
v 0.04622245 0.05961014 -0.10714873
v 0.00483141 0.06196446 -0.14590299
v 0.01512530 0.06241376 -0.14320066
v 0.04291583 0.06039826 -0.11673816
v 0.04549789 0.05960912 -0.11031204
v 0.04517481 0.05920192 -0.11179949
v 0.03942459 0.06334982 -0.11874299
v 0.03884519 0.06182636 -0.12320971
v 0.04701911 0.05243341 -0.10712724
v 0.00040791 0.05941731 -0.14698057
v 0.02872671 0.05040779 -0.13701450
v 0.04471952 0.05217139 -0.11458964
v 0.00833717 0.06142608 -0.14564097
v 0.03905738 0.05678458 -0.12509395
v 0.03418427 0.05698036 -0.13154010
v 0.04234233 0.06095561 -0.11739034
v 0.01416050 0.05883260 -0.14485613
v 0.04714788 0.05452435 -0.10641574
v 0.02173927 0.05069277 -0.14187263
v 0.00922393 0.05493351 -0.14648641
v 0.01475909 0.06018448 -0.10004667
v 0.04232440 0.06167225 -0.11646990
v 0.00216868 0.05408889 -0.14738723
v 0.02992954 0.05950593 -0.13549351
v 0.04812580 0.05250582 -0.10026218
v 0.03235280 0.05517924 -0.13359559
v 0.02415284 0.05016174 -0.14039508
v 0.03223717 0.06445248 -0.12628317
v 0.01853303 0.05426241 -0.14348928
v 0.03790579 0.05699720 -0.12679420
v 0.04741574 0.05348963 -0.10516429
v 0.04418276 0.05866832 -0.11493273
v 0.00045337 0.06375165 -0.14364332
v 0.03379114 0.05991860 -0.13149665
v 0.01911807 0.06074132 -0.14230931
v 0.00389419 0.06118011 -0.14633590
v 0.00153316 0.06300313 -0.14538368
v 0.03337985 0.05321595 -0.13253723
v 0.02169689 0.05458173 -0.14186739
v 0.01564404 0.05932573 -0.14420071
v 0.01518629 0.06171309 -0.14359664
v 0.03928855 0.06445248 -0.10871237
v 0.04741556 0.05613115 -0.10455337
v 0.03894715 0.06445248 -0.10036536
v 0.00279552 0.05059473 -0.14736285
v 0.04535152 0.06014391 -0.11003525
v 0.00457022 0.06251819 -0.14560013
v 0.01011265 0.06361829 -0.14320246
v 0.02545308 0.06251845 -0.13749496
v 0.04657274 0.05407730 -0.10893750
v 0.04149311 0.06198689 -0.11777141
v 0.04261861 0.06284836 -0.11240387
v 0.03771392 0.06220533 -0.12456887
v 0.01153017 0.05299989 -0.14599191
v 0.04673189 0.05420019 -0.10835970
v 0.00058341 0.05154217 -0.14743570
v 0.03490369 0.05845649 -0.13054479
v 0.00456450 0.05239401 -0.14723027
v 0.00069254 0.05945248 -0.10026409
v 0.02253900 0.05939606 -0.14092495
v 0.04394555 0.05670788 -0.11611678
v 0.02092035 0.05640634 -0.14221845
v 0.00802855 0.05065989 -0.14675450
v 0.02730801 0.06280232 -0.13579326
v 0.02232881 0.05590800 -0.14142643
v 0.01757138 0.06289554 -0.14173550
v 0.03846026 0.06301880 -0.12184366
v 0.03747068 0.05818719 -0.12728808
v 0.01075098 0.05380473 -0.14620019
v 0.02248332 0.05219493 -0.14145081
v 0.03109894 0.06093106 -0.13385547
v 0.04369457 0.05721096 -0.11656895
v 0.01868937 0.06190484 -0.14197134
v 0.00428612 0.05282225 -0.14725759
v 0.01070095 0.06137094 -0.14509231
v 0.00630428 0.05163801 -0.14702570
v 0.01654117 0.05391290 -0.14434117
v 0.03666360 0.06253573 -0.12568494
v 0.03854720 0.05717710 -0.12581409
v 0.03336735 0.05406009 -0.13253608
v 0.04547202 0.05923008 -0.11081455
v 0.03300033 0.06319453 -0.12952555
v 0.00797306 0.05808475 -0.14648972
v 0.03643065 0.05086320 -0.12891375
v 0.04098261 0.06122694 -0.12003885
v 0.04482839 0.05856818 -0.11326863
v 0.01078084 0.06363593 -0.14298337
v 0.00366672 0.05023152 -0.14730137
v 0.00118329 0.05669220 -0.14728116
v 0.03617033 0.05013028 -0.12925381
v 0.04516156 0.06162094 -0.10709992
v 0.04586817 0.05866244 -0.10989334
v 0.04367046 0.06071854 -0.11451432
v 0.04576332 0.05989618 -0.10878996
v 0.04477600 0.06239811 -0.10513703
v 0.02271635 0.05141013 -0.14130723
v 0.01892662 0.06352993 -0.14017680
v 0.01366540 0.05913501 -0.14494876
v 0.00253112 0.05816303 -0.14710344
v 0.03977362 0.05334854 -0.12404180
v 0.00295964 0.05442222 -0.14732829
v 0.04257952 0.05982307 -0.11797331
v 0.03665401 0.05983910 -0.12801794
v 0.03466292 0.05434228 -0.13108857
v 0.04386963 0.05862941 -0.11572127
v 0.04212437 0.06308355 -0.11282183
v 0.04426694 0.06265619 -0.10630573
v 0.04296533 0.06307301 -0.10018091
v 0.02845462 0.05712972 -0.13711973
v 0.04602161 0.06046530 -0.10623791
v 0.03980942 0.06210463 -0.12106837
v 0.04581260 0.06057494 -0.10711972
v 0.04812275 0.05056443 -0.10056345
v 0.03376204 0.06271165 -0.12937068
v 0.00961604 0.06445248 -0.14136935
v 0.02789530 0.05878894 -0.13735370
v 0.04357896 0.05014612 -0.11705242
v 0.03263908 0.05871291 -0.13298773
v 0.03461910 0.05968821 -0.13058544
v 0.03576909 0.05810090 -0.12949560
v 0.03453733 0.06291655 -0.12808382
v 0.04021314 0.06344765 -0.11627863
v 0.04680622 0.05523230 -0.10796491
v 0.00008895 0.05945248 -0.10092328
v 0.04255522 0.06171416 -0.11582089
v 0.01219256 0.06139201 -0.14471965
v 0.03206504 0.05172075 -0.13392391
v 0.02929004 0.06054036 -0.13564426
v 0.04193778 0.06306130 -0.11354643
v 0.01719225 0.05517670 -0.14404579
v 0.02803119 0.05277586 -0.13757897
v 0.03125402 0.06114754 -0.13355425
v 0.04137441 0.06254046 -0.11685838
v 0.01822034 0.05444625 -0.14362211
v 0.04373283 0.06290851 -0.10736272
v 0.02282909 0.06356373 -0.13785712
v 0.03052617 0.05417310 -0.13538070
v 0.03499490 0.05322994 -0.13069662
v 0.02983747 0.06117547 -0.13485780
v 0.02651991 0.06278319 -0.13645839
v 0.01500365 0.06445248 -0.13962185
v 0.00116014 0.05612821 -0.14732231
v 0.01494738 0.06289017 -0.14283055
v 0.02433660 0.06445248 -0.13394982
v 0.03721847 0.06206086 -0.12549740
v 0.03345986 0.05964918 -0.13192805
v 0.04430572 0.06240559 -0.10788298
v 0.01907087 0.05017228 -0.14325134
v 0.03458573 0.05326880 -0.13118632
v 0.04665652 0.05810393 -0.10693186
v 0.00583036 0.05560281 -0.14699784
v 0.03668516 0.05513113 -0.12854844
v 0.02646815 0.06029020 -0.13801777
v 0.00563819 0.06185177 -0.14584064
v 0.04446857 0.06016638 -0.11294008
v 0.03415437 0.06027513 -0.13093408
v 0.00059716 0.05906133 -0.14705002
v 0.03555886 0.05541126 -0.12996557
v 0.02675742 0.06368958 -0.13440626
v 0.04513081 0.05448084 -0.11348292
v 0.01912979 0.06325686 -0.14058505
v 0.03716642 0.05666521 -0.12787370
v 0.04678958 0.05279060 -0.10820374
v 0.03553094 0.05428467 -0.13002923
v 0.01470471 0.06348679 -0.14211402
v 0.04657592 0.05369013 -0.10895861
v 0.03694733 0.06281049 -0.12478752
v 0.04000476 0.05688699 -0.12362816
v 0.02920424 0.06362359 -0.13254496
v 0.00008868 0.06445248 -0.11781819
v 0.01991297 0.05915993 -0.14239728
v 0.02776022 0.06259765 -0.13562113
v 0.03294291 0.05992270 -0.13238574
v 0.01854163 0.05895295 -0.14311009
v 0.04742802 0.05470134 -0.10501743
v 0.04755110 0.05413245 -0.10447490
v 0.04098452 0.06075554 -0.12050447
v 0.00261846 0.06102371 -0.14645206
v 0.04517154 0.06201353 -0.10513788
v 0.00760558 0.06231105 -0.14530268
v 0.02707019 0.06121071 -0.13718826
v 0.02555755 0.05409673 -0.13944909
v 0.00001172 0.06445248 -0.13382884
v 0.02920099 0.05535657 -0.13654913
v 0.03410440 0.05350132 -0.13172556
v 0.04604459 0.05876496 -0.10910189
v 0.04136807 0.05929286 -0.12068815
v 0.04816268 0.05154696 -0.10013289
v 0.04515963 0.05411170 -0.11345104
v 0.02834151 0.05804607 -0.13712115
v 0.01758577 0.06312675 -0.14147817
v 0.01370841 0.05976138 -0.14477249
v 0.00182692 0.06294927 -0.14542017
v 0.03451755 0.05028500 -0.13126250
v 0.00689611 0.05274918 -0.14694436
v 0.01675928 0.06014889 -0.14359320
v 0.03252328 0.06297876 -0.13050036
v 0.04472874 0.05673751 -0.11423869
v 0.01325214 0.05662259 -0.14539180
v 0.03422842 0.05022367 -0.13158640
v 0.04398716 0.06200020 -0.11076235
v 0.03912941 0.05233177 -0.12511028
v 0.03909799 0.05903928 -0.12466805
v 0.00170826 0.05473884 -0.14737308
v 0.04581716 0.05314609 -0.11163818
v 0.02973157 0.06125314 -0.13490514
v 0.01998568 0.06157427 -0.14154751
v 0.01449300 0.05882782 -0.14474091
v 0.04667796 0.05103748 -0.10859736
v 0.04238201 0.06308065 -0.11199687
v 0.02835644 0.05202818 -0.13732525
v 0.04676549 0.05331704 -0.10828898
v 0.01811082 0.05911656 -0.14327170
v 0.03453169 0.05801441 -0.13106356
v 0.01489256 0.06162005 -0.14375746
v 0.04621669 0.05387414 -0.11022103
v 0.04636362 0.05950344 -0.10660484
v 0.03721907 0.05688654 -0.12779627
v 0.03211001 0.06186567 -0.13216161
v 0.01698970 0.06048054 -0.14338134
v 0.04600377 0.05684433 -0.11032361
v 0.04145655 0.05915032 -0.12057707
v 0.02301929 0.06056400 -0.14024756
v 0.02155148 0.06110955 -0.14088655
v 0.00547823 0.05621439 -0.14701216
v 0.03564957 0.06003978 -0.12920972
v 0.00699645 0.05384236 -0.14692688
v 0.04442766 0.06135723 -0.11106151
v 0.00780883 0.05082582 -0.14679133
v 0.02765480 0.06083905 -0.13695296
v 0.02092034 0.06346267 -0.13922358
v 0.03993260 0.05672414 -0.12376190
v 0.03815272 0.06339491 -0.12112881
v 0.00025358 0.06206179 -0.14612861
v 0.04549343 0.05927102 -0.10014889
v 0.00574529 0.05651467 -0.14695640
v 0.01177007 0.06195858 -0.14456203
v 0.00087804 0.05384773 -0.14742772
v 0.03869523 0.05286560 -0.12574248
v 0.00230352 0.06146112 -0.14630840
v 0.04416077 0.05484911 -0.11579665
v 0.02653782 0.06318991 -0.13593809
v 0.03901073 0.06161173 -0.12318414
v 0.01231969 0.05329512 -0.14577797
v 0.00911875 0.05703835 -0.14638780
v 0.02805914 0.06245341 -0.13550403
v 0.00116527 0.05945248 -0.10023922
v 0.03646948 0.06120860 -0.12748019
v 0.04664151 0.05555911 -0.10848285
v 0.02566646 0.06151665 -0.13804582
v 0.01977391 0.06281791 -0.14079757
v 0.03197470 0.05835208 -0.13376492
v 0.03303526 0.05114416 -0.13292339
v 0.02826524 0.05950402 -0.13689941
v 0.03764587 0.06285210 -0.12365058
v 0.02901859 0.06215726 -0.13493221
v 0.02052714 0.05070749 -0.14251889
v 0.02449346 0.05575595 -0.14011274
v 0.03814812 0.06002517 -0.12579899
v 0.04233534 0.06369479 -0.10062628
v 0.01314558 0.06238273 -0.14390668
v 0.04159274 0.06221476 -0.11709684
v 0.04564884 0.05156766 -0.11214008
v 0.04193964 0.05161866 -0.12037668
v 0.04253799 0.05792682 -0.11878703
v 0.04201322 0.05560574 -0.12014622
v 0.01878565 0.05639937 -0.14323610
v 0.00774290 0.05405290 -0.14679329
v 0.01039351 0.06261617 -0.14447163
v 0.04815069 0.05193646 -0.10035613
v 0.04512926 0.06084204 -0.10960096
v 0.00382088 0.05823341 -0.14701230
v 0.03267525 0.05417451 -0.13328695
v 0.00856889 0.06274317 -0.14482197
v 0.00102773 0.06297326 -0.14543718
v 0.04731368 0.05589672 -0.10066680
v 0.03641159 0.06359592 -0.12341194
v 0.02609809 0.05499337 -0.13901940
v 0.04444971 0.06185072 -0.10947304
v 0.04051232 0.05783333 -0.12258390
v 0.01850080 0.06071160 -0.14260573
v 0.03989266 0.05998824 -0.12302996
v 0.03945240 0.05473073 -0.12458029
v 0.00715627 0.05172683 -0.14690072
v 0.03442132 0.05883425 -0.13105253
v 0.00103727 0.05906924 -0.14703814
v 0.01599449 0.05384309 -0.14455558
v 0.03161723 0.05450598 -0.13435832
v 0.03091614 0.06089603 -0.13406416
v 0.04401976 0.05530212 -0.11606324
v 0.04300184 0.05731474 -0.11797144
v 0.04720591 0.05142047 -0.10620294
v 0.00493109 0.05691888 -0.14703406
v 0.01508941 0.05218054 -0.14489876
v 0.02690798 0.05389282 -0.13845323
v 0.04466035 0.05964584 -0.11297407
v 0.00837625 0.05097495 -0.14669625
v 0.02407395 0.05993268 -0.13984101
v 0.02999480 0.05722083 -0.13572751
v 0.01578647 0.06097877 -0.14367784
v 0.03681760 0.06114156 -0.12701405
v 0.04628169 0.05936106 -0.10732431
v 0.04220720 0.06339443 -0.10999292
v 0.03831693 0.05805662 -0.12604014
v 0.03527615 0.05395860 -0.13034863
v 0.01130411 0.05178367 -0.14605320
v 0.01466335 0.05104947 -0.14505713
v 0.00503503 0.05916471 -0.14675642
v 0.00601643 0.05973534 -0.14649805
v 0.04421042 0.05684903 -0.11546897
v 0.04061346 0.06219152 -0.11932368
v 0.04479197 0.06211269 -0.10680171
v 0.00345881 0.05008779 -0.14731605
v 0.02897578 0.06330258 -0.13359895
v 0.04779948 0.05438326 -0.10045947
v 0.04589559 0.05121246 -0.11136055
v 0.01980212 0.05036527 -0.14288355
v 0.04465814 0.06108336 -0.11085677
v 0.02315410 0.05927208 -0.14058459
v 0.01563350 0.05808354 -0.14440842
v 0.01951966 0.05684848 -0.14285880
v 0.02885172 0.06087967 -0.13588838
v 0.04215244 0.06258691 -0.11470875
v 0.01369167 0.05286058 -0.14537183
v 0.04461329 0.05455613 -0.11476606
v 0.01298720 0.05320112 -0.14559710
v 0.04342673 0.05961789 -0.11624025
v 0.03935653 0.05488186 -0.12472879
v 0.04187621 0.05564003 -0.12039941
v 0.02085662 0.05870156 -0.14200807
v 0.01480401 0.06445248 -0.10006580
v 0.01974764 0.05861219 -0.14256864
v 0.04640635 0.05555056 -0.10931803
v 0.00463458 0.05447421 -0.14719703
v 0.04205686 0.06231582 -0.11576313
v 0.04308350 0.05586736 -0.11795382
v 0.00463801 0.06114193 -0.14627659
v 0.00811808 0.05273281 -0.14673959
v 0.04658843 0.05850981 -0.10687601
v 0.02862945 0.05354314 -0.13709787
v 0.02860118 0.05375992 -0.13712216
v 0.04062445 0.05565466 -0.12259851
v 0.03773206 0.05462798 -0.12712841
v 0.04466292 0.05389293 -0.11471541
v 0.00559701 0.06266200 -0.14534687
v 0.02384667 0.06094252 -0.13961628
v 0.03988080 0.06445248 -0.10107384
v 0.00021829 0.05567687 -0.14738422
v 0.04487720 0.05163514 -0.11421798
v 0.01376142 0.06116808 -0.14432218
v 0.00553484 0.05519216 -0.14706356
f 74 655 265
f 642 74 596
f 655 74 642
f 596 528 247
f 596 785 329
f 785 17 329
f 329 531 596
f 17 531 329
f 78 528 596
f 596 74 78
f 78 74 265
f 265 820 78
f 369 493 660
f 660 493 154
f 719 660 154
f 531 660 719
f 596 531 803
f 803 642 596
f 531 719 803
f 803 719 154
f 154 493 803
f 142 785 596
f 596 247 142
f 346 17 785
f 785 392 346
f 620 392 785
f 271 78 710
f 265 655 42
f 369 660 707
f 585 531 17
f 585 660 531
f 17 346 585
f 379 660 585
f 432 493 369
f 432 803 493
f 528 78 316
f 316 247 528
f 316 78 271
f 316 142 247
f 785 142 316
f 316 517 785
f 332 78 820
f 820 710 332
f 332 710 78
f 706 482 265
f 265 42 706
f 369 707 580
f 204 620 785
f 562 392 237
f 392 620 499
f 748 787 306
f 707 787 748
f 95 819 732
f 471 580 707
f 744 191 89
f 46 614 442
f 495 573 289
f 271 710 495
f 495 710 820
f 517 316 19
f 316 495 19
f 339 60 430
f 589 346 182
f 182 346 392
f 182 3 421
f 392 562 182
f 182 562 3
f 620 461 71
f 620 204 36
f 36 461 620
f 398 499 620
f 39 813 656
f 64 819 95
f 10 76 95
f 95 732 10
f 10 732 580
f 580 471 10
f 413 280 440
f 440 594 413
f 280 413 479
f 479 413 594
f 412 172 14
f 178 500 112
f 587 468 559
f 255 468 587
f 613 468 255
f 439 317 139
f 139 559 439
f 439 559 468
f 439 468 637
f 42 311 267
f 411 346 589
f 411 585 346
f 497 51 787
f 497 787 707
f 497 660 379
f 497 707 660
f 306 787 163
f 787 51 163
f 516 732 819
f 369 580 516
f 580 732 516
f 707 748 281
f 758 89 191
f 744 89 780
f 55 138 453
f 781 485 357
f 571 191 744
f 561 442 614
f 561 614 820
f 561 820 265
f 265 191 561
f 46 442 389
f 389 495 46
f 573 495 389
f 442 571 389
f 360 316 271
f 271 495 360
f 360 495 316
f 820 614 676
f 676 495 820
f 246 495 289
f 246 19 495
f 339 430 82
f 82 430 421
f 421 3 82
f 208 182 344
f 736 92 208
f 208 92 441
f 441 380 208
f 208 380 589
f 589 182 208
f 685 262 404
f 404 668 685
f 113 176 685
f 262 685 646
f 646 685 176
f 416 262 384
f 262 646 384
f 620 71 145
f 499 398 568
f 261 813 767
f 672 562 237
f 119 483 253
f 237 392 119
f 392 483 119
f 609 39 656
f 674 60 339
f 593 444 130
f 76 10 607
f 567 10 651
f 651 10 471
f 651 784 567
f 395 594 440
f 440 290 395
f 290 775 395
f 274 50 539
f 608 412 180
f 180 14 608
f 412 14 180
f 669 399 786
f 172 641 786
f 123 702 460
f 431 195 260
f 294 786 260
f 260 786 399
f 123 761 611
f 285 460 27
f 54 138 146
f 416 179 132
f 132 179 671
f 602 416 606
f 396 277 412
f 396 412 608
f 404 680 512
f 512 668 404
f 680 668 512
f 587 139 68
f 520 139 587
f 587 559 520
f 520 559 139
f 139 317 746
f 746 4 139
f 6 4 746
f 746 44 6
f 319 267 311
f 6 377 364
f 709 364 377
f 706 665 519
f 42 267 747
f 747 665 706
f 267 319 747
f 450 111 673
f 518 743 99
f 99 566 518
f 518 566 477
f 448 163 51
f 469 471 707
f 707 281 469
f 469 748 306
f 469 281 748
f 629 191 265
f 629 758 191
f 265 482 629
f 482 758 629
f 482 706 109
f 109 758 482
f 109 233 758
f 464 780 781
f 781 357 464
f 744 780 464
f 146 138 308
f 198 137 146
f 744 464 765
f 765 464 138
f 765 138 55
f 358 546 289
f 302 336 90
f 530 546 302
f 546 336 302
f 755 22 60
f 60 22 572
f 113 685 121
f 121 685 668
f 461 549 77
f 511 145 181
f 312 145 511
f 461 36 779
f 542 568 398
f 542 312 511
f 253 483 341
f 767 813 603
f 813 483 683
f 683 603 813
f 683 483 392
f 656 813 581
f 813 261 581
f 338 771 581
f 467 771 338
f 338 323 467
f 628 25 446
f 93 672 237
f 309 119 253
f 309 324 119
f 392 499 118
f 118 378 392
f 226 388 48
f 48 118 226
f 226 118 499
f 378 388 66
f 392 378 66
f 47 511 397
f 320 361 3
f 96 593 550
f 270 727 539
f 617 212 41
f 41 593 96
f 554 593 669
f 444 593 554
f 112 444 554
f 749 500 280
f 280 200 749
f 749 200 500
f 500 200 75
f 75 200 130
f 130 444 75
f 112 500 75
f 75 444 112
f 280 479 705
f 705 200 280
f 428 752 438
f 417 41 720
f 212 84 720
f 720 41 212
f 334 757 591
f 190 784 563
f 282 10 567
f 282 607 10
f 619 38 673
f 751 38 619
f 567 784 619
f 190 751 619
f 619 784 190
f 59 290 440
f 59 775 290
f 440 514 433
f 76 775 433
f 76 607 102
f 50 274 278
f 278 601 65
f 172 786 714
f 714 786 294
f 728 260 195
f 728 195 123
f 616 641 412
f 178 641 616
f 631 172 412
f 412 641 631
f 631 641 172
f 37 178 112
f 37 641 178
f 112 554 37
f 355 110 496
f 110 355 600
f 678 702 123
f 123 611 678
f 794 611 761
f 702 678 794
f 794 678 611
f 794 355 702
f 794 600 355
f 446 25 153
f 417 720 153
f 691 195 431
f 431 153 691
f 691 153 25
f 195 691 463
f 463 691 25
f 452 27 258
f 653 460 702
f 335 179 105
f 105 798 335
f 297 541 492
f 492 54 297
f 146 137 717
f 717 54 146
f 415 262 416
f 671 489 106
f 106 489 680
f 759 179 416
f 416 602 759
f 105 179 759
f 759 458 105
f 759 602 549
f 147 458 759
f 759 549 461
f 461 147 759
f 137 198 164
f 570 164 207
f 613 277 148
f 637 468 148
f 148 468 613
f 148 318 637
f 244 68 381
f 244 319 311
f 381 319 244
f 225 319 381
f 822 687 772
f 186 733 317
f 317 439 186
f 317 733 230
f 230 709 377
f 230 733 56
f 665 319 817
f 817 519 665
f 817 319 4
f 505 706 42
f 42 747 505
f 505 747 706
f 509 319 665
f 665 747 509
f 509 747 319
f 215 563 125
f 190 563 215
f 8 450 673
f 673 38 8
f 8 38 751
f 8 751 190
f 190 700 8
f 8 700 450
f 103 478 768
f 103 348 477
f 768 348 103
f 752 185 459
f 589 352 821
f 821 352 484
f 411 648 313
f 313 648 51
f 193 411 239
f 193 648 411
f 503 648 193
f 214 622 163
f 163 448 214
f 214 448 372
f 774 566 99
f 477 566 774
f 471 469 451
f 451 651 471
f 125 651 451
f 451 215 125
f 462 308 357
f 146 308 462
f 263 357 485
f 485 108 263
f 263 462 357
f 263 108 207
f 207 164 263
f 263 164 198
f 263 198 146
f 146 462 263
f 138 464 555
f 555 464 357
f 744 765 173
f 173 765 389
f 173 571 744
f 173 389 571
f 289 573 259
f 259 358 289
f 114 254 546
f 114 546 530
f 546 358 806
f 806 336 546
f 699 302 90
f 90 823 699
f 793 384 646
f 416 384 793
f 793 739 416
f 501 181 606
f 606 416 501
f 416 739 501
f 534 181 501
f 501 793 534
f 739 793 501
f 511 181 400
f 400 181 534
f 534 133 400
f 400 133 537
f 400 397 511
f 537 397 400
f 49 145 71
f 49 181 145
f 549 602 129
f 129 77 549
f 129 49 77
f 181 49 129
f 454 147 461
f 461 779 454
f 105 458 310
f 248 511 47
f 248 542 511
f 47 568 248
f 568 542 248
f 253 341 812
f 812 39 253
f 813 39 812
f 725 672 419
f 419 93 725
f 672 93 419
f 119 324 394
f 725 93 347
f 327 568 47
f 327 326 226
f 327 226 499
f 499 568 327
f 388 226 654
f 767 388 654
f 818 702 625
f 169 58 791
f 58 588 175
f 141 654 226
f 73 175 235
f 791 58 73
f 58 175 73
f 3 361 31
f 639 550 593
f 220 550 639
f 639 727 220
f 130 200 321
f 539 727 321
f 525 212 617
f 715 212 525
f 96 550 525
f 525 550 220
f 220 456 525
f 525 41 96
f 617 41 525
f 220 727 414
f 414 456 220
f 727 270 414
f 431 260 140
f 479 274 228
f 228 705 479
f 228 274 539
f 200 705 228
f 539 321 228
f 228 321 200
f 279 572 22
f 344 182 279
f 484 352 445
f 773 84 387
f 387 720 773
f 773 720 84
f 387 731 424
f 424 720 387
f 690 540 340
f 340 210 690
f 757 334 529
f 591 628 698
f 698 334 591
f 366 334 698
f 698 368 366
f 628 368 698
f 57 334 366
f 57 424 731
f 366 720 57
f 720 424 57
f 784 651 401
f 401 563 784
f 401 651 125
f 125 563 401
f 579 282 567
f 567 619 579
f 607 282 579
f 579 619 607
f 16 59 440
f 775 59 16
f 440 433 16
f 16 433 775
f 375 514 64
f 375 433 514
f 76 433 375
f 95 76 375
f 375 64 95
f 240 775 76
f 76 102 240
f 65 601 524
f 524 619 673
f 524 111 65
f 673 111 524
f 682 395 775
f 601 278 91
f 594 395 91
f 395 601 91
f 91 479 594
f 91 274 479
f 91 278 274
f 337 14 172
f 172 714 337
f 612 714 536
f 123 460 223
f 223 728 123
f 223 460 285
f 285 612 223
f 158 786 641
f 641 37 158
f 669 786 158
f 158 554 669
f 158 37 554
f 123 195 134
f 134 761 123
f 543 463 25
f 543 266 761
f 25 266 543
f 761 134 543
f 543 134 463
f 521 452 612
f 258 27 351
f 353 653 702
f 353 702 818
f 818 27 353
f 722 27 460
f 460 653 722
f 722 353 27
f 653 353 722
f 135 318 663
f 663 538 135
f 350 798 105
f 350 162 798
f 24 162 36
f 29 798 541
f 29 335 798
f 671 179 29
f 179 335 29
f 300 132 671
f 671 106 300
f 415 106 792
f 792 106 680
f 262 415 792
f 404 262 792
f 792 680 404
f 137 164 232
f 232 164 489
f 671 137 232
f 232 489 671
f 489 164 470
f 470 570 489
f 164 570 470
f 299 668 680
f 703 396 608
f 318 148 633
f 633 148 345
f 633 663 318
f 345 663 633
f 367 772 668
f 410 225 381
f 410 68 139
f 381 68 410
f 319 225 242
f 139 4 242
f 4 319 242
f 242 410 139
f 225 410 242
f 733 186 475
f 56 733 475
f 135 116 475
f 615 318 135
f 135 475 615
f 615 475 186
f 615 186 439
f 615 439 637
f 637 318 615
f 741 230 377
f 741 377 6
f 6 44 741
f 317 230 741
f 741 746 317
f 44 746 741
f 519 817 128
f 6 652 128
f 652 519 128
f 128 4 6
f 128 817 4
f 402 485 781
f 474 519 652
f 706 519 474
f 124 156 190
f 190 215 124
f 124 584 99
f 215 451 124
f 451 584 124
f 99 743 124
f 743 156 124
f 190 156 188
f 188 700 190
f 188 156 743
f 627 348 768
f 465 518 477
f 477 348 465
f 314 465 348
f 477 564 553
f 553 103 477
f 478 103 553
f 658 564 477
f 477 774 658
f 693 165 286
f 286 165 356
f 457 627 768
f 348 627 457
f 768 478 222
f 632 661 283
f 168 788 589
f 589 821 168
f 742 497 379
f 411 313 742
f 51 497 742
f 742 313 51
f 379 585 742
f 585 411 742
f 51 648 315
f 648 647 315
f 354 648 503
f 689 469 306
f 306 774 689
f 485 364 143
f 364 709 143
f 709 230 425
f 425 143 709
f 598 143 425
f 254 114 241
f 241 560 254
f 785 560 241
f 197 358 389
f 197 806 358
f 197 697 823
f 389 765 197
f 765 697 197
f 383 699 823
f 383 453 138
f 302 699 305
f 804 802 101
f 532 802 176
f 791 802 532
f 532 176 98
f 98 169 532
f 532 169 791
f 189 646 643
f 643 646 176
f 789 398 620
f 491 729 312
f 491 542 398
f 312 542 491
f 398 789 491
f 766 454 779
f 779 310 766
f 766 310 458
f 391 388 767
f 767 603 391
f 391 66 388
f 386 581 261
f 261 301 386
f 301 107 386
f 386 107 235
f 591 757 506
f 506 628 591
f 25 628 506
f 506 266 25
f 269 63 496
f 761 63 269
f 496 110 269
f 110 600 269
f 269 794 761
f 600 794 269
f 324 52 760
f 760 52 39
f 39 609 760
f 609 449 760
f 771 467 11
f 467 449 11
f 656 581 11
f 11 581 771
f 11 609 656
f 11 449 609
f 724 449 467
f 724 467 496
f 496 63 724
f 97 720 366
f 366 368 97
f 446 153 97
f 97 153 720
f 97 628 446
f 97 368 628
f 767 654 750
f 750 261 767
f 654 141 750
f 750 141 235
f 750 301 261
f 818 625 770
f 770 625 58
f 770 169 818
f 58 169 770
f 216 625 702
f 58 625 216
f 581 386 662
f 662 588 496
f 726 355 496
f 496 588 726
f 702 355 726
f 726 216 702
f 726 588 58
f 58 216 726
f 80 397 537
f 80 141 397
f 537 133 80
f 235 141 370
f 370 73 235
f 370 80 133
f 141 80 370
f 47 397 730
f 397 141 730
f 226 326 730
f 730 141 226
f 3 562 23
f 562 556 23
f 23 320 3
f 325 210 340
f 340 292 325
f 60 674 209
f 209 755 60
f 209 704 755
f 209 292 340
f 361 210 815
f 815 31 361
f 727 639 28
f 130 321 28
f 28 321 727
f 28 593 130
f 28 639 593
f 694 13 659
f 387 84 205
f 205 731 387
f 205 349 731
f 205 212 715
f 205 84 212
f 659 13 120
f 120 694 659
f 539 50 69
f 69 270 539
f 111 450 211
f 450 314 211
f 50 278 328
f 328 278 65
f 715 525 480
f 480 525 456
f 593 41 586
f 669 593 586
f 586 140 669
f 443 399 669
f 669 140 443
f 443 260 399
f 443 140 260
f 307 41 417
f 417 153 307
f 307 586 41
f 140 586 307
f 307 153 431
f 431 140 307
f 752 428 640
f 640 185 752
f 167 352 589
f 167 15 352
f 670 632 283
f 816 445 352
f 484 445 816
f 283 821 816
f 816 821 484
f 675 322 185
f 100 529 592
f 100 393 487
f 177 57 731
f 30 57 177
f 731 349 177
f 349 322 177
f 322 675 177
f 334 57 575
f 331 682 775
f 331 240 102
f 102 682 331
f 578 601 395
f 395 682 578
f 72 524 601
f 619 524 72
f 126 714 612
f 126 452 258
f 612 452 126
f 258 184 126
f 608 14 126
f 126 703 608
f 184 345 126
f 345 703 126
f 612 536 644
f 644 223 612
f 195 463 604
f 604 134 195
f 463 134 604
f 409 612 285
f 409 521 612
f 452 521 409
f 285 27 409
f 27 452 409
f 258 351 385
f 385 351 679
f 507 176 113
f 507 403 176
f 113 121 507
f 507 121 668
f 679 403 507
f 507 116 679
f 695 169 98
f 818 169 695
f 696 351 27
f 679 351 696
f 696 403 679
f 162 350 796
f 36 162 796
f 204 541 287
f 287 36 204
f 287 24 36
f 798 162 243
f 162 24 243
f 541 297 426
f 426 29 541
f 426 137 671
f 671 29 426
f 668 299 374
f 374 367 668
f 155 367 374
f 664 570 207
f 664 374 299
f 489 570 664
f 680 489 664
f 664 299 680
f 396 703 569
f 569 703 345
f 277 396 569
f 345 148 569
f 569 148 277
f 772 687 513
f 513 116 772
f 513 475 116
f 513 687 56
f 56 475 513
f 781 780 373
f 373 402 781
f 780 402 373
f 485 402 809
f 809 402 508
f 508 474 809
f 21 780 89
f 21 402 780
f 89 758 21
f 758 233 21
f 508 402 21
f 233 109 21
f 706 474 712
f 712 109 706
f 109 712 650
f 582 451 469
f 582 584 451
f 582 469 99
f 99 584 582
f 450 700 159
f 159 314 450
f 418 693 372
f 372 448 418
f 272 165 693
f 356 165 272
f 661 632 249
f 632 670 249
f 564 658 196
f 196 214 372
f 622 214 196
f 427 286 478
f 478 553 427
f 427 553 564
f 565 314 371
f 371 457 565
f 371 314 348
f 348 457 371
f 136 799 574
f 136 476 799
f 565 457 2
f 2 476 565
f 799 476 2
f 203 205 715
f 79 286 356
f 478 286 79
f 104 222 799
f 104 2 457
f 104 457 768
f 768 222 104
f 788 168 735
f 201 821 283
f 201 168 821
f 163 622 811
f 811 359 163
f 622 196 811
f 811 196 658
f 811 658 774
f 774 359 811
f 306 163 127
f 163 359 127
f 127 774 306
f 127 359 774
f 99 469 473
f 469 689 473
f 473 774 99
f 473 689 774
f 406 108 485
f 406 213 108
f 485 143 406
f 108 213 303
f 213 406 303
f 687 822 183
f 122 230 56
f 122 425 230
f 122 183 425
f 56 687 122
f 687 183 122
f 708 765 55
f 708 697 765
f 823 697 623
f 623 383 823
f 453 383 623
f 535 204 785
f 785 241 535
f 492 740 466
f 466 54 492
f 138 54 466
f 466 383 138
f 94 133 534
f 534 793 94
f 804 101 94
f 94 802 791
f 94 101 802
f 646 804 94
f 94 793 646
f 189 643 194
f 176 802 194
f 194 643 176
f 729 491 174
f 174 491 789
f 618 506 757
f 63 506 618
f 645 63 761
f 645 506 63
f 761 266 645
f 266 506 645
f 725 347 745
f 324 760 745
f 745 347 599
f 599 394 745
f 745 394 324
f 487 449 686
f 449 724 686
f 686 724 757
f 686 100 487
f 757 529 686
f 529 100 686
f 757 724 590
f 590 724 63
f 562 672 666
f 666 672 725
f 725 621 666
f 610 621 576
f 35 175 588
f 588 662 35
f 496 467 455
f 455 662 496
f 455 467 323
f 40 370 133
f 73 370 40
f 47 730 437
f 437 730 326
f 437 327 47
f 326 327 437
f 486 640 704
f 31 815 711
f 711 815 292
f 711 209 674
f 292 209 711
f 349 205 754
f 754 322 349
f 150 69 783
f 456 414 150
f 150 414 270
f 270 69 150
f 111 211 304
f 18 314 565
f 18 211 314
f 597 304 18
f 18 304 211
f 252 69 50
f 783 69 252
f 472 428 438
f 472 640 428
f 797 670 283
f 283 816 797
f 540 30 170
f 170 675 540
f 30 177 170
f 170 177 675
f 592 529 32
f 540 690 32
f 32 100 592
f 32 30 540
f 32 57 30
f 634 690 210
f 634 117 690
f 361 556 151
f 576 393 435
f 393 100 435
f 435 610 576
f 775 240 231
f 231 331 775
f 240 331 231
f 273 72 682
f 273 682 102
f 273 102 607
f 607 619 273
f 619 72 273
f 436 337 714
f 714 126 436
f 14 337 436
f 436 126 14
f 293 644 536
f 293 714 294
f 293 536 714
f 294 260 293
f 260 644 293
f 260 728 718
f 718 644 260
f 728 223 718
f 223 644 718
f 723 184 258
f 258 385 723
f 723 345 184
f 723 663 345
f 538 663 723
f 135 538 723
f 723 385 135
f 62 385 679
f 62 116 135
f 135 385 62
f 692 507 668
f 668 772 692
f 772 116 692
f 34 27 818
f 34 696 27
f 818 695 250
f 250 34 818
f 696 34 250
f 403 696 250
f 250 695 98
f 98 176 250
f 176 403 250
f 157 297 54
f 157 426 297
f 54 717 157
f 157 717 137
f 137 426 157
f 485 809 288
f 288 809 474
f 276 474 508
f 276 712 474
f 508 650 276
f 276 650 712
f 508 21 199
f 199 650 508
f 199 21 109
f 109 650 199
f 700 188 790
f 790 159 700
f 790 188 743
f 314 159 790
f 743 518 790
f 518 465 790
f 465 314 790
f 693 418 87
f 87 272 693
f 86 272 87
f 647 418 363
f 166 249 670
f 564 196 275
f 275 196 372
f 372 693 275
f 693 286 275
f 365 136 574
f 476 136 365
f 649 365 574
f 203 365 649
f 205 203 649
f 557 203 715
f 783 523 557
f 557 523 494
f 558 222 478
f 478 79 558
f 558 79 356
f 799 2 45
f 45 104 799
f 2 104 45
f 547 143 598
f 547 406 143
f 598 303 547
f 547 303 406
f 88 303 598
f 88 183 822
f 598 425 88
f 425 183 88
f 88 664 207
f 88 367 155
f 155 374 88
f 374 664 88
f 88 822 772
f 772 367 88
f 548 305 756
f 492 541 149
f 149 740 492
f 791 73 264
f 264 94 791
f 133 94 264
f 498 760 449
f 498 449 487
f 487 393 552
f 63 618 343
f 343 590 63
f 343 618 757
f 757 590 343
f 562 666 67
f 67 666 621
f 621 610 67
f 235 175 245
f 175 35 245
f 420 40 133
f 73 40 420
f 133 264 420
f 420 264 73
f 704 209 800
f 800 486 704
f 502 486 340
f 551 486 502
f 340 540 502
f 26 754 205
f 322 754 26
f 185 322 26
f 26 459 185
f 26 694 459
f 13 694 26
f 284 120 574
f 356 670 9
f 456 150 408
f 640 486 776
f 185 640 776
f 551 256 776
f 776 486 551
f 776 256 540
f 540 675 776
f 776 675 185
f 438 752 405
f 405 472 438
f 752 459 405
f 459 694 405
f 298 472 407
f 407 405 694
f 472 405 407
f 814 704 83
f 704 640 83
f 736 208 422
f 422 208 344
f 344 279 422
f 15 382 20
f 352 15 20
f 20 816 352
f 670 797 238
f 238 797 533
f 362 529 334
f 334 32 362
f 362 32 529
f 334 575 5
f 5 32 334
f 5 575 57
f 57 32 5
f 224 32 690
f 100 32 224
f 690 117 224
f 634 151 624
f 429 556 562
f 429 151 556
f 160 210 361
f 361 151 160
f 160 634 210
f 160 151 634
f 679 116 330
f 330 62 679
f 116 507 753
f 753 692 116
f 507 692 753
f 541 798 716
f 716 526 541
f 778 287 541
f 541 526 778
f 485 288 1
f 1 652 6
f 6 364 1
f 1 364 485
f 86 87 805
f 589 788 681
f 681 411 589
f 434 363 418
f 574 120 219
f 219 649 574
f 219 120 13
f 13 26 219
f 205 649 219
f 219 26 205
f 583 408 150
f 715 480 583
f 583 557 715
f 583 150 783
f 783 557 583
f 583 480 456
f 456 408 583
f 565 476 390
f 494 597 390
f 390 18 565
f 597 18 390
f 203 557 488
f 476 365 488
f 488 365 203
f 488 390 476
f 283 661 236
f 61 201 283
f 61 115 201
f 168 201 171
f 201 115 171
f 481 53 764
f 239 411 764
f 411 681 764
f 503 53 296
f 296 354 503
f 296 131 490
f 296 53 481
f 481 131 296
f 296 490 647
f 296 647 648
f 648 354 296
f 227 88 207
f 303 88 227
f 207 108 227
f 108 303 227
f 548 756 701
f 701 241 548
f 701 535 241
f 667 305 699
f 667 756 305
f 769 149 204
f 204 535 769
f 221 745 760
f 760 498 221
f 221 498 745
f 229 393 576
f 229 552 393
f 487 552 144
f 144 552 745
f 144 498 487
f 745 498 144
f 81 245 35
f 81 662 386
f 81 35 662
f 81 386 235
f 235 245 81
f 799 222 33
f 33 70 799
f 577 70 504
f 504 33 222
f 70 33 504
f 222 558 504
f 558 9 504
f 333 558 356
f 356 9 333
f 333 9 558
f 192 9 670
f 65 111 795
f 111 807 795
f 795 328 65
f 795 807 328
f 328 807 7
f 494 523 7
f 7 597 494
f 7 304 597
f 111 304 7
f 7 807 111
f 694 120 251
f 251 407 694
f 120 284 251
f 291 382 15
f 291 422 382
f 382 422 738
f 161 422 279
f 161 279 22
f 814 83 161
f 83 422 161
f 816 20 713
f 713 797 816
f 533 797 713
f 670 238 782
f 782 238 533
f 782 192 670
f 630 624 151
f 630 224 117
f 100 224 630
f 151 429 636
f 636 630 151
f 116 62 545
f 545 330 116
f 62 330 545
f 626 288 474
f 626 1 288
f 626 474 652
f 652 1 626
f 721 87 418
f 721 805 87
f 86 805 721
f 635 131 481
f 684 131 635
f 481 764 635
f 635 764 681
f 363 434 515
f 515 434 448
f 515 448 51
f 43 488 557
f 390 488 43
f 43 557 494
f 494 390 43
f 735 236 677
f 677 236 376
f 788 735 677
f 661 249 447
f 447 236 661
f 249 166 447
f 376 236 447
f 86 376 447
f 447 272 86
f 356 272 447
f 447 670 356
f 447 166 670
f 257 667 699
f 699 740 810
f 810 257 699
f 740 149 810
f 576 621 657
f 657 229 576
f 657 621 725
f 734 523 783
f 734 7 523
f 783 252 734
f 252 7 734
f 328 7 605
f 50 328 605
f 605 7 252
f 605 252 50
f 202 268 298
f 533 713 762
f 762 713 20
f 801 738 422
f 801 422 83
f 298 738 801
f 801 472 298
f 577 192 85
f 192 782 85
f 85 70 577
f 799 70 85
f 574 799 85
f 85 284 574
f 342 435 100
f 100 630 342
f 630 636 342
f 610 435 777
f 595 721 418
f 490 131 595
f 595 418 647
f 647 490 595
f 86 721 595
f 149 769 218
f 218 810 149
f 510 657 725
f 725 745 510
f 745 552 510
f 552 229 510
f 229 657 510
f 298 407 234
f 234 202 298
f 808 20 298
f 298 268 808
f 544 85 782
f 544 782 533
f 533 268 544
f 202 763 544
f 268 202 544
f 407 206 544
f 407 251 295
f 295 206 407
f 295 251 284
f 284 85 295
f 610 777 187
f 187 777 636
f 187 636 429
f 684 638 527
f 638 522 527
f 527 131 684
f 527 595 131
f 86 595 527
f 527 522 86
f 12 376 86
f 423 762 20
f 20 808 423
f 407 544 737
f 737 544 763
f 206 295 152
f 152 295 85
f 376 12 217
f 217 12 638
f 688 522 638
f 638 12 688
f 86 522 688
f 688 12 86
f 191 571 561
f 561 571 442
f 46 495 676
f 676 614 46
f 52 309 253
f 253 39 52
f 324 309 52
f 118 388 378
f 48 388 118
f 244 42 655
f 655 642 244
f 369 516 244
f 244 255 587
f 642 803 244
f 244 432 369
f 412 277 244
f 803 432 244
f 440 280 244
f 280 500 244
f 244 514 440
f 587 68 244
f 244 311 42
f 819 64 244
f 500 178 244
f 244 277 613
f 613 255 244
f 244 516 819
f 64 514 244
f 244 616 412
f 178 616 244
f 555 308 138
f 357 308 555
f 389 358 259
f 573 389 259
f 560 246 289
f 785 517 560
f 517 19 560
f 19 246 560
f 289 546 560
f 546 254 560
f 461 77 49
f 49 71 461
f 606 181 129
f 129 602 606
f 812 341 483
f 812 483 813
f 237 119 347
f 347 93 237
f 119 394 347
f 347 394 599
f 279 430 60
f 421 430 279
f 279 182 421
f 60 572 279
f 300 415 416
f 416 132 300
f 300 106 415
f 197 823 90
f 90 336 197
f 336 806 197
f 548 241 305
f 530 302 305
f 305 114 530
f 305 241 114
f 147 454 766
f 766 458 147
f 603 683 391
f 391 683 392
f 392 66 391
f 235 107 750
f 750 107 301
f 23 556 361
f 361 320 23
f 815 325 292
f 210 325 815
f 72 578 682
f 601 578 72
f 796 779 36
f 105 310 796
f 796 310 779
f 796 350 105
f 623 708 55
f 55 453 623
f 697 708 623
f 466 740 699
f 699 383 466
f 194 804 646
f 194 646 189
f 194 802 804
f 145 312 174
f 620 145 174
f 312 729 174
f 174 789 620
f 338 581 455
f 455 323 338
f 581 662 455
f 339 82 711
f 711 82 3
f 711 674 339
f 3 31 711
f 286 427 275
f 275 427 564
f 149 541 204
f 340 486 800
f 800 209 340
f 540 256 502
f 502 256 551
f 24 287 778
f 798 243 778
f 778 243 24
f 778 716 798
f 526 716 778
f 434 418 448
f 171 236 735
f 283 236 171
f 171 735 168
f 171 61 283
f 115 61 171
f 764 193 239
f 503 193 764
f 764 53 503
f 192 504 9
f 577 504 192
f 589 380 291
f 291 167 589
f 291 92 736
f 291 380 441
f 441 92 291
f 15 167 291
f 736 422 291
f 738 20 382
f 298 20 738
f 22 755 161
f 161 704 814
f 755 704 161
f 117 634 630
f 634 624 630
f 515 315 647
f 51 315 515
f 647 363 515
f 640 472 801
f 801 83 640
f 777 342 636
f 435 342 777
f 218 769 535
f 667 257 218
f 218 701 756
f 535 701 218
f 756 667 218
f 257 810 218
f 187 67 610
f 562 67 187
f 187 429 562
f 533 762 423
f 423 268 533
f 423 808 268
f 737 763 202
f 737 234 407
f 202 234 737
f 85 544 152
f 152 544 206
f 217 635 681
f 217 638 684
f 217 681 788
f 684 635 217
f 788 677 217
f 217 677 376

