# https://github.com/mikedh/trimesh
v -0.02173490 -0.03655645 0.00243015
v -0.04121697 -0.01011849 0.00250000
v -0.01789047 -0.03850440 0.00246837
v -0.03834778 -0.01850623 0.00236255
v -0.03736289 -0.02162740 0.00183047
v -0.00021140 -0.01209363 0.00000000
v -0.00038070 -0.01340212 0.00000000
v -0.04250219 -0.00311616 0.00234303
v -0.03042066 -0.03141896 0.00126265
v -0.03705492 -0.02371694 0.00086712
v -0.03604772 -0.02405990 0.00164233
v -0.02579059 -0.03565199 0.00085312
v -0.01900043 -0.00006181 0.00250000
v -0.00002222 -0.00146574 0.00000000
v -0.04066446 -0.01681077 0.00041915
v -0.00005063 -0.03447959 0.00250000
v -0.00005843 -0.00408207 0.00000000
v -0.04340877 -0.00045279 0.00157145
v -0.03751586 -0.02099698 0.00200698
v -0.03663245 -0.02164284 0.00242564
v -0.03725762 -0.02159543 0.00193538
v -0.00064869 -0.04155639 0.00250000
v -0.02367445 -0.03697480 0.00107922
v -0.00624380 -0.01355336 0.00000000
v -0.04367618 -0.00514300 0.00082180
v -0.03734815 -0.01986167 0.00250000
v -0.01042238 -0.04116589 0.00250000
v -0.00704157 -0.04438009 0.00006380
v -0.01641838 -0.00020662 0.00250000
v -0.04182354 -0.01073686 0.00181443
v -0.04273512 -0.00695145 0.00165045
v -0.02574110 -0.03568809 0.00032975
v -0.03831366 -0.02161851 0.00041211
v -0.02057292 -0.03760625 0.00212972
v -0.04297836 -0.00667652 0.00146622
v -0.01454053 -0.00196611 0.00000000
v -0.01276838 -0.04208699 0.00067032
v -0.00050896 -0.04497035 0.00001427
v -0.04102457 -0.01589067 0.00051065
v -0.03082333 -0.02907745 0.00250000
v -0.04139958 -0.01474619 0.00076432
v -0.02651944 -0.03402303 0.00185633
v -0.03983806 -0.01549302 0.00222927
v -0.03088892 -0.03099860 0.00119673
v -0.03651932 -0.02236296 0.00214298
v -0.00319206 -0.04323014 0.00165686
v -0.01398373 -0.04127454 0.00141291
v -0.03764210 -0.02178490 0.00151000
v -0.03368506 -0.02646413 0.00213400
v -0.00587624 -0.04390391 0.00069331
v -0.00193315 -0.01452065 0.00000000
v -0.00344023 -0.04241670 0.00243707
v -0.02491272 -0.03625295 0.00071552
v -0.01593647 -0.03955725 0.00234757
v -0.03086314 -0.03064855 0.00149914
v -0.02400870 -0.03685324 0.00092013
v -0.03622247 -0.02217952 0.00247780
v -0.01415316 -0.00113552 0.00000000
v -0.04223548 -0.00314876 0.00250000
v -0.03714369 -0.02357397 0.00018729
v -0.00258005 -0.04232321 0.00250000
v -0.02477808 -0.00000324 0.00250000
v -0.04070666 -0.01647128 0.00108709
v -0.03103652 -0.03037120 0.00156728
v -0.03713596 -0.02038746 0.00250000
v -0.04202474 -0.01028149 0.00173426
v -0.04051311 -0.01690852 0.00110213
v -0.04111141 -0.01476735 0.00131665
v -0.03713387 -0.02073258 0.00245832
v -0.04110718 -0.01567609 0.00030748
v -0.00270226 -0.01471669 0.00000000
v -0.04062968 -0.01250868 0.00245268
v -0.03967061 -0.01519960 0.00248551
v -0.02559044 -0.03544345 0.00128630
v -0.04110382 -0.01212822 0.00211673
v -0.01142686 -0.00016015 0.00000000
v -0.00402280 -0.04464358 0.00016673
v -0.03063197 -0.03138372 0.00098877
v -0.00958539 -0.01151020 0.00000000
v -0.04143111 -0.01279212 0.00161771
v -0.03752914 -0.02295370 0.00097096
v -0.04169612 -0.00133535 0.00250000
v -0.04227195 -0.00347075 0.00250000
v -0.00659106 -0.04350464 0.00100113
v -0.02991145 -0.03159699 0.00149185
v -0.04090849 -0.01491566 0.00145064
v -0.00615200 -0.04278751 0.00177339
v -0.00017799 -0.01580466 0.00250000
v -0.03234411 -0.02896861 0.00006158
v -0.02957931 -0.03070492 0.00233984
v -0.00027421 -0.01291924 0.00000000
v -0.04210971 -0.00642315 0.00233626
v -0.00503661 -0.04442595 0.00027455
v -0.04263651 -0.00544264 0.00198106
v -0.01451484 -0.04103861 0.00146626
v -0.04376753 -0.00233152 0.00111746
v -0.03467983 -0.02468104 0.00242366
v -0.02732222 -0.03432323 0.00112747
v -0.03035962 -0.03144268 0.00128843
v -0.00533797 -0.04205860 0.00250000
v -0.03898989 -0.02039347 0.00014661
v -0.03785405 -0.02243066 0.00031557
v -0.03508726 -0.02476690 0.00204903
v -0.01309137 -0.04174795 0.00125000
v -0.03443374 -0.02616774 0.00174499
v -0.03699056 -0.02166293 0.00212410
v -0.01671489 -0.03959600 0.00202004
v -0.03243577 -0.02833266 0.00192439
v -0.02220240 -0.03798962 0.00069200
v -0.04383221 -0.00340541 0.00006602
v -0.03058449 -0.03132655 0.00121376
v -0.04211169 -0.01038111 0.00159144
v -0.03932327 -0.01969424 0.00080880
v -0.00013101 -0.03773633 0.00250000
v -0.04371863 -0.00499398 0.00087687
v -0.04056268 -0.01696344 0.00103518
v -0.03832733 -0.02139566 0.00109727
v -0.04232839 -0.00673311 0.00207623
v -0.03745745 -0.02208437 0.00151320
v -0.00492783 -0.04259807 0.00209875
v -0.03291498 -0.02758139 0.00203441
v -0.03323076 -0.02687121 0.00222371
v -0.02156376 -0.03750254 0.00173998
v -0.02920888 -0.03288440 0.00038995
v -0.04395837 -0.00090456 0.00040531
v -0.02346903 -0.03721209 0.00059784
v -0.00500975 -0.04275752 0.00193191
v -0.03348983 -0.02592857 0.00250000
v -0.01025171 -0.04231756 0.00145729
v -0.01379444 -0.00574198 0.00000000
v -0.03910664 -0.02014863 0.00076902
v -0.02259451 -0.03571297 0.00250000
v -0.02527636 -0.03418612 0.00247285
v -0.01096286 -0.00014451 0.00000000
v -0.00169012 -0.04247040 0.00247476
v -0.02976774 -0.03027564 0.00250000
v -0.00014397 -0.04419070 0.00080904
v -0.03713683 -0.02193809 0.00185816
v -0.00724122 -0.04186735 0.00249069
v -0.00013319 -0.01816638 0.00250000
v -0.04316264 -0.00404687 0.00163540
v -0.04034045 -0.01756065 0.00097137
v -0.03157542 -0.02861922 0.00238854
v -0.03528279 -0.02492751 0.00180005
v -0.01101381 -0.04252097 0.00107466
v -0.00994384 -0.04241988 0.00142545
v -0.01062166 -0.04300548 0.00015835
v -0.02273741 -0.03740304 0.00122800
v -0.02168020 -0.03740588 0.00176402
v -0.04397209 -0.00061329 0.00099674
v -0.00044101 -0.04087894 0.00250000
v -0.03943457 -0.01946080 0.00050982
v -0.04021962 -0.01396394 0.00241533
v -0.01524533 -0.04071511 0.00151987
v -0.00389972 -0.04461447 0.00020871
v -0.01275598 -0.04202541 0.00108313
v -0.02640222 -0.03520273 0.00028318
v -0.02258895 -0.03593925 0.00247727
v -0.03254137 -0.02781734 0.00216639
v -0.03208874 -0.02824956 0.00223988
v -0.01210131 -0.00032177 0.00000000
v -0.01716698 -0.03938404 0.00203109
v -0.04202948 -0.00554422 0.00250000
v -0.04099431 -0.00007754 0.00250000
v -0.04142904 -0.01327549 0.00148220
v -0.04175469 -0.01028133 0.00199354
v -0.01581623 -0.03915804 0.00250000
v -0.00260734 -0.04457562 0.00032794
v -0.00002768 -0.02927990 0.00250000
v -0.00783473 -0.04197597 0.00227951
v -0.04393944 -0.00128990 0.00006949
v -0.03585256 -0.02502857 0.00014801
v -0.00880340 -0.04331930 0.00079390
v -0.01959431 -0.03886658 0.00146677
v -0.00085897 -0.00009417 0.00000000
v -0.00884825 -0.04224538 0.00183664
v -0.02414350 -0.03676470 0.00001694
v -0.02919781 -0.00002326 0.00250000
v -0.02687522 -0.03429210 0.00142736
v -0.04315853 -0.00143335 0.00177198
v -0.02181712 -0.03814448 0.00000927
v -0.04139017 -0.01483172 0.00029806
v -0.03165964 -0.02989585 0.00019528
v -0.00649542 -0.04445593 0.00006397
v -0.00084391 -0.04258699 0.00238807
v -0.00945002 -0.04355489 0.00041900
v -0.02700365 -0.03263722 0.00250000
v -0.03905438 -0.01974097 0.00121209
v -0.04293773 -0.00544647 0.00168932
v -0.02885937 -0.03139871 0.00234758
v -0.01060484 -0.01020690 0.00000000
v -0.03906608 -0.01776483 0.00204901
v -0.00608292 -0.04209392 0.00247313
v -0.02053810 -0.03708329 0.00250000
v -0.04279811 -0.00013891 0.00219801
f 137 38 14
f 36 181 110
f 169 137 14
f 16 137 169
f 38 181 71
f 71 51 38
f 110 171 58
f 58 36 110
f 150 110 115
f 14 88 140
f 140 169 14
f 38 91 6
f 38 51 7
f 7 91 38
f 29 88 175
f 175 88 14
f 175 13 29
f 175 62 13
f 178 62 175
f 25 115 110
f 147 186 181
f 14 38 17
f 38 6 17
f 181 36 130
f 24 71 181
f 181 79 24
f 134 125 150
f 150 195 134
f 18 195 150
f 150 115 96
f 115 141 96
f 96 18 150
f 35 115 112
f 43 192 73
f 75 165 72
f 89 101 110
f 182 25 110
f 110 101 182
f 115 25 182
f 74 98 12
f 139 100 27
f 136 133 187
f 164 134 195
f 175 134 164
f 178 175 164
f 191 79 181
f 181 130 191
f 171 125 76
f 125 134 76
f 18 96 180
f 189 141 115
f 115 35 189
f 8 83 195
f 8 96 141
f 8 180 96
f 195 83 59
f 57 97 128
f 78 98 111
f 179 98 74
f 57 128 65
f 72 73 2
f 165 75 80
f 105 49 97
f 10 105 81
f 124 98 78
f 157 12 124
f 124 12 98
f 78 10 60
f 60 124 78
f 110 181 177
f 177 89 110
f 157 124 177
f 177 124 89
f 115 182 41
f 112 115 41
f 41 165 112
f 153 73 72
f 72 165 153
f 132 187 133
f 181 186 109
f 56 126 109
f 109 177 181
f 126 177 109
f 185 22 135
f 137 185 135
f 38 137 135
f 135 46 38
f 114 137 16
f 28 173 186
f 186 147 28
f 28 147 181
f 28 181 38
f 38 184 28
f 139 27 170
f 170 173 139
f 161 58 171
f 171 76 161
f 82 164 195
f 195 59 82
f 9 111 98
f 44 10 78
f 78 111 44
f 44 105 10
f 44 111 108
f 108 105 44
f 143 128 97
f 136 143 90
f 190 133 136
f 136 90 190
f 85 98 190
f 190 90 85
f 69 65 73
f 57 65 69
f 73 65 26
f 26 2 73
f 72 2 166
f 2 92 166
f 121 105 108
f 49 105 121
f 103 97 11
f 11 138 119
f 119 81 11
f 11 81 144
f 144 81 105
f 144 103 11
f 144 105 97
f 97 103 144
f 101 89 172
f 172 60 101
f 124 60 172
f 101 60 102
f 56 12 53
f 3 54 27
f 37 109 186
f 158 1 194
f 194 132 158
f 158 132 133
f 133 148 158
f 158 148 1
f 61 135 22
f 46 135 52
f 137 114 151
f 151 185 137
f 151 22 185
f 38 46 168
f 168 155 38
f 46 155 168
f 184 87 84
f 84 28 184
f 173 28 84
f 186 173 146
f 146 129 186
f 83 8 163
f 163 92 2
f 141 189 94
f 94 8 141
f 94 189 35
f 35 92 94
f 94 163 8
f 92 163 94
f 99 98 85
f 99 9 98
f 108 111 64
f 64 143 108
f 40 143 136
f 128 143 40
f 98 179 42
f 42 190 98
f 133 190 42
f 74 133 42
f 42 179 74
f 4 73 192
f 4 69 73
f 57 69 20
f 112 165 66
f 66 35 112
f 118 92 35
f 118 166 92
f 108 143 160
f 160 121 108
f 48 119 5
f 81 119 48
f 89 124 183
f 183 172 89
f 124 172 183
f 33 102 81
f 101 102 33
f 177 53 32
f 32 53 12
f 32 12 157
f 157 177 32
f 43 86 63
f 56 109 23
f 109 148 23
f 74 12 23
f 23 12 56
f 23 133 74
f 23 148 133
f 149 148 123
f 1 148 149
f 194 3 167
f 167 3 27
f 54 3 162
f 194 1 34
f 34 3 194
f 34 149 123
f 1 149 34
f 34 162 3
f 77 93 184
f 77 184 38
f 38 155 77
f 50 87 184
f 184 93 50
f 50 93 87
f 87 93 193
f 193 84 87
f 193 100 139
f 139 173 193
f 173 84 193
f 193 61 100
f 135 61 193
f 193 52 135
f 129 146 176
f 176 170 27
f 27 129 176
f 173 170 176
f 176 146 173
f 55 90 143
f 143 64 55
f 85 90 55
f 55 64 111
f 106 20 69
f 45 20 106
f 11 45 106
f 106 138 11
f 165 80 30
f 30 66 165
f 30 80 75
f 166 66 30
f 31 118 35
f 166 118 31
f 35 66 31
f 31 66 166
f 121 160 159
f 188 4 192
f 69 4 188
f 101 33 131
f 131 33 81
f 41 39 116
f 116 39 142
f 116 63 41
f 116 188 192
f 142 188 116
f 70 182 101
f 70 41 182
f 70 39 41
f 68 63 86
f 68 153 165
f 165 41 68
f 41 63 68
f 156 37 186
f 109 37 156
f 174 34 123
f 162 34 174
f 123 148 174
f 174 148 109
f 109 156 174
f 52 193 120
f 21 106 69
f 122 159 160
f 122 160 143
f 97 49 122
f 122 143 97
f 5 21 19
f 19 21 69
f 19 48 5
f 69 188 19
f 81 48 117
f 117 19 188
f 117 188 142
f 117 131 81
f 152 142 101
f 101 131 152
f 43 63 67
f 63 116 67
f 67 192 43
f 67 116 192
f 101 142 15
f 15 70 101
f 142 39 15
f 39 70 15
f 154 174 156
f 145 156 186
f 186 129 145
f 27 156 145
f 145 129 27
f 127 193 93
f 127 120 193
f 113 117 142
f 131 117 113
f 162 174 107
f 174 154 107
f 54 162 107
f 107 154 54
f 27 54 47
f 95 154 156
f 54 154 95
f 95 47 54
f 104 156 27
f 27 47 104
f 104 95 156
f 47 95 104
f 125 171 110
f 125 110 150
f 18 180 8
f 195 18 8
f 14 17 161
f 51 71 161
f 161 175 14
f 161 7 51
f 36 58 161
f 161 6 91
f 91 7 161
f 161 130 36
f 71 24 161
f 161 17 6
f 79 191 161
f 161 24 79
f 161 134 175
f 161 191 130
f 161 76 134
f 102 60 10
f 10 81 102
f 53 177 126
f 53 126 56
f 20 97 57
f 11 97 20
f 20 45 11
f 167 88 29
f 29 13 167
f 16 169 167
f 167 27 100
f 167 62 178
f 167 140 88
f 136 187 167
f 169 140 167
f 13 62 167
f 167 59 83
f 167 132 194
f 178 164 167
f 167 40 136
f 22 151 167
f 167 26 65
f 167 114 16
f 83 163 167
f 167 65 128
f 164 82 167
f 187 132 167
f 100 61 167
f 167 82 59
f 2 26 167
f 167 61 22
f 167 151 114
f 167 163 2
f 128 40 167
f 111 9 55
f 55 99 85
f 9 99 55
f 72 166 30
f 30 75 72
f 68 86 43
f 43 73 68
f 73 153 68
f 21 119 138
f 5 119 21
f 138 106 21
f 121 159 122
f 49 121 122
f 48 19 117
f 46 52 127
f 127 155 46
f 127 77 155
f 93 77 127
f 52 120 127
f 113 152 131
f 142 152 113

