# https://github.com/mikedh/trimesh
v 0.04422567 0.01026972 -0.13338609
v 0.04042445 0.03071945 -0.12962125
v 0.04448229 0.00724680 -0.13346965
v 0.03616564 0.00112800 -0.14106683
v 0.01761066 0.01435090 -0.14904036
v 0.00030004 0.02137355 -0.14876400
v 0.01486079 0.02562232 -0.14739461
v 0.01728731 0.01126025 -0.14948041
v 0.04170594 0.02439632 -0.13158260
v 0.02193182 0.02738771 -0.14432695
v 0.04151749 0.00397129 -0.13665024
v 0.03127698 0.03053755 -0.13758129
v 0.02636980 0.02864600 -0.14165875
v 0.03207310 0.03008130 -0.13740773
v 0.04716450 0.01842381 -0.12824495
v 0.01623579 0.01828011 -0.14877208
v 0.03013812 0.02626449 -0.14028828
v 0.04996905 0.03129832 -0.11631786
v 0.03121155 0.01014684 -0.14379402
v 0.03239383 0.00230965 -0.14353945
v 0.04661063 0.00311604 -0.13138478
v 0.03112840 0.00319098 -0.14428672
v 0.00032714 0.02377703 -0.14793526
v 0.04382927 0.01779579 -0.13209840
v 0.02556439 0.00613051 -0.14696467
v 0.03880852 0.00475560 -0.13895222
v 0.04997238 0.00243878 -0.12435685
v 0.03099422 0.01598332 -0.14294841
v 0.02947590 0.01369468 -0.14427011
v 0.01948271 0.01420074 -0.14850978
v 0.02796161 0.00065768 -0.14600153
v 0.01832225 0.00172471 -0.14965654
v 0.02601925 0.02293594 -0.14379823
v 0.03585726 0.03160045 -0.13360661
v 0.00678467 0.00076086 -0.14995213
v 0.04274700 0.02334646 -0.13099365
v 0.01584593 0.02211887 -0.14802358
v 0.01766043 0.01719802 -0.14854840
v 0.01785580 0.02695767 -0.14605455
v 0.02426711 0.00378124 -0.14757988
v 0.03238235 0.01930953 -0.14124925
v 0.03973333 0.01476273 -0.13681920
v 0.01555876 0.02377453 -0.14771083
v 0.02520824 0.00730192 -0.14705338
v 0.02994132 0.01385316 -0.14399115
v 0.02302310 0.01418732 -0.14724827
v 0.04753586 0.01087119 -0.12959658
v 0.01409266 0.02321056 -0.14824172
v 0.04624753 0.03946676 -0.11419193
v 0.01878403 0.00115129 -0.14952682
v 0.03879616 0.03417810 -0.12840138
v 0.02449922 0.00936542 -0.14723479
v 0.01700290 0.01461744 -0.14917119
v 0.02543726 0.00974764 -0.14678728
v 0.01816382 0.02393198 -0.14686515
v 0.04038405 0.03117917 -0.12940150
v 0.03941053 0.03406316 -0.12835999
v 0.03806509 0.03333942 -0.13024915
v 0.04077228 0.03131600 -0.12888221
v 0.03825002 0.01986493 -0.13664848
v 0.02662932 0.00375080 -0.14660694
v 0.04328606 0.02385422 -0.13019810
v 0.03600369 0.00000999 -0.14121043
v 0.02165486 0.00071408 -0.14861164
v 0.04632052 0.04071956 -0.11101364
v 0.02160544 0.00687727 -0.14847638
v 0.01539618 0.01562661 -0.14941438
v 0.04806064 0.04415596 -0.10129840
v 0.02679647 0.02714810 -0.14198693
v 0.04012512 0.02392353 -0.13333394
v 0.03276579 0.02215660 -0.14008893
v 0.03949928 0.00486784 -0.13835978
v 0.00052495 0.02474151 -0.14744786
v 0.03227998 0.02041709 -0.14097702
v 0.03336501 0.03115323 -0.13577068
v 0.03227326 0.02191441 -0.14051467
v 0.02314266 0.01134870 -0.14754258
v 0.02499483 0.00097651 -0.14734001
v 0.04393449 0.02445456 -0.12918939
v 0.02592134 0.01231984 -0.14625313
v 0.00191393 0.02533241 -0.14940976
v 0.02972214 0.01975709 -0.14275815
v 0.03334537 0.01059376 -0.14241389
v 0.00785548 0.02166606 -0.14972812
v 0.04738995 0.00895195 -0.13004645
v 0.04092486 0.03470866 -0.12640321
v 0.03288120 0.01713470 -0.14151428
v 0.04853988 0.04164024 -0.10727973
v 0.02173945 0.01731898 -0.14715242
v 0.04021255 0.02684324 -0.13185483
v 0.00030026 0.02367836 -0.14942284
v 0.02469213 0.00916640 -0.14717036
v 0.02997788 0.00664602 -0.14478030
v 0.00030018 0.01534406 -0.14984436
v 0.01383888 0.01628262 -0.14967024
v 0.02191067 0.00786918 -0.14832635
v 0.03875011 0.03394064 -0.12891709
v 0.00182149 0.01001136 -0.14999218
v 0.03163761 0.01091999 -0.14343222
v 0.04866626 0.01442425 -0.12758681
v 0.03765999 0.00484222 -0.13987798
v 0.04179817 0.01454720 -0.13496662
v 0.04464588 0.01001403 -0.13299687
v 0.03155349 0.01297154 -0.14317582
v 0.01775694 0.01814324 -0.14835591
v 0.04052037 0.00598815 -0.13738894
v 0.03684050 0.03162233 -0.13273035
v 0.03640887 0.01989905 -0.13818783
v 0.02156327 0.00256575 -0.14862866
v 0.04114486 0.00584216 -0.13686849
v 0.01311498 0.02154449 -0.14883563
v 0.04520600 0.00161795 -0.13302411
v 0.02632814 0.01578886 -0.14551507
v 0.04242613 0.03223498 -0.12643079
v 0.02336525 0.02589607 -0.14418174
v 0.03074348 0.01910621 -0.14231410
v 0.02734985 0.01012493 -0.14585813
v 0.02299546 0.01313068 -0.14738841
v 0.04451538 0.00610222 -0.13355051
v 0.03921836 0.00990602 -0.13813482
v 0.04687151 0.01422789 -0.12973470
v 0.01404937 0.02661903 -0.14729656
v 0.04437190 0.00051462 -0.13392466
v 0.01801844 0.01543670 -0.14874035
v 0.03194136 0.01221334 -0.14305982
v 0.01541252 0.02091600 -0.14841619
v 0.00163592 0.02660440 -0.14854753
v 0.01781025 0.01457918 -0.14894411
v 0.02424273 0.02173242 -0.14506119
v 0.04162344 0.00568499 -0.13645511
v 0.02636180 0.01938085 -0.14466277
v 0.00304860 0.02529315 -0.14937570
v 0.03129239 0.02590125 -0.13968892
v 0.04996324 0.02868310 -0.11869059
v 0.03982706 0.02749918 -0.13190623
v 0.04989712 0.04220017 -0.10283399
v 0.01747976 0.02333570 -0.14723957
v 0.04168771 0.02794472 -0.12978028
v 0.04963844 0.04321853 -0.10194252
v 0.03723549 0.03140304 -0.13247411
v 0.03930854 0.02771614 -0.13231509
v 0.04738672 0.03510789 -0.11721738
v 0.04368760 0.00514946 -0.13446480
v 0.02007841 0.00207084 -0.14911105
v 0.04552605 0.00465905 -0.13256346
v 0.03794138 0.02244213 -0.13592468
v 0.02139537 0.00878544 -0.14845681
v 0.03486566 0.03006332 -0.13521951
v 0.01901960 0.01491214 -0.14853326
v 0.01923633 0.02704649 -0.14555723
v 0.04072196 0.01745685 -0.13525147
v 0.02261580 0.01546020 -0.14716554
v 0.04550003 0.03337314 -0.12158607
v 0.00030030 0.02644517 -0.14832307
v 0.04697027 0.01975699 -0.12800238
v 0.02567416 0.02922519 -0.14141776
v 0.03269981 0.03166642 -0.13510017
v 0.03518215 0.01954520 -0.13920171
v 0.03841863 0.00057649 -0.13937186
v 0.02301274 0.02066193 -0.14587413
v 0.02333754 0.01283480 -0.14729122
v 0.04809324 0.00319982 -0.12963818
v 0.02555211 0.00282686 -0.14707706
v 0.03877621 0.01979009 -0.13622778
v 0.04753726 0.04024975 -0.11131899
v 0.03892333 0.00560425 -0.13878606
v 0.04870370 0.03148343 -0.11828394
v 0.03158532 0.01508633 -0.14279738
v 0.04659465 0.01650678 -0.12948938
v 0.04518300 0.03406906 -0.12149957
v 0.02168362 0.00020395 -0.14860578
v 0.04933596 0.03341808 -0.11546125
v 0.01698760 0.01892878 -0.14843852
v 0.03211684 0.02508877 -0.13944569
v 0.04629347 0.03951966 -0.11405253
v 0.04041641 0.01005735 -0.13708391
v 0.02215404 0.01984577 -0.14645920
v 0.03255934 0.01463222 -0.14228527
v 0.03359237 0.00204036 -0.14281300
v 0.04287705 0.03459073 -0.12429199
v 0.01883078 0.00422739 -0.14945884
v 0.04209339 0.03425270 -0.12551282
v 0.04128885 0.00851742 -0.13649824
v 0.02589832 0.02243203 -0.14401956
v 0.04247851 0.03551089 -0.12400252
v 0.03164598 0.00798505 -0.14373314
v 0.01603368 0.02638823 -0.14684335
v 0.04132863 0.00848124 -0.13646715
v 0.03267324 0.01707206 -0.14165835
v 0.03845948 0.03255254 -0.13063255
v 0.02199776 0.00907663 -0.14823734
v 0.01221796 0.02611784 -0.14793929
v 0.00836079 0.02397237 -0.14917755
v 0.02909824 0.01784570 -0.14363505
v 0.04968084 0.03430667 -0.11392020
v 0.02742313 0.01029534 -0.14580097
v 0.04818418 0.04337107 -0.10025957
v 0.03144897 0.03033432 -0.13769015
v 0.01489299 0.02289502 -0.14810011
v 0.03329802 0.03104972 -0.13590839
v 0.01149055 0.02377879 -0.14869169
v 0.04444130 0.01057888 -0.13311319
v 0.04991571 0.02708766 -0.12006105
v 0.03517305 0.02848247 -0.13568913
v 0.01449147 0.02667898 -0.14716314
v 0.00051590 0.01117818 -0.14991810
v 0.02519950 0.01279820 -0.14650908
v 0.02856328 0.01966693 -0.14345578
v 0.02507048 0.02056868 -0.14499623
v 0.04675977 0.02719564 -0.12427806
v 0.03760581 0.01711369 -0.13804523
v 0.01955667 0.02800783 -0.14469137
v 0.04821905 0.04085117 -0.10916840
v 0.02795069 0.02172933 -0.14318366
v 0.03267297 0.03114051 -0.13614031
v 0.01184429 0.01901225 -0.14963307
v 0.04725241 0.01492081 -0.12916533
v 0.02825920 0.00464794 -0.14576186
v 0.02357723 0.01123366 -0.14738822
v 0.02567122 0.01251537 -0.14633991
v 0.03480514 0.03181497 -0.13418208
v 0.04147725 0.02892842 -0.12948112
v 0.01676900 0.02415761 -0.14724415
v 0.04563007 0.01439446 -0.13105965
v 0.01733488 0.02351984 -0.14724009
v 0.02060260 0.02809028 -0.14433960
v 0.02295236 0.00055205 -0.14815256
v 0.03171333 0.00118789 -0.14396701
v 0.02664498 0.02139966 -0.14395109
v 0.03281700 0.00842116 -0.14298901
v 0.04610877 0.02414218 -0.12689328
v 0.04469160 0.00614012 -0.13337075
v 0.04888652 0.01673082 -0.12676966
v 0.04642813 0.00981000 -0.13103863
v 0.02058869 0.02312392 -0.14620056
v 0.03415103 0.01488671 -0.14115890
v 0.03773648 0.01447858 -0.13857673
v 0.04986073 0.04160383 -0.10389781
v 0.02373967 0.01934904 -0.14592044
v 0.03128298 0.01386760 -0.14320117
v 0.04177361 0.00018785 -0.13646961
v 0.04753406 0.03942650 -0.11250626
v 0.03236487 0.03154599 -0.13542060
v 0.04787809 0.02588765 -0.12370724
v 0.03566937 0.02232570 -0.13789149
v 0.02997675 0.01474945 -0.14382105
v 0.01022726 0.02329759 -0.14903760
v 0.02903502 0.00799328 -0.14519274
v 0.04128467 0.02555275 -0.13143617
v 0.04480606 0.00922962 -0.13291031
v 0.02381847 0.01183832 -0.14722289
v 0.03746052 0.00238705 -0.14007716
v 0.01066794 0.02738194 -0.14649936
v 0.04221524 0.03412116 -0.12545358
v 0.01747049 0.01706982 -0.14862752
v 0.03847759 0.01965648 -0.13653046
v 0.02628861 0.02732427 -0.14220785
v 0.04062502 0.02917959 -0.13023884
v 0.03895951 0.02272739 -0.13492366
v 0.01800195 0.00823885 -0.14954558
v 0.04358677 0.03603133 -0.12219935
v 0.04998451 0.00785557 -0.12433433
v 0.04401333 0.00271389 -0.13423859
v 0.04439814 0.01579118 -0.13205892
v 0.01951473 0.02365219 -0.14646050
v 0.01943991 0.00064722 -0.14933923
v 0.03279073 0.00059824 -0.14333834
v 0.00350764 0.02583727 -0.14921922
v 0.03542985 0.02165381 -0.13830579
v 0.03969042 0.01826127 -0.13592383
v 0.04766934 0.02236182 -0.12598470
v 0.03347127 0.01259701 -0.14202114
v 0.03098003 0.00783995 -0.14413318
v 0.02810957 0.00422704 -0.14584945
v 0.04231159 0.02394742 -0.13118036
v 0.04308357 0.01725902 -0.13301904
v 0.02786132 0.00853988 -0.14575800
v 0.03749261 0.02751344 -0.13410688
v 0.02782384 0.02720054 -0.14137931
v 0.02392510 0.02458115 -0.14435208
v 0.04037864 0.03460547 -0.12692969
v 0.03033277 0.01442192 -0.14367684
v 0.04060807 0.00548851 -0.13735923
v 0.02656546 0.00254813 -0.14665080
v 0.04993398 0.01518494 -0.12592513
v 0.01770974 0.00811812 -0.14963650
v 0.03108596 0.00920939 -0.14397583
v 0.02973362 0.01209856 -0.14435832
v 0.03452008 0.02417812 -0.13803100
v 0.04136798 0.00006187 -0.13685009
v 0.01263256 0.02035694 -0.14919320
v 0.02627105 0.00798702 -0.14655525
v 0.01348484 0.01510033 -0.14992258
v 0.02591247 0.01208293 -0.14628826
v 0.00768546 0.02248494 -0.14959253
v 0.03045778 0.00181510 -0.14469765
v 0.04999354 0.04148706 -0.10368614
v 0.04392768 0.02912433 -0.12657504
v 0.02389682 0.00929110 -0.14749382
v 0.02373659 0.02392509 -0.14463199
v 0.03841365 0.00594195 -0.13919040
v 0.04562463 0.03759936 -0.11784056
v 0.01105054 0.01845456 -0.14987816
v 0.04372577 0.01955556 -0.13161853
v 0.03797951 0.02772424 -0.13358139
v 0.03560780 0.03198434 -0.13349329
v 0.01718348 0.02705748 -0.14621593
v 0.02379597 0.02741562 -0.14346571
v 0.03351089 0.01632830 -0.14129140
v 0.03804352 0.02968582 -0.13257350
v 0.03077278 0.01520826 -0.14325962
v 0.04406255 0.03741980 -0.11968653
v 0.01960654 0.02808715 -0.14455013
v 0.03493742 0.01065273 -0.14130523
v 0.04966419 0.03721349 -0.11056337
v 0.02033372 0.02836441 -0.14388541
v 0.02711301 0.00439484 -0.14635044
v 0.04420930 0.01425141 -0.13264079
v 0.00889674 0.02352084 -0.14920739
v 0.03256601 0.03088263 -0.13650543
v 0.03652207 0.00479660 -0.14070706
v 0.02895437 0.00725449 -0.14527579
v 0.01691611 0.00473422 -0.14995024
v 0.03022137 0.01132169 -0.14419855
v 0.03843070 0.01730483 -0.13728803
v 0.04906871 0.04432975 -0.10101485
v 0.04116321 0.01608565 -0.13519667
v 0.02312197 0.02407175 -0.14485103
v 0.03859597 0.02778221 -0.13298150
v 0.02729276 0.02574009 -0.14221882
v 0.04784904 0.04116544 -0.10924823
v 0.03479094 0.02882975 -0.13586200
v 0.04404126 0.01282149 -0.13309196
v 0.02197698 0.01605105 -0.14729916
v 0.04207314 0.03491326 -0.12505123
v 0.01441630 0.02253308 -0.14831091
v 0.04970050 0.04191050 -0.10008607
v 0.02363324 0.00795657 -0.14766695
v 0.04518134 0.02456058 -0.12776848
v 0.04993048 0.02249951 -0.12310252
v 0.04011348 0.01948689 -0.13518489
v 0.03436747 0.00278618 -0.14230241
v 0.00705500 0.00032802 -0.14993191
v 0.00030030 0.02592015 -0.14820755
v 0.00030030 0.02585082 -0.14880579
v 0.04533716 0.00363284 -0.13281053
v 0.04507148 0.03927351 -0.11486094
v 0.01958011 0.00352077 -0.14924093
v 0.01551081 0.01155254 -0.14988590
v 0.03596955 0.02805680 -0.13519100
v 0.00831346 0.02061153 -0.14986818
v 0.02285871 0.01432479 -0.14728539
v 0.00243954 0.02291794 -0.14991581
v 0.02431465 0.02528730 -0.14392241
v 0.01021853 0.02308209 -0.14908929
v 0.02312449 0.01965425 -0.14610501
v 0.02432649 0.02094842 -0.14524191
v 0.04508687 0.02212549 -0.12906261
v 0.03755763 0.01175058 -0.13921699
v 0.00349686 0.02224371 -0.14998264
v 0.03712729 0.02306793 -0.13638385
v 0.04844839 0.02276975 -0.12484259
v 0.02085888 0.01113524 -0.14840052
v 0.03007542 0.01255196 -0.14410349
v 0.02717329 0.01287701 -0.14557821
v 0.00236221 0.02266569 -0.14996859
v 0.04791172 0.04154903 -0.10840662
v 0.02310414 0.01769856 -0.14654307
v 0.04915466 0.04345336 -0.10273658
v 0.01722018 0.01687212 -0.14873345
v 0.03413096 0.02634336 -0.13743138
v 0.03320692 0.01311380 -0.14211015
v 0.01176808 0.02505930 -0.14831635
v 0.03680181 0.03334148 -0.13064356
v 0.03281117 0.01817798 -0.14128276
v 0.02402725 0.01447895 -0.14678932
v 0.04124364 0.00049640 -0.13695942
v 0.01595988 0.02713353 -0.14650457
v 0.03964336 0.03206500 -0.12969942
v 0.04338105 0.02411181 -0.12996572
v 0.04128800 0.01176247 -0.13600114
v 0.02272492 0.01162994 -0.14767046
v 0.04517861 0.00125501 -0.13306408
v 0.01880216 0.01840905 -0.14799400
v 0.02225455 0.02134600 -0.14600354
v 0.04052950 0.00958991 -0.13704907
v 0.03962848 0.03485403 -0.12661930
v 0.03453239 0.00320303 -0.14218591
v 0.04495498 0.01721640 -0.13107807
v 0.04269060 0.03585880 -0.12336245
v 0.04964191 0.02211197 -0.12371372
v 0.03798318 0.00532936 -0.13960383
v 0.02752745 0.00148611 -0.14620468
v 0.03597062 0.03175611 -0.13341975
v 0.00030005 0.02071563 -0.14914692
v 0.03852199 0.02945140 -0.13221600
v 0.03753295 0.01306491 -0.13900540
v 0.04561237 0.03303219 -0.12168375
v 0.01318619 0.02706088 -0.14710958
v 0.03908626 0.02951012 -0.13161606
v 0.01806040 0.01631015 -0.14858114
v 0.01797257 0.02741111 -0.14575057
v 0.04663033 0.03847439 -0.11526375
v 0.01543205 0.02584505 -0.14718405
v 0.04696416 0.01002267 -0.13040126
v 0.03907088 0.02918251 -0.13180327
v 0.03428416 0.00741156 -0.14212163
v 0.00182516 0.02320135 -0.14986716
v 0.03670742 0.00931084 -0.14020348
v 0.03661063 0.02765655 -0.13481449
v 0.04500327 0.00207269 -0.13323222
v 0.01573445 0.02115961 -0.14827402
v 0.02873543 0.02372971 -0.14209156
v 0.03089125 0.02557446 -0.14007277
v 0.04054851 0.01597393 -0.13582173
v 0.04779226 0.00206722 -0.13004987
v 0.02401046 0.00869734 -0.14748223
v 0.02480514 0.00167002 -0.14740328
v 0.01756729 0.01110748 -0.14941856
v 0.01992018 0.00143421 -0.14917294
v 0.01040844 0.02496331 -0.14859033
v 0.03113098 0.02945906 -0.13836984
v 0.04982541 0.03640824 -0.11116771
v 0.02869613 0.02644670 -0.14112389
v 0.02230109 0.00131279 -0.14839158
v 0.03950278 0.02293897 -0.13435365
v 0.03994705 0.03427373 -0.12770653
v 0.01866800 0.00023912 -0.14956794
v 0.02854939 0.02432277 -0.14200460
v 0.02831260 0.01505218 -0.14466077
v 0.04028416 0.00034805 -0.13780844
v 0.04647269 0.03708895 -0.11693995
v 0.03054303 0.03068624 -0.13763266
v 0.04569144 0.02234158 -0.12832112
v 0.04430238 0.01045413 -0.13327669
v 0.01183461 0.02433491 -0.14848198
v 0.03837909 0.00207477 -0.13937461
v 0.04709932 0.03973838 -0.11280045
v 0.01937253 0.00314378 -0.14931351
v 0.02872191 0.00852572 -0.14532409
v 0.02322711 0.00559355 -0.14793365
v 0.02560040 0.00445753 -0.14702257
v 0.04094231 0.00578753 -0.13704688
v 0.03521979 0.03060887 -0.13464789
v 0.02060139 0.01556031 -0.14789309
v 0.04702464 0.03860073 -0.11444428
v 0.04232022 0.01714820 -0.13379262
v 0.03891224 0.03274210 -0.13007648
v 0.04681851 0.00003158 -0.13123599
v 0.01866732 0.02615607 -0.14603142
v 0.03822620 0.02448875 -0.13485550
v 0.03168950 0.02458519 -0.13994014
v 0.04431713 0.03813281 -0.11789583
v 0.03592960 0.03197118 -0.13328690
v 0.00958403 0.02119190 -0.14958132
v 0.04149086 0.02746530 -0.13024723
v 0.04227810 0.00274626 -0.13595630
v 0.02090287 0.01962051 -0.14700247
v 0.03165933 0.01989256 -0.14152296
v 0.04954883 0.03825746 -0.10949059
v 0.02428965 0.01914871 -0.14573275
v 0.04869230 0.03916368 -0.11034069
v 0.03787183 0.02356756 -0.13553787
v 0.03023708 0.02941075 -0.13898189
v 0.02280354 0.02829674 -0.14345789
v 0.02534945 0.01074211 -0.14670305
v 0.04499969 0.02137988 -0.12948468
v 0.03431585 0.02472606 -0.13796682
v 0.04478190 0.02068438 -0.13001611
v 0.04977136 0.02019838 -0.12448466
v 0.03027660 0.01700921 -0.14314528
v 0.03348120 0.03027417 -0.13621891
v 0.01795240 0.01573796 -0.14870933
v 0.03934852 0.01743564 -0.13646673
v 0.03792771 0.02914826 -0.13296426
v 0.03790734 0.00570411 -0.13962805
v 0.04993553 0.02715237 -0.11998418
v 0.03265824 0.02395289 -0.13949599
v 0.02712503 0.01257908 -0.14564146
v 0.04658398 0.01986257 -0.12840503
v 0.03014450 0.03080386 -0.13739509
v 0.02904931 0.01111991 -0.14486066
v 0.01429429 0.02062975 -0.14876561
v 0.03448703 0.01962180 -0.13968489
v 0.03322340 0.01801312 -0.14106450
v 0.03592246 0.02923437 -0.13468441
v 0.03946272 0.02074834 -0.13527057
v 0.01253154 0.02713283 -0.14708815
v 0.01298138 0.02669722 -0.14748862
v 0.01153398 0.02282228 -0.14890478
v 0.01084965 0.02393370 -0.14876976
v 0.03109486 0.01947361 -0.14200134
v 0.03321585 0.00480658 -0.14297041
v 0.02433978 0.00339516 -0.14755803
v 0.01777662 0.02043477 -0.14785096
v 0.02122206 0.01480917 -0.14781526
v 0.04760882 0.03480971 -0.11711834
v 0.01662868 0.02375545 -0.14739899
v 0.04352666 0.01517235 -0.13312720
v 0.02512723 0.01842099 -0.14552708
v 0.04858111 0.03427382 -0.11596065
v 0.04667330 0.04032648 -0.11202390
v 0.04117284 0.00963232 -0.13649458
v 0.04835246 0.00949820 -0.12881196
v 0.04955919 0.04101834 -0.10559612
v 0.04180374 0.02558678 -0.13089713
v 0.04893287 0.02605337 -0.12214906
v 0.01525808 0.01910919 -0.14885816
v 0.01375382 0.00013356 -0.14878751
v 0.00923436 0.02711258 -0.14721599
v 0.04330868 0.01847230 -0.13241136
v 0.04722732 0.03730947 -0.11541270
v 0.04024624 0.02031146 -0.13472831
v 0.01527494 0.01215902 -0.14988939
v 0.04740063 0.04103790 -0.10999350
v 0.00815157 0.02013560 -0.14997851
v 0.01644349 0.02652973 -0.14666377
v 0.03289111 0.00995391 -0.14280222
v 0.04609418 0.00997070 -0.13138502
v 0.01830230 0.01899343 -0.14803196
v 0.04140605 0.01505477 -0.13523312
v 0.02527490 0.01643251 -0.14589449
v 0.01999276 0.00837615 -0.14894703
v 0.04961421 0.02378683 -0.12274329
v 0.04853870 0.04214386 -0.10032240
v 0.04513810 0.02522919 -0.12743667
v 0.04198996 0.00555966 -0.13610473
v 0.02947893 0.01831690 -0.14329845
v 0.01277334 0.01878442 -0.14949338
v 0.03838206 0.02423884 -0.13482351
v 0.04897629 0.04058071 -0.10776458
v 0.04957507 0.03289879 -0.11553564
v 0.04176570 0.02145555 -0.13277836
v 0.04408946 0.02021247 -0.13095957
v 0.01147414 0.01735708 -0.14997402
v 0.03555932 0.02535314 -0.13676422
v 0.04125965 0.00279377 -0.13690902
v 0.01735603 0.00269331 -0.14990190
v 0.01844035 0.01299483 -0.14897150
v 0.04958381 0.00489300 -0.12769355
v 0.03600067 0.01875577 -0.13882648
v 0.01042808 0.02152898 -0.14937114
v 0.04616260 0.02439446 -0.12669620
v 0.03197478 0.03030917 -0.13736508
v 0.04766854 0.00005809 -0.12731467
v 0.04478549 0.02387495 -0.12854750
v 0.04969972 0.00026667 -0.12769311
v 0.02731228 0.02979837 -0.14003263
v 0.04693037 0.01724306 -0.12892401
v 0.04929482 0.02063211 -0.12488420
v 0.04900867 0.03863092 -0.11029570
v 0.04987014 0.03526733 -0.11245242
v 0.04747414 0.00609539 -0.13022990
v 0.04203531 0.01981502 -0.13320121
v 0.04705694 0.00305031 -0.13087950
v 0.02618353 0.00007428 -0.14684423
v 0.03741298 0.03319698 -0.13081255
v 0.02012971 0.01020571 -0.14874352
v 0.03218333 0.00072052 -0.14369546
v 0.02868938 0.02068378 -0.14310084
v 0.02881518 0.03023519 -0.13888416
v 0.04641473 0.02194501 -0.12768185
v 0.01947453 0.01018423 -0.14895658
v 0.03439683 0.00591654 -0.14216058
v 0.01801955 0.00580243 -0.14964437
v 0.04180179 0.02646413 -0.13044820
v 0.03488258 0.00242560 -0.14195701
v 0.01256044 0.01662814 -0.14988627
v 0.04489120 0.03694404 -0.11959135
v 0.04458656 0.00316851 -0.13364275
v 0.03626472 0.00724505 -0.14069696
v 0.03793319 0.02555157 -0.13463045
v 0.03179825 0.00868980 -0.14359506
v 0.04723055 0.04015623 -0.11190243
v 0.01734370 0.00694773 -0.14976746
v 0.04939888 0.00008814 -0.12514784
v 0.04160673 0.03312064 -0.12684586
v 0.01886943 0.01889779 -0.14787922
v 0.04017853 0.01453147 -0.13648137
v 0.04159876 0.02688338 -0.13043749
v 0.02053659 0.01698146 -0.14765545
v 0.02277734 0.01910361 -0.14639778
v 0.03103838 0.00374215 -0.14433270
v 0.01467892 0.01901093 -0.14902687
v 0.04977307 0.02796178 -0.11958869
v 0.03265679 0.01321145 -0.14244829
v 0.01008412 0.01935866 -0.14986173
v 0.04325561 0.02017125 -0.13186168
v 0.04224958 0.02491356 -0.13078835
v 0.01617336 0.01094895 -0.14978511
v 0.03413742 0.00632930 -0.14230075
v 0.02247477 0.00254522 -0.14831934
v 0.04425509 0.02904129 -0.12623927
v 0.04542631 0.03705116 -0.11866296
v 0.04232049 0.03659301 -0.12199263
v 0.02421184 0.01304369 -0.14690703
v 0.01888853 0.02816314 -0.14442091
v 0.04423054 0.01970984 -0.13102021
v 0.03097730 0.00972949 -0.14399147
v 0.03340324 0.01554159 -0.14154473
v 0.02232756 0.00206762 -0.14837722
v 0.04079560 0.03369870 -0.12743932
v 0.02369008 0.01014388 -0.14747367
v 0.03747379 0.03316596 -0.13083493
v 0.01181189 0.02030931 -0.14937189
v 0.04522928 0.00121539 -0.13301068
v 0.02647200 0.00911569 -0.14639102
v 0.03063589 0.03014712 -0.13829098
v 0.03605109 0.01698106 -0.13928698
v 0.03329911 0.00705218 -0.14278157
v 0.01385661 0.02628762 -0.14747055
v 0.04389734 0.03737807 -0.11984658
v 0.00659135 0.02594616 -0.14891417
v 0.04622026 0.01917816 -0.12906333
v 0.03602318 0.02305030 -0.13734234
v 0.01874952 0.02380862 -0.14669348
v 0.04716459 0.00446751 -0.13071373
v 0.02029010 0.00834228 -0.14885082
v 0.04423306 0.02072967 -0.13058216
v 0.03027439 0.00478318 -0.14474070
v 0.04890908 0.02453191 -0.12321372
v 0.03501864 0.01756277 -0.13988155
v 0.02885976 0.02005211 -0.14319421
v 0.02169156 0.00853888 -0.14836854
v 0.01708436 0.00091373 -0.14999292
v 0.04228077 0.03589351 -0.12360514
v 0.04111032 0.00357122 -0.13701711
v 0.04892763 0.04162182 -0.10642133
v 0.03218615 0.01697524 -0.14198125
v 0.04616798 0.03960217 -0.11393871
v 0.02808373 0.01137657 -0.14533545
v 0.02893025 0.02041329 -0.14305025
v 0.02748772 0.01131126 -0.14563588
v 0.04665516 0.01525242 -0.12974436
v 0.02765339 0.01468424 -0.14507974
v 0.04717969 0.02814633 -0.12310873
v 0.01948947 0.01244566 -0.14871716
v 0.04753850 0.04105693 -0.10982558
v 0.01124971 0.01952791 -0.14963138
v 0.03584179 0.01440421 -0.14002358
v 0.01172290 0.01731474 -0.14993710
v 0.02593315 0.00886289 -0.14665278
v 0.03757567 0.02937850 -0.13316557
v 0.04128447 0.00972781 -0.13638612
v 0.01806072 0.00805358 -0.14953624
v 0.02179524 0.01255503 -0.14791721
v 0.04724124 0.03843157 -0.11421213
v 0.02918053 0.02967595 -0.13948454
v 0.04494766 0.03559078 -0.12066026
v 0.00754205 0.02698275 -0.14756142
v 0.00849182 0.02462113 -0.14901351
v 0.03372216 0.01417653 -0.14160699
v 0.01650091 0.01943707 -0.14846440
v 0.00153368 0.02677914 -0.14810315
v 0.01556237 0.01387013 -0.14964952
v 0.01132977 0.02731611 -0.14667449
v 0.01993322 0.02785932 -0.14478370
v 0.04345741 0.01789112 -0.13245292
v 0.01779058 0.00594163 -0.14970251
v 0.02623839 0.00591751 -0.14668776
v 0.00345823 0.02423165 -0.14959148
v 0.01619393 0.01362028 -0.14952845
v 0.03661826 0.02003396 -0.13797600
v 0.03639522 0.01511807 -0.13947179
v 0.02427006 0.00452305 -0.14755802
v 0.02192850 0.01047309 -0.14810525
v 0.04990934 0.00214187 -0.12444687
v 0.04168377 0.03535021 -0.12488257
v 0.02539573 0.02867891 -0.14212064
v 0.00848937 0.02596396 -0.14868077
v 0.01740709 0.00975529 -0.14959554
v 0.02700077 0.02901052 -0.14110038
v 0.04866446 0.04280276 -0.10487579
v 0.02068686 0.00916808 -0.14866881
v 0.02599438 0.02919021 -0.14136306
v 0.03767116 0.01108201 -0.13924477
v 0.03672551 0.01564913 -0.13910704
v 0.04777904 0.00627571 -0.12985466
v 0.03753124 0.00547499 -0.13992085
v 0.04505401 0.02498383 -0.12767372
v 0.03982534 0.03416182 -0.12794396
v 0.02152490 0.01827620 -0.14705217
v 0.01291161 0.01821375 -0.14957296
v 0.04978932 0.00200072 -0.12751996
v 0.04975218 0.03695337 -0.11068168
v 0.03541822 0.00805227 -0.14124663
v 0.02801872 0.02960404 -0.14010907
v 0.04611748 0.03138879 -0.12220106
v 0.04888192 0.01799868 -0.12638600
v 0.04445150 0.01996403 -0.13067539
v 0.00901476 0.02435377 -0.14899363
v 0.02651411 0.02960791 -0.14055137
v 0.01832431 0.01905225 -0.14801163
v 0.04718661 0.02435574 -0.12548487
v 0.01599319 0.01155240 -0.14977618
v 0.04281205 0.01981550 -0.13244817
v 0.03909157 0.00037857 -0.13880881
v 0.04700212 0.00972595 -0.13040492
v 0.01761434 0.02543109 -0.14660116
v 0.02685856 0.00184945 -0.14652104
v 0.02743003 0.02203637 -0.14335648
v 0.04686379 0.04061688 -0.11125418
v 0.04994687 0.04266073 -0.10193055
v 0.01959409 0.01979817 -0.14741590
v 0.02138864 0.00919966 -0.14843131
v 0.02378541 0.00152629 -0.14781513
v 0.01774531 0.00537797 -0.14973436
v 0.02562080 0.00176913 -0.14707014
v 0.02209163 0.02005391 -0.14642800
v 0.02215871 0.00427951 -0.14841106
v 0.01758847 0.01033950 -0.14948932
v 0.00725392 0.02215278 -0.14971336
v 0.03948901 0.03311787 -0.12926706
v 0.01996074 0.02331095 -0.14638602
v 0.02386961 0.02818156 -0.14310570
v 0.04933196 0.02923169 -0.11922038
v 0.02669090 0.01465160 -0.14555588
v 0.03510954 0.00351481 -0.14176978
v 0.01207734 0.01991891 -0.14940208
v 0.01898167 0.01210340 -0.14890369
v 0.04369806 0.00982587 -0.13398929
v 0.00583646 0.02172294 -0.14989984
v 0.04829815 0.03947137 -0.11082624
v 0.02142443 0.01853141 -0.14704231
v 0.04078402 0.01184033 -0.13644873
v 0.04531848 0.03830768 -0.11716771
v 0.01165781 0.02565295 -0.14818762
v 0.04167137 0.03592172 -0.12377284
v 0.02835501 0.03022269 -0.13894132
v 0.03834093 0.00913710 -0.13896389
v 0.01698835 0.02445995 -0.14709248
v 0.02725802 0.00693008 -0.14614441
v 0.04029622 0.02473853 -0.13280400
v 0.02539049 0.02872131 -0.14208997
v 0.04118109 0.02887691 -0.12983408
v 0.04915339 0.03567767 -0.11346978
v 0.00898391 0.02688478 -0.14779621
v 0.03134162 0.02745780 -0.13903769
v 0.04995792 0.03372870 -0.11400163
v 0.04277202 0.00419274 -0.13541837
v 0.01884879 0.00028720 -0.14951496
v 0.04226237 0.01023933 -0.13533248
v 0.02756561 0.02622987 -0.14188692
v 0.02261375 0.02146568 -0.14581992
v 0.04545608 0.03927492 -0.11485718
v 0.04728075 0.02891274 -0.12241340
v 0.01470154 0.02304435 -0.14811700
v 0.02646562 0.00077191 -0.14671293
v 0.04053196 0.00041073 -0.13759850
v 0.00477723 0.02525348 -0.14927879
v 0.01504654 0.01516420 -0.14957388
v 0.03605520 0.03196029 -0.13320083
v 0.04244283 0.01479881 -0.13428657
v 0.02295308 0.01644573 -0.14684476
v 0.03962608 0.02066911 -0.13515958
v 0.04356714 0.01526471 -0.13306407
v 0.03224527 0.00156966 -0.14364798
v 0.04786215 0.04102009 -0.10950290
v 0.02630814 0.01059382 -0.14629374
v 0.01878408 0.00505956 -0.14944411
v 0.03291459 0.00727070 -0.14300281
v 0.04202917 0.03573619 -0.12402640
v 0.02799306 0.02611841 -0.14167965
v 0.03845165 0.02437223 -0.13470895
v 0.03253581 0.02496100 -0.13918818
v 0.03440141 0.02633669 -0.13723043
v 0.04725933 0.01086189 -0.12991664
v 0.03999192 0.03108733 -0.12986656
v 0.04788452 0.03964232 -0.11151048
v 0.03713463 0.00285017 -0.14031473
v 0.02687468 0.02824121 -0.14154474
v 0.03254185 0.00950495 -0.14308357
v 0.04738571 0.00086713 -0.13056503
v 0.04689532 0.04121242 -0.10970236
v 0.01327547 0.02020565 -0.14908946
v 0.04979318 0.03372928 -0.11431223
v 0.01723025 0.01677325 -0.14874701
v 0.01802300 0.00130770 -0.14974344
v 0.03428536 0.01894833 -0.14002519
v 0.01494352 0.01447433 -0.14970798
v 0.03312462 0.00450660 -0.14303727
v 0.03002137 0.02841681 -0.13953375
v 0.02388721 0.02613292 -0.14385651
v 0.04874746 0.01978233 -0.12592116
v 0.04368834 0.00425900 -0.13450858
v 0.04053636 0.03049668 -0.12962679
v 0.00949153 0.01934553 -0.14995380
v 0.04285913 0.03433863 -0.12448852
v 0.01887524 0.01581115 -0.14842145
v 0.03916416 0.02462291 -0.13397070
v 0.04137783 0.00664215 -0.13659524
v 0.04835033 0.03540080 -0.11528806
v 0.04163171 0.01060511 -0.13588522
v 0.03514687 0.00894319 -0.14137061
v 0.02554348 0.01543836 -0.14595922
v 0.04473432 0.03831344 -0.11741249
v 0.04921830 0.04400426 -0.10148134
v 0.02165649 0.02840702 -0.14365814
v 0.01376483 0.02384743 -0.14816439
v 0.02405215 0.02772396 -0.14322848
v 0.02281920 0.02128180 -0.14578444
v 0.02101064 0.02079807 -0.14667208
v 0.03795345 0.01923368 -0.13710684
v 0.01683660 0.02241874 -0.14766280
v 0.04311965 0.03746568 -0.11967082
v 0.04948651 0.04419404 -0.10055718
v 0.01645212 0.00749051 -0.14995265
v 0.04776787 0.00748002 -0.12974300
v 0.04130001 0.03353165 -0.12695113
v 0.04250469 0.02305624 -0.13137118
v 0.01674388 0.00468586 -0.14999187
v 0.03638930 0.01166170 -0.14008411
v 0.02875293 0.02195784 -0.14268556
v 0.04998984 0.03910041 -0.10727502
v 0.00551769 0.02578987 -0.14909370
v 0.03082272 0.00579649 -0.14436753
v 0.00484453 0.02686207 -0.14788251
v 0.00860338 0.02330359 -0.14929660
v 0.04710957 0.00274403 -0.13082795
v 0.03676117 0.02374657 -0.13642152
v 0.04871164 0.03975613 -0.10950421
v 0.00142533 0.02450474 -0.14960834
v 0.04777343 0.04254935 -0.10614535
v 0.03496426 0.01246889 -0.14098651
v 0.04782395 0.03354403 -0.11789491
v 0.04194589 0.02824883 -0.12933485
v 0.01168896 0.02230758 -0.14898271
v 0.04419855 0.00526473 -0.13394734
v 0.01737088 0.00002103 -0.14782493
v 0.04762656 0.04036599 -0.11099660
v 0.01252480 0.02401508 -0.14840871
v 0.04023322 0.02967374 -0.13037300
v 0.03659968 0.01459770 -0.13943831
v 0.02843266 0.02500709 -0.14182358
v 0.00979540 0.02173633 -0.14943826
v 0.02334998 0.01631119 -0.14671287
v 0.04269083 0.02159303 -0.13181282
v 0.04147884 0.02493707 -0.13154713
v 0.02057571 0.01524545 -0.14795748
v 0.02652345 0.00761214 -0.14645646
v 0.04334959 0.01949175 -0.13204473
v 0.00030738 0.02676063 -0.14773225
v 0.03647259 0.03239190 -0.13249744
v 0.02479839 0.02889694 -0.14213006
v 0.02245714 0.01288024 -0.14762617
v 0.03025152 0.03054727 -0.13796297
v 0.04592071 0.02819522 -0.12468481
v 0.00456961 0.02517650 -0.14931359
v 0.04996542 0.00704712 -0.12701308
v 0.03456097 0.02899108 -0.13597985
v 0.02391143 0.02523207 -0.14414537
v 0.00340339 0.02577982 -0.14924465
v 0.01394261 0.02224442 -0.14849693
v 0.04323808 0.03122281 -0.12608346
v 0.04424196 0.00408990 -0.13396594
v 0.03581706 0.02451484 -0.13691937
v 0.04024943 0.01719282 -0.13577278
v 0.03690498 0.01816736 -0.13832457
v 0.04846609 0.02178645 -0.12533864
v 0.02105439 0.00896138 -0.14856354
v 0.02454348 0.01214951 -0.14687507
v 0.03337644 0.02047035 -0.14021078
v 0.00601853 0.00259516 -0.14999983
v 0.01319317 0.02264140 -0.14857937
v 0.00030018 0.01841137 -0.14970302
v 0.02582071 0.02106906 -0.14446939
v 0.04010186 0.01647026 -0.13607902
v 0.04975022 0.00995354 -0.12703510
v 0.02043597 0.01413259 -0.14820136
v 0.03460323 0.02485629 -0.13770012
v 0.02708683 0.02985748 -0.13991298
v 0.04355071 0.00065449 -0.13475950
v 0.03913586 0.00547828 -0.13861612
v 0.04936838 0.02138618 -0.12442958
v 0.04437830 0.01095304 -0.13310910
v 0.02002923 0.02148093 -0.14684603
v 0.01393712 0.01584564 -0.14971624
v 0.03215850 0.01263762 -0.14285594
v 0.04373510 0.00234001 -0.13452690
v 0.03775714 0.03251477 -0.13134201
v 0.01935067 0.00944333 -0.14906877
v 0.04412791 0.01656186 -0.13214406
v 0.04799554 0.02475698 -0.12426635
v 0.02675148 0.00488834 -0.14650802
v 0.01665745 0.02785677 -0.14523603
v 0.01203295 0.02564188 -0.14811262
v 0.00997812 0.02247414 -0.14925795
v 0.03175731 0.00537878 -0.14382539
v 0.02536347 0.01887275 -0.14530112
v 0.04125062 0.01730808 -0.13478561
v 0.04163155 0.02543547 -0.13114837
v 0.02439996 0.01454791 -0.14661601
v 0.04887842 0.01946192 -0.12589703
v 0.01478858 0.02601582 -0.14730514
v 0.03393769 0.00181749 -0.14259661
v 0.01779275 0.01233910 -0.14922998
v 0.00030004 0.01733012 -0.14916409
v 0.04995670 0.04373786 -0.10013726
v 0.02893046 0.01906033 -0.14342700
v 0.04632393 0.04075137 -0.11092901
v 0.02837664 0.01396541 -0.14481953
v 0.01035060 0.02383390 -0.14888394
v 0.03444067 0.00178630 -0.14227009
v 0.02309557 0.00744038 -0.14789949
v 0.02782125 0.00001238 -0.14353503
v 0.03390837 0.01224706 -0.14178969
v 0.01956024 0.01207962 -0.14873276
v 0.02456352 0.01991583 -0.14541062
v 0.03817477 0.03399644 -0.12890098
v 0.04979154 0.03429358 -0.11372110
v 0.02200282 0.01829785 -0.14686011
v 0.04807232 0.03604428 -0.11514044
v 0.04923495 0.04217795 -0.10475106
v 0.01658321 0.01116670 -0.14966718
v 0.03138837 0.02674870 -0.13928841
v 0.02319057 0.02891060 -0.14243223
v 0.03759160 0.01559985 -0.13843679
v 0.04838216 0.00556047 -0.12915894
v 0.00579015 0.02650063 -0.14858074
v 0.01818968 0.02103599 -0.14757616
v 0.04532959 0.01719448 -0.13067940
v 0.04086625 0.00487500 -0.13719183
v 0.02025641 0.02419665 -0.14602783
v 0.02023888 0.01596362 -0.14794365
v 0.03422682 0.01393056 -0.14128101
v 0.03072748 0.00248509 -0.14453253
v 0.03429540 0.01032092 -0.14182604
v 0.01935694 0.01119863 -0.14888637
v 0.04263267 0.02412255 -0.13077093
v 0.04508979 0.00577979 -0.13295806
v 0.01280792 0.02671954 -0.14751124
v 0.04427684 0.01455054 -0.13250849
v 0.03276265 0.01184708 -0.14259243
v 0.03817571 0.03393596 -0.12906102
v 0.04950457 0.03597298 -0.11240290
v 0.01761572 0.01795885 -0.14843040
v 0.04193165 0.00336276 -0.13627313
v 0.03973609 0.03440291 -0.12761955
v 0.02733041 0.00147798 -0.14630285
v 0.04621952 0.01822780 -0.12937664
v 0.04996259 0.01393921 -0.12612798
v 0.02179045 0.02856796 -0.14333059
v 0.02507210 0.02875893 -0.14218246
v 0.01355030 0.02041816 -0.14898331
v 0.04044149 0.03481450 -0.12654690
v 0.01498587 0.01359631 -0.14983562
v 0.04829496 0.03298405 -0.11762444
v 0.03402429 0.01018582 -0.14204294
v 0.04537972 0.02307400 -0.12829688
v 0.03179084 0.00246018 -0.14390455
v 0.04071005 0.01306916 -0.13629066
v 0.01290484 0.01902273 -0.14941569
v 0.02908865 0.01558157 -0.14414112
v 0.02696045 0.00718471 -0.14627211
v 0.04127148 0.02937931 -0.12945442
v 0.02305264 0.00712946 -0.14793172
v 0.03385177 0.00593123 -0.14251318
v 0.04637955 0.02135447 -0.12798478
v 0.04995794 0.01314048 -0.12625934
v 0.01489066 0.01341893 -0.14987232
v 0.00523488 0.02651168 -0.14860058
v 0.04833391 0.02391155 -0.12435034
v 0.03562013 0.01470548 -0.14013242
v 0.04640942 0.00474642 -0.13156008
v 0.04070716 0.01027220 -0.13679676
v 0.02975691 0.00588599 -0.14494346
v 0.03586114 0.01770487 -0.13922761
v 0.04785722 0.00275753 -0.12995016
v 0.03309070 0.01173342 -0.14240068
v 0.01695955 0.01319454 -0.14937631
v 0.03114521 0.02980309 -0.13819906
v 0.01647061 0.01587987 -0.14910271
v 0.04275697 0.02068167 -0.13213671
v 0.04852730 0.04281110 -0.10504328
v 0.02806719 0.02322306 -0.14264653
v 0.01802662 0.01253664 -0.14914125
v 0.02970796 0.01326495 -0.14420688
v 0.02254951 0.02888502 -0.14250031
v 0.02296083 0.02883043 -0.14264014
v 0.01871358 0.00205812 -0.14954000
v 0.02636053 0.00290119 -0.14673738
v 0.02233405 0.00316452 -0.14836702
v 0.02068093 0.02813506 -0.14426084
v 0.03773368 0.03264710 -0.13126178
v 0.04648225 0.00504290 -0.13145891
v 0.01561266 0.01221889 -0.14980761
v 0.03752218 0.00027632 -0.14006438
v 0.04785096 0.03953386 -0.11171024
v 0.00098119 0.02626523 -0.14902419
v 0.02858297 0.02807472 -0.14058887
v 0.04901247 0.00030932 -0.12855670
v 0.01298914 0.01579624 -0.14992143
v 0.04903209 0.00964857 -0.12796075
v 0.02653409 0.00402080 -0.14664869
v 0.04821781 0.01027368 -0.12886822
v 0.02567702 0.01734032 -0.14549848
v 0.03995988 0.02336673 -0.13373231
v 0.03672392 0.03296433 -0.13151614
v 0.04197969 0.03501840 -0.12504824
v 0.02906343 0.01669618 -0.14392514
v 0.04879984 0.03611744 -0.11368872
v 0.01787362 0.02745023 -0.14574120
v 0.01503299 0.02465097 -0.14761283
v 0.01714771 0.02184623 -0.14770467
v 0.03123657 0.01005137 -0.14379343
v 0.03840695 0.00893899 -0.13892558
v 0.00077609 0.02384750 -0.14974768
v 0.01428160 0.02458869 -0.14782769
v 0.04747408 0.03484085 -0.11731352
v 0.03531660 0.00941333 -0.14120806
v 0.03771548 0.03342888 -0.13027694
v 0.01756639 0.00249339 -0.14985598
v 0.04961832 0.03308110 -0.11528944
v 0.02485876 0.01472426 -0.14638597
v 0.02842075 0.00815400 -0.14549730
v 0.02079595 0.01285715 -0.14823111
v 0.02135011 0.02827285 -0.14391715
v 0.04992015 0.01513157 -0.12595433
v 0.04293558 0.00066659 -0.13537513
v 0.04964380 0.04287777 -0.10248444
v 0.02171604 0.02887840 -0.14251792
v 0.00559498 0.02242870 -0.14978973
v 0.00644340 0.02586333 -0.14896753
f 197 206 525
f 343 576 525
f 525 206 343
f 525 576 337
f 337 197 525
f 842 197 68
f 863 206 98
f 35 206 863
f 35 343 206
f 428 343 625
f 343 35 625
f 863 811 625
f 625 35 863
f 576 343 829
f 197 337 898
f 576 449 547
f 197 842 73
f 206 197 73
f 297 262 814
f 262 18 814
f 395 897 6
f 63 829 556
f 556 829 428
f 509 343 428
f 428 829 509
f 509 829 343
f 905 829 63
f 63 449 905
f 576 829 545
f 545 449 576
f 829 905 545
f 545 905 449
f 27 898 337
f 27 262 297
f 297 898 27
f 991 449 773
f 991 547 449
f 23 897 206
f 206 73 23
f 23 842 897
f 23 73 842
f 206 897 94
f 897 395 94
f 94 395 865
f 516 722 712
f 538 625 811
f 538 1012 625
f 428 625 778
f 625 1012 778
f 171 556 428
f 576 547 667
f 547 27 667
f 667 337 576
f 667 27 337
f 156 687 675
f 635 1000 430
f 76 429 452
f 739 814 18
f 197 898 806
f 68 197 806
f 806 326 68
f 865 395 91
f 366 98 206
f 206 94 366
f 323 538 811
f 556 171 227
f 913 1020 238
f 238 136 297
f 1020 136 238
f 297 814 238
f 814 628 505
f 505 238 814
f 684 27 547
f 547 540 684
f 902 491 247
f 393 620 31
f 393 31 939
f 93 440 287
f 31 620 296
f 433 215 846
f 311 246 1000
f 953 430 1000
f 1000 246 953
f 953 246 430
f 813 975 429
f 979 692 156
f 153 170 649
f 649 167 716
f 814 685 460
f 531 628 814
f 814 460 531
f 531 460 551
f 213 628 531
f 814 739 552
f 139 806 898
f 139 1020 913
f 88 628 213
f 830 438 574
f 165 438 830
f 823 326 974
f 302 438 403
f 726 438 302
f 612 626 728
f 823 974 515
f 515 974 367
f 6 897 344
f 897 842 344
f 1022 712 722
f 98 366 360
f 863 98 360
f 360 722 516
f 360 811 863
f 360 516 811
f 360 1022 722
f 366 353 360
f 661 1022 360
f 360 353 661
f 707 323 811
f 707 181 1012
f 565 181 707
f 1012 538 707
f 538 323 707
f 1012 181 980
f 601 227 425
f 425 227 171
f 703 898 297
f 297 136 703
f 849 540 868
f 849 684 540
f 262 27 849
f 27 684 849
f 45 977 29
f 29 246 45
f 246 29 901
f 635 430 901
f 430 246 901
f 45 246 282
f 168 240 282
f 282 311 168
f 246 311 282
f 556 227 78
f 760 181 565
f 523 760 565
f 592 227 601
f 274 317 620
f 620 393 274
f 274 393 317
f 994 442 25
f 25 660 994
f 620 440 248
f 248 93 620
f 440 93 248
f 317 994 884
f 884 994 660
f 966 440 620
f 583 296 620
f 4 770 63
f 63 770 252
f 620 93 816
f 816 583 620
f 888 583 816
f 888 816 186
f 101 321 564
f 101 252 770
f 514 349 807
f 514 293 960
f 514 807 293
f 807 349 590
f 12 846 215
f 12 320 198
f 687 846 12
f 648 464 13
f 13 672 648
f 648 672 687
f 687 12 648
f 156 692 548
f 548 687 156
f 548 846 687
f 221 843 306
f 681 984 58
f 58 984 843
f 74 813 76
f 632 813 492
f 429 76 413
f 413 813 429
f 76 813 413
f 178 600 652
f 178 240 168
f 125 240 178
f 178 878 125
f 528 189 471
f 471 311 1000
f 568 641 683
f 516 351 787
f 247 491 201
f 877 568 683
f 187 699 55
f 55 731 187
f 55 699 450
f 450 150 923
f 818 651 319
f 345 395 6
f 345 91 395
f 712 1022 848
f 848 1022 661
f 661 132 848
f 582 368 911
f 911 724 582
f 55 704 920
f 920 704 578
f 996 500 1000
f 1000 500 889
f 131 899 889
f 923 150 10
f 746 398 203
f 203 636 746
f 649 716 585
f 134 716 167
f 134 585 716
f 134 947 18
f 167 947 134
f 880 448 190
f 379 448 713
f 713 984 681
f 713 448 880
f 880 984 713
f 602 182 809
f 962 340 391
f 391 340 470
f 315 460 685
f 551 460 315
f 685 552 315
f 315 552 551
f 213 531 821
f 821 531 551
f 1013 739 18
f 423 685 814
f 814 552 423
f 423 552 685
f 913 628 369
f 628 88 369
f 369 139 913
f 806 139 369
f 551 552 935
f 935 723 551
f 594 167 649
f 726 390 312
f 312 390 626
f 626 612 312
f 726 312 630
f 681 58 57
f 57 58 97
f 681 57 427
f 427 57 281
f 626 390 668
f 668 762 626
f 818 295 193
f 193 651 818
f 712 295 84
f 84 787 351
f 295 787 84
f 91 345 1007
f 865 91 1007
f 1007 94 865
f 1007 366 94
f 1007 408 366
f 366 408 822
f 822 353 366
f 408 1007 822
f 32 778 1012
f 1012 980 32
f 428 778 32
f 470 784 550
f 550 784 859
f 340 134 941
f 262 849 941
f 941 18 262
f 941 134 18
f 287 440 599
f 364 977 45
f 364 324 977
f 104 240 125
f 794 407 1010
f 686 407 794
f 794 571 686
f 607 642 54
f 442 994 163
f 708 994 981
f 556 78 708
f 708 981 556
f 708 163 994
f 317 393 61
f 61 994 317
f 61 393 939
f 981 994 284
f 1015 884 277
f 440 1015 277
f 620 317 218
f 317 884 218
f 322 1015 440
f 440 966 322
f 228 296 926
f 296 583 926
f 31 296 559
f 559 296 228
f 72 922 749
f 123 383 606
f 123 606 449
f 63 567 718
f 718 4 63
f 564 321 718
f 273 93 287
f 273 816 93
f 679 101 564
f 392 101 679
f 679 571 392
f 686 571 679
f 252 101 159
f 946 662 914
f 960 293 946
f 293 568 946
f 568 877 946
f 578 724 581
f 724 496 581
f 496 445 581
f 523 260 881
f 608 12 198
f 198 648 608
f 608 648 12
f 429 975 330
f 771 990 279
f 771 257 13
f 13 464 771
f 464 990 771
f 782 990 464
f 17 990 414
f 990 782 414
f 279 990 763
f 424 990 17
f 433 846 561
f 846 548 561
f 561 548 692
f 998 215 433
f 998 221 215
f 843 221 998
f 422 782 464
f 306 843 454
f 528 492 116
f 375 492 41
f 375 41 485
f 813 74 459
f 459 492 813
f 459 74 41
f 41 492 459
f 600 178 87
f 87 309 600
f 168 189 87
f 87 178 168
f 485 309 87
f 87 375 485
f 492 375 87
f 87 116 492
f 87 189 528
f 528 116 87
f 125 518 772
f 772 599 1005
f 287 599 772
f 629 189 168
f 629 471 189
f 609 309 485
f 652 600 236
f 236 963 652
f 600 309 236
f 309 963 236
f 992 568 293
f 516 787 535
f 811 516 535
f 535 807 811
f 293 807 535
f 535 992 293
f 641 568 535
f 568 992 535
f 799 48 831
f 43 48 799
f 747 48 43
f 490 201 831
f 683 780 95
f 95 877 683
f 780 946 95
f 95 946 877
f 687 672 734
f 654 326 823
f 654 842 68
f 68 326 654
f 378 931 399
f 691 319 651
f 691 902 247
f 651 670 691
f 491 902 691
f 81 822 1007
f 651 193 815
f 268 613 815
f 815 193 295
f 815 295 712
f 55 450 616
f 582 724 458
f 458 724 578
f 578 704 458
f 137 225 55
f 55 920 137
f 37 43 804
f 404 187 731
f 731 223 404
f 82 492 528
f 528 899 82
f 632 492 82
f 208 899 131
f 1000 889 194
f 194 889 899
f 194 899 528
f 194 471 1000
f 528 471 194
f 308 783 115
f 115 10 308
f 308 10 800
f 800 10 715
f 800 715 13
f 13 257 800
f 800 783 308
f 257 783 800
f 975 813 214
f 908 889 500
f 398 746 688
f 688 746 636
f 847 210 593
f 636 210 847
f 593 298 114
f 114 298 602
f 182 602 335
f 477 153 649
f 649 585 477
f 203 398 477
f 398 153 477
f 585 134 477
f 477 340 203
f 477 134 340
f 86 713 681
f 681 427 86
f 86 602 713
f 86 427 281
f 999 335 86
f 86 335 602
f 281 668 86
f 86 668 390
f 955 786 56
f 955 298 222
f 222 735 955
f 735 786 955
f 379 713 2
f 2 786 379
f 949 339 434
f 546 339 949
f 826 735 222
f 222 339 826
f 524 340 962
f 962 621 524
f 203 340 524
f 593 210 244
f 244 210 636
f 551 723 462
f 462 821 551
f 462 723 213
f 213 821 462
f 739 1013 776
f 776 1013 792
f 792 1013 172
f 673 369 88
f 88 331 673
f 673 974 326
f 367 974 673
f 673 331 367
f 326 806 797
f 806 369 797
f 797 673 326
f 369 673 797
f 758 830 574
f 574 331 758
f 758 331 88
f 758 88 213
f 213 830 758
f 638 331 574
f 638 515 367
f 367 331 638
f 403 438 242
f 242 438 165
f 165 830 242
f 242 830 213
f 569 649 261
f 569 594 649
f 302 594 569
f 726 302 569
f 261 390 569
f 569 390 726
f 796 312 612
f 796 630 312
f 796 612 728
f 574 438 175
f 175 438 726
f 175 638 574
f 515 638 175
f 823 515 702
f 702 774 823
f 945 668 281
f 762 668 945
f 945 51 728
f 97 51 945
f 728 626 945
f 626 762 945
f 859 391 874
f 874 550 859
f 874 391 470
f 449 606 555
f 959 849 868
f 868 941 959
f 959 941 849
f 868 993 995
f 995 941 868
f 47 941 995
f 120 644 503
f 644 188 503
f 233 549 689
f 689 549 893
f 470 689 893
f 893 784 470
f 482 599 440
f 440 631 482
f 324 599 482
f 482 631 901
f 99 104 125
f 125 772 99
f 99 772 1005
f 45 282 99
f 44 660 25
f 92 54 642
f 710 348 181
f 144 348 710
f 710 420 144
f 645 523 565
f 645 260 523
f 565 707 659
f 659 707 811
f 565 659 286
f 706 78 227
f 227 592 706
f 939 31 748
f 31 556 748
f 700 284 994
f 700 748 284
f 939 748 700
f 440 277 117
f 117 277 607
f 660 642 292
f 292 642 607
f 292 884 660
f 292 840 884
f 732 277 884
f 22 926 583
f 564 718 388
f 388 718 567
f 749 922 627
f 627 537 749
f 749 537 377
f 591 407 564
f 591 772 407
f 493 583 888
f 493 781 583
f 493 388 781
f 437 101 392
f 437 159 101
f 252 159 987
f 53 662 655
f 662 946 655
f 89 496 724
f 839 445 496
f 839 924 445
f 539 5 30
f 30 5 149
f 363 1016 191
f 777 5 53
f 53 370 777
f 986 514 960
f 960 946 986
f 946 695 986
f 975 280 354
f 354 330 975
f 354 783 257
f 257 330 354
f 69 330 257
f 257 771 69
f 330 69 743
f 743 69 771
f 429 330 743
f 743 763 429
f 743 771 279
f 279 763 743
f 990 424 834
f 429 763 834
f 834 763 990
f 387 374 595
f 595 796 728
f 728 387 595
f 97 58 604
f 604 58 843
f 843 998 604
f 934 387 728
f 728 51 934
f 934 998 374
f 934 51 998
f 805 595 157
f 157 595 374
f 157 998 433
f 374 998 157
f 133 915 452
f 452 414 133
f 133 414 782
f 971 422 464
f 198 544 971
f 971 648 198
f 464 648 971
f 782 422 738
f 394 454 752
f 880 394 752
f 752 984 880
f 843 984 752
f 752 454 843
f 200 454 394
f 200 544 198
f 198 320 200
f 444 472 34
f 34 200 394
f 34 472 544
f 544 200 34
f 544 472 14
f 14 472 850
f 14 971 544
f 422 971 14
f 148 472 444
f 850 472 148
f 878 178 586
f 287 772 573
f 573 186 816
f 28 629 168
f 471 629 28
f 168 311 28
f 311 471 28
f 108 484 862
f 862 74 76
f 41 74 862
f 485 41 862
f 862 484 485
f 664 963 309
f 579 521 951
f 120 579 951
f 314 824 812
f 476 730 392
f 199 43 37
f 199 747 43
f 683 529 584
f 853 48 336
f 864 48 853
f 831 48 864
f 864 490 831
f 39 307 150
f 150 450 39
f 13 715 669
f 669 672 13
f 669 734 672
f 943 675 687
f 687 734 943
f 989 1007 345
f 989 81 1007
f 823 774 900
f 900 654 823
f 805 157 900
f 919 399 931
f 931 670 919
f 919 670 613
f 919 613 268
f 268 989 919
f 831 201 436
f 421 691 670
f 491 691 421
f 132 81 852
f 852 848 132
f 852 989 268
f 81 989 852
f 268 815 852
f 852 815 848
f 1023 670 651
f 651 815 1023
f 613 670 1023
f 1023 815 613
f 712 848 750
f 750 815 712
f 848 815 750
f 582 458 802
f 802 235 385
f 225 804 498
f 498 804 43
f 43 404 498
f 498 404 223
f 498 223 731
f 498 731 55
f 55 225 498
f 495 920 578
f 43 799 1003
f 1003 404 43
f 328 115 280
f 923 10 328
f 10 115 328
f 280 115 851
f 851 115 783
f 851 354 280
f 783 354 851
f 33 280 975
f 560 813 632
f 560 214 813
f 131 889 209
f 889 908 209
f 209 208 131
f 461 908 500
f 180 688 636
f 182 335 180
f 398 688 180
f 180 335 261
f 180 153 398
f 170 153 180
f 261 649 180
f 649 170 180
f 577 602 809
f 809 114 577
f 577 114 602
f 258 832 768
f 379 786 768
f 735 258 768
f 768 786 735
f 310 190 448
f 79 589 339
f 380 589 79
f 79 339 546
f 185 86 390
f 999 86 185
f 185 390 261
f 261 335 185
f 185 335 999
f 298 955 59
f 602 298 59
f 59 955 56
f 56 713 59
f 713 602 59
f 593 694 526
f 526 298 593
f 962 391 362
f 362 391 859
f 883 621 962
f 883 244 621
f 593 244 883
f 883 694 593
f 962 694 883
f 621 244 507
f 203 524 507
f 507 524 621
f 507 636 203
f 507 244 636
f 792 512 912
f 912 776 792
f 532 172 1013
f 18 947 532
f 532 1013 18
f 947 497 532
f 825 947 167
f 167 594 825
f 432 594 302
f 432 302 403
f 403 512 432
f 432 512 792
f 723 935 769
f 213 723 769
f 769 242 213
f 446 512 403
f 403 242 446
f 910 552 739
f 726 630 49
f 49 175 726
f 630 175 49
f 515 175 502
f 502 702 515
f 502 175 630
f 630 796 502
f 938 57 97
f 97 945 938
f 281 57 938
f 938 945 281
f 741 171 428
f 439 980 181
f 181 348 439
f 266 109 64
f 266 64 171
f 266 710 109
f 420 710 266
f 171 741 266
f 266 741 50
f 266 50 980
f 980 439 266
f 819 617 773
f 819 555 617
f 21 555 606
f 617 555 21
f 21 606 112
f 112 606 411
f 606 383 411
f 411 123 570
f 383 123 411
f 868 540 918
f 698 232 234
f 47 995 698
f 964 145 985
f 617 964 985
f 234 103 519
f 234 232 250
f 250 103 234
f 232 103 250
f 721 130 188
f 721 188 644
f 285 689 470
f 470 340 285
f 285 233 689
f 340 941 285
f 941 1018 285
f 176 644 120
f 176 965 644
f 120 951 176
f 102 951 521
f 386 730 120
f 120 503 386
f 549 233 217
f 233 285 217
f 217 285 1018
f 434 339 562
f 859 784 562
f 784 893 155
f 631 633 365
f 635 901 365
f 901 631 365
f 288 482 901
f 977 324 288
f 324 482 288
f 45 99 19
f 19 99 1005
f 52 92 299
f 54 92 52
f 417 92 44
f 299 92 417
f 417 44 25
f 191 299 417
f 417 338 191
f 956 710 191
f 982 706 592
f 494 706 982
f 982 592 601
f 109 710 982
f 618 710 523
f 441 956 338
f 710 956 441
f 260 286 671
f 671 881 260
f 590 695 671
f 807 590 671
f 671 286 807
f 671 946 914
f 671 695 946
f 807 286 575
f 575 286 659
f 811 807 575
f 575 659 811
f 78 706 418
f 418 706 494
f 196 633 631
f 196 631 440
f 440 117 196
f 884 840 954
f 954 732 884
f 392 730 301
f 301 72 392
f 183 503 188
f 188 130 791
f 791 183 188
f 232 145 828
f 749 377 290
f 63 987 290
f 290 449 63
f 290 123 449
f 241 123 290
f 740 130 527
f 527 143 740
f 143 785 740
f 537 627 11
f 130 740 11
f 922 130 11
f 11 627 922
f 1019 872 123
f 1019 123 241
f 957 591 564
f 564 388 957
f 388 493 957
f 26 437 392
f 392 72 26
f 749 437 26
f 26 72 749
f 431 437 749
f 159 437 431
f 749 290 431
f 191 1016 666
f 1016 646 666
f 666 299 191
f 869 646 1016
f 496 46 869
f 46 646 869
f 869 839 496
f 161 118 46
f 113 996 1000
f 836 754 368
f 46 754 836
f 496 89 334
f 682 89 724
f 754 89 682
f 152 754 46
f 152 89 754
f 128 149 5
f 173 105 936
f 789 105 384
f 384 105 173
f 445 924 384
f 384 149 789
f 30 149 384
f 578 581 384
f 384 581 445
f 774 702 745
f 745 502 796
f 702 502 745
f 1011 51 97
f 998 51 1011
f 909 374 387
f 387 934 909
f 909 934 374
f 561 729 481
f 174 738 422
f 915 738 174
f 452 915 174
f 306 454 75
f 454 200 75
f 75 221 306
f 75 200 320
f 215 221 75
f 75 12 215
f 320 12 75
f 766 14 850
f 372 586 178
f 372 178 652
f 652 272 372
f 906 927 948
f 652 906 948
f 948 272 652
f 948 772 518
f 407 772 948
f 1010 407 948
f 948 927 1010
f 186 573 761
f 761 573 610
f 610 573 230
f 230 573 772
f 230 957 610
f 772 591 230
f 591 957 230
f 158 484 108
f 622 609 485
f 485 967 622
f 622 967 609
f 609 967 858
f 309 609 677
f 677 664 309
f 609 858 677
f 677 858 211
f 341 151 857
f 857 270 341
f 676 397 579
f 314 812 676
f 120 730 676
f 676 927 314
f 1010 927 676
f 676 579 120
f 925 824 652
f 925 812 824
f 652 640 925
f 664 677 833
f 963 664 833
f 652 963 833
f 833 640 652
f 818 319 835
f 455 587 787
f 455 835 587
f 455 295 818
f 818 835 455
f 719 529 216
f 216 529 683
f 944 584 775
f 944 864 853
f 775 584 952
f 952 584 529
f 751 780 683
f 683 584 751
f 653 412 37
f 37 804 653
f 804 495 653
f 307 39 517
f 517 39 450
f 150 307 402
f 402 657 150
f 402 307 378
f 156 675 844
f 675 943 844
f 150 657 465
f 465 943 734
f 465 844 943
f 465 10 150
f 715 10 465
f 465 669 715
f 734 669 465
f 842 989 154
f 154 989 345
f 154 344 842
f 154 345 6
f 6 344 154
f 65 595 805
f 805 900 65
f 774 595 65
f 65 900 774
f 399 919 737
f 650 510 737
f 842 654 127
f 127 989 842
f 923 235 265
f 265 450 923
f 265 616 450
f 876 704 55
f 55 616 876
f 876 458 704
f 876 802 458
f 616 265 876
f 876 265 802
f 578 384 520
f 520 384 173
f 920 495 1004
f 1004 495 804
f 1008 1003 799
f 404 1003 1008
f 205 517 187
f 307 517 205
f 378 307 205
f 886 799 831
f 300 328 280
f 975 214 701
f 701 33 975
f 229 214 623
f 214 560 623
f 623 560 632
f 899 208 623
f 632 82 623
f 623 82 899
f 280 33 184
f 33 701 184
f 184 214 229
f 184 701 214
f 636 847 788
f 788 180 636
f 396 448 379
f 396 310 448
f 880 190 140
f 190 310 140
f 434 480 467
f 480 469 467
f 614 389 24
f 480 155 614
f 735 826 138
f 138 566 735
f 451 790 764
f 339 526 543
f 543 526 694
f 543 694 962
f 962 362 543
f 680 526 339
f 680 339 222
f 1009 825 594
f 594 432 1009
f 1009 497 947
f 947 825 1009
f 792 172 501
f 501 432 792
f 172 532 501
f 501 532 497
f 497 432 501
f 935 242 988
f 988 769 935
f 242 769 988
f 346 411 570
f 570 145 346
f 112 411 346
f 678 993 868
f 868 918 678
f 678 918 617
f 773 617 416
f 617 968 416
f 416 991 773
f 547 991 416
f 416 968 547
f 617 918 162
f 162 968 617
f 162 918 540
f 547 968 162
f 162 540 547
f 405 698 234
f 47 698 405
f 234 519 405
f 930 145 232
f 930 985 145
f 3 143 527
f 527 130 3
f 130 721 3
f 3 103 232
f 3 721 103
f 965 176 725
f 725 176 951
f 644 965 725
f 725 951 644
f 381 793 644
f 644 951 381
f 951 102 381
f 634 217 932
f 121 519 103
f 121 405 519
f 121 217 47
f 47 217 100
f 100 217 1018
f 100 941 47
f 100 1018 941
f 958 480 434
f 434 562 958
f 958 155 480
f 958 562 784
f 784 155 958
f 15 893 549
f 15 155 893
f 549 614 15
f 15 614 155
f 251 52 299
f 46 596 251
f 251 161 46
f 191 338 904
f 904 956 191
f 338 956 904
f 494 982 40
f 40 982 710
f 442 163 40
f 860 618 523
f 710 441 665
f 442 40 665
f 665 40 710
f 903 388 567
f 903 567 63
f 110 130 922
f 110 791 130
f 922 443 110
f 937 1019 241
f 937 11 740
f 697 987 159
f 159 431 697
f 697 290 987
f 697 431 290
f 845 646 46
f 46 118 845
f 845 382 646
f 466 294 54
f 759 117 607
f 607 54 759
f 54 294 759
f 633 196 80
f 996 113 522
f 500 996 522
f 582 461 522
f 522 461 500
f 522 368 582
f 522 836 368
f 352 46 496
f 496 334 352
f 1016 363 637
f 30 869 637
f 637 869 1016
f 637 539 30
f 637 720 539
f 473 149 124
f 149 128 124
f 255 149 473
f 978 916 316
f 316 942 313
f 316 916 979
f 979 942 316
f 692 979 871
f 979 916 871
f 871 561 692
f 871 729 561
f 347 595 774
f 774 745 347
f 347 745 595
f 796 595 453
f 453 745 796
f 595 745 453
f 557 604 998
f 998 1011 557
f 97 604 557
f 557 1011 97
f 572 790 451
f 572 204 350
f 71 862 76
f 108 862 71
f 71 76 452
f 108 245 663
f 663 858 108
f 14 766 371
f 451 820 856
f 856 572 451
f 83 948 518
f 779 967 485
f 779 158 967
f 485 484 779
f 484 158 779
f 967 158 541
f 541 858 967
f 541 158 108
f 108 858 541
f 917 677 211
f 211 857 917
f 858 663 803
f 211 858 325
f 325 857 211
f 1010 676 409
f 409 676 730
f 730 476 409
f 397 676 359
f 359 833 397
f 359 676 812
f 887 835 319
f 835 216 639
f 719 216 605
f 483 944 853
f 584 944 483
f 490 864 111
f 864 944 111
f 111 944 775
f 16 370 53
f 173 936 16
f 16 584 508
f 16 255 370
f 936 255 16
f 16 653 173
f 508 653 16
f 412 653 126
f 126 653 508
f 126 508 853
f 853 336 126
f 1002 402 378
f 378 399 1002
f 657 402 1002
f 313 942 798
f 156 844 798
f 798 979 156
f 798 942 979
f 885 737 656
f 656 737 510
f 656 316 885
f 399 737 488
f 885 313 488
f 488 737 885
f 961 737 919
f 961 127 737
f 961 919 989
f 989 127 961
f 650 737 817
f 737 127 817
f 817 127 654
f 817 510 650
f 654 656 817
f 817 656 510
f 235 802 714
f 714 265 235
f 802 265 714
f 693 495 578
f 578 520 693
f 489 931 378
f 378 205 489
f 489 205 122
f 727 421 670
f 799 886 192
f 886 727 192
f 192 489 122
f 192 727 670
f 192 670 931
f 931 489 192
f 385 235 744
f 239 461 582
f 582 356 239
f 582 802 177
f 177 356 582
f 357 209 908
f 357 239 356
f 208 209 866
f 866 623 208
f 229 623 866
f 866 184 229
f 280 184 129
f 209 357 129
f 129 866 209
f 184 866 129
f 129 300 280
f 328 300 129
f 129 744 235
f 801 744 129
f 129 235 923
f 923 328 129
f 160 801 129
f 129 356 160
f 129 357 356
f 854 847 593
f 854 788 847
f 593 114 854
f 379 768 400
f 400 396 379
f 400 768 832
f 400 832 258
f 258 396 400
f 107 394 880
f 880 140 107
f 107 34 394
f 444 34 107
f 62 589 380
f 62 929 589
f 589 929 275
f 480 614 598
f 940 614 549
f 389 614 940
f 753 102 521
f 753 333 793
f 793 381 753
f 753 381 102
f 24 389 882
f 932 756 882
f 276 753 521
f 756 753 276
f 24 882 276
f 276 882 756
f 341 513 554
f 735 566 456
f 566 580 456
f 426 764 790
f 310 396 475
f 396 141 475
f 475 140 310
f 475 107 140
f 589 838 891
f 271 362 859
f 271 543 362
f 859 562 271
f 271 562 339
f 142 432 497
f 497 1009 142
f 142 1009 432
f 647 446 242
f 242 1001 647
f 736 242 935
f 736 1001 242
f 910 1001 736
f 736 935 552
f 552 910 736
f 504 995 993
f 617 985 553
f 553 678 617
f 232 828 119
f 119 3 232
f 119 828 143
f 143 3 119
f 793 333 742
f 644 793 742
f 742 721 644
f 875 742 333
f 549 217 169
f 217 634 169
f 169 634 932
f 932 217 224
f 217 121 224
f 224 875 932
f 121 875 224
f 47 405 767
f 767 121 47
f 405 121 767
f 147 860 191
f 881 671 711
f 976 563 881
f 881 896 976
f 388 903 342
f 342 903 895
f 895 179 342
f 342 179 781
f 781 388 342
f 583 950 757
f 757 22 583
f 267 179 895
f 63 556 267
f 267 903 63
f 895 903 267
f 267 757 950
f 267 556 31
f 31 559 267
f 730 443 1006
f 443 106 1006
f 1006 301 730
f 283 106 443
f 922 72 283
f 283 443 922
f 263 1019 879
f 872 1019 263
f 1019 937 457
f 457 937 740
f 299 382 603
f 603 251 299
f 220 466 596
f 294 466 220
f 220 80 294
f 861 251 596
f 596 466 861
f 479 365 633
f 633 80 479
f 479 80 365
f 928 637 563
f 720 637 928
f 149 255 401
f 597 313 885
f 885 316 597
f 597 316 313
f 243 871 157
f 561 481 243
f 243 481 729
f 729 871 243
f 433 561 243
f 243 157 433
f 269 245 108
f 108 71 269
f 269 71 245
f 422 468 765
f 765 174 422
f 245 71 478
f 478 289 245
f 174 765 478
f 468 289 478
f 478 765 468
f 452 174 478
f 478 71 452
f 256 803 663
f 341 270 256
f 270 803 256
f 463 146 361
f 361 146 487
f 536 766 850
f 870 371 766
f 870 289 468
f 870 856 289
f 870 536 856
f 766 536 870
f 870 468 422
f 14 371 870
f 422 14 870
f 948 83 969
f 878 586 969
f 397 833 237
f 237 833 677
f 677 917 237
f 579 397 237
f 270 857 474
f 857 325 474
f 474 803 270
f 858 803 474
f 474 325 858
f 247 201 355
f 201 490 355
f 355 887 319
f 355 691 247
f 319 691 355
f 542 216 835
f 835 887 542
f 303 639 216
f 303 535 787
f 787 587 303
f 641 535 303
f 683 641 303
f 303 216 683
f 827 111 775
f 490 111 827
f 775 291 827
f 827 291 719
f 719 605 827
f 972 16 53
f 67 751 584
f 584 16 67
f 16 972 67
f 67 972 53
f 53 655 67
f 212 1002 399
f 399 488 212
f 212 488 313
f 657 1002 212
f 313 798 212
f 844 465 1017
f 1017 798 844
f 1017 212 798
f 978 316 1021
f 316 656 1021
f 1021 656 900
f 1021 900 157
f 157 871 1021
f 1021 916 978
f 1021 871 916
f 654 900 253
f 253 656 654
f 900 656 253
f 201 727 373
f 373 436 201
f 373 727 886
f 187 404 894
f 709 802 385
f 709 177 802
f 788 854 254
f 182 180 254
f 180 788 254
f 254 854 114
f 809 182 254
f 254 114 809
f 929 62 358
f 358 62 434
f 434 467 358
f 588 275 36
f 36 275 929
f 997 426 790
f 690 469 480
f 480 598 690
f 841 614 24
f 588 598 841
f 841 151 341
f 588 619 534
f 534 598 588
f 534 619 467
f 534 467 469
f 921 940 549
f 389 940 921
f 549 169 921
f 499 756 932
f 499 753 756
f 333 753 318
f 932 875 318
f 318 875 333
f 318 499 932
f 753 499 318
f 521 327 447
f 447 276 521
f 406 396 258
f 406 141 396
f 755 426 513
f 755 513 341
f 589 275 9
f 9 838 589
f 790 475 329
f 329 475 141
f 790 572 305
f 305 475 790
f 444 107 643
f 107 475 643
f 643 148 444
f 643 475 486
f 643 486 148
f 506 566 589
f 589 891 506
f 506 580 566
f 249 891 838
f 339 543 231
f 231 271 339
f 543 271 231
f 195 647 1001
f 195 910 739
f 195 1001 910
f 678 553 85
f 995 504 85
f 85 553 985
f 85 698 995
f 985 930 85
f 232 698 85
f 85 930 232
f 202 121 103
f 202 875 121
f 191 710 96
f 8 711 671
f 20 267 950
f 179 267 20
f 873 283 72
f 855 263 879
f 570 263 855
f 855 145 570
f 855 828 145
f 143 828 855
f 855 785 143
f 161 251 219
f 251 603 219
f 382 845 77
f 77 603 382
f 207 220 596
f 717 113 635
f 80 220 717
f 635 365 717
f 365 80 717
f 705 637 363
f 705 363 191
f 191 860 705
f 563 637 907
f 907 558 563
f 881 563 674
f 563 558 674
f 523 881 674
f 674 860 523
f 674 705 860
f 38 255 936
f 38 401 255
f 341 256 164
f 164 755 341
f 487 755 164
f 245 289 615
f 289 856 615
f 615 663 245
f 615 856 820
f 615 361 487
f 487 164 615
f 332 536 850
f 850 148 332
f 148 486 332
f 332 486 350
f 350 204 332
f 878 969 933
f 933 969 83
f 579 237 42
f 42 237 917
f 415 521 579
f 579 42 415
f 415 327 521
f 415 857 151
f 415 447 327
f 226 465 657
f 226 1017 465
f 657 212 226
f 404 1008 7
f 7 894 404
f 122 205 611
f 611 192 122
f 611 205 187
f 187 894 611
f 304 598 614
f 614 841 304
f 304 841 598
f 24 276 658
f 658 841 24
f 511 658 276
f 841 658 511
f 588 841 696
f 341 554 696
f 696 841 341
f 997 533 696
f 264 882 389
f 389 921 264
f 932 882 264
f 264 169 932
f 264 921 169
f 276 447 890
f 890 511 276
f 890 415 151
f 447 415 890
f 151 841 890
f 841 511 890
f 141 406 135
f 764 426 259
f 426 755 259
f 259 146 463
f 733 9 790
f 838 9 733
f 410 572 350
f 678 85 808
f 808 85 504
f 993 678 808
f 808 504 993
f 875 202 435
f 721 742 435
f 742 875 435
f 435 202 103
f 624 147 191
f 191 96 624
f 710 618 66
f 66 96 710
f 970 976 896
f 539 976 970
f 5 539 970
f 970 662 53
f 53 5 970
f 72 301 166
f 166 873 72
f 795 522 113
f 113 717 795
f 663 615 60
f 60 615 164
f 857 415 867
f 867 917 857
f 867 42 917
f 212 1017 983
f 983 226 212
f 1017 226 983
f 810 275 588
f 588 837 810
f 70 533 997
f 70 997 790
f 790 9 70
f 973 696 533
f 973 837 588
f 588 696 973
f 90 249 141
f 141 135 90
f 891 249 90
f 764 259 530
f 530 259 463
f 278 305 572
f 572 410 278
f 103 721 1
f 1 435 103
f 721 435 1
f 8 970 419
f 419 970 896
f 711 8 419
f 376 596 46
f 46 836 376
f 836 522 376
f 376 207 596
f 1014 717 220
f 1014 795 717
f 522 795 1014
f 220 207 892
f 892 1014 220
f 207 376 892
f 913 238 505
f 505 628 913
f 703 136 1020
f 703 139 898
f 1020 139 703
f 84 351 516
f 516 712 84
f 322 884 1015
f 322 966 620
f 620 218 322
f 322 218 884
f 770 4 718
f 718 101 770
f 321 101 718
f 679 407 686
f 564 407 679
f 661 353 81
f 81 132 661
f 353 822 81
f 56 786 2
f 2 713 56
f 470 550 874
f 240 104 99
f 99 282 240
f 660 44 92
f 92 642 660
f 181 760 710
f 760 523 710
f 286 645 565
f 260 645 286
f 981 284 748
f 556 981 748
f 994 61 700
f 700 61 939
f 63 252 987
f 986 590 349
f 349 514 986
f 986 695 590
f 834 414 452
f 452 429 834
f 17 414 834
f 834 424 17
f 915 133 738
f 738 133 782
f 816 273 573
f 573 273 287
f 824 927 906
f 824 906 652
f 314 927 824
f 741 32 980
f 428 32 741
f 980 50 741
f 144 420 266
f 266 348 144
f 266 439 348
f 449 555 819
f 773 449 819
f 288 29 977
f 288 901 29
f 1005 599 19
f 19 364 45
f 19 599 324
f 324 364 19
f 601 425 982
f 171 64 982
f 64 109 982
f 982 425 171
f 607 277 954
f 954 292 607
f 840 292 954
f 277 732 954
f 113 1000 635
f 682 911 368
f 368 754 682
f 724 911 682
f 384 869 30
f 924 839 384
f 839 869 384
f 610 957 761
f 888 186 761
f 761 493 888
f 761 957 493
f 455 787 295
f 719 291 952
f 952 529 719
f 952 291 775
f 517 450 699
f 699 187 517
f 225 137 1004
f 1004 804 225
f 1004 137 920
f 138 826 339
f 339 589 138
f 589 566 138
f 222 298 680
f 298 526 680
f 346 964 617
f 346 21 112
f 617 21 346
f 346 145 964
f 40 708 78
f 78 418 40
f 163 708 40
f 40 418 494
f 665 417 25
f 25 442 665
f 338 417 665
f 665 441 338
f 730 386 110
f 110 443 730
f 110 386 503
f 503 183 110
f 183 791 110
f 937 377 537
f 241 290 937
f 937 290 377
f 537 11 937
f 299 666 382
f 382 666 646
f 80 196 117
f 117 759 80
f 80 759 294
f 352 334 89
f 352 152 46
f 89 152 352
f 473 124 255
f 5 777 255
f 255 777 370
f 255 128 5
f 255 124 128
f 392 571 409
f 409 794 1010
f 571 794 409
f 409 476 392
f 359 925 640
f 640 833 359
f 812 925 359
f 508 584 483
f 853 508 483
f 48 747 126
f 37 412 126
f 126 199 37
f 747 199 126
f 126 336 48
f 693 653 495
f 173 653 693
f 693 520 173
f 491 421 727
f 727 201 491
f 461 239 357
f 908 461 357
f 62 949 434
f 62 79 546
f 546 949 62
f 380 79 62
f 267 559 228
f 926 22 267
f 228 926 267
f 22 757 267
f 570 123 263
f 123 872 263
f 52 251 861
f 54 52 861
f 861 466 54
f 928 976 539
f 539 720 928
f 563 976 928
f 586 372 969
f 969 372 272
f 272 948 969
f 835 639 303
f 587 835 303
f 216 542 827
f 827 355 490
f 827 605 216
f 887 355 827
f 827 542 887
f 67 655 946
f 67 946 780
f 780 751 67
f 373 886 831
f 831 436 373
f 709 801 160
f 160 356 709
f 385 744 709
f 356 177 709
f 709 744 801
f 36 619 588
f 929 358 36
f 467 619 36
f 36 358 467
f 534 690 598
f 469 690 534
f 739 776 195
f 195 912 512
f 776 912 195
f 512 446 195
f 446 647 195
f 20 950 583
f 583 781 20
f 781 179 20
f 879 1019 855
f 855 457 740
f 855 740 785
f 1019 457 855
f 77 845 118
f 118 161 77
f 161 219 77
f 77 219 603
f 674 907 637
f 637 705 674
f 558 907 674
f 38 936 105
f 38 105 789
f 149 401 38
f 789 149 38
f 572 856 332
f 204 572 332
f 856 536 332
f 933 518 125
f 125 878 933
f 933 83 518
f 799 192 611
f 611 1008 799
f 611 7 1008
f 894 7 611
f 513 426 696
f 696 554 513
f 426 997 696
f 259 755 487
f 487 146 259
f 790 329 733
f 141 249 733
f 733 329 141
f 733 249 838
f 860 147 66
f 618 860 66
f 147 624 66
f 66 624 96
f 914 662 970
f 970 671 914
f 970 8 671
f 166 1006 106
f 301 1006 166
f 106 283 166
f 283 873 166
f 60 164 256
f 60 256 663
f 867 415 42
f 275 810 973
f 973 9 275
f 973 70 9
f 973 810 837
f 533 70 973
f 735 456 90
f 90 258 735
f 90 456 580
f 580 506 90
f 90 406 258
f 90 506 891
f 90 135 406
f 451 764 530
f 530 820 451
f 530 615 820
f 463 361 530
f 361 615 530
f 486 475 278
f 350 486 278
f 475 305 278
f 278 410 350
f 881 711 419
f 419 896 881
f 522 1014 892
f 892 376 522

