# https://github.com/mikedh/trimesh
v 0.04694791 -0.04974412 -0.03077442
v 0.04712687 -0.04986999 -0.03096125
v 0.00275635 -0.04998565 -0.02776464
v 0.04508738 -0.04167397 -0.02801306
v 0.04981428 -0.01846063 -0.02991516
v 0.04846902 -0.01601072 -0.02886524
v 0.04390671 -0.04341639 -0.02778060
v 0.04918536 -0.04173804 -0.03094500
v 0.04811816 -0.01075419 -0.02852886
v 0.04689614 -0.04849493 -0.03044459
v 0.04675570 -0.01665040 -0.02785925
v 0.04919806 -0.03779636 -0.03049312
v 0.04979456 -0.04144395 -0.03175378
v 0.04820886 -0.01727376 -0.02869819
v 0.04799879 -0.00010277 -0.02995716
v 0.04467203 -0.04900056 -0.02900209
v 0.04990650 -0.02241953 -0.03009909
v 0.04931035 -0.01401893 -0.02945797
v 0.04875001 -0.04693169 -0.03199633
v 0.00870775 -0.04788893 -0.03325681
v 0.04618542 -0.04294835 -0.02890563
v 0.04691640 -0.01407162 -0.02788590
v 0.04598341 -0.03637721 -0.02804165
v 0.04983899 -0.04724619 -0.03477815
v 0.04881401 -0.04672555 -0.03201601
v 0.04997544 -0.04683425 -0.04062378
v 0.04905884 -0.04933372 -0.03436714
v 0.04969203 -0.01561811 -0.02976590
v 0.04785876 -0.04072498 -0.02983512
v 0.04330447 -0.04807051 -0.02795217
v 0.04655986 -0.03261081 -0.02814746
v 0.04579351 -0.04983678 -0.02999681
v 0.04468838 -0.04224300 -0.02790095
v 0.04656637 -0.02920915 -0.02798949
v 0.04901399 -0.03148209 -0.02985120
v 0.04249366 -0.04759695 -0.02776390
v 0.00812560 -0.04730755 -0.03269507
v 0.04415084 -0.04226044 -0.02778111
v 0.04980985 -0.01160469 -0.02979649
v 0.04805704 -0.00928497 -0.02847227
v 0.04640595 -0.02483316 -0.02785195
v 0.04840917 -0.02676868 -0.02914921
v 0.04880938 -0.02256877 -0.02928690
v 0.04782248 -0.02106390 -0.02850518
v 0.00501329 -0.04998900 -0.02776390
v 0.04978934 -0.03622726 -0.03079186
v 0.04633757 -0.01982384 -0.02778683
v 0.04605166 -0.01753759 -0.02776390
v 0.04617145 -0.03613775 -0.02812276
v 0.04907142 -0.03972744 -0.03060143
v 0.04904135 -0.01550068 -0.02928004
v 0.04376941 -0.04330964 -0.02776707
v 0.04536547 -0.03323920 -0.02777512
v 0.04937289 -0.00103863 -0.02942481
v 0.04500122 -0.04714230 -0.02880331
v 0.04854738 -0.04410113 -0.03080254
v 0.04704806 -0.02849789 -0.02822289
v 0.04994833 -0.00448770 -0.02985375
v 0.04847464 -0.00749874 -0.02877058
v 0.04987169 -0.04812723 -0.03549016
v 0.04907894 -0.01656416 -0.02932974
v 0.04686717 -0.01715918 -0.02789408
v 0.04744193 -0.00861522 -0.02804897
v 0.04794575 -0.01100640 -0.02840404
v 0.04969999 -0.04759964 -0.03465271
v 0.04936929 -0.00023926 -0.02942213
v 0.04741463 -0.01014561 -0.02804934
v 0.04792921 -0.00262110 -0.02835302
v 0.04673784 -0.03087032 -0.02815444
v 0.04833622 -0.04033810 -0.03013751
v 0.04947348 -0.01971329 -0.02969265
v 0.04411299 -0.04704358 -0.02817826
v 0.04995070 -0.02857361 -0.03038100
v 0.04445729 -0.04836018 -0.02869601
v 0.00996436 -0.04994646 -0.03325681
v 0.04931305 -0.01868587 -0.02954756
v 0.04582949 -0.02776620 -0.02777325
v 0.04496116 -0.04030722 -0.02787434
v 0.04913781 -0.04771871 -0.03336994
v 0.04793574 -0.02914274 -0.02891107
v 0.04915851 -0.04499908 -0.03184917
v 0.04906489 -0.04526479 -0.03177846
v 0.04787473 -0.01013047 -0.02834315
v 0.04463376 -0.03939098 -0.02777711
v 0.04917197 -0.02205853 -0.02954079
v 0.04849590 -0.00868241 -0.02879397
v 0.04917621 -0.00455089 -0.02928039
v 0.04822139 -0.00072395 -0.02856983
v 0.04993403 -0.04770338 -0.04160518
v 0.04799412 -0.01769151 -0.02854736
v 0.04691801 -0.03188337 -0.02833551
v 0.04626602 -0.01739338 -0.02777044
v 0.04972918 -0.00791094 -0.02970774
v 0.04920952 -0.00423850 -0.02930461
v 0.00061305 -0.04835079 -0.02776390
v 0.03894249 -0.04985855 -0.02776390
v 0.04976332 -0.03461689 -0.03064517
v 0.04937787 -0.04525988 -0.03241373
v 0.04745571 -0.01929660 -0.02819206
v 0.04531782 -0.04242945 -0.02820724
v 0.04971429 -0.04318736 -0.03221879
v 0.04765424 -0.02546261 -0.02852636
v 0.04775995 -0.01721844 -0.02836363
v 0.04901165 -0.02808902 -0.02965983
v 0.04801004 -0.00685587 -0.02842215
v 0.04730094 -0.01358529 -0.02803816
v 0.04516556 -0.04945784 -0.02946153
v 0.04659022 -0.04213732 -0.02908181
v 0.04753349 -0.00796974 -0.02809518
v 0.04660219 -0.01592033 -0.02781513
v 0.04834994 -0.00124478 -0.02866529
v 0.04630209 -0.02525552 -0.02783164
v 0.04762974 -0.01443798 -0.02821847
v 0.04897244 -0.01445886 -0.02921258
v 0.04812860 -0.03712123 -0.02963664
v 0.04956312 -0.02599966 -0.02997278
v 0.04973855 -0.04514495 -0.03316189
v 0.04967163 -0.04570361 -0.03334790
v 0.04978497 -0.04726317 -0.03464419
v 0.04943530 -0.01749575 -0.02961369
v 0.04889562 -0.04394994 -0.03109072
v 0.00187575 -0.04983039 -0.02776390
v 0.04591134 -0.02674553 -0.02777663
v 0.04909028 -0.02541938 -0.02959372
v 0.04704745 -0.03789351 -0.02892404
v 0.04848394 -0.01040166 -0.02879813
v 0.04997978 -0.00055279 -0.03325249
v 0.04751607 -0.04817535 -0.03083017
v 0.04705535 -0.03033469 -0.02832613
v 0.04601145 -0.02549314 -0.02778074
v 0.04679646 -0.04234843 -0.02926018
v 0.04684656 -0.03460333 -0.02847707
v 0.03175301 -0.04993039 -0.02776390
v 0.04964659 -0.03673114 -0.03072744
v 0.04735173 -0.01651861 -0.02809574
v 0.04541969 -0.04417231 -0.02855369
v 0.04769686 -0.02149017 -0.02842508
v 0.04392869 -0.04687081 -0.02805753
v 0.04562123 -0.03581253 -0.02787767
v 0.04889531 -0.00482098 -0.02907263
v 0.04686118 -0.01932120 -0.02791159
v 0.00840853 -0.04874274 -0.03325681
v 0.04839898 -0.04224267 -0.03041846
v 0.04481664 -0.04360708 -0.02807442
v 0.04583421 -0.02475539 -0.02776390
v 0.04736067 -0.01459719 -0.02807715
v 0.04951955 -0.00609288 -0.02954065
v 0.04909831 -0.04418431 -0.03143602
v 0.04907917 -0.02432069 -0.02954267
v 0.04973611 -0.02940949 -0.03026244
v 0.04588970 -0.02429320 -0.02776436
v 0.04980741 -0.00260918 -0.02974759
v 0.04606180 -0.03806105 -0.02822570
v 0.04901364 -0.04998535 -0.04135864
v 0.04332860 -0.04469108 -0.02776390
v 0.04687294 -0.01345740 -0.02786866
v 0.04833319 -0.02494106 -0.02900956
v 0.04799980 -0.00004178 -0.03312951
v 0.04343978 -0.04888777 -0.02812551
v 0.04895232 -0.00897753 -0.02913553
v 0.04510202 -0.03405476 -0.02776390
v 0.04667069 -0.02653454 -0.02796872
v 0.04555823 -0.04673315 -0.02912390
v 0.04975812 -0.01272052 -0.02977336
v 0.00800000 -0.04937666 -0.03257844
v 0.04995387 -0.04744379 -0.04134465
v 0.04780596 -0.04419667 -0.03027562
v 0.04799289 -0.00054353 -0.02850353
v 0.04425853 -0.04212731 -0.02779223
v 0.04682722 -0.04854569 -0.03040489
v 0.04577892 -0.01592832 -0.02776390
v 0.04756272 -0.02447003 -0.02841879
v 0.04409631 -0.04380063 -0.02783331
v 0.04971084 -0.02998466 -0.03027857
v 0.04731715 -0.02555010 -0.02827955
v 0.04530912 -0.04378099 -0.02841036
v 0.04609300 -0.03244816 -0.02792761
v 0.04927604 -0.03875637 -0.03064988
v 0.04569695 -0.02851938 -0.02776634
v 0.04619571 -0.03341983 -0.02800125
v 0.04048208 -0.04974518 -0.02776390
v 0.04531504 -0.04299335 -0.02828636
v 0.04983351 -0.04856372 -0.04254352
v 0.04623890 -0.01835145 -0.02777002
v 0.04920867 -0.04558508 -0.03223040
v 0.04476253 -0.03898799 -0.02778508
v 0.04895552 -0.00062262 -0.03325477
v 0.04683822 -0.04321777 -0.02942162
v 0.04756396 -0.03628904 -0.02914690
v 0.04649138 -0.02775916 -0.02792646
v 0.04587740 -0.04268399 -0.02864084
v 0.04972842 -0.04797721 -0.03499680
v 0.04805436 -0.04165572 -0.03009332
v 0.04983366 -0.04376377 -0.03274851
v 0.04999870 -0.00168983 -0.03325234
v 0.04616446 -0.04419356 -0.02909332
v 0.04959556 -0.00103307 -0.02959014
v 0.04754442 -0.03687377 -0.02918387
v 0.04763727 -0.02476079 -0.02848493
v 0.04396998 -0.04216058 -0.02776449
v 0.04827046 -0.04268523 -0.03038707
v 0.04524534 -0.04537109 -0.02862546
v 0.04543780 -0.04597647 -0.02888562
v 0.04787105 -0.00359256 -0.02830994
v 0.04967069 -0.03221462 -0.03038699
v 0.04996980 -0.04137696 -0.03203696
v 0.04951120 -0.04399780 -0.03213060
v 0.04847175 -0.02914389 -0.02930872
v 0.04980667 -0.04093228 -0.03162849
v 0.04550775 -0.04064481 -0.02811769
v 0.04775074 -0.02834798 -0.02873494
v 0.04892627 -0.00767110 -0.02910809
v 0.04512019 -0.03383073 -0.02776390
v 0.04330656 -0.04846336 -0.02800113
v 0.04898679 -0.02438374 -0.02947590
v 0.04895517 -0.04504395 -0.03149233
v 0.04840960 -0.04495846 -0.03083646
v 0.04814978 -0.01971017 -0.02870663
v 0.04623969 -0.03536334 -0.02811512
v 0.04870454 -0.01444065 -0.02901320
v 0.04980925 -0.04835707 -0.03548409
v 0.04915401 -0.04949988 -0.03477626
v 0.03751820 -0.04996579 -0.03325672
v 0.04532665 -0.04658011 -0.02892579
v 0.04855604 -0.01097554 -0.02885681
v 0.04788525 -0.01146639 -0.02836513
v 0.04782090 -0.00531746 -0.02827636
v 0.04419188 -0.04313964 -0.02782255
v 0.04727355 -0.03762152 -0.02905956
f 183 20 158
f 142 20 183
f 183 75 142
f 75 165 142
f 95 20 142
f 142 165 95
f 37 20 95
f 95 158 37
f 37 158 20
f 95 171 63
f 95 168 15
f 15 158 95
f 152 127 197
f 183 158 187
f 187 127 183
f 158 127 187
f 154 75 183
f 223 45 154
f 154 3 75
f 154 45 3
f 221 154 183
f 68 168 95
f 95 63 68
f 3 45 122
f 95 165 122
f 122 165 75
f 75 3 122
f 133 45 223
f 195 26 166
f 194 117 24
f 60 166 26
f 60 221 183
f 195 127 58
f 58 127 152
f 168 68 88
f 156 63 171
f 112 139 190
f 96 32 181
f 154 221 222
f 221 27 222
f 89 127 195
f 195 166 89
f 183 127 89
f 89 60 183
f 166 60 89
f 19 27 79
f 39 58 93
f 5 58 39
f 5 17 58
f 194 24 206
f 24 60 206
f 206 60 26
f 206 101 194
f 206 26 195
f 213 161 179
f 179 145 213
f 92 156 171
f 110 156 92
f 179 161 53
f 175 99 162
f 168 88 66
f 66 15 168
f 66 197 127
f 66 127 158
f 158 15 66
f 111 68 197
f 111 88 68
f 63 113 109
f 141 162 99
f 190 162 141
f 155 200 161
f 16 74 159
f 159 74 72
f 159 107 16
f 181 32 159
f 32 107 159
f 207 98 117
f 101 206 207
f 59 93 147
f 147 93 58
f 160 126 39
f 39 93 160
f 59 86 160
f 94 58 152
f 140 147 58
f 48 92 171
f 92 48 184
f 161 200 84
f 84 53 161
f 34 162 190
f 175 162 34
f 103 113 99
f 28 5 39
f 172 99 175
f 172 137 99
f 17 116 73
f 58 17 73
f 195 58 73
f 73 206 195
f 82 216 19
f 54 111 197
f 88 111 54
f 197 66 54
f 54 66 88
f 204 109 227
f 204 68 63
f 63 109 204
f 204 94 152
f 152 197 204
f 197 68 204
f 135 141 99
f 99 113 135
f 63 156 22
f 11 156 110
f 52 155 36
f 52 36 7
f 200 155 52
f 214 36 181
f 181 159 214
f 148 207 206
f 148 209 8
f 119 24 117
f 79 65 118
f 65 119 118
f 118 119 117
f 19 79 118
f 192 27 221
f 192 79 27
f 192 65 79
f 212 93 59
f 59 160 212
f 212 160 93
f 227 140 87
f 87 204 227
f 87 140 58
f 94 204 87
f 149 116 17
f 149 124 116
f 215 124 149
f 151 48 145
f 151 184 48
f 151 145 179
f 228 169 7
f 78 228 33
f 169 228 78
f 38 84 200
f 38 52 7
f 200 52 38
f 7 169 38
f 169 84 38
f 139 53 186
f 53 84 186
f 186 78 139
f 186 84 169
f 169 78 186
f 31 129 69
f 139 180 177
f 177 180 34
f 190 139 177
f 177 34 190
f 40 86 59
f 39 126 225
f 83 109 113
f 227 109 83
f 39 225 220
f 85 149 17
f 17 5 71
f 174 205 150
f 150 205 73
f 35 205 174
f 129 205 35
f 174 150 35
f 35 150 129
f 46 132 189
f 46 178 8
f 8 209 46
f 206 73 46
f 46 209 206
f 98 82 185
f 98 207 81
f 81 82 98
f 216 82 81
f 81 148 216
f 207 148 81
f 121 148 8
f 216 148 121
f 72 74 55
f 55 202 72
f 141 135 106
f 146 106 135
f 63 22 67
f 141 106 67
f 106 146 67
f 67 113 63
f 67 135 113
f 67 146 135
f 141 11 41
f 41 112 190
f 190 141 41
f 62 11 141
f 141 67 62
f 62 67 22
f 62 22 156
f 156 11 62
f 138 159 72
f 138 214 159
f 206 209 13
f 13 148 206
f 209 148 13
f 215 172 157
f 157 124 215
f 157 102 124
f 184 130 47
f 110 92 47
f 92 184 47
f 47 130 112
f 112 41 47
f 47 11 110
f 47 41 11
f 77 151 179
f 77 130 184
f 184 151 77
f 179 53 77
f 139 112 77
f 77 53 139
f 36 214 30
f 214 138 30
f 208 211 80
f 208 150 73
f 73 104 208
f 80 129 208
f 129 150 208
f 57 69 129
f 57 211 175
f 175 34 57
f 34 69 57
f 57 129 80
f 80 211 57
f 91 129 31
f 91 205 129
f 91 132 205
f 105 40 59
f 59 147 105
f 105 83 40
f 227 83 105
f 226 83 113
f 64 83 226
f 113 220 226
f 226 225 64
f 226 220 225
f 9 225 126
f 64 225 9
f 9 83 64
f 113 103 6
f 6 220 113
f 43 85 44
f 149 85 43
f 218 103 99
f 218 71 5
f 137 44 218
f 99 137 218
f 44 85 218
f 205 132 97
f 132 46 97
f 73 205 97
f 97 46 73
f 98 185 25
f 117 98 25
f 25 82 19
f 25 185 82
f 19 118 25
f 25 118 117
f 136 176 202
f 199 172 175
f 199 157 172
f 175 102 199
f 102 157 199
f 112 130 123
f 123 77 112
f 130 77 123
f 7 36 173
f 36 30 173
f 173 228 7
f 33 228 173
f 173 138 33
f 173 30 138
f 139 78 23
f 78 210 23
f 210 49 23
f 23 180 139
f 72 202 182
f 202 176 182
f 4 78 33
f 4 210 78
f 175 104 42
f 42 104 73
f 42 102 175
f 164 28 39
f 39 18 164
f 164 18 28
f 28 18 114
f 39 220 114
f 114 18 39
f 220 6 51
f 28 114 51
f 51 114 220
f 14 6 103
f 61 6 120
f 28 61 120
f 5 28 120
f 6 14 120
f 76 218 5
f 134 12 178
f 178 46 134
f 134 115 12
f 134 46 189
f 189 115 134
f 50 210 70
f 8 178 50
f 178 229 50
f 229 125 50
f 50 143 8
f 70 143 50
f 19 216 2
f 216 128 2
f 2 27 19
f 2 222 27
f 154 222 2
f 223 154 2
f 2 133 223
f 2 96 133
f 32 96 2
f 216 121 217
f 217 128 216
f 203 163 10
f 10 163 170
f 170 55 74
f 170 128 10
f 202 55 224
f 224 203 202
f 163 203 224
f 31 69 219
f 219 91 31
f 180 23 219
f 219 23 49
f 34 180 219
f 219 69 34
f 132 91 219
f 219 49 132
f 153 125 229
f 210 50 153
f 153 50 125
f 153 49 210
f 100 182 191
f 191 108 100
f 100 108 210
f 103 218 90
f 218 76 90
f 229 115 198
f 198 115 189
f 189 132 198
f 132 49 198
f 198 153 229
f 49 153 198
f 8 143 56
f 56 121 8
f 56 217 121
f 196 136 202
f 1 2 128
f 128 170 1
f 32 2 1
f 1 170 74
f 1 107 32
f 1 74 16
f 16 107 1
f 70 210 29
f 210 108 29
f 143 108 131
f 131 108 191
f 191 188 131
f 72 182 144
f 182 100 144
f 144 138 72
f 33 138 144
f 144 4 33
f 210 4 144
f 144 100 210
f 217 56 167
f 167 191 21
f 167 188 191
f 21 196 167
f 202 217 167
f 167 196 202
f 193 108 143
f 193 29 108
f 193 143 70
f 70 29 193
f 201 56 143
f 143 131 201
f 207 117 194
f 194 101 207
f 95 122 48
f 48 171 95
f 161 213 48
f 181 36 48
f 48 155 161
f 48 122 45
f 45 133 48
f 48 96 181
f 133 96 48
f 48 213 145
f 36 155 48
f 192 60 24
f 221 60 192
f 24 119 192
f 192 119 65
f 58 94 87
f 208 104 175
f 175 211 208
f 105 140 227
f 147 140 105
f 9 160 86
f 126 160 9
f 86 40 9
f 40 83 9
f 43 172 215
f 137 172 43
f 43 44 137
f 215 149 43
f 218 85 17
f 17 71 218
f 116 124 42
f 42 73 116
f 124 102 42
f 51 6 61
f 51 61 28
f 178 12 115
f 115 229 178
f 10 128 203
f 203 217 202
f 128 217 203
f 224 170 163
f 55 170 224
f 90 14 103
f 5 120 90
f 90 120 14
f 90 76 5
f 191 182 196
f 21 191 196
f 176 136 196
f 196 182 176
f 188 167 201
f 201 131 188
f 201 167 56

