# https://github.com/mikedh/trimesh
v 0.06059975 -0.01721645 -0.08911171
v 0.05755199 -0.04193095 -0.07021079
v 0.06104742 -0.00429531 -0.08854327
v 0.06099305 -0.01565276 -0.08335732
v 0.05846649 -0.01837381 -0.05059212
v 0.05065505 -0.04498391 -0.09560714
v 0.05865719 -0.03736263 -0.07731316
v 0.05882781 -0.00583668 -0.05046267
v 0.05819217 -0.03369177 -0.05766775
v 0.05800643 -0.03588448 -0.05910400
v 0.06015965 -0.00104980 -0.09699543
v 0.05544103 -0.04812985 -0.07373112
v 0.05856110 -0.01588886 -0.05052728
v 0.06119833 -0.01239441 -0.07764823
v 0.06051264 -0.01780043 -0.06619063
v 0.05972958 -0.01269955 -0.05663112
v 0.05987484 -0.02546473 -0.06470530
v 0.05655602 -0.03636175 -0.05011889
v 0.05624868 -0.04335517 -0.05736155
v 0.05891173 -0.03330002 -0.06391827
v 0.05880078 -0.00457010 -0.05027278
v 0.05885325 -0.03560395 -0.08192380
v 0.05471949 -0.04868685 -0.05864497
v 0.05151204 -0.04996727 -0.05402753
v 0.06086276 -0.01644229 -0.07039863
v 0.05968076 -0.03122613 -0.07874014
v 0.06100945 -0.01602550 -0.08161362
v 0.05883955 -0.00313449 -0.05041147
v 0.05859282 -0.03075284 -0.09400386
v 0.06136762 -0.00607194 -0.07798552
v 0.05697200 -0.04272862 -0.06311871
v 0.05854714 -0.03699510 -0.06807354
v 0.06088405 -0.01760579 -0.08351251
v 0.06077840 -0.01655829 -0.06920491
v 0.05715110 -0.04350549 -0.07370390
v 0.05534010 -0.04843090 -0.06550811
v 0.05565997 -0.04796580 -0.07172642
v 0.05538784 -0.04855858 -0.06764807
v 0.06063921 -0.01660411 -0.08915444
v 0.06096578 -0.00768914 -0.08912868
v 0.05945599 -0.02535944 -0.06049387
v 0.05730266 -0.03946733 -0.05879925
v 0.06120277 -0.00669301 -0.08528910
v 0.05336655 -0.04964473 -0.05097271
v 0.05785426 -0.03906355 -0.06337271
v 0.05690719 -0.04086758 -0.05790502
v 0.05920401 -0.03269014 -0.08547915
v 0.06038824 -0.00823138 -0.09467287
v 0.05930885 -0.03372433 -0.07386154
v 0.05954661 -0.02848424 -0.08924423
v 0.05878484 -0.00731446 -0.05042184
v 0.06112382 -0.00524027 -0.06946059
v 0.05686325 -0.04446721 -0.07439490
v 0.06075688 -0.02127010 -0.07844723
v 0.06021320 -0.02505083 -0.08555816
v 0.05914749 -0.01753428 -0.05434705
v 0.06031064 -0.02546505 -0.07271744
v 0.05800666 -0.02434367 -0.05027585
v 0.06133835 -0.00351974 -0.07491235
v 0.06088020 -0.00334754 -0.09062882
v 0.05859213 -0.02744514 -0.09879436
v 0.05857698 -0.03705819 -0.06879972
v 0.05917202 -0.03078376 -0.06313210
v 0.06101142 -0.01095921 -0.08676847
v 0.05954621 -0.01402389 -0.05581283
v 0.05885787 -0.02935547 -0.09478455
v 0.05585454 -0.04743375 -0.07110078
v 0.05505297 -0.04953729 -0.07104925
v 0.05834282 -0.03832977 -0.07977557
v 0.05864081 -0.03687209 -0.08074229
v 0.06090092 -0.00052015 -0.09070091
v 0.06038865 -0.02337673 -0.08512540
v 0.05955401 -0.02071986 -0.05831187
v 0.05952298 -0.00904254 -0.05482540
v 0.05970107 -0.01705130 -0.05766740
v 0.05566492 -0.04546930 -0.05741314
v 0.05848765 -0.03616326 -0.06443112
v 0.05943644 -0.01291569 -0.05492155
v 0.05799924 -0.03666891 -0.06030336
v 0.05966473 -0.02502535 -0.06215885
v 0.05686911 -0.04440056 -0.06982847
v 0.06049552 -0.02441211 -0.07803680
v 0.06060976 -0.00805309 -0.09281018
v 0.06101760 -0.01281231 -0.07082570
v 0.05746177 -0.03866671 -0.05880974
v 0.06014586 -0.00019929 -0.05815661
v 0.06114806 -0.00784170 -0.07037198
v 0.05970120 -0.00418982 -0.09963851
v 0.06094869 -0.01480206 -0.07083009
v 0.05928982 -0.03354829 -0.07108609
v 0.05858686 -0.03743816 -0.07066611
v 0.05985533 -0.03019809 -0.07787705
v 0.05508865 -0.04858986 -0.07410592
v 0.06057487 -0.00838850 -0.09309207
v 0.06129435 -0.00065019 -0.07185320
v 0.05932209 -0.01499303 -0.05473291
v 0.06026286 -0.01860632 -0.06358304
v 0.05998130 -0.00879256 -0.09745027
v 0.06118118 -0.00021394 -0.06955656
v 0.05601906 -0.04613962 -0.06346150
v 0.05994676 -0.01862617 -0.06063803
v 0.05949720 -0.02949226 -0.06535700
v 0.05983795 -0.02928381 -0.08262576
v 0.05970813 -0.02993796 -0.06951510
v 0.06014781 -0.02356625 -0.08846622
v 0.06083182 -0.01748719 -0.07064675
v 0.05667474 -0.03963728 -0.05446876
v 0.06120176 -0.00723504 -0.08518674
v 0.05600094 -0.04670160 -0.06654323
v 0.05380750 -0.04893587 -0.05227831
v 0.05624272 -0.03848264 -0.05058893
v 0.05587291 -0.04582436 -0.06064785
v 0.05868059 -0.01550094 -0.05110902
v 0.05933468 -0.03326468 -0.08044724
v 0.06132956 -0.00836808 -0.07863211
v 0.06068354 -0.02180327 -0.07577420
v 0.05908698 -0.03207529 -0.06408089
v 0.05969983 -0.02472612 -0.09224468
v 0.05765178 -0.03830964 -0.05996053
v 0.05881156 -0.03614057 -0.08064216
v 0.05997172 -0.00488317 -0.09795591
v 0.05915339 -0.00322531 -0.05205516
v 0.05571138 -0.04776133 -0.06828752
v 0.06048791 -0.02252167 -0.08470580
v 0.05678368 -0.00239300 -0.09914585
v 0.05731279 -0.04292926 -0.07360837
v 0.05829912 -0.02305926 -0.05135662
v 0.06030374 -0.02514063 -0.08327146
v 0.05850794 -0.02993597 -0.09587930
v 0.05743936 -0.04080356 -0.06298184
v 0.05648130 -0.04556103 -0.06944017
v 0.05430456 -0.04728158 -0.05190992
v 0.05669769 -0.04493149 -0.06991862
v 0.05765011 -0.04170234 -0.07541282
v 0.05888456 -0.02154672 -0.05422284
v 0.05932836 -0.03013370 -0.08926903
v 0.05996175 -0.02571300 -0.06637933
v 0.05841682 -0.03680794 -0.06521862
v 0.05864257 -0.02757264 -0.05567650
v 0.05969733 -0.02353276 -0.06146517
v 0.05999516 -0.00725296 -0.05746295
v 0.06085271 -0.01799946 -0.08389027
v 0.06038486 -0.00017216 -0.09541706
v 0.05987443 -0.03001117 -0.07684099
v 0.05987374 -0.00832049 -0.05679784
v 0.05867282 -0.01835050 -0.05178662
v 0.05795709 -0.02672032 -0.05118333
v 0.06138669 -0.00425041 -0.07791882
v 0.06142185 -0.00085478 -0.07827898
v 0.05702512 -0.04395366 -0.07387090
v 0.05994147 -0.00527075 -0.05690120
v 0.05531763 -0.04338698 -0.05127095
v 0.06125187 -0.01034401 -0.07935298
v 0.05915798 -0.03428189 -0.08075145
v 0.05981999 -0.01643734 -0.05848073
v 0.05928123 -0.01669424 -0.09994287
v 0.05078468 -0.03968246 -0.09954942
v 0.05687836 -0.04034975 -0.05668432
v 0.05800965 -0.03972946 -0.07891774
v 0.05396913 -0.04830650 -0.05192822
v 0.05693768 -0.03364410 -0.05005731
v 0.06045292 -0.00763023 -0.09426934
v 0.06125306 -0.00084288 -0.07092426
v 0.05954162 -0.01694944 -0.09837210
v 0.05996374 -0.02833221 -0.07083914
v 0.06018631 -0.00297464 -0.09666494
v 0.05983769 -0.03032004 -0.07723272
v 0.05790902 -0.04063274 -0.07107775
v 0.05856314 -0.03766156 -0.07852489
v 0.05960226 -0.03195241 -0.07688783
v 0.05756480 -0.04198079 -0.07188730
v 0.05887024 -0.00734881 -0.05081218
v 0.05556660 -0.04732208 -0.06256330
v 0.05951621 -0.01710494 -0.09846217
v 0.06106628 -0.00868622 -0.08707352
v 0.05998643 -0.00759619 -0.09762847
v 0.05976895 -0.02665082 -0.08928404
v 0.05552190 -0.04177257 -0.05017449
v 0.06068600 -0.01626339 -0.08874428
v 0.05950499 -0.02756513 -0.06294536
v 0.06130393 -0.00813973 -0.08028942
v 0.05968158 -0.00246152 -0.05507498
v 0.05979819 -0.02609989 -0.06450890
v 0.05943936 -0.03178151 -0.06902084
v 0.06115387 -0.00785235 -0.08589193
v 0.06011103 -0.01850926 -0.09312975
v 0.05496454 -0.04819304 -0.05932486
v 0.06110257 -0.01226687 -0.08431584
v 0.05501022 -0.04588658 -0.05368250
v 0.06139514 -0.00026232 -0.08151520
v 0.06074267 -0.00852476 -0.06455383
v 0.06128176 -0.00429482 -0.08413209
v 0.06083491 -0.00426880 -0.09100151
v 0.06083048 -0.01774465 -0.07093027
v 0.05905922 -0.01336309 -0.05281578
v 0.05973375 -0.00975277 -0.09885297
v 0.06142172 -0.00088799 -0.07802224
v 0.06137037 -0.00097330 -0.08232736
v 0.05775964 -0.04025427 -0.06598853
v 0.05788299 -0.04073906 -0.07084943
v 0.05858274 -0.03552786 -0.06416489
v 0.05659339 -0.04376251 -0.06191282
v 0.05645025 -0.04487019 -0.06407546
v 0.05654021 -0.04470873 -0.06471523
v 0.05948256 -0.02543425 -0.09376112
v 0.05533328 -0.04879846 -0.07055453
v 0.05570194 -0.04623455 -0.06012379
v 0.06031488 -0.00182084 -0.09585848
v 0.05918311 -0.03063574 -0.09011721
v 0.06103926 -0.01501269 -0.08249003
v 0.05974429 -0.00930929 -0.09888620
v 0.05595993 -0.04210599 -0.05314036
v 0.05882618 -0.02283489 -0.09984775
v 0.05761483 -0.03739210 -0.05791804
v 0.05701036 -0.04048437 -0.05804482
v 0.05938290 -0.02991259 -0.08900838
v 0.05811531 -0.03774776 -0.06337606
v 0.05905532 -0.01094754 -0.05234418
v 0.05772539 -0.03275658 -0.05373465
v 0.06078239 -0.01826044 -0.07060075
v 0.05816934 -0.03015307 -0.09718430
v 0.06125886 -0.00846042 -0.08235835
v 0.06106185 -0.00306661 -0.08851045
v 0.05982028 -0.01877802 -0.05955530
v 0.05968717 -0.00689537 -0.09951196
v 0.06083890 -0.01558034 -0.08676775
v 0.06027236 -0.02512808 -0.08446199
v 0.06104001 -0.00207516 -0.06751494
v 0.05462125 -0.04993872 -0.06274781
v 0.05803641 -0.03998984 -0.07024266
v 0.06100252 -0.01465797 -0.07280594
v 0.05650496 -0.04511370 -0.06622980
v 0.05624282 -0.04480450 -0.06140695
v 0.06056084 -0.01849167 -0.08831145
v 0.05913300 -0.02991471 -0.06178889
v 0.05831260 -0.01981194 -0.05030539
v 0.06110236 -0.00483414 -0.06903969
v 0.05402159 -0.04986098 -0.05600750
v 0.06067357 -0.02214018 -0.07662109
v 0.06058444 -0.00798855 -0.09308462
v 0.06074576 -0.00098166 -0.09241156
v 0.05959056 -0.03195457 -0.07606659
v 0.05903034 -0.00046376 -0.05130937
v 0.05992778 -0.00488112 -0.05678766
v 0.05969359 -0.03056148 -0.07068958
v 0.05980921 -0.02976452 -0.07096151
v 0.05512478 -0.04753066 -0.05861745
v 0.05888317 -0.03359959 -0.06407196
v 0.05998177 -0.00554016 -0.05719211
v 0.06107075 -0.00356202 -0.08830506
v 0.06033744 -0.01592762 -0.09256134
v 0.05892096 -0.00114122 -0.05075042
v 0.05628995 -0.03225306 -0.09994728
v 0.05806796 -0.02872246 -0.05286734
v 0.05929504 -0.03344079 -0.08091597
v 0.06067149 -0.02023448 -0.08482723
v 0.06090713 -0.01638189 -0.07137471
v 0.05989322 -0.00716996 -0.05674066
v 0.05961547 -0.02879099 -0.08787340
v 0.05608151 -0.04269297 -0.05494078
v 0.05930785 -0.03322018 -0.08152802
v 0.06120288 -0.00793036 -0.07184715
v 0.06133941 -0.00525177 -0.07589809
v 0.06033131 -0.02452238 -0.07056890
v 0.05543267 -0.04356873 -0.05224236
v 0.05789897 -0.04080648 -0.07317679
v 0.05897838 -0.02343362 -0.09872356
v 0.05925725 -0.03382105 -0.07142432
v 0.05804779 -0.02793214 -0.05233538
v 0.05960288 -0.03133436 -0.07145362
v 0.05003558 -0.04560683 -0.09120508
v 0.05895733 -0.01638884 -0.05293261
v 0.05651032 -0.04325009 -0.05971248
v 0.06010274 -0.02430029 -0.08828289
v 0.05881261 -0.02381904 -0.09950925
v 0.05971691 -0.00035696 -0.09976246
v 0.05395124 -0.04781409 -0.05087990
v 0.06107288 -0.00012281 -0.08871021
v 0.05852015 -0.03798763 -0.07579768
v 0.05957122 -0.02592840 -0.06201737
v 0.05746549 -0.04230462 -0.07640059
v 0.06000434 -0.00480550 -0.05732361
v 0.05645025 -0.04565785 -0.06946746
v 0.05944442 -0.02922064 -0.08936453
v 0.05695056 -0.00001060 -0.09770449
v 0.06020986 -0.01736834 -0.09304850
v 0.06068954 -0.01597362 -0.08885889
v 0.06041323 -0.01623660 -0.06372279
v 0.06049984 -0.00931332 -0.09350816
v 0.06060174 -0.02048448 -0.06989741
v 0.05083060 -0.04921333 -0.08638359
v 0.06071988 -0.01863369 -0.08587181
v 0.06013065 -0.00052968 -0.09720129
v 0.06124926 -0.00415811 -0.07167293
v 0.06062502 -0.02297885 -0.07767638
v 0.06094655 -0.00835725 -0.08920905
v 0.05846499 -0.03598066 -0.06358409
v 0.05945695 -0.02727557 -0.06223417
v 0.06122526 -0.00189061 -0.07061249
v 0.05948554 -0.01322333 -0.05527057
v 0.05085415 -0.04986836 -0.08478317
v 0.05979239 -0.02986027 -0.07072345
v 0.05779432 -0.03708012 -0.05906497
v 0.05923516 -0.03403326 -0.07253031
v 0.05801395 -0.03695364 -0.06090490
v 0.05944261 -0.02054954 -0.05718768
v 0.05968675 -0.01357465 -0.09828735
v 0.06103168 -0.00560185 -0.08853968
v 0.05972297 -0.02892427 -0.08604397
v 0.05982286 -0.02980153 -0.07205489
v 0.05542593 -0.04244670 -0.05054125
v 0.05862742 -0.03394525 -0.06174241
v 0.05747742 -0.04229625 -0.07173266
v 0.05992059 -0.01449903 -0.05864308
v 0.05891768 -0.01909652 -0.05350089
v 0.05757586 -0.04111451 -0.07856795
v 0.05624398 -0.04209421 -0.05498030
v 0.05877455 -0.01833129 -0.05238490
v 0.06084372 -0.02009826 -0.07768994
v 0.05690351 -0.04364363 -0.06562174
v 0.05921165 -0.02822726 -0.06090523
v 0.05885372 -0.03604449 -0.07107518
v 0.05976437 -0.01562285 -0.09716063
v 0.05714727 -0.03384620 -0.05129033
v 0.05511239 -0.04883857 -0.06410326
v 0.05983051 -0.02154962 -0.09351841
v 0.05890397 -0.03607661 -0.07642630
v 0.05934380 -0.03001534 -0.06384218
v 0.06134085 -0.00216336 -0.07431272
v 0.05984851 -0.00443515 -0.05624083
v 0.05907974 -0.03343810 -0.06651807
v 0.06058907 -0.00915855 -0.06313968
v 0.06041742 -0.02211604 -0.08629714
v 0.05038011 -0.04303228 -0.09999097
v 0.05840509 -0.03840278 -0.07837994
v 0.06142163 -0.00037271 -0.07752773
v 0.05768194 -0.04139436 -0.06974291
v 0.06099348 -0.00224081 -0.06686181
v 0.06071164 -0.00007867 -0.06320207
v 0.05749375 -0.03294063 -0.05254263
v 0.05920721 -0.03321038 -0.08379257
v 0.06003212 -0.00175622 -0.05732937
v 0.05932996 -0.01522054 -0.09995252
v 0.05818456 -0.03003872 -0.05428300
v 0.05738959 -0.03654037 -0.05513404
v 0.06075816 -0.00082342 -0.09230474
v 0.06122640 -0.00877235 -0.08359605
v 0.05928282 -0.02999527 -0.06325561
v 0.05851636 -0.02957270 -0.05619476
v 0.06073906 -0.01978668 -0.08412900
v 0.05881359 -0.02399724 -0.09942731
v 0.05012677 -0.04742613 -0.09230231
v 0.06139419 -0.00348732 -0.07848248
v 0.05847415 -0.03574482 -0.06326378
v 0.06091869 -0.00266645 -0.06586612
v 0.05977166 -0.02954543 -0.08371099
v 0.06055951 -0.01780622 -0.08904249
v 0.05913729 -0.03055539 -0.09070978
v 0.05964909 -0.00377953 -0.09995245
v 0.05938312 -0.03133402 -0.08592692
v 0.06006670 -0.02346707 -0.08948830
v 0.05689772 -0.04404407 -0.06750551
v 0.06027929 -0.02353435 -0.08658923
v 0.05666575 -0.04471087 -0.06694250
v 0.05957202 -0.03099958 -0.06948101
v 0.05985942 -0.02419251 -0.06340692
v 0.05608081 -0.04023151 -0.05157396
v 0.06049020 -0.01681849 -0.06505612
v 0.05885193 -0.00118112 -0.05041230
v 0.06081243 -0.00847162 -0.06555910
v 0.05522556 -0.04821491 -0.06226841
v 0.05867469 -0.02892157 -0.05681406
v 0.05941396 -0.02623223 -0.09350856
v 0.06134445 -0.00799580 -0.07763431
v 0.06052915 -0.00628503 -0.09379173
v 0.05436359 -0.04671563 -0.05120105
v 0.06073317 -0.02158863 -0.07829479
v 0.05954206 -0.02980619 -0.06660546
v 0.05928582 -0.03399392 -0.07668106
v 0.05801153 -0.03560608 -0.05875161
v 0.05004567 -0.04231074 -0.09808230
v 0.05462176 -0.04640392 -0.05209662
v 0.05027173 -0.04601882 -0.09497379
v 0.05653198 -0.04331724 -0.06010609
v 0.05769042 -0.03001829 -0.09942647
v 0.06012827 -0.01815104 -0.06203037
v 0.05899995 -0.03255120 -0.06377695
v 0.05007015 -0.04450840 -0.09840095
v 0.06103230 -0.01524198 -0.08236733
v 0.06010384 -0.00830608 -0.09670338
v 0.05937969 -0.01304961 -0.05461208
v 0.05567850 -0.04720157 -0.06337810
v 0.05844207 -0.01794006 -0.05036231
v 0.05924419 -0.03124419 -0.06471287
v 0.06110378 -0.00858509 -0.08646343
v 0.05517720 -0.04365854 -0.05084964
v 0.05597593 -0.04627614 -0.07538453
v 0.05884923 -0.03276464 -0.06242465
v 0.05590924 -0.04125452 -0.05176863
v 0.06123153 -0.00101437 -0.08589517
v 0.05783088 -0.03129489 -0.05316796
v 0.05679366 -0.04432885 -0.06704130
v 0.05828690 -0.03465683 -0.05978816
v 0.06085472 -0.00563520 -0.09059597
v 0.05718799 -0.03881151 -0.05667412
v 0.06109734 -0.01305615 -0.08323159
v 0.05993989 -0.00305835 -0.05676759
v 0.05908430 -0.03467110 -0.07062319
v 0.05580437 -0.04638654 -0.06177490
v 0.05891261 -0.02617470 -0.05653826
v 0.05414879 -0.04959086 -0.05626218
v 0.05881205 -0.01752345 -0.05236067
v 0.05489897 -0.04984234 -0.06851469
v 0.06005126 -0.02243570 -0.09050275
v 0.06129620 -0.00178457 -0.07222938
v 0.05834088 -0.02841150 -0.05431507
v 0.06088553 -0.01608025 -0.07054978
v 0.05878188 -0.02604564 -0.09856426
v 0.05346896 -0.04912522 -0.05058589
v 0.05875711 -0.01164909 -0.05069043
v 0.05992132 -0.02685778 -0.08685291
v 0.05980199 -0.01636766 -0.09668216
v 0.06036377 -0.01059870 -0.09419611
v 0.05996249 -0.01708212 -0.05999785
v 0.05866771 -0.03723581 -0.07447208
v 0.05216387 -0.04999284 -0.07393506
v 0.05787843 -0.03080060 -0.09723732
v 0.06074197 -0.01748031 -0.08669402
v 0.05994921 -0.00706276 -0.05705624
v 0.06037110 -0.00017312 -0.09552932
v 0.05681117 -0.03133290 -0.09991807
v 0.06113602 -0.00092472 -0.08774240
v 0.06015333 -0.02632906 -0.07035081
v 0.05893943 -0.03200116 -0.08944761
v 0.05901652 -0.02503676 -0.05657264
v 0.06133686 -0.00436497 -0.07529450
v 0.05464788 -0.04858250 -0.05759163
v 0.06093972 -0.01510369 -0.07089238
v 0.05337115 -0.04987200 -0.07619079
v 0.05991353 -0.01679037 -0.09574107
v 0.06095430 -0.01698829 -0.07426133
v 0.05951077 -0.02711721 -0.06257347
v 0.05741211 -0.03812619 -0.05734241
v 0.05490386 -0.04916931 -0.06261713
v 0.06093876 -0.00043237 -0.09026285
v 0.05630872 -0.04529773 -0.06392240
v 0.05919938 -0.03287683 -0.08502727
v 0.06070885 -0.00576543 -0.06371379
v 0.05793504 -0.03021486 -0.05293626
v 0.06110494 -0.01509088 -0.07775350
v 0.05978103 -0.03016988 -0.07245821
v 0.05927254 -0.01597860 -0.05468505
v 0.05687798 -0.03565227 -0.05116763
v 0.05747062 -0.03579457 -0.05484371
v 0.06015104 -0.02771651 -0.07745358
v 0.05673020 -0.03522104 -0.05008526
v 0.05906558 -0.01166263 -0.05251797
v 0.05971445 -0.00411786 -0.05541446
v 0.05923753 -0.03336183 -0.06946549
v 0.05854278 -0.03043584 -0.05702463
v 0.05985777 -0.01252090 -0.05751691
v 0.05701376 -0.03997512 -0.05705805
v 0.05822913 -0.03205551 -0.05633975
v 0.06091899 -0.01887656 -0.07765393
v 0.06124676 -0.00617352 -0.08456659
v 0.05503306 -0.04810210 -0.05968453
v 0.06023964 -0.02583414 -0.07102087
v 0.05877244 -0.03677620 -0.07700570
v 0.06102058 -0.01669148 -0.07660169
v 0.06127946 -0.00582319 -0.08361551
v 0.05882332 -0.03651837 -0.07669125
v 0.05781569 -0.02994471 -0.09913002
v 0.06123332 -0.00803522 -0.07313752
v 0.05966640 -0.02964023 -0.08543863
v 0.05571894 -0.04781035 -0.07162161
v 0.06082545 -0.01180493 -0.08910932
v 0.05986713 -0.02949104 -0.08072146
v 0.05912600 -0.03258208 -0.06552626
v 0.05878824 -0.02486265 -0.05510741
v 0.05931097 -0.02740712 -0.06103306
v 0.06134917 -0.00064551 -0.08314946
v 0.05598853 -0.00045457 -0.05147826
v 0.05904411 -0.02964426 -0.09297329
v 0.06132845 -0.00831971 -0.07714520
v 0.05838261 -0.03857148 -0.07734939
v 0.06112076 -0.00870552 -0.07024290
v 0.05793579 -0.03480839 -0.05699725
v 0.05840178 -0.03521850 -0.06169864
v 0.06113156 -0.00109208 -0.08778363
v 0.06092623 -0.01590707 -0.07147773
v 0.05969275 -0.02782998 -0.08847653
v 0.05493806 -0.04964780 -0.06659975
v 0.05555607 -0.04815259 -0.06813602
v 0.05871165 -0.03705242 -0.07749822
v 0.06125606 -0.00267879 -0.07143328
v 0.05810466 -0.03432025 -0.05773999
v 0.05070136 -0.04703115 -0.09149499
v 0.05937609 -0.03345580 -0.07655056
v 0.06032830 -0.01482132 -0.09309717
v 0.06027116 -0.02671721 -0.07768003
v 0.05967409 -0.02300058 -0.09384237
v 0.06128565 -0.00976402 -0.07738636
v 0.05877917 -0.03156123 -0.09153248
v 0.06068970 -0.00262734 -0.09274897
v 0.06107336 -0.00077153 -0.06779990
v 0.05788053 -0.04074759 -0.07675235
v 0.05692498 -0.04426447 -0.07061698
v 0.05981249 -0.00616711 -0.09887158
v 0.06066423 -0.00085414 -0.09308669
v 0.05901435 -0.03366596 -0.06596542
v 0.05818891 -0.02757010 -0.05296360
v 0.05869389 -0.03477570 -0.06400796
v 0.05878325 -0.00022390 -0.05006486
v 0.05363096 -0.04983831 -0.07558916
v 0.06056607 -0.00115220 -0.06182970
v 0.05752046 -0.03864322 -0.05932792
v 0.05927724 -0.02778203 -0.09295191
v 0.05617718 -0.04613869 -0.06637346
v 0.05493190 -0.04639201 -0.05419914
v 0.05928277 -0.02028428 -0.05608510
v 0.06094887 -0.00684511 -0.08942350
v 0.05936951 -0.02556400 -0.05987959
v 0.05994263 -0.02490512 -0.08958537
v 0.05986990 -0.02768729 -0.08611947
v 0.06088072 -0.01725830 -0.07182606
v 0.05885360 -0.03248582 -0.08901617
v 0.06055780 -0.01269278 -0.06394573
v 0.05791992 -0.02600398 -0.05059988
v 0.05968458 -0.03006008 -0.08420417
v 0.06053478 -0.01652659 -0.09027107
v 0.05743040 -0.03061291 -0.05046136
v 0.05399360 -0.04989381 -0.05588651
v 0.05885769 -0.03594395 -0.07037534
v 0.06121184 -0.00863916 -0.08451070
v 0.06122000 -0.00529765 -0.07122803
v 0.05812535 -0.02600764 -0.05175718
v 0.06040450 -0.01804914 -0.06493350
v 0.05800864 -0.04032919 -0.07416833
v 0.05577034 -0.04123012 -0.05090454
v 0.06019964 -0.01666349 -0.09369380
v 0.06068112 -0.01822757 -0.08691959
v 0.06128435 -0.00075569 -0.07162922
v 0.05957192 -0.01574879 -0.09850866
v 0.06071783 -0.00626203 -0.06386611
v 0.05452462 -0.04921677 -0.05859775
v 0.06028949 -0.02650626 -0.07798725
v 0.05927153 -0.03368579 -0.07113717
v 0.05872810 -0.00606143 -0.05011714
v 0.06127739 -0.00499725 -0.08403393
v 0.06131338 -0.00380127 -0.08324779
v 0.06130517 -0.00913480 -0.07864893
v 0.06052882 -0.00848256 -0.09353735
v 0.05669202 -0.04361574 -0.06250644
v 0.05750124 -0.04002900 -0.06180417
v 0.05934958 -0.01808699 -0.05572911
v 0.05596349 -0.04682533 -0.06661146
v 0.05831328 -0.02995329 -0.09684943
v 0.06109141 -0.00023816 -0.06801600
v 0.05796746 -0.03169949 -0.05432097
v 0.06111935 -0.01261812 -0.07466532
v 0.05419915 -0.04695751 -0.05071065
v 0.05801465 -0.03282085 -0.05560880
v 0.06064041 -0.01554844 -0.08956235
v 0.06006790 -0.01520470 -0.06021441
v 0.06062527 -0.02293866 -0.07794383
v 0.06094806 -0.00898817 -0.08893173
v 0.05986858 -0.00953061 -0.09806145
v 0.06092521 -0.00168524 -0.06584828
v 0.05852456 -0.02782970 -0.09894112
v 0.05496257 -0.04959568 -0.07199982
v 0.05869590 -0.03712752 -0.07547603
v 0.05645373 -0.04571151 -0.07334469
v 0.06127996 -0.00950164 -0.07676183
v 0.05655926 -0.04179951 -0.05674217
v 0.05938348 -0.02918916 -0.09004113
v 0.06105927 -0.01296011 -0.08478942
v 0.05684877 -0.00125843 -0.09858671
v 0.06123279 -0.00596034 -0.08487875
v 0.06099489 -0.01448443 -0.08498496
v 0.06128607 -0.00392126 -0.08411819
v 0.06058477 -0.01707017 -0.06661158
v 0.05593771 -0.04717675 -0.06996858
v 0.05968081 -0.02952423 -0.08548021
v 0.05889529 -0.02894670 -0.05871234
v 0.05625491 -0.04233124 -0.05547393
v 0.06034695 -0.02577703 -0.07897542
v 0.06126511 -0.00776722 -0.08281970
v 0.05889976 -0.00674568 -0.05090869
v 0.05933176 -0.02712914 -0.09321856
v 0.05984352 -0.01471332 -0.05804060
v 0.05853997 -0.03765641 -0.07944211
v 0.05933386 -0.03077946 -0.08792581
v 0.05743916 -0.04043346 -0.06206987
v 0.06142207 -0.00055752 -0.07927019
v 0.05778503 -0.02992404 -0.05191064
v 0.06094334 -0.01694573 -0.08261186
v 0.05948908 -0.02561741 -0.09351133
v 0.05995639 -0.00732098 -0.05714153
v 0.05988290 -0.00132233 -0.05628879
v 0.05974289 -0.01896647 -0.05896059
v 0.05839411 -0.03830301 -0.07018471
v 0.05977613 -0.00026865 -0.05551410
v 0.05990930 -0.02961796 -0.07868570
v 0.06057144 -0.02144149 -0.07041453
v 0.05497870 -0.04587026 -0.05344320
v 0.06060732 -0.01458491 -0.09029041
v 0.06066311 -0.01589801 -0.08918560
v 0.05919006 -0.03153448 -0.06450010
v 0.05971594 -0.00196082 -0.09968527
v 0.05977295 -0.00662792 -0.09906590
v 0.05903208 -0.02511712 -0.09744872
v 0.06001772 -0.02722510 -0.08461287
v 0.05864187 -0.02836406 -0.09756777
v 0.05788135 -0.03192888 -0.05397857
v 0.05728420 -0.03626080 -0.05407397
v 0.05003285 -0.04896491 -0.08876501
v 0.05063067 -0.04537359 -0.09497341
v 0.06020681 -0.02470710 -0.08619540
v 0.05667384 -0.00833956 -0.09999501
v 0.05735423 -0.03839042 -0.05727876
v 0.05912377 -0.02259711 -0.09823306
v 0.05924395 -0.03235801 -0.08570570
v 0.05860676 -0.02742480 -0.05537727
v 0.05659505 -0.03820724 -0.05227225
v 0.06073056 -0.02020830 -0.08313884
v 0.05003789 -0.04639960 -0.09477162
v 0.05589285 -0.04184950 -0.05238523
v 0.05727213 -0.04031928 -0.06020745
v 0.05870247 -0.03703307 -0.07808335
v 0.06122537 -0.00843200 -0.07304921
v 0.06047839 -0.02170980 -0.08588755
v 0.06097746 -0.00809650 -0.06790051
v 0.06121150 -0.00553164 -0.07108238
v 0.05677897 -0.04379265 -0.07697532
v 0.05699805 -0.03924624 -0.05601309
v 0.05891387 -0.02967661 -0.05957066
v 0.05622816 -0.04529386 -0.06282956
v 0.05840659 -0.03820227 -0.07943927
v 0.05959956 -0.02442112 -0.09353392
v 0.05860985 -0.02599819 -0.09965291
v 0.06119156 -0.00961052 -0.08405023
v 0.05213182 -0.04595549 -0.05007212
v 0.05676500 -0.03491819 -0.05005530
v 0.06089753 -0.00057295 -0.06541883
v 0.05939552 -0.02909631 -0.06340064
v 0.06071308 -0.00815152 -0.06399641
v 0.06039633 -0.02538184 -0.07870587
v 0.05873142 -0.03504450 -0.06511986
v 0.06122949 -0.00548987 -0.07157195
v 0.06033606 -0.02469187 -0.08385871
v 0.05984044 -0.02555055 -0.08995037
v 0.05826642 -0.03159817 -0.09398085
v 0.05658912 -0.04323871 -0.06048753
v 0.06101611 -0.01290061 -0.08558269
v 0.05974654 -0.03023868 -0.08130366
v 0.05931807 -0.03015183 -0.08936246
v 0.05430011 -0.04929752 -0.05667948
v 0.05844044 -0.03380756 -0.05992971
v 0.05783014 -0.04107250 -0.07414491
v 0.05922960 -0.00030330 -0.05236327
v 0.06109734 -0.01216530 -0.08456004
v 0.06098532 -0.01510662 -0.08466564
v 0.05892853 -0.03547666 -0.08093315
v 0.05892442 -0.02978984 -0.05977389
v 0.05752632 -0.04193014 -0.06938299
v 0.05639377 -0.04581012 -0.07424051
v 0.05920817 -0.02868629 -0.09251532
v 0.06098006 -0.01786813 -0.07757970
v 0.06137078 -0.00059021 -0.07501467
v 0.05900693 -0.02622725 -0.05723678
v 0.06103079 -0.00814068 -0.08799206
v 0.06097490 -0.01405283 -0.07083511
v 0.05945879 -0.01199644 -0.09988947
v 0.05979386 -0.03051316 -0.07842876
v 0.05757573 -0.03373703 -0.05365988
v 0.05493864 -0.04489963 -0.05140648
v 0.06100607 -0.00744415 -0.08858136
v 0.06095722 -0.01710010 -0.07461811
v 0.05674635 -0.03561872 -0.05042610
v 0.06104412 -0.01417966 -0.08418315
v 0.05863237 -0.01582918 -0.05090486
v 0.05963627 -0.01320753 -0.05615618
v 0.06032281 -0.02510173 -0.07183422
v 0.06070592 -0.01925776 -0.07035262
v 0.06062857 -0.00065130 -0.09339260
v 0.05916430 -0.02201348 -0.09826767
v 0.06130523 -0.00105787 -0.07225864
v 0.05887398 -0.03075298 -0.09240117
v 0.06086332 -0.01733670 -0.08477598
v 0.06062203 -0.00235724 -0.06245379
v 0.05921905 -0.03409606 -0.07930275
v 0.05760309 -0.03589129 -0.05589467
v 0.05933249 -0.03229493 -0.06832088
v 0.06097553 -0.00885759 -0.08858117
v 0.05006217 -0.04872812 -0.08309063
v 0.05949607 -0.03110001 -0.08472727
v 0.06046316 -0.01558912 -0.06402424
v 0.05712559 -0.03834595 -0.05568699
v 0.05792269 -0.02569278 -0.05047455
v 0.05667976 -0.00745725 -0.09999014
v 0.05900697 -0.00666453 -0.05152221
v 0.06005157 -0.02856803 -0.07794926
v 0.05903685 -0.02869029 -0.09418818
v 0.06015983 -0.01672771 -0.09396682
v 0.05522674 -0.04640895 -0.05631961
v 0.05850266 -0.03075792 -0.05703839
v 0.06037021 -0.02419365 -0.08419144
v 0.05798023 -0.03468849 -0.05718589
v 0.05839340 -0.02941212 -0.09741220
v 0.06013380 -0.02415510 -0.08800887
v 0.05418326 -0.04985401 -0.05746850
v 0.06130786 -0.00003170 -0.07203213
v 0.05659385 -0.03917832 -0.05340442
v 0.05607229 -0.04198601 -0.05363266
v 0.05624479 -0.04496951 -0.07686640
v 0.06115372 -0.00901980 -0.07098002
v 0.05763326 -0.04068835 -0.06553618
v 0.06097021 -0.01521489 -0.07228121
v 0.05797222 -0.03057754 -0.05341396
v 0.05565080 -0.04159401 -0.05062888
v 0.05900458 -0.03370346 -0.06590081
v 0.06053839 -0.00060445 -0.06152708
v 0.05791610 -0.03515720 -0.05729415
v 0.05712342 -0.03605792 -0.05291698
v 0.05772484 -0.03071196 -0.05214366
v 0.06040227 -0.01195698 -0.09346925
v 0.06111340 -0.00955613 -0.07057096
v 0.06116169 -0.00754701 -0.07052138
v 0.05857613 -0.03775788 -0.07673303
v 0.06086776 -0.00702225 -0.09025828
v 0.05951188 -0.01904033 -0.05700404
v 0.05557085 -0.04755368 -0.06369324
v 0.05547856 -0.04797331 -0.06481308
v 0.05998979 -0.02758471 -0.08429767
v 0.05839067 -0.02525255 -0.05293872
v 0.06035320 -0.00788502 -0.06073209
v 0.05976388 -0.02234628 -0.09354913
v 0.05983536 -0.02841128 -0.08531426
v 0.05702241 -0.04330939 -0.06627378
v 0.05968356 -0.01661391 -0.05733786
v 0.05870548 -0.03695047 -0.07280630
v 0.05819944 -0.02191649 -0.05040334
v 0.05898798 -0.01739139 -0.05336314
v 0.05911542 -0.03339480 -0.08486144
v 0.05601429 -0.04578493 -0.06207042
v 0.06118930 -0.00355989 -0.08619829
v 0.05514773 -0.04428324 -0.05166469
v 0.05922387 -0.01775669 -0.09982015
v 0.06125451 -0.01071495 -0.07827165
v 0.05863475 -0.03713984 -0.07991127
v 0.05712286 -0.04231312 -0.06363067
v 0.05654630 -0.04146878 -0.05609846
v 0.05907621 -0.03303275 -0.08612473
v 0.06074035 -0.02025581 -0.08258690
v 0.05408626 -0.04798663 -0.05199931
v 0.05817422 -0.03362488 -0.05744096
v 0.05932078 -0.03370045 -0.07441160
v 0.05952554 -0.02553083 -0.09324156
v 0.06009349 -0.02172245 -0.06409949
v 0.06001453 -0.02428826 -0.08935154
v 0.05786118 -0.03056483 -0.09776719
v 0.05722182 -0.03662853 -0.05413952
v 0.05993450 -0.02367340 -0.06377502
v 0.06048011 -0.00556309 -0.09424491
v 0.05578405 -0.00056783 -0.05013014
v 0.06046124 -0.00823178 -0.09414771
v 0.06076306 -0.02114024 -0.07700632
v 0.05734925 -0.04279407 -0.07316737
v 0.05344046 -0.04898563 -0.05018678
v 0.05711576 -0.04359963 -0.07155635
v 0.05966580 -0.02925361 -0.08629055
v 0.05964238 -0.01657111 -0.05700995
v 0.06140435 -0.00006585 -0.08106157
v 0.05787911 -0.04060756 -0.06973894
v 0.05674782 -0.04485680 -0.07339178
v 0.06066813 -0.00775568 -0.06351921
v 0.05700770 -0.03766274 -0.05408866
v 0.05117617 -0.04962108 -0.05138701
v 0.05848487 -0.03652330 -0.06548605
v 0.06100963 -0.00683835 -0.08865309
v 0.05496810 -0.04896658 -0.06242409
v 0.05736248 -0.04131781 -0.06349024
v 0.06077133 -0.01841565 -0.08522185
v 0.05880653 -0.02843247 -0.05744956
v 0.05471128 -0.04821966 -0.05702449
v 0.05730017 -0.03512302 -0.05318384
v 0.05890574 -0.02884886 -0.09508731
v 0.05549775 -0.04836652 -0.07036122
v 0.05607446 -0.04390355 -0.05707555
v 0.05762695 -0.02904105 -0.05056577
v 0.05019526 -0.04477761 -0.09752189
v 0.05897111 -0.00604823 -0.05123948
v 0.05825559 -0.02365181 -0.05133000
v 0.06071405 -0.01525731 -0.08889750
v 0.05521538 -0.04909728 -0.07021196
v 0.05998852 -0.00573495 -0.05726434
v 0.06062352 -0.00813019 -0.06315983
v 0.06053895 -0.01286124 -0.06380514
v 0.05967316 -0.02346585 -0.06120219
v 0.05655867 -0.03901044 -0.05299010
v 0.05836729 -0.02833946 -0.05443434
v 0.06098822 -0.01697954 -0.07567295
v 0.06121359 -0.00397282 -0.07078085
v 0.06131654 -0.00081934 -0.07250746
v 0.05737914 -0.04260239 -0.07625028
v 0.06004145 -0.00569077 -0.09742821
v 0.05593013 -0.04662536 -0.07484847
v 0.06075150 -0.00634602 -0.06426711
v 0.06069939 -0.00104528 -0.06315160
v 0.05852545 -0.01836794 -0.05092929
v 0.06040673 -0.00212021 -0.09509596
v 0.05593596 -0.04720617 -0.07238906
v 0.06102007 -0.01725982 -0.07789931
v 0.06130923 -0.00029725 -0.08454154
v 0.05240416 -0.04484880 -0.05003779
v 0.05855643 -0.02957354 -0.09621008
v 0.06051892 -0.01727560 -0.06581743
v 0.05936275 -0.03238952 -0.08321939
v 0.05984854 -0.02983023 -0.07383558
v 0.06125975 -0.01050860 -0.07841656
v 0.05987455 -0.02041132 -0.09389735
v 0.05781541 -0.03454593 -0.05587020
v 0.05506509 -0.04668762 -0.05581008
v 0.05556869 -0.04796104 -0.06673878
v 0.05986984 -0.01131386 -0.05732642
v 0.05935903 -0.03057791 -0.08798768
v 0.05510866 -0.04914772 -0.07261899
v 0.05573095 -0.04292038 -0.05303048
v 0.05519237 -0.04915990 -0.07032019
v 0.06104458 -0.01661621 -0.07822983
v 0.05827551 -0.02217427 -0.05088733
v 0.05953517 -0.01946207 -0.05735941
v 0.05774954 -0.03645249 -0.05768526
v 0.05974101 -0.00813847 -0.09912621
v 0.05836687 -0.02419905 -0.05225026
v 0.05871295 -0.03680715 -0.07949053
v 0.05941711 -0.01729436 -0.09893628
v 0.05776717 -0.03198682 -0.05335516
v 0.05575962 -0.00275956 -0.05003339
v 0.05921223 -0.03431125 -0.07447240
v 0.05718995 -0.03772110 -0.05530871
v 0.06117488 -0.01314416 -0.07779234
v 0.05956372 -0.02796537 -0.06386594
v 0.06107684 -0.00207296 -0.06809054
v 0.06077692 -0.02111435 -0.07800976
v 0.05768452 -0.00003418 -0.06778302
v 0.06042082 -0.02534031 -0.07765220
v 0.06117869 -0.00731091 -0.07077204
v 0.05856737 -0.01583455 -0.05054582
v 0.06019209 -0.02559118 -0.06972562
v 0.06101261 -0.01298032 -0.07085024
v 0.05674694 -0.03594739 -0.05067022
v 0.05512460 -0.04608649 -0.05488634
v 0.05597511 -0.03976642 -0.05048644
v 0.06082849 -0.00751634 -0.09059786
v 0.05874242 -0.00848012 -0.05035858
v 0.05971188 -0.02481851 -0.06244789
v 0.05757910 -0.04008102 -0.06265920
v 0.05939431 -0.02526243 -0.09458942
v 0.05801549 -0.02994653 -0.09827762
v 0.06134440 -0.00075107 -0.08327179
v 0.06105407 -0.01378643 -0.08433548
v 0.05595924 -0.04700264 -0.06789814
v 0.05976133 -0.00828133 -0.05612304
v 0.06082182 -0.01787467 -0.07089230
v 0.05916154 -0.01905521 -0.05492314
v 0.05932339 -0.02093824 -0.05661227
v 0.05654397 -0.04054967 -0.05478965
v 0.05544728 -0.04203553 -0.05014955
v 0.05994038 -0.02652222 -0.08717740
v 0.05916422 -0.02446838 -0.05726737
v 0.05498783 -0.04968427 -0.07039396
v 0.05045778 -0.04918258 -0.08752077
v 0.05544342 -0.04803269 -0.06458696
v 0.05985805 -0.02730396 -0.08699021
v 0.05607236 -0.04672151 -0.06845446
v 0.05912064 -0.00378478 -0.05190881
v 0.05864078 -0.01663292 -0.05114287
v 0.05941104 -0.03020613 -0.08801427
v 0.06087400 -0.01550946 -0.08622955
v 0.05984271 -0.02883267 -0.08433873
v 0.05663085 -0.00026700 -0.05571803
v 0.05955489 -0.01987203 -0.05777397
v 0.05874370 -0.01681920 -0.05178725
v 0.05942096 -0.00089254 -0.05340343
v 0.05555504 -0.04522837 -0.05610308
v 0.05885049 -0.01787564 -0.05268944
v 0.05457112 -0.04933773 -0.07420188
v 0.06062861 -0.02128218 -0.07140231
v 0.05905051 -0.01100639 -0.05232484
v 0.06125662 -0.00393445 -0.07180828
v 0.05776922 -0.03368633 -0.05481967
v 0.05940402 -0.02967737 -0.08916530
v 0.05783973 -0.04075180 -0.06963280
v 0.05816321 -0.02143621 -0.05009435
v 0.05988342 -0.01037720 -0.05721887
v 0.05874102 -0.01723463 -0.05187042
v 0.06034544 -0.02590777 -0.07672022
v 0.05998716 -0.00771064 -0.09761146
v 0.05747831 -0.04193971 -0.06840191
v 0.06099060 -0.01645259 -0.08152762
v 0.06021921 -0.00014745 -0.05877048
v 0.05909042 -0.03371578 -0.06748167
v 0.05993351 -0.02388716 -0.06393395
v 0.05009150 -0.04914328 -0.08201103
v 0.05034368 -0.04834351 -0.08980805
v 0.06046401 -0.01696818 -0.09073180
v 0.05859178 -0.03719524 -0.08034093
v 0.05735899 -0.04274950 -0.07534278
v 0.06136308 -0.00170944 -0.08220716
v 0.05595931 -0.04564979 -0.07658858
v 0.05854396 -0.03115948 -0.09349762
f 285 882 846
f 839 765 642
f 642 765 778
f 695 271 616
f 482 882 285
f 285 765 482
f 381 765 285
f 778 765 381
f 271 695 381
f 381 695 778
f 769 642 778
f 905 695 616
f 778 695 905
f 616 301 905
f 873 301 616
f 778 905 24
f 24 905 301
f 125 700 334
f 276 700 125
f 334 700 619
f 388 381 334
f 334 385 388
f 906 873 616
f 44 769 778
f 778 24 44
f 577 381 285
f 285 276 577
f 276 125 577
f 334 381 157
f 157 125 334
f 381 577 157
f 157 577 125
f 431 385 334
f 334 253 431
f 431 156 213
f 253 156 431
f 359 619 700
f 359 700 276
f 888 301 291
f 291 906 888
f 301 873 291
f 873 906 291
f 381 388 626
f 616 271 626
f 271 381 626
f 570 413 514
f 570 301 888
f 570 514 301
f 426 24 301
f 532 44 24
f 513 765 839
f 513 243 660
f 513 482 765
f 882 482 513
f 513 846 882
f 643 513 839
f 846 513 339
f 430 276 285
f 746 432 400
f 346 241 685
f 213 156 748
f 156 837 748
f 787 613 61
f 61 205 787
f 352 906 616
f 616 626 352
f 352 626 906
f 383 626 388
f 906 626 383
f 514 413 439
f 301 514 439
f 439 426 301
f 229 439 413
f 426 439 229
f 24 426 229
f 229 532 24
f 44 532 110
f 115 773 594
f 551 115 374
f 594 773 336
f 436 374 263
f 484 374 436
f 396 747 265
f 790 595 147
f 548 513 895
f 243 513 252
f 839 642 815
f 815 643 839
f 642 769 815
f 769 643 815
f 895 513 161
f 513 643 161
f 161 58 895
f 502 374 484
f 285 773 278
f 432 223 278
f 773 115 190
f 60 346 71
f 521 346 60
f 609 359 276
f 609 88 359
f 569 61 613
f 164 156 543
f 422 164 543
f 791 383 388
f 791 388 385
f 888 906 497
f 906 383 497
f 532 229 711
f 229 781 711
f 144 310 451
f 30 115 594
f 30 374 115
f 124 350 707
f 18 643 869
f 869 178 18
f 869 643 769
f 396 178 869
f 679 852 324
f 18 852 679
f 528 790 147
f 393 548 895
f 513 548 21
f 595 790 531
f 531 790 58
f 58 161 531
f 531 679 324
f 573 502 484
f 536 528 147
f 871 435 670
f 763 904 97
f 290 904 604
f 97 904 759
f 904 290 759
f 106 417 25
f 106 25 581
f 632 486 87
f 728 237 87
f 370 486 632
f 52 237 728
f 299 163 99
f 630 573 484
f 722 339 902
f 902 339 513
f 342 86 602
f 86 902 602
f 602 513 660
f 602 902 513
f 515 339 722
f 515 690 339
f 143 430 285
f 285 278 143
f 143 278 445
f 143 445 71
f 71 346 143
f 143 346 685
f 276 430 293
f 430 11 293
f 208 11 430
f 551 680 406
f 406 680 862
f 108 534 185
f 814 278 773
f 773 190 814
f 400 432 814
f 432 278 814
f 859 639 205
f 859 418 611
f 205 61 859
f 61 418 859
f 174 837 156
f 156 164 174
f 251 540 499
f 164 422 440
f 274 523 760
f 530 540 251
f 689 179 226
f 226 880 689
f 862 680 662
f 689 880 662
f 880 226 662
f 383 791 617
f 725 531 324
f 519 189 382
f 189 605 382
f 827 68 570
f 827 570 888
f 383 617 93
f 888 497 93
f 93 497 383
f 93 827 888
f 12 827 93
f 444 781 229
f 411 532 238
f 238 711 411
f 532 711 238
f 545 711 781
f 57 683 467
f 467 683 889
f 353 30 594
f 594 336 149
f 336 197 149
f 149 353 594
f 148 336 374
f 148 197 336
f 374 30 148
f 804 436 59
f 59 329 804
f 59 436 263
f 804 329 669
f 428 179 689
f 689 350 783
f 683 57 295
f 128 603 227
f 144 167 92
f 189 886 789
f 789 605 189
f 789 886 76
f 604 904 17
f 854 852 18
f 854 111 852
f 18 178 854
f 456 643 18
f 18 679 456
f 58 790 699
f 699 528 58
f 790 528 699
f 369 252 513
f 588 701 792
f 153 680 551
f 551 820 153
f 75 740 832
f 424 740 75
f 832 740 731
f 224 386 424
f 461 740 590
f 590 314 461
f 155 740 424
f 895 58 742
f 58 831 742
f 793 831 58
f 58 528 793
f 528 536 793
f 670 435 410
f 410 372 670
f 269 536 147
f 254 536 269
f 522 871 670
f 280 17 857
f 15 817 537
f 97 759 537
f 537 290 15
f 537 759 290
f 604 220 684
f 684 290 604
f 288 386 97
f 424 386 288
f 646 370 632
f 191 370 646
f 99 163 712
f 804 669 712
f 712 669 336
f 712 336 773
f 712 558 99
f 339 558 712
f 846 339 712
f 285 846 712
f 712 773 285
f 473 630 484
f 262 630 473
f 716 630 262
f 728 87 716
f 716 486 727
f 716 87 486
f 429 792 258
f 258 792 701
f 330 602 182
f 182 429 330
f 330 429 602
f 722 902 796
f 685 241 509
f 241 504 509
f 240 504 241
f 543 156 196
f 40 346 521
f 534 108 465
f 465 470 534
f 43 746 578
f 578 465 43
f 43 465 108
f 432 746 43
f 534 470 587
f 661 534 862
f 862 576 661
f 861 814 481
f 481 814 190
f 190 198 481
f 343 673 156
f 359 673 343
f 619 359 343
f 343 156 253
f 334 619 343
f 343 253 334
f 787 205 703
f 703 483 787
f 523 651 758
f 758 118 523
f 639 118 758
f 205 639 758
f 893 483 284
f 771 826 879
f 296 566 476
f 611 418 267
f 267 621 611
f 540 289 726
f 726 499 540
f 704 440 422
f 621 440 704
f 611 621 704
f 704 821 611
f 540 821 704
f 164 440 686
f 686 440 621
f 686 174 164
f 621 267 686
f 686 267 174
f 534 395 671
f 185 534 671
f 296 40 671
f 671 40 677
f 6 791 385
f 6 617 791
f 385 911 6
f 511 536 254
f 254 416 511
f 785 705 411
f 76 705 785
f 785 247 76
f 76 886 853
f 853 705 76
f 853 886 189
f 853 189 519
f 411 705 823
f 823 532 411
f 823 110 532
f 823 705 519
f 371 781 392
f 392 173 371
f 409 173 392
f 187 437 23
f 187 247 437
f 396 869 561
f 561 869 769
f 44 110 160
f 110 823 160
f 171 313 266
f 266 313 768
f 805 281 53
f 413 570 872
f 570 68 872
f 68 827 666
f 666 812 68
f 666 827 12
f 666 805 53
f 507 313 2
f 100 409 392
f 320 204 402
f 717 782 320
f 447 744 47
f 341 744 447
f 447 696 341
f 47 209 622
f 819 310 144
f 865 220 604
f 604 889 865
f 865 106 220
f 261 154 341
f 22 744 341
f 506 134 281
f 304 49 268
f 268 49 167
f 534 347 641
f 39 287 179
f 179 428 39
f 540 530 39
f 39 563 607
f 607 476 39
f 286 186 326
f 326 540 286
f 292 783 256
f 256 783 350
f 350 124 256
f 847 295 57
f 116 889 683
f 707 350 625
f 845 54 754
f 754 625 350
f 754 54 707
f 707 625 754
f 377 54 845
f 374 502 842
f 650 227 707
f 128 227 650
f 707 54 650
f 54 377 650
f 618 227 55
f 870 618 55
f 870 523 274
f 274 618 870
f 702 455 144
f 144 92 702
f 702 92 603
f 702 603 128
f 720 627 539
f 720 854 178
f 111 854 720
f 539 852 720
f 852 111 720
f 714 627 212
f 265 789 828
f 828 212 265
f 714 212 828
f 76 233 202
f 202 789 76
f 328 378 102
f 102 843 328
f 264 889 604
f 467 889 264
f 843 102 850
f 467 264 850
f 604 17 850
f 850 264 604
f 714 868 107
f 548 393 856
f 393 420 856
f 588 792 8
f 8 21 548
f 122 252 8
f 681 420 849
f 849 878 681
f 113 420 681
f 195 420 113
f 457 420 78
f 252 369 28
f 28 8 252
f 21 8 28
f 718 490 257
f 257 231 718
f 718 231 573
f 502 573 560
f 573 231 560
f 101 224 883
f 386 224 101
f 832 883 600
f 883 224 600
f 236 393 895
f 5 831 810
f 5 742 831
f 393 236 5
f 810 897 5
f 5 897 878
f 5 849 393
f 878 849 5
f 835 793 536
f 280 857 80
f 417 89 84
f 84 716 727
f 438 89 417
f 438 106 257
f 417 106 438
f 257 490 438
f 25 417 34
f 581 25 34
f 97 537 368
f 368 288 97
f 368 537 817
f 368 817 581
f 581 34 368
f 727 486 368
f 368 84 727
f 417 84 368
f 368 34 417
f 424 288 564
f 564 155 424
f 644 558 339
f 808 646 355
f 544 646 808
f 332 646 797
f 332 797 461
f 461 314 332
f 646 332 798
f 798 564 288
f 314 564 798
f 798 332 314
f 776 690 797
f 797 646 776
f 776 646 690
f 690 646 448
f 448 646 544
f 163 299 803
f 542 712 163
f 660 122 885
f 885 602 660
f 182 602 885
f 429 258 864
f 864 145 429
f 342 602 599
f 599 407 342
f 342 407 249
f 429 796 249
f 429 249 151
f 151 249 407
f 16 896 598
f 598 145 16
f 429 145 598
f 461 797 825
f 797 896 825
f 825 16 461
f 825 896 16
f 375 504 552
f 504 240 552
f 552 289 540
f 811 208 430
f 811 764 208
f 11 208 166
f 156 673 834
f 489 250 3
f 489 3 223
f 489 223 432
f 780 40 3
f 677 40 780
f 470 465 549
f 910 198 190
f 470 198 910
f 910 190 115
f 115 470 910
f 222 347 534
f 534 587 222
f 222 115 551
f 216 879 826
f 216 893 771
f 771 879 216
f 47 744 753
f 753 209 47
f 744 22 753
f 501 859 611
f 611 821 501
f 639 859 501
f 737 821 540
f 737 540 326
f 639 501 737
f 737 501 821
f 640 267 418
f 640 431 213
f 385 431 640
f 640 569 385
f 61 569 640
f 760 286 361
f 694 566 296
f 296 671 694
f 579 576 862
f 862 662 579
f 579 662 226
f 305 297 354
f 354 297 312
f 706 658 460
f 460 658 312
f 372 410 139
f 657 785 411
f 411 711 657
f 657 711 23
f 23 437 657
f 112 233 76
f 207 247 173
f 173 409 207
f 76 247 207
f 207 112 76
f 173 247 466
f 247 187 466
f 466 371 173
f 781 371 466
f 466 545 781
f 396 561 676
f 676 747 396
f 676 382 605
f 605 789 676
f 676 265 747
f 676 789 265
f 277 561 769
f 281 134 909
f 53 281 909
f 316 503 159
f 159 281 316
f 281 805 316
f 66 613 787
f 787 483 66
f 688 66 483
f 812 666 572
f 572 67 812
f 775 67 572
f 53 775 572
f 572 666 53
f 770 768 313
f 313 507 770
f 770 507 768
f 126 768 35
f 768 507 35
f 492 325 229
f 492 229 413
f 492 733 325
f 788 123 829
f 829 872 68
f 446 100 204
f 81 507 2
f 2 337 665
f 232 100 392
f 204 100 232
f 232 402 204
f 696 622 360
f 881 583 771
f 612 227 881
f 194 525 257
f 257 106 194
f 106 865 194
f 525 194 678
f 678 194 865
f 678 865 889
f 889 668 678
f 322 91 741
f 304 268 322
f 200 337 2
f 200 171 266
f 266 91 230
f 818 261 341
f 170 167 242
f 170 92 167
f 379 114 498
f 538 279 266
f 729 279 538
f 729 538 485
f 485 538 506
f 7 729 485
f 134 506 659
f 659 538 266
f 506 538 659
f 659 768 126
f 266 768 659
f 126 909 659
f 659 909 134
f 302 270 451
f 862 534 188
f 534 641 188
f 540 39 907
f 907 39 1
f 907 286 540
f 541 428 292
f 541 39 428
f 1 39 541
f 292 256 541
f 794 39 476
f 287 39 794
f 794 476 566
f 563 39 606
f 606 552 563
f 289 552 606
f 414 286 760
f 186 286 414
f 1 541 234
f 467 165 898
f 898 57 467
f 898 847 57
f 683 295 239
f 239 116 683
f 689 662 4
f 4 662 680
f 830 842 450
f 551 374 749
f 374 842 749
f 749 820 551
f 227 618 72
f 72 124 707
f 707 227 72
f 177 651 523
f 523 870 177
f 627 720 311
f 396 212 311
f 311 212 627
f 311 178 396
f 311 720 178
f 396 265 152
f 152 212 396
f 265 212 152
f 320 782 751
f 203 446 204
f 203 204 320
f 637 100 203
f 100 446 203
f 462 868 714
f 789 202 553
f 553 19 789
f 637 203 553
f 320 751 553
f 553 203 320
f 553 233 637
f 553 202 233
f 789 19 574
f 574 585 789
f 574 317 585
f 442 843 280
f 843 850 137
f 137 850 17
f 433 102 378
f 433 850 102
f 378 302 433
f 433 302 165
f 433 165 467
f 467 850 433
f 539 627 399
f 539 399 367
f 588 8 172
f 172 8 420
f 51 856 420
f 420 8 51
f 122 8 877
f 877 8 792
f 877 885 122
f 13 420 393
f 393 849 13
f 13 849 420
f 391 682 78
f 391 420 195
f 391 78 420
f 866 520 731
f 831 793 127
f 772 731 740
f 772 682 65
f 16 682 772
f 772 740 461
f 461 16 772
f 735 835 536
f 41 522 280
f 280 80 41
f 871 522 41
f 366 140 857
f 904 763 366
f 366 17 904
f 366 857 17
f 857 140 799
f 716 84 851
f 558 644 568
f 505 568 355
f 558 568 505
f 288 368 697
f 697 368 486
f 339 690 809
f 690 448 809
f 163 803 848
f 848 649 535
f 262 649 848
f 728 716 848
f 848 716 262
f 804 712 687
f 687 415 804
f 804 415 891
f 95 542 535
f 712 542 95
f 458 429 182
f 182 885 458
f 74 258 420
f 74 864 258
f 282 796 902
f 282 249 796
f 282 902 86
f 282 86 342
f 342 249 282
f 602 429 244
f 429 151 244
f 736 896 797
f 94 552 240
f 375 552 766
f 766 552 540
f 323 422 543
f 323 766 422
f 806 121 11
f 11 166 806
f 88 609 508
f 211 196 156
f 156 834 211
f 225 673 359
f 225 834 673
f 3 250 308
f 308 780 3
f 855 730 40
f 346 40 193
f 550 198 470
f 470 549 550
f 192 465 814
f 192 549 465
f 115 222 181
f 181 222 587
f 181 470 115
f 181 587 470
f 575 284 483
f 575 177 284
f 592 216 826
f 592 622 209
f 592 360 622
f 592 826 771
f 771 583 592
f 69 526 753
f 503 526 69
f 159 503 69
f 267 640 351
f 174 267 351
f 837 174 351
f 351 748 837
f 64 694 175
f 175 671 395
f 175 694 671
f 64 576 654
f 576 579 654
f 654 694 64
f 328 63 398
f 305 354 488
f 488 354 312
f 488 79 305
f 312 10 488
f 217 45 138
f 217 297 305
f 305 119 217
f 706 756 9
f 9 658 706
f 349 460 372
f 670 372 784
f 372 460 784
f 348 63 328
f 801 139 623
f 623 139 410
f 637 233 745
f 233 112 745
f 745 207 409
f 112 207 745
f 382 676 376
f 376 676 561
f 769 44 419
f 419 277 769
f 44 277 419
f 44 160 132
f 132 277 44
f 652 316 634
f 805 666 634
f 634 316 805
f 472 860 761
f 472 715 385
f 385 569 472
f 472 634 715
f 761 634 472
f 709 569 613
f 709 472 569
f 860 472 709
f 613 66 709
f 912 316 652
f 503 316 912
f 358 688 483
f 209 753 358
f 475 123 788
f 475 67 123
f 812 67 475
f 150 507 775
f 150 35 507
f 150 775 53
f 53 909 150
f 392 781 732
f 732 733 392
f 781 444 732
f 556 733 123
f 556 109 392
f 392 733 556
f 38 492 413
f 733 492 36
f 206 829 68
f 788 829 206
f 795 829 123
f 131 876 283
f 123 67 582
f 582 876 123
f 582 283 876
f 582 67 775
f 775 283 582
f 402 81 362
f 362 81 2
f 2 665 362
f 320 402 362
f 362 665 337
f 337 900 362
f 392 109 518
f 518 232 392
f 474 592 583
f 360 592 474
f 612 881 738
f 738 881 771
f 583 881 529
f 529 474 583
f 696 360 529
f 360 474 529
f 261 818 529
f 341 696 529
f 529 818 341
f 477 227 603
f 603 92 477
f 464 668 889
f 889 319 464
f 889 116 767
f 767 319 889
f 845 319 767
f 116 239 767
f 767 295 845
f 767 239 295
f 257 525 441
f 525 678 441
f 62 91 533
f 91 322 533
f 533 322 268
f 894 900 337
f 717 900 894
f 337 200 894
f 168 200 266
f 266 230 168
f 168 230 200
f 154 261 255
f 255 114 154
f 261 529 255
f 154 114 691
f 114 379 691
f 691 468 154
f 379 468 691
f 757 379 498
f 757 49 304
f 498 170 757
f 757 170 242
f 242 167 757
f 167 49 757
f 154 120 663
f 663 120 22
f 341 154 663
f 663 22 341
f 7 485 335
f 335 485 506
f 184 245 365
f 245 302 365
f 274 760 105
f 631 256 124
f 631 333 256
f 256 333 710
f 710 618 274
f 546 702 128
f 128 586 546
f 128 650 647
f 647 586 128
f 647 82 847
f 847 546 647
f 647 546 586
f 246 451 310
f 246 302 451
f 165 302 246
f 246 898 165
f 689 4 142
f 142 350 689
f 142 596 350
f 389 4 680
f 596 4 901
f 14 842 502
f 14 450 842
f 491 177 870
f 789 585 260
f 260 828 789
f 714 828 260
f 260 317 714
f 585 317 260
f 620 462 42
f 868 462 635
f 752 574 462
f 714 317 752
f 345 620 443
f 443 833 345
f 10 833 214
f 833 443 214
f 782 45 858
f 384 273 19
f 19 553 384
f 782 273 653
f 653 553 782
f 31 751 782
f 782 553 31
f 31 553 751
f 462 574 46
f 46 574 19
f 480 442 280
f 328 843 645
f 645 348 328
f 843 137 183
f 183 137 17
f 280 843 183
f 183 17 280
f 539 367 624
f 777 713 714
f 762 713 777
f 714 107 777
f 324 852 453
f 595 531 449
f 531 725 449
f 449 254 595
f 65 682 300
f 682 391 300
f 520 866 315
f 146 315 866
f 135 127 793
f 793 867 135
f 135 867 520
f 306 867 435
f 435 871 306
f 306 883 832
f 832 731 306
f 731 520 306
f 520 867 306
f 306 73 883
f 140 73 306
f 306 799 140
f 878 897 884
f 897 272 884
f 731 772 555
f 452 772 65
f 452 272 897
f 479 735 410
f 479 410 435
f 835 735 479
f 672 84 89
f 672 851 84
f 338 505 355
f 228 505 338
f 355 646 338
f 844 505 228
f 844 228 237
f 237 52 844
f 527 798 288
f 288 697 527
f 646 798 527
f 191 646 527
f 527 370 191
f 486 370 527
f 527 697 486
f 163 848 633
f 633 848 535
f 294 891 415
f 649 891 294
f 535 649 294
f 218 74 420
f 141 598 896
f 896 736 141
f 141 736 797
f 141 796 429
f 429 598 141
f 722 796 141
f 797 690 141
f 141 515 722
f 690 515 141
f 162 764 375
f 375 766 162
f 208 764 162
f 196 211 567
f 567 834 899
f 567 211 834
f 540 704 423
f 423 766 540
f 423 704 422
f 422 766 423
f 88 508 610
f 610 508 834
f 176 508 121
f 121 806 176
f 899 834 176
f 834 508 176
f 83 855 40
f 83 40 296
f 296 94 83
f 83 94 240
f 40 730 404
f 404 193 40
f 580 814 861
f 580 192 814
f 483 703 373
f 373 589 483
f 651 589 373
f 651 177 667
f 177 575 667
f 667 575 483
f 136 592 209
f 216 592 136
f 434 526 503
f 753 526 434
f 434 358 753
f 503 688 434
f 688 358 434
f 70 753 22
f 70 69 753
f 213 748 275
f 748 351 275
f 275 640 213
f 275 351 640
f 235 460 312
f 312 398 235
f 63 348 235
f 235 398 63
f 348 645 235
f 382 132 755
f 755 132 160
f 519 382 755
f 755 823 519
f 755 160 823
f 652 634 427
f 427 634 761
f 427 860 652
f 761 860 427
f 807 666 12
f 807 634 666
f 66 688 816
f 816 709 66
f 503 912 29
f 29 688 503
f 68 812 37
f 812 475 37
f 874 732 444
f 733 732 874
f 123 876 863
f 863 556 123
f 863 876 402
f 123 38 493
f 493 38 413
f 493 795 123
f 123 733 824
f 733 36 824
f 133 81 131
f 131 283 133
f 507 81 133
f 775 507 133
f 133 283 775
f 320 362 739
f 739 362 900
f 739 717 320
f 739 900 717
f 655 529 92
f 734 881 227
f 227 477 734
f 734 477 881
f 881 477 103
f 92 529 356
f 356 477 92
f 356 103 477
f 356 529 881
f 881 103 356
f 813 464 319
f 668 464 813
f 813 319 845
f 845 754 813
f 813 754 350
f 350 596 813
f 450 469 813
f 830 450 813
f 596 901 813
f 601 91 62
f 601 230 91
f 200 230 774
f 774 894 200
f 230 601 774
f 154 468 494
f 494 629 154
f 494 468 7
f 7 629 494
f 62 533 648
f 533 903 648
f 328 117 608
f 608 510 328
f 328 510 478
f 234 105 357
f 1 234 357
f 357 105 760
f 760 361 357
f 618 710 363
f 363 710 333
f 500 546 847
f 847 898 500
f 455 702 500
f 702 546 500
f 898 246 500
f 500 246 310
f 310 819 500
f 144 455 500
f 500 819 144
f 82 647 565
f 565 650 377
f 565 647 650
f 845 295 565
f 565 377 845
f 295 847 565
f 847 82 565
f 33 4 596
f 596 142 33
f 33 142 4
f 210 389 680
f 830 389 210
f 27 389 830
f 830 813 27
f 27 813 901
f 284 177 50
f 177 491 50
f 893 284 50
f 50 491 893
f 875 491 870
f 620 42 85
f 85 119 305
f 405 620 345
f 405 462 620
f 405 635 462
f 158 462 714
f 714 752 158
f 158 752 462
f 658 9 496
f 303 214 305
f 305 79 303
f 10 214 303
f 628 858 554
f 554 42 462
f 782 858 130
f 130 273 782
f 462 46 215
f 628 554 215
f 215 554 462
f 843 442 180
f 180 645 843
f 615 624 367
f 615 367 800
f 800 713 615
f 615 713 762
f 615 405 345
f 324 453 401
f 345 833 692
f 756 822 487
f 833 723 487
f 487 692 833
f 344 416 254
f 254 449 344
f 801 416 344
f 344 449 719
f 344 139 801
f 460 349 344
f 719 559 344
f 463 756 706
f 463 822 756
f 706 460 463
f 460 344 463
f 614 559 719
f 318 146 866
f 810 146 412
f 412 897 810
f 96 452 65
f 272 452 96
f 535 542 495
f 495 633 535
f 890 420 457
f 890 218 420
f 597 703 205
f 597 373 703
f 205 758 597
f 597 758 651
f 651 373 597
f 517 589 651
f 651 667 517
f 483 589 517
f 517 667 483
f 656 136 209
f 216 136 656
f 656 209 893
f 893 216 656
f 22 120 750
f 750 70 22
f 584 784 460
f 715 634 397
f 634 807 397
f 385 715 397
f 397 911 385
f 397 93 617
f 12 93 397
f 397 807 12
f 397 6 911
f 617 6 397
f 652 860 221
f 221 912 652
f 688 29 129
f 129 816 688
f 709 816 129
f 129 29 709
f 402 232 364
f 364 863 402
f 26 114 674
f 674 92 26
f 674 655 92
f 114 255 674
f 802 678 668
f 668 813 802
f 802 813 469
f 802 441 678
f 717 894 199
f 894 774 199
f 199 774 601
f 782 717 199
f 199 45 782
f 62 45 199
f 199 601 62
f 425 327 741
f 741 91 425
f 425 91 266
f 425 279 729
f 266 279 425
f 471 468 379
f 379 327 471
f 327 425 471
f 471 729 7
f 7 468 471
f 741 327 840
f 840 322 741
f 379 757 840
f 840 327 379
f 304 322 840
f 840 757 304
f 7 335 169
f 104 378 328
f 104 302 378
f 104 365 302
f 90 302 245
f 270 302 90
f 451 270 90
f 144 451 90
f 184 365 693
f 77 648 297
f 297 217 77
f 77 217 138
f 779 77 138
f 648 77 779
f 312 297 512
f 512 248 312
f 20 398 312
f 312 248 20
f 20 117 328
f 328 478 394
f 394 104 328
f 524 875 870
f 893 491 259
f 771 893 259
f 119 85 516
f 516 85 42
f 841 615 762
f 405 615 841
f 312 658 403
f 658 496 403
f 403 10 312
f 593 858 628
f 593 130 858
f 593 46 19
f 628 215 593
f 593 215 46
f 19 273 593
f 273 130 593
f 624 615 724
f 724 453 852
f 786 453 724
f 675 786 724
f 724 615 675
f 340 401 453
f 756 487 708
f 708 9 756
f 708 496 9
f 708 487 723
f 822 615 454
f 454 487 822
f 454 615 345
f 822 463 562
f 562 344 559
f 562 463 344
f 219 614 719
f 675 614 219
f 892 614 675
f 675 615 892
f 892 615 822
f 146 318 887
f 887 412 146
f 48 390 899
f 766 390 48
f 98 567 899
f 899 390 98
f 98 390 567
f 307 390 766
f 766 323 307
f 567 390 307
f 307 323 543
f 543 196 307
f 196 567 307
f 638 335 506
f 159 69 638
f 638 281 159
f 638 506 281
f 836 750 120
f 836 120 154
f 154 629 836
f 7 750 836
f 836 629 7
f 460 235 664
f 557 29 912
f 912 221 557
f 709 29 557
f 860 709 557
f 557 221 860
f 571 425 729
f 729 471 571
f 571 471 425
f 591 169 335
f 335 638 591
f 591 638 750
f 459 90 245
f 903 90 459
f 547 533 268
f 144 90 547
f 547 90 903
f 547 167 144
f 547 268 167
f 331 693 365
f 903 693 331
f 510 903 331
f 331 478 510
f 62 648 32
f 648 779 32
f 32 779 138
f 32 45 62
f 138 45 32
f 297 648 201
f 201 512 297
f 648 512 201
f 248 512 721
f 721 512 648
f 721 903 510
f 721 648 903
f 398 20 387
f 387 20 328
f 421 524 870
f 738 524 421
f 309 738 771
f 309 524 738
f 635 405 698
f 405 841 698
f 380 833 10
f 10 403 380
f 719 401 838
f 838 219 719
f 401 340 838
f 412 887 56
f 56 555 772
f 70 750 908
f 750 638 908
f 69 70 908
f 908 638 69
f 636 584 460
f 460 664 636
f 408 903 533
f 533 547 408
f 408 547 903
f 743 56 772
f 412 56 743
f 584 636 321
f 480 584 321
f 442 480 298
f 480 321 298
f 660 243 252
f 252 122 660
f 30 353 148
f 148 149 197
f 353 149 148
f 669 59 263
f 263 374 669
f 374 336 669
f 329 59 669
f 292 428 783
f 783 428 689
f 456 161 643
f 456 531 161
f 679 531 456
f 595 254 269
f 147 595 269
f 15 290 684
f 684 106 581
f 581 817 684
f 684 817 15
f 220 106 684
f 40 278 223
f 71 445 40
f 40 60 71
f 445 278 40
f 521 60 40
f 223 3 40
f 578 746 465
f 465 746 400
f 400 814 465
f 519 705 853
f 696 447 622
f 622 447 47
f 28 369 513
f 513 21 28
f 424 75 600
f 600 75 832
f 600 224 424
f 5 236 895
f 895 742 5
f 564 590 740
f 740 155 564
f 314 590 564
f 685 509 811
f 811 143 685
f 430 143 811
f 811 504 375
f 811 509 504
f 375 764 811
f 640 418 61
f 247 785 657
f 437 247 657
f 711 545 466
f 23 711 466
f 466 187 23
f 402 876 81
f 81 876 131
f 313 171 200
f 2 313 200
f 170 114 26
f 26 92 170
f 498 114 170
f 347 222 188
f 551 406 188
f 188 406 862
f 188 222 551
f 188 641 347
f 251 499 606
f 606 530 251
f 606 726 289
f 499 726 606
f 606 39 530
f 326 186 414
f 523 118 414
f 414 118 639
f 414 760 523
f 414 737 326
f 639 737 414
f 800 367 713
f 713 627 714
f 713 399 627
f 713 367 399
f 172 258 701
f 172 701 588
f 420 258 172
f 51 8 548
f 548 856 51
f 73 763 97
f 97 386 73
f 73 101 883
f 386 101 73
f 73 366 763
f 140 366 73
f 809 644 339
f 809 808 355
f 355 568 809
f 544 808 809
f 809 448 544
f 809 568 644
f 891 473 484
f 891 436 804
f 484 436 891
f 891 649 262
f 262 473 891
f 458 792 429
f 458 877 792
f 885 877 458
f 407 599 244
f 244 599 602
f 244 151 407
f 296 476 94
f 563 552 94
f 607 563 94
f 94 476 607
f 276 293 508
f 508 609 276
f 508 293 11
f 11 121 508
f 432 43 308
f 308 671 677
f 308 108 185
f 308 489 432
f 308 43 108
f 185 671 308
f 250 489 308
f 677 780 308
f 534 661 175
f 175 576 64
f 175 395 534
f 175 661 576
f 179 287 654
f 654 226 179
f 654 579 226
f 654 794 566
f 566 694 654
f 287 794 654
f 536 511 623
f 623 735 536
f 623 416 801
f 623 511 416
f 410 735 623
f 409 100 745
f 745 100 637
f 561 277 132
f 382 376 132
f 132 376 561
f 893 209 358
f 358 483 893
f 126 35 150
f 150 909 126
f 710 234 541
f 274 105 710
f 710 541 256
f 710 105 234
f 317 574 752
f 653 384 553
f 273 384 653
f 831 127 135
f 810 831 135
f 135 146 810
f 520 315 135
f 315 146 135
f 871 41 306
f 306 80 857
f 306 41 80
f 857 799 306
f 479 867 793
f 435 867 479
f 793 835 479
f 630 716 672
f 672 438 490
f 573 630 672
f 672 718 573
f 490 718 672
f 89 438 672
f 716 851 672
f 338 87 237
f 632 87 338
f 338 646 632
f 237 228 338
f 844 52 728
f 844 299 99
f 99 558 844
f 728 848 844
f 844 803 299
f 558 505 844
f 844 848 803
f 294 95 535
f 294 687 712
f 415 687 294
f 712 95 294
f 610 225 359
f 359 88 610
f 834 225 610
f 241 346 404
f 404 240 241
f 346 193 404
f 730 855 404
f 404 83 240
f 855 83 404
f 198 550 580
f 580 481 198
f 861 481 580
f 580 550 549
f 549 192 580
f 37 475 788
f 37 206 68
f 788 206 37
f 874 444 229
f 229 325 874
f 325 733 874
f 413 872 493
f 872 829 493
f 829 795 493
f 492 38 824
f 824 38 123
f 824 36 492
f 357 361 286
f 357 907 1
f 286 907 357
f 363 631 124
f 124 72 363
f 363 72 618
f 333 631 363
f 680 153 210
f 210 153 820
f 820 749 210
f 210 842 830
f 210 749 842
f 27 901 4
f 4 389 27
f 85 443 620
f 305 214 85
f 85 214 443
f 79 488 303
f 303 488 10
f 401 449 725
f 401 725 324
f 719 449 401
f 344 349 372
f 372 139 344
f 96 113 681
f 681 878 96
f 878 884 96
f 195 113 96
f 96 391 195
f 65 300 96
f 96 300 391
f 96 884 272
f 163 633 495
f 495 542 163
f 16 145 890
f 457 78 890
f 890 682 16
f 145 864 890
f 78 682 890
f 864 74 890
f 74 218 890
f 280 522 584
f 584 522 670
f 670 784 584
f 584 480 280
f 556 863 364
f 232 518 364
f 364 518 109
f 109 556 364
f 674 255 529
f 529 655 674
f 257 441 802
f 502 560 802
f 802 231 257
f 802 560 231
f 802 14 502
f 450 14 802
f 802 469 450
f 42 554 516
f 45 217 516
f 516 217 119
f 516 858 45
f 516 554 858
f 724 852 539
f 539 624 724
f 345 692 454
f 692 487 454
f 559 614 892
f 822 562 892
f 892 562 559
f 208 162 48
f 48 166 208
f 899 176 48
f 48 806 166
f 48 162 766
f 48 176 806
f 7 169 591
f 591 750 7
f 184 693 459
f 459 245 184
f 459 693 903
f 104 394 331
f 365 104 331
f 331 394 478
f 117 20 721
f 721 608 117
f 510 608 721
f 721 20 248
f 328 398 387
f 55 227 421
f 421 227 612
f 421 870 55
f 612 738 421
f 771 259 309
f 309 259 491
f 491 875 309
f 875 524 309
f 762 777 698
f 868 635 698
f 698 107 868
f 698 777 107
f 698 841 762
f 380 723 833
f 380 708 723
f 380 403 496
f 496 708 380
f 838 453 786
f 838 786 675
f 838 340 453
f 675 219 838
f 731 555 56
f 56 866 731
f 56 887 318
f 56 318 866
f 772 452 743
f 743 452 897
f 897 412 743
f 298 664 235
f 645 180 298
f 298 235 645
f 298 180 442
f 298 636 664
f 298 321 636

