# https://github.com/mikedh/trimesh
v 0.04763432 -0.04593711 -0.10408342
v 0.02038360 -0.02090101 -0.14255923
v 0.04760343 -0.04406464 -0.10423647
v 0.04727014 -0.02124324 -0.10588580
v 0.04176589 -0.04945671 -0.12067844
v 0.01512472 -0.02331502 -0.14488850
v 0.02885230 -0.02094870 -0.13688227
v 0.04473897 -0.04365891 -0.11453606
v 0.04184997 -0.03817703 -0.12053177
v 0.00272369 -0.02178097 -0.14736929
v 0.02306416 -0.02839204 -0.14108620
v 0.02964623 -0.02314357 -0.13622609
v 0.03931586 -0.04962753 -0.12481447
v 0.00242160 -0.04682176 -0.14738951
v 0.04417704 -0.03651022 -0.11584088
v 0.02526031 -0.02730793 -0.13966828
v 0.04225765 -0.04856870 -0.11973057
v 0.02505935 -0.04726273 -0.13981041
v 0.02524991 -0.02860049 -0.13967565
v 0.04563127 -0.02168243 -0.11216143
v 0.00724497 -0.02179611 -0.14688458
v 0.04692267 -0.04760832 -0.10760473
v 0.01845608 -0.02140451 -0.14353865
v 0.02088976 -0.02278981 -0.14233719
v 0.02294725 -0.02664445 -0.14116039
v 0.04812462 -0.00014617 -0.10054287
v 0.02051600 -0.02093545 -0.14250199
v 0.00662605 -0.03697629 -0.14698797
v 0.02564447 -0.02171259 -0.13939689
v 0.04815851 -0.03010935 -0.10018758
v 0.04578433 -0.02145598 -0.11174396
v 0.03996629 -0.02998087 -0.12371718
v 0.02217783 -0.04583202 -0.14162455
v 0.00660564 -0.02824329 -0.14699044
v 0.04128068 -0.04998685 -0.12149840
v 0.03919722 -0.02146085 -0.12501240
v 0.03489869 -0.04856085 -0.13081508
v 0.00613903 -0.04504959 -0.14704538
v 0.04816792 -0.04682915 -0.10008867
v 0.03326696 -0.02582302 -0.13266484
v 0.00621892 -0.04797120 -0.14703592
v 0.01250708 -0.02170219 -0.14572759
v 0.02915308 -0.02349650 -0.13665021
v 0.00492425 -0.00034194 -0.14239326
v 0.03461321 -0.02360537 -0.13115375
v 0.04661958 -0.02198664 -0.10880480
v 0.04816572 -0.00438152 -0.10010784
v 0.04683733 -0.03402328 -0.10802933
v 0.01014812 -0.02055989 -0.14620982
v 0.04740577 -0.02170094 -0.10521508
v 0.03899073 -0.00001837 -0.11156110
v 0.03586127 -0.04943361 -0.12963343
v 0.04559343 -0.02624710 -0.11227803
v 0.04804125 -0.03947909 -0.10142626
v 0.02769357 -0.04949960 -0.13784220
v 0.03227587 -0.02083365 -0.13364508
v 0.03514272 -0.03198514 -0.13051666
v 0.01848194 -0.02605696 -0.14353531
v 0.04578681 -0.03391286 -0.11173904
v 0.00878972 -0.03266379 -0.14662532
v 0.03999984 -0.03833790 -0.10152710
v 0.03307085 -0.04545395 -0.13288377
v 0.03172078 -0.03826318 -0.13427965
v 0.03998400 -0.04980882 -0.10208440
v 0.01867923 -0.03983970 -0.14344684
v 0.01072170 -0.02143466 -0.14620661
v 0.04430986 -0.02260574 -0.11553967
v 0.01819527 -0.03329932 -0.14366088
v 0.04684473 -0.04569702 -0.10799109
v 0.01594095 -0.02094361 -0.14456201
v 0.03918752 -0.02070114 -0.12487844
v 0.00529243 -0.02171481 -0.14714543
v 0.03926267 -0.02107254 -0.12486131
v 0.03550352 -0.03742931 -0.13007337
v 0.01476834 -0.04890910 -0.14502333
v 0.04814989 -0.00086701 -0.10027536
v 0.02194661 -0.03876425 -0.14175609
v 0.04713192 -0.02124662 -0.10657096
v 0.00432130 -0.04852062 -0.14725525
v 0.04736432 -0.02166847 -0.10542041
v 0.03815563 -0.04857829 -0.12652884
v 0.03128879 -0.02102870 -0.13466655
v 0.02835612 -0.04807745 -0.13732544
v 0.00312127 -0.03339729 -0.14734079
v 0.01874781 -0.04963986 -0.14341432
v 0.02115246 -0.03370441 -0.14220456
v 0.01677899 -0.04531447 -0.14425329
v 0.04143061 -0.04700903 -0.12124504
v 0.03622162 -0.02810935 -0.12919119
v 0.04540087 -0.04977403 -0.11281196
v 0.00769237 -0.03675584 -0.14681026
v 0.03161366 -0.04925779 -0.13438042
v 0.02912750 -0.02362546 -0.13667220
v 0.02498912 -0.00008372 -0.13392825
v 0.03170326 -0.02562257 -0.13429640
v 0.03781414 -0.02033718 -0.12675075
v 0.04182721 -0.02207497 -0.12056410
v 0.00468481 -0.04906713 -0.14721628
v 0.01072566 -0.04438340 -0.14620568
v 0.03885989 -0.02155085 -0.12550419
v 0.01315194 -0.04506734 -0.14554723
v 0.03700049 -0.04985129 -0.12815644
v 0.04571995 -0.04370789 -0.11194519
v 0.03471392 -0.04213518 -0.13104195
v 0.00813113 -0.04605975 -0.14673713
v 0.03288931 -0.02254631 -0.13307629
v 0.01577116 -0.03561797 -0.14464413
v 0.02130158 -0.04847943 -0.14212111
v 0.03799088 -0.00002139 -0.11515916
v 0.04189757 -0.02496833 -0.12044611
v 0.01628478 -0.04296666 -0.14444711
v 0.02273855 -0.03075591 -0.14129297
v 0.04573676 -0.02257319 -0.11189399
v 0.02226683 -0.04989903 -0.14157380
v 0.02142576 -0.02723230 -0.14205221
v 0.04668642 -0.02315328 -0.10856949
v 0.02499846 -0.02912956 -0.13985318
v 0.04441558 -0.02962282 -0.11530040
v 0.00855106 -0.04869703 -0.14666686
v 0.02535184 -0.04822518 -0.13960392
v 0.00017158 -0.04978616 -0.14744581
v 0.02282967 -0.03057028 -0.14123511
v 0.04682331 -0.04817345 -0.10808540
v 0.00422475 -0.02523126 -0.14726266
v 0.02344977 -0.03464087 -0.14084148
v 0.01094917 -0.02504147 -0.14614801
v 0.02493116 -0.02979112 -0.13989915
v 0.01156136 -0.00013314 -0.14092927
v 0.00262024 -0.04935594 -0.14737536
v 0.01888015 -0.00021128 -0.13794282
v 0.01328970 -0.04937305 -0.14550229
v 0.03097764 -0.04997359 -0.13497931
v 0.04014242 -0.02059980 -0.12334889
v 0.01629160 -0.04855329 -0.14444397
v 0.02837417 -0.03268917 -0.13731125
v 0.04094127 -0.04193000 -0.12207141
v 0.00642395 -0.04710166 -0.14701175
v 0.02623241 -0.02735506 -0.13898127
v 0.02922583 -0.04978292 -0.13658526
v 0.00625138 -0.04586205 -0.14703212
v 0.03540410 -0.04964102 -0.13019460
v 0.04699857 -0.02186568 -0.10723220
v 0.00227301 -0.02045161 -0.14723681
v 0.03812614 -0.03439566 -0.12657352
v 0.00744335 -0.04986642 -0.14685254
v 0.00969769 -0.02085226 -0.14638009
v 0.00717289 -0.03020402 -0.14689704
v 0.02992532 -0.04948264 -0.13597003
v 0.03552924 -0.04966511 -0.13004098
v 0.02030586 -0.00001199 -0.13716081
v 0.02551123 -0.03571378 -0.13949124
v 0.00409032 -0.04914606 -0.14727162
v 0.03306893 -0.02488459 -0.13288674
v 0.03727901 -0.04977695 -0.12778620
v 0.00009049 -0.00282118 -0.14269891
v 0.00225463 -0.03401293 -0.14739622
v 0.03127717 -0.04748078 -0.13469756
v 0.03088097 -0.03995331 -0.13507121
v 0.02734737 -0.02089551 -0.13806348
v 0.02880446 -0.02081008 -0.13689448
v 0.04223498 -0.02209510 -0.11976637
v 0.02854272 -0.03239872 -0.13717437
v 0.02496812 -0.03487868 -0.13987467
v 0.01467337 -0.02354571 -0.14505748
v 0.03270517 -0.04610170 -0.13326536
v 0.04761564 -0.04967168 -0.10417547
v 0.03730646 -0.02234417 -0.12774854
v 0.02130670 -0.02703371 -0.14211972
v 0.03855047 -0.04135958 -0.12595477
v 0.00562335 -0.04956371 -0.14710590
v 0.04193795 -0.04375759 -0.12037660
v 0.01970775 -0.03500372 -0.14293334
v 0.00886946 -0.04911568 -0.14660842
v 0.02465509 -0.02066980 -0.14000159
v 0.00123517 -0.02323520 -0.14742097
v 0.04410445 -0.02200160 -0.11598741
v 0.01712900 -0.02032749 -0.14396306
v 0.01294700 -0.02470672 -0.14560878
v 0.04112784 -0.04995511 -0.10152700
v 0.00886500 -0.02635697 -0.14660883
v 0.02603901 -0.04830601 -0.13911877
v 0.03921573 -0.03118593 -0.12498403
v 0.03702792 -0.02125092 -0.12811901
v 0.02628757 -0.04283613 -0.13893875
v 0.03283880 -0.03390057 -0.13312795
v 0.02280023 -0.02407481 -0.14125365
v 0.02833991 -0.04858758 -0.13733808
v 0.00013373 -0.01493717 -0.14269839
v 0.01032865 -0.04851632 -0.14629172
v 0.00178793 -0.04850703 -0.14740616
v 0.03589727 -0.04822115 -0.12958932
v 0.00441299 -0.02941412 -0.14724891
v 0.04034012 -0.03491660 -0.12308626
v 0.01085446 -0.02743373 -0.14617378
v 0.03623893 -0.03359658 -0.12916902
v 0.03649416 -0.02867454 -0.12882982
v 0.02219551 -0.04641014 -0.14161448
v 0.02186428 -0.02206433 -0.14180300
v 0.04519180 -0.04757896 -0.11337823
v 0.02386828 -0.03959957 -0.14057585
v 0.00529161 -0.02119464 -0.14714162
v 0.01574113 -0.03402175 -0.14465565
v 0.04646269 -0.02170471 -0.10935688
v 0.03335606 -0.00001254 -0.12471973
v 0.01038565 -0.04813517 -0.14627934
v 0.03561985 -0.02302757 -0.12993066
v 0.01937449 -0.04967367 -0.14309912
v 0.02839138 -0.03348342 -0.13729784
v 0.04747751 -0.02179451 -0.10485967
v 0.03257792 -0.03835329 -0.13339711
v 0.04207955 -0.02308006 -0.12008056
v 0.03426414 -0.00010653 -0.12332895
v 0.03538816 -0.00002142 -0.12134277
v 0.03547443 -0.02533791 -0.13010930
v 0.03996541 -0.00002235 -0.10425181
v 0.01856400 -0.04649024 -0.14349653
v 0.01297261 -0.03445514 -0.14560157
v 0.04803687 -0.02835189 -0.10147218
v 0.00236180 -0.02473993 -0.14739449
v 0.03441880 -0.04634368 -0.13137346
v 0.03779991 -0.04587995 -0.12704714
v 0.03095483 -0.04998795 -0.13500079
v 0.00081678 -0.04983191 -0.14742998
v 0.04466702 -0.04232309 -0.11471264
v 0.01810097 -0.04954828 -0.14369988
v 0.03507691 -0.02077790 -0.13052541
v 0.01827577 -0.04865374 -0.14362307
v 0.04804117 -0.00318945 -0.10142618
v 0.01395446 -0.04926070 -0.14528683
v 0.02250737 -0.04905146 -0.14143726
v 0.00452232 -0.04663629 -0.14723547
v 0.01866246 -0.03497983 -0.14345497
v 0.03032741 -0.02155495 -0.13559332
v 0.04178874 -0.00003710 -0.10152711
v 0.01179687 -0.02082216 -0.14585978
v 0.04521930 -0.04858417 -0.11330393
v 0.03603758 -0.02085157 -0.12932111
v 0.03169627 -0.04415680 -0.13430265
v 0.04531340 -0.03777323 -0.11304350
v 0.02978255 -0.02133891 -0.13610690
v 0.02621842 -0.03887518 -0.13899191
v 0.02786147 -0.02442445 -0.13771094
v 0.01828579 -0.03050968 -0.14362142
v 0.02487515 -0.02102635 -0.13991609
v 0.03757206 -0.04334349 -0.12737923
v 0.02731481 -0.02273474 -0.13813715
v 0.01604421 -0.02106374 -0.14452337
v 0.01612277 -0.04899010 -0.14450846
v 0.02044704 -0.04465600 -0.14256031
v 0.02366630 -0.02159463 -0.14070272
v 0.02458567 -0.02411742 -0.14011834
v 0.00870821 -0.04784650 -0.14664048
v 0.02996075 -0.02528752 -0.13593881
v 0.03617993 -0.04807780 -0.12924211
v 0.03776883 -0.02188604 -0.12709487
v 0.03280885 -0.03507415 -0.13315882
v 0.00835424 -0.02236574 -0.14669866
v 0.02492848 -0.03135043 -0.13990099
v 0.01128724 -0.02171721 -0.14605678
v 0.03427370 -0.04638538 -0.13153621
v 0.04424288 -0.04981396 -0.11570570
v 0.01221533 -0.04930564 -0.14580603
v 0.02634389 -0.04465543 -0.13889487
v 0.02965193 -0.02088204 -0.13613973
v 0.03260800 -0.04853646 -0.13336514
v 0.01073144 -0.02600428 -0.14620449
v 0.04043626 -0.00007875 -0.10152707
v 0.00887054 -0.00011667 -0.14166617
v 0.03534929 -0.03015717 -0.13026298
v 0.03303015 -0.03188957 -0.13292991
v 0.03978719 -0.02954430 -0.12401961
v 0.00682649 -0.02726784 -0.14695496
v 0.00696882 -0.02497173 -0.14693101
v 0.02855012 -0.02045259 -0.13701799
v 0.01169286 -0.04934038 -0.14594760
v 0.00134252 -0.00014138 -0.14265935
v 0.03861387 -0.02053493 -0.12566933
v 0.03753823 -0.04121888 -0.12742876
v 0.01781200 -0.04390064 -0.14382795
v 0.00653406 -0.02260379 -0.14699892
v 0.04424100 -0.02392122 -0.11571028
v 0.03264761 -0.03913318 -0.13332513
v 0.03661630 -0.02949008 -0.12866732
v 0.00468235 -0.02439807 -0.14721739
v 0.03998280 -0.04966409 -0.10152743
v 0.04463294 -0.04872420 -0.11479240
v 0.03914990 -0.04806246 -0.12508066
v 0.02260022 -0.04569820 -0.14138103
v 0.02555851 -0.04665456 -0.13945799
v 0.04517840 -0.02101608 -0.11328711
v 0.03330868 -0.02262437 -0.13261780
v 0.00663854 -0.02911768 -0.14698654
v 0.04451715 -0.04913342 -0.11506350
v 0.02783507 -0.02053782 -0.13760727
v 0.03403792 -0.04864329 -0.13180027
v 0.04816907 -0.03756368 -0.10007625
v 0.02057456 -0.04853075 -0.14249568
v 0.03976251 -0.04974118 -0.12406065
v 0.04284240 -0.02078788 -0.11849652
v 0.03753745 -0.02861261 -0.12743145
v 0.01651158 -0.04373784 -0.14435900
v 0.00001696 -0.02020590 -0.14724380
v 0.04681185 -0.02711584 -0.10812772
v 0.03887738 -0.04988341 -0.12547771
v 0.01513965 -0.00014898 -0.13971575
v 0.03471928 -0.03515641 -0.13103547
v 0.03764665 -0.02828220 -0.12727247
v 0.02030123 -0.04229722 -0.14263393
v 0.00406642 -0.04767318 -0.14727336
v 0.03130141 -0.04831848 -0.13467466
v 0.03649138 -0.02261087 -0.12883327
v 0.03638950 -0.04926140 -0.12896864
v 0.00817718 -0.04530840 -0.14672938
v 0.03185807 -0.02393753 -0.13414098
v 0.00206536 -0.04800340 -0.14739947
v 0.00004558 -0.03078235 -0.14744890
v 0.00231538 -0.02931681 -0.14739520
v 0.04600457 -0.04983631 -0.11097521
v 0.04089015 -0.02135927 -0.12215001
v 0.04167060 -0.02150361 -0.12082898
v 0.04008566 -0.00278777 -0.10152713
v 0.01728198 -0.04801291 -0.14405405
v 0.02664188 -0.02117752 -0.13865544
v 0.03469171 -0.04856127 -0.13106730
v 0.03919668 -0.04672622 -0.12501249
v 0.02266317 -0.03657357 -0.14134092
v 0.03427047 -0.02076222 -0.13146414
v 0.01851712 -0.02674445 -0.14352022
v 0.02481884 -0.04960106 -0.13997230
v 0.01086798 -0.04798896 -0.14617105
v 0.02976667 -0.04661572 -0.13611964
v 0.00439099 -0.03078515 -0.14725073
v 0.03601540 -0.02111032 -0.12941731
v 0.03179207 -0.04763163 -0.13420586
v 0.00675529 -0.02122510 -0.14696458
v 0.03951287 -0.02216720 -0.12448168
v 0.04417975 -0.04978391 -0.11583558
v 0.03997714 -0.02143618 -0.12369551
v 0.02142699 -0.04954700 -0.14204994
v 0.03926736 -0.02825229 -0.12489698
v 0.03302918 -0.02622447 -0.13293121
v 0.03539105 -0.02792869 -0.13021171
v 0.00158270 -0.02065706 -0.14732090
v 0.03471838 -0.02604464 -0.13103588
v 0.02143054 -0.02233348 -0.14204956
v 0.00017560 -0.02572695 -0.14744571
v 0.04514758 -0.04454885 -0.11349658
v 0.00002307 -0.00585689 -0.14269972
v 0.01784257 -0.04644863 -0.14381410
v 0.03475559 -0.04222725 -0.13099116
v 0.04495037 -0.04704465 -0.11401106
v 0.04630644 -0.04978846 -0.10990907
v 0.03369036 -0.02074119 -0.13208725
v 0.04766327 -0.02296123 -0.10393963
v 0.01307190 -0.02477962 -0.14557452
v 0.03923235 -0.04234089 -0.12495564
v 0.00250129 -0.02808855 -0.14738481
v 0.00285617 -0.02842896 -0.14735973
v 0.02622116 -0.02230007 -0.13898967
v 0.04557464 -0.02059107 -0.11214120
v 0.04417229 -0.03180070 -0.11585042
v 0.02617432 -0.04497399 -0.13902316
v 0.03812874 -0.03354264 -0.12656983
v 0.02658490 -0.02046665 -0.13852413
v 0.02813848 -0.02604207 -0.13749497
v 0.01882074 -0.02059145 -0.14324571
v 0.03630911 -0.02491296 -0.12907585
v 0.03903740 -0.04924157 -0.12524464
v 0.02542730 -0.02386428 -0.13955030
v 0.03583776 -0.04610336 -0.12966251
v 0.03165725 -0.02345810 -0.13433981
v 0.04206677 -0.02064240 -0.12000245
v 0.03298311 -0.02295940 -0.13297943
v 0.04743344 -0.04958366 -0.10507715
v 0.02966913 -0.04899599 -0.13620405
v 0.04567914 -0.04895384 -0.11205726
v 0.02994515 -0.02105948 -0.13591438
v 0.02385532 -0.02153153 -0.14058252
v 0.00873665 -0.02365837 -0.14663461
v 0.02300587 -0.04996768 -0.14112355
v 0.04187952 -0.03005512 -0.12047862
v 0.02441410 -0.02210665 -0.14022726
v 0.01323078 -0.04907573 -0.14552141
v 0.03293864 -0.02711386 -0.13302516
v 0.04460799 -0.02127000 -0.11477255
v 0.03392469 -0.04968178 -0.13192707
v 0.02649143 -0.02106573 -0.13874545
v 0.03704623 -0.04392019 -0.12809572
v 0.04803566 -0.02493372 -0.10148485
v 0.01294075 -0.04126872 -0.14560995
v 0.02031940 -0.02200558 -0.14262494
v 0.03747767 -0.02880350 -0.12751846
v 0.02969266 -0.03912367 -0.13618471
v 0.03071115 -0.02064706 -0.13511777
v 0.00267757 -0.02355923 -0.14737252
v 0.03742597 -0.03026810 -0.12758984
v 0.01897223 -0.02242895 -0.14330459
v 0.01191941 -0.02058717 -0.14578372
v 0.02646294 -0.04716263 -0.13880208
v 0.03316313 -0.04851193 -0.13278027
v 0.03979618 -0.02103290 -0.12399995
v 0.04432516 -0.04962463 -0.11551305
v 0.01847514 -0.02264097 -0.14353283
v 0.00008253 -0.00310373 -0.14269901
v 0.02564362 -0.04047938 -0.13939783
v 0.02859182 -0.02656440 -0.13713266
v 0.01485975 -0.04337809 -0.14499176
v 0.00839308 -0.04761305 -0.14669329
v 0.01503037 -0.02909089 -0.14492791
v 0.02247085 -0.03146782 -0.14145813
v 0.03967106 -0.02147833 -0.12421363
v 0.04806735 -0.04999594 -0.10115096
v 0.02515468 -0.04829037 -0.13974312
v 0.03482290 -0.03319955 -0.13090916
v 0.02852875 -0.04490667 -0.13718526
v 0.02264652 -0.04944433 -0.14135169
v 0.01420658 -0.02076518 -0.14516285
v 0.00024046 -0.02001395 -0.14269710
v 0.03195007 -0.02626995 -0.13404589
v 0.04765233 -0.03885632 -0.10399441
v 0.04015909 -0.00019826 -0.10152712
v 0.04014159 -0.03293228 -0.12342138
v 0.02238035 -0.02212314 -0.14150964
v 0.00642642 -0.02032904 -0.14680809
v 0.01306934 -0.02152519 -0.14557556
v 0.00233209 -0.02196382 -0.14739542
v 0.03172634 -0.04730239 -0.13427361
v 0.02497785 -0.04328498 -0.13986790
v 0.01514873 -0.02156261 -0.14487611
v 0.03784594 -0.02590860 -0.12698235
v 0.00489768 -0.02230955 -0.14719200
v 0.01486879 -0.02070790 -0.14491322
v 0.00004244 -0.04874122 -0.14744897
v 0.03495234 -0.03125177 -0.13075040
v 0.04473051 -0.04664403 -0.11456395
v 0.01456554 -0.02150843 -0.14509257
v 0.02453390 -0.04960622 -0.14015340
v 0.04553052 -0.03068015 -0.11245534
v 0.00681638 -0.04814648 -0.14695754
v 0.01411792 -0.02114658 -0.14522713
v 0.04097213 -0.04392835 -0.12201933
v 0.02730603 -0.00015785 -0.13188190
v 0.01087790 -0.04838837 -0.14616838
v 0.00439809 -0.04235338 -0.14724995
v 0.02245135 -0.02116553 -0.14145489
v 0.02698889 -0.04979323 -0.13839190
v 0.04440320 -0.02150734 -0.11529652
v 0.01480561 -0.03196684 -0.14501354
v 0.00465494 -0.02484152 -0.14722062
v 0.00495345 -0.02076426 -0.14713367
v 0.02174151 -0.03478899 -0.14187267
v 0.02983148 -0.03258999 -0.13605986
v 0.00386237 -0.04476995 -0.14728791
v 0.03681980 -0.03720447 -0.12839681
v 0.04504222 -0.04690804 -0.11377592
v 0.02127385 -0.04470802 -0.14213710
v 0.03615056 -0.02153209 -0.12927860
v 0.03178825 -0.02261480 -0.13421309
v 0.01067155 -0.04556070 -0.14621740
v 0.04310265 -0.02144453 -0.11801244
v 0.04436867 -0.02811905 -0.11541130
v 0.03904358 -0.02060480 -0.12506172
v 0.00983643 -0.02139388 -0.14639835
v 0.04034057 -0.03457246 -0.12308539
v 0.01053016 -0.04688116 -0.14624802
v 0.03736937 -0.04693289 -0.12766583
v 0.04240884 -0.04947712 -0.11942444
v 0.02099046 -0.04924419 -0.14228615
v 0.02149711 -0.02562282 -0.14201169
v 0.04383263 -0.02133142 -0.11653686
v 0.02158512 -0.04983775 -0.14196027
v 0.03392429 -0.04013295 -0.13192790
v 0.04579422 -0.04717167 -0.11171723
v 0.02009315 -0.03938426 -0.14273894
v 0.01480268 -0.02805229 -0.14501504
v 0.04817509 -0.02196311 -0.10001055
v 0.03328594 -0.02432678 -0.13264343
v 0.02113660 -0.02741426 -0.14221262
v 0.00440426 -0.03368285 -0.14724972
v 0.02161950 -0.02096989 -0.14192039
v 0.03384754 -0.02206895 -0.13201298
v 0.03434752 -0.04572394 -0.13145342
v 0.02056480 -0.04893154 -0.14250054
v 0.01508991 -0.04907924 -0.14490324
v 0.04683593 -0.04547088 -0.10803469
v 0.01876986 -0.02518578 -0.14340628
v 0.03239385 -0.02248799 -0.13358786
v 0.02688584 -0.02355887 -0.13847161
v 0.04481354 -0.04497888 -0.11435141
v 0.03474088 -0.03464377 -0.13100974
v 0.01107851 -0.02299631 -0.14611307
v 0.00358735 -0.04957614 -0.14730710
v 0.03033744 -0.00082857 -0.12870880
v 0.01277136 -0.04871175 -0.14565543
v 0.04762461 -0.04907042 -0.10413118
v 0.01551826 -0.03047539 -0.14474034
v 0.04803437 -0.01069623 -0.10149826
v 0.04192652 -0.02548564 -0.12039165
f 302 433 348
f 476 285 39
f 179 39 285
f 476 421 321
f 285 348 188
f 188 418 285
f 188 348 433
f 433 418 188
f 39 179 412
f 47 421 476
f 47 76 421
f 61 348 285
f 61 321 348
f 61 285 476
f 476 321 61
f 450 276 44
f 121 223 179
f 121 418 433
f 285 418 121
f 318 412 35
f 421 76 267
f 76 26 267
f 267 276 421
f 476 39 296
f 155 321 421
f 421 276 155
f 155 276 302
f 426 121 433
f 13 304 368
f 316 433 302
f 302 346 316
f 316 426 433
f 346 426 316
f 177 366 23
f 44 276 268
f 268 276 150
f 150 128 268
f 305 366 177
f 305 130 366
f 305 417 128
f 150 130 305
f 305 128 150
f 52 102 149
f 64 179 285
f 285 121 64
f 64 121 179
f 166 412 352
f 412 318 352
f 352 318 123
f 234 26 51
f 234 267 26
f 276 267 234
f 51 26 109
f 109 204 51
f 495 412 166
f 39 412 497
f 348 321 404
f 321 155 404
f 302 348 404
f 404 155 302
f 424 450 44
f 44 335 424
f 424 335 450
f 276 450 143
f 175 346 302
f 175 426 346
f 439 145 170
f 226 457 45
f 35 304 298
f 304 13 298
f 486 23 397
f 146 335 44
f 44 268 146
f 146 268 49
f 49 268 398
f 398 146 49
f 398 268 128
f 128 417 398
f 432 305 177
f 417 305 432
f 275 145 173
f 183 36 100
f 100 255 183
f 183 255 167
f 102 52 312
f 312 52 254
f 311 457 183
f 183 167 311
f 223 129 492
f 492 145 223
f 170 145 492
f 123 318 303
f 376 318 90
f 215 234 51
f 215 204 150
f 51 204 215
f 150 276 215
f 276 234 215
f 26 204 213
f 213 109 26
f 204 109 213
f 96 277 183
f 204 277 96
f 228 497 354
f 228 296 39
f 39 497 228
f 450 335 201
f 343 175 302
f 426 175 343
f 302 276 343
f 276 143 343
f 343 143 450
f 62 400 265
f 222 446 139
f 222 304 35
f 102 304 222
f 35 412 222
f 60 66 173
f 471 145 85
f 471 114 145
f 198 480 445
f 174 480 150
f 244 445 174
f 174 445 480
f 27 130 150
f 150 480 27
f 181 446 329
f 45 457 206
f 206 344 45
f 487 56 106
f 82 394 56
f 56 487 82
f 82 487 458
f 204 226 493
f 106 56 481
f 481 226 45
f 287 13 368
f 287 325 13
f 182 325 36
f 36 340 182
f 90 318 261
f 261 318 35
f 35 467 261
f 261 467 337
f 486 232 328
f 335 146 463
f 463 146 66
f 463 257 335
f 463 60 180
f 66 60 463
f 66 146 235
f 146 398 235
f 235 425 66
f 235 398 417
f 417 425 235
f 417 432 70
f 70 432 177
f 177 23 70
f 440 425 417
f 417 70 440
f 154 304 102
f 102 388 154
f 368 304 169
f 304 363 169
f 196 154 388
f 254 89 195
f 195 312 254
f 315 14 129
f 357 14 219
f 219 395 357
f 121 426 219
f 123 303 48
f 48 495 166
f 318 376 473
f 473 303 318
f 183 457 333
f 457 226 333
f 237 226 204
f 204 96 237
f 237 333 226
f 237 96 183
f 183 333 237
f 212 204 26
f 462 277 204
f 462 71 277
f 73 36 183
f 183 277 73
f 277 71 73
f 123 22 374
f 166 352 374
f 374 352 123
f 495 48 1
f 54 497 412
f 54 1 420
f 412 495 54
f 495 1 54
f 30 228 26
f 296 228 30
f 30 26 76
f 476 296 30
f 30 47 476
f 76 47 30
f 180 60 379
f 379 463 180
f 257 463 379
f 450 201 10
f 10 343 450
f 426 343 10
f 10 219 426
f 395 219 10
f 335 292 280
f 280 292 34
f 12 240 331
f 252 60 173
f 252 379 60
f 207 471 85
f 468 471 207
f 198 445 423
f 294 274 160
f 274 394 160
f 366 130 2
f 130 27 2
f 2 23 366
f 2 27 23
f 397 23 391
f 23 27 391
f 244 174 387
f 174 364 387
f 135 406 208
f 365 406 135
f 43 240 12
f 7 240 43
f 446 181 399
f 263 365 399
f 365 135 399
f 208 446 399
f 399 135 208
f 139 446 55
f 55 187 139
f 446 187 55
f 83 446 208
f 83 187 446
f 139 187 83
f 386 132 92
f 265 400 386
f 386 92 265
f 222 132 386
f 149 102 386
f 102 222 386
f 240 82 233
f 233 82 458
f 458 371 233
f 394 82 377
f 7 160 377
f 377 240 7
f 377 82 240
f 458 487 314
f 265 92 334
f 92 427 334
f 458 427 63
f 327 493 226
f 327 481 56
f 226 481 327
f 56 394 442
f 493 327 442
f 442 394 274
f 204 493 442
f 13 325 356
f 325 182 356
f 5 467 35
f 467 5 17
f 336 340 36
f 36 411 336
f 65 486 85
f 65 232 486
f 189 275 173
f 189 443 275
f 173 459 189
f 429 6 164
f 85 145 131
f 145 275 131
f 396 167 392
f 392 167 255
f 392 466 396
f 81 154 466
f 304 154 81
f 254 52 191
f 191 370 254
f 154 196 454
f 367 195 89
f 367 89 457
f 457 311 367
f 311 196 367
f 170 492 98
f 79 231 98
f 190 129 223
f 223 315 190
f 190 315 129
f 317 219 14
f 223 121 317
f 121 219 317
f 123 48 485
f 485 48 166
f 166 374 485
f 26 228 31
f 467 17 176
f 420 1 3
f 354 497 389
f 389 420 354
f 228 4 78
f 41 439 170
f 41 137 439
f 335 257 21
f 439 137 28
f 28 292 439
f 34 292 28
f 72 201 335
f 335 280 72
f 165 270 62
f 165 62 265
f 165 210 282
f 419 210 165
f 165 314 419
f 458 314 165
f 148 222 139
f 139 12 393
f 12 331 393
f 173 145 119
f 119 252 173
f 483 297 468
f 468 207 483
f 345 480 198
f 345 478 24
f 168 478 345
f 24 391 345
f 345 27 480
f 345 391 27
f 168 345 115
f 114 416 380
f 380 437 329
f 329 446 380
f 446 222 380
f 145 114 380
f 223 145 380
f 179 223 380
f 380 412 179
f 380 222 412
f 410 423 186
f 378 445 244
f 159 160 7
f 294 160 159
f 159 364 294
f 159 387 364
f 323 359 29
f 323 29 244
f 244 387 323
f 323 159 7
f 387 159 323
f 93 406 7
f 7 43 93
f 93 43 406
f 208 406 162
f 162 43 12
f 406 43 162
f 74 370 57
f 57 269 74
f 254 370 74
f 149 386 141
f 141 386 324
f 104 350 324
f 264 160 394
f 394 377 264
f 264 377 160
f 238 427 92
f 238 63 427
f 95 371 458
f 458 63 95
f 353 327 56
f 56 442 353
f 353 442 327
f 94 274 294
f 94 442 274
f 294 364 94
f 94 364 174
f 150 204 94
f 204 442 94
f 94 174 150
f 271 336 32
f 340 336 271
f 468 308 474
f 468 297 249
f 249 308 468
f 85 227 216
f 216 65 85
f 328 243 58
f 486 328 58
f 68 243 328
f 99 459 173
f 443 189 205
f 205 189 459
f 66 491 126
f 390 494 275
f 275 443 390
f 425 440 436
f 429 164 436
f 436 70 429
f 436 440 70
f 275 494 262
f 262 131 275
f 494 131 262
f 278 245 466
f 466 392 278
f 466 245 221
f 221 81 466
f 283 196 311
f 283 454 196
f 152 98 492
f 79 98 152
f 192 124 449
f 453 152 84
f 156 315 223
f 223 317 156
f 14 315 156
f 156 317 14
f 69 374 22
f 69 485 374
f 69 22 123
f 123 485 69
f 281 261 337
f 171 176 17
f 171 17 5
f 133 73 71
f 133 212 26
f 204 212 133
f 133 462 204
f 71 462 133
f 497 54 218
f 218 389 497
f 218 54 420
f 420 389 218
f 209 228 354
f 209 4 228
f 38 41 449
f 273 292 335
f 335 21 273
f 431 124 10
f 431 10 201
f 201 72 431
f 270 165 384
f 92 157 158
f 92 132 310
f 310 157 92
f 331 148 375
f 375 148 139
f 139 393 375
f 375 393 331
f 339 471 468
f 468 108 339
f 86 478 168
f 230 416 114
f 186 423 250
f 250 423 445
f 445 378 250
f 244 251 382
f 382 378 244
f 117 251 244
f 413 181 329
f 359 323 246
f 246 323 7
f 138 246 184
f 184 365 263
f 359 138 241
f 138 184 241
f 139 83 415
f 415 12 139
f 415 162 12
f 415 83 208
f 208 162 415
f 342 269 57
f 324 350 37
f 37 141 324
f 434 414 344
f 206 214 434
f 344 206 434
f 214 342 434
f 434 342 57
f 344 414 490
f 350 104 490
f 32 193 422
f 422 271 32
f 464 193 32
f 464 136 193
f 441 136 35
f 193 136 441
f 88 5 35
f 35 136 88
f 172 474 308
f 397 474 172
f 172 486 397
f 243 322 247
f 247 58 243
f 247 70 23
f 429 70 247
f 247 6 429
f 23 486 403
f 486 58 403
f 403 247 23
f 58 247 403
f 173 66 266
f 266 99 173
f 465 205 459
f 425 390 217
f 217 390 443
f 355 390 425
f 425 436 355
f 494 390 101
f 390 355 101
f 101 355 436
f 194 126 491
f 66 126 194
f 194 266 66
f 66 425 259
f 425 42 259
f 259 491 66
f 259 194 491
f 475 164 6
f 6 409 475
f 430 307 255
f 363 307 430
f 300 392 255
f 255 307 300
f 144 363 304
f 144 307 363
f 479 192 231
f 358 453 84
f 358 84 357
f 357 395 358
f 79 152 309
f 152 453 309
f 473 31 203
f 203 46 473
f 203 31 228
f 228 46 203
f 142 46 228
f 142 48 303
f 228 78 142
f 142 3 1
f 142 1 48
f 142 78 80
f 420 3 142
f 354 420 142
f 142 80 354
f 103 473 376
f 103 113 473
f 59 31 473
f 473 113 59
f 59 113 31
f 31 113 20
f 20 290 31
f 26 31 360
f 360 290 26
f 31 290 360
f 293 286 90
f 211 97 161
f 176 171 470
f 447 176 470
f 110 97 211
f 176 281 361
f 467 176 361
f 26 470 299
f 299 470 460
f 299 161 97
f 460 161 299
f 354 80 50
f 50 209 354
f 4 209 50
f 50 78 4
f 80 78 50
f 137 41 140
f 41 38 140
f 147 273 91
f 91 313 147
f 449 124 284
f 124 431 284
f 284 38 449
f 185 384 165
f 153 341 373
f 373 341 270
f 270 384 373
f 153 373 291
f 291 373 106
f 106 481 291
f 253 158 157
f 240 158 253
f 408 119 145
f 408 313 91
f 456 86 168
f 468 86 456
f 456 108 468
f 469 115 345
f 469 77 115
f 77 230 33
f 125 122 11
f 112 25 11
f 11 122 112
f 186 25 112
f 329 428 18
f 18 413 329
f 488 138 359
f 359 246 488
f 488 246 138
f 365 184 242
f 242 184 246
f 242 406 365
f 7 406 242
f 242 246 7
f 362 241 184
f 362 184 263
f 263 399 362
f 362 399 181
f 344 490 306
f 306 490 104
f 279 349 322
f 279 322 243
f 243 68 279
f 322 349 225
f 225 227 85
f 85 131 225
f 178 217 443
f 443 42 178
f 425 217 178
f 178 42 425
f 383 101 436
f 383 436 164
f 383 131 494
f 494 101 383
f 164 475 383
f 383 475 131
f 266 194 330
f 99 266 330
f 194 259 330
f 459 99 330
f 330 42 443
f 330 259 42
f 330 465 459
f 443 205 330
f 205 465 330
f 131 475 75
f 124 192 332
f 192 479 332
f 444 231 79
f 444 479 231
f 116 142 303
f 46 142 116
f 303 473 116
f 473 46 116
f 290 20 385
f 26 290 385
f 385 470 26
f 447 470 385
f 53 20 113
f 90 261 402
f 402 293 90
f 9 171 5
f 498 110 211
f 171 110 498
f 211 161 498
f 498 161 460
f 460 470 498
f 498 470 171
f 15 281 337
f 15 361 281
f 337 467 15
f 467 361 15
f 372 133 26
f 26 299 372
f 372 320 133
f 97 320 372
f 372 299 97
f 133 320 401
f 401 411 36
f 36 73 401
f 73 133 401
f 292 273 272
f 273 147 272
f 256 165 282
f 256 185 165
f 477 40 153
f 153 291 477
f 153 40 472
f 40 260 472
f 482 260 40
f 324 386 295
f 295 260 324
f 452 331 240
f 240 253 452
f 105 408 145
f 313 408 105
f 115 77 451
f 77 33 451
f 197 230 114
f 197 33 230
f 200 125 11
f 200 11 329
f 329 437 200
f 326 410 186
f 186 112 326
f 117 163 127
f 251 117 127
f 369 16 117
f 244 29 369
f 369 117 244
f 19 151 117
f 117 16 19
f 181 151 19
f 87 247 322
f 87 301 247
f 87 322 134
f 134 301 87
f 247 301 202
f 438 347 113
f 438 199 347
f 347 199 455
f 113 347 239
f 239 53 113
f 224 461 118
f 118 8 224
f 224 8 435
f 118 461 67
f 67 461 281
f 67 176 447
f 67 281 176
f 381 110 171
f 171 9 381
f 319 401 320
f 324 260 220
f 260 482 220
f 288 230 410
f 410 326 288
f 416 230 288
f 258 127 163
f 258 163 428
f 258 428 329
f 181 413 120
f 120 289 181
f 405 151 181
f 181 289 405
f 496 409 6
f 496 202 409
f 6 247 496
f 247 202 496
f 111 301 134
f 111 202 301
f 407 484 75
f 225 484 248
f 134 322 248
f 322 225 248
f 75 484 229
f 131 75 229
f 229 225 131
f 229 484 225
f 351 286 435
f 236 455 199
f 236 351 455
f 90 286 236
f 286 351 236
f 411 401 338
f 401 319 338
f 409 202 107
f 202 111 107
f 448 75 475
f 448 407 75
f 435 8 489
f 489 351 435
f 102 312 367
f 367 388 102
f 367 196 388
f 312 195 367
f 165 427 458
f 265 334 165
f 165 334 427
f 283 167 396
f 396 466 283
f 283 311 167
f 466 154 283
f 154 454 283
f 129 14 152
f 152 492 129
f 152 14 357
f 357 84 152
f 449 41 192
f 170 98 192
f 192 98 231
f 192 41 170
f 371 95 158
f 240 233 158
f 158 233 371
f 158 238 92
f 63 238 158
f 158 95 63
f 86 474 397
f 397 391 86
f 468 474 86
f 86 391 24
f 24 478 86
f 457 89 342
f 342 89 254
f 342 214 206
f 342 206 457
f 254 74 342
f 342 74 269
f 490 191 52
f 490 52 149
f 57 370 490
f 149 141 490
f 370 191 490
f 490 37 350
f 490 434 57
f 141 37 490
f 414 434 490
f 35 298 441
f 13 356 441
f 441 298 13
f 441 182 340
f 441 356 182
f 441 422 193
f 340 271 441
f 271 422 441
f 172 207 85
f 85 486 172
f 172 249 297
f 297 483 172
f 172 483 207
f 308 249 172
f 430 287 368
f 430 100 36
f 36 325 430
f 368 169 430
f 255 100 430
f 325 287 430
f 430 169 363
f 392 300 144
f 304 81 144
f 245 278 144
f 144 221 245
f 144 278 392
f 81 221 144
f 144 300 307
f 137 140 284
f 284 280 34
f 34 28 284
f 284 28 137
f 284 72 280
f 284 140 38
f 284 431 72
f 257 379 408
f 379 252 408
f 408 21 257
f 91 273 408
f 252 119 408
f 408 273 21
f 469 230 77
f 198 423 469
f 469 345 198
f 410 230 469
f 423 410 469
f 225 216 227
f 225 279 68
f 225 328 232
f 232 65 225
f 65 216 225
f 225 68 328
f 349 279 225
f 10 124 444
f 444 358 395
f 395 10 444
f 124 332 444
f 79 309 444
f 453 358 444
f 444 309 453
f 444 332 479
f 256 487 106
f 256 314 487
f 256 210 419
f 282 210 256
f 419 314 256
f 106 373 256
f 384 185 256
f 256 373 384
f 62 270 295
f 400 62 295
f 295 386 400
f 270 341 295
f 295 341 153
f 153 472 295
f 295 472 260
f 157 310 452
f 222 148 452
f 452 148 331
f 452 132 222
f 452 253 157
f 452 310 132
f 439 292 105
f 145 439 105
f 292 272 105
f 105 147 313
f 105 272 147
f 197 456 168
f 114 471 197
f 471 339 197
f 168 115 197
f 197 339 108
f 108 456 197
f 115 451 197
f 197 451 33
f 19 362 181
f 29 359 19
f 19 369 29
f 359 241 19
f 241 362 19
f 16 369 19
f 435 286 224
f 261 281 224
f 224 402 261
f 286 293 224
f 293 402 224
f 281 461 224
f 45 344 220
f 220 481 45
f 220 291 481
f 220 104 324
f 40 477 220
f 344 306 220
f 220 306 104
f 220 477 291
f 220 482 40
f 437 380 288
f 288 380 416
f 288 200 437
f 122 125 288
f 288 112 122
f 125 200 288
f 288 326 112
f 329 11 258
f 251 127 258
f 258 382 251
f 258 25 186
f 186 250 258
f 11 25 258
f 258 250 378
f 378 382 258
f 428 163 405
f 117 151 405
f 405 163 117
f 405 18 428
f 413 18 405
f 405 120 413
f 289 120 405
f 236 103 376
f 236 376 90
f 113 103 236
f 236 438 113
f 199 438 236
f 5 88 338
f 338 9 5
f 338 336 411
f 110 381 338
f 32 336 338
f 338 464 32
f 136 464 338
f 338 88 136
f 97 110 338
f 338 320 97
f 338 381 9
f 338 319 320
f 134 248 448
f 448 111 134
f 409 107 448
f 448 475 409
f 484 407 448
f 448 248 484
f 448 107 111
f 447 385 489
f 489 239 347
f 347 455 489
f 489 385 20
f 20 53 489
f 489 8 118
f 489 67 447
f 53 239 489
f 118 67 489
f 455 351 489

