# https://github.com/mikedh/trimesh
v -0.01642480 -0.02415713 -0.14731485
v -0.03987890 -0.02349809 -0.13434309
v -0.01683248 -0.02238655 -0.14764298
v -0.03052272 -0.02160364 -0.14178122
v -0.03949364 -0.02334807 -0.13472137
v -0.02518463 -0.01575631 -0.14592644
v -0.01809026 -0.02170895 -0.14737758
v -0.00845583 -0.02157970 -0.14964174
v -0.04901219 -0.01575904 -0.12740955
v -0.04471288 -0.02252629 -0.13000150
v -0.04762271 -0.01490299 -0.12926639
v -0.03884185 -0.01625564 -0.13749562
v -0.04574316 -0.02518899 -0.12740707
v -0.01106057 -0.02144934 -0.14921070
v -0.03760525 -0.02079516 -0.13725621
v -0.03586821 -0.03114803 -0.13383603
v -0.03310825 -0.00387151 -0.14291767
v -0.04925968 -0.00423284 -0.12835550
v -0.02531678 -0.01140950 -0.14645581
v -0.04660993 -0.04061100 -0.11113353
v -0.02747953 -0.00974253 -0.14563887
v -0.03401532 -0.01535333 -0.14119250
v -0.02602191 -0.02945255 -0.14080556
v -0.04459198 -0.01464730 -0.13260506
v -0.04574892 -0.01722974 -0.13081912
v -0.01821163 -0.00203611 -0.14958698
v -0.04245491 -0.02086190 -0.13302319
v -0.04409511 -0.02198843 -0.13093234
v -0.04786075 -0.01708564 -0.12848660
v -0.03291312 -0.02289937 -0.13989902
v -0.03861658 -0.02123049 -0.13627349
v -0.04987995 -0.04316492 -0.10101391
v -0.04591698 -0.00799633 -0.13202689
v -0.03970244 -0.03487865 -0.12638487
v -0.03236966 -0.01855038 -0.14150415
v -0.03115558 -0.00199649 -0.14414972
v -0.01813224 -0.00766595 -0.14938871
v -0.04584050 -0.02193679 -0.12904995
v -0.04309959 -0.01379154 -0.13422239
v -0.03404849 -0.00232071 -0.14237834
v -0.02153319 -0.01098788 -0.14800225
v -0.02500776 -0.00363533 -0.14715336
v -0.03393442 -0.00724662 -0.14222706
v -0.02298012 -0.00726974 -0.14780437
v -0.01431581 -0.02719947 -0.14667857
v -0.04721829 -0.01577821 -0.12956904
v -0.02561698 -0.00060449 -0.14696068
v -0.03737421 -0.01739910 -0.13839678
v -0.04880647 -0.04062571 -0.10785625
v -0.03419756 -0.01433114 -0.14122835
v -0.04158631 -0.01859262 -0.13457544
v -0.04961822 -0.01268921 -0.12716832
v -0.04985553 -0.03966981 -0.10076665
v -0.01837252 -0.01308040 -0.14881387
v -0.03648482 -0.02143230 -0.13788770
v -0.01585956 -0.02537085 -0.14716939
v -0.01832752 -0.00193906 -0.14955715
v -0.03817354 -0.00294143 -0.13939835
v -0.04878975 -0.00633810 -0.12884115
v -0.02521140 -0.01934643 -0.14517688
v -0.04279055 -0.01535118 -0.13426683
v -0.02129405 -0.01786196 -0.14710415
v -0.02921823 -0.02556176 -0.14121065
v -0.03098147 -0.01846472 -0.14236497
v -0.03923113 -0.02354986 -0.13485773
v -0.02557786 -0.02112882 -0.14457084
v -0.00595549 -0.02475864 -0.14928569
v -0.03983684 -0.02677485 -0.13273969
v -0.03471508 -0.01177399 -0.14125748
v -0.04028056 -0.02372379 -0.13387878
v -0.04075487 -0.03525420 -0.12537601
v -0.04095331 -0.03310732 -0.12762690
v -0.03122890 -0.02775427 -0.13905346
v -0.04364362 -0.01711573 -0.13303804
v -0.01192932 -0.01820058 -0.14965221
v -0.00997208 -0.02426084 -0.14884010
v -0.03585791 -0.01765288 -0.13941441
v -0.04782650 -0.01709730 -0.12852466
v -0.03872662 -0.00099585 -0.13899835
v -0.03688263 -0.01715825 -0.13880207
v -0.02702182 -0.01316689 -0.14547090
v -0.04837492 -0.04061081 -0.10909960
v -0.01741521 -0.01131831 -0.14928162
v -0.01678411 -0.02488779 -0.14700986
v -0.02845960 -0.01844250 -0.14376652
v -0.03539692 -0.01905313 -0.13936518
v -0.04959668 -0.02965894 -0.11794404
v -0.03097337 -0.00776310 -0.14399632
v -0.00834749 -0.02653739 -0.14826504
v -0.04442870 -0.03642676 -0.12069405
v -0.01129538 -0.02681869 -0.14760820
v -0.02252663 -0.02816764 -0.14361657
v -0.04307035 -0.01605901 -0.13384319
v -0.02238761 -0.00099581 -0.14826663
v -0.03313485 -0.02259123 -0.13985474
v -0.03714961 -0.03245462 -0.13184596
v -0.04191412 -0.02026180 -0.13372983
v -0.02858051 -0.02633197 -0.14130783
v -0.04188891 -0.02502376 -0.13169275
v -0.03823274 -0.02636438 -0.13437834
v -0.01144412 -0.02448305 -0.14849996
v -0.04297501 -0.01282666 -0.13448717
v -0.03150252 -0.03148931 -0.13540245
v -0.04655421 -0.00873649 -0.13126152
v -0.01445674 -0.02322130 -0.14806193
v -0.04296179 -0.02651023 -0.12976185
v -0.03718430 -0.03243292 -0.13184084
v -0.04869733 -0.04198046 -0.10629949
v -0.02365012 -0.02608119 -0.14397244
v -0.02639002 -0.00658183 -0.14639892
v -0.03683025 -0.02434215 -0.13649283
v -0.04815317 -0.04411493 -0.10047959
v -0.03663914 -0.00976975 -0.14011602
v -0.02205029 -0.01552962 -0.14726124
v -0.01705489 -0.00687662 -0.14973033
v -0.02566594 -0.01782314 -0.14530777
v -0.03661475 -0.02326310 -0.13712769
v -0.04846743 -0.00051223 -0.12938540
v -0.02322167 -0.01249815 -0.14722903
v -0.02551166 -0.01926300 -0.14506665
v -0.00046670 -0.02252814 -0.14998397
v -0.04839489 -0.02556310 -0.12359431
v -0.03885613 -0.02453924 -0.13473493
v -0.04245399 -0.01939287 -0.13350235
v -0.02284088 -0.02199220 -0.14553494
v -0.04991914 -0.02432675 -0.12215836
v -0.02357918 -0.00423750 -0.14774776
v -0.02534549 -0.00797285 -0.14677123
v -0.02197652 -0.02183907 -0.14594579
v -0.02459994 -0.00166326 -0.14738195
v -0.04883499 -0.02630588 -0.12233104
v -0.04963408 -0.01701420 -0.12626438
v -0.02716140 -0.00529002 -0.14613337
v -0.02962548 -0.01575550 -0.14373689
v -0.04103789 -0.01438013 -0.13601263
v -0.03157983 -0.03168613 -0.13487880
v -0.03193849 -0.02051043 -0.14126405
v -0.02524351 -0.02371421 -0.14398150
v -0.03722996 -0.01230396 -0.13942086
v -0.02328927 -0.00028494 -0.14793981
v -0.00030029 -0.02508938 -0.14922937
v -0.04007180 -0.00011527 -0.13790129
v -0.02880211 -0.01382360 -0.14446836
v -0.03471389 -0.00184269 -0.14194206
v -0.03322364 -0.01234757 -0.14214471
v -0.04808134 -0.02744879 -0.12257854
v -0.01407086 -0.01536745 -0.14966303
v -0.04498588 -0.03642628 -0.11985404
v -0.04478846 -0.01676684 -0.13196823
v -0.03203069 -0.01688918 -0.14210055
v -0.03975053 -0.03430793 -0.12766475
v -0.02395082 -0.00574647 -0.14750493
v -0.04129925 -0.02519170 -0.13217210
v -0.00781592 -0.02637467 -0.14849533
v -0.04083758 -0.01563378 -0.13597682
v -0.02797776 -0.01807912 -0.14409563
v -0.04594223 -0.02178737 -0.12901038
v -0.04161320 -0.01153680 -0.13590112
v -0.04053096 -0.01082420 -0.13695247
v -0.01054130 -0.01816461 -0.14990051
v -0.04895589 -0.04474685 -0.10004452
v -0.04231029 -0.01158746 -0.13526550
v -0.04270733 -0.03330203 -0.12544300
v -0.03838288 -0.02938674 -0.13264203
v -0.01705333 -0.01917634 -0.14826772
v -0.04230337 -0.02136056 -0.13298014
v -0.02653491 -0.01719909 -0.14503097
v -0.03100342 -0.00472267 -0.14415206
v -0.02305918 -0.00369745 -0.14795851
v -0.04672775 -0.00559413 -0.13126258
v -0.03870909 -0.02402904 -0.13508952
v -0.04295375 -0.01479286 -0.13420226
v -0.03505101 -0.00704164 -0.14147113
v -0.02978052 -0.02518837 -0.14100308
v -0.03741925 -0.01062495 -0.13947307
v -0.04564355 -0.01794764 -0.13074573
v -0.01116369 -0.02664404 -0.14781816
v -0.00040726 -0.02509421 -0.14946878
v -0.04417481 -0.03676064 -0.12062465
v -0.04100896 -0.03492219 -0.12591942
v -0.02115510 -0.02481448 -0.14545584
v -0.04826386 -0.04010118 -0.10993274
v -0.03324273 -0.00878378 -0.14251606
v -0.00532240 -0.02181430 -0.14989751
v -0.01871597 -0.02104322 -0.14731790
v -0.04752181 -0.02726684 -0.12356838
v -0.04385953 -0.01353671 -0.13351828
v -0.03594062 -0.03291137 -0.13161895
v -0.01891347 -0.02385440 -0.14654822
v -0.04675927 -0.03926074 -0.11399359
v -0.04361337 -0.00786153 -0.13441638
v -0.04045582 -0.00534751 -0.13744769
v -0.04691785 -0.02125952 -0.12816080
v -0.01437626 -0.02559095 -0.14749877
v -0.04753016 -0.00061049 -0.13047488
v -0.03934598 -0.01988985 -0.13610184
v -0.04751192 -0.00784454 -0.13024115
v -0.02579444 -0.00552031 -0.14671563
v -0.02742181 -0.01642075 -0.14474633
v -0.01232358 -0.02178274 -0.14892327
v -0.04654875 -0.00773224 -0.13136429
v -0.04802292 -0.02587216 -0.12390219
v -0.03716809 -0.01199228 -0.13951554
v -0.02770779 -0.01680241 -0.14451794
v -0.04970939 -0.01281993 -0.12702953
v -0.03253642 -0.03019369 -0.13700085
v -0.03462673 -0.02028947 -0.13956958
v -0.02238223 -0.01845878 -0.14656607
v -0.04634821 -0.02644681 -0.12575452
v -0.04637402 -0.02320172 -0.12780233
v -0.04124277 -0.02691496 -0.13129573
v -0.02304118 -0.02881431 -0.14251949
v -0.03559125 -0.03052318 -0.13442118
v -0.01541643 -0.02740240 -0.14620923
v -0.01751084 -0.01030308 -0.14934334
v -0.03547665 -0.02840382 -0.13564312
v -0.03154365 -0.02344782 -0.14056070
v -0.04611559 -0.00233327 -0.13206646
v -0.03908339 -0.00081410 -0.13870793
v -0.04067568 -0.03248787 -0.12837753
v -0.03680791 -0.02100416 -0.13781080
v -0.04973217 -0.03989142 -0.10595963
v -0.03883838 -0.00787418 -0.13861473
v -0.01979783 -0.00785239 -0.14890369
v -0.04977806 -0.01956735 -0.12521216
v -0.04686438 -0.02105474 -0.12831792
v -0.03316003 -0.02545920 -0.13871920
v -0.02690371 -0.01588169 -0.14511379
v -0.04999421 -0.00103083 -0.12588475
v -0.01114964 -0.02368258 -0.14873816
v -0.03646535 -0.01084756 -0.14013070
v -0.01701635 -0.02775000 -0.14535116
v -0.02713426 -0.01468202 -0.14519319
v -0.04997709 -0.03423716 -0.11197596
v -0.03456074 -0.01559410 -0.14077834
v -0.04092164 -0.03156474 -0.12872162
v -0.04708834 -0.04134649 -0.10917671
v -0.03180629 -0.02916328 -0.13802054
v -0.01219692 -0.02624450 -0.14787869
v -0.02730578 -0.01320536 -0.14532423
v -0.01646111 -0.02544812 -0.14696901
v -0.04985258 -0.02087452 -0.12452895
v -0.04109449 -0.00003951 -0.13558129
v -0.04498914 -0.01417553 -0.13227083
v -0.01702053 -0.02738976 -0.14593886
v -0.02202685 -0.00028508 -0.14841298
v -0.03699964 -0.01376861 -0.13935995
v -0.03637014 -0.00429386 -0.14069554
v -0.03426171 -0.02970518 -0.13594269
v -0.04643459 -0.00994125 -0.13128291
v -0.03461755 -0.03021480 -0.13540234
v -0.00030019 -0.01585627 -0.14974781
v -0.01976124 -0.00723807 -0.14895012
v -0.04338227 -0.01268077 -0.13412624
v -0.03588503 -0.00105276 -0.14114289
v -0.01962293 -0.00248418 -0.14918787
v -0.01927672 -0.02790619 -0.14480402
v -0.04592877 -0.00057111 -0.13228852
v -0.03863545 -0.03292103 -0.13019492
v -0.01964296 -0.00710404 -0.14899295
v -0.04060890 -0.00843558 -0.13712282
v -0.02783961 -0.02598514 -0.14184927
v -0.04577782 -0.03673731 -0.11831857
v -0.03472935 -0.00260411 -0.14191587
v -0.04617779 -0.00366103 -0.13197253
v -0.03615798 -0.01334187 -0.14001405
v -0.04830176 -0.04351698 -0.10339225
v -0.03409598 -0.00525395 -0.14223895
v -0.03287031 -0.00746249 -0.14286121
v -0.04827294 -0.04363030 -0.10310045
v -0.02261699 -0.01179705 -0.14753837
v -0.04400875 -0.03605280 -0.12158862
v -0.04883699 -0.00550508 -0.12882597
v -0.00322606 -0.02576335 -0.14924375
v -0.04857495 -0.04360416 -0.10306771
v -0.01175697 -0.02488065 -0.14834021
v -0.04231761 -0.03448575 -0.12506768
v -0.04991260 -0.04180684 -0.10273367
v -0.03036973 -0.00908432 -0.14420490
v -0.04310884 -0.02110409 -0.13232644
v -0.04556766 -0.02700390 -0.12640843
v -0.04363607 -0.03473760 -0.12315276
v -0.04115101 -0.01619011 -0.13558201
v -0.02406240 -0.00859709 -0.14727025
v -0.04875323 -0.04362701 -0.10287330
v -0.03669006 -0.00071541 -0.14056723
v -0.01974518 -0.01970722 -0.14726808
v -0.04954526 -0.01025084 -0.12756745
v -0.03622457 -0.01879460 -0.13885113
v -0.01029670 -0.02685577 -0.14764408
v -0.03849588 -0.01527888 -0.13797397
v -0.04262531 -0.02603148 -0.13041745
v -0.03005204 -0.02265836 -0.14173787
v -0.04282604 -0.01236469 -0.13469140
v -0.04882186 -0.02772757 -0.12117050
v -0.03086288 -0.00989823 -0.14384719
v -0.03116577 -0.02179090 -0.14133379
v -0.04424167 -0.01792447 -0.13226735
v -0.03101680 -0.01655571 -0.14278799
v -0.03129071 -0.01266349 -0.14326650
v -0.02350233 -0.01448779 -0.14683050
v -0.02667691 -0.02971354 -0.14012703
v -0.02595947 -0.01098243 -0.14621645
v -0.02813623 -0.02825118 -0.14079902
v -0.00190405 -0.02422704 -0.14964789
v -0.04671646 -0.02645353 -0.12525277
v -0.04079063 -0.03148565 -0.12892024
v -0.01658906 -0.02100195 -0.14800650
v -0.02456267 -0.01143078 -0.14678270
v -0.03357818 -0.00299651 -0.14265638
v -0.03254644 -0.01632269 -0.14190664
v -0.00041433 -0.02618436 -0.14746709
v -0.00230131 -0.02636338 -0.14882009
v -0.04341840 -0.01786993 -0.13306177
v -0.02287957 -0.02000001 -0.14602157
v -0.04603168 -0.01541670 -0.13096850
v -0.04566267 -0.01736414 -0.13087767
v -0.04669419 -0.01497402 -0.13031312
v -0.04527437 -0.03857979 -0.11649595
v -0.01926744 -0.02643182 -0.14571735
v -0.00775270 -0.02100602 -0.14982241
v -0.02282457 -0.02798305 -0.14364492
v -0.02204243 -0.01936857 -0.14652329
v -0.02672226 -0.01009866 -0.14596853
v -0.01205066 -0.00088842 -0.14962309
v -0.03701276 -0.01496640 -0.13915976
v -0.03243409 -0.00041387 -0.14342072
v -0.01521136 -0.01541936 -0.14938437
v -0.04388093 -0.00501888 -0.13428926
v -0.04834353 -0.02188746 -0.12599685
v -0.03770896 -0.00704618 -0.13957243
v -0.03901246 -0.01986067 -0.13638397
v -0.03586134 -0.01999563 -0.13877453
v -0.01904154 -0.01024487 -0.14891501
v -0.02526387 -0.01775235 -0.14549428
v -0.00811569 -0.02585569 -0.14876131
v -0.01217224 -0.01640353 -0.14990395
v -0.03149747 -0.01441536 -0.14288416
v -0.03287395 -0.01995793 -0.14083604
v -0.04973146 -0.00686335 -0.12761687
v -0.01851687 -0.01155250 -0.14894920
v -0.01242710 -0.02287689 -0.14866297
v -0.04071561 -0.02007592 -0.13491837
v -0.04495577 -0.02717909 -0.12707073
v -0.04991118 -0.00339438 -0.12753606
v -0.04422627 -0.03575006 -0.12152156
v -0.04223468 -0.01657298 -0.13450282
v -0.03804791 -0.03028313 -0.13242397
v -0.03826932 -0.02694948 -0.13405415
v -0.02967417 -0.03044113 -0.13816932
v -0.04639766 -0.00047370 -0.13175390
v -0.04553099 -0.01980259 -0.13024263
v -0.00364177 -0.02304158 -0.14981407
v -0.03089417 -0.01169219 -0.14364568
v -0.03383179 -0.02076227 -0.13999483
v -0.04610557 -0.03679679 -0.11771861
v -0.04927938 -0.00860072 -0.12807163
v -0.03217670 -0.01404144 -0.14252826
v -0.01515456 -0.01342692 -0.14964752
v -0.04294792 -0.03364560 -0.12489696
v -0.02283663 -0.00195645 -0.14808234
v -0.01045649 -0.00128126 -0.14985681
v -0.04169320 -0.02172640 -0.13339894
v -0.03743792 -0.02021505 -0.13756597
v -0.01354022 -0.01354772 -0.14998718
v -0.04945512 -0.02922684 -0.11864750
v -0.04896454 -0.00589745 -0.12865341
v -0.03369203 -0.01544352 -0.14138533
v -0.04451110 -0.00382218 -0.13369775
v -0.01587882 -0.02537649 -0.14716250
v -0.04881705 -0.00962463 -0.12856679
v -0.02188770 -0.02283626 -0.14571659
v -0.01158400 -0.02150231 -0.14910825
v -0.03740430 -0.01742902 -0.13836789
v -0.04887161 -0.01052408 -0.12840837
v -0.01848028 -0.00576439 -0.14938597
v -0.04439725 -0.02078980 -0.13112715
v -0.03321011 -0.01065046 -0.14234989
v -0.03763173 -0.01998799 -0.13747498
v -0.03049621 -0.03017740 -0.13826939
v -0.00606870 -0.02595718 -0.14893364
v -0.02986186 -0.02922087 -0.13929834
v -0.01597770 -0.00806395 -0.14996396
v -0.04786696 -0.03855193 -0.11256535
v -0.02115653 -0.02800026 -0.14422085
v -0.04045253 -0.02422394 -0.13347509
v -0.04392252 -0.02039450 -0.13178247
v -0.04661213 -0.02441797 -0.12677878
v -0.04366378 -0.00353040 -0.13457976
v -0.04238259 -0.01193914 -0.13515566
v -0.02127365 -0.02647455 -0.14489781
v -0.03825917 -0.02621113 -0.13443019
v -0.04959014 -0.04253466 -0.10287862
v -0.04913455 -0.02716796 -0.12114686
v -0.03794021 -0.02116911 -0.13684831
v -0.03368671 -0.03111667 -0.13554227
v -0.01674415 -0.00593841 -0.14986325
v -0.04438983 -0.03802648 -0.11800982
v -0.03588972 -0.01792285 -0.13932486
v -0.02822102 -0.02049609 -0.14339420
v -0.04892964 -0.04180293 -0.10601760
v -0.04773555 -0.01876767 -0.12811272
v -0.01900735 -0.00591891 -0.14923040
v -0.03376884 -0.00041484 -0.14259123
v -0.04769803 -0.02104222 -0.12726033
v -0.04127402 -0.00766463 -0.13658644
v -0.04058369 -0.01808942 -0.13562753
v -0.03173502 -0.03083939 -0.13688325
v -0.03039866 -0.01289194 -0.14375996
v -0.03800019 -0.02021802 -0.13710613
v -0.02037032 -0.01072396 -0.14844213
v -0.02913548 -0.02202545 -0.14247684
v -0.01332915 -0.01672631 -0.14962829
v -0.01503061 -0.01204775 -0.14983563
v -0.01791716 -0.01940236 -0.14795220
v -0.02692659 -0.00034476 -0.14637482
v -0.04409829 -0.03039581 -0.12581953
v -0.02272617 -0.01631218 -0.14685596
v -0.04943433 -0.04093256 -0.10029911
v -0.02815600 -0.01764276 -0.14410325
v -0.04681719 -0.00005644 -0.12979117
v -0.04661282 -0.00337534 -0.13148689
v -0.04811402 -0.01473128 -0.12871430
v -0.04713499 -0.04110801 -0.10979650
v -0.02565188 -0.00529822 -0.14678963
v -0.02669915 -0.02485617 -0.14284769
v -0.04806981 -0.02140023 -0.12661129
v -0.04823817 -0.01154449 -0.12905542
v -0.04489245 -0.00103743 -0.13334771
v -0.02435861 -0.02901351 -0.14196154
v -0.04931254 -0.04292051 -0.10328865
v -0.04621751 -0.01972555 -0.12951937
v -0.00030022 -0.01707332 -0.14992653
v -0.00826329 -0.02184749 -0.14961623
v -0.04893814 -0.01315875 -0.12796649
v -0.04674015 -0.03810779 -0.11540162
v -0.00030030 -0.02582277 -0.14836218
v -0.04588047 -0.03929128 -0.11462416
v -0.01572086 -0.01538209 -0.14926745
v -0.02101153 -0.00344180 -0.14869131
v -0.03421120 -0.00125718 -0.14229312
v -0.03449999 -0.01831715 -0.14019878
v -0.04320845 -0.00525116 -0.13493646
v -0.01876792 -0.01783733 -0.14796298
v -0.02077947 -0.00021005 -0.14883272
v -0.02591383 -0.00491444 -0.14669643
v -0.02850961 -0.02762596 -0.14082614
v -0.02414836 -0.01025541 -0.14707550
v -0.02424248 -0.00368321 -0.14748478
v -0.04048469 -0.00050880 -0.13755424
v -0.02504030 -0.00615435 -0.14700936
v -0.01826062 -0.01203905 -0.14896997
v -0.03892821 -0.02019343 -0.13635293
v -0.04279114 -0.02397691 -0.13136850
v -0.02065880 -0.00022366 -0.14887274
v -0.00585777 -0.02532319 -0.14917087
v -0.04978013 -0.02136431 -0.12436093
v -0.04641088 -0.01352722 -0.13086103
v -0.01274496 -0.02057603 -0.14907697
v -0.02363026 -0.01035490 -0.14729147
v -0.02191969 -0.01725266 -0.14700659
v -0.02543374 -0.02961017 -0.14040204
v -0.03452466 -0.01243093 -0.14129004
v -0.03316444 -0.01274514 -0.14212208
v -0.04485224 -0.01162304 -0.13278093
v -0.04380028 -0.00051031 -0.13447354
v -0.03390859 -0.01969482 -0.14024138
v -0.01189006 -0.01761428 -0.14975556
v -0.01531377 -0.02730301 -0.14638446
v -0.03737594 -0.02497815 -0.13575250
v -0.01401034 -0.02722382 -0.14667218
v -0.02023939 -0.01518785 -0.14794290
v -0.04182036 -0.03376049 -0.12618487
v -0.01478828 -0.02714359 -0.14668628
v -0.02950790 -0.00492624 -0.14493806
v -0.04181177 -0.00755747 -0.13609998
v -0.00304279 -0.02616991 -0.14900226
v -0.04368794 -0.03663464 -0.12124768
v -0.01656074 -0.00736371 -0.14984465
v -0.02708782 -0.02749439 -0.14170587
v -0.01249229 -0.02715020 -0.14693186
v -0.02903879 -0.02035368 -0.14301530
v -0.02357615 -0.00288539 -0.14778709
v -0.04752982 -0.01218208 -0.12978046
v -0.04008873 -0.03296529 -0.12869613
v -0.02930755 -0.00707861 -0.14492257
v -0.02777709 -0.02701537 -0.14150587
v -0.03662344 -0.02373666 -0.13693808
v -0.01235195 -0.01913670 -0.14941666
v -0.01519294 -0.01039345 -0.14994630
v -0.04862895 -0.04410432 -0.10180654
v -0.00030016 -0.01541198 -0.14944045
v -0.03014665 -0.00106231 -0.14473180
v -0.03922538 -0.03389129 -0.12863052
v -0.04756541 -0.02745904 -0.12335585
v -0.04241624 -0.00392331 -0.13573268
v -0.02611783 -0.02890852 -0.14154680
v -0.00513939 -0.02228476 -0.14983317
v -0.01981692 -0.02352331 -0.14632272
v -0.02173906 -0.02807875 -0.14397227
v -0.03485025 -0.03169649 -0.13420549
v -0.01317644 -0.01750779 -0.14953610
v -0.03165269 -0.03040212 -0.13743619
v -0.02643775 -0.01320450 -0.14574018
v -0.01739851 -0.00459076 -0.14974616
v -0.04302447 -0.00729704 -0.13500387
v -0.01385412 -0.02377122 -0.14808785
v -0.04354167 -0.02698798 -0.12880562
v -0.00944103 -0.02385443 -0.14900979
v -0.04526288 -0.03748351 -0.11840956
v -0.04994027 -0.02101133 -0.12433218
v -0.01359022 -0.02126241 -0.14872956
v -0.02035882 -0.02612695 -0.14539451
v -0.04825389 -0.00131893 -0.12963793
v -0.04229083 -0.02673994 -0.13037318
v -0.04499493 -0.02829215 -0.12620458
v -0.02379794 -0.02842066 -0.14291276
v -0.01802536 -0.02718553 -0.14585927
v -0.03799892 -0.00270722 -0.13954565
v -0.03735816 -0.00725570 -0.13983930
v -0.02927444 -0.01967950 -0.14305584
v -0.02437327 -0.00707574 -0.14724960
v -0.04114106 -0.01275452 -0.13615926
v -0.00946913 -0.02694302 -0.14749819
v -0.04847023 -0.02355778 -0.12486932
v -0.03893714 -0.00004131 -0.13741511
v -0.04079973 -0.00178072 -0.13726420
v -0.04939757 -0.04344156 -0.10217179
v -0.04019605 -0.00697915 -0.13757262
v -0.02001985 -0.00407381 -0.14902078
v -0.02342764 -0.02818904 -0.14324754
v -0.01712245 -0.01981643 -0.14811715
v -0.02749867 -0.02066300 -0.14371744
v -0.03479780 -0.01737872 -0.14022899
v -0.03760489 -0.02521248 -0.13545676
v -0.03857620 -0.03264690 -0.13046484
v -0.02593239 -0.01530961 -0.14567228
v -0.02358452 -0.02376852 -0.14471682
v -0.00958047 -0.02404644 -0.14894753
v -0.02235901 -0.02153632 -0.14585935
v -0.04748848 -0.01638849 -0.12911034
v -0.02810868 -0.01443885 -0.14474270
v -0.00191881 -0.02400859 -0.14969388
v -0.03997306 -0.00334372 -0.13793015
v -0.04810975 -0.04194558 -0.10084089
v -0.04434351 -0.01848974 -0.13199237
v -0.01646990 -0.01460257 -0.14917057
v -0.01378909 -0.01402557 -0.14988211
v -0.04525097 -0.01053628 -0.13247307
v -0.04285204 -0.01348833 -0.13449849
v -0.02507602 -0.00171911 -0.14717354
v -0.02293434 -0.01647199 -0.14673614
v -0.04289919 -0.03579692 -0.12316767
v -0.04299985 -0.00862229 -0.13491890
v -0.04946736 -0.04439142 -0.10024039
v -0.02085698 -0.02400582 -0.14581879
v -0.03732368 -0.03294439 -0.13114128
v -0.03138911 -0.02051227 -0.14159601
v -0.02444833 -0.02462455 -0.14407157
v -0.02537060 -0.00077586 -0.14706893
v -0.01018179 -0.02580034 -0.14841930
v -0.03266771 -0.01815322 -0.14142273
v -0.02561370 -0.02297102 -0.14403190
v -0.04567704 -0.00772523 -0.13229950
v -0.01596452 -0.00001474 -0.14882968
v -0.02467036 -0.01096632 -0.14678029
v -0.03108141 -0.00936660 -0.14376883
v -0.02688470 -0.02538537 -0.14256496
v -0.03073156 -0.00463150 -0.14431920
v -0.02961160 -0.01586605 -0.14372311
v -0.02824888 -0.01174116 -0.14504221
v -0.03273414 -0.00215494 -0.14319425
v -0.04709430 -0.03806803 -0.11471200
v -0.04245584 -0.01795503 -0.13394840
v -0.00949269 -0.02473608 -0.14881060
v -0.03514353 -0.03172126 -0.13399114
v -0.01614927 -0.02761387 -0.14571334
v -0.02735891 -0.01605790 -0.14485366
v -0.01264700 -0.02425654 -0.14828557
v -0.02133429 -0.02148736 -0.14630502
v -0.03165559 -0.01912644 -0.14179214
v -0.00788047 -0.02679263 -0.14789244
v -0.04167150 -0.02871183 -0.12977410
v -0.04015358 -0.03294368 -0.12864231
v -0.02425861 -0.02320229 -0.14459311
v -0.02775984 -0.00251297 -0.14593595
v -0.04573524 -0.01527163 -0.13130687
v -0.02282982 -0.01176799 -0.14746608
v -0.02428278 -0.02845930 -0.14269536
v -0.00915572 -0.02220745 -0.14939404
v -0.04593823 -0.01584592 -0.13096954
v -0.02401515 -0.01233842 -0.14690868
v -0.04244393 -0.03592734 -0.12334250
v -0.03338010 -0.01851490 -0.14089789
v -0.03924652 -0.02661323 -0.13339817
v -0.01645557 -0.02765985 -0.14559101
v -0.02888033 -0.02895584 -0.14005662
v -0.03884357 -0.03366061 -0.12921821
v -0.03372269 -0.01574921 -0.14130561
v -0.03805263 -0.01603674 -0.13817218
v -0.01289794 -0.02223982 -0.14869153
v -0.00072711 -0.02654722 -0.14854230
v -0.02173857 -0.02517094 -0.14509345
v -0.01599187 -0.02574461 -0.14703051
v -0.04870377 -0.01271516 -0.12833847
v -0.03377423 -0.01518750 -0.14137424
v -0.04768695 -0.02260057 -0.12644954
v -0.04442038 -0.02328188 -0.12995458
v -0.03867793 -0.02200878 -0.13592575
v -0.01831042 -0.01753149 -0.14817226
v -0.03085524 -0.01108399 -0.14373064
v -0.00916190 -0.02211464 -0.14941152
v -0.04519719 -0.01212214 -0.13235914
v -0.04983813 -0.04335638 -0.10090250
v -0.03314627 -0.01570335 -0.14166814
v -0.03968250 -0.00233785 -0.13819036
v -0.04886976 -0.01797454 -0.12696547
v -0.00360755 -0.02247578 -0.14991650
v -0.04216355 -0.03365793 -0.12584573
v -0.03141607 -0.01176907 -0.14332214
v -0.00721070 -0.02568816 -0.14892864
v -0.00171166 -0.01061300 -0.14997227
v -0.01317648 -0.02008152 -0.14907088
v -0.01127108 -0.01823827 -0.14976095
v -0.04910434 -0.00757357 -0.12839003
v -0.04850494 -0.01493371 -0.12821250
v -0.03981120 -0.01138228 -0.13748841
v -0.01117678 -0.02700007 -0.14732603
v -0.03015893 -0.01452150 -0.14364561
v -0.04364246 -0.01206365 -0.13395817
v -0.04720372 -0.01720587 -0.12923229
v -0.01818969 -0.01938626 -0.14786390
v -0.02307176 -0.00582665 -0.14784718
v -0.03937995 -0.03446742 -0.12746862
v -0.03885682 -0.03280706 -0.13008554
v -0.04696315 -0.03984735 -0.11273301
v -0.02080217 -0.01745838 -0.14734887
v -0.03688974 -0.00198069 -0.14039998
v -0.00030028 -0.02392467 -0.14792751
v -0.04459690 -0.00002404 -0.13218735
v -0.01859968 -0.02638067 -0.14596499
v -0.02125013 -0.00072980 -0.14866903
v -0.00246220 -0.02672772 -0.14807100
v -0.02788089 -0.01225063 -0.14516327
v -0.04622790 -0.03849475 -0.11584470
v -0.04519867 -0.03780136 -0.11803998
v -0.01723425 -0.02300434 -0.14734635
v -0.03076260 -0.00048468 -0.14440845
v -0.04939323 -0.02202551 -0.12452727
v -0.04969292 -0.02705696 -0.12028822
v -0.04473050 -0.00380980 -0.13347093
v -0.02026640 -0.02057740 -0.14689498
v -0.03460667 -0.02256149 -0.13882392
v -0.02749667 -0.02804961 -0.14125453
v -0.02192826 -0.00942484 -0.14800483
v -0.03753207 -0.03154044 -0.13214769
v -0.03111050 -0.02931099 -0.13844232
v -0.04223048 -0.01615534 -0.13460599
v -0.01833648 -0.02146434 -0.14735044
v -0.03374582 -0.02647725 -0.13785926
v -0.04223586 -0.02267238 -0.13247845
v -0.04791102 -0.04227046 -0.10666217
v -0.01238318 -0.02694846 -0.14728502
v -0.03094316 -0.01529694 -0.14308909
v -0.04519894 -0.02608987 -0.12747661
v -0.04961883 -0.02659941 -0.12083172
v -0.04899065 -0.00011129 -0.12719426
v -0.04638675 -0.03818695 -0.11598612
v -0.03419440 -0.03117024 -0.13517268
v -0.03726796 -0.01825065 -0.13826158
v -0.03618523 -0.00367865 -0.14085698
v -0.03352134 -0.00085700 -0.14274177
v -0.04222956 -0.01189831 -0.13530022
v -0.02661253 -0.01890040 -0.14460690
v -0.01965003 -0.01273299 -0.14847568
v -0.03741372 -0.01467254 -0.13890721
v -0.04968851 -0.00979811 -0.12742731
v -0.01442381 -0.02741854 -0.14623302
v -0.02721910 -0.02387057 -0.14290629
v -0.02536402 -0.02326713 -0.14406480
v -0.04292274 -0.02672413 -0.12967494
v -0.03641059 -0.03251290 -0.13228631
v -0.04462607 -0.02102736 -0.13079122
v -0.01849270 -0.02359973 -0.14676135
v -0.04251103 -0.03608592 -0.12300554
v -0.03806618 -0.03045557 -0.13230080
v -0.02393430 -0.02118019 -0.14527766
v -0.02647249 -0.02313381 -0.14353360
v -0.01967729 -0.02243106 -0.14665976
v -0.04076503 -0.02305632 -0.13370761
v -0.02369561 -0.01974182 -0.14573888
v -0.04859826 -0.02694974 -0.12219800
v -0.04831376 -0.04191229 -0.10708617
v -0.04722103 -0.04057037 -0.11100376
v -0.04289887 -0.02438259 -0.13105805
v -0.04867143 -0.02418182 -0.12422648
v -0.02139457 -0.02839476 -0.14360917
v -0.02334305 -0.00293745 -0.14787446
v -0.03746472 -0.00432937 -0.13992177
v -0.02947590 -0.00245736 -0.14504778
v -0.03102105 -0.01475885 -0.14312162
v -0.01376623 -0.01915235 -0.14910653
v -0.04987184 -0.02161259 -0.12406481
v -0.00162246 -0.02655233 -0.14852444
v -0.02205197 -0.00367353 -0.14831633
v -0.01178916 -0.02452732 -0.14842100
v -0.03606256 -0.02382376 -0.13732097
v -0.02262798 -0.01154781 -0.14755896
v -0.04242898 -0.01618383 -0.13441553
v -0.02898626 -0.01639327 -0.14395223
v -0.03661523 -0.02268397 -0.13734166
v -0.02762441 -0.02746567 -0.14141402
v -0.00914791 -0.02665869 -0.14803200
v -0.01858550 -0.02776763 -0.14515111
v -0.02147091 -0.00386892 -0.14851671
v -0.02848447 -0.02017064 -0.14334782
v -0.04358088 -0.02543842 -0.12969919
v -0.02759040 -0.02116727 -0.14353005
v -0.02369578 -0.01744113 -0.14622033
v -0.01101113 -0.02028136 -0.14943872
v -0.04570043 -0.02133842 -0.12948820
v -0.04320844 -0.01601896 -0.13372297
v -0.02775897 -0.02140149 -0.14337814
v -0.02446727 -0.02356852 -0.14439075
v -0.04264076 -0.02137694 -0.13265571
v -0.00193290 -0.02571892 -0.14930323
v -0.01713637 -0.01809095 -0.14843346
v -0.03129165 -0.00370553 -0.14403071
v -0.03788280 -0.00391976 -0.13960691
v -0.01227206 -0.02668518 -0.14758642
v -0.02921423 -0.02862600 -0.13998204
v -0.00033782 -0.02207650 -0.14998872
v -0.03018968 -0.02366069 -0.14131158
v -0.03628764 -0.02083492 -0.13823647
v -0.03029531 -0.02565655 -0.14050139
v -0.01723338 -0.00892021 -0.14953922
v -0.02033598 -0.00771568 -0.14872128
v -0.03240292 -0.02406786 -0.13980114
v -0.02981716 -0.01758901 -0.14326696
v -0.00888386 -0.02677552 -0.14788065
v -0.02153903 -0.01988754 -0.14661665
v -0.04984291 -0.02632957 -0.12068246
v -0.04373558 -0.02126487 -0.13166948
v -0.04993058 -0.00083731 -0.12755157
v -0.04120995 -0.02723507 -0.13114242
v -0.03450526 -0.03052340 -0.13532661
v -0.03072740 -0.01625597 -0.14302813
v -0.03337214 -0.02569747 -0.13846933
v -0.03441112 -0.02995914 -0.13569800
v -0.04359762 -0.01636360 -0.13326460
v -0.02934533 -0.02048244 -0.14282238
v -0.02878344 -0.00345779 -0.14538426
v -0.01259088 -0.01721654 -0.14969557
v -0.00039309 -0.02449550 -0.14747895
v -0.04965732 -0.02426241 -0.12262086
v -0.03733194 -0.03273241 -0.13141162
v -0.00774371 -0.02646523 -0.14841262
v -0.03452993 -0.02350401 -0.13853798
v -0.01700679 -0.01532046 -0.14893520
v -0.02293726 -0.00014011 -0.14807520
v -0.04828598 -0.01247232 -0.12886653
v -0.04822240 -0.01532322 -0.12848720
v -0.02437924 -0.02884805 -0.14223465
v -0.03052015 -0.00460954 -0.14443012
v -0.01299820 -0.02717709 -0.14684968
v -0.02980414 -0.00079270 -0.14491608
v -0.00030007 -0.01941380 -0.14940349
v -0.04247887 -0.01869977 -0.13370143
v -0.02434432 -0.02884483 -0.14224834
v -0.01348022 -0.01852755 -0.14929671
v -0.02646807 -0.00647624 -0.14637069
v -0.01849234 -0.02790131 -0.14492859
v -0.01597013 -0.01378567 -0.14940795
v -0.02429421 -0.02516889 -0.14397052
v -0.03810379 -0.00067904 -0.13951091
v -0.03549746 -0.02347342 -0.13785637
v -0.04999534 -0.03547815 -0.11050858
v -0.02689040 -0.02343885 -0.14321747
v -0.04081386 -0.02286761 -0.13374179
v -0.04031600 -0.01492882 -0.13654824
v -0.01063619 -0.01757460 -0.14998105
v -0.00168861 -0.02249990 -0.14998262
v -0.04639252 -0.00715978 -0.13157293
v -0.04385521 -0.03603397 -0.12180384
v -0.01594933 -0.02718677 -0.14639529
v -0.03800080 -0.01745654 -0.13789553
v -0.02464116 -0.02064781 -0.14511329
v -0.04916423 -0.02107456 -0.12537579
v -0.02322124 -0.01337152 -0.14710857
v -0.01825862 -0.01404831 -0.14873328
v -0.04113616 -0.00289188 -0.13693383
v -0.01567931 -0.01140919 -0.14975913
v -0.01857487 -0.02208376 -0.14712242
v -0.03437846 -0.00359354 -0.14213599
v -0.04996016 -0.00091436 -0.12593339
v -0.02211988 -0.00504647 -0.14822614
v -0.02803079 -0.01196877 -0.14512455
v -0.02890553 -0.02971778 -0.13951935
v -0.03312532 -0.02355645 -0.13952375
v -0.03820290 -0.03379703 -0.12924526
v -0.04047025 -0.00110299 -0.13755743
v -0.01303029 -0.02188495 -0.14874029
v -0.01277312 -0.02135842 -0.14891859
v -0.01675162 -0.02742903 -0.14595093
v -0.01206073 -0.02668941 -0.14762336
v -0.03718848 -0.03132980 -0.13258653
v -0.02431129 -0.02638616 -0.14356754
v -0.04589060 -0.00186443 -0.13231002
v -0.04250816 -0.00012419 -0.13572486
v -0.04868833 -0.00803430 -0.12886324
v -0.00785921 -0.02463496 -0.14908785
v -0.02557618 -0.02599487 -0.14304536
v -0.01392474 -0.01501251 -0.14974237
v -0.04818579 -0.04341483 -0.10367373
v -0.04069092 -0.00667503 -0.13717250
v -0.02900837 -0.01466908 -0.14424208
v -0.03077095 -0.00548935 -0.14424975
v -0.04915718 -0.01434736 -0.12748953
v -0.03448910 -0.00018838 -0.14212449
v -0.04588450 -0.01256854 -0.13158648
v -0.04553542 -0.02042327 -0.13001412
v -0.00592984 -0.02534170 -0.14916046
v -0.01957631 -0.01874240 -0.14751956
v -0.04042591 -0.01358975 -0.13666589
v -0.01618815 -0.01187563 -0.14957615
v -0.02399359 -0.01781039 -0.14601969
v -0.00987610 -0.02491146 -0.14869855
v -0.02829115 -0.02313583 -0.14258949
v -0.00422038 -0.02574855 -0.14920318
v -0.02728065 -0.01307420 -0.14535592
v -0.04117053 -0.03509284 -0.12554009
v -0.00882565 -0.01932191 -0.14999306
v -0.02960777 -0.00042454 -0.14502545
v -0.04993708 -0.02306719 -0.12304415
v -0.04810508 -0.01959016 -0.12732907
v -0.02297466 -0.01009181 -0.14756899
v -0.01087360 -0.02100325 -0.14932750
v -0.03117573 -0.02303085 -0.14092471
v -0.04492085 -0.02692542 -0.12727985
v -0.03014637 -0.01617240 -0.14337677
v -0.04140212 -0.03116208 -0.12844493
v -0.03676975 -0.00875354 -0.14012533
v -0.04973913 -0.03147731 -0.11569988
v -0.03437270 -0.00134985 -0.14218253
v -0.04985725 -0.01885960 -0.12540213
v -0.00030029 -0.02561550 -0.14803653
v -0.02844681 -0.01576193 -0.14436398
v -0.03072158 -0.01790650 -0.14266105
v -0.03605839 -0.01591523 -0.13967273
v -0.04928495 -0.00014408 -0.12837904
v -0.03609074 -0.01341736 -0.14004937
v -0.01675264 -0.01962563 -0.14825313
v -0.04680034 -0.01577366 -0.13004544
v -0.04650800 -0.02383176 -0.12728428
v -0.04244352 -0.00350657 -0.13571909
v -0.00029992 -0.01968466 -0.14874249
v -0.04968774 -0.04299337 -0.10191861
v -0.01683010 -0.00967511 -0.14958834
v -0.02894137 -0.00804165 -0.14504897
v -0.04931961 -0.04380014 -0.10168838
v -0.03922585 -0.02702696 -0.13318888
v -0.02832485 -0.02933940 -0.14016024
v -0.03719906 -0.00344054 -0.14014732
v -0.01073213 -0.01983926 -0.14957014
v -0.01936765 -0.02773955 -0.14499640
v -0.03897781 -0.03387989 -0.12879674
v -0.03474968 -0.00787724 -0.14163396
v -0.04658668 -0.01733576 -0.12988095
v -0.04812573 -0.00759782 -0.12954874
v -0.03045113 -0.01005353 -0.14406718
v -0.04866644 -0.00456482 -0.12906747
v -0.04626741 -0.02569329 -0.12638211
v -0.04813875 -0.04066139 -0.10956279
v -0.04816795 -0.03927113 -0.11106250
v -0.02882160 -0.02957661 -0.13970029
v -0.03508242 -0.02742548 -0.13643267
v -0.00529588 -0.02653782 -0.14847079
v -0.01263100 -0.02576475 -0.14790715
v -0.03471082 -0.02639296 -0.13719396
v -0.02166295 -0.00139696 -0.14851324
v -0.03854176 -0.01179646 -0.13845685
v -0.02306945 -0.00813322 -0.14771524
v -0.04678731 -0.01819375 -0.12943835
v -0.00030029 -0.02422032 -0.14942707
v -0.01980203 -0.00292397 -0.14912237
v -0.03505957 -0.01655532 -0.14023000
v -0.04415183 -0.01587129 -0.13284044
v -0.03527223 -0.02821083 -0.13591470
v -0.02613071 -0.02750080 -0.14221652
v -0.01942552 -0.00846500 -0.14896196
v -0.01329723 -0.02729758 -0.14655486
v -0.03093331 -0.02474621 -0.14045666
v -0.00829685 -0.02467127 -0.14901262
v -0.04733272 -0.01163945 -0.13008750
v -0.04195710 -0.03568444 -0.12404706
v -0.04386730 -0.01883507 -0.13235016
v -0.04129550 -0.03008795 -0.12928461
v -0.03549579 -0.02035751 -0.13893335
v -0.04334012 -0.02571379 -0.12980706
v -0.00585860 -0.02591208 -0.14897441
v -0.03351504 -0.02131939 -0.14002588
v -0.02616566 -0.02144131 -0.14418296
v -0.04841357 -0.00176690 -0.12944407
v -0.01691891 -0.00376119 -0.14991813
v -0.02486048 -0.02776404 -0.14278795
v -0.00111352 -0.02252795 -0.14999860
v -0.02055789 -0.00787099 -0.14863178
v -0.02030610 -0.02628773 -0.14536496
v -0.03469851 -0.00799558 -0.14165763
v -0.04627217 -0.02373192 -0.12764486
v -0.04038804 -0.00383983 -0.13758108
v -0.01116096 -0.01873050 -0.14969596
v -0.00568320 -0.02674344 -0.14802917
v -0.02720615 -0.00817087 -0.14593662
v -0.00030014 -0.02021108 -0.14964690
v -0.03389451 -0.01276884 -0.14167139
v -0.02063484 -0.02356690 -0.14602381
v -0.04736677 -0.01811998 -0.12881247
v -0.04870727 -0.00836063 -0.12881123
v -0.04767998 -0.03871977 -0.11283344
v -0.02331887 -0.01734063 -0.14639951
v -0.03327910 -0.00183847 -0.14287079
v -0.04736421 -0.04150845 -0.10873613
v -0.04339538 -0.00376087 -0.13483826
v -0.04878255 -0.04073286 -0.10779662
v -0.01818066 -0.02253927 -0.14714348
v -0.02744086 -0.00348149 -0.14608101
v -0.00068828 -0.02431358 -0.14965868
v -0.02573339 -0.02145189 -0.14440126
v -0.02603704 -0.00346535 -0.14671036
v -0.01296185 -0.02656568 -0.14753572
v -0.02678494 -0.01603527 -0.14514311
v -0.02753640 -0.00763878 -0.14581061
v -0.03738377 -0.00926191 -0.13964236
v -0.03891773 -0.01556782 -0.13759380
v -0.03430267 -0.01714707 -0.14062940
v -0.02704136 -0.01403014 -0.14533479
v -0.00777462 -0.00655401 -0.14999772
v -0.00381794 -0.02226098 -0.14993945
v -0.00973972 -0.00248963 -0.14992628
v -0.03724128 -0.00115029 -0.14015791
v -0.03014532 -0.02113710 -0.14215466
v -0.02260436 -0.00555713 -0.14802746
v -0.04662946 -0.01857241 -0.12948212
v -0.03097095 -0.02991632 -0.13822117
v -0.04331145 -0.00115443 -0.13496638
v -0.01941441 -0.02085802 -0.14712219
v -0.03533281 -0.00120296 -0.14152885
v -0.04892189 -0.01333812 -0.12795798
v -0.03271392 -0.01729868 -0.14159763
v -0.03195609 -0.02569280 -0.13944792
v -0.00032076 -0.01332019 -0.14970602
v -0.04202255 -0.03630582 -0.12258777
v -0.00281351 -0.02457670 -0.14954587
v -0.04940113 -0.04376420 -0.10158442
v -0.02671630 -0.01407328 -0.14548650
v -0.04866458 -0.00350502 -0.12910838
v -0.03122374 -0.00168484 -0.14411501
v -0.02809862 -0.00354056 -0.14573818
v -0.04338877 -0.03276080 -0.12498350
v -0.03895608 -0.02325722 -0.13520189
v -0.00899237 -0.01980210 -0.14987763
v -0.01855932 -0.01572785 -0.14842496
v -0.03603633 -0.01803993 -0.13918948
v -0.03861404 -0.02832803 -0.13302285
v -0.04923536 -0.04370704 -0.10203550
v -0.04923068 -0.04086672 -0.10627568
v -0.04247830 -0.03399792 -0.12522390
v -0.03448468 -0.00488099 -0.14199415
v -0.04961635 -0.01557907 -0.12668922
v -0.04901423 -0.01457863 -0.12763555
v -0.04529988 -0.02345580 -0.12888861
v -0.04899325 -0.04411802 -0.10150795
v -0.03932512 -0.00360675 -0.13844869
v -0.00990388 -0.01844933 -0.14996401
v -0.03027280 -0.00612157 -0.14447471
v -0.03175109 -0.01485864 -0.14266362
v -0.04997129 -0.00492754 -0.12740310
v -0.03932237 -0.00015822 -0.13852006
v -0.03011739 -0.01070059 -0.14417637
v -0.04999067 -0.00693390 -0.12558135
v -0.02641413 -0.02380990 -0.14334340
v -0.03551850 -0.02468948 -0.13734553
v -0.03237217 -0.02650420 -0.13884110
v -0.03707687 -0.02117372 -0.13755028
v -0.04952454 -0.00039131 -0.12807235
v -0.04062469 -0.02801067 -0.13126185
v -0.02705467 -0.02894884 -0.14106846
v -0.00627338 -0.02639542 -0.14859146
v -0.04162719 -0.01488660 -0.13540455
v -0.04870120 -0.01872310 -0.12691746
v -0.03461666 -0.00580986 -0.14184756
v -0.01127676 -0.02293185 -0.14887706
v -0.03265298 -0.01195627 -0.14254709
v -0.04785336 -0.01609799 -0.12874702
v -0.02394941 -0.02766284 -0.14329062
v -0.01026852 -0.02445423 -0.14874041
v -0.04994417 -0.03766688 -0.10353054
v -0.03941145 -0.02542225 -0.13384386
v -0.02326157 -0.02690469 -0.14388130
v -0.04053777 -0.03487893 -0.12626652
v -0.02395503 -0.00425610 -0.14758338
v -0.02459300 -0.00957281 -0.14694681
v -0.04702698 -0.01671989 -0.12955354
v -0.02190110 -0.01533129 -0.14734124
v -0.02065417 -0.02796156 -0.14439998
v -0.01855423 -0.01888915 -0.14783908
v -0.03285870 -0.02124206 -0.14047503
v -0.02786710 -0.02644405 -0.14167195
v -0.02030542 -0.01559190 -0.14785707
v -0.02954487 -0.02315299 -0.14188793
v -0.04388038 -0.02398356 -0.13020304
v -0.01253826 -0.02712921 -0.14697741
v -0.02868350 -0.02083856 -0.14306212
v -0.04402871 -0.01963882 -0.13193177
v -0.03230319 -0.02385778 -0.13994537
v -0.03665593 -0.03169788 -0.13284072
v -0.04849864 -0.02793990 -0.12150946
v -0.03616506 -0.00145820 -0.14093363
v -0.04820782 -0.01378236 -0.12875769
v -0.02104716 -0.00635094 -0.14853962
v -0.03108562 -0.02681195 -0.13954861
v -0.04981395 -0.00466560 -0.12761907
v -0.04302881 -0.03662949 -0.12165814
v -0.03903029 -0.00128906 -0.13874484
v -0.03653890 -0.00843349 -0.14031950
v -0.04875703 -0.00231453 -0.12901967
v -0.04706663 -0.02718159 -0.12424814
v -0.03017084 -0.01216035 -0.14398890
v -0.02943319 -0.01533185 -0.14391480
v -0.00888071 -0.02447547 -0.14896533
v -0.04347804 -0.03690025 -0.12090653
v -0.04972653 -0.03261350 -0.11447375
v -0.01646282 -0.02724550 -0.14621840
v -0.02558662 -0.01532287 -0.14582904
v -0.03958537 -0.01169932 -0.13763777
v -0.03914122 -0.01865607 -0.13663716
v -0.04765810 -0.02471816 -0.12520417
v -0.03504687 -0.03025132 -0.13503378
v -0.03912460 -0.02140449 -0.13579282
v -0.04563060 -0.03839220 -0.11666955
v -0.04986989 -0.03921142 -0.10638056
v -0.04333480 -0.01144857 -0.13435022
v -0.02221104 -0.00040229 -0.14834462
v -0.03170291 -0.03071657 -0.13706464
v -0.03965184 -0.02497855 -0.13385066
v -0.04076876 -0.03276027 -0.12808132
v -0.04908681 -0.04335188 -0.10301425
v -0.00781207 -0.02358438 -0.14931359
v -0.02986106 -0.01193544 -0.14418055
v -0.02094934 -0.00148870 -0.14875918
v -0.03479978 -0.02059815 -0.13936066
v -0.04830411 -0.04397493 -0.10218353
v -0.01627179 -0.01071747 -0.14965658
v -0.04994343 -0.03805211 -0.10758620
v -0.01673670 -0.02613529 -0.14668495
v -0.03409233 -0.02256566 -0.13918782
f 545 754 952
f 32 53 998
f 795 53 362
f 362 53 622
f 622 940 362
f 952 754 639
f 904 362 940
f 492 639 856
f 952 639 492
f 622 952 433
f 419 555 161
f 53 555 419
f 622 53 419
f 419 952 622
f 419 545 952
f 754 545 112
f 112 419 161
f 545 419 112
f 565 526 640
f 795 986 744
f 846 437 856
f 856 639 846
f 938 940 622
f 938 904 940
f 622 906 938
f 732 906 622
f 622 433 732
f 952 492 252
f 252 433 952
f 252 492 856
f 767 252 856
f 433 252 767
f 161 555 973
f 973 285 161
f 614 53 32
f 614 555 53
f 32 222 614
f 742 843 234
f 234 82 777
f 243 640 526
f 667 362 565
f 795 362 667
f 437 846 312
f 312 112 161
f 754 112 312
f 312 639 754
f 312 846 639
f 565 362 325
f 325 455 565
f 362 455 325
f 362 904 26
f 416 833 819
f 142 243 526
f 640 243 142
f 884 732 433
f 398 34 237
f 161 285 275
f 408 800 682
f 777 981 511
f 82 401 925
f 555 614 955
f 955 614 528
f 1048 955 528
f 285 973 1048
f 1048 973 555
f 555 966 1048
f 1033 843 82
f 82 234 1033
f 1033 234 843
f 82 843 182
f 843 874 182
f 182 920 82
f 874 920 182
f 87 843 742
f 87 920 843
f 384 874 843
f 843 920 384
f 384 920 874
f 394 1018 295
f 565 640 421
f 421 667 565
f 795 744 229
f 229 53 795
f 229 998 53
f 777 998 229
f 229 981 777
f 798 23 350
f 763 23 798
f 350 408 798
f 565 455 445
f 766 493 833
f 958 327 648
f 833 493 648
f 819 833 648
f 648 327 819
f 819 327 404
f 904 938 383
f 433 767 915
f 915 884 433
f 915 767 856
f 437 312 602
f 602 312 161
f 856 437 141
f 141 915 856
f 884 915 141
f 437 602 141
f 582 628 740
f 524 628 582
f 398 237 20
f 662 275 285
f 662 694 424
f 319 1024 398
f 953 34 398
f 1001 1024 685
f 188 408 350
f 800 408 188
f 107 669 576
f 503 669 206
f 503 206 945
f 597 862 945
f 945 382 597
f 657 382 945
f 945 206 657
f 90 510 148
f 90 179 510
f 394 666 692
f 692 1018 394
f 146 148 692
f 148 1018 692
f 742 234 126
f 126 666 742
f 278 1042 222
f 278 222 32
f 1055 1042 278
f 777 1055 278
f 278 998 777
f 32 998 278
f 777 82 49
f 82 925 49
f 49 1055 777
f 967 401 222
f 967 925 401
f 857 614 222
f 222 393 857
f 860 966 555
f 555 955 860
f 860 1048 966
f 955 1048 860
f 108 401 82
f 650 87 742
f 742 666 650
f 478 179 553
f 553 593 478
f 668 650 666
f 148 510 668
f 510 645 668
f 668 645 190
f 931 239 177
f 336 239 561
f 561 575 336
f 177 239 336
f 561 239 276
f 763 798 497
f 497 798 862
f 862 798 875
f 875 945 862
f 380 875 798
f 503 945 380
f 945 875 380
f 628 1013 91
f 772 697 257
f 430 23 763
f 663 91 45
f 245 1034 785
f 214 577 772
f 469 45 214
f 765 577 214
f 832 938 906
f 975 781 832
f 489 459 770
f 327 922 672
f 672 404 327
f 819 404 441
f 57 256 455
f 57 455 362
f 362 26 57
f 57 26 904
f 904 256 57
f 178 602 726
f 178 141 602
f 732 884 178
f 884 141 178
f 893 336 575
f 704 602 913
f 913 582 704
f 913 602 643
f 643 524 913
f 524 582 913
f 877 582 740
f 704 582 877
f 161 275 491
f 275 662 491
f 491 662 267
f 923 662 424
f 267 662 923
f 923 814 267
f 237 814 923
f 424 20 923
f 923 20 237
f 438 694 636
f 424 694 438
f 438 20 424
f 398 20 438
f 438 319 398
f 1041 636 190
f 190 645 1041
f 1041 438 636
f 319 438 1041
f 1024 1001 71
f 398 1024 71
f 71 953 398
f 34 953 71
f 685 593 895
f 895 1001 685
f 682 800 866
f 800 1001 866
f 180 593 553
f 553 277 180
f 34 188 103
f 107 576 96
f 96 576 682
f 396 669 503
f 1017 669 107
f 107 536 1017
f 277 282 360
f 784 282 277
f 784 277 553
f 553 179 784
f 179 90 784
f 142 450 809
f 640 142 809
f 978 511 981
f 744 345 978
f 978 229 744
f 981 229 978
f 431 857 393
f 222 401 431
f 431 393 222
f 401 108 431
f 528 614 431
f 614 857 431
f 431 1048 528
f 431 108 1048
f 873 108 82
f 190 636 873
f 873 920 190
f 82 920 873
f 356 666 394
f 356 668 666
f 650 668 436
f 190 920 436
f 436 668 190
f 381 336 621
f 561 276 997
f 988 862 597
f 988 497 862
f 769 430 763
f 697 430 769
f 531 92 589
f 497 988 589
f 740 628 290
f 628 91 290
f 757 877 740
f 989 877 757
f 1006 257 697
f 663 45 474
f 474 91 663
f 785 931 474
f 474 931 730
f 474 45 469
f 804 474 469
f 804 245 785
f 785 474 804
f 891 628 524
f 891 524 643
f 643 237 891
f 469 214 714
f 714 804 469
f 772 257 714
f 714 214 772
f 714 1006 865
f 257 1006 714
f 865 245 714
f 245 804 714
f 765 214 471
f 471 214 45
f 471 1013 765
f 471 91 1013
f 471 45 91
f 803 459 200
f 753 75 489
f 623 459 803
f 623 770 459
f 160 781 975
f 489 75 912
f 912 864 489
f 337 781 468
f 468 753 337
f 75 753 468
f 569 493 700
f 569 648 493
f 569 728 648
f 958 648 36
f 648 728 36
f 36 327 958
f 36 728 327
f 572 922 327
f 327 728 572
f 833 416 586
f 819 441 844
f 844 441 794
f 794 441 40
f 40 672 922
f 699 775 863
f 37 479 383
f 505 530 904
f 403 530 505
f 928 543 906
f 928 178 726
f 543 928 305
f 829 274 477
f 477 274 726
f 477 381 829
f 822 829 621
f 829 67 353
f 906 543 353
f 353 782 906
f 270 814 237
f 270 491 267
f 267 814 270
f 179 478 646
f 478 1041 646
f 510 179 646
f 646 645 510
f 646 1041 645
f 1032 1041 478
f 685 1024 1032
f 1024 319 1032
f 319 1041 1032
f 1032 593 685
f 1032 478 593
f 634 188 34
f 34 71 634
f 800 188 634
f 634 1001 800
f 634 71 1001
f 151 866 1001
f 1001 180 151
f 831 895 593
f 593 180 831
f 1001 895 831
f 831 180 1001
f 23 430 212
f 212 430 697
f 212 697 772
f 136 237 34
f 34 103 136
f 136 891 237
f 136 103 462
f 462 891 136
f 462 103 302
f 302 212 462
f 302 103 188
f 23 212 302
f 302 188 350
f 350 23 302
f 501 576 669
f 669 396 501
f 682 576 501
f 501 408 682
f 1045 396 503
f 503 380 1045
f 408 501 1045
f 1045 501 396
f 1045 798 408
f 1045 380 798
f 657 206 238
f 879 238 206
f 660 238 879
f 531 589 996
f 996 589 988
f 515 635 583
f 485 635 277
f 485 473 584
f 277 473 485
f 259 180 277
f 277 635 259
f 259 536 107
f 259 635 536
f 107 96 259
f 163 360 417
f 656 1017 536
f 536 686 656
f 348 656 686
f 348 686 536
f 282 417 960
f 960 360 282
f 417 360 960
f 282 186 1028
f 1028 281 282
f 516 417 282
f 282 281 516
f 495 186 282
f 282 346 495
f 495 346 90
f 146 692 495
f 495 148 146
f 495 90 148
f 282 784 272
f 272 346 282
f 272 784 90
f 90 346 272
f 525 649 330
f 525 696 649
f 13 665 839
f 717 106 13
f 13 106 665
f 131 126 755
f 131 692 666
f 666 126 131
f 1027 744 986
f 18 1027 957
f 18 345 744
f 744 1027 18
f 693 873 636
f 108 873 693
f 636 694 693
f 693 662 285
f 694 662 693
f 285 1048 693
f 1048 108 693
f 394 295 263
f 263 356 394
f 263 1018 148
f 263 295 1018
f 148 668 263
f 668 356 263
f 87 650 366
f 366 436 87
f 650 436 366
f 920 87 573
f 573 436 920
f 87 436 573
f 621 829 900
f 900 381 621
f 829 381 900
f 827 575 561
f 561 997 827
f 827 997 575
f 706 997 276
f 276 579 706
f 194 579 878
f 878 276 239
f 878 579 276
f 654 988 597
f 517 92 763
f 517 589 92
f 763 497 517
f 497 589 517
f 262 828 426
f 66 674 120
f 518 245 865
f 1034 245 518
f 785 1034 518
f 518 931 785
f 740 290 713
f 713 290 91
f 177 336 154
f 154 757 177
f 336 381 154
f 989 757 154
f 154 477 989
f 381 477 154
f 177 91 805
f 91 474 805
f 805 474 730
f 805 931 177
f 730 931 805
f 628 891 481
f 765 1013 481
f 481 1013 628
f 481 891 678
f 481 577 765
f 481 678 577
f 489 864 720
f 14 200 373
f 373 200 459
f 770 623 702
f 624 160 975
f 975 912 624
f 624 912 75
f 168 569 817
f 728 569 168
f 168 17 728
f 728 17 310
f 310 40 922
f 310 17 794
f 794 40 310
f 17 168 43
f 43 168 817
f 885 256 904
f 904 530 885
f 88 817 976
f 976 486 88
f 817 569 976
f 88 486 859
f 859 279 88
f 979 142 819
f 819 775 979
f 948 255 819
f 863 775 941
f 378 43 183
f 378 183 88
f 794 699 671
f 671 699 863
f 657 238 984
f 984 238 660
f 799 653 1057
f 1011 828 262
f 262 1009 1011
f 403 505 376
f 397 505 904
f 904 383 397
f 383 479 397
f 397 376 505
f 365 781 337
f 365 832 781
f 365 383 938
f 938 832 365
f 105 579 507
f 301 1035 789
f 789 114 301
f 1035 301 6
f 460 836 588
f 460 284 882
f 882 836 460
f 664 338 701
f 629 664 409
f 664 629 1030
f 358 338 664
f 751 848 739
f 120 674 167
f 323 208 461
f 335 826 323
f 323 826 208
f 732 178 121
f 178 928 121
f 906 732 121
f 121 928 906
f 313 877 989
f 989 477 313
f 704 877 313
f 313 602 704
f 726 602 313
f 313 477 726
f 456 67 829
f 829 822 456
f 456 822 67
f 829 353 954
f 954 274 829
f 543 305 954
f 954 353 543
f 726 274 954
f 954 928 726
f 954 305 928
f 498 353 67
f 498 434 321
f 67 434 498
f 811 822 621
f 67 822 811
f 621 336 811
f 336 893 811
f 8 832 321
f 321 434 8
f 8 720 864
f 8 200 14
f 1053 237 643
f 643 602 1053
f 1053 270 237
f 491 270 1053
f 1053 602 161
f 161 491 1053
f 577 678 596
f 772 577 596
f 232 891 462
f 462 212 232
f 678 891 232
f 232 596 678
f 232 212 772
f 772 596 232
f 756 96 682
f 756 259 96
f 598 259 756
f 206 888 876
f 876 879 206
f 876 888 111
f 712 654 487
f 515 583 681
f 681 583 508
f 681 106 515
f 681 508 839
f 508 583 897
f 180 259 494
f 494 259 598
f 494 151 180
f 866 151 494
f 494 598 866
f 1047 220 584
f 473 220 1047
f 236 220 841
f 968 473 277
f 277 360 968
f 360 163 968
f 344 163 417
f 417 516 344
f 344 516 281
f 344 13 839
f 281 13 344
f 344 220 473
f 344 841 220
f 839 508 344
f 861 68 595
f 1017 656 806
f 656 348 806
f 987 635 515
f 536 635 987
f 595 68 99
f 899 106 717
f 306 209 281
f 281 1028 306
f 306 186 202
f 306 1028 186
f 607 525 330
f 872 13 281
f 872 209 696
f 281 209 872
f 696 525 854
f 525 607 854
f 755 696 122
f 122 131 755
f 692 131 122
f 122 696 202
f 122 495 692
f 202 186 122
f 186 495 122
f 511 457 703
f 649 696 834
f 834 696 755
f 755 126 834
f 511 703 834
f 777 511 834
f 834 234 777
f 834 126 234
f 258 351 809
f 1023 978 345
f 345 18 1023
f 340 978 1023
f 1023 18 340
f 230 997 101
f 997 706 101
f 597 447 304
f 304 654 597
f 304 487 654
f 812 1009 262
f 812 889 1009
f 679 426 828
f 723 563 828
f 674 66 716
f 763 92 500
f 500 769 763
f 697 769 500
f 500 1006 697
f 239 931 1056
f 931 518 1056
f 89 713 91
f 89 91 177
f 177 757 89
f 89 757 740
f 740 713 89
f 76 8 539
f 76 997 230
f 575 997 76
f 803 802 512
f 512 802 308
f 308 802 3
f 3 105 507
f 3 802 105
f 532 308 3
f 415 532 3
f 794 17 268
f 17 43 268
f 268 969 794
f 268 43 867
f 867 969 268
f 269 817 88
f 269 43 817
f 88 183 269
f 183 43 269
f 47 560 416
f 882 284 522
f 284 128 522
f 522 128 110
f 1051 885 530
f 560 47 140
f 140 47 416
f 933 859 486
f 927 586 416
f 416 560 927
f 927 959 766
f 927 766 833
f 833 586 927
f 752 569 700
f 752 959 569
f 37 224 260
f 260 530 403
f 655 836 882
f 819 844 144
f 144 948 819
f 144 844 794
f 863 941 638
f 867 43 909
f 43 378 909
f 145 378 994
f 994 378 620
f 248 699 794
f 794 969 248
f 248 969 699
f 951 984 799
f 1022 984 951
f 799 984 227
f 73 984 1022
f 657 984 73
f 73 382 657
f 597 382 73
f 597 73 731
f 731 73 1022
f 828 1011 412
f 115 397 479
f 376 397 115
f 472 114 1005
f 461 114 1010
f 1010 114 472
f 963 1010 472
f 342 802 803
f 803 200 342
f 342 706 579
f 342 200 230
f 418 301 114
f 418 6 301
f 418 552 6
f 418 114 461
f 324 81 797
f 504 81 324
f 119 460 588
f 119 114 789
f 588 1005 119
f 119 1005 114
f 789 1035 119
f 567 378 88
f 296 567 88
f 620 378 296
f 378 567 296
f 1030 816 847
f 847 816 542
f 977 358 664
f 338 358 464
f 747 739 848
f 615 664 747
f 1030 847 134
f 664 1030 134
f 739 167 420
f 1035 6 116
f 116 6 335
f 120 167 116
f 287 823 632
f 321 832 184
f 184 498 321
f 1049 434 67
f 67 811 1049
f 1049 811 434
f 434 811 1031
f 1031 811 893
f 1031 76 539
f 1031 893 575
f 575 76 1031
f 832 8 962
f 962 8 864
f 837 8 14
f 720 8 837
f 200 8 612
f 557 756 682
f 598 756 557
f 682 866 557
f 866 598 557
f 758 653 799
f 776 758 707
f 707 758 799
f 595 100 349
f 349 100 888
f 965 861 595
f 595 349 965
f 965 349 1039
f 807 1000 996
f 807 812 426
f 236 897 307
f 584 220 307
f 307 220 236
f 307 485 584
f 635 485 307
f 307 583 635
f 307 897 583
f 584 473 72
f 72 1047 584
f 473 1047 72
f 619 344 473
f 163 344 619
f 473 968 619
f 619 968 163
f 515 68 211
f 68 861 211
f 292 899 717
f 515 106 292
f 106 899 292
f 595 99 153
f 845 242 511
f 511 978 845
f 70 386 454
f 454 386 153
f 405 845 226
f 70 454 661
f 520 173 867
f 699 969 520
f 969 173 520
f 801 911 527
f 527 450 801
f 527 809 450
f 616 911 801
f 1038 872 696
f 696 854 388
f 388 854 13
f 388 1038 696
f 910 854 607
f 13 854 910
f 850 1027 986
f 850 118 1027
f 351 118 850
f 809 351 850
f 667 421 850
f 850 421 640
f 640 809 850
f 850 986 795
f 795 667 850
f 195 118 351
f 351 258 195
f 869 170 201
f 273 18 957
f 480 654 712
f 712 487 480
f 480 487 1009
f 1009 889 480
f 262 426 568
f 568 812 262
f 426 812 568
f 828 563 688
f 138 807 426
f 929 66 563
f 751 739 521
f 85 739 674
f 674 716 85
f 563 66 680
f 66 585 680
f 559 138 680
f 385 518 865
f 385 500 518
f 865 1006 385
f 1006 500 385
f 499 1056 320
f 230 200 993
f 993 76 230
f 56 3 507
f 507 579 56
f 56 579 194
f 882 522 152
f 152 44 882
f 127 44 152
f 882 44 907
f 224 907 737
f 737 907 44
f 715 796 127
f 633 44 127
f 760 416 819
f 760 140 416
f 565 445 760
f 819 142 760
f 760 142 526
f 760 526 565
f 930 560 551
f 930 927 560
f 530 260 253
f 253 260 224
f 224 737 253
f 253 737 1021
f 890 37 383
f 890 224 37
f 472 1005 675
f 675 963 472
f 264 144 794
f 948 144 264
f 863 638 1019
f 992 969 867
f 867 173 992
f 992 173 969
f 775 699 519
f 699 729 519
f 217 1011 733
f 95 30 799
f 799 1057 95
f 339 581 137
f 461 1010 637
f 1010 963 637
f 637 62 461
f 165 532 415
f 770 702 165
f 803 512 165
f 610 165 415
f 963 165 610
f 383 365 490
f 365 414 490
f 773 759 825
f 813 365 337
f 359 414 813
f 147 813 413
f 413 813 337
f 601 342 579
f 802 342 601
f 719 826 335
f 335 6 719
f 6 552 719
f 233 847 542
f 228 847 233
f 830 797 81
f 354 300 620
f 620 296 354
f 354 296 611
f 701 300 354
f 409 664 354
f 664 701 354
f 1035 504 592
f 592 119 1035
f 324 128 1003
f 1029 816 409
f 409 354 1029
f 204 739 710
f 204 167 739
f 578 847 228
f 848 950 299
f 299 747 848
f 615 747 311
f 570 847 710
f 570 134 847
f 840 747 664
f 664 134 840
f 134 570 840
f 739 747 840
f 710 739 840
f 840 570 710
f 674 739 156
f 739 420 156
f 64 848 751
f 35 64 581
f 741 823 287
f 741 62 823
f 461 62 741
f 741 323 461
f 939 184 832
f 939 832 906
f 906 782 939
f 353 498 939
f 498 184 939
f 434 1031 509
f 509 1031 539
f 8 76 590
f 590 612 8
f 888 1039 216
f 216 349 888
f 1039 349 216
f 164 806 348
f 861 965 164
f 164 348 536
f 536 987 164
f 249 888 206
f 206 749 249
f 249 749 888
f 251 1039 888
f 888 749 251
f 1000 807 109
f 109 391 1000
f 889 812 905
f 812 807 905
f 905 807 996
f 905 996 988
f 988 654 905
f 654 480 905
f 905 480 889
f 996 1000 322
f 1000 391 322
f 322 320 518
f 518 500 322
f 322 500 92
f 322 92 531
f 531 996 322
f 538 585 181
f 745 987 515
f 515 211 745
f 888 100 535
f 999 100 595
f 788 427 330
f 330 649 788
f 649 457 788
f 511 242 788
f 788 457 511
f 695 153 99
f 695 454 153
f 515 292 695
f 427 788 193
f 405 226 193
f 193 788 405
f 991 617 918
f 845 617 991
f 1026 520 867
f 934 520 1026
f 223 520 934
f 261 406 815
f 911 616 544
f 265 170 422
f 201 170 783
f 783 170 265
f 465 820 250
f 197 869 201
f 18 273 367
f 340 18 367
f 871 273 957
f 170 273 871
f 957 422 871
f 871 422 170
f 170 869 59
f 59 273 170
f 59 367 273
f 778 679 828
f 828 688 778
f 426 679 982
f 982 138 426
f 1014 723 751
f 1014 718 723
f 563 723 902
f 902 929 563
f 723 718 902
f 533 716 66
f 533 400 716
f 482 521 716
f 751 521 482
f 716 400 482
f 482 1014 751
f 559 680 724
f 724 680 585
f 585 538 724
f 724 538 391
f 724 109 559
f 391 109 724
f 513 391 181
f 641 1056 518
f 518 320 641
f 641 320 1056
f 84 241 1056
f 3 241 84
f 287 185 947
f 652 741 947
f 947 741 287
f 1 241 3
f 3 56 1
f 1056 241 604
f 239 1056 604
f 604 56 194
f 194 878 604
f 604 878 239
f 451 152 522
f 127 796 943
f 943 633 127
f 943 796 1021
f 1021 737 943
f 246 760 445
f 551 560 130
f 560 140 130
f 140 483 130
f 569 959 764
f 449 483 127
f 449 130 483
f 271 1005 588
f 271 675 1005
f 224 890 334
f 341 675 334
f 255 1019 286
f 286 941 775
f 286 638 941
f 286 1019 638
f 286 775 819
f 819 255 286
f 974 729 911
f 911 544 974
f 1011 217 838
f 838 217 30
f 748 227 984
f 748 984 660
f 748 707 227
f 707 748 983
f 950 936 599
f 615 311 599
f 599 311 950
f 594 936 950
f 594 581 339
f 594 35 581
f 936 594 442
f 30 95 901
f 30 901 1008
f 1008 901 355
f 355 339 1008
f 339 137 1008
f 751 412 942
f 942 412 1011
f 790 759 963
f 790 675 54
f 963 675 790
f 790 825 759
f 439 413 770
f 770 165 439
f 963 759 727
f 727 165 963
f 759 439 727
f 727 439 165
f 532 165 852
f 852 165 512
f 415 632 1007
f 1007 610 415
f 1007 632 823
f 963 610 1007
f 341 825 452
f 54 675 452
f 452 675 341
f 452 790 54
f 825 790 452
f 359 773 792
f 773 825 792
f 792 414 359
f 792 490 414
f 383 490 792
f 383 792 1054
f 1054 792 825
f 548 414 365
f 365 813 548
f 548 813 414
f 770 413 502
f 489 770 502
f 502 753 489
f 921 719 552
f 921 418 461
f 552 418 921
f 956 233 937
f 956 937 81
f 81 504 956
f 644 830 542
f 797 830 644
f 240 233 542
f 542 830 240
f 859 933 914
f 571 980 914
f 914 128 324
f 110 128 914
f 914 771 110
f 19 592 504
f 542 816 143
f 816 1029 143
f 1050 571 797
f 1050 980 571
f 932 578 228
f 167 578 932
f 1035 116 932
f 932 116 167
f 199 578 167
f 847 578 199
f 167 204 199
f 950 311 150
f 150 311 747
f 562 950 848
f 562 594 950
f 35 594 562
f 323 741 691
f 689 793 3
f 652 793 689
f 689 741 652
f 580 741 689
f 3 793 7
f 415 3 7
f 556 372 580
f 556 513 181
f 320 513 556
f 125 372 585
f 782 353 618
f 618 939 782
f 353 939 618
f 488 876 111
f 879 876 488
f 488 983 879
f 707 983 488
f 213 965 1039
f 213 164 965
f 746 749 206
f 746 251 749
f 746 206 669
f 1039 251 746
f 559 109 774
f 774 109 807
f 774 138 559
f 807 138 774
f 181 391 603
f 603 538 181
f 391 538 603
f 392 535 100
f 123 535 392
f 100 999 392
f 392 999 123
f 111 888 470
f 888 535 470
f 123 999 1046
f 1046 386 70
f 1046 999 595
f 242 845 225
f 225 788 242
f 132 845 970
f 132 617 845
f 970 9 132
f 132 9 617
f 1012 292 717
f 1012 695 292
f 717 13 1012
f 13 910 1012
f 944 226 918
f 387 377 944
f 918 226 402
f 402 991 918
f 835 226 845
f 845 991 835
f 918 617 29
f 617 9 29
f 842 1026 867
f 934 1026 842
f 699 520 331
f 520 223 331
f 529 223 261
f 261 815 529
f 529 729 699
f 699 331 529
f 529 331 223
f 1043 406 261
f 79 979 775
f 616 1025 79
f 79 544 616
f 195 422 514
f 118 195 514
f 218 195 258
f 218 422 195
f 265 422 218
f 258 808 218
f 564 783 265
f 466 258 809
f 809 946 466
f 809 527 791
f 791 946 809
f 791 527 911
f 613 820 465
f 458 820 316
f 316 318 458
f 201 250 104
f 205 845 978
f 970 845 205
f 391 513 908
f 908 513 320
f 908 322 391
f 320 322 908
f 241 1 370
f 370 1 56
f 370 604 241
f 56 604 370
f 1051 246 642
f 642 246 445
f 760 246 1044
f 715 705 440
f 530 715 440
f 440 1051 530
f 959 927 133
f 133 914 933
f 771 914 133
f 927 930 133
f 475 976 569
f 475 933 486
f 486 976 475
f 569 764 475
f 475 133 933
f 475 764 959
f 959 133 475
f 42 133 930
f 446 133 42
f 588 836 708
f 675 271 411
f 411 334 675
f 224 334 411
f 411 271 588
f 588 708 411
f 411 655 882
f 58 519 729
f 729 974 58
f 799 30 1016
f 30 217 1016
f 355 734 1052
f 1052 207 355
f 653 55 221
f 221 1057 653
f 145 464 916
f 916 378 145
f 916 464 358
f 936 442 534
f 355 207 467
f 467 442 594
f 467 339 355
f 467 594 339
f 293 942 1011
f 751 942 558
f 558 137 581
f 558 64 751
f 581 64 558
f 773 439 547
f 547 759 773
f 547 439 759
f 147 413 328
f 413 439 328
f 444 1007 637
f 444 637 963
f 963 1007 444
f 890 1054 215
f 83 825 341
f 83 1054 825
f 83 215 1054
f 736 890 383
f 537 956 504
f 233 956 537
f 228 233 537
f 1035 932 537
f 537 932 228
f 870 1029 354
f 870 354 611
f 870 1050 1029
f 980 1050 870
f 611 296 870
f 279 859 870
f 88 279 870
f 870 296 88
f 859 914 870
f 870 914 980
f 21 914 324
f 571 914 21
f 324 797 21
f 797 571 21
f 303 504 324
f 303 19 504
f 592 19 309
f 460 119 309
f 119 592 309
f 315 691 741
f 189 1056 499
f 189 84 1056
f 3 84 647
f 659 185 415
f 415 7 659
f 659 947 185
f 917 689 499
f 499 320 917
f 320 556 917
f 580 689 917
f 917 556 580
f 787 585 66
f 787 60 691
f 120 60 787
f 787 66 120
f 691 315 787
f 580 372 129
f 372 125 129
f 125 787 129
f 985 221 711
f 776 707 711
f 711 221 55
f 171 488 111
f 16 213 1039
f 1039 746 16
f 1017 806 16
f 669 1017 16
f 16 746 669
f 806 164 16
f 164 213 16
f 972 910 210
f 972 1012 910
f 454 695 743
f 695 1012 743
f 743 377 387
f 683 377 743
f 743 661 454
f 70 661 743
f 226 944 432
f 883 944 918
f 868 591 25
f 853 591 868
f 316 591 853
f 853 318 316
f 46 318 853
f 343 363 166
f 298 25 591
f 298 883 176
f 78 541 918
f 918 29 78
f 762 46 995
f 46 541 995
f 995 9 762
f 995 29 9
f 192 815 911
f 192 529 815
f 911 729 192
f 729 529 192
f 979 79 219
f 219 79 1025
f 957 1027 903
f 903 422 957
f 903 514 422
f 1027 118 903
f 118 514 903
f 651 808 369
f 651 218 808
f 265 218 651
f 651 564 265
f 369 564 651
f 201 783 33
f 783 564 33
f 33 250 201
f 258 466 429
f 11 458 318
f 11 46 762
f 11 318 46
f 869 197 810
f 197 919 810
f 810 59 869
f 677 978 340
f 677 205 978
f 970 205 818
f 169 715 127
f 169 705 715
f 880 246 1051
f 1051 440 880
f 198 133 446
f 198 451 522
f 446 42 1002
f 1002 42 449
f 1002 449 127
f 41 411 708
f 655 411 41
f 733 1011 63
f 738 951 799
f 799 1016 738
f 898 1052 734
f 734 221 670
f 615 599 368
f 368 664 615
f 368 977 664
f 69 909 378
f 378 916 69
f 297 293 1008
f 297 1008 137
f 858 1054 890
f 890 736 858
f 566 448 460
f 460 309 566
f 566 1003 448
f 324 1003 566
f 926 689 3
f 3 647 926
f 684 647 84
f 84 189 684
f 499 689 684
f 684 189 499
f 687 125 585
f 585 787 687
f 687 787 125
f 540 787 315
f 540 129 787
f 985 711 117
f 707 488 117
f 117 711 707
f 2 171 123
f 2 1046 70
f 123 1046 2
f 2 343 1040
f 70 779 2
f 779 363 2
f 363 343 2
f 210 193 157
f 157 193 226
f 280 743 387
f 821 683 226
f 226 432 821
f 352 944 377
f 352 432 944
f 868 883 1004
f 1004 853 868
f 70 743 690
f 690 779 70
f 1040 343 31
f 196 343 407
f 453 343 196
f 155 61 990
f 990 61 550
f 722 298 750
f 887 591 316
f 750 298 887
f 887 722 750
f 61 722 887
f 317 298 176
f 25 298 317
f 546 298 896
f 883 298 546
f 944 883 546
f 627 159 261
f 1036 159 627
f 261 223 627
f 627 223 934
f 934 1036 627
f 162 1043 261
f 261 159 162
f 465 250 549
f 250 33 549
f 406 1043 554
f 367 59 625
f 59 810 625
f 340 367 625
f 205 677 288
f 127 483 698
f 698 169 127
f 698 483 140
f 451 198 425
f 425 198 446
f 174 1016 217
f 174 63 1016
f 98 1011 1009
f 98 63 1011
f 1009 487 98
f 98 735 63
f 98 447 597
f 98 304 447
f 487 304 98
f 597 731 98
f 951 735 98
f 1022 951 98
f 364 221 985
f 364 670 221
f 333 898 734
f 734 670 333
f 934 842 113
f 113 842 867
f 942 293 4
f 293 297 4
f 609 2 1040
f 609 117 488
f 488 171 65
f 171 2 65
f 38 972 210
f 210 157 38
f 721 157 226
f 226 683 721
f 683 743 721
f 97 343 27
f 27 343 166
f 166 280 27
f 896 280 1015
f 1015 280 387
f 1015 546 896
f 631 883 918
f 631 1004 883
f 918 541 631
f 631 541 46
f 725 690 743
f 725 280 166
f 743 280 725
f 407 343 51
f 97 896 124
f 124 343 97
f 658 61 283
f 61 155 283
f 283 155 407
f 407 347 283
f 283 347 658
f 935 155 780
f 407 155 935
f 820 613 244
f 709 61 658
f 658 347 709
f 314 298 74
f 298 722 74
f 149 298 591
f 591 887 149
f 149 887 298
f 406 554 191
f 191 554 1043
f 191 1043 465
f 465 549 191
f 191 33 564
f 191 549 33
f 369 808 389
f 946 924 389
f 389 466 946
f 389 808 258
f 258 429 389
f 389 429 466
f 911 815 496
f 496 791 911
f 894 104 250
f 894 250 820
f 201 104 894
f 894 428 201
f 820 458 894
f 357 677 340
f 340 625 357
f 169 698 361
f 760 1044 361
f 1016 63 892
f 63 735 892
f 15 364 985
f 15 343 453
f 15 31 343
f 399 534 442
f 399 964 670
f 289 964 86
f 86 467 289
f 670 964 289
f 289 467 207
f 175 1036 934
f 934 203 175
f 934 113 231
f 231 203 934
f 69 203 231
f 909 69 231
f 867 909 231
f 231 113 867
f 961 609 488
f 10 38 157
f 10 608 38
f 1012 608 10
f 574 347 407
f 407 51 574
f 574 298 314
f 896 298 574
f 768 124 896
f 896 574 768
f 768 574 51
f 786 1037 407
f 670 1037 786
f 291 935 1036
f 187 887 24
f 24 244 187
f 1043 254 630
f 465 1043 630
f 630 254 187
f 630 613 465
f 187 244 630
f 630 244 613
f 187 254 172
f 61 887 172
f 172 887 187
f 93 722 61
f 61 709 93
f 93 709 347
f 102 254 1043
f 1043 294 102
f 990 550 102
f 102 294 990
f 158 162 159
f 159 523 158
f 824 159 1036
f 824 523 159
f 1036 935 824
f 824 935 780
f 390 294 1043
f 406 191 476
f 476 815 406
f 369 389 329
f 329 564 369
f 924 191 329
f 329 389 924
f 329 191 564
f 506 191 924
f 506 496 815
f 506 476 191
f 815 476 506
f 791 496 855
f 855 496 924
f 946 791 855
f 855 924 946
f 428 375 371
f 371 919 197
f 371 197 201
f 201 428 371
f 371 810 919
f 371 625 810
f 371 357 625
f 288 375 52
f 205 288 52
f 605 375 428
f 605 52 375
f 626 9 970
f 762 9 626
f 458 11 484
f 484 894 458
f 94 361 1044
f 169 361 94
f 395 15 985
f 31 15 395
f 407 364 410
f 364 15 410
f 670 364 379
f 379 1037 670
f 1036 175 881
f 881 175 203
f 881 291 1036
f 22 368 599
f 22 599 936
f 2 609 5
f 609 961 5
f 28 743 1012
f 1012 10 28
f 407 935 12
f 12 786 407
f 935 786 12
f 244 24 587
f 587 887 316
f 587 24 887
f 820 244 587
f 39 172 254
f 254 102 39
f 990 523 135
f 523 824 135
f 135 155 990
f 780 155 135
f 673 158 523
f 162 158 673
f 1043 162 673
f 673 390 1043
f 924 496 443
f 443 506 924
f 496 506 443
f 761 605 428
f 761 484 11
f 428 894 761
f 894 484 761
f 423 11 762
f 52 605 435
f 949 435 605
f 332 196 407
f 407 410 332
f 534 399 77
f 77 399 670
f 670 786 374
f 936 534 849
f 849 886 936
f 606 22 916
f 368 22 606
f 936 886 235
f 235 22 936
f 886 849 235
f 916 22 50
f 22 235 50
f 139 676 291
f 139 881 203
f 291 881 139
f 1020 761 11
f 605 761 1020
f 11 423 1020
f 605 626 971
f 971 949 605
f 970 818 971
f 971 626 970
f 80 77 48
f 48 849 80
f 48 77 670
f 670 374 48
f 600 786 935
f 600 374 786
f 935 291 600
f 600 48 374
f 247 139 203
f 463 69 916
f 916 50 463
f 326 247 235
f 326 235 849
f 326 600 291
f 849 48 326
f 48 600 326
f 291 676 326
f 851 463 50
f 851 50 235
f 235 247 851
f 266 247 203
f 266 851 247
f 266 203 69
f 69 463 266
f 463 851 266
f 967 1042 1055
f 222 1042 967
f 1055 49 967
f 967 49 925
f 40 441 404
f 404 672 40
f 624 468 781
f 781 160 624
f 75 468 624
f 310 572 728
f 922 572 310
f 665 106 681
f 839 665 681
f 344 897 236
f 236 841 344
f 508 897 344
f 696 209 306
f 202 696 306
f 834 703 457
f 834 457 649
f 493 766 752
f 700 493 752
f 766 959 752
f 412 723 828
f 751 723 412
f 403 376 115
f 115 260 403
f 479 37 115
f 37 260 115
f 230 101 342
f 342 101 706
f 816 629 409
f 816 1030 629
f 620 300 464
f 145 994 464
f 464 701 338
f 464 994 620
f 464 300 701
f 962 912 975
f 975 832 962
f 864 912 962
f 489 720 837
f 837 459 489
f 14 373 837
f 837 373 459
f 799 227 707
f 872 1038 388
f 13 872 388
f 716 521 85
f 85 521 739
f 185 632 415
f 287 632 185
f 1021 796 253
f 253 715 530
f 796 715 253
f 1019 264 794
f 794 671 1019
f 255 948 1019
f 1019 671 863
f 948 264 1019
f 165 702 623
f 165 623 803
f 105 802 601
f 579 105 601
f 284 460 1003
f 1003 128 284
f 460 448 1003
f 156 420 167
f 156 167 674
f 539 8 509
f 509 8 434
f 590 993 200
f 200 612 590
f 76 993 590
f 745 211 861
f 861 164 745
f 745 164 987
f 695 99 68
f 695 68 515
f 330 427 193
f 193 607 330
f 210 910 193
f 193 910 607
f 563 680 982
f 982 688 563
f 679 778 982
f 982 680 138
f 982 778 688
f 718 1014 482
f 66 929 482
f 482 902 718
f 482 533 66
f 929 902 482
f 400 533 482
f 943 737 44
f 44 633 943
f 660 879 983
f 983 748 660
f 852 512 308
f 852 308 532
f 62 637 1007
f 823 62 1007
f 337 753 502
f 502 413 337
f 208 826 921
f 461 208 921
f 826 719 921
f 81 937 240
f 240 830 81
f 937 233 240
f 542 143 1050
f 1050 644 542
f 797 644 1050
f 1050 143 1029
f 199 204 710
f 710 847 199
f 747 299 150
f 150 299 950
f 64 35 562
f 848 64 562
f 585 372 556
f 181 585 556
f 153 386 1046
f 595 153 1046
f 405 788 225
f 225 845 405
f 991 402 835
f 835 402 226
f 885 1051 642
f 256 885 642
f 642 445 455
f 455 256 642
f 551 130 42
f 42 930 551
f 130 449 42
f 411 907 224
f 882 907 411
f 58 79 775
f 775 519 58
f 58 974 544
f 544 79 58
f 355 901 221
f 221 734 355
f 221 95 1057
f 221 901 95
f 30 1008 293
f 1011 838 293
f 293 838 30
f 359 813 328
f 328 773 359
f 328 813 147
f 328 439 773
f 341 334 83
f 83 334 890
f 890 215 83
f 537 504 1035
f 120 116 60
f 335 323 60
f 60 116 335
f 323 691 60
f 652 947 659
f 659 793 652
f 659 7 793
f 711 758 776
f 653 758 711
f 711 55 653
f 171 535 123
f 111 470 171
f 171 470 535
f 541 78 995
f 995 78 29
f 219 450 142
f 801 450 219
f 142 979 219
f 219 616 801
f 219 1025 616
f 198 522 110
f 110 771 198
f 771 133 198
f 41 708 836
f 836 655 41
f 858 736 383
f 383 1054 858
f 566 303 324
f 566 309 19
f 19 303 566
f 684 926 647
f 689 926 684
f 540 315 741
f 540 741 580
f 580 129 540
f 683 821 352
f 352 377 683
f 352 821 432
f 176 883 317
f 317 883 868
f 868 25 317
f 152 451 425
f 127 152 425
f 425 1002 127
f 446 1002 425
f 733 63 174
f 174 217 733
f 98 731 1022
f 4 558 942
f 137 558 4
f 4 297 137
f 27 280 896
f 27 896 97
f 944 546 1015
f 387 944 1015
f 853 1004 631
f 46 853 631
f 725 363 779
f 166 363 725
f 779 690 725
f 361 698 140
f 140 760 361
f 951 738 892
f 892 735 951
f 892 738 1016
f 442 467 399
f 399 467 86
f 86 964 399
f 207 1052 289
f 1052 898 289
f 898 333 289
f 289 333 670
f 972 38 608
f 1012 972 608
f 768 51 343
f 343 124 768
f 93 574 314
f 314 74 93
f 93 74 722
f 347 574 93
f 371 288 677
f 677 357 371
f 371 375 288
f 705 169 94
f 94 440 705
f 94 1044 246
f 246 880 94
f 94 880 440
f 395 609 1040
f 985 117 395
f 1040 31 395
f 117 609 395
f 407 1037 379
f 379 364 407
f 488 65 5
f 5 961 488
f 5 65 2
f 157 721 28
f 28 721 743
f 28 10 157
f 316 820 587
f 61 172 39
f 39 550 61
f 39 102 550
f 135 824 780
f 673 523 990
f 990 294 673
f 294 390 673
f 332 15 453
f 453 196 332
f 332 410 15
f 534 77 849
f 849 77 80
f 977 368 606
f 358 977 606
f 606 916 358
f 1020 626 605
f 762 626 1020
f 1020 423 762
f 205 52 971
f 971 818 205
f 52 435 971
f 435 949 971
f 676 139 326
f 139 247 326

