# https://github.com/mikedh/trimesh
v -0.04863554 0.03036277 -0.09515566
v -0.04875000 0.04748079 -0.08967559
v -0.04875000 0.01131373 -0.05002968
v -0.04875018 0.04043555 -0.07785356
v -0.04814494 0.04387808 -0.05053813
v -0.04875019 0.04994167 -0.07171932
v -0.04873690 0.00537763 -0.09032929
v -0.04830991 0.04400906 -0.09910405
v -0.04873781 0.00373149 -0.09028134
v -0.04818306 0.01449400 -0.09993584
v -0.04874130 0.04980843 -0.09011800
v -0.04875000 0.01805433 -0.05002078
v -0.04863609 0.02800621 -0.09514506
v -0.04866871 0.03754813 -0.09363851
v -0.04875011 0.04997329 -0.06593307
v -0.04830931 0.04698083 -0.09910935
v -0.04851582 0.00010831 -0.09643921
v -0.04843137 0.04658240 -0.09793774
v -0.04822055 0.04678104 -0.09988238
v -0.04874872 0.04559842 -0.08975776
v -0.04842340 0.00009497 -0.09741042
v -0.04863329 0.00065335 -0.09519219
v -0.04848553 0.03357118 -0.09720010
v -0.04822144 0.04112013 -0.09987454
v -0.04875018 0.04917938 -0.07635845
v -0.03678705 0.04997325 -0.05012443
v -0.04870650 0.04856841 -0.05758241
v -0.04875000 0.00030263 -0.08910644
v -0.04857107 0.01162968 -0.09600620
v -0.04860622 0.04997094 -0.09554543
v -0.04875000 0.03872806 -0.05036149
v -0.04875002 0.04982561 -0.05968436
v -0.04875007 0.04992744 -0.06325351
v -0.04828728 0.00055116 -0.09884078
v -0.04864275 0.04931660 -0.09489728
v -0.04819946 0.02777262 -0.09996213
v -0.04874577 0.00647297 -0.08990103
v -0.04873487 0.00037910 -0.09040915
v -0.04872408 0.04987092 -0.09095285
v -0.04819153 0.00360106 -0.09984689
v -0.04852191 0.02570498 -0.09671174
v -0.04827291 0.04941043 -0.09942643
v -0.03696426 0.04921178 -0.05126514
v -0.04833576 0.04985082 -0.05648275
v -0.04875020 0.04485756 -0.07651274
v -0.04875000 0.03056503 -0.05001487
v -0.04866284 0.04075470 -0.09392354
v -0.04875000 0.04990068 -0.08922426
v -0.04845680 0.04980113 -0.09758826
v -0.04875000 0.04917921 -0.08965095
v -0.04875000 0.00008927 -0.05094542
v -0.04863364 0.00687779 -0.09519465
v -0.04875000 0.00232310 -0.05004210
v -0.04873184 0.00948335 -0.09057689
v -0.04866699 0.03829990 -0.09372207
v -0.04865880 0.04208495 -0.09411953
v -0.04866809 0.04238870 -0.05075893
v -0.04839218 0.04664674 -0.09833408
v -0.04823370 0.00094773 -0.09940377
v -0.04868070 0.04937170 -0.09305701
v -0.04873651 0.00204101 -0.09033705
v -0.04593795 0.04599077 -0.05022745
v -0.04863393 0.04363593 -0.09517017
v -0.04872608 0.00011607 -0.09082244
v -0.04874980 0.02084913 -0.08970568
v -0.04865022 0.00007581 -0.09439312
v -0.04875001 0.04939682 -0.05888964
v -0.04874211 0.00545768 -0.09007847
v -0.04863812 0.03977783 -0.09508548
v -0.04875015 0.04998939 -0.07713864
v -0.04874861 0.01528408 -0.08976338
v -0.04875000 0.04063603 -0.05114075
v -0.04135999 0.04649750 -0.05003762
v -0.04875000 0.00000540 -0.08819917
v -0.04824286 0.03762291 -0.09968256
v -0.04840520 0.04700247 -0.09820975
v -0.04817620 0.04382244 -0.05056993
v -0.03689714 0.04974000 -0.05282538
v -0.04875006 0.01445987 -0.08543538
v -0.04875000 0.00030659 -0.05071178
v -0.04875020 0.04897618 -0.07273392
v -0.04832239 0.04608606 -0.09899546
v -0.04875000 0.00137748 -0.08969453
v -0.04858334 0.00033700 -0.09572971
v -0.04826607 0.04967792 -0.09948602
v -0.04848415 0.03440014 -0.09722308
v -0.04864166 0.04253092 -0.05075020
v -0.04865985 0.04757000 -0.09406835
v -0.04821468 0.04141811 -0.09993342
v -0.04862310 0.04896218 -0.05715578
v -0.04875000 0.00001607 -0.07230882
v -0.04863231 0.00209285 -0.09521578
v -0.04832718 0.04514591 -0.09895373
v -0.04823725 0.03695301 -0.09972805
v -0.04865206 0.04663888 -0.09444610
f 26 85 30
f 78 85 26
f 26 51 34
f 59 78 34
f 26 44 62
f 44 5 62
f 15 44 26
f 45 51 80
f 80 51 26
f 26 53 80
f 79 74 45
f 43 78 26
f 26 34 43
f 43 34 78
f 21 34 51
f 26 62 73
f 73 62 46
f 73 53 26
f 73 3 53
f 26 30 70
f 70 15 26
f 74 79 28
f 83 28 79
f 40 78 59
f 40 10 78
f 74 21 91
f 91 21 51
f 45 74 91
f 91 51 45
f 59 34 18
f 31 87 57
f 5 87 31
f 46 62 31
f 31 62 5
f 12 73 46
f 3 73 12
f 48 70 30
f 15 70 6
f 46 31 6
f 6 12 46
f 3 12 6
f 53 3 6
f 83 68 7
f 66 21 74
f 4 79 45
f 4 83 79
f 63 35 30
f 85 78 19
f 59 18 76
f 90 87 44
f 57 87 90
f 77 5 44
f 44 87 77
f 77 87 5
f 67 90 44
f 25 6 70
f 70 48 25
f 48 11 50
f 45 25 50
f 50 25 48
f 74 28 64
f 64 66 74
f 58 40 59
f 59 76 58
f 49 76 18
f 49 30 85
f 85 76 49
f 72 31 57
f 57 67 72
f 15 6 72
f 72 6 31
f 57 90 27
f 27 67 57
f 90 67 27
f 81 25 45
f 6 25 81
f 45 80 81
f 53 6 81
f 81 80 53
f 65 71 83
f 20 65 2
f 2 11 20
f 2 50 11
f 2 65 83
f 83 4 2
f 2 4 45
f 45 50 2
f 37 68 83
f 83 71 37
f 7 14 55
f 54 7 68
f 54 14 7
f 28 83 38
f 38 64 28
f 21 66 17
f 35 63 69
f 36 40 94
f 10 40 36
f 78 10 36
f 40 58 93
f 93 58 76
f 32 72 67
f 32 67 44
f 35 60 39
f 30 35 39
f 39 48 30
f 39 11 48
f 35 95 88
f 88 60 35
f 56 55 14
f 14 47 56
f 56 47 95
f 56 95 35
f 83 7 9
f 66 22 84
f 84 17 66
f 21 17 23
f 17 84 23
f 34 21 23
f 23 18 34
f 1 69 63
f 89 19 78
f 78 36 89
f 89 36 94
f 24 89 75
f 75 89 94
f 94 40 75
f 40 93 75
f 82 93 76
f 15 72 33
f 72 32 33
f 44 15 33
f 33 32 44
f 61 38 83
f 83 9 61
f 29 84 22
f 22 92 41
f 41 29 22
f 41 23 84
f 84 29 41
f 69 1 13
f 24 75 8
f 8 75 93
f 42 76 85
f 18 23 86
f 23 41 86
f 52 1 92
f 52 13 1
f 52 92 22
f 16 82 76
f 76 42 16
f 68 37 88
f 88 65 20
f 20 11 88
f 95 47 88
f 88 54 68
f 71 65 88
f 11 39 88
f 88 37 71
f 14 54 88
f 88 47 14
f 88 39 60
f 86 49 18
f 86 1 63
f 30 49 86
f 86 63 30
f 92 1 86
f 86 41 92
f 35 69 52
f 66 64 52
f 52 56 35
f 52 22 66
f 7 55 52
f 64 38 52
f 38 61 52
f 55 56 52
f 52 9 7
f 52 61 9
f 69 13 52
f 85 19 16
f 19 89 16
f 24 8 16
f 16 89 24
f 93 82 16
f 16 8 93
f 16 42 85

