# https://github.com/mikedh/trimesh
v 0.03500870 0.05359872 -0.03606323
v 0.03269360 0.05490693 -0.04766747
v 0.03387597 0.05452674 -0.04941473
v 0.03359268 0.05464088 -0.03894622
v 0.03394455 0.05448258 -0.03828992
v 0.03613825 0.05240253 -0.04335419
v 0.03663273 0.05113082 -0.03873394
v 0.03189941 0.05499099 -0.04066391
v 0.03671448 0.05057280 -0.03634758
v 0.02725077 0.05000709 -0.03520000
v 0.03167922 0.05499749 -0.03728411
v 0.03597206 0.05269445 -0.04770392
v 0.03199635 0.05498692 -0.04784178
v 0.03643036 0.05178329 -0.04807147
v 0.03266352 0.05489046 -0.03618018
v 0.03667700 0.05084112 -0.03658262
v 0.03214920 0.05496738 -0.03837551
v 0.03321966 0.05476974 -0.03830610
v 0.03281790 0.05434062 -0.03568460
v 0.00021800 0.05003253 -0.02776506
v 0.03652624 0.05146464 -0.03683296
v 0.03670820 0.05067968 -0.04422661
v 0.03326751 0.05350621 -0.03520000
v 0.03299463 0.05483426 -0.04397144
v 0.03430520 0.05429338 -0.03747895
v 0.03583167 0.05288064 -0.03767091
v 0.00031052 0.05499749 -0.04792768
v 0.03644380 0.05174680 -0.04666775
v 0.03245059 0.05494615 -0.04217659
v 0.03605502 0.05255742 -0.04723395
v 0.00322700 0.05499749 -0.04986561
v 0.03219179 0.05497533 -0.04883569
v 0.03668557 0.05085955 -0.04971149
v 0.00061991 0.05105793 -0.03480695
v 0.03539930 0.05342421 -0.04102887
v 0.03565061 0.05313640 -0.04716865
v 0.03360427 0.05463772 -0.04062128
v 0.00012663 0.05499749 -0.04393288
v 0.00665240 0.05499749 -0.04989387
v 0.00399944 0.05090780 -0.02780525
v 0.03574499 0.05301354 -0.04725731
v 0.03555636 0.05242472 -0.03570582
v 0.03418616 0.05398974 -0.03588171
v 0.03182000 0.05499494 -0.04448952
v 0.00623528 0.05033920 -0.02776506
v 0.03253759 0.05493516 -0.03920434
v 0.00099708 0.05104496 -0.02778417
v 0.03307809 0.05390473 -0.03532628
v 0.03678086 0.05008301 -0.03972966
v 0.03174640 0.05499749 -0.04362441
v 0.03257615 0.05493013 -0.04205425
v 0.03503646 0.05059138 -0.03520000
v 0.00113324 0.05499749 -0.04867146
v 0.03663560 0.05112040 -0.03807801
v 0.03361789 0.05420973 -0.03581846
v 0.03675886 0.05025275 -0.04858261
v 0.03300721 0.05482335 -0.03724400
v 0.03629778 0.05209122 -0.04242053
v 0.03158763 0.05499749 -0.04894901
v 0.03485621 0.05392499 -0.03744491
v 0.03678289 0.05005134 -0.04391779
v 0.03597530 0.05268976 -0.04093028
v 0.03664565 0.05107265 -0.03980967
v 0.03494456 0.05145948 -0.03520000
v 0.03436472 0.05339847 -0.03548798
v 0.03500951 0.05379532 -0.04872187
v 0.03445074 0.05419444 -0.03624381
v 0.00022428 0.05499749 -0.03626330
v 0.01113122 0.05499749 -0.04987278
v 0.03456924 0.05412271 -0.04186491
v 0.03610517 0.05246988 -0.04917598
v 0.03343547 0.05470887 -0.04788045
v 0.00012242 0.05442880 -0.03563131
v 0.00317755 0.05087301 -0.02776506
v 0.00005063 0.05107750 -0.03092048
v 0.03567964 0.05308977 -0.04146428
v 0.03033488 0.05499749 -0.03623898
v 0.00037118 0.05106648 -0.03399211
v 0.03262369 0.05492154 -0.03656243
v 0.03493055 0.05386396 -0.04079006
v 0.03424791 0.05350106 -0.03550843
v 0.03625161 0.05216795 -0.03714252
v 0.03351307 0.05467783 -0.04103219
v 0.03553606 0.05327583 -0.04527088
v 0.03649837 0.05155133 -0.03659851
v 0.03422847 0.05434560 -0.04305027
v 0.01155332 0.05007868 -0.03520000
v 0.03602894 0.05260295 -0.04540129
v 0.03565044 0.05313660 -0.04687684
v 0.00124780 0.05082252 -0.02776506
v 0.03499697 0.05380622 -0.04413133
v 0.03263388 0.05491985 -0.04681514
v 0.03594179 0.05273837 -0.04195460
v 0.03406627 0.05443072 -0.04046762
v 0.03662684 0.05115224 -0.03901158
v 0.03668858 0.05081637 -0.04388057
v 0.03192826 0.05498493 -0.03738431
v 0.00894463 0.05014141 -0.03520000
v 0.03655697 0.05138568 -0.04168159
v 0.01648141 0.05499026 -0.03619277
v 0.03641203 0.05183118 -0.03895272
v 0.03260186 0.05492677 -0.04473535
v 0.03674276 0.05040762 -0.04677270
v 0.03183984 0.05499348 -0.03836668
v 0.00263867 0.05499749 -0.03623375
v 0.03523903 0.05094836 -0.03520000
v 0.00056525 0.05119582 -0.03520000
v 0.03249059 0.05494129 -0.04111634
v 0.03625111 0.05219253 -0.04694287
v 0.00051372 0.05499749 -0.04828083
v 0.02594345 0.05499749 -0.04970684
v 0.03531137 0.05350110 -0.03690913
v 0.03510107 0.05371170 -0.04457052
v 0.03510959 0.05370083 -0.04273061
v 0.03648620 0.05162015 -0.04500804
v 0.03417813 0.05437576 -0.04125208
v 0.03673861 0.05042724 -0.03963480
v 0.03549633 0.05332419 -0.03671443
v 0.03677097 0.05015123 -0.04739635
v 0.03667707 0.05088554 -0.04227628
f 98 34 56
f 20 34 98
f 78 20 75
f 34 20 78
f 98 56 119
f 31 56 34
f 10 20 61
f 52 45 10
f 10 45 20
f 87 20 98
f 98 119 87
f 61 20 87
f 87 119 61
f 71 14 33
f 39 69 33
f 33 31 39
f 56 31 33
f 49 10 61
f 52 10 49
f 61 119 49
f 106 45 52
f 48 45 23
f 68 38 73
f 73 38 75
f 75 20 73
f 73 20 68
f 111 33 69
f 53 31 34
f 34 110 53
f 27 78 75
f 75 38 27
f 56 33 103
f 103 119 56
f 103 49 119
f 67 57 15
f 65 48 23
f 9 106 52
f 52 49 9
f 118 67 1
f 109 14 71
f 19 48 15
f 68 20 47
f 15 77 47
f 115 33 14
f 33 111 3
f 71 33 3
f 3 66 71
f 3 86 66
f 107 27 110
f 107 110 34
f 34 78 107
f 78 27 107
f 15 57 79
f 79 77 15
f 60 66 70
f 66 86 70
f 4 57 5
f 57 67 5
f 64 65 23
f 23 45 64
f 45 106 64
f 1 67 43
f 43 65 1
f 106 9 42
f 1 65 42
f 42 118 1
f 42 64 106
f 65 64 42
f 113 35 66
f 71 66 36
f 26 118 82
f 58 101 14
f 14 109 58
f 58 82 101
f 90 47 20
f 15 47 40
f 40 19 15
f 45 48 40
f 48 19 40
f 100 47 77
f 33 115 95
f 14 101 28
f 28 115 14
f 101 115 28
f 32 3 59
f 59 3 111
f 25 5 67
f 25 70 86
f 48 65 81
f 81 43 48
f 65 43 81
f 15 48 55
f 48 43 55
f 55 67 15
f 55 43 67
f 117 9 49
f 49 103 117
f 80 66 60
f 112 118 35
f 112 80 60
f 60 67 112
f 67 118 112
f 66 35 84
f 84 36 66
f 35 118 84
f 41 12 71
f 71 36 41
f 63 54 16
f 118 42 85
f 85 82 118
f 9 16 85
f 85 42 9
f 101 82 85
f 6 109 71
f 47 90 74
f 45 40 74
f 74 40 47
f 105 100 77
f 68 47 105
f 47 100 105
f 7 63 33
f 33 95 7
f 7 54 63
f 7 95 54
f 18 57 4
f 3 72 83
f 83 18 4
f 72 18 83
f 79 51 46
f 17 97 46
f 46 97 79
f 77 79 11
f 79 97 11
f 116 25 86
f 86 3 116
f 22 103 33
f 22 117 103
f 33 96 22
f 91 113 66
f 66 80 91
f 91 80 113
f 113 80 114
f 80 112 114
f 76 118 26
f 26 41 76
f 76 41 118
f 118 41 89
f 89 41 36
f 63 16 120
f 33 63 120
f 120 96 33
f 21 16 54
f 21 85 16
f 54 95 21
f 82 6 62
f 26 82 62
f 24 18 72
f 37 83 4
f 3 83 37
f 17 46 29
f 104 11 97
f 5 25 94
f 25 116 94
f 94 116 3
f 99 95 115
f 99 21 95
f 88 6 71
f 88 62 6
f 12 62 88
f 12 41 93
f 93 62 12
f 93 41 26
f 26 62 93
f 79 24 2
f 2 24 72
f 2 3 32
f 2 72 3
f 108 46 51
f 108 29 46
f 11 104 50
f 71 12 30
f 30 88 71
f 12 88 30
f 102 51 79
f 79 2 102
f 32 29 102
f 102 108 51
f 29 108 102
f 32 59 13
f 92 2 32
f 32 102 92
f 92 102 2
f 32 13 8
f 104 8 44
f 44 50 104
f 44 8 13
f 59 50 44
f 44 13 59
f 60 70 25
f 25 67 60
f 82 58 6
f 6 58 109
f 74 90 20
f 20 45 74
f 114 112 35
f 35 113 114
f 36 84 89
f 89 84 118
f 120 16 9
f 9 117 120
f 120 22 96
f 117 22 120
f 57 18 24
f 24 79 57
f 94 37 4
f 4 5 94
f 3 37 94
f 99 115 101
f 101 85 99
f 85 21 99
f 39 31 50
f 50 111 69
f 50 69 39
f 50 38 68
f 50 27 38
f 31 53 50
f 50 59 111
f 50 53 110
f 110 27 50
f 68 105 50
f 50 105 77
f 77 11 50
f 8 29 32
f 17 29 8
f 8 97 17
f 8 104 97

