# https://github.com/mikedh/trimesh
v 0.11371320 0.00003844 -0.02851222
v 0.12451389 0.01267774 -0.03539542
v 0.11956814 0.02478420 -0.03539569
v 0.12400188 0.02433957 -0.03539548
v 0.10014538 0.01500749 -0.02851222
v 0.11755410 0.02306985 -0.03539578
v 0.10023995 0.01923926 -0.03539657
v 0.10002205 0.01405603 -0.03539656
v 0.11637721 0.00004971 -0.02851222
v 0.10772868 0.02496195 -0.03539622
v 0.12469498 0.02053476 -0.02851223
v 0.12424688 0.00033383 -0.02852572
v 0.12183147 0.02439851 -0.03539558
v 0.10012961 0.01823992 -0.02852677
v 0.12467043 0.01740218 -0.03539543
v 0.11401525 0.00023480 -0.03539588
v 0.10355860 0.00618620 -0.03539639
v 0.10379055 0.00648191 -0.03539638
v 0.12402052 0.00026390 -0.03539540
v 0.12488974 0.00783611 -0.02852569
v 0.11997917 0.00839546 -0.03539563
v 0.12096537 0.02497564 -0.02851223
v 0.11709679 0.00033500 -0.03539573
v 0.12492757 0.00488950 -0.03539538
v 0.10000751 0.01117528 -0.02852675
v 0.11413566 0.02496091 -0.03539593
v 0.10921116 0.00025843 -0.03539611
v 0.12347927 0.02424732 -0.03539550
v 0.11803260 0.00069417 -0.02851222
v 0.10013274 0.00351149 -0.03539653
v 0.12495714 0.01170253 -0.02851223
v 0.10036258 0.02470579 -0.03539657
v 0.12394144 0.02474569 -0.02852569
v 0.12472391 0.00110243 -0.02851223
v 0.12466355 0.02377683 -0.02851223
v 0.10381283 0.00010600 -0.02851222
v 0.11716104 0.00128119 -0.03539574
v 0.10136198 0.00079263 -0.03539647
v 0.10005413 0.00379128 -0.02851222
v 0.10041301 0.00145495 -0.03539652
v 0.11118699 0.01561116 -0.03539606
v 0.12471477 0.02404401 -0.02851223
v 0.11897796 0.00003240 -0.02852596
v 0.10051382 0.02218030 -0.03539656
v 0.10524468 0.02495064 -0.02851223
v 0.10032467 0.02488195 -0.02851222
v 0.12411688 0.00021808 -0.02852573
v 0.10005687 0.00040279 -0.02851221
v 0.12479530 0.02339492 -0.03539543
v 0.11077784 0.01511722 -0.03539607
v 0.12029731 0.00235113 -0.03539559
v 0.10334543 0.02494720 -0.03539644
v 0.11235305 0.02455092 -0.02851223
v 0.11811779 0.00088034 -0.02851222
v 0.12169627 0.00011152 -0.02851223
v 0.12483307 0.02333424 -0.02852569
v 0.11877664 0.02442614 -0.03539573
v 0.10701430 0.00022047 -0.03539621
v 0.12406713 0.00025193 -0.03539540
v 0.10903973 0.02497107 -0.02852639
v 0.10485704 0.00033848 -0.03539631
v 0.10181657 0.02235577 -0.03539650
v 0.12481229 0.02465248 -0.02851223
f 25 14 8
f 8 46 32
f 14 46 8
f 22 60 45
f 45 46 22
f 54 34 11
f 30 8 40
f 7 8 32
f 40 8 7
f 3 26 22
f 10 60 22
f 22 26 10
f 22 46 53
f 53 63 22
f 31 34 20
f 56 63 31
f 4 63 49
f 63 56 49
f 49 56 31
f 59 34 12
f 12 47 59
f 34 47 12
f 55 43 59
f 59 47 55
f 55 47 34
f 40 38 48
f 48 30 40
f 25 8 48
f 8 30 48
f 48 54 11
f 11 35 48
f 33 63 4
f 4 3 33
f 22 63 33
f 33 3 22
f 13 3 4
f 32 46 52
f 46 45 52
f 52 3 57
f 26 3 52
f 52 10 26
f 52 45 60
f 60 10 52
f 52 57 6
f 59 43 58
f 6 57 21
f 9 55 34
f 43 55 9
f 5 14 25
f 5 46 14
f 5 53 46
f 63 53 42
f 42 48 35
f 42 35 11
f 11 34 42
f 40 7 17
f 17 21 40
f 18 21 17
f 32 52 62
f 18 17 62
f 62 52 18
f 61 48 38
f 38 58 61
f 57 3 2
f 2 21 57
f 3 13 2
f 40 21 51
f 21 2 51
f 34 54 29
f 29 9 34
f 54 48 29
f 48 9 29
f 48 61 36
f 36 61 58
f 25 48 39
f 39 5 25
f 53 5 39
f 39 42 53
f 48 42 39
f 32 62 44
f 44 62 17
f 44 7 32
f 44 17 7
f 50 21 18
f 18 52 50
f 28 13 4
f 4 2 28
f 28 2 13
f 4 49 15
f 15 2 4
f 27 38 40
f 40 51 27
f 27 58 38
f 1 9 48
f 48 36 1
f 43 9 1
f 1 36 58
f 1 58 43
f 6 21 41
f 21 50 41
f 41 52 6
f 41 50 52
f 2 15 24
f 24 15 49
f 24 34 59
f 24 49 31
f 24 20 34
f 24 51 2
f 31 20 24
f 19 24 59
f 51 24 19
f 19 23 51
f 37 27 51
f 51 23 37
f 37 23 27
f 27 23 16
f 23 19 16
f 16 19 59
f 59 58 16
f 58 27 16
f 31 63 42
f 42 34 31

