# https://github.com/mikedh/trimesh
v 0.09535216 -0.03611170 -0.02746653
v 0.07693253 -0.03543623 -0.03539752
v 0.08524737 -0.03648094 -0.03539710
v 0.07791270 -0.03769170 -0.03337596
v 0.09775470 -0.03563770 -0.02630435
v 0.07511514 -0.02604517 -0.02852792
v 0.09000193 -0.03708378 -0.03167249
v 0.09363480 -0.03684964 -0.03144906
v 0.09866639 -0.03510587 -0.03539649
v 0.09934217 -0.03153409 -0.03539648
v 0.08110995 -0.03766026 -0.03426612
v 0.08014626 -0.03686857 -0.02733409
v 0.09596316 -0.02559480 -0.03539665
v 0.09548614 -0.03560065 -0.02546411
v 0.08148058 -0.03713308 -0.02899157
v 0.07580360 -0.03732288 -0.02969272
v 0.07760281 -0.03674040 -0.02649514
v 0.08722348 -0.03744261 -0.03444020
v 0.08790387 -0.02501724 -0.03539703
v 0.09615710 -0.03594665 -0.02701842
v 0.07570912 -0.02837446 -0.03539759
v 0.07510356 -0.03727804 -0.03499603
v 0.07614921 -0.03751441 -0.03104074
v 0.09695132 -0.03636209 -0.02985160
v 0.09905035 -0.03640097 -0.03216309
v 0.07531152 -0.03686522 -0.03534149
v 0.09778138 -0.03584319 -0.02711919
v 0.09359330 -0.03653935 -0.02903656
v 0.08381874 -0.03636134 -0.02574216
v 0.08076790 -0.03674578 -0.02689343
v 0.08308445 -0.03619961 -0.02500489
v 0.08593531 -0.03741547 -0.03351155
v 0.08137448 -0.03761714 -0.03461494
v 0.08693136 -0.03705004 -0.03013693
v 0.07779255 -0.03759557 -0.03184363
v 0.09271078 -0.03710298 -0.03455329
v 0.07593282 -0.03672339 -0.03539755
v 0.09860752 -0.02526165 -0.02852666
v 0.09940179 -0.03365501 -0.03539646
v 0.09598517 -0.02724977 -0.03539665
v 0.07837154 -0.02533837 -0.03539748
v 0.07598582 -0.03767024 -0.03275672
v 0.08569667 -0.03690332 -0.03507758
v 0.09975752 -0.03644419 -0.03356698
v 0.09545517 -0.03687239 -0.03458021
v 0.09615766 -0.03656403 -0.03089598
v 0.08197957 -0.03647960 -0.02597558
v 0.07536179 -0.03500446 -0.03539759
v 0.07634621 -0.03544137 -0.03539754
v 0.08426752 -0.03756169 -0.03453231
v 0.09984720 -0.02866492 -0.03539646
v 0.09657461 -0.03672057 -0.03316056
v 0.07991366 -0.03683721 -0.02715846
v 0.07739304 -0.03690426 -0.02720995
v 0.09092756 -0.02501748 -0.03539689
v 0.08866599 -0.03705030 -0.03081073
v 0.09014524 -0.02508384 -0.02852725
v 0.07570052 -0.03700596 -0.02777713
v 0.09049201 -0.03703463 -0.03138539
v 0.08053375 -0.03693544 -0.03521483
v 0.08960462 -0.03594665 -0.02505779
v 0.09001843 -0.03710440 -0.03189914
v 0.08319112 -0.03697281 -0.03509900
v 0.09453793 -0.03695840 -0.03452587
v 0.09158225 -0.03683761 -0.03027403
v 0.07831054 -0.03756991 -0.03178582
v 0.08215849 -0.02508952 -0.02852760
v 0.08070426 -0.03728918 -0.03491198
v 0.09918555 -0.02555855 -0.02851220
v 0.08153203 -0.03633955 -0.02535078
v 0.09858412 -0.03533675 -0.02542086
v 0.08282030 -0.03631386 -0.02542048
v 0.08749740 -0.03719158 -0.03173170
v 0.07706420 -0.03648785 -0.02542390
v 0.09960974 -0.02679211 -0.03539648
v 0.07603560 -0.03642497 -0.02514496
v 0.08647583 -0.03705033 -0.02996976
v 0.08923769 -0.03685008 -0.03500785
v 0.08077216 -0.03701152 -0.02810888
v 0.07822368 -0.03676231 -0.02662765
v 0.09301077 -0.03615935 -0.03533833
v 0.09190705 -0.03677390 -0.03489642
v 0.08804391 -0.03740497 -0.03435615
v 0.09881543 -0.03591293 -0.02806811
v 0.07500186 -0.03427354 -0.02851219
v 0.07884180 -0.03712573 -0.03509718
v 0.09382593 -0.03700458 -0.03457675
v 0.09657243 -0.02511178 -0.02852670
v 0.08687638 -0.03612727 -0.02522879
v 0.09300244 -0.02691604 -0.03539679
v 0.09978867 -0.03071820 -0.03539646
v 0.08770559 -0.03686711 -0.02905373
v 0.08612951 -0.03640741 -0.02623458
v 0.08527917 -0.03668770 -0.02726685
v 0.09240397 -0.03694540 -0.03138944
v 0.07931337 -0.03750137 -0.03150841
v 0.09592857 -0.03682657 -0.03405168
v 0.08003081 -0.03690630 -0.03525530
v 0.08121657 -0.03466418 -0.03539732
v 0.08910419 -0.03726966 -0.03332209
v 0.08420026 -0.03747592 -0.03340761
v 0.07573989 -0.03755914 -0.03145697
v 0.07995697 -0.03700833 -0.02798808
v 0.09009250 -0.03654576 -0.03520644
v 0.08817210 -0.03716837 -0.03177643
v 0.09813506 -0.03582051 -0.02719042
v 0.08858381 -0.03659393 -0.02749483
v 0.08894759 -0.03646332 -0.02699693
v 0.08197159 -0.03724154 -0.03001770
v 0.08963469 -0.03733243 -0.03430925
v 0.08369481 -0.03754578 -0.03460127
v 0.07518757 -0.02654384 -0.03539762
v 0.09969943 -0.03593929 -0.02892563
v 0.09564758 -0.03581439 -0.03539663
v 0.09189934 -0.03693601 -0.03112949
v 0.09862060 -0.03636684 -0.03479550
v 0.07884734 -0.03680136 -0.02686706
v 0.08517622 -0.03654698 -0.03539330
v 0.07501897 -0.03646663 -0.02852793
v 0.07506006 -0.03061748 -0.03539762
v 0.09715207 -0.03549002 -0.02553449
v 0.08506599 -0.03699057 -0.02899766
v 0.07771258 -0.03749207 -0.03105263
v 0.07616504 -0.02513381 -0.02851219
v 0.09929993 -0.03616713 -0.03491356
v 0.09672962 -0.02512507 -0.02851220
v 0.07734043 -0.03775400 -0.03431971
v 0.08055886 -0.03630718 -0.02509267
v 0.07873150 -0.03749075 -0.03117200
v 0.08106127 -0.03631968 -0.02520891
v 0.09224057 -0.03703971 -0.03247044
v 0.09817049 -0.03589797 -0.02763318
v 0.09974292 -0.03619759 -0.03077106
v 0.09592333 -0.03653270 -0.03049440
v 0.07956179 -0.03674163 -0.03539737
v 0.07501562 -0.03254675 -0.02851219
v 0.09996943 -0.03563081 -0.02868066
v 0.08460987 -0.03709301 -0.02961181
v 0.09764012 -0.03620586 -0.02910292
v 0.08977124 -0.03694460 -0.03489372
v 0.07993527 -0.03692795 -0.02758312
v 0.08728857 -0.03663666 -0.02735453
v 0.07530949 -0.03772422 -0.03354940
v 0.07878341 -0.03721319 -0.02925576
v 0.09959411 -0.03644148 -0.03331904
v 0.08520765 -0.03680924 -0.02780540
v 0.09064633 -0.03617625 -0.03539685
v 0.09210019 -0.03628713 -0.02720642
v 0.09096966 -0.03679336 -0.02971465
v 0.09872010 -0.03638698 -0.03164136
v 0.07740782 -0.03690486 -0.03529311
v 0.07504531 -0.02781337 -0.03539762
v 0.07666999 -0.02723903 -0.03539755
v 0.07540324 -0.03623237 -0.03539758
v 0.09823038 -0.03586116 -0.03524520
v 0.09723359 -0.02544854 -0.03539659
v 0.07764489 -0.03690561 -0.02723011
v 0.08249110 -0.03762370 -0.03446608
v 0.07998615 -0.03737461 -0.03053214
v 0.09914321 -0.03654780 -0.03396222
v 0.09136110 -0.03713123 -0.03293993
v 0.07695713 -0.03729996 -0.03496429
v 0.09323505 -0.03694669 -0.03215758
v 0.07997905 -0.03695067 -0.02769966
v 0.09990733 -0.02899732 -0.02851220
v 0.08400091 -0.03683249 -0.02773412
v 0.07520745 -0.02895506 -0.03539762
v 0.09099116 -0.03721866 -0.03458406
v 0.09888863 -0.02618351 -0.03539652
f 57 124 126
f 41 124 19
f 112 124 41
f 6 124 112
f 61 71 126
f 126 124 61
f 143 58 119
f 88 57 126
f 19 124 67
f 67 57 19
f 124 57 67
f 124 6 76
f 6 136 76
f 76 58 54
f 76 136 85
f 85 119 76
f 76 119 58
f 51 91 75
f 13 41 19
f 13 90 41
f 85 136 152
f 152 6 112
f 152 136 6
f 2 90 91
f 127 143 22
f 143 119 22
f 22 119 85
f 127 22 33
f 33 22 162
f 125 155 9
f 116 155 125
f 125 91 44
f 137 133 44
f 44 51 137
f 91 51 44
f 16 58 143
f 54 58 16
f 169 69 75
f 169 13 156
f 126 71 38
f 71 69 38
f 38 88 126
f 156 88 38
f 38 169 156
f 69 169 38
f 15 123 129
f 55 88 156
f 55 13 19
f 156 13 55
f 19 57 55
f 57 88 55
f 31 61 124
f 124 76 31
f 17 76 54
f 75 69 165
f 165 51 75
f 165 69 71
f 137 51 165
f 165 71 137
f 75 91 40
f 91 90 40
f 40 169 75
f 90 13 40
f 13 169 40
f 90 2 21
f 25 133 150
f 133 46 150
f 36 110 168
f 81 104 118
f 37 135 26
f 26 154 37
f 114 135 37
f 114 9 155
f 155 81 114
f 37 154 114
f 154 2 114
f 98 135 118
f 11 4 127
f 122 15 138
f 138 77 122
f 159 15 129
f 93 30 94
f 61 31 89
f 41 90 153
f 90 21 153
f 112 41 153
f 153 21 112
f 107 92 149
f 148 108 107
f 107 1 148
f 61 108 148
f 139 46 133
f 87 45 36
f 36 168 87
f 118 104 78
f 78 140 168
f 168 111 78
f 155 168 82
f 168 140 82
f 82 81 155
f 135 98 86
f 86 33 162
f 118 135 3
f 135 114 3
f 147 81 118
f 147 114 81
f 118 3 147
f 147 3 114
f 99 114 2
f 10 114 99
f 99 2 91
f 91 10 99
f 9 114 39
f 39 114 10
f 39 10 91
f 39 91 125
f 125 9 39
f 36 45 64
f 45 116 160
f 97 64 160
f 160 64 45
f 160 116 125
f 125 44 160
f 131 163 95
f 95 161 131
f 95 163 8
f 83 110 100
f 4 11 35
f 35 66 129
f 35 123 23
f 129 123 35
f 129 66 96
f 144 15 103
f 103 16 144
f 34 77 138
f 34 59 95
f 146 122 92
f 146 92 107
f 15 122 146
f 138 15 109
f 15 159 109
f 31 130 72
f 47 30 93
f 74 17 80
f 76 17 74
f 128 31 76
f 128 130 31
f 76 74 128
f 128 74 80
f 167 21 2
f 167 152 112
f 112 21 167
f 120 48 154
f 154 26 120
f 152 167 120
f 120 167 48
f 120 26 22
f 85 152 120
f 120 22 85
f 121 5 71
f 71 61 121
f 61 14 121
f 20 148 1
f 61 148 20
f 20 121 14
f 20 14 61
f 18 110 83
f 18 168 110
f 33 111 50
f 50 111 168
f 168 18 50
f 63 98 118
f 118 78 43
f 43 78 111
f 43 63 118
f 111 63 43
f 151 26 135
f 135 86 151
f 33 86 68
f 68 86 98
f 163 97 52
f 97 160 52
f 52 8 163
f 25 160 145
f 145 160 44
f 145 133 25
f 145 44 133
f 134 8 46
f 32 66 83
f 83 100 32
f 62 100 110
f 110 161 62
f 62 161 95
f 62 59 7
f 95 59 62
f 83 66 101
f 66 35 101
f 102 35 23
f 23 16 102
f 102 16 143
f 54 16 157
f 16 103 157
f 157 117 80
f 157 17 54
f 80 17 157
f 56 34 138
f 59 34 56
f 115 34 95
f 142 146 107
f 94 146 142
f 107 108 142
f 93 94 142
f 142 89 93
f 142 108 61
f 61 89 142
f 79 103 15
f 15 146 79
f 29 72 130
f 49 167 2
f 48 167 49
f 49 2 154
f 154 48 49
f 113 139 133
f 113 84 139
f 113 133 137
f 137 71 113
f 71 84 113
f 27 20 1
f 121 20 27
f 5 121 27
f 71 5 27
f 127 33 158
f 33 50 158
f 158 11 127
f 98 63 60
f 60 63 111
f 46 139 24
f 24 134 46
f 8 134 28
f 95 8 28
f 134 24 28
f 28 24 139
f 107 149 28
f 28 1 107
f 28 27 1
f 139 27 28
f 105 62 7
f 42 102 143
f 35 102 42
f 4 35 42
f 117 157 141
f 65 115 95
f 95 28 65
f 65 28 149
f 70 29 130
f 93 29 70
f 70 47 93
f 139 84 132
f 132 27 139
f 84 27 132
f 106 84 71
f 71 27 106
f 106 27 84
f 66 105 73
f 73 105 7
f 73 96 66
f 164 157 103
f 164 141 157
f 103 79 164
f 79 141 164
f 166 79 146
f 166 141 79
f 117 141 53
f 30 117 53
f 53 94 30
f 141 166 12
f 12 53 141
f 15 16 23
f 144 16 15
f 23 123 15
f 155 116 87
f 87 116 45
f 87 168 155
f 82 78 104
f 104 81 82
f 140 78 82
f 131 161 110
f 131 110 36
f 131 97 163
f 36 64 131
f 131 64 97
f 22 26 151
f 162 22 151
f 151 86 162
f 52 150 46
f 25 150 52
f 52 160 25
f 46 8 52
f 29 89 31
f 93 89 29
f 31 72 29
f 158 35 11
f 83 101 158
f 158 18 83
f 158 50 18
f 158 101 35
f 33 68 60
f 60 111 33
f 60 68 98
f 105 32 100
f 66 32 105
f 100 62 105
f 127 4 42
f 42 143 127
f 92 122 65
f 65 149 92
f 65 122 77
f 77 34 65
f 34 115 65
f 80 117 70
f 30 47 70
f 70 117 30
f 70 128 80
f 130 128 70
f 138 109 73
f 73 56 138
f 7 59 73
f 73 159 129
f 129 96 73
f 73 109 159
f 59 56 73
f 12 166 146
f 12 146 94
f 94 53 12

