# https://github.com/mikedh/trimesh
v -0.07467343 -0.00343757 -0.22604210
v -0.08211328 -0.01503651 -0.22607210
v -0.06838052 -0.01752223 -0.20022127
v -0.05842337 -0.01324908 -0.22143711
v -0.05338013 -0.00834005 -0.21856235
v -0.07735236 -0.01625771 -0.22614450
v -0.05341300 -0.00280147 -0.21866088
v -0.07786516 -0.00050996 -0.22621230
v -0.09994828 -0.00190745 -0.21075905
v -0.05017853 -0.01605197 -0.21612160
v -0.07730551 -0.01752223 -0.20303010
v -0.06681963 -0.00246230 -0.22485136
v -0.07274366 -0.01609281 -0.22590443
v -0.06782673 -0.00035384 -0.22506075
v -0.09194119 -0.00063187 -0.22409220
v -0.08910598 -0.00633136 -0.22501783
v -0.08930138 -0.01565214 -0.22498173
v -0.07407138 -0.00095065 -0.22593159
v -0.05239907 -0.01541915 -0.21775728
v -0.08721006 -0.01670658 -0.22479787
v -0.08058113 -0.00693827 -0.22613879
v -0.05088161 -0.00102698 -0.21697603
v -0.08920111 -0.01349666 -0.22500291
v -0.09624455 -0.00047420 -0.22262238
v -0.05792189 -0.00021461 -0.22120119
v -0.05399051 -0.00160928 -0.21901386
v -0.06862703 -0.00378759 -0.22520387
v -0.07272539 -0.01662193 -0.22562641
v -0.07647292 -0.00370474 -0.22616198
v -0.08605554 -0.00101336 -0.22547955
v -0.09989852 -0.00079868 -0.21070021
v -0.06767798 -0.00363772 -0.22504547
v -0.06063442 -0.01596596 -0.22256734
v -0.05921461 -0.01525011 -0.22187051
v -0.09994065 -0.01677415 -0.21036052
v -0.09595129 -0.01676394 -0.20005599
v -0.07763801 -0.00396970 -0.22622005
v -0.07339939 -0.01666448 -0.22511119
v -0.06158249 -0.00020227 -0.22294759
v -0.06580538 -0.01417645 -0.22452366
v -0.05484240 -0.00005293 -0.21949078
v -0.09923139 -0.00116097 -0.22151830
v -0.05280611 -0.00008939 -0.20798722
v -0.05017550 -0.01658695 -0.20129855
v -0.07341659 -0.01514077 -0.22598078
v -0.05441010 -0.01599749 -0.21905414
v -0.06719812 -0.01618924 -0.22495571
v -0.05985894 -0.01331271 -0.22224646
v -0.08786534 -0.01510603 -0.22520480
v -0.05020857 -0.00450990 -0.20557727
v -0.07947402 -0.00003377 -0.21696386
v -0.09882994 -0.01195524 -0.22171114
v -0.07365514 -0.01161837 -0.22599056
v -0.06038061 -0.01653150 -0.22225160
v -0.09046925 -0.01627599 -0.22469115
v -0.05033780 -0.01658003 -0.21537771
v -0.09269954 -0.01558426 -0.22391839
v -0.08882497 -0.01752224 -0.20059419
v -0.08612494 -0.01553396 -0.22546797
v -0.09955063 -0.01006236 -0.22078953
v -0.09866584 -0.01611581 -0.22178508
v -0.07764872 -0.01045111 -0.22622236
v -0.06638928 -0.00292498 -0.22473510
v -0.07682359 -0.01304275 -0.22619077
v -0.09835030 -0.00121076 -0.22191090
v -0.05294840 -0.01649842 -0.21791423
v -0.05007369 -0.00299990 -0.21636821
v -0.05618208 -0.01614502 -0.22008283
v -0.05062153 -0.00125726 -0.20594263
v -0.06748417 -0.01387192 -0.22502500
v -0.07820575 -0.01393231 -0.22620815
v -0.07861769 -0.00137534 -0.22619156
v -0.09554338 -0.01608976 -0.22290133
v -0.07356547 -0.01752223 -0.20228847
v -0.05955370 -0.00707071 -0.22209158
v -0.07081625 -0.00871785 -0.22556593
v -0.05027452 -0.00385285 -0.20561554
v -0.07528375 -0.01657849 -0.22581240
v -0.05947504 -0.01420312 -0.22203109
v -0.06099333 -0.00083397 -0.22273647
v -0.09954576 -0.01677705 -0.20153270
v -0.07562875 -0.01626601 -0.22610030
v -0.05994330 -0.01154365 -0.22229749
v -0.09182668 -0.01372557 -0.22422420
v -0.06010990 -0.00466111 -0.22239376
v -0.05074289 -0.00084048 -0.20607049
v -0.09237410 -0.01430831 -0.22403584
v -0.09148874 -0.01633902 -0.22433386
v -0.09267739 -0.01236349 -0.22392912
v -0.06329276 -0.01662667 -0.22264000
v -0.07148934 -0.01051821 -0.22567877
v -0.06044567 -0.01648021 -0.22235650
v -0.05004003 -0.01459106 -0.20538586
v -0.05005158 -0.00670306 -0.20540426
v -0.06636704 -0.01737608 -0.20014349
v -0.08780575 -0.01516981 -0.22521381
v -0.06038058 -0.01661596 -0.22188996
v -0.09673962 -0.01665167 -0.22229726
v -0.06665173 -0.00805385 -0.22481792
v -0.06633981 -0.00171742 -0.22471534
v -0.06891607 -0.00362221 -0.22524724
v -0.09855496 -0.00109396 -0.22183784
v -0.06782804 -0.00250173 -0.22506918
v -0.08180817 -0.01752224 -0.20002384
v -0.09827682 -0.01673827 -0.22157239
v -0.06762482 -0.01592815 -0.22505083
v -0.09699626 -0.01672320 -0.22208335
v -0.06738389 -0.00238552 -0.22498878
v -0.05011848 -0.00891724 -0.21622402
v -0.07734756 -0.01752223 -0.20003616
v -0.07994038 -0.01610218 -0.22616043
v -0.06039909 -0.00907249 -0.22249434
v -0.08075788 -0.01042003 -0.22613524
v -0.06657499 -0.00352058 -0.22479115
v -0.06717878 -0.00040203 -0.22493607
v -0.09749382 -0.01664785 -0.22203963
v -0.08986202 -0.01660369 -0.22465166
v -0.05722865 -0.01661475 -0.20005846
v -0.05848595 -0.00092010 -0.22151289
v -0.08956750 -0.00452629 -0.22489985
v -0.09016061 -0.01671977 -0.22429798
v -0.06901458 -0.00484413 -0.22526971
v -0.08011413 -0.00112447 -0.22613776
v -0.08205873 -0.00034099 -0.22592620
v -0.05837652 -0.01617796 -0.22135841
v -0.07626462 -0.00081400 -0.22614688
v -0.05603715 -0.01656194 -0.21965804
v -0.06451604 -0.00019958 -0.22402352
v -0.08750980 -0.01526936 -0.22525856
v -0.08924507 -0.01061438 -0.22499648
v -0.05560064 -0.01618959 -0.21973711
v -0.09994834 -0.01288181 -0.21065231
v -0.07197715 -0.01179213 -0.22576021
v -0.07805788 -0.01752223 -0.20304222
v -0.07078527 -0.00039609 -0.22547071
v -0.06222629 -0.01595113 -0.22317005
v -0.08159812 -0.01656825 -0.22597206
v -0.09960168 -0.00941023 -0.22098381
v -0.09033822 -0.00198223 -0.22463865
v -0.08405109 -0.00026832 -0.22571698
v -0.07552144 -0.00010426 -0.22610020
v -0.07645383 -0.01555783 -0.22616969
v -0.09938818 -0.00019866 -0.22143203
v -0.05321226 -0.00484352 -0.21851174
v -0.05310237 -0.01267199 -0.21831362
v -0.05062955 -0.01658928 -0.20014470
v -0.07195229 -0.01752223 -0.20008566
v -0.08931792 -0.00832367 -0.22498203
v -0.06658788 -0.00065081 -0.22479004
v -0.05511184 -0.01659714 -0.21852758
v -0.05567149 -0.00674164 -0.21992332
v -0.09030848 -0.01673013 -0.22414565
v -0.08688500 -0.01752224 -0.20141528
v -0.09996921 -0.00271554 -0.21065746
v -0.06038798 -0.00048443 -0.22250867
v -0.08168254 -0.01669634 -0.22519321
v -0.07767770 -0.01207931 -0.22622220
v -0.08190262 -0.01550001 -0.22609892
v -0.05538553 -0.01620721 -0.21960852
v -0.05803721 -0.01632465 -0.22112961
v -0.08058476 -0.00087765 -0.22608597
v -0.08786047 -0.00036892 -0.22520664
v -0.08522750 -0.00111479 -0.22560262
v -0.05549410 -0.01610151 -0.21968534
v -0.08870490 -0.00018307 -0.22507895
v -0.09500495 -0.01663754 -0.22292938
v -0.08283117 -0.01452085 -0.22596617
v -0.06500382 -0.01528890 -0.22422112
v -0.06695703 -0.01263684 -0.22489887
v -0.09917506 -0.01677582 -0.20112850
v -0.05106625 -0.00053585 -0.20635932
v -0.06652612 -0.01055959 -0.22478933
v -0.09628473 -0.01675386 -0.22204518
v -0.06616833 -0.01129562 -0.22465862
v -0.05352320 -0.01654156 -0.21822486
v -0.08990784 -0.00258817 -0.22478517
v -0.09812620 -0.01677222 -0.20026022
v -0.08985039 -0.01752224 -0.20001469
v -0.09985061 -0.00002548 -0.21072832
v -0.07271683 -0.01329003 -0.22587895
v -0.08086590 -0.01553502 -0.22613427
v -0.06736699 -0.01275177 -0.22499978
v -0.07548642 -0.01627189 -0.22609110
v -0.09964412 -0.00510107 -0.22126736
v -0.09069904 -0.01668538 -0.22435522
f 93 67 94
f 118 36 178
f 86 36 118
f 118 146 86
f 165 143 141
f 86 67 22
f 178 36 177
f 35 61 105
f 35 105 178
f 178 81 35
f 35 81 154
f 154 132 35
f 93 94 44
f 146 44 77
f 19 67 10
f 93 44 10
f 104 118 178
f 128 141 41
f 14 141 128
f 179 141 143
f 179 36 86
f 179 177 36
f 165 141 140
f 184 132 154
f 184 35 132
f 170 81 178
f 178 177 170
f 170 179 81
f 177 179 170
f 86 146 69
f 146 77 69
f 69 67 86
f 69 77 67
f 50 94 67
f 67 77 50
f 50 44 94
f 50 77 44
f 109 67 93
f 93 10 109
f 109 10 67
f 3 44 146
f 3 104 178
f 41 141 51
f 51 179 41
f 141 179 51
f 41 179 43
f 43 22 41
f 124 141 8
f 124 140 141
f 126 37 8
f 8 141 126
f 18 1 141
f 53 45 141
f 141 1 53
f 105 61 116
f 88 116 61
f 143 102 42
f 31 179 143
f 143 184 31
f 154 81 31
f 81 179 31
f 138 184 61
f 35 184 138
f 134 3 153
f 146 118 147
f 74 3 11
f 11 3 134
f 39 128 41
f 171 179 86
f 171 43 179
f 86 22 171
f 22 43 171
f 135 141 14
f 135 18 141
f 56 10 44
f 44 3 56
f 22 144 7
f 165 16 148
f 89 15 84
f 73 88 61
f 57 88 73
f 17 158 137
f 98 116 166
f 116 88 166
f 65 15 89
f 52 102 61
f 52 42 102
f 61 184 52
f 52 184 143
f 143 42 52
f 9 184 154
f 154 31 9
f 9 31 184
f 61 35 60
f 60 138 61
f 35 138 60
f 58 3 178
f 58 153 3
f 178 105 58
f 95 3 146
f 146 147 95
f 95 147 3
f 104 3 110
f 3 147 110
f 118 104 110
f 110 147 118
f 25 119 155
f 25 39 41
f 155 39 25
f 37 126 29
f 19 10 46
f 136 168 155
f 182 12 99
f 130 148 16
f 130 23 17
f 17 148 130
f 139 84 15
f 165 176 139
f 139 15 165
f 89 84 87
f 120 176 165
f 165 148 120
f 74 11 38
f 24 65 102
f 15 65 24
f 24 102 143
f 24 143 165
f 165 15 24
f 19 46 145
f 145 67 19
f 145 22 67
f 145 144 22
f 92 175 54
f 97 3 74
f 159 46 66
f 66 46 10
f 10 56 66
f 56 175 66
f 92 136 33
f 33 125 92
f 34 125 33
f 128 39 100
f 79 33 48
f 34 33 79
f 92 125 160
f 160 125 159
f 160 175 92
f 159 66 160
f 160 66 175
f 34 46 164
f 164 125 34
f 164 46 159
f 26 7 151
f 34 79 26
f 41 22 26
f 22 7 26
f 70 32 108
f 108 182 70
f 32 103 108
f 108 103 14
f 2 158 59
f 59 158 17
f 17 129 59
f 96 129 17
f 181 158 113
f 158 21 113
f 123 21 158
f 163 30 162
f 140 163 162
f 165 140 162
f 173 58 105
f 153 58 173
f 105 116 107
f 107 116 98
f 57 87 55
f 55 88 57
f 55 87 84
f 137 117 55
f 176 120 55
f 55 120 148
f 17 137 55
f 55 139 176
f 84 139 55
f 55 148 17
f 144 145 5
f 5 145 46
f 5 7 144
f 150 56 3
f 3 97 150
f 150 175 56
f 150 97 175
f 127 54 175
f 175 97 127
f 127 97 54
f 74 38 90
f 90 97 74
f 119 75 85
f 155 119 85
f 112 136 155
f 112 33 136
f 155 85 112
f 112 85 33
f 99 172 169
f 169 182 99
f 174 40 172
f 99 12 149
f 128 100 149
f 80 39 155
f 80 100 39
f 40 174 80
f 155 168 80
f 168 40 80
f 125 164 68
f 4 26 151
f 34 26 4
f 12 182 115
f 182 108 115
f 115 149 12
f 115 108 14
f 14 128 115
f 128 149 115
f 2 59 167
f 167 163 2
f 167 30 163
f 17 23 49
f 49 96 17
f 64 157 62
f 62 37 64
f 37 29 64
f 72 123 8
f 21 123 72
f 161 124 8
f 8 123 161
f 156 20 137
f 156 38 11
f 156 11 134
f 185 117 137
f 137 20 185
f 105 107 185
f 98 166 185
f 185 107 98
f 185 166 88
f 88 55 185
f 185 55 117
f 45 183 142
f 71 157 142
f 157 64 142
f 168 136 47
f 47 40 168
f 47 136 92
f 70 182 47
f 182 169 47
f 172 40 47
f 47 169 172
f 92 54 47
f 14 122 101
f 14 103 27
f 27 122 14
f 83 85 75
f 48 33 83
f 33 85 83
f 172 149 63
f 63 149 100
f 63 174 172
f 100 80 63
f 63 80 174
f 114 172 99
f 99 149 114
f 114 149 172
f 159 125 131
f 125 68 131
f 131 164 159
f 131 68 164
f 134 153 152
f 152 156 134
f 20 156 152
f 153 173 152
f 71 142 111
f 111 158 181
f 111 137 158
f 13 183 45
f 13 53 180
f 45 53 13
f 180 133 13
f 13 133 91
f 13 101 122
f 121 185 20
f 20 152 121
f 105 185 121
f 121 173 105
f 121 152 173
f 6 111 142
f 137 111 6
f 28 13 47
f 28 78 183
f 183 13 28
f 38 156 28
f 28 47 54
f 28 156 137
f 137 78 28
f 28 90 38
f 54 97 28
f 97 90 28
f 47 13 106
f 70 47 106
f 76 13 91
f 101 13 76
f 137 6 82
f 82 78 137
f 183 78 82
f 82 142 183
f 82 6 142
f 87 73 61
f 61 102 87
f 87 65 89
f 57 73 87
f 102 65 87
f 7 5 4
f 151 7 4
f 4 46 34
f 4 5 46
f 49 16 165
f 23 130 49
f 165 162 49
f 49 167 59
f 30 167 49
f 49 162 30
f 49 130 16
f 49 59 129
f 129 96 49
f 161 163 140
f 161 158 2
f 140 124 161
f 2 163 161
f 161 123 158
f 142 29 126
f 142 126 141
f 141 45 142
f 142 64 29
f 83 25 41
f 83 79 48
f 83 26 79
f 119 25 83
f 83 75 119
f 41 26 83
f 8 37 111
f 111 37 62
f 62 157 111
f 111 72 8
f 181 113 111
f 111 157 71
f 111 113 21
f 21 72 111
f 106 32 70
f 122 27 106
f 106 27 103
f 106 13 122
f 106 103 32
f 76 53 1
f 76 135 14
f 1 18 76
f 180 53 76
f 18 135 76
f 76 133 180
f 91 133 76
f 14 101 76

