# https://github.com/mikedh/trimesh
v -0.01326073 0.01350843 -0.10422168
v -0.01407786 0.01100772 -0.10409815
v -0.01606661 0.01445706 -0.10132187
v -0.00975908 0.02550257 -0.10265825
v -0.00856241 0.01127832 -0.10784245
v -0.00208831 0.02610806 -0.10879105
v -0.00041392 0.02621245 -0.10094690
v -0.01451491 0.00848097 -0.10429444
v -0.00001854 0.02031542 -0.11074892
v -0.01367268 0.02092860 -0.10103668
v -0.01691848 0.00135346 -0.10306358
v -0.00510491 0.02163104 -0.10798140
v -0.01020211 0.02584592 -0.10195733
v -0.00469538 0.00413578 -0.11023082
v -0.00343347 0.01027095 -0.11035562
v -0.00524709 0.01797885 -0.10859120
v -0.00153196 0.02307921 -0.10972236
v -0.00077722 0.02621240 -0.10941310
v -0.01570537 0.00001547 -0.10417772
v -0.00052387 0.01772488 -0.11083404
v -0.00017712 0.03764766 -0.10118814
v -0.01752482 0.00572203 -0.10200722
v -0.01669054 0.00005045 -0.10332122
v -0.00009925 0.03770151 -0.10111544
v -0.00876391 0.01256902 -0.10753063
v -0.01703559 0.00175644 -0.10293240
v -0.00154594 0.01106507 -0.11097573
v -0.00493725 0.01015638 -0.10974853
v -0.01940898 0.00503456 -0.10006351
v -0.00752528 0.02237976 -0.10610523
v -0.00273277 0.00036663 -0.11108034
v -0.01028546 0.00124877 -0.10779155
v -0.01407087 0.01044803 -0.10423240
v -0.00077901 0.01065112 -0.11120845
v -0.00476159 0.00031836 -0.11037038
v -0.00034313 0.03785518 -0.10016714
v -0.00423283 0.00285351 -0.11050091
v -0.01525793 0.01915704 -0.10005820
v -0.01276512 0.02020064 -0.10236533
v -0.00400324 0.00468365 -0.11050477
v -0.00412643 0.00260809 -0.11055059
v -0.00535992 0.01152844 -0.10946356
v -0.01013875 0.01521753 -0.10614472
v -0.01744034 0.00061020 -0.10260648
v -0.00238523 0.01065681 -0.11075341
v -0.00006555 0.02391152 -0.11027796
v -0.00470344 0.01285483 -0.10959902
v -0.01682593 0.01495529 -0.10030934
v -0.01365726 0.01211907 -0.10420587
v -0.00009517 0.02621245 -0.10406752
v -0.00830070 0.01109802 -0.10802241
v -0.01575747 0.01346671 -0.10195552
v -0.01030518 0.02126795 -0.10419032
v -0.01346335 0.02038208 -0.10161531
v -0.00185136 0.02614788 -0.10891757
v -0.01189865 0.01339159 -0.10528541
v -0.00657122 0.01732751 -0.10798769
v -0.01455698 0.00901687 -0.10413872
v -0.00003048 0.00855193 -0.11150591
v -0.00288765 0.01716372 -0.10989400
v -0.01695623 0.00098852 -0.10304302
v -0.00540759 0.03665096 -0.10038599
v -0.01507277 0.00061639 -0.10464875
v -0.01636161 0.00154954 -0.10355658
v -0.00581851 0.00517151 -0.10967052
v -0.00745293 0.00906990 -0.10868267
v -0.01562006 0.00185610 -0.10417157
v -0.00012597 0.02621245 -0.10328414
v -0.00344548 0.00220621 -0.11080127
v -0.01326797 0.00695071 -0.10545849
v -0.00904704 0.00080290 -0.10841849
v -0.00615609 0.02519349 -0.10619783
v -0.01616827 0.01187431 -0.10199610
v -0.00726938 0.00888657 -0.10879626
v -0.00093904 0.02621239 -0.10000617
v -0.00887394 0.01941744 -0.10600531
v -0.01735671 0.00650763 -0.10205932
v -0.00613733 0.02518161 -0.10621946
v -0.00827873 0.00620286 -0.10851677
v -0.00612086 0.00000159 -0.10984272
v -0.00115907 0.01329839 -0.11095276
v -0.01686201 0.01510471 -0.10021457
v -0.00494123 0.00888321 -0.10982739
v -0.00898830 0.00802261 -0.10802196
v -0.00862786 0.00422959 -0.10848056
v -0.00697852 0.01217176 -0.10856350
v -0.00467615 0.03751744 -0.10024602
v -0.01964678 0.00086709 -0.10028273
v -0.01395867 0.02129089 -0.10047878
v -0.00019449 0.01464000 -0.11113842
v -0.01686681 0.00822469 -0.10228773
v -0.00308346 0.02605961 -0.10811685
v -0.01807089 0.00308271 -0.10183037
v -0.01743936 0.00766313 -0.10180240
v -0.00438069 0.01599091 -0.10935124
v -0.00733294 0.01164744 -0.10845141
v -0.00220269 0.00430953 -0.11108786
v -0.01207946 0.00715284 -0.10629845
v -0.00940019 0.00515094 -0.10806873
v -0.00688762 0.00509008 -0.10920146
v -0.00474531 0.01407023 -0.10942913
v -0.00727333 0.01517117 -0.10796471
v -0.00026652 0.00580875 -0.11154822
v -0.01961345 0.00025935 -0.10034726
v -0.00231137 0.02287275 -0.10932323
v -0.00575406 0.02527408 -0.10650135
v -0.01266493 0.02434359 -0.10007276
v -0.00375430 0.01093951 -0.11017720
v -0.01760707 0.00218009 -0.10237243
v -0.01828548 0.00876588 -0.10068968
v -0.00928223 0.00739944 -0.10793182
v -0.00382168 0.03846868 -0.10000290
v -0.01433671 0.00968865 -0.10417949
v -0.01589533 0.00173387 -0.10394789
v -0.01603221 0.00033708 -0.10391118
v -0.01596431 0.01412544 -0.10154152
v -0.00688098 0.00036979 -0.10948511
v -0.00536827 0.03664052 -0.10042955
v -0.01827341 0.00098179 -0.10181560
v -0.01298154 0.00091310 -0.10617566
v -0.00227984 0.01031559 -0.11081564
v -0.00835544 0.00145965 -0.10872722
v -0.00204637 0.02263935 -0.10951875
v -0.00978186 0.00227236 -0.10800157
v -0.00807059 0.02113391 -0.10608368
v -0.00002867 0.03266210 -0.10487666
v -0.01486031 0.00695769 -0.10426545
v -0.01312898 0.00728519 -0.10552314
v -0.00179472 0.00358205 -0.11122660
v -0.00379730 0.00540674 -0.11055003
v -0.00223019 0.03762009 -0.10001386
v -0.00315401 0.00939469 -0.11053178
v -0.00015642 0.03589448 -0.10339177
v -0.01418719 0.00011676 -0.10532409
v -0.01837217 0.01027961 -0.10011467
v -0.01319331 0.00263720 -0.10589023
v -0.01235759 0.00573105 -0.10624364
v -0.01904962 0.00268981 -0.10083451
v -0.01371616 0.01367387 -0.10378363
v -0.00829049 0.02561750 -0.10415016
v -0.00040357 0.01049738 -0.11131956
v -0.00025566 0.02522741 -0.10995122
v -0.00897391 0.01262298 -0.10739179
v -0.01262101 0.00685401 -0.10595314
v -0.00335027 0.01669685 -0.10974249
v -0.00111957 0.01626780 -0.11074464
v -0.00106988 0.00078538 -0.11152207
v -0.00009417 0.01904358 -0.11086895
v -0.00395433 0.02399168 -0.10815874
v -0.01043084 0.01925113 -0.10481704
v -0.01455759 0.01751375 -0.10167557
v -0.01047727 0.02495677 -0.10221287
v -0.00612207 0.00893088 -0.10930154
v -0.00919014 0.01802434 -0.10613796
v -0.00434539 0.00749709 -0.11017772
v -0.00076829 0.00434255 -0.11147402
v -0.01741520 0.00911663 -0.10149856
v -0.01473763 0.00144673 -0.10485663
v -0.00419783 0.00380663 -0.11047113
v -0.01545966 0.00320305 -0.10416685
v -0.00001476 0.02621240 -0.10628237
v -0.00344247 0.00398093 -0.11076426
v -0.01221670 0.02434989 -0.10061508
v -0.01534940 0.01439579 -0.10208945
v -0.01140982 0.02445590 -0.10150192
v -0.00973888 0.00287197 -0.10799783
v -0.01829546 0.00171637 -0.10176813
v -0.01772728 0.00810342 -0.10141343
v -0.01111429 0.01282282 -0.10599262
v -0.00337493 0.01843385 -0.10951477
v -0.00543361 0.02379913 -0.10717731
v -0.01574311 0.00793517 -0.10334797
v -0.01273904 0.00302921 -0.10618643
v -0.01799065 0.00123474 -0.10207808
v -0.00688663 0.01200814 -0.10863377
v -0.01187298 0.01820798 -0.10397245
v -0.01617827 0.01708109 -0.10001994
v -0.01270625 0.00379503 -0.10615546
v -0.01355340 0.00032034 -0.10579977
v -0.00659932 0.02490507 -0.10594396
v -0.01310268 0.01396830 -0.10424515
v -0.01229256 0.02301178 -0.10136245
v -0.00020947 0.01325639 -0.11121386
v -0.01898004 0.00005864 -0.10108361
v -0.01125351 0.00039217 -0.10725485
v -0.00002649 0.01842400 -0.11096485
v -0.01178903 0.00026318 -0.10693907
v -0.00131218 0.00967699 -0.11110769
v -0.01636822 0.01104303 -0.10202994
v -0.00587982 0.01155741 -0.10919929
v -0.01073762 0.01299791 -0.10623412
v -0.00133904 0.00045758 -0.11146035
v -0.01155278 0.02010846 -0.10355584
v -0.01889869 0.00840281 -0.10006791
v -0.01848338 0.00007519 -0.10163198
v -0.00689289 0.02425424 -0.10598313
v -0.01565359 0.01491980 -0.10160272
v -0.01777649 0.00284146 -0.10214013
v -0.00885797 0.01883545 -0.10617823
v -0.00777825 0.00507874 -0.10880700
v -0.00407298 0.00295560 -0.11056096
v -0.00402779 0.00451910 -0.11050417
v -0.00752768 0.01442066 -0.10794880
v -0.00668836 0.01835199 -0.10771729
v -0.00556073 0.00121378 -0.11002066
v -0.01001722 0.00615133 -0.10765547
v -0.01673379 0.00152953 -0.10322546
v -0.00187766 0.01236442 -0.11080216
v -0.00049263 0.02370396 -0.11011225
v -0.00146722 0.01283538 -0.11089543
v -0.00701389 0.01626897 -0.10792183
v -0.00754938 0.00581043 -0.10886421
v -0.00859494 0.00791336 -0.10823403
v -0.00942039 0.01846089 -0.10585307
v -0.00420206 0.00060899 -0.11057552
v -0.01844207 0.00253705 -0.10151221
v -0.01503211 0.00014366 -0.10468536
v -0.00114535 0.02362123 -0.10981657
v -0.01777317 0.01261625 -0.10000164
v -0.01789237 0.00371987 -0.10192695
v -0.00594589 0.01850746 -0.10812368
v -0.01847362 0.00967615 -0.10020018
v -0.00404129 0.00010698 -0.11064020
v -0.01681561 0.00167354 -0.10313802
v -0.00035340 0.00029405 -0.11172870
v -0.00080941 0.03471511 -0.10437637
v -0.00326447 0.00424169 -0.11080353
v -0.01229580 0.00700773 -0.10617621
v -0.00752274 0.00834688 -0.10871775
v -0.01313176 0.01497770 -0.10389401
v -0.00000823 0.02884343 -0.10775296
v -0.00410971 0.02621239 -0.10730293
v -0.01431962 0.00938405 -0.10425979
v -0.00680661 0.01721029 -0.10787180
v -0.00798415 0.00237293 -0.10886996
v -0.00706972 0.01250054 -0.10846865
v -0.01419514 0.02021715 -0.10082929
v -0.00292731 0.00804961 -0.11071943
f 104 75 88
f 225 75 104
f 7 75 225
f 225 68 7
f 88 75 29
f 112 75 131
f 24 7 68
f 68 50 24
f 24 50 161
f 161 50 59
f 231 161 59
f 59 68 225
f 59 50 68
f 112 62 107
f 184 19 80
f 225 104 184
f 184 80 225
f 184 104 88
f 187 80 134
f 80 19 134
f 75 7 36
f 7 24 36
f 36 131 75
f 112 131 36
f 36 24 112
f 126 161 231
f 126 24 161
f 133 226 112
f 24 126 133
f 231 226 133
f 133 126 231
f 9 46 231
f 231 59 9
f 59 186 9
f 231 46 142
f 142 226 231
f 142 18 226
f 112 226 87
f 87 62 112
f 163 107 62
f 167 184 88
f 112 24 21
f 21 133 112
f 24 133 21
f 147 156 225
f 103 59 225
f 225 156 103
f 103 156 59
f 46 170 209
f 170 17 209
f 209 142 46
f 59 156 97
f 225 80 223
f 223 31 225
f 159 37 80
f 201 37 159
f 115 63 19
f 67 115 114
f 63 115 67
f 194 110 29
f 222 110 194
f 181 43 56
f 118 140 62
f 118 87 226
f 62 87 118
f 165 163 62
f 217 134 19
f 19 63 217
f 217 63 134
f 59 141 183
f 90 186 183
f 183 186 59
f 81 186 90
f 81 210 186
f 225 31 192
f 192 147 225
f 101 95 170
f 170 95 236
f 236 203 170
f 236 95 86
f 204 43 199
f 199 12 204
f 162 130 238
f 162 202 130
f 201 159 162
f 159 202 162
f 162 192 31
f 156 147 129
f 129 97 156
f 35 223 80
f 42 101 145
f 145 101 170
f 186 208 146
f 60 145 170
f 60 170 46
f 46 9 60
f 191 56 43
f 191 43 204
f 42 28 74
f 99 32 206
f 206 32 187
f 155 28 130
f 100 202 14
f 14 202 159
f 71 117 80
f 205 159 80
f 80 117 205
f 218 209 17
f 142 209 218
f 168 110 91
f 91 94 168
f 29 110 168
f 168 94 29
f 184 167 195
f 19 184 195
f 134 63 179
f 187 134 179
f 181 56 1
f 144 128 228
f 151 176 164
f 62 140 4
f 188 141 59
f 108 28 42
f 208 45 108
f 42 146 108
f 108 146 208
f 238 45 121
f 121 162 238
f 121 27 34
f 210 27 121
f 34 141 121
f 121 45 208
f 141 188 121
f 121 208 186
f 186 210 121
f 190 101 42
f 42 74 190
f 86 95 175
f 95 101 175
f 101 190 175
f 175 96 86
f 175 190 96
f 16 17 170
f 232 118 92
f 118 6 92
f 12 199 149
f 149 92 6
f 154 43 181
f 154 199 43
f 69 162 31
f 223 35 215
f 162 69 215
f 148 9 186
f 148 60 9
f 146 60 148
f 47 146 42
f 47 60 146
f 42 145 47
f 145 60 47
f 204 57 234
f 234 191 204
f 5 25 51
f 51 25 203
f 203 236 51
f 51 236 86
f 86 96 51
f 228 191 98
f 98 25 5
f 65 202 100
f 79 85 99
f 99 229 79
f 130 202 40
f 40 155 130
f 28 155 83
f 124 71 32
f 235 85 117
f 99 85 235
f 187 32 185
f 32 71 185
f 185 80 187
f 185 71 80
f 29 94 138
f 88 29 138
f 138 167 88
f 138 216 167
f 220 138 94
f 220 172 198
f 193 176 39
f 39 176 151
f 39 140 193
f 107 163 89
f 163 165 89
f 140 39 54
f 54 39 151
f 91 110 157
f 49 1 56
f 2 49 113
f 91 2 113
f 113 172 91
f 127 172 8
f 8 128 127
f 198 172 127
f 169 128 8
f 8 56 169
f 56 191 169
f 169 191 228
f 228 128 169
f 230 176 181
f 181 164 230
f 230 164 176
f 82 54 151
f 181 1 139
f 139 164 181
f 1 49 139
f 139 2 91
f 139 49 2
f 13 165 62
f 62 4 13
f 152 4 140
f 140 54 152
f 152 54 165
f 165 13 152
f 152 13 4
f 132 45 238
f 162 121 227
f 227 121 188
f 227 188 59
f 59 97 227
f 97 129 227
f 57 16 102
f 170 203 102
f 102 16 170
f 12 149 105
f 105 149 6
f 17 16 221
f 221 16 57
f 221 57 204
f 12 105 221
f 204 12 221
f 55 218 17
f 17 105 55
f 55 105 6
f 142 218 55
f 18 142 55
f 226 18 55
f 55 118 226
f 55 6 118
f 214 154 181
f 199 154 214
f 41 215 35
f 201 162 41
f 162 215 41
f 186 146 20
f 20 148 186
f 146 148 20
f 191 234 211
f 211 102 203
f 211 234 57
f 57 102 211
f 66 190 74
f 99 206 111
f 206 98 111
f 51 84 111
f 5 51 111
f 111 98 5
f 143 98 191
f 25 98 143
f 203 25 143
f 143 211 203
f 191 211 143
f 85 79 200
f 212 65 100
f 100 200 212
f 212 200 79
f 153 74 28
f 28 83 153
f 166 32 99
f 166 124 32
f 117 71 122
f 122 235 117
f 119 195 167
f 167 174 119
f 23 115 19
f 19 195 23
f 22 220 94
f 91 172 22
f 172 220 22
f 216 138 93
f 138 220 93
f 167 216 93
f 93 198 167
f 93 220 198
f 10 89 165
f 10 54 89
f 206 173 137
f 137 144 228
f 228 98 137
f 137 98 206
f 187 179 120
f 120 206 187
f 120 173 206
f 8 172 58
f 58 113 8
f 172 113 58
f 33 113 49
f 33 49 56
f 128 144 70
f 70 127 128
f 144 127 70
f 160 144 67
f 160 127 144
f 160 67 114
f 198 127 109
f 109 127 26
f 167 198 109
f 109 26 167
f 89 54 237
f 54 82 237
f 219 75 112
f 219 194 29
f 219 29 75
f 189 139 91
f 164 139 189
f 91 157 189
f 48 3 222
f 197 82 151
f 151 164 197
f 197 48 82
f 3 48 197
f 15 108 45
f 45 132 15
f 123 105 17
f 17 221 123
f 123 221 105
f 193 140 53
f 140 196 53
f 213 66 74
f 213 111 84
f 99 111 213
f 74 229 213
f 213 229 99
f 207 11 174
f 167 26 207
f 207 174 167
f 44 23 195
f 174 23 44
f 174 11 61
f 61 23 174
f 77 94 91
f 91 22 77
f 77 22 94
f 165 54 182
f 182 10 165
f 54 10 182
f 233 56 8
f 233 33 56
f 8 113 233
f 113 33 233
f 127 160 64
f 64 160 114
f 115 207 64
f 114 115 64
f 89 237 38
f 107 89 38
f 222 194 135
f 194 219 135
f 135 219 82
f 135 48 222
f 82 48 135
f 76 149 199
f 76 125 149
f 199 214 76
f 149 125 171
f 180 196 140
f 180 78 196
f 72 180 140
f 78 180 72
f 158 120 179
f 63 67 158
f 158 179 63
f 178 137 173
f 144 137 178
f 173 120 178
f 178 158 67
f 67 144 178
f 26 127 224
f 127 64 224
f 224 207 26
f 224 64 207
f 177 237 82
f 177 38 237
f 82 219 177
f 177 219 112
f 112 107 177
f 107 38 177
f 164 52 116
f 116 197 164
f 3 197 116
f 116 52 110
f 116 110 222
f 222 3 116
f 164 189 73
f 73 52 164
f 110 52 73
f 73 157 110
f 73 189 157
f 150 76 214
f 150 214 181
f 181 176 150
f 125 76 150
f 150 53 196
f 150 176 193
f 193 53 150
f 30 171 125
f 30 150 196
f 125 150 30
f 120 158 136
f 136 178 120
f 158 178 136
f 106 30 196
f 171 30 106
f 196 78 106
f 149 171 106
f 78 72 106
f 232 92 106
f 92 149 106
f 106 118 232
f 140 118 106
f 106 72 140
f 27 141 34
f 90 183 27
f 27 81 90
f 27 183 141
f 210 81 27
f 215 69 31
f 31 223 215
f 192 162 227
f 147 192 227
f 227 129 147
f 41 37 201
f 80 37 41
f 41 35 80
f 100 14 200
f 159 205 200
f 117 85 200
f 200 14 159
f 200 205 117
f 153 79 229
f 202 65 153
f 65 212 153
f 153 40 202
f 153 229 74
f 155 40 153
f 153 83 155
f 153 212 79
f 122 166 99
f 71 124 122
f 99 235 122
f 124 166 122
f 130 28 15
f 238 130 15
f 28 108 15
f 15 132 238
f 96 190 213
f 213 84 51
f 213 51 96
f 190 66 213
f 195 119 44
f 44 119 174
f 61 207 115
f 115 23 61
f 11 207 61

