# https://github.com/mikedh/trimesh
v -0.04212765 0.00712331 0.01851488
v -0.03923026 0.02409707 0.00192664
v -0.04781401 0.00399615 0.01423046
v -0.04750491 0.01128923 0.01294486
v -0.04392494 0.00426372 0.01753393
v -0.04449706 0.02218631 0.00106841
v -0.04537026 0.02007854 0.00467437
v -0.02504580 0.02148223 0.01219478
v -0.04325764 0.01748366 0.01115389
v -0.04528437 0.00954545 0.01563789
v -0.02742850 0.01089756 0.02028353
v -0.02708638 0.02269203 0.01064752
v -0.03579611 0.01348305 0.01815166
v -0.02511752 0.02488215 0.00739157
v -0.03351944 0.00100731 0.02061101
v -0.04973383 0.01447489 0.00769412
v -0.03977121 0.01244921 0.01791242
v -0.02835713 0.02050026 0.01290268
v -0.04029731 0.01014367 0.01850020
v -0.03584797 0.00243230 0.02014861
v -0.03211282 0.02151045 0.01114630
v -0.03069598 0.01438886 0.01823434
v -0.03745961 0.02347599 0.00471907
v -0.03344847 0.01899691 0.01374787
v -0.03373007 0.02223922 0.00936088
v -0.04779631 0.01871033 0.00442615
v -0.03757239 0.02155596 0.00851317
v -0.03853668 0.01238387 0.01817646
v -0.04041383 0.00712961 0.01892200
v -0.02676462 0.00385018 0.02135283
v -0.04985904 0.00432482 0.00766079
v -0.02594670 0.01335125 0.01913573
v -0.04986013 0.00829351 0.01125411
v -0.04210699 0.00434909 0.01867440
v -0.04876789 0.00637181 0.01291720
v -0.04858236 0.00974233 0.01237599
v -0.03475839 0.00964616 0.01982806
v -0.04288737 0.00456145 0.01831940
v -0.03109369 0.01522638 0.01759451
v -0.04111174 0.01806852 0.01178858
v -0.04934411 0.01627997 0.00614880
v -0.04698209 0.01676157 0.00843271
v -0.03201389 0.01632449 0.01652429
v -0.04587753 0.01292129 0.01347846
v -0.03047952 0.02458470 0.00622374
v -0.04535769 0.02084247 0.00309577
v -0.03297974 0.02466616 0.00475037
v -0.03912268 0.02113474 0.00814127
v -0.03940271 0.02448106 0.00074736
v -0.02902335 0.01796257 0.01537491
v -0.03663933 0.01753391 0.01470271
v -0.02605605 0.01643794 0.01682109
v -0.04998657 0.00881900 0.00612984
v -0.03496454 0.00119276 0.02034608
v -0.04240182 0.01227284 0.01674508
v -0.02551562 0.02353170 0.00982359
v -0.03774666 0.01525179 0.01668709
v -0.03598589 0.02024431 0.01126893
v -0.04038085 0.01433431 0.01677743
v -0.03413688 0.00404330 0.02048121
v -0.04359500 0.00248144 0.01789917
v -0.04699963 0.00016252 0.01505933
v -0.04676364 0.00994575 0.01425803
v -0.04443185 0.00410988 0.01711714
v -0.04015147 0.01260343 0.01777331
v -0.04123903 0.01232903 0.01749708
v -0.04523305 0.00036447 0.01655061
v -0.02715886 0.00338062 0.02132471
v -0.04188070 0.01055516 0.01794686
v -0.03943657 0.02334771 0.00356783
v -0.04398291 0.00262322 0.01757137
v -0.04586601 0.01806389 0.00784348
v -0.04756482 0.00223545 0.01456445
v -0.03728050 0.00617809 0.01968022
v -0.04460097 0.00265979 0.01705158
v -0.02919912 0.00905188 0.02067028
v -0.04308892 0.01444095 0.01485579
v -0.02521559 0.01030718 0.02038967
v -0.04247342 0.00099500 0.01861787
v -0.04859288 0.00256003 0.01354538
v -0.02883576 0.02477585 0.00639350
v -0.02860522 0.00639449 0.02103985
v -0.04703810 0.00885201 0.01425646
v -0.04971822 0.01652497 0.00528954
v -0.02725549 0.02452696 0.00760508
v -0.04245147 0.00283404 0.01861876
v -0.03533100 0.01877888 0.01361008
v -0.02649999 0.00826331 0.00017501
v -0.04213303 0.02360257 0.00037354
v -0.04568811 0.01410918 0.01276919
v -0.04810283 0.01518628 0.00920578
v -0.04292282 0.01728305 0.01166361
v -0.03813850 0.00963223 0.01906833
v -0.02503477 0.01609429 0.01713954
v -0.03572798 0.00575111 0.02005150
v -0.04077635 0.01078032 0.01821841
v -0.03036552 0.02149966 0.01161649
v -0.02939518 0.00001834 0.01872278
v -0.04692949 0.00130851 0.01511078
v -0.03163451 0.01367172 0.01862321
v -0.04344437 0.00306469 0.01801140
v -0.03314059 0.01878733 0.01399902
v -0.03733150 0.01656777 0.01559556
v -0.03106708 0.00239144 0.02089723
v -0.04805173 0.00319372 0.01405413
v -0.03736809 0.02432653 0.00297590
v -0.04261221 0.02011475 0.00714348
v -0.04544293 0.00626367 0.01611057
v -0.04538490 0.01353418 0.01348873
v -0.03785676 0.02232511 0.00677197
v -0.03206546 0.01461287 0.01799637
v -0.02603917 0.02268290 0.01076038
v -0.03428390 0.01975072 0.01272366
v -0.03823563 0.00972666 0.01903158
v -0.04240486 0.00019929 0.01864846
v -0.04366190 0.02165575 0.00327180
v -0.03911073 0.01363650 0.01748624
v -0.04019203 0.01808856 0.01232607
v -0.04000980 0.02073697 0.00816937
v -0.03800003 0.01483397 0.01693977
v -0.03902883 0.01684752 0.01466455
v -0.04724974 0.01287568 0.01218761
v -0.02565588 0.01391403 0.00009787
v -0.04940699 0.00143235 0.01270927
v -0.04217485 0.02306100 0.00171574
v -0.04195650 0.00625299 0.01861783
v -0.04248347 0.00632853 0.01840271
v -0.04720508 0.01199571 0.01289461
v -0.02741066 0.01594343 0.01717422
v -0.02578828 0.00767399 0.02124369
v -0.04443374 0.02017396 0.00544659
v -0.02519409 0.01187360 0.01996191
v -0.04693278 0.00294874 0.01508194
v -0.02657565 0.00038304 0.02143656
v -0.03639488 0.02325741 0.00592125
v -0.04109161 0.01887624 0.01054941
v -0.03037107 0.01707719 0.01603178
v -0.04557091 0.01557035 0.01152735
v -0.03084708 0.01856395 0.01453991
v -0.02569740 0.00658003 0.02136133
v -0.04090326 0.02065195 0.00761869
v -0.03089231 0.00963798 0.02034689
v -0.02663505 0.00849187 0.02105599
v -0.04127004 0.02301296 0.00276568
v -0.04427443 0.02182352 0.00218329
v -0.02891266 0.02291309 0.00998520
v -0.03630896 0.01344666 0.01808079
v -0.04666057 0.01510554 0.01094864
v -0.04965538 0.00511200 0.01205512
v -0.03938804 0.02200703 0.00632368
v -0.04818904 0.00882121 0.01303785
v -0.02524854 0.01084463 0.02041802
v -0.04720064 0.01116143 0.01332933
v -0.04445356 0.00453159 0.01706985
v -0.03576222 0.01782530 0.01458569
v -0.02771843 0.02007005 0.01342061
v -0.03842623 0.01331354 0.01777651
v -0.04665141 0.00578532 0.01512839
v -0.04972544 0.00134432 0.00799340
v -0.02529996 0.00940086 0.02065549
v -0.04984372 0.00366006 0.01205535
v -0.02502321 0.00764173 0.01166221
v -0.02529506 0.01889775 0.01467902
v -0.04501161 0.01562652 0.01195130
v -0.04990387 0.01640966 0.00520088
v -0.04358131 0.01277715 0.01557483
v -0.03869870 0.02170831 0.00742248
v -0.03132859 0.02443558 0.00620161
v -0.02959654 0.00132776 0.02107747
v -0.03389238 0.00575969 0.02045597
v -0.03830318 0.01416192 0.01734803
v -0.03260841 0.00889422 0.02029099
v -0.02790461 0.01890089 0.01457968
v -0.04966944 0.01108502 0.01050209
v -0.03144092 0.02327445 0.00852339
v -0.03438683 0.02485042 0.00344349
v -0.04610112 0.00880114 0.01510768
v -0.04550711 0.01440027 0.01271984
v -0.02915973 0.01478643 0.01801954
v -0.02984577 0.01626133 0.01681537
v -0.04878588 0.01886333 0.00259795
v -0.03670816 0.01401573 0.01769186
v -0.03813988 0.02447302 0.00200907
v -0.04729634 0.01888547 0.00474141
v -0.04030952 0.00001256 0.01915131
v -0.04224346 0.02011717 0.00745709
v -0.03973845 0.01474295 0.01668744
v -0.03047506 0.02186969 0.01109701
v -0.03562849 0.01600969 0.01635677
v -0.02547670 0.02087759 0.01282194
v -0.02768502 0.01774183 0.01562758
v -0.04108524 0.00906913 0.01849040
v -0.02585785 0.01365376 0.01893100
v -0.02818426 0.01316333 0.01912715
v -0.02960802 0.01330385 0.01896179
v -0.03648959 0.01477868 0.01720829
v -0.04587100 0.01816334 0.00768201
v -0.04755078 0.01928557 0.00355355
v -0.03268538 0.01313079 0.01888553
v -0.04322001 0.00610099 0.01799104
v -0.04293564 0.00791758 0.01798636
v -0.04132586 0.00776766 0.01863986
v -0.02796084 0.00627972 0.02112355
v -0.04692939 0.02068150 0.00139627
v -0.03936928 0.01785130 0.01308661
v -0.04506472 0.01277656 0.01436137
v -0.03860596 0.01947025 0.01116801
v -0.02920860 0.01859266 0.01473790
v -0.03179965 0.00490926 0.02073006
v -0.03669887 0.02472955 0.00234883
v -0.03393956 0.00912247 0.02008480
v -0.02945978 0.02494890 0.00572091
v -0.04744853 0.01629807 0.00855898
v -0.03634960 0.01820417 0.01400875
v -0.04548185 0.01909953 0.00637123
v -0.04943549 0.00382533 0.01250883
v -0.04521377 0.00321112 0.01651697
v -0.03190870 0.00146500 0.02080296
v -0.04360872 0.01535265 0.01350111
v -0.02763774 0.00193400 0.02129932
v -0.03339558 0.00642441 0.02046294
v -0.02566925 0.00486567 0.02142399
v -0.04102928 0.02275707 0.00362871
v -0.04442560 0.01773792 0.00973604
v -0.04956706 0.01869939 0.00165207
v -0.04683132 0.02095766 0.00093600
v -0.03834088 0.00047579 0.01959136
v -0.04882998 0.01991134 0.00034275
v -0.03206114 0.00558497 0.02067469
v -0.02857024 0.00092339 0.02120022
v -0.04961195 0.00518766 0.01209563
v -0.04309834 0.01548318 0.01375094
v -0.04877987 0.01938752 0.00153763
v -0.04877837 0.01711144 0.00564610
v -0.03118115 0.00136521 0.02088966
v -0.04473694 0.02217752 0.00079897
v -0.03008610 0.02175820 0.01136579
v -0.02519983 0.00591927 0.00032973
v -0.03755208 0.01289488 0.01813208
v -0.02930132 0.02346205 0.00899757
v -0.03679055 0.02464264 0.00254345
v -0.04276406 0.02068066 0.00598458
v -0.04022753 0.01270023 0.01771706
v -0.04036051 0.01627005 0.01474604
v -0.03370598 0.00516456 0.02049945
v -0.04135781 0.01515721 0.01533112
v -0.04300851 0.00188536 0.01836421
v -0.04480811 0.01188504 0.01525710
v -0.02736602 0.01317360 0.01916623
v -0.02650000 0.00010014 0.00876882
v -0.02942173 0.02002266 0.01325718
v -0.04695051 0.00751031 0.01464614
v -0.02552846 0.00013223 0.02110400
v -0.04388042 0.02293030 0.00006970
v -0.02504665 0.02390330 0.00022456
v -0.04203298 0.01076120 0.01778973
v -0.03141166 0.01270812 0.01917883
v -0.04793328 0.00727379 0.01368783
v -0.02998664 0.02279244 0.00983072
v -0.03696062 0.01620414 0.01599515
v -0.03358917 0.00060009 0.02060270
v -0.04848402 0.00456384 0.01349855
v -0.02813891 0.02094746 0.01246686
v -0.03105322 0.02179176 0.01104710
v -0.03440255 0.02317137 0.00740608
v -0.04686288 0.01513091 0.01069218
v -0.02679047 0.02481298 0.00707845
v -0.04231256 0.00916491 0.01807072
v -0.02631729 0.01437644 0.01841235
v -0.02546225 0.01522001 0.01783708
v -0.02599301 0.02177973 0.01177089
v -0.04220033 0.01464812 0.01533512
v -0.04650106 0.01795392 0.00001180
v -0.04548262 0.01462847 0.01257044
v -0.03779197 0.02499183 0.00069017
v -0.03341080 0.01537912 0.01719202
v -0.03513222 0.01479345 0.01740466
v -0.03209841 0.02204409 0.01032177
v -0.02600543 0.01830359 0.01519795
v -0.03189184 0.02384131 0.00723324
v -0.04191380 0.02068324 0.00670485
v -0.02652488 0.00565101 0.02131332
v -0.03850533 0.02329671 0.00433667
v -0.04188426 0.02311922 0.00188571
v -0.04356387 0.01036143 0.01688552
v -0.03052600 0.01964416 0.01349939
v -0.03357601 0.00863396 0.02020316
v -0.03826496 0.02306748 0.00497367
v -0.02552433 0.00117123 0.02113393
v -0.02641798 0.00942503 0.02086562
v -0.04794619 0.00543518 0.01398311
v -0.04403354 0.00699276 0.01721305
v -0.03716953 0.00018701 0.01985319
v -0.04032238 0.02178926 0.00599156
v -0.04485222 0.00507192 0.01669493
v -0.02744047 0.01812425 0.01530481
v -0.03408514 0.00737983 0.02025792
v -0.03432224 0.01156886 0.01933079
v -0.02816040 0.00964102 0.02062636
v -0.04138184 0.01791592 0.01183231
v -0.02998558 0.00890341 0.02060711
v -0.04701272 0.01355577 0.01187477
v -0.04793954 0.02002852 0.00139420
v -0.02650000 0.00007023 0.01119082
v -0.03486449 0.00090391 0.02036844
v -0.03361217 0.01557136 0.01700401
v -0.04085781 0.00711622 0.01882648
v -0.04305622 0.00261553 0.01833961
v -0.04871170 0.00019075 0.01340136
v -0.02934144 0.01723369 0.01599464
v -0.04086023 0.01660601 0.01402789
v -0.02527400 0.02179215 0.01182729
v -0.03175786 0.01195509 0.01948395
v -0.03776303 0.00812889 0.01937658
v -0.04495798 0.01155754 0.01527795
v -0.04204078 0.01179650 0.01729722
v -0.04750699 0.00608881 0.01437755
v -0.04396367 0.01633792 0.01198125
v -0.04454559 0.02191147 0.00165081
v -0.04334128 0.02181253 0.00327498
v -0.03705162 0.02410788 0.00367083
v -0.03889198 0.01020463 0.01878971
v -0.03254455 0.02255409 0.00938329
v -0.04783974 0.01870169 0.00438113
v -0.03640292 0.01607956 0.01618824
v -0.04532184 0.02116262 0.00245923
v -0.03110629 0.02391784 0.00745072
v -0.03613100 0.02247229 0.00770273
v -0.04315190 0.00286675 0.01826414
v -0.03610804 0.00160200 0.02009047
v -0.03786903 0.00927248 0.01918559
v -0.02504909 0.01388404 0.00116667
v -0.03804119 0.02249037 0.00630490
v -0.04707386 0.00593169 0.01476150
v -0.02911296 0.01254055 0.01939779
v -0.04489098 0.00290214 0.01680165
v -0.02517532 0.02393903 0.00003282
v -0.03050928 0.00371495 0.02092367
v -0.04186727 0.00706111 0.01859948
v -0.02901718 0.02475652 0.00637272
v -0.04637059 0.01412023 0.01210761
v -0.04997035 0.00967524 0.01072341
v -0.04402235 0.02271986 0.00039500
v -0.04790781 0.01778951 0.00574096
v -0.04936706 0.01512421 0.00090694
v -0.02636693 0.02046471 0.01318632
v -0.02740656 0.00021982 0.02133947
v -0.02932620 0.00952962 0.02053827
v -0.04814611 0.00227139 0.01399092
v -0.04762010 0.00752096 0.01398121
v -0.04387132 0.01759911 0.01046903
v -0.02659585 0.00430730 0.02135530
v -0.02935321 0.01554744 0.01741812
v -0.02660838 0.02477789 0.00721765
v -0.02606816 0.02388242 0.00002409
v -0.03939906 0.01432345 0.01706890
v -0.02649999 0.00053229 0.00715471
v -0.03426732 0.01346574 0.01842925
v -0.03323819 0.02483588 0.00418846
v -0.02679102 0.00952869 0.02079833
v -0.03848468 0.02498677 0.00019431
v -0.03001850 0.00912175 0.02056852
v -0.04495839 0.01802859 0.00876951
v -0.03092828 0.01155984 0.01972446
v -0.02936666 0.01230401 0.01950603
v -0.02950778 0.01032882 0.02029311
v -0.04821561 0.01841060 0.00430908
v -0.02613979 0.00911556 0.02097763
v -0.04987022 0.00433526 0.01191412
v -0.03383087 0.02178155 0.01001896
v -0.04899962 0.01421007 0.00898889
v -0.03775358 0.02209787 0.00730669
v -0.04248971 0.00972152 0.01787422
v -0.04820883 0.01104202 0.01231494
v -0.03169228 0.02152668 0.01125575
v -0.03445078 0.00632849 0.02030243
v -0.04739003 0.00912959 0.01381535
v -0.04816468 0.01234923 0.01157353
v -0.02500053 0.00975299 0.01849397
v -0.03963275 0.02458311 0.00025234
v -0.04186185 0.02110257 0.00598369
v -0.02544808 0.01755039 0.01589141
v -0.02512066 0.01999401 0.01368016
v -0.04230598 0.02316635 0.00132187
v -0.03479453 0.02300393 0.00755173
v -0.02930550 0.02393609 0.00810387
v -0.04499320 0.01787779 0.00898837
v -0.03694807 0.01451424 0.01732240
v -0.04333464 0.02132657 0.00431902
v -0.04231783 0.00431506 0.01859214
v -0.04410888 0.01314751 0.01494934
v -0.04267079 0.00876732 0.01798287
v -0.04166118 0.00126073 0.01884918
v -0.04172982 0.02384099 0.00014229
v -0.03000860 0.01483368 0.01794685
v -0.02927184 0.01165166 0.01981553
v -0.04865766 0.01447760 0.00916645
v -0.04171277 0.00329812 0.01881232
v -0.03186585 0.01123520 0.01978351
v -0.02724076 0.01922119 0.01431032
v -0.04975175 0.01538812 0.00676385
v -0.03812152 0.02124915 0.00871022
v -0.04047776 0.01417168 0.01684814
v -0.03140723 0.00000594 0.02086272
v -0.03687744 0.00285395 0.01991420
v -0.02917746 0.01886716 0.01446519
v -0.04914293 0.00037730 0.00864084
v -0.03072156 0.00295019 0.02092712
v -0.03352163 0.01212997 0.01921481
v -0.04280653 0.01588579 0.01348147
v -0.03266227 0.01335080 0.01874927
v -0.04447840 0.00736088 0.01678305
v -0.04058477 0.01591643 0.01499586
v -0.03613688 0.01915593 0.01276524
v -0.04836572 0.00285548 0.01376611
v -0.04046150 0.01978967 0.00954482
v -0.04510243 0.01908873 0.00677154
v -0.02686703 0.02079438 0.01278201
v -0.02509930 0.00590838 0.00045604
v -0.04171319 0.00143985 0.01883755
v -0.02500363 0.02449781 0.00822345
v -0.02956432 0.02358967 0.00870964
v -0.02741026 0.01857294 0.01489888
v -0.03016833 0.01129347 0.01990251
v -0.03878880 0.00246947 0.01949124
v -0.03380245 0.02242859 0.00901998
v -0.04120256 0.01938255 0.00966628
v -0.02928527 0.02204786 0.01114810
v -0.03128849 0.01442001 0.01818232
v -0.04874414 0.01124892 0.01155317
v -0.02942700 0.01516322 0.01771460
v -0.04997860 0.01067736 0.00513797
v -0.03269663 0.02059352 0.01215575
v -0.04916531 0.00246151 0.01294728
v -0.02933003 0.01852948 0.01478505
v -0.04579811 0.01079104 0.01488512
v -0.04376578 0.01591636 0.01267132
v -0.04298902 0.01786079 0.01076887
v -0.03781487 0.00863233 0.01929810
v -0.03731250 0.00993453 0.01920385
v -0.02857483 0.01696273 0.01626362
v -0.04934785 0.00047524 0.01278645
v -0.04239671 0.01387230 0.01573009
v -0.02516381 0.00225484 0.00552603
v -0.04049767 0.01219237 0.01784612
v -0.02570792 0.00586400 0.02139276
v -0.02505783 0.01112888 0.01987325
v -0.03641856 0.02228527 0.00787745
v -0.04131706 0.01601929 0.01438522
v -0.04713940 0.00265254 0.01491880
v -0.04417876 0.01038941 0.01638405
v -0.04257295 0.00847596 0.01809174
v -0.04396860 0.00030639 0.01761380
v -0.04471253 0.02003377 0.00544951
v -0.03958147 0.01642536 0.01499557
v -0.02523165 0.01013957 0.02044849
v -0.03166941 0.00568969 0.02071614
v -0.04665290 0.01892317 0.00540605
v -0.04598058 0.02123701 0.00144688
v -0.02834982 0.00378668 0.02117163
v -0.02867280 0.02407202 0.00805592
v -0.03950953 0.01377632 0.01734142
v -0.02548205 0.02398733 0.00911160
v -0.02573411 0.01286514 0.01941719
v -0.04512023 0.01600472 0.01138865
v -0.04819619 0.01588713 0.00823919
v -0.02848964 0.01992760 0.01346994
v -0.02629568 0.02091193 0.01270785
v -0.04207432 0.01885727 0.00983424
v -0.03584561 0.01563811 0.01666208
v -0.04863961 0.00439251 0.01335040
v -0.04248702 0.00706310 0.01835729
v -0.04812000 0.01056980 0.01263509
v -0.04355605 0.01754932 0.01083944
v -0.04991109 0.01338435 0.00241644
v -0.04402605 0.00027150 0.01756598
v -0.04996737 0.01216693 0.00365708
v -0.03868668 0.02151402 0.00779027
v -0.04312172 0.00997504 0.01732949
v -0.04851954 0.00344466 0.01356737
v -0.02649998 0.01257219 0.00006228
v -0.03278788 0.02403542 0.00636224
f 159 345 238
f 238 407 159
f 442 159 407
f 332 419 255
f 357 407 238
f 357 250 407
f 134 253 222
f 222 253 289
f 345 159 475
f 225 228 345
f 345 475 225
f 419 332 162
f 379 94 447
f 447 253 379
f 289 253 447
f 255 14 421
f 421 94 379
f 421 332 255
f 379 162 421
f 421 162 332
f 275 14 361
f 238 419 444
f 444 357 238
f 250 357 444
f 444 253 250
f 419 162 444
f 379 253 444
f 444 162 379
f 407 250 309
f 250 185 309
f 309 442 407
f 477 159 53
f 477 475 159
f 436 248 128
f 53 159 31
f 31 369 53
f 159 442 161
f 161 31 159
f 369 31 161
f 160 222 289
f 160 140 222
f 355 361 337
f 337 14 255
f 337 361 14
f 337 419 238
f 255 419 337
f 337 481 355
f 254 361 355
f 62 185 115
f 62 309 185
f 304 185 250
f 250 253 304
f 347 253 134
f 347 404 253
f 115 185 393
f 82 140 130
f 134 222 30
f 30 68 134
f 174 430 378
f 88 481 238
f 77 443 272
f 272 443 403
f 315 436 451
f 248 436 315
f 153 436 128
f 124 161 442
f 53 369 342
f 369 33 342
f 289 447 456
f 456 160 289
f 238 481 123
f 123 337 238
f 481 337 123
f 355 481 273
f 273 254 355
f 481 88 273
f 228 254 273
f 273 88 238
f 345 228 273
f 238 345 273
f 442 309 73
f 309 62 73
f 98 404 185
f 185 304 98
f 253 404 98
f 98 304 253
f 185 404 293
f 408 60 104
f 134 68 220
f 68 408 220
f 220 408 104
f 170 82 221
f 221 82 130
f 361 254 394
f 233 225 181
f 228 225 233
f 122 378 128
f 174 378 371
f 469 474 427
f 474 469 363
f 427 474 438
f 449 272 246
f 451 436 10
f 4 153 128
f 174 342 473
f 63 252 177
f 63 10 436
f 177 10 63
f 436 153 63
f 153 473 63
f 231 35 33
f 161 35 231
f 477 342 165
f 475 477 165
f 165 225 475
f 432 477 53
f 53 342 432
f 432 342 477
f 94 421 8
f 261 293 404
f 305 293 261
f 261 60 305
f 54 293 305
f 305 60 54
f 60 20 54
f 293 54 330
f 330 54 20
f 95 60 170
f 37 19 114
f 460 408 68
f 170 60 245
f 60 408 245
f 230 347 134
f 140 82 203
f 203 282 140
f 203 82 170
f 222 140 446
f 140 282 446
f 446 30 222
f 361 394 380
f 284 144 2
f 284 384 125
f 125 223 284
f 223 144 284
f 2 49 89
f 89 284 2
f 49 380 89
f 89 380 394
f 384 284 89
f 254 384 89
f 89 394 254
f 85 421 14
f 478 402 167
f 148 122 302
f 378 122 91
f 401 371 91
f 174 371 16
f 16 371 401
f 16 342 174
f 401 165 16
f 16 165 342
f 367 84 324
f 181 367 324
f 324 233 181
f 107 469 427
f 9 438 474
f 219 164 138
f 77 272 219
f 474 437 219
f 474 351 465
f 465 164 474
f 138 164 465
f 474 363 387
f 387 363 197
f 138 465 387
f 318 437 474
f 474 164 318
f 287 221 143
f 143 221 130
f 274 391 77
f 77 219 274
f 274 219 138
f 274 138 148
f 248 391 206
f 391 274 206
f 128 248 206
f 206 44 128
f 341 122 128
f 128 44 341
f 341 302 122
f 148 302 341
f 341 274 148
f 36 63 473
f 36 342 33
f 36 473 342
f 374 4 128
f 374 430 174
f 174 473 374
f 128 378 374
f 374 378 430
f 252 63 83
f 149 33 369
f 149 231 33
f 369 161 149
f 161 231 149
f 476 62 115
f 115 453 476
f 442 73 349
f 349 80 442
f 104 60 15
f 60 261 15
f 405 425 20
f 405 20 60
f 185 293 227
f 293 330 227
f 115 393 420
f 420 86 115
f 376 95 170
f 172 211 287
f 142 211 362
f 211 172 362
f 362 143 76
f 37 331 439
f 439 211 37
f 314 202 307
f 314 439 202
f 211 439 314
f 126 307 339
f 307 202 339
f 60 95 398
f 398 405 60
f 425 405 398
f 398 420 425
f 86 420 398
f 322 96 19
f 93 331 37
f 37 114 93
f 209 460 170
f 170 460 229
f 30 446 352
f 352 446 282
f 207 414 58
f 416 141 427
f 416 207 402
f 416 40 118
f 118 207 416
f 478 167 294
f 167 150 294
f 294 150 223
f 223 141 294
f 226 303 198
f 228 303 226
f 226 254 228
f 381 141 223
f 223 389 381
f 397 371 378
f 378 91 397
f 397 91 371
f 266 122 148
f 266 91 122
f 401 91 466
f 91 266 466
f 234 324 84
f 234 466 344
f 197 184 26
f 26 344 197
f 26 184 198
f 26 234 344
f 324 234 26
f 427 141 186
f 186 107 427
f 232 219 272
f 232 272 449
f 474 219 232
f 224 351 474
f 474 387 224
f 224 465 351
f 224 387 465
f 44 206 90
f 90 341 44
f 178 274 90
f 274 341 90
f 193 270 269
f 298 445 37
f 17 445 298
f 94 163 382
f 157 462 243
f 243 462 403
f 117 462 157
f 403 462 356
f 62 476 67
f 161 124 434
f 80 480 434
f 434 124 442
f 442 80 434
f 471 434 480
f 218 169 104
f 104 15 218
f 115 86 79
f 86 308 79
f 61 453 329
f 453 308 329
f 74 376 307
f 95 376 74
f 287 211 297
f 297 376 170
f 170 221 297
f 297 221 287
f 143 362 301
f 301 362 172
f 287 143 301
f 301 172 287
f 307 376 29
f 29 314 307
f 440 19 37
f 440 322 19
f 96 322 440
f 37 445 440
f 440 445 96
f 202 192 1
f 1 339 202
f 192 268 1
f 86 390 1
f 126 339 1
f 408 460 338
f 460 209 338
f 457 203 170
f 170 229 457
f 422 461 386
f 85 461 422
f 321 70 23
f 321 106 70
f 275 361 210
f 223 70 183
f 70 106 183
f 2 144 183
f 183 144 223
f 183 49 2
f 361 380 183
f 183 380 49
f 327 461 85
f 386 461 327
f 327 422 386
f 354 85 14
f 14 267 354
f 354 267 85
f 212 267 14
f 212 14 275
f 275 359 212
f 438 9 300
f 205 207 118
f 141 416 119
f 48 402 478
f 48 416 402
f 48 119 416
f 136 416 427
f 40 416 136
f 427 438 136
f 23 70 283
f 283 288 23
f 385 321 135
f 135 321 23
f 27 167 402
f 27 448 167
f 385 448 27
f 328 448 385
f 385 135 328
f 198 184 204
f 204 226 198
f 458 184 197
f 131 363 469
f 131 107 389
f 469 107 131
f 344 466 213
f 148 138 213
f 213 266 148
f 213 466 266
f 41 234 84
f 466 234 41
f 84 165 41
f 41 165 401
f 401 466 41
f 389 107 242
f 107 186 242
f 141 381 281
f 281 186 141
f 178 90 109
f 109 90 206
f 36 151 377
f 63 36 377
f 377 83 63
f 269 270 179
f 179 193 269
f 142 366 399
f 399 298 37
f 37 211 399
f 399 211 142
f 94 382 52
f 52 382 180
f 180 129 52
f 17 298 28
f 65 445 17
f 65 243 445
f 147 117 157
f 24 435 286
f 414 207 214
f 96 445 69
f 69 268 192
f 69 192 19
f 19 96 69
f 403 443 316
f 99 73 62
f 62 67 99
f 216 35 161
f 216 471 35
f 161 434 216
f 434 471 216
f 412 252 317
f 108 292 317
f 317 292 412
f 415 480 80
f 73 105 415
f 415 349 73
f 80 349 415
f 235 230 169
f 169 218 235
f 347 230 235
f 115 79 247
f 247 79 308
f 247 453 115
f 247 308 453
f 336 329 101
f 5 101 200
f 200 101 329
f 200 292 108
f 34 398 95
f 95 74 34
f 34 74 307
f 34 307 126
f 86 398 34
f 34 390 86
f 126 1 34
f 34 1 390
f 373 69 256
f 268 69 373
f 176 359 275
f 275 210 176
f 241 183 106
f 241 106 359
f 241 210 361
f 361 183 241
f 359 176 241
f 241 176 210
f 47 168 359
f 359 106 47
f 168 47 482
f 482 47 106
f 106 321 482
f 359 168 45
f 45 212 359
f 45 327 85
f 168 327 45
f 311 9 92
f 311 300 9
f 311 92 410
f 410 232 311
f 311 232 449
f 40 300 311
f 118 40 311
f 167 110 333
f 333 110 23
f 23 288 333
f 167 448 372
f 372 110 167
f 320 223 125
f 320 389 223
f 197 363 417
f 184 458 7
f 72 387 197
f 138 387 72
f 197 344 72
f 344 213 72
f 368 362 76
f 76 143 368
f 142 362 368
f 368 143 130
f 132 365 11
f 132 447 94
f 94 270 132
f 270 193 132
f 276 111 39
f 39 306 276
f 22 32 193
f 193 179 22
f 470 111 276
f 470 57 111
f 276 306 470
f 103 435 155
f 103 50 435
f 299 366 142
f 13 147 199
f 199 147 157
f 239 28 298
f 243 28 239
f 157 243 239
f 383 346 400
f 94 8 383
f 383 163 94
f 43 39 180
f 306 39 43
f 435 50 208
f 346 406 208
f 286 435 208
f 208 406 286
f 163 383 279
f 279 382 163
f 279 296 382
f 191 296 50
f 382 296 191
f 414 214 113
f 102 24 155
f 455 205 118
f 118 311 455
f 182 388 171
f 171 388 356
f 277 388 111
f 111 57 277
f 55 166 248
f 248 316 55
f 443 166 55
f 55 316 443
f 403 316 66
f 66 243 403
f 445 243 66
f 66 316 256
f 66 69 445
f 256 69 66
f 35 471 291
f 291 317 35
f 480 317 291
f 35 317 258
f 33 35 258
f 108 317 334
f 334 317 133
f 450 317 73
f 133 317 450
f 450 336 133
f 450 329 336
f 450 75 329
f 73 99 450
f 450 99 67
f 3 105 73
f 73 317 3
f 61 329 71
f 329 75 71
f 133 336 217
f 336 101 217
f 5 64 217
f 217 101 5
f 292 200 201
f 412 292 201
f 201 252 412
f 177 252 201
f 201 10 177
f 451 10 201
f 38 329 308
f 38 200 329
f 38 308 86
f 285 373 256
f 451 201 285
f 285 315 451
f 248 315 285
f 285 316 248
f 256 316 285
f 112 312 56
f 56 312 8
f 56 8 421
f 97 24 286
f 155 24 97
f 190 383 8
f 346 383 190
f 21 323 370
f 370 113 21
f 414 113 370
f 370 27 402
f 58 414 370
f 370 207 58
f 402 207 370
f 175 327 385
f 385 323 175
f 422 327 175
f 175 323 422
f 280 327 168
f 168 482 280
f 340 45 85
f 212 45 340
f 85 267 340
f 389 320 116
f 116 7 389
f 326 459 46
f 184 7 46
f 46 116 326
f 7 116 46
f 226 459 236
f 254 226 236
f 236 459 326
f 454 7 215
f 454 131 389
f 389 7 454
f 363 131 454
f 454 417 363
f 454 215 197
f 197 417 454
f 254 236 343
f 42 213 138
f 138 72 42
f 42 72 213
f 142 368 348
f 348 368 290
f 348 299 142
f 152 368 130
f 160 456 152
f 130 140 152
f 140 160 152
f 447 132 152
f 290 368 152
f 11 290 152
f 152 132 11
f 194 132 464
f 193 32 464
f 464 132 193
f 431 179 270
f 270 129 353
f 353 431 270
f 353 129 180
f 180 39 353
f 429 111 411
f 411 199 429
f 429 199 100
f 260 103 57
f 260 470 325
f 57 470 260
f 325 50 260
f 50 103 260
f 51 103 155
f 214 455 51
f 51 455 103
f 366 299 360
f 360 348 290
f 299 348 360
f 298 399 409
f 399 199 409
f 409 239 298
f 194 199 257
f 100 199 195
f 195 199 194
f 286 406 251
f 251 97 286
f 180 50 137
f 137 43 180
f 189 470 306
f 306 43 189
f 325 470 189
f 43 137 189
f 189 50 325
f 189 137 50
f 50 296 173
f 173 383 400
f 400 346 173
f 346 208 173
f 173 208 50
f 310 50 180
f 310 191 50
f 180 382 441
f 382 191 441
f 155 97 433
f 21 113 433
f 155 435 139
f 139 102 155
f 207 205 121
f 205 455 121
f 121 214 207
f 121 455 214
f 244 455 311
f 455 244 187
f 103 455 187
f 356 57 187
f 57 103 187
f 182 171 358
f 358 199 411
f 358 171 13
f 13 199 358
f 120 57 356
f 356 388 120
f 262 471 480
f 480 291 262
f 262 291 471
f 83 377 350
f 252 83 350
f 151 258 350
f 350 377 151
f 350 317 252
f 350 258 317
f 108 334 158
f 452 1 268
f 268 373 452
f 86 1 127
f 127 38 86
f 392 452 373
f 201 452 392
f 278 323 21
f 112 56 12
f 12 56 428
f 428 56 146
f 463 56 421
f 421 85 463
f 85 422 463
f 463 146 56
f 346 190 418
f 418 263 346
f 428 97 418
f 97 263 418
f 27 370 25
f 25 370 323
f 265 280 482
f 265 321 385
f 265 482 321
f 385 327 265
f 327 280 265
f 267 212 81
f 81 340 267
f 212 340 81
f 326 116 145
f 145 319 326
f 78 456 447
f 447 152 78
f 78 152 456
f 249 464 32
f 194 464 249
f 179 431 395
f 395 429 22
f 395 22 179
f 395 39 111
f 111 429 395
f 335 257 365
f 194 257 335
f 365 132 335
f 335 132 194
f 424 399 11
f 467 251 406
f 296 279 423
f 423 173 296
f 423 279 383
f 383 173 423
f 155 433 87
f 87 51 155
f 214 51 87
f 87 113 214
f 87 433 113
f 449 246 413
f 403 356 59
f 356 187 59
f 59 272 403
f 59 246 272
f 59 413 246
f 244 413 59
f 59 187 244
f 388 277 196
f 196 120 388
f 154 158 64
f 154 64 5
f 472 127 1
f 1 452 472
f 472 452 201
f 472 201 200
f 200 38 472
f 38 127 472
f 479 285 201
f 201 392 479
f 373 285 479
f 479 392 373
f 21 433 375
f 375 433 97
f 375 278 21
f 323 278 259
f 468 271 112
f 112 12 468
f 8 271 468
f 468 12 428
f 428 418 468
f 468 190 8
f 468 418 190
f 240 463 422
f 146 463 240
f 240 259 146
f 422 323 240
f 323 259 240
f 97 251 18
f 18 263 97
f 346 263 18
f 385 27 426
f 27 25 426
f 426 323 385
f 426 25 323
f 319 145 6
f 6 145 343
f 6 343 236
f 396 424 11
f 11 365 396
f 365 257 396
f 313 199 399
f 313 257 199
f 156 406 346
f 156 467 406
f 108 158 295
f 158 154 295
f 237 375 97
f 188 375 237
f 237 97 428
f 428 146 237
f 237 146 188
f 188 146 264
f 264 375 188
f 399 424 364
f 364 313 399
f 248 166 391
f 391 443 77
f 391 166 443
f 165 367 181
f 181 225 165
f 165 84 367
f 230 220 104
f 134 220 230
f 104 169 230
f 318 219 437
f 164 219 318
f 374 473 153
f 153 4 374
f 185 227 420
f 420 393 185
f 20 425 420
f 420 330 20
f 420 227 330
f 93 439 331
f 19 192 93
f 93 114 19
f 202 439 93
f 93 192 202
f 228 233 26
f 26 303 228
f 233 324 26
f 198 303 26
f 410 92 232
f 232 9 474
f 92 9 232
f 29 297 211
f 211 314 29
f 376 297 29
f 338 245 408
f 170 245 338
f 338 209 170
f 30 352 457
f 457 229 460
f 282 203 457
f 68 30 457
f 457 460 68
f 457 352 282
f 48 294 141
f 478 294 48
f 141 119 48
f 136 300 40
f 438 300 136
f 281 381 389
f 389 242 281
f 281 242 186
f 109 206 274
f 109 274 178
f 52 129 270
f 52 270 94
f 65 28 243
f 17 28 65
f 235 15 261
f 404 347 235
f 235 261 404
f 235 218 15
f 223 150 333
f 333 70 223
f 333 283 70
f 333 150 167
f 288 283 333
f 372 135 23
f 23 110 372
f 448 328 372
f 372 328 135
f 197 215 7
f 7 458 197
f 462 117 171
f 171 147 13
f 171 356 462
f 117 147 171
f 258 36 33
f 258 151 36
f 480 415 3
f 3 317 480
f 3 415 105
f 71 476 453
f 71 453 61
f 71 67 476
f 71 450 67
f 75 450 71
f 8 312 271
f 271 312 112
f 46 459 226
f 226 204 46
f 46 204 184
f 11 399 360
f 360 290 11
f 360 399 366
f 157 239 409
f 409 199 157
f 191 310 441
f 441 310 180
f 24 102 139
f 435 24 139
f 358 388 182
f 411 111 358
f 111 388 358
f 133 217 158
f 158 334 133
f 158 217 64
f 145 384 254
f 125 384 145
f 254 343 145
f 145 320 125
f 145 116 320
f 249 429 100
f 100 195 249
f 32 22 249
f 22 429 249
f 249 195 194
f 431 353 395
f 395 353 39
f 413 244 311
f 413 311 449
f 57 120 196
f 196 277 57
f 6 236 326
f 326 319 6
f 251 467 156
f 346 18 156
f 156 18 251
f 5 200 295
f 295 200 108
f 295 154 5
f 146 259 264
f 278 375 264
f 264 259 278
f 424 396 364
f 364 396 257
f 257 313 364

