# https://github.com/mikedh/trimesh
v 0.12541013 0.02504613 -0.01951161
v 0.12571428 0.02690211 -0.02093637
v 0.12620076 0.02512242 -0.01977872
v 0.12948056 0.02520669 -0.02291023
v 0.13004595 0.02510773 -0.02424288
v 0.12833596 0.02559688 -0.02126645
v 0.12749605 0.02684203 -0.02475344
v 0.12597219 0.02723904 -0.02259639
v 0.12710683 0.02504447 -0.01999491
v 0.12721420 0.02608069 -0.02096350
v 0.12536066 0.02729378 -0.02157999
v 0.12651222 0.02686792 -0.02214601
v 0.12695720 0.02716073 -0.02483420
v 0.12708018 0.02685279 -0.02365037
v 0.12530051 0.02626065 -0.02015487
v 0.12651912 0.02558408 -0.02012559
f 1 13 5
f 9 1 5
f 1 9 3
f 11 1 15
f 13 1 11
f 5 13 7
f 9 6 10
f 5 7 4
f 4 7 6
f 4 9 5
f 4 6 9
f 9 10 16
f 16 3 9
f 2 10 6
f 6 12 2
f 2 12 11
f 2 11 15
f 15 16 2
f 2 16 10
f 13 11 8
f 8 12 13
f 11 12 8
f 6 7 14
f 14 12 6
f 14 7 13
f 13 12 14
f 1 3 16
f 15 1 16

