# https://github.com/mikedh/trimesh
v -0.06213250 -0.01752224 -0.19695136
v -0.06505648 -0.01752224 -0.16407285
v -0.09966326 -0.01679933 -0.15790257
v -0.09199007 -0.01674898 -0.19944032
v -0.05390452 -0.01662689 -0.15022017
v -0.05045066 -0.01659070 -0.19593744
v -0.05277174 -0.01752116 -0.18001459
v -0.09273533 -0.01750321 -0.15607003
v -0.05002566 -0.01659997 -0.17416484
v -0.05971762 -0.01662447 -0.19979248
v -0.07322396 -0.01752223 -0.15294412
v -0.05746151 -0.01664052 -0.15036028
v -0.06809937 -0.01748617 -0.15386211
v -0.09996923 -0.01678060 -0.19769859
v -0.08063676 -0.01672954 -0.15090672
v -0.05102033 -0.01659168 -0.19835269
v -0.09577844 -0.01678829 -0.15007397
v -0.05636739 -0.01752224 -0.18987510
v -0.05266030 -0.01752224 -0.17513240
v -0.05049807 -0.01661043 -0.15687916
v -0.05088313 -0.01660693 -0.16683125
v -0.05001805 -0.01658951 -0.19498761
v -0.09189374 -0.01752223 -0.15567273
v -0.09894732 -0.01679952 -0.15203924
v -0.06401027 -0.01666381 -0.15424217
v -0.09047538 -0.01752224 -0.19933816
v -0.06148176 -0.01663122 -0.19988825
v -0.08696308 -0.01752224 -0.15413236
v -0.05229494 -0.01661189 -0.16778940
v -0.09754067 -0.01752224 -0.16222839
v -0.09452324 -0.01752224 -0.19668093
v -0.09656488 -0.01679122 -0.15028987
v -0.05535258 -0.01663249 -0.15017038
v -0.09584325 -0.01752224 -0.15945045
v -0.08116792 -0.01750393 -0.15182986
v -0.05885649 -0.01662119 -0.19972169
v -0.06469985 -0.01664356 -0.19999502
v -0.05018195 -0.01660837 -0.15856178
v -0.09992355 -0.01680214 -0.15431235
v -0.06520322 -0.01752223 -0.15574802
v -0.09602517 -0.01752224 -0.16003684
v -0.08010713 -0.01752224 -0.15348327
v -0.06103148 -0.01665400 -0.15092036
v -0.09657948 -0.01752224 -0.19510319
v -0.05831534 -0.01752224 -0.19336992
v -0.07463680 -0.01670682 -0.15011821
v -0.05424091 -0.01748913 -0.18643049
v -0.09989323 -0.01678134 -0.19564093
v -0.06039465 -0.01752224 -0.16095216
v -0.06249466 -0.01665829 -0.15359347
v -0.06324461 -0.01752224 -0.16157406
v -0.05530603 -0.01660775 -0.19923299
v -0.05491584 -0.01752224 -0.18695268
v -0.05270412 -0.01662201 -0.15074286
v -0.05463235 -0.01660512 -0.19931450
v -0.09856365 -0.01752224 -0.19288419
v -0.09000820 -0.01752224 -0.15496103
v -0.06138274 -0.01663084 -0.19987437
v -0.05017589 -0.01659607 -0.18309568
v -0.05090635 -0.01661467 -0.15155507
v -0.06762436 -0.01752223 -0.19967750
v -0.09816796 -0.01679690 -0.15127608
v -0.06472121 -0.01666635 -0.15462868
v -0.05279373 -0.01752224 -0.17640530
v -0.09993260 -0.01752224 -0.19023748
v -0.08809472 -0.01752224 -0.19965795
v -0.09916967 -0.01679585 -0.16106861
v -0.05029667 -0.01660992 -0.15634996
v -0.05481639 -0.01752223 -0.16786499
v -0.09438316 -0.01752224 -0.15782510
v -0.05893294 -0.01662148 -0.19973000
v -0.05268082 -0.01751597 -0.17727443
v -0.09544449 -0.01676224 -0.19955137
v -0.08290823 -0.01752224 -0.19995304
v -0.05763583 -0.01752224 -0.19155136
v -0.05362116 -0.01752224 -0.18287093
v -0.09606016 -0.01748323 -0.15892757
v -0.09246284 -0.01675077 -0.19951600
v -0.06180527 -0.01752224 -0.15804918
v -0.05858476 -0.01662105 -0.19790444
v -0.05048764 -0.01659732 -0.18298895
v -0.05586800 -0.01752223 -0.16508301
v -0.08545691 -0.01674854 -0.15004162
v -0.06139657 -0.01663096 -0.19973559
v -0.09994541 -0.01752224 -0.16387300
v -0.05905062 -0.01752224 -0.16059551
v -0.09674272 -0.01752224 -0.16198587
v -0.07578796 -0.01752223 -0.15212517
v -0.06407724 -0.01752224 -0.19829851
v -0.06082821 -0.01665338 -0.15059504
f 14 85 39
f 55 16 61
f 65 85 14
f 14 39 3
f 47 16 22
f 37 27 61
f 14 73 26
f 48 4 14
f 67 4 48
f 14 3 48
f 48 3 67
f 84 4 67
f 78 73 14
f 14 4 78
f 78 37 73
f 78 4 27
f 27 37 78
f 22 16 6
f 61 16 89
f 16 1 89
f 71 55 61
f 16 55 81
f 14 44 56
f 56 65 14
f 9 19 22
f 22 38 9
f 9 38 19
f 60 19 68
f 19 38 68
f 7 47 22
f 16 47 18
f 18 19 75
f 74 37 61
f 73 37 74
f 31 44 14
f 14 26 31
f 75 44 31
f 31 26 75
f 75 26 45
f 45 1 16
f 45 89 1
f 45 18 75
f 16 18 45
f 27 4 58
f 4 84 58
f 59 38 22
f 22 6 59
f 59 6 16
f 16 81 59
f 22 19 72
f 72 7 22
f 19 7 72
f 53 18 47
f 75 19 2
f 19 49 2
f 17 35 83
f 83 32 17
f 17 32 35
f 24 39 85
f 69 19 60
f 60 82 69
f 66 26 73
f 73 74 66
f 66 45 26
f 89 45 66
f 61 89 66
f 66 74 61
f 80 58 84
f 80 84 67
f 10 58 55
f 27 58 10
f 61 27 10
f 10 71 61
f 67 3 25
f 47 7 76
f 76 53 47
f 18 53 76
f 86 79 49
f 86 49 19
f 86 82 60
f 60 79 86
f 19 69 86
f 86 69 82
f 85 70 77
f 77 24 85
f 70 24 77
f 39 24 15
f 15 3 39
f 42 79 88
f 35 32 57
f 32 23 57
f 70 23 8
f 52 81 55
f 52 80 81
f 55 58 52
f 58 80 52
f 55 71 36
f 36 10 55
f 71 10 36
f 68 12 33
f 33 5 68
f 83 35 33
f 33 35 88
f 88 5 33
f 60 68 54
f 68 5 54
f 13 5 88
f 13 54 5
f 67 25 63
f 81 80 29
f 29 63 25
f 29 80 67
f 67 63 29
f 19 18 64
f 18 76 64
f 64 7 19
f 64 76 7
f 3 15 90
f 90 12 68
f 68 20 90
f 88 35 28
f 35 57 28
f 28 42 88
f 62 8 23
f 62 24 70
f 70 8 62
f 62 23 32
f 83 15 62
f 62 15 24
f 62 32 83
f 40 79 60
f 60 54 40
f 54 13 40
f 21 20 68
f 21 68 38
f 38 59 21
f 21 59 81
f 81 29 21
f 51 2 49
f 43 25 3
f 3 90 43
f 43 90 20
f 46 15 83
f 46 90 15
f 12 90 46
f 83 33 46
f 46 33 12
f 11 13 88
f 11 40 13
f 88 79 11
f 79 40 11
f 25 43 50
f 50 43 20
f 50 29 25
f 50 21 29
f 20 21 50
f 42 28 41
f 41 51 49
f 49 79 41
f 79 42 41
f 2 51 41
f 34 23 70
f 34 57 23
f 34 70 85
f 85 41 34
f 34 28 57
f 34 41 28
f 87 56 44
f 87 44 75
f 75 2 87
f 2 41 87
f 30 41 85
f 30 87 41
f 56 87 30
f 85 65 30
f 65 56 30

