# https://github.com/mikedh/trimesh
v -0.06399217 -0.00591700 -0.02169306
v -0.06371718 -0.00659389 -0.02101065
v -0.06028389 -0.00913903 -0.00899188
v -0.06080888 -0.00769200 -0.00939718
v -0.06303783 -0.00713595 -0.01823331
v -0.05829156 -0.01381287 -0.00885067
v -0.05521530 -0.01669205 -0.00557365
v -0.06229221 -0.00157021 -0.01128853
v -0.06048144 -0.00751517 -0.00827098
v -0.05024042 -0.02169079 -0.00598396
v -0.05509311 -0.00034861 -0.00035939
v -0.06376133 -0.00591266 -0.02000769
v -0.05776129 -0.00851907 -0.00170938
v -0.05202760 -0.02442411 -0.02436159
v -0.05620932 -0.01650131 -0.00779119
v -0.05073216 -0.02410960 -0.01646730
v -0.06238172 -0.01045785 -0.02005948
v -0.05773539 -0.00491330 -0.00009590
v -0.05449529 -0.01843401 -0.00741780
v -0.05645723 -0.01962593 -0.01875503
v -0.06132408 -0.00411163 -0.00881235
v -0.05700486 -0.01310592 -0.00430205
v -0.05904285 -0.00071771 -0.00206994
v -0.06079417 -0.01082131 -0.01308785
v -0.05811864 -0.00884132 -0.00272446
v -0.05740996 -0.01731284 -0.01427499
v -0.05692082 -0.01290986 -0.00379901
v -0.06300884 -0.00674873 -0.01758706
v -0.05905722 -0.01655203 -0.01887981
v -0.05766648 -0.00667173 -0.00053289
v -0.05732889 -0.01572290 -0.00950825
v -0.05770088 -0.01040828 -0.00275718
v -0.05814071 -0.01800715 -0.01995417
v -0.06001772 -0.01591621 -0.02253746
v -0.05933789 -0.00716939 -0.00479948
v -0.05010523 -0.01229588 -0.01500007
v -0.05658035 -0.00003451 -0.00379691
v -0.06036032 -0.01446018 -0.01950562
v -0.05805489 -0.01089415 -0.00416277
v -0.05323880 -0.02162587 -0.01369242
v -0.06325522 -0.00745133 -0.01972265
v -0.05580427 -0.01398407 -0.00233326
v -0.05920551 -0.01753418 -0.02435871
v -0.05332290 -0.01982036 -0.00791074
v -0.05141635 -0.02019966 -0.00443147
v -0.06375412 -0.00686559 -0.02183210
v -0.06246304 -0.00575384 -0.01425491
v -0.05627065 -0.01658988 -0.00812838
v -0.05616944 -0.01826296 -0.01235849
v -0.06209411 -0.01223628 -0.02278624
v -0.06013951 -0.00944699 -0.00881389
v -0.05316598 -0.02174209 -0.01394569
v -0.05318430 -0.02048745 -0.00935212
v -0.05593607 -0.00003504 -0.01278163
v -0.05065348 -0.02487398 -0.02010366
v -0.05294446 -0.02004325 -0.00756998
v -0.06476669 -0.00334342 -0.02459992
v -0.05840882 -0.00127315 -0.00069499
v -0.06364328 -0.00864605 -0.02481901
v -0.06454348 -0.00447667 -0.02398722
v -0.05395509 -0.01908702 -0.00762638
v -0.05989488 -0.01061981 -0.00922866
v -0.06018449 -0.01032768 -0.00993859
v -0.05398058 -0.01669544 -0.00238450
v -0.05318747 -0.02213183 -0.01587699
v -0.05401828 -0.01541041 -0.00044351
v -0.06130814 -0.00669104 -0.01041815
v -0.05675442 -0.01514045 -0.00685797
v -0.06024835 -0.01205864 -0.01297902
v -0.05482206 -0.02090714 -0.01665035
v -0.05049568 -0.02088915 -0.00433076
v -0.05412891 -0.01888632 -0.00755466
v -0.06274975 -0.00718262 -0.01697862
v -0.05017175 -0.00165866 -0.01500006
v -0.05930442 -0.01121464 -0.00818694
v -0.06059869 -0.01054173 -0.01173766
v -0.05285925 -0.02150960 -0.01183657
v -0.06493158 -0.00077700 -0.02357047
v -0.06031541 -0.01316521 -0.01586299
v -0.05203732 -0.02375230 -0.01965875
v -0.05308704 -0.02369966 -0.02492097
v -0.05258231 -0.02021113 -0.00713624
v -0.05925344 -0.01630505 -0.01915419
v -0.05381325 -0.02180201 -0.01663697
v -0.05415135 -0.01914322 -0.00820821
v -0.06399995 -0.00749644 -0.02484131
v -0.06397665 -0.00734006 -0.02435371
v -0.06203891 -0.00401288 -0.01125849
v -0.06346793 -0.00928561 -0.02497175
v -0.05888969 -0.01645444 -0.01787652
v -0.06401466 -0.00553069 -0.02135671
v -0.06002439 -0.01512412 -0.01967451
v -0.06193452 -0.00020129 -0.00985130
v -0.06130938 -0.00765460 -0.01125608
v -0.06216760 -0.00157717 -0.01085998
v -0.05288338 -0.02190234 -0.01365618
v -0.05926412 -0.01702678 -0.02193254
v -0.06036358 -0.01590310 -0.02492400
v -0.05915336 -0.01067444 -0.00701044
v -0.06218147 -0.00810342 -0.01560619
v -0.06088668 -0.01285643 -0.01774849
v -0.05472754 -0.00320339 -0.00006668
v -0.05863640 -0.01320005 -0.00891024
v -0.05869674 -0.01818861 -0.02435380
v -0.06293945 -0.01007886 -0.02304993
v -0.05438211 -0.02237444 -0.02243388
v -0.05754291 -0.01501182 -0.00875256
v -0.05882820 -0.00618080 -0.00286798
v -0.05749350 -0.01962308 -0.02466952
v -0.05557131 -0.01449870 -0.00263349
v -0.05489753 -0.01688094 -0.00512017
v -0.05847358 -0.00644546 -0.00211816
v -0.06145698 -0.01166925 -0.01753093
v -0.06046347 -0.01218964 -0.01420191
v -0.05424903 -0.02104091 -0.01501856
v -0.05434979 -0.00577428 -0.00002623
v -0.05739611 -0.01128952 -0.00287517
v -0.05022638 -0.02211465 -0.00710288
v -0.05561073 -0.02117707 -0.02151504
v -0.05774772 -0.01504325 -0.00946016
v -0.05988326 -0.01039916 -0.00894204
v -0.06147379 -0.00008972 -0.00842281
v -0.06012284 -0.01061561 -0.01003609
v -0.06508952 -0.00037974 -0.02447592
v -0.05531437 -0.01374162 -0.00074578
v -0.05525699 -0.01404078 -0.00104207
v -0.05867222 -0.01680478 -0.01789525
v -0.06099423 -0.01028796 -0.01318267
v -0.05327469 -0.01731279 -0.00191349
v -0.06191607 -0.01278848 -0.02358343
v -0.05925221 -0.00606905 -0.00396222
v -0.05966455 -0.01426907 -0.01570685
v -0.05140368 -0.01888572 -0.00135858
v -0.06069851 -0.00868459 -0.01002551
v -0.05557259 -0.02096866 -0.02010168
v -0.05983631 -0.01150456 -0.01032054
v -0.05700809 -0.00934576 -0.00051458
v -0.05092206 -0.02041761 -0.00391747
v -0.05460409 -0.01498486 -0.00103200
v -0.06068223 -0.01046552 -0.01200256
v -0.05612898 -0.01493871 -0.00483844
v -0.06145792 -0.00394719 -0.00919288
v -0.05885153 -0.00551194 -0.00269644
v -0.05809273 -0.01803002 -0.01980225
v -0.05117026 -0.02489476 -0.02328396
v -0.05792219 -0.01685514 -0.01497279
v -0.05688276 -0.01044199 -0.00091721
v -0.06118073 -0.00945155 -0.01285290
v -0.06110933 -0.01064720 -0.01425252
v -0.05857750 -0.00271304 -0.00124952
v -0.05970095 -0.01110426 -0.00926404
v -0.06048734 -0.01180932 -0.01355032
v -0.05025410 -0.01499522 -0.00000424
v -0.05932760 -0.01189674 -0.00922337
v -0.05393166 -0.02236984 -0.01994129
v -0.05559697 -0.01779397 -0.00881953
v -0.05694296 -0.00000002 -0.00464862
v -0.05088096 -0.02353185 -0.01411295
v -0.05648944 -0.01626117 -0.00808014
v -0.05850453 -0.00855325 -0.00351536
v -0.05928155 -0.00512089 -0.00361368
v -0.06269787 -0.00065447 -0.01256551
v -0.06081387 -0.01173227 -0.01483380
v -0.06040672 -0.00003651 -0.00563275
v -0.05143367 -0.01961528 -0.00308708
v -0.05852180 -0.01705698 -0.01802794
v -0.06457022 -0.00508574 -0.02481314
v -0.05144779 -0.00068918 -0.01500006
v -0.05757411 -0.01587190 -0.01072147
v -0.05940469 -0.01667615 -0.02130840
v -0.05676741 -0.00966713 -0.00016869
v -0.05395587 -0.00023729 -0.01500006
v -0.06083003 -0.01389832 -0.02040733
v -0.05549398 -0.01960265 -0.01443410
v -0.05114080 -0.02420158 -0.01849838
v -0.05895850 -0.01742156 -0.02189896
v -0.06128888 -0.00942102 -0.01330732
v -0.05788409 -0.00663240 -0.00095159
v -0.06235075 -0.01123732 -0.02149102
v -0.05134357 -0.02296192 -0.01300041
v -0.05450267 -0.01929023 -0.00954138
v -0.06083957 -0.00305148 -0.00703934
v -0.06271140 -0.00081496 -0.01267346
v -0.06132788 -0.00819631 -0.01195741
v -0.05242223 -0.02075591 -0.00806365
v -0.05833491 -0.00583838 -0.00161296
v -0.06033284 -0.00766054 -0.00792531
v -0.05479461 -0.01882075 -0.00913605
v -0.05576043 -0.01873697 -0.01227582
v -0.05011973 -0.02438351 -0.01571287
v -0.06147579 -0.00208534 -0.00868713
v -0.06132443 -0.00736847 -0.01100003
v -0.05653328 -0.01079074 -0.00043077
v -0.06334635 -0.00678804 -0.01918301
v -0.05825786 -0.00551179 -0.00133618
v -0.06244178 -0.01022792 -0.01998434
v -0.06011935 -0.01129928 -0.01109377
v -0.06045933 -0.00923378 -0.00972159
v -0.05745227 -0.00729535 -0.00041554
v -0.05833497 -0.01530713 -0.01241417
v -0.05792980 -0.00976456 -0.00287407
v -0.05514940 -0.02144461 -0.02006315
v -0.06042216 -0.01006942 -0.01050386
v -0.05744819 -0.01079683 -0.00251906
v -0.05958749 -0.00284332 -0.00357775
v -0.05798016 -0.01569234 -0.01188891
v -0.05885879 -0.01589138 -0.01624966
v -0.05561434 -0.01651382 -0.00627052
v -0.05475804 -0.02120437 -0.01753788
v -0.06025534 -0.01481750 -0.02000176
v -0.05049876 -0.02278566 -0.00962569
v -0.06365368 -0.00655239 -0.02049239
v -0.06062441 -0.00814964 -0.00915157
v -0.06061671 -0.00368293 -0.00664835
v -0.06128299 -0.00413728 -0.00869800
v -0.06417438 -0.00626024 -0.02360578
v -0.05430935 -0.02182980 -0.01863170
v -0.05928666 -0.00508506 -0.00361157
v -0.05959465 -0.01631685 -0.02120052
v -0.05974469 -0.00434499 -0.00454083
v -0.05444006 -0.01449034 -0.00002359
v -0.06431238 -0.00607629 -0.02428792
v -0.05843560 -0.01817672 -0.02267892
v -0.06198000 -0.00652202 -0.01283362
v -0.05969118 -0.01268024 -0.01187279
v -0.06212136 -0.00009211 -0.01045887
v -0.05774700 -0.00711844 -0.00090286
v -0.05662564 -0.01020292 -0.00018232
v -0.05432449 -0.02189353 -0.01901231
v -0.05893602 -0.01724961 -0.02076707
v -0.06243166 -0.00668898 -0.01496904
v -0.05563936 -0.02112522 -0.02137204
v -0.05823694 -0.01608298 -0.01405544
v -0.06086302 -0.01299674 -0.01800820
v -0.05379149 -0.01717497 -0.00284057
v -0.05532057 -0.02033343 -0.01648268
v -0.05148511 -0.02160674 -0.00827603
v -0.05189654 -0.01783304 -0.00038241
v -0.06426301 -0.00624357 -0.02422563
v -0.05964678 -0.01635926 -0.02171048
v -0.05736524 -0.01463115 -0.00762297
v -0.06240189 -0.01143786 -0.02246314
v -0.05977211 -0.01183590 -0.01066953
v -0.06280360 -0.01069661 -0.02346014
v -0.05735733 -0.00802820 -0.00055630
v -0.05881490 -0.00042657 -0.00147458
v -0.06427332 -0.00009170 -0.01930309
v -0.05915593 -0.01533504 -0.01612343
v -0.06380312 -0.00647669 -0.02135223
v -0.05001499 -0.01550601 -0.00888181
v -0.05742009 -0.01775085 -0.01581362
v -0.06029829 -0.00870101 -0.00858231
v -0.06077049 -0.00296285 -0.00681226
v -0.06159552 -0.01195688 -0.01873637
v -0.06380117 -0.00543151 -0.01991545
v -0.05825612 -0.00091220 -0.00040627
v -0.06368084 -0.00597728 -0.01963286
v -0.05604170 -0.01386299 -0.00276219
v -0.05938402 -0.00641301 -0.00451263
v -0.05637730 -0.01392352 -0.00376494
v -0.05079942 -0.02229476 -0.00875290
v -0.06112163 -0.00004530 -0.00750545
v -0.05355485 -0.02265263 -0.01992354
v -0.05030378 -0.02038384 -0.00259937
v -0.05903006 -0.01575148 -0.01663084
v -0.05806097 -0.01749960 -0.01762286
v -0.05502624 -0.01460513 -0.00141722
v -0.05410957 -0.02219596 -0.01971971
v -0.06060968 -0.00871399 -0.00971436
v -0.05109079 -0.01905839 -0.00114315
v -0.06503388 -0.00041894 -0.02406105
v -0.06030819 -0.00809987 -0.00813424
v -0.05813922 -0.00330345 -0.00038523
v -0.05209060 -0.02085703 -0.00759902
v -0.06127326 -0.00361388 -0.00846890
v -0.06256040 -0.01158963 -0.02419188
v -0.05069445 -0.02491713 -0.02063858
v -0.05363129 -0.01657019 -0.00126657
v -0.05934602 -0.00154296 -0.00287456
v -0.06453201 -0.00010493 -0.02066160
v -0.06177188 -0.00201222 -0.00961362
v -0.05838285 -0.00299993 -0.00084917
v -0.06106517 -0.00543846 -0.00880380
v -0.05779174 -0.01660396 -0.01369444
v -0.06033748 -0.00827696 -0.00835330
v -0.06041272 -0.00441163 -0.00641529
v -0.05863953 -0.00574972 -0.00228255
v -0.05868803 -0.00347364 -0.00169312
v -0.05617080 -0.02074986 -0.02260151
v -0.05411322 -0.01784036 -0.00513231
v -0.05705073 -0.01216018 -0.00312284
v -0.05312097 -0.02296255 -0.01981271
v -0.05103046 -0.02258553 -0.01041120
v -0.05797232 -0.01636159 -0.01373004
v -0.05171326 -0.01915057 -0.00263951
v -0.06366029 -0.00850871 -0.02464607
v -0.05452432 -0.02244924 -0.02394339
v -0.05355091 -0.01724065 -0.00237736
v -0.06397004 -0.00376503 -0.01980666
v -0.06069064 -0.00763936 -0.00897397
v -0.05461449 -0.01827053 -0.00735715
v -0.06344594 -0.00020554 -0.01553634
v -0.06435520 -0.00023925 -0.01975592
v -0.05723925 -0.01902444 -0.01988621
v -0.05239416 -0.01977814 -0.00567783
v -0.06074953 -0.01503645 -0.02414750
v -0.05539728 -0.01890939 -0.01135710
v -0.05343712 -0.02338134 -0.02453649
v -0.05857005 -0.01701482 -0.01809906
v -0.05324058 -0.01672563 -0.00074217
v -0.05008994 -0.02298454 -0.01179820
v -0.05880436 -0.00281006 -0.00178191
v -0.06200911 -0.01150485 -0.01976177
v -0.06217516 -0.00059532 -0.01067985
v -0.05627856 -0.01541296 -0.00605323
v -0.06027198 -0.01271310 -0.01454999
v -0.06354019 -0.00602222 -0.01905908
v -0.05926473 -0.00007060 -0.00263520
v -0.05900973 -0.01639919 -0.01825432
v -0.05957294 -0.01674728 -0.02284215
v -0.05389759 -0.02182076 -0.01703962
v -0.06178532 -0.00636515 -0.01186645
v -0.05840803 -0.01492673 -0.01172528
v -0.06487585 -0.00051012 -0.02299785
v -0.06143261 -0.01391104 -0.02450588
v -0.06501751 -0.00027327 -0.02388349
v -0.05015340 -0.02090741 -0.00371950
v -0.06172234 -0.00437023 -0.01033031
v -0.05813024 -0.00613785 -0.00127839
v -0.05425966 -0.02261540 -0.02350322
v -0.05452759 -0.01999101 -0.01202695
v -0.05892249 -0.00032055 -0.00175493
v -0.05072147 -0.00099136 -0.01500006
v -0.06055268 -0.01109262 -0.01249908
v -0.05742620 -0.01123337 -0.00288159
v -0.05064951 -0.02066051 -0.00402324
v -0.05496839 -0.02129472 -0.01869237
v -0.05911386 -0.00458736 -0.00301000
v -0.05755046 -0.01384066 -0.00682470
v -0.05810082 -0.00392843 -0.00049928
v -0.05978745 -0.00757385 -0.00631303
v -0.06243333 -0.01194650 -0.02440195
v -0.05530018 -0.02072312 -0.01789176
v -0.05762961 -0.01849502 -0.01955601
v -0.05683752 -0.01828168 -0.01525604
v -0.05478939 -0.01724523 -0.00556497
v -0.05156027 -0.02060685 -0.00579082
v -0.05382378 -0.02005510 -0.00993190
v -0.05879111 -0.01572960 -0.01552544
f 74 153 250
f 124 74 81
f 277 74 36
f 36 74 250
f 145 74 277
f 153 74 11
f 277 36 190
f 190 36 250
f 14 81 74
f 74 145 14
f 14 145 277
f 311 190 250
f 153 221 238
f 270 264 153
f 153 238 270
f 102 11 256
f 153 11 102
f 325 98 306
f 306 98 34
f 172 168 124
f 172 280 54
f 11 168 172
f 333 11 74
f 333 168 11
f 333 74 124
f 124 168 333
f 247 157 54
f 54 280 247
f 124 81 167
f 109 98 81
f 310 238 221
f 18 102 256
f 18 171 221
f 221 171 228
f 11 172 37
f 37 318 11
f 157 318 37
f 54 157 37
f 37 172 54
f 326 172 124
f 280 172 326
f 303 247 280
f 325 173 130
f 230 144 166
f 190 311 327
f 327 118 190
f 327 10 118
f 264 10 327
f 153 264 327
f 327 311 250
f 250 153 327
f 190 118 211
f 66 310 221
f 103 225 6
f 116 18 221
f 102 18 116
f 116 221 153
f 153 102 116
f 125 42 126
f 164 318 157
f 281 314 95
f 191 122 93
f 93 281 191
f 314 281 93
f 93 122 226
f 226 314 93
f 252 99 32
f 318 23 246
f 256 11 246
f 226 247 302
f 247 303 302
f 328 88 322
f 88 302 257
f 173 210 254
f 254 313 173
f 173 313 50
f 50 130 173
f 81 98 89
f 89 167 81
f 106 155 202
f 202 330 106
f 297 109 81
f 297 330 202
f 277 190 55
f 190 16 55
f 144 230 33
f 264 336 71
f 71 10 264
f 237 77 293
f 77 180 293
f 293 180 211
f 261 118 237
f 261 211 118
f 237 293 261
f 261 293 211
f 343 202 337
f 99 103 39
f 32 99 39
f 75 103 99
f 126 42 267
f 42 125 258
f 171 30 245
f 171 245 227
f 227 30 178
f 227 245 30
f 193 125 221
f 221 228 193
f 349 265 207
f 38 254 210
f 234 254 38
f 226 122 262
f 262 247 226
f 157 247 262
f 262 164 157
f 21 283 215
f 275 21 215
f 191 281 275
f 122 205 279
f 318 122 279
f 279 23 318
f 279 246 23
f 205 246 279
f 341 160 35
f 201 252 32
f 160 201 25
f 11 318 332
f 332 246 11
f 318 246 332
f 183 302 88
f 94 192 224
f 224 192 322
f 47 322 88
f 79 225 316
f 316 254 79
f 79 254 101
f 101 254 234
f 325 130 342
f 342 98 325
f 342 89 98
f 130 50 342
f 308 297 81
f 330 297 308
f 109 297 289
f 158 16 190
f 190 211 158
f 211 180 158
f 135 289 202
f 98 109 104
f 104 43 98
f 34 98 240
f 98 170 240
f 98 43 320
f 320 170 98
f 29 170 230
f 77 331 115
f 70 307 337
f 70 331 307
f 337 307 236
f 236 343 337
f 166 144 266
f 6 225 323
f 323 265 349
f 79 132 323
f 323 225 79
f 278 129 310
f 278 139 126
f 66 139 278
f 310 66 278
f 126 267 278
f 138 336 264
f 335 103 117
f 335 39 103
f 32 39 335
f 335 204 32
f 335 193 204
f 117 125 335
f 125 193 335
f 6 107 339
f 339 103 6
f 22 103 339
f 339 258 22
f 260 258 339
f 120 107 6
f 31 107 120
f 6 323 120
f 159 107 31
f 68 159 315
f 107 159 68
f 110 267 42
f 117 103 291
f 291 125 117
f 291 258 125
f 171 18 199
f 199 30 171
f 18 30 199
f 112 227 178
f 112 25 13
f 160 25 112
f 108 35 112
f 112 35 160
f 329 112 178
f 32 204 147
f 204 193 147
f 147 193 228
f 271 326 124
f 142 281 88
f 142 88 328
f 328 21 142
f 142 275 281
f 21 275 142
f 67 21 328
f 328 322 67
f 205 220 218
f 214 275 215
f 214 220 205
f 313 254 113
f 272 201 160
f 272 160 341
f 282 312 205
f 162 314 226
f 226 302 162
f 302 183 162
f 222 1 167
f 239 216 222
f 324 255 280
f 280 326 324
f 326 271 324
f 324 271 78
f 299 303 280
f 280 255 299
f 299 255 257
f 299 302 303
f 299 257 302
f 89 342 276
f 257 212 41
f 41 194 257
f 86 216 239
f 239 222 86
f 167 89 86
f 86 222 167
f 12 212 257
f 257 255 12
f 167 1 12
f 1 222 12
f 12 222 216
f 12 324 78
f 255 324 12
f 119 297 202
f 119 289 297
f 55 80 292
f 175 55 16
f 175 80 55
f 304 135 202
f 144 33 304
f 304 344 144
f 20 344 304
f 304 343 20
f 202 343 304
f 223 104 109
f 230 104 223
f 176 104 230
f 43 104 176
f 219 240 170
f 230 170 97
f 170 320 97
f 97 320 43
f 97 176 230
f 43 176 97
f 265 29 319
f 319 207 265
f 309 230 166
f 309 29 230
f 209 70 337
f 209 115 331
f 331 70 209
f 174 236 307
f 265 323 248
f 248 323 132
f 189 266 345
f 345 174 189
f 189 174 307
f 237 138 347
f 347 274 237
f 165 138 264
f 129 278 298
f 72 298 19
f 237 274 185
f 185 77 237
f 185 53 77
f 274 347 185
f 348 331 77
f 77 53 348
f 260 339 241
f 241 339 107
f 107 68 241
f 31 120 169
f 169 120 323
f 141 110 42
f 42 68 141
f 141 68 315
f 22 258 27
f 258 291 27
f 27 103 22
f 27 291 103
f 137 112 13
f 171 227 137
f 227 112 137
f 186 329 195
f 112 329 186
f 124 167 57
f 167 60 57
f 57 60 78
f 57 271 124
f 78 271 57
f 215 259 131
f 259 35 131
f 131 35 108
f 253 214 205
f 253 122 191
f 253 205 122
f 24 76 313
f 313 113 24
f 184 76 94
f 184 148 76
f 94 224 184
f 224 231 184
f 257 194 5
f 76 148 140
f 225 103 243
f 243 136 225
f 103 136 243
f 103 75 151
f 151 75 99
f 269 134 203
f 203 134 94
f 94 76 203
f 252 201 285
f 201 272 285
f 215 283 9
f 288 282 205
f 273 18 256
f 150 282 246
f 312 282 150
f 95 314 8
f 314 162 8
f 8 162 183
f 8 281 95
f 88 281 8
f 8 183 88
f 89 276 244
f 196 41 212
f 313 41 196
f 196 17 313
f 249 12 216
f 212 12 249
f 78 60 91
f 91 12 78
f 91 60 167
f 167 12 91
f 202 289 232
f 232 119 202
f 289 119 232
f 263 292 155
f 55 292 263
f 337 202 217
f 96 180 77
f 77 52 96
f 40 52 77
f 40 209 337
f 170 29 83
f 83 219 170
f 29 309 127
f 166 266 251
f 266 189 251
f 310 129 133
f 264 270 133
f 133 165 264
f 133 270 238
f 238 310 133
f 45 347 138
f 138 165 45
f 45 185 347
f 307 331 181
f 331 348 181
f 181 348 53
f 53 185 181
f 49 189 307
f 286 214 215
f 215 131 286
f 108 218 161
f 161 131 108
f 275 214 182
f 214 253 182
f 191 275 182
f 182 253 191
f 69 113 254
f 225 136 69
f 128 140 148
f 154 136 103
f 103 151 154
f 154 151 136
f 62 151 99
f 136 151 62
f 269 203 198
f 187 272 341
f 187 9 272
f 300 9 283
f 300 285 272
f 272 9 300
f 338 288 205
f 338 218 108
f 205 218 338
f 340 273 195
f 195 329 340
f 18 273 340
f 256 246 58
f 58 273 256
f 282 273 58
f 246 282 58
f 242 244 276
f 242 50 313
f 242 342 50
f 242 276 342
f 313 17 179
f 179 242 313
f 244 242 179
f 89 244 179
f 59 86 89
f 59 296 86
f 216 86 87
f 87 249 216
f 86 249 87
f 86 296 46
f 46 249 86
f 155 292 268
f 202 155 268
f 65 217 180
f 321 217 65
f 180 96 65
f 52 40 84
f 84 40 337
f 337 217 84
f 84 217 321
f 210 219 92
f 219 83 92
f 92 38 210
f 206 169 323
f 26 169 284
f 295 133 129
f 165 133 295
f 185 45 82
f 307 181 188
f 61 72 85
f 85 188 181
f 185 44 85
f 85 181 185
f 85 72 19
f 19 188 85
f 85 165 61
f 159 15 208
f 156 188 19
f 307 188 156
f 156 49 307
f 31 169 156
f 26 49 156
f 156 169 26
f 19 298 290
f 278 64 235
f 235 298 278
f 346 156 235
f 235 290 298
f 334 24 113
f 76 24 334
f 225 69 114
f 114 69 254
f 317 28 231
f 257 28 317
f 317 231 224
f 317 224 322
f 322 47 317
f 88 257 317
f 317 47 88
f 257 5 73
f 73 28 257
f 177 128 148
f 140 128 149
f 313 76 149
f 76 140 149
f 121 62 99
f 99 252 121
f 252 51 121
f 123 203 76
f 76 136 123
f 136 62 123
f 62 121 123
f 3 51 252
f 322 192 4
f 4 67 322
f 4 300 283
f 283 21 4
f 21 67 4
f 108 112 143
f 143 338 108
f 112 338 143
f 112 186 287
f 287 338 112
f 89 179 105
f 105 179 17
f 212 249 2
f 249 46 2
f 229 217 202
f 202 268 229
f 200 206 323
f 166 26 146
f 26 284 146
f 146 309 166
f 127 284 294
f 294 284 169
f 169 206 294
f 294 233 127
f 206 233 294
f 56 44 185
f 185 82 56
f 305 45 165
f 165 85 305
f 7 208 15
f 64 208 7
f 48 156 346
f 48 15 159
f 48 159 31
f 31 156 48
f 301 156 19
f 301 235 156
f 69 334 152
f 197 69 136
f 197 334 69
f 197 136 76
f 76 334 197
f 100 73 5
f 5 177 100
f 100 177 148
f 203 123 63
f 63 123 121
f 213 4 192
f 269 198 213
f 252 285 213
f 198 3 213
f 213 3 252
f 285 300 213
f 300 4 213
f 206 200 90
f 90 233 206
f 127 233 90
f 90 319 29
f 29 127 90
f 346 235 111
f 111 235 64
f 64 7 111
f 163 334 113
f 163 152 334
f 125 66 221
f 126 139 125
f 125 139 66
f 318 164 262
f 262 122 318
f 138 71 336
f 237 118 138
f 118 10 138
f 10 71 138
f 223 33 230
f 223 304 33
f 109 289 223
f 289 135 223
f 135 304 223
f 325 306 219
f 219 173 325
f 219 306 34
f 219 210 173
f 34 240 219
f 343 236 174
f 174 344 20
f 144 344 174
f 20 343 174
f 174 266 144
f 345 266 174
f 241 68 42
f 241 258 260
f 42 258 241
f 137 228 171
f 13 25 137
f 137 147 228
f 137 201 32
f 137 25 201
f 32 147 137
f 205 312 150
f 150 246 205
f 263 14 277
f 81 14 263
f 155 106 263
f 277 55 263
f 263 106 330
f 263 308 81
f 330 308 263
f 115 209 40
f 77 115 40
f 166 251 49
f 49 26 166
f 49 251 189
f 220 214 161
f 161 218 220
f 214 286 161
f 161 286 131
f 341 35 187
f 187 259 215
f 215 9 187
f 187 35 259
f 178 30 340
f 340 30 18
f 340 329 178
f 84 96 52
f 321 65 84
f 84 65 96
f 92 132 79
f 79 101 92
f 234 38 92
f 92 101 234
f 92 29 265
f 265 248 92
f 92 248 132
f 92 83 29
f 298 72 295
f 295 72 61
f 61 165 295
f 129 298 295
f 315 159 208
f 208 278 267
f 208 141 315
f 267 110 208
f 110 141 208
f 208 64 278
f 254 316 114
f 114 316 225
f 149 5 194
f 149 177 5
f 194 41 149
f 149 41 313
f 128 177 149
f 287 273 282
f 195 273 287
f 282 288 287
f 288 338 287
f 287 186 195
f 89 105 2
f 2 196 212
f 17 196 2
f 2 59 89
f 296 59 2
f 2 46 296
f 2 105 17
f 16 158 229
f 229 175 16
f 229 158 180
f 229 292 80
f 80 175 229
f 180 217 229
f 229 268 292
f 146 284 127
f 146 127 309
f 44 56 305
f 305 82 45
f 305 85 44
f 305 56 82
f 19 290 301
f 290 235 301
f 100 184 231
f 148 184 100
f 231 28 100
f 28 73 100
f 51 3 63
f 63 121 51
f 63 198 203
f 63 3 198
f 94 134 213
f 213 192 94
f 213 134 269
f 90 323 349
f 349 207 90
f 207 319 90
f 90 200 323
f 111 7 15
f 111 48 346
f 15 48 111
f 69 152 163
f 113 69 163

