# https://github.com/mikedh/trimesh
v 0.00019864 -0.02320980 -0.01500006
v 0.02130256 -0.00030339 -0.01500006
v 0.02494629 -0.02318600 -0.01500006
v 0.02463893 -0.02422632 -0.01500006
v 0.00608517 -0.02496852 -0.00016642
v 0.02419798 -0.00251690 -0.01500005
v 0.00079596 -0.02462022 -0.01500006
v 0.01031459 -0.02499819 -0.00956970
v 0.01963380 -0.00652584 -0.01500006
v 0.00003964 -0.01526798 -0.01500006
v 0.00008425 -0.02446613 -0.01475988
v 0.02017240 -0.00441978 -0.01500006
v 0.00224647 -0.02497942 -0.00182957
v 0.01384827 -0.00009912 -0.01500005
v 0.01534655 -0.02415808 -0.01500006
v 0.00530229 -0.00008863 -0.01500006
v 0.00098829 -0.00173727 -0.01500006
v 0.00037640 -0.02417258 -0.01500006
v 0.00120469 -0.02471702 -0.01497266
v 0.00010604 -0.00754409 -0.01500006
v 0.00000160 -0.02495583 -0.00681834
v 0.02365576 -0.00198962 -0.01500005
v 0.02068406 -0.00243216 -0.01500006
v 0.02231381 -0.02497382 -0.01500005
v 0.00586854 -0.02496926 -0.01500006
v 0.01083675 -0.00004125 -0.01500005
v 0.00940499 -0.02493629 -0.01500006
v 0.00244145 -0.02479530 -0.00003025
v 0.02497682 -0.02022131 -0.01500006
v 0.01400639 -0.02470734 -0.01500006
v 0.02486529 -0.00553902 -0.01500005
v 0.00031830 -0.02478046 -0.00017416
v 0.00201916 -0.00016369 -0.01500006
v 0.00447731 -0.02498512 -0.00086159
v 0.00128906 -0.00058442 -0.01500006
v 0.00161391 -0.02496720 -0.00180195
v 0.01875651 -0.01033396 -0.01500006
v 0.00534245 -0.02495825 -0.01500006
v 0.01609345 -0.02211358 -0.01500006
v 0.00487131 -0.02490033 -0.00003598
v 0.02495606 -0.01164518 -0.01500006
v 0.01501890 -0.02453392 -0.01500006
f 11 7 21
f 21 32 20
f 42 4 24
f 37 41 29
f 33 2 23
f 35 32 33
f 33 32 28
f 28 16 33
f 17 32 35
f 17 20 32
f 35 42 17
f 42 20 17
f 21 25 13
f 5 24 4
f 4 3 5
f 5 3 29
f 29 41 5
f 22 2 5
f 23 2 31
f 31 5 41
f 26 16 28
f 37 33 9
f 41 37 9
f 9 31 41
f 18 1 42
f 7 11 18
f 11 1 18
f 10 20 42
f 42 1 10
f 10 1 11
f 10 11 21
f 21 20 10
f 39 33 37
f 39 37 29
f 29 3 39
f 21 7 19
f 27 25 7
f 24 25 27
f 36 32 21
f 21 13 36
f 8 25 24
f 8 13 25
f 28 32 40
f 32 5 40
f 40 2 28
f 40 5 2
f 6 2 22
f 6 31 2
f 22 5 6
f 5 31 6
f 16 26 14
f 2 33 14
f 14 33 16
f 28 2 14
f 14 26 28
f 23 31 12
f 31 9 12
f 12 33 23
f 12 9 33
f 15 39 3
f 15 4 42
f 15 3 4
f 33 39 15
f 15 42 35
f 35 33 15
f 7 25 38
f 38 19 7
f 38 25 21
f 21 19 38
f 30 27 7
f 7 18 30
f 30 18 42
f 42 24 30
f 24 27 30
f 13 8 34
f 34 36 13
f 24 5 34
f 34 8 24
f 34 5 32
f 32 36 34

