# https://github.com/mikedh/trimesh
v 0.05131050 -0.02683647 0.00008743
v 0.05190722 -0.02221681 0.01139320
v 0.05298399 -0.02524214 0.00609128
v 0.05006901 -0.02193712 0.01333021
v 0.05000440 -0.02744221 0.00017613
v 0.05009436 -0.02620983 0.00807559
v 0.05064256 -0.02683205 0.00435950
v 0.05193600 -0.02532958 0.00787691
v 0.05594236 -0.02222461 0.00019029
v 0.05427554 -0.02416562 0.00710271
v 0.05233883 -0.02626387 0.00166067
v 0.05059122 -0.02681731 0.00456645
v 0.05253701 -0.02548278 0.00626005
v 0.05587602 -0.02104443 0.00178598
v 0.05218036 -0.02530476 0.00752242
v 0.05479465 -0.02456331 0.00379783
v 0.05450692 -0.02100000 0.00037237
v 0.05425792 -0.02382804 0.00768478
v 0.05033750 -0.02730117 0.00013737
v 0.05384297 -0.02351588 0.00850396
v 0.05446995 -0.02104668 0.00030338
v 0.05520231 -0.02313558 0.00510570
v 0.05207136 -0.02100000 0.01104783
v 0.05544231 -0.02302345 0.00432906
v 0.05007089 -0.02738137 0.00161184
v 0.05041583 -0.02711107 0.00298032
v 0.05184254 -0.02362446 0.01146556
v 0.05509226 -0.02385723 0.00545908
v 0.05313242 -0.02460947 0.00796753
v 0.05381917 -0.02119510 0.00850824
v 0.05506237 -0.02245142 0.00555896
v 0.05389587 -0.02421395 0.00773699
v 0.05272864 -0.02586254 0.00375901
v 0.05001593 -0.02145129 0.01126403
v 0.05287222 -0.02375266 0.01003811
v 0.05571578 -0.02159828 0.00284967
v 0.05300729 -0.02401289 0.00982318
v 0.05356223 -0.02217328 0.00902785
v 0.05201911 -0.02646843 0.00123846
v 0.05104320 -0.02697530 0.00048483
v 0.05580674 -0.02410265 0.00022965
v 0.05288415 -0.02533992 0.00591225
v 0.05517283 -0.02100000 0.00476260
v 0.05088681 -0.02143835 0.01249146
v 0.05080222 -0.02685778 0.00378687
v 0.05039702 -0.02727596 0.00036859
v 0.05393114 -0.02370816 0.00832957
v 0.05493415 -0.02472886 0.00116115
v 0.05089051 -0.02683840 0.00354668
v 0.05301010 -0.02583758 0.00226021
v 0.05581758 -0.02305202 0.00217566
v 0.05149769 -0.02614904 0.00561846
v 0.05126606 -0.02264187 0.01208499
v 0.05356379 -0.02483089 0.00630572
v 0.05594210 -0.02400379 0.00004172
v 0.05352833 -0.02100696 0.00907549
v 0.05000039 -0.02474371 0.00737666
v 0.05123741 -0.02616233 0.00624525
v 0.05237887 -0.02464827 0.00918573
v 0.05019627 -0.02294044 0.01322842
v 0.05091801 -0.02704031 0.00090598
v 0.05449077 -0.02209820 0.00007384
v 0.05386033 -0.02539964 0.00132468
v 0.05171728 -0.02440797 0.01072794
v 0.05066948 -0.02646236 0.00622768
v 0.05116086 -0.02673027 0.00320408
v 0.05191403 -0.02383846 0.01138877
v 0.05545243 -0.02407408 0.00395535
v 0.05570101 -0.02196969 0.00294801
v 0.05318782 -0.02354915 0.00957826
v 0.05112049 -0.02265349 0.01224117
v 0.05580379 -0.02408857 0.00148913
v 0.05580605 -0.02410201 0.00134880
v 0.05273605 -0.02609608 0.00053990
v 0.05400358 -0.02409188 0.00791904
v 0.05028953 -0.02160355 0.01313331
v 0.05594211 -0.02394956 0.00074846
v 0.05268786 -0.02557250 0.00535689
v 0.05238550 -0.02627815 0.00020668
v 0.05586273 -0.02388416 0.00187505
v 0.05187190 -0.02419678 0.01104722
v 0.05242132 -0.02455916 0.00000214
v 0.05531595 -0.02114768 0.00473595
v 0.05001500 -0.02673961 0.00628791
v 0.05214324 -0.02640018 0.00129208
v 0.05291131 -0.02454521 0.00862157
v 0.05425009 -0.02417027 0.00714307
v 0.05399121 -0.02532521 0.00122763
v 0.05344337 -0.02566678 0.00091063
v 0.05478632 -0.02388303 0.00644627
v 0.05555330 -0.02375447 0.00391938
v 0.05589807 -0.02356194 0.00164211
v 0.05176351 -0.02502298 0.00909179
v 0.05020937 -0.02407302 0.01307534
v 0.05067974 -0.02699115 0.00307028
v 0.05313979 -0.02408110 0.00946742
v 0.05103925 -0.02100000 0.01229728
v 0.05430307 -0.02421269 0.00687158
v 0.05500794 -0.02112771 0.00573445
v 0.05594253 -0.02109842 0.00100760
v 0.05340766 -0.02308854 0.00925620
v 0.05248704 -0.02622540 0.00123366
v 0.05030402 -0.02707617 0.00381583
v 0.05310070 -0.02588044 0.00055824
v 0.05255477 -0.02392864 0.01050073
v 0.05594214 -0.02376555 0.00083648
v 0.05003974 -0.02592016 0.00905495
v 0.05468778 -0.02241390 0.00671838
v 0.05025190 -0.02725819 0.00212438
v 0.05327483 -0.02429183 0.00871240
v 0.05558041 -0.02159976 0.00374656
v 0.05465629 -0.02468222 0.00356918
v 0.05255068 -0.02496723 0.00795483
v 0.05085109 -0.02421752 0.01209590
v 0.05397900 -0.02100000 0.00812876
v 0.05456532 -0.02467343 0.00398862
v 0.05008931 -0.02100000 0.01207812
v 0.05004192 -0.02519656 0.01093671
v 0.05589954 -0.02100000 0.00043793
v 0.05453308 -0.02321793 0.00708216
v 0.05498891 -0.02125386 0.00579633
v 0.05016458 -0.02579083 0.00925204
v 0.05044821 -0.02516932 0.01046617
v 0.05458372 -0.02417540 0.00636139
v 0.05273698 -0.02588292 0.00350934
v 0.05211153 -0.02250321 0.01115047
v 0.05570059 -0.02222708 0.00295087
v 0.05294120 -0.02537736 0.00554431
v 0.05157839 -0.02541070 0.00824014
v 0.05236465 -0.02513749 0.00776413
v 0.05358759 -0.02484525 0.00619479
v 0.05510500 -0.02434272 0.00378900
v 0.05295035 -0.02592721 0.00172863
v 0.05026112 -0.02603924 0.00843321
v 0.05115742 -0.02667637 0.00377068
v 0.05140550 -0.02450883 0.01088427
v 0.05264628 -0.02489723 0.00799433
v 0.05170266 -0.02517966 0.00877155
v 0.05059978 -0.02466965 0.01143662
v 0.05500068 -0.02252081 0.00575784
v 0.05183749 -0.02464016 0.00997359
v 0.05180006 -0.02491594 0.00931723
v 0.05003038 -0.02580665 0.00008447
v 0.05213975 -0.02567338 0.00631573
v 0.05080192 -0.02647278 0.00581674
v 0.05319405 -0.02452392 0.00812790
v 0.05550850 -0.02226032 0.00411335
v 0.05475144 -0.02319353 0.00656050
v 0.05369378 -0.02212710 0.00878673
v 0.05200073 -0.02412802 0.01102085
v 0.05006858 -0.02537298 0.01044953
v 0.05594247 -0.02153109 0.00127373
v 0.05467205 -0.02450764 0.00447826
v 0.05344781 -0.02516611 0.00501707
v 0.05065595 -0.02712058 0.00175567
v 0.05331369 -0.02562880 0.00245811
v 0.05570137 -0.02100000 0.00266543
v 0.05256146 -0.02100000 0.01038721
v 0.05366978 -0.02552563 0.00010748
v 0.05020383 -0.02311012 0.01322143
v 0.05439161 -0.02460352 0.00488670
v 0.05260806 -0.02573496 0.00476145
v 0.05182144 -0.02503460 0.00898500
v 0.05216344 -0.02381174 0.01107178
v 0.05545489 -0.02195030 0.00428669
v 0.05019556 -0.02100000 0.01124996
v 0.05215156 -0.02145417 0.01109448
v 0.05227905 -0.02124018 0.01090826
v 0.05072513 -0.02411416 0.01244189
v 0.05243770 -0.02396211 0.01067141
v 0.05460341 -0.02263469 0.00691663
v 0.05044610 -0.02637511 0.00693346
v 0.05268215 -0.02538711 0.00628222
v 0.05020531 -0.02680726 0.00551500
v 0.05362132 -0.02280375 0.00892661
v 0.05563515 -0.02170305 0.00338466
v 0.05187287 -0.02397814 0.01143252
v 0.05510322 -0.02243810 0.00542717
v 0.05547556 -0.02434032 0.00127351
v 0.05408210 -0.02445545 0.00649381
v 0.05164673 -0.02153413 0.01167265
v 0.05092968 -0.02685221 0.00318414
v 0.05592748 -0.02299955 0.00144647
v 0.05475056 -0.02100000 0.00014704
v 0.05474306 -0.02298673 0.00658805
v 0.05029683 -0.02595374 0.00865905
v 0.05570269 -0.02220133 0.00293708
v 0.05415094 -0.02484404 0.00443081
v 0.05319762 -0.02321858 0.00956449
v 0.05356482 -0.02135800 0.00902261
v 0.05045451 -0.02100000 0.01285953
v 0.05594254 -0.02100335 0.00084694
v 0.05136607 -0.02503007 0.00960215
v 0.05425495 -0.02490359 0.00380397
v 0.05062626 -0.02674061 0.00488602
v 0.05483261 -0.02458298 0.00337143
v 0.05004146 -0.02605686 0.00868982
v 0.05045227 -0.02473592 0.01145783
v 0.05294792 -0.02573058 0.00373967
v 0.05236256 -0.02569461 0.00564609
v 0.05355240 -0.02435960 0.00794802
v 0.05321718 -0.02568098 0.00253919
v 0.05001558 -0.02221783 0.01337267
v 0.05018975 -0.02386399 0.01323428
v 0.05509020 -0.02458039 0.00161426
v 0.05307587 -0.02434986 0.00889606
v 0.05479728 -0.02476214 0.00186581
v 0.05555720 -0.02428174 0.00018250
v 0.05395327 -0.02529070 0.00184229
v 0.05391012 -0.02437377 0.00717354
v 0.05412741 -0.02456591 0.00590638
v 0.05065070 -0.02382876 0.01274148
v 0.05461258 -0.02117299 0.00686029
v 0.05032650 -0.02337434 0.01308966
v 0.05583408 -0.02100000 0.00012670
v 0.05049458 -0.02721968 0.00141677
v 0.05246281 -0.02592045 0.00418146
v 0.05435026 -0.02500424 0.00223743
v 0.05278023 -0.02572483 0.00429900
v 0.05429609 -0.02513512 0.00032408
v 0.05536388 -0.02442048 0.00010873
v 0.05318182 -0.02582987 0.00002988
v 0.05324296 -0.02421515 0.00898310
v 0.05578867 -0.02411562 0.00109554
v 0.05495425 -0.02471444 0.00064838
v 0.05303575 -0.02442473 0.00875187
v 0.05367892 -0.02367336 0.00882424
v 0.05086095 -0.02571370 0.00848185
v 0.05584858 -0.02344304 0.00196984
v 0.05170670 -0.02639318 0.00375966
v 0.05503652 -0.02177651 0.00564275
v 0.05290535 -0.02100887 0.00998924
v 0.05024639 -0.02733842 0.00126637
v 0.05268736 -0.02606793 0.00181916
v 0.05083998 -0.02706675 0.00140145
f 17 21 166
f 62 55 82
f 166 21 143
f 56 115 158
f 192 9 119
f 166 143 34
f 34 5 57
f 34 143 5
f 1 143 82
f 192 119 157
f 215 119 9
f 215 9 55
f 55 62 215
f 213 115 56
f 56 30 213
f 111 157 83
f 190 30 56
f 5 143 19
f 143 1 19
f 91 68 80
f 92 229 80
f 73 224 55
f 82 55 222
f 222 1 82
f 192 157 14
f 14 157 111
f 166 34 117
f 21 17 184
f 184 215 62
f 184 143 21
f 184 62 82
f 82 143 184
f 176 14 111
f 124 68 90
f 30 190 149
f 91 111 147
f 43 83 157
f 204 118 94
f 180 54 124
f 86 138 130
f 197 107 84
f 57 5 84
f 107 118 84
f 25 84 5
f 103 84 25
f 55 224 41
f 77 73 55
f 92 80 77
f 77 183 92
f 77 106 183
f 221 222 55
f 55 41 221
f 48 207 88
f 205 207 48
f 73 207 205
f 152 14 183
f 183 106 152
f 203 117 34
f 203 118 204
f 203 34 57
f 57 84 203
f 203 84 118
f 51 229 92
f 98 180 124
f 111 83 165
f 165 147 111
f 91 147 24
f 56 158 232
f 151 118 107
f 146 32 201
f 13 130 15
f 130 8 15
f 15 8 65
f 130 138 129
f 129 8 130
f 65 8 129
f 195 145 65
f 7 103 45
f 7 12 103
f 7 195 12
f 162 33 13
f 13 65 200
f 65 145 200
f 200 162 13
f 197 84 6
f 40 19 1
f 40 61 19
f 19 61 46
f 5 19 46
f 230 49 33
f 95 49 45
f 235 49 95
f 95 155 235
f 45 103 95
f 125 234 133
f 133 199 125
f 125 199 33
f 33 49 125
f 233 61 235
f 233 46 61
f 233 25 5
f 5 46 233
f 68 132 72
f 72 80 68
f 72 77 80
f 73 77 72
f 196 207 73
f 73 72 196
f 196 72 132
f 112 207 196
f 235 61 39
f 1 222 79
f 74 79 222
f 48 88 220
f 220 88 222
f 208 41 224
f 224 221 208
f 208 221 41
f 63 88 207
f 207 209 63
f 133 89 63
f 89 88 63
f 179 205 48
f 73 205 179
f 224 73 179
f 192 14 100
f 14 152 100
f 191 117 4
f 117 203 4
f 4 203 204
f 229 51 127
f 20 149 227
f 120 90 148
f 198 94 118
f 118 81 198
f 198 81 139
f 218 209 207
f 199 209 218
f 54 173 131
f 131 173 13
f 124 54 131
f 131 211 124
f 168 232 23
f 23 97 168
f 23 232 158
f 204 94 177
f 177 81 150
f 122 151 107
f 122 107 197
f 136 81 118
f 64 81 136
f 139 81 114
f 227 101 70
f 210 32 13
f 13 173 210
f 110 86 75
f 201 32 75
f 124 90 75
f 137 146 86
f 13 15 144
f 186 122 197
f 138 186 228
f 228 129 138
f 12 195 174
f 65 84 174
f 174 195 65
f 103 12 174
f 174 84 103
f 52 200 145
f 172 84 65
f 65 129 172
f 129 228 172
f 45 49 135
f 49 230 135
f 103 25 26
f 26 95 103
f 182 49 235
f 49 182 66
f 25 233 216
f 235 155 216
f 216 233 235
f 104 74 222
f 222 88 104
f 104 88 89
f 102 89 133
f 102 104 89
f 74 104 102
f 133 234 102
f 48 220 225
f 225 220 221
f 222 221 159
f 159 220 222
f 221 220 159
f 76 97 191
f 191 4 76
f 176 127 187
f 187 127 51
f 187 69 176
f 14 176 36
f 176 69 36
f 47 20 227
f 24 178 22
f 213 108 121
f 50 199 133
f 50 202 199
f 156 209 199
f 199 202 156
f 13 33 78
f 194 199 112
f 164 177 170
f 204 177 212
f 168 97 167
f 97 181 167
f 169 114 81
f 169 177 94
f 81 177 169
f 150 81 37
f 81 96 37
f 37 177 150
f 170 177 37
f 227 70 37
f 96 75 37
f 93 142 193
f 141 81 64
f 226 86 110
f 110 206 226
f 226 206 86
f 223 206 110
f 110 75 223
f 223 75 96
f 190 38 175
f 227 149 175
f 175 149 190
f 175 38 101
f 175 101 227
f 189 70 101
f 189 167 70
f 168 167 189
f 18 75 90
f 90 120 18
f 18 37 75
f 18 120 213
f 227 37 18
f 18 213 30
f 18 47 227
f 30 149 18
f 20 47 18
f 149 20 18
f 32 210 87
f 87 75 32
f 32 146 29
f 146 137 29
f 113 86 130
f 113 137 86
f 58 15 65
f 58 144 15
f 58 65 13
f 13 144 58
f 217 145 33
f 217 52 145
f 33 162 217
f 134 6 84
f 84 172 134
f 197 6 134
f 134 186 197
f 134 228 186
f 134 172 228
f 109 216 155
f 109 26 25
f 25 216 109
f 234 66 11
f 11 66 182
f 85 102 234
f 234 11 85
f 39 102 85
f 235 39 85
f 44 181 97
f 97 76 44
f 76 53 44
f 60 4 204
f 60 76 4
f 213 120 171
f 171 108 213
f 120 108 171
f 24 22 28
f 91 24 28
f 28 68 91
f 28 90 68
f 231 178 24
f 213 121 99
f 83 43 99
f 99 43 115
f 115 213 99
f 3 131 13
f 33 199 219
f 219 78 33
f 199 194 219
f 16 194 112
f 116 194 16
f 112 196 16
f 16 196 132
f 16 132 68
f 177 164 67
f 67 27 53
f 204 212 214
f 170 37 105
f 93 193 123
f 151 93 123
f 118 151 123
f 81 141 59
f 59 96 81
f 138 86 59
f 86 206 59
f 10 98 124
f 124 75 10
f 75 87 10
f 160 60 204
f 76 60 160
f 160 214 76
f 204 214 160
f 185 231 121
f 185 121 108
f 185 120 148
f 185 108 120
f 13 78 42
f 42 3 13
f 153 161 116
f 116 16 153
f 211 161 153
f 124 211 153
f 153 68 124
f 153 16 68
f 126 67 164
f 27 67 2
f 67 126 2
f 2 126 167
f 2 167 181
f 71 53 76
f 71 67 53
f 35 37 70
f 35 105 37
f 163 141 142
f 163 59 141
f 163 142 93
f 138 59 163
f 231 185 140
f 128 42 78
f 178 231 31
f 231 140 31
f 42 128 188
f 188 194 116
f 194 188 154
f 154 188 128
f 100 9 192
f 100 77 55
f 55 9 100
f 100 152 106
f 106 77 100
f 91 80 127
f 127 111 91
f 127 80 229
f 127 176 111
f 112 199 218
f 218 207 112
f 23 184 17
f 23 17 166
f 23 158 115
f 166 117 23
f 115 43 23
f 23 157 119
f 119 215 23
f 23 117 191
f 215 184 23
f 23 43 157
f 191 97 23
f 86 146 75
f 75 146 201
f 33 145 135
f 135 7 45
f 145 195 135
f 195 7 135
f 135 230 33
f 234 125 66
f 66 125 49
f 79 74 102
f 61 40 102
f 102 39 61
f 102 40 1
f 1 79 102
f 225 221 224
f 225 179 48
f 224 179 225
f 92 183 36
f 183 14 36
f 36 187 51
f 69 187 36
f 36 51 92
f 156 63 209
f 133 63 156
f 156 50 133
f 202 50 156
f 169 198 139
f 94 198 169
f 139 114 169
f 189 38 190
f 189 232 168
f 56 232 189
f 189 190 56
f 101 38 189
f 113 130 13
f 13 32 113
f 32 29 113
f 113 29 137
f 200 52 217
f 162 200 217
f 95 26 109
f 155 95 109
f 85 182 235
f 85 11 182
f 99 231 24
f 99 24 147
f 147 165 99
f 99 165 83
f 121 231 99
f 123 141 64
f 123 136 118
f 64 136 123
f 123 193 142
f 142 141 123
f 59 223 96
f 206 223 59
f 10 173 54
f 10 210 173
f 54 180 10
f 180 98 10
f 10 87 210
f 181 44 2
f 53 27 2
f 2 44 53
f 71 212 177
f 177 67 71
f 76 214 71
f 71 214 212
f 170 105 35
f 35 126 164
f 35 164 170
f 70 167 35
f 167 126 35
f 122 186 163
f 163 186 138
f 151 122 163
f 163 93 151
f 90 28 31
f 31 28 22
f 31 22 178
f 148 90 31
f 31 185 148
f 31 140 185
f 188 161 211
f 211 131 188
f 116 161 188
f 131 3 188
f 3 42 188
f 154 219 194
f 78 219 154
f 154 128 78

