# https://github.com/mikedh/trimesh
v -0.01388468 -0.03284446 -0.00105410
v -0.02186733 -0.02921264 -0.00861637
v -0.02924156 -0.02598829 -0.00096090
v -0.02746088 -0.02311688 -0.01160115
v -0.01952751 -0.03100641 -0.00166749
v -0.00053705 -0.02271019 -0.03015000
v -0.00855613 -0.03061361 -0.01860164
v -0.00468369 -0.03262650 -0.01400877
v -0.01839236 -0.02828422 -0.01765035
v -0.01948641 -0.02047598 -0.00018572
v -0.01764897 -0.02799678 -0.01905608
v -0.02406804 -0.02526797 -0.01756353
v -0.00575118 -0.03431269 -0.00305570
v -0.00488004 -0.03284725 -0.01311211
v -0.00525630 -0.03203951 -0.01577371
v -0.00370979 -0.03456555 -0.00102355
v -0.01727181 -0.03135819 -0.00672649
v -0.00947111 -0.03347575 -0.00562201
v -0.02194531 -0.02818594 -0.01329867
v -0.00823997 -0.02509220 -0.02865809
v -0.01269781 -0.03075745 -0.01568545
v -0.01164573 -0.03326942 -0.00326002
v -0.00878159 -0.03310112 -0.00953888
v -0.00780585 -0.03302975 -0.01082070
v -0.01236565 -0.03314851 -0.00308318
v -0.02405343 -0.02701279 -0.01362052
v -0.00284153 -0.03456257 -0.00264439
v -0.01597227 -0.02271018 -0.02496818
v -0.02717718 -0.02558834 -0.01218885
v -0.00345833 -0.02815078 -0.02582450
v -0.01585286 -0.03220992 -0.00083557
v -0.01266185 -0.02047598 -0.00001279
v -0.00598503 -0.03400289 -0.00570160
v -0.00770120 -0.02047599 -0.02356866
v -0.02762162 -0.02524681 -0.01115496
v -0.02601774 -0.02530965 -0.01452087
v -0.02860266 -0.02638900 -0.00009600
v -0.00928209 -0.03253166 -0.01167307
v -0.02473474 -0.02568234 -0.01659537
v -0.01487227 -0.02536290 -0.02579899
v -0.01088278 -0.03341795 -0.00309678
v -0.00794438 -0.02047598 -0.00016014
v -0.00226764 -0.02047598 -0.02461589
v -0.00491218 -0.03442865 -0.00194671
v -0.01122517 -0.03341489 -0.00155872
v -0.01812060 -0.02966954 -0.01337766
v -0.00205906 -0.03448461 -0.00426321
v -0.02878062 -0.02589595 -0.00644902
v -0.00806026 -0.02446030 -0.02871106
v -0.01417609 -0.03105999 -0.01330924
v -0.00961520 -0.03330909 -0.00700882
v -0.00654743 -0.02815530 -0.02492531
v -0.00062853 -0.02772077 -0.02743398
v -0.02770811 -0.02680734 -0.00394348
v -0.01094305 -0.02782843 -0.02389261
v -0.01786817 -0.02047599 -0.01711915
v -0.01232130 -0.03283560 -0.00656850
v -0.00434725 -0.03217352 -0.01571651
v -0.00646358 -0.03424488 -0.00267240
v -0.02477361 -0.02776198 -0.00906698
v -0.00434047 -0.03410822 -0.00636232
v -0.00546265 -0.03397343 -0.00639313
v -0.00867626 -0.02809429 -0.02431965
v -0.00283236 -0.03305699 -0.01298239
v -0.00143993 -0.02816291 -0.02638235
v -0.01785786 -0.02571138 -0.02380947
v -0.01904869 -0.02532079 -0.02292817
v -0.02330058 -0.02784179 -0.01208638
v -0.02424791 -0.02876975 -0.00302575
v -0.01857858 -0.02582063 -0.02308431
v -0.01972398 -0.02344945 -0.02235999
v -0.02407152 -0.02813356 -0.00924296
v -0.00064513 -0.02805732 -0.02681073
v -0.00115093 -0.02047598 -0.02230479
v -0.00598904 -0.03425934 -0.00346360
v -0.00232267 -0.03464126 -0.00040486
v -0.01261255 -0.02590533 -0.02662913
v -0.00039503 -0.02583728 -0.03069497
v -0.00883359 -0.02799183 -0.02445887
v -0.00109895 -0.02792353 -0.02693049
v -0.01160644 -0.03106661 -0.01555920
v -0.00038976 -0.03442680 -0.00537416
v -0.00845581 -0.03306961 -0.01005698
v -0.00272700 -0.03461888 -0.00141835
v -0.02364334 -0.02913670 -0.00002040
v -0.00383872 -0.03232414 -0.01540125
v -0.00670528 -0.03110830 -0.01810625
v -0.02116137 -0.02493289 -0.02097444
v -0.01746774 -0.02708117 -0.02128526
v -0.00008895 -0.03422596 -0.00732626
v -0.01115828 -0.03329236 -0.00439014
v -0.02728616 -0.02299247 -0.01193191
v -0.01032287 -0.03304203 -0.00835160
v -0.02931419 -0.02458688 -0.00540558
v -0.00312434 -0.03337576 -0.01149900
v -0.00781693 -0.03371065 -0.00590192
v -0.01434444 -0.02647175 -0.02465995
v -0.00812849 -0.02596858 -0.02825349
v -0.01358238 -0.03118859 -0.01336025
v -0.02103524 -0.02498726 -0.02111438
v -0.00435622 -0.03401199 -0.00696355
v -0.00520406 -0.03442289 -0.00126160
v -0.00761048 -0.03370459 -0.00619489
v -0.02693512 -0.02401266 -0.01269032
v -0.00951366 -0.03363977 -0.00357273
v -0.02690629 -0.02383970 -0.01272704
v -0.00590256 -0.03365635 -0.00815404
v -0.02385399 -0.02311382 -0.01781547
v -0.01000857 -0.03317910 -0.00761371
v -0.00618544 -0.03431371 -0.00197768
v -0.02966250 -0.02535490 -0.00235993
v -0.01936592 -0.02286569 -0.02260582
v -0.02201248 -0.02808341 -0.01351519
v -0.01978764 -0.03092350 -0.00062495
v -0.00149897 -0.03451474 -0.00423574
v -0.00413440 -0.03260802 -0.01427237
v -0.00001918 -0.03324280 -0.01301578
v -0.00598706 -0.03091099 -0.01891216
v -0.02927708 -0.02364504 -0.00558264
v -0.01000042 -0.03114015 -0.01639639
v -0.01743346 -0.02506069 -0.02409421
v -0.00102999 -0.03330709 -0.01244125
v -0.01511679 -0.03119973 -0.01153120
v -0.00734121 -0.03417573 -0.00031062
v -0.02190593 -0.02964974 -0.00541567
v -0.02681488 -0.02565325 -0.01293940
v -0.01847864 -0.02916266 -0.01463939
v -0.02231897 -0.02834813 -0.01199904
v -0.00846010 -0.02561144 -0.02856868
v -0.02533128 -0.02798652 -0.00597837
v -0.00921469 -0.03356457 -0.00516223
v -0.00776213 -0.02691095 -0.02676096
v -0.00067368 -0.03344579 -0.01186660
v -0.01241728 -0.02846878 -0.02177674
v -0.01210247 -0.03112265 -0.01497758
v -0.00574164 -0.03422030 -0.00422577
v -0.01825344 -0.02788832 -0.01875400
v -0.01671247 -0.03154433 -0.00658460
v -0.00779782 -0.03349287 -0.00766620
v -0.01658093 -0.03118425 -0.00940868
v -0.00627751 -0.03395957 -0.00570656
v -0.01454291 -0.03218336 -0.00656911
v -0.02906277 -0.02602831 -0.00359650
v -0.00736084 -0.03323107 -0.00984850
v -0.01068719 -0.03347900 -0.00265948
v -0.00904320 -0.03379458 -0.00238526
v -0.00478545 -0.03308603 -0.01221367
v -0.01092255 -0.03249441 -0.01030995
v -0.00470353 -0.03294508 -0.01280795
v -0.02585582 -0.02591324 -0.01415215
v -0.00493358 -0.03192979 -0.01625405
v -0.02941796 -0.02426714 -0.00485647
v -0.00280821 -0.03428852 -0.00615504
v -0.00469694 -0.03112488 -0.01874090
v -0.00741308 -0.03416143 -0.00037329
v -0.01273735 -0.03299217 -0.00437079
v -0.01293422 -0.03309760 -0.00136236
v -0.01384387 -0.02830591 -0.02130492
v -0.01703428 -0.03092501 -0.01010103
v -0.01932437 -0.03104807 -0.00245278
v -0.01465584 -0.03258632 -0.00159652
v -0.01171123 -0.03313575 -0.00513764
v -0.00463640 -0.02279544 -0.02969407
v -0.02924883 -0.02316045 -0.00558319
v -0.01592350 -0.02271018 -0.02499811
v -0.00834404 -0.03050804 -0.01896448
v -0.01511704 -0.02735213 -0.02242011
v -0.01648466 -0.03201303 -0.00031603
v -0.00480782 -0.03438630 -0.00311911
v -0.00839295 -0.02788983 -0.02481092
v -0.00812591 -0.02589171 -0.02838527
v -0.00803319 -0.03404540 -0.00009671
v -0.02558454 -0.02700416 -0.01051876
v -0.02429619 -0.02423799 -0.01728868
v -0.02863599 -0.02578238 -0.00773868
v -0.01070817 -0.03083811 -0.01688622
v -0.02900893 -0.02550277 -0.00686191
v -0.01872905 -0.03104742 -0.00531192
v -0.02963481 -0.02503820 -0.00276604
v -0.00230949 -0.03463108 -0.00137423
v -0.02305838 -0.02926956 -0.00360001
v -0.02264895 -0.02574286 -0.01918853
v -0.02497031 -0.02219836 -0.00001410
v -0.00185226 -0.02787022 -0.02681315
v -0.01189691 -0.02711736 -0.02474169
v -0.01107491 -0.02768331 -0.02409867
v -0.00842156 -0.03397181 -0.00002707
v -0.01329496 -0.03135277 -0.01293777
v -0.02230526 -0.02540395 -0.01968715
v -0.00044247 -0.03404385 -0.00865113
v -0.01298852 -0.02816058 -0.02221541
v -0.01068714 -0.02577370 -0.02767384
v -0.01361538 -0.02047598 -0.00007919
v -0.00548940 -0.02774830 -0.02599280
v -0.00702203 -0.03334788 -0.00934034
v -0.00396691 -0.03223326 -0.01565099
v -0.02054741 -0.02816536 -0.01548812
v -0.02512673 -0.02843603 -0.00039349
v -0.02930865 -0.02422379 -0.00543198
v -0.00262377 -0.03441723 -0.00474804
v -0.00333652 -0.03293318 -0.01330351
v -0.00171198 -0.02947757 -0.02360803
v -0.01010633 -0.03294952 -0.00910306
v -0.01265250 -0.03102012 -0.01490517
v -0.02390878 -0.02298761 -0.01774377
v -0.00145687 -0.03216714 -0.01659166
v -0.00312825 -0.02774549 -0.02667846
v -0.00506529 -0.03401786 -0.00643475
v -0.00428694 -0.03301377 -0.01269797
v -0.02444491 -0.02822911 -0.00747268
v -0.00915148 -0.03274340 -0.01091040
v -0.00396560 -0.03454096 -0.00107230
v -0.01715620 -0.03163777 -0.00424457
v -0.01902720 -0.03073149 -0.00683775
v -0.02972449 -0.02534032 -0.00015537
v -0.01561208 -0.03204545 -0.00496065
v -0.02737240 -0.02668475 -0.00678842
v -0.01711299 -0.03163606 -0.00440852
v -0.00676993 -0.03306828 -0.01129087
v -0.01787259 -0.03108137 -0.00747029
v -0.02921701 -0.02271018 -0.00522303
v -0.01112806 -0.03284113 -0.00841302
v -0.00940012 -0.02565434 -0.02823727
v -0.00322305 -0.03327091 -0.01194871
v -0.00622352 -0.03407472 -0.00483853
v -0.01135534 -0.03311561 -0.00614102
v -0.01252866 -0.03303286 -0.00456059
v -0.02942995 -0.02583576 -0.00323957
v -0.00896785 -0.03231140 -0.01271971
v -0.01327137 -0.02769193 -0.02295428
v -0.02426664 -0.02884417 -0.00009139
v -0.01871297 -0.03073954 -0.00764691
v -0.02483353 -0.02271999 -0.01632486
v -0.01669626 -0.03193890 -0.00068268
v -0.01590958 -0.03100396 -0.01147995
v -0.02779117 -0.02657099 -0.00571050
v -0.00116865 -0.02047598 -0.02266200
v -0.02103077 -0.02809924 -0.01499316
v -0.00809344 -0.03398953 -0.00200509
v -0.01625989 -0.03082932 -0.01168369
v -0.00017437 -0.03459531 -0.00327921
v -0.00737535 -0.03071112 -0.01891072
v -0.01393825 -0.02333185 -0.02633956
v -0.01730538 -0.02874295 -0.01732416
v -0.00729488 -0.02775673 -0.02545641
v -0.02147183 -0.02942367 -0.00838075
v -0.02327185 -0.02767329 -0.01279421
v -0.01815168 -0.02831064 -0.01780509
v -0.00007339 -0.03427605 -0.00686833
v -0.00872792 -0.03390515 -0.00093891
v -0.00474793 -0.02945281 -0.02279431
v -0.02417468 -0.02826665 -0.00805476
v -0.02791755 -0.02569178 -0.01028854
v -0.00552687 -0.03420310 -0.00462272
v -0.02779156 -0.02662095 -0.00527826
v -0.00779332 -0.03388766 -0.00423212
v -0.00770906 -0.02052108 -0.02377492
v -0.01790738 -0.03066658 -0.00972434
v -0.00594758 -0.02995487 -0.02124910
v -0.00926519 -0.03338260 -0.00684264
v -0.00007110 -0.02735300 -0.02821485
v -0.02473065 -0.02047663 -0.00221707
v -0.02905029 -0.02549551 -0.00666459
v -0.00854519 -0.03045794 -0.01898164
v -0.01775969 -0.03088072 -0.00896250
v -0.00011109 -0.02081858 -0.02487759
v -0.02461032 -0.02278278 -0.01673595
v -0.00678223 -0.02848108 -0.02419632
v -0.01665934 -0.03051355 -0.01231151
v -0.01963826 -0.02500714 -0.02243212
v -0.00913738 -0.03284019 -0.01052039
v -0.01093549 -0.03341713 -0.00294586
v -0.01820976 -0.02997077 -0.01204762
v -0.00603442 -0.03290407 -0.01234011
v -0.00851252 -0.03295094 -0.01062651
v -0.00343003 -0.03333941 -0.01157592
v -0.02820395 -0.02609528 -0.00740330
v -0.00084761 -0.02290044 -0.03078185
v -0.00782435 -0.02777065 -0.02524148
v -0.02971056 -0.02376882 -0.00037424
v -0.00775539 -0.03262718 -0.01237576
v -0.01878523 -0.03032003 -0.00960046
v -0.02273466 -0.02870893 -0.00930415
v -0.01912891 -0.03115087 -0.00065927
v -0.02744621 -0.02440126 -0.01163152
v -0.01070164 -0.03336075 -0.00452084
v -0.00270195 -0.03434661 -0.00554529
v -0.01938310 -0.02638250 -0.02115022
v -0.00949121 -0.02666198 -0.02657131
v -0.01202398 -0.02271019 -0.02702549
v -0.02969028 -0.02442601 -0.00128070
v -0.00990325 -0.02838380 -0.02326469
v -0.02479474 -0.02764796 -0.00960047
v -0.00413693 -0.03405309 -0.00685406
v -0.00396332 -0.03293887 -0.01309311
v -0.01312238 -0.03145666 -0.01266178
v -0.02087652 -0.02796786 -0.01560039
v -0.01244809 -0.02855133 -0.02156238
v -0.01993853 -0.03029774 -0.00703471
v -0.00906201 -0.02569483 -0.02836284
v -0.00582557 -0.03170191 -0.01662302
v -0.01895173 -0.03079095 -0.00665588
v -0.00108398 -0.03456786 -0.00372592
v -0.01190242 -0.03108280 -0.01529338
v -0.00197659 -0.03335072 -0.01196938
v -0.01442798 -0.02813040 -0.02132896
v -0.00778203 -0.02766828 -0.02543985
v -0.02764832 -0.02271018 -0.01094356
v -0.01864924 -0.03098181 -0.00622653
v -0.00341177 -0.03445621 -0.00365008
v -0.02421512 -0.02849286 -0.00633746
v -0.00285529 -0.03432135 -0.00575611
v -0.00014804 -0.02609068 -0.03033298
v -0.01537956 -0.02314781 -0.02544533
v -0.01420975 -0.02577026 -0.02609561
v -0.00225326 -0.03461405 -0.00230841
v -0.02286278 -0.02415288 -0.01900912
v -0.02456794 -0.02047598 -0.00340589
v -0.00580647 -0.02570975 -0.02935814
v -0.02036411 -0.03062627 -0.00191164
v -0.00602255 -0.02951212 -0.02228806
v -0.02904919 -0.02610929 -0.00068008
v -0.02462384 -0.02836951 -0.00577692
v -0.02359841 -0.02875751 -0.00640725
v -0.01152435 -0.02630903 -0.02641705
v -0.01911960 -0.03061002 -0.00740268
v -0.00062216 -0.03468900 -0.00059972
v -0.02321224 -0.02544231 -0.01859451
v -0.02509775 -0.02816462 -0.00558326
v -0.00845090 -0.03201858 -0.01416676
v -0.00033491 -0.02941706 -0.02412684
v -0.01161720 -0.03234588 -0.01019788
v -0.00813434 -0.03343440 -0.00776243
v -0.02067605 -0.02292161 -0.02134902
v -0.01684831 -0.03048077 -0.01214734
v -0.00131962 -0.02047598 -0.02448770
v -0.01873815 -0.02047599 -0.01607759
v -0.02397340 -0.02320297 -0.01767756
v -0.01042530 -0.03105482 -0.01642193
v -0.02645133 -0.02273727 -0.01340624
v -0.02511270 -0.02819426 -0.00517588
v -0.00170435 -0.03111104 -0.01966557
v -0.01554592 -0.03005763 -0.01512274
v -0.01459763 -0.02319214 -0.02598180
v -0.02190324 -0.02464627 -0.02012195
v -0.00450912 -0.03450180 -0.00022260
v -0.02242473 -0.02047599 -0.01053253
v -0.01060685 -0.03252913 -0.01048143
v -0.00121658 -0.03305417 -0.01347180
v -0.00973917 -0.03371684 -0.00038515
v -0.00070866 -0.03469310 -0.00018590
v -0.01905865 -0.02500005 -0.02291979
v -0.02826299 -0.02599662 -0.00774610
v -0.01452804 -0.03261733 -0.00179915
v -0.00372243 -0.03104086 -0.01927039
v -0.01426912 -0.03086259 -0.01395591
v -0.02470781 -0.02814969 -0.00716309
v -0.02348481 -0.02836281 -0.00944933
v -0.02034439 -0.03039821 -0.00505164
v -0.01439110 -0.02893512 -0.01928782
v -0.02972198 -0.02408756 -0.00024483
v -0.01420517 -0.03263480 -0.00329304
v -0.01937404 -0.02563624 -0.02265442
v -0.02590372 -0.02800308 -0.00165929
v -0.00884098 -0.03381215 -0.00271671
v -0.01642808 -0.02052873 -0.01861197
v -0.00722703 -0.02811347 -0.02480103
v -0.01407605 -0.02047599 -0.02046148
v -0.01936433 -0.02588175 -0.02229063
v -0.02243657 -0.02271018 -0.01931974
v -0.02755680 -0.02486902 -0.01137918
v -0.00491629 -0.03154419 -0.01742519
v -0.00817490 -0.03300863 -0.01065455
v -0.00390723 -0.03274278 -0.01384320
v -0.01992440 -0.02985951 -0.00949399
v -0.02001613 -0.02592823 -0.02159256
v -0.00956558 -0.03279773 -0.01030848
v -0.00334316 -0.03460855 -0.00043616
v -0.02311693 -0.02932782 -0.00252021
v -0.01934997 -0.03097051 -0.00366183
v -0.00023378 -0.02477695 -0.03095808
v -0.02091916 -0.03035812 -0.00232452
v -0.00470357 -0.03428696 -0.00486873
v -0.00706293 -0.03422526 -0.00071954
v -0.01376359 -0.02610104 -0.02570280
v -0.01667094 -0.02814765 -0.01960074
v -0.01704004 -0.02899095 -0.01684847
v -0.00935607 -0.03015973 -0.01928233
v -0.01359404 -0.02669128 -0.02467635
v -0.00747699 -0.02271019 -0.02878085
v -0.02400577 -0.02321787 -0.01763856
v -0.01951144 -0.02978038 -0.01076842
v -0.02401969 -0.02863750 -0.00589738
v -0.01307527 -0.03300591 -0.00311412
v -0.01892021 -0.02462920 -0.02302475
v -0.00578180 -0.03180975 -0.01629231
v -0.02713376 -0.02589616 -0.01156979
v -0.01589633 -0.03022177 -0.01418278
v -0.02908564 -0.02271018 -0.00595931
v -0.00300010 -0.03353557 -0.01065896
v -0.00741846 -0.02750572 -0.02585882
v -0.02005895 -0.02833983 -0.01549729
v -0.01423908 -0.02452195 -0.02619209
v -0.02609678 -0.02752926 -0.00604469
v -0.00897609 -0.03342307 -0.00685943
v -0.01224710 -0.03078138 -0.01596745
v -0.00205851 -0.03409553 -0.00787097
v -0.01728075 -0.02647488 -0.02268888
v -0.00899760 -0.03324099 -0.00830755
v -0.01689064 -0.02453503 -0.02445553
v -0.00394374 -0.03317589 -0.01211934
v -0.01848987 -0.02528713 -0.02336804
v -0.00067473 -0.03449983 -0.00460826
v -0.01150599 -0.03091154 -0.01614220
v -0.00529683 -0.03276991 -0.01319368
v -0.00866471 -0.02789187 -0.02470720
v -0.01555542 -0.03223256 -0.00278750
v -0.01856960 -0.03113254 -0.00494882
v -0.00592502 -0.03431882 -0.00253453
v -0.01539116 -0.02823854 -0.02040808
v -0.00602278 -0.03435777 -0.00029605
v -0.02757538 -0.02303940 -0.01131495
v -0.01364568 -0.02931510 -0.01881523
v -0.01994856 -0.03030759 -0.00693407
v -0.01129782 -0.03285552 -0.00810101
v -0.00432606 -0.03309381 -0.01234205
v -0.01867684 -0.02791317 -0.01831209
v -0.02070007 -0.02274364 -0.02130738
v -0.01481072 -0.02902636 -0.01875951
v -0.01503067 -0.03128558 -0.01122336
v -0.00610931 -0.03417565 -0.00408555
v -0.00874856 -0.03389981 -0.00100918
v -0.02599792 -0.02792082 -0.00256455
v -0.01304106 -0.03093770 -0.01485326
v -0.02568469 -0.02808659 -0.00305772
v -0.02136711 -0.02571818 -0.02077697
v -0.00282698 -0.03461242 -0.00165948
v -0.02456514 -0.02562244 -0.01686474
v -0.01476718 -0.02746157 -0.02244140
v -0.00649258 -0.03431148 -0.00067444
v -0.01707533 -0.02716340 -0.02143711
v -0.01595125 -0.02984663 -0.01536024
v -0.01764241 -0.02271018 -0.02375528
v -0.01923852 -0.02897802 -0.01435309
v -0.01275795 -0.03288723 -0.00526739
v -0.00952553 -0.02838727 -0.02342148
v -0.02420761 -0.02493754 -0.01739540
v -0.01672233 -0.02727283 -0.02146754
v -0.00493337 -0.03391879 -0.00715638
v -0.02498568 -0.02142934 -0.00014677
v -0.02518850 -0.02825829 -0.00397885
v -0.02124441 -0.02789926 -0.01527481
v -0.02574707 -0.02571890 -0.01496031
v -0.01108918 -0.02703163 -0.02529594
v -0.01525183 -0.02576504 -0.02543908
v -0.02945590 -0.02339413 -0.00452135
v -0.01241283 -0.02047599 -0.02155822
v -0.00084205 -0.03413659 -0.00791161
v -0.01583228 -0.02803110 -0.02055598
v -0.02775453 -0.02573718 -0.01064603
v -0.02355544 -0.02613803 -0.01707818
v -0.00478956 -0.02573296 -0.02961136
v -0.02344640 -0.02817211 -0.01048207
v -0.01860352 -0.03112007 -0.00496896
v -0.00988171 -0.02849292 -0.02301792
v -0.01046230 -0.03067293 -0.01747994
v -0.00808513 -0.03309593 -0.01020617
v -0.00443875 -0.03436823 -0.00392130
v -0.00763007 -0.02334525 -0.02883457
v -0.01134091 -0.03248510 -0.00986011
v -0.01099640 -0.03347997 -0.00000733
v -0.02394743 -0.02804450 -0.00991813
v -0.02183972 -0.02833078 -0.01288994
v -0.01649183 -0.03124881 -0.00917935
v -0.00233361 -0.03229748 -0.01592158
v -0.02642842 -0.02765516 -0.00289205
v -0.01066973 -0.02624127 -0.02687327
v -0.00043389 -0.02539447 -0.03090064
v -0.02793760 -0.02674013 -0.00308034
v -0.00006222 -0.02047598 -0.02198125
v -0.00018810 -0.02819397 -0.02667907
v -0.01143222 -0.03029260 -0.01780453
v -0.02882169 -0.02296692 -0.00700379
v -0.01499831 -0.03127569 -0.01130877
v -0.02508511 -0.02734342 -0.01024977
v -0.01988590 -0.03060490 -0.00503940
v -0.02965577 -0.02484362 -0.00223570
v -0.01742999 -0.02728482 -0.02087237
v -0.02972077 -0.02391555 -0.00028764
v -0.01376766 -0.03107585 -0.01366131
v -0.01107446 -0.03345280 -0.00127668
v -0.00469475 -0.03447401 -0.00105614
v -0.00004310 -0.02963031 -0.02376042
v -0.02634754 -0.02636766 -0.01139296
v -0.01251970 -0.03152461 -0.01292615
v -0.01310482 -0.03248870 -0.00738120
v -0.01710833 -0.02878904 -0.01736980
v -0.00358981 -0.03437836 -0.00458043
v -0.02630192 -0.02546336 -0.01400208
v -0.01418256 -0.02472299 -0.02621979
v -0.00252891 -0.03424881 -0.00655223
v -0.00547461 -0.03441045 -0.00015836
v -0.00085177 -0.02909099 -0.02465756
v -0.01243071 -0.03249832 -0.00837469
v -0.01463433 -0.02047599 -0.02002385
v -0.02370116 -0.02582231 -0.01771499
v -0.02046714 -0.02525304 -0.02166061
v -0.02056382 -0.02646965 -0.01981672
v -0.00852267 -0.03204050 -0.01404413
v -0.00100321 -0.02047598 -0.02380104
v -0.01390013 -0.03259487 -0.00475501
v -0.02623556 -0.02741752 -0.00628625
v -0.00237700 -0.03442361 -0.00482259
v -0.01333450 -0.03290620 -0.00337180
v -0.01433783 -0.03236521 -0.00568883
v -0.01963351 -0.03096731 -0.00191333
v -0.02545233 -0.02823421 -0.00267246
v -0.00627926 -0.03016696 -0.02062498
v -0.00002412 -0.03327160 -0.01289070
v -0.01717025 -0.03103933 -0.00926618
v -0.02611949 -0.02791628 -0.00005615
v -0.00526209 -0.03443082 -0.00011572
v -0.01086836 -0.02938994 -0.02035691
v -0.02243233 -0.02542356 -0.01953408
v -0.01938922 -0.02813474 -0.01693406
v -0.00173629 -0.03229678 -0.01609180
v -0.00036124 -0.02332134 -0.03092149
v -0.00786291 -0.03321673 -0.00955653
v -0.00682945 -0.03410213 -0.00364737
v -0.00889630 -0.03225176 -0.01299294
v -0.02315802 -0.02047599 -0.00877658
v -0.01553555 -0.02806723 -0.02068879
v -0.00778307 -0.03076199 -0.01862783
v -0.01962410 -0.03081508 -0.00401680
v -0.00007014 -0.02271019 -0.02847682
v -0.00418555 -0.03219976 -0.01568613
v -0.01162629 -0.03329308 -0.00291423
v -0.01484813 -0.03220508 -0.00573558
v -0.00933281 -0.03133707 -0.01607490
v -0.00269108 -0.03462762 -0.00075756
v -0.00144285 -0.03341578 -0.01179532
v -0.00622893 -0.03334491 -0.00990889
v -0.02262093 -0.02799211 -0.01284873
v -0.00004954 -0.03398338 -0.00910409
v -0.02259598 -0.02931107 -0.00565292
v -0.00000900 -0.02195333 -0.02487010
v -0.01055127 -0.03299782 -0.00834693
v -0.02109074 -0.02821724 -0.01450360
v -0.01928741 -0.02629205 -0.02144257
v -0.01280584 -0.02848601 -0.02153571
v -0.00042415 -0.02914347 -0.02467236
v -0.00478855 -0.03436173 -0.00360865
v -0.01348951 -0.02845512 -0.02116207
v -0.00970800 -0.02273018 -0.02805160
v -0.02885451 -0.02558545 -0.00742174
v -0.00079965 -0.02047598 -0.02369020
v -0.01555670 -0.02847072 -0.01968898
v -0.00170142 -0.03464434 -0.00149773
v -0.01915511 -0.02551262 -0.02283863
v -0.00265327 -0.02563459 -0.03026344
v -0.01827765 -0.02954051 -0.01362554
v -0.01632508 -0.03206570 -0.00025310
v -0.01235418 -0.02530249 -0.02711606
v -0.00047878 -0.02047598 -0.00966897
v -0.00015691 -0.03470592 -0.00027851
v -0.01943926 -0.03004807 -0.00957733
v -0.01496636 -0.03097702 -0.01277141
v -0.01773773 -0.02943223 -0.01462200
v -0.01216253 -0.03102048 -0.01534683
v -0.01136756 -0.02998759 -0.01864330
v -0.02543559 -0.02466842 -0.01548224
v -0.00464529 -0.03386687 -0.00768632
v -0.01184758 -0.02608275 -0.02667647
v -0.00080652 -0.03451627 -0.00441426
v -0.00898585 -0.03083436 -0.01785004
v -0.01686477 -0.03021234 -0.01306985
v -0.02133579 -0.02271018 -0.02051607
v -0.01030326 -0.03333789 -0.00564784
v -0.02120975 -0.03006860 -0.00422249
v -0.01006524 -0.03213076 -0.01263080
v -0.02967030 -0.02562889 -0.00208239
v -0.01576353 -0.02047598 -0.00015533
v -0.00876587 -0.03348879 -0.00657601
v -0.01530913 -0.02289857 -0.02548061
v -0.01743174 -0.03166716 -0.00219723
v -0.02504324 -0.02809654 -0.00640231
v -0.00877262 -0.03076250 -0.01813237
v -0.00069276 -0.02047598 -0.02354937
v -0.01613903 -0.02810151 -0.02018822
v -0.02011520 -0.03009395 -0.00791126
v -0.00236518 -0.03452958 -0.00350033
v -0.02422820 -0.02885415 -0.00045581
v -0.00990953 -0.02810197 -0.02386069
v -0.02399338 -0.02599393 -0.01688324
v -0.02466424 -0.02351422 -0.01670735
v -0.00000656 -0.02047598 -0.00611407
v -0.00098630 -0.03410000 -0.00815507
v -0.00748740 -0.03324476 -0.00967375
v -0.00817670 -0.03055185 -0.01894492
v -0.00219924 -0.02785462 -0.02674231
v -0.01376165 -0.02538173 -0.02642612
v -0.00023325 -0.02934257 -0.02431128
v -0.02160372 -0.03002391 -0.00256938
v -0.01860592 -0.02536186 -0.02329023
v -0.00477844 -0.03250562 -0.01440144
v -0.00006983 -0.03351184 -0.01168904
v -0.02019559 -0.02929498 -0.01163272
v -0.01664924 -0.03154208 -0.00673522
v -0.01913007 -0.03094050 -0.00504576
v -0.01246851 -0.02507765 -0.02706001
v -0.01440662 -0.03102382 -0.01320946
v -0.00432135 -0.03104661 -0.01908563
v -0.02779277 -0.02640286 -0.00701593
v -0.02726156 -0.02712198 -0.00337168
v -0.00122213 -0.03411040 -0.00801281
v -0.00393162 -0.03455680 -0.00012680
v -0.02547992 -0.02517153 -0.01541184
v -0.00671763 -0.03082329 -0.01886874
v -0.02969365 -0.02297037 -0.00000074
v -0.01075687 -0.03350411 -0.00152797
v -0.02727495 -0.02592488 -0.01111542
v -0.00412095 -0.02573420 -0.02980123
v -0.02508986 -0.02640938 -0.01384718
v -0.00002215 -0.02047598 -0.02030756
v -0.01094662 -0.03307556 -0.00719530
v -0.02917120 -0.02398863 -0.00603829
v -0.01589380 -0.03147907 -0.00879567
v -0.00767867 -0.03348804 -0.00780845
v -0.02945999 -0.02571785 -0.00446824
v -0.00835992 -0.03386485 -0.00330826
v -0.00918710 -0.03027300 -0.01909671
v -0.01603409 -0.03207602 -0.00285147
v -0.00847265 -0.03390453 -0.00228250
v -0.01486605 -0.02867502 -0.01963577
v -0.00537863 -0.03434640 -0.00300705
v -0.00029173 -0.03231606 -0.01642630
v -0.02945594 -0.02284006 -0.00405598
v -0.00751062 -0.03408374 -0.00221556
v -0.00011243 -0.02429077 -0.03099292
v -0.02483438 -0.02562917 -0.01643712
v -0.00006682 -0.03259398 -0.01546782
v -0.00885605 -0.02047599 -0.02323277
v -0.00608921 -0.02952554 -0.02223733
v -0.01879302 -0.03110195 -0.00447263
v -0.00013984 -0.02867939 -0.02570232
v -0.01526684 -0.03043477 -0.01422110
v -0.00090828 -0.02047599 -0.00020874
v -0.01066313 -0.02544158 -0.02776118
v -0.01737209 -0.02498088 -0.02413506
v -0.01172921 -0.02575171 -0.02733885
v -0.00510810 -0.03437619 -0.00284846
v -0.01999321 -0.02922742 -0.01221466
v -0.02923963 -0.02346400 -0.00569168
v -0.00216708 -0.03438717 -0.00535504
v -0.00887563 -0.03314852 -0.00911889
v -0.00363692 -0.03438944 -0.00439229
v -0.02317602 -0.02934334 -0.00054794
v -0.00433833 -0.03447575 -0.00203019
v -0.02135295 -0.02586626 -0.02043000
v -0.00723756 -0.03411132 -0.00259703
v -0.00887057 -0.03319816 -0.00877310
v -0.00311349 -0.03461714 -0.00013886
v -0.02242883 -0.02474223 -0.01953829
v -0.02363706 -0.02271959 -0.01802494
v -0.01376441 -0.03038762 -0.01578602
v -0.01910563 -0.03113830 -0.00198621
v -0.00409955 -0.03446134 -0.00275920
v -0.02020001 -0.02936942 -0.01133142
v -0.01649754 -0.02280301 -0.02463342
v -0.01671826 -0.03113944 -0.00945047
v -0.01116454 -0.02811217 -0.02324354
v -0.00714958 -0.03270257 -0.01246544
v -0.01834166 -0.03053735 -0.00945105
v -0.02361654 -0.02816634 -0.01014333
v -0.00810898 -0.02369671 -0.02869708
v -0.01300567 -0.03080401 -0.01527161
v -0.00142518 -0.03460321 -0.00297380
v -0.01099950 -0.02594414 -0.02726844
v -0.01169860 -0.03291391 -0.00714501
v -0.01951966 -0.02389038 -0.02253190
v -0.01222096 -0.02843471 -0.02195949
v -0.00009473 -0.02047599 -0.00316489
v -0.01649861 -0.02649576 -0.02317911
v -0.01787924 -0.03066491 -0.00979252
v -0.02012493 -0.03056259 -0.00428403
v -0.00295466 -0.03428117 -0.00612303
v -0.00467141 -0.03413043 -0.00599170
v -0.02395040 -0.02047599 -0.00622108
v -0.01150238 -0.03289280 -0.00757043
v -0.01398516 -0.02810752 -0.02168194
v -0.01313850 -0.03262957 -0.00632352
v -0.01253541 -0.03306420 -0.00400079
v -0.01397673 -0.02825467 -0.02134625
v -0.00824073 -0.03394795 -0.00226264
v -0.01148930 -0.02610765 -0.02679851
v -0.02695881 -0.02739885 -0.00004367
v -0.01411870 -0.02351905 -0.02625110
v -0.00006020 -0.03212352 -0.01713547
v -0.00784630 -0.02553041 -0.02877249
v -0.01937426 -0.02321656 -0.02262046
v -0.00175519 -0.02271019 -0.03032992
v -0.00030832 -0.03111736 -0.02004004
v -0.00006236 -0.03119443 -0.01990620
v -0.00703890 -0.03133982 -0.01725381
v -0.01732757 -0.03090045 -0.00974213
v -0.02353946 -0.02047599 -0.00782279
v -0.02119830 -0.02542741 -0.02095759
v -0.00836773 -0.03034731 -0.01933883
v -0.01886939 -0.02905719 -0.01452704
v -0.01901678 -0.02766833 -0.01854872
v -0.01783018 -0.02941768 -0.01456095
v -0.00395519 -0.02930867 -0.02332060
v -0.01372784 -0.03106366 -0.01374815
v -0.01316004 -0.03280199 -0.00497404
v -0.01310159 -0.03307562 -0.00024059
v -0.00540757 -0.02949979 -0.02249920
v -0.00500683 -0.03175589 -0.01675527
v -0.02260389 -0.02890951 -0.00845204
v -0.01187683 -0.03308960 -0.00535236
v -0.00809423 -0.02886633 -0.02293728
v -0.02957413 -0.02487232 -0.00368993
v -0.00664562 -0.02949779 -0.02210952
v -0.00342527 -0.03320413 -0.01217566
v -0.01942173 -0.03044196 -0.00763624
v -0.02496967 -0.02821628 -0.00570587
v -0.01611892 -0.03166060 -0.00700403
v -0.01256247 -0.03289615 -0.00561809
v -0.00975739 -0.02821763 -0.02369122
v -0.00245476 -0.03401614 -0.00813223
v -0.00007622 -0.02047599 -0.00032810
v -0.00611984 -0.02938960 -0.02253278
v -0.01094237 -0.03310222 -0.00694425
v -0.00825784 -0.02342325 -0.02865072
v -0.01968047 -0.03096594 -0.00097228
v -0.02065187 -0.02550188 -0.02148299
v -0.00379050 -0.03457108 -0.00000734
v -0.02862666 -0.02571985 -0.00809459
v -0.00555919 -0.03417181 -0.00483781
v -0.00696182 -0.03078197 -0.01888353
v -0.02717200 -0.02294289 -0.01213164
v -0.00490169 -0.03425769 -0.00489557
v -0.02445295 -0.02450401 -0.01704293
v -0.00665694 -0.03415106 -0.00341326
v -0.02131483 -0.02819198 -0.01425511
v -0.00776073 -0.03408582 -0.00100933
v -0.02522793 -0.02831034 -0.00312914
v -0.02456485 -0.02047598 -0.00289671
v -0.00764872 -0.03290052 -0.01142462
v -0.00888852 -0.02683434 -0.02648997
v -0.00901126 -0.03264086 -0.01145414
v -0.00782179 -0.02706600 -0.02647249
v -0.01276951 -0.03314093 -0.00003225
v -0.02810308 -0.02647013 -0.00497930
v -0.00800549 -0.03102908 -0.01782372
v -0.02490210 -0.02053917 -0.00096434
v -0.01223631 -0.02915889 -0.02019851
v -0.01458350 -0.03249489 -0.00362590
v -0.01909807 -0.02760492 -0.01861649
v -0.00508119 -0.03132463 -0.01803128
v -0.01711834 -0.02646148 -0.02282842
v -0.02734628 -0.02510225 -0.01183854
v -0.02700005 -0.02727190 -0.00344409
v -0.00551877 -0.03437702 -0.00187697
v -0.01962471 -0.03076061 -0.00467276
v -0.02642590 -0.02633200 -0.01136631
v -0.01761632 -0.03023982 -0.01190619
v -0.01884048 -0.02734041 -0.01946620
v -0.00752957 -0.03302946 -0.01101403
v -0.00688787 -0.02774428 -0.02559710
v -0.01462419 -0.02587966 -0.02563254
v -0.01454355 -0.03082814 -0.01377292
v -0.00396807 -0.03447915 -0.00261854
v -0.01525623 -0.02047599 -0.01949577
v -0.00346626 -0.03455297 -0.00196426
v -0.02253381 -0.02828382 -0.01186577
v -0.02292870 -0.02815947 -0.01163105
v -0.00368556 -0.02272131 -0.02996706
v -0.01043565 -0.02818874 -0.02346798
v -0.01459439 -0.03071513 -0.01408673
v -0.02963566 -0.02285692 -0.00092151
v -0.01351011 -0.02994586 -0.01726720
v -0.02008100 -0.03079829 -0.00008758
v -0.00381640 -0.02938419 -0.02320303
v -0.00115609 -0.03464596 -0.00190213
v -0.01992119 -0.02849453 -0.01514775
v -0.00211976 -0.03458596 -0.00292947
v -0.02333497 -0.02820394 -0.01056547
v -0.01742653 -0.02648826 -0.02256089
v -0.01827605 -0.03102372 -0.00697052
v -0.00546452 -0.03093131 -0.01904645
v -0.02427727 -0.02047598 -0.00031327
v -0.01388674 -0.02276376 -0.02632520
v -0.00426862 -0.03257469 -0.01434977
v -0.01389204 -0.02573204 -0.02632193
v -0.01288083 -0.03310518 -0.00149761
v -0.01066361 -0.02047599 -0.02241653
v -0.02557050 -0.02813213 -0.00326007
v -0.01254310 -0.03207609 -0.01039105
v -0.02089848 -0.02047599 -0.01337343
v -0.01582414 -0.02831345 -0.01990900
v -0.00590168 -0.02768452 -0.02598965
v -0.01772267 -0.02568812 -0.02390171
v -0.00551368 -0.03108245 -0.01861554
v -0.02963139 -0.02570331 -0.00334538
v -0.01892991 -0.02787934 -0.01813126
v -0.02939891 -0.02508563 -0.00499134
v -0.02086979 -0.02501893 -0.02127345
v -0.00947391 -0.03329587 -0.00730058
v -0.00584276 -0.03437130 -0.00077281
v -0.00290935 -0.03456501 -0.00251533
v -0.01345234 -0.03298826 -0.00081086
v -0.00710598 -0.02827821 -0.02451288
v -0.02958844 -0.02271019 -0.00051349
v -0.02734285 -0.02669078 -0.00685685
v -0.02117119 -0.02535326 -0.02098366
v -0.01261465 -0.03310718 -0.00292189
v -0.01250089 -0.02863542 -0.02133302
v -0.02026401 -0.02844282 -0.01489687
v -0.00550049 -0.03432137 -0.00330442
v -0.01386355 -0.02802134 -0.02193991
v -0.01951978 -0.02950731 -0.01184376
v -0.01366587 -0.03292523 -0.00040296
v -0.02877523 -0.02593919 -0.00612505
v -0.00271947 -0.03440159 -0.00488263
v -0.01962576 -0.03095625 -0.00229848
v -0.02274374 -0.02543519 -0.01915892
v -0.01522812 -0.03086408 -0.01284510
v -0.00294772 -0.03459909 -0.00185363
v -0.01007657 -0.03083690 -0.01728372
v -0.00691041 -0.02913076 -0.02281074
v -0.01282905 -0.03311346 -0.00154111
v -0.01395936 -0.03109696 -0.01338895
v -0.00473331 -0.03413239 -0.00593292
v -0.01327226 -0.03199251 -0.00992828
v -0.02144330 -0.02986783 -0.00534658
v -0.00972426 -0.03101844 -0.01697777
v -0.00434942 -0.03427255 -0.00529188
v -0.00013012 -0.03301489 -0.01394529
v -0.02777141 -0.02282640 -0.01063686
v -0.02290053 -0.02824080 -0.01130297
v -0.01279820 -0.03294181 -0.00469054
v -0.01287621 -0.03235793 -0.00848184
v -0.00748850 -0.02574923 -0.02880862
v -0.00297651 -0.03454034 -0.00284689
v -0.00693158 -0.02818000 -0.02476779
f 730 351 565
f 647 351 730
f 647 730 32
f 596 544 117
f 596 117 546
f 535 546 639
f 266 546 535
f 791 813 619
f 249 544 596
f 596 730 249
f 249 730 565
f 596 546 624
f 588 266 336
f 56 791 336
f 791 619 450
f 85 619 696
f 42 32 730
f 730 582 42
f 336 791 237
f 564 582 682
f 682 582 730
f 682 730 596
f 703 117 698
f 480 546 266
f 480 624 546
f 266 588 480
f 799 791 337
f 791 56 337
f 337 664 799
f 56 664 337
f 471 619 85
f 85 752 471
f 215 581 3
f 755 813 791
f 399 221 318
f 799 347 318
f 813 221 637
f 637 221 399
f 791 450 10
f 10 450 32
f 10 237 791
f 582 237 10
f 183 619 32
f 32 450 183
f 183 450 619
f 37 619 215
f 37 696 619
f 215 619 361
f 619 489 361
f 32 42 193
f 193 42 582
f 74 582 564
f 74 237 582
f 336 237 510
f 241 249 565
f 642 56 336
f 642 773 56
f 43 642 336
f 701 257 43
f 336 278 43
f 43 278 701
f 266 535 527
f 527 535 639
f 56 773 366
f 9 805 427
f 9 427 386
f 85 696 521
f 696 37 521
f 782 752 85
f 688 706 399
f 399 318 688
f 688 318 706
f 262 318 221
f 262 221 813
f 813 755 262
f 262 755 791
f 706 318 531
f 531 318 347
f 780 619 813
f 813 637 780
f 308 531 347
f 399 706 308
f 706 531 308
f 215 3 322
f 322 37 215
f 3 521 322
f 322 521 37
f 556 588 336
f 336 510 556
f 784 241 565
f 315 185 385
f 639 313 381
f 792 457 796
f 796 642 792
f 773 642 796
f 777 257 701
f 777 390 257
f 701 278 777
f 554 642 257
f 257 390 554
f 257 642 34
f 34 43 257
f 642 43 34
f 266 527 6
f 6 527 278
f 336 266 6
f 6 278 336
f 278 527 478
f 478 777 278
f 478 527 639
f 639 381 478
f 350 471 752
f 197 805 525
f 525 9 197
f 805 9 525
f 248 9 386
f 567 356 611
f 269 827 567
f 72 674 358
f 228 521 3
f 160 825 380
f 380 644 160
f 609 644 380
f 380 764 609
f 747 262 791
f 318 262 747
f 747 791 799
f 799 318 747
f 280 489 619
f 28 368 457
f 327 784 565
f 316 784 327
f 565 351 327
f 786 316 27
f 303 574 241
f 249 241 82
f 276 219 147
f 790 612 803
f 560 478 78
f 78 381 313
f 78 478 381
f 560 78 622
f 544 606 519
f 519 117 544
f 276 305 95
f 191 671 778
f 778 671 55
f 455 315 770
f 315 97 770
f 230 97 315
f 794 315 455
f 508 805 197
f 773 796 505
f 457 368 505
f 505 796 457
f 792 642 290
f 290 554 792
f 642 554 290
f 522 187 172
f 386 427 11
f 427 137 11
f 767 137 427
f 779 248 343
f 343 248 387
f 442 248 779
f 9 248 442
f 800 248 386
f 387 248 244
f 538 17 138
f 138 515 538
f 779 356 771
f 356 567 771
f 771 567 827
f 771 442 779
f 472 674 72
f 797 746 517
f 517 198 521
f 157 811 394
f 811 157 715
f 632 362 394
f 394 362 757
f 399 308 839
f 489 280 291
f 164 456 637
f 164 637 399
f 119 456 164
f 792 344 584
f 584 28 792
f 165 457 792
f 792 28 165
f 165 28 457
f 558 437 316
f 316 327 558
f 180 327 351
f 316 437 828
f 828 27 316
f 437 378 828
f 677 303 241
f 241 784 677
f 677 784 316
f 677 316 786
f 786 303 677
f 574 303 115
f 115 303 786
f 276 95 400
f 274 147 219
f 748 281 672
f 544 249 90
f 241 574 413
f 413 82 241
f 790 803 118
f 396 836 754
f 533 118 754
f 790 259 493
f 493 117 703
f 493 546 117
f 325 573 650
f 261 493 645
f 261 78 313
f 261 53 78
f 261 313 639
f 639 546 261
f 546 493 261
f 133 519 606
f 305 519 133
f 122 519 305
f 64 723 209
f 186 385 185
f 186 778 55
f 434 713 356
f 434 676 21
f 533 754 575
f 575 754 836
f 829 575 836
f 672 281 330
f 315 385 389
f 389 230 315
f 650 573 77
f 77 794 650
f 288 767 427
f 150 453 623
f 397 453 150
f 26 543 623
f 623 453 26
f 26 453 543
f 56 366 428
f 428 366 773
f 773 505 428
f 243 344 792
f 650 794 563
f 563 794 601
f 563 648 650
f 390 777 163
f 777 478 163
f 163 478 560
f 560 469 163
f 733 563 554
f 648 563 733
f 733 554 390
f 390 163 733
f 733 163 469
f 576 827 269
f 561 576 269
f 197 9 402
f 402 785 197
f 21 244 497
f 497 244 248
f 21 676 665
f 665 244 21
f 296 348 148
f 275 750 373
f 38 750 275
f 384 124 155
f 384 155 471
f 471 350 384
f 586 311 725
f 586 357 311
f 725 329 586
f 341 329 725
f 797 329 341
f 521 228 479
f 479 476 521
f 823 236 255
f 725 311 323
f 311 393 323
f 545 393 311
f 521 476 364
f 364 517 521
f 85 521 231
f 521 198 231
f 666 825 160
f 160 161 666
f 354 161 160
f 394 811 354
f 811 161 354
f 491 157 795
f 795 157 394
f 160 632 417
f 417 632 394
f 394 757 514
f 181 69 746
f 746 69 603
f 825 382 603
f 603 382 746
f 804 3 581
f 804 228 3
f 804 291 487
f 804 721 456
f 489 291 804
f 217 48 613
f 177 119 626
f 623 543 247
f 543 776 247
f 399 839 483
f 483 164 399
f 839 164 483
f 35 371 29
f 29 253 35
f 35 253 371
f 371 253 422
f 422 4 371
f 422 839 308
f 460 253 29
f 126 499 453
f 126 460 29
f 126 453 397
f 397 460 126
f 205 267 664
f 28 584 669
f 344 403 40
f 601 794 40
f 351 540 84
f 437 180 84
f 84 180 351
f 84 378 437
f 540 378 84
f 736 378 662
f 736 187 522
f 736 662 351
f 736 351 647
f 647 32 736
f 471 187 736
f 32 619 736
f 619 471 736
f 76 540 351
f 76 378 540
f 351 662 76
f 662 378 76
f 786 27 844
f 844 383 310
f 591 115 786
f 686 407 153
f 153 407 501
f 249 82 153
f 153 90 249
f 276 147 411
f 411 723 276
f 224 305 276
f 276 723 224
f 224 122 305
f 281 748 530
f 458 153 501
f 90 153 458
f 615 407 597
f 501 407 615
f 597 458 615
f 615 458 501
f 400 407 729
f 729 219 276
f 276 400 729
f 597 407 190
f 190 458 597
f 544 90 190
f 90 458 190
f 154 803 612
f 154 759 803
f 518 259 790
f 790 118 518
f 722 643 518
f 643 259 518
f 702 493 703
f 401 171 622
f 401 622 78
f 695 325 650
f 78 53 207
f 541 95 305
f 305 133 541
f 698 475 86
f 475 838 86
f 86 793 8
f 64 209 295
f 14 415 8
f 147 274 14
f 274 415 14
f 349 838 117
f 64 838 349
f 641 698 117
f 117 838 641
f 490 832 713
f 611 356 50
f 356 713 50
f 713 832 50
f 454 186 185
f 778 186 454
f 325 695 454
f 569 434 21
f 38 580 569
f 569 750 38
f 439 760 683
f 191 778 550
f 158 550 553
f 589 800 386
f 420 800 589
f 587 599 533
f 533 575 587
f 805 508 758
f 19 113 238
f 543 113 19
f 19 128 543
f 197 238 297
f 238 452 297
f 370 428 664
f 370 664 56
f 66 794 455
f 408 788 66
f 66 760 408
f 683 760 66
f 697 403 344
f 344 243 697
f 554 563 610
f 792 554 610
f 610 243 792
f 21 800 429
f 429 781 21
f 332 148 470
f 567 123 235
f 670 520 235
f 235 123 430
f 93 547 203
f 203 275 373
f 203 148 348
f 203 470 148
f 421 172 124
f 538 515 714
f 766 273 335
f 652 273 766
f 775 776 543
f 543 128 775
f 568 771 785
f 568 398 771
f 442 771 646
f 771 398 646
f 210 357 72
f 72 252 210
f 311 357 210
f 673 258 265
f 392 128 668
f 265 520 789
f 72 358 2
f 130 586 329
f 451 746 797
f 797 341 451
f 143 479 228
f 379 517 746
f 746 382 379
f 797 517 435
f 114 734 284
f 782 114 284
f 620 795 45
f 45 795 831
f 585 354 160
f 160 417 585
f 764 181 579
f 579 181 746
f 685 181 764
f 48 823 629
f 629 175 48
f 228 804 629
f 629 143 228
f 179 804 487
f 721 804 179
f 111 804 581
f 489 804 111
f 48 175 277
f 277 613 48
f 277 60 72
f 814 586 217
f 217 613 814
f 72 173 485
f 485 472 72
f 765 173 397
f 72 60 293
f 177 626 555
f 555 626 839
f 839 422 555
f 555 422 253
f 555 629 177
f 653 164 839
f 839 626 653
f 119 164 653
f 653 626 119
f 92 422 308
f 4 422 92
f 371 4 285
f 397 247 68
f 68 247 776
f 621 460 397
f 397 173 621
f 621 173 72
f 72 293 621
f 267 595 571
f 368 28 443
f 443 505 368
f 443 428 505
f 601 40 500
f 500 40 403
f 115 591 47
f 310 383 656
f 786 844 656
f 656 844 310
f 574 115 654
f 654 413 574
f 654 312 153
f 82 413 654
f 654 153 82
f 93 661 409
f 219 542 768
f 373 748 768
f 768 274 219
f 672 274 768
f 768 748 672
f 605 274 672
f 605 415 274
f 672 330 605
f 8 415 605
f 605 86 8
f 426 209 723
f 723 411 426
f 147 209 426
f 426 411 147
f 219 729 294
f 294 407 686
f 294 729 407
f 242 533 722
f 722 518 242
f 703 612 342
f 342 702 703
f 493 702 342
f 171 401 98
f 319 300 129
f 560 622 319
f 129 699 319
f 648 733 223
f 733 300 223
f 650 648 223
f 223 300 650
f 129 300 20
f 20 300 733
f 20 699 129
f 307 401 245
f 645 551 503
f 716 251 493
f 716 259 643
f 716 493 259
f 245 52 845
f 53 73 80
f 80 207 53
f 801 401 78
f 78 207 801
f 73 65 30
f 65 845 30
f 30 845 52
f 481 65 73
f 481 73 53
f 53 261 481
f 481 261 645
f 698 86 206
f 206 86 196
f 793 86 116
f 374 295 116
f 116 838 374
f 116 86 838
f 201 838 64
f 64 295 201
f 374 838 201
f 201 295 374
f 149 209 147
f 147 14 149
f 636 641 838
f 698 641 636
f 296 832 99
f 832 490 99
f 593 454 695
f 778 454 593
f 135 569 580
f 530 569 304
f 229 530 748
f 229 569 530
f 820 439 97
f 97 230 820
f 820 230 191
f 191 690 820
f 298 550 134
f 693 690 191
f 191 550 693
f 550 158 693
f 778 292 465
f 708 465 599
f 778 465 708
f 836 539 120
f 120 539 330
f 427 805 710
f 805 758 710
f 744 19 238
f 668 128 473
f 128 19 473
f 56 428 577
f 577 370 56
f 428 370 577
f 428 71 334
f 802 40 794
f 794 66 802
f 785 771 711
f 711 127 785
f 785 127 709
f 557 800 420
f 557 429 800
f 756 550 466
f 553 550 756
f 798 123 332
f 332 470 798
f 240 335 269
f 269 567 240
f 567 235 240
f 766 335 240
f 377 203 348
f 275 203 377
f 834 222 425
f 430 834 425
f 425 235 430
f 425 222 547
f 124 384 440
f 440 421 124
f 522 172 502
f 172 421 502
f 432 745 384
f 239 745 620
f 620 45 239
f 384 745 239
f 208 833 467
f 686 153 837
f 153 312 837
f 837 294 686
f 61 294 837
f 383 844 468
f 468 552 383
f 468 844 27
f 27 552 468
f 27 828 810
f 810 552 27
f 383 136 741
f 33 139 741
f 225 136 96
f 445 714 515
f 511 714 841
f 714 445 841
f 464 644 609
f 609 178 464
f 821 652 766
f 787 358 674
f 46 818 444
f 269 46 444
f 444 561 269
f 785 709 444
f 197 785 444
f 444 818 197
f 140 425 504
f 496 627 474
f 474 627 520
f 474 520 670
f 670 140 474
f 705 392 668
f 705 520 265
f 265 789 232
f 232 789 326
f 309 178 609
f 609 302 309
f 326 789 309
f 309 302 326
f 17 789 220
f 220 789 520
f 220 138 17
f 404 130 255
f 255 236 404
f 393 545 835
f 592 231 198
f 592 320 231
f 433 364 476
f 476 435 433
f 517 364 433
f 433 435 517
f 479 143 614
f 476 479 614
f 614 435 476
f 753 435 54
f 54 629 753
f 753 823 255
f 753 629 823
f 825 666 516
f 516 320 382
f 516 382 825
f 782 284 562
f 562 715 752
f 752 782 562
f 764 380 534
f 534 685 764
f 806 629 804
f 353 277 175
f 60 277 353
f 737 555 253
f 253 460 737
f 175 629 737
f 629 555 737
f 4 92 104
f 340 347 799
f 340 308 347
f 29 371 761
f 371 285 761
f 494 765 397
f 397 68 494
f 174 742 595
f 174 595 267
f 267 571 36
f 499 104 36
f 453 499 36
f 36 571 617
f 617 453 36
f 200 591 824
f 200 47 591
f 824 312 513
f 115 47 513
f 498 312 824
f 824 591 498
f 498 837 312
f 383 837 498
f 498 656 383
f 655 661 93
f 93 23 655
f 373 467 83
f 83 203 373
f 93 203 83
f 83 23 93
f 333 409 661
f 661 139 333
f 333 139 33
f 330 539 15
f 15 605 330
f 15 539 836
f 15 836 396
f 572 542 219
f 219 294 572
f 151 717 58
f 86 605 58
f 605 15 58
f 396 754 704
f 151 58 301
f 396 704 301
f 301 15 396
f 301 58 15
f 87 118 803
f 87 754 118
f 87 704 754
f 87 301 704
f 618 118 533
f 355 612 790
f 355 342 612
f 790 493 355
f 493 342 355
f 171 98 192
f 650 300 192
f 192 300 171
f 171 300 843
f 300 319 843
f 675 733 469
f 675 20 733
f 675 469 560
f 560 319 675
f 401 307 477
f 251 716 731
f 731 643 722
f 493 331 602
f 645 493 602
f 602 551 645
f 493 251 202
f 202 331 493
f 245 845 367
f 367 845 812
f 769 801 207
f 245 401 769
f 401 801 769
f 526 475 698
f 698 636 526
f 526 838 475
f 526 636 838
f 188 348 296
f 296 99 188
f 275 99 495
f 495 99 490
f 170 593 279
f 279 307 245
f 245 367 279
f 79 593 170
f 63 593 79
f 778 593 728
f 728 593 63
f 63 367 728
f 728 367 812
f 569 135 204
f 713 434 204
f 434 569 204
f 466 829 176
f 176 829 836
f 406 569 21
f 406 414 569
f 21 781 406
f 760 439 167
f 439 820 167
f 681 550 778
f 681 134 550
f 459 532 589
f 306 693 420
f 690 693 306
f 420 589 306
f 589 532 306
f 599 587 166
f 166 708 599
f 569 414 339
f 836 120 339
f 414 176 339
f 339 176 836
f 509 330 281
f 509 120 330
f 197 818 548
f 548 238 197
f 548 744 238
f 607 473 652
f 668 473 607
f 652 821 607
f 71 700 395
f 428 443 112
f 112 71 428
f 112 700 71
f 28 669 112
f 112 443 28
f 121 802 66
f 788 448 441
f 448 459 441
f 441 459 589
f 589 89 441
f 430 123 484
f 123 798 484
f 211 99 275
f 504 425 689
f 689 425 547
f 75 136 383
f 110 440 384
f 736 440 346
f 250 432 384
f 491 432 250
f 250 157 491
f 833 208 687
f 687 837 833
f 61 837 687
f 62 837 661
f 833 837 62
f 628 139 661
f 661 837 628
f 254 741 136
f 136 225 254
f 394 514 156
f 418 213 644
f 644 464 418
f 463 787 674
f 776 787 463
f 776 775 840
f 840 787 776
f 842 140 504
f 842 474 140
f 673 375 282
f 258 673 282
f 283 2 358
f 358 375 283
f 392 705 684
f 265 258 684
f 684 705 265
f 159 235 520
f 520 705 159
f 159 240 235
f 608 220 726
f 138 220 608
f 326 302 214
f 311 299 424
f 424 299 326
f 326 214 424
f 326 246 724
f 724 232 326
f 2 246 718
f 718 252 72
f 72 2 718
f 130 404 512
f 217 586 512
f 586 130 512
f 393 835 125
f 125 835 359
f 359 835 486
f 764 359 486
f 609 764 486
f 54 435 762
f 435 614 762
f 734 516 5
f 5 284 734
f 5 516 666
f 231 320 657
f 320 516 657
f 1 31 161
f 1 161 811
f 811 715 822
f 715 562 822
f 177 629 263
f 629 806 263
f 806 94 263
f 152 456 119
f 119 806 152
f 152 804 456
f 152 806 804
f 740 92 308
f 308 340 740
f 233 340 799
f 799 664 233
f 664 267 233
f 267 205 391
f 391 174 267
f 659 508 197
f 197 297 659
f 297 182 659
f 106 104 92
f 106 36 104
f 115 513 287
f 287 513 312
f 467 833 528
f 528 83 467
f 61 449 101
f 101 294 61
f 372 58 717
f 372 717 803
f 803 759 372
f 196 86 536
f 86 58 536
f 533 242 739
f 739 618 533
f 462 319 622
f 462 843 319
f 622 171 462
f 171 843 462
f 699 20 49
f 20 675 49
f 49 319 699
f 49 675 319
f 251 731 712
f 712 503 551
f 321 716 643
f 643 731 321
f 321 731 716
f 812 845 268
f 268 731 812
f 207 80 184
f 184 600 207
f 207 600 194
f 194 769 207
f 307 279 416
f 416 279 593
f 570 176 482
f 570 756 466
f 466 176 570
f 7 166 587
f 81 304 569
f 569 339 81
f 71 270 507
f 507 270 735
f 507 807 71
f 189 663 436
f 436 659 182
f 508 659 436
f 436 758 508
f 71 395 680
f 410 412 314
f 344 410 314
f 314 584 344
f 488 549 369
f 369 589 488
f 369 89 589
f 634 557 420
f 634 360 557
f 557 360 423
f 423 360 482
f 482 176 423
f 275 377 271
f 271 211 275
f 679 689 547
f 162 91 719
f 286 91 162
f 136 260 583
f 96 136 583
f 260 109 583
f 440 110 102
f 378 736 616
f 616 346 378
f 736 346 616
f 831 795 816
f 816 795 394
f 394 25 816
f 33 741 738
f 741 254 738
f 719 91 227
f 227 679 719
f 227 156 841
f 227 841 445
f 394 156 227
f 757 213 218
f 213 418 218
f 218 514 757
f 218 418 511
f 216 714 511
f 511 418 216
f 566 375 358
f 566 282 375
f 311 424 324
f 324 545 311
f 590 246 2
f 590 724 246
f 284 234 168
f 168 562 284
f 168 234 31
f 31 1 168
f 199 806 119
f 199 94 806
f 338 391 205
f 453 39 594
f 543 453 594
f 594 113 543
f 461 297 594
f 238 113 594
f 594 297 452
f 594 452 238
f 640 453 617
f 640 39 453
f 24 144 598
f 24 598 467
f 24 467 373
f 373 768 24
f 107 449 598
f 107 101 449
f 132 98 401
f 401 751 132
f 289 477 650
f 401 477 289
f 783 712 551
f 251 712 783
f 722 292 446
f 446 720 722
f 446 292 778
f 778 728 446
f 830 731 722
f 722 720 830
f 812 731 830
f 735 436 707
f 707 436 663
f 663 88 707
f 735 270 363
f 363 436 735
f 410 649 604
f 604 412 410
f 604 649 121
f 604 121 66
f 604 363 559
f 66 363 604
f 559 67 604
f 604 680 395
f 70 66 788
f 70 363 66
f 788 441 70
f 70 369 436
f 436 363 70
f 376 549 288
f 376 369 549
f 436 369 376
f 376 288 427
f 496 679 57
f 57 627 496
f 691 142 57
f 142 608 57
f 57 608 726
f 625 679 547
f 625 547 93
f 93 109 625
f 405 109 808
f 405 583 109
f 405 808 103
f 529 75 743
f 286 529 743
f 743 91 286
f 91 630 660
f 440 102 809
f 378 346 809
f 809 346 440
f 16 828 378
f 383 552 819
f 819 75 383
f 819 13 75
f 819 635 13
f 145 816 25
f 145 146 239
f 256 578 131
f 256 75 529
f 256 131 75
f 431 18 136
f 136 75 431
f 75 131 431
f 131 18 431
f 141 738 103
f 33 738 141
f 103 808 141
f 108 338 205
f 663 338 108
f 108 317 663
f 663 317 345
f 345 88 663
f 461 594 506
f 506 297 461
f 506 182 297
f 506 39 182
f 506 594 39
f 447 12 438
f 438 174 447
f 182 39 438
f 742 174 438
f 598 144 195
f 195 107 598
f 749 751 401
f 401 289 749
f 650 192 678
f 678 289 650
f 71 807 100
f 100 88 334
f 100 334 71
f 680 604 352
f 352 604 67
f 691 57 727
f 727 227 445
f 679 227 727
f 727 57 679
f 719 679 226
f 679 625 226
f 51 109 260
f 51 625 109
f 692 22 25
f 692 25 394
f 394 227 692
f 25 22 41
f 59 743 75
f 75 13 59
f 59 110 384
f 59 660 630
f 105 227 91
f 91 660 105
f 378 809 492
f 492 16 378
f 492 809 102
f 102 16 492
f 212 102 110
f 212 16 102
f 110 59 419
f 419 59 13
f 537 145 25
f 146 145 537
f 328 436 182
f 182 438 328
f 328 826 436
f 328 438 12
f 189 436 524
f 436 826 524
f 388 631 523
f 523 631 817
f 523 817 550
f 523 550 298
f 264 631 388
f 7 631 264
f 166 7 264
f 815 707 88
f 88 100 815
f 578 226 732
f 131 578 732
f 732 226 625
f 732 18 131
f 384 239 638
f 638 59 384
f 660 59 638
f 239 694 638
f 239 146 633
f 633 694 239
f 110 419 763
f 828 16 774
f 774 772 828
f 660 638 365
f 169 819 552
f 772 774 169
f 16 763 44
f 44 763 419
f 658 419 13
f 658 44 419
f 658 774 16
f 16 44 658
f 13 635 651
f 651 658 13
f 774 658 651
f 660 365 272
f 272 41 660
f 25 41 272
f 667 169 552
f 772 169 667
f 582 10 193
f 193 10 32
f 596 624 556
f 624 480 556
f 556 682 596
f 564 682 556
f 556 480 588
f 556 74 564
f 237 74 556
f 556 510 237
f 172 187 471
f 471 155 172
f 155 124 172
f 180 558 327
f 437 558 180
f 389 671 191
f 191 230 389
f 55 671 389
f 385 186 389
f 389 186 55
f 248 800 497
f 497 800 21
f 665 356 779
f 779 343 665
f 387 244 665
f 665 343 387
f 665 434 356
f 676 434 665
f 247 150 623
f 397 150 247
f 541 133 606
f 541 606 544
f 541 407 400
f 541 400 95
f 544 190 541
f 541 190 407
f 117 519 349
f 349 224 723
f 349 723 64
f 519 122 349
f 122 224 349
f 50 567 611
f 50 123 567
f 296 148 50
f 50 832 296
f 50 148 332
f 332 123 50
f 454 77 573
f 454 185 315
f 315 794 454
f 573 325 454
f 794 77 454
f 97 439 66
f 455 770 66
f 66 770 97
f 66 439 683
f 213 632 160
f 160 644 213
f 362 632 213
f 213 757 362
f 646 402 9
f 9 442 646
f 785 402 646
f 646 568 785
f 398 568 646
f 585 417 394
f 394 354 585
f 179 780 637
f 619 780 179
f 179 280 619
f 637 456 179
f 487 291 179
f 179 291 280
f 456 721 179
f 215 361 111
f 111 581 215
f 111 361 489
f 814 277 72
f 72 357 814
f 357 586 814
f 613 277 814
f 500 563 601
f 243 610 500
f 403 697 500
f 500 697 243
f 500 610 563
f 149 14 8
f 8 793 149
f 149 295 209
f 793 116 149
f 149 116 295
f 229 748 373
f 750 569 229
f 373 750 229
f 533 599 465
f 722 533 465
f 465 292 722
f 502 440 736
f 502 736 522
f 421 440 502
f 432 795 620
f 491 795 432
f 620 745 432
f 576 561 444
f 827 576 444
f 444 771 827
f 444 711 771
f 127 711 444
f 444 709 127
f 235 425 140
f 670 235 140
f 517 379 592
f 198 517 592
f 592 379 382
f 382 320 592
f 753 130 329
f 753 329 797
f 255 130 753
f 797 435 753
f 825 603 534
f 534 380 825
f 69 181 534
f 534 603 69
f 181 685 534
f 737 621 293
f 460 621 737
f 737 353 175
f 737 293 60
f 60 353 737
f 761 104 499
f 761 126 29
f 499 126 761
f 761 285 4
f 4 104 761
f 47 200 513
f 513 200 824
f 786 656 498
f 498 591 786
f 803 717 87
f 151 301 87
f 87 717 151
f 79 367 63
f 79 279 367
f 170 279 79
f 204 135 580
f 204 490 713
f 204 580 38
f 38 275 204
f 275 495 204
f 204 495 490
f 306 448 788
f 306 788 408
f 306 820 690
f 408 760 306
f 306 459 448
f 760 167 306
f 532 459 306
f 306 167 820
f 548 46 269
f 269 335 548
f 548 818 46
f 273 652 548
f 548 335 273
f 19 744 548
f 548 473 19
f 652 473 548
f 137 767 549
f 549 589 386
f 386 11 549
f 549 11 137
f 767 288 549
f 488 589 549
f 484 203 547
f 484 834 430
f 547 222 484
f 484 222 834
f 470 203 484
f 484 798 470
f 250 350 752
f 250 384 350
f 752 715 250
f 250 715 157
f 598 449 687
f 687 208 467
f 467 598 687
f 687 449 61
f 383 741 628
f 628 837 383
f 628 741 139
f 472 485 463
f 674 472 463
f 765 494 463
f 463 485 173
f 173 765 463
f 463 68 776
f 463 494 68
f 668 607 159
f 159 821 766
f 766 240 159
f 159 705 668
f 159 607 821
f 311 210 718
f 326 299 718
f 718 299 311
f 718 246 326
f 718 210 252
f 512 404 236
f 512 823 48
f 512 48 217
f 236 823 512
f 125 359 764
f 125 341 725
f 746 451 125
f 725 323 125
f 125 323 393
f 125 451 341
f 764 579 125
f 125 579 746
f 143 629 762
f 762 629 54
f 762 614 143
f 657 114 782
f 657 782 85
f 85 231 657
f 657 516 734
f 657 734 114
f 161 31 234
f 234 666 161
f 234 5 666
f 284 5 234
f 267 36 106
f 92 740 106
f 106 233 267
f 106 740 340
f 340 233 106
f 312 654 287
f 287 654 115
f 661 655 528
f 528 62 661
f 528 655 23
f 23 83 528
f 833 62 528
f 536 612 703
f 703 698 536
f 698 206 536
f 536 154 612
f 759 154 536
f 536 206 196
f 536 372 759
f 58 372 536
f 739 242 518
f 739 518 118
f 118 618 739
f 268 845 65
f 268 481 645
f 645 503 268
f 503 712 268
f 65 481 268
f 268 712 731
f 194 30 52
f 194 52 245
f 194 80 73
f 73 30 194
f 245 769 194
f 194 184 80
f 600 184 194
f 416 593 695
f 416 695 650
f 650 477 416
f 416 477 307
f 81 509 281
f 530 304 81
f 281 530 81
f 81 339 120
f 120 509 81
f 649 410 344
f 344 40 649
f 40 802 649
f 802 121 649
f 634 158 553
f 553 756 634
f 420 693 634
f 634 693 158
f 634 570 482
f 482 360 634
f 756 570 634
f 423 176 414
f 781 429 423
f 429 557 423
f 423 406 781
f 414 406 423
f 348 188 271
f 271 377 348
f 271 188 99
f 99 211 271
f 496 474 679
f 679 842 504
f 504 689 679
f 474 842 679
f 218 156 514
f 511 841 218
f 841 156 218
f 216 789 17
f 216 17 538
f 178 309 216
f 538 714 216
f 216 464 178
f 216 309 789
f 216 418 464
f 358 787 566
f 128 392 566
f 566 840 775
f 566 775 128
f 566 684 258
f 787 840 566
f 258 282 566
f 392 684 566
f 324 486 835
f 324 214 302
f 324 302 609
f 609 486 324
f 324 424 214
f 324 835 545
f 590 375 673
f 590 673 265
f 265 232 590
f 2 283 590
f 590 283 375
f 232 724 590
f 811 822 168
f 168 1 811
f 168 822 562
f 177 263 199
f 199 119 177
f 199 263 94
f 551 602 783
f 783 202 251
f 783 602 331
f 331 202 783
f 830 446 728
f 830 728 812
f 720 446 830
f 700 112 604
f 604 395 700
f 604 669 584
f 584 314 604
f 604 112 669
f 604 314 412
f 70 441 89
f 89 369 70
f 427 710 376
f 758 436 376
f 376 710 758
f 520 627 57
f 726 220 57
f 57 220 520
f 103 738 405
f 405 225 96
f 96 583 405
f 405 254 225
f 405 738 254
f 145 239 45
f 831 816 145
f 145 45 831
f 93 409 141
f 141 333 33
f 409 333 141
f 141 109 93
f 808 109 141
f 345 205 664
f 664 428 345
f 334 88 345
f 428 334 345
f 345 108 205
f 317 108 345
f 595 742 438
f 438 571 595
f 438 640 617
f 617 571 438
f 39 640 438
f 542 572 195
f 195 768 542
f 101 107 195
f 195 572 294
f 195 24 768
f 294 101 195
f 144 24 195
f 98 132 678
f 678 192 98
f 678 132 751
f 751 749 678
f 678 749 289
f 631 829 466
f 466 550 631
f 575 829 631
f 631 587 575
f 550 817 631
f 631 7 587
f 71 680 352
f 352 270 71
f 352 363 270
f 352 67 559
f 559 363 352
f 515 138 727
f 727 445 515
f 727 142 691
f 138 608 727
f 727 608 142
f 226 529 286
f 226 162 719
f 286 162 226
f 226 256 529
f 578 256 226
f 59 630 91
f 91 743 59
f 105 692 227
f 660 41 105
f 105 41 22
f 22 692 105
f 447 174 524
f 524 338 663
f 524 663 189
f 174 391 524
f 391 338 524
f 524 12 447
f 524 328 12
f 826 328 524
f 264 681 778
f 298 134 264
f 778 708 264
f 134 681 264
f 708 166 264
f 264 523 298
f 388 523 264
f 807 507 815
f 815 507 735
f 735 707 815
f 815 100 807
f 136 18 732
f 732 260 136
f 732 51 260
f 625 51 732
f 763 212 110
f 16 212 763
f 819 169 651
f 635 819 651
f 651 169 774
f 272 633 146
f 272 537 25
f 146 537 272
f 272 638 694
f 694 633 272
f 272 365 638
f 552 810 667
f 667 810 828
f 828 772 667

