# https://github.com/mikedh/trimesh
v 0.07033826 0.02848805 0.00931436
v 0.06988384 0.00022782 0.02446799
v 0.05362054 0.04448371 0.00115516
v 0.06571896 0.01071806 0.03130432
v 0.06431641 0.03639618 0.01386911
v 0.06910861 0.01685702 0.02487111
v 0.06884969 0.03257678 0.00947136
v 0.06713442 0.02908365 0.02086293
v 0.07029041 0.03249254 0.00185165
v 0.05056924 0.02700881 0.03131802
v 0.06764082 0.02143268 0.02621943
v 0.07236440 0.02504211 0.00005978
v 0.07016035 0.03111708 0.00588931
v 0.06908594 0.00989410 0.02776442
v 0.06579564 0.02062726 0.02809284
v 0.05387124 0.03509369 0.02122645
v 0.06903877 0.01026590 0.02784809
v 0.07217184 0.01893387 0.00512393
v 0.06653640 0.01318543 0.03026131
v 0.06757906 0.03695212 0.00344986
v 0.06803033 0.01545114 0.02835735
v 0.07212349 0.01995029 0.00483062
v 0.07063414 0.02360124 0.01226834
v 0.06943488 0.03067755 0.01023980
v 0.06983562 0.01614291 0.02148973
v 0.06893408 0.02458734 0.02017692
v 0.05294892 0.04311393 0.00569509
v 0.06896218 0.02188480 0.02240467
v 0.05751382 0.01234856 0.03475594
v 0.05038920 0.00678622 0.03892066
v 0.06313302 0.04093773 0.00477399
v 0.07047656 0.02080287 0.01500968
v 0.05297940 0.02872896 0.02875815
v 0.05826069 0.04361916 0.00150249
v 0.06844021 0.01491406 0.02792114
v 0.05108814 0.02581195 0.03192563
v 0.07048542 0.01237178 0.01869219
v 0.06864919 0.02902298 0.01628927
v 0.07005700 0.01534943 0.02039299
v 0.05877346 0.04308073 0.00287299
v 0.06962026 0.02371695 0.01786413
v 0.06336504 0.04167350 0.00069312
v 0.07249817 0.02335295 0.00024565
v 0.06963917 0.01021265 0.02476025
v 0.07046009 0.02279413 0.01391155
v 0.06860119 0.03393217 0.00757814
v 0.06927698 0.03161124 0.00926407
v 0.06836457 0.03169345 0.01336831
v 0.06556188 0.01923925 0.02886721
v 0.07076568 0.01876761 0.01426922
v 0.06794614 0.02496865 0.02334168
v 0.06529948 0.03854509 0.00713842
v 0.06908103 0.02487194 0.01932615
v 0.07009528 0.01813662 0.01888140
v 0.05080210 0.03452811 0.02346125
v 0.06879628 0.01400597 0.02739488
v 0.06751825 0.01348910 0.02947264
v 0.06743795 0.00874039 0.03055265
v 0.06985112 0.01708391 0.02094974
v 0.06257829 0.04194924 0.00202197
v 0.06896635 0.01725793 0.02532129
v 0.06622000 0.03655723 0.01035944
v 0.07031863 0.02925123 0.00842532
v 0.06942974 0.01766620 0.02282826
v 0.05817128 0.04303923 0.00330072
v 0.06941837 0.00863247 0.02652190
v 0.06761053 0.03247056 0.01482872
v 0.06896493 0.00099142 0.02933029
v 0.05019417 0.02780009 0.03083822
v 0.06988836 0.01957936 0.01933664
v 0.05293478 0.02560731 0.03121586
v 0.07281312 0.01932921 0.00070438
v 0.06947249 0.00306494 0.02699403
v 0.06642255 0.02916579 0.02159865
v 0.06786479 0.02014308 0.02666839
v 0.06509405 0.02895655 0.02287799
v 0.06373936 0.02980457 0.02274398
v 0.06838168 0.01681847 0.02732602
v 0.05850274 0.00025909 0.03560675
v 0.05377132 0.04438768 0.00140709
v 0.06893059 0.01562001 0.02621624
v 0.05598059 0.00016593 0.03677492
v 0.06946628 0.00199865 0.02711707
v 0.06909749 0.03036249 0.01235158
v 0.07203669 0.02695069 0.00099594
v 0.06719008 0.02466703 0.02468106
v 0.06980342 0.01171600 0.02329508
v 0.06941892 0.03358022 0.00453378
v 0.06608544 0.02245825 0.02703586
v 0.06378656 0.04058909 0.00447852
v 0.06527507 0.02335051 0.02691805
v 0.06948643 0.02851926 0.01343090
v 0.06890163 0.00804209 0.02883392
v 0.05256938 0.01961886 0.03470593
v 0.07028574 0.02028107 0.01652569
v 0.07103938 0.01112836 0.01544512
v 0.06962361 0.02409365 0.01754855
v 0.07221855 0.01808988 0.00526340
v 0.06080362 0.04160228 0.00544266
v 0.06997429 0.00506833 0.02355945
v 0.06895495 0.03378572 0.00642259
v 0.07200172 0.01790889 0.00674225
v 0.05726306 0.04407625 0.00062130
v 0.06743830 0.03708435 0.00356271
v 0.06646602 0.03524927 0.01298149
v 0.05211203 0.00454461 0.03835708
v 0.07256611 0.01905733 0.00249727
v 0.07313350 0.01440195 0.00086785
v 0.06963448 0.01162757 0.02441301
v 0.05009017 0.03800285 0.01845046
v 0.06383172 0.01194073 0.03192995
v 0.07116880 0.02657981 0.00666126
v 0.06822884 0.01241508 0.02911521
v 0.07171977 0.02717087 0.00275380
v 0.05022443 0.00970899 0.03852961
v 0.05101184 0.04419193 0.00340946
v 0.06927837 0.00653945 0.02767797
v 0.06796456 0.02782676 0.02052115
v 0.06604030 0.03495244 0.01453457
v 0.06360215 0.04107588 0.00306748
v 0.07154747 0.02981104 0.00051073
v 0.07086720 0.01690398 0.01450711
v 0.07095237 0.00916759 0.01653250
v 0.06051979 0.01668668 0.03203964
v 0.06932014 0.03371958 0.00477129
v 0.07024007 0.00430308 0.02189690
v 0.06094983 0.04171735 0.00498926
v 0.05516004 0.04313514 0.00452231
v 0.06743547 0.03029418 0.01894217
v 0.05166921 0.02361789 0.03308861
v 0.06436972 0.03842355 0.00967981
v 0.05062058 0.03807918 0.01804725
v 0.05140056 0.02185760 0.03418403
v 0.06552894 0.02933039 0.02222947
v 0.07013625 0.03038492 0.00739372
v 0.06724188 0.03021675 0.01952819
v 0.05324239 0.00001293 0.03803182
v 0.06958434 0.03107476 0.00878327
v 0.07085571 0.00122281 0.01813448
v 0.05119252 0.01283083 0.03755028
v 0.06974985 0.02122049 0.01901412
v 0.06634543 0.03740255 0.00721895
v 0.06986275 0.03214939 0.00529592
v 0.06479384 0.03940527 0.00586391
v 0.06633390 0.03778393 0.00583718
v 0.05864071 0.04353018 0.00156041
v 0.07245587 0.01839304 0.00359307
v 0.06863497 0.02989401 0.01509448
v 0.05048960 0.02798756 0.03054369
v 0.06952434 0.00281012 0.02668384
v 0.07127352 0.02711897 0.00545169
v 0.06090231 0.02260953 0.02939910
v 0.05577813 0.03140749 0.02488621
v 0.06723312 0.03393029 0.01340320
v 0.06773182 0.03709393 0.00201814
v 0.06852835 0.01011558 0.02923815
v 0.06525491 0.01238072 0.03114482
v 0.06031156 0.03727940 0.01463121
v 0.07008293 0.00936729 0.02211123
v 0.06459030 0.01905027 0.02940873
v 0.05016307 0.04148443 0.01124006
v 0.06019377 0.04106724 0.00714353
v 0.06848845 0.02578076 0.02078260
v 0.07002898 0.02893877 0.01028240
v 0.06726341 0.03390635 0.01333391
v 0.06740437 0.02758879 0.02197486
v 0.06820583 0.03525617 0.00581158
v 0.07095567 0.02055018 0.01205730
v 0.06875858 0.00921281 0.02892728
v 0.06731273 0.02186005 0.02640661
v 0.06830817 0.01649664 0.02760770
v 0.06769755 0.00075121 0.03114793
v 0.06673505 0.02670464 0.02365992
v 0.06968996 0.02562424 0.01586159
v 0.06827569 0.02512168 0.02224425
v 0.05027540 0.03258370 0.02601813
v 0.05005949 0.01614800 0.03703544
v 0.06641784 0.01486522 0.02981500
v 0.06969334 0.01253792 0.02375768
v 0.06830826 0.01940398 0.02633260
v 0.06976658 0.01476020 0.02248827
v 0.07311181 0.01364507 0.00129974
v 0.06698021 0.00738541 0.03109110
v 0.05538339 0.01482685 0.03499188
v 0.05104160 0.02877321 0.02962743
v 0.06499008 0.03822532 0.00889576
v 0.06785239 0.01835728 0.02759669
v 0.06819381 0.03184401 0.01376556
v 0.07317863 0.00929418 0.00207739
v 0.06562320 0.01847784 0.02912147
v 0.06608046 0.00801657 0.03152330
v 0.06240598 0.04045419 0.00700803
v 0.07151931 0.03012357 0.00017941
v 0.07167030 0.01738417 0.00911755
v 0.06321352 0.04022706 0.00671791
v 0.06724621 0.02931435 0.02046640
v 0.06590968 0.00166539 0.03212055
v 0.05788798 0.02246994 0.03086431
v 0.06932749 0.00611943 0.02751584
v 0.06108337 0.03708826 0.01455758
v 0.05650771 0.03743044 0.01626976
v 0.06465415 0.00579908 0.03249892
v 0.07031923 0.03101212 0.00521996
v 0.06905060 0.01724705 0.02498466
v 0.06979287 0.00448268 0.02479733
v 0.06637050 0.03730468 0.00747841
v 0.06914814 0.00836913 0.02794968
v 0.06607446 0.03153591 0.01945493
v 0.05089583 0.02927974 0.02924244
v 0.07324922 0.01313162 0.00055138
v 0.06274381 0.03788064 0.01221475
v 0.06839321 0.03653727 0.00012087
v 0.05325198 0.04302680 0.00580347
v 0.05235892 0.04494014 0.00017234
v 0.07288957 0.01795519 0.00099945
v 0.07305644 0.01381851 0.00160070
v 0.06937255 0.01652563 0.02370351
v 0.06394788 0.03236919 0.01993327
v 0.06888213 0.01764520 0.02543479
v 0.06175816 0.02641271 0.02655835
v 0.07207490 0.01844702 0.00601625
v 0.06639215 0.02736856 0.02333744
v 0.06173997 0.03730552 0.01387546
v 0.06665132 0.03289678 0.01678847
v 0.07303618 0.00041547 0.00398690
v 0.06442093 0.02721184 0.02464359
v 0.06988015 0.03272301 0.00381808
v 0.07310664 0.01645567 0.00020576
v 0.06760045 0.03427441 0.01098545
v 0.06521603 0.02226909 0.02757423
v 0.05099418 0.00566877 0.03881829
v 0.06537897 0.00044993 0.03242358
v 0.06919726 0.00100512 0.02876455
v 0.06293307 0.03729475 0.01328682
v 0.06863849 0.02788058 0.01780390
v 0.06970649 0.01339726 0.02336472
v 0.07190092 0.02038375 0.00601337
v 0.06753742 0.00426642 0.03102272
v 0.06985697 0.02376118 0.01655700
v 0.06945104 0.00549140 0.02688938
v 0.06631922 0.03142233 0.01938205
v 0.06962942 0.02286637 0.01845237
v 0.06913865 0.01923101 0.02346268
v 0.05629602 0.01232450 0.03532324
v 0.05455961 0.00432077 0.03723765
v 0.05718147 0.01890358 0.03288663
v 0.05088088 0.00028485 0.03912402
v 0.06550668 0.02481868 0.02586667
v 0.05264314 0.03118454 0.02660150
v 0.05817862 0.03537457 0.01875897
v 0.06088093 0.04326984 0.00018976
v 0.06317397 0.03646923 0.01452048
v 0.06807593 0.01464711 0.02856866
v 0.05380201 0.00026872 0.03777630
v 0.07023367 0.02759696 0.01088787
v 0.06417179 0.01822616 0.02987264
v 0.06763838 0.03355538 0.01254224
v 0.06524664 0.02810111 0.02351695
v 0.06623627 0.02638445 0.02429968
v 0.06469807 0.03940439 0.00609328
v 0.07081538 0.02925308 0.00563848
v 0.07009981 0.02446675 0.01462065
v 0.06902525 0.01999216 0.02343468
v 0.06917488 0.02222876 0.02121869
v 0.07125605 0.02712876 0.00554334
v 0.05323829 0.03040901 0.02710488
v 0.06960919 0.01346158 0.02383866
v 0.05081463 0.03770242 0.01862956
v 0.06704691 0.01033305 0.03059194
v 0.05236334 0.04432351 0.00231148
v 0.06444006 0.03493711 0.01630077
v 0.05238963 0.01903737 0.03504737
v 0.06320052 0.02601816 0.02617092
v 0.07004168 0.02851121 0.01088636
v 0.06477549 0.02999336 0.02206216
v 0.07004306 0.02135447 0.01736544
v 0.05064974 0.01906623 0.03583783
v 0.06998403 0.03271577 0.00319945
v 0.07224142 0.02608211 0.00021095
v 0.06281862 0.03685941 0.01406645
v 0.06334714 0.03768193 0.01224005
v 0.06771881 0.03074181 0.01742091
v 0.06741927 0.02238369 0.02592023
v 0.07032186 0.02225793 0.01513702
v 0.05054626 0.01881661 0.03597589
v 0.06736907 0.03669241 0.00564045
v 0.07005946 0.02913854 0.00981904
v 0.06867944 0.01744777 0.02628308
v 0.05081237 0.04428981 0.00318238
v 0.07025784 0.01933117 0.01722859
v 0.06966899 0.00975895 0.02468815
v 0.06698126 0.01703490 0.02874804
v 0.07144907 0.00289839 0.01413040
v 0.06786691 0.03705614 0.00136113
v 0.06586698 0.03739053 0.00904785
v 0.06777075 0.02796486 0.02091931
v 0.06981531 0.02391384 0.01665534
v 0.06838984 0.02329061 0.02346806
v 0.07032514 0.01667012 0.01810098
v 0.05985415 0.04259082 0.00349730
v 0.06444521 0.03212833 0.01997559
v 0.06963002 0.00728311 0.02545530
v 0.05012735 0.02070271 0.03532902
v 0.05169864 0.03519452 0.02213367
v 0.06210998 0.03912825 0.01004718
v 0.06376901 0.04049608 0.00483947
v 0.07291682 0.01404854 0.00241329
v 0.06386788 0.02701274 0.02506880
v 0.05060293 0.02530027 0.03250459
v 0.06951575 0.02849566 0.01333566
v 0.07054514 0.02286459 0.01331568
v 0.07061680 0.03040469 0.00485025
v 0.06616443 0.02056217 0.02791611
v 0.06850033 0.00625921 0.02994022
v 0.07042594 0.00010946 0.02094515
v 0.06119888 0.02297317 0.02906064
v 0.07062783 0.03211489 0.00069437
v 0.06756414 0.02608611 0.02323743
v 0.06555824 0.00034163 0.03234587
v 0.06430945 0.04102457 0.00004460
v 0.06560758 0.03505230 0.01490993
v 0.07358020 0.00151445 0.00031986
v 0.06941471 0.01432351 0.02442902
v 0.06929620 0.01643397 0.02413260
v 0.06876489 0.01550401 0.02687443
v 0.06647627 0.01669983 0.02919894
v 0.07075304 0.01276746 0.01683845
v 0.06938085 0.02718589 0.01553152
v 0.05037817 0.01158749 0.03815646
v 0.06824678 0.01925889 0.02655204
v 0.06772105 0.03056537 0.01766422
v 0.06546464 0.03655725 0.01220367
v 0.06788205 0.01986237 0.02680882
v 0.05588943 0.01964271 0.03316250
v 0.06306083 0.04198275 0.00018612
v 0.05352311 0.03797108 0.01677979
v 0.05542777 0.03782973 0.01608249
v 0.06080426 0.00223209 0.03445225
v 0.06910036 0.02801062 0.01577812
v 0.07096244 0.00014142 0.01746167
v 0.06543926 0.03420063 0.01644163
v 0.07290706 0.01371215 0.00260260
v 0.06908939 0.01674583 0.02501071
v 0.07341517 0.01041327 0.00023234
v 0.07319665 0.00027256 0.00294840
v 0.05275314 0.03189166 0.02576862
v 0.05709063 0.01957697 0.03263709
v 0.07047236 0.01481445 0.01791534
v 0.06996468 0.02823216 0.01165181
v 0.05233095 0.03685119 0.01928259
v 0.06675870 0.03744921 0.00529958
v 0.07097964 0.01474927 0.01466589
v 0.06790368 0.03638866 0.00357010
v 0.06418096 0.03823472 0.01052645
v 0.07057118 0.02888491 0.00751964
v 0.05330818 0.04474048 0.00043578
v 0.05174933 0.04503735 0.00011631
v 0.07048008 0.03262849 0.00025311
v 0.06228192 0.01205983 0.03261968
v 0.06752412 0.01063765 0.03019044
v 0.06623609 0.03799411 0.00537909
v 0.06523394 0.02908658 0.02270050
v 0.06971404 0.02807808 0.01298927
v 0.05027588 0.02521398 0.03271249
v 0.06710150 0.03691529 0.00600918
v 0.06811189 0.02726953 0.02057583
v 0.06863576 0.02873157 0.01674634
v 0.05101331 0.02878850 0.02962695
v 0.06848828 0.02819558 0.01803636
v 0.06853111 0.03143785 0.01319933
v 0.05149838 0.02859683 0.02956365
v 0.06935536 0.00859772 0.02688544
v 0.07197910 0.02710793 0.00126592
v 0.06756754 0.03745124 0.00115914
v 0.05273654 0.03171662 0.02597430
v 0.07080451 0.01268629 0.01653461
v 0.06916774 0.00139785 0.02890073
v 0.07058272 0.00010105 0.01992640
v 0.07149405 0.02998274 0.00057492
v 0.06941935 0.02080473 0.02102620
v 0.06834254 0.01990436 0.02598300
v 0.06813097 0.00029146 0.03077739
v 0.06858783 0.01182051 0.02875727
v 0.06964493 0.02786624 0.01354876
v 0.05528025 0.03708039 0.01744919
v 0.06703205 0.01871780 0.02818484
v 0.06966061 0.00981373 0.02472781
v 0.06779350 0.03259954 0.01388598
v 0.06528654 0.02774619 0.02379305
v 0.05333493 0.03726872 0.01810904
v 0.06416602 0.03970271 0.00634271
v 0.07079532 0.02492718 0.01036421
v 0.06742122 0.03768609 0.00079040
v 0.06710033 0.02403429 0.02517513
v 0.05027253 0.02495115 0.03288294
v 0.06908956 0.01755216 0.02462856
v 0.06560326 0.03984417 0.00016561
v 0.06856560 0.01546354 0.02743121
v 0.06934631 0.03237979 0.00746359
v 0.06797289 0.01204085 0.02957117
v 0.07225863 0.00017741 0.00904335
v 0.07086758 0.01118909 0.01654225
v 0.06988322 0.02263473 0.01726382
v 0.07029006 0.02147588 0.01582041
v 0.07125570 0.02959194 0.00263824
v 0.05087003 0.03221571 0.02622259
v 0.05035922 0.00320319 0.03922877
v 0.06984841 0.02867190 0.01155538
v 0.07311637 0.00890924 0.00256334
v 0.06724748 0.01128849 0.03029232
v 0.06579368 0.02983952 0.02150801
v 0.06964091 0.02042803 0.02010536
v 0.06664969 0.02919530 0.02136993
v 0.06725078 0.03716705 0.00412734
v 0.06937087 0.00401644 0.02755588
v 0.06738491 0.03383391 0.01299736
v 0.06826263 0.00253156 0.03049273
v 0.06117286 0.04075575 0.00727467
v 0.06955092 0.02177067 0.01969198
v 0.06591161 0.03680315 0.01067461
v 0.06384576 0.02230377 0.02819361
v 0.05853643 0.04347075 0.00181280
v 0.06946040 0.00838609 0.02631361
v 0.07205368 0.00073700 0.01036315
v 0.07181070 0.02894258 0.00021133
v 0.06884463 0.02230746 0.02253824
v 0.05062025 0.03109418 0.02765096
v 0.05858381 0.01223206 0.03428818
v 0.05840608 0.02921848 0.02579298
v 0.06456324 0.00574430 0.03254793
v 0.07089154 0.02035922 0.01258213
v 0.06968593 0.00649452 0.02522920
v 0.06573810 0.03788975 0.00783203
v 0.06733952 0.00698547 0.03089204
v 0.05158292 0.02568776 0.03178459
v 0.06930912 0.03495992 0.00040225
v 0.05700966 0.03771404 0.01549980
v 0.06753362 0.01587927 0.02872157
v 0.06898834 0.00966480 0.02822969
v 0.06526518 0.00157422 0.03242266
v 0.05139707 0.01345550 0.03726056
v 0.06879754 0.02741555 0.01770782
v 0.06955316 0.00174871 0.02658229
v 0.07349289 0.00821490 0.00017896
v 0.06912182 0.03080098 0.01152213
v 0.06962096 0.02544848 0.01639108
v 0.07049597 0.00632796 0.02000456
v 0.05107742 0.03751519 0.01882918
v 0.07331293 0.00897674 0.00127658
v 0.05875765 0.02661354 0.02780106
v 0.06876850 0.01276166 0.02797003
v 0.07098514 0.01487875 0.01457840
v 0.05044392 0.04489832 0.00126317
v 0.06986818 0.02110194 0.01846106
v 0.06649585 0.03572347 0.01170590
v 0.07011838 0.02392849 0.01498470
v 0.06875149 0.02592984 0.01958478
v 0.06553941 0.03185177 0.01951583
v 0.06796793 0.00825691 0.03023598
v 0.05151344 0.00564997 0.03858156
v 0.06882137 0.02588869 0.01935635
v 0.07039460 0.02325295 0.01404637
v 0.05154832 0.04337773 0.00560181
v 0.05151469 0.04506076 0.00014582
v 0.06992734 0.01986527 0.01894466
v 0.05047609 0.04412417 0.00388324
v 0.07166046 0.01843950 0.00868262
v 0.06168144 0.04283453 0.00048684
v 0.06985021 0.00109035 0.02466874
v 0.06376751 0.03896161 0.00925459
v 0.06947378 0.00496047 0.02682895
v 0.06864222 0.02845755 0.01710178
v 0.06796156 0.03370983 0.01085357
v 0.06245230 0.03515853 0.01699592
v 0.06980890 0.00557748 0.02458855
v 0.06435445 0.03140893 0.02082831
v 0.06207529 0.04270718 0.00011373
v 0.07136304 0.02007032 0.00970132
v 0.07054784 0.02871743 0.00785331
v 0.07332849 0.01271273 0.00015388
v 0.06653401 0.02586968 0.02443449
v 0.06674043 0.03502277 0.01269888
v 0.06391755 0.01882285 0.02980329
v 0.06963509 0.02980931 0.01072616
v 0.06330390 0.02281321 0.02818056
v 0.07328464 0.00037254 0.00237081
v 0.06548122 0.03119719 0.02034452
v 0.06932466 0.00345841 0.02787408
v 0.06799190 0.02581022 0.02257861
v 0.06458062 0.03643992 0.01356970
v 0.07134018 0.02639633 0.00582888
v 0.06739022 0.01070008 0.03027984
v 0.07100567 0.02226705 0.01068320
v 0.07005595 0.02195132 0.01684883
v 0.06866218 0.03057650 0.01399951
v 0.06769597 0.03107586 0.01701905
v 0.06989105 0.03398835 0.00036480
v 0.05059003 0.04134942 0.01137897
v 0.07336161 0.00044466 0.00186322
v 0.06782080 0.03417771 0.01028880
v 0.07064747 0.01150720 0.01788191
v 0.06637333 0.03099053 0.01988826
v 0.05497157 0.02713114 0.02914966
v 0.05544074 0.02893403 0.02743098
v 0.06776160 0.01692108 0.02818968
v 0.06840378 0.02105354 0.02516633
v 0.05123932 0.03819130 0.01751068
v 0.06884851 0.03049859 0.01328511
v 0.07045909 0.01217511 0.01891780
v 0.07010688 0.00109170 0.02300150
v 0.07252397 0.00159714 0.00722904
v 0.06935583 0.02221429 0.02040598
v 0.06970862 0.00863399 0.02471178
v 0.06840563 0.02249658 0.02403169
v 0.06578318 0.02391320 0.02631374
v 0.06651184 0.01942729 0.02823624
v 0.06647330 0.03698496 0.00810078
v 0.06973611 0.01501105 0.02257917
v 0.06597752 0.01079286 0.03117415
v 0.06444195 0.04085248 0.00042666
v 0.07135338 0.00710811 0.01430885
v 0.07337750 0.01192426 0.00005575
v 0.07118064 0.00007313 0.01604130
v 0.07211982 0.01325423 0.00784375
v 0.06714110 0.02078513 0.02715520
v 0.06967897 0.00049470 0.02579325
v 0.06622554 0.03305019 0.01722915
v 0.06471140 0.03421892 0.01709794
v 0.07035618 0.00914879 0.02039948
v 0.05935578 0.03709998 0.01539570
v 0.06362830 0.03563962 0.01563530
v 0.06958255 0.02557008 0.01642906
v 0.06489921 0.03368406 0.01765431
v 0.05158384 0.01943538 0.03524249
v 0.05909052 0.04298110 0.00300520
v 0.05640454 0.03724623 0.01662294
v 0.06438258 0.02616786 0.02552010
v 0.05259636 0.04467026 0.00102528
v 0.06731981 0.03074701 0.01867643
v 0.06962274 0.00743276 0.02547659
v 0.06721397 0.02577012 0.02385352
v 0.06917633 0.02804528 0.01540127
v 0.07098208 0.02618445 0.00813668
v 0.06919980 0.02081943 0.02215649
v 0.06575261 0.03567935 0.01352347
v 0.06986559 0.01952321 0.01949404
v 0.05303298 0.01213408 0.03685129
v 0.06441249 0.04038677 0.00292045
v 0.06626679 0.03569733 0.01242585
v 0.06844490 0.01342128 0.02847707
v 0.05362371 0.00465147 0.03765426
v 0.06453230 0.03978119 0.00534206
v 0.06927799 0.02394137 0.01933398
v 0.06404093 0.03392481 0.01785535
v 0.06059078 0.04172168 0.00529446
v 0.06544440 0.03865195 0.00615674
v 0.06901259 0.02287200 0.02135650
v 0.06766909 0.00676669 0.03068725
v 0.06543541 0.03819093 0.00791902
v 0.06905331 0.00065139 0.02917115
v 0.06224882 0.01221462 0.03259378
v 0.07093999 0.01711415 0.01394030
v 0.05153866 0.03588219 0.02124104
v 0.06772108 0.01961419 0.02718192
v 0.06562156 0.02130506 0.02784848
v 0.05946395 0.02951185 0.02503702
v 0.06842766 0.02523296 0.02156000
v 0.06986771 0.00576196 0.02417705
v 0.05036290 0.01475911 0.03732996
v 0.06410936 0.03779326 0.01150865
v 0.06555849 0.00636014 0.03199448
v 0.06605799 0.02243409 0.02706831
v 0.05984573 0.02991171 0.02447936
v 0.06897140 0.01859332 0.02455037
v 0.06657703 0.03183515 0.01845003
v 0.06956443 0.02094061 0.02018138
v 0.06916866 0.02075998 0.02232491
v 0.05906021 0.02653082 0.02772649
v 0.06739650 0.00787627 0.03071745
v 0.06696420 0.00022132 0.03164838
v 0.05479352 0.00014688 0.03732202
v 0.06519570 0.03956148 0.00337175
v 0.05423616 0.04309747 0.00509921
v 0.06836971 0.03656066 0.00017548
v 0.07166927 0.02719729 0.00302615
v 0.06646618 0.00535827 0.03168718
v 0.06631983 0.02391508 0.02589872
v 0.06679679 0.01952927 0.02798700
v 0.06183110 0.04278095 0.00037318
v 0.06836786 0.03068360 0.01499447
v 0.06516831 0.03504383 0.01544879
v 0.07040812 0.01868786 0.01660994
v 0.06621600 0.01329618 0.03041963
v 0.06484368 0.03965494 0.00459413
v 0.06186084 0.04215584 0.00276160
v 0.07350795 0.00038595 0.00091311
v 0.05747863 0.03496358 0.01966819
v 0.06445037 0.02573600 0.02576962
v 0.06709966 0.01180576 0.03028561
v 0.06938774 0.03132669 0.00926434
v 0.06399673 0.02934019 0.02307477
v 0.05064163 0.04246767 0.00848356
v 0.06387624 0.03600100 0.01490736
v 0.05015145 0.03556164 0.02236891
v 0.06261205 0.04131726 0.00441988
v 0.06963444 0.00374581 0.02589001
v 0.05040867 0.03627921 0.02116024
v 0.06467480 0.01173409 0.03158349
v 0.06953855 0.00693520 0.02610622
v 0.06850705 0.03365721 0.00865933
v 0.06814247 0.03619498 0.00285560
v 0.06248731 0.03229812 0.02070621
v 0.06740182 0.01283725 0.02975710
v 0.06609426 0.01302721 0.03055796
v 0.05726667 0.04119871 0.00834390
v 0.06865845 0.01112694 0.02876688
v 0.06943811 0.00304228 0.02721265
v 0.06888209 0.02041175 0.02371927
v 0.06684108 0.03449278 0.01367180
v 0.05082689 0.04354202 0.00546723
v 0.07338290 0.01009370 0.00053074
v 0.06825652 0.00555269 0.03030757
v 0.06767500 0.03267056 0.01422640
v 0.05105302 0.02360432 0.03338384
v 0.06637383 0.02510657 0.02506618
v 0.06947171 0.02880996 0.01305673
v 0.06906156 0.01063844 0.02759736
v 0.07287180 0.00976752 0.00393722
v 0.06841215 0.02938621 0.01668467
v 0.06462377 0.04065669 0.00064278
v 0.05058790 0.02394753 0.03338084
v 0.06860224 0.01892662 0.02573418
v 0.07191774 0.02843412 0.00022067
v 0.05259972 0.03013265 0.02768464
v 0.06561311 0.03163442 0.01973303
v 0.06967844 0.01393978 0.02330346
v 0.06767075 0.00138192 0.03112405
v 0.06730605 0.01317932 0.02971913
v 0.05577896 0.02213091 0.03202071
v 0.05095062 0.00423417 0.03890770
v 0.07166269 0.02923417 0.00069692
v 0.05216784 0.02234485 0.03356742
v 0.05215823 0.04425483 0.00264384
v 0.05048209 0.04474266 0.00181245
v 0.06990973 0.02766151 0.01261147
v 0.06899990 0.03334948 0.00722072
v 0.05970329 0.03209119 0.02225855
v 0.05958545 0.04125267 0.00702015
v 0.06483657 0.00070563 0.03266204
v 0.05003147 0.02334204 0.03399935
v 0.05044020 0.03074395 0.02809082
v 0.06377333 0.04097026 0.00284785
v 0.07002423 0.02168167 0.01722182
v 0.06723950 0.03208654 0.01681592
v 0.06926930 0.02195632 0.02104807
v 0.05110147 0.02002669 0.03520119
v 0.06916021 0.03008420 0.01250525
v 0.07321045 0.01330140 0.00075556
v 0.07004601 0.03099307 0.00668366
v 0.05393107 0.02727670 0.02951754
v 0.06427273 0.03850318 0.00965238
f 247 453 596
f 596 464 322
f 596 453 464
f 407 453 247
f 12 522 320
f 607 604 563
f 644 453 466
f 247 596 137
f 212 12 320
f 466 453 161
f 453 407 161
f 69 604 650
f 320 522 357
f 322 464 357
f 357 522 322
f 289 644 466
f 397 212 320
f 436 497 212
f 125 497 436
f 251 357 214
f 322 522 444
f 604 69 176
f 176 69 651
f 604 176 55
f 103 251 214
f 345 137 596
f 30 115 407
f 137 580 319
f 125 436 286
f 425 12 193
f 12 212 193
f 271 341 591
f 563 604 250
f 250 474 563
f 320 357 477
f 357 251 477
f 156 459 314
f 93 314 377
f 466 161 602
f 161 213 602
f 162 535 648
f 648 615 162
f 535 615 648
f 498 615 535
f 535 213 498
f 498 213 161
f 651 69 209
f 660 69 10
f 10 503 660
f 604 55 304
f 597 55 218
f 474 250 597
f 535 251 146
f 251 103 146
f 401 523 137
f 137 345 401
f 443 233 526
f 329 140 569
f 569 140 441
f 231 30 407
f 115 30 4
f 4 329 115
f 519 329 4
f 30 231 4
f 400 459 156
f 137 319 82
f 435 36 309
f 309 36 10
f 212 397 393
f 397 374 393
f 374 294 393
f 570 332 354
f 559 144 186
f 455 286 62
f 611 436 212
f 611 286 436
f 173 318 413
f 633 12 425
f 12 633 279
f 208 635 502
f 654 496 67
f 224 654 619
f 212 497 358
f 358 193 212
f 405 312 63
f 405 193 312
f 425 641 405
f 604 607 110
f 650 604 110
f 110 498 161
f 490 271 591
f 490 332 570
f 533 341 528
f 341 271 528
f 234 570 281
f 570 305 281
f 119 224 619
f 377 314 68
f 207 93 377
f 12 279 43
f 228 72 215
f 228 43 72
f 522 12 228
f 12 43 228
f 522 628 621
f 377 233 488
f 199 377 488
f 488 415 199
f 427 176 651
f 502 635 487
f 185 371 33
f 16 304 55
f 55 597 16
f 538 644 643
f 644 289 643
f 103 80 643
f 356 80 103
f 356 103 214
f 356 644 538
f 463 602 213
f 65 213 535
f 535 40 65
f 535 146 422
f 422 40 535
f 140 329 547
f 547 329 519
f 184 140 124
f 184 441 140
f 460 231 407
f 460 4 231
f 246 483 160
f 172 580 382
f 382 68 417
f 417 68 314
f 622 314 459
f 622 417 314
f 622 172 382
f 382 417 622
f 79 82 319
f 247 137 581
f 581 82 247
f 137 82 581
f 649 440 338
f 197 319 580
f 197 232 319
f 649 232 197
f 197 440 649
f 519 4 191
f 435 309 71
f 364 309 10
f 10 69 364
f 364 69 650
f 650 395 364
f 537 71 273
f 273 71 309
f 578 220 10
f 537 220 578
f 450 503 10
f 10 220 450
f 20 294 155
f 155 294 374
f 155 374 397
f 155 104 20
f 397 104 155
f 212 393 584
f 584 393 294
f 306 552 90
f 391 552 306
f 60 595 605
f 420 559 186
f 420 455 62
f 125 286 167
f 619 286 482
f 286 455 482
f 20 286 353
f 286 611 353
f 582 361 397
f 397 361 351
f 381 506 330
f 632 506 381
f 63 312 135
f 590 496 282
f 495 370 590
f 590 370 496
f 392 373 491
f 543 174 392
f 392 491 543
f 543 491 112
f 255 174 543
f 543 112 255
f 373 633 114
f 114 491 373
f 112 491 114
f 458 208 533
f 635 208 458
f 527 119 341
f 224 119 527
f 541 318 173
f 173 86 541
f 541 86 318
f 170 86 394
f 193 358 317
f 193 405 379
f 379 405 641
f 88 497 125
f 223 280 234
f 158 280 223
f 474 271 531
f 158 530 200
f 200 280 158
f 615 498 507
f 162 615 507
f 271 490 5
f 5 570 234
f 5 490 570
f 474 597 554
f 554 271 474
f 554 597 218
f 554 528 271
f 234 281 211
f 211 281 305
f 332 490 545
f 545 119 332
f 560 233 377
f 377 68 560
f 560 68 382
f 382 2 560
f 560 2 526
f 526 233 560
f 117 377 199
f 117 207 377
f 522 228 480
f 480 228 108
f 25 181 39
f 509 501 522
f 518 181 25
f 449 444 344
f 344 621 449
f 344 444 522
f 522 621 344
f 109 66 44
f 449 513 409
f 189 513 449
f 449 621 189
f 189 621 628
f 85 23 279
f 85 633 373
f 85 279 633
f 85 373 392
f 392 23 85
f 392 174 262
f 215 72 107
f 72 43 107
f 233 443 83
f 83 488 233
f 415 488 83
f 176 427 406
f 406 427 346
f 406 55 176
f 406 346 55
f 301 487 635
f 635 458 301
f 301 458 533
f 533 528 301
f 301 554 218
f 528 554 301
f 346 427 375
f 427 153 375
f 476 301 153
f 487 301 476
f 33 601 504
f 504 185 33
f 149 185 69
f 371 185 149
f 368 209 69
f 69 185 368
f 270 80 538
f 538 643 270
f 270 643 80
f 116 289 466
f 116 643 289
f 538 80 3
f 3 356 538
f 80 356 3
f 466 602 620
f 602 463 620
f 27 463 213
f 34 146 103
f 34 422 146
f 315 580 137
f 382 580 315
f 315 2 382
f 29 140 244
f 140 547 244
f 244 547 519
f 202 460 430
f 4 460 202
f 202 191 4
f 564 11 170
f 519 614 157
f 124 140 190
f 160 483 190
f 386 516 190
f 190 326 386
f 277 303 285
f 586 172 238
f 580 172 586
f 586 197 580
f 586 202 430
f 238 172 637
f 637 622 238
f 172 622 637
f 459 400 360
f 599 614 519
f 247 82 254
f 82 79 254
f 624 130 631
f 650 624 631
f 631 395 650
f 481 86 173
f 481 394 86
f 624 485 316
f 316 130 624
f 572 89 515
f 625 481 515
f 520 397 320
f 520 630 397
f 320 477 335
f 335 42 320
f 477 42 335
f 120 42 477
f 477 60 120
f 652 630 120
f 630 520 120
f 90 552 120
f 120 552 652
f 548 630 652
f 652 552 548
f 186 144 260
f 144 552 260
f 555 535 162
f 418 555 162
f 99 555 418
f 162 507 418
f 418 305 570
f 570 354 418
f 300 251 535
f 300 595 251
f 535 555 300
f 605 595 127
f 595 300 127
f 595 60 468
f 468 477 251
f 251 595 468
f 332 119 549
f 549 420 332
f 62 286 365
f 365 286 20
f 20 104 365
f 295 420 62
f 559 420 295
f 144 559 52
f 52 556 144
f 361 582 594
f 144 556 594
f 594 552 144
f 594 582 397
f 397 630 594
f 630 548 594
f 594 548 552
f 8 413 318
f 502 413 8
f 8 136 502
f 502 136 575
f 224 527 575
f 163 175 567
f 567 175 298
f 180 381 330
f 330 78 180
f 283 11 318
f 170 11 283
f 318 86 283
f 283 86 170
f 13 135 312
f 399 370 47
f 310 349 408
f 645 174 255
f 446 174 645
f 495 590 148
f 310 408 626
f 508 370 495
f 508 408 657
f 508 626 408
f 1 645 255
f 349 645 1
f 255 112 1
f 1 355 63
f 261 405 63
f 63 355 261
f 425 405 261
f 261 633 425
f 261 355 633
f 633 112 585
f 585 114 633
f 112 114 585
f 133 642 650
f 650 303 133
f 656 94 334
f 656 303 277
f 425 193 121
f 193 379 121
f 121 641 425
f 121 379 641
f 193 88 227
f 193 317 9
f 9 317 358
f 385 530 158
f 607 350 448
f 448 110 607
f 603 531 271
f 603 5 234
f 271 5 603
f 498 110 132
f 132 507 498
f 305 418 337
f 321 545 490
f 119 545 321
f 321 490 591
f 591 341 321
f 341 119 321
f 109 267 14
f 288 180 78
f 632 381 288
f 381 180 288
f 93 207 439
f 207 14 439
f 439 14 17
f 96 628 522
f 522 501 96
f 96 189 628
f 210 658 522
f 522 480 210
f 108 658 210
f 210 480 108
f 501 509 87
f 182 658 108
f 522 658 182
f 387 66 513
f 387 44 66
f 609 540 513
f 123 529 513
f 513 189 123
f 298 506 514
f 514 426 298
f 506 426 514
f 298 426 26
f 26 567 298
f 28 426 506
f 28 655 264
f 553 97 446
f 553 655 97
f 264 655 553
f 577 28 263
f 97 239 297
f 297 239 456
f 41 239 97
f 279 23 311
f 346 647 612
f 218 55 612
f 55 346 612
f 647 301 612
f 612 301 218
f 249 153 427
f 249 476 153
f 651 209 634
f 634 566 601
f 259 481 173
f 259 515 481
f 502 487 411
f 411 413 502
f 601 362 275
f 275 77 601
f 487 476 275
f 275 362 487
f 601 566 429
f 429 504 601
f 463 27 128
f 401 2 340
f 2 315 340
f 523 401 340
f 137 523 378
f 378 315 137
f 139 510 424
f 345 225 424
f 424 225 139
f 469 443 526
f 469 139 443
f 469 510 139
f 29 244 428
f 460 106 551
f 640 460 407
f 640 106 460
f 11 564 75
f 330 506 75
f 506 11 75
f 111 157 561
f 519 157 608
f 608 157 111
f 124 190 256
f 256 190 483
f 326 190 178
f 272 285 246
f 277 285 272
f 272 246 160
f 177 285 303
f 177 329 569
f 115 329 177
f 177 303 650
f 650 110 177
f 177 110 161
f 177 161 407
f 407 115 177
f 558 586 238
f 558 622 459
f 238 622 558
f 191 202 571
f 571 586 191
f 202 586 571
f 400 505 438
f 438 505 386
f 410 599 519
f 519 269 410
f 410 269 492
f 492 360 410
f 410 360 400
f 400 599 410
f 587 481 625
f 394 481 587
f 625 515 587
f 587 515 89
f 421 485 152
f 421 230 485
f 572 515 91
f 91 230 572
f 485 230 91
f 91 316 485
f 605 195 31
f 31 195 306
f 31 306 90
f 90 120 31
f 31 60 605
f 31 120 60
f 391 306 661
f 306 195 661
f 661 552 391
f 99 418 192
f 192 195 605
f 192 127 99
f 605 127 192
f 589 60 477
f 477 468 589
f 589 468 60
f 105 119 619
f 105 549 119
f 619 482 105
f 105 482 455
f 455 420 105
f 420 549 105
f 62 365 517
f 517 365 206
f 414 365 104
f 351 365 414
f 414 104 397
f 397 351 414
f 206 365 142
f 145 351 361
f 145 365 351
f 361 594 145
f 145 594 556
f 433 295 206
f 559 295 433
f 206 142 433
f 619 654 154
f 654 67 154
f 229 46 167
f 229 286 619
f 229 167 286
f 610 46 473
f 167 46 101
f 125 167 101
f 101 646 125
f 610 646 101
f 101 46 610
f 118 296 489
f 489 175 163
f 489 296 318
f 298 175 489
f 489 506 298
f 136 296 129
f 129 296 118
f 136 8 196
f 196 296 136
f 224 575 539
f 539 575 136
f 654 224 539
f 136 129 539
f 539 496 654
f 282 496 539
f 502 575 241
f 241 575 527
f 241 208 502
f 533 208 241
f 241 341 533
f 193 227 143
f 143 227 88
f 143 88 125
f 125 646 143
f 399 13 143
f 143 646 399
f 135 13 659
f 138 370 135
f 135 659 138
f 7 370 399
f 399 646 7
f 188 370 48
f 496 370 188
f 63 408 274
f 274 408 349
f 274 1 63
f 349 1 274
f 363 349 310
f 363 645 349
f 484 287 63
f 135 370 24
f 370 508 445
f 445 24 370
f 495 148 38
f 629 367 38
f 282 629 38
f 151 112 633
f 633 265 151
f 151 265 112
f 355 1 479
f 633 355 479
f 479 265 633
f 479 1 112
f 112 265 479
f 642 133 639
f 639 421 152
f 347 334 160
f 347 656 334
f 534 656 277
f 94 656 534
f 278 9 88
f 278 88 193
f 193 9 278
f 350 385 390
f 390 448 350
f 158 223 201
f 201 448 158
f 531 603 252
f 234 280 252
f 252 603 234
f 437 211 305
f 305 337 437
f 234 211 437
f 437 223 234
f 437 132 223
f 437 337 132
f 336 418 507
f 336 337 418
f 507 132 336
f 132 337 336
f 627 14 267
f 17 14 627
f 372 66 109
f 109 14 372
f 372 14 207
f 207 117 372
f 199 66 372
f 372 117 199
f 398 288 78
f 156 314 169
f 314 93 169
f 402 96 501
f 501 87 402
f 189 96 402
f 348 39 181
f 348 352 39
f 307 352 216
f 342 182 216
f 216 182 108
f 108 307 216
f 39 352 452
f 108 228 452
f 452 307 108
f 452 352 307
f 452 228 215
f 215 39 452
f 181 518 236
f 109 179 236
f 64 546 243
f 574 204 243
f 243 263 574
f 574 263 506
f 574 506 632
f 291 387 513
f 513 66 423
f 423 609 513
f 66 609 423
f 302 609 432
f 540 609 302
f 199 415 240
f 240 66 199
f 240 609 66
f 506 263 618
f 618 28 506
f 263 28 618
f 53 553 446
f 163 567 53
f 567 26 53
f 557 28 264
f 264 553 557
f 426 28 557
f 544 263 243
f 544 577 263
f 655 28 544
f 28 577 544
f 97 655 512
f 512 41 97
f 276 465 404
f 279 311 493
f 215 98 194
f 194 39 215
f 415 83 617
f 83 73 617
f 601 77 573
f 573 634 601
f 537 259 389
f 389 259 362
f 389 226 537
f 308 220 537
f 537 226 308
f 487 362 134
f 134 411 487
f 65 128 583
f 583 128 27
f 213 65 583
f 583 27 213
f 126 100 205
f 245 551 106
f 338 551 245
f 649 338 245
f 572 15 313
f 572 230 565
f 565 15 572
f 160 190 49
f 49 347 160
f 49 190 516
f 516 313 49
f 49 313 15
f 588 516 386
f 333 564 330
f 330 75 333
f 333 75 564
f 187 564 386
f 386 505 187
f 330 564 187
f 359 561 29
f 111 561 359
f 29 428 359
f 593 178 190
f 614 599 593
f 459 58 579
f 579 558 459
f 58 269 579
f 400 438 57
f 292 438 386
f 248 91 515
f 248 259 537
f 515 259 248
f 186 260 131
f 131 420 186
f 131 260 552
f 552 661 131
f 131 661 354
f 131 354 332
f 332 420 131
f 470 418 354
f 470 192 418
f 195 192 470
f 354 661 470
f 470 661 195
f 46 229 500
f 500 473 46
f 51 489 318
f 506 489 51
f 318 11 51
f 51 11 506
f 318 296 166
f 296 196 166
f 166 8 318
f 166 196 8
f 282 539 331
f 331 539 129
f 331 129 118
f 331 629 282
f 203 13 312
f 203 143 13
f 312 193 203
f 193 143 203
f 600 47 370
f 370 138 600
f 388 188 48
f 164 408 63
f 63 287 164
f 446 645 532
f 645 328 532
f 532 53 446
f 461 328 339
f 461 532 328
f 53 532 461
f 461 457 163
f 163 53 461
f 310 339 542
f 542 363 310
f 384 328 645
f 645 363 384
f 84 508 657
f 84 445 508
f 63 445 84
f 84 484 63
f 366 457 118
f 163 457 366
f 366 489 163
f 118 489 366
f 495 38 92
f 92 339 310
f 92 38 339
f 198 639 152
f 642 639 198
f 536 385 158
f 536 390 385
f 110 448 268
f 448 201 268
f 550 398 35
f 35 398 78
f 342 327 376
f 376 327 179
f 636 236 518
f 636 267 109
f 109 236 636
f 323 627 267
f 323 343 627
f 81 56 17
f 17 627 81
f 81 343 204
f 627 343 81
f 451 439 17
f 17 56 451
f 451 56 398
f 243 204 396
f 396 64 243
f 204 64 396
f 217 324 518
f 217 64 204
f 204 324 217
f 632 288 219
f 219 574 632
f 513 529 159
f 159 291 513
f 454 465 276
f 276 141 454
f 380 576 655
f 655 544 380
f 380 544 243
f 276 494 653
f 419 512 655
f 419 141 276
f 576 141 419
f 655 576 419
f 32 404 95
f 465 290 95
f 95 404 465
f 276 404 284
f 237 493 311
f 279 493 237
f 25 299 59
f 59 70 546
f 465 70 59
f 546 64 59
f 64 217 59
f 59 518 25
f 59 217 518
f 122 299 25
f 25 39 122
f 39 194 122
f 122 194 98
f 50 290 592
f 651 634 266
f 634 573 266
f 76 362 601
f 222 134 362
f 173 413 222
f 293 100 126
f 475 205 100
f 475 568 432
f 432 609 475
f 596 499 486
f 486 345 596
f 486 225 345
f 205 475 471
f 471 240 415
f 609 240 471
f 471 475 609
f 386 564 525
f 525 588 386
f 525 564 170
f 170 89 525
f 516 588 525
f 525 89 572
f 525 313 516
f 171 78 330
f 330 187 171
f 253 113 550
f 400 113 253
f 21 505 400
f 21 187 505
f 400 253 21
f 21 171 187
f 550 171 21
f 21 253 550
f 19 593 599
f 178 593 19
f 438 292 19
f 183 579 269
f 183 269 519
f 519 191 183
f 191 586 183
f 537 273 598
f 598 248 537
f 257 473 416
f 610 473 257
f 188 388 623
f 623 154 67
f 623 165 154
f 416 165 623
f 388 257 623
f 623 257 416
f 339 235 442
f 442 461 339
f 118 369 472
f 472 331 118
f 339 38 472
f 472 38 367
f 472 369 235
f 472 235 339
f 37 509 522
f 522 376 37
f 37 87 509
f 37 376 179
f 109 87 37
f 37 179 109
f 522 182 524
f 524 376 522
f 524 182 342
f 342 376 524
f 204 343 6
f 6 324 204
f 325 81 288
f 56 81 325
f 288 398 325
f 398 56 325
f 550 113 383
f 383 398 550
f 383 451 398
f 383 400 156
f 383 113 400
f 61 81 204
f 204 574 61
f 574 219 61
f 61 219 288
f 576 380 412
f 243 546 412
f 412 380 243
f 41 653 403
f 403 653 494
f 41 512 242
f 242 653 41
f 168 404 32
f 32 478 168
f 462 23 392
f 462 311 23
f 462 262 456
f 392 262 462
f 456 239 462
f 462 494 276
f 276 284 462
f 22 107 43
f 22 43 279
f 279 237 22
f 592 290 54
f 54 290 465
f 465 59 54
f 102 122 98
f 592 467 221
f 221 50 592
f 221 467 98
f 258 389 362
f 362 76 258
f 74 222 413
f 134 222 74
f 100 293 511
f 511 293 499
f 511 499 596
f 521 475 449
f 449 409 521
f 150 471 73
f 150 83 443
f 150 73 83
f 613 19 599
f 613 599 400
f 400 57 613
f 586 558 434
f 434 183 586
f 156 169 616
f 616 383 156
f 616 169 93
f 93 439 616
f 439 451 616
f 451 383 616
f 311 462 45
f 45 462 284
f 299 122 562
f 122 102 562
f 107 478 18
f 568 475 447
f 475 521 447
f 205 471 606
f 471 150 606
f 438 19 638
f 19 613 638
f 215 107 147
f 107 18 147
f 147 98 215
f 147 221 98
f 431 478 32
f 431 18 478
f 604 304 16
f 16 250 604
f 16 597 250
f 453 644 356
f 464 453 356
f 356 357 464
f 214 357 356
f 10 36 578
f 435 71 578
f 578 36 435
f 578 71 537
f 212 584 353
f 353 294 20
f 353 611 212
f 353 584 294
f 375 647 346
f 153 301 375
f 375 301 647
f 459 360 269
f 269 58 459
f 269 360 492
f 120 520 320
f 320 42 120
f 127 300 555
f 127 555 99
f 497 88 9
f 9 358 497
f 297 174 446
f 446 97 297
f 297 262 174
f 456 262 297
f 429 634 209
f 209 368 429
f 185 504 429
f 566 634 429
f 429 368 185
f 128 65 40
f 466 620 128
f 103 643 128
f 128 116 466
f 128 34 103
f 40 422 128
f 643 116 128
f 128 620 463
f 422 34 128
f 378 340 315
f 523 340 378
f 469 401 345
f 526 2 469
f 469 2 401
f 345 424 469
f 469 424 510
f 430 460 551
f 551 586 430
f 197 586 551
f 551 338 440
f 440 197 551
f 569 441 177
f 124 256 177
f 177 184 124
f 441 184 177
f 483 246 177
f 246 285 177
f 177 256 483
f 587 89 170
f 170 394 587
f 206 295 517
f 517 295 62
f 433 145 556
f 433 52 559
f 556 52 433
f 433 142 365
f 365 145 433
f 241 527 341
f 63 135 445
f 135 24 445
f 38 590 282
f 38 148 590
f 160 334 534
f 534 272 160
f 334 94 534
f 277 272 534
f 563 474 252
f 252 607 563
f 252 350 607
f 474 531 252
f 252 200 530
f 530 385 252
f 280 200 252
f 252 385 350
f 342 216 236
f 236 327 342
f 236 348 181
f 352 348 236
f 236 216 352
f 179 327 236
f 557 53 26
f 557 26 426
f 553 53 557
f 245 232 649
f 245 407 247
f 245 640 407
f 245 79 319
f 319 232 245
f 247 254 245
f 245 254 79
f 106 640 245
f 303 656 49
f 49 565 230
f 49 133 303
f 49 639 133
f 230 421 49
f 421 639 49
f 656 347 49
f 15 565 49
f 519 608 359
f 359 244 519
f 359 428 244
f 359 608 111
f 593 157 614
f 593 140 29
f 593 190 140
f 29 561 593
f 593 561 157
f 416 473 500
f 619 154 500
f 500 229 619
f 500 165 416
f 154 165 500
f 600 13 399
f 600 659 13
f 399 47 600
f 600 138 659
f 384 542 339
f 339 328 384
f 363 542 384
f 408 164 84
f 657 408 84
f 287 484 84
f 84 164 287
f 310 626 92
f 92 508 495
f 626 508 92
f 152 485 198
f 650 642 198
f 198 624 650
f 198 485 624
f 448 390 536
f 158 448 536
f 223 132 268
f 268 132 110
f 268 201 223
f 159 87 109
f 109 44 159
f 189 402 159
f 529 123 159
f 44 387 159
f 159 123 189
f 159 402 87
f 387 291 159
f 266 427 651
f 266 275 476
f 77 275 266
f 266 249 427
f 476 249 266
f 266 573 77
f 362 259 222
f 222 259 173
f 415 617 471
f 471 617 73
f 572 313 525
f 171 35 78
f 550 35 171
f 326 178 19
f 386 326 19
f 19 292 386
f 598 364 395
f 598 273 309
f 130 316 598
f 395 631 598
f 309 364 598
f 598 631 130
f 316 91 598
f 91 248 598
f 48 370 257
f 257 646 610
f 370 7 257
f 257 7 646
f 257 388 48
f 496 188 623
f 623 67 496
f 457 461 442
f 118 457 442
f 442 369 118
f 235 369 442
f 629 331 472
f 472 367 629
f 267 636 6
f 518 324 6
f 6 636 518
f 6 323 267
f 343 323 6
f 288 81 61
f 546 70 412
f 465 454 412
f 412 70 465
f 412 141 576
f 412 454 141
f 242 419 276
f 276 653 242
f 512 419 242
f 239 41 462
f 41 403 462
f 462 403 494
f 69 660 258
f 258 601 33
f 258 660 503
f 503 450 258
f 258 149 69
f 33 371 258
f 258 450 220
f 371 149 258
f 220 308 258
f 226 389 258
f 258 308 226
f 258 76 601
f 411 134 74
f 413 411 74
f 511 596 322
f 322 444 511
f 511 475 100
f 511 444 449
f 449 475 511
f 579 183 434
f 558 579 434
f 45 168 478
f 107 22 45
f 45 478 107
f 45 284 404
f 45 237 311
f 404 168 45
f 45 22 237
f 592 54 562
f 562 467 592
f 98 467 562
f 562 59 299
f 562 54 59
f 562 102 98
f 432 568 447
f 513 540 447
f 447 409 513
f 447 302 432
f 540 302 447
f 447 521 409
f 139 225 606
f 443 139 606
f 606 293 126
f 225 486 606
f 126 205 606
f 499 293 606
f 606 486 499
f 606 150 443
f 638 613 57
f 638 57 438
f 290 50 431
f 32 95 431
f 431 95 290
f 50 221 431
f 221 147 431
f 431 147 18

