# https://github.com/mikedh/trimesh
v -0.10025847 -0.01752224 -0.17194468
v -0.12076487 -0.01191648 -0.19922488
v -0.12596702 -0.00660431 -0.16660249
v -0.11759224 -0.01222103 -0.15011424
v -0.12071729 -0.00323278 -0.15294653
v -0.12162188 -0.01004082 -0.19897637
v -0.12327598 -0.00850186 -0.19588662
v -0.12150413 -0.01489480 -0.16287504
v -0.11478425 -0.01606973 -0.15236829
v -0.11892459 -0.01200517 -0.15210434
v -0.12501907 -0.00567521 -0.16282595
v -0.12412090 -0.01177803 -0.16334966
v -0.12357173 -0.00593630 -0.19557444
v -0.11905903 -0.01445057 -0.15599252
v -0.12712826 -0.00591720 -0.17671391
v -0.12428724 -0.01438217 -0.17442566
v -0.10321090 -0.01752223 -0.18231746
v -0.12428259 -0.01321754 -0.16813584
v -0.11516664 -0.01670831 -0.19932291
v -0.11583435 -0.01678391 -0.15728551
v -0.12606918 -0.01196571 -0.17414889
v -0.12248661 -0.01550748 -0.18454476
v -0.10017914 -0.01752224 -0.17012572
v -0.11971647 -0.00995212 -0.15198254
v -0.11601049 -0.01616044 -0.19986863
v -0.12715240 -0.00008341 -0.17993449
v -0.12017060 -0.01658736 -0.16615077
v -0.11912273 -0.00363321 -0.15011755
v -0.12047331 -0.01442303 -0.19561266
v -0.12567475 -0.00292108 -0.18978302
v -0.12680295 -0.00518038 -0.17109059
v -0.11760941 -0.01665411 -0.15941465
v -0.10099839 -0.01752224 -0.17041534
v -0.12095689 -0.00638852 -0.15348884
v -0.12684896 -0.00456054 -0.17134288
v -0.11350151 -0.01683143 -0.19950370
v -0.11763483 -0.01642330 -0.15820946
v -0.12011416 -0.00390731 -0.15188048
v -0.12278351 -0.00758122 -0.15697738
v -0.12711889 -0.00620535 -0.17427687
v -0.12358222 -0.01488568 -0.17196748
v -0.12451862 -0.01404733 -0.17966341
v -0.12683289 -0.00818565 -0.18237471
v -0.10365574 -0.01681863 -0.15007869
v -0.11704093 -0.01550434 -0.19964909
v -0.12200553 -0.01521378 -0.18896033
v -0.12714640 -0.00119217 -0.18031597
v -0.11897567 -0.01669875 -0.19101297
v -0.12292497 -0.00124108 -0.19742528
v -0.12552930 -0.00975861 -0.18849247
v -0.12689264 -0.00946466 -0.17381064
v -0.11993514 -0.01557542 -0.16094443
v -0.12662597 -0.00968218 -0.18256918
v -0.12314213 -0.01534359 -0.18185980
v -0.12261463 -0.01109941 -0.15850421
v -0.12653991 -0.00976852 -0.17170527
v -0.12394319 -0.01480062 -0.17402140
v -0.11668590 -0.01606157 -0.15549645
v -0.12159134 -0.01598153 -0.16803200
v -0.12352498 -0.00921113 -0.15935980
v -0.12132588 -0.01282545 -0.19680228
v -0.12280884 -0.00607475 -0.19761758
v -0.11130996 -0.01679804 -0.15057495
v -0.12064013 -0.01577517 -0.19088184
v -0.12331403 -0.01436475 -0.18671337
v -0.12690475 -0.00911167 -0.17947883
v -0.11805026 -0.01678825 -0.16191951
v -0.12029419 -0.00704752 -0.15240018
v -0.12706401 -0.00688540 -0.17668350
v -0.12085462 -0.01676418 -0.18054123
v -0.11945679 -0.01216395 -0.15315360
v -0.12075643 -0.01525616 -0.16208474
v -0.11860950 -0.01591833 -0.15874138
v -0.12484589 -0.00953782 -0.19132866
v -0.12346009 -0.01371629 -0.18866722
v -0.12587589 -0.00495908 -0.16570245
v -0.12515942 -0.01239199 -0.18493265
v -0.12387069 -0.01458680 -0.18269929
v -0.12334694 -0.01225366 -0.16186947
v -0.12674306 -0.00095513 -0.17064145
v -0.12065695 -0.01340397 -0.15719109
v -0.11326494 -0.01659050 -0.15170673
v -0.12668511 -0.01001300 -0.17302142
v -0.11896864 -0.00929178 -0.15042228
v -0.12568003 -0.00823986 -0.16557725
v -0.12120410 -0.01651383 -0.17017345
v -0.12449587 -0.01264792 -0.16682564
v -0.12159371 -0.00916495 -0.19947849
v -0.11591538 -0.00000910 -0.19075948
v -0.10282000 -0.01752223 -0.18394199
v -0.12172094 -0.01650936 -0.17408414
v -0.10017138 -0.01752224 -0.18710235
v -0.12601934 -0.00951712 -0.18622845
v -0.12269080 -0.00068368 -0.15643247
v -0.12490684 -0.01236333 -0.16793741
v -0.11944028 -0.01632331 -0.16232328
v -0.11956322 -0.01651594 -0.16349697
v -0.12196976 -0.00450893 -0.19929674
v -0.12343297 -0.01509199 -0.18212128
v -0.12147852 -0.01375689 -0.19435295
v -0.12545316 -0.00603825 -0.16409976
v -0.11907959 -0.00658587 -0.15019533
v -0.12313124 -0.01395360 -0.16508060
v -0.12177956 -0.01101780 -0.19807094
v -0.12267387 -0.01485610 -0.16647649
v -0.10078425 -0.01752224 -0.18901869
v -0.12583403 -0.01232073 -0.17877162
v -0.12714373 -0.00512287 -0.17699742
v -0.12395839 -0.00957526 -0.16075967
v -0.10461950 -0.01682236 -0.15005322
v -0.12381641 -0.00701011 -0.15973813
v -0.12258089 -0.01515097 -0.18640011
v -0.12098351 -0.01590903 -0.18927814
v -0.12096481 -0.01654491 -0.18541335
v -0.12559698 -0.01199235 -0.17053761
v -0.12692232 -0.00922354 -0.17324835
v -0.12325467 -0.01476164 -0.16913305
v -0.12480127 -0.01344408 -0.18243070
v -0.12353521 -0.00954556 -0.15955460
v -0.12570465 -0.01251713 -0.17424769
v -0.12137261 -0.01443650 -0.16128021
v -0.12264965 -0.01458275 -0.16515361
v -0.12042604 -0.01163126 -0.15444469
v -0.10324070 -0.01679220 -0.19970270
v -0.12491949 -0.00667910 -0.16274125
v -0.12502821 -0.01012124 -0.19028184
v -0.12309915 -0.00557604 -0.19690711
v -0.12570654 -0.00045972 -0.18966078
v -0.12708935 -0.00623559 -0.18113224
v -0.12523149 -0.00910818 -0.19046579
v -0.12479993 -0.01225422 -0.18750101
v -0.11975714 -0.01010573 -0.15216006
v -0.12016470 -0.01679834 -0.16941349
v -0.11639879 -0.01679373 -0.15843706
v -0.12222848 -0.01467568 -0.19031708
v -0.11939709 -0.01686915 -0.17015258
v -0.11789853 -0.01646419 -0.15890264
v -0.12578636 -0.00566077 -0.18910444
v -0.11826590 -0.01515699 -0.19837434
v -0.12088700 -0.00006651 -0.15322449
v -0.11938335 -0.00015016 -0.15055392
v -0.12713255 -0.00078905 -0.18175049
v -0.11706989 -0.01647900 -0.19702262
v -0.12161930 -0.01633364 -0.17102303
v -0.11563523 -0.01441527 -0.15042062
v -0.12410293 -0.01054853 -0.16210622
v -0.12567992 -0.00128822 -0.16461252
v -0.12677824 -0.00972376 -0.18084962
v -0.12320325 -0.01472719 -0.16862514
v -0.12193564 -0.01643549 -0.17564680
v -0.12056024 -0.01603432 -0.16430396
v -0.11472310 -0.01683137 -0.19848364
v -0.11944284 -0.01686209 -0.18439428
v -0.10011907 -0.01680428 -0.15153850
v -0.12100714 -0.01620641 -0.18766467
v -0.12715253 -0.00007539 -0.17991115
v -0.12387304 -0.01323406 -0.16583335
v -0.12035800 -0.01420681 -0.15794842
v -0.12104811 -0.01677555 -0.17590288
v -0.12353322 -0.01510254 -0.18085527
v -0.11728620 -0.01359970 -0.15152159
v -0.11178526 -0.00006776 -0.19873988
v -0.11773870 -0.01505866 -0.15484886
v -0.12499047 -0.00402882 -0.19179071
v -0.12114279 -0.01407448 -0.19456569
v -0.10002965 -0.01678256 -0.19423473
v -0.12599613 -0.00524485 -0.16640749
v -0.12685505 -0.00954548 -0.17646585
v -0.12564783 -0.01108723 -0.16908030
v -0.12188697 -0.01244721 -0.19611312
v -0.11625787 -0.01573959 -0.15394981
v -0.11874439 -0.01566840 -0.15826787
v -0.12104606 -0.01626761 -0.18716872
v -0.12211526 -0.01044002 -0.19787049
v -0.11874403 -0.01645731 -0.16101273
v -0.12104799 -0.01095172 -0.19936721
v -0.12198212 -0.00553608 -0.19926887
v -0.12478695 -0.01368539 -0.18117094
v -0.11642932 -0.01642605 -0.15601985
v -0.11679468 -0.01642921 -0.15663315
v -0.12304011 -0.01489508 -0.18557926
v -0.12351269 -0.01206709 -0.19254301
v -0.11111628 -0.01480329 -0.19990024
v -0.11900499 -0.01458023 -0.19835461
v -0.11778880 -0.01188031 -0.15015624
v -0.12149972 -0.01220446 -0.15683099
v -0.10829729 -0.00008807 -0.15074922
v -0.12108286 -0.01328687 -0.15789910
v -0.12363102 -0.00243804 -0.15892102
v -0.11970870 -0.01660656 -0.16487330
v -0.12712903 -0.00485597 -0.18096108
v -0.12042376 -0.01667480 -0.16790827
v -0.12357894 -0.00037193 -0.19565967
v -0.12482531 -0.00965449 -0.16324623
v -0.10945664 -0.00000381 -0.15217505
v -0.11574684 -0.01538590 -0.15218323
v -0.12190074 -0.01470951 -0.19112875
v -0.11773461 -0.01685174 -0.19190726
v -0.12261865 -0.01233686 -0.16003391
v -0.12471552 -0.00664284 -0.19233655
v -0.11849537 -0.01649405 -0.19381572
v -0.12451467 -0.00929110 -0.19237546
v -0.11630214 -0.01686280 -0.15930813
v -0.12642914 -0.00030193 -0.18565952
v -0.12578109 -0.01237741 -0.18102657
v -0.12470857 -0.00897983 -0.16260643
v -0.12052218 -0.01681159 -0.17338320
v -0.12663553 -0.00877873 -0.18324654
v -0.12572218 -0.00927803 -0.18811973
v -0.12079389 -0.01127016 -0.15481976
v -0.12647256 -0.01072591 -0.17514134
v -0.11882486 -0.01662972 -0.19221815
v -0.12263418 -0.01122588 -0.19572002
v -0.12374259 -0.01494441 -0.17842679
v -0.12704257 -0.00679108 -0.18173395
v -0.12568064 -0.00575240 -0.18966662
v -0.11940395 -0.01549860 -0.15930092
v -0.12592318 -0.01204568 -0.18209231
v -0.12201700 -0.01635002 -0.17717448
v -0.12388532 -0.00555107 -0.15967032
v -0.12109076 -0.01668324 -0.17332418
v -0.12343094 -0.00086209 -0.15834394
v -0.11653588 -0.01622894 -0.19876670
v -0.12013707 -0.01348642 -0.19806227
v -0.12034378 -0.01091503 -0.15376705
v -0.11903376 -0.01287240 -0.15341391
v -0.12246986 -0.00734167 -0.19821326
v -0.12291591 -0.00527035 -0.15696979
v -0.11449613 -0.01514912 -0.15007049
v -0.11862824 -0.01633272 -0.16026126
v -0.10379081 -0.01752224 -0.17561504
v -0.11680060 -0.01678951 -0.19502621
v -0.12248327 -0.00073415 -0.15606396
v -0.10950523 -0.01684044 -0.15077010
v -0.12565488 -0.00467116 -0.16458272
v -0.12654097 -0.00910368 -0.17091450
v -0.11721324 -0.01686532 -0.16125987
v -0.11473423 -0.01581672 -0.15174906
v -0.12637330 -0.01099051 -0.17810148
v -0.12503036 -0.01098935 -0.16530656
v -0.12713961 -0.00268331 -0.18050875
v -0.12128546 -0.01661963 -0.18119758
v -0.11839907 -0.01579633 -0.19649816
v -0.12557346 -0.01229275 -0.17148975
v -0.12472673 -0.00532261 -0.19249287
v -0.12317284 -0.00658249 -0.15786412
v -0.12273991 -0.00300867 -0.15654046
v -0.11503411 -0.01659218 -0.15458519
v -0.11984365 -0.01686558 -0.18062781
v -0.12462238 -0.00332527 -0.16169126
v -0.12244785 -0.00956028 -0.19780333
v -0.12012487 -0.00958754 -0.15249876
v -0.12328489 -0.00309673 -0.15796699
v -0.11686992 -0.01633832 -0.19787825
v -0.11958639 -0.01623141 -0.19209828
v -0.12552826 -0.00980737 -0.16590815
v -0.12173074 -0.01649801 -0.18031910
v -0.12072173 -0.01157680 -0.19951969
v -0.12158338 -0.00623193 -0.15458118
v -0.12306183 -0.01360947 -0.19039664
v -0.11951224 -0.01647663 -0.16310679
v -0.12148347 -0.01559597 -0.18902392
v -0.12687663 -0.00249857 -0.17145405
v -0.12276596 -0.00950180 -0.15737397
v -0.12716295 -0.00119686 -0.17615685
v -0.11991663 -0.01686675 -0.17886944
v -0.12283285 -0.00918120 -0.19695894
v -0.12179434 -0.01484751 -0.16351192
v -0.12147046 -0.00189501 -0.15427400
v -0.12269274 -0.01563563 -0.17246069
v -0.11945176 -0.01417259 -0.15621710
v -0.12209494 -0.00014577 -0.19911014
v -0.11737088 -0.01534352 -0.15490395
v -0.12180513 -0.01571122 -0.18693465
v -0.12296584 -0.00495603 -0.15710446
v -0.12520216 -0.01167627 -0.16763383
v -0.11934568 -0.00568366 -0.15052980
v -0.11020800 -0.01681896 -0.19986612
v -0.10740915 -0.00292262 -0.15011013
v -0.12712838 -0.00443038 -0.18155724
v -0.12325273 -0.00009253 -0.19654786
v -0.12693915 -0.00801164 -0.17279830
v -0.11992692 -0.01460928 -0.19668189
v -0.12093782 -0.01636342 -0.18709281
v -0.12426418 -0.01440346 -0.17599697
v -0.11870624 -0.01261261 -0.15241183
v -0.12013202 -0.01472844 -0.19585101
v -0.12243516 -0.00541312 -0.19849215
v -0.12565962 -0.00917891 -0.16582685
v -0.12709907 -0.00643864 -0.17534847
v -0.12704781 -0.00703648 -0.17304697
v -0.10000251 -0.01679839 -0.16238918
v -0.11466648 -0.01682293 -0.15572414
v -0.11880022 -0.01480622 -0.19828526
v -0.12278102 -0.00673636 -0.15680453
v -0.12474429 -0.00196374 -0.19248045
v -0.11272821 -0.01685211 -0.15308771
v -0.12505941 -0.00704946 -0.19132596
v -0.12334580 -0.01338607 -0.16440434
v -0.12397132 -0.01433488 -0.17132715
v -0.12152549 -0.01651945 -0.18198533
v -0.12123599 -0.00553305 -0.15388915
v -0.12369886 -0.01458227 -0.17085267
v -0.12263520 -0.00341628 -0.15635793
v -0.10021744 -0.01678153 -0.19774565
v -0.12702177 -0.00493408 -0.18227360
v -0.10754872 -0.00737894 -0.15004923
v -0.12713888 -0.00589173 -0.17449185
v -0.11850440 -0.01608762 -0.15907134
v -0.12515334 -0.01231581 -0.16915522
v -0.12581379 -0.01010574 -0.16814330
v -0.12710287 -0.00352150 -0.18185511
v -0.11817255 -0.01539766 -0.19796529
v -0.11659442 -0.01410210 -0.15121028
v -0.11877951 -0.01065293 -0.15083115
v -0.12426373 -0.00620722 -0.19364540
v -0.11803312 -0.01674892 -0.16103110
v -0.12186472 -0.01023493 -0.19843413
v -0.12662209 -0.00062921 -0.16993121
v -0.12138015 -0.01560725 -0.18930733
v -0.12587127 -0.00054208 -0.16556961
v -0.11895811 -0.00683113 -0.15002023
v -0.12029591 -0.01681414 -0.18313970
v -0.11549019 -0.01679104 -0.19757314
v -0.11973361 -0.01621765 -0.16270499
v -0.12079034 -0.01312814 -0.19748375
v -0.11853926 -0.01681173 -0.16396540
v -0.12161379 -0.01559150 -0.16586045
v -0.11668174 -0.01683637 -0.19457080
v -0.12244855 -0.01189526 -0.15881514
v -0.12618545 -0.01125353 -0.17252301
v -0.11774952 -0.01251200 -0.15056919
v -0.12626127 -0.00949864 -0.16956529
v -0.12336503 -0.01210534 -0.19286650
v -0.11890604 -0.01543216 -0.19652568
v -0.12573330 -0.00043162 -0.18951305
v -0.11600663 -0.01643900 -0.19914100
v -0.11102075 -0.00249682 -0.19984142
v -0.12642136 -0.00053994 -0.16876361
v -0.11946180 -0.00455279 -0.15072686
v -0.12132148 -0.01587295 -0.18818708
v -0.12198983 -0.00913785 -0.15570362
v -0.11729747 -0.01466435 -0.15328908
v -0.12004137 -0.01561174 -0.16136438
v -0.12117684 -0.01622801 -0.16755938
v -0.12586161 -0.01229933 -0.17618442
v -0.12122314 -0.00577598 -0.15387927
v -0.10242597 -0.01752223 -0.18548051
v -0.12044064 -0.01100443 -0.15400237
v -0.12495480 -0.00001244 -0.16257797
v -0.12259009 -0.00055308 -0.19825773
v -0.11607575 -0.01672241 -0.19741177
v -0.12290782 -0.00886643 -0.15757552
v -0.12661923 -0.01025219 -0.17731686
v -0.12340340 -0.01450433 -0.18562668
v -0.12488236 -0.00672413 -0.19186841
v -0.12529532 -0.01246250 -0.17063511
v -0.11714514 -0.01432984 -0.15247575
v -0.11935938 -0.01419438 -0.19832834
v -0.11836190 -0.01314652 -0.15264275
v -0.11818162 -0.01677309 -0.19248708
v -0.12716458 -0.00346795 -0.17344111
v -0.11988027 -0.01679973 -0.18601315
v -0.11296752 -0.01678200 -0.15241381
v -0.12562671 -0.00670545 -0.18960940
v -0.10007273 -0.01752224 -0.16470839
v -0.12715684 -0.00010064 -0.17880187
v -0.11966558 -0.01497012 -0.19621823
v -0.11296835 -0.01633278 -0.15059991
v -0.12477619 -0.01067584 -0.19043891
v -0.12183143 -0.01056634 -0.15621402
v -0.11576376 -0.01646727 -0.15511733
v -0.11901981 -0.01456152 -0.19835738
v -0.11829633 -0.01686759 -0.16495983
v -0.12020783 -0.01682796 -0.18308234
v -0.10743396 -0.00139398 -0.15012857
v -0.12298610 -0.00937887 -0.19650545
v -0.11739061 -0.01659939 -0.15868126
v -0.12167545 -0.01021056 -0.15569140
v -0.12601823 -0.01202986 -0.18134084
v -0.12046649 -0.01676232 -0.18489572
v -0.12245828 -0.00405927 -0.15604911
v -0.12438435 -0.00807441 -0.16152683
v -0.12583786 -0.00725983 -0.16610949
v -0.11506741 -0.01676164 -0.15559761
v -0.12716741 -0.00262921 -0.17358262
v -0.12625665 -0.01140149 -0.17366342
v -0.12716552 -0.00184726 -0.17484950
v -0.12267946 -0.00908635 -0.19739319
v -0.12700112 -0.00589764 -0.17232949
v -0.10131096 -0.01678499 -0.19924610
v -0.12128397 -0.01666342 -0.17452393
v -0.12109517 -0.01630355 -0.16763591
v -0.12023156 -0.01682966 -0.18267125
v -0.12512009 -0.01324682 -0.18116621
v -0.11380347 -0.01683542 -0.15434482
v -0.12493651 -0.01119091 -0.18912638
v -0.11728306 -0.01672936 -0.19495115
v -0.11454233 -0.01632978 -0.15264427
v -0.10748030 -0.01624580 -0.15003437
v -0.12214387 -0.01599557 -0.18298586
v -0.11563801 -0.01467272 -0.15076200
v -0.12116520 -0.00991909 -0.19983789
v -0.12697814 -0.00837129 -0.17346051
v -0.11699726 -0.01592529 -0.19872083
v -0.11285537 -0.01642700 -0.15065370
v -0.12154532 -0.00782366 -0.15472873
v -0.11833750 -0.01114297 -0.15042875
v -0.12186922 -0.01375034 -0.19331147
v -0.12381865 -0.01146167 -0.16220245
v -0.11828008 -0.01679466 -0.19163385
v -0.11997703 -0.01686967 -0.17364798
f 195 162 89
f 195 89 350
f 376 154 292
f 292 166 376
f 162 391 338
f 338 272 162
f 391 124 338
f 338 124 183
f 305 391 162
f 305 376 166
f 140 141 195
f 195 350 140
f 162 272 281
f 281 89 162
f 195 141 187
f 141 376 187
f 187 162 195
f 187 305 162
f 376 305 187
f 94 140 350
f 156 350 89
f 89 281 156
f 28 376 141
f 28 322 376
f 229 322 4
f 376 322 307
f 400 322 229
f 400 307 322
f 183 124 278
f 278 25 183
f 403 338 183
f 183 25 403
f 272 338 403
f 141 140 233
f 140 94 233
f 233 28 141
f 185 322 84
f 185 4 322
f 322 28 277
f 68 277 407
f 376 307 279
f 19 25 36
f 25 278 36
f 106 278 124
f 106 36 278
f 106 124 391
f 391 305 106
f 362 308 291
f 222 94 350
f 28 233 269
f 350 156 367
f 156 241 367
f 321 147 350
f 386 362 80
f 80 362 263
f 80 388 386
f 319 367 80
f 407 277 34
f 347 382 295
f 347 34 277
f 322 277 102
f 277 68 102
f 194 60 206
f 206 289 194
f 342 68 407
f 186 264 330
f 109 60 194
f 60 264 353
f 255 243 201
f 402 196 229
f 188 158 186
f 258 403 25
f 351 281 272
f 193 128 281
f 308 362 108
f 209 365 130
f 42 178 160
f 118 178 218
f 280 215 129
f 93 208 209
f 93 53 208
f 218 53 93
f 208 53 43
f 43 148 215
f 53 148 43
f 295 220 11
f 94 222 228
f 228 220 295
f 382 304 228
f 295 382 228
f 291 289 390
f 390 362 291
f 263 362 390
f 280 241 47
f 47 241 156
f 350 367 339
f 339 367 319
f 339 321 350
f 388 80 265
f 265 80 367
f 128 142 204
f 204 156 281
f 306 215 280
f 186 286 332
f 332 71 186
f 382 347 302
f 302 347 277
f 259 347 295
f 295 342 259
f 259 342 407
f 340 277 28
f 28 38 340
f 340 38 277
f 28 269 5
f 5 38 28
f 5 269 233
f 277 38 5
f 101 11 235
f 39 342 295
f 264 342 39
f 39 353 264
f 186 330 199
f 199 188 186
f 119 264 60
f 60 109 119
f 201 243 143
f 186 158 81
f 158 271 81
f 257 401 301
f 121 158 103
f 121 268 158
f 303 57 41
f 307 400 110
f 110 400 229
f 92 305 166
f 92 106 305
f 45 258 25
f 2 258 45
f 45 184 2
f 281 351 49
f 127 245 49
f 128 193 296
f 296 193 281
f 281 49 296
f 113 255 284
f 131 397 182
f 218 397 131
f 403 258 176
f 176 6 403
f 251 174 182
f 377 389 251
f 403 6 251
f 251 389 227
f 377 251 74
f 216 130 365
f 216 43 215
f 208 43 216
f 209 208 216
f 216 365 209
f 214 42 160
f 57 214 150
f 150 214 160
f 270 144 41
f 41 57 270
f 308 108 15
f 50 397 218
f 218 93 50
f 50 93 209
f 209 130 50
f 380 53 218
f 380 148 53
f 380 346 21
f 235 11 250
f 94 228 247
f 247 228 304
f 291 308 40
f 194 289 256
f 156 204 26
f 26 204 142
f 26 142 280
f 281 128 336
f 336 204 281
f 128 204 336
f 280 142 312
f 312 306 280
f 312 142 128
f 128 306 312
f 4 185 408
f 408 332 4
f 408 185 84
f 84 315 408
f 145 402 229
f 145 332 402
f 229 4 145
f 4 332 145
f 186 71 123
f 123 210 186
f 84 252 24
f 24 315 84
f 379 252 342
f 379 342 264
f 379 24 252
f 55 330 264
f 152 352 19
f 19 36 152
f 36 106 152
f 106 198 152
f 17 153 90
f 363 198 153
f 335 313 243
f 335 368 283
f 243 255 335
f 255 368 335
f 405 313 25
f 19 143 337
f 337 25 19
f 287 368 255
f 283 368 287
f 226 271 286
f 226 81 271
f 14 271 158
f 402 332 314
f 196 402 314
f 314 343 196
f 286 271 360
f 360 332 286
f 381 301 114
f 114 401 284
f 114 301 401
f 284 401 274
f 54 257 160
f 54 401 257
f 57 303 300
f 151 268 328
f 117 303 41
f 406 369 238
f 238 369 229
f 229 196 238
f 249 153 17
f 133 412 136
f 133 327 192
f 44 279 307
f 307 110 44
f 376 279 44
f 154 376 44
f 359 224 2
f 326 61 2
f 2 224 326
f 283 61 326
f 326 184 283
f 184 45 294
f 283 184 294
f 294 335 283
f 313 335 294
f 298 216 245
f 130 216 298
f 13 245 127
f 13 316 245
f 245 216 164
f 164 216 30
f 164 49 245
f 164 296 49
f 164 30 128
f 128 296 164
f 255 113 64
f 64 287 255
f 29 100 283
f 260 131 182
f 77 118 218
f 218 131 77
f 77 131 118
f 227 389 62
f 62 288 227
f 62 13 127
f 351 288 62
f 127 49 62
f 62 49 351
f 267 389 377
f 227 288 177
f 334 260 182
f 409 260 334
f 334 100 409
f 182 174 213
f 174 104 213
f 213 334 182
f 170 104 2
f 2 61 170
f 170 213 104
f 334 213 170
f 318 104 174
f 318 251 6
f 174 251 318
f 377 74 202
f 202 74 130
f 370 251 182
f 182 397 370
f 30 216 138
f 138 306 128
f 128 30 138
f 215 306 138
f 138 216 215
f 57 16 285
f 285 214 57
f 285 16 178
f 42 214 285
f 178 42 285
f 107 16 346
f 205 16 107
f 346 380 107
f 107 380 205
f 21 346 120
f 346 16 120
f 120 16 57
f 178 16 395
f 395 16 205
f 205 380 395
f 218 178 395
f 395 380 218
f 160 257 219
f 219 150 160
f 257 150 219
f 57 150 91
f 91 270 57
f 144 270 91
f 91 86 144
f 192 86 91
f 191 15 108
f 129 15 191
f 280 129 191
f 191 241 280
f 275 228 222
f 222 253 275
f 222 250 189
f 189 253 222
f 189 250 11
f 282 289 291
f 282 236 289
f 291 116 282
f 116 236 282
f 290 40 308
f 69 40 290
f 404 116 291
f 291 40 404
f 148 380 354
f 333 256 289
f 289 236 333
f 333 236 116
f 211 387 51
f 71 332 10
f 332 408 10
f 101 111 246
f 295 11 246
f 11 101 246
f 125 111 101
f 371 264 186
f 371 379 264
f 186 210 371
f 103 158 299
f 299 157 103
f 276 95 240
f 95 87 240
f 194 256 240
f 201 143 398
f 48 361 381
f 381 114 48
f 381 361 411
f 411 363 381
f 411 361 198
f 198 363 411
f 254 143 243
f 254 337 143
f 243 313 254
f 343 14 163
f 196 343 163
f 163 14 158
f 343 314 358
f 46 65 135
f 181 65 46
f 135 64 46
f 355 65 181
f 160 178 78
f 178 118 78
f 78 355 181
f 118 131 78
f 99 78 181
f 401 54 99
f 99 54 160
f 160 78 99
f 122 328 268
f 105 328 122
f 122 121 103
f 268 121 122
f 103 157 122
f 144 86 393
f 393 86 192
f 192 27 393
f 151 328 393
f 393 97 151
f 393 27 97
f 303 117 149
f 149 122 157
f 149 117 105
f 105 122 149
f 9 238 196
f 9 399 406
f 406 238 9
f 406 399 82
f 137 180 37
f 151 97 261
f 190 27 192
f 97 27 190
f 257 301 242
f 242 70 257
f 242 301 381
f 381 70 242
f 153 249 394
f 106 92 1
f 1 92 23
f 136 412 231
f 231 249 17
f 17 90 231
f 2 184 373
f 373 359 2
f 25 313 139
f 313 294 139
f 245 316 356
f 356 298 245
f 197 64 135
f 287 64 197
f 283 287 197
f 197 29 283
f 409 100 165
f 100 29 165
f 131 260 75
f 65 355 75
f 75 260 135
f 135 65 75
f 75 78 131
f 355 78 75
f 272 403 98
f 403 177 98
f 88 177 403
f 227 177 88
f 403 251 88
f 88 251 227
f 126 74 251
f 251 370 126
f 130 74 126
f 126 50 130
f 397 50 126
f 126 370 397
f 57 300 244
f 244 120 57
f 21 120 244
f 412 133 207
f 257 70 159
f 159 150 257
f 159 91 150
f 70 394 159
f 159 207 133
f 412 207 159
f 390 3 167
f 167 31 390
f 85 101 235
f 85 390 289
f 289 206 85
f 206 101 85
f 263 390 35
f 390 31 35
f 66 168 51
f 66 51 116
f 66 129 215
f 148 168 66
f 215 148 66
f 66 69 129
f 66 40 69
f 331 387 21
f 239 211 51
f 51 354 239
f 239 354 380
f 383 246 111
f 111 125 383
f 383 101 206
f 383 125 101
f 315 225 349
f 349 123 315
f 210 123 349
f 315 24 132
f 132 225 315
f 157 87 18
f 18 87 300
f 410 55 264
f 79 299 158
f 79 199 330
f 158 188 79
f 188 199 79
f 324 398 352
f 352 152 324
f 361 398 329
f 329 152 198
f 198 361 329
f 329 324 152
f 201 398 212
f 212 398 361
f 361 48 212
f 284 255 212
f 212 255 201
f 212 114 284
f 212 48 114
f 223 405 25
f 25 337 223
f 337 254 223
f 37 180 172
f 180 163 172
f 172 163 158
f 161 314 332
f 161 358 314
f 332 360 161
f 181 46 112
f 112 46 274
f 112 99 181
f 274 99 112
f 320 64 113
f 320 46 64
f 155 113 284
f 284 274 173
f 274 46 173
f 22 274 401
f 401 99 22
f 22 99 274
f 105 117 59
f 59 117 41
f 41 144 59
f 144 393 59
f 59 328 105
f 217 172 158
f 399 179 372
f 372 82 399
f 179 180 372
f 406 82 63
f 63 234 110
f 63 369 406
f 229 369 63
f 63 110 229
f 230 137 309
f 175 137 230
f 67 327 237
f 151 261 325
f 325 344 151
f 52 344 325
f 323 70 381
f 266 394 249
f 266 231 412
f 249 231 266
f 412 159 266
f 266 159 394
f 106 1 33
f 33 1 23
f 33 231 106
f 136 231 374
f 374 231 237
f 374 133 136
f 237 327 374
f 327 133 374
f 106 231 348
f 348 231 90
f 348 198 106
f 153 198 348
f 348 90 153
f 200 356 316
f 389 356 200
f 389 267 7
f 7 356 389
f 300 87 357
f 357 244 300
f 221 133 192
f 221 159 133
f 192 91 221
f 76 85 235
f 235 147 76
f 147 321 76
f 76 167 3
f 256 331 169
f 256 333 311
f 311 331 256
f 387 331 83
f 116 51 83
f 51 387 83
f 21 244 115
f 115 331 21
f 115 244 310
f 115 169 331
f 310 95 115
f 115 95 276
f 12 146 194
f 194 240 12
f 264 146 12
f 12 410 264
f 12 240 87
f 12 79 330
f 12 87 157
f 157 299 12
f 299 79 12
f 398 324 232
f 232 329 398
f 324 329 232
f 196 163 273
f 180 58 273
f 273 163 180
f 309 137 73
f 172 217 73
f 73 137 37
f 37 172 73
f 262 320 113
f 46 320 262
f 113 155 262
f 345 393 328
f 328 59 345
f 345 59 393
f 52 217 8
f 158 268 8
f 8 217 158
f 231 33 366
f 297 203 366
f 237 231 366
f 366 203 237
f 366 33 23
f 366 63 297
f 234 63 366
f 110 234 366
f 292 154 366
f 154 44 366
f 366 44 110
f 23 92 366
f 366 166 292
f 366 92 166
f 297 63 364
f 82 385 364
f 364 63 82
f 248 372 180
f 180 385 248
f 82 372 248
f 248 385 82
f 180 137 378
f 378 385 180
f 134 203 293
f 192 327 317
f 327 67 317
f 317 190 192
f 97 190 317
f 317 137 175
f 317 67 237
f 317 134 385
f 317 261 97
f 175 261 317
f 237 203 317
f 203 134 317
f 96 261 175
f 96 325 261
f 175 230 96
f 381 363 375
f 375 323 381
f 375 363 153
f 153 394 375
f 91 159 392
f 392 221 91
f 159 221 392
f 384 76 3
f 85 76 384
f 384 3 390
f 390 85 384
f 56 333 116
f 116 83 56
f 196 273 171
f 171 273 58
f 46 262 341
f 341 262 155
f 72 344 52
f 52 8 72
f 297 364 396
f 396 203 297
f 293 203 396
f 396 385 293
f 396 364 385
f 293 385 20
f 20 134 293
f 385 134 20
f 32 378 137
f 137 317 32
f 385 378 32
f 32 317 385
f 34 347 259
f 407 34 259
f 322 102 252
f 84 322 252
f 252 102 68
f 68 342 252
f 194 146 119
f 119 109 194
f 119 146 264
f 250 147 235
f 350 147 250
f 250 222 350
f 247 233 94
f 247 5 233
f 382 302 247
f 247 304 382
f 247 302 277
f 277 5 247
f 26 47 156
f 280 47 26
f 186 81 226
f 226 286 186
f 283 100 170
f 170 61 283
f 100 334 170
f 318 176 258
f 318 258 2
f 6 176 318
f 2 104 318
f 386 388 191
f 191 362 386
f 191 108 362
f 191 367 241
f 388 265 191
f 191 265 367
f 220 228 189
f 189 11 220
f 228 275 189
f 189 275 253
f 129 69 290
f 308 15 290
f 290 15 129
f 51 168 354
f 354 168 148
f 315 123 10
f 10 408 315
f 10 123 71
f 398 143 19
f 19 352 398
f 224 359 373
f 184 326 373
f 373 326 224
f 139 294 45
f 139 45 25
f 165 197 135
f 135 260 165
f 165 260 409
f 29 197 165
f 98 288 351
f 98 351 272
f 98 177 288
f 116 404 66
f 66 404 40
f 21 387 239
f 239 380 21
f 387 211 239
f 383 206 60
f 383 39 295
f 60 353 383
f 353 39 383
f 295 246 383
f 24 379 132
f 132 371 210
f 210 349 132
f 379 371 132
f 132 349 225
f 303 149 18
f 18 300 303
f 18 149 157
f 223 254 313
f 313 405 223
f 161 14 343
f 271 14 161
f 161 360 271
f 343 358 161
f 200 62 389
f 316 13 200
f 13 62 200
f 7 267 377
f 130 298 7
f 377 202 7
f 7 202 130
f 298 356 7
f 357 87 95
f 357 95 310
f 310 244 357
f 263 35 76
f 76 339 319
f 76 80 263
f 319 80 76
f 321 339 76
f 31 167 76
f 76 35 31
f 256 169 115
f 115 240 256
f 276 240 115
f 55 410 12
f 330 55 12
f 96 73 217
f 309 73 96
f 52 325 96
f 96 217 52
f 96 230 309
f 70 323 375
f 375 394 70
f 331 311 56
f 56 311 333
f 56 83 331
f 171 179 399
f 171 9 196
f 171 180 179
f 399 9 171
f 171 58 180
f 284 173 341
f 341 155 284
f 341 173 46
f 151 344 72
f 72 268 151
f 72 8 268

