# https://github.com/mikedh/trimesh
v 0.07500135 -0.00156784 -0.00887467
v 0.07501141 -0.03109201 -0.04288433
v 0.05811344 -0.04540051 -0.01142996
v 0.07009341 -0.03754020 -0.02264151
v 0.05211242 -0.04704086 -0.01426121
v 0.07678994 -0.02626576 -0.04801664
v 0.06474469 -0.04050997 -0.00103278
v 0.07750415 -0.00411646 -0.02526184
v 0.07797580 -0.00695834 -0.02974173
v 0.05778360 -0.04586259 -0.01884331
v 0.07404228 -0.03335909 -0.04430917
v 0.06027217 -0.04536198 -0.04281489
v 0.06904268 -0.03597906 -0.00295495
v 0.05358602 -0.04699749 -0.02187417
v 0.06932303 -0.03779756 -0.01672254
v 0.07745243 -0.00983975 -0.02613222
v 0.07822970 -0.01694684 -0.04315597
v 0.07264333 -0.02870550 -0.00580293
v 0.05307653 -0.04706923 -0.02144809
v 0.07484474 -0.02914448 -0.03075770
v 0.05079140 -0.04744915 -0.02239935
v 0.07775256 -0.00168349 -0.02669401
v 0.05991867 -0.04517503 -0.02075638
v 0.07070980 -0.03769287 -0.03236569
v 0.07380435 -0.03093419 -0.02633889
v 0.06906719 -0.03753968 -0.01236093
v 0.06527820 -0.04297162 -0.04769082
v 0.07820693 -0.01722326 -0.04336953
v 0.05245544 -0.04621584 -0.00671047
v 0.07441086 -0.02374963 -0.01233541
v 0.07929395 -0.00034710 -0.04702658
v 0.07223469 -0.03370963 -0.02157523
v 0.06808065 -0.04047915 -0.03224560
v 0.07014651 -0.03910588 -0.04966015
v 0.06581614 -0.03932557 -0.00003268
v 0.06987942 -0.03928705 -0.04223362
v 0.06601298 -0.04228156 -0.03182766
v 0.07346216 -0.03330693 -0.03336038
v 0.06234233 -0.04420901 -0.02460150
v 0.05624346 -0.04456105 -0.00106236
v 0.07087548 -0.03252210 -0.00297733
v 0.07401633 -0.02412538 -0.01005313
v 0.05835787 -0.04428470 -0.00172285
v 0.07093385 -0.03812029 -0.04391883
v 0.07236757 -0.03628380 -0.04608496
v 0.06077765 -0.04500154 -0.02665742
v 0.06322831 -0.04349079 -0.01936977
v 0.07051203 -0.03820597 -0.03557254
v 0.05334492 -0.04619702 -0.00751813
v 0.07240285 -0.02917273 -0.00488070
v 0.06308018 -0.04363302 -0.02003015
v 0.06213406 -0.04288908 -0.00426560
v 0.05937993 -0.04501905 -0.01280563
v 0.07001275 -0.03916183 -0.04231325
v 0.06090771 -0.04495092 -0.02686064
v 0.05976996 -0.04557917 -0.03972664
v 0.06886280 -0.04032296 -0.04959547
v 0.05465439 -0.04687807 -0.02942757
v 0.07694475 -0.01521643 -0.02490204
v 0.07658096 -0.02679131 -0.04582203
v 0.05765451 -0.04599123 -0.02151841
v 0.06010722 -0.04497978 -0.01819880
v 0.06111313 -0.04465517 -0.02027322
v 0.06873041 -0.03572805 -0.00021690
v 0.07235612 -0.03637072 -0.04882480
v 0.06172060 -0.04438171 -0.02071517
v 0.06100536 -0.04419366 -0.01123721
v 0.06557718 -0.04279786 -0.04123011
v 0.05938299 -0.04534592 -0.01981445
v 0.06075187 -0.04302945 -0.00019233
v 0.06971432 -0.03806603 -0.02297971
v 0.05967876 -0.04537022 -0.02388287
v 0.07313577 -0.03374940 -0.03248478
v 0.07572971 -0.02022475 -0.01893680
v 0.05855376 -0.04552846 -0.01670465
v 0.05073427 -0.04532501 -0.00175055
v 0.05955208 -0.04381855 -0.00157132
v 0.07371916 -0.03371183 -0.04100847
v 0.06049117 -0.04464266 -0.01428722
v 0.06991045 -0.03451898 -0.00280284
v 0.07383206 -0.02208729 -0.00755820
v 0.06920034 -0.03933011 -0.03213528
v 0.07616039 -0.02693255 -0.03911822
v 0.07691704 -0.01294557 -0.02329091
v 0.07903676 -0.00951450 -0.04704376
v 0.07334533 -0.03483240 -0.04980010
v 0.05985187 -0.04520170 -0.02075142
v 0.07535515 -0.02893255 -0.03625273
v 0.07590849 -0.01781345 -0.01872528
v 0.07573035 -0.02176490 -0.02063310
v 0.07616795 -0.01696604 -0.02001678
v 0.07773545 -0.00493024 -0.02693739
v 0.05499153 -0.04601539 -0.00844213
v 0.05978863 -0.04401570 -0.00309791
v 0.06501780 -0.04045643 -0.00193984
v 0.07881093 -0.01299598 -0.04983468
v 0.07079469 -0.03827442 -0.04328633
v 0.06243597 -0.04451720 -0.04037730
v 0.05887103 -0.04559240 -0.02177278
v 0.06109617 -0.04304831 -0.00130311
v 0.07667216 -0.02683486 -0.04877114
v 0.06056511 -0.04424593 -0.00924315
v 0.06677473 -0.03833291 -0.00028821
v 0.05717785 -0.04616266 -0.04822132
v 0.06794184 -0.04112196 -0.04256723
v 0.05847288 -0.04580500 -0.02493804
v 0.06765205 -0.04128704 -0.03936996
v 0.07255440 -0.02884461 -0.00539323
v 0.05894907 -0.04432977 -0.00320836
v 0.06672790 -0.03904006 -0.00330733
v 0.07431266 -0.02123685 -0.01013472
v 0.05806422 -0.04561847 -0.01445243
v 0.06456536 -0.04200465 -0.01246321
v 0.07517059 -0.00077433 -0.00989840
v 0.07314590 -0.03515063 -0.04953969
v 0.05407861 -0.04631812 -0.00943312
v 0.06364434 -0.04179464 -0.00331430
v 0.07835119 -0.00011614 -0.03260492
v 0.06251757 -0.04296395 -0.00749256
v 0.07389124 -0.03219583 -0.03327917
v 0.07670012 -0.01464534 -0.02247860
v 0.07357471 -0.03438917 -0.04836940
v 0.05021015 -0.04687948 -0.00956624
v 0.07026661 -0.03878151 -0.04045935
v 0.06778114 -0.04081691 -0.03273496
v 0.07040081 -0.03871839 -0.04212722
v 0.05357494 -0.04692565 -0.01939050
v 0.05067686 -0.04674812 -0.00900761
v 0.07648643 -0.01241822 -0.02032510
v 0.07687889 -0.01541973 -0.02446608
v 0.07500177 -0.02777741 -0.02718248
v 0.06114071 -0.04509934 -0.03920617
v 0.07879353 -0.01116498 -0.04413761
v 0.07491659 -0.02429182 -0.01699466
v 0.07553669 -0.02998516 -0.04544995
v 0.06301870 -0.04178021 -0.00023536
v 0.06965047 -0.03764560 -0.01867457
v 0.07893597 -0.00841118 -0.04369181
v 0.07087973 -0.03654473 -0.02505378
v 0.07763093 -0.00321983 -0.02600153
v 0.07856175 -0.01041191 -0.03974847
v 0.06706532 -0.03936543 -0.00884777
v 0.07420961 -0.02309424 -0.01062394
v 0.07780267 -0.00935843 -0.02917199
v 0.07677646 -0.01695114 -0.02480064
v 0.07524813 -0.03058116 -0.04341771
v 0.07461446 -0.03226998 -0.04980436
v 0.07204608 -0.03324183 -0.01690613
v 0.06836291 -0.03939379 -0.02177601
v 0.05308367 -0.04727417 -0.03693111
v 0.07832533 -0.01652698 -0.04381302
v 0.05434585 -0.04694070 -0.02861647
v 0.06092425 -0.04293258 -0.00015193
v 0.07023719 -0.03820690 -0.03135172
v 0.07038412 -0.03788886 -0.02955047
v 0.05242845 -0.04679407 -0.01150753
v 0.05002778 -0.04770510 -0.03601941
v 0.07879108 -0.00969126 -0.04237091
v 0.07510533 -0.02332946 -0.01729253
v 0.07673793 -0.01105474 -0.02158177
v 0.05445824 -0.04661365 -0.01469662
v 0.06400658 -0.04336790 -0.02559110
v 0.05213345 -0.04609102 -0.00584964
v 0.07442487 -0.02169338 -0.01113662
v 0.05769405 -0.04568150 -0.01283794
v 0.07434219 -0.02992092 -0.02823810
v 0.07433472 -0.02398046 -0.01199890
v 0.07577033 -0.02905367 -0.04357140
v 0.07237565 -0.03222305 -0.01598278
v 0.07385062 -0.02964653 -0.02178296
v 0.07005717 -0.03914290 -0.04457802
v 0.07691864 -0.00996981 -0.02245539
v 0.07365598 -0.00073625 -0.00015016
v 0.06478089 -0.04330617 -0.03936825
v 0.07134948 -0.03667862 -0.03261289
v 0.07673380 -0.02202024 -0.03217763
v 0.07532238 -0.03052554 -0.04506548
v 0.07533437 -0.02312394 -0.01909870
v 0.05138139 -0.04735368 -0.02227489
v 0.07361556 -0.02642400 -0.00945925
v 0.05738564 -0.04584528 -0.01514333
v 0.06483850 -0.04327106 -0.04563713
v 0.07365574 -0.02376579 -0.00751374
v 0.07057035 -0.03672544 -0.02262770
v 0.05654427 -0.04633456 -0.02498095
v 0.07391866 -0.02567089 -0.01078939
v 0.05338223 -0.04674795 -0.01266752
v 0.07798928 -0.01009571 -0.03176201
v 0.07560396 -0.01004030 -0.01392409
v 0.05436362 -0.04596902 -0.00706426
v 0.07665417 -0.01578601 -0.02285159
v 0.07477345 -0.02259199 -0.01393862
v 0.06484000 -0.04327995 -0.04390595
v 0.07334453 -0.02730236 -0.00877996
v 0.07903126 -0.00860101 -0.04604628
v 0.06060166 -0.04355423 -0.00273787
v 0.07675361 -0.02596729 -0.04495540
v 0.05470056 -0.04589887 -0.00705016
v 0.05001577 -0.04605408 -0.00464890
v 0.05271756 -0.04715599 -0.04784382
v 0.06872765 -0.03844875 -0.01654659
v 0.05736891 -0.04544078 -0.00862459
v 0.05974811 -0.04368294 -0.00130479
v 0.07183209 -0.03070786 -0.00459621
v 0.05486107 -0.04448160 -0.00008844
v 0.07028181 -0.03704292 -0.02145488
v 0.06792312 -0.03738150 -0.00188079
v 0.06048427 -0.04411901 -0.00746772
v 0.06046478 -0.04476299 -0.01666134
v 0.07797260 -0.01913736 -0.04397026
v 0.05253295 -0.04699857 -0.01536495
v 0.05021752 -0.04752586 -0.04651432
v 0.06732670 -0.04144387 -0.03609351
v 0.05117483 -0.04724394 -0.01570300
v 0.05842992 -0.04581099 -0.02456490
v 0.05143751 -0.04586716 -0.00437515
v 0.05047387 -0.04766311 -0.03776727
v 0.07879723 -0.01056802 -0.04318658
v 0.07540843 -0.03059613 -0.04951904
v 0.05237170 -0.04739603 -0.03782125
v 0.05186479 -0.04705243 -0.01313504
v 0.07385810 -0.03313176 -0.03850645
v 0.07202000 -0.02831732 -0.00076226
v 0.05156794 -0.04701778 -0.01240051
v 0.07684891 -0.01564848 -0.02435944
v 0.05387693 -0.04688843 -0.02002205
v 0.07836075 -0.01753592 -0.04853274
v 0.07117616 -0.03770876 -0.04081088
v 0.06607655 -0.03953132 -0.00218989
v 0.05651040 -0.04504318 -0.00385995
v 0.07794812 -0.01904634 -0.04326380
v 0.06005642 -0.04408828 -0.00495453
v 0.06102722 -0.04492361 -0.04953496
v 0.07420087 -0.02282936 -0.01039904
v 0.06818396 -0.03742778 -0.00350180
v 0.07365084 -0.03262683 -0.03228954
v 0.05106117 -0.04503374 -0.00066972
v 0.07619888 -0.02775531 -0.04383561
v 0.07505988 -0.02197209 -0.01541324
v 0.07845402 -0.01499079 -0.04369507
v 0.07746257 -0.02236730 -0.04313681
v 0.07630458 -0.02743642 -0.04391289
v 0.05421186 -0.04656702 -0.01230050
v 0.07278636 -0.03275465 -0.02233578
v 0.07335442 -0.02604026 -0.00718668
v 0.07240192 -0.03615315 -0.04443062
v 0.06610590 -0.04175701 -0.02272055
v 0.07262167 -0.03113043 -0.01423765
v 0.07260782 -0.02883470 -0.00577584
v 0.06632668 -0.03949362 -0.00330999
v 0.07811935 -0.01260551 -0.03600104
v 0.06925541 -0.03576515 -0.00348983
v 0.07448879 -0.01203616 -0.00727062
v 0.07745978 -0.02240892 -0.04321841
v 0.07812401 -0.01096978 -0.03408612
v 0.07357065 -0.00988054 -0.00078340
v 0.05399529 -0.04705623 -0.03081782
v 0.05864629 -0.04571868 -0.02375765
v 0.07749472 -0.01032452 -0.02669227
v 0.07930659 -0.00452906 -0.04971030
v 0.06232678 -0.04303547 -0.00691993
v 0.05583656 -0.04591675 -0.00901950
v 0.07589192 -0.02101847 -0.02111623
v 0.06926751 -0.03772788 -0.01566677
v 0.06613110 -0.04160804 -0.02081943
v 0.07903288 -0.00466490 -0.04370599
v 0.07361788 -0.03305364 -0.03407774
v 0.07759866 -0.01031678 -0.02761615
v 0.05413921 -0.04689666 -0.02300955
v 0.06096086 -0.04440486 -0.01348987
v 0.07913644 -0.00703584 -0.04735465
v 0.07583377 -0.02595729 -0.03183871
v 0.05240754 -0.04730090 -0.04279157
v 0.06101300 -0.04515077 -0.04009486
v 0.06835974 -0.04076670 -0.04718927
v 0.07298399 -0.03289183 -0.02538011
v 0.07758235 -0.00020330 -0.02554245
v 0.06600241 -0.04088624 -0.01280967
v 0.06235548 -0.04223747 -0.00061352
v 0.05834063 -0.04460078 -0.00372958
v 0.07702226 -0.02552477 -0.04979548
v 0.05454852 -0.04696469 -0.03760739
v 0.05334170 -0.04699500 -0.04903813
v 0.07513578 -0.02847154 -0.03123325
v 0.07057898 -0.03663262 -0.02209889
v 0.05591296 -0.04642545 -0.04916246
v 0.06835499 -0.04072533 -0.04196848
v 0.05689707 -0.04476662 -0.00263558
v 0.06562478 -0.04259362 -0.03303244
v 0.05700892 -0.04638859 -0.03871200
v 0.07927806 -0.00509995 -0.04940192
v 0.07350338 -0.01095042 -0.00052325
v 0.07865195 -0.00956123 -0.04037628
v 0.05962582 -0.04545462 -0.04857990
v 0.06770258 -0.04130536 -0.04761948
v 0.07250498 -0.03595038 -0.04370651
v 0.07145333 -0.03649701 -0.03250931
v 0.07385302 -0.02708914 -0.01259411
v 0.07741076 -0.02376803 -0.04967721
v 0.07662671 -0.00961812 -0.02046876
v 0.07166601 -0.03615450 -0.03254675
v 0.07441578 -0.02447869 -0.01314000
v 0.06042937 -0.04392781 -0.00517797
v 0.07118986 -0.03195663 -0.00347292
v 0.07662345 -0.01550068 -0.02240510
v 0.07257750 -0.02598200 -0.00208183
v 0.06723559 -0.04168524 -0.04214310
v 0.07266438 -0.02673581 -0.00317904
v 0.06852930 -0.03733186 -0.00585351
v 0.07543803 -0.02805343 -0.03303339
v 0.07365945 -0.02520899 -0.00848165
v 0.07923772 -0.00629441 -0.04923313
v 0.07318821 -0.02044701 -0.00238281
v 0.07013574 -0.03908156 -0.04663448
v 0.05089257 -0.04760380 -0.03788384
v 0.05102985 -0.04596847 -0.00463603
v 0.05073236 -0.04739517 -0.04959233
v 0.05838784 -0.04601008 -0.03982236
v 0.06029184 -0.04539546 -0.04083960
v 0.07546739 -0.03008493 -0.04441052
v 0.07183072 -0.02902833 -0.00068834
v 0.05841502 -0.04550496 -0.01491741
v 0.06137645 -0.04500909 -0.03952625
v 0.07796762 -0.00560315 -0.02907997
v 0.07461095 -0.01040237 -0.00756599
v 0.06525880 -0.04061128 -0.00431030
v 0.07647820 -0.02699713 -0.04480440
v 0.07727052 -0.02325373 -0.04314872
v 0.07771803 -0.00060809 -0.02643619
v 0.07407531 -0.02416927 -0.01045897
v 0.06326131 -0.04283572 -0.01157438
v 0.06369601 -0.04390159 -0.04064469
v 0.07802895 -0.01137304 -0.03324412
v 0.07372741 -0.02564081 -0.00939640
v 0.07353508 -0.03427851 -0.04442098
v 0.05380315 -0.04713634 -0.03692732
v 0.07121103 -0.03694528 -0.03297270
v 0.07406244 -0.01129372 -0.00425592
v 0.07587680 -0.02861432 -0.04283607
v 0.05941899 -0.04540738 -0.02180678
v 0.07291648 -0.02744636 -0.00575332
v 0.05773290 -0.04621082 -0.03931801
v 0.07454874 -0.02386691 -0.01345249
v 0.07265956 -0.02721584 -0.00370080
v 0.05549243 -0.04651928 -0.04913988
v 0.06432523 -0.04125506 -0.00336483
v 0.07760606 -0.00534327 -0.02604600
v 0.06916584 -0.03825489 -0.01901900
v 0.06600169 -0.04012676 -0.00554241
v 0.07432801 -0.02684050 -0.01698480
v 0.06383931 -0.04353767 -0.02802823
v 0.05859086 -0.04444052 -0.00305804
v 0.07515550 -0.03020418 -0.03994169
v 0.06516361 -0.04298246 -0.03503106
v 0.06685732 -0.04164005 -0.03101203
v 0.07407805 -0.03319756 -0.04259144
v 0.07149832 -0.03716019 -0.03915059
v 0.06796966 -0.03692940 -0.00003709
v 0.07744424 -0.00864653 -0.02561343
v 0.06046762 -0.04367418 -0.00302440
v 0.07239503 -0.03300941 -0.01931937
v 0.07539424 -0.02976696 -0.04105406
v 0.07226451 -0.03610414 -0.04071554
v 0.07390313 -0.02718683 -0.01335039
v 0.05813877 -0.04389265 -0.00000476
v 0.06333360 -0.04287373 -0.01259110
v 0.05527231 -0.04520815 -0.00335062
v 0.05385939 -0.04702615 -0.02693397
v 0.07380767 -0.03397263 -0.04780254
v 0.06713709 -0.04165183 -0.03756413
v 0.06625074 -0.04100052 -0.01607049
v 0.06035965 -0.04532484 -0.03235046
v 0.07650276 -0.02270758 -0.03096158
v 0.07648174 -0.02363452 -0.03323844
v 0.07357011 -0.03139390 -0.02560646
v 0.05118146 -0.04677339 -0.00983007
v 0.06444062 -0.04332854 -0.03135071
v 0.07741596 -0.02233514 -0.04236463
v 0.07751816 -0.01092016 -0.02719197
v 0.07922898 -0.00697795 -0.04959224
v 0.05014440 -0.04767799 -0.03929122
v 0.05092117 -0.04680521 -0.00978824
v 0.06849844 -0.04064746 -0.04842052
v 0.07321996 -0.02601001 -0.00620848
v 0.07400902 -0.01102617 -0.00382441
v 0.07355216 -0.02719835 -0.01022318
v 0.06257339 -0.04397688 -0.02153256
v 0.07036350 -0.03824267 -0.03356926
v 0.06404403 -0.04321549 -0.02294358
v 0.07224681 -0.03311345 -0.01831582
v 0.06659960 -0.03923953 -0.00363591
v 0.05198956 -0.04675029 -0.01060543
v 0.07418906 -0.02148520 -0.00948519
v 0.05228085 -0.04581267 -0.00452652
v 0.07048118 -0.03786983 -0.03072014
v 0.05249922 -0.04736783 -0.03875663
v 0.07438617 -0.00096222 -0.00485559
v 0.07609740 -0.00137494 -0.01593586
v 0.06981113 -0.03928012 -0.04067319
v 0.07589513 -0.02928003 -0.04911524
v 0.07638241 -0.02692091 -0.04223300
v 0.05430228 -0.04693943 -0.02790624
v 0.07387799 -0.02475214 -0.00957354
v 0.05004129 -0.04671254 -0.00840770
v 0.05002774 -0.04761387 -0.04335606
v 0.06759202 -0.04141064 -0.04175281
v 0.07316888 -0.03225721 -0.02470237
v 0.05404108 -0.04641460 -0.01021063
v 0.05037110 -0.04735078 -0.01488425
v 0.07267091 -0.03037947 -0.01181294
v 0.06109051 -0.04490169 -0.04951519
v 0.06099702 -0.04449505 -0.01563932
v 0.06798823 -0.04107223 -0.04199020
v 0.07759954 -0.00536475 -0.02600700
v 0.06206017 -0.04397821 -0.01647203
v 0.07468424 -0.02453061 -0.01534520
v 0.05285832 -0.04687769 -0.01335658
v 0.07361132 -0.03423187 -0.04620143
v 0.07072720 -0.03820719 -0.03987967
v 0.05812838 -0.04477269 -0.00463622
v 0.06614094 -0.03990691 -0.00486090
v 0.07410290 -0.03340351 -0.04878189
v 0.05692496 -0.04618679 -0.02196180
v 0.07424565 -0.00070895 -0.00392290
v 0.07274148 -0.03548652 -0.04234397
v 0.06260400 -0.04273416 -0.00537093
v 0.06122520 -0.04448285 -0.01766026
v 0.07091009 -0.03770910 -0.03563028
v 0.07449440 -0.03177652 -0.03931450
v 0.07658563 -0.00992738 -0.02027764
v 0.05166323 -0.04730296 -0.04783663
v 0.06343471 -0.04298933 -0.01478016
v 0.07748244 -0.00725520 -0.02557015
v 0.07710126 -0.00015601 -0.02241678
v 0.05371824 -0.04690201 -0.04954952
v 0.07831336 -0.01769912 -0.04756072
v 0.07349969 -0.00845821 -0.00014136
v 0.07674689 -0.02151626 -0.03152981
v 0.05499430 -0.04644570 -0.01360231
v 0.05147174 -0.04732097 -0.04824658
v 0.07071286 -0.03801991 -0.03641278
v 0.06864794 -0.03904429 -0.02129161
v 0.07669807 -0.00992674 -0.02100877
v 0.05524730 -0.04644811 -0.01586919
v 0.07571020 -0.02694528 -0.03315757
v 0.07900859 -0.00823912 -0.04519362
v 0.07055784 -0.03394541 -0.00550218
v 0.07765453 -0.02071302 -0.04237270
v 0.07651861 -0.02353801 -0.03344785
v 0.05665166 -0.04629795 -0.02439127
v 0.07266945 -0.02798510 -0.00469317
v 0.07780916 -0.00053944 -0.02705734
v 0.05807738 -0.04602614 -0.04426295
v 0.07894483 -0.00865070 -0.04400766
v 0.07400961 -0.01100226 -0.00382162
v 0.07505159 -0.03102352 -0.04320912
v 0.07269760 -0.02180546 -0.00012262
v 0.06499832 -0.04314909 -0.04855163
v 0.07061442 -0.03856395 -0.04984431
v 0.07279948 -0.02836121 -0.00636109
v 0.07388037 -0.02597891 -0.01084791
v 0.06233508 -0.04447901 -0.04873146
v 0.07387045 -0.03363578 -0.04290052
v 0.07375240 -0.03280789 -0.03453365
v 0.06285332 -0.04430208 -0.03978590
v 0.07438387 -0.02739217 -0.01915963
v 0.07026622 -0.03784934 -0.02760392
v 0.06136376 -0.04333995 -0.00448691
v 0.06806214 -0.04098287 -0.04122352
v 0.06504111 -0.04022517 -0.00087528
v 0.05395220 -0.04689721 -0.02099099
v 0.07538521 -0.03017733 -0.04299793
v 0.06243104 -0.04407416 -0.02197541
v 0.06674191 -0.04166982 -0.02980742
v 0.07801647 -0.00560932 -0.02950013
v 0.07725413 -0.00931471 -0.02447795
v 0.05782659 -0.04507202 -0.00643957
v 0.06112281 -0.04431896 -0.01352802
v 0.05190772 -0.04688399 -0.01164811
v 0.07594530 -0.01364190 -0.01724452
v 0.05841713 -0.04475788 -0.00545496
v 0.07891817 -0.00892967 -0.04362875
v 0.07433005 -0.02631493 -0.01554488
v 0.05278880 -0.04723280 -0.04315420
v 0.07281023 -0.02815519 -0.00606795
v 0.06661519 -0.04185558 -0.03177796
v 0.07008287 -0.03915661 -0.04831101
v 0.07436768 -0.02801841 -0.02107461
v 0.07888453 -0.01069561 -0.04532526
v 0.07296959 -0.01885989 -0.00024827
v 0.07168547 -0.03038282 -0.00240169
v 0.06632605 -0.04157446 -0.02230088
v 0.06688034 -0.04192460 -0.04169360
v 0.07788867 -0.00531332 -0.02833489
v 0.05459242 -0.04651681 -0.01274561
v 0.07157751 -0.03727108 -0.04241933
v 0.05655172 -0.04601030 -0.01331716
v 0.07462885 -0.02538126 -0.01638723
v 0.05223774 -0.04669313 -0.01041637
v 0.07621729 -0.01383693 -0.01907086
v 0.07178765 -0.03691284 -0.04120977
v 0.06801596 -0.04106227 -0.04414022
v 0.07899486 -0.00030822 -0.04162614
v 0.07556538 -0.02766986 -0.03345603
v 0.07829676 -0.01649637 -0.04329274
v 0.07407922 -0.03314017 -0.04213879
v 0.06372357 -0.04215409 -0.00723121
v 0.07917594 -0.00862953 -0.04966634
v 0.05215716 -0.04728800 -0.04517938
v 0.06098921 -0.04443779 -0.01441011
v 0.06627419 -0.03923794 -0.00185673
v 0.07289806 -0.02005324 -0.00026751
v 0.07680424 -0.00452913 -0.02080447
v 0.05765375 -0.04589828 -0.01881182
v 0.07218354 -0.03663822 -0.04965796
v 0.07000379 -0.03385255 -0.00095428
v 0.07290698 -0.01992634 -0.00027039
v 0.07300816 -0.03278595 -0.02518563
v 0.06094994 -0.04485524 -0.02395706
v 0.07635119 -0.01543660 -0.02053711
v 0.06071967 -0.04313127 -0.00066972
v 0.06642330 -0.04219680 -0.04994780
v 0.07138108 -0.03722549 -0.03789256
v 0.07812726 -0.00057899 -0.02983917
v 0.07504998 -0.02890723 -0.03216475
v 0.07910920 -0.00255710 -0.04417467
v 0.07719844 -0.00240854 -0.02313700
v 0.07317151 -0.02832829 -0.00930824
v 0.06858160 -0.03729254 -0.00603960
v 0.06700502 -0.04166974 -0.03493624
v 0.07916637 -0.00056828 -0.04430760
v 0.07317483 -0.03366461 -0.03230797
v 0.06195833 -0.04474879 -0.04001838
v 0.07835789 -0.01754550 -0.04845412
v 0.07201104 -0.03135289 -0.00892213
v 0.07706601 -0.00434161 -0.02245786
v 0.05611937 -0.04646620 -0.02653661
v 0.07450939 -0.02804336 -0.02269941
v 0.05661212 -0.04426154 -0.00022639
v 0.06141627 -0.04320634 -0.00344674
v 0.07831019 -0.01634144 -0.04324402
v 0.07068453 -0.03385852 -0.00631520
v 0.05490312 -0.04645571 -0.01316936
v 0.07435795 -0.02834414 -0.02222283
v 0.07036597 -0.03357963 -0.00258514
v 0.07080679 -0.03786122 -0.03581838
v 0.07771187 -0.02111133 -0.04429474
v 0.07690120 -0.02291630 -0.03688685
v 0.07336628 -0.02167241 -0.00430787
v 0.05690049 -0.04481577 -0.00294328
v 0.07376076 -0.02350949 -0.00801955
v 0.05920053 -0.04549062 -0.02207276
v 0.06256264 -0.04239432 -0.00237111
v 0.07639193 -0.02661735 -0.04124134
v 0.07220978 -0.03628101 -0.04149655
v 0.06168891 -0.04314924 -0.00438940
v 0.06180054 -0.04356216 -0.00938686
v 0.07739295 -0.00834762 -0.02519553
v 0.06552907 -0.03985325 -0.00110424
v 0.06927197 -0.03795246 -0.01749544
v 0.05623798 -0.04445825 -0.00063444
v 0.07408105 -0.01185751 -0.00458168
v 0.07794951 -0.00467420 -0.02875585
v 0.07382764 -0.02711316 -0.01240791
v 0.06783233 -0.04119301 -0.04103317
v 0.07146328 -0.03129892 -0.00343844
v 0.05581559 -0.04655258 -0.02719387
v 0.07401574 -0.03352288 -0.04687275
v 0.05865612 -0.04576356 -0.04871880
v 0.07814379 -0.01084985 -0.03425952
v 0.07869273 -0.01016679 -0.04138115
v 0.07278949 -0.02640565 -0.00372148
v 0.07360582 -0.02744040 -0.01114827
v 0.07683217 -0.01667647 -0.02500873
v 0.07517781 -0.02160731 -0.01595995
v 0.07663197 -0.02217714 -0.03127041
v 0.07822287 -0.01737125 -0.04411122
v 0.07221914 -0.02807863 -0.00176796
v 0.06067730 -0.04446227 -0.01234132
v 0.05963830 -0.04369566 -0.00113005
v 0.07038808 -0.03263345 -0.00031474
v 0.06594221 -0.04174244 -0.02081322
v 0.06543558 -0.04022760 -0.00258723
v 0.06702338 -0.04070355 -0.02084587
v 0.07315192 -0.03320587 -0.02888000
v 0.07790985 -0.00387877 -0.02828893
v 0.07569635 -0.02098539 -0.01936026
v 0.06673774 -0.04199756 -0.04722717
v 0.06015338 -0.04535262 -0.03010153
v 0.07112093 -0.03788749 -0.04402259
v 0.07451112 -0.00086019 -0.00564606
v 0.06352335 -0.04354250 -0.02323173
v 0.07361856 -0.03399115 -0.04203785
v 0.06723738 -0.04164637 -0.03985938
v 0.07465864 -0.02309950 -0.01351709
v 0.05019766 -0.04702066 -0.01076244
v 0.07742058 -0.00219126 -0.02455401
v 0.07571341 -0.01952078 -0.01827958
v 0.05491682 -0.04650141 -0.01474107
v 0.05083283 -0.04661399 -0.00821714
v 0.06486964 -0.04323618 -0.03809032
v 0.07638386 -0.01602914 -0.02099337
v 0.05454219 -0.04695186 -0.03380669
v 0.06162604 -0.04274071 -0.00121148
v 0.07278299 -0.02884890 -0.00712695
v 0.05272218 -0.04720808 -0.04515100
v 0.06260717 -0.04410267 -0.02562000
v 0.06405247 -0.04117880 -0.00160669
v 0.07118337 -0.03731280 -0.03581698
v 0.05076515 -0.04726927 -0.01405183
v 0.06417517 -0.04362847 -0.03879217
v 0.07744783 -0.01245387 -0.02754499
v 0.07338710 -0.03347861 -0.03375256
v 0.07802890 -0.00662668 -0.03015701
v 0.05844475 -0.04481322 -0.00617392
v 0.07752112 -0.02227851 -0.04383686
v 0.07759223 -0.02227024 -0.04570796
v 0.07363611 -0.02057964 -0.00536050
v 0.06180989 -0.04479875 -0.04249628
v 0.06343053 -0.04223105 -0.00570334
v 0.07772373 -0.02199253 -0.04769450
v 0.07402494 -0.03176978 -0.03291656
v 0.06051588 -0.04533694 -0.03873446
v 0.07739833 -0.02215187 -0.04156518
v 0.07795156 -0.00477975 -0.02879157
v 0.05895851 -0.04435829 -0.00350685
v 0.07583390 -0.02063392 -0.02010289
v 0.05456943 -0.04677714 -0.02228233
v 0.07190671 -0.02873159 -0.00069833
v 0.07329940 -0.03349875 -0.03262552
v 0.07832495 -0.01658018 -0.04397496
v 0.06154333 -0.04454478 -0.02210148
v 0.07585083 -0.02091084 -0.02060857
v 0.07484306 -0.01160662 -0.00941347
v 0.07650404 -0.01392972 -0.02095783
v 0.07238283 -0.03222704 -0.01607130
v 0.06358804 -0.04306237 -0.01690158
v 0.05768703 -0.04594045 -0.02030124
v 0.06536591 -0.04041779 -0.00336735
v 0.07231424 -0.03619146 -0.04227668
v 0.06178285 -0.04295718 -0.00317037
v 0.05521461 -0.04628748 -0.01187089
v 0.06915789 -0.03995026 -0.04147466
v 0.07690202 -0.01669955 -0.02584483
v 0.05024243 -0.04713503 -0.01200641
v 0.05667437 -0.04626068 -0.02252794
v 0.06815992 -0.04093991 -0.04656554
v 0.07488885 -0.02940523 -0.03250098
v 0.07910272 -0.01027650 -0.04968209
v 0.07283302 -0.02692500 -0.00454403
v 0.07697111 -0.01314300 -0.02378488
v 0.06151181 -0.04475730 -0.04931228
v 0.07881620 -0.00956618 -0.04262066
v 0.07682703 -0.01601874 -0.02443121
v 0.07781998 -0.01842411 -0.04028217
v 0.07744946 -0.00586431 -0.02511671
v 0.07661323 -0.02634640 -0.04340973
v 0.06058752 -0.04529660 -0.04074952
v 0.07827458 -0.01862996 -0.04984992
v 0.05777112 -0.04605495 -0.04697194
v 0.07235667 -0.03592080 -0.04043299
v 0.05885208 -0.04568563 -0.04962664
v 0.05950169 -0.04554209 -0.02870590
v 0.05650769 -0.04575660 -0.00926978
v 0.05780083 -0.04606096 -0.04631752
v 0.07502447 -0.02925767 -0.03354014
v 0.05493467 -0.04545395 -0.00434552
v 0.05315532 -0.04724395 -0.03530726
v 0.07099349 -0.03790868 -0.04014420
v 0.06849673 -0.04041015 -0.03783463
v 0.07657834 -0.02656113 -0.04377135
v 0.06443598 -0.04284934 -0.02143096
v 0.07771393 -0.02173945 -0.04655590
v 0.05380846 -0.04560163 -0.00433902
v 0.05093969 -0.04720294 -0.01343452
v 0.05603432 -0.04584082 -0.00873561
v 0.07782239 -0.02176605 -0.04940199
v 0.06657172 -0.04213210 -0.04118497
v 0.07022015 -0.03894495 -0.04347921
v 0.06265049 -0.04430839 -0.04938707
v 0.06911776 -0.03818550 -0.01795995
v 0.07293463 -0.03353111 -0.02850772
v 0.07238621 -0.02878060 -0.00406438
v 0.07591870 -0.02115735 -0.02160208
v 0.07387661 -0.02762413 -0.01442903
v 0.07259157 -0.03321816 -0.02239035
v 0.05116754 -0.04738881 -0.02234435
v 0.07896724 -0.01054922 -0.04690885
v 0.07087028 -0.03821596 -0.04570426
v 0.07642594 -0.00407260 -0.01832224
v 0.06468000 -0.04274357 -0.02243951
v 0.07098648 -0.03376265 -0.00886451
v 0.05986017 -0.04525065 -0.02189466
v 0.07722253 -0.00418332 -0.02344906
v 0.06598918 -0.04234982 -0.03343950
v 0.05347962 -0.04719080 -0.03507986
v 0.07682440 -0.02224547 -0.03374427
v 0.07538003 -0.02837109 -0.03379688
v 0.07220535 -0.03194390 -0.01318252
v 0.06410002 -0.04370067 -0.04096250
v 0.06821082 -0.04061018 -0.03628521
v 0.05003011 -0.04762806 -0.03249671
v 0.07908505 -0.00785174 -0.04675167
v 0.07449388 -0.03230684 -0.04337141
v 0.05836271 -0.04573076 -0.02075945
v 0.06449760 -0.04337673 -0.04956086
v 0.07905790 -0.01067042 -0.04941282
v 0.05300432 -0.04710119 -0.02260489
v 0.07834365 -0.01741403 -0.04746664
v 0.07706156 -0.01513075 -0.02586354
v 0.07910863 -0.00957320 -0.04884316
v 0.07279593 -0.03398879 -0.02999532
v 0.06435491 -0.04351668 -0.03770849
v 0.07297120 -0.03516692 -0.04343000
v 0.05016834 -0.04750063 -0.02025077
v 0.07624408 -0.02391273 -0.03113113
v 0.06296452 -0.04371197 -0.02038225
v 0.07591065 -0.01213497 -0.01650159
v 0.06429829 -0.04318062 -0.02575012
v 0.07653704 -0.02232889 -0.03045724
v 0.06005167 -0.04539000 -0.03022135
v 0.06329856 -0.04249535 -0.00774726
v 0.07521547 -0.02828823 -0.03138577
v 0.07173347 -0.03072405 -0.00370828
v 0.07323409 -0.01476619 -0.00032319
v 0.05790621 -0.04470568 -0.00365900
v 0.05429424 -0.04662573 -0.01386289
v 0.07262483 -0.02672005 -0.00289697
v 0.07552689 -0.02983268 -0.04379613
v 0.07255839 -0.02946638 -0.00716982
v 0.07349684 -0.00894564 -0.00018611
v 0.07758053 -0.01032673 -0.02745802
v 0.07487980 -0.02787692 -0.02609903
v 0.06047606 -0.04459758 -0.01319459
v 0.05533210 -0.04539259 -0.00447955
v 0.05516339 -0.04443955 -0.00008328
v 0.07326740 -0.02115813 -0.00334276
v 0.06339880 -0.04318896 -0.01695911
v 0.06973742 -0.03420617 -0.00066079
v 0.05444915 -0.04579865 -0.00592779
v 0.07639744 -0.00333812 -0.01804623
v 0.07187192 -0.03100180 -0.00616345
v 0.07198468 -0.03667895 -0.04175899
v 0.07772523 -0.01133598 -0.02961270
v 0.07173730 -0.02958359 -0.00098323
v 0.06525268 -0.04277204 -0.03087586
v 0.07398730 -0.02537410 -0.01096853
v 0.07237046 -0.03628444 -0.04626225
v 0.07383106 -0.02735481 -0.01304426
v 0.05786951 -0.04508124 -0.00672071
v 0.07441721 -0.01049365 -0.00633124
v 0.07390973 -0.00000880 -0.00168731
v 0.07265809 -0.02844648 -0.00543369
v 0.07239536 -0.02946142 -0.00553286
v 0.06632498 -0.03966270 -0.00452819
v 0.05090168 -0.04555591 -0.00280424
v 0.06579525 -0.04021802 -0.00470414
v 0.07592088 -0.01905202 -0.01948457
v 0.07423178 -0.00003159 -0.00377867
v 0.05843589 -0.04474477 -0.00539429
v 0.05054235 -0.04725655 -0.01340624
v 0.06006915 -0.04540343 -0.04416837
v 0.05618931 -0.04566630 -0.00766419
v 0.05926846 -0.04555898 -0.04942454
v 0.07091764 -0.03817628 -0.04773398
v 0.05047649 -0.04733354 -0.01476864
v 0.07236704 -0.02525389 -0.00024258
v 0.07087285 -0.03272052 -0.00351823
v 0.07448507 -0.02326206 -0.01250088
v 0.06910855 -0.03826815 -0.01858374
v 0.07379387 -0.03335224 -0.03919736
v 0.07797797 -0.01108305 -0.03225314
v 0.07043439 -0.03393643 -0.00422625
v 0.07084162 -0.03798406 -0.03836907
v 0.07590947 -0.02224285 -0.02349422
v 0.07143371 -0.03509922 -0.02165785
v 0.06630463 -0.03972033 -0.00480351
v 0.07085114 -0.03651694 -0.02448444
v 0.07891363 -0.01008444 -0.04489555
v 0.07344370 -0.02677295 -0.00865146
v 0.07614213 -0.01803854 -0.02047552
v 0.06497364 -0.04320193 -0.04110311
v 0.05287454 -0.04671016 -0.01132839
v 0.07680032 -0.01360804 -0.02276379
v 0.07760991 -0.02291034 -0.04997590
v 0.07791981 -0.00720270 -0.02925008
v 0.07549872 -0.02722720 -0.03136992
v 0.05670246 -0.04459182 -0.00140428
v 0.07291500 -0.03236107 -0.02219875
v 0.06857170 -0.03701677 -0.00434961
v 0.05659023 -0.04471279 -0.00190759
v 0.07570367 -0.02143369 -0.01998362
v 0.07014052 -0.03720646 -0.02099819
v 0.06441332 -0.04141689 -0.00549178
v 0.06002801 -0.04542784 -0.04358792
v 0.07015637 -0.03817225 -0.02989806
v 0.07511244 -0.02294056 -0.01679628
v 0.06020456 -0.04511558 -0.02209781
v 0.07935170 -0.00183580 -0.04916986
v 0.07908706 -0.00188010 -0.04346813
v 0.05273878 -0.04620055 -0.00681914
v 0.07784519 -0.00582699 -0.02808915
v 0.05297018 -0.04729851 -0.03757137
v 0.05534632 -0.04639102 -0.01480843
v 0.07291258 -0.02942975 -0.01073654
v 0.05413070 -0.04678697 -0.01836490
v 0.05286277 -0.04724735 -0.04159100
v 0.06014804 -0.04524897 -0.02608783
v 0.07229286 -0.02964158 -0.00518243
v 0.06713792 -0.04145860 -0.03256164
v 0.07628488 -0.00328630 -0.01731815
v 0.07391031 -0.01054935 -0.00306164
v 0.07179498 -0.03535094 -0.02757231
v 0.07628080 -0.02813289 -0.04954571
v 0.07482941 -0.02483725 -0.01728685
v 0.06782616 -0.04084615 -0.03385837
v 0.07474640 -0.01221785 -0.00899848
f 260 317 799
f 785 317 260
f 199 752 405
f 799 317 31
f 522 317 785
f 785 260 96
f 212 31 317
f 752 31 212
f 212 405 752
f 173 76 237
f 173 752 199
f 199 76 173
f 785 96 659
f 147 86 785
f 767 512 457
f 649 96 260
f 649 659 96
f 118 434 277
f 118 31 752
f 752 434 118
f 86 147 422
f 57 522 459
f 459 522 785
f 785 86 459
f 759 434 752
f 490 457 512
f 512 517 490
f 292 725 490
f 490 517 292
f 688 649 779
f 649 688 707
f 227 534 659
f 659 649 227
f 227 707 534
f 649 707 227
f 482 218 779
f 508 649 260
f 31 118 503
f 524 277 452
f 524 118 277
f 731 725 292
f 731 490 725
f 317 522 662
f 522 233 662
f 295 522 57
f 57 459 34
f 86 422 369
f 752 398 114
f 114 759 752
f 554 657 374
f 401 657 554
f 671 657 401
f 767 581 321
f 144 744 772
f 684 263 90
f 90 720 684
f 792 90 627
f 240 541 151
f 218 541 240
f 151 707 240
f 240 707 688
f 779 218 133
f 218 240 133
f 133 240 688
f 534 707 709
f 659 534 709
f 709 436 659
f 218 482 653
f 266 138 454
f 454 138 482
f 31 503 531
f 118 524 475
f 475 503 118
f 475 138 266
f 482 138 475
f 527 597 398
f 527 398 752
f 752 173 424
f 199 405 157
f 317 662 435
f 807 282 336
f 764 662 233
f 406 295 647
f 307 295 406
f 458 462 680
f 619 462 98
f 154 492 388
f 515 459 86
f 115 515 86
f 65 515 115
f 86 369 122
f 568 369 422
f 516 581 739
f 733 685 488
f 554 374 83
f 83 374 504
f 83 401 554
f 716 374 373
f 272 787 504
f 374 716 272
f 147 814 219
f 219 422 147
f 219 568 422
f 581 516 491
f 144 772 188
f 255 772 333
f 720 90 775
f 775 90 178
f 737 512 767
f 239 192 595
f 595 769 30
f 178 90 134
f 720 775 134
f 134 775 178
f 268 744 144
f 633 90 263
f 263 627 633
f 633 627 90
f 602 517 512
f 489 688 779
f 779 133 489
f 489 133 688
f 631 707 151
f 631 709 707
f 436 709 631
f 649 508 711
f 380 508 260
f 260 312 380
f 657 616 254
f 624 616 448
f 448 616 231
f 231 616 547
f 281 147 785
f 281 814 147
f 373 374 697
f 697 720 373
f 657 548 697
f 266 531 800
f 800 531 503
f 800 475 266
f 503 475 800
f 266 454 526
f 526 531 266
f 586 22 92
f 586 524 452
f 452 22 586
f 144 9 786
f 786 268 144
f 786 475 16
f 614 786 9
f 475 786 614
f 482 475 614
f 452 277 329
f 329 22 452
f 92 22 347
f 437 424 173
f 457 490 437
f 490 731 437
f 157 217 21
f 660 282 104
f 104 662 660
f 200 509 431
f 273 200 396
f 273 509 200
f 283 200 317
f 317 435 283
f 283 282 200
f 283 435 282
f 282 435 345
f 396 200 606
f 200 282 606
f 205 173 237
f 205 365 173
f 462 764 652
f 680 462 652
f 294 764 462
f 522 295 588
f 295 307 588
f 565 105 413
f 406 105 565
f 522 458 706
f 706 458 680
f 706 233 522
f 706 680 233
f 388 492 82
f 82 33 388
f 492 33 82
f 492 265 582
f 346 117 620
f 496 45 743
f 515 45 496
f 459 515 765
f 463 714 335
f 335 369 463
f 356 78 463
f 463 78 593
f 748 515 65
f 748 45 515
f 115 45 748
f 65 115 748
f 418 369 335
f 418 122 369
f 743 555 363
f 640 555 743
f 640 296 714
f 246 296 640
f 640 45 246
f 743 45 640
f 613 38 630
f 78 38 613
f 155 154 388
f 682 712 630
f 630 712 813
f 813 532 630
f 32 776 686
f 4 793 137
f 71 4 137
f 137 348 71
f 206 793 4
f 169 361 636
f 636 410 169
f 504 374 445
f 445 272 504
f 374 272 445
f 733 131 466
f 244 361 686
f 244 636 361
f 671 472 242
f 671 401 339
f 339 472 671
f 400 219 814
f 745 321 581
f 581 491 745
f 699 361 169
f 333 541 251
f 251 255 333
f 151 541 505
f 767 403 183
f 183 737 767
f 313 393 512
f 192 393 313
f 164 192 239
f 164 393 192
f 512 737 81
f 81 313 512
f 797 90 792
f 416 134 797
f 797 302 416
f 797 575 239
f 30 403 167
f 167 595 30
f 728 306 767
f 558 476 359
f 16 475 359
f 433 558 359
f 359 347 433
f 92 347 359
f 300 476 558
f 433 189 300
f 300 558 433
f 189 430 300
f 239 575 111
f 618 598 512
f 618 575 598
f 618 111 575
f 598 575 74
f 627 74 587
f 587 74 575
f 575 797 587
f 792 627 587
f 587 797 792
f 612 772 744
f 635 500 121
f 500 480 121
f 512 598 89
f 292 517 562
f 85 482 779
f 85 454 482
f 195 711 508
f 195 85 711
f 454 85 195
f 291 312 260
f 291 271 312
f 241 616 624
f 624 254 241
f 241 254 616
f 378 548 657
f 378 697 548
f 624 697 378
f 378 254 624
f 28 231 210
f 231 547 210
f 151 28 210
f 785 659 677
f 814 281 101
f 299 281 785
f 720 697 576
f 576 697 176
f 684 720 576
f 449 374 657
f 657 697 449
f 449 697 374
f 563 475 524
f 524 586 563
f 563 586 92
f 259 786 16
f 16 651 259
f 293 653 482
f 482 614 293
f 140 22 597
f 140 347 22
f 597 527 140
f 752 424 591
f 424 1 591
f 381 157 405
f 381 217 157
f 199 157 702
f 702 404 199
f 803 807 336
f 396 807 803
f 157 21 715
f 715 702 157
f 404 702 715
f 282 660 290
f 569 660 662
f 317 200 440
f 200 431 440
f 286 662 104
f 104 282 286
f 282 345 286
f 286 435 662
f 286 345 435
f 484 807 396
f 396 606 484
f 282 807 484
f 484 606 282
f 360 303 540
f 100 604 279
f 342 453 318
f 56 372 342
f 342 318 56
f 233 680 411
f 680 652 411
f 411 764 233
f 411 652 764
f 762 462 12
f 762 294 462
f 764 294 762
f 795 764 762
f 619 98 533
f 232 360 94
f 303 360 232
f 383 295 57
f 383 647 295
f 57 105 383
f 383 105 275
f 406 647 502
f 502 105 406
f 275 105 502
f 469 565 413
f 213 370 107
f 816 810 399
f 601 782 678
f 678 354 601
f 27 458 522
f 426 67 261
f 492 582 672
f 672 637 47
f 507 582 265
f 358 516 739
f 358 581 767
f 767 457 358
f 173 365 358
f 358 437 173
f 457 437 358
f 492 584 371
f 349 265 371
f 371 265 492
f 149 584 492
f 492 154 149
f 126 54 679
f 388 399 124
f 399 54 124
f 124 54 126
f 57 34 487
f 44 496 97
f 44 515 590
f 590 496 44
f 515 496 590
f 459 765 689
f 689 515 44
f 689 765 515
f 356 463 11
f 11 219 356
f 568 219 11
f 771 78 356
f 356 38 771
f 771 38 78
f 425 463 593
f 714 463 425
f 425 640 714
f 630 363 661
f 661 613 630
f 661 363 555
f 609 337 24
f 24 337 175
f 467 4 71
f 71 155 467
f 796 155 71
f 154 155 796
f 71 149 796
f 796 149 154
f 139 813 4
f 532 813 139
f 560 137 15
f 681 348 560
f 348 137 560
f 80 13 252
f 252 773 80
f 80 358 13
f 80 773 516
f 516 358 80
f 447 206 776
f 793 206 447
f 447 137 793
f 252 137 447
f 447 773 252
f 410 170 805
f 585 244 686
f 630 38 585
f 686 682 585
f 585 682 630
f 38 236 585
f 410 636 248
f 248 244 410
f 636 244 248
f 789 170 410
f 410 244 789
f 472 146 320
f 356 219 704
f 566 724 491
f 566 491 516
f 204 724 742
f 204 699 169
f 169 410 204
f 491 724 809
f 724 204 809
f 571 141 218
f 684 576 438
f 438 576 176
f 176 697 655
f 655 438 176
f 330 403 30
f 330 42 403
f 403 42 551
f 551 183 403
f 30 769 143
f 143 81 737
f 159 134 90
f 90 797 159
f 159 797 134
f 595 167 343
f 343 167 302
f 302 797 343
f 239 595 343
f 343 797 239
f 50 809 754
f 50 745 491
f 491 809 50
f 780 451 485
f 223 451 578
f 223 728 767
f 578 728 223
f 780 386 461
f 416 302 461
f 302 186 461
f 302 167 747
f 747 186 302
f 306 728 572
f 767 306 572
f 578 451 344
f 344 728 578
f 656 812 433
f 256 731 292
f 292 812 256
f 751 812 292
f 475 324 802
f 802 359 475
f 92 359 802
f 443 300 430
f 172 476 443
f 476 300 443
f 634 385 292
f 84 121 651
f 84 359 476
f 84 651 16
f 16 359 84
f 84 160 129
f 172 160 84
f 84 476 172
f 598 602 91
f 91 89 598
f 91 602 512
f 512 89 91
f 602 121 520
f 517 602 520
f 520 562 517
f 292 562 253
f 312 271 446
f 454 195 446
f 657 254 328
f 328 378 657
f 254 378 328
f 577 631 151
f 151 210 577
f 436 631 577
f 616 617 621
f 621 617 785
f 785 677 621
f 6 281 671
f 671 101 6
f 6 101 281
f 60 101 671
f 281 299 197
f 671 281 197
f 197 657 671
f 494 324 475
f 92 802 494
f 494 802 324
f 268 786 732
f 786 259 732
f 651 612 379
f 379 259 651
f 379 732 259
f 268 732 379
f 744 268 379
f 379 612 744
f 570 293 614
f 570 614 188
f 653 293 570
f 570 188 772
f 772 255 570
f 570 255 218
f 218 141 570
f 424 437 397
f 437 690 397
f 513 690 437
f 262 408 243
f 262 664 676
f 396 803 220
f 220 21 217
f 645 715 409
f 342 290 665
f 665 290 660
f 665 453 342
f 665 569 453
f 660 569 665
f 336 282 603
f 282 290 603
f 196 604 100
f 100 360 196
f 94 360 521
f 521 70 94
f 521 360 100
f 100 279 153
f 153 279 136
f 365 70 153
f 539 561 365
f 12 462 658
f 55 533 632
f 342 372 663
f 663 106 342
f 579 232 53
f 102 232 579
f 579 67 102
f 540 303 468
f 540 52 641
f 553 117 136
f 553 641 52
f 553 52 426
f 136 279 553
f 620 117 553
f 553 426 620
f 36 469 287
f 287 469 413
f 643 469 36
f 36 54 643
f 643 54 399
f 474 746 486
f 377 713 601
f 601 354 377
f 354 746 377
f 810 816 125
f 307 678 493
f 594 678 307
f 594 307 406
f 354 678 594
f 406 565 594
f 565 107 594
f 594 107 370
f 174 782 601
f 174 700 782
f 601 713 174
f 713 700 174
f 332 533 98
f 332 98 462
f 462 700 332
f 782 700 193
f 557 67 478
f 557 261 67
f 113 507 620
f 582 507 113
f 681 142 201
f 252 13 790
f 739 581 64
f 64 358 739
f 581 358 64
f 13 358 235
f 235 790 13
f 777 142 681
f 584 149 442
f 71 348 442
f 442 149 71
f 388 124 48
f 48 546 388
f 441 546 48
f 669 546 441
f 395 155 388
f 388 546 395
f 622 236 120
f 15 137 264
f 137 26 264
f 309 26 529
f 529 26 137
f 252 790 529
f 529 235 309
f 790 235 529
f 529 137 252
f 776 206 285
f 285 206 4
f 4 184 285
f 4 813 778
f 778 184 4
f 773 768 545
f 516 773 545
f 545 768 516
f 776 32 692
f 692 447 776
f 692 32 686
f 733 488 538
f 730 204 410
f 730 809 204
f 754 809 730
f 350 466 131
f 219 400 135
f 506 38 356
f 516 768 41
f 41 566 516
f 535 204 742
f 699 204 535
f 218 653 158
f 158 571 218
f 505 655 17
f 17 28 151
f 151 505 17
f 737 183 549
f 183 551 549
f 234 143 769
f 81 143 234
f 416 461 564
f 564 461 386
f 194 386 780
f 780 485 194
f 194 485 386
f 451 50 753
f 753 485 451
f 321 745 629
f 745 223 629
f 767 321 629
f 629 223 767
f 683 50 451
f 451 223 683
f 745 50 683
f 683 223 745
f 384 572 728
f 767 572 384
f 341 451 780
f 812 656 414
f 414 256 812
f 433 347 414
f 414 656 433
f 731 256 414
f 414 437 731
f 414 513 437
f 292 385 455
f 455 751 292
f 812 751 325
f 325 189 433
f 433 812 325
f 325 430 189
f 305 121 602
f 598 74 758
f 758 74 627
f 758 602 598
f 758 305 602
f 574 758 627
f 574 627 263
f 718 84 129
f 129 385 718
f 385 634 718
f 635 121 784
f 121 84 784
f 338 634 292
f 312 446 703
f 703 446 195
f 673 547 616
f 616 621 673
f 671 242 327
f 327 60 671
f 475 563 625
f 625 494 475
f 347 140 8
f 8 694 347
f 741 591 1
f 243 408 187
f 408 221 187
f 404 123 600
f 257 21 696
f 257 368 21
f 257 696 336
f 336 603 257
f 708 368 14
f 14 127 211
f 342 106 61
f 61 106 215
f 396 220 315
f 315 220 217
f 696 21 668
f 668 220 696
f 21 220 668
f 696 220 150
f 150 220 803
f 404 715 596
f 715 645 596
f 596 123 404
f 224 479 596
f 596 479 123
f 761 221 224
f 224 596 761
f 761 596 645
f 761 645 409
f 687 368 708
f 21 368 687
f 708 14 687
f 687 14 179
f 610 761 409
f 77 43 94
f 580 70 365
f 365 43 580
f 43 77 580
f 481 232 94
f 232 481 615
f 615 481 477
f 202 664 165
f 676 664 202
f 202 477 676
f 232 615 202
f 791 367 667
f 367 674 667
f 735 667 740
f 205 561 736
f 561 539 736
f 365 205 736
f 736 539 365
f 791 43 788
f 788 367 791
f 788 43 365
f 365 561 788
f 12 658 319
f 319 762 12
f 795 762 319
f 372 56 623
f 56 319 623
f 623 319 658
f 372 589 721
f 721 663 372
f 165 53 3
f 3 53 232
f 3 202 165
f 232 202 3
f 303 232 208
f 232 102 208
f 270 67 579
f 478 67 270
f 412 270 734
f 579 53 734
f 734 270 579
f 556 52 540
f 540 468 556
f 399 810 701
f 695 594 370
f 354 594 695
f 37 486 746
f 213 810 355
f 810 125 355
f 474 486 355
f 355 125 33
f 355 492 474
f 355 33 492
f 713 377 607
f 632 533 607
f 607 533 713
f 68 678 782
f 68 493 678
f 533 332 465
f 611 700 713
f 611 332 700
f 611 465 332
f 27 193 182
f 458 27 182
f 182 193 700
f 462 458 182
f 182 700 462
f 492 672 691
f 278 265 349
f 349 757 278
f 421 757 349
f 421 777 755
f 142 777 421
f 326 757 639
f 639 346 326
f 326 346 620
f 770 348 681
f 681 201 770
f 95 608 639
f 136 608 95
f 34 314 171
f 171 487 34
f 171 314 679
f 171 679 54
f 523 357 743
f 523 609 24
f 774 669 441
f 501 496 743
f 743 357 501
f 419 124 126
f 126 669 419
f 669 774 419
f 24 395 428
f 428 395 546
f 428 523 24
f 357 523 428
f 648 236 622
f 284 525 310
f 504 787 310
f 787 131 310
f 310 131 733
f 310 83 504
f 401 83 310
f 24 175 297
f 175 301 297
f 73 175 630
f 73 301 175
f 630 532 73
f 148 692 686
f 544 805 170
f 544 538 805
f 472 353 464
f 464 236 38
f 464 353 120
f 464 120 236
f 238 242 472
f 472 168 238
f 472 320 729
f 729 168 472
f 219 135 177
f 146 456 177
f 177 135 320
f 177 320 146
f 177 704 219
f 177 456 704
f 356 704 2
f 704 456 2
f 2 506 356
f 2 456 146
f 2 146 472
f 304 41 768
f 566 41 304
f 373 720 815
f 720 134 815
f 364 350 483
f 483 350 131
f 749 685 733
f 733 466 749
f 605 50 754
f 754 730 605
f 410 805 605
f 605 730 410
f 334 461 186
f 186 747 334
f 334 747 167
f 780 461 180
f 728 344 308
f 308 384 728
f 191 305 781
f 305 758 781
f 772 612 710
f 333 772 710
f 710 612 651
f 145 263 684
f 145 574 263
f 684 438 145
f 438 574 145
f 292 253 817
f 817 338 292
f 817 253 480
f 817 480 500
f 694 741 536
f 347 694 536
f 417 221 211
f 417 187 221
f 190 49 116
f 116 93 190
f 116 262 93
f 408 262 116
f 801 49 190
f 190 740 801
f 801 740 667
f 801 667 674
f 368 257 152
f 58 603 290
f 58 257 603
f 58 290 342
f 58 152 257
f 269 14 368
f 179 14 19
f 211 221 5
f 5 14 211
f 127 14 226
f 423 61 444
f 444 61 599
f 450 61 423
f 342 61 450
f 766 610 409
f 409 715 766
f 675 610 221
f 221 761 675
f 761 610 675
f 94 70 203
f 70 580 203
f 94 109 626
f 750 615 477
f 477 202 750
f 750 202 615
f 352 109 94
f 94 43 352
f 352 43 726
f 726 280 352
f 726 763 420
f 420 280 726
f 420 763 676
f 676 477 420
f 288 43 791
f 726 43 288
f 288 550 726
f 198 740 190
f 763 740 198
f 676 763 198
f 735 740 230
f 230 550 735
f 726 550 230
f 40 561 205
f 40 788 561
f 323 55 372
f 533 55 323
f 619 533 323
f 589 693 72
f 519 55 632
f 632 412 63
f 322 53 165
f 209 412 79
f 412 734 79
f 670 643 399
f 399 701 670
f 486 695 530
f 530 695 370
f 530 355 486
f 530 370 213
f 213 355 530
f 289 746 354
f 289 37 746
f 47 415 51
f 51 415 478
f 478 270 51
f 47 637 738
f 637 432 738
f 722 432 637
f 620 426 722
f 247 746 474
f 492 691 247
f 474 492 247
f 620 507 794
f 794 326 620
f 583 95 639
f 7 470 136
f 136 95 7
f 250 421 755
f 229 583 250
f 757 421 250
f 639 757 250
f 250 583 639
f 136 470 35
f 35 153 136
f 35 358 365
f 365 153 35
f 496 501 228
f 228 97 496
f 126 97 228
f 228 669 126
f 244 585 276
f 25 166 244
f 284 166 25
f 525 648 698
f 698 310 525
f 723 310 733
f 284 310 723
f 692 148 542
f 773 447 542
f 447 692 542
f 686 361 390
f 390 148 686
f 267 464 38
f 472 464 429
f 429 2 472
f 364 483 298
f 298 749 364
f 564 749 298
f 498 483 131
f 498 815 134
f 498 131 787
f 787 272 498
f 498 298 483
f 498 272 716
f 564 298 498
f 498 716 373
f 373 815 498
f 498 134 416
f 416 564 498
f 685 749 528
f 528 488 685
f 386 605 528
f 528 605 805
f 528 538 488
f 805 538 528
f 386 485 460
f 460 605 386
f 485 753 460
f 753 605 460
f 108 753 50
f 311 167 403
f 311 334 167
f 384 334 311
f 311 403 767
f 767 384 311
f 245 334 384
f 245 384 780
f 780 180 245
f 461 334 245
f 245 180 461
f 384 308 650
f 780 384 650
f 650 341 780
f 650 308 344
f 650 344 451
f 451 341 650
f 758 574 654
f 654 781 758
f 191 781 654
f 574 710 654
f 644 541 333
f 333 710 644
f 644 710 574
f 644 505 541
f 644 655 505
f 438 655 644
f 644 574 438
f 811 741 1
f 811 536 741
f 394 316 163
f 163 674 394
f 123 499 382
f 408 499 783
f 224 221 783
f 783 221 408
f 123 479 392
f 392 499 123
f 29 674 163
f 29 801 674
f 342 537 567
f 567 58 342
f 368 152 402
f 402 269 368
f 14 269 471
f 471 226 14
f 471 269 628
f 187 417 727
f 599 61 804
f 804 439 599
f 646 423 628
f 646 450 423
f 628 269 646
f 185 537 342
f 342 450 185
f 14 610 214
f 610 766 214
f 214 19 14
f 760 481 94
f 94 626 760
f 372 623 132
f 132 323 372
f 619 323 274
f 274 462 619
f 274 658 462
f 274 623 658
f 274 132 623
f 323 132 274
f 798 519 632
f 798 63 693
f 632 63 798
f 55 519 46
f 46 589 372
f 372 55 46
f 165 638 10
f 638 61 10
f 632 66 427
f 427 412 632
f 209 79 23
f 473 66 632
f 389 672 47
f 47 51 389
f 389 51 592
f 389 691 672
f 39 607 377
f 377 351 39
f 632 607 39
f 162 351 377
f 162 389 592
f 162 377 746
f 331 722 426
f 391 250 755
f 207 235 358
f 358 35 103
f 103 35 229
f 559 35 470
f 559 583 229
f 229 35 559
f 518 407 244
f 244 276 518
f 244 407 375
f 375 25 244
f 20 525 284
f 284 25 20
f 666 648 622
f 666 698 648
f 310 698 88
f 88 353 472
f 38 506 222
f 222 267 38
f 573 749 564
f 573 528 749
f 573 564 386
f 386 528 573
f 18 605 753
f 121 305 225
f 651 121 225
f 225 654 710
f 199 316 756
f 756 76 199
f 376 499 408
f 376 382 499
f 156 479 224
f 224 783 156
f 801 29 128
f 128 29 600
f 128 600 123
f 243 187 495
f 187 727 495
f 495 262 243
f 642 664 495
f 664 262 495
f 165 642 495
f 514 638 165
f 165 181 514
f 497 181 165
f 72 552 258
f 258 61 215
f 258 552 61
f 340 72 693
f 340 552 72
f 808 693 589
f 808 798 693
f 589 46 808
f 705 10 61
f 112 322 165
f 112 75 322
f 165 10 112
f 510 270 412
f 412 427 510
f 387 473 592
f 66 473 387
f 719 162 746
f 389 162 719
f 691 389 719
f 746 247 719
f 719 247 691
f 432 722 366
f 722 331 366
f 426 261 119
f 119 331 426
f 235 207 110
f 110 391 235
f 250 391 110
f 511 103 229
f 229 250 511
f 362 88 472
f 310 88 362
f 605 18 249
f 50 605 249
f 249 108 50
f 59 710 651
f 59 225 710
f 394 756 216
f 316 394 216
f 216 756 316
f 599 439 543
f 165 495 543
f 543 497 165
f 226 471 806
f 75 340 69
f 69 340 693
f 322 75 69
f 61 552 99
f 99 705 61
f 592 51 717
f 717 387 592
f 651 225 130
f 130 59 651
f 225 59 130
f 161 495 727
f 161 543 495
f 599 543 161
f 161 727 226
f 226 806 161
f 693 23 87
f 87 69 693
f 62 23 79
f 62 87 23
f 144 188 614
f 614 9 144
f 434 759 329
f 277 434 329
f 329 114 398
f 398 597 329
f 759 114 329
f 597 22 329
f 335 714 418
f 246 45 418
f 86 122 418
f 418 115 86
f 418 45 115
f 418 296 246
f 714 296 418
f 136 117 608
f 608 346 639
f 117 346 608
f 218 255 251
f 251 541 218
f 512 393 618
f 618 164 239
f 393 164 618
f 239 111 618
f 779 649 85
f 649 711 85
f 502 383 275
f 647 383 502
f 11 463 369
f 369 568 11
f 78 613 661
f 593 78 661
f 555 640 661
f 661 425 593
f 640 425 661
f 253 520 121
f 562 520 253
f 253 121 480
f 799 31 446
f 446 260 799
f 446 526 454
f 446 291 260
f 31 531 446
f 531 526 446
f 271 291 446
f 197 616 657
f 197 299 785
f 785 617 197
f 197 617 616
f 664 642 165
f 70 521 153
f 153 521 100
f 604 196 553
f 553 360 540
f 553 279 604
f 553 196 360
f 540 641 553
f 388 33 125
f 125 399 388
f 125 816 399
f 44 97 314
f 314 34 459
f 459 689 314
f 126 679 314
f 314 97 126
f 314 689 44
f 778 682 686
f 686 776 778
f 712 682 778
f 778 813 712
f 776 285 778
f 778 285 184
f 141 571 158
f 158 570 141
f 653 570 158
f 624 448 17
f 17 448 231
f 17 697 624
f 17 231 28
f 17 655 697
f 549 330 30
f 549 143 737
f 42 330 549
f 549 551 42
f 30 143 549
f 769 595 234
f 234 595 192
f 192 313 234
f 313 81 234
f 325 385 129
f 325 160 172
f 129 160 325
f 172 443 325
f 325 455 385
f 325 443 430
f 751 455 325
f 703 380 312
f 508 380 703
f 703 195 508
f 659 436 673
f 436 577 673
f 673 677 659
f 673 210 547
f 673 577 210
f 673 621 677
f 625 563 92
f 92 494 625
f 752 591 741
f 741 527 752
f 741 140 527
f 741 8 140
f 694 8 741
f 405 212 315
f 315 212 317
f 315 273 396
f 315 381 405
f 317 440 315
f 315 431 509
f 509 273 315
f 217 381 315
f 315 440 431
f 150 803 336
f 336 696 150
f 662 764 319
f 319 318 453
f 319 56 318
f 319 764 795
f 319 569 662
f 453 569 319
f 426 52 556
f 556 468 303
f 556 67 426
f 556 102 67
f 303 208 556
f 556 208 102
f 522 588 68
f 68 27 522
f 68 588 307
f 307 493 68
f 68 193 27
f 782 193 68
f 533 465 611
f 713 533 611
f 770 421 349
f 770 442 348
f 349 371 770
f 770 371 584
f 770 201 142
f 584 442 770
f 142 421 770
f 36 287 171
f 57 487 171
f 171 105 57
f 413 105 171
f 171 54 36
f 171 287 413
f 630 175 523
f 743 363 523
f 523 363 630
f 337 609 523
f 523 175 337
f 419 774 441
f 441 48 419
f 419 48 124
f 73 395 24
f 4 467 73
f 73 139 4
f 73 467 155
f 532 139 73
f 155 395 73
f 24 297 73
f 73 297 301
f 814 101 729
f 729 400 814
f 729 135 400
f 729 327 242
f 101 60 729
f 242 238 729
f 320 135 729
f 60 327 729
f 729 238 168
f 749 350 364
f 466 350 749
f 817 500 635
f 635 784 817
f 817 718 634
f 84 718 817
f 817 784 84
f 634 338 817
f 5 610 14
f 221 610 5
f 203 580 77
f 203 77 94
f 735 550 288
f 791 667 288
f 288 667 735
f 190 93 198
f 198 262 676
f 93 262 198
f 230 740 763
f 230 763 726
f 469 643 670
f 670 107 565
f 670 810 213
f 565 469 670
f 213 107 670
f 670 701 810
f 289 695 486
f 354 695 289
f 486 37 289
f 637 672 722
f 722 113 620
f 722 672 582
f 582 113 722
f 265 278 794
f 794 507 265
f 794 278 757
f 757 326 794
f 546 669 228
f 228 501 357
f 228 428 546
f 357 428 228
f 170 789 723
f 723 544 170
f 244 166 723
f 733 538 723
f 723 789 244
f 723 166 284
f 538 544 723
f 742 724 390
f 390 535 742
f 361 699 390
f 724 566 390
f 390 768 773
f 773 542 390
f 699 535 390
f 390 304 768
f 566 304 390
f 390 542 148
f 811 414 347
f 811 1 424
f 424 397 811
f 811 397 690
f 690 513 811
f 513 414 811
f 347 536 811
f 404 600 29
f 199 404 29
f 29 316 199
f 163 316 29
f 727 417 211
f 211 127 727
f 127 226 727
f 152 58 185
f 185 646 269
f 185 567 537
f 185 402 152
f 58 567 185
f 269 402 185
f 450 646 185
f 214 766 715
f 214 715 21
f 179 19 214
f 21 687 214
f 214 687 179
f 477 481 760
f 760 626 109
f 109 352 760
f 760 420 477
f 760 352 280
f 280 420 760
f 23 63 412
f 23 412 209
f 693 63 23
f 632 39 162
f 162 473 632
f 592 473 162
f 162 39 351
f 391 26 309
f 15 264 391
f 681 560 391
f 309 235 391
f 391 777 681
f 391 560 15
f 755 777 391
f 391 264 26
f 95 583 559
f 470 7 559
f 559 7 95
f 236 648 20
f 20 585 236
f 20 276 585
f 20 648 525
f 20 375 407
f 407 518 20
f 20 518 276
f 25 375 20
f 622 120 88
f 120 353 88
f 88 666 622
f 698 666 88
f 506 2 222
f 222 429 464
f 464 267 222
f 2 429 222
f 191 654 225
f 225 305 191
f 756 394 674
f 237 76 756
f 756 205 237
f 367 788 756
f 756 40 205
f 756 674 367
f 788 40 756
f 156 783 499
f 156 392 479
f 499 392 156
f 408 116 128
f 128 376 408
f 128 116 49
f 49 801 128
f 123 382 128
f 382 376 128
f 589 72 258
f 215 106 258
f 258 721 589
f 106 663 258
f 663 721 258
f 808 46 519
f 519 798 808
f 119 557 478
f 119 415 47
f 478 415 119
f 47 738 119
f 261 557 119
f 119 738 432
f 432 366 119
f 119 366 331
f 358 103 511
f 511 207 358
f 250 110 511
f 511 110 207
f 362 339 401
f 401 310 362
f 472 339 362
f 249 18 753
f 753 108 249
f 181 497 543
f 543 61 638
f 543 804 61
f 439 804 543
f 638 514 543
f 543 514 181
f 552 340 99
f 99 340 75
f 99 112 10
f 10 705 99
f 75 112 99
f 270 510 717
f 717 51 270
f 717 427 66
f 717 510 427
f 66 387 717
f 423 444 161
f 628 423 161
f 161 444 599
f 161 471 628
f 161 806 471
f 53 322 62
f 62 734 53
f 62 79 734
f 322 69 62
f 69 87 62

