# https://github.com/mikedh/trimesh
v 0.09189439 0.02517496 -0.01165809
v 0.09960210 0.03356360 -0.02071655
v 0.07519255 0.03413795 -0.01938461
v 0.07531056 0.02734976 -0.01493511
v 0.08862161 0.03530561 -0.02296846
v 0.09146889 0.03528397 -0.02352117
v 0.08999578 0.02506151 -0.01350518
v 0.07996266 0.03496067 -0.02098724
v 0.07533879 0.03625408 -0.02485625
v 0.08703864 0.03460192 -0.02079973
v 0.09999929 0.03485565 -0.02473537
v 0.09774713 0.03410318 -0.02144353
v 0.09975665 0.03044727 -0.01803150
v 0.08772815 0.03518143 -0.02246531
v 0.07649308 0.03591523 -0.02358272
v 0.08084895 0.03423634 -0.01982510
v 0.07546860 0.03407801 -0.01930711
v 0.07536273 0.03544739 -0.02211002
v 0.07582470 0.03619070 -0.02459459
v 0.07576389 0.03605676 -0.02403691
v 0.07722907 0.03603943 -0.02397975
v 0.08917011 0.03576495 -0.02454994
v 0.09782563 0.02550866 -0.01324336
v 0.07588451 0.03435256 -0.01974825
v 0.09937446 0.03471105 -0.02390646
v 0.08419021 0.03472936 -0.02076884
v 0.09204420 0.03524786 -0.02354253
v 0.08161065 0.03589624 -0.02400966
v 0.08591217 0.03434652 -0.02028221
v 0.09318716 0.03428120 -0.02099062
v 0.08847400 0.03500887 -0.02209200
v 0.07664737 0.03505492 -0.02097611
v 0.08602083 0.03568915 -0.02384483
v 0.09942743 0.02708560 -0.01506395
v 0.07650756 0.03514173 -0.02122062
v 0.08425526 0.03489725 -0.02118717
v 0.07503538 0.02592295 -0.00754305
v 0.09565081 0.02536380 -0.01251727
v 0.07620313 0.03538649 -0.02192332
v 0.08493245 0.02536239 -0.01500006
v 0.08325511 0.03584878 -0.02404812
v 0.07514018 0.02542708 -0.00686530
v 0.09692784 0.03461087 -0.02278312
v 0.09105559 0.03570610 -0.02497798
v 0.08434239 0.03431535 -0.02013059
v 0.08778033 0.03533096 -0.02291683
v 0.07725156 0.03402901 -0.01932362
v 0.07505444 0.03249092 -0.01703613
v 0.08066478 0.03444505 -0.02013478
v 0.07500693 0.03101741 -0.01493855
v 0.09996779 0.03465079 -0.02396136
v 0.07653085 0.03598944 -0.02381559
v 0.07988117 0.03614527 -0.02478573
v 0.09857463 0.03340299 -0.02036185
v 0.07509424 0.03607178 -0.02409654
v 0.09921334 0.03501835 -0.02496979
v 0.09174641 0.03431591 -0.02088331
v 0.07593873 0.02567300 -0.01500006
v 0.07586534 0.02506404 -0.00653425
v 0.08785749 0.03548249 -0.02339644
v 0.08990869 0.03561177 -0.02420333
v 0.08004994 0.02518334 -0.00780477
v 0.09060604 0.02510009 -0.01222310
v 0.09964523 0.03464850 -0.02380160
v 0.08902998 0.02537257 -0.01487141
v 0.09981948 0.03440490 -0.02300618
v 0.08811220 0.03427125 -0.02041701
v 0.07519017 0.03530289 -0.02165604
v 0.08011216 0.03597289 -0.02411161
v 0.07769818 0.02521226 -0.01500006
v 0.08170800 0.03482540 -0.02081382
v 0.09880727 0.03469887 -0.02366060
v 0.08334700 0.02502091 -0.00871880
v 0.09161558 0.03536734 -0.02383538
v 0.08114031 0.03437835 -0.02005718
v 0.08747690 0.02500930 -0.00991448
v 0.08610501 0.03507854 -0.02194179
v 0.09629081 0.03382935 -0.02069601
v 0.08704275 0.03593634 -0.02494283
f 70 59 58
f 70 58 9
f 9 56 70
f 62 59 76
f 2 59 62
f 76 59 73
f 59 70 73
f 73 7 76
f 70 7 73
f 23 34 13
f 13 62 23
f 2 62 13
f 13 34 11
f 68 48 3
f 44 56 9
f 38 7 23
f 38 62 76
f 23 62 38
f 65 7 70
f 23 7 65
f 65 56 11
f 65 34 23
f 11 34 65
f 32 68 3
f 37 48 50
f 3 48 37
f 50 4 37
f 79 44 9
f 51 13 11
f 2 13 51
f 51 66 2
f 1 38 76
f 40 70 56
f 56 65 40
f 40 65 70
f 71 32 24
f 24 32 3
f 24 26 71
f 29 26 45
f 45 37 29
f 42 59 2
f 58 59 42
f 29 37 42
f 42 4 58
f 42 37 4
f 10 26 29
f 31 10 30
f 2 66 12
f 12 30 2
f 48 68 55
f 50 48 55
f 55 4 50
f 9 58 55
f 58 4 55
f 33 60 22
f 44 79 22
f 56 44 22
f 22 61 56
f 56 72 25
f 25 72 66
f 74 61 27
f 27 72 74
f 56 61 74
f 74 72 56
f 7 38 63
f 38 1 63
f 76 7 63
f 63 1 76
f 37 45 47
f 26 24 49
f 49 45 26
f 2 30 78
f 29 30 57
f 57 10 29
f 30 10 57
f 26 10 36
f 10 31 36
f 36 8 26
f 43 72 27
f 27 12 43
f 66 72 43
f 43 12 66
f 18 55 68
f 20 55 18
f 19 21 9
f 20 21 19
f 53 79 9
f 9 21 53
f 14 31 5
f 61 22 5
f 5 22 60
f 5 31 30
f 30 12 5
f 41 22 79
f 33 22 41
f 66 51 64
f 64 25 66
f 39 36 21
f 8 36 39
f 3 37 17
f 37 47 17
f 16 47 45
f 54 42 2
f 2 78 54
f 54 78 42
f 29 42 67
f 42 78 67
f 67 30 29
f 67 78 30
f 77 31 14
f 77 36 31
f 77 60 21
f 21 36 77
f 52 21 20
f 20 18 52
f 6 12 27
f 6 5 12
f 27 61 6
f 61 5 6
f 79 53 69
f 69 53 21
f 32 8 35
f 8 39 35
f 35 39 68
f 68 32 35
f 45 49 75
f 75 16 45
f 46 77 14
f 60 77 46
f 14 5 46
f 46 5 60
f 15 39 21
f 21 52 15
f 28 41 79
f 79 69 28
f 28 69 21
f 33 41 28
f 28 60 33
f 21 60 28
f 71 26 8
f 8 32 71
f 19 55 20
f 9 55 19
f 64 51 11
f 11 56 64
f 56 25 64
f 75 49 24
f 75 24 3
f 3 17 75
f 75 17 47
f 47 16 75
f 15 18 68
f 68 39 15
f 15 52 18

