# https://github.com/mikedh/trimesh
v -0.01567418 -0.00883310 0.02294518
v -0.00088750 -0.00871854 0.02864951
v -0.00192369 -0.01353763 0.02667574
v -0.01698493 -0.00123105 0.02468533
v -0.01507382 -0.00968176 0.02405637
v -0.01628025 -0.00588394 0.02448668
v -0.00065657 -0.00032226 0.02995227
v -0.01548137 -0.00207217 0.02558463
v -0.00047672 -0.01797731 0.02381999
v -0.01684452 -0.00584208 0.02411556
v -0.00196777 -0.01786827 0.02209847
v -0.00471306 -0.00391670 0.02934914
v -0.00802051 -0.01610314 0.02381176
v -0.00122929 -0.01393279 0.02652571
v -0.00690161 -0.00868567 0.02785884
v -0.00416907 -0.00634115 0.02900224
v -0.00982605 -0.01506807 0.02384616
v -0.00215343 -0.00230684 0.02980851
v -0.01707513 -0.00513802 0.02411840
v -0.00477961 -0.00690388 0.02879682
v -0.01750445 -0.00413330 0.02117220
v -0.00542028 -0.00240898 0.02938684
v -0.00608126 -0.00024411 0.02934984
v -0.00649514 -0.00640337 0.02855526
v -0.01534864 -0.00748597 0.02463739
v -0.00323897 -0.00475298 0.02943258
v -0.01625358 -0.00760197 0.02100093
v -0.01794870 -0.00120317 0.02261666
v -0.00359982 -0.00933041 0.02827790
v -0.01396866 -0.00785430 0.02533980
v -0.00623501 -0.01063140 0.02732645
v -0.00342264 -0.00423488 0.02948101
v -0.00490318 -0.01642802 0.02460038
v -0.01680343 -0.00101680 0.02482270
v -0.00579708 -0.01703203 0.02382989
v -0.01716542 -0.00160936 0.02453069
v -0.00532755 -0.00047672 0.02950730
v -0.00535056 -0.00002720 0.02950139
v -0.00642173 -0.00248973 0.02918516
v -0.00751875 -0.01532498 0.02464525
v -0.01566758 -0.00882698 0.02177963
v -0.01612635 -0.00557770 0.02465936
v -0.01496503 -0.00908982 0.02433084
v -0.00376002 -0.01262210 0.02692828
v -0.01668877 -0.00280172 0.02473101
v -0.01586144 -0.00176738 0.02537281
v -0.01355095 -0.00965451 0.02492432
v -0.00822392 -0.00640856 0.02809736
v -0.00522311 -0.01721756 0.02195895
v -0.01022445 -0.00502962 0.02772175
v -0.01083358 -0.00154534 0.02791902
v -0.00129647 -0.00238098 0.02984245
v -0.00464000 -0.01736959 0.02225536
v -0.01395147 -0.00370046 0.02627242
v -0.00845766 -0.01586208 0.02321818
v -0.01453736 -0.01050636 0.02404147
v -0.01168431 -0.01367340 0.02319395
v -0.00744340 -0.00800579 0.02790903
v -0.01387868 -0.00104099 0.02656722
v -0.00097997 -0.00853452 0.02869787
v -0.00805117 -0.00439892 0.02854440
v -0.00130233 -0.01175012 0.02755543
v -0.00428810 -0.01457364 0.02584805
v -0.00325093 -0.01434321 0.02611604
v -0.00524738 -0.01560139 0.02506916
v -0.00303413 -0.01196665 0.02731483
v -0.00967045 -0.00111830 0.02833374
v -0.00855624 -0.00725064 0.02781840
v -0.01098506 -0.01213920 0.02510348
v -0.00057208 -0.00854633 0.02870803
v -0.01739713 -0.00455915 0.02383498
v -0.01196095 -0.00690251 0.02661740
v -0.01708278 -0.00417165 0.02430188
v -0.00272045 -0.01173809 0.02745561
v -0.00109746 -0.01552140 0.02562046
v -0.00686632 -0.01624976 0.02424791
v -0.00559943 -0.01709562 0.02277651
v -0.00244515 -0.00547338 0.02936280
v -0.00234830 -0.00400383 0.02960257
v -0.00588257 -0.00445123 0.02905828
v -0.01234670 -0.01308035 0.02194609
v -0.00407162 -0.01513677 0.02555876
v -0.00456296 -0.00969485 0.02801008
v -0.00144942 -0.01625237 0.02514934
v -0.00491323 -0.01517126 0.02538964
v -0.00376445 -0.00583449 0.02915786
v -0.01029982 -0.00547373 0.02762791
v -0.01614244 -0.00784347 0.02403174
v -0.00422802 -0.01633311 0.02478237
v -0.00966694 -0.00861195 0.02703429
v -0.00235869 -0.01783312 0.02182482
v -0.01583365 -0.00042369 0.02545026
v -0.00567331 -0.01311257 0.02637665
v -0.00030585 -0.01091267 0.02790435
v -0.01418884 -0.01106197 0.02371496
v -0.01124808 -0.00699607 0.02689752
v -0.01552781 -0.00908656 0.02317913
v -0.00953028 -0.01525733 0.02345105
v -0.01187775 -0.01347557 0.02100000
v -0.00510278 -0.00831734 0.02834247
v -0.00355095 -0.00362634 0.02954153
v -0.01225113 -0.01317616 0.02373844
v -0.01414867 -0.00467494 0.02601606
v -0.01725722 -0.00380258 0.02423478
v -0.01794597 -0.00040900 0.02402827
v -0.00255779 -0.00332826 0.02966957
v -0.01216233 -0.00371046 0.02714382
v -0.01778816 -0.00003134 0.02414726
v -0.01116086 -0.00993534 0.02598480
v -0.00806218 -0.01608244 0.02398123
v -0.01561451 -0.00750603 0.02446589
v -0.00006253 -0.01691552 0.02100000
v -0.00929451 -0.01525933 0.02407845
v -0.00537007 -0.01612617 0.02471059
v -0.01306619 -0.00810752 0.02572594
v -0.00703606 -0.00462003 0.02875758
v -0.00481343 -0.01731680 0.02143358
v -0.01568140 -0.00881967 0.02294330
v -0.01355614 -0.00510052 0.02625091
v -0.00445298 -0.01245034 0.02691728
v -0.01786753 -0.00120963 0.02100000
v -0.00714524 -0.00536836 0.02862575
v -0.00424393 -0.01399789 0.02618074
v -0.00353906 -0.01268473 0.02692778
v -0.00519449 -0.01586196 0.02492283
v -0.00788964 -0.00813109 0.02775586
v -0.00236385 -0.01157680 0.02756350
v -0.01649814 -0.00716245 0.02387758
v -0.00335387 -0.00927822 0.02832414
v -0.00426823 -0.00539100 0.02918120
v -0.01733235 -0.00433412 0.02409456
v -0.00542641 -0.01016973 0.02769182
v -0.00287420 -0.01572314 0.02537515
v -0.01192793 -0.00398534 0.02721238
v -0.01057479 -0.00847669 0.02674817
v -0.00219518 -0.01785576 0.02307415
v -0.00466854 -0.01543430 0.02529410
v -0.00251190 -0.01186094 0.02742037
v -0.01010883 -0.01488370 0.02217440
v -0.01005407 -0.00318275 0.02806108
v -0.01077771 -0.00948637 0.02630992
v -0.00417621 -0.00280679 0.02955419
v -0.00250863 -0.01781586 0.02284155
v -0.01423119 -0.01100787 0.02338081
v -0.01300580 -0.00735348 0.02596772
v -0.01798016 -0.00008719 0.02382262
v -0.00941879 -0.00798599 0.02731360
v -0.01027036 -0.01477089 0.02398068
v -0.00489958 -0.00356389 0.02936310
v -0.00000465 -0.01247577 0.02724903
v -0.00347164 -0.00985304 0.02809948
v -0.00597116 -0.01636638 0.02441039
v -0.01286368 -0.00490297 0.02661726
v -0.01089636 -0.01362086 0.02437563
v -0.00358518 -0.00234253 0.02968942
v -0.00019878 -0.00053507 0.02996327
v -0.01627513 -0.00364103 0.02490834
v -0.01451181 -0.00860752 0.02476267
v -0.01089497 -0.00931234 0.02632491
v -0.00002198 -0.01419378 0.02640919
v -0.00048238 -0.00457560 0.02961391
v -0.00707369 -0.01653447 0.02308728
v -0.01624930 -0.00706683 0.02419267
v -0.00907128 -0.01040215 0.02661884
v -0.01517390 -0.00965909 0.02328517
v -0.00736234 -0.01224741 0.02634698
v -0.01568171 -0.00881981 0.02386196
v -0.00688370 -0.00232006 0.02909746
v -0.00586921 -0.01302065 0.02636960
v -0.00371058 -0.00631545 0.02906842
v -0.00008645 -0.01798780 0.02108790
v -0.01378050 -0.01156021 0.02261662
v -0.00220913 -0.01340014 0.02672286
v -0.00655454 -0.01215217 0.02661086
v -0.00679885 -0.00499782 0.02876140
v -0.00000617 -0.00776134 0.02894681
v -0.01669666 -0.00435813 0.02452911
v -0.01412456 -0.00771617 0.02529763
v -0.01776265 -0.00082856 0.02414927
v -0.01090455 -0.01397271 0.02418454
v -0.01381205 -0.00000304 0.02490931
v -0.01037124 -0.01466064 0.02100000
v -0.00127362 -0.01774571 0.02414104
v -0.01665066 -0.00680549 0.02213912
v -0.00565617 -0.01705018 0.02105132
v -0.00129539 -0.01775996 0.02412990
v -0.01281199 -0.01257509 0.02146869
v -0.00604266 -0.01693799 0.02318190
v -0.00275751 -0.01777220 0.02135611
v -0.01320780 -0.00030242 0.02690634
v -0.01677394 -0.00013541 0.02100000
v -0.01342295 -0.00896455 0.02526744
v -0.01762182 -0.00290648 0.02409243
v -0.00123547 -0.01208549 0.02740054
v -0.01709269 -0.00556783 0.02382614
v -0.01437246 -0.00031148 0.02630229
v -0.00242372 -0.01686834 0.02465844
v -0.00638849 -0.01592747 0.02458028
v -0.00485620 -0.01413936 0.02599181
v -0.01461186 -0.00831745 0.02480581
v -0.00397073 -0.01750501 0.02403496
v -0.01594632 -0.00553171 0.02478986
v -0.00718002 -0.01136784 0.02680044
v -0.00153414 -0.01398034 0.02647815
v -0.01773074 -0.00190421 0.02411310
v -0.01016239 -0.00918000 0.02667004
v -0.01307662 -0.00566331 0.02639203
v -0.00672307 -0.00877974 0.02786748
v -0.00257803 -0.01774601 0.02404666
v -0.00420260 -0.01727439 0.02415285
v -0.00552641 -0.00340401 0.02927135
v -0.00398719 -0.00737085 0.02879560
v -0.01345151 -0.00089267 0.02677519
v -0.00945675 -0.00324991 0.02826347
v -0.00752426 -0.01129715 0.02673546
v -0.00248687 -0.00799258 0.02877368
v -0.01080470 -0.01437525 0.02400672
v -0.01374119 -0.00646737 0.02584145
v -0.01734633 -0.00234572 0.02433851
v -0.01211563 -0.01265527 0.02433199
v -0.01701292 -0.00562873 0.02100000
v -0.00912047 -0.00378139 0.02830291
v -0.00256082 -0.01553954 0.02551156
v -0.01303974 -0.01157724 0.02440348
v -0.00881083 -0.00755802 0.02764462
v -0.00452918 -0.01385262 0.02621973
v -0.01454695 -0.00157737 0.02616184
v -0.00272096 -0.00867730 0.02855461
v -0.00274966 -0.01777752 0.02392634
v -0.01100461 -0.01130950 0.02548305
v -0.01420839 -0.00362463 0.02614271
v -0.00172810 -0.01181845 0.02749545
v -0.00544673 -0.00023072 0.02948367
v -0.01795246 -0.00120009 0.02351966
v -0.01379816 -0.01153928 0.02230564
v -0.01035402 -0.01470619 0.02240643
v -0.00656086 -0.01154517 0.02687382
v -0.01333364 -0.01012447 0.02484561
v -0.00010288 -0.01798934 0.02307840
v -0.01756994 -0.00387539 0.02319094
v -0.00679309 -0.01222402 0.02651623
v -0.01049852 -0.01461154 0.02383208
v -0.01172673 -0.01080915 0.02537915
v -0.01225935 -0.00507931 0.02687894
v -0.00353902 -0.01021796 0.02795647
v -0.01235520 -0.00859761 0.02591405
v -0.01580412 -0.00858400 0.02386129
v -0.01098928 -0.01165104 0.02533022
v -0.01369254 -0.00962376 0.02486244
v -0.01788200 -0.00190919 0.02263174
v -0.01137497 -0.00737957 0.02674799
v -0.00395664 -0.01741404 0.02409841
v -0.01142908 -0.01025795 0.02575395
v -0.01784110 -0.00087049 0.02100000
v -0.00717766 -0.01219898 0.02642251
v -0.01558244 -0.00899496 0.02195575
v -0.01278103 -0.00289885 0.02697658
v -0.00678964 -0.01665003 0.02314918
v -0.00581620 -0.01316409 0.02631185
v -0.00783611 -0.01238698 0.02614548
v -0.00090125 -0.01796365 0.02372446
v -0.00686607 -0.00913256 0.02771887
v -0.00356269 -0.00137853 0.02973014
v -0.00242482 -0.01600211 0.02524672
v -0.00993510 -0.00247511 0.02818919
v -0.00007245 -0.01105217 0.02785684
v -0.00479733 -0.00196091 0.02953900
v -0.00471900 -0.01303833 0.02659747
v -0.00975631 -0.00339329 0.02813525
v -0.00512425 -0.01253857 0.02675514
v -0.01529817 -0.00614976 0.02504490
v -0.00609373 -0.01679996 0.02409105
v -0.00242192 -0.00365319 0.02964144
v -0.00474160 -0.01734756 0.02239108
v -0.01232570 -0.00949158 0.02562706
v -0.01507808 -0.00204876 0.02582513
v -0.01651385 -0.00712566 0.02304305
v -0.00495586 -0.01054046 0.02763930
v -0.00646154 -0.01447561 0.02544083
v -0.00488045 -0.01711035 0.02414427
v -0.00239957 -0.00153205 0.02982871
v -0.00748791 -0.01634193 0.02103367
v -0.00487088 -0.01731721 0.02314049
v -0.00227787 -0.01290737 0.02694947
v -0.01782019 -0.00132814 0.02409374
v -0.01653565 -0.00707465 0.02280361
v -0.01176716 -0.01357008 0.02111706
v -0.00238690 -0.01469576 0.02601196
v -0.01390572 -0.00773200 0.02541076
v -0.00403229 -0.00534315 0.02922152
v -0.01747693 -0.00425338 0.02209933
v -0.01375019 -0.01157019 0.02144612
v -0.00897697 -0.01546467 0.02406537
v -0.01357511 -0.00172700 0.02667842
v -0.00529906 -0.01666681 0.02436156
v -0.01728332 -0.00384248 0.02421186
v -0.00000887 -0.01574992 0.02551578
v -0.00922839 -0.00943106 0.02691269
v -0.00001223 -0.00055869 0.02848437
v -0.00279010 -0.00478009 0.02947008
v -0.00060336 -0.01389743 0.02656410
v -0.00983123 -0.00027120 0.02831252
v -0.00093547 -0.01314664 0.02690932
v -0.00671686 -0.01191600 0.02667919
v -0.00654247 -0.01674840 0.02330669
v -0.00006208 -0.01592612 0.02541418
v -0.01134168 -0.00143373 0.02772268
v -0.01793412 -0.00142302 0.02392225
v -0.00880012 -0.01567086 0.02346547
v -0.00023424 -0.00398107 0.02969655
v -0.00441125 -0.01689981 0.02437110
v -0.01421233 -0.01103196 0.02353743
v -0.00235351 -0.00666055 0.02912736
v -0.01696575 -0.00379770 0.02443512
v -0.01065110 -0.00893589 0.02655998
v -0.00690314 -0.00567002 0.02863127
v -0.01148937 -0.00957037 0.02597336
v -0.01602287 -0.00535511 0.02477483
v -0.00528868 -0.00114794 0.02949607
v -0.01615082 -0.00703043 0.02426571
v -0.01169940 -0.01363903 0.02402138
v -0.00544383 -0.01194733 0.02694527
v -0.01070341 -0.00419363 0.02767749
v -0.01406552 -0.00200418 0.02638711
v -0.01787722 -0.00149089 0.02100000
v -0.00019065 -0.00982049 0.02832009
v -0.00477390 -0.01732350 0.02129998
v -0.01760784 -0.00228679 0.02416921
v -0.00486703 -0.01731829 0.02394716
v -0.01554164 -0.00495508 0.02514180
v -0.00858795 -0.00035900 0.02871786
v -0.01458508 -0.00442114 0.02581917
v -0.00238064 -0.00710167 0.02903592
v -0.00778075 -0.01532805 0.02456148
v -0.00339690 -0.00526790 0.02931388
v -0.00444263 -0.00908111 0.02824081
v -0.01632015 -0.00470001 0.02470493
v -0.00181599 -0.00879222 0.02858559
v -0.00550092 -0.00701747 0.02864088
v -0.01164852 -0.00126013 0.02759255
v -0.00023719 -0.01260820 0.02718275
v -0.00462862 -0.01250374 0.02686624
v -0.00706319 -0.00936872 0.02757831
v -0.00062801 -0.00523704 0.02949049
v -0.01121642 -0.00081777 0.02779515
v -0.00693615 -0.01442759 0.02536094
v -0.01076139 -0.01417391 0.02413575
v -0.00452775 -0.00008627 0.02965159
v -0.01042569 -0.01199809 0.02542454
v -0.00252399 -0.00415584 0.02957341
v -0.01652271 -0.00042426 0.02500466
v -0.01769139 -0.00294890 0.02403915
v -0.01765739 -0.00323217 0.02106642
v -0.00299842 -0.00205862 0.02975572
v -0.00623002 -0.00944356 0.02776170
v -0.00985021 -0.00345102 0.02809313
v -0.00208163 -0.01704861 0.02456395
v -0.01003635 -0.00909522 0.02675241
v -0.01564768 -0.00328614 0.02535343
v -0.00211164 -0.00486119 0.02950088
v -0.00545419 -0.01713287 0.02130726
v -0.00975395 -0.00587277 0.02773987
v -0.00514773 -0.00891730 0.02815370
v -0.01374475 -0.00681931 0.02574743
v -0.00446878 -0.00184269 0.02960039
v -0.01756954 -0.00385455 0.02220646
v -0.01650974 -0.00142212 0.02499233
v -0.00003470 -0.01716084 0.02100000
v -0.00018571 -0.00680012 0.02919233
v -0.00495003 -0.01406330 0.02601427
v -0.01637383 -0.00151483 0.02507406
v -0.00708750 -0.01623882 0.02419495
v -0.00105501 -0.00507872 0.02950368
v -0.01478849 -0.00673541 0.02519770
v -0.01018170 -0.00591164 0.02758383
v -0.00921389 -0.00650498 0.02777644
v -0.01167804 -0.01368434 0.02385666
v -0.01011810 -0.01487723 0.02243623
v -0.01145353 -0.00408381 0.02741610
v -0.00841877 -0.00375550 0.02852901
v -0.00588455 -0.01066753 0.02739051
v -0.01032645 -0.01072131 0.02600373
v -0.00352286 -0.00645616 0.02906403
v -0.00440915 -0.01294546 0.02669029
v -0.01793355 -0.00142835 0.02175203
v -0.00458986 -0.00772082 0.02862351
v -0.00436157 -0.01735947 0.02100000
v -0.01298531 -0.01021784 0.02499057
v -0.00326926 -0.01348551 0.02658308
v -0.01061261 -0.00354533 0.02780763
v -0.00786579 -0.00214848 0.02883603
v -0.00693076 -0.00449766 0.02880019
v -0.00526875 -0.00986504 0.02782704
v -0.00019941 -0.01386124 0.02659233
v -0.01786966 -0.00202428 0.02328640
v -0.01333970 -0.00165868 0.02679293
v -0.01132847 -0.00446745 0.02740681
v -0.00452306 -0.01741154 0.02384133
v -0.00152043 -0.00947640 0.02840273
v -0.00860184 -0.01008056 0.02690390
v -0.01302522 -0.01232705 0.02403773
v -0.00332894 -0.01767907 0.02373737
v -0.00550504 -0.01681700 0.02421552
v -0.00054121 -0.00235850 0.02987585
v -0.00742419 -0.01638581 0.02277047
v -0.01552756 -0.00852577 0.02419793
v -0.01232921 -0.01066830 0.02515079
v -0.00640009 -0.00600758 0.02866385
v -0.00340192 -0.01281110 0.02688353
v -0.00639756 -0.00921946 0.02779718
v -0.00130433 -0.01793292 0.02319894
v -0.00783705 -0.01618638 0.02101631
v -0.00527871 -0.00001765 0.02951510
v -0.00625322 -0.00302380 0.02916684
v -0.00000021 -0.00375941 0.02972543
v -0.01384381 -0.01124366 0.02100000
v -0.01528280 -0.00948412 0.02325135
v -0.00521706 -0.00249583 0.02941791
v -0.01077778 -0.00638274 0.02723176
v -0.00357288 -0.01572842 0.02529090
v -0.01786187 -0.00067985 0.02408221
v -0.00800644 -0.00043779 0.02888168
v -0.00798127 -0.01611295 0.02166910
v -0.01006927 -0.00287222 0.02810053
v -0.01036133 -0.00036411 0.02812679
v -0.00711205 -0.01474830 0.02512749
v -0.00454405 -0.00082656 0.02962484
v -0.00639692 -0.01152965 0.02691631
v -0.01675669 -0.00655254 0.02227273
v -0.00499935 -0.01674592 0.02436775
v -0.00706715 -0.01627091 0.02418024
v -0.00124515 -0.00020641 0.02993140
v -0.01573431 -0.00868278 0.02143293
v -0.00568981 -0.01009693 0.02766915
v -0.00347313 -0.01765349 0.02400604
v -0.00626614 -0.01357843 0.02597823
v -0.01789414 -0.00017014 0.02406966
v -0.00852588 -0.01298878 0.02565088
v -0.00311219 -0.01771486 0.02273240
v -0.01792375 -0.00151974 0.02149242
v -0.01674848 -0.00657053 0.02113487
v -0.00452431 -0.01383531 0.02622949
v -0.01750487 -0.00414635 0.02335260
v -0.01758695 -0.00346049 0.02100000
v -0.00572402 -0.00356756 0.02921747
v -0.00744822 -0.00313967 0.02886716
v -0.01394277 -0.01136788 0.02265871
v -0.00219321 -0.01785162 0.02232700
v -0.01386342 -0.00034743 0.02656678
v -0.00478665 -0.00607972 0.02896259
v -0.00350490 -0.01540994 0.02548605
v -0.01056053 -0.00516953 0.02758106
v -0.01647524 -0.00460457 0.02462530
v -0.01642298 -0.00128917 0.02506112
v -0.01259789 -0.00330062 0.02700032
v -0.00781268 -0.00896071 0.02751536
v -0.01543429 -0.00923374 0.02163466
v -0.00056726 -0.01797440 0.02389240
v -0.00868933 -0.00089690 0.02867804
v -0.01794194 -0.00093546 0.02100953
v -0.01558449 -0.00866968 0.02411539
v -0.00768512 -0.01175842 0.02648297
v -0.01515423 -0.00969274 0.02395295
v -0.00009609 -0.01641719 0.02508404
v -0.00510310 -0.01108121 0.02738843
v -0.00432007 -0.01745890 0.02338538
v -0.00851271 -0.00053147 0.02874185
v -0.00025484 -0.01797857 0.02400952
v -0.00232619 -0.00322958 0.02969632
v -0.01590852 -0.00044177 0.02540499
v -0.00360744 -0.00765650 0.02875948
v -0.01177527 -0.00721160 0.02662389
v -0.01298688 -0.01165936 0.02439040
v -0.01491448 -0.00331462 0.02579675
v -0.00803303 -0.01374796 0.02540387
v -0.01264206 -0.00580825 0.02656153
v -0.01505723 -0.00351338 0.02567916
v -0.00748460 -0.00114146 0.02899864
v -0.00320130 -0.01362232 0.02652623
v -0.01368310 -0.01090273 0.02434200
v -0.00014851 -0.01419700 0.02640517
v -0.00773445 -0.01623289 0.02100000
v -0.00100520 -0.01795499 0.02323704
v -0.00571151 -0.00627169 0.02874741
v -0.00129533 -0.01710599 0.02457690
v -0.00571147 -0.01705454 0.02273776
v -0.00208062 -0.01785306 0.02163894
v -0.00759836 -0.00313562 0.02882398
v -0.01348644 -0.00903877 0.02520410
v -0.01747690 -0.00421941 0.02111306
v -0.00004797 -0.00363624 0.02974015
v -0.00512010 -0.01559806 0.02509952
v -0.00221800 -0.00710931 0.02904110
v -0.00252129 -0.00060066 0.02985765
v -0.00351361 -0.00748313 0.02881923
v -0.00716592 -0.01149178 0.02675788
v -0.00623734 -0.01253647 0.02651134
v -0.00918558 -0.00087433 0.02850926
v -0.00110028 -0.01122991 0.02776276
v -0.00833768 -0.00125765 0.02877988
v -0.01606225 -0.00792656 0.02100000
v -0.01013233 -0.00717333 0.02726569
v -0.00429287 -0.01387645 0.02624254
v -0.00168685 -0.01602995 0.02528405
v -0.00090971 -0.00912329 0.02853224
v -0.01008289 -0.01184702 0.02564147
v -0.00624734 -0.00777019 0.02826849
v -0.00156589 -0.01775071 0.02100000
v -0.01328262 -0.00049854 0.02686989
v -0.00926237 -0.00379479 0.02825040
v -0.01010056 -0.00740986 0.02721443
v -0.00486172 -0.00526877 0.02911216
v -0.00007173 -0.01733195 0.02100000
v -0.01268900 -0.00818219 0.02589393
v -0.01658510 -0.00695892 0.02230045
v -0.01681765 -0.00406502 0.02450407
v -0.01749659 -0.00010995 0.02435079
v -0.00298276 -0.01773797 0.02262104
v -0.00911859 -0.01080662 0.02642902
v -0.01173744 -0.00061014 0.02758025
v -0.00570569 -0.00421280 0.02913528
v -0.00953457 -0.00146644 0.02836633
v -0.01790698 -0.00160009 0.02135236
v -0.00167222 -0.01363183 0.02664685
v -0.00047645 -0.00337393 0.02975930
v -0.00159746 -0.01791032 0.02310808
v -0.00762297 -0.01513346 0.02473116
v -0.01200754 -0.00751547 0.02642230
v -0.00990625 -0.01500790 0.02128102
v -0.00660305 -0.01159731 0.02684264
v -0.00603136 -0.01615600 0.02453156
v -0.00458245 -0.01381944 0.02622883
v -0.00057181 -0.01797425 0.02287458
v -0.00512267 -0.01724642 0.02367633
v -0.01708904 -0.00007790 0.02100000
v -0.00273596 -0.00250853 0.02975125
v -0.00436374 -0.01677762 0.02446148
v -0.00617523 -0.01153986 0.02696064
v -0.00566727 -0.00767604 0.02841709
v -0.01595197 -0.00812048 0.02100000
v -0.00042260 -0.01393489 0.02654782
v -0.00018711 -0.01408548 0.02646813
v -0.00397012 -0.00836047 0.02851694
v -0.00000126 -0.01799261 0.02194404
v -0.01720551 -0.00500845 0.02405796
v -0.01436807 -0.00369718 0.02604969
v -0.00273764 -0.00456940 0.02950411
v -0.00434254 -0.00617991 0.02901157
v -0.00858303 -0.01302500 0.02561652
v -0.01219515 -0.00975490 0.02559656
v -0.00159299 -0.01788098 0.02117825
v -0.01407231 -0.00356820 0.02622142
v -0.00828529 -0.01351101 0.02545378
v -0.00575387 -0.00046725 0.02941751
v -0.01422486 -0.00368628 0.02612750
v -0.00540634 -0.01715306 0.02140158
v -0.00520401 -0.01695606 0.02418613
v -0.01425204 -0.00998811 0.02441832
v -0.00392819 -0.00227656 0.02964800
v -0.00785077 -0.01222319 0.02621982
v -0.00681114 -0.01622615 0.02427772
v -0.00261195 -0.00588358 0.02926437
v -0.00350169 -0.01576352 0.02527833
v -0.00115352 -0.00865338 0.02865678
v -0.00488942 -0.01730890 0.02209936
v -0.00708801 -0.01653014 0.02323747
v -0.01533522 -0.00738468 0.02467739
v -0.01738501 -0.00112619 0.02440990
v -0.01415820 -0.00088202 0.02642030
v -0.00457094 -0.01482889 0.02565996
v -0.01350950 -0.01187917 0.02366780
v -0.00347261 -0.00695294 0.02896910
v -0.00007157 -0.01408695 0.02647016
v -0.00648337 -0.01124167 0.02701818
v -0.01285694 -0.00947395 0.02536372
v -0.01725037 -0.00510336 0.02393582
v -0.01567015 -0.00503472 0.02504949
v -0.00349927 -0.00269134 0.02965796
v -0.01496069 -0.00027845 0.02597513
v -0.01262096 -0.01280603 0.02325441
v -0.00658137 -0.00515777 0.02879011
v -0.00482956 -0.00166461 0.02955253
v -0.00089359 -0.00452991 0.02960178
v -0.01650318 -0.00314571 0.02481752
v -0.00109751 -0.00957193 0.02838649
v -0.00944628 -0.00233539 0.02835945
v -0.00549251 -0.00095103 0.02946144
v -0.01667297 -0.00200402 0.02482424
v -0.00877977 -0.00158376 0.02861975
v -0.01504240 -0.00985244 0.02349827
v -0.00329578 -0.00212063 0.02972593
v -0.01545707 -0.00918517 0.02106006
v -0.00729940 -0.01085592 0.02696000
v -0.00509846 -0.01725323 0.02258487
v -0.01372781 -0.00006445 0.02663372
v -0.00532428 -0.00913506 0.02804985
v -0.00026081 -0.00853321 0.02872058
v -0.00946387 -0.00094571 0.02841126
v -0.00131609 -0.01395372 0.02650839
v -0.01238720 -0.01303522 0.02182721
v -0.00344588 -0.00083706 0.02976289
v -0.00238308 -0.01205884 0.02734048
v -0.00699836 -0.00596457 0.02853893
v -0.00096765 -0.00723307 0.02906277
v -0.00428762 -0.01558022 0.02527032
v -0.00398743 -0.01184735 0.02725930
v -0.00367392 -0.00052845 0.02974883
v -0.00501363 -0.01075778 0.02754262
v -0.00982714 -0.00818742 0.02710883
v -0.00996727 -0.01492034 0.02404075
v -0.01570860 -0.00848457 0.02409959
v -0.01018119 -0.00582829 0.02760402
v -0.00476913 -0.01586324 0.02500625
v -0.01292419 -0.00624497 0.02631957
v -0.00122103 -0.00867256 0.02864837
v -0.00981983 -0.00209207 0.02824387
v -0.00305613 -0.00672944 0.02905248
v -0.00817949 -0.00017563 0.02882882
v -0.00529234 -0.01327601 0.02637004
v -0.00529999 -0.01719271 0.02156140
v -0.01147349 -0.00005080 0.02768378
v -0.01116136 -0.01409753 0.02400049
v -0.00858748 -0.00446661 0.02837940
v -0.00806561 -0.00668926 0.02808494
v -0.01376914 -0.00385633 0.02635000
v -0.00764616 -0.00807206 0.02784087
v -0.00371564 -0.01636393 0.02484166
v -0.00662874 -0.00338468 0.02902988
v -0.00286641 -0.01775776 0.02225244
v -0.01632188 -0.00638659 0.02433262
v -0.00567758 -0.01613172 0.02463841
v -0.01630051 -0.00605750 0.02443306
v -0.00675230 -0.00332112 0.02900910
v -0.00577674 -0.01655942 0.02432868
v -0.00420451 -0.01149113 0.02738419
v -0.01403983 -0.00778640 0.02532224
v -0.01590364 -0.00038159 0.02540949
v -0.00738910 -0.01426569 0.02532067
v -0.01216285 -0.01325788 0.02132407
v -0.01111023 -0.00085953 0.02783760
v -0.00397083 -0.01110367 0.02757467
v -0.00257791 -0.00731741 0.02895798
v -0.01624115 -0.00709417 0.02419040
v -0.00021378 -0.00965679 0.02838118
v -0.01310625 -0.00712828 0.02598058
v -0.01728734 -0.00497976 0.02389040
v -0.00480739 -0.01396593 0.02610138
v -0.01596309 -0.00571974 0.02473751
v -0.00555761 -0.01647816 0.02443298
v -0.00492755 -0.01015037 0.02778741
v -0.00879342 -0.01049540 0.02667688
v -0.01077233 -0.01418464 0.02412524
v -0.00725947 -0.01028615 0.02718346
v -0.01251244 -0.00636459 0.02649225
v -0.00099805 -0.01789525 0.02405007
v -0.00910973 -0.01051657 0.02655911
v -0.00696107 -0.01657738 0.02280315
v -0.00043180 -0.00755584 0.02899654
v -0.01505408 -0.00509247 0.02541789
v -0.01259968 -0.01106526 0.02484539
v -0.00340249 -0.00165599 0.02973450
v -0.00111926 -0.01277657 0.02707858
v -0.01345317 -0.00795759 0.02557416
v -0.01315067 -0.00587734 0.02630279
v -0.01787060 -0.00201555 0.02340991
v -0.01046879 -0.01102033 0.02583128
v -0.01794390 -0.00016438 0.02147535
v -0.01220696 -0.01048335 0.02529110
v -0.00133222 -0.01035034 0.02808563
v -0.00780048 -0.00005094 0.02893256
v -0.00720935 -0.00569253 0.02855107
v -0.01081390 -0.01093589 0.02572943
v -0.00005277 -0.00437947 0.02965044
v -0.00000099 -0.00201180 0.02842674
v -0.00074370 -0.00947129 0.02843518
v -0.01408790 -0.01119092 0.02272055
v -0.00250966 -0.01357508 0.02661716
v -0.01554440 -0.00593395 0.02495219
v -0.00700935 -0.01655420 0.02254518
v -0.01061213 -0.00634025 0.02730924
v -0.00364491 -0.00708478 0.02891738
v -0.00391669 -0.00226526 0.02965036
v -0.00251179 -0.01012057 0.02809611
v -0.01405497 -0.00089717 0.02647404
v -0.01147971 -0.01266679 0.02462454
v -0.00562093 -0.01008743 0.02768615
v -0.01613268 -0.00017682 0.02525619
v -0.00253277 -0.00762952 0.02887308
v -0.00347517 -0.01548087 0.02544955
v -0.00492055 -0.00550636 0.02905380
v -0.01530790 -0.00275263 0.02564432
v -0.00561729 -0.01551740 0.02503441
v -0.00030314 -0.00206278 0.02989792
v -0.01221353 -0.00002212 0.02738620
v -0.00585432 -0.00702556 0.02855997
v -0.01594288 -0.00714469 0.02436397
v -0.01678552 -0.00527342 0.02428327
v -0.00478485 -0.01382283 0.02618574
v -0.00002493 -0.00836306 0.02877336
v -0.00253056 -0.01781303 0.02345449
v -0.00767509 -0.01627242 0.02367597
v -0.01468925 -0.00367189 0.02587936
v -0.00170657 -0.01584597 0.02540057
v -0.00435694 -0.01744685 0.02306689
v -0.00472440 -0.00975829 0.02796146
v -0.01025138 -0.00943592 0.02653528
v -0.00525619 -0.00890666 0.02813436
v -0.00338306 -0.01133346 0.02755729
v -0.00141974 -0.01153838 0.02763334
v -0.00381628 -0.01395758 0.02626370
v -0.00889508 -0.00715529 0.02773117
v -0.01379949 -0.01153770 0.02389342
v -0.00756525 -0.00604167 0.02837210
v -0.00442031 -0.01607657 0.02492470
v -0.00222605 -0.01751515 0.02423489
v -0.00403840 -0.00755945 0.02873666
v -0.00658633 -0.00935433 0.02771029
v -0.01757888 -0.00223404 0.02419394
v -0.01581757 -0.00855660 0.02384409
v -0.00667567 -0.00006063 0.02921968
v -0.00491907 -0.00929568 0.02808447
v -0.00128551 -0.00985566 0.02827430
v -0.00230906 -0.01784121 0.02399943
v -0.00102626 -0.01622118 0.02519270
v -0.00757523 -0.01631755 0.02293881
v -0.00202280 -0.00929887 0.02842882
v -0.01262477 -0.01272765 0.02100000
v -0.01351178 -0.00495531 0.02629811
v -0.00490604 -0.00231457 0.02949437
v -0.00360881 -0.00456491 0.02942172
v -0.01560600 -0.00895339 0.02199716
v -0.01307873 -0.00519890 0.02646693
v -0.00372045 -0.01759908 0.02400732
v -0.01235151 -0.01297698 0.02406119
v -0.00487292 -0.00553531 0.02905706
v -0.01038912 -0.00858431 0.02679372
v -0.00634711 -0.01673097 0.02407560
v -0.00206612 -0.00798948 0.02880078
v -0.00578833 -0.00501372 0.02897627
v -0.00474734 -0.01735083 0.02309347
v -0.00124340 -0.01559430 0.02557400
v -0.01152313 -0.00690369 0.02680338
v -0.00139012 -0.01632472 0.02510420
v -0.01687430 -0.00094721 0.02477406
v -0.01289314 -0.01253117 0.02391080
v -0.01550937 -0.00432314 0.02526651
v -0.00753446 -0.00870584 0.02768570
v -0.00453745 -0.01735163 0.02404511
v -0.00779555 -0.01139387 0.02660899
v -0.01294537 -0.00945528 0.02532485
v -0.01228525 -0.01099794 0.02502901
v -0.01369116 -0.00889909 0.02513584
v -0.00933807 -0.01259476 0.02555503
v -0.00102908 -0.00252755 0.02983735
v -0.00404990 -0.01647686 0.02471361
v -0.00965992 -0.01357210 0.02490759
v -0.00440892 -0.01213167 0.02707238
v -0.00254085 -0.00185309 0.02980600
v -0.00715630 -0.00310204 0.02894274
v -0.01742041 -0.00298360 0.02422003
v -0.00896142 -0.00956751 0.02695440
v -0.01001604 -0.01427498 0.02439093
v -0.00551202 -0.00479385 0.02907162
v -0.00587089 -0.01700481 0.02368175
v -0.00523173 -0.01085523 0.02745502
v -0.00194258 -0.00483904 0.02951291
v -0.01779355 -0.00038777 0.02100000
v -0.00659499 -0.01480566 0.02522245
v -0.01782465 -0.00233294 0.02315355
v -0.01756474 -0.00385246 0.02129059
v -0.01592553 -0.00606545 0.02467498
v -0.00261260 -0.00445486 0.02952926
v -0.01662497 -0.00686561 0.02253172
v -0.00816454 -0.01594076 0.02406297
v -0.01437261 -0.00068310 0.02630592
v -0.01044152 -0.01461995 0.02119855
v -0.00793365 -0.00792756 0.02780464
v -0.01196566 -0.00360047 0.02725461
v -0.00256730 -0.00825259 0.02869132
v -0.01073814 -0.00191625 0.02792157
v -0.01741042 -0.00288761 0.02423734
v -0.00364682 -0.00254957 0.02965692
v -0.00659672 -0.01175395 0.02677688
v -0.00196960 -0.00246675 0.02980345
v -0.00731137 -0.00917667 0.02758418
v -0.01155301 -0.00747206 0.02664947
v -0.01414403 -0.00884258 0.02489378
v -0.00330142 -0.00024685 0.02979958
v -0.00458105 -0.01406835 0.02609286
v -0.00746048 -0.00127737 0.02899968
v -0.00095880 -0.01566338 0.02554262
v -0.01335921 -0.01198235 0.02100798
v -0.01683334 -0.00635122 0.02351894
v -0.00645449 -0.00794129 0.02817431
v -0.01488817 -0.00670834 0.02514654
v -0.00241077 -0.01003978 0.02813625
v -0.00097177 -0.01149338 0.02766722
v -0.01419752 -0.00967287 0.02456540
v -0.01125630 -0.01082878 0.02559036
v -0.00673026 -0.01466807 0.02527082
v -0.01718616 -0.00026625 0.02456632
v -0.00905812 -0.00337946 0.02837732
v -0.00244644 -0.00000073 0.02988756
v -0.01565745 -0.00853444 0.02411568
v -0.01794333 -0.00109520 0.02133884
v -0.00024129 -0.00075059 0.02995313
v -0.00020555 -0.00551028 0.02945372
v -0.00639401 -0.00526001 0.02880961
v -0.01404579 -0.00332013 0.02626132
v -0.00789330 -0.01616635 0.02355019
v -0.01025403 -0.00929474 0.02658940
v -0.01717528 -0.00480777 0.02411829
v -0.01464563 -0.00768904 0.02500526
v -0.00641357 -0.01510269 0.02509319
v -0.01183682 -0.01354275 0.02262356
v -0.00750479 -0.00511728 0.02857461
v -0.00214774 -0.01595700 0.02530019
v -0.00066805 -0.00027124 0.02847983
v -0.01018320 -0.01146297 0.02576992
v -0.00584861 -0.01188613 0.02688323
v -0.00454166 -0.00001381 0.02811822
v -0.01427431 -0.01094604 0.02329279
v -0.01254836 -0.00289284 0.02708639
v -0.00039141 -0.00914162 0.02854156
v -0.01282864 -0.00458031 0.02668554
v -0.00003221 -0.00146575 0.02992734
v -0.01432736 -0.00899059 0.02473515
v -0.00529339 -0.01269610 0.02664856
v -0.00645991 -0.00228817 0.02919106
v -0.01249986 -0.00227585 0.02715387
v -0.00765900 -0.00031857 0.02897670
v -0.00509636 -0.01721591 0.02403203
v -0.00189092 -0.01788481 0.02316493
v -0.00007897 -0.01764066 0.02424488
v -0.00339073 -0.01766400 0.02343794
v -0.01473492 -0.00996063 0.02100000
v -0.00288956 -0.01773933 0.02112882
v -0.01401364 -0.00885464 0.02496511
v -0.01555518 -0.00904215 0.02177604
v -0.01007967 -0.01490407 0.02131175
v -0.01334357 -0.01004162 0.02487443
v -0.00470375 -0.01155032 0.02727731
v -0.00528969 -0.01719604 0.02245542
v -0.01358188 -0.00640684 0.02594381
v -0.00177268 -0.01778796 0.02100000
v -0.00148270 -0.00007111 0.02845847
v -0.00411164 -0.00001951 0.02971014
v -0.01718709 -0.00017538 0.02456551
v -0.00324023 -0.01579126 0.02529120
v -0.01761395 -0.00360126 0.02329187
v -0.00769834 -0.00501259 0.02853970
v -0.00508636 -0.01521049 0.02532853
v -0.01415031 -0.01109155 0.02108494
v -0.01781098 -0.00241694 0.02319905
v -0.01032480 -0.00850149 0.02683976
v -0.00674479 -0.01662900 0.02102633
v -0.00541578 -0.01034477 0.02762747
v -0.00067847 -0.01797082 0.02396425
v -0.00454263 -0.01077122 0.02762559
v -0.00186949 -0.01560892 0.02552531
v -0.00953356 -0.01401715 0.02472225
v -0.00026959 -0.01798398 0.02343391
v -0.00756012 -0.00065792 0.02899729
v -0.00576326 -0.01702940 0.02219184
v -0.00772165 -0.01468444 0.02496112
v -0.01690387 -0.00221866 0.02464785
v -0.00012664 -0.01670197 0.02100000
v -0.01386797 -0.01145653 0.02386408
v -0.01372350 -0.00429741 0.02630153
v -0.01735921 -0.00470444 0.02298964
v -0.00389753 -0.01477354 0.02579076
v -0.01194306 -0.00461685 0.02710439
v -0.00655594 -0.00528580 0.02877225
v -0.01175666 -0.00385334 0.02731504
v -0.01279041 -0.00278149 0.02698933
v -0.01002870 -0.00633079 0.02752900
v -0.00956239 -0.00946662 0.02679248
v -0.01755560 -0.00202253 0.02422674
v -0.01436848 -0.01070612 0.02405890
v -0.00246453 -0.01782142 0.02390121
v -0.01204064 -0.01009451 0.02553836
v -0.00427091 -0.00423977 0.02937177
v -0.00384179 -0.01322485 0.02663677
v -0.01115114 -0.01300376 0.02459691
v -0.00963356 -0.00137491 0.02833613
v -0.01086620 -0.01398876 0.02419211
f 156 826 299
f 299 826 415
f 415 826 491
f 150 544 415
f 191 299 867
f 415 544 674
f 674 299 415
f 544 299 674
f 803 846 821
f 181 803 821
f 694 803 181
f 667 460 146
f 818 299 191
f 191 846 818
f 7 818 846
f 156 299 7
f 299 818 7
f 394 573 150
f 460 667 767
f 846 803 432
f 432 7 846
f 432 803 281
f 281 7 432
f 693 826 156
f 693 491 826
f 693 404 491
f 52 754 404
f 176 150 415
f 541 394 301
f 573 394 541
f 834 239 544
f 545 576 88
f 88 576 128
f 108 595 694
f 694 181 108
f 108 667 146
f 254 121 460
f 460 767 254
f 535 767 667
f 667 108 535
f 535 108 181
f 535 181 821
f 535 846 191
f 821 846 535
f 460 121 325
f 847 788 803
f 803 788 494
f 494 788 601
f 156 7 806
f 806 693 156
f 404 693 806
f 806 52 404
f 52 806 18
f 18 7 281
f 18 806 7
f 239 834 468
f 88 128 247
f 41 433 839
f 576 441 793
f 321 734 745
f 68 376 711
f 68 48 376
f 694 595 190
f 625 875 54
f 54 546 625
f 437 108 146
f 146 105 437
f 222 87 623
f 302 621 425
f 301 394 341
f 341 394 150
f 150 62 341
f 832 737 35
f 110 701 35
f 35 737 110
f 110 737 774
f 110 810 701
f 774 610 110
f 774 40 527
f 346 436 638
f 601 788 607
f 788 847 607
f 661 494 601
f 521 122 581
f 149 729 211
f 758 18 281
f 281 803 758
f 803 494 758
f 464 306 724
f 834 306 464
f 464 468 834
f 573 306 297
f 297 306 834
f 544 150 297
f 297 834 544
f 703 791 741
f 724 306 703
f 306 791 703
f 9 468 458
f 655 464 724
f 468 464 655
f 186 723 655
f 655 723 468
f 733 398 466
f 352 131 296
f 576 545 352
f 545 131 352
f 296 131 73
f 10 545 88
f 277 433 41
f 167 463 88
f 88 247 167
f 490 444 221
f 221 441 490
f 460 325 523
f 195 128 576
f 576 793 195
f 195 793 128
f 429 793 441
f 128 793 429
f 321 745 102
f 102 745 580
f 457 165 839
f 417 165 463
f 839 165 417
f 676 144 853
f 868 95 676
f 463 165 590
f 590 144 463
f 590 165 853
f 836 416 792
f 293 610 774
f 774 113 293
f 293 113 610
f 762 217 610
f 347 217 762
f 623 87 362
f 694 190 509
f 595 579 196
f 595 108 687
f 687 579 595
f 637 579 687
f 59 227 294
f 424 379 390
f 379 872 397
f 397 390 379
f 397 872 244
f 555 546 54
f 691 584 157
f 157 359 691
f 702 625 546
f 332 625 702
f 175 122 521
f 175 392 122
f 623 362 851
f 150 176 699
f 150 699 266
f 232 602 62
f 62 602 284
f 74 124 409
f 329 832 35
f 329 398 733
f 733 832 329
f 748 832 733
f 334 113 774
f 774 527 334
f 334 527 113
f 865 527 638
f 113 527 865
f 638 527 426
f 426 346 638
f 426 527 40
f 631 814 531
f 774 737 431
f 601 607 263
f 263 661 601
f 155 661 263
f 427 847 348
f 348 582 427
f 521 149 445
f 445 149 211
f 319 582 348
f 348 37 319
f 582 729 267
f 211 729 418
f 52 18 784
f 754 52 784
f 521 763 512
f 729 149 142
f 18 758 536
f 536 784 18
f 494 661 591
f 591 758 494
f 591 661 155
f 176 369 658
f 415 491 673
f 673 161 807
f 673 176 415
f 673 369 176
f 807 369 673
f 491 404 310
f 310 673 491
f 161 673 310
f 741 791 75
f 75 541 301
f 481 306 573
f 481 791 306
f 481 75 791
f 150 573 160
f 160 297 150
f 573 297 160
f 724 743 485
f 724 703 504
f 239 468 862
f 468 9 862
f 458 468 858
f 468 723 858
f 274 53 704
f 704 466 274
f 835 435 704
f 733 466 704
f 704 435 733
f 398 329 740
f 229 435 402
f 880 723 229
f 723 435 229
f 285 352 205
f 285 105 308
f 308 352 285
f 308 105 146
f 812 131 545
f 812 73 131
f 177 812 545
f 545 10 19
f 632 771 648
f 678 202 648
f 648 771 678
f 461 611 5
f 88 463 5
f 5 611 88
f 685 734 321
f 819 799 506
f 506 799 349
f 719 247 128
f 128 277 719
f 463 167 97
f 118 167 247
f 247 719 118
f 118 277 41
f 118 719 277
f 870 441 576
f 870 490 441
f 21 490 870
f 353 325 444
f 353 523 325
f 444 490 353
f 353 490 21
f 81 102 580
f 639 102 81
f 81 600 639
f 580 745 81
f 592 792 853
f 836 792 592
f 853 165 592
f 165 457 592
f 592 457 839
f 592 839 433
f 463 144 312
f 312 95 463
f 447 676 853
f 868 676 447
f 853 144 822
f 822 590 853
f 144 590 822
f 639 792 727
f 727 792 416
f 571 81 745
f 600 81 571
f 745 712 571
f 187 792 639
f 639 600 187
f 187 571 792
f 600 571 187
f 652 217 347
f 622 217 321
f 553 438 549
f 549 506 753
f 753 506 349
f 879 712 401
f 401 745 734
f 401 712 745
f 15 626 747
f 364 374 178
f 786 472 528
f 476 397 244
f 178 374 813
f 813 795 567
f 374 795 813
f 813 406 461
f 659 202 678
f 332 577 659
f 567 696 111
f 88 111 643
f 643 111 696
f 406 813 804
f 804 611 461
f 461 406 804
f 777 68 126
f 126 747 777
f 747 626 777
f 48 68 624
f 595 196 449
f 775 196 579
f 775 454 227
f 848 687 108
f 637 687 848
f 848 351 637
f 396 294 875
f 875 830 396
f 59 294 396
f 830 340 396
f 324 227 691
f 324 294 227
f 51 302 425
f 424 265 51
f 874 872 379
f 874 379 424
f 452 397 87
f 332 659 103
f 103 625 332
f 421 105 285
f 285 179 421
f 227 454 276
f 691 227 276
f 276 8 691
f 34 4 454
f 34 848 801
f 351 848 34
f 34 454 637
f 637 351 34
f 34 801 108
f 367 36 718
f 4 36 367
f 454 4 367
f 691 359 477
f 477 702 691
f 691 702 474
f 474 702 546
f 214 586 265
f 214 265 424
f 331 302 467
f 302 459 467
f 467 459 500
f 500 459 589
f 589 586 500
f 265 586 589
f 670 831 720
f 621 302 670
f 694 621 670
f 35 305 764
f 764 305 188
f 764 77 35
f 725 405 701
f 810 110 13
f 797 62 150
f 150 266 797
f 127 708 74
f 127 232 62
f 602 232 127
f 194 341 62
f 194 662 341
f 301 341 303
f 341 662 303
f 849 435 264
f 66 124 74
f 31 496 574
f 35 843 534
f 534 329 35
f 280 748 33
f 832 748 280
f 201 748 733
f 737 832 272
f 148 110 610
f 148 17 110
f 610 217 148
f 110 17 98
f 692 814 631
f 631 114 125
f 125 692 631
f 65 692 125
f 33 557 430
f 430 557 832
f 430 280 33
f 832 280 430
f 832 557 403
f 634 272 403
f 403 272 832
f 436 346 93
f 800 426 814
f 346 426 800
f 631 531 152
f 152 531 737
f 372 40 774
f 774 431 372
f 372 426 40
f 737 531 76
f 76 431 737
f 365 263 607
f 365 607 847
f 847 427 365
f 155 263 365
f 365 427 582
f 582 267 365
f 365 267 729
f 829 168 39
f 582 319 829
f 829 729 582
f 39 729 829
f 720 831 863
f 863 831 500
f 39 168 414
f 521 445 414
f 521 581 80
f 80 763 521
f 484 339 690
f 587 319 37
f 168 829 587
f 587 829 319
f 22 729 39
f 22 418 729
f 155 142 782
f 882 782 142
f 512 730 882
f 784 536 469
f 354 591 155
f 758 591 354
f 155 536 354
f 354 536 758
f 604 658 369
f 369 493 604
f 583 310 79
f 161 310 583
f 730 290 26
f 754 79 525
f 79 310 525
f 404 754 525
f 525 310 404
f 541 75 542
f 75 481 542
f 573 541 542
f 542 481 573
f 186 655 183
f 183 485 186
f 183 655 724
f 724 485 183
f 817 504 703
f 264 197 817
f 448 833 136
f 136 833 723
f 526 11 411
f 402 435 439
f 439 435 835
f 835 704 439
f 209 435 723
f 209 197 264
f 264 435 209
f 283 740 329
f 700 229 629
f 880 229 700
f 411 483 261
f 261 858 723
f 261 526 411
f 723 833 261
f 833 526 261
f 718 205 328
f 328 205 352
f 576 352 71
f 352 240 71
f 234 308 146
f 73 812 516
f 812 177 516
f 296 73 516
f 584 314 516
f 516 104 296
f 314 104 516
f 516 157 584
f 202 659 318
f 318 659 577
f 6 10 632
f 632 648 6
f 202 19 697
f 697 19 10
f 734 685 220
f 253 550 881
f 69 685 349
f 349 685 884
f 884 753 349
f 884 685 321
f 433 277 286
f 286 515 433
f 184 429 441
f 441 515 184
f 41 839 731
f 731 118 41
f 770 353 21
f 770 769 353
f 287 639 99
f 639 727 99
f 815 639 287
f 27 441 221
f 27 515 441
f 27 592 433
f 433 515 27
f 792 571 235
f 235 447 853
f 861 762 610
f 610 113 861
f 861 553 549
f 549 753 861
f 241 174 304
f 304 496 241
f 241 496 255
f 5 192 752
f 879 480 558
f 374 364 218
f 514 246 786
f 786 528 514
f 244 153 732
f 271 659 678
f 678 795 271
f 271 795 374
f 630 771 632
f 632 10 630
f 678 771 320
f 771 643 320
f 320 643 696
f 567 111 25
f 25 813 567
f 25 804 813
f 246 514 275
f 192 550 275
f 275 514 192
f 750 192 249
f 747 400 785
f 711 609 147
f 147 747 126
f 609 736 147
f 48 624 713
f 376 48 713
f 59 449 684
f 684 449 196
f 454 775 470
f 637 454 470
f 470 775 579
f 108 801 517
f 517 848 108
f 801 848 517
f 213 509 59
f 59 396 213
f 694 509 213
f 213 520 694
f 213 396 340
f 340 520 213
f 294 324 809
f 640 51 425
f 424 823 778
f 778 874 424
f 872 874 134
f 87 222 510
f 510 356 87
f 424 390 140
f 140 214 424
f 390 397 323
f 397 452 323
f 612 362 87
f 711 376 612
f 376 362 612
f 87 397 612
f 397 476 612
f 625 103 869
f 46 276 454
f 8 276 46
f 46 454 691
f 691 8 46
f 878 205 718
f 718 36 878
f 285 4 568
f 4 34 568
f 568 179 285
f 108 437 744
f 744 34 108
f 314 760 193
f 193 328 352
f 193 104 314
f 691 454 371
f 454 367 371
f 371 584 691
f 371 45 584
f 588 45 371
f 359 577 746
f 746 477 359
f 122 392 116
f 500 831 422
f 422 467 500
f 831 670 422
f 616 67 302
f 265 589 616
f 498 459 302
f 618 302 331
f 618 670 302
f 618 422 670
f 331 467 618
f 467 422 618
f 720 38 413
f 413 670 720
f 694 670 413
f 413 803 694
f 413 847 803
f 348 847 413
f 413 37 348
f 701 405 566
f 258 305 566
f 35 701 566
f 566 305 35
f 94 797 266
f 644 699 824
f 824 675 644
f 708 151 245
f 62 797 709
f 709 127 62
f 399 127 722
f 789 503 226
f 226 503 442
f 741 75 14
f 14 75 301
f 301 303 14
f 14 303 662
f 662 194 14
f 757 635 842
f 859 608 842
f 842 635 859
f 539 386 339
f 151 129 29
f 29 245 151
f 543 29 129
f 543 386 336
f 336 29 543
f 690 339 735
f 735 512 690
f 20 386 681
f 339 386 20
f 255 496 560
f 560 506 549
f 31 574 381
f 530 574 496
f 606 635 757
f 708 635 606
f 74 708 606
f 606 66 74
f 124 66 606
f 641 635 708
f 859 635 641
f 708 245 641
f 641 29 859
f 245 29 641
f 748 201 210
f 201 714 210
f 17 148 378
f 55 423 110
f 55 98 423
f 137 852 800
f 295 403 557
f 789 698 647
f 346 370 647
f 619 93 698
f 279 370 346
f 346 800 279
f 814 692 768
f 768 800 814
f 768 137 800
f 198 531 814
f 559 365 729
f 559 142 155
f 729 142 559
f 500 168 790
f 168 587 790
f 391 168 500
f 500 586 391
f 168 391 446
f 863 587 554
f 554 587 37
f 37 233 554
f 155 782 101
f 730 32 101
f 101 882 730
f 782 882 101
f 12 142 149
f 12 882 142
f 12 149 521
f 521 512 12
f 512 882 12
f 536 32 106
f 106 469 536
f 807 161 344
f 360 772 300
f 223 817 703
f 789 137 570
f 570 137 605
f 605 714 420
f 402 439 518
f 518 439 629
f 84 743 724
f 724 504 84
f 357 817 197
f 504 817 357
f 357 84 504
f 186 485 357
f 743 84 357
f 357 485 743
f 143 700 629
f 219 328 781
f 781 45 219
f 781 193 760
f 328 193 781
f 646 870 576
f 576 71 646
f 443 240 21
f 443 71 240
f 353 769 250
f 850 240 352
f 146 460 805
f 453 516 177
f 177 318 453
f 42 648 202
f 202 697 42
f 43 158 200
f 200 813 43
f 43 813 461
f 461 5 43
f 672 799 819
f 672 253 799
f 243 253 881
f 799 253 243
f 349 799 230
f 753 884 154
f 128 429 773
f 429 184 773
f 256 731 839
f 839 97 256
f 256 97 167
f 167 118 1
f 118 731 1
f 769 770 366
f 21 240 366
f 366 770 21
f 377 815 57
f 321 102 377
f 377 102 639
f 639 815 377
f 377 622 321
f 57 622 377
f 368 299 544
f 501 27 221
f 853 792 292
f 292 235 853
f 792 235 292
f 172 571 712
f 172 235 571
f 242 148 217
f 217 622 242
f 622 236 242
f 475 861 113
f 553 861 475
f 113 865 475
f 475 865 638
f 638 553 475
f 762 861 756
f 756 861 753
f 756 154 762
f 753 154 756
f 388 750 238
f 5 558 798
f 879 558 56
f 56 558 5
f 56 5 463
f 56 712 879
f 868 712 56
f 56 95 868
f 463 95 56
f 316 695 339
f 316 873 581
f 316 581 122
f 316 808 873
f 844 614 664
f 364 614 844
f 844 218 364
f 374 218 844
f 664 271 844
f 844 271 374
f 664 614 654
f 163 630 10
f 163 10 88
f 88 643 163
f 575 550 192
f 192 750 575
f 456 400 747
f 31 381 434
f 400 164 651
f 126 68 225
f 225 147 126
f 225 68 711
f 711 147 225
f 877 164 400
f 59 684 569
f 569 227 59
f 569 775 227
f 196 775 569
f 569 684 196
f 92 579 637
f 637 470 92
f 92 470 579
f 552 324 231
f 552 809 324
f 231 555 552
f 552 555 54
f 425 621 345
f 345 640 425
f 345 621 694
f 694 520 345
f 424 51 780
f 874 778 257
f 257 134 874
f 257 823 875
f 257 778 823
f 875 625 257
f 257 732 153
f 87 356 50
f 356 140 50
f 269 140 356
f 214 140 269
f 375 876 711
f 711 612 375
f 375 502 876
f 866 45 588
f 219 45 866
f 330 577 332
f 330 746 577
f 522 616 589
f 302 67 598
f 598 498 302
f 136 143 91
f 448 136 91
f 11 526 91
f 565 53 274
f 326 94 266
f 326 699 644
f 326 266 699
f 644 797 326
f 797 94 326
f 597 699 176
f 597 824 699
f 176 658 597
f 675 824 505
f 399 675 505
f 675 722 499
f 499 797 644
f 644 675 499
f 499 709 797
f 585 675 399
f 399 722 585
f 585 722 675
f 796 726 129
f 708 127 796
f 796 127 399
f 399 726 796
f 796 129 151
f 252 714 201
f 503 479 883
f 442 503 883
f 124 44 883
f 883 44 757
f 138 479 602
f 138 127 74
f 602 127 138
f 74 409 138
f 599 703 741
f 741 14 599
f 677 599 14
f 602 479 677
f 677 284 602
f 677 479 288
f 721 705 336
f 336 386 721
f 386 363 721
f 721 434 686
f 507 539 339
f 339 695 507
f 100 363 386
f 386 539 100
f 300 572 78
f 78 360 300
f 300 26 383
f 383 572 300
f 386 543 716
f 471 543 129
f 681 716 471
f 471 716 543
f 572 383 170
f 130 730 512
f 130 290 730
f 255 560 166
f 549 438 260
f 260 560 549
f 260 166 560
f 438 169 260
f 260 169 241
f 260 241 255
f 255 166 260
f 304 820 783
f 783 496 304
f 783 530 496
f 820 322 783
f 322 842 783
f 537 210 714
f 17 378 139
f 110 98 309
f 309 55 110
f 98 55 309
f 65 125 492
f 125 137 492
f 605 137 613
f 613 137 125
f 613 714 605
f 33 748 613
f 748 714 613
f 852 137 85
f 649 295 114
f 403 295 649
f 634 403 649
f 631 634 649
f 649 114 631
f 93 828 497
f 174 241 497
f 497 169 93
f 241 169 497
f 270 842 322
f 532 226 442
f 532 619 698
f 442 883 532
f 532 698 789
f 789 226 532
f 561 76 531
f 531 198 561
f 155 365 682
f 682 559 155
f 365 559 682
f 478 863 500
f 500 790 478
f 478 587 863
f 478 790 587
f 586 214 802
f 802 214 222
f 802 222 623
f 623 380 802
f 759 414 168
f 168 446 759
f 380 446 488
f 488 446 391
f 488 802 380
f 488 391 586
f 586 802 488
f 851 816 61
f 61 446 380
f 623 851 61
f 61 380 623
f 739 512 763
f 739 316 512
f 808 316 739
f 23 554 233
f 23 233 38
f 23 38 720
f 720 863 23
f 863 554 23
f 578 536 155
f 155 101 578
f 578 32 536
f 578 101 32
f 547 106 32
f 547 32 730
f 730 26 547
f 300 772 547
f 547 26 300
f 350 547 772
f 106 547 350
f 123 503 789
f 82 570 605
f 288 479 64
f 435 849 563
f 563 420 627
f 627 252 563
f 197 209 715
f 715 357 197
f 186 357 715
f 715 723 186
f 715 209 723
f 21 870 291
f 291 443 21
f 352 308 665
f 665 850 352
f 523 353 440
f 353 250 440
f 460 523 440
f 440 805 460
f 240 850 854
f 854 366 240
f 769 366 854
f 854 665 769
f 850 665 854
f 337 318 577
f 337 453 318
f 787 43 838
f 158 43 787
f 827 752 838
f 838 43 827
f 5 752 827
f 827 43 5
f 751 243 668
f 668 243 881
f 751 660 224
f 224 238 480
f 879 401 224
f 224 480 879
f 388 238 224
f 248 69 349
f 349 230 248
f 347 762 886
f 762 154 886
f 57 815 776
f 776 815 287
f 99 182 776
f 287 99 776
f 776 622 57
f 776 236 622
f 171 508 513
f 513 368 171
f 171 368 544
f 544 533 171
f 533 261 171
f 171 261 483
f 258 566 657
f 112 867 299
f 299 368 112
f 836 592 540
f 592 27 540
f 27 501 540
f 436 93 259
f 93 169 259
f 638 436 259
f 259 553 638
f 438 553 259
f 259 169 438
f 47 750 249
f 489 798 558
f 489 558 249
f 249 192 489
f 489 192 5
f 5 798 489
f 859 705 650
f 83 29 336
f 336 705 83
f 859 29 83
f 83 705 859
f 339 484 408
f 408 316 339
f 664 654 207
f 207 654 476
f 207 476 244
f 244 732 207
f 207 732 728
f 207 271 664
f 659 271 207
f 72 654 472
f 72 472 742
f 476 654 72
f 72 612 476
f 192 514 115
f 115 663 192
f 178 636 289
f 289 364 178
f 135 736 786
f 135 315 736
f 786 246 135
f 246 275 135
f 275 315 135
f 358 736 141
f 747 147 90
f 358 877 90
f 90 736 358
f 90 147 736
f 31 434 717
f 686 434 857
f 765 608 857
f 857 381 765
f 857 434 381
f 519 651 656
f 656 651 164
f 506 519 656
f 819 506 656
f 749 651 519
f 749 519 506
f 122 816 671
f 671 316 122
f 671 816 851
f 671 851 362
f 671 603 316
f 624 603 671
f 671 713 624
f 671 362 376
f 376 713 671
f 640 345 307
f 307 520 340
f 307 345 520
f 307 340 830
f 51 640 307
f 307 780 51
f 307 830 875
f 875 823 307
f 307 823 424
f 424 780 307
f 502 375 855
f 855 511 502
f 609 511 855
f 855 736 609
f 742 472 96
f 67 616 885
f 616 522 885
f 594 534 49
f 49 283 594
f 49 534 843
f 49 565 740
f 740 283 49
f 338 726 399
f 60 564 2
f 658 60 2
f 709 499 669
f 669 499 722
f 127 709 669
f 669 722 127
f 683 151 708
f 708 796 683
f 683 796 151
f 755 252 627
f 389 138 409
f 479 138 389
f 389 409 124
f 124 883 389
f 389 883 479
f 703 599 860
f 860 599 288
f 860 223 703
f 288 223 860
f 524 677 14
f 524 14 194
f 524 194 62
f 288 599 204
f 204 677 288
f 599 677 204
f 393 721 686
f 705 721 393
f 596 721 363
f 695 58 794
f 794 507 695
f 794 58 626
f 626 15 794
f 313 369 807
f 807 344 313
f 360 78 766
f 78 313 766
f 161 583 766
f 766 583 79
f 772 360 766
f 79 350 766
f 766 350 772
f 335 26 290
f 335 383 26
f 681 386 212
f 212 716 681
f 386 716 212
f 681 471 495
f 495 471 129
f 129 726 228
f 642 495 129
f 681 495 642
f 512 735 450
f 450 130 512
f 170 130 16
f 572 170 16
f 681 572 16
f 16 20 681
f 574 530 237
f 530 428 237
f 465 608 765
f 465 842 608
f 311 714 748
f 311 537 714
f 199 85 137
f 199 647 370
f 199 137 789
f 789 647 199
f 757 842 342
f 842 270 342
f 521 414 628
f 414 759 628
f 469 106 273
f 106 350 273
f 273 350 79
f 784 469 273
f 273 79 754
f 754 784 273
f 288 64 689
f 420 563 689
f 605 420 689
f 395 250 769
f 769 665 395
f 805 440 385
f 308 234 385
f 706 382 819
f 666 672 819
f 819 382 666
f 407 660 751
f 751 668 407
f 751 224 473
f 734 220 473
f 473 401 734
f 473 224 401
f 180 884 321
f 321 217 180
f 180 154 884
f 180 886 154
f 217 652 180
f 412 182 482
f 412 529 182
f 98 529 412
f 423 98 412
f 810 13 412
f 701 810 412
f 110 423 412
f 412 13 110
f 412 725 701
f 405 725 412
f 412 482 405
f 182 529 840
f 840 776 182
f 840 529 98
f 236 776 840
f 840 98 17
f 840 242 236
f 17 139 840
f 508 171 845
f 258 657 679
f 162 657 566
f 841 238 750
f 750 47 841
f 119 207 728
f 659 207 119
f 728 869 119
f 119 869 103
f 119 103 659
f 145 115 514
f 645 614 364
f 645 145 614
f 115 145 645
f 30 289 636
f 30 752 192
f 663 289 30
f 192 663 30
f 838 752 30
f 317 275 550
f 550 253 317
f 206 141 811
f 358 141 206
f 811 706 206
f 206 706 819
f 736 315 159
f 159 141 736
f 159 315 275
f 275 317 159
f 159 317 253
f 298 456 747
f 747 90 298
f 298 877 400
f 298 90 877
f 262 717 15
f 262 15 747
f 747 785 262
f 859 650 278
f 278 608 859
f 278 857 608
f 203 653 593
f 651 749 215
f 400 651 215
f 496 203 215
f 215 203 593
f 506 560 462
f 462 749 506
f 462 560 496
f 496 215 462
f 462 215 749
f 695 316 24
f 316 603 24
f 134 257 107
f 257 455 107
f 825 257 153
f 825 455 257
f 742 96 419
f 419 72 742
f 419 96 612
f 612 72 419
f 680 375 612
f 612 96 680
f 786 736 251
f 251 472 786
f 251 96 472
f 615 338 399
f 399 505 615
f 505 2 615
f 615 2 564
f 70 597 658
f 658 2 70
f 714 252 89
f 252 755 89
f 62 284 173
f 284 677 173
f 617 78 572
f 373 344 161
f 161 766 373
f 373 313 344
f 373 766 313
f 86 335 290
f 383 335 86
f 86 170 383
f 726 216 779
f 779 228 726
f 779 216 129
f 129 228 779
f 129 216 688
f 688 642 129
f 548 450 20
f 130 450 548
f 20 16 548
f 548 16 130
f 538 465 428
f 842 465 538
f 538 428 530
f 757 342 120
f 120 883 757
f 120 342 384
f 268 270 828
f 268 342 270
f 268 828 93
f 93 619 268
f 384 342 268
f 619 532 268
f 268 883 384
f 268 532 883
f 633 628 759
f 633 759 116
f 633 116 392
f 133 223 288
f 288 689 133
f 133 849 264
f 133 563 849
f 133 689 563
f 264 817 133
f 817 223 133
f 451 689 64
f 789 63 451
f 63 82 451
f 451 82 605
f 605 689 451
f 28 385 234
f 805 385 28
f 28 234 146
f 146 805 28
f 837 845 171
f 387 845 837
f 482 387 856
f 387 185 856
f 109 159 253
f 141 159 109
f 400 456 761
f 761 298 400
f 456 298 761
f 343 262 785
f 785 653 343
f 653 203 343
f 132 278 650
f 686 857 132
f 857 278 132
f 338 615 738
f 3 524 62
f 62 173 3
f 677 524 3
f 3 173 677
f 15 208 707
f 707 208 596
f 707 596 363
f 15 717 355
f 355 717 434
f 78 617 562
f 710 451 64
f 710 64 479
f 710 479 503
f 871 123 789
f 789 451 871
f 551 837 171
f 327 185 387
f 387 837 327
f 327 704 53
f 327 837 704
f 482 856 282
f 405 482 282
f 282 566 405
f 282 162 566
f 657 162 282
f 282 679 657
f 188 305 864
f 333 738 615
f 333 688 216
f 726 738 333
f 333 216 726
f 642 688 333
f 333 572 681
f 681 642 333
f 333 493 369
f 369 313 333
f 333 617 572
f 333 562 617
f 333 313 78
f 78 562 333
f 410 208 15
f 15 355 410
f 837 551 189
f 189 143 629
f 189 91 143
f 629 439 189
f 189 439 704
f 704 837 189
f 11 91 487
f 91 189 487
f 487 189 551
f 565 49 620
f 35 77 620
f 185 327 361
f 565 620 117
f 117 620 327
f 53 565 117
f 117 327 53
f 327 620 556
f 556 361 327
f 188 864 556
f 556 486 188
f 77 486 556
f 556 620 77
f 839 417 97
f 97 417 463
f 312 676 95
f 144 676 312
f 449 190 595
f 59 509 449
f 449 509 190
f 546 555 474
f 474 324 691
f 474 555 231
f 231 324 474
f 188 486 764
f 764 486 77
f 152 634 631
f 737 272 152
f 152 272 634
f 211 418 22
f 22 445 211
f 39 414 22
f 22 414 445
f 329 534 283
f 283 534 594
f 544 239 261
f 239 862 261
f 261 9 458
f 261 862 9
f 458 858 261
f 261 533 544
f 545 19 318
f 318 177 545
f 318 19 202
f 320 795 678
f 320 696 567
f 567 795 320
f 25 111 88
f 88 611 25
f 611 804 25
f 285 205 878
f 878 4 285
f 878 36 4
f 744 437 105
f 105 421 744
f 744 421 179
f 179 568 744
f 744 568 34
f 296 104 193
f 193 352 296
f 302 51 616
f 616 51 265
f 38 233 413
f 413 233 37
f 757 44 606
f 606 44 124
f 698 93 647
f 647 93 346
f 629 229 518
f 518 229 402
f 143 136 723
f 143 723 880
f 880 700 143
f 781 760 314
f 781 314 584
f 584 45 781
f 42 6 648
f 10 6 42
f 42 697 10
f 773 286 277
f 773 277 128
f 515 286 773
f 773 184 515
f 731 256 1
f 1 256 167
f 868 447 172
f 172 712 868
f 447 235 172
f 771 630 163
f 163 643 771
f 875 294 552
f 54 875 552
f 294 809 552
f 625 869 257
f 728 732 257
f 257 869 728
f 390 323 50
f 50 452 87
f 50 140 390
f 50 323 452
f 269 510 222
f 222 214 269
f 356 510 269
f 588 371 866
f 866 367 718
f 718 328 866
f 866 328 219
f 866 371 367
f 702 477 330
f 332 702 330
f 477 746 330
f 91 526 833
f 91 833 448
f 565 466 398
f 274 466 565
f 398 740 565
f 492 692 65
f 492 768 692
f 137 768 492
f 114 295 613
f 613 557 33
f 613 125 114
f 613 295 557
f 270 820 304
f 304 174 270
f 270 322 820
f 174 497 270
f 270 497 828
f 814 426 561
f 426 372 561
f 561 372 431
f 431 76 561
f 561 198 814
f 122 116 61
f 61 816 122
f 116 759 61
f 61 759 446
f 763 80 739
f 739 80 581
f 581 873 739
f 873 808 739
f 789 570 82
f 82 63 789
f 563 201 733
f 733 435 563
f 563 252 201
f 291 646 71
f 870 646 291
f 71 443 291
f 337 577 359
f 157 516 337
f 359 157 337
f 516 453 337
f 512 316 408
f 690 512 408
f 408 484 690
f 511 609 711
f 711 876 511
f 876 502 511
f 459 498 885
f 885 589 459
f 885 522 589
f 885 598 67
f 498 598 885
f 339 20 450
f 450 735 339
f 465 381 574
f 765 381 465
f 574 237 465
f 465 237 428
f 210 537 311
f 748 210 311
f 370 279 199
f 800 852 199
f 199 279 800
f 852 85 199
f 385 665 308
f 385 440 250
f 250 395 385
f 385 395 665
f 388 224 407
f 407 750 388
f 881 550 407
f 550 575 407
f 407 668 881
f 407 575 750
f 407 224 660
f 685 69 473
f 69 248 473
f 473 220 685
f 799 243 473
f 473 243 751
f 473 230 799
f 473 248 230
f 347 886 180
f 180 652 347
f 840 378 148
f 148 242 840
f 840 139 378
f 845 325 121
f 191 867 845
f 121 254 845
f 221 444 845
f 845 535 191
f 845 254 767
f 767 535 845
f 444 325 845
f 845 182 99
f 845 387 482
f 845 416 836
f 845 99 727
f 845 501 221
f 845 727 416
f 513 508 845
f 482 182 845
f 845 368 513
f 867 112 845
f 836 540 845
f 845 112 368
f 845 540 501
f 249 558 841
f 841 558 480
f 480 238 841
f 841 47 249
f 145 514 528
f 145 528 472
f 472 654 145
f 145 654 614
f 663 115 645
f 364 289 645
f 645 289 663
f 178 813 30
f 30 813 200
f 200 158 30
f 30 636 178
f 30 787 838
f 158 787 30
f 164 877 206
f 206 877 358
f 819 656 206
f 206 656 164
f 215 785 400
f 215 653 785
f 593 653 215
f 24 603 624
f 626 58 24
f 24 624 68
f 68 777 24
f 24 777 626
f 24 58 695
f 134 107 825
f 244 872 825
f 825 153 244
f 872 134 825
f 825 107 455
f 375 680 251
f 736 855 251
f 251 855 375
f 251 680 96
f 70 505 824
f 824 597 70
f 70 2 505
f 89 420 714
f 627 420 89
f 89 755 627
f 86 130 170
f 290 130 86
f 530 783 538
f 538 783 842
f 384 883 120
f 392 175 633
f 633 175 521
f 521 628 633
f 253 672 109
f 672 666 109
f 109 706 811
f 811 141 109
f 382 706 109
f 109 666 382
f 343 203 496
f 343 496 31
f 31 717 343
f 717 262 343
f 132 650 705
f 132 393 686
f 705 393 132
f 726 338 738
f 363 100 707
f 707 794 15
f 539 507 707
f 707 100 539
f 507 794 707
f 871 710 503
f 503 123 871
f 451 710 871
f 333 60 658
f 333 604 493
f 658 604 333
f 333 564 60
f 333 615 564
f 721 596 410
f 434 721 410
f 596 208 410
f 410 355 434
f 411 11 487
f 487 171 483
f 487 483 411
f 487 551 171
f 620 843 35
f 620 49 843
f 556 305 258
f 556 282 856
f 679 282 556
f 556 864 305
f 258 679 556
f 556 856 185
f 185 361 556

