# https://github.com/mikedh/trimesh
v -0.05643822 -0.00999904 0.00037389
v -0.05790755 -0.00112693 0.00022278
v -0.05460315 -0.00040243 0.00616930
v -0.05434442 -0.01068102 0.00395879
v -0.05129136 -0.00313444 0.01050650
v -0.05123167 -0.00806567 0.00971612
v -0.05476874 -0.00159394 0.00014348
v -0.05026882 -0.01357061 0.00804276
v -0.05350532 -0.00212439 0.00764119
v -0.05769461 -0.00328228 0.00050104
v -0.05431489 -0.00652289 0.00570030
v -0.05587600 -0.00438361 0.00363971
v -0.05041754 -0.01183798 0.00927979
v -0.05761390 -0.00327096 0.00065506
v -0.05127508 -0.00026627 0.01043061
v -0.05627462 -0.00536132 0.00265335
v -0.05075246 -0.01096023 0.00935327
v -0.05008807 -0.01453561 0.00733761
v -0.05673226 -0.00900399 0.00022829
v -0.05439651 -0.00343952 0.00623562
v -0.05503397 -0.00277328 0.00536346
v -0.05549243 -0.00429167 0.00434575
v -0.05097208 -0.01275184 0.00786843
v -0.05157505 -0.00631759 0.00975825
v -0.05600128 -0.01073681 0.00083990
v -0.05116005 -0.01352927 0.00018762
v -0.05744511 -0.00515198 0.00040187
v -0.05473751 -0.01194049 0.00222879
v -0.05486415 -0.00368531 0.00548305
v -0.05023918 -0.00386187 0.00721357
v -0.05364254 -0.00002513 0.00211080
v -0.05257421 -0.01231284 0.00580232
v -0.05341605 -0.00005270 0.00768359
v -0.05050441 -0.01030639 0.00991081
v -0.05567670 -0.00239334 0.00434063
v -0.05000940 -0.00561937 0.01154874
v -0.05093191 -0.01247151 0.00811099
v -0.05182123 -0.01685439 0.00149762
v -0.05584387 -0.01094644 0.00096349
v -0.05043447 -0.00005756 0.00706319
v -0.05121903 -0.01000007 0.00912543
v -0.05529606 -0.00741766 0.00379237
v -0.05120395 -0.01525446 0.00484492
v -0.05283821 -0.01661846 0.00013076
v -0.05017533 -0.01006860 0.01036282
v -0.05057017 -0.01068413 0.00972279
v -0.05463108 -0.00119449 0.00041965
v -0.05399112 -0.00343051 0.00683263
v -0.05121300 -0.00437318 0.01044562
v -0.05515601 -0.01159659 0.00174218
v -0.05419901 -0.00119654 0.00671714
v -0.05054590 -0.01869097 0.00035790
v -0.05233356 -0.00439603 0.00903685
v -0.05466078 -0.00280265 0.00595926
v -0.05069944 -0.01744706 0.00227037
v -0.05018012 -0.01097940 0.01003744
v -0.05089827 -0.01710541 0.00257715
v -0.05662148 -0.00704545 0.00136867
v -0.05413667 -0.00019259 0.00675944
v -0.05562431 -0.00671078 0.00350405
v -0.05281207 -0.00237091 0.00853914
v -0.05793779 -0.00050725 0.00018558
v -0.05669637 -0.00017028 0.00245774
v -0.05568428 -0.00247901 0.00432892
v -0.05445842 -0.00873035 0.00473315
v -0.05137117 -0.00727771 0.00978500
v -0.05257207 -0.01270122 0.00547649
v -0.05062153 -0.01871977 0.00018695
v -0.05405151 -0.00181323 0.00691013
v -0.05216484 -0.00685389 0.00885044
v -0.05687996 -0.00731663 0.00070749
v -0.05383430 -0.01365963 0.00229020
v -0.05488965 -0.00704087 0.00469796
v -0.05157735 -0.00651170 0.00972103
v -0.05186709 -0.00437197 0.00965163
v -0.05193740 -0.00517213 0.00946004
v -0.05064832 -0.01287510 0.00820076
v -0.05153008 -0.01659923 0.00246521
v -0.05237032 -0.00492426 0.00891556
v -0.05437599 -0.01436185 0.00028137
v -0.05638856 -0.00283269 0.00301978
v -0.05481958 -0.01369559 0.00030867
v -0.05202394 -0.01308297 0.00606170
v -0.05384860 -0.01032286 0.00506878
v -0.05061874 -0.01418814 0.00693752
v -0.05058136 -0.01102893 0.00952399
v -0.05532663 -0.01289877 0.00009862
v -0.05008686 -0.01209462 0.00371393
v -0.05396083 -0.01388711 0.00176565
v -0.05359412 -0.01057843 0.00537854
v -0.05626477 -0.01034478 0.00054960
v -0.05699615 -0.00318920 0.00183280
v -0.05052980 -0.00792243 0.01055801
v -0.05555115 -0.00643047 0.00374057
v -0.05287679 -0.01287654 0.00481717
v -0.05032006 -0.01467527 0.00038889
v -0.05286066 -0.00658025 0.00786879
v -0.05434507 -0.00879662 0.00488883
v -0.05362420 -0.01326009 0.00316213
v -0.05013825 -0.00655069 0.01134161
v -0.05344375 -0.00909277 0.00005207
v -0.05732101 -0.00569188 0.00047183
v -0.05669284 -0.00550656 0.00177797
v -0.05114174 -0.01505693 0.00520758
v -0.05376229 -0.01474848 0.00097803
f 40 15 36
f 31 33 40
f 40 33 15
f 62 7 101
f 31 40 96
f 36 15 5
f 63 31 62
f 63 33 31
f 31 96 47
f 47 96 7
f 62 31 47
f 47 7 62
f 68 101 26
f 26 96 68
f 26 101 7
f 7 96 26
f 88 96 40
f 15 33 61
f 61 5 15
f 51 33 3
f 68 96 52
f 44 101 68
f 30 40 36
f 36 88 30
f 30 88 40
f 33 63 59
f 59 3 33
f 63 3 59
f 36 5 100
f 62 101 87
f 101 44 87
f 36 56 18
f 18 88 36
f 96 88 18
f 18 52 96
f 27 10 2
f 45 100 93
f 45 56 36
f 36 100 45
f 49 100 5
f 80 44 105
f 80 87 44
f 87 99 50
f 91 87 25
f 68 52 78
f 8 13 77
f 56 13 8
f 8 18 56
f 41 70 90
f 89 80 105
f 25 50 4
f 25 87 39
f 39 50 25
f 87 50 39
f 5 61 9
f 9 53 5
f 9 33 51
f 9 61 33
f 27 2 19
f 62 87 19
f 19 2 62
f 90 70 98
f 70 73 98
f 16 10 27
f 71 19 58
f 102 71 58
f 27 19 102
f 19 71 102
f 57 78 52
f 38 44 68
f 68 78 38
f 38 78 44
f 99 83 95
f 90 4 95
f 95 4 99
f 18 8 85
f 104 83 99
f 99 72 104
f 104 85 83
f 18 85 104
f 17 41 90
f 90 95 32
f 32 37 13
f 32 17 90
f 13 17 32
f 79 76 53
f 5 53 75
f 53 76 75
f 75 49 5
f 82 89 72
f 82 99 87
f 82 72 99
f 87 80 82
f 28 50 99
f 99 4 28
f 28 4 50
f 58 19 1
f 87 91 1
f 1 19 87
f 90 98 65
f 65 98 73
f 11 73 70
f 11 29 73
f 64 63 62
f 73 29 22
f 22 94 73
f 16 94 12
f 94 22 12
f 103 16 27
f 103 94 16
f 52 18 55
f 55 57 52
f 18 57 55
f 72 89 43
f 43 104 72
f 43 89 105
f 105 44 43
f 44 78 43
f 78 57 43
f 43 57 18
f 18 104 43
f 86 13 56
f 86 17 13
f 41 17 46
f 46 6 41
f 56 45 46
f 46 86 56
f 17 86 46
f 74 79 70
f 66 45 93
f 6 46 66
f 93 100 66
f 100 74 66
f 66 74 70
f 70 41 66
f 41 6 66
f 37 32 23
f 23 32 83
f 77 13 23
f 13 37 23
f 67 95 83
f 83 32 67
f 67 32 95
f 84 65 91
f 84 91 25
f 25 4 84
f 84 4 90
f 90 65 84
f 73 94 60
f 60 1 91
f 58 1 60
f 60 102 58
f 48 20 70
f 70 79 48
f 48 79 53
f 53 9 48
f 97 11 70
f 29 11 97
f 70 20 97
f 97 20 29
f 21 22 29
f 64 22 21
f 3 64 21
f 35 3 63
f 63 64 35
f 35 64 3
f 92 12 81
f 81 22 64
f 81 12 22
f 81 14 92
f 62 2 81
f 81 64 62
f 10 14 81
f 81 2 10
f 76 79 24
f 79 74 24
f 24 75 76
f 49 75 24
f 100 49 24
f 24 74 100
f 34 46 45
f 45 66 34
f 34 66 46
f 42 65 73
f 73 60 42
f 91 65 42
f 42 60 91
f 69 9 51
f 69 48 9
f 51 3 69
f 29 20 54
f 54 21 29
f 20 48 54
f 48 69 54
f 3 21 54
f 54 69 3
f 80 89 82
f 10 16 12
f 92 14 12
f 12 14 10
f 23 85 8
f 23 8 77
f 83 85 23
f 27 102 60
f 60 103 27
f 94 103 60

