# https://github.com/mikedh/trimesh
v -0.08948846 0.00531091 -0.22493483
v -0.06034004 0.01674626 -0.22241201
v -0.07719319 0.00314961 -0.22620157
v -0.05713675 0.01529810 -0.22070641
v -0.05862268 0.00797093 -0.22156487
v -0.07924317 0.04525082 -0.20038110
v -0.09925403 0.03587375 -0.20102087
v -0.08205633 0.04524689 -0.21316652
v -0.05069100 0.00321350 -0.21685199
v -0.05024943 0.03606644 -0.20702613
v -0.05022297 0.03606292 -0.20036793
v -0.07597162 0.01612648 -0.22602221
v -0.05075611 0.00360065 -0.21689005
v -0.06017486 0.00463530 -0.22241519
v -0.08256621 0.03592042 -0.22088295
v -0.06796386 0.01740379 -0.22504949
v -0.06370552 0.01747780 -0.22376472
v -0.05111997 0.03536637 -0.21163726
v -0.05104958 0.01056304 -0.21695674
v -0.09889822 0.00436797 -0.22171985
v -0.07595264 0.00535923 -0.22612288
v -0.05324104 0.00049536 -0.21859818
v -0.05006329 0.00519378 -0.21637094
v -0.09896128 0.00979043 -0.22169350
v -0.05297786 0.04535383 -0.20310040
v -0.06734895 0.00064258 -0.22497612
v -0.07935291 0.00214282 -0.22616955
v -0.06171538 0.01503737 -0.22304767
v -0.07448234 0.01689211 -0.22584078
v -0.06020574 0.04532856 -0.20802366
v -0.05849390 0.00015201 -0.22151983
v -0.05193313 0.03554661 -0.21229523
v -0.08882547 0.01290236 -0.22506169
v -0.09496876 0.00000470 -0.21359912
v -0.06144468 0.03602883 -0.21744667
v -0.05327889 0.01423575 -0.21838015
v -0.08637053 0.00030393 -0.22543202
v -0.05975183 0.01749429 -0.22196676
v -0.05982397 0.00189967 -0.22225487
v -0.07777696 0.00144670 -0.22621398
v -0.07111445 0.00005450 -0.22551134
v -0.05792906 0.00009797 -0.22120591
v -0.06223350 0.00086927 -0.22318224
v -0.06022024 0.00373733 -0.22244171
v -0.06718312 0.01373637 -0.22491783
v -0.09283501 0.03565838 -0.21869225
v -0.05907397 0.01592364 -0.22174573
v -0.08775088 0.00890299 -0.22522391
v -0.05959777 0.04532665 -0.20017216
v -0.06178964 0.01450423 -0.22307479
v -0.09914053 0.01543947 -0.22160046
v -0.09977133 0.01733786 -0.22045174
v -0.05168032 0.01698875 -0.21714974
v -0.06049838 0.00399028 -0.22256039
v -0.08194152 0.03594015 -0.20006651
v -0.05846296 0.01044094 -0.22146039
v -0.09964279 0.01617679 -0.22131428
v -0.08527152 0.00072035 -0.22557908
v -0.05573598 0.01750859 -0.21979714
v -0.05197407 0.00898875 -0.21763016
v -0.09988639 0.01282330 -0.22116887
v -0.07710032 0.01011600 -0.22619057
v -0.09029052 0.01579354 -0.22466935
v -0.06112938 0.00200432 -0.22279508
v -0.05306964 0.03596515 -0.21301800
v -0.07380449 0.00009225 -0.22588326
v -0.05003783 0.00209857 -0.20536740
v -0.05018675 0.00131556 -0.20553841
v -0.06253172 0.01719858 -0.22334770
v -0.09586574 0.00489609 -0.22275613
v -0.06397140 0.03569452 -0.21867541
v -0.07289034 0.04527529 -0.20021535
v -0.06661262 0.00964713 -0.22478036
v -0.07822007 0.00065637 -0.22620189
v -0.05327090 0.00592767 -0.21856175
v -0.05921878 0.00014109 -0.22192250
v -0.07659766 0.04526800 -0.21317567
v -0.09688848 0.00466050 -0.22240658
v -0.07481962 0.00042461 -0.22602013
v -0.07214572 0.04518764 -0.21304499
v -0.06694799 0.00868527 -0.22486779
v -0.05059847 0.00061711 -0.21682762
v -0.09245475 0.04519992 -0.20069265
v -0.07816330 0.00609959 -0.22620129
v -0.08123844 0.04524296 -0.20010006
v -0.07146047 0.00004103 -0.21636349
v -0.05993352 0.00647178 -0.22227855
v -0.09166975 0.04520366 -0.20199363
v -0.06978434 0.04512714 -0.21257776
v -0.08288439 0.04492552 -0.21332604
v -0.09787827 0.00030418 -0.21183308
v -0.05929605 0.01479799 -0.22187332
v -0.09786416 0.00403781 -0.22207280
v -0.07063813 0.04528425 -0.20068193
v -0.05245258 0.04535434 -0.20030223
v -0.07870560 0.00882297 -0.22618253
v -0.05581257 0.03604911 -0.21472010
v -0.09396342 0.01736181 -0.22336629
v -0.06752420 0.01136549 -0.22500209
v -0.09921733 0.03587037 -0.21586601
v -0.09981906 0.00067695 -0.21084898
v -0.09738980 0.01709104 -0.22224538
v -0.09694601 0.01734247 -0.22239718
v -0.05310557 0.00379418 -0.21847678
v -0.07974360 0.00285448 -0.22613549
v -0.05051662 0.03606652 -0.20908350
v -0.05212336 0.00927227 -0.21772822
v -0.07101325 0.04528881 -0.21174171
v -0.08508749 0.04505823 -0.21248541
v -0.06126677 0.01698485 -0.22283313
v -0.05237158 0.00374181 -0.21799024
v -0.07850015 0.00812752 -0.22619104
v -0.05085228 0.00923435 -0.21684518
v -0.07650606 0.01453073 -0.22609940
v -0.05341335 0.01120353 -0.21854812
v -0.05730362 0.03562619 -0.21571633
v -0.06711014 0.00541102 -0.22491162
v -0.07162730 0.04528696 -0.21269499
v -0.09610788 0.03550660 -0.21742148
v -0.05048739 0.00021751 -0.20581858
v -0.08924029 0.04421207 -0.20022049
v -0.05111014 0.04535994 -0.20105707
v -0.09642007 0.00224422 -0.22256463
v -0.07646559 0.03597266 -0.22093415
v -0.07894817 0.03543776 -0.22114792
v -0.09942914 0.00124833 -0.22141103
v -0.06624564 0.04530703 -0.21134912
v -0.05013291 0.00362788 -0.21645118
v -0.07504327 0.00089795 -0.22604591
v -0.05440556 0.01745311 -0.21900528
v -0.09232116 0.03583535 -0.21884032
v -0.09903734 0.00174805 -0.22163626
v -0.09021522 0.01436636 -0.22469392
v -0.07780456 0.01726364 -0.22618973
v -0.08362474 0.01740290 -0.22555863
v -0.05894364 0.01608330 -0.22167469
v -0.06577577 0.03555204 -0.21929031
v -0.05660147 0.04488659 -0.20626012
v -0.09035800 0.01678644 -0.22464711
v -0.06452892 0.04531287 -0.20987271
v -0.07425978 0.03582645 -0.22089838
v -0.07579613 0.03596389 -0.20003930
v -0.05060099 0.01073190 -0.21663852
v -0.07922012 0.00555403 -0.22616241
v -0.05040625 0.03836675 -0.20028236
v -0.06775920 0.00336928 -0.22503844
v -0.09777914 0.01682431 -0.22211217
v -0.09068160 0.04520660 -0.20037320
v -0.05302151 0.00153792 -0.21844487
v -0.06782794 0.03600535 -0.21965154
v -0.06160289 0.01630546 -0.22299084
v -0.08848204 0.01263561 -0.22511361
v -0.07669509 0.01070426 -0.22616497
v -0.07327304 0.00004346 -0.22581023
v -0.09995801 0.00983215 -0.22112277
v -0.06101862 0.00217599 -0.22275456
v -0.06754317 0.00973561 -0.22500599
v -0.08838477 0.01714176 -0.22508391
v -0.07519910 0.03879470 -0.20005500
v -0.08990319 0.00009360 -0.22478893
v -0.05036949 0.03372789 -0.21102799
v -0.07773517 0.04503758 -0.21370013
v -0.06640760 0.00265268 -0.22473726
v -0.09994759 0.01520202 -0.21085728
v -0.07420575 0.04527718 -0.21305252
v -0.05054720 0.03451641 -0.21115418
v -0.07181737 0.04528573 -0.21179128
v -0.09977343 0.03296145 -0.21567463
v -0.09983347 0.00083718 -0.21084107
v -0.05202560 0.00111850 -0.21778839
v -0.07863465 0.04525351 -0.20100482
v -0.08900449 0.00386895 -0.22503395
v -0.09986121 0.00383812 -0.22116800
v -0.08094715 0.00111339 -0.22602751
v -0.06674439 0.01125403 -0.22481261
v -0.05997391 0.00340759 -0.22232365
v -0.09225807 0.01226252 -0.22399441
v -0.09855388 0.01276188 -0.22184425
v -0.07951505 0.00095946 -0.22616549
v -0.08023574 0.03594673 -0.20004012
v -0.05244057 0.00023861 -0.21806765
v -0.06684405 0.01692380 -0.22482999
v -0.07639317 0.00093739 -0.22615355
v -0.06002458 0.04499779 -0.20851442
v -0.08693516 0.01727461 -0.22523422
v -0.06623258 0.01382041 -0.22466144
v -0.06717554 0.01322609 -0.22491674
v -0.06110302 0.01068768 -0.22279927
v -0.05075244 0.01736813 -0.21647175
v -0.08982209 0.01467321 -0.22482845
v -0.05078286 0.01236748 -0.21673378
v -0.06435689 0.04531360 -0.20999791
v -0.08146685 0.00085439 -0.22597581
v -0.05087459 0.00585343 -0.21692840
v -0.09773878 0.00406337 -0.22211565
v -0.06496771 0.04531135 -0.21019693
v -0.09218245 0.04420077 -0.20033418
v -0.06850485 0.04529863 -0.21196727
v -0.06463980 0.00032656 -0.22406993
v -0.09150122 0.01352362 -0.22425396
v -0.05113324 0.00084691 -0.21719906
v -0.08651905 0.00575577 -0.22539659
v -0.09970754 0.03587256 -0.20205804
v -0.09928941 0.01607880 -0.22151629
v -0.09538882 0.00589162 -0.22291984
v -0.09572318 0.00101824 -0.22280168
v -0.08445102 0.04523729 -0.21254199
v -0.08837888 0.01399400 -0.22511700
v -0.09899168 0.01734149 -0.22164337
v -0.09731283 0.03588095 -0.20046270
v -0.06750373 0.01050865 -0.22499942
v -0.06114795 0.00156557 -0.22280005
v -0.09995580 0.01733409 -0.21449220
v -0.07661132 0.00143294 -0.22616672
v -0.05327905 0.01587466 -0.21833158
v -0.07511499 0.01659760 -0.22591782
v -0.08896805 0.01286677 -0.22504013
v -0.07742395 0.04525879 -0.20209306
v -0.05217607 0.00889516 -0.21777233
v -0.05029426 0.00009681 -0.21660019
v -0.07719972 0.00950130 -0.22619721
v -0.08631590 0.03589131 -0.22043785
v -0.09925071 0.00126526 -0.22151325
v -0.09399481 0.00844681 -0.22339808
v -0.09964453 0.03587982 -0.21497302
v -0.09447209 0.00019300 -0.22322836
f 166 161 189
f 220 68 120
f 67 68 220
f 226 101 126
f 213 168 155
f 150 71 137
f 85 95 72
f 67 11 142
f 142 180 67
f 210 197 7
f 210 68 67
f 120 68 210
f 7 101 210
f 210 101 120
f 197 210 121
f 122 10 106
f 106 10 161
f 106 166 122
f 161 166 106
f 160 172 37
f 34 220 120
f 226 160 34
f 34 160 154
f 23 11 67
f 23 10 11
f 161 10 23
f 189 161 23
f 20 123 206
f 173 126 101
f 126 173 57
f 57 173 155
f 155 173 169
f 169 173 101
f 169 101 7
f 164 213 155
f 155 169 164
f 40 134 221
f 16 150 137
f 46 209 119
f 25 138 184
f 184 30 25
f 145 142 11
f 122 95 145
f 145 10 122
f 11 10 145
f 49 95 85
f 49 145 95
f 142 145 49
f 203 225 168
f 203 169 7
f 203 164 169
f 168 213 203
f 213 164 203
f 55 121 210
f 67 180 55
f 55 210 67
f 55 180 85
f 85 121 55
f 65 32 189
f 65 25 32
f 138 25 65
f 97 184 65
f 184 138 65
f 18 166 189
f 189 32 18
f 122 166 18
f 18 25 122
f 32 25 18
f 120 101 91
f 91 34 120
f 91 101 226
f 226 34 91
f 154 220 86
f 86 34 154
f 220 34 86
f 67 220 128
f 128 23 67
f 132 206 226
f 20 206 132
f 132 24 20
f 132 57 24
f 123 78 70
f 93 123 20
f 155 168 61
f 61 57 155
f 24 57 51
f 209 147 51
f 225 203 83
f 7 197 83
f 83 203 7
f 119 209 100
f 225 83 100
f 209 57 100
f 168 225 100
f 100 57 168
f 21 16 129
f 129 16 79
f 37 179 74
f 40 221 3
f 153 16 21
f 124 134 125
f 125 15 124
f 134 15 125
f 159 49 85
f 142 49 159
f 85 180 159
f 180 142 159
f 130 65 189
f 97 65 130
f 130 59 97
f 4 59 130
f 99 16 182
f 76 42 41
f 41 199 76
f 41 220 154
f 41 42 220
f 26 199 41
f 154 99 41
f 31 42 76
f 97 59 116
f 226 126 223
f 223 132 226
f 126 57 223
f 57 132 223
f 195 78 123
f 123 93 195
f 63 190 200
f 172 160 1
f 217 1 190
f 172 1 217
f 168 57 52
f 52 61 168
f 57 61 52
f 204 57 209
f 209 51 204
f 204 51 57
f 24 51 178
f 178 51 147
f 20 24 178
f 127 25 30
f 127 30 184
f 127 184 97
f 71 150 127
f 198 218 127
f 37 58 193
f 193 179 37
f 193 174 179
f 66 74 79
f 79 16 66
f 37 74 66
f 66 99 154
f 16 99 66
f 154 160 66
f 66 160 37
f 183 129 79
f 21 129 183
f 183 74 40
f 79 74 183
f 62 221 134
f 134 153 62
f 134 16 29
f 16 153 29
f 207 90 131
f 131 109 207
f 131 90 222
f 100 109 131
f 131 46 119
f 119 100 131
f 209 46 131
f 139 190 63
f 98 131 139
f 84 134 40
f 84 112 134
f 163 199 26
f 45 99 182
f 26 41 146
f 75 22 4
f 4 22 5
f 97 116 35
f 35 116 71
f 35 127 97
f 71 127 35
f 38 116 59
f 110 116 38
f 59 2 38
f 38 2 110
f 78 177 205
f 205 70 78
f 177 200 205
f 205 200 224
f 224 200 133
f 133 200 190
f 85 72 6
f 85 6 148
f 148 121 85
f 148 83 197
f 197 121 148
f 108 218 198
f 198 118 108
f 108 148 218
f 80 118 198
f 122 25 192
f 25 127 192
f 89 127 150
f 198 127 89
f 150 80 89
f 89 80 198
f 88 100 83
f 88 109 100
f 207 109 88
f 88 118 207
f 83 118 88
f 179 174 105
f 40 3 214
f 214 183 40
f 207 118 8
f 8 90 207
f 8 15 222
f 222 90 8
f 98 139 103
f 209 131 103
f 103 131 98
f 135 15 134
f 53 130 189
f 53 215 130
f 189 191 53
f 53 191 215
f 199 163 212
f 71 116 69
f 69 116 110
f 99 45 211
f 157 41 99
f 157 146 41
f 99 211 157
f 26 146 157
f 157 211 26
f 4 130 115
f 115 75 4
f 136 59 4
f 136 2 59
f 202 58 48
f 48 152 202
f 48 58 37
f 158 217 190
f 190 139 158
f 158 131 222
f 158 139 131
f 218 148 171
f 171 148 6
f 167 108 118
f 148 108 167
f 167 118 83
f 83 148 167
f 141 80 150
f 141 134 124
f 150 16 141
f 141 16 134
f 162 8 77
f 162 141 124
f 80 141 162
f 124 15 162
f 15 8 162
f 94 95 122
f 94 72 95
f 218 171 94
f 94 6 72
f 94 171 6
f 27 179 96
f 96 112 27
f 134 112 96
f 114 153 134
f 134 12 114
f 114 12 153
f 216 29 153
f 153 12 216
f 134 29 216
f 216 12 134
f 165 8 118
f 77 8 165
f 118 80 165
f 165 162 77
f 80 162 165
f 102 147 209
f 209 103 102
f 189 23 143
f 143 191 189
f 76 199 43
f 43 212 76
f 199 212 43
f 156 212 64
f 64 212 163
f 175 81 182
f 163 81 175
f 117 163 26
f 26 81 117
f 117 81 163
f 187 81 26
f 26 211 187
f 187 211 45
f 187 45 182
f 182 81 187
f 151 69 110
f 130 215 36
f 36 115 130
f 215 191 36
f 75 115 219
f 22 201 181
f 220 42 181
f 42 22 181
f 82 128 220
f 220 181 82
f 82 181 201
f 4 5 56
f 56 136 4
f 202 152 208
f 185 135 134
f 15 135 185
f 222 15 185
f 185 158 222
f 122 192 140
f 140 94 122
f 218 94 140
f 179 105 144
f 144 96 179
f 163 69 50
f 50 64 163
f 156 64 50
f 2 176 14
f 14 176 44
f 39 31 76
f 44 176 39
f 39 5 22
f 76 212 39
f 39 22 42
f 42 31 39
f 39 212 156
f 182 186 73
f 73 186 163
f 17 69 163
f 163 186 17
f 17 186 182
f 71 69 17
f 137 71 17
f 182 16 17
f 17 16 137
f 107 36 191
f 115 36 107
f 107 219 115
f 201 219 13
f 170 201 22
f 22 149 170
f 75 219 111
f 111 219 201
f 33 208 152
f 158 208 33
f 217 158 33
f 196 127 218
f 218 140 196
f 196 192 127
f 196 140 192
f 69 151 28
f 28 50 69
f 2 136 47
f 47 92 2
f 87 176 2
f 2 92 87
f 19 107 191
f 128 82 9
f 9 82 201
f 201 13 9
f 75 111 104
f 22 75 104
f 104 149 22
f 188 28 151
f 54 39 156
f 44 39 54
f 54 188 44
f 28 188 54
f 194 13 219
f 113 19 191
f 113 194 19
f 60 194 219
f 19 194 60
f 84 179 27
f 84 74 179
f 40 74 84
f 27 112 84
f 123 70 133
f 133 205 224
f 133 160 226
f 226 206 133
f 133 1 160
f 133 206 123
f 190 1 133
f 70 205 133
f 214 3 221
f 214 153 21
f 21 183 214
f 221 62 214
f 214 62 153
f 20 178 102
f 63 200 102
f 102 93 20
f 102 177 78
f 78 195 102
f 102 195 93
f 102 200 177
f 102 178 147
f 102 139 63
f 102 103 139
f 144 193 58
f 202 208 144
f 144 58 202
f 174 193 144
f 144 105 174
f 134 96 144
f 144 185 134
f 144 208 158
f 158 185 144
f 163 175 73
f 73 175 182
f 33 48 37
f 37 172 33
f 172 217 33
f 152 48 33
f 5 39 87
f 92 47 87
f 136 56 87
f 87 39 176
f 87 47 136
f 87 56 5
f 104 111 201
f 104 170 149
f 201 170 104
f 188 151 110
f 110 2 188
f 2 14 188
f 188 14 44
f 50 28 54
f 156 50 54
f 128 9 113
f 191 143 113
f 113 143 23
f 23 128 113
f 113 9 13
f 13 194 113
f 107 19 60
f 219 107 60

