# https://github.com/mikedh/trimesh
v -0.01431662 -0.02060249 -0.05000654
v -0.02972847 -0.01219838 -0.05065140
v -0.01396150 -0.04994881 -0.05201619
v -0.02916265 -0.01860108 -0.06086999
v -0.03053925 -0.01328768 -0.05212959
v -0.02857102 -0.04963788 -0.07504208
v -0.02958381 -0.01541059 -0.05656686
v -0.02690013 -0.02999340 -0.07159380
v -0.00179019 -0.01414431 -0.06537402
v -0.02614299 -0.02011914 -0.06473816
v -0.02972682 -0.02976028 -0.06830350
v -0.03361134 -0.03708467 -0.05000452
v -0.02452044 -0.02650907 -0.07051228
v -0.00008428 -0.04299117 -0.07911442
v -0.02854699 -0.01927959 -0.06233568
v -0.00028384 -0.02335698 -0.07239615
v -0.03006330 -0.03399058 -0.06911039
v -0.02696457 -0.03143327 -0.07224304
v -0.02932600 -0.02386211 -0.06541941
v -0.02753574 -0.03409876 -0.07295187
v -0.03253732 -0.02201986 -0.05608246
v -0.03105604 -0.02960810 -0.06445823
v -0.02981945 -0.04847913 -0.07146289
v -0.02875031 -0.03003563 -0.06980942
v -0.02829579 -0.02244557 -0.06540060
v -0.01703236 -0.01321802 -0.05002149
v -0.02985143 -0.01640651 -0.05754442
v -0.02256843 -0.03221815 -0.07414095
v -0.02390586 -0.04537911 -0.07805242
v -0.02623663 -0.03540258 -0.07449802
v -0.03084932 -0.03509679 -0.06563485
v -0.02204087 -0.04270873 -0.07781253
v -0.02519739 -0.02735920 -0.07090599
v -0.02807525 -0.03432284 -0.07253334
v -0.02228075 -0.03515909 -0.07550172
v -0.02758931 -0.01399161 -0.05628923
v -0.02348225 -0.02942070 -0.07257887
v -0.02836501 -0.01308787 -0.05426232
v -0.02367088 -0.04841772 -0.07845421
v -0.00175022 -0.01326120 -0.06456382
v -0.02711765 -0.03417725 -0.07331961
v -0.00005057 -0.03967464 -0.07850712
v -0.02997963 -0.03700657 -0.07008941
v -0.00056577 -0.02403677 -0.07278181
v -0.03155286 -0.02457495 -0.06118537
v -0.02976932 -0.03974146 -0.07122712
v -0.00035582 -0.01362106 -0.06492109
v -0.02802597 -0.01495145 -0.05740789
v -0.02259884 -0.03977762 -0.07705625
v -0.00204902 -0.00908190 -0.06007899
v -0.03288187 -0.01695626 -0.05181683
v -0.02590169 -0.02516873 -0.06911845
v -0.03004110 -0.02813552 -0.06691810
v -0.02632508 -0.03729845 -0.07503552
v -0.03134688 -0.02620617 -0.06249593
v -0.03057551 -0.03340280 -0.06717378
v -0.03093604 -0.01746476 -0.05716502
v -0.02757417 -0.01948013 -0.06324724
v -0.02789770 -0.03119286 -0.07139379
v -0.03020329 -0.02105870 -0.06187242
v -0.02857547 -0.04966229 -0.07503490
v -0.02814243 -0.01851893 -0.06185520
v -0.02859852 -0.01452244 -0.05624663
v -0.00023136 -0.01979580 -0.07008371
v -0.03040801 -0.01950364 -0.06012009
v -0.02792674 -0.03339946 -0.07233454
v -0.03154499 -0.02363248 -0.06078882
v -0.00109301 -0.00671479 -0.05733972
v -0.00060682 -0.02240640 -0.07173987
v -0.02756138 -0.04619212 -0.07597571
v -0.02672525 -0.02363555 -0.06748639
v -0.02279044 -0.03626987 -0.07584565
v -0.02702256 -0.04223605 -0.07582432
v -0.02463077 -0.03342729 -0.07437695
v -0.02840045 -0.02837778 -0.06939331
v -0.00051452 -0.01269519 -0.06405680
v -0.02970739 -0.03113103 -0.06889345
v -0.02731025 -0.03983214 -0.07509892
v -0.03016669 -0.01284696 -0.05192083
v -0.03018536 -0.01944475 -0.06046815
v -0.03070711 -0.02419804 -0.06328954
v -0.03102628 -0.03588914 -0.06463346
v -0.02388860 -0.04905661 -0.07846307
v -0.02666137 -0.02575664 -0.06916067
v -0.01431347 -0.04610567 -0.05002434
v -0.00187071 -0.00531023 -0.05553161
v -0.02981792 -0.04488394 -0.07147156
v -0.02970052 -0.02790462 -0.06741718
v -0.03061305 -0.03227825 -0.06681605
v -0.03078434 -0.01713132 -0.05709662
v -0.02430215 -0.02684783 -0.07076992
v -0.02774559 -0.02252190 -0.06603766
v -0.03068110 -0.02951784 -0.06601278
v -0.02369419 -0.04399989 -0.07790492
v -0.03071996 -0.01445364 -0.05365364
v -0.02692564 -0.03191504 -0.07248455
v -0.00241307 -0.04991825 -0.07767631
v -0.03170529 -0.02287695 -0.05992879
v -0.03090148 -0.03007178 -0.06520802
v -0.02936771 -0.01216289 -0.05100154
v -0.02991938 -0.02753619 -0.06686058
v -0.02844489 -0.01604315 -0.05864326
v -0.02814074 -0.02111806 -0.06438783
v -0.02603712 -0.04463922 -0.07703276
v -0.02807133 -0.04777191 -0.07552388
v -0.03314406 -0.01606450 -0.05005092
v -0.03310881 -0.01823296 -0.05226556
v -0.00309997 -0.00595661 -0.05625467
v -0.03357230 -0.02112717 -0.05022546
v -0.03359535 -0.04229687 -0.05009505
v -0.02766838 -0.03858790 -0.07439716
v -0.02861210 -0.02869675 -0.06932231
v -0.02623089 -0.03092579 -0.07249132
v -0.00670802 -0.00499966 -0.05008386
v -0.00014652 -0.00740464 -0.05810791
v -0.02859338 -0.02286365 -0.06545935
v -0.02566187 -0.04176479 -0.07666836
v -0.02946641 -0.04763878 -0.07297561
v -0.00054610 -0.02263559 -0.07189612
v -0.02886112 -0.01344795 -0.05437364
v -0.02808996 -0.01243072 -0.05334610
v -0.02622409 -0.04320813 -0.07660755
v -0.02637447 -0.03872831 -0.07545397
v -0.02942677 -0.02379063 -0.06522512
v -0.02538780 -0.02961649 -0.07219083
v -0.00082807 -0.01507735 -0.06624716
v -0.00251757 -0.00499482 -0.05488684
v -0.02828455 -0.03036391 -0.07061519
v -0.00106576 -0.00674895 -0.05738230
v -0.03190130 -0.01675310 -0.05434924
v -0.02854556 -0.01441166 -0.05612427
v -0.03029890 -0.03311594 -0.06824026
v -0.02432002 -0.03900965 -0.07654971
v -0.03141824 -0.02203176 -0.06014795
v -0.02947295 -0.01436561 -0.05523414
v -0.03121334 -0.04996717 -0.06357486
v -0.00102157 -0.00609922 -0.05656016
v -0.02199748 -0.04707366 -0.07850097
v -0.02276423 -0.04685499 -0.07838325
v -0.02603466 -0.04009361 -0.07609587
v -0.02411001 -0.04023075 -0.07694492
v -0.02807456 -0.03466500 -0.07266842
v -0.02398909 -0.04436291 -0.07790859
v -0.01430885 -0.04640526 -0.05005051
v -0.02542997 -0.04569852 -0.07749767
v -0.03085642 -0.02192408 -0.06148294
v -0.02892448 -0.04441537 -0.07387060
v -0.03121930 -0.01395915 -0.05207148
v -0.02734195 -0.02659712 -0.06929095
v -0.02649666 -0.02022282 -0.06463305
v -0.02702585 -0.01554809 -0.05900491
v -0.02671418 -0.01767147 -0.06187024
v -0.02553829 -0.04600080 -0.07748896
v -0.03010457 -0.03921507 -0.06984622
v -0.03056107 -0.03422939 -0.06726606
v -0.03269660 -0.01903597 -0.05421807
v -0.02761834 -0.02134239 -0.06502047
v -0.03209035 -0.02196959 -0.05811158
v -0.02968206 -0.02103494 -0.06269970
v -0.02971206 -0.04895558 -0.07205994
v -0.02904219 -0.03204656 -0.07038911
v -0.02928933 -0.03775211 -0.07186199
v -0.02974298 -0.04173662 -0.07153861
v -0.00110598 -0.01949364 -0.06975936
v -0.03101226 -0.02815487 -0.06433405
v -0.03150994 -0.02623568 -0.06180992
v -0.02887678 -0.04038930 -0.07334124
v -0.03065408 -0.01943574 -0.05961006
v -0.03082346 -0.02905530 -0.06532212
v -0.03360158 -0.02511160 -0.05005977
v -0.03312405 -0.01979698 -0.05272649
v -0.02948145 -0.04685684 -0.07288817
v -0.02952391 -0.04459844 -0.07260505
v -0.02174768 -0.04351697 -0.07800471
v -0.00002458 -0.00500000 -0.05459578
v -0.02991461 -0.03458706 -0.06962150
v -0.02870953 -0.04297345 -0.07409420
v -0.03122899 -0.02024082 -0.05932683
v -0.02955243 -0.04711542 -0.07262812
v -0.02408790 -0.03834111 -0.07641066
v -0.02812908 -0.02698885 -0.06883873
v -0.02353446 -0.04580391 -0.07816904
v -0.03194165 -0.02231467 -0.05887213
v -0.02622552 -0.02091168 -0.06546711
v -0.02879342 -0.03910039 -0.07315298
v -0.02907165 -0.03101236 -0.06986186
v -0.02993449 -0.04914848 -0.07081189
v -0.03043802 -0.03462200 -0.06792030
v -0.02348439 -0.04554022 -0.07814465
v -0.02662485 -0.01817794 -0.06254728
v -0.03116621 -0.02168529 -0.06061206
v -0.03080186 -0.03069419 -0.06575568
v -0.03231391 -0.01889808 -0.05528376
v -0.02728827 -0.04359940 -0.07591540
v -0.02290390 -0.03948033 -0.07694804
v -0.03079857 -0.02482547 -0.06342280
v -0.02969623 -0.03836541 -0.07114423
v -0.03137291 -0.02721602 -0.06261631
v -0.02776283 -0.04326667 -0.07531418
v -0.02872535 -0.03726045 -0.07270827
v -0.02456124 -0.03501446 -0.07508778
v -0.02316740 -0.02751781 -0.07140348
v -0.02253206 -0.03361053 -0.07483920
v -0.02893407 -0.03589385 -0.07203796
v -0.02952302 -0.03613370 -0.07096006
v -0.02943035 -0.02235124 -0.06412755
v -0.03081222 -0.02799002 -0.06498274
v -0.03070548 -0.01707971 -0.05720073
v -0.03244697 -0.02248237 -0.05659375
v -0.02845157 -0.04736878 -0.07503927
v -0.03040828 -0.03146155 -0.06742286
v -0.02911451 -0.03503432 -0.07146731
v -0.03056945 -0.03067366 -0.06668522
v -0.02914132 -0.02053381 -0.06282409
v -0.00024348 -0.02536514 -0.07356638
v -0.03078320 -0.02969702 -0.06562757
v -0.03209365 -0.02165254 -0.05798912
v -0.02739349 -0.02282400 -0.06649642
v -0.03072832 -0.03212410 -0.06631962
v -0.00001890 -0.01939164 -0.06984513
v -0.03132095 -0.02604501 -0.06256584
v -0.03056470 -0.02435856 -0.06375253
v -0.02722117 -0.04386247 -0.07601904
v -0.03058768 -0.01457512 -0.05401808
v -0.00014943 -0.02609253 -0.07395442
v -0.00532600 -0.00500104 -0.05273260
v -0.00553735 -0.00508841 -0.05342145
v -0.03054020 -0.02669107 -0.06500413
v -0.02494245 -0.03368998 -0.07436094
v -0.01863527 -0.04997340 -0.07837249
v -0.02889849 -0.01573688 -0.05783604
v -0.02644846 -0.03993191 -0.07576129
v -0.02589085 -0.04118067 -0.07642709
v -0.03045410 -0.01253767 -0.05075733
v -0.02823957 -0.02254556 -0.06554790
v -0.02966647 -0.01275738 -0.05246084
v -0.02969308 -0.01746569 -0.05899388
v -0.02292770 -0.04645103 -0.07831691
v -0.01427317 -0.04766516 -0.05025244
v -0.00006366 -0.02512343 -0.07343382
v -0.02482673 -0.02165389 -0.06663132
v -0.02560701 -0.04874116 -0.07776138
v -0.00241179 -0.01009445 -0.06113026
v -0.02266499 -0.04915748 -0.07866092
v -0.00098295 -0.01820924 -0.06888744
v -0.02781033 -0.02446669 -0.06736451
v -0.01217685 -0.04999700 -0.07591931
v -0.02984815 -0.02412588 -0.06481298
v -0.03250901 -0.04307613 -0.05624267
v -0.02712347 -0.01589810 -0.05942940
v -0.00038173 -0.01770223 -0.06856483
v -0.03057386 -0.02366418 -0.06328907
v -0.02720390 -0.01900550 -0.06301779
v -0.02540592 -0.02149061 -0.06634684
v -0.03185228 -0.02406915 -0.05976771
v -0.03257813 -0.01916553 -0.05468994
v -0.03042825 -0.02000837 -0.06055914
v -0.02752023 -0.01911663 -0.06292921
v -0.02569724 -0.04702617 -0.07752043
v -0.02892890 -0.02719555 -0.06811180
v -0.02278204 -0.03605813 -0.07577081
v -0.03180558 -0.02241361 -0.05932926
v -0.02891485 -0.01246788 -0.05265733
v -0.00196071 -0.01247062 -0.06370178
v -0.02687564 -0.03259859 -0.07282301
v -0.02756209 -0.02175672 -0.06545592
v -0.02988395 -0.01218294 -0.05024933
v -0.02146511 -0.04548087 -0.07831174
v -0.03014421 -0.03843910 -0.06959503
v -0.03058673 -0.01662334 -0.05680442
v -0.02655755 -0.04275005 -0.07626959
v -0.02742841 -0.01765263 -0.06132781
v -0.00004773 -0.03938443 -0.07845128
v -0.02588002 -0.01887412 -0.06351296
v -0.02548333 -0.03038523 -0.07257165
v -0.02855813 -0.04859570 -0.07498948
v -0.02898910 -0.04056827 -0.07314533
v -0.03264669 -0.01516318 -0.05052801
v -0.02861392 -0.02532659 -0.06722514
v -0.03049071 -0.02398555 -0.06367287
v -0.02404038 -0.03573950 -0.07548344
v -0.03014038 -0.03275521 -0.06855008
v -0.03024688 -0.03273641 -0.06829917
v -0.02620491 -0.04988028 -0.07741794
v -0.03162096 -0.01481592 -0.05253997
v -0.03125383 -0.02670213 -0.06299977
v -0.03294217 -0.01931742 -0.05340503
v -0.02248055 -0.03392116 -0.07500078
v -0.02971197 -0.03186847 -0.06917646
v -0.02311280 -0.03918935 -0.07684917
v -0.02263829 -0.03878396 -0.07676891
v -0.02673461 -0.04911447 -0.07699845
v -0.02812980 -0.03621656 -0.07314481
v -0.00191959 -0.00574983 -0.05611872
v -0.03027721 -0.02739884 -0.06598654
v -0.02428305 -0.03786465 -0.07617501
v -0.00020763 -0.04437576 -0.07924901
v -0.02516012 -0.04934712 -0.07800290
v -0.00021651 -0.02021036 -0.07035535
v -0.03130569 -0.01910854 -0.05812056
v -0.03036174 -0.03277598 -0.06792557
v -0.02997318 -0.04097480 -0.07057764
v -0.02740727 -0.04234354 -0.07556602
v -0.00045250 -0.00500000 -0.05487106
v -0.00253942 -0.00499518 -0.05499203
v -0.02903520 -0.01835730 -0.06075579
v -0.02915811 -0.03106304 -0.06976871
v -0.03019887 -0.03276212 -0.06841915
v -0.00170257 -0.00871210 -0.05970985
v -0.02942469 -0.04471928 -0.07288600
v -0.02243461 -0.03645869 -0.07596234
v -0.02964637 -0.01808759 -0.05972989
v -0.02767006 -0.03614348 -0.07365137
v -0.03270703 -0.01603584 -0.05152756
v -0.02701069 -0.04880027 -0.07676984
v -0.02521347 -0.03283874 -0.07384130
v -0.02725048 -0.01496346 -0.05806074
v -0.02973942 -0.01603816 -0.05720119
v -0.02976073 -0.02938778 -0.06807774
v -0.03113207 -0.01709011 -0.05632913
v -0.02696029 -0.04465108 -0.07637315
v -0.00012364 -0.00652756 -0.05697265
v -0.00979681 -0.04997600 -0.07558419
v -0.02733515 -0.01841071 -0.06231177
v -0.00286594 -0.00798173 -0.05875802
v -0.02951756 -0.04420295 -0.07260026
v -0.02846191 -0.01253824 -0.05326072
v -0.02898855 -0.02840966 -0.06866004
v -0.02991648 -0.01245585 -0.05137172
v -0.02893961 -0.01621526 -0.05849130
v -0.02931699 -0.04856468 -0.07344581
v -0.00209325 -0.00857950 -0.05952896
v -0.03134212 -0.02712029 -0.06272489
v -0.02828444 -0.02264220 -0.06558650
v -0.00071081 -0.02179603 -0.07133047
v -0.02236573 -0.04647616 -0.07838760
v -0.00011556 -0.00499537 -0.05189291
v -0.02795604 -0.02573281 -0.06813131
v -0.02997427 -0.04144147 -0.07058677
v -0.03069393 -0.02589962 -0.06424488
v -0.00012000 -0.00710214 -0.05771307
v -0.03091049 -0.02435951 -0.06285863
v -0.02855135 -0.04454166 -0.07461004
v -0.03184815 -0.01793209 -0.05581214
v -0.02626291 -0.03198791 -0.07297454
v -0.02678312 -0.02678858 -0.06978592
v -0.02965093 -0.04193898 -0.07191202
v -0.03278889 -0.01825643 -0.05329113
v -0.02833080 -0.04583130 -0.07503760
v -0.02471622 -0.04007592 -0.07666917
v -0.03177787 -0.02519276 -0.06038016
v -0.03295924 -0.01977507 -0.05348095
v -0.03272768 -0.01810813 -0.05335753
v -0.03301655 -0.01774934 -0.05212108
v -0.03028106 -0.03328994 -0.06833753
v -0.02764288 -0.03587918 -0.07358765
v -0.02630565 -0.02160913 -0.06609180
v -0.00306453 -0.00539629 -0.05546819
v -0.00059602 -0.00900165 -0.06010994
v -0.02596594 -0.03511764 -0.07453669
v -0.03277600 -0.01844930 -0.05348980
v -0.03131731 -0.01508498 -0.05364471
v -0.03155152 -0.02640677 -0.06166111
v -0.03099888 -0.02180129 -0.06112195
v -0.03142840 -0.02670386 -0.06227130
v -0.02743412 -0.02245282 -0.06618745
v -0.02935393 -0.04834263 -0.07335398
v -0.02563882 -0.04894775 -0.07776007
v -0.02627456 -0.02149915 -0.06600473
v -0.03326268 -0.02255379 -0.05197762
v -0.02458305 -0.02936144 -0.07234636
v -0.03053486 -0.04985850 -0.06741435
v -0.02950111 -0.01498491 -0.05610444
v -0.02854843 -0.04114180 -0.07397231
v -0.02871356 -0.02653206 -0.06799183
v -0.02692878 -0.04121145 -0.07567887
v -0.02627094 -0.03345449 -0.07365792
v -0.02745694 -0.03551647 -0.07361250
v -0.00390268 -0.00557485 -0.05541706
v -0.03255374 -0.01560122 -0.05137133
v -0.02941221 -0.03710585 -0.07145350
v -0.03002148 -0.01378592 -0.05371626
v -0.03022362 -0.02837436 -0.06659385
v -0.02664068 -0.03712419 -0.07474156
v -0.03159537 -0.01938094 -0.05779646
v -0.00317513 -0.00500088 -0.05011835
v -0.03277173 -0.02243586 -0.05475593
v -0.00009363 -0.03651113 -0.07787426
v -0.03072127 -0.01816820 -0.05829353
v -0.03029139 -0.02524869 -0.06486570
v -0.03174467 -0.02527306 -0.06055495
v -0.00044300 -0.01501696 -0.06620156
v -0.03345260 -0.04688720 -0.05090290
v -0.00144396 -0.01619096 -0.06723109
v -0.02936214 -0.04811389 -0.07332001
v -0.02595054 -0.02452651 -0.06859550
v -0.02581012 -0.04488730 -0.07721968
v -0.02615918 -0.03413511 -0.07402659
v -0.02401192 -0.02801890 -0.07157865
v -0.02389124 -0.02716086 -0.07104490
v -0.02571709 -0.02895465 -0.07162666
v -0.03070914 -0.03403269 -0.06642817
v -0.03149327 -0.01354618 -0.05091437
v -0.02951433 -0.04562756 -0.07271557
v -0.03190116 -0.02450034 -0.05967202
v -0.03035039 -0.03552807 -0.06841379
v -0.03242238 -0.02208137 -0.05668053
v -0.03044003 -0.01324128 -0.05221363
v -0.02970013 -0.03682513 -0.07078081
v -0.03162880 -0.01888322 -0.05732250
v -0.02753164 -0.04936795 -0.07630736
v -0.03003503 -0.01455906 -0.05477400
v -0.00216503 -0.00500091 -0.05031868
v -0.03060516 -0.02508601 -0.06406099
v -0.02952651 -0.03229053 -0.06975290
v -0.02257196 -0.04762224 -0.07849498
v -0.03165826 -0.01845502 -0.05680544
v -0.02952432 -0.04142377 -0.07217937
v -0.00300910 -0.00836588 -0.05915543
v -0.03214896 -0.02362054 -0.05828020
v -0.02772016 -0.04942894 -0.07609146
v -0.02899755 -0.02897289 -0.06893247
v -0.02470486 -0.02682214 -0.07068226
v -0.00187999 -0.00731719 -0.05802164
v -0.02723325 -0.01253666 -0.05404281
v -0.00100664 -0.01697281 -0.06790802
v -0.02467513 -0.02679775 -0.07067174
v -0.03327513 -0.01883298 -0.05167598
v -0.02421268 -0.03308201 -0.07431963
v -0.02917040 -0.02007717 -0.06238951
v -0.01056165 -0.01204992 -0.05002770
v -0.00027540 -0.03411423 -0.07708737
v -0.03104971 -0.02148151 -0.06079609
v -0.03142368 -0.02724254 -0.06238455
v -0.03101719 -0.02398020 -0.06235903
v -0.00209406 -0.00604905 -0.05646824
v -0.03013407 -0.03625944 -0.06937874
v -0.03016613 -0.02758803 -0.06634771
v -0.02827974 -0.03359868 -0.07198466
v -0.03110977 -0.02493527 -0.06268255
v -0.03337722 -0.01809468 -0.05091367
v -0.03278813 -0.01941342 -0.05414658
v -0.02899450 -0.02564884 -0.06703818
v -0.02959026 -0.03250970 -0.06968200
v -0.02401036 -0.02537287 -0.06986401
v -0.03358304 -0.01974367 -0.05016472
v -0.00133432 -0.01691057 -0.06781419
v -0.03240206 -0.02172804 -0.05666588
v -0.02789537 -0.01538813 -0.05819019
v -0.03051833 -0.03183112 -0.06711485
v -0.03360747 -0.03106504 -0.05002642
v -0.02827438 -0.02680677 -0.06859927
v -0.02779204 -0.04026629 -0.07471332
v -0.03045634 -0.02043217 -0.06090769
v -0.02411363 -0.03668287 -0.07581196
v -0.02754902 -0.04507033 -0.07588544
v -0.00005101 -0.00499905 -0.05077710
v -0.02957944 -0.04269232 -0.07224658
v -0.02329747 -0.02678255 -0.07090492
v -0.02866414 -0.04432125 -0.07439279
v -0.02624026 -0.04244550 -0.07643678
v -0.02873137 -0.03201685 -0.07077974
v -0.00004052 -0.01452815 -0.06576131
v -0.02294430 -0.03742260 -0.07623823
v -0.02936065 -0.02170862 -0.06363447
v -0.02613179 -0.03053048 -0.07235037
v -0.02817369 -0.01697043 -0.05996115
v -0.02820968 -0.02306062 -0.06598721
v -0.02760012 -0.02965453 -0.07080224
v -0.02816497 -0.01454360 -0.05666218
v -0.02808939 -0.02181257 -0.06505624
v -0.03084215 -0.01270284 -0.05045815
v -0.02676533 -0.02984299 -0.07162402
v -0.03239369 -0.01772509 -0.05407105
v -0.00036446 -0.04854235 -0.07947051
v -0.02194961 -0.04206233 -0.07766908
v -0.02970336 -0.01470562 -0.05544006
v -0.02877348 -0.01924906 -0.06204410
v -0.02934628 -0.04549237 -0.07315407
v -0.03025390 -0.02924297 -0.06689277
v -0.02858248 -0.04619440 -0.07475851
v -0.02560293 -0.02620754 -0.07000578
v -0.02997580 -0.01691586 -0.05805442
v -0.02991711 -0.03311721 -0.06915729
v -0.02455628 -0.03266978 -0.07405537
v -0.02341400 -0.04480023 -0.07806775
v -0.03223649 -0.01854249 -0.05522925
v -0.03038229 -0.01816393 -0.05890395
v -0.02524855 -0.02551973 -0.06972729
v -0.03050273 -0.03234798 -0.06727593
v -0.03214950 -0.02283982 -0.05811587
v -0.03137454 -0.02573029 -0.06225578
v -0.03355799 -0.01956686 -0.05030648
v -0.03003057 -0.04946030 -0.07026814
v -0.02625235 -0.03574059 -0.07459389
v -0.02254592 -0.04377889 -0.07799880
v -0.03316927 -0.01984157 -0.05250625
v -0.03009348 -0.03278661 -0.06866865
v -0.02951200 -0.03685782 -0.07118560
v -0.02905880 -0.02527638 -0.06670785
v -0.03254671 -0.02208371 -0.05602931
v -0.02916472 -0.01551054 -0.05725505
v -0.02879945 -0.04195451 -0.07375389
v -0.00143780 -0.01488938 -0.06606111
v -0.00419198 -0.00532304 -0.05493595
v -0.02530976 -0.02425595 -0.06867376
v -0.02461962 -0.02932589 -0.07231690
v -0.03172233 -0.01452462 -0.05189272
v -0.03342144 -0.01949769 -0.05107918
v -0.03324060 -0.01669228 -0.05032640
v -0.02718881 -0.01833271 -0.06232399
v -0.02683960 -0.02193176 -0.06607287
v -0.03062220 -0.03175952 -0.06668373
v -0.03084579 -0.01397341 -0.05271108
v -0.03353062 -0.04996333 -0.05046133
v -0.02451226 -0.04927333 -0.07824552
v -0.03142931 -0.02668584 -0.06226344
v -0.00210878 -0.00920071 -0.06020097
v -0.00741381 -0.00500008 -0.05006034
v -0.00165012 -0.04990848 -0.07869918
v -0.03336311 -0.01707988 -0.05027997
v -0.00047384 -0.01736401 -0.06827148
v -0.02546753 -0.03294582 -0.07377810
v -0.03116689 -0.02620207 -0.06324971
v -0.02685220 -0.04608432 -0.07660245
v -0.03321616 -0.04626856 -0.05224090
v -0.02325020 -0.03044494 -0.07316289
v -0.03228257 -0.02019281 -0.05643802
v -0.02941221 -0.02061136 -0.06260937
v -0.02799878 -0.03994366 -0.07437822
v -0.03226290 -0.01813142 -0.05480903
v -0.02815150 -0.01559340 -0.05827725
v -0.02922688 -0.01667319 -0.05868468
v -0.03110476 -0.01290681 -0.05047043
v -0.00007780 -0.01930092 -0.06977925
v -0.02407029 -0.04194839 -0.07734277
v -0.03355657 -0.04975804 -0.05031449
v -0.02939566 -0.02278553 -0.06452017
v -0.02978670 -0.01803149 -0.05950071
v -0.03041709 -0.02518410 -0.06456368
v -0.02213345 -0.04994946 -0.07875429
v -0.02981270 -0.04104299 -0.07121221
v -0.03019996 -0.04972935 -0.06930955
v -0.02902949 -0.01736126 -0.05967327
v -0.02981788 -0.01983822 -0.06143942
v -0.03302777 -0.01569438 -0.05009287
v -0.02332237 -0.02528721 -0.06993038
v -0.03068243 -0.02693401 -0.06477931
v -0.00094669 -0.00732519 -0.05808221
v -0.02948552 -0.03517054 -0.07074140
v -0.03208626 -0.04989467 -0.05863498
v -0.02181503 -0.04765770 -0.07859038
v -0.00017909 -0.01193839 -0.06330740
v -0.00008218 -0.00499447 -0.05236577
v -0.02899789 -0.01387996 -0.05491246
v -0.02804977 -0.02613189 -0.06832821
v -0.02848526 -0.01224769 -0.05247208
v -0.02489413 -0.04983491 -0.07812009
v -0.02816745 -0.03535178 -0.07281756
v -0.03250351 -0.02057203 -0.05583994
v -0.03275925 -0.02002999 -0.05448764
v -0.00022966 -0.03098335 -0.07607650
v -0.03049715 -0.01449842 -0.05404118
v -0.02471170 -0.03448325 -0.07483547
v -0.02960421 -0.04138878 -0.07200941
v -0.03144675 -0.01964455 -0.05837010
v -0.03202443 -0.02301175 -0.05871821
v -0.02376310 -0.03935227 -0.07680916
v -0.02489114 -0.04428342 -0.07753536
v -0.02195036 -0.03871352 -0.07680339
v -0.02722664 -0.04754284 -0.07648672
v -0.02775152 -0.04717480 -0.07584401
v -0.00181057 -0.00499383 -0.05394781
v -0.03234302 -0.02250883 -0.05716498
v -0.00054127 -0.00499432 -0.05253655
v -0.00098071 -0.00635523 -0.05688227
v -0.02580378 -0.03952846 -0.07610724
v -0.02375710 -0.04248208 -0.07754195
v -0.02834943 -0.01309224 -0.05428275
v -0.03277604 -0.01945776 -0.05421718
v -0.03273907 -0.01631448 -0.05168702
v -0.01420554 -0.04993473 -0.05063517
v -0.02602728 -0.02218733 -0.06674564
v -0.00025496 -0.00687890 -0.05744900
v -0.03237188 -0.01433255 -0.05004619
v -0.00005349 -0.04652433 -0.07947009
v -0.00383527 -0.00564890 -0.05554868
v -0.00087340 -0.01334680 -0.06466046
v -0.00114859 -0.00879487 -0.05983968
v -0.02356029 -0.04970815 -0.07858502
v -0.02702018 -0.02723368 -0.06992724
v -0.03011805 -0.03914525 -0.06977311
f 457 582 475
f 273 240 220
f 475 582 520
f 582 537 515
f 554 175 573
f 457 175 554
f 457 85 144
f 144 85 537
f 110 85 12
f 537 85 110
f 12 85 1
f 386 519 85
f 225 240 562
f 586 457 475
f 586 175 457
f 220 175 586
f 586 273 220
f 12 1 26
f 230 520 247
f 575 554 573
f 457 554 337
f 582 457 239
f 457 144 239
f 239 537 582
f 239 144 537
f 85 519 431
f 431 1 85
f 519 26 431
f 431 26 1
f 413 85 457
f 457 386 413
f 413 386 85
f 114 386 457
f 519 386 114
f 457 337 114
f 114 337 554
f 554 575 114
f 573 519 114
f 114 575 573
f 288 225 562
f 37 44 215
f 240 225 215
f 215 44 240
f 463 175 220
f 585 472 534
f 267 472 585
f 519 267 585
f 585 26 519
f 12 26 585
f 97 247 520
f 582 515 3
f 515 247 3
f 3 520 582
f 3 97 520
f 475 520 541
f 541 520 230
f 541 586 475
f 273 586 42
f 584 137 322
f 226 227 519
f 557 227 121
f 291 311 562
f 94 49 32
f 562 311 35
f 35 288 562
f 37 215 527
f 527 215 225
f 288 35 281
f 136 541 230
f 230 247 136
f 136 247 515
f 553 463 76
f 76 40 553
f 251 463 220
f 64 299 335
f 202 335 37
f 202 547 335
f 403 585 534
f 362 403 148
f 247 97 323
f 323 3 247
f 97 3 323
f 14 42 586
f 541 136 284
f 421 284 61
f 586 541 552
f 94 486 143
f 127 519 573
f 573 175 127
f 227 557 100
f 160 61 494
f 562 432 570
f 570 291 562
f 94 143 536
f 388 432 562
f 388 570 432
f 562 240 388
f 240 273 388
f 273 42 174
f 174 388 273
f 32 388 174
f 42 14 174
f 225 288 28
f 28 527 225
f 311 291 464
f 16 44 37
f 37 119 16
f 220 240 16
f 240 44 16
f 16 299 220
f 335 299 16
f 37 335 69
f 69 119 37
f 551 515 537
f 551 136 515
f 107 441 521
f 107 428 441
f 171 428 107
f 128 66 462
f 20 41 378
f 378 66 20
f 20 66 41
f 356 66 378
f 346 591 149
f 149 181 452
f 62 15 330
f 419 190 325
f 40 76 588
f 335 547 164
f 164 64 335
f 33 489 507
f 37 527 371
f 394 445 489
f 449 36 317
f 380 362 130
f 585 546 106
f 12 585 106
f 533 483 330
f 270 483 208
f 208 362 270
f 585 403 508
f 403 362 508
f 508 380 585
f 488 483 545
f 208 483 488
f 297 14 586
f 586 552 297
f 297 552 14
f 569 536 143
f 29 143 486
f 516 298 29
f 29 298 143
f 332 419 325
f 325 190 108
f 108 190 152
f 553 359 115
f 137 584 115
f 115 576 137
f 553 40 243
f 243 518 553
f 10 419 243
f 243 332 518
f 419 332 243
f 305 226 519
f 519 127 305
f 227 226 305
f 305 108 358
f 305 127 175
f 519 227 2
f 227 100 2
f 2 267 519
f 82 494 249
f 187 23 160
f 160 494 187
f 187 494 82
f 372 284 136
f 372 61 284
f 526 551 537
f 526 249 494
f 232 123 577
f 384 356 378
f 123 356 384
f 233 397 104
f 397 315 104
f 233 104 122
f 78 123 232
f 291 570 290
f 290 388 49
f 570 388 290
f 476 32 49
f 49 388 476
f 476 388 32
f 268 174 14
f 203 28 288
f 527 28 203
f 261 464 281
f 261 35 311
f 261 281 35
f 574 448 183
f 158 448 560
f 560 217 158
f 183 448 158
f 158 217 183
f 521 106 510
f 580 217 560
f 580 528 217
f 559 204 34
f 128 112 75
f 452 181 75
f 112 260 75
f 181 149 75
f 128 75 469
f 469 149 591
f 469 75 149
f 19 538 116
f 116 538 206
f 545 15 430
f 149 338 246
f 10 190 274
f 274 419 10
f 190 419 274
f 47 76 463
f 463 588 47
f 47 588 76
f 392 394 126
f 64 164 535
f 535 251 220
f 489 33 482
f 547 202 459
f 399 202 37
f 399 400 202
f 485 371 527
f 507 371 485
f 84 482 346
f 489 482 84
f 346 149 84
f 507 489 423
f 9 394 241
f 40 588 9
f 9 588 463
f 463 392 9
f 425 36 121
f 36 449 579
f 121 36 579
f 514 362 148
f 38 236 327
f 121 579 327
f 327 579 38
f 120 236 38
f 135 236 120
f 278 546 585
f 585 380 278
f 478 15 545
f 330 15 544
f 544 533 330
f 15 478 544
f 502 231 330
f 362 380 285
f 285 508 362
f 380 508 285
f 545 60 454
f 454 60 433
f 130 320 344
f 208 488 389
f 389 57 208
f 411 284 421
f 368 298 284
f 456 411 70
f 276 210 421
f 117 397 233
f 117 569 397
f 233 577 117
f 145 569 143
f 397 569 145
f 558 298 516
f 284 298 558
f 541 284 558
f 558 590 541
f 39 590 83
f 83 29 39
f 516 29 83
f 83 558 516
f 590 558 83
f 182 29 486
f 39 29 182
f 552 416 139
f 244 416 552
f 244 590 39
f 244 552 541
f 541 590 244
f 424 332 325
f 325 108 436
f 250 108 152
f 250 317 151
f 250 449 317
f 322 175 341
f 175 463 341
f 341 463 553
f 553 115 341
f 264 243 40
f 10 243 264
f 358 379 505
f 505 305 358
f 227 305 505
f 121 227 505
f 505 425 121
f 36 425 505
f 317 36 505
f 151 317 505
f 505 379 151
f 304 305 175
f 304 175 322
f 322 137 304
f 329 100 557
f 329 2 100
f 543 526 494
f 551 526 543
f 543 494 61
f 61 372 543
f 136 551 543
f 543 372 136
f 82 249 387
f 249 526 387
f 537 110 393
f 393 526 537
f 140 577 233
f 232 577 140
f 123 384 54
f 233 122 461
f 376 78 232
f 376 461 122
f 321 122 104
f 104 525 321
f 321 456 223
f 94 578 568
f 14 552 138
f 138 268 14
f 174 268 496
f 496 486 94
f 496 336 486
f 94 32 496
f 32 174 496
f 496 138 336
f 268 138 496
f 311 464 72
f 72 261 311
f 464 261 72
f 407 574 171
f 448 574 407
f 420 574 351
f 331 61 160
f 160 367 331
f 160 23 87
f 183 217 262
f 262 98 183
f 390 222 280
f 280 206 538
f 546 278 314
f 314 278 380
f 314 380 130
f 130 344 314
f 528 487 410
f 410 487 531
f 410 417 57
f 57 389 410
f 410 344 417
f 561 560 171
f 561 580 560
f 171 107 287
f 128 462 161
f 415 307 161
f 439 462 66
f 66 34 439
f 439 204 462
f 439 34 204
f 66 356 142
f 142 34 66
f 142 356 559
f 559 34 142
f 59 66 128
f 41 66 59
f 452 75 375
f 375 75 260
f 25 471 235
f 529 471 25
f 235 471 92
f 92 334 235
f 116 334 92
f 92 468 116
f 149 246 92
f 452 375 92
f 92 375 468
f 92 84 149
f 116 206 465
f 545 430 159
f 159 430 529
f 159 60 545
f 529 465 159
f 159 465 206
f 159 280 60
f 206 280 159
f 214 471 529
f 529 430 214
f 330 190 467
f 190 272 467
f 467 62 330
f 511 272 190
f 251 394 522
f 394 392 522
f 463 251 522
f 522 392 463
f 489 583 506
f 241 394 506
f 506 394 489
f 357 184 369
f 369 583 357
f 52 583 489
f 489 84 52
f 400 399 91
f 126 394 504
f 394 9 504
f 445 394 447
f 330 231 532
f 532 102 330
f 532 250 102
f 449 250 532
f 263 327 236
f 263 329 557
f 236 329 263
f 263 557 121
f 121 327 263
f 135 120 555
f 555 63 135
f 131 63 555
f 306 544 478
f 224 270 362
f 224 563 270
f 382 236 135
f 135 502 373
f 373 382 135
f 80 488 545
f 545 454 80
f 57 320 90
f 208 57 90
f 90 320 130
f 284 411 292
f 292 411 315
f 292 368 284
f 292 315 397
f 70 411 572
f 315 411 571
f 411 456 571
f 456 321 571
f 571 321 525
f 571 104 315
f 571 525 104
f 421 61 6
f 6 276 421
f 397 145 153
f 143 298 153
f 153 145 143
f 238 139 416
f 359 589 549
f 549 115 359
f 309 589 359
f 309 359 553
f 294 436 108
f 137 68 294
f 68 424 294
f 294 424 325
f 325 436 294
f 151 379 587
f 587 250 151
f 108 250 587
f 587 379 358
f 358 108 587
f 267 2 234
f 2 329 234
f 234 472 267
f 534 472 234
f 234 79 534
f 236 79 234
f 234 329 236
f 82 387 501
f 109 393 110
f 398 564 360
f 78 376 303
f 303 453 78
f 303 343 453
f 293 204 559
f 195 290 49
f 195 568 290
f 195 49 94
f 94 568 195
f 141 568 578
f 94 536 141
f 141 578 94
f 536 569 141
f 569 117 141
f 290 568 180
f 118 367 160
f 209 155 402
f 402 501 209
f 402 155 23
f 188 406 56
f 355 43 437
f 404 87 173
f 87 163 173
f 498 289 415
f 282 289 498
f 283 43 355
f 283 17 43
f 480 319 283
f 98 262 134
f 435 67 98
f 222 342 435
f 252 280 222
f 60 280 252
f 248 280 538
f 390 280 248
f 248 101 390
f 540 222 390
f 540 414 222
f 222 414 196
f 196 342 222
f 440 196 524
f 524 196 414
f 524 67 440
f 207 93 524
f 98 67 524
f 183 98 524
f 524 45 183
f 354 107 521
f 156 528 107
f 581 510 106
f 581 51 510
f 581 354 51
f 385 410 433
f 528 410 385
f 385 134 262
f 217 528 385
f 385 262 217
f 178 454 433
f 442 287 107
f 107 528 442
f 528 580 442
f 352 561 171
f 171 287 352
f 128 161 186
f 186 161 307
f 328 260 112
f 328 422 307
f 11 307 415
f 11 319 307
f 282 319 11
f 11 289 282
f 167 503 277
f 443 375 260
f 279 19 116
f 279 375 19
f 116 468 279
f 468 375 279
f 15 92 103
f 103 92 471
f 452 92 556
f 556 149 452
f 556 338 149
f 556 246 338
f 556 92 246
f 84 92 218
f 218 92 366
f 366 71 218
f 71 52 218
f 15 58 157
f 157 92 15
f 324 511 190
f 241 506 254
f 254 506 583
f 254 184 10
f 254 369 184
f 583 369 254
f 254 264 40
f 10 264 254
f 40 9 254
f 254 9 241
f 583 52 396
f 396 52 71
f 8 18 59
f 128 469 8
f 8 59 128
f 288 281 201
f 201 564 288
f 201 360 564
f 577 360 201
f 288 564 429
f 429 564 485
f 429 203 288
f 429 485 527
f 527 203 429
f 485 564 74
f 427 91 399
f 426 394 251
f 445 447 245
f 547 445 245
f 245 164 547
f 245 426 251
f 251 535 245
f 245 535 164
f 48 470 579
f 48 579 449
f 131 470 48
f 48 63 131
f 545 483 539
f 408 79 236
f 236 382 408
f 534 79 408
f 563 224 95
f 95 382 563
f 362 514 95
f 95 224 362
f 483 270 27
f 270 373 27
f 330 483 27
f 477 373 270
f 382 373 477
f 257 80 454
f 349 343 456
f 349 105 210
f 411 105 349
f 349 572 411
f 177 343 460
f 177 503 167
f 61 331 481
f 481 331 367
f 481 6 61
f 276 6 481
f 460 343 481
f 210 276 481
f 481 349 210
f 343 349 481
f 397 153 259
f 259 292 397
f 298 368 242
f 242 153 298
f 242 259 153
f 368 292 242
f 292 259 242
f 189 238 416
f 486 238 189
f 189 182 486
f 115 549 129
f 576 115 129
f 129 68 137
f 137 576 129
f 332 309 50
f 518 332 50
f 553 518 50
f 50 309 553
f 305 304 86
f 108 305 86
f 86 294 108
f 86 304 137
f 137 294 86
f 451 109 110
f 451 110 12
f 12 106 451
f 451 106 170
f 493 501 387
f 521 441 493
f 370 387 526
f 526 393 370
f 393 109 370
f 370 493 387
f 109 493 370
f 398 360 30
f 30 360 577
f 378 41 30
f 30 377 398
f 41 377 30
f 30 577 123
f 376 73 194
f 194 303 376
f 223 456 194
f 456 303 194
f 271 376 122
f 271 73 376
f 456 343 199
f 199 303 456
f 343 303 199
f 185 167 204
f 559 356 313
f 313 293 559
f 350 117 577
f 577 141 350
f 350 141 117
f 133 141 577
f 568 141 133
f 133 180 568
f 169 524 93
f 567 574 183
f 491 574 567
f 198 363 365
f 179 118 160
f 160 87 179
f 179 87 404
f 367 118 395
f 395 481 367
f 460 310 147
f 147 310 565
f 22 219 434
f 434 198 22
f 363 198 434
f 209 363 434
f 434 155 209
f 434 219 155
f 82 501 31
f 501 402 31
f 31 187 82
f 23 187 31
f 31 402 23
f 302 163 87
f 347 46 565
f 565 458 347
f 404 173 326
f 326 395 404
f 565 310 326
f 326 458 565
f 282 498 308
f 308 319 282
f 308 283 319
f 308 498 17
f 17 283 308
f 211 93 480
f 480 283 211
f 211 283 93
f 81 435 98
f 222 435 81
f 433 252 364
f 364 252 222
f 364 98 433
f 433 60 146
f 146 252 433
f 60 252 146
f 124 19 101
f 101 248 124
f 538 19 124
f 124 248 538
f 221 524 55
f 55 166 221
f 474 353 107
f 107 354 474
f 354 581 474
f 474 581 314
f 474 314 344
f 474 410 531
f 344 410 474
f 107 353 348
f 193 487 528
f 191 385 433
f 134 385 191
f 433 98 191
f 98 134 191
f 433 410 566
f 566 178 433
f 307 422 24
f 24 186 307
f 128 186 24
f 307 319 88
f 88 328 307
f 260 328 88
f 88 319 101
f 88 19 260
f 101 19 88
f 415 289 77
f 77 11 415
f 289 11 77
f 565 277 418
f 418 277 503
f 460 147 418
f 418 147 565
f 204 167 162
f 167 277 162
f 197 277 565
f 565 46 197
f 197 46 43
f 19 375 500
f 375 443 500
f 260 19 500
f 500 443 260
f 512 583 366
f 357 583 512
f 512 184 357
f 366 92 266
f 92 157 266
f 266 512 366
f 265 377 41
f 41 59 265
f 346 482 401
f 455 201 281
f 180 201 455
f 91 427 13
f 547 459 13
f 13 445 547
f 13 427 423
f 489 445 13
f 13 423 489
f 312 539 483
f 5 514 148
f 148 403 5
f 5 403 534
f 534 408 5
f 7 373 502
f 7 27 373
f 270 563 412
f 412 477 270
f 563 382 412
f 382 477 412
f 168 257 300
f 300 410 168
f 168 410 389
f 374 177 167
f 167 185 374
f 453 343 374
f 343 177 374
f 21 574 420
f 501 493 21
f 209 501 21
f 420 351 21
f 21 363 209
f 351 363 21
f 446 451 170
f 109 451 446
f 170 106 446
f 446 493 109
f 446 106 521
f 521 493 446
f 171 574 497
f 497 428 171
f 574 21 497
f 123 54 495
f 495 30 123
f 204 293 200
f 200 185 204
f 293 185 200
f 293 313 111
f 111 313 78
f 78 453 111
f 296 201 180
f 180 133 296
f 577 201 296
f 296 133 577
f 391 363 351
f 391 166 363
f 524 169 165
f 404 395 172
f 172 395 118
f 481 395 479
f 479 326 310
f 395 326 479
f 479 310 460
f 460 481 479
f 216 169 93
f 192 216 93
f 99 216 192
f 22 99 192
f 192 219 22
f 56 301 132
f 132 188 56
f 406 188 132
f 132 283 355
f 93 283 132
f 355 437 132
f 132 437 406
f 56 406 154
f 43 302 154
f 43 46 542
f 542 302 43
f 163 302 542
f 542 347 163
f 46 347 542
f 548 524 295
f 295 438 548
f 53 438 540
f 390 101 53
f 53 540 390
f 101 319 53
f 53 319 480
f 548 438 53
f 517 55 524
f 166 55 517
f 365 363 517
f 363 166 517
f 361 156 107
f 107 348 361
f 361 348 487
f 487 193 361
f 528 156 256
f 256 193 528
f 204 162 212
f 499 205 212
f 415 161 212
f 462 204 212
f 212 161 462
f 43 17 409
f 409 197 43
f 499 197 409
f 409 205 499
f 550 484 444
f 550 444 415
f 415 212 550
f 550 212 205
f 498 484 550
f 17 498 550
f 258 157 58
f 258 266 157
f 253 266 258
f 62 324 258
f 258 324 190
f 190 253 258
f 15 62 258
f 258 58 15
f 150 190 10
f 150 253 190
f 10 184 150
f 184 512 150
f 150 266 253
f 512 266 150
f 18 377 96
f 377 265 96
f 125 33 507
f 125 482 33
f 125 401 482
f 237 312 483
f 306 312 237
f 4 306 478
f 4 312 306
f 318 7 502
f 27 7 318
f 318 502 330
f 330 27 318
f 80 257 65
f 257 168 65
f 428 497 509
f 441 428 509
f 509 493 441
f 509 21 493
f 509 497 21
f 530 185 293
f 293 111 530
f 530 111 453
f 453 374 530
f 530 374 185
f 221 166 492
f 166 391 492
f 492 391 45
f 492 524 221
f 45 524 492
f 45 391 255
f 183 45 255
f 255 567 183
f 169 198 333
f 333 165 169
f 333 198 365
f 219 192 513
f 513 450 301
f 406 437 269
f 269 154 406
f 269 437 43
f 43 154 269
f 592 219 56
f 56 154 592
f 155 219 592
f 339 154 302
f 339 302 87
f 339 592 154
f 339 87 23
f 23 155 339
f 155 592 339
f 340 524 414
f 480 93 383
f 383 53 480
f 383 93 207
f 524 165 286
f 286 517 524
f 499 212 381
f 381 212 162
f 381 162 277
f 277 197 381
f 381 197 499
f 176 409 17
f 205 409 176
f 345 377 18
f 18 8 473
f 473 345 18
f 113 345 473
f 466 113 473
f 473 469 591
f 473 8 469
f 473 591 346
f 346 401 473
f 401 125 473
f 473 125 466
f 466 125 275
f 507 485 275
f 275 125 507
f 491 567 405
f 567 255 405
f 405 574 491
f 405 255 391
f 405 351 574
f 405 391 351
f 301 450 213
f 93 132 213
f 213 132 301
f 56 219 89
f 219 513 89
f 228 295 524
f 524 340 228
f 229 74 564
f 490 513 301
f 490 89 513
f 523 345 113
f 113 229 523
f 74 229 316
f 316 229 113
f 69 16 119
f 335 16 69
f 299 64 535
f 220 299 535
f 344 320 57
f 57 417 344
f 330 102 250
f 250 190 330
f 152 190 250
f 341 115 584
f 341 584 322
f 232 140 376
f 376 140 233
f 233 461 376
f 171 560 407
f 560 448 407
f 465 25 235
f 235 334 465
f 465 334 116
f 529 25 465
f 504 9 392
f 504 392 126
f 555 120 38
f 38 579 555
f 579 470 555
f 555 470 131
f 90 362 208
f 130 362 90
f 238 138 552
f 486 336 238
f 552 139 238
f 336 138 238
f 67 435 196
f 440 67 196
f 196 435 342
f 510 51 354
f 521 510 354
f 546 314 581
f 581 106 546
f 352 442 580
f 580 561 352
f 287 442 352
f 103 430 15
f 471 214 103
f 103 214 430
f 218 52 84
f 324 467 272
f 62 467 324
f 272 511 324
f 366 583 396
f 396 71 366
f 427 371 507
f 37 371 427
f 427 399 37
f 507 423 427
f 394 426 245
f 245 447 394
f 48 502 135
f 449 532 48
f 231 502 48
f 48 532 231
f 135 63 48
f 105 411 421
f 421 210 105
f 70 572 349
f 349 456 70
f 189 244 39
f 39 182 189
f 416 244 189
f 332 424 129
f 129 424 68
f 129 309 332
f 129 549 589
f 589 309 129
f 122 321 271
f 271 321 223
f 223 194 271
f 271 194 73
f 313 356 123
f 123 78 313
f 163 347 326
f 326 173 163
f 326 347 458
f 484 498 415
f 415 444 484
f 364 81 98
f 222 81 364
f 348 474 531
f 531 487 348
f 353 474 348
f 566 410 300
f 454 178 566
f 566 257 454
f 300 257 566
f 24 328 112
f 24 112 128
f 422 328 24
f 503 177 418
f 418 177 460
f 281 464 455
f 455 464 291
f 291 290 455
f 290 180 455
f 13 459 202
f 202 400 13
f 400 91 13
f 5 408 382
f 5 95 514
f 382 95 5
f 378 30 495
f 495 54 384
f 495 384 378
f 118 179 172
f 172 179 404
f 216 198 169
f 22 198 216
f 216 99 22
f 256 361 193
f 156 361 256
f 59 18 96
f 96 265 59
f 533 544 237
f 483 533 237
f 544 306 237
f 545 539 4
f 4 478 545
f 539 312 4
f 488 80 65
f 65 389 488
f 65 168 389
f 207 524 383
f 383 524 548
f 548 53 383
f 165 333 286
f 286 333 365
f 365 517 286
f 176 550 205
f 17 550 176
f 213 513 192
f 213 192 93
f 450 513 213
f 540 438 228
f 414 540 228
f 438 295 228
f 228 340 414
f 56 89 490
f 490 301 56
f 398 377 523
f 523 564 398
f 377 345 523
f 523 229 564
f 485 74 316
f 316 275 485
f 316 113 466
f 466 275 316

