# https://github.com/mikedh/trimesh
v 0.00472943 -0.01000000 -0.00006403
v 0.00022054 -0.00500059 -0.04547736
v 0.03499600 -0.00515543 -0.04682323
v 0.03593347 -0.00712227 -0.04568126
v 0.03533457 -0.00517920 -0.04206585
v 0.02874662 -0.04743659 -0.00062087
v 0.03736480 -0.03925950 -0.04939125
v 0.03286022 -0.00554482 -0.04983943
v 0.02817562 -0.00000000 -0.00341782
v 0.03567602 -0.00671490 -0.04390252
v 0.00071850 -0.00000000 -0.01575148
v 0.01883343 -0.00000000 -0.00004344
v 0.02774640 -0.00000000 -0.00226087
v 0.03609835 -0.00810651 -0.04912716
v 0.02330834 -0.00000000 -0.03226778
v 0.00036132 -0.00024938 -0.01492153
v 0.03389228 -0.00584850 -0.04973193
v 0.02793156 -0.00713231 -0.00003101
v 0.02504997 -0.04984129 -0.01245760
v 0.00016887 -0.00006461 -0.03167893
v 0.03735103 -0.04959729 -0.04931331
v 0.01485341 -0.00690107 -0.00004518
v 0.03076243 -0.00517486 -0.04970104
v 0.03675986 -0.03585404 -0.04999050
v 0.02863777 -0.03892430 -0.00000490
v 0.03339681 -0.00499889 -0.04858994
v 0.03383222 -0.02849464 -0.02940032
v 0.03532614 -0.00545855 -0.04187713
v 0.00001513 -0.00500028 -0.04129853
v 0.03375568 -0.03351066 -0.02896717
v 0.03663260 -0.01017107 -0.04961690
v 0.03547433 -0.00529249 -0.04336136
v 0.02823006 -0.00077796 -0.00172030
v 0.02750859 -0.04998142 -0.02637098
v 0.03143661 -0.02397089 -0.01584355
v 0.00006808 -0.00000000 -0.03021610
v 0.03372105 -0.00549723 -0.04934457
v 0.03590853 -0.00697021 -0.04571229
v 0.03745942 -0.04916521 -0.04992671
v 0.03488900 -0.00585561 -0.04845887
v 0.02864297 -0.03535441 -0.00008677
v 0.02887432 -0.04972796 -0.00134354
v 0.02754749 -0.00500000 -0.04988439
v 0.03297964 -0.00503281 -0.04906142
v 0.03747192 -0.04738658 -0.04999744
v 0.03699726 -0.04991257 -0.04731133
v 0.03559941 -0.00606513 -0.04365005
v 0.02909216 -0.04997725 -0.03533239
v 0.03536926 -0.00660919 -0.04887693
v 0.02856418 -0.00014271 -0.00361114
v 0.03539974 -0.00570862 -0.04229366
v 0.02868996 -0.03565320 -0.00030025
v 0.03403208 -0.02281130 -0.03053133
v 0.03640558 -0.04997689 -0.04396300
v 0.02510985 -0.04961987 -0.01099536
v 0.03633477 -0.00912418 -0.04774099
v 0.03558942 -0.04183343 -0.03934436
v 0.03148518 -0.00009916 -0.02014110
v 0.03675465 -0.02322534 -0.04996107
v 0.03727511 -0.03833031 -0.04888369
v 0.03719676 -0.03470345 -0.04844029
v 0.03628495 -0.00922978 -0.04730314
v 0.00044926 -0.00500076 -0.04777259
v 0.02899588 -0.03353255 -0.00203146
v 0.00007229 -0.01000000 -0.01392391
v 0.00608964 -0.00500000 -0.04992152
v 0.03523268 -0.04255214 -0.03732556
v 0.02882823 -0.04912355 -0.00108271
v 0.03030453 -0.02654931 -0.00943708
v 0.03123612 -0.04997077 -0.01873164
v 0.03003575 -0.04994587 -0.00791610
v 0.00107190 -0.00499957 -0.04943341
v 0.00000763 -0.00896117 -0.01497735
v 0.03253609 -0.02239835 -0.02206553
v 0.02795558 -0.00366646 -0.00016693
v 0.00009547 -0.00000000 -0.02266764
v 0.03586841 -0.00690474 -0.04726114
v 0.03616705 -0.00825228 -0.04689624
v 0.03544619 -0.00572439 -0.04264025
v 0.03611310 -0.02801841 -0.04230785
v 0.03704019 -0.03348289 -0.04755430
v 0.03662561 -0.01054530 -0.04926315
v 0.03434787 -0.02330424 -0.03231838
v 0.02042315 -0.00000000 -0.03316967
v 0.03467329 -0.00499753 -0.04722750
v 0.00031277 -0.01000000 -0.00021585
v 0.00113656 -0.00000000 -0.01489557
v 0.03134729 -0.00000000 -0.02271511
v 0.02865307 -0.04429811 -0.00009147
v 0.02657021 -0.00000000 -0.00025849
v 0.03590334 -0.00721302 -0.04539793
v 0.03256402 -0.00540021 -0.04970796
v 0.01543624 -0.00000000 -0.00030184
v 0.03049259 -0.00000000 -0.02539769
v 0.03525853 -0.02523242 -0.03747182
v 0.03208157 -0.00510431 -0.04936608
v 0.03122015 -0.00000000 -0.01980367
v 0.02183036 -0.00000000 -0.03307904
v 0.03173021 -0.00013886 -0.02197216
v 0.03561228 -0.00715692 -0.04915335
v 0.02804403 -0.00219333 -0.00066746
v 0.03524704 -0.00634583 -0.04864853
v 0.03365288 -0.00536069 -0.04919039
v 0.03441106 -0.00628561 -0.04988882
v 0.03099228 -0.02457654 -0.01332910
v 0.02901621 -0.00000000 -0.02727789
v 0.03745494 -0.04294015 -0.04990138
v 0.03597495 -0.00796470 -0.04556412
v 0.03738897 -0.03935894 -0.04952804
v 0.03658802 -0.01019452 -0.04918676
v 0.02659834 -0.00000000 -0.02948996
v 0.02808049 -0.00502427 -0.04995758
v 0.03494449 -0.02452310 -0.03569471
v 0.02984205 -0.04981019 -0.03957602
v 0.00153830 -0.00000000 -0.03104290
v 0.03667357 -0.01028578 -0.04992337
v 0.00519227 -0.00500000 -0.04990035
v 0.03739496 -0.03691823 -0.04956195
v 0.02618803 -0.00500000 -0.04989549
v 0.03623740 -0.00828540 -0.04805989
v 0.03719712 -0.03931383 -0.04844233
v 0.03402321 -0.00506520 -0.04835114
v 0.03390374 -0.02380954 -0.02980507
v 0.02513581 -0.04990600 -0.01294341
v 0.03534115 -0.00626407 -0.04819623
v 0.02972531 -0.02888679 -0.00615929
v 0.03350434 -0.02251411 -0.02754484
v 0.03674829 -0.03170850 -0.04590239
v 0.03531407 -0.00506982 -0.04523413
v 0.03618871 -0.00834652 -0.04701471
v 0.02961713 -0.04990260 -0.00554711
v 0.03128203 -0.00001594 -0.02448895
v 0.03688221 -0.03975592 -0.04666025
v 0.03629075 -0.00854174 -0.04859904
v 0.03121622 -0.00004947 -0.01861905
v 0.03108779 -0.00000000 -0.01837627
v 0.02241282 -0.00005404 -0.03301650
v 0.00002365 -0.01000000 -0.00229673
v 0.03563729 -0.00685103 -0.04848354
v 0.03399387 -0.02285907 -0.03031509
v 0.03058663 -0.02567582 -0.01103354
v 0.03524271 -0.00655509 -0.04903455
v 0.03599949 -0.00799906 -0.04950777
v 0.02902574 -0.00000000 -0.00639051
f 114 46 48
f 42 86 55
f 73 36 29
f 29 65 73
f 39 114 72
f 71 124 34
f 25 22 1
f 1 89 25
f 86 89 1
f 75 101 90
f 90 18 75
f 101 75 41
f 41 18 25
f 41 75 18
f 52 41 25
f 34 124 63
f 124 65 63
f 63 48 34
f 72 114 63
f 114 48 63
f 21 46 114
f 114 39 21
f 131 42 124
f 124 71 131
f 19 65 124
f 55 86 19
f 19 42 55
f 124 42 19
f 138 36 73
f 86 16 138
f 73 65 138
f 138 19 86
f 65 19 138
f 69 126 52
f 25 89 6
f 6 52 25
f 6 89 86
f 53 28 58
f 58 127 53
f 135 127 58
f 33 13 90
f 90 101 33
f 126 69 33
f 33 69 141
f 101 41 33
f 36 138 76
f 76 138 16
f 93 87 16
f 93 16 86
f 2 29 36
f 65 29 2
f 2 63 65
f 59 116 45
f 45 24 59
f 5 4 32
f 5 32 99
f 99 58 5
f 5 58 28
f 54 21 42
f 42 131 54
f 46 21 54
f 54 131 71
f 54 48 46
f 34 48 54
f 41 52 64
f 52 126 64
f 64 33 41
f 126 33 64
f 39 121 67
f 67 21 39
f 140 69 52
f 141 69 140
f 53 127 140
f 140 121 53
f 52 6 68
f 68 140 52
f 42 21 68
f 86 42 68
f 68 6 86
f 68 67 30
f 21 67 68
f 53 121 83
f 83 28 53
f 116 82 118
f 28 80 51
f 108 10 51
f 51 5 28
f 62 80 82
f 108 51 62
f 62 51 80
f 81 82 128
f 128 80 81
f 82 80 128
f 95 80 28
f 97 58 99
f 9 13 50
f 13 33 50
f 50 144 9
f 135 144 50
f 72 63 20
f 20 2 36
f 63 2 20
f 112 59 24
f 104 116 112
f 116 59 112
f 16 87 11
f 11 76 16
f 86 1 12
f 12 93 86
f 12 1 22
f 12 18 90
f 12 22 25
f 25 18 12
f 107 39 45
f 107 109 39
f 107 118 109
f 45 116 107
f 116 118 107
f 110 130 82
f 116 4 31
f 4 130 31
f 130 110 31
f 31 82 116
f 31 110 82
f 139 77 143
f 143 100 139
f 143 116 104
f 70 71 34
f 34 54 70
f 70 54 71
f 30 67 57
f 109 118 7
f 7 121 39
f 39 109 7
f 82 130 56
f 56 62 82
f 28 83 113
f 113 95 28
f 118 95 113
f 61 95 118
f 61 82 81
f 61 118 82
f 81 80 61
f 80 95 61
f 136 144 135
f 135 58 136
f 58 97 136
f 74 127 135
f 135 50 74
f 105 33 141
f 105 50 33
f 105 74 50
f 141 140 105
f 105 140 127
f 115 20 36
f 84 20 115
f 66 24 45
f 66 112 24
f 78 130 4
f 4 91 78
f 79 91 4
f 79 51 10
f 5 51 79
f 38 77 32
f 38 120 77
f 32 4 38
f 38 4 116
f 116 120 38
f 14 143 77
f 116 143 14
f 133 67 121
f 133 57 67
f 140 68 123
f 57 133 123
f 121 140 123
f 123 133 121
f 121 7 60
f 60 7 118
f 118 113 60
f 60 83 121
f 60 113 83
f 88 132 94
f 88 97 99
f 99 132 88
f 127 74 35
f 35 105 127
f 74 105 35
f 119 66 84
f 112 66 119
f 117 20 84
f 84 66 117
f 72 20 117
f 117 39 72
f 45 39 117
f 117 66 45
f 44 15 26
f 139 100 49
f 49 125 139
f 4 5 47
f 47 79 4
f 5 79 47
f 77 120 134
f 134 14 77
f 134 120 116
f 116 14 134
f 30 57 27
f 57 123 27
f 27 68 30
f 27 123 68
f 84 112 43
f 43 119 84
f 112 119 43
f 94 132 106
f 132 85 106
f 98 112 84
f 98 44 112
f 104 112 8
f 129 132 99
f 129 85 132
f 99 32 129
f 32 77 129
f 129 77 139
f 103 8 44
f 26 15 111
f 111 106 26
f 26 106 122
f 122 106 85
f 122 44 26
f 122 103 44
f 122 40 104
f 85 40 122
f 137 98 15
f 15 44 137
f 44 98 137
f 112 44 96
f 85 129 3
f 139 125 3
f 3 129 139
f 125 49 3
f 104 40 142
f 142 49 100
f 142 143 104
f 100 143 142
f 104 8 17
f 17 122 104
f 112 96 23
f 44 8 92
f 92 96 44
f 92 23 96
f 92 8 112
f 112 23 92
f 102 3 49
f 85 3 102
f 102 40 85
f 49 142 102
f 102 142 40
f 8 103 37
f 37 17 8
f 103 122 37
f 122 17 37
f 108 62 79
f 79 10 108
f 79 56 130
f 130 78 79
f 62 56 79
f 79 78 91
f 90 13 111
f 9 144 111
f 111 13 9
f 36 76 111
f 144 136 111
f 111 11 87
f 111 88 94
f 111 115 36
f 87 93 111
f 111 12 90
f 76 11 111
f 93 12 111
f 111 136 97
f 84 115 111
f 97 88 111
f 94 106 111
f 111 98 84
f 15 98 111

