# https://github.com/mikedh/trimesh
v 0.02787465 -0.01821009 -0.00683202
v 0.03205646 -0.01842416 -0.00026793
v 0.04653922 -0.01550607 -0.01558692
v 0.03733516 -0.01553494 -0.01901431
v 0.03500443 -0.00408283 -0.00374064
v 0.03898749 -0.01435669 -0.02275320
v 0.03233311 -0.01694040 -0.01374103
v 0.03024862 -0.01783699 -0.00914343
v 0.03577644 -0.01424552 -0.02300367
v 0.04287311 -0.01763347 -0.00048682
v 0.04543614 -0.01668805 -0.00891591
v 0.03241143 -0.01787445 -0.00855772
v 0.02661821 -0.01607585 -0.01617771
v 0.03618704 -0.01560504 -0.01886192
v 0.04982560 -0.01624684 -0.00640661
v 0.03155087 -0.01693868 -0.01371289
v 0.03862433 -0.01798542 -0.00207337
v 0.03305126 -0.01833473 -0.00359719
v 0.03520415 -0.01819012 -0.00377646
v 0.03026239 -0.01691439 -0.01374262
v 0.02865902 -0.01688643 -0.01376531
v 0.04384928 -0.01505435 -0.01926511
v 0.03169290 -0.01650182 -0.01550516
v 0.03092116 -0.01845881 -0.00249084
v 0.04961818 -0.01386722 -0.02110990
v 0.04929880 -0.01530818 -0.01417156
v 0.02821940 -0.01544967 -0.01841392
v 0.04045357 -0.01642438 -0.01432123
v 0.04608741 -0.01470354 -0.01980014
v 0.03729526 -0.01811512 -0.00000383
v 0.02538943 -0.01862160 -0.00072832
v 0.04052309 -0.01489556 -0.02089050
v 0.03675567 -0.01366238 -0.02459299
v 0.04783104 -0.01680775 -0.00427415
v 0.04830290 -0.01693878 -0.00024141
v 0.04292709 -0.01702534 -0.00884310
v 0.02925621 -0.01779541 -0.00949690
v 0.02701665 -0.01635065 -0.01542573
v 0.03595290 -0.01816634 -0.00296950
v 0.04620441 -0.01330361 -0.02483281
v 0.04148947 -0.01626144 -0.01475721
v 0.03965817 -0.01605341 -0.01641722
v 0.04139467 -0.01499621 -0.02035356
v 0.02869253 -0.01848707 -0.00389086
v 0.03162262 -0.01341206 -0.02428518
v 0.04601527 -0.01434176 -0.02133694
v 0.04592822 -0.00379742 -0.00400137
v 0.03115404 -0.01479647 -0.02090763
v 0.03831706 -0.01595601 -0.01721720
v 0.03961227 -0.01672675 -0.01303158
v 0.04679770 -0.01485966 -0.01868129
v 0.03560593 -0.00395398 -0.00383086
v 0.02764334 -0.01737815 -0.01159395
v 0.03874927 -0.01800870 -0.00066855
v 0.02866363 -0.01783692 -0.00930062
v 0.03625270 -0.01370038 -0.02444793
v 0.02868995 -0.01824967 -0.00648798
v 0.04230670 -0.01687831 -0.01039880
v 0.03691880 -0.01559842 -0.01884152
v 0.02668277 -0.00360987 -0.00475411
v 0.02640124 -0.00367459 -0.00421631
v 0.02692344 -0.01510780 -0.01900012
v 0.04080913 -0.00361093 -0.00476638
v 0.02924624 -0.01796025 -0.00851197
v 0.03979699 -0.01606102 -0.01634310
v 0.03685661 -0.01643425 -0.01544621
v 0.04291758 -0.01756881 -0.00213128
v 0.02534226 -0.01193773 -0.02481790
v 0.02807862 -0.01817473 -0.00709099
v 0.03405105 -0.00361746 -0.00440084
v 0.03997424 -0.01426048 -0.02299100
v 0.03697531 -0.01616101 -0.01666252
v 0.04716351 -0.01702535 -0.00203749
v 0.04063274 -0.00372672 -0.00410470
v 0.02569549 -0.01861032 -0.00162635
v 0.03514214 -0.01693509 -0.01334346
v 0.02792153 -0.01835632 -0.00561162
v 0.02800968 -0.01772902 -0.00989258
v 0.04243010 -0.01711993 -0.00853094
v 0.04124691 -0.01728237 -0.00803560
v 0.02600362 -0.01523141 -0.01837560
v 0.04810752 -0.01696964 -0.00030309
v 0.03529909 -0.01413215 -0.02326914
v 0.03022388 -0.01463202 -0.02107180
v 0.03139926 -0.01566551 -0.01842332
v 0.03915435 -0.01579079 -0.01771771
v 0.02845423 -0.01702244 -0.01318140
v 0.03585272 -0.01611483 -0.01690589
v 0.03946405 -0.01772445 -0.00526151
v 0.04535029 -0.01450822 -0.02092994
v 0.04718403 -0.00406180 -0.00375552
v 0.03737795 -0.01714420 -0.01166500
v 0.03382408 -0.01394628 -0.02347210
v 0.04142966 -0.01511782 -0.01989110
v 0.03270787 -0.01747360 -0.01102988
v 0.03172263 -0.01543214 -0.01918325
v 0.03988728 -0.01546683 -0.01884165
v 0.03792854 -0.01660512 -0.01438022
v 0.04743324 -0.01568124 -0.01391260
v 0.02967298 -0.01663441 -0.01484157
v 0.04247775 -0.00414600 -0.00370688
v 0.04001416 -0.01731254 -0.00891057
v 0.04564666 -0.01404461 -0.02254079
v 0.04432389 -0.00425111 -0.00365902
v 0.02882667 -0.01535053 -0.01882663
v 0.04570962 -0.01429355 -0.02160900
v 0.03377151 -0.01708358 -0.01283253
v 0.02536096 -0.01460583 -0.01971622
v 0.02854130 -0.00388600 -0.00389856
v 0.04113438 -0.01561960 -0.01793180
v 0.02656419 -0.01768999 -0.01001034
v 0.04112293 -0.00361204 -0.00477369
v 0.04720651 -0.01647772 -0.00864922
v 0.03747004 -0.00366111 -0.00424536
v 0.03382856 -0.01776384 -0.00889303
v 0.04691704 -0.01695151 -0.00419495
v 0.02825297 -0.01852534 -0.00345627
v 0.04824563 -0.01446702 -0.01943483
v 0.04062093 -0.01661423 -0.01322101
v 0.03666703 -0.00408599 -0.00373844
v 0.04114445 -0.01410193 -0.02339576
v 0.03024751 -0.01501704 -0.02008400
v 0.03450123 -0.01558449 -0.01886617
v 0.04042185 -0.01613490 -0.01582835
v 0.04719529 -0.01655237 -0.00792407
v 0.03387173 -0.00416603 -0.00369684
v 0.04189123 -0.01377950 -0.02424034
v 0.02823817 -0.01837227 -0.00536841
v 0.03659422 -0.01568218 -0.01856326
v 0.03005576 -0.00392771 -0.00385687
v 0.04363153 -0.01424644 -0.02242358
v 0.04819550 -0.00438797 -0.00362112
v 0.03651898 -0.01731709 -0.01087272
v 0.04323423 -0.00360787 -0.00446342
v 0.02741569 -0.01663856 -0.01449594
v 0.04104913 -0.00369172 -0.00417977
v 0.03386652 -0.01556454 -0.01890842
v 0.03654480 -0.00369274 -0.00417752
v 0.03337995 -0.01444772 -0.02217580
v 0.03232096 -0.01841410 -0.00019458
v 0.04585355 -0.01360377 -0.02400405
v 0.03709405 -0.01662771 -0.01451320
v 0.04515739 -0.00391337 -0.00387141
v 0.03507144 -0.01703384 -0.01287300
v 0.04997935 -0.01570289 -0.01074773
v 0.02686924 -0.01708779 -0.01272784
v 0.03263971 -0.01698098 -0.01350866
v 0.03702467 -0.01685393 -0.01337892
v 0.02906636 -0.01850838 -0.00325700
v 0.03976466 -0.01791914 -0.00102401
v 0.03158205 -0.01545902 -0.01907659
v 0.04617451 -0.01595422 -0.01334904
v 0.04698092 -0.01631911 -0.01010410
v 0.04151636 -0.01610344 -0.01556551
v 0.03966455 -0.01477067 -0.02138079
v 0.02727150 -0.01576228 -0.01729381
v 0.03418380 -0.01687848 -0.01376844
v 0.04088744 -0.01439206 -0.02250185
v 0.04689688 -0.01652669 -0.00860026
v 0.04379144 -0.01739424 -0.00374285
v 0.04461361 -0.01527119 -0.01799995
v 0.02501705 -0.01862080 -0.00162686
v 0.04229477 -0.01529627 -0.01890059
v 0.03767921 -0.01714414 -0.01153396
v 0.02645935 -0.01244096 -0.02446899
v 0.02643059 -0.00430716 -0.00364108
v 0.03899714 -0.01795032 -0.00229769
v 0.02562756 -0.01659139 -0.01427312
v 0.04405178 -0.00364977 -0.00491455
v 0.03060360 -0.01769063 -0.00999701
v 0.04197458 -0.00422592 -0.00366957
v 0.02505410 -0.01193544 -0.02470454
v 0.03542275 -0.01647165 -0.01548280
v 0.03201563 -0.01611113 -0.01698303
v 0.03454181 -0.01772940 -0.00883474
v 0.04739491 -0.01689472 -0.00405546
v 0.04941415 -0.01592129 -0.00993153
v 0.04167473 -0.01569518 -0.01743824
v 0.02690391 -0.01490174 -0.01951349
v 0.02592115 -0.01678574 -0.01365077
v 0.03131893 -0.01789174 -0.00863250
v 0.04110674 -0.01721322 -0.00886954
v 0.04330358 -0.01504401 -0.01954198
v 0.02540176 -0.00368425 -0.00499884
v 0.03045695 -0.01370942 -0.02336511
v 0.02655241 -0.01267178 -0.02409183
v 0.04952107 -0.01410205 -0.02018407
v 0.03527713 -0.01483052 -0.02130958
v 0.03040103 -0.01785837 -0.00898859
v 0.03201408 -0.01332670 -0.02456079
v 0.03181772 -0.01369473 -0.02372847
v 0.02933034 -0.01630059 -0.01596222
v 0.03421835 -0.01775014 -0.00882248
v 0.02768726 -0.01590321 -0.01696859
v 0.04667416 -0.01336080 -0.02452216
v 0.04195359 -0.01609502 -0.01540237
v 0.04756356 -0.01684685 -0.00434714
v 0.02699386 -0.00360622 -0.00471234
v 0.04006083 -0.01475316 -0.02140744
v 0.03727296 -0.01463541 -0.02197401
v 0.02880407 -0.01743845 -0.01141111
v 0.04573061 -0.01730529 -0.00025180
v 0.02603056 -0.01716234 -0.01228600
v 0.02889716 -0.01314136 -0.02405552
v 0.04173699 -0.01715742 -0.00883082
v 0.03251289 -0.01841779 -0.00145446
v 0.03390843 -0.01521072 -0.02006814
v 0.03440270 -0.01813341 -0.00495711
v 0.04303140 -0.01755177 -0.00227327
v 0.04652602 -0.01568046 -0.01469168
v 0.03648567 -0.01624469 -0.01636506
v 0.02862985 -0.01454732 -0.02086602
v 0.03939351 -0.01435794 -0.02272222
v 0.02546001 -0.01357785 -0.02191323
v 0.02710163 -0.01358957 -0.02256446
v 0.03492097 -0.01499422 -0.02080085
v 0.04011971 -0.00428296 -0.00364863
v 0.03950022 -0.01792567 -0.00161655
v 0.04624963 -0.01655614 -0.00911821
v 0.02635264 -0.01212960 -0.02495767
v 0.04862067 -0.01456757 -0.01868506
v 0.03774390 -0.01657408 -0.01457867
v 0.02960377 -0.01278826 -0.02493205
v 0.02547227 -0.01787052 -0.00895703
v 0.03479005 -0.01621361 -0.01656876
v 0.04119337 -0.01780451 -0.00023240
v 0.02623861 -0.01855367 -0.00344047
v 0.04968874 -0.01305513 -0.02421279
v 0.02675412 -0.01522931 -0.01863594
v 0.04419115 -0.01743808 -0.00175840
v 0.02651472 -0.01855425 -0.00337495
v 0.02533485 -0.01427277 -0.02042388
v 0.04914529 -0.01407919 -0.02051941
v 0.02765472 -0.01607881 -0.01644485
v 0.04584960 -0.01675284 -0.00770628
v 0.04509265 -0.01337769 -0.02484820
v 0.02552331 -0.01688414 -0.01321134
v 0.03199216 -0.00364372 -0.00430278
v 0.04667677 -0.01597652 -0.01276635
v 0.03012622 -0.00425537 -0.00365719
v 0.03078850 -0.01846780 -0.00108938
v 0.03288471 -0.01702191 -0.01327105
v 0.04872769 -0.01386759 -0.02165944
v 0.03351794 -0.01837254 -0.00185897
v 0.04150859 -0.01715960 -0.00902310
v 0.04851493 -0.01616374 -0.00935100
v 0.04628494 -0.01661452 -0.00852872
v 0.03637878 -0.01363772 -0.02460882
v 0.03695298 -0.01748017 -0.00957799
v 0.04711772 -0.01682974 -0.00517403
v 0.04989664 -0.00482325 -0.00362633
v 0.04256582 -0.01749785 -0.00444176
v 0.03331752 -0.00363502 -0.00433529
v 0.02515004 -0.01280913 -0.02324501
v 0.02804221 -0.01452337 -0.02077158
v 0.03750021 -0.01479655 -0.02145905
v 0.02573272 -0.01850530 -0.00411008
v 0.03370982 -0.01776810 -0.00891177
v 0.04400266 -0.01736201 -0.00382130
v 0.02772107 -0.01640662 -0.01536816
v 0.03734500 -0.01484476 -0.02131455
v 0.03886399 -0.01688970 -0.01244968
v 0.02770959 -0.01855604 -0.00098762
v 0.04815526 -0.01675945 -0.00418394
v 0.04142803 -0.01764065 -0.00411875
v 0.04513479 -0.00364441 -0.00430040
v 0.03450709 -0.01760058 -0.00973734
v 0.02719433 -0.01856449 -0.00252148
v 0.03987297 -0.00370942 -0.00414180
v 0.02523879 -0.01714236 -0.01220317
v 0.03472111 -0.01480057 -0.02133373
v 0.03675663 -0.01444018 -0.02251300
v 0.03233847 -0.01695368 -0.01367520
v 0.03324560 -0.01834259 -0.00311251
v 0.03763380 -0.01705503 -0.01205597
v 0.03832290 -0.01804603 -0.00044192
v 0.02715125 -0.01836397 -0.00558103
v 0.03065846 -0.01846352 -0.00272509
v 0.02641195 -0.01622964 -0.01565935
v 0.03045054 -0.01609914 -0.01680940
v 0.02576291 -0.01852307 -0.00388738
v 0.04462059 -0.00367763 -0.00498491
v 0.03729422 -0.01685632 -0.01328844
v 0.04238213 -0.01707394 -0.00904758
v 0.03742421 -0.01756666 -0.00872735
v 0.02804825 -0.01726610 -0.01212283
v 0.02598703 -0.01537151 -0.01801517
v 0.04295334 -0.01625359 -0.01398128
v 0.03589196 -0.01764570 -0.00885768
v 0.03967048 -0.00360831 -0.00445838
v 0.03890967 -0.01787282 -0.00428068
v 0.03809977 -0.01704993 -0.01188935
v 0.02673117 -0.01619480 -0.01585532
v 0.04125660 -0.01452850 -0.02202411
v 0.02879787 -0.01697980 -0.01338213
v 0.03332032 -0.01831800 -0.00375765
v 0.02580020 -0.00400248 -0.00379677
v 0.04691405 -0.01429377 -0.02100869
v 0.04337310 -0.01495090 -0.01990383
v 0.02644954 -0.01336456 -0.02279872
v 0.02672293 -0.01332628 -0.02297292
v 0.02819144 -0.01394686 -0.02217776
v 0.03320556 -0.01676992 -0.01440985
v 0.04599211 -0.01674153 -0.00762910
v 0.03856622 -0.01739114 -0.00932087
v 0.04157153 -0.01543279 -0.01862264
v 0.04680075 -0.00360947 -0.00474978
v 0.04896988 -0.01383542 -0.02164339
v 0.03063862 -0.01715975 -0.01272009
v 0.04109379 -0.00361381 -0.00441454
v 0.03382399 -0.01735665 -0.01141885
v 0.03511461 -0.01405233 -0.02343245
v 0.02711919 -0.00359969 -0.00463775
v 0.02771025 -0.01348852 -0.02299319
v 0.04496743 -0.01738005 -0.00081708
v 0.02674784 -0.01336436 -0.02291245
v 0.02500706 -0.01815161 -0.00721839
v 0.03771217 -0.01540740 -0.01943183
v 0.02841351 -0.01363121 -0.02293387
v 0.04552771 -0.00430171 -0.00364403
v 0.03782010 -0.01607026 -0.01684866
v 0.02580448 -0.01545005 -0.01775355
v 0.04567355 -0.00371639 -0.00412692
v 0.03158330 -0.01564210 -0.01852867
v 0.02624770 -0.01794521 -0.00860153
v 0.04473303 -0.00365122 -0.00427499
v 0.03889267 -0.01792100 -0.00348761
v 0.03992562 -0.01411095 -0.02343791
v 0.03255437 -0.01684605 -0.01413496
v 0.03165591 -0.01465059 -0.02139227
v 0.03595532 -0.01454000 -0.02219828
v 0.03691543 -0.01684672 -0.01344810
v 0.02906153 -0.01595517 -0.01709964
v 0.03972820 -0.01553741 -0.01859667
v 0.03554382 -0.01762272 -0.00916877
v 0.03232107 -0.01553803 -0.01893637
v 0.02825869 -0.01752623 -0.01098881
v 0.04815399 -0.01557631 -0.01380710
v 0.04333567 -0.01742370 -0.00424832
v 0.03288162 -0.01840453 -0.00078823
v 0.03374494 -0.01734473 -0.01150628
v 0.03209490 -0.00429566 -0.00364460
v 0.02621144 -0.01236745 -0.02448836
v 0.02680833 -0.00362970 -0.00435503
v 0.03949462 -0.01732034 -0.00921187
v 0.04651234 -0.01443045 -0.02068753
v 0.04794508 -0.00360366 -0.00468336
v 0.04814903 -0.01383511 -0.02214431
v 0.03982622 -0.01602560 -0.01649679
v 0.04042968 -0.01355454 -0.02493495
v 0.04816501 -0.01449272 -0.01937519
v 0.03367281 -0.01837556 -0.00064023
v 0.04989240 -0.01381708 -0.02114878
v 0.03316814 -0.01680396 -0.01427041
v 0.03232449 -0.01627178 -0.01645523
v 0.03857892 -0.01801551 -0.00095568
v 0.02967988 -0.01728835 -0.01212024
v 0.03411208 -0.01833690 -0.00176801
v 0.04973597 -0.01306955 -0.02413853
v 0.02809210 -0.01679676 -0.01405437
v 0.03769927 -0.01734257 -0.01019241
v 0.02511126 -0.01858386 -0.00305680
v 0.03968040 -0.01663741 -0.01349351
v 0.02507101 -0.01797820 -0.00834494
v 0.03232696 -0.01379870 -0.02357370
v 0.04790509 -0.01351163 -0.02342854
v 0.02533001 -0.00369273 -0.00417738
v 0.04718596 -0.01651680 -0.00829512
v 0.04989418 -0.01663704 -0.00083273
v 0.03298571 -0.01771481 -0.00948458
v 0.04735915 -0.01640465 -0.00908513
v 0.03236898 -0.01688401 -0.01398623
v 0.03080536 -0.01805786 -0.00750666
v 0.02740795 -0.01476113 -0.02000972
v 0.04537779 -0.01399968 -0.02278851
v 0.04997348 -0.01378896 -0.02121555
v 0.03708143 -0.01641094 -0.01551223
v 0.02757634 -0.01688639 -0.01365581
v 0.03706026 -0.00359932 -0.00456110
v 0.04365218 -0.00385392 -0.00393084
v 0.03187064 -0.00421928 -0.00367204
v 0.04905904 -0.00362938 -0.00483850
v 0.04717879 -0.01573944 -0.01382905
v 0.03681201 -0.01363550 -0.02466227
v 0.04238501 -0.01756327 -0.00371091
v 0.02908038 -0.01286874 -0.02462648
v 0.02972939 -0.01849817 -0.00111956
v 0.03181963 -0.01843540 -0.00196869
v 0.02853602 -0.01741496 -0.01151780
v 0.03653785 -0.01560718 -0.01885912
v 0.04312174 -0.01384092 -0.02381333
v 0.04999683 -0.01475348 -0.01648776
v 0.03057462 -0.01291668 -0.02499068
v 0.03829772 -0.01661869 -0.01416429
v 0.04875222 -0.01400382 -0.02107755
v 0.02802910 -0.01853992 -0.00007538
v 0.03734542 -0.01376553 -0.02434894
v 0.02842602 -0.01800971 -0.00830004
v 0.04991693 -0.01329380 -0.02325145
v 0.02500813 -0.01200994 -0.02458151
v 0.04967273 -0.01337285 -0.02308369
v 0.04925864 -0.00366539 -0.00423633
v 0.04136316 -0.00360374 -0.00468421
v 0.03148746 -0.01495844 -0.02050776
v 0.02851855 -0.01686413 -0.01384819
v 0.04520749 -0.01384645 -0.02338029
v 0.02624582 -0.01836045 -0.00567884
v 0.03124888 -0.01378157 -0.02342573
v 0.03166817 -0.01739722 -0.01150846
v 0.02601937 -0.01751057 -0.01077816
v 0.04512928 -0.01693050 -0.00686497
v 0.02552901 -0.00359676 -0.00459021
v 0.04068496 -0.01469308 -0.02155335
v 0.03750982 -0.01741920 -0.00977152
v 0.02745352 -0.00360155 -0.00465907
v 0.04190790 -0.01465268 -0.02146720
v 0.03641336 -0.01543335 -0.01944126
v 0.04997433 -0.01428821 -0.01897625
v 0.04737945 -0.01475786 -0.01872541
v 0.04823724 -0.01402191 -0.02132100
v 0.04984834 -0.00410099 -0.00546582
v 0.02624657 -0.01840931 -0.00514321
v 0.02512297 -0.01512894 -0.01833490
v 0.02748491 -0.01750570 -0.01102189
v 0.04620340 -0.01583820 -0.01407242
v 0.03849831 -0.01796414 -0.00338394
v 0.02899337 -0.01357731 -0.02324519
v 0.04344340 -0.01747191 -0.00311410
v 0.03789899 -0.01531193 -0.01974505
v 0.02620396 -0.01859531 -0.00185273
v 0.04636846 -0.01365851 -0.02363322
v 0.04027730 -0.01750411 -0.00671999
v 0.03232926 -0.01671009 -0.01469270
v 0.02571142 -0.01643592 -0.01483837
v 0.02715180 -0.01828535 -0.00628793
v 0.03734821 -0.01707104 -0.01208127
v 0.03216627 -0.01783834 -0.00885205
v 0.04142900 -0.01465974 -0.02157413
v 0.04458942 -0.01336240 -0.02498282
v 0.04461902 -0.01508992 -0.01878479
v 0.02782572 -0.01855269 -0.00095377
v 0.02741541 -0.01792684 -0.00877783
v 0.04189513 -0.01586250 -0.01661570
v 0.02836368 -0.01683164 -0.01396996
v 0.03286506 -0.01748258 -0.01093489
v 0.03175714 -0.01698086 -0.01354530
v 0.02908858 -0.01745681 -0.01130980
v 0.03174302 -0.01496919 -0.02052128
v 0.02739015 -0.01807276 -0.00786939
v 0.04367745 -0.00426390 -0.00365468
v 0.02719547 -0.01799512 -0.00837304
v 0.03142785 -0.01562261 -0.01856786
v 0.03656570 -0.01809844 -0.00368553
v 0.04076900 -0.01416325 -0.02324311
v 0.03178706 -0.01478440 -0.02105597
v 0.02676132 -0.01744341 -0.01118568
v 0.03137688 -0.00385986 -0.00392474
v 0.02518414 -0.01596789 -0.01609280
v 0.03099789 -0.01764829 -0.01020091
v 0.03335564 -0.01827994 -0.00412479
v 0.02918569 -0.01824505 -0.00642759
v 0.02698277 -0.01744780 -0.01119900
v 0.04674152 -0.01715040 -0.00064877
v 0.03669716 -0.01811021 -0.00304031
v 0.03441382 -0.01830031 -0.00021306
v 0.04351151 -0.01691500 -0.00912728
v 0.04453211 -0.01746008 -0.00017499
v 0.04994639 -0.01655897 -0.00203417
v 0.04108586 -0.00425241 -0.00365843
v 0.04190581 -0.01760520 -0.00388434
v 0.02531776 -0.01862040 -0.00145562
v 0.03639888 -0.01621778 -0.01647762
v 0.03767689 -0.01727370 -0.01066782
v 0.03330780 -0.01536552 -0.01954563
v 0.04706522 -0.01628776 -0.01022751
v 0.03280981 -0.01544952 -0.01924831
v 0.02851945 -0.01543307 -0.01852453
v 0.04260965 -0.00391694 -0.00386781
v 0.03257682 -0.01841642 -0.00134387
v 0.03697442 -0.00361120 -0.00476942
v 0.03381037 -0.01769222 -0.00938193
v 0.03733233 -0.01672896 -0.01397156
v 0.04772274 -0.01686649 -0.00357591
v 0.02671097 -0.01704452 -0.01288837
v 0.04103210 -0.01609437 -0.01580351
v 0.03400944 -0.01823935 -0.00413429
v 0.04209066 -0.01619426 -0.01481533
v 0.04107456 -0.01536507 -0.01902935
v 0.03299173 -0.01783014 -0.00876281
v 0.03230489 -0.01333659 -0.02461458
v 0.02560955 -0.01791360 -0.00873173
v 0.03852418 -0.01479638 -0.02138326
v 0.03093458 -0.01845741 -0.00030359
v 0.02590056 -0.01558837 -0.01742262
v 0.03465502 -0.01386495 -0.02380089
v 0.03709042 -0.01633132 -0.01587372
v 0.04390501 -0.01615268 -0.01388220
v 0.02512401 -0.01727663 -0.01166370
v 0.04635612 -0.01524254 -0.01707837
v 0.02924289 -0.00428768 -0.00364699
v 0.02872336 -0.01826805 -0.00634678
v 0.04108196 -0.01370721 -0.02452914
v 0.02771885 -0.01718013 -0.01245493
v 0.03180512 -0.01585896 -0.01781705
v 0.02759273 -0.01607181 -0.01645267
v 0.02707545 -0.00376975 -0.00404063
v 0.04940694 -0.01528446 -0.01419725
v 0.03943967 -0.01783547 -0.00412630
v 0.02550239 -0.01673242 -0.01374785
v 0.03910152 -0.01740286 -0.00887035
v 0.04750873 -0.01692283 -0.00317801
v 0.03344064 -0.01775962 -0.00907872
v 0.04275980 -0.01727964 -0.00648545
v 0.04095191 -0.01769632 -0.00401150
v 0.03791336 -0.01776352 -0.00634897
v 0.03385686 -0.00364769 -0.00490664
v 0.02660682 -0.01700698 -0.01300260
v 0.03733294 -0.00424225 -0.00366259
v 0.04967069 -0.01649723 -0.00414531
v 0.02746249 -0.01834020 -0.00582116
v 0.04038422 -0.01397780 -0.02380550
v 0.04481271 -0.01533253 -0.01756896
v 0.04167733 -0.01516728 -0.01963011
v 0.03059063 -0.01768554 -0.01002714
v 0.02597501 -0.01773143 -0.00974347
v 0.04718603 -0.01459868 -0.01956725
v 0.03488381 -0.01413411 -0.02319450
v 0.03220471 -0.01633245 -0.01621946
v 0.03678895 -0.01544020 -0.01940992
v 0.02592218 -0.00364413 -0.00489323
v 0.02874837 -0.01851919 -0.00009390
v 0.03730097 -0.00382868 -0.00395661
v 0.03522658 -0.01549469 -0.01919229
v 0.04758210 -0.01450385 -0.01971720
v 0.03924016 -0.01798454 -0.00003225
v 0.02839163 -0.01775823 -0.00973584
v 0.02521587 -0.00365184 -0.00427239
v 0.03775301 -0.01756386 -0.00853221
v 0.02852016 -0.01684410 -0.01392989
v 0.03223923 -0.01745938 -0.01116818
v 0.04193348 -0.01637979 -0.01396046
v 0.02724221 -0.01498328 -0.01941026
v 0.04555256 -0.01665719 -0.00905742
v 0.02810407 -0.01802863 -0.00818118
v 0.02716440 -0.01708314 -0.01279070
v 0.02904970 -0.01605255 -0.01677671
v 0.02688553 -0.01794102 -0.00866605
v 0.03762627 -0.01757789 -0.00847664
v 0.03295115 -0.01614248 -0.01691836
v 0.03668676 -0.01667329 -0.01436128
v 0.03378769 -0.01683408 -0.01403977
v 0.04978497 -0.01558063 -0.01183361
v 0.03880168 -0.01781992 -0.00493691
v 0.02671764 -0.01564789 -0.01747691
v 0.03028737 -0.01630678 -0.01607319
v 0.02873380 -0.01840115 -0.00490071
v 0.02507477 -0.01441905 -0.02000875
v 0.03033682 -0.00363287 -0.00485128
v 0.02821948 -0.01393122 -0.02222199
v 0.02884984 -0.01852345 -0.00101412
v 0.04995191 -0.01653797 -0.00241938
v 0.02725941 -0.01828551 -0.00628410
v 0.03626729 -0.01518147 -0.02026944
v 0.03404241 -0.01528277 -0.01984799
v 0.04941556 -0.01654096 -0.00415980
v 0.04321844 -0.01751023 -0.00280466
v 0.04422591 -0.01449312 -0.02133592
v 0.03014896 -0.01791902 -0.00864817
v 0.04942468 -0.00444269 -0.00361095
v 0.04955339 -0.01547676 -0.01283538
v 0.04474173 -0.01742082 -0.00057853
v 0.04402342 -0.01722444 -0.00535706
v 0.02792420 -0.01752444 -0.01099968
v 0.04399675 -0.01455994 -0.02116066
v 0.04182900 -0.01360736 -0.02475218
v 0.04224725 -0.01467478 -0.02128074
v 0.04930800 -0.01648235 -0.00495991
v 0.04177692 -0.01585606 -0.01669515
v 0.02991019 -0.01692875 -0.01366213
v 0.04232196 -0.01628506 -0.01421270
v 0.03134749 -0.01645485 -0.01567692
v 0.04324495 -0.01761344 -0.00000661
v 0.02670296 -0.00388480 -0.00389974
v 0.04115900 -0.01545673 -0.01864439
v 0.04110964 -0.01737837 -0.00718703
v 0.04335704 -0.01507650 -0.01938113
v 0.02524806 -0.01862619 -0.00092229
v 0.03363740 -0.01813550 -0.00538862
v 0.04617072 -0.01374816 -0.02340636
v 0.03259202 -0.01835004 -0.00371490
v 0.03913791 -0.01547774 -0.01892763
v 0.03280474 -0.01338832 -0.02458916
v 0.02824789 -0.01762264 -0.01047114
v 0.04259157 -0.01722542 -0.00726040
v 0.03717978 -0.01659517 -0.01464199
v 0.03376982 -0.01626663 -0.01640850
v 0.04915394 -0.00373802 -0.00408624
v 0.04710850 -0.01332121 -0.02448329
v 0.04083204 -0.01581996 -0.01712966
v 0.02785796 -0.01528196 -0.01882509
v 0.03325194 -0.01839694 -0.00116643
v 0.03759997 -0.01799495 -0.00416512
v 0.03230242 -0.01579809 -0.01805840
v 0.02652337 -0.01445053 -0.02050518
v 0.03164928 -0.01398864 -0.02300121
v 0.02709954 -0.01426457 -0.02112057
v 0.02730624 -0.01239554 -0.02486994
v 0.03041397 -0.00360770 -0.00446523
v 0.03372039 -0.01687464 -0.01385920
v 0.02803000 -0.01411208 -0.02174488
v 0.03605642 -0.01607271 -0.01706113
v 0.02643324 -0.01798622 -0.00838124
v 0.04684540 -0.00359836 -0.00462281
v 0.04341393 -0.00408622 -0.00373837
v 0.03288508 -0.01393822 -0.02333287
v 0.04574384 -0.01457391 -0.02049755
v 0.03948455 -0.00394501 -0.00383970
v 0.04609121 -0.01516202 -0.01766248
v 0.02686187 -0.01518364 -0.01878780
v 0.02806765 -0.01768697 -0.01012509
v 0.02520654 -0.00429407 -0.00364492
v 0.03650643 -0.01538008 -0.01962123
v 0.02639619 -0.01815066 -0.00731240
v 0.04994415 -0.01509464 -0.01469046
v 0.04106620 -0.01519009 -0.01969003
v 0.04228555 -0.01354033 -0.02488700
v 0.04401416 -0.01719772 -0.00564199
v 0.04913060 -0.01680588 -0.00012502
v 0.02838121 -0.01359789 -0.02299383
v 0.03602421 -0.01785277 -0.00674118
v 0.04987738 -0.01450621 -0.01794804
v 0.04960271 -0.01604223 -0.00883259
v 0.02956497 -0.01848900 -0.00333849
v 0.03633854 -0.01400248 -0.02372432
v 0.04809398 -0.00404375 -0.00376817
v 0.03655212 -0.01725502 -0.01124718
v 0.02631916 -0.01794844 -0.00858864
v 0.02562280 -0.01562103 -0.01724707
v 0.02645401 -0.01814204 -0.00737407
v 0.04118739 -0.01549915 -0.01844928
v 0.04009555 -0.01777658 -0.00406765
v 0.04617880 -0.01469257 -0.01980050
v 0.03794426 -0.01774768 -0.00648895
v 0.04300117 -0.01728818 -0.00607647
v 0.03386742 -0.01708863 -0.01279299
v 0.03366415 -0.01832430 -0.00301285
v 0.03293304 -0.01452614 -0.02190736
v 0.04190425 -0.01368630 -0.02451988
v 0.04157285 -0.01483144 -0.02090968
v 0.03226395 -0.01549628 -0.01906758
v 0.03593360 -0.01694903 -0.01313659
f 317 400 557
f 369 251 628
f 468 251 369
f 628 251 569
f 569 251 402
f 184 68 172
f 220 68 40
f 282 68 184
f 282 382 68
f 40 68 228
f 68 382 228
f 412 184 537
f 400 621 537
f 537 172 400
f 184 172 537
f 162 400 317
f 162 621 400
f 407 257 317
f 396 621 31
f 214 300 557
f 223 220 393
f 607 220 223
f 632 577 113
f 300 214 254
f 254 557 400
f 254 214 557
f 165 220 607
f 300 254 165
f 402 382 347
f 347 613 402
f 530 184 412
f 412 60 530
f 412 613 313
f 313 60 412
f 421 228 382
f 421 382 402
f 402 251 421
f 367 537 621
f 257 407 422
f 458 423 638
f 490 190 393
f 108 423 557
f 557 604 108
f 108 604 423
f 423 604 179
f 557 300 232
f 232 604 557
f 300 604 232
f 316 604 300
f 316 606 604
f 443 541 154
f 541 363 482
f 582 30 535
f 628 621 582
f 621 396 582
f 582 396 30
f 35 82 628
f 468 369 561
f 369 519 561
f 392 251 561
f 561 251 468
f 15 577 632
f 15 519 577
f 15 561 519
f 166 621 628
f 597 569 402
f 597 635 569
f 297 367 621
f 400 220 343
f 220 165 343
f 343 254 400
f 343 165 254
f 379 613 412
f 402 613 134
f 613 379 134
f 412 537 344
f 307 347 382
f 613 347 403
f 480 530 60
f 382 282 169
f 169 282 184
f 60 313 198
f 613 403 198
f 228 421 359
f 390 318 59
f 355 14 390
f 40 228 598
f 390 59 129
f 129 59 72
f 341 311 95
f 636 311 92
f 402 326 114
f 114 326 537
f 437 370 489
f 95 370 437
f 95 311 445
f 445 370 95
f 311 636 445
f 541 284 164
f 92 292 164
f 164 414 92
f 289 414 285
f 435 520 407
f 30 396 531
f 531 140 30
f 322 638 423
f 638 322 494
f 542 600 62
f 62 179 542
f 427 204 393
f 386 316 607
f 204 316 386
f 607 223 386
f 386 223 393
f 393 204 386
f 607 316 301
f 301 316 300
f 606 316 215
f 632 246 177
f 632 113 371
f 371 246 632
f 371 219 153
f 113 219 371
f 541 482 28
f 425 383 239
f 239 152 425
f 284 152 239
f 58 284 541
f 58 152 284
f 425 152 497
f 152 58 497
f 210 383 425
f 284 239 466
f 159 219 113
f 339 428 385
f 385 252 339
f 470 252 385
f 511 259 176
f 565 519 369
f 369 264 565
f 577 519 565
f 483 369 628
f 483 264 369
f 628 82 483
f 82 511 483
f 176 264 483
f 483 511 176
f 176 197 34
f 34 264 176
f 577 565 34
f 34 565 264
f 323 597 402
f 74 367 506
f 506 597 74
f 597 323 74
f 635 597 143
f 143 597 47
f 569 635 132
f 628 569 132
f 621 166 342
f 342 166 628
f 310 134 290
f 290 134 379
f 412 344 608
f 310 290 608
f 608 379 412
f 608 290 379
f 266 326 402
f 402 134 266
f 266 134 310
f 112 307 382
f 184 530 516
f 516 169 184
f 415 313 613
f 613 198 415
f 415 198 313
f 376 251 392
f 376 421 251
f 279 434 458
f 170 524 540
f 410 525 498
f 498 364 317
f 498 423 458
f 317 557 498
f 557 423 498
f 141 236 40
f 40 236 439
f 439 220 40
f 393 220 439
f 439 350 393
f 431 598 228
f 228 366 431
f 95 540 242
f 573 286 389
f 196 541 443
f 488 86 334
f 584 86 488
f 537 367 61
f 61 114 537
f 64 170 8
f 305 414 361
f 285 414 305
f 50 363 541
f 275 292 92
f 473 164 284
f 361 414 473
f 414 164 473
f 119 292 541
f 541 164 119
f 119 164 292
f 175 115 289
f 289 115 335
f 267 636 133
f 133 636 92
f 92 414 133
f 451 449 639
f 317 257 362
f 362 162 317
f 623 435 407
f 317 639 623
f 623 407 317
f 639 449 623
f 520 435 562
f 162 471 587
f 31 621 587
f 621 162 587
f 229 494 322
f 600 494 229
f 600 27 156
f 156 27 194
f 374 542 179
f 374 179 604
f 300 165 186
f 186 301 300
f 186 165 607
f 607 301 186
f 632 177 145
f 145 177 552
f 145 15 632
f 392 561 145
f 561 15 145
f 246 371 570
f 552 177 570
f 570 177 246
f 475 371 153
f 153 239 475
f 475 239 383
f 283 148 482
f 651 482 332
f 482 148 332
f 41 154 541
f 541 28 41
f 425 497 288
f 541 580 288
f 288 58 541
f 288 497 58
f 288 210 425
f 580 618 288
f 197 250 125
f 125 34 197
f 250 159 125
f 577 34 125
f 116 250 197
f 116 197 176
f 116 259 339
f 176 259 116
f 11 159 247
f 582 426 10
f 315 571 230
f 230 571 428
f 230 463 315
f 428 463 230
f 315 463 202
f 202 571 315
f 467 571 202
f 202 463 82
f 82 35 202
f 202 35 628
f 202 582 467
f 628 582 202
f 160 428 339
f 339 259 160
f 160 463 428
f 259 511 160
f 453 426 464
f 538 305 510
f 285 305 538
f 284 205 245
f 245 473 284
f 361 473 245
f 339 252 513
f 252 594 513
f 36 594 79
f 284 36 79
f 79 205 284
f 79 594 252
f 82 463 73
f 73 511 82
f 463 160 73
f 73 160 511
f 628 132 320
f 320 132 104
f 310 608 70
f 70 608 344
f 537 326 238
f 326 266 238
f 266 253 238
f 238 253 344
f 238 344 537
f 530 480 558
f 480 112 558
f 307 112 63
f 63 112 480
f 444 378 360
f 360 378 260
f 96 650 452
f 455 48 330
f 474 650 207
f 474 207 564
f 100 581 444
f 528 100 355
f 581 100 528
f 611 129 472
f 472 129 72
f 459 540 95
f 459 170 540
f 111 525 573
f 458 434 509
f 573 525 424
f 90 567 46
f 649 43 438
f 236 141 391
f 406 121 391
f 391 141 406
f 626 439 236
f 350 439 626
f 598 431 195
f 40 598 195
f 195 141 40
f 147 242 540
f 372 7 446
f 584 178 640
f 178 110 640
f 49 86 584
f 72 86 49
f 49 321 72
f 487 580 541
f 541 196 487
f 3 221 631
f 383 210 631
f 631 210 3
f 523 299 306
f 584 488 306
f 306 488 523
f 306 178 584
f 616 299 90
f 616 46 29
f 90 46 616
f 523 488 94
f 94 488 625
f 625 43 94
f 97 488 334
f 591 488 97
f 4 488 591
f 4 591 59
f 4 59 318
f 138 61 367
f 568 64 8
f 541 292 262
f 262 50 541
f 489 115 193
f 115 175 193
f 414 289 249
f 289 335 249
f 267 133 512
f 512 481 267
f 370 481 512
f 489 370 512
f 451 442 398
f 170 64 398
f 281 362 257
f 227 362 281
f 31 587 441
f 287 322 423
f 287 229 322
f 62 600 619
f 600 229 619
f 554 494 600
f 600 156 554
f 606 319 559
f 559 319 427
f 427 185 559
f 314 215 316
f 204 427 314
f 314 316 204
f 190 490 45
f 45 185 427
f 393 190 45
f 45 427 393
f 383 631 99
f 624 570 507
f 624 631 392
f 507 631 624
f 552 570 624
f 392 145 624
f 624 145 552
f 338 475 383
f 383 99 338
f 338 570 371
f 371 475 338
f 507 570 338
f 338 99 631
f 148 283 436
f 436 283 275
f 436 275 92
f 394 28 482
f 482 98 394
f 499 288 618
f 210 288 499
f 3 210 499
f 368 159 113
f 368 125 159
f 368 113 577
f 577 125 368
f 219 159 543
f 159 11 543
f 284 466 543
f 543 11 36
f 543 36 284
f 153 219 543
f 543 239 153
f 543 466 239
f 226 582 535
f 535 150 226
f 226 150 582
f 426 150 167
f 218 426 582
f 582 150 218
f 218 150 426
f 602 426 453
f 602 291 426
f 566 385 428
f 566 209 385
f 428 571 566
f 67 209 582
f 582 10 67
f 10 514 67
f 67 514 470
f 470 385 67
f 385 209 67
f 227 117 231
f 231 362 227
f 75 117 268
f 268 430 75
f 430 587 75
f 75 587 471
f 535 30 352
f 453 464 39
f 510 245 102
f 510 305 345
f 345 245 510
f 345 305 361
f 361 245 345
f 617 52 635
f 635 143 617
f 297 52 130
f 52 617 130
f 104 101 171
f 589 431 366
f 589 46 103
f 406 141 589
f 141 195 589
f 589 195 431
f 103 375 589
f 589 375 406
f 390 14 417
f 417 622 390
f 529 622 261
f 390 622 529
f 191 490 592
f 502 121 521
f 521 350 502
f 261 622 563
f 563 200 261
f 434 279 293
f 293 38 434
f 293 13 156
f 458 13 293
f 293 279 458
f 260 378 135
f 135 38 260
f 174 100 555
f 355 100 174
f 174 603 355
f 600 48 122
f 122 105 600
f 477 27 600
f 600 105 477
f 477 452 27
f 448 650 96
f 14 355 549
f 355 603 549
f 260 546 192
f 192 546 555
f 540 447 409
f 573 389 201
f 525 111 224
f 364 498 224
f 224 498 525
f 224 491 364
f 270 498 458
f 458 509 270
f 434 38 168
f 168 509 434
f 456 424 410
f 410 498 456
f 103 46 106
f 106 46 567
f 574 567 90
f 574 576 567
f 416 576 649
f 649 438 416
f 567 576 416
f 32 438 43
f 32 43 625
f 236 391 127
f 127 391 121
f 648 127 121
f 648 626 236
f 236 127 648
f 95 242 107
f 107 645 95
f 651 341 144
f 144 341 95
f 95 645 144
f 144 482 651
f 144 142 482
f 66 173 211
f 211 472 72
f 87 21 295
f 87 405 21
f 444 405 87
f 389 446 357
f 357 201 389
f 522 487 196
f 522 618 580
f 580 487 522
f 161 440 29
f 618 522 161
f 161 196 443
f 161 522 196
f 578 349 599
f 599 110 578
f 578 110 178
f 154 485 578
f 443 154 578
f 418 631 221
f 418 376 392
f 392 631 418
f 163 306 299
f 269 138 367
f 323 138 269
f 136 323 402
f 136 138 323
f 556 461 296
f 189 568 8
f 437 568 189
f 181 568 437
f 181 437 489
f 489 12 181
f 258 115 489
f 489 512 258
f 612 442 451
f 449 451 544
f 451 398 544
f 398 57 544
f 544 57 69
f 55 398 442
f 263 441 587
f 81 287 423
f 229 287 81
f 427 319 629
f 629 314 427
f 330 48 408
f 408 559 185
f 408 191 365
f 490 191 408
f 408 45 490
f 185 45 408
f 26 631 507
f 507 338 26
f 26 338 631
f 327 10 426
f 327 514 10
f 265 252 470
f 470 514 265
f 291 553 89
f 553 432 89
f 19 602 453
f 296 486 19
f 19 486 602
f 356 464 426
f 268 117 149
f 30 140 465
f 465 352 30
f 140 352 465
f 460 486 296
f 489 588 460
f 460 461 489
f 296 461 460
f 182 245 205
f 182 102 245
f 339 627 572
f 339 513 644
f 644 627 339
f 159 304 235
f 247 159 235
f 304 572 235
f 297 130 583
f 506 367 583
f 367 297 583
f 450 320 104
f 104 469 450
f 104 171 381
f 381 297 621
f 614 120 101
f 188 455 271
f 328 521 454
f 454 521 121
f 71 6 454
f 454 6 328
f 121 158 454
f 634 521 328
f 350 521 634
f 213 6 71
f 188 200 216
f 200 563 216
f 216 563 564
f 564 207 216
f 505 156 194
f 505 293 156
f 38 293 505
f 555 546 280
f 280 174 555
f 324 452 650
f 404 122 48
f 404 448 96
f 455 448 404
f 48 455 404
f 96 452 151
f 452 477 151
f 650 474 476
f 123 137 14
f 603 137 123
f 533 417 14
f 14 137 533
f 581 528 23
f 528 433 23
f 611 472 88
f 472 225 88
f 355 225 596
f 596 225 472
f 596 528 355
f 540 409 273
f 273 147 540
f 7 147 273
f 237 270 509
f 484 203 498
f 498 270 484
f 484 146 203
f 545 146 484
f 378 545 484
f 573 424 53
f 399 359 421
f 421 376 399
f 228 359 399
f 399 366 228
f 399 589 366
f 131 416 438
f 131 438 406
f 406 375 131
f 429 32 318
f 429 318 390
f 390 529 429
f 294 158 121
f 626 648 575
f 502 350 575
f 350 626 575
f 575 121 502
f 575 648 121
f 482 142 595
f 354 147 7
f 354 7 372
f 354 303 211
f 354 211 173
f 147 354 609
f 372 433 329
f 329 354 372
f 303 354 329
f 329 433 528
f 444 581 539
f 539 405 444
f 309 446 7
f 309 357 446
f 21 20 579
f 295 21 579
f 349 578 124
f 65 349 124
f 124 578 485
f 485 98 124
f 618 161 51
f 51 499 618
f 3 499 51
f 51 419 221
f 51 221 3
f 376 418 187
f 118 51 187
f 299 616 183
f 183 163 299
f 440 163 22
f 29 440 22
f 277 520 77
f 77 422 277
f 257 422 77
f 590 556 296
f 373 12 489
f 489 461 373
f 547 612 364
f 442 612 547
f 364 637 547
f 364 491 325
f 325 637 364
f 524 170 37
f 170 398 37
f 398 55 37
f 560 263 387
f 441 263 560
f 610 408 255
f 606 610 255
f 604 606 255
f 255 374 604
f 559 408 302
f 302 408 610
f 606 559 302
f 302 610 606
f 330 408 605
f 605 408 365
f 426 291 508
f 205 79 80
f 643 553 291
f 535 276 54
f 276 356 54
f 17 356 426
f 426 167 17
f 535 352 358
f 352 601 358
f 358 601 244
f 358 276 535
f 358 356 276
f 464 356 358
f 358 39 464
f 479 560 387
f 340 601 352
f 493 601 340
f 285 538 548
f 548 630 285
f 208 630 486
f 285 630 208
f 486 460 208
f 208 460 588
f 411 572 627
f 411 235 572
f 532 597 506
f 47 597 532
f 478 617 143
f 320 450 217
f 628 320 217
f 217 342 628
f 217 450 500
f 217 500 621
f 621 342 217
f 126 171 101
f 126 381 171
f 101 120 126
f 297 381 126
f 240 381 621
f 518 381 240
f 240 469 518
f 240 450 469
f 91 614 101
f 91 101 104
f 91 132 635
f 104 132 91
f 647 455 330
f 647 271 455
f 331 200 188
f 188 271 331
f 393 350 384
f 384 490 393
f 6 213 256
f 200 6 256
f 261 200 256
f 333 546 234
f 234 546 260
f 260 38 234
f 38 505 234
f 333 452 85
f 452 324 85
f 85 546 333
f 336 324 650
f 650 476 336
f 603 174 336
f 336 137 603
f 378 237 180
f 180 237 509
f 517 237 378
f 378 484 517
f 424 456 462
f 462 53 424
f 503 286 573
f 573 53 503
f 503 87 286
f 444 87 503
f 503 378 444
f 503 545 378
f 46 348 298
f 298 346 46
f 348 243 298
f 401 399 376
f 589 399 401
f 32 429 413
f 158 294 413
f 413 294 438
f 438 32 413
f 222 98 482
f 482 595 222
f 222 124 98
f 321 349 496
f 72 321 496
f 496 211 72
f 66 211 496
f 551 609 354
f 16 579 20
f 16 20 372
f 372 446 16
f 419 51 351
f 351 51 118
f 29 46 642
f 642 161 29
f 642 51 161
f 46 346 642
f 163 183 586
f 586 22 163
f 461 556 501
f 501 373 461
f 501 77 520
f 520 562 501
f 562 1 501
f 501 1 69
f 69 57 501
f 44 117 227
f 556 590 44
f 24 149 278
f 278 244 24
f 18 590 296
f 337 201 447
f 573 201 337
f 337 447 540
f 84 408 48
f 527 83 330
f 514 327 641
f 641 265 514
f 641 327 426
f 426 508 641
f 432 80 585
f 585 80 79
f 585 89 432
f 538 643 515
f 515 548 538
f 291 602 515
f 515 643 291
f 296 19 646
f 646 244 296
f 646 358 244
f 24 244 388
f 244 601 388
f 241 479 601
f 560 479 241
f 493 340 2
f 531 493 2
f 140 531 2
f 506 583 457
f 457 532 506
f 380 143 47
f 47 532 380
f 532 457 380
f 297 126 5
f 5 126 120
f 83 527 312
f 592 490 248
f 490 384 248
f 330 83 139
f 139 647 330
f 200 331 272
f 272 331 634
f 83 634 9
f 634 331 9
f 350 634 397
f 397 384 350
f 504 336 174
f 324 336 504
f 348 401 308
f 308 243 348
f 308 401 376
f 42 349 65
f 42 496 349
f 377 595 142
f 377 142 66
f 66 496 377
f 609 551 550
f 550 157 609
f 76 157 550
f 144 76 550
f 142 144 550
f 51 642 526
f 526 187 51
f 128 501 556
f 77 501 128
f 556 44 128
f 633 149 117
f 117 44 633
f 633 44 590
f 633 278 149
f 296 244 274
f 274 18 296
f 442 78 536
f 536 55 442
f 536 78 620
f 48 255 212
f 212 84 48
f 212 255 408
f 408 84 212
f 601 479 206
f 206 388 601
f 109 457 583
f 583 478 109
f 109 478 143
f 365 495 93
f 495 312 93
f 56 191 592
f 592 248 56
f 365 191 56
f 56 495 365
f 56 312 495
f 83 312 56
f 56 634 83
f 420 298 243
f 420 395 298
f 298 395 233
f 429 155 199
f 199 413 429
f 261 256 492
f 256 199 492
f 492 199 155
f 593 536 620
f 593 620 573
f 573 337 593
f 615 605 365
f 365 93 615
f 634 56 33
f 33 397 634
f 384 397 33
f 25 233 395
f 187 526 534
f 534 233 187
f 233 25 353
f 376 187 353
f 187 233 353
f 220 172 68
f 400 172 220
f 520 422 407
f 277 422 520
f 267 481 445
f 445 636 267
f 445 481 370
f 310 70 253
f 253 266 310
f 253 70 344
f 558 516 530
f 558 112 382
f 382 169 558
f 169 516 558
f 347 307 63
f 63 480 60
f 63 403 347
f 60 198 63
f 63 198 403
f 424 525 410
f 349 49 584
f 584 640 349
f 349 110 599
f 349 640 110
f 321 49 349
f 59 591 97
f 72 59 97
f 97 86 72
f 334 86 97
f 363 50 262
f 262 482 363
f 262 283 482
f 292 275 262
f 275 283 262
f 638 494 13
f 458 638 13
f 494 554 13
f 13 554 156
f 92 311 436
f 436 341 651
f 311 341 436
f 651 332 436
f 436 332 148
f 394 485 154
f 394 98 485
f 154 41 394
f 394 41 28
f 566 571 467
f 467 582 566
f 582 209 566
f 162 362 75
f 75 471 162
f 362 231 75
f 75 231 117
f 192 100 444
f 444 360 192
f 192 360 260
f 555 100 192
f 523 94 574
f 90 299 574
f 574 43 649
f 574 299 523
f 649 576 574
f 574 94 43
f 32 4 318
f 625 488 32
f 488 4 32
f 440 161 163
f 163 161 443
f 178 306 163
f 443 578 163
f 163 578 178
f 269 74 323
f 367 74 269
f 114 61 136
f 402 114 136
f 61 138 136
f 189 459 95
f 95 437 189
f 8 170 189
f 170 459 189
f 258 133 414
f 414 249 258
f 258 335 115
f 258 249 335
f 258 512 133
f 317 364 612
f 612 639 317
f 612 451 639
f 423 179 81
f 81 179 62
f 62 619 81
f 81 619 229
f 629 319 606
f 606 215 629
f 215 314 629
f 572 116 339
f 250 116 572
f 572 159 250
f 572 304 159
f 518 469 381
f 381 469 104
f 650 448 216
f 207 650 216
f 216 455 188
f 216 448 455
f 105 122 151
f 151 404 96
f 151 477 105
f 122 404 151
f 123 549 603
f 14 549 123
f 390 129 88
f 88 355 390
f 88 129 611
f 88 225 355
f 131 375 103
f 103 106 131
f 131 106 567
f 567 416 131
f 406 438 294
f 294 121 406
f 211 303 329
f 528 596 329
f 472 211 329
f 329 596 472
f 539 433 372
f 581 23 539
f 372 20 539
f 21 405 539
f 539 20 21
f 539 23 433
f 309 409 447
f 7 273 309
f 447 201 309
f 201 357 309
f 309 273 409
f 1 623 449
f 1 544 69
f 435 623 1
f 1 562 435
f 449 544 1
f 600 542 255
f 255 48 600
f 542 374 255
f 643 538 510
f 205 80 643
f 510 102 643
f 643 182 205
f 643 432 553
f 102 182 643
f 643 80 432
f 17 167 150
f 17 150 535
f 535 54 17
f 17 54 356
f 208 588 489
f 208 175 289
f 208 289 285
f 489 193 208
f 208 193 175
f 411 594 36
f 411 11 247
f 36 11 411
f 411 513 594
f 411 644 513
f 627 644 411
f 247 235 411
f 478 583 130
f 478 130 617
f 621 500 240
f 500 450 240
f 91 52 297
f 635 52 91
f 194 27 234
f 234 452 333
f 27 452 234
f 234 505 194
f 336 474 564
f 622 417 336
f 564 563 336
f 336 563 622
f 336 476 474
f 417 533 336
f 336 533 137
f 180 135 378
f 180 168 38
f 38 135 180
f 509 168 180
f 517 484 270
f 270 237 517
f 503 456 498
f 498 203 503
f 503 146 545
f 203 146 503
f 503 462 456
f 53 462 503
f 46 589 401
f 401 348 46
f 16 389 286
f 286 87 16
f 16 446 389
f 16 87 295
f 295 579 16
f 118 187 351
f 221 419 351
f 351 418 221
f 351 187 418
f 586 183 616
f 586 616 29
f 29 22 586
f 64 568 501
f 501 398 64
f 501 181 12
f 501 57 398
f 568 181 501
f 12 373 501
f 78 111 573
f 491 224 78
f 78 325 491
f 78 224 111
f 442 547 78
f 78 547 637
f 637 325 78
f 573 620 78
f 252 265 585
f 585 79 252
f 291 89 585
f 265 641 585
f 585 508 291
f 585 641 508
f 602 486 515
f 486 630 515
f 630 548 515
f 646 19 453
f 453 39 646
f 39 358 646
f 241 531 396
f 241 396 31
f 31 441 241
f 241 493 531
f 241 601 493
f 441 560 241
f 2 340 352
f 2 352 140
f 614 91 5
f 120 614 5
f 5 91 297
f 272 6 200
f 328 6 272
f 272 634 328
f 9 139 83
f 271 647 9
f 9 331 271
f 647 139 9
f 546 85 504
f 504 280 546
f 174 280 504
f 504 85 324
f 65 124 377
f 377 222 595
f 124 222 377
f 377 42 65
f 496 42 377
f 157 107 242
f 242 147 157
f 645 107 157
f 157 144 645
f 147 609 157
f 157 76 144
f 66 142 550
f 550 173 66
f 550 354 173
f 550 551 354
f 128 44 227
f 227 281 128
f 128 281 257
f 257 77 128
f 274 633 590
f 244 278 274
f 590 18 274
f 278 633 274
f 206 430 268
f 387 263 206
f 206 587 430
f 268 149 206
f 206 263 587
f 206 149 24
f 206 479 387
f 24 388 206
f 109 380 457
f 143 380 109
f 199 454 158
f 71 454 199
f 199 213 71
f 199 256 213
f 158 413 199
f 492 529 261
f 492 429 529
f 492 155 429
f 593 37 55
f 540 524 593
f 593 337 540
f 524 37 593
f 55 536 593
f 615 527 330
f 330 605 615
f 615 312 527
f 615 93 312
f 33 56 248
f 33 248 384
f 346 298 534
f 534 642 346
f 298 233 534
f 534 526 642
f 353 308 376
f 353 420 243
f 243 308 353
f 395 420 353
f 353 25 395

