# https://github.com/mikedh/trimesh
v 0.07936503 -0.00080844 -0.10440458
v 0.07713143 -0.02376644 -0.10389345
v 0.06327192 -0.03916614 -0.12277035
v 0.07458595 -0.03122077 -0.10010197
v 0.05696892 -0.04331970 -0.10252142
v 0.06751756 -0.03650650 -0.12313358
v 0.07676502 -0.02050022 -0.11736246
v 0.07857172 -0.01017641 -0.11131389
v 0.06224384 -0.04114243 -0.10873675
v 0.05185497 -0.01122911 -0.12412408
v 0.06676499 -0.03880665 -0.10892206
v 0.07013623 -0.03499200 -0.11772900
v 0.07750830 -0.02229618 -0.10368500
v 0.06442963 -0.03948793 -0.11426061
v 0.07609918 -0.02521982 -0.11266545
v 0.07875132 -0.01573380 -0.10037976
v 0.06000829 -0.04138436 -0.11370447
v 0.05269184 -0.04434200 -0.10024550
v 0.07259205 -0.03400630 -0.10369153
v 0.07866922 -0.01006146 -0.11014502
v 0.07729110 -0.00579125 -0.12360609
v 0.07777674 -0.02015592 -0.10649254
v 0.06425289 -0.03868350 -0.12290389
v 0.07810428 -0.00837202 -0.11694533
v 0.07894352 -0.01221772 -0.10399229
v 0.05729985 -0.04314221 -0.10379756
v 0.05003628 -0.04329254 -0.11639645
v 0.06371118 -0.04103157 -0.10232876
v 0.07098096 -0.03452537 -0.11486453
v 0.07106883 -0.03474264 -0.11279422
v 0.07472758 -0.02638842 -0.12149850
v 0.05014140 -0.04447144 -0.10313964
v 0.05187979 -0.04437520 -0.10167400
v 0.06493733 -0.04034824 -0.10284615
v 0.05476791 -0.00013999 -0.12273110
v 0.07807951 -0.01039890 -0.11636296
v 0.05189420 -0.04347597 -0.11187957
v 0.05699698 -0.04070643 -0.12390009
v 0.07130484 -0.03456251 -0.11186891
v 0.07905918 -0.00991155 -0.10501711
v 0.07676768 -0.02544437 -0.10267276
v 0.07751767 -0.02139326 -0.10652021
v 0.07490393 -0.02247334 -0.12390309
v 0.07759992 -0.00220733 -0.12277307
v 0.06615265 -0.03773762 -0.12170967
v 0.05494958 -0.04211102 -0.12008209
v 0.07821329 -0.00013295 -0.11792060
v 0.07609448 -0.02572684 -0.11100867
v 0.05265240 -0.04432760 -0.10054073
v 0.07240097 -0.03004674 -0.12379536
v 0.07683135 -0.01493369 -0.12333744
v 0.07446874 -0.02496771 -0.12380718
v 0.07650790 -0.01785461 -0.12339926
v 0.05256079 -0.04230276 -0.12276360
v 0.05874694 -0.04181034 -0.11335827
v 0.06899402 -0.03543163 -0.12222284
v 0.07725400 -0.01466290 -0.11975187
v 0.07895726 -0.01367418 -0.10008737
v 0.06553537 -0.03721490 -0.12390149
v 0.05658433 -0.04199633 -0.11772412
v 0.05210587 -0.04423448 -0.10305475
v 0.07784959 -0.00330823 -0.12051791
v 0.05689333 -0.04235375 -0.11355549
v 0.07176246 -0.03516407 -0.10273211
v 0.06374777 -0.03907504 -0.12170165
v 0.06060448 -0.04043811 -0.12136247
v 0.05018308 -0.04361138 -0.11275533
v 0.05525603 -0.04366213 -0.10250795
v 0.06947599 -0.03756473 -0.10159072
v 0.07400953 -0.02767085 -0.12322508
v 0.07840034 -0.00935268 -0.11405921
v 0.05354504 -0.04405430 -0.10181955
v 0.06636353 -0.03757011 -0.12192511
v 0.07911003 -0.01185262 -0.10022005
v 0.07929298 -0.00472728 -0.10378458
v 0.07127527 -0.03527785 -0.10676494
v 0.07024854 -0.03305519 -0.12387549
v 0.05241051 -0.04324959 -0.11326900
v 0.06080646 -0.03975615 -0.12375464
v 0.07855944 -0.00953317 -0.11190746
v 0.07924552 -0.00152231 -0.10574117
v 0.07752913 -0.02195665 -0.10455490
v 0.07607218 -0.02529678 -0.11276897
v 0.06153220 -0.04209110 -0.10031756
v 0.07937557 -0.00164543 -0.10386474
v 0.06935788 -0.03740800 -0.10438626
v 0.07589356 -0.02757500 -0.10425082
v 0.07807333 -0.00962860 -0.11675981
v 0.07339821 -0.03223447 -0.10778515
v 0.06763888 -0.03905174 -0.10068355
v 0.07912886 -0.00295560 -0.10676278
v 0.05005702 -0.01622367 -0.12378669
v 0.07697153 -0.02056672 -0.11550393
v 0.07694530 -0.02009713 -0.11642897
v 0.05898457 -0.04166978 -0.11403413
v 0.06836699 -0.03779085 -0.10782545
v 0.07339524 -0.02873080 -0.12355162
v 0.07508432 -0.02954073 -0.10426826
v 0.07660992 -0.02286603 -0.11358714
v 0.05155828 -0.04348493 -0.11229913
v 0.07455263 -0.02640212 -0.12291733
v 0.05707077 -0.04227642 -0.11390746
v 0.06262974 -0.04028851 -0.11542608
v 0.07776035 -0.00503243 -0.12086634
v 0.05291960 -0.00989362 -0.12412408
v 0.07926991 -0.00890024 -0.10136914
v 0.05463230 -0.00121407 -0.12412407
v 0.06992204 -0.03705157 -0.10290683
v 0.06935747 -0.03755593 -0.10292291
v 0.06241293 -0.04131006 -0.10631237
v 0.06247513 -0.03906026 -0.12377751
v 0.07691855 -0.01958504 -0.11740302
v 0.07675613 -0.01864395 -0.12012757
v 0.07459376 -0.02669984 -0.12158808
v 0.07865008 -0.01564754 -0.10366443
v 0.05422932 -0.04193748 -0.12331392
v 0.07773971 -0.01270699 -0.11721478
v 0.05625777 -0.04362410 -0.10033044
v 0.05923041 -0.04283228 -0.10022335
v 0.05029811 -0.04350545 -0.11376560
v 0.07703592 -0.02052487 -0.11502836
v 0.07340293 -0.02707593 -0.12390282
v 0.06600938 -0.03998235 -0.10009254
v 0.07793309 -0.01388439 -0.11399559
v 0.07880792 -0.01485133 -0.10148390
v 0.07095245 -0.03490466 -0.11270457
v 0.07429726 -0.03157155 -0.10157835
v 0.07607008 -0.01774088 -0.12380216
v 0.06710871 -0.03831286 -0.11184167
v 0.06293044 -0.04154775 -0.10099496
v 0.07937956 -0.00006591 -0.10448418
v 0.05222617 -0.00033427 -0.12412407
v 0.06305129 -0.03868516 -0.12382992
v 0.07357691 -0.03281482 -0.10114662
v 0.07584334 -0.02554035 -0.11458665
v 0.05041103 -0.04168521 -0.12389902
v 0.07357274 -0.03079598 -0.11480558
v 0.07678811 -0.01578861 -0.12290379
v 0.05211199 -0.04160118 -0.12389930
v 0.05991216 -0.04045012 -0.12337121
v 0.06340339 -0.04132120 -0.10056369
v 0.07845728 -0.00600623 -0.11437834
v 0.07891603 -0.01405908 -0.10032191
v 0.07755202 -0.00045108 -0.12325121
v 0.06630636 -0.03848339 -0.11470478
v 0.07101203 -0.03526098 -0.10915696
v 0.05183959 -0.04334796 -0.11340038
v 0.06585825 -0.03770463 -0.12341303
v 0.06913751 -0.03529551 -0.12224960
v 0.07688703 -0.01636768 -0.12141750
v 0.07855715 -0.01317953 -0.10801817
v 0.05020698 -0.01417989 -0.12412408
v 0.07877703 -0.00639523 -0.11018262
v 0.07133680 -0.03523301 -0.10659126
v 0.07786189 -0.01448950 -0.11400851
v 0.06254613 -0.04017438 -0.11682614
v 0.07727739 -0.02015277 -0.11323957
v 0.07140347 -0.03281627 -0.12146492
v 0.05917372 -0.04266936 -0.10268299
v 0.07954003 -0.00129567 -0.10016568
v 0.07652500 -0.02583955 -0.10510462
v 0.07697677 -0.00810626 -0.12378090
v 0.06192062 -0.04063455 -0.11518891
v 0.07087462 -0.03476692 -0.11429099
v 0.07309185 -0.03054799 -0.11978292
v 0.07727831 -0.01151675 -0.12253568
v 0.07413375 -0.02991498 -0.11383366
v 0.06856139 -0.03815265 -0.10312299
v 0.07327925 -0.02982845 -0.12139204
v 0.07010341 -0.03416118 -0.12307573
v 0.06120013 -0.04106715 -0.11313947
v 0.07355935 -0.03137340 -0.11149505
v 0.06498988 -0.03793131 -0.12366333
v 0.05021185 -0.00175770 -0.12412407
v 0.05379825 -0.00034815 -0.12412407
v 0.07528239 -0.02541083 -0.11964268
v 0.07021741 -0.03258946 -0.12390227
v 0.06353917 -0.04098591 -0.10387591
v 0.07922569 -0.00780674 -0.10334036
v 0.07724517 -0.00576139 -0.12364761
v 0.05985628 -0.04058007 -0.12225680
v 0.06208114 -0.03938296 -0.12365212
v 0.07663715 -0.00018868 -0.12390351
v 0.05016387 -0.00070649 -0.12412407
v 0.05062631 -0.04455961 -0.10131892
v 0.07715684 -0.02091388 -0.11274752
v 0.07228991 -0.03104531 -0.12350543
v 0.06744119 -0.03917121 -0.10087937
v 0.07719618 -0.02410742 -0.10006587
v 0.07895170 -0.01025664 -0.10614843
v 0.07686174 -0.02527851 -0.10125959
v 0.07758123 -0.02162346 -0.10495235
v 0.07506192 -0.02756945 -0.11418646
v 0.07319955 -0.03332970 -0.10247476
v 0.06168413 -0.04092295 -0.11306957
v 0.07252094 -0.03439793 -0.10012523
v 0.07798846 -0.00147871 -0.11964314
v 0.07822990 -0.01149215 -0.11377818
v 0.07803382 -0.00175337 -0.11922233
v 0.07023785 -0.03691353 -0.10062305
v 0.07097090 -0.03475238 -0.11359155
v 0.07544826 -0.02916515 -0.10002597
v 0.07488494 -0.03042827 -0.10106432
v 0.07761541 -0.02075468 -0.10730010
v 0.07156487 -0.03548635 -0.10198888
v 0.05652267 -0.04204371 -0.11739176
v 0.07789608 -0.00993676 -0.11813594
v 0.07077713 -0.03484270 -0.11452124
v 0.07926456 -0.00870483 -0.10175605
v 0.06675557 -0.03731210 -0.12161071
v 0.07919089 -0.01074170 -0.10066205
v 0.07532159 -0.02336676 -0.12349754
v 0.07128732 -0.03279177 -0.12247298
v 0.05143108 -0.04341741 -0.11323700
v 0.06332049 -0.03938859 -0.12069585
v 0.05002142 -0.01628895 -0.12157593
v 0.07690770 -0.01221239 -0.12364152
v 0.07880563 -0.01473008 -0.10185996
v 0.07370970 -0.03234427 -0.10378568
v 0.06666288 -0.00001020 -0.12122932
v 0.05194494 -0.00874299 -0.12412408
v 0.07856277 -0.01372449 -0.10726208
v 0.07610713 -0.02755896 -0.10002411
v 0.07364366 -0.02851557 -0.12337330
v 0.06314627 -0.04013758 -0.11432132
v 0.07008080 -0.03445293 -0.12155514
v 0.05665862 -0.04151341 -0.12229203
v 0.07818086 -0.01965725 -0.10004479
v 0.07025462 -0.03605023 -0.10881936
v 0.07903909 -0.00383163 -0.10763592
v 0.07769905 -0.00354308 -0.12174747
v 0.07816955 -0.01148552 -0.11439202
v 0.07730662 -0.01025985 -0.12296414
v 0.07661478 -0.02344532 -0.11166442
v 0.05711768 -0.04227751 -0.11375531
v 0.07956898 -0.00023473 -0.10018081
v 0.05589701 -0.04158541 -0.12320896
v 0.06182786 -0.04189825 -0.10165657
v 0.07846039 -0.00136860 -0.11558684
v 0.05190953 -0.04318996 -0.11488771
v 0.07795649 -0.01993006 -0.10451909
v 0.06265627 -0.03941450 -0.12290324
v 0.05449527 -0.00355872 -0.12412407
v 0.07791970 -0.00279908 -0.12001687
v 0.05437295 -0.00504445 -0.12412407
v 0.07071355 -0.03502566 -0.11355574
v 0.07709248 -0.01974757 -0.11559414
v 0.07779186 -0.00350685 -0.12097749
v 0.07272482 -0.03413017 -0.10018079
v 0.07046518 -0.03364998 -0.12341124
v 0.07819030 -0.00933473 -0.11588417
v 0.06311968 -0.04138139 -0.10179965
v 0.07741827 -0.00756330 -0.12299533
v 0.07846641 -0.01680933 -0.10389640
v 0.07865592 -0.00001446 -0.11368490
v 0.06763184 -0.03890238 -0.10265025
v 0.07805323 -0.01954836 -0.10397898
v 0.07877324 -0.01392478 -0.10429346
v 0.07735640 -0.01924008 -0.11354702
v 0.07085570 -0.03479136 -0.11428634
v 0.05136261 -0.04329969 -0.11459228
v 0.07774625 -0.00647900 -0.12061814
v 0.05961220 -0.04252697 -0.10271727
v 0.05815708 -0.04284926 -0.10422740
v 0.06152771 -0.03895403 -0.12390083
v 0.07788960 -0.01834751 -0.10859696
v 0.07231718 -0.03114010 -0.12320638
v 0.07413412 -0.02995282 -0.11364526
v 0.06184519 -0.04180966 -0.10278530
v 0.07147771 -0.03106976 -0.12390248
v 0.05932347 -0.04012803 -0.12381723
v 0.07613245 -0.02591978 -0.10958844
v 0.07660293 -0.01818156 -0.12211901
v 0.05055806 -0.01137006 -0.12412408
v 0.07840400 -0.01690636 -0.10454418
v 0.06121391 -0.04072675 -0.11655146
v 0.07460154 -0.02877499 -0.11385613
v 0.06858062 -0.03492072 -0.12386737
v 0.05435368 -0.04205913 -0.12185867
v 0.05110793 -0.04241208 -0.12348525
v 0.07798601 -0.00808256 -0.11804702
v 0.07083865 -0.03636240 -0.10001629
v 0.07915821 -0.01061215 -0.10194828
v 0.07728638 -0.02231575 -0.10656176
v 0.05728619 -0.04325728 -0.10251034
v 0.07684525 -0.02489456 -0.10398073
v 0.07890526 -0.01285888 -0.10367666
v 0.06963852 -0.03714779 -0.10454087
v 0.07733686 -0.01087228 -0.12241094
v 0.06258288 -0.04132194 -0.10549921
v 0.07886402 -0.01310416 -0.10402950
v 0.06196895 -0.04173651 -0.10318356
v 0.06725899 -0.03814564 -0.11227523
v 0.07433751 -0.03089521 -0.10640084
v 0.06713295 -0.03887131 -0.10626391
v 0.06676319 -0.03822482 -0.11477687
v 0.07859845 -0.01684836 -0.10002011
v 0.07913334 -0.01073989 -0.10235405
v 0.07760821 -0.01048927 -0.12032312
v 0.07791936 -0.00104657 -0.12025415
v 0.05778421 -0.04199249 -0.11454108
v 0.07537559 -0.02652227 -0.11524386
v 0.07272262 -0.03366325 -0.10498911
v 0.07936462 -0.00177530 -0.10403681
v 0.07596560 -0.02100549 -0.12337508
v 0.07810402 -0.01022189 -0.11625752
v 0.05014507 -0.04279083 -0.12158866
v 0.07886019 -0.00987374 -0.10771717
v 0.07750608 -0.02060138 -0.10921277
v 0.07144887 -0.03559699 -0.10206414
v 0.05476791 -0.00035189 -0.12123488
v 0.07781091 -0.00192744 -0.12105851
v 0.07166570 -0.03240584 -0.12165765
v 0.07115408 -0.03571803 -0.10401676
v 0.07852751 -0.01188421 -0.10993129
v 0.07820060 -0.01072530 -0.11494469
v 0.05001318 -0.02678705 -0.12122925
v 0.07615464 -0.01777218 -0.12373682
v 0.07777551 -0.02132107 -0.10299091
v 0.07769512 -0.01578055 -0.11418134
v 0.07455132 -0.03058967 -0.10549163
v 0.06893594 -0.03756886 -0.10587811
v 0.07728433 -0.02009360 -0.11325501
v 0.07291033 -0.03074167 -0.12034912
v 0.05378890 -0.04398762 -0.10206300
v 0.05564988 -0.04376712 -0.10003611
v 0.05170886 -0.01200854 -0.12412408
v 0.07923521 -0.00886541 -0.10240692
v 0.06883432 -0.03766311 -0.10573369
v 0.06698204 -0.03601925 -0.12390173
v 0.07605372 -0.02536349 -0.11279429
v 0.05200472 -0.04377732 -0.10833404
v 0.05036514 -0.01246600 -0.12412408
v 0.07868032 -0.01429991 -0.10510067
v 0.06103460 -0.04021888 -0.12197280
v 0.05003074 -0.04439212 -0.10417112
v 0.07780595 -0.00711960 -0.11990282
v 0.07783387 -0.00360711 -0.12058049
v 0.07011790 -0.03427341 -0.12234560
v 0.07317580 -0.03324492 -0.10371540
v 0.07375755 -0.03126775 -0.11028368
v 0.05862851 -0.04134148 -0.11844131
v 0.07339457 -0.03273225 -0.10468560
v 0.07223271 -0.00003816 -0.12122932
v 0.05063960 -0.04257142 -0.12302463
v 0.07352247 -0.03162346 -0.11033326
v 0.07153857 -0.03563823 -0.10037332
v 0.07660379 -0.01057396 -0.12390345
v 0.05752107 -0.04301274 -0.10463618
v 0.07105764 -0.03236929 -0.12371311
v 0.07661108 -0.01488651 -0.12367792
v 0.07366259 -0.03060103 -0.11514629
v 0.07654079 -0.02299422 -0.11400761
v 0.07732925 -0.02035505 -0.11213363
v 0.07796625 -0.00098730 -0.11987683
v 0.07701641 -0.02102184 -0.11411129
v 0.07871621 -0.01535825 -0.10288108
v 0.07539157 -0.02559325 -0.11821673
v 0.07774165 -0.00077457 -0.12171355
v 0.07313566 -0.02981373 -0.12260012
v 0.07679392 -0.02521737 -0.10346938
v 0.06710842 -0.03681474 -0.12329097
v 0.07110432 -0.03192712 -0.12388014
v 0.05602127 -0.04113518 -0.12382488
v 0.07842036 -0.01055292 -0.11287305
v 0.07802643 -0.01982593 -0.10377199
v 0.07069365 -0.03524949 -0.11197343
v 0.05550880 -0.04263868 -0.11337885
v 0.07360212 -0.03255799 -0.10354727
v 0.07796582 -0.01355458 -0.11404791
v 0.07730172 -0.01018107 -0.12303352
v 0.07788306 -0.01079656 -0.11776653
v 0.05769255 -0.04201405 -0.11461086
v 0.07171922 -0.03540445 -0.10055646
v 0.07338075 -0.03231399 -0.10746447
v 0.07908922 -0.01057929 -0.10393984
v 0.05193220 -0.04377116 -0.10854261
v 0.05271322 -0.04252190 -0.12033736
v 0.06242651 -0.04026477 -0.11649266
v 0.07552594 -0.02042547 -0.12390180
v 0.05571956 -0.04355063 -0.10273825
v 0.07840505 -0.01632118 -0.10569481
v 0.07795924 -0.02066661 -0.10212730
v 0.05078444 -0.04175041 -0.12389908
v 0.06416728 -0.03885009 -0.12180488
v 0.07838817 -0.01067137 -0.11307737
v 0.07648877 -0.02624031 -0.10365863
v 0.06527350 -0.03850472 -0.11954264
v 0.07695185 -0.02294772 -0.10888204
v 0.06980131 -0.03728210 -0.10149897
v 0.07418783 -0.03051339 -0.11022925
v 0.07337610 -0.03022059 -0.11899994
v 0.07933594 -0.00757406 -0.10085940
v 0.07496610 -0.02495493 -0.12333316
v 0.05105723 -0.04312530 -0.11684265
v 0.07842573 -0.00951530 -0.11370830
v 0.07460124 -0.02884256 -0.11353153
v 0.07886372 -0.01341092 -0.10349692
v 0.05053511 -0.04298099 -0.11908770
v 0.05373871 -0.04215467 -0.12221307
v 0.07684883 -0.00784459 -0.12388786
v 0.06963126 -0.03475187 -0.12265290
v 0.07510063 -0.02770122 -0.11318273
v 0.07577665 -0.00007685 -0.12361867
v 0.07758257 -0.00179702 -0.12294227
v 0.07595877 -0.02520013 -0.11431939
v 0.06713527 -0.03917343 -0.10308019
v 0.06747595 -0.03889241 -0.10402791
v 0.07765411 -0.00719510 -0.12114931
v 0.07599192 -0.01960379 -0.12364533
v 0.07373920 -0.03256131 -0.10094631
v 0.05677175 -0.04243287 -0.11294074
v 0.07883185 -0.01502922 -0.10030515
v 0.05668007 -0.04155777 -0.12181228
v 0.06488900 -0.03869899 -0.11967689
v 0.07153609 -0.03516669 -0.10517750
v 0.07348535 -0.02914668 -0.12241504
v 0.07753024 -0.00103559 -0.12341432
v 0.07783745 -0.00155680 -0.12088548
v 0.07067363 -0.03534697 -0.11130668
v 0.07916216 -0.00886449 -0.10403175
v 0.07299408 -0.03121605 -0.11729545
v 0.06251498 -0.04118928 -0.10714325
v 0.07801467 -0.00243995 -0.11927401
v 0.06547988 -0.03741746 -0.12384443
v 0.07813123 -0.01998814 -0.10006658
v 0.07827577 -0.00177313 -0.11712422
v 0.05988671 -0.04077991 -0.12016781
v 0.05127417 -0.00846129 -0.12412408
v 0.07389615 -0.03007631 -0.11536172
v 0.07534602 -0.02601648 -0.11737921
v 0.07737163 -0.00771560 -0.12333187
v 0.07658346 -0.02612831 -0.10254576
v 0.07129271 -0.03264104 -0.12327986
v 0.07609512 -0.01949538 -0.12357462
v 0.07630705 -0.02086794 -0.12069261
v 0.07927437 -0.00847815 -0.10172706
v 0.05288312 -0.04258448 -0.11939397
v 0.06348608 -0.03918851 -0.12179659
v 0.07168070 -0.03544895 -0.10063993
v 0.05122018 -0.04314594 -0.11638611
v 0.07232544 -0.03118725 -0.12289187
v 0.07763457 -0.01908117 -0.11056768
v 0.07759561 -0.00265361 -0.12274713
v 0.07852768 -0.00079881 -0.11507340
v 0.06885077 -0.03789437 -0.10352069
v 0.05772325 -0.04317569 -0.10208997
v 0.07515930 -0.02249268 -0.12381003
v 0.07058333 -0.03623723 -0.10442697
v 0.07483911 -0.02586612 -0.12204742
v 0.05814202 -0.04027499 -0.12390028
v 0.06774528 -0.03900139 -0.10023764
v 0.05031719 -0.01441594 -0.12412408
v 0.07044191 -0.03479115 -0.11706280
v 0.07688853 -0.01598852 -0.12179622
v 0.07659794 -0.02627868 -0.10080727
v 0.05818189 -0.04105119 -0.12265332
v 0.06439231 -0.03848130 -0.12350165
v 0.07940080 -0.00078986 -0.10383177
v 0.07706366 -0.01279256 -0.12329447
v 0.06656385 -0.03827292 -0.11534097
v 0.05284890 -0.04402350 -0.10379750
v 0.07708983 -0.00335657 -0.12381508
v 0.07197163 -0.03185958 -0.12219435
v 0.07536278 -0.02544625 -0.11887265
v 0.05706997 -0.04335466 -0.10177916
v 0.07673913 -0.01737908 -0.12172153
v 0.07710496 -0.00590789 -0.12376541
v 0.07067116 -0.03616942 -0.10426000
v 0.07788106 -0.02107229 -0.10181817
v 0.05172379 -0.04446372 -0.10075392
v 0.06929859 -0.03528886 -0.12123694
v 0.07628359 -0.01493477 -0.12390337
v 0.07920637 -0.00893148 -0.10305228
v 0.06928651 -0.03780021 -0.10039186
v 0.07258160 -0.02949446 -0.12385013
v 0.06237966 -0.04137809 -0.10567738
v 0.07942610 -0.00013640 -0.10366273
v 0.07152651 -0.03517130 -0.10523490
v 0.07486424 -0.03021248 -0.10355185
v 0.05040841 -0.00533787 -0.12412408
v 0.07724760 -0.02219984 -0.10744009
v 0.06657483 -0.03943538 -0.10344875
v 0.07721324 -0.01225264 -0.12245519
v 0.07887255 -0.01444117 -0.10062925
v 0.06913857 -0.03792322 -0.10026734
v 0.05073503 -0.04255064 -0.12308602
v 0.05947666 -0.04016833 -0.12375140
v 0.05084276 -0.04309572 -0.11746296
v 0.05728325 -0.04168978 -0.11905816
v 0.07285482 -0.03370031 -0.10338565
f 184 185 236
f 236 185 18
f 336 216 317
f 184 216 336
f 311 184 236
f 236 35 311
f 184 311 132
f 132 311 35
f 317 307 27
f 27 336 317
f 185 184 32
f 184 336 32
f 92 136 307
f 92 307 317
f 317 216 92
f 92 216 184
f 345 136 280
f 307 136 345
f 131 35 236
f 35 131 220
f 220 131 255
f 183 255 47
f 47 144 183
f 183 132 404
f 404 132 35
f 35 220 404
f 404 255 183
f 223 297 282
f 478 131 236
f 344 220 255
f 255 404 344
f 344 404 220
f 448 380 212
f 212 380 435
f 189 426 228
f 228 426 297
f 228 223 189
f 297 223 228
f 470 426 189
f 383 426 470
f 383 115 16
f 297 426 16
f 16 426 383
f 366 115 383
f 196 4 282
f 196 249 4
f 282 452 486
f 101 70 394
f 159 447 349
f 233 166 460
f 445 47 255
f 184 132 175
f 175 132 183
f 183 107 175
f 481 175 107
f 463 401 183
f 115 366 254
f 254 382 115
f 456 191 189
f 189 223 456
f 223 203 456
f 347 196 282
f 4 249 411
f 249 134 411
f 194 134 249
f 4 411 194
f 194 411 134
f 343 219 340
f 193 302 135
f 157 121 247
f 121 112 247
f 4 203 202
f 202 203 223
f 282 4 202
f 202 223 282
f 4 321 480
f 480 203 4
f 294 321 4
f 391 321 294
f 139 453 38
f 52 448 212
f 52 122 43
f 212 394 52
f 52 394 97
f 43 380 52
f 380 448 52
f 97 394 224
f 224 394 70
f 135 302 431
f 302 193 431
f 176 394 135
f 295 296 408
f 296 295 145
f 282 297 326
f 297 160 326
f 236 18 326
f 326 160 236
f 349 447 285
f 399 27 307
f 399 489 27
f 487 345 280
f 185 32 33
f 32 61 33
f 462 61 332
f 332 63 462
f 49 325 18
f 18 33 49
f 49 33 61
f 349 195 264
f 264 159 349
f 195 159 264
f 140 335 66
f 457 237 140
f 54 487 116
f 116 487 280
f 400 54 116
f 217 162 21
f 21 432 217
f 217 432 460
f 401 162 217
f 351 473 217
f 217 473 401
f 316 198 232
f 418 432 21
f 21 463 418
f 183 144 418
f 418 463 183
f 233 460 371
f 460 432 371
f 43 122 105
f 152 453 136
f 152 92 184
f 136 92 152
f 410 435 380
f 380 318 410
f 410 318 435
f 121 436 7
f 406 436 353
f 128 318 380
f 380 473 128
f 351 318 128
f 128 473 351
f 183 401 348
f 401 473 348
f 348 107 183
f 243 107 348
f 348 473 243
f 401 463 468
f 21 162 468
f 468 162 401
f 106 393 211
f 211 393 160
f 382 222 334
f 115 382 334
f 257 254 366
f 98 48 87
f 321 48 98
f 98 480 321
f 309 354 22
f 192 204 319
f 319 366 383
f 319 204 366
f 383 470 319
f 87 48 272
f 233 207 299
f 340 219 369
f 369 194 340
f 408 168 256
f 403 48 321
f 135 48 403
f 403 193 135
f 154 205 314
f 430 224 70
f 97 224 187
f 187 224 267
f 406 353 331
f 331 353 99
f 331 161 48
f 135 406 331
f 331 48 135
f 157 247 323
f 323 382 157
f 280 139 364
f 364 139 38
f 364 116 280
f 38 271 364
f 140 237 364
f 237 116 364
f 136 453 384
f 453 139 384
f 280 136 384
f 384 139 280
f 79 364 271
f 133 271 38
f 267 224 360
f 114 70 101
f 114 431 167
f 167 430 114
f 114 430 70
f 101 394 450
f 394 176 450
f 84 130 141
f 238 130 84
f 159 110 292
f 130 238 292
f 290 130 292
f 296 45 73
f 290 103 225
f 290 145 178
f 26 63 349
f 349 285 26
f 118 326 18
f 447 119 118
f 119 326 118
f 261 489 147
f 147 214 261
f 377 332 61
f 377 61 32
f 471 18 185
f 185 33 471
f 471 33 18
f 72 61 325
f 325 49 72
f 72 49 61
f 140 66 181
f 242 335 140
f 140 458 242
f 458 3 242
f 400 116 279
f 227 457 490
f 490 414 227
f 237 457 227
f 349 235 55
f 349 63 102
f 102 235 349
f 63 414 102
f 102 414 490
f 428 235 342
f 342 181 428
f 428 181 66
f 231 432 444
f 444 418 44
f 432 418 444
f 386 316 365
f 198 316 386
f 199 197 47
f 43 105 245
f 245 380 43
f 245 107 243
f 245 105 107
f 243 473 245
f 245 473 380
f 221 481 107
f 107 105 221
f 174 152 184
f 481 152 174
f 184 175 174
f 175 481 174
f 94 112 121
f 121 7 94
f 93 436 121
f 121 353 93
f 93 353 436
f 180 463 21
f 21 468 180
f 180 468 463
f 297 16 413
f 131 478 459
f 151 334 222
f 157 382 443
f 382 266 443
f 382 254 275
f 275 266 382
f 186 354 309
f 241 204 309
f 309 22 241
f 366 204 241
f 241 257 366
f 191 456 433
f 433 456 203
f 192 319 13
f 289 166 233
f 233 299 289
f 4 194 127
f 194 369 127
f 127 369 219
f 219 294 127
f 127 294 4
f 440 194 249
f 249 196 440
f 347 205 440
f 340 194 491
f 194 440 491
f 491 440 205
f 310 205 347
f 310 108 314
f 314 205 310
f 475 486 452
f 282 486 475
f 390 347 282
f 108 310 390
f 390 310 347
f 390 475 69
f 408 296 129
f 193 403 277
f 167 431 277
f 277 431 193
f 126 154 76
f 76 154 314
f 416 205 479
f 205 154 479
f 288 229 449
f 449 108 288
f 126 367 208
f 362 170 6
f 6 170 402
f 6 296 362
f 293 129 296
f 392 360 352
f 352 268 391
f 167 268 352
f 352 430 167
f 341 343 340
f 391 294 341
f 341 352 391
f 476 52 97
f 122 52 476
f 250 278 77
f 362 278 250
f 250 170 362
f 59 453 330
f 453 177 330
f 330 278 59
f 330 177 77
f 77 278 330
f 140 364 488
f 488 79 140
f 364 79 488
f 59 133 265
f 265 453 59
f 111 79 271
f 271 133 111
f 425 133 59
f 458 111 425
f 425 111 133
f 59 278 425
f 224 430 417
f 417 360 224
f 31 114 101
f 431 114 31
f 135 431 31
f 31 358 135
f 465 176 135
f 135 358 465
f 269 292 238
f 477 110 290
f 290 292 477
f 477 292 110
f 290 110 9
f 9 110 159
f 9 159 195
f 362 296 210
f 210 73 362
f 296 73 210
f 23 3 458
f 385 65 23
f 148 45 296
f 148 73 45
f 148 23 458
f 362 73 148
f 148 278 362
f 148 425 278
f 407 295 408
f 130 34 407
f 14 145 290
f 290 225 14
f 11 145 295
f 295 178 11
f 11 178 145
f 28 34 130
f 28 178 34
f 462 63 412
f 63 26 412
f 381 26 285
f 462 412 381
f 381 412 26
f 18 285 466
f 466 118 18
f 466 285 447
f 447 118 466
f 378 438 147
f 147 240 378
f 400 438 378
f 378 54 400
f 147 489 395
f 489 399 395
f 336 27 67
f 67 32 336
f 67 214 32
f 32 214 100
f 100 377 32
f 100 214 147
f 147 377 100
f 147 78 37
f 37 78 332
f 37 377 147
f 332 377 37
f 63 332 368
f 332 78 368
f 215 65 103
f 46 63 400
f 400 279 46
f 17 55 235
f 300 359 47
f 47 355 300
f 300 418 359
f 47 197 419
f 419 355 47
f 419 197 44
f 44 197 312
f 312 444 44
f 53 318 351
f 435 318 53
f 351 217 53
f 484 460 166
f 306 36 166
f 306 299 207
f 365 316 396
f 316 36 396
f 36 306 396
f 396 306 71
f 47 445 239
f 445 71 239
f 105 327 10
f 10 221 105
f 357 16 115
f 357 413 16
f 58 160 297
f 297 413 58
f 106 211 283
f 20 40 190
f 376 190 40
f 131 459 304
f 315 151 365
f 334 151 315
f 356 353 121
f 356 121 157
f 356 186 99
f 99 353 356
f 157 354 356
f 354 186 356
f 191 433 41
f 161 433 387
f 387 433 203
f 87 272 387
f 203 480 387
f 48 161 387
f 387 272 48
f 387 98 87
f 480 98 387
f 192 13 82
f 82 13 2
f 2 13 361
f 361 286 2
f 161 286 361
f 361 433 161
f 361 41 433
f 196 347 374
f 374 440 196
f 347 440 374
f 64 205 416
f 64 491 205
f 282 475 200
f 200 390 282
f 475 390 200
f 446 168 408
f 322 86 446
f 397 268 167
f 167 277 397
f 397 277 403
f 397 403 321
f 397 321 391
f 391 268 397
f 146 367 126
f 126 76 146
f 229 367 420
f 420 449 229
f 314 108 469
f 108 449 469
f 56 6 402
f 56 229 288
f 296 6 56
f 56 86 322
f 322 293 56
f 288 86 56
f 56 293 296
f 454 208 402
f 402 170 226
f 226 454 402
f 208 454 226
f 96 293 322
f 129 293 96
f 324 352 267
f 430 352 169
f 169 352 360
f 169 417 430
f 360 417 169
f 375 341 340
f 89 341 375
f 340 137 375
f 375 137 89
f 97 187 50
f 50 476 97
f 77 177 270
f 122 476 270
f 270 177 453
f 270 105 122
f 453 327 270
f 270 327 105
f 303 30 39
f 340 303 39
f 42 204 192
f 232 198 370
f 198 124 370
f 259 124 198
f 247 320 259
f 259 323 247
f 451 133 38
f 451 265 133
f 38 453 451
f 453 265 451
f 182 458 140
f 182 111 458
f 140 79 182
f 79 111 182
f 159 292 263
f 292 269 263
f 423 103 290
f 290 9 423
f 385 23 415
f 461 148 296
f 296 145 461
f 145 415 461
f 458 425 173
f 173 148 458
f 425 148 173
f 34 178 483
f 483 407 34
f 483 178 295
f 295 407 483
f 408 256 188
f 188 407 408
f 130 407 188
f 252 28 130
f 178 28 252
f 252 130 290
f 290 178 252
f 18 325 68
f 325 61 68
f 68 61 462
f 462 381 68
f 441 240 147
f 147 395 441
f 120 67 27
f 214 67 120
f 156 215 103
f 65 215 439
f 3 23 439
f 439 23 65
f 63 46 206
f 195 17 276
f 171 17 195
f 55 17 171
f 171 195 349
f 349 55 171
f 235 428 373
f 44 418 405
f 418 300 405
f 212 435 305
f 435 53 305
f 305 394 212
f 135 394 305
f 305 406 135
f 305 436 406
f 166 36 372
f 372 484 166
f 71 306 251
f 142 71 445
f 142 396 71
f 80 396 153
f 308 396 80
f 308 40 20
f 20 396 308
f 365 396 8
f 8 396 20
f 8 315 365
f 424 199 427
f 427 199 47
f 47 239 427
f 333 152 481
f 221 10 429
f 481 221 429
f 74 211 160
f 160 58 74
f 106 283 328
f 283 376 328
f 131 304 1
f 19 64 416
f 491 64 19
f 340 491 19
f 19 303 340
f 109 446 86
f 108 390 109
f 109 390 69
f 288 108 109
f 109 86 288
f 168 446 109
f 149 56 402
f 246 208 367
f 126 208 260
f 208 226 260
f 339 226 170
f 339 260 226
f 322 446 329
f 329 96 322
f 392 352 165
f 352 324 165
f 267 352 442
f 442 464 267
f 352 464 442
f 434 464 313
f 267 464 434
f 434 187 267
f 434 250 187
f 352 341 172
f 172 137 352
f 422 464 352
f 352 137 422
f 313 464 422
f 340 313 422
f 422 137 340
f 350 250 77
f 187 250 350
f 77 270 363
f 363 350 77
f 476 50 363
f 363 270 476
f 363 50 187
f 187 350 363
f 284 15 389
f 234 15 99
f 389 15 234
f 83 331 99
f 99 15 83
f 482 42 192
f 192 284 482
f 482 284 389
f 155 259 320
f 124 259 155
f 388 415 23
f 388 461 415
f 452 188 90
f 90 188 256
f 90 256 168
f 168 109 90
f 90 109 69
f 90 475 452
f 69 475 90
f 123 188 452
f 84 141 123
f 123 141 130
f 130 188 123
f 123 119 84
f 123 326 119
f 123 452 282
f 282 326 123
f 5 381 285
f 5 68 381
f 5 285 18
f 18 68 5
f 103 423 163
f 163 423 9
f 163 9 195
f 195 276 163
f 163 276 66
f 163 66 335
f 60 414 63
f 63 206 60
f 95 17 235
f 51 138 53
f 51 217 460
f 51 53 217
f 53 150 467
f 88 306 207
f 88 251 306
f 71 251 24
f 337 262 24
f 81 153 396
f 131 1 81
f 409 262 337
f 274 333 481
f 481 429 274
f 143 58 413
f 413 485 143
f 115 334 258
f 258 291 115
f 115 291 287
f 421 75 179
f 421 376 40
f 304 75 421
f 437 328 393
f 437 393 106
f 85 304 459
f 85 75 304
f 402 208 12
f 56 149 472
f 208 246 472
f 472 12 208
f 472 246 367
f 472 367 229
f 229 56 472
f 164 29 201
f 201 30 126
f 201 39 30
f 201 29 39
f 201 260 164
f 126 260 201
f 158 29 164
f 158 434 313
f 158 313 340
f 340 39 158
f 39 29 158
f 346 341 89
f 346 172 341
f 89 137 346
f 137 172 346
f 379 156 103
f 103 163 379
f 235 373 301
f 301 95 235
f 117 57 316
f 150 57 117
f 117 316 232
f 455 57 150
f 53 138 455
f 455 150 53
f 113 247 112
f 337 24 281
f 281 24 251
f 91 81 1
f 262 409 253
f 253 432 231
f 231 262 253
f 62 248 424
f 244 199 424
f 424 248 244
f 376 287 25
f 25 287 291
f 298 376 283
f 298 287 376
f 474 421 179
f 474 328 376
f 376 421 474
f 106 328 209
f 209 437 106
f 328 437 209
f 434 158 213
f 213 158 164
f 467 113 273
f 53 467 273
f 273 113 112
f 153 81 230
f 81 91 230
f 231 248 104
f 104 262 231
f 125 218 485
f 357 218 125
f 413 357 125
f 125 485 413
f 398 218 357
f 398 357 115
f 115 287 398
f 248 62 338
f 338 104 248
f 144 47 418
f 47 359 418
f 102 457 140
f 140 181 102
f 490 457 102
f 342 235 102
f 102 181 342
f 241 275 254
f 254 257 241
f 157 443 241
f 241 354 157
f 241 22 354
f 241 443 266
f 266 275 241
f 341 294 219
f 219 343 341
f 465 31 101
f 101 450 465
f 465 450 176
f 358 31 465
f 368 438 400
f 400 63 368
f 147 438 368
f 368 78 147
f 306 289 299
f 166 289 306
f 189 191 361
f 361 470 189
f 361 319 470
f 361 13 319
f 191 41 361
f 469 420 367
f 469 76 314
f 367 146 469
f 469 146 76
f 449 420 469
f 365 151 259
f 259 386 365
f 259 222 382
f 382 323 259
f 198 386 259
f 259 151 222
f 84 119 263
f 447 159 263
f 263 238 84
f 263 119 447
f 263 269 238
f 145 14 415
f 415 225 103
f 415 65 385
f 103 65 415
f 415 14 225
f 441 399 307
f 307 345 441
f 345 487 441
f 441 487 54
f 54 378 441
f 441 378 240
f 441 395 399
f 489 261 120
f 27 489 120
f 120 261 214
f 405 300 355
f 405 419 44
f 355 419 405
f 126 30 19
f 416 479 19
f 19 154 126
f 19 479 154
f 19 30 303
f 329 446 408
f 408 129 329
f 129 96 329
f 165 360 392
f 267 360 165
f 165 324 267
f 161 331 83
f 83 286 161
f 192 82 83
f 2 286 83
f 83 82 2
f 83 284 192
f 15 284 83
f 482 186 309
f 309 204 482
f 99 186 482
f 204 42 482
f 482 234 99
f 389 234 482
f 23 148 388
f 148 461 388
f 60 279 116
f 60 116 237
f 237 227 60
f 60 227 414
f 60 46 279
f 60 206 46
f 81 142 445
f 255 131 81
f 81 445 255
f 396 142 81
f 274 327 453
f 453 152 274
f 274 10 327
f 152 333 274
f 274 429 10
f 402 12 472
f 472 149 402
f 335 242 379
f 379 163 335
f 379 242 3
f 3 439 379
f 215 156 379
f 379 439 215
f 66 276 301
f 301 428 66
f 301 276 17
f 301 373 428
f 17 95 301
f 460 484 455
f 138 51 455
f 455 51 460
f 455 36 316
f 316 57 455
f 455 372 36
f 484 372 455
f 113 155 320
f 113 320 247
f 232 370 113
f 113 117 232
f 113 370 124
f 124 155 113
f 113 467 150
f 150 117 113
f 233 371 253
f 253 207 233
f 253 371 432
f 253 88 207
f 337 281 253
f 251 88 253
f 253 409 337
f 253 281 251
f 244 312 197
f 231 444 244
f 197 199 244
f 444 312 244
f 244 248 231
f 25 8 20
f 334 315 25
f 20 190 25
f 190 376 25
f 315 8 25
f 25 258 334
f 291 258 25
f 474 478 236
f 236 160 474
f 160 393 474
f 474 459 478
f 393 328 474
f 474 85 459
f 179 75 474
f 75 85 474
f 170 250 213
f 250 434 213
f 260 339 213
f 213 339 170
f 164 260 213
f 273 7 436
f 112 94 273
f 273 94 7
f 436 305 273
f 273 305 53
f 230 1 304
f 80 153 230
f 230 308 80
f 230 421 40
f 40 308 230
f 304 421 230
f 230 91 1
f 211 74 398
f 398 283 211
f 398 74 58
f 485 218 398
f 58 143 398
f 398 143 485
f 398 298 283
f 287 298 398
f 71 24 338
f 338 239 71
f 424 427 338
f 338 427 239
f 338 24 262
f 338 62 424
f 262 104 338

