# https://github.com/mikedh/trimesh
v 0.07246098 0.02661957 -0.00154071
v 0.07798301 0.01106129 -0.03206085
v 0.07411208 0.03199223 -0.03346714
v 0.07763254 0.00993135 -0.02764812
v 0.07134268 0.03803034 -0.04640170
v 0.05334947 0.04699816 -0.01143504
v 0.07638932 0.01709773 -0.02141024
v 0.07931854 0.00441699 -0.04980826
v 0.06992502 0.03809290 -0.02210900
v 0.06703168 0.04214689 -0.04038590
v 0.06916725 0.03902349 -0.02171774
v 0.07767983 0.01944070 -0.03952405
v 0.06866101 0.03792401 -0.00889666
v 0.07442863 0.02535137 -0.01392189
v 0.06323926 0.04445855 -0.04130502
v 0.07877227 0.01176836 -0.04374222
v 0.07082808 0.03459578 -0.00916737
v 0.06045153 0.04568777 -0.03650085
v 0.07757383 0.00560898 -0.02583418
v 0.07377094 0.03408368 -0.04210335
v 0.07311001 0.01807597 -0.00047626
v 0.05921998 0.04541948 -0.01271556
v 0.07554844 0.01882766 -0.01666213
v 0.05260872 0.04746764 -0.04940788
v 0.07827154 0.01681499 -0.04298800
v 0.06213450 0.04464365 -0.02414094
v 0.07681486 0.01928794 -0.02832371
v 0.07520651 0.03077696 -0.04175492
v 0.07278593 0.03060748 -0.01175558
v 0.06058072 0.04552951 -0.04482884
v 0.07913586 0.00992619 -0.04959124
v 0.06152330 0.04525708 -0.04212063
v 0.07681558 0.01436026 -0.02300995
v 0.05794087 0.04630064 -0.04981923
v 0.05850048 0.04608368 -0.02233159
v 0.07432895 0.00958184 -0.00545638
v 0.07120603 0.03341321 -0.00782037
v 0.06424880 0.04393217 -0.04523268
v 0.07709710 0.01488670 -0.02578162
v 0.07259923 0.03627463 -0.04984637
v 0.07904564 0.00039942 -0.04222083
v 0.07724447 0.00469959 -0.02360548
v 0.06856922 0.03831715 -0.01096282
v 0.07515778 0.01226027 -0.01157126
v 0.07635064 0.02468367 -0.03363293
v 0.06495000 0.04351673 -0.04886187
v 0.07221892 0.03652862 -0.04092024
v 0.05425324 0.04735910 -0.03183880
v 0.07836480 0.01620694 -0.04353798
v 0.06003470 0.04446559 -0.00522482
v 0.07512514 0.03159484 -0.04865374
v 0.07578029 0.02093001 -0.01956976
v 0.07332196 0.03393933 -0.03385921
v 0.07200336 0.03721017 -0.04874210
v 0.07785057 0.00488055 -0.02785784
v 0.07410068 0.03332553 -0.04139321
v 0.07519073 0.02155555 -0.01582370
v 0.06718113 0.03985563 -0.01070704
v 0.07676573 0.01706168 -0.02447980
v 0.07667776 0.01126307 -0.02114430
v 0.06695754 0.04205096 -0.03563701
v 0.07523699 0.01381848 -0.01255183
v 0.06815754 0.03967177 -0.01782733
v 0.07638225 0.01490046 -0.02038428
v 0.07716531 0.00325600 -0.02295280
v 0.07812366 0.01818276 -0.04323614
v 0.05012208 0.04801697 -0.03990125
v 0.07770136 0.01101389 -0.02878493
v 0.07677096 0.02588969 -0.04319903
v 0.07673785 0.02198919 -0.03162378
v 0.06345849 0.04274639 -0.00789766
v 0.05792095 0.04590480 -0.01234576
v 0.06472186 0.04358114 -0.03348364
v 0.05554227 0.04661521 -0.01302203
v 0.07659358 0.02577400 -0.04031064
v 0.07886400 0.01091338 -0.04445561
v 0.07676075 0.02126017 -0.03075741
v 0.07791565 0.01147593 -0.03156631
v 0.07760462 0.02248414 -0.04528944
v 0.06281618 0.04266041 -0.00265264
v 0.07916675 0.00056443 -0.04412613
v 0.07927260 0.00023819 -0.04629306
v 0.07095369 0.03344307 -0.00562355
v 0.07908498 0.00076993 -0.04289000
v 0.06473382 0.04358990 -0.03412721
v 0.06040458 0.04532058 -0.02090916
v 0.07894548 0.01141690 -0.04719657
v 0.05024849 0.04633530 -0.00466101
v 0.06525567 0.04289694 -0.02649667
v 0.07438248 0.02490155 -0.01300586
v 0.07745471 0.01126651 -0.02663141
v 0.07364280 0.02561268 -0.00842191
v 0.07328405 0.02775667 -0.00847860
v 0.06813614 0.03710344 -0.00041064
v 0.05625261 0.04670216 -0.04983454
v 0.07623689 0.02481913 -0.03253379
v 0.07398874 0.02608144 -0.01138688
v 0.07911327 0.00162755 -0.04363479
v 0.07096312 0.03795612 -0.03535189
v 0.06486244 0.04358414 -0.04703418
v 0.05267914 0.04747749 -0.02247593
v 0.07225411 0.03421480 -0.02203079
v 0.05429194 0.04688005 -0.01219413
v 0.07540955 0.02876290 -0.03447883
v 0.07593114 0.01926464 -0.01942172
v 0.05309566 0.04759895 -0.03802925
v 0.06342353 0.04243295 -0.00431997
v 0.06443231 0.04341900 -0.02510160
v 0.07694452 0.01641811 -0.02545830
v 0.07036742 0.03879033 -0.03699084
v 0.07494228 0.02458679 -0.01725157
v 0.07189166 0.03723464 -0.04380514
v 0.05620265 0.04677312 -0.04673774
v 0.06118073 0.04475446 -0.01626779
v 0.07707173 0.01302087 -0.02437420
v 0.07858135 0.01571443 -0.04767998
v 0.07769766 0.02158169 -0.04404460
v 0.07709345 0.01362660 -0.02492834
v 0.05834616 0.04638009 -0.03932888
v 0.06126383 0.04485779 -0.01882487
v 0.05756616 0.04597019 -0.01170751
v 0.06377872 0.04419995 -0.04023537
v 0.06079226 0.04525089 -0.02353277
v 0.05343020 0.04584025 -0.00387984
v 0.06061807 0.04423513 -0.00590517
v 0.07906266 0.00398121 -0.04384075
v 0.07741427 0.00968421 -0.02566108
v 0.07141739 0.03564253 -0.02168084
v 0.07661864 0.02503621 -0.03834400
v 0.07880232 0.00933316 -0.04208751
v 0.07498770 0.02247073 -0.01505575
v 0.07834944 0.01160973 -0.03759453
v 0.05393026 0.04741121 -0.03108196
v 0.07894810 0.01221783 -0.04900364
v 0.07680086 0.01370916 -0.02267582
v 0.07867374 0.01241996 -0.04315111
v 0.07789970 0.01192231 -0.03185378
v 0.07742940 0.00513577 -0.02484539
v 0.05039525 0.04779049 -0.04894967
v 0.06881110 0.04060480 -0.04083365
v 0.07416859 0.02647901 -0.01355258
v 0.07891380 0.00154269 -0.04069346
v 0.07369488 0.03320694 -0.03403003
v 0.05215875 0.04656461 -0.00665287
v 0.07763365 0.00421032 -0.02606518
v 0.07373727 0.03387245 -0.03977848
v 0.07678782 0.01624047 -0.02403389
v 0.07378102 0.01922546 -0.00541681
v 0.07130876 0.03805098 -0.04542800
v 0.07457524 0.02432223 -0.01379674
v 0.07696577 0.01174909 -0.02316039
v 0.05061594 0.04619956 -0.00419650
v 0.06869046 0.03744710 -0.00598257
v 0.07401442 0.02730088 -0.01398637
v 0.07617958 0.02084125 -0.02343032
v 0.07518823 0.02197071 -0.01608782
v 0.07426822 0.02462800 -0.01186216
v 0.05242647 0.04663098 -0.00713887
v 0.07604136 0.01644586 -0.01879238
v 0.05689657 0.04453890 -0.00063017
v 0.06243048 0.04312539 -0.00488247
v 0.06428257 0.04385587 -0.04972271
v 0.06126969 0.04534070 -0.04239067
v 0.07897327 0.01116636 -0.04743489
v 0.07786578 0.00002647 -0.02751092
v 0.05319098 0.04740615 -0.04804020
v 0.07871203 0.00010925 -0.03754355
v 0.05898606 0.04573880 -0.01752300
v 0.07371171 0.01378420 -0.00263397
v 0.05681793 0.04474758 -0.00130973
v 0.07488925 0.02075437 -0.01342029
v 0.07281034 0.03295313 -0.02200709
v 0.07069506 0.03846261 -0.03784406
v 0.07510071 0.02205075 -0.01553552
v 0.06061931 0.04386821 -0.00235008
v 0.07121385 0.03809114 -0.04213555
v 0.07234953 0.02925036 -0.00405339
v 0.05520412 0.04706326 -0.04387402
v 0.06134865 0.04497075 -0.02188142
v 0.05952936 0.04398293 -0.00080548
v 0.07447436 0.00958703 -0.00639988
v 0.07404503 0.02487368 -0.01050128
v 0.07806494 0.00602465 -0.03005332
v 0.07395415 0.02751663 -0.01393311
v 0.05795152 0.04626282 -0.02219659
v 0.07013967 0.03741013 -0.01973588
v 0.06643166 0.04155066 -0.01963320
v 0.07429660 0.00093503 -0.00423655
v 0.07771054 0.01041615 -0.02853548
v 0.07762252 0.02259425 -0.04628693
v 0.05939450 0.04568352 -0.01983645
v 0.05960771 0.04583283 -0.02796239
v 0.05833885 0.04581444 -0.01360210
v 0.05208444 0.04677663 -0.00785284
v 0.05316351 0.04731657 -0.01895796
v 0.06467024 0.04366260 -0.03600412
v 0.05462658 0.04533357 -0.00239975
v 0.05034238 0.04724297 -0.00982104
v 0.07622034 0.02742668 -0.04041547
v 0.05364237 0.04732571 -0.02291832
v 0.06111245 0.04464526 -0.01378078
v 0.07379807 0.03439686 -0.04934789
v 0.06081281 0.04437985 -0.00851727
v 0.07440797 0.03305894 -0.04619696
v 0.05474674 0.04726386 -0.03905040
v 0.07198258 0.03100294 -0.00564241
v 0.07350009 0.01872260 -0.00332706
v 0.05424402 0.04658057 -0.00915186
v 0.05361340 0.04736084 -0.04613800
v 0.05463728 0.04729966 -0.03844139
v 0.07805039 0.00708889 -0.03050094
v 0.07453841 0.03201445 -0.03921577
v 0.07115003 0.03787765 -0.03777857
v 0.07905190 0.00419917 -0.04373667
v 0.07649421 0.02714056 -0.04324704
v 0.06874884 0.03729515 -0.00564328
v 0.06835176 0.03978308 -0.02065755
v 0.07466293 0.02483134 -0.01509135
v 0.06906974 0.03899504 -0.02059475
v 0.06718488 0.03888475 -0.00339746
v 0.07591433 0.01631111 -0.01791500
v 0.07304992 0.02694181 -0.00567751
v 0.05393905 0.04714099 -0.01775231
v 0.07327375 0.01905972 -0.00206103
v 0.07319795 0.02848246 -0.00908239
v 0.06432137 0.04331193 -0.02144658
v 0.07140309 0.03403913 -0.01223933
v 0.07417500 0.01306721 -0.00542885
v 0.07860088 0.01354724 -0.04353419
v 0.06965037 0.03560649 -0.00435497
v 0.06573814 0.04043845 -0.00324532
v 0.07867088 0.01141053 -0.04187199
v 0.07599688 0.02603522 -0.03307976
v 0.06588332 0.04068312 -0.00666425
v 0.07179940 0.03477608 -0.02003660
v 0.05346227 0.04748432 -0.03082783
v 0.05301506 0.04584082 -0.00368887
v 0.07199674 0.03715716 -0.04628364
v 0.06018388 0.04539695 -0.02056182
v 0.07718070 0.00000905 -0.02292750
v 0.07248017 0.03617182 -0.04159443
v 0.06460781 0.04085315 -0.00035637
v 0.07720865 0.01448908 -0.02649865
v 0.06036414 0.04552860 -0.02712507
v 0.07198817 0.02993318 -0.00269881
v 0.06212837 0.04272597 -0.00020990
v 0.07658310 0.02486219 -0.03731543
v 0.07833324 0.00449708 -0.03337335
v 0.06337049 0.04200273 -0.00125417
v 0.07675550 0.01503259 -0.02294145
v 0.06848439 0.03960053 -0.02016012
v 0.07165261 0.03654557 -0.03279420
v 0.06708643 0.04001748 -0.01123804
v 0.05474089 0.04688508 -0.01484442
v 0.07371661 0.00858841 -0.00130561
v 0.05011211 0.04799352 -0.04110475
v 0.07347830 0.03464822 -0.04276593
v 0.07780220 0.00335649 -0.02719327
v 0.07022088 0.03461990 -0.00403234
v 0.05803671 0.04618658 -0.02064670
v 0.07795341 0.02125033 -0.04947219
v 0.07748695 0.01251801 -0.02766014
v 0.07826880 0.01135087 -0.03616808
v 0.06057613 0.04426801 -0.00600303
v 0.07387830 0.01793343 -0.00539566
v 0.05415610 0.04719449 -0.04839845
v 0.07497679 0.00185849 -0.00871111
v 0.05181038 0.04598816 -0.00376981
v 0.07906979 0.00370538 -0.04383532
v 0.05896845 0.04460658 -0.00271849
v 0.07297292 0.02918978 -0.00889890
v 0.07806924 0.01039405 -0.03277397
v 0.06999840 0.03476013 -0.00295406
v 0.07910263 0.00808665 -0.04722970
v 0.07167242 0.03006310 -0.00072600
v 0.05598827 0.04679711 -0.04815345
v 0.07683929 0.02552750 -0.04303083
v 0.07281755 0.02074498 -0.00020032
v 0.05216871 0.04592140 -0.00364229
v 0.07260647 0.03108807 -0.01156750
v 0.06510991 0.04324216 -0.03174414
v 0.07219616 0.03674161 -0.04285515
v 0.05340607 0.04672696 -0.00918408
v 0.07432849 0.03298527 -0.04267751
v 0.07776182 0.00406650 -0.02693489
v 0.06887624 0.04060518 -0.04983780
v 0.06039829 0.04548571 -0.04981694
v 0.07358756 0.01355414 -0.00175872
v 0.06551859 0.04316979 -0.04124609
v 0.05960961 0.04398284 -0.00087969
v 0.07384503 0.03414401 -0.04567688
v 0.07564168 0.03011889 -0.04926974
v 0.06634507 0.04187865 -0.02205026
v 0.07710178 0.02446994 -0.04347167
v 0.07296749 0.03352168 -0.02651232
v 0.07818154 0.00293630 -0.03085693
v 0.05384856 0.04579257 -0.00388737
v 0.06798203 0.04141089 -0.04975682
v 0.07740430 0.02221577 -0.04097429
v 0.07278329 0.02693186 -0.00382523
v 0.06211688 0.04494942 -0.04556962
v 0.07020167 0.03757320 -0.02150558
v 0.06003776 0.04564788 -0.04818985
v 0.07219373 0.02855992 -0.00179387
v 0.06028418 0.04486062 -0.01107037
v 0.07056756 0.03424100 -0.00527382
v 0.06861396 0.03622297 -0.00004775
v 0.06702147 0.04116940 -0.02146760
v 0.07195377 0.03083967 -0.00485652
v 0.07476256 0.03181466 -0.04143350
v 0.07524941 0.02886786 -0.03285938
v 0.05703671 0.04448196 -0.00050554
v 0.07764449 0.02126745 -0.04247116
v 0.07752477 0.02178511 -0.04180473
v 0.07856170 0.01656963 -0.04986185
v 0.07822371 0.01793097 -0.04461599
v 0.06307455 0.04404678 -0.02224813
v 0.07313025 0.01862066 -0.00088331
v 0.07725497 0.02324990 -0.04177401
v 0.07801725 0.00595829 -0.02950979
v 0.07076310 0.03565670 -0.01471492
v 0.07115604 0.03807802 -0.04081576
v 0.05078152 0.04794063 -0.03877234
v 0.05431071 0.04482995 -0.00038189
v 0.07748832 0.00484118 -0.02519092
v 0.07098950 0.03463449 -0.01083338
v 0.06980920 0.03974342 -0.04404216
v 0.07881463 0.01387537 -0.04935996
v 0.07782095 0.00105449 -0.02717491
v 0.06714137 0.04208429 -0.04352703
v 0.07657164 0.01477384 -0.02156282
v 0.07348838 0.02616032 -0.00784829
v 0.05944880 0.04567565 -0.02013301
v 0.07335757 0.01361064 -0.00028439
v 0.07579001 0.00204151 -0.01396988
v 0.07556279 0.01382437 -0.01466993
v 0.05352539 0.04669802 -0.00909997
v 0.07758836 0.02211985 -0.04334441
v 0.07181143 0.03492503 -0.02110569
v 0.06413023 0.04396912 -0.04717188
v 0.05451230 0.04725767 -0.04194220
v 0.06595268 0.04179670 -0.01812494
v 0.07061911 0.03694399 -0.02183454
v 0.07254783 0.02754325 -0.00294661
v 0.07834884 0.01751456 -0.04667284
v 0.07109588 0.03827345 -0.04374747
v 0.07539956 0.02039458 -0.01653388
v 0.06912561 0.03656394 -0.00495186
v 0.07916698 0.00943059 -0.04994262
v 0.06247921 0.04322517 -0.00625265
v 0.05821486 0.04635622 -0.04294976
v 0.07803521 0.00084600 -0.02900596
v 0.05954410 0.04476812 -0.00641957
v 0.07149709 0.03131978 -0.00276960
v 0.06035926 0.04548380 -0.02542192
v 0.05163424 0.04587673 -0.00320048
v 0.07649546 0.01878598 -0.02387579
v 0.06569266 0.04010768 -0.00140767
v 0.05687141 0.04657104 -0.04901451
v 0.07228774 0.02993215 -0.00495794
v 0.07268964 0.03341130 -0.02261569
v 0.05089665 0.04758560 -0.01400502
v 0.07783363 0.01126830 -0.03046135
v 0.06597365 0.04224672 -0.02381864
v 0.07803396 0.00633348 -0.02983829
v 0.06791604 0.04146929 -0.04949352
v 0.07896064 0.00920258 -0.04467687
v 0.07255981 0.02337353 -0.00017030
v 0.07378503 0.01844609 -0.00502654
v 0.06620839 0.04115772 -0.01388938
v 0.05550083 0.04700626 -0.04321552
v 0.07429139 0.00020252 -0.00416072
v 0.07706253 0.01230625 -0.02395561
v 0.07817171 0.01882603 -0.04646529
v 0.06675712 0.04012520 -0.00922555
v 0.07812950 0.01282057 -0.03601939
v 0.07885493 0.00949732 -0.04291818
v 0.05158898 0.04708249 -0.00981156
v 0.06621280 0.04040041 -0.00681238
v 0.06436519 0.04307751 -0.01904561
v 0.06140153 0.04427573 -0.01108911
v 0.06747027 0.04184499 -0.04312164
v 0.07759178 0.00404486 -0.02577903
v 0.05107485 0.04560624 -0.00179911
v 0.05001586 0.04792596 -0.03031211
v 0.07445183 0.02283715 -0.01183704
v 0.07663081 0.01518489 -0.02210924
v 0.07758608 0.00031476 -0.02556098
v 0.07556608 0.02065258 -0.01778282
v 0.06281805 0.04456939 -0.04988829
v 0.05370384 0.04694709 -0.01163406
v 0.07316155 0.01675784 -0.00027295
v 0.07403566 0.01849079 -0.00667517
v 0.05079698 0.04680871 -0.00725425
v 0.05919884 0.04583133 -0.02194998
v 0.07183592 0.03072470 -0.00345642
v 0.05015299 0.04791615 -0.02380673
v 0.07466103 0.02541837 -0.01606161
v 0.07894343 0.00971919 -0.04467534
v 0.07250903 0.02715792 -0.00224874
v 0.06108607 0.04518992 -0.02605924
v 0.07324586 0.02748242 -0.00769136
v 0.06707107 0.03840499 -0.00077151
v 0.07478329 0.03183890 -0.04194048
v 0.07027271 0.03832496 -0.02893241
v 0.05984188 0.04395872 -0.00112786
v 0.06408001 0.04404369 -0.04259925
v 0.07697119 0.01287214 -0.02353168
v 0.07374155 0.03350262 -0.03682947
v 0.07400763 0.02647169 -0.01212623
v 0.05254747 0.04725205 -0.01276694
v 0.07339723 0.01426073 -0.00078147
v 0.07822117 0.00508706 -0.03196790
v 0.07800939 0.00922669 -0.03127468
v 0.06694861 0.04220319 -0.04600062
v 0.07297725 0.02842231 -0.00723026
v 0.07101041 0.03832343 -0.04173192
v 0.06049747 0.04449234 -0.00786415
v 0.07252539 0.03354873 -0.02145640
v 0.05344127 0.04735640 -0.02276458
v 0.06969579 0.03985084 -0.04469727
v 0.07685060 0.01725104 -0.02557861
v 0.07207586 0.03162573 -0.00875765
v 0.06417700 0.04305120 -0.01717586
v 0.05507484 0.04479733 -0.00063724
v 0.07641936 0.01473913 -0.02056132
v 0.07460205 0.03236803 -0.04274512
v 0.07740305 0.00753075 -0.02500951
v 0.07749525 0.00864226 -0.02594709
v 0.05334191 0.04744866 -0.04444666
v 0.07700872 0.01039148 -0.02305077
v 0.07308560 0.01867410 -0.00063070
v 0.07684923 0.01061052 -0.02207025
v 0.06465515 0.04321019 -0.02370746
v 0.07363261 0.00217694 -0.00009201
v 0.06794808 0.04139149 -0.04096993
v 0.06284417 0.04274969 -0.00341115
v 0.07183902 0.02954374 -0.00100145
v 0.07157695 0.03747288 -0.04021382
v 0.06091960 0.04550377 -0.04017266
v 0.07813964 0.01204538 -0.03519564
v 0.06111962 0.04494103 -0.01910528
v 0.06145042 0.04530962 -0.03955139
v 0.07714444 0.02520065 -0.04908217
v 0.06424893 0.04395713 -0.03964180
v 0.07528403 0.02262540 -0.01743536
v 0.07399055 0.03379911 -0.04429551
v 0.07380774 0.02734321 -0.01196676
v 0.05926022 0.04406240 -0.00085799
v 0.07738190 0.01084060 -0.02581634
v 0.07431410 0.03335871 -0.04779415
v 0.07418152 0.03369401 -0.04981317
v 0.07562042 0.02231655 -0.01999040
v 0.07756417 0.01208556 -0.02810387
v 0.07522547 0.02846301 -0.03073535
v 0.07586130 0.01466440 -0.01691298
v 0.06176095 0.04292781 -0.00005175
v 0.07727676 0.01095948 -0.02500336
v 0.06524218 0.04300355 -0.02861565
v 0.07437395 0.00085060 -0.00472665
v 0.07309251 0.02827021 -0.00787264
v 0.07467387 0.03223928 -0.04307629
v 0.05628167 0.04515937 -0.00273396
v 0.07393291 0.00003351 -0.00183576
v 0.07273988 0.03100273 -0.01266103
v 0.05885064 0.04603536 -0.04869972
v 0.07583295 0.02657294 -0.03254836
v 0.07364254 0.03402998 -0.03953578
v 0.07478210 0.03001760 -0.03245459
v 0.07234268 0.03444396 -0.02441052
v 0.06845181 0.03984307 -0.02256334
v 0.07812595 0.00260373 -0.03003065
v 0.07784449 0.00436841 -0.02771269
v 0.07176124 0.03511851 -0.02194203
v 0.07266220 0.02948191 -0.00696330
v 0.06871384 0.03910218 -0.01816156
v 0.05422943 0.04716945 -0.04880526
v 0.07186423 0.03712899 -0.04111042
v 0.06620784 0.03975582 -0.00239835
v 0.06319082 0.04251407 -0.00339481
v 0.07617327 0.01843573 -0.02072356
v 0.05921451 0.04503939 -0.00802193
v 0.07568785 0.02156562 -0.01958676
v 0.07676065 0.02264935 -0.03296951
v 0.07356535 0.03450919 -0.04287293
v 0.07618148 0.01632625 -0.01965276
v 0.06419882 0.04364876 -0.02750103
v 0.05831536 0.04617596 -0.02392351
v 0.06054701 0.04490737 -0.01314383
v 0.07746065 0.01243875 -0.02734582
v 0.07669365 0.02339857 -0.03425454
v 0.07523342 0.03116872 -0.04622582
v 0.07503870 0.02282431 -0.01576562
v 0.06741364 0.04187500 -0.04874768
v 0.06067220 0.04499995 -0.01627552
v 0.07913902 0.00784788 -0.04792645
v 0.05601303 0.04618699 -0.00887118
v 0.06641317 0.04254588 -0.04947854
v 0.05168452 0.04750449 -0.01618352
v 0.07651286 0.01750522 -0.02275229
v 0.07536205 0.02923735 -0.03616930
v 0.06576447 0.04227920 -0.02151805
v 0.06179439 0.04343313 -0.00439851
v 0.07664905 0.02670465 -0.04469853
v 0.07642156 0.01623484 -0.02117251
v 0.07436886 0.01998200 -0.00963173
v 0.06747621 0.04184586 -0.04595106
v 0.07770182 0.00058590 -0.02632396
v 0.05054238 0.04783843 -0.02298184
v 0.07466286 0.00956786 -0.00761831
v 0.05305107 0.04668511 -0.00836923
v 0.07677907 0.00020559 -0.02031575
v 0.07875892 0.01135025 -0.04307641
v 0.07821647 0.00462179 -0.03177764
v 0.06076683 0.04556075 -0.03979641
v 0.06505046 0.04345160 -0.04915112
v 0.05428365 0.04727475 -0.02638733
v 0.06915721 0.04032097 -0.04229207
v 0.07562044 0.02773588 -0.03330782
v 0.07381080 0.02530386 -0.00928996
v 0.06045517 0.04556825 -0.02995003
v 0.07452546 0.03302050 -0.04953295
v 0.07749951 0.01165056 -0.02719958
v 0.07779262 0.00454427 -0.02729216
v 0.06913256 0.03787248 -0.01288046
v 0.06922027 0.03804542 -0.01497035
v 0.05824221 0.04638033 -0.04118249
v 0.05974319 0.04404285 -0.00134836
v 0.05422843 0.04736729 -0.03201903
v 0.06451138 0.04379278 -0.03814377
v 0.06682905 0.04197780 -0.03189975
v 0.05833710 0.04599170 -0.01805431
v 0.05408871 0.04731413 -0.02672931
v 0.06989663 0.03466352 -0.00200004
v 0.05299026 0.04704247 -0.01130417
v 0.07445205 0.02248469 -0.01162612
v 0.07653043 0.01440382 -0.02116241
v 0.07748046 0.02280570 -0.04369235
v 0.06701565 0.04216001 -0.04558642
v 0.07851202 0.01174887 -0.04004740
v 0.07741033 0.00746886 -0.02504377
v 0.07779779 0.01876922 -0.03997917
v 0.07378853 0.00131376 -0.00100792
v 0.06340436 0.04194249 -0.00106162
v 0.07843688 0.00363966 -0.03458985
v 0.06011646 0.04443290 -0.00523417
v 0.07787611 0.00818960 -0.02912130
v 0.07442622 0.02572075 -0.01448044
v 0.05834356 0.04527586 -0.00675123
v 0.07813830 0.01373638 -0.03728378
v 0.07801074 0.01929388 -0.04397410
v 0.07003623 0.03871052 -0.03033185
v 0.07454182 0.02623847 -0.01690551
v 0.05173007 0.04553714 -0.00183368
v 0.07685149 0.02658513 -0.04982529
v 0.05845781 0.04622808 -0.04544086
v 0.05637255 0.04673100 -0.02632150
v 0.07902071 0.00984597 -0.04668615
v 0.07335663 0.01377181 -0.00032398
v 0.07907933 0.01017847 -0.04849533
v 0.07789963 0.02144752 -0.04878577
v 0.07159742 0.03028923 -0.00072010
v 0.07580152 0.01955256 -0.01868999
v 0.07941888 0.00045963 -0.04968793
v 0.07120756 0.03823069 -0.04946193
v 0.07162171 0.03140506 -0.00395513
v 0.07695652 0.00439569 -0.02171981
v 0.07603320 0.02125504 -0.02248841
v 0.07523963 0.01469034 -0.01289352
v 0.07424146 0.03237974 -0.03707803
v 0.07647385 0.02673060 -0.04165968
v 0.07124098 0.03588454 -0.02138935
v 0.07268613 0.03214280 -0.01702800
v 0.06228828 0.04454823 -0.02386788
v 0.07144695 0.03146095 -0.00282928
v 0.05085375 0.04752967 -0.01295482
v 0.06461017 0.04376964 -0.04037120
v 0.05377115 0.04672236 -0.00963104
v 0.05420166 0.04739423 -0.03608646
v 0.07326152 0.03372354 -0.03117945
v 0.07664792 0.02436365 -0.03664282
v 0.07812896 0.00074523 -0.02980898
v 0.05630709 0.04582116 -0.00676076
v 0.07232147 0.02896045 -0.00336348
v 0.05176035 0.04723528 -0.01130095
v 0.07347105 0.01061217 -0.00018515
v 0.05314372 0.04752820 -0.03029407
v 0.05403836 0.04740755 -0.03202775
v 0.07569985 0.02042983 -0.01859932
v 0.07772566 0.02184769 -0.04571704
v 0.05776005 0.04423002 -0.00012309
v 0.07672019 0.02710652 -0.04953235
v 0.07772677 0.02245100 -0.04831333
v 0.06508166 0.04343686 -0.03760495
v 0.05347132 0.04622476 -0.00567709
v 0.07656639 0.02324684 -0.03220184
v 0.07261067 0.03351782 -0.02224295
v 0.07621963 0.01396660 -0.01898700
v 0.06828202 0.03749603 -0.00270520
v 0.07648188 0.02369634 -0.03239151
v 0.07005275 0.03773951 -0.02101270
v 0.06600608 0.04276630 -0.03617609
v 0.06845357 0.03967368 -0.02056452
v 0.07779722 0.02055263 -0.04321899
v 0.07692223 0.01569782 -0.02479034
v 0.07906435 0.00988274 -0.04779245
v 0.06261693 0.04476028 -0.04085701
v 0.06337198 0.04409744 -0.02733844
v 0.07908677 0.01094618 -0.04981264
v 0.05124251 0.04778101 -0.02655013
v 0.07309678 0.03437630 -0.03446823
v 0.07617881 0.01741684 -0.02010633
v 0.06994278 0.03458597 -0.00199472
v 0.07381034 0.00876595 -0.00192912
v 0.05540319 0.04690885 -0.02177582
v 0.05003100 0.04759706 -0.01252636
v 0.06163874 0.04522563 -0.03974631
v 0.07178118 0.03735029 -0.04255854
v 0.07407721 0.03353144 -0.04252872
v 0.06689755 0.04209353 -0.03559706
v 0.07742809 0.02237537 -0.04170069
v 0.07628679 0.02011412 -0.02353568
v 0.07807867 0.01131106 -0.03346374
v 0.07595167 0.01861949 -0.01918376
v 0.07226755 0.02730189 -0.00079953
v 0.07484736 0.02500228 -0.01714741
v 0.07382394 0.00962257 -0.00219603
v 0.06187860 0.04511271 -0.04085250
v 0.07536715 0.03088516 -0.04817883
v 0.07225920 0.03456901 -0.02419490
v 0.05838302 0.04614413 -0.02317794
v 0.06447342 0.04386279 -0.04145126
v 0.07055240 0.03828402 -0.03230736
v 0.07661489 0.01684711 -0.02305740
v 0.06502294 0.04287924 -0.02238024
v 0.07533951 0.03034892 -0.04152986
v 0.07681363 0.01081953 -0.02189775
v 0.07585356 0.01377351 -0.01654231
v 0.07275117 0.02913875 -0.00682485
v 0.06314173 0.04233405 -0.00213538
v 0.07735454 0.02207428 -0.04001784
v 0.07026257 0.03904250 -0.03928070
v 0.07365774 0.00714552 -0.00077452
v 0.07250828 0.02754090 -0.00267950
v 0.07053565 0.03631100 -0.01662245
v 0.07615002 0.02139528 -0.02394900
v 0.05948566 0.04599142 -0.03974707
v 0.07534216 0.02913435 -0.03539185
v 0.07783361 0.00174268 -0.02733719
v 0.07501434 0.01541092 -0.01172118
v 0.06971081 0.03464411 -0.00083570
v 0.07733700 0.00744135 -0.02456101
v 0.07057520 0.03829559 -0.03272425
v 0.07120396 0.03480171 -0.01369622
v 0.05737497 0.04581231 -0.00903131
v 0.05001281 0.04738484 -0.01067314
v 0.06746085 0.04185682 -0.04393665
v 0.07859569 0.01581931 -0.04830246
v 0.07449524 0.02330916 -0.01240055
v 0.05459807 0.04714261 -0.02279229
v 0.05487048 0.04678385 -0.01277588
v 0.05989329 0.04435311 -0.00333707
v 0.07239886 0.02650090 -0.00106926
v 0.06915057 0.03613304 -0.00290921
v 0.07199729 0.03214209 -0.00997641
v 0.07920000 0.00648847 -0.04839867
v 0.05886382 0.04619961 -0.03973651
v 0.06399403 0.04298030 -0.01488351
v 0.05417567 0.04738660 -0.03267063
v 0.05404537 0.04701655 -0.01412083
v 0.06651615 0.03902238 -0.00073371
v 0.05524204 0.04692208 -0.04993580
v 0.06637180 0.04193887 -0.02352132
v 0.07680473 0.02636734 -0.04695856
v 0.07349835 0.01384248 -0.00126830
v 0.07890077 0.01315982 -0.04990088
v 0.06596128 0.04270352 -0.03376566
v 0.07199882 0.03602373 -0.03317933
v 0.07271206 0.03474860 -0.03220495
v 0.06607093 0.04212110 -0.02263345
v 0.07840018 0.00032570 -0.03322418
v 0.06926793 0.03848884 -0.01868836
v 0.05358182 0.04746031 -0.04151044
v 0.07883486 0.01016659 -0.04314435
v 0.07566043 0.02725621 -0.03240592
v 0.07456369 0.03186859 -0.03875858
v 0.05420519 0.04510230 -0.00132395
v 0.07661359 0.00007098 -0.01924283
v 0.07747029 0.01395163 -0.02898733
v 0.07772378 0.00232411 -0.02653908
v 0.07215702 0.03223883 -0.01185496
v 0.07138667 0.03760617 -0.03844183
v 0.05975973 0.04554304 -0.01996435
v 0.07622138 0.01701195 -0.02019669
v 0.06601713 0.04273562 -0.03545960
v 0.07540648 0.03039162 -0.04280585
v 0.05701403 0.04583132 -0.00802632
v 0.06984305 0.03955397 -0.03998315
v 0.05386671 0.04739466 -0.04196964
v 0.07745397 0.02372309 -0.04854950
v 0.05214654 0.04678123 -0.00797253
v 0.07136783 0.03699355 -0.03264513
v 0.07379086 0.01788537 -0.00480707
v 0.07669941 0.02258828 -0.03211031
v 0.06012855 0.04560262 -0.04882695
v 0.07560513 0.02786108 -0.03349148
v 0.07455612 0.01858344 -0.01009914
v 0.07684414 0.01068264 -0.02205734
v 0.07829054 0.01744810 -0.04467688
v 0.07291166 0.02789191 -0.00582127
v 0.07137175 0.03758475 -0.03799643
v 0.06286381 0.04222731 -0.00039345
v 0.06654173 0.04248691 -0.04226974
v 0.06863463 0.03940292 -0.01976256
v 0.07436266 0.02901554 -0.02302346
v 0.07345248 0.01887360 -0.00309927
v 0.07187945 0.03473385 -0.02070339
v 0.07617724 0.02014905 -0.02236016
v 0.07338196 0.03382526 -0.03372008
v 0.07049994 0.03893751 -0.04267687
v 0.06158096 0.04399612 -0.00897699
v 0.07339394 0.03474170 -0.04228610
v 0.07365267 0.02588908 -0.00872589
v 0.07568724 0.00188656 -0.01329564
v 0.07714654 0.02271147 -0.03853771
v 0.07786819 0.00800935 -0.02897579
v 0.05427318 0.04735057 -0.03159865
v 0.07238855 0.03099349 -0.00928446
v 0.05470306 0.04700423 -0.01875606
v 0.07722375 0.02224115 -0.03854120
v 0.06938412 0.04007709 -0.04106390
v 0.07462626 0.03051595 -0.03287646
v 0.05811788 0.04635364 -0.04469839
v 0.06492264 0.04344862 -0.03362468
v 0.06946567 0.04007323 -0.04804047
v 0.07557710 0.00821586 -0.01327830
v 0.05391192 0.04730734 -0.04569825
v 0.06393618 0.04194257 -0.00356020
v 0.07604119 0.02853434 -0.04341807
v 0.06039472 0.04566926 -0.03349290
v 0.07381973 0.01396591 -0.00339990
v 0.07775428 0.00589615 -0.02724818
v 0.06474007 0.04337521 -0.02866950
v 0.07128480 0.03805102 -0.04416234
v 0.06623108 0.04013834 -0.00468798
v 0.07667099 0.02637189 -0.04329485
v 0.05417587 0.04734611 -0.04128148
v 0.07865667 0.01308223 -0.04378590
v 0.07515208 0.03120859 -0.04392148
v 0.06840887 0.03819430 -0.00865289
v 0.07360430 0.02003898 -0.00475516
v 0.06876653 0.03957908 -0.02338270
v 0.07352742 0.02826354 -0.01166069
v 0.07433555 0.03328560 -0.04709704
v 0.07919875 0.00769893 -0.04927349
v 0.07344154 0.02691718 -0.00839760
v 0.06683978 0.03931596 -0.00367937
v 0.05338348 0.04737301 -0.04779334
v 0.07830499 0.01711699 -0.04400057
v 0.07820807 0.00089134 -0.03069812
v 0.07753076 0.02259119 -0.04385339
v 0.07420310 0.00079736 -0.00362041
v 0.07093043 0.03298775 -0.00373642
v 0.07695949 0.02578779 -0.04760145
v 0.06711464 0.04112486 -0.02205382
v 0.06797418 0.03802288 -0.00361702
v 0.07088587 0.03188692 -0.00035553
v 0.07342901 0.03362478 -0.03263179
v 0.05093936 0.04668320 -0.00665545
v 0.07508736 0.01489280 -0.01198737
v 0.07358137 0.02621459 -0.00856844
v 0.07664227 0.02361404 -0.03422752
v 0.07416214 0.00889657 -0.00421930
v 0.07612270 0.01681303 -0.01946868
v 0.05428505 0.04706253 -0.01721001
v 0.07601133 0.02078740 -0.02154554
v 0.06064789 0.04473807 -0.01138066
v 0.07696142 0.02278268 -0.03612553
v 0.07004205 0.03389384 -0.00035576
v 0.07657851 0.02641014 -0.04209929
v 0.07312047 0.01777805 -0.00042262
v 0.07915741 0.00701676 -0.04776349
v 0.05656042 0.04661970 -0.02208993
v 0.07381742 0.02737722 -0.01211399
v 0.07203565 0.03195012 -0.00960363
v 0.06828074 0.04111105 -0.04229791
v 0.05774258 0.04605166 -0.01416966
v 0.06885881 0.03923337 -0.02040362
v 0.07350665 0.03445898 -0.04139861
v 0.06442095 0.04155962 -0.00362682
v 0.07149698 0.03480462 -0.01688930
v 0.05029737 0.04651659 -0.00553877
v 0.05017901 0.04772287 -0.01542752
v 0.05968039 0.04497325 -0.00948746
v 0.07522414 0.00001548 -0.01022148
v 0.07408774 0.02161993 -0.00878475
v 0.06611235 0.04082817 -0.00990988
v 0.07494693 0.02346025 -0.01567403
v 0.07704516 0.01296252 -0.02412466
v 0.05888129 0.04555236 -0.01268802
v 0.07847539 0.01502205 -0.04361227
v 0.06214167 0.04488931 -0.04894559
v 0.07037381 0.03825035 -0.02957846
v 0.06294069 0.04412104 -0.02226031
v 0.05395658 0.04745061 -0.03763571
v 0.07761320 0.00711766 -0.02636350
v 0.07422728 0.02854863 -0.02001385
v 0.05209859 0.04775125 -0.03829753
v 0.07170997 0.03762073 -0.04954620
v 0.05694751 0.04623262 -0.01308571
v 0.05917081 0.04586434 -0.02286173
v 0.07712868 0.00957859 -0.02365879
v 0.07043997 0.03909926 -0.04973722
v 0.07798654 0.01090773 -0.03201029
v 0.07865093 0.01216315 -0.04251133
v 0.06378391 0.04411714 -0.04905753
v 0.05879150 0.04598076 -0.02223373
v 0.07673693 0.02676901 -0.04771423
v 0.07033436 0.03843484 -0.03089716
v 0.07026409 0.03395184 -0.00195168
v 0.06228191 0.04445933 -0.02180309
v 0.05915649 0.04463072 -0.00340074
v 0.07316302 0.02893678 -0.01004432
v 0.06807329 0.04018792 -0.02208542
v 0.06984310 0.03820363 -0.02200499
v 0.06163200 0.04336112 -0.00280305
v 0.07874273 0.00911910 -0.04114140
v 0.06025588 0.04368802 -0.00062213
v 0.07688621 0.02624290 -0.04850347
v 0.05809207 0.04645560 -0.03955000
v 0.06533103 0.04323476 -0.03594301
v 0.05545502 0.04639666 -0.00950733
v 0.06391640 0.04380215 -0.02744883
v 0.07211391 0.03674793 -0.04134598
v 0.06146317 0.04492957 -0.02216568
v 0.07335709 0.03353706 -0.03134221
v 0.05272167 0.04518975 -0.00091618
v 0.06209378 0.04314071 -0.00315081
v 0.07221085 0.03671186 -0.04264185
v 0.07766911 0.00364373 -0.02623913
v 0.06865217 0.03772225 -0.00732386
v 0.07717878 0.00001586 -0.02291481
v 0.07780760 0.02234018 -0.04991345
v 0.07878733 0.01166027 -0.04387387
v 0.07639705 0.01738363 -0.02170452
v 0.07425332 0.01488064 -0.00657720
v 0.07033429 0.03912869 -0.04284588
v 0.07415653 0.00040308 -0.00329336
v 0.07593105 0.01171731 -0.01643033
v 0.05129643 0.04743916 -0.01254017
v 0.06023755 0.04439734 -0.00539903
v 0.06744312 0.04185626 -0.04848191
v 0.06623194 0.04206426 -0.02400866
v 0.07730228 0.01237016 -0.02594224
v 0.05400378 0.04724543 -0.02195383
v 0.05479130 0.04580086 -0.00445627
v 0.05258696 0.04740308 -0.01833405
f 564 464 139
f 564 139 672
f 256 139 464
f 435 384 464
f 24 672 139
f 139 256 24
f 372 848 464
f 543 435 464
f 384 435 837
f 435 324 837
f 492 51 749
f 51 592 292
f 672 390 843
f 843 349 672
f 688 372 464
f 464 848 762
f 762 543 464
f 435 543 762
f 832 578 208
f 208 856 832
f 323 397 808
f 616 397 385
f 656 616 385
f 808 397 610
f 745 379 231
f 242 358 231
f 671 358 242
f 457 175 828
f 457 435 307
f 307 242 457
f 240 795 167
f 564 672 8
f 672 349 8
f 629 592 51
f 51 492 629
f 629 492 592
f 294 319 538
f 599 358 671
f 240 167 165
f 389 57 563
f 59 634 109
f 767 779 307
f 286 390 298
f 372 688 512
f 373 431 458
f 643 586 435
f 656 792 198
f 792 394 198
f 158 394 769
f 769 394 792
f 595 208 158
f 856 208 595
f 158 208 511
f 24 323 166
f 166 323 808
f 628 32 443
f 256 385 67
f 67 385 397
f 67 24 256
f 397 323 67
f 67 323 24
f 824 731 293
f 824 471 731
f 731 471 698
f 107 71 480
f 231 790 738
f 738 107 480
f 790 107 738
f 231 379 234
f 234 790 231
f 712 242 544
f 549 697 822
f 655 697 549
f 822 662 549
f 497 655 832
f 497 697 655
f 822 697 270
f 270 662 822
f 851 662 175
f 851 418 777
f 246 242 712
f 246 457 242
f 480 71 437
f 777 418 203
f 777 203 721
f 687 170 197
f 197 170 856
f 837 687 197
f 591 457 828
f 591 270 170
f 591 324 435
f 435 457 591
f 82 81 41
f 41 167 82
f 82 464 564
f 82 795 464
f 82 167 795
f 689 25 109
f 689 137 25
f 109 634 147
f 666 8 755
f 755 8 349
f 760 183 472
f 472 183 320
f 472 582 760
f 296 183 760
f 296 514 183
f 843 555 444
f 761 538 338
f 307 779 651
f 94 242 307
f 671 242 94
f 508 165 329
f 681 165 167
f 681 582 165
f 760 582 681
f 681 167 41
f 806 458 541
f 806 742 320
f 368 663 625
f 368 767 307
f 307 435 368
f 435 586 368
f 586 278 368
f 347 563 57
f 625 663 1
f 625 304 438
f 589 52 389
f 634 59 500
f 59 52 500
f 559 412 392
f 392 334 559
f 781 278 392
f 586 334 392
f 392 278 586
f 10 61 436
f 436 382 10
f 289 594 10
f 494 298 498
f 735 813 286
f 286 298 735
f 813 735 327
f 731 698 327
f 311 361 455
f 725 538 319
f 277 319 294
f 768 409 619
f 842 512 688
f 812 458 431
f 320 183 365
f 255 614 586
f 586 643 255
f 378 198 194
f 158 511 194
f 194 394 158
f 194 198 394
f 124 595 268
f 144 769 792
f 158 769 144
f 144 595 158
f 477 166 758
f 672 24 477
f 24 166 477
f 34 390 672
f 832 655 121
f 121 661 832
f 777 201 489
f 805 669 579
f 793 397 616
f 616 362 793
f 793 362 397
f 576 362 616
f 632 407 15
f 18 443 440
f 440 443 32
f 397 362 509
f 752 698 471
f 471 11 752
f 110 698 653
f 474 630 653
f 293 107 342
f 342 107 790
f 379 745 375
f 745 58 375
f 712 544 640
f 856 170 463
f 463 270 856
f 170 270 463
f 697 497 583
f 583 270 697
f 856 270 583
f 832 856 583
f 583 497 832
f 482 549 353
f 353 549 662
f 175 457 826
f 457 437 826
f 826 851 175
f 457 246 80
f 80 437 457
f 480 437 80
f 80 640 480
f 503 437 161
f 503 125 851
f 350 437 71
f 350 721 161
f 161 437 350
f 381 201 777
f 777 721 381
f 384 837 554
f 837 197 554
f 324 591 312
f 312 591 170
f 384 152 88
f 464 384 88
f 88 256 464
f 88 385 256
f 88 792 656
f 656 385 88
f 268 152 356
f 356 152 384
f 214 81 269
f 214 98 81
f 269 126 214
f 214 126 367
f 214 367 377
f 41 81 84
f 81 98 84
f 363 78 454
f 377 367 399
f 377 399 684
f 109 25 542
f 542 12 109
f 109 12 27
f 66 542 25
f 12 542 66
f 7 147 634
f 373 458 799
f 262 490 454
f 109 605 39
f 39 490 109
f 454 490 523
f 274 399 367
f 609 31 349
f 538 761 190
f 338 551 117
f 261 315 843
f 79 761 338
f 403 94 599
f 403 599 671
f 671 94 403
f 358 599 479
f 599 220 479
f 231 358 479
f 479 220 231
f 757 745 231
f 231 220 757
f 766 757 220
f 766 220 599
f 599 841 766
f 690 508 329
f 473 472 320
f 127 458 429
f 458 806 429
f 742 806 285
f 285 145 840
f 285 473 320
f 840 690 285
f 285 690 329
f 726 806 320
f 325 138 614
f 614 255 325
f 840 65 335
f 562 767 275
f 767 368 275
f 275 368 625
f 625 438 275
f 275 396 562
f 275 438 304
f 23 624 563
f 171 347 57
f 389 52 156
f 52 493 156
f 675 412 559
f 675 741 412
f 100 46 632
f 100 516 46
f 201 381 226
f 226 71 668
f 226 350 71
f 721 350 226
f 226 381 721
f 140 436 61
f 140 531 731
f 61 531 140
f 10 594 831
f 831 602 10
f 10 330 713
f 713 289 10
f 577 289 632
f 594 289 577
f 577 196 594
f 415 494 498
f 298 494 366
f 366 735 298
f 720 417 346
f 720 698 417
f 382 436 786
f 455 361 172
f 172 361 465
f 361 311 469
f 718 59 109
f 776 52 718
f 718 52 59
f 338 538 621
f 538 725 621
f 778 725 319
f 565 809 813
f 813 327 565
f 565 720 346
f 56 619 409
f 613 779 820
f 820 273 613
f 613 651 779
f 679 630 768
f 768 53 679
f 53 611 679
f 653 630 702
f 702 679 252
f 630 679 702
f 653 405 803
f 803 405 825
f 512 842 388
f 388 842 240
f 240 165 388
f 165 508 388
f 435 762 188
f 188 267 435
f 60 637 151
f 151 431 373
f 849 637 60
f 541 458 428
f 458 812 428
f 414 272 814
f 586 614 627
f 856 595 297
f 595 124 297
f 297 197 856
f 297 124 384
f 266 477 758
f 661 121 810
f 6 578 832
f 340 816 407
f 390 816 162
f 162 516 498
f 46 516 162
f 162 298 390
f 498 298 162
f 816 340 162
f 390 802 301
f 301 32 628
f 301 802 32
f 632 15 607
f 607 122 632
f 669 529 830
f 48 830 529
f 588 529 669
f 669 805 588
f 653 698 819
f 819 752 11
f 819 405 653
f 653 417 173
f 173 110 653
f 417 698 642
f 698 110 642
f 525 601 825
f 525 186 601
f 645 186 525
f 788 43 13
f 43 841 13
f 321 654 645
f 321 525 841
f 645 525 321
f 630 474 339
f 603 251 788
f 788 11 603
f 603 11 471
f 471 824 603
f 788 251 714
f 253 375 714
f 714 375 58
f 480 640 249
f 249 640 544
f 122 607 617
f 617 607 628
f 628 443 617
f 418 851 264
f 851 125 264
f 50 353 662
f 851 826 838
f 838 503 851
f 838 826 437
f 437 503 838
f 324 312 160
f 160 312 170
f 270 290 528
f 662 270 528
f 828 175 528
f 175 662 528
f 180 591 828
f 828 290 180
f 270 591 449
f 449 290 270
f 591 180 449
f 449 180 290
f 384 124 237
f 237 356 384
f 279 124 268
f 268 356 279
f 78 363 2
f 68 363 454
f 454 523 68
f 68 523 189
f 25 137 550
f 137 78 623
f 78 2 623
f 377 684 623
f 272 827 623
f 623 2 814
f 814 272 623
f 315 261 345
f 76 684 399
f 109 27 422
f 604 551 338
f 604 66 551
f 563 624 105
f 624 7 105
f 52 589 105
f 389 563 105
f 105 589 389
f 147 7 250
f 250 605 109
f 109 147 250
f 109 490 243
f 490 262 243
f 854 523 490
f 490 118 854
f 854 118 115
f 189 523 91
f 782 274 367
f 666 755 496
f 496 782 666
f 274 782 496
f 130 827 183
f 377 623 130
f 130 623 827
f 183 827 211
f 211 827 272
f 272 414 211
f 211 414 365
f 211 365 183
f 514 545 248
f 248 545 41
f 31 609 560
f 560 76 399
f 676 609 349
f 349 843 676
f 843 315 676
f 829 444 555
f 843 444 700
f 338 117 590
f 590 79 338
f 843 79 590
f 561 261 843
f 843 590 561
f 566 396 206
f 820 763 306
f 396 566 575
f 575 566 763
f 575 763 820
f 750 841 43
f 750 766 841
f 329 165 352
f 165 582 352
f 383 65 840
f 840 145 383
f 742 285 524
f 473 285 258
f 258 285 329
f 258 352 582
f 189 726 547
f 320 365 547
f 547 726 320
f 567 643 435
f 567 255 643
f 435 267 567
f 773 627 614
f 773 510 181
f 724 335 848
f 840 335 724
f 460 762 848
f 848 335 460
f 536 386 796
f 796 751 536
f 505 7 612
f 612 7 624
f 174 57 389
f 389 156 174
f 412 741 846
f 741 650 846
f 505 159 486
f 530 577 632
f 196 577 530
f 668 71 502
f 502 107 293
f 71 107 502
f 73 487 108
f 835 574 26
f 804 574 835
f 122 617 835
f 835 617 443
f 734 831 73
f 695 61 10
f 10 602 695
f 680 502 293
f 539 415 330
f 494 415 539
f 330 507 539
f 366 507 657
f 382 735 657
f 735 366 657
f 657 507 330
f 657 330 10
f 10 382 657
f 852 366 494
f 852 507 366
f 421 327 735
f 421 735 382
f 382 786 421
f 731 327 518
f 518 140 731
f 327 421 518
f 518 421 786
f 436 140 518
f 518 786 436
f 206 728 280
f 663 368 182
f 182 1 663
f 453 52 776
f 798 493 52
f 768 469 732
f 732 469 311
f 28 310 212
f 361 469 295
f 784 398 154
f 455 685 519
f 519 706 455
f 5 565 346
f 809 565 5
f 847 565 327
f 720 565 847
f 847 327 698
f 698 720 847
f 346 417 176
f 176 417 653
f 404 28 749
f 404 310 28
f 719 53 768
f 768 468 719
f 768 619 146
f 146 468 768
f 153 841 599
f 599 216 153
f 153 321 841
f 153 216 654
f 654 321 153
f 326 227 654
f 326 216 17
f 654 216 326
f 361 295 597
f 664 230 599
f 348 216 599
f 599 230 348
f 17 216 348
f 348 230 17
f 534 273 307
f 534 613 273
f 307 651 534
f 651 613 534
f 235 102 717
f 717 339 235
f 630 339 717
f 252 679 678
f 678 679 611
f 633 474 653
f 653 803 633
f 431 151 708
f 708 151 637
f 787 810 72
f 72 810 121
f 72 121 655
f 655 549 72
f 72 549 482
f 661 810 74
f 787 185 74
f 74 810 787
f 740 443 18
f 740 521 443
f 740 192 521
f 805 683 106
f 106 588 805
f 855 775 660
f 254 670 661
f 254 775 670
f 661 74 254
f 254 74 185
f 391 6 832
f 701 283 585
f 378 194 585
f 194 701 585
f 656 198 585
f 585 198 378
f 6 391 411
f 670 775 411
f 38 407 632
f 38 340 407
f 632 46 38
f 466 303 705
f 390 34 287
f 287 802 390
f 34 466 287
f 287 466 705
f 119 740 18
f 119 830 185
f 556 466 733
f 733 466 34
f 185 830 557
f 830 48 557
f 48 727 557
f 808 610 587
f 587 106 808
f 588 106 587
f 698 752 552
f 552 819 698
f 752 819 552
f 825 11 682
f 235 339 791
f 601 302 9
f 825 601 9
f 9 803 825
f 476 43 788
f 788 714 476
f 253 714 63
f 63 714 251
f 662 851 546
f 546 50 662
f 324 160 425
f 425 160 170
f 406 290 828
f 828 528 406
f 406 528 290
f 441 623 132
f 376 623 441
f 376 550 137
f 137 623 376
f 684 76 844
f 16 513 844
f 844 513 684
f 164 609 87
f 87 844 164
f 164 844 76
f 77 27 12
f 12 70 77
f 357 718 109
f 109 422 357
f 481 500 52
f 52 105 481
f 481 105 7
f 33 331 135
f 135 408 33
f 33 408 373
f 373 799 33
f 33 799 115
f 115 118 33
f 33 118 605
f 605 250 33
f 450 91 458
f 450 458 127
f 127 429 450
f 450 429 806
f 183 514 413
f 514 248 413
f 41 84 142
f 142 248 41
f 558 560 399
f 87 609 134
f 609 676 134
f 658 676 315
f 764 829 674
f 444 829 764
f 593 700 190
f 843 700 593
f 593 190 761
f 83 306 763
f 562 396 354
f 396 575 354
f 354 767 562
f 206 396 309
f 715 807 455
f 455 172 715
f 715 172 465
f 320 742 55
f 742 524 55
f 55 285 320
f 55 524 285
f 329 352 649
f 649 258 329
f 352 258 649
f 42 325 255
f 255 567 42
f 36 773 181
f 627 773 36
f 396 275 245
f 245 275 304
f 304 344 710
f 271 639 225
f 784 753 225
f 225 753 271
f 171 716 506
f 347 171 506
f 774 159 505
f 135 336 638
f 598 336 135
f 387 64 331
f 331 33 387
f 387 7 505
f 387 250 7
f 387 33 250
f 159 846 221
f 221 846 650
f 221 486 159
f 85 530 73
f 196 530 85
f 594 196 85
f 73 831 85
f 85 831 594
f 26 73 445
f 73 530 445
f 445 835 26
f 122 835 445
f 632 122 445
f 445 530 632
f 380 502 226
f 26 574 608
f 608 73 26
f 226 108 317
f 804 835 317
f 317 835 821
f 179 835 521
f 821 835 120
f 835 179 120
f 226 317 120
f 120 317 821
f 443 521 401
f 401 835 443
f 521 835 401
f 73 108 743
f 743 734 73
f 465 361 573
f 573 280 465
f 465 280 29
f 29 280 271
f 29 715 465
f 271 280 475
f 475 639 271
f 360 280 728
f 360 475 280
f 360 309 396
f 396 245 360
f 360 245 639
f 639 475 360
f 206 280 423
f 423 280 785
f 423 566 206
f 131 182 659
f 659 386 131
f 131 157 182
f 131 386 536
f 131 156 493
f 131 174 156
f 493 798 131
f 798 157 131
f 111 453 704
f 111 398 218
f 218 453 111
f 704 453 646
f 776 718 646
f 646 718 155
f 52 453 483
f 446 453 218
f 218 798 446
f 446 483 453
f 446 798 52
f 52 483 446
f 625 400 644
f 644 304 625
f 644 344 304
f 141 398 784
f 218 398 548
f 398 141 548
f 548 141 410
f 3 143 768
f 768 732 3
f 28 212 686
f 836 469 768
f 768 295 836
f 836 295 469
f 580 295 768
f 580 597 295
f 768 630 580
f 504 818 592
f 592 215 504
f 504 674 818
f 504 764 674
f 592 492 696
f 696 492 749
f 749 28 696
f 294 504 746
f 746 504 215
f 685 398 467
f 467 519 685
f 455 154 553
f 553 154 398
f 553 685 455
f 553 398 685
f 744 176 618
f 618 176 439
f 653 213 322
f 322 176 653
f 809 54 40
f 40 54 202
f 813 809 40
f 286 813 40
f 40 390 286
f 40 843 390
f 839 257 202
f 592 555 522
f 522 292 592
f 51 292 522
f 462 404 749
f 419 227 691
f 691 280 419
f 654 227 419
f 280 573 419
f 419 791 654
f 361 597 419
f 419 573 361
f 419 597 102
f 419 102 235
f 235 791 419
f 259 664 273
f 230 664 259
f 17 230 259
f 259 273 820
f 820 306 259
f 259 306 17
f 630 717 470
f 470 717 102
f 470 580 630
f 431 708 433
f 433 510 431
f 181 510 433
f 637 849 44
f 849 228 44
f 288 228 849
f 334 228 288
f 559 334 288
f 337 283 701
f 578 283 337
f 337 208 578
f 337 511 208
f 787 72 193
f 777 489 22
f 192 740 631
f 430 106 683
f 430 166 808
f 808 106 430
f 178 341 205
f 95 34 672
f 747 205 341
f 747 683 805
f 758 209 737
f 737 266 758
f 209 747 737
f 200 855 517
f 517 855 660
f 529 588 517
f 517 48 529
f 517 727 48
f 420 855 200
f 101 855 420
f 660 775 729
f 775 254 729
f 729 615 660
f 729 254 615
f 783 254 185
f 615 254 783
f 783 185 660
f 660 615 783
f 578 6 535
f 661 670 103
f 670 411 103
f 103 411 391
f 832 661 103
f 103 391 832
f 527 733 830
f 830 119 527
f 18 440 515
f 515 119 18
f 133 588 236
f 588 587 236
f 526 525 825
f 825 682 526
f 219 11 788
f 219 682 11
f 302 572 128
f 803 9 128
f 128 572 339
f 128 339 474
f 474 633 128
f 128 633 803
f 765 824 293
f 293 308 765
f 765 308 824
f 217 603 824
f 824 308 217
f 187 308 293
f 263 132 623
f 263 623 684
f 748 801 16
f 229 136 16
f 16 801 229
f 155 718 622
f 718 357 622
f 299 314 338
f 313 604 338
f 338 314 313
f 500 481 845
f 845 481 7
f 4 450 806
f 4 726 189
f 806 726 4
f 189 91 4
f 91 450 4
f 31 560 606
f 560 558 606
f 306 83 665
f 785 280 665
f 665 280 691
f 271 753 823
f 823 753 807
f 807 715 823
f 823 29 271
f 715 29 823
f 784 154 184
f 184 753 784
f 807 753 184
f 455 807 184
f 184 154 455
f 541 652 19
f 19 806 541
f 19 652 736
f 19 285 806
f 145 285 19
f 19 325 145
f 736 773 19
f 138 325 19
f 614 138 19
f 19 773 614
f 639 245 177
f 300 710 344
f 1 92 300
f 300 400 625
f 625 1 300
f 402 97 410
f 416 225 639
f 639 177 416
f 416 177 710
f 710 402 416
f 716 318 207
f 207 318 369
f 624 23 707
f 369 318 21
f 21 278 781
f 169 675 559
f 135 331 537
f 537 598 135
f 426 456 741
f 64 456 426
f 331 64 426
f 741 456 569
f 424 226 668
f 424 380 226
f 668 502 424
f 502 380 424
f 833 487 73
f 73 608 833
f 114 489 201
f 114 120 489
f 201 226 114
f 226 120 114
f 489 120 442
f 442 120 179
f 442 495 489
f 734 743 281
f 281 695 734
f 281 677 695
f 61 695 620
f 695 677 620
f 673 364 680
f 673 680 293
f 293 731 673
f 731 531 673
f 434 108 226
f 434 743 108
f 150 157 798
f 150 798 218
f 14 97 218
f 410 97 14
f 218 548 14
f 14 548 410
f 182 157 723
f 157 97 723
f 626 111 704
f 398 111 626
f 568 453 776
f 776 646 568
f 568 646 453
f 570 686 212
f 570 212 768
f 768 143 570
f 739 215 592
f 592 696 739
f 739 696 215
f 706 199 104
f 104 199 215
f 104 311 455
f 455 706 104
f 69 277 294
f 294 746 69
f 780 746 215
f 778 491 484
f 484 491 600
f 484 299 725
f 725 778 484
f 704 70 484
f 484 70 12
f 398 600 96
f 96 467 398
f 600 491 96
f 467 96 45
f 149 5 346
f 346 176 149
f 176 744 149
f 692 213 653
f 202 54 238
f 618 439 478
f 478 839 618
f 439 692 478
f 478 692 711
f 619 754 447
f 754 291 447
f 447 20 619
f 257 20 485
f 202 257 485
f 485 291 202
f 485 447 291
f 20 447 485
f 257 839 722
f 452 40 202
f 452 522 555
f 452 555 843
f 843 40 452
f 284 754 619
f 619 56 284
f 777 22 305
f 800 72 482
f 800 22 193
f 800 193 72
f 260 185 787
f 787 532 260
f 35 631 185
f 185 260 35
f 488 119 185
f 185 631 488
f 740 119 488
f 488 631 740
f 210 805 579
f 830 205 210
f 210 747 805
f 205 747 210
f 579 669 210
f 669 830 210
f 34 95 359
f 113 359 276
f 276 359 95
f 178 205 276
f 699 747 209
f 683 747 699
f 775 855 223
f 855 195 223
f 223 411 775
f 223 195 411
f 362 411 857
f 411 195 857
f 857 195 855
f 857 855 101
f 200 517 533
f 533 588 133
f 533 517 588
f 585 535 850
f 6 411 850
f 850 535 6
f 850 576 616
f 362 576 850
f 850 411 362
f 850 616 656
f 656 585 850
f 163 30 440
f 163 440 32
f 303 30 163
f 705 303 163
f 556 733 351
f 733 527 351
f 667 527 119
f 343 9 302
f 302 128 343
f 343 128 9
f 797 234 379
f 16 136 815
f 374 316 709
f 374 709 345
f 374 345 261
f 759 116 658
f 759 658 709
f 25 49 759
f 759 66 25
f 49 801 759
f 709 316 759
f 801 748 759
f 759 316 551
f 551 66 759
f 676 658 328
f 658 116 328
f 37 665 691
f 306 665 37
f 304 710 584
f 710 177 584
f 584 245 304
f 584 177 245
f 710 300 222
f 448 402 410
f 448 93 402
f 784 225 448
f 225 93 448
f 148 506 716
f 716 207 148
f 505 612 694
f 694 774 505
f 278 21 432
f 432 21 318
f 432 368 278
f 432 318 224
f 432 182 368
f 224 751 432
f 751 796 432
f 62 169 638
f 62 638 336
f 675 169 62
f 770 650 741
f 741 569 770
f 459 281 743
f 743 89 459
f 459 89 680
f 680 364 459
f 853 673 531
f 364 673 853
f 635 434 226
f 226 502 635
f 502 680 635
f 90 97 157
f 157 150 90
f 218 97 90
f 90 150 218
f 182 723 332
f 332 300 92
f 332 222 300
f 311 104 648
f 636 696 28
f 581 247 491
f 491 247 772
f 772 96 491
f 772 45 96
f 571 581 129
f 247 581 571
f 215 199 571
f 571 780 215
f 704 484 596
f 596 484 600
f 596 600 398
f 596 626 704
f 398 626 596
f 299 484 730
f 519 467 233
f 467 45 233
f 99 692 653
f 711 692 99
f 618 839 112
f 839 478 834
f 834 722 839
f 789 719 468
f 468 20 789
f 789 20 257
f 257 722 789
f 754 522 451
f 522 452 451
f 451 452 202
f 202 291 451
f 451 291 754
f 754 284 204
f 204 284 462
f 404 462 427
f 462 284 427
f 794 305 22
f 794 800 482
f 22 800 794
f 489 495 239
f 168 532 787
f 787 193 168
f 817 35 260
f 113 276 371
f 371 276 205
f 499 101 509
f 499 857 101
f 499 509 362
f 362 857 499
f 647 667 119
f 647 515 440
f 119 515 647
f 370 187 293
f 234 797 370
f 293 342 370
f 790 234 370
f 370 342 790
f 232 815 540
f 16 815 232
f 232 513 16
f 232 540 132
f 132 263 232
f 684 513 232
f 232 263 684
f 225 416 461
f 461 93 225
f 393 707 23
f 265 703 774
f 774 694 265
f 265 21 703
f 369 21 265
f 265 393 369
f 707 393 265
f 182 332 520
f 520 332 92
f 1 182 520
f 520 92 1
f 756 402 710
f 222 332 756
f 97 402 756
f 28 648 501
f 501 648 104
f 501 636 28
f 75 571 129
f 780 571 75
f 314 299 641
f 299 730 641
f 238 112 282
f 282 112 839
f 282 839 202
f 202 238 282
f 47 834 611
f 47 611 53
f 693 239 333
f 489 239 693
f 191 333 532
f 532 168 191
f 97 756 771
f 771 756 332
f 771 723 97
f 771 332 723
f 722 834 241
f 834 47 241
f 123 179 521
f 123 355 333
f 192 811 395
f 521 192 395
f 333 355 395
f 811 817 395
f 532 333 395
f 395 260 532
f 395 817 260
f 179 123 86
f 333 239 86
f 86 123 333
f 521 395 244
f 244 395 355
f 464 795 842
f 842 795 240
f 842 688 464
f 712 640 80
f 80 246 712
f 268 595 88
f 88 144 792
f 88 152 268
f 595 144 88
f 490 39 118
f 118 39 605
f 514 296 545
f 545 681 41
f 760 681 545
f 545 296 760
f 415 713 330
f 632 289 415
f 498 516 415
f 415 100 632
f 516 100 415
f 289 713 415
f 384 554 297
f 297 554 197
f 390 301 607
f 607 816 390
f 607 15 407
f 407 816 607
f 607 301 628
f 825 405 819
f 819 11 825
f 110 173 642
f 642 173 417
f 249 242 231
f 249 738 480
f 231 738 249
f 249 544 242
f 264 203 418
f 161 721 264
f 264 721 203
f 264 503 161
f 125 503 264
f 356 237 279
f 279 237 124
f 243 689 109
f 454 78 243
f 137 689 243
f 243 78 137
f 243 262 454
f 91 799 458
f 91 854 115
f 115 799 91
f 523 854 91
f 564 8 782
f 782 82 564
f 269 81 782
f 782 8 666
f 782 126 269
f 81 82 782
f 367 126 782
f 829 555 592
f 592 818 829
f 818 674 829
f 582 472 258
f 472 473 258
f 547 68 189
f 547 414 814
f 814 2 547
f 365 414 547
f 547 2 363
f 363 68 547
f 724 690 840
f 372 512 724
f 512 388 724
f 848 372 724
f 508 690 724
f 724 388 508
f 831 734 695
f 602 831 695
f 852 539 507
f 494 539 852
f 599 94 664
f 664 94 307
f 307 273 664
f 38 162 340
f 46 162 38
f 601 186 572
f 572 302 601
f 572 186 645
f 645 654 572
f 654 791 572
f 572 791 339
f 745 757 476
f 476 58 745
f 757 766 476
f 476 714 58
f 476 750 43
f 766 750 476
f 425 687 837
f 425 837 324
f 425 170 687
f 76 560 164
f 164 560 609
f 142 214 377
f 377 130 142
f 98 214 142
f 142 84 98
f 142 130 183
f 183 413 142
f 142 413 248
f 345 709 658
f 315 345 658
f 761 79 593
f 593 79 843
f 779 767 354
f 820 779 354
f 354 575 820
f 762 460 42
f 145 325 42
f 65 383 42
f 42 567 267
f 42 188 762
f 42 335 65
f 267 188 42
f 42 383 145
f 42 460 335
f 541 428 652
f 652 773 736
f 652 812 431
f 431 510 652
f 652 428 812
f 510 773 652
f 206 309 360
f 360 728 206
f 131 716 171
f 131 751 224
f 57 174 131
f 536 751 131
f 131 171 57
f 224 318 131
f 131 318 716
f 538 190 504
f 294 538 504
f 504 700 444
f 190 700 504
f 444 764 504
f 468 146 20
f 20 146 619
f 102 597 470
f 597 580 470
f 44 334 586
f 586 627 44
f 44 708 637
f 181 433 44
f 44 228 334
f 44 36 181
f 44 433 708
f 627 36 44
f 337 701 194
f 337 194 511
f 185 557 517
f 660 185 517
f 517 557 727
f 535 585 283
f 535 283 578
f 841 525 219
f 788 13 219
f 219 13 841
f 525 526 219
f 219 526 682
f 622 70 704
f 704 646 622
f 27 77 622
f 622 422 27
f 622 77 70
f 622 357 422
f 622 646 155
f 299 621 725
f 338 621 299
f 845 7 634
f 634 500 845
f 349 31 606
f 606 755 349
f 606 496 755
f 399 274 606
f 274 496 606
f 606 558 399
f 763 566 665
f 566 423 665
f 665 423 785
f 665 83 763
f 344 644 300
f 300 644 400
f 781 392 21
f 412 846 21
f 21 392 412
f 159 774 21
f 21 846 159
f 774 703 21
f 169 151 373
f 559 288 169
f 373 408 169
f 60 151 169
f 169 849 60
f 169 408 135
f 135 638 169
f 169 288 849
f 804 317 833
f 833 574 804
f 833 108 487
f 833 608 574
f 833 317 108
f 692 439 176
f 692 322 213
f 176 322 692
f 477 266 276
f 672 477 276
f 276 341 178
f 266 737 276
f 276 95 672
f 276 737 747
f 276 747 341
f 758 166 699
f 166 430 699
f 699 209 758
f 699 430 683
f 397 509 533
f 533 610 397
f 533 587 610
f 133 236 533
f 509 101 533
f 533 420 200
f 101 420 533
f 533 236 587
f 802 287 163
f 32 802 163
f 163 287 705
f 815 49 25
f 25 550 815
f 441 132 815
f 815 376 441
f 136 229 815
f 550 376 815
f 815 801 49
f 132 540 815
f 815 229 801
f 261 561 374
f 374 117 551
f 374 561 590
f 374 590 117
f 551 316 374
f 87 134 328
f 328 844 87
f 328 748 16
f 16 844 328
f 328 134 676
f 328 759 748
f 116 759 328
f 17 306 37
f 691 227 37
f 37 326 17
f 227 326 37
f 410 141 448
f 448 141 784
f 432 386 659
f 432 796 386
f 659 182 432
f 62 537 331
f 62 426 741
f 741 675 62
f 336 598 62
f 598 537 62
f 331 426 62
f 505 486 770
f 770 221 650
f 770 387 505
f 770 456 64
f 64 387 770
f 486 221 770
f 770 569 456
f 61 620 853
f 853 531 61
f 677 281 853
f 853 459 364
f 853 620 677
f 281 459 853
f 680 89 635
f 635 89 743
f 743 434 635
f 143 3 648
f 648 570 143
f 648 732 311
f 648 3 732
f 28 686 648
f 686 570 648
f 233 199 706
f 706 519 233
f 45 772 233
f 233 772 247
f 233 571 199
f 247 571 233
f 112 54 809
f 809 5 112
f 5 149 112
f 112 744 618
f 112 149 744
f 112 238 54
f 834 99 653
f 653 702 834
f 252 678 834
f 834 702 252
f 834 678 611
f 834 478 711
f 711 99 834
f 204 522 754
f 749 51 204
f 51 522 204
f 204 462 749
f 427 56 409
f 427 409 768
f 768 212 427
f 427 212 310
f 310 404 427
f 427 284 56
f 794 851 777
f 794 546 851
f 482 353 794
f 353 50 794
f 50 546 794
f 777 305 794
f 192 631 817
f 817 811 192
f 631 35 817
f 371 205 830
f 371 733 34
f 830 733 371
f 34 359 371
f 371 359 113
f 303 466 647
f 440 30 647
f 647 466 556
f 527 667 647
f 556 351 647
f 647 30 303
f 647 351 527
f 370 375 253
f 379 375 370
f 603 217 370
f 251 603 370
f 253 63 370
f 370 63 251
f 370 217 308
f 308 187 370
f 370 797 379
f 402 93 461
f 461 416 402
f 393 23 563
f 563 347 393
f 347 506 393
f 506 148 393
f 393 207 369
f 393 148 207
f 265 612 624
f 624 707 265
f 265 694 612
f 710 222 756
f 501 104 215
f 215 696 501
f 696 636 501
f 75 778 319
f 319 277 75
f 129 581 75
f 277 69 75
f 75 491 778
f 75 69 746
f 746 780 75
f 75 581 491
f 641 313 314
f 12 66 641
f 604 313 641
f 66 604 641
f 641 484 12
f 641 730 484
f 191 22 489
f 489 693 191
f 191 168 193
f 193 22 191
f 191 693 333
f 241 47 53
f 53 719 241
f 719 789 241
f 241 789 722
f 86 239 495
f 86 442 179
f 495 442 86
f 355 123 244
f 244 123 521

