# https://github.com/mikedh/trimesh
v -0.03618333 -0.01799245 -0.05197178
v -0.00867913 -0.03573014 -0.08106584
v -0.02049532 -0.03553003 -0.08837694
v -0.01734699 -0.00024783 -0.05132516
v -0.00005487 -0.03550774 -0.07117192
v -0.03593734 -0.03185353 -0.06977468
v -0.01392162 -0.03484720 -0.05003206
v -0.00479274 -0.03578281 -0.09949188
v -0.01892282 -0.03397994 -0.05021199
v -0.03625617 -0.02654293 -0.05384859
v -0.01037872 -0.03547178 -0.06138871
v -0.01486323 -0.03565841 -0.08382651
v -0.03514690 -0.02981868 -0.05255048
v -0.00175254 -0.03575227 -0.09982431
v -0.00095743 -0.03540871 -0.06046749
v -0.03285231 -0.01664144 -0.09949622
v -0.03592997 -0.03191049 -0.07009613
v -0.03421956 -0.03300613 -0.08690014
v -0.00879785 -0.03574501 -0.08287692
v -0.00869003 -0.03523216 -0.05298271
v -0.03580289 -0.03206613 -0.06876214
v -0.03260261 -0.03344751 -0.09510868
v -0.03515647 -0.03119895 -0.05971399
v -0.03623786 -0.01832438 -0.05491270
v -0.00380112 -0.03546009 -0.06141466
v -0.01090704 -0.03574964 -0.08644293
v -0.01984173 -0.03557955 -0.09539323
v -0.03285050 -0.00239539 -0.09980725
v -0.00009580 -0.03564269 -0.08724585
v -0.01054993 -0.03569901 -0.07868258
v -0.03370587 -0.03398998 -0.07539552
v -0.01942531 -0.03548986 -0.07922851
v -0.03440768 -0.03396952 -0.08455071
v -0.02187762 -0.03531115 -0.07550398
v -0.01188451 -0.03574493 -0.09999623
v -0.02496450 -0.03525585 -0.09934034
v -0.03295207 -0.03338460 -0.09366216
v -0.03633580 -0.02710693 -0.06473667
v -0.03267252 -0.00031349 -0.09076353
v -0.01526150 -0.03528067 -0.06199392
v -0.02571693 -0.03525450 -0.08503544
v -0.03514739 -0.03189576 -0.06363369
v -0.02604944 -0.03518023 -0.09667308
v -0.01543756 -0.03563225 -0.08217152
v -0.00802804 -0.03580121 -0.09763499
v -0.00991037 -0.03523011 -0.05333791
v -0.02030738 -0.03555076 -0.09180958
v -0.02826923 -0.03192297 -0.05010029
v -0.03540532 -0.02919879 -0.05007229
v -0.02392977 -0.02356684 -0.09997638
v -0.03516566 -0.02994602 -0.05325407
v -0.03633661 -0.02393860 -0.05508386
v -0.03620662 -0.02619592 -0.05130145
v -0.00065751 -0.03570825 -0.09559651
v -0.02733779 -0.03503780 -0.09877361
v -0.01434994 -0.03524786 -0.05974250
v -0.03196747 -0.03418068 -0.09625867
v -0.03501429 -0.03350388 -0.07304063
v -0.03585133 -0.02921914 -0.05184005
v -0.01179212 -0.03573600 -0.08601564
v -0.03621163 -0.02568070 -0.05099455
v -0.03511322 -0.03313441 -0.08038517
v -0.02160323 -0.03518181 -0.07143865
v -0.03463784 -0.03397586 -0.08185162
v -0.02136637 -0.03548939 -0.08828553
v -0.03098486 -0.03468763 -0.09410481
v -0.01262829 -0.03572333 -0.08588716
v -0.03555641 -0.02963742 -0.05275212
v -0.01004428 -0.03575973 -0.08743296
v -0.01383942 -0.03518249 -0.05744221
v -0.02142308 -0.03549976 -0.09605039
v -0.03626045 -0.02793452 -0.06656011
v -0.00725747 -0.03579937 -0.09594593
v -0.02142418 -0.03544707 -0.08012382
v -0.03528391 -0.03247605 -0.06758115
v -0.00109333 -0.03544081 -0.06229786
v -0.00976863 -0.03555046 -0.06655288
v -0.02053411 -0.03550434 -0.08300387
v -0.00853037 -0.03552774 -0.06394179
v -0.03555371 -0.03060375 -0.05771703
v -0.03617552 -0.02718459 -0.05150516
v -0.02528357 -0.03524168 -0.09724593
v -0.00098107 -0.00110349 -0.05306310
v -0.01031438 -0.03575131 -0.08562700
v -0.03026450 -0.03150868 -0.05115620
v -0.03395547 -0.03403429 -0.08728604
v -0.03618024 -0.02886632 -0.06763404
v -0.00821558 -0.03561943 -0.07076562
v -0.00116264 -0.03573571 -0.09857533
v -0.02002588 -0.03546581 -0.07860592
v -0.01488365 -0.03563842 -0.08145164
v -0.01455076 -0.00033419 -0.05039271
v -0.00002164 -0.03505874 -0.05164961
v -0.01169324 -0.03543073 -0.06109061
v -0.02401019 -0.03534124 -0.08291896
v -0.02536640 -0.03523824 -0.09662985
v -0.03555702 -0.03234056 -0.06801787
v -0.03485137 -0.03327294 -0.08261667
v -0.00690197 -0.03556349 -0.06724946
v -0.02129020 -0.03543307 -0.07866545
v -0.00852603 -0.03547441 -0.06049421
v -0.03572901 -0.03067781 -0.05859286
v -0.00667726 -0.03518877 -0.05185863
v -0.02277001 -0.03538331 -0.08058474
v -0.03285637 -0.00794464 -0.09995027
v -0.02144239 -0.03368562 -0.05084555
v -0.00372228 -0.02526867 -0.09983157
v -0.03255947 -0.00003195 -0.08498948
v -0.01478161 -0.01473250 -0.05006064
v -0.03205680 -0.00019332 -0.05927549
v -0.00234868 -0.03502282 -0.05008232
v -0.00887565 -0.03565578 -0.07385648
v -0.01129763 -0.03537567 -0.05906104
v -0.02077106 -0.03399779 -0.05263318
v -0.02189640 -0.03540062 -0.07807505
v -0.01289536 -0.03571522 -0.08484081
v -0.03429223 -0.03342372 -0.07105363
v -0.01107265 -0.03572753 -0.08166055
v -0.03212942 -0.03336328 -0.09722558
v -0.00081959 -0.03544288 -0.06284837
v -0.00837264 -0.03567363 -0.07565323
v -0.03513450 -0.01662110 -0.05029555
v -0.03588333 -0.03092921 -0.07258204
v -0.02354910 -0.03536644 -0.08326158
v -0.03618792 -0.02401024 -0.05077375
v -0.03347003 -0.03442293 -0.08676582
v -0.02507491 -0.03528801 -0.08412024
v -0.02151192 -0.00071711 -0.05297778
v -0.03292377 -0.03455673 -0.08505677
v -0.00771653 -0.02508597 -0.09996848
v -0.03594363 -0.03135545 -0.06550757
v -0.00999686 -0.03527459 -0.05475567
v -0.03583857 -0.03231978 -0.07165954
v -0.01283625 -0.03566954 -0.08015132
v -0.03592561 -0.03189910 -0.07066936
v -0.00008930 -0.00207937 -0.05042132
v -0.03618415 -0.02840239 -0.05406744
v -0.00770031 -0.03556188 -0.06678278
v -0.03526026 -0.03221699 -0.07953639
v -0.00717678 -0.03547124 -0.06066602
v -0.02859369 -0.03473653 -0.07618729
v -0.03550316 -0.03109323 -0.06018771
v -0.00779492 -0.03570788 -0.07967401
v -0.03131941 -0.03296336 -0.09900843
v -0.02364749 -0.03535226 -0.08210718
v -0.00880524 -0.03518452 -0.05153550
v -0.00943023 -0.00013145 -0.05026707
v -0.03261726 -0.03454906 -0.08174830
v -0.02731309 -0.03512235 -0.08318365
v -0.03542408 -0.03120074 -0.06053549
v -0.02266724 -0.03542996 -0.09334648
v -0.03262752 -0.03074082 -0.05130506
v -0.00064043 -0.03561287 -0.08257630
v -0.03575906 -0.03191108 -0.06686916
v -0.00872812 -0.03562878 -0.07152509
v -0.03222193 -0.00003415 -0.06772573
v -0.00192441 -0.02587184 -0.09941654
v -0.00798913 -0.03576325 -0.08690598
v -0.03505381 -0.02963257 -0.05136535
v -0.00791234 -0.03517585 -0.05120246
v -0.03489745 -0.03340185 -0.08187483
v -0.03578802 -0.03207188 -0.06854108
v -0.00868828 -0.03567466 -0.07563750
v -0.00421129 -0.03578068 -0.09918738
v -0.01436693 -0.02496805 -0.09997455
v -0.02278893 -0.00136746 -0.05303013
v -0.00162572 -0.03575031 -0.09978580
v -0.03632433 -0.02002811 -0.05736412
v -0.00717541 -0.03580201 -0.09675103
v -0.03614718 -0.02169687 -0.05044038
v -0.01020832 -0.03574458 -0.08392039
v -0.03589265 -0.03172813 -0.07171311
v -0.00856137 -0.03570805 -0.07886171
v -0.00011764 -0.01074064 -0.05042196
v -0.00030650 -0.03528331 -0.05739394
v -0.03616195 -0.02726168 -0.05106858
v -0.02515692 -0.03528535 -0.08506876
v -0.00507935 -0.03549154 -0.06282810
v -0.00975344 -0.03577214 -0.09964432
v -0.02442639 -0.03529030 -0.09979739
v -0.02181183 -0.03516222 -0.07144849
v -0.02184680 -0.03542947 -0.08033212
v -0.00818823 -0.03574384 -0.08302463
v -0.01301400 -0.03536790 -0.06093959
v -0.02267762 -0.03541424 -0.08451776
v -0.01717409 -0.03566463 -0.09902655
v -0.03273954 -0.03450406 -0.08034457
v -0.03637255 -0.02120102 -0.05788074
v -0.00578693 -0.03529127 -0.05527064
v -0.01717515 -0.03566260 -0.09809043
v -0.00842253 -0.03551139 -0.06280263
v -0.03622595 -0.02844757 -0.05592197
v -0.01207919 -0.00193268 -0.05021316
v -0.00279611 -0.00063776 -0.05040208
v -0.03530907 -0.03211414 -0.07908935
v -0.03269675 -0.03458731 -0.08409785
v -0.03607728 -0.02805530 -0.05004086
v -0.03636390 -0.02175099 -0.05719384
v -0.00489829 -0.00001163 -0.05035929
v -0.03427280 -0.03393634 -0.08557243
v -0.01024955 -0.03527301 -0.05490358
v -0.00865497 -0.03578613 -0.09265451
v -0.00851484 -0.03540770 -0.05840060
v -0.03620182 -0.02990989 -0.06051482
v -0.00736302 -0.03515331 -0.05060227
v -0.02112113 -0.03551399 -0.09907177
v -0.02018321 -0.03556881 -0.09844718
v -0.01600319 -0.03559707 -0.08052182
v -0.02604719 -0.03522696 -0.08662254
v -0.03092880 -0.03458510 -0.07779026
v -0.03502530 -0.03318288 -0.08113349
v -0.00814777 -0.03578069 -0.09093290
v -0.00617875 -0.03579815 -0.09792118
v -0.00929390 -0.03548552 -0.06148529
v -0.02222427 -0.03517320 -0.07248159
v -0.00512116 -0.03578926 -0.09867381
v -0.00485907 -0.03546840 -0.06124583
v -0.03455914 -0.02984938 -0.05130581
v -0.02959082 -0.03481314 -0.09755887
v -0.00970212 -0.03511760 -0.05024322
v -0.02179670 -0.03547609 -0.09693627
v -0.00827432 -0.03555850 -0.06628618
v -0.00442959 -0.03577566 -0.09996864
v -0.00854604 -0.03547368 -0.06047028
v -0.00974581 -0.03576961 -0.09988032
v -0.03227950 -0.03103753 -0.05200902
v -0.03248845 -0.03450308 -0.07940279
v -0.02193054 -0.03545652 -0.08635285
v -0.02183234 -0.03541933 -0.07924124
v -0.03586191 -0.02988342 -0.05530638
v -0.01280072 -0.00051215 -0.05022678
v -0.03076675 -0.03441724 -0.07464317
v -0.03629608 -0.02716572 -0.05658531
v -0.03281790 -0.00083986 -0.09818445
v -0.01223224 -0.03567876 -0.07980091
v -0.02239625 -0.00109502 -0.05301057
v -0.03392041 -0.03355571 -0.08840347
v -0.02811315 -0.03504380 -0.08320912
v -0.00848123 -0.03554765 -0.06540803
v -0.03471286 -0.03254190 -0.08400386
v -0.01172204 -0.00157114 -0.05022042
v -0.02483276 -0.03527781 -0.08133270
v -0.03622067 -0.02837164 -0.06718755
v -0.01102496 -0.03571761 -0.08067202
v -0.03624729 -0.02575340 -0.05245092
v -0.03565933 -0.03151611 -0.07538147
v -0.03540130 -0.03276750 -0.06984697
v -0.00995385 -0.01559785 -0.05008930
v -0.01436261 -0.03566407 -0.08242005
v -0.00448921 -0.03545011 -0.06054106
v -0.02916469 -0.03485331 -0.09825300
v -0.03530527 -0.03315950 -0.07178015
v -0.03242783 -0.01659565 -0.05020124
v -0.02576649 -0.03522464 -0.09278505
v -0.03278768 -0.03452811 -0.08930620
v -0.02604807 -0.03520697 -0.09135051
v -0.00893942 -0.03551215 -0.06311159
v -0.02568578 -0.03491473 -0.07406733
v -0.03045164 -0.00001341 -0.05893814
v -0.03631377 -0.02474709 -0.05450632
f 174 111 93
f 83 234 199
f 188 28 38
f 111 174 136
f 136 174 93
f 234 83 157
f 157 28 234
f 83 136 157
f 188 24 168
f 168 24 234
f 168 28 188
f 234 28 168
f 199 108 259
f 199 234 39
f 39 108 199
f 199 259 4
f 4 259 110
f 248 109 111
f 111 136 248
f 7 109 197
f 111 109 7
f 165 130 35
f 35 130 223
f 194 83 199
f 199 136 194
f 194 136 83
f 107 157 14
f 107 223 130
f 14 223 107
f 130 28 107
f 28 157 107
f 167 157 89
f 14 157 167
f 54 136 29
f 54 157 136
f 89 157 54
f 188 38 52
f 1 122 110
f 1 24 188
f 108 39 1
f 234 24 1
f 1 39 234
f 110 259 156
f 156 259 108
f 156 1 110
f 108 1 156
f 110 122 166
f 122 4 166
f 92 4 122
f 253 122 197
f 61 1 52
f 61 176 197
f 53 176 61
f 197 122 170
f 122 1 170
f 188 52 198
f 198 1 188
f 52 1 198
f 110 166 236
f 236 166 4
f 144 251 57
f 5 153 29
f 5 136 93
f 29 136 5
f 175 15 120
f 175 5 93
f 120 5 175
f 38 204 233
f 233 52 38
f 197 176 137
f 137 204 197
f 260 61 52
f 52 233 260
f 260 233 10
f 1 61 125
f 125 170 1
f 125 61 197
f 197 170 125
f 128 4 110
f 110 236 128
f 128 236 4
f 231 92 122
f 122 253 231
f 197 109 231
f 231 253 197
f 7 48 9
f 9 106 7
f 48 106 9
f 117 106 48
f 117 58 106
f 144 16 105
f 105 28 130
f 130 165 105
f 105 165 35
f 35 50 105
f 135 243 172
f 172 243 123
f 135 204 72
f 72 204 38
f 72 38 28
f 28 123 72
f 123 243 72
f 135 172 133
f 35 223 225
f 164 223 14
f 143 5 120
f 120 15 76
f 15 25 76
f 76 143 120
f 10 233 81
f 81 176 53
f 53 10 81
f 192 233 204
f 204 137 192
f 53 61 245
f 61 260 245
f 245 10 53
f 245 260 10
f 93 111 205
f 92 231 147
f 199 4 147
f 4 92 147
f 147 136 199
f 147 248 136
f 197 204 59
f 31 58 187
f 34 215 242
f 242 210 149
f 180 251 144
f 180 50 35
f 144 105 180
f 180 105 50
f 119 16 144
f 144 57 119
f 57 22 119
f 16 119 37
f 37 119 22
f 37 22 57
f 87 243 135
f 135 72 87
f 87 72 243
f 16 18 240
f 240 18 98
f 240 105 16
f 246 123 28
f 28 195 246
f 246 172 123
f 246 133 172
f 28 105 139
f 139 195 28
f 105 240 139
f 139 240 98
f 64 252 133
f 58 252 64
f 33 126 64
f 187 58 64
f 179 45 35
f 35 225 179
f 179 225 45
f 8 225 223
f 45 225 8
f 223 164 8
f 158 164 14
f 103 175 93
f 93 205 103
f 15 175 103
f 250 25 15
f 7 210 141
f 141 242 215
f 210 242 141
f 63 215 34
f 248 147 241
f 241 147 231
f 230 59 204
f 102 59 230
f 204 131 230
f 230 131 102
f 85 117 48
f 7 106 114
f 106 58 114
f 58 31 114
f 219 57 251
f 34 242 115
f 41 242 149
f 237 18 16
f 16 37 237
f 98 18 237
f 6 131 204
f 154 252 97
f 154 97 102
f 102 131 154
f 133 246 62
f 62 246 195
f 195 139 62
f 62 139 98
f 62 64 133
f 129 196 187
f 187 64 129
f 129 64 126
f 251 196 129
f 129 219 251
f 102 97 247
f 247 252 102
f 97 252 247
f 42 252 58
f 45 8 213
f 202 26 45
f 19 2 118
f 183 54 29
f 89 54 183
f 29 153 183
f 183 19 158
f 183 167 89
f 153 5 183
f 5 143 183
f 2 19 183
f 14 167 183
f 183 158 14
f 143 76 121
f 160 146 20
f 205 146 160
f 20 203 160
f 160 203 101
f 220 146 205
f 220 205 111
f 111 7 220
f 25 250 217
f 15 103 189
f 189 250 15
f 227 31 187
f 149 210 227
f 187 238 227
f 227 238 149
f 40 115 184
f 34 115 40
f 40 63 34
f 7 63 40
f 181 63 7
f 215 63 181
f 193 231 109
f 193 241 231
f 109 248 193
f 248 241 193
f 197 59 49
f 49 152 48
f 49 7 197
f 49 48 7
f 232 114 31
f 31 227 232
f 7 114 232
f 232 210 7
f 232 227 210
f 187 196 148
f 148 238 187
f 196 238 148
f 55 196 251
f 55 43 196
f 251 180 55
f 209 41 149
f 200 33 98
f 98 237 200
f 86 37 57
f 86 237 37
f 86 200 237
f 57 126 86
f 86 126 33
f 33 200 86
f 17 204 135
f 17 6 204
f 135 133 17
f 133 131 17
f 131 6 17
f 162 154 131
f 133 252 162
f 252 154 162
f 211 62 98
f 33 64 161
f 64 62 161
f 62 211 161
f 98 33 161
f 161 211 98
f 255 129 126
f 255 126 57
f 102 252 75
f 252 42 75
f 216 8 164
f 216 213 8
f 164 158 216
f 158 213 216
f 45 213 169
f 169 202 45
f 118 26 84
f 143 121 173
f 173 183 143
f 2 183 173
f 184 220 56
f 56 40 184
f 7 40 56
f 101 191 140
f 191 217 140
f 140 217 250
f 155 112 88
f 88 121 76
f 30 112 155
f 77 30 155
f 11 30 77
f 214 191 101
f 101 11 214
f 101 203 224
f 224 11 101
f 224 132 11
f 46 220 184
f 146 220 46
f 258 141 215
f 215 181 258
f 7 141 258
f 258 181 7
f 68 59 102
f 68 49 59
f 35 186 206
f 206 180 35
f 21 131 133
f 133 162 21
f 21 162 131
f 219 129 66
f 129 255 66
f 57 219 66
f 66 255 57
f 102 75 142
f 142 75 42
f 226 23 42
f 226 42 58
f 226 85 48
f 48 152 226
f 117 85 226
f 58 117 226
f 102 23 80
f 80 68 102
f 49 68 80
f 158 19 212
f 26 202 69
f 69 84 26
f 171 19 118
f 118 84 171
f 163 173 121
f 163 88 112
f 121 88 163
f 70 220 7
f 7 56 70
f 70 56 220
f 244 30 11
f 32 91 208
f 208 91 11
f 115 100 94
f 184 115 94
f 94 100 11
f 94 113 184
f 11 132 94
f 90 100 32
f 11 100 90
f 32 208 90
f 90 208 11
f 74 100 229
f 229 100 115
f 229 115 242
f 242 104 229
f 207 206 186
f 36 55 180
f 43 55 36
f 43 96 254
f 42 23 150
f 150 142 42
f 150 23 102
f 102 142 150
f 152 49 218
f 49 159 218
f 60 26 118
f 118 116 60
f 116 67 60
f 186 67 190
f 190 67 116
f 73 212 202
f 202 169 73
f 158 212 73
f 73 213 158
f 73 169 213
f 25 217 178
f 178 76 25
f 178 88 76
f 178 99 88
f 118 244 249
f 249 116 118
f 132 46 201
f 201 94 132
f 113 94 201
f 201 46 184
f 184 113 201
f 3 228 47
f 78 228 3
f 242 41 127
f 127 95 242
f 145 104 242
f 242 95 145
f 185 228 78
f 47 207 27
f 27 207 186
f 186 190 27
f 47 228 65
f 65 207 47
f 82 96 43
f 43 36 82
f 256 254 209
f 43 254 256
f 256 209 149
f 149 238 256
f 256 238 196
f 196 43 256
f 51 80 23
f 49 80 51
f 88 222 239
f 155 88 239
f 88 99 138
f 138 222 88
f 91 249 134
f 11 91 134
f 134 249 244
f 116 249 12
f 12 249 78
f 74 78 44
f 78 249 44
f 182 78 74
f 182 185 78
f 74 229 182
f 95 127 124
f 124 182 95
f 185 182 124
f 221 151 41
f 206 151 221
f 206 207 71
f 71 151 206
f 177 127 41
f 41 151 177
f 13 159 49
f 49 51 13
f 155 239 79
f 79 257 77
f 79 77 155
f 214 257 79
f 191 214 79
f 235 244 11
f 11 134 235
f 235 134 244
f 192 137 176
f 176 81 192
f 192 81 233
f 140 103 205
f 140 189 103
f 205 160 140
f 140 160 101
f 250 189 140
f 46 203 20
f 46 224 203
f 20 146 46
f 132 224 46
f 171 69 202
f 202 212 171
f 171 212 19
f 84 69 171
f 118 2 244
f 244 163 112
f 2 173 244
f 112 30 244
f 173 163 244
f 257 214 11
f 11 77 257
f 45 26 60
f 35 45 60
f 60 186 35
f 60 67 186
f 47 27 12
f 12 3 47
f 12 27 190
f 12 190 116
f 78 3 12
f 44 249 91
f 44 91 32
f 32 100 44
f 44 100 74
f 104 145 182
f 182 229 104
f 182 145 95
f 41 209 221
f 180 206 221
f 96 82 221
f 221 36 180
f 209 254 221
f 221 254 96
f 221 82 36
f 228 185 177
f 177 124 127
f 177 65 228
f 177 71 207
f 207 65 177
f 185 124 177
f 151 71 177
f 23 226 13
f 13 226 152
f 152 218 13
f 13 218 159
f 13 51 23
f 79 178 217
f 79 217 191
f 79 138 99
f 99 178 79
f 79 239 222
f 222 138 79

