# https://github.com/mikedh/trimesh
v -0.00113562 -0.00796337 -0.31189489
v -0.00305700 -0.01140884 -0.31183579
v -0.00516621 -0.01370536 -0.31106675
v -0.00883777 -0.01718299 -0.30716380
v -0.00784413 -0.01135262 -0.30010575
v -0.00090534 -0.00990582 -0.31217938
v -0.00623882 -0.01546278 -0.31049576
v -0.00050189 -0.01153182 -0.31223468
v -0.01180225 -0.01495332 -0.30300759
v -0.00309441 -0.01510392 -0.31183750
v -0.01088795 -0.01537482 -0.30542459
v -0.00423998 -0.01682864 -0.31114495
v -0.00037747 -0.01334692 -0.31224781
v -0.00309339 -0.01579382 -0.31182977
v -0.00814902 -0.00873790 -0.30913433
v -0.00854593 -0.00796338 -0.30790260
v -0.00903090 -0.01512476 -0.30817082
v -0.01175629 -0.00796338 -0.30230366
v -0.00139192 -0.00975102 -0.31210280
v -0.01091970 -0.00951270 -0.30546721
v -0.01116138 -0.00796338 -0.30355748
v -0.01017994 -0.01136451 -0.30682496
v -0.00026425 -0.00863818 -0.31224696
v -0.00270653 -0.01802617 -0.31064378
v -0.00314101 -0.01213830 -0.31182369
v -0.00789290 -0.01483739 -0.30124976
v -0.00067569 -0.00796338 -0.30780650
v -0.01054206 -0.01674427 -0.30506754
v -0.00586315 -0.01792617 -0.30839197
v -0.00469715 -0.01050153 -0.31129717
v -0.00417805 -0.01193882 -0.31149479
v -0.01158312 -0.00903400 -0.30398565
v -0.00739330 -0.01794558 -0.30287752
v -0.01158762 -0.01670378 -0.30189885
v -0.01190639 -0.00926553 -0.30280357
v -0.01038814 -0.01683848 -0.30532631
v -0.01138106 -0.01070535 -0.30450417
v -0.00146609 -0.01009632 -0.31209149
v -0.00372034 -0.01810099 -0.30973890
v -0.00208439 -0.01267788 -0.31199532
v -0.00006045 -0.01449216 -0.31224611
v -0.00155168 -0.01845611 -0.30816791
v -0.00435509 -0.01815961 -0.30832003
v -0.00730353 -0.01499668 -0.30973416
v -0.01201570 -0.01027738 -0.30227464
v -0.00146412 -0.01542908 -0.31207959
v -0.01069686 -0.01620275 -0.30545544
v -0.00075543 -0.01472248 -0.31218736
v -0.01169907 -0.01030914 -0.30363792
v -0.01046962 -0.00836480 -0.30636262
v -0.01225345 -0.00953918 -0.30114932
v -0.01235443 -0.01487432 -0.30021901
v -0.01136056 -0.01267607 -0.30454532
v -0.01199321 -0.01066228 -0.30236443
v -0.00414621 -0.00797636 -0.31117299
v -0.00554614 -0.00901251 -0.31084556
v -0.00708437 -0.00963987 -0.30997527
v -0.00882018 -0.00805065 -0.30815231
v -0.01023523 -0.01473287 -0.30671468
v -0.00344604 -0.01131121 -0.31176534
v -0.01070828 -0.01063743 -0.30589476
v -0.00448234 -0.00800459 -0.31107623
v -0.00608704 -0.01416655 -0.31062821
v -0.00090521 -0.00796337 -0.31138349
v -0.01177698 -0.00796338 -0.30092106
v -0.01161221 -0.01363690 -0.30392105
v -0.00783439 -0.01770843 -0.30699693
v -0.00243474 -0.00796337 -0.31151998
v -0.00536504 -0.01364457 -0.31098542
v -0.00870057 -0.01057720 -0.30854608
v -0.01017856 -0.01590165 -0.30646956
v -0.00490618 -0.01146328 -0.31119986
v -0.00793378 -0.00849170 -0.30933778
v -0.01092433 -0.01437801 -0.30542071
v -0.00013490 -0.00796338 -0.30952489
v -0.00129634 -0.01826481 -0.31070075
v -0.00836118 -0.01781704 -0.30456799
v -0.00074975 -0.00955711 -0.31220362
v -0.00846825 -0.00796338 -0.30041822
v -0.00003712 -0.01033424 -0.30775952
v -0.01012602 -0.00906754 -0.30690527
v -0.00203324 -0.01630018 -0.31194086
v -0.01111723 -0.01704701 -0.30244046
v -0.01018654 -0.01733300 -0.30421819
v -0.00004104 -0.01860540 -0.30974251
v -0.01189944 -0.01581250 -0.30216463
v -0.01060536 -0.01303537 -0.30606939
v -0.00076122 -0.01441461 -0.30777169
v -0.00978211 -0.01034521 -0.30732071
v -0.00718194 -0.01789706 -0.30649178
v -0.01238047 -0.00867883 -0.30034993
v -0.00434162 -0.00922527 -0.31145856
v -0.01211951 -0.01272260 -0.30157711
v -0.01148387 -0.01091301 -0.30428738
v -0.00622296 -0.01397607 -0.31054165
f 88 85 80
f 80 5 88
f 79 5 80
f 80 27 79
f 91 5 79
f 68 79 1
f 85 88 42
f 42 88 5
f 52 5 91
f 91 79 65
f 65 79 68
f 75 27 80
f 75 79 27
f 75 1 79
f 92 1 23
f 23 75 41
f 80 85 41
f 41 75 80
f 33 52 34
f 85 42 33
f 18 32 91
f 91 65 18
f 18 50 32
f 23 1 64
f 64 75 23
f 1 75 64
f 68 1 55
f 1 92 55
f 23 41 13
f 14 82 12
f 12 82 24
f 17 4 71
f 34 52 86
f 91 32 35
f 51 52 91
f 91 35 51
f 26 42 5
f 26 33 42
f 5 52 26
f 52 33 26
f 58 50 21
f 50 18 21
f 21 65 68
f 21 18 65
f 14 12 7
f 7 4 17
f 7 12 4
f 46 82 14
f 41 82 46
f 24 82 76
f 85 39 76
f 39 24 76
f 76 41 85
f 76 82 41
f 73 56 57
f 73 50 58
f 73 81 50
f 59 71 11
f 17 71 59
f 36 71 4
f 52 51 93
f 9 51 54
f 9 93 51
f 9 86 52
f 52 93 9
f 29 67 4
f 29 24 39
f 4 12 29
f 29 12 24
f 4 67 84
f 84 36 4
f 45 35 54
f 54 51 45
f 45 51 35
f 31 60 14
f 92 60 31
f 62 55 92
f 92 56 62
f 56 73 62
f 62 73 58
f 57 56 63
f 48 13 41
f 41 46 48
f 14 60 10
f 10 46 14
f 13 78 8
f 23 13 8
f 8 78 23
f 44 73 57
f 44 7 17
f 17 73 44
f 50 81 22
f 22 59 50
f 17 59 22
f 74 59 11
f 11 71 47
f 71 36 47
f 47 9 11
f 86 9 47
f 34 86 47
f 94 37 53
f 54 35 66
f 66 9 54
f 32 94 66
f 66 94 53
f 11 9 66
f 66 74 11
f 53 74 66
f 43 39 85
f 43 29 39
f 83 33 34
f 34 36 83
f 36 84 83
f 16 21 68
f 68 55 16
f 58 21 16
f 16 62 58
f 55 62 16
f 3 31 14
f 89 70 17
f 17 22 89
f 89 22 81
f 81 73 15
f 15 89 81
f 70 89 15
f 15 73 17
f 17 70 15
f 95 63 7
f 7 44 95
f 57 63 95
f 95 44 57
f 53 37 20
f 32 50 20
f 20 94 32
f 37 94 20
f 50 59 87
f 59 74 87
f 28 36 34
f 34 47 28
f 28 47 36
f 49 35 32
f 32 66 49
f 49 66 35
f 85 33 77
f 77 84 67
f 33 83 77
f 77 83 84
f 63 72 69
f 31 3 69
f 7 63 69
f 14 7 69
f 69 3 14
f 30 56 92
f 31 69 30
f 92 31 30
f 30 69 72
f 30 63 56
f 30 72 63
f 19 2 60
f 23 78 19
f 19 92 23
f 19 60 92
f 25 10 60
f 60 2 25
f 61 20 50
f 50 87 61
f 61 87 74
f 61 74 53
f 53 20 61
f 90 43 85
f 85 77 90
f 29 43 90
f 67 29 90
f 90 77 67
f 38 19 78
f 10 25 38
f 10 38 40
f 6 38 78
f 6 40 38
f 38 25 2
f 2 19 38
f 6 48 46
f 46 10 6
f 13 48 6
f 6 78 13
f 10 40 6

