# https://github.com/mikedh/trimesh
v -0.12164906 0.01459330 -0.19997080
v -0.12575133 0.01473181 -0.18974540
v -0.10054753 0.04465988 -0.18821596
v -0.10272546 0.04513929 -0.16219745
v -0.10786290 0.03583991 -0.19999063
v -0.12420995 0.01721261 -0.16041059
v -0.12520944 0.01646002 -0.16309421
v -0.11324246 0.04510172 -0.16786847
v -0.12723858 0.01515815 -0.17376171
v -0.12506736 0.01721064 -0.16303045
v -0.12274562 0.01391281 -0.19807096
v -0.10732834 0.04511257 -0.17757479
v -0.10013375 0.03586705 -0.19495541
v -0.12264098 0.00711120 -0.19821999
v -0.12292646 0.01641394 -0.19760645
v -0.12287052 0.00586807 -0.15670689
v -0.12232872 0.03553090 -0.17722046
v -0.10927363 0.04511175 -0.15811356
v -0.12302107 0.00461661 -0.15713980
v -0.11095849 0.00110544 -0.19995056
v -0.12716636 0.00102593 -0.17755616
v -0.12480911 0.01096257 -0.16204268
v -0.12004939 0.00013777 -0.15173565
v -0.12180245 0.01360568 -0.19970116
v -0.12717288 0.00083421 -0.17572375
v -0.10506073 0.04512837 -0.15871649
v -0.12244111 0.01638076 -0.19862304
v -0.10019510 0.03585832 -0.17934485
v -0.12719661 0.01698344 -0.18178478
v -0.12262216 0.01351713 -0.19829377
v -0.12307517 0.00026254 -0.15733982
v -0.12458070 0.00965992 -0.16142190
v -0.10829456 0.01726880 -0.15001947
v -0.11140943 0.04511038 -0.17077372
v -0.10036267 0.03585054 -0.16624539
v -0.12569334 0.00127445 -0.18977191
v -0.12278034 0.01682726 -0.15646177
v -0.12581746 0.00027246 -0.18906207
v -0.10029008 0.04516177 -0.18623675
v -0.12271756 0.00480076 -0.15643909
v -0.12392346 0.00639100 -0.15963014
v -0.12234612 0.03531882 -0.17417170
v -0.12288006 0.01174783 -0.15667642
v -0.12718708 0.01348688 -0.18176104
v -0.12718121 0.00208610 -0.17490240
v -0.12037805 0.01708668 -0.15218885
v -0.12724364 0.01629302 -0.17364207
v -0.12592746 0.00187009 -0.16583800
v -0.11361510 0.03565178 -0.19650232
v -0.10028466 0.04514340 -0.15241564
v -0.10017039 0.04515165 -0.16676730
v -0.10144658 0.04515620 -0.18421061
v -0.10031893 0.04514292 -0.15178795
v -0.11278576 0.04510251 -0.16608388
v -0.12722990 0.01263227 -0.17337734
v -0.12604122 0.00091022 -0.16652157
v -0.11512303 0.03547824 -0.15292818
v -0.11655974 0.03571259 -0.15547571
v -0.12719243 0.00407577 -0.17410283
v -0.12193179 0.01226698 -0.19947052
v -0.12572450 0.00169816 -0.16470144
v -0.12710139 0.00125899 -0.18196805
v -0.11919737 0.01607142 -0.15009764
v -0.10298390 0.03828310 -0.15021456
v -0.12715711 0.00091569 -0.17976669
v -0.10345268 0.04408278 -0.15069223
v -0.12569418 0.00941496 -0.18994561
v -0.12134765 0.03557268 -0.16745685
v -0.12714686 0.00020509 -0.18162014
v -0.11305497 0.03363079 -0.15018727
v -0.11945014 0.03577028 -0.18734386
v -0.10318835 0.04126209 -0.15042077
v -0.12106894 0.03526715 -0.18480009
v -0.11163593 0.00025614 -0.19936204
v -0.10656162 0.04512120 -0.15620681
v -0.12172592 0.01093825 -0.19981522
v -0.11186963 0.03579747 -0.15043059
v -0.11143253 0.03483358 -0.19992373
v -0.10017353 0.04516114 -0.18425459
v -0.12648308 0.01687291 -0.18573684
v -0.12600746 0.01720881 -0.16654161
v -0.12658944 0.01716704 -0.16931450
v -0.12514636 0.00015453 -0.19141154
v -0.11739566 0.03554047 -0.15703561
v -0.10338986 0.03583012 -0.15017599
v -0.12716091 0.01720772 -0.17312306
v -0.10039247 0.03586872 -0.19985861
v -0.12721689 0.01658866 -0.18065779
v -0.12574249 0.01486003 -0.16459618
v -0.12712218 0.01442934 -0.17247343
v -0.12722773 0.01338469 -0.17468618
v -0.12410979 0.01602651 -0.16003998
v -0.12330231 0.00001904 -0.19641446
v -0.10088370 0.04516021 -0.18757855
v -0.12582757 0.01451554 -0.16495451
v -0.10005584 0.04515056 -0.16395414
v -0.12596495 0.01655920 -0.18860151
v -0.12356631 0.01579970 -0.15853065
v -0.12278098 0.00701410 -0.15653538
v -0.12265387 0.00334240 -0.15633675
v -0.10503362 0.04512538 -0.15303020
v -0.10903127 0.00000130 -0.15165939
v -0.12708297 0.00066183 -0.18205705
v -0.11917851 0.03577486 -0.16080755
v -0.12173485 0.00041812 -0.15472643
v -0.10627283 0.04513375 -0.17722492
v -0.11919288 0.01722673 -0.15013848
v -0.11196742 0.04510787 -0.17012162
v -0.11915914 0.01282402 -0.15005482
v -0.11098150 0.04510691 -0.16136732
v -0.12293966 0.01090071 -0.15684255
v -0.12255855 0.00426812 -0.19834306
v -0.12172693 0.00011354 -0.19974341
v -0.11815913 0.00001425 -0.17499350
v -0.10814413 0.04511508 -0.15621011
v -0.12304602 0.01305722 -0.15711416
v -0.12718922 0.00337198 -0.17419587
v -0.10009386 0.04416318 -0.18743089
v -0.12657421 0.00025134 -0.16963209
v -0.12711338 0.00337449 -0.17268769
v -0.12230419 0.01550588 -0.19885235
v -0.11919872 0.00115092 -0.15021560
v -0.10868518 0.04512262 -0.17390848
v -0.12221552 0.03560226 -0.18174299
v -0.12456885 0.01719983 -0.19315762
v -0.10746253 0.00105077 -0.15014678
v -0.12592018 0.01531646 -0.16547302
v -0.12543647 0.01643375 -0.19079505
v -0.11161067 0.03582508 -0.19936672
v -0.10841525 0.02918512 -0.15001902
v -0.12273280 0.00291858 -0.19799041
v -0.12333869 0.00351252 -0.15803580
v -0.11917031 0.00810735 -0.15011121
v -0.10045629 0.04514185 -0.15079505
v -0.12230168 0.00248662 -0.19877238
v -0.12372250 0.00006057 -0.15914507
v -0.11351876 0.00001136 -0.19621440
v -0.10794085 0.00000485 -0.15037509
v -0.12720103 0.01330979 -0.18131324
v -0.12563427 0.00653358 -0.19015439
v -0.12068704 0.01724650 -0.19996094
v -0.12580991 0.00825635 -0.16500220
v -0.11076899 0.03582865 -0.19993866
v -0.12724030 0.01707844 -0.17527726
v -0.10414411 0.04512810 -0.15171426
v -0.12162104 0.00485852 -0.19995586
v -0.12719589 0.00563946 -0.17311241
v -0.11311738 0.03579313 -0.15132446
v -0.12717672 0.00398888 -0.17796107
v -0.12718476 0.00573824 -0.17771805
v -0.12564801 0.00014825 -0.16450670
v -0.12339658 0.00254890 -0.15820800
v -0.11796488 0.01723142 -0.15002131
v -0.12564291 0.01631513 -0.16430168
v -0.12716694 0.00064064 -0.17701944
v -0.12261332 0.00295552 -0.15626760
v -0.12230357 0.00149542 -0.15572834
v -0.12718509 0.00963564 -0.18158799
v -0.10756735 0.00053610 -0.15002279
v -0.12140637 0.03577039 -0.16842029
v -0.12720855 0.00978597 -0.17584989
v -0.11275698 0.00009858 -0.19732484
v -0.12250562 0.01548826 -0.19850654
f 5 87 20
f 20 74 113
f 5 20 1
f 114 93 102
f 137 93 113
f 102 93 137
f 113 93 131
f 159 20 87
f 5 1 141
f 146 20 113
f 146 1 20
f 96 134 53
f 53 50 96
f 113 74 162
f 162 137 113
f 38 69 103
f 113 131 135
f 136 114 102
f 93 114 136
f 136 69 93
f 64 159 134
f 96 50 35
f 50 53 35
f 138 136 102
f 23 136 138
f 122 23 138
f 138 159 122
f 138 162 74
f 74 20 138
f 20 159 138
f 102 137 138
f 137 162 138
f 51 134 96
f 120 25 119
f 45 25 120
f 93 69 83
f 69 38 83
f 83 131 93
f 15 11 83
f 83 11 131
f 155 69 119
f 119 25 155
f 103 69 62
f 69 44 62
f 1 146 76
f 27 11 15
f 27 141 1
f 119 69 151
f 69 136 151
f 70 64 72
f 72 64 134
f 159 153 109
f 130 64 70
f 70 153 130
f 13 159 87
f 87 118 13
f 13 118 96
f 126 35 53
f 134 159 126
f 126 53 134
f 103 62 97
f 3 118 87
f 15 125 73
f 73 27 15
f 71 27 73
f 134 51 4
f 134 145 66
f 70 72 66
f 66 72 134
f 134 75 101
f 101 145 134
f 68 82 81
f 68 86 82
f 68 42 86
f 160 42 68
f 45 120 117
f 117 120 147
f 147 59 117
f 55 59 147
f 90 55 147
f 82 86 90
f 47 55 90
f 90 86 47
f 158 44 69
f 29 44 158
f 29 88 144
f 47 86 144
f 17 29 144
f 144 42 17
f 86 42 144
f 131 11 14
f 1 76 24
f 82 90 48
f 82 48 142
f 105 23 122
f 31 105 157
f 31 136 23
f 23 105 31
f 122 159 133
f 159 109 133
f 133 105 122
f 133 109 157
f 157 105 133
f 159 64 85
f 85 130 159
f 64 130 85
f 33 153 159
f 159 130 33
f 33 130 153
f 35 126 28
f 96 35 28
f 28 13 96
f 159 13 28
f 28 126 159
f 80 44 29
f 80 62 44
f 80 97 62
f 118 3 39
f 49 27 71
f 5 141 143
f 141 78 143
f 26 75 134
f 134 4 26
f 70 66 77
f 77 66 145
f 107 153 70
f 70 57 107
f 115 101 75
f 145 101 115
f 115 57 145
f 69 155 65
f 149 150 65
f 9 55 47
f 139 88 29
f 29 158 139
f 30 14 11
f 112 135 131
f 131 14 112
f 119 151 56
f 56 120 119
f 147 120 56
f 56 90 147
f 56 48 90
f 61 142 48
f 61 56 151
f 48 56 61
f 103 97 2
f 2 67 103
f 97 128 2
f 36 83 38
f 36 38 103
f 103 67 36
f 79 51 96
f 96 118 79
f 118 39 79
f 39 52 79
f 94 39 3
f 5 143 94
f 94 87 5
f 94 3 87
f 71 73 124
f 124 73 125
f 124 29 17
f 125 128 124
f 124 80 29
f 97 80 124
f 124 128 97
f 51 79 106
f 106 79 52
f 145 57 148
f 148 77 145
f 148 57 70
f 70 77 148
f 63 109 153
f 153 107 63
f 157 109 63
f 8 115 75
f 17 42 8
f 8 124 17
f 75 26 8
f 8 108 71
f 71 124 8
f 8 26 4
f 8 42 160
f 8 4 51
f 160 68 8
f 21 65 155
f 149 65 21
f 161 9 47
f 161 150 149
f 11 27 163
f 163 30 11
f 10 68 81
f 104 68 10
f 37 84 104
f 83 36 140
f 140 36 67
f 140 128 125
f 140 2 128
f 67 2 140
f 140 125 15
f 15 83 140
f 129 94 143
f 129 49 71
f 71 94 129
f 27 49 129
f 129 143 78
f 141 27 129
f 129 78 141
f 108 94 12
f 71 108 12
f 12 94 71
f 51 106 123
f 57 115 58
f 58 107 57
f 84 37 58
f 104 84 58
f 58 110 104
f 18 58 115
f 110 58 18
f 91 161 47
f 150 161 91
f 121 163 27
f 142 61 95
f 82 142 95
f 152 132 41
f 31 132 152
f 154 152 41
f 154 10 81
f 81 82 154
f 46 63 107
f 107 58 46
f 46 58 37
f 46 40 63
f 31 16 19
f 19 132 31
f 34 123 106
f 51 123 34
f 34 8 51
f 108 8 34
f 157 63 156
f 156 31 157
f 115 8 54
f 54 18 115
f 110 18 54
f 104 110 54
f 54 68 104
f 54 8 68
f 163 121 60
f 60 121 24
f 60 24 76
f 89 95 61
f 116 37 98
f 10 154 6
f 104 10 6
f 6 37 104
f 6 98 37
f 82 95 127
f 127 154 82
f 95 89 127
f 127 89 154
f 43 46 37
f 43 111 16
f 116 111 43
f 43 37 116
f 63 40 100
f 100 156 63
f 100 40 16
f 100 16 31
f 31 156 100
f 154 89 22
f 7 6 154
f 40 46 99
f 46 43 99
f 16 40 99
f 99 43 16
f 152 154 32
f 154 22 32
f 98 6 92
f 6 7 92
f 161 25 45
f 161 155 25
f 45 117 161
f 161 117 59
f 59 55 161
f 55 9 161
f 161 21 155
f 149 21 161
f 91 158 69
f 47 144 91
f 69 65 91
f 91 144 88
f 88 139 91
f 91 65 150
f 91 139 158
f 1 24 121
f 121 27 1
f 39 94 34
f 34 52 39
f 34 94 108
f 34 106 52
f 14 30 60
f 135 112 60
f 113 135 60
f 60 146 113
f 60 76 146
f 60 112 14
f 30 163 60
f 136 31 32
f 32 151 136
f 32 61 151
f 32 89 61
f 31 152 32
f 32 22 89
f 92 111 116
f 41 132 92
f 92 19 16
f 92 154 41
f 16 111 92
f 132 19 92
f 116 98 92
f 92 7 154

