# https://github.com/mikedh/trimesh
v -0.02015583 0.02036377 0.01771708
v -0.02702419 0.01976266 0.00471812
v -0.02232888 0.02190138 0.01186591
v -0.02004850 0.02238432 0.01460655
v -0.01538722 0.02232271 0.01952161
v -0.01110371 0.01852396 0.02623384
v -0.01935499 0.01585476 0.02091681
v -0.02834880 0.01380372 0.00292903
v -0.02287760 0.02094193 0.01287950
v -0.02794747 0.01174250 0.00557088
v -0.00612336 0.00163739 0.02783381
v -0.01816901 0.01720940 0.02194837
v -0.01022650 0.00192374 0.02660173
v -0.00216446 0.01785915 0.02841394
v -0.01762446 0.00004474 0.02237632
v -0.01964143 0.00223787 0.02065080
v -0.02598873 0.00521436 0.01169564
v -0.01295198 0.00116054 0.02538310
v -0.02600565 0.01240603 0.01165991
v -0.02393630 0.02243774 0.00622180
v -0.01720517 0.02194170 0.01849104
v -0.02702413 0.01918011 0.00738893
v -0.02525655 0.00035415 0.01319413
v -0.02063110 0.00017769 0.01964855
v -0.02221415 0.01847540 0.01785080
v -0.00673338 0.00066625 0.02769286
v -0.00922821 0.01869768 0.02695408
v -0.02604991 0.00113003 0.01155828
v -0.01306859 0.01857474 0.02532355
v -0.00734182 0.01869016 0.02752490
v -0.02729561 0.00230045 0.00819653
v -0.00448562 0.02198784 0.02479137
v -0.00310524 0.01726298 0.02832701
v -0.00540064 0.01843862 0.02797134
v -0.01810542 0.02056925 0.01952815
v -0.00060646 0.02250000 0.02456464
v -0.02329712 0.01890531 0.01605431
v -0.00295255 0.00744899 0.02834661
v -0.01845348 0.00216659 0.02171816
v -0.02417588 0.02092040 0.01029780
v -0.01149049 0.00187295 0.02606826
v -0.00130184 0.01946645 0.02770081
v -0.02710621 0.00003378 0.00880127
v -0.02413230 0.01913176 0.01433075
v -0.00188514 0.01812999 0.02843373
v -0.02757553 0.00557669 0.00719643
v -0.02809757 0.00922511 0.00476026
v -0.01129225 0.01933562 0.02546580
v -0.00432539 0.00567441 0.02816930
v -0.02331083 0.02209154 0.00927965
v -0.02059145 0.00787027 0.01969179
v -0.02816674 0.01803796 0.00433155
v -0.01927115 0.01016285 0.02099172
v -0.01669904 0.01876342 0.02301659
v -0.02037099 0.01884491 0.01970505
v -0.02528044 0.01971247 0.01078304
v -0.02122347 0.01913594 0.01835807
v -0.02831609 0.01843737 0.00320495
v -0.00384189 0.01883626 0.02809609
v -0.01135869 0.01904491 0.02575424
v -0.02056870 0.01928831 0.01886532
v -0.00853357 0.00293747 0.02719124
v -0.01830189 0.02247924 0.01659490
v -0.02483449 0.01880414 0.01374120
v -0.00315832 0.02249999 0.00001597
v -0.01261342 0.01891788 0.02531073
v -0.02683245 0.00325355 0.00960320
v -0.00272866 0.02250000 0.02451082
v -0.02207235 0.00248853 0.01802883
v -0.02061941 0.00033969 0.01966069
v -0.00000403 0.02250000 0.01666933
v -0.00054342 0.01483408 0.02848966
v -0.01341406 0.00219510 0.02514501
v -0.02115230 0.02250000 0.00004068
v -0.02760530 0.00093074 0.00707551
v -0.01338713 0.00927610 0.02515985
v -0.01134723 0.02028022 0.02440573
v -0.02805134 0.00060113 0.00502188
v -0.01657159 0.02234879 0.01849832
v -0.00571965 0.01741690 0.02791297
v -0.01750422 0.01788297 0.02247454
v -0.02459969 0.02250000 0.00032089
v -0.01181130 0.02107295 0.02330177
v -0.00437851 0.00197357 0.02816075
v -0.02653360 0.01884285 0.00998128
v -0.02836702 0.01876272 0.00195257
v -0.02259950 0.01867096 0.01736183
v -0.02743611 0.01934127 0.00480891
v -0.02530368 0.01883252 0.01281688
v -0.02824432 0.01518930 0.00380566
v -0.02492707 0.02096820 0.00815184
v -0.02673832 0.02046094 0.00013792
v -0.01884211 0.01980951 0.01987811
v -0.02210311 0.00931705 0.01799141
v -0.01906537 0.02234702 0.01590566
v -0.02785793 0.01882534 0.00537826
v -0.02684899 0.01845177 0.00955386
v -0.02849797 0.00869794 0.00023505
v -0.01047915 0.02020870 0.02485871
v -0.01155123 0.02149754 0.02295784
v -0.02567682 0.01977730 0.00960448
v -0.01121902 0.02209468 0.02245543
v -0.01133605 0.02063504 0.02402076
v -0.02333868 0.02238193 0.00835057
v -0.01634722 0.02097483 0.02049063
v -0.02428264 0.00163874 0.01491888
v -0.01962474 0.01180560 0.02066654
v -0.01011664 0.01873317 0.02660802
v -0.00680672 0.00276099 0.02767482
v -0.00788256 0.00079967 0.02737778
v -0.02649186 0.01817901 0.01047144
v -0.02806948 0.00307020 0.00491972
v -0.02586126 0.00045867 0.01196191
v -0.00250301 0.01703265 0.02838978
v -0.00826426 0.01647008 0.02727045
v -0.02775942 0.01889765 0.00551581
v -0.00067488 0.01306659 0.02848932
v -0.00845063 0.01938505 0.02649344
v -0.02318168 0.02223865 0.00920088
v -0.02256338 0.00024150 0.01740661
v -0.01949553 0.00323632 0.02078849
v -0.02137749 0.01696081 0.01884565
v -0.00170476 0.01913695 0.02800839
v -0.00046299 0.02249999 0.00021633
v -0.00292074 0.01932094 0.02772019
v -0.00421621 0.00099445 0.02818218
v -0.01914029 0.01809048 0.02110674
v -0.02796623 0.01295781 0.00548782
v -0.02604927 0.02072387 0.00470315
v -0.01487490 0.01687815 0.02430992
v -0.00076392 0.01899168 0.02819688
v -0.01963699 0.01380971 0.02065494
v -0.01839125 0.01719858 0.02177111
v -0.01194022 0.02087262 0.02346086
v -0.00001655 0.00249327 0.02848662
v -0.01831428 0.01471733 0.02183259
v -0.00129904 0.00190957 0.02846866
v -0.00417885 0.01886491 0.02802436
v -0.02731981 0.01876522 0.00787135
v -0.02309028 0.02033263 0.01372927
v -0.00037989 0.02249999 0.00031623
v -0.01975648 0.01585740 0.02053730
v -0.01561684 0.00486230 0.02383987
v -0.00807281 0.01132040 0.02732453
v -0.02561999 0.02039316 0.00788361
v -0.01976910 0.00117772 0.02052837
v -0.02001552 0.02061560 0.01749434
v -0.02588815 0.01917812 0.01069834
v -0.00946875 0.00002789 0.02686664
v -0.02476730 0.00211644 0.01409241
v -0.02847710 0.00005318 0.00067638
v -0.01881543 0.00011878 0.02139849
v -0.02843970 0.00164297 0.00176162
v -0.00836723 0.01893684 0.02699403
v -0.02548529 0.00067909 0.01275282
v -0.02744368 0.01961934 0.00273581
v -0.02375189 0.01840571 0.01574275
v -0.01221829 0.02242828 0.02151536
v -0.01945037 0.01111406 0.02083035
v -0.01511088 0.00259074 0.02416055
v -0.01020051 0.00792448 0.02661149
v -0.00419627 0.01764484 0.02818831
v -0.02431789 0.01626277 0.01486028
v -0.00849868 0.01051138 0.02720287
v -0.00681526 0.02117545 0.02511017
v -0.01360408 0.00070995 0.02504194
v -0.02758119 0.00107248 0.00717352
v -0.00450111 0.02128640 0.02551048
v -0.00639617 0.02118198 0.02521715
v -0.01323706 0.01683262 0.02523791
v -0.02380265 0.02228829 0.00734956
v -0.02179649 0.01921032 0.01754983
v -0.02170585 0.02233818 0.01212117
v -0.02679263 0.01924491 0.00797205
v -0.01847937 0.00187423 0.02169612
v -0.02251292 0.01990351 0.01543068
v -0.01955943 0.02089348 0.01758828
v -0.01677320 0.00049849 0.02304058
v -0.00608216 0.00618739 0.02784291
v -0.02512134 0.00063537 0.01344886
v -0.02334465 0.00170679 0.01634654
v -0.02768552 0.01873399 0.00656250
v -0.02586627 0.00049169 0.01195144
v -0.01950701 0.00850323 0.02077767
v -0.02244548 0.02119351 0.01312858
v -0.02425436 0.02235377 0.00531552
v -0.00670695 0.01338663 0.02769945
v -0.01783793 0.02234849 0.01725855
v -0.02183391 0.02250000 0.01132276
v -0.00601678 0.01025659 0.02785670
v -0.02766741 0.01827680 0.00679215
v -0.01275301 0.01957752 0.02449991
v -0.00151255 0.00672932 0.02845945
v -0.00663695 0.02205602 0.02424474
v -0.01776692 0.02250000 0.01701162
v -0.01178310 0.00825498 0.02594851
v -0.02814647 0.01760255 0.00446788
v -0.00166809 0.00005138 0.02844758
v -0.02838271 0.00040018 0.00252705
v -0.02725899 0.00100191 0.00831259
v -0.01547480 0.01909997 0.02344723
v -0.00521830 0.01853691 0.02800456
v -0.00211461 0.02054633 0.02656188
v -0.01459534 0.02023514 0.02266870
v -0.02689421 0.02026116 0.00122795
v -0.00202369 0.02044168 0.02667630
v -0.02263215 0.00179080 0.01732045
v -0.00393737 0.02126254 0.02563591
v -0.00333433 0.02035784 0.02662528
v -0.00225427 0.01912498 0.02798155
v -0.02461241 0.00115395 0.01436875
v -0.01655197 0.00092819 0.02319571
v -0.00774513 0.01991812 0.02615343
v -0.00992517 0.01593732 0.02671571
v -0.02181097 0.02060757 0.01520958
v -0.02618135 0.00616426 0.01125919
v -0.02420435 0.00108440 0.01504262
v -0.02451659 0.01863041 0.01453131
v -0.02843030 0.00407358 0.00197799
v -0.02625222 0.02094690 0.00012645
v -0.01978617 0.02071858 0.01759766
v -0.02791068 0.01737040 0.00573708
v -0.01407831 0.02082698 0.02229931
v -0.02624240 0.00075165 0.01110539
v -0.00669192 0.01876313 0.02763773
v -0.01354133 0.01813978 0.02507742
v -0.01824616 0.01663943 0.02188714
v -0.01326114 0.01543909 0.02522563
v -0.02811137 0.00060132 0.00465345
v -0.01300343 0.01970955 0.02421299
v -0.00294959 0.00022060 0.02834690
v -0.01780560 0.01927180 0.02150857
v -0.02552355 0.02019338 0.00880170
v -0.02739032 0.00015545 0.00785648
v -0.02756590 0.01316869 0.00723535
v -0.02426547 0.00349485 0.01494766
v -0.00083658 0.01482430 0.02848655
v -0.02423584 0.01602155 0.01499389
v -0.02678613 0.01989861 0.00527280
v -0.02014836 0.01859526 0.02013865
v -0.02708087 0.00984005 0.00887898
v -0.02326170 0.01028659 0.01646522
v -0.02467808 0.00752444 0.01425066
v -0.02326658 0.01738672 0.01645838
v -0.00004125 0.02224220 0.02492681
v -0.02655336 0.02055128 0.00220279
v -0.02575333 0.02010878 0.00840050
v -0.00267782 0.00148295 0.02837316
v -0.02200522 0.00086013 0.01810816
v -0.02181382 0.01888613 0.01804690
v -0.02095976 0.01163400 0.01931083
v -0.01201361 0.02013862 0.02424674
v -0.00156356 0.01702791 0.02845636
v -0.01335548 0.01459480 0.02517683
v -0.00939588 0.02250000 0.02273383
v -0.00233138 0.01983601 0.02725857
v -0.01308699 0.02179931 0.02175750
v -0.02729905 0.00811769 0.00818562
v -0.02758096 0.01541313 0.00716689
v -0.00004343 0.02250000 0.02357685
v -0.02453592 0.01869842 0.01449928
v -0.02164127 0.01948789 0.01729558
v -0.02842827 0.01842194 0.00199120
v -0.00836136 0.01465042 0.02724318
v -0.00001501 0.02250000 0.01112025
v -0.02808183 0.00359876 0.00484922
v -0.01916156 0.01932037 0.02025022
v -0.01017365 0.01320901 0.02662140
v -0.02545412 0.01953784 0.01081801
v -0.01669656 0.00244034 0.02309654
v -0.02422493 0.01910819 0.01422155
v -0.00953436 0.02024939 0.02520714
v -0.02542763 0.00545159 0.01287045
v -0.02613537 0.01516450 0.01136528
v -0.02603544 0.01967628 0.00891103
v -0.01539328 0.02153754 0.02053265
v -0.02835399 0.00514334 0.00287593
v -0.02278522 0.01931022 0.01608184
v -0.02273154 0.00034229 0.01718511
v -0.02211089 0.02250000 0.01063728
v -0.02676423 0.01356377 0.00978306
v -0.01486091 0.01685317 0.02431843
v -0.02549018 0.02120758 0.00508173
v -0.00616745 0.00042282 0.02782371
v -0.02361687 0.01313880 0.01595226
v -0.01383387 0.01869697 0.02490989
v -0.00813226 0.01801093 0.02730659
v -0.00624485 0.02250000 0.02374822
v -0.01194809 0.00213237 0.02587268
v -0.02820134 0.00035878 0.00407881
v -0.02188158 0.00038623 0.01825440
v -0.01004550 0.00102991 0.02667047
v -0.02790911 0.01929064 0.00004761
v -0.01013887 0.00838093 0.02663554
v -0.01920012 0.01885754 0.02084316
v -0.01489530 0.00074630 0.02429376
v -0.02207277 0.01420153 0.01802890
v -0.02687660 0.01947840 0.00676063
v -0.02459223 0.02213522 0.00482936
v -0.01732170 0.02160521 0.01883977
v -0.02736215 0.01762298 0.00796185
v -0.02730573 0.00976132 0.00816266
v -0.02849977 0.01638516 0.00004465
v -0.02615504 0.01153492 0.01131994
v -0.02373159 0.00043948 0.01577764
v -0.00762477 0.00038438 0.02745084
v -0.02365832 0.02250000 0.00014625
v -0.01637809 0.01871320 0.02329868
v -0.00246604 0.00120377 0.02838991
v -0.01460154 0.02216165 0.02031942
v -0.01703010 0.00705341 0.02285158
v -0.00981608 0.02124329 0.02401094
v -0.00384578 0.02250000 0.02431757
v -0.00789400 0.02247805 0.02339883
v -0.01186387 0.00568857 0.02591239
v -0.01976714 0.00067230 0.02053024
v -0.02441520 0.00033799 0.01469675
v -0.02849606 0.00256390 0.00023633
v -0.01672476 0.01452828 0.02307644
v -0.00078299 0.00327405 0.02848711
v -0.02355563 0.01631964 0.01604128
v -0.02834378 0.01754365 0.00297184
v -0.02392369 0.01961980 0.01371137
v -0.00140957 0.01994236 0.02722033
v -0.01492606 0.00163255 0.02427633
v -0.02817238 0.01901343 0.00057960
v -0.01944238 0.00080585 0.02083603
v -0.02839578 0.01792294 0.00239702
v -0.02198092 0.01960857 0.01667116
v -0.00679273 0.02098921 0.02530902
v -0.00871188 0.02147834 0.02419388
v -0.00145129 0.02075370 0.02640579
v -0.00213163 0.01998613 0.02712608
v -0.01446014 0.01853704 0.02454951
v -0.02815998 0.01154612 0.00436976
v -0.01906480 0.00021485 0.02117619
v -0.00399429 0.01832872 0.02821415
v -0.02681412 0.01438743 0.00965459
v -0.00160076 0.00017100 0.02845254
v -0.02494386 0.01907618 0.01297891
v -0.02387247 0.02226624 0.00717316
v -0.00455079 0.00070642 0.02812796
v -0.02325989 0.00045332 0.01646462
v -0.02442235 0.02250000 0.00270729
v -0.01340339 0.01790614 0.02515121
v -0.00948432 0.01976106 0.02574586
v -0.01554175 0.00057229 0.02388650
v -0.00323229 0.01976385 0.02723765
v -0.02723201 0.00035203 0.00839810
v -0.02849993 0.00297562 0.00001447
v -0.00785671 0.01918567 0.02688011
v -0.02842972 0.00033850 0.00197794
v -0.01121804 0.02186558 0.02271458
v -0.02535421 0.01558632 0.01301290
v -0.01998824 0.00182986 0.02030593
v -0.02234851 0.02145348 0.01278103
v -0.02561220 0.02140866 0.00296716
v -0.02349699 0.01855674 0.01612634
v -0.01713261 0.02167875 0.01890926
v -0.02687942 0.00137844 0.00946639
v -0.01966606 0.01335370 0.02062748
v -0.02166003 0.02012781 0.01623238
v -0.02708856 0.00261176 0.00885587
v -0.02701486 0.01815831 0.00907574
v -0.01125405 0.02249999 0.00000853
v -0.02841312 0.00002082 0.00216676
v -0.02101930 0.02250000 0.01282265
v -0.00695375 0.00109916 0.02763614
v -0.02403088 0.02108809 0.01020949
v -0.02778605 0.00016198 0.00625755
v -0.02148508 0.01250774 0.01872517
v -0.00961865 0.01961755 0.02585067
v -0.01008691 0.01756009 0.02665513
v -0.01557783 0.00325181 0.02386428
v -0.01795025 0.01827475 0.02212181
v -0.01525566 0.01843442 0.02407002
v -0.02112634 0.01869727 0.01912511
v -0.01707016 0.01678288 0.02281755
v -0.02605937 0.01681679 0.01153785
v -0.02742722 0.01873159 0.00761395
v -0.01327279 0.02037843 0.02329217
v -0.01511037 0.02212314 0.02001101
v -0.01139718 0.01925615 0.02550764
v -0.01388097 0.02079042 0.02246678
v -0.00303874 0.01674371 0.02833537
v -0.01752819 0.02033794 0.02034111
v -0.02204832 0.02037184 0.01528105
v -0.02797158 0.00712497 0.00546086
v -0.00122485 0.01808445 0.02847102
v -0.02798555 0.01914036 0.00198534
v -0.01990961 0.02082288 0.01729847
v -0.01442933 0.01962322 0.02349985
v -0.01012687 0.01192592 0.02664010
v -0.02849929 0.00118980 0.00013703
v -0.02068789 0.02156334 0.01513201
v -0.02775033 0.01816074 0.00643275
v -0.00154816 0.02150395 0.02564694
v -0.01172178 0.01473412 0.02597588
v -0.01686393 0.02219529 0.01845584
v -0.02485539 0.02176807 0.00534746
v -0.01860740 0.02079527 0.01870667
v -0.02582391 0.01884455 0.01170238
v -0.00281145 0.00029357 0.02836015
v -0.02317578 0.02238335 0.00879202
v -0.02073844 0.02016388 0.01733680
v -0.02825903 0.00523085 0.00369428
v -0.02027750 0.02232528 0.01440470
v -0.01948682 0.01904686 0.02031413
v -0.02762446 0.01833379 0.00697833
v -0.02711551 0.01956796 0.00530980
v -0.00094410 0.02081621 0.02636013
v -0.02811787 0.00040526 0.00461151
v -0.02842710 0.00966066 0.00202459
v -0.01499094 0.01850154 0.02423675
v -0.01740475 0.01970340 0.02127627
v -0.01759451 0.02076972 0.01971356
v -0.01313795 0.02214445 0.02133072
v -0.01486338 0.01884032 0.02415106
v -0.00027989 0.01939684 0.02778987
v -0.02412267 0.02250000 0.00431769
v -0.02439078 0.01798077 0.01473979
v -0.00347523 0.02088039 0.02608022
v -0.02637794 0.01819233 0.01075777
v -0.01557619 0.01042427 0.02386662
v -0.02849927 0.01658147 0.00013942
v -0.02680867 0.01915035 0.00824372
v -0.02440262 0.02099775 0.00950556
v -0.02731680 0.01988217 0.00018975
v -0.00662132 0.00218710 0.02771944
v -0.01130891 0.02237825 0.02207857
v -0.02455511 0.01767627 0.01446661
v -0.02252828 0.01807092 0.01745532
v -0.00301002 0.01363585 0.02833917
v -0.02630342 0.02076369 0.00264326
v -0.02114114 0.01903574 0.01860663
v -0.02663730 0.02046391 0.00226575
v -0.02759002 0.00318089 0.00714180
v -0.02515722 0.00113502 0.01338313
v -0.00197658 0.02017494 0.02694877
v -0.02258096 0.01702573 0.01738675
v -0.02306591 0.02083391 0.01276017
v -0.01949206 0.02168880 0.01643522
v -0.00285966 0.01869437 0.02835553
v -0.00002041 0.01543877 0.02848950
v -0.02539235 0.02178934 0.00047277
v -0.02808072 0.00234258 0.00485321
v -0.00592076 0.01908423 0.02748222
v -0.00877060 0.02168824 0.02395217
v -0.00589428 0.01871782 0.02786354
v -0.02144906 0.01622252 0.01876595
v -0.01610047 0.01987844 0.02207071
v -0.02259562 0.01273157 0.01736806
v -0.02584925 0.02003679 0.00834068
v -0.01251385 0.00224274 0.02560547
v -0.02813170 0.01905635 0.00052270
v -0.02800098 0.01907415 0.00261927
v -0.01298455 0.00305718 0.02536657
v -0.02826534 0.00015050 0.00364426
v -0.01987790 0.01844437 0.02041330
v -0.01324675 0.02242690 0.02092584
v -0.02319734 0.01820666 0.01655455
v -0.02207755 0.00695651 0.01802289
v -0.02727287 0.01902571 0.00705437
v -0.02145139 0.01899466 0.01830739
v -0.02834591 0.00153475 0.00295160
v -0.00828500 0.00100700 0.02726223
v -0.01256872 0.01812830 0.02557777
v -0.00719798 0.02230211 0.02380613
v -0.01908195 0.00537005 0.02116108
v -0.02257882 0.01098247 0.01738991
v -0.01299518 0.00046737 0.02536074
v -0.02753582 0.01586511 0.00734387
v -0.02085852 0.02010060 0.01728819
v -0.00333405 0.01859724 0.02829819
v -0.02462462 0.01945241 0.01278146
v -0.02709931 0.00217794 0.00882264
v -0.02030457 0.02086303 0.01675033
v -0.01986810 0.01979400 0.01885707
v -0.01407808 0.02250000 0.01985958
v -0.02684265 0.00372568 0.00957486
v -0.00792043 0.01964617 0.02638576
v -0.02705342 0.01682314 0.00896398
v -0.02406097 0.00067453 0.01526447
v -0.00856966 0.01876301 0.02711095
v -0.02428767 0.02247683 0.00453971
v -0.02538736 0.01769654 0.01295050
v -0.02811717 0.01653986 0.00464726
v -0.00861927 0.00022301 0.02716383
v -0.00029964 0.01968196 0.02750311
v -0.02759654 0.00126599 0.00711475
v -0.01289669 0.01939991 0.02462560
v -0.01989895 0.00360209 0.02039610
v -0.00426452 0.01675231 0.02817844
v -0.02768323 0.00010690 0.00672348
v -0.02495407 0.02085358 0.00842048
v -0.00337736 0.01909582 0.02789323
v -0.02450600 0.02249351 0.00297367
v -0.01901017 0.02147096 0.01732119
v -0.01276795 0.01919243 0.02492421
v -0.00614280 0.02196099 0.02447183
v -0.02502464 0.01990865 0.01088749
v -0.00431888 0.00655503 0.02817032
v -0.00111443 0.00043599 0.02847604
v -0.02637567 0.01989326 0.00703511
v -0.02483042 0.00110540 0.01397827
v -0.02519886 0.00439862 0.01330476
v -0.00720695 0.00050515 0.02756629
v -0.00608919 0.02043360 0.02605670
v -0.02363881 0.01790415 0.01591773
v -0.02183817 0.02247027 0.01156755
v -0.00735050 0.00027672 0.02752667
v -0.02193307 0.00041046 0.01819350
v -0.01850056 0.01912465 0.02110688
v -0.02545404 0.00095024 0.01281878
v -0.02710585 0.01743519 0.00879793
v -0.02092176 0.01503820 0.01935213
v -0.01345545 0.00199966 0.02512334
v -0.02098240 0.00508618 0.01928644
v -0.02346137 0.02163240 0.01015304
v -0.02769275 0.01922100 0.00395274
v -0.00997579 0.00647448 0.02669638
v -0.01974206 0.01043144 0.02055347
v -0.00120841 0.02147819 0.02569154
v -0.01704957 0.01589159 0.02283443
v -0.02458568 0.01598338 0.01441232
v -0.02841849 0.01537699 0.00213322
v -0.02533434 0.01531959 0.01304953
v -0.02617728 0.00028815 0.01126718
v -0.02023000 0.01982224 0.01844385
v -0.01318981 0.02114582 0.02245368
v -0.02801631 0.01857513 0.00520646
v -0.01329092 0.02199258 0.02141814
v -0.02232801 0.01893370 0.01732899
v -0.00547279 0.00018164 0.02795261
v -0.02849761 0.01468601 0.00028762
v -0.00416100 0.01931019 0.02757736
v -0.02520817 0.02152301 0.00486763
v -0.01979045 0.01727591 0.02050242
v -0.02259650 0.02249535 0.00994857
v -0.02048666 0.00390644 0.01979912
v -0.02670704 0.00016873 0.00991590
v -0.02200966 0.01746484 0.01810371
v -0.02849865 0.01573729 0.00025798
v -0.02013302 0.00104730 0.02015916
v -0.02730928 0.00358507 0.00814981
v -0.02690608 0.00036627 0.00938742
v -0.02618293 0.00364094 0.01125508
v -0.01684837 0.01857830 0.02298595
v -0.02451554 0.02159441 0.00738163
v -0.02611463 0.00033917 0.01140967
v -0.01936381 0.01681942 0.02090880
v -0.02825304 0.01663885 0.00373534
v -0.01546349 0.02128874 0.02078993
v -0.00435883 0.00349359 0.02816409
v -0.01280928 0.02237253 0.02125109
v -0.00983404 0.01651128 0.02674761
v -0.01299687 0.00431662 0.02536030
v -0.02785262 0.01777335 0.00598911
v -0.00998424 0.00101119 0.02669184
v -0.01894855 0.02250000 0.01552279
v -0.01087931 0.01881018 0.02620772
v -0.00006638 0.00096172 0.02848641
v -0.00649837 0.01835813 0.02774693
v -0.02825994 0.00152687 0.00368761
v -0.02391819 0.02137397 0.00972083
v -0.02232970 0.02135268 0.01301181
v -0.01014313 0.00154401 0.02663389
v -0.00390055 0.02216803 0.02472509
v -0.01705697 0.00842951 0.02283113
v -0.02564599 0.00007590 0.01241333
v -0.00668898 0.02212779 0.02415228
v -0.00149238 0.02220205 0.02494875
v -0.01492183 0.01140185 0.02428071
v -0.01646732 0.00080760 0.02325376
v -0.02328885 0.02037371 0.01330682
v -0.02086294 0.00021363 0.01940863
v -0.00091794 0.02239948 0.02476665
v -0.02261309 0.01870941 0.01732773
v -0.01359969 0.01091797 0.02504441
v -0.02758614 0.00542044 0.00715649
v -0.02441586 0.02065694 0.01040600
v -0.00699110 0.02121396 0.02502172
v -0.01800373 0.01821962 0.02207948
v -0.02681467 0.01584308 0.00965222
v -0.00066224 0.00052688 0.02848640
v -0.01278786 0.00012207 0.02546668
v -0.00084369 0.00388543 0.02848717
v -0.00072185 0.01078601 0.02848882
v -0.01360959 0.01889104 0.02481812
v -0.02367735 0.00249343 0.01586183
v -0.01436722 0.01927919 0.02393362
v -0.01018535 0.00053653 0.02661764
v -0.02582716 0.02116393 0.00319727
v -0.02390492 0.01944545 0.01409931
v -0.01981848 0.01894718 0.02011989
v -0.02792081 0.00029371 0.00567255
v -0.02471779 0.02230369 0.00285136
v -0.01069029 0.02250000 0.02213999
v -0.01486459 0.01677274 0.02431628
v -0.00894939 0.02197176 0.02358403
v -0.02039398 0.01906000 0.01937410
v -0.02326143 0.00535070 0.01646406
v -0.01577075 0.02099049 0.02093040
v -0.01740147 0.02197729 0.01824026
v -0.02097087 0.00768465 0.01929911
v -0.01141868 0.01721610 0.02610256
v -0.01579698 0.02045906 0.02157206
v -0.02615307 0.01721972 0.01132378
v -0.02478928 0.01874156 0.01395306
v -0.02808017 0.00468954 0.00485945
v -0.02650499 0.01893576 0.00980236
v -0.02832433 0.01878624 0.00222585
v -0.01250798 0.00615404 0.02560831
v -0.02572234 0.02135773 0.00247151
v -0.01116100 0.02173156 0.02289097
v -0.00852892 0.01828880 0.02719149
v -0.01871936 0.01884248 0.02128964
v -0.02022309 0.02221550 0.01466028
v -0.02845637 0.00006188 0.00124301
v -0.00672930 0.01828864 0.02769416
v -0.02681756 0.00129785 0.00963903
v -0.02345411 0.02250000 0.00729442
v -0.00006952 0.02249999 0.00234202
v -0.02677432 0.01954019 0.00691162
v -0.01957211 0.01775734 0.02071609
v -0.02181770 0.01928152 0.01740781
v -0.02424743 0.00345347 0.01497595
v -0.02747407 0.01872618 0.00746750
v -0.02598694 0.01789022 0.01169937
v -0.02212510 0.00259755 0.01796424
v -0.00930021 0.01870151 0.02692781
v -0.02717720 0.01831731 0.00857178
v -0.01508746 0.01877699 0.02408471
v -0.02835703 0.01566407 0.00283628
v -0.02652393 0.00003397 0.01037711
v -0.02823168 0.01888869 0.00210977
v -0.02804296 0.01898359 0.00309984
v -0.02161803 0.02221204 0.01251818
v -0.02035662 0.02239256 0.01415517
v -0.02823802 0.01788937 0.00385063
v -0.01594584 0.02051570 0.02139526
v -0.02554645 0.02065338 0.00718692
v -0.01492930 0.00560428 0.02427567
v -0.00612858 0.02197032 0.02446520
v -0.00610199 0.01810922 0.02783753
v -0.00251399 0.01836148 0.02838870
v -0.02181034 0.01814483 0.01833953
v -0.01712863 0.00468722 0.02277466
v -0.00610633 0.00036840 0.02783736
v -0.02503998 0.01854308 0.01358304
v -0.02496233 0.02041477 0.00968634
v -0.01157001 0.01601269 0.02603932
v -0.02213676 0.02009703 0.01563591
v -0.01254789 0.00101121 0.02558870
v -0.02472880 0.00050394 0.01416334
v -0.02205946 0.01697935 0.01804478
v -0.01699132 0.01088822 0.02288040
v -0.01246663 0.01826438 0.02562799
v -0.01940684 0.01240775 0.02086977
v -0.02334326 0.02181295 0.00997793
v -0.00680999 0.01466247 0.02767281
v -0.02502369 0.02206130 0.00237274
v -0.00150125 0.01816190 0.02846004
v -0.02152938 0.01828115 0.01867190
v -0.01558848 0.01848024 0.02385650
v -0.02836129 0.00208658 0.00278771
v -0.01033171 0.00015979 0.02655778
v -0.02043129 0.02037978 0.01736797
v -0.02842452 0.01348583 0.00206094
v -0.01253911 0.00175235 0.02559315
v -0.02748169 0.01837361 0.00753771
v -0.02571759 0.02128441 0.00310929
v -0.00606190 0.00662501 0.02784737
v -0.02569440 0.01913568 0.01128550
v -0.02823518 0.00043450 0.00385356
v -0.01175445 0.00273501 0.02595882
v -0.02680453 0.01881684 0.00932455
v -0.00003720 0.02249999 0.00279223
v -0.01019627 0.02064758 0.02450016
v -0.02066789 0.01828562 0.01961126
v -0.02540845 0.01833802 0.01290781
v -0.00690082 0.01866168 0.02764680
v -0.02067022 0.02180837 0.01474637
v -0.00086016 0.01774423 0.02848551
v -0.01665996 0.01759795 0.02312164
v -0.00619968 0.01872387 0.02779065
v -0.00140094 0.00321077 0.02846457
v -0.00813041 0.01018849 0.02730858
v -0.01584689 0.02151199 0.02020279
v -0.00595065 0.00000973 0.02786559
v -0.00683228 0.01119797 0.02766743
v -0.00155202 0.00279786 0.02845630
v -0.02604831 0.01979272 0.00851753
v -0.00262107 0.00390475 0.02837872
v -0.01036159 0.00007237 0.02654505
v -0.02742780 0.01841522 0.00772916
v -0.02303729 0.01872119 0.01673529
v -0.01125136 0.02221577 0.02229786
v -0.02074334 0.01640322 0.01953518
v -0.01973559 0.01974105 0.01906869
v -0.01327303 0.00042480 0.02521748
v -0.02642805 0.02063221 0.00271454
v -0.02848811 0.01862609 0.00054617
v -0.00132508 0.02059789 0.02656775
v -0.00824455 0.01785759 0.02727559
v -0.02697865 0.02000559 0.00338299
v -0.01808830 0.01873440 0.02196901
v -0.02153846 0.00070838 0.01866348
v -0.00176575 0.02231076 0.02480979
v -0.02656690 0.02063283 0.00005003
v -0.01711875 0.02209407 0.01836089
v -0.01729507 0.00198549 0.02264136
v -0.01198605 0.01952502 0.02494210
v -0.01505085 0.01904960 0.02378583
v -0.01027704 0.01869872 0.02657744
v -0.01675574 0.00526606 0.02305351
v -0.02740577 0.01942362 0.00449262
v -0.02820699 0.00215107 0.00404533
v -0.02089632 0.01814162 0.01937936
v -0.01354284 0.00012118 0.02507659
v -0.02222675 0.01987293 0.01589535
v -0.02469822 0.01774416 0.01420601
v -0.01023623 0.00243502 0.02659784
v -0.01768478 0.01875375 0.02226357
v -0.00801768 0.02225805 0.02359222
v -0.02756967 0.01940938 0.00347341
v -0.01949059 0.00283309 0.02079288
v -0.02425076 0.00392870 0.01497079
v -0.02670090 0.01812323 0.00994598
v -0.00855570 0.00482027 0.02718495
v -0.00510440 0.02049210 0.02620276
v -0.01114035 0.02250000 0.02193146
v -0.02328720 0.01912572 0.01567203
v -0.02037341 0.00064875 0.01991520
v -0.02303241 0.02055347 0.01339682
v -0.00296497 0.00332206 0.02834512
v -0.02640519 0.02065456 0.00271746
v -0.00370355 0.02225424 0.02466347
v -0.01229491 0.00095176 0.02570841
v -0.00431330 0.01888516 0.02798142
v -0.02535052 0.01703058 0.01301874
v -0.02497355 0.02217063 0.00116894
v -0.02374300 0.00038294 0.01575983
v -0.01168275 0.02143472 0.02295842
v -0.02414726 0.02168842 0.00817557
v -0.02553549 0.01872457 0.01258477
v -0.00803108 0.00030693 0.02733502
v -0.02836256 0.01647871 0.00277350
v -0.02146349 0.00042243 0.01874675
v -0.01670704 0.01229429 0.02308936
v -0.00076119 0.01875773 0.02843149
v -0.02545726 0.00086461 0.01281202
v -0.02839873 0.00015604 0.00233188
v -0.02210662 0.00724184 0.01798709
v -0.01000866 0.00234845 0.02668395
v -0.01944672 0.01680637 0.02083441
v -0.02826204 0.00085831 0.00367256
v -0.00249273 0.01995970 0.02711745
v -0.02820222 0.00253149 0.00407782
v -0.02820465 0.00136650 0.00406011
v -0.02801054 0.00034216 0.00524874
v -0.01640311 0.01850658 0.02329780
v -0.00684375 0.02154337 0.02472124
v -0.02794429 0.01891507 0.00435627
v -0.00258011 0.00434398 0.02838236
v -0.00288955 0.01849170 0.02835266
v -0.02602463 0.00640019 0.01161632
v -0.02426043 0.01263248 0.01495583
v -0.02730085 0.01192456 0.00817989
v -0.01845518 0.00345315 0.02171725
v -0.00781680 0.00225262 0.02739697
v -0.01285688 0.00019606 0.02543158
v -0.01354261 0.00350739 0.02507671
v -0.01679932 0.01792238 0.02302182
v -0.01954659 0.02069454 0.01788966
v -0.01062235 0.02235116 0.02244700
v -0.00846032 0.01642431 0.02721513
v -0.00837871 0.02101783 0.02478927
v -0.01399650 0.02116481 0.02194783
v -0.02070715 0.01203083 0.01957315
v -0.00294760 0.01159274 0.02834709
v -0.02183119 0.02222182 0.01213502
v -0.02597767 0.01874252 0.01161797
v -0.00621898 0.01824712 0.02781079
v -0.02600963 0.01653659 0.01165078
v -0.01112092 0.02166995 0.02297792
v -0.01357489 0.00101727 0.02505894
v -0.02830803 0.00043315 0.00327026
v -0.01693742 0.00034322 0.02291901
v -0.00442965 0.01842999 0.02814806
v -0.02798875 0.01726225 0.00536034
v -0.01321234 0.01910234 0.02479542
v -0.02145896 0.02082893 0.01532641
v -0.02112562 0.02246766 0.01281127
v -0.01357014 0.00423384 0.02506168
v -0.02325504 0.02238612 0.00856706
v -0.01848163 0.01834480 0.02169073
v -0.02812351 0.01435955 0.00460930
v -0.01685805 0.01881201 0.02283985
v -0.02208725 0.01712023 0.01801048
v -0.02129025 0.02238324 0.01271132
v -0.02526854 0.02193047 0.00006246
v -0.01785792 0.01937650 0.02132879
v -0.02112086 0.00022877 0.01913091
v -0.01928618 0.01293148 0.02097843
v -0.02798643 0.00191633 0.00538178
v -0.02804089 0.00046472 0.00508002
v -0.00292119 0.01684798 0.02834962
v -0.00745293 0.01884384 0.02734531
v -0.00451910 0.02164544 0.02513712
v -0.02560942 0.02101952 0.00540607
v -0.01553585 0.01434510 0.02389280
v -0.01642689 0.01881145 0.02314562
v -0.02825876 0.01760994 0.00368734
v -0.00845737 0.02039179 0.02542645
v -0.01603346 0.00066091 0.02355203
v -0.00930055 0.02209931 0.02329462
v -0.02618305 0.00072108 0.01125420
v -0.02845991 0.00002114 0.00113023
v -0.02708529 0.00108877 0.00886455
v -0.00664989 0.01979515 0.02658347
v -0.01840656 0.00028295 0.02175463
v -0.02849341 0.01734993 0.00040860
v -0.00851906 0.01961125 0.02623196
v -0.01209536 0.01876192 0.02573424
v -0.00008885 0.00052537 0.02848632
v -0.02217838 0.02161971 0.01274473
v -0.02822183 0.00101951 0.00394420
v -0.01339456 0.00837129 0.02515589
v -0.00994982 0.01684705 0.02670649
v -0.02772278 0.01914488 0.00427265
v -0.01182373 0.01761275 0.02593034
v -0.01109490 0.00079145 0.02623235
v -0.01856379 0.00041675 0.02162156
v -0.00583311 0.01702286 0.02789220
v -0.00005446 0.01573673 0.02848959
v -0.02810751 0.01838740 0.00469990
v -0.02105799 0.01851261 0.01920104
v -0.01406922 0.02005715 0.02320630
v -0.00705746 0.01885750 0.02744052
v -0.01892804 0.00146667 0.02129836
v -0.02751615 0.00015383 0.00740397
v -0.02045077 0.01892198 0.01951382
v -0.02840956 0.01676813 0.00223760
v -0.02209287 0.01494005 0.01800381
v -0.01670554 0.00852931 0.02309038
v -0.00424063 0.01382134 0.02818184
v -0.00682708 0.00565520 0.02766984
v -0.02404782 0.01925586 0.01423012
v -0.02843464 0.00581271 0.00188550
v -0.02739348 0.01948533 0.00415596
v -0.01209188 0.01862607 0.02580424
v -0.01182415 0.01937304 0.02518624
v -0.00606511 0.01899461 0.02754292
v -0.01352155 0.02159181 0.02174674
v -0.02094343 0.00029474 0.01932536
f 826 151 124
f 124 151 394
f 65 394 350
f 124 394 65
f 82 124 307
f 124 65 307
f 307 65 74
f 260 245 71
f 71 678 260
f 265 678 71
f 141 826 124
f 141 124 82
f 678 265 135
f 135 265 71
f 365 65 350
f 74 65 365
f 245 260 36
f 36 82 68
f 36 260 82
f 678 826 623
f 826 141 623
f 623 260 678
f 82 260 623
f 623 141 82
f 562 826 678
f 678 135 562
f 15 635 690
f 577 36 68
f 245 36 577
f 151 826 198
f 690 819 198
f 198 819 151
f 82 307 802
f 802 307 74
f 68 82 367
f 489 419 245
f 690 635 366
f 366 819 690
f 635 15 570
f 690 198 231
f 531 612 86
f 497 344 82
f 560 367 63
f 255 598 776
f 776 314 255
f 419 751 836
f 131 751 419
f 419 489 131
f 709 577 68
f 709 572 577
f 382 460 5
f 195 560 63
f 367 560 195
f 68 367 195
f 195 255 68
f 817 314 776
f 600 314 817
f 153 318 394
f 120 570 24
f 24 570 15
f 612 637 456
f 531 86 58
f 293 303 703
f 74 365 293
f 350 303 293
f 293 365 350
f 802 86 205
f 636 86 612
f 404 119 539
f 539 119 660
f 539 89 510
f 703 303 425
f 63 367 794
f 794 367 510
f 68 255 288
f 288 255 314
f 783 677 97
f 317 570 120
f 568 644 32
f 587 503 585
f 585 198 826
f 585 503 198
f 198 503 339
f 339 309 198
f 137 587 687
f 137 503 587
f 687 339 137
f 137 339 503
f 448 314 600
f 600 372 448
f 848 620 691
f 444 135 71
f 444 562 135
f 444 836 562
f 71 245 444
f 245 419 444
f 419 836 444
f 826 562 117
f 577 572 523
f 523 572 397
f 751 131 523
f 126 342 231
f 690 231 534
f 534 342 690
f 231 342 534
f 460 382 310
f 689 382 5
f 415 382 689
f 776 598 732
f 732 430 776
f 598 255 732
f 255 195 732
f 79 195 63
f 5 460 79
f 460 195 79
f 819 366 619
f 151 819 619
f 619 394 151
f 98 153 535
f 318 153 98
f 394 318 98
f 98 543 394
f 535 543 98
f 703 153 850
f 153 219 850
f 152 24 15
f 347 720 296
f 27 730 777
f 488 730 27
f 695 739 586
f 86 636 390
f 390 205 86
f 82 344 189
f 344 622 189
f 189 367 82
f 510 367 189
f 189 539 510
f 344 497 420
f 420 622 344
f 497 622 420
f 539 622 20
f 20 104 539
f 742 662 497
f 82 802 742
f 742 497 82
f 636 662 246
f 246 390 636
f 186 20 485
f 485 622 497
f 485 20 622
f 823 425 543
f 703 425 823
f 823 543 535
f 823 153 703
f 535 153 823
f 63 794 4
f 95 442 63
f 63 4 95
f 43 366 635
f 43 494 366
f 783 97 423
f 635 570 528
f 609 746 261
f 89 746 609
f 519 660 783
f 519 539 660
f 89 539 519
f 519 746 89
f 510 89 3
f 87 358 461
f 68 288 313
f 313 288 314
f 397 572 333
f 333 256 210
f 500 194 169
f 644 194 500
f 346 448 372
f 661 620 682
f 661 691 620
f 562 836 72
f 72 117 562
f 320 585 826
f 587 585 320
f 577 523 411
f 411 523 131
f 342 126 84
f 38 474 736
f 736 231 38
f 33 766 474
f 33 385 766
f 117 72 684
f 684 72 836
f 684 836 751
f 682 449 686
f 168 447 449
f 460 555 158
f 158 732 460
f 430 732 158
f 479 195 460
f 460 732 479
f 479 732 195
f 548 762 308
f 21 399 711
f 21 300 399
f 300 21 35
f 102 353 776
f 713 353 252
f 615 353 713
f 776 353 615
f 825 60 383
f 600 817 312
f 312 679 600
f 600 679 99
f 816 178 347
f 548 308 707
f 352 219 153
f 352 619 366
f 352 153 394
f 394 619 352
f 822 152 15
f 15 712 822
f 120 24 804
f 734 316 146
f 24 316 734
f 690 488 149
f 149 15 690
f 149 720 15
f 695 586 149
f 149 586 720
f 214 292 521
f 848 691 368
f 368 109 848
f 26 109 368
f 511 488 690
f 690 26 511
f 115 705 777
f 777 705 616
f 616 27 777
f 620 26 187
f 26 429 187
f 649 26 690
f 690 342 649
f 342 84 649
f 833 739 695
f 739 833 289
f 289 833 695
f 58 328 322
f 263 413 669
f 219 413 263
f 703 850 263
f 263 328 58
f 263 850 219
f 263 86 703
f 263 58 86
f 531 58 837
f 58 640 837
f 293 455 428
f 703 86 326
f 326 293 703
f 326 455 293
f 280 622 539
f 539 189 280
f 280 189 622
f 104 20 171
f 404 539 796
f 539 104 796
f 737 357 662
f 497 662 597
f 662 357 597
f 764 637 612
f 802 205 445
f 445 742 802
f 436 662 636
f 477 405 442
f 472 409 259
f 494 43 842
f 541 43 635
f 635 528 541
f 783 423 629
f 629 423 608
f 629 746 783
f 681 746 629
f 729 608 111
f 608 423 111
f 111 97 729
f 111 423 97
f 216 608 729
f 271 609 261
f 475 3 89
f 783 746 402
f 402 519 783
f 746 519 402
f 242 461 244
f 244 461 358
f 681 629 514
f 629 17 514
f 242 244 181
f 181 244 358
f 738 709 68
f 68 313 738
f 125 256 758
f 210 256 125
f 572 758 203
f 758 256 203
f 397 333 439
f 439 333 210
f 821 225 169
f 484 118 824
f 169 194 763
f 508 500 169
f 272 372 600
f 272 108 372
f 372 108 631
f 631 346 372
f 715 27 631
f 631 108 715
f 631 27 484
f 682 620 563
f 563 449 682
f 826 117 588
f 588 320 826
f 587 320 588
f 162 231 736
f 49 231 502
f 49 126 231
f 554 49 502
f 554 84 126
f 126 49 554
f 766 385 808
f 385 33 433
f 474 38 433
f 433 33 474
f 403 248 231
f 309 248 403
f 403 231 198
f 198 309 403
f 765 248 309
f 309 339 765
f 114 765 339
f 45 193 253
f 810 568 32
f 810 168 568
f 61 478 775
f 442 405 668
f 188 604 711
f 711 399 188
f 399 79 188
f 188 79 63
f 711 604 401
f 401 604 478
f 478 700 401
f 553 310 382
f 417 555 460
f 460 532 417
f 779 532 460
f 460 308 779
f 779 308 204
f 685 762 548
f 204 308 201
f 201 308 633
f 813 308 460
f 295 707 617
f 353 102 100
f 776 430 698
f 698 102 776
f 776 615 786
f 786 77 776
f 786 103 77
f 383 77 853
f 853 825 383
f 77 103 853
f 561 825 715
f 60 825 561
f 715 108 561
f 66 825 713
f 713 252 66
f 48 99 679
f 60 99 48
f 383 60 48
f 548 178 716
f 716 846 548
f 178 846 716
f 548 846 319
f 319 846 750
f 750 685 319
f 270 846 178
f 178 311 789
f 789 311 648
f 648 712 789
f 789 712 15
f 347 178 789
f 789 720 347
f 15 720 789
f 797 375 548
f 548 707 797
f 814 640 58
f 199 352 366
f 24 152 336
f 336 316 24
f 120 804 291
f 583 797 133
f 375 797 583
f 715 825 852
f 665 308 762
f 592 149 292
f 488 521 755
f 755 521 292
f 393 268 161
f 161 13 393
f 161 268 715
f 26 368 507
f 507 511 26
f 771 110 306
f 62 730 488
f 556 830 214
f 27 830 556
f 488 27 556
f 556 521 488
f 214 521 556
f 373 268 393
f 715 268 373
f 373 27 715
f 373 830 27
f 27 616 30
f 484 27 30
f 30 225 484
f 30 686 225
f 682 686 30
f 620 187 11
f 11 563 620
f 179 563 11
f 11 187 429
f 284 429 26
f 26 649 284
f 284 11 429
f 649 11 284
f 720 586 772
f 772 701 720
f 695 676 41
f 41 289 695
f 676 289 41
f 652 606 832
f 832 398 652
f 315 289 676
f 832 852 315
f 487 837 197
f 748 322 328
f 328 277 748
f 328 263 844
f 844 277 328
f 710 802 74
f 74 293 710
f 101 611 651
f 22 463 628
f 434 737 662
f 637 764 726
f 261 733 44
f 733 140 44
f 44 271 261
f 638 827 566
f 639 4 794
f 639 407 4
f 140 407 639
f 176 140 733
f 176 407 140
f 262 477 533
f 364 97 632
f 632 482 364
f 580 409 437
f 409 472 671
f 628 409 671
f 494 842 75
f 545 671 472
f 729 97 584
f 584 338 729
f 97 338 584
f 729 338 281
f 67 281 338
f 379 629 608
f 785 629 379
f 224 216 729
f 729 281 224
f 281 67 224
f 224 541 528
f 19 629 785
f 19 17 629
f 785 379 19
f 340 475 89
f 3 475 782
f 510 3 782
f 358 509 321
f 321 181 358
f 285 321 509
f 181 321 285
f 157 358 261
f 157 509 358
f 261 746 650
f 650 746 681
f 211 655 317
f 23 655 180
f 570 317 23
f 317 655 23
f 681 514 486
f 486 650 681
f 741 650 486
f 571 738 313
f 571 194 644
f 644 568 571
f 568 738 571
f 449 138 740
f 348 125 209
f 208 738 568
f 210 125 443
f 443 123 210
f 751 123 443
f 474 766 443
f 443 449 474
f 443 138 449
f 443 114 646
f 42 123 751
f 42 324 123
f 332 523 397
f 123 324 332
f 206 333 572
f 572 203 206
f 154 118 484
f 314 448 725
f 815 824 118
f 169 763 165
f 165 763 582
f 854 508 169
f 447 508 854
f 449 447 854
f 854 686 449
f 784 179 645
f 784 563 179
f 449 563 784
f 117 684 237
f 237 588 117
f 237 684 587
f 587 588 237
f 493 162 790
f 493 554 502
f 790 554 493
f 790 162 337
f 474 790 337
f 337 162 736
f 736 474 337
f 449 784 34
f 34 784 645
f 84 554 34
f 84 835 190
f 190 835 645
f 781 808 385
f 385 433 781
f 781 433 38
f 248 765 694
f 765 114 694
f 694 443 766
f 766 808 694
f 114 443 694
f 808 781 694
f 694 781 38
f 694 38 231
f 231 248 694
f 663 45 253
f 253 193 663
f 663 193 687
f 687 587 663
f 751 443 663
f 646 45 663
f 663 443 646
f 692 114 339
f 193 114 692
f 692 339 687
f 687 193 692
f 646 114 14
f 14 45 646
f 14 114 193
f 193 45 14
f 447 168 731
f 168 810 731
f 61 775 529
f 529 775 177
f 63 177 498
f 177 775 498
f 57 1 147
f 147 1 221
f 276 553 382
f 310 553 607
f 460 310 607
f 359 386 399
f 399 300 359
f 803 513 617
f 617 707 803
f 416 513 803
f 803 359 416
f 386 359 803
f 223 779 204
f 532 779 223
f 839 532 392
f 392 532 384
f 392 418 591
f 591 418 589
f 591 839 392
f 286 418 633
f 589 418 286
f 286 852 825
f 286 66 589
f 825 66 286
f 633 308 286
f 589 230 381
f 792 230 589
f 589 66 792
f 491 100 792
f 792 100 102
f 762 685 143
f 143 685 750
f 143 816 347
f 750 846 143
f 846 270 143
f 714 201 633
f 204 201 714
f 714 223 204
f 267 295 35
f 267 21 93
f 267 35 21
f 93 408 267
f 408 295 267
f 491 792 499
f 499 792 66
f 774 685 548
f 548 319 774
f 774 319 685
f 212 270 178
f 816 143 212
f 212 143 270
f 569 583 648
f 375 583 569
f 648 311 569
f 548 375 81
f 375 569 81
f 81 569 524
f 601 478 61
f 61 843 601
f 601 700 478
f 377 843 61
f 55 377 295
f 843 377 55
f 753 199 366
f 152 822 834
f 822 175 834
f 120 249 630
f 630 207 120
f 708 462 69
f 69 249 708
f 462 630 69
f 69 630 249
f 87 461 452
f 452 461 207
f 749 804 708
f 708 291 749
f 749 291 804
f 512 249 120
f 120 291 512
f 708 249 512
f 512 291 708
f 12 227 648
f 648 583 12
f 133 227 12
f 12 583 133
f 136 712 648
f 648 227 136
f 136 227 133
f 770 136 133
f 712 136 770
f 6 852 832
f 832 606 6
f 715 852 6
f 773 795 720
f 226 795 773
f 720 795 787
f 667 592 13
f 695 149 667
f 149 592 667
f 667 676 695
f 567 592 292
f 488 755 559
f 559 755 292
f 559 149 488
f 292 149 559
f 688 771 306
f 777 730 164
f 730 62 164
f 466 62 488
f 287 616 705
f 287 30 616
f 701 772 471
f 471 772 18
f 701 73 517
f 720 701 517
f 226 345 29
f 29 286 226
f 852 286 29
f 654 586 739
f 196 315 676
f 676 667 196
f 196 667 398
f 196 398 832
f 832 315 196
f 52 837 640
f 52 197 837
f 487 197 798
f 798 197 335
f 634 277 8
f 634 748 277
f 8 322 634
f 322 748 634
f 669 277 526
f 277 844 526
f 526 263 669
f 526 844 263
f 802 710 220
f 220 428 455
f 101 651 427
f 660 565 369
f 341 171 20
f 96 612 531
f 96 764 612
f 628 463 182
f 116 96 182
f 182 96 531
f 531 409 182
f 182 409 628
f 693 426 677
f 104 171 745
f 171 495 745
f 662 436 614
f 614 434 662
f 156 456 637
f 737 726 706
f 357 737 706
f 186 485 299
f 2 717 764
f 283 116 811
f 185 801 638
f 638 566 185
f 794 801 185
f 185 639 794
f 140 639 185
f 4 407 618
f 697 358 87
f 261 358 697
f 405 477 473
f 477 262 473
f 533 172 626
f 626 262 533
f 515 482 632
f 515 241 482
f 696 301 632
f 632 628 696
f 628 671 696
f 167 75 842
f 632 301 769
f 301 696 769
f 769 43 632
f 43 541 546
f 818 224 528
f 528 28 818
f 274 379 608
f 274 19 379
f 550 528 570
f 550 28 528
f 17 28 183
f 28 550 183
f 767 28 17
f 17 19 767
f 767 274 28
f 19 274 767
f 89 609 64
f 64 340 89
f 356 271 827
f 238 157 421
f 305 343 181
f 570 23 155
f 514 23 273
f 273 486 514
f 438 23 180
f 242 181 602
f 181 343 602
f 120 207 279
f 279 343 120
f 279 602 343
f 242 602 279
f 279 461 242
f 207 461 279
f 468 571 313
f 468 313 314
f 568 740 536
f 536 740 138
f 536 208 568
f 138 443 59
f 209 738 422
f 738 208 422
f 422 348 209
f 523 332 704
f 704 332 324
f 484 225 809
f 809 154 484
f 824 815 331
f 331 815 778
f 778 725 331
f 331 725 448
f 330 821 169
f 169 165 330
f 847 493 502
f 162 493 847
f 502 231 847
f 231 162 847
f 645 835 80
f 80 34 645
f 80 835 84
f 84 34 80
f 449 34 202
f 474 449 202
f 202 790 474
f 202 554 790
f 202 34 554
f 179 11 673
f 673 11 649
f 645 179 673
f 673 190 645
f 673 649 84
f 84 190 673
f 587 684 389
f 389 663 587
f 389 684 751
f 751 663 389
f 442 668 391
f 63 442 391
f 391 177 63
f 221 177 391
f 391 147 221
f 553 276 641
f 641 276 603
f 641 603 724
f 724 799 641
f 308 813 54
f 54 799 724
f 724 707 54
f 54 707 308
f 232 803 707
f 105 803 232
f 689 105 232
f 415 689 232
f 532 223 855
f 855 384 532
f 414 665 376
f 308 665 414
f 414 286 308
f 579 795 226
f 226 286 579
f 579 286 795
f 530 417 589
f 589 381 530
f 744 792 102
f 230 792 744
f 424 665 762
f 762 143 424
f 424 143 160
f 347 160 374
f 374 143 347
f 160 143 374
f 192 100 491
f 192 134 100
f 491 499 192
f 353 100 83
f 100 134 83
f 178 816 574
f 574 212 178
f 816 212 574
f 548 524 657
f 524 569 657
f 657 178 548
f 657 569 311
f 657 311 178
f 378 524 548
f 548 81 378
f 378 81 524
f 316 336 327
f 327 16 316
f 459 797 707
f 435 377 61
f 435 1 57
f 250 172 533
f 405 172 250
f 250 668 405
f 707 295 240
f 295 377 240
f 240 459 707
f 595 295 408
f 595 55 295
f 552 814 406
f 406 90 552
f 552 90 640
f 640 814 552
f 352 199 666
f 219 352 666
f 666 413 219
f 669 413 666
f 666 277 669
f 544 734 146
f 146 355 544
f 492 355 146
f 207 630 470
f 470 630 432
f 470 452 207
f 432 452 470
f 432 630 94
f 440 432 87
f 87 452 440
f 440 452 432
f 708 804 371
f 25 377 87
f 87 432 25
f 576 804 24
f 576 856 804
f 39 770 175
f 39 175 822
f 39 822 712
f 712 770 39
f 723 161 715
f 715 6 723
f 13 161 723
f 723 6 606
f 606 652 723
f 723 667 13
f 723 652 398
f 398 667 723
f 325 643 160
f 347 296 325
f 325 160 347
f 599 787 282
f 643 787 599
f 166 296 720
f 720 787 166
f 166 325 296
f 166 787 643
f 643 325 166
f 294 567 393
f 592 567 294
f 393 13 294
f 13 592 294
f 144 688 306
f 115 688 144
f 264 115 777
f 264 688 115
f 747 466 488
f 306 110 747
f 747 511 306
f 488 511 747
f 254 517 829
f 829 76 254
f 829 517 73
f 170 345 254
f 170 29 345
f 658 29 467
f 852 29 658
f 658 315 852
f 289 315 658
f 454 654 739
f 739 289 454
f 428 220 92
f 92 220 710
f 50 427 651
f 50 651 565
f 660 119 50
f 50 565 660
f 783 148 85
f 85 677 783
f 85 611 677
f 269 148 674
f 674 148 783
f 463 22 642
f 642 22 171
f 171 341 642
f 239 116 283
f 453 693 171
f 426 693 453
f 426 174 139
f 677 426 139
f 171 174 145
f 145 174 426
f 171 22 549
f 549 174 171
f 233 495 171
f 171 91 233
f 677 611 233
f 233 611 101
f 171 693 247
f 247 91 171
f 531 222 558
f 558 396 531
f 558 222 437
f 437 396 558
f 437 409 191
f 191 396 437
f 191 409 531
f 531 396 191
f 702 156 637
f 434 156 702
f 737 434 702
f 672 593 597
f 672 597 357
f 520 726 764
f 520 706 726
f 186 299 400
f 400 299 283
f 283 811 400
f 463 624 400
f 717 2 129
f 129 2 299
f 283 299 537
f 299 2 537
f 764 96 88
f 88 2 764
f 827 271 735
f 271 594 735
f 271 44 849
f 849 594 271
f 578 697 87
f 578 250 533
f 87 377 578
f 377 250 578
f 37 176 733
f 37 733 261
f 261 697 37
f 490 167 437
f 75 167 490
f 437 222 490
f 490 222 10
f 10 388 490
f 490 388 75
f 437 167 46
f 46 167 545
f 545 769 302
f 302 769 696
f 671 545 302
f 302 696 671
f 545 167 234
f 234 31 545
f 234 167 842
f 234 842 43
f 258 769 545
f 545 31 258
f 43 769 258
f 258 31 43
f 621 546 541
f 541 224 621
f 621 224 67
f 480 364 482
f 482 363 480
f 97 364 480
f 480 338 97
f 480 67 338
f 216 224 547
f 224 818 547
f 547 28 216
f 547 818 28
f 216 28 304
f 28 274 304
f 608 216 304
f 304 274 608
f 173 356 827
f 173 827 638
f 638 801 173
f 173 801 794
f 173 794 510
f 510 782 173
f 609 271 323
f 271 782 575
f 782 9 575
f 575 323 271
f 441 782 475
f 441 9 782
f 238 421 163
f 218 157 261
f 218 421 157
f 590 157 238
f 509 157 590
f 590 285 509
f 181 285 590
f 590 305 181
f 655 211 431
f 431 211 261
f 431 722 525
f 650 722 431
f 261 650 431
f 752 23 514
f 752 155 23
f 183 155 752
f 752 514 17
f 17 183 752
f 570 155 113
f 113 155 183
f 113 550 570
f 113 183 550
f 506 438 180
f 125 348 496
f 496 443 125
f 496 59 443
f 225 821 840
f 840 809 225
f 582 763 213
f 553 54 451
f 451 607 553
f 451 54 813
f 451 813 460
f 460 607 451
f 334 414 282
f 286 414 334
f 282 787 334
f 795 286 334
f 334 787 795
f 555 417 257
f 417 530 257
f 665 424 812
f 376 665 812
f 812 424 160
f 160 643 812
f 7 756 53
f 7 551 756
f 184 16 121
f 121 756 184
f 121 159 756
f 797 459 127
f 756 551 127
f 464 435 57
f 377 435 464
f 464 250 377
f 377 719 680
f 680 240 377
f 377 122 605
f 754 630 462
f 754 94 630
f 377 25 664
f 664 122 377
f 450 122 664
f 664 371 450
f 542 25 800
f 643 599 573
f 573 414 376
f 376 812 573
f 573 812 643
f 772 557 457
f 18 772 457
f 289 658 613
f 613 454 289
f 613 658 467
f 40 501 660
f 40 581 501
f 660 369 40
f 501 581 56
f 56 674 501
f 269 674 56
f 504 624 463
f 463 642 504
f 410 96 116
f 116 239 410
f 677 139 380
f 380 97 677
f 632 97 380
f 380 628 632
f 677 233 275
f 275 233 91
f 717 851 831
f 764 717 831
f 831 851 593
f 593 672 831
f 463 400 298
f 298 400 811
f 533 395 329
f 329 578 533
f 407 176 387
f 176 37 387
f 278 37 697
f 235 580 437
f 437 46 235
f 235 472 259
f 235 545 472
f 235 46 545
f 259 409 235
f 409 580 235
f 349 234 43
f 360 621 67
f 546 621 360
f 67 480 360
f 360 480 363
f 43 363 476
f 476 363 482
f 482 241 476
f 632 43 476
f 476 515 632
f 241 515 476
f 43 546 820
f 820 363 43
f 546 360 820
f 820 360 363
f 768 590 238
f 305 590 768
f 238 163 768
f 768 163 421
f 305 627 217
f 180 655 505
f 655 150 505
f 655 431 243
f 243 150 655
f 243 431 525
f 438 506 354
f 741 486 354
f 154 809 351
f 53 336 805
f 805 7 53
f 53 756 659
f 756 159 659
f 16 327 727
f 727 121 16
f 756 127 625
f 625 127 459
f 838 719 377
f 377 605 838
f 804 856 518
f 518 371 804
f 450 371 518
f 518 122 450
f 518 605 122
f 458 753 366
f 458 761 412
f 366 494 458
f 494 75 596
f 75 388 596
f 128 388 10
f 10 222 128
f 146 361 522
f 522 492 146
f 647 25 542
f 647 664 25
f 371 664 647
f 647 542 708
f 708 371 647
f 845 800 25
f 432 94 845
f 845 25 432
f 542 800 656
f 708 542 656
f 24 734 70
f 734 540 70
f 719 540 51
f 51 540 734
f 51 780 719
f 414 573 130
f 130 573 599
f 282 414 130
f 130 599 282
f 254 76 228
f 228 170 254
f 557 170 228
f 228 457 557
f 670 613 467
f 654 454 670
f 454 613 670
f 395 618 683
f 683 618 407
f 31 234 200
f 234 349 200
f 43 31 200
f 200 349 43
f 728 627 305
f 305 768 728
f 483 217 317
f 741 354 527
f 527 354 506
f 481 351 213
f 154 351 481
f 481 213 763
f 469 805 336
f 538 625 459
f 107 361 16
f 107 16 184
f 699 680 719
f 719 780 699
f 719 838 516
f 605 518 516
f 465 666 199
f 277 666 465
f 465 458 8
f 8 277 465
f 290 458 412
f 370 458 494
f 761 458 370
f 494 596 370
f 370 596 761
f 806 596 388
f 761 596 806
f 388 128 806
f 791 222 531
f 791 128 222
f 297 462 708
f 708 656 297
f 297 845 94
f 800 845 297
f 297 656 800
f 297 754 462
f 94 754 297
f 278 683 653
f 721 278 697
f 362 329 395
f 395 683 362
f 236 728 768
f 627 728 236
f 236 218 261
f 236 217 627
f 421 218 236
f 236 768 421
f 305 217 743
f 217 483 743
f 743 483 317
f 743 317 120
f 120 343 743
f 343 305 743
f 841 336 152
f 841 469 336
f 361 625 142
f 625 538 142
f 142 522 361
f 132 625 361
f 361 107 132
f 251 838 605
f 605 516 251
f 251 516 838
f 788 465 199
f 458 465 788
f 199 753 788
f 753 458 788
f 757 322 8
f 8 458 757
f 58 322 757
f 757 90 406
f 757 814 58
f 406 814 757
f 412 78 229
f 229 78 446
f 412 761 807
f 807 78 412
f 215 653 683
f 407 387 215
f 215 683 407
f 793 683 278
f 278 721 793
f 261 211 106
f 106 236 261
f 106 211 317
f 317 217 106
f 217 236 106
f 458 290 675
f 675 757 458
f 446 78 266
f 757 675 564
f 90 757 564
f 760 675 290
f 335 197 760
f 112 266 78
f 610 266 112
f 798 266 47
f 487 798 47
f 47 266 610
f 759 760 197
f 675 760 828
f 760 759 718
f 718 828 760
f 425 303 350
f 350 394 425
f 394 543 425
f 411 131 489
f 245 577 411
f 411 489 245
f 109 26 620
f 109 620 848
f 205 390 445
f 445 246 662
f 390 246 445
f 662 742 445
f 125 758 572
f 709 738 125
f 572 709 125
f 125 738 209
f 853 615 713
f 103 786 853
f 713 825 853
f 853 786 615
f 561 272 600
f 600 99 561
f 561 99 60
f 108 272 561
f 776 77 48
f 48 817 776
f 48 77 383
f 48 312 817
f 679 312 48
f 568 168 740
f 740 168 449
f 210 123 332
f 397 439 332
f 332 439 210
f 206 203 256
f 256 333 206
f 225 686 854
f 169 225 854
f 731 508 447
f 32 644 731
f 644 500 731
f 500 508 731
f 731 810 32
f 478 604 498
f 498 188 63
f 498 775 478
f 604 188 498
f 300 35 513
f 416 359 513
f 513 359 300
f 513 295 617
f 35 295 513
f 5 79 803
f 803 689 5
f 803 79 399
f 803 105 689
f 399 386 803
f 532 839 591
f 591 417 532
f 589 417 591
f 567 373 393
f 567 292 214
f 214 830 567
f 830 373 567
f 345 517 254
f 345 773 720
f 226 773 345
f 720 517 345
f 220 326 86
f 220 86 802
f 455 326 220
f 156 636 612
f 612 456 156
f 156 436 636
f 156 614 436
f 434 614 156
f 442 95 618
f 618 95 4
f 533 477 618
f 618 477 442
f 618 395 533
f 405 473 626
f 626 172 405
f 626 473 262
f 704 42 751
f 751 523 704
f 324 42 704
f 448 346 331
f 484 824 331
f 331 631 484
f 346 631 331
f 54 641 799
f 553 641 54
f 232 276 382
f 232 382 415
f 232 707 724
f 724 603 232
f 603 276 232
f 223 714 855
f 392 384 855
f 855 418 392
f 633 418 855
f 855 714 633
f 83 66 252
f 83 252 353
f 134 192 83
f 83 499 66
f 83 192 499
f 435 177 221
f 61 529 435
f 221 1 435
f 435 529 177
f 711 401 595
f 595 21 711
f 595 408 93
f 93 21 595
f 595 401 700
f 700 601 595
f 595 601 843
f 843 55 595
f 144 661 682
f 144 507 368
f 306 511 144
f 691 661 144
f 144 368 691
f 144 287 705
f 705 115 144
f 511 507 144
f 682 30 144
f 30 287 144
f 110 771 747
f 747 264 777
f 777 164 747
f 771 688 747
f 747 164 62
f 62 466 747
f 688 264 747
f 92 710 293
f 293 428 92
f 660 501 674
f 783 660 674
f 426 453 145
f 145 453 171
f 104 745 233
f 233 119 404
f 404 796 233
f 233 796 104
f 101 427 233
f 233 745 495
f 233 50 119
f 427 50 233
f 637 726 702
f 702 726 737
f 497 597 129
f 129 485 497
f 597 593 129
f 129 851 717
f 129 299 485
f 593 851 129
f 849 44 140
f 849 566 827
f 140 185 849
f 827 735 849
f 849 185 566
f 849 735 594
f 271 356 173
f 173 782 271
f 475 340 441
f 441 64 609
f 340 64 441
f 441 575 9
f 609 323 441
f 323 575 441
f 138 59 496
f 496 536 138
f 208 536 496
f 348 422 496
f 496 422 208
f 257 744 102
f 430 158 257
f 257 158 555
f 257 698 430
f 102 698 257
f 257 381 230
f 257 530 381
f 230 744 257
f 146 316 361
f 316 16 361
f 57 147 464
f 464 391 668
f 668 250 464
f 147 391 464
f 56 651 611
f 565 651 56
f 56 369 565
f 56 148 269
f 611 85 56
f 56 85 148
f 56 40 369
f 581 40 56
f 504 400 624
f 504 20 186
f 186 400 504
f 504 341 20
f 504 642 341
f 410 239 283
f 283 537 410
f 410 88 96
f 410 537 2
f 2 88 410
f 380 549 22
f 380 22 628
f 380 139 174
f 174 549 380
f 275 247 693
f 275 693 677
f 91 247 275
f 831 672 357
f 357 706 831
f 831 520 764
f 706 520 831
f 298 811 116
f 298 182 463
f 116 182 298
f 486 273 354
f 354 273 23
f 23 438 354
f 351 840 821
f 351 165 582
f 821 330 351
f 351 330 165
f 809 840 351
f 582 213 351
f 727 327 336
f 727 336 53
f 53 659 727
f 159 121 727
f 727 659 159
f 18 457 228
f 228 829 73
f 228 73 701
f 701 471 228
f 228 471 18
f 76 829 228
f 670 557 772
f 670 772 586
f 29 170 670
f 586 654 670
f 467 29 670
f 670 170 557
f 527 650 741
f 527 506 180
f 527 722 650
f 525 722 527
f 180 505 527
f 527 243 525
f 527 505 150
f 150 243 527
f 118 154 481
f 481 468 314
f 481 763 194
f 314 725 481
f 194 571 481
f 481 815 118
f 571 468 481
f 481 725 778
f 778 815 481
f 516 576 24
f 516 540 719
f 516 518 856
f 856 576 516
f 24 70 516
f 516 70 540
f 841 770 133
f 133 797 841
f 152 834 841
f 841 834 175
f 175 770 841
f 797 127 841
f 551 7 841
f 841 127 551
f 7 805 841
f 805 469 841
f 355 492 142
f 492 522 142
f 240 680 142
f 734 544 142
f 142 544 355
f 459 240 142
f 142 51 734
f 142 538 459
f 780 51 142
f 680 699 142
f 142 699 780
f 756 625 132
f 184 756 132
f 132 107 184
f 37 278 215
f 215 387 37
f 278 653 215
f 578 329 793
f 697 578 793
f 793 721 697
f 329 362 793
f 793 362 683
f 760 266 798
f 760 290 412
f 760 798 335
f 412 229 760
f 760 229 446
f 446 266 760
f 47 837 487
f 531 837 47
f 761 806 47
f 47 807 761
f 47 806 128
f 47 791 531
f 128 791 47
f 78 807 47
f 47 112 78
f 610 112 47
f 718 564 675
f 718 52 640
f 640 90 718
f 90 564 718
f 197 52 718
f 718 759 197
f 675 828 718

