# https://github.com/mikedh/trimesh
v -0.03200474 0.03729917 -0.04949899
v -0.04389280 0.03288779 -0.04995631
v -0.01902248 0.00001832 -0.00050615
v -0.03715025 0.03841683 -0.00303081
v -0.04813970 0.02682334 -0.00265148
v -0.04958056 0.00027906 -0.01360605
v -0.03568586 0.03866692 -0.01005583
v -0.04592152 0.03095154 -0.00138356
v -0.04306727 0.03444968 -0.00396362
v -0.03770825 0.03809486 -0.00461630
v -0.04817544 0.02656536 -0.00170582
v -0.04168741 0.03540103 -0.00048875
v -0.02497121 0.00441816 -0.00000025
v -0.03899247 0.03528500 -0.04924897
v -0.02567216 0.00035102 -0.01696164
v -0.00417826 0.03947806 -0.04979177
v -0.04920189 0.02497255 -0.00842249
v -0.04495974 0.03249578 -0.00699619
v -0.00125760 0.04371795 -0.00048314
v -0.03007952 0.04088885 -0.00126481
v -0.04281613 0.00011243 -0.01763046
v -0.04798276 0.02768013 -0.00641976
v -0.00017244 0.04230047 -0.01546310
v -0.00009832 0.02573647 -0.01704061
v -0.04478064 0.03252680 -0.00069471
v -0.00065388 0.00014170 -0.00411118
v -0.04239758 0.03507110 -0.00414313
v -0.02341619 0.03852176 -0.04987226
v -0.00148608 0.03953640 -0.04958867
v -0.04516735 0.03206056 -0.00134756
v -0.00861654 0.00016057 -0.01350572
v -0.04098585 0.03612896 -0.00507103
v -0.03848393 0.03766407 -0.00484443
v -0.04839206 0.02694113 -0.00794774
v -0.01565067 0.04275896 -0.00048410
v -0.04975462 0.00401457 -0.00050511
v -0.04503576 0.03256683 -0.01400205
v -0.04998159 0.02450945 -0.02805970
v -0.02892587 0.04102529 -0.00330622
v -0.03360846 0.03992438 -0.00060483
v -0.04558628 0.03168068 -0.04887320
v -0.00082157 0.04330300 -0.00461976
v -0.03946667 0.03674062 -0.01465414
v -0.03924038 0.03727483 -0.00405854
v -0.00069117 0.02485939 -0.00000000
v -0.03068255 0.04078364 -0.00072805
v -0.00065528 0.00006891 -0.00516373
v -0.04344525 0.03410613 -0.00493373
v -0.04372550 0.03385299 -0.00598623
v -0.03529489 0.03649247 -0.04934181
v -0.04543914 0.03174405 -0.00218301
v -0.04498576 0.03213789 -0.04861798
v -0.04312287 0.03442745 -0.00975497
v -0.03641313 0.03630848 -0.04776683
v -0.04971483 0.02380638 -0.01044271
v -0.04138629 0.03586413 -0.00340967
v -0.03619335 0.03853669 -0.00890622
v -0.04849171 0.02616175 -0.00426734
v -0.00617358 0.04358498 -0.00066034
v -0.04553243 0.03173249 -0.00460005
v -0.04909341 0.00016128 -0.01660611
v -0.04895794 0.02486584 -0.00391882
v -0.02885965 0.04105934 -0.00301297
v -0.04457144 0.03245463 -0.04797982
v -0.00002866 0.04161607 -0.02348719
v -0.02245745 0.04233598 -0.00054180
v -0.04924219 0.02208035 -0.00049583
v -0.04208076 0.03531853 -0.00661204
v -0.03783785 0.03812880 -0.00122262
v -0.04003675 0.03675623 -0.00620564
v -0.04733458 0.02894722 -0.00587564
v -0.02459650 0.04197902 -0.00135913
v -0.04877939 0.02668354 -0.01322576
v -0.04727011 0.03006928 -0.04857138
v -0.00066645 0.00049386 -0.01112015
v -0.04459816 0.03222216 -0.00049047
v -0.03097597 0.04061110 -0.00048572
v -0.04660164 0.03002637 -0.00373699
v -0.04840578 0.02616257 -0.00291355
v -0.04822219 0.02739094 -0.00820688
v -0.03878455 0.03749039 -0.00508044
v -0.02239513 0.03865694 -0.04914296
v -0.04852711 0.02567280 -0.00194083
v -0.04378934 0.03383147 -0.01223439
v -0.02998328 0.04069177 -0.00469758
v -0.04959481 0.02411599 -0.00989332
v -0.04796309 0.00018559 -0.00050702
v -0.00158251 0.01875775 -0.00000000
v -0.03519050 0.03931249 -0.00109237
v -0.04700130 0.00001170 -0.00050708
v -0.00065043 0.00066504 -0.00068983
v -0.04213487 0.03531542 -0.00428071
v -0.04336256 0.03398947 -0.00048952
v -0.00651740 0.01348118 -0.00000000
v -0.04536938 0.03176582 -0.00109386
v -0.04923318 0.02341763 -0.00221692
v -0.00081632 0.04336408 -0.00118928
v -0.04248420 0.03490815 -0.01249488
v -0.04776475 0.02818886 -0.00694416
v -0.04227519 0.03514155 -0.00844598
v -0.00471683 0.02505970 -0.00000000
v -0.00206015 0.04365597 -0.00112304
v -0.03991869 0.03690606 -0.00264585
v -0.04734769 0.02830984 -0.00060945
v -0.01443676 0.03917515 -0.04924399
v -0.04996847 0.01166168 -0.01660021
v -0.01304419 0.00007441 -0.01350591
v -0.04523148 0.03207402 -0.00380122
v -0.00035300 0.02536636 -0.00030462
v -0.04326683 0.03426150 -0.00365690
v -0.03651218 0.03880043 -0.00074248
v -0.00022905 0.03969398 -0.04756075
v -0.04820219 0.02730231 -0.00715549
v -0.04426267 0.03319367 -0.00219230
v -0.04025538 0.03662160 -0.00644200
v -0.04817303 0.00039157 -0.01763031
v -0.03422852 0.03967321 -0.00150943
v -0.04836215 0.02773440 -0.01585129
v -0.03605731 0.03847698 -0.01097851
v -0.01357379 0.04317182 -0.00098873
v -0.04799727 0.02745236 -0.00472306
v -0.00003316 0.02543846 -0.00277617
v -0.04989665 0.02359355 -0.01497952
v -0.04994613 0.02064763 -0.00214952
v -0.00712713 0.04354033 -0.00071806
v -0.04988661 0.02512999 -0.03095804
v -0.04858841 0.02851217 -0.04959230
v -0.04131401 0.03433979 -0.04988139
v -0.04576095 0.03160363 -0.00971305
v -0.04397961 0.03360541 -0.00505103
v -0.00596390 0.03943595 -0.04995107
v -0.03885858 0.03756496 -0.00159662
v -0.04911318 0.02443156 -0.00431498
v -0.04872302 0.00089421 -0.00050668
v -0.01059445 0.03933759 -0.04992891
v -0.04803907 0.02749105 -0.00578992
v -0.00650430 0.00019853 -0.00050564
v -0.04176957 0.03559693 -0.00188774
v -0.01572021 0.04301883 -0.00072558
v -0.04923019 0.02755725 -0.04769667
v -0.03708208 0.03806728 -0.01082905
v -0.04979319 0.00083543 -0.01763008
v -0.04841855 0.02743137 -0.01218929
v -0.02966006 0.04095047 -0.00181902
v -0.04891030 0.02808870 -0.04890268
v -0.01176231 0.03943830 -0.04799980
v -0.04957732 0.02474384 -0.01333254
v -0.02407465 0.04202632 -0.00175785
v -0.01234634 0.02244326 -0.00000001
v -0.03744119 0.03790457 -0.00048732
v -0.04778767 0.02865898 -0.01334897
v -0.04648767 0.02991745 -0.00052504
v -0.02008271 0.04251894 -0.00183014
v -0.04969747 0.02124637 -0.00058854
v -0.01257909 0.04324266 -0.00094425
v -0.03265867 0.00002924 -0.01763052
v -0.03741241 0.03829276 -0.00315431
v -0.01957471 0.04247964 -0.00305207
v -0.00065065 0.00039815 -0.00146948
v -0.02618455 0.04174669 -0.00077318
v -0.03206634 0.04033543 -0.00154153
v -0.00363557 0.01550538 -0.00000000
v -0.04641262 0.03085447 -0.01205711
v -0.04048256 0.03650667 -0.00275962
v -0.03183693 0.04039589 -0.00166959
v -0.00716734 0.00029299 -0.01350561
v -0.03330365 0.03970257 -0.00048626
v -0.02787654 0.04137947 -0.00149659
v -0.02595559 0.03814794 -0.04996647
v -0.00013870 0.03971119 -0.01358566
v -0.04543504 0.03165762 -0.00095712
v -0.01278764 0.02226658 -0.00000001
v -0.04867362 0.00002630 -0.01660619
v -0.00078404 0.00060693 -0.00050524
v -0.04993702 0.00445074 -0.01762823
v -0.00080448 0.04041913 -0.00090351
v -0.04998262 0.02245179 -0.00925261
v -0.04129110 0.03575978 -0.01284978
v -0.04631783 0.03103111 -0.04958500
v -0.04939232 0.02449282 -0.00857616
v -0.04993278 0.00665562 -0.01350377
v -0.04797330 0.02612002 -0.00049371
v -0.03822939 0.03793317 -0.00077814
v -0.04454310 0.03308006 -0.01381916
v -0.04782196 0.02764664 -0.00330405
v -0.00001776 0.04048458 -0.03769726
v -0.04921704 0.00017643 -0.01350707
v -0.04995104 0.02635953 -0.04848737
v -0.00067203 0.00107624 -0.01320492
v -0.04056290 0.03633282 -0.00941547
v -0.03998481 0.03679298 -0.00600881
v -0.01397802 0.01780596 -0.00000000
v -0.03559027 0.03902403 -0.00412294
v -0.00112358 0.00033120 -0.00050539
v -0.04877181 0.02580579 -0.00658123
v -0.00079624 0.03835679 -0.00073617
v -0.01605805 0.01951588 -0.00000000
v -0.04714809 0.02928675 -0.00633512
v -0.04308303 0.03446489 -0.00932873
v -0.02428514 0.04183780 -0.00048487
v -0.04261554 0.03488442 -0.00708758
v -0.03752018 0.03805016 -0.00731797
v -0.04331170 0.03419246 -0.00068715
v -0.03607247 0.03865881 -0.00747829
v -0.02739577 0.04149660 -0.00120878
v -0.03920008 0.03734149 -0.00271285
v -0.04578095 0.03169335 -0.01438261
v -0.00006173 0.03850081 -0.01658628
v -0.04776360 0.02734333 -0.00098330
v -0.00031693 0.03952325 -0.04960378
v -0.00924239 0.04340023 -0.00125784
v -0.04854580 0.02573008 -0.00256026
v -0.04011563 0.03485932 -0.04924418
v -0.00297441 0.04367947 -0.00062218
v -0.04599664 0.03131145 -0.00948502
v -0.03758916 0.00002035 -0.01360614
v -0.03287953 0.03705962 -0.04997168
f 186 122 24
f 24 189 186
f 65 122 186
f 186 23 65
f 112 19 186
f 112 210 19
f 186 189 112
f 189 210 112
f 177 124 154
f 122 65 208
f 19 97 42
f 42 97 23
f 186 19 42
f 42 23 186
f 170 97 122
f 23 97 170
f 122 208 170
f 170 65 23
f 170 208 65
f 122 97 109
f 19 45 109
f 36 154 124
f 124 181 36
f 67 154 36
f 101 45 19
f 182 154 67
f 45 101 197
f 197 88 45
f 162 88 197
f 172 150 12
f 12 197 172
f 93 197 12
f 176 97 19
f 176 109 97
f 47 3 156
f 217 46 1
f 66 72 160
f 72 1 160
f 66 28 148
f 148 72 66
f 148 1 72
f 167 150 172
f 172 197 149
f 149 197 101
f 76 197 93
f 183 150 111
f 183 12 150
f 19 109 196
f 196 176 19
f 109 176 196
f 19 210 29
f 139 155 120
f 120 28 139
f 28 158 139
f 153 28 66
f 153 158 28
f 66 139 153
f 153 139 158
f 177 38 106
f 106 124 177
f 106 181 124
f 142 6 36
f 77 200 66
f 66 160 77
f 77 160 46
f 77 149 101
f 77 167 172
f 172 149 77
f 101 200 77
f 156 3 216
f 3 90 216
f 87 6 187
f 187 90 87
f 85 1 46
f 205 1 168
f 205 160 1
f 168 46 205
f 46 160 205
f 105 135 28
f 19 29 102
f 102 29 16
f 28 135 169
f 217 1 169
f 169 148 28
f 1 148 169
f 66 200 35
f 35 139 66
f 35 101 19
f 35 200 101
f 19 59 35
f 59 139 35
f 3 47 137
f 174 109 45
f 45 88 174
f 174 88 162
f 181 106 175
f 175 36 181
f 175 142 36
f 217 128 50
f 50 46 217
f 50 54 46
f 40 89 111
f 40 77 46
f 167 77 40
f 111 150 40
f 150 167 40
f 128 10 202
f 141 204 128
f 128 202 141
f 111 204 141
f 36 6 134
f 6 87 134
f 162 197 94
f 94 197 192
f 107 47 156
f 156 31 107
f 107 31 47
f 47 31 75
f 189 24 75
f 75 24 122
f 122 47 75
f 156 15 166
f 166 31 156
f 166 15 189
f 189 75 166
f 166 75 31
f 125 211 155
f 125 139 59
f 155 139 125
f 59 135 125
f 135 211 125
f 155 211 146
f 146 211 135
f 146 105 155
f 135 105 146
f 82 105 28
f 155 105 82
f 82 28 120
f 120 155 82
f 131 102 16
f 210 127 131
f 131 29 210
f 16 29 131
f 217 169 131
f 131 169 135
f 214 135 59
f 214 59 19
f 19 102 214
f 214 131 135
f 102 131 214
f 154 133 86
f 154 83 96
f 96 133 154
f 142 175 188
f 188 106 38
f 188 175 106
f 188 116 142
f 21 116 188
f 188 156 21
f 188 15 156
f 189 15 188
f 188 210 189
f 188 127 210
f 2 131 127
f 2 128 217
f 217 131 2
f 194 137 47
f 194 174 162
f 162 94 194
f 122 109 91
f 109 174 91
f 173 116 21
f 187 6 173
f 21 156 173
f 173 90 187
f 142 116 173
f 156 216 173
f 173 216 90
f 14 50 128
f 54 50 14
f 46 54 165
f 117 40 54
f 54 14 117
f 89 40 117
f 4 202 10
f 4 157 111
f 10 157 4
f 111 141 4
f 4 141 202
f 69 10 183
f 69 157 10
f 69 183 111
f 111 157 69
f 13 134 87
f 36 134 13
f 13 94 192
f 13 87 90
f 67 36 13
f 192 197 13
f 13 90 3
f 13 182 67
f 3 137 13
f 13 76 182
f 197 76 13
f 137 194 13
f 13 194 94
f 20 46 168
f 1 85 39
f 168 1 39
f 39 63 168
f 177 154 55
f 154 86 55
f 180 86 133
f 62 96 83
f 133 96 62
f 62 180 133
f 209 83 154
f 174 194 159
f 159 91 174
f 122 91 159
f 6 142 61
f 61 173 6
f 142 173 61
f 213 14 128
f 54 40 161
f 161 165 54
f 161 40 46
f 46 165 161
f 7 117 14
f 89 117 193
f 193 204 111
f 117 7 193
f 168 63 144
f 144 20 168
f 123 38 177
f 177 55 123
f 126 188 38
f 179 74 184
f 127 74 179
f 179 2 127
f 41 2 179
f 84 179 184
f 41 179 84
f 41 84 98
f 33 10 128
f 128 43 33
f 191 43 128
f 26 194 47
f 26 159 194
f 26 47 122
f 122 159 26
f 128 204 57
f 57 213 128
f 204 193 57
f 14 213 119
f 119 7 14
f 213 57 119
f 119 193 7
f 119 57 193
f 152 76 93
f 93 25 152
f 182 76 152
f 203 25 93
f 93 12 203
f 130 84 184
f 207 74 127
f 127 163 207
f 145 163 127
f 140 163 145
f 127 188 145
f 188 140 145
f 53 84 199
f 53 98 84
f 41 98 52
f 52 98 64
f 52 2 41
f 52 64 2
f 27 203 92
f 2 64 178
f 64 98 178
f 178 190 2
f 2 190 70
f 128 2 70
f 70 191 128
f 212 62 83
f 83 209 11
f 188 143 118
f 86 180 147
f 180 17 147
f 147 55 86
f 188 126 147
f 147 123 55
f 38 123 147
f 147 126 38
f 104 11 209
f 182 152 104
f 154 182 104
f 104 209 154
f 108 25 18
f 30 95 25
f 51 163 8
f 95 30 51
f 8 152 171
f 171 51 8
f 95 51 171
f 171 152 25
f 25 95 171
f 37 130 184
f 37 18 130
f 207 18 37
f 184 74 37
f 74 207 37
f 100 178 98
f 84 92 201
f 199 84 201
f 201 53 199
f 92 100 201
f 98 53 201
f 201 100 98
f 138 92 203
f 138 203 12
f 138 103 164
f 12 183 138
f 190 178 115
f 115 70 190
f 191 70 115
f 103 206 115
f 115 206 191
f 132 206 103
f 132 138 183
f 103 138 132
f 183 10 132
f 10 33 132
f 33 206 132
f 44 206 33
f 191 206 44
f 62 212 79
f 8 163 78
f 163 198 78
f 78 152 8
f 151 198 163
f 151 163 140
f 151 140 188
f 151 118 143
f 188 118 151
f 195 147 17
f 73 143 188
f 188 147 73
f 114 18 25
f 130 18 114
f 25 203 114
f 203 130 114
f 110 48 203
f 49 130 203
f 203 48 49
f 84 130 49
f 92 48 9
f 27 92 9
f 48 110 9
f 9 203 27
f 9 110 203
f 56 138 164
f 92 138 56
f 164 103 56
f 178 100 68
f 68 100 92
f 81 44 33
f 191 44 81
f 81 33 43
f 43 191 81
f 152 78 71
f 71 78 198
f 71 104 152
f 71 151 143
f 198 151 71
f 62 79 58
f 11 104 5
f 5 58 79
f 195 58 5
f 163 51 60
f 60 51 30
f 60 25 108
f 60 30 25
f 215 207 163
f 163 60 215
f 32 115 178
f 178 68 32
f 103 115 32
f 32 56 103
f 92 56 32
f 32 68 92
f 104 121 185
f 185 5 104
f 121 5 185
f 195 5 113
f 113 5 121
f 136 121 104
f 104 22 136
f 104 71 99
f 99 22 104
f 99 71 143
f 129 18 207
f 207 215 129
f 147 195 34
f 195 113 34
f 80 136 22
f 80 113 121
f 121 136 80
f 80 99 143
f 22 99 80
f 111 89 193
f 46 20 144
f 144 85 46
f 144 39 85
f 63 39 144
f 49 48 92
f 49 92 84
f 58 17 180
f 180 62 58
f 58 195 17
f 5 212 83
f 83 11 5
f 5 79 212
f 129 60 108
f 108 18 129
f 129 215 60
f 80 73 147
f 143 73 80
f 147 34 80
f 80 34 113

