# https://github.com/mikedh/trimesh
v 0.02538787 0.00493392 -0.01500005
v 0.03712500 0.02434409 -0.00006262
v 0.03134968 0.02493093 -0.00011662
v 0.04236642 0.02353953 -0.00000892
v 0.03435149 0.02481666 -0.00057284
v 0.03705142 0.02227770 -0.01500007
v 0.03108054 0.00008082 -0.01500006
v 0.04990392 0.02462542 -0.00487691
v 0.03733680 0.02449463 -0.00049513
v 0.03605602 0.02492423 -0.01500007
v 0.02526723 0.01900015 -0.01500005
v 0.03662427 0.02451078 -0.00034240
v 0.03455252 0.00470131 -0.01500007
v 0.04916089 0.00001894 -0.01500007
v 0.03741849 0.02255577 -0.01500007
v 0.03323627 0.02482011 -0.00028339
v 0.02501697 0.00777347 -0.01500005
v 0.04008607 0.02496125 -0.00257680
v 0.03433309 0.00014092 -0.01500006
v 0.04007140 0.02485116 -0.00226326
v 0.04730967 0.02282161 -0.00006117
v 0.03910973 0.02491377 -0.01500007
v 0.04953226 0.02326571 -0.00197374
v 0.04977578 0.02475496 -0.01500007
v 0.02542063 0.02450832 -0.01500005
v 0.03236839 0.02492936 -0.01500006
v 0.04546184 0.02319840 -0.00024054
v 0.03728571 0.02493819 -0.01500007
v 0.03425946 0.00257422 -0.01500006
v 0.02575719 0.00225366 -0.01500005
v 0.04980639 0.00095668 -0.01500007
v 0.04991281 0.01449952 -0.01500007
v 0.03335446 0.02486037 -0.00042649
v 0.02673775 0.02490978 -0.01500005
v 0.04993557 0.00811472 -0.01500007
v 0.04905315 0.02474832 -0.00493464
v 0.03444133 0.00403539 -0.01500006
v 0.03595250 0.02492123 -0.00131345
v 0.02750389 0.00024274 -0.01500006
v 0.03719702 0.02161967 -0.01500007
v 0.03306226 0.00034019 -0.01500006
v 0.04990918 0.01528733 -0.01500007
v 0.03707791 0.02498076 -0.00179463
v 0.04458848 0.02499575 -0.00418303
f 24 22 44
f 3 34 25
f 25 34 10
f 17 3 11
f 11 3 25
f 24 8 42
f 23 8 21
f 36 24 44
f 36 8 24
f 28 15 40
f 25 10 28
f 28 11 25
f 22 15 28
f 44 22 28
f 28 26 44
f 28 10 34
f 34 26 28
f 21 8 27
f 27 4 21
f 3 4 2
f 2 27 8
f 4 27 2
f 1 3 17
f 17 11 1
f 35 24 32
f 24 42 32
f 32 8 35
f 32 42 8
f 35 8 31
f 8 23 31
f 21 14 31
f 31 23 21
f 31 24 35
f 22 24 31
f 31 15 22
f 40 15 31
f 14 19 31
f 34 3 43
f 44 26 43
f 43 26 34
f 8 36 20
f 29 31 19
f 40 31 29
f 6 28 40
f 11 28 6
f 18 36 44
f 18 20 36
f 44 43 18
f 9 2 8
f 8 20 9
f 20 18 9
f 30 1 11
f 3 1 30
f 40 29 13
f 13 6 40
f 11 6 13
f 33 43 3
f 7 14 21
f 7 19 14
f 37 13 29
f 11 13 37
f 2 9 12
f 19 7 41
f 41 29 19
f 41 7 11
f 41 37 29
f 11 37 41
f 11 7 39
f 39 30 11
f 3 30 39
f 39 4 3
f 21 4 39
f 39 7 21
f 43 33 38
f 33 5 38
f 16 12 5
f 16 5 33
f 16 33 3
f 3 2 16
f 2 12 16
f 38 18 43
f 38 12 9
f 38 9 18
f 5 12 38

