# https://github.com/mikedh/trimesh
v -0.00088498 -0.02915847 -0.03191598
v -0.01307180 -0.02700110 -0.03540174
v -0.01742802 -0.02933386 -0.02507847
v -0.00017586 -0.02651906 -0.02851215
v -0.00113868 -0.02532765 -0.02851215
v -0.00110706 -0.02912010 -0.02545338
v -0.00003913 -0.02690512 -0.02853114
v -0.00061294 -0.02873551 -0.02861316
v -0.00005799 -0.02770907 -0.03378607
v -0.02446253 -0.02961478 -0.02815189
v -0.02489592 -0.02614294 -0.02851213
v -0.01382021 -0.02656047 -0.03540177
v -0.01151103 -0.02811179 -0.03513852
v -0.01664429 -0.02857062 -0.03535960
v -0.02123755 -0.02875101 -0.03532075
v -0.02389527 -0.02955357 -0.02622692
v -0.00695193 -0.02505384 -0.02851215
v -0.02026483 -0.02502794 -0.02851214
v -0.01726056 -0.02889878 -0.03511049
v -0.02480699 -0.02972187 -0.03302113
v -0.02454973 -0.02532977 -0.02851213
v -0.00929026 -0.02919113 -0.02529023
v -0.01328944 -0.02934670 -0.03465813
v -0.02471769 -0.02887759 -0.02853235
v -0.02477601 -0.02967973 -0.03017487
v -0.00089174 -0.02894858 -0.03355176
v -0.02196242 -0.02500102 -0.03540216
v -0.01283247 -0.02737715 -0.03540172
v -0.01319744 -0.02503664 -0.02851214
v -0.01846811 -0.02955531 -0.03415597
v -0.01447466 -0.02944578 -0.03455363
v -0.01268343 -0.02902656 -0.03490245
v -0.01852074 -0.02904735 -0.03502024
v -0.00012854 -0.02861957 -0.03378608
v -0.02219007 -0.02947124 -0.02500892
v -0.02288988 -0.02913645 -0.03504855
v -0.02497000 -0.02969489 -0.03464458
v -0.02495720 -0.02920252 -0.03504260
v -0.01537873 -0.02841529 -0.03540184
v -0.02482374 -0.02615073 -0.03540229
v -0.02036240 -0.02960606 -0.03388418
v -0.01629836 -0.02528777 -0.03540189
v -0.01789221 -0.02888071 -0.03513956
v -0.01330827 -0.02789976 -0.03540174
v -0.02442730 -0.02815086 -0.03540226
v -0.01689771 -0.02946641 -0.03464414
v -0.00114298 -0.02520183 -0.03378607
v -0.00027438 -0.02581251 -0.03378608
v -0.00278564 -0.02919088 -0.03335915
v -0.00063711 -0.02915227 -0.03076526
f 40 21 27
f 47 5 48
f 27 47 42
f 35 21 16
f 16 6 35
f 7 34 9
f 9 48 7
f 44 32 39
f 47 48 2
f 8 34 7
f 7 6 8
f 8 50 34
f 8 6 50
f 4 6 7
f 5 6 4
f 7 48 4
f 4 48 5
f 15 45 39
f 11 16 21
f 21 40 11
f 18 21 35
f 27 21 18
f 18 29 27
f 35 6 3
f 3 18 35
f 29 18 3
f 34 32 13
f 13 44 34
f 32 44 13
f 12 42 47
f 47 2 12
f 48 9 28
f 28 2 48
f 28 9 34
f 34 44 28
f 37 41 20
f 50 6 20
f 20 41 49
f 49 26 1
f 50 20 1
f 1 20 49
f 34 50 1
f 1 26 34
f 46 31 37
f 49 41 30
f 30 31 49
f 30 41 37
f 37 31 30
f 23 26 49
f 49 31 23
f 23 32 34
f 34 26 23
f 31 46 23
f 14 15 39
f 39 32 14
f 10 16 24
f 16 11 24
f 29 3 17
f 17 6 5
f 17 5 47
f 17 47 27
f 27 29 17
f 25 20 6
f 25 16 10
f 6 16 25
f 37 20 25
f 10 24 25
f 25 11 37
f 25 24 11
f 22 3 6
f 6 17 22
f 22 17 3
f 33 36 15
f 32 23 33
f 23 36 33
f 38 23 46
f 38 36 23
f 38 46 37
f 40 45 38
f 45 15 38
f 15 36 38
f 37 11 38
f 38 11 40
f 43 33 15
f 32 33 19
f 33 43 19
f 27 42 28
f 28 40 27
f 39 45 28
f 28 45 40
f 28 44 39
f 42 12 28
f 28 12 2
f 15 14 19
f 19 14 32
f 19 43 15

