# https://github.com/mikedh/trimesh
v 0.04092906 0.04869111 -0.01961013
v 0.04769177 0.04786957 -0.01330680
v 0.04966572 0.04807787 -0.04029325
v 0.04335716 0.04851685 -0.01818867
v 0.04382334 0.04842998 -0.01699277
v 0.04329811 0.04868020 -0.04463804
v 0.04813679 0.04758804 -0.01084677
v 0.03497345 0.04517687 -0.00038953
v 0.04450034 0.04845132 -0.01853956
v 0.03651636 0.04867044 -0.01667810
v 0.03453238 0.04908171 -0.04315338
v 0.04809659 0.04817935 -0.02243285
v 0.04988861 0.04778772 -0.01697503
v 0.04104100 0.04638671 -0.00051190
v 0.03629960 0.04904458 -0.04506334
v 0.04406289 0.04832672 -0.01579299
v 0.04698869 0.04850009 -0.03675902
v 0.04122140 0.04874967 -0.04796098
v 0.04489141 0.04869275 -0.03753707
v 0.04914674 0.04739142 -0.00994963
v 0.04779411 0.04839551 -0.03828806
v 0.03986683 0.04899127 -0.03545316
v 0.04721246 0.04847187 -0.03605236
v 0.04296872 0.04863649 -0.04835657
v 0.04009176 0.04874695 -0.02018872
v 0.03550125 0.04604144 -0.04995253
v 0.04504585 0.04809936 -0.01370209
v 0.04726676 0.04564178 -0.00015139
v 0.03632668 0.04889982 -0.02275471
v 0.04390886 0.04747335 -0.00809941
v 0.04401957 0.04871186 -0.04010171
v 0.03507636 0.04858621 -0.01504477
v 0.04982988 0.04673636 -0.00641654
v 0.04179421 0.04654035 -0.00160472
v 0.03521270 0.04871536 -0.01707770
v 0.04582391 0.04861385 -0.03688844
v 0.04456226 0.04868697 -0.03071998
v 0.03893565 0.04778028 -0.00813644
v 0.04396948 0.04602678 -0.00027663
v 0.03559681 0.04896236 -0.04971621
v 0.03304374 0.04838270 -0.04967651
v 0.04617650 0.04834489 -0.04947149
v 0.04190501 0.04677689 -0.00301038
v 0.04298644 0.04883903 -0.03412014
v 0.03555548 0.04907062 -0.04468910
v 0.04954515 0.04797849 -0.02199816
v 0.04428176 0.04875116 -0.03414085
v 0.04457021 0.04606503 -0.00072163
v 0.03807620 0.04902511 -0.04126076
v 0.03350125 0.00006375 -0.00875223
v 0.03652866 0.04829617 -0.01164181
v 0.04951966 0.04770532 -0.01296281
v 0.04373577 0.04816351 -0.01359104
v 0.04984778 0.04786802 -0.04908459
v 0.04361523 0.04824045 -0.01441022
v 0.04070390 0.04874846 -0.04915564
v 0.04314594 0.04846076 -0.01677567
v 0.04850574 0.04831257 -0.03743711
v 0.04230055 0.04873319 -0.02408378
v 0.04333688 0.04881752 -0.03644118
v 0.03550125 0.02480900 -0.04993338
v 0.04798292 0.04813122 -0.04999545
v 0.03624396 0.04904199 -0.04532003
v 0.04157927 0.04893971 -0.03580234
v 0.03815700 0.04864716 -0.01700253
v 0.04773892 0.04765076 -0.01113598
v 0.04395290 0.04860947 -0.02331893
v 0.03757169 0.04903822 -0.03503227
v 0.04392931 0.04874531 -0.03847547
v 0.03475821 0.04899056 -0.02556691
v 0.04453458 0.04836199 -0.01676580
v 0.04626788 0.04856653 -0.03710288
v 0.04192295 0.04691168 -0.00381539
v 0.04875060 0.04569240 -0.00106126
v 0.04688285 0.04657533 -0.00418712
v 0.03873579 0.04863473 -0.01709163
v 0.04427935 0.04810189 -0.01324892
v 0.04028829 0.04851008 -0.01582809
v 0.04468788 0.04873009 -0.03563442
v 0.03618944 0.04903345 -0.04582908
v 0.04290064 0.04860435 -0.02044569
v 0.04636255 0.04824486 -0.01745230
v 0.03521670 0.04799872 -0.00844571
v 0.04857275 0.04809353 -0.02062821
v 0.03412443 0.04909668 -0.04057005
v 0.04169823 0.04872266 -0.04808932
v 0.03578768 0.04774824 -0.00647241
v 0.03529466 0.04879619 -0.01869590
v 0.04562890 0.04863868 -0.03653774
v 0.04984360 0.04710317 -0.00854559
v 0.04058113 0.04788052 -0.00972069
v 0.03573055 0.04675870 -0.00013253
v 0.03350125 0.02093341 -0.00037988
v 0.04124725 0.04892320 -0.03793520
v 0.04918815 0.04764793 -0.01216245
v 0.04287672 0.04845381 -0.01647913
v 0.03589770 0.04899300 -0.02750162
v 0.04978798 0.04581436 -0.00207101
v 0.03480418 0.04902756 -0.04726080
v 0.03759487 0.04866568 -0.01703723
v 0.03714305 0.04840164 -0.01303768
v 0.03537400 0.04890687 -0.02243179
v 0.04144664 0.04656838 -0.00159020
v 0.03493120 0.04900551 -0.04815001
v 0.03497376 0.04605214 -0.00070920
v 0.04218476 0.04664064 -0.00233726
v 0.04411456 0.04869215 -0.04082667
v 0.04309539 0.04852083 -0.01794207
v 0.03690172 0.04867781 -0.01693938
v 0.04777022 0.04841078 -0.03662214
v 0.04001861 0.04856178 -0.01653241
v 0.04192618 0.04800355 -0.01136403
v 0.04973641 0.04800192 -0.03214349
v 0.04266453 0.04849352 -0.01693493
v 0.03832898 0.04772612 -0.00741093
v 0.03491559 0.04877667 -0.01797971
v 0.03350125 0.00065299 -0.02260597
v 0.04874364 0.04810162 -0.02181716
v 0.03603251 0.04672629 -0.00007158
v 0.04694803 0.04849997 -0.03602220
v 0.04634714 0.04715959 -0.00728358
v 0.04995814 0.04792313 -0.02978339
v 0.04326525 0.04847327 -0.01711804
v 0.03497622 0.04735789 -0.00387024
v 0.03590457 0.04848372 -0.01369847
v 0.03346283 0.04903502 -0.04719224
v 0.04132268 0.04888776 -0.03980186
v 0.04992548 0.04734592 -0.01024420
v 0.03796049 0.04884210 -0.04973978
v 0.04795065 0.04807358 -0.01675305
v 0.04135720 0.04755588 -0.00749354
v 0.03567306 0.04828662 -0.01119056
v 0.04595230 0.04658359 -0.00378600
v 0.04820612 0.04779563 -0.01289975
v 0.04683576 0.04814863 -0.01622973
v 0.03550125 0.00012624 -0.02766860
v 0.03350125 0.00179329 -0.02544568
v 0.04937474 0.04607843 -0.00303361
v 0.04234618 0.04873778 -0.02456904
v 0.04998230 0.04530553 -0.00005468
v 0.04522115 0.04867692 -0.03665987
v 0.03350125 0.00030675 -0.02133618
v 0.03550125 0.04228485 -0.00000747
v 0.03606950 0.04845992 -0.01341536
v 0.03967036 0.04645710 -0.00018998
v 0.04583303 0.04824535 -0.01649008
v 0.04496437 0.04850158 -0.02275716
v 0.04251972 0.04887576 -0.03527498
v 0.03432901 0.04911278 -0.03745540
v 0.03554242 0.04878014 -0.01835513
v 0.04516774 0.04834321 -0.01733861
v 0.04740362 0.04826804 -0.04717037
v 0.03702145 0.04837256 -0.01265833
v 0.04587024 0.04741367 -0.00860360
v 0.04278981 0.04664700 -0.00265038
v 0.03497679 0.04748697 -0.00419102
v 0.04594504 0.04837314 -0.04903373
v 0.04403957 0.04871985 -0.03019746
v 0.03945678 0.04839686 -0.01410080
v 0.04062194 0.04897576 -0.03572421
v 0.04614790 0.04760099 -0.01001832
v 0.04794312 0.04831080 -0.04162611
v 0.04935243 0.04802024 -0.02233659
v 0.04937021 0.04786069 -0.01667991
v 0.03561405 0.04854620 -0.01451599
v 0.03582195 0.04907035 -0.04276638
v 0.03371485 0.00056166 -0.02567197
v 0.04151426 0.04862390 -0.01858428
v 0.03981949 0.04899108 -0.03799344
v 0.03550125 0.00015277 -0.04983171
v 0.04939783 0.04639000 -0.00451310
v 0.03945092 0.04825496 -0.01253304
v 0.03510173 0.04903923 -0.02934218
v 0.03466382 0.04909766 -0.03458556
v 0.03306587 0.04898182 -0.04985412
v 0.04950211 0.04613277 -0.00335047
v 0.03350125 0.00182421 -0.00015466
v 0.03870844 0.04839862 -0.01375927
v 0.04796595 0.04732104 -0.00897863
v 0.04650472 0.04832321 -0.04891621
v 0.03350125 0.02291184 -0.00091159
v 0.03920584 0.04765438 -0.00722572
v 0.04886986 0.04731081 -0.00932187
v 0.04416940 0.04850596 -0.01949769
v 0.04996617 0.04685939 -0.00716899
v 0.03855284 0.04753005 -0.00604468
v 0.03961431 0.04824667 -0.01252602
v 0.04781095 0.04824612 -0.04570900
v 0.04996167 0.04791682 -0.02949863
v 0.04924079 0.04748163 -0.01075067
v 0.03593038 0.04906817 -0.04270101
v 0.04784639 0.04826939 -0.04432873
v 0.03304401 0.04759716 -0.04975824
v 0.04565851 0.04863127 -0.03681951
v 0.04471652 0.04871244 -0.03310093
v 0.03421932 0.04909974 -0.03802093
v 0.04678632 0.04602908 -0.00159908
v 0.04308726 0.04695003 -0.00456651
v 0.04417500 0.04865470 -0.02687820
v 0.03496288 0.04902176 -0.02761340
v 0.04486180 0.04869268 -0.03769062
v 0.04330668 0.04845851 -0.01686439
v 0.03603005 0.04875926 -0.01803986
v 0.03871484 0.04881524 -0.02123510
v 0.04977469 0.04730230 -0.00970809
v 0.04609612 0.04616570 -0.00188124
v 0.04805523 0.04777914 -0.01262236
v 0.04849860 0.04804253 -0.01837388
v 0.03461902 0.04906857 -0.03075894
v 0.04393604 0.04847270 -0.01794978
v 0.03680082 0.04773430 -0.00678325
v 0.04612954 0.04857710 -0.03481358
v 0.03350125 0.00023386 -0.01905334
v 0.04334899 0.04822735 -0.01410856
v 0.04179442 0.04835516 -0.01476840
v 0.03550125 0.02912271 -0.04994690
v 0.04382003 0.04876048 -0.03799146
v 0.04929810 0.04585937 -0.00203703
v 0.03514110 0.04724165 -0.00278394
v 0.04218349 0.04864414 -0.02040121
v 0.04193020 0.04853598 -0.01712138
v 0.03515777 0.04905057 -0.04607389
v 0.03350125 0.00074789 -0.00383876
v 0.04509697 0.04868779 -0.03557960
v 0.03467022 0.04905867 -0.04578679
v 0.04407679 0.04858021 -0.02230572
v 0.03564266 0.04903587 -0.04655547
v 0.03350125 0.01725489 -0.00006794
v 0.03830815 0.04676247 -0.00130407
v 0.04927082 0.04724542 -0.00912038
v 0.04278774 0.04862563 -0.04964871
v 0.04255181 0.04813425 -0.01278948
v 0.04086919 0.04760744 -0.00762576
v 0.03775892 0.04867661 -0.01728956
v 0.04039662 0.04876628 -0.02121869
v 0.04061523 0.04650444 -0.00086374
v 0.03420503 0.04906992 -0.04482751
v 0.04350061 0.04867559 -0.04415624
v 0.04866988 0.04758313 -0.01118094
f 136 170 140
f 50 170 136
f 140 170 54
f 54 170 62
f 170 137 193
f 193 177 41
f 216 26 62
f 223 136 140
f 140 177 223
f 50 136 223
f 223 193 50
f 177 193 223
f 213 170 50
f 213 142 170
f 50 193 213
f 213 193 142
f 167 137 170
f 170 142 167
f 62 170 61
f 61 216 62
f 119 143 140
f 41 177 228
f 228 177 140
f 140 143 228
f 175 156 116
f 41 181 175
f 175 181 105
f 175 193 41
f 26 216 175
f 62 26 175
f 216 61 175
f 170 193 175
f 175 61 170
f 137 167 117
f 117 167 142
f 117 193 137
f 142 193 117
f 143 119 92
f 93 181 41
f 41 228 93
f 52 13 164
f 46 3 58
f 105 92 219
f 8 93 228
f 8 228 143
f 105 181 8
f 181 93 8
f 8 92 105
f 143 92 8
f 40 175 104
f 175 99 104
f 237 126 85
f 222 99 175
f 116 156 32
f 122 46 13
f 54 3 122
f 124 219 156
f 105 219 124
f 124 175 105
f 156 175 124
f 62 175 129
f 129 175 40
f 62 129 231
f 231 129 40
f 227 80 40
f 227 222 45
f 99 222 227
f 45 237 11
f 11 237 85
f 126 237 225
f 225 237 45
f 45 222 225
f 145 28 39
f 145 119 140
f 140 28 145
f 156 87 83
f 83 32 156
f 132 32 83
f 85 126 149
f 130 52 164
f 164 13 118
f 3 46 113
f 113 122 3
f 46 122 113
f 140 54 189
f 54 122 189
f 189 122 13
f 62 231 42
f 236 103 119
f 119 145 236
f 119 103 106
f 13 52 128
f 128 189 13
f 77 232 112
f 66 27 77
f 207 27 66
f 52 207 66
f 66 95 52
f 233 66 182
f 25 204 203
f 125 32 132
f 132 144 125
f 101 144 132
f 78 144 101
f 196 126 175
f 196 149 126
f 63 227 45
f 80 227 63
f 149 169 49
f 134 207 52
f 52 27 134
f 134 27 207
f 202 71 5
f 13 46 163
f 163 46 58
f 163 118 13
f 208 130 164
f 164 118 208
f 157 42 231
f 40 80 56
f 56 231 40
f 80 63 56
f 176 33 171
f 138 98 176
f 176 98 33
f 119 106 229
f 198 73 229
f 185 98 140
f 33 98 185
f 140 189 185
f 189 128 185
f 239 66 7
f 95 66 239
f 7 20 190
f 190 239 7
f 52 95 190
f 77 112 211
f 211 87 156
f 156 182 211
f 7 66 161
f 66 233 161
f 235 204 25
f 235 97 204
f 88 102 116
f 204 102 88
f 187 232 77
f 77 27 53
f 53 187 77
f 172 187 53
f 51 187 172
f 45 149 166
f 15 63 45
f 45 49 15
f 2 27 52
f 52 130 135
f 71 202 16
f 16 96 27
f 16 202 96
f 210 202 5
f 130 208 84
f 84 208 118
f 152 188 62
f 48 206 14
f 14 145 48
f 48 145 39
f 74 28 140
f 140 98 74
f 103 236 34
f 236 133 34
f 75 133 236
f 33 133 75
f 171 33 75
f 198 229 43
f 43 229 106
f 103 33 155
f 33 185 155
f 155 106 103
f 183 179 121
f 121 179 73
f 121 73 198
f 186 131 233
f 186 182 156
f 186 233 182
f 205 190 20
f 205 128 52
f 52 190 205
f 205 230 90
f 205 90 185
f 205 185 128
f 183 230 205
f 20 183 205
f 29 102 204
f 70 29 204
f 102 29 70
f 116 102 70
f 70 175 116
f 209 174 149
f 149 196 209
f 209 196 175
f 175 70 209
f 160 235 64
f 97 235 160
f 64 169 160
f 160 169 149
f 32 125 165
f 150 203 204
f 204 88 150
f 116 203 150
f 150 88 116
f 78 96 221
f 221 111 78
f 76 111 221
f 65 100 78
f 78 111 65
f 27 96 55
f 55 53 27
f 78 101 178
f 153 51 172
f 132 51 153
f 153 101 132
f 191 49 45
f 45 166 191
f 149 49 191
f 191 166 149
f 18 15 49
f 49 127 18
f 18 56 63
f 63 15 18
f 64 127 94
f 94 127 49
f 94 169 64
f 94 49 169
f 82 135 130
f 130 226 82
f 71 16 146
f 146 16 27
f 27 2 146
f 146 2 52
f 52 135 146
f 110 23 118
f 110 163 58
f 118 163 110
f 212 195 118
f 118 23 212
f 147 84 118
f 147 226 130
f 130 84 147
f 184 210 9
f 9 82 184
f 184 82 226
f 201 107 31
f 42 157 201
f 79 60 64
f 188 152 192
f 62 42 180
f 180 152 62
f 31 107 238
f 231 6 238
f 138 206 197
f 206 48 197
f 154 183 20
f 154 179 183
f 77 211 91
f 211 38 91
f 115 211 182
f 115 38 211
f 97 160 200
f 200 209 70
f 204 97 200
f 200 70 204
f 174 209 68
f 149 174 68
f 10 165 125
f 35 165 10
f 116 35 10
f 10 203 116
f 109 203 10
f 114 221 96
f 100 65 234
f 76 221 234
f 25 203 234
f 109 100 234
f 234 203 109
f 215 96 78
f 86 18 127
f 231 56 86
f 56 18 86
f 86 6 231
f 9 210 151
f 151 82 9
f 135 82 151
f 151 146 135
f 118 195 12
f 12 147 118
f 37 12 195
f 147 12 37
f 69 201 31
f 64 44 148
f 148 79 64
f 47 44 195
f 195 79 47
f 19 201 60
f 60 79 19
f 42 201 19
f 231 238 24
f 24 238 107
f 218 98 138
f 138 197 218
f 30 154 20
f 186 154 30
f 131 186 30
f 173 160 209
f 209 200 173
f 173 200 160
f 22 160 149
f 149 68 22
f 209 160 22
f 22 68 209
f 96 202 57
f 57 114 96
f 202 114 57
f 78 178 159
f 159 215 78
f 214 55 96
f 96 215 214
f 53 55 214
f 58 162 21
f 21 110 58
f 162 192 21
f 21 192 152
f 226 147 199
f 147 37 199
f 60 201 217
f 201 69 217
f 224 79 195
f 224 89 79
f 23 110 17
f 110 21 17
f 141 19 79
f 79 89 141
f 123 114 202
f 123 108 114
f 202 210 123
f 210 108 123
f 220 235 4
f 81 220 4
f 4 184 81
f 210 184 4
f 4 108 210
f 221 114 168
f 114 108 168
f 25 234 168
f 168 234 221
f 108 4 168
f 59 184 226
f 81 184 59
f 59 220 81
f 59 235 220
f 64 235 59
f 158 199 37
f 195 44 158
f 158 37 195
f 120 212 23
f 23 17 120
f 89 17 72
f 72 17 21
f 1 4 235
f 1 168 4
f 1 235 25
f 25 168 1
f 226 199 67
f 67 59 226
f 59 158 139
f 139 158 44
f 139 44 64
f 64 59 139
f 89 72 36
f 194 141 89
f 89 36 194
f 40 104 227
f 227 104 99
f 225 222 175
f 175 126 225
f 149 11 85
f 45 11 149
f 95 239 190
f 51 83 87
f 132 83 51
f 87 211 51
f 51 112 232
f 51 211 112
f 232 187 51
f 34 133 33
f 34 33 103
f 75 176 171
f 75 145 14
f 14 206 75
f 75 236 145
f 75 206 138
f 138 176 75
f 185 90 121
f 106 155 121
f 121 230 183
f 198 43 121
f 121 43 106
f 121 155 185
f 90 230 121
f 165 35 116
f 116 32 165
f 192 3 54
f 192 54 62
f 58 3 192
f 192 162 58
f 62 188 192
f 154 92 119
f 73 179 154
f 156 219 154
f 154 219 92
f 119 229 154
f 154 229 73
f 154 186 156
f 182 66 115
f 115 66 77
f 77 91 115
f 115 91 38
f 10 144 78
f 78 100 10
f 10 125 144
f 10 100 109
f 234 65 111
f 234 111 76
f 151 210 5
f 5 71 151
f 71 146 151
f 79 148 47
f 47 148 44
f 107 201 24
f 24 157 231
f 24 201 157
f 218 48 39
f 39 28 218
f 28 74 218
f 218 74 98
f 218 197 48
f 7 161 30
f 30 20 7
f 30 161 233
f 233 131 30
f 214 178 101
f 214 153 172
f 172 53 214
f 101 153 214
f 214 159 178
f 215 159 214
f 64 60 217
f 217 127 64
f 6 86 217
f 217 86 127
f 31 238 217
f 217 238 6
f 217 69 31
f 120 224 195
f 195 212 120
f 89 224 120
f 120 17 89
f 67 158 59
f 199 158 67
f 42 19 194
f 194 180 42
f 194 21 152
f 152 180 194
f 19 141 194
f 194 72 21
f 194 36 72

