# https://github.com/mikedh/trimesh
v 0.01847966 0.03199227 -0.16183986
v 0.04284346 0.00003618 -0.19340675
v 0.04727514 0.02028676 -0.16924687
v 0.00162053 0.03350295 -0.15248237
v 0.03817355 0.03170219 -0.15552992
v 0.04171607 0.01452763 -0.19995254
v 0.00156741 0.03037493 -0.17003807
v 0.04967243 0.01397438 -0.16610823
v 0.01465928 0.03156647 -0.16449754
v 0.04755390 0.02735816 -0.15254981
v 0.04873283 0.02192997 -0.15938667
v 0.00378920 0.00076941 -0.15898205
v 0.04674600 0.00165669 -0.18579629
v 0.04725388 0.00721118 -0.18222369
v 0.04752814 0.02463793 -0.16009474
v 0.03779641 0.03064087 -0.16134362
v 0.04403592 0.02662220 -0.16635808
v 0.01706668 0.02988335 -0.17152332
v 0.03972549 0.02664735 -0.17381406
v 0.01450766 0.03222355 -0.16091199
v 0.00027995 0.02342753 -0.19628064
v 0.04848430 0.02186789 -0.16085200
v 0.03967515 0.03206922 -0.15078650
v 0.04919086 0.00707370 -0.17442560
v 0.03934801 0.03206136 -0.15142633
v 0.04974759 0.01576051 -0.15108762
v 0.04986278 0.02197624 -0.15218876
v 0.03689206 0.03254561 -0.15031909
v 0.02208072 0.00223908 -0.15001531
v 0.03942147 0.02754958 -0.17142155
v 0.04561806 0.00553452 -0.18948215
v 0.03628486 0.02756510 -0.17494074
v 0.02917919 0.03187479 -0.16074731
v 0.04887458 0.02230040 -0.15789374
v 0.00053206 0.00222422 -0.15852542
v 0.04809675 0.02455807 -0.15771420
v 0.03737319 0.03175482 -0.15608170
v 0.03352829 0.03260472 -0.15314967
v 0.04998649 0.02187861 -0.15150790
v 0.02023621 0.03195264 -0.16181194
v 0.02742134 0.03055963 -0.16777764
v 0.00385767 0.03350166 -0.15244853
v 0.00222412 0.00008613 -0.17690604
v 0.01420118 0.03006494 -0.17097768
v 0.00000252 0.02308057 -0.16651360
v 0.04551543 0.02803724 -0.15815082
v 0.03928750 0.03203927 -0.15174141
v 0.03633161 0.03138921 -0.15933849
v 0.04979340 0.01970896 -0.15718701
v 0.04321936 0.03072214 -0.15344104
v 0.04957382 0.00942532 -0.17058471
v 0.00032004 0.00896244 -0.15315250
v 0.00328745 0.03358122 -0.15146459
v 0.04155720 0.02950281 -0.15005116
v 0.00248063 0.03176416 -0.16383847
v 0.04695941 0.02556583 -0.16031018
v 0.04816819 0.02471878 -0.15691099
v 0.03433235 0.02997494 -0.16734105
v 0.04735070 0.02130585 -0.16750815
v 0.04528914 0.00888680 -0.18917598
v 0.04277905 0.00142188 -0.19537971
v 0.04456994 0.00001132 -0.18650801
v 0.04633639 0.02294848 -0.16850167
v 0.03169370 0.03277182 -0.15335316
v 0.04881969 0.02116804 -0.16025022
v 0.02208888 0.01704639 -0.15000538
v 0.00610090 0.00981910 -0.15006867
v 0.04787475 0.02056555 -0.16608454
v 0.04719739 0.02652827 -0.15688852
v 0.04781192 0.00659190 -0.18026415
v 0.00579118 0.02275569 -0.19970977
v 0.03934148 0.00564652 -0.15095162
v 0.01839054 0.03146908 -0.16459775
v 0.02694202 0.03242617 -0.15770571
v 0.03524487 0.02793235 -0.17437436
v 0.04727846 0.02682326 -0.15567265
v 0.04515930 0.00737691 -0.19057151
v 0.04671383 0.02672302 -0.15839327
v 0.03464811 0.02980375 -0.16780435
v 0.00036757 0.03331623 -0.15372850
v 0.04407054 0.03029591 -0.15322972
v 0.04168036 0.02954235 -0.16086971
v 0.04828479 0.02595719 -0.15294940
v 0.04882070 0.01830672 -0.16480255
v 0.04494218 0.02370230 -0.17200779
v 0.04007651 0.03090622 -0.15749626
v 0.01604688 0.03361922 -0.15003582
v 0.04683653 0.02311285 -0.16626301
v 0.03970495 0.03169687 -0.15376563
v 0.04820078 0.02252205 -0.16125270
v 0.03372914 0.02772952 -0.17624354
v 0.04430197 0.00901398 -0.19311549
v 0.04966893 0.02246440 -0.15246806
v 0.04775955 0.01803377 -0.17013056
v 0.01357182 0.03101821 -0.16693565
v 0.01381047 0.03205045 -0.16212372
v 0.04779102 0.01857415 -0.16923666
v 0.04670370 0.00787214 -0.18407333
v 0.03529151 0.03148359 -0.15981730
v 0.04804648 0.01379839 -0.17385236
v 0.03967803 0.02931580 -0.16480083
v 0.04140474 0.03046439 -0.15779870
v 0.04427121 0.03068620 -0.15028961
v 0.01581995 0.03205351 -0.16183428
v 0.04954496 0.01543026 -0.16540032
v 0.04971799 0.02093293 -0.15536726
v 0.03714768 0.03249272 -0.15050847
v 0.00006025 0.03368458 -0.15030257
v 0.02664493 0.00080034 -0.19996727
v 0.04157936 0.00635087 -0.19969630
v 0.02476137 0.03084163 -0.16677709
v 0.04623687 0.00076209 -0.18798162
v 0.04421452 0.00864843 -0.19368322
v 0.01661401 0.03335868 -0.15313253
v 0.01298677 0.03199226 -0.16251710
v 0.03699780 0.03216978 -0.15367474
v 0.01228349 0.03182574 -0.16347541
v 0.04991032 0.01932196 -0.15720116
v 0.04748229 0.01598390 -0.17421620
v 0.04106658 0.02967639 -0.16144778
v 0.03278895 0.03264833 -0.15341343
v 0.02300519 0.00031087 -0.15949615
v 0.04452027 0.03055243 -0.15052203
v 0.04968730 0.02151909 -0.15437034
v 0.03445041 0.02920763 -0.17028794
v 0.03650757 0.02755934 -0.17472161
v 0.04244682 0.03100664 -0.15313031
v 0.03981428 0.03104497 -0.15710229
v 0.04794013 0.00711858 -0.17950728
v 0.01413365 0.03362910 -0.15004010
v 0.04959641 0.01774435 -0.16179397
v 0.04907140 0.02255448 -0.15618554
v 0.04436382 0.02760662 -0.16277604
v 0.02370323 0.00041546 -0.19959656
v 0.02386788 0.00106954 -0.19990227
v 0.03100423 0.03290115 -0.15281071
v 0.00033002 0.03083048 -0.16802326
v 0.00005449 0.00813884 -0.17687785
v 0.04435238 0.00266862 -0.19515233
v 0.02557430 0.00022620 -0.19770331
v 0.04578071 0.02268294 -0.17116921
v 0.04895523 0.00713889 -0.17535371
v 0.01044269 0.02966854 -0.17282791
v 0.04432705 0.02840548 -0.16008394
v 0.04054924 0.01783040 -0.19968322
v 0.04508067 0.00009228 -0.19270190
v 0.03792119 0.00556259 -0.15002612
v 0.04586399 0.00628163 -0.18821424
v 0.03018932 0.03283342 -0.15367297
v 0.04160341 0.02607534 -0.17285471
v 0.04574760 0.00255326 -0.18961732
v 0.03326527 0.03293243 -0.15029076
v 0.01376808 0.03091176 -0.16737941
v 0.01717290 0.02955179 -0.17290455
v 0.04915161 0.02377473 -0.15317600
v 0.04971682 0.01614111 -0.16361579
v 0.04267741 0.03081328 -0.15386741
v 0.04683163 0.00637611 -0.18429065
v 0.04661049 0.01857070 -0.17458909
v 0.00843673 0.03365461 -0.15010514
v 0.00006707 0.02433192 -0.19246455
v 0.03844576 0.03228791 -0.15060173
v 0.00715290 0.03349247 -0.15238376
v 0.04785945 0.01909596 -0.16819598
v 0.04648099 0.00823378 -0.18474735
v 0.04545215 0.02874747 -0.15602641
v 0.03881589 0.03193096 -0.15346623
v 0.04990945 0.00201331 -0.16289241
v 0.04906400 0.02112551 -0.15891200
v 0.04432023 0.02799835 -0.16160150
v 0.04565521 0.02706527 -0.16086994
v 0.04306638 0.03109345 -0.15116156
v 0.01739508 0.03357881 -0.15015355
v 0.03091594 0.03302318 -0.15138051
v 0.01645351 0.03360701 -0.15010015
v 0.04973956 0.02308236 -0.15049635
v 0.02817437 0.03209980 -0.15968521
v 0.01802681 0.03346740 -0.15148637
v 0.04767635 0.02482833 -0.15902393
v 0.02941450 0.03062768 -0.16711391
v 0.03904169 0.03194622 -0.15305259
v 0.04957561 0.02298954 -0.15192077
v 0.04056905 0.02664010 -0.17272565
v 0.04828139 0.02540137 -0.15452156
v 0.04424067 0.00001257 -0.18782361
v 0.04199261 0.02939183 -0.16084432
v 0.04873939 0.00330272 -0.17727617
v 0.03090605 0.03217745 -0.15839916
v 0.03038975 0.03307463 -0.15098435
v 0.02667825 0.00004398 -0.16268200
v 0.03977592 0.03177542 -0.15320244
v 0.04609193 0.01964806 -0.17536294
v 0.04629601 0.02640446 -0.16078855
v 0.01571574 0.03186200 -0.16301777
v 0.04631801 0.02031952 -0.17347398
v 0.02292539 0.03094087 -0.16650821
v 0.00023199 0.03042766 -0.16981881
v 0.02485366 0.03016674 -0.16967271
v 0.01656486 0.03172283 -0.16359349
v 0.04474933 0.00424799 -0.19329643
v 0.02985428 0.03213222 -0.15922119
v 0.03559530 0.02840836 -0.17234048
v 0.03611283 0.03147749 -0.15910488
v 0.01306356 0.03346169 -0.15237444
v 0.04426953 0.00627756 -0.19461440
v 0.04575700 0.00752828 -0.18808479
v 0.03275339 0.03289724 -0.15114273
v 0.04932287 0.02249780 -0.15469980
v 0.03395489 0.02814738 -0.17455446
v 0.01276228 0.02998082 -0.17140562
v 0.04988512 0.00935668 -0.16916243
v 0.03264645 0.02754148 -0.17757216
v 0.03593668 0.03129391 -0.16029920
v 0.04436220 0.00318744 -0.19502275
v 0.04081471 0.00590311 -0.19971356
v 0.01305429 0.03028921 -0.17007629
v 0.04937821 0.00569639 -0.17410644
v 0.03041546 0.03212574 -0.15912320
v 0.04628219 0.02562198 -0.16283002
v 0.02824584 0.03031849 -0.16874515
v 0.04936735 0.01757957 -0.16323642
v 0.02194008 0.00067768 -0.15692130
v 0.04700017 0.01771507 -0.17401324
v 0.01889514 0.02285762 -0.19989615
v 0.00095689 0.00029235 -0.17802712
v 0.04911250 0.00851890 -0.17353806
v 0.04943074 0.01711867 -0.16359899
v 0.04868428 0.01025958 -0.17399990
v 0.04515402 0.00524038 -0.19143858
v 0.01529082 0.03355238 -0.15099152
v 0.03099510 0.02983069 -0.16969697
v 0.04469331 0.03000785 -0.15266585
v 0.03183298 0.02982422 -0.16931381
v 0.04322278 0.03084424 -0.15260104
v 0.03412425 0.03154101 -0.16033508
v 0.02428454 0.02320963 -0.19842559
v 0.04593686 0.02841747 -0.15543774
v 0.04641289 0.00582017 -0.18618187
v 0.03137261 0.03198576 -0.15941435
v 0.04944374 0.01534425 -0.16596615
v 0.04737580 0.02599861 -0.15752526
v 0.04449638 0.02864140 -0.15876664
v 0.04980928 0.00003236 -0.16395675
v 0.04733342 0.00083403 -0.18359798
v 0.04865633 0.02555061 -0.15172033
v 0.03957728 0.03170972 -0.15387877
v 0.04445239 0.00439507 -0.19445305
v 0.04659738 0.00788388 -0.18449744
v 0.04841102 0.02649816 -0.15048821
v 0.03990259 0.03205344 -0.15053694
v 0.04817931 0.00065805 -0.18016791
v 0.00957100 0.03346314 -0.15259286
v 0.03535569 0.02826740 -0.17306049
v 0.04666737 0.02558392 -0.16147880
v 0.00004009 0.02888980 -0.15057873
v 0.01468609 0.03212447 -0.16153693
v 0.00040619 0.00312207 -0.15828196
v 0.02206644 0.00197892 -0.15071363
v 0.04991251 0.01378561 -0.15338699
v 0.01304585 0.03165382 -0.16420717
v 0.04761308 0.02567032 -0.15729974
v 0.04968737 0.01297579 -0.16692012
v 0.02888351 0.03317502 -0.15041435
v 0.01378456 0.03156827 -0.16456112
v 0.04204251 0.01571330 -0.19755136
v 0.04745893 0.01470448 -0.17556877
v 0.02518179 0.03306927 -0.15316540
v 0.04946573 0.01708996 -0.15044452
v 0.04511376 0.00488474 -0.19168523
v 0.03481004 0.02788792 -0.17486444
v 0.01989082 0.03349258 -0.15041092
v 0.04619044 0.02049537 -0.17374603
v 0.04889370 0.00626463 -0.17598518
v 0.04925070 0.02124054 -0.15760270
v 0.04893601 0.00610027 -0.17585132
v 0.03384777 0.03190901 -0.15799629
v 0.00039300 0.02301143 -0.19816431
v 0.03329548 0.03200286 -0.15777897
v 0.04806791 0.01439602 -0.17322469
v 0.02530677 0.02286740 -0.19890840
v 0.04953621 0.01944122 -0.15919032
v 0.00782841 0.03365711 -0.15011507
v 0.04723118 0.00710570 -0.18237382
v 0.04994337 0.00053263 -0.17280550
v 0.04798467 0.02599168 -0.15469852
v 0.04166270 0.03150142 -0.15012166
v 0.04871317 0.02456279 -0.15402524
v 0.00016999 0.03189511 -0.16308987
v 0.01678810 0.02988549 -0.17153687
v 0.03563965 0.01764585 -0.19986382
v 0.04984004 0.00953402 -0.16922379
v 0.03340686 0.02861198 -0.17318634
v 0.04702642 0.02165645 -0.16840857
v 0.00326345 0.00979094 -0.15011616
v 0.03720333 0.03096123 -0.16057800
v 0.00785919 0.00018361 -0.15922206
v 0.01738285 0.03337930 -0.15282098
v 0.04568694 0.02262680 -0.17164051
v 0.04826681 0.01935373 -0.16593915
v 0.04796220 0.00686942 -0.17954184
v 0.03062184 0.03261355 -0.15527020
v 0.04731695 0.00772390 -0.18167499
v 0.03865004 0.03082741 -0.15960071
v 0.01877326 0.02967852 -0.17224043
v 0.00021011 0.03284890 -0.15679121
v 0.04875657 0.02478259 -0.15325072
v 0.03029552 0.01759841 -0.19998044
v 0.03479500 0.03213438 -0.15566750
v 0.03497317 0.03064044 -0.16400429
v 0.04120691 0.03125489 -0.15379250
v 0.02907770 0.02977853 -0.17079043
v 0.04487898 0.00013276 -0.19349788
v 0.04785670 0.02112277 -0.16527805
v 0.04901012 0.01519534 -0.16812147
v 0.04840408 0.02574291 -0.15280679
v 0.04382750 0.00980881 -0.19452153
v 0.00143291 0.00159362 -0.15871296
v 0.04819888 0.00075643 -0.18006562
v 0.04773433 0.01578143 -0.17336207
f 307 6 109
f 29 243 147
f 258 243 29
f 6 145 265
f 307 109 224
f 109 71 224
f 224 6 307
f 280 145 224
f 134 277 135
f 277 71 135
f 135 109 134
f 135 71 109
f 61 109 215
f 215 109 6
f 6 110 215
f 39 26 259
f 259 26 243
f 72 147 243
f 243 26 72
f 72 26 147
f 62 43 185
f 185 43 2
f 139 110 6
f 225 277 134
f 134 43 225
f 134 2 140
f 140 43 134
f 2 43 140
f 62 243 190
f 190 43 62
f 296 258 29
f 43 190 296
f 296 190 243
f 80 288 305
f 147 26 268
f 268 54 147
f 32 145 280
f 29 147 66
f 147 54 66
f 66 54 87
f 108 80 305
f 305 288 108
f 108 288 161
f 108 161 45
f 211 284 217
f 217 24 211
f 39 284 211
f 85 298 145
f 145 17 85
f 290 145 6
f 6 224 290
f 290 224 145
f 243 284 168
f 168 259 243
f 168 284 39
f 39 259 168
f 110 139 312
f 61 215 312
f 312 215 110
f 312 109 61
f 134 109 312
f 312 2 134
f 277 225 138
f 138 225 257
f 257 52 138
f 45 161 138
f 29 294 317
f 243 258 222
f 258 296 222
f 197 224 71
f 197 71 277
f 277 161 197
f 161 288 197
f 249 10 123
f 176 26 39
f 176 268 26
f 249 54 176
f 54 268 176
f 136 152 207
f 87 152 263
f 152 189 263
f 67 294 29
f 29 66 67
f 255 52 294
f 294 108 255
f 255 138 52
f 255 108 45
f 45 138 255
f 4 108 42
f 80 108 4
f 42 96 4
f 6 113 205
f 51 211 24
f 272 265 145
f 145 298 272
f 21 161 277
f 277 138 21
f 21 138 161
f 257 225 35
f 225 317 35
f 35 52 257
f 294 52 35
f 35 317 294
f 12 296 29
f 29 317 12
f 43 296 12
f 12 225 43
f 12 317 225
f 122 296 243
f 243 222 122
f 122 222 296
f 288 80 115
f 80 4 115
f 115 4 96
f 155 176 182
f 39 106 27
f 106 124 27
f 106 34 132
f 132 34 155
f 90 34 11
f 76 69 78
f 36 34 90
f 155 34 36
f 254 193 78
f 57 36 285
f 285 36 261
f 285 10 249
f 285 76 10
f 69 76 285
f 245 176 155
f 155 306 245
f 249 176 245
f 174 152 136
f 174 189 152
f 130 66 87
f 130 67 66
f 8 156 211
f 118 156 131
f 131 281 118
f 118 106 39
f 39 211 118
f 211 156 118
f 159 119 265
f 6 265 266
f 59 159 195
f 146 112 244
f 244 251 146
f 146 251 284
f 146 284 243
f 146 243 62
f 62 185 146
f 146 185 2
f 2 312 146
f 280 224 236
f 53 163 42
f 42 108 53
f 42 163 252
f 252 163 204
f 252 204 114
f 114 96 252
f 252 96 42
f 20 96 114
f 20 256 96
f 96 256 104
f 288 115 117
f 171 85 17
f 171 193 85
f 78 193 171
f 93 124 155
f 93 27 124
f 155 182 93
f 155 124 208
f 208 132 155
f 65 281 131
f 131 22 65
f 65 22 90
f 90 11 65
f 169 11 34
f 34 281 169
f 169 65 11
f 281 65 169
f 88 254 15
f 57 306 287
f 287 36 57
f 155 36 287
f 141 88 298
f 85 193 219
f 193 254 219
f 298 85 219
f 219 141 298
f 254 141 219
f 241 285 261
f 69 285 241
f 78 69 241
f 241 254 78
f 184 306 57
f 57 285 184
f 83 285 249
f 83 184 285
f 271 263 189
f 189 174 271
f 271 174 136
f 38 64 136
f 136 207 38
f 99 213 235
f 126 32 101
f 101 30 126
f 145 32 126
f 126 30 145
f 19 183 145
f 145 30 19
f 19 30 183
f 282 108 294
f 294 67 282
f 316 113 6
f 6 60 316
f 165 60 6
f 77 205 113
f 205 229 247
f 262 8 211
f 106 118 49
f 192 159 265
f 195 159 192
f 265 272 192
f 192 272 195
f 265 119 319
f 319 266 265
f 100 24 6
f 6 266 100
f 131 156 221
f 195 272 293
f 293 59 195
f 298 88 293
f 293 272 298
f 88 15 293
f 293 15 36
f 293 36 90
f 90 59 293
f 91 32 280
f 280 236 91
f 288 117 55
f 145 183 150
f 261 36 179
f 36 15 179
f 63 254 88
f 88 141 63
f 63 141 254
f 315 245 306
f 306 184 315
f 184 83 315
f 178 271 297
f 297 271 136
f 297 230 87
f 204 230 297
f 114 204 297
f 173 271 178
f 87 263 173
f 263 271 173
f 64 38 121
f 121 38 116
f 116 38 28
f 203 116 37
f 203 99 116
f 213 99 203
f 67 130 160
f 160 282 67
f 60 165 92
f 113 316 92
f 92 316 60
f 205 247 214
f 214 139 6
f 6 205 214
f 217 187 275
f 187 318 275
f 275 318 251
f 275 251 244
f 51 262 291
f 211 51 291
f 291 262 211
f 274 34 106
f 106 49 274
f 240 319 105
f 105 8 240
f 156 8 105
f 119 159 223
f 223 319 119
f 226 51 24
f 266 319 279
f 279 100 266
f 136 64 301
f 301 149 136
f 235 213 309
f 309 180 235
f 58 180 309
f 64 188 218
f 218 301 64
f 212 236 292
f 292 91 212
f 212 91 236
f 137 117 197
f 137 55 117
f 137 197 288
f 288 55 137
f 197 117 7
f 224 197 7
f 183 30 120
f 120 82 183
f 120 30 101
f 101 102 120
f 102 82 120
f 170 150 183
f 183 82 170
f 82 186 170
f 170 186 144
f 144 166 170
f 123 166 232
f 81 232 166
f 123 232 81
f 78 166 237
f 237 76 78
f 10 76 237
f 237 123 10
f 237 166 123
f 254 241 56
f 56 15 254
f 56 179 15
f 56 241 261
f 261 179 56
f 136 149 267
f 267 297 136
f 87 173 175
f 175 173 178
f 175 297 87
f 178 297 175
f 116 278 308
f 116 99 276
f 276 278 116
f 303 102 101
f 103 54 249
f 249 123 103
f 206 77 113
f 113 92 248
f 24 129 142
f 6 24 142
f 300 129 24
f 269 200 247
f 269 247 229
f 244 112 13
f 200 269 13
f 273 24 217
f 217 275 273
f 273 300 24
f 70 300 273
f 59 319 3
f 319 223 3
f 59 299 164
f 227 221 156
f 24 100 228
f 228 226 24
f 314 319 240
f 314 279 319
f 313 59 90
f 16 303 101
f 32 91 270
f 209 91 292
f 292 125 209
f 209 270 91
f 79 16 101
f 79 125 58
f 58 309 79
f 233 180 58
f 233 231 180
f 233 125 292
f 58 125 233
f 292 236 233
f 236 231 233
f 311 231 236
f 180 231 311
f 235 180 239
f 180 218 239
f 239 99 235
f 239 218 188
f 188 308 239
f 239 308 278
f 33 218 180
f 40 1 177
f 177 33 40
f 104 1 194
f 96 104 194
f 1 40 194
f 194 115 96
f 194 117 115
f 150 170 133
f 133 17 145
f 145 150 133
f 133 171 17
f 133 170 166
f 242 166 144
f 144 81 242
f 242 81 166
f 86 303 128
f 102 303 86
f 54 103 286
f 286 28 152
f 87 54 286
f 286 152 87
f 172 103 123
f 172 286 103
f 213 203 48
f 77 206 283
f 129 300 283
f 302 92 165
f 302 165 6
f 6 142 302
f 129 248 302
f 302 142 129
f 151 13 112
f 200 13 151
f 70 273 238
f 238 158 70
f 148 158 238
f 94 319 59
f 221 227 68
f 68 299 59
f 59 313 68
f 303 16 295
f 295 309 213
f 295 79 309
f 16 79 295
f 253 125 32
f 32 125 202
f 125 79 202
f 101 32 202
f 202 79 101
f 180 311 220
f 220 311 236
f 201 33 177
f 218 33 201
f 74 218 201
f 201 297 74
f 114 297 201
f 143 236 224
f 224 7 143
f 171 133 46
f 46 133 166
f 78 171 46
f 46 166 78
f 37 116 167
f 116 181 167
f 167 181 191
f 246 86 128
f 246 167 191
f 116 28 107
f 107 181 116
f 50 82 102
f 123 81 50
f 50 186 82
f 50 81 144
f 144 186 50
f 129 283 14
f 14 283 206
f 98 248 92
f 92 302 98
f 98 302 248
f 205 148 31
f 148 238 31
f 31 229 205
f 59 164 97
f 97 94 59
f 299 68 84
f 84 68 227
f 32 270 75
f 75 253 32
f 180 220 41
f 236 143 154
f 154 143 44
f 9 199 73
f 194 199 9
f 117 194 9
f 9 264 117
f 44 216 95
f 216 143 95
f 7 264 95
f 95 143 7
f 260 7 117
f 117 264 260
f 260 264 7
f 210 216 44
f 44 143 210
f 210 143 216
f 86 246 89
f 89 246 191
f 167 246 5
f 5 246 48
f 5 48 203
f 191 181 250
f 28 286 250
f 250 172 191
f 286 172 250
f 157 50 102
f 234 172 123
f 123 50 234
f 180 41 111
f 111 41 73
f 73 41 196
f 196 9 73
f 44 95 153
f 153 95 264
f 181 107 162
f 162 107 28
f 28 250 162
f 127 157 191
f 50 157 127
f 127 234 50
f 191 172 127
f 172 234 127
f 310 89 191
f 191 157 310
f 289 154 44
f 289 18 154
f 154 18 304
f 304 220 236
f 236 154 304
f 220 304 198
f 198 304 18
f 181 162 47
f 162 25 47
f 23 162 250
f 23 25 162
f 23 250 181
f 93 182 176
f 93 176 39
f 39 27 93
f 106 132 208
f 208 124 106
f 287 306 155
f 284 251 318
f 217 284 318
f 318 187 217
f 249 245 315
f 315 83 249
f 28 38 207
f 28 207 152
f 87 230 160
f 160 53 108
f 160 130 87
f 204 163 160
f 160 230 204
f 163 53 160
f 108 282 160
f 274 118 281
f 274 281 34
f 274 49 118
f 74 297 267
f 267 218 74
f 149 301 267
f 301 218 267
f 64 121 308
f 308 188 64
f 308 121 116
f 3 223 159
f 159 59 3
f 51 226 314
f 314 262 51
f 240 8 314
f 8 262 314
f 314 228 100
f 100 279 314
f 226 228 314
f 239 276 99
f 278 276 239
f 70 158 283
f 205 77 283
f 283 148 205
f 283 158 148
f 283 300 70
f 151 146 312
f 151 312 139
f 139 214 151
f 112 146 151
f 151 214 247
f 247 200 151
f 90 22 68
f 131 221 68
f 68 22 131
f 68 313 90
f 201 20 114
f 177 1 201
f 256 20 201
f 201 104 256
f 201 1 104
f 128 303 246
f 213 48 246
f 246 295 213
f 303 295 246
f 113 248 14
f 14 206 113
f 14 248 129
f 244 13 31
f 31 275 244
f 31 269 229
f 31 13 269
f 31 273 275
f 31 238 273
f 84 105 319
f 156 105 84
f 84 227 156
f 84 164 299
f 84 97 164
f 319 94 84
f 94 97 84
f 270 209 75
f 75 209 125
f 125 253 75
f 37 167 5
f 5 203 37
f 73 199 111
f 111 33 180
f 111 194 40
f 111 40 33
f 111 199 194
f 102 86 310
f 310 157 102
f 86 89 310
f 198 196 41
f 264 9 198
f 198 41 220
f 44 153 198
f 198 289 44
f 9 196 198
f 198 153 264
f 18 289 198
f 181 47 23
f 23 47 25

