# https://github.com/mikedh/trimesh
v 0.04740183 0.02706647 -0.02009667
v 0.04943755 0.02809697 -0.01888042
v 0.04941760 0.02584947 -0.02111395
v 0.04984046 0.00006420 -0.02250000
v 0.00245325 0.00088863 -0.02838897
v 0.04777914 0.02844098 -0.00033680
v 0.04868362 0.02837320 -0.01662519
v 0.04458218 0.02846169 -0.01813170
v 0.04474188 0.02847212 -0.00946154
v 0.04755495 0.02796198 -0.01919375
v 0.04845365 0.02809894 -0.01899255
v 0.04510166 0.02848534 -0.00072475
v 0.00255009 0.01714332 -0.02838524
v 0.04198423 0.02821333 -0.01774234
v 0.02137220 0.02269329 -0.00013223
v 0.00001130 0.02249999 -0.01212885
v 0.00017793 0.01876516 -0.02842191
v 0.00331900 0.00119859 -0.02830357
v 0.04607151 0.02848257 -0.00008737
v 0.04685056 0.02848647 -0.00132008
v 0.04701341 0.02848150 -0.01566723
v 0.04705961 0.02675030 -0.02042421
v 0.04995516 0.02021767 -0.02250000
v 0.04683769 0.02848666 -0.00036933
v 0.04401748 0.02842411 -0.01842058
v 0.04193187 0.02820638 -0.00072510
v 0.00348453 0.00434352 -0.02828460
v 0.04853722 0.02838678 -0.00302767
v 0.04768088 0.02844806 -0.01794574
v 0.04892842 0.02834407 -0.01825805
v 0.00067378 0.00138411 -0.02848460
v 0.00000050 0.02249999 -0.00635979
v 0.04666907 0.02848362 -0.01757617
v 0.04971590 0.02824291 -0.01833732
v 0.00259355 0.00938614 -0.02838133
v 0.04877307 0.02708981 -0.01995729
v 0.04791482 0.02819749 -0.01893295
v 0.00074496 0.02132242 -0.02585303
v 0.00009273 0.02141098 -0.02576260
v 0.04524097 0.02848871 -0.01484672
v 0.00435495 0.00016058 -0.02816397
v 0.04239943 0.02824703 -0.01872110
v 0.04871684 0.02836934 -0.01116571
v 0.04303204 0.02834233 -0.01829231
v 0.00339688 0.00878751 -0.02829623
v 0.04688501 0.02848454 -0.00920960
v 0.04329504 0.02837020 -0.00153948
v 0.04742253 0.02630281 -0.02085845
v 0.04520277 0.02848856 -0.01843142
v 0.00006554 0.01779270 -0.02848669
v 0.00134404 0.01116722 -0.02846763
v 0.00137553 0.00138719 -0.02846492
v 0.04876229 0.02836423 -0.01388377
v 0.04740023 0.02597826 -0.02118383
v 0.00157425 0.01858579 -0.02845241
v 0.04219206 0.02824091 -0.01843159
v 0.00001798 0.01361191 -0.02848533
v 0.04782739 0.02843751 -0.00019754
v 0.00084827 0.01948199 -0.02770373
v 0.04491919 0.02581179 -0.02136399
v 0.04981767 0.02822966 -0.01766456
v 0.02913956 0.00003842 -0.02252930
v 0.04992710 0.02821500 -0.01546183
v 0.04641491 0.02848483 -0.01818597
v 0.04344396 0.02838496 -0.01469014
v 0.04696555 0.02848201 -0.00046259
v 0.04769459 0.02488644 -0.02224248
v 0.04697255 0.02848292 -0.01198904
v 0.00616188 0.02249999 -0.00001532
v 0.04486895 0.02847665 -0.00025400
v 0.04971887 0.02555819 -0.02136522
v 0.00022909 0.02216165 -0.02500811
v 0.01227139 0.00000836 -0.02572560
v 0.04476189 0.02847284 -0.01421617
v 0.04678044 0.02805986 -0.01912112
v 0.04884014 0.02835514 -0.01725077
v 0.04181771 0.02819123 -0.01450801
v 0.04851437 0.02838857 -0.00271723
v 0.04620235 0.02838918 -0.01879602
v 0.04992373 0.02193791 -0.02250000
v 0.04477376 0.02847326 -0.00094286
v 0.00134728 0.00681390 -0.02846720
v 0.04849523 0.02774921 -0.01933546
v 0.00249373 0.01665281 -0.02838968
v 0.04751040 0.02845966 -0.01607910
v 0.04469884 0.02846942 -0.00411348
v 0.04502779 0.00000298 -0.02249999
v 0.00263469 0.00152880 -0.02837682
v 0.04867444 0.02837364 -0.00694272
v 0.04747663 0.02846108 -0.01702079
v 0.04868210 0.02837336 -0.01849979
v 0.00089864 0.01852666 -0.02848480
v 0.04187773 0.02819920 -0.01632693
v 0.00000912 0.02052350 -0.02665475
v 0.04459507 0.02846196 -0.00093926
v 0.04851613 0.02838792 -0.01632822
v 0.04753708 0.02845842 -0.00892006
v 0.04836237 0.02716947 -0.01992128
v 0.04443464 0.02845190 -0.01836205
v 0.04715753 0.02685624 -0.02031757
v 0.04826455 0.02737355 -0.01972898
v 0.00007394 0.02250000 -0.02424029
v 0.04705915 0.02833644 -0.01884304
v 0.02201720 0.00006419 -0.02294751
v 0.04858117 0.02838273 -0.00935399
v 0.04183342 0.02819332 -0.00596458
v 0.04965831 0.02819348 -0.01875646
v 0.04538524 0.02848906 -0.01825412
v 0.04862318 0.02837872 -0.00231375
v 0.00001405 0.02249999 -0.00144004
v 0.04720359 0.02847184 -0.00124136
v 0.00026138 0.01933762 -0.02784733
v 0.00058263 0.01851535 -0.02848901
v 0.04721886 0.02598262 -0.02118770
v 0.00036545 0.00001760 -0.02848296
v 0.00206410 0.01873469 -0.02838452
v 0.04855369 0.02838533 -0.01450190
v 0.04356692 0.02838988 -0.00002123
v 0.00043166 0.02250000 -0.02460589
v 0.04863812 0.02837746 -0.01584023
v 0.00408719 0.00036591 -0.02820253
v 0.00362719 0.00078810 -0.02826511
v 0.04952462 0.02425253 -0.02250000
v 0.04568469 0.02848796 -0.01869100
v 0.02003269 0.00006713 -0.02324209
v 0.00183569 0.00030226 -0.02843179
v 0.00093834 0.00185227 -0.02848385
v 0.04382641 0.02841131 -0.01815707
v 0.04185197 0.02819578 -0.00485112
v 0.00129362 0.00261505 -0.02847052
v 0.04763152 0.02845162 -0.01586596
v 0.01768586 0.00007017 -0.02375729
v 0.04311381 0.02834982 -0.00071342
v 0.00335052 0.01247557 -0.02830213
v 0.04797548 0.02657181 -0.02055001
v 0.04997677 0.01118522 -0.02250000
v 0.00227188 0.01828334 -0.02840507
v 0.00009388 0.02249999 -0.00014355
v 0.00159954 0.00037373 -0.02844877
v 0.02997763 0.02424489 -0.00000121
v 0.02497123 0.02307050 -0.00008999
v 0.04236221 0.02826416 -0.00027424
v 0.04989791 0.02791639 -0.01900103
v 0.04713834 0.02847626 -0.01855533
v 0.04496176 0.02535240 -0.02182075
v 0.00092570 0.02010717 -0.02707531
v 0.04895679 0.02767096 -0.01936467
v 0.04687404 0.02848318 -0.01405578
v 0.00255101 0.01818131 -0.02838512
v 0.02794025 0.02366536 -0.00004551
v 0.04104434 0.02806424 -0.00008200
v 0.00266182 0.00315975 -0.02837482
v 0.04389961 0.02841624 -0.01836696
v 0.04890823 0.02834183 -0.00043148
v 0.04317434 0.02835685 -0.01774814
v 0.04730867 0.02774532 -0.01942256
v 0.04832763 0.02840147 -0.01764073
v 0.04733182 0.02492039 -0.02224398
v 0.02405358 0.00003750 -0.02273949
v 0.00120678 0.01857630 -0.02847347
v 0.04344503 0.02838380 -0.00897674
v 0.04258823 0.02829441 -0.00350717
v 0.04799302 0.02842557 -0.00064539
v 0.00007303 0.00801868 -0.02848399
v 0.01064504 0.02249998 -0.00002938
v 0.04254324 0.02828911 -0.00049382
v 0.00010628 0.01976833 -0.02741411
v 0.00271052 0.00031757 -0.02836977
v 0.04511850 0.02848581 -0.00266064
v 0.04258116 0.02829325 -0.00076816
v 0.04948375 0.02569834 -0.02125605
v 0.04993565 0.02649639 -0.02040609
v 0.04998655 0.01806341 -0.02250000
v 0.00052956 0.00024429 -0.02848370
v 0.04967803 0.02824778 -0.01833582
v 0.00018347 0.00305100 -0.02848306
v 0.04752588 0.02845905 -0.00993840
v 0.04688769 0.02848578 -0.00463571
v 0.04690929 0.02848482 -0.00340216
v 0.04266241 0.02830331 -0.01778629
v 0.04780297 0.02670844 -0.02042646
v 0.04922812 0.02448490 -0.02247960
v 0.04865228 0.02837603 -0.00618048
v 0.04336010 0.02837673 -0.00676954
v 0.04487528 0.02847688 -0.01714732
v 0.01796768 0.02255601 -0.00001228
v 0.00232722 0.02249999 -0.00001062
v 0.00137028 0.01759405 -0.02846604
v 0.00081424 0.00343741 -0.02848575
v 0.04264461 0.02830155 -0.01200831
v 0.04349406 0.02838624 -0.00533454
v 0.00072975 0.01926443 -0.02792223
v 0.04761802 0.02538690 -0.02175677
v 0.04270701 0.02830868 -0.01653435
v 0.04962168 0.02482337 -0.02210494
v 0.04719862 0.02473259 -0.02243260
v 0.00077756 0.01807862 -0.02848926
v 0.00329048 0.01853501 -0.02830925
v 0.04730844 0.02505441 -0.02211111
v 0.00031512 0.01872651 -0.02846131
v 0.04927276 0.02440909 -0.02250000
v 0.04762505 0.02845208 -0.00235751
v 0.04998803 0.02820815 -0.00043915
v 0.00028215 0.02230622 -0.02486287
v 0.04263362 0.02829949 -0.01789481
v 0.04292593 0.02832864 -0.00020305
v 0.00076238 0.01790886 -0.02848957
v 0.02723750 0.00002557 -0.02257997
v 0.04748036 0.02846085 -0.00320048
v 0.04719091 0.02540256 -0.02176564
v 0.04469036 0.02846881 -0.00232183
v 0.00209533 0.01863294 -0.02841711
v 0.04994627 0.00456674 -0.02250000
v 0.04493087 0.02847886 -0.01766196
v 0.04811622 0.02734409 -0.01976983
v 0.00103681 0.00004129 -0.02848001
v 0.00131927 0.01736546 -0.02846935
v 0.04528396 0.02817550 -0.01901234
v 0.00122896 0.00172456 -0.02847292
v 0.04825810 0.02700221 -0.02009708
v 0.04350099 0.02838899 -0.01539030
v 0.04547829 0.02480829 -0.02236087
v 0.04991397 0.02821679 -0.01585201
f 121 41 168
f 141 150 186
f 187 138 159
f 42 119 102
f 4 41 121
f 203 150 4
f 4 150 141
f 87 115 4
f 4 186 87
f 216 168 41
f 216 4 115
f 41 4 216
f 87 186 165
f 87 187 62
f 73 115 87
f 159 125 73
f 110 26 32
f 164 176 110
f 110 176 115
f 115 138 110
f 110 57 164
f 32 57 110
f 42 102 56
f 50 57 94
f 94 17 50
f 94 16 102
f 94 57 32
f 32 16 94
f 141 186 15
f 15 4 141
f 186 4 15
f 140 150 203
f 140 186 150
f 187 186 140
f 69 186 187
f 69 165 186
f 69 187 87
f 87 165 69
f 187 159 208
f 208 62 187
f 87 62 208
f 208 73 87
f 159 73 208
f 104 159 138
f 138 125 104
f 104 125 159
f 132 138 115
f 132 125 138
f 115 73 132
f 132 73 125
f 121 168 122
f 168 18 122
f 122 4 121
f 200 113 50
f 50 17 200
f 102 16 14
f 14 56 102
f 127 189 207
f 58 140 203
f 172 63 203
f 34 107 91
f 134 18 168
f 168 216 126
f 17 94 167
f 93 16 32
f 93 14 16
f 204 102 119
f 204 72 102
f 39 94 102
f 102 72 39
f 174 216 115
f 174 127 216
f 154 58 203
f 143 107 34
f 63 172 143
f 193 67 158
f 158 67 182
f 195 123 182
f 113 200 92
f 200 160 92
f 92 160 127
f 219 52 216
f 216 127 219
f 189 127 31
f 127 174 31
f 109 154 203
f 203 89 109
f 56 14 166
f 14 93 166
f 187 140 118
f 118 138 187
f 118 151 138
f 81 70 12
f 58 24 19
f 70 118 19
f 24 12 19
f 19 12 70
f 140 58 19
f 19 118 140
f 71 172 195
f 61 143 34
f 61 34 203
f 37 10 103
f 103 107 37
f 107 11 37
f 158 1 54
f 158 11 135
f 135 193 158
f 53 91 7
f 100 22 103
f 210 79 22
f 103 22 75
f 75 79 103
f 22 79 75
f 52 35 88
f 88 35 152
f 88 152 168
f 27 122 18
f 27 136 122
f 4 122 213
f 122 136 213
f 203 4 213
f 213 136 203
f 136 27 173
f 173 172 203
f 203 136 173
f 207 113 197
f 113 92 197
f 197 127 207
f 197 92 127
f 149 35 13
f 152 35 149
f 127 160 217
f 13 35 84
f 84 149 13
f 84 35 52
f 201 182 123
f 196 116 200
f 182 116 196
f 158 182 196
f 200 222 196
f 222 60 196
f 192 167 94
f 32 26 129
f 129 106 32
f 26 166 129
f 129 166 106
f 77 93 32
f 32 106 77
f 77 166 93
f 106 166 77
f 78 109 28
f 58 154 163
f 154 109 163
f 163 78 58
f 109 78 163
f 183 109 89
f 144 107 103
f 144 91 107
f 103 79 124
f 124 144 103
f 124 79 204
f 124 119 42
f 124 204 119
f 95 70 81
f 95 118 70
f 47 118 191
f 118 95 191
f 2 11 107
f 63 143 223
f 143 61 223
f 203 63 223
f 223 61 203
f 103 10 156
f 10 1 156
f 158 54 181
f 48 1 10
f 48 54 1
f 193 135 83
f 203 34 175
f 34 91 175
f 43 89 203
f 203 53 43
f 43 53 7
f 7 183 43
f 43 183 89
f 76 53 203
f 91 53 76
f 91 96 117
f 117 78 28
f 204 79 218
f 218 192 59
f 200 192 218
f 218 60 200
f 218 196 60
f 79 210 218
f 210 196 218
f 22 100 114
f 114 210 22
f 145 222 200
f 200 60 145
f 145 60 222
f 139 126 216
f 168 126 139
f 52 88 139
f 216 52 139
f 134 173 45
f 45 173 27
f 18 134 45
f 45 27 18
f 80 123 195
f 195 172 80
f 198 201 123
f 123 80 198
f 152 149 198
f 168 152 198
f 198 173 134
f 198 134 168
f 52 219 130
f 130 219 127
f 127 217 130
f 158 196 199
f 199 196 210
f 210 114 199
f 112 192 200
f 167 192 112
f 21 144 33
f 21 209 144
f 33 144 64
f 144 124 64
f 128 153 44
f 180 194 44
f 44 194 47
f 42 56 44
f 25 124 42
f 42 44 25
f 25 44 153
f 49 124 25
f 133 118 47
f 133 206 118
f 47 166 133
f 166 206 133
f 151 118 142
f 118 206 142
f 138 151 142
f 142 206 166
f 142 110 138
f 26 110 142
f 142 166 26
f 169 12 24
f 24 40 169
f 49 12 169
f 169 40 49
f 24 124 108
f 108 40 24
f 108 124 49
f 49 40 108
f 215 11 158
f 158 181 215
f 101 135 11
f 11 83 101
f 101 83 135
f 30 76 203
f 203 175 30
f 91 76 30
f 30 175 91
f 144 209 177
f 66 24 58
f 91 117 120
f 131 78 29
f 78 117 29
f 91 144 29
f 29 144 90
f 204 218 38
f 5 88 168
f 168 139 5
f 5 139 88
f 173 198 23
f 23 198 80
f 172 173 23
f 23 80 172
f 188 217 160
f 160 55 188
f 212 198 149
f 201 198 212
f 212 55 160
f 212 116 182
f 182 201 212
f 212 160 200
f 200 116 212
f 52 130 82
f 82 212 52
f 55 212 82
f 137 84 52
f 52 212 137
f 149 84 137
f 137 212 149
f 33 64 178
f 178 64 124
f 190 194 180
f 56 166 190
f 166 162 190
f 47 194 190
f 190 162 47
f 205 44 56
f 180 44 205
f 56 190 205
f 205 190 180
f 211 153 128
f 211 65 95
f 211 95 81
f 83 36 98
f 147 36 83
f 147 83 11
f 11 2 147
f 131 29 85
f 85 29 90
f 90 144 85
f 144 177 85
f 6 66 58
f 58 78 6
f 105 117 28
f 105 120 117
f 157 117 96
f 157 29 117
f 157 96 91
f 91 29 157
f 146 218 59
f 146 38 218
f 55 82 51
f 51 188 55
f 51 82 130
f 217 188 51
f 51 130 217
f 148 21 33
f 24 66 20
f 20 124 24
f 20 178 124
f 179 66 209
f 179 20 66
f 178 20 179
f 170 166 47
f 47 162 170
f 170 162 166
f 128 44 155
f 44 65 155
f 47 191 161
f 161 191 95
f 95 65 161
f 49 25 99
f 99 8 49
f 86 25 153
f 153 211 86
f 86 99 25
f 8 99 86
f 86 211 81
f 193 83 220
f 83 98 220
f 36 147 3
f 97 177 209
f 131 85 97
f 97 85 177
f 97 78 131
f 209 66 111
f 111 6 209
f 66 6 111
f 209 6 202
f 202 97 209
f 202 6 78
f 78 97 202
f 21 148 46
f 33 178 46
f 46 148 33
f 128 155 221
f 221 155 65
f 221 211 128
f 65 211 221
f 47 161 184
f 184 161 65
f 184 44 47
f 184 65 44
f 8 74 185
f 185 74 12
f 9 74 8
f 8 86 9
f 9 86 81
f 81 12 9
f 12 74 9
f 171 3 147
f 195 3 171
f 171 71 195
f 21 46 68
f 68 46 178
f 178 179 68
f 209 21 68
f 68 179 209
f 49 8 214
f 8 185 214
f 214 12 49
f 214 185 12
f 115 176 31
f 31 113 207
f 31 57 50
f 164 57 31
f 31 176 164
f 50 113 31
f 207 189 31
f 31 174 115
f 199 1 158
f 199 100 103
f 103 156 199
f 199 156 1
f 199 114 100
f 17 167 112
f 112 200 17
f 10 37 215
f 215 37 11
f 215 48 10
f 215 181 54
f 54 48 215
f 7 91 105
f 105 183 7
f 28 109 105
f 109 183 105
f 91 120 105
f 72 204 146
f 146 39 72
f 94 39 146
f 146 192 94
f 59 192 146
f 204 38 146
f 67 193 3
f 195 182 3
f 3 182 67
f 193 220 3
f 3 98 36
f 3 220 98
f 107 143 171
f 172 71 171
f 171 143 172
f 171 2 107
f 171 147 2

