# https://github.com/mikedh/trimesh
v -0.02271919 0.02727246 -0.00093697
v -0.02452295 0.02939148 -0.02277590
v -0.02464591 0.02794424 -0.00550013
v -0.00016901 0.02837139 -0.00866577
v -0.02448715 0.02928616 -0.01935111
v -0.00020013 0.02895555 -0.01985683
v -0.00042026 0.02900013 -0.02230637
v -0.00030504 0.02784761 -0.00268575
v -0.02495415 0.02909850 -0.01663050
v -0.01453947 0.02503033 -0.01500006
v -0.00079313 0.02514111 -0.00582758
v -0.02351406 0.02940955 -0.02484834
v -0.02247745 0.02713099 -0.00002117
v -0.01421826 0.02764494 -0.00184370
v -0.02417868 0.02508318 -0.00649693
v -0.00000047 0.02870664 -0.01351985
v -0.00048512 0.02758095 -0.00029802
v -0.00246102 0.02904546 -0.02494251
v -0.00011950 0.02818865 -0.00627107
v -0.00038840 0.02523723 -0.01500007
v -0.00086344 0.02864287 -0.01205276
v -0.00139576 0.02504288 -0.01500007
v -0.02425028 0.02941762 -0.02435463
v -0.02487097 0.02532706 -0.01500006
v -0.02285097 0.02515661 -0.01500006
v -0.00015236 0.02547447 -0.01500007
v -0.01774371 0.02501276 -0.00532340
v -0.00044652 0.02900906 -0.02284204
v -0.01903208 0.02500657 -0.00681794
v -0.00324431 0.02504036 -0.00473856
v -0.01568260 0.02740935 -0.00031502
v -0.02366541 0.02503315 -0.00602221
v -0.00041703 0.02520401 -0.00651736
v -0.02491164 0.02935417 -0.02030354
v -0.01048340 0.02744733 -0.00006084
v -0.00210253 0.02507554 -0.00511597
v -0.00281077 0.02771985 -0.00164211
v -0.02450754 0.02705338 -0.00044680
v -0.01471714 0.02783000 -0.00336610
v -0.01464175 0.02793075 -0.00418522
v -0.00773704 0.02500917 -0.00464200
v -0.02397274 0.02844562 -0.00922150
v -0.02296406 0.02732342 -0.00130521
v -0.01483489 0.02745371 -0.00041290
v -0.02475136 0.02838539 -0.00882122
v -0.01280117 0.02745685 -0.00024356
v -0.00008118 0.02892190 -0.01902624
v -0.00850941 0.02755181 -0.00065026
v -0.00181101 0.02808472 -0.00510602
v -0.00052862 0.02902795 -0.02414258
v -0.02492156 0.02874045 -0.01177202
v -0.02498910 0.02655683 -0.01493630
v -0.01371281 0.02502048 -0.01500006
v -0.01427548 0.02917888 -0.02493005
f 52 34 24
f 38 27 13
f 38 24 15
f 52 24 38
f 52 38 51
f 51 38 3
f 47 34 16
f 23 34 6
f 6 47 50
f 34 47 6
f 2 34 23
f 23 24 2
f 2 24 34
f 32 38 15
f 27 38 32
f 13 17 35
f 9 34 52
f 52 51 9
f 3 44 45
f 45 51 3
f 50 47 26
f 26 47 16
f 16 19 26
f 28 50 23
f 28 6 50
f 13 27 41
f 41 53 22
f 18 50 22
f 22 53 18
f 27 32 29
f 29 32 53
f 29 41 27
f 53 41 29
f 15 24 25
f 25 32 15
f 13 1 43
f 43 1 3
f 43 38 13
f 3 38 43
f 31 44 3
f 3 1 31
f 31 1 13
f 34 9 5
f 46 35 17
f 44 31 46
f 13 35 46
f 46 31 13
f 17 51 40
f 22 50 20
f 50 26 20
f 23 6 7
f 7 28 23
f 6 28 7
f 30 17 13
f 13 41 30
f 30 41 22
f 23 50 12
f 50 18 12
f 12 24 23
f 12 25 24
f 53 32 10
f 32 25 10
f 51 45 42
f 42 40 51
f 48 46 17
f 14 45 44
f 44 46 14
f 46 48 14
f 37 51 17
f 17 8 37
f 37 8 51
f 49 19 51
f 51 8 49
f 49 8 19
f 51 19 21
f 21 9 51
f 21 5 9
f 34 5 21
f 16 34 21
f 33 20 26
f 17 11 33
f 33 11 22
f 22 20 33
f 33 8 17
f 33 26 19
f 19 8 33
f 36 11 17
f 17 30 36
f 22 11 36
f 36 30 22
f 54 12 18
f 25 12 54
f 54 10 25
f 54 18 53
f 53 10 54
f 39 42 45
f 45 14 39
f 40 42 39
f 39 14 48
f 17 40 39
f 39 48 17
f 4 19 16
f 16 21 4
f 4 21 19

