# https://github.com/mikedh/trimesh
v 0.07037198 0.00147450 0.05098631
v 0.07472061 0.01306973 0.06191675
v 0.06893939 0.00087784 0.05010987
v 0.06045158 0.01451655 0.05012055
v 0.06788086 0.00234699 0.05490179
v 0.07171291 0.00246009 0.05136408
v 0.06553801 0.00633134 0.05815350
v 0.06511481 0.00762426 0.05810468
v 0.07471059 0.00539233 0.05391005
v 0.07449446 0.00549685 0.05082118
v 0.05932617 0.01361959 0.05012670
v 0.06459177 0.00478544 0.05743754
v 0.06690010 0.00042951 0.05011802
v 0.07099438 0.00190741 0.05106087
v 0.06491318 0.00017598 0.05003032
v 0.05652259 0.00639993 0.05284460
v 0.05257924 0.00416873 0.05091057
v 0.06836996 0.00202479 0.05424965
v 0.07449474 0.02192207 0.05879413
v 0.05279141 0.00057296 0.05027355
v 0.07070020 0.00169431 0.05120640
v 0.06440845 0.00550863 0.05752942
v 0.05541690 0.00945562 0.05019337
v 0.07489555 0.02317382 0.05810558
v 0.07392158 0.01270690 0.06175260
v 0.06072739 0.00009148 0.05022060
v 0.05251131 0.00266338 0.05108117
v 0.05207489 0.00542204 0.05001970
v 0.07360633 0.01635156 0.06089261
v 0.06591870 0.00683742 0.05838315
v 0.07437490 0.01673727 0.06122954
v 0.06596343 0.00326978 0.05629842
v 0.05155694 0.00299140 0.05052502
v 0.07444707 0.01818040 0.06076989
v 0.07327352 0.01168061 0.06152597
v 0.06449644 0.00584545 0.05763612
v 0.06427908 0.00463634 0.05725574
v 0.07169136 0.00251304 0.05167958
v 0.07030068 0.00144287 0.05085167
v 0.06444807 0.00585824 0.05761466
v 0.07496454 0.00574471 0.05441450
v 0.07493207 0.00521741 0.05235101
v 0.06500930 0.00919816 0.05777087
v 0.06464071 0.00623176 0.05776164
v 0.05209722 0.00519586 0.05015352
v 0.07479089 0.02048935 0.05998295
v 0.05956026 0.00017679 0.05040885
v 0.07210433 0.01403771 0.06075609
v 0.07368051 0.01772653 0.06042758
v 0.07493822 0.02264048 0.05109409
v 0.07442897 0.01155318 0.06172614
v 0.07458343 0.02324469 0.05223814
v 0.07473801 0.01118491 0.06165005
v 0.06576014 0.00604317 0.05814229
v 0.07425571 0.02351672 0.05306771
v 0.07406489 0.01244952 0.06178176
v 0.06460380 0.00644235 0.05776824
v 0.06547692 0.00634830 0.05813692
v 0.06479920 0.00419504 0.05716984
v 0.06286485 0.00008329 0.05006509
v 0.07235138 0.01235344 0.06127519
v 0.06522966 0.00897932 0.05798494
v 0.06546207 0.00842394 0.05824430
v 0.07497710 0.02236340 0.05075049
v 0.07493682 0.02431837 0.05403107
v 0.06389346 0.00437495 0.05699102
v 0.06492197 0.00687165 0.05797784
v 0.07095359 0.01305299 0.06034698
v 0.06796028 0.00276676 0.05535973
v 0.06541700 0.00492458 0.05772157
v 0.07256439 0.00307642 0.05068838
v 0.05206350 0.00268827 0.05083528
v 0.06458572 0.00539505 0.05759274
v 0.06476135 0.00022907 0.05024640
v 0.05498369 0.00600705 0.05190153
v 0.06491120 0.00562685 0.05777748
v 0.06916669 0.00102099 0.05119708
v 0.05758715 0.01206552 0.05004930
v 0.07253639 0.02028312 0.05000172
v 0.07223019 0.01183184 0.06125240
v 0.06609203 0.00391647 0.05722383
v 0.07402386 0.02123918 0.05010373
v 0.07329188 0.01110065 0.06137943
v 0.06425383 0.01005043 0.05688351
v 0.05096263 0.00117387 0.05003980
v 0.05169781 0.00087006 0.05016486
v 0.07366575 0.01764988 0.06044838
v 0.05251418 0.00586645 0.05012636
v 0.07451961 0.01565302 0.06157680
v 0.07468110 0.02275876 0.05144860
v 0.05356538 0.00029320 0.05019214
v 0.07461912 0.02165435 0.05017888
v 0.05074314 0.00171819 0.05007781
v 0.07386581 0.01372124 0.06165138
v 0.07471016 0.02416114 0.05624050
v 0.07468436 0.01037272 0.06114591
v 0.06947384 0.00106069 0.05040256
v 0.07224046 0.01348799 0.06100628
v 0.07480946 0.02263909 0.05854108
v 0.07278017 0.01232806 0.06143312
v 0.07034145 0.00152572 0.05055841
v 0.06937188 0.00157504 0.05309646
v 0.06644763 0.00783738 0.05873959
v 0.07217210 0.01492333 0.06047662
v 0.05385719 0.00708653 0.05050977
v 0.06947027 0.00141557 0.05263524
v 0.06571950 0.00718970 0.05837615
v 0.06527674 0.00674900 0.05812776
v 0.05424991 0.00782651 0.05032924
v 0.07156427 0.01234541 0.06092202
v 0.06728192 0.00257910 0.05530572
v 0.05698143 0.01146097 0.05004773
v 0.07250014 0.01109189 0.06122858
v 0.07408504 0.02385804 0.05525383
v 0.07474114 0.02165253 0.05923577
v 0.07458164 0.01530510 0.06166260
v 0.07043696 0.00180323 0.05229988
v 0.07498607 0.00985524 0.06067994
v 0.05123885 0.00164861 0.05030697
v 0.07285875 0.00333215 0.05049113
v 0.07434277 0.01691963 0.06115595
v 0.07121722 0.00211159 0.05061257
v 0.07468283 0.02424066 0.05438494
v 0.06546592 0.00529419 0.05785676
v 0.07486744 0.02392889 0.05707907
v 0.06939088 0.00131964 0.05232107
v 0.06620354 0.00837092 0.05864843
v 0.07111562 0.00207628 0.05044403
v 0.07285088 0.01213185 0.06145442
v 0.07483981 0.01389460 0.06191236
v 0.06595484 0.00816370 0.05853183
v 0.06473638 0.00986508 0.05731023
v 0.06598961 0.00322022 0.05622978
v 0.06485675 0.00497575 0.05758794
v 0.07475654 0.01778741 0.06111294
v 0.07262362 0.01258043 0.06135877
v 0.06511195 0.00615055 0.05796296
v 0.06526763 0.00697634 0.05815635
v 0.07470563 0.00631829 0.05563232
v 0.06553240 0.00669698 0.05822358
v 0.06725133 0.00276765 0.05564273
v 0.07446633 0.01058142 0.06128114
v 0.05508924 0.00003543 0.05009533
v 0.06298069 0.01600209 0.05012291
v 0.06906166 0.00107303 0.05153770
v 0.07338414 0.01435484 0.06134787
v 0.07211514 0.00286345 0.05021530
v 0.07244184 0.01089896 0.06115540
v 0.06900777 0.00180598 0.05364896
v 0.07428694 0.01794569 0.06075294
v 0.07483315 0.00655873 0.05023418
v 0.05107749 0.00147971 0.05019101
v 0.07250024 0.01413435 0.06095773
v 0.06445593 0.01003706 0.05703501
v 0.07485356 0.01263468 0.06194056
v 0.05190986 0.00401770 0.05049400
v 0.07451518 0.01976082 0.06013637
v 0.06520308 0.00895846 0.05797422
v 0.06885434 0.00153966 0.05308482
v 0.07492245 0.00854127 0.05893402
v 0.07470260 0.01310616 0.06191244
v 0.05703680 0.01156720 0.05000102
v 0.06509690 0.00785412 0.05807941
v 0.05137647 0.00350984 0.05029794
v 0.07476663 0.00680444 0.05001034
v 0.05115589 0.00323247 0.05022205
v 0.06702155 0.00348981 0.05653209
v 0.07405609 0.01792320 0.06060578
v 0.07283074 0.00344646 0.05012000
v 0.06543032 0.00432384 0.05748312
v 0.06565432 0.00024596 0.05000352
v 0.07353714 0.01196077 0.06162106
v 0.06513684 0.00583981 0.05790754
v 0.06631703 0.00753577 0.05865092
v 0.07476893 0.02438746 0.05505358
v 0.07116946 0.00204299 0.05128418
v 0.07456335 0.01277337 0.06188653
v 0.07448758 0.01337571 0.06185842
v 0.07164097 0.00255601 0.05009997
v 0.07462692 0.02320303 0.05213807
v 0.06523233 0.00932722 0.05788129
f 64 41 42
f 118 41 64
f 118 24 130
f 93 28 85
f 143 81 91
f 91 85 143
f 86 85 91
f 175 95 125
f 144 64 92
f 65 24 118
f 118 64 65
f 65 125 24
f 175 125 65
f 55 144 65
f 114 95 175
f 86 91 20
f 96 81 118
f 118 53 96
f 118 130 155
f 155 53 118
f 151 64 42
f 92 64 165
f 64 151 165
f 42 41 9
f 41 117 9
f 112 24 162
f 24 125 162
f 175 65 123
f 112 162 23
f 23 162 28
f 81 96 142
f 142 96 53
f 81 142 170
f 170 142 53
f 170 91 81
f 170 20 91
f 86 20 170
f 46 28 45
f 135 130 46
f 46 130 24
f 72 33 93
f 47 18 143
f 143 26 47
f 47 26 18
f 118 81 167
f 167 141 118
f 81 141 167
f 5 18 118
f 143 18 5
f 143 141 133
f 133 141 81
f 171 85 28
f 28 162 171
f 143 85 171
f 160 41 118
f 41 160 139
f 79 162 144
f 165 171 79
f 79 171 162
f 95 114 4
f 4 114 175
f 144 162 4
f 175 123 4
f 4 65 144
f 4 123 65
f 144 180 90
f 52 144 55
f 52 180 144
f 55 65 52
f 65 180 52
f 50 65 64
f 50 180 65
f 50 90 180
f 64 144 50
f 144 90 50
f 112 23 99
f 99 23 19
f 99 24 112
f 99 46 24
f 116 94 130
f 116 130 135
f 135 89 116
f 136 116 89
f 94 116 136
f 158 110 62
f 70 170 53
f 53 155 51
f 33 72 8
f 93 85 152
f 45 49 157
f 157 46 45
f 49 34 157
f 157 34 135
f 135 46 157
f 166 33 158
f 93 33 166
f 166 28 93
f 132 84 75
f 75 49 45
f 75 84 49
f 158 62 181
f 49 132 181
f 181 87 49
f 118 141 69
f 69 5 118
f 141 5 69
f 111 141 143
f 143 5 111
f 111 5 141
f 32 81 143
f 143 133 32
f 32 133 81
f 42 9 38
f 38 6 42
f 38 9 117
f 102 160 118
f 102 139 160
f 102 117 41
f 41 139 102
f 10 151 42
f 42 6 71
f 71 120 42
f 169 165 151
f 151 10 169
f 169 120 147
f 42 120 169
f 169 10 42
f 60 26 143
f 143 171 60
f 18 26 60
f 92 165 82
f 165 79 82
f 82 144 92
f 82 79 144
f 11 125 95
f 95 4 11
f 11 4 162
f 28 46 88
f 105 109 88
f 88 23 28
f 88 109 23
f 115 99 19
f 46 99 115
f 115 109 105
f 115 88 46
f 105 88 115
f 19 23 115
f 23 109 115
f 61 110 80
f 61 136 110
f 100 25 94
f 94 136 100
f 100 61 80
f 136 61 100
f 31 89 135
f 110 136 98
f 89 31 98
f 83 70 53
f 53 51 83
f 83 51 113
f 148 113 124
f 124 70 148
f 148 83 113
f 70 83 148
f 56 51 155
f 174 113 80
f 80 103 174
f 174 103 107
f 107 103 131
f 158 33 63
f 8 131 63
f 63 110 158
f 93 152 119
f 152 73 119
f 178 161 130
f 25 161 178
f 130 94 178
f 94 25 178
f 154 132 49
f 49 84 154
f 154 84 132
f 168 34 49
f 49 87 168
f 158 17 164
f 164 166 158
f 45 28 164
f 28 166 164
f 156 75 45
f 45 164 156
f 156 164 17
f 43 17 158
f 158 181 43
f 43 181 17
f 17 181 16
f 16 156 17
f 75 156 16
f 132 75 16
f 16 181 132
f 21 38 117
f 117 1 21
f 118 18 149
f 149 102 118
f 18 102 149
f 106 102 74
f 117 102 106
f 106 1 117
f 179 171 165
f 165 169 179
f 179 3 171
f 179 169 147
f 74 60 15
f 15 60 171
f 15 106 74
f 171 106 15
f 159 102 18
f 18 60 159
f 74 102 159
f 159 60 74
f 78 162 125
f 125 11 78
f 78 11 162
f 121 31 135
f 135 29 121
f 121 29 48
f 68 181 62
f 68 98 48
f 68 62 110
f 110 98 68
f 146 136 89
f 89 98 146
f 146 98 136
f 25 56 177
f 177 56 155
f 113 51 35
f 80 113 35
f 127 103 80
f 127 131 103
f 80 110 127
f 110 63 127
f 127 63 131
f 33 8 163
f 163 63 33
f 8 63 163
f 8 67 138
f 107 131 138
f 138 131 8
f 27 8 72
f 27 67 8
f 27 72 93
f 93 67 27
f 66 85 86
f 37 73 152
f 37 12 73
f 37 152 85
f 85 66 37
f 170 12 37
f 37 66 170
f 6 38 176
f 38 21 176
f 176 71 6
f 147 120 128
f 128 179 147
f 101 179 128
f 126 106 171
f 145 77 126
f 126 77 1
f 1 106 126
f 1 77 97
f 77 3 97
f 97 179 101
f 3 179 97
f 48 29 104
f 87 181 104
f 181 68 104
f 104 68 48
f 48 98 153
f 153 121 48
f 153 98 31
f 31 121 153
f 2 161 25
f 25 177 2
f 2 177 155
f 2 155 130
f 130 161 2
f 51 56 172
f 172 35 51
f 140 174 107
f 134 70 124
f 170 70 134
f 134 12 170
f 124 113 54
f 93 119 22
f 22 119 73
f 57 67 93
f 107 138 108
f 108 140 107
f 86 170 59
f 59 66 86
f 170 66 59
f 13 3 77
f 13 77 145
f 171 3 13
f 145 126 13
f 13 126 171
f 71 176 14
f 14 176 21
f 14 21 1
f 101 128 122
f 122 14 1
f 71 14 122
f 120 71 122
f 122 128 120
f 1 97 39
f 39 97 101
f 39 122 1
f 101 122 39
f 150 104 29
f 135 34 150
f 150 29 135
f 87 104 150
f 80 35 129
f 35 172 129
f 129 100 80
f 129 172 56
f 25 100 129
f 129 56 25
f 174 140 30
f 113 174 30
f 30 54 113
f 7 54 30
f 140 108 137
f 7 30 58
f 58 30 140
f 140 137 58
f 44 137 108
f 44 108 138
f 44 138 67
f 67 57 44
f 44 57 93
f 173 58 137
f 7 58 173
f 173 134 124
f 124 54 173
f 173 54 7
f 73 137 36
f 137 44 36
f 36 22 73
f 93 22 36
f 76 137 73
f 76 173 137
f 134 173 76
f 73 12 76
f 12 134 76
f 40 44 93
f 93 36 40
f 40 36 44
f 150 168 87
f 34 168 150

