# https://github.com/mikedh/trimesh
v 0.13690149 -0.01250007 -0.01860270
v 0.14232737 -0.00088873 -0.02244635
v 0.13796840 -0.01607211 -0.02052628
v 0.13828841 -0.01611536 -0.02174768
v 0.13155233 -0.02377357 -0.02266946
v 0.13658238 -0.01476200 -0.01916419
v 0.14206434 -0.00478475 -0.02110667
v 0.14024603 -0.00381166 -0.01914521
v 0.14032091 -0.01186032 -0.02104709
v 0.13223447 -0.01886960 -0.01869482
v 0.12531067 -0.00078256 -0.01458734
v 0.13672030 -0.01363926 -0.01885076
v 0.12920936 -0.01936222 -0.01789270
v 0.13501611 -0.01762295 -0.01945543
v 0.13956366 -0.01387008 -0.02483198
v 0.12565253 -0.01078296 -0.01520814
v 0.13658443 -0.01884934 -0.02411973
v 0.13453142 -0.01452477 -0.01808707
v 0.13627693 -0.01924351 -0.02411960
v 0.14077806 -0.00658773 -0.01984233
v 0.14206213 -0.00446600 -0.02418409
v 0.13218437 -0.02321178 -0.02262931
v 0.13976982 -0.01340083 -0.02432561
v 0.12568835 -0.01566035 -0.01608249
v 0.12797400 -0.00002588 -0.01542600
v 0.13636691 -0.01892269 -0.02218129
v 0.13380738 -0.01466040 -0.01791369
v 0.13910005 -0.01249463 -0.01997706
v 0.14150657 -0.00086236 -0.01998834
v 0.14174285 -0.00127428 -0.02016813
v 0.12594669 -0.02234555 -0.01818529
v 0.12692883 -0.00949545 -0.01540156
v 0.12668148 -0.00011506 -0.01505162
v 0.12886164 -0.01768801 -0.01732382
v 0.13210048 -0.01175878 -0.01700211
v 0.13865680 -0.01559131 -0.02283422
v 0.13251585 -0.02301235 -0.02322924
v 0.13216717 -0.01929466 -0.01886868
v 0.14194735 -0.00564608 -0.02315981
v 0.14233509 -0.00099200 -0.02474969
v 0.13965501 -0.01241633 -0.02031239
v 0.13153092 -0.01954060 -0.01873939
v 0.12571413 -0.00358149 -0.01475019
v 0.13511976 -0.01521623 -0.01855063
v 0.13448480 -0.02120049 -0.02282736
v 0.13783791 -0.01523334 -0.02006941
v 0.14229711 -0.00176669 -0.02497953
v 0.13850556 -0.00165367 -0.01801549
v 0.13749013 -0.01769325 -0.02433241
v 0.13217140 -0.02270177 -0.02075342
v 0.14177986 -0.00674680 -0.02134091
v 0.13606404 -0.01948869 -0.02385071
v 0.12998197 -0.02477533 -0.02171430
v 0.13608476 -0.01937100 -0.02297443
v 0.13225667 -0.01777402 -0.01822830
v 0.13024085 -0.02480965 -0.02287011
v 0.13921582 -0.00772095 -0.01888014
v 0.12726509 -0.00042847 -0.01508828
v 0.12552584 -0.01363042 -0.01560543
v 0.12968729 -0.02298000 -0.01970736
v 0.14113244 -0.00930088 -0.02134749
v 0.12946747 -0.00981291 -0.01608984
v 0.13747796 -0.01753665 -0.02291718
v 0.13855415 -0.01545155 -0.02097371
v 0.13122230 -0.02399770 -0.02238419
v 0.13049392 -0.02013878 -0.01862745
v 0.12569093 -0.00024109 -0.01469332
v 0.14193707 -0.00404694 -0.02070865
v 0.13742272 -0.01068396 -0.01836364
v 0.14178675 -0.00680129 -0.02479959
v 0.12504161 -0.02347955 -0.01848968
v 0.13391052 -0.00994559 -0.01725625
v 0.12827339 -0.02106005 -0.01824773
v 0.13415081 -0.02179511 -0.02470918
v 0.14048617 -0.00130060 -0.01920364
v 0.13794980 -0.00480353 -0.01795463
v 0.13855029 -0.01591277 -0.02480843
v 0.13911457 -0.00748217 -0.01876131
v 0.13748362 -0.00849826 -0.01807057
v 0.13660746 -0.01852978 -0.02143531
v 0.13681250 -0.01140048 -0.01822397
v 0.12615121 -0.01146703 -0.01541623
v 0.12535501 -0.00916261 -0.01496464
v 0.13184091 -0.00326276 -0.01631336
v 0.13768645 -0.00678760 -0.01797948
v 0.12598074 -0.01225770 -0.01549068
v 0.12560155 -0.01290710 -0.01549272
v 0.12615347 -0.00518409 -0.01491736
v 0.14195510 -0.00506289 -0.02093072
v 0.13596540 -0.01209200 -0.01805551
v 0.14236126 -0.00042264 -0.02455683
v 0.13771945 -0.01694849 -0.02098854
v 0.14054272 -0.01098806 -0.02084908
v 0.13616608 -0.01034389 -0.01788793
v 0.14157226 -0.00778825 -0.02218216
v 0.13896225 -0.00671999 -0.01851325
v 0.13310388 -0.02074664 -0.01996733
v 0.13984707 -0.00045320 -0.01866994
v 0.13434849 -0.01412817 -0.01795225
v 0.13252956 -0.02324761 -0.02484232
v 0.13274918 -0.01786540 -0.01845981
v 0.13159494 -0.01864585 -0.01834613
v 0.13605085 -0.01205529 -0.01807586
v 0.13453720 -0.02074770 -0.02086915
v 0.12762433 -0.02131785 -0.01818129
v 0.13810511 -0.01634903 -0.02113760
v 0.13144699 -0.01379116 -0.01714691
v 0.13646959 -0.01864854 -0.02116918
v 0.13772407 -0.01731286 -0.02397821
v 0.13461251 -0.00019320 -0.01698702
v 0.12761998 -0.02458154 -0.01986845
v 0.13621426 -0.01086084 -0.01796092
v 0.14010284 -0.00949308 -0.01990879
v 0.13286116 -0.02262241 -0.02268818
v 0.14083351 -0.00972551 -0.02067209
v 0.13644432 -0.01433008 -0.01892280
v 0.13039891 -0.02385233 -0.02043188
v 0.14036480 -0.00410944 -0.01925716
v 0.12532210 -0.00911990 -0.01495326
v 0.13830223 -0.00649453 -0.01813175
v 0.13481936 -0.01015490 -0.01751598
v 0.13878587 -0.01193337 -0.01960361
v 0.12576911 -0.02143266 -0.01775257
v 0.12777118 -0.01362188 -0.01617194
v 0.13763187 -0.01733736 -0.02309844
v 0.14153459 -0.00793709 -0.02151645
v 0.12599505 -0.01146731 -0.01537567
v 0.14017835 -0.01249006 -0.02425592
v 0.13269454 -0.02307372 -0.02465408
v 0.13179560 -0.02316181 -0.02096147
v 0.13897335 -0.00319375 -0.01823616
v 0.12682765 -0.01556294 -0.01633568
v 0.13814892 -0.00876579 -0.01839559
v 0.13809963 -0.01627326 -0.02096152
v 0.12582985 -0.00316389 -0.01476141
v 0.13364751 -0.02144499 -0.02067015
v 0.13219007 -0.00016885 -0.01635957
v 0.13865014 -0.01128789 -0.01932865
v 0.13597072 -0.01878889 -0.02057405
v 0.12701937 -0.00304988 -0.01506259
v 0.13312295 -0.00999033 -0.01705604
v 0.14086958 -0.00048886 -0.01946707
v 0.13602731 -0.01519522 -0.01903214
v 0.13916413 -0.00435919 -0.01838117
v 0.13483264 -0.02104010 -0.02440623
v 0.13982457 -0.00542091 -0.01898638
v 0.14020392 -0.00542650 -0.01926911
v 0.13831114 -0.01611759 -0.02208448
v 0.14142682 -0.00830496 -0.02132826
v 0.13897775 -0.00182821 -0.01817006
v 0.14144438 -0.00819871 -0.02410523
v 0.14001114 -0.01290374 -0.02470212
v 0.13976622 -0.01268066 -0.02060126
v 0.14236271 -0.00025673 -0.02388057
v 0.13098294 -0.01665471 -0.01761273
v 0.14045881 -0.01165011 -0.02228784
v 0.13243085 -0.02233918 -0.02055552
v 0.13764565 -0.00245783 -0.01780425
v 0.14223877 -0.00260445 -0.02215862
v 0.14037853 -0.01196277 -0.02339475
v 0.13271057 -0.02300398 -0.02429112
v 0.13104758 -0.01393405 -0.01706550
v 0.12966962 -0.01818300 -0.01765866
v 0.13109872 -0.02309857 -0.02029212
v 0.13645682 -0.00071342 -0.01747182
v 0.13656296 -0.01137830 -0.01811929
v 0.14233182 -0.00106918 -0.02486257
v 0.12536200 -0.01849293 -0.01668184
v 0.13386076 -0.02027373 -0.02008055
v 0.13472613 -0.01708250 -0.01907407
v 0.13434978 -0.02103891 -0.02102054
v 0.14150040 -0.00536454 -0.02023760
v 0.13835304 -0.00556120 -0.01809323
v 0.13686012 -0.01475483 -0.01931888
v 0.12609041 -0.00967720 -0.01520013
v 0.13711460 -0.00616233 -0.01780004
v 0.14224396 -0.00254104 -0.02250918
v 0.13059430 -0.02425889 -0.02133655
v 0.14225707 -0.00233971 -0.02470180
v 0.13902734 -0.01372787 -0.02032893
v 0.13235421 -0.01709992 -0.01806220
v 0.13447542 -0.02148408 -0.02460486
v 0.12505518 -0.02094414 -0.01740029
v 0.13301495 -0.01133113 -0.01718483
v 0.13796625 -0.00386160 -0.01791697
v 0.14132523 -0.00859250 -0.02466414
v 0.13340882 -0.02232113 -0.02386492
v 0.13722221 -0.01743350 -0.02081669
v 0.12598395 -0.01028470 -0.01523594
v 0.14207399 -0.00472888 -0.02159465
v 0.14203895 -0.00494911 -0.02298911
v 0.13143565 -0.02396897 -0.02327491
v 0.14054535 -0.01139456 -0.02372158
v 0.13463442 -0.01612385 -0.01863952
v 0.13665942 -0.01331038 -0.01870645
v 0.12904395 -0.01580072 -0.01694315
v 0.12657381 -0.02463416 -0.01956219
v 0.13461259 -0.01697487 -0.01897117
v 0.12994527 -0.02129946 -0.01898591
v 0.12624510 -0.02262397 -0.01841918
v 0.12893556 -0.02411289 -0.02004990
v 0.13720656 -0.00267006 -0.01769358
v 0.13252334 -0.02200767 -0.02034107
v 0.13500130 -0.01829633 -0.01974888
v 0.13808603 -0.01570494 -0.02042097
v 0.12565166 -0.00230970 -0.01469516
v 0.13499908 -0.01122777 -0.01768817
v 0.13287650 -0.01860744 -0.01885886
v 0.13609417 -0.01389597 -0.01856614
v 0.13089698 -0.02302706 -0.02017847
v 0.12558183 -0.02472115 -0.01932601
v 0.13416811 -0.02177828 -0.02469980
v 0.13907718 -0.01467859 -0.02172349
v 0.14170741 -0.00719550 -0.02386776
v 0.13388386 -0.01635881 -0.01836558
v 0.12501429 -0.01390905 -0.01553339
f 211 100 56
f 11 100 211
f 119 11 216
f 216 11 71
f 11 211 71
f 91 25 154
f 2 91 154
f 165 48 98
f 100 167 47
f 47 15 100
f 53 211 56
f 100 15 77
f 56 100 192
f 154 98 142
f 98 30 142
f 167 91 40
f 91 2 40
f 11 119 43
f 141 189 127
f 88 43 119
f 67 91 167
f 67 100 11
f 67 167 100
f 110 165 98
f 110 98 154
f 154 25 110
f 68 30 172
f 15 47 70
f 60 117 210
f 210 73 60
f 216 71 183
f 183 168 216
f 183 13 168
f 73 13 183
f 115 172 20
f 127 189 16
f 16 87 127
f 16 119 216
f 216 87 16
f 216 168 24
f 127 35 82
f 184 82 35
f 127 87 86
f 86 35 127
f 101 169 204
f 180 153 41
f 29 2 154
f 154 142 29
f 30 2 29
f 29 142 30
f 98 48 150
f 150 144 98
f 98 144 8
f 11 43 206
f 48 165 206
f 165 110 206
f 189 141 175
f 25 91 33
f 33 67 25
f 91 67 33
f 25 67 137
f 137 110 25
f 137 206 110
f 51 115 149
f 20 172 147
f 199 73 210
f 55 13 102
f 102 13 73
f 102 101 55
f 117 157 203
f 211 53 111
f 111 53 117
f 15 70 152
f 119 16 83
f 83 16 189
f 189 175 83
f 34 181 155
f 34 24 168
f 27 18 99
f 181 18 27
f 155 181 27
f 155 27 196
f 59 87 216
f 59 124 87
f 38 42 210
f 56 192 65
f 75 30 98
f 98 8 75
f 75 8 30
f 118 172 30
f 30 8 118
f 118 8 144
f 144 147 118
f 118 147 172
f 144 150 131
f 85 88 119
f 119 83 85
f 144 120 96
f 120 133 96
f 58 67 11
f 58 137 67
f 11 206 58
f 206 137 58
f 126 51 149
f 68 172 89
f 172 115 89
f 115 51 89
f 66 102 73
f 42 102 66
f 73 199 66
f 210 42 66
f 66 199 210
f 117 60 201
f 201 111 117
f 201 60 73
f 73 111 201
f 73 183 123
f 123 183 71
f 71 31 123
f 197 111 73
f 197 71 211
f 211 111 197
f 15 152 23
f 186 152 70
f 70 151 186
f 32 83 175
f 32 85 83
f 132 34 155
f 24 34 132
f 155 196 132
f 132 196 216
f 216 24 132
f 168 13 163
f 163 34 168
f 163 13 55
f 55 181 163
f 181 34 163
f 162 27 99
f 99 107 162
f 162 107 87
f 87 124 162
f 101 198 215
f 55 101 215
f 215 18 181
f 215 181 55
f 170 198 101
f 101 102 10
f 10 102 42
f 42 38 10
f 97 203 169
f 97 38 203
f 169 10 97
f 97 10 38
f 164 38 210
f 203 38 164
f 210 117 164
f 117 203 164
f 117 53 178
f 178 130 117
f 65 130 178
f 178 53 56
f 50 157 117
f 117 130 50
f 46 116 174
f 12 116 46
f 146 147 144
f 144 96 146
f 20 147 146
f 146 96 20
f 43 88 135
f 88 140 135
f 135 206 43
f 135 140 206
f 84 140 88
f 206 140 84
f 47 177 179
f 179 177 190
f 179 70 47
f 179 21 70
f 68 89 7
f 7 30 68
f 7 2 30
f 7 89 51
f 7 51 70
f 70 21 191
f 191 179 190
f 21 179 191
f 105 31 73
f 73 123 105
f 105 123 31
f 73 31 200
f 200 197 73
f 200 31 71
f 71 197 200
f 193 186 151
f 151 126 193
f 149 160 193
f 193 126 149
f 62 175 141
f 85 32 72
f 72 62 141
f 44 215 194
f 194 215 198
f 198 170 194
f 194 170 143
f 169 101 208
f 208 10 169
f 101 10 208
f 136 50 130
f 157 50 136
f 136 203 157
f 169 203 136
f 92 3 188
f 156 9 160
f 156 160 149
f 149 115 93
f 93 9 149
f 153 9 93
f 93 115 41
f 41 153 93
f 143 170 6
f 6 174 116
f 46 174 6
f 185 84 88
f 90 103 166
f 90 107 99
f 90 86 87
f 35 86 90
f 87 107 90
f 99 18 90
f 18 103 90
f 20 96 78
f 78 57 20
f 78 96 133
f 133 57 78
f 20 57 113
f 41 115 113
f 113 115 20
f 95 126 151
f 51 126 95
f 2 7 159
f 190 177 159
f 159 7 190
f 70 191 39
f 39 191 190
f 128 193 160
f 152 186 128
f 186 193 128
f 5 65 192
f 161 129 74
f 74 129 100
f 100 77 74
f 171 212 45
f 171 5 22
f 65 5 171
f 171 130 65
f 171 136 130
f 171 104 136
f 45 212 182
f 212 74 182
f 182 74 77
f 77 49 182
f 205 180 46
f 153 180 205
f 205 3 153
f 149 9 61
f 61 156 149
f 9 156 61
f 46 6 14
f 14 6 170
f 204 205 14
f 14 205 46
f 14 101 204
f 14 170 101
f 173 85 120
f 173 131 150
f 173 150 48
f 48 185 173
f 173 120 144
f 144 131 173
f 84 185 202
f 206 84 202
f 209 103 18
f 209 215 44
f 18 215 209
f 116 12 209
f 28 180 41
f 133 69 138
f 138 57 133
f 138 113 57
f 41 113 138
f 214 151 70
f 214 95 151
f 70 51 214
f 85 72 79
f 72 94 79
f 120 85 79
f 79 94 166
f 166 69 79
f 79 133 120
f 79 69 133
f 166 94 112
f 112 94 127
f 121 72 141
f 121 94 72
f 121 141 127
f 127 94 121
f 108 92 188
f 104 171 108
f 108 171 45
f 213 36 15
f 15 23 213
f 77 36 109
f 109 49 77
f 85 173 176
f 88 85 176
f 176 173 88
f 76 185 88
f 88 173 76
f 76 173 185
f 48 206 158
f 206 202 158
f 158 185 48
f 158 202 185
f 195 209 12
f 195 12 180
f 180 28 195
f 81 1 69
f 81 69 166
f 81 195 1
f 209 195 81
f 166 103 81
f 103 209 81
f 69 1 122
f 122 138 69
f 122 28 41
f 41 138 122
f 207 90 166
f 166 112 207
f 207 184 35
f 35 90 207
f 82 184 207
f 127 82 207
f 207 112 127
f 139 108 188
f 104 108 139
f 188 3 139
f 204 169 139
f 169 136 139
f 136 104 139
f 139 205 204
f 3 205 139
f 187 37 161
f 161 74 187
f 49 63 80
f 92 108 80
f 80 63 92
f 92 109 106
f 92 63 125
f 125 109 92
f 22 37 114
f 37 187 114
f 114 171 22
f 52 54 145
f 26 54 17
f 17 80 26
f 49 80 17
f 17 54 52
f 36 213 4
f 213 106 4
f 64 213 9
f 64 106 213
f 64 9 153
f 153 3 64
f 52 145 19
f 19 17 52
f 19 145 182
f 19 182 49
f 49 17 19
f 148 109 36
f 36 4 148
f 148 106 109
f 148 4 106
f 3 92 134
f 134 64 3
f 92 106 134
f 106 64 134
f 162 59 216
f 162 196 27
f 216 196 162
f 124 59 162
f 56 65 178
f 46 180 12
f 175 62 72
f 72 32 175
f 167 40 159
f 159 40 2
f 159 47 167
f 159 177 47
f 190 7 39
f 39 7 70
f 36 77 15
f 44 194 209
f 143 6 209
f 209 194 143
f 209 6 116
f 51 95 214
f 100 129 37
f 37 192 100
f 37 129 161
f 37 5 192
f 22 5 37
f 213 23 152
f 213 128 160
f 160 9 213
f 152 128 213
f 122 195 28
f 1 195 122
f 49 109 125
f 125 63 49
f 212 171 114
f 114 187 74
f 114 74 212
f 45 182 145
f 26 80 145
f 145 108 45
f 145 80 108
f 145 54 26

