# https://github.com/mikedh/trimesh
v 0.00011193 -0.00887800 -0.03378607
v 0.00226066 -0.02490366 -0.02853106
v 0.00029846 -0.02366325 -0.03378607
v 0.02489991 -0.02149702 -0.03378607
v 0.01715899 -0.01940242 -0.02851215
v 0.01464504 -0.02492411 -0.03378606
v 0.01930811 -0.00051800 -0.02851216
v 0.01228069 -0.00004532 -0.02851216
v 0.01305481 -0.01384193 -0.02851215
v 0.01450224 -0.00157343 -0.02851216
v 0.01550424 -0.02307199 -0.02851215
v 0.00439086 -0.02495250 -0.03378606
v 0.00019967 -0.00621207 -0.02851216
v 0.01935092 -0.00641741 -0.02851216
v 0.02313530 -0.02476591 -0.02851216
v 0.02008317 -0.00120383 -0.02851216
v 0.01751265 -0.00020696 -0.03378607
v 0.01563860 -0.01047602 -0.02851215
v 0.01858615 -0.00049486 -0.02851216
v 0.01307384 -0.02498869 -0.02851215
v 0.01525684 -0.00411473 -0.02851216
v 0.01561465 -0.01427448 -0.02851215
v 0.02149799 -0.02489690 -0.02851216
v 0.01396141 -0.01917365 -0.02851215
v 0.00039732 -0.00036385 -0.03378607
v 0.01557924 -0.02221286 -0.02851215
v 0.01870028 -0.02371378 -0.02851215
v 0.01574397 -0.02487664 -0.02851215
v 0.00023175 -0.00454541 -0.02851216
v 0.02498161 -0.01028157 -0.03378607
v 0.02497406 -0.00012609 -0.03378607
v 0.01485676 -0.02206497 -0.02851215
v 0.02499160 -0.01791472 -0.02851216
v 0.01335923 -0.01672462 -0.02851215
v 0.02499702 -0.01909930 -0.02853014
v 0.00161746 -0.02461506 -0.02851216
v 0.00593963 -0.00001993 -0.02853098
v 0.02428668 -0.02455637 -0.02851216
v 0.00455628 -0.02494296 -0.02853104
v 0.02049583 -0.02493640 -0.02853034
v 0.00589129 -0.00019732 -0.03378606
v 0.00113788 -0.02430282 -0.02851216
v 0.02428077 -0.02471918 -0.03378607
v 0.00217762 -0.00119271 -0.02851217
v 0.01644722 -0.02296522 -0.02851215
v 0.01632306 -0.00128854 -0.02851216
v 0.02056005 -0.02474274 -0.02851215
v 0.00001819 -0.02286341 -0.02851215
v 0.00585657 -0.02496459 -0.02851216
v 0.00033063 -0.00365213 -0.02853116
v 0.00007986 -0.00459983 -0.03378607
v 0.02498775 -0.00247237 -0.03378607
v 0.02247867 -0.02478094 -0.03378607
v 0.01728539 -0.01804501 -0.02851215
v 0.01087046 -0.00095900 -0.02851216
v 0.01615866 -0.00246471 -0.02851216
v 0.02498755 -0.02141744 -0.02853015
v 0.00204251 -0.00037970 -0.02853112
v 0.01324923 -0.00030101 -0.02851216
v 0.00258340 -0.02476618 -0.03378606
v 0.02426780 -0.00017671 -0.02851216
v 0.02112773 -0.00007521 -0.02853031
v 0.00830381 -0.00014682 -0.03378606
v 0.01983908 -0.00001003 -0.03378607
v 0.01595342 -0.00497529 -0.02851216
v 0.01405787 -0.00107317 -0.02851216
v 0.02497623 -0.00165345 -0.02851217
v 0.00077140 -0.00225030 -0.02851216
v 0.01442782 -0.02383140 -0.02851215
v 0.01561098 -0.00602608 -0.02851216
v 0.01814936 -0.00101649 -0.03378607
v 0.02010480 -0.00217747 -0.02851216
f 60 2 36
f 20 28 48
f 48 36 20
f 37 25 58
f 42 36 48
f 49 36 2
f 49 20 36
f 20 49 12
f 12 2 60
f 64 37 62
f 64 25 63
f 63 37 64
f 57 38 43
f 58 25 68
f 25 50 68
f 61 62 8
f 8 62 37
f 8 37 58
f 39 49 2
f 2 12 39
f 39 12 49
f 17 25 64
f 3 42 48
f 43 12 3
f 3 12 60
f 60 36 3
f 36 42 3
f 25 37 41
f 41 63 25
f 37 63 41
f 38 57 33
f 35 67 33
f 33 57 35
f 20 12 6
f 6 40 20
f 48 28 69
f 58 68 44
f 44 8 58
f 68 8 44
f 29 68 50
f 29 50 25
f 61 67 31
f 64 62 31
f 31 62 61
f 31 17 64
f 71 17 31
f 25 17 51
f 51 17 71
f 51 29 25
f 27 45 28
f 61 8 7
f 7 16 61
f 43 40 53
f 40 6 53
f 53 12 43
f 53 6 12
f 55 8 68
f 68 29 55
f 55 29 48
f 52 67 35
f 52 31 67
f 71 3 1
f 1 51 71
f 1 3 48
f 48 51 1
f 48 29 13
f 13 51 48
f 29 51 13
f 28 20 23
f 20 40 23
f 23 40 43
f 11 69 28
f 11 32 69
f 48 69 24
f 69 32 24
f 19 8 59
f 19 7 8
f 5 14 16
f 45 27 5
f 71 31 4
f 4 57 43
f 4 3 71
f 43 3 4
f 47 27 28
f 28 23 47
f 43 38 15
f 15 23 43
f 34 55 48
f 48 24 34
f 46 19 59
f 61 16 72
f 16 14 72
f 45 5 54
f 54 5 16
f 30 4 31
f 31 52 30
f 57 4 30
f 30 52 35
f 35 57 30
f 55 34 9
f 9 34 24
f 26 11 28
f 66 46 59
f 66 10 46
f 11 26 22
f 56 21 70
f 10 21 56
f 46 10 56
f 70 18 65
f 65 56 70
f 18 22 65
f 65 22 26
f 38 33 72
f 72 67 61
f 72 33 67
f 72 5 27
f 27 47 72
f 72 15 38
f 14 5 72
f 72 47 23
f 23 15 72
f 70 21 22
f 32 11 22
f 22 9 24
f 22 24 32
f 8 55 22
f 59 8 22
f 55 9 22
f 22 66 59
f 22 18 70
f 10 66 22
f 22 21 10
f 19 46 65
f 45 54 65
f 7 19 65
f 28 45 65
f 16 7 65
f 65 54 16
f 65 26 28
f 46 56 65

