# https://github.com/mikedh/trimesh
v 0.07498749 0.01087121 -0.03212739
v 0.07477374 0.00388086 -0.02597029
v 0.07499972 0.01076140 -0.03453352
v 0.05244265 0.00275479 -0.03815800
v 0.06421359 0.00025987 -0.02500016
v 0.07458921 0.00745814 -0.03804731
v 0.05978233 0.01174120 -0.02506650
v 0.05043809 0.00935492 -0.03462405
v 0.07101417 0.00329402 -0.02542715
v 0.05095578 0.00046392 -0.03823952
v 0.05052523 0.01214176 -0.02616363
v 0.07468238 0.00878567 -0.03755238
v 0.05000982 0.00920008 -0.03476796
v 0.05286374 0.00259282 -0.03819210
v 0.06373957 0.01042733 -0.02513074
v 0.05080669 0.00066795 -0.03822874
v 0.05019835 0.01204877 -0.02716758
v 0.05003417 0.00978386 -0.03402896
v 0.05000142 0.01143220 -0.03033074
v 0.05082928 0.00097907 -0.03822353
v 0.05209527 0.00446845 -0.03778560
v 0.07492304 0.01061656 -0.03010887
v 0.07085885 0.00118447 -0.02524159
v 0.05280122 0.01211269 -0.02502586
v 0.07325562 0.00042609 -0.02554841
v 0.07376291 0.00055406 -0.02562099
v 0.06864194 0.00001788 -0.03770664
v 0.05035630 0.00526182 -0.03740736
v 0.05449996 0.01202862 -0.02528901
v 0.07497819 0.00309508 -0.03879844
v 0.05032079 0.00894979 -0.03508272
v 0.07267349 0.00063534 -0.02546772
v 0.07377675 0.00031668 -0.02563443
v 0.05002697 0.00811912 -0.03582524
v 0.05011586 0.00998041 -0.03376881
v 0.07275486 0.00037783 -0.02547430
v 0.07430784 0.00012533 -0.03875045
v 0.07410326 0.00118081 -0.02567295
v 0.05298692 0.00119549 -0.03831286
v 0.05800444 0.00000666 -0.03641366
v 0.07419280 0.00886714 -0.02723315
v 0.07488086 0.00180122 -0.03884745
v 0.07471886 0.00669772 -0.02640392
v 0.05131834 0.00045944 -0.03825590
v 0.07060430 0.00020035 -0.02527942
v 0.07496925 0.01039658 -0.03593486
v 0.07418161 0.00017875 -0.02570674
v 0.07485485 0.00222639 -0.02584965
v 0.05017269 0.00161795 -0.03814543
v 0.05308977 0.00281705 -0.03818170
v 0.07494103 0.00491180 -0.03860175
v 0.05002921 0.00233831 -0.03807795
v 0.05043378 0.01216456 -0.02583875
v 0.07446940 0.00094962 -0.02572009
v 0.07158200 0.00056232 -0.02531802
v 0.05079167 0.00288322 -0.03805066
v 0.05155893 0.00119193 -0.03824959
v 0.05222947 0.00312716 -0.03807730
v 0.06093039 0.01166328 -0.02507510
v 0.07467355 0.00450362 -0.02600696
v 0.05177382 0.00001905 -0.03827113
v 0.05036518 0.00781311 -0.03608961
v 0.07492049 0.00975073 -0.02802092
v 0.06200923 0.01158637 -0.02517906
v 0.07455572 0.00760677 -0.02664957
v 0.05140238 0.00013983 -0.03826496
v 0.07471449 0.00991928 -0.02828436
v 0.05065538 0.00028389 -0.03822943
v 0.07102915 0.00098204 -0.02525224
v 0.05007487 0.00413382 -0.03775770
v 0.05283292 0.00412392 -0.03790418
v 0.07054428 0.00285946 -0.02532888
v 0.07496929 0.00487695 -0.02608529
v 0.05040270 0.00536370 -0.03737440
v 0.05061679 0.00613704 -0.03709005
v 0.05014287 0.00794910 -0.03596704
v 0.06363856 0.01098880 -0.02516742
v 0.05861766 0.01180730 -0.02508984
v 0.07498096 0.00126849 -0.03886098
v 0.05020576 0.01079135 -0.03228866
v 0.05119985 0.00043573 -0.03825105
v 0.05003582 0.00679919 -0.03672878
v 0.05682432 0.01190483 -0.02520534
v 0.07482598 0.00983408 -0.03678666
v 0.05287056 0.00223876 -0.03822303
v 0.07384575 0.00003980 -0.03868534
v 0.06375499 0.00814984 -0.02507835
v 0.05006596 0.01130982 -0.03080776
v 0.05033806 0.01185812 -0.02824257
v 0.05160229 0.01214694 -0.02528084
v 0.05039797 0.01155559 -0.02985332
v 0.05314355 0.00373789 -0.03800034
v 0.05074308 0.00552049 -0.03733839
v 0.07483555 0.00785772 -0.03796811
f 40 5 61
f 5 68 61
f 61 27 40
f 86 27 61
f 37 86 61
f 3 73 79
f 37 61 79
f 19 3 88
f 12 84 94
f 35 80 46
f 46 84 35
f 46 88 3
f 80 88 46
f 94 84 46
f 91 3 19
f 19 89 91
f 91 89 3
f 5 23 87
f 77 63 64
f 37 79 47
f 47 86 37
f 47 27 86
f 40 27 47
f 94 46 51
f 30 51 46
f 3 79 30
f 30 46 3
f 17 11 3
f 3 89 17
f 19 52 17
f 17 89 19
f 82 12 75
f 75 12 94
f 84 34 31
f 84 12 62
f 62 12 82
f 53 68 5
f 53 49 68
f 3 11 53
f 11 17 53
f 52 49 53
f 53 17 52
f 7 24 5
f 64 22 1
f 1 22 63
f 1 73 3
f 1 63 73
f 3 24 1
f 1 24 29
f 64 63 67
f 67 22 64
f 63 22 67
f 73 63 43
f 63 65 43
f 43 77 73
f 65 77 43
f 41 65 63
f 63 77 41
f 41 77 65
f 45 5 40
f 40 47 45
f 82 75 74
f 76 34 84
f 84 62 76
f 82 34 76
f 76 62 82
f 5 24 90
f 90 53 5
f 90 24 3
f 3 53 90
f 24 7 78
f 7 1 78
f 59 77 64
f 64 1 59
f 59 1 7
f 5 87 59
f 59 7 5
f 77 72 9
f 23 72 15
f 15 72 77
f 15 87 23
f 15 59 87
f 77 59 15
f 36 45 47
f 94 51 6
f 51 92 6
f 50 92 51
f 51 30 50
f 30 39 50
f 66 61 68
f 66 79 61
f 66 39 79
f 68 49 20
f 42 30 79
f 79 39 42
f 42 39 30
f 94 21 28
f 28 74 94
f 82 74 28
f 93 75 94
f 94 74 93
f 93 74 75
f 35 84 18
f 84 8 18
f 19 88 18
f 18 80 35
f 18 88 80
f 84 31 13
f 13 8 84
f 13 18 8
f 13 31 34
f 19 18 13
f 13 52 19
f 82 52 13
f 13 34 82
f 29 24 83
f 24 78 83
f 83 1 29
f 83 78 1
f 69 38 23
f 69 23 5
f 5 45 69
f 38 36 54
f 54 47 79
f 60 2 73
f 73 77 60
f 77 9 60
f 60 9 72
f 72 2 60
f 71 21 94
f 94 6 71
f 71 6 92
f 50 4 56
f 56 4 52
f 57 20 49
f 39 20 57
f 57 49 52
f 70 28 21
f 21 71 70
f 70 71 92
f 70 56 52
f 70 52 82
f 82 28 70
f 38 69 55
f 45 36 55
f 55 69 45
f 47 54 26
f 26 54 36
f 73 2 48
f 48 79 73
f 48 54 79
f 48 2 72
f 38 54 48
f 48 72 23
f 23 38 48
f 92 50 58
f 50 56 58
f 58 70 92
f 56 70 58
f 85 50 39
f 39 57 85
f 52 4 85
f 85 57 52
f 81 66 68
f 68 10 81
f 44 20 39
f 39 66 44
f 66 81 44
f 32 36 38
f 38 55 32
f 32 55 36
f 33 36 47
f 47 26 33
f 14 4 50
f 50 85 14
f 14 85 4
f 68 20 16
f 16 10 68
f 25 26 36
f 36 33 25
f 25 33 26
f 16 44 81
f 20 44 16
f 16 81 10

