# https://github.com/mikedh/trimesh
v 0.07301694 0.01256803 0.00745624
v 0.06321127 0.01257318 0.02477757
v 0.07297990 0.01062422 0.00014581
v 0.06951470 0.01231643 0.02231934
v 0.06909554 0.01213519 0.02401404
v 0.06657558 0.01258303 0.02240908
v 0.06693072 0.01237339 0.02401374
v 0.06670323 0.01240807 0.02391382
v 0.07497510 0.00376868 0.00121905
v 0.07171640 0.01247714 0.01705876
v 0.07217361 0.01246212 0.01597987
v 0.05032148 0.01296435 0.02392121
v 0.06828420 0.01219249 0.02425928
v 0.05948791 0.01287314 0.02279436
v 0.06229135 0.01271069 0.02370604
v 0.07494501 0.00874573 0.00344592
v 0.07252410 0.01247687 0.01459441
v 0.06936491 0.01253655 0.01998184
v 0.07363003 0.01223332 0.00837904
v 0.05044646 0.00373432 0.00510071
v 0.07217593 0.01261436 0.01282425
v 0.07292525 0.01259010 0.00923259
v 0.07264984 0.01249984 0.00266882
v 0.07096579 0.00991203 0.02477156
v 0.07272120 0.01242687 0.00103156
v 0.05016388 0.00919184 0.00213151
v 0.07327828 0.01230006 0.01182149
v 0.05003697 0.01268369 0.01942405
v 0.07111807 0.01246616 0.01853393
v 0.05661756 0.01292298 0.02282362
v 0.07264683 0.01260189 0.01161438
v 0.06782404 0.01222280 0.02441365
v 0.07216975 0.01259760 0.01371151
v 0.07275346 0.01258292 0.00801132
v 0.06528419 0.01271585 0.02146234
v 0.07271315 0.01250325 0.00293506
v 0.06669029 0.01155688 0.00002786
v 0.06499298 0.01269297 0.02243074
v 0.05018331 0.00432587 0.00363596
v 0.07222699 0.01260801 0.01309952
v 0.05003111 0.01131940 0.01324800
v 0.07130924 0.01230048 0.01921890
v 0.07205871 0.01247428 0.01622809
v 0.06722811 0.01245719 0.02312534
v 0.06127945 0.01283179 0.02248764
v 0.05815882 0.01279633 0.02462206
v 0.05028880 0.00920313 0.00009214
v 0.06994343 0.01244543 0.02062145
v 0.06922561 0.01226004 0.02300668
v 0.06000817 0.01288552 0.02196374
v 0.06067574 0.01269111 0.02472371
v 0.07270317 0.01243975 0.00116153
v 0.06769230 0.01250340 0.02238011
v 0.05056446 0.01290639 0.02489895
v 0.06703756 0.01249164 0.02298402
v 0.07153372 0.01256738 0.01636643
v 0.06464475 0.01267860 0.02283138
v 0.07329982 0.01249603 0.00935872
v 0.07090748 0.01243840 0.01928898
v 0.07206728 0.01244982 0.00014158
v 0.06398048 0.01252450 0.02481084
v 0.06799949 0.01263412 0.01991387
v 0.06587613 0.01260859 0.02267179
v 0.07082104 0.01242233 0.01963338
v 0.06391913 0.01262223 0.02388223
v 0.06779437 0.01257775 0.02114681
v 0.05098818 0.01298337 0.02318434
v 0.06378348 0.01271459 0.02292375
v 0.07499838 0.01009506 0.02340256
v 0.06512092 0.01274740 0.02052996
v 0.07156207 0.01258380 0.01596044
v 0.07491083 0.00525919 0.00149073
v 0.05828687 0.01290483 0.02266327
v 0.05011131 0.00525962 0.00384939
v 0.05001827 0.01094240 0.01183499
v 0.06670778 0.01247212 0.02337445
v 0.07468554 0.00003416 0.01244158
v 0.06460980 0.01273482 0.02179676
v 0.07337866 0.01246240 0.00757073
v 0.06955393 0.01147448 0.02499574
v 0.06465894 0.01276932 0.02029769
v 0.07457704 0.01018476 0.02489688
v 0.07268097 0.00010114 0.01900056
v 0.07338508 0.00006693 0.01271451
v 0.07265989 0.01250162 0.01381940
v 0.05009955 0.00927687 0.00363918
v 0.06905230 0.01205907 0.02443324
v 0.05080514 0.00385525 0.00392700
v 0.07485430 0.00586688 0.00164974
v 0.05000957 0.01298842 0.02357191
v 0.07463344 0.00056824 0.01921455
v 0.07003656 0.01221612 0.02219232
v 0.06408723 0.01266672 0.02330489
v 0.06953423 0.01228136 0.02254646
v 0.07495839 0.00101436 0.01923143
v 0.05357682 0.00955842 0.00001088
v 0.07286787 0.01251451 0.00378990
v 0.05269540 0.01296752 0.02302648
v 0.06691856 0.01265019 0.02097682
v 0.06580503 0.01253137 0.02348286
v 0.07251345 0.01248375 0.00172859
v 0.07230563 0.01260721 0.01291297
v 0.07286996 0.01233408 0.00091294
v 0.06999458 0.01243723 0.02066153
v 0.07296036 0.00731521 0.00007302
v 0.06614296 0.01239058 0.02444587
v 0.06266129 0.01259621 0.02479421
v 0.07495375 0.00934269 0.00705634
v 0.05954021 0.01287468 0.02274333
v 0.05408009 0.01284937 0.02487401
v 0.07109689 0.01260064 0.01610758
v 0.06505619 0.01268524 0.02248167
v 0.05019774 0.00378692 0.00517583
v 0.07492779 0.00052968 0.00092388
v 0.06748697 0.01252099 0.02237363
v 0.07300744 0.01249509 0.00384776
v 0.07402011 0.00018528 0.00091779
v 0.07295315 0.01255479 0.00617903
v 0.07484571 0.00834831 0.00291061
v 0.05877912 0.01277776 0.02462661
v 0.07359288 0.01220704 0.00610419
v 0.06392479 0.01257506 0.02435037
v 0.07204114 0.01251984 0.01587584
v 0.07295596 0.00331434 0.00002820
v 0.07306635 0.01208656 0.00103375
v 0.06723411 0.01265052 0.02057989
v 0.07215068 0.00018814 0.01893761
v 0.06876738 0.01207843 0.02466080
v 0.07365684 0.01218610 0.00837783
v 0.07295038 0.00056450 0.00001628
v 0.07255812 0.01246774 0.00120396
v 0.07245443 0.01249325 0.01471618
v 0.07372973 0.01195465 0.00650538
v 0.05733487 0.01292052 0.02238747
v 0.06440521 0.01277721 0.02034187
v 0.07196643 0.01256000 0.01551037
v 0.07343839 0.01243701 0.00860389
v 0.05046284 0.01296415 0.02207294
v 0.07019251 0.01241669 0.02060278
v 0.07140599 0.01250895 0.01744633
v 0.06534864 0.01270118 0.02186578
v 0.07190505 0.01257841 0.01519289
v 0.05115097 0.00369766 0.00416467
v 0.07328616 0.01251295 0.00901279
v 0.06599783 0.01272698 0.01992759
v 0.07330844 0.01009296 0.02490466
v 0.06032555 0.01288004 0.02204613
v 0.05182429 0.01288517 0.02490433
v 0.07470879 0.00024252 0.00091775
v 0.06797275 0.01260536 0.02051666
v 0.06883627 0.01205139 0.02472131
v 0.05853226 0.01284279 0.02369127
v 0.05003085 0.01297419 0.02382765
v 0.07340320 0.01214161 0.00355473
v 0.05434991 0.01294699 0.02305318
v 0.07495751 0.00279573 0.00107958
v 0.07277026 0.01259587 0.01129130
v 0.05873310 0.01287235 0.02310963
v 0.06429792 0.01273239 0.02235296
v 0.06299894 0.01273773 0.02302594
v 0.05046424 0.01298216 0.02294013
f 37 60 105
f 37 130 96
f 105 60 3
f 91 83 77
f 77 95 91
f 83 24 54
f 54 127 83
f 138 28 90
f 60 28 138
f 124 37 105
f 130 37 124
f 77 83 84
f 84 117 77
f 114 95 77
f 105 3 114
f 114 124 105
f 130 124 114
f 146 24 83
f 83 91 146
f 146 54 24
f 16 119 125
f 90 28 75
f 28 41 75
f 77 117 149
f 149 114 77
f 149 117 130
f 130 114 149
f 82 91 95
f 82 146 91
f 82 95 69
f 9 108 69
f 9 16 108
f 69 95 9
f 95 114 9
f 16 125 154
f 127 54 113
f 54 153 113
f 113 153 90
f 137 58 69
f 69 19 137
f 69 108 133
f 54 146 80
f 146 82 80
f 80 82 151
f 151 61 80
f 72 119 16
f 16 9 72
f 72 9 3
f 156 114 3
f 3 9 156
f 156 9 114
f 96 130 47
f 47 75 41
f 47 41 28
f 47 28 60
f 47 37 96
f 60 37 47
f 90 153 155
f 5 82 92
f 104 4 139
f 129 19 69
f 69 133 129
f 19 129 121
f 121 129 133
f 121 137 19
f 121 79 137
f 16 154 121
f 121 133 108
f 108 16 121
f 54 80 148
f 148 80 61
f 69 58 27
f 89 125 119
f 119 72 89
f 3 125 89
f 89 72 3
f 90 75 74
f 74 113 90
f 161 138 90
f 90 67 161
f 98 67 90
f 90 155 98
f 12 153 54
f 94 5 92
f 94 139 4
f 128 61 151
f 151 5 128
f 151 82 87
f 87 5 151
f 82 5 87
f 116 121 154
f 79 121 116
f 58 137 144
f 137 79 144
f 58 144 157
f 22 31 157
f 157 144 22
f 110 148 61
f 86 74 75
f 130 117 143
f 143 88 130
f 113 88 143
f 39 74 47
f 39 47 130
f 130 88 39
f 113 74 39
f 39 88 113
f 49 94 4
f 5 94 49
f 53 49 4
f 53 4 104
f 103 154 125
f 103 116 154
f 103 3 60
f 103 125 3
f 22 144 1
f 79 116 1
f 1 144 79
f 1 34 22
f 81 21 135
f 81 145 21
f 111 145 71
f 104 139 64
f 64 59 104
f 64 94 92
f 139 94 64
f 92 82 64
f 82 42 64
f 58 157 85
f 85 82 69
f 85 27 58
f 69 27 85
f 54 158 73
f 73 12 54
f 120 110 51
f 54 148 46
f 148 110 46
f 110 120 46
f 107 110 61
f 51 110 107
f 47 74 26
f 74 86 26
f 75 47 26
f 26 86 75
f 20 143 117
f 113 143 20
f 117 84 20
f 20 84 83
f 83 127 20
f 127 113 20
f 32 49 7
f 32 128 5
f 7 49 44
f 49 53 44
f 116 103 25
f 60 131 25
f 25 103 60
f 97 116 131
f 131 36 97
f 101 36 131
f 101 131 60
f 60 138 101
f 138 161 101
f 40 111 71
f 71 33 40
f 21 145 40
f 145 111 40
f 30 73 134
f 134 98 30
f 30 98 155
f 30 155 153
f 153 12 30
f 12 73 30
f 135 21 147
f 147 31 22
f 21 31 147
f 152 158 54
f 54 46 152
f 57 65 122
f 15 120 51
f 109 147 73
f 5 49 13
f 13 32 5
f 49 32 13
f 106 32 7
f 61 128 106
f 128 32 106
f 55 44 53
f 48 53 104
f 104 59 48
f 150 66 18
f 18 62 150
f 18 66 115
f 53 48 115
f 115 48 18
f 115 66 6
f 115 112 63
f 6 112 115
f 115 55 53
f 131 116 52
f 52 25 131
f 116 25 52
f 118 1 116
f 116 97 118
f 34 1 118
f 118 97 36
f 67 98 118
f 134 34 118
f 118 98 134
f 36 101 23
f 67 118 23
f 23 118 36
f 23 161 67
f 23 101 161
f 59 64 10
f 10 64 42
f 10 42 82
f 82 43 10
f 82 85 17
f 136 85 157
f 102 40 33
f 102 157 31
f 102 31 21
f 21 40 102
f 102 136 157
f 33 136 102
f 134 73 50
f 73 147 50
f 50 34 134
f 22 34 50
f 50 147 22
f 2 122 65
f 61 122 2
f 2 107 61
f 68 160 120
f 120 15 68
f 68 159 160
f 14 73 158
f 14 109 73
f 158 152 14
f 14 152 46
f 14 46 120
f 71 62 56
f 56 62 18
f 56 136 71
f 140 136 56
f 18 48 56
f 59 140 56
f 56 48 59
f 7 44 8
f 8 106 7
f 44 55 8
f 61 55 100
f 100 115 63
f 55 115 100
f 61 106 76
f 76 55 61
f 126 150 62
f 71 141 126
f 126 62 71
f 29 140 59
f 59 10 29
f 29 10 140
f 11 43 82
f 82 17 11
f 142 33 71
f 71 136 142
f 142 136 33
f 132 17 85
f 132 11 17
f 123 10 43
f 140 10 123
f 123 136 140
f 43 11 123
f 11 132 123
f 85 136 123
f 123 132 85
f 160 159 45
f 45 159 147
f 147 109 45
f 35 159 141
f 71 145 35
f 35 141 71
f 145 81 70
f 70 35 145
f 93 65 57
f 57 68 93
f 57 112 38
f 38 68 57
f 159 68 38
f 141 159 38
f 38 112 6
f 159 35 78
f 35 70 78
f 99 126 141
f 141 38 99
f 150 126 99
f 100 122 61
f 100 112 57
f 63 112 100
f 57 122 100
f 76 8 55
f 106 8 76
f 45 14 120
f 120 160 45
f 109 14 45
f 93 2 65
f 93 15 51
f 51 107 93
f 107 2 93
f 93 68 15
f 135 147 78
f 78 81 135
f 147 159 78
f 78 70 81
f 6 66 99
f 99 38 6
f 66 150 99

