# https://github.com/mikedh/trimesh
v 0.05963561 0.00300536 -0.07775002
v 0.06042125 0.01258722 -0.05010890
v 0.05467767 0.02968031 -0.07207510
v 0.05550828 0.02957056 -0.05952404
v 0.05345966 0.02940427 -0.09154941
v 0.05926688 0.00632168 -0.08052236
v 0.05630945 0.02555320 -0.07811129
v 0.05971048 0.01376516 -0.06141662
v 0.05367038 0.02849579 -0.09573935
v 0.05123230 0.03284140 -0.06472055
v 0.05870538 0.00041786 -0.09425348
v 0.06066543 0.00641132 -0.05769286
v 0.06015894 0.01386379 -0.05143960
v 0.05830385 0.00196941 -0.09892650
v 0.05544559 0.02779184 -0.07853607
v 0.05879877 0.01918777 -0.06204475
v 0.06049757 0.01047424 -0.05290641
v 0.05171572 0.03274841 -0.05234082
v 0.05772867 0.02588764 -0.05136356
v 0.05600871 0.02587814 -0.08100473
v 0.06030752 0.00564560 -0.06510023
v 0.05261845 0.03110706 -0.08263921
v 0.05016581 0.02929410 -0.09858907
v 0.05550491 0.02550966 -0.08916969
v 0.05841164 0.00020036 -0.09834015
v 0.05370460 0.03059465 -0.07387420
v 0.05218653 0.03113149 -0.08785052
v 0.05645819 0.02872577 -0.05071450
v 0.05783204 0.02503768 -0.05435448
v 0.06039846 0.00636068 -0.06309230
v 0.05954933 0.01760984 -0.05142078
v 0.05767118 0.01759777 -0.08459824
v 0.06002101 0.01483130 -0.05102040
v 0.05158267 0.03282451 -0.05068194
v 0.05276609 0.03121397 -0.07863898
v 0.05783368 0.02338813 -0.06219692
v 0.05137127 0.03221163 -0.07846708
v 0.05904868 0.01290820 -0.07500719
v 0.05166652 0.03169114 -0.08569586
v 0.06007292 0.00002930 -0.07202160
v 0.05969938 0.01701100 -0.05030982
v 0.05059239 0.03258673 -0.08147515
v 0.05999337 0.01077189 -0.06277782
v 0.05014949 0.03141005 -0.05099939
v 0.05860290 0.00645062 -0.09058354
v 0.05891464 0.01142422 -0.07976568
v 0.05784837 0.02341912 -0.06176374
v 0.05471888 0.03036563 -0.06135777
v 0.05578721 0.02611525 -0.08302629
v 0.05562013 0.02627162 -0.08454450
v 0.06078305 0.00669729 -0.05462177
v 0.05687037 0.02645600 -0.06426882
v 0.05744808 0.01246293 -0.09923968
v 0.05410595 0.03030147 -0.07220916
v 0.05642156 0.00011126 -0.09796193
v 0.05305480 0.02354797 -0.09994407
v 0.05889874 0.01270322 -0.07795363
v 0.05812813 0.01482668 -0.08492523
v 0.05832626 0.01204139 -0.08804878
v 0.05038007 0.03278584 -0.07939025
v 0.05315447 0.02885784 -0.09909779
v 0.05079992 0.03313545 -0.05727714
v 0.06005658 0.01057910 -0.06200647
v 0.05572832 0.02590480 -0.08486424
v 0.05375198 0.02985777 -0.08432068
v 0.06021635 0.00870282 -0.06240893
v 0.05069427 0.03317835 -0.06170198
v 0.05139069 0.03118719 -0.09617519
v 0.05280430 0.02933991 -0.09964826
v 0.05709014 0.02719813 -0.05463536
v 0.05876810 0.00009217 -0.06016550
v 0.05725800 0.02026222 -0.08284016
v 0.05206280 0.03039718 -0.09746598
v 0.05822132 0.02174126 -0.06196289
v 0.05415479 0.03094118 -0.06057139
v 0.05164324 0.03270148 -0.06120172
v 0.05002703 0.03315438 -0.07132379
v 0.06045460 0.00722343 -0.06048083
v 0.05477363 0.02586116 -0.09661870
v 0.06070452 0.00068829 -0.06083479
v 0.05002183 0.03032032 -0.08671666
v 0.05760074 0.01934686 -0.08081452
v 0.05715808 0.01998495 -0.08533586
v 0.05530592 0.02739867 -0.08296016
v 0.05729051 0.01810189 -0.08862782
v 0.05673862 0.02782835 -0.05711890
v 0.05261723 0.03187874 -0.06736598
v 0.06033162 0.00672906 -0.06367461
v 0.05822311 0.00660625 -0.09623345
v 0.05008293 0.03310564 -0.07233099
v 0.05767970 0.02555347 -0.05499768
v 0.05498257 0.03045946 -0.05213645
v 0.05812422 0.00570971 -0.09861930
v 0.06013533 0.01212681 -0.05716194
v 0.05446452 0.02828974 -0.08800577
v 0.05633829 0.01870929 -0.09939178
v 0.05582821 0.02961331 -0.05099676
v 0.05114864 0.03216889 -0.08278711
v 0.05440886 0.02861432 -0.08627946
v 0.05614471 0.02761145 -0.06885970
v 0.05897407 0.01836225 -0.06116559
v 0.05923858 0.00063451 -0.05001155
v 0.05545733 0.02989165 -0.05500219
v 0.05618730 0.02913011 -0.05044704
v 0.05997920 0.01265867 -0.05936212
v 0.05054458 0.03318598 -0.06389320
v 0.05727422 0.01380426 -0.09880591
v 0.05288713 0.02978106 -0.09509944
v 0.06073481 0.00927615 -0.05035215
v 0.05141160 0.03286487 -0.05848556
v 0.05757230 0.02640687 -0.05062182
v 0.05526569 0.02770574 -0.08179519
v 0.05808791 0.01034054 -0.09379916
v 0.05977717 0.01273939 -0.06319820
v 0.05434279 0.02896638 -0.08428872
v 0.06112392 0.00221258 -0.05100065
v 0.05058647 0.03275948 -0.07712970
v 0.05911018 0.00105469 -0.08757423
v 0.05825147 0.01903740 -0.07125979
v 0.06083079 0.00752982 -0.05190599
v 0.06023710 0.00008979 -0.06924249
v 0.05834004 0.00613891 -0.09492462
v 0.05778302 0.00972079 -0.09883520
v 0.05419058 0.02984244 -0.07787783
v 0.06062831 0.00147732 -0.06190768
v 0.05719253 0.02602061 -0.06164073
v 0.05738096 0.01895835 -0.08542441
v 0.05931400 0.01920131 -0.05059962
v 0.06117053 0.00028105 -0.05152426
v 0.05427090 0.02761538 -0.09470101
v 0.05411671 0.02785740 -0.09520395
v 0.05627899 0.00206396 -0.09905588
v 0.05850957 0.01337383 -0.08271471
v 0.05379369 0.03150323 -0.05312158
v 0.05743530 0.02506570 -0.06244875
v 0.05407046 0.02818403 -0.09336092
v 0.05039903 0.03326937 -0.05961715
v 0.05881984 0.00068487 -0.09236143
v 0.05510007 0.02363717 -0.09955171
v 0.06030803 0.00586678 -0.06492591
v 0.05620768 0.02806616 -0.06438385
v 0.05063645 0.03318130 -0.05696843
v 0.05033296 0.03295097 -0.07464466
v 0.05158851 0.03280874 -0.05335974
v 0.05634745 0.02815500 -0.06102993
v 0.05659274 0.02765236 -0.06159592
v 0.05911626 0.01813276 -0.05891359
v 0.05486941 0.03063444 -0.05015305
v 0.05523781 0.02981868 -0.06192020
v 0.05239084 0.03110073 -0.08589754
v 0.05547976 0.02943887 -0.06196227
v 0.05600131 0.02599942 -0.08041451
v 0.05924585 0.01633535 -0.06233885
v 0.05741369 0.01877141 -0.08541661
v 0.05686985 0.02759312 -0.05620560
v 0.05760478 0.01302909 -0.09614831
v 0.05472648 0.02614926 -0.09590955
v 0.05469385 0.03069714 -0.05323813
v 0.05624750 0.02411745 -0.08425798
v 0.05664800 0.01751113 -0.09828063
v 0.05013318 0.02943181 -0.09727596
v 0.05503111 0.02807088 -0.08236532
v 0.05091217 0.03302402 -0.06367987
v 0.05634282 0.02748917 -0.06653068
v 0.05563466 0.02987567 -0.05089073
v 0.05815372 0.01276961 -0.08928147
v 0.05291895 0.03187272 -0.06270707
v 0.05717806 0.02541916 -0.06517652
v 0.05982117 0.01312805 -0.06126598
v 0.05438170 0.03068999 -0.06140748
v 0.05886527 0.01918262 -0.06060511
v 0.05471675 0.02723188 -0.09121202
v 0.05369979 0.03160136 -0.05003522
v 0.05829302 0.01367012 -0.08538965
v 0.05846310 0.00180516 -0.09685033
v 0.05292650 0.02913587 -0.09971844
v 0.05412525 0.03094053 -0.06134409
v 0.05762289 0.01072071 -0.09949418
v 0.05125575 0.03101836 -0.09958324
v 0.06026446 0.01312268 -0.05176351
v 0.06000440 0.01212782 -0.05993256
v 0.05129107 0.03294877 -0.05263975
v 0.05438528 0.02778958 -0.09255375
v 0.06010967 0.01288907 -0.05590479
v 0.05505467 0.02729903 -0.08682694
v 0.05590344 0.00791102 -0.09986582
v 0.05431339 0.02947012 -0.07986319
v 0.05092355 0.03157839 -0.09532632
v 0.05322530 0.03131989 -0.06963555
v 0.06039124 0.00650987 -0.06302303
v 0.05324299 0.02868525 -0.09932671
v 0.05130591 0.03159833 -0.09097045
v 0.05430054 0.03073986 -0.06210802
v 0.05009092 0.03271806 -0.08547769
v 0.05643386 0.02329351 -0.08441468
v 0.05646750 0.02571405 -0.07480411
v 0.05406166 0.03051209 -0.06961826
v 0.05547372 0.02820753 -0.07427110
v 0.06068608 0.00631535 -0.05745289
v 0.05839451 0.01185288 -0.08725889
v 0.05483746 0.02548945 -0.09730721
v 0.05283592 0.03184915 -0.06463746
v 0.05912110 0.01846038 -0.05766281
v 0.05804495 0.00718078 -0.09827770
v 0.05627163 0.02889797 -0.05235040
v 0.05698945 0.02585265 -0.06588119
v 0.06059492 0.00121751 -0.06265455
v 0.05691007 0.01915977 -0.09100312
v 0.05040619 0.03279443 -0.07872009
v 0.05021378 0.03265837 -0.08540844
v 0.05795655 0.00845188 -0.09810052
v 0.05697106 0.01643043 -0.09671902
v 0.05907318 0.00061814 -0.08843313
v 0.05937123 0.01893617 -0.05048494
v 0.05572731 0.02627089 -0.08304177
v 0.05839103 0.00232598 -0.09750320
v 0.05616353 0.01990147 -0.09822636
v 0.05704857 0.01507928 -0.09889178
v 0.05323140 0.03031167 -0.08528287
v 0.05647043 0.02748761 -0.06456877
v 0.05590761 0.02504722 -0.08564959
v 0.05815768 0.00410998 -0.09951576
v 0.05868065 0.01202548 -0.08265201
v 0.06051463 0.00581927 -0.06138809
v 0.05188825 0.03164623 -0.08368577
v 0.06104579 0.00390999 -0.05150530
v 0.05827302 0.01352498 -0.08599536
v 0.06094810 0.00020944 -0.05614727
v 0.05244802 0.03188445 -0.06982355
v 0.05883656 0.01178502 -0.08048589
v 0.05714364 0.01745787 -0.09206517
v 0.06056839 0.00643753 -0.05968885
v 0.05040293 0.03298256 -0.07263824
v 0.05919357 0.00021169 -0.05104546
v 0.05831369 0.00248405 -0.09853914
v 0.05861320 0.00129729 -0.09499653
v 0.05465000 0.02911204 -0.07818156
v 0.06034982 0.00679406 -0.06327735
v 0.05042175 0.03326064 -0.05931971
v 0.05811688 0.02456255 -0.05053052
v 0.06083906 0.00024854 -0.05835386
v 0.05001544 0.03264027 -0.08777556
v 0.05359109 0.02930508 -0.09074519
v 0.06045227 0.00546532 -0.06277481
v 0.05529236 0.02969242 -0.06236606
v 0.05838757 0.02097805 -0.06211970
v 0.06055074 0.00272064 -0.06259172
v 0.05484248 0.03019503 -0.06244725
f 44 81 55
f 40 71 55
f 55 71 234
f 234 44 55
f 102 44 234
f 129 102 234
f 242 81 77
f 81 44 77
f 77 44 137
f 25 40 55
f 55 81 161
f 161 23 55
f 161 81 242
f 242 23 161
f 137 44 239
f 44 142 239
f 173 44 102
f 102 2 173
f 71 40 228
f 129 234 228
f 228 234 71
f 44 173 34
f 179 23 242
f 179 108 73
f 146 155 70
f 146 126 52
f 52 220 146
f 126 206 52
f 149 103 165
f 86 155 146
f 109 2 102
f 106 77 137
f 137 67 106
f 62 67 137
f 18 34 173
f 28 104 111
f 146 70 111
f 111 70 155
f 111 86 28
f 155 86 111
f 188 179 242
f 242 210 188
f 69 179 73
f 176 179 69
f 73 108 69
f 68 188 192
f 179 188 68
f 108 179 68
f 248 149 124
f 103 149 248
f 28 149 205
f 146 15 141
f 141 15 162
f 4 149 28
f 28 86 4
f 132 25 55
f 55 23 132
f 23 186 132
f 23 179 56
f 56 186 23
f 56 179 176
f 56 176 139
f 139 176 191
f 118 213 138
f 116 102 129
f 116 109 102
f 129 226 116
f 116 226 109
f 129 228 125
f 125 224 129
f 125 228 241
f 90 77 143
f 77 106 143
f 67 62 182
f 182 62 142
f 182 142 44
f 44 34 182
f 76 18 173
f 173 134 76
f 10 67 76
f 76 134 167
f 167 10 76
f 34 18 144
f 135 36 82
f 146 220 100
f 100 15 146
f 245 149 151
f 151 141 245
f 24 221 217
f 178 56 139
f 186 56 178
f 19 111 240
f 240 111 104
f 2 41 240
f 158 75 134
f 22 219 150
f 150 225 22
f 150 219 108
f 87 225 229
f 87 229 42
f 98 210 42
f 98 225 210
f 39 68 192
f 225 150 39
f 192 188 39
f 210 225 39
f 39 188 210
f 54 248 124
f 97 205 149
f 165 104 97
f 97 149 165
f 145 141 151
f 145 86 146
f 146 141 145
f 139 191 201
f 201 191 79
f 79 24 201
f 201 217 139
f 24 217 201
f 120 226 51
f 109 226 120
f 51 226 199
f 129 224 199
f 199 226 129
f 80 125 241
f 18 76 110
f 110 144 18
f 110 76 67
f 64 221 24
f 49 20 64
f 64 24 79
f 168 206 126
f 126 135 168
f 91 135 126
f 19 240 91
f 220 20 164
f 164 100 220
f 162 15 112
f 79 191 131
f 149 245 3
f 124 149 3
f 3 187 124
f 187 115 65
f 124 187 65
f 108 219 65
f 65 219 22
f 198 141 162
f 187 141 237
f 237 115 187
f 141 198 237
f 139 217 96
f 96 178 139
f 217 208 96
f 38 16 153
f 153 114 38
f 119 32 82
f 82 16 119
f 119 16 32
f 29 240 16
f 29 91 240
f 135 91 29
f 33 41 2
f 92 158 148
f 148 158 134
f 148 134 173
f 165 92 148
f 148 104 165
f 148 240 104
f 148 173 2
f 2 240 148
f 177 170 193
f 193 189 177
f 177 189 167
f 167 134 177
f 134 75 177
f 48 248 193
f 193 170 48
f 103 248 48
f 22 225 35
f 225 189 35
f 202 189 225
f 225 87 202
f 167 189 202
f 42 229 37
f 37 98 42
f 68 39 27
f 27 39 150
f 108 68 27
f 27 150 108
f 11 236 138
f 11 138 213
f 11 213 40
f 40 25 11
f 186 178 222
f 222 132 186
f 125 80 207
f 1 213 118
f 118 21 1
f 163 67 10
f 163 106 67
f 210 60 117
f 42 210 117
f 117 163 10
f 194 60 210
f 143 60 194
f 90 143 194
f 194 77 90
f 242 77 194
f 194 210 242
f 233 143 106
f 233 60 143
f 49 64 50
f 7 64 20
f 221 64 7
f 152 20 49
f 152 164 20
f 79 131 130
f 5 69 108
f 108 65 5
f 178 96 53
f 82 32 127
f 147 16 41
f 147 101 16
f 214 240 41
f 214 128 240
f 16 240 171
f 240 128 171
f 171 214 16
f 128 214 171
f 36 135 47
f 135 29 47
f 2 180 13
f 13 33 2
f 232 30 190
f 232 199 224
f 224 30 232
f 121 207 80
f 121 80 241
f 121 228 40
f 241 228 121
f 224 125 244
f 244 30 224
f 21 30 244
f 140 21 118
f 140 30 21
f 209 117 60
f 163 117 209
f 84 50 185
f 185 112 84
f 196 7 20
f 206 168 196
f 168 7 196
f 221 7 159
f 159 217 221
f 183 130 131
f 183 112 185
f 185 172 183
f 183 172 130
f 162 112 183
f 183 95 162
f 131 95 183
f 99 115 162
f 162 95 99
f 176 95 61
f 61 191 176
f 243 65 115
f 243 5 65
f 115 99 243
f 218 53 96
f 32 16 58
f 58 174 154
f 154 127 58
f 58 127 32
f 133 227 174
f 133 16 38
f 133 58 16
f 174 58 133
f 208 127 231
f 184 180 2
f 114 153 8
f 8 169 114
f 8 153 16
f 16 101 8
f 31 214 41
f 74 29 16
f 74 47 29
f 36 47 74
f 35 197 26
f 22 35 26
f 26 197 248
f 248 54 26
f 59 133 223
f 51 199 12
f 199 232 12
f 114 181 63
f 125 207 247
f 247 244 125
f 45 30 6
f 30 140 6
f 49 50 215
f 50 84 215
f 83 208 217
f 83 127 208
f 82 127 83
f 157 172 185
f 79 130 157
f 130 172 157
f 136 95 131
f 160 218 96
f 156 53 107
f 53 218 107
f 85 231 127
f 218 231 85
f 212 231 218
f 218 160 212
f 223 46 88
f 88 46 238
f 88 238 190
f 38 114 57
f 57 133 38
f 223 133 57
f 41 16 203
f 203 31 41
f 36 74 246
f 246 74 16
f 82 36 246
f 246 16 82
f 216 235 222
f 222 235 14
f 25 132 14
f 132 222 14
f 156 227 166
f 166 53 156
f 227 133 166
f 133 59 166
f 181 94 17
f 2 109 17
f 17 94 2
f 2 94 105
f 105 94 181
f 105 184 2
f 105 181 114
f 169 184 105
f 114 169 105
f 190 238 66
f 217 159 195
f 195 83 217
f 195 159 7
f 9 61 95
f 95 136 9
f 230 46 223
f 223 57 230
f 175 216 236
f 235 216 175
f 236 11 175
f 122 89 45
f 93 89 122
f 45 6 122
f 204 89 93
f 204 93 222
f 200 59 223
f 200 113 59
f 59 113 123
f 123 113 211
f 211 204 123
f 123 222 178
f 123 204 222
f 114 63 43
f 63 66 43
f 78 66 63
f 78 232 190
f 190 66 78
f 72 195 7
f 83 195 72
f 72 7 168
f 82 83 72
f 72 135 82
f 72 168 135
f 62 239 142
f 137 239 62
f 28 205 97
f 97 104 28
f 149 4 145
f 145 4 86
f 151 149 145
f 110 182 34
f 67 182 110
f 34 144 110
f 91 126 146
f 91 111 19
f 146 111 91
f 3 245 141
f 3 141 187
f 237 198 162
f 162 115 237
f 165 103 48
f 48 92 165
f 48 158 92
f 75 158 48
f 48 177 75
f 170 177 48
f 225 98 37
f 229 225 37
f 167 202 117
f 117 10 167
f 117 87 42
f 117 202 87
f 197 189 193
f 193 248 197
f 197 35 189
f 209 233 106
f 106 163 209
f 60 233 209
f 196 52 206
f 220 52 196
f 196 20 220
f 176 69 243
f 243 95 176
f 69 5 243
f 243 99 95
f 8 13 180
f 41 33 8
f 180 184 8
f 8 147 41
f 101 147 8
f 33 13 8
f 8 184 169
f 124 65 26
f 26 54 124
f 26 65 22
f 213 1 247
f 40 213 247
f 247 121 40
f 247 1 21
f 207 121 247
f 21 244 247
f 15 100 215
f 215 152 49
f 100 164 215
f 215 112 15
f 164 152 215
f 215 84 112
f 185 50 157
f 157 64 79
f 157 50 64
f 154 174 85
f 85 227 156
f 85 127 154
f 156 107 85
f 174 227 85
f 85 107 218
f 212 96 208
f 208 231 212
f 212 160 96
f 214 31 203
f 16 214 203
f 191 61 9
f 9 131 191
f 9 136 131
f 25 14 175
f 175 11 25
f 175 14 235
f 122 140 118
f 138 236 122
f 236 216 122
f 222 93 122
f 118 138 122
f 122 6 140
f 122 216 222
f 200 88 190
f 200 30 45
f 190 30 200
f 45 89 200
f 223 88 200
f 200 204 211
f 211 113 200
f 89 204 200
f 53 166 123
f 178 53 123
f 123 166 59
f 43 57 114
f 238 46 43
f 46 230 43
f 43 66 238
f 43 230 57
f 78 120 51
f 109 120 78
f 78 17 109
f 51 12 78
f 78 12 232
f 78 63 181
f 181 17 78

