# https://github.com/mikedh/trimesh
v -0.04711704 -0.02212057 -0.00149300
v -0.04595815 -0.02425918 -0.00589382
v -0.04365306 -0.02404034 -0.00179122
v -0.02839287 -0.02498073 -0.00681839
v -0.04176945 -0.02415266 -0.00019042
v -0.04453482 -0.02446480 -0.00427240
v -0.02501636 -0.01097117 -0.00874219
v -0.04900546 -0.00005671 -0.01500006
v -0.04957626 -0.02335495 -0.00937571
v -0.02626467 -0.00052747 -0.01500006
v -0.02506306 -0.01405820 -0.00005893
v -0.02513874 -0.01786257 -0.01500006
v -0.04813169 -0.01822481 -0.01500007
v -0.02503704 -0.02385211 -0.01025376
v -0.04856344 -0.01675633 -0.00022398
v -0.04249399 -0.02450716 -0.00183367
v -0.04982445 -0.01857756 -0.01500007
v -0.04993136 -0.01603733 -0.00146216
v -0.02535813 -0.00104694 -0.01500006
v -0.04527880 -0.02245103 -0.00009467
v -0.02562502 -0.02456351 -0.00247529
v -0.04876922 -0.02021215 -0.01500005
v -0.04614384 -0.02454785 -0.00704941
v -0.04993334 -0.01873317 -0.01500005
v -0.04929918 -0.02207228 -0.00524908
v -0.04412861 -0.02139192 -0.01500007
v -0.04235914 -0.00068595 -0.01500007
v -0.04314943 -0.02394595 -0.00100373
v -0.04382853 -0.02455391 -0.00353516
v -0.02779038 -0.00062954 -0.01500007
v -0.04924243 -0.02474659 -0.01477952
v -0.04968176 -0.02138772 -0.00412898
v -0.02550105 -0.02494589 -0.00437601
v -0.02649999 -0.00942758 -0.00028504
v -0.04983692 -0.02413012 -0.01353385
v -0.04932135 -0.02415188 -0.01193103
v -0.04993059 -0.02304612 -0.00910615
v -0.04936738 -0.02301581 -0.00792068
v -0.04820957 -0.02182355 -0.00256627
v -0.02613746 -0.02432859 -0.01500007
v -0.04774918 -0.02359102 -0.00677681
v -0.04814877 -0.02482527 -0.01188875
v -0.04803201 -0.02410649 -0.00882188
v -0.04792822 -0.02297873 -0.00522989
v -0.04994241 -0.01279615 -0.01500007
v -0.04443409 -0.02376461 -0.00208095
v -0.02782436 -0.00051940 -0.01500007
v -0.02948591 -0.02496970 -0.00527710
v -0.04539633 -0.02194864 -0.01500006
v -0.02620056 -0.02495384 -0.01500007
v -0.04991640 -0.02351940 -0.01077687
v -0.02853881 -0.02482421 -0.01500007
v -0.04695130 -0.02281395 -0.00315582
v -0.04808200 -0.02165128 -0.00186974
v -0.04086569 -0.02480415 -0.00101647
v -0.04684271 -0.01920127 -0.01500008
v -0.04833683 -0.02125235 -0.00141383
v -0.04034042 -0.02472993 -0.00030498
v -0.02500484 -0.00023817 -0.00598521
v -0.02536390 -0.02482046 -0.01500007
v -0.04239901 -0.02399448 -0.00039419
v -0.02508867 -0.00063475 -0.01396934
v -0.04845567 -0.02312991 -0.00657773
v -0.04892103 -0.02343904 -0.00828588
v -0.04737446 -0.02061527 -0.01500007
v -0.02541483 -0.00587868 -0.00143471
v -0.04964965 -0.02418622 -0.01318777
v -0.04933790 -0.02420033 -0.01222511
v -0.03627702 -0.02486523 -0.01500007
v -0.02649998 -0.00004853 -0.00821494
v -0.04985501 -0.02034202 -0.00165638
v -0.04917910 -0.02062308 -0.00129971
v -0.04616860 -0.02297284 -0.00240036
v -0.03109955 -0.02495520 -0.01500007
v -0.02565758 -0.00591202 -0.00128275
v -0.02649998 -0.00013317 -0.00707855
v -0.03883011 -0.02445713 -0.01500007
v -0.04813669 -0.02499502 -0.01273560
v -0.04586684 -0.02435932 -0.00604827
v -0.04681722 -0.02170163 -0.00024928
v -0.02897581 -0.00008407 -0.01500006
v -0.04459219 -0.02408216 -0.00322500
v -0.02804773 -0.02423866 -0.01500008
v -0.04054036 -0.02393639 -0.01500006
v -0.02631283 -0.00612231 -0.00092652
v -0.04214449 -0.02431159 -0.00097517
v -0.04203488 -0.02490914 -0.00244158
v -0.04656382 -0.02343195 -0.00438498
v -0.02777170 -0.02396370 -0.00008535
v -0.04502136 -0.02255611 -0.01499482
v -0.02500562 -0.00291559 -0.01500006
v -0.03789614 -0.02497709 -0.01500006
v -0.04899735 -0.02252876 -0.00590943
v -0.04665553 -0.02187348 -0.00037318
v -0.04596747 -0.02304146 -0.00228885
v -0.04732937 -0.02265925 -0.00330259
v -0.02639467 -0.00052757 -0.01500006
v -0.04924742 -0.02320648 -0.00823298
v -0.04736330 -0.02442082 -0.00864150
v -0.04337309 -0.02347399 -0.00018120
v -0.04393679 -0.02474943 -0.00433216
v -0.04687130 -0.02315039 -0.00403466
v -0.04991418 -0.02266840 -0.01203826
v -0.02649999 -0.00750894 -0.00041036
v -0.04998856 -0.00410144 -0.01500006
v -0.04955359 -0.02456500 -0.01477358
v -0.02637718 -0.02404600 -0.00023666
f 59 11 14
f 8 85 59
f 15 85 8
f 60 19 91
f 66 11 59
f 104 85 15
f 11 66 104
f 8 81 27
f 31 92 78
f 106 22 31
f 59 91 62
f 62 91 19
f 59 14 7
f 7 91 59
f 14 91 7
f 12 14 60
f 60 91 12
f 12 91 14
f 34 15 11
f 11 104 34
f 34 104 15
f 85 104 75
f 75 104 66
f 59 85 75
f 75 66 59
f 70 81 8
f 59 62 70
f 70 62 81
f 47 27 81
f 47 56 27
f 90 31 22
f 92 31 90
f 105 37 18
f 18 37 71
f 18 8 105
f 18 71 15
f 15 8 18
f 76 8 59
f 59 70 76
f 76 70 8
f 10 62 19
f 81 62 10
f 49 90 22
f 56 47 83
f 47 30 83
f 65 49 22
f 24 37 105
f 24 51 37
f 24 22 106
f 60 14 33
f 33 14 11
f 58 107 89
f 89 107 11
f 97 47 81
f 81 10 97
f 97 30 47
f 97 83 30
f 92 90 84
f 90 49 84
f 49 65 84
f 56 83 26
f 26 65 56
f 60 83 40
f 40 19 60
f 40 10 19
f 40 97 10
f 83 97 40
f 35 24 106
f 106 67 35
f 35 67 51
f 11 15 20
f 20 89 11
f 11 107 21
f 21 33 11
f 21 107 58
f 58 33 21
f 55 33 58
f 87 33 55
f 78 92 4
f 52 26 83
f 69 74 92
f 22 24 17
f 17 13 56
f 17 65 22
f 56 65 17
f 68 36 51
f 51 67 68
f 68 67 106
f 51 24 103
f 103 35 51
f 24 35 103
f 78 23 42
f 42 23 99
f 99 43 42
f 36 68 42
f 51 36 42
f 42 43 51
f 6 23 101
f 78 87 101
f 101 23 78
f 37 51 9
f 51 43 9
f 48 87 78
f 78 4 48
f 48 33 87
f 48 4 33
f 74 52 50
f 50 83 60
f 50 52 83
f 60 33 50
f 33 4 50
f 92 74 50
f 50 4 92
f 26 52 77
f 77 52 74
f 74 69 77
f 65 26 77
f 77 84 65
f 92 84 77
f 77 69 92
f 45 24 105
f 45 17 24
f 13 17 45
f 105 8 45
f 56 13 45
f 8 27 45
f 27 56 45
f 79 23 6
f 79 2 23
f 98 38 37
f 29 101 87
f 87 3 29
f 6 101 29
f 15 71 72
f 99 41 64
f 64 43 99
f 64 9 43
f 37 9 64
f 64 98 37
f 71 37 32
f 37 38 32
f 16 3 87
f 16 28 3
f 16 86 28
f 3 28 100
f 28 61 100
f 80 20 15
f 15 72 80
f 54 1 71
f 57 72 71
f 71 1 57
f 5 86 58
f 5 100 61
f 28 86 5
f 5 61 28
f 58 89 5
f 89 20 5
f 20 100 5
f 3 100 94
f 94 100 20
f 20 80 94
f 6 29 82
f 82 29 3
f 1 95 46
f 46 94 1
f 3 94 46
f 95 82 46
f 46 82 3
f 38 63 93
f 1 54 96
f 23 2 88
f 88 53 23
f 39 93 63
f 25 32 38
f 38 93 25
f 23 53 102
f 53 96 102
f 44 63 64
f 44 64 41
f 44 39 63
f 54 39 44
f 44 96 54
f 73 96 53
f 73 95 1
f 1 96 73
f 106 31 42
f 42 31 78
f 42 68 106
f 87 55 16
f 16 55 58
f 58 86 16
f 38 98 63
f 98 64 63
f 72 57 94
f 94 80 72
f 94 57 1
f 25 54 71
f 71 32 25
f 25 39 54
f 93 39 25
f 44 41 99
f 99 23 44
f 23 102 44
f 44 102 96
f 6 82 73
f 73 79 6
f 2 79 73
f 73 82 95
f 73 88 2
f 53 88 73

