# https://github.com/mikedh/trimesh
v 0.01409935 -0.00461710 0.02863192
v 0.01944762 -0.00688695 0.02995677
v 0.01267352 -0.00060200 0.02997711
v 0.01073904 -0.00165812 0.02735667
v 0.01291115 -0.00291393 0.02928045
v 0.00914021 -0.00206767 0.02509181
v 0.01911358 -0.00609030 0.03165395
v 0.01419447 -0.00085860 0.03162526
v 0.01629903 -0.00427311 0.03171082
v 0.01345471 -0.00363995 0.02922858
v 0.02236964 -0.00029459 0.03582095
v 0.01727784 -0.00096107 0.03455326
v 0.01851082 -0.00228216 0.03516388
v 0.01395577 -0.00177514 0.03115617
v 0.01594982 -0.00661706 0.02610491
v 0.01512272 -0.00210672 0.03224261
v 0.01981880 -0.00250563 0.03581068
v 0.01012630 -0.00091641 0.02682791
v 0.01732713 -0.00224405 0.03423156
v 0.01188619 -0.00477192 0.02540850
v 0.01824022 -0.00623058 0.03031505
v 0.01646395 -0.00524965 0.03039066
v 0.01869989 -0.00669271 0.02960415
v 0.02286489 -0.00586253 0.03499064
v 0.02432352 -0.00273427 0.03526963
v 0.01184913 -0.00239363 0.02835321
v 0.01127228 -0.00410029 0.02577757
v 0.01808124 -0.00456981 0.03313176
v 0.01905148 -0.00377729 0.03471292
v 0.01888109 -0.00356945 0.03473416
v 0.02231894 -0.00615199 0.03444401
v 0.01210263 -0.00465049 0.02593094
v 0.01645213 -0.00044258 0.03390330
v 0.02018987 -0.00838666 0.02503626
v 0.01328030 -0.00397880 0.02857906
v 0.01738304 -0.00516175 0.03159049
v 0.01911069 -0.00804629 0.02516554
v 0.01975900 -0.00303373 0.03560825
v 0.01864672 -0.00689048 0.02887981
v 0.02336440 -0.00642620 0.03463961
v 0.01429585 -0.00262838 0.03108911
v 0.01128680 -0.00440139 0.02530125
v 0.02069100 -0.00685607 0.03154501
v 0.01888009 -0.00018656 0.03579949
v 0.02410378 -0.00438232 0.03531779
v 0.02105490 -0.00768371 0.02923654
v 0.01535488 -0.00669154 0.02504108
v 0.01478053 -0.00629956 0.02546876
v 0.01452592 -0.00436170 0.02958069
v 0.02398710 -0.00821832 0.03082127
v 0.01761535 -0.00532313 0.03156763
v 0.01735214 -0.00484302 0.03206154
v 0.01683213 -0.00406291 0.03251611
v 0.02490101 -0.00862971 0.03006395
v 0.00917081 -0.00189533 0.02522574
v 0.01858822 -0.00646875 0.03010193
v 0.00877792 -0.00002986 0.02537795
v 0.01627416 -0.00286350 0.03297464
v 0.01440193 -0.00470469 0.02886103
v 0.02048200 -0.00049868 0.03616845
v 0.01381601 -0.00426224 0.02885101
v 0.01685239 -0.00318253 0.03330265
v 0.01292710 -0.00536156 0.02545312
v 0.01724033 -0.00403770 0.03293237
v 0.01502297 -0.00179608 0.03227710
v 0.02107226 -0.00572717 0.03416440
v 0.02449628 -0.00946099 0.02548734
v 0.02453323 -0.00949615 0.02534538
v 0.01501706 -0.00348508 0.03121181
v 0.01258251 -0.00457571 0.02671353
v 0.02103400 -0.00665470 0.03238565
v 0.01349392 -0.00402958 0.02878088
v 0.02470446 -0.00790732 0.03267255
v 0.01588579 -0.00511071 0.02997092
v 0.00985969 -0.00299420 0.02529848
v 0.01930222 -0.00610945 0.03181404
v 0.01515607 -0.00470496 0.02980540
v 0.01995650 -0.00541781 0.03367679
v 0.01627554 -0.00366543 0.03235627
v 0.01963536 -0.00160015 0.03594460
v 0.02363946 -0.00930572 0.02521670
v 0.01794936 -0.00029524 0.03516134
v 0.01136917 -0.00374248 0.02642336
v 0.01049214 -0.00189690 0.02692529
v 0.02422412 -0.00714471 0.03407689
v 0.02016597 -0.00673383 0.03129687
v 0.01196984 -0.00280631 0.02819539
v 0.01065553 -0.00113944 0.02741728
v 0.02412462 -0.00829233 0.03068157
v 0.01645957 -0.00030001 0.03392187
v 0.02398112 -0.00641426 0.03478116
v 0.01296354 -0.00019000 0.03038085
v 0.01602409 -0.00402689 0.03171896
v 0.01942702 -0.00479485 0.03404870
v 0.01220833 -0.00250505 0.02872230
v 0.02225537 -0.00036611 0.03585277
v 0.01437654 -0.00170556 0.03163546
v 0.00865146 -0.00028253 0.02517500
v 0.02050426 -0.00737962 0.02963297
v 0.02481363 -0.00893435 0.02848961
v 0.01825753 -0.00442261 0.03345904
v 0.01745155 -0.00280460 0.03406378
v 0.01525314 -0.00051700 0.03277072
v 0.01927915 -0.00569466 0.03260987
v 0.01510935 -0.00379012 0.03100475
v 0.01347190 -0.00303334 0.02984860
v 0.01173329 -0.00280517 0.02789844
v 0.01300307 -0.00414143 0.02799481
v 0.02329122 -0.00226480 0.03555904
v 0.02381003 -0.00152765 0.03541727
v 0.02410886 -0.00784526 0.03230039
v 0.01983884 -0.00376121 0.03527924
v 0.01978223 -0.00708632 0.02972678
v 0.02409095 -0.00098575 0.03534038
v 0.02229148 -0.00896432 0.02518465
v 0.01247359 -0.00011066 0.02980269
v 0.01498502 -0.00056974 0.03248926
v 0.01507477 -0.00409997 0.03059523
v 0.01594712 -0.00357084 0.03211553
v 0.01635567 -0.00516300 0.03043017
v 0.02489793 -0.00123370 0.03511510
v 0.02442546 -0.00561152 0.03513166
v 0.01242410 -0.00253291 0.02896798
v 0.01724014 -0.00594729 0.02977238
v 0.01603290 -0.00104879 0.03344429
v 0.01321259 -0.00541520 0.02572813
v 0.01325281 -0.00419974 0.02822611
v 0.02242171 -0.00491175 0.03545813
v 0.01741129 -0.00556488 0.03087179
v 0.02278627 -0.00594546 0.03489385
v 0.02008290 -0.00140325 0.03607754
v 0.01288025 -0.00024107 0.03027436
v 0.01476813 -0.00211184 0.03187251
v 0.01849767 -0.00398710 0.03409562
v 0.02408185 -0.00772725 0.03260330
v 0.01196870 -0.00200877 0.02872730
v 0.02085087 -0.00680110 0.03184302
v 0.01396532 -0.00407146 0.02930953
v 0.01883678 -0.00348850 0.03475585
v 0.01285619 -0.00135485 0.03003370
v 0.01998024 -0.00693222 0.03047223
v 0.02457403 -0.00846367 0.03046659
v 0.01229383 -0.00214999 0.02904138
v 0.01957563 -0.00353498 0.03526511
v 0.01290155 -0.00301134 0.02918341
v 0.02154572 -0.00654546 0.03313130
v 0.01239913 -0.00388204 0.02757653
v 0.01090361 -0.00186255 0.02746686
v 0.01401877 -0.00545242 0.02676688
v 0.01860942 -0.00206360 0.03531201
v 0.02487642 -0.00732097 0.03407790
v 0.02136768 -0.00345096 0.03584801
v 0.01888984 -0.00618820 0.03118961
v 0.01443761 -0.00472488 0.02887036
v 0.02017729 -0.00366728 0.03550041
v 0.02458797 -0.00794134 0.03246033
v 0.02344901 -0.00687446 0.03406518
v 0.01922907 -0.00002020 0.03595375
v 0.01502282 -0.00475871 0.02954769
v 0.01266467 -0.00203080 0.02955135
v 0.01165391 -0.00414127 0.02622201
v 0.02370759 -0.00757869 0.03264105
v 0.02106246 -0.00539627 0.03459514
v 0.01275054 -0.00165293 0.02983116
v 0.01198645 -0.00380624 0.02714472
v 0.01797628 -0.00265516 0.03456889
v 0.01125355 -0.00359059 0.02645975
v 0.02327713 -0.00549778 0.03525456
v 0.02176790 -0.00187322 0.03596653
v 0.02214646 -0.00731421 0.03182010
v 0.02041371 -0.00709923 0.03047202
v 0.02049101 -0.00241440 0.03599111
v 0.02003343 -0.00397123 0.03525948
v 0.02143367 -0.00514178 0.03507959
v 0.01108831 -0.00277395 0.02709305
v 0.01777382 -0.00445547 0.03297569
v 0.01841946 -0.00526166 0.03250015
v 0.00956882 -0.00054086 0.02623751
v 0.01904008 -0.00165004 0.03568324
v 0.02079314 -0.00392218 0.03560258
v 0.01909931 -0.00131831 0.03578731
v 0.01323192 -0.00218143 0.03014512
v 0.01787646 -0.00185102 0.03482283
v 0.01368582 -0.00315282 0.03000113
v 0.02244334 -0.00652973 0.03393786
v 0.01843633 -0.00036659 0.03553109
v 0.01697331 -0.00518088 0.03111401
v 0.01386873 -0.00497850 0.02763294
v 0.01035371 -0.00151742 0.02693338
v 0.01394030 -0.00555265 0.02641490
v 0.02235855 -0.00503991 0.03539584
v 0.01772950 -0.00581217 0.03070243
v 0.02487736 -0.00945336 0.02597833
v 0.02193600 -0.00784506 0.02972099
v 0.01838617 -0.00627712 0.03038109
v 0.01926631 -0.00243792 0.03559641
v 0.02129495 -0.00512858 0.03502607
v 0.01419091 -0.00553767 0.02678748
v 0.01890130 -0.00636545 0.03079189
v 0.01784064 -0.00660527 0.02871861
v 0.01490022 -0.00312221 0.03139719
v 0.02165129 -0.00867029 0.02576739
v 0.01007973 -0.00049277 0.02686703
v 0.01416931 -0.00323675 0.03048561
v 0.01456014 -0.00429000 0.02973099
v 0.01426650 -0.00310027 0.03071359
v 0.02317387 -0.00755299 0.03218470
v 0.02464445 -0.00115432 0.03518586
v 0.01783454 -0.00457605 0.03289248
v 0.01694827 -0.00233554 0.03387033
v 0.01159411 -0.00218304 0.02816035
v 0.02354132 -0.00523901 0.03532059
v 0.01783712 -0.00205901 0.03471639
v 0.01816232 -0.00478661 0.03294616
v 0.01682522 -0.00724961 0.02510834
v 0.01524896 -0.00286657 0.03195427
v 0.01400732 -0.00188831 0.03116621
v 0.01183660 -0.00218386 0.02846393
v 0.02339458 -0.00733375 0.03299992
v 0.01613344 -0.00310287 0.03267740
v 0.02314426 -0.00652051 0.03443276
v 0.01745096 -0.00025562 0.03475782
v 0.02261459 -0.00091082 0.03575181
v 0.02045991 -0.00229489 0.03601043
v 0.01935756 -0.00657041 0.03078339
v 0.01626280 -0.00166064 0.03351356
v 0.02133661 -0.00010152 0.03608518
v 0.01280363 -0.00380483 0.02820969
v 0.01643324 -0.00498719 0.03081432
v 0.02221381 -0.00422993 0.03566703
v 0.01176962 -0.00185395 0.02855895
v 0.01894956 -0.00322582 0.03501985
v 0.02263147 -0.00501801 0.03542708
v 0.02190643 -0.00380922 0.03577575
v 0.01439011 -0.00273943 0.03112153
v 0.01542262 -0.00209112 0.03254933
v 0.02492828 -0.00950524 0.02576468
v 0.01862470 -0.00549920 0.03229763
v 0.02372148 -0.00844321 0.02947741
v 0.01320821 -0.00076828 0.03058874
v 0.02480920 -0.00031713 0.03514081
v 0.02159771 -0.00620820 0.03378500
v 0.02436382 -0.00673290 0.03457425
v 0.01689313 -0.00046100 0.03429010
v 0.02476075 -0.00770336 0.03329843
v 0.02302571 -0.00676972 0.03395445
v 0.01682414 -0.00301915 0.03338490
v 0.01868836 -0.00333286 0.03474931
v 0.02394047 -0.00123669 0.03538183
v 0.00945833 -0.00232942 0.02532487
v 0.02048984 -0.00233499 0.03600583
v 0.01000175 -0.00323893 0.02522779
v 0.02159546 -0.00127352 0.03601706
v 0.01725613 -0.00405660 0.03292731
v 0.01266667 -0.00185674 0.02964643
v 0.02206769 -0.00097331 0.03590301
v 0.01142213 -0.00191877 0.02809302
v 0.02018665 -0.00386123 0.03541047
v 0.02496723 -0.00778539 0.03325186
v 0.01625484 -0.00289748 0.03293565
v 0.02177563 -0.00754561 0.03066050
v 0.01876298 -0.00579992 0.03188436
v 0.01718363 -0.00640766 0.02842709
v 0.01193697 -0.00365304 0.02727733
v 0.02245883 -0.00659869 0.03382783
v 0.01396766 -0.00539375 0.02684149
v 0.01425572 -0.00463544 0.02879859
v 0.02300537 -0.00706199 0.03334803
v 0.01548330 -0.00525441 0.02916284
v 0.01426688 -0.00358661 0.03025983
v 0.01382542 -0.00210408 0.03086180
v 0.01337011 -0.00454873 0.02780853
v 0.02144232 -0.00135441 0.03604463
v 0.01803965 -0.00428517 0.03342054
v 0.01964462 -0.00684264 0.03033404
v 0.01234555 -0.00041791 0.02960993
v 0.01377499 -0.00304457 0.03019814
v 0.02364216 -0.00463881 0.03540806
v 0.01329926 -0.00425782 0.02819321
v 0.01475854 -0.00572953 0.02707130
v 0.02235160 -0.00652617 0.03387312
v 0.01031244 -0.00180133 0.02674325
v 0.01999568 -0.00661476 0.03140802
v 0.02376180 -0.00197587 0.03542922
v 0.01686385 -0.00079031 0.03424070
v 0.01559988 -0.00076990 0.03309283
v 0.01727936 -0.00478843 0.03206652
v 0.01863136 -0.00288125 0.03497279
v 0.01950797 -0.00591299 0.03245295
v 0.01179567 -0.00230611 0.02833986
v 0.02243247 -0.00632001 0.03427468
v 0.01936248 -0.00506870 0.03364460
v 0.01968678 -0.00294800 0.03561236
v 0.01925385 -0.00673299 0.03018873
v 0.02270210 -0.00556716 0.03516955
v 0.02357346 -0.00139282 0.03548359
v 0.02262949 -0.00642868 0.03424006
v 0.01965994 -0.00575357 0.03288140
v 0.02408666 -0.00824709 0.03082828
v 0.01315787 -0.00124127 0.03041630
v 0.01552037 -0.00333339 0.03188704
v 0.02499094 -0.00047180 0.03509004
v 0.01099423 -0.00283268 0.02692242
v 0.01396858 -0.00250710 0.03080668
v 0.01824242 -0.00570571 0.03150622
v 0.02471560 -0.00755048 0.03361501
v 0.01305099 -0.00230656 0.02986386
v 0.02426759 -0.00376185 0.03527888
v 0.02014451 -0.00712656 0.03004771
v 0.02068270 -0.00658185 0.03219804
v 0.01409412 -0.00464414 0.02857676
v 0.01385482 -0.00515398 0.02724255
v 0.01816352 -0.00058108 0.03531332
v 0.02464556 -0.00651916 0.03476738
v 0.02353441 -0.00487575 0.03539810
v 0.01358969 -0.00548695 0.02608894
v 0.01629620 -0.00552526 0.02962061
v 0.02177635 -0.00487373 0.03538398
v 0.02381893 -0.00479599 0.03535657
v 0.01574166 -0.00247587 0.03268277
v 0.02025898 -0.00647397 0.03200725
v 0.01517180 -0.00516207 0.02894872
v 0.01690078 -0.00545143 0.03051270
v 0.01545117 -0.00648672 0.02581874
v 0.02015174 -0.00533155 0.03396377
v 0.01068005 -0.00221878 0.02697575
v 0.01474605 -0.00257378 0.03161259
v 0.02029103 -0.00284864 0.03585074
v 0.02202889 -0.00722336 0.03195390
v 0.01467003 -0.00385837 0.03043132
v 0.01354382 -0.00573198 0.02539391
v 0.01011921 -0.00035904 0.02694443
v 0.01966680 -0.00355046 0.03531037
v 0.02341314 -0.00509408 0.03536777
v 0.02229445 -0.00789969 0.02995946
v 0.01762603 -0.00180838 0.03463911
v 0.01703141 -0.00101749 0.03434274
v 0.01180814 -0.00200910 0.02853331
v 0.01903681 -0.00534571 0.03294512
v 0.01524441 -0.00456251 0.03014307
v 0.02451997 -0.00277456 0.03521478
v 0.01316403 -0.00376236 0.02872113
v 0.01618536 -0.00235850 0.03317080
v 0.01806603 -0.00193375 0.03494337
v 0.01705781 -0.00535503 0.03089544
v 0.01930411 -0.00335911 0.03518834
v 0.02106479 -0.00856471 0.02543910
v 0.02200621 -0.00608701 0.03434246
v 0.00897897 -0.00171779 0.02507481
v 0.02134888 -0.00049197 0.03607905
v 0.01907586 -0.00675224 0.02990909
v 0.01994743 -0.00630135 0.03206877
v 0.02100588 -0.00406898 0.03559960
v 0.00961207 -0.00143262 0.02601982
v 0.01047883 -0.00152774 0.02708798
v 0.01692075 -0.00013919 0.03432853
v 0.01493126 -0.00204816 0.03207612
v 0.01559832 -0.00130960 0.03297428
v 0.02011764 -0.00453996 0.03485063
v 0.01589689 -0.00543940 0.02930217
v 0.01813721 -0.00031712 0.03530870
v 0.02005831 -0.00092639 0.03611408
v 0.02421292 -0.00773097 0.03271854
v 0.02346080 -0.00403896 0.03549325
v 0.02052710 -0.00694567 0.03110246
v 0.02310678 -0.00691733 0.03372406
v 0.01246580 -0.00359846 0.02802965
v 0.02484194 -0.00868868 0.02971729
v 0.02491981 -0.00207256 0.03510643
v 0.02262220 -0.00714091 0.03276375
v 0.02247023 -0.00456068 0.03557825
v 0.02280403 -0.00686528 0.03360495
v 0.02270240 -0.00411375 0.03564079
v 0.02064837 -0.00396326 0.03553389
v 0.02159484 -0.00044743 0.03603242
v 0.02379487 -0.00766930 0.03248015
v 0.02430362 -0.00916171 0.02674759
v 0.01499371 -0.00000645 0.03256717
v 0.01261244 -0.00323882 0.02861476
v 0.01929840 -0.00522096 0.03338535
v 0.01399924 -0.00484378 0.02808165
v 0.01776389 -0.00176801 0.03475797
v 0.01674232 -0.00634243 0.02802341
v 0.01635077 -0.00106022 0.03372603
v 0.00880572 -0.00115234 0.02508470
v 0.02273419 -0.00660760 0.03403016
v 0.01411276 -0.00205583 0.03120282
v 0.01936496 -0.00464533 0.03415295
v 0.01807928 -0.00334284 0.03426105
v 0.01587844 -0.00349214 0.03211991
v 0.01368373 -0.00061441 0.03114907
f 302 237 68
f 57 68 98
f 302 68 57
f 227 158 60
f 227 57 158
f 259 237 302
f 302 151 259
f 302 57 241
f 57 227 241
f 306 259 151
f 302 241 96
f 332 57 98
f 237 259 54
f 11 241 227
f 11 96 241
f 302 96 114
f 3 332 240
f 100 193 237
f 237 54 100
f 163 359 94
f 350 227 60
f 60 273 350
f 273 152 234
f 122 314 369
f 302 121 369
f 369 121 249
f 369 151 302
f 369 314 151
f 373 315 278
f 169 234 373
f 273 234 169
f 151 314 243
f 243 314 91
f 243 40 151
f 91 40 243
f 208 121 302
f 302 114 208
f 92 3 240
f 178 332 98
f 332 178 203
f 368 54 142
f 368 100 54
f 85 306 151
f 85 157 306
f 151 40 85
f 47 42 252
f 104 298 177
f 177 238 104
f 20 63 126
f 126 316 20
f 388 359 134
f 94 359 388
f 134 274 388
f 388 274 94
f 177 298 339
f 339 380 177
f 298 380 339
f 359 163 197
f 197 130 174
f 348 163 66
f 325 163 94
f 325 66 163
f 181 80 158
f 60 158 362
f 158 80 362
f 122 315 334
f 296 369 249
f 341 25 308
f 308 369 341
f 319 315 122
f 319 278 315
f 169 256 375
f 227 350 375
f 375 256 96
f 375 11 227
f 96 11 375
f 391 92 240
f 332 3 276
f 57 332 276
f 57 92 116
f 240 332 140
f 332 203 140
f 8 391 97
f 158 57 378
f 57 116 378
f 378 116 92
f 92 391 378
f 157 85 221
f 221 85 40
f 40 130 221
f 291 221 348
f 297 221 291
f 20 312 188
f 312 269 188
f 176 274 53
f 142 54 73
f 73 156 142
f 73 54 259
f 111 156 73
f 245 73 259
f 259 306 245
f 306 268 245
f 306 157 366
f 366 268 306
f 100 368 377
f 98 68 81
f 142 156 299
f 299 156 111
f 20 42 331
f 42 47 331
f 331 63 20
f 331 126 63
f 316 126 331
f 190 316 331
f 37 46 215
f 39 215 113
f 47 215 39
f 51 238 177
f 36 51 177
f 134 359 29
f 258 197 174
f 348 66 242
f 298 146 242
f 242 66 298
f 78 325 380
f 66 325 78
f 78 380 298
f 298 66 78
f 64 274 134
f 134 62 64
f 19 210 102
f 371 315 373
f 371 334 315
f 122 334 212
f 334 371 212
f 308 25 109
f 25 341 109
f 109 341 369
f 364 256 169
f 278 319 364
f 373 278 364
f 364 169 373
f 273 169 253
f 169 375 253
f 253 350 273
f 253 375 350
f 286 391 8
f 286 97 358
f 8 97 286
f 3 92 132
f 132 276 3
f 132 92 57
f 57 276 132
f 164 140 88
f 300 391 240
f 300 97 391
f 240 140 300
f 300 140 164
f 348 221 31
f 31 221 130
f 130 197 31
f 31 163 348
f 31 197 163
f 322 188 269
f 32 42 20
f 177 380 214
f 111 73 363
f 73 245 363
f 71 268 146
f 2 39 113
f 37 215 34
f 34 215 47
f 98 81 34
f 67 81 68
f 377 81 67
f 193 100 67
f 100 377 67
f 239 202 142
f 194 46 37
f 48 331 47
f 113 215 99
f 99 215 46
f 99 309 113
f 47 39 15
f 360 269 312
f 173 29 359
f 144 29 173
f 359 197 173
f 197 258 173
f 166 288 13
f 102 288 166
f 13 19 166
f 166 19 102
f 389 288 102
f 389 62 134
f 134 29 389
f 80 181 17
f 17 224 80
f 328 224 17
f 152 328 353
f 53 64 79
f 79 64 62
f 301 201 69
f 53 274 254
f 254 64 53
f 274 64 254
f 62 260 220
f 102 210 247
f 247 260 62
f 210 343 247
f 247 389 102
f 62 389 247
f 358 97 65
f 210 19 226
f 226 343 210
f 358 65 226
f 91 295 24
f 24 40 91
f 24 130 40
f 174 130 24
f 24 295 174
f 174 295 318
f 318 295 191
f 168 212 371
f 191 295 168
f 91 314 168
f 168 295 91
f 168 314 122
f 122 212 168
f 369 296 110
f 223 109 296
f 256 109 223
f 96 256 223
f 223 296 249
f 223 114 96
f 296 109 284
f 284 110 296
f 284 109 369
f 369 110 284
f 45 109 256
f 256 364 45
f 308 109 45
f 45 364 319
f 45 319 122
f 122 369 45
f 45 369 308
f 103 286 378
f 125 286 358
f 358 226 125
f 125 226 384
f 18 88 140
f 18 140 203
f 18 203 178
f 18 178 98
f 164 88 355
f 88 18 355
f 355 18 98
f 379 75 252
f 252 367 379
f 367 10 379
f 307 255 160
f 307 182 255
f 14 300 164
f 97 300 14
f 94 274 101
f 274 176 28
f 28 101 274
f 28 214 94
f 94 101 28
f 94 214 292
f 292 214 380
f 292 325 94
f 380 325 292
f 167 367 252
f 252 83 167
f 42 272 161
f 219 245 268
f 219 363 245
f 281 242 146
f 146 265 281
f 348 242 281
f 281 185 348
f 268 43 370
f 43 329 370
f 370 219 268
f 170 329 43
f 137 43 268
f 268 71 137
f 289 146 298
f 298 104 289
f 289 104 238
f 115 34 81
f 142 202 115
f 115 368 142
f 115 377 368
f 115 81 377
f 202 239 89
f 37 202 89
f 89 299 37
f 142 299 89
f 89 239 142
f 335 194 37
f 324 48 47
f 47 15 324
f 323 129 345
f 323 345 22
f 323 317 192
f 192 129 323
f 266 360 312
f 266 312 20
f 20 316 266
f 266 316 190
f 144 173 112
f 112 173 258
f 288 389 232
f 172 328 152
f 172 224 328
f 131 362 80
f 80 224 131
f 60 362 131
f 131 224 60
f 328 17 38
f 196 17 181
f 13 288 196
f 288 232 196
f 230 234 152
f 373 234 230
f 230 371 373
f 206 201 235
f 204 69 206
f 206 69 201
f 53 79 93
f 270 69 204
f 105 69 270
f 118 93 105
f 177 214 52
f 214 287 52
f 52 36 177
f 119 69 105
f 105 93 119
f 119 93 79
f 390 79 62
f 62 220 390
f 390 119 79
f 390 220 301
f 301 69 390
f 69 119 390
f 216 201 301
f 301 220 216
f 235 201 216
f 216 260 320
f 216 220 260
f 260 247 58
f 58 247 343
f 320 260 58
f 58 343 320
f 320 343 236
f 343 226 236
f 236 226 65
f 213 19 13
f 384 226 337
f 191 168 233
f 233 168 371
f 391 286 117
f 286 103 117
f 231 255 164
f 164 355 231
f 98 34 385
f 75 379 303
f 97 14 217
f 164 255 217
f 217 14 164
f 209 28 176
f 214 28 209
f 209 287 214
f 209 176 53
f 53 287 209
f 367 167 264
f 264 167 83
f 264 228 367
f 42 32 70
f 70 272 42
f 42 161 27
f 27 161 83
f 252 42 27
f 27 83 252
f 342 10 367
f 367 228 342
f 108 127 61
f 146 268 372
f 372 265 146
f 268 366 372
f 372 366 157
f 157 246 372
f 157 221 386
f 386 246 157
f 386 221 297
f 297 291 386
f 386 291 348
f 348 185 386
f 386 281 265
f 185 281 386
f 265 372 386
f 386 372 246
f 171 2 113
f 113 309 171
f 238 51 262
f 262 289 238
f 23 15 39
f 23 200 15
f 192 317 124
f 124 21 192
f 347 115 202
f 34 115 347
f 347 202 37
f 37 34 347
f 37 299 50
f 50 335 37
f 50 299 111
f 149 198 360
f 360 266 149
f 190 198 149
f 149 266 190
f 30 389 29
f 30 29 144
f 251 172 152
f 224 172 251
f 251 152 273
f 251 273 60
f 60 224 251
f 258 38 333
f 144 112 333
f 333 112 258
f 155 38 258
f 13 196 150
f 293 38 17
f 17 196 293
f 144 333 293
f 293 333 38
f 346 196 232
f 346 30 144
f 232 30 346
f 144 293 346
f 346 293 196
f 277 206 235
f 204 206 277
f 387 217 271
f 255 182 271
f 271 217 255
f 184 379 10
f 10 270 184
f 184 270 204
f 204 277 184
f 330 270 10
f 105 270 330
f 330 118 105
f 93 118 9
f 9 287 53
f 53 93 9
f 327 41 235
f 235 216 327
f 327 216 320
f 344 213 13
f 13 150 344
f 344 150 313
f 213 344 183
f 183 313 382
f 183 344 313
f 186 313 181
f 336 337 226
f 336 226 19
f 336 183 382
f 19 213 336
f 213 183 336
f 382 313 12
f 12 336 382
f 337 336 12
f 191 233 128
f 128 233 371
f 128 318 191
f 353 318 128
f 371 230 128
f 152 353 128
f 128 230 152
f 255 231 338
f 189 355 98
f 107 379 87
f 107 303 379
f 381 32 20
f 381 70 32
f 20 188 381
f 272 70 381
f 188 322 381
f 61 272 1
f 228 108 35
f 165 264 83
f 228 264 165
f 83 161 165
f 161 108 165
f 127 108 279
f 279 272 61
f 61 127 279
f 279 161 272
f 279 108 161
f 363 219 135
f 111 363 135
f 135 376 111
f 329 170 207
f 207 170 111
f 111 376 207
f 365 170 43
f 310 71 146
f 305 262 51
f 305 51 345
f 345 129 305
f 305 129 192
f 2 275 294
f 275 365 294
f 200 23 263
f 15 200 263
f 280 124 317
f 317 360 280
f 360 198 280
f 280 198 190
f 190 331 280
f 331 48 280
f 261 50 111
f 335 50 261
f 111 170 261
f 261 99 46
f 46 194 261
f 194 335 261
f 170 365 261
f 261 365 171
f 309 99 261
f 261 171 309
f 248 232 389
f 389 30 248
f 374 155 258
f 374 258 174
f 174 318 374
f 374 318 353
f 181 313 179
f 313 150 179
f 179 196 181
f 179 150 196
f 182 307 304
f 235 41 304
f 304 277 235
f 304 271 182
f 41 327 304
f 387 271 304
f 304 327 387
f 277 304 5
f 5 304 307
f 307 123 5
f 10 342 138
f 138 330 10
f 357 217 387
f 357 65 97
f 97 217 357
f 44 181 158
f 44 186 181
f 285 33 286
f 286 125 285
f 285 125 384
f 384 337 285
f 337 12 285
f 285 12 313
f 378 286 90
f 286 33 90
f 33 285 90
f 160 255 136
f 255 338 136
f 311 381 154
f 272 381 311
f 311 1 272
f 154 159 59
f 147 108 228
f 228 165 147
f 147 165 108
f 162 135 219
f 376 135 162
f 2 171 141
f 171 365 141
f 283 310 321
f 199 153 192
f 199 283 153
f 146 289 352
f 352 283 321
f 352 310 146
f 321 310 352
f 76 352 289
f 153 283 76
f 283 352 76
f 262 305 7
f 153 76 7
f 192 153 7
f 7 305 192
f 289 262 7
f 7 76 289
f 2 294 351
f 39 2 351
f 351 23 39
f 56 263 23
f 124 280 383
f 383 280 48
f 48 324 383
f 383 324 15
f 15 263 383
f 139 30 232
f 232 248 139
f 139 248 30
f 155 374 180
f 328 38 180
f 38 155 180
f 180 353 328
f 180 374 353
f 95 123 26
f 95 107 87
f 26 107 95
f 87 5 95
f 95 5 123
f 106 184 277
f 277 5 106
f 106 5 184
f 379 184 145
f 184 5 145
f 87 379 145
f 145 5 87
f 72 138 342
f 61 138 72
f 72 108 61
f 72 35 108
f 16 327 320
f 16 357 327
f 320 236 16
f 16 236 65
f 65 357 16
f 387 327 133
f 133 357 387
f 327 357 133
f 378 90 356
f 158 378 356
f 356 44 158
f 143 136 338
f 338 218 143
f 143 307 160
f 160 136 143
f 143 123 307
f 26 123 143
f 143 218 26
f 175 107 26
f 303 107 175
f 340 229 287
f 77 229 340
f 287 9 340
f 340 9 118
f 340 49 77
f 187 52 287
f 287 229 187
f 36 52 187
f 345 51 187
f 51 36 187
f 77 49 267
f 267 159 77
f 61 1 267
f 267 49 61
f 267 59 159
f 205 138 61
f 61 49 205
f 118 330 205
f 330 138 205
f 205 340 118
f 49 340 205
f 86 365 43
f 225 294 86
f 86 294 365
f 86 199 225
f 283 199 86
f 192 21 195
f 195 199 192
f 195 56 199
f 263 56 195
f 195 383 263
f 21 124 195
f 124 383 195
f 338 84 211
f 211 84 326
f 44 356 82
f 148 84 338
f 355 189 282
f 84 148 282
f 22 345 74
f 77 159 74
f 269 360 74
f 74 322 269
f 74 360 317
f 74 381 322
f 74 323 22
f 317 323 74
f 154 381 74
f 74 159 154
f 290 218 338
f 338 211 290
f 26 218 290
f 290 326 26
f 290 211 326
f 313 186 361
f 361 82 313
f 186 44 361
f 44 82 361
f 244 90 285
f 244 356 90
f 244 285 313
f 313 82 244
f 4 231 355
f 355 282 4
f 4 282 148
f 257 338 231
f 257 148 338
f 231 4 257
f 257 4 148
f 349 282 189
f 84 282 349
f 349 34 47
f 349 385 34
f 120 187 229
f 120 229 77
f 77 74 120
f 345 187 120
f 120 74 345
f 222 82 356
f 356 244 222
f 222 244 82
f 385 349 354
f 354 349 189
f 98 385 354
f 354 189 98
f 75 303 250
f 303 175 250
f 26 326 250
f 250 175 26
f 252 75 6
f 6 47 252
f 6 349 47
f 75 250 6
f 6 250 326
f 326 84 6
f 349 6 55
f 84 349 55
f 55 6 84
f 237 193 67
f 67 68 237
f 121 208 223
f 249 121 223
f 223 208 114
f 117 103 378
f 117 378 391
f 219 370 162
f 162 370 329
f 329 207 162
f 162 207 376
f 141 365 275
f 141 275 2
f 225 199 56
f 23 351 56
f 56 294 225
f 56 351 294
f 228 35 72
f 72 342 228
f 1 311 267
f 267 311 154
f 154 59 267
f 71 310 86
f 86 137 71
f 310 283 86
f 43 137 86

