# https://github.com/mikedh/trimesh
v 0.04764387 -0.02845115 0.00170081
v 0.00312029 -0.01673343 0.02829294
v 0.04345540 -0.02838598 0.01360845
v 0.04934269 -0.02450572 0.02044066
v 0.01585606 -0.02055451 0.00010602
v 0.00439363 -0.01428738 0.02815785
v 0.00017028 -0.02050000 0.02219160
v 0.04968158 -0.02568307 0.01924178
v 0.04994124 -0.02821673 0.00097231
v 0.04196415 -0.02821173 0.00793319
v 0.04861014 -0.02837948 0.00029328
v 0.04513724 -0.02848385 0.01614676
v 0.04251172 -0.02828508 0.00005872
v 0.04799089 -0.02842807 0.01658870
v 0.04981057 -0.02783210 0.01709733
v 0.00088973 -0.01628261 0.02848486
v 0.04741288 -0.02836451 0.01679715
v 0.04084985 -0.02803022 0.00273952
v 0.04491343 -0.02847225 0.00102370
v 0.03448004 -0.00002510 0.02050000
v 0.00375691 -0.00099787 0.02824576
v 0.04270071 -0.02830746 0.01097256
v 0.04779573 -0.02844313 0.01441552
v 0.04090251 -0.02804016 0.01098834
v 0.04896144 -0.02834559 0.01164397
v 0.04618167 -0.02848593 0.01627687
v 0.00218834 -0.00115174 0.02840846
v 0.04870072 -0.02837139 0.01066548
v 0.00267863 -0.02050000 0.00019753
v 0.04232708 -0.02826079 0.01630622
v 0.00034461 -0.02038360 0.02478500
v 0.04537732 -0.02848922 0.01492235
v 0.04625140 -0.02848601 0.00017669
v 0.04445667 -0.02844151 0.00020694
v 0.04356842 -0.02832756 0.01676595
v 0.04690587 -0.02776384 0.01741490
v 0.03954984 -0.02774700 0.00000470
v 0.04787561 -0.02530977 0.01981540
v 0.04781765 -0.02844186 0.01573772
v 0.01745802 -0.02064877 0.00008402
v 0.04099832 -0.02805684 0.01451012
v 0.00166913 -0.01193218 0.02844697
v 0.04993370 -0.00250599 0.02050000
v 0.00263002 -0.01503754 0.02837683
v 0.02290290 -0.02151494 0.00007668
v 0.00183096 -0.00320597 0.02843357
v 0.04511765 -0.02477084 0.02041016
v 0.04898141 -0.02834295 0.00498486
v 0.04639024 -0.02784229 0.01734110
v 0.04984208 -0.02521822 0.01968158
v 0.04704528 -0.02847780 0.00043044
v 0.04994999 -0.02483028 0.02005162
v 0.04869267 -0.02837152 0.01637537
v 0.04786326 -0.02843547 0.00034210
v 0.00341956 -0.00201974 0.02829369
v 0.04361160 -0.02839580 0.01626755
v 0.00356189 -0.00158388 0.02827352
v 0.04990032 -0.02822153 0.01338708
v 0.01974348 -0.00006041 0.02254363
v 0.04518790 -0.02848823 0.00537495
v 0.00209202 -0.01645282 0.02841826
v 0.00417688 -0.01538612 0.02818767
v 0.04766423 -0.02844947 0.01636294
v 0.04772086 -0.02586447 0.01927728
v 0.04896206 -0.02834550 0.01176860
v 0.04628144 -0.02816669 0.01701795
v 0.00003292 -0.02050000 0.00765078
v 0.04903135 -0.02833635 0.00178045
v 0.00146154 -0.01453263 0.02846184
v 0.00053032 -0.00089329 0.02848886
v 0.04513362 -0.02848637 0.00391020
v 0.04519252 -0.02848714 0.01534879
v 0.00486781 -0.01597333 0.02807971
v 0.00141717 -0.01635893 0.02846428
v 0.00442580 -0.00205978 0.02815342
v 0.04139266 -0.02812325 0.00054467
v 0.00325511 -0.01632132 0.02831285
v 0.04597683 -0.02655767 0.01862431
v 0.00022181 -0.00214361 0.02848759
v 0.04090611 -0.02803998 0.01662200
v 0.00266767 -0.00058003 0.02837425
v 0.04665615 -0.02848620 0.00031332
v 0.00008210 -0.00605147 0.02848702
v 0.04475143 -0.02825949 0.01690240
v 0.00078510 -0.00162879 0.02848908
v 0.00183104 -0.00089293 0.02843291
v 0.00057514 -0.02050000 0.00051487
v 0.04155641 -0.02815123 0.00412826
v 0.04522291 -0.02811096 0.01707800
v 0.04752007 -0.02845660 0.01629859
v 0.00334981 -0.01111313 0.02830216
v 0.00128868 -0.00420099 0.02846999
v 0.00010246 -0.02050000 0.02012948
v 0.00031115 -0.00082305 0.02848796
v 0.00482668 -0.01671460 0.02807218
v 0.00002548 -0.02050000 0.01441109
v 0.00066262 -0.01689875 0.02828996
v 0.04892795 -0.02834897 0.01004856
v 0.00148188 -0.01676576 0.02839509
v 0.04897076 -0.02834435 0.01291077
v 0.00131702 -0.00106807 0.02846782
v 0.04914009 -0.00002737 0.02050000
v 0.04741277 -0.02626751 0.01889192
v 0.04999280 -0.00549857 0.02050000
v 0.04212553 -0.02823507 0.01109611
v 0.04150821 -0.02814342 0.00734633
v 0.04194402 -0.02820880 0.01185351
v 0.00258744 -0.00586280 0.02838146
v 0.04194860 -0.02820948 0.00937693
v 0.00010746 -0.00437721 0.02848712
v 0.04771358 -0.02571614 0.01942574
v 0.00014797 -0.02050000 0.00243685
v 0.04523933 -0.02848980 0.00583788
v 0.04142467 -0.02812932 0.01613844
v 0.00136653 -0.01023546 0.02846661
v 0.04391191 -0.02832647 0.01678689
v 0.04793015 -0.02463430 0.02047486
v 0.04085486 -0.02803074 0.00009412
v 0.00143739 -0.01365560 0.02846323
v 0.04994919 -0.02763788 0.01727152
v 0.00066513 -0.01409241 0.02848940
v 0.04962586 -0.02420036 0.02050000
v 0.04757866 -0.02845383 0.00116437
v 0.04893441 -0.02834838 0.01540673
v 0.04697333 -0.02848327 0.01363514
v 0.04254635 -0.02828941 0.00193531
v 0.04967801 -0.02454924 0.02035957
v 0.04746470 -0.02508720 0.02006669
v 0.04298615 -0.02833756 0.01590563
v 0.00083416 -0.00636245 0.02848753
v 0.04995298 -0.02821488 0.00261289
v 0.00003121 -0.02050000 0.01622624
v 0.02279716 -0.00006395 0.02158072
v 0.00031885 -0.01680927 0.02837839
v 0.04779443 -0.02844276 0.01021143
v 0.00040795 -0.00032820 0.02848836
v 0.00236274 -0.01577818 0.02839917
v 0.00005514 -0.01963691 0.02553625
v 0.04884042 -0.02818413 0.01687203
v 0.00091715 -0.00254064 0.02848458
v 0.04993015 -0.02821829 0.00028191
v 0.04975099 -0.02824126 0.01502479
v 0.04222241 -0.02824750 0.01513507
v 0.04688247 -0.02848544 0.00413305
v 0.00352908 -0.01653892 0.02827679
v 0.04336033 -0.02837710 0.00257874
v 0.04797053 -0.02785784 0.01726993
v 0.04982174 -0.02310355 0.02050000
v 0.04555585 -0.02578565 0.01939620
v 0.04908243 -0.02832960 0.01662140
v 0.00257999 -0.01379421 0.02838207
v 0.00176931 -0.01654193 0.02844088
v 0.00081328 -0.01212140 0.02848808
v 0.04693197 -0.02848351 0.00111756
v 0.04888533 -0.02835306 0.00202941
v 0.00141123 -0.01415892 0.02846464
v 0.04223308 -0.02824941 0.00335855
v 0.04261310 -0.02829726 0.01598364
v 0.04185532 -0.02819548 0.00007132
v 0.04499487 -0.02847772 0.00121591
v 0.04138654 -0.02812287 0.01631061
v 0.00136078 -0.00751126 0.02846668
v 0.00052139 -0.02050000 0.00053368
v 0.00079513 -0.01484021 0.02848863
v 0.04872441 -0.02836860 0.00061737
v 0.00080146 -0.00743595 0.02848857
v 0.00449356 -0.00058856 0.02814311
v 0.00029236 -0.01685618 0.02833122
v 0.04716494 -0.02747715 0.01769584
v 0.00446582 -0.00537580 0.02814792
v 0.04697625 -0.02848125 0.00062538
v 0.04771366 -0.02718525 0.01796026
v 0.04723778 -0.02846827 0.00039204
v 0.00482113 -0.00048284 0.02808593
v 0.04910175 -0.02832705 0.00032381
v 0.04379106 -0.00000403 0.02050000
v 0.00077279 -0.00751910 0.02848947
v 0.04648525 -0.02471421 0.02044939
v 0.04435537 -0.02843884 0.01657946
v 0.02611172 -0.00014368 0.02090578
v 0.04118153 -0.02808812 0.01632030
v 0.04516968 -0.02848765 0.00639763
v 0.04872115 -0.02836956 0.01077636
v 0.04536721 -0.02848928 0.00075757
v 0.01112066 -0.00006165 0.02623028
v 0.04152165 -0.02814577 0.01100826
v 0.00002493 -0.01566945 0.02848677
v 0.00335126 -0.01012968 0.02830199
v 0.02507067 -0.00014101 0.02107882
v 0.04339396 -0.02831909 0.01675992
v 0.00443602 -0.01145013 0.02815202
v 0.00183572 -0.00198796 0.02843290
v 0.04938150 -0.02696548 0.01801158
v 0.04918598 -0.02722620 0.01777750
v 0.04219821 -0.02824485 0.00431733
v 0.04524995 -0.02848975 0.01388406
v 0.00988064 -0.02050000 0.00005021
v 0.04733408 -0.02813170 0.01703361
v 0.04734451 -0.02615458 0.01900794
v 0.02919656 -0.00000324 0.02060335
v 0.04758311 -0.02593847 0.01921218
v 0.04517563 -0.02688283 0.01830332
v 0.00446028 -0.00701262 0.02814868
v 0.00254379 -0.00952114 0.02838525
v 0.00100408 -0.00082600 0.02848129
v 0.04867336 -0.02837405 0.00557203
v 0.00467114 -0.00050088 0.02811212
v 0.04320359 -0.02835975 0.00018197
v 0.00034062 -0.02050000 0.02405660
v 0.00249785 -0.00150405 0.02838686
v 0.04884219 -0.02781292 0.01723846
v 0.00239757 -0.01476421 0.02839653
v 0.04519854 -0.02848857 0.01126640
v 0.00004006 -0.02050000 0.01771481
v 0.01562495 -0.02054739 0.00010805
v 0.04081688 -0.02802419 0.00142722
v 0.04997171 -0.02133186 0.02050000
v 0.04165267 -0.02816553 0.01541176
v 0.04769955 -0.02844856 0.00413065
v 0.04629723 -0.02467330 0.02049236
v 0.00020298 -0.02050000 0.00071573
v 0.00328562 -0.00026137 0.02830716
v 0.04692950 -0.02848454 0.00742631
v 0.04713617 -0.02714070 0.01803101
v 0.00053595 -0.01700171 0.02818617
v 0.04221231 -0.02824671 0.00449059
v 0.00083866 -0.00082883 0.02848739
v 0.04682630 -0.02848575 0.00267116
v 0.04665435 -0.02848399 0.01657671
v 0.00063223 -0.01664529 0.02848926
v 0.04191260 -0.02820413 0.01619670
v 0.04335335 -0.02837610 0.00040813
v 0.04983671 -0.00098205 0.02050000
v 0.04824924 -0.02760666 0.01749799
v 0.04215292 -0.02823814 0.00160066
v 0.03045247 -0.02425429 0.00001983
v 0.04260443 -0.02829661 0.00620277
v 0.04795446 -0.02556074 0.01955909
v 0.04753707 -0.02844655 0.01670905
v 0.00257037 -0.01222312 0.02838341
v 0.00155162 -0.01544520 0.02845590
v 0.04281489 -0.02831970 0.01416223
v 0.04187863 -0.02819909 0.00412948
v 0.00258692 -0.00606880 0.02838154
v 0.04697606 -0.02848267 0.01652731
v 0.00675909 -0.02050000 0.00006383
v 0.04159874 -0.02815752 0.01207584
v 0.00305025 -0.01628242 0.02833388
v 0.04717691 -0.02847346 0.01548375
v 0.04183957 -0.02819328 0.00210562
v 0.00031324 -0.02050000 0.02379514
v 0.04581820 -0.02615716 0.01902438
v 0.04157550 -0.02815407 0.00028714
v 0.04231973 -0.02826057 0.00092596
v 0.04843661 -0.02712366 0.01796301
v 0.00179171 -0.00663868 0.02843721
v 0.00063927 -0.00302114 0.02848930
v 0.00231502 -0.00113928 0.02839959
v 0.04218989 -0.02824371 0.00758287
v 0.04769055 -0.02844907 0.00320009
v 0.00450495 -0.01419535 0.02814112
v 0.04777842 -0.02844277 0.00300438
v 0.00073534 -0.00815107 0.02848969
f 104 261 217
f 222 102 185
f 185 136 222
f 141 102 233
f 221 136 163
f 104 217 131
f 200 185 176
f 176 185 102
f 176 20 200
f 45 102 141
f 45 40 102
f 141 236 45
f 136 185 59
f 59 185 200
f 118 221 163
f 168 134 187
f 187 138 168
f 31 80 190
f 120 131 217
f 9 141 104
f 104 131 9
f 174 102 222
f 174 233 102
f 43 167 104
f 233 167 43
f 104 141 43
f 141 233 43
f 163 136 87
f 136 59 87
f 197 176 102
f 20 176 197
f 40 45 197
f 197 45 236
f 187 134 230
f 136 221 94
f 35 190 179
f 31 190 35
f 209 80 31
f 31 251 209
f 209 251 80
f 52 120 217
f 141 175 11
f 120 15 142
f 222 167 207
f 207 174 222
f 207 167 233
f 233 174 207
f 180 189 200
f 200 87 180
f 180 87 189
f 37 118 163
f 163 87 37
f 37 197 236
f 37 236 141
f 141 13 37
f 133 87 59
f 133 59 200
f 189 87 133
f 200 189 133
f 102 40 5
f 40 197 5
f 227 205 136
f 101 205 92
f 221 110 79
f 79 94 221
f 12 229 179
f 187 83 67
f 67 96 187
f 67 83 110
f 60 71 113
f 182 71 60
f 56 71 179
f 148 52 217
f 139 15 193
f 58 9 131
f 131 120 58
f 120 142 58
f 141 9 58
f 58 142 141
f 141 142 150
f 150 53 124
f 150 142 15
f 150 15 139
f 14 53 150
f 197 37 246
f 200 20 246
f 20 197 246
f 215 197 102
f 102 5 215
f 215 5 197
f 86 205 101
f 21 167 222
f 222 57 21
f 21 57 167
f 122 148 95
f 127 52 122
f 52 148 122
f 2 122 95
f 91 188 77
f 73 217 261
f 73 148 217
f 95 148 73
f 55 57 222
f 167 57 55
f 55 188 91
f 170 261 104
f 104 167 170
f 205 227 140
f 101 92 162
f 179 71 213
f 213 12 179
f 213 71 182
f 213 60 113
f 182 60 213
f 118 18 216
f 216 67 118
f 96 67 216
f 80 41 181
f 80 251 7
f 7 93 80
f 138 93 7
f 31 138 7
f 7 251 31
f 80 93 214
f 214 93 138
f 112 110 221
f 112 67 110
f 221 118 112
f 118 67 112
f 33 11 54
f 33 13 141
f 141 11 33
f 134 168 225
f 225 97 134
f 225 168 138
f 138 97 225
f 89 138 31
f 89 97 138
f 116 35 179
f 31 35 116
f 76 18 118
f 118 253 76
f 88 76 253
f 71 56 160
f 124 53 183
f 165 11 175
f 175 155 165
f 38 117 128
f 99 230 134
f 134 220 99
f 99 220 117
f 99 2 230
f 117 2 99
f 120 52 50
f 239 150 139
f 139 147 239
f 14 150 239
f 179 229 239
f 239 116 179
f 200 246 29
f 29 87 200
f 29 246 37
f 29 37 87
f 212 240 204
f 240 244 204
f 81 244 240
f 188 55 81
f 81 55 222
f 81 77 188
f 205 86 81
f 222 136 81
f 136 205 81
f 27 81 86
f 4 2 117
f 127 122 4
f 122 2 4
f 145 2 95
f 95 73 145
f 145 55 91
f 91 77 145
f 61 145 77
f 167 55 75
f 75 170 167
f 55 170 75
f 80 181 161
f 132 96 80
f 80 214 132
f 132 214 138
f 132 138 187
f 187 96 132
f 208 232 13
f 229 144 125
f 18 76 24
f 24 76 41
f 80 96 24
f 24 41 80
f 96 216 24
f 24 216 18
f 76 88 106
f 106 181 41
f 41 76 106
f 232 160 3
f 3 160 56
f 232 208 34
f 13 33 34
f 34 208 13
f 237 22 158
f 231 161 114
f 159 253 118
f 118 37 159
f 159 37 13
f 254 159 13
f 235 159 254
f 14 11 206
f 11 165 206
f 155 183 206
f 206 165 155
f 124 183 98
f 98 183 155
f 68 155 175
f 68 48 155
f 68 175 141
f 141 48 68
f 100 150 124
f 141 150 100
f 111 38 128
f 128 201 111
f 128 117 178
f 117 220 178
f 134 97 47
f 47 220 134
f 84 239 89
f 116 239 84
f 84 89 31
f 31 116 84
f 108 81 210
f 244 81 108
f 210 81 258
f 81 27 258
f 62 73 261
f 62 145 73
f 55 145 62
f 248 81 240
f 77 81 248
f 248 61 77
f 61 248 137
f 137 240 212
f 137 151 240
f 16 230 74
f 74 241 69
f 261 170 203
f 203 191 261
f 203 170 55
f 55 191 203
f 257 263 85
f 164 230 16
f 115 162 92
f 115 156 162
f 162 156 119
f 156 74 119
f 119 74 69
f 196 213 113
f 144 32 196
f 26 144 229
f 26 32 144
f 229 12 26
f 82 33 54
f 82 196 113
f 223 125 144
f 229 125 245
f 245 239 229
f 90 63 245
f 245 63 14
f 14 239 245
f 17 36 66
f 66 239 17
f 89 239 66
f 232 3 146
f 146 237 232
f 22 237 146
f 129 56 158
f 129 3 56
f 129 146 3
f 184 34 33
f 33 82 184
f 71 160 184
f 184 82 113
f 113 71 184
f 13 232 126
f 232 237 126
f 114 161 186
f 186 106 88
f 186 161 181
f 181 106 186
f 28 183 53
f 28 206 183
f 28 53 14
f 14 206 28
f 124 98 25
f 155 48 25
f 25 98 155
f 25 48 141
f 234 147 139
f 255 234 139
f 111 234 255
f 172 111 201
f 172 239 147
f 97 89 202
f 202 47 97
f 193 50 194
f 139 193 194
f 194 211 139
f 46 256 27
f 27 256 42
f 42 256 69
f 69 241 42
f 6 62 261
f 261 191 6
f 55 62 6
f 6 191 55
f 151 137 44
f 44 137 248
f 240 151 44
f 44 248 240
f 241 74 152
f 152 74 230
f 230 2 152
f 2 145 152
f 145 61 152
f 70 257 85
f 70 227 136
f 70 85 227
f 230 164 121
f 121 164 263
f 85 263 177
f 263 164 177
f 72 196 32
f 72 26 12
f 32 26 72
f 12 213 72
f 213 196 72
f 154 82 171
f 154 223 144
f 173 82 54
f 90 245 249
f 249 245 125
f 199 201 128
f 198 36 17
f 198 169 36
f 158 22 242
f 242 129 158
f 22 146 242
f 146 129 242
f 19 184 160
f 34 184 19
f 19 160 232
f 232 34 19
f 218 231 114
f 114 186 218
f 231 143 30
f 158 56 30
f 179 190 30
f 30 56 179
f 30 190 80
f 80 161 30
f 161 231 30
f 259 143 105
f 105 143 231
f 105 195 259
f 105 109 10
f 253 159 250
f 157 195 235
f 235 254 157
f 65 100 124
f 124 25 65
f 141 100 65
f 65 25 141
f 38 111 238
f 111 255 238
f 238 255 139
f 139 211 238
f 64 172 147
f 111 172 64
f 8 50 52
f 8 194 50
f 192 27 86
f 192 46 27
f 130 153 140
f 130 140 227
f 164 153 130
f 228 154 144
f 82 154 228
f 144 196 228
f 196 82 228
f 171 82 51
f 82 173 51
f 36 169 224
f 169 199 224
f 201 199 103
f 103 199 169
f 252 78 36
f 47 78 252
f 49 66 36
f 36 78 49
f 47 202 149
f 149 78 47
f 247 186 88
f 247 218 186
f 107 105 231
f 109 105 107
f 243 159 10
f 243 250 159
f 10 109 243
f 259 195 226
f 195 157 226
f 166 177 164
f 164 130 166
f 90 249 260
f 260 249 125
f 123 51 173
f 123 173 54
f 171 51 123
f 262 260 54
f 54 11 262
f 54 260 1
f 1 123 54
f 223 154 1
f 1 154 171
f 171 123 1
f 125 223 1
f 1 260 125
f 39 11 14
f 14 63 39
f 23 39 63
f 23 63 90
f 135 262 11
f 11 39 135
f 260 262 135
f 39 23 219
f 260 135 219
f 219 135 39
f 90 260 219
f 219 23 90
f 50 15 120
f 50 193 15
f 210 258 152
f 152 108 210
f 212 204 152
f 152 204 244
f 152 137 212
f 152 42 241
f 244 108 152
f 152 258 27
f 61 137 152
f 27 42 152
f 121 83 187
f 187 230 121
f 121 79 110
f 110 83 121
f 136 94 121
f 94 79 121
f 121 70 136
f 263 257 121
f 257 70 121
f 16 74 153
f 153 92 205
f 153 74 156
f 205 140 153
f 153 164 16
f 153 115 92
f 156 115 153
f 105 159 235
f 10 159 105
f 235 195 105
f 64 234 111
f 147 234 64
f 127 4 8
f 8 52 127
f 117 38 8
f 8 4 117
f 38 238 8
f 211 194 8
f 8 238 211
f 101 162 192
f 192 86 101
f 69 256 192
f 192 119 69
f 162 119 192
f 256 46 192
f 239 172 103
f 17 239 103
f 103 198 17
f 103 172 201
f 169 198 103
f 128 178 252
f 220 47 252
f 252 178 220
f 36 224 252
f 252 199 128
f 252 224 199
f 149 202 89
f 89 66 149
f 66 49 149
f 149 49 78
f 243 88 253
f 253 250 243
f 243 107 231
f 243 247 88
f 218 247 243
f 231 218 243
f 109 107 243
f 13 126 226
f 226 254 13
f 226 237 158
f 158 30 226
f 226 126 237
f 226 143 259
f 226 30 143
f 226 157 254
f 85 177 166
f 227 85 166
f 166 130 227

