# https://github.com/mikedh/trimesh
v 0.09548883 -0.02164488 -0.01500008
v 0.07502764 -0.01205246 -0.00144282
v 0.07545195 -0.01923425 -0.00144012
v 0.07528117 -0.00183401 -0.01500006
v 0.09981698 -0.02002117 -0.01500006
v 0.08079341 -0.00844435 -0.00044871
v 0.07656328 -0.02205523 -0.00366208
v 0.09960393 -0.01576211 -0.00876586
v 0.09961188 -0.02063217 -0.01058196
v 0.07607900 -0.02432962 -0.00550314
v 0.09947907 -0.01661780 -0.00892408
v 0.09046027 -0.02450152 -0.01500008
v 0.07767288 -0.02484918 -0.01500007
v 0.09921896 -0.01027891 -0.00760088
v 0.09977194 -0.02112350 -0.01439189
v 0.09967881 -0.00248378 -0.00724131
v 0.09875724 -0.01874884 -0.00942297
v 0.09991315 -0.01786546 -0.01327099
v 0.09924375 -0.00089397 -0.01500006
v 0.08214080 -0.00004769 -0.00064042
v 0.09998289 -0.00136859 -0.00992388
v 0.09965126 -0.01883380 -0.01500007
v 0.07600573 -0.02373316 -0.01500006
v 0.07526966 -0.00234085 -0.01500006
v 0.09959940 -0.02482598 -0.01305128
v 0.09025408 -0.02497258 -0.01500006
v 0.07590980 -0.01833261 -0.00104649
v 0.09832694 -0.02148395 -0.01500006
v 0.07520628 -0.02235790 -0.01500006
v 0.09899878 -0.02497585 -0.01300203
v 0.09986826 -0.00012428 -0.00725266
v 0.07508423 -0.02373879 -0.00454701
v 0.07615808 -0.01568594 -0.00008837
v 0.09991949 -0.00342418 -0.01500006
v 0.07628753 -0.02331038 -0.00454984
v 0.09989164 -0.00157588 -0.01500006
v 0.07566534 -0.00028307 -0.01500006
v 0.08053264 -0.00648961 -0.00014930
v 0.09993671 -0.00867928 -0.01024879
v 0.09980783 -0.01985011 -0.01026394
v 0.07538282 -0.02474216 -0.01447162
v 0.07738471 -0.01435225 -0.00020820
v 0.07921636 -0.01074885 -0.00012066
v 0.09974872 -0.01385065 -0.00837763
v 0.07504397 -0.02065884 -0.00549478
v 0.07950961 -0.02495918 -0.01500007
v 0.07610233 -0.02464845 -0.00588534
v 0.09938771 -0.02146645 -0.01463081
v 0.09643583 -0.02267098 -0.01500005
v 0.09991883 -0.00114194 -0.00730192
v 0.08077174 -0.00052179 -0.00007957
v 0.07525237 -0.01999323 -0.00183835
v 0.09338893 -0.02378798 -0.01500008
v 0.09905299 -0.01688553 -0.00886269
v 0.07513341 -0.00545149 -0.00054419
v 0.07501930 -0.00014129 -0.00031864
v 0.08058797 -0.00220775 -0.00000435
v 0.07632897 -0.02491248 -0.00626083
v 0.07503358 -0.01456924 -0.01500006
v 0.08212714 -0.02496798 -0.01500007
v 0.07560900 -0.00036384 -0.01500006
v 0.07603382 -0.01624992 -0.00022710
v 0.09911894 -0.01251894 -0.00789327
v 0.09862545 -0.00860610 -0.00718333
v 0.09985345 -0.01706048 -0.01500006
v 0.08089583 -0.00425503 -0.00015339
v 0.09653960 -0.02151714 -0.01500008
v 0.09727081 -0.02232711 -0.01494508
v 0.07539103 -0.00012567 -0.00048057
v 0.07616359 -0.01566347 -0.00008475
v 0.09965868 -0.00670667 -0.00738855
v 0.09977655 -0.02181400 -0.01125171
v 0.09700356 -0.00032156 -0.01500006
v 0.09897855 -0.02354408 -0.01204235
v 0.07505159 -0.00950026 -0.00094479
v 0.07541327 -0.00096112 -0.01500006
v 0.09864259 -0.00014294 -0.00947539
v 0.09817499 -0.01809733 -0.00897533
v 0.09457584 -0.00012464 -0.01500006
v 0.07693770 -0.02497064 -0.01500007
v 0.09564451 -0.02330546 -0.01488494
v 0.09305338 -0.02405284 -0.01500005
v 0.08080408 -0.00341278 -0.00009527
f 30 32 10
f 10 58 30
f 41 58 32
f 56 75 55
f 55 62 56
f 75 62 55
f 65 5 22
f 69 37 56
f 32 58 47
f 47 10 32
f 58 10 47
f 32 45 59
f 7 52 32
f 32 52 2
f 2 52 75
f 2 45 32
f 2 75 56
f 56 59 2
f 2 59 45
f 53 19 1
f 36 22 19
f 25 48 5
f 52 7 25
f 25 32 30
f 30 26 25
f 25 49 68
f 81 49 25
f 21 50 39
f 39 50 40
f 18 5 65
f 18 39 40
f 21 39 18
f 73 79 77
f 73 19 53
f 37 79 73
f 53 37 73
f 56 57 51
f 56 51 20
f 20 69 56
f 37 69 20
f 20 79 37
f 53 26 12
f 12 26 60
f 29 41 32
f 32 59 29
f 17 40 11
f 68 49 28
f 5 48 28
f 28 49 53
f 28 25 68
f 48 25 28
f 82 49 81
f 82 25 26
f 81 25 82
f 82 26 53
f 53 49 82
f 19 22 67
f 67 1 19
f 53 1 67
f 67 28 53
f 67 22 5
f 5 28 67
f 35 7 32
f 32 25 35
f 35 25 7
f 31 50 21
f 21 36 31
f 31 36 19
f 31 51 57
f 31 73 77
f 19 73 31
f 31 20 51
f 77 79 31
f 79 20 31
f 15 25 5
f 72 18 40
f 25 15 72
f 5 18 72
f 72 15 5
f 34 18 65
f 65 22 34
f 22 36 34
f 34 36 21
f 21 18 34
f 70 43 57
f 70 57 56
f 61 37 53
f 56 37 61
f 61 76 56
f 56 76 4
f 80 29 59
f 58 41 80
f 30 58 80
f 80 26 30
f 60 26 80
f 14 43 63
f 62 17 78
f 40 50 44
f 14 63 44
f 44 63 43
f 27 17 62
f 27 40 17
f 50 31 16
f 64 43 14
f 57 43 38
f 9 72 40
f 40 27 9
f 9 27 72
f 52 25 74
f 25 72 74
f 62 11 33
f 11 70 33
f 56 62 33
f 33 70 56
f 24 59 56
f 56 4 24
f 24 80 59
f 4 80 24
f 46 12 60
f 60 80 46
f 53 12 46
f 46 61 53
f 41 29 23
f 23 80 41
f 29 80 23
f 17 11 54
f 54 78 17
f 54 11 62
f 62 78 54
f 8 11 40
f 40 44 8
f 14 44 71
f 71 44 50
f 50 16 71
f 71 64 14
f 71 38 64
f 72 27 3
f 52 74 3
f 3 74 72
f 3 27 62
f 3 62 75
f 75 52 3
f 43 64 6
f 6 38 43
f 64 38 6
f 76 61 13
f 61 46 13
f 13 46 80
f 13 4 76
f 13 80 4
f 38 71 66
f 66 71 16
f 42 8 44
f 42 44 43
f 42 70 11
f 11 8 42
f 43 70 42
f 57 38 83
f 38 66 83
f 83 31 57
f 83 16 31
f 83 66 16

