# https://github.com/mikedh/trimesh
v 0.02500400 -0.02441475 -0.03378607
v 0.03831273 -0.00356104 -0.02851217
v 0.04766366 -0.00028079 -0.02851219
v 0.04588399 -0.00012210 -0.02852920
v 0.04413091 -0.00651710 -0.03539912
v 0.04959468 -0.01994695 -0.02851218
v 0.02511515 -0.00274323 -0.02853013
v 0.04997676 -0.02269037 -0.02851219
v 0.04078349 -0.02494149 -0.03378608
v 0.04981030 -0.00467367 -0.02852898
v 0.04197482 -0.00055459 -0.02851218
v 0.03867352 -0.01504118 -0.02851217
v 0.04953351 -0.02390373 -0.03539882
v 0.04402611 -0.00397668 -0.03539913
v 0.04988136 -0.00196676 -0.03539886
v 0.02521644 -0.01145761 -0.02851216
v 0.02502425 -0.01341792 -0.02853014
v 0.03000148 -0.00004158 -0.02851218
v 0.04972251 -0.00256476 -0.02851219
v 0.04013338 -0.00013594 -0.02851218
v 0.04891118 -0.00295809 -0.03539891
v 0.03333268 -0.00003401 -0.03378608
v 0.04003855 -0.00578249 -0.02851217
v 0.04858757 -0.02495732 -0.02851218
v 0.03964445 -0.00837019 -0.02851217
v 0.02520022 -0.02486933 -0.03378607
v 0.04829220 -0.00812044 -0.03539893
v 0.04014292 -0.02493899 -0.02851217
v 0.03711609 -0.02423333 -0.02851216
v 0.04682214 -0.00020797 -0.02851219
v 0.04722137 -0.02480208 -0.02851218
v 0.02903269 -0.00015618 -0.02851218
v 0.04388770 -0.02299400 -0.03539908
v 0.02631955 -0.02492756 -0.02851216
v 0.02533767 -0.02048233 -0.02851216
v 0.04994633 -0.02180625 -0.03539881
v 0.03845618 -0.00112099 -0.02851218
v 0.02501967 -0.01035957 -0.03378607
v 0.04811534 -0.01006397 -0.03539893
v 0.04047523 -0.00323777 -0.02851218
v 0.03734175 -0.02332760 -0.02851217
v 0.04944623 -0.00099183 -0.03539889
v 0.02559300 -0.00123194 -0.03378607
v 0.02722882 -0.00090702 -0.02851217
v 0.04406198 -0.00659731 -0.03539912
v 0.04815384 -0.02449635 -0.03539888
v 0.04869033 -0.00068160 -0.03539893
v 0.04580633 -0.02393643 -0.03539900
v 0.02500838 -0.02236424 -0.02853015
v 0.02543218 -0.02291669 -0.02851216
v 0.04409105 -0.01874756 -0.03539909
v 0.04680095 -0.02227500 -0.03539896
v 0.02797942 -0.00013020 -0.03378607
v 0.02762802 -0.02474203 -0.02851216
v 0.04986505 -0.01526254 -0.02851219
v 0.04961743 -0.00064560 -0.02852887
v 0.03849074 -0.00130887 -0.02851218
v 0.03650109 -0.02420512 -0.02851216
v 0.04395065 -0.00372472 -0.03539914
v 0.04384589 -0.01111945 -0.03539912
v 0.04988670 -0.01937683 -0.02851218
v 0.03877088 -0.00052668 -0.02851218
v 0.03986164 -0.00002659 -0.02852947
v 0.04748440 -0.02464335 -0.02851218
v 0.03028156 -0.00003311 -0.03378608
v 0.04375275 -0.00013961 -0.03534160
v 0.04438174 -0.01255212 -0.03539909
v 0.03301032 -0.00004590 -0.02851218
v 0.02513908 -0.00000644 -0.02853012
v 0.04962544 -0.01896306 -0.02851218
v 0.04986435 -0.01510902 -0.02851219
v 0.02524573 -0.01773041 -0.02851216
v 0.02592241 -0.02497411 -0.03378607
v 0.04490220 -0.02261643 -0.03539904
v 0.02508318 -0.00345907 -0.03378607
v 0.04489549 -0.00006358 -0.03539910
v 0.04433270 -0.00027213 -0.03539913
v 0.04901566 -0.02458514 -0.03539884
v 0.02537945 -0.02340068 -0.02853013
v 0.04983929 -0.02420681 -0.02851219
v 0.02535370 -0.00359742 -0.02851217
v 0.04919147 -0.00157325 -0.02851219
v 0.03662272 -0.02308641 -0.02851216
v 0.04998880 -0.00999037 -0.02852886
f 69 43 75
f 56 19 15
f 60 33 1
f 60 75 59
f 79 49 1
f 9 73 78
f 69 81 44
f 10 19 84
f 84 15 10
f 10 15 19
f 74 48 33
f 36 15 84
f 78 73 46
f 46 48 78
f 33 48 26
f 1 33 26
f 26 46 73
f 48 46 26
f 26 73 34
f 26 79 1
f 34 79 26
f 38 60 1
f 75 60 38
f 1 49 38
f 49 17 38
f 69 75 38
f 16 81 69
f 16 17 49
f 62 44 81
f 59 75 77
f 77 75 43
f 53 43 69
f 78 48 13
f 48 36 13
f 13 80 78
f 13 36 80
f 7 16 69
f 17 16 7
f 69 38 7
f 7 38 17
f 69 44 32
f 44 62 32
f 3 47 76
f 56 47 3
f 65 53 69
f 76 53 65
f 76 77 66
f 66 53 76
f 66 77 43
f 43 53 66
f 51 67 74
f 51 74 33
f 59 77 14
f 15 36 42
f 56 15 42
f 42 47 56
f 52 36 48
f 69 32 18
f 18 63 69
f 81 16 54
f 54 58 81
f 69 63 22
f 22 65 69
f 22 63 76
f 76 65 22
f 59 67 45
f 67 51 45
f 5 67 59
f 59 14 5
f 21 42 36
f 47 42 21
f 63 18 68
f 68 30 63
f 37 62 81
f 81 57 37
f 81 58 83
f 34 54 50
f 50 79 34
f 49 79 50
f 78 80 24
f 34 73 24
f 73 9 24
f 24 9 78
f 76 63 4
f 63 30 4
f 4 3 76
f 4 30 3
f 20 32 62
f 20 18 32
f 3 30 20
f 20 68 18
f 30 68 20
f 62 37 20
f 47 21 27
f 27 21 36
f 82 37 57
f 82 19 56
f 56 3 82
f 72 54 16
f 72 16 49
f 28 54 34
f 34 24 28
f 61 55 70
f 31 28 24
f 36 52 39
f 39 27 36
f 11 20 37
f 37 82 11
f 3 20 11
f 11 82 3
f 40 23 19
f 57 23 40
f 19 82 40
f 40 82 57
f 35 50 54
f 54 72 35
f 49 50 35
f 35 72 49
f 8 36 84
f 80 36 8
f 84 19 8
f 19 71 8
f 55 61 8
f 8 71 55
f 70 55 41
f 41 83 58
f 55 71 41
f 41 71 19
f 19 12 41
f 28 31 29
f 58 54 29
f 54 28 29
f 29 41 58
f 70 41 29
f 6 61 70
f 2 23 57
f 2 41 12
f 83 41 2
f 2 57 81
f 81 83 2
f 64 6 70
f 70 29 64
f 64 29 31
f 64 31 24
f 23 2 25
f 25 2 12
f 19 23 25
f 25 12 19
f 45 51 33
f 33 60 45
f 45 60 59
f 76 47 39
f 39 14 77
f 48 74 39
f 74 67 39
f 39 77 76
f 39 52 48
f 67 5 39
f 39 5 14
f 47 27 39
f 80 8 64
f 64 24 80
f 64 8 61
f 61 6 64

