# https://github.com/mikedh/trimesh
v 0.08606154 0.02676307 0.05328726
v 0.08022656 0.02570433 0.06086798
v 0.08056328 0.02687936 0.05387633
v 0.08639723 0.02779681 0.05525957
v 0.08522906 0.02744043 0.05407436
v 0.08122478 0.02508173 0.05105684
v 0.08289680 0.02819799 0.05623535
v 0.08434218 0.02621748 0.06247951
v 0.08390174 0.02606869 0.05197162
v 0.08490719 0.02585837 0.06280690
v 0.09138179 0.02532675 0.05734178
v 0.08015301 0.02677463 0.05959195
v 0.09015150 0.02674593 0.05825313
v 0.08603107 0.02544722 0.06314218
v 0.07981702 0.02738587 0.05748908
v 0.08242635 0.02734309 0.05401670
v 0.08577854 0.02567300 0.05194358
v 0.08340802 0.02509958 0.05094951
v 0.08877565 0.02727662 0.05650532
v 0.08891736 0.02651169 0.05496754
v 0.08200652 0.02741771 0.05427681
v 0.08695626 0.02703703 0.06209897
v 0.08118339 0.02517578 0.05115894
v 0.08122243 0.02601647 0.05219218
v 0.09106553 0.02595635 0.05892795
v 0.08725826 0.02763832 0.05552492
v 0.08806370 0.02542202 0.06308960
v 0.07880583 0.02654649 0.05453734
v 0.07675988 0.02535167 0.05393996
v 0.08309281 0.02610757 0.06213732
v 0.07868333 0.02688190 0.05695871
v 0.08689567 0.02581484 0.05255808
v 0.07799468 0.02631271 0.05489197
v 0.08590341 0.02605947 0.05238096
v 0.08931309 0.02725943 0.05963717
v 0.07959538 0.02713934 0.05810490
v 0.08417999 0.02848031 0.05821992
v 0.08411222 0.02752009 0.06111243
v 0.09118075 0.02582931 0.05846469
v 0.08360121 0.02833885 0.05890750
v 0.08196271 0.02815182 0.05750194
v 0.08818797 0.02616342 0.06273974
v 0.08795895 0.02504237 0.05256952
v 0.08127895 0.02736539 0.05456619
v 0.08778400 0.02707112 0.05478099
v 0.08667611 0.02801242 0.06026843
v 0.08692781 0.02539029 0.05219651
v 0.08863324 0.02646137 0.05459242
v 0.08921657 0.02609098 0.05469204
v 0.07707126 0.02571576 0.05739356
v 0.08334398 0.02541515 0.06264125
v 0.08419113 0.02741819 0.06128222
v 0.08970075 0.02637795 0.06152017
v 0.08635466 0.02691450 0.05361661
v 0.09003746 0.02629909 0.05624977
v 0.07760793 0.02565083 0.05840480
v 0.08145759 0.02618587 0.05235201
v 0.08881312 0.02727771 0.05657139
v 0.07774099 0.02548049 0.05325001
v 0.08736014 0.02805197 0.05727630
v 0.08328411 0.02597479 0.05185570
v 0.08571306 0.02811437 0.06021807
v 0.08757773 0.02805369 0.05874318
v 0.08501686 0.02808347 0.06029637
v 0.07978896 0.02683478 0.05912299
v 0.07886742 0.02581436 0.05963220
v 0.08288388 0.02826273 0.05861061
v 0.08474882 0.02689429 0.05310437
v 0.07714448 0.02541945 0.05815511
v 0.08239640 0.02764936 0.06001255
v 0.08490406 0.02725471 0.05368902
v 0.08932823 0.02649262 0.05551355
v 0.07966195 0.02567912 0.06048918
v 0.08938971 0.02709849 0.06032314
v 0.08991209 0.02596810 0.06174320
v 0.07792128 0.02648944 0.05622064
v 0.08369791 0.02517195 0.06285825
v 0.08562288 0.02649872 0.05279372
v 0.07899771 0.02560559 0.05252569
v 0.07972589 0.02736419 0.05735440
v 0.08540959 0.02764340 0.05449171
v 0.09056838 0.02556272 0.05592089
v 0.07848026 0.02678743 0.05668850
v 0.08679011 0.02647473 0.05324023
v 0.08108566 0.02770963 0.05861593
v 0.08738200 0.02753547 0.06122262
v 0.08014413 0.02639271 0.06009687
v 0.08509590 0.02521786 0.05134182
v 0.08563367 0.02835319 0.05930400
v 0.08458608 0.02802955 0.05526592
v 0.09149080 0.02544307 0.05846908
v 0.08690053 0.02773891 0.06093109
v 0.08037705 0.02553878 0.06111357
v 0.08504354 0.02626595 0.05236432
v 0.08281174 0.02684463 0.06139014
v 0.08768453 0.02799533 0.05917174
v 0.08197524 0.02697767 0.06075378
v 0.08558158 0.02801446 0.06049641
v 0.08591668 0.02842598 0.05822590
v 0.08251633 0.02826217 0.05804449
v 0.08595272 0.02810052 0.06021880
v 0.08374707 0.02639642 0.05237168
v 0.08119194 0.02708916 0.05396321
v 0.08168688 0.02808169 0.05732384
v 0.08999148 0.02598180 0.05559811
v 0.08857075 0.02752719 0.05700420
v 0.08812135 0.02535149 0.06309631
v 0.07876531 0.02676553 0.05537250
v 0.08095529 0.02645467 0.06068067
v 0.08185565 0.02623250 0.05233261
v 0.08508239 0.02712677 0.06186760
v 0.08575315 0.02844275 0.05828770
v 0.08419929 0.02778570 0.05463214
v 0.07730445 0.02525872 0.05320177
v 0.07758726 0.02575654 0.05818440
v 0.08190012 0.02737182 0.05421556
v 0.08491940 0.02645243 0.05255689
v 0.08702388 0.02570008 0.05250916
v 0.07962360 0.02725239 0.05583569
v 0.08813227 0.02545452 0.06306917
v 0.08016251 0.02697043 0.05435609
v 0.08673397 0.02590678 0.06296308
v 0.08213530 0.02648009 0.06138179
v 0.08866321 0.02763880 0.05868366
v 0.08406268 0.02726888 0.05361446
v 0.08708679 0.02811951 0.05713117
v 0.07972301 0.02707748 0.05504461
v 0.07935192 0.02574987 0.05255782
v 0.08945479 0.02651335 0.06161877
v 0.08046596 0.02515058 0.06145602
v 0.08280185 0.02805411 0.05567448
v 0.08810570 0.02760519 0.06052946
v 0.08274668 0.02652301 0.05258857
v 0.09096496 0.02517079 0.06086377
v 0.08868423 0.02658618 0.05484151
v 0.08419231 0.02809340 0.05544727
v 0.08875376 0.02732472 0.05660753
v 0.08547205 0.02509550 0.05134292
v 0.07824978 0.02546799 0.05940653
v 0.08308612 0.02606355 0.05195807
v 0.08763019 0.02803865 0.05877649
v 0.08708608 0.02819525 0.05793964
v 0.08575976 0.02665192 0.06243584
v 0.07868945 0.02567753 0.05282286
v 0.08244057 0.02679221 0.05299254
v 0.07913192 0.02555071 0.06017388
v 0.08925071 0.02671789 0.05583442
v 0.07907382 0.02617123 0.05940257
v 0.07700500 0.02531884 0.05811142
v 0.07911673 0.02705927 0.05602415
v 0.08365898 0.02692555 0.06165112
v 0.08646408 0.02645416 0.05305908
v 0.07766192 0.02582810 0.05815103
v 0.07841825 0.02507467 0.05210988
v 0.08855046 0.02753526 0.06015207
v 0.08096849 0.02706730 0.05405176
v 0.08159035 0.02674675 0.05318948
v 0.08354894 0.02539696 0.06271704
v 0.07650827 0.02533050 0.05721067
v 0.08154152 0.02612437 0.05225648
v 0.07916703 0.02648977 0.05403273
v 0.07991711 0.02732688 0.05567896
v 0.08850926 0.02694198 0.06180181
v 0.07784967 0.02629156 0.05736935
v 0.07799964 0.02519744 0.05945880
v 0.07879849 0.02694892 0.05660810
v 0.08276769 0.02776315 0.06005895
v 0.09133358 0.02563713 0.05907720
v 0.07918271 0.02627260 0.05358481
v 0.08038535 0.02699996 0.05947540
v 0.07920020 0.02579560 0.05997809
v 0.08800850 0.02642208 0.05396033
v 0.08308969 0.02805824 0.05956951
v 0.09038419 0.02555023 0.05559063
v 0.08342984 0.02726698 0.06119859
v 0.08642013 0.02829242 0.05912665
v 0.08906024 0.02729756 0.05717221
v 0.08173323 0.02703656 0.05364410
v 0.08012888 0.02689665 0.05421787
v 0.08960494 0.02604889 0.05513682
v 0.08166333 0.02506671 0.05098657
v 0.09120084 0.02560402 0.05745253
v 0.08381419 0.02845020 0.05732097
v 0.08568894 0.02815086 0.06011285
v 0.07905600 0.02665456 0.05456516
v 0.08303472 0.02789454 0.05507373
v 0.08579190 0.02674724 0.06235856
v 0.08664704 0.02709074 0.06204744
v 0.07570466 0.02501112 0.05481388
v 0.08284495 0.02799305 0.05957593
v 0.07905373 0.02658565 0.05867491
v 0.08885087 0.02742306 0.05719843
v 0.08366935 0.02754311 0.05412148
v 0.07920275 0.02568337 0.06010080
v 0.08033208 0.02505660 0.05125668
v 0.08488757 0.02505794 0.05115156
v 0.08638806 0.02770066 0.05502807
v 0.08378350 0.02845188 0.05818581
v 0.08901710 0.02583845 0.05416526
v 0.08340890 0.02790644 0.05500855
v 0.08807785 0.02752544 0.05614344
v 0.08858443 0.02731247 0.06090664
v 0.08894456 0.02726153 0.05675479
v 0.07910672 0.02707893 0.05619272
v 0.08182188 0.02530339 0.06211384
v 0.08634712 0.02712346 0.05392693
v 0.07798235 0.02587290 0.05851873
v 0.08815038 0.02748556 0.05611937
v 0.08796296 0.02720659 0.06161892
v 0.08240184 0.02814219 0.05633642
v 0.08919797 0.02628824 0.05496708
v 0.08630448 0.02837320 0.05807977
v 0.08513239 0.02659672 0.06235322
v 0.09061132 0.02607823 0.05707106
v 0.08297106 0.02771331 0.05461557
v 0.08097927 0.02656751 0.06057247
v 0.08485943 0.02840601 0.05679362
v 0.09071863 0.02535314 0.05587623
v 0.08622435 0.02733851 0.06172517
v 0.08244712 0.02591277 0.06201443
v 0.08382194 0.02508378 0.05098078
v 0.08394173 0.02543399 0.05130611
v 0.08278328 0.02785746 0.05505393
v 0.08555662 0.02799740 0.05537800
v 0.08839359 0.02607006 0.06273996
v 0.08503073 0.02615718 0.05224160
v 0.08568963 0.02835070 0.05680394
v 0.09032929 0.02662745 0.05849055
v 0.08631737 0.02777729 0.05515554
v 0.08203457 0.02777794 0.05524173
v 0.08507688 0.02734755 0.06160680
v 0.08160499 0.02722063 0.05401258
v 0.09013272 0.02641000 0.06081159
v 0.08300285 0.02527495 0.05111118
v 0.08680675 0.02826182 0.05804844
v 0.08114851 0.02685466 0.05352804
v 0.08322644 0.02770486 0.06041883
v 0.08892751 0.02748681 0.05800536
v 0.07914810 0.02586179 0.05985683
v 0.08691189 0.02658614 0.06254104
v 0.09034197 0.02648620 0.06005015
v 0.08391007 0.02722717 0.05354918
v 0.07968309 0.02732404 0.05746902
v 0.08549744 0.02686168 0.05322598
v 0.08788881 0.02778368 0.05675744
v 0.07729083 0.02551744 0.05821261
v 0.08836949 0.02740153 0.05618699
v 0.09029432 0.02557718 0.06158274
v 0.08209513 0.02738092 0.06028492
v 0.08441834 0.02799310 0.05515167
v 0.08297797 0.02792690 0.05981434
v 0.08570111 0.02840096 0.05719556
v 0.08311949 0.02736832 0.06089836
v 0.09077049 0.02620974 0.05949971
v 0.07653433 0.02561899 0.05607888
v 0.08221509 0.02820434 0.05794425
v 0.09132526 0.02556368 0.05781334
v 0.08786176 0.02715624 0.05502040
v 0.08895828 0.02727610 0.06048728
v 0.08848017 0.02593074 0.05376148
v 0.08900205 0.02601722 0.06249153
v 0.08900695 0.02680440 0.06162729
v 0.08751810 0.02763193 0.05576163
v 0.08892804 0.02603474 0.06252150
v 0.07926501 0.02537810 0.05206566
v 0.08843943 0.02510972 0.06305737
v 0.08290697 0.02806279 0.05941733
v 0.07884013 0.02518039 0.05202559
v 0.08424520 0.02828470 0.05613468
v 0.08493435 0.02850049 0.05780129
v 0.08105092 0.02557702 0.06151963
v 0.08247060 0.02786109 0.05522103
v 0.08553698 0.02648987 0.05275634
v 0.08423625 0.02842232 0.05684803
v 0.08968230 0.02687366 0.05716331
v 0.08675527 0.02601573 0.05269074
v 0.08837016 0.02774770 0.05920764
v 0.08179379 0.02633017 0.06133276
v 0.08036073 0.02755190 0.05603892
v 0.08353644 0.02574329 0.05159099
v 0.08688817 0.02525950 0.06321516
v 0.08972568 0.02684953 0.06045285
v 0.08932142 0.02562124 0.06249017
v 0.08133719 0.02796998 0.05769859
v 0.08995948 0.02592802 0.05545434
v 0.08878674 0.02747458 0.05995753
v 0.08165032 0.02781406 0.05562816
v 0.08446368 0.02828430 0.05608708
v 0.08015791 0.02736612 0.05834788
v 0.08194037 0.02761502 0.05970171
v 0.07733237 0.02562561 0.05807150
v 0.08307396 0.02633340 0.06195477
v 0.08359572 0.02554487 0.06264955
v 0.07998315 0.02591698 0.06049873
v 0.07997972 0.02715351 0.05497118
v 0.08200050 0.02804381 0.05860809
v 0.08532007 0.02695429 0.06207921
v 0.08847762 0.02623540 0.06259560
v 0.07933400 0.02560599 0.06030609
v 0.08372605 0.02651513 0.06205009
v 0.07582568 0.02506631 0.05468795
v 0.09115376 0.02555243 0.05717136
v 0.08975504 0.02693186 0.05765006
v 0.07970937 0.02602805 0.05280675
v 0.08493371 0.02522061 0.05129988
v 0.08265687 0.02525461 0.05111003
v 0.08616171 0.02707855 0.06204978
v 0.08545541 0.02843177 0.05882983
v 0.08178013 0.02783952 0.05906467
v 0.08403942 0.02612017 0.06244531
v 0.08997038 0.02673445 0.05742694
v 0.09049843 0.02635816 0.05768598
v 0.08610727 0.02690345 0.06223390
v 0.08888378 0.02676210 0.05539969
v 0.08200358 0.02781478 0.05931883
v 0.08039044 0.02559456 0.06107952
v 0.08326206 0.02826148 0.05901377
v 0.08728533 0.02637241 0.05338962
v 0.08210215 0.02807450 0.05627122
v 0.08180390 0.02791480 0.05582031
v 0.08712579 0.02737626 0.06159679
v 0.08195852 0.02586368 0.06181624
v 0.08337631 0.02817128 0.05941577
v 0.08099567 0.02556030 0.05166822
v 0.08913798 0.02739811 0.05879774
v 0.08682918 0.02711669 0.05416768
v 0.08104625 0.02765568 0.05559796
v 0.08428645 0.02689848 0.05306391
v 0.08667183 0.02500980 0.06328197
v 0.08451496 0.02728837 0.06154525
v 0.07803939 0.02540324 0.05926656
v 0.08520415 0.02778397 0.05475119
v 0.08763531 0.02662000 0.05394904
v 0.08393765 0.02846707 0.05740897
v 0.08759082 0.02793494 0.05694655
v 0.08425533 0.02598053 0.06260278
v 0.08315626 0.02663207 0.06172943
v 0.07809763 0.02653471 0.05698388
v 0.07869362 0.02686607 0.05707874
v 0.07570503 0.02506604 0.05508191
v 0.08257672 0.02827915 0.05720369
v 0.07649913 0.02559506 0.05608764
v 0.08891697 0.02747108 0.05957433
v 0.08734351 0.02687316 0.05410578
v 0.08040443 0.02581882 0.05216250
v 0.08232445 0.02797762 0.05566260
v 0.08521853 0.02753679 0.05424620
v 0.08944629 0.02669159 0.06133487
v 0.08408543 0.02759716 0.06099445
v 0.08004096 0.02739585 0.05580530
v 0.07650727 0.02560854 0.05588436
v 0.08622810 0.02838568 0.05826289
v 0.07804396 0.02613068 0.05427116
v 0.08229438 0.02592227 0.05184889
v 0.08933625 0.02728761 0.05859736
v 0.08892684 0.02750435 0.05820720
v 0.08986661 0.02632328 0.06139601
v 0.08405455 0.02687268 0.05300732
v 0.08805509 0.02788434 0.05877903
v 0.08591519 0.02644487 0.05281608
v 0.09001956 0.02564186 0.05515171
v 0.08097999 0.02516721 0.06174730
v 0.08736994 0.02754048 0.05537607
v 0.07922765 0.02573299 0.06007171
v 0.07701552 0.02560624 0.05756975
v 0.08924470 0.02704218 0.05665316
v 0.08544088 0.02732959 0.06168609
v 0.08916450 0.02711560 0.06070147
v 0.08686352 0.02773117 0.05541426
v 0.08959045 0.02508078 0.05403965
v 0.08718191 0.02758016 0.06120266
v 0.07972702 0.02660885 0.05387497
v 0.07950754 0.02644755 0.05369197
v 0.08670498 0.02800022 0.06029620
v 0.08261315 0.02768572 0.05464698
v 0.09038116 0.02584576 0.06124524
v 0.08102925 0.02763632 0.05876917
v 0.08388279 0.02777588 0.06060106
v 0.08121822 0.02643325 0.06090219
v 0.08864454 0.02747744 0.06024473
v 0.08132169 0.02618221 0.06120709
v 0.08293759 0.02742617 0.06072365
v 0.08726959 0.02659950 0.05368080
v 0.09040427 0.02639117 0.05748417
v 0.08412241 0.02846282 0.05838709
v 0.08245721 0.02570609 0.06214758
v 0.08651480 0.02745398 0.05458078
v 0.08094166 0.02548391 0.06151787
v 0.08539462 0.02831907 0.05645998
v 0.08192575 0.02531613 0.05122254
v 0.08847239 0.02771703 0.05835127
v 0.07852628 0.02625277 0.05403845
v 0.08513806 0.02832007 0.05953964
v 0.08693144 0.02602072 0.05279349
v 0.07725203 0.02552280 0.05377185
v 0.08128028 0.02794770 0.05689658
v 0.09137974 0.02545973 0.05768038
v 0.08696048 0.02635055 0.05317523
v 0.08354874 0.02582357 0.06247162
v 0.08024311 0.02727123 0.05507122
v 0.07826404 0.02578937 0.05903444
v 0.08117070 0.02754334 0.05917813
v 0.08893402 0.02735296 0.06023904
v 0.09026289 0.02573190 0.05564623
v 0.08939891 0.02654359 0.06163733
v 0.08996300 0.02559536 0.05501964
v 0.08762444 0.02785425 0.06012321
v 0.08012053 0.02654025 0.05989035
v 0.08877832 0.02675783 0.05525418
v 0.08542180 0.02673089 0.06230418
v 0.08070361 0.02768481 0.05803237
v 0.08943935 0.02511568 0.06254550
v 0.08072716 0.02576399 0.06116881
v 0.08966448 0.02643403 0.06148673
v 0.08094280 0.02758111 0.05545347
v 0.07591017 0.02506829 0.05660316
v 0.08509833 0.02810113 0.06024950
v 0.08710749 0.02811311 0.05938943
v 0.08126628 0.02770368 0.05888325
v 0.08443920 0.02557845 0.06286692
v 0.08704888 0.02546314 0.06315121
v 0.08460560 0.02787881 0.06065306
v 0.08763260 0.02655072 0.06255255
v 0.07632475 0.02504606 0.05372826
v 0.08282330 0.02633183 0.05232268
v 0.07965241 0.02535680 0.06077852
v 0.08337919 0.02529327 0.06271623
v 0.08233216 0.02824312 0.05731015
v 0.08124734 0.02794144 0.05764640
v 0.07751502 0.02625997 0.05594683
v 0.08803515 0.02673816 0.06228471
v 0.08549913 0.02606319 0.05224945
v 0.08247226 0.02576931 0.05164639
v 0.08044714 0.02545421 0.06122404
v 0.08586774 0.02722095 0.05389297
v 0.08796304 0.02594823 0.06291423
v 0.07970585 0.02530597 0.05173165
v 0.07948046 0.02586760 0.06015681
v 0.08549870 0.02800905 0.06050126
v 0.08499342 0.02786161 0.06078226
v 0.09013414 0.02666344 0.05762909
v 0.07990722 0.02741330 0.05757832
v 0.08988044 0.02682749 0.06013438
v 0.08610593 0.02839400 0.05854396
v 0.08263673 0.02531613 0.05117298
v 0.09089487 0.02584315 0.05714964
v 0.08402895 0.02814873 0.05563279
v 0.08318354 0.02830052 0.05660008
v 0.08410115 0.02531012 0.05121396
v 0.08191760 0.02813793 0.05708256
v 0.07752408 0.02615907 0.05522923
v 0.08453714 0.02846738 0.05860994
v 0.07762989 0.02632392 0.05596728
v 0.08414794 0.02730787 0.05367619
v 0.08217108 0.02701810 0.06082849
v 0.08896772 0.02748783 0.05900017
v 0.07919899 0.02608484 0.05964693
v 0.08888830 0.02640405 0.05478003
v 0.08456261 0.02833661 0.05635739
v 0.08181011 0.02762342 0.05494902
v 0.08042458 0.02639190 0.05305474
v 0.08109117 0.02557399 0.05166351
v 0.08556025 0.02831127 0.05652861
v 0.08730535 0.02721268 0.05465223
v 0.07568235 0.02507018 0.05536895
v 0.08586917 0.02527718 0.06318666
v 0.08687845 0.02815156 0.05690155
v 0.08737901 0.02793476 0.05659338
v 0.08651041 0.02793970 0.05572951
v 0.08983178 0.02515755 0.06222462
v 0.08737998 0.02650772 0.06261144
v 0.07795856 0.02643013 0.05552631
v 0.08793728 0.02666965 0.06238706
f 465 189 416
f 340 189 465
f 134 412 370
f 189 196 43
f 165 416 130
f 365 50 159
f 159 50 416
f 195 196 189
f 189 424 195
f 195 424 154
f 189 43 329
f 329 416 189
f 329 130 416
f 370 412 329
f 329 43 370
f 91 134 11
f 11 134 370
f 370 218 11
f 47 43 138
f 138 43 196
f 467 227 252
f 252 212 467
f 252 217 270
f 227 217 252
f 232 16 145
f 145 178 232
f 365 159 149
f 149 416 165
f 149 159 416
f 362 329 77
f 130 329 362
f 181 221 196
f 196 195 181
f 18 221 181
f 154 424 114
f 114 144 154
f 437 195 154
f 266 329 412
f 412 134 470
f 168 134 91
f 55 446 82
f 406 218 370
f 118 43 47
f 370 43 260
f 43 118 260
f 13 355 228
f 443 254 228
f 443 228 35
f 35 228 355
f 468 469 467
f 147 366 55
f 48 260 172
f 48 172 45
f 247 147 314
f 311 441 55
f 344 464 45
f 133 145 358
f 358 145 242
f 358 454 328
f 47 138 17
f 17 118 47
f 68 454 71
f 328 454 68
f 68 358 328
f 389 217 227
f 332 224 81
f 90 224 332
f 46 176 89
f 418 176 46
f 46 407 418
f 467 212 142
f 212 235 142
f 116 16 232
f 116 21 16
f 44 116 232
f 16 21 375
f 375 215 16
f 347 454 113
f 113 332 347
f 347 332 81
f 81 5 347
f 71 454 347
f 347 5 71
f 113 454 193
f 193 200 113
f 215 200 193
f 193 454 242
f 16 215 193
f 193 145 16
f 242 145 193
f 354 145 133
f 331 149 165
f 457 148 401
f 207 56 401
f 165 130 426
f 426 146 165
f 388 362 271
f 130 362 388
f 77 427 205
f 205 362 77
f 271 362 205
f 271 205 322
f 322 205 220
f 123 322 220
f 430 340 465
f 465 416 342
f 301 424 189
f 189 340 301
f 234 280 18
f 18 181 234
f 424 353 395
f 395 114 424
f 144 114 59
f 154 144 79
f 283 266 412
f 412 470 283
f 248 470 134
f 248 283 470
f 302 11 218
f 218 82 302
f 302 82 446
f 214 446 55
f 174 82 218
f 218 406 174
f 172 260 318
f 318 260 118
f 370 260 199
f 199 406 370
f 49 406 199
f 199 48 49
f 260 48 199
f 254 168 25
f 25 228 254
f 312 441 13
f 13 228 312
f 443 35 74
f 356 355 238
f 238 355 13
f 72 147 55
f 49 48 458
f 106 247 245
f 106 238 192
f 192 203 106
f 55 366 275
f 275 311 55
f 441 311 303
f 13 441 303
f 311 275 303
f 303 238 13
f 242 454 125
f 125 358 242
f 454 358 125
f 18 280 222
f 222 221 18
f 88 17 138
f 305 17 88
f 88 138 196
f 196 305 88
f 102 358 117
f 358 68 117
f 217 389 459
f 463 389 227
f 463 227 467
f 467 469 463
f 469 224 463
f 463 224 389
f 464 344 326
f 326 387 464
f 206 387 326
f 81 224 229
f 229 224 469
f 113 200 250
f 250 332 113
f 90 332 250
f 186 200 215
f 186 375 223
f 215 375 186
f 163 262 202
f 202 262 368
f 132 407 86
f 89 176 308
f 176 444 308
f 308 393 89
f 452 393 308
f 270 452 308
f 352 235 212
f 352 444 176
f 155 407 132
f 286 277 155
f 101 98 92
f 101 46 89
f 391 142 141
f 356 238 391
f 96 277 141
f 418 407 96
f 407 155 96
f 96 155 277
f 335 468 467
f 245 468 335
f 335 106 245
f 238 106 335
f 335 391 238
f 3 121 156
f 121 44 156
f 156 44 232
f 425 354 133
f 133 358 425
f 425 358 102
f 164 50 365
f 416 50 164
f 164 342 416
f 246 331 401
f 149 331 246
f 401 56 246
f 56 207 246
f 87 457 438
f 438 457 239
f 401 331 66
f 66 457 401
f 66 239 457
f 146 426 299
f 220 205 386
f 455 97 379
f 322 123 278
f 341 183 448
f 448 210 341
f 7 210 448
f 269 7 448
f 83 166 76
f 351 430 465
f 465 342 351
f 179 121 3
f 3 372 179
f 179 372 121
f 33 28 353
f 108 119 33
f 340 430 451
f 451 301 340
f 280 234 433
f 433 23 354
f 154 79 265
f 265 79 437
f 304 79 144
f 178 145 157
f 145 354 110
f 122 421 436
f 111 300 213
f 120 225 436
f 264 283 261
f 266 283 264
f 264 120 266
f 225 120 264
f 264 262 163
f 261 262 264
f 436 225 42
f 241 254 443
f 241 233 254
f 376 233 357
f 376 248 134
f 134 168 376
f 376 168 254
f 254 233 376
f 261 283 75
f 283 248 75
f 75 376 357
f 248 376 75
f 405 262 261
f 175 38 349
f 237 382 349
f 349 378 237
f 422 378 349
f 349 440 422
f 231 440 349
f 330 111 231
f 91 11 397
f 82 174 404
f 55 82 404
f 276 360 152
f 446 214 384
f 384 312 446
f 384 214 55
f 441 312 384
f 55 441 384
f 228 25 39
f 39 312 228
f 39 168 91
f 39 25 168
f 259 202 368
f 403 35 286
f 403 74 35
f 368 74 403
f 403 259 368
f 105 72 55
f 55 404 105
f 105 404 285
f 135 48 45
f 366 147 19
f 147 247 19
f 247 106 137
f 137 106 203
f 137 19 247
f 245 247 208
f 208 201 245
f 177 303 275
f 177 203 192
f 192 238 177
f 238 303 177
f 366 203 177
f 177 275 366
f 152 360 1
f 449 226 305
f 222 226 449
f 449 305 196
f 221 222 449
f 196 221 449
f 432 17 305
f 305 226 432
f 432 226 94
f 9 222 280
f 9 226 222
f 94 226 9
f 9 117 94
f 102 117 9
f 244 117 68
f 244 1 360
f 244 68 71
f 288 459 389
f 288 224 90
f 389 224 288
f 197 387 81
f 81 229 197
f 209 86 321
f 209 431 163
f 209 321 431
f 163 202 209
f 209 202 132
f 132 86 209
f 92 321 371
f 371 86 92
f 321 86 371
f 422 440 64
f 98 440 219
f 92 98 219
f 219 321 92
f 188 321 219
f 270 308 112
f 112 308 444
f 235 352 63
f 141 142 63
f 63 142 235
f 63 352 176
f 63 176 418
f 418 96 63
f 63 96 141
f 132 202 380
f 380 155 132
f 202 259 380
f 259 403 380
f 286 155 380
f 380 403 286
f 374 101 92
f 46 101 374
f 92 86 374
f 407 46 374
f 374 86 407
f 141 277 359
f 359 391 141
f 277 456 124
f 124 359 277
f 391 359 124
f 356 391 124
f 124 456 356
f 325 35 355
f 325 456 35
f 325 355 356
f 356 456 325
f 343 277 286
f 343 456 277
f 286 35 343
f 35 456 343
f 142 391 60
f 391 335 60
f 103 156 232
f 3 156 103
f 6 181 195
f 195 23 6
f 6 23 181
f 354 23 462
f 339 36 243
f 339 164 36
f 365 149 69
f 69 246 365
f 149 246 69
f 291 246 207
f 365 246 291
f 291 164 365
f 153 164 291
f 457 87 408
f 139 331 165
f 139 66 331
f 165 239 139
f 239 66 139
f 36 164 191
f 191 65 36
f 191 164 153
f 148 65 191
f 401 148 191
f 191 207 401
f 364 299 438
f 294 109 438
f 379 109 294
f 271 413 434
f 434 388 271
f 434 426 130
f 130 388 434
f 296 284 411
f 249 455 382
f 97 455 249
f 70 290 249
f 269 448 274
f 274 448 183
f 274 288 269
f 459 288 274
f 183 334 274
f 217 459 274
f 270 217 274
f 274 334 270
f 396 319 279
f 279 319 320
f 400 121 295
f 400 44 121
f 346 210 7
f 346 319 210
f 320 319 346
f 346 230 320
f 430 351 255
f 255 351 342
f 430 76 453
f 453 451 430
f 204 76 166
f 204 453 76
f 396 279 204
f 119 150 204
f 204 279 119
f 127 33 119
f 28 33 127
f 295 185 127
f 127 185 28
f 28 185 392
f 353 28 392
f 144 59 392
f 392 395 353
f 114 395 392
f 392 59 114
f 29 451 33
f 29 353 424
f 29 33 353
f 424 301 29
f 301 451 29
f 354 425 140
f 140 433 354
f 140 425 102
f 102 9 140
f 280 433 140
f 181 433 445
f 445 433 234
f 181 23 390
f 390 433 181
f 23 433 390
f 268 437 154
f 154 265 268
f 268 265 437
f 437 79 128
f 79 304 128
f 437 128 345
f 345 128 304
f 373 372 3
f 373 304 144
f 232 178 236
f 178 157 236
f 236 103 232
f 3 103 236
f 160 110 354
f 354 462 160
f 175 455 95
f 379 123 95
f 95 455 379
f 421 122 14
f 14 281 421
f 329 281 14
f 471 122 436
f 187 313 111
f 111 313 307
f 307 313 188
f 188 219 307
f 329 266 107
f 266 120 107
f 225 264 298
f 298 42 225
f 163 431 298
f 298 264 163
f 261 75 129
f 129 405 261
f 282 74 368
f 443 74 282
f 282 241 443
f 233 241 282
f 175 349 253
f 253 349 382
f 253 455 175
f 382 455 253
f 52 330 231
f 231 349 52
f 52 349 38
f 52 38 175
f 175 330 52
f 151 300 111
f 111 330 151
f 151 330 175
f 175 95 151
f 182 302 446
f 11 302 182
f 182 397 11
f 361 174 406
f 361 404 174
f 285 404 361
f 398 276 152
f 394 318 118
f 394 398 318
f 276 398 394
f 118 17 32
f 17 276 32
f 32 394 118
f 276 394 32
f 172 318 333
f 318 383 333
f 333 383 344
f 45 172 333
f 333 344 45
f 180 211 72
f 180 105 285
f 72 105 180
f 49 211 180
f 285 361 180
f 180 406 49
f 180 361 406
f 72 211 20
f 314 147 20
f 147 72 20
f 49 458 20
f 20 211 49
f 20 458 48
f 48 135 20
f 58 137 203
f 19 137 58
f 58 203 366
f 366 19 58
f 469 468 369
f 369 197 229
f 387 197 369
f 45 464 258
f 258 208 247
f 208 258 363
f 363 258 464
f 363 369 26
f 464 387 363
f 387 369 363
f 152 1 54
f 206 326 54
f 1 244 54
f 54 326 344
f 17 432 34
f 34 432 360
f 34 276 17
f 360 276 34
f 117 244 273
f 94 117 273
f 273 432 94
f 360 432 273
f 71 5 435
f 435 244 71
f 435 5 81
f 206 54 435
f 435 54 244
f 435 387 206
f 81 387 435
f 269 288 447
f 200 186 447
f 447 7 269
f 439 440 98
f 98 64 439
f 439 64 440
f 417 64 98
f 393 64 417
f 367 440 231
f 367 219 440
f 367 307 219
f 231 111 367
f 111 307 367
f 444 352 99
f 99 112 444
f 99 352 212
f 212 252 99
f 99 252 270
f 270 112 99
f 126 335 467
f 126 60 335
f 467 142 126
f 142 60 126
f 164 339 338
f 83 76 338
f 342 164 338
f 338 255 342
f 338 76 430
f 430 255 338
f 31 339 243
f 31 166 83
f 83 338 31
f 31 338 339
f 216 87 438
f 438 109 216
f 216 408 87
f 170 408 216
f 216 249 170
f 97 249 216
f 379 97 216
f 216 109 379
f 148 457 12
f 457 408 12
f 12 408 170
f 170 65 12
f 12 65 148
f 115 291 207
f 207 191 115
f 153 291 115
f 115 191 153
f 146 299 194
f 299 364 194
f 165 146 194
f 438 239 171
f 171 364 438
f 73 299 426
f 438 299 73
f 73 294 438
f 316 413 426
f 396 204 80
f 80 204 166
f 80 31 243
f 166 31 80
f 450 319 396
f 341 210 450
f 210 319 450
f 289 65 170
f 36 65 289
f 198 183 341
f 198 334 183
f 256 284 296
f 296 67 256
f 317 67 296
f 167 382 237
f 70 249 167
f 167 249 382
f 327 279 320
f 162 400 295
f 279 327 162
f 162 327 400
f 295 127 162
f 162 127 119
f 44 230 460
f 21 116 460
f 116 44 460
f 460 375 21
f 460 230 375
f 131 346 7
f 7 447 131
f 131 447 186
f 131 186 223
f 223 346 131
f 375 230 272
f 230 346 272
f 223 375 272
f 272 346 223
f 451 453 472
f 33 451 472
f 453 204 472
f 108 33 472
f 472 204 150
f 472 119 108
f 472 150 119
f 161 185 295
f 161 392 185
f 295 121 161
f 121 372 161
f 372 373 161
f 61 9 280
f 280 140 61
f 61 140 9
f 306 234 181
f 181 445 306
f 306 445 234
f 24 462 324
f 324 345 24
f 437 345 324
f 195 437 324
f 324 462 23
f 324 23 195
f 169 373 144
f 144 392 169
f 461 236 157
f 461 345 304
f 3 236 461
f 461 373 3
f 304 373 461
f 145 110 57
f 110 160 57
f 57 157 145
f 24 345 57
f 57 462 24
f 57 160 462
f 57 461 157
f 345 461 57
f 292 123 220
f 292 95 123
f 51 399 386
f 51 205 427
f 51 386 205
f 8 213 300
f 143 213 8
f 77 329 466
f 329 14 466
f 436 42 423
f 423 471 436
f 313 187 240
f 240 187 143
f 143 122 240
f 122 471 240
f 297 187 111
f 27 107 120
f 436 421 27
f 27 120 436
f 421 281 27
f 27 281 329
f 329 107 27
f 53 75 357
f 53 129 75
f 405 129 348
f 233 282 348
f 357 233 348
f 348 282 368
f 368 262 348
f 262 405 348
f 300 151 337
f 337 151 95
f 337 292 300
f 95 292 337
f 397 182 257
f 91 397 257
f 257 39 91
f 312 39 257
f 446 312 257
f 257 182 446
f 84 383 318
f 318 398 84
f 344 383 84
f 84 54 344
f 84 398 152
f 152 54 84
f 314 20 409
f 409 20 135
f 409 247 314
f 409 258 247
f 409 135 45
f 45 258 409
f 263 369 468
f 26 369 263
f 263 468 245
f 245 201 263
f 263 363 26
f 201 208 263
f 208 363 263
f 4 229 469
f 469 369 4
f 4 369 229
f 78 244 360
f 360 273 78
f 78 273 244
f 136 250 200
f 200 447 136
f 90 250 136
f 136 288 90
f 136 447 288
f 393 417 184
f 89 393 184
f 184 101 89
f 426 413 2
f 2 73 426
f 379 294 2
f 294 73 2
f 426 434 93
f 93 316 426
f 396 80 429
f 429 411 284
f 429 80 411
f 15 80 243
f 315 290 70
f 70 167 315
f 315 167 190
f 270 334 37
f 334 198 37
f 37 452 270
f 104 450 396
f 396 429 104
f 104 429 284
f 428 198 341
f 341 450 428
f 450 104 428
f 67 198 100
f 100 256 67
f 198 428 100
f 100 428 256
f 452 37 385
f 385 37 198
f 40 198 67
f 67 317 40
f 40 385 198
f 452 385 40
f 40 393 452
f 44 400 415
f 415 327 44
f 400 327 415
f 287 230 44
f 44 327 287
f 320 230 287
f 287 327 320
f 119 279 350
f 350 162 119
f 279 162 350
f 143 8 10
f 10 122 143
f 10 14 122
f 336 310 399
f 8 310 336
f 336 10 8
f 473 423 42
f 473 298 431
f 42 298 473
f 22 240 471
f 471 423 22
f 188 313 22
f 313 240 22
f 423 473 22
f 22 473 431
f 22 321 188
f 431 321 22
f 143 187 410
f 187 297 410
f 410 213 143
f 111 213 410
f 410 297 111
f 357 348 414
f 414 348 129
f 414 53 357
f 129 53 414
f 62 417 98
f 62 184 417
f 98 101 62
f 101 184 62
f 379 2 381
f 381 2 413
f 381 413 271
f 271 322 381
f 322 278 381
f 381 123 379
f 381 278 123
f 442 289 411
f 411 80 442
f 80 15 442
f 442 15 243
f 243 36 442
f 36 289 442
f 411 289 85
f 296 411 85
f 85 419 296
f 296 419 309
f 309 315 190
f 402 289 170
f 170 249 402
f 402 249 290
f 402 309 419
f 290 315 402
f 315 309 402
f 256 428 41
f 41 428 104
f 284 256 41
f 41 104 284
f 323 40 317
f 323 64 393
f 393 40 323
f 422 64 323
f 323 378 422
f 323 173 378
f 190 173 267
f 267 317 296
f 267 323 317
f 173 323 267
f 296 309 267
f 267 309 190
f 190 167 251
f 251 173 190
f 378 173 251
f 237 378 251
f 251 167 237
f 399 310 30
f 30 292 220
f 300 292 30
f 220 386 30
f 386 399 30
f 30 8 300
f 30 310 8
f 399 51 293
f 293 336 399
f 377 85 289
f 419 85 377
f 289 402 377
f 377 402 419
f 158 51 427
f 158 293 51
f 158 427 77
f 336 293 158
f 420 158 77
f 336 158 420
f 10 336 420
f 77 466 420
f 420 466 14
f 14 10 420
f 165 194 171
f 171 239 165
f 171 194 364
f 169 161 373
f 392 161 169
f 413 316 93
f 93 434 413

