# https://github.com/mikedh/trimesh
v 0.04818064 -0.00471772 -0.03718171
v 0.03797918 -0.01167708 -0.02883947
v 0.03268188 -0.00506849 -0.03415826
v 0.04317295 -0.01282090 -0.02669612
v 0.02616807 -0.00586659 -0.03137867
v 0.04547935 -0.00667307 -0.03579574
v 0.02885142 -0.00450351 -0.03311719
v 0.03621678 -0.00197758 -0.03602659
v 0.03530317 -0.00774280 -0.03319466
v 0.03992032 -0.00718476 -0.03461839
v 0.03035522 -0.00126530 -0.03442804
v 0.03296072 -0.00969211 -0.03059052
v 0.04539568 -0.00642232 -0.03596911
v 0.04613745 -0.00025842 -0.03787101
v 0.03225467 -0.00413097 -0.03440845
v 0.04995781 -0.00958200 -0.03279229
v 0.04202348 -0.01350945 -0.02500303
v 0.04058009 -0.00240219 -0.03687419
v 0.03147344 -0.01160755 -0.02758739
v 0.03442403 -0.00644651 -0.03389898
v 0.03557855 -0.00470300 -0.03511836
v 0.03824124 -0.00803293 -0.03360634
v 0.02691520 -0.00444462 -0.03237267
v 0.02926954 -0.01000428 -0.02908263
v 0.03643486 -0.00864259 -0.03264040
v 0.04772661 -0.01125064 -0.02987418
v 0.03418091 -0.00670897 -0.03366435
v 0.04116581 -0.00214387 -0.03701640
v 0.03356482 -0.01294858 -0.02571763
v 0.04174464 -0.00944257 -0.03268997
v 0.04553568 -0.00179633 -0.03767884
v 0.04434009 -0.00542764 -0.03642721
v 0.02604900 -0.00876553 -0.02910344
v 0.02806827 -0.00827080 -0.03044029
v 0.03664014 -0.00923194 -0.03206588
v 0.03659169 -0.00679265 -0.03421477
v 0.04010127 -0.00779951 -0.03415059
v 0.04491440 -0.00270747 -0.03744483
v 0.03674045 -0.00840922 -0.03293148
v 0.02895025 -0.00019439 -0.03398366
v 0.03268817 -0.00290680 -0.03490950
v 0.04067579 -0.00596223 -0.03557748
v 0.04786188 -0.00467377 -0.03717748
v 0.03609754 -0.01341388 -0.02510215
v 0.02886958 -0.00032576 -0.03395569
v 0.03063916 -0.01035992 -0.02909976
v 0.03980133 -0.00811168 -0.03381865
v 0.03438390 -0.00850429 -0.03227260
v 0.03091791 -0.00913494 -0.03060150
v 0.02849597 -0.00443727 -0.03300598
v 0.03089240 -0.00029399 -0.03466387
v 0.02604486 -0.00175293 -0.03271267
v 0.02575294 -0.00459559 -0.03181135
v 0.02734123 -0.00664355 -0.03139813
v 0.02545603 -0.01123205 -0.02588383
v 0.04987032 -0.00154103 -0.03807347
v 0.03379009 -0.00306347 -0.03519995
v 0.02959211 -0.00487208 -0.03322717
v 0.04976994 -0.00913871 -0.03346774
v 0.04756853 -0.00804318 -0.03480302
v 0.03188076 -0.00230740 -0.03478444
v 0.04195539 -0.00970308 -0.03237829
v 0.03847675 -0.00465062 -0.03577671
v 0.04175383 -0.00991497 -0.03206003
v 0.03687864 -0.00566360 -0.03495102
v 0.04269409 -0.00985214 -0.03226901
v 0.03016592 -0.00076425 -0.03441304
v 0.03334018 -0.00663461 -0.03349088
v 0.02614696 -0.00435096 -0.03208138
v 0.03839232 -0.00859867 -0.03309216
v 0.02942263 -0.00781607 -0.03133644
v 0.04299287 -0.00220416 -0.03726941
v 0.03100089 -0.00641313 -0.03290796
v 0.03550048 -0.00305146 -0.03564748
v 0.04075698 -0.00436147 -0.03635541
v 0.04980730 -0.01007369 -0.03196470
v 0.02974793 -0.01263584 -0.02529662
v 0.03556896 -0.01032191 -0.03048216
v 0.03993963 -0.01102141 -0.03023194
v 0.03882307 -0.00160006 -0.03664198
v 0.03390213 -0.00078735 -0.03556348
v 0.02533011 -0.00047586 -0.03251972
v 0.04029663 -0.00135435 -0.03696803
v 0.02777015 -0.00450106 -0.03269280
v 0.04033516 -0.00798350 -0.03402927
v 0.03802364 -0.01349252 -0.02506555
v 0.04246760 -0.00199848 -0.03722501
v 0.03292895 -0.00815019 -0.03220165
v 0.02843233 -0.00779337 -0.03099315
v 0.03488181 -0.00267384 -0.03557318
v 0.04126125 -0.00001694 -0.03722429
v 0.04913734 -0.00124331 -0.03804267
v 0.02777278 -0.00173212 -0.03342586
v 0.04287084 -0.00473991 -0.03652359
v 0.02646777 -0.00714009 -0.03069969
v 0.04103740 -0.00927308 -0.03279732
v 0.04929579 -0.00259086 -0.03788081
v 0.04980268 -0.00850227 -0.03430912
v 0.02672452 -0.00547778 -0.03183084
v 0.03833650 -0.00791123 -0.03372824
v 0.03195451 -0.00853408 -0.03155317
v 0.04480258 -0.00741721 -0.03513556
v 0.03433620 -0.00892400 -0.03184502
v 0.02571471 -0.00320661 -0.03226572
v 0.03969220 -0.00143392 -0.03684158
v 0.04067962 -0.00387053 -0.03652825
v 0.04447053 -0.00319325 -0.03727520
v 0.03966580 -0.00780988 -0.03406256
v 0.03600738 -0.01322476 -0.02553537
v 0.04077824 -0.00590322 -0.03563104
v 0.03323952 -0.01290602 -0.02573962
v 0.03439397 -0.00536020 -0.03450297
v 0.03276384 -0.00608767 -0.03364807
v 0.03827006 -0.00779558 -0.03381107
v 0.02557147 -0.00367714 -0.03206437
v 0.02986572 -0.00069208 -0.03431600
v 0.03817976 -0.00491571 -0.03559772
v 0.03346180 -0.00233273 -0.03525849
v 0.04130179 -0.00665040 -0.03524533
v 0.04842825 -0.01280499 -0.02569134
v 0.04245964 -0.00852608 -0.03382876
v 0.03438534 -0.01186341 -0.02790774
v 0.02709049 -0.00519946 -0.03211105
v 0.02812359 -0.00479776 -0.03270981
v 0.02627831 -0.01159420 -0.02573185
v 0.04952737 -0.00948721 -0.03296666
v 0.03282533 -0.00004811 -0.03523720
v 0.04747500 -0.00243408 -0.03775151
v 0.04273427 -0.00731153 -0.03497294
v 0.04319158 -0.00501201 -0.03645098
v 0.04884192 -0.00211691 -0.03791615
v 0.03000083 -0.00677724 -0.03231617
v 0.04098699 -0.00909325 -0.03300586
v 0.03918521 -0.00062100 -0.03682525
v 0.02612220 -0.00900165 -0.02890648
v 0.03442319 -0.00556755 -0.03440654
v 0.04189263 -0.00942367 -0.03273261
v 0.04076631 -0.01245949 -0.02757496
v 0.04504390 -0.00110691 -0.03769300
v 0.03596749 -0.00127779 -0.03604545
v 0.04604235 -0.00728443 -0.03537340
v 0.04972482 -0.00846862 -0.03434853
v 0.02914782 -0.00032922 -0.03405991
v 0.03400680 -0.00345440 -0.03514294
v 0.03141315 -0.00725400 -0.03246256
v 0.02565522 -0.00451337 -0.03180196
v 0.04526906 -0.00382246 -0.03721016
v 0.04539233 -0.00027582 -0.03779011
v 0.04087799 -0.01337642 -0.02542811
v 0.03290584 -0.00320557 -0.03489804
v 0.04977438 -0.01002610 -0.03205711
v 0.02764810 -0.00063133 -0.03347522
v 0.03423533 -0.00934569 -0.03134172
v 0.03899679 -0.00236662 -0.03657562
v 0.04684660 -0.00922819 -0.03335802
v 0.04361789 -0.00917782 -0.03321969
v 0.04836920 -0.00178232 -0.03792461
v 0.03295367 -0.00475256 -0.03438155
v 0.03133373 -0.00163814 -0.03472106
v 0.04295542 -0.00587394 -0.03599918
v 0.03335488 -0.00015856 -0.03539933
v 0.03533177 -0.00586737 -0.03448610
v 0.02552586 -0.01090988 -0.02640541
v 0.04552705 -0.00927210 -0.03325664
v 0.03548069 -0.00795610 -0.03305500
v 0.04497417 -0.00330401 -0.03732247
v 0.03592939 -0.01076616 -0.02997200
v 0.02525904 -0.00929532 -0.02823540
v 0.04243353 -0.01342077 -0.02521625
v 0.04867104 -0.00740760 -0.03545568
v 0.02627152 -0.00956322 -0.02841771
v 0.03134087 -0.00375536 -0.03426004
v 0.03681500 -0.00154489 -0.03621275
v 0.03000339 -0.00757080 -0.03173808
v 0.02895510 -0.01131460 -0.02722364
v 0.03574193 -0.00638563 -0.03428275
v 0.03097996 -0.00986253 -0.02981454
v 0.04539570 -0.00376739 -0.03724340
v 0.03260475 -0.00188164 -0.03507675
v 0.04814621 -0.00682551 -0.03590755
v 0.03508198 -0.00376190 -0.03533533
v 0.04955935 -0.01284236 -0.02504642
v 0.04833214 -0.01197170 -0.02806035
v 0.03342813 -0.00060166 -0.03543359
v 0.02849454 -0.00994360 -0.02887937
v 0.04729205 -0.00697365 -0.03573772
v 0.03266587 -0.00681636 -0.03316069
v 0.03156956 -0.01280436 -0.02552313
v 0.03125414 -0.00772022 -0.03204569
v 0.02729092 -0.00554384 -0.03202296
v 0.04548700 -0.00470007 -0.03691346
v 0.03957435 -0.00624094 -0.03520419
v 0.03159454 -0.00388766 -0.03429109
v 0.02652011 -0.00227202 -0.03283021
v 0.04918216 -0.01203301 -0.02765812
v 0.04486502 -0.01122290 -0.03012106
v 0.04832170 -0.00051831 -0.03804560
v 0.03681443 -0.00950382 -0.03178442
v 0.04753686 -0.00358949 -0.03749852
v 0.04773838 -0.00555374 -0.03674907
v 0.03213907 -0.00458653 -0.03419950
v 0.03225222 -0.00185119 -0.03497669
v 0.04629916 -0.01220276 -0.02785322
v 0.03222061 -0.00512627 -0.03398722
v 0.04581782 -0.01322776 -0.02517753
v 0.03956377 -0.00296313 -0.03656574
v 0.02550642 -0.00181612 -0.03246540
v 0.03145530 -0.00269016 -0.03458530
v 0.04840696 -0.01197981 -0.02802268
v 0.02512637 -0.00553135 -0.03108759
v 0.03870676 -0.00867592 -0.03307586
v 0.04939402 -0.00909933 -0.03353825
v 0.03635540 -0.00638336 -0.03442857
v 0.03556335 -0.01089216 -0.02969949
v 0.03234877 -0.00890073 -0.03131606
v 0.03198069 -0.00063867 -0.03500064
v 0.04227273 -0.00043054 -0.03736107
v 0.04036038 -0.00547289 -0.03579054
v 0.03897107 -0.00850982 -0.03328711
v 0.02984687 -0.00780775 -0.03149691
v 0.02759720 -0.00320242 -0.03305911
v 0.02858832 -0.00955432 -0.02933582
v 0.02684308 -0.01075514 -0.02716762
v 0.03716062 -0.01344262 -0.02515316
v 0.03361474 -0.00124757 -0.03543441
v 0.04600980 -0.00218749 -0.03766388
v 0.02580106 -0.00277711 -0.03241433
v 0.04790174 -0.01101739 -0.03033535
v 0.04862867 -0.00300312 -0.03774096
v 0.03235834 -0.00704834 -0.03290009
v 0.04807345 -0.00946119 -0.03305644
v 0.04301863 -0.01233900 -0.02785620
v 0.04677954 -0.01299809 -0.02561434
v 0.02714486 -0.00388820 -0.03267486
v 0.03340922 -0.00768433 -0.03273223
v 0.04150954 -0.01115808 -0.03012834
v 0.03651334 -0.00513019 -0.03514447
v 0.03388653 -0.00627955 -0.03385547
v 0.04599485 -0.00070083 -0.03782913
v 0.03019179 -0.01277175 -0.02516323
v 0.04103214 -0.00321039 -0.03676850
v 0.04323868 -0.00964500 -0.03258893
v 0.02630288 -0.00397408 -0.03229050
v 0.03094601 -0.00628464 -0.03297234
v 0.03811674 -0.01107788 -0.02988424
v 0.03752901 -0.00119465 -0.03641147
v 0.02581625 -0.01098168 -0.02643668
v 0.04110834 -0.01221950 -0.02811276
v 0.04304331 -0.00990623 -0.03222883
v 0.04957868 -0.00588057 -0.03667666
v 0.04282118 -0.00128897 -0.03736217
v 0.02612614 -0.00249112 -0.03261707
v 0.03604198 -0.00925884 -0.03191211
v 0.02704448 -0.00083047 -0.03322479
v 0.03537282 -0.01085840 -0.02970322
v 0.03360112 -0.00881685 -0.03176026
v 0.04535428 -0.00512112 -0.03671450
v 0.04164796 -0.00835074 -0.03388280
v 0.03276231 -0.00591457 -0.03375173
v 0.03667094 -0.01312580 -0.02584119
v 0.04027343 -0.00927207 -0.03269210
v 0.02528360 -0.00085864 -0.03248299
v 0.03238615 -0.00775269 -0.03237102
v 0.04500265 -0.00815630 -0.03447867
v 0.03641641 -0.00895505 -0.03231354
v 0.03320488 -0.01073769 -0.02935219
v 0.02949903 -0.00179826 -0.03406863
v 0.04156775 -0.00691400 -0.03509514
v 0.02521685 -0.00777282 -0.02964271
v 0.02938235 -0.00548629 -0.03285803
v 0.03116201 -0.01034142 -0.02929135
v 0.04995211 -0.00927962 -0.03325600
v 0.03900417 -0.00942717 -0.03230187
v 0.04710229 -0.00558412 -0.03666345
v 0.04601413 -0.01313722 -0.02540177
v 0.02564828 -0.00796377 -0.02968512
v 0.03790493 -0.01194178 -0.02837463
v 0.03715409 -0.00896049 -0.03247201
v 0.03119663 -0.00871026 -0.03115371
v 0.04432586 -0.00224617 -0.03744979
v 0.03079178 -0.01063235 -0.02877563
v 0.04571075 -0.00532497 -0.03665887
v 0.03990182 -0.01211110 -0.02827203
v 0.02813518 -0.00348041 -0.03319357
v 0.03221956 -0.01168416 -0.02766996
v 0.03712319 -0.00257230 -0.03614519
v 0.03102865 -0.01229829 -0.02627810
v 0.04998096 -0.00201350 -0.03802834
v 0.04381404 -0.00954639 -0.03276721
v 0.02679543 -0.00660782 -0.03119770
v 0.04279318 -0.00645309 -0.03561365
v 0.03862353 -0.00902519 -0.03268841
v 0.03763406 -0.00519330 -0.03535260
v 0.03975378 -0.00882755 -0.03309889
v 0.04882068 -0.00710568 -0.03571617
v 0.03877235 -0.00852128 -0.03323858
v 0.02991615 -0.00526065 -0.03316465
v 0.02567370 -0.00460626 -0.03177067
v 0.03702701 -0.00786761 -0.03348492
v 0.03929949 -0.00615825 -0.03520298
v 0.02859608 -0.00051357 -0.03385283
v 0.04502640 -0.00760547 -0.03500170
v 0.04061422 -0.00616617 -0.03544148
v 0.03465021 -0.00657930 -0.03387231
v 0.03919946 -0.00729699 -0.03439946
v 0.03338753 -0.01256389 -0.02640314
v 0.04411685 -0.00693931 -0.03544629
v 0.02594376 -0.01167948 -0.02544139
v 0.03340681 -0.00209920 -0.03528732
v 0.03206780 -0.00755206 -0.03243416
v 0.04005829 -0.00689770 -0.03485943
v 0.04984422 -0.01096573 -0.03014044
v 0.03047304 -0.00701352 -0.03232424
v 0.02742206 -0.00715024 -0.03107887
v 0.04064814 -0.00672193 -0.03509361
v 0.03927672 -0.00965175 -0.03207661
v 0.02744689 -0.01096831 -0.02712926
v 0.04412389 -0.01308738 -0.02592161
v 0.04593497 -0.00158038 -0.03774397
v 0.03120067 -0.01233635 -0.02625802
v 0.03066184 -0.01004069 -0.02950999
v 0.04307463 -0.00436878 -0.03670379
v 0.03942033 -0.00759989 -0.03419762
v 0.03999514 -0.00955224 -0.03231153
v 0.04840337 -0.00025710 -0.03807058
v 0.03114345 -0.01140707 -0.02780013
v 0.03680888 -0.00403503 -0.03565233
v 0.04115424 -0.00729579 -0.03473389
v 0.02901366 -0.01123731 -0.02735671
v 0.04513095 -0.01003265 -0.03217390
v 0.03808887 -0.00627395 -0.03489062
v 0.03582066 -0.01208103 -0.02781212
v 0.02867550 -0.00166678 -0.03378177
v 0.04984321 -0.00769096 -0.03522453
v 0.03598761 -0.00672724 -0.03411802
v 0.04999969 -0.00568573 -0.03683493
v 0.04718526 -0.00426244 -0.03725814
v 0.04208306 -0.01105512 -0.03035393
v 0.02638649 -0.00112125 -0.03292839
v 0.03219054 -0.00539842 -0.03384543
v 0.03910969 -0.00546337 -0.03553079
v 0.04677203 -0.01118669 -0.03009558
v 0.04390933 -0.00600539 -0.03605430
v 0.03710311 -0.00624335 -0.03469061
v 0.02551936 -0.00322603 -0.03217443
v 0.04510700 -0.00606263 -0.03617425
v 0.03208187 -0.00392548 -0.03442905
v 0.03564630 -0.00419482 -0.03534170
v 0.04315035 -0.01309781 -0.02602908
v 0.03171972 -0.00718907 -0.03260401
v 0.02878054 -0.00586704 -0.03244508
v 0.03443709 -0.00743585 -0.03320482
v 0.03789180 -0.00895074 -0.03263802
v 0.04666526 -0.00942285 -0.03309366
v 0.02878957 -0.00615954 -0.03227596
v 0.04303119 -0.00031078 -0.03748465
v 0.04120375 -0.00318766 -0.03680048
v 0.04402801 -0.00580750 -0.03618293
v 0.04164761 -0.00245019 -0.03702681
v 0.04007957 -0.00554009 -0.03569786
v 0.02878053 -0.00054845 -0.03392100
v 0.03303796 -0.01312826 -0.02522136
v 0.04940185 -0.00332388 -0.03772779
v 0.03293851 -0.01302654 -0.02541467
v 0.04012324 -0.00339406 -0.03655595
v 0.02606245 -0.00339215 -0.03236653
v 0.03963332 -0.00536052 -0.03569248
v 0.02790621 -0.00486322 -0.03259685
v 0.04693632 -0.00723926 -0.03550428
v 0.02568742 -0.01070414 -0.02674922
v 0.04286179 -0.00421358 -0.03673154
v 0.02510366 -0.00864594 -0.02879619
v 0.02887929 -0.00580367 -0.03251330
v 0.02725740 -0.01090433 -0.02713772
v 0.03742288 -0.01084734 -0.03014016
v 0.03458997 -0.00076937 -0.03575469
v 0.03662844 -0.00374220 -0.03571111
v 0.04930142 -0.00165152 -0.03801708
v 0.03023851 -0.01269332 -0.02534163
v 0.04765935 -0.00155147 -0.03789260
v 0.03848750 -0.01307523 -0.02613922
v 0.02619333 -0.00194504 -0.03274680
v 0.03330106 -0.00262110 -0.03515124
v 0.03503801 -0.00605847 -0.03430443
v 0.04745038 -0.00960976 -0.03284220
v 0.04290831 -0.00769872 -0.03468294
v 0.04557391 -0.01092838 -0.03063580
v 0.03631718 -0.00543035 -0.03495285
v 0.03586625 -0.01230701 -0.02737842
v 0.03804045 -0.01098381 -0.03003425
v 0.03462984 -0.00818456 -0.03262939
v 0.02861878 -0.00777586 -0.03107955
v 0.02723194 -0.00555590 -0.03199329
v 0.03843509 -0.01088254 -0.03025000
v 0.03590559 -0.00438343 -0.03533629
v 0.02864214 -0.00195475 -0.03372764
v 0.04906256 -0.00094969 -0.03806397
v 0.04172349 -0.00953038 -0.03257582
v 0.03341128 -0.00645884 -0.03361683
v 0.04996153 -0.01128710 -0.02936192
v 0.03194483 -0.00266323 -0.03473751
v 0.04307121 -0.00371933 -0.03692475
v 0.04990229 -0.01238684 -0.02634231
v 0.02991740 -0.00693374 -0.03218222
v 0.02995906 -0.00559142 -0.03301069
v 0.04196754 -0.00948955 -0.03265648
v 0.04587902 -0.00401478 -0.03721090
v 0.03296237 -0.00878830 -0.03161015
v 0.04549666 -0.00008822 -0.03779420
v 0.03076840 -0.00126748 -0.03456701
v 0.02670555 -0.00190456 -0.03297883
v 0.04576645 -0.01291038 -0.02611848
v 0.02518484 -0.00929256 -0.02820503
v 0.02719932 -0.00760420 -0.03064276
v 0.03861382 -0.00737148 -0.03422941
v 0.03987513 -0.00651945 -0.03508908
v 0.03867551 -0.00470408 -0.03579656
v 0.04976411 -0.00886846 -0.03385736
v 0.04289316 -0.00860036 -0.03380348
v 0.04630320 -0.01005287 -0.03215333
v 0.02810750 -0.00086230 -0.03365440
v 0.03827301 -0.00761564 -0.03396067
v 0.02596088 -0.00371126 -0.03222861
v 0.02571507 -0.00812211 -0.02957991
v 0.04797628 -0.01183829 -0.02845937
v 0.02795585 -0.00425603 -0.03286277
v 0.03586970 -0.00074700 -0.03608090
v 0.03564392 -0.01101271 -0.02952862
v 0.04504641 -0.00573846 -0.03635243
v 0.03718410 -0.00420689 -0.03567537
v 0.03804356 -0.01032429 -0.03095582
v 0.02883395 -0.00784560 -0.03109811
v 0.02782342 -0.01239017 -0.02508715
v 0.04351576 -0.01198141 -0.02859251
v 0.02862723 -0.00629698 -0.03213182
v 0.04318740 -0.00687582 -0.03537930
v 0.04872899 -0.00934269 -0.03320666
v 0.03910030 -0.00094729 -0.03678421
v 0.03259616 -0.00448715 -0.03437741
v 0.04659252 -0.01293309 -0.02585457
v 0.04781749 -0.01145893 -0.02937890
v 0.02508090 -0.00832061 -0.02910257
v 0.04286376 -0.00120653 -0.03737782
v 0.02600402 -0.00687275 -0.03067774
v 0.03619954 -0.00944076 -0.03172797
v 0.03770037 -0.01301267 -0.02618836
v 0.03092559 -0.01181560 -0.02707280
v 0.02768563 -0.00194592 -0.03336233
v 0.02841559 -0.01125642 -0.02711728
v 0.02987769 -0.01141018 -0.02739259
v 0.03518252 -0.00794633 -0.03298676
v 0.03410002 -0.00142668 -0.03555602
v 0.04857564 -0.01117766 -0.02989087
v 0.03186546 -0.01004017 -0.02986114
v 0.04202818 -0.00152851 -0.03722198
v 0.04890479 -0.01288204 -0.02520427
v 0.04116536 -0.01312304 -0.02608102
v 0.03197432 -0.00303243 -0.03465753
v 0.04709254 -0.00871429 -0.03401773
v 0.03008010 -0.00174538 -0.03427753
v 0.02844966 -0.00698044 -0.03161689
v 0.04150034 -0.00501412 -0.03619982
v 0.03081427 -0.00216568 -0.03446287
v 0.03295556 -0.00787947 -0.03243744
v 0.04659792 -0.00920389 -0.03338271
v 0.03825339 -0.00915224 -0.03248074
v 0.04341211 -0.00701661 -0.03529660
v 0.04101364 -0.00152239 -0.03707914
v 0.03057073 -0.00776616 -0.03178439
v 0.03087537 -0.00572818 -0.03325911
v 0.03605929 -0.00904903 -0.03213654
v 0.04056727 -0.00032500 -0.03709244
v 0.03253360 -0.00331137 -0.03475483
v 0.02687064 -0.00394820 -0.03254183
v 0.04584353 -0.00924451 -0.03330575
v 0.04508102 -0.00155498 -0.03764952
v 0.04848445 -0.00218826 -0.03787489
v 0.03089098 -0.00365416 -0.03414262
v 0.02916209 -0.00744381 -0.03153940
v 0.04042482 -0.01058329 -0.03093122
v 0.03047198 -0.00879657 -0.03081570
v 0.04350833 -0.01340663 -0.02505207
v 0.02685881 -0.01185269 -0.02556519
v 0.04179751 -0.00766350 -0.03454361
v 0.03207735 -0.00562461 -0.03369890
v 0.04675908 -0.00652358 -0.03603110
v 0.03262868 -0.00500671 -0.03416992
v 0.03031350 -0.00253207 -0.03422841
v 0.04987099 -0.00133197 -0.03808779
v 0.02850042 -0.00007852 -0.03380122
v 0.03634885 -0.00557146 -0.03488531
v 0.03951383 -0.00970543 -0.03204434
v 0.04222660 -0.00499281 -0.03631817
v 0.04803781 -0.00273480 -0.03774762
v 0.04639882 -0.00000658 -0.03788977
v 0.03892015 -0.00710469 -0.03449143
v 0.03085704 -0.00720197 -0.03232823
v 0.04821091 -0.01003640 -0.03215217
v 0.03899717 -0.00662981 -0.03484324
v 0.03838623 -0.00661885 -0.03472913
v 0.02792978 -0.00558614 -0.03225561
v 0.03925468 -0.00437415 -0.03604708
v 0.02965403 -0.00533830 -0.03303209
v 0.02545299 -0.00526380 -0.03137351
v 0.02745050 -0.00324582 -0.03298817
v 0.03494238 -0.00364973 -0.03533542
v 0.04810233 -0.00440708 -0.03729762
v 0.04095889 -0.00503820 -0.03610608
v 0.04416943 -0.00783539 -0.03470682
v 0.04992798 -0.00981702 -0.03239839
v 0.04776046 -0.00958456 -0.03287755
v 0.03800838 -0.00380772 -0.03598519
v 0.02821864 -0.00322307 -0.03330102
v 0.02844382 -0.00702029 -0.03158538
v 0.02546651 -0.00817475 -0.02941730
v 0.02735527 -0.00328812 -0.03293806
v 0.02552099 -0.00129125 -0.03253866
v 0.04172194 -0.00106155 -0.03723318
v 0.03803184 -0.00033626 -0.03659869
v 0.03558439 -0.00055302 -0.03602741
v 0.02965778 -0.00129078 -0.03419061
v 0.03327084 -0.01136116 -0.02844285
v 0.03574047 -0.00904962 -0.03206500
v 0.04903549 -0.00810142 -0.03477858
v 0.02594504 -0.00079738 -0.03276873
v 0.02605939 -0.00098833 -0.03280221
v 0.04162409 -0.01212901 -0.02830998
v 0.02644061 -0.00524439 -0.03182531
v 0.03805256 -0.00254899 -0.03635385
v 0.02943587 -0.00230225 -0.03397048
v 0.04028269 -0.00271047 -0.03676020
v 0.03770829 -0.00405590 -0.03583824
v 0.04918450 -0.00028106 -0.03811720
v 0.02515904 -0.00693042 -0.03025378
v 0.04530807 -0.00114497 -0.03772496
v 0.02579520 -0.01155767 -0.02555423
v 0.03196076 -0.00760096 -0.03236198
v 0.04280181 -0.01114753 -0.03025504
v 0.04368467 -0.00331975 -0.03713172
v 0.03338767 -0.01229547 -0.02689639
v 0.03083234 -0.00602900 -0.03307610
v 0.02509623 -0.00327395 -0.03197507
v 0.03600862 -0.00124700 -0.03605936
v 0.03400518 -0.01182990 -0.02788406
v 0.03358757 -0.00703166 -0.03327534
v 0.03751355 -0.00830168 -0.03320148
v 0.04476718 -0.01109915 -0.03034810
v 0.04909096 -0.00633286 -0.03633687
v 0.03368804 -0.01025960 -0.03010939
v 0.03635851 -0.00750632 -0.03363083
v 0.02975356 -0.00640214 -0.03247275
v 0.03225684 -0.00217554 -0.03492298
v 0.04933582 -0.00744828 -0.03545006
v 0.03992988 -0.00284677 -0.03666824
v 0.03109577 -0.00377676 -0.03417252
v 0.03849943 -0.00186522 -0.03654065
v 0.02867619 -0.00643599 -0.03206294
v 0.04726967 -0.01315068 -0.02500271
v 0.02836968 -0.00299963 -0.03341518
v 0.02536354 -0.00792874 -0.02958154
v 0.03340459 -0.00711209 -0.03316750
v 0.03031459 -0.00690058 -0.03234403
v 0.03070360 -0.00967357 -0.02993253
v 0.03004117 -0.00830287 -0.03113497
v 0.04220677 -0.00250933 -0.03709635
v 0.04063299 -0.01330952 -0.02560380
v 0.03099649 -0.01240458 -0.02608327
v 0.04292238 -0.00678069 -0.03541154
v 0.04960364 -0.00751617 -0.03539396
v 0.04758065 -0.00819357 -0.03463701
v 0.02780608 -0.00347741 -0.03306356
v 0.04299314 -0.00286614 -0.03713699
v 0.03418819 -0.00112605 -0.03561251
v 0.04950615 -0.00469651 -0.03729444
v 0.04426377 -0.01219330 -0.02812111
v 0.03056590 -0.00378916 -0.03398376
v 0.04729733 -0.00600557 -0.03642388
v 0.02644283 -0.00131679 -0.03293113
v 0.04544949 -0.01311737 -0.02559912
v 0.03847659 -0.01223849 -0.02787228
v 0.03284199 -0.01014724 -0.03001399
v 0.02626240 -0.01119501 -0.02632872
v 0.04645961 -0.00000648 -0.03789639
v 0.03849742 -0.00952520 -0.03210279
v 0.04181961 -0.00557096 -0.03597505
v 0.02973102 -0.01274682 -0.02506066
v 0.03644757 -0.00602863 -0.03466087
v 0.04455893 -0.00490256 -0.03669922
v 0.04918780 -0.00318951 -0.03774314
v 0.03390717 -0.01324242 -0.02510185
v 0.02831320 -0.00877843 -0.03002885
v 0.04579403 -0.00122981 -0.03776861
v 0.04351751 -0.01308773 -0.02601058
v 0.03472542 -0.01331983 -0.02506455
v 0.04772175 -0.00301310 -0.03765669
v 0.02570522 -0.00496003 -0.03162869
v 0.03198949 -0.00327650 -0.03459652
v 0.04999718 -0.00204758 -0.03802441
v 0.04797595 -0.00038302 -0.03802940
v 0.03577733 -0.00733754 -0.03362581
v 0.04301413 -0.00451099 -0.03663963
v 0.03167931 -0.00059939 -0.03490908
v 0.04532583 -0.01218844 -0.02805568
v 0.02665225 -0.00742581 -0.03055832
v 0.03437515 -0.00212826 -0.03554596
v 0.04773407 -0.00521268 -0.03691117
v 0.03570828 -0.00624149 -0.03436872
v 0.02972676 -0.00207884 -0.03410513
v 0.04840233 -0.00190352 -0.03791019
v 0.03075197 -0.00893359 -0.03077060
v 0.03275082 -0.00690008 -0.03312644
v 0.04651625 -0.00255235 -0.03765086
v 0.04938796 -0.01266430 -0.02572480
v 0.03095005 -0.00304251 -0.03432670
v 0.02943310 -0.00629229 -0.03242551
v 0.03648820 -0.00133776 -0.03616334
v 0.03828899 -0.01349383 -0.02506316
v 0.03109294 -0.00673188 -0.03272315
v 0.02880081 -0.00478728 -0.03298047
v 0.03580136 -0.01178339 -0.02833431
v 0.04158091 -0.00030470 -0.03726342
v 0.04768088 -0.00999696 -0.03224646
v 0.04722536 -0.00804406 -0.03477661
v 0.02684684 -0.00796238 -0.03020948
v 0.04033872 -0.01215737 -0.02822581
v 0.04042640 -0.00465866 -0.03618497
v 0.04715740 -0.00474268 -0.03707448
v 0.04556667 -0.00979129 -0.03253838
v 0.03529213 -0.00239038 -0.03574200
v 0.02550025 -0.00426141 -0.03182748
v 0.03506207 -0.00587361 -0.03441147
v 0.03311319 -0.00791955 -0.03245164
v 0.04562257 -0.00546850 -0.03656860
v 0.03181897 -0.00791685 -0.03206057
v 0.03270644 -0.00577623 -0.03381181
v 0.02621389 -0.00624874 -0.03118130
v 0.03856763 -0.01308959 -0.02611149
v 0.03189566 -0.00810586 -0.03192490
v 0.04826164 -0.01282284 -0.02570389
v 0.02992795 -0.00682956 -0.03225557
v 0.03939607 -0.00242522 -0.03664753
v 0.04797643 -0.00327256 -0.03761682
v 0.02514255 -0.00624972 -0.03069091
v 0.04065693 -0.00485004 -0.03615114
v 0.02659778 -0.00777101 -0.03026139
v 0.02898084 -0.00324745 -0.03359539
v 0.04769461 -0.01056449 -0.03120571
v 0.03235949 -0.01312282 -0.02506874
v 0.04278716 -0.00665013 -0.03548158
v 0.04776587 -0.00922460 -0.03338659
v 0.03097604 -0.00429404 -0.03394620
v 0.04803045 -0.01229321 -0.02726848
v 0.04100483 -0.01327924 -0.02568103
v 0.04517719 -0.00653500 -0.03586874
v 0.04803370 -0.00886444 -0.03386426
v 0.04365999 -0.00407803 -0.03689498
v 0.03824942 -0.00261871 -0.03638765
v 0.04791254 -0.01171460 -0.02876220
v 0.02818002 -0.00716957 -0.03136992
v 0.03389073 -0.00327713 -0.03516506
v 0.02778882 -0.00302991 -0.03318306
v 0.03122427 -0.00679263 -0.03272380
v 0.03928332 -0.00696635 -0.03466306
v 0.04698656 -0.00407757 -0.03729744
v 0.03315254 -0.00810169 -0.03231040
v 0.04118254 -0.00681169 -0.03511213
v 0.03891305 -0.00287864 -0.03646067
v 0.04994361 -0.00931221 -0.03320880
v 0.02520486 -0.00786295 -0.02956321
v 0.04069460 -0.00053223 -0.03711388
v 0.04260260 -0.00918570 -0.03311144
v 0.02749425 -0.00645602 -0.03157979
v 0.04393040 -0.00468924 -0.03670095
v 0.04192846 -0.01223788 -0.02808204
v 0.04020060 -0.00700766 -0.03480358
v 0.02707236 -0.00522295 -0.03209258
v 0.03405795 -0.01048001 -0.02993204
v 0.04909346 -0.00441809 -0.03736856
v 0.03599421 -0.01286211 -0.02631462
v 0.03135190 -0.00887315 -0.03102852
v 0.02662777 -0.00536872 -0.03184309
v 0.03616629 -0.00437614 -0.03539583
v 0.03885554 -0.00294536 -0.03643066
v 0.04079967 -0.01312146 -0.02610440
v 0.02818185 -0.00606855 -0.03209534
v 0.02981609 -0.00338709 -0.03384650
v 0.04079668 -0.00345779 -0.03666310
v 0.03568595 -0.00939329 -0.03167378
v 0.04880509 -0.00418653 -0.03743118
v 0.02873527 -0.01237961 -0.02543662
v 0.02812332 -0.00781017 -0.03085414
v 0.03397421 -0.01284649 -0.02599578
v 0.04594954 -0.01323367 -0.02512175
v 0.02684017 -0.00576913 -0.03171925
v 0.04420632 -0.00038757 -0.03764906
v 0.04068537 -0.00848734 -0.03360565
v 0.03918491 -0.00310619 -0.03645084
v 0.04057766 -0.00838042 -0.03370071
v 0.03377277 -0.00218821 -0.03538038
v 0.03290307 -0.01192137 -0.02743870
v 0.03740975 -0.00909990 -0.03237219
v 0.04527029 -0.00862116 -0.03402499
v 0.02745107 -0.00050108 -0.03339671
v 0.03549675 -0.00369189 -0.03546703
v 0.03100472 -0.00282162 -0.03440375
v 0.03786842 -0.01315716 -0.02590102
v 0.04541566 -0.00865079 -0.03400138
v 0.03072950 -0.01153040 -0.02749345
v 0.04465441 -0.00792609 -0.03467382
v 0.02566005 -0.00625490 -0.03092734
v 0.04768073 -0.00767035 -0.03516084
f 558 182 433
f 583 82 533
f 533 82 182
f 308 433 182
f 182 82 308
f 182 120 613
f 82 55 536
f 536 308 82
f 489 533 182
f 182 613 403
f 403 489 182
f 598 489 403
f 403 613 120
f 456 182 558
f 558 120 456
f 456 120 182
f 95 534 444
f 558 433 586
f 400 16 336
f 336 598 400
f 598 403 400
f 558 586 17
f 17 586 648
f 519 127 91
f 290 95 444
f 534 95 269
f 95 604 269
f 336 569 548
f 336 16 272
f 16 668 272
f 386 509 121
f 164 249 289
f 249 242 289
f 34 424 624
f 638 279 564
f 101 279 638
f 689 363 678
f 598 363 97
f 199 363 689
f 312 228 76
f 490 82 583
f 583 127 490
f 161 519 520
f 127 519 161
f 520 184 161
f 643 534 442
f 645 604 414
f 691 624 414
f 414 624 645
f 314 604 95
f 95 461 314
f 54 461 95
f 95 290 54
f 290 672 54
f 557 461 54
f 54 672 557
f 669 515 442
f 442 534 669
f 534 269 669
f 645 624 276
f 624 424 276
f 276 604 645
f 276 269 604
f 276 669 269
f 336 548 250
f 577 250 548
f 336 250 577
f 650 655 418
f 10 675 328
f 328 484 10
f 331 416 500
f 164 354 628
f 628 249 164
f 628 330 249
f 261 294 133
f 709 121 509
f 66 242 249
f 66 480 394
f 394 492 64
f 64 492 62
f 64 66 394
f 62 66 64
f 324 492 316
f 103 256 48
f 308 125 483
f 433 308 483
f 332 692 111
f 79 390 394
f 394 480 79
f 79 66 249
f 480 66 79
f 408 48 256
f 665 48 408
f 574 678 363
f 574 598 336
f 574 363 598
f 539 402 106
f 166 402 539
f 357 572 539
f 407 191 147
f 147 402 166
f 409 695 91
f 91 695 356
f 583 533 325
f 325 14 583
f 38 612 166
f 446 679 580
f 580 381 446
f 625 381 580
f 111 188 540
f 379 188 240
f 648 586 240
f 240 188 648
f 77 586 433
f 433 690 77
f 285 522 544
f 285 19 522
f 111 362 364
f 364 362 648
f 648 362 590
f 590 362 44
f 312 76 510
f 16 400 510
f 510 400 312
f 169 653 349
f 318 579 169
f 86 44 224
f 381 625 637
f 637 86 224
f 349 653 457
f 149 86 566
f 26 228 312
f 349 603 593
f 593 603 318
f 593 169 349
f 318 169 593
f 463 208 488
f 159 208 463
f 202 159 81
f 705 646 488
f 488 208 705
f 327 682 395
f 430 682 327
f 520 519 427
f 521 421 116
f 116 67 521
f 521 67 11
f 410 67 159
f 11 67 410
f 51 67 116
f 51 490 127
f 82 490 703
f 301 703 490
f 682 430 626
f 75 626 106
f 644 626 75
f 359 572 357
f 357 18 359
f 664 199 689
f 43 191 407
f 207 227 542
f 442 372 542
f 210 643 442
f 442 542 210
f 504 210 146
f 659 414 604
f 604 314 659
f 636 672 290
f 636 290 444
f 560 424 515
f 515 669 560
f 560 276 424
f 669 276 560
f 369 295 170
f 170 711 369
f 180 295 369
f 548 295 180
f 386 484 129
f 129 484 328
f 160 585 508
f 336 577 200
f 200 574 336
f 577 346 200
f 475 354 164
f 655 465 475
f 155 465 655
f 655 650 155
f 155 650 354
f 354 475 155
f 155 475 465
f 231 650 418
f 110 160 303
f 315 666 675
f 416 303 315
f 500 496 36
f 36 331 500
f 416 331 300
f 261 133 96
f 323 10 37
f 37 10 484
f 696 133 294
f 294 698 696
f 121 133 696
f 696 698 121
f 386 121 258
f 258 698 386
f 121 698 258
f 369 709 302
f 302 709 509
f 302 102 369
f 302 509 386
f 386 102 302
f 623 709 369
f 369 711 623
f 623 711 60
f 60 702 623
f 334 60 569
f 334 524 60
f 334 569 336
f 336 272 334
f 60 524 570
f 242 66 671
f 273 584 466
f 394 390 375
f 375 492 394
f 679 692 389
f 692 332 389
f 620 390 2
f 620 375 390
f 428 375 620
f 544 428 620
f 2 390 245
f 245 79 2
f 390 79 245
f 338 79 249
f 249 330 338
f 338 330 538
f 469 497 189
f 564 220 469
f 469 189 638
f 638 564 469
f 404 461 557
f 370 171 185
f 185 171 222
f 481 564 279
f 34 564 481
f 88 408 101
f 665 408 88
f 88 101 638
f 39 299 546
f 166 539 107
f 107 539 572
f 656 147 191
f 106 402 656
f 402 147 656
f 407 147 178
f 199 664 178
f 166 199 178
f 178 147 166
f 495 409 91
f 495 127 583
f 91 127 495
f 583 14 495
f 495 14 409
f 621 670 91
f 91 356 621
f 621 356 670
f 468 670 518
f 518 356 695
f 139 695 535
f 535 476 139
f 139 518 695
f 535 695 148
f 695 409 148
f 409 14 148
f 128 97 612
f 239 592 535
f 535 148 239
f 239 148 14
f 31 476 535
f 535 592 31
f 612 97 494
f 97 229 494
f 589 97 363
f 589 229 97
f 166 612 595
f 595 199 166
f 679 446 260
f 260 446 381
f 538 625 236
f 236 338 538
f 79 338 236
f 306 332 111
f 111 540 306
f 122 540 544
f 544 620 122
f 122 620 332
f 332 306 122
f 122 306 540
f 700 285 544
f 544 540 700
f 700 540 188
f 19 285 287
f 648 590 594
f 594 590 44
f 44 86 594
f 594 17 648
f 594 86 17
f 29 362 111
f 111 692 29
f 29 692 679
f 566 86 684
f 86 637 684
f 684 457 653
f 653 149 684
f 684 149 566
f 617 149 17
f 17 86 617
f 86 149 617
f 579 275 205
f 205 169 579
f 412 579 318
f 318 603 412
f 195 209 400
f 195 400 403
f 312 400 425
f 228 26 342
f 196 387 342
f 342 575 196
f 342 26 603
f 603 575 342
f 349 457 4
f 4 603 349
f 4 575 603
f 457 684 4
f 118 208 699
f 208 41 458
f 61 208 159
f 159 202 61
f 202 552 61
f 309 552 202
f 699 208 309
f 20 27 68
f 348 144 181
f 106 365 687
f 697 365 106
f 106 512 697
f 697 512 683
f 554 687 365
f 74 286 657
f 641 554 657
f 90 57 699
f 74 57 90
f 629 605 8
f 8 286 629
f 699 605 629
f 629 90 699
f 629 286 74
f 74 90 629
f 532 430 327
f 106 430 532
f 532 512 106
f 683 512 377
f 377 657 683
f 377 704 74
f 74 657 377
f 348 704 377
f 377 395 348
f 327 395 377
f 506 181 144
f 74 704 506
f 506 57 74
f 452 605 699
f 452 573 605
f 699 309 452
f 452 309 573
f 81 573 225
f 225 202 81
f 573 309 225
f 421 521 333
f 460 521 159
f 159 463 460
f 216 161 184
f 81 159 216
f 216 184 81
f 490 51 40
f 152 301 421
f 703 301 152
f 91 670 472
f 670 134 472
f 472 519 91
f 472 134 519
f 83 670 468
f 83 18 641
f 468 18 83
f 106 626 502
f 502 430 106
f 257 130 588
f 588 191 257
f 673 191 588
f 565 38 572
f 572 359 565
f 689 678 507
f 678 574 507
f 574 43 507
f 606 43 1
f 1 43 574
f 1 200 606
f 574 200 1
f 257 191 627
f 191 43 627
f 345 542 227
f 685 636 694
f 672 636 685
f 630 210 542
f 630 146 210
f 630 542 115
f 99 210 504
f 220 392 479
f 461 404 479
f 479 404 497
f 432 220 564
f 432 564 34
f 34 392 432
f 414 659 89
f 89 659 392
f 691 414 89
f 89 392 34
f 392 659 514
f 461 479 514
f 514 479 392
f 710 636 444
f 444 534 710
f 534 643 710
f 643 210 710
f 553 170 295
f 553 548 569
f 553 295 548
f 569 60 553
f 60 711 553
f 711 170 553
f 486 577 548
f 548 180 486
f 369 6 486
f 268 129 328
f 328 675 268
f 675 666 268
f 606 200 282
f 257 627 282
f 282 43 606
f 282 627 43
f 707 702 60
f 60 570 707
f 126 231 668
f 126 668 16
f 668 231 437
f 330 628 385
f 385 628 354
f 354 650 385
f 650 231 385
f 305 10 323
f 500 416 499
f 68 27 545
f 545 27 352
f 550 299 9
f 422 299 550
f 331 36 344
f 192 303 416
f 416 300 192
f 682 626 63
f 709 623 264
f 264 623 702
f 524 334 98
f 418 655 98
f 98 272 418
f 98 334 272
f 419 133 121
f 419 671 133
f 702 671 419
f 419 264 702
f 121 709 419
f 709 264 419
f 133 671 137
f 156 671 702
f 156 707 164
f 702 707 156
f 164 289 156
f 156 289 242
f 242 671 156
f 466 584 701
f 584 35 701
f 701 353 466
f 198 35 584
f 522 255 214
f 544 522 214
f 214 428 544
f 316 492 431
f 492 375 431
f 431 584 316
f 277 389 332
f 580 679 277
f 679 389 277
f 332 620 277
f 277 620 2
f 2 79 277
f 541 351 470
f 351 405 470
f 470 405 297
f 112 388 162
f 638 189 634
f 189 263 634
f 537 263 189
f 310 263 537
f 68 73 244
f 541 470 244
f 244 351 541
f 244 470 485
f 497 662 187
f 187 73 68
f 187 662 73
f 189 497 145
f 313 73 497
f 497 404 313
f 559 661 448
f 646 661 559
f 513 661 646
f 207 517 52
f 194 382 411
f 448 661 194
f 194 411 448
f 413 163 55
f 55 372 413
f 370 163 413
f 413 171 370
f 442 515 413
f 413 372 442
f 515 424 413
f 34 481 591
f 591 481 222
f 591 171 34
f 222 171 591
f 546 299 22
f 451 665 9
f 103 48 25
f 25 39 546
f 278 25 353
f 466 353 292
f 292 294 261
f 261 273 292
f 292 273 466
f 85 37 484
f 85 484 386
f 386 698 85
f 322 191 673
f 322 656 191
f 670 356 217
f 217 518 670
f 356 518 217
f 443 139 476
f 518 139 443
f 476 251 443
f 288 609 157
f 288 131 609
f 592 239 599
f 14 325 599
f 599 239 14
f 319 31 592
f 226 128 612
f 612 38 226
f 38 31 226
f 477 128 226
f 226 131 477
f 609 131 226
f 229 589 642
f 642 595 229
f 199 595 642
f 679 260 109
f 109 29 679
f 362 29 109
f 44 362 109
f 706 260 381
f 706 637 224
f 381 637 706
f 79 236 283
f 283 236 625
f 283 277 79
f 283 625 580
f 580 277 283
f 575 4 232
f 232 4 684
f 447 287 690
f 19 287 447
f 567 188 379
f 379 77 567
f 567 77 690
f 690 287 567
f 285 700 320
f 320 287 285
f 320 567 287
f 320 700 188
f 188 567 320
f 151 76 228
f 151 510 76
f 138 637 625
f 138 684 637
f 17 169 482
f 169 205 482
f 205 693 482
f 482 693 558
f 558 17 482
f 203 412 603
f 603 425 203
f 440 275 579
f 579 412 440
f 658 425 603
f 312 425 658
f 387 498 647
f 647 342 387
f 228 342 647
f 498 151 647
f 647 151 228
f 401 41 208
f 208 118 401
f 383 57 41
f 699 57 383
f 383 118 699
f 150 458 41
f 41 57 150
f 150 347 473
f 179 309 202
f 179 225 309
f 646 705 686
f 686 478 646
f 172 478 208
f 555 478 172
f 473 347 172
f 204 470 297
f 158 201 439
f 348 158 439
f 646 7 50
f 646 478 576
f 576 7 646
f 576 478 555
f 297 405 503
f 555 172 651
f 651 576 555
f 7 576 651
f 651 204 297
f 201 204 651
f 619 50 7
f 297 503 619
f 331 388 65
f 206 554 365
f 687 554 241
f 154 657 556
f 641 657 154
f 529 286 8
f 529 657 286
f 8 556 529
f 556 657 529
f 660 506 144
f 57 506 660
f 660 150 57
f 144 347 660
f 347 150 660
f 8 605 140
f 140 543 8
f 427 543 376
f 520 427 376
f 543 140 376
f 376 573 81
f 605 573 376
f 376 140 605
f 376 184 520
f 81 184 376
f 254 152 421
f 82 703 254
f 703 152 254
f 421 411 339
f 339 254 421
f 207 542 262
f 262 517 207
f 262 542 372
f 262 55 82
f 262 372 55
f 93 333 448
f 421 333 93
f 448 411 93
f 93 411 421
f 448 333 396
f 488 646 530
f 646 559 530
f 530 559 448
f 448 396 530
f 67 51 602
f 159 67 602
f 602 216 159
f 602 51 127
f 127 161 602
f 161 216 602
f 143 51 116
f 143 40 51
f 616 543 427
f 427 246 616
f 8 543 616
f 438 134 670
f 670 83 438
f 556 246 438
f 519 134 438
f 438 427 519
f 438 246 427
f 644 493 462
f 508 644 462
f 38 565 72
f 407 178 337
f 337 178 664
f 337 43 407
f 337 507 43
f 661 513 221
f 423 630 115
f 115 542 423
f 243 423 474
f 630 423 243
f 694 636 5
f 5 99 694
f 210 99 5
f 5 710 210
f 694 99 393
f 393 685 694
f 351 685 393
f 368 23 84
f 504 146 298
f 298 596 504
f 596 298 53
f 53 298 146
f 220 479 174
f 174 479 497
f 71 392 220
f 220 432 71
f 71 432 392
f 369 102 141
f 654 486 6
f 186 180 369
f 369 486 186
f 186 486 180
f 291 303 160
f 346 654 291
f 119 315 291
f 291 315 303
f 346 291 343
f 343 291 160
f 257 282 32
f 32 130 257
f 32 493 130
f 32 462 493
f 459 707 570
f 459 524 655
f 459 570 524
f 655 475 459
f 459 475 164
f 164 707 459
f 212 231 418
f 212 437 231
f 663 496 500
f 500 499 663
f 663 499 416
f 335 27 304
f 304 176 335
f 607 176 304
f 304 20 607
f 27 20 304
f 415 36 496
f 415 550 36
f 422 550 415
f 496 305 415
f 415 305 323
f 335 36 600
f 36 550 600
f 600 550 9
f 9 352 600
f 600 27 335
f 352 27 600
f 491 388 331
f 331 344 491
f 162 388 491
f 213 36 335
f 213 344 36
f 607 344 213
f 110 303 42
f 303 192 42
f 42 300 110
f 42 192 300
f 417 626 644
f 417 63 626
f 644 117 417
f 655 524 142
f 142 98 655
f 524 98 142
f 30 324 261
f 261 96 30
f 406 671 66
f 406 137 671
f 167 375 428
f 428 214 167
f 167 431 375
f 167 214 255
f 584 431 167
f 635 244 485
f 259 244 635
f 384 20 68
f 384 162 607
f 607 20 384
f 9 665 235
f 235 352 9
f 235 464 263
f 235 263 310
f 113 259 68
f 68 244 113
f 113 244 259
f 351 244 355
f 355 685 351
f 132 244 73
f 497 73 618
f 618 662 497
f 73 662 618
f 611 187 68
f 310 145 350
f 497 187 350
f 350 145 497
f 252 661 227
f 252 194 661
f 382 194 252
f 207 382 252
f 252 227 207
f 19 447 708
f 708 447 690
f 581 549 271
f 271 549 677
f 271 454 581
f 610 481 279
f 24 185 610
f 610 185 222
f 222 481 610
f 34 171 135
f 370 185 223
f 185 374 223
f 317 374 185
f 323 22 100
f 323 37 108
f 108 22 323
f 391 48 665
f 665 451 391
f 299 39 165
f 9 299 165
f 165 451 9
f 39 25 165
f 165 25 48
f 48 391 165
f 165 391 451
f 103 25 523
f 47 85 698
f 698 219 47
f 47 219 22
f 673 94 601
f 601 322 673
f 601 94 644
f 644 75 601
f 106 656 371
f 656 322 371
f 371 75 106
f 455 251 476
f 378 288 157
f 527 625 538
f 527 538 196
f 196 538 547
f 547 387 196
f 622 498 387
f 387 547 622
f 16 498 622
f 622 126 16
f 209 412 183
f 412 203 183
f 183 203 425
f 400 209 183
f 183 425 400
f 275 440 233
f 652 412 209
f 652 440 412
f 209 195 652
f 603 26 441
f 441 658 603
f 614 686 705
f 478 686 614
f 614 705 208
f 208 478 614
f 473 172 597
f 208 458 597
f 597 172 208
f 646 50 426
f 426 50 84
f 84 23 426
f 201 651 15
f 15 439 201
f 15 347 144
f 15 144 348
f 348 439 15
f 270 619 503
f 7 651 58
f 58 619 7
f 58 651 297
f 297 619 58
f 388 112 21
f 21 237 388
f 395 237 21
f 21 112 158
f 21 158 348
f 348 395 21
f 293 237 117
f 293 117 644
f 388 237 293
f 554 206 667
f 683 657 667
f 667 657 554
f 357 241 531
f 531 18 357
f 531 241 554
f 411 52 578
f 578 339 411
f 578 52 517
f 517 339 578
f 526 339 517
f 517 262 526
f 254 339 526
f 82 254 525
f 525 262 82
f 254 526 525
f 525 526 262
f 463 530 608
f 608 460 463
f 267 396 333
f 267 530 396
f 267 333 521
f 521 460 267
f 460 608 267
f 267 608 530
f 361 143 116
f 301 143 361
f 116 421 361
f 421 301 361
f 45 143 301
f 40 143 45
f 8 616 173
f 173 616 246
f 173 556 8
f 173 246 556
f 556 438 80
f 105 83 641
f 105 438 83
f 641 154 105
f 105 80 438
f 28 18 468
f 28 359 18
f 476 31 280
f 280 31 38
f 38 72 280
f 227 661 516
f 104 345 227
f 474 23 69
f 69 243 474
f 23 53 69
f 69 53 146
f 146 630 69
f 23 368 528
f 528 53 23
f 596 53 528
f 504 596 528
f 528 99 504
f 681 99 528
f 50 619 124
f 619 368 124
f 351 393 501
f 501 619 351
f 501 368 619
f 13 654 346
f 486 654 13
f 13 346 577
f 577 486 13
f 119 291 649
f 649 315 119
f 649 291 654
f 274 282 200
f 274 633 282
f 274 200 346
f 160 32 358
f 358 343 160
f 418 272 59
f 59 212 418
f 311 315 675
f 416 315 311
f 311 663 416
f 607 162 587
f 162 491 587
f 587 344 607
f 587 491 344
f 324 30 398
f 62 492 398
f 492 324 398
f 398 30 137
f 137 406 398
f 78 167 677
f 78 198 584
f 584 167 78
f 3 635 485
f 158 112 3
f 112 635 3
f 259 384 238
f 259 635 136
f 136 384 259
f 136 635 112
f 136 112 162
f 632 235 665
f 464 235 632
f 561 545 352
f 352 235 561
f 230 611 561
f 561 235 310
f 68 545 561
f 561 611 68
f 561 350 230
f 310 350 561
f 615 355 244
f 685 355 435
f 557 672 435
f 672 685 435
f 73 313 562
f 562 132 73
f 640 404 557
f 557 132 640
f 551 132 557
f 244 132 551
f 551 615 244
f 677 549 688
f 103 523 688
f 688 78 677
f 103 688 153
f 454 177 12
f 581 454 12
f 12 549 581
f 12 688 549
f 12 153 688
f 266 271 677
f 281 271 266
f 266 255 522
f 266 167 255
f 677 167 266
f 450 708 690
f 321 177 454
f 454 271 321
f 46 271 281
f 46 321 271
f 24 321 46
f 680 610 279
f 171 413 168
f 168 135 171
f 413 135 168
f 33 413 424
f 33 135 413
f 424 34 33
f 34 135 33
f 247 163 370
f 370 223 247
f 247 223 374
f 247 317 582
f 374 317 247
f 114 299 422
f 114 22 299
f 114 100 22
f 211 698 294
f 211 219 698
f 294 292 211
f 211 292 353
f 25 278 265
f 265 523 25
f 157 319 380
f 380 378 157
f 380 319 592
f 288 378 56
f 598 288 56
f 56 489 598
f 248 138 625
f 625 527 248
f 684 138 248
f 434 527 196
f 196 575 434
f 575 232 434
f 420 622 547
f 420 547 538
f 538 330 420
f 330 385 420
f 385 622 420
f 511 385 231
f 511 622 385
f 558 233 639
f 639 120 558
f 639 233 440
f 440 652 639
f 639 652 195
f 639 403 120
f 639 195 403
f 312 658 453
f 658 441 453
f 453 26 312
f 453 441 26
f 234 516 571
f 193 651 172
f 193 15 651
f 351 619 373
f 619 270 373
f 360 65 388
f 331 65 360
f 360 300 331
f 72 28 87
f 87 28 468
f 468 455 87
f 87 455 476
f 476 280 87
f 87 280 72
f 661 221 505
f 505 516 661
f 681 528 123
f 123 528 368
f 190 393 99
f 99 501 190
f 190 501 393
f 129 268 568
f 568 436 129
f 568 268 666
f 666 315 568
f 315 649 568
f 654 436 568
f 568 649 654
f 307 102 386
f 307 141 102
f 307 654 6
f 307 436 654
f 307 6 369
f 369 141 307
f 429 32 282
f 429 358 32
f 282 633 429
f 429 274 346
f 633 274 429
f 340 3 485
f 204 3 340
f 485 470 340
f 470 204 340
f 487 201 158
f 158 3 487
f 487 204 201
f 487 3 204
f 68 259 399
f 259 238 399
f 162 384 631
f 631 136 162
f 384 136 631
f 35 198 253
f 253 688 523
f 253 523 471
f 471 278 253
f 253 278 353
f 281 266 326
f 326 450 281
f 708 450 326
f 19 708 326
f 522 19 326
f 326 266 522
f 433 483 449
f 449 483 125
f 125 582 449
f 582 317 449
f 449 317 185
f 449 185 24
f 563 610 177
f 177 321 563
f 24 610 563
f 563 321 24
f 177 610 49
f 70 211 353
f 70 25 546
f 353 25 70
f 546 22 70
f 219 211 70
f 592 599 197
f 197 380 592
f 378 380 197
f 197 599 325
f 674 248 527
f 674 434 232
f 527 434 674
f 674 232 684
f 684 248 674
f 284 234 571
f 571 513 284
f 284 513 646
f 426 234 284
f 646 426 284
f 366 234 474
f 474 423 366
f 516 234 366
f 366 423 542
f 227 516 366
f 366 104 227
f 388 293 341
f 341 360 388
f 367 293 644
f 676 501 99
f 368 501 676
f 676 123 368
f 386 129 467
f 467 307 386
f 129 436 467
f 436 307 467
f 445 253 198
f 688 253 445
f 198 78 445
f 78 688 445
f 175 450 690
f 433 449 175
f 175 690 433
f 610 680 215
f 215 49 610
f 177 49 215
f 215 680 279
f 215 408 256
f 215 12 177
f 153 12 215
f 215 256 103
f 103 153 215
f 22 219 296
f 296 70 22
f 219 70 296
f 92 56 378
f 378 197 92
f 92 197 56
f 397 197 325
f 56 197 397
f 218 367 644
f 218 644 508
f 110 300 218
f 300 360 218
f 508 585 218
f 585 160 218
f 218 160 110
f 281 450 329
f 450 175 329
f 329 46 281
f 329 175 449
f 24 46 329
f 329 449 24
f 77 240 586
f 379 240 77
f 648 188 364
f 364 188 111
f 653 169 149
f 149 169 17
f 410 521 11
f 159 521 410
f 273 324 316
f 261 324 273
f 316 584 273
f 572 38 107
f 107 38 166
f 595 494 229
f 612 494 595
f 309 61 552
f 208 61 309
f 512 532 377
f 377 532 327
f 348 181 506
f 506 704 348
f 502 626 430
f 673 588 493
f 493 94 673
f 644 94 493
f 493 588 130
f 89 34 624
f 89 624 691
f 514 659 314
f 514 314 461
f 145 537 189
f 310 537 145
f 411 382 52
f 52 382 207
f 97 128 288
f 598 97 288
f 288 128 477
f 477 131 288
f 226 319 157
f 31 319 226
f 157 609 226
f 642 589 363
f 363 199 642
f 224 44 706
f 44 109 706
f 706 109 260
f 16 510 151
f 151 498 16
f 383 401 118
f 41 401 383
f 202 225 179
f 357 539 241
f 241 539 106
f 106 687 241
f 530 463 488
f 689 507 337
f 337 664 689
f 636 710 5
f 497 469 174
f 174 469 220
f 32 160 508
f 508 462 32
f 335 176 213
f 213 176 607
f 417 395 682
f 417 237 395
f 117 237 417
f 682 63 417
f 133 137 30
f 30 96 133
f 187 611 350
f 350 611 230
f 37 85 47
f 47 108 37
f 22 108 47
f 322 601 371
f 371 601 75
f 518 443 455
f 468 518 455
f 455 443 251
f 233 205 275
f 558 693 233
f 233 693 205
f 458 150 597
f 597 150 473
f 365 697 667
f 667 697 683
f 667 206 365
f 531 554 641
f 641 18 531
f 490 40 45
f 45 301 490
f 556 80 105
f 105 154 556
f 28 72 565
f 28 565 359
f 630 243 69
f 124 368 84
f 84 50 124
f 59 272 668
f 668 437 59
f 437 212 59
f 10 305 311
f 675 10 311
f 311 305 496
f 496 663 311
f 398 406 66
f 398 66 62
f 638 634 632
f 632 88 638
f 665 88 632
f 632 634 263
f 263 464 632
f 640 562 313
f 640 313 404
f 132 562 640
f 355 615 551
f 557 435 551
f 551 435 355
f 247 125 308
f 247 536 55
f 308 536 247
f 55 163 247
f 247 582 125
f 422 415 114
f 114 415 323
f 323 100 114
f 471 523 265
f 265 278 471
f 231 126 511
f 126 622 511
f 234 426 23
f 234 23 474
f 347 15 193
f 193 172 347
f 373 503 405
f 373 405 351
f 373 270 503
f 505 221 513
f 505 513 571
f 571 516 505
f 346 343 429
f 343 358 429
f 399 238 384
f 399 384 68
f 353 701 253
f 253 701 35
f 542 345 366
f 345 104 366
f 681 123 676
f 676 99 681
f 101 408 215
f 279 101 215
f 397 325 533
f 533 489 397
f 489 56 397
f 360 341 218
f 218 341 293
f 293 367 218

