# https://github.com/mikedh/trimesh
v -0.02805437 -0.02617670 0.00739320
v -0.00316650 -0.03089322 0.01960553
v -0.00200398 -0.02517444 0.02967251
v -0.00414622 -0.03441383 0.00352278
v -0.01033343 -0.03304513 0.00833649
v -0.01347148 -0.03230073 0.00789741
v -0.02549106 -0.02632105 0.01336724
v -0.00089953 -0.02304517 0.02964592
v -0.00782124 -0.03304875 0.01070641
v -0.01240529 -0.02353247 0.02706255
v -0.02359201 -0.02511022 0.01815898
v -0.01960204 -0.03059431 0.00606674
v -0.01104273 -0.03339487 0.00300232
v -0.01192614 -0.02588652 0.02697930
v -0.01036667 -0.02047598 0.00953733
v -0.01061216 -0.02993155 0.01922615
v -0.00644446 -0.03428668 0.00207683
v -0.01920860 -0.03020680 0.00927693
v -0.00922559 -0.02847598 0.02332145
v -0.02973205 -0.02296059 0.00199166
v -0.01219036 -0.02821651 0.02253909
v -0.00525319 -0.03438019 0.00244929
v -0.00063915 -0.03106425 0.01939519
v -0.02893549 -0.02603467 0.00446981
v -0.01456343 -0.03241381 0.00455359
v -0.00417343 -0.03053227 0.02020937
v -0.00090368 -0.03457615 0.00362810
v -0.02313463 -0.02938328 0.00039561
v -0.00658360 -0.03276513 0.01255194
v -0.01154873 -0.03194504 0.01208970
v -0.02714111 -0.02670781 0.00744991
v -0.00513500 -0.02442617 0.02937091
v -0.00319484 -0.02752655 0.02660795
v -0.02263353 -0.02814348 0.01223594
v -0.01749072 -0.03070073 0.01030850
v -0.00295729 -0.03097686 0.01945470
v -0.00547920 -0.03420137 0.00469343
v -0.00205358 -0.03038981 0.02086272
v -0.02964063 -0.02524666 0.00294077
v -0.01514407 -0.02790625 0.02131306
v -0.02098452 -0.02536743 0.02117031
v -0.00000116 -0.02834268 0.02534420
v -0.01302402 -0.02047599 0.02112071
v -0.00834367 -0.03181486 0.01495249
v -0.00921109 -0.02832716 0.02366843
v -0.00134605 -0.03454905 0.00376981
v -0.00082280 -0.02546217 0.02970573
v -0.00088112 -0.02047599 0.00022679
v -0.00582640 -0.02905334 0.02311833
v -0.01185088 -0.02804738 0.02303130
v -0.00431476 -0.02647398 0.02821409
v -0.00518884 -0.03439571 0.00219004
v -0.00384691 -0.02368388 0.02950827
v -0.00157540 -0.02047599 0.02376223
v -0.02054605 -0.03056752 0.00096118
v -0.02570628 -0.02679515 0.01114229
v -0.02286149 -0.02649193 0.01698155
v -0.02133421 -0.02581813 0.02054812
v -0.02069237 -0.03014695 0.00581508
v -0.02225217 -0.02602700 0.01903534
v -0.02970128 -0.02573504 0.00048180
v -0.00300273 -0.03421852 0.00645780
v -0.01294563 -0.02788997 0.02275903
v -0.00150287 -0.03301626 0.01333011
v -0.00306361 -0.02640638 0.02849017
v -0.01272866 -0.03278066 0.00610665
v -0.02458274 -0.02480181 0.01669953
v -0.01077461 -0.02818547 0.02327912
v -0.01982799 -0.03089743 0.00107531
v -0.01751687 -0.03149013 0.00459058
v -0.00979631 -0.03060059 0.01802802
v -0.01865386 -0.03056302 0.00868895
v -0.00145111 -0.02047599 0.01977982
v -0.01737146 -0.02271019 0.02418127
v -0.01245637 -0.02583753 0.02681353
v -0.00042593 -0.03416996 0.00736383
v -0.02937312 -0.02592885 0.00021875
v -0.00603634 -0.03099113 0.01867758
v -0.00905433 -0.03385107 0.00025393
v -0.02287026 -0.02780045 0.01303512
v -0.01629199 -0.03208382 0.00023492
v -0.02575267 -0.02796997 0.00401461
v -0.01355342 -0.02522987 0.02651851
v -0.02077652 -0.02803455 0.01550292
v -0.00094678 -0.02458366 0.02970224
v -0.00406199 -0.03437613 0.00420482
v -0.00050399 -0.03469215 0.00056815
v -0.00005280 -0.02154544 0.02483983
v -0.02905299 -0.02271019 0.00014346
v -0.00161642 -0.03465082 0.00126207
v -0.00486804 -0.03315837 0.01170347
v -0.01256572 -0.03051520 0.01644075
v -0.00876564 -0.03390651 0.00002281
v -0.01109398 -0.03299329 0.00762055
v -0.00023453 -0.02271018 0.02965725
v -0.00713351 -0.03108482 0.01801701
v -0.00128101 -0.03354717 0.01056952
v -0.01755158 -0.03083851 0.00954485
v -0.00928857 -0.03379441 0.00099365
v -0.01540787 -0.03237076 0.00028058
v -0.01328285 -0.03294661 0.00293879
v -0.01634544 -0.03044062 0.01297733
v -0.01502906 -0.02853089 0.01991840
v -0.02372641 -0.02837509 0.00863571
v -0.00241652 -0.03139024 0.01825743
v -0.02698158 -0.02740858 0.00084931
v -0.02170254 -0.02980827 0.00459039
v -0.01927305 -0.02853869 0.01580653
v -0.00491031 -0.03206398 0.01556603
v -0.02912340 -0.02272846 0.00550857
v -0.02558056 -0.02615449 0.01380484
v -0.00585814 -0.03436914 0.00081984
v -0.00710498 -0.03090008 0.01856168
v -0.01860643 -0.02751437 0.01932001
v -0.00804858 -0.03385351 0.00409360
v -0.02172808 -0.02335014 0.02036864
v -0.00710239 -0.03372995 0.00657095
v -0.01655404 -0.02348093 0.02476077
v -0.00268035 -0.02805667 0.02576919
v -0.02321889 -0.02748331 0.01352141
v -0.02973084 -0.02494238 0.00007044
v -0.02566052 -0.02819787 0.00011163
v -0.02372538 -0.02798515 0.01069181
v -0.00623124 -0.03194974 0.01549542
v -0.00728551 -0.02047598 0.00002647
v -0.01777721 -0.03155500 0.00208920
v -0.02604765 -0.02766641 0.00501876
v -0.00782099 -0.03350116 0.00755833
v -0.00296490 -0.03345240 0.01073255
v -0.00566276 -0.03437083 0.00166273
v -0.01282624 -0.02753766 0.02350540
v -0.01126720 -0.02601690 0.02705384
v -0.00158851 -0.02047599 0.00168369
v -0.01985962 -0.03089863 0.00067271
v -0.02557923 -0.02319720 0.01519456
v -0.02868591 -0.02383853 0.00812263
v -0.00016763 -0.02366527 0.02971739
v -0.00692910 -0.02775067 0.02547585
v -0.02052787 -0.02790096 0.01625031
v -0.00500401 -0.03425700 0.00478435
v -0.01956243 -0.02542591 0.02240881
v -0.00290505 -0.03462324 0.00029815
v -0.02358805 -0.02908477 0.00262814
v -0.01589358 -0.03141269 0.00917176
v -0.00213219 -0.02826773 0.02540495
v -0.01576152 -0.02282140 0.02515280
v -0.00478119 -0.02599000 0.02895929
v -0.02151199 -0.02844043 0.01303824
v -0.00142545 -0.03103360 0.01945295
v -0.01795501 -0.03133679 0.00479921
v -0.02264491 -0.02706800 0.01561795
v -0.00042342 -0.02818826 0.02565523
v -0.01689241 -0.03184303 0.00201796
v -0.00326502 -0.02835221 0.02511162
v -0.01156067 -0.03302819 0.00669628
v -0.02974865 -0.02543286 0.00189971
v -0.00403441 -0.03436032 0.00444635
v -0.00256706 -0.03461158 0.00204066
v -0.00014990 -0.02752245 0.02675299
v -0.01170139 -0.03332103 0.00180033
v -0.02185700 -0.02537864 0.02026290
v -0.02519138 -0.02829063 0.00382626
v -0.00480111 -0.03095058 0.01918409
v -0.01061717 -0.03337162 0.00460528
v -0.02535221 -0.02373132 0.01554350
v -0.00575429 -0.02720180 0.02671223
v -0.01480079 -0.02577013 0.02574619
v -0.00630670 -0.03398801 0.00544087
v -0.02198138 -0.02672948 0.01754634
v -0.02683152 -0.02571666 0.01291019
v -0.00686528 -0.02668903 0.02734282
v -0.00444472 -0.03332728 0.01092706
v -0.00446972 -0.03312143 0.01206783
v -0.00541110 -0.02271018 0.02912289
v -0.01693860 -0.02872017 0.01777150
v -0.00605102 -0.03382855 0.00687974
v -0.01800394 -0.03098455 0.00795118
v -0.00106591 -0.03434626 0.00605333
v -0.01790142 -0.02324097 0.02378653
v -0.00249410 -0.03249456 0.01478566
v -0.02194084 -0.02599578 0.01947983
v -0.01913735 -0.03109086 0.00294459
v -0.00435208 -0.03169129 0.01695015
v -0.01445280 -0.02047598 0.01333626
v -0.01168866 -0.02819609 0.02282362
v -0.02907687 -0.02275192 0.00579255
v -0.00516057 -0.03348000 0.00970802
v -0.00743483 -0.03401601 0.00342987
v -0.00315293 -0.03258213 0.01439319
v -0.00087078 -0.02047599 0.02459848
v -0.02336611 -0.02926737 0.00003674
v -0.02186300 -0.02804908 0.01389277
v -0.01745054 -0.02478971 0.02416185
v -0.02080510 -0.02537819 0.02134621
v -0.02976499 -0.02360398 0.00128489
v -0.00430535 -0.03302614 0.01264313
v -0.00702996 -0.03267996 0.01262735
v -0.00518556 -0.03136860 0.01772801
v -0.00726002 -0.03278579 0.01209163
v -0.01733506 -0.02875968 0.01723860
v -0.01155681 -0.02315013 0.02748227
v -0.01207301 -0.03325457 0.00154943
v -0.02749102 -0.02649242 0.00752032
v -0.02353371 -0.02806739 0.01076288
v -0.01484837 -0.03253500 0.00088679
v -0.00401776 -0.03448464 0.00244414
v -0.00491094 -0.03260520 0.01381471
v -0.00122906 -0.03403501 0.00798873
v -0.00843617 -0.03264799 0.01184025
v -0.01191985 -0.03330390 0.00003662
v -0.01017267 -0.03224791 0.01203142
v -0.01816333 -0.03088786 0.00812288
v -0.00138947 -0.03350665 0.01076521
v -0.00252494 -0.03455987 0.00296657
v -0.01662584 -0.03115977 0.00945209
v -0.01958165 -0.02047598 0.01524823
v -0.02835077 -0.02640588 0.00416349
v -0.02315687 -0.02824682 0.01076780
v -0.01725328 -0.03130295 0.00719951
v -0.00005298 -0.02047599 0.01950550
v -0.01469088 -0.03259567 0.00053221
v -0.00267045 -0.03418053 0.00683186
v -0.02751998 -0.02573104 0.01132021
v -0.01451922 -0.03203418 0.00765564
v -0.01616736 -0.03173589 0.00627340
v -0.01628893 -0.02695941 0.02245891
v -0.02249899 -0.02346581 0.01955880
v -0.01338446 -0.03298108 0.00187752
v -0.01845674 -0.02916613 0.01470840
v -0.02428404 -0.02047599 0.00510312
v -0.00466801 -0.03323002 0.01138375
v -0.00884683 -0.03256876 0.01185797
v -0.00004250 -0.03378103 0.00941671
v -0.02116777 -0.02701668 0.01777296
v -0.00175000 -0.03465892 0.00045602
v -0.00000725 -0.03335008 0.01167318
v -0.02150792 -0.02974178 0.00614371
v -0.02352863 -0.02729215 0.01362058
v -0.00642954 -0.02747311 0.02611075
v -0.00465004 -0.03077805 0.01958948
v -0.00440717 -0.03333103 0.01092309
v -0.02018922 -0.03036246 0.00589832
v -0.02555959 -0.02595725 0.01450535
v -0.01545704 -0.03235151 0.00004337
v -0.02699023 -0.02568507 0.01261087
v -0.02681357 -0.02457065 0.01297125
v -0.02468730 -0.02827334 0.00631419
v -0.00685066 -0.02993515 0.02081040
v -0.01503538 -0.03228808 0.00438498
v -0.00794241 -0.03370665 0.00574160
v -0.02977139 -0.02465084 0.00168054
v -0.02050239 -0.02974513 0.00891989
v -0.00203295 -0.03107451 0.01929827
v -0.01803100 -0.02047598 0.01670701
v -0.00012735 -0.03430493 0.00658246
v -0.00219126 -0.03464139 0.00084709
v -0.00838961 -0.03329321 0.00854888
v -0.00369935 -0.02352517 0.02950909
v -0.00390216 -0.02815928 0.02540810
v -0.01546658 -0.02839191 0.01993769
v -0.01414642 -0.03068309 0.01462857
v -0.00036535 -0.03378809 0.00936468
v -0.00504996 -0.03033880 0.02047253
v -0.02976283 -0.02532377 0.00176302
v -0.01256008 -0.03016851 0.01737561
v -0.00333553 -0.02047599 0.02454205
v -0.00855588 -0.03350283 0.00672660
v -0.00552626 -0.02819274 0.02505217
v -0.02578739 -0.02720575 0.00890944
v -0.00480956 -0.03446586 0.00088050
v -0.02037835 -0.02792721 0.01636402
v -0.01339596 -0.03298489 0.00160344
v -0.01369642 -0.03159441 0.01134779
v -0.01283694 -0.03140863 0.01314681
v -0.01716474 -0.03098667 0.00957048
v -0.00480750 -0.03256252 0.01398584
v -0.00871069 -0.03363629 0.00527888
v -0.02888570 -0.02573565 0.00701304
v -0.00184964 -0.03462740 0.00209393
v -0.00572177 -0.02921656 0.02278510
v -0.00108630 -0.03290580 0.01369196
v -0.00300240 -0.02047598 0.00279735
v -0.01124948 -0.02349214 0.02759430
v -0.01996838 -0.03073357 0.00325389
v -0.01718591 -0.03076437 0.01055055
v -0.01198798 -0.02861376 0.02169489
v -0.02855729 -0.02513743 0.00848398
v -0.00662057 -0.03147899 0.01691253
v -0.00631682 -0.03366419 0.00778016
v -0.00976882 -0.03079079 0.01758764
v -0.01206541 -0.02979791 0.01863656
v -0.00566672 -0.03293397 0.01240843
v -0.02384705 -0.02895892 0.00276008
v -0.02175250 -0.02647963 0.01846240
v -0.00741847 -0.03084569 0.01856794
v -0.01793168 -0.03040237 0.01083430
v -0.01881925 -0.02934732 0.01351703
v -0.01643199 -0.03104758 0.01044666
v -0.02326930 -0.02601403 0.01777921
v -0.00462176 -0.03106428 0.01888209
v -0.01308492 -0.03295883 0.00366609
v -0.00803170 -0.03385233 0.00413992
v -0.00402139 -0.03417949 0.00612384
v -0.00169977 -0.02047599 0.02303623
v -0.00273782 -0.02289882 0.02953399
v -0.01888659 -0.02821830 0.01725248
v -0.01220463 -0.02917699 0.02012660
v -0.02935908 -0.02556461 0.00504873
v -0.00334149 -0.02520379 0.02960990
v -0.02976110 -0.02524212 0.00114671
v -0.02735296 -0.02647980 0.00810419
v -0.02543214 -0.02772653 0.00734091
v -0.02594971 -0.02698709 0.00953125
v -0.01715102 -0.02378085 0.02438490
v -0.00772064 -0.02562045 0.02875892
v -0.00606325 -0.03324916 0.01059144
v -0.00930433 -0.03134420 0.01605938
v -0.01163272 -0.02539941 0.02744563
v -0.01654360 -0.03194399 0.00244784
v -0.00595668 -0.02819565 0.02496854
v -0.01711074 -0.02815397 0.01919749
v -0.00031979 -0.03300736 0.01341448
v -0.00300183 -0.03422559 0.00641742
v -0.00646696 -0.02869617 0.02371604
v -0.02560848 -0.02821205 0.00090135
v -0.01178586 -0.03333102 0.00020726
v -0.01053888 -0.03139701 0.01507195
v -0.00797927 -0.02052832 0.02369124
v -0.01535406 -0.03226349 0.00332385
v -0.02005427 -0.02814248 0.01618310
v -0.00756500 -0.03412688 0.00075384
v -0.00519626 -0.02285633 0.02934989
v -0.02319768 -0.02901193 0.00572843
v -0.00742335 -0.03011640 0.02022034
v -0.02439223 -0.02450421 0.01697886
v -0.01491447 -0.02519275 0.02579140
v -0.01279400 -0.03149211 0.01281128
v -0.02055287 -0.03058421 0.00019654
v -0.01356735 -0.02668797 0.02471177
v -0.00387829 -0.03080240 0.01967515
v -0.01686858 -0.02327536 0.02456273
v -0.00564126 -0.02814418 0.02512158
v -0.02316112 -0.02895369 0.00647776
v -0.00181339 -0.03452457 0.00386558
v -0.00543593 -0.03439114 0.00166271
v -0.01944447 -0.03078165 0.00516474
v -0.00289778 -0.03455456 0.00269088
v -0.02974832 -0.02352272 0.00069183
v -0.01601504 -0.03130010 0.00968192
v -0.02013292 -0.03077437 0.00059631
v -0.01751010 -0.02283532 0.02410663
v -0.00917252 -0.03296768 0.00997157
v -0.00860402 -0.03300838 0.01028835
v -0.02608999 -0.02435992 0.01443509
v -0.00042012 -0.03303202 0.01331801
v -0.00176802 -0.03291095 0.01361226
v -0.01589169 -0.02397690 0.02516326
v -0.01890142 -0.03109877 0.00390748
v -0.00956776 -0.02876787 0.02247000
v -0.02971320 -0.02361893 0.00224136
v -0.01251185 -0.02758534 0.02356938
v -0.00540830 -0.02660796 0.02779007
v -0.01937716 -0.03082207 0.00506785
v -0.01817632 -0.02573099 0.02351453
v -0.01192713 -0.03306352 0.00557913
v -0.00259946 -0.03441060 0.00482331
v -0.01907444 -0.02816143 0.01721545
v -0.01548334 -0.03100732 0.01203331
v -0.02120481 -0.02547882 0.02094120
v -0.02032207 -0.02915866 0.01201704
v -0.01107409 -0.02283019 0.02764500
v -0.01493331 -0.03205993 0.00667585
v -0.00000354 -0.02271018 0.02789902
v -0.01361484 -0.03077280 0.01483066
v -0.00650684 -0.02599718 0.02859670
v -0.00982194 -0.03369304 0.00097455
v -0.01212372 -0.03201578 0.01114839
v -0.01816106 -0.03147457 0.00000289
v -0.02965798 -0.02275468 0.00235433
v -0.01619514 -0.03058589 0.01265066
v -0.01202593 -0.02284860 0.02722380
v -0.00095946 -0.03464210 0.00211801
v -0.01876079 -0.02777112 0.01853853
v -0.00939162 -0.03330121 0.00737078
v -0.01541454 -0.03155525 0.00914282
v -0.00715106 -0.02822805 0.02454904
v -0.02020384 -0.02818078 0.01590136
v -0.00016919 -0.03469515 0.00064498
v -0.00691992 -0.03339281 0.00912781
v -0.02114212 -0.02966806 0.00764584
v -0.01699700 -0.02583641 0.02423254
v -0.00390136 -0.03449763 0.00237240
v -0.00426756 -0.03347081 0.01018141
v -0.02483146 -0.02047598 0.00102172
v -0.00269202 -0.03433978 0.00560231
v -0.00332834 -0.02653157 0.02825687
v -0.00262674 -0.03183040 0.01684146
v -0.01563311 -0.03144303 0.00945959
v -0.02570950 -0.02755167 0.00742572
v -0.01294462 -0.03270232 0.00621460
v -0.00148557 -0.03374083 0.00950459
v -0.00450823 -0.03292165 0.01291946
v -0.01438740 -0.02887949 0.01947964
v -0.01217533 -0.03221295 0.01018734
v -0.02569781 -0.02790112 0.00479839
v -0.00407100 -0.02681595 0.02767462
v -0.00862939 -0.03148679 0.01594341
v -0.00253779 -0.03463593 0.00001755
v -0.02751287 -0.02658662 0.00669101
v -0.01579283 -0.02531081 0.02524006
v -0.01288458 -0.03310494 0.00123566
v -0.01708554 -0.03138035 0.00696023
v -0.01129096 -0.03095663 0.01618686
v -0.01314129 -0.02278416 0.02660142
v -0.01540281 -0.03231546 0.00235232
v -0.00662244 -0.03237720 0.01385515
v -0.01758232 -0.03097593 0.00883010
v -0.01824938 -0.03102875 0.00692448
v -0.02950019 -0.02578826 0.00302010
v -0.00019980 -0.03407994 0.00784540
v -0.00286950 -0.03461168 0.00161850
v -0.00401282 -0.03454917 0.00021286
v -0.00567988 -0.03391028 0.00663419
v -0.02277640 -0.02870991 0.00916421
v -0.00015193 -0.03123203 0.01890028
v -0.02163597 -0.02559547 0.02049278
v -0.02973484 -0.02275849 0.00089873
v -0.00588200 -0.03097249 0.01878720
v -0.00463858 -0.03432950 0.00429897
v -0.02886032 -0.02308499 0.00719667
v -0.02720215 -0.02575973 0.01199182
v -0.02969903 -0.02271019 0.00159460
v -0.00218058 -0.03404315 0.00774193
v -0.00844803 -0.02944068 0.02140603
v -0.00730305 -0.02576318 0.02881282
v -0.00602432 -0.03435373 0.00080749
v -0.02508056 -0.02791473 0.00739796
v -0.02220201 -0.02664348 0.01749239
v -0.00000491 -0.02047599 0.00281634
v -0.00817717 -0.03388215 0.00351053
v -0.01283643 -0.02825989 0.02205334
v -0.02031638 -0.03059352 0.00300741
v -0.02620094 -0.02357406 0.01422103
v -0.02308630 -0.02573892 0.01878659
v -0.00188210 -0.03393541 0.00840033
v -0.02775158 -0.02285690 0.01043418
v -0.01596951 -0.02799693 0.02050079
v -0.00711297 -0.03422007 0.00032165
v -0.01177125 -0.03278622 0.00776384
v -0.00720351 -0.03418039 0.00133916
v -0.00204561 -0.02819690 0.02556075
v -0.00341312 -0.03432748 0.00534864
v -0.00941138 -0.02047599 0.02292211
v -0.01554360 -0.03059557 0.01336762
v -0.01195256 -0.03205563 0.01115425
v -0.00210923 -0.03425967 0.00657683
v -0.01225304 -0.03304159 0.00516197
v -0.02975576 -0.02315690 0.00095660
v -0.00020248 -0.02956056 0.02272582
v -0.00423222 -0.03357336 0.00960572
v -0.01061604 -0.03349335 0.00254463
v -0.00808346 -0.02788093 0.02488057
v -0.01623433 -0.02323071 0.02492016
v -0.02378916 -0.02573464 0.01781975
v -0.00747307 -0.03375324 0.00598151
v -0.00280576 -0.03459374 0.00213844
v -0.00686108 -0.03343307 0.00890197
v -0.00633872 -0.03432779 0.00033175
v -0.00715499 -0.02811646 0.02476746
v -0.00463964 -0.02047599 0.02431203
v -0.00999898 -0.02825927 0.02346980
v -0.00710109 -0.03135657 0.01710654
v -0.01783558 -0.02834870 0.01799552
v -0.02957079 -0.02474414 0.00360192
v -0.02328304 -0.02740562 0.01366642
v -0.00488213 -0.02456215 0.02941434
v -0.00013289 -0.03084905 0.01996886
v -0.00507212 -0.03436378 0.00315326
v -0.02207020 -0.02425495 0.02004117
v -0.00995224 -0.02798869 0.02403363
v -0.01941724 -0.03102769 0.00198187
v -0.00958561 -0.03047241 0.01843037
v -0.00460090 -0.03143767 0.01769126
v -0.00287689 -0.03452547 0.00315195
v -0.01462998 -0.03232427 0.00518679
v -0.01149492 -0.02492880 0.02751215
v -0.02915942 -0.02271019 0.00508312
v -0.01007428 -0.03299394 0.00892091
v -0.00153139 -0.03083295 0.01993786
v -0.00005659 -0.02848244 0.02504222
v -0.02099203 -0.02887889 0.01202278
v -0.02937050 -0.02528163 0.00498496
v -0.01848478 -0.03083022 0.00769078
v -0.00312010 -0.03452982 0.00283367
v -0.00015654 -0.02047599 0.02429914
v -0.00306961 -0.03328579 0.01161321
v -0.00205291 -0.03441967 0.00496866
v -0.00006097 -0.02679313 0.02793949
v -0.00269655 -0.02574575 0.02959405
v -0.00533251 -0.02308551 0.02932500
v -0.01499562 -0.03122956 0.01153447
v -0.00080635 -0.02817943 0.02565620
v -0.00571667 -0.02811529 0.02515742
v -0.02166151 -0.02635813 0.01888025
v -0.00643495 -0.03129939 0.01755291
v -0.01238702 -0.02873672 0.02112933
v -0.02919557 -0.02590620 0.00403108
v -0.00339067 -0.03282138 0.01360078
v -0.02975724 -0.02354260 0.00181693
v -0.01284501 -0.02778568 0.02302917
v -0.00003056 -0.02047599 0.00228924
v -0.00267437 -0.03070280 0.02010786
v -0.00052140 -0.03469889 0.00016922
v -0.00611610 -0.02543112 0.02916526
v -0.00185661 -0.02047599 0.02384051
v -0.02920283 -0.02583976 0.00475869
v -0.01053648 -0.02048134 0.02245541
v -0.02360885 -0.02271019 0.01788979
v -0.02340960 -0.02047599 0.00816913
v -0.00722910 -0.03325748 0.00979019
v -0.00285740 -0.03370348 0.00938938
v -0.00661319 -0.03427891 0.00162683
v -0.01355560 -0.03273059 0.00447187
v -0.01418704 -0.03102988 0.01339605
v -0.00343193 -0.03269081 0.01400280
v -0.00387059 -0.02586512 0.02929739
v -0.02583110 -0.02795214 0.00356281
v -0.01331430 -0.03096480 0.01454680
v -0.02973355 -0.02452171 0.00016703
v -0.01047998 -0.03242087 0.01107293
v -0.00466662 -0.03406477 0.00642178
v -0.02006795 -0.03065934 0.00354163
v -0.00997189 -0.03262134 0.01069350
v -0.00943868 -0.03119220 0.01652995
v -0.02198072 -0.02901815 0.00943010
v -0.02609415 -0.02794942 0.00054978
v -0.02594008 -0.02300608 0.01466030
v -0.01381895 -0.03184617 0.00989583
v -0.01435923 -0.02982465 0.01685855
v -0.02930259 -0.02560437 0.00530668
v -0.02397151 -0.02860240 0.00629122
v -0.01521637 -0.02841678 0.02007975
v -0.01232961 -0.03314457 0.00324255
v -0.01090526 -0.03169696 0.01363601
v -0.00226891 -0.03154443 0.01780112
v -0.01210312 -0.03326247 0.00070892
v -0.02761896 -0.02701819 0.00087743
v -0.00623959 -0.03425241 0.00305261
v -0.00830421 -0.02751746 0.02544225
v -0.02975207 -0.02353605 0.00186678
v -0.00693332 -0.03424949 0.00061879
v -0.00340428 -0.03430186 0.00567433
v -0.02298345 -0.02852007 0.00979131
v -0.00212577 -0.03463366 0.00148524
v -0.00638086 -0.03432180 0.00057811
v -0.01957237 -0.03100641 0.00093101
v -0.00598518 -0.02047599 0.02397828
v -0.00831331 -0.03091985 0.01797122
v -0.02384305 -0.02271511 0.01760637
v -0.02666348 -0.02642157 0.01031779
v -0.01936669 -0.03072629 0.00588620
v -0.00420641 -0.03452703 0.00051980
v -0.01064394 -0.02676519 0.02596617
v -0.01624123 -0.02579719 0.02478582
v -0.01176153 -0.03040585 0.01728541
v -0.02399515 -0.02885566 0.00362669
v -0.00334112 -0.03455485 0.00212460
v -0.00430337 -0.03423183 0.00559737
v -0.00134146 -0.03303958 0.01323534
v -0.00701366 -0.03045047 0.01960080
v -0.00361883 -0.03413634 0.00664254
v -0.02425771 -0.02569760 0.01718785
v -0.00774021 -0.03409759 0.00050073
v -0.02840153 -0.02271019 0.00812059
v -0.01467714 -0.02922798 0.01826213
v -0.01317017 -0.03266635 0.00601811
v -0.02650610 -0.02277481 0.01344887
v -0.01587187 -0.03050473 0.01329509
v -0.01003108 -0.03101432 0.01680080
v -0.02644384 -0.02359468 0.01372551
v -0.00427309 -0.02594896 0.02910001
v -0.00302474 -0.02877382 0.02423824
v -0.01693553 -0.02857963 0.01816806
v -0.00201155 -0.03150821 0.01796077
v -0.00612110 -0.03422217 0.00362892
v -0.02926546 -0.02483108 0.00544099
v -0.02576739 -0.02315616 0.01491975
v -0.02550340 -0.02826896 0.00000773
v -0.00550234 -0.03345266 0.00968765
v -0.02475681 -0.02555239 0.01643802
v -0.02533732 -0.02722281 0.01008350
v -0.01245982 -0.02818598 0.02248356
v -0.01197528 -0.03218373 0.01054176
v -0.00993302 -0.03276100 0.01014477
v -0.02965677 -0.02393331 0.00278527
v -0.01346668 -0.02047599 0.02082977
v -0.00189118 -0.03435656 0.00573541
v -0.02587158 -0.02498956 0.01476322
v -0.00352868 -0.03438566 0.00452520
v -0.01379979 -0.03151631 0.01159203
v -0.02128820 -0.02047599 0.01265059
v -0.00832287 -0.02952779 0.02125519
v -0.01306060 -0.02993177 0.01765599
v -0.02796518 -0.02574616 0.01000144
v -0.01921268 -0.03039874 0.00837022
v -0.02876330 -0.02346008 0.00776921
v -0.00105673 -0.02462913 0.02969915
v -0.02469454 -0.02047598 0.00063730
v -0.00142105 -0.03452731 0.00398853
v -0.01828468 -0.02818609 0.01801832
v -0.00323251 -0.03425189 0.00615691
v -0.01987226 -0.02703748 0.01914962
v -0.00016273 -0.03166035 0.01757815
v -0.02805419 -0.02577595 0.00960616
v -0.00061642 -0.02531893 0.02971153
v -0.00217862 -0.03375860 0.00928583
v -0.00328750 -0.03305756 0.01279574
v -0.02604964 -0.02796917 0.00068196
v -0.00464515 -0.03111048 0.01873320
v -0.01015222 -0.03235956 0.01159791
v -0.02053827 -0.03059148 0.00044702
v -0.01112307 -0.03302745 0.00738481
v -0.00147138 -0.03463637 0.00202381
v -0.02915406 -0.02567203 0.00598489
v -0.01747862 -0.02301269 0.02413854
v -0.00909231 -0.03384471 0.00019961
v -0.01901159 -0.02452215 0.02286605
v -0.00902850 -0.03359832 0.00510461
v -0.00203808 -0.02819603 0.02556296
v -0.01959351 -0.02719291 0.01906743
v -0.02767748 -0.02557020 0.01093805
v -0.01189468 -0.02569963 0.02731919
v -0.01772054 -0.02530991 0.02393773
v -0.01185670 -0.03105889 0.01540714
v -0.01411564 -0.02828480 0.02116728
v -0.00799811 -0.03293722 0.01106216
v -0.02279231 -0.02287282 0.01910317
v -0.00627396 -0.03416182 0.00397239
v -0.00938351 -0.02889191 0.02226341
v -0.01623789 -0.02047598 0.01860460
v -0.02209702 -0.02974825 0.00338953
v -0.01836680 -0.02779985 0.01889032
v -0.00151299 -0.02047599 0.00122970
v -0.02161717 -0.02849408 0.01260762
v -0.01179019 -0.02612665 0.02660288
v -0.01949030 -0.03095402 0.00323184
v -0.01591886 -0.03206479 0.00360779
v -0.00015006 -0.03345724 0.01110580
v -0.00236602 -0.02931187 0.02315725
v -0.02640371 -0.02485789 0.01380737
v -0.00134021 -0.03086460 0.01987903
v -0.01306011 -0.03299541 0.00325254
v -0.00293018 -0.02720239 0.02717628
v -0.00093764 -0.03468584 0.00018444
v -0.00575778 -0.03387933 0.00678021
v -0.01004956 -0.02820920 0.02356440
v -0.00466194 -0.03447746 0.00101401
v -0.00045075 -0.03468706 0.00080539
v -0.01743435 -0.02048317 0.01774028
v -0.02553142 -0.02520109 0.01527427
v -0.01384717 -0.03179293 0.01014319
v -0.00710917 -0.03254679 0.01304828
v -0.00225120 -0.03461483 0.00227292
v -0.02352015 -0.02880821 0.00629363
v -0.00591940 -0.02862834 0.02403463
v -0.01321215 -0.03115714 0.01386327
v -0.01987729 -0.03082201 0.00240122
v -0.01248255 -0.03316285 0.00209858
v -0.00144571 -0.03466353 0.00082023
v -0.01359612 -0.02663884 0.02478833
v -0.02119543 -0.02460260 0.02093892
v -0.02975040 -0.02291463 0.00104037
v -0.00755859 -0.03291533 0.01142497
v -0.01415901 -0.02051539 0.02050749
v -0.00705860 -0.03128156 0.01738206
v -0.02157955 -0.02421659 0.02055146
v -0.01852102 -0.03135808 0.00001374
v -0.00636781 -0.02867470 0.02379592
v -0.00579564 -0.03425617 0.00379677
v -0.00167921 -0.02466185 0.02967883
v -0.00055817 -0.02523193 0.02971317
v -0.01299447 -0.03009890 0.01724488
v -0.02610314 -0.02397717 0.01441533
v -0.02074569 -0.02536911 0.02139873
v -0.01059490 -0.03323784 0.00617842
v -0.02532074 -0.02803090 0.00551493
v -0.01440049 -0.03105103 0.01306384
v -0.00157828 -0.03310796 0.01284812
v -0.01692779 -0.02855962 0.01823072
v -0.01836040 -0.02802301 0.01834897
v -0.00111104 -0.03467989 0.00028567
v -0.01979468 -0.02275121 0.02205496
v -0.00323086 -0.03459047 0.00150268
v -0.00296079 -0.03462004 0.00059837
v -0.01791555 -0.03131222 0.00526405
v -0.02604783 -0.02316515 0.01449842
v -0.01629931 -0.02834058 0.01937674
v -0.00577991 -0.03253493 0.01371445
v -0.02162368 -0.02829417 0.01342651
v -0.00179456 -0.03053843 0.02055647
v -0.02691346 -0.02457698 0.01275731
v -0.00588478 -0.03370334 0.00787761
v -0.00260613 -0.03463359 0.00010518
v -0.02943456 -0.02526034 0.00459802
v -0.02805188 -0.02675129 0.00126138
v -0.00421448 -0.03451638 0.00114335
v -0.01046332 -0.02568799 0.02785955
v -0.02457590 -0.02290030 0.01658681
v -0.00343072 -0.03458706 0.00113508
v -0.00787468 -0.03399982 0.00253081
v -0.01902465 -0.02905066 0.01433510
v -0.02125476 -0.02447661 0.02087640
v -0.00247040 -0.03463074 0.00104161
v -0.00568938 -0.03279321 0.01287726
v -0.00024757 -0.03323321 0.01227342
v -0.01248542 -0.02861095 0.02138601
v -0.00963250 -0.03092944 0.01732259
v -0.01258098 -0.03316987 0.00080112
v -0.02707239 -0.02488483 0.01241112
v -0.01862144 -0.03132745 0.00043686
v -0.00136480 -0.03305105 0.01317426
v -0.01317629 -0.03098969 0.01456973
v -0.00211868 -0.03462059 0.00214993
v -0.01260864 -0.03294056 0.00519700
v -0.00386175 -0.02486108 0.02955846
v -0.00303631 -0.02553949 0.02964339
v -0.01579605 -0.03224433 0.00022074
v -0.01563117 -0.02780341 0.02120283
v -0.00954224 -0.03087584 0.01749669
v -0.00033930 -0.03448966 0.00462266
v -0.01181068 -0.03186259 0.01219579
v -0.01397013 -0.03244450 0.00593056
v -0.01491909 -0.03120492 0.01177823
v -0.02820555 -0.02587315 0.00870499
v -0.01465930 -0.03259702 0.00085427
v -0.01055482 -0.02653673 0.02640138
v -0.00662162 -0.03409608 0.00407401
v -0.02439545 -0.02879177 0.00052841
v -0.01923081 -0.03107587 0.00242209
v -0.00471269 -0.03138499 0.01782602
v -0.00281521 -0.03451326 0.00336779
v -0.02958967 -0.02580860 0.00084240
v -0.02294376 -0.02519547 0.01903017
v -0.01734635 -0.02812157 0.01906765
v -0.00427382 -0.03333379 0.01096534
v -0.00136718 -0.02289655 0.02961211
v -0.01294084 -0.02423491 0.02681420
v -0.00042016 -0.03400586 0.00822268
v -0.00749082 -0.02677075 0.02700086
v -0.01348839 -0.02577875 0.02642357
v -0.02495338 -0.02853091 0.00055376
v -0.00844126 -0.03121337 0.01696339
v -0.00352650 -0.03303841 0.01282449
v -0.00402816 -0.03011298 0.02114692
v -0.01299899 -0.03304971 0.00250469
v -0.02449433 -0.02828293 0.00707485
v -0.02259202 -0.02539464 0.01944822
v -0.00255415 -0.03240176 0.01506547
v -0.00547628 -0.03434785 0.00275886
v -0.00748007 -0.03354262 0.00761151
v -0.00398705 -0.03431975 0.00504493
v -0.02296513 -0.02902876 0.00661143
v -0.02310986 -0.02499993 0.01883070
v -0.00961170 -0.03206585 0.01321740
v -0.01758839 -0.03144611 0.00489809
v -0.01807015 -0.03150664 0.00017494
v -0.00006576 -0.02639548 0.02859251
v -0.00408488 -0.02565127 0.02952695
v -0.00163184 -0.03061881 0.02039190
v -0.01244660 -0.03091223 0.01542860
v -0.02669165 -0.02691529 0.00781063
v -0.01891488 -0.03058074 0.00807331
v -0.00078345 -0.02572523 0.02968180
v -0.00564538 -0.02677038 0.02746646
v -0.02235981 -0.02795580 0.01343557
v -0.01486275 -0.02833472 0.02055980
v -0.02778462 -0.02286343 0.01035421
v -0.02604417 -0.02578045 0.01427602
v -0.00172634 -0.02545946 0.02968032
v -0.00567827 -0.03437239 0.00153692
v -0.00391054 -0.03419004 0.00612951
v -0.00064189 -0.03213315 0.01609686
v -0.01728226 -0.03154604 0.00485602
v -0.00441085 -0.02381238 0.02948090
v -0.02493351 -0.02841020 0.00382117
v -0.01734630 -0.03077984 0.01021920
v -0.02044563 -0.02596944 0.02111005
v -0.01133861 -0.02567623 0.02756961
v -0.01427471 -0.03266527 0.00246368
v -0.02414999 -0.02766323 0.01104651
v -0.02098825 -0.02640318 0.01950739
v -0.00770277 -0.02271166 0.02861961
v -0.00826103 -0.03329098 0.00869027
v -0.02644986 -0.02278891 0.01358498
v -0.01847409 -0.03118748 0.00458037
v -0.02079543 -0.02731983 0.01742641
v -0.00081557 -0.03459010 0.00349497
v -0.02928708 -0.02507007 0.00537749
v -0.00080109 -0.03461537 0.00307830
v -0.01956139 -0.03072042 0.00524331
v -0.00003254 -0.02341727 0.02971323
v -0.01935913 -0.02866174 0.01531348
v -0.01495924 -0.03018369 0.01532289
v -0.00486006 -0.02425943 0.02941746
v -0.01196169 -0.03299584 0.00614834
v -0.01383058 -0.02584863 0.02612977
v -0.02152215 -0.02272657 0.02050651
v -0.01019775 -0.03359465 0.00197984
v -0.02968103 -0.02572817 0.00225792
v -0.02516072 -0.02843645 0.00035181
v -0.00475482 -0.03433381 0.00410371
v -0.00907968 -0.02275086 0.02822156
v -0.00240480 -0.03461055 0.00229574
v -0.00574004 -0.03430719 0.00318058
v -0.00947566 -0.02783665 0.02450890
v -0.01600894 -0.03031677 0.01374246
v -0.01188791 -0.03320944 0.00357869
v -0.01935319 -0.02877638 0.01489140
v -0.00396099 -0.03201371 0.01602790
v -0.00542871 -0.03429608 0.00388778
v -0.01217887 -0.02726093 0.02432729
v -0.00773351 -0.03345217 0.00803301
v -0.00613962 -0.03305547 0.01169936
v -0.00456571 -0.03397791 0.00702636
v -0.00014965 -0.02583685 0.02951486
v -0.00647609 -0.03427088 0.00223339
v -0.00352622 -0.03406984 0.00707021
v -0.01085676 -0.03298891 0.00798654
v -0.00023754 -0.03464676 0.00216286
v -0.00326594 -0.02900031 0.02370258
v -0.01227467 -0.02772735 0.02342243
v -0.01480387 -0.02535816 0.02586273
v -0.02652586 -0.02733611 0.00539324
v -0.02729132 -0.02705052 0.00401889
v -0.00338914 -0.02271018 0.02943325
v -0.00609933 -0.03303078 0.01186093
v -0.00087071 -0.03428260 0.00673848
v -0.01683093 -0.02838713 0.01879626
v -0.00336023 -0.02829154 0.02522640
v -0.00783902 -0.02809815 0.02458082
v -0.01438023 -0.03096795 0.01346398
v -0.01594371 -0.02739895 0.02180704
v -0.02530382 -0.02532840 0.01561620
v -0.00649748 -0.02654908 0.02766302
v -0.00955698 -0.03345811 0.00567944
v -0.00224794 -0.03441655 0.00491953
v -0.01381020 -0.03086973 0.01439358
v -0.01785087 -0.02279469 0.02379851
v -0.02881963 -0.02626059 0.00006160
v -0.01692602 -0.02601051 0.02393347
v -0.00206673 -0.03432729 0.00600235
v -0.01896406 -0.02047598 0.00001810
v -0.01293117 -0.02762828 0.02328381
v -0.00149721 -0.03347098 0.01093524
v -0.00578716 -0.03438188 0.00009690
v -0.02957737 -0.02508563 0.00355044
v -0.01213510 -0.03263065 0.00808060
v -0.00978992 -0.03355125 0.00413765
v -0.01209016 -0.03103581 0.01530276
v -0.01468433 -0.03241527 0.00419456
v -0.01397180 -0.02813138 0.02162350
v -0.00780054 -0.02624358 0.02781760
v -0.00410646 -0.03344694 0.01039508
v -0.00348718 -0.03437993 0.00463235
v -0.02099707 -0.03025808 0.00331262
v -0.01099964 -0.02595083 0.02726807
v -0.00845420 -0.03176708 0.01505652
v -0.00597407 -0.02582157 0.02900609
v -0.01345561 -0.02804905 0.02211768
v -0.01294685 -0.03303554 0.00308853
v -0.00560488 -0.03346792 0.00952696
v -0.00359150 -0.03448846 0.00294734
v -0.00104576 -0.03273931 0.01420757
v -0.01910548 -0.03108964 0.00310752
v -0.00602593 -0.03409376 0.00492790
v -0.02496004 -0.02058721 0.00007455
v -0.01037176 -0.03216065 0.01221524
v -0.00020260 -0.03121305 0.01895648
v -0.02504074 -0.02803244 0.00678150
v -0.01677551 -0.02883518 0.01758715
v -0.02190698 -0.02047598 0.00008288
v -0.02202519 -0.02377901 0.02008798
v -0.02390715 -0.02807705 0.00987923
v -0.01229217 -0.02901331 0.02048670
v -0.02880337 -0.02568436 0.00758628
v -0.00650330 -0.02889092 0.02326697
v -0.01205947 -0.03237935 0.00954945
v -0.01046616 -0.02271018 0.02778385
v -0.00036287 -0.03438812 0.00569638
v -0.00225562 -0.03381959 0.00894450
v -0.00040615 -0.02806084 0.02586818
v -0.02540349 -0.02820335 0.00353523
v -0.02519701 -0.02729237 0.01013354
v -0.02394856 -0.02814457 0.00943140
v -0.00008313 -0.03462877 0.00274654
v -0.00331818 -0.03094642 0.01946266
v -0.01209022 -0.03286751 0.00676363
v -0.01419323 -0.02530825 0.02619914
v -0.00060577 -0.03459462 0.00347048
v -0.01355552 -0.03287814 0.00268032
v -0.01714039 -0.02519626 0.02439160
v -0.02165901 -0.02611567 0.01949018
v -0.00827695 -0.03306966 0.01019208
v -0.01268243 -0.03297412 0.00468387
v -0.00177331 -0.03459450 0.00306449
v -0.02695608 -0.02273949 0.01235969
v -0.01050642 -0.03341073 0.00431567
v -0.02213648 -0.02573651 0.01990912
v -0.02061685 -0.02576369 0.02141834
v -0.01731487 -0.03028541 0.01216375
v -0.00676785 -0.03347527 0.00869193
v -0.02717032 -0.02500992 0.01217721
v -0.00267269 -0.03462912 0.00060173
v -0.02309979 -0.02837740 0.01026749
v -0.02619356 -0.02271019 0.01399881
v -0.00100055 -0.03449412 0.00448655
v -0.01801631 -0.02547657 0.02369222
v -0.01382935 -0.02611588 0.02563840
v -0.02470580 -0.02810025 0.00753290
v -0.00774957 -0.02823449 0.02434340
v -0.00147373 -0.03385564 0.00889713
v -0.00465493 -0.03293312 0.01283549
v -0.00162923 -0.02047599 0.02224076
v -0.00999545 -0.03317917 0.00761949
v -0.00985151 -0.02582480 0.02786506
v -0.00252432 -0.03428999 0.00625941
v -0.00646730 -0.02483486 0.02909165
v -0.02973098 -0.02560019 0.00007550
v -0.02455993 -0.02047598 0.00034566
v -0.00784522 -0.03402378 0.00223505
v -0.00004124 -0.02047599 0.01831786
v -0.00283163 -0.03314698 0.01241600
v -0.01033502 -0.03174832 0.01391123
v -0.01063349 -0.03286541 0.00889418
v -0.02850853 -0.02325534 0.00860198
v -0.01995361 -0.02502414 0.02208216
v -0.01131091 -0.03303597 0.00703569
v -0.02532459 -0.02589770 0.01503353
v -0.01361108 -0.03120050 0.01324823
v -0.01604490 -0.03078566 0.01211701
v -0.02174451 -0.02050096 0.01221966
v -0.00814462 -0.03300291 0.01069924
v -0.00795102 -0.03396878 0.00279891
v -0.00993737 -0.02780803 0.02437409
v -0.00122092 -0.03271491 0.01427466
v -0.00034904 -0.03461182 0.00325009
v -0.02263499 -0.02646454 0.01738809
v -0.02313782 -0.02855799 0.00911906
v -0.02418273 -0.02813585 0.00881980
v -0.00560284 -0.02388230 0.02927284
v -0.01386725 -0.03286096 0.00056851
v -0.01484067 -0.03175335 0.00892384
v -0.00155395 -0.03240212 0.01522422
v -0.00886418 -0.03317607 0.00893694
v -0.01889434 -0.03097259 0.00563594
v -0.00503844 -0.03438873 0.00267057
v -0.00009328 -0.03436876 0.00591263
v -0.01826602 -0.02047598 0.01695753
v -0.01610897 -0.03132873 0.00931875
v -0.00023815 -0.03367161 0.00998009
v -0.01308790 -0.03237991 0.00806258
v -0.00536828 -0.03438436 0.00206283
v -0.01223768 -0.02325821 0.02713579
v -0.00139520 -0.03273914 0.01419174
v -0.01003896 -0.03361119 0.00230033
v -0.00478717 -0.03423809 0.00514519
v -0.02479338 -0.02803978 0.00758557
v -0.01254252 -0.03101283 0.01501269
v -0.00246040 -0.03422269 0.00666759
v -0.00889129 -0.03159843 0.01539342
v -0.01200628 -0.03040139 0.01713936
v -0.00087000 -0.03399284 0.00826976
v -0.02380681 -0.02049003 0.00719235
v -0.00583573 -0.03240372 0.01413517
v -0.01385470 -0.02658621 0.02474261
v -0.00707304 -0.03310422 0.01084280
v -0.02944932 -0.02589939 0.00119527
f 236 439 42
f 881 929 958
f 121 852 588
f 42 439 373
f 477 236 42
f 121 588 928
f 282 125 852
f 348 458 427
f 529 89 121
f 427 89 529
f 529 348 427
f 876 89 427
f 929 881 876
f 876 881 852
f 876 852 121
f 121 89 876
f 931 373 439
f 408 48 513
f 408 125 48
f 251 195 310
f 809 39 156
f 156 61 809
f 928 61 156
f 308 809 540
f 308 39 809
f 304 923 184
f 133 282 511
f 125 282 133
f 458 195 672
f 427 458 672
f 672 20 427
f 373 931 220
f 511 282 15
f 15 184 923
f 15 282 852
f 852 184 15
f 355 322 64
f 236 322 355
f 613 322 236
f 849 928 588
f 264 310 928
f 928 156 264
f 251 310 264
f 509 195 251
f 509 672 195
f 509 550 20
f 20 672 509
f 519 941 601
f 216 601 941
f 519 601 216
f 218 883 914
f 427 20 432
f 20 379 432
f 756 104 894
f 894 104 553
f 553 914 894
f 894 914 883
f 756 879 247
f 24 834 82
f 304 184 254
f 254 184 852
f 254 881 958
f 852 881 254
f 643 511 48
f 643 133 511
f 48 125 643
f 125 133 643
f 88 220 495
f 495 373 88
f 373 220 88
f 73 923 511
f 511 15 73
f 73 15 923
f 236 477 425
f 425 613 236
f 364 850 391
f 19 45 656
f 93 855 448
f 408 855 93
f 191 588 677
f 677 338 191
f 588 191 810
f 569 355 64
f 255 233 420
f 733 841 368
f 9 836 942
f 77 61 928
f 928 849 77
f 77 536 61
f 39 308 856
f 958 807 659
f 394 432 230
f 394 876 427
f 427 432 394
f 394 230 519
f 519 216 394
f 394 216 958
f 519 230 973
f 230 110 973
f 574 973 110
f 935 574 430
f 809 977 705
f 61 536 742
f 536 977 742
f 809 61 742
f 742 977 809
f 919 879 756
f 686 247 879
f 809 419 516
f 217 24 419
f 834 24 217
f 217 419 809
f 809 834 217
f 64 322 281
f 782 425 945
f 613 425 782
f 159 767 825
f 825 767 801
f 42 373 801
f 801 767 42
f 801 373 495
f 807 637 227
f 572 590 778
f 444 438 169
f 299 438 444
f 364 391 564
f 564 901 364
f 167 901 564
f 776 728 447
f 447 542 776
f 447 728 909
f 410 901 167
f 674 659 74
f 74 659 807
f 141 909 364
f 194 909 141
f 45 19 602
f 656 45 480
f 866 132 736
f 167 806 750
f 318 788 486
f 510 391 63
f 63 592 510
f 63 391 850
f 918 806 167
f 513 48 388
f 48 511 388
f 388 511 439
f 904 301 457
f 210 951 244
f 457 301 870
f 805 155 897
f 457 155 805
f 527 892 82
f 809 705 527
f 527 834 809
f 82 834 527
f 926 837 456
f 617 688 64
f 679 585 548
f 548 814 679
f 17 814 548
f 737 585 679
f 845 937 155
f 448 855 468
f 841 733 687
f 113 602 295
f 570 334 113
f 334 602 113
f 197 836 29
f 903 954 793
f 552 395 926
f 366 395 552
f 508 402 196
f 199 836 197
f 199 673 836
f 731 666 274
f 488 828 5
f 704 856 308
f 474 856 704
f 595 856 474
f 595 474 20
f 54 254 958
f 958 515 54
f 304 254 54
f 54 923 304
f 328 792 174
f 190 515 958
f 958 266 190
f 190 54 515
f 888 792 328
f 328 517 888
f 368 940 285
f 368 841 102
f 475 243 778
f 218 644 34
f 34 644 148
f 553 104 948
f 948 424 553
f 7 111 778
f 958 929 608
f 608 394 958
f 929 876 608
f 876 394 608
f 379 110 487
f 487 432 379
f 230 432 487
f 487 110 230
f 430 574 186
f 186 574 110
f 245 431 170
f 56 431 223
f 883 56 223
f 223 431 245
f 606 935 430
f 430 798 606
f 106 705 977
f 106 527 705
f 756 894 949
f 949 919 756
f 242 237 59
f 955 561 242
f 561 12 242
f 756 247 343
f 955 242 800
f 800 242 59
f 419 24 507
f 507 516 419
f 24 516 507
f 964 281 945
f 964 953 64
f 64 281 964
f 945 281 873
f 873 782 945
f 490 459 477
f 490 477 42
f 65 499 526
f 42 767 498
f 498 159 42
f 767 159 498
f 486 788 283
f 283 201 486
f 773 825 681
f 825 801 681
f 95 801 495
f 495 190 95
f 95 190 266
f 807 227 116
f 915 941 519
f 598 170 778
f 778 243 938
f 60 908 444
f 271 387 330
f 330 796 271
f 802 102 229
f 444 572 464
f 464 299 444
f 464 572 778
f 778 938 464
f 148 644 370
f 853 391 510
f 853 564 391
f 167 564 853
f 853 975 167
f 339 975 853
f 510 592 853
f 542 447 321
f 321 447 909
f 674 74 43
f 43 74 517
f 351 74 848
f 146 74 341
f 341 118 146
f 341 74 351
f 295 602 434
f 434 602 19
f 558 113 295
f 96 113 558
f 96 558 717
f 471 19 656
f 471 359 19
f 386 665 320
f 678 665 386
f 512 38 649
f 240 896 340
f 163 896 240
f 563 736 132
f 866 925 707
f 707 788 866
f 707 283 788
f 315 283 707
f 656 480 68
f 286 21 592
f 635 441 592
f 635 861 776
f 592 861 635
f 40 728 776
f 776 861 40
f 40 861 728
f 226 861 850
f 226 850 364
f 364 909 226
f 869 861 592
f 592 63 869
f 850 861 869
f 869 63 850
f 670 918 167
f 167 975 670
f 670 975 339
f 654 408 513
f 513 388 87
f 87 669 513
f 658 87 388
f 255 837 889
f 366 552 905
f 422 468 855
f 422 855 408
f 408 654 703
f 724 904 457
f 457 805 724
f 210 244 378
f 378 93 210
f 408 93 378
f 677 588 378
f 378 588 852
f 852 125 378
f 125 408 378
f 766 720 677
f 100 244 951
f 718 951 210
f 718 411 951
f 272 411 228
f 951 411 272
f 160 411 202
f 551 450 160
f 448 468 551
f 551 468 555
f 228 411 755
f 755 870 228
f 450 551 522
f 522 551 555
f 160 450 808
f 338 621 28
f 892 527 618
f 618 325 892
f 536 325 618
f 618 106 536
f 527 106 618
f 122 325 536
f 588 810 122
f 810 325 122
f 122 849 588
f 536 77 122
f 122 77 849
f 162 785 247
f 82 892 162
f 162 686 82
f 247 686 162
f 236 355 715
f 926 456 969
f 753 617 64
f 64 508 753
f 508 196 753
f 688 617 932
f 76 972 837
f 76 837 255
f 255 420 76
f 721 569 64
f 64 688 721
f 365 155 457
f 457 164 365
f 440 164 457
f 164 440 188
f 188 440 548
f 937 845 277
f 585 737 277
f 277 845 585
f 841 847 261
f 841 687 524
f 274 666 524
f 524 666 841
f 733 273 600
f 600 687 733
f 92 603 682
f 776 542 403
f 197 29 662
f 472 29 96
f 64 189 525
f 525 508 64
f 679 814 820
f 793 954 257
f 679 465 267
f 267 465 5
f 5 384 267
f 9 942 353
f 353 903 9
f 954 903 353
f 5 954 353
f 353 488 5
f 292 29 836
f 836 196 292
f 666 731 30
f 20 550 360
f 360 595 20
f 470 557 328
f 328 174 470
f 470 174 266
f 470 266 958
f 958 557 470
f 453 43 517
f 453 557 958
f 453 517 328
f 328 557 453
f 958 43 453
f 517 74 414
f 414 888 517
f 414 74 146
f 792 888 812
f 786 285 296
f 148 370 296
f 910 285 940
f 380 940 368
f 368 102 380
f 102 802 380
f 578 102 841
f 775 475 238
f 238 120 775
f 238 475 778
f 778 111 238
f 775 120 80
f 80 34 775
f 204 883 218
f 218 34 204
f 390 561 553
f 390 12 561
f 553 424 390
f 605 252 535
f 535 772 605
f 535 252 914
f 535 914 553
f 308 798 492
f 492 704 308
f 574 935 777
f 883 223 893
f 547 977 536
f 536 106 547
f 547 106 977
f 919 967 437
f 879 919 437
f 237 242 762
f 762 343 237
f 756 343 762
f 346 363 955
f 955 800 346
f 878 425 477
f 477 23 878
f 149 651 253
f 477 651 149
f 149 23 477
f 769 459 700
f 459 490 700
f 489 38 512
f 489 700 38
f 769 700 489
f 36 896 163
f 163 300 36
f 651 489 36
f 253 651 36
f 36 489 512
f 619 300 163
f 435 514 315
f 435 707 925
f 315 707 435
f 773 681 615
f 137 681 801
f 8 95 746
f 801 95 8
f 266 174 835
f 835 95 266
f 794 915 577
f 537 915 794
f 559 915 537
f 559 637 807
f 559 216 941
f 941 915 559
f 958 216 559
f 778 590 843
f 763 572 444
f 444 743 763
f 763 743 227
f 763 227 637
f 426 908 909
f 882 116 227
f 227 743 757
f 444 908 757
f 757 743 444
f 908 426 757
f 757 426 161
f 114 642 744
f 744 321 114
f 114 321 909
f 787 114 909
f 642 114 787
f 139 169 438
f 139 271 169
f 387 271 139
f 775 192 151
f 699 192 775
f 775 34 699
f 699 34 148
f 387 192 699
f 504 271 796
f 818 802 387
f 491 370 644
f 674 43 596
f 596 659 674
f 692 74 807
f 692 848 74
f 832 410 167
f 194 141 684
f 141 936 684
f 364 901 917
f 901 633 917
f 917 141 364
f 729 482 71
f 729 717 558
f 359 482 729
f 92 770 413
f 265 603 413
f 413 603 92
f 413 971 265
f 413 565 971
f 49 665 678
f 263 665 163
f 163 240 263
f 678 386 324
f 512 649 582
f 42 159 152
f 154 451 839
f 26 240 340
f 754 240 26
f 131 853 592
f 339 853 131
f 592 831 131
f 50 831 592
f 592 68 50
f 50 68 480
f 868 435 375
f 147 526 868
f 645 831 132
f 132 14 645
f 592 21 185
f 185 68 592
f 16 286 592
f 16 729 71
f 728 861 842
f 861 226 842
f 909 728 842
f 842 226 909
f 513 235 691
f 691 654 513
f 178 889 837
f 895 946 829
f 895 829 388
f 236 233 895
f 439 236 895
f 895 388 439
f 730 178 797
f 889 178 730
f 799 946 797
f 797 905 799
f 388 829 799
f 829 946 799
f 366 905 344
f 669 87 90
f 90 554 669
f 663 799 905
f 256 913 235
f 256 713 913
f 256 235 513
f 17 780 130
f 466 567 693
f 693 52 709
f 392 693 567
f 142 422 408
f 408 703 142
f 301 904 523
f 244 100 727
f 326 718 210
f 210 93 326
f 735 205 951
f 221 100 951
f 951 205 221
f 668 411 160
f 668 755 411
f 17 710 817
f 457 870 817
f 275 285 786
f 810 28 751
f 751 325 810
f 134 350 621
f 134 621 338
f 134 338 677
f 541 343 247
f 350 162 143
f 837 972 97
f 972 721 97
f 97 721 688
f 926 969 222
f 890 932 617
f 17 548 826
f 548 440 826
f 302 188 548
f 377 455 337
f 934 593 404
f 828 488 934
f 377 593 934
f 934 455 377
f 934 404 273
f 528 847 841
f 528 722 968
f 968 770 528
f 666 722 528
f 841 666 528
f 592 441 716
f 716 506 592
f 103 682 603
f 603 403 103
f 103 403 542
f 356 189 64
f 356 180 189
f 714 292 922
f 922 196 402
f 922 292 196
f 679 250 638
f 638 737 679
f 924 250 384
f 924 384 5
f 924 638 250
f 594 488 352
f 488 353 352
f 823 976 316
f 9 976 823
f 823 836 9
f 827 571 611
f 611 552 926
f 611 568 552
f 173 91 745
f 836 91 173
f 173 196 836
f 29 292 416
f 530 731 594
f 530 30 731
f 594 352 530
f 530 352 533
f 888 414 381
f 786 296 35
f 35 296 370
f 200 578 816
f 123 56 883
f 883 204 123
f 586 798 430
f 586 492 798
f 245 246 701
f 577 915 906
f 906 701 577
f 906 915 519
f 973 574 906
f 519 973 906
f 223 885 604
f 540 809 624
f 809 516 624
f 560 893 223
f 269 437 967
f 879 437 312
f 203 311 734
f 734 1 203
f 203 312 399
f 253 36 584
f 953 253 584
f 64 953 584
f 2 36 512
f 896 36 2
f 508 525 819
f 819 619 508
f 315 514 927
f 792 812 927
f 681 137 85
f 708 559 537
f 518 807 958
f 958 559 518
f 518 559 807
f 660 598 778
f 778 843 660
f 369 909 194
f 369 426 909
f 116 882 676
f 479 757 161
f 479 882 227
f 227 757 479
f 909 908 58
f 58 787 909
f 744 642 690
f 690 610 744
f 473 321 744
f 744 610 473
f 473 578 200
f 84 192 387
f 387 139 84
f 299 151 57
f 57 151 192
f 271 504 234
f 297 818 387
f 285 910 711
f 711 297 285
f 818 297 711
f 644 18 72
f 72 491 644
f 72 18 605
f 321 838 697
f 640 43 958
f 640 596 43
f 958 659 640
f 659 596 640
f 146 118 463
f 625 314 341
f 625 341 351
f 351 179 625
f 625 179 936
f 19 359 639
f 359 729 639
f 859 770 968
f 859 413 770
f 717 413 579
f 579 534 717
f 163 665 280
f 665 49 280
f 815 563 944
f 736 563 815
f 944 480 815
f 815 480 45
f 570 678 248
f 248 334 570
f 154 240 830
f 830 582 154
f 830 240 754
f 145 582 649
f 145 451 154
f 154 582 145
f 119 33 259
f 119 839 451
f 259 839 119
f 268 839 259
f 65 526 396
f 259 33 406
f 361 131 831
f 435 868 768
f 514 435 768
f 768 526 499
f 768 868 526
f 362 774 166
f 166 503 362
f 868 774 362
f 147 868 362
f 290 16 592
f 717 729 290
f 729 16 290
f 797 178 916
f 916 178 597
f 597 178 851
f 851 837 926
f 851 178 837
f 797 946 899
f 899 730 797
f 946 730 899
f 255 889 957
f 889 730 957
f 957 730 946
f 946 895 957
f 957 233 255
f 957 895 233
f 382 658 388
f 846 344 926
f 366 344 846
f 813 663 905
f 723 90 87
f 780 657 706
f 709 130 706
f 706 130 780
f 436 522 555
f 436 780 17
f 17 522 436
f 52 693 22
f 693 392 22
f 478 820 814
f 709 422 694
f 422 142 694
f 913 713 694
f 249 523 25
f 301 523 860
f 860 523 249
f 955 363 646
f 646 532 284
f 284 442 646
f 795 150 955
f 789 182 415
f 228 789 415
f 81 727 100
f 81 100 720
f 720 766 81
f 376 79 448
f 376 99 202
f 626 326 93
f 626 93 448
f 448 79 626
f 202 99 331
f 160 202 331
f 331 551 160
f 965 808 450
f 930 522 17
f 17 817 930
f 605 772 212
f 212 72 605
f 738 28 621
f 738 751 28
f 55 162 350
f 350 134 55
f 785 162 641
f 343 541 664
f 284 532 664
f 293 162 892
f 293 143 162
f 213 97 688
f 854 213 688
f 521 222 969
f 863 222 745
f 62 222 863
f 445 890 433
f 433 456 445
f 445 456 837
f 837 208 445
f 445 208 921
f 445 854 688
f 748 262 972
f 972 76 748
f 236 715 648
f 648 262 236
f 858 440 457
f 457 907 858
f 457 710 943
f 943 907 457
f 943 710 17
f 685 845 155
f 377 337 939
f 939 337 274
f 274 524 939
f 828 934 887
f 887 273 733
f 887 934 273
f 565 307 291
f 971 565 291
f 291 307 592
f 542 847 539
f 288 922 207
f 428 740 619
f 428 619 163
f 163 113 428
f 428 113 96
f 124 288 96
f 124 922 288
f 124 974 922
f 714 922 698
f 922 974 698
f 622 924 5
f 5 828 622
f 828 94 622
f 155 937 622
f 622 94 449
f 793 257 822
f 966 176 822
f 552 568 761
f 568 966 761
f 568 611 781
f 781 611 571
f 533 352 620
f 589 823 316
f 589 781 571
f 323 611 926
f 926 222 323
f 323 222 62
f 460 571 827
f 96 29 675
f 29 416 675
f 636 317 209
f 836 673 636
f 636 942 836
f 636 232 942
f 371 381 201
f 888 381 371
f 371 812 888
f 201 283 371
f 371 283 315
f 315 927 371
f 371 927 812
f 963 10 201
f 201 381 963
f 454 578 841
f 454 816 578
f 56 123 790
f 790 123 7
f 790 7 778
f 777 701 446
f 701 906 446
f 574 777 446
f 446 906 574
f 614 885 734
f 614 604 885
f 885 624 278
f 278 624 516
f 278 1 734
f 734 885 278
f 631 885 223
f 631 287 885
f 631 912 935
f 631 223 245
f 245 912 631
f 885 287 136
f 935 606 136
f 136 631 935
f 287 631 136
f 560 269 313
f 313 269 967
f 771 203 399
f 311 203 771
f 879 312 31
f 312 203 31
f 105 584 36
f 508 619 183
f 773 615 47
f 607 137 680
f 607 85 137
f 95 835 332
f 332 835 174
f 332 174 792
f 245 170 650
f 598 354 650
f 170 598 650
f 580 701 246
f 580 794 577
f 577 701 580
f 537 794 696
f 696 580 443
f 794 580 696
f 572 335 67
f 572 763 11
f 11 335 572
f 135 708 537
f 116 676 712
f 41 369 194
f 194 676 41
f 630 690 642
f 610 690 367
f 367 306 610
f 330 387 367
f 387 306 367
f 803 473 200
f 261 473 803
f 387 802 108
f 108 306 387
f 108 802 229
f 438 299 947
f 299 57 947
f 294 504 60
f 294 234 504
f 542 321 260
f 321 697 260
f 788 318 632
f 83 898 632
f 167 750 632
f 632 832 167
f 632 898 832
f 750 75 632
f 632 75 14
f 632 14 132
f 866 788 632
f 632 132 866
f 118 832 336
f 832 898 336
f 747 898 83
f 10 898 747
f 201 10 747
f 901 314 193
f 314 625 193
f 193 633 901
f 627 936 141
f 627 625 936
f 327 579 413
f 407 44 197
f 197 662 407
f 534 44 407
f 717 534 407
f 317 636 970
f 534 317 970
f 45 920 840
f 840 815 45
f 678 324 886
f 886 248 678
f 342 268 259
f 320 268 342
f 342 503 320
f 581 526 147
f 147 406 51
f 51 406 33
f 51 581 147
f 831 645 821
f 821 361 831
f 797 916 27
f 27 916 597
f 597 851 27
f 27 851 926
f 926 609 27
f 27 905 797
f 623 382 799
f 799 663 623
f 658 382 623
f 926 344 497
f 497 609 926
f 466 693 421
f 421 813 466
f 421 693 709
f 709 694 421
f 421 694 713
f 669 554 421
f 214 813 905
f 872 567 466
f 466 813 347
f 347 214 484
f 813 214 347
f 157 761 86
f 484 157 86
f 86 347 484
f 962 22 17
f 52 22 962
f 17 130 962
f 709 52 962
f 345 130 709
f 709 962 345
f 956 392 814
f 956 22 392
f 759 814 17
f 17 22 759
f 814 392 206
f 206 478 814
f 485 25 523
f 695 860 249
f 783 860 695
f 789 329 647
f 150 647 70
f 70 647 329
f 900 329 789
f 900 789 228
f 69 646 667
f 667 646 442
f 358 795 955
f 955 646 358
f 573 376 448
f 99 376 573
f 718 326 546
f 326 626 546
f 13 930 817
f 461 965 13
f 13 965 450
f 538 857 661
f 275 349 298
f 368 285 298
f 285 275 298
f 155 622 961
f 961 622 449
f 449 857 961
f 961 857 538
f 576 805 66
f 576 724 805
f 417 275 786
f 493 212 772
f 493 561 955
f 865 442 284
f 865 641 442
f 566 641 162
f 442 641 566
f 333 664 541
f 617 521 496
f 496 890 617
f 745 91 231
f 231 863 745
f 231 460 827
f 932 890 616
f 890 445 616
f 401 445 921
f 854 445 401
f 236 262 960
f 262 748 960
f 188 302 115
f 302 685 115
f 845 685 628
f 628 685 302
f 592 506 884
f 884 291 592
f 575 103 542
f 542 539 575
f 847 528 374
f 374 539 847
f 740 207 276
f 276 207 922
f 78 428 96
f 740 428 198
f 9 903 520
f 903 389 520
f 966 822 140
f 679 820 140
f 140 761 966
f 303 531 568
f 568 781 303
f 211 620 352
f 413 859 634
f 187 589 571
f 823 589 187
f 719 777 935
f 935 912 719
f 719 701 777
f 245 701 719
f 719 912 245
f 893 560 591
f 560 313 591
f 409 203 1
f 409 1 82
f 82 833 409
f 82 686 405
f 397 105 189
f 619 740 483
f 483 183 619
f 726 607 680
f 726 725 768
f 726 768 499
f 726 499 773
f 726 47 779
f 773 47 726
f 305 332 784
f 746 95 305
f 95 332 305
f 443 650 683
f 683 650 354
f 683 696 443
f 335 135 587
f 587 135 537
f 671 676 194
f 671 712 676
f 880 473 261
f 880 175 473
f 880 261 847
f 321 473 583
f 473 175 583
f 357 463 118
f 118 336 357
f 717 407 752
f 96 717 752
f 752 472 96
f 867 44 534
f 534 970 867
f 469 920 386
f 469 840 920
f 469 386 320
f 629 119 451
f 629 502 119
f 653 502 65
f 119 502 653
f 33 119 653
f 653 396 33
f 65 396 653
f 891 499 65
f 65 502 891
f 891 502 152
f 773 499 891
f 891 825 773
f 891 159 825
f 891 152 159
f 46 27 609
f 46 344 905
f 905 27 46
f 663 723 279
f 279 623 663
f 279 723 87
f 158 421 554
f 813 421 158
f 112 436 422
f 112 270 657
f 112 657 780
f 780 436 112
f 150 70 765
f 955 150 765
f 765 695 955
f 783 695 765
f 228 870 652
f 652 870 301
f 874 646 182
f 874 358 646
f 319 415 182
f 182 739 319
f 677 720 556
f 556 134 677
f 69 134 556
f 556 646 69
f 461 13 543
f 543 817 870
f 543 13 817
f 538 661 501
f 501 661 733
f 501 733 368
f 155 961 952
f 349 385 952
f 215 349 275
f 215 385 349
f 98 417 786
f 212 417 98
f 177 493 955
f 212 493 177
f 177 417 212
f 284 664 107
f 664 333 107
f 129 521 969
f 129 496 521
f 96 288 505
f 505 78 96
f 109 207 740
f 740 198 109
f 903 289 911
f 423 176 966
f 531 520 702
f 568 531 702
f 702 520 389
f 760 822 257
f 760 140 822
f 875 465 679
f 552 761 452
f 761 864 452
f 452 864 905
f 452 905 552
f 599 864 761
f 531 303 824
f 877 211 544
f 620 211 877
f 933 634 544
f 232 636 933
f 933 327 413
f 413 634 933
f 544 211 933
f 127 833 82
f 82 405 127
f 584 105 545
f 105 397 545
f 189 180 758
f 758 397 189
f 309 53 784
f 784 725 309
f 725 726 309
f 3 726 779
f 607 726 3
f 784 53 258
f 258 305 784
f 784 332 804
f 332 32 804
f 165 67 335
f 335 587 165
f 690 630 383
f 908 902 791
f 181 902 908
f 908 60 181
f 60 504 181
f 689 838 321
f 321 583 689
f 239 469 320
f 320 503 239
f 239 503 166
f 862 549 435
f 815 549 862
f 815 840 462
f 462 549 815
f 435 549 749
f 4 872 494
f 4 811 820
f 494 347 4
f 347 86 4
f 4 820 567
f 567 872 4
f 820 811 429
f 429 140 820
f 761 140 429
f 429 86 761
f 562 112 422
f 270 112 562
f 657 270 562
f 562 706 657
f 562 422 709
f 709 706 562
f 101 900 228
f 228 652 101
f 126 319 739
f 182 646 481
f 646 556 481
f 481 739 182
f 349 952 398
f 398 952 961
f 897 155 6
f 155 952 6
f 385 215 959
f 576 224 959
f 400 576 66
f 400 224 576
f 732 177 219
f 724 576 732
f 485 219 225
f 219 412 225
f 25 485 225
f 418 412 219
f 418 177 955
f 219 177 418
f 863 231 241
f 231 172 241
f 393 231 827
f 393 172 231
f 467 389 903
f 903 911 467
f 655 423 966
f 289 423 655
f 655 911 289
f 679 140 37
f 37 875 679
f 864 599 741
f 741 599 484
f 484 214 741
f 316 531 871
f 531 824 871
f 871 589 316
f 764 933 636
f 327 933 764
f 764 636 209
f 500 950 32
f 500 32 332
f 927 950 500
f 792 927 500
f 500 332 792
f 476 804 32
f 476 32 514
f 514 768 476
f 902 383 612
f 612 383 630
f 612 791 902
f 435 749 171
f 171 239 844
f 171 844 375
f 375 435 171
f 319 126 153
f 153 126 205
f 205 735 153
f 385 959 144
f 144 959 224
f 372 732 576
f 177 732 372
f 469 239 138
f 239 171 138
f 875 37 168
f 37 117 168
f 128 37 257
f 128 117 37
f 128 257 954
f 310 529 121
f 121 928 310
f 458 348 310
f 348 529 310
f 310 195 458
f 495 220 190
f 511 923 190
f 190 931 439
f 439 511 190
f 190 220 931
f 923 54 190
f 873 281 322
f 322 613 873
f 613 782 873
f 218 914 18
f 18 252 605
f 914 252 18
f 18 644 218
f 28 810 191
f 28 191 338
f 250 267 384
f 679 267 250
f 360 156 39
f 251 264 360
f 360 509 251
f 360 264 156
f 550 509 360
f 39 856 360
f 856 595 360
f 762 390 424
f 762 104 756
f 762 948 104
f 424 948 762
f 762 242 12
f 12 390 762
f 149 253 953
f 945 425 149
f 149 964 945
f 953 964 149
f 425 878 149
f 149 878 23
f 477 459 489
f 489 459 769
f 489 651 477
f 151 475 775
f 299 464 151
f 151 464 938
f 243 475 151
f 151 938 243
f 314 832 118
f 901 410 314
f 410 832 314
f 118 341 314
f 50 480 944
f 944 563 50
f 132 831 50
f 50 563 132
f 16 471 656
f 71 482 16
f 656 68 16
f 359 471 16
f 16 482 359
f 16 185 21
f 21 286 16
f 68 185 16
f 817 710 457
f 934 731 274
f 274 337 934
f 594 731 934
f 934 488 594
f 934 337 455
f 123 238 111
f 120 238 123
f 34 80 123
f 123 204 34
f 123 80 120
f 111 7 123
f 20 474 586
f 586 379 20
f 586 110 379
f 430 186 586
f 474 704 586
f 586 186 110
f 704 492 586
f 297 699 148
f 148 296 297
f 297 296 285
f 387 699 297
f 711 910 940
f 940 380 711
f 711 380 802
f 802 818 711
f 639 729 558
f 295 434 639
f 639 434 19
f 639 558 295
f 570 113 280
f 280 678 570
f 280 113 163
f 280 49 678
f 830 2 512
f 830 26 340
f 512 582 830
f 340 896 830
f 754 26 830
f 896 2 830
f 320 665 268
f 665 263 268
f 268 240 154
f 268 263 240
f 154 839 268
f 290 413 717
f 592 307 290
f 565 413 290
f 290 307 565
f 388 799 382
f 846 395 366
f 926 395 846
f 468 422 436
f 555 468 436
f 694 691 235
f 235 913 694
f 694 703 654
f 654 691 694
f 694 142 703
f 677 378 81
f 81 766 677
f 81 378 244
f 244 727 81
f 363 346 664
f 59 237 664
f 532 646 664
f 237 343 664
f 664 800 59
f 664 346 800
f 664 646 363
f 892 325 293
f 293 738 621
f 621 350 293
f 325 751 293
f 350 143 293
f 751 738 293
f 617 753 521
f 521 753 196
f 745 222 521
f 521 173 745
f 196 173 521
f 355 569 648
f 569 721 648
f 648 715 355
f 648 721 972
f 972 262 648
f 17 826 943
f 440 858 943
f 943 826 440
f 943 858 907
f 273 404 939
f 939 593 377
f 939 600 273
f 939 524 687
f 687 600 939
f 404 593 939
f 638 924 622
f 737 638 622
f 622 277 737
f 937 277 622
f 675 292 714
f 714 698 675
f 675 124 96
f 675 416 292
f 974 124 675
f 675 698 974
f 778 170 790
f 790 431 56
f 790 170 431
f 278 516 24
f 278 24 82
f 82 1 278
f 136 606 798
f 136 308 540
f 136 798 308
f 540 624 136
f 136 624 885
f 734 311 771
f 399 312 771
f 437 269 771
f 771 614 734
f 223 604 771
f 771 560 223
f 771 269 560
f 771 312 437
f 604 614 771
f 105 525 189
f 105 819 525
f 105 36 300
f 300 619 105
f 619 819 105
f 580 246 245
f 245 650 580
f 580 650 443
f 135 763 637
f 637 559 135
f 135 11 763
f 559 708 135
f 335 11 135
f 41 676 882
f 161 426 41
f 426 369 41
f 41 479 161
f 882 479 41
f 803 454 841
f 841 261 803
f 200 816 803
f 816 454 803
f 578 473 108
f 229 102 108
f 102 578 108
f 108 473 610
f 610 306 108
f 947 139 438
f 192 84 947
f 947 84 139
f 947 57 192
f 294 60 444
f 444 169 294
f 169 271 294
f 271 234 294
f 747 318 486
f 486 201 747
f 747 632 318
f 83 632 747
f 627 917 633
f 141 917 627
f 633 193 627
f 627 193 625
f 886 602 334
f 45 602 886
f 886 920 45
f 386 920 886
f 886 324 386
f 334 248 886
f 342 406 147
f 342 362 503
f 147 362 342
f 259 406 342
f 33 396 51
f 51 396 526
f 526 581 51
f 806 918 821
f 821 750 806
f 339 131 821
f 821 670 339
f 821 75 750
f 918 670 821
f 131 361 821
f 14 75 821
f 821 645 14
f 421 256 513
f 513 669 421
f 713 256 421
f 494 872 347
f 347 872 466
f 345 962 130
f 22 956 759
f 759 956 814
f 206 392 567
f 567 820 206
f 820 478 206
f 551 331 573
f 448 551 573
f 573 331 99
f 546 202 411
f 411 718 546
f 546 376 202
f 79 376 546
f 546 626 79
f 450 522 13
f 522 930 13
f 661 94 828
f 661 887 733
f 449 94 661
f 661 857 449
f 828 887 661
f 553 561 493
f 493 535 553
f 772 535 493
f 162 55 566
f 566 134 69
f 69 667 566
f 566 55 134
f 566 667 442
f 688 932 616
f 616 445 688
f 837 97 401
f 401 208 837
f 97 213 401
f 213 854 401
f 921 208 401
f 960 420 233
f 960 233 236
f 960 76 420
f 960 748 76
f 115 365 164
f 155 365 115
f 164 188 115
f 115 685 155
f 585 845 628
f 628 548 585
f 628 302 548
f 776 403 884
f 265 971 884
f 884 635 776
f 884 603 265
f 441 635 884
f 884 716 441
f 884 403 603
f 506 716 884
f 971 291 884
f 374 770 92
f 92 682 374
f 374 528 770
f 682 103 374
f 103 575 374
f 374 575 539
f 520 531 316
f 520 976 9
f 316 976 520
f 836 823 187
f 187 91 836
f 187 231 91
f 571 460 187
f 460 231 187
f 591 949 894
f 591 894 883
f 591 313 967
f 591 967 919
f 919 949 591
f 883 893 591
f 740 276 483
f 483 402 508
f 483 276 922
f 508 183 483
f 483 922 402
f 671 692 807
f 807 116 671
f 671 179 351
f 351 848 671
f 194 684 671
f 848 692 671
f 671 684 936
f 936 179 671
f 116 712 671
f 10 963 357
f 357 414 146
f 357 898 10
f 357 381 414
f 146 463 357
f 357 963 381
f 357 336 898
f 752 662 29
f 29 472 752
f 752 407 662
f 197 44 867
f 867 199 197
f 867 970 636
f 673 199 867
f 867 636 673
f 38 700 629
f 629 490 42
f 42 152 629
f 629 649 38
f 629 700 490
f 451 145 629
f 629 145 649
f 152 502 629
f 609 497 46
f 46 497 344
f 87 658 279
f 658 623 279
f 90 723 158
f 554 90 158
f 663 813 158
f 158 723 663
f 874 182 789
f 150 795 874
f 874 647 150
f 789 647 874
f 795 358 874
f 870 755 543
f 160 808 543
f 543 668 160
f 755 668 543
f 808 965 543
f 543 965 461
f 786 35 98
f 72 212 98
f 370 491 98
f 98 35 370
f 491 72 98
f 107 541 247
f 247 785 107
f 107 865 284
f 785 641 107
f 641 865 107
f 107 333 541
f 129 969 456
f 129 456 433
f 433 890 129
f 890 496 129
f 109 505 288
f 288 207 109
f 428 78 109
f 109 198 428
f 78 505 109
f 793 822 423
f 423 903 793
f 423 822 176
f 423 289 903
f 599 761 157
f 599 157 484
f 877 722 666
f 877 530 533
f 968 722 877
f 877 859 968
f 666 30 877
f 30 530 877
f 533 620 877
f 544 634 877
f 877 634 859
f 942 232 933
f 933 353 942
f 933 352 353
f 933 211 352
f 203 409 127
f 127 686 879
f 879 31 127
f 127 31 203
f 127 409 833
f 127 405 686
f 64 584 758
f 180 356 758
f 758 356 64
f 584 545 758
f 758 545 397
f 681 85 3
f 3 615 681
f 3 47 615
f 779 47 3
f 85 607 3
f 258 8 746
f 258 137 801
f 680 137 258
f 258 726 680
f 801 8 258
f 746 305 258
f 53 309 258
f 258 309 726
f 514 32 950
f 950 927 514
f 537 696 165
f 590 572 165
f 598 660 165
f 165 354 598
f 165 843 590
f 165 660 843
f 165 683 354
f 572 67 165
f 696 683 165
f 165 587 537
f 181 796 330
f 181 504 796
f 330 367 181
f 181 367 690
f 690 383 181
f 181 383 902
f 542 260 689
f 689 847 542
f 689 697 838
f 689 880 847
f 689 260 697
f 175 880 689
f 689 583 175
f 166 774 239
f 239 868 375
f 375 844 239
f 239 774 868
f 862 435 925
f 866 736 862
f 862 925 866
f 736 815 862
f 811 4 429
f 429 4 86
f 101 860 783
f 301 860 101
f 783 765 101
f 101 70 329
f 329 900 101
f 101 765 70
f 101 652 301
f 481 556 720
f 100 221 481
f 481 221 205
f 720 100 481
f 205 126 481
f 481 126 739
f 398 501 368
f 368 298 398
f 398 298 349
f 398 961 538
f 538 501 398
f 732 485 523
f 732 523 904
f 732 219 485
f 904 724 732
f 955 695 418
f 25 225 418
f 418 695 249
f 249 25 418
f 418 225 412
f 393 323 62
f 863 241 393
f 62 863 393
f 827 611 393
f 611 323 393
f 393 241 172
f 389 467 655
f 655 966 568
f 568 702 655
f 655 702 389
f 655 467 911
f 37 760 257
f 140 760 37
f 905 864 741
f 741 214 905
f 871 303 781
f 781 589 871
f 871 824 303
f 764 317 534
f 534 579 764
f 209 317 764
f 579 327 764
f 768 725 476
f 476 725 784
f 784 804 476
f 642 787 612
f 612 58 908
f 787 58 612
f 612 630 642
f 908 791 612
f 153 735 951
f 153 272 228
f 951 272 153
f 228 415 153
f 415 319 153
f 66 805 144
f 144 805 897
f 897 6 144
f 144 400 66
f 144 952 385
f 144 6 952
f 224 400 144
f 372 215 275
f 275 417 372
f 576 959 372
f 417 177 372
f 372 959 215
f 138 462 840
f 840 469 138
f 549 462 138
f 138 749 549
f 138 171 749
f 128 954 5
f 5 465 128
f 465 875 128
f 875 168 128
f 128 168 117

