# https://github.com/mikedh/trimesh
v 0.03667134 -0.00454029 -0.02970485
v 0.03712189 -0.02414308 -0.01662902
v 0.00732292 -0.00718088 -0.02962020
v 0.03041323 -0.02310336 -0.01955987
v 0.02847488 -0.00034694 -0.03049145
v 0.03712968 -0.01405793 -0.02593490
v 0.03590961 -0.02989301 -0.00158031
v 0.03652977 -0.00264831 -0.03005176
v 0.02987575 -0.02732325 -0.01253701
v 0.04071146 -0.00155475 -0.02423429
v 0.03569875 -0.02858409 -0.00906515
v 0.00292462 -0.00612938 -0.02983141
v 0.04044367 -0.01786464 -0.01700579
v 0.04057795 -0.01024417 -0.02223283
v 0.03796111 -0.02681599 -0.00814315
v 0.04040693 -0.00480649 -0.02427273
v 0.03637577 -0.00513753 -0.02981501
v 0.03573379 -0.02944021 -0.00565522
v 0.03118266 -0.02698338 -0.01329466
v 0.03611656 -0.00448346 -0.03002562
v 0.00464752 -0.00069051 -0.03046531
v 0.03677518 -0.02909538 -0.00497751
v 0.04091186 -0.01093548 -0.02135897
v 0.00319757 -0.00257145 -0.03037421
v 0.03573843 -0.02009479 -0.02271144
v 0.03517160 -0.01441819 -0.02679520
v 0.00427374 -0.00387281 -0.03023574
v 0.03790434 -0.02691916 -0.00806760
v 0.00524912 -0.01338030 -0.02733152
v 0.04100019 -0.01764636 -0.01589649
v 0.02880864 -0.02320416 -0.01943593
v 0.03611348 -0.02936123 -0.00559714
v 0.04024834 -0.02426007 -0.00560974
v 0.02596011 -0.01875454 -0.02390954
v 0.03220509 -0.02986202 -0.00281756
v 0.03804054 -0.02161190 -0.01792521
v 0.00385173 -0.01185200 -0.02805021
v 0.04089728 -0.02075146 -0.01207653
v 0.03827586 -0.02604372 -0.00914137
v 0.00576188 -0.00242714 -0.03039540
v 0.03683514 -0.02850368 -0.00753111
v 0.00020942 -0.00263460 -0.03035199
v 0.03899380 -0.01368621 -0.02302907
v 0.00598267 -0.01040229 -0.02863116
v 0.04150020 -0.00323133 -0.00005130
v 0.03570094 -0.02891131 -0.00797029
v 0.03633620 -0.01410002 -0.02672314
v 0.03425334 -0.01126034 -0.02829695
v 0.03694302 -0.02807470 -0.00861575
v 0.00496942 -0.01300121 -0.02751081
v 0.03924211 -0.02614229 -0.00260890
v 0.03992151 -0.02185982 -0.01286450
v 0.03069665 -0.02248454 -0.02030440
v 0.04150020 -0.02214446 -0.00261042
v 0.03074213 -0.00359556 -0.03027742
v 0.00590523 -0.01381637 -0.02712202
v 0.03845687 -0.02410719 -0.01302510
v 0.03772989 -0.01811765 -0.02212403
v 0.03548288 -0.02921321 -0.00683273
v 0.03541978 -0.00509346 -0.03004780
v 0.03404590 -0.02088300 -0.02201199
v 0.03447241 -0.02416429 -0.01815100
v 0.03610067 -0.01459923 -0.02655450
v 0.03765271 -0.02833037 -0.00241646
v 0.00020438 -0.00377654 -0.03021250
v 0.03423965 -0.01274079 -0.02765291
v 0.04009948 -0.01714738 -0.01841477
v 0.03318472 -0.02914688 -0.00710613
v 0.03697476 -0.00171811 -0.02969598
v 0.02874279 -0.02307033 -0.01959892
v 0.01352152 -0.00695284 -0.02967555
v 0.03592178 -0.02739499 -0.01223618
v 0.03254286 -0.01860452 -0.02402775
v 0.03449857 -0.01086570 -0.02845478
v 0.03481764 -0.02605258 -0.01512849
v 0.03486971 -0.02744102 -0.01224778
v 0.03847496 -0.02505766 -0.01093211
v 0.04100019 -0.02026690 -0.01260168
v 0.03614525 -0.01423928 -0.02674158
v 0.03998216 -0.01412286 -0.02105222
v 0.03091076 -0.01916974 -0.02356908
v 0.03847568 -0.01914023 -0.01973652
v 0.00054095 -0.00562454 -0.02992274
v 0.04150020 -0.02155817 -0.00523529
v 0.03011028 -0.02991219 -0.00226751
v 0.03635324 -0.01204982 -0.02771611
v 0.03614803 -0.02614505 -0.01468018
v 0.03569650 -0.02428058 -0.01796026
v 0.03308689 -0.02993941 -0.00189445
v 0.00422661 -0.00244152 -0.03039197
v 0.03675843 -0.02756113 -0.01067875
v 0.02902444 -0.02081683 -0.02208043
v 0.03185982 -0.02959966 -0.00487605
v 0.03515844 -0.02878988 -0.00847243
v 0.03700374 -0.00588264 -0.02912391
v 0.01842142 -0.00707477 -0.02964779
v 0.00524485 -0.01682596 -0.02533060
v 0.03695586 -0.00922390 -0.02830189
v 0.04091249 -0.02315846 -0.00624493
v 0.03577993 -0.02725799 -0.01259633
v 0.00749753 -0.01373198 -0.02716566
v 0.03636512 -0.01339072 -0.02708133
v 0.03603024 -0.02901594 -0.00727347
v 0.00509093 -0.00778395 -0.02944356
v 0.03521758 -0.02376215 -0.01869035
v 0.03760176 -0.02802329 -0.00516661
v 0.04097206 -0.00445066 -0.02349276
v 0.03618170 -0.02548474 -0.01585538
v 0.03348079 -0.00271271 -0.03036802
v 0.04100019 -0.00785225 -0.02252604
v 0.02925666 -0.02875614 -0.00855368
v 0.03366910 -0.02689205 -0.01348532
v 0.03541637 -0.02586749 -0.01545165
v 0.04150020 -0.01765818 -0.01272256
v 0.02063979 -0.00058669 -0.03048292
v 0.03611781 -0.02686052 -0.01325959
v 0.03636257 -0.02962543 -0.00316196
v 0.03506131 -0.01992162 -0.02291510
v 0.02965673 -0.02796458 -0.01095691
v 0.03446820 -0.02288105 -0.01983284
v 0.03583876 -0.02894126 -0.00778528
v 0.03999138 -0.00229552 -0.02525151
v 0.03649455 -0.00224867 -0.03009528
v 0.03006207 -0.02253217 -0.02024954
v 0.04150020 -0.01445198 -0.01567619
v 0.04150020 -0.01023684 -0.01806925
v 0.01122501 -0.00709251 -0.02964374
v 0.02897572 -0.02367407 -0.01882575
v 0.03506021 -0.02830560 -0.01000947
v 0.03472245 -0.01982026 -0.02300774
v 0.03548829 -0.02252477 -0.02025476
v 0.00002582 -0.01114358 -0.02830984
v 0.02939679 -0.02721810 -0.01277960
v 0.00610921 -0.01181044 -0.02806982
v 0.01444907 -0.00903802 -0.02908783
v 0.00526227 -0.00521446 -0.03002560
v 0.03486138 -0.02901729 -0.00763617
v 0.02554335 -0.00763306 -0.02950422
v 0.03566195 -0.02416025 -0.01814293
v 0.00099030 -0.01643990 -0.02557684
v 0.03067325 -0.00279594 -0.03036321
v 0.03587729 -0.02336381 -0.01912727
v 0.03998631 -0.00418346 -0.02499108
v 0.03558576 -0.01036407 -0.02863360
v 0.03319322 -0.02900313 -0.00769285
v 0.04099543 -0.00699759 -0.02283522
v 0.00891772 -0.00249383 -0.03038998
v 0.00003579 -0.01704522 -0.02299663
v 0.03472753 -0.02610350 -0.01503414
v 0.00023389 -0.00480388 -0.03008616
v 0.03157314 -0.00459078 -0.03014065
v 0.03734477 -0.02767603 -0.00819377
v 0.00258283 -0.01733689 -0.02496674
v 0.03592036 -0.00027469 -0.03043423
v 0.03708259 -0.02777289 -0.00908482
v 0.02973545 -0.02970652 -0.00412775
v 0.03531435 -0.01263859 -0.02770067
v 0.00278883 -0.00243054 -0.03038609
v 0.04016501 -0.00502125 -0.02458765
v 0.03708565 -0.00759378 -0.02860602
v 0.03217675 -0.02506877 -0.01680047
v 0.03880814 -0.01024243 -0.02506250
v 0.03566068 -0.02958575 -0.00482375
v 0.03951015 -0.02494045 -0.00700739
v 0.00070121 -0.01230895 -0.02782483
v 0.03898645 -0.00507572 -0.02634203
v 0.01170849 -0.00002179 -0.03049403
v 0.03786596 -0.02343029 -0.01581899
v 0.03537681 -0.01956006 -0.02323329
v 0.03795229 -0.02709227 -0.00719186
v 0.00494187 -0.00306343 -0.03033202
v 0.03614607 -0.00959286 -0.02878482
v 0.03561651 -0.01352590 -0.02725871
v 0.00165294 -0.01638150 -0.02561984
v 0.03997851 -0.01843752 -0.01736202
v 0.03589330 -0.02125284 -0.02157527
v 0.03155430 -0.02308155 -0.01958648
v 0.01378211 -0.00701318 -0.02966181
v 0.04015735 -0.01808609 -0.01737033
v 0.03242042 -0.00291682 -0.03035133
v 0.03660964 -0.02189618 -0.02039518
v 0.03420796 -0.02992791 -0.00201169
v 0.00414120 -0.01191184 -0.02802432
v 0.02944586 -0.01881703 -0.02385748
v 0.00247417 -0.00307880 -0.03031903
v 0.03946748 -0.01024601 -0.02401769
v 0.04002061 -0.00511337 -0.02478371
v 0.03514511 -0.02598928 -0.01523871
v 0.04021572 -0.01799397 -0.01734803
v 0.03382376 -0.02680204 -0.01366499
v 0.03637015 -0.00930799 -0.02877277
v 0.03676101 -0.00623644 -0.02931001
v 0.03636522 -0.00011367 -0.03026314
v 0.03593556 -0.00178173 -0.03036330
v 0.03401421 -0.01907362 -0.02364567
v 0.00006857 -0.00202236 -0.03039030
v 0.03739810 -0.02868561 -0.00222809
v 0.03599854 -0.02967413 -0.00377691
v 0.04098260 -0.01544044 -0.01823589
v 0.03938700 -0.00755193 -0.02512553
v 0.00342645 -0.00347598 -0.03027948
v 0.03680930 -0.02944419 -0.00153656
v 0.03448224 -0.00131250 -0.03046183
v 0.00450018 -0.00508039 -0.03005171
v 0.04100019 -0.01728550 -0.01628903
v 0.03357531 -0.02200499 -0.02084352
v 0.03703248 -0.01704222 -0.02421996
v 0.03798545 -0.01786388 -0.02185742
v 0.03651243 -0.02551064 -0.01546588
v 0.03999069 -0.01802494 -0.01778899
v 0.03407834 -0.02757676 -0.01193731
v 0.00001787 -0.00913919 -0.02903418
v 0.03703537 -0.02925776 -0.00053777
v 0.00503320 -0.00065782 -0.03046758
v 0.03596772 -0.02516934 -0.01650686
v 0.03036759 -0.02003344 -0.02281763
v 0.03569642 -0.02712082 -0.01292805
v 0.04075362 -0.01751731 -0.01672983
v 0.03713562 -0.02260956 -0.01873001
v 0.03653261 -0.01321950 -0.02705115
v 0.02800020 -0.02805295 -0.00009439
v 0.03572342 -0.02971882 -0.00385612
v 0.03631880 -0.02833213 -0.00929210
v 0.00527788 -0.00006851 -0.03049178
v 0.03998560 -0.01812373 -0.01769389
v 0.03912533 -0.02643153 -0.00004330
v 0.03648345 -0.00253461 -0.03008647
v 0.01775418 -0.01155358 -0.02817716
v 0.03564027 -0.02846267 -0.00949136
v 0.03951702 -0.00743723 -0.02496147
v 0.02820940 -0.01941047 -0.02336603
v 0.03376514 -0.02980963 -0.00337028
v 0.03502513 -0.02171063 -0.02115108
v 0.03653655 -0.01186638 -0.02768277
v 0.03541039 -0.01282995 -0.02760911
v 0.03533542 -0.00863596 -0.02921174
v 0.03454298 -0.02204554 -0.02079714
v 0.03690697 -0.02464963 -0.01630042
v 0.03673946 -0.01057147 -0.02803711
v 0.01905236 -0.00953193 -0.02893872
v 0.03561183 -0.01448552 -0.02673846
v 0.03626565 -0.00296398 -0.03016191
v 0.03988983 -0.02309816 -0.01055566
v 0.03662883 -0.02854763 -0.00796459
v 0.02972524 -0.02995409 -0.00163695
v 0.04088583 -0.00913232 -0.02224244
v 0.02593738 -0.00356558 -0.03028148
v 0.00526704 -0.00201466 -0.03041253
v 0.03575608 -0.02600555 -0.01513558
v 0.03928796 -0.02008933 -0.01699142
v 0.03831532 -0.01055290 -0.02571368
v 0.03562174 -0.00369725 -0.03024508
v 0.03640769 -0.01061902 -0.02826665
v 0.01149252 -0.01056201 -0.02857208
v 0.04150020 -0.00246586 -0.01938383
v 0.03291741 -0.00712296 -0.02963622
v 0.03551725 -0.01539367 -0.02623279
v 0.04075654 -0.02333644 -0.00640736
v 0.04080026 -0.00707513 -0.02311000
v 0.03345506 -0.02553234 -0.01604390
v 0.04150020 -0.01798218 -0.01238240
v 0.02187944 -0.00957035 -0.02892632
v 0.03682239 -0.02933382 -0.00297408
v 0.03667433 -0.02102654 -0.02127750
v 0.01676758 -0.00259812 -0.03038066
v 0.00469191 -0.01687003 -0.02530068
v 0.03421119 -0.00626864 -0.02983137
v 0.03653664 -0.02907571 -0.00597394
v 0.04085629 -0.01931854 -0.01435182
v 0.03525695 -0.01637825 -0.02561349
v 0.03674214 -0.02828492 -0.00854618
v 0.03593760 -0.02959451 -0.00443884
v 0.03575891 -0.00730855 -0.02956673
v 0.03706952 -0.02583603 -0.01385275
v 0.00226823 -0.01004819 -0.02874746
v 0.03185801 -0.01917770 -0.02356209
v 0.03618490 -0.00445514 -0.03000436
v 0.03423137 -0.02524887 -0.01651159
v 0.04052328 -0.02396438 -0.00522263
v 0.00470414 -0.01208660 -0.02794337
v 0.00339695 -0.00392163 -0.03022478
v 0.03564557 -0.00209608 -0.03039995
v 0.03681933 -0.00721946 -0.02903945
v 0.03360877 -0.02984116 -0.00303723
v 0.03636443 -0.02942069 -0.00456740
v 0.03676677 -0.02934446 -0.00330420
v 0.02906082 -0.02620377 -0.01482979
v 0.03728195 -0.00287458 -0.02918419
v 0.04053004 -0.02321849 -0.00788071
v 0.03486649 -0.02341701 -0.01915626
v 0.03514182 -0.02981801 -0.00328124
v 0.03680820 -0.02833151 -0.00820567
v 0.02942794 -0.02559696 -0.01592514
v 0.03298399 -0.02922587 -0.00678113
v 0.02989919 -0.02936373 -0.00614365
v 0.02937971 -0.02647478 -0.01432322
v 0.03715208 -0.02797631 -0.00809481
v 0.03595179 -0.02227433 -0.02043242
v 0.04072221 -0.01700947 -0.01731718
v 0.00102055 -0.01433757 -0.02682322
v 0.00081478 -0.00490401 -0.03007143
v 0.04011181 -0.02412232 -0.00688643
v 0.04097147 -0.00851866 -0.02233260
v 0.03635253 -0.02907701 -0.00643390
v 0.03847724 -0.02648250 -0.00668581
v 0.04042498 -0.01761213 -0.01732118
v 0.03585565 -0.02703053 -0.01305588
v 0.03559854 -0.00191283 -0.03041635
v 0.03652158 -0.02957408 -0.00265082
v 0.00978341 -0.01175652 -0.02809295
v 0.00043610 -0.00984212 -0.02881041
v 0.00475082 -0.01145400 -0.02821304
v 0.03329114 -0.02925006 -0.00667207
v 0.03691241 -0.00695040 -0.02900418
v 0.03967316 -0.02142682 -0.01425614
v 0.03631085 -0.02438137 -0.01748244
v 0.03589566 -0.02806128 -0.01052656
v 0.03628753 -0.00358065 -0.03007097
v 0.03607702 -0.02987587 -0.00115626
v 0.03966447 -0.01972090 -0.01659737
v 0.02960370 -0.02843770 -0.00961614
v 0.02859994 -0.01954908 -0.02324559
v 0.02994631 -0.02582338 -0.01553738
v 0.03704379 -0.01093985 -0.02754447
v 0.03052916 -0.02580635 -0.01557028
v 0.02885959 -0.00952365 -0.02894205
v 0.01472480 -0.00012164 -0.03049331
v 0.03056435 -0.01880947 -0.02386309
v 0.00214606 -0.01752810 -0.02483136
v 0.03778796 -0.02825377 -0.00003035
v 0.03739982 -0.02816724 -0.00586842
v 0.04137727 -0.02247367 -0.00035967
v 0.03630106 -0.02438084 -0.01749136
v 0.00687915 -0.01380888 -0.02712691
v 0.02954419 -0.02691606 -0.01343210
v 0.03609123 -0.02268597 -0.01991271
v 0.03693641 -0.02278571 -0.01889002
v 0.03578870 -0.00330272 -0.03026694
v 0.03101028 -0.02992340 -0.00212055
v 0.00005276 -0.00982729 -0.02881277
v 0.04070669 -0.02365966 -0.00543462
v 0.04093364 -0.01833601 -0.01542562
v 0.04013670 -0.00997437 -0.02307178
v 0.03718662 -0.02811073 -0.00743136
v 0.03437090 -0.01394135 -0.02705700
v 0.03110273 -0.02311736 -0.01954247
v 0.04052166 -0.01146570 -0.02173261
v 0.03484908 -0.01943045 -0.02334478
v 0.03711314 -0.00680460 -0.02876799
v 0.04014434 -0.01180686 -0.02217326
v 0.03231190 -0.01939016 -0.02338158
v 0.03657146 -0.00298172 -0.02998737
v 0.03836855 -0.01277909 -0.02457458
v 0.00448220 -0.01658331 -0.02549046
v 0.03699135 -0.00581808 -0.02915185
v 0.00116767 -0.01755937 -0.02480531
v 0.04003899 -0.01603843 -0.01951742
v 0.00467801 -0.01156374 -0.02816867
v 0.03414306 -0.02834668 -0.00988462
v 0.04061360 -0.01736315 -0.01718866
v 0.00356934 -0.01331711 -0.02735713
v 0.04009467 -0.00693304 -0.02422480
v 0.03509308 -0.02552268 -0.01605702
v 0.02916843 -0.02923152 -0.00675682
v 0.03580302 -0.02821791 -0.01016120
v 0.03609645 -0.02933195 -0.00575361
v 0.00667606 -0.00352741 -0.03028559
v 0.00067518 -0.00973464 -0.02885341
v 0.00180689 -0.01139506 -0.02822789
v 0.03660974 -0.02134999 -0.02099632
v 0.00036091 -0.00660976 -0.02971932
v 0.03656873 -0.01726477 -0.02460033
v 0.04150020 -0.02240850 -0.00078960
v 0.03441764 -0.00941825 -0.02897447
v 0.03606090 -0.02916426 -0.00656081
v 0.03744057 -0.02768859 -0.00766154
v 0.03588365 -0.00912094 -0.02901239
v 0.00290502 -0.01389645 -0.02707645
v 0.03494332 -0.01153346 -0.02817858
v 0.03667161 -0.02874698 -0.00704035
v 0.02830662 -0.00709934 -0.02964205
v 0.03495485 -0.02958915 -0.00492768
v 0.03578013 -0.02954495 -0.00498272
v 0.03644672 -0.01723161 -0.02471270
v 0.03546193 -0.02951376 -0.00534080
v 0.03977013 -0.00761563 -0.02451741
v 0.03663322 -0.02108221 -0.02126389
v 0.03593262 -0.02611849 -0.01486218
v 0.04082720 -0.02372370 -0.00426789
v 0.00035312 -0.00000769 -0.03047307
v 0.03606848 -0.01238345 -0.02768968
v 0.03710029 -0.02610039 -0.01318275
v 0.03807587 -0.00806557 -0.02697353
v 0.04083497 -0.02232927 -0.00907843
v 0.03848938 -0.00253443 -0.02744078
v 0.00081031 -0.01398298 -0.02702505
v 0.03701653 -0.01417992 -0.02603707
v 0.03671402 -0.02941918 -0.00300477
v 0.03532056 -0.02838399 -0.00975940
v 0.03163163 -0.02342075 -0.01915725
v 0.02190899 -0.00662795 -0.02974954
v 0.00021056 -0.01217834 -0.02788483
v 0.03195652 -0.02326894 -0.01935353
v 0.03554269 -0.02713954 -0.01292921
v 0.03634484 -0.02946679 -0.00430982
v 0.00184235 -0.00739883 -0.02954661
v 0.03211406 -0.02999869 -0.00004689
v 0.00548250 -0.00668306 -0.02972675
v 0.03719312 -0.02906142 -0.00008755
v 0.03727934 -0.02770204 -0.00842797
v 0.03284275 -0.01044197 -0.02861700
v 0.03698847 -0.02693987 -0.01170041
v 0.00552596 -0.00228618 -0.03040168
v 0.04083488 -0.00503323 -0.02357236
v 0.02925023 -0.02642772 -0.01441204
v 0.02631428 -0.01585913 -0.02595718
v 0.02614588 -0.01905621 -0.02366452
v 0.00000307 -0.00346278 -0.02878107
v 0.03717443 -0.02394368 -0.01679019
v 0.03706758 -0.01916626 -0.02245347
v 0.04100019 -0.00334735 -0.02358591
v 0.03556191 -0.02951472 -0.00532906
v 0.04093887 -0.01810481 -0.01567358
v 0.03680102 -0.02937890 -0.00261077
v 0.03598024 -0.00610329 -0.02977282
v 0.02150224 -0.00267332 -0.03037404
v 0.03632335 -0.02972680 -0.00195089
v 0.02911134 -0.02739085 -0.01236884
v 0.03693504 -0.02779987 -0.00955975
v 0.03587927 -0.01875081 -0.02382685
v 0.03737861 -0.02408235 -0.01606600
v 0.04018367 -0.02442154 -0.00529374
v 0.03584241 -0.00273662 -0.03033038
v 0.00413789 -0.00976532 -0.02885532
v 0.03372961 -0.01570271 -0.02605563
v 0.03674553 -0.02345156 -0.01832270
v 0.02952615 -0.02853040 -0.00932876
v 0.03524872 -0.02514507 -0.01667158
v 0.02426169 -0.01803825 -0.02446585
v 0.03251867 -0.02834939 -0.00988016
v 0.03556865 -0.02841940 -0.00963802
v 0.03617223 -0.02704250 -0.01282447
v 0.00823711 -0.00942161 -0.02897127
v 0.02756026 -0.01920466 -0.02354102
v 0.03587611 -0.01219878 -0.02783474
v 0.03156568 -0.02388998 -0.01852926
v 0.03658327 -0.02602981 -0.01443891
v 0.03608479 -0.01580316 -0.02587182
v 0.03473919 -0.02277894 -0.01995815
v 0.03584292 -0.02123700 -0.02160709
v 0.00017145 -0.01796895 -0.02451671
v 0.03592510 -0.01442035 -0.02671747
v 0.01404754 -0.00010479 -0.03049343
v 0.03644379 -0.02959508 -0.00301049
v 0.04150020 -0.02192442 -0.00406023
v 0.03860240 -0.01218472 -0.02448441
v 0.03589887 -0.01787369 -0.02451870
v 0.00585263 -0.00473132 -0.03011618
v 0.03349665 -0.02982346 -0.00323437
v 0.03747427 -0.00830911 -0.02781863
v 0.04093018 -0.02107670 -0.01141560
v 0.03910303 -0.01952560 -0.01802111
v 0.02902662 -0.02668600 -0.01390636
v 0.03575712 -0.02993600 -0.00136372
v 0.01812726 -0.00052041 -0.03048376
v 0.02897295 -0.02873343 -0.00852966
v 0.03725245 -0.02872069 -0.00362870
v 0.02504378 -0.01052342 -0.02858761
v 0.00025155 -0.00778834 -0.02942869
v 0.04048510 -0.02225272 -0.01043926
v 0.03884563 -0.01254549 -0.02391706
v 0.00195665 -0.00959633 -0.02890736
v 0.03862421 -0.02359077 -0.01346163
v 0.02956994 -0.01379056 -0.02713651
v 0.04150020 -0.00623117 -0.01916451
v 0.03265856 -0.00041424 -0.03049080
v 0.03659439 -0.02910687 -0.00567756
v 0.00125991 -0.01798265 -0.02450693
v 0.03630238 -0.02163601 -0.02094370
v 0.03659569 -0.00854512 -0.02884984
v 0.03715924 -0.02719301 -0.01044034
v 0.03627698 -0.02944645 -0.00465850
v 0.00178709 -0.01256575 -0.02770727
v 0.03432393 -0.01128445 -0.02828650
v 0.03641124 -0.00351254 -0.03001711
v 0.00507239 -0.01218669 -0.02789649
v 0.03594948 -0.00936507 -0.02892751
v 0.00448563 -0.01058090 -0.02856308
v 0.03534885 -0.02714408 -0.01292206
v 0.03264652 -0.02841660 -0.00967171
v 0.03601522 -0.00944792 -0.02888105
v 0.03630551 -0.02882416 -0.00766778
v 0.03667666 -0.02663106 -0.01305637
v 0.03552451 -0.01284214 -0.02760170
v 0.03606717 -0.02990399 -0.00060878
v 0.02930594 -0.02322161 -0.01941422
v 0.03312384 -0.02747814 -0.01217144
v 0.00469169 -0.01687406 -0.02529790
v 0.03458811 -0.01071507 -0.02851306
v 0.03646736 -0.02973786 -0.00006512
v 0.03146920 -0.02740430 -0.01234748
v 0.03600016 -0.02989439 -0.00123536
v 0.03667913 -0.02593759 -0.01446037
v 0.00604676 -0.00485257 -0.03009887
v 0.04150020 -0.02223548 -0.00072494
v 0.03689791 -0.02521553 -0.01537333
v 0.00806409 -0.00479916 -0.03010695
v 0.03555435 -0.02314525 -0.01950232
v 0.03375805 -0.00113400 -0.03047140
v 0.03742191 -0.02711017 -0.00962443
v 0.03621910 -0.01184540 -0.02788049
v 0.00712904 -0.01608672 -0.02581253
v 0.03482472 -0.00800500 -0.02940302
v 0.01681911 -0.00357783 -0.03027994
v 0.03570386 -0.01397695 -0.02701529
v 0.04017044 -0.01739804 -0.01804066
v 0.04043700 -0.02116677 -0.01263628
v 0.03688807 -0.00973623 -0.02819820
v 0.00440719 -0.01599312 -0.02586513
v 0.02987403 -0.01411217 -0.02696696
v 0.03638715 -0.00323132 -0.03006883
v 0.03731271 -0.02399080 -0.01637599
v 0.03652195 -0.02574224 -0.01503471
v 0.03390734 -0.01802335 -0.02447646
v 0.03519450 -0.02955457 -0.00513808
v 0.04150020 -0.02018727 -0.00010242
v 0.03623892 -0.01296792 -0.02734411
v 0.00700955 -0.01181419 -0.02806888
v 0.00892824 -0.01048589 -0.02860144
v 0.03085576 -0.00137558 -0.03045866
v 0.03043750 -0.02995775 -0.00158485
v 0.03550613 -0.02987527 -0.00260487
v 0.02957047 -0.02988171 -0.00261906
v 0.03495539 -0.01359059 -0.02723531
v 0.02266633 -0.01402743 -0.02701165
v 0.03702422 -0.02912935 -0.00294334
v 0.03708047 -0.00867257 -0.02830162
v 0.04100019 -0.01879720 -0.01457863
v 0.03073536 -0.02862290 -0.00902883
v 0.03887810 -0.02334483 -0.01318261
v 0.03607473 -0.02784038 -0.01097514
v 0.03688891 -0.01808874 -0.02362706
v 0.03700210 -0.02435297 -0.01657332
v 0.02921637 -0.02956452 -0.00505781
v 0.00811016 -0.00709763 -0.02964248
v 0.03517154 -0.02737951 -0.01238650
v 0.03950113 -0.01654307 -0.00000509
v 0.00475699 -0.00924994 -0.02901827
v 0.00044253 -0.01162119 -0.02813102
v 0.03872301 -0.02581299 -0.00786502
v 0.04100019 -0.02378917 -0.00166362
v 0.03663880 -0.00449209 -0.02973709
v 0.00011852 -0.01799257 -0.02345913
v 0.03674133 -0.00782675 -0.02893953
v 0.02601465 -0.01799548 -0.02449760
v 0.03747491 -0.02715838 -0.00925690
v 0.01462626 -0.00260940 -0.03037935
v 0.03367515 -0.02322861 -0.01940477
v 0.00446681 -0.01021233 -0.02869752
v 0.03714111 -0.00514903 -0.02906333
v 0.03660310 -0.02925677 -0.00476157
v 0.03491065 -0.00009195 -0.03049353
v 0.03694950 -0.02617350 -0.01347456
v 0.03698036 -0.00730563 -0.02883184
v 0.04065774 -0.01876462 -0.01553734
v 0.03668619 -0.02197164 -0.02022354
v 0.03728661 -0.00312446 -0.02914124
v 0.02024616 -0.00748479 -0.02954263
v 0.03642994 -0.00938730 -0.02871305
v 0.00880224 -0.01366348 -0.02719933
v 0.03723215 -0.01129778 -0.02710842
v 0.03996436 -0.01184279 -0.02245023
v 0.03677771 -0.01281452 -0.02703434
v 0.03689691 -0.01079540 -0.02778880
v 0.03718439 -0.02863062 -0.00492421
v 0.00075888 -0.01754982 -0.02480963
v 0.03487639 -0.00042368 -0.03049113
v 0.00670509 -0.00961824 -0.02891004
v 0.03706029 -0.01963567 -0.02203337
v 0.02609051 -0.01944034 -0.02334098
v 0.03606113 -0.00133785 -0.03034769
v 0.03391798 -0.02954196 -0.00520528
v 0.03567692 -0.00770656 -0.02946177
v 0.03688233 -0.02886442 -0.00569717
v 0.03697186 -0.00277081 -0.02963833
v 0.02766746 -0.00273929 -0.03036795
v 0.03355211 -0.02976731 -0.00368138
v 0.03724062 -0.01838280 -0.02281632
v 0.03592805 -0.00501005 -0.03001618
v 0.03528380 -0.02902269 -0.00761374
v 0.03640338 -0.00386405 -0.02997597
v 0.03556479 -0.00691446 -0.02967908
v 0.03502556 -0.02345909 -0.01909910
v 0.03801906 -0.02740303 -0.00543341
v 0.04096139 -0.02384903 -0.00186294
v 0.01006699 -0.01612068 -0.02579330
v 0.03539849 -0.01795385 -0.02452771
v 0.03681735 -0.02351836 -0.01813235
v 0.00344865 -0.00659093 -0.02973959
v 0.04026154 -0.00426114 -0.02457235
v 0.03983202 -0.00534526 -0.02501446
v 0.00326653 -0.00316767 -0.03031448
v 0.00488698 -0.00383799 -0.03024301
v 0.03627060 -0.02943505 -0.00475661
v 0.02002443 -0.01798926 -0.02450216
v 0.03688855 -0.02640005 -0.01312446
v 0.04059568 -0.01628546 -0.01822997
v 0.03036058 -0.02570069 -0.01575594
v 0.03053425 -0.02907370 -0.00740778
v 0.03568760 -0.02357805 -0.01890578
v 0.01029872 -0.01377428 -0.02714489
v 0.03473465 -0.02829577 -0.01004220
v 0.04033139 -0.02379359 -0.00695523
v 0.04082557 -0.01193717 -0.02096753
v 0.00342418 -0.01387256 -0.02708986
v 0.04098910 -0.02384300 -0.00115580
v 0.03448767 -0.01412352 -0.02696096
v 0.03554310 -0.00248033 -0.03038110
v 0.03528331 -0.00525327 -0.03001842
v 0.03581471 -0.02414782 -0.01812730
v 0.03551429 -0.00968061 -0.02888608
v 0.00447649 -0.01329896 -0.02736868
v 0.00677368 -0.01360807 -0.02722468
v 0.03491728 -0.02927343 -0.00655416
v 0.02913442 -0.02194249 -0.02091651
v 0.03775884 -0.02737813 -0.00714299
v 0.03596420 -0.02091483 -0.02188389
v 0.03547445 -0.02484645 -0.01712953
v 0.00799767 -0.01620916 -0.02573603
v 0.03499286 -0.02702957 -0.01318465
v 0.03526382 -0.02540557 -0.01625760
v 0.03651041 -0.02956466 -0.00288517
v 0.01381706 -0.00205536 -0.03041778
v 0.02901946 -0.02463237 -0.01745432
v 0.02917406 -0.02837196 -0.00980038
v 0.03547797 -0.02306525 -0.01960564
v 0.03699979 -0.01362714 -0.02637165
v 0.03599427 -0.02616451 -0.01474517
v 0.02964364 -0.02988711 -0.00255884
v 0.03348158 -0.00291897 -0.03035121
v 0.03278983 -0.02951012 -0.00537606
v 0.02214490 -0.01808788 -0.02442848
v 0.03829167 -0.02436218 -0.01302898
v 0.03612940 -0.02985368 -0.00124299
v 0.03674127 -0.01003505 -0.02823823
v 0.03672754 -0.02254259 -0.01952424
v 0.03028765 -0.02988951 -0.00252760
v 0.00035914 -0.01387477 -0.02707454
v 0.03833320 -0.01531528 -0.02313223
v 0.02939397 -0.02210974 -0.02072997
v 0.03206225 -0.01796663 -0.02451849
v 0.04075293 -0.01377268 -0.01993373
v 0.00096553 -0.01455428 -0.02669803
v 0.00110509 -0.00239199 -0.03038005
v 0.03696966 -0.00502733 -0.02933330
v 0.03650131 -0.02943755 -0.00392927
v 0.00009721 -0.01649265 -0.02309043
v 0.02829137 -0.01132994 -0.02826942
v 0.03671274 -0.01031553 -0.02815635
v 0.03988693 -0.00214256 -0.02541488
v 0.03734067 -0.00676562 -0.02843525
v 0.00385728 -0.01581693 -0.02596701
v 0.03983428 -0.01815668 -0.01797466
v 0.00809185 -0.01363467 -0.02721294
v 0.04100019 -0.00108025 -0.02362946
v 0.03102703 -0.02964611 -0.00455931
v 0.03610404 -0.00742814 -0.02944069
v 0.02455976 -0.01822023 -0.02432732
v 0.03497470 -0.00308871 -0.03033290
v 0.03516851 -0.01017342 -0.02871212
v 0.02932113 -0.02886905 -0.00815763
v 0.03247688 -0.01872504 -0.02393079
v 0.03699997 -0.02104785 -0.02078736
v 0.00434148 -0.00719363 -0.02961310
v 0.00517483 -0.00011075 -0.03048997
v 0.00339430 -0.00406318 -0.03020493
v 0.04092069 -0.02159938 -0.01042335
v 0.04005935 -0.02130190 -0.01344778
v 0.02974227 -0.02484856 -0.01713895
v 0.03606028 -0.02990702 -0.00056018
v 0.03560108 -0.00538146 -0.02999319
v 0.00259173 -0.00721962 -0.02960065
v 0.03346416 -0.01125021 -0.02830167
v 0.03605831 -0.02771982 -0.01130817
v 0.03609036 -0.01496470 -0.02635148
v 0.03736490 -0.02074932 -0.02036426
v 0.03179620 -0.02999788 -0.00007638
v 0.03020888 -0.02660025 -0.01408088
v 0.03706590 -0.02053315 -0.02119285
v 0.03676402 -0.00674581 -0.02920012
v 0.03643558 -0.02969883 -0.00155643
v 0.03769575 -0.02826639 -0.00252278
v 0.04056896 -0.01531071 -0.01911971
v 0.03424986 -0.01054902 -0.02857731
v 0.00438170 -0.01048352 -0.02859937
v 0.02963946 -0.01417508 -0.02693127
v 0.04097519 -0.00303960 -0.02368957
v 0.03950229 -0.00808761 -0.00000365
v 0.00757015 -0.00266311 -0.03037277
v 0.00389021 -0.00475559 -0.03010877
v 0.04091989 -0.01437880 -0.01920166
v 0.03536262 -0.00493223 -0.03007719
v 0.00498453 -0.00378241 -0.03025090
v 0.03672588 -0.00373261 -0.02976705
v 0.03692826 -0.02749182 -0.01042213
v 0.04048193 -0.02415754 -0.00454251
v 0.00395130 -0.00968990 -0.02888146
v 0.03586439 -0.01429499 -0.02680193
v 0.03693638 -0.01616475 -0.02495137
v 0.04036627 -0.01553013 -0.01931972
v 0.03397369 -0.02926730 -0.00659227
v 0.03311771 -0.00042480 -0.03049065
v 0.02919455 -0.02906226 -0.00745499
v 0.03483776 -0.00574971 -0.02992713
v 0.03636488 -0.01629084 -0.02540223
v 0.03444691 -0.01869291 -0.02395583
v 0.03421640 -0.01984228 -0.02298819
v 0.03717598 -0.00270844 -0.02935355
v 0.03555830 -0.02959223 -0.00486302
v 0.03801966 -0.02738648 -0.00550497
v 0.03476037 -0.02083959 -0.02205194
v 0.00770400 -0.00363729 -0.03027150
v 0.03407273 -0.02603107 -0.01516794
v 0.03533060 -0.02996259 -0.00136687
v 0.03683515 -0.01566515 -0.02540988
v 0.03710221 -0.01721086 -0.02398429
v 0.04084561 -0.02398980 -0.00219491
v 0.03276689 -0.02212971 -0.02070991
v 0.00007080 -0.00799178 -0.02936876
v 0.04091016 -0.00967171 -0.02197316
v 0.02761916 -0.00463338 -0.03013383
v 0.03596062 -0.02950631 -0.00501490
v 0.03704325 -0.02754752 -0.00991332
v 0.02987386 -0.02996283 -0.00145329
v 0.03733834 -0.02675468 -0.01092058
v 0.02282510 -0.01376247 -0.02715077
v 0.03662559 -0.02276385 -0.01936655
v 0.03504660 -0.00935941 -0.02899236
v 0.04068866 -0.00747554 -0.02314572
v 0.03710413 -0.02768151 -0.00928245
v 0.03693587 -0.00999676 -0.02804623
v 0.04097802 -0.02250597 -0.00804945
v 0.03611962 -0.01358058 -0.02710994
v 0.00442602 -0.01340326 -0.02731914
v 0.01605081 -0.00676051 -0.02971865
v 0.03655374 -0.02968222 -0.00045699
v 0.02706830 -0.02005084 -0.02280213
v 0.03537229 -0.00761792 -0.02950928
v 0.03875238 -0.01590753 -0.02197851
v 0.03527844 -0.02001086 -0.02283088
v 0.00192841 -0.01627765 -0.02568872
v 0.01369900 -0.01605186 -0.02583676
v 0.03986218 -0.01292754 -0.02201269
v 0.03686139 -0.02938437 -0.00168719
v 0.03750933 -0.01319489 -0.02575965
v 0.02083598 -0.00000416 -0.03049416
v 0.03622229 -0.02555407 -0.01569194
v 0.00378391 -0.00372589 -0.03025232
v 0.03052076 -0.02921246 -0.00683652
v 0.03634680 -0.02236511 -0.02011015
v 0.03391336 -0.01272657 -0.02765968
v 0.04081727 -0.01427445 -0.01946898
v 0.04149061 -0.00190681 -0.01944507
v 0.03336941 -0.02210788 -0.02073465
v 0.03663423 -0.00115686 -0.03005954
v 0.04083990 -0.01755849 -0.01649847
v 0.00597451 -0.01198513 -0.02799250
v 0.03729451 -0.01106355 -0.02711101
v 0.03673328 -0.00261799 -0.02990071
v 0.04096884 -0.01159448 -0.02092039
v 0.03001558 -0.02199330 -0.02086098
v 0.00148345 -0.00811632 -0.02933749
v 0.04150020 -0.01339365 -0.01646995
v 0.03865071 -0.02707966 -0.00000702
v 0.03695337 -0.02900882 -0.00441814
v 0.00610616 -0.01068374 -0.02852310
v 0.03502242 -0.02992412 -0.00204180
v 0.03529791 -0.00429827 -0.03018146
v 0.03943834 -0.02198076 -0.01399642
v 0.03571051 -0.00927280 -0.02900176
v 0.00460168 -0.00782373 -0.02943120
v 0.03557967 -0.02376400 -0.01868213
v 0.03824509 -0.02302560 -0.01546680
v 0.03644034 -0.00140034 -0.03017476
v 0.03547921 -0.02966512 -0.00438834
v 0.00025349 -0.00231409 -0.03037935
v 0.02980746 -0.02966295 -0.00444704
v 0.03616728 -0.01277126 -0.02747233
v 0.00385274 -0.01086124 -0.02844881
v 0.00031030 -0.00983295 -0.02881283
v 0.03709442 -0.01651983 -0.02448393
v 0.03418484 -0.02828831 -0.01006113
v 0.03594776 -0.02942080 -0.00555994
v 0.00013548 -0.00074895 -0.02898388
v 0.04045666 -0.01948952 -0.01508223
v 0.00059634 -0.00942889 -0.02895181
v 0.03807590 -0.01775858 -0.02177442
v 0.04055501 -0.02315354 -0.00797034
v 0.04066940 -0.00950732 -0.02242652
v 0.00451196 -0.00177259 -0.03042062
v 0.03131739 -0.02561103 -0.01590806
v 0.00474607 -0.01265154 -0.02767604
v 0.03622759 -0.02439219 -0.01753475
v 0.03856422 -0.02023659 -0.01838093
v 0.04082426 -0.00780528 -0.02281714
v 0.03542044 -0.02978095 -0.00357330
v 0.03470216 -0.02550301 -0.01609243
v 0.03682067 -0.00161009 -0.02987450
v 0.03669609 -0.02807998 -0.00935125
v 0.03262954 -0.02348090 -0.01907699
v 0.03847339 -0.02677391 -0.00542045
v 0.04149454 -0.00083346 -0.01932697
v 0.03625051 -0.01657238 -0.02527648
v 0.03497097 -0.00050290 -0.03048908
v 0.01786044 -0.00018595 -0.03049282
v 0.03764696 -0.02184896 -0.01851780
v 0.03689033 -0.02172803 -0.02021971
v 0.03543100 -0.02316963 -0.01947703
v 0.00404851 -0.00932543 -0.02899426
v 0.03173594 -0.02849997 -0.00000259
v 0.03941692 -0.02589705 -0.00265482
v 0.03520448 -0.02677247 -0.01371670
v 0.03688442 -0.02396336 -0.01738759
v 0.03576430 -0.02141905 -0.02142879
v 0.02766174 -0.01800716 -0.02448893
v 0.04097900 -0.02325150 -0.00552559
v 0.03773733 -0.02019985 -0.02017966
v 0.03814941 -0.02316849 -0.01549213
v 0.03727382 -0.01523306 -0.02501275
v 0.03577338 -0.00723194 -0.02958115
v 0.03727797 -0.01379326 -0.02583860
v 0.03678466 -0.02606458 -0.01406511
v 0.03038006 -0.00709097 -0.02964410
v 0.03655010 -0.01191245 -0.02765199
v 0.04077588 -0.00006815 -0.02420255
v 0.00586046 -0.00975215 -0.02886245
v 0.03030158 -0.02564763 -0.01584480
v 0.03375985 -0.01926610 -0.02348787
v 0.02930830 -0.02797250 -0.01093283
v 0.03765990 -0.01315136 -0.02553846
v 0.03654314 -0.02947318 -0.00351355
v 0.02567500 -0.01877675 -0.02389179
v 0.03790062 -0.02720744 -0.00702944
v 0.03476115 -0.02545417 -0.01617627
v 0.02756453 -0.02075650 -0.02213925
v 0.01463447 -0.00715304 -0.02962879
v 0.03574400 -0.02315619 -0.01943874
v 0.03325362 -0.01429144 -0.02686659
v 0.00020996 -0.01561356 -0.02608080
v 0.00454844 -0.00050943 -0.03047222
v 0.04082776 -0.01228144 -0.02075969
v 0.03944723 -0.02544144 -0.00531565
v 0.03439268 -0.00293668 -0.03034930
v 0.02838651 -0.02011884 -0.02274044
v 0.03548839 -0.02945807 -0.00562059
v 0.03671273 -0.01201957 -0.02746625
v 0.03461493 -0.00726908 -0.02960012
v 0.03335603 -0.00804848 -0.02938971
v 0.03539347 -0.01171716 -0.02809898
v 0.04068429 -0.02215647 -0.00999132
v 0.03614243 -0.00473931 -0.02998363
v 0.02915139 -0.02936045 -0.00615868
v 0.03570409 -0.02976168 -0.00357680
v 0.00053177 -0.00234278 -0.03037945
v 0.03706240 -0.01116333 -0.02743451
v 0.03417955 -0.02236387 -0.02044226
v 0.03950335 -0.00018882 -0.00016128
v 0.03706886 -0.00140289 -0.02957881
v 0.03665411 -0.00504600 -0.02964633
v 0.03640875 -0.01943798 -0.02301984
v 0.03536454 -0.00163901 -0.03043962
v 0.04005155 -0.02516401 -0.00017452
v 0.03671391 -0.02807994 -0.00930479
v 0.00531855 -0.00328275 -0.03031000
v 0.03645551 -0.00439308 -0.02987445
v 0.03898360 -0.02214975 -0.01491722
v 0.03567534 -0.02958644 -0.00480694
v 0.03605464 -0.02876431 -0.00819553
v 0.03487184 -0.00335607 -0.03030407
v 0.03689215 -0.01606123 -0.02507472
v 0.03022336 -0.02185065 -0.02101475
v 0.03549561 -0.00973270 -0.02886822
v 0.03663981 -0.00924286 -0.02860997
v 0.03897611 -0.02047612 -0.01721733
v 0.04100019 -0.00032664 -0.02317849
v 0.03553357 -0.01214119 -0.02791514
v 0.03528348 -0.00087921 -0.03047916
v 0.04077834 -0.01915205 -0.01477115
v 0.02902732 -0.02992559 -0.00208073
v 0.00541924 -0.00988416 -0.02881551
v 0.03677226 -0.00531252 -0.02949248
v 0.00456078 -0.00627805 -0.02980834
v 0.03991649 -0.01393177 -0.02128990
v 0.02512325 -0.01893471 -0.02376379
v 0.03661871 -0.02929490 -0.00441736
v 0.03566723 -0.02239658 -0.02037650
v 0.00118931 -0.01205708 -0.02794620
v 0.00986991 -0.01048895 -0.02860036
v 0.03942630 -0.01842787 -0.01853126
v 0.04041863 -0.02365792 -0.00699902
v 0.00630188 -0.00962910 -0.02890620
v 0.03554934 -0.00194634 -0.03041666
v 0.03797595 -0.00638589 -0.02756698
v 0.00415828 -0.01369743 -0.02717823
v 0.03671825 -0.01683398 -0.02475204
v 0.03666886 -0.02961042 -0.00032496
v 0.03730544 -0.00707750 -0.02841534
v 0.03678925 -0.00411415 -0.02966030
v 0.03632568 -0.02716161 -0.01240663
v 0.03710023 -0.01269860 -0.02665331
v 0.03156618 -0.01801519 -0.02448292
v 0.03718467 -0.02780833 -0.00852026
v 0.03706555 -0.01143225 -0.02731208
v 0.03438321 -0.00786607 -0.02944400
v 0.03674462 -0.00880085 -0.02865266
v 0.02918608 -0.02983949 -0.00308860
v 0.01787172 -0.00327537 -0.03031277
v 0.03595981 -0.00904696 -0.02901689
v 0.00198681 -0.00429018 -0.03016653
v 0.00246438 -0.01005569 -0.02874583
v 0.03004466 -0.02843651 -0.00962122
v 0.02454385 -0.01850090 -0.02410974
v 0.02984116 -0.02721614 -0.01278345
v 0.03476383 -0.01040345 -0.02863064
v 0.03017784 -0.02230833 -0.02050474
v 0.03544402 -0.01844179 -0.02415417
v 0.03688940 -0.01402060 -0.02629466
v 0.03504371 -0.02741958 -0.01229580
v 0.03114790 -0.02502019 -0.01687674
v 0.03686932 -0.02854411 -0.00719864
v 0.03626783 -0.02964827 -0.00329564
v 0.03967916 -0.00002795 -0.02581574
v 0.03094516 -0.02847246 -0.00950437
v 0.03529979 -0.01714436 -0.02511181
v 0.03294891 -0.02507488 -0.01678821
v 0.03134881 -0.02086018 -0.02203678
v 0.04075789 -0.00219104 -0.02413261
v 0.04150020 -0.00051117 -0.00018235
v 0.03571801 -0.02014016 -0.02267366
v 0.03694864 -0.01322907 -0.02664101
v 0.04096236 -0.01883978 -0.01475530
v 0.03695126 -0.01981537 -0.02207158
v 0.03707385 -0.00027599 -0.02963007
v 0.04088162 -0.01984720 -0.01355601
v 0.03634392 -0.00316075 -0.03009964
v 0.03939849 -0.01135271 -0.02360135
v 0.02910289 -0.02807890 -0.01063037
v 0.03881437 -0.00527070 -0.02655872
v 0.03568748 -0.02402208 -0.01832731
v 0.03679772 -0.02264507 -0.01929563
v 0.03995897 -0.01839404 -0.01745178
v 0.03752456 -0.00280435 -0.02883481
v 0.04082526 -0.01150911 -0.02120526
v 0.03191812 -0.02708901 -0.01306183
v 0.02806453 -0.02137790 -0.02151007
v 0.03624419 -0.00058855 -0.03031808
v 0.03793804 -0.02790712 -0.00274636
v 0.01204680 -0.00000759 -0.03049414
v 0.03069763 -0.02207174 -0.02077422
v 0.00503051 -0.00552413 -0.02996271
v 0.03672760 -0.01327500 -0.02686499
v 0.00485947 -0.01642279 -0.02559677
v 0.03854286 -0.02391756 -0.01311756
v 0.03213666 -0.00129147 -0.03046368
v 0.02906351 -0.02925572 -0.00664454
v 0.04088429 -0.01455608 -0.01912917
v 0.02841230 -0.00709136 -0.02964401
v 0.03071690 -0.02700685 -0.01324442
v 0.03246357 -0.02710728 -0.01301952
v 0.00722712 -0.01183998 -0.02805797
v 0.03436934 -0.00612039 -0.02985880
v 0.03999345 -0.01385341 -0.02120725
v 0.04150020 -0.00015250 -0.00037988
v 0.03673434 -0.01843360 -0.02354071
v 0.02883492 -0.02981765 -0.00067571
v 0.03599677 -0.01599802 -0.02577513
v 0.03857439 -0.00716225 -0.02646733
v 0.00813284 -0.00009956 -0.03049245
v 0.03733857 -0.02531585 -0.01403619
v 0.04029882 -0.02108604 -0.01316069
v 0.03275667 -0.02223779 -0.02058700
v 0.02954908 -0.02945642 -0.00565769
v 0.03677830 -0.01471405 -0.02603094
v 0.03094913 -0.02323331 -0.01939939
v 0.04011980 -0.01597240 -0.01941999
v 0.03593667 -0.02145118 -0.02134425
v 0.00050417 -0.01731019 -0.02497356
v 0.03596825 -0.02527352 -0.01634694
v 0.03710529 -0.02843692 -0.00648931
v 0.00115222 -0.00949543 -0.02893440
v 0.02729777 -0.00080656 -0.03047890
v 0.03592587 -0.02696195 -0.01317339
v 0.03625727 -0.02522802 -0.01623038
v 0.03719891 -0.02893880 -0.00259756
v 0.02437026 -0.00357367 -0.03028053
v 0.03539366 -0.00917606 -0.02904799
v 0.03352576 -0.02269257 -0.02006128
v 0.04042576 -0.00220151 -0.02462053
v 0.03123959 -0.00103510 -0.03047340
v 0.01321294 -0.01209384 -0.02794565
v 0.03054835 -0.02702093 -0.01321354
v 0.03708019 -0.01603866 -0.02482858
v 0.03809402 -0.00001102 -0.02547580
v 0.03681824 -0.00433567 -0.02960182
v 0.04100019 -0.02120427 -0.01086044
v 0.00010372 -0.01675285 -0.02535593
v 0.00480724 -0.01086030 -0.02845206
v 0.04093836 -0.00672177 -0.02300103
v 0.03540338 -0.00382426 -0.03024627
v 0.03640509 -0.00178349 -0.03017547
v 0.03615641 -0.01797287 -0.02434240
v 0.03547688 -0.02037690 -0.02248631
v 0.03325371 -0.00457931 -0.03014231
v 0.03390087 -0.02202742 -0.02081899
v 0.03556829 -0.02656989 -0.01411955
v 0.00712589 -0.00356059 -0.03028202
v 0.03627607 -0.01708369 -0.02491813
v 0.02721035 -0.02028767 -0.02258296
v 0.03599252 -0.02501350 -0.01673118
v 0.01171924 -0.00713570 -0.02963307
v 0.00929283 -0.00261963 -0.03037743
v 0.03564462 -0.02887423 -0.00812254
v 0.03551000 -0.02824366 -0.01018863
v 0.03443216 -0.00737836 -0.02957186
v 0.03195312 -0.02266163 -0.02009815
v 0.01872409 -0.01377042 -0.02714684
v 0.00453852 -0.00943395 -0.02896432
v 0.03883723 -0.02483234 -0.01019941
v 0.03462613 -0.00443425 -0.03016273
v 0.03605936 -0.02115698 -0.02161341
v 0.03212092 -0.02979299 -0.00349355
v 0.03209962 -0.02969994 -0.00417130
v 0.03632246 -0.02964900 -0.00309995
v 0.03547564 -0.01542362 -0.02621753
v 0.03035926 -0.02849994 -0.00000811
v 0.04096787 -0.00118627 -0.02387482
v 0.03644043 -0.02945226 -0.00407533
v 0.00653057 -0.01196941 -0.02800031
v 0.00322831 -0.00017156 -0.03047982
v 0.02914682 -0.02767176 -0.01168603
v 0.03861603 -0.01727253 -0.02116490
v 0.04093100 -0.00275321 -0.02379592
v 0.03747681 -0.00316998 -0.02885307
v 0.04098988 -0.00566529 -0.02318243
v 0.03319603 -0.02233060 -0.02048147
v 0.03123228 -0.02980714 -0.00339010
v 0.04060238 -0.02249264 -0.00950594
v 0.04020413 -0.02452244 -0.00465892
v 0.04149834 -0.00803472 -0.01883096
v 0.00633584 -0.00946226 -0.02895815
v 0.03642389 -0.02372518 -0.01832661
v 0.03442186 -0.02956803 -0.00506336
v 0.00108314 -0.01183274 -0.02804963
v 0.00515220 -0.01036433 -0.02864471
v 0.03967612 -0.01777635 -0.01865984
v 0.03662999 -0.02919033 -0.00507949
v 0.02266294 -0.01235309 -0.02782917
v 0.03695715 -0.02592038 -0.01397981
v 0.00453380 -0.00691500 -0.02967865
v 0.03649700 -0.00582542 -0.02959492
v 0.03600785 -0.00073273 -0.03039711
v 0.02969143 -0.02728144 -0.01263578
v 0.03717875 -0.01807918 -0.02316655
v 0.03841660 -0.01935484 -0.01964807
v 0.03472935 -0.02999946 -0.00001934
v 0.03712954 -0.01692098 -0.02414024
v 0.03684768 -0.02935664 -0.00228573
v 0.03664227 -0.01198867 -0.02754213
v 0.03618532 -0.01389041 -0.02692197
v 0.03617263 -0.01747864 -0.02470958
v 0.03716543 -0.00798009 -0.02837812
v 0.03625426 -0.01898744 -0.02348248
v 0.03611743 -0.02582576 -0.01527906
v 0.03691686 -0.00468086 -0.02945630
v 0.01099974 -0.00958690 -0.02892098
v 0.03915193 -0.02496789 -0.00858899
v 0.03911653 -0.02597423 -0.00495095
v 0.03722216 -0.02141645 -0.01993046
v 0.03714872 -0.02743914 -0.00981389
v 0.03617513 -0.01244702 -0.02762091
v 0.00460577 -0.00436268 -0.03016763
v 0.03526789 -0.02150337 -0.02137088
v 0.03574293 -0.02026480 -0.02255135
v 0.03614242 -0.02235107 -0.02025737
v 0.00443828 -0.01682338 -0.02533146
v 0.02764589 -0.02089128 -0.02200659
v 0.03658492 -0.02404791 -0.01771516
v 0.00170658 -0.00708416 -0.02962897
v 0.03486132 -0.00720467 -0.02961603
v 0.03476987 -0.02898362 -0.00776360
v 0.00097616 -0.00772246 -0.02945037
v 0.04150020 -0.00005807 -0.00216895
v 0.01646188 -0.01052666 -0.02858630
v 0.01357430 -0.00207570 -0.03041671
v 0.03640932 -0.01704478 -0.02486602
v 0.03557290 -0.01889648 -0.02378089
v 0.03460091 -0.02260341 -0.02016406
v 0.02220129 -0.00863302 -0.02921154
v 0.00080448 -0.00713975 -0.02961276
v 0.04146546 -0.02101377 -0.00734211
v 0.03716377 -0.02330144 -0.01774465
v 0.03882998 -0.01502442 -0.02245989
v 0.03576632 -0.02510597 -0.01667592
v 0.04088959 -0.02285667 -0.00740007
v 0.04085629 -0.02363326 -0.00458715
v 0.02460775 -0.01866967 -0.02397680
v 0.03639345 -0.00067315 -0.03024281
v 0.03827172 -0.02748119 -0.00249774
v 0.00697428 -0.00364872 -0.03026988
v 0.00030318 -0.00454597 -0.03011947
v 0.03391427 -0.02872315 -0.00869231
v 0.03253476 -0.02271957 -0.02002890
v 0.03665994 -0.02723752 -0.01174139
v 0.03035114 -0.02998177 -0.00069190
v 0.03520880 -0.02106323 -0.02183659
v 0.01213216 -0.01605984 -0.02583219
v 0.02643970 -0.01924235 -0.02350916
v 0.03636337 -0.02969754 -0.00212115
v 0.03226150 -0.02698495 -0.01329110
v 0.03752753 -0.02643477 -0.01101775
v 0.03513842 -0.00011362 -0.03049337
v 0.03669812 -0.01126235 -0.02781099
v 0.02308246 -0.00314776 -0.03032653
v 0.04042181 -0.01389242 -0.02043555
v 0.04091747 -0.01422845 -0.01932279
v 0.04100019 -0.02369204 -0.00005739
v 0.00931188 -0.00709395 -0.02964339
v 0.03905712 -0.00372946 -0.02643245
v 0.03609520 -0.00406919 -0.03008687
v 0.03529803 -0.02981066 -0.00336202
v 0.04093313 -0.02235266 -0.00863323
v 0.02928937 -0.02994361 -0.00179887
v 0.03084524 -0.02934292 -0.00624049
v 0.03669026 -0.02781747 -0.01014722
v 0.03645755 -0.02428897 -0.01748570
v 0.00073973 -0.00004875 -0.02899232
v 0.04032149 -0.01762960 -0.01751469
v 0.04083738 -0.02357745 -0.00498252
v 0.02438515 -0.01405567 -0.02699659
v 0.03520055 -0.01605601 -0.02582371
v 0.03155400 -0.02992482 -0.00209441
v 0.03545354 -0.02790999 -0.01107548
v 0.03609250 -0.01845745 -0.02398404
v 0.03743423 -0.02309875 -0.01737960
v 0.04150020 -0.02057500 -0.00807859
v 0.03183438 -0.02867600 -0.00885093
v 0.03803158 -0.01277082 -0.02512247
v 0.00497625 -0.00441659 -0.03016087
v 0.04024371 -0.02477372 -0.00258995
v 0.03660014 -0.02943558 -0.00354105
v 0.03966815 -0.02266592 -0.01216235
v 0.03517028 -0.02872932 -0.00866538
v 0.04097328 -0.00628033 -0.02305654
v 0.03681546 -0.01758348 -0.02412145
v 0.02817793 -0.02174182 -0.02113383
v 0.03573899 -0.02017039 -0.02264064
v 0.04093710 -0.00694514 -0.02294035
v 0.03846547 -0.01234800 -0.02462665
v 0.01404436 -0.01378759 -0.02713811
v 0.03666247 -0.01482000 -0.02607849
v 0.03705292 -0.02580902 -0.01394975
v 0.00013325 -0.01314140 -0.02742402
v 0.04072171 -0.00452193 -0.02385331
v 0.03696682 -0.01734537 -0.02410618
v 0.04005676 -0.01376905 -0.02115160
v 0.03631844 -0.00228272 -0.03019249
v 0.03635046 -0.00533533 -0.02978542
v 0.00548147 -0.01632605 -0.02566026
v 0.03612963 -0.00846217 -0.02913012
v 0.02954716 -0.02864035 -0.00896038
v 0.04150020 -0.01898496 -0.01107694
v 0.03720723 -0.02435338 -0.01607180
v 0.03701061 -0.02726080 -0.01078925
v 0.02835747 -0.00146261 -0.03045355
v 0.03075351 -0.02674981 -0.01377623
v 0.01138459 -0.01387566 -0.02709156
v 0.03557119 -0.02770959 -0.01159120
v 0.03950020 -0.00001020 -0.00369525
v 0.03507913 -0.00783996 -0.02945116
v 0.03574940 -0.00766823 -0.02946361
v 0.04150020 -0.00633302 -0.00004331
v 0.03902126 -0.02541547 -0.00777145
v 0.03598514 -0.02187953 -0.02085244
v 0.04075758 -0.02306196 -0.00734966
v 0.03798682 -0.00827668 -0.02704070
v 0.04150020 -0.01547231 -0.01488115
v 0.00480844 -0.00297589 -0.03034080
v 0.03611793 -0.02923795 -0.00614671
v 0.03735795 -0.00819523 -0.02802657
v 0.04076160 -0.00914827 -0.02243113
v 0.03686057 -0.00778742 -0.02883051
v 0.00462749 -0.01708258 -0.02514933
v 0.04088365 -0.02005417 -0.01325710
v 0.03675658 -0.02143380 -0.02073407
v 0.03479273 -0.02425033 -0.01802814
v 0.03633351 -0.01776647 -0.02440523
v 0.03096190 -0.02233178 -0.02047868
v 0.03688928 -0.01852665 -0.02327950
v 0.03647111 -0.00636060 -0.02949875
v 0.03629432 -0.02386404 -0.01825012
v 0.03300607 -0.01112167 -0.02835480
v 0.03579481 -0.02912155 -0.00703951
v 0.03303405 -0.00965263 -0.02889658
v 0.03682020 -0.01184291 -0.02744221
v 0.03151708 -0.01121197 -0.02831886
v 0.03606631 -0.00749485 -0.02943398
v 0.03591322 -0.02648187 -0.01421061
v 0.03685897 -0.02184075 -0.02014185
v 0.03581103 -0.02579948 -0.01548802
v 0.03078396 -0.02906675 -0.00743616
v 0.04150020 -0.00310193 -0.01938769
v 0.03626698 -0.00740000 -0.02937948
v 0.00563270 -0.00710222 -0.02964128
v 0.03950020 -0.00000354 -0.02091906
v 0.00344730 -0.01624739 -0.02571069
v 0.01619691 -0.00261592 -0.03037895
v 0.03716789 -0.02440529 -0.01609090
v 0.03617633 -0.02743565 -0.01195502
v 0.02092243 -0.01050426 -0.02859494
v 0.03604292 -0.00371636 -0.03015020
v 0.02349550 -0.01835897 -0.02422052
v 0.00383591 -0.00691061 -0.02967595
v 0.03647412 -0.01382116 -0.02679204
v 0.03592664 -0.02137312 -0.02143316
v 0.03566823 -0.01757890 -0.02478988
v 0.00001727 -0.00117622 -0.02896982
v 0.00931799 -0.01199530 -0.02798987
v 0.03002906 -0.02960300 -0.00484878
v 0.02374563 -0.01834475 -0.02423144
v 0.02617911 -0.01375178 -0.02715604
v 0.04063393 -0.02084959 -0.01264079
v 0.04074857 -0.00461420 -0.02380019
v 0.03705413 -0.02812165 -0.00804558
v 0.01280284 -0.00339435 -0.03029994
v 0.01312857 -0.01347987 -0.02728951
v 0.00235777 -0.00495582 -0.03006766
v 0.03260364 -0.02595087 -0.01531201
v 0.03629106 -0.01316849 -0.02722340
v 0.00481598 -0.01157351 -0.02816514
v 0.02978557 -0.02991872 -0.00219495
v 0.03630590 -0.02220447 -0.02031494
v 0.03549555 -0.02990753 -0.00222759
v 0.03275193 -0.01577077 -0.02601204
v 0.03146326 -0.02982636 -0.00321564
v 0.04100019 -0.00204551 -0.02372009
v 0.03596753 -0.01510501 -0.02631797
v 0.03493689 -0.02770934 -0.01159994
v 0.03609453 -0.00891280 -0.02901043
v 0.00125154 -0.01187084 -0.02803457
v 0.03785393 -0.02760744 -0.00554816
v 0.00857503 -0.01196554 -0.02800311
v 0.03709906 -0.02918013 -0.00029620
v 0.00198455 -0.01603893 -0.02583552
v 0.04061665 -0.02438697 -0.00033693
v 0.00343001 -0.01590207 -0.02591695
v 0.03647577 -0.02162049 -0.02082396
v 0.03657059 -0.02565975 -0.01512449
v 0.03555625 -0.00402971 -0.03021181
v 0.03634702 -0.01655752 -0.02523271
v 0.04150020 -0.01274532 -0.01682943
v 0.03950314 -0.00177045 -0.00002227
v 0.03669365 -0.02627073 -0.01380544
v 0.00457695 -0.00052654 -0.03047165
v 0.00019179 -0.01510214 -0.02637832
v 0.03608592 -0.01607665 -0.02568729
v 0.03242614 -0.01918926 -0.02355232
v 0.03592706 -0.00218535 -0.03034342
v 0.03078881 -0.02371595 -0.01876600
v 0.03546815 -0.01316822 -0.02744287
v 0.02221002 -0.01816505 -0.02436964
v 0.03570933 -0.00013286 -0.03047096
v 0.00414513 -0.01019909 -0.02870104
v 0.00303852 -0.01653786 -0.02551853
v 0.03544173 -0.02930332 -0.00639907
v 0.03772191 -0.01095019 -0.02648566
v 0.04150020 -0.00000614 -0.00680264
v 0.03630868 -0.01988172 -0.02267226
v 0.03436637 -0.01878488 -0.02388089
v 0.03313746 -0.02999910 -0.00003236
v 0.02317099 -0.01820002 -0.02434288
v 0.03954792 -0.02575512 -0.00228523
v 0.00009032 -0.00031541 -0.03045937
v 0.04095537 -0.02345908 -0.00476240
v 0.00045858 -0.00777690 -0.02943276
v 0.03515468 -0.02429740 -0.01796142
v 0.03811357 -0.00339443 -0.02787786
v 0.02905577 -0.02689145 -0.01348245
v 0.03520955 -0.00628524 -0.02982759
v 0.03667526 -0.02861499 -0.00761827
v 0.02954508 -0.02479870 -0.01721194
v 0.02712406 -0.01410342 -0.02697090
v 0.02972805 -0.02846847 -0.00952230
v 0.03301240 -0.02554717 -0.01601818
v 0.03961842 -0.02146001 -0.01434640
v 0.03568444 -0.02767282 -0.01165389
v 0.00311482 -0.00329038 -0.03029922
v 0.03608248 -0.01414708 -0.02681722
v 0.03552227 -0.02997184 -0.00102741
v 0.00018596 -0.01638994 -0.02560682
v 0.02932627 -0.02224409 -0.02057713
v 0.02633739 -0.01976181 -0.02305981
v 0.03969366 -0.00695450 -0.02482712
v 0.03609931 -0.02917986 -0.00643535
v 0.03625894 -0.02628040 -0.01434128
v 0.00138428 -0.00569861 -0.02991199
v 0.03908306 -0.02600040 -0.00506267
v 0.00093267 -0.00791022 -0.02939560
v 0.00203650 -0.00733476 -0.02956572
v 0.02912630 -0.00820847 -0.02934041
v 0.03618055 -0.02056036 -0.02211883
v 0.03708012 -0.01742943 -0.02385422
v 0.04099677 -0.01014380 -0.02160495
v 0.03568094 -0.02904488 -0.00747561
v 0.03695593 -0.00899681 -0.02837384
v 0.02891934 -0.02400297 -0.01835559
v 0.03580310 -0.02876508 -0.00839723
v 0.04028586 -0.02439936 -0.00471787
v 0.03640413 -0.00714418 -0.02937620
v 0.03859553 -0.00802696 -0.02618807
v 0.00132111 -0.01417259 -0.02691823
v 0.00116785 -0.01596537 -0.02587731
v 0.03642240 -0.01171486 -0.02783116
v 0.03711663 -0.02447488 -0.01611240
v 0.03696257 -0.02607657 -0.01364691
v 0.04013730 -0.01779912 -0.01771876
v 0.03030904 -0.02989907 -0.00241758
v 0.03253420 -0.02701564 -0.01322308
v 0.03634267 -0.02836289 -0.00915247
v 0.03741803 -0.02181611 -0.01907057
v 0.03985733 -0.01800184 -0.01808358
v 0.03300546 -0.01915080 -0.02358334
v 0.04015028 -0.02313555 -0.00958431
v 0.03354163 -0.02982628 -0.00320287
v 0.00429476 -0.01193141 -0.02801554
v 0.03341326 -0.01368924 -0.02718682
v 0.00505985 -0.00713954 -0.02963030
v 0.03181410 -0.02394159 -0.01845736
v 0.03073423 -0.02998927 -0.00039076
v 0.03733129 -0.01304633 -0.02611647
v 0.03192856 -0.02995838 -0.00158497
v 0.03744155 -0.02049971 -0.02047714
v 0.04150020 -0.00850546 -0.01859308
v 0.00198519 -0.00276542 -0.03034916
v 0.03947745 -0.01223078 -0.02304809
v 0.03712027 -0.01441575 -0.02574441
v 0.02959453 -0.02980130 -0.00343330
v 0.03558022 -0.02952835 -0.00525837
v 0.03945680 -0.01648850 -0.02023743
v 0.03748599 -0.02402628 -0.01586575
v 0.02970383 -0.02898889 -0.00773774
v 0.03605602 -0.02646441 -0.01416108
v 0.02946695 -0.00823948 -0.02933147
v 0.03717455 -0.02636405 -0.01235747
v 0.03687137 -0.00071726 -0.02987305
v 0.03413632 -0.02995399 -0.00167272
v 0.00822462 -0.01378825 -0.02713778
v 0.03603908 -0.02689988 -0.01323313
v 0.03696076 -0.01402428 -0.02620094
v 0.03701041 -0.01733770 -0.02404157
v 0.03775813 -0.00270007 -0.02850235
v 0.03498260 -0.02978595 -0.00354172
v 0.03506658 -0.01585501 -0.02595446
v 0.02870270 -0.02969869 -0.00015040
v 0.03727264 -0.02743960 -0.00928394
v 0.03267366 -0.00354409 -0.03028380
v 0.03541994 -0.02981499 -0.00331171
v 0.03748148 -0.00685323 -0.02820381
v 0.03610239 -0.02370791 -0.01857883
v 0.03428712 -0.02920346 -0.00687331
v 0.03710572 -0.02551363 -0.01433930
v 0.01122692 -0.00924418 -0.02902532
v 0.04150020 -0.00000293 -0.01632790
v 0.00449989 -0.00347027 -0.03028962
v 0.03623754 -0.02936082 -0.00536968
v 0.03566483 -0.02335462 -0.01920210
v 0.03980938 -0.01007860 -0.02354724
v 0.03539398 -0.00245487 -0.03038478
v 0.03023582 -0.02358846 -0.01893938
v 0.03707974 -0.00380522 -0.02934887
v 0.03553572 -0.00916407 -0.02904608
v 0.00761578 -0.00012062 -0.03049154
v 0.03705240 -0.02157349 -0.02011218
v 0.03549499 -0.00702585 -0.02965893
v 0.02325920 -0.01837915 -0.02420498
v 0.03589165 -0.01738101 -0.02487563
v 0.03449026 -0.01269327 -0.02767582
v 0.04150020 -0.00024796 -0.01882909
v 0.03027983 -0.02981147 -0.00335081
v 0.03017844 -0.01048237 -0.02860269
v 0.04089580 -0.02133400 -0.01102864
v 0.02891014 -0.02355735 -0.01898019
v 0.03714681 -0.02179915 -0.01966771
v 0.03564973 -0.02712924 -0.01292639
v 0.03293044 -0.01382697 -0.02711731
v 0.03591530 -0.01372984 -0.02710832
v 0.03745276 -0.02767308 -0.00765524
v 0.03785277 -0.00820506 -0.02727230
v 0.02816057 -0.00032998 -0.03049180
v 0.03643991 -0.02655510 -0.01358459
v 0.00412063 -0.01347204 -0.02728561
v 0.03103064 -0.02962476 -0.00470956
v 0.03813695 -0.01315052 -0.02476755
v 0.03724240 -0.00578820 -0.02880187
v 0.03656533 -0.02915462 -0.00554062
v 0.03337256 -0.02973917 -0.00388452
v 0.02933530 -0.02982583 -0.00321884
v 0.03041371 -0.02903385 -0.00757123
v 0.03567075 -0.02639658 -0.01445540
v 0.02968371 -0.02943435 -0.00578047
v 0.03693473 -0.00618492 -0.02914060
v 0.00277341 -0.00956122 -0.02892100
v 0.04061827 -0.02076615 -0.01282913
v 0.03694047 -0.01168523 -0.02737658
v 0.03710588 -0.02824026 -0.00735560
v 0.03988140 -0.02244530 -0.01194764
v 0.03553763 -0.02971207 -0.00403789
v 0.04100019 -0.01206613 -0.02059115
v 0.03641454 -0.02652301 -0.01368985
v 0.03084501 -0.00727701 -0.02959802
v 0.03724260 -0.02832339 -0.00614592
v 0.04099152 -0.02373874 -0.00267767
v 0.03578398 -0.02489445 -0.01699392
v 0.00474525 -0.01639972 -0.02561193
v 0.03607131 -0.02914139 -0.00664900
v 0.02980670 -0.02938824 -0.00602350
v 0.03722636 -0.00002072 -0.02941931
v 0.03107333 -0.02717948 -0.01286156
v 0.03727258 -0.02567165 -0.01355010
v 0.03699685 -0.01634501 -0.02474918
f 1178 1136 867
f 418 148 1226
f 212 148 418
f 212 132 148
f 756 1426 562
f 657 1226 148
f 657 221 867
f 148 221 657
f 1363 1035 221
f 1363 221 148
f 1136 1178 390
f 756 958 390
f 390 1372 756
f 1092 1178 867
f 867 973 1092
f 756 1372 1214
f 193 562 1426
f 867 1136 794
f 794 657 867
f 1226 657 794
f 1276 390 1178
f 1372 390 1276
f 1178 1092 1276
f 402 132 549
f 402 1162 132
f 148 132 1006
f 132 1162 1006
f 1006 1162 1264
f 820 1035 1065
f 820 698 1035
f 774 820 1065
f 867 221 1261
f 221 1035 1261
f 1035 698 1261
f 1003 1426 756
f 756 1214 1003
f 1003 1214 1426
f 1372 835 932
f 1426 1214 932
f 932 1214 1372
f 1387 835 1372
f 562 193 1271
f 1363 1338 687
f 975 1338 1363
f 451 466 965
f 965 544 451
f 635 466 451
f 451 1155 70
f 451 1287 428
f 70 31 451
f 451 293 287
f 128 1315 451
f 634 293 451
f 451 1315 634
f 332 1126 373
f 547 774 1126
f 698 820 547
f 820 774 547
f 45 1261 698
f 835 1387 885
f 812 1387 255
f 812 885 1387
f 562 1271 1121
f 1264 1162 648
f 687 734 407
f 1035 1363 407
f 1363 687 407
f 1338 975 1114
f 1114 687 1338
f 1114 734 687
f 965 466 713
f 862 544 965
f 889 533 1240
f 889 975 553
f 553 451 889
f 553 975 1363
f 148 1006 553
f 1006 451 553
f 553 1363 148
f 390 1039 196
f 1039 786 196
f 196 786 42
f 418 1226 196
f 196 212 418
f 196 42 65
f 42 158 1343
f 278 293 161
f 293 929 161
f 1285 929 679
f 679 929 293
f 1301 451 580
f 747 451 1301
f 1018 451 747
f 1086 92 1115
f 128 451 1391
f 1391 451 31
f 1370 506 1323
f 1101 219 1144
f 1323 506 238
f 332 373 505
f 1005 1145 742
f 1171 78 538
f 538 261 1171
f 1145 1005 1171
f 1171 1005 78
f 872 1254 1126
f 938 973 867
f 867 1261 938
f 1261 45 938
f 526 1126 332
f 332 505 526
f 763 812 255
f 1049 1342 126
f 475 1342 1049
f 887 1121 1271
f 773 199 1417
f 1299 1006 849
f 849 1006 1264
f 1264 648 396
f 531 734 245
f 1065 1035 1279
f 1035 407 1279
f 1279 734 1065
f 1279 407 734
f 734 1114 1132
f 1132 245 734
f 1132 975 889
f 1132 1114 975
f 1340 734 531
f 1065 734 1340
f 111 466 635
f 111 713 466
f 1409 862 1425
f 1282 196 1226
f 390 196 1282
f 1226 794 1282
f 1136 390 1282
f 1282 794 1136
f 24 158 90
f 24 1343 158
f 150 196 65
f 348 195 1096
f 634 1315 1337
f 1337 62 634
f 1337 1315 128
f 1195 1285 634
f 634 62 1195
f 1195 62 1285
f 278 161 438
f 634 1285 1290
f 1285 679 1290
f 1290 293 634
f 1290 679 293
f 635 451 947
f 1228 787 544
f 541 223 317
f 1218 223 541
f 1134 1218 1113
f 1134 223 1218
f 428 1287 133
f 463 451 287
f 1287 451 463
f 1015 688 149
f 190 688 1015
f 498 451 153
f 987 451 1006
f 987 576 451
f 130 1301 580
f 854 1018 747
f 1155 451 955
f 451 1086 955
f 1115 1155 955
f 955 1086 1115
f 92 1086 845
f 845 1086 451
f 451 1018 845
f 735 412 1120
f 506 1370 1161
f 1370 979 1161
f 1161 979 274
f 1329 219 1392
f 598 950 337
f 337 1101 598
f 219 1101 337
f 1323 238 543
f 209 238 506
f 209 1087 238
f 742 1145 1100
f 78 1005 461
f 125 199 773
f 125 1186 199
f 30 261 538
f 30 205 261
f 261 205 114
f 199 1186 114
f 114 205 199
f 906 409 500
f 500 409 330
f 330 774 1065
f 1065 500 330
f 1126 774 226
f 226 872 1126
f 1126 526 1181
f 1181 547 1126
f 698 547 1181
f 1181 45 698
f 78 1412 1193
f 1144 219 795
f 1107 956 193
f 585 718 288
f 288 1379 585
f 585 69 718
f 1354 69 585
f 110 146 1049
f 1049 126 110
f 1245 763 255
f 812 763 1245
f 577 1121 814
f 1121 887 814
f 991 887 509
f 627 25 1310
f 1310 1030 627
f 1096 25 169
f 169 348 1096
f 118 130 169
f 118 169 750
f 773 1417 1260
f 1070 457 1385
f 1345 829 1002
f 770 1417 614
f 1125 1417 199
f 652 1417 1125
f 1299 849 1321
f 1321 751 1299
f 1253 751 1321
f 1255 519 1253
f 1253 519 512
f 934 1192 498
f 1320 396 378
f 1291 1320 378
f 378 396 904
f 437 111 635
f 544 862 982
f 862 1409 982
f 89 1240 339
f 339 1141 89
f 1326 647 35
f 1240 647 1326
f 639 1240 533
f 639 647 1240
f 1346 1406 544
f 327 815 978
f 731 504 151
f 654 158 42
f 158 654 21
f 1308 469 1099
f 212 196 729
f 196 150 729
f 1020 1419 1213
f 956 1061 154
f 154 1271 193
f 193 956 154
f 132 212 340
f 1018 854 721
f 631 844 278
f 278 438 631
f 1040 451 428
f 1040 947 451
f 839 947 1040
f 787 1228 1401
f 1001 133 1287
f 688 463 296
f 296 149 688
f 822 190 1015
f 1175 463 688
f 837 608 293
f 837 293 278
f 844 631 363
f 287 293 323
f 293 608 323
f 451 576 356
f 356 153 451
f 747 1301 717
f 1301 130 717
f 717 130 118
f 705 733 429
f 392 412 274
f 77 1120 412
f 1058 832 506
f 506 1161 1058
f 1058 1161 274
f 1051 760 737
f 1200 1087 1135
f 1051 1087 1200
f 823 1087 598
f 238 1087 823
f 823 543 238
f 598 1101 823
f 274 412 1324
f 412 563 1324
f 1324 1058 274
f 1324 563 832
f 832 1058 1324
f 606 563 412
f 606 412 1113
f 1113 493 606
f 832 563 606
f 1113 1218 909
f 1257 209 506
f 1135 1087 993
f 1087 209 993
f 84 1100 1145
f 84 455 742
f 742 1100 84
f 38 1412 78
f 78 461 38
f 274 979 57
f 500 691 746
f 746 906 500
f 202 746 691
f 906 746 202
f 213 330 409
f 774 330 213
f 906 202 213
f 213 226 774
f 1254 872 213
f 872 226 213
f 944 1193 1144
f 1144 795 944
f 944 795 269
f 1144 1193 876
f 205 30 423
f 199 205 423
f 718 69 868
f 943 69 1354
f 943 193 1426
f 943 1354 193
f 943 868 69
f 1211 1245 255
f 475 1245 1211
f 421 1245 475
f 421 475 1049
f 812 1245 665
f 885 812 665
f 115 991 509
f 1256 760 479
f 1030 479 1084
f 450 824 1115
f 298 824 450
f 430 25 1096
f 430 457 1143
f 1096 457 430
f 322 130 580
f 322 169 130
f 348 169 838
f 195 348 838
f 1012 750 169
f 1012 450 1115
f 1115 721 1012
f 1012 721 854
f 288 718 1360
f 718 868 1360
f 126 1260 1312
f 1312 110 126
f 1312 1260 1417
f 1312 1417 770
f 708 1246 515
f 515 241 26
f 1385 457 1225
f 597 934 1225
f 1225 457 1096
f 448 1070 1265
f 637 831 6
f 851 1417 652
f 851 614 1417
f 1322 220 102
f 387 370 1256
f 1256 479 387
f 387 479 1030
f 1030 1310 387
f 387 870 264
f 1194 387 264
f 370 387 1194
f 337 817 1382
f 1392 219 1382
f 219 337 1382
f 199 693 966
f 174 140 1299
f 1299 751 174
f 1215 751 1253
f 1253 512 1215
f 1215 512 596
f 1215 1168 1423
f 329 934 451
f 1192 934 329
f 329 451 498
f 498 1192 329
f 1264 396 300
f 396 1320 300
f 26 1320 696
f 1320 1291 696
f 696 848 26
f 696 1291 520
f 520 848 696
f 1139 1291 378
f 520 1291 1139
f 617 534 26
f 26 848 617
f 617 848 520
f 334 1176 378
f 680 500 1065
f 1425 862 295
f 965 713 364
f 1425 295 1133
f 492 223 1328
f 89 1141 182
f 321 437 635
f 85 339 1240
f 1240 1326 85
f 916 1406 1244
f 916 533 889
f 544 1406 916
f 889 451 916
f 916 451 544
f 1388 1346 1046
f 1406 1346 1388
f 544 787 156
f 156 1346 544
f 815 327 1398
f 577 476 1398
f 224 390 958
f 958 167 224
f 224 167 978
f 60 731 151
f 504 731 60
f 42 786 864
f 864 654 42
f 864 21 654
f 248 21 214
f 248 413 90
f 682 1308 1099
f 3 1213 138
f 1099 469 371
f 469 729 371
f 371 729 150
f 1322 253 1122
f 144 924 670
f 138 1213 568
f 1167 1212 667
f 1318 1212 1167
f 1212 1318 191
f 581 1061 956
f 194 1267 433
f 194 154 1061
f 1061 581 194
f 194 581 1267
f 308 887 1271
f 1271 154 308
f 580 451 1117
f 524 597 926
f 926 1225 1096
f 597 1225 926
f 61 721 1115
f 1018 721 61
f 1115 824 1082
f 935 438 161
f 628 631 438
f 438 935 628
f 628 935 161
f 628 929 1285
f 628 161 929
f 1015 149 1408
f 1408 149 75
f 787 1401 666
f 41 1233 1414
f 1328 223 809
f 223 1134 809
f 809 1134 429
f 1421 54 373
f 455 54 1421
f 556 1079 510
f 112 822 630
f 190 822 112
f 688 190 112
f 112 1175 688
f 1295 72 317
f 1295 1023 1177
f 317 72 684
f 684 541 317
f 684 72 1218
f 1218 541 684
f 1177 1247 211
f 149 296 415
f 415 463 287
f 415 296 463
f 608 837 801
f 801 837 278
f 608 801 260
f 278 844 260
f 113 363 631
f 325 323 608
f 911 597 524
f 216 854 747
f 747 717 216
f 216 717 118
f 118 750 216
f 216 1012 854
f 750 1012 216
f 449 1112 1025
f 1025 1112 70
f 70 124 1025
f 1173 705 412
f 733 705 1173
f 91 1134 1113
f 429 1134 91
f 91 705 429
f 412 705 91
f 1113 412 91
f 510 1079 39
f 39 556 510
f 1120 77 1028
f 735 1120 1028
f 742 735 1028
f 412 392 1353
f 1353 77 412
f 392 77 1353
f 219 1329 816
f 816 36 219
f 436 950 598
f 598 1087 436
f 436 1087 1051
f 1051 737 436
f 181 760 1256
f 1256 370 181
f 832 606 1262
f 1262 606 493
f 1304 1418 1351
f 2 823 1101
f 543 823 2
f 1323 543 2
f 2 431 1323
f 678 1193 1412
f 1412 38 1231
f 1332 1028 77
f 394 1028 1332
f 754 263 1067
f 754 213 202
f 263 754 424
f 424 754 202
f 409 906 1252
f 1252 213 409
f 906 213 1252
f 1294 876 1193
f 538 78 941
f 941 30 538
f 941 423 30
f 941 944 269
f 941 795 219
f 219 36 941
f 78 1193 941
f 1193 944 941
f 193 1354 765
f 765 1107 193
f 1354 585 808
f 808 765 1354
f 567 1379 288
f 1128 1286 288
f 1049 146 1044
f 1044 421 1049
f 146 1153 1044
f 1245 421 697
f 1036 665 1245
f 835 885 1036
f 885 665 1036
f 1036 932 835
f 1426 932 1036
f 1042 937 1036
f 1036 697 1042
f 1245 697 1036
f 577 814 712
f 712 476 577
f 1030 1084 336
f 336 1084 760
f 336 1200 1368
f 336 760 1051
f 1051 1200 336
f 1241 479 760
f 760 1084 1241
f 1241 1084 479
f 1183 336 298
f 1030 336 1183
f 1368 1200 620
f 1200 803 620
f 1083 25 627
f 627 450 1083
f 450 1012 1083
f 298 450 176
f 1030 1224 176
f 627 1030 176
f 176 450 627
f 231 322 580
f 169 322 231
f 195 838 1331
f 1331 838 1266
f 288 1360 952
f 952 1360 937
f 660 943 1426
f 23 1312 770
f 1002 791 1429
f 649 791 1002
f 1002 829 649
f 588 1198 1063
f 1063 797 588
f 726 966 693
f 1072 430 1143
f 25 430 1072
f 448 1246 685
f 452 1246 708
f 743 102 1069
f 26 534 173
f 173 515 26
f 1385 1225 976
f 448 1265 976
f 976 1070 1385
f 976 1265 1070
f 976 1246 448
f 813 1070 448
f 384 1070 1095
f 43 1165 829
f 43 851 1165
f 829 1345 43
f 1345 6 43
f 770 1344 350
f 1322 102 86
f 1277 387 1310
f 870 387 1277
f 1277 1072 870
f 1277 1310 25
f 25 1072 1277
f 817 1194 673
f 673 1382 817
f 673 1194 264
f 673 689 1341
f 1208 1194 817
f 1208 337 950
f 1208 817 337
f 420 1198 588
f 1154 905 1164
f 264 870 942
f 1198 420 942
f 942 673 264
f 689 673 942
f 686 673 1341
f 1382 673 686
f 985 693 199
f 199 357 985
f 985 357 693
f 693 357 710
f 710 357 1348
f 710 726 693
f 1348 726 710
f 1348 357 1041
f 701 1125 199
f 199 966 701
f 701 966 1125
f 140 174 1085
f 1085 174 1273
f 1273 354 1085
f 354 97 1085
f 629 1215 596
f 1168 1215 629
f 596 934 629
f 629 934 1168
f 596 512 1116
f 1116 512 519
f 962 354 1423
f 962 97 354
f 934 97 962
f 1423 1168 962
f 1168 934 962
f 1264 300 653
f 653 1116 519
f 361 483 1400
f 1400 904 361
f 904 29 623
f 378 904 615
f 615 334 378
f 520 1139 535
f 1176 334 535
f 378 1176 535
f 535 1139 378
f 500 680 495
f 1355 1340 531
f 1130 916 1244
f 93 382 1401
f 93 1401 1228
f 1142 1247 1177
f 1177 1023 1142
f 111 437 1170
f 437 539 1170
f 1146 94 111
f 1146 539 94
f 111 1170 1146
f 1146 1170 539
f 759 364 713
f 111 94 671
f 94 1350 671
f 713 111 671
f 671 1350 713
f 713 1350 1407
f 815 1398 5
f 5 1398 476
f 453 327 978
f 978 167 453
f 675 1039 390
f 390 224 675
f 214 21 675
f 978 115 1381
f 1381 224 978
f 504 60 619
f 589 338 433
f 151 504 507
f 1110 150 65
f 800 248 90
f 21 248 800
f 90 158 800
f 158 21 800
f 846 1419 1020
f 1099 1213 1336
f 1336 682 1099
f 1213 3 1336
f 1213 745 401
f 1127 401 71
f 1088 1222 1059
f 1088 1213 1099
f 1059 1213 1088
f 504 204 1236
f 83 371 150
f 150 301 83
f 136 204 504
f 136 960 204
f 892 960 1059
f 204 960 892
f 408 1213 1059
f 1059 960 408
f 408 745 1213
f 408 960 745
f 573 940 961
f 1068 961 220
f 146 110 739
f 883 98 518
f 1179 513 914
f 914 568 1179
f 138 568 914
f 487 144 780
f 1419 846 857
f 273 667 1206
f 569 191 1318
f 253 172 569
f 569 172 191
f 1373 874 367
f 367 1234 1016
f 433 618 282
f 618 308 282
f 282 194 433
f 154 194 282
f 282 308 154
f 887 308 871
f 1013 60 151
f 702 60 1013
f 1009 55 1365
f 1009 995 55
f 778 995 1009
f 722 1109 1016
f 859 886 157
f 144 886 859
f 81 838 444
f 1266 838 81
f 92 845 936
f 1115 92 936
f 936 61 1115
f 936 845 1018
f 1018 61 936
f 237 1082 233
f 131 1082 824
f 131 233 1082
f 237 233 131
f 1014 1082 237
f 206 1082 1014
f 429 1233 49
f 49 1233 41
f 344 1414 297
f 297 1414 1233
f 584 41 930
f 41 1414 930
f 584 775 22
f 22 477 584
f 912 297 1233
f 969 954 630
f 1119 112 630
f 365 1295 317
f 1023 1295 365
f 317 223 365
f 404 1295 1177
f 404 546 489
f 1177 546 404
f 404 822 1015
f 404 489 630
f 630 822 404
f 1351 116 1357
f 442 909 1218
f 442 1357 116
f 442 1418 909
f 1218 72 442
f 72 1357 442
f 1351 1418 442
f 442 116 1351
f 501 211 1040
f 844 363 807
f 807 260 844
f 1293 801 278
f 278 260 1293
f 1293 260 801
f 188 1408 75
f 188 113 1408
f 1103 113 631
f 631 628 1103
f 1103 620 1422
f 323 325 1237
f 287 323 1237
f 597 911 651
f 651 911 555
f 524 926 668
f 555 911 825
f 496 1391 31
f 31 558 496
f 128 1391 1378
f 290 558 818
f 290 810 558
f 481 1079 733
f 733 1173 481
f 481 412 735
f 481 1173 412
f 556 39 1076
f 742 1028 1131
f 1131 1028 394
f 950 436 646
f 646 436 737
f 646 1208 950
f 646 737 760
f 760 181 646
f 370 1194 566
f 566 181 370
f 566 646 181
f 1194 1208 566
f 1208 646 566
f 1399 1262 493
f 1418 1262 1399
f 1399 493 1113
f 1113 909 1399
f 909 1418 1399
f 506 832 503
f 503 1257 506
f 209 1257 447
f 1418 1304 447
f 1257 503 447
f 447 1262 1418
f 832 1262 447
f 447 503 832
f 1135 993 316
f 316 1200 1135
f 431 1349 1172
f 779 1349 431
f 168 431 522
f 431 2 522
f 522 876 168
f 522 2 876
f 1144 876 419
f 876 2 419
f 419 1101 1144
f 419 2 1101
f 963 57 979
f 274 57 643
f 57 1415 643
f 677 461 1005
f 677 1131 394
f 677 643 1415
f 677 1005 742
f 742 1131 677
f 274 643 677
f 828 431 168
f 269 795 888
f 888 941 269
f 795 941 888
f 565 941 36
f 199 423 766
f 766 299 199
f 8 765 769
f 765 808 769
f 769 352 8
f 769 808 585
f 585 908 769
f 433 1267 242
f 784 1010 1107
f 1107 765 784
f 784 765 8
f 288 1286 1043
f 1043 567 288
f 303 1312 730
f 730 246 303
f 110 1312 303
f 572 1344 1402
f 1402 1344 770
f 1402 831 637
f 637 840 1402
f 770 614 1402
f 1402 614 831
f 1232 1163 107
f 414 1232 107
f 107 1044 414
f 421 1044 107
f 107 697 421
f 847 508 896
f 896 336 847
f 508 131 896
f 298 336 896
f 896 824 298
f 896 131 824
f 142 336 1368
f 1368 620 142
f 847 336 142
f 142 620 847
f 939 1083 1012
f 939 169 25
f 939 1012 169
f 298 176 986
f 986 176 1224
f 986 1183 298
f 986 1224 1030
f 1030 1183 986
f 351 231 838
f 351 838 169
f 169 231 351
f 937 1360 122
f 943 660 395
f 868 943 395
f 395 1360 868
f 1426 1036 10
f 10 660 1426
f 10 1036 937
f 709 1429 1164
f 1164 905 709
f 709 905 880
f 1002 1429 709
f 927 983 961
f 927 940 637
f 961 940 927
f 220 961 1223
f 1223 102 220
f 1069 102 1223
f 715 1095 1259
f 715 813 448
f 1259 813 715
f 652 1125 762
f 893 649 829
f 649 893 80
f 791 726 207
f 1164 1429 207
f 207 1429 791
f 1311 1063 1198
f 797 1063 1311
f 1311 1041 797
f 1311 726 1348
f 1348 1041 1311
f 1066 726 791
f 1125 966 749
f 966 726 749
f 749 762 1125
f 726 1066 749
f 791 762 749
f 749 1066 791
f 1011 1072 1143
f 1143 457 1011
f 457 1070 1011
f 870 1072 1196
f 1072 1011 1196
f 1196 1070 384
f 1196 1011 1070
f 63 685 1246
f 1269 173 534
f 445 886 144
f 1017 1095 1070
f 1259 1095 1017
f 1070 813 1017
f 1017 813 1259
f 614 851 753
f 851 43 753
f 753 43 6
f 831 614 753
f 753 6 831
f 347 1344 572
f 347 350 1344
f 199 299 607
f 67 607 299
f 905 1154 372
f 372 1196 384
f 384 1095 372
f 1095 715 372
f 1164 1198 542
f 542 1154 1164
f 1198 1154 542
f 579 420 689
f 689 942 579
f 579 942 420
f 1392 1382 1078
f 1382 686 1078
f 266 1085 97
f 266 934 498
f 266 97 934
f 596 1116 752
f 752 934 596
f 752 270 934
f 416 752 1116
f 416 1243 270
f 270 752 416
f 519 1255 662
f 662 653 519
f 1335 474 1230
f 1026 474 1159
f 1227 1251 1000
f 1249 897 402
f 483 361 165
f 165 897 483
f 402 897 165
f 744 904 1400
f 744 29 904
f 50 744 622
f 29 744 50
f 56 615 904
f 334 615 56
f 101 1356 334
f 101 623 664
f 904 623 101
f 101 56 904
f 334 56 101
f 644 691 500
f 500 495 644
f 422 1274 1347
f 1347 1274 59
f 1374 304 1404
f 492 304 1374
f 380 41 584
f 584 477 380
f 1340 1355 724
f 232 1388 1046
f 1046 1130 232
f 916 1130 459
f 1366 1130 806
f 806 863 1366
f 787 666 1032
f 382 93 1052
f 321 612 921
f 121 103 1202
f 422 1347 385
f 294 313 364
f 59 313 294
f 364 759 294
f 711 313 59
f 1425 1133 711
f 713 1407 609
f 145 1350 94
f 145 1407 1350
f 1039 675 850
f 850 786 1039
f 465 1381 115
f 267 136 504
f 960 136 267
f 745 960 267
f 267 401 745
f 1288 619 60
f 1167 667 425
f 425 589 1167
f 458 507 504
f 185 602 1373
f 1343 602 185
f 42 1343 185
f 150 1110 919
f 919 676 150
f 27 676 919
f 1307 1284 1091
f 1091 1284 469
f 682 1336 674
f 127 1127 71
f 1213 401 545
f 401 1127 545
f 1020 1213 545
f 1059 1222 599
f 799 246 730
f 1322 1122 234
f 856 573 961
f 961 1068 856
f 856 1068 1122
f 741 518 98
f 1008 1153 146
f 915 98 883
f 1314 98 915
f 1050 443 578
f 781 674 1336
f 377 273 487
f 487 780 377
f 583 748 273
f 1024 857 748
f 1419 857 1024
f 487 273 918
f 273 1206 918
f 1318 1060 1199
f 487 667 1169
f 1169 667 1212
f 1212 191 1169
f 191 172 1169
f 883 569 480
f 480 569 1318
f 480 915 883
f 1373 1187 171
f 171 874 1373
f 1234 367 917
f 90 413 40
f 40 1187 90
f 509 887 203
f 887 871 203
f 203 964 509
f 902 308 618
f 902 871 308
f 1377 902 618
f 871 902 1377
f 247 995 1016
f 1365 55 247
f 55 995 247
f 1016 995 514
f 514 995 778
f 514 722 1016
f 778 722 514
f 1029 778 702
f 702 1013 1029
f 1029 1013 151
f 1109 722 1029
f 1029 722 778
f 151 1109 1029
f 879 1009 1365
f 252 618 433
f 252 1009 618
f 433 338 252
f 338 589 252
f 368 275 311
f 920 275 368
f 144 859 499
f 499 859 74
f 499 924 144
f 499 694 924
f 48 74 484
f 417 1117 451
f 451 894 417
f 444 1117 417
f 417 81 444
f 449 1025 997
f 87 1304 1351
f 87 108 1304
f 757 993 209
f 757 108 993
f 209 1304 757
f 1304 108 757
f 376 1396 344
f 344 297 376
f 584 930 989
f 989 930 1414
f 429 49 292
f 292 49 41
f 595 727 1421
f 742 455 826
f 455 1421 826
f 1421 1283 826
f 286 775 263
f 286 22 775
f 1150 895 286
f 152 297 410
f 297 912 410
f 410 28 152
f 410 912 15
f 900 28 410
f 410 15 900
f 155 1233 429
f 155 912 1233
f 630 954 1327
f 1327 1119 630
f 112 1119 19
f 878 365 223
f 223 492 878
f 492 103 878
f 878 103 121
f 72 1295 100
f 1295 404 100
f 108 87 1073
f 108 1073 638
f 1351 1207 638
f 638 87 1351
f 638 1073 87
f 307 1207 992
f 72 100 992
f 992 100 307
f 992 1357 72
f 1351 1357 992
f 992 1207 1351
f 428 133 1062
f 211 501 497
f 88 1103 628
f 620 1103 88
f 988 1103 1422
f 993 108 988
f 75 149 723
f 287 1237 723
f 723 415 287
f 149 415 723
f 478 934 597
f 597 651 478
f 451 934 478
f 478 894 451
f 558 403 984
f 984 496 558
f 636 120 449
f 449 131 636
f 636 508 818
f 636 131 508
f 449 120 4
f 4 558 31
f 446 1337 128
f 62 1337 446
f 400 1378 1391
f 400 403 558
f 810 1378 400
f 558 810 400
f 593 290 818
f 742 1104 798
f 798 1076 39
f 798 735 742
f 798 39 1079
f 798 481 735
f 1079 481 798
f 523 1304 209
f 209 447 523
f 523 447 1304
f 993 803 333
f 333 316 993
f 333 803 1200
f 1200 316 333
f 1323 431 1217
f 431 1172 1217
f 980 779 431
f 431 678 980
f 980 678 1412
f 57 963 1151
f 461 1415 1151
f 1151 1415 57
f 517 1231 38
f 1390 1415 461
f 461 677 1390
f 1390 677 1415
f 860 677 394
f 1428 392 274
f 274 677 1428
f 783 828 168
f 1294 828 783
f 315 1294 1193
f 315 828 1294
f 320 565 36
f 423 941 342
f 941 565 342
f 299 766 218
f 1220 589 433
f 433 242 1220
f 8 352 521
f 956 1107 1166
f 1107 1010 1166
f 1166 581 956
f 1267 581 1166
f 1166 242 1267
f 123 784 8
f 1010 784 123
f 98 739 805
f 805 303 98
f 805 739 110
f 110 303 805
f 572 1402 471
f 730 1158 456
f 730 1312 14
f 600 107 1163
f 1163 143 600
f 600 143 1286
f 1286 1128 600
f 1375 508 847
f 847 620 610
f 620 949 610
f 610 1375 847
f 610 949 508
f 508 1375 610
f 818 508 782
f 508 949 782
f 782 593 818
f 25 1083 1156
f 1156 939 25
f 1083 939 1156
f 998 10 937
f 660 10 998
f 937 122 998
f 998 395 660
f 1358 927 637
f 961 983 1160
f 1160 1223 961
f 448 1069 47
f 1069 1223 47
f 47 715 448
f 1223 1160 47
f 47 1160 715
f 1102 80 652
f 652 762 1102
f 1102 762 791
f 791 649 1102
f 649 80 1102
f 652 80 1124
f 1124 851 652
f 1165 851 1124
f 972 80 893
f 829 1165 972
f 972 893 829
f 1165 1124 972
f 972 1124 80
f 726 1311 1359
f 1164 207 1359
f 1359 207 726
f 1359 1198 1164
f 1359 1311 1198
f 1246 452 1297
f 1297 63 1246
f 761 1386 66
f 235 1386 157
f 66 1386 235
f 391 743 1395
f 1395 445 391
f 515 173 1395
f 708 515 1395
f 1395 452 708
f 1395 1297 452
f 1395 743 1069
f 1069 1297 1395
f 953 23 770
f 953 347 23
f 770 350 953
f 350 347 953
f 788 743 391
f 391 1080 788
f 788 527 743
f 1080 527 788
f 511 1080 391
f 391 445 511
f 1322 86 511
f 86 527 511
f 511 527 1080
f 511 253 1322
f 511 172 253
f 516 67 299
f 420 67 1055
f 67 516 1055
f 58 67 420
f 607 67 58
f 58 420 588
f 870 1196 974
f 1196 372 974
f 974 372 1154
f 974 1154 1198
f 974 942 870
f 1198 942 974
f 1034 1320 26
f 1034 300 1320
f 934 270 1034
f 474 1335 1394
f 1394 1335 534
f 1230 474 736
f 474 1026 736
f 1159 1356 611
f 611 1026 1159
f 1356 101 611
f 1227 1000 1057
f 1057 1000 157
f 157 1386 1057
f 1053 402 549
f 1053 1249 402
f 1053 37 1249
f 1239 1205 228
f 1007 1205 1239
f 1201 74 48
f 48 1205 1201
f 488 44 529
f 1054 44 488
f 1054 559 890
f 1054 529 44
f 802 50 622
f 486 50 802
f 802 280 486
f 570 101 664
f 268 477 1404
f 1404 304 268
f 268 304 492
f 285 1374 1404
f 793 103 375
f 793 1202 103
f 1303 103 492
f 244 492 1328
f 1328 809 244
f 1065 1340 1298
f 1340 724 1298
f 1298 680 1065
f 1031 1130 1046
f 1031 587 1130
f 1333 1130 35
f 1333 459 1130
f 1242 1298 724
f 1130 1366 291
f 1361 587 787
f 1130 587 1361
f 806 1130 1361
f 440 612 321
f 440 792 612
f 612 792 119
f 1023 612 119
f 119 1142 1023
f 1247 1142 119
f 119 211 1247
f 839 1040 119
f 1040 211 119
f 437 321 1292
f 321 921 1292
f 441 399 1023
f 129 612 1023
f 1023 399 129
f 1152 441 94
f 399 441 1152
f 933 490 539
f 933 539 437
f 612 129 933
f 121 1202 1313
f 855 1274 422
f 422 385 855
f 59 1274 624
f 624 711 59
f 1425 711 624
f 1210 609 1407
f 59 294 1369
f 94 1022 590
f 1022 1313 590
f 590 1313 59
f 1263 675 21
f 1263 850 675
f 786 850 1263
f 1263 864 786
f 21 864 1263
f 999 115 509
f 999 465 115
f 504 619 714
f 619 1288 714
f 703 27 1373
f 703 1109 151
f 1016 1109 703
f 703 367 1016
f 1373 367 703
f 700 301 150
f 700 1236 301
f 504 1236 700
f 1296 185 1373
f 27 919 281
f 1373 27 281
f 281 758 1373
f 1307 1091 772
f 469 1308 406
f 406 1091 469
f 96 127 178
f 178 127 71
f 1059 599 1305
f 1305 83 301
f 869 875 552
f 552 1 869
f 875 352 552
f 704 769 908
f 908 1 704
f 352 769 704
f 704 552 352
f 1 552 704
f 1376 799 730
f 755 840 637
f 637 1339 755
f 910 1339 637
f 1122 1068 834
f 834 234 1122
f 834 1068 220
f 834 220 1322
f 1322 234 834
f 573 856 1204
f 1413 940 1204
f 940 573 1204
f 1204 856 1122
f 537 98 1314
f 1397 537 460
f 883 518 645
f 1413 1204 574
f 574 1204 1122
f 1122 239 574
f 518 741 574
f 574 645 518
f 239 645 574
f 1157 1008 146
f 564 349 160
f 564 537 1314
f 160 537 564
f 1403 349 95
f 1379 560 655
f 655 1403 95
f 560 1403 655
f 869 1 1004
f 1004 1 908
f 796 340 212
f 368 340 796
f 548 781 1336
f 1180 583 273
f 780 583 1180
f 273 377 1180
f 1180 377 780
f 1179 748 236
f 236 513 1179
f 621 780 144
f 1318 1199 690
f 690 1060 869
f 690 1199 1060
f 487 1169 491
f 491 144 487
f 491 445 144
f 172 511 491
f 491 511 445
f 1094 964 1174
f 1094 40 413
f 1174 964 530
f 964 203 530
f 669 1377 618
f 618 1009 669
f 1009 879 669
f 1258 252 589
f 1009 252 1258
f 778 1009 1258
f 702 778 1258
f 790 340 368
f 368 311 790
f 74 859 379
f 379 484 74
f 1266 81 276
f 81 417 276
f 716 926 1096
f 1300 124 70
f 70 1155 1300
f 1155 650 1300
f 981 1045 53
f 728 1045 981
f 1097 131 449
f 449 997 1097
f 881 1082 206
f 206 1014 881
f 881 1155 1115
f 1115 1082 881
f 764 1014 237
f 764 881 1014
f 131 866 764
f 237 131 764
f 764 866 1045
f 764 1045 728
f 625 650 1155
f 575 775 584
f 584 989 575
f 575 989 1420
f 873 271 809
f 873 292 271
f 873 809 429
f 429 292 873
f 344 164 170
f 170 626 344
f 1254 213 616
f 213 595 616
f 1126 1254 616
f 616 373 1126
f 900 1104 99
f 99 1104 742
f 742 826 99
f 1105 1283 1421
f 1033 7 931
f 309 202 691
f 1421 727 1149
f 727 595 1281
f 1281 595 213
f 994 197 213
f 900 15 550
f 550 1182 900
f 556 1076 1184
f 1184 1076 1104
f 1184 1104 900
f 900 1182 1184
f 15 912 740
f 740 550 15
f 912 155 740
f 1182 550 740
f 733 1079 740
f 429 733 740
f 740 155 429
f 968 19 1119
f 968 1001 1287
f 217 1207 307
f 307 100 217
f 9 1062 501
f 428 1062 9
f 9 1040 428
f 9 501 1040
f 923 1062 133
f 954 969 923
f 211 497 76
f 1177 211 76
f 139 949 620
f 620 88 139
f 139 782 949
f 139 628 1285
f 139 88 628
f 1285 62 139
f 1422 620 215
f 215 988 1422
f 108 638 388
f 388 988 108
f 388 638 1207
f 1408 113 249
f 249 1207 1408
f 113 1103 1209
f 1103 988 1209
f 1209 249 113
f 988 388 1209
f 1209 388 1207
f 1207 249 1209
f 1106 478 922
f 922 478 1384
f 1229 668 926
f 605 651 555
f 555 478 605
f 605 478 651
f 911 642 439
f 439 825 911
f 439 642 478
f 555 825 439
f 439 478 555
f 478 642 1270
f 558 4 346
f 128 1378 1268
f 1268 446 128
f 1104 1076 289
f 289 798 1104
f 1076 798 289
f 979 473 540
f 540 963 979
f 394 1332 1047
f 1047 860 394
f 1047 1332 77
f 77 860 1047
f 243 77 392
f 243 860 77
f 392 1428 243
f 1329 320 250
f 250 816 1329
f 1341 689 827
f 689 1064 827
f 945 242 8
f 8 521 945
f 945 318 242
f 591 352 875
f 591 945 521
f 8 242 227
f 242 1166 227
f 227 1166 1010
f 227 123 8
f 1010 123 227
f 1190 303 246
f 98 303 1190
f 353 1402 840
f 353 471 1402
f 840 1158 353
f 1147 1158 840
f 1147 456 1158
f 946 1158 730
f 730 14 946
f 593 782 105
f 105 139 62
f 782 139 105
f 397 1358 637
f 637 6 397
f 397 6 1345
f 79 1297 1069
f 63 1297 79
f 685 63 79
f 79 1069 448
f 448 685 79
f 157 886 494
f 494 235 157
f 886 445 494
f 1269 235 494
f 173 1269 494
f 494 1395 173
f 445 1395 494
f 102 743 1238
f 743 527 1238
f 1238 86 102
f 1238 527 86
f 82 1064 689
f 689 420 82
f 420 1055 82
f 588 797 208
f 208 58 588
f 797 1041 208
f 208 1041 357
f 208 357 199
f 199 607 208
f 607 58 208
f 26 241 257
f 257 1034 26
f 241 515 257
f 257 515 1246
f 1246 976 257
f 257 976 1225
f 257 1225 934
f 934 1034 257
f 534 617 345
f 345 1394 534
f 970 37 134
f 134 37 1239
f 1249 37 183
f 183 37 970
f 549 488 369
f 369 1053 549
f 683 1205 48
f 683 658 1205
f 1205 658 310
f 310 228 1205
f 776 1007 488
f 1205 1007 776
f 776 529 254
f 488 529 776
f 254 1201 776
f 776 1201 1205
f 1239 37 358
f 559 1054 695
f 695 1054 488
f 1272 559 695
f 695 920 1272
f 275 920 695
f 1235 570 664
f 66 570 1235
f 1235 761 66
f 319 644 495
f 1289 380 477
f 477 268 1289
f 1289 268 492
f 492 244 1289
f 41 380 1289
f 1289 292 41
f 271 292 1289
f 809 271 1289
f 1289 244 809
f 1416 863 806
f 1416 719 863
f 785 1416 806
f 719 1416 785
f 1347 719 525
f 382 1052 525
f 525 785 382
f 719 785 525
f 525 385 1347
f 525 641 1409
f 525 1409 1425
f 1374 285 482
f 561 895 1150
f 561 285 1404
f 561 286 895
f 18 1347 59
f 59 1313 18
f 1202 793 18
f 18 1313 1202
f 1347 18 383
f 383 18 793
f 198 1374 931
f 931 7 198
f 198 7 863
f 375 103 1424
f 1424 1303 375
f 103 1303 1424
f 1374 793 32
f 777 1355 89
f 89 182 777
f 777 724 1355
f 777 1242 724
f 1298 1242 464
f 680 1298 464
f 464 495 680
f 532 1366 863
f 532 464 1242
f 863 7 532
f 7 464 532
f 284 1326 35
f 35 1130 284
f 1130 291 284
f 787 1032 1405
f 1405 1361 787
f 94 539 1111
f 1111 1152 94
f 490 933 359
f 359 933 129
f 121 1313 46
f 46 1313 1022
f 1022 11 46
f 1316 878 121
f 121 46 1316
f 1316 46 11
f 365 878 1316
f 1316 11 365
f 365 11 229
f 1023 365 229
f 229 441 1023
f 229 11 1022
f 229 1022 94
f 94 441 229
f 609 1210 68
f 68 1369 609
f 59 1369 68
f 1090 145 94
f 94 590 1090
f 971 267 504
f 504 714 971
f 971 1288 267
f 971 714 1288
f 273 592 830
f 589 425 830
f 830 667 273
f 830 425 667
f 273 748 1383
f 1383 592 273
f 1288 592 1383
f 256 833 1383
f 681 1288 60
f 681 592 1288
f 681 1258 589
f 589 830 681
f 681 830 592
f 681 60 702
f 702 1258 681
f 1148 458 504
f 504 700 1148
f 507 458 1148
f 151 507 1148
f 1373 758 201
f 201 1296 1373
f 381 833 256
f 1059 1305 12
f 12 1305 301
f 186 571 1275
f 1275 1376 186
f 913 940 1413
f 637 940 913
f 913 910 637
f 343 1376 730
f 186 1376 343
f 1071 537 160
f 146 739 386
f 386 739 98
f 659 569 883
f 883 645 659
f 659 1122 253
f 253 569 659
f 907 1008 1302
f 160 349 907
f 166 1403 560
f 414 601 16
f 16 1232 414
f 16 166 1232
f 1379 655 1074
f 1074 585 1379
f 1074 908 585
f 1074 1004 908
f 1074 655 891
f 1074 891 869
f 869 1004 1074
f 355 655 95
f 891 655 355
f 1371 443 1050
f 1050 578 901
f 901 578 924
f 890 559 434
f 707 901 434
f 1050 548 104
f 104 548 1336
f 1380 236 748
f 748 583 1380
f 1380 583 780
f 996 236 1380
f 780 621 1380
f 1380 621 996
f 738 621 374
f 996 621 738
f 144 670 882
f 882 621 144
f 1203 621 882
f 882 262 1203
f 869 891 192
f 192 690 869
f 891 690 192
f 554 480 1318
f 915 480 554
f 1410 355 95
f 891 355 1410
f 1248 1169 172
f 172 491 1248
f 1248 491 1169
f 1123 180 640
f 640 917 1123
f 1123 917 367
f 964 1094 633
f 633 1094 413
f 1377 669 853
f 109 1377 853
f 924 694 411
f 694 1389 411
f 411 901 924
f 1389 901 411
f 1219 1054 890
f 890 1389 1219
f 926 716 73
f 1106 922 73
f 716 672 73
f 73 1384 926
f 73 922 1384
f 1096 195 1278
f 1278 716 1096
f 53 124 925
f 124 1300 925
f 959 764 728
f 331 575 1420
f 1077 1048 1421
f 821 575 1421
f 1421 1149 821
f 821 1149 51
f 51 994 821
f 551 595 1421
f 551 616 595
f 551 1421 373
f 373 616 551
f 389 1105 1421
f 1317 1105 1048
f 1048 1077 1317
f 502 1033 644
f 7 1033 502
f 644 319 502
f 502 319 495
f 495 464 502
f 502 464 7
f 117 1033 931
f 1150 454 117
f 691 644 427
f 644 1033 427
f 398 424 202
f 202 309 398
f 263 424 398
f 398 286 263
f 398 454 1150
f 1150 286 398
f 263 775 536
f 1067 263 536
f 775 575 536
f 536 754 1067
f 213 754 536
f 536 994 213
f 197 994 64
f 213 197 64
f 64 1281 213
f 1108 994 51
f 1079 556 1364
f 1364 740 1079
f 556 1184 1364
f 1364 1184 1182
f 1182 740 1364
f 335 968 1287
f 19 968 335
f 1393 100 404
f 1393 217 100
f 1393 404 1015
f 1207 217 1393
f 1015 1408 1393
f 1408 1207 1393
f 1427 923 969
f 1062 923 1427
f 928 546 1177
f 1177 76 928
f 988 215 1019
f 1019 803 993
f 993 988 1019
f 1019 620 803
f 1019 215 620
f 668 1229 1221
f 926 1384 1221
f 1221 1229 926
f 177 4 120
f 177 346 4
f 52 473 1231
f 52 540 473
f 1231 517 52
f 677 860 470
f 860 243 470
f 470 1428 677
f 470 243 1428
f 884 320 36
f 884 250 320
f 225 827 210
f 210 827 663
f 299 218 360
f 360 1330 299
f 485 521 352
f 352 591 485
f 485 591 521
f 1167 589 17
f 589 861 17
f 17 875 869
f 17 591 875
f 869 1060 17
f 17 1318 1167
f 17 1060 1318
f 318 945 277
f 945 591 277
f 242 318 277
f 591 17 277
f 277 17 861
f 589 1220 20
f 20 861 589
f 251 1190 246
f 725 1345 1002
f 725 397 1345
f 1002 709 725
f 725 709 880
f 725 1160 983
f 1358 397 725
f 880 905 725
f 983 927 725
f 927 1358 725
f 715 1160 725
f 905 372 725
f 725 372 715
f 1140 1034 270
f 1140 1362 1034
f 1034 1362 435
f 300 1034 435
f 435 653 300
f 1362 1140 435
f 270 1243 435
f 435 1140 270
f 1243 416 435
f 1116 653 435
f 435 416 1116
f 486 280 767
f 970 1251 1038
f 1038 183 970
f 1038 1251 1227
f 488 1007 789
f 789 369 488
f 528 310 970
f 970 134 528
f 528 134 1239
f 1239 228 528
f 228 310 528
f 312 1007 1239
f 1239 358 312
f 582 525 1052
f 641 525 582
f 931 1374 604
f 604 482 931
f 1374 482 604
f 931 482 405
f 405 482 285
f 1056 561 1404
f 1404 477 1056
f 477 22 1056
f 22 286 1056
f 286 561 1056
f 1347 383 877
f 272 198 863
f 492 1374 1188
f 1374 32 1188
f 1188 1303 492
f 366 793 375
f 366 32 793
f 375 1303 366
f 145 1090 137
f 137 1090 590
f 1407 145 137
f 256 1383 1089
f 748 857 1089
f 1089 1383 748
f 1081 1148 700
f 967 381 127
f 833 381 967
f 967 127 96
f 460 537 1189
f 537 1071 1189
f 146 386 259
f 259 386 1397
f 1319 386 98
f 1397 386 1319
f 1397 230 200
f 200 230 1157
f 393 1397 460
f 393 230 1397
f 1302 1008 362
f 1008 1157 362
f 1157 230 362
f 160 907 977
f 977 907 1302
f 1367 907 349
f 1403 166 948
f 166 16 948
f 1098 1309 1352
f 1352 1309 914
f 135 1371 1050
f 1098 1371 135
f 135 1309 1098
f 1203 262 326
f 374 621 326
f 326 621 1203
f 443 240 1075
f 1075 578 443
f 240 326 1075
f 1075 326 262
f 262 882 1075
f 1075 882 670
f 1075 670 924
f 924 578 1075
f 707 472 1411
f 1411 901 707
f 890 434 836
f 836 434 901
f 836 1389 890
f 836 901 1389
f 1027 819 772
f 1027 772 1091
f 1027 548 1050
f 1027 1411 819
f 1050 901 1027
f 901 1411 1027
f 1318 690 283
f 283 554 1318
f 915 554 283
f 314 1410 95
f 95 349 314
f 349 564 314
f 564 283 314
f 314 283 690
f 314 690 891
f 891 1410 314
f 147 1021 699
f 699 40 147
f 1187 40 699
f 699 171 1187
f 468 1389 694
f 468 1219 1389
f 694 499 468
f 468 499 74
f 1093 1201 254
f 74 1201 1093
f 1093 468 74
f 1219 468 1093
f 529 1054 898
f 1054 1219 898
f 1219 1093 898
f 254 529 898
f 898 1093 254
f 184 417 894
f 1106 73 34
f 1197 981 53
f 53 925 1197
f 771 959 650
f 650 625 771
f 764 959 771
f 575 331 106
f 594 1077 106
f 1421 575 106
f 106 1077 1421
f 613 302 164
f 613 164 344
f 900 99 613
f 344 1396 613
f 1048 1105 706
f 1105 389 706
f 1421 1048 706
f 706 389 1421
f 1306 1077 594
f 1306 1317 1077
f 594 811 852
f 594 106 1250
f 1250 106 331
f 305 341 33
f 33 341 279
f 279 852 811
f 1037 117 285
f 285 561 1037
f 691 427 1118
f 1118 454 691
f 1118 117 454
f 1033 117 1118
f 1118 427 1033
f 454 398 632
f 632 398 309
f 575 821 467
f 467 536 575
f 957 821 994
f 994 536 957
f 957 467 821
f 536 467 957
f 1281 64 692
f 692 64 994
f 727 1281 692
f 692 1108 727
f 994 1108 692
f 668 1221 1280
f 1280 1221 1384
f 1384 478 1280
f 478 1270 1280
f 804 175 1329
f 804 1329 1392
f 306 218 225
f 225 210 306
f 306 360 218
f 899 827 1064
f 899 1330 1325
f 899 1325 663
f 663 827 899
f 1325 1330 1137
f 1330 360 1137
f 1129 277 861
f 1129 20 1220
f 861 20 1129
f 1129 1220 242
f 242 277 1129
f 324 741 98
f 98 1190 324
f 324 574 741
f 1334 767 280
f 1334 1038 767
f 183 1038 1334
f 163 719 1347
f 1347 877 163
f 732 383 793
f 732 272 383
f 732 793 1374
f 1374 198 732
f 198 272 732
f 222 272 863
f 383 272 222
f 222 877 383
f 603 1081 27
f 27 703 603
f 1148 1081 603
f 603 703 151
f 151 1148 603
f 98 537 1185
f 1185 1319 98
f 537 1397 1185
f 1397 1319 1185
f 159 16 601
f 601 187 159
f 601 1367 903
f 903 187 601
f 858 914 513
f 858 1352 914
f 990 1411 472
f 990 472 368
f 368 796 990
f 1191 564 1314
f 1191 283 564
f 1314 915 1191
f 915 283 1191
f 147 426 1216
f 147 265 141
f 141 426 147
f 141 265 586
f 586 109 141
f 640 180 141
f 141 853 640
f 109 853 141
f 417 184 328
f 328 184 672
f 1106 34 842
f 842 478 1106
f 894 478 842
f 672 184 842
f 842 73 672
f 842 34 73
f 258 613 99
f 302 613 258
f 720 811 594
f 594 1250 720
f 341 305 843
f 843 305 344
f 344 626 843
f 1138 279 341
f 1138 341 826
f 1138 826 1283
f 33 279 432
f 432 279 811
f 1150 117 841
f 117 1037 841
f 462 951 175
f 175 804 462
f 218 13 189
f 225 218 189
f 768 251 1275
f 661 1367 349
f 661 903 1367
f 557 1021 147
f 147 1216 557
f 656 1037 561
f 656 841 1037
f 656 561 1150
f 1150 841 656
f 179 13 175
f 179 189 13
f 175 951 179
f 162 324 1190
f 162 768 324
f 1190 251 162
f 251 768 162
f 865 1275 571
f 865 768 1275
f 571 913 865
f 324 768 865
f 865 913 1413
f 1413 574 865
f 574 324 865
f 1372 1276 1211
f 1211 1092 973
f 373 54 1211
f 973 938 1211
f 1211 526 505
f 773 1260 1211
f 1211 1276 1092
f 1211 1387 1372
f 1145 1171 1211
f 255 1387 1211
f 1211 505 373
f 1211 84 1145
f 45 1181 1211
f 261 114 1211
f 1211 125 773
f 1211 1171 261
f 1211 938 45
f 1211 126 1342
f 1342 475 1211
f 1186 125 1211
f 1211 114 1186
f 1211 54 455
f 1211 1181 526
f 1211 1260 126
f 455 84 1211
f 1423 354 1215
f 1273 174 1215
f 1215 354 1273
f 1215 174 751
f 444 838 231
f 580 1117 231
f 231 1117 444
f 1355 1132 889
f 889 1240 1355
f 1355 1240 89
f 531 245 1355
f 245 1132 1355
f 978 815 5
f 5 814 887
f 5 712 814
f 887 991 5
f 5 115 978
f 991 115 5
f 476 712 5
f 453 958 756
f 756 562 453
f 453 1121 577
f 562 1121 453
f 577 1398 453
f 453 1398 327
f 453 167 958
f 1343 24 1187
f 1187 24 90
f 1187 602 1343
f 1373 602 1187
f 266 1006 1299
f 266 987 1006
f 498 153 266
f 1299 140 266
f 576 987 266
f 266 356 576
f 153 356 266
f 140 1085 266
f 662 849 1264
f 1253 1321 662
f 662 1321 849
f 662 1255 1253
f 1264 653 662
f 165 904 396
f 165 396 648
f 165 648 1162
f 1162 402 165
f 165 361 904
f 1406 1388 232
f 1244 1406 232
f 232 1130 1244
f 711 295 862
f 711 862 965
f 965 364 711
f 711 1133 295
f 364 313 711
f 1024 1213 1419
f 1024 568 1213
f 1024 748 1179
f 1179 568 1024
f 918 1206 667
f 918 667 487
f 608 260 723
f 723 807 363
f 723 188 75
f 363 113 723
f 723 325 608
f 260 807 723
f 113 188 723
f 723 1237 325
f 70 1112 4
f 4 31 70
f 4 1112 449
f 1391 496 400
f 400 984 403
f 496 984 400
f 473 979 1370
f 473 1370 1323
f 1412 1231 473
f 1323 1217 473
f 473 980 1412
f 473 1172 1349
f 1349 779 473
f 473 1217 1172
f 779 980 473
f 876 1294 783
f 168 876 783
f 315 678 431
f 1193 678 315
f 431 828 315
f 600 1128 288
f 1042 697 600
f 600 937 1042
f 288 952 600
f 697 107 600
f 600 952 937
f 1360 395 998
f 998 122 1360
f 570 235 1269
f 570 1335 1230
f 570 1269 534
f 66 235 570
f 1026 611 570
f 570 611 101
f 534 1335 570
f 1230 736 570
f 570 736 1026
f 787 587 1031
f 1031 156 787
f 1046 1346 1031
f 1346 156 1031
f 533 916 1333
f 35 647 1333
f 1333 639 533
f 647 639 1333
f 916 459 1333
f 635 947 119
f 119 440 321
f 119 947 839
f 119 321 635
f 792 440 119
f 933 921 612
f 437 1292 933
f 933 1292 921
f 1369 294 759
f 1369 759 713
f 713 609 1369
f 1305 599 1222
f 1099 371 1305
f 1305 1088 1099
f 1222 1088 1305
f 371 83 1305
f 147 40 530
f 530 265 147
f 530 1094 1174
f 586 265 530
f 871 1377 530
f 530 109 586
f 530 203 871
f 530 1377 109
f 40 1094 530
f 1097 124 53
f 1097 866 131
f 1097 1025 124
f 53 1045 1097
f 1097 997 1025
f 1045 866 1097
f 923 1327 954
f 133 1001 923
f 1001 968 923
f 1119 1327 923
f 923 968 1119
f 1312 23 946
f 946 347 572
f 572 471 946
f 23 347 946
f 946 14 1312
f 946 353 1158
f 471 353 946
f 105 1378 810
f 810 290 105
f 105 1268 1378
f 62 446 105
f 290 593 105
f 446 1268 105
f 345 617 520
f 1159 474 345
f 345 1356 1159
f 520 535 345
f 334 1356 345
f 345 535 334
f 474 1394 345
f 157 1000 310
f 48 484 310
f 310 859 157
f 310 1251 970
f 310 1000 1251
f 310 683 48
f 310 379 859
f 484 379 310
f 658 683 310
f 132 340 695
f 549 132 695
f 695 488 549
f 340 790 695
f 695 311 275
f 695 790 311
f 1425 624 525
f 525 624 1274
f 1274 855 525
f 525 855 385
f 284 182 1141
f 1141 339 284
f 339 85 284
f 284 85 1326
f 1366 532 284
f 284 777 182
f 284 291 1366
f 1242 777 284
f 284 532 1242
f 1401 382 1405
f 1405 666 1401
f 1405 1032 666
f 806 1361 1405
f 1405 785 806
f 382 785 1405
f 539 490 359
f 359 129 399
f 359 1111 539
f 399 1152 359
f 1152 1111 359
f 65 42 201
f 42 185 201
f 201 1110 65
f 758 281 201
f 201 919 1110
f 185 1296 201
f 201 281 919
f 12 892 1059
f 12 1236 204
f 301 1236 12
f 204 892 12
f 343 913 571
f 343 1147 840
f 730 456 343
f 343 571 186
f 1339 910 343
f 840 755 343
f 343 755 1339
f 456 1147 343
f 910 913 343
f 659 645 239
f 659 239 1122
f 1286 143 166
f 166 560 1379
f 1379 567 166
f 166 1043 1286
f 166 1163 1232
f 567 1043 166
f 166 143 1163
f 434 920 368
f 434 559 1272
f 368 472 434
f 1272 920 434
f 434 472 707
f 633 248 214
f 509 964 633
f 214 675 633
f 413 248 633
f 633 675 224
f 224 1381 633
f 1381 465 633
f 633 999 509
f 465 999 633
f 853 247 1016
f 853 917 640
f 1016 1234 853
f 1234 917 853
f 1365 247 853
f 853 879 1365
f 853 669 879
f 51 1149 1108
f 1108 1149 727
f 463 1175 335
f 1287 463 335
f 1175 112 335
f 112 19 335
f 489 546 928
f 630 489 928
f 928 969 630
f 928 1427 969
f 501 1062 928
f 928 497 501
f 928 76 497
f 1062 1427 928
f 558 346 177
f 818 558 177
f 177 636 818
f 120 636 177
f 461 1151 52
f 52 38 461
f 52 1151 963
f 52 517 38
f 963 540 52
f 36 816 884
f 816 250 884
f 246 799 251
f 1376 1275 251
f 799 1376 251
f 486 767 1038
f 1227 1057 1038
f 29 50 1038
f 664 623 1038
f 1038 623 29
f 1038 1235 664
f 1038 50 486
f 1386 761 1038
f 1038 1057 1386
f 761 1235 1038
f 1053 369 312
f 37 1053 312
f 312 358 37
f 312 789 1007
f 369 789 312
f 544 982 582
f 582 93 1228
f 582 982 1409
f 582 1228 544
f 582 1052 93
f 1409 641 582
f 285 117 405
f 405 117 931
f 366 1188 32
f 1303 1188 366
f 137 590 59
f 59 68 137
f 137 1210 1407
f 137 68 1210
f 1089 381 256
f 1020 545 1089
f 1089 846 1020
f 1089 857 846
f 1127 127 1089
f 1089 545 1127
f 127 381 1089
f 150 676 1081
f 1081 700 150
f 1081 676 27
f 1288 1383 967
f 267 1288 967
f 401 267 967
f 967 178 71
f 71 401 967
f 967 1383 833
f 96 178 967
f 146 259 200
f 200 1157 146
f 200 259 1397
f 977 1071 160
f 1302 362 977
f 977 393 460
f 460 1189 977
f 977 1189 1071
f 230 393 977
f 977 362 230
f 1367 601 414
f 1153 1008 1367
f 1367 1044 1153
f 414 1044 1367
f 1008 907 1367
f 135 3 138
f 135 104 1336
f 1050 104 135
f 138 914 135
f 135 1336 3
f 914 1309 135
f 1027 406 1308
f 674 781 1027
f 1308 682 1027
f 781 548 1027
f 682 674 1027
f 1091 406 1027
f 1197 1300 650
f 1197 925 1300
f 728 981 1197
f 1197 959 728
f 650 959 1197
f 1155 881 771
f 771 625 1155
f 881 764 771
f 613 28 900
f 1396 376 613
f 613 297 152
f 613 376 297
f 152 28 613
f 632 309 691
f 691 454 632
f 524 668 1280
f 1280 911 524
f 1280 642 911
f 1280 1270 642
f 13 320 1329
f 423 342 13
f 13 766 423
f 565 320 13
f 13 342 565
f 13 218 766
f 1329 175 13
f 899 516 299
f 1064 82 899
f 899 1055 516
f 899 82 1055
f 299 1330 899
f 1137 210 663
f 663 1325 1137
f 1137 306 210
f 360 306 1137
f 897 1249 1334
f 1400 483 1334
f 483 897 1334
f 1334 744 1400
f 280 802 1334
f 622 744 1334
f 1334 802 622
f 1249 183 1334
f 719 163 222
f 863 719 222
f 222 163 877
f 374 326 858
f 858 738 374
f 443 1371 858
f 513 236 858
f 858 236 996
f 858 1371 1098
f 858 240 443
f 996 738 858
f 1098 1352 858
f 858 326 240
f 990 729 469
f 212 729 990
f 990 796 212
f 469 1284 990
f 819 1411 990
f 990 1284 1307
f 772 819 990
f 1307 772 990
f 328 276 417
f 195 1331 328
f 1266 276 328
f 328 1331 1266
f 328 1278 195
f 328 672 716
f 716 1278 328
f 842 184 894
f 843 170 164
f 164 302 843
f 626 170 843
f 843 99 826
f 843 258 99
f 826 341 843
f 302 258 843
f 594 852 1138
f 1138 1306 594
f 1105 1317 1138
f 1283 1105 1138
f 1317 1306 1138
f 852 279 1138
f 432 331 1420
f 432 1414 344
f 432 989 1414
f 1420 989 432
f 344 305 432
f 811 720 432
f 432 1250 331
f 432 305 33
f 432 720 1250
f 16 159 661
f 349 1403 661
f 1403 948 661
f 661 948 16
f 661 159 187
f 187 903 661
f 557 367 874
f 874 171 557
f 557 141 180
f 557 1123 367
f 180 1123 557
f 171 699 557
f 557 699 1021
f 557 1216 426
f 426 141 557
f 179 804 1392
f 1341 827 179
f 1392 1078 179
f 179 686 1341
f 179 1078 686
f 179 827 225
f 951 462 179
f 179 462 804
f 225 189 179

