# https://github.com/mikedh/trimesh
v 0.04981247 0.03118833 -0.03539896
v 0.04247881 0.03603816 -0.02571764
v 0.02661457 0.03161616 -0.02503784
v 0.04936288 0.03534258 -0.03539899
v 0.04558047 0.03492090 -0.03539917
v 0.04621242 0.03651506 -0.03531530
v 0.04376459 0.03518357 -0.03535034
v 0.04982082 0.03638812 -0.02545897
v 0.04858567 0.03710027 -0.02897100
v 0.04902872 0.03687077 -0.02763202
v 0.02623241 0.02535687 -0.03378608
v 0.04508405 0.03654698 -0.02660311
v 0.02540312 0.03135508 -0.03338902
v 0.04682354 0.03742245 -0.03255419
v 0.04461711 0.03684335 -0.02907227
v 0.04512111 0.03706142 -0.03077823
v 0.04381691 0.03638648 -0.02635363
v 0.04258257 0.03627516 -0.02795548
v 0.02505102 0.03129406 -0.02920914
v 0.04616891 0.03653700 -0.02622597
v 0.04408052 0.03685173 -0.03100682
v 0.04977406 0.02517481 -0.02852901
v 0.04871502 0.03742968 -0.03225664
v 0.04669657 0.03618552 -0.03539911
v 0.04655693 0.03652968 -0.03533656
v 0.04414014 0.03690395 -0.03245812
v 0.04982121 0.03642925 -0.02563351
v 0.04753388 0.03718462 -0.02983091
v 0.04972579 0.02649502 -0.03539895
v 0.04808808 0.03714703 -0.02942212
v 0.04296748 0.03613505 -0.02563099
v 0.04849144 0.03747052 -0.03332932
v 0.04734233 0.03730097 -0.03097079
v 0.04575570 0.03639206 -0.02565535
v 0.04344230 0.03635948 -0.03486859
v 0.04257472 0.03598263 -0.02511159
v 0.02582469 0.02667155 -0.02853008
v 0.04577808 0.03705283 -0.02964597
v 0.04959159 0.03631184 -0.02515919
v 0.02503929 0.03006525 -0.03378608
v 0.02513844 0.03129741 -0.03260551
v 0.04494125 0.02516926 -0.03539917
v 0.04671748 0.02503457 -0.03539908
v 0.04186865 0.02501806 -0.03385969
v 0.04464215 0.02597906 -0.03539919
v 0.04389504 0.02928960 -0.03539923
v 0.04998311 0.03397754 -0.02851220
v 0.04391827 0.03361528 -0.03539924
v 0.04541746 0.03005354 -0.03539916
v 0.04504345 0.03684275 -0.03486980
v 0.04616431 0.03623607 -0.02500339
v 0.04765392 0.03656341 -0.02626736
v 0.04847311 0.03721352 -0.03002858
v 0.02521824 0.02819209 -0.03378608
v 0.04387411 0.03678509 -0.03464393
v 0.03333787 0.02505930 -0.02851219
v 0.04440877 0.03698550 -0.03373847
v 0.04812692 0.03739387 -0.03179617
v 0.04996544 0.03596750 -0.02852899
v 0.04997131 0.02845193 -0.02851220
v 0.04844645 0.03691453 -0.02786796
v 0.04500997 0.03714110 -0.03192246
v 0.04443160 0.03699444 -0.03296175
v 0.04452015 0.03546364 -0.03539922
v 0.04632243 0.03709385 -0.02926067
v 0.02719853 0.02599312 -0.02851218
v 0.02508693 0.02728052 -0.02851217
v 0.04857806 0.03729237 -0.03077870
v 0.04645182 0.03733926 -0.03186569
v 0.04888446 0.03672051 -0.02690784
v 0.04498706 0.03714815 -0.03218173
v 0.04691136 0.03744546 -0.03326390
v 0.04867838 0.02593026 -0.03539899
v 0.04928879 0.03689901 -0.03509393
v 0.02554563 0.03095849 -0.03372257
v 0.04203151 0.02507854 -0.02852935
f 56 11 44
f 40 13 75
f 3 22 39
f 46 54 40
f 76 56 44
f 76 22 3
f 3 56 76
f 57 19 63
f 43 73 22
f 43 76 44
f 22 76 43
f 44 11 43
f 22 73 29
f 40 75 7
f 11 56 66
f 66 37 11
f 66 56 3
f 3 37 66
f 67 54 11
f 11 37 67
f 40 54 67
f 67 19 40
f 67 37 3
f 3 19 67
f 3 2 18
f 13 57 55
f 57 72 55
f 41 57 13
f 19 57 41
f 41 13 40
f 40 19 41
f 22 29 60
f 42 43 11
f 73 43 42
f 42 29 73
f 1 59 47
f 47 60 1
f 1 60 29
f 64 7 75
f 3 18 21
f 21 19 3
f 36 2 3
f 35 75 13
f 13 55 35
f 22 60 8
f 8 39 22
f 8 60 47
f 47 59 8
f 59 27 8
f 11 54 45
f 45 42 11
f 54 46 45
f 59 1 74
f 32 23 74
f 74 27 59
f 23 27 74
f 74 72 32
f 7 64 48
f 48 46 40
f 40 7 48
f 5 1 29
f 5 64 24
f 19 21 71
f 71 57 63
f 71 72 57
f 34 36 51
f 3 39 51
f 51 36 3
f 50 35 55
f 50 55 72
f 72 74 50
f 35 50 6
f 6 64 75
f 75 35 6
f 68 58 28
f 23 58 68
f 53 68 28
f 65 20 61
f 69 65 14
f 72 71 14
f 14 58 23
f 32 72 14
f 14 23 32
f 33 65 28
f 28 58 33
f 33 14 65
f 58 14 33
f 24 74 4
f 4 74 1
f 4 5 24
f 1 5 4
f 42 5 49
f 29 42 49
f 49 5 29
f 17 36 34
f 63 19 26
f 26 71 63
f 19 71 26
f 15 17 65
f 15 18 2
f 24 64 25
f 64 6 25
f 25 74 24
f 25 50 74
f 25 6 50
f 70 61 20
f 65 61 9
f 68 53 9
f 23 68 9
f 34 20 12
f 12 17 34
f 12 20 65
f 65 17 12
f 2 36 31
f 36 17 31
f 31 15 2
f 17 15 31
f 38 65 69
f 69 15 38
f 38 15 65
f 16 15 69
f 62 71 21
f 62 21 18
f 18 15 62
f 15 16 62
f 62 16 69
f 69 14 62
f 62 14 71
f 52 70 20
f 27 70 52
f 52 8 27
f 28 65 30
f 65 9 30
f 30 53 28
f 30 9 53
f 61 70 10
f 10 9 61
f 10 70 27
f 10 27 23
f 23 9 10
f 46 48 5
f 5 45 46
f 42 45 5
f 5 48 64
f 52 20 34
f 39 8 52
f 34 51 52
f 52 51 39

