# https://github.com/mikedh/trimesh
v 0.11362239 0.01326141 -0.02116721
v 0.12153769 0.02495776 -0.01033586
v 0.10322790 0.00290220 -0.00816964
v 0.11199879 0.00809265 -0.02068285
v 0.10072664 0.00056568 -0.01984115
v 0.11808958 0.01556196 -0.00987969
v 0.12162206 0.01894399 -0.01083479
v 0.11070378 0.00573002 -0.00916687
v 0.11276464 0.02032668 -0.02058474
v 0.12020834 0.01981503 -0.00992599
v 0.11308299 0.02150142 -0.02040684
v 0.10004624 0.01445925 -0.01253930
v 0.11553668 0.01488167 -0.02109933
v 0.11301700 0.01812700 -0.00921065
v 0.11317989 0.02196385 -0.02031021
v 0.12463419 0.02098329 -0.01305478
v 0.11887344 0.01674192 -0.02054877
v 0.11564415 0.02245072 -0.00977949
v 0.10096618 0.01210527 -0.00883852
v 0.10172670 0.00522597 -0.00788314
v 0.11102381 0.00737849 -0.02078681
v 0.11732069 0.02408997 -0.02062301
v 0.11421601 0.00505943 -0.01418283
v 0.11671477 0.01623942 -0.02106756
v 0.11369561 0.01939434 -0.02082799
v 0.11902329 0.02140383 -0.02102177
v 0.11860780 0.02087889 -0.00967537
v 0.11695568 0.01569970 -0.02093460
v 0.10224279 0.00476231 -0.02086757
v 0.11230151 0.00438179 -0.01142322
v 0.11602554 0.02125750 -0.00960661
v 0.12108473 0.02200730 -0.02085117
v 0.11539666 0.02471461 -0.01059470
v 0.10289953 0.00241313 -0.02056277
v 0.11570824 0.01795709 -0.00929477
v 0.11052485 0.02308120 -0.01667163
v 0.10366267 0.00070311 -0.00935331
v 0.11405844 0.01976100 -0.02082513
v 0.10064387 0.00799620 -0.02062356
v 0.12241746 0.02210208 -0.02050259
v 0.11116973 0.02344621 -0.01723052
v 0.11556285 0.02470781 -0.01051674
v 0.10150424 0.00273332 -0.02063564
v 0.11932391 0.01943273 -0.02096803
v 0.11339441 0.02463654 -0.01853220
v 0.11924766 0.02075956 -0.00973175
v 0.11788511 0.01803966 -0.02107396
v 0.11439506 0.01674912 -0.02112027
v 0.12225365 0.02061428 -0.01067119
v 0.11046039 0.01799038 -0.02061259
v 0.11542998 0.02336023 -0.02046499
v 0.11341487 0.00462352 -0.01551683
v 0.11388875 0.00486955 -0.01307604
v 0.12361856 0.02410636 -0.01073000
v 0.11445776 0.01989384 -0.00943143
v 0.10984314 0.01047069 -0.02116542
v 0.10065072 0.00424771 -0.00783682
v 0.11907745 0.01794900 -0.00979227
v 0.11574603 0.01910626 -0.00939725
v 0.11578575 0.01313322 -0.00946528
v 0.11030007 0.01158681 -0.02115218
v 0.11074778 0.00673072 -0.02070590
v 0.10343580 0.00299162 -0.02068416
v 0.11036929 0.01019390 -0.02118955
v 0.11387079 0.02173180 -0.00975697
v 0.11671587 0.01641527 -0.00931739
v 0.10007096 0.01377808 -0.01010498
v 0.11294943 0.01112789 -0.02103932
v 0.11137826 0.00403094 -0.01830140
v 0.10436734 0.00219040 -0.00866174
v 0.10175573 0.00122740 -0.00854173
v 0.10946342 0.02238998 -0.01496785
v 0.12188925 0.02350986 -0.02075659
v 0.11095269 0.00502218 -0.00962708
v 0.12263840 0.02326775 -0.02060146
v 0.11709491 0.02441389 -0.01009232
v 0.11553186 0.01916570 -0.02099929
v 0.11868562 0.02017258 -0.00964142
v 0.11075032 0.02338583 -0.01427887
v 0.11853181 0.01685183 -0.00977657
v 0.11132391 0.01786244 -0.00917655
v 0.11048380 0.02324062 -0.01498374
v 0.11045212 0.00896408 -0.00855578
v 0.12250287 0.02120777 -0.02023788
v 0.12072827 0.01870195 -0.01035269
v 0.10134378 0.00386125 -0.02077678
v 0.10308523 0.00391465 -0.02084930
v 0.11222500 0.01673744 -0.00905735
v 0.10992111 0.00773094 -0.00853575
v 0.11174986 0.00498257 -0.01946594
v 0.10127454 0.00071260 -0.01990677
v 0.11683841 0.01573336 -0.02097014
v 0.11966505 0.02430356 -0.01008903
v 0.10416755 0.00143989 -0.00896654
v 0.11476560 0.02201010 -0.00974295
v 0.10034768 0.01239707 -0.01964232
v 0.10993560 0.02274554 -0.01589462
v 0.11933831 0.02270277 -0.00989221
v 0.11317648 0.01473551 -0.00892357
v 0.11245105 0.01657476 -0.00905015
v 0.11461202 0.01736254 -0.02108654
v 0.10146981 0.00340896 -0.00795429
v 0.11379033 0.00622991 -0.01930805
v 0.12163598 0.02237426 -0.02076412
v 0.11948219 0.01806758 -0.02068219
v 0.10274732 0.00298196 -0.02071068
v 0.11179935 0.00425236 -0.01833307
v 0.11185812 0.00591211 -0.00961404
v 0.10175590 0.00244875 -0.00813893
v 0.11186055 0.00597237 -0.02007590
v 0.10065477 0.00393933 -0.02074114
v 0.11120189 0.00797109 -0.00880532
v 0.11159791 0.00883924 -0.02093850
v 0.12376588 0.02458042 -0.02041528
v 0.11630169 0.02462000 -0.02035005
v 0.11286759 0.02492990 -0.01363885
v 0.11236690 0.00462948 -0.01854225
v 0.10817940 0.00838125 -0.02113314
v 0.10143195 0.00553144 -0.00786446
v 0.11363615 0.00491749 -0.01741498
v 0.11216341 0.01880224 -0.00929384
v 0.11201376 0.00705998 -0.00928770
v 0.11220198 0.00572728 -0.00987813
v 0.11325509 0.01582896 -0.00901400
v 0.11181017 0.02426578 -0.01598303
v 0.10153650 0.00682587 -0.02078801
v 0.11142792 0.02399558 -0.01539212
v 0.10959874 0.00763875 -0.02107289
v 0.11419688 0.01562229 -0.00903209
v 0.10016900 0.01090036 -0.02011323
v 0.11469264 0.01075855 -0.02047118
v 0.11210255 0.02451583 -0.01590444
v 0.11761872 0.02052719 -0.02104085
v 0.12138271 0.02138961 -0.02072813
v 0.10263070 0.00172711 -0.00844736
v 0.11324594 0.00617578 -0.01021516
v 0.12148820 0.02257776 -0.02080485
v 0.10373838 0.00146500 -0.00880072
v 0.11376946 0.01703045 -0.02104647
v 0.11029079 0.00742049 -0.02094548
v 0.12150038 0.02342867 -0.01020481
v 0.11331347 0.01774544 -0.00918426
v 0.11708654 0.01588283 -0.02093621
v 0.12111046 0.02197941 -0.01007901
v 0.11428627 0.02056161 -0.02074865
v 0.12267782 0.02051232 -0.01098770
v 0.11508447 0.01977130 -0.00943088
v 0.10956907 0.00711394 -0.00851397
v 0.11287810 0.00472900 -0.01138510
v 0.11574839 0.01879102 -0.02105063
v 0.11159798 0.01786220 -0.02076956
v 0.11985732 0.02150313 -0.00983847
v 0.11150093 0.01244604 -0.02116928
v 0.10452757 0.00030124 -0.01146301
v 0.11188567 0.00380880 -0.01348185
v 0.11132520 0.00920785 -0.02104837
v 0.11800423 0.01849862 -0.02108703
v 0.11279914 0.00842375 -0.02051164
v 0.11304515 0.00446903 -0.01604199
v 0.11952324 0.01756906 -0.01004829
v 0.11994105 0.02499724 -0.02069281
v 0.11256128 0.00419578 -0.01564015
v 0.12441420 0.02071625 -0.01775334
v 0.11196236 0.00392611 -0.01249550
v 0.11317736 0.01655870 -0.00907496
v 0.12194759 0.01906738 -0.01971818
v 0.10055325 0.01012100 -0.00830581
v 0.12365581 0.02229180 -0.01993592
v 0.11216294 0.00630410 -0.02010921
v 0.11145746 0.01135997 -0.02120173
v 0.10299967 0.00211759 -0.02044958
v 0.11459509 0.02194539 -0.02059470
v 0.11675134 0.01627947 -0.02106612
v 0.10002868 0.00877709 -0.00806336
v 0.12494169 0.02156425 -0.01782647
v 0.10264820 0.00134744 -0.02012882
v 0.11884527 0.02484878 -0.01014579
v 0.11170640 0.02413779 -0.01416695
v 0.11113934 0.00881052 -0.02102398
v 0.11525847 0.02344814 -0.02041070
v 0.12348100 0.02461756 -0.02050893
v 0.11359077 0.00541828 -0.01099538
v 0.11257240 0.01172055 -0.02115731
v 0.12485656 0.02218209 -0.01221974
v 0.11165420 0.00780963 -0.02071765
v 0.12362807 0.02375949 -0.02032920
v 0.11654260 0.01878685 -0.02110974
v 0.11912360 0.02080725 -0.02104513
v 0.11313812 0.01010324 -0.02080811
v 0.11872335 0.01973149 -0.02106743
v 0.10987732 0.00932913 -0.00849473
v 0.11713367 0.01782023 -0.02113208
v 0.11244517 0.00843182 -0.00914023
v 0.11385244 0.01308768 -0.00894221
v 0.11613059 0.00974047 -0.01063984
v 0.11116569 0.01213697 -0.00866969
v 0.11644532 0.01396671 -0.02069714
v 0.11961993 0.01952329 -0.02091553
v 0.11405140 0.00566781 -0.01110049
v 0.11575685 0.01729289 -0.00923844
v 0.12062822 0.01993600 -0.02072419
v 0.11669977 0.01514009 -0.02088900
v 0.11848695 0.01895271 -0.02105561
v 0.10007575 0.01454131 -0.01360663
v 0.10855046 0.00733809 -0.02112662
v 0.12378645 0.02315845 -0.02012365
v 0.10026042 0.00995379 -0.02032238
v 0.11317959 0.02138847 -0.00974803
v 0.11539545 0.02444369 -0.01043458
v 0.11296571 0.01726435 -0.02095883
v 0.11843029 0.01662292 -0.02069021
v 0.10976846 0.02262558 -0.01573891
v 0.12213797 0.02172381 -0.01040312
v 0.11396950 0.00506667 -0.01209761
v 0.10213755 0.00587363 -0.02087436
v 0.12415135 0.02337901 -0.01998656
v 0.11391048 0.00491253 -0.01598358
v 0.11361848 0.00487980 -0.01724567
v 0.10412402 0.00008592 -0.01691484
v 0.12095008 0.02133113 -0.02082606
v 0.12147591 0.02303587 -0.01017370
v 0.11133390 0.00686016 -0.02057440
v 0.12464163 0.02158968 -0.01235778
v 0.11319956 0.00964412 -0.02068267
v 0.10194722 0.00715844 -0.02080088
v 0.11133652 0.02336683 -0.01774920
v 0.11430852 0.01820685 -0.00926296
v 0.12413179 0.02132881 -0.01902513
v 0.11440082 0.01355173 -0.02111277
v 0.11763369 0.02065245 -0.00960981
v 0.11599054 0.02118940 -0.02085262
v 0.12272180 0.02278312 -0.01051061
v 0.11116647 0.00683726 -0.02061677
v 0.10087780 0.00589187 -0.02078614
v 0.11182878 0.00386301 -0.01627538
v 0.10224720 0.00595491 -0.02087817
v 0.10391458 0.00115013 -0.00908406
v 0.10045060 0.00665136 -0.02072085
v 0.11277844 0.00880498 -0.02061303
v 0.11609093 0.02431183 -0.02037990
v 0.11215630 0.02425052 -0.01727279
v 0.10920242 0.00916897 -0.02116539
v 0.11633515 0.02114195 -0.00960305
v 0.11419682 0.00510286 -0.01543775
v 0.12190171 0.02122432 -0.02051607
v 0.10250038 0.00243899 -0.00820998
v 0.11768435 0.01786503 -0.00946641
v 0.11393265 0.00500914 -0.01702394
v 0.12461376 0.02118519 -0.01271585
v 0.11442856 0.01361075 -0.02111514
v 0.11395203 0.00557566 -0.01111589
v 0.12317377 0.02176188 -0.02005591
v 0.12411473 0.02041816 -0.01798580
v 0.12268018 0.02094080 -0.01084340
v 0.11122153 0.00993444 -0.02114613
v 0.11722677 0.02346323 -0.02070171
v 0.10009595 0.00244159 -0.02052730
v 0.12445920 0.02268064 -0.01950597
v 0.11408611 0.01933855 -0.00936186
v 0.11763912 0.02322311 -0.00987832
v 0.12455086 0.02083937 -0.01758890
v 0.11648416 0.01356395 -0.00965346
v 0.11608594 0.01586164 -0.00922854
v 0.11512353 0.01712282 -0.02113919
v 0.11960957 0.01701942 -0.01024605
v 0.11279035 0.00429476 -0.01311830
v 0.11181875 0.01060715 -0.00869179
v 0.11418326 0.01792506 -0.00923334
v 0.11386879 0.01017269 -0.00932664
v 0.11273606 0.01084755 -0.00885225
v 0.11196617 0.00966897 -0.02100513
v 0.11345351 0.00536451 -0.01094251
v 0.11261012 0.02490100 -0.01452261
v 0.10037548 0.00262621 -0.00799372
v 0.11302237 0.02150965 -0.02039099
v 0.10375250 0.00034126 -0.00983108
v 0.11378985 0.02494261 -0.01205172
v 0.11757433 0.02031898 -0.02105787
v 0.11071437 0.00782880 -0.02094093
v 0.10174812 0.00472953 -0.02084231
v 0.12149974 0.02120661 -0.02066424
v 0.11773970 0.02240985 -0.00978910
v 0.11390670 0.00500356 -0.01221166
v 0.12368616 0.02246092 -0.01104331
v 0.11296659 0.00438038 -0.01529592
v 0.11983689 0.01759005 -0.01019827
v 0.10092939 0.00417341 -0.00785398
v 0.10096381 0.00717307 -0.02072957
v 0.10017083 0.01435855 -0.01668651
v 0.11258223 0.00417488 -0.01513903
v 0.10277782 0.00242978 -0.02057454
v 0.11767726 0.01974326 -0.00952724
v 0.12470386 0.02191758 -0.01220516
v 0.11642079 0.02221403 -0.00973703
v 0.11009406 0.01900106 -0.02034998
v 0.11916853 0.01870945 -0.00973010
v 0.11526694 0.02491556 -0.01079783
v 0.11188354 0.02430442 -0.01612600
v 0.11203058 0.00955176 -0.00881798
v 0.12454569 0.02076059 -0.01319944
v 0.10881739 0.00792137 -0.00839542
v 0.12112921 0.02118737 -0.01008881
v 0.10003316 0.00041482 -0.01977594
v 0.11333429 0.00919228 -0.02053015
v 0.11353675 0.00778979 -0.02005951
v 0.11736147 0.01997745 -0.02107271
v 0.11347198 0.00623527 -0.01031838
v 0.12346327 0.02315043 -0.01078259
v 0.11183677 0.00704970 -0.02047467
v 0.11459885 0.02246100 -0.02049659
v 0.11068114 0.00533157 -0.02019922
v 0.11191622 0.00432518 -0.01107579
v 0.11001357 0.02257558 -0.01693191
v 0.11443273 0.00678273 -0.01890015
v 0.11409097 0.00541262 -0.01146161
v 0.11140851 0.00500797 -0.01966385
v 0.11715505 0.01568077 -0.00949530
v 0.12428064 0.02089768 -0.01834767
v 0.11478586 0.00698535 -0.01096991
v 0.11557247 0.01805374 -0.02110271
v 0.12020175 0.02226017 -0.02094518
v 0.10971188 0.00713164 -0.02099715
v 0.10949150 0.02241155 -0.01510841
v 0.11990574 0.02202554 -0.02096777
v 0.10140281 0.00501328 -0.02083020
v 0.10194678 0.00084443 -0.01992699
v 0.11869035 0.02212874 -0.00979449
v 0.11533940 0.02299571 -0.02052358
v 0.11029124 0.02274370 -0.01713907
v 0.10151990 0.00001074 -0.00913955
v 0.11093747 0.01017952 -0.00859494
v 0.11381016 0.00963045 -0.02048300
v 0.10398184 0.00294538 -0.00825770
v 0.11390681 0.00541296 -0.01127711
v 0.11186624 0.01027185 -0.00871500
v 0.11238319 0.01774021 -0.00916157
v 0.11719569 0.01878428 -0.00942705
v 0.10158688 0.00714543 -0.02077644
v 0.10217454 0.00305956 -0.02072367
v 0.11227779 0.00428765 -0.01766159
v 0.11892446 0.01889363 -0.00966025
v 0.11404057 0.00575351 -0.01838833
v 0.11140828 0.01107348 -0.02120087
v 0.11089593 0.00435966 -0.01928175
v 0.10247832 0.00286641 -0.00810538
v 0.11152201 0.00510120 -0.01968632
v 0.11207025 0.01990430 -0.02054209
v 0.12465788 0.02297978 -0.01159150
v 0.11538313 0.01099470 -0.00980590
v 0.10071632 0.01158311 -0.00866950
v 0.10882138 0.00681470 -0.02106917
v 0.12301799 0.02354344 -0.02051695
v 0.11427803 0.01575830 -0.02115711
v 0.10126144 0.00094087 -0.02002125
v 0.11898909 0.01994957 -0.02105284
v 0.10252119 0.00304319 -0.02072703
v 0.11516713 0.00797008 -0.01069000
v 0.11178304 0.02387601 -0.01745204
v 0.11378421 0.00700394 -0.01972792
v 0.12394710 0.02078708 -0.01878037
v 0.11877601 0.02203848 -0.00978813
v 0.11012584 0.01161088 -0.02114424
v 0.11413127 0.00501891 -0.01288404
v 0.11877584 0.02239198 -0.02093165
v 0.12358004 0.02481136 -0.02050245
v 0.11019590 0.01023884 -0.02118621
v 0.12440093 0.02118157 -0.01233866
v 0.10034810 0.00863055 -0.00805427
v 0.11034636 0.00889221 -0.02112987
v 0.10030225 0.00904789 -0.02047084
v 0.11925951 0.01828427 -0.02080599
v 0.11557457 0.02120194 -0.02081776
v 0.11962211 0.02150066 -0.00980878
v 0.12444443 0.02071911 -0.01767803
v 0.11213727 0.01397550 -0.02114297
v 0.11300712 0.00614579 -0.01009666
v 0.11094665 0.01187553 -0.00864475
v 0.11877003 0.01915759 -0.00963210
v 0.11394877 0.02136640 -0.00966536
v 0.11940070 0.02223373 -0.02095647
v 0.11388046 0.00568592 -0.01094124
v 0.11415936 0.01594290 -0.02115017
v 0.12409360 0.02462258 -0.02029252
v 0.11646283 0.01491103 -0.02090766
v 0.10023006 0.00602554 -0.00784625
v 0.11629731 0.01611159 -0.00925944
v 0.11404692 0.00545631 -0.01135114
v 0.11053050 0.00607205 -0.02056568
v 0.12277891 0.02175600 -0.01069288
v 0.11245389 0.01865982 -0.00927430
v 0.11488806 0.01741838 -0.02110428
v 0.11552765 0.01396799 -0.02096349
v 0.11875522 0.02140395 -0.02102123
v 0.11955550 0.02175902 -0.02099257
v 0.10059794 0.00072181 -0.00862101
v 0.11229978 0.02448224 -0.01688967
v 0.11255295 0.00966641 -0.02087075
v 0.11029671 0.02301118 -0.01610046
v 0.11224724 0.02458224 -0.01625238
v 0.10004581 0.00104153 -0.00840808
v 0.10390513 0.00042752 -0.01849767
v 0.12445072 0.02462957 -0.02013279
v 0.10056201 0.00546234 -0.00781717
v 0.11604035 0.02499197 -0.02016098
v 0.12493977 0.02381887 -0.01153678
v 0.11388377 0.01549099 -0.00900855
v 0.11135634 0.01135180 -0.02119871
v 0.12136673 0.01933460 -0.02022518
v 0.11122360 0.00576346 -0.02021748
v 0.11219037 0.00919092 -0.02086766
v 0.11419891 0.00968040 -0.00959651
v 0.12498770 0.02442637 -0.01140199
v 0.11277974 0.02464817 -0.01760384
v 0.11235340 0.01041064 -0.00880102
v 0.12341376 0.02137038 -0.01973282
v 0.11475102 0.01898744 -0.02095186
v 0.12422688 0.02441652 -0.01095709
v 0.11221367 0.01008891 -0.02102427
v 0.11214264 0.02448298 -0.01416349
v 0.11314302 0.00477055 -0.01161850
v 0.11579649 0.02135632 -0.02082162
v 0.11583664 0.01485146 -0.02103839
v 0.11048164 0.00568207 -0.00909163
v 0.11084313 0.02337913 -0.01655873
v 0.12473794 0.02164594 -0.01246397
v 0.10001789 0.00173622 -0.02033354
v 0.12330714 0.02185168 -0.02000517
v 0.12281307 0.02256829 -0.01056688
v 0.10046648 0.01283485 -0.01940251
v 0.12262865 0.02306268 -0.01045508
v 0.11349645 0.00847747 -0.02027914
v 0.12017500 0.01740542 -0.01046253
v 0.11445637 0.02158147 -0.00967846
v 0.11991494 0.01746294 -0.01027957
v 0.11238001 0.00425605 -0.01727707
v 0.11034152 0.00596398 -0.00894397
v 0.12304890 0.02316536 -0.02045510
v 0.11325818 0.00887284 -0.00937744
v 0.11760715 0.01825267 -0.02111853
v 0.11364955 0.01353415 -0.02118054
v 0.10021219 0.00049758 -0.00868169
v 0.10128612 0.00709078 -0.02075809
v 0.12160058 0.02176847 -0.01020315
v 0.11198313 0.02439072 -0.01444223
v 0.10034481 0.01388392 -0.01807913
v 0.11533205 0.01560316 -0.00914206
v 0.11014563 0.00724698 -0.00863644
v 0.10198589 0.00001995 -0.01937191
v 0.11161627 0.00437381 -0.01069611
v 0.12108952 0.02499994 -0.02072126
v 0.12032753 0.02017464 -0.00992300
v 0.11463362 0.00809894 -0.01029136
v 0.10125294 0.00407477 -0.02078848
v 0.11310556 0.02476620 -0.01268426
v 0.11240019 0.00443917 -0.01141900
v 0.11564956 0.02262034 -0.00981253
v 0.11078899 0.02346663 -0.01471374
v 0.11096945 0.01827810 -0.02064563
v 0.11178045 0.00466099 -0.01046273
v 0.12300750 0.02125271 -0.01096125
v 0.11389811 0.00634761 -0.01926738
v 0.11232965 0.01064113 -0.00877717
v 0.11025607 0.00878561 -0.00853581
v 0.10011042 0.01359801 -0.00987055
v 0.11216645 0.02459765 -0.01501980
v 0.10112896 0.00299428 -0.02066392
v 0.10958339 0.01001334 -0.02116724
v 0.10036429 0.01353257 -0.01864344
v 0.11202414 0.00431941 -0.01820951
v 0.12096138 0.02004881 -0.02062780
v 0.11152936 0.00435794 -0.01882599
v 0.10165207 0.00215090 -0.00820393
v 0.11588191 0.01246072 -0.00965748
v 0.10134938 0.00207908 -0.02046671
v 0.10298485 0.00045200 -0.01936327
v 0.11065842 0.00791611 -0.00867714
v 0.10994224 0.00815715 -0.00851688
v 0.11376131 0.02052961 -0.00952094
v 0.12156640 0.02011352 -0.01041967
v 0.11382843 0.00486188 -0.01588400
v 0.11557249 0.01651979 -0.02115773
v 0.11906146 0.01918600 -0.00967717
v 0.10050084 0.00128328 -0.02017823
v 0.10247430 0.00024298 -0.01939244
v 0.10898719 0.00737218 -0.02111197
v 0.11225137 0.02403147 -0.01796638
v 0.12487395 0.02252939 -0.01900789
v 0.12225730 0.01963745 -0.01976600
v 0.12158401 0.01988947 -0.01047763
v 0.10432283 0.00001806 -0.01516048
v 0.11748205 0.02460601 -0.01011063
v 0.11051810 0.01265544 -0.02110826
v 0.12098492 0.02109658 -0.01005251
v 0.11640334 0.02050667 -0.02094853
v 0.11531790 0.02241067 -0.00979031
v 0.12488122 0.02135312 -0.01760572
v 0.10086829 0.00166528 -0.00827870
v 0.11224700 0.02465371 -0.01557880
v 0.11763020 0.01943303 -0.02109408
v 0.11131358 0.01166198 -0.00866561
v 0.12222173 0.02138285 -0.02042292
v 0.12369604 0.02353468 -0.01083560
v 0.10251310 0.00174260 -0.02033529
v 0.12150856 0.02219839 -0.02077758
v 0.11536159 0.02340762 -0.02044295
v 0.11952073 0.02227611 -0.02095346
v 0.11345090 0.01167832 -0.02102517
v 0.12125764 0.01938419 -0.02029841
v 0.11528720 0.02202407 -0.00972041
v 0.11424840 0.00529910 -0.01221718
v 0.11531342 0.01573254 -0.02117437
v 0.11596404 0.01787493 -0.00929740
v 0.11436543 0.01706365 -0.02109295
v 0.12376062 0.02482749 -0.02044824
v 0.10372469 0.00300729 -0.00820996
v 0.10072765 0.00016345 -0.00892845
v 0.11505818 0.01319434 -0.00920185
v 0.12405399 0.02155928 -0.01166643
v 0.10290897 0.00079480 -0.00897658
v 0.11404037 0.01704434 -0.02106772
v 0.10233847 0.00187795 -0.00836195
v 0.10034672 0.00420971 -0.00782372
v 0.11273991 0.01199050 -0.02116054
v 0.11446923 0.01369771 -0.00902470
v 0.11063171 0.00579515 -0.02043838
v 0.12000933 0.02081030 -0.00984287
v 0.12002186 0.02148742 -0.02097989
v 0.11106351 0.00498273 -0.01981495
v 0.10067978 0.00143524 -0.02024083
v 0.12295843 0.02157043 -0.02011411
v 0.12277751 0.02032762 -0.01970509
v 0.10203791 0.00018335 -0.00914388
v 0.12472048 0.02067685 -0.01607908
v 0.12491630 0.02137887 -0.01316727
v 0.11803797 0.02074160 -0.00963532
v 0.10065041 0.01054664 -0.00839634
v 0.11839084 0.02465737 -0.02064765
v 0.11196652 0.00595849 -0.00964478
v 0.11574037 0.02499611 -0.02003865
v 0.11025124 0.00733263 -0.00865143
v 0.11329498 0.01062544 -0.00903067
v 0.11321104 0.01288805 -0.02117851
v 0.11853442 0.01780126 -0.02091987
v 0.11279379 0.00428014 -0.01502517
v 0.11319269 0.00588214 -0.01945999
v 0.11991483 0.02484806 -0.01017098
v 0.10146834 0.00171331 -0.02034309
v 0.11427550 0.00515492 -0.01312710
v 0.11479452 0.01311428 -0.02097935
v 0.12164280 0.02491224 -0.01034268
v 0.11038473 0.00930037 -0.02115500
v 0.12103767 0.02071585 -0.01010220
v 0.11199739 0.00674646 -0.02032459
v 0.10347784 0.00039672 -0.00955176
v 0.11843982 0.02100133 -0.00967670
v 0.10794002 0.00812315 -0.02112369
v 0.12288421 0.02011262 -0.01131539
v 0.11986942 0.02096777 -0.02100095
v 0.11211202 0.02426168 -0.01713348
v 0.11746298 0.02320796 -0.00987242
v 0.11441514 0.02211231 -0.02053277
v 0.10011754 0.01442737 -0.01629929
v 0.11545702 0.02222398 -0.02066622
v 0.11671179 0.01548019 -0.00938014
v 0.11394512 0.00555603 -0.01831526
v 0.10310874 0.00085275 -0.01967848
v 0.10202639 0.00336628 -0.02076350
v 0.11182841 0.00668566 -0.02036716
v 0.11593666 0.02378719 -0.02046841
v 0.11457847 0.01866037 -0.02096715
v 0.11109151 0.01107141 -0.02119848
v 0.12496743 0.02157708 -0.01299500
v 0.11199155 0.00692437 -0.02038371
v 0.11012438 0.00630101 -0.02074808
v 0.12390608 0.02146462 -0.01157014
v 0.10335128 0.00397655 -0.00803405
v 0.11417859 0.01908568 -0.00933574
v 0.12153037 0.01898883 -0.01998693
v 0.11267352 0.00992610 -0.00894121
v 0.11199368 0.00396341 -0.01651988
v 0.11546320 0.02028133 -0.00949075
v 0.10217568 0.00261062 -0.00813715
v 0.11571996 0.01362153 -0.00934634
v 0.11700209 0.02493513 -0.01022575
v 0.11341371 0.01039608 -0.00910864
v 0.11465101 0.02446012 -0.01977899
v 0.10909021 0.00742139 -0.02110639
v 0.12304541 0.02015717 -0.01936094
v 0.10057545 0.00841647 -0.02057185
v 0.10346683 0.00185826 -0.02028741
v 0.11538554 0.01656615 -0.00917578
v 0.10080085 0.00370564 -0.00788220
v 0.11801990 0.01775614 -0.00952059
v 0.11269709 0.01164760 -0.00879867
v 0.11340363 0.01040254 -0.00910419
v 0.11760198 0.02151407 -0.00968918
v 0.10225568 0.00377823 -0.02082018
v 0.10295271 0.00283726 -0.02067200
v 0.11174631 0.02422842 -0.01468376
v 0.10031224 0.00798836 -0.00800250
v 0.11221951 0.02463342 -0.01546940
v 0.11591848 0.02436770 -0.01024424
v 0.10294804 0.00151966 -0.00859128
v 0.10115100 0.00135703 -0.02020859
v 0.11225509 0.02087208 -0.02037629
v 0.11435826 0.02463641 -0.01945088
v 0.11392926 0.00487008 -0.01487657
v 0.11394808 0.00505447 -0.01722444
v 0.10053180 0.00464420 -0.02077574
v 0.11215410 0.02454559 -0.01460450
v 0.11628002 0.02414246 -0.02045557
v 0.11156796 0.01082259 -0.00866377
v 0.10019535 0.00640146 -0.02071490
v 0.11127481 0.00419775 -0.01877416
v 0.12336401 0.01997328 -0.01192230
v 0.11255295 0.00830999 -0.02056189
v 0.10369896 0.00016962 -0.01002891
v 0.10121533 0.00041917 -0.01975070
v 0.11131987 0.01940526 -0.00945249
v 0.10332272 0.00607090 -0.00798372
v 0.11271319 0.02474614 -0.01717568
v 0.11210564 0.01332889 -0.00878658
v 0.11294432 0.02474564 -0.01292587
v 0.10107564 0.00201222 -0.02044261
v 0.12493662 0.02261061 -0.01898916
v 0.12333380 0.02490963 -0.01059963
v 0.11088329 0.00783251 -0.00874302
v 0.11143405 0.00840665 -0.02089808
v 0.11644659 0.02300236 -0.00985154
v 0.11502460 0.00870856 -0.01969214
v 0.11666769 0.01456488 -0.02077638
v 0.10406687 0.00020245 -0.01759050
v 0.11194886 0.00792198 -0.00905731
v 0.11218336 0.01203427 -0.02119784
v 0.11451662 0.02067829 -0.02076073
v 0.12068335 0.02496255 -0.01025509
v 0.11606010 0.01580881 -0.02111817
v 0.11238317 0.02013435 -0.02055404
v 0.11779953 0.01971645 -0.00952952
v 0.11838856 0.01835790 -0.02103044
v 0.11701583 0.02319876 -0.00987501
v 0.11162030 0.00483651 -0.01939635
v 0.11727530 0.02058089 -0.00958818
v 0.10037643 0.00640140 -0.02072747
v 0.11484788 0.02495689 -0.01110516
v 0.11005977 0.00727743 -0.02096215
v 0.11202858 0.02443264 -0.01449075
v 0.10198140 0.00227610 -0.02053526
v 0.11846480 0.01920395 -0.00959091
v 0.11286966 0.02083417 -0.02050832
v 0.11372256 0.01166785 -0.00901541
v 0.12462810 0.02275442 -0.01165203
v 0.12448383 0.02039867 -0.01403342
v 0.11431868 0.00826691 -0.01006604
v 0.11369417 0.00736069 -0.01001166
v 0.10156820 0.00308273 -0.00800099
v 0.11347947 0.01752422 -0.00917117
v 0.10158472 0.00060413 -0.00881369
v 0.11161938 0.02414351 -0.01574391
v 0.12065062 0.01937038 -0.02058203
v 0.12333009 0.02176599 -0.01995893
v 0.12440563 0.02232658 -0.01937386
v 0.10082948 0.00104382 -0.00850630
v 0.11321243 0.02437492 -0.01867761
v 0.11702995 0.01708163 -0.02110109
v 0.10414203 0.00320171 -0.00823712
v 0.10991140 0.00640497 -0.02081479
v 0.12375616 0.02178855 -0.01130281
v 0.12127805 0.01878436 -0.01066789
v 0.10333005 0.00132592 -0.01998337
v 0.11437791 0.02491845 -0.01144710
v 0.11236191 0.01786126 -0.02085512
v 0.10244672 0.00242895 -0.02058535
v 0.10099132 0.00523452 -0.02080577
v 0.11858138 0.02461379 -0.02067255
v 0.12176688 0.01857244 -0.01110438
v 0.11180813 0.00385665 -0.01242183
v 0.11203520 0.00474283 -0.01056386
v 0.11538618 0.02226851 -0.02065040
v 0.11461178 0.00663512 -0.01102099
v 0.11323518 0.00581918 -0.01040993
v 0.12496217 0.02106114 -0.01627084
v 0.10049988 0.00428115 -0.02076102
v 0.11322360 0.00455882 -0.01270631
v 0.11826978 0.02118059 -0.02102123
v 0.11165944 0.00768104 -0.00899937
v 0.10002358 0.01415056 -0.01100509
v 0.11374025 0.00714092 -0.01010381
v 0.11170158 0.01019843 -0.02111863
v 0.11963169 0.02208206 -0.02096902
v 0.12455887 0.02229405 -0.01919517
v 0.11242054 0.01092076 -0.02110073
v 0.10064636 0.00135468 -0.00835862
v 0.11004257 0.02243651 -0.01738716
v 0.11237423 0.02436256 -0.01308729
v 0.11433752 0.02498449 -0.01910768
v 0.11839945 0.02339200 -0.02080825
v 0.11814189 0.02460081 -0.01008657
v 0.10178935 0.00060808 -0.01980505
v 0.11404425 0.01202233 -0.00905978
v 0.11535720 0.01759097 -0.02112688
v 0.11271729 0.00773694 -0.00942146
v 0.11583145 0.01578857 -0.02113866
v 0.11360138 0.01001777 -0.00925550
v 0.10387022 0.00335474 -0.00816010
v 0.11195061 0.00536672 -0.00995850
v 0.10300346 0.00132866 -0.02005885
v 0.11045917 0.00904161 -0.02113314
v 0.11653881 0.02250080 -0.00977767
v 0.11447561 0.01190367 -0.00921321
v 0.10186515 0.00106647 -0.02006005
v 0.11335424 0.01236515 -0.02112666
v 0.11263764 0.02432475 -0.01802125
v 0.11207494 0.01682274 -0.02092056
v 0.12107426 0.01982381 -0.02053884
v 0.11419291 0.00500732 -0.01379675
v 0.12233672 0.02045406 -0.01077044
v 0.12296809 0.02167080 -0.01081601
v 0.11087277 0.00565244 -0.02029082
v 0.10991409 0.00629107 -0.02078978
v 0.12448556 0.02406913 -0.01998189
v 0.10054503 0.00601097 -0.02075748
v 0.11662163 0.01817115 -0.00934906
v 0.11233576 0.01789950 -0.02084952
v 0.12388823 0.02053037 -0.01860531
v 0.11155634 0.00513961 -0.01970119
v 0.12333732 0.02420352 -0.01062335
v 0.10194642 0.00277879 -0.02065828
v 0.12420433 0.02145833 -0.01903420
v 0.10903340 0.00754256 -0.00841773
v 0.11390356 0.02104008 -0.02063537
v 0.12404425 0.02275557 -0.01120221
v 0.11195349 0.01753250 -0.00913497
v 0.12035706 0.01970566 -0.02076452
v 0.11131206 0.00479481 -0.01952663
v 0.10426670 0.00028062 -0.01065987
v 0.12481959 0.02304210 -0.01936041
v 0.11053359 0.01827354 -0.02057456
v 0.11201967 0.02020079 -0.02047553
v 0.11976705 0.01999731 -0.00980051
v 0.11245809 0.02410204 -0.01815818
v 0.11313978 0.00450528 -0.01585915
v 0.10380022 0.00284008 -0.00825796
v 0.11475786 0.01112266 -0.00948756
v 0.11202200 0.00464967 -0.01888590
v 0.11879838 0.02450493 -0.02070911
v 0.11400081 0.00490831 -0.01343835
v 0.12474127 0.02106932 -0.01743055
v 0.11266336 0.01404660 -0.00885676
v 0.10107714 0.00705021 -0.02074546
v 0.11909025 0.01788461 -0.00980624
v 0.10018867 0.00124808 -0.00834564
v 0.11059960 0.02332078 -0.01568548
v 0.11745935 0.02122880 -0.00965640
v 0.10791655 0.00809597 -0.02112271
v 0.10045077 0.00026809 -0.01969235
v 0.11413816 0.01634827 -0.02112936
v 0.11211100 0.00485798 -0.01911058
v 0.10361925 0.00492746 -0.00801781
v 0.11813383 0.01946145 -0.00955165
v 0.10931620 0.00943816 -0.02116979
v 0.12188506 0.02100423 -0.02047440
v 0.12433076 0.02337592 -0.01986858
v 0.12429321 0.02014748 -0.01661140
v 0.12489582 0.02086776 -0.01532692
v 0.12499686 0.02197825 -0.01259599
v 0.11241893 0.01077258 -0.02108511
v 0.10142603 0.00432334 -0.00787635
v 0.11412561 0.00496955 -0.01415525
v 0.12179191 0.01893108 -0.01976638
v 0.11356841 0.01845658 -0.00925687
v 0.11234884 0.01145841 -0.00875041
v 0.11120376 0.00577847 -0.00935876
v 0.12430900 0.02132463 -0.01877146
v 0.11354635 0.00780558 -0.02006055
v 0.11483695 0.01496854 -0.02117358
v 0.10300372 0.00444159 -0.02089773
v 0.12374210 0.02102407 -0.01165589
v 0.11434853 0.00524904 -0.01346280
v 0.12144556 0.01918544 -0.02013089
v 0.11753520 0.01859986 -0.02111572
v 0.11770956 0.02419244 -0.01002110
v 0.11364747 0.00472375 -0.01507496
v 0.10231232 0.00062451 -0.01973622
v 0.12121351 0.02368538 -0.02083174
v 0.11376933 0.01551818 -0.00900654
v 0.12272463 0.02110509 -0.02008294
v 0.12330818 0.02222687 -0.02012272
v 0.11413415 0.01000336 -0.02046771
v 0.11729977 0.01705580 -0.00940550
v 0.11446162 0.01173114 -0.00923726
v 0.11356045 0.01537132 -0.02114769
v 0.12248287 0.02258134 -0.02056050
v 0.12249112 0.02123032 -0.01065779
v 0.10225253 0.00421129 -0.02084792
v 0.11095885 0.00710695 -0.00888787
v 0.11855252 0.02305459 -0.02085415
v 0.11772349 0.02223747 -0.02087673
f 426 562 130
f 426 174 687
f 12 562 426
f 426 687 12
f 766 625 412
f 400 174 426
f 400 385 174
f 96 404 130
f 130 468 96
f 350 464 174
f 402 412 625
f 385 400 522
f 522 400 274
f 403 385 522
f 522 57 403
f 289 445 468
f 289 130 562
f 289 468 130
f 468 445 741
f 539 696 645
f 404 96 539
f 429 96 468
f 468 696 429
f 562 12 204
f 178 12 687
f 645 696 277
f 696 116 277
f 536 350 174
f 99 385 403
f 403 749 99
f 330 490 617
f 351 87 205
f 426 130 613
f 130 207 613
f 450 364 161
f 161 539 450
f 404 539 161
f 645 464 297
f 464 350 19
f 412 402 626
f 450 2 626
f 602 19 350
f 737 402 625
f 630 166 103
f 103 359 630
f 625 175 774
f 725 774 318
f 318 774 175
f 765 534 653
f 765 572 534
f 682 765 533
f 572 765 682
f 766 572 682
f 682 625 766
f 682 175 625
f 468 741 45
f 486 741 445
f 696 539 606
f 606 429 696
f 687 116 419
f 419 178 687
f 82 204 12
f 645 277 671
f 67 687 174
f 174 464 67
f 67 671 277
f 67 464 645
f 645 671 67
f 454 277 116
f 687 67 454
f 454 67 277
f 350 536 208
f 385 99 600
f 600 99 368
f 174 385 600
f 600 368 174
f 167 536 174
f 174 379 167
f 63 87 351
f 777 205 87
f 777 597 795
f 87 597 777
f 370 613 207
f 464 42 33
f 33 297 464
f 42 297 33
f 550 626 2
f 209 602 42
f 19 602 209
f 209 42 464
f 464 19 209
f 103 166 588
f 309 431 573
f 545 359 103
f 545 169 359
f 166 630 770
f 360 774 725
f 163 175 374
f 163 318 175
f 314 360 725
f 249 572 766
f 154 677 736
f 617 490 736
f 490 154 736
f 664 696 468
f 468 45 664
f 664 45 696
f 713 45 741
f 741 486 713
f 586 606 539
f 429 606 586
f 586 539 96
f 96 429 586
f 12 178 79
f 562 204 212
f 687 454 623
f 623 454 116
f 350 208 584
f 584 602 350
f 42 602 584
f 584 297 42
f 645 297 584
f 536 167 619
f 619 167 379
f 433 379 174
f 81 121 174
f 516 756 330
f 490 330 448
f 330 756 448
f 699 784 448
f 171 503 34
f 34 63 171
f 291 63 34
f 34 503 291
f 795 597 453
f 257 624 426
f 426 613 257
f 648 624 257
f 344 475 735
f 614 117 401
f 401 475 614
f 632 448 401
f 490 235 290
f 554 330 617
f 458 370 207
f 757 375 288
f 288 375 492
f 714 288 724
f 746 161 364
f 315 510 300
f 653 534 300
f 300 510 653
f 315 249 680
f 249 367 680
f 680 367 615
f 412 626 417
f 186 383 402
f 402 206 186
f 114 383 186
f 661 787 252
f 40 186 206
f 774 360 228
f 103 588 228
f 228 360 103
f 531 588 166
f 531 415 588
f 359 573 305
f 305 573 431
f 309 573 568
f 90 545 758
f 380 364 450
f 371 734 105
f 488 531 166
f 415 531 488
f 780 630 359
f 780 661 415
f 787 661 780
f 318 163 253
f 103 360 461
f 360 314 461
f 748 682 764
f 764 682 608
f 608 748 764
f 617 736 214
f 214 510 315
f 214 363 510
f 164 677 154
f 323 212 204
f 313 289 562
f 178 419 273
f 273 419 116
f 273 116 696
f 457 465 82
f 457 82 12
f 12 79 457
f 695 116 687
f 687 623 695
f 695 623 116
f 65 208 536
f 536 619 65
f 65 584 208
f 65 619 379
f 379 76 65
f 65 76 584
f 121 31 478
f 174 121 478
f 478 433 174
f 18 433 478
f 474 624 648
f 648 547 474
f 474 547 624
f 426 624 529
f 624 547 529
f 529 483 426
f 303 516 441
f 756 516 303
f 303 400 426
f 441 400 303
f 426 483 303
f 699 448 618
f 618 448 756
f 176 711 503
f 484 475 401
f 401 448 484
f 720 63 351
f 475 484 566
f 735 475 566
f 566 484 448
f 86 453 597
f 111 257 683
f 683 86 111
f 453 86 683
f 795 453 683
f 613 609 683
f 683 257 613
f 683 777 795
f 683 609 777
f 745 758 117
f 745 344 758
f 490 448 219
f 448 632 219
f 401 117 107
f 117 469 107
f 69 632 401
f 69 469 632
f 401 107 69
f 69 107 469
f 155 154 490
f 155 164 154
f 266 164 155
f 330 554 532
f 381 357 307
f 449 459 554
f 395 400 441
f 658 516 330
f 330 532 658
f 441 516 658
f 658 395 441
f 255 551 343
f 343 551 205
f 485 551 255
f 351 205 485
f 205 551 485
f 492 375 362
f 362 288 492
f 672 210 714
f 714 724 672
f 25 724 151
f 151 458 25
f 370 458 151
f 151 724 370
f 39 724 288
f 613 370 39
f 256 746 697
f 697 421 256
f 798 421 697
f 25 458 38
f 510 363 548
f 548 765 653
f 779 765 548
f 653 510 548
f 16 249 315
f 315 300 16
f 16 300 534
f 534 572 16
f 572 249 16
f 557 357 778
f 778 357 615
f 615 367 778
f 367 518 778
f 652 518 184
f 615 357 319
f 319 680 615
f 357 680 319
f 57 522 287
f 403 377 196
f 620 377 403
f 620 759 301
f 645 584 636
f 636 539 645
f 636 2 450
f 450 539 636
f 575 518 652
f 557 778 575
f 575 778 518
f 721 206 402
f 402 737 721
f 737 763 721
f 258 763 737
f 415 661 258
f 168 258 661
f 763 258 168
f 625 774 729
f 774 228 729
f 359 305 775
f 775 305 431
f 359 169 553
f 169 568 553
f 553 573 359
f 553 568 573
f 735 90 642
f 642 90 758
f 642 344 735
f 758 344 642
f 735 566 528
f 439 781 188
f 506 380 450
f 450 785 506
f 506 785 690
f 278 306 494
f 494 231 278
f 278 231 421
f 380 506 393
f 188 306 393
f 306 278 393
f 364 380 393
f 640 558 44
f 558 785 73
f 131 17 359
f 359 775 131
f 131 775 431
f 660 17 105
f 158 431 309
f 158 332 431
f 359 508 408
f 408 780 359
f 578 770 630
f 630 780 578
f 166 770 578
f 578 488 166
f 415 488 578
f 578 780 415
f 252 787 530
f 530 408 84
f 787 780 530
f 780 408 530
f 715 408 508
f 84 408 715
f 715 508 359
f 359 17 715
f 17 660 715
f 501 40 206
f 84 715 501
f 175 682 496
f 682 748 496
f 374 175 496
f 748 608 261
f 261 608 374
f 374 496 261
f 261 496 748
f 120 469 117
f 374 608 565
f 565 163 374
f 565 253 163
f 318 253 565
f 608 120 565
f 565 120 117
f 565 545 103
f 117 758 565
f 758 545 565
f 283 736 677
f 283 214 736
f 363 214 283
f 617 214 420
f 420 214 315
f 226 486 445
f 445 289 694
f 358 226 694
f 694 226 445
f 204 82 72
f 72 323 204
f 82 323 72
f 621 273 696
f 599 273 465
f 465 457 599
f 273 457 647
f 753 323 82
f 212 323 753
f 465 273 498
f 273 621 498
f 95 76 379
f 379 433 95
f 95 433 18
f 174 368 88
f 733 81 174
f 294 478 31
f 31 560 294
f 483 529 604
f 503 711 604
f 604 547 503
f 604 529 547
f 711 618 91
f 91 618 756
f 711 176 326
f 699 618 326
f 326 618 711
f 326 784 699
f 326 176 784
f 311 528 670
f 670 528 566
f 670 448 784
f 670 566 448
f 21 628 185
f 574 62 388
f 574 21 62
f 169 545 110
f 545 311 110
f 388 568 525
f 525 719 311
f 525 568 169
f 525 574 388
f 720 574 525
f 63 291 598
f 567 597 87
f 87 356 567
f 567 86 597
f 673 291 503
f 648 257 673
f 673 598 291
f 673 547 648
f 503 547 673
f 117 614 471
f 471 745 117
f 344 745 471
f 475 344 471
f 471 614 475
f 162 290 235
f 162 285 290
f 237 74 94
f 70 333 138
f 138 333 603
f 706 74 459
f 459 272 706
f 706 272 381
f 276 554 617
f 617 449 276
f 276 449 554
f 148 576 705
f 170 353 511
f 369 128 351
f 631 224 189
f 239 224 631
f 631 131 332
f 543 734 371
f 371 631 543
f 609 674 325
f 61 375 153
f 61 362 375
f 215 325 674
f 306 701 320
f 511 353 264
f 757 701 264
f 50 458 207
f 370 724 589
f 589 39 370
f 724 39 589
f 22 746 256
f 256 563 22
f 130 404 15
f 404 115 15
f 494 38 372
f 256 421 372
f 372 563 256
f 766 184 223
f 293 518 367
f 293 184 518
f 367 223 293
f 293 223 184
f 191 620 301
f 377 620 191
f 592 102 576
f 576 287 592
f 592 287 522
f 592 522 274
f 274 102 592
f 768 287 576
f 576 759 768
f 403 57 768
f 57 287 768
f 622 749 403
f 403 196 622
f 93 327 361
f 361 98 93
f 93 636 546
f 2 636 93
f 93 98 2
f 141 152 221
f 550 152 141
f 221 626 141
f 626 550 141
f 46 152 373
f 373 98 361
f 373 152 550
f 373 550 2
f 2 98 373
f 412 732 405
f 652 184 405
f 766 412 405
f 405 184 766
f 557 575 668
f 668 575 652
f 195 452 357
f 54 417 626
f 626 727 54
f 376 136 688
f 688 136 307
f 307 357 688
f 357 452 688
f 526 152 46
f 221 152 526
f 206 721 216
f 216 721 763
f 763 168 216
f 427 661 252
f 427 168 661
f 252 216 427
f 427 216 168
f 625 729 487
f 487 737 625
f 415 258 662
f 588 415 662
f 662 228 588
f 662 729 228
f 662 258 737
f 737 487 662
f 545 90 726
f 726 311 545
f 726 528 311
f 792 375 757
f 190 439 188
f 192 439 511
f 781 439 192
f 133 421 798
f 133 278 421
f 188 393 26
f 26 506 690
f 26 393 506
f 364 393 685
f 685 393 278
f 278 133 685
f 281 715 470
f 558 32 220
f 220 44 558
f 137 104 32
f 137 32 558
f 558 73 137
f 690 785 394
f 394 26 690
f 188 26 394
f 527 558 188
f 527 785 558
f 527 321 785
f 431 332 789
f 789 131 431
f 332 131 789
f 616 158 309
f 239 158 616
f 332 158 304
f 304 158 239
f 304 631 332
f 239 631 304
f 17 131 211
f 211 631 371
f 105 17 211
f 371 105 211
f 788 501 206
f 252 530 788
f 788 530 84
f 84 501 788
f 788 216 252
f 206 216 788
f 245 281 40
f 715 281 245
f 248 120 608
f 632 469 340
f 469 120 340
f 340 219 632
f 580 742 235
f 580 235 490
f 490 219 580
f 725 318 342
f 318 565 342
f 342 314 725
f 342 461 314
f 103 461 342
f 342 565 103
f 363 283 684
f 53 363 684
f 677 164 684
f 684 283 677
f 684 266 53
f 684 164 266
f 315 449 312
f 312 449 617
f 289 313 329
f 329 694 289
f 358 694 329
f 696 45 413
f 413 621 696
f 45 713 413
f 413 713 486
f 358 241 413
f 241 621 413
f 486 226 413
f 413 226 358
f 610 457 273
f 273 599 610
f 610 599 457
f 178 273 444
f 273 647 444
f 621 559 424
f 82 465 601
f 601 498 82
f 465 498 601
f 127 753 82
f 82 498 127
f 659 498 132
f 132 753 659
f 456 95 18
f 584 698 177
f 177 698 546
f 177 636 584
f 546 636 177
f 560 698 782
f 129 99 749
f 749 622 129
f 129 622 196
f 361 327 596
f 327 282 596
f 100 88 368
f 368 99 100
f 99 124 100
f 336 733 174
f 174 88 336
f 336 88 14
f 121 81 390
f 81 733 390
f 390 31 121
f 390 55 31
f 31 55 259
f 55 390 259
f 18 478 509
f 478 294 509
f 354 604 711
f 711 91 354
f 354 91 303
f 354 303 483
f 483 604 354
f 756 303 5
f 5 91 756
f 303 91 5
f 784 176 707
f 707 670 784
f 113 179 271
f 271 628 113
f 113 628 179
f 189 224 4
f 4 185 189
f 4 224 239
f 239 616 4
f 309 185 4
f 4 616 309
f 189 185 410
f 410 185 628
f 410 628 271
f 222 185 309
f 309 568 222
f 222 568 388
f 62 21 233
f 21 185 233
f 185 222 233
f 388 62 233
f 233 222 388
f 21 574 667
f 667 574 720
f 667 720 351
f 279 628 21
f 179 628 279
f 169 110 409
f 409 525 169
f 719 525 409
f 311 719 409
f 409 110 311
f 311 670 590
f 590 525 311
f 670 707 590
f 720 525 590
f 590 707 176
f 590 171 63
f 63 720 590
f 503 171 590
f 590 176 503
f 111 86 466
f 86 567 466
f 466 257 111
f 356 673 728
f 106 673 356
f 598 673 106
f 63 598 106
f 87 63 106
f 106 356 87
f 290 285 783
f 155 769 747
f 53 266 747
f 266 155 747
f 747 363 53
f 37 532 554
f 554 459 37
f 459 74 37
f 74 237 37
f 532 37 519
f 519 37 237
f 519 138 603
f 519 237 94
f 94 138 519
f 603 658 519
f 519 658 532
f 381 272 251
f 334 449 315
f 334 272 449
f 459 449 678
f 678 272 459
f 449 272 678
f 74 706 123
f 666 333 148
f 148 705 666
f 666 705 333
f 576 102 656
f 656 102 274
f 400 395 663
f 400 135 752
f 274 400 752
f 752 497 274
f 13 68 767
f 634 170 511
f 343 170 634
f 511 776 634
f 776 440 634
f 351 485 587
f 587 369 351
f 485 369 587
f 708 485 255
f 255 369 708
f 708 369 485
f 156 767 179
f 156 689 767
f 255 689 156
f 156 369 255
f 179 128 156
f 128 369 156
f 507 13 422
f 68 13 507
f 143 543 631
f 734 543 198
f 198 220 734
f 44 220 198
f 640 44 198
f 198 543 640
f 384 392 28
f 384 631 189
f 189 392 384
f 777 609 280
f 609 325 280
f 613 39 238
f 238 39 288
f 288 362 750
f 750 238 288
f 338 238 750
f 777 215 755
f 205 777 755
f 29 215 777
f 325 215 29
f 777 280 29
f 29 280 325
f 234 215 674
f 234 236 215
f 48 701 757
f 48 513 701
f 757 288 48
f 701 513 391
f 187 701 306
f 187 264 701
f 382 264 353
f 353 170 382
f 170 407 382
f 757 264 382
f 382 792 757
f 458 50 9
f 537 22 115
f 404 161 537
f 537 115 404
f 145 38 458
f 766 223 425
f 425 223 367
f 425 249 766
f 425 367 249
f 730 576 148
f 730 759 576
f 301 759 730
f 331 730 463
f 377 191 331
f 331 191 301
f 301 730 331
f 260 560 31
f 31 282 260
f 260 93 546
f 260 282 327
f 327 93 260
f 546 698 260
f 260 698 560
f 639 373 27
f 27 373 361
f 146 7 557
f 557 668 146
f 146 668 460
f 348 405 732
f 732 668 348
f 652 405 348
f 348 668 652
f 557 7 676
f 7 195 676
f 676 357 557
f 676 195 357
f 284 502 308
f 417 502 284
f 460 668 284
f 284 668 732
f 412 417 284
f 284 732 412
f 479 489 389
f 389 284 308
f 718 284 389
f 681 706 381
f 681 381 307
f 307 136 681
f 681 123 706
f 681 136 376
f 376 123 681
f 430 54 727
f 430 727 626
f 144 626 221
f 221 526 144
f 691 487 729
f 729 662 691
f 691 662 487
f 316 90 735
f 735 528 316
f 797 133 798
f 797 685 133
f 798 697 797
f 364 685 797
f 797 746 364
f 797 697 746
f 114 186 437
f 186 40 437
f 104 137 365
f 365 137 73
f 365 73 785
f 365 785 450
f 201 281 470
f 470 715 201
f 201 715 660
f 104 365 75
f 114 352 75
f 32 104 504
f 504 220 32
f 785 321 324
f 324 394 785
f 321 527 324
f 188 394 324
f 324 527 188
f 131 631 197
f 197 211 131
f 631 211 197
f 762 501 715
f 715 245 762
f 244 248 608
f 244 682 533
f 244 608 682
f 533 765 244
f 765 23 244
f 219 340 435
f 435 340 120
f 435 580 219
f 248 580 435
f 149 420 315
f 315 312 149
f 455 312 617
f 420 149 455
f 455 149 312
f 41 241 358
f 358 329 41
f 329 559 41
f 36 313 562
f 562 424 36
f 36 424 559
f 36 329 313
f 36 559 329
f 621 424 396
f 398 424 562
f 76 95 495
f 495 456 76
f 95 456 495
f 491 782 698
f 584 76 491
f 491 698 584
f 18 782 491
f 491 456 18
f 76 456 491
f 560 782 641
f 723 129 591
f 99 129 406
f 200 723 639
f 200 129 723
f 754 596 243
f 243 643 754
f 31 581 243
f 243 282 31
f 243 596 282
f 268 35 639
f 639 227 268
f 422 392 549
f 549 507 422
f 21 667 140
f 140 667 646
f 140 279 21
f 646 279 140
f 322 667 351
f 646 667 322
f 351 128 322
f 322 128 179
f 179 279 322
f 322 279 646
f 356 728 339
f 257 466 339
f 339 567 356
f 339 466 567
f 290 783 544
f 490 290 544
f 544 155 490
f 544 769 155
f 544 783 769
f 363 747 716
f 716 747 769
f 716 548 363
f 716 244 23
f 769 244 716
f 779 548 716
f 716 23 765
f 716 765 779
f 381 251 199
f 199 680 357
f 357 381 199
f 315 680 199
f 387 334 315
f 251 334 387
f 315 199 387
f 387 199 251
f 182 251 272
f 272 334 182
f 182 334 251
f 345 705 576
f 576 656 345
f 345 656 274
f 109 345 274
f 582 345 109
f 582 109 246
f 71 658 603
f 603 135 71
f 395 658 71
f 71 663 395
f 71 135 400
f 400 663 71
f 693 752 135
f 571 61 153
f 571 407 170
f 571 170 343
f 68 507 418
f 767 68 418
f 271 179 418
f 179 767 418
f 28 392 92
f 92 143 28
f 92 392 422
f 543 143 92
f 640 543 92
f 92 173 640
f 202 143 631
f 631 384 202
f 362 338 442
f 442 750 362
f 338 750 442
f 225 338 362
f 362 236 225
f 225 238 338
f 556 215 118
f 556 755 215
f 556 118 205
f 205 755 556
f 722 674 609
f 722 234 674
f 722 609 613
f 236 234 722
f 139 288 714
f 139 48 288
f 714 210 139
f 511 264 481
f 264 187 481
f 481 192 511
f 781 192 481
f 481 187 781
f 499 187 306
f 781 187 499
f 499 306 188
f 188 781 499
f 738 50 207
f 207 9 738
f 738 9 50
f 746 22 675
f 22 537 675
f 161 746 675
f 675 537 161
f 635 372 38
f 38 145 635
f 563 372 635
f 635 145 563
f 731 145 458
f 563 145 731
f 477 730 148
f 463 730 477
f 500 196 377
f 377 331 500
f 500 331 612
f 500 129 196
f 612 772 500
f 500 772 129
f 612 331 267
f 267 772 612
f 524 66 263
f 759 620 20
f 20 768 759
f 403 768 20
f 639 535 230
f 230 643 639
f 754 643 230
f 639 27 555
f 555 27 361
f 555 535 639
f 717 489 7
f 7 146 717
f 717 49 489
f 717 146 460
f 262 6 80
f 669 195 7
f 669 432 195
f 669 85 432
f 7 489 669
f 489 85 669
f 489 49 794
f 794 389 489
f 58 296 564
f 564 296 593
f 740 526 482
f 80 6 160
f 160 489 479
f 160 85 489
f 564 583 317
f 317 583 80
f 317 58 564
f 54 430 232
f 346 726 90
f 90 316 346
f 528 726 346
f 346 316 528
f 439 190 355
f 355 157 439
f 188 558 355
f 355 190 188
f 203 157 355
f 355 558 640
f 640 203 355
f 281 201 134
f 104 75 134
f 134 201 734
f 734 220 134
f 134 504 104
f 220 504 134
f 114 75 514
f 514 383 114
f 402 383 514
f 514 626 402
f 450 626 514
f 514 365 450
f 742 580 159
f 52 159 480
f 742 159 52
f 52 783 285
f 52 480 783
f 217 244 769
f 248 244 217
f 120 248 218
f 218 435 120
f 248 435 218
f 617 420 30
f 30 455 617
f 420 455 30
f 424 398 399
f 399 396 424
f 621 396 399
f 399 498 621
f 399 132 498
f 562 212 97
f 97 398 562
f 212 753 97
f 753 398 97
f 629 509 294
f 18 509 629
f 629 782 18
f 629 641 782
f 786 124 99
f 99 406 786
f 639 35 512
f 512 200 639
f 639 760 78
f 46 373 78
f 78 373 639
f 46 78 378
f 378 526 46
f 482 526 378
f 639 723 337
f 337 760 639
f 723 263 337
f 337 263 760
f 292 147 639
f 581 147 292
f 59 227 639
f 639 147 59
f 577 147 581
f 577 259 14
f 577 581 31
f 31 259 577
f 88 100 142
f 142 268 227
f 397 549 392
f 397 392 189
f 189 410 397
f 397 418 549
f 397 410 271
f 271 418 397
f 257 339 43
f 43 339 728
f 43 673 257
f 43 728 673
f 579 686 585
f 705 345 3
f 3 345 582
f 582 246 3
f 521 693 135
f 497 752 521
f 752 693 521
f 472 246 109
f 274 497 472
f 472 109 274
f 497 521 472
f 472 521 246
f 422 13 24
f 24 92 422
f 173 92 24
f 767 689 692
f 229 13 767
f 229 250 13
f 767 692 229
f 183 689 255
f 255 343 183
f 703 183 776
f 511 439 703
f 703 776 511
f 118 215 761
f 215 236 761
f 126 225 236
f 513 48 520
f 48 139 520
f 520 139 210
f 101 391 513
f 101 570 391
f 391 570 416
f 416 570 38
f 416 38 494
f 115 22 611
f 22 328 611
f 679 22 563
f 458 9 172
f 172 731 458
f 172 328 22
f 22 679 172
f 563 731 172
f 172 679 563
f 83 331 463
f 83 267 331
f 463 477 83
f 772 267 594
f 524 263 194
f 194 263 772
f 194 594 524
f 772 594 194
f 723 591 446
f 446 263 723
f 446 591 129
f 772 263 446
f 129 772 446
f 66 760 386
f 386 263 66
f 760 263 386
f 119 620 403
f 403 20 119
f 119 20 620
f 254 717 460
f 49 717 254
f 718 49 254
f 460 284 254
f 254 284 718
f 654 688 452
f 6 349 265
f 349 654 265
f 265 654 452
f 452 195 265
f 655 349 411
f 655 122 688
f 688 654 655
f 655 654 349
f 6 262 473
f 411 349 473
f 473 349 6
f 479 213 552
f 552 232 302
f 213 232 552
f 482 593 341
f 341 593 296
f 341 740 482
f 526 740 493
f 493 144 526
f 493 302 626
f 626 144 493
f 80 160 751
f 751 317 80
f 58 317 751
f 751 160 479
f 479 552 751
f 302 232 443
f 443 232 430
f 626 302 443
f 443 430 626
f 428 232 213
f 428 389 308
f 54 232 428
f 479 389 428
f 428 213 479
f 308 502 428
f 417 54 428
f 428 502 417
f 793 134 75
f 793 437 40
f 40 281 793
f 281 134 793
f 793 75 352
f 793 352 114
f 114 437 793
f 181 75 365
f 365 514 181
f 181 514 75
f 769 783 607
f 607 217 769
f 480 217 607
f 783 480 607
f 298 398 753
f 298 399 398
f 709 629 294
f 641 629 709
f 709 294 560
f 560 641 709
f 482 378 790
f 790 593 482
f 790 66 564
f 564 593 790
f 247 760 66
f 66 790 247
f 247 790 378
f 268 142 657
f 14 88 771
f 88 142 771
f 771 577 14
f 376 688 538
f 688 122 538
f 538 123 376
f 541 710 583
f 541 583 564
f 651 579 700
f 579 541 700
f 333 705 515
f 705 3 515
f 743 3 246
f 333 515 743
f 743 515 3
f 603 333 743
f 743 135 603
f 743 521 135
f 246 521 743
f 637 24 13
f 13 250 637
f 439 665 637
f 637 703 439
f 250 183 637
f 183 703 637
f 47 665 439
f 640 173 47
f 173 24 47
f 47 637 665
f 24 637 47
f 439 157 47
f 47 203 640
f 47 157 203
f 712 692 689
f 689 183 712
f 712 183 250
f 542 183 343
f 542 440 776
f 467 236 362
f 467 761 236
f 205 118 242
f 118 761 242
f 236 722 644
f 644 126 236
f 644 722 613
f 225 126 644
f 77 416 494
f 180 15 115
f 130 15 605
f 650 172 9
f 267 83 335
f 85 160 286
f 286 160 6
f 6 265 286
f 432 85 434
f 195 432 434
f 434 265 195
f 85 286 434
f 434 286 265
f 60 262 80
f 60 269 262
f 702 655 411
f 122 655 702
f 702 193 122
f 411 473 744
f 744 269 411
f 744 473 262
f 262 269 744
f 296 58 10
f 58 751 10
f 10 751 552
f 753 132 125
f 125 298 753
f 760 247 649
f 649 247 378
f 649 78 760
f 649 378 78
f 165 657 142
f 165 100 124
f 165 142 100
f 74 123 773
f 773 538 122
f 447 796 112
f 686 579 112
f 112 796 686
f 595 579 585
f 595 541 579
f 517 541 564
f 564 700 517
f 517 700 541
f 776 183 523
f 183 542 523
f 362 61 56
f 56 467 362
f 64 242 761
f 64 571 343
f 64 343 205
f 205 242 64
f 150 77 494
f 494 306 150
f 306 320 150
f 15 180 275
f 275 180 11
f 275 605 15
f 11 605 275
f 11 180 505
f 505 650 11
f 328 172 561
f 172 650 561
f 130 605 295
f 295 605 11
f 347 9 207
f 207 650 347
f 89 477 148
f 148 335 89
f 89 83 477
f 89 335 83
f 414 579 651
f 585 193 704
f 704 193 269
f 686 122 633
f 122 193 633
f 585 686 633
f 633 193 585
f 80 583 791
f 791 60 80
f 583 710 791
f 585 704 791
f 269 60 791
f 791 704 269
f 411 269 438
f 438 702 411
f 269 193 438
f 193 702 438
f 296 10 451
f 451 341 296
f 740 341 451
f 451 493 740
f 302 493 451
f 451 552 302
f 451 10 552
f 123 538 108
f 108 773 123
f 538 773 108
f 436 122 686
f 686 796 436
f 148 333 436
f 436 447 148
f 436 796 447
f 447 112 540
f 1 542 776
f 776 523 1
f 1 523 542
f 467 56 366
f 761 467 366
f 61 571 366
f 366 56 61
f 571 64 366
f 366 64 761
f 240 180 115
f 240 505 180
f 115 611 240
f 611 505 240
f 569 611 328
f 569 505 611
f 310 505 328
f 650 505 310
f 328 561 310
f 310 561 650
f 11 650 739
f 739 295 11
f 130 295 739
f 739 207 130
f 739 650 207
f 638 650 9
f 9 347 638
f 638 347 650
f 299 112 579
f 579 414 299
f 462 335 148
f 148 414 462
f 524 594 462
f 462 594 267
f 267 335 462
f 564 66 462
f 462 66 524
f 270 700 564
f 564 462 270
f 270 462 414
f 8 773 122
f 122 436 8
f 423 333 70
f 423 436 333
f 423 8 436
f 423 138 94
f 70 138 423
f 94 74 423
f 74 773 423
f 773 8 423
f 328 505 51
f 51 569 328
f 505 569 51
f 148 447 476
f 447 540 476
f 476 414 148
f 476 299 414
f 112 299 627
f 299 476 627
f 627 540 112
f 627 476 540
f 421 231 372
f 372 231 494
f 444 457 79
f 444 79 178
f 444 647 457
f 127 498 659
f 659 753 127
f 259 390 733
f 259 336 14
f 733 336 259
f 201 660 105
f 201 105 734
f 762 245 40
f 40 501 762
f 41 559 621
f 41 621 241
f 792 382 571
f 153 375 571
f 375 792 571
f 571 382 407
f 507 549 418
f 202 384 28
f 28 143 202
f 754 230 555
f 555 596 754
f 361 596 555
f 555 230 535
f 718 389 794
f 794 49 718
f 52 162 235
f 235 742 52
f 285 162 52
f 217 580 248
f 217 159 580
f 480 159 217
f 639 643 292
f 292 243 581
f 643 243 292
f 101 724 25
f 210 672 101
f 101 672 724
f 25 38 101
f 513 520 101
f 38 570 101
f 101 520 210
f 771 59 147
f 227 59 771
f 147 577 771
f 771 142 227
f 712 229 692
f 250 229 712
f 542 634 440
f 343 634 542
f 238 225 644
f 613 238 644
f 399 298 125
f 132 399 125
f 129 200 165
f 165 512 35
f 35 268 165
f 124 786 165
f 165 406 129
f 165 786 406
f 200 512 165
f 268 657 165
f 701 391 150
f 150 320 701
f 391 416 150
f 416 77 150
f 710 541 791
f 791 595 585
f 541 595 791
f 270 414 651
f 651 700 270

