# https://github.com/mikedh/trimesh
v -0.02552751 -0.00056630 0.02129302
v -0.04405435 -0.02022652 0.00603892
v -0.03873925 -0.01847225 0.01284658
v -0.04022431 -0.02329350 0.00351556
v -0.04936473 -0.01152634 0.01073318
v -0.04761554 -0.01811693 0.00595097
v -0.04735101 -0.01865077 0.00547751
v -0.03598778 -0.01186068 0.01895372
v -0.03941966 -0.02482017 0.00036180
v -0.03436843 -0.02192217 0.00985009
v -0.03113437 -0.02423634 0.00720713
v -0.02649699 -0.00279656 0.02142571
v -0.03396473 -0.01000413 0.01994649
v -0.04414308 -0.00083378 0.01748216
v -0.03690217 -0.01610815 0.01625773
v -0.04004555 -0.01331051 0.01757404
v -0.04054213 -0.01997045 0.00951584
v -0.04483089 -0.02263068 0.00002223
v -0.04857737 -0.01606040 0.00780234
v -0.04393137 -0.00320608 0.01766714
v -0.03596174 -0.02496584 0.00274642
v -0.03372017 -0.00408570 0.02054457
v -0.04875851 -0.01447922 0.00921818
v -0.04859157 -0.01656694 0.00011029
v -0.02505580 -0.01090793 0.01962147
v -0.04343808 -0.01545981 0.01372183
v -0.02773982 -0.02260812 0.01089630
v -0.02906179 -0.00877011 0.02075433
v -0.03300753 -0.01186023 0.01951283
v -0.04058228 -0.00800346 0.01880947
v -0.04549920 -0.00464872 0.01622423
v -0.03301323 -0.00672792 0.02049809
v -0.03895132 -0.01934717 0.01145380
v -0.03832951 -0.01580324 0.01634951
v -0.04679725 -0.02129411 0.00059187
v -0.04808511 -0.00048261 0.01403284
v -0.04121805 -0.00089615 0.01894822
v -0.04335343 -0.00621999 0.01789233
v -0.04718668 -0.01315151 0.01219371
v -0.03360580 -0.02150036 0.01080297
v -0.04247114 -0.00442815 0.01853001
v -0.02522251 -0.01402947 0.00053686
v -0.04703169 -0.00026474 0.01503513
v -0.02826607 -0.02428085 0.00816376
v -0.03290122 -0.00614821 0.02056363
v -0.03718265 -0.02187391 0.00852214
v -0.03536883 -0.02435226 0.00457120
v -0.03036321 -0.02339820 0.00905920
v -0.03890089 -0.01538830 0.01655283
v -0.02555715 -0.00515742 0.02136216
v -0.04288358 -0.01741493 0.01176039
v -0.02698862 -0.02054219 0.01323160
v -0.03642948 -0.00994405 0.01943765
v -0.04886626 -0.00174339 0.01324427
v -0.03994815 -0.01292618 0.01775828
v -0.04993545 -0.00550051 0.00737442
v -0.04296306 -0.00069747 0.01839337
v -0.03562026 -0.01869845 0.01385917
v -0.04156991 -0.00416716 0.01883112
v -0.03394678 -0.00977466 0.02002050
v -0.03734895 -0.02131894 0.00929914
v -0.03312207 -0.02371714 0.00731176
v -0.04595804 -0.00487187 0.01581700
v -0.04989295 -0.01064111 0.01056803
v -0.04295953 -0.02339229 0.00048778
v -0.04643014 -0.00005217 0.01554465
v -0.02833539 -0.01388213 0.01878365
v -0.03305038 -0.02271032 0.00923905
v -0.03936521 -0.01466999 0.01698205
v -0.04754084 -0.00759234 0.01410152
v -0.02534418 -0.01565661 0.01764433
v -0.03472979 -0.01852243 0.01423080
v -0.04235385 -0.00222985 0.01867121
v -0.04324096 -0.01553613 0.01379050
v -0.03095988 -0.01913711 0.01414911
v -0.02508979 -0.00995348 0.00989541
v -0.04408835 -0.01360994 0.01479372
v -0.03385369 -0.01991949 0.01288639
v -0.03371374 -0.02299207 0.00842097
v -0.03135661 -0.00956062 0.02037310
v -0.04835405 -0.01366592 0.01039119
v -0.03910297 -0.02010859 0.01018336
v -0.04711016 -0.01579299 0.00987574
v -0.04439383 -0.00115538 0.01727569
v -0.04443860 -0.02101050 0.00431268
v -0.03665510 -0.02308847 0.00647742
v -0.03584823 -0.01219936 0.01885541
v -0.03071807 -0.01498097 0.01793271
v -0.03247094 -0.01393144 0.01852228
v -0.02510002 -0.02344299 0.00273487
v -0.03403865 -0.01115216 0.01957924
v -0.03573016 -0.02076689 0.01092061
v -0.04008372 -0.01672900 0.01459961
v -0.03154541 -0.02434745 0.00680619
v -0.04900316 -0.01686818 0.00603526
v -0.03061699 -0.01693706 0.01631413
v -0.04484371 -0.02005976 0.00563768
v -0.03810996 -0.01159526 0.01859035
v -0.02909870 -0.00038404 0.02113782
v -0.02588682 -0.02346175 0.01010979
v -0.04974427 -0.01499339 0.00736399
v -0.03576641 -0.01953840 0.01266981
v -0.03484224 -0.01267982 0.01881207
v -0.04916495 -0.00214226 0.01291262
v -0.03113734 -0.01570959 0.01736845
v -0.03704621 -0.01361812 0.01796529
v -0.03542803 -0.01860936 0.01401686
v -0.03780756 -0.01227071 0.01844676
v -0.04456114 -0.01506598 0.01325268
v -0.02717204 -0.01153052 0.02012279
v -0.04050220 -0.01634421 0.01478521
v -0.03999095 -0.02466810 0.00020119
v -0.04423871 -0.00646581 0.01712691
v -0.03347836 -0.01324841 0.01878324
v -0.04200738 -0.01992122 0.00836251
v -0.03484685 -0.00311283 0.02036777
v -0.03402543 -0.02029884 0.01233481
v -0.04311654 -0.01254570 0.01623768
v -0.03672974 -0.02081854 0.01036249
v -0.04491771 -0.01039037 0.01579516
v -0.04241801 -0.01092905 0.01758742
v -0.02534152 -0.00124404 0.01394718
v -0.04690745 -0.01643469 0.00922374
v -0.04697215 -0.00438511 0.01499404
v -0.04677968 -0.00720185 0.01488007
v -0.02788603 -0.00111792 0.02127965
v -0.04522149 -0.01189570 0.01499572
v -0.04722330 -0.01683762 0.00832357
v -0.04003839 -0.00332379 0.01920440
v -0.04094156 -0.00724113 0.01880392
v -0.03092518 -0.02041065 0.01287153
v -0.03872995 -0.01563286 0.01640859
v -0.04868814 -0.01900117 0.00284194
v -0.02737280 -0.01755527 0.01597339
v -0.04575068 -0.00262098 0.01614013
v -0.04447513 -0.01239588 0.01531266
v -0.02504675 -0.01638301 0.01706016
v -0.03579703 -0.02222508 0.00865919
v -0.04015780 -0.02352597 0.00303294
v -0.03991250 -0.01189667 0.01811973
v -0.04340171 -0.02153633 0.00423173
v -0.03575638 -0.01053698 0.01940772
v -0.04224559 -0.01491727 0.01522323
v -0.04873110 -0.00107759 0.01341007
v -0.04673571 -0.01340685 0.01243626
v -0.04244076 -0.00167760 0.01863243
v -0.03508622 -0.00550144 0.02022241
v -0.02572979 -0.00279730 0.02150329
v -0.04204414 -0.01740517 0.01244046
v -0.04363666 -0.01370052 0.01508913
v -0.02794926 -0.02461392 0.00758678
v -0.04184413 -0.02222454 0.00428974
v -0.04719696 -0.00201561 0.01490717
v -0.03403241 -0.00904364 0.02009788
v -0.02612857 -0.01518233 0.01797961
v -0.04996523 -0.01750312 0.00339850
v -0.04118435 -0.02323039 0.00279933
v -0.03369590 -0.00933922 0.02013313
v -0.04880501 -0.01950467 0.00163149
v -0.03274607 -0.00240107 0.02070317
v -0.04804755 -0.01689282 0.00723876
v -0.04431530 -0.01350717 0.01465879
v -0.04558915 -0.01149827 0.01482121
v -0.04833225 -0.00664720 0.01339551
v -0.04704194 -0.01898440 0.00522987
v -0.04219063 -0.01062890 0.01786133
v -0.03462072 -0.01335855 0.01852720
v -0.03072487 -0.02355348 0.00011624
v -0.04788219 -0.01496074 0.00982857
v -0.04995245 -0.01257435 0.00341028
v -0.04045725 -0.01102182 0.01827228
v -0.03287051 -0.01145981 0.01967810
v -0.02547451 -0.00605384 0.02116609
v -0.04204620 -0.00708804 0.01855619
v -0.03477740 -0.02447343 0.00464235
v -0.03046365 -0.00666799 0.02081002
v -0.03135085 -0.02474919 0.00590071
v -0.03418801 -0.00709972 0.02029204
v -0.04582934 -0.00303561 0.01607070
v -0.04171613 -0.01974413 0.00892951
v -0.04170868 -0.01209764 0.01746396
v -0.02691438 -0.02354031 0.00987720
v -0.04155092 -0.02333943 0.00215392
v -0.02796242 -0.02350849 0.00966761
v -0.04353683 -0.00390107 0.01792417
v -0.03850783 -0.02392821 0.00345320
v -0.04536526 -0.02189400 0.00113278
v -0.03097019 -0.01279254 0.01926306
v -0.03934004 -0.00385856 0.01934203
v -0.04210060 -0.01199809 0.01725314
v -0.04006521 -0.01252720 0.01789509
v -0.03087350 -0.01510068 0.01783828
v -0.04229053 -0.00999314 0.01797237
v -0.04988516 -0.00059036 0.00772863
v -0.02652371 -0.02291358 0.01067591
v -0.02910570 -0.01925059 0.01428507
v -0.03949219 -0.02458115 0.00092018
v -0.04444579 -0.01070049 0.01612738
v -0.04945230 -0.00705199 0.01203869
v -0.03173277 -0.02326152 0.00879648
v -0.02736656 -0.02499381 0.00694983
v -0.04860400 -0.00008934 0.01351045
v -0.03173426 -0.02223714 0.01043994
v -0.04742492 -0.00385896 0.01461058
v -0.03509318 -0.00027842 0.02031731
v -0.03903082 -0.01264944 0.01805293
v -0.04925880 -0.01881148 0.00223796
v -0.02905700 -0.02305518 0.01002295
v -0.02649999 -0.00980622 0.00028601
v -0.04906237 -0.01579788 0.00064474
v -0.04392818 -0.01871095 0.00882849
v -0.04310908 -0.00405934 0.01823557
v -0.02633925 -0.00362571 0.02141770
v -0.03932341 -0.01437921 0.01715793
v -0.03446233 -0.00949499 0.01995246
v -0.02541822 -0.00086746 0.01397268
v -0.03372976 -0.00194486 0.02058594
v -0.03765348 -0.02476138 0.00211426
v -0.03942369 -0.01655308 0.01518470
v -0.03975306 -0.00359691 0.01926049
v -0.03536667 -0.00001889 0.01781451
v -0.03507471 -0.02152872 0.01009941
v -0.02724975 -0.02394674 0.00913793
v -0.04816670 -0.00637783 0.01360175
v -0.02739644 -0.00319874 0.02131096
v -0.03279646 -0.02329485 0.00826354
v -0.04524317 -0.01717084 0.00996326
v -0.03329761 -0.00017707 0.02063745
v -0.03981902 -0.01494368 0.01664474
v -0.03906171 -0.01709807 0.01460262
v -0.02702256 -0.02484647 0.00742968
v -0.04451911 -0.02058280 0.00500220
v -0.02848094 -0.02460033 0.00741830
v -0.02535383 -0.02252712 0.01122075
v -0.02943410 -0.00141967 0.02109728
v -0.02520781 -0.02229803 0.01149023
v -0.03016793 -0.02212484 0.01108151
v -0.03022171 -0.02476805 0.00636983
v -0.04184533 -0.02064697 0.00001405
v -0.04990413 -0.01360865 0.00851648
v -0.04087419 -0.01025927 0.01838362
v -0.03218307 -0.01150061 0.01972939
v -0.02541726 -0.00808149 0.02087901
v -0.03114737 -0.02163987 0.01151558
v -0.04144883 -0.01172522 0.01777697
v -0.04674052 -0.01935644 0.00487100
v -0.04843247 -0.00154481 0.01370590
v -0.03764638 -0.01761909 0.01453009
v -0.03505975 -0.01209462 0.01905130
v -0.03232688 -0.02286933 0.00926341
v -0.03284604 -0.01311622 0.01895900
v -0.02900650 -0.01825819 0.01528352
v -0.03837783 -0.02426034 0.00285700
v -0.04197008 -0.00538175 0.01867320
v -0.02660655 -0.01982727 0.01395810
v -0.02665006 -0.00632539 0.02128080
v -0.02530735 -0.02374972 0.00980899
v -0.02957121 -0.02139020 0.01203536
v -0.03026623 -0.00288299 0.02098751
v -0.02750962 -0.01627174 0.01706089
v -0.03492530 -0.01224245 0.01900627
v -0.03962300 -0.02187095 0.00673049
v -0.04619193 -0.01878577 0.00653768
v -0.03159459 -0.02452641 0.00637961
v -0.03351599 -0.00743942 0.02036040
v -0.04957866 -0.01258506 0.00988562
v -0.03304854 -0.01111266 0.01975926
v -0.03656577 -0.01867248 0.01355986
v -0.04347020 -0.00444469 0.01793998
v -0.03484149 -0.00336560 0.02035920
v -0.04487035 -0.00431494 0.01678195
v -0.04810622 -0.01251055 0.01167475
v -0.04903912 -0.00018322 0.00877656
v -0.03409177 -0.00257120 0.02054115
v -0.04617284 -0.01684659 0.00945355
v -0.02645033 -0.00022537 0.00631109
v -0.02743442 -0.02318832 0.01024314
v -0.02841722 -0.01918639 0.01443615
v -0.02522964 -0.00270909 0.00537254
v -0.04967363 -0.01399446 0.00230242
v -0.04693749 -0.01036239 0.01403335
v -0.04244328 -0.01599079 0.01387833
v -0.03455365 -0.00615387 0.02031376
v -0.04290452 -0.01843393 0.01021135
v -0.02967863 -0.02352616 0.00908118
v -0.04259885 -0.02349889 0.00066850
v -0.03519612 -0.02224090 0.00894424
v -0.03894092 -0.00029816 0.01945723
v -0.03930627 -0.00156747 0.01937556
v -0.02956972 -0.01132921 0.02001602
v -0.02729249 -0.02330681 0.01011345
v -0.03209885 -0.00333937 0.02075999
v -0.04995465 -0.00148325 0.01212227
v -0.03671261 -0.01752178 0.01492699
v -0.04398335 -0.01902319 0.00822866
v -0.04023944 -0.01022148 0.01853298
v -0.03532130 -0.01045288 0.01952473
v -0.03781805 -0.02069489 0.01001479
v -0.02505182 -0.01135504 0.01985017
v -0.04106897 -0.01225778 0.01774484
v -0.02630140 -0.02418878 0.00891777
v -0.04996143 -0.00543714 0.01161522
v -0.03017784 -0.00158198 0.02100922
v -0.02967534 -0.00149045 0.02106864
v -0.02736130 -0.01930976 0.01440503
v -0.03741475 -0.00253900 0.01979837
v -0.03389060 -0.00469437 0.02050249
v -0.04180593 -0.02269497 0.00343631
v -0.04781906 -0.02064554 0.00050092
v -0.02564574 -0.02399558 0.00939893
v -0.04350764 -0.01834642 0.00984061
v -0.03920030 -0.00211496 0.01939925
v -0.03165053 -0.00967654 0.02031063
v -0.03531097 -0.02457323 0.00408401
v -0.04683695 -0.01512231 0.01090096
v -0.04026345 -0.01306009 0.01764029
v -0.03717035 -0.01002518 0.01925737
v -0.02998271 -0.01440211 0.01838463
v -0.03616485 -0.02402363 0.00485428
v -0.03579025 -0.01828400 0.01430215
v -0.03091001 -0.02416892 0.00743906
v -0.04426909 -0.00318832 0.01738374
v -0.03184262 -0.01277653 0.01920072
v -0.03718766 -0.02141462 0.00923336
v -0.03451365 -0.02214762 0.00943679
v -0.03270412 -0.02454770 0.00569195
v -0.04802226 -0.01268809 0.01162050
v -0.04152260 -0.02291992 0.00323900
v -0.02787951 -0.00650291 0.02113195
v -0.02915315 -0.02377606 0.00023901
v -0.02572134 -0.00045165 0.02152326
v -0.04799238 -0.01044492 0.01290895
v -0.04365754 -0.01109037 0.01659024
v -0.04360024 -0.00750616 0.01749062
v -0.02612147 -0.02481610 0.00775150
v -0.02518925 -0.01802062 0.01565964
v -0.03701948 -0.02414021 0.00407880
v -0.02532561 -0.01125680 0.02036127
v -0.03693948 -0.01811466 0.01416777
v -0.03835598 -0.02104732 0.00918529
v -0.04244676 -0.02376716 0.00015430
v -0.04471695 -0.01882983 0.00792019
v -0.04780864 -0.00011066 0.01028981
v -0.03145406 -0.01548259 0.01751721
v -0.02856554 -0.00303421 0.02118143
v -0.04823763 -0.01873284 0.00402325
v -0.04637642 -0.00700194 0.01526104
v -0.02769684 -0.02247728 0.01104628
v -0.04109639 -0.01502803 0.01586437
v -0.02682816 -0.00891532 0.02099397
v -0.04259370 -0.00706097 0.01832286
v -0.03196576 -0.01460209 0.01815124
v -0.03218357 -0.00677204 0.02059351
v -0.03649197 -0.01248298 0.01861010
v -0.03013685 -0.01972174 0.01367306
v -0.02554209 -0.02393781 0.00068519
v -0.04147640 -0.01377616 0.01674483
v -0.04172093 -0.01472183 0.01579310
v -0.04370495 -0.01271266 0.01570611
v -0.04478478 -0.00075922 0.01694200
v -0.04741921 -0.00148653 0.01470417
v -0.02786198 -0.00945954 0.02076348
v -0.04827882 -0.01840430 0.00454106
v -0.03692351 -0.02393869 0.00456213
v -0.02910811 -0.02439590 0.00762366
v -0.04737956 -0.01907942 0.00461783
v -0.02616387 -0.01467226 0.01832692
v -0.02878898 -0.01804333 0.01548748
v -0.03020189 -0.01670847 0.01658238
v -0.04982963 -0.00415678 0.01196592
v -0.02902322 -0.00669305 0.02097960
v -0.03383428 -0.01228249 0.01918141
v -0.04967624 -0.01325116 0.00919088
v -0.02587921 -0.00076374 0.02151574
v -0.04070433 -0.00830572 0.01873576
v -0.03192839 -0.02433957 0.00664298
v -0.03283234 -0.00286188 0.02068990
v -0.04596421 -0.01979093 0.00492039
v -0.04988680 -0.01656383 0.00529185
v -0.03781836 -0.00675022 0.01953987
v -0.02977612 -0.00119234 0.02105709
v -0.03782146 -0.01906886 0.01243386
v -0.04641584 -0.01439794 0.01200327
v -0.03958839 -0.01613231 0.01564539
v -0.04956961 -0.01604788 0.00653307
v -0.03330755 -0.02146466 0.01098140
v -0.04883470 -0.01041059 0.01191545
v -0.03577607 -0.01825521 0.01433950
v -0.03267132 -0.00948587 0.02024100
v -0.04507095 -0.00022304 0.01669452
v -0.02998463 -0.02144117 0.01193160
v -0.03167216 -0.00009967 0.02083115
v -0.04178169 -0.02312438 0.00247283
v -0.02912411 -0.01141495 0.02001853
v -0.03602442 -0.01374113 0.01807963
v -0.03257682 -0.01241352 0.01930267
v -0.02750240 -0.02089937 0.01280233
v -0.04780440 -0.00231332 0.01432297
v -0.03441369 -0.01531855 0.01727949
v -0.03155597 -0.02091986 0.01227258
v -0.03701339 -0.02425505 0.00381836
v -0.02519671 -0.01256879 0.01971017
v -0.02572739 -0.01116624 0.02039700
v -0.03759457 -0.02230091 0.00740732
v -0.02726331 -0.01710819 0.01636591
v -0.02702590 -0.00982476 0.02072522
v -0.03306838 -0.01355720 0.01867990
v -0.04230175 -0.01314024 0.01650899
v -0.02604170 -0.01545297 0.01778553
v -0.03823283 -0.01896339 0.01239844
v -0.04704352 -0.01561041 0.01019459
v -0.04127658 -0.01733083 0.01311788
v -0.04432011 -0.00688432 0.01701516
v -0.03207704 -0.01965114 0.01348235
v -0.03639080 -0.02378423 0.00525529
v -0.04341328 -0.00346413 0.01804453
v -0.02649999 -0.00008892 0.00741999
v -0.04394314 -0.01495485 0.01391607
v -0.04458984 -0.02148840 0.00301952
v -0.03816644 -0.02095900 0.00943727
v -0.03404056 -0.02485728 0.00414896
v -0.02825658 -0.00002298 0.01887896
v -0.03914901 -0.01810363 0.01315458
v -0.04194306 -0.01439581 0.01591411
v -0.03854831 -0.01886359 0.01239197
v -0.03356897 -0.02370259 0.00713367
v -0.04531370 -0.01791200 0.00889489
v -0.02868118 -0.02234817 0.01109299
v -0.03008656 -0.02039514 0.01299622
v -0.04484815 -0.01970395 0.00626159
v -0.03208021 -0.01171409 0.01965118
v -0.02612356 -0.00606592 0.00053584
v -0.04175342 -0.01398023 0.01638731
v -0.04859853 -0.01931314 0.00236099
v -0.03704104 -0.00326553 0.01987503
v -0.04971797 -0.01190204 0.01010292
v -0.04761695 -0.01897324 0.00452497
v -0.02649999 -0.00691946 0.00032926
v -0.02920508 -0.01643805 0.01686100
v -0.03933055 -0.02255251 0.00565741
v -0.02515595 -0.01952520 0.01428920
v -0.04511212 -0.01576848 0.01190508
v -0.04166086 -0.00733428 0.01863552
v -0.02505160 -0.01398420 0.00146327
v -0.02583320 -0.00432306 0.02145037
v -0.04084591 -0.01951994 0.01000662
v -0.02904364 -0.02361023 0.00915591
v -0.04763754 -0.01183301 0.01264179
v -0.02588514 -0.02015504 0.01368407
v -0.03017158 -0.02151306 0.01183336
v -0.02920549 -0.00891029 0.02072181
v -0.04109755 -0.01987407 0.00923782
v -0.02698902 -0.01649760 0.01689497
v -0.03596895 -0.01568927 0.01675651
v -0.03404328 -0.00757460 0.02026758
v -0.03875897 -0.02483641 0.00096805
f 239 24 438
f 438 24 432
f 18 24 239
f 239 168 18
f 18 309 24
f 432 24 194
f 202 194 293
f 444 299 137
f 444 25 299
f 90 444 137
f 356 90 335
f 341 18 112
f 112 18 168
f 209 168 239
f 239 438 209
f 24 309 159
f 309 18 35
f 35 159 309
f 293 194 56
f 432 194 276
f 273 202 343
f 194 202 273
f 273 276 194
f 343 417 273
f 417 276 273
f 137 299 402
f 403 402 338
f 338 402 299
f 356 209 42
f 42 90 356
f 444 90 42
f 42 438 432
f 42 209 438
f 422 417 221
f 422 331 417
f 330 209 356
f 168 209 330
f 330 112 168
f 356 9 330
f 9 112 330
f 437 35 366
f 170 280 156
f 194 280 170
f 156 293 170
f 170 56 194
f 293 56 170
f 210 194 24
f 210 280 194
f 156 280 210
f 210 207 156
f 24 159 210
f 159 207 210
f 332 281 70
f 70 199 332
f 64 199 302
f 302 293 156
f 164 199 70
f 156 207 379
f 343 202 66
f 221 417 66
f 66 417 343
f 188 402 403
f 148 12 445
f 445 50 148
f 148 50 331
f 341 393 286
f 356 335 201
f 257 335 90
f 335 301 223
f 159 35 434
f 35 437 434
f 387 199 64
f 64 332 387
f 387 332 199
f 293 302 370
f 370 302 199
f 370 164 293
f 199 164 370
f 193 198 166
f 241 193 166
f 193 241 174
f 281 198 120
f 7 363 437
f 379 363 7
f 33 412 17
f 425 412 33
f 284 452 17
f 256 50 445
f 43 66 202
f 367 402 67
f 67 318 367
f 402 188 67
f 137 402 71
f 71 402 367
f 260 409 439
f 243 338 299
f 374 148 331
f 12 148 374
f 432 276 279
f 279 42 432
f 444 42 279
f 183 393 341
f 65 18 341
f 341 286 65
f 17 452 152
f 393 183 157
f 419 65 286
f 384 412 93
f 236 90 137
f 236 257 90
f 182 257 100
f 223 182 184
f 319 415 337
f 426 415 319
f 376 175 326
f 326 264 376
f 376 47 175
f 94 426 376
f 376 264 94
f 421 201 177
f 177 264 421
f 421 264 326
f 177 201 238
f 238 264 177
f 94 264 238
f 144 202 293
f 91 29 172
f 443 241 375
f 443 174 241
f 198 193 334
f 133 434 437
f 133 207 159
f 159 434 133
f 133 379 207
f 101 379 385
f 385 23 101
f 19 23 385
f 6 7 128
f 128 7 427
f 169 19 411
f 169 23 19
f 169 81 23
f 101 23 373
f 366 35 246
f 427 7 263
f 430 342 263
f 263 342 427
f 425 33 420
f 17 412 446
f 446 284 17
f 412 284 446
f 180 115 452
f 452 284 180
f 384 34 132
f 132 229 384
f 181 190 357
f 190 408 357
f 411 442 109
f 442 51 109
f 111 412 384
f 384 282 111
f 111 282 412
f 229 357 358
f 64 436 5
f 445 45 329
f 329 256 445
f 50 256 350
f 338 243 350
f 350 243 50
f 403 338 350
f 350 406 403
f 362 406 350
f 256 329 350
f 267 172 362
f 362 313 267
f 267 313 60
f 60 91 267
f 267 91 172
f 69 395 214
f 214 395 106
f 66 360 390
f 390 288 66
f 135 360 66
f 146 37 57
f 14 20 57
f 20 416 57
f 57 390 14
f 57 37 288
f 288 390 57
f 269 20 38
f 153 398 204
f 204 124 153
f 204 398 104
f 70 124 204
f 124 347 63
f 453 260 439
f 15 369 34
f 34 369 105
f 344 399 105
f 105 369 439
f 439 409 105
f 409 192 105
f 368 369 252
f 252 305 368
f 368 305 336
f 89 188 251
f 318 67 89
f 89 67 188
f 409 71 155
f 155 71 367
f 367 318 155
f 403 406 290
f 110 188 403
f 251 188 323
f 251 29 372
f 173 243 299
f 50 243 173
f 99 374 331
f 299 25 1
f 417 331 1
f 1 173 299
f 331 50 1
f 50 173 1
f 25 444 76
f 76 279 25
f 444 279 76
f 337 415 364
f 364 186 337
f 364 415 404
f 404 186 364
f 337 186 253
f 253 4 139
f 186 4 253
f 262 152 308
f 17 152 262
f 452 115 85
f 85 419 286
f 378 246 85
f 85 286 393
f 393 308 85
f 85 246 35
f 187 35 18
f 18 65 187
f 65 419 187
f 187 85 35
f 419 85 187
f 423 412 425
f 423 93 412
f 384 93 219
f 93 423 219
f 287 79 68
f 287 138 79
f 68 325 287
f 86 415 426
f 404 415 86
f 100 257 234
f 257 236 234
f 348 236 428
f 428 236 397
f 257 182 310
f 310 301 335
f 335 257 310
f 310 223 301
f 310 182 223
f 237 184 182
f 237 428 244
f 94 233 11
f 233 321 11
f 201 421 21
f 21 9 356
f 356 201 21
f 231 238 201
f 231 151 233
f 231 233 94
f 94 238 231
f 231 201 335
f 44 151 231
f 335 223 231
f 223 44 231
f 247 144 293
f 153 43 361
f 144 247 361
f 361 398 153
f 361 247 398
f 171 296 241
f 274 228 205
f 205 228 288
f 217 228 274
f 30 443 375
f 375 215 30
f 283 30 178
f 283 178 45
f 174 443 254
f 437 363 346
f 346 133 437
f 346 363 379
f 379 133 346
f 95 7 6
f 379 7 95
f 95 385 379
f 6 128 161
f 161 128 19
f 161 95 6
f 275 128 427
f 411 19 83
f 19 128 83
f 266 373 23
f 101 373 240
f 240 379 101
f 240 436 64
f 156 379 240
f 240 266 436
f 373 266 240
f 240 302 156
f 64 302 240
f 165 263 7
f 366 246 165
f 165 437 366
f 165 7 437
f 425 420 298
f 82 33 17
f 311 342 211
f 427 342 311
f 311 51 427
f 284 51 311
f 149 284 412
f 149 51 284
f 412 282 149
f 282 51 149
f 418 109 26
f 26 109 51
f 427 51 227
f 227 51 442
f 227 275 427
f 227 442 411
f 411 275 227
f 166 198 121
f 198 333 121
f 121 181 166
f 121 190 181
f 69 229 49
f 229 132 49
f 34 399 352
f 352 132 34
f 352 49 132
f 69 49 352
f 352 89 69
f 352 399 344
f 344 105 352
f 352 105 192
f 318 89 352
f 16 229 69
f 16 357 229
f 69 214 16
f 16 214 106
f 408 136 359
f 359 357 408
f 143 282 384
f 384 358 143
f 418 282 143
f 143 358 418
f 384 229 349
f 349 358 384
f 229 358 349
f 433 418 424
f 418 358 424
f 424 357 433
f 424 358 357
f 445 12 213
f 12 225 213
f 213 45 445
f 213 225 45
f 274 283 307
f 307 283 45
f 345 225 12
f 345 377 292
f 45 225 345
f 345 307 45
f 60 313 389
f 179 135 153
f 153 124 179
f 84 20 14
f 84 135 20
f 360 135 84
f 212 269 38
f 212 57 416
f 185 416 20
f 20 269 185
f 224 204 104
f 293 164 224
f 224 104 293
f 224 164 70
f 70 204 224
f 281 120 125
f 120 347 125
f 70 281 125
f 125 124 70
f 125 347 124
f 413 334 38
f 413 347 120
f 413 120 198
f 198 334 413
f 336 305 441
f 449 236 441
f 137 336 441
f 441 236 137
f 278 305 252
f 52 236 449
f 397 236 52
f 305 278 52
f 252 369 96
f 96 15 252
f 369 15 96
f 294 15 34
f 294 34 384
f 294 72 252
f 252 15 294
f 454 399 34
f 34 105 454
f 454 105 399
f 405 453 439
f 137 453 405
f 405 336 137
f 252 72 75
f 72 414 75
f 258 428 397
f 400 414 72
f 78 117 244
f 244 400 78
f 78 400 107
f 407 395 69
f 69 89 407
f 407 114 395
f 407 89 251
f 251 114 407
f 88 155 318
f 318 352 88
f 88 352 192
f 88 192 409
f 409 155 88
f 403 290 394
f 394 110 403
f 172 29 242
f 242 290 406
f 242 394 290
f 362 172 242
f 242 406 362
f 396 29 251
f 251 323 396
f 392 99 331
f 331 422 392
f 392 422 221
f 221 66 392
f 66 288 392
f 288 228 392
f 374 99 126
f 99 235 126
f 25 279 122
f 122 1 25
f 197 253 341
f 341 112 197
f 328 262 308
f 328 308 393
f 393 157 328
f 328 157 139
f 139 4 328
f 141 152 452
f 452 85 141
f 308 152 141
f 141 85 308
f 430 263 97
f 97 263 378
f 378 85 97
f 3 423 425
f 3 219 423
f 230 219 3
f 46 287 325
f 138 287 46
f 404 86 46
f 79 138 46
f 426 79 46
f 46 86 426
f 410 382 268
f 92 382 410
f 119 92 410
f 425 298 410
f 410 298 119
f 92 40 102
f 117 268 102
f 102 40 117
f 222 92 119
f 10 325 68
f 68 40 10
f 10 40 92
f 92 222 10
f 244 117 386
f 117 40 386
f 386 203 244
f 386 40 68
f 68 203 386
f 195 236 348
f 195 234 236
f 100 234 195
f 244 203 208
f 208 203 184
f 208 237 244
f 184 237 208
f 428 237 277
f 277 182 100
f 100 428 277
f 223 184 447
f 447 44 223
f 321 44 447
f 447 285 321
f 321 285 200
f 200 226 321
f 321 226 62
f 62 226 79
f 62 79 426
f 62 426 94
f 365 44 321
f 365 151 44
f 365 321 233
f 233 151 365
f 337 253 401
f 21 314 401
f 401 314 175
f 175 47 401
f 218 401 253
f 21 401 218
f 54 247 293
f 398 247 54
f 202 144 36
f 144 361 36
f 36 43 202
f 36 361 43
f 60 215 53
f 53 215 375
f 220 129 59
f 30 283 380
f 73 254 59
f 73 37 146
f 73 129 37
f 59 129 73
f 146 57 73
f 57 212 73
f 128 275 123
f 123 83 128
f 340 82 17
f 340 46 420
f 17 262 340
f 262 46 340
f 74 51 282
f 74 26 51
f 74 282 418
f 418 26 74
f 333 136 118
f 118 121 333
f 118 136 408
f 150 418 433
f 150 77 418
f 162 109 418
f 418 77 162
f 162 383 109
f 181 357 300
f 300 241 166
f 300 171 241
f 249 372 29
f 29 91 249
f 163 198 281
f 259 345 12
f 377 345 259
f 22 345 292
f 307 345 22
f 292 377 22
f 22 377 274
f 274 307 22
f 28 350 329
f 80 389 313
f 350 389 80
f 80 313 362
f 362 350 80
f 20 135 322
f 135 179 322
f 351 212 38
f 193 174 351
f 38 334 351
f 351 334 193
f 113 413 38
f 113 63 347
f 347 413 113
f 255 52 449
f 305 52 255
f 72 294 388
f 388 400 72
f 107 400 388
f 134 368 336
f 336 405 134
f 355 75 414
f 397 400 391
f 397 52 429
f 429 400 397
f 339 268 117
f 117 78 339
f 339 410 268
f 431 242 29
f 394 242 431
f 381 235 99
f 381 303 235
f 235 303 304
f 274 377 160
f 160 217 274
f 377 304 160
f 160 304 303
f 417 1 216
f 1 122 216
f 216 276 417
f 216 279 276
f 216 122 279
f 440 328 4
f 262 328 440
f 440 186 404
f 440 4 186
f 404 46 440
f 440 46 262
f 115 2 232
f 232 85 115
f 232 97 85
f 324 46 325
f 348 428 27
f 27 195 348
f 27 428 100
f 100 195 27
f 291 237 182
f 182 277 291
f 291 277 237
f 285 447 250
f 184 203 250
f 250 447 184
f 250 203 68
f 9 21 456
f 21 218 456
f 456 218 253
f 253 197 456
f 317 171 60
f 60 53 317
f 296 171 317
f 37 129 312
f 129 306 312
f 116 283 274
f 270 283 116
f 274 306 116
f 116 306 129
f 189 220 59
f 443 30 130
f 30 380 130
f 41 73 212
f 212 351 41
f 41 351 174
f 174 254 41
f 254 73 41
f 127 77 136
f 127 162 77
f 127 136 333
f 127 163 281
f 127 333 198
f 198 163 127
f 357 16 316
f 316 300 357
f 166 181 245
f 245 300 166
f 181 300 245
f 171 300 191
f 300 316 191
f 451 389 350
f 350 28 451
f 353 28 371
f 371 28 329
f 371 329 45
f 31 271 20
f 20 322 31
f 31 113 271
f 63 113 31
f 75 355 196
f 196 278 252
f 252 75 196
f 355 429 196
f 428 258 450
f 244 428 450
f 450 400 244
f 450 391 400
f 400 429 131
f 131 429 355
f 58 78 107
f 58 339 78
f 248 219 230
f 384 219 248
f 248 294 384
f 248 339 294
f 295 232 2
f 295 2 311
f 295 311 211
f 61 298 420
f 420 46 61
f 46 324 61
f 48 250 200
f 48 200 285
f 285 250 48
f 13 91 60
f 60 297 13
f 288 37 289
f 37 312 289
f 289 205 288
f 129 220 435
f 435 116 129
f 59 283 147
f 147 189 59
f 147 283 270
f 383 39 315
f 315 169 411
f 411 109 315
f 109 383 315
f 169 39 327
f 81 169 327
f 383 162 145
f 162 127 145
f 145 39 383
f 145 127 39
f 8 249 91
f 171 191 140
f 45 178 32
f 178 265 32
f 60 389 158
f 158 154 215
f 158 215 60
f 339 58 320
f 320 388 294
f 294 339 320
f 107 388 320
f 320 58 107
f 448 332 64
f 64 5 448
f 281 332 448
f 448 5 436
f 436 266 448
f 448 127 281
f 39 127 448
f 249 8 108
f 191 206 108
f 55 191 316
f 55 206 191
f 142 140 98
f 98 140 191
f 60 142 98
f 98 297 60
f 176 371 45
f 45 32 176
f 176 32 353
f 353 371 176
f 154 158 455
f 455 158 265
f 455 265 178
f 167 354 16
f 167 16 106
f 106 395 167
f 395 114 167
f 272 448 266
f 272 327 39
f 39 448 272
f 249 108 87
f 87 108 206
f 249 354 261
f 372 249 261
f 354 167 103
f 103 261 354
f 66 43 135
f 135 43 153
f 453 71 409
f 137 71 453
f 409 260 453
f 253 183 341
f 139 157 253
f 253 157 183
f 385 95 161
f 19 385 161
f 378 263 165
f 165 246 378
f 84 390 360
f 14 390 84
f 269 212 185
f 185 212 416
f 115 180 2
f 284 311 2
f 2 180 284
f 102 382 92
f 268 382 102
f 94 11 62
f 62 11 321
f 314 421 326
f 326 175 314
f 314 21 421
f 401 376 426
f 401 319 337
f 426 319 401
f 47 376 401
f 104 398 54
f 293 104 54
f 411 83 123
f 123 275 411
f 33 82 340
f 340 420 33
f 190 121 118
f 118 408 190
f 150 359 136
f 433 357 150
f 136 77 150
f 357 359 150
f 20 271 113
f 38 20 113
f 255 441 305
f 449 441 255
f 369 368 134
f 439 369 134
f 134 405 439
f 29 396 431
f 188 110 431
f 431 323 188
f 110 394 431
f 431 396 323
f 12 374 304
f 374 126 304
f 304 259 12
f 304 126 235
f 377 259 304
f 160 392 228
f 160 381 99
f 228 217 160
f 99 392 160
f 303 381 160
f 79 226 250
f 68 79 250
f 226 200 250
f 456 197 112
f 456 112 9
f 241 296 317
f 375 241 317
f 317 53 375
f 59 254 130
f 130 283 59
f 130 254 443
f 130 380 283
f 31 179 124
f 124 63 31
f 31 322 179
f 196 429 52
f 196 52 278
f 397 391 450
f 450 258 397
f 131 355 414
f 414 400 131
f 425 410 248
f 248 3 425
f 230 3 248
f 410 339 248
f 295 342 430
f 211 342 295
f 97 232 295
f 430 97 295
f 325 10 61
f 119 298 61
f 61 222 119
f 61 10 222
f 61 324 325
f 289 312 306
f 274 205 289
f 289 306 274
f 147 435 220
f 270 116 147
f 220 189 147
f 116 435 147
f 315 39 169
f 140 142 60
f 60 171 140
f 158 28 353
f 353 32 158
f 389 451 158
f 158 451 28
f 158 32 265
f 191 108 98
f 91 13 98
f 98 13 297
f 98 8 91
f 98 108 8
f 455 30 215
f 178 30 455
f 215 154 455
f 23 81 272
f 272 266 23
f 81 327 272
f 87 316 16
f 87 55 316
f 16 354 87
f 87 354 249
f 206 55 87
f 103 114 251
f 251 372 103
f 103 167 114
f 372 261 103

