# https://github.com/mikedh/trimesh
v -0.00019940 0.04351639 -0.09862322
v -0.00049231 0.04359283 -0.09088313
v -0.01492055 0.00016237 -0.09927663
v -0.01817289 0.00021826 -0.07310171
v -0.02008504 0.02719363 -0.09993148
v -0.01488049 0.03569124 -0.09693638
v -0.00875562 0.04026731 -0.09320347
v -0.00898516 0.02887113 -0.07310213
v -0.01885465 0.02957893 -0.09804444
v -0.00223432 0.04304924 -0.09103971
v -0.02232400 0.01667562 -0.09991900
v -0.01027842 0.03971014 -0.09995484
v -0.00123919 0.04338130 -0.09186235
v -0.00314253 0.04273753 -0.09043126
v -0.01443555 0.03604025 -0.09594744
v -0.00879002 0.02382781 -0.07310211
v -0.01296077 0.02235459 -0.07310198
v -0.00910230 0.04030219 -0.09880453
v -0.00770799 0.03025976 -0.07310218
v -0.01277342 0.03765734 -0.09602524
v -0.00925774 0.04017890 -0.09775571
v -0.00730704 0.04119291 -0.09900996
v -0.01120467 0.03905003 -0.09881309
v -0.00283227 0.03511343 -0.07310235
v -0.02072257 0.02421761 -0.09832342
v -0.00002523 0.04153820 -0.08749382
v -0.01516217 0.03571105 -0.09934842
v -0.02288942 0.01048018 -0.09991281
v -0.00556036 0.04187665 -0.09417695
v -0.00071362 0.03080778 -0.09984993
v -0.00165519 0.04323696 -0.09441013
v -0.01848280 0.00649540 -0.07310173
v -0.02235553 0.01558092 -0.09922997
v -0.01371936 0.03688902 -0.09678002
v -0.01667693 0.03368080 -0.09849172
v -0.00366173 0.04252835 -0.08980364
v -0.01452108 0.03608075 -0.09690387
v -0.01750281 0.03205337 -0.09712279
v -0.00661532 0.04147780 -0.09749786
v -0.01364473 0.03716649 -0.09875724
v -0.02285589 0.01006212 -0.09946462
v -0.01757051 0.01087058 -0.07310178
v -0.01041991 0.03961342 -0.09956772
v -0.01070558 0.03925563 -0.09666165
v -0.00781453 0.04096752 -0.09911033
v -0.01334881 0.03725557 -0.09705580
v -0.02251557 0.01465737 -0.09954954
v -0.00831019 0.04066431 -0.09728905
v -0.01562849 0.03478780 -0.09677880
v -0.00162304 0.04324760 -0.08874098
v -0.00912208 0.03987573 -0.09220478
v -0.01757390 0.03244052 -0.09924292
v -0.00130516 0.02568865 -0.07310234
v -0.02257279 0.01396188 -0.09952061
v -0.01852152 0.00566912 -0.07310172
v -0.01537807 0.01825484 -0.07313378
v -0.00820886 0.04056570 -0.09301751
v -0.00324653 0.04266470 -0.09910772
v -0.00025693 0.03258050 -0.07310241
v -0.01510687 0.03542552 -0.09683519
v -0.00139069 0.04320824 -0.09971693
v -0.01503158 0.00068230 -0.09986809
v -0.01209178 0.03804593 -0.09394159
v -0.01092607 0.01778901 -0.09999888
v -0.00684658 0.02899657 -0.07310220
v -0.00095129 0.04332674 -0.09922000
v -0.00370942 0.04253952 -0.09110498
v -0.01842513 0.00760054 -0.07347284
v -0.00196751 0.04309363 -0.09841241
v -0.00689960 0.04115636 -0.09107127
v -0.01689481 0.01471736 -0.07329049
v -0.01647305 0.03389131 -0.09812788
v -0.01324609 0.02190737 -0.07310197
v -0.00597591 0.04164710 -0.09226581
v -0.01061561 0.03924398 -0.09546975
v -0.00672605 0.04145416 -0.09954895
v -0.01352350 0.03677217 -0.09448504
v -0.01723413 0.01340072 -0.07334145
v -0.01815380 0.03102010 -0.09760310
v -0.00520746 0.00002032 -0.07310210
v -0.01087532 0.03894366 -0.09382324
v -0.00013829 0.00313533 -0.07310226
v -0.01301740 0.03727490 -0.09452136
v -0.01881649 0.00131441 -0.07322673
v -0.01418573 0.03633907 -0.09613320
v -0.01215614 0.03827903 -0.09733545
v -0.00002278 0.03247907 -0.08735083
v -0.01025987 0.03943499 -0.09472300
v -0.00039083 0.04360165 -0.09247252
v -0.01516910 0.03565458 -0.09896417
v -0.02175243 0.02036145 -0.09965031
v -0.01151257 0.02451389 -0.07310203
v -0.02087791 0.00016980 -0.09830737
v -0.00041289 0.03701227 -0.07336391
v -0.02271286 0.01168756 -0.09931470
v -0.01444746 0.03641199 -0.09888282
v -0.01881654 0.00537571 -0.07354671
v -0.00149827 0.04329233 -0.08898327
v -0.01878797 0.00238409 -0.07310170
v -0.02279207 0.01068050 -0.09934251
v -0.01644442 0.03373509 -0.09708903
v -0.01825649 0.03131438 -0.09937019
v -0.01725533 0.03264224 -0.09782741
v -0.00623729 0.04164248 -0.09741063
v -0.01856017 0.03081831 -0.09986440
v -0.01391485 0.03680949 -0.09766087
v -0.01358963 0.02242603 -0.07340308
v -0.01207600 0.03840193 -0.09809737
v -0.01780446 0.03172955 -0.09790558
v -0.00619246 0.04163940 -0.09580503
v -0.01200429 0.03855184 -0.09947371
v -0.01230528 0.03808837 -0.09642841
v -0.01396616 0.03664016 -0.09666113
v -0.01617815 0.03456546 -0.09970406
v -0.01214316 0.03848807 -0.09996419
v -0.00147192 0.04328257 -0.09598153
v -0.01987574 0.02744026 -0.09903472
v -0.00891476 0.02893271 -0.07310213
v -0.01704321 0.03322565 -0.09876543
v -0.01753352 0.01194264 -0.07316219
v -0.00433471 0.04231043 -0.09900945
v -0.01091697 0.00013345 -0.07310192
v -0.00041824 0.04342219 -0.09997019
v -0.02174901 0.01970346 -0.09882841
v -0.01570854 0.03520415 -0.09995085
v -0.01387935 0.03638357 -0.09466946
v -0.00384676 0.04246682 -0.09921340
v -0.00549805 0.04190653 -0.09439201
v -0.00626756 0.04164615 -0.09988314
v -0.02044092 0.02599630 -0.09975657
v -0.02277177 0.01216289 -0.09996810
v -0.00162482 0.04318513 -0.09838960
v -0.01212890 0.02330222 -0.07310201
v -0.01069454 0.03910854 -0.09418563
v -0.01598819 0.03483072 -0.09976127
v -0.01381672 0.03708255 -0.09944127
v -0.00729982 0.03097680 -0.07323521
v -0.01671272 0.03379751 -0.09942123
v -0.00094541 0.04302284 -0.08796970
v -0.01430113 0.00782832 -0.09997954
v -0.00220617 0.04304393 -0.09648045
v -0.00060537 0.04349518 -0.09583959
v -0.01639338 0.03353675 -0.09597233
v -0.02307585 0.00431175 -0.09951671
v -0.00019445 0.04349217 -0.09937810
v -0.02004493 0.02683787 -0.09876265
v -0.01214682 0.03829692 -0.09746749
v -0.00066620 0.03478464 -0.07310242
v -0.00011612 0.02985411 -0.07310240
v -0.00806099 0.04084311 -0.09896701
v -0.02052497 0.00007516 -0.09812470
v -0.02178758 0.02040365 -0.09996452
v -0.02045719 0.02604721 -0.09999107
v -0.00010724 0.04369757 -0.09035176
v -0.01154103 0.03877916 -0.09807900
v -0.01360565 0.03711811 -0.09791582
v -0.01244436 0.03813127 -0.09822047
v -0.00007470 0.04244685 -0.08751907
v -0.01558714 0.03492372 -0.09723448
v -0.01490248 0.00000267 -0.09685718
v -0.00006205 0.03135353 -0.09853755
v -0.01839550 0.03050558 -0.09764058
v -0.02314827 0.00261246 -0.09981328
v -0.00954465 0.03999031 -0.09685878
v -0.02197345 0.00093163 -0.09887426
v -0.01881651 0.00005639 -0.07426649
v -0.00330288 0.04266488 -0.09790325
v -0.01760604 0.03178068 -0.09671790
v -0.02306818 0.00631852 -0.09976067
v -0.02149827 0.02103389 -0.09876973
v -0.01383998 0.02184213 -0.07318691
v -0.00116476 0.04340992 -0.08994559
v -0.02255635 0.01434647 -0.09960562
v -0.00205574 0.04306253 -0.09855808
v -0.01490316 0.00001284 -0.08160627
v -0.00040858 0.02632675 -0.07310237
v -0.00054383 0.00003312 -0.07310223
v -0.01293551 0.03778603 -0.09899374
v -0.01886324 0.03007249 -0.09949292
v -0.00812535 0.03019111 -0.07351354
v -0.02198981 0.01846489 -0.09913697
v -0.02112511 0.02274984 -0.09860352
v -0.01881650 0.00024473 -0.07388613
v -0.01572241 0.01734776 -0.07310187
v -0.02089398 0.02452192 -0.09994080
v -0.00456142 0.04218134 -0.09026295
v -0.00034376 0.04361520 -0.09233905
v -0.00002116 0.03570143 -0.08749401
v -0.01916055 0.02854163 -0.09740713
v -0.01751223 0.03220316 -0.09781183
v -0.01636248 0.01593553 -0.07310185
v -0.00010283 0.03131992 -0.09976411
v -0.00222047 0.03514525 -0.07310237
v -0.01704519 0.03304790 -0.09803515
v -0.00086223 0.04346909 -0.09352221
v -0.01255814 0.03765072 -0.09415568
v -0.00062596 0.04350995 -0.09505465
v -0.00217554 0.04307005 -0.09047175
v -0.00464657 0.04215154 -0.09043467
v -0.01085421 0.02642096 -0.07339851
f 84 99 163
f 175 166 160
f 3 177 160
f 3 93 62
f 192 3 62
f 177 3 192
f 160 166 151
f 166 93 151
f 151 3 160
f 93 3 151
f 163 62 165
f 62 93 165
f 165 166 163
f 165 93 166
f 163 166 183
f 183 84 163
f 176 53 177
f 145 192 123
f 123 192 30
f 62 140 30
f 30 192 62
f 84 183 4
f 4 183 166
f 99 84 4
f 82 176 177
f 177 192 82
f 192 145 161
f 188 87 161
f 161 82 192
f 87 82 161
f 32 97 99
f 68 97 32
f 123 30 64
f 64 30 140
f 162 189 168
f 124 97 68
f 80 4 166
f 166 175 80
f 160 177 80
f 80 175 160
f 176 82 149
f 149 87 188
f 149 82 87
f 153 125 115
f 153 115 123
f 123 64 153
f 105 125 153
f 153 64 140
f 79 162 168
f 179 79 105
f 162 79 179
f 168 189 191
f 189 71 191
f 68 32 120
f 120 191 71
f 4 80 122
f 99 4 122
f 122 80 177
f 102 79 168
f 105 79 102
f 115 125 136
f 169 28 163
f 131 153 140
f 163 28 131
f 131 62 163
f 131 140 62
f 133 92 17
f 92 133 16
f 16 133 17
f 129 61 123
f 32 191 42
f 42 120 32
f 191 120 42
f 55 122 177
f 177 53 55
f 55 32 99
f 99 122 55
f 53 16 55
f 55 17 32
f 55 16 17
f 105 102 52
f 52 138 105
f 119 138 52
f 96 136 125
f 35 138 119
f 143 194 168
f 144 169 163
f 97 169 144
f 163 99 144
f 99 97 144
f 97 124 181
f 153 131 152
f 152 181 124
f 5 117 179
f 105 153 5
f 5 179 105
f 162 179 9
f 179 117 9
f 189 162 9
f 9 117 189
f 78 120 71
f 53 176 148
f 123 115 12
f 12 129 123
f 171 143 168
f 107 143 171
f 115 136 178
f 178 157 115
f 102 190 103
f 109 102 168
f 109 190 102
f 159 60 125
f 49 60 159
f 125 135 159
f 105 138 114
f 114 125 105
f 114 135 125
f 101 35 119
f 101 143 49
f 119 194 101
f 194 143 101
f 138 35 72
f 72 101 49
f 35 101 72
f 33 47 97
f 97 181 33
f 41 169 97
f 28 169 41
f 54 95 97
f 11 152 131
f 181 152 11
f 153 152 185
f 152 182 185
f 170 124 68
f 68 120 170
f 120 182 170
f 170 182 152
f 120 78 25
f 25 182 120
f 25 78 71
f 25 185 182
f 139 50 94
f 94 154 139
f 139 154 50
f 26 94 149
f 26 149 188
f 188 161 26
f 26 161 145
f 145 154 26
f 94 24 193
f 193 148 94
f 24 148 193
f 149 94 59
f 94 148 59
f 176 149 59
f 59 148 176
f 19 148 24
f 70 24 94
f 70 51 24
f 184 191 32
f 136 156 40
f 136 96 106
f 106 156 136
f 27 96 125
f 125 90 27
f 194 103 38
f 168 194 38
f 38 103 190
f 37 90 125
f 97 95 100
f 100 41 97
f 47 11 173
f 173 11 131
f 97 47 173
f 173 54 97
f 91 152 124
f 124 170 91
f 91 170 152
f 146 71 189
f 146 25 71
f 189 117 146
f 146 5 153
f 117 5 146
f 185 25 146
f 123 61 66
f 1 154 145
f 1 145 123
f 123 66 1
f 158 154 94
f 94 26 158
f 158 26 154
f 148 19 65
f 53 148 65
f 8 16 53
f 92 16 8
f 17 92 8
f 107 171 8
f 8 200 107
f 115 157 108
f 51 70 7
f 191 184 56
f 56 184 171
f 168 191 56
f 56 171 168
f 32 17 73
f 73 184 32
f 171 184 73
f 17 8 73
f 73 8 171
f 6 37 125
f 125 60 6
f 153 185 130
f 130 146 153
f 185 146 130
f 197 1 142
f 142 1 66
f 61 69 132
f 61 58 174
f 174 69 61
f 129 121 127
f 61 129 127
f 127 58 61
f 141 121 10
f 198 31 10
f 10 31 141
f 10 121 129
f 141 69 167
f 167 121 141
f 50 154 98
f 154 172 98
f 98 172 198
f 13 172 2
f 2 172 154
f 116 132 69
f 116 31 13
f 116 69 141
f 141 31 116
f 13 2 116
f 197 89 187
f 154 1 187
f 187 1 197
f 118 65 19
f 19 8 118
f 53 65 118
f 118 8 53
f 137 8 19
f 137 19 24
f 24 51 137
f 51 63 137
f 81 63 51
f 51 7 81
f 46 63 156
f 112 63 157
f 20 40 156
f 156 63 20
f 63 112 20
f 157 63 86
f 94 50 36
f 36 70 94
f 129 12 76
f 12 45 76
f 57 7 70
f 197 116 195
f 195 89 197
f 195 116 2
f 8 137 180
f 200 8 77
f 8 180 77
f 77 137 63
f 77 180 137
f 147 108 157
f 157 86 147
f 129 128 67
f 128 36 67
f 70 36 186
f 43 88 7
f 43 44 88
f 23 44 43
f 115 23 43
f 43 12 115
f 155 111 134
f 134 81 7
f 7 88 134
f 134 111 115
f 115 108 134
f 48 57 70
f 49 143 126
f 126 143 107
f 107 200 126
f 200 77 126
f 15 60 49
f 49 126 15
f 15 126 77
f 15 77 85
f 15 85 37
f 37 6 15
f 85 77 113
f 113 106 96
f 14 10 129
f 129 67 14
f 198 10 14
f 50 98 14
f 14 98 198
f 14 36 50
f 14 67 36
f 199 29 74
f 74 186 199
f 70 186 74
f 22 76 45
f 110 29 128
f 45 74 110
f 110 74 29
f 12 43 164
f 164 43 7
f 7 57 164
f 155 134 75
f 88 44 75
f 75 134 88
f 150 48 70
f 70 74 150
f 150 74 45
f 150 45 12
f 57 48 18
f 18 150 12
f 48 150 18
f 83 113 77
f 104 128 129
f 104 110 128
f 129 76 104
f 21 164 57
f 57 18 21
f 106 113 34
f 113 83 34
f 63 46 196
f 196 77 63
f 196 83 77
f 110 104 39
f 39 22 45
f 45 110 39
f 119 52 103
f 103 194 119
f 103 52 102
f 49 159 72
f 72 114 138
f 72 159 135
f 135 114 72
f 11 33 181
f 47 33 11
f 190 109 38
f 38 109 168
f 28 41 173
f 173 131 28
f 173 100 95
f 95 54 173
f 41 100 173
f 31 172 13
f 198 172 31
f 58 127 167
f 167 174 58
f 69 174 167
f 167 127 121
f 116 66 61
f 197 142 116
f 116 142 66
f 61 132 116
f 157 178 20
f 20 178 136
f 136 40 20
f 20 112 157
f 154 187 195
f 195 2 154
f 195 187 89
f 186 36 128
f 186 29 199
f 128 29 186
f 108 147 134
f 63 81 134
f 134 86 63
f 134 147 86
f 15 6 60
f 96 27 113
f 37 85 113
f 113 27 90
f 90 37 113
f 115 111 75
f 75 23 115
f 75 111 155
f 75 44 23
f 21 18 12
f 12 164 21
f 196 46 156
f 156 106 196
f 106 34 196
f 196 34 83
f 39 104 76
f 76 22 39

