# https://github.com/mikedh/trimesh
v -0.04747961 0.00772196 -0.21433971
v -0.03239959 0.00788623 -0.20022953
v -0.04982457 0.00245118 -0.20520071
v -0.03960056 0.00034745 -0.20781384
v -0.04313711 0.03609033 -0.20039832
v -0.04284858 0.01623693 -0.20988438
v -0.04865672 0.00329909 -0.21539236
v -0.04994564 0.01752693 -0.21429859
v -0.04106074 0.01041120 -0.20880932
v -0.04980940 0.01028958 -0.21609059
v -0.04991970 0.00570945 -0.20529284
v -0.04862305 0.00028951 -0.21541079
v -0.04884386 0.01637767 -0.21508239
v -0.04996309 0.03606628 -0.20469278
v -0.04552054 0.00929021 -0.20001103
v -0.04309938 0.01220324 -0.21047912
v -0.04053965 0.00596409 -0.20855181
v -0.04698885 0.00607798 -0.21396819
v -0.04556562 0.00008081 -0.20001531
v -0.04953408 0.03541965 -0.21019108
v -0.04915382 0.03607042 -0.20655962
v -0.04588372 0.00800876 -0.21298987
v -0.04689772 0.00646737 -0.21388466
v -0.03220244 0.00640874 -0.20006034
v -0.03374193 0.00075201 -0.20188752
v -0.04771029 0.00821121 -0.21451899
v -0.04234551 0.03586254 -0.20219065
v -0.04855051 0.00044115 -0.20394091
v -0.03433810 0.01701347 -0.20124382
v -0.04095827 0.00022867 -0.20905182
v -0.04005180 0.00865494 -0.20801711
v -0.04960997 0.01093021 -0.21591619
v -0.04214651 0.01722620 -0.20915727
v -0.04055565 0.01122307 -0.20828105
v -0.03999734 0.00155125 -0.20817805
v -0.04589145 0.00001504 -0.20045847
v -0.04172940 0.01582681 -0.20891660
v -0.04841258 0.01168351 -0.21496498
v -0.04010476 0.01675914 -0.20729963
v -0.04568728 0.01470980 -0.21257766
v -0.04834321 0.03607079 -0.20147504
v -0.03296231 0.01150208 -0.20049312
v -0.04555925 0.02895932 -0.20005126
v -0.04586562 0.03558760 -0.20673303
v -0.04698778 0.03607945 -0.20777219
v -0.04759202 0.03600627 -0.20839657
v -0.03838631 0.01711713 -0.20551395
v -0.04256997 0.00901303 -0.21017273
v -0.04924714 0.00061834 -0.20464082
v -0.04841070 0.00286052 -0.21519905
v -0.04940857 0.03593160 -0.21005370
v -0.04941901 0.00000450 -0.21598045
v -0.03918407 0.00728500 -0.20718404
v -0.04014662 0.01520534 -0.20754280
v -0.03369957 0.00014500 -0.20185670
v -0.04078051 0.00290866 -0.20883780
v -0.04118620 0.00814856 -0.20903584
v -0.04396743 0.00100184 -0.21153867
v -0.03549841 0.00909540 -0.20334769
v -0.03387385 0.00064333 -0.20202398
v -0.04635397 0.00048367 -0.21352839
v -0.04447993 0.00452866 -0.21190445
v -0.04971339 0.01014876 -0.21602588
v -0.04590347 0.01418818 -0.21279327
v -0.03365104 0.00836992 -0.20149079
v -0.04901706 0.00873248 -0.21556291
v -0.04861876 0.03607360 -0.20860889
v -0.04366690 0.00307714 -0.21125672
v -0.04952191 0.01498334 -0.21567941
v -0.04804523 0.03607498 -0.20706695
v -0.04304092 0.00886432 -0.21057355
v -0.04900622 0.01355528 -0.21535236
v -0.04998960 0.00891428 -0.20533682
v -0.04773759 0.00751710 -0.21456225
v -0.04950053 0.01532852 -0.21564777
v -0.04165526 0.00962796 -0.20938290
v -0.03306902 0.01253511 -0.20046042
v -0.04953808 0.03606623 -0.20157468
v -0.04797292 0.01228609 -0.21458644
v -0.04737604 0.00689093 -0.21427531
v -0.03403581 0.01565217 -0.20112527
v -0.03236847 0.00142960 -0.20046892
v -0.03239484 0.00002387 -0.20053543
v -0.04870057 0.00848174 -0.21533562
v -0.03266514 0.00077946 -0.20079895
v -0.04023904 0.01304811 -0.20782876
v -0.03346719 0.01341969 -0.20079708
v -0.04148120 0.03568876 -0.20103881
v -0.04973617 0.03606467 -0.20011707
v -0.04549615 0.00011751 -0.21282069
v -0.04883979 0.00589760 -0.21548765
v -0.04092880 0.03578913 -0.20001022
v -0.03346113 0.01022276 -0.20114942
v -0.04458956 0.00844728 -0.21188906
v -0.04134241 0.00266830 -0.20931687
v -0.03967637 0.01620046 -0.20696211
v -0.04803152 0.00063214 -0.21491900
v -0.04897310 0.00778336 -0.21555245
v -0.04713780 0.01736987 -0.21358555
v -0.03445574 0.00910516 -0.20228222
v -0.04399826 0.03602380 -0.20430753
v -0.04817401 0.00906690 -0.21487882
v -0.04712181 0.00016578 -0.20209059
v -0.04209027 0.01647658 -0.20917955
v -0.03782680 0.00622001 -0.20584547
v -0.03534792 0.00354714 -0.20342436
v -0.04336382 0.01594931 -0.21037519
v -0.04957745 0.00651637 -0.21600282
v -0.04018681 0.00789434 -0.20817788
v -0.03254928 0.00617640 -0.20045648
v -0.04771878 0.01175413 -0.21440294
v -0.03311945 0.01579716 -0.20001561
v -0.03608142 0.01727456 -0.20307678
v -0.04343963 0.00193103 -0.21108590
v -0.04027207 0.01423760 -0.20775106
v -0.03894102 0.00911091 -0.20684965
f 89 14 73
f 89 49 19
f 24 19 83
f 49 89 3
f 5 89 92
f 15 89 19
f 112 19 24
f 92 15 112
f 112 15 19
f 33 99 51
f 40 99 33
f 49 3 52
f 10 108 52
f 52 3 10
f 11 89 73
f 11 3 89
f 73 10 11
f 10 3 11
f 14 89 78
f 92 89 43
f 43 15 92
f 89 15 43
f 92 112 88
f 88 112 29
f 8 10 73
f 73 14 8
f 45 113 47
f 36 83 19
f 36 52 83
f 36 103 52
f 19 49 36
f 49 103 36
f 87 42 47
f 47 113 87
f 33 47 39
f 39 54 33
f 14 51 20
f 20 8 14
f 51 75 20
f 20 75 8
f 13 51 99
f 13 75 51
f 99 40 13
f 67 51 14
f 67 45 51
f 5 45 67
f 101 5 92
f 101 45 5
f 33 51 46
f 51 45 46
f 46 47 33
f 46 45 47
f 64 13 40
f 49 52 28
f 28 103 49
f 52 103 28
f 83 52 90
f 90 30 83
f 83 85 82
f 24 83 82
f 83 30 4
f 112 42 77
f 77 87 112
f 42 87 77
f 81 113 29
f 81 87 113
f 29 112 81
f 112 87 81
f 2 82 110
f 24 82 2
f 2 112 24
f 2 42 112
f 54 100 59
f 96 39 47
f 54 39 96
f 47 42 96
f 96 100 54
f 33 54 37
f 54 115 37
f 75 13 72
f 14 78 21
f 21 67 14
f 78 41 21
f 21 41 5
f 27 88 29
f 29 101 27
f 92 88 27
f 27 101 92
f 44 101 29
f 45 101 44
f 29 113 44
f 113 45 44
f 12 90 52
f 55 85 83
f 83 4 55
f 65 2 110
f 100 2 65
f 42 2 93
f 93 2 100
f 93 96 42
f 100 96 93
f 116 59 31
f 107 40 33
f 31 9 34
f 76 9 31
f 76 64 40
f 84 72 38
f 79 72 13
f 79 64 111
f 13 64 79
f 79 38 72
f 111 84 79
f 84 38 79
f 75 72 69
f 69 72 32
f 32 63 69
f 69 63 10
f 10 8 69
f 8 75 69
f 5 67 70
f 70 21 5
f 67 21 70
f 98 63 66
f 84 98 66
f 66 63 32
f 91 98 84
f 108 98 91
f 91 52 108
f 91 12 52
f 102 84 111
f 85 25 106
f 31 53 109
f 109 76 31
f 60 55 4
f 85 55 60
f 60 25 85
f 37 107 104
f 33 37 104
f 86 34 115
f 31 34 86
f 86 115 54
f 86 116 31
f 54 59 86
f 59 116 86
f 16 76 40
f 9 76 16
f 90 12 97
f 12 50 97
f 18 50 80
f 84 50 7
f 7 50 12
f 7 91 84
f 12 91 7
f 85 106 105
f 105 106 53
f 105 53 31
f 17 109 35
f 56 17 35
f 35 4 30
f 30 56 35
f 68 18 80
f 95 56 30
f 30 68 95
f 95 68 62
f 84 102 26
f 57 109 17
f 76 109 57
f 6 107 33
f 33 104 6
f 6 104 107
f 23 68 80
f 62 68 23
f 61 58 30
f 30 90 61
f 90 97 61
f 114 68 30
f 30 58 114
f 26 1 74
f 84 26 74
f 74 50 84
f 80 50 74
f 76 57 48
f 22 94 57
f 26 94 22
f 22 1 26
f 57 94 71
f 71 48 57
f 41 78 89
f 89 5 41
f 63 98 108
f 63 108 10
f 32 72 66
f 66 72 84
f 40 107 16
f 16 37 115
f 115 34 16
f 16 107 37
f 16 34 9
f 110 82 105
f 105 65 110
f 31 59 105
f 105 82 85
f 105 59 100
f 100 65 105
f 35 109 53
f 53 106 35
f 35 106 25
f 25 60 35
f 35 60 4
f 114 97 50
f 50 18 114
f 18 68 114
f 114 61 97
f 58 61 114
f 22 17 56
f 22 57 17
f 22 23 80
f 56 95 22
f 22 95 62
f 80 74 22
f 62 23 22
f 22 74 1
f 71 102 111
f 111 64 71
f 71 94 26
f 64 76 71
f 71 26 102
f 76 48 71

