# https://github.com/mikedh/trimesh
v 0.03263239 -0.03717664 -0.01275898
v 0.03546029 -0.03428890 -0.00149936
v 0.04067693 -0.01261781 -0.00431952
v 0.03286687 -0.00077947 -0.04914958
v 0.00062596 -0.03993085 -0.04765927
v 0.04091989 -0.00363293 -0.00736027
v 0.03948187 -0.01767178 -0.01494403
v 0.04021728 -0.01215401 -0.01368599
v 0.03586574 -0.03355291 -0.00642795
v 0.03619221 -0.03158210 -0.01273826
v 0.04063121 -0.01308904 -0.00509637
v 0.03739986 -0.02554643 -0.01792883
v 0.03023973 -0.03799347 -0.01675560
v 0.04097320 -0.00400721 -0.00240002
v 0.03971777 -0.00660812 -0.02034357
v 0.04019709 -0.01398046 -0.01223036
v 0.04088259 -0.00767072 -0.00544590
v 0.03669438 -0.02869050 -0.01648782
v 0.04086607 -0.00682848 -0.00683506
v 0.03721709 -0.02621212 -0.01791160
v 0.04056327 -0.00380222 -0.01392172
v 0.04085363 -0.00675210 -0.00721388
v 0.03950465 -0.00326584 -0.02193130
v 0.03811166 -0.02618738 -0.01162093
v 0.00042159 -0.03960235 -0.02669250
v 0.03497935 -0.02984494 -0.02179520
v 0.04028260 -0.00863869 -0.01525186
v 0.03975902 -0.01651644 -0.01372195
v 0.02395644 -0.00476954 -0.04995954
v 0.03990143 -0.01218547 -0.01645618
v 0.04100473 -0.00195878 -0.00142614
v 0.03286136 -0.01385552 -0.04991865
v 0.00048047 -0.03989593 -0.03813709
v 0.03835516 -0.01379953 -0.02368331
v 0.03339957 -0.03658264 -0.00062678
v 0.03589672 -0.03051463 -0.01697835
v 0.03566598 -0.03019936 -0.01867113
v 0.03451652 -0.03604181 -0.00490906
v 0.03253671 -0.03708204 -0.00332255
v 0.03963831 -0.02206047 -0.00360598
v 0.03482927 -0.03554322 -0.00438636
v 0.03357206 -0.00800603 -0.04999869
v 0.03966319 -0.00318088 -0.02108442
v 0.03871803 -0.02437790 -0.01070693
v 0.04066245 -0.00828680 -0.01051846
v 0.03790863 -0.02199810 -0.01967634
v 0.03620393 -0.03070429 -0.01489404
v 0.03698833 -0.03117171 -0.00629433
v 0.03516712 -0.03497698 -0.00459752
v 0.00037741 -0.03988610 -0.03723985
v 0.04008753 -0.00015428 -0.01891977
v 0.03918793 -0.02429233 -0.00050461
v 0.00043860 -0.03058857 -0.04969063
v 0.01242649 -0.03925209 -0.02650583
v 0.04091696 -0.00865979 -0.00097440
v 0.04066121 -0.01161668 -0.00697462
v 0.04100953 -0.00053960 -0.00173270
v 0.03662925 -0.02702631 -0.01947060
v 0.04089824 -0.00890856 -0.00231680
v 0.04043795 -0.01410156 -0.00772433
v 0.03643498 -0.03236568 -0.00694675
v 0.03043597 -0.00005733 -0.00013474
v 0.03030613 -0.03727731 -0.01916402
v 0.02414351 -0.03163783 -0.04953657
v 0.04036390 -0.01374380 -0.00969028
v 0.04092293 -0.00100148 -0.00778122
v 0.04082739 -0.00482932 -0.00904971
v 0.04093543 -0.00707970 -0.00212195
v 0.03354551 -0.03342778 -0.02026463
v 0.03534114 -0.03447069 -0.00127652
v 0.04071648 -0.00351195 -0.01174226
v 0.03459834 -0.03497930 -0.01144218
v 0.03175372 -0.03781575 -0.01250394
v 0.03922443 -0.01496203 -0.01865790
v 0.04066996 -0.01328083 -0.00240738
v 0.03980723 -0.01857137 -0.00992161
v 0.03277089 -0.00002778 -0.04540143
v 0.01083044 -0.03769772 -0.04998474
v 0.02828388 -0.02461902 -0.04999040
v 0.00006290 -0.00821451 -0.04562587
v 0.04023423 -0.01183046 -0.01372589
v 0.04006765 -0.01704314 -0.00952827
v 0.04070492 -0.01104548 -0.00636747
v 0.03272511 -0.03629079 -0.01566606
v 0.04093419 -0.00181705 -0.00686795
v 0.04082463 -0.01046126 -0.00175703
v 0.03970315 -0.01337530 -0.01709169
v 0.03864906 -0.01485763 -0.02163273
v 0.03826146 -0.02643844 -0.00983057
v 0.04075880 -0.00443274 -0.01060067
v 0.03966544 -0.01047399 -0.01886687
v 0.04064432 -0.00661193 -0.01194370
v 0.03924822 -0.01847554 -0.01550413
v 0.03666817 -0.03125020 -0.00986614
v 0.04046347 -0.00071009 -0.01558504
v 0.03485016 -0.03121341 -0.02000344
v 0.00334687 -0.03964039 -0.02862949
v 0.04053356 -0.01473307 -0.00338134
v 0.04100643 -0.00244586 -0.00020362
v 0.01608800 -0.03905645 -0.02561675
v 0.03572995 -0.03201850 -0.01445066
v 0.04092207 -0.00048122 -0.00787297
v 0.03567693 -0.03280070 -0.01231672
v 0.00461261 -0.00020734 -0.04562587
v 0.04062316 -0.01010690 -0.00968321
v 0.04098200 -0.00041977 -0.00367157
v 0.04010765 -0.01618188 -0.01046706
v 0.00005866 -0.03978752 -0.03203631
v 0.04037241 -0.00694203 -0.01499556
v 0.03915618 -0.02460445 -0.00148103
v 0.04076715 -0.00243538 -0.01099278
v 0.04042419 -0.01565241 -0.00439279
v 0.03569719 -0.03406346 -0.00405579
v 0.03052833 -0.03789546 -0.01656898
v 0.03277738 -0.03538140 -0.01837572
v 0.04068715 -0.00182608 -0.01250720
v 0.03145509 -0.03760555 -0.01526762
v 0.01716169 -0.03635276 -0.04987609
v 0.01111797 -0.03931503 -0.02626827
v 0.03532128 -0.03329734 -0.01291313
v 0.03612739 -0.02832758 -0.01976997
v 0.03169240 -0.03658240 -0.01793141
v 0.04068854 -0.00964955 -0.00866373
v 0.03727429 -0.02809633 -0.01370564
v 0.04075513 -0.00216661 -0.01127390
v 0.03733082 -0.02540771 -0.01843350
v 0.03913458 -0.02447690 -0.00029962
v 0.04087720 -0.00958860 -0.00089826
v 0.03770222 -0.02871297 -0.00878442
v 0.03958037 -0.00700254 -0.02105377
v 0.04029992 -0.01428266 -0.01011056
v 0.04019533 -0.01849551 -0.00281974
v 0.04073672 -0.01138351 -0.00438957
v 0.00018374 -0.03062212 -0.04944725
v 0.03367281 -0.03537829 -0.01475658
v 0.03355387 -0.03696485 -0.00270105
v 0.03504966 -0.03149319 -0.01883158
v 0.04015294 -0.01698631 -0.00851148
v 0.04018661 -0.01042734 -0.01536384
v 0.03407328 -0.03429518 -0.01640906
v 0.03966671 -0.00158450 -0.02107084
v 0.03692349 -0.03014287 -0.01160064
v 0.04094091 -0.00487488 -0.00483801
v 0.03043597 -0.02471536 -0.00021627
v 0.00435609 -0.03007282 -0.04991826
v 0.04092198 -0.00710113 -0.00422082
v 0.00069830 -0.03989679 -0.03868984
v 0.04099055 -0.00357153 -0.00017459
v 0.00102532 -0.03990843 -0.04058627
v 0.04030990 -0.00658611 -0.01587801
v 0.03628426 -0.03264509 -0.00072737
v 0.00082741 -0.03990996 -0.04022551
v 0.04102101 -0.00074304 -0.00087863
v 0.03298136 -0.03734301 -0.00977938
v 0.04092162 -0.00743605 -0.00373447
v 0.04091415 -0.00244952 -0.00817317
v 0.00000522 -0.03862883 -0.02751996
v 0.04067607 -0.00260707 -0.01268828
v 0.03949180 -0.02033490 -0.01038745
v 0.03931500 -0.00328797 -0.02285460
v 0.04027741 -0.00235751 -0.01731957
v 0.03524414 -0.03472680 -0.00176714
v 0.04013289 -0.01161249 -0.01505321
v 0.03472861 -0.03569088 -0.00522896
v 0.04084892 -0.00906889 -0.00440321
v 0.03448318 -0.03354742 -0.01672577
v 0.03965582 -0.00914272 -0.01963256
v 0.03911831 -0.02482140 -0.00213898
v 0.04011304 -0.00515925 -0.01823896
v 0.04064191 -0.01389753 -0.00147274
v 0.03460148 -0.03379067 -0.01562729
v 0.03964601 -0.00052457 -0.02105684
v 0.03561932 -0.03400368 -0.00646862
v 0.04100026 -0.00151843 -0.00212677
v 0.04019077 -0.01775471 -0.00605823
v 0.00025533 -0.03961797 -0.02715218
v 0.03043597 -0.02626109 -0.00026852
v 0.00092264 -0.03990138 -0.03967997
v 0.04075713 -0.00014050 -0.01087758
v 0.03925296 -0.00415049 -0.02310932
v 0.04066684 -0.00766354 -0.01088942
v 0.04044577 -0.00148953 -0.01566138
v 0.03028905 -0.03785407 -0.01729069
v 0.03103576 -0.02731444 -0.00003825
v 0.04082451 -0.01042346 -0.00202659
v 0.04073267 -0.00192715 -0.01174759
v 0.04029188 -0.01240784 -0.01235499
v 0.03708112 -0.03102437 -0.00452646
v 0.04001947 -0.01986792 -0.00235422
v 0.04047220 -0.01045952 -0.01157733
v 0.04018036 -0.01632664 -0.00932532
v 0.03295298 -0.03744677 -0.00690112
v 0.03294943 -0.03636853 -0.01456667
v 0.03903598 -0.01492317 -0.01963571
v 0.04027755 -0.01787083 -0.00041856
v 0.04034992 -0.01581085 -0.00637073
v 0.03043597 -0.00001802 -0.01424781
v 0.03361832 -0.03519396 -0.00014301
v 0.03913587 -0.02129804 -0.01280940
v 0.00062342 -0.03977104 -0.03151914
v 0.04091550 -0.00867537 -0.00162370
v 0.00222920 -0.03984608 -0.04972954
v 0.04045658 -0.01596729 -0.00008146
v 0.04027820 -0.00445815 -0.01689251
v 0.03785365 -0.02141236 -0.02056749
v 0.04025967 -0.01556706 -0.00898196
v 0.03605991 -0.03310714 -0.00102424
v 0.04006708 -0.01897382 -0.00516094
v 0.03962559 -0.01471624 -0.01678469
v 0.04054355 -0.01461191 -0.00342178
v 0.04027192 -0.00935073 -0.01498107
v 0.03206015 -0.01785867 -0.04984146
v 0.03424308 -0.03447010 -0.01516376
v 0.04100449 -0.00063095 -0.00208077
v 0.03774447 -0.02927625 -0.00245347
v 0.03664534 -0.02970890 -0.01464278
v 0.00714036 -0.03948322 -0.02649361
v 0.04011322 -0.00388974 -0.01850323
v 0.04087271 -0.00916220 -0.00314516
v 0.04059171 -0.00164678 -0.01401583
v 0.04018793 -0.01873518 -0.00161938
v 0.00492560 -0.03965176 -0.04991947
v 0.04094527 -0.00112428 -0.00620569
v 0.04056557 -0.01301399 -0.00688987
v 0.03574902 -0.03341341 -0.00921128
v 0.00531829 -0.03953811 -0.02658227
v 0.04099916 -0.00178829 -0.00206893
v 0.04091557 -0.00184888 -0.00819008
v 0.04022167 -0.00582118 -0.01711590
v 0.03096799 -0.03609003 -0.02101105
v 0.04044419 -0.01276206 -0.00960877
v 0.04039135 -0.00691233 -0.01479000
v 0.01897295 -0.03543485 -0.04989676
v 0.00235244 -0.03967831 -0.02927468
v 0.03813042 -0.02821469 -0.00041652
v 0.03399242 -0.03560005 -0.01237281
v 0.03813795 -0.01578394 -0.02360847
v 0.03580369 -0.03361659 -0.00125408
v 0.03569339 -0.03057544 -0.01789917
v 0.03816638 -0.01533217 -0.02376143
v 0.04000284 -0.00684824 -0.01845866
v 0.04065102 -0.01150406 -0.00747674
v 0.04080716 -0.01095419 -0.00049874
v 0.04070260 -0.00511643 -0.01146836
v 0.04053578 -0.01175999 -0.00929605
v 0.04071341 -0.01003129 -0.00757524
v 0.03754550 -0.02981170 -0.00303904
v 0.04096924 -0.00506121 -0.00028737
v 0.02355338 -0.00170804 -0.04976354
v 0.00395332 -0.03875707 -0.04993211
v 0.00111772 -0.03991442 -0.04194064
v 0.03305101 -0.03742749 -0.00717588
v 0.03205212 -0.03739386 -0.01415355
v 0.00896543 -0.03941338 -0.02644002
v 0.01028780 -0.03888563 -0.04983847
v 0.03174011 -0.00017938 -0.04968550
v 0.04031507 -0.01421362 -0.00992524
v 0.04041714 -0.01607851 -0.00314455
v 0.03313523 -0.03445547 -0.01932461
v 0.03826876 -0.02721645 -0.00660853
v 0.03310533 -0.01282288 -0.04966968
v 0.03990911 -0.02011152 -0.00509965
v 0.04095523 -0.00575978 -0.00169957
v 0.03374417 -0.03585216 -0.01276218
v 0.03370244 -0.03675329 -0.00188872
v 0.04087928 -0.00903316 -0.00314938
v 0.04029708 -0.01414562 -0.01036554
v 0.04028473 -0.01451909 -0.01005096
v 0.04099479 -0.00327295 -0.00016555
v 0.00114234 -0.03959835 -0.02677263
v 0.04013330 -0.00953505 -0.01639076
v 0.03084321 -0.02151645 -0.04999096
v 0.04079189 -0.01104408 -0.00199840
v 0.03598655 -0.03317360 -0.00061504
v 0.03360058 -0.03677296 -0.00180167
v 0.04019462 -0.00229117 -0.01813548
v 0.03828266 -0.01770396 -0.02161651
v 0.04056043 -0.01037792 -0.01037348
v 0.03482739 -0.03292229 -0.01667876
v 0.03988361 -0.02065177 -0.00331246
v 0.00014207 -0.03992347 -0.04113813
v 0.04064253 -0.01024848 -0.00923276
v 0.04095988 -0.00386497 -0.00394374
v 0.00243585 -0.00038445 -0.04562587
v 0.04011855 -0.00095251 -0.01876880
v 0.04100932 -0.00023842 -0.00173795
v 0.03846624 -0.02722859 -0.00041540
v 0.03485569 -0.03545064 -0.00190396
v 0.03577818 -0.03059418 -0.01743640
v 0.03840783 -0.02331693 -0.01466486
v 0.03294129 -0.03724331 -0.01097386
v 0.04062205 -0.01394634 -0.00269079
v 0.03895259 -0.02238422 -0.01239300
v 0.04093490 -0.00431071 -0.00579948
v 0.03314630 -0.03726616 -0.00915704
v 0.03993820 -0.02025150 -0.00379548
v 0.04065544 -0.01368305 -0.00144673
v 0.04061872 -0.01344050 -0.00458159
v 0.03285267 -0.00067077 -0.04881867
v 0.01135635 -0.02764669 -0.04995787
v 0.03910453 -0.02458385 -0.00020049
v 0.03268330 -0.03656619 -0.00020548
v 0.04023146 -0.00411475 -0.01747555
v 0.04027817 -0.00916396 -0.01501249
v 0.03975223 -0.01371572 -0.01659963
v 0.03688032 -0.03093646 -0.00891454
v 0.03959832 -0.00781096 -0.02069698
v 0.03641363 -0.02846453 -0.01821717
v 0.03935154 -0.00888614 -0.02135156
v 0.00023828 -0.03959961 -0.02667867
v 0.03865972 -0.02653482 -0.00072894
v 0.03462295 -0.03562689 -0.00039369
v 0.04015630 -0.01888762 -0.00104641
v 0.00015517 -0.03983443 -0.03394834
v 0.03960270 -0.00796888 -0.02058916
v 0.03740941 -0.02570119 -0.01764563
v 0.04018326 -0.00336000 -0.01814242
v 0.04091052 -0.00754976 -0.00470004
v 0.03521433 -0.03425909 -0.00987209
v 0.03679192 -0.02932278 -0.01459751
v 0.04022280 -0.01603705 -0.00893045
v 0.04064547 -0.00439287 -0.01284775
v 0.03520632 -0.03014786 -0.02049799
v 0.02672222 -0.02880363 -0.04986829
v 0.04062759 -0.00756726 -0.01163378
v 0.03570545 -0.03408763 -0.00349161
v 0.04098392 -0.00275823 -0.00267371
v 0.03346434 -0.00478731 -0.04959546
v 0.03339030 -0.01063577 -0.04972641
v 0.03027417 -0.03798819 -0.01673095
v 0.03597191 -0.03310607 -0.00866796
v 0.04018818 -0.01603556 -0.00964757
v 0.04093899 -0.00391675 -0.00570415
v 0.04033909 -0.01720890 -0.00077942
v 0.04027924 -0.01704716 -0.00510899
v 0.03909431 -0.02355144 -0.00759279
v 0.04009971 -0.00438818 -0.01850754
v 0.03271603 -0.03701532 -0.01306111
v 0.04082637 -0.00532971 -0.00880236
v 0.04032169 -0.00881991 -0.01467703
v 0.03882014 -0.02594543 -0.00120165
v 0.00038126 -0.03993392 -0.04698901
v 0.03172686 -0.00011068 -0.04867978
v 0.03837039 -0.02084065 -0.01818793
v 0.04042212 -0.00698024 -0.01440351
v 0.03245679 -0.03758557 -0.00875431
v 0.03944503 -0.00393420 -0.02217914
v 0.03920087 -0.02429158 -0.00079353
v 0.03855286 -0.02557153 -0.00900941
v 0.00962158 -0.03938493 -0.02642608
v 0.03902487 -0.02514094 -0.00142302
v 0.04038509 -0.01647280 -0.00276281
v 0.04010571 -0.00818138 -0.01720699
v 0.00175680 -0.03958014 -0.02656522
v 0.04025454 -0.00108475 -0.01767507
v 0.03688412 -0.03047384 -0.01100609
v 0.04074292 -0.00946921 -0.00738318
v 0.04065209 -0.00479395 -0.01258199
v 0.04094103 -0.00609628 -0.00332928
v 0.01129622 -0.03930802 -0.02628268
v 0.02608230 -0.02957214 -0.04994585
v 0.03896287 -0.02515107 -0.00007477
v 0.03343069 -0.03723507 -0.00505942
v 0.03767114 -0.02279212 -0.01999603
v 0.03647354 -0.03226407 -0.00700328
v 0.03968893 -0.00769334 -0.02018461
v 0.03113114 -0.03249724 -0.00015532
v 0.04076633 -0.01050894 -0.00495472
v 0.03410119 -0.03466710 -0.01519389
v 0.04048175 -0.01559715 -0.00158060
v 0.00093212 -0.03992155 -0.04533611
v 0.04053591 -0.00393637 -0.01419344
v 0.04100796 -0.00157677 -0.00145970
v 0.03309628 -0.03740754 -0.00674121
v 0.03739998 -0.02306937 -0.02089580
v 0.04062673 -0.01409080 -0.00124420
v 0.03643560 -0.03227708 -0.00026434
v 0.03662999 -0.03108094 -0.01092142
v 0.04082478 -0.00318807 -0.00973933
v 0.03820883 -0.01857745 -0.02130672
v 0.04074353 -0.01005751 -0.00654084
v 0.03355959 -0.03671981 -0.00970544
v 0.03510449 -0.03305281 -0.01500133
v 0.03551427 -0.03371292 -0.00981114
v 0.04040121 -0.01634420 -0.00243610
v 0.02334746 -0.03858006 -0.02351896
v 0.03908461 -0.00004895 -0.02357846
v 0.03930887 -0.02040911 -0.01258103
v 0.03161060 -0.03751869 -0.01512166
v 0.00075143 -0.03965953 -0.02823824
v 0.04014558 -0.01904377 -0.00198983
v 0.03562406 -0.03392838 -0.00725607
v 0.03944803 -0.01431516 -0.01791643
v 0.04086749 -0.00903560 -0.00366070
v 0.03935536 -0.02370813 -0.00257766
v 0.03331042 -0.03728220 -0.00522199
v 0.03985914 -0.01753175 -0.01115986
v 0.04090132 -0.00152207 -0.00862524
v 0.03401117 -0.03484101 -0.01503504
v 0.03909155 -0.02216959 -0.01155767
v 0.03238347 -0.03715966 -0.01379500
v 0.03659064 -0.03219253 -0.00488485
v 0.00017793 -0.00185428 -0.04562587
v 0.03993469 -0.02021133 -0.00419612
v 0.00114817 -0.03971857 -0.02990813
v 0.03772441 -0.02189705 -0.02066644
v 0.03981579 -0.01331971 -0.01637330
v 0.04064952 -0.01360264 -0.00276508
v 0.04092345 -0.00443961 -0.00665778
v 0.04079362 -0.00220665 -0.01053519
v 0.03471878 -0.00001135 -0.03652013
v 0.03968050 -0.01499724 -0.01608495
v 0.04074799 -0.00867368 -0.00808420
v 0.04068848 -0.00559201 -0.01157669
v 0.03764219 -0.02886827 -0.00889443
v 0.04093839 -0.00587016 -0.00398970
v 0.01359422 -0.03781727 -0.04991351
v 0.02201624 -0.03331029 -0.04978265
v 0.03354570 -0.00612624 -0.04983905
v 0.04019863 -0.00364864 -0.01792062
v 0.03870242 -0.02602738 -0.00423010
v 0.03695356 -0.02755535 -0.01704365
v 0.04061104 -0.00348022 -0.01346469
v 0.04095983 -0.00014881 -0.00520250
v 0.04030448 -0.01681097 -0.00496126
v 0.03904171 -0.01608099 -0.01884653
v 0.04086991 -0.00842217 -0.00476248
v 0.04065381 -0.01073401 -0.00846052
v 0.04012489 -0.01651256 -0.00972645
v 0.00037873 -0.00081784 -0.04562587
v 0.02937628 -0.02482002 -0.04954212
v 0.03486276 -0.03424086 -0.01248285
v 0.03948543 -0.01881569 -0.01332232
v 0.04034216 -0.00490283 -0.01606806
v 0.04077336 -0.01003374 -0.00558949
v 0.03334684 -0.03699133 -0.00267259
v 0.03699787 -0.03031724 -0.01059327
v 0.03003795 -0.03744591 -0.01924450
v 0.03141635 -0.02009087 -0.04967614
v 0.04089712 -0.00599304 -0.00677401
v 0.03464995 -0.03585484 -0.00336264
v 0.00062160 -0.03961753 -0.02710055
v 0.03606285 -0.03150520 -0.01381458
v 0.03951493 -0.01806403 -0.01430731
v 0.02784354 -0.02732073 -0.04962846
v 0.03181245 -0.03779139 -0.01163885
v 0.03232889 -0.03765157 -0.01173014
v 0.04044078 -0.00758007 -0.01389779
v 0.04091716 -0.00707759 -0.00485360
v 0.04024063 -0.00020451 -0.01782640
v 0.04037744 -0.01310907 -0.01030586
v 0.04092820 -0.00618174 -0.00475222
v 0.04028619 -0.01677042 -0.00579714
v 0.04019943 -0.01625512 -0.00904602
v 0.04071107 -0.00671704 -0.01049464
v 0.03561385 -0.03257231 -0.01360967
v 0.03924465 -0.02411806 -0.00297262
v 0.01338987 -0.03789817 -0.04992938
v 0.00005842 -0.03988361 -0.03702277
v 0.04090262 -0.00505073 -0.00734037
v 0.03838718 -0.02566346 -0.01070943
v 0.03626763 -0.03047531 -0.01507001
v 0.02625093 -0.03834942 -0.02165552
v 0.03538875 -0.03013579 -0.01984336
v 0.03700882 -0.03089638 -0.00015225
v 0.04051514 -0.01334081 -0.00741688
v 0.04099621 -0.00034402 -0.00266827
v 0.04013406 -0.01916451 -0.00165157
v 0.04030119 -0.00101242 -0.01723949
v 0.03479276 -0.03531396 -0.00035552
v 0.04080988 -0.00901089 -0.00588322
v 0.03332275 -0.03660038 -0.00064888
v 0.03948081 -0.02301049 -0.00113775
v 0.04078975 -0.01128138 -0.00006224
v 0.04024071 -0.01821682 -0.00127330
v 0.04065539 -0.01329925 -0.00341529
v 0.03351215 -0.03474339 -0.01734080
v 0.03043597 -0.01822768 -0.00001407
v 0.03982240 -0.01350573 -0.01620112
v 0.04007488 -0.01476297 -0.01265727
v 0.03660721 -0.02454028 -0.02269378
v 0.03280661 -0.03702521 -0.01263446
v 0.03043597 -0.02075235 -0.00008679
v 0.00763258 -0.03928388 -0.04973011
v 0.03478450 -0.03559735 -0.00536084
v 0.02954406 -0.03806007 -0.01781805
v 0.03980389 -0.02109719 -0.00415512
v 0.04064969 -0.00512556 -0.01251127
v 0.03329306 -0.03723846 -0.00811347
v 0.03605070 -0.03216760 -0.01175444
v 0.04061780 -0.01100997 -0.00881512
v 0.03998488 -0.00219032 -0.01945299
v 0.04013484 -0.01295487 -0.01389656
v 0.04037011 -0.00453548 -0.01586865
v 0.03995020 -0.01176504 -0.01635625
v 0.04029497 -0.01424602 -0.01025816
v 0.03982025 -0.02105710 -0.00093247
v 0.03799315 -0.01858840 -0.02242965
v 0.04047138 -0.01421325 -0.00671967
v 0.00009670 -0.03893612 -0.04708196
v 0.02974441 -0.03801218 -0.01774891
v 0.03465818 -0.02971872 -0.02313850
v 0.03564644 -0.03156081 -0.01595493
v 0.02847201 -0.02629806 -0.04977914
v 0.04009427 -0.01756234 -0.00815418
v 0.04091467 -0.00878494 -0.00124831
v 0.03381522 -0.03671748 -0.00770524
v 0.03456970 -0.03440730 -0.01367344
v 0.03843229 -0.01480125 -0.02275167
v 0.01048119 -0.03884227 -0.04997094
v 0.03828950 -0.01423370 -0.02377702
v 0.03961742 -0.01958367 -0.01032342
v 0.03961761 -0.01752086 -0.01393817
v 0.04004913 -0.01611049 -0.01126582
v 0.04080777 -0.00593417 -0.00887094
v 0.04014065 -0.00540228 -0.01798967
v 0.03544921 -0.03112166 -0.01801175
v 0.04067174 -0.00435386 -0.01235018
v 0.00082119 -0.03974486 -0.03053116
v 0.03970597 -0.00807815 -0.01987732
v 0.03424329 -0.03635535 -0.00623822
v 0.04092463 -0.00482697 -0.00630930
v 0.03471474 -0.03177638 -0.01952663
v 0.04053607 -0.01337269 -0.00687175
v 0.03743042 -0.02529224 -0.01809536
v 0.04092208 -0.00549296 -0.00602697
v 0.00045556 -0.03991118 -0.03953166
v 0.03939173 -0.01929008 -0.01359218
v 0.03506108 -0.03517420 -0.00276421
v 0.00006525 -0.00248760 -0.04562587
v 0.04068353 -0.00657610 -0.01115248
v 0.03600364 -0.02802263 -0.02078379
v 0.04089932 -0.00201077 -0.00856677
v 0.03921743 -0.02150590 -0.01151761
v 0.00220416 -0.03986218 -0.04217641
v 0.04006495 -0.00746923 -0.01780326
v 0.03507361 -0.03169484 -0.01831930
v 0.03496380 -0.03214454 -0.01780377
v 0.04007161 -0.01742894 -0.00878951
v 0.03587109 -0.02869501 -0.02025179
v 0.00002759 -0.03889034 -0.02561157
v 0.04090805 -0.00860072 -0.00271956
v 0.03690065 -0.02865379 -0.01525522
v 0.04092225 -0.00599636 -0.00555224
v 0.00099290 -0.03991890 -0.04345813
v 0.04087872 -0.00962075 -0.00026160
v 0.03414112 -0.03247481 -0.00003680
v 0.03200737 -0.03778092 -0.01168951
v 0.03954302 -0.00769472 -0.02103442
v 0.03043597 -0.00154546 -0.00003907
v 0.01275471 -0.03814648 -0.04982123
v 0.03382987 -0.03432364 -0.01726269
v 0.04044881 -0.00822577 -0.01345333
v 0.04078631 -0.00406764 -0.01018676
v 0.04060420 -0.00278335 -0.01367673
v 0.04036868 -0.00780318 -0.01464811
v 0.04079329 -0.00759033 -0.00798796
v 0.04091388 -0.00792428 -0.00396738
v 0.03684589 -0.02977970 -0.01308202
v 0.03556116 -0.03012237 -0.01922773
v 0.04048635 -0.01044470 -0.01139571
v 0.04018601 -0.00507510 -0.01775098
v 0.03504347 -0.03516372 -0.00222740
v 0.03547843 -0.03437186 -0.00512001
v 0.03571211 -0.03209331 -0.01435603
v 0.03161227 -0.03782290 -0.01347030
v 0.03930915 -0.02397973 -0.00225580
v 0.03140635 -0.03781533 -0.01448601
v 0.03630653 -0.02810582 -0.01931338
v 0.03707310 -0.03101707 -0.00579606
v 0.03946223 -0.02292458 -0.00360214
v 0.03956547 -0.00787081 -0.02082937
v 0.03203327 -0.00208855 -0.04999944
v 0.01856139 -0.03890612 -0.02525236
v 0.00087287 -0.03992144 -0.04241452
v 0.03612993 -0.03092025 -0.01480311
v 0.04020233 -0.01149315 -0.01438911
v 0.04072151 -0.01255400 -0.00008404
v 0.04027220 -0.00816376 -0.01559989
v 0.03325344 -0.01169206 -0.04988897
v 0.04035620 -0.01570304 -0.00644246
v 0.03574018 -0.03305732 -0.01075681
v 0.03740062 -0.02509723 -0.01849849
v 0.03977328 -0.00168597 -0.02054199
v 0.04093266 -0.00346787 -0.00644816
v 0.03190996 -0.03686551 -0.01656898
v 0.04044296 -0.01610769 -0.00078451
v 0.03421963 -0.03651738 -0.00443696
v 0.02695884 -0.02659394 -0.04998776
v 0.04085893 -0.00569587 -0.00789297
v 0.03480201 -0.03560760 -0.00293953
v 0.04011640 -0.00323264 -0.01857951
v 0.03534665 -0.03369605 -0.01119589
v 0.04052662 -0.00817655 -0.01253110
v 0.03932360 -0.01511598 -0.01805574
v 0.00002024 -0.03893191 -0.04376898
v 0.04052315 -0.01302334 -0.00773285
v 0.03735776 -0.03010116 -0.00673412
v 0.03099083 -0.03194526 -0.00016970
v 0.03470777 -0.03495032 -0.01090879
v 0.00510455 -0.03955069 -0.02683953
v 0.03508101 -0.03493400 -0.00122612
v 0.00094092 -0.03991367 -0.04103388
v 0.03811008 -0.02830965 -0.00093226
v 0.03431127 -0.03634095 -0.00233011
v 0.03872332 -0.01498910 -0.02117236
v 0.00016258 -0.03990053 -0.03856383
v 0.00003581 -0.03951552 -0.02617333
v 0.04092028 -0.00150399 -0.00792237
v 0.04102636 -0.00102720 -0.00014476
v 0.03276716 -0.00005487 -0.04678787
v 0.03981102 -0.00248516 -0.02035666
v 0.04065578 -0.01254260 -0.00546683
v 0.03978702 -0.02125444 -0.00062631
v 0.04067947 -0.00600477 -0.01154529
v 0.03584700 -0.03360708 -0.00620007
v 0.03409945 -0.03248990 -0.02040369
v 0.04019105 -0.01753566 -0.00661391
v 0.03655470 -0.02992976 -0.01466925
v 0.04043073 -0.00898613 -0.01321704
v 0.03647448 -0.03241597 -0.00521473
v 0.03756152 -0.02943001 -0.00739840
v 0.04093535 -0.00742573 -0.00049862
v 0.03408203 -0.03335259 -0.01861558
v 0.04095628 -0.00348574 -0.00454877
v 0.04065958 -0.00803697 -0.01077549
v 0.03647131 -0.02747884 -0.01951506
v 0.00070874 -0.03992982 -0.04977503
v 0.02344411 -0.00087808 -0.04915821
v 0.04092163 -0.00028638 -0.00789557
v 0.04083414 -0.01039773 -0.00089995
v 0.04022942 -0.01526317 -0.01000349
v 0.03619065 -0.02959928 -0.01729462
v 0.03450424 -0.03608636 -0.00365846
v 0.03397495 -0.03313306 -0.01948455
v 0.03360624 -0.03717495 -0.00565989
v 0.03992503 -0.01811233 -0.00931238
v 0.00059281 -0.03987308 -0.03660621
v 0.03891208 -0.02227003 -0.01290707
v 0.04053652 -0.00140499 -0.01468979
v 0.04082101 -0.00038893 -0.00990709
v 0.04007528 -0.01572888 -0.01150671
v 0.02957461 -0.03804705 -0.01719488
v 0.04094464 -0.00392797 -0.00523547
v 0.04098217 -0.00399088 -0.00103356
v 0.03315462 -0.03714549 -0.01031401
v 0.04097705 -0.00013379 -0.00399247
v 0.03580551 -0.03172338 -0.01472978
v 0.03718176 -0.03014057 -0.00898394
v 0.04093578 -0.00156901 -0.00680378
v 0.03803682 -0.02763476 -0.00871883
v 0.03489036 -0.03314858 -0.01581883
v 0.03554742 -0.03094527 -0.01788333
v 0.03932760 -0.01934623 -0.01400500
v 0.03610035 -0.03299595 -0.00760365
v 0.04022935 -0.01803633 -0.00352829
v 0.04093987 -0.00558303 -0.00419762
v 0.04060208 -0.00220451 -0.01381349
v 0.03423945 -0.03401452 -0.01656334
v 0.04101269 -0.00016288 -0.00149465
v 0.03372385 -0.03677718 -0.00205098
v 0.04008893 -0.00147761 -0.01892537
v 0.03871129 -0.02490686 -0.00909422
v 0.04014308 -0.01868941 -0.00416842
v 0.00007631 -0.03988886 -0.03749798
v 0.03964215 -0.01258336 -0.01788311
v 0.04020685 -0.01833564 -0.00309391
v 0.03302827 -0.03734016 -0.00544370
v 0.00064543 -0.03992789 -0.04335616
v 0.03988360 -0.00695041 -0.01919948
v 0.04064316 -0.01343238 -0.00368051
v 0.04074256 -0.00520223 -0.01064280
v 0.04095981 -0.00193396 -0.00500009
v 0.01536024 -0.00000219 -0.04562587
v 0.03270951 -0.03754648 -0.00961782
v 0.04022233 -0.01697648 -0.00709364
v 0.04038075 -0.01568007 -0.00583361
v 0.04023295 -0.00778132 -0.01622701
v 0.04064152 -0.01227443 -0.00657153
v 0.03246858 -0.03616581 -0.01697973
v 0.04012093 -0.01912070 -0.00274892
v 0.04034210 -0.01411436 -0.00955921
v 0.03346417 -0.03613719 -0.01317880
v 0.04084088 -0.00330942 -0.00937769
v 0.04098068 -0.00200136 -0.00342194
v 0.04007651 -0.01734672 -0.00889841
v 0.03989849 -0.02031365 -0.00478936
v 0.03495838 -0.03519284 -0.00648648
v 0.04059883 -0.00980628 -0.01036554
v 0.04077201 -0.00334198 -0.01072147
v 0.04099131 -0.00167484 -0.00275329
v 0.03627187 -0.03238687 -0.00881044
v 0.03804636 -0.02780046 -0.00803338
v 0.03835669 -0.01787885 -0.02112759
v 0.03667503 -0.03099684 -0.01085513
v 0.03976693 -0.02109385 -0.00487750
v 0.03935915 -0.01948695 -0.01362893
v 0.03995811 -0.02016343 -0.00339414
v 0.03015055 -0.03794315 -0.01726533
v 0.03739310 -0.02957920 -0.00896864
v 0.04015338 -0.00859873 -0.01666400
v 0.03796183 -0.02030543 -0.02103691
v 0.02070312 -0.03430470 -0.04972873
v 0.02705357 -0.02840693 -0.04975473
v 0.04033291 -0.00417909 -0.01635768
v 0.04071485 -0.01120796 -0.00572099
v 0.04071806 -0.01127125 -0.00544599
v 0.03602499 -0.03013978 -0.01712609
v 0.04000905 -0.01443735 -0.01359509
v 0.03590136 -0.03247656 -0.01185254
v 0.04091470 -0.00833964 -0.00294937
v 0.00076753 -0.03990774 -0.03987001
v 0.03663842 -0.03202845 -0.00601315
v 0.04062568 -0.00832687 -0.01113768
v 0.04044926 -0.00035913 -0.01567931
v 0.01161397 -0.03929034 -0.02618839
v 0.03953972 -0.01959007 -0.01129150
v 0.03549092 -0.03412653 -0.00086500
v 0.03618372 -0.02772750 -0.02051032
v 0.01178362 -0.03847813 -0.04981763
v 0.04088195 -0.00798853 -0.00500081
v 0.00142841 -0.03990618 -0.04292086
v 0.03428969 -0.03641342 -0.00456070
v 0.03357051 -0.03298269 -0.02107859
v 0.04008859 -0.00880806 -0.01703236
v 0.04068773 -0.00873224 -0.00958847
f 541 62 430
f 104 62 674
f 610 62 550
f 62 541 550
f 573 249 256
f 256 104 674
f 430 62 284
f 62 104 284
f 104 256 284
f 77 611 674
f 674 411 77
f 674 62 197
f 197 411 674
f 674 611 343
f 343 256 674
f 611 256 343
f 302 547 367
f 367 541 302
f 610 550 474
f 478 474 550
f 547 474 478
f 478 550 541
f 628 500 134
f 233 699 118
f 573 419 42
f 629 256 249
f 629 284 256
f 629 249 430
f 430 284 629
f 411 197 387
f 611 77 387
f 387 77 411
f 387 197 62
f 62 647 387
f 387 42 419
f 660 647 62
f 660 62 610
f 153 660 610
f 29 249 573
f 573 300 29
f 145 29 300
f 78 145 300
f 78 300 573
f 573 42 78
f 198 302 470
f 547 302 198
f 608 302 541
f 608 541 157
f 610 474 269
f 269 474 148
f 367 547 184
f 547 478 184
f 547 198 465
f 465 198 470
f 530 134 500
f 157 541 530
f 430 249 53
f 134 530 53
f 249 29 53
f 29 145 53
f 628 134 53
f 53 145 628
f 596 608 157
f 459 608 596
f 157 530 596
f 342 500 628
f 573 256 4
f 4 419 573
f 172 387 51
f 42 387 172
f 286 660 57
f 660 153 57
f 599 541 367
f 599 177 541
f 367 184 599
f 599 184 478
f 510 78 589
f 79 42 272
f 79 78 42
f 272 589 79
f 589 78 79
f 136 35 472
f 472 35 302
f 302 608 39
f 361 589 272
f 233 510 361
f 361 510 589
f 504 361 272
f 324 361 504
f 272 42 32
f 377 465 470
f 430 53 403
f 403 53 530
f 403 541 430
f 403 530 541
f 80 530 500
f 500 596 80
f 80 596 530
f 500 342 281
f 281 596 500
f 459 596 281
f 501 118 699
f 720 551 501
f 501 510 720
f 501 486 510
f 299 256 611
f 299 4 256
f 611 387 299
f 387 4 299
f 328 387 419
f 419 4 328
f 328 4 387
f 286 57 467
f 483 599 478
f 483 478 541
f 233 118 458
f 458 510 233
f 458 501 551
f 458 551 720
f 720 510 458
f 145 78 250
f 78 510 250
f 628 145 250
f 275 35 136
f 275 265 35
f 35 265 312
f 470 302 312
f 302 35 312
f 661 312 265
f 446 548 346
f 346 217 446
f 373 153 610
f 373 227 153
f 610 269 99
f 214 57 153
f 153 227 174
f 636 521 588
f 636 489 646
f 636 661 136
f 233 361 418
f 115 361 324
f 646 154 447
f 688 521 600
f 600 382 646
f 583 481 375
f 272 32 212
f 375 481 212
f 205 212 32
f 465 377 247
f 485 521 688
f 474 203 578
f 151 326 402
f 402 377 151
f 151 207 326
f 646 489 295
f 295 154 646
f 489 154 295
f 386 486 643
f 42 172 141
f 141 160 42
f 141 172 51
f 177 599 144
f 599 483 144
f 541 177 144
f 144 483 541
f 118 501 417
f 417 458 118
f 501 458 417
f 628 250 222
f 222 250 510
f 222 202 628
f 386 574 222
f 222 574 202
f 108 608 459
f 130 549 42
f 195 203 301
f 31 373 610
f 31 327 373
f 106 467 57
f 153 174 691
f 691 174 685
f 546 248 148
f 148 474 546
f 39 668 436
f 302 39 436
f 136 472 436
f 436 472 302
f 363 636 136
f 374 636 363
f 548 374 192
f 346 548 192
f 192 217 346
f 646 382 507
f 507 636 646
f 521 636 507
f 507 600 521
f 382 600 507
f 264 600 646
f 236 600 264
f 233 418 703
f 63 703 418
f 64 418 361
f 361 115 64
f 431 504 272
f 646 447 291
f 548 447 675
f 489 636 675
f 675 154 489
f 675 447 154
f 279 171 166
f 72 600 236
f 481 583 126
f 719 212 481
f 212 205 406
f 498 205 32
f 32 261 498
f 580 32 42
f 580 261 32
f 580 498 261
f 465 247 604
f 170 578 376
f 376 578 203
f 470 718 274
f 274 377 470
f 274 151 377
f 628 202 722
f 669 281 342
f 386 643 73
f 486 13 73
f 73 643 486
f 548 446 73
f 73 574 386
f 446 574 73
f 584 141 51
f 42 160 180
f 180 130 42
f 347 130 180
f 484 222 510
f 463 486 386
f 386 222 463
f 222 484 463
f 510 486 463
f 312 661 605
f 605 636 588
f 661 636 605
f 634 605 588
f 326 591 49
f 49 485 688
f 326 207 238
f 70 718 470
f 563 238 2
f 326 238 563
f 314 108 459
f 217 192 226
f 226 192 668
f 608 108 310
f 310 39 608
f 310 668 39
f 380 498 694
f 461 124 24
f 142 461 437
f 437 651 415
f 437 461 89
f 89 651 437
f 89 461 44
f 313 195 614
f 195 301 614
f 362 301 203
f 547 465 362
f 362 474 547
f 362 203 474
f 28 412 480
f 412 28 444
f 45 714 626
f 474 578 243
f 396 363 136
f 136 436 396
f 396 436 668
f 668 192 396
f 374 363 396
f 396 192 374
f 646 291 482
f 193 482 338
f 482 193 683
f 683 264 646
f 646 482 683
f 259 115 324
f 504 431 617
f 431 523 617
f 330 501 699
f 486 501 330
f 330 13 486
f 114 330 699
f 233 703 438
f 703 63 438
f 252 374 548
f 548 675 252
f 252 636 374
f 252 675 636
f 598 604 570
f 402 713 570
f 402 326 621
f 621 713 402
f 437 306 94
f 272 502 96
f 96 431 272
f 96 523 431
f 456 171 383
f 600 432 120
f 171 432 508
f 508 432 600
f 600 72 508
f 272 212 439
f 439 719 272
f 212 719 439
f 58 126 20
f 481 126 58
f 58 719 481
f 20 126 12
f 12 126 583
f 205 46 364
f 364 406 205
f 364 583 375
f 375 212 364
f 212 406 364
f 702 498 380
f 205 498 702
f 42 549 329
f 329 580 42
f 549 580 329
f 34 580 549
f 511 580 34
f 514 444 642
f 235 604 287
f 465 604 235
f 287 362 235
f 235 362 465
f 281 527 607
f 50 314 459
f 638 314 50
f 254 446 217
f 217 638 254
f 100 574 446
f 202 574 100
f 603 527 281
f 5 342 628
f 5 669 342
f 450 285 51
f 23 180 160
f 347 180 23
f 160 141 23
f 141 584 23
f 255 484 510
f 510 463 255
f 255 463 484
f 723 634 588
f 588 521 723
f 591 605 441
f 605 634 441
f 113 49 564
f 326 49 113
f 312 605 288
f 288 605 591
f 529 591 326
f 326 563 529
f 563 288 529
f 529 288 591
f 2 70 162
f 162 563 2
f 519 108 200
f 108 314 200
f 519 200 97
f 97 200 314
f 97 638 217
f 97 314 638
f 176 108 519
f 176 310 108
f 668 310 25
f 310 176 25
f 25 176 519
f 229 150 678
f 322 150 229
f 277 694 498
f 356 142 437
f 349 89 44
f 651 89 349
f 651 349 693
f 693 260 287
f 487 614 473
f 311 362 287
f 480 412 709
f 493 412 479
f 493 709 412
f 480 709 493
f 701 229 678
f 395 336 571
f 696 336 44
f 696 571 336
f 159 696 534
f 412 444 209
f 479 412 209
f 209 694 426
f 194 88 209
f 93 444 654
f 93 702 380
f 325 626 714
f 45 626 590
f 181 325 92
f 626 325 181
f 460 590 181
f 181 590 626
f 714 190 81
f 658 322 423
f 322 21 423
f 488 150 322
f 327 31 143
f 657 31 610
f 546 243 128
f 449 657 416
f 248 546 623
f 297 578 170
f 297 243 578
f 170 408 297
f 1 291 447
f 1 482 291
f 447 253 1
f 338 482 1
f 401 193 338
f 338 1 401
f 401 1 253
f 264 683 399
f 704 259 324
f 69 259 704
f 704 445 69
f 324 504 704
f 504 445 704
f 166 171 659
f 504 617 724
f 724 617 69
f 724 445 504
f 69 445 724
f 330 114 568
f 568 253 447
f 117 114 63
f 117 568 114
f 193 401 84
f 115 193 84
f 84 680 115
f 122 63 418
f 418 64 122
f 63 114 183
f 183 438 63
f 183 114 699
f 183 699 233
f 233 438 183
f 437 415 700
f 215 604 247
f 247 570 215
f 215 570 604
f 402 570 188
f 188 570 247
f 188 377 402
f 188 247 377
f 48 570 713
f 48 306 437
f 598 570 48
f 713 655 61
f 61 48 713
f 331 61 655
f 523 96 137
f 137 617 523
f 37 540 719
f 323 96 502
f 323 137 96
f 517 137 323
f 171 279 652
f 652 383 171
f 517 503 101
f 633 18 708
f 320 124 461
f 525 364 46
f 525 12 583
f 583 364 525
f 313 614 468
f 468 195 313
f 513 444 28
f 513 642 444
f 60 466 679
f 298 11 671
f 453 677 298
f 298 677 11
f 671 210 112
f 671 408 292
f 292 210 671
f 292 408 170
f 587 475 376
f 587 376 203
f 587 203 195
f 459 281 665
f 281 607 665
f 665 50 459
f 527 712 33
f 33 712 147
f 638 50 33
f 33 147 638
f 149 360 350
f 350 254 149
f 149 254 178
f 638 147 178
f 178 254 638
f 446 254 119
f 716 100 446
f 360 100 716
f 716 119 360
f 446 119 716
f 360 722 54
f 54 100 360
f 535 722 202
f 202 100 535
f 535 54 722
f 100 54 535
f 152 603 149
f 527 603 152
f 152 712 527
f 628 722 371
f 722 545 371
f 371 5 628
f 251 545 722
f 149 603 251
f 251 360 149
f 251 722 360
f 492 15 130
f 634 723 38
f 521 485 38
f 38 723 521
f 41 49 591
f 591 441 41
f 485 49 41
f 392 331 655
f 602 70 470
f 602 162 70
f 217 226 601
f 601 97 217
f 270 226 354
f 354 25 270
f 354 226 668
f 668 25 354
f 442 25 519
f 270 25 442
f 285 450 276
f 169 670 15
f 285 276 317
f 240 580 511
f 91 87 315
f 94 331 695
f 437 94 695
f 695 356 437
f 663 168 349
f 44 336 663
f 663 349 44
f 129 415 651
f 651 693 129
f 110 168 567
f 395 473 567
f 567 473 110
f 260 693 421
f 287 260 421
f 421 693 349
f 349 168 421
f 110 473 348
f 351 168 110
f 8 493 163
f 163 493 479
f 480 493 16
f 16 642 480
f 16 493 8
f 271 701 139
f 139 163 271
f 395 571 40
f 40 473 395
f 487 473 40
f 40 696 487
f 571 696 40
f 175 112 210
f 453 298 175
f 479 209 305
f 305 209 87
f 595 209 426
f 393 209 88
f 654 46 344
f 344 93 654
f 344 46 205
f 205 702 344
f 702 93 344
f 7 209 444
f 444 93 7
f 694 209 7
f 380 694 7
f 7 93 380
f 594 325 714
f 689 190 714
f 714 81 620
f 620 594 714
f 139 594 620
f 658 423 555
f 372 21 322
f 322 494 372
f 372 494 204
f 204 705 372
f 322 229 434
f 434 494 322
f 658 220 158
f 158 322 658
f 678 150 109
f 322 518 358
f 358 488 322
f 610 645 263
f 227 373 625
f 68 263 645
f 201 68 645
f 201 645 610
f 610 99 201
f 631 128 243
f 243 297 631
f 631 297 128
f 171 508 213
f 213 659 171
f 135 193 115
f 115 399 135
f 135 683 193
f 135 399 683
f 115 259 552
f 635 617 166
f 69 617 635
f 635 259 69
f 635 552 259
f 477 399 115
f 115 552 477
f 477 552 659
f 330 568 566
f 566 73 13
f 13 330 566
f 548 73 566
f 566 447 548
f 566 568 447
f 253 568 389
f 568 117 389
f 586 117 63
f 63 122 586
f 586 389 117
f 115 680 586
f 586 122 115
f 680 84 586
f 253 389 586
f 586 401 253
f 586 84 401
f 230 64 115
f 115 122 230
f 230 122 64
f 437 700 649
f 649 48 437
f 306 48 365
f 48 61 365
f 103 120 456
f 600 120 103
f 692 331 94
f 61 331 692
f 537 137 517
f 272 719 532
f 532 540 272
f 719 540 532
f 517 37 239
f 26 502 272
f 272 323 26
f 26 323 502
f 560 37 517
f 540 37 560
f 272 540 560
f 653 503 517
f 653 239 708
f 517 239 653
f 456 383 565
f 565 443 456
f 565 101 443
f 461 142 559
f 559 320 461
f 142 356 559
f 18 422 543
f 543 320 18
f 124 320 543
f 543 24 124
f 462 36 708
f 719 58 627
f 627 569 719
f 18 633 308
f 121 37 719
f 719 569 121
f 569 308 121
f 121 308 633
f 316 639 44
f 44 461 316
f 20 12 316
f 461 24 316
f 24 543 316
f 316 422 20
f 316 543 422
f 12 525 290
f 290 316 12
f 639 316 290
f 46 639 290
f 290 525 46
f 309 34 549
f 280 614 487
f 497 468 614
f 614 280 497
f 444 82 397
f 397 82 686
f 686 82 429
f 637 76 686
f 499 676 679
f 581 676 499
f 224 60 679
f 196 676 581
f 11 677 196
f 98 292 258
f 210 292 98
f 195 475 334
f 334 587 195
f 475 587 334
f 545 251 575
f 575 251 603
f 281 669 575
f 575 603 281
f 469 95 161
f 450 95 469
f 161 317 469
f 469 317 276
f 640 95 220
f 640 220 658
f 658 555 640
f 640 555 423
f 640 423 21
f 640 372 705
f 21 372 640
f 220 95 715
f 715 95 450
f 612 492 23
f 347 23 43
f 23 492 43
f 43 130 347
f 43 492 130
f 164 38 485
f 634 38 164
f 9 392 655
f 173 113 564
f 234 601 405
f 97 601 234
f 234 405 519
f 519 405 390
f 390 442 519
f 303 705 204
f 303 640 705
f 229 701 562
f 562 303 204
f 562 434 229
f 204 494 562
f 494 434 562
f 337 169 15
f 337 562 169
f 317 562 337
f 606 88 194
f 606 240 88
f 509 240 511
f 88 240 509
f 580 240 237
f 498 580 237
f 237 277 498
f 91 315 167
f 549 130 307
f 130 15 307
f 87 209 666
f 666 315 87
f 209 393 666
f 356 695 10
f 456 443 10
f 457 336 395
f 457 663 336
f 168 663 457
f 395 567 457
f 457 567 168
f 622 129 693
f 622 604 598
f 415 129 622
f 287 604 622
f 622 693 287
f 622 700 415
f 341 311 287
f 287 421 341
f 341 421 168
f 341 351 311
f 168 351 341
f 52 348 473
f 52 473 614
f 520 167 315
f 487 696 687
f 687 404 487
f 335 175 425
f 425 175 210
f 654 444 697
f 400 696 44
f 400 534 696
f 194 209 74
f 209 595 74
f 27 701 678
f 139 701 27
f 440 590 460
f 449 318 440
f 17 19 440
f 440 318 17
f 190 689 561
f 8 81 561
f 561 81 190
f 187 16 8
f 187 689 16
f 139 620 577
f 577 620 81
f 577 81 8
f 8 163 577
f 577 163 139
f 531 181 92
f 92 615 531
f 92 488 414
f 414 615 92
f 150 488 345
f 345 488 92
f 554 414 90
f 294 409 333
f 6 691 685
f 6 409 460
f 460 409 526
f 526 440 460
f 449 440 526
f 558 318 449
f 610 155 359
f 613 11 679
f 671 11 613
f 613 3 671
f 476 408 671
f 671 3 476
f 219 3 266
f 219 476 3
f 408 476 219
f 55 623 546
f 179 641 220
f 179 715 450
f 179 450 51
f 220 715 179
f 647 424 179
f 51 387 179
f 179 387 647
f 186 641 398
f 659 213 369
f 399 477 369
f 166 659 624
f 624 635 166
f 538 537 517
f 538 517 279
f 538 279 166
f 464 323 272
f 272 560 464
f 517 323 464
f 464 560 517
f 708 36 289
f 289 653 708
f 648 101 503
f 443 101 648
f 648 576 443
f 216 559 356
f 320 559 216
f 18 320 216
f 708 18 216
f 443 576 47
f 47 462 443
f 681 404 664
f 664 132 681
f 221 475 195
f 195 468 221
f 664 175 656
f 656 175 335
f 656 98 258
f 514 642 107
f 679 676 524
f 524 224 679
f 370 385 376
f 376 475 370
f 355 276 450
f 450 469 355
f 355 469 276
f 161 95 182
f 95 640 182
f 182 303 161
f 640 303 182
f 492 612 662
f 285 317 662
f 113 173 616
f 616 173 392
f 392 9 616
f 701 271 353
f 353 562 701
f 420 562 317
f 303 562 420
f 420 317 161
f 161 303 420
f 592 662 317
f 492 662 592
f 15 492 592
f 572 309 549
f 549 307 572
f 710 103 456
f 456 10 710
f 127 614 301
f 127 52 614
f 632 16 267
f 16 689 278
f 428 123 19
f 30 305 271
f 315 307 366
f 366 520 315
f 271 520 366
f 15 670 366
f 366 307 15
f 366 670 241
f 241 536 366
f 539 637 686
f 76 637 512
f 512 696 159
f 717 76 512
f 159 534 512
f 512 388 717
f 534 388 512
f 208 175 664
f 208 687 175
f 686 138 505
f 505 539 686
f 206 466 321
f 466 60 321
f 444 397 433
f 199 697 388
f 199 639 46
f 199 388 534
f 534 400 199
f 199 46 654
f 654 697 199
f 211 594 139
f 139 27 211
f 579 27 678
f 325 594 553
f 22 440 19
f 181 531 455
f 244 414 488
f 90 414 244
f 339 414 460
f 615 414 339
f 232 109 150
f 150 345 232
f 460 67 156
f 156 6 460
f 673 6 156
f 153 673 156
f 644 333 227
f 294 333 644
f 227 625 644
f 585 6 685
f 409 6 585
f 522 409 294
f 522 526 409
f 544 526 143
f 449 526 544
f 327 143 283
f 143 526 283
f 68 201 711
f 263 68 711
f 610 263 711
f 610 359 14
f 14 657 610
f 416 657 14
f 155 558 146
f 146 359 155
f 146 558 449
f 266 3 133
f 3 613 133
f 408 185 75
f 185 273 75
f 75 297 408
f 75 273 297
f 128 297 86
f 297 273 86
f 86 185 128
f 86 273 185
f 506 55 546
f 546 128 506
f 128 185 506
f 185 59 506
f 116 158 220
f 116 186 158
f 220 641 116
f 641 186 116
f 125 111 158
f 158 186 125
f 140 477 659
f 659 369 140
f 140 369 477
f 331 392 319
f 319 392 688
f 688 600 319
f 225 710 331
f 331 319 225
f 225 319 384
f 443 462 619
f 619 462 708
f 708 216 619
f 189 280 487
f 487 698 189
f 468 497 189
f 189 497 280
f 404 681 296
f 487 404 296
f 296 698 487
f 391 221 468
f 132 221 391
f 391 681 132
f 667 132 664
f 664 656 667
f 667 656 258
f 385 370 667
f 332 16 632
f 642 16 332
f 332 107 642
f 516 353 536
f 562 353 516
f 516 536 241
f 169 562 516
f 317 337 218
f 218 592 317
f 218 337 15
f 15 592 218
f 490 710 10
f 451 267 16
f 282 428 491
f 282 714 45
f 282 689 714
f 123 428 282
f 679 491 242
f 491 428 242
f 242 56 679
f 357 428 19
f 357 19 17
f 495 271 163
f 495 30 271
f 479 305 407
f 305 30 407
f 725 353 271
f 271 366 725
f 618 505 138
f 175 687 618
f 453 175 618
f 676 196 618
f 618 196 677
f 539 505 262
f 637 539 262
f 262 618 687
f 505 618 262
f 262 512 637
f 262 687 696
f 696 512 262
f 528 697 444
f 444 433 528
f 44 639 293
f 639 199 293
f 293 400 44
f 293 199 400
f 27 553 340
f 340 553 594
f 27 579 556
f 556 448 27
f 92 448 556
f 556 345 92
f 726 282 45
f 123 282 726
f 45 590 726
f 460 181 515
f 181 455 515
f 515 339 460
f 379 358 518
f 488 358 379
f 379 244 488
f 398 641 630
f 630 179 424
f 641 179 630
f 467 106 630
f 657 449 452
f 449 544 452
f 679 56 83
f 318 558 427
f 558 435 427
f 542 711 201
f 201 506 542
f 542 506 59
f 542 219 266
f 558 711 542
f 266 558 542
f 408 219 542
f 542 185 408
f 542 59 185
f 706 613 679
f 706 83 435
f 679 83 706
f 706 435 558
f 558 165 706
f 111 125 410
f 384 319 593
f 600 103 593
f 593 319 600
f 103 710 582
f 710 225 582
f 352 667 258
f 385 667 352
f 429 107 191
f 107 332 191
f 686 429 191
f 191 138 686
f 191 332 206
f 676 618 191
f 191 618 138
f 378 10 695
f 378 490 10
f 267 451 231
f 231 65 267
f 231 491 679
f 682 65 597
f 65 231 597
f 679 466 597
f 597 231 679
f 105 278 689
f 689 282 105
f 246 242 428
f 246 357 17
f 428 357 246
f 304 211 27
f 27 340 304
f 123 726 557
f 557 22 19
f 440 22 557
f 590 440 557
f 557 726 590
f 690 518 322
f 690 379 518
f 684 67 672
f 684 156 67
f 684 379 156
f 684 554 90
f 672 414 684
f 414 554 684
f 90 244 684
f 244 379 684
f 102 630 106
f 609 102 66
f 650 214 153
f 650 609 214
f 318 427 721
f 721 427 471
f 613 706 707
f 394 706 165
f 394 558 266
f 394 165 558
f 676 191 454
f 206 321 454
f 454 191 206
f 491 231 245
f 245 231 451
f 16 491 245
f 245 451 16
f 496 268 632
f 632 267 496
f 381 246 471
f 242 246 381
f 471 427 381
f 19 123 413
f 413 557 19
f 123 557 413
f 322 158 71
f 71 690 322
f 379 690 533
f 398 156 533
f 156 379 533
f 533 690 111
f 111 410 533
f 630 102 228
f 228 156 398
f 398 630 228
f 228 102 609
f 609 66 223
f 214 609 223
f 153 156 85
f 85 650 153
f 368 394 266
f 706 394 368
f 368 707 706
f 682 268 131
f 268 496 131
f 257 65 682
f 682 131 257
f 265 275 661
f 661 275 136
f 207 151 70
f 70 238 207
f 70 274 718
f 151 274 70
f 2 238 70
f 243 546 474
f 120 432 171
f 120 171 456
f 480 642 513
f 513 28 480
f 33 665 607
f 33 607 527
f 50 665 33
f 254 350 119
f 119 350 360
f 147 712 152
f 149 178 152
f 152 178 147
f 312 288 602
f 470 312 602
f 602 288 563
f 563 162 602
f 671 112 175
f 175 298 671
f 692 94 306
f 306 365 692
f 692 365 61
f 565 652 279
f 279 517 565
f 383 652 565
f 517 101 565
f 20 422 308
f 308 58 20
f 308 422 18
f 308 627 58
f 569 627 308
f 708 239 121
f 121 633 708
f 121 239 37
f 196 499 679
f 679 11 196
f 581 499 196
f 5 371 575
f 669 5 575
f 575 371 545
f 164 441 634
f 485 41 164
f 164 41 441
f 173 49 688
f 564 49 173
f 688 392 173
f 519 97 234
f 390 601 226
f 390 226 270
f 405 601 390
f 270 442 390
f 48 649 622
f 622 649 700
f 598 48 622
f 520 87 91
f 520 305 87
f 271 305 520
f 91 167 520
f 74 237 240
f 426 694 74
f 74 606 194
f 694 277 74
f 74 595 426
f 277 237 74
f 240 606 74
f 187 561 689
f 8 561 187
f 672 67 414
f 414 67 460
f 6 673 153
f 153 691 6
f 236 264 369
f 369 508 72
f 369 72 236
f 369 213 508
f 264 399 369
f 552 635 624
f 659 552 624
f 166 617 538
f 617 137 538
f 137 537 538
f 36 462 47
f 503 653 47
f 47 289 36
f 47 648 503
f 576 648 47
f 653 289 47
f 335 425 656
f 210 98 656
f 656 425 210
f 107 82 444
f 107 444 514
f 107 429 82
f 51 285 662
f 662 584 51
f 662 23 584
f 662 612 23
f 713 621 616
f 616 621 326
f 616 655 713
f 326 113 616
f 616 9 655
f 572 509 511
f 572 307 315
f 511 34 572
f 572 393 88
f 34 309 572
f 88 509 572
f 315 666 572
f 572 666 393
f 301 362 127
f 127 351 110
f 362 311 127
f 110 348 127
f 311 351 127
f 348 52 127
f 404 687 208
f 664 404 208
f 553 448 92
f 92 325 553
f 27 448 553
f 685 174 585
f 585 174 227
f 227 333 585
f 585 333 409
f 373 327 283
f 283 625 373
f 283 522 294
f 294 644 283
f 283 644 625
f 526 522 283
f 711 155 610
f 711 558 155
f 416 14 146
f 146 449 416
f 146 14 359
f 506 269 148
f 506 99 269
f 148 248 506
f 248 623 506
f 623 55 506
f 506 201 99
f 619 10 443
f 619 216 356
f 356 10 619
f 468 189 391
f 698 296 391
f 391 189 698
f 391 296 681
f 667 370 475
f 475 221 667
f 667 221 132
f 670 169 516
f 241 670 516
f 407 163 479
f 407 495 163
f 30 495 407
f 725 366 536
f 536 353 725
f 618 677 453
f 717 388 528
f 528 76 717
f 686 76 528
f 528 397 686
f 388 697 528
f 528 433 397
f 678 109 556
f 556 579 678
f 109 232 556
f 556 232 345
f 515 455 531
f 515 531 615
f 615 339 515
f 647 660 630
f 630 660 286
f 286 467 630
f 630 424 647
f 31 657 452
f 452 143 31
f 452 544 143
f 582 225 384
f 582 593 103
f 384 593 582
f 352 292 170
f 170 376 352
f 258 292 352
f 376 385 352
f 378 695 331
f 331 710 378
f 710 490 378
f 206 332 597
f 597 466 206
f 597 332 632
f 632 268 597
f 597 268 682
f 16 278 105
f 105 491 16
f 105 282 491
f 304 340 594
f 594 211 304
f 721 246 17
f 17 318 721
f 471 246 721
f 454 524 676
f 224 524 454
f 60 224 454
f 454 321 60
f 381 83 56
f 56 242 381
f 435 83 381
f 381 427 435
f 111 690 71
f 158 111 71
f 533 186 398
f 533 125 186
f 533 410 125
f 223 106 57
f 57 214 223
f 223 66 102
f 223 102 106
f 609 650 85
f 156 228 85
f 85 228 609
f 368 133 613
f 266 133 368
f 613 707 368
f 257 496 267
f 267 65 257
f 257 131 496

