# https://github.com/mikedh/trimesh
v -0.03987189 0.00556889 0.01964707
v -0.03972868 0.00828627 0.01947984
v -0.03989911 0.01309308 0.01529115
v -0.03736857 0.02749510 0.00267840
v -0.03075785 0.00134151 0.03247040
v -0.04015171 0.01030167 0.00454283
v -0.03642391 0.02851127 0.00628110
v -0.03601239 0.01529338 0.02600019
v -0.03978089 0.01312426 0.01619264
v -0.04015059 0.01227209 0.00074022
v -0.04015085 0.00720563 0.00700465
v -0.04015122 0.01114907 0.00452288
v -0.03988521 0.01987204 0.00221079
v -0.04014661 0.01445067 0.00961774
v -0.03529978 0.00030303 0.03150233
v -0.03741022 0.02740560 0.00262232
v -0.03420961 0.03246454 0.00253824
v -0.03636329 0.02584261 0.01399356
v -0.03927333 0.00302597 0.02286251
v -0.03977692 0.01448527 0.01494363
v -0.04004150 0.00701064 0.01802119
v -0.03817116 0.02292150 0.01183742
v -0.03078849 0.00520472 0.03207470
v -0.03344073 0.03065560 0.01197444
v -0.03491655 0.01941652 0.02528815
v -0.04010042 0.01852442 0.00198042
v -0.03954001 0.01935486 0.00982807
v -0.03704241 0.02720548 0.00763959
v -0.03091338 0.02684990 0.01802742
v -0.03491445 0.03164265 0.00151262
v -0.03463357 0.01103400 0.03054519
v -0.03094607 0.02531540 0.02037830
v -0.03803029 0.00771925 0.02522371
v -0.03484414 0.02652246 0.01765540
v -0.03837016 0.00325736 0.02548763
v -0.03852376 0.02475159 0.00260762
v -0.03101224 0.00011904 0.03042565
v -0.03431076 0.02196715 0.02421933
v -0.03401701 0.00710239 0.03235549
v -0.04015087 0.01066385 0.00577769
v -0.03250073 0.01331998 0.03034845
v -0.03249535 0.03008303 0.01349068
v -0.04014964 0.01359438 0.00076772
v -0.03302008 0.03007373 0.01353871
v -0.03688336 0.00444632 0.02855690
v -0.03104255 0.01920625 0.02619803
v -0.03310032 0.01419816 0.02997858
v -0.03278400 0.02604961 0.02027909
v -0.03429660 0.03205989 0.00556772
v -0.03574880 0.00818324 0.02955517
v -0.03480281 0.01153143 0.03006050
v -0.03275892 0.02399475 0.02278344
v -0.03095590 0.03244418 0.00139065
v -0.03550586 0.02863417 0.01107374
v -0.03868316 0.00805274 0.02355454
v -0.04013985 0.01834651 0.00045339
v -0.04014577 0.01345596 0.01255657
v -0.03041246 0.00230571 0.02649359
v -0.04014142 0.00053639 0.00164796
v -0.04014595 0.01816453 0.00195258
v -0.03906424 0.02263535 0.00599657
v -0.04014618 0.00646268 0.01658776
v -0.04014637 0.01408296 0.01064067
v -0.04014715 0.00792625 0.01418164
v -0.03890234 0.00291502 0.02425792
v -0.03041246 0.00166419 0.00009364
v -0.03521813 0.02461830 0.01938336
v -0.03330971 0.02359514 0.02318277
v -0.03041246 0.01670609 0.02043491
v -0.03041246 0.02489896 0.00910751
v -0.03642638 0.00888325 0.02820258
v -0.03880971 0.00765152 0.02335120
v -0.03330317 0.01096460 0.03137226
v -0.04014909 0.01405454 0.00412961
v -0.03439331 0.00668908 0.03209533
v -0.04015145 0.01128936 0.00164809
v -0.03041246 0.00007730 0.02478395
v -0.03449783 0.01939817 0.02611680
v -0.03314502 0.01781387 0.02798714
v -0.04014614 0.01035855 0.01466003
v -0.04015118 0.01149066 0.00404133
v -0.04014861 0.00264354 0.01212919
v -0.04015099 0.01150603 0.00037320
v -0.03454988 0.03208051 0.00318097
v -0.03041246 0.02649922 0.00166774
v -0.03197504 0.03248291 0.00059138
v -0.03987821 0.00712006 0.01908390
v -0.03874385 0.00859158 0.02315029
v -0.03245121 0.01085776 0.03145611
v -0.04007447 0.00412421 0.01871966
v -0.03814468 0.02045070 0.01597044
v -0.03675416 0.02736813 0.00857895
v -0.03390952 0.02647240 0.01952422
v -0.03902081 0.00090067 0.02397888
v -0.03884382 0.02336060 0.00616619
v -0.03451776 0.01929071 0.02617241
v -0.03399070 0.00147429 0.03316525
v -0.03101190 0.00988039 0.03091805
v -0.03434877 0.03248038 0.00096761
v -0.04011922 0.01626453 0.00889440
v -0.03496264 0.03071714 0.00727050
v -0.03436279 0.02818889 0.01626079
v -0.03382822 0.02716401 0.01855170
v -0.03652931 0.02892324 0.00287170
v -0.03548255 0.03067077 0.00249797
v -0.04014749 0.01633001 0.00100246
v -0.03984869 0.01825237 0.00887865
v -0.03792262 0.01958896 0.01767855
v -0.04015063 0.01070858 0.00618554
v -0.03602697 0.00421690 0.03001399
v -0.03269652 0.03227059 0.00634902
v -0.03584317 0.01291061 0.02752151
v -0.03104050 0.01913965 0.02624593
v -0.03631631 0.00110379 0.02980223
v -0.03287393 0.03281658 0.00267816
v -0.03974273 0.01370250 0.01602292
v -0.04014650 0.01444218 0.00985019
v -0.03246606 0.01967300 0.02664794
v -0.04006289 0.01711635 0.00807696
v -0.03974729 0.02080061 0.00177897
v -0.03822773 0.02474090 0.00667373
v -0.03994510 0.00553548 0.01919152
v -0.03363370 0.02294992 0.02382646
v -0.04014830 0.01494670 0.00432311
v -0.04014616 0.01634402 0.00749167
v -0.03428854 0.03126682 0.00919187
v -0.03986731 0.01894599 0.00671043
v -0.03581134 0.03019156 0.00139282
v -0.03744113 0.01845104 0.02058510
v -0.03041246 0.02646272 0.00102562
v -0.03275796 0.00351243 0.03317437
v -0.03545372 0.01187636 0.02872513
v -0.03891832 0.01408828 0.01954074
v -0.03812642 0.02531632 0.00478117
v -0.03444961 0.00693539 0.03197444
v -0.03320142 0.01339396 0.03036588
v -0.04014615 0.01263493 0.01269876
v -0.03271766 0.01707967 0.02844994
v -0.03930255 0.02245557 0.00186261
v -0.04015161 0.01114777 0.00192406
v -0.03491922 0.01080268 0.03013913
v -0.03835718 0.02520586 0.00056428
v -0.03709077 0.01374018 0.02484720
v -0.03903489 0.00327967 0.02373260
v -0.03613365 0.02865457 0.00787970
v -0.03726184 0.02701016 0.00676795
v -0.03100031 0.02632355 0.01902113
v -0.03923534 0.02268018 0.00042587
v -0.03548879 0.02476013 0.01841494
v -0.03862441 0.00356383 0.02485522
v -0.03951827 0.01122622 0.01887950
v -0.03785074 0.01331998 0.02322413
v -0.03461305 0.01268886 0.02985655
v -0.04014769 0.00468063 0.01405030
v -0.03334739 0.02371781 0.02303789
v -0.03969785 0.01455336 0.01538264
v -0.03901875 0.02348430 0.00037036
v -0.03737154 0.01667347 0.02217903
v -0.03971441 0.00640505 0.02032813
v -0.03921777 0.01959487 0.01173097
v -0.04014580 0.00845350 0.01640170
v -0.03366327 0.03286507 0.00046714
v -0.03086009 0.01256855 0.02989460
v -0.03380356 0.01912675 0.02696373
v -0.04007626 0.01245810 0.01432946
v -0.03738479 0.02231661 0.01636592
v -0.03041246 0.00055535 0.00227334
v -0.03925278 0.00755973 0.02178238
v -0.03995062 0.01533229 0.01242240
v -0.03977933 0.00766385 0.01949123
v -0.03875761 0.02383511 0.00464145
v -0.03519869 0.01566028 0.02732387
v -0.04015004 0.01292678 0.00027274
v -0.03967580 0.00163433 0.02146638
v -0.04015021 0.01273603 0.00044193
v -0.03708008 0.00461177 0.02818263
v -0.04007531 0.00394306 0.01875332
v -0.03331758 0.03118803 0.01051220
v -0.03427496 0.03062901 0.01101470
v -0.03368587 0.03250842 0.00500950
v -0.03453990 0.00308699 0.03251972
v -0.03523244 0.01013137 0.02983747
v -0.04007472 0.01450544 0.01219307
v -0.03358608 0.02420825 0.02243879
v -0.03493317 0.02573785 0.01857049
v -0.03436876 0.02244162 0.02372802
v -0.03534225 0.03062548 0.00465192
v -0.03243835 0.01576340 0.02911574
v -0.03881026 0.01863943 0.01563065
v -0.04014596 0.00762767 0.00001716
v -0.03423495 0.03147794 0.00846819
v -0.03892290 0.02384598 0.00067839
v -0.04014920 0.01413086 0.00042374
v -0.04014610 0.01746552 0.00481970
v -0.04015119 0.01061644 0.00523232
v -0.03417012 0.00940152 0.03159626
v -0.03779428 0.00737776 0.02588410
v -0.03799865 0.00670083 0.02556322
v -0.03550906 0.01493640 0.02714250
v -0.03435996 0.00577935 0.03231683
v -0.03509931 0.03068850 0.00637093
v -0.03573991 0.02532097 0.01684009
v -0.03393714 0.03279222 0.00043858
v -0.04012342 0.01824804 0.00289194
v -0.03622866 0.02945481 0.00252187
v -0.03821815 0.02187325 0.01334019
v -0.03956356 0.02145582 0.00018767
v -0.03975650 0.02034798 0.00412763
v -0.03972993 0.01982270 0.00661661
v -0.03259789 0.00876988 0.03205391
v -0.03756240 0.01346805 0.02390313
v -0.04014886 0.00731733 0.01113203
v -0.03281797 0.02810624 0.01735047
v -0.03101224 0.00015564 0.03106791
v -0.03748030 0.02725785 0.00009427
v -0.03444551 0.01612680 0.02838211
v -0.03907029 0.01868614 0.01426739
v -0.03950757 0.01489314 0.01605782
v -0.03734476 0.01003873 0.02609962
v -0.03692003 0.02749860 0.00724021
v -0.03808773 0.00340481 0.02614207
v -0.03973284 0.01801198 0.01065094
v -0.03974736 0.01048997 0.01835623
v -0.03697209 0.00457824 0.02837732
v -0.03101234 0.03161429 0.00010565
v -0.03827750 0.02538497 0.00009712
v -0.03892479 0.00692112 0.02322441
v -0.03331533 0.03240619 0.00566406
v -0.04015171 0.01081651 0.00154798
v -0.03243835 0.01695743 0.02844416
v -0.03951060 0.01094752 0.01911241
v -0.03541013 0.03073775 0.00297422
v -0.03555003 0.00001601 0.03111519
v -0.04014740 0.00626311 0.01429268
v -0.03758949 0.00320563 0.02733186
v -0.03721180 0.01300918 0.02497365
v -0.03823834 0.01845998 0.01781093
v -0.03691663 0.02321657 0.01651754
v -0.03998842 0.01375885 0.01380770
v -0.04014966 0.01168705 0.00701551
v -0.03704384 0.01085564 0.02630471
v -0.03505820 0.03116148 0.00426245
v -0.03710982 0.02803720 0.00188205
v -0.03965924 0.01615671 0.01384913
v -0.04014952 0.00916695 0.00919443
v -0.03243836 0.01442257 0.02983209
v -0.04002789 0.01259303 0.01463258
v -0.03732357 0.00007263 0.02821371
v -0.03898495 0.02302020 0.00551139
v -0.03976335 0.01974260 0.00641862
v -0.03101471 0.03187618 0.00632867
v -0.03722651 0.02783601 0.00148831
v -0.04014122 0.00084534 0.00048242
v -0.03041246 0.01761618 0.01970882
v -0.03041246 0.02569281 0.00037727
v -0.03424781 0.01046591 0.03117696
v -0.04014590 0.00210936 0.01815168
v -0.03757014 0.01748641 0.02100183
v -0.03977996 0.01829328 0.00971801
v -0.03259372 0.02110033 0.02550438
v -0.04001957 0.01098915 0.01592777
v -0.03287190 0.02594874 0.02044157
v -0.03721117 0.02735394 0.00530365
v -0.03999050 0.01541100 0.01190162
v -0.03498552 0.02884121 0.01295648
v -0.03289541 0.03154086 0.00957581
v -0.03916631 0.01099705 0.02050461
v -0.03889449 0.02274646 0.00764210
v -0.03424443 0.02017828 0.02582613
v -0.03685106 0.02224489 0.01805728
v -0.03677279 0.01492747 0.02476357
v -0.03906551 0.00471369 0.02325430
v -0.04015131 0.00917008 0.00579911
v -0.03893302 0.02382301 0.00151187
v -0.04014592 0.00004338 0.01085411
v -0.03553563 0.02744583 0.01384560
v -0.03074158 0.03198485 0.00492783
v -0.03354759 0.01580229 0.02918155
v -0.03976042 0.02040867 0.00364008
v -0.03659196 0.00930843 0.02778898
v -0.03725273 0.01761900 0.02179938
v -0.03489786 0.02369163 0.02122089
v -0.03414769 0.02387025 0.02246463
v -0.03918812 0.00394915 0.02298129
v -0.03699893 0.02264510 0.01718036
v -0.03402245 0.03029825 0.01252544
v -0.03886735 0.01159374 0.02140244
v -0.03439949 0.00039892 0.03287168
v -0.04014972 0.01352670 0.00092729
v -0.04014812 0.01354187 0.00769848
v -0.03385577 0.02712450 0.01859617
v -0.03330280 0.00654142 0.03261979
v -0.03891057 0.02150243 0.01079443
v -0.03538225 0.00844443 0.03011034
v -0.04014697 0.00849187 0.01423946
v -0.03323434 0.00662093 0.03260656
v -0.03041246 0.01138057 0.02402339
v -0.03375485 0.01871324 0.02725186
v -0.03649230 0.01053224 0.02746639
v -0.03935500 0.01765955 0.01388454
v -0.03598798 0.01967797 0.02282995
v -0.03863975 0.01238566 0.02161759
v -0.04014929 0.00641336 0.01045739
v -0.03302092 0.00975493 0.03180244
v -0.03404991 0.00521541 0.03269988
v -0.03969665 0.01694018 0.01266189
v -0.03408318 0.02880309 0.01556778
v -0.03835605 0.00487335 0.02516808
v -0.03499581 0.02952831 0.01103579
v -0.03734588 0.02518193 0.01149430
v -0.03041246 0.02609965 0.00541669
v -0.03278660 0.03218094 0.00683298
v -0.03671358 0.00395114 0.02892837
v -0.03886388 0.02320676 0.00662352
v -0.03285262 0.02718008 0.01870415
v -0.03379599 0.01628493 0.02883673
v -0.03699498 0.00405030 0.02845390
v -0.04003724 0.00666178 0.01819355
v -0.03800413 0.00381828 0.02629328
v -0.03558724 0.01578094 0.02650099
v -0.03279927 0.02178467 0.02489919
v -0.03972785 0.01508990 0.01463367
v -0.03372350 0.02848770 0.01652388
v -0.03855829 0.02082403 0.01352482
v -0.04014662 0.01600930 0.00692548
v -0.04014459 0.00008933 0.00848856
v -0.03489272 0.01977692 0.02504231
v -0.03899339 0.02024885 0.01225941
v -0.03713947 0.00179069 0.02839747
v -0.04008773 0.01802808 0.00514853
v -0.04001316 0.00473834 0.01896589
v -0.03995172 0.01954050 0.00093965
v -0.03638097 0.02632094 0.01303093
v -0.03415756 0.02963331 0.01380667
v -0.03659595 0.02276180 0.01810405
v -0.04014160 0.00043740 0.00224263
v -0.03957312 0.00704983 0.02070373
v -0.04015088 0.01172561 0.00045267
v -0.03707832 0.02473848 0.01351210
v -0.03438435 0.01074655 0.03094472
v -0.04004143 0.01064234 0.01601483
v -0.04012952 0.01722920 0.00661489
v -0.03704056 0.02715911 0.00777862
v -0.03311298 0.02328061 0.02353612
v -0.03982618 0.01331436 0.01569959
v -0.03101234 0.02976024 0.00006045
v -0.03063981 0.03228023 0.00244548
v -0.03925538 0.01807879 0.01394242
v -0.03674108 0.01449278 0.02511244
v -0.04015022 0.00847623 0.00813315
v -0.03516561 0.02906435 0.01151488
v -0.04008912 0.00106165 0.01910630
v -0.03451729 0.02404283 0.02169167
v -0.03473334 0.02163025 0.02380917
v -0.03041246 0.00022634 0.02583667
v -0.04014759 0.01608608 0.00294487
v -0.03437982 0.02313257 0.02296909
v -0.04015065 0.01147560 0.00526621
v -0.03465749 0.01474587 0.02878342
v -0.03275098 0.02208086 0.02462748
v -0.03362925 0.01334795 0.03035794
v -0.03897014 0.00905925 0.02223233
v -0.03996993 0.01016129 0.01691845
v -0.03348389 0.00046320 0.03335508
v -0.03555785 0.03059408 0.00159358
v -0.03091315 0.02728283 0.01736565
v -0.03964393 0.01722914 0.01256479
v -0.03909191 0.01200999 0.02026922
v -0.03493082 0.02979812 0.01059370
v -0.03902572 0.02310802 0.00414040
v -0.03068130 0.03241823 0.00169041
v -0.03539464 0.02870045 0.01142379
v -0.04014578 0.00263790 0.01833585
v -0.03816201 0.02168773 0.01389628
v -0.03983218 0.02028519 0.00152376
v -0.03445279 0.00937297 0.03132579
v -0.04013905 0.00491354 0.01812132
v -0.03448522 0.02943901 0.01347260
v -0.03275538 0.00990153 0.03176246
v -0.03521920 0.01045326 0.02975294
v -0.03095667 0.00642009 0.03185410
v -0.04014773 0.01300956 0.00923283
v -0.03418268 0.02366874 0.02264986
v -0.04014592 0.00023223 0.01016062
v -0.03442682 0.02576770 0.01982230
v -0.03502889 0.00529275 0.03144460
v -0.03593181 0.02934178 0.00625668
v -0.03041246 0.02379626 0.01198279
v -0.03474031 0.02155899 0.02386023
v -0.04014890 0.00604859 0.01131659
v -0.03416582 0.02726083 0.01808153
v -0.04014813 0.01299447 0.00845782
v -0.03987213 0.00392701 0.02006965
v -0.03423620 0.01154089 0.03082658
v -0.03731364 0.00523879 0.02760083
v -0.03351527 0.00106608 0.03331519
v -0.03041246 0.00341511 0.02646330
v -0.03748370 0.02645738 0.00700557
v -0.03949413 0.02107296 0.00565486
v -0.04015117 0.01182796 0.00272468
v -0.03988975 0.01533045 0.01299847
v -0.03854870 0.02012782 0.01470648
v -0.04014631 0.01147099 0.01351447
v -0.03581732 0.02056953 0.02239689
v -0.04015108 0.01174946 0.00369342
v -0.04014581 0.00114083 0.01840247
v -0.03464356 0.01718777 0.02739398
v -0.03379686 0.03232986 0.00569615
v -0.03713148 0.01895695 0.02094840
v -0.03704097 0.01883314 0.02130419
v -0.03998556 0.01933833 0.00034810
v -0.04015035 0.00923108 0.00761410
v -0.04015072 0.00876150 0.00707462
v -0.03298687 0.01259115 0.03075279
v -0.04014723 0.00011251 0.01550451
v -0.03560905 0.01905059 0.02413826
v -0.03383810 0.02960788 0.01425227
v -0.03290329 0.00342089 0.03317999
v -0.03416993 0.01973092 0.02628671
v -0.03335937 0.01328207 0.03041438
v -0.03481051 0.02713033 0.01684346
v -0.04007117 0.01731897 0.00745522
v -0.03409226 0.03088667 0.01071019
v -0.04014866 0.00888989 0.01091666
v -0.03277105 0.03098935 0.01115551
v -0.03751133 0.02463597 0.01184181
v -0.03789978 0.02092343 0.01630621
v -0.03097086 0.01229320 0.03008090
v -0.03350173 0.01966024 0.02669085
v -0.03326049 0.02402115 0.02271655
v -0.03350540 0.01482221 0.02965982
v -0.03887551 0.00722722 0.02330115
v -0.03906882 0.02091004 0.01064078
v -0.03955319 0.00432308 0.02148435
v -0.03351017 0.00313143 0.03318232
v -0.04014637 0.00963808 0.01473097
v -0.03633117 0.01852281 0.02304216
v -0.03282746 0.03179576 0.00861137
v -0.03876186 0.01586492 0.01872196
v -0.03485752 0.00834860 0.03103015
v -0.03990043 0.01351710 0.01485399
v -0.03519327 0.02068635 0.02366670
v -0.03438655 0.00981801 0.03125292
v -0.04014744 0.00040738 0.01501727
v -0.03988253 0.01337745 0.01515874
v -0.03531543 0.03045112 0.00582766
v -0.03920958 0.02251225 0.00358341
v -0.03892029 0.01513946 0.01875824
v -0.03917235 0.02219637 0.00617189
v -0.04014870 0.01013782 0.01015659
v -0.03677271 0.02856635 0.00001379
v -0.03436298 0.01608995 0.02851878
v -0.03194219 0.00037441 0.03248518
v -0.03995764 0.01515033 0.01257801
v -0.03966476 0.01918063 0.00900876
v -0.03659815 0.02819776 0.00639006
v -0.04014811 0.01281198 0.00872071
v -0.03893592 0.02254917 0.00774720
v -0.04014600 0.01792587 0.00320597
v -0.03459510 0.02640502 0.01852059
v -0.03865004 0.01964609 0.01503803
v -0.03373268 0.00827577 0.03220195
v -0.03881343 0.01650387 0.01794283
v -0.03980928 0.01155498 0.01712863
v -0.03740463 0.00806236 0.02665215
v -0.03726264 0.01521452 0.02354846
v -0.03462878 0.02142669 0.02422609
v -0.03277884 0.00466119 0.03301727
v -0.04007281 0.00761015 0.01751920
v -0.03594711 0.02234603 0.02015654
v -0.03896874 0.00127591 0.02414376
v -0.04015097 0.01147408 0.00025035
v -0.03041246 0.02055723 0.01698603
v -0.04010304 0.01859739 0.00020749
v -0.03905356 0.00331593 0.02366026
v -0.03624194 0.02878358 0.00647267
v -0.03179657 0.03248091 0.00074666
v -0.03404193 0.01632367 0.02869054
v -0.03513676 0.00776528 0.03071733
v -0.03569736 0.01787974 0.02482766
v -0.03264653 0.02886544 0.01593116
v -0.04014614 0.00575711 0.01690058
v -0.03355187 0.03067776 0.01190073
v -0.03452343 0.03163288 0.00620546
v -0.03503940 0.00380831 0.03168858
v -0.04015100 0.00749089 0.00622394
v -0.03712818 0.02686693 0.00815401
v -0.04014744 0.01290056 0.00995319
v -0.03701331 0.02819657 0.00228319
v -0.03957953 0.02104272 0.00399790
v -0.03435697 0.03068861 0.01057688
v -0.03725427 0.01456994 0.02404018
v -0.03968856 0.00506111 0.02077436
v -0.03442520 0.02174104 0.02425061
v -0.03245575 0.02552830 0.02085757
v -0.03976439 0.01515549 0.01432763
v -0.03562891 0.02551935 0.01687014
v -0.03962884 0.00016607 0.02175216
v -0.04011681 0.01438488 0.01191499
v -0.03594247 0.01289540 0.02734736
v -0.03993971 0.01782731 0.00841108
v -0.03868453 0.01643578 0.01846404
v -0.03087046 0.03098397 0.00980698
v -0.03789095 0.01734885 0.02016815
v -0.03919761 0.02284443 0.00179272
v -0.03573834 0.01864291 0.02418116
v -0.04014285 0.00216409 0.00010430
v -0.04015130 0.00998658 0.00549093
v -0.03462555 0.01151015 0.03037261
v -0.03409381 0.02641870 0.01941270
v -0.03284524 0.01938167 0.02689741
v -0.03739028 0.02701494 0.00510762
v -0.03363747 0.03128393 0.01014090
v -0.03697988 0.01035481 0.02665975
v -0.03410446 0.03204857 0.00630663
v -0.04000589 0.01813667 0.00639841
v -0.03358078 0.02307498 0.02370799
v -0.03382656 0.01717350 0.02824177
v -0.04015156 0.01093641 0.00124807
v -0.03976780 0.01466078 0.01483538
v -0.03445487 0.03030173 0.01129408
v -0.04014945 0.00997606 0.00890280
v -0.03897227 0.01850839 0.01506308
v -0.03892878 0.02383863 0.00150387
v -0.03997964 0.01204548 0.01544706
v -0.03256391 0.03180029 0.00860319
v -0.03041246 0.00001875 0.00455549
v -0.03439168 0.00874583 0.03160584
v -0.03394278 0.01099055 0.03123203
v -0.04015221 0.01038946 0.00248202
v -0.03374998 0.02710885 0.01867022
v -0.03732663 0.02646608 0.00821138
v -0.03281759 0.02607543 0.02025622
v -0.03950443 0.01446945 0.01653606
v -0.03735396 0.00796378 0.02680041
v -0.04013059 0.01711157 0.00692746
v -0.03501048 0.03110392 0.00511655
v -0.03986668 0.01240380 0.01606291
v -0.03260794 0.03119281 0.01058581
v -0.03469722 0.01227487 0.02991440
v -0.04015173 0.01112588 0.00255643
v -0.03926195 0.01483188 0.01740901
v -0.03392201 0.01227637 0.03079010
v -0.03942747 0.01588889 0.01541412
v -0.03483594 0.01526146 0.02820795
v -0.03371647 0.01784024 0.02783907
v -0.03042103 0.01775390 0.01981529
v -0.03470875 0.00934962 0.03096977
v -0.03434155 0.01727521 0.02776506
v -0.03793354 0.01749547 0.01991633
v -0.03555108 0.01832412 0.02480346
v -0.03593540 0.02059616 0.02209007
v -0.03348505 0.02053319 0.02594095
v -0.04014864 0.01261973 0.00789266
v -0.03902872 0.01576335 0.01773978
v -0.03961732 0.01705627 0.01303700
v -0.03882271 0.02193034 0.01028818
v -0.03825904 0.02461768 0.00690687
v -0.03735406 0.02257135 0.01608774
v -0.03445057 0.03133169 0.00801951
v -0.04014588 0.01575971 0.00917651
v -0.03890857 0.01645938 0.01764207
v -0.03932813 0.00544198 0.02205891
v -0.04013196 0.01785912 0.00457521
v -0.03894950 0.01524551 0.01854551
v -0.03632557 0.01504083 0.02555946
v -0.03723172 0.02515583 0.01221337
v -0.03428745 0.01681895 0.02813821
v -0.03473725 0.00667642 0.03163521
v -0.03653064 0.02629808 0.01247121
v -0.04015160 0.01083789 0.00119802
v -0.04014670 0.01727750 0.00113416
v -0.03568285 0.02010511 0.02311842
v -0.03391515 0.00429253 0.03295642
v -0.03935691 0.00020358 0.02277211
v -0.04014089 0.00573587 0.01783984
v -0.03462751 0.02970871 0.01230765
v -0.03257940 0.01765116 0.02809760
v -0.03742325 0.01970877 0.01927995
v -0.03965008 0.02115267 0.00123349
v -0.03500249 0.02763330 0.01532074
v -0.03794221 0.02275590 0.01313893
v -0.03461811 0.01054415 0.03074394
v -0.03390814 0.03184643 0.00779399
v -0.03611331 0.02632888 0.01394820
v -0.03287750 0.03273611 0.00341260
v -0.03297544 0.02604841 0.02034157
v -0.03717220 0.01353211 0.02479735
v -0.03972309 0.02035376 0.00483207
v -0.03259238 0.00729734 0.03242802
v -0.04015148 0.01141343 0.00319439
v -0.03911202 0.00711125 0.02245704
v -0.03795631 0.02353992 0.01178737
v -0.03465169 0.03210992 0.00065547
v -0.03973380 0.01691123 0.01244462
v -0.03416396 0.02553063 0.02059050
v -0.03320384 0.00322520 0.03318671
v -0.03256091 0.03085078 0.01152421
v -0.03311968 0.01997583 0.02643772
v -0.03449579 0.03138887 0.00748881
v -0.03758545 0.01374694 0.02370927
v -0.04014808 0.01561657 0.00109356
v -0.03505108 0.02324439 0.02134563
v -0.03243832 0.02942369 0.01472037
v -0.03653147 0.01367472 0.02589813
v -0.03521551 0.03006306 0.00835709
v -0.03877989 0.00543305 0.02399601
v -0.03737942 0.00236479 0.02789687
v -0.03437642 0.02359207 0.02246207
v -0.03443098 0.03207741 0.00453933
v -0.03738520 0.01162218 0.02524151
v -0.04014896 0.01447957 0.00285082
v -0.03742189 0.02670377 0.00644451
v -0.03960976 0.00745800 0.02036234
v -0.04014827 0.01532425 0.00035355
v -0.03340337 0.02925803 0.01512092
v -0.03709343 0.00873663 0.02709603
v -0.03973468 0.00105554 0.02129032
v -0.03967870 0.01096116 0.01833458
v -0.03441589 0.03116046 0.00901074
v -0.03489928 0.03141293 0.00433008
v -0.03886022 0.01270666 0.02075906
v -0.03713921 0.00381813 0.02823984
v -0.04014409 0.00856027 0.01652201
v -0.03246072 0.03150512 0.00964770
v -0.03665680 0.02215125 0.01863655
v -0.03412316 0.03106736 0.01013164
v -0.03558836 0.02189351 0.02152816
v -0.03487542 0.01233555 0.02956089
v -0.03695172 0.01028711 0.02674342
v -0.04014605 0.01536022 0.00947472
v -0.03545869 0.00279041 0.03107944
v -0.03243838 0.00150653 0.03320635
v -0.03780234 0.02653123 0.00182422
v -0.03884174 0.01351794 0.02021600
v -0.04014940 0.00827566 0.00979865
v -0.03997836 0.00549840 0.01899025
v -0.03280912 0.01199926 0.03100721
v -0.03268665 0.03162610 0.00924892
v -0.03340696 0.02653646 0.01959885
v -0.04014767 0.01607161 0.00250099
v -0.03434324 0.02807646 0.01652879
v -0.03486749 0.01025620 0.03041739
v -0.03374101 0.02228441 0.02436829
v -0.03297829 0.02996733 0.01374939
v -0.03501234 0.02805319 0.01450546
v -0.03428259 0.03207982 0.00552602
v -0.04006606 0.01410156 0.01273530
v -0.03301515 0.01600980 0.02909846
v -0.04014768 0.01496430 0.00624822
v -0.03712144 0.01941221 0.02047809
v -0.04014648 0.00557915 0.01628725
v -0.04004088 0.01883873 0.00251569
v -0.03529057 0.00417900 0.03122459
v -0.03333619 0.02572507 0.02076209
v -0.03889388 0.02127003 0.01128461
v -0.03972587 0.01813810 0.01049427
v -0.03406970 0.03160444 0.00848484
v -0.04014684 0.01143706 0.01256909
v -0.03302089 0.01056596 0.03154606
v -0.04014635 0.00702715 0.01605430
v -0.03271489 0.02856503 0.01652595
v -0.03763667 0.02394111 0.01257618
v -0.03477704 0.00402870 0.03208667
v -0.03758542 0.02155764 0.01670394
v -0.03292055 0.02578255 0.02067718
v -0.03448661 0.00000731 0.03278672
v -0.03506003 0.00387386 0.03164591
v -0.04015052 0.00921346 0.00731116
v -0.03396532 0.02318228 0.02343296
v -0.03400932 0.02676611 0.01901804
v -0.03589804 0.01729913 0.02483949
v -0.04014604 0.00490051 0.01733257
v -0.03248956 0.02010427 0.02633318
v -0.03823397 0.01299039 0.02237567
v -0.03829728 0.02478016 0.00551016
v -0.03509774 0.00278010 0.03166931
v -0.03996096 0.01868185 0.00571006
v -0.03983573 0.00671493 0.01955573
v -0.03361720 0.03288236 0.00075898
v -0.03398839 0.00395339 0.03299587
v -0.04014650 0.00042543 0.01696874
v -0.04009913 0.00114096 0.01903773
v -0.03646726 0.01840648 0.02284602
v -0.03078861 0.03141323 0.00813862
v -0.03360289 0.03279528 0.00185469
v -0.03821173 0.02550899 0.00253401
v -0.04014527 0.00125895 0.00592065
v -0.04012026 0.01299947 0.01337915
v -0.03443389 0.01389928 0.02951920
v -0.03934562 0.02182919 0.00454512
v -0.04014716 0.00378158 0.01527004
v -0.03331934 0.02542806 0.02110726
v -0.03523889 0.02687313 0.01590462
v -0.03549220 0.01748454 0.02553895
v -0.03371539 0.00059808 0.03330491
v -0.03921405 0.01985949 0.01132461
v -0.04005287 0.01826552 0.00511590
v -0.04014970 0.01358156 0.00117087
v -0.03421836 0.01984851 0.02613633
v -0.04014774 0.01551272 0.00467149
v -0.03387247 0.01996880 0.02631626
v -0.03474522 0.02489980 0.02024448
v -0.03497433 0.03149576 0.00249906
v -0.03622241 0.02009287 0.02193563
v -0.03556308 0.01139952 0.02875205
v -0.04002740 0.00614946 0.01846354
v -0.03430790 0.03157552 0.00774676
v -0.04015088 0.01162052 0.00453585
v -0.03477627 0.02495860 0.02010278
v -0.04014922 0.00374433 0.01085602
v -0.03357347 0.00226430 0.03323603
v -0.03978619 0.01844421 0.00939257
v -0.03070225 0.03219880 0.00355016
v -0.03967548 0.02031443 0.00588474
v -0.03497006 0.00110965 0.03198464
v -0.03556121 0.03058727 0.00018435
v -0.04015027 0.00866308 0.00797270
v -0.03308840 0.03283954 0.00233574
v -0.03516518 0.02063915 0.02376424
v -0.03780695 0.01739593 0.02037830
v -0.04014589 0.00450782 0.01771872
v -0.03380456 0.00984649 0.03165501
v -0.03721088 0.00597525 0.02760572
v -0.03982873 0.01542586 0.01344885
v -0.03895916 0.01088853 0.02140816
v -0.03041246 0.02119813 0.00012437
v -0.03256824 0.02421426 0.02253499
v -0.03661551 0.01937839 0.02173973
v -0.03393895 0.00298693 0.03308941
v -0.04006420 0.01441199 0.01241409
v -0.03441919 0.02498185 0.02082811
v -0.03558736 0.03056117 0.00119271
v -0.03463772 0.01694411 0.02756948
v -0.03410271 0.01196326 0.03079349
v -0.03514904 0.00698773 0.03088878
v -0.03339086 0.02938802 0.01486706
v -0.03601228 0.02970692 0.00338594
v -0.03467672 0.01570024 0.02827980
v -0.04002507 0.00644923 0.01836424
v -0.03273775 0.00229721 0.03325266
v -0.04014616 0.00072020 0.01764032
v -0.03949751 0.00256896 0.02206092
v -0.03764989 0.02327401 0.01360750
v -0.03143557 0.02922481 0.01420979
v -0.03369931 0.00177371 0.03323357
v -0.03408406 0.03263873 0.00159302
v -0.03610530 0.00975332 0.02847532
v -0.03424738 0.03247363 0.00209287
v -0.03089483 0.02157390 0.02427216
v -0.03445708 0.03234215 0.00102995
v -0.03298813 0.03273543 0.00339934
v -0.03497588 0.01845412 0.02589291
v -0.04006996 0.01221944 0.01460288
v -0.04014914 0.01284089 0.00654453
v -0.04014675 0.01202732 0.01220410
v -0.03940267 0.02204497 0.00209962
v -0.03527278 0.00261508 0.03139621
v -0.03367033 0.00556698 0.03277502
v -0.03883188 0.00146495 0.02453677
v -0.03746027 0.02053469 0.01825379
v -0.03411468 0.03244915 0.00357792
v -0.03978021 0.01867784 0.00894992
v -0.03086963 0.01620049 0.02812598
v -0.03977902 0.02062131 0.00153453
v -0.03441152 0.02798124 0.01652777
v -0.03752625 0.02705647 0.00303253
v -0.04014997 0.01321283 0.00104734
v -0.03438444 0.01234226 0.03034676
v -0.03947171 0.00417656 0.02183473
v -0.03609078 0.02225485 0.01990682
v -0.03243837 0.00350977 0.03312667
v -0.03923824 0.02184022 0.00644251
v -0.03868949 0.00417558 0.02453969
v -0.03041246 0.01174749 0.02382223
v -0.03544675 0.01244395 0.02846796
v -0.03738639 0.02319978 0.01491474
v -0.04014638 0.01697171 0.00525152
v -0.03894538 0.01947980 0.01385900
v -0.03402135 0.01125279 0.03109732
v -0.03357996 0.02745548 0.01824425
v -0.04015139 0.00986385 0.00539118
v -0.03582507 0.02912082 0.00807282
v -0.03612685 0.02659319 0.01340988
v -0.04015189 0.00951728 0.00455443
v -0.03041246 0.01978315 0.01781305
v -0.03386248 0.03261254 0.00322672
v -0.03988730 0.01994216 0.00054657
v -0.03497708 0.00187198 0.03192383
v -0.03478300 0.02141683 0.02389833
v -0.03492673 0.02016276 0.02465449
v -0.03679755 0.02848329 0.00286083
v -0.03861269 0.00023301 0.02514865
v -0.03041246 0.00546497 0.00005565
v -0.03981175 0.02041982 0.00145011
v -0.03475808 0.03057303 0.00925657
v -0.03997350 0.00041657 0.01988722
v -0.04014640 0.00643890 0.01617856
v -0.03307912 0.02368419 0.02312683
v -0.03375320 0.01648796 0.02871716
v -0.04014606 0.00941071 0.01542712
v -0.03821108 0.02556408 0.00142818
v -0.03591131 0.02647683 0.01436390
v -0.03650749 0.02903336 0.00197231
v -0.03459008 0.00857764 0.03139548
v -0.03439664 0.03242413 0.00044579
v -0.04011949 0.01433480 0.01195044
v -0.03760386 0.02596650 0.00769062
v -0.03041246 0.02345424 0.01263478
v -0.04014796 0.01572293 0.00256531
v -0.04014595 0.00356050 0.00019602
v -0.03624426 0.01962169 0.02233543
v -0.03983494 0.00300471 0.02053082
v -0.03087762 0.01689852 0.02769141
v -0.03713838 0.00005292 0.02853475
v -0.03422170 0.02644061 0.01920769
v -0.03041246 0.00195334 0.00007173
v -0.03078745 0.03149368 0.00778472
v -0.04014774 0.01156205 0.01079833
v -0.03334172 0.02968074 0.01429383
v -0.03261333 0.02841816 0.01681676
v -0.03250427 0.02461452 0.02207990
v -0.03975268 0.00989024 0.01861922
v -0.04014723 0.01530793 0.00674432
v -0.03471815 0.00970891 0.03084160
v -0.03765769 0.02128434 0.01675386
v -0.03329472 0.02327873 0.02352948
v -0.04014611 0.00617371 0.01683533
v -0.03931495 0.01697492 0.01484997
v -0.04015123 0.01131217 0.00085331
v -0.04015149 0.01058901 0.00467916
v -0.03871370 0.00431030 0.02444623
v -0.04014641 0.01627628 0.00692378
v -0.04015046 0.01223912 0.00442002
v -0.03753941 0.02712635 0.00052017
f 275 326 527
f 190 226 451
f 225 346 451
f 451 717 225
f 225 255 727
f 727 346 225
f 207 226 190
f 167 253 66
f 527 326 336
f 326 275 336
f 66 253 507
f 225 717 203
f 215 451 226
f 346 727 794
f 794 451 346
f 190 451 794
f 226 207 157
f 5 397 23
f 355 5 214
f 214 77 355
f 527 336 59
f 59 167 527
f 253 167 59
f 190 507 811
f 811 507 253
f 253 59 811
f 806 203 717
f 190 794 817
f 66 507 817
f 817 507 190
f 474 207 190
f 226 157 192
f 524 142 192
f 192 142 226
f 148 157 207
f 580 148 207
f 527 77 667
f 667 275 527
f 58 5 355
f 58 397 5
f 98 23 163
f 453 5 364
f 453 214 5
f 364 667 453
f 453 667 214
f 409 579 129
f 530 811 486
f 384 336 275
f 688 59 336
f 688 811 59
f 336 384 688
f 688 384 811
f 750 764 547
f 225 203 162
f 162 86 225
f 162 203 680
f 788 765 207
f 190 811 472
f 472 173 190
f 275 667 233
f 696 667 364
f 77 214 37
f 37 667 77
f 214 667 37
f 429 164 298
f 546 298 164
f 429 298 546
f 163 764 246
f 186 670 383
f 5 23 772
f 89 246 41
f 579 409 651
f 579 651 761
f 286 126 179
f 577 620 796
f 28 796 606
f 146 532 28
f 238 339 285
f 766 646 581
f 285 67 149
f 149 67 185
f 596 385 732
f 785 6 530
f 530 486 785
f 530 6 591
f 11 785 486
f 711 11 486
f 711 486 811
f 811 384 711
f 297 764 163
f 297 775 764
f 163 23 297
f 297 23 397
f 69 254 547
f 764 775 69
f 69 547 764
f 86 162 477
f 115 752 586
f 111 251 586
f 228 111 586
f 586 180 228
f 752 180 586
f 594 806 717
f 451 215 252
f 615 56 474
f 615 474 190
f 190 173 615
f 207 474 411
f 411 788 207
f 571 472 811
f 530 229 571
f 571 811 530
f 10 173 338
f 173 472 338
f 530 140 338
f 175 173 10
f 10 140 175
f 716 667 181
f 181 667 288
f 667 696 288
f 793 94 575
f 498 575 618
f 618 575 94
f 526 251 111
f 438 266 526
f 38 670 186
f 702 164 429
f 419 478 164
f 164 702 419
f 700 96 419
f 670 38 419
f 419 702 670
f 753 96 25
f 429 511 674
f 644 702 429
f 670 702 644
f 186 383 357
f 741 772 131
f 278 316 543
f 543 316 478
f 590 772 23
f 590 89 210
f 88 287 362
f 88 72 55
f 362 72 88
f 55 219 88
f 88 219 287
f 622 287 302
f 287 219 302
f 223 619 116
f 223 168 362
f 681 200 181
f 181 288 681
f 39 196 528
f 181 200 664
f 664 200 569
f 23 98 381
f 98 89 381
f 381 590 23
f 89 590 381
f 428 98 163
f 428 89 98
f 163 246 428
f 246 89 428
f 513 483 178
f 286 483 513
f 178 266 513
f 503 42 745
f 745 366 503
f 147 32 29
f 29 366 147
f 29 32 750
f 750 473 29
f 809 29 473
f 366 29 809
f 285 761 270
f 270 761 651
f 524 370 249
f 757 370 139
f 461 656 779
f 91 461 189
f 577 265 378
f 378 265 646
f 378 102 334
f 378 646 766
f 766 102 378
f 378 179 577
f 378 334 286
f 286 179 378
f 491 179 126
f 491 620 577
f 126 620 491
f 606 796 101
f 101 796 620
f 719 752 115
f 719 180 752
f 686 180 719
f 719 115 680
f 680 686 719
f 146 28 220
f 567 339 18
f 646 265 276
f 421 694 497
f 421 460 766
f 766 581 421
f 581 694 421
f 185 67 710
f 710 460 185
f 385 460 710
f 283 383 670
f 670 596 283
f 283 596 383
f 785 11 444
f 303 785 444
f 11 711 444
f 275 415 444
f 444 384 275
f 547 254 786
f 786 473 750
f 750 547 786
f 30 704 594
f 733 594 717
f 128 594 733
f 802 142 524
f 524 634 802
f 171 36 524
f 687 634 524
f 524 36 687
f 835 252 215
f 634 252 835
f 4 252 16
f 16 252 634
f 634 687 16
f 60 56 572
f 56 615 572
f 289 615 193
f 173 43 193
f 193 615 173
f 699 615 289
f 795 411 474
f 519 571 229
f 472 571 519
f 76 140 10
f 10 338 76
f 76 338 140
f 830 229 530
f 530 338 830
f 15 233 667
f 667 716 15
f 468 590 296
f 131 772 468
f 772 590 468
f 94 743 174
f 174 618 94
f 432 72 362
f 362 168 432
f 432 168 227
f 227 65 432
f 227 168 592
f 337 592 168
f 311 85 347
f 347 85 130
f 347 70 311
f 388 70 347
f 347 809 388
f 312 526 111
f 438 526 312
f 312 111 228
f 228 438 312
f 639 266 625
f 625 526 639
f 639 526 266
f 25 96 467
f 800 316 278
f 800 546 164
f 164 316 800
f 164 478 518
f 518 316 164
f 478 316 518
f 188 246 764
f 814 578 764
f 113 578 814
f 814 764 750
f 750 113 814
f 734 320 172
f 271 349 566
f 734 96 407
f 96 753 407
f 750 32 822
f 822 728 750
f 260 674 750
f 750 728 260
f 260 728 360
f 46 113 750
f 750 674 46
f 118 578 113
f 113 46 118
f 118 46 674
f 511 578 118
f 118 674 511
f 383 596 609
f 609 357 383
f 609 596 732
f 732 353 609
f 353 357 609
f 5 772 633
f 772 741 633
f 364 5 633
f 633 741 364
f 769 31 394
f 583 340 394
f 394 31 583
f 735 543 478
f 735 452 769
f 478 452 735
f 769 394 735
f 462 196 39
f 462 590 210
f 296 590 462
f 219 236 611
f 618 174 813
f 813 174 743
f 469 223 624
f 362 287 726
f 679 813 159
f 535 617 219
f 492 349 271
f 39 200 305
f 305 681 39
f 200 681 305
f 97 288 696
f 97 681 288
f 569 200 135
f 376 340 583
f 583 528 376
f 386 664 569
f 485 664 668
f 668 313 485
f 317 313 668
f 583 31 380
f 380 643 583
f 509 31 769
f 769 153 509
f 509 153 540
f 299 280 748
f 178 483 425
f 425 266 178
f 584 438 228
f 228 180 584
f 584 266 438
f 584 513 266
f 627 126 286
f 628 552 404
f 282 603 354
f 354 353 282
f 354 357 353
f 354 603 628
f 186 357 354
f 628 404 354
f 354 467 186
f 389 467 354
f 626 270 651
f 335 67 285
f 285 270 335
f 335 710 67
f 812 442 790
f 790 467 389
f 442 467 790
f 567 663 777
f 777 339 567
f 779 656 293
f 567 532 310
f 505 139 370
f 665 461 91
f 285 166 665
f 665 761 285
f 665 826 761
f 656 461 324
f 555 565 562
f 562 189 523
f 779 217 523
f 523 461 779
f 523 189 461
f 577 179 521
f 521 491 577
f 179 491 521
f 577 796 369
f 369 309 577
f 146 220 476
f 145 220 28
f 497 694 202
f 285 497 202
f 202 238 285
f 372 265 577
f 570 265 372
f 567 18 333
f 333 18 784
f 333 570 567
f 333 265 570
f 784 276 333
f 333 276 265
f 803 18 694
f 803 694 581
f 185 460 34
f 460 421 34
f 732 385 703
f 385 710 703
f 703 353 732
f 282 353 703
f 184 596 670
f 184 655 596
f 810 400 591
f 356 459 810
f 541 400 602
f 602 615 541
f 541 140 530
f 541 175 140
f 289 768 541
f 530 591 541
f 591 400 541
f 173 175 541
f 541 699 289
f 541 768 43
f 541 43 173
f 57 624 689
f 82 711 384
f 384 444 82
f 82 444 711
f 365 594 128
f 365 30 594
f 187 537 242
f 243 252 4
f 4 489 243
f 243 489 128
f 263 4 146
f 263 489 4
f 106 615 602
f 106 572 615
f 765 795 375
f 83 338 472
f 83 830 338
f 789 664 485
f 485 677 789
f 789 716 181
f 181 664 789
f 131 468 418
f 418 597 364
f 364 741 418
f 759 462 39
f 435 712 597
f 597 418 435
f 435 418 468
f 832 65 150
f 434 475 770
f 563 770 227
f 227 592 563
f 563 434 770
f 614 337 168
f 471 760 65
f 65 475 471
f 471 94 793
f 793 760 471
f 471 743 94
f 770 475 284
f 144 65 227
f 227 475 144
f 144 475 65
f 251 526 818
f 115 586 371
f 680 115 371
f 371 255 225
f 371 130 255
f 371 347 130
f 494 38 186
f 186 467 494
f 78 96 700
f 78 467 96
f 79 800 278
f 79 511 429
f 79 578 511
f 429 546 79
f 546 800 79
f 549 419 96
f 549 96 734
f 764 578 230
f 230 188 764
f 578 188 230
f 649 79 278
f 246 188 649
f 649 414 246
f 8 172 320
f 349 172 8
f 8 566 349
f 495 822 32
f 495 32 147
f 147 48 495
f 429 674 599
f 599 260 429
f 674 260 599
f 321 260 360
f 344 321 360
f 825 548 583
f 583 643 825
f 256 528 196
f 196 394 256
f 256 394 340
f 780 394 196
f 780 735 394
f 543 735 780
f 638 414 543
f 638 89 41
f 41 246 638
f 246 414 638
f 278 543 361
f 543 414 361
f 89 638 660
f 3 345 445
f 445 345 116
f 754 165 689
f 689 624 754
f 619 223 151
f 116 619 151
f 231 223 362
f 362 726 231
f 231 151 223
f 170 679 159
f 465 219 55
f 465 535 219
f 395 176 724
f 724 535 395
f 617 535 724
f 695 492 271
f 672 492 695
f 753 672 695
f 211 611 236
f 396 696 364
f 396 712 696
f 364 597 396
f 597 712 396
f 681 97 730
f 730 435 681
f 712 435 730
f 730 97 696
f 569 135 805
f 805 135 528
f 583 548 805
f 805 528 583
f 75 200 39
f 75 135 200
f 39 528 75
f 528 135 75
f 110 386 317
f 758 632 114
f 485 632 758
f 758 677 485
f 248 760 793
f 65 760 248
f 248 575 498
f 793 575 248
f 141 380 31
f 182 380 748
f 643 380 182
f 769 452 690
f 690 153 769
f 452 549 216
f 216 549 734
f 540 153 359
f 153 690 359
f 51 509 540
f 31 509 51
f 51 299 748
f 51 141 31
f 748 380 51
f 280 299 630
f 219 617 630
f 617 280 630
f 483 44 24
f 24 425 483
f 44 425 24
f 598 44 42
f 598 425 44
f 503 625 598
f 598 42 503
f 42 44 645
f 286 513 423
f 423 627 286
f 513 627 423
f 147 366 821
f 366 745 821
f 587 655 666
f 655 822 666
f 410 409 129
f 129 281 410
f 410 281 684
f 684 437 410
f 410 437 416
f 416 301 410
f 410 301 812
f 270 626 771
f 771 626 628
f 416 437 506
f 25 416 506
f 506 753 25
f 573 442 812
f 812 301 573
f 339 777 559
f 559 166 285
f 285 339 559
f 744 777 663
f 268 293 557
f 593 293 656
f 593 663 567
f 557 293 593
f 593 268 557
f 314 268 593
f 274 370 524
f 274 505 370
f 95 171 524
f 524 249 95
f 95 249 314
f 398 532 146
f 398 808 532
f 826 237 108
f 761 826 108
f 502 108 237
f 427 665 91
f 826 665 427
f 565 555 542
f 300 523 217
f 203 747 787
f 680 203 787
f 787 686 680
f 787 180 686
f 484 610 537
f 537 101 484
f 594 704 84
f 7 476 537
f 783 28 606
f 783 145 28
f 351 372 577
f 577 309 351
f 487 532 567
f 487 28 532
f 784 18 585
f 18 803 585
f 596 655 93
f 93 671 596
f 26 56 60
f 60 204 26
f 612 810 591
f 356 810 612
f 641 459 60
f 641 810 459
f 81 405 591
f 81 591 6
f 6 12 81
f 12 240 358
f 831 12 6
f 831 240 12
f 564 459 194
f 564 204 60
f 60 459 564
f 259 264 595
f 27 293 455
f 449 268 314
f 447 370 757
f 704 232 621
f 621 84 704
f 610 84 621
f 242 537 621
f 537 610 621
f 128 489 804
f 804 365 128
f 242 738 792
f 792 187 242
f 489 263 792
f 332 795 474
f 332 375 795
f 765 375 120
f 375 26 120
f 120 26 13
f 120 208 589
f 207 765 120
f 120 580 207
f 120 139 580
f 757 139 120
f 296 462 292
f 462 759 292
f 292 468 296
f 292 759 468
f 39 681 574
f 574 759 39
f 681 435 574
f 468 759 574
f 574 435 468
f 624 57 161
f 161 57 80
f 607 432 65
f 65 832 607
f 774 832 150
f 159 813 493
f 493 813 743
f 743 434 493
f 19 434 743
f 475 434 19
f 743 471 19
f 19 471 475
f 272 475 227
f 272 284 475
f 714 818 347
f 347 371 714
f 714 586 251
f 714 371 586
f 503 366 685
f 685 625 503
f 366 809 685
f 685 526 625
f 685 818 526
f 809 347 685
f 347 818 685
f 53 162 680
f 680 371 53
f 53 477 162
f 53 371 225
f 225 86 53
f 86 477 53
f 25 467 327
f 467 791 327
f 720 467 442
f 720 791 467
f 269 494 467
f 269 78 700
f 467 78 269
f 38 494 269
f 700 419 269
f 269 419 38
f 568 452 478
f 568 549 452
f 478 419 568
f 419 549 568
f 138 188 578
f 138 649 188
f 578 79 138
f 79 649 138
f 47 649 278
f 414 649 47
f 123 644 429
f 670 644 123
f 123 344 827
f 321 344 123
f 827 344 799
f 443 256 340
f 528 256 443
f 543 780 529
f 196 462 529
f 529 780 196
f 210 89 379
f 89 660 379
f 379 462 210
f 3 445 247
f 247 754 3
f 165 754 247
f 624 223 363
f 450 436 80
f 618 813 797
f 813 683 797
f 498 618 797
f 742 682 797
f 797 415 498
f 797 682 415
f 448 133 622
f 562 565 448
f 448 439 562
f 116 133 448
f 448 542 116
f 565 542 448
f 151 231 368
f 116 151 368
f 368 133 116
f 368 287 622
f 368 726 287
f 622 133 368
f 2 614 168
f 2 170 159
f 159 337 2
f 337 614 2
f 679 170 87
f 707 377 679
f 813 679 1
f 177 683 813
f 177 377 683
f 576 469 624
f 624 161 576
f 377 707 576
f 683 377 373
f 377 576 373
f 440 805 548
f 569 805 440
f 440 736 569
f 479 736 440
f 317 386 45
f 224 736 479
f 224 45 736
f 224 176 317
f 317 45 224
f 605 199 143
f 143 199 349
f 349 492 143
f 492 588 143
f 143 112 605
f 281 158 466
f 622 302 675
f 696 712 746
f 746 730 696
f 712 730 746
f 664 386 654
f 386 110 654
f 395 319 623
f 623 176 395
f 317 176 623
f 623 313 317
f 608 248 623
f 221 319 150
f 221 248 608
f 545 359 739
f 739 216 734
f 452 216 739
f 734 172 739
f 739 690 452
f 739 359 690
f 739 172 349
f 739 199 545
f 349 199 739
f 706 51 540
f 299 51 706
f 241 236 219
f 539 598 625
f 425 598 539
f 625 266 539
f 266 425 539
f 286 334 417
f 417 323 616
f 334 307 417
f 417 307 323
f 417 483 286
f 417 44 483
f 315 533 48
f 315 48 147
f 147 821 315
f 587 533 315
f 604 745 42
f 42 821 604
f 604 821 745
f 616 323 662
f 323 821 662
f 42 645 481
f 481 821 42
f 262 533 587
f 587 666 262
f 705 404 552
f 705 410 404
f 729 410 812
f 404 410 729
f 628 603 470
f 470 771 628
f 753 506 551
f 293 268 458
f 268 449 458
f 22 593 656
f 663 593 22
f 567 310 426
f 426 593 567
f 426 310 314
f 314 593 426
f 613 398 146
f 808 398 558
f 532 808 558
f 558 95 314
f 314 310 558
f 558 310 532
f 95 558 121
f 121 558 398
f 463 189 562
f 463 502 237
f 562 439 463
f 439 502 463
f 582 206 374
f 663 582 374
f 374 744 663
f 374 206 324
f 348 300 217
f 258 281 129
f 129 721 258
f 258 158 281
f 258 721 158
f 550 502 439
f 762 787 747
f 180 787 762
f 600 101 620
f 600 484 101
f 610 484 49
f 806 594 99
f 99 84 610
f 203 806 99
f 99 747 203
f 584 515 658
f 126 627 658
f 513 584 658
f 658 627 513
f 408 584 180
f 408 515 584
f 146 476 456
f 476 7 456
f 201 101 537
f 537 446 201
f 537 476 387
f 387 446 537
f 642 102 766
f 766 460 642
f 642 460 385
f 334 102 642
f 642 307 334
f 642 391 323
f 323 307 642
f 596 671 510
f 653 26 204
f 13 26 653
f 204 208 653
f 74 124 591
f 591 405 74
f 405 81 834
f 709 81 12
f 100 119 536
f 536 561 100
f 119 422 536
f 194 561 536
f 536 564 194
f 342 564 536
f 57 561 631
f 650 834 81
f 698 208 204
f 204 564 698
f 239 648 689
f 807 57 689
f 689 648 807
f 100 561 807
f 807 561 57
f 441 445 20
f 20 239 441
f 20 445 116
f 648 239 20
f 725 496 595
f 300 348 556
f 595 264 169
f 222 259 595
f 657 259 222
f 657 27 713
f 713 259 657
f 713 763 107
f 713 27 455
f 455 763 713
f 107 119 713
f 713 119 100
f 100 264 713
f 264 259 713
f 293 27 433
f 293 458 715
f 314 249 61
f 61 449 314
f 490 447 757
f 589 447 490
f 489 205 105
f 105 205 232
f 105 232 704
f 104 792 738
f 104 205 489
f 489 792 104
f 279 120 13
f 208 120 279
f 13 653 279
f 279 653 208
f 80 436 801
f 801 161 80
f 308 774 150
f 197 774 308
f 198 774 197
f 251 818 277
f 277 714 251
f 818 714 277
f 420 361 414
f 112 776 629
f 553 123 429
f 321 123 553
f 429 260 553
f 260 321 553
f 517 184 670
f 670 123 517
f 517 155 184
f 517 123 827
f 827 799 517
f 728 822 52
f 52 799 344
f 360 728 52
f 52 344 360
f 184 155 430
f 462 660 73
f 543 529 73
f 73 638 543
f 73 660 638
f 304 660 462
f 462 379 304
f 304 379 660
f 341 754 624
f 624 363 341
f 464 363 223
f 6 785 782
f 782 508 6
f 522 450 6
f 6 508 522
f 436 450 522
f 352 797 683
f 635 448 622
f 439 448 635
f 622 675 635
f 267 231 726
f 726 368 267
f 267 368 231
f 170 2 823
f 168 223 823
f 823 2 168
f 223 469 823
f 823 87 170
f 21 576 318
f 469 576 21
f 679 87 21
f 21 823 469
f 87 823 21
f 740 707 679
f 318 576 740
f 740 576 707
f 393 377 813
f 813 1 393
f 679 377 637
f 813 377 90
f 90 177 813
f 377 177 90
f 683 373 406
f 406 352 683
f 742 797 406
f 797 352 406
f 415 682 406
f 406 682 742
f 722 576 161
f 722 373 576
f 303 444 692
f 390 785 303
f 71 280 617
f 500 776 112
f 112 143 500
f 152 302 219
f 219 611 152
f 611 211 152
f 492 466 601
f 601 466 158
f 601 158 439
f 601 152 211
f 601 675 302
f 302 152 601
f 439 635 601
f 601 635 675
f 601 588 492
f 236 588 601
f 601 211 236
f 608 623 235
f 235 623 319
f 235 221 608
f 319 221 235
f 815 233 114
f 275 233 815
f 815 415 275
f 114 632 815
f 498 415 815
f 815 248 498
f 150 65 35
f 35 221 150
f 65 248 35
f 248 221 35
f 219 630 514
f 514 241 219
f 44 417 820
f 820 662 44
f 781 531 93
f 291 391 671
f 323 391 291
f 671 93 291
f 480 672 753
f 753 551 480
f 16 95 767
f 95 134 767
f 4 16 767
f 146 4 512
f 512 613 146
f 676 134 95
f 95 121 676
f 402 324 461
f 402 374 324
f 523 300 829
f 129 550 504
f 504 721 129
f 504 550 439
f 439 158 504
f 158 721 504
f 560 600 620
f 484 600 560
f 647 762 610
f 610 49 647
f 180 762 647
f 647 408 180
f 515 408 647
f 647 658 515
f 49 658 647
f 594 84 751
f 751 99 594
f 84 99 751
f 749 762 747
f 747 99 749
f 749 99 610
f 126 658 191
f 191 658 49
f 54 92 372
f 372 351 54
f 816 642 385
f 391 642 816
f 385 596 816
f 596 510 816
f 671 391 816
f 816 510 671
f 194 124 778
f 80 57 403
f 195 831 6
f 501 119 107
f 501 422 119
f 57 631 63
f 125 561 194
f 250 715 589
f 589 208 250
f 208 698 250
f 330 564 342
f 330 698 564
f 499 264 100
f 100 807 499
f 499 169 264
f 731 807 648
f 520 20 116
f 116 322 520
f 520 322 496
f 401 169 454
f 401 725 595
f 595 169 401
f 589 715 399
f 399 715 449
f 773 458 449
f 449 715 773
f 773 715 458
f 33 198 197
f 197 465 33
f 33 465 55
f 414 47 136
f 136 420 414
f 47 420 136
f 278 361 431
f 361 420 431
f 431 47 278
f 431 420 47
f 132 629 776
f 540 629 132
f 132 706 540
f 155 517 68
f 68 517 799
f 68 430 155
f 799 430 68
f 799 52 693
f 693 430 799
f 693 822 655
f 693 52 822
f 655 184 693
f 184 430 693
f 723 529 462
f 462 73 723
f 723 73 529
f 754 341 261
f 9 223 116
f 9 464 223
f 116 345 9
f 122 1 679
f 679 637 122
f 377 393 331
f 331 637 377
f 303 692 154
f 154 692 373
f 154 390 303
f 373 692 257
f 257 406 373
f 257 692 444
f 415 406 257
f 257 444 415
f 50 71 617
f 479 440 294
f 294 50 479
f 71 50 294
f 329 623 248
f 248 815 329
f 737 417 616
f 737 820 417
f 616 662 737
f 662 820 737
f 213 315 821
f 213 781 315
f 213 821 323
f 323 781 213
f 640 655 587
f 587 315 640
f 315 781 640
f 640 93 655
f 640 781 93
f 93 531 103
f 103 291 93
f 531 781 103
f 103 781 323
f 323 291 103
f 300 556 244
f 496 322 244
f 595 496 244
f 544 218 523
f 523 829 544
f 116 542 534
f 534 542 555
f 610 762 17
f 17 749 610
f 762 749 17
f 126 191 708
f 708 191 49
f 708 620 126
f 708 560 620
f 708 49 484
f 484 560 708
f 92 54 343
f 487 92 343
f 28 487 343
f 124 74 701
f 701 778 124
f 659 109 6
f 6 109 40
f 40 195 6
f 57 63 488
f 554 358 240
f 194 778 833
f 833 125 194
f 455 293 209
f 209 250 763
f 209 763 455
f 715 250 209
f 293 715 209
f 678 250 698
f 698 330 678
f 183 731 454
f 807 731 183
f 454 169 183
f 433 160 328
f 779 293 328
f 293 433 328
f 556 160 367
f 691 447 589
f 589 399 691
f 525 261 345
f 754 261 525
f 345 261 538
f 538 9 345
f 669 782 785
f 218 544 156
f 156 534 218
f 156 322 116
f 116 534 156
f 756 659 403
f 358 554 392
f 392 554 63
f 240 488 457
f 457 554 240
f 290 14 631
f 81 824 325
f 325 650 81
f 325 824 125
f 125 833 325
f 250 678 516
f 516 536 422
f 697 160 433
f 697 367 160
f 556 367 306
f 595 244 306
f 306 244 556
f 482 652 673
f 673 722 482
f 109 659 819
f 659 756 819
f 137 403 57
f 137 756 403
f 117 392 63
f 117 63 631
f 631 14 117
f 382 488 63
f 382 457 488
f 12 290 755
f 755 290 631
f 755 709 12
f 127 516 422
f 250 516 127
f 234 212 673
f 673 652 234
f 273 669 785
f 782 669 412
f 412 64 782
f 161 64 661
f 669 273 718
f 295 64 161
f 295 424 64
f 782 64 245
f 64 424 245
f 161 661 62
f 828 62 798
f 828 482 722
f 828 722 161
f 161 62 828
f 669 718 636
f 718 828 636
f 636 828 798
f 234 350 413
f 212 234 413
f 413 350 718
f 413 718 273
f 786 77 527
f 786 69 775
f 527 167 786
f 66 817 786
f 786 297 397
f 786 727 255
f 355 77 786
f 786 167 66
f 786 58 355
f 786 794 727
f 786 85 311
f 255 130 786
f 786 817 794
f 786 70 388
f 397 58 786
f 775 297 786
f 254 69 786
f 311 70 786
f 130 85 786
f 388 809 786
f 786 809 473
f 226 142 835
f 835 215 226
f 142 802 835
f 835 802 634
f 43 768 193
f 193 768 289
f 788 411 795
f 765 788 795
f 339 238 202
f 694 18 202
f 202 18 339
f 34 497 285
f 285 149 34
f 34 149 185
f 34 421 497
f 615 699 541
f 451 252 243
f 717 451 243
f 243 733 717
f 128 733 243
f 472 519 83
f 83 519 229
f 229 830 83
f 418 741 131
f 271 566 695
f 695 320 734
f 695 8 320
f 734 407 695
f 695 407 753
f 566 8 695
f 233 15 758
f 114 233 758
f 758 15 716
f 716 789 758
f 758 789 677
f 380 141 51
f 148 580 274
f 524 192 274
f 157 148 274
f 274 192 157
f 580 139 274
f 139 505 274
f 95 687 36
f 36 171 95
f 95 16 687
f 646 276 585
f 585 581 646
f 585 276 784
f 585 803 581
f 602 400 641
f 60 572 641
f 641 106 602
f 400 810 641
f 572 106 641
f 194 459 124
f 124 612 591
f 124 459 356
f 356 612 124
f 332 26 375
f 474 56 332
f 56 26 332
f 592 337 493
f 493 337 159
f 493 563 592
f 434 563 493
f 770 284 272
f 227 770 272
f 720 301 416
f 720 416 25
f 442 573 720
f 25 327 720
f 720 573 301
f 720 327 791
f 443 376 528
f 340 376 443
f 569 736 45
f 45 386 569
f 654 668 664
f 317 668 654
f 654 110 317
f 44 662 481
f 481 645 44
f 481 662 821
f 262 495 48
f 48 533 262
f 822 495 262
f 262 666 822
f 705 626 651
f 705 651 409
f 705 552 628
f 628 626 705
f 409 410 705
f 389 354 729
f 729 354 404
f 729 790 389
f 812 790 729
f 470 603 282
f 470 335 270
f 470 703 710
f 282 703 470
f 710 335 470
f 270 771 470
f 463 427 91
f 91 189 463
f 463 237 826
f 826 427 463
f 656 324 206
f 206 582 663
f 206 22 656
f 663 22 206
f 761 108 550
f 129 579 550
f 579 761 550
f 108 502 550
f 537 187 456
f 456 263 146
f 187 792 456
f 456 792 263
f 456 7 537
f 387 783 606
f 606 101 387
f 387 476 220
f 220 145 387
f 101 201 387
f 145 783 387
f 387 201 446
f 570 372 92
f 567 570 92
f 92 487 567
f 689 165 239
f 165 247 239
f 239 445 441
f 239 247 445
f 490 120 589
f 757 120 490
f 704 30 105
f 105 804 489
f 30 365 105
f 365 804 105
f 242 621 104
f 104 738 242
f 104 621 232
f 232 205 104
f 308 319 395
f 308 465 197
f 395 535 308
f 535 465 308
f 150 319 308
f 545 199 629
f 629 359 545
f 629 199 605
f 605 112 629
f 540 359 629
f 679 21 740
f 740 21 318
f 281 466 480
f 684 281 480
f 480 492 672
f 480 437 684
f 480 506 437
f 480 466 492
f 480 551 506
f 4 767 676
f 676 121 398
f 676 512 4
f 398 613 676
f 676 767 134
f 613 512 676
f 166 559 402
f 402 665 166
f 461 665 402
f 402 559 777
f 777 744 402
f 744 374 402
f 648 20 401
f 401 520 496
f 454 731 401
f 496 725 401
f 401 731 648
f 20 520 401
f 72 432 33
f 55 72 33
f 432 607 33
f 33 607 832
f 832 774 33
f 774 198 33
f 132 630 299
f 132 143 588
f 299 706 132
f 132 588 236
f 236 241 132
f 132 514 630
f 776 500 132
f 132 500 143
f 241 514 132
f 1 122 331
f 331 393 1
f 331 122 637
f 617 724 50
f 176 224 50
f 50 724 176
f 50 224 479
f 548 825 294
f 294 182 748
f 748 280 294
f 294 440 548
f 294 825 643
f 643 182 294
f 280 71 294
f 485 313 329
f 329 632 485
f 329 815 632
f 313 623 329
f 562 523 534
f 534 555 562
f 523 218 534
f 796 28 343
f 343 351 309
f 343 369 796
f 309 369 343
f 343 54 351
f 80 403 659
f 6 450 659
f 659 450 80
f 169 499 183
f 183 499 807
f 328 348 217
f 328 217 779
f 328 556 348
f 328 160 556
f 449 61 691
f 691 61 249
f 691 249 370
f 691 399 449
f 370 447 691
f 525 345 3
f 3 754 525
f 363 464 538
f 538 341 363
f 464 9 538
f 538 261 341
f 300 244 156
f 156 829 300
f 156 244 322
f 156 544 829
f 325 74 405
f 834 650 325
f 325 701 74
f 405 834 325
f 778 701 325
f 325 833 778
f 516 330 342
f 342 536 516
f 516 678 330
f 306 27 657
f 306 222 595
f 657 222 306
f 306 433 27
f 306 697 433
f 367 697 306
f 195 40 137
f 109 819 137
f 57 488 137
f 240 831 137
f 137 40 109
f 137 488 240
f 831 195 137
f 137 819 756
f 12 358 117
f 358 392 117
f 117 290 12
f 14 290 117
f 554 457 382
f 63 554 382
f 755 631 561
f 755 824 81
f 81 709 755
f 561 125 755
f 125 824 755
f 763 250 127
f 107 763 127
f 127 501 107
f 422 501 127
f 436 522 245
f 245 801 436
f 161 801 245
f 508 782 245
f 245 522 508
f 245 295 161
f 424 295 245
f 828 234 652
f 652 482 828
f 828 350 234
f 718 350 828
f 636 412 669
f 798 62 636
f 64 412 636
f 636 661 64
f 636 62 661
f 413 722 673
f 413 154 373
f 373 722 413
f 785 390 413
f 390 154 413
f 673 212 413
f 413 273 785

