# https://github.com/mikedh/trimesh
v -0.02957682 0.02630750 0.00149709
v -0.02852917 0.02529134 0.00523320
v -0.02777495 0.02668920 0.00017847
v -0.02634489 0.02676161 0.00040449
v -0.02975388 0.02504096 0.00530219
v -0.03288962 0.02568048 0.00205092
v -0.03455263 0.02539254 0.00203325
v -0.02873579 0.02571178 0.00377037
v -0.02604765 0.02582297 0.00402423
v -0.02922522 0.02505201 0.00554994
v -0.03441708 0.02526685 0.00244645
v -0.02930417 0.02603197 0.00252279
v -0.03377476 0.02514693 0.00311962
v -0.02979691 0.02579380 0.00312627
v -0.03044524 0.02631926 0.00120921
v -0.02536824 0.02662140 0.00132892
v -0.03490182 0.02517127 0.00239488
v -0.03590732 0.02524302 0.00140103
v -0.02610687 0.02671858 0.00075856
v -0.02510790 0.02525055 0.00627670
v -0.03436868 0.02554211 0.00171946
v -0.03402639 0.02568805 0.00137885
v -0.03513556 0.02516401 0.00226876
v -0.03530950 0.02546224 0.00120631
v -0.03161347 0.02594921 0.00183629
v -0.02682283 0.02653574 0.00130708
v -0.03442300 0.02555558 0.00163395
v -0.03403356 0.02522667 0.00277048
v -0.02702576 0.02652334 0.00130559
f 18 20 5
f 16 20 18
f 18 4 16
f 3 4 18
f 3 15 4
f 4 15 19
f 19 16 4
f 15 1 19
f 24 3 18
f 15 3 24
f 2 8 15
f 20 8 2
f 20 16 9
f 9 1 20
f 15 8 12
f 12 1 15
f 12 8 20
f 20 1 12
f 29 19 1
f 1 9 29
f 18 5 23
f 5 13 23
f 22 21 15
f 15 24 22
f 13 2 6
f 10 13 5
f 10 2 13
f 10 5 20
f 20 2 10
f 26 9 16
f 26 29 9
f 16 19 26
f 19 29 26
f 21 22 27
f 27 22 24
f 25 6 2
f 15 21 25
f 21 6 25
f 21 7 28
f 28 6 21
f 13 6 28
f 14 2 15
f 15 25 14
f 14 25 2
f 11 7 23
f 11 28 7
f 13 28 11
f 17 23 13
f 13 11 17
f 17 11 23
f 27 7 21
f 27 24 18
f 18 23 27
f 23 7 27

