# https://github.com/mikedh/trimesh
v 0.06583492 0.01793896 0.01845393
v 0.05255175 0.02773598 0.01633633
v 0.06888703 0.01696516 0.01670509
v 0.06372528 0.01854612 0.01953389
v 0.06245762 0.02241680 0.01738984
v 0.06837968 0.01764375 0.00120600
v 0.05282198 0.02767062 0.00043823
v 0.07222541 0.01115497 0.00866147
v 0.06717602 0.01906990 0.01659986
v 0.06180437 0.02370802 0.01653627
v 0.07381003 0.00505798 0.01692323
v 0.06564024 0.02065174 0.00914088
v 0.07398160 0.00498941 0.01676528
v 0.05049961 0.02813883 0.00013863
v 0.05726683 0.02251623 0.02001879
v 0.06348356 0.01797292 0.02010455
v 0.05742510 0.02404104 0.01857880
v 0.06846857 0.01290628 0.01928723
v 0.05924504 0.02136895 0.02005798
v 0.05101393 0.00010200 0.02050000
v 0.07116559 0.00028006 0.02002398
v 0.07305615 0.00895442 0.01135986
v 0.06553251 0.02075336 0.00597360
v 0.07285650 0.00953350 0.00185490
v 0.07249339 0.00747040 0.01767065
v 0.06930250 0.01632768 0.01674516
v 0.07306702 0.00891833 0.00145657
v 0.06509021 0.01696071 0.01966239
v 0.07205716 0.00252927 0.01901904
v 0.07435136 0.00290469 0.01632248
v 0.06847467 0.01752424 0.01668531
v 0.06031924 0.02462983 0.01637780
v 0.06251299 0.02322099 0.00014796
v 0.07101875 0.01273707 0.01712217
v 0.05029377 0.02817401 0.01119278
v 0.07449811 0.00021750 0.00474435
v 0.05224952 0.02683812 0.01764020
v 0.07442681 0.00203290 0.01041134
v 0.06156508 0.02387221 0.00068884
v 0.06813544 0.01732668 0.01708488
v 0.06391570 0.01913015 0.01898972
v 0.06447255 0.02170171 0.00076983
v 0.05183284 0.02789281 0.01644140
v 0.05845391 0.02563398 0.00376265
v 0.06830695 0.01773781 0.01581354
v 0.06897543 0.00986276 0.02019353
v 0.07220864 0.01119628 0.00696035
v 0.07426104 0.00367727 0.00269160
v 0.07411755 0.00076105 0.01706063
v 0.06665771 0.01811301 0.01772559
v 0.06087527 0.02430963 0.01311841
v 0.05797372 0.02586052 0.00047504
v 0.05557518 0.02592286 0.01756431
v 0.05941929 0.02514248 0.00181131
v 0.05103635 0.02804117 0.00003419
v 0.06859451 0.01429972 0.01844049
v 0.06372119 0.01722176 0.02045710
v 0.07042267 0.00734773 0.01969359
v 0.07346309 0.00761436 0.00085988
v 0.07422639 0.00391661 0.01653000
v 0.05431865 0.02576976 0.01810889
v 0.06544264 0.02083759 0.01456612
v 0.07020370 0.00458250 0.02050000
v 0.06107208 0.02000121 0.02015464
v 0.06405843 0.01684196 0.02048090
v 0.05776982 0.02595241 0.00065043
v 0.07270005 0.00667782 0.01766883
v 0.07171745 0.01225908 0.00066322
v 0.06655113 0.01332436 0.02050000
v 0.05933748 0.02433967 0.01743801
v 0.06546824 0.02081404 0.01322786
v 0.06976780 0.01571818 0.00011050
v 0.07364721 0.00314695 0.01737091
v 0.07137160 0.01297813 0.01506905
v 0.06158435 0.02386117 0.00759532
v 0.06789105 0.01091863 0.02050000
v 0.07375664 0.00368323 0.01719739
v 0.05232346 0.02778953 0.01199112
v 0.06015551 0.02223158 0.01884210
v 0.05894142 0.02538818 0.01643370
v 0.05864131 0.02549248 0.01674318
v 0.05574935 0.02677704 0.01665188
v 0.07276465 0.00978671 0.01654307
v 0.05857717 0.02402101 0.01808120
v 0.05969061 0.02499039 0.00030864
v 0.07189538 0.01187978 0.00002365
v 0.06826053 0.01779628 0.01587332
v 0.07133616 0.01256104 0.01691255
v 0.07303067 0.00903016 0.01612460
v 0.06829289 0.01775569 0.01297333
v 0.07222261 0.01116162 0.01071027
v 0.07311555 0.00877152 0.00099943
v 0.06558709 0.01699807 0.01926300
v 0.06723098 0.01879745 0.01684122
v 0.07449720 0.00031658 0.01528524
v 0.05926862 0.02129623 0.02010817
v 0.07258056 0.00427553 0.01826427
v 0.06441427 0.02174991 0.01529984
v 0.06162313 0.02383522 0.00388224
v 0.07099356 0.01277922 0.01712638
v 0.06863636 0.01731517 0.00167307
v 0.06883961 0.01478099 0.01797758
v 0.05926730 0.02522233 0.01579859
v 0.06158125 0.02102007 0.01903351
v 0.05683402 0.02629346 0.01674842
v 0.06966581 0.01587938 0.00197608
v 0.06201814 0.02168660 0.01823819
v 0.07047062 0.01460946 0.01170032
v 0.05713360 0.02588065 0.01701455
v 0.07343691 0.00770060 0.00067139
v 0.07143432 0.01285594 0.00076013
v 0.05626146 0.02651086 0.01676731
v 0.07079801 0.00016472 0.02039456
v 0.06498244 0.02124652 0.01656055
v 0.06083401 0.02299494 0.01783263
v 0.05231114 0.02779221 0.01517443
v 0.07138979 0.01294345 0.01227886
v 0.06901129 0.01647895 0.01689473
v 0.05380274 0.02739266 0.00011793
v 0.05445140 0.02476293 0.01902090
v 0.06255823 0.02279293 0.01702593
v 0.05235354 0.02778273 0.01207170
v 0.05825623 0.02513820 0.01723267
v 0.05594593 0.02670810 0.00233500
v 0.06743587 0.01878110 0.00424819
v 0.06275382 0.02305547 0.00140444
v 0.07007218 0.01523590 0.01643433
v 0.06056682 0.02435269 0.01681677
v 0.07380392 0.00621802 0.01643238
v 0.06277525 0.02303971 0.00261216
v 0.07393915 0.00562276 0.00897606
v 0.07140968 0.01290505 0.00834841
v 0.07395342 0.00555308 0.01178782
v 0.07357047 0.00721580 0.00162258
v 0.07441779 0.00211710 0.00003223
v 0.07448817 0.00043407 0.00151109
v 0.05941633 0.02514429 0.00565030
v 0.07007219 0.01450789 0.01708882
v 0.06984646 0.01559328 0.00005624
v 0.06364811 0.01824073 0.01980150
v 0.07079429 0.01403022 0.01652835
v 0.07032411 0.00476113 0.02040837
v 0.07197883 0.01169725 0.01633043
v 0.05452524 0.02719333 0.00136060
v 0.05426357 0.02713773 0.01682781
v 0.07205554 0.00884510 0.01767890
v 0.06525113 0.01748210 0.01918777
v 0.07132958 0.00272536 0.01972141
v 0.07284052 0.00957784 0.01559940
v 0.07236703 0.00730214 0.01783579
v 0.06566025 0.02053940 0.01676620
v 0.05232659 0.02778885 0.01081723
v 0.05553474 0.02684777 0.00004247
v 0.05470387 0.02397852 0.01968475
v 0.07359305 0.00712506 0.00350200
v 0.05173728 0.02791129 0.01121285
v 0.07364614 0.00240138 0.01744676
v 0.05144017 0.02406399 0.02049974
v 0.06638354 0.01443028 0.02022276
v 0.05253007 0.02678939 0.01762445
v 0.06643622 0.01428487 0.02025646
v 0.07235953 0.01081324 0.01616677
v 0.06929934 0.01641050 0.00012023
v 0.05744153 0.02332796 0.01921688
v 0.06747242 0.01873931 0.01577780
v 0.05199919 0.02786044 0.00899541
v 0.07186103 0.01195424 0.00047395
v 0.07424138 0.00382671 0.01434633
v 0.06434279 0.02181123 0.01619688
v 0.06117623 0.02411994 0.01587853
v 0.05005767 0.02820081 0.00290281
v 0.07388869 0.00582247 0.00014634
v 0.06401182 0.02130219 0.01729892
v 0.07343007 0.00410887 0.01745383
v 0.07221584 0.00636682 0.01821051
v 0.07312461 0.00767253 0.01700752
v 0.06857541 0.01739447 0.01532484
v 0.07210828 0.01141909 0.00008660
v 0.06202407 0.02321363 0.01698182
v 0.05019554 0.02787678 0.01700903
v 0.06162650 0.02008583 0.01974111
v 0.06515047 0.02076392 0.01694984
v 0.07347556 0.00757222 0.00626186
v 0.07449928 0.00013809 0.00388246
v 0.06293233 0.01858894 0.02005050
v 0.06916791 0.01659444 0.00065571
v 0.05208056 0.02784324 0.01526264
v 0.06946989 0.00816836 0.02032176
v 0.05506418 0.02344463 0.02005570
v 0.07408215 0.00200946 0.01704328
v 0.05017098 0.02765597 0.01723096
v 0.07441491 0.00217738 0.01522248
v 0.06848072 0.01751382 0.00074162
v 0.07443208 0.00195877 0.00270165
v 0.05603858 0.02667350 0.01017749
v 0.05207203 0.02676804 0.01774647
v 0.07425815 0.00370207 0.00317647
v 0.05591894 0.02671816 0.01528777
v 0.06389977 0.02164747 0.01710417
v 0.05660928 0.02643936 0.01669364
v 0.05237910 0.02539236 0.01901602
v 0.07333705 0.00802951 0.01669543
v 0.06313303 0.02277165 0.00120843
v 0.07405728 0.00190743 0.01707301
v 0.07165596 0.00930536 0.01789858
v 0.07309901 0.00882347 0.00239492
v 0.06950547 0.01555212 0.01700678
v 0.05018092 0.02709635 0.01778106
v 0.07044720 0.01464667 0.00102049
v 0.05322588 0.02728202 0.01696573
v 0.07257306 0.00985877 0.01685196
v 0.07227900 0.00062901 0.01889948
v 0.05927974 0.02506264 0.01683594
v 0.06929714 0.01641372 0.00082014
v 0.05592238 0.02671611 0.00020283
v 0.05231911 0.02497324 0.01943687
v 0.07169359 0.00593524 0.01881823
v 0.05275721 0.02395845 0.02029055
v 0.05888839 0.02469771 0.01733976
v 0.06517097 0.02107232 0.00006418
v 0.06813921 0.01794671 0.00380947
v 0.06755901 0.01863687 0.01646538
v 0.07273385 0.00911256 0.01695267
v 0.05601781 0.02668132 0.00988779
v 0.07307426 0.00521476 0.01762312
v 0.06067526 0.02442538 0.01612335
v 0.06087177 0.02431195 0.01486031
v 0.06751184 0.01283401 0.02013195
v 0.05277809 0.02706288 0.01729734
v 0.07363813 0.00027978 0.01755856
v 0.07413553 0.00446391 0.00024442
v 0.06936816 0.01631216 0.01668628
v 0.06952994 0.00999833 0.01963366
v 0.07070813 0.00201725 0.02039212
v 0.05821308 0.02562513 0.01681054
v 0.07443552 0.00188975 0.00028210
v 0.05215500 0.02782676 0.01543854
v 0.05039465 0.02565809 0.01916002
v 0.06918833 0.01656686 0.01298178
v 0.07180034 0.01208332 0.00042121
v 0.07046386 0.01462050 0.00778866
v 0.05907127 0.02105166 0.02041918
v 0.05711312 0.02552744 0.01734841
v 0.05938357 0.02516146 0.00627906
v 0.07443178 0.00194310 0.00754644
v 0.06733573 0.01533721 0.01892155
v 0.07085165 0.00970300 0.01851170
v 0.07347891 0.00755956 0.00514343
v 0.05338773 0.02521203 0.01891591
v 0.06826033 0.00000616 0.02050000
v 0.07215474 0.01132144 0.01192059
v 0.05953537 0.02508069 0.00200753
v 0.06832271 0.01771713 0.00530104
v 0.07396284 0.00476585 0.01682050
v 0.06220920 0.01872351 0.02040773
v 0.05718584 0.02206644 0.02044810
v 0.06558278 0.02070589 0.00119451
v 0.06799985 0.01811273 0.00053800
v 0.06888062 0.01446821 0.01811039
v 0.05787002 0.02160521 0.02050000
v 0.05546917 0.02547609 0.01802083
v 0.05039491 0.02815460 0.01603804
v 0.07432681 0.00311479 0.01548276
v 0.05074531 0.02395504 0.02050000
v 0.07103513 0.00944085 0.01843068
v 0.05538114 0.02456420 0.01890155
v 0.07252999 0.00423984 0.01831959
v 0.07444907 0.00148889 0.01648835
v 0.06492995 0.02128730 0.00003298
v 0.07213840 0.01135713 0.01126940
v 0.05697113 0.02260133 0.02007308
v 0.07361540 0.00148563 0.01753149
v 0.06786429 0.01827574 0.00780744
v 0.07048217 0.01180610 0.01800528
v 0.05898566 0.02505102 0.01698062
v 0.05004036 0.02473750 0.02013067
v 0.06962152 0.01594329 0.00080712
v 0.06058574 0.02369535 0.01737426
v 0.07182112 0.01203906 0.00079574
v 0.06749289 0.01871508 0.00121777
v 0.07205960 0.01152761 0.01111945
v 0.06933710 0.00955241 0.01997421
v 0.05013574 0.02331148 0.02050000
v 0.07356397 0.00723957 0.00056355
v 0.06304835 0.02283496 0.01516714
v 0.07282210 0.00963225 0.00950649
v 0.06863247 0.01732036 0.00082420
v 0.07057753 0.01442811 0.00447095
v 0.05016956 0.02433035 0.02049959
v 0.07043658 0.00493327 0.02027031
v 0.07058507 0.00267540 0.02045987
v 0.05123909 0.02800416 0.00055039
v 0.05598385 0.02669398 0.00023712
v 0.05587524 0.02673414 0.01559010
v 0.05457886 0.02717594 0.00681700
v 0.06883808 0.01579232 0.01743170
v 0.07216596 0.01129542 0.00455706
v 0.05618479 0.02661583 0.01403846
v 0.05441587 0.02722799 0.01652466
v 0.06704032 0.01918305 0.01672496
v 0.07396507 0.00549476 0.00965348
v 0.05951970 0.02508908 0.00052822
v 0.06357347 0.01955176 0.01890485
v 0.06465305 0.01613043 0.02050000
v 0.06136604 0.02385006 0.01682711
v 0.05611884 0.02664296 0.00188635
v 0.07393257 0.00565717 0.01470477
v 0.06299273 0.02287861 0.00028239
v 0.05036975 0.02816244 0.00023805
v 0.06193691 0.02361692 0.01655230
v 0.06663528 0.01918256 0.01702212
v 0.05952347 0.02508710 0.00429954
v 0.06705989 0.01313644 0.02034868
v 0.05432519 0.02725154 0.01670129
v 0.06961626 0.01595347 0.01265275
v 0.05657688 0.02240099 0.02041101
v 0.06599490 0.01711529 0.01887602
v 0.05434739 0.02724222 0.00042689
v 0.07148928 0.01273642 0.01532192
v 0.07449891 0.00020872 0.00732537
v 0.07412947 0.00013338 0.01706981
v 0.06916655 0.01659626 0.01511206
v 0.06234023 0.02316277 0.01684517
v 0.06755333 0.01735053 0.01752356
v 0.06131604 0.02403189 0.01587664
v 0.05015934 0.02819246 0.01619142
v 0.07347150 0.00758667 0.00857414
v 0.06782689 0.01831960 0.00099499
v 0.06845228 0.01287122 0.01931863
v 0.07189521 0.00297525 0.01912936
v 0.07385696 0.00356071 0.01711389
v 0.07090455 0.01382942 0.01649265
v 0.06171893 0.02376674 0.01640651
v 0.06430468 0.02151051 0.01695248
v 0.06570544 0.02058979 0.00030483
v 0.07443332 0.00194110 0.00071647
v 0.05846608 0.02562826 0.00767469
v 0.06548062 0.02045874 0.01694981
v 0.07080596 0.01211954 0.01757939
v 0.07158491 0.00858025 0.01820867
v 0.07222142 0.01116396 0.01318793
v 0.06276317 0.02304868 0.01164061
v 0.05464163 0.02329703 0.02034964
v 0.07432327 0.00250261 0.01676315
v 0.07449905 0.00018272 0.01637680
v 0.06225934 0.02339532 0.00011484
v 0.06739767 0.01285954 0.02021393
v 0.07203864 0.01157236 0.01200199
v 0.05870338 0.02550810 0.00063526
v 0.05844644 0.02563750 0.01648983
v 0.07141932 0.01288702 0.01067470
v 0.06692533 0.01934852 0.01618235
v 0.07419273 0.00159070 0.01695144
v 0.06869614 0.01723136 0.01663760
v 0.07435011 0.00291867 0.00056019
v 0.06824742 0.01781260 0.00851001
v 0.06440657 0.02160653 0.01681292
v 0.07062334 0.00191896 0.02048115
v 0.06441418 0.02175211 0.00850291
v 0.06800749 0.01810634 0.01445024
v 0.05298634 0.02762303 0.01628476
v 0.06112516 0.02128373 0.01907435
v 0.05780551 0.02593768 0.00102871
v 0.06536842 0.01546762 0.02038170
v 0.06806680 0.01803584 0.01505675
v 0.06771748 0.01244184 0.02016937
v 0.07230865 0.01094188 0.00050113
v 0.05223553 0.02780913 0.00239272
v 0.07321162 0.00844265 0.01661564
v 0.06724781 0.01869926 0.01689442
v 0.06123751 0.02266251 0.01787834
v 0.05613408 0.02663724 0.00969824
v 0.07170321 0.00532037 0.01894932
v 0.06909574 0.01555752 0.01734740
v 0.07062090 0.01435169 0.00129710
v 0.06716826 0.01907853 0.00142582
v 0.05474508 0.02384764 0.01979539
v 0.05785141 0.02591734 0.01522644
v 0.05132938 0.02676533 0.01790031
v 0.07283116 0.00960565 0.00004366
v 0.06766531 0.01851112 0.01622789
v 0.07307536 0.00889147 0.01589245
v 0.05181742 0.02740855 0.01717675
v 0.07434617 0.00295189 0.01188664
v 0.07156867 0.00512998 0.01912164
v 0.06774500 0.01841685 0.00272970
v 0.07153576 0.00828043 0.01835291
v 0.06440312 0.02176129 0.01132879
v 0.07118902 0.01331128 0.01627242
v 0.07400219 0.00528002 0.00000290
v 0.06883193 0.00966139 0.02040722
v 0.06919057 0.01328453 0.01847094
v 0.07282395 0.00962798 0.00699953
v 0.05766958 0.02587169 0.01681701
v 0.07440675 0.00227179 0.01595500
v 0.05795255 0.02353918 0.01879719
v 0.06826220 0.01779423 0.01324716
v 0.07226466 0.00527991 0.01840971
v 0.05219440 0.02385917 0.02050000
v 0.07396247 0.00162078 0.01717982
v 0.07107857 0.00497275 0.01963107
v 0.06330879 0.02262942 0.01666763
v 0.07423710 0.00385301 0.00837357
v 0.07050516 0.00173764 0.02050000
v 0.05284745 0.02766464 0.00066128
v 0.06993526 0.01252116 0.01818357
v 0.05169520 0.02791709 0.00070207
v 0.05575098 0.02548862 0.01790654
v 0.07431644 0.00320210 0.00026926
v 0.05197136 0.02786738 0.01614809
v 0.07397542 0.00543902 0.00435914
v 0.05981396 0.02488696 0.01672848
v 0.07443660 0.00179013 0.01647082
v 0.05903498 0.02108058 0.02041159
v 0.06448641 0.02168599 0.01567890
v 0.06761886 0.01796621 0.01708705
v 0.07362881 0.00696370 0.01613703
v 0.07190541 0.01185827 0.00500870
v 0.07392762 0.00566221 0.00285030
v 0.06822206 0.01784408 0.00321870
v 0.05999215 0.02481475 0.00016500
v 0.06600176 0.01691592 0.01899695
v 0.07204763 0.00976257 0.01737644
v 0.07350444 0.00746457 0.01425660
v 0.06390094 0.02148593 0.01722954
v 0.06998217 0.01537732 0.01661773
v 0.07347263 0.00715755 0.01680778
v 0.06820894 0.01786034 0.00211645
v 0.07069334 0.01078289 0.01825022
v 0.06908423 0.01670741 0.00040614
v 0.05211862 0.02783500 0.00237240
v 0.06853683 0.01744497 0.01638819
v 0.06565816 0.02063476 0.00046421
v 0.06868330 0.01443457 0.01829394
v 0.06560927 0.02068100 0.01604186
v 0.07396906 0.00546267 0.01653454
v 0.05573547 0.02655218 0.01691712
v 0.06581396 0.02048178 0.00044529
v 0.06448250 0.01981186 0.01810510
v 0.07394456 0.00559486 0.00537488
v 0.06802399 0.01552641 0.01825206
v 0.06729238 0.01894058 0.00048209
v 0.05472872 0.02712533 0.00038871
v 0.05024290 0.02776884 0.01710726
v 0.07363339 0.00694451 0.01627540
v 0.07311368 0.00408342 0.01776960
v 0.05003637 0.02129717 0.02050000
v 0.07215689 0.01131475 0.00301086
v 0.06918839 0.01656679 0.00142000
v 0.05202641 0.02785352 0.00140560
v 0.05447703 0.02710879 0.01679484
v 0.06283000 0.02278705 0.01687122
v 0.07049233 0.01457249 0.00084657
v 0.07082491 0.01302073 0.01716062
v 0.05621292 0.02660694 0.00269863
v 0.06963899 0.00004974 0.02050000
v 0.06123154 0.02248207 0.01802995
v 0.05936464 0.02349981 0.01815319
v 0.05202482 0.02472657 0.01973773
v 0.07062758 0.00548364 0.01995377
v 0.05623292 0.02659924 0.00036854
v 0.05445522 0.02721670 0.01622688
v 0.07429850 0.00335304 0.01640883
v 0.06263888 0.02313447 0.01661174
v 0.06812786 0.01796049 0.00421336
v 0.05779707 0.02594257 0.00579111
v 0.06665431 0.01540319 0.01942217
v 0.06573892 0.02055748 0.00318348
v 0.07226576 0.01105055 0.01568646
v 0.07219258 0.01123359 0.00046558
v 0.06864901 0.00991746 0.02046197
v 0.06769920 0.01847103 0.00167881
v 0.05604139 0.02448425 0.01872218
v 0.05184225 0.02789165 0.01357487
v 0.06455450 0.01961386 0.01819851
v 0.05002290 0.00083344 0.02050000
v 0.05241005 0.02414171 0.02022018
v 0.05958348 0.02470897 0.01699723
v 0.06079580 0.01984672 0.02044051
v 0.07424906 0.00376960 0.01472447
v 0.07425469 0.00372911 0.00142576
v 0.06370449 0.02207618 0.01688871
v 0.07332094 0.00285665 0.01772904
v 0.06780904 0.01507607 0.01868295
v 0.06473717 0.02146203 0.00014691
v 0.05007732 0.02593691 0.01894217
v 0.06753670 0.01598515 0.01837417
v 0.07220585 0.01120280 0.00799174
v 0.07058948 0.01440268 0.01562459
v 0.07077535 0.01295632 0.01723533
v 0.06669280 0.01956640 0.01671336
v 0.05729432 0.02614989 0.00021956
v 0.07163624 0.01160074 0.01705041
v 0.07306192 0.00893792 0.01387079
v 0.05003113 0.02820593 0.00988566
v 0.07145263 0.01281974 0.00332836
v 0.07280638 0.00967514 0.00884859
v 0.06570671 0.02058703 0.01669221
v 0.06305365 0.02283406 0.00574226
v 0.06564964 0.02064280 0.00032356
v 0.05597673 0.02265196 0.02041870
v 0.06680216 0.01947459 0.01614834
v 0.07449968 0.00006223 0.00444416
v 0.07094020 0.01244786 0.01731779
v 0.07135014 0.01054623 0.01773793
v 0.05941406 0.02070411 0.02050000
v 0.06953189 0.01389291 0.01787094
v 0.05214897 0.02490364 0.01954062
v 0.07426173 0.00366249 0.01635646
v 0.07146018 0.01054440 0.01763616
v 0.06287434 0.02296668 0.01235227
v 0.07449980 0.00003914 0.01560935
v 0.05742796 0.02311884 0.01940991
v 0.06086458 0.02431586 0.01342040
v 0.05027697 0.02817420 0.00090254
v 0.06992219 0.01536171 0.01675865
v 0.05610747 0.02664748 0.01275254
v 0.06978060 0.01569403 0.01581815
v 0.07353270 0.00668802 0.01685656
v 0.06555176 0.02068740 0.01673473
v 0.05005017 0.02815554 0.01674962
v 0.07390015 0.00580294 0.01409113
v 0.07352537 0.00738701 0.01436894
v 0.07316116 0.00861774 0.00029701
v 0.05028597 0.02817496 0.00745018
v 0.06853294 0.01704095 0.01694461
v 0.06288193 0.02271986 0.01689418
v 0.06598982 0.01425237 0.02050000
v 0.07269141 0.00017913 0.01850677
v 0.06675971 0.01951131 0.00009258
v 0.06912529 0.00889609 0.02039495
v 0.06856477 0.01740901 0.01433641
v 0.06809250 0.01800446 0.01486954
v 0.05759896 0.02317082 0.01928601
v 0.06667813 0.01377127 0.02032871
v 0.05608710 0.02665515 0.00411767
v 0.06964800 0.01590236 0.01506537
v 0.05215476 0.02632240 0.01816164
v 0.07058340 0.01441840 0.00679837
v 0.06027533 0.02016122 0.02047544
v 0.05590789 0.02672228 0.01374529
v 0.07357425 0.00719655 0.01400632
v 0.06718847 0.01576528 0.01878373
v 0.06863001 0.01732368 0.00178358
v 0.05168995 0.02792014 0.01004269
v 0.06306318 0.02282704 0.00210919
v 0.05246811 0.02775508 0.00141935
v 0.06303359 0.02284925 0.00721737
v 0.06087642 0.02430883 0.01549241
v 0.06274382 0.02306234 0.01408598
v 0.05784988 0.02591928 0.00203369
v 0.07154208 0.00518724 0.01913635
v 0.06321909 0.02270025 0.01629025
v 0.06791473 0.01821590 0.00703552
v 0.07126903 0.01315664 0.00020649
v 0.06451206 0.01658664 0.02033545
v 0.05773202 0.02596806 0.00046910
v 0.07125400 0.01319292 0.01620086
v 0.06887085 0.01300433 0.01888756
v 0.05015987 0.02755789 0.01732956
v 0.05488230 0.02316738 0.02038007
v 0.06272458 0.02085523 0.01845683
v 0.06172955 0.02376176 0.00202176
v 0.07351429 0.00742586 0.00248138
v 0.06960681 0.01596743 0.01416949
v 0.06147041 0.02393466 0.01582604
v 0.05179233 0.00008983 0.02050000
v 0.06440043 0.02176063 0.00163095
v 0.06930628 0.01640105 0.01506644
v 0.05246323 0.02378643 0.02050000
v 0.07155717 0.01259194 0.01626475
v 0.07315043 0.00851424 0.01673774
v 0.07178085 0.00698252 0.01847803
v 0.06480008 0.02140502 0.00007538
v 0.07176079 0.00006354 0.01943887
v 0.05571091 0.02262900 0.02050000
v 0.06466480 0.02152760 0.00024871
v 0.07218095 0.01126061 0.00133434
v 0.07157010 0.01257125 0.00171858
v 0.05630366 0.02656637 0.01668488
v 0.06712456 0.01751518 0.01775420
v 0.06936805 0.00791414 0.02050000
v 0.06093059 0.02427393 0.00050742
v 0.07215903 0.01131149 0.01240091
v 0.07224839 0.01109741 0.00208343
v 0.07443046 0.00195587 0.01079029
v 0.06463221 0.01633203 0.02042065
v 0.07047326 0.01437315 0.01681663
v 0.07029131 0.01047596 0.01874401
v 0.05249583 0.02774915 0.01618913
v 0.06735419 0.01865084 0.01684716
v 0.07306774 0.00891997 0.01206500
v 0.05955284 0.02506979 0.01646820
v 0.06185100 0.02025431 0.01947016
v 0.07386031 0.00594322 0.00004602
v 0.06555003 0.02073666 0.00114924
v 0.05200975 0.02785896 0.01150427
v 0.07062914 0.01433079 0.01621099
v 0.05907680 0.02110048 0.02037414
v 0.06075257 0.02296041 0.01790689
v 0.07207534 0.01038993 0.01712022
v 0.05802239 0.02583693 0.01605567
v 0.07074253 0.00048570 0.02043375
v 0.05169181 0.02430889 0.02021085
v 0.05771484 0.02597940 0.01494135
v 0.07022505 0.00549368 0.02033833
v 0.07433905 0.00301179 0.01426659
v 0.05839709 0.02566071 0.00024388
v 0.05933888 0.02518573 0.01594430
v 0.06527963 0.02098244 0.01527809
v 0.07146486 0.01278887 0.01397060
v 0.06799025 0.01659547 0.01764614
v 0.07356986 0.00722035 0.00883075
v 0.07434853 0.00293198 0.00892816
v 0.07203722 0.01157338 0.01626645
v 0.07310353 0.00564220 0.01751309
v 0.05456667 0.02515750 0.01861294
v 0.06961641 0.00725455 0.02049251
v 0.07143176 0.01286247 0.00665342
v 0.07446053 0.00121104 0.01637299
v 0.06812046 0.01796982 0.01564923
v 0.06823592 0.01782676 0.01649804
v 0.07361317 0.00703779 0.00050752
v 0.07368063 0.00674363 0.01649971
v 0.07176667 0.00913477 0.01785355
v 0.06571142 0.02058398 0.00949792
v 0.06576624 0.01515995 0.02026232
v 0.05239947 0.02777164 0.00452513
v 0.05256215 0.02594729 0.01843372
v 0.06760421 0.01858339 0.00032471
v 0.06721001 0.01903213 0.01622492
v 0.05851996 0.02560250 0.01245316
v 0.07343945 0.00618898 0.01706130
v 0.07217600 0.01127210 0.01373607
v 0.07420720 0.00149202 0.01694108
v 0.05402363 0.02333665 0.02049788
v 0.05954481 0.02135903 0.01990307
v 0.06132310 0.02255087 0.01792181
v 0.06569581 0.02059902 0.00979186
v 0.06901462 0.01680140 0.00032087
v 0.06795968 0.01816289 0.01194472
v 0.05688539 0.02632103 0.00005352
v 0.06960116 0.01597251 0.00012590
v 0.05585249 0.02674192 0.01592824
v 0.07360328 0.00708170 0.00120745
v 0.07408641 0.00009426 0.01711308
v 0.07126304 0.00469626 0.01949455
v 0.07347421 0.00757733 0.01099185
v 0.06857748 0.01739156 0.01579429
v 0.07437727 0.00260921 0.01649752
v 0.06923603 0.00945846 0.02010034
v 0.05951123 0.02509375 0.01583489
v 0.05744157 0.02422221 0.01840790
v 0.05593458 0.02671223 0.00223386
v 0.05922807 0.02481369 0.01707905
v 0.06794887 0.01530847 0.01843793
v 0.06814852 0.01520522 0.01832945
v 0.06916365 0.00993950 0.01999087
v 0.07402337 0.00269330 0.01704538
v 0.05821877 0.02364059 0.01858403
v 0.05754971 0.02290656 0.01954333
v 0.06694803 0.01932396 0.01038312
v 0.06560400 0.02068587 0.00029742
v 0.06397601 0.02071845 0.01776388
v 0.07447786 0.00067255 0.00007083
v 0.05269402 0.02770240 0.01599317
v 0.05854370 0.02559028 0.00109233
v 0.07346951 0.00759320 0.01518150
v 0.06890600 0.01247599 0.01911188
v 0.06428038 0.02185517 0.00033558
v 0.07228433 0.00543992 0.01835649
v 0.07263001 0.00869464 0.01718440
v 0.07007511 0.00009346 0.02050000
v 0.07045268 0.01463806 0.01539021
v 0.07084719 0.00745618 0.01925496
v 0.05608165 0.02665723 0.00924442
v 0.06096937 0.02425170 0.00057696
v 0.06155825 0.02387777 0.01331827
v 0.07442977 0.00194560 0.01516962
v 0.07449865 0.00025930 0.01494462
v 0.05781100 0.02593648 0.01256657
v 0.06555670 0.02073034 0.00020484
v 0.05277282 0.02768290 0.01290831
v 0.07291228 0.00937146 0.01644279
v 0.06890107 0.01316298 0.01878351
v 0.05774737 0.02596490 0.01156796
v 0.06807499 0.01802580 0.01394506
v 0.07423202 0.00388408 0.00142042
v 0.06597498 0.01747982 0.01865592
v 0.06958493 0.01599946 0.01639186
v 0.05670618 0.02503710 0.01795700
v 0.07183362 0.00822366 0.01808539
v 0.05834834 0.02553249 0.01683680
v 0.05249973 0.02681813 0.01760348
v 0.07338688 0.00786540 0.00045718
v 0.05135967 0.02798186 0.00167432
v 0.07053670 0.01449766 0.01167014
v 0.05183156 0.02788187 0.01671100
v 0.07448748 0.00055424 0.01564902
v 0.06170971 0.01901251 0.02050000
v 0.06914880 0.00922492 0.02026109
v 0.06980487 0.01559510 0.01673246
v 0.05781317 0.02593484 0.00218229
v 0.06366642 0.01905952 0.01921172
v 0.05279268 0.02767805 0.01017475
v 0.05712936 0.02622305 0.01607073
v 0.07067534 0.00111848 0.02046914
v 0.07056256 0.01445376 0.01289442
v 0.05000154 0.01963821 0.02050000
v 0.07425619 0.00371767 0.00242751
v 0.05076110 0.02598882 0.01876840
v 0.07219762 0.01122190 0.01425764
v 0.05451813 0.02719613 0.00421082
v 0.06814159 0.01794348 0.00144995
v 0.07024125 0.00791218 0.01969056
v 0.07426001 0.00367701 0.01621581
v 0.05308108 0.02759840 0.00002000
v 0.05007186 0.02458887 0.02026853
v 0.05467718 0.02714126 0.01669973
v 0.06597210 0.01505585 0.02016655
v 0.07105894 0.00523181 0.01959651
v 0.05569243 0.02588608 0.01755869
v 0.06743357 0.01878366 0.01319535
v 0.07229813 0.00213800 0.01880783
v 0.05031409 0.02816941 0.01555242
v 0.06770379 0.01187478 0.02045707
v 0.06696282 0.01930675 0.00427516
v 0.05062903 0.02393267 0.02050000
v 0.06047627 0.02270171 0.01827401
v 0.05178532 0.02789977 0.00077826
f 512 575 250
f 250 575 456
f 665 20 476
f 476 14 665
f 276 521 709
f 390 717 269
f 55 717 390
f 55 665 14
f 390 269 86
f 358 404 707
f 250 567 503
f 512 250 503
f 503 567 20
f 309 14 476
f 709 521 495
f 495 476 709
f 495 171 476
f 530 269 220
f 442 630 530
f 344 60 13
f 650 60 344
f 63 404 358
f 76 582 471
f 673 707 404
f 456 575 673
f 575 113 673
f 20 665 136
f 136 503 20
f 447 283 289
f 289 718 447
f 447 276 709
f 447 718 276
f 728 264 289
f 289 283 728
f 289 264 399
f 476 171 515
f 515 309 476
f 411 60 390
f 682 530 220
f 21 113 575
f 13 60 436
f 60 411 436
f 650 355 30
f 345 344 321
f 355 336 135
f 135 55 390
f 665 55 135
f 650 344 413
f 76 471 726
f 603 673 113
f 707 673 603
f 140 311 4
f 700 304 65
f 256 576 260
f 242 260 506
f 256 260 242
f 316 576 256
f 521 180 698
f 37 694 698
f 442 662 125
f 668 327 92
f 163 530 630
f 440 623 522
f 438 530 335
f 530 682 335
f 727 530 438
f 438 662 727
f 204 21 272
f 624 436 129
f 129 436 307
f 307 522 129
f 129 155 624
f 301 436 411
f 301 411 440
f 646 575 512
f 646 321 575
f 512 345 646
f 345 321 646
f 635 321 344
f 190 29 724
f 190 344 157
f 157 29 190
f 291 63 358
f 665 135 236
f 236 135 336
f 236 136 665
f 236 36 136
f 582 63 618
f 618 531 582
f 57 255 700
f 700 65 57
f 185 255 57
f 556 65 587
f 587 65 304
f 556 1 147
f 147 1 311
f 56 228 366
f 313 726 366
f 50 689 591
f 416 31 591
f 26 374 702
f 503 136 184
f 136 36 184
f 409 481 355
f 231 481 409
f 355 135 409
f 390 231 409
f 409 135 390
f 688 481 231
f 688 231 390
f 289 399 158
f 540 506 700
f 700 479 540
f 540 242 506
f 700 255 64
f 64 479 700
f 64 104 479
f 305 323 402
f 256 242 414
f 444 698 180
f 521 698 326
f 326 495 521
f 276 379 711
f 379 698 711
f 2 698 314
f 153 269 717
f 128 305 412
f 280 630 442
f 442 125 280
f 648 327 668
f 424 648 668
f 623 284 645
f 645 522 623
f 155 129 645
f 645 129 522
f 134 284 248
f 155 645 134
f 134 645 284
f 59 92 327
f 92 59 524
f 22 27 24
f 615 281 348
f 390 595 172
f 172 595 623
f 440 522 131
f 131 522 307
f 438 335 468
f 376 662 442
f 376 727 662
f 442 530 376
f 530 727 376
f 272 21 212
f 307 436 133
f 436 301 133
f 190 204 353
f 353 344 190
f 353 635 344
f 49 230 321
f 321 635 49
f 234 724 29
f 234 291 358
f 659 483 29
f 659 73 483
f 659 344 331
f 331 73 659
f 29 483 148
f 148 234 29
f 291 234 148
f 36 236 95
f 336 413 268
f 268 236 336
f 268 344 345
f 268 413 344
f 355 192 38
f 395 355 650
f 395 192 355
f 650 413 395
f 413 192 395
f 76 726 69
f 726 528 69
f 304 528 364
f 364 587 304
f 159 627 364
f 185 57 16
f 16 4 185
f 16 140 4
f 28 1 556
f 556 587 28
f 28 587 689
f 689 50 28
f 366 259 434
f 434 56 366
f 366 228 347
f 347 313 366
f 702 374 207
f 207 374 102
f 102 434 207
f 207 434 259
f 317 587 581
f 581 416 317
f 232 26 702
f 702 426 232
f 163 214 232
f 484 657 296
f 296 657 374
f 374 26 296
f 370 50 591
f 591 94 370
f 352 9 662
f 31 9 300
f 591 31 300
f 300 94 591
f 311 1 300
f 723 125 662
f 6 287 193
f 324 416 581
f 31 526 3
f 118 26 3
f 26 232 3
f 390 60 168
f 355 481 48
f 48 197 355
f 481 197 48
f 383 698 379
f 37 698 383
f 383 196 37
f 121 104 5
f 638 479 362
f 479 104 362
f 181 64 255
f 278 305 128
f 576 636 570
f 570 158 399
f 343 636 561
f 114 402 498
f 114 169 402
f 164 17 271
f 271 316 256
f 5 104 107
f 725 326 262
f 35 326 725
f 525 35 309
f 525 326 35
f 309 515 525
f 229 698 694
f 191 560 486
f 486 180 191
f 486 560 521
f 521 276 486
f 210 314 698
f 698 229 210
f 717 405 144
f 119 153 717
f 119 443 153
f 85 421 608
f 608 302 85
f 349 302 608
f 653 271 17
f 464 305 402
f 262 326 43
f 43 326 698
f 43 698 2
f 2 410 43
f 431 450 597
f 410 187 597
f 62 71 596
f 668 445 523
f 523 424 668
f 648 424 523
f 22 24 89
f 155 134 613
f 613 134 248
f 624 155 613
f 542 445 613
f 613 445 624
f 613 523 542
f 206 27 22
f 92 27 206
f 248 284 564
f 564 59 248
f 284 59 564
f 110 59 284
f 110 524 59
f 380 524 595
f 390 86 380
f 380 595 390
f 92 524 380
f 380 24 27
f 380 27 92
f 695 284 623
f 623 595 695
f 595 524 695
f 695 110 284
f 524 110 695
f 555 111 86
f 375 111 555
f 539 708 141
f 489 708 674
f 690 232 426
f 163 232 690
f 674 708 108
f 390 172 419
f 419 411 390
f 440 411 419
f 419 623 440
f 419 172 623
f 529 212 21
f 529 21 575
f 575 321 529
f 321 230 529
f 400 204 272
f 400 353 204
f 142 618 63
f 63 291 142
f 680 95 345
f 236 268 620
f 620 268 345
f 679 192 413
f 679 38 192
f 413 586 679
f 679 586 38
f 194 336 355
f 355 38 194
f 38 586 194
f 535 364 528
f 535 528 726
f 726 313 535
f 588 88 141
f 588 426 702
f 141 426 588
f 493 211 88
f 88 211 83
f 83 162 615
f 334 173 185
f 334 425 173
f 689 587 93
f 587 317 93
f 322 232 569
f 569 232 214
f 159 484 656
f 484 296 656
f 502 662 438
f 502 352 662
f 438 468 502
f 498 352 502
f 491 300 9
f 491 352 498
f 9 352 491
f 311 300 491
f 4 311 491
f 662 9 631
f 631 723 662
f 165 280 125
f 125 723 165
f 723 631 165
f 165 631 9
f 543 487 612
f 246 487 543
f 159 246 543
f 422 364 627
f 587 364 422
f 581 587 422
f 422 324 581
f 416 324 40
f 31 416 40
f 40 526 31
f 612 526 40
f 40 543 612
f 324 543 40
f 403 688 390
f 390 168 403
f 481 688 403
f 403 168 481
f 481 168 480
f 480 168 60
f 614 30 355
f 614 384 30
f 355 197 614
f 197 384 614
f 196 383 508
f 457 479 638
f 242 540 637
f 371 457 638
f 323 305 179
f 305 115 179
f 115 371 179
f 179 371 638
f 323 121 452
f 402 323 452
f 452 121 5
f 5 107 452
f 452 107 104
f 64 527 452
f 104 64 452
f 64 181 594
f 19 278 128
f 501 636 576
f 501 561 636
f 576 316 501
f 477 508 459
f 459 604 477
f 477 604 158
f 158 570 477
f 343 561 266
f 266 722 343
f 343 53 377
f 15 271 256
f 15 660 661
f 15 84 660
f 368 450 431
f 276 711 238
f 238 486 276
f 208 444 180
f 180 486 208
f 61 120 451
f 451 719 314
f 451 120 343
f 343 617 451
f 294 654 443
f 153 443 215
f 443 654 215
f 462 719 295
f 82 443 295
f 295 719 82
f 318 144 443
f 443 119 318
f 717 144 318
f 318 119 717
f 350 593 80
f 85 302 252
f 252 677 85
f 54 302 349
f 349 608 667
f 667 54 349
f 70 414 242
f 271 653 394
f 407 730 55
f 696 407 292
f 292 407 55
f 116 122 78
f 450 368 547
f 299 719 462
f 314 719 299
f 405 705 299
f 299 705 683
f 2 314 361
f 314 299 361
f 361 299 683
f 410 597 166
f 166 597 450
f 682 596 257
f 71 62 435
f 435 114 498
f 449 214 163
f 287 101 449
f 449 569 214
f 544 101 287
f 532 101 544
f 544 287 6
f 6 532 544
f 532 432 649
f 328 258 630
f 640 258 193
f 640 163 630
f 630 258 640
f 430 163 640
f 640 193 287
f 640 287 430
f 417 445 542
f 542 523 417
f 417 523 445
f 648 523 183
f 327 648 183
f 183 613 248
f 523 613 183
f 248 59 183
f 183 59 327
f 22 89 494
f 494 89 382
f 375 555 453
f 598 489 674
f 598 426 141
f 141 708 598
f 708 489 598
f 708 539 697
f 697 108 708
f 539 453 697
f 697 453 108
f 426 106 315
f 315 106 163
f 643 163 277
f 277 106 643
f 163 106 277
f 178 380 86
f 290 217 460
f 77 148 331
f 320 184 36
f 36 95 320
f 95 680 320
f 699 95 236
f 236 620 699
f 345 95 699
f 699 620 345
f 245 413 336
f 245 586 413
f 336 194 245
f 245 194 586
f 159 364 161
f 364 535 161
f 88 34 504
f 471 274 504
f 366 726 329
f 46 274 471
f 423 625 211
f 143 83 615
f 88 83 143
f 369 684 83
f 89 684 369
f 382 89 369
f 369 494 382
f 572 83 211
f 704 439 182
f 41 439 704
f 185 4 704
f 4 41 704
f 498 402 357
f 402 452 357
f 425 334 357
f 475 41 4
f 182 439 520
f 520 357 182
f 498 357 520
f 159 656 441
f 441 246 159
f 118 246 441
f 441 26 118
f 222 9 31
f 222 165 9
f 31 3 354
f 354 432 31
f 354 3 232
f 354 232 322
f 354 649 432
f 322 101 354
f 720 627 159
f 720 422 627
f 324 422 720
f 710 197 481
f 481 480 710
f 710 480 197
f 607 384 197
f 197 263 607
f 30 384 607
f 607 263 30
f 562 594 425
f 64 594 562
f 218 570 636
f 218 477 570
f 261 53 343
f 343 722 261
f 261 722 53
f 473 266 189
f 189 266 561
f 154 617 343
f 343 377 154
f 359 203 169
f 359 568 203
f 670 308 203
f 203 568 670
f 583 421 85
f 85 677 583
f 583 346 421
f 513 15 661
f 164 271 513
f 271 15 513
f 78 122 152
f 160 629 229
f 160 229 694
f 201 629 160
f 477 629 216
f 216 629 201
f 508 477 216
f 37 538 216
f 216 538 196
f 196 508 216
f 216 694 37
f 145 451 314
f 477 451 145
f 644 443 82
f 644 294 443
f 443 144 713
f 713 295 443
f 462 295 713
f 713 299 462
f 713 144 405
f 405 299 713
f 677 252 51
f 609 80 593
f 293 215 654
f 294 644 580
f 580 644 82
f 82 719 580
f 719 112 580
f 350 80 632
f 80 667 632
f 632 337 350
f 599 70 242
f 458 70 599
f 478 70 458
f 235 394 653
f 722 266 408
f 408 112 722
f 437 112 719
f 719 451 437
f 53 722 437
f 722 112 437
f 81 123 164
f 164 513 81
f 81 593 350
f 81 412 593
f 394 235 81
f 2 122 590
f 122 116 590
f 590 410 2
f 590 116 410
f 237 187 410
f 410 116 237
f 7 547 405
f 450 547 7
f 730 450 7
f 7 405 717
f 717 55 7
f 55 730 7
f 2 361 666
f 666 361 683
f 683 705 666
f 666 122 2
f 405 547 666
f 666 705 405
f 682 257 663
f 596 71 23
f 23 257 596
f 335 433 639
f 639 435 498
f 114 435 610
f 610 435 62
f 186 163 430
f 186 449 163
f 430 287 186
f 287 449 186
f 239 101 322
f 239 449 101
f 322 569 239
f 569 449 239
f 177 101 532
f 532 649 177
f 177 354 101
f 649 354 177
f 6 193 714
f 193 258 714
f 592 206 22
f 22 494 592
f 558 571 74
f 558 74 375
f 375 539 558
f 72 106 209
f 643 106 72
f 288 539 375
f 375 453 288
f 288 453 539
f 241 453 209
f 108 453 241
f 209 106 241
f 674 108 241
f 241 106 674
f 127 598 674
f 426 598 127
f 674 106 127
f 127 106 426
f 163 690 565
f 565 315 163
f 690 537 565
f 565 537 315
f 162 83 341
f 270 281 615
f 367 585 380
f 167 348 281
f 618 142 606
f 142 290 606
f 606 290 460
f 217 290 721
f 291 148 330
f 148 77 330
f 88 504 339
f 339 504 274
f 366 329 18
f 726 406 669
f 669 406 490
f 588 138 507
f 366 18 507
f 507 18 588
f 516 588 702
f 516 138 588
f 391 701 651
f 391 46 471
f 531 701 391
f 391 471 582
f 582 531 391
f 531 618 188
f 618 715 188
f 141 88 332
f 88 143 332
f 332 143 571
f 332 539 141
f 393 89 24
f 393 684 89
f 24 380 393
f 13 616 11
f 11 616 225
f 13 519 633
f 633 616 13
f 225 616 398
f 211 625 223
f 223 572 211
f 427 519 13
f 185 704 303
f 482 452 527
f 482 357 452
f 41 475 338
f 472 328 630
f 159 543 467
f 467 720 159
f 467 543 324
f 324 720 467
f 463 263 197
f 197 509 463
f 30 263 463
f 463 509 60
f 463 60 650
f 650 30 463
f 716 480 60
f 60 509 716
f 197 480 716
f 716 509 197
f 729 79 600
f 305 729 600
f 600 115 305
f 637 79 96
f 242 637 96
f 96 79 729
f 96 19 242
f 278 19 96
f 199 562 425
f 425 357 199
f 357 482 199
f 61 451 249
f 249 451 477
f 477 218 249
f 33 126 308
f 269 346 33
f 203 308 546
f 169 203 546
f 308 126 546
f 126 548 546
f 534 513 661
f 661 396 534
f 628 152 122
f 122 666 628
f 628 666 547
f 368 152 628
f 628 547 368
f 677 51 227
f 227 226 549
f 227 566 677
f 227 325 566
f 252 226 227
f 32 226 252
f 593 412 32
f 302 54 137
f 54 609 137
f 652 609 593
f 593 32 652
f 652 32 252
f 80 609 103
f 103 667 80
f 605 378 681
f 350 337 551
f 551 681 378
f 605 681 551
f 124 293 654
f 605 461 706
f 66 461 363
f 66 557 461
f 215 293 642
f 642 293 461
f 461 557 642
f 153 215 642
f 642 608 421
f 421 346 642
f 642 346 269
f 269 153 642
f 44 667 608
f 608 551 44
f 44 551 337
f 44 632 667
f 337 632 44
f 84 70 655
f 70 478 655
f 660 84 655
f 394 243 691
f 691 189 394
f 473 189 691
f 109 394 105
f 109 243 394
f 123 81 693
f 693 81 235
f 566 325 333
f 346 583 39
f 39 583 677
f 549 226 170
f 170 227 549
f 325 227 170
f 226 333 170
f 170 333 325
f 696 292 545
f 500 335 682
f 682 663 500
f 500 433 335
f 12 639 433
f 435 639 12
f 626 639 498
f 498 502 626
f 626 502 468
f 6 714 428
f 428 714 221
f 132 111 375
f 74 571 319
f 496 579 111
f 209 453 139
f 139 72 209
f 139 453 555
f 139 555 86
f 139 86 269
f 269 530 139
f 530 163 139
f 139 163 643
f 643 72 139
f 518 690 426
f 518 537 690
f 426 315 518
f 315 537 518
f 615 162 469
f 162 341 469
f 83 585 8
f 615 584 251
f 251 270 615
f 348 167 418
f 418 167 279
f 240 167 86
f 86 111 240
f 279 167 240
f 373 721 290
f 267 97 142
f 490 406 100
f 100 454 490
f 588 454 100
f 100 34 88
f 88 588 100
f 559 329 726
f 726 669 559
f 625 423 205
f 282 391 651
f 571 558 389
f 389 332 571
f 389 558 539
f 539 332 389
f 497 393 380
f 83 393 497
f 380 585 497
f 497 585 83
f 83 684 149
f 684 393 149
f 552 616 290
f 552 398 616
f 625 715 340
f 572 223 672
f 217 427 67
f 664 334 185
f 185 303 664
f 151 338 475
f 520 338 151
f 151 491 498
f 498 520 151
f 563 99 126
f 126 33 563
f 563 39 99
f 563 33 346
f 346 39 563
f 402 169 499
f 169 546 499
f 499 546 548
f 548 285 499
f 553 464 402
f 553 285 464
f 402 499 553
f 553 499 285
f 130 548 126
f 464 285 550
f 550 99 464
f 126 99 550
f 114 359 388
f 388 359 169
f 169 98 388
f 514 51 252
f 252 227 514
f 514 227 51
f 312 252 302
f 312 652 252
f 244 609 54
f 244 103 609
f 54 667 244
f 667 103 244
f 363 551 52
f 52 551 608
f 52 66 363
f 608 557 52
f 557 66 52
f 703 551 363
f 466 551 703
f 363 461 703
f 461 466 703
f 605 551 686
f 686 551 466
f 686 461 605
f 686 466 461
f 294 580 198
f 580 298 198
f 198 298 517
f 461 580 200
f 200 706 461
f 200 81 350
f 200 112 105
f 200 580 112
f 105 394 200
f 394 81 200
f 492 557 608
f 608 642 492
f 492 642 557
f 213 478 412
f 213 655 478
f 213 81 275
f 412 81 213
f 566 333 678
f 226 32 10
f 10 333 226
f 10 32 412
f 696 545 474
f 474 545 156
f 474 156 43
f 474 43 410
f 253 532 6
f 253 432 532
f 253 90 31
f 31 432 253
f 687 533 221
f 687 365 533
f 375 74 117
f 117 132 375
f 74 351 117
f 351 132 117
f 611 351 74
f 74 319 611
f 619 496 111
f 111 132 619
f 619 132 351
f 615 469 712
f 712 469 341
f 91 341 83
f 83 8 91
f 91 712 341
f 585 367 470
f 380 178 470
f 470 367 380
f 111 579 68
f 68 240 111
f 290 616 671
f 671 373 290
f 647 401 290
f 647 290 142
f 142 97 647
f 385 401 225
f 225 398 385
f 290 401 385
f 254 174 77
f 254 77 331
f 254 344 13
f 331 344 254
f 446 174 97
f 97 267 446
f 77 174 446
f 391 282 247
f 247 282 265
f 265 205 247
f 247 205 423
f 286 393 83
f 83 149 286
f 286 149 393
f 146 223 625
f 625 340 146
f 387 715 618
f 387 340 715
f 618 672 387
f 387 672 223
f 150 67 427
f 460 217 175
f 217 67 175
f 572 176 202
f 202 176 427
f 202 369 83
f 83 572 202
f 624 445 202
f 202 436 624
f 202 445 668
f 13 436 202
f 202 427 13
f 668 92 202
f 92 494 202
f 494 369 202
f 618 150 58
f 31 90 45
f 90 87 45
f 622 222 31
f 31 45 622
f 622 45 87
f 511 285 548
f 511 550 285
f 114 388 415
f 415 388 98
f 169 114 415
f 415 98 169
f 308 670 574
f 269 33 574
f 574 33 308
f 220 269 574
f 574 682 220
f 42 670 568
f 42 577 670
f 682 577 42
f 568 359 42
f 42 596 682
f 42 359 114
f 42 610 62
f 42 62 596
f 114 610 42
f 461 293 306
f 293 536 306
f 372 536 517
f 517 536 676
f 455 580 461
f 455 298 580
f 517 298 455
f 455 372 517
f 294 198 541
f 654 294 541
f 541 124 654
f 602 200 350
f 706 200 602
f 350 551 602
f 605 706 602
f 602 551 378
f 602 378 605
f 219 213 275
f 661 213 219
f 219 396 661
f 75 678 333
f 333 10 75
f 464 99 75
f 99 39 75
f 566 678 75
f 75 39 677
f 677 566 75
f 310 412 305
f 310 10 412
f 305 464 310
f 464 75 310
f 310 75 10
f 221 714 465
f 465 687 221
f 365 360 381
f 222 622 381
f 554 360 365
f 634 584 615
f 615 712 634
f 47 91 8
f 712 91 47
f 47 8 585
f 585 470 47
f 178 448 578
f 578 470 178
f 685 392 588
f 588 18 685
f 559 392 685
f 685 18 329
f 329 559 685
f 658 233 589
f 391 233 658
f 46 391 658
f 505 510 493
f 589 233 505
f 211 493 601
f 493 510 601
f 573 150 618
f 67 150 573
f 675 58 176
f 176 58 25
f 25 58 150
f 427 176 25
f 25 150 427
f 533 365 621
f 365 381 621
f 621 381 622
f 397 87 90
f 90 356 397
f 90 253 420
f 420 356 90
f 6 428 420
f 420 253 6
f 550 511 342
f 342 130 126
f 126 550 342
f 548 130 342
f 342 511 548
f 670 577 485
f 485 574 670
f 485 577 682
f 682 574 485
f 224 198 517
f 224 536 293
f 386 554 328
f 328 472 386
f 712 47 488
f 488 47 470
f 297 578 448
f 297 448 270
f 270 251 297
f 429 505 493
f 589 505 429
f 58 675 692
f 692 672 618
f 618 58 692
f 517 676 195
f 195 224 517
f 195 676 536
f 536 224 195
f 360 554 641
f 554 386 273
f 273 641 554
f 191 180 560
f 560 180 521
f 440 131 133
f 133 301 440
f 133 131 307
f 358 707 234
f 234 204 190
f 113 21 234
f 234 603 113
f 707 603 234
f 21 204 234
f 190 724 234
f 29 157 659
f 659 157 344
f 483 73 148
f 148 73 331
f 311 140 16
f 556 147 16
f 16 65 556
f 16 57 65
f 16 147 311
f 1 28 300
f 300 28 50
f 50 370 300
f 300 370 94
f 37 196 538
f 20 567 570
f 709 476 570
f 404 63 570
f 476 20 570
f 570 250 456
f 570 399 264
f 570 304 700
f 570 567 250
f 456 673 570
f 570 582 76
f 570 260 576
f 570 447 709
f 264 728 570
f 570 63 582
f 570 673 404
f 283 447 570
f 570 728 283
f 76 69 570
f 700 506 570
f 506 260 570
f 570 528 304
f 570 69 528
f 495 326 525
f 171 495 525
f 525 515 171
f 400 529 230
f 272 212 400
f 230 49 400
f 635 353 400
f 400 49 635
f 212 529 400
f 487 3 526
f 118 3 487
f 487 526 612
f 487 246 118
f 93 416 591
f 591 689 93
f 93 317 416
f 508 379 276
f 508 718 289
f 276 718 508
f 508 604 459
f 289 158 508
f 158 604 508
f 508 383 379
f 179 121 323
f 638 362 179
f 104 121 179
f 179 362 104
f 594 181 255
f 594 255 185
f 185 173 594
f 173 425 594
f 698 444 208
f 208 711 698
f 208 238 711
f 486 238 208
f 256 414 70
f 70 15 256
f 84 15 70
f 320 345 512
f 512 503 320
f 503 184 320
f 320 680 345
f 161 484 159
f 102 374 161
f 161 657 484
f 228 56 161
f 161 434 102
f 161 347 228
f 56 434 161
f 313 347 161
f 374 657 161
f 161 535 313
f 441 656 296
f 441 296 26
f 561 501 189
f 189 501 316
f 271 394 189
f 316 271 189
f 201 160 216
f 216 160 694
f 145 210 229
f 314 210 145
f 229 629 145
f 145 629 477
f 478 19 128
f 128 412 478
f 478 599 242
f 242 19 478
f 458 599 478
f 617 154 437
f 437 377 53
f 437 451 617
f 437 154 377
f 237 368 431
f 431 597 237
f 237 597 187
f 237 116 78
f 78 152 237
f 237 152 368
f 592 494 92
f 92 206 592
f 167 178 86
f 167 448 178
f 281 270 167
f 270 448 167
f 516 207 259
f 516 259 366
f 702 207 516
f 366 507 516
f 516 507 138
f 338 520 439
f 338 439 41
f 479 457 600
f 600 540 479
f 600 637 540
f 600 371 115
f 457 371 600
f 600 79 637
f 96 729 305
f 305 278 96
f 199 482 527
f 199 527 64
f 64 562 199
f 343 120 249
f 249 636 343
f 249 120 61
f 249 218 636
f 109 266 473
f 105 112 109
f 109 408 266
f 473 691 109
f 112 408 109
f 109 691 243
f 164 123 693
f 693 235 653
f 693 17 164
f 693 653 17
f 545 55 14
f 14 309 545
f 309 35 545
f 545 725 262
f 262 43 545
f 35 725 545
f 545 292 55
f 43 156 545
f 71 435 12
f 12 23 71
f 433 500 12
f 12 663 257
f 257 23 12
f 12 500 663
f 335 639 626
f 626 468 335
f 471 504 100
f 100 726 471
f 100 504 34
f 100 406 726
f 531 188 282
f 282 701 531
f 651 701 282
f 282 715 625
f 282 188 715
f 625 205 282
f 282 205 265
f 182 357 664
f 664 704 182
f 664 357 334
f 664 303 704
f 151 475 4
f 4 491 151
f 312 137 609
f 302 137 312
f 609 652 312
f 661 660 213
f 660 655 213
f 730 407 474
f 474 450 730
f 410 166 474
f 474 407 696
f 474 166 450
f 68 143 615
f 615 348 68
f 579 496 68
f 348 418 68
f 571 143 68
f 68 319 571
f 68 619 351
f 351 611 68
f 68 418 279
f 279 240 68
f 68 611 319
f 496 619 68
f 671 633 519
f 671 427 217
f 217 721 671
f 616 633 671
f 519 427 671
f 721 373 671
f 398 552 385
f 385 552 290
f 13 11 254
f 225 401 254
f 254 11 225
f 254 647 97
f 97 174 254
f 401 647 254
f 291 330 446
f 446 142 291
f 446 330 77
f 446 267 142
f 392 669 490
f 392 454 588
f 490 454 392
f 392 559 669
f 223 146 387
f 387 146 340
f 455 306 536
f 461 306 455
f 536 372 455
f 513 534 219
f 219 81 513
f 219 534 396
f 275 81 219
f 258 328 554
f 554 714 258
f 554 465 714
f 365 687 554
f 687 465 554
f 601 247 423
f 601 505 233
f 601 233 391
f 601 423 211
f 391 247 601
f 510 505 601
f 618 606 573
f 460 175 573
f 573 606 460
f 573 175 67
f 420 428 221
f 221 533 420
f 87 397 420
f 420 622 87
f 533 621 420
f 420 621 622
f 420 397 356
f 124 541 224
f 293 124 224
f 224 541 198
f 470 578 297
f 584 634 297
f 297 251 584
f 712 488 297
f 297 634 712
f 297 488 470
f 429 493 88
f 274 46 429
f 88 339 429
f 429 339 274
f 46 658 429
f 429 658 589
f 692 176 572
f 572 672 692
f 692 675 176
f 280 165 273
f 630 280 273
f 165 222 273
f 273 472 630
f 222 381 273
f 273 381 360
f 273 386 472
f 360 641 273

