# https://github.com/mikedh/trimesh
v -0.03656511 -0.02511404 0.00190352
v -0.02745024 -0.02696102 0.00021373
v -0.02647414 -0.02647595 0.00268355
v -0.02571516 -0.02538937 0.00643770
v -0.03300738 -0.02547407 0.00317439
v -0.02824321 -0.02545347 0.00547863
v -0.03013500 -0.02556849 0.00426256
v -0.03389569 -0.02631303 0.00000991
v -0.03495047 -0.02541908 0.00224112
v -0.03250797 -0.02507760 0.00447164
v -0.03498239 -0.02539081 0.00229720
v -0.02513272 -0.02697797 0.00083064
v -0.02960837 -0.02501613 0.00601845
v -0.03248062 -0.02550402 0.00334555
v -0.02529716 -0.02647856 0.00305447
v -0.03136060 -0.02631410 0.00142836
v -0.02603662 -0.02546650 0.00610243
v -0.02963655 -0.02586245 0.00361206
v -0.03500251 -0.02505622 0.00309626
v -0.03487771 -0.02584698 0.00099138
v -0.02871189 -0.02654038 0.00165381
v -0.02698419 -0.02567189 0.00516564
v -0.03205814 -0.02611181 0.00173825
v -0.03125301 -0.02646612 0.00096177
v -0.03170867 -0.02617009 0.00173106
v -0.03335426 -0.02594418 0.00159220
v -0.02761914 -0.02694379 0.00023677
v -0.02520801 -0.02605607 0.00447386
v -0.02972920 -0.02661006 0.00102720
v -0.02583156 -0.02563170 0.00564801
v -0.03469531 -0.02561322 0.00185951
v -0.02661372 -0.02505062 0.00705732
v -0.02919812 -0.02531889 0.00540529
v -0.03262068 -0.02582739 0.00233631
v -0.02921991 -0.02634124 0.00224160
v -0.03675016 -0.02510008 0.00180224
v -0.03531798 -0.02512183 0.00275012
f 32 12 36
f 36 12 2
f 2 8 36
f 15 2 12
f 8 2 27
f 2 15 27
f 35 29 21
f 36 8 20
f 20 31 36
f 32 6 4
f 12 32 4
f 8 27 24
f 24 27 29
f 24 29 35
f 5 31 34
f 35 6 18
f 3 27 15
f 29 27 3
f 3 21 29
f 35 21 3
f 1 19 36
f 10 19 11
f 5 10 11
f 28 15 12
f 12 4 28
f 13 19 10
f 13 6 32
f 13 33 6
f 13 32 36
f 36 19 13
f 16 24 35
f 35 18 16
f 16 18 25
f 5 34 14
f 6 33 14
f 31 20 26
f 26 34 31
f 26 20 8
f 7 18 6
f 6 14 7
f 7 14 34
f 9 31 5
f 5 11 9
f 9 11 1
f 19 1 37
f 37 11 19
f 1 11 37
f 30 28 4
f 25 34 23
f 34 26 23
f 23 16 25
f 22 30 6
f 28 30 22
f 17 4 6
f 6 30 17
f 17 30 4
f 14 13 10
f 14 10 5
f 33 13 14
f 25 18 7
f 7 34 25
f 9 1 36
f 36 31 9
f 8 24 23
f 23 26 8
f 24 16 23
f 35 3 22
f 22 6 35
f 22 3 15
f 15 28 22

