# https://github.com/mikedh/trimesh
v 0.05534855 -0.01291316 0.02293230
v 0.05363917 -0.01384514 0.02046360
v 0.06959026 -0.01122749 0.00163982
v 0.06145598 -0.01313815 0.01688119
v 0.05230599 -0.01635011 0.00468251
v 0.05190436 -0.01564477 0.01363159
v 0.05382131 -0.01479453 0.01659774
v 0.06317574 -0.01173756 0.02146167
v 0.06795801 -0.01017017 0.02050601
v 0.06920222 -0.01097078 0.01403341
v 0.05812519 -0.01245238 0.02307620
v 0.05010292 -0.01668799 0.00132595
v 0.06175063 -0.01409166 0.00463768
v 0.06722630 -0.01060107 0.02048244
v 0.05615417 -0.01550355 0.00621522
v 0.05500516 -0.01545434 0.01103538
v 0.05154958 -0.01522989 0.01595898
v 0.06564397 -0.01111743 0.02089634
v 0.06512944 -0.01269440 0.01198423
v 0.05473831 -0.01572162 0.00847309
v 0.06770154 -0.00951807 0.02298687
v 0.06138797 -0.01408607 0.00880226
v 0.05438117 -0.01306292 0.02278129
v 0.05709714 -0.01227387 0.02417482
v 0.06642294 -0.01090477 0.02071368
v 0.07360920 -0.00858616 0.00737130
v 0.06865991 -0.01185863 0.00419498
v 0.05021671 -0.01469175 0.01868554
v 0.05061493 -0.01634893 0.00984563
v 0.06086813 -0.01430640 0.00621692
v 0.06547609 -0.01286822 0.00812089
v 0.05266081 -0.01623618 0.00093867
v 0.06734619 -0.01231730 0.00559537
v 0.05732410 -0.01382066 0.01846264
v 0.05359543 -0.01297285 0.02327009
v 0.06348399 -0.01077048 0.02487373
v 0.05682765 -0.01534733 0.00173466
v 0.07480110 -0.00249388 0.00112198
v 0.05752959 -0.01295313 0.02165447
v 0.06573908 -0.01174007 0.01769532
v 0.07017119 -0.01066179 0.01233861
v 0.06213013 -0.01274140 0.01809231
v 0.06890888 -0.00896729 0.02246360
v 0.07139045 -0.00951994 0.01476929
v 0.05657051 -0.01524436 0.00987544
v 0.07006874 -0.01092704 0.00143202
v 0.06400368 -0.01330280 0.00869955
v 0.05325338 -0.01534631 0.01433738
v 0.05297326 -0.01498779 0.01622531
v 0.06837141 -0.01164645 0.01187750
v 0.05219672 -0.01637063 0.00512738
v 0.06130545 -0.01347453 0.01499719
v 0.06579410 -0.01043988 0.02334332
v 0.06217628 -0.01149340 0.02346099
v 0.06525409 -0.01271700 0.01126139
v 0.06986964 -0.01114544 0.00976807
v 0.05016652 -0.01455055 0.01913848
v 0.06892626 -0.01147910 0.00063436
v 0.06482564 -0.01076281 0.02350928
v 0.05464731 -0.01288034 0.02325861
v 0.05192982 -0.01304777 0.02317573
v 0.05003063 -0.01660742 0.00713261
v 0.07315622 -0.00920161 0.00476226
v 0.06708980 -0.01008549 0.02232823
v 0.05020170 -0.01670238 0.00465511
v 0.06780198 -0.01206682 0.00896903
v 0.05551565 -0.01560750 0.00026066
v 0.06611522 -0.01162210 0.01764781
v 0.06550654 -0.01252880 0.01258732
v 0.06627906 -0.01254117 0.00066847
v 0.05062425 -0.01573877 0.01408176
v 0.06379630 -0.01154520 0.02150885
v 0.07334192 -0.00865905 0.01065349
v 0.05725956 -0.01462736 0.01413371
v 0.06829564 -0.01077886 0.01749954
v 0.05967732 -0.01218911 0.02299732
v 0.07337757 -0.00889420 0.00848715
v 0.05309710 -0.01252302 0.02429571
v 0.07078951 -0.01052440 0.01056505
v 0.05769450 -0.01195554 0.02489147
v 0.06525054 -0.01207709 0.01648916
v 0.07354696 -0.00013110 0.01910732
v 0.06145644 -0.01344300 0.01491597
v 0.06937496 -0.01137243 0.01032358
v 0.07269705 -0.00962552 0.00731441
v 0.05332449 -0.01434175 0.01889360
v 0.05023641 -0.00384580 0.00525334
v 0.06446831 -0.01047032 0.02489445
v 0.06837934 -0.01193572 0.00326739
v 0.05303128 -0.01620630 0.00514159
v 0.06924376 -0.01110145 0.01309454
v 0.06097983 -0.01429229 0.00318066
v 0.07206855 -0.00005291 0.01848402
v 0.06738209 -0.01109833 0.01809544
v 0.07077553 -0.01045412 0.01125880
v 0.06520389 -0.01299198 0.00645715
v 0.06337907 -0.01313599 0.01294606
v 0.06980927 -0.01117233 0.00252119
v 0.06567072 -0.01245044 0.01289421
v 0.05708841 -0.01488785 0.01218133
v 0.06301881 -0.01102055 0.02439991
v 0.06087666 -0.01287689 0.01902792
v 0.07121168 -0.01036687 0.00259334
v 0.06775744 -0.01062287 0.01925136
v 0.06575743 -0.01275986 0.00870311
v 0.06733186 -0.01111741 0.01810273
v 0.06912899 -0.01081502 0.01506321
v 0.06783658 -0.01097500 0.01771969
v 0.06364197 -0.01337779 0.00014415
v 0.07188823 -0.00907132 0.01535206
v 0.05167245 -0.01496547 0.01704504
v 0.05698014 -0.01468059 0.01416257
v 0.05259767 -0.01612296 0.00858080
v 0.06577867 -0.01181093 0.01719109
v 0.06913037 -0.01103037 0.01393457
v 0.06046409 -0.01361937 0.01550944
v 0.06597294 -0.00982224 0.02470782
v 0.06151856 -0.01405659 0.00069932
v 0.07021646 -0.01109699 0.00542435
v 0.06913758 -0.01148736 0.01036603
v 0.05855059 -0.01246066 0.02280035
v 0.07177895 -0.01019124 0.00618769
v 0.07067814 -0.01068760 0.00954121
v 0.06518962 -0.01296205 0.00212937
v 0.05186574 -0.01357404 0.02185326
v 0.05002615 -0.01574718 0.01438810
v 0.05442658 -0.01536465 0.01276333
v 0.05032372 -0.01563296 0.01475805
v 0.05920939 -0.01179378 0.02458360
v 0.06492729 -0.01273167 0.01226149
v 0.07265582 -0.00936063 0.01099276
v 0.06605793 -0.01262306 0.00073906
v 0.05571290 -0.01469732 0.01550214
v 0.05862268 -0.01437223 0.01369636
v 0.06554575 -0.01144852 0.01942443
v 0.06911989 -0.00944514 0.02060671
v 0.05939328 -0.01353621 0.01761980
v 0.05003262 -0.01607698 0.01225736
v 0.06870400 -0.01186320 0.00541747
v 0.05415729 -0.01259092 0.02412719
v 0.05786512 -0.01514027 0.00472919
v 0.06955184 -0.01099611 0.01256482
v 0.05238364 -0.01614576 0.00884538
v 0.07315129 -0.00902976 0.01009506
v 0.05093478 -0.00360537 0.00470024
v 0.05005587 -0.01425578 0.02007074
v 0.07053671 -0.01088547 0.00486025
v 0.05107011 -0.01653257 0.00571234
v 0.06123543 -0.01393746 0.01115411
v 0.07042045 -0.00874466 0.02026824
v 0.06979711 -0.01133481 0.00678189
v 0.05672339 -0.01534598 0.00035983
v 0.05270931 -0.01607855 0.00905004
v 0.06066450 -0.01219751 0.02218374
v 0.06842736 -0.01153416 0.01263478
v 0.06605918 -0.01112099 0.02027156
v 0.05019703 -0.01666553 0.00062070
v 0.06601609 -0.01165528 0.01764957
v 0.06094408 -0.01421230 0.00871473
v 0.06244169 -0.01135911 0.02370636
v 0.07275290 -0.00941649 0.00253820
v 0.06083998 -0.01417305 0.00969107
v 0.06687704 -0.01167148 0.01564343
v 0.06495688 -0.01059670 0.02393044
v 0.06085269 -0.01410999 0.01035189
v 0.05247850 -0.01597356 0.01052936
v 0.05712793 -0.01504098 0.01063211
v 0.05291381 -0.01618576 0.00623297
v 0.06856567 -0.01189925 0.00676173
v 0.06921346 -0.00905965 0.02161680
v 0.06623549 -0.01099978 0.02060319
v 0.05915670 -0.01428706 0.01328793
v 0.05909831 -0.01394622 0.01559094
v 0.07398042 -0.00459431 0.02465524
v 0.05668119 -0.01542686 0.00401146
v 0.05001026 -0.00508706 0.00546561
v 0.05029842 -0.00411127 0.00372177
v 0.05051176 -0.01456517 0.01904247
v 0.05658420 -0.01316798 0.02147032
v 0.06952791 -0.01085906 0.01355182
v 0.06773930 -0.01162522 0.01397372
v 0.06728716 -0.00950567 0.02364487
v 0.06418624 -0.01112491 0.02282412
v 0.07081754 -0.01017625 0.01303281
v 0.06396941 -0.01217835 0.01816087
v 0.05012923 -0.01511372 0.01700835
v 0.05717620 -0.01521344 0.00778503
v 0.06238638 -0.01223607 0.02015517
v 0.07278684 -0.00897642 0.00073901
v 0.05987820 -0.01384289 0.01507100
v 0.05549215 -0.01515880 0.01274978
v 0.07088569 -0.01063970 0.00407250
v 0.06867746 -0.00904426 0.02265548
v 0.06202722 -0.01259631 0.01895184
v 0.06040987 -0.01274898 0.02012044
v 0.05899951 -0.01363889 0.01756497
v 0.05050625 -0.01641693 0.00906354
v 0.05714041 -0.01302378 0.02164911
v 0.06889688 -0.00971330 0.02013481
v 0.06675088 -0.00993974 0.02331170
v 0.06783726 -0.01042249 0.01982618
v 0.06822448 -0.01191102 0.00158234
v 0.06663081 -0.01255746 0.00519237
v 0.06804238 -0.01113623 0.01633165
v 0.05954759 -0.01259222 0.02156387
v 0.06999489 -0.01087945 0.00074032
v 0.07269925 -0.00914334 0.01215058
v 0.05345573 -0.01591403 0.00957359
v 0.06997534 -0.00905510 0.02015210
v 0.07195627 -0.00960647 0.01230246
v 0.05081290 -0.00373738 0.00408448
v 0.06740979 -0.01043212 0.02071859
v 0.07273895 -0.00950101 0.00364384
v 0.07248977 -0.00974491 0.00516586
v 0.05682020 -0.01524316 0.00931667
v 0.07100676 -0.01064200 0.00581702
v 0.05937633 -0.01474385 0.00457925
v 0.06421618 -0.01333701 0.00425941
v 0.07362663 -0.00850325 0.00791679
v 0.06901772 -0.01140248 0.01153572
v 0.06093399 -0.01433165 0.00428040
v 0.05453581 -0.01448012 0.01760802
v 0.06535005 -0.01151401 0.01939083
v 0.05871258 -0.01253959 0.02243194
v 0.06470651 -0.01181300 0.01887135
v 0.06831280 -0.01199650 0.00589920
v 0.05072245 -0.01568034 0.01437970
v 0.06680947 -0.01101177 0.01954576
v 0.07104361 -0.00942870 0.01623332
v 0.06052891 -0.01435708 0.00108222
v 0.06859355 -0.01134894 0.01358747
v 0.07346944 -0.00884674 0.00728533
v 0.05149542 -0.01449615 0.01899290
v 0.07094526 -0.01067638 0.00651708
v 0.06834242 -0.00927930 0.02255391
v 0.05455522 -0.01228810 0.02476142
v 0.06485717 -0.01313163 0.00394706
v 0.05584242 -0.01544120 0.00952719
v 0.05668262 -0.01473525 0.01419762
v 0.06555371 -0.01083331 0.02232458
v 0.06677670 -0.01251043 0.00515660
v 0.07301932 -0.00918593 0.01011369
v 0.06826226 -0.01186033 0.00982141
v 0.07135717 -0.01027153 0.00972099
v 0.05380595 -0.01249748 0.02435866
v 0.05674475 -0.01540374 0.00550040
v 0.07224841 -0.00963189 0.00123804
v 0.06936310 -0.01050415 0.01591951
v 0.06417883 -0.01071689 0.02439367
v 0.06172432 -0.01284815 0.01816262
v 0.05293298 -0.01306550 0.02315458
v 0.07318197 -0.00008241 0.01386614
v 0.07455233 -0.00450679 0.02340857
v 0.05554296 -0.01549923 0.00960212
v 0.05811702 -0.01471400 0.01155713
v 0.07271566 -0.00915879 0.01199252
v 0.06215361 -0.01280876 0.01767794
v 0.05281090 -0.01550616 0.01374634
v 0.05624249 -0.01535959 0.00946589
v 0.07304662 -0.00931413 0.00466105
v 0.07017455 -0.00487592 0.02462447
v 0.05886164 -0.01273165 0.02159437
v 0.05231066 -0.01632728 0.00246310
v 0.06494838 -0.01073116 0.02348237
v 0.05919965 -0.01370241 0.01690486
v 0.06349706 -0.01147413 0.02222970
v 0.07221702 -0.00975079 0.00984232
v 0.07214133 -0.00998020 0.00578134
v 0.07146103 -0.01012319 0.00147667
v 0.07269500 -0.00015364 0.01900793
v 0.06845961 -0.00887073 0.02350647
v 0.06894342 -0.01164547 0.00235319
v 0.07201349 -0.00974190 0.01106039
v 0.06722299 -0.01121399 0.01783243
v 0.05496787 -0.01563750 0.00943227
v 0.06840947 -0.01123670 0.01485871
v 0.05235622 -0.01633288 0.00379379
v 0.06849018 -0.01174379 0.01035132
v 0.07269262 -0.00955049 0.00864677
v 0.05386698 -0.01530574 0.01395915
v 0.06722944 -0.01017063 0.02183567
v 0.07290090 -0.00841969 0.00028943
v 0.05297531 -0.01622144 0.00503934
v 0.05263885 -0.01620107 0.00692054
v 0.06223263 -0.01380617 0.00922088
v 0.06776047 -0.01082946 0.01846767
v 0.06890594 -0.01177889 0.00522534
v 0.07081379 -0.01052154 0.00164428
v 0.06692515 -0.01240917 0.00769634
v 0.06912995 -0.01143431 0.01083300
v 0.05519313 -0.01449862 0.01695729
v 0.05532706 -0.01572626 0.00493202
v 0.05142959 -0.01213271 0.02489581
v 0.06515035 -0.01201490 0.01712306
v 0.06780785 -0.01138808 0.01547803
v 0.05275485 -0.01458294 0.01821701
v 0.06565480 -0.01287986 0.00489786
v 0.07490864 -0.00523263 0.00428050
v 0.06766793 -0.01136474 0.01596548
v 0.05514961 -0.01266043 0.02375975
v 0.06445345 -0.01284797 0.01256120
v 0.06285058 -0.01200854 0.02062382
v 0.06839151 -0.00938914 0.02212601
v 0.06900350 -0.00895128 0.02233772
v 0.05693403 -0.01377613 0.01890702
v 0.07016293 -0.01000585 0.01600932
v 0.06976611 -0.00631938 0.02490493
v 0.06782971 -0.01193149 0.01067739
v 0.07012681 -0.01045908 0.01380800
v 0.06762468 -0.01213287 0.00168571
v 0.05403810 -0.01584303 0.00886710
v 0.07308424 -0.00929156 0.00482699
v 0.06628074 -0.01253337 0.00946206
v 0.06500477 -0.01305905 0.00315031
v 0.06891708 -0.01171709 0.00369694
v 0.05501231 -0.01467454 0.01622782
v 0.06890431 -0.01119286 0.01368751
v 0.06417559 -0.01321667 0.00035197
v 0.05002727 -0.01666985 0.00615252
v 0.06560087 -0.01195413 0.01659995
v 0.06504252 -0.01099202 0.02231412
v 0.06751878 -0.01007473 0.02162705
v 0.05500154 -0.01330206 0.02175123
v 0.07186646 -0.00907012 0.01542651
v 0.06959344 -0.01143628 0.00692899
v 0.06549192 -0.01274296 0.01002779
v 0.05614197 -0.01547660 0.00050040
v 0.05179073 -0.01455018 0.01872984
v 0.06372672 -0.01156759 0.02150100
v 0.05553117 -0.01491173 0.01452652
v 0.06971699 -0.01097321 0.00023065
v 0.05723286 -0.01529105 0.00522610
v 0.06030996 -0.01160765 0.02447926
v 0.06165617 -0.01295674 0.01765762
v 0.07195157 -0.01007878 0.00688447
v 0.07330980 -0.00464336 0.02489389
v 0.06623956 -0.01267232 0.00381195
v 0.06878262 -0.01171267 0.00938929
v 0.06807282 -0.00869145 0.02458062
v 0.06036046 -0.01335893 0.01725881
v 0.05603868 -0.01498668 0.01329346
v 0.05361642 -0.01602600 0.00667001
v 0.06133116 -0.01313479 0.01713115
v 0.06502518 -0.01068403 0.02354701
v 0.06001594 -0.01320728 0.01851977
v 0.05544672 -0.01550378 0.00976033
v 0.06992265 -0.01113600 0.00951173
v 0.06129636 -0.01312954 0.01722439
v 0.07054616 -0.00894517 0.01931167
v 0.07176365 -0.00888582 0.01649534
v 0.07268276 -0.00964970 0.00556087
v 0.06502272 -0.01308775 0.00463144
v 0.05537985 -0.01548682 0.01006170
v 0.05433279 -0.01575071 0.00958427
v 0.06458681 -0.01191913 0.01852716
v 0.06167889 -0.01395475 0.00945337
v 0.06590339 -0.01267539 0.00076521
v 0.05515413 -0.01576323 0.00491688
v 0.05032724 -0.01660252 0.00654181
v 0.07328753 -0.00885198 0.00339292
v 0.05568242 -0.01555681 0.00003394
v 0.06612411 -0.01104845 0.02053058
v 0.07187517 -0.01011125 0.00718039
v 0.05001640 -0.01669042 0.00585167
v 0.06723715 -0.01076493 0.01984170
v 0.05032415 -0.01469464 0.01865746
v 0.06742490 -0.01194277 0.01210884
v 0.06183802 -0.01169096 0.02305321
v 0.06505038 -0.01302871 0.00690131
v 0.06846692 -0.00979768 0.02073257
v 0.06552719 -0.01291875 0.00500679
v 0.07292253 -0.00742470 0.00003442
v 0.06569536 -0.01271659 0.00954358
v 0.06879331 -0.00966766 0.02051923
v 0.05313898 -0.01322559 0.02261727
v 0.05287897 -0.01303318 0.02324136
v 0.07014689 -0.00878160 0.02073527
v 0.07197313 -0.00909664 0.01497810
v 0.06952708 -0.01142996 0.00406280
v 0.05214097 -0.01637922 0.00483343
v 0.05316981 -0.01307950 0.02306873
v 0.07008359 -0.00886408 0.02059704
v 0.05124763 -0.01601900 0.01161331
v 0.06567588 -0.01286108 0.00380943
v 0.06734302 -0.01148837 0.01585044
v 0.05483476 -0.01576007 0.00052100
v 0.06852648 -0.01175414 0.00126317
v 0.06891442 -0.01173152 0.00766193
v 0.05793892 -0.01231993 0.02361103
v 0.06635564 -0.01067555 0.02175695
v 0.05730144 -0.01347390 0.01981475
v 0.05466280 -0.01552628 0.01098370
v 0.06497695 -0.01297282 0.00916307
v 0.05784515 -0.01498292 0.00936704
v 0.05245084 -0.01630829 0.00311699
v 0.07224534 -0.00941855 0.01239886
v 0.06962390 -0.00944662 0.01951857
v 0.06782933 -0.00948316 0.02287599
v 0.06896165 -0.01167393 0.00848943
v 0.06646648 -0.01257890 0.00327617
v 0.07042159 -0.01075614 0.01043127
v 0.07295223 -0.00243955 0.00003058
v 0.05810701 -0.01492434 0.00919351
v 0.07323402 -0.00914167 0.00745790
v 0.06786963 -0.01210478 0.00747898
v 0.05143386 -0.01325261 0.02272312
v 0.06015996 -0.01291137 0.01967682
v 0.06131280 -0.01230993 0.02106538
v 0.07160475 -0.00887805 0.01703460
v 0.05251630 -0.01618417 0.00766904
v 0.05630024 -0.01503725 0.01240353
v 0.06188517 -0.01186640 0.02236153
v 0.06970163 -0.01115064 0.00151404
v 0.06076546 -0.01380545 0.01380045
v 0.06868020 -0.01135722 0.01319648
v 0.07277197 -0.00934544 0.01040562
v 0.06662917 -0.01216700 0.01252693
v 0.05382645 -0.01490054 0.01609719
v 0.05385756 -0.01574867 0.01037579
v 0.05556185 -0.01492229 0.01443366
v 0.06689664 -0.01115898 0.01872594
v 0.05309698 -0.01234060 0.02462120
v 0.05720819 -0.01392373 0.01807616
v 0.06119573 -0.01218768 0.02174028
v 0.07351768 -0.00860125 0.00926603
v 0.06811471 -0.01186203 0.00041717
v 0.06915682 -0.01147867 0.00165541
v 0.06617940 -0.01269736 0.00397238
v 0.05084767 -0.01466533 0.01861182
v 0.07083258 -0.00960152 0.01602388
v 0.05519886 -0.01469749 0.01594945
v 0.06444813 -0.01199046 0.01838082
v 0.06051968 -0.01392838 0.01332003
v 0.05721322 -0.01510108 0.00986924
v 0.07045406 -0.01028757 0.01367193
v 0.05111160 -0.00363717 0.00432478
v 0.07483169 -0.00539339 0.00679720
v 0.05590890 -0.01559936 0.00459754
v 0.06923091 -0.01165166 0.00618707
v 0.06827978 -0.01171574 0.01153027
v 0.07199312 -0.00989091 0.00219738
v 0.05707379 -0.01474267 0.01359493
v 0.05741789 -0.01364237 0.01908980
v 0.07437951 -0.00030833 0.00092137
v 0.05999386 -0.01238033 0.02203639
v 0.07277529 -0.00895342 0.01274588
v 0.06107698 -0.01402832 0.01060714
v 0.05330573 -0.01467728 0.01744988
v 0.07208491 -0.00998935 0.00526378
v 0.05612220 -0.01445932 0.01634549
v 0.06093907 -0.01427869 0.00653627
v 0.05970582 -0.01407170 0.01390818
v 0.07105162 -0.00908955 0.01764437
v 0.06960808 -0.01140879 0.00447985
v 0.05085310 -0.01381809 0.02130821
v 0.07114081 -0.00923342 0.01683572
v 0.05903086 -0.01333814 0.01893479
v 0.06783330 -0.01205716 0.00894936
v 0.07161633 -0.01010348 0.00989812
v 0.07249733 -0.00951704 0.00167345
v 0.06265668 -0.01368793 0.00022430
v 0.06780135 -0.01150169 0.01469639
v 0.05738973 -0.01452963 0.01452351
v 0.07102694 -0.01043438 0.01009547
v 0.06853584 -0.00883705 0.02347311
v 0.06331592 -0.01241869 0.01793951
v 0.07277448 -0.00904132 0.00085586
v 0.07270343 -0.00947192 0.00278456
v 0.05713818 -0.01454656 0.01472254
v 0.05905528 -0.01468140 0.00919914
v 0.05246837 -0.01629891 0.00266021
v 0.06823797 -0.00942160 0.02231041
v 0.05894440 -0.01425384 0.01397021
v 0.05934097 -0.01392008 0.01539889
v 0.06670797 -0.01235680 0.00992649
v 0.06595913 -0.01053522 0.02280293
v 0.05010588 -0.01260366 0.02374898
v 0.06670647 -0.01039466 0.02204284
v 0.05862666 -0.01348074 0.01870544
v 0.05161373 -0.01631448 0.00805443
v 0.07214941 -0.00002806 0.01819430
v 0.05375846 -0.01586411 0.00945943
v 0.06367317 -0.01238734 0.01752751
v 0.06813216 -0.01111136 0.01623668
v 0.07084977 -0.00482221 0.02480664
v 0.07451787 -0.00037856 0.01244141
v 0.06834230 -0.01174269 0.01095244
v 0.07060894 -0.01087203 0.00655950
v 0.05474070 -0.01516109 0.01397116
v 0.07293719 -0.00497987 0.00001681
v 0.07021090 -0.01034240 0.01418559
v 0.06035349 -0.01416311 0.01120539
v 0.06572980 -0.01063042 0.02279693
v 0.05001976 -0.01655823 0.00793531
v 0.07322308 -0.00868347 0.00235065
v 0.07067517 -0.01083066 0.00549608
v 0.07115329 -0.00976056 0.01427917
v 0.06598568 -0.01277493 0.00462416
v 0.05357851 -0.01600807 0.00730545
v 0.06847351 -0.01194168 0.00489785
v 0.06556813 -0.01120320 0.02058875
v 0.05203368 -0.01568451 0.01324645
v 0.06625740 -0.01214890 0.01373078
v 0.06581725 -0.01270540 0.00080286
v 0.06930675 -0.01087902 0.01420283
v 0.06870985 -0.00826162 0.02469404
v 0.05672438 -0.01541552 0.00388718
v 0.05947877 -0.01320830 0.01906994
v 0.07495183 -0.00386291 0.02099512
v 0.06032833 -0.01310266 0.01863610
v 0.07271727 -0.00889160 0.01331986
v 0.05570481 -0.01407057 0.01861587
v 0.06132934 -0.01198887 0.02241736
v 0.05981006 -0.01312957 0.01909467
v 0.06667700 -0.01069563 0.02112660
v 0.06830999 -0.01090528 0.01687445
v 0.05331519 -0.01428300 0.01910519
v 0.06148163 -0.01271080 0.01908859
v 0.05103572 -0.01535941 0.01563411
v 0.07064268 -0.01066211 0.00205008
v 0.07233614 -0.00962876 0.01037500
v 0.06632762 -0.01249580 0.00021495
v 0.05610199 -0.01554646 0.00534633
v 0.07495471 -0.00090539 0.00094605
v 0.05366425 -0.01452079 0.01795097
v 0.06658226 -0.01246022 0.00107455
v 0.05957612 -0.01422266 0.01279045
v 0.05130693 -0.01463723 0.01855707
v 0.06557611 -0.01228963 0.01431587
v 0.06989195 -0.00863719 0.02164306
v 0.05954191 -0.01328608 0.01868960
v 0.06886768 -0.01168714 0.00916650
v 0.05135998 -0.01643987 0.00654524
v 0.05943620 -0.01284536 0.02061489
v 0.07109798 -0.01030953 0.01084935
v 0.07211602 -0.00978290 0.01016938
v 0.05451506 -0.01441996 0.01789704
v 0.05714345 -0.01206551 0.02479862
v 0.06514776 -0.01247681 0.01392488
v 0.06422008 -0.01141651 0.02151757
v 0.07034615 -0.01083727 0.01008436
v 0.07264008 -0.00941372 0.01060096
v 0.07137646 -0.00908083 0.01686793
v 0.05271178 -0.01500708 0.01629426
v 0.07147550 -0.01003581 0.01128301
v 0.06133740 -0.01369929 0.01348550
v 0.06670853 -0.01156091 0.01680162
v 0.06667866 -0.01009020 0.02300811
v 0.06852570 -0.01191047 0.00407306
v 0.06691663 -0.01227739 0.01006985
v 0.05900575 -0.01365857 0.01744293
v 0.07339945 -0.00889274 0.00490494
v 0.06374957 -0.01295362 0.01356302
v 0.06594677 -0.01025740 0.02365142
v 0.05776793 -0.01195795 0.02485106
v 0.05784751 -0.01376179 0.01822616
v 0.06514592 -0.01083707 0.02281713
v 0.05981575 -0.01316543 0.01893043
v 0.06641239 -0.01253485 0.00886224
v 0.05707419 -0.01275089 0.02270459
v 0.07294879 -0.00259216 0.00001581
v 0.06781114 -0.00959660 0.02256288
v 0.05300902 -0.01570532 0.01195056
v 0.05071254 -0.00362488 0.00481902
v 0.07231693 -0.00941342 0.01214183
v 0.06532707 -0.01297059 0.00363024
v 0.05028224 -0.01363358 0.02184392
v 0.05669714 -0.01223956 0.02445079
v 0.07301318 -0.00135074 0.00030374
v 0.05422898 -0.01422606 0.01886592
v 0.05275026 -0.01264377 0.02404046
v 0.07493903 -0.00366423 0.00155841
v 0.06819360 -0.00848297 0.02492438
v 0.05538083 -0.01244527 0.02432520
v 0.06869713 -0.00828499 0.02465818
v 0.06954335 -0.00838904 0.02290820
v 0.07308040 -0.00929125 0.00847830
v 0.07494089 -0.00053133 0.01929321
v 0.07287182 -0.00884326 0.00082278
v 0.07480816 -0.00489837 0.00307603
v 0.06520182 -0.01300206 0.00601978
v 0.05924233 -0.01257864 0.02189639
v 0.05535835 -0.01245640 0.02429915
v 0.07041783 -0.01025670 0.01397425
v 0.06547068 -0.01214866 0.01554143
v 0.06628661 -0.01035470 0.02287122
v 0.05125681 -0.01390299 0.02096118
v 0.06870064 -0.01179241 0.00834220
v 0.07253828 -0.00910026 0.01309704
v 0.05183155 -0.01636800 0.00009565
v 0.05431492 -0.01248124 0.02435851
v 0.06814210 -0.01161777 0.01283660
v 0.06079258 -0.01422405 0.00926304
v 0.05515535 -0.01287090 0.02313615
v 0.05131586 -0.01408284 0.02037902
v 0.07150586 -0.00976360 0.01304899
v 0.07025245 -0.01059370 0.01248322
v 0.05618174 -0.01351139 0.02043362
v 0.07448362 -0.00038016 0.00092439
v 0.06675804 -0.01234122 0.00991841
v 0.07148101 -0.01019450 0.00976727
v 0.05002156 -0.01650989 0.00869598
v 0.05597619 -0.01413911 0.01808753
v 0.07302804 -0.00939784 0.00721707
v 0.06719836 -0.01236630 0.00554924
v 0.06939538 -0.01122861 0.00075398
v 0.05012084 -0.01255948 0.02385890
v 0.05198140 -0.01621705 0.00872672
v 0.06290922 -0.01163005 0.02222965
v 0.05553082 -0.01536462 0.01090234
v 0.06435049 -0.01165439 0.02016632
v 0.07088872 -0.01059250 0.00323050
v 0.07335058 -0.00903177 0.00654129
v 0.05197444 -0.01293746 0.02339667
v 0.06887032 -0.01105454 0.01459632
v 0.05328813 -0.01579380 0.01091011
v 0.06961266 -0.01145124 0.00578795
v 0.06262671 -0.01369620 0.00910295
v 0.06490888 -0.01302601 0.00136942
v 0.06440448 -0.01121965 0.02217157
v 0.06206811 -0.01187589 0.02213009
v 0.07221639 -0.00946359 0.01222098
v 0.06079550 -0.01424018 0.00905453
v 0.06572679 -0.01278518 0.00821580
v 0.07357955 -0.00864589 0.00680654
v 0.06775916 -0.01118695 0.01677991
v 0.05761199 -0.01196691 0.02489331
v 0.05883839 -0.01440157 0.01293751
v 0.05698275 -0.01417080 0.01696954
v 0.05499091 -0.01236710 0.02455488
v 0.07316893 -0.00908851 0.00399307
v 0.05422442 -0.01373240 0.02060839
v 0.06780704 -0.01147373 0.01487929
v 0.06010538 -0.01444957 0.00026682
v 0.05007109 -0.01470466 0.01866501
v 0.06416697 -0.01120673 0.02251629
v 0.07071456 -0.01081456 0.00615144
v 0.05685887 -0.01313158 0.02142778
v 0.05299025 -0.01620924 0.00529920
v 0.05012812 -0.01487771 0.01799745
v 0.06740857 -0.01092904 0.01882452
v 0.05018322 -0.01632301 0.01043011
v 0.07062442 -0.01024299 0.01333865
v 0.06191639 -0.01194962 0.02197742
v 0.05400361 -0.01259153 0.02413979
v 0.06603543 -0.01044338 0.02298232
v 0.05006262 -0.01445875 0.01943749
v 0.07252503 -0.00891689 0.01389234
v 0.06809151 -0.01124202 0.01563898
v 0.06703083 -0.01125862 0.01794372
v 0.05264686 -0.01537025 0.01466448
v 0.05048627 -0.01418211 0.02023940
v 0.05103466 -0.01566147 0.01426280
v 0.05985587 -0.01408205 0.01353742
v 0.06827775 -0.01184974 0.00105227
v 0.05477267 -0.01445428 0.01754218
v 0.05655035 -0.01541696 0.00200422
v 0.05147669 -0.01509359 0.01658192
v 0.07002323 -0.01078739 0.00016296
v 0.07225637 -0.00975262 0.00253171
v 0.06143479 -0.01391693 0.01071330
v 0.06663588 -0.01255238 0.00538573
v 0.07023476 -0.01049542 0.01321777
v 0.06992549 -0.01056768 0.01387362
v 0.07161479 -0.00987932 0.00029677
v 0.05276392 -0.01620366 0.00034635
v 0.06819094 -0.00891588 0.02381486
v 0.06708208 -0.01229581 0.00913143
v 0.05702954 -0.01276397 0.02268254
v 0.06973588 -0.01128367 0.00893436
v 0.05742970 -0.01504897 0.00983485
v 0.05456628 -0.01240001 0.02451749
v 0.05137859 -0.01597006 0.01183855
v 0.05890820 -0.01258686 0.02211739
v 0.05235845 -0.01605498 0.01004234
v 0.06842721 -0.01167487 0.01144532
v 0.07264248 -0.00929082 0.01157444
v 0.06758120 -0.01205548 0.00020304
v 0.06121177 -0.01380043 0.01273685
v 0.06679436 -0.00973321 0.02378904
v 0.06661569 -0.01210774 0.01310077
v 0.07490670 -0.00511144 0.00963484
v 0.06748610 -0.01221299 0.00253319
v 0.06888688 -0.01172430 0.00350090
v 0.05522919 -0.01405632 0.01898371
v 0.05936500 -0.01399287 0.01492784
v 0.06667033 -0.01237054 0.00013356
v 0.05006094 -0.01620836 0.01132646
v 0.05353350 -0.01571599 0.01118552
v 0.05199263 -0.01465564 0.01822254
v 0.06785800 -0.01214116 0.00427114
v 0.06137811 -0.01418153 0.00551225
v 0.05266395 -0.01580891 0.01158262
v 0.06700263 -0.01240148 0.00334414
v 0.06984095 -0.01132069 0.00576080
v 0.06645253 -0.01069836 0.02150279
v 0.05242542 -0.01626639 0.00019143
v 0.07304272 -0.00900540 0.00209932
v 0.05107397 -0.01534332 0.01568712
v 0.06347559 -0.01344812 0.00897422
v 0.05023098 -0.01387524 0.02123148
v 0.05441813 -0.01517051 0.01423321
v 0.07139561 -0.00902488 0.01705070
v 0.06854461 -0.01096727 0.01595667
v 0.07444551 -0.00456059 0.02413503
v 0.06242466 -0.01335866 0.01355674
v 0.05695951 -0.01509558 0.01047641
v 0.05253252 -0.01554896 0.01375118
v 0.05200087 -0.01636266 0.00078816
v 0.06503662 -0.01127077 0.02103568
v 0.05312505 -0.01249979 0.02434011
v 0.06371002 -0.01150841 0.02181441
v 0.06043215 -0.01390795 0.01371413
v 0.05625792 -0.01498223 0.01295271
v 0.05761042 -0.01459237 0.01384249
f 177 157 176
f 590 157 177
f 177 569 590
f 176 157 12
f 567 293 607
f 509 578 705
f 298 572 509
f 524 578 509
f 509 572 524
f 364 126 176
f 176 12 364
f 364 12 65
f 573 293 627
f 477 567 607
f 477 607 176
f 524 490 561
f 372 490 524
f 87 564 177
f 87 177 176
f 176 607 87
f 607 293 87
f 87 293 93
f 93 564 87
f 177 564 211
f 486 82 578
f 93 82 481
f 481 82 252
f 481 564 93
f 253 509 705
f 298 509 682
f 197 29 602
f 608 29 197
f 236 627 293
f 36 627 80
f 5 12 157
f 709 157 590
f 590 697 709
f 524 561 402
f 590 569 402
f 402 561 590
f 659 372 665
f 687 372 659
f 524 572 38
f 38 372 524
f 572 372 38
f 361 372 687
f 687 109 361
f 490 372 361
f 361 697 590
f 590 561 361
f 361 561 490
f 569 177 444
f 177 211 444
f 444 145 564
f 444 486 578
f 252 82 444
f 82 486 444
f 564 481 444
f 444 481 252
f 575 576 705
f 150 409 705
f 436 211 564
f 564 145 436
f 436 444 211
f 145 444 436
f 82 485 336
f 578 82 336
f 336 485 293
f 293 485 261
f 270 82 93
f 270 485 82
f 270 261 485
f 93 293 270
f 293 261 270
f 675 29 153
f 126 602 138
f 138 602 688
f 688 502 138
f 126 364 494
f 494 602 126
f 688 602 642
f 642 602 29
f 642 502 688
f 602 62 359
f 197 602 359
f 573 627 88
f 627 36 88
f 88 117 573
f 640 635 126
f 86 328 296
f 296 328 690
f 65 12 380
f 12 5 380
f 157 709 263
f 709 32 263
f 524 402 599
f 599 578 524
f 599 444 578
f 599 402 569
f 569 444 599
f 573 575 506
f 506 575 705
f 552 360 298
f 298 682 437
f 437 26 298
f 682 26 437
f 219 682 509
f 219 26 682
f 665 372 282
f 282 189 665
f 282 372 572
f 580 572 298
f 705 576 530
f 576 575 530
f 446 144 705
f 705 511 446
f 648 511 705
f 705 578 174
f 578 336 174
f 174 336 573
f 573 506 174
f 174 506 705
f 307 293 573
f 573 336 307
f 307 336 293
f 383 642 29
f 364 359 319
f 319 359 62
f 359 533 480
f 143 113 153
f 608 480 143
f 143 480 533
f 153 29 143
f 29 608 143
f 560 669 179
f 179 198 560
f 86 685 179
f 179 669 86
f 129 36 80
f 129 333 36
f 117 88 554
f 554 88 53
f 53 646 554
f 538 630 574
f 627 236 538
f 236 630 538
f 567 477 701
f 186 640 126
f 690 640 186
f 133 702 489
f 651 653 48
f 489 702 48
f 570 685 86
f 86 296 570
f 457 479 531
f 508 457 531
f 65 380 51
f 51 380 5
f 666 709 697
f 666 32 709
f 277 5 157
f 157 263 277
f 298 26 625
f 625 552 298
f 705 144 73
f 73 253 705
f 26 219 425
f 425 73 144
f 253 73 425
f 509 253 425
f 425 219 509
f 468 460 161
f 189 698 467
f 665 189 467
f 467 161 460
f 698 161 467
f 579 698 189
f 189 282 579
f 579 282 572
f 572 580 579
f 377 150 705
f 705 530 377
f 409 150 703
f 705 409 350
f 350 648 705
f 138 653 71
f 126 138 71
f 227 653 651
f 126 71 227
f 227 71 653
f 422 236 293
f 293 711 422
f 422 711 236
f 293 571 78
f 78 711 293
f 555 129 80
f 555 24 560
f 389 555 560
f 129 555 389
f 146 701 477
f 176 126 146
f 146 477 176
f 1 669 560
f 1 323 669
f 690 328 528
f 328 429 528
f 528 640 690
f 528 429 640
f 423 603 450
f 450 133 423
f 316 702 431
f 702 133 431
f 489 442 112
f 112 442 74
f 708 48 653
f 708 383 29
f 512 222 603
f 111 296 690
f 519 227 699
f 148 359 364
f 148 533 359
f 148 364 65
f 65 51 148
f 250 518 510
f 250 510 345
f 208 675 153
f 208 616 675
f 354 616 208
f 489 616 127
f 634 361 109
f 386 666 67
f 697 361 67
f 67 666 697
f 43 530 465
f 465 530 575
f 575 271 465
f 351 604 85
f 26 425 232
f 232 625 26
f 604 351 312
f 698 579 495
f 298 360 495
f 360 698 495
f 495 580 298
f 495 579 580
f 304 530 43
f 304 377 530
f 170 377 304
f 456 703 453
f 453 75 456
f 75 248 456
f 201 212 104
f 104 75 201
f 212 14 104
f 85 604 577
f 675 616 166
f 616 693 166
f 563 693 616
f 296 699 17
f 699 227 17
f 586 554 646
f 117 554 680
f 339 575 573
f 573 117 339
f 117 680 339
f 53 493 476
f 476 646 53
f 390 14 212
f 390 586 646
f 646 476 390
f 390 476 493
f 672 630 236
f 236 711 245
f 711 78 245
f 126 635 647
f 647 146 126
f 669 323 632
f 323 1 632
f 517 328 86
f 86 669 517
f 669 632 517
f 574 251 35
f 574 630 376
f 376 251 574
f 645 245 376
f 376 78 571
f 376 245 78
f 567 701 376
f 701 251 376
f 24 538 568
f 560 24 568
f 568 1 560
f 568 538 574
f 328 23 233
f 23 375 233
f 34 423 556
f 443 305 34
f 34 305 512
f 556 531 34
f 531 479 34
f 603 423 34
f 34 512 603
f 629 423 330
f 330 423 133
f 330 133 489
f 651 48 418
f 418 222 651
f 603 222 656
f 656 702 316
f 222 418 656
f 502 708 6
f 6 708 653
f 6 138 502
f 6 653 138
f 489 48 280
f 673 708 502
f 383 708 673
f 502 642 673
f 642 383 673
f 537 512 685
f 222 512 537
f 685 570 537
f 537 570 296
f 598 179 685
f 685 512 598
f 651 49 544
f 544 49 296
f 651 222 7
f 7 49 651
f 198 305 391
f 391 305 443
f 658 699 296
f 296 111 658
f 333 129 76
f 240 390 493
f 194 518 250
f 194 188 518
f 424 514 407
f 195 424 407
f 639 168 51
f 5 277 283
f 283 51 5
f 283 639 51
f 558 514 531
f 531 345 558
f 558 407 514
f 74 442 715
f 715 473 74
f 51 168 284
f 153 113 284
f 689 127 616
f 522 109 687
f 387 426 58
f 665 467 247
f 247 467 460
f 617 151 439
f 386 67 327
f 43 465 193
f 193 562 235
f 235 562 472
f 170 235 472
f 472 303 170
f 322 370 562
f 212 370 322
f 9 212 201
f 9 370 212
f 201 75 9
f 84 142 91
f 387 58 427
f 552 625 613
f 625 232 613
f 604 312 613
f 360 552 631
f 631 698 360
f 161 312 260
f 260 312 351
f 150 377 382
f 155 676 231
f 95 142 84
f 242 256 677
f 242 577 144
f 144 446 242
f 446 256 242
f 77 232 425
f 77 577 232
f 77 425 144
f 144 577 77
f 200 680 554
f 667 21 271
f 667 339 21
f 667 271 575
f 575 339 667
f 21 339 182
f 182 339 680
f 182 200 21
f 680 200 182
f 14 390 515
f 515 390 696
f 478 390 212
f 586 390 478
f 591 645 630
f 630 672 591
f 591 245 645
f 2 632 1
f 2 517 632
f 2 1 23
f 2 23 328
f 328 517 2
f 630 645 140
f 140 376 630
f 645 376 140
f 567 376 406
f 293 567 406
f 594 568 574
f 1 568 594
f 300 60 594
f 23 1 594
f 594 60 23
f 574 35 583
f 35 60 583
f 583 60 300
f 583 594 574
f 300 594 583
f 57 647 635
f 146 647 57
f 701 146 57
f 57 652 701
f 595 233 375
f 469 112 74
f 74 463 469
f 469 423 629
f 629 112 469
f 420 330 489
f 291 656 316
f 603 656 291
f 48 708 258
f 258 280 48
f 258 708 693
f 693 563 258
f 525 537 296
f 198 179 638
f 179 598 638
f 128 658 111
f 690 186 128
f 128 111 690
f 699 658 128
f 128 519 699
f 128 186 126
f 126 227 128
f 227 519 128
f 36 333 101
f 333 54 101
f 121 76 129
f 368 76 513
f 368 54 333
f 333 76 368
f 408 424 195
f 188 194 8
f 395 277 263
f 395 283 277
f 196 463 74
f 74 551 196
f 196 531 556
f 473 715 134
f 654 452 134
f 134 452 473
f 410 284 113
f 51 284 410
f 354 208 482
f 482 311 354
f 175 438 32
f 419 616 354
f 419 689 616
f 610 353 442
f 354 353 610
f 341 442 489
f 275 353 354
f 354 311 275
f 342 20 275
f 671 434 394
f 45 434 707
f 259 434 45
f 394 434 215
f 215 434 259
f 259 275 215
f 100 442 707
f 100 715 442
f 22 692 47
f 47 692 13
f 105 47 31
f 393 47 105
f 318 619 109
f 109 522 318
f 318 522 132
f 655 426 387
f 387 202 655
f 218 237 352
f 13 218 352
f 218 92 118
f 118 237 218
f 139 439 169
f 398 193 465
f 271 21 398
f 398 465 271
f 562 193 398
f 398 322 562
f 397 75 453
f 85 670 363
f 84 670 56
f 325 439 151
f 151 670 325
f 325 670 439
f 439 670 399
f 268 351 85
f 617 119 695
f 660 460 468
f 552 613 63
f 63 613 312
f 63 631 552
f 63 312 161
f 63 161 698
f 698 631 63
f 232 577 404
f 404 613 232
f 404 577 604
f 604 613 404
f 468 161 213
f 161 260 213
f 213 260 351
f 213 660 468
f 351 660 213
f 136 382 377
f 136 377 170
f 170 303 136
f 677 256 589
f 511 648 589
f 704 484 276
f 84 91 120
f 120 676 338
f 120 670 84
f 108 484 704
f 597 91 142
f 212 322 281
f 281 478 212
f 322 398 281
f 381 35 251
f 381 375 23
f 23 60 381
f 61 376 571
f 61 406 376
f 233 595 178
f 178 429 328
f 328 233 178
f 652 57 178
f 489 112 239
f 239 420 489
f 296 49 448
f 448 525 296
f 129 389 11
f 11 121 129
f 11 389 560
f 560 121 11
f 560 198 224
f 224 121 560
f 76 121 224
f 424 513 154
f 513 76 154
f 412 368 513
f 412 513 424
f 518 408 102
f 102 510 518
f 266 8 712
f 471 263 32
f 471 395 263
f 639 283 90
f 283 292 90
f 246 292 438
f 438 175 246
f 246 175 332
f 283 395 358
f 358 292 283
f 395 471 358
f 358 471 32
f 32 438 358
f 438 292 358
f 713 452 654
f 137 196 551
f 137 345 531
f 531 196 137
f 250 345 137
f 137 348 250
f 137 340 348
f 172 527 654
f 172 134 628
f 654 134 172
f 628 671 172
f 394 215 403
f 32 666 507
f 507 175 32
f 507 666 386
f 386 327 507
f 354 610 16
f 16 392 354
f 127 392 16
f 489 127 191
f 191 341 489
f 127 16 191
f 411 610 442
f 499 275 311
f 342 275 499
f 499 639 342
f 168 639 499
f 15 275 20
f 15 246 275
f 255 671 628
f 434 671 255
f 707 434 167
f 167 100 707
f 169 588 405
f 405 289 169
f 105 289 405
f 619 318 504
f 504 124 619
f 454 119 617
f 272 98 379
f 427 98 272
f 379 454 272
f 387 427 272
f 27 89 272
f 272 202 387
f 272 89 202
f 202 89 310
f 687 659 678
f 426 655 678
f 678 655 202
f 202 310 678
f 451 692 22
f 237 118 314
f 619 124 314
f 31 47 369
f 369 47 13
f 230 92 634
f 634 118 230
f 230 118 92
f 169 439 388
f 388 588 169
f 439 399 388
f 338 243 66
f 439 139 287
f 617 439 287
f 287 454 617
f 657 507 327
f 349 397 453
f 150 382 349
f 349 703 150
f 453 703 349
f 155 231 592
f 488 151 617
f 617 695 488
f 606 427 58
f 441 247 460
f 460 660 441
f 46 288 413
f 427 606 413
f 665 247 269
f 247 441 269
f 269 441 288
f 374 136 370
f 370 9 374
f 382 136 374
f 91 597 663
f 677 589 396
f 207 446 511
f 511 589 207
f 207 256 446
f 207 589 256
f 703 456 543
f 456 229 543
f 44 396 589
f 44 229 430
f 44 543 229
f 44 430 248
f 248 430 306
f 430 229 306
f 704 276 615
f 633 462 231
f 114 68 158
f 390 240 25
f 240 171 25
f 696 390 25
f 25 515 696
f 286 108 75
f 286 104 14
f 75 104 286
f 75 108 516
f 516 108 704
f 516 248 75
f 516 704 248
f 142 95 41
f 41 597 142
f 95 597 41
f 267 521 536
f 586 478 548
f 21 200 548
f 548 398 21
f 554 586 548
f 548 200 554
f 125 595 375
f 375 381 125
f 125 381 251
f 614 571 293
f 614 61 571
f 293 406 614
f 406 61 614
f 429 178 366
f 635 640 366
f 640 429 366
f 28 57 635
f 28 178 57
f 635 366 28
f 28 366 178
f 198 391 39
f 39 224 198
f 443 34 262
f 582 262 34
f 582 154 76
f 160 101 54
f 54 368 160
f 368 412 160
f 249 160 412
f 249 88 36
f 36 101 249
f 101 160 249
f 621 412 424
f 557 321 240
f 557 636 321
f 344 240 493
f 302 8 194
f 302 712 8
f 620 712 18
f 240 321 620
f 321 636 620
f 18 171 620
f 620 171 240
f 266 712 620
f 620 636 266
f 292 246 523
f 246 15 523
f 250 348 334
f 334 257 250
f 250 257 42
f 42 257 483
f 483 466 42
f 265 137 551
f 393 326 55
f 700 47 393
f 393 55 700
f 700 55 618
f 22 47 700
f 700 618 22
f 623 593 394
f 22 356 623
f 623 356 593
f 442 341 714
f 714 411 442
f 353 275 346
f 275 254 346
f 238 275 259
f 238 254 275
f 710 501 18
f 529 585 539
f 624 105 31
f 624 289 105
f 357 318 132
f 357 504 318
f 27 272 684
f 684 272 454
f 683 310 89
f 132 522 70
f 500 691 549
f 549 89 27
f 549 139 500
f 27 287 549
f 549 287 139
f 400 683 694
f 694 683 89
f 221 218 13
f 221 92 218
f 13 692 221
f 332 175 141
f 175 507 141
f 109 619 461
f 619 314 461
f 461 314 118
f 461 634 109
f 461 118 634
f 566 314 124
f 237 314 566
f 226 139 169
f 500 139 226
f 338 588 532
f 588 388 532
f 532 388 399
f 532 399 670
f 532 120 338
f 670 120 532
f 458 588 338
f 338 66 458
f 559 313 105
f 243 313 559
f 209 349 382
f 397 349 209
f 99 529 539
f 503 529 99
f 231 462 181
f 181 592 231
f 503 99 181
f 50 676 155
f 155 592 50
f 335 488 234
f 85 363 335
f 234 122 335
f 335 268 85
f 335 122 268
f 347 56 670
f 670 123 347
f 268 122 637
f 637 122 234
f 234 488 637
f 637 488 695
f 659 606 331
f 331 606 58
f 331 58 426
f 331 678 659
f 426 678 331
f 214 660 351
f 103 441 612
f 520 441 103
f 520 98 427
f 288 441 520
f 520 413 288
f 119 454 147
f 268 496 147
f 147 496 119
f 46 413 206
f 206 606 659
f 206 413 606
f 199 374 9
f 199 9 75
f 75 397 199
f 10 615 115
f 505 615 10
f 115 91 180
f 91 663 180
f 545 597 95
f 378 44 589
f 543 44 378
f 648 350 378
f 378 589 648
f 491 505 584
f 115 615 317
f 317 91 115
f 317 276 231
f 317 615 276
f 317 220 91
f 248 704 107
f 704 615 107
f 107 615 505
f 505 491 107
f 299 649 626
f 626 274 299
f 295 649 299
f 276 649 295
f 231 276 295
f 295 633 231
f 290 120 91
f 91 220 290
f 290 220 120
f 120 220 415
f 415 231 676
f 676 120 415
f 415 317 231
f 220 317 415
f 68 114 547
f 299 274 547
f 547 274 68
f 40 114 158
f 40 466 483
f 40 185 466
f 432 185 40
f 131 273 521
f 521 542 131
f 131 242 677
f 85 577 279
f 279 521 267
f 279 542 521
f 267 244 279
f 279 244 123
f 279 670 85
f 279 123 670
f 401 95 84
f 535 536 521
f 64 281 398
f 398 548 64
f 587 178 595
f 595 125 587
f 534 582 457
f 457 508 534
f 154 582 445
f 262 582 674
f 76 224 674
f 674 582 76
f 412 621 609
f 266 249 609
f 609 249 412
f 609 621 8
f 609 8 266
f 424 408 644
f 644 621 424
f 644 408 518
f 266 636 183
f 183 249 266
f 59 249 183
f 240 344 264
f 59 557 264
f 264 557 240
f 264 249 59
f 164 493 53
f 164 344 493
f 53 88 164
f 164 264 344
f 88 249 164
f 249 264 164
f 712 302 329
f 329 225 611
f 187 403 215
f 215 246 187
f 187 246 332
f 546 52 414
f 83 52 546
f 585 81 546
f 546 433 679
f 97 99 546
f 483 83 546
f 414 713 546
f 654 433 546
f 546 713 654
f 257 334 4
f 4 52 83
f 483 257 4
f 4 83 483
f 348 340 190
f 190 116 348
f 452 116 190
f 473 452 190
f 190 686 473
f 473 686 474
f 137 265 474
f 394 403 470
f 470 623 394
f 332 623 470
f 470 187 332
f 403 187 470
f 159 451 22
f 22 623 159
f 159 141 451
f 159 623 332
f 332 141 159
f 611 225 223
f 501 710 223
f 18 712 540
f 540 710 18
f 527 162 492
f 492 162 165
f 654 527 492
f 149 546 679
f 661 97 149
f 97 546 149
f 593 356 149
f 149 356 661
f 278 313 243
f 338 676 278
f 278 243 338
f 454 287 315
f 315 684 454
f 526 683 132
f 310 683 526
f 132 70 526
f 152 221 217
f 217 141 152
f 92 221 152
f 634 92 152
f 152 657 327
f 507 657 152
f 361 634 152
f 152 67 361
f 152 327 67
f 30 141 217
f 451 141 30
f 217 221 30
f 692 451 30
f 30 221 692
f 237 566 384
f 352 297 371
f 371 581 352
f 31 369 96
f 96 369 13
f 13 352 96
f 352 581 96
f 668 559 66
f 668 66 243
f 243 559 668
f 417 99 440
f 676 50 440
f 69 99 97
f 130 356 69
f 356 19 69
f 69 19 55
f 69 55 326
f 592 181 681
f 681 99 417
f 681 181 99
f 267 536 459
f 268 637 216
f 216 637 695
f 427 413 3
f 3 520 427
f 413 520 3
f 192 441 660
f 660 147 192
f 192 612 441
f 454 612 192
f 192 147 454
f 351 268 449
f 268 147 449
f 449 214 351
f 660 214 449
f 449 147 660
f 435 596 584
f 584 596 497
f 497 491 584
f 396 44 497
f 497 596 396
f 497 44 248
f 248 107 497
f 497 107 491
f 184 663 597
f 184 596 663
f 677 396 565
f 565 131 677
f 273 131 565
f 324 350 409
f 409 703 324
f 703 543 324
f 543 378 324
f 484 108 204
f 108 626 204
f 204 276 484
f 299 547 385
f 294 40 483
f 483 546 294
f 114 40 294
f 294 546 81
f 294 320 114
f 585 320 294
f 294 81 585
f 421 25 171
f 421 228 25
f 421 650 274
f 158 650 421
f 421 40 158
f 416 279 577
f 542 279 416
f 577 242 416
f 242 131 416
f 416 131 542
f 79 535 95
f 95 401 79
f 536 535 79
f 652 178 455
f 178 587 455
f 701 652 455
f 455 587 125
f 455 251 701
f 455 125 251
f 205 445 582
f 582 534 205
f 72 329 611
f 712 329 72
f 539 585 706
f 585 546 706
f 52 4 343
f 343 334 348
f 343 4 334
f 473 474 173
f 173 474 265
f 285 19 356
f 22 618 285
f 285 356 22
f 618 55 285
f 55 19 285
f 501 223 135
f 135 223 225
f 165 162 447
f 447 162 593
f 593 149 447
f 313 475 373
f 105 313 373
f 393 105 373
f 373 326 393
f 487 278 676
f 37 141 507
f 507 152 37
f 37 152 141
f 337 384 400
f 400 694 337
f 297 203 662
f 33 226 169
f 498 297 352
f 498 691 500
f 498 352 237
f 237 384 498
f 417 440 367
f 367 440 50
f 130 69 301
f 301 69 97
f 301 97 661
f 301 356 130
f 661 356 301
f 601 244 267
f 267 459 601
f 84 56 541
f 541 401 84
f 584 505 664
f 505 10 664
f 663 596 643
f 596 435 643
f 396 596 622
f 622 565 396
f 597 545 622
f 622 545 273
f 273 565 622
f 110 378 350
f 350 324 110
f 110 324 378
f 163 385 547
f 503 385 163
f 163 529 503
f 228 421 641
f 108 286 641
f 25 228 641
f 553 546 99
f 553 706 546
f 553 99 539
f 539 706 553
f 156 40 171
f 156 135 40
f 355 135 225
f 432 40 355
f 40 135 355
f 308 487 676
f 384 337 428
f 691 498 428
f 428 498 384
f 169 662 605
f 605 33 169
f 605 662 203
f 203 33 605
f 241 203 297
f 297 498 241
f 226 33 241
f 241 33 203
f 464 541 459
f 464 459 536
f 401 541 464
f 309 435 584
f 584 664 309
f 210 184 597
f 597 622 210
f 106 421 274
f 106 641 421
f 365 286 14
f 365 641 286
f 14 515 365
f 515 25 365
f 25 641 365
f 362 171 18
f 362 156 171
f 550 308 676
f 108 641 94
f 641 106 94
f 94 626 108
f 274 626 94
f 94 106 274
f 308 550 600
f 600 550 475
f 600 475 313
f 319 62 602
f 319 494 364
f 602 494 319
f 197 359 480
f 480 608 197
f 627 538 555
f 80 627 555
f 555 538 24
f 166 708 29
f 29 675 166
f 693 708 166
f 656 48 702
f 656 418 48
f 544 227 651
f 296 17 544
f 544 17 227
f 170 304 193
f 193 235 170
f 193 304 43
f 236 245 591
f 591 672 236
f 450 603 291
f 316 431 291
f 291 133 450
f 291 431 133
f 258 616 489
f 258 563 616
f 489 280 258
f 512 305 638
f 638 305 198
f 638 598 512
f 556 423 196
f 423 469 196
f 196 469 463
f 113 143 410
f 533 148 410
f 410 143 533
f 410 148 51
f 127 689 392
f 392 419 354
f 689 419 392
f 303 472 136
f 562 370 136
f 136 472 562
f 381 60 35
f 629 330 239
f 239 112 629
f 330 420 239
f 448 7 222
f 222 537 448
f 49 7 448
f 537 525 448
f 102 345 510
f 195 407 102
f 102 558 345
f 407 558 102
f 102 408 195
f 246 215 275
f 499 482 208
f 499 208 153
f 153 284 499
f 499 284 168
f 311 482 499
f 628 134 167
f 715 100 167
f 167 134 715
f 167 255 628
f 434 255 167
f 306 229 456
f 306 456 248
f 479 457 582
f 582 34 479
f 639 90 523
f 342 639 523
f 523 20 342
f 523 90 292
f 523 15 20
f 341 191 714
f 714 16 610
f 714 191 16
f 610 411 714
f 442 353 238
f 707 442 238
f 238 45 707
f 259 45 238
f 353 346 238
f 238 346 254
f 527 172 162
f 394 593 162
f 162 671 394
f 162 172 671
f 105 405 559
f 559 405 588
f 588 458 559
f 559 458 66
f 335 363 670
f 335 670 151
f 151 488 335
f 103 612 520
f 379 98 520
f 520 454 379
f 520 612 454
f 665 269 206
f 206 659 665
f 206 288 46
f 206 269 288
f 199 209 382
f 382 374 199
f 397 209 199
f 521 273 535
f 535 545 95
f 273 545 535
f 64 548 478
f 478 281 64
f 674 39 391
f 674 391 443
f 224 39 674
f 443 262 674
f 8 621 644
f 518 188 644
f 188 8 644
f 636 557 183
f 183 557 59
f 474 190 340
f 340 137 474
f 686 190 474
f 27 684 315
f 315 287 27
f 526 678 310
f 526 522 687
f 687 678 526
f 526 70 522
f 132 683 384
f 384 357 132
f 124 504 384
f 504 357 384
f 384 683 400
f 384 566 124
f 119 496 216
f 216 695 119
f 216 496 268
f 204 626 649
f 204 649 276
f 503 181 385
f 385 181 462
f 385 295 299
f 462 633 385
f 633 295 385
f 68 274 650
f 158 68 650
f 171 40 421
f 424 154 205
f 205 508 531
f 531 514 205
f 205 514 424
f 205 534 508
f 154 445 205
f 611 223 72
f 72 540 712
f 72 223 710
f 710 540 72
f 348 116 343
f 343 713 414
f 452 713 343
f 343 116 452
f 414 52 343
f 173 551 74
f 74 473 173
f 173 265 551
f 654 492 447
f 447 433 654
f 679 433 447
f 447 492 165
f 447 149 679
f 169 289 662
f 662 624 31
f 31 96 662
f 289 624 662
f 662 371 297
f 581 371 662
f 662 96 581
f 367 50 592
f 367 681 417
f 592 681 367
f 541 347 123
f 56 347 541
f 123 244 541
f 244 601 541
f 541 601 459
f 585 529 163
f 163 320 585
f 163 547 114
f 114 320 163
f 355 329 302
f 355 194 250
f 355 302 194
f 250 42 355
f 355 185 432
f 355 42 466
f 466 185 355
f 225 329 355
f 428 549 691
f 89 549 428
f 428 694 89
f 428 337 694
f 241 498 500
f 500 226 241
f 464 79 401
f 536 79 464
f 115 180 309
f 309 10 115
f 309 180 663
f 309 664 10
f 663 643 309
f 309 643 435
f 210 622 596
f 596 184 210
f 135 156 362
f 18 501 362
f 501 135 362
f 676 440 550
f 326 373 550
f 550 69 326
f 550 440 99
f 99 69 550
f 550 373 475
f 278 487 600
f 313 278 600
f 487 308 600

