# https://github.com/mikedh/trimesh
v 0.07062491 -0.01434586 -0.00425173
v 0.06199704 -0.02250592 -0.01957914
v 0.06302126 -0.02285684 -0.01852970
v 0.05950343 -0.02179120 -0.02156382
v 0.07390935 -0.00574308 -0.01756419
v 0.05454841 -0.02718725 -0.00575932
v 0.06752298 -0.01868068 -0.01059513
v 0.06707128 -0.01918655 -0.00088687
v 0.07330828 -0.00815344 -0.01626385
v 0.05288233 -0.02765168 -0.01793821
v 0.06887684 -0.01699116 -0.00077495
v 0.06547376 -0.02080887 -0.01800683
v 0.05593672 -0.02671082 -0.01028617
v 0.07106500 -0.00508098 -0.02162377
v 0.06940414 -0.00949239 -0.02193220
v 0.06839740 -0.01055908 -0.02240816
v 0.07431785 -0.00319018 -0.01863127
v 0.07091144 -0.01381924 -0.00002536
v 0.07426983 -0.00360189 -0.00309898
v 0.06970313 -0.01581820 -0.01796313
v 0.06744802 -0.01194974 -0.02250000
v 0.07440994 -0.00223407 -0.01718953
v 0.06647926 -0.01722753 -0.02043272
v 0.07413918 -0.00386592 -0.01879505
v 0.07387303 -0.00590136 -0.01832887
v 0.07424600 -0.00378151 -0.00139433
v 0.06150247 -0.02391430 -0.01694001
v 0.06696043 -0.01930776 -0.00268367
v 0.07197425 -0.00014787 -0.02122424
v 0.05855396 -0.02558582 -0.01260029
v 0.06938928 -0.01628321 -0.00052686
v 0.06479226 -0.02078256 -0.01917378
v 0.05214607 -0.02782745 -0.01811912
v 0.07194530 -0.01178636 -0.00208828
v 0.07063249 -0.01433321 -0.00082220
v 0.06844085 -0.01756550 -0.01859729
v 0.05534274 -0.02287210 -0.02246781
v 0.06551026 -0.01896987 -0.01997015
v 0.07398011 -0.00541546 -0.00367437
v 0.06966190 -0.01588450 -0.00733354
v 0.06709216 -0.01689896 -0.02015933
v 0.07017374 -0.01508997 -0.01810288
v 0.05808961 -0.02580419 -0.00060338
v 0.06305944 -0.02282996 -0.00592594
v 0.05860457 -0.02452153 -0.01962557
v 0.07344008 -0.00768559 -0.01850416
v 0.06999739 -0.00578727 -0.02248536
v 0.05198467 -0.02786441 -0.01720486
v 0.07416395 -0.00435092 -0.01860574
v 0.07447550 -0.00039289 -0.01872093
v 0.05617353 -0.02662220 -0.00191184
v 0.06969303 -0.01583777 -0.00100857
v 0.06624094 -0.01980236 -0.01886922
v 0.05955828 -0.02506835 -0.01211472
v 0.05725108 -0.02617263 -0.01866021
v 0.07261240 -0.00306276 -0.02040813
v 0.06458476 -0.02122604 -0.01897950
v 0.06441017 -0.02175509 -0.01287658
v 0.05108359 -0.02802565 -0.00004673
v 0.07332110 -0.00810702 -0.00159474
v 0.05774121 -0.02596806 -0.01563590
v 0.06283671 -0.02299356 -0.00160429
v 0.05236975 -0.02406124 -0.02230876
v 0.05933395 -0.02518835 -0.01784110
v 0.06553667 -0.02055303 -0.01884279
v 0.07230404 -0.00272167 -0.02075447
v 0.05616615 -0.02662472 -0.01282145
v 0.06559260 -0.01494618 -0.02250000
v 0.07216560 -0.00616399 -0.02030630
v 0.07288369 -0.00945389 -0.01851371
v 0.05230045 -0.02634779 -0.02010412
v 0.07449944 -0.00010758 -0.01627671
v 0.06304649 -0.02283909 -0.01331352
v 0.05760135 -0.02582314 -0.01888813
v 0.05953125 -0.02506246 -0.01871782
v 0.07079077 -0.01404535 -0.00231352
v 0.07201757 -0.01163253 -0.00688823
v 0.05448201 -0.02720758 -0.01121002
v 0.06430620 -0.02184024 -0.01835707
v 0.06324345 -0.02268932 -0.00067748
v 0.07219229 -0.01123353 -0.00198463
v 0.07359570 -0.00710274 -0.01818291
v 0.07439994 -0.00234923 -0.01777801
v 0.07350193 -0.00746559 -0.01798919
v 0.06690049 -0.01933358 -0.01872820
v 0.06478525 -0.02142038 -0.00145821
v 0.07445293 -0.00156315 -0.00255158
v 0.05243490 -0.02398104 -0.02236603
v 0.05482750 -0.02709001 -0.01808303
v 0.05246641 -0.02775492 -0.00011737
v 0.07427783 -0.00089751 -0.01890524
v 0.07448648 -0.00086484 -0.01865703
v 0.06532991 -0.02093843 -0.01853277
v 0.06913502 -0.01663944 -0.00809995
v 0.05301149 -0.02762217 -0.00082904
v 0.06910407 -0.01387530 -0.02024422
v 0.06966004 -0.00773564 -0.02229199
v 0.06708588 -0.01283243 -0.02248962
v 0.07153937 -0.00872588 -0.02020398
v 0.05497846 -0.02336389 -0.02216307
v 0.05363193 -0.02556852 -0.02050550
v 0.06807198 -0.01802915 -0.00002028
v 0.07404440 -0.00505103 -0.00018992
v 0.07328026 -0.00824724 -0.00303685
v 0.06178345 -0.02372534 -0.00091636
v 0.07056227 -0.01445274 -0.01852991
v 0.05767411 -0.02599171 -0.00100507
v 0.05934510 -0.02399751 -0.01973171
v 0.07290846 -0.00511463 -0.01980627
v 0.07306709 -0.00892224 -0.01313724
v 0.05770142 -0.02339796 -0.02103701
v 0.05029395 -0.02817398 -0.00882348
v 0.07426030 -0.00367453 -0.01836992
v 0.05848473 -0.02561935 -0.01793012
v 0.07218980 -0.00774829 -0.01988517
v 0.07065720 -0.00137949 -0.02247423
v 0.05590971 -0.02672118 -0.01413990
v 0.07414058 -0.00450726 -0.00211745
v 0.06866191 -0.01728037 -0.00545183
v 0.06142586 -0.02027351 -0.02172088
v 0.07326521 -0.00471215 -0.01952657
v 0.05731742 -0.02352898 -0.02108784
v 0.06160829 -0.02384500 -0.00274376
v 0.07449880 -0.00023070 -0.01639952
v 0.06604232 -0.02020756 -0.01872693
v 0.06896368 -0.01356596 -0.02052504
v 0.07140274 -0.01292037 -0.01514910
v 0.07364969 -0.00345287 -0.01933237
v 0.05007175 -0.02820051 -0.00081489
v 0.06709570 -0.01538521 -0.02108592
v 0.06321694 -0.01866535 -0.02180540
v 0.07449697 -0.00027149 -0.00267635
v 0.06035530 -0.02460438 -0.00020712
v 0.06921303 -0.01637538 -0.01879150
v 0.07448886 -0.00077121 -0.01812860
v 0.05420177 -0.02728711 -0.01831677
v 0.05266312 -0.02770990 -0.00166601
v 0.06867337 -0.01284214 -0.02113957
v 0.05887285 -0.02542214 -0.00008228
v 0.07449925 -0.00014458 -0.00261266
v 0.07358175 -0.00717441 -0.00570690
v 0.06636755 -0.01672492 -0.02082977
v 0.07313472 -0.00345871 -0.01984122
v 0.07398405 -0.00539420 -0.00206713
v 0.07054776 -0.01447579 -0.00022247
v 0.05919596 -0.02525873 -0.01844589
v 0.05930781 -0.02520177 -0.01805569
v 0.05848133 -0.02561770 -0.00007806
v 0.07232383 -0.00912819 -0.01933372
v 0.05973552 -0.02496625 -0.01797417
v 0.07086190 -0.00298339 -0.02214278
v 0.06923924 -0.01361028 -0.02026662
v 0.05031959 -0.02816817 -0.01868748
v 0.07443007 -0.00198117 -0.01439900
v 0.05465972 -0.02413100 -0.02155462
v 0.06932286 -0.00816656 -0.02245932
v 0.05864726 -0.02552551 -0.01871103
v 0.07346001 -0.00247548 -0.01962577
v 0.06093149 -0.02016120 -0.02210570
v 0.07340412 -0.00716154 -0.01887348
v 0.06777109 -0.01747358 -0.01927714
v 0.07179213 -0.00018391 -0.02140543
v 0.06751042 -0.01278108 -0.02216147
v 0.05781469 -0.02593481 -0.00628446
v 0.05916082 -0.02493635 -0.01900275
v 0.07311283 -0.00877957 -0.00516359
v 0.05560725 -0.02264779 -0.02250000
v 0.07233732 -0.01086023 -0.01865001
v 0.06240150 -0.02244696 -0.01939850
v 0.07443170 -0.00193993 -0.01805522
v 0.06959012 -0.01599159 -0.00515831
v 0.05615020 -0.02662101 -0.01870831
v 0.05732660 -0.02398980 -0.02066707
v 0.07440966 -0.00220681 -0.00030933
v 0.07309648 -0.00883192 -0.00029791
v 0.07120542 -0.01075316 -0.01979337
v 0.06297533 -0.01886180 -0.02181546
v 0.05160282 -0.02716523 -0.01945656
v 0.06298218 -0.02288719 -0.01177638
v 0.06275460 -0.02305435 -0.00297416
v 0.07357105 -0.00721615 -0.01171004
v 0.07059283 -0.00041043 -0.02250000
v 0.05005961 -0.02299508 -0.02250000
v 0.07232469 -0.00864637 -0.01949034
v 0.07396644 -0.00548508 -0.00876633
v 0.06793852 -0.01647062 -0.01976207
v 0.07140304 -0.00730406 -0.02076196
v 0.07112980 -0.00301801 -0.02187475
v 0.07031986 -0.00500629 -0.02236648
v 0.06267768 -0.02310949 -0.01436125
v 0.06205021 -0.02307732 -0.01907975
v 0.06171297 -0.02027136 -0.02154416
v 0.06088996 -0.02429742 -0.00267889
v 0.07396112 -0.00551393 -0.01635388
v 0.05261798 -0.02772026 -0.00064661
v 0.05728858 -0.02244305 -0.02207187
v 0.07441059 -0.00133763 -0.01875128
v 0.07167479 -0.00321021 -0.02131155
v 0.07278384 -0.00972678 -0.00498186
v 0.05001381 -0.00359015 -0.02250000
v 0.06396294 -0.02208445 -0.01872161
v 0.07309467 -0.00883766 -0.00233225
v 0.05830938 -0.02181798 -0.02212184
v 0.07425095 -0.00375154 -0.00509164
v 0.07409402 -0.00477468 -0.01852210
v 0.06616756 -0.01424783 -0.02250000
v 0.05473551 -0.02705894 -0.01875893
v 0.06451058 -0.02166482 -0.01785854
v 0.06988873 -0.01509858 -0.01893263
v 0.05737193 -0.02306653 -0.02148197
v 0.07276831 -0.00815073 -0.01921685
v 0.05461156 -0.02716642 -0.00067588
v 0.06772427 -0.00003195 -0.02250000
v 0.06477513 -0.02107293 -0.01896771
v 0.07449816 -0.00030095 -0.01702912
v 0.05487530 -0.02349253 -0.02208462
v 0.07175362 -0.00526139 -0.02091144
v 0.06667549 -0.01907713 -0.01906672
v 0.05456930 -0.02718076 -0.00199837
v 0.06865216 -0.01729168 -0.01422410
v 0.05268889 -0.02770388 -0.00398244
v 0.05002641 -0.02622828 -0.02066419
v 0.06929119 -0.01642320 -0.01849745
v 0.05775218 -0.02596397 -0.01850199
v 0.05551655 -0.02540751 -0.02006841
v 0.07443247 -0.00194832 -0.00879935
v 0.06988109 -0.00720723 -0.02224961
v 0.06299963 -0.02102996 -0.02014865
v 0.07274688 -0.00812441 -0.01924524
v 0.06564131 -0.02065100 -0.00619416
v 0.06713860 -0.01911013 -0.00016034
v 0.06209877 -0.02192189 -0.02000071
v 0.06240460 -0.01840071 -0.02250000
v 0.07429133 -0.00341528 -0.00125333
v 0.07360004 -0.00658100 -0.01881321
v 0.06449922 -0.02167772 -0.00291009
v 0.06292861 -0.02292655 -0.01282142
v 0.07092324 -0.01251746 -0.01930116
v 0.06697864 -0.01929061 -0.00632700
v 0.06225169 -0.02177823 -0.02002558
v 0.06507292 -0.01671428 -0.02183870
v 0.06280504 -0.02301701 -0.00186901
v 0.05209849 -0.02783938 -0.00230067
v 0.07309918 -0.00882245 -0.00639051
v 0.06280392 -0.02089413 -0.02037698
v 0.07307336 -0.00890240 -0.01324729
v 0.06644675 -0.01490985 -0.02188775
v 0.05000547 -0.02820944 -0.00310783
v 0.07143397 -0.01285649 -0.00256926
v 0.06926942 -0.01645464 -0.01783822
v 0.06758631 -0.01860710 -0.00223358
v 0.07331392 -0.00813327 -0.01778511
v 0.05624027 -0.02659256 -0.01815398
v 0.06544247 -0.01673382 -0.02154307
v 0.05195743 -0.02761657 -0.01894637
v 0.06096040 -0.02425687 -0.00602949
v 0.07080700 -0.01084809 -0.02012354
v 0.05207929 -0.00003625 -0.02250000
v 0.07424875 -0.00377173 -0.01808397
v 0.06341299 -0.01836640 -0.02188130
v 0.07443957 -0.00182525 -0.00248305
v 0.07217080 -0.01128298 -0.01067333
v 0.05195768 -0.01583455 -0.02250000
v 0.05955901 -0.02506795 -0.01067861
v 0.06428380 -0.02185181 -0.00042212
v 0.05592546 -0.02671559 -0.01451358
v 0.06165204 -0.01913496 -0.02244870
v 0.06169418 -0.02014356 -0.02165415
v 0.06492870 -0.02129126 -0.00092802
v 0.07211811 -0.01140504 -0.01824266
v 0.07209917 -0.00960707 -0.01938305
v 0.05413752 -0.02730491 -0.01847210
v 0.05941638 -0.02514426 -0.01765089
v 0.06642423 -0.01380063 -0.02250000
v 0.07285737 -0.00952965 -0.01831172
v 0.06807591 -0.01712336 -0.01925644
v 0.05859376 -0.02556538 -0.00309000
v 0.05207696 -0.02784413 -0.00600563
v 0.07303013 -0.00903191 -0.01850008
v 0.07420484 -0.00407440 -0.01780571
v 0.07060256 -0.00102076 -0.02250000
v 0.05541880 -0.02566383 -0.01985976
v 0.07195407 -0.01176803 -0.01559254
v 0.07065335 -0.01429464 -0.00781012
v 0.06077257 -0.02371306 -0.01925963
v 0.06964572 -0.01590944 -0.00629748
v 0.06669690 -0.01957436 -0.00026824
v 0.06567438 -0.02061924 -0.00333128
v 0.06601815 -0.01746691 -0.02063131
v 0.07218419 -0.01124443 -0.01781793
v 0.07107853 -0.00754759 -0.02100811
v 0.06154102 -0.02388939 -0.01669389
v 0.06813704 -0.01700474 -0.01928210
v 0.07447749 -0.00093144 -0.00015159
v 0.07433994 -0.00300425 -0.00146008
v 0.07437223 -0.00266679 -0.01850863
v 0.06666104 -0.01961799 -0.01843207
v 0.05005154 -0.02820662 -0.01720404
v 0.06967517 -0.01586147 -0.01712931
v 0.05538944 -0.02383185 -0.02157430
v 0.07397348 -0.00544838 -0.00362143
v 0.06529676 -0.02056186 -0.01900100
v 0.06696697 -0.01930213 -0.00523834
v 0.06965933 -0.01588900 -0.00096155
v 0.05335243 -0.02571469 -0.02044733
v 0.07051050 -0.01453759 -0.00034065
v 0.07028110 -0.01460151 -0.01886498
v 0.06442416 -0.02174337 -0.00980830
v 0.07434824 -0.00293442 -0.01197481
v 0.06181561 -0.02370073 -0.01855126
v 0.05021394 -0.01112668 -0.02250000
v 0.05287344 -0.02758153 -0.01877037
v 0.06515261 -0.02109568 -0.01867336
v 0.07045078 -0.00013571 -0.02250000
v 0.06550588 -0.02077884 -0.00332055
v 0.06122710 -0.02408610 -0.00029038
v 0.07412635 -0.00459505 -0.00077883
v 0.05815940 -0.02577241 -0.01825895
v 0.06422532 -0.01687657 -0.02233813
v 0.07279771 -0.00929993 -0.01883131
v 0.07359195 -0.00713483 -0.00182258
v 0.06302500 -0.02278198 -0.01875648
v 0.06904405 -0.01676325 -0.00040426
v 0.05178236 -0.02399843 -0.02249378
v 0.07027483 -0.01493196 -0.00500279
v 0.06322052 -0.02270695 -0.00046275
v 0.07442978 -0.00199517 -0.01028409
v 0.07449907 -0.00017872 -0.01811138
v 0.06814209 -0.01794320 -0.00249459
v 0.05376488 -0.00002813 -0.02250000
v 0.07112454 -0.01104549 -0.01975355
v 0.05929820 -0.02520357 -0.00112004
v 0.07449298 -0.00044206 -0.00062824
v 0.07392743 -0.00566283 -0.01595601
v 0.07449072 -0.00062594 -0.00963189
v 0.05944383 -0.02512955 -0.00360190
v 0.06147866 -0.01919714 -0.02250000
v 0.05016422 -0.02818878 -0.00094787
v 0.05599912 -0.02668666 -0.00059953
v 0.07322657 -0.00841973 -0.00283206
v 0.06786143 -0.01827912 -0.01848596
v 0.06569803 -0.02059577 -0.01848352
v 0.05847447 -0.02125212 -0.02250000
v 0.05613131 -0.02663831 -0.00041496
v 0.05615758 -0.02662829 -0.00985694
v 0.06263114 -0.02314141 -0.00025233
v 0.07032306 -0.01427051 -0.01899835
v 0.06908928 -0.01219918 -0.02107826
v 0.07422840 -0.00005775 -0.01897129
v 0.06544442 -0.01737433 -0.02112219
v 0.07355877 -0.00067799 -0.01962969
v 0.06441403 -0.02175065 -0.01620401
v 0.07146423 -0.01279740 -0.00058666
v 0.05202808 -0.02785488 -0.01104747
v 0.05587517 -0.02673413 -0.01810854
v 0.05797593 -0.02487686 -0.01958834
v 0.05459220 -0.02717307 -0.00122922
v 0.05019433 -0.02818865 -0.01807532
v 0.06574083 -0.02055548 -0.00135800
v 0.06972851 -0.01442999 -0.01942577
v 0.06393486 -0.02213411 -0.01866815
v 0.05385482 -0.02580261 -0.02021721
v 0.07329560 -0.00819716 -0.01650535
v 0.05506472 -0.02422997 -0.02132973
v 0.05348660 -0.02344562 -0.02250000
v 0.05606815 -0.02666216 -0.01808557
v 0.07070897 -0.00014626 -0.02248386
v 0.07282476 -0.00962554 -0.00906693
v 0.07426496 -0.00076357 -0.01892379
v 0.07395455 -0.00554159 -0.01287377
v 0.05195197 -0.02787053 -0.01691742
v 0.07338593 -0.00004888 -0.01981381
v 0.05162190 -0.02735817 -0.01926467
v 0.06049958 -0.02021805 -0.02230238
v 0.07186462 -0.01109466 -0.01905326
v 0.06149353 -0.02391678 -0.00007887
v 0.07309414 -0.00883756 -0.00967096
v 0.07106649 -0.00273464 -0.02197866
v 0.07280543 -0.00924692 -0.01884135
v 0.07378929 -0.00626445 -0.01854341
v 0.05759246 -0.02603065 -0.01828301
v 0.06730245 -0.01892934 -0.01855172
v 0.05609029 -0.02665369 -0.00181351
v 0.07266111 -0.00662301 -0.01971959
v 0.06789945 -0.01149380 -0.02244749
v 0.07130530 -0.01309976 -0.01867633
v 0.07448670 -0.00083614 -0.01603980
v 0.07084402 -0.01394717 -0.00042749
v 0.05812667 -0.02578638 -0.00023186
v 0.07287663 -0.00947519 -0.00042344
v 0.05016874 -0.00031672 -0.02250000
v 0.06270976 -0.02308749 -0.00829946
v 0.05791861 -0.02588625 -0.00313975
v 0.05402622 -0.02339075 -0.02244595
v 0.07449829 -0.00029246 -0.01672830
v 0.05110801 -0.02644238 -0.02025879
v 0.07441725 -0.00214957 -0.01658764
v 0.05925973 -0.02522309 -0.00086345
v 0.06649882 -0.01450569 -0.02208583
v 0.07158722 -0.01196175 -0.01894519
v 0.06353258 -0.01987952 -0.02068652
v 0.05998246 -0.02482438 -0.01864427
v 0.06702613 -0.01491121 -0.02142238
v 0.07327521 -0.00826374 -0.00899798
v 0.07017739 -0.00984790 -0.02108563
v 0.06773764 -0.01842558 -0.00089994
v 0.05205155 -0.02784907 -0.01775077
v 0.07327154 -0.00827573 -0.00744421
v 0.05621392 -0.02660660 -0.00065103
v 0.05026076 -0.02817887 -0.01192611
v 0.07446644 -0.00129067 -0.00561402
v 0.05027379 -0.02469768 -0.02212185
v 0.06881498 -0.01284229 -0.02101499
v 0.06806682 -0.01803587 -0.01284734
v 0.05459358 -0.02318678 -0.02246831
v 0.06397724 -0.02149516 -0.01917401
v 0.05280086 -0.02767611 -0.01245148
v 0.05273530 -0.02769239 -0.00064097
v 0.05271303 -0.02769803 -0.01430309
v 0.06463811 -0.01630910 -0.02243021
v 0.07448706 -0.00081963 -0.01562899
v 0.05272768 -0.02769455 -0.01779878
v 0.07197333 -0.01172780 -0.01070390
v 0.07012771 -0.01516120 -0.00048547
v 0.05951345 -0.02509233 -0.01701922
v 0.06925383 -0.01647710 -0.01578732
v 0.07425348 -0.00373662 -0.01123580
v 0.07192070 -0.01183774 -0.00131500
v 0.07021648 -0.01419588 -0.01912814
v 0.07250921 -0.00474923 -0.02026385
v 0.06862117 -0.01733431 -0.01045411
v 0.07434373 -0.00297241 -0.01853238
v 0.06164757 -0.02381814 -0.00647583
v 0.06861195 -0.01297988 -0.02112587
v 0.05004229 -0.00141862 -0.02250000
v 0.06691693 -0.01935776 -0.01737462
v 0.07447219 -0.00116193 -0.00501681
v 0.07357327 -0.00720166 -0.00107004
v 0.06959488 -0.01598517 -0.01538838
v 0.07045673 -0.00797714 -0.02146774
v 0.07055399 -0.01445537 -0.01870589
v 0.06856074 -0.01741396 -0.01604818
v 0.05718125 -0.02619628 -0.00014541
v 0.05891078 -0.02515104 -0.01892540
v 0.06546972 -0.02011300 -0.01919963
v 0.07250420 -0.01007280 -0.01883633
v 0.06752931 -0.01617886 -0.02026377
v 0.06140304 -0.02322151 -0.01932584
v 0.06538220 -0.01885991 -0.02013774
v 0.07434860 -0.00293140 -0.01349446
v 0.06978026 -0.00707784 -0.02237823
v 0.06566028 -0.02063292 -0.00952338
v 0.05893875 -0.02538952 -0.01832736
v 0.07219448 -0.01122824 -0.00044259
v 0.06550321 -0.02078101 -0.00011241
v 0.05592052 -0.02671746 -0.01647200
v 0.07449985 -0.00002861 -0.00141729
v 0.07142679 -0.01286951 -0.01841630
v 0.05857318 -0.02178771 -0.02202088
v 0.07413831 -0.00452306 -0.00265651
v 0.05857573 -0.02557337 -0.00044667
v 0.07447374 -0.00113922 -0.00894294
v 0.06555162 -0.02073541 -0.01842959
v 0.06092939 -0.02427554 -0.01860708
v 0.05000065 -0.02821114 -0.00812450
v 0.05454344 -0.02718798 -0.00959199
v 0.06250480 -0.02322806 -0.00004864
v 0.06339072 -0.01957255 -0.02101037
v 0.07054090 -0.00301424 -0.02245326
v 0.06383295 -0.02220845 -0.00032714
v 0.07360093 -0.00353827 -0.01937070
v 0.07040135 -0.00443341 -0.02238093
v 0.07099051 -0.00245006 -0.02208887
v 0.07052273 -0.01452093 -0.01765740
v 0.05002126 -0.02502891 -0.02184699
v 0.06439428 -0.02176661 -0.00688563
v 0.07434431 -0.00296753 -0.00370099
v 0.06594647 -0.01707012 -0.02094215
v 0.06800451 -0.01784991 -0.01886343
v 0.07395633 -0.00552164 -0.00276395
v 0.07329851 -0.00818765 -0.00426568
v 0.05941634 -0.02514426 -0.00663262
v 0.07204429 -0.01157118 -0.00085213
v 0.07025493 -0.01496433 -0.00645011
v 0.06284734 -0.02085533 -0.02037930
v 0.05249744 -0.02518238 -0.02119060
v 0.07339870 -0.00429395 -0.01945986
v 0.06691098 -0.01935737 -0.00119441
v 0.07058411 -0.01070257 -0.02038604
v 0.05755302 -0.02511399 -0.01955356
v 0.07413316 -0.00455718 -0.01196111
v 0.06092937 -0.02427633 -0.00888525
v 0.06752208 -0.01867988 -0.00312847
v 0.07278972 -0.00375853 -0.02013648
v 0.05064795 -0.02810839 -0.01864387
v 0.06882509 -0.01214321 -0.02133859
v 0.07252191 -0.00552108 -0.02010355
v 0.06959827 -0.00715421 -0.02250000
v 0.06312492 -0.02278016 -0.00207879
v 0.05920789 -0.02452790 -0.01933778
v 0.06480645 -0.01685872 -0.02193705
v 0.07028120 -0.00390562 -0.02250000
v 0.05218038 -0.02596382 -0.02050408
v 0.06965387 -0.01589617 -0.01016749
v 0.05747009 -0.02608156 -0.01847756
v 0.07449388 -0.00043429 -0.00409049
v 0.07443340 -0.00194077 -0.00302704
v 0.07449799 -0.00021925 -0.00244731
v 0.06434074 -0.02180750 -0.00259360
v 0.06915928 -0.01660720 -0.01337025
v 0.07001067 -0.01399939 -0.01940413
v 0.07426951 -0.00359701 -0.01851413
v 0.06048463 -0.02400359 -0.01916013
v 0.06610849 -0.01962161 -0.01908966
v 0.06604765 -0.01472621 -0.02231116
v 0.06397589 -0.02198884 -0.01878868
v 0.05694286 -0.02233061 -0.02233097
v 0.07276111 -0.00978090 -0.00128579
v 0.07348398 -0.00751855 -0.00066235
v 0.05951736 -0.02509022 -0.00379029
v 0.07315749 -0.00741509 -0.01904479
v 0.07126765 -0.00016659 -0.02192843
v 0.06902939 -0.01365688 -0.02042201
v 0.05866607 -0.02552964 -0.00143611
v 0.07422992 -0.00390120 -0.01351397
v 0.07304332 -0.00899365 -0.01801730
v 0.06580044 -0.02049635 -0.00097350
v 0.05967345 -0.02498513 -0.01871468
v 0.06948059 -0.01026103 -0.02156826
v 0.05937599 -0.02170568 -0.02170133
v 0.05792732 -0.02572806 -0.01883900
v 0.07275560 -0.00980837 -0.01798080
v 0.06049290 -0.01991119 -0.02250000
v 0.05734089 -0.02183934 -0.02250000
v 0.05298026 -0.02763039 -0.00054074
v 0.07446372 -0.00131117 -0.01855014
v 0.07158231 -0.00808775 -0.02036768
v 0.05524521 -0.02516031 -0.02039215
v 0.06862773 -0.01552550 -0.01975653
v 0.06722753 -0.01896884 -0.01872910
v 0.07435240 -0.00289226 -0.01804092
v 0.06287646 -0.01808234 -0.02246052
v 0.05948578 -0.02510711 -0.00182878
v 0.05276524 -0.02768507 -0.00462254
v 0.06802272 -0.01808824 -0.01698772
v 0.07430042 -0.00278867 -0.01876097
v 0.07025604 -0.01496262 -0.01323490
v 0.06743564 -0.01877500 -0.00038431
v 0.07187068 -0.00784255 -0.02016627
v 0.07449992 -0.00001529 -0.00273595
v 0.06727274 -0.01867292 -0.01889352
v 0.06917621 -0.01635759 -0.01883189
v 0.05342072 -0.02532127 -0.02080272
v 0.06393039 -0.02102805 -0.01955937
v 0.07029863 -0.01489260 -0.01817792
v 0.07356589 -0.00616285 -0.01894069
v 0.07328549 -0.00196967 -0.01983606
v 0.05013318 -0.02819638 -0.01785297
v 0.06997118 -0.00752122 -0.02207451
v 0.06934015 -0.01635374 -0.00456402
v 0.05241120 -0.02566636 -0.02074195
v 0.07040430 -0.01471500 -0.00096996
v 0.06985254 -0.00955997 -0.02149156
v 0.07436066 -0.00279221 -0.00146862
v 0.05598546 -0.02669303 -0.00705892
v 0.07337617 -0.00791268 -0.01860259
v 0.07367438 -0.00513414 -0.01904919
v 0.06735942 -0.01886602 -0.01853536
v 0.07425186 -0.00374340 -0.00292231
v 0.06978584 -0.01569021 -0.01816715
v 0.05934286 -0.02395226 -0.01977204
v 0.06925684 -0.01647290 -0.01645534
v 0.07201562 -0.01163701 -0.00891899
v 0.07328494 -0.00823164 -0.01398131
v 0.05978194 -0.00000817 -0.02250000
v 0.06875867 -0.01715024 -0.00302478
v 0.06891858 -0.01672940 -0.01882012
v 0.05461656 -0.02651230 -0.01931457
v 0.07443103 -0.00195476 -0.01740579
v 0.06549496 -0.02078878 -0.00236893
v 0.06563538 -0.01719899 -0.02109644
v 0.07198921 -0.01169464 -0.00518463
v 0.05449296 -0.02564600 -0.02017352
v 0.06742983 -0.01878734 -0.01732802
v 0.07356388 -0.00724365 -0.01592511
v 0.05379345 -0.02717705 -0.01891547
v 0.07161436 -0.01247768 -0.01826249
v 0.07161087 -0.00463865 -0.02116363
v 0.06091016 -0.02428592 -0.00308820
v 0.05281317 -0.02767248 -0.01477732
v 0.07023651 -0.01499283 -0.00433193
v 0.06957374 -0.01601595 -0.01546758
v 0.05957861 -0.02505678 -0.00025509
v 0.06568651 -0.02060754 -0.00080815
v 0.07435213 -0.00289533 -0.01795105
v 0.07442221 -0.00208929 -0.01458341
v 0.06242999 -0.02327937 -0.01703550
v 0.05616344 -0.02662467 -0.01695557
v 0.06810111 -0.01799388 -0.01000544
v 0.06212729 -0.01903317 -0.02222409
v 0.06459487 -0.02159170 -0.00229804
v 0.07202002 -0.01162729 -0.01817272
v 0.06342993 -0.01947253 -0.02105951
v 0.07354781 -0.00730196 -0.01695003
v 0.05612102 -0.02664234 -0.01638759
v 0.06120871 -0.01959968 -0.02237676
v 0.07435120 -0.00290659 -0.01355732
v 0.07449988 -0.00002421 -0.01327958
v 0.06898071 -0.01685073 -0.00172371
v 0.06446419 -0.02170872 -0.00483514
v 0.07092877 -0.00769619 -0.02110925
v 0.06152145 -0.02129534 -0.02084161
v 0.06942987 -0.01622463 -0.00102860
v 0.05461859 -0.02707852 -0.01877798
v 0.05488216 -0.02296368 -0.02250000
v 0.05622821 -0.02660084 -0.00388791
v 0.05446209 -0.02245699 -0.02250000
v 0.07446658 -0.00128329 -0.00037131
v 0.05000915 -0.01268604 -0.02250000
v 0.06157635 -0.02386643 -0.00977136
v 0.07370225 -0.00519953 -0.01901018
v 0.06543655 -0.01522203 -0.02248024
v 0.06811055 -0.01798091 -0.01558414
v 0.06276807 -0.02304437 -0.01431848
v 0.07377377 -0.00424258 -0.01909917
v 0.05024316 -0.02818231 -0.01756316
v 0.05580670 -0.02621926 -0.01920637
v 0.06673517 -0.01821874 -0.01959723
v 0.05923617 -0.02202892 -0.02149121
v 0.06398413 -0.02176432 -0.01895995
v 0.05035511 -0.02816484 -0.00253933
v 0.06951153 -0.01580471 -0.01886682
v 0.07317719 -0.00857691 -0.00048358
v 0.06566571 -0.02062772 -0.00993771
v 0.05615949 -0.02662672 -0.01568654
v 0.05266007 -0.02633068 -0.02003684
v 0.07397761 -0.00542140 -0.01829920
v 0.06518385 -0.01673789 -0.02173877
v 0.07330080 -0.00818018 -0.00989068
v 0.07182063 -0.01204680 -0.01683411
v 0.07165335 -0.00972239 -0.01975816
v 0.07449833 -0.00023081 -0.00708451
v 0.06918243 -0.01657521 -0.01690058
v 0.07329534 -0.00819800 -0.00039999
v 0.05287057 -0.02765897 -0.00218745
v 0.05315630 -0.02758248 -0.00012670
v 0.06845072 -0.01049859 -0.02238673
v 0.05304648 -0.02761288 -0.00190524
v 0.06695662 -0.01931124 -0.00170971
v 0.05227618 -0.02575409 -0.02068667
v 0.05710889 -0.02615536 -0.01877049
v 0.05860110 -0.02556229 -0.00509152
v 0.07014074 -0.00974424 -0.02115814
v 0.06564695 -0.02064564 -0.00877843
v 0.07284924 -0.00955522 -0.00368587
v 0.05554252 -0.02684714 -0.01812934
v 0.05208219 -0.02712459 -0.01939748
v 0.06888995 -0.00907705 -0.02250000
v 0.05929105 -0.02510942 -0.01878948
v 0.06792445 -0.01569838 -0.02023322
v 0.05100212 -0.02799440 -0.01874885
v 0.07321519 -0.00845141 -0.01863684
v 0.06838573 -0.01540221 -0.02002530
v 0.06510969 -0.02002178 -0.01951906
v 0.05471450 -0.02712829 -0.01774992
v 0.06157417 -0.02386631 -0.01829253
v 0.07138174 -0.00250248 -0.02169444
v 0.06566472 -0.02062869 -0.01866744
v 0.06807166 -0.01803011 -0.01217601
v 0.06524678 -0.02026667 -0.01924993
v 0.05044357 -0.02814859 -0.00073120
v 0.05616791 -0.02662436 -0.00338473
v 0.07067961 -0.01284743 -0.01937216
v 0.05926406 -0.02094697 -0.02239980
v 0.06443038 -0.02173799 -0.00900106
v 0.05909799 -0.02183501 -0.02172677
v 0.05310668 -0.02751948 -0.01876801
v 0.05043066 -0.02551645 -0.02129315
v 0.06957306 -0.01601671 -0.01799329
v 0.06693046 -0.01934257 -0.01777507
v 0.06372719 -0.01932949 -0.02096921
v 0.07327125 -0.00827667 -0.00555254
v 0.07448962 -0.00070556 -0.01362913
v 0.05936356 -0.02517048 -0.00191499
v 0.05087400 -0.02606081 -0.02067673
v 0.07211013 -0.01140514 -0.01870731
v 0.05083371 -0.02394981 -0.02250000
v 0.06895614 -0.01688056 -0.01766379
v 0.07361042 -0.00705211 -0.00107126
v 0.07277635 -0.00975538 -0.01696520
v 0.05283508 -0.02766786 -0.00595389
v 0.07328120 -0.00824255 -0.01735373
v 0.06820454 -0.01786398 -0.00039507
v 0.05437198 -0.02723977 -0.01731919
v 0.07324832 -0.00413115 -0.01963146
v 0.06078735 -0.02435629 -0.00214729
v 0.06181692 -0.02333852 -0.01899657
v 0.06756884 -0.01601552 -0.02033025
v 0.07119891 -0.00511125 -0.02148633
v 0.07076439 -0.00234043 -0.02232028
v 0.07168159 -0.01183834 -0.01891364
v 0.07315263 -0.00307379 -0.01987052
v 0.07423527 -0.00386360 -0.01185427
v 0.06498876 -0.02036882 -0.01935272
v 0.06860944 -0.01734870 -0.00048856
v 0.07311919 -0.00471870 -0.01966908
v 0.06161383 -0.02384103 -0.00017285
v 0.05848720 -0.02394392 -0.02019127
v 0.05017162 -0.01089724 -0.02250000
v 0.07141144 -0.01290340 -0.01341275
v 0.05466646 -0.02714443 -0.01716719
v 0.07212902 -0.01137665 -0.00036603
v 0.07385058 -0.00250122 -0.01923432
v 0.06896501 -0.00911296 -0.02247039
v 0.05240603 -0.02585032 -0.02056426
v 0.07057838 -0.01442601 -0.00496499
v 0.06562945 -0.02066225 -0.00295579
v 0.07373322 -0.00649663 -0.00039875
v 0.06054866 -0.02305843 -0.01993335
v 0.07416298 -0.00435105 -0.00000753
v 0.06270071 -0.02309370 -0.00148116
v 0.05593088 -0.02670969 -0.00011599
v 0.06623341 -0.01416870 -0.02248853
v 0.07443670 -0.00187531 -0.00488476
v 0.06087299 -0.02431114 -0.01695611
v 0.07357961 -0.00457782 -0.01924045
v 0.05582841 -0.02263856 -0.02248934
v 0.06757515 -0.01786580 -0.01918523
v 0.07062045 -0.01435293 -0.00803033
v 0.06746586 -0.01874704 -0.01820702
v 0.06150898 -0.02391013 -0.01656053
v 0.07304899 -0.00897654 -0.01641531
v 0.06775093 -0.01836704 -0.01872749
v 0.05206692 -0.02587386 -0.02061560
v 0.06934654 -0.01634469 -0.00125787
v 0.06548475 -0.02079869 -0.00777927
v 0.07449104 -0.00066458 -0.01845523
v 0.07366859 -0.00279669 -0.01938990
v 0.06602804 -0.02026117 -0.00004278
v 0.06845010 -0.01215292 -0.02166902
v 0.05208814 -0.02784075 -0.00061584
v 0.06935661 -0.01588597 -0.01895232
v 0.06085673 -0.02432117 -0.01799260
v 0.05455852 -0.02718317 -0.00004816
v 0.06674462 -0.01469843 -0.02177489
v 0.05963629 -0.02184170 -0.02145020
v 0.07449497 -0.00037501 -0.00328818
v 0.06883112 -0.01704931 -0.01786022
v 0.06144936 -0.01924091 -0.02249689
v 0.07023048 -0.01454111 -0.01893939
v 0.05192449 -0.02787573 -0.01756314
v 0.07306171 -0.00893783 -0.01860794
v 0.07196429 -0.00500711 -0.02075432
v 0.07027409 -0.01493321 -0.00599632
v 0.07282491 -0.00962260 -0.01709403
v 0.07058934 -0.00745825 -0.02150270
v 0.06953673 -0.01607013 -0.00566354
v 0.05169592 -0.02791760 -0.01842153
v 0.06093774 -0.02427053 -0.00465674
f 391 129 294
f 294 129 59
f 550 575 330
f 330 258 550
f 457 258 391
f 550 258 457
f 391 294 333
f 333 457 391
f 59 129 671
f 175 18 712
f 619 475 465
f 338 671 129
f 631 671 338
f 508 140 457
f 457 333 508
f 139 467 148
f 467 744 148
f 90 744 59
f 744 90 646
f 376 467 139
f 304 424 31
f 18 175 720
f 720 294 59
f 687 324 412
f 333 506 747
f 465 475 222
f 744 646 219
f 139 593 133
f 133 376 139
f 316 376 133
f 739 231 102
f 102 231 548
f 102 548 406
f 102 467 739
f 102 744 467
f 59 744 102
f 102 720 59
f 18 720 102
f 406 548 251
f 251 102 406
f 548 231 251
f 712 18 353
f 31 424 145
f 18 102 145
f 388 353 18
f 18 145 388
f 388 145 35
f 441 555 570
f 347 441 429
f 16 385 714
f 103 720 175
f 197 369 50
f 50 372 349
f 91 369 197
f 140 508 642
f 700 91 197
f 367 182 314
f 314 213 372
f 372 367 314
f 281 182 367
f 183 687 412
f 412 475 183
f 475 619 183
f 687 183 709
f 132 508 333
f 333 747 132
f 739 467 455
f 467 326 470
f 470 326 265
f 470 455 467
f 265 455 470
f 139 148 461
f 78 219 646
f 707 376 316
f 707 123 105
f 467 376 707
f 707 105 467
f 223 570 679
f 223 250 688
f 441 570 223
f 36 134 223
f 223 134 441
f 287 231 739
f 323 102 705
f 31 145 323
f 323 145 102
f 693 102 329
f 705 102 693
f 102 251 669
f 290 168 262
f 70 168 752
f 532 168 70
f 270 168 290
f 290 262 270
f 518 655 390
f 390 175 712
f 199 655 518
f 168 270 686
f 602 458 686
f 686 270 602
f 752 168 686
f 441 134 632
f 353 388 249
f 249 710 353
f 35 284 76
f 76 388 35
f 613 304 31
f 613 757 304
f 304 757 171
f 42 570 555
f 723 206 98
f 429 434 138
f 138 434 740
f 740 434 163
f 98 385 163
f 163 385 740
f 360 723 98
f 740 238 673
f 16 238 348
f 348 385 16
f 348 238 740
f 647 714 529
f 16 714 647
f 529 238 647
f 647 238 16
f 658 385 98
f 658 714 385
f 98 21 658
f 498 714 658
f 718 103 644
f 644 103 175
f 321 380 25
f 321 585 380
f 720 103 317
f 328 50 349
f 522 162 369
f 92 328 737
f 50 328 92
f 197 50 92
f 92 546 197
f 335 506 333
f 557 700 197
f 116 281 367
f 687 709 311
f 200 709 183
f 200 183 619
f 465 248 200
f 200 619 465
f 674 517 343
f 634 668 359
f 313 79 361
f 3 322 361
f 3 190 597
f 346 326 467
f 467 105 346
f 624 190 3
f 326 62 499
f 412 685 678
f 678 475 412
f 67 253 55
f 722 148 744
f 456 355 366
f 741 90 59
f 59 671 741
f 224 55 157
f 694 78 646
f 646 648 694
f 417 691 422
f 593 543 520
f 336 543 684
f 139 684 332
f 684 543 332
f 332 543 593
f 316 133 696
f 696 133 593
f 30 114 453
f 453 114 157
f 139 461 524
f 524 684 139
f 524 336 684
f 123 707 256
f 256 620 123
f 316 759 256
f 256 707 316
f 105 123 433
f 123 620 433
f 190 105 433
f 433 597 190
f 510 323 609
f 36 223 748
f 748 223 688
f 231 287 488
f 488 287 739
f 442 431 705
f 705 693 442
f 36 748 442
f 442 329 36
f 442 693 329
f 239 436 382
f 329 102 599
f 102 669 599
f 36 329 599
f 623 545 36
f 623 599 669
f 36 599 623
f 454 199 518
f 454 390 712
f 518 390 454
f 279 70 752
f 712 353 483
f 483 454 712
f 582 34 353
f 582 483 34
f 587 710 458
f 587 458 602
f 353 710 587
f 386 686 458
f 441 673 386
f 386 673 238
f 386 76 284
f 320 662 752
f 752 686 320
f 542 420 319
f 420 501 319
f 441 632 209
f 562 325 145
f 35 145 716
f 716 474 35
f 145 325 716
f 325 474 716
f 439 592 679
f 757 592 439
f 439 171 757
f 424 304 52
f 577 660 552
f 552 134 577
f 413 138 740
f 152 434 429
f 429 441 152
f 98 163 96
f 96 360 98
f 98 206 274
f 274 21 98
f 740 385 496
f 496 348 740
f 385 348 496
f 187 227 160
f 156 714 498
f 519 438 718
f 718 644 519
f 519 644 438
f 380 585 82
f 585 321 181
f 718 438 689
f 438 321 689
f 737 328 215
f 349 372 608
f 372 213 608
f 608 213 575
f 608 575 550
f 369 91 351
f 351 522 369
f 367 522 351
f 351 116 367
f 91 700 351
f 700 116 351
f 162 522 29
f 372 50 29
f 29 367 372
f 29 522 367
f 135 92 737
f 618 92 437
f 387 437 92
f 726 24 621
f 47 498 502
f 281 116 502
f 435 248 129
f 435 200 248
f 435 129 391
f 63 734 324
f 583 155 578
f 415 155 583
f 65 668 313
f 527 297 436
f 436 239 527
f 527 488 739
f 649 488 527
f 455 315 717
f 93 610 313
f 313 668 93
f 265 610 236
f 610 93 236
f 3 597 310
f 310 433 620
f 597 433 310
f 310 322 3
f 721 346 105
f 721 62 326
f 326 346 721
f 237 624 3
f 674 606 374
f 606 159 374
f 120 159 606
f 631 112 626
f 626 112 410
f 535 646 90
f 366 253 605
f 490 531 74
f 173 490 517
f 173 531 490
f 148 722 443
f 443 722 344
f 212 722 744
f 393 114 30
f 505 224 381
f 55 224 505
f 207 282 627
f 90 741 243
f 671 354 243
f 243 741 671
f 422 419 243
f 157 114 318
f 318 224 157
f 114 393 318
f 318 393 224
f 89 656 6
f 219 78 6
f 78 466 6
f 665 89 6
f 6 466 665
f 355 219 6
f 6 656 355
f 711 694 665
f 78 694 711
f 665 466 711
f 711 466 78
f 593 520 264
f 264 402 593
f 54 402 264
f 398 593 139
f 139 332 398
f 398 332 593
f 193 696 593
f 316 696 193
f 54 425 150
f 150 402 54
f 157 659 75
f 75 528 402
f 30 524 652
f 652 393 30
f 30 453 146
f 146 524 30
f 146 75 402
f 146 453 157
f 157 75 146
f 482 524 64
f 336 524 482
f 111 210 517
f 517 196 111
f 659 45 111
f 517 210 356
f 356 210 157
f 157 531 356
f 688 250 643
f 31 323 735
f 11 323 705
f 609 323 11
f 431 442 220
f 220 442 748
f 568 239 382
f 584 239 568
f 649 239 8
f 8 488 649
f 231 488 8
f 8 239 584
f 8 251 231
f 8 493 251
f 251 493 7
f 545 623 414
f 414 623 669
f 251 545 414
f 414 669 251
f 532 454 81
f 81 168 532
f 81 262 168
f 81 270 262
f 81 483 270
f 454 483 81
f 690 454 532
f 532 755 690
f 752 110 526
f 526 279 752
f 526 390 655
f 655 279 526
f 368 279 655
f 70 279 368
f 368 690 755
f 655 199 368
f 199 454 368
f 454 690 368
f 175 110 202
f 246 110 752
f 353 34 428
f 428 483 353
f 34 483 428
f 353 283 423
f 423 582 353
f 423 283 602
f 602 582 423
f 483 582 77
f 270 483 77
f 602 283 640
f 640 587 602
f 640 283 353
f 353 587 640
f 441 386 106
f 106 555 441
f 106 474 555
f 106 386 284
f 284 729 106
f 35 474 106
f 400 386 238
f 400 238 529
f 127 249 388
f 710 249 127
f 388 76 127
f 76 386 127
f 458 710 127
f 127 386 458
f 529 714 15
f 446 320 686
f 664 670 542
f 441 209 307
f 307 209 360
f 723 360 399
f 360 209 399
f 206 723 399
f 742 632 134
f 552 660 403
f 306 145 424
f 424 562 306
f 306 562 145
f 679 570 20
f 286 52 304
f 286 439 504
f 591 484 325
f 591 562 424
f 325 562 591
f 424 52 591
f 52 484 591
f 547 52 42
f 547 484 52
f 547 42 555
f 749 233 542
f 749 606 674
f 138 413 511
f 511 347 429
f 429 138 511
f 434 152 126
f 126 163 434
f 662 566 252
f 380 49 205
f 512 49 17
f 17 24 546
f 17 49 24
f 546 92 17
f 259 49 113
f 113 49 512
f 720 317 118
f 451 156 498
f 451 498 47
f 97 227 559
f 97 451 227
f 156 451 97
f 84 82 604
f 604 82 585
f 585 181 604
f 141 321 438
f 141 181 321
f 144 103 718
f 718 689 144
f 144 689 480
f 144 317 103
f 334 194 370
f 321 334 370
f 5 194 334
f 5 321 25
f 5 334 321
f 720 118 569
f 72 328 349
f 349 608 72
f 421 335 333
f 683 335 421
f 421 135 683
f 92 135 421
f 421 387 92
f 713 158 557
f 197 546 713
f 713 557 197
f 700 557 473
f 557 158 473
f 66 738 702
f 469 116 700
f 700 473 469
f 469 473 378
f 469 502 116
f 469 472 47
f 47 502 469
f 24 726 625
f 517 727 534
f 534 343 517
f 534 727 167
f 324 687 365
f 365 415 324
f 365 263 617
f 311 263 365
f 687 311 365
f 88 63 324
f 553 63 88
f 37 100 415
f 415 727 37
f 538 155 415
f 382 436 680
f 680 297 382
f 436 297 680
f 668 297 342
f 297 527 342
f 342 359 668
f 342 527 359
f 303 527 239
f 455 717 594
f 359 527 594
f 739 455 594
f 594 527 739
f 736 315 455
f 736 236 93
f 79 352 58
f 208 79 313
f 313 58 208
f 208 58 352
f 208 352 79
f 265 326 80
f 80 361 79
f 3 361 80
f 509 610 265
f 509 476 610
f 265 80 509
f 509 80 476
f 190 624 392
f 392 105 190
f 392 721 105
f 624 237 392
f 3 80 73
f 44 499 62
f 44 73 499
f 697 528 513
f 513 285 697
f 203 196 517
f 203 517 674
f 191 322 697
f 191 169 322
f 191 697 674
f 192 120 606
f 159 120 240
f 322 169 240
f 371 354 671
f 371 48 354
f 495 758 631
f 631 626 495
f 465 222 298
f 373 678 685
f 95 648 646
f 646 535 95
f 418 535 90
f 253 67 635
f 67 605 635
f 224 61 409
f 107 443 409
f 409 443 344
f 148 443 389
f 389 443 107
f 389 461 148
f 357 219 355
f 355 212 357
f 744 219 357
f 357 212 744
f 344 722 339
f 722 212 339
f 355 456 266
f 266 565 355
f 164 393 107
f 107 409 164
f 224 393 164
f 164 409 61
f 164 61 224
f 172 656 89
f 355 656 172
f 55 253 172
f 366 355 172
f 172 253 366
f 172 207 627
f 157 55 172
f 272 172 89
f 207 172 272
f 272 33 758
f 354 48 278
f 278 243 354
f 422 243 278
f 278 33 422
f 48 33 278
f 589 759 316
f 316 193 589
f 593 759 589
f 589 193 593
f 273 150 425
f 196 75 708
f 500 75 196
f 277 524 461
f 277 652 524
f 461 393 277
f 393 652 277
f 64 524 147
f 524 146 147
f 147 146 402
f 402 150 147
f 147 273 64
f 150 273 147
f 444 659 157
f 444 45 659
f 122 173 517
f 517 356 122
f 292 27 666
f 292 310 620
f 666 310 292
f 620 256 731
f 256 27 731
f 731 292 620
f 27 292 731
f 510 643 426
f 31 735 560
f 705 431 119
f 584 568 730
f 730 7 493
f 251 7 730
f 730 8 584
f 493 8 730
f 341 730 568
f 36 545 341
f 251 730 341
f 341 545 251
f 732 110 175
f 732 526 110
f 175 390 732
f 390 526 732
f 70 368 275
f 275 368 755
f 532 70 275
f 275 755 532
f 175 202 633
f 633 644 175
f 633 340 644
f 377 246 752
f 602 270 573
f 270 77 573
f 573 582 602
f 573 77 582
f 35 106 1
f 1 106 729
f 686 386 701
f 386 400 701
f 701 331 686
f 701 400 529
f 529 331 701
f 529 15 489
f 160 211 521
f 521 187 160
f 750 152 441
f 441 307 750
f 632 742 539
f 539 209 632
f 745 399 539
f 299 439 679
f 679 20 299
f 504 439 299
f 299 20 504
f 40 286 504
f 52 286 40
f 504 20 40
f 40 20 570
f 570 42 40
f 42 52 40
f 325 484 754
f 484 547 754
f 754 547 555
f 555 474 754
f 754 474 325
f 622 68 206
f 622 420 542
f 622 233 68
f 542 233 622
f 577 293 186
f 382 540 733
f 733 568 382
f 36 341 733
f 733 341 568
f 733 134 36
f 733 577 134
f 85 540 382
f 382 297 85
f 85 297 668
f 233 749 337
f 360 96 523
f 523 307 360
f 523 96 163
f 163 126 523
f 497 217 621
f 621 556 497
f 692 252 363
f 662 252 692
f 491 205 49
f 317 144 491
f 491 144 205
f 280 49 259
f 408 682 340
f 644 340 104
f 340 682 104
f 60 639 84
f 60 604 181
f 84 604 60
f 181 141 60
f 438 644 60
f 60 141 438
f 9 252 566
f 566 639 9
f 9 639 363
f 363 252 9
f 46 639 566
f 46 566 380
f 380 82 46
f 84 639 46
f 46 82 84
f 301 144 480
f 480 689 301
f 301 689 321
f 194 5 637
f 637 5 25
f 25 380 637
f 380 205 637
f 564 507 174
f 174 295 564
f 174 618 294
f 294 720 174
f 327 507 564
f 19 569 427
f 259 113 427
f 427 703 259
f 427 113 512
f 512 17 427
f 432 19 427
f 427 17 432
f 720 569 26
f 26 569 19
f 477 19 309
f 477 295 19
f 564 295 477
f 395 124 140
f 140 642 395
f 328 124 395
f 395 215 328
f 667 738 66
f 66 473 667
f 378 625 494
f 726 430 588
f 430 14 588
f 167 727 615
f 615 727 415
f 415 365 615
f 615 365 617
f 324 415 394
f 394 88 324
f 734 63 503
f 63 650 503
f 503 255 734
f 503 657 255
f 28 239 649
f 28 303 239
f 649 527 28
f 527 303 28
f 230 594 717
f 455 236 580
f 580 736 455
f 236 736 580
f 12 736 93
f 79 58 308
f 308 80 79
f 476 80 308
f 308 58 313
f 269 455 265
f 265 86 269
f 269 86 455
f 601 236 455
f 455 86 601
f 265 236 601
f 601 86 265
f 666 27 464
f 464 310 666
f 402 528 464
f 322 310 464
f 697 322 464
f 464 528 697
f 492 256 759
f 492 27 256
f 492 464 27
f 179 392 237
f 73 44 179
f 179 237 3
f 3 73 179
f 721 392 180
f 392 179 180
f 180 179 44
f 285 513 4
f 697 285 448
f 285 719 448
f 674 697 448
f 459 203 674
f 169 191 2
f 2 191 674
f 159 240 232
f 232 240 169
f 169 2 232
f 758 33 407
f 407 33 48
f 153 495 626
f 358 626 410
f 358 153 626
f 255 373 178
f 645 418 691
f 535 418 645
f 137 243 419
f 137 419 422
f 422 691 544
f 691 418 544
f 598 605 253
f 253 635 598
f 598 635 605
f 415 100 216
f 51 409 344
f 616 505 381
f 381 224 616
f 224 409 616
f 55 505 616
f 616 67 55
f 616 605 67
f 345 605 616
f 616 409 345
f 107 393 43
f 43 389 107
f 43 393 461
f 461 389 43
f 344 339 383
f 383 339 565
f 117 212 355
f 355 565 117
f 651 74 531
f 651 531 157
f 157 172 651
f 422 33 10
f 10 272 422
f 33 272 10
f 422 272 590
f 590 272 648
f 648 417 590
f 590 417 422
f 136 694 648
f 648 272 136
f 665 694 136
f 136 89 665
f 136 272 89
f 495 153 312
f 758 495 312
f 312 272 758
f 255 657 312
f 659 111 165
f 165 111 196
f 196 708 165
f 572 643 250
f 572 426 643
f 735 426 572
f 572 560 735
f 323 510 94
f 510 426 94
f 576 11 705
f 705 119 576
f 246 377 166
f 166 244 246
f 202 244 166
f 166 633 202
f 257 331 529
f 529 489 257
f 405 489 15
f 379 184 211
f 379 211 160
f 379 160 662
f 662 320 379
f 227 187 756
f 559 227 756
f 211 184 537
f 537 184 559
f 229 521 211
f 489 405 176
f 686 489 176
f 320 446 271
f 449 38 542
f 260 664 542
f 542 38 260
f 663 399 209
f 209 539 663
f 663 539 399
f 745 403 130
f 130 403 660
f 241 501 420
f 241 350 501
f 241 628 350
f 581 628 241
f 479 293 577
f 577 733 479
f 668 65 125
f 125 85 668
f 125 65 670
f 350 85 218
f 501 350 218
f 218 85 38
f 38 449 218
f 551 733 540
f 551 289 733
f 581 289 551
f 551 628 581
f 533 337 749
f 674 343 533
f 533 749 674
f 460 118 317
f 317 491 460
f 460 491 49
f 49 280 460
f 259 703 525
f 525 280 259
f 525 460 280
f 703 118 525
f 118 460 525
f 404 408 340
f 481 60 644
f 639 60 481
f 144 301 39
f 194 637 39
f 205 144 39
f 39 637 205
f 185 370 194
f 194 39 185
f 185 39 301
f 321 370 185
f 185 301 321
f 564 477 607
f 607 477 309
f 154 397 579
f 397 170 579
f 296 541 432
f 536 170 296
f 296 92 536
f 296 17 92
f 432 17 296
f 618 174 261
f 261 174 507
f 261 87 618
f 564 397 596
f 596 327 564
f 596 397 154
f 154 327 596
f 462 92 618
f 703 427 204
f 204 427 569
f 204 118 703
f 204 569 118
f 19 295 234
f 234 26 19
f 720 26 234
f 234 174 720
f 295 174 234
f 56 473 66
f 378 473 56
f 56 471 378
f 143 471 24
f 378 471 143
f 128 702 738
f 128 738 546
f 546 24 128
f 24 471 128
f 695 494 625
f 621 217 699
f 699 14 621
f 753 14 430
f 567 726 621
f 567 121 726
f 706 430 726
f 726 121 706
f 472 588 189
f 189 588 14
f 47 472 189
f 189 384 160
f 305 63 553
f 267 749 542
f 594 230 288
f 452 230 654
f 452 654 668
f 452 668 634
f 452 288 230
f 463 93 668
f 463 12 93
f 610 476 675
f 476 308 675
f 313 610 675
f 675 308 313
f 743 492 759
f 402 464 743
f 743 759 593
f 593 402 743
f 242 44 62
f 242 180 44
f 62 721 242
f 721 180 242
f 746 4 674
f 674 448 746
f 746 448 719
f 530 4 513
f 674 4 530
f 516 57 201
f 313 361 201
f 201 361 322
f 612 374 159
f 159 232 612
f 612 232 2
f 674 374 612
f 612 2 674
f 268 192 606
f 758 407 751
f 751 407 48
f 631 758 751
f 48 371 751
f 751 671 631
f 751 371 671
f 661 153 222
f 255 312 661
f 661 312 153
f 661 373 255
f 558 298 222
f 222 153 558
f 153 358 558
f 396 373 685
f 396 178 373
f 418 137 221
f 221 137 422
f 90 243 195
f 243 137 195
f 195 418 90
f 195 137 418
f 100 74 300
f 300 216 100
f 74 651 300
f 415 216 364
f 364 538 415
f 364 216 172
f 282 538 364
f 627 282 364
f 344 605 672
f 672 51 344
f 672 605 345
f 13 339 212
f 212 117 13
f 565 339 13
f 13 117 565
f 207 272 677
f 272 312 677
f 71 312 657
f 715 312 71
f 75 500 108
f 108 571 75
f 653 405 15
f 549 756 291
f 611 537 559
f 559 756 611
f 611 756 549
f 115 229 549
f 521 229 115
f 549 291 115
f 686 176 375
f 375 446 686
f 563 653 15
f 320 271 149
f 149 271 99
f 99 271 440
f 559 99 440
f 440 97 559
f 515 622 206
f 293 479 276
f 638 241 420
f 728 479 733
f 670 664 445
f 445 125 670
f 85 125 53
f 160 384 235
f 24 49 235
f 621 24 235
f 235 556 621
f 235 49 380
f 380 566 235
f 662 160 235
f 235 566 662
f 574 404 340
f 363 404 574
f 574 692 363
f 450 607 309
f 309 19 450
f 450 19 432
f 83 296 170
f 607 296 83
f 564 607 83
f 226 327 154
f 507 327 226
f 618 87 411
f 411 462 618
f 151 469 378
f 378 188 151
f 378 494 198
f 198 188 378
f 487 625 726
f 487 695 625
f 621 14 109
f 14 753 109
f 384 189 69
f 69 189 14
f 101 305 553
f 131 177 542
f 542 670 131
f 670 704 131
f 542 177 600
f 600 267 542
f 464 492 725
f 725 743 464
f 492 743 725
f 528 75 629
f 630 57 516
f 630 416 57
f 401 57 554
f 57 416 554
f 225 172 627
f 627 364 225
f 225 364 172
f 614 677 586
f 207 677 614
f 586 305 614
f 614 101 362
f 305 101 614
f 614 362 583
f 614 583 578
f 561 636 312
f 561 312 715
f 561 650 63
f 641 563 271
f 641 271 446
f 653 563 641
f 206 399 247
f 247 515 206
f 247 399 745
f 745 130 247
f 161 276 479
f 479 728 23
f 38 85 514
f 85 53 514
f 607 450 595
f 541 296 595
f 595 296 607
f 432 541 595
f 595 450 432
f 22 397 564
f 564 83 22
f 22 170 397
f 22 83 170
f 724 261 507
f 507 226 724
f 177 131 468
f 704 302 214
f 214 302 65
f 214 65 313
f 313 201 214
f 214 201 57
f 530 629 676
f 75 571 676
f 676 629 75
f 676 459 674
f 674 530 676
f 245 485 416
f 268 485 245
f 192 268 245
f 486 561 63
f 636 561 486
f 130 698 447
f 447 247 130
f 447 698 186
f 447 186 293
f 276 161 41
f 254 728 478
f 254 23 728
f 478 638 254
f 254 638 420
f 420 161 254
f 401 468 603
f 603 468 131
f 603 57 401
f 681 131 704
f 704 214 32
f 32 681 704
f 416 630 228
f 228 245 416
f 142 161 420
f 142 41 161
f 369 162 29
f 29 50 369
f 171 439 286
f 304 171 286
f 740 673 511
f 511 673 441
f 441 347 511
f 511 413 740
f 457 140 72
f 550 457 72
f 72 608 550
f 140 124 72
f 72 124 328
f 421 333 294
f 437 387 421
f 618 437 421
f 294 618 421
f 517 490 37
f 490 74 37
f 37 727 517
f 37 74 100
f 73 80 326
f 326 499 73
f 273 425 54
f 543 336 273
f 273 520 543
f 54 264 273
f 273 482 64
f 273 264 520
f 336 482 273
f 210 111 444
f 157 210 444
f 444 111 45
f 122 356 531
f 531 173 122
f 110 246 244
f 244 202 110
f 1 729 284
f 1 284 35
f 552 403 539
f 539 742 134
f 539 134 552
f 539 403 745
f 152 750 523
f 523 126 152
f 523 750 307
f 395 747 506
f 395 642 508
f 508 132 395
f 506 335 395
f 737 215 395
f 395 132 747
f 395 335 683
f 395 135 737
f 683 135 395
f 667 713 546
f 546 738 667
f 158 713 667
f 667 473 158
f 691 417 645
f 645 417 648
f 648 95 645
f 645 95 535
f 383 605 344
f 383 456 366
f 366 605 383
f 383 266 456
f 565 266 383
f 165 708 75
f 165 75 659
f 572 223 679
f 679 592 572
f 572 613 31
f 250 223 572
f 757 613 572
f 572 592 757
f 31 560 572
f 94 426 735
f 94 735 323
f 688 643 576
f 576 510 609
f 576 748 688
f 431 220 576
f 609 11 576
f 576 643 510
f 576 220 748
f 576 119 431
f 257 489 686
f 686 331 257
f 218 319 501
f 542 319 218
f 218 449 542
f 540 85 551
f 551 85 350
f 350 628 551
f 575 213 533
f 533 330 575
f 391 258 533
f 258 330 533
f 167 615 533
f 709 200 533
f 533 274 206
f 182 281 533
f 533 263 311
f 213 314 533
f 68 233 533
f 533 314 182
f 498 658 533
f 617 263 533
f 281 502 533
f 533 534 167
f 206 68 533
f 533 658 21
f 533 502 498
f 533 435 391
f 533 311 709
f 21 274 533
f 533 615 617
f 200 435 533
f 343 534 533
f 233 337 533
f 644 104 481
f 363 639 481
f 481 404 363
f 682 408 481
f 481 104 682
f 408 404 481
f 143 625 378
f 24 625 143
f 128 56 66
f 66 702 128
f 471 56 128
f 160 227 189
f 189 451 47
f 227 451 189
f 359 594 452
f 634 359 452
f 594 288 452
f 668 654 463
f 463 717 315
f 463 230 717
f 315 736 463
f 654 230 463
f 736 12 463
f 285 4 746
f 746 719 285
f 661 222 475
f 678 373 661
f 475 678 661
f 129 248 558
f 558 248 465
f 465 298 558
f 558 338 129
f 631 338 558
f 558 112 631
f 558 358 410
f 410 112 558
f 324 734 396
f 396 685 412
f 412 324 396
f 734 255 396
f 255 178 396
f 422 544 221
f 221 544 418
f 172 216 300
f 300 651 172
f 409 51 672
f 345 409 672
f 611 229 211
f 211 537 611
f 549 229 611
f 187 521 115
f 115 291 756
f 115 756 187
f 149 99 559
f 559 184 149
f 149 379 320
f 184 379 149
f 440 15 714
f 714 156 440
f 156 97 440
f 440 563 15
f 271 563 440
f 577 186 698
f 660 577 698
f 698 130 660
f 728 638 478
f 581 241 728
f 728 289 581
f 733 289 728
f 241 638 728
f 633 166 574
f 752 662 574
f 574 377 752
f 574 166 377
f 340 633 574
f 662 692 574
f 472 469 487
f 487 198 494
f 487 588 472
f 726 588 487
f 469 151 487
f 494 695 487
f 487 151 188
f 188 198 487
f 109 567 621
f 430 706 109
f 109 753 430
f 121 567 109
f 109 706 121
f 69 699 217
f 217 497 69
f 69 497 556
f 556 235 69
f 14 699 69
f 69 235 384
f 415 583 101
f 553 88 101
f 101 394 415
f 583 362 101
f 88 394 101
f 302 704 670
f 670 65 302
f 629 530 513
f 629 513 528
f 578 155 614
f 155 538 614
f 614 538 282
f 282 207 614
f 561 503 650
f 657 503 561
f 561 71 657
f 715 71 561
f 641 176 405
f 446 375 641
f 641 375 176
f 405 653 641
f 514 260 38
f 664 260 514
f 514 445 664
f 125 445 514
f 514 53 125
f 154 579 724
f 724 170 536
f 536 92 724
f 92 462 724
f 724 579 170
f 87 261 724
f 724 226 154
f 724 411 87
f 462 411 724
f 468 600 177
f 606 749 468
f 416 485 468
f 749 267 468
f 401 554 468
f 468 268 606
f 267 600 468
f 468 554 416
f 468 485 268
f 196 203 676
f 676 500 196
f 203 459 676
f 676 108 500
f 571 108 676
f 63 305 486
f 586 677 486
f 486 305 586
f 486 677 312
f 312 636 486
f 254 161 479
f 479 23 254
f 32 214 57
f 57 603 32
f 32 603 131
f 131 681 32
f 322 240 228
f 228 630 516
f 228 201 322
f 120 192 228
f 228 240 120
f 516 201 228
f 192 245 228
f 420 622 142
f 142 447 293
f 622 515 142
f 293 276 142
f 515 247 142
f 247 447 142
f 276 41 142

