# https://github.com/mikedh/trimesh
v 0.07495853 -0.00217877 -0.02851220
v 0.05034628 -0.02336213 -0.02852898
v 0.05075813 -0.01188756 -0.03539880
v 0.07268940 -0.00273442 -0.02851220
v 0.07275295 -0.02383614 -0.02851219
v 0.05075654 -0.01609583 -0.02851219
v 0.07390636 -0.02494460 -0.03539769
v 0.07008016 -0.00407222 -0.03539792
v 0.05039133 -0.01471980 -0.02851219
v 0.07276065 -0.02310232 -0.02851219
v 0.07436184 -0.00096268 -0.03539772
v 0.05019286 -0.02158629 -0.03539880
v 0.05041343 -0.00112512 -0.03539884
v 0.07308229 -0.00494050 -0.02851220
v 0.05002721 -0.00516403 -0.02852894
v 0.07294984 -0.00692233 -0.02851220
v 0.07460295 -0.00131664 -0.03539771
v 0.07280200 -0.01817036 -0.02851219
v 0.07276658 -0.00028745 -0.03539780
v 0.07051461 -0.00021866 -0.03539791
v 0.05105842 -0.00712403 -0.03539880
v 0.07233324 -0.00045945 -0.02851220
v 0.05331386 -0.00002504 -0.03539871
v 0.07062288 -0.00010636 -0.02851220
v 0.06960565 -0.01677396 -0.03539791
v 0.07363373 -0.00052882 -0.03539776
v 0.07256506 -0.02493420 -0.02851219
v 0.05028208 -0.01269205 -0.02851219
v 0.05023223 -0.02391898 -0.03539879
v 0.07498743 -0.02339659 -0.02852792
v 0.05475644 -0.02491176 -0.02851219
v 0.05051314 -0.02471839 -0.02851219
v 0.05101053 -0.00507614 -0.03539881
v 0.05019487 -0.00450450 -0.03539884
v 0.07495667 -0.00189329 -0.02852791
v 0.07262500 -0.00087681 -0.02851220
v 0.05066148 -0.01801358 -0.02851219
v 0.05012287 -0.00141859 -0.02851219
v 0.05003094 -0.00233855 -0.02852899
v 0.07497255 -0.00583077 -0.02851220
v 0.05016438 -0.01718299 -0.02852899
v 0.06841243 -0.00001595 -0.02851220
v 0.06085677 -0.00006281 -0.02851220
v 0.05114430 -0.00069496 -0.02852885
v 0.07293970 -0.02381550 -0.02851219
v 0.07041452 -0.00083329 -0.03539792
v 0.07495374 -0.00506527 -0.03539769
v 0.07314132 -0.02427921 -0.02851219
v 0.07365025 -0.00008107 -0.02852797
v 0.05027343 -0.02030688 -0.03539880
v 0.06913442 -0.02496865 -0.03539791
v 0.05207456 -0.00016340 -0.02851219
v 0.07019616 -0.00057948 -0.03539793
v 0.07496859 -0.00963679 -0.02851220
v 0.05162519 -0.00080241 -0.03539879
v 0.06438240 -0.02495103 -0.02851219
v 0.05133754 -0.02498481 -0.02852890
v 0.07423424 -0.00172136 -0.02851220
v 0.05466063 -0.02479673 -0.03539858
v 0.05866950 -0.02472332 -0.03539840
v 0.07476939 -0.00018508 -0.02852792
v 0.07492985 -0.02498793 -0.02851219
v 0.07479059 -0.02222233 -0.03539765
v 0.07495567 -0.01723160 -0.03539766
v 0.05286074 -0.00020773 -0.03539873
v 0.07496488 -0.01125475 -0.02851220
f 62 63 30
f 39 34 15
f 38 39 15
f 15 41 38
f 44 38 52
f 34 39 13
f 39 38 13
f 13 38 44
f 44 52 13
f 13 52 23
f 20 23 42
f 32 41 2
f 2 29 32
f 41 29 2
f 30 40 54
f 17 61 35
f 1 35 61
f 42 23 43
f 43 52 42
f 23 52 43
f 49 20 42
f 19 49 61
f 20 49 19
f 30 63 64
f 32 29 57
f 29 59 57
f 57 31 32
f 63 62 7
f 66 62 30
f 30 54 66
f 22 1 61
f 22 52 38
f 28 27 38
f 28 41 32
f 28 38 41
f 32 27 37
f 37 27 6
f 20 19 26
f 26 19 61
f 46 64 63
f 63 25 46
f 17 35 47
f 47 20 17
f 35 1 47
f 47 46 20
f 64 46 47
f 47 1 40
f 47 40 30
f 30 64 47
f 23 20 65
f 20 55 65
f 65 13 23
f 65 55 13
f 62 27 56
f 56 57 62
f 31 57 56
f 56 27 32
f 32 31 56
f 60 59 29
f 29 25 51
f 51 60 29
f 51 25 63
f 63 7 51
f 59 60 51
f 51 57 59
f 62 57 51
f 51 7 62
f 24 22 61
f 24 49 42
f 61 49 24
f 42 52 24
f 52 22 24
f 6 27 9
f 27 28 9
f 9 37 6
f 9 28 32
f 32 37 9
f 48 27 62
f 48 45 27
f 38 27 5
f 27 45 5
f 17 20 11
f 20 26 11
f 11 61 17
f 11 26 61
f 8 25 29
f 8 46 25
f 15 34 12
f 12 41 15
f 12 29 41
f 36 22 38
f 53 8 29
f 46 8 53
f 29 3 53
f 53 55 20
f 20 46 53
f 50 3 29
f 29 12 50
f 58 36 14
f 1 22 58
f 22 36 58
f 45 16 18
f 18 16 38
f 4 16 14
f 14 36 4
f 4 36 38
f 38 16 4
f 21 53 3
f 10 5 45
f 45 18 10
f 38 5 10
f 10 18 38
f 33 21 3
f 13 55 33
f 55 53 33
f 53 21 33
f 3 50 33
f 40 1 58
f 62 66 58
f 58 66 54
f 58 54 40
f 58 48 62
f 45 48 58
f 58 16 45
f 14 16 58
f 34 13 33
f 33 12 34
f 33 50 12

