# https://github.com/mikedh/trimesh
v 0.08701928 0.02487071 0.05185099
v 0.07824243 0.00960324 0.05007300
v 0.08444579 0.02344542 0.05001594
v 0.07982726 0.02446009 0.06152205
v 0.09054399 0.02181418 0.06006899
v 0.08883297 0.02444224 0.05288213
v 0.07893456 0.02254472 0.06187712
v 0.07613348 0.02104318 0.06072953
v 0.07899589 0.00884248 0.05115136
v 0.07586541 0.01987528 0.06105611
v 0.08981295 0.02091130 0.05380820
v 0.09005850 0.02475091 0.06204760
v 0.08863832 0.02223094 0.05222185
v 0.08958318 0.02246373 0.05314728
v 0.08348624 0.01647558 0.05006888
v 0.07851710 0.00707807 0.05493706
v 0.07973263 0.00774916 0.05569714
v 0.09171441 0.02413042 0.05656393
v 0.09028172 0.01980416 0.05590486
v 0.09178026 0.02335147 0.05962665
v 0.09136129 0.02474414 0.06039167
v 0.07507288 0.01939862 0.06070323
v 0.09192908 0.02458750 0.05775947
v 0.07917221 0.00757157 0.05585706
v 0.07809641 0.02058222 0.06207743
v 0.09179370 0.02472291 0.05746392
v 0.09199529 0.02250350 0.05831577
v 0.07523060 0.01475641 0.06194795
v 0.08230515 0.02178939 0.06324087
v 0.07978424 0.02311997 0.06212260
v 0.09189014 0.02221095 0.05805229
v 0.07785445 0.02439844 0.06006811
v 0.09026967 0.02214017 0.05399912
v 0.07716658 0.02467856 0.05915196
v 0.08534971 0.01599152 0.05194137
v 0.08697562 0.02485099 0.05181238
v 0.08409325 0.01571833 0.05095103
v 0.08086812 0.02486602 0.05089811
v 0.08802017 0.02353996 0.05190547
v 0.08617700 0.02303705 0.06334842
v 0.08976377 0.02114052 0.05363664
v 0.08313360 0.01408003 0.05118036
v 0.07936826 0.00747728 0.05507431
v 0.07799109 0.00917220 0.05943651
v 0.08875082 0.02132853 0.05242059
v 0.07566158 0.02261239 0.05057516
v 0.08659282 0.02010262 0.05090459
v 0.08312302 0.01383698 0.05134204
v 0.08867639 0.02271845 0.05227080
v 0.09185414 0.02263376 0.05687394
v 0.08388723 0.01595917 0.05062250
v 0.07907004 0.02010774 0.06255889
v 0.09012959 0.02280747 0.06116267
v 0.09084219 0.02079252 0.05589575
v 0.07506798 0.01938963 0.06070360
v 0.09202428 0.02376429 0.05716719
v 0.09075626 0.02495385 0.05548620
v 0.09146411 0.02495379 0.06005664
v 0.09198883 0.02320343 0.05699394
v 0.08607235 0.02096508 0.05038766
v 0.08773562 0.02290745 0.06285812
v 0.08561096 0.01978360 0.05028711
v 0.07591261 0.02187933 0.06012983
v 0.09037736 0.02133846 0.05443341
v 0.07591358 0.01079785 0.06157565
v 0.07829086 0.00935460 0.05936670
v 0.08712332 0.02244359 0.06289540
v 0.08834911 0.01833641 0.05369596
v 0.07770846 0.02312898 0.06081279
v 0.09087000 0.02316998 0.06070179
v 0.08817970 0.01713799 0.05528581
v 0.07724443 0.02138603 0.06133283
v 0.08641029 0.01840566 0.05143056
v 0.08904146 0.02149701 0.05267729
v 0.07570889 0.01440197 0.06207956
v 0.08151457 0.02150071 0.06309310
v 0.07606884 0.00805042 0.05803461
v 0.09022768 0.02327609 0.06136592
v 0.08950623 0.02328695 0.06198014
v 0.08155999 0.01082195 0.05225004
v 0.08533713 0.02499835 0.05122387
v 0.09131165 0.02296352 0.05551894
v 0.08737891 0.02145584 0.05122258
v 0.07516898 0.01251324 0.06199299
v 0.07923777 0.00784643 0.05238504
v 0.08615383 0.02124642 0.05041162
v 0.07740108 0.02300824 0.06065049
v 0.08648546 0.01723360 0.05220351
v 0.07961142 0.02184904 0.06243361
v 0.07798619 0.02470612 0.05993185
v 0.08823348 0.01802015 0.05385864
v 0.08057683 0.00941091 0.05245799
v 0.08526840 0.01530337 0.05244762
v 0.08043966 0.02485277 0.05098254
v 0.08057364 0.01204995 0.05035197
v 0.08877664 0.01779042 0.05554000
v 0.07558129 0.00856508 0.05893387
v 0.08012558 0.00796165 0.05458514
v 0.08605035 0.01815011 0.05124341
v 0.08803840 0.01770931 0.05389604
v 0.08353167 0.02194966 0.06336369
v 0.08912461 0.02193571 0.05270006
v 0.07867872 0.00875418 0.05857186
v 0.08152136 0.01063973 0.05239878
v 0.08937647 0.01844611 0.05622760
v 0.09023295 0.02317086 0.05390535
v 0.07721929 0.02027296 0.06172888
v 0.08401170 0.01668436 0.05034800
v 0.07641403 0.01780281 0.06195359
v 0.08391390 0.01492469 0.05131380
v 0.08452543 0.01640389 0.05089441
v 0.07699096 0.00919297 0.05965865
v 0.08688458 0.01870379 0.05170148
v 0.08490927 0.02195227 0.06328633
v 0.08901547 0.02335980 0.06240081
v 0.08231240 0.02489096 0.05076272
v 0.08957692 0.02033190 0.05381278
v 0.08924818 0.02313243 0.05283074
v 0.07527045 0.01600546 0.06181168
v 0.07998363 0.02327239 0.06216483
v 0.08857441 0.02076280 0.06087970
v 0.08986464 0.02001245 0.05894658
v 0.09051335 0.01992531 0.05683209
v 0.08736322 0.01647269 0.05440758
v 0.08663105 0.01837714 0.05164001
v 0.08051499 0.00916437 0.05267074
v 0.08800668 0.02173414 0.05168757
v 0.09174147 0.02194461 0.05823274
v 0.08000761 0.02197016 0.06257875
v 0.08096461 0.00910055 0.05370520
v 0.08999985 0.02335964 0.05365580
v 0.07901016 0.00719091 0.05401333
v 0.09147978 0.02242189 0.05601165
v 0.08862336 0.02217826 0.06191579
v 0.07891241 0.00712490 0.05371652
v 0.08708100 0.02345822 0.06325631
v 0.07935733 0.00794491 0.05243517
v 0.09127034 0.02147635 0.05624893
v 0.08700082 0.02305679 0.05107315
v 0.09028966 0.02487326 0.06181586
v 0.07599610 0.01222186 0.06205935
v 0.08111479 0.01172265 0.05101652
v 0.08191701 0.02459291 0.05050203
v 0.07571664 0.01808208 0.06156417
v 0.07648064 0.02028204 0.06129272
v 0.08583726 0.02421911 0.05090368
v 0.08217282 0.02377573 0.06288635
v 0.08005723 0.02444993 0.05064631
v 0.08723630 0.02015635 0.05140061
v 0.08403938 0.01660804 0.05040663
v 0.08947735 0.02122986 0.06054450
v 0.08611575 0.01660732 0.05229610
v 0.09183264 0.02230401 0.05869043
v 0.08475248 0.02429609 0.05056839
v 0.07894258 0.00826799 0.05763902
v 0.07595050 0.01141358 0.06186438
v 0.07515635 0.01762654 0.06139238
v 0.07574092 0.02232959 0.05971168
v 0.07607525 0.02277981 0.05049557
v 0.07526633 0.02436190 0.05699747
v 0.08801635 0.02010302 0.06078491
v 0.07558681 0.00595553 0.05163483
v 0.07988734 0.00826081 0.05287653
v 0.08598660 0.01890014 0.05084592
v 0.09213181 0.02290561 0.05785468
v 0.07902491 0.01024666 0.05026680
v 0.07816011 0.02475702 0.06003637
v 0.08578644 0.02251083 0.06329585
v 0.09140673 0.02191575 0.05616443
v 0.09170350 0.02347650 0.05980783
v 0.08793803 0.01743389 0.05406365
v 0.09005624 0.02137596 0.05395659
v 0.07551960 0.02478786 0.05433766
v 0.07513194 0.00899903 0.05960745
v 0.09092969 0.02458946 0.06107640
v 0.07635696 0.01149560 0.06175166
v 0.08479306 0.02168722 0.06323783
v 0.08647003 0.01608949 0.05329469
v 0.09137484 0.02365894 0.05569513
v 0.08342323 0.02232419 0.06337139
v 0.07949905 0.02124794 0.06253124
v 0.09105104 0.02117493 0.05875360
v 0.07500916 0.02237250 0.05896127
v 0.08705818 0.01858050 0.05191644
v 0.08333879 0.02427294 0.05028332
v 0.08095089 0.00864936 0.05519866
v 0.07501432 0.00808622 0.05817156
v 0.08055619 0.00898582 0.05300018
v 0.08661006 0.01686924 0.05266406
v 0.08888378 0.02488048 0.05319341
v 0.08735786 0.02050221 0.05140082
v 0.08884045 0.01826640 0.05464898
v 0.09192663 0.02467258 0.05871233
v 0.08245430 0.01142600 0.05284642
v 0.08949435 0.02480603 0.06252695
v 0.08115538 0.00890891 0.05498581
v 0.07834248 0.02111680 0.06205187
v 0.07525162 0.01670212 0.06167499
v 0.09041563 0.02045859 0.05521778
v 0.07511838 0.02438410 0.05390399
v 0.08288325 0.01327775 0.05153674
v 0.08323708 0.01511243 0.05060579
v 0.09196485 0.02316127 0.05915499
v 0.08560680 0.01797947 0.05094737
v 0.08317086 0.01341093 0.05173010
v 0.08545319 0.02472443 0.05107032
v 0.08173669 0.01077838 0.05254950
v 0.08024343 0.02448052 0.05063499
v 0.07814812 0.00731733 0.05176627
v 0.08187252 0.02220960 0.06311350
v 0.08657516 0.01915479 0.05120985
v 0.08732382 0.02171602 0.06240420
v 0.08967981 0.02275175 0.06150105
v 0.08718521 0.01847110 0.05210683
v 0.07931567 0.00866113 0.05791801
v 0.09102707 0.02481365 0.05581244
v 0.07533948 0.01804443 0.06137132
v 0.08777642 0.01909204 0.05234672
v 0.07680144 0.02195943 0.06078744
v 0.08823903 0.01930340 0.05275282
v 0.08418407 0.02142108 0.06324946
v 0.08731632 0.02082232 0.05127415
v 0.07866226 0.00929707 0.05903496
v 0.07643490 0.01002127 0.06085367
v 0.08375410 0.01349521 0.05232266
v 0.08057765 0.02121464 0.06290698
v 0.09118705 0.02333915 0.05529907
v 0.09166185 0.02188987 0.05848270
v 0.07970851 0.01051867 0.05063300
v 0.07526634 0.02422920 0.05329072
v 0.08591956 0.02389909 0.06342768
v 0.09149919 0.02288311 0.05591967
v 0.07849618 0.01979027 0.06240769
v 0.08099178 0.00869503 0.05557761
v 0.08650361 0.02384226 0.05103543
v 0.08653523 0.02484076 0.06331567
v 0.07525005 0.02050111 0.06035188
v 0.08967798 0.02031505 0.05397877
v 0.08735429 0.01886482 0.05204319
v 0.08337307 0.01312387 0.05221524
v 0.07612893 0.02242297 0.05009635
v 0.07878280 0.00736497 0.05239532
v 0.07755869 0.00872185 0.05010400
v 0.09131933 0.02129840 0.05679300
v 0.08493137 0.02478313 0.06323703
v 0.08348950 0.02249844 0.06337407
v 0.08761169 0.02178622 0.05138115
v 0.08745668 0.02486860 0.06326407
v 0.07774573 0.00934442 0.05975437
v 0.07757345 0.01972589 0.06205041
v 0.09065469 0.02146066 0.05965327
v 0.09012015 0.01980501 0.05822849
v 0.08505006 0.01792143 0.05053941
v 0.08725053 0.02319792 0.05125577
v 0.07579001 0.01623059 0.06197517
v 0.08224668 0.01119260 0.05281602
v 0.08646515 0.01664854 0.05268907
v 0.09074783 0.02139720 0.05948176
v 0.08856178 0.02217537 0.05215480
v 0.07874334 0.02335200 0.06141641
v 0.08826065 0.02014614 0.05233613
v 0.09104161 0.02467975 0.06091544
v 0.08835600 0.01766480 0.05457513
v 0.08137556 0.02092499 0.06309725
v 0.08536027 0.02196643 0.06321602
v 0.08753644 0.02009610 0.06113140
v 0.07508551 0.02430088 0.05677139
v 0.08568853 0.02132392 0.05014277
v 0.08146622 0.00935201 0.05471959
v 0.08684822 0.01622518 0.05373656
v 0.08828590 0.02165591 0.05193328
v 0.08259761 0.02468478 0.06271903
v 0.08962074 0.01911907 0.05791612
v 0.08139036 0.01213941 0.05097062
v 0.08583283 0.02031156 0.05033550
v 0.08960672 0.02424038 0.05352746
v 0.08747199 0.02317263 0.06306889
v 0.07757915 0.00905025 0.05932672
v 0.07562912 0.02446123 0.05745062
v 0.07612063 0.01052396 0.06137720
v 0.08765644 0.01718883 0.05387456
v 0.07522938 0.02420538 0.05721914
v 0.07763452 0.02099076 0.06173053
v 0.08178748 0.02384654 0.06273851
v 0.07780946 0.02464575 0.05184829
v 0.08903408 0.01807637 0.05578339
v 0.08314749 0.01248583 0.05260778
v 0.07771292 0.02391817 0.05093279
v 0.08943638 0.01858354 0.05700292
v 0.09015728 0.02023467 0.05489988
v 0.07542729 0.00564841 0.05200636
v 0.09062975 0.02349549 0.05447827
v 0.07906274 0.00823425 0.05752393
v 0.08668783 0.01956668 0.05114618
v 0.07936935 0.00810391 0.05713223
v 0.08661900 0.02295678 0.05081769
v 0.08932511 0.01839307 0.05613934
v 0.08671910 0.01642747 0.05326547
v 0.08530201 0.02267383 0.06339403
v 0.09056503 0.02253370 0.06059030
v 0.08802909 0.01896666 0.05273042
v 0.08349072 0.02158965 0.06332608
v 0.08173607 0.02430746 0.06255555
v 0.09192787 0.02302912 0.05917360
v 0.08224299 0.02402986 0.05002286
v 0.07592660 0.01047196 0.06132638
v 0.09078561 0.02232909 0.05473473
v 0.08560375 0.02209652 0.05013511
v 0.09089984 0.02059808 0.05789274
v 0.09138616 0.02140037 0.05829566
v 0.08032329 0.00868680 0.05301994
v 0.07744774 0.02062739 0.06174290
v 0.08193177 0.01419379 0.05013454
v 0.08517549 0.02417531 0.05061329
v 0.08607550 0.02273537 0.05047716
v 0.08031857 0.02251543 0.06255491
v 0.09151522 0.02187876 0.05652644
v 0.07616321 0.02437634 0.05832126
v 0.08999215 0.01972989 0.05832902
v 0.07523217 0.01698425 0.06160501
v 0.08885395 0.02291869 0.05243450
v 0.07518635 0.00630737 0.05531893
v 0.07524275 0.02474673 0.05532755
v 0.08274616 0.02288457 0.06322619
v 0.07966493 0.02114780 0.06260829
v 0.07775377 0.02361394 0.06057619
v 0.08118741 0.01159957 0.05117119
v 0.07526189 0.02351866 0.05820757
v 0.07634572 0.02405867 0.05889507
v 0.08326155 0.02144407 0.06330961
v 0.08104913 0.02424198 0.05027220
v 0.07741845 0.02216667 0.06110615
v 0.08205516 0.02314562 0.06301369
v 0.08013893 0.02491609 0.06141317
v 0.08564727 0.01870154 0.05065874
v 0.08757079 0.01797286 0.05291667
v 0.08964265 0.01897279 0.05554360
v 0.07864553 0.02056526 0.06232919
v 0.08343219 0.02249037 0.06336838
v 0.07838247 0.02387343 0.05061426
v 0.07548076 0.01815955 0.06141457
v 0.08165297 0.02146039 0.06312707
v 0.07642752 0.02417400 0.05886625
v 0.08291371 0.01385729 0.05113643
v 0.07793466 0.00994972 0.06006115
v 0.08795617 0.01995339 0.06071215
v 0.07576963 0.00701640 0.05073645
v 0.07515708 0.02335571 0.05187832
v 0.08886051 0.01941556 0.05345443
v 0.07895200 0.02348577 0.05001465
v 0.08169285 0.02262468 0.06299961
v 0.08584948 0.02131266 0.05023239
v 0.08954324 0.02239167 0.05310160
v 0.07652189 0.01832364 0.06189363
v 0.07983655 0.00826840 0.05694083
v 0.07794422 0.02240916 0.06133334
v 0.08990391 0.02353327 0.05358454
v 0.08247592 0.02088272 0.06321246
v 0.07557658 0.00970833 0.06049871
v 0.08492523 0.01698212 0.05090902
v 0.07843870 0.02379996 0.05051311
v 0.09110517 0.02338255 0.05517192
v 0.07711955 0.02378700 0.05988183
v 0.08389866 0.02391262 0.05011813
v 0.09066259 0.02419221 0.06134590
v 0.08576174 0.01724932 0.05147789
v 0.07592875 0.02324567 0.05921014
v 0.08616214 0.01969340 0.05070942
v 0.08702684 0.02393997 0.05135958
v 0.07723319 0.02206412 0.06103227
v 0.08951672 0.02401716 0.05333285
v 0.08601931 0.02191421 0.06304319
v 0.08751950 0.02152374 0.06219282
v 0.07815844 0.00700783 0.05237064
v 0.08961926 0.01883763 0.05719318
v 0.08464474 0.02335956 0.05003778
v 0.07770592 0.02032057 0.06196571
v 0.08240421 0.01133188 0.05288711
v 0.07712165 0.01975768 0.06182933
v 0.09154678 0.02156288 0.05788493
v 0.09186229 0.02229258 0.05729827
v 0.07725227 0.02057795 0.06164874
v 0.09027718 0.01982245 0.05585152
v 0.08650219 0.02131841 0.05063224
v 0.07618303 0.02311645 0.05954276
v 0.08588925 0.01660310 0.05204405
v 0.08857500 0.01968037 0.05995478
v 0.07789187 0.02450832 0.06001141
v 0.08502600 0.02401824 0.05048375
v 0.07946509 0.02371986 0.06168203
v 0.08373670 0.01626239 0.05035922
v 0.07610654 0.02472243 0.05329721
v 0.08992766 0.01940439 0.05555154
v 0.07879132 0.02271169 0.06172527
v 0.07843842 0.02432360 0.06061581
v 0.08098713 0.02491123 0.05092562
v 0.07580169 0.01271638 0.06207858
v 0.08464042 0.01835266 0.05009810
v 0.08855959 0.01957393 0.05296369
v 0.09158937 0.02304475 0.05979060
v 0.08760793 0.02336914 0.06308951
v 0.07537622 0.01073296 0.06148860
v 0.09053247 0.02100110 0.05493092
v 0.08943957 0.02027199 0.05971963
v 0.09207453 0.02431585 0.05836433
v 0.08277157 0.01479206 0.05041925
v 0.08274472 0.02447001 0.05038587
v 0.08280296 0.02273469 0.06325574
v 0.09075773 0.02311385 0.06078096
v 0.07575885 0.02474986 0.05380967
v 0.07721496 0.02304485 0.05024991
v 0.08198249 0.01091925 0.05274804
v 0.08922841 0.02338778 0.05285414
v 0.07645980 0.02188827 0.06056680
v 0.08885331 0.01988690 0.05311664
v 0.07627574 0.00977267 0.06054823
v 0.08867067 0.01760252 0.05595278
v 0.09002834 0.02047932 0.05443010
v 0.07915302 0.00751028 0.05283650
v 0.08988701 0.02086758 0.05986930
v 0.07500222 0.00707648 0.05657955
v 0.08883733 0.01891501 0.05385102
v 0.08181628 0.02132296 0.06316547
v 0.07641479 0.02278563 0.05033025
v 0.08355431 0.02465516 0.06300856
v 0.08899591 0.02216980 0.06165752
v 0.08809410 0.01844951 0.05322416
v 0.08539574 0.01622963 0.05180712
v 0.08101367 0.01316759 0.05005888
v 0.08280527 0.01402233 0.05092159
v 0.08490688 0.02239784 0.06338847
v 0.08744882 0.02370312 0.06321930
v 0.07951838 0.01041281 0.05054635
v 0.08801973 0.02166202 0.05170763
v 0.09104188 0.02084465 0.05807276
v 0.08624438 0.02393830 0.06341432
v 0.08999198 0.02239629 0.06100115
v 0.07534726 0.02480074 0.05580049
v 0.07980295 0.01036669 0.05081081
v 0.09196679 0.02257287 0.05733744
v 0.08368190 0.02137625 0.06328251
v 0.09144372 0.02172293 0.05881468
v 0.07873997 0.00909748 0.05076860
v 0.08725348 0.02019437 0.06141298
v 0.08667989 0.02160720 0.05073405
v 0.08737961 0.01802930 0.05263115
v 0.08424423 0.01357275 0.05294508
v 0.09045996 0.02118001 0.05958411
v 0.09092508 0.02114806 0.05893831
v 0.07514048 0.02224727 0.05050746
v 0.08186969 0.02461951 0.05053357
v 0.07683461 0.02416896 0.05930854
v 0.07816303 0.00688914 0.05473280
v 0.07897330 0.02307570 0.06167571
v 0.09116110 0.02399925 0.05546325
v 0.08084077 0.02327896 0.06255080
v 0.08270418 0.01159061 0.05304325
v 0.08775090 0.02357748 0.06310515
v 0.08515629 0.01584254 0.05185051
v 0.07527277 0.02221565 0.05038219
v 0.08779111 0.01847212 0.05278682
v 0.09088410 0.02077971 0.05840758
v 0.08739490 0.01634526 0.05479450
v 0.08040511 0.00870121 0.05316647
v 0.08741383 0.02218904 0.05123289
v 0.08566303 0.02234318 0.05018463
v 0.08612992 0.02223703 0.06313241
v 0.08973289 0.01938231 0.05502543
v 0.07516231 0.02386395 0.05764180
v 0.07500018 0.01199220 0.06190989
v 0.08283060 0.01488768 0.05040932
v 0.07940273 0.00792860 0.05668714
v 0.08513522 0.02488012 0.05106871
v 0.08319689 0.01537264 0.05041390
v 0.07932424 0.00739875 0.05448872
v 0.07860142 0.00692620 0.05328931
v 0.09071040 0.02021972 0.05686808
v 0.07518965 0.02208716 0.05935097
v 0.08912160 0.02449645 0.05317249
v 0.08654511 0.02226669 0.06301944
v 0.07933325 0.00779454 0.05638341
v 0.07527284 0.02203858 0.05946917
v 0.08465606 0.01493984 0.05206420
v 0.08909386 0.02332274 0.05271577
v 0.08433396 0.02423941 0.06328262
v 0.08767319 0.02440731 0.05198496
v 0.08175949 0.02138100 0.06315666
v 0.07781367 0.02412185 0.05112676
v 0.08227821 0.02252534 0.06317684
v 0.07532277 0.01322434 0.06203119
v 0.07984936 0.02464569 0.06141571
v 0.07573786 0.02384271 0.05844697
v 0.07851761 0.00832790 0.05111090
v 0.07712346 0.02150031 0.06120301
v 0.07516435 0.01706689 0.06155177
v 0.07827818 0.02010467 0.06227401
v 0.08150838 0.01069966 0.05231294
v 0.07869330 0.00919928 0.05066191
v 0.07691471 0.01096086 0.06127680
v 0.09155641 0.02224217 0.05924944
v 0.08834216 0.02215235 0.05196015
v 0.09119084 0.02407422 0.05554271
v 0.07969708 0.00810058 0.05278692
v 0.08844796 0.01742575 0.05540635
v 0.08353096 0.01618875 0.05024585
v 0.08536093 0.02330886 0.06344520
v 0.08918530 0.02467473 0.06272546
v 0.07815790 0.00693868 0.05254379
v 0.08578305 0.01806595 0.05105534
v 0.08967829 0.02004320 0.05921854
v 0.08815649 0.01714107 0.05518097
v 0.08838049 0.02366557 0.06289736
v 0.08509285 0.01913621 0.05012277
v 0.08022128 0.02393121 0.05013744
v 0.08040473 0.02456258 0.06177842
v 0.07577135 0.02481509 0.05699299
v 0.07578614 0.01944052 0.06117633
v 0.07912369 0.00979508 0.05062244
v 0.07894352 0.00735185 0.05274557
v 0.08830917 0.01816045 0.05382203
v 0.08827592 0.02385752 0.06300678
v 0.08553502 0.02322862 0.05034706
v 0.08476643 0.02404979 0.05041515
v 0.07740481 0.02488177 0.05245494
v 0.08548088 0.02382740 0.06343400
v 0.08703301 0.01645976 0.05373488
v 0.08458520 0.01676125 0.05075082
v 0.07629918 0.00882318 0.05920966
v 0.07981578 0.00828976 0.05268922
v 0.09174398 0.02406662 0.05982151
v 0.08657052 0.01929347 0.05115059
v 0.08930027 0.01837941 0.05678354
v 0.08589427 0.01577220 0.05279951
v 0.07537467 0.02364408 0.05820727
v 0.07845736 0.00877746 0.05867838
v 0.08709467 0.02492380 0.06328381
v 0.08805556 0.01704386 0.05510724
v 0.08907234 0.02152996 0.05270494
v 0.07871495 0.00818684 0.05756751
v 0.08921536 0.01833742 0.05702240
v 0.07627681 0.01821208 0.06180949
v 0.07558726 0.00565975 0.05246294
v 0.07998445 0.00818368 0.05322213
v 0.08392437 0.02454352 0.06313780
v 0.08059435 0.02489337 0.05098743
v 0.07705172 0.01029037 0.06084256
v 0.08765145 0.02194678 0.06237338
v 0.09114815 0.02254012 0.06002130
v 0.07784855 0.02382010 0.06052588
v 0.08544379 0.02115723 0.05001192
v 0.08545982 0.02486353 0.05116692
v 0.07892546 0.00847676 0.05802533
v 0.08297588 0.02405438 0.05009548
v 0.08888082 0.02268759 0.05244100
v 0.09058880 0.02317382 0.05436867
v 0.07941210 0.00846949 0.05763292
v 0.08628802 0.01759783 0.05177105
v 0.08843636 0.02153068 0.06157688
v 0.09024491 0.02356522 0.05400531
v 0.07650420 0.02471744 0.05831589
v 0.09063862 0.02405251 0.06133333
v 0.09114289 0.02177000 0.05938279
v 0.09051266 0.02121122 0.05473677
v 0.08517333 0.01823435 0.05049045
v 0.08498850 0.02416258 0.06337132
v 0.08421443 0.02330997 0.06340365
v 0.09061154 0.02050792 0.05564728
v 0.07888661 0.00832872 0.05145183
v 0.09048286 0.02028871 0.05839041
v 0.09133971 0.02136154 0.05837480
v 0.08461816 0.02447786 0.06326965
v 0.07532550 0.02420118 0.05739895
v 0.07688339 0.02445389 0.05907440
v 0.08895345 0.01868957 0.05431636
v 0.09133156 0.02483871 0.06040495
v 0.09192242 0.02411729 0.05939423
v 0.08581880 0.01920952 0.05061564
v 0.07740993 0.02389177 0.06006735
v 0.07514746 0.00598126 0.05473286
v 0.08482752 0.01467606 0.05250584
v 0.07718529 0.02346780 0.05069813
v 0.09125720 0.02472668 0.05612658
v 0.08213872 0.01107246 0.05279895
v 0.08526787 0.01513999 0.05260382
v 0.08965191 0.01881668 0.05690975
v 0.09032252 0.02175477 0.05418172
v 0.08964319 0.01903171 0.05539955
v 0.07913786 0.02492654 0.06071636
v 0.07625326 0.02466204 0.05302802
v 0.07541384 0.00753691 0.05007430
v 0.08777561 0.02057868 0.05172693
v 0.08167006 0.02298964 0.06292048
v 0.08876793 0.02080271 0.05258697
v 0.08149631 0.02195099 0.06305113
v 0.07581729 0.02245823 0.05029372
v 0.09006029 0.01933545 0.05713039
v 0.08860074 0.01756065 0.05564417
v 0.08646400 0.02398148 0.06339775
v 0.09213598 0.02393948 0.05776982
v 0.07658718 0.02454664 0.05255251
v 0.08919305 0.01919107 0.05418678
v 0.08340876 0.01328174 0.05210081
v 0.09215909 0.02386839 0.05849793
v 0.07942666 0.02030802 0.06265084
v 0.07996067 0.02433524 0.05055431
v 0.09160807 0.02407105 0.06007323
v 0.07840548 0.00702130 0.05488784
v 0.08351977 0.02312923 0.06333635
v 0.08588596 0.02110015 0.05026063
v 0.08809428 0.01741899 0.05440165
v 0.08622858 0.02352514 0.06340251
v 0.07599428 0.00846364 0.05000667
v 0.08928861 0.02422363 0.05320593
v 0.08555885 0.01583078 0.05231769
v 0.08019833 0.01176708 0.05023655
v 0.08710901 0.02338092 0.06323138
v 0.09137035 0.02409719 0.06044891
v 0.09113837 0.02454690 0.05577759
v 0.09009563 0.02134245 0.06010321
v 0.08768464 0.01834845 0.05274751
v 0.07597248 0.00984732 0.06066009
v 0.08724409 0.01721725 0.05316676
v 0.08778102 0.02248851 0.06261604
v 0.07994901 0.02462352 0.06148915
v 0.07943161 0.01023432 0.05059034
v 0.07936903 0.00852578 0.05179071
v 0.07684398 0.02308335 0.06017436
v 0.08859282 0.02210796 0.05218633
v 0.07558700 0.02341431 0.05869129
v 0.08839817 0.02465096 0.05264306
v 0.08914893 0.02376383 0.06250503
v 0.09037791 0.02033827 0.05865252
v 0.09002370 0.02232110 0.05366846
v 0.09038611 0.02084852 0.05477702
v 0.08220228 0.02415067 0.06277939
v 0.08690033 0.02459035 0.05161532
v 0.07894118 0.00734630 0.05275365
v 0.08061712 0.02041609 0.06296032
v 0.09067729 0.02039864 0.05814413
v 0.07848688 0.00691219 0.05420365
v 0.07932998 0.02234984 0.06217152
v 0.08165604 0.02109989 0.06314067
v 0.08918907 0.02115159 0.05293036
v 0.08903282 0.02419849 0.06274070
v 0.07666793 0.02420476 0.05909488
v 0.09025990 0.02322023 0.05394546
v 0.08676738 0.01695307 0.05278664
v 0.08965669 0.02205965 0.06104337
v 0.07821282 0.02015622 0.06223875
v 0.08451232 0.02491833 0.05094740
v 0.07597298 0.02379102 0.05876164
v 0.08663502 0.02426667 0.05128533
v 0.07922576 0.02045989 0.06256115
v 0.07798186 0.02405322 0.06045089
v 0.08755254 0.02476592 0.05211035
v 0.08505133 0.01687006 0.05107155
v 0.08973987 0.01950556 0.05488137
v 0.08868345 0.02055872 0.05259529
v 0.07511831 0.00544721 0.05344624
v 0.07776916 0.02010787 0.06204821
v 0.08120157 0.01159646 0.05118667
v 0.08801138 0.02380172 0.05197957
v 0.08151139 0.02345578 0.06274353
v 0.08995296 0.02242209 0.05357321
v 0.08665308 0.02368558 0.05105060
v 0.09215649 0.02301173 0.05813007
v 0.09205132 0.02406711 0.05899374
v 0.08631740 0.01567626 0.05358042
v 0.07521324 0.02353614 0.05211730
v 0.08448833 0.01642758 0.05084623
v 0.08862166 0.01754974 0.05585192
v 0.08552389 0.01964229 0.05026041
v 0.07958297 0.00769165 0.05573697
v 0.09206019 0.02339164 0.05720387
v 0.07876132 0.01032486 0.05002814
v 0.08476999 0.02251514 0.06340733
v 0.08917946 0.02473665 0.06273486
v 0.08908143 0.02241017 0.06176059
v 0.08909381 0.02054369 0.06030393
v 0.07958761 0.00758430 0.05408906
v 0.08091765 0.02250327 0.06277561
v 0.09128704 0.02151312 0.05882330
v 0.07507293 0.01058002 0.06134740
v 0.07587820 0.02182578 0.06013171
v 0.09001089 0.01971295 0.05523209
v 0.08204940 0.01099768 0.05275386
v 0.07795805 0.02088071 0.06193511
v 0.07794001 0.02428064 0.05127686
v 0.07958167 0.01125967 0.05008065
v 0.07760284 0.01017880 0.06042621
v 0.08399855 0.02411231 0.06325733
v 0.08627223 0.02087758 0.05052103
v 0.09207975 0.02405650 0.05886116
v 0.08519665 0.02494350 0.05113911
v 0.09062351 0.02398697 0.05463509
v 0.07972033 0.00788088 0.05330046
v 0.07573177 0.02302102 0.05100512
v 0.08045575 0.00817665 0.05530180
v 0.08348241 0.02318544 0.06332541
v 0.08763167 0.01728907 0.05370575
v 0.08087691 0.00857190 0.05561434
v 0.08215247 0.02479992 0.05067996
v 0.09156164 0.02333425 0.05601169
v 0.08444117 0.01741159 0.05032146
v 0.07877642 0.00741439 0.05231563
v 0.08802783 0.02088967 0.05186288
v 0.08905291 0.02485217 0.06280843
v 0.07533306 0.02452949 0.05676192
v 0.08416173 0.01673156 0.05043910
v 0.07732181 0.02426858 0.05160890
v 0.08906680 0.01943953 0.05372997
v 0.08037616 0.02428284 0.06191500
v 0.07812646 0.02321494 0.06107363
v 0.08398010 0.01524997 0.05115518
v 0.07501283 0.02402991 0.05318226
v 0.07644151 0.02398636 0.05178828
v 0.08328954 0.01444726 0.05106490
f 81 588 58
f 536 58 588
f 193 26 58
f 524 588 81
f 588 524 516
f 402 156 470
f 334 536 588
f 26 193 23
f 405 693 603
f 405 193 693
f 405 23 193
f 470 156 141
f 683 402 470
f 470 187 683
f 683 187 174
f 156 402 65
f 26 23 56
f 410 524 392
f 524 589 392
f 392 589 715
f 410 715 200
f 438 516 524
f 15 550 398
f 550 15 675
f 17 701 355
f 169 50 317
f 244 19 54
f 536 334 245
f 28 490 75
f 28 255 119
f 226 255 28
f 713 219 370
f 549 713 4
f 325 226 129
f 157 217 55
f 283 394 72
f 55 217 517
f 517 10 55
f 221 431 141
f 359 683 174
f 174 621 359
f 224 249 546
f 156 176 67
f 248 536 598
f 248 707 536
f 603 693 667
f 693 193 667
f 667 193 58
f 58 576 667
f 174 187 97
f 77 97 322
f 579 155 322
f 103 552 556
f 556 295 355
f 556 552 295
f 510 556 355
f 477 19 244
f 603 667 203
f 203 667 576
f 296 445 466
f 630 655 190
f 665 296 522
f 23 405 599
f 599 56 23
f 599 405 603
f 674 56 599
f 230 715 410
f 410 392 230
f 230 392 715
f 183 715 470
f 470 55 183
f 410 200 173
f 173 200 323
f 323 438 173
f 173 524 410
f 173 438 524
f 267 438 323
f 715 183 267
f 267 183 469
f 267 200 715
f 323 200 267
f 600 589 524
f 715 589 669
f 669 348 715
f 589 600 669
f 669 600 348
f 45 706 271
f 271 102 45
f 204 527 253
f 313 15 474
f 222 706 591
f 83 434 222
f 271 706 222
f 222 434 271
f 211 204 335
f 243 493 209
f 355 295 472
f 472 17 355
f 472 579 659
f 295 579 472
f 659 476 640
f 357 276 695
f 371 276 357
f 59 56 674
f 138 317 244
f 244 54 138
f 169 317 138
f 272 245 334
f 425 245 272
f 272 334 515
f 515 303 272
f 712 303 515
f 515 4 712
f 712 4 390
f 210 489 594
f 29 180 339
f 544 245 425
f 129 226 681
f 84 264 490
f 84 28 470
f 84 490 28
f 470 141 84
f 141 397 84
f 28 75 638
f 490 264 638
f 638 75 490
f 638 226 28
f 487 423 29
f 264 423 487
f 487 638 264
f 226 638 487
f 29 489 487
f 482 183 478
f 158 183 482
f 627 158 63
f 237 482 478
f 478 183 237
f 237 183 55
f 219 713 69
f 390 4 260
f 260 4 713
f 491 395 549
f 549 4 491
f 588 395 491
f 491 334 588
f 515 334 624
f 624 4 515
f 334 491 624
f 624 491 4
f 7 394 283
f 197 25 649
f 107 517 217
f 687 107 379
f 356 72 394
f 394 260 356
f 494 219 10
f 10 72 494
f 370 219 494
f 494 72 370
f 283 72 145
f 145 72 10
f 10 517 145
f 546 499 280
f 499 67 280
f 280 67 176
f 156 65 280
f 280 176 156
f 280 224 546
f 141 431 441
f 358 397 141
f 141 330 358
f 249 224 416
f 416 621 174
f 416 224 621
f 212 499 546
f 212 67 499
f 677 707 507
f 507 195 677
f 677 195 707
f 140 195 12
f 707 195 140
f 58 536 140
f 536 707 140
f 21 576 58
f 174 97 112
f 112 416 174
f 249 416 112
f 322 97 421
f 421 97 187
f 421 579 322
f 659 579 421
f 421 715 659
f 470 715 421
f 421 187 470
f 535 77 322
f 322 552 535
f 535 552 103
f 659 640 453
f 322 155 539
f 539 552 322
f 155 552 539
f 293 579 295
f 155 579 293
f 295 552 293
f 293 552 155
f 103 556 215
f 355 632 122
f 122 510 355
f 19 477 123
f 244 317 381
f 381 31 244
f 380 477 244
f 244 31 380
f 603 203 666
f 666 599 603
f 83 222 692
f 465 445 296
f 83 445 465
f 522 296 315
f 315 466 522
f 296 466 315
f 655 630 486
f 6 486 630
f 6 630 190
f 296 665 254
f 469 183 328
f 549 395 654
f 167 395 588
f 588 516 560
f 516 438 708
f 438 267 708
f 516 708 160
f 160 708 267
f 308 268 550
f 308 466 445
f 127 501 271
f 271 434 127
f 127 465 501
f 127 434 83
f 74 45 102
f 473 551 206
f 81 551 473
f 689 675 429
f 429 313 689
f 429 675 15
f 15 313 429
f 274 95 430
f 166 675 689
f 166 95 433
f 568 493 9
f 209 493 568
f 656 204 366
f 591 261 149
f 149 261 211
f 577 335 672
f 564 204 253
f 564 335 204
f 493 243 498
f 590 243 347
f 590 460 241
f 540 375 701
f 701 532 540
f 701 375 273
f 273 252 701
f 355 701 319
f 701 252 319
f 319 632 355
f 639 273 375
f 252 273 639
f 659 453 24
f 132 640 476
f 132 475 640
f 476 135 132
f 132 135 475
f 17 640 43
f 43 475 17
f 640 475 43
f 695 276 57
f 57 276 190
f 81 58 57
f 57 190 81
f 58 26 57
f 26 582 57
f 82 307 555
f 133 59 50
f 133 50 169
f 133 307 82
f 56 59 703
f 567 19 383
f 567 54 19
f 634 290 418
f 271 501 259
f 501 13 259
f 628 102 271
f 628 13 102
f 271 259 628
f 628 259 13
f 118 14 353
f 211 261 239
f 239 261 218
f 218 261 415
f 591 706 593
f 593 261 591
f 706 45 593
f 593 74 643
f 45 74 593
f 231 525 506
f 536 245 236
f 525 231 236
f 506 525 566
f 180 506 566
f 489 324 333
f 642 84 397
f 264 84 642
f 642 423 264
f 397 358 642
f 29 423 642
f 642 358 29
f 489 210 342
f 342 487 489
f 226 487 342
f 549 627 326
f 326 713 549
f 326 69 713
f 414 627 63
f 414 237 219
f 414 326 627
f 55 10 22
f 22 237 55
f 10 237 22
f 10 219 8
f 8 237 10
f 219 237 8
f 390 260 454
f 454 260 394
f 255 226 604
f 604 52 255
f 181 325 129
f 341 107 217
f 379 107 341
f 341 144 379
f 517 107 382
f 283 145 382
f 382 145 517
f 312 687 283
f 107 687 312
f 377 687 379
f 660 649 377
f 377 649 25
f 377 25 197
f 197 687 377
f 250 649 660
f 250 354 649
f 379 144 541
f 541 250 379
f 354 250 541
f 198 354 541
f 649 354 109
f 109 496 649
f 198 119 109
f 109 354 198
f 109 119 255
f 370 72 332
f 72 356 332
f 332 356 260
f 332 713 370
f 332 260 713
f 621 224 306
f 224 280 306
f 306 359 621
f 683 359 306
f 402 683 306
f 306 65 402
f 306 280 65
f 302 441 431
f 431 676 302
f 302 330 141
f 141 441 302
f 101 358 330
f 330 302 101
f 101 180 29
f 29 358 101
f 101 302 676
f 101 506 180
f 101 676 506
f 546 249 690
f 249 345 690
f 372 467 156
f 58 140 575
f 575 140 262
f 575 21 58
f 262 21 575
f 151 619 648
f 648 426 151
f 556 510 404
f 404 215 556
f 448 404 510
f 170 617 400
f 400 617 561
f 70 561 78
f 70 400 561
f 548 400 70
f 648 619 5
f 562 682 442
f 103 66 44
f 44 66 249
f 44 535 103
f 77 535 44
f 103 346 223
f 223 66 103
f 346 66 223
f 97 77 528
f 528 112 97
f 440 317 50
f 440 381 317
f 50 59 440
f 310 380 128
f 128 380 31
f 486 6 662
f 39 254 662
f 190 276 479
f 479 6 190
f 139 465 296
f 296 254 139
f 139 254 465
f 36 551 81
f 206 551 36
f 369 652 486
f 369 254 665
f 486 662 369
f 369 662 254
f 206 36 146
f 146 36 652
f 235 665 522
f 522 146 235
f 235 146 652
f 235 369 665
f 652 369 235
f 629 328 183
f 279 560 516
f 572 560 279
f 516 160 279
f 279 160 572
f 492 629 651
f 328 629 492
f 572 160 282
f 282 160 267
f 469 572 282
f 282 267 469
f 83 465 247
f 247 127 83
f 465 127 247
f 538 102 353
f 538 74 102
f 643 74 538
f 314 473 206
f 206 146 314
f 694 650 81
f 81 473 694
f 694 473 650
f 253 527 709
f 406 95 313
f 430 95 406
f 689 313 615
f 313 95 615
f 615 166 689
f 95 166 615
f 9 439 142
f 142 439 274
f 2 243 675
f 675 166 2
f 2 498 243
f 166 498 2
f 717 42 430
f 430 51 717
f 9 661 201
f 201 568 9
f 344 274 430
f 430 42 344
f 209 568 705
f 360 670 527
f 360 656 670
f 527 204 360
f 204 656 360
f 191 222 591
f 591 149 191
f 191 149 222
f 222 149 47
f 47 692 222
f 211 335 164
f 672 335 513
f 335 564 513
f 513 564 398
f 398 550 513
f 550 672 513
f 9 493 443
f 443 498 9
f 493 498 443
f 518 166 433
f 518 498 166
f 433 95 518
f 9 498 518
f 518 439 9
f 550 350 3
f 396 524 81
f 716 697 348
f 716 600 524
f 348 600 716
f 241 350 612
f 612 590 241
f 550 675 612
f 612 350 550
f 675 243 612
f 243 590 612
f 450 590 659
f 460 590 450
f 659 715 450
f 715 348 450
f 348 697 450
f 697 46 450
f 375 540 289
f 289 540 532
f 309 380 310
f 309 123 477
f 477 380 309
f 570 442 682
f 481 472 659
f 659 24 481
f 607 24 453
f 607 640 16
f 607 453 640
f 659 590 291
f 291 508 476
f 291 374 508
f 209 374 291
f 82 555 227
f 227 703 82
f 179 703 227
f 232 133 82
f 59 133 232
f 82 703 232
f 232 703 59
f 307 133 563
f 563 133 169
f 634 418 563
f 695 57 618
f 618 502 695
f 582 502 618
f 179 502 18
f 56 703 18
f 18 703 179
f 18 502 582
f 26 56 18
f 18 582 26
f 33 555 307
f 307 586 33
f 643 538 33
f 419 637 519
f 137 92 529
f 137 85 626
f 626 92 137
f 85 705 626
f 626 705 568
f 568 201 626
f 287 584 447
f 270 457 668
f 366 184 557
f 557 88 366
f 614 35 152
f 428 656 366
f 366 88 428
f 711 418 601
f 601 418 290
f 54 567 199
f 554 118 353
f 353 102 554
f 102 13 554
f 554 13 501
f 371 357 413
f 357 118 413
f 413 6 371
f 184 239 214
f 214 557 184
f 88 557 214
f 214 239 218
f 218 620 214
f 211 73 99
f 366 204 99
f 113 73 211
f 211 239 113
f 113 239 184
f 658 415 261
f 261 593 658
f 643 415 658
f 658 593 643
f 436 231 506
f 436 236 231
f 598 536 436
f 536 236 436
f 565 236 245
f 525 236 565
f 565 566 525
f 408 489 29
f 29 339 408
f 408 324 489
f 699 324 408
f 246 339 180
f 180 566 246
f 246 566 339
f 339 566 608
f 608 566 699
f 608 408 339
f 699 408 608
f 129 681 316
f 681 456 316
f 120 712 390
f 303 712 120
f 120 456 303
f 594 489 351
f 489 333 351
f 351 226 594
f 351 681 226
f 351 333 681
f 303 456 284
f 592 456 681
f 681 333 592
f 333 284 592
f 76 210 594
f 76 342 210
f 594 226 76
f 226 342 76
f 549 654 32
f 90 167 34
f 34 167 588
f 588 560 34
f 684 414 63
f 237 414 684
f 482 237 684
f 63 158 684
f 158 482 684
f 87 414 219
f 326 414 87
f 338 181 129
f 129 89 338
f 197 649 338
f 338 89 197
f 255 52 233
f 233 109 255
f 496 109 233
f 181 496 233
f 325 181 233
f 495 541 144
f 495 144 157
f 495 119 198
f 28 119 495
f 470 28 495
f 495 55 470
f 495 157 55
f 175 617 262
f 262 140 175
f 606 21 262
f 262 617 606
f 606 617 170
f 67 212 623
f 177 141 156
f 177 221 141
f 156 467 265
f 467 168 265
f 265 177 156
f 168 177 265
f 467 372 480
f 156 67 480
f 480 372 156
f 679 346 103
f 103 215 679
f 619 151 679
f 679 151 426
f 426 121 679
f 404 448 420
f 619 679 420
f 420 679 404
f 449 122 632
f 449 682 562
f 449 182 682
f 409 70 78
f 548 70 409
f 258 449 562
f 122 449 258
f 510 122 258
f 258 448 510
f 251 5 619
f 619 420 251
f 251 420 448
f 448 258 251
f 251 258 562
f 562 548 251
f 548 5 251
f 252 639 569
f 569 449 632
f 182 449 569
f 632 319 569
f 569 319 252
f 170 400 20
f 400 304 20
f 20 304 203
f 27 128 31
f 27 666 203
f 203 304 27
f 500 304 400
f 562 442 500
f 500 548 562
f 500 400 548
f 77 44 278
f 278 528 77
f 278 44 249
f 249 112 278
f 112 528 278
f 105 585 532
f 532 417 105
f 105 671 297
f 105 417 671
f 165 27 31
f 666 27 165
f 31 381 165
f 381 440 165
f 674 599 165
f 599 666 165
f 165 59 674
f 165 440 59
f 62 275 692
f 62 47 672
f 692 47 62
f 62 672 550
f 550 275 62
f 384 86 445
f 692 86 384
f 384 445 83
f 83 692 384
f 445 86 352
f 352 308 445
f 268 308 352
f 550 268 352
f 60 86 692
f 692 275 60
f 371 6 613
f 6 479 613
f 613 276 371
f 613 479 276
f 636 36 655
f 652 36 636
f 655 486 636
f 486 652 636
f 190 655 1
f 655 36 1
f 81 190 1
f 1 36 81
f 469 328 534
f 534 492 469
f 328 492 534
f 154 314 523
f 473 314 154
f 650 473 154
f 253 709 704
f 704 709 108
f 704 108 15
f 704 564 253
f 704 15 398
f 398 564 704
f 108 709 150
f 51 391 150
f 670 51 150
f 527 670 150
f 150 709 527
f 471 313 474
f 471 406 313
f 202 51 430
f 430 406 202
f 37 51 670
f 37 717 51
f 327 661 9
f 9 142 327
f 48 344 42
f 48 201 661
f 42 717 48
f 717 110 48
f 661 327 48
f 274 344 48
f 48 142 274
f 48 327 142
f 584 287 225
f 80 626 225
f 474 15 505
f 505 51 474
f 505 391 51
f 439 518 229
f 95 274 229
f 274 439 229
f 376 308 550
f 550 3 376
f 466 308 376
f 522 466 376
f 376 146 522
f 376 314 146
f 376 3 523
f 305 3 350
f 411 350 241
f 159 46 697
f 697 716 710
f 524 285 710
f 710 716 524
f 123 309 596
f 596 105 123
f 585 105 596
f 375 289 596
f 596 639 375
f 596 309 639
f 532 585 596
f 596 289 532
f 639 309 435
f 435 309 310
f 310 570 435
f 462 569 639
f 182 569 462
f 639 435 462
f 462 435 570
f 682 182 462
f 462 570 682
f 673 481 24
f 24 607 673
f 17 472 673
f 472 481 673
f 673 607 16
f 16 640 673
f 673 640 17
f 542 476 659
f 659 291 542
f 542 291 476
f 162 291 590
f 162 590 347
f 209 291 162
f 162 243 209
f 347 243 162
f 646 292 555
f 455 502 179
f 695 502 455
f 455 292 695
f 555 292 362
f 362 227 555
f 292 455 362
f 179 227 362
f 362 455 179
f 64 586 307
f 307 563 64
f 64 563 418
f 169 138 403
f 403 563 169
f 634 563 403
f 403 138 54
f 54 199 403
f 403 290 634
f 403 199 290
f 216 57 582
f 582 618 216
f 216 618 57
f 633 538 353
f 633 33 538
f 555 33 633
f 242 705 85
f 242 419 519
f 519 637 242
f 476 508 242
f 242 637 476
f 508 374 242
f 242 374 209
f 209 705 242
f 383 19 393
f 311 270 464
f 311 457 270
f 464 270 124
f 171 100 574
f 189 614 152
f 152 88 189
f 137 529 503
f 503 85 137
f 503 242 85
f 419 242 503
f 126 529 92
f 205 626 201
f 92 287 207
f 218 415 220
f 220 415 399
f 399 415 349
f 349 220 399
f 349 117 711
f 349 415 117
f 386 428 88
f 386 88 152
f 152 35 386
f 501 465 49
f 49 554 501
f 118 554 321
f 554 49 321
f 321 254 39
f 465 254 321
f 321 49 465
f 88 214 446
f 446 214 620
f 509 204 211
f 211 99 509
f 509 99 204
f 125 99 73
f 125 184 366
f 366 99 125
f 566 565 485
f 390 454 30
f 30 120 390
f 30 454 394
f 394 7 30
f 635 272 303
f 303 284 635
f 425 272 635
f 663 284 456
f 456 592 663
f 663 592 284
f 318 34 560
f 492 34 318
f 469 492 318
f 318 572 469
f 318 560 572
f 343 492 651
f 343 34 492
f 367 627 549
f 651 629 367
f 367 183 158
f 367 629 183
f 325 233 653
f 653 233 52
f 52 604 653
f 226 325 653
f 653 604 226
f 198 541 320
f 320 495 198
f 541 495 320
f 561 617 365
f 617 175 365
f 365 175 140
f 12 561 365
f 365 140 12
f 576 21 530
f 21 606 530
f 530 606 170
f 170 20 530
f 530 203 576
f 530 20 203
f 678 426 648
f 161 121 426
f 373 212 546
f 546 690 373
f 373 690 345
f 373 345 249
f 249 444 373
f 431 221 114
f 221 177 114
f 114 168 431
f 114 177 168
f 431 168 299
f 168 40 299
f 299 676 431
f 506 676 299
f 616 168 467
f 616 40 168
f 215 404 387
f 387 679 215
f 404 679 387
f 300 5 548
f 548 409 300
f 128 27 153
f 153 500 442
f 153 27 304
f 304 500 153
f 550 352 609
f 609 352 86
f 86 60 609
f 609 275 550
f 609 60 275
f 111 37 670
f 670 656 111
f 656 428 111
f 428 110 714
f 714 111 428
f 37 111 714
f 714 110 717
f 717 37 714
f 459 110 428
f 459 48 110
f 201 48 459
f 459 205 201
f 483 205 459
f 35 614 459
f 614 483 459
f 240 225 626
f 104 287 92
f 104 225 287
f 93 483 614
f 368 577 672
f 672 47 368
f 625 518 95
f 95 229 625
f 625 229 518
f 523 314 389
f 389 376 523
f 314 376 389
f 81 650 116
f 116 396 81
f 424 411 241
f 241 159 424
f 46 159 595
f 241 460 595
f 595 159 241
f 350 411 361
f 361 411 288
f 94 688 285
f 94 285 524
f 697 710 488
f 488 159 697
f 288 159 488
f 285 688 488
f 488 710 285
f 688 94 488
f 488 94 148
f 292 646 559
f 559 357 695
f 695 292 559
f 643 33 41
f 41 33 586
f 41 415 643
f 711 117 238
f 238 418 711
f 353 14 664
f 664 633 353
f 476 637 696
f 637 419 696
f 463 196 269
f 234 532 701
f 234 417 532
f 671 196 597
f 290 199 685
f 685 199 567
f 685 567 383
f 383 393 685
f 188 529 457
f 457 311 188
f 188 311 529
f 526 124 270
f 263 124 610
f 124 526 610
f 610 526 171
f 647 189 88
f 88 446 647
f 700 622 520
f 529 311 163
f 163 503 529
f 457 529 378
f 529 126 378
f 378 194 447
f 447 668 378
f 378 668 457
f 461 620 218
f 484 413 118
f 118 321 484
f 484 321 39
f 39 662 484
f 484 662 6
f 6 413 484
f 699 566 691
f 566 485 691
f 691 485 544
f 691 324 699
f 544 333 691
f 691 333 324
f 245 544 571
f 544 485 571
f 571 565 245
f 571 485 565
f 641 30 7
f 641 7 283
f 283 687 641
f 197 89 641
f 641 687 197
f 641 89 129
f 129 316 641
f 641 316 456
f 456 120 641
f 120 30 641
f 147 284 333
f 147 635 284
f 425 635 147
f 147 544 425
f 147 333 544
f 329 343 651
f 645 343 329
f 645 34 573
f 573 343 645
f 34 343 573
f 651 367 452
f 90 34 452
f 452 34 645
f 452 388 90
f 32 388 452
f 549 32 578
f 578 367 549
f 32 452 578
f 158 627 385
f 385 367 158
f 627 367 385
f 67 623 61
f 707 248 521
f 78 561 631
f 631 561 12
f 558 161 426
f 426 373 558
f 558 373 444
f 426 678 134
f 134 373 426
f 506 299 611
f 611 299 40
f 598 436 611
f 611 436 506
f 467 480 277
f 277 616 467
f 277 480 67
f 67 61 277
f 437 678 648
f 213 678 437
f 648 5 437
f 5 300 437
f 53 409 78
f 53 300 409
f 53 437 300
f 213 437 53
f 228 153 442
f 128 153 228
f 310 128 228
f 228 570 310
f 442 570 228
f 80 225 497
f 225 104 497
f 497 104 92
f 497 626 80
f 92 626 497
f 225 240 602
f 483 93 602
f 602 240 626
f 602 205 483
f 626 205 602
f 294 368 47
f 294 149 211
f 294 47 149
f 407 185 305
f 407 116 650
f 650 185 407
f 3 305 364
f 523 3 364
f 364 154 523
f 650 154 364
f 364 185 650
f 581 159 288
f 581 424 159
f 350 361 605
f 208 605 148
f 305 331 143
f 143 407 305
f 524 396 545
f 545 94 524
f 148 94 545
f 545 208 148
f 340 488 148
f 148 605 340
f 340 605 361
f 340 361 288
f 288 488 340
f 357 559 131
f 131 559 646
f 131 118 357
f 14 118 131
f 586 64 172
f 172 41 586
f 64 41 172
f 11 41 64
f 11 238 117
f 117 415 11
f 415 41 11
f 11 64 418
f 418 238 11
f 555 633 106
f 633 664 106
f 106 646 555
f 106 664 14
f 14 131 106
f 106 131 646
f 96 511 263
f 671 597 96
f 463 124 537
f 537 511 463
f 537 124 263
f 263 511 537
f 464 124 130
f 130 124 463
f 130 269 196
f 463 269 130
f 98 696 196
f 574 601 657
f 657 468 574
f 657 601 290
f 290 685 657
f 685 468 657
f 281 526 700
f 171 526 281
f 298 622 700
f 700 526 298
f 189 647 257
f 584 93 257
f 622 647 336
f 336 647 446
f 336 446 620
f 620 461 336
f 91 100 700
f 700 520 91
f 574 100 91
f 91 520 574
f 412 126 92
f 220 349 301
f 349 461 301
f 218 220 301
f 301 461 218
f 363 452 367
f 367 578 363
f 363 578 452
f 432 521 248
f 432 248 598
f 598 611 432
f 115 134 678
f 115 61 623
f 12 195 644
f 644 631 12
f 644 195 507
f 507 707 644
f 707 521 644
f 266 558 444
f 161 558 266
f 346 161 266
f 266 66 346
f 249 66 266
f 266 444 249
f 580 93 584
f 580 602 93
f 584 225 580
f 225 602 580
f 211 164 531
f 531 294 211
f 305 185 553
f 553 364 305
f 185 364 553
f 350 605 514
f 514 305 350
f 514 331 305
f 514 208 331
f 605 208 514
f 396 331 38
f 331 208 38
f 38 545 396
f 208 545 38
f 451 331 396
f 451 143 331
f 116 407 702
f 407 143 702
f 143 451 702
f 396 116 702
f 702 451 396
f 587 685 393
f 587 468 685
f 511 96 504
f 504 597 196
f 504 96 597
f 196 696 543
f 543 130 196
f 464 130 543
f 543 311 464
f 543 163 311
f 503 163 543
f 419 503 543
f 543 696 419
f 186 98 196
f 186 234 701
f 417 234 186
f 671 417 186
f 186 196 671
f 476 696 680
f 696 98 680
f 680 135 476
f 475 135 680
f 533 298 584
f 622 298 533
f 533 647 622
f 584 257 533
f 533 257 647
f 447 584 178
f 584 298 178
f 178 668 447
f 270 668 178
f 178 526 270
f 178 298 526
f 711 601 422
f 422 349 711
f 422 601 574
f 574 520 422
f 92 207 686
f 686 412 92
f 686 207 287
f 686 287 447
f 447 194 686
f 256 378 126
f 194 378 256
f 521 432 458
f 458 432 616
f 136 611 40
f 136 432 611
f 40 616 136
f 616 432 136
f 79 678 213
f 79 115 678
f 79 53 78
f 213 53 79
f 78 631 79
f 631 115 79
f 373 134 547
f 134 115 547
f 547 115 623
f 547 623 212
f 212 373 547
f 61 115 512
f 512 277 61
f 512 115 631
f 512 644 521
f 631 644 512
f 192 96 263
f 192 587 96
f 468 587 192
f 192 171 574
f 574 468 192
f 263 610 192
f 192 610 171
f 96 587 337
f 337 105 297
f 337 393 19
f 337 587 393
f 19 123 337
f 123 105 337
f 71 504 196
f 511 504 71
f 71 196 463
f 463 511 71
f 698 186 701
f 98 186 698
f 701 17 698
f 17 475 698
f 475 680 698
f 698 680 98
f 622 336 68
f 336 422 68
f 68 520 622
f 68 422 520
f 427 336 461
f 427 422 336
f 427 461 349
f 349 422 427
f 412 256 583
f 126 412 583
f 583 256 126
f 521 458 401
f 401 512 521
f 277 512 401
f 616 277 401
f 401 458 616
f 286 337 297
f 96 337 286
f 297 671 286
f 671 96 286
f 157 144 341
f 217 157 341
f 312 382 107
f 283 382 312
f 250 377 379
f 660 377 250
f 69 326 87
f 219 69 87
f 338 496 181
f 649 496 338
f 202 471 474
f 474 51 202
f 406 471 202
f 108 150 505
f 15 108 505
f 505 150 391
f 73 113 125
f 125 113 184
f 395 167 388
f 388 654 395
f 388 167 90
f 388 32 654
f 161 679 121
f 346 679 161
f 428 386 459
f 459 386 35
f 595 450 46
f 460 450 595
f 452 329 651
f 645 329 452
f 411 424 581
f 288 411 581
f 100 171 281
f 700 100 281
f 257 93 614
f 614 189 257
f 531 164 335
f 335 577 531
f 577 368 531
f 368 294 531
f 412 686 256
f 256 686 194

