# https://github.com/mikedh/trimesh
v 0.06897963 -0.00000153 0.02050000
v 0.05222613 -0.02781017 0.00027991
v 0.07449850 -0.00015615 0.00356415
v 0.07258072 -0.00002693 0.01861844
v 0.06775622 -0.01840354 0.00003191
v 0.07095618 -0.01093357 0.01795230
v 0.05211391 -0.02783477 0.00357905
v 0.07285302 -0.00943972 0.01673551
v 0.07449742 -0.00018391 0.00782043
v 0.05969859 -0.02039199 0.02050000
v 0.06587409 -0.01700297 0.01904458
v 0.06271702 -0.02308217 0.01589795
v 0.06698667 -0.01927942 0.00157963
v 0.07408581 -0.00180219 0.01705431
v 0.07315233 -0.00865644 0.00214984
v 0.06271637 -0.02308265 0.01040840
v 0.06985068 -0.00649343 0.02045358
v 0.07435382 -0.00287500 0.01484638
v 0.05466762 -0.02505325 0.01867598
v 0.05784019 -0.02521727 0.01733935
v 0.07449027 -0.00050931 0.00090349
v 0.07202185 -0.01162271 0.01455366
v 0.06861768 -0.01733747 0.00287230
v 0.07154948 -0.00249007 0.01952798
v 0.07062014 -0.00250763 0.02045021
v 0.06117601 -0.02402876 0.01677829
v 0.05008469 -0.02819717 0.01435260
v 0.06683802 -0.01731310 0.01810606
v 0.06235387 -0.02137050 0.01828948
v 0.05846943 -0.02449429 0.01771251
v 0.06947061 -0.01616711 0.01469046
v 0.07413484 -0.00454722 0.00938534
v 0.07095627 -0.01376005 0.01432362
v 0.07056448 -0.01444657 0.01643545
v 0.05002009 -0.02820570 0.01123137
v 0.07449621 -0.00028440 0.00129919
v 0.06255230 -0.02129615 0.01822751
v 0.05267235 -0.02770767 0.01376481
v 0.06714317 -0.01455766 0.01952905
v 0.05593540 -0.02670803 0.00028117
v 0.07230489 -0.00605012 0.01819937
v 0.05229575 -0.02779564 0.01628632
v 0.06553301 -0.02075149 0.01509899
v 0.05042593 -0.02815364 0.00504439
v 0.07108908 -0.01143348 0.01762188
v 0.05625276 -0.02659163 0.00420954
v 0.05288580 -0.02765527 0.00069538
v 0.06761859 -0.01730361 0.01750393
v 0.06361032 -0.02240405 0.01604218
v 0.07445013 -0.00164357 0.01284800
v 0.06683091 -0.01425735 0.01995432
v 0.07191577 -0.01185022 0.01658124
v 0.07183145 -0.00483492 0.01891598
v 0.05793225 -0.02587982 0.01485655
v 0.06865694 -0.01728768 0.00438538
v 0.05293919 -0.02764151 0.00258668
v 0.07330753 -0.00815616 0.00319971
v 0.05792905 -0.02588184 0.00058846
v 0.06877480 -0.01713146 0.01130943
v 0.06157388 -0.02331244 0.01715970
v 0.05300821 -0.02762324 0.00108341
v 0.07092035 -0.01382502 0.01238531
v 0.06897506 -0.01469130 0.01792112
v 0.07445951 -0.00142920 0.00601304
v 0.05354530 -0.02511197 0.01896875
v 0.05944567 -0.02307700 0.01847509
v 0.05631954 -0.02656590 0.01236532
v 0.07142047 -0.01287825 0.01658810
v 0.06697885 -0.01928366 0.01657904
v 0.07350230 -0.00431227 0.01735548
v 0.05323878 -0.02756449 0.01640282
v 0.06311236 -0.02278990 0.00637948
v 0.07146746 -0.01279174 0.00418932
v 0.07443780 -0.00187145 0.00209771
v 0.05822850 -0.02485238 0.01749940
v 0.05204986 -0.02784678 0.00243997
v 0.06763935 -0.01854596 0.00637366
v 0.05514806 -0.02324860 0.02021096
v 0.05045118 -0.02814874 0.01607288
v 0.07408272 -0.00157259 0.01706806
v 0.05466856 -0.02714921 0.00995187
v 0.05892781 -0.02456970 0.01743366
v 0.07223871 -0.01111574 0.00027399
v 0.06805279 -0.01805208 0.01665039
v 0.07010686 -0.01519597 0.01646582
v 0.05938026 -0.02172554 0.01967404
v 0.07404952 -0.00502233 0.00045328
v 0.07449974 -0.00004951 0.00354630
v 0.05010749 -0.02819566 0.00058643
v 0.07084605 -0.01395552 0.00623086
v 0.07411219 -0.00467373 0.00165080
v 0.05317116 -0.02758214 0.01571600
v 0.06212405 -0.02076895 0.01890655
v 0.05026297 -0.02599987 0.01885253
v 0.06807013 -0.01263260 0.01975940
v 0.05103641 -0.02797832 0.01676024
v 0.07448494 -0.00048540 0.01640114
v 0.06268146 -0.02156273 0.01793750
v 0.06306265 -0.02282660 0.00382457
v 0.07428347 -0.00350153 0.01507971
v 0.05874307 -0.02549186 0.01071374
v 0.07044839 -0.01464112 0.01661130
v 0.06273833 -0.02306639 0.00175290
v 0.05139711 -0.02797007 0.01647548
v 0.07334900 -0.00800604 0.00031620
v 0.06108258 -0.02418142 0.01134157
v 0.06839700 -0.01761662 0.00002828
v 0.06388286 -0.02025026 0.01817417
v 0.06821495 -0.01785308 0.01086377
v 0.06935252 -0.00799770 0.02048918
v 0.06350291 -0.02249147 0.01552332
v 0.06984193 -0.01560981 0.01483730
v 0.05018056 -0.02818450 0.01551063
v 0.07011191 -0.01355307 0.01753853
v 0.07416458 -0.00049480 0.01701994
v 0.07331958 -0.00811255 0.01621382
v 0.07200480 -0.01166186 0.00792088
v 0.07001105 -0.01488751 0.01694584
v 0.06638959 -0.01379696 0.02050000
v 0.07449507 -0.00017274 0.01551368
v 0.07386374 -0.00531086 0.01683319
v 0.07286631 -0.00950738 0.00987027
v 0.06100504 -0.02422964 0.00251120
v 0.05958386 -0.02419711 0.01743917
v 0.07433944 -0.00301091 0.01530613
v 0.06890474 -0.01695372 0.00026384
v 0.07360682 -0.00707486 0.00386748
v 0.06700815 -0.01925326 0.01638158
v 0.06916414 -0.01039300 0.01979628
v 0.06271001 -0.02308732 0.01053089
v 0.06908634 -0.00998565 0.02004192
v 0.05282538 -0.02647403 0.01785871
v 0.06953245 -0.01592583 0.01678389
v 0.07392689 -0.00350058 0.01705278
v 0.05314679 -0.02758553 0.00019107
v 0.06999999 -0.01536293 0.01589510
v 0.05606366 -0.02622573 0.01710948
v 0.06312512 -0.01843822 0.02002700
v 0.06106911 -0.02418876 0.01577417
v 0.07136784 -0.00841954 0.01846677
v 0.05536374 -0.02672356 0.01687258
v 0.05781516 -0.02237520 0.01988277
v 0.05270777 -0.02769910 0.00390727
v 0.05057425 -0.02812816 0.01569958
v 0.06939268 -0.01048110 0.01955418
v 0.05167102 -0.02775835 0.01685652
v 0.05135492 -0.02796358 0.01671446
v 0.06843180 -0.01253101 0.01950414
v 0.07050935 -0.01420552 0.01687016
v 0.06932518 -0.01636996 0.01411526
v 0.05669773 -0.02607834 0.01700172
v 0.05050370 -0.02793550 0.01690317
v 0.06697075 -0.01402164 0.01996061
v 0.05791443 -0.02288252 0.01939586
v 0.06760326 -0.01858544 0.01597866
v 0.07125860 -0.00764673 0.01880792
v 0.05420320 -0.02728582 0.01623230
v 0.06334103 -0.01859421 0.01976945
v 0.06334223 -0.02205996 0.01713643
v 0.07249280 -0.00488922 0.01825616
v 0.05193488 -0.02786832 0.00043886
v 0.06338615 -0.02258097 0.00994631
v 0.06141641 -0.01952625 0.02031213
v 0.06343860 -0.02254144 0.01637663
v 0.05202454 -0.02458541 0.01986744
v 0.05027965 -0.02817141 0.01607224
v 0.05280250 -0.02731202 0.01705220
v 0.06538861 -0.02088158 0.01557867
v 0.06870654 -0.01722267 0.00673849
v 0.07048352 -0.01458225 0.00015988
v 0.07400622 -0.00528212 0.01654879
v 0.06197522 -0.02171809 0.01823238
v 0.05044891 -0.02814904 0.01654523
v 0.07330498 -0.00816537 0.00452583
v 0.06923341 -0.01650074 0.00080974
v 0.06594892 -0.01465265 0.02042292
v 0.06183203 -0.02025489 0.01948919
v 0.06711022 -0.01914279 0.00130228
v 0.06887567 -0.01248426 0.01913751
v 0.07245003 -0.00815478 0.01752090
v 0.07380942 -0.00405725 0.01708983
v 0.06200191 -0.02088822 0.01888636
v 0.06613393 -0.02015178 0.00043698
v 0.06097329 -0.02424862 0.00012928
v 0.06782289 -0.01479031 0.01883538
v 0.05133088 -0.02409560 0.02048981
v 0.07220945 -0.01119354 0.00322402
v 0.06128773 -0.02405016 0.01635284
v 0.07287112 -0.00949593 0.00827107
v 0.07029999 -0.01488981 0.00518399
v 0.06961931 -0.01574226 0.01681475
v 0.07250242 -0.01044584 0.01664220
v 0.05042470 -0.02815308 0.00229558
v 0.07149619 -0.01273033 0.00058649
v 0.07062198 -0.01435216 0.00050861
v 0.06289245 -0.02295230 0.00013765
v 0.07319780 -0.00851561 0.01396306
v 0.06087273 -0.01974406 0.02046830
v 0.07434815 -0.00293523 0.00034502
v 0.07051661 -0.00267380 0.02050000
v 0.06289565 -0.02294993 0.01667776
v 0.06506106 -0.01965683 0.01781724
v 0.07096950 -0.01343649 0.01684030
v 0.06758602 -0.01804732 0.01706170
v 0.07100129 -0.00819259 0.01888597
v 0.06362744 -0.02237620 0.00008826
v 0.06615776 -0.02012712 0.00043331
v 0.05820890 -0.02436376 0.01794789
v 0.07026023 -0.01278627 0.01777059
v 0.06211357 -0.02292352 0.01717081
v 0.07016386 -0.00503666 0.02050000
v 0.06770581 -0.01235226 0.02021288
v 0.07438716 -0.00247182 0.00009618
v 0.06158662 -0.02385800 0.00072392
v 0.06837019 -0.01289449 0.01936972
v 0.05623103 -0.02660013 0.01488988
v 0.05327435 -0.02463040 0.01950659
v 0.07401187 -0.00523763 0.00084794
v 0.05734546 -0.02613018 0.01655065
v 0.07448579 -0.00066273 0.00010844
v 0.07436249 -0.00277009 0.01534917
v 0.07326080 -0.00831079 0.00223005
v 0.06229907 -0.02337219 0.01625766
v 0.07078617 -0.01406167 0.00330396
v 0.07234060 -0.00243742 0.01874348
v 0.05585271 -0.02600722 0.01738626
v 0.06583281 -0.02046385 0.00160113
v 0.05049425 -0.02814244 0.01184031
v 0.06268414 -0.02310506 0.00064771
v 0.06724872 -0.01244711 0.02050000
v 0.05794124 -0.02179310 0.02032350
v 0.07319492 -0.00316515 0.01781961
v 0.05902707 -0.02534462 0.01463519
v 0.07426842 -0.00362116 0.00843732
v 0.06822201 -0.01784435 0.01319115
v 0.06976371 -0.01573175 0.01353540
v 0.06459024 -0.02159667 0.00045928
v 0.05001388 -0.00679409 0.02050000
v 0.05302137 -0.02762090 0.01101817
v 0.05343358 -0.02720869 0.01699253
v 0.06555772 -0.02073019 0.01110303
v 0.05163707 -0.02400228 0.02050000
v 0.07317033 -0.00860306 0.01635945
v 0.07429424 -0.00340724 0.01524287
v 0.05666060 -0.02469285 0.01829021
v 0.06821672 -0.01094876 0.02040077
v 0.06054580 -0.02449459 0.00009902
v 0.05351297 -0.02747724 0.00008919
v 0.05465137 -0.02715315 0.00204988
v 0.07444215 -0.00180672 0.01019826
v 0.07448257 -0.00055988 0.01652182
v 0.05026246 -0.02757749 0.01729038
v 0.06896581 -0.01687100 0.00159812
v 0.07414753 -0.00445877 0.01637632
v 0.05561057 -0.02506258 0.01835758
v 0.05483907 -0.02560079 0.01810554
v 0.07398017 -0.00541321 0.00149298
v 0.06952745 -0.00766558 0.02043930
v 0.05254248 -0.02773840 0.01627770
v 0.07411939 -0.00258796 0.01695743
v 0.07435143 -0.00290390 0.00632360
v 0.06559224 -0.01865378 0.01813116
v 0.06823533 -0.01782461 0.00048061
v 0.06867705 -0.01297920 0.01906524
v 0.05878116 -0.02547214 0.01135814
v 0.05778181 -0.02201689 0.02020860
v 0.05320036 -0.02757333 0.00531220
v 0.05630710 -0.02656839 0.00022615
v 0.05556606 -0.02675906 0.01677205
v 0.06287347 -0.02286998 0.01677729
v 0.05063057 -0.00027151 0.02050000
v 0.07296691 -0.00806222 0.01705276
v 0.07446748 -0.00123439 0.00123807
v 0.06958521 -0.01504998 0.01721632
v 0.06583721 -0.02046150 0.00732016
v 0.06596363 -0.02032818 0.00085905
v 0.07289781 -0.00942050 0.01657711
v 0.05617588 -0.02662143 0.01577023
v 0.05597517 -0.02669431 0.00095260
v 0.07305134 -0.00896162 0.00046624
v 0.07414329 -0.00448836 0.01612816
v 0.07011162 -0.00562185 0.02041605
v 0.07443682 -0.00189131 0.00273987
v 0.05310710 -0.02357727 0.02050000
v 0.06960474 -0.01596866 0.01661292
v 0.06222040 -0.02034953 0.01917011
v 0.06316462 -0.02275055 0.00545042
v 0.06453483 -0.02164927 0.01105875
v 0.06785568 -0.01771830 0.01706323
v 0.07299101 -0.00866245 0.01685246
v 0.06213490 -0.02101076 0.01870820
v 0.06909892 -0.01037626 0.01986173
v 0.06682702 -0.01944199 0.00039198
v 0.05350849 -0.02533603 0.01876850
v 0.07146520 -0.01279615 0.00125434
v 0.06892297 -0.00896220 0.02050000
v 0.05610290 -0.02664787 0.01092248
v 0.06265343 -0.02312636 0.01592338
v 0.06462675 -0.01962123 0.01814517
v 0.05492766 -0.02315996 0.02037861
v 0.06586896 -0.01676595 0.01920068
v 0.07076512 -0.01409889 0.00283513
v 0.06745366 -0.01774074 0.01735947
v 0.05989844 -0.02487063 0.01596114
v 0.07449603 -0.00022989 0.00850397
v 0.05843366 -0.02138671 0.02043244
v 0.06921589 -0.01536463 0.01735753
v 0.06453839 -0.02164606 0.00973455
v 0.06299110 -0.02287927 0.01489314
v 0.05797498 -0.02530272 0.01720401
v 0.07236537 -0.01065401 0.01675289
v 0.07413122 -0.00456796 0.00352236
v 0.07449815 -0.00015042 0.00733377
v 0.06315463 -0.02275778 0.00168694
v 0.07434891 -0.00292883 0.01226715
v 0.05939564 -0.02388431 0.01780267
v 0.07150568 -0.01271616 0.01406425
v 0.06350056 -0.02107481 0.01779854
v 0.06995910 -0.01539919 0.01671496
v 0.07449938 -0.00011953 0.00239202
v 0.05294399 -0.02764066 0.00626944
v 0.07411622 -0.00141887 0.01703938
v 0.07413230 -0.00456201 0.01572437
v 0.06925138 -0.01647192 0.01489323
v 0.07317381 -0.00859177 0.01514328
v 0.06951749 -0.01609843 0.00420167
v 0.07244756 -0.00261151 0.01862249
v 0.07028459 -0.00514016 0.02036766
v 0.07214416 -0.01134189 0.01614195
v 0.07315031 -0.00866579 0.01414979
v 0.06938981 -0.01628262 0.00167892
v 0.07060502 -0.01438068 0.00062979
v 0.05004905 -0.02738630 0.01750760
v 0.07050074 -0.00394169 0.02035591
v 0.07365380 -0.00685729 0.00023892
v 0.07096402 -0.00221360 0.02012889
v 0.06229349 -0.02112880 0.01851799
v 0.06717472 -0.01906914 0.00030267
v 0.07017984 -0.01508053 0.00238775
v 0.07022667 -0.01046551 0.01880809
v 0.07432548 -0.00312600 0.00008555
v 0.07134449 -0.00557057 0.01924317
v 0.07354863 -0.00143046 0.01760523
v 0.05290575 -0.02598622 0.01831075
v 0.07371591 -0.00659723 0.01661515
v 0.06869608 -0.01723688 0.01041214
v 0.06912740 -0.01664337 0.01560261
v 0.06065449 -0.02241922 0.01841419
v 0.06433143 -0.01638902 0.02050000
v 0.07149540 -0.00254889 0.01957705
v 0.07076512 -0.01207619 0.01763831
v 0.06703060 -0.01909100 0.01679580
v 0.06299023 -0.02287991 0.00144219
v 0.05785542 -0.02583438 0.01677206
v 0.06457616 -0.02161344 0.01464826
v 0.06988864 -0.00763307 0.02011376
v 0.07201432 -0.01082571 0.01701853
v 0.05632757 -0.02656282 0.01481765
v 0.05463364 -0.02716005 0.00457484
v 0.05224114 -0.02732535 0.01716763
v 0.05799847 -0.02585050 0.01344676
v 0.07087937 -0.01388057 0.00004449
v 0.07321209 -0.00846870 0.00819265
v 0.06561478 -0.02067588 0.01589931
v 0.05219502 -0.02781681 0.01400221
v 0.06383107 -0.01790807 0.01991009
v 0.05328039 -0.02755274 0.00882373
v 0.07128294 -0.00038504 0.01990306
v 0.06966515 -0.01066192 0.01923267
v 0.06964543 -0.00727659 0.02045922
v 0.05787788 -0.02590302 0.01643990
v 0.06888183 -0.01698314 0.01643199
v 0.07314298 -0.00868867 0.01301833
v 0.05949787 -0.02510063 0.00482115
v 0.05306574 -0.02760952 0.01333059
v 0.05611287 -0.02615014 0.01716226
v 0.06932416 -0.01005136 0.01979980
v 0.06374707 -0.01757735 0.02019683
v 0.06886637 -0.01338260 0.01869658
v 0.06381812 -0.01856033 0.01946941
v 0.06555589 -0.02073180 0.00530300
v 0.06913741 -0.01621820 0.01694081
v 0.07224342 -0.01111399 0.01658171
v 0.06941804 -0.01624249 0.00870921
v 0.07449967 -0.00006348 0.00742714
v 0.05615859 -0.02662802 0.00566607
v 0.06874596 -0.01716810 0.00032457
v 0.05855516 -0.02558281 0.00086576
v 0.05281223 -0.02636899 0.01796364
v 0.05937522 -0.02110732 0.02020999
v 0.06814217 -0.01632480 0.01768552
v 0.06815944 -0.01118029 0.02035153
v 0.05036681 -0.02528485 0.01953648
v 0.07104944 -0.00790904 0.01893041
v 0.06117817 -0.02412060 0.01550955
v 0.06460618 -0.02096860 0.01715930
v 0.06727235 -0.01896204 0.01628050
v 0.06775339 -0.01841184 0.01609280
v 0.06738848 -0.01847392 0.01693500
v 0.07356045 -0.00262225 0.01751192
v 0.06581087 -0.01746612 0.01878601
v 0.05976814 -0.02484252 0.01678965
v 0.07200019 -0.00906530 0.01765794
v 0.06744935 -0.01752147 0.01750184
v 0.05102363 -0.02599418 0.01871442
v 0.07237080 -0.00704292 0.01789673
v 0.05182989 -0.02407045 0.02040770
v 0.06595060 -0.02014281 0.01684198
v 0.05917886 -0.02118194 0.02024301
v 0.06174024 -0.02375783 0.00886347
v 0.07002018 -0.01532758 0.00039099
v 0.06303391 -0.01835812 0.02014618
v 0.06392206 -0.02035893 0.01806710
v 0.06855445 -0.01196039 0.01966100
v 0.06171822 -0.02377309 0.01157202
v 0.07039158 -0.00737452 0.01971504
v 0.05610552 -0.02664791 0.00502237
v 0.06971665 -0.01580320 0.01619971
v 0.05030543 -0.02817010 0.00236251
v 0.06901750 -0.01679969 0.00071611
v 0.06449068 -0.02093999 0.01725786
v 0.07321460 -0.00846169 0.01388325
v 0.06807713 -0.01736184 0.01710884
v 0.07444798 -0.00166809 0.00058535
v 0.05293893 -0.02555313 0.01872117
v 0.07183626 -0.00724999 0.01835728
v 0.07269934 -0.00993603 0.01660420
v 0.06561855 -0.01683143 0.01934991
v 0.06590088 -0.01756561 0.01865281
v 0.07030287 -0.01488497 0.01640277
v 0.06936503 -0.01631818 0.00199323
v 0.06981097 -0.01565364 0.00002611
v 0.07196068 -0.01175485 0.01560408
v 0.07014451 -0.01513520 0.00088610
v 0.06459063 -0.02160062 0.01540981
v 0.06187695 -0.02334179 0.01696342
v 0.07427252 -0.00358734 0.01655951
v 0.06714086 -0.01675474 0.01821332
v 0.05334035 -0.02753786 0.01642827
v 0.07355660 -0.00411170 0.01733117
v 0.07329449 -0.00820076 0.01666721
v 0.05264196 -0.02771511 0.00822089
v 0.05552159 -0.02448376 0.01892912
v 0.07305711 -0.00894563 0.01663821
v 0.07253229 -0.00449768 0.01828012
v 0.06019513 -0.02245288 0.01863558
v 0.05616167 -0.02414826 0.01898600
v 0.06821978 -0.01784710 0.01181118
v 0.07449713 -0.00014295 0.01261986
v 0.06885455 -0.01702295 0.00727578
v 0.07132577 -0.00539119 0.01930027
v 0.05160527 -0.02793005 0.01657932
v 0.05592163 -0.02663864 0.01676781
v 0.06306205 -0.01793836 0.02044311
v 0.06326079 -0.02267610 0.00017631
v 0.07016829 -0.00999518 0.01904009
v 0.07309902 -0.00882012 0.01553734
v 0.07308844 -0.00885189 0.01595743
v 0.06896250 -0.00910151 0.02047661
v 0.06406270 -0.02115992 0.01737359
v 0.06893019 -0.01691960 0.00142742
v 0.05218905 -0.02781907 0.00329161
v 0.06872810 -0.01719497 0.01346445
v 0.06104005 -0.02420773 0.00832706
v 0.06356726 -0.01853428 0.01966253
v 0.07307331 -0.00889727 0.01654546
v 0.06707169 -0.01918770 0.00558825
v 0.06590494 -0.02039500 0.01657943
v 0.06981106 -0.01565799 0.01451486
v 0.07385724 -0.00029347 0.01733358
v 0.06578764 -0.02051050 0.00272756
v 0.06468642 -0.02151450 0.01611474
v 0.06733559 -0.01240315 0.02049835
v 0.06622882 -0.01443850 0.02033286
v 0.05328805 -0.02517784 0.01898286
v 0.06898082 -0.01684612 0.01626450
v 0.05352007 -0.02748739 0.01583135
v 0.06199164 -0.02358546 0.01650100
v 0.06431177 -0.02069745 0.01755773
v 0.05002212 -0.00848603 0.02050000
v 0.06558268 -0.02070653 0.00516692
v 0.05456977 -0.02717973 0.00106364
v 0.06557626 -0.02071273 0.01288100
v 0.06869294 -0.01680047 0.01696020
v 0.07043526 -0.01022666 0.01870760
v 0.07120071 -0.00726752 0.01896449
v 0.05443743 -0.02721607 0.01555091
v 0.05594369 -0.02557689 0.01775799
v 0.07220143 -0.01121232 0.00035509
v 0.05004776 -0.02706436 0.01782656
v 0.05260890 -0.02772282 0.01227572
v 0.07444778 -0.00168679 0.01539728
v 0.07406714 -0.00492397 0.00036064
v 0.05450046 -0.02719918 0.00005424
v 0.06557703 -0.01685831 0.01936335
v 0.07248054 -0.00824128 0.01746640
v 0.06973830 -0.01576813 0.00271276
v 0.07284086 -0.00957911 0.00034078
v 0.07082326 -0.01389680 0.01674998
v 0.06779924 -0.01835691 0.01669083
v 0.07219778 -0.00818817 0.01775221
v 0.06815015 -0.01793328 0.00291603
v 0.05305449 -0.02660356 0.01767599
v 0.05329523 -0.02659172 0.01762389
v 0.07062468 -0.01434771 0.00237213
v 0.06685509 -0.01448517 0.01980698
v 0.06302793 -0.02285200 0.01390543
v 0.05492851 -0.02705955 0.01625679
v 0.07138284 -0.00272825 0.01966793
v 0.06954760 -0.01288678 0.01835530
v 0.05303925 -0.02536118 0.01887749
v 0.06823826 -0.01782365 0.01135893
v 0.05978057 -0.02493917 0.00233273
v 0.05948667 -0.02510642 0.00597708
v 0.06579165 -0.01880216 0.01788555
v 0.07066644 -0.01427607 0.01393803
v 0.07101807 -0.00493851 0.01969810
v 0.05256888 -0.02773154 0.00102458
v 0.07437685 -0.00259640 0.01583981
v 0.07445083 -0.00163311 0.00881682
v 0.07443021 -0.00195115 0.01651763
v 0.06707145 -0.01918929 0.01086454
v 0.06569045 -0.01631628 0.01961803
v 0.06274202 -0.01826528 0.02040459
v 0.05463463 -0.02715983 0.00503883
v 0.06176633 -0.02374161 0.01611699
v 0.06812683 -0.01526768 0.01831669
v 0.05486935 -0.02355156 0.02002854
v 0.07380255 -0.00584471 0.01677769
v 0.05942678 -0.02513789 0.00045539
v 0.05024970 -0.02453923 0.02029082
v 0.05948873 -0.02510553 0.00397802
v 0.06817874 -0.01789789 0.00609982
v 0.06517792 -0.02107155 0.01596453
v 0.05456160 -0.02316062 0.02049238
v 0.05287992 -0.02765648 0.01533611
v 0.06852827 -0.01745190 0.01581038
v 0.06479922 -0.01627376 0.02033045
v 0.05375076 -0.02335597 0.02050000
v 0.05384831 -0.02343562 0.02045447
v 0.06543879 -0.01523364 0.02047156
v 0.06098595 -0.02423719 0.01668247
v 0.06310889 -0.02279220 0.00880742
v 0.07044316 -0.01464988 0.00052251
v 0.05000302 -0.01102556 0.02050000
v 0.05583967 -0.02405913 0.01919482
v 0.06971618 -0.01317891 0.01806707
v 0.05113277 -0.02801627 0.00024084
v 0.05485373 -0.02708175 0.00092579
v 0.05003160 -0.00159886 0.02050000
v 0.06616178 -0.02012924 0.01666419
v 0.06446386 -0.02170886 0.00099837
v 0.07316653 -0.00861115 0.00115268
v 0.05245991 -0.02500292 0.01937010
v 0.06272575 -0.02178521 0.01773404
v 0.07449601 -0.00028677 0.00252020
v 0.05810361 -0.02580032 0.01664764
v 0.07094791 -0.01377794 0.01662370
v 0.07077557 -0.00018764 0.02041581
v 0.07327593 -0.00826140 0.01625588
v 0.07395174 -0.00553815 0.00002046
v 0.07445983 -0.00144340 0.00353173
v 0.07168872 -0.00790205 0.01832294
v 0.05627366 -0.02658313 0.00187503
v 0.05827776 -0.02390620 0.01832281
v 0.07154122 -0.00225857 0.01955443
v 0.07427525 -0.00356936 0.01107158
v 0.06452148 -0.01919682 0.01852339
v 0.06534312 -0.02080351 0.01678862
v 0.07313046 -0.00872743 0.00967124
v 0.07084473 -0.01394681 0.00010691
v 0.07355979 -0.00724872 0.00024839
v 0.06940542 -0.01625984 0.01067544
v 0.06974588 -0.01575938 0.01271484
v 0.07059590 -0.01085836 0.01831093
v 0.07449513 -0.00029941 0.00525239
v 0.06966342 -0.01588282 0.00120435
v 0.05917200 -0.02446413 0.01741186
v 0.07443596 -0.00190411 0.00106473
v 0.07443958 -0.00184922 0.00711002
v 0.05871794 -0.02550453 0.01038686
v 0.06248792 -0.02035198 0.01899871
v 0.05801874 -0.02420555 0.01817293
v 0.06261007 -0.02315586 0.00002604
v 0.06524679 -0.02002696 0.01742307
v 0.05534568 -0.00005723 0.02050000
v 0.07445924 -0.00131149 0.01608596
v 0.06328717 -0.02265769 0.01627974
v 0.06412934 -0.02175706 0.01687259
v 0.06266701 -0.02184661 0.01772110
v 0.07279602 -0.00095359 0.01837414
v 0.07426748 -0.00362943 0.00341333
v 0.07399298 -0.00534610 0.00158856
v 0.06948990 -0.01613825 0.00125766
v 0.06106166 -0.01968887 0.02040498
v 0.07089991 -0.01199434 0.01755328
v 0.06450209 -0.02167714 0.00532309
v 0.07330501 -0.00004235 0.01789366
v 0.06032563 -0.02231570 0.01868023
v 0.06793484 -0.01616881 0.01794484
v 0.06797434 -0.01624149 0.01786979
v 0.07278559 -0.00902715 0.01693120
v 0.06802312 -0.01093689 0.02050000
v 0.07320901 -0.00847797 0.00643098
v 0.07436538 -0.00273510 0.00050769
v 0.07370668 -0.00019520 0.01748721
v 0.05947923 -0.02511061 0.00195078
v 0.06981161 -0.01549343 0.01678822
v 0.06366761 -0.01828453 0.01976863
v 0.05781104 -0.02593429 0.00075415
v 0.07171116 -0.01227577 0.00044327
v 0.07185687 -0.00954806 0.01762583
v 0.05460331 -0.02716953 0.00424657
v 0.07060723 -0.01437493 0.01634265
v 0.07073943 -0.01250653 0.01747474
v 0.06565212 -0.02064043 0.00254070
v 0.06766327 -0.01851529 0.00007856
v 0.06698943 -0.01898901 0.01689462
v 0.05470849 -0.02299045 0.02050000
v 0.06698191 -0.01287594 0.02050000
v 0.07221604 -0.01117749 0.00419898
v 0.05461051 -0.02708042 0.01678171
v 0.06815333 -0.01792953 0.01630585
v 0.06171014 -0.02377647 0.00020380
v 0.06859233 -0.01576031 0.01765110
v 0.05793925 -0.02587831 0.01003639
v 0.06563634 -0.02065520 0.01617541
v 0.05637784 -0.02654270 0.01564630
v 0.06436094 -0.02179049 0.00041938
v 0.06761809 -0.01831225 0.01686765
v 0.05312250 -0.02759342 0.00234805
v 0.05956632 -0.02506397 0.00335020
v 0.05704305 -0.02228882 0.02031799
v 0.07316925 -0.00860523 0.01109295
v 0.06589880 -0.01647033 0.01936075
v 0.06882887 -0.01705655 0.01611441
v 0.06174459 -0.01890032 0.02050000
v 0.06760235 -0.01858897 0.00174820
v 0.07421604 -0.00398114 0.00133952
v 0.05957418 -0.02113860 0.02007647
v 0.06676003 -0.01928739 0.01685422
v 0.06326676 -0.01820492 0.02010827
v 0.05433028 -0.02574777 0.01812612
v 0.05015547 -0.02504841 0.01980876
v 0.07191026 -0.01113865 0.01699564
v 0.07138691 -0.00023140 0.01980585
v 0.06561664 -0.01663461 0.01947857
v 0.06965468 -0.00699620 0.02050000
v 0.05924365 -0.02512693 0.01679331
v 0.07324004 -0.00837860 0.00425680
v 0.07367205 -0.00484628 0.01710375
v 0.06810397 -0.01799059 0.00837936
v 0.06555817 -0.02072961 0.00268468
v 0.06748999 -0.01871442 0.01636927
v 0.07056255 -0.00046785 0.02050000
v 0.06892841 -0.01692232 0.00327479
v 0.07329978 -0.00818350 0.00553079
v 0.05976113 -0.02495061 0.01580395
v 0.07426186 -0.00367024 0.00320743
v 0.07255750 -0.00730994 0.01764695
v 0.07404704 -0.00309208 0.01698146
v 0.07043143 -0.00955050 0.01895466
v 0.07247417 -0.01051887 0.01648924
v 0.06809642 -0.01799984 0.00094363
v 0.07280680 -0.00965762 0.01635118
v 0.07024912 -0.01497332 0.01276226
v 0.06450039 -0.02167527 0.01531036
v 0.05852765 -0.02118199 0.02050000
v 0.06152644 -0.02384436 0.01674347
v 0.06346385 -0.02252204 0.01628398
v 0.07242222 -0.00891621 0.01731054
v 0.06088269 -0.02401297 0.01694506
v 0.05776997 -0.02595151 0.00022456
v 0.06750276 -0.01870022 0.00014578
v 0.05927487 -0.02521573 0.01596819
v 0.07210208 -0.01115349 0.01681385
v 0.06821791 -0.01784879 0.00736613
v 0.05317681 -0.02757833 0.00234065
v 0.07427232 -0.00232967 0.01682621
v 0.07362068 -0.00702377 0.01282483
v 0.06179371 -0.02371849 0.00011298
v 0.07118293 -0.00488531 0.01954512
v 0.06448530 -0.02169124 0.00051201
v 0.05287181 -0.02746624 0.01688620
v 0.06269850 -0.02309521 0.01346435
v 0.07315841 -0.00863913 0.00972393
v 0.06809542 -0.01800080 0.01279655
v 0.07069492 -0.01422557 0.01251215
v 0.06103199 -0.02421188 0.00004541
v 0.05301719 -0.02671378 0.01757886
v 0.06132921 -0.02400403 0.01671606
v 0.05958413 -0.02505368 0.01219820
v 0.05695702 -0.02494728 0.01794003
v 0.06871850 -0.01247699 0.01928014
v 0.07200524 -0.01166085 0.00117376
v 0.07031154 -0.01486226 0.01670407
v 0.07447147 -0.00111570 0.00050160
v 0.06845268 -0.01073118 0.02028452
v 0.07416651 -0.00432643 0.00192293
v 0.06777176 -0.01838991 0.01658758
v 0.06944468 -0.01224084 0.01874514
v 0.07000700 -0.01255665 0.01810157
v 0.06631853 -0.01992718 0.01672746
v 0.06585328 -0.02044724 0.01506399
v 0.07416403 -0.00434372 0.01645470
v 0.07413848 -0.00452189 0.01519319
v 0.05265710 -0.02771153 0.00743445
v 0.05849557 -0.02561123 0.01641025
v 0.05115410 -0.02582273 0.01885481
v 0.06944198 -0.01620733 0.00097558
v 0.07361498 -0.00704444 0.01344334
v 0.05955299 -0.02507102 0.01516269
v 0.05616374 -0.02662602 0.00217715
v 0.07317976 -0.00675989 0.01718840
v 0.06708095 -0.01917673 0.00385089
v 0.06081239 -0.02427499 0.01675433
v 0.06546262 -0.02081687 0.00052829
v 0.07046042 -0.00504275 0.02022249
v 0.06419836 -0.02192331 0.01641968
v 0.07360592 -0.00708019 0.00771872
v 0.05470550 -0.02713725 0.01374998
v 0.07360963 -0.00706262 0.01615408
v 0.06766173 -0.01685684 0.01774249
v 0.05777812 -0.02425615 0.01823188
v 0.06762237 -0.01856567 0.00407680
v 0.05133857 -0.02671847 0.01794234
v 0.07444327 -0.00179472 0.01549349
v 0.05628841 -0.02238040 0.02050000
v 0.06948608 -0.01614437 0.00878887
v 0.05003421 -0.00084730 0.02050000
v 0.05290279 -0.02765094 0.00920652
v 0.07312809 -0.00873404 0.00590534
v 0.05867029 -0.02552648 0.01349991
v 0.05826199 -0.02572119 0.00022710
v 0.07319526 -0.00688013 0.01714408
v 0.07021882 -0.00770022 0.01978317
v 0.05750134 -0.02606320 0.00004702
v 0.07143261 -0.00512110 0.01925406
v 0.06185513 -0.02368009 0.01635236
v 0.06650431 -0.01379350 0.02047290
v 0.06881988 -0.01455799 0.01812192
v 0.06952701 -0.01061329 0.01937704
v 0.07100350 -0.01347708 0.01679134
v 0.06939216 -0.01627951 0.00490788
v 0.06230416 -0.02247922 0.01742546
v 0.05873598 -0.02549417 0.00353160
v 0.05883728 -0.02537576 0.01676050
v 0.05614548 -0.02663296 0.00335349
v 0.06335695 -0.02086816 0.01804898
v 0.07072243 -0.01417739 0.01516076
v 0.06861989 -0.01733424 0.01638335
v 0.06875884 -0.01204244 0.01944306
v 0.07263307 -0.00614857 0.01785683
v 0.05997025 -0.02206872 0.01908062
v 0.06890973 -0.01694452 0.01639609
v 0.07078867 -0.00174616 0.02032582
v 0.06971656 -0.01580374 0.00934253
v 0.07028901 -0.01490819 0.00677324
v 0.07361344 -0.00705182 0.01039197
v 0.05905412 -0.02532775 0.00035774
v 0.05796246 -0.02586697 0.00805456
v 0.07194062 -0.01097715 0.01703232
v 0.07085445 -0.01392341 0.01670973
v 0.07061523 -0.00484306 0.02011062
v 0.07409304 -0.00154369 0.01705865
v 0.05443694 -0.02715896 0.01675558
v 0.06812941 -0.01795915 0.01458216
v 0.07449971 -0.00005660 0.00088989
v 0.05010013 -0.02388151 0.02050000
v 0.07065736 -0.00063739 0.02050000
v 0.05291400 -0.02764818 0.00320460
v 0.05949193 -0.02510382 0.00117340
v 0.06886072 -0.00962562 0.02039291
v 0.07055660 -0.01446099 0.00040929
v 0.06767970 -0.01849910 0.01173893
v 0.06697582 -0.01929057 0.00123488
f 238 35 545
f 238 89 35
f 768 1 88
f 89 238 550
f 550 730 89
f 531 186 769
f 480 238 545
f 545 769 480
f 89 730 220
f 730 271 220
f 220 271 768
f 768 271 586
f 1 768 586
f 36 220 768
f 27 333 35
f 35 89 27
f 545 35 490
f 35 333 490
f 490 769 545
f 306 668 728
f 728 633 306
f 242 769 186
f 88 1 4
f 4 598 88
f 320 36 768
f 89 220 548
f 548 193 89
f 333 27 113
f 531 769 644
f 769 490 644
f 300 78 633
f 300 728 535
f 633 728 300
f 535 528 300
f 539 284 535
f 454 349 637
f 606 120 598
f 454 595 163
f 89 193 419
f 419 27 89
f 419 113 27
f 161 548 2
f 193 548 161
f 248 548 220
f 2 548 248
f 248 135 2
f 173 333 166
f 333 113 166
f 166 419 173
f 113 419 166
f 439 508 766
f 766 147 439
f 453 269 766
f 766 508 453
f 452 147 173
f 439 147 452
f 152 252 333
f 152 333 173
f 405 709 531
f 360 709 405
f 535 728 619
f 619 539 535
f 284 242 540
f 535 284 540
f 473 603 230
f 198 668 306
f 198 595 454
f 454 637 198
f 390 198 306
f 640 198 390
f 559 4 1
f 97 606 251
f 120 606 97
f 220 36 21
f 453 508 219
f 557 354 453
f 453 219 557
f 251 679 521
f 521 679 437
f 362 561 83
f 36 320 3
f 320 313 3
f 385 313 320
f 385 449 313
f 88 598 385
f 120 449 385
f 598 120 385
f 157 508 439
f 267 678 367
f 622 766 269
f 94 152 644
f 252 152 94
f 173 147 96
f 96 152 173
f 531 644 393
f 393 405 531
f 644 152 393
f 217 540 407
f 407 554 217
f 407 540 242
f 407 242 186
f 620 119 473
f 473 230 620
f 668 198 10
f 10 198 637
f 209 615 702
f 402 542 716
f 409 390 306
f 655 559 1
f 306 633 231
f 633 266 231
f 633 154 142
f 142 266 633
f 565 154 633
f 633 208 565
f 454 412 138
f 454 163 524
f 524 412 454
f 541 119 349
f 541 349 454
f 229 103 130
f 478 229 130
f 237 206 717
f 717 683 237
f 308 683 717
f 572 127 720
f 572 561 335
f 335 127 572
f 561 127 335
f 727 492 587
f 251 521 587
f 587 521 727
f 68 317 52
f 317 695 52
f 313 449 9
f 161 144 228
f 228 144 173
f 173 79 228
f 462 7 2
f 42 7 462
f 76 161 2
f 2 7 76
f 76 144 161
f 76 7 144
f 42 452 365
f 365 7 42
f 452 7 365
f 104 7 452
f 144 7 104
f 104 452 173
f 173 144 104
f 721 157 81
f 477 157 439
f 439 367 477
f 473 119 740
f 119 541 740
f 691 542 478
f 716 542 691
f 256 300 528
f 528 19 256
f 19 622 256
f 643 622 19
f 360 405 726
f 726 146 360
f 78 546 245
f 360 146 684
f 684 146 147
f 147 766 684
f 360 554 165
f 554 407 165
f 596 676 45
f 596 615 676
f 701 702 615
f 345 171 529
f 529 441 345
f 345 441 722
f 735 441 529
f 354 557 747
f 557 542 747
f 542 402 747
f 208 75 747
f 640 390 754
f 754 599 640
f 390 672 754
f 672 446 754
f 559 655 770
f 4 559 646
f 251 606 470
f 115 679 251
f 251 470 115
f 473 392 246
f 459 603 473
f 473 246 459
f 211 648 370
f 278 219 508
f 508 297 278
f 542 675 304
f 708 542 557
f 708 675 542
f 708 233 675
f 578 154 82
f 154 565 82
f 633 20 724
f 354 20 693
f 693 20 447
f 693 447 78
f 78 245 693
f 538 541 454
f 454 378 538
f 523 538 647
f 541 538 523
f 460 479 413
f 72 103 99
f 526 410 229
f 206 455 584
f 5 206 584
f 584 107 5
f 223 478 685
f 478 130 685
f 16 130 103
f 16 103 72
f 43 241 483
f 287 72 314
f 72 99 314
f 371 557 219
f 371 54 557
f 206 237 629
f 629 237 683
f 629 455 206
f 683 455 629
f 617 206 5
f 664 617 5
f 572 720 116
f 722 441 116
f 244 125 437
f 433 52 117
f 117 52 695
f 695 489 117
f 44 228 79
f 44 419 193
f 193 161 44
f 161 228 44
f 173 419 44
f 44 79 173
f 508 157 487
f 487 721 508
f 157 721 487
f 68 52 763
f 763 52 676
f 432 126 107
f 362 170 432
f 432 561 362
f 432 584 561
f 107 584 432
f 51 740 474
f 750 516 688
f 688 516 195
f 774 170 195
f 195 332 774
f 544 170 774
f 774 332 544
f 195 516 505
f 505 332 195
f 640 210 745
f 745 198 640
f 595 198 745
f 745 172 595
f 177 582 163
f 177 163 595
f 26 672 716
f 716 691 26
f 26 446 672
f 141 622 269
f 141 256 622
f 622 643 65
f 300 137 488
f 488 137 376
f 167 554 360
f 360 684 167
f 217 554 511
f 511 475 217
f 615 596 351
f 351 596 369
f 45 676 645
f 179 701 694
f 702 701 179
f 752 414 694
f 694 701 752
f 680 345 722
f 680 127 561
f 714 735 529
f 441 735 272
f 441 243 560
f 310 747 75
f 310 724 20
f 310 20 354
f 354 747 310
f 649 402 578
f 649 747 402
f 578 82 649
f 30 565 208
f 208 747 30
f 390 409 86
f 409 66 86
f 316 66 409
f 679 115 322
f 679 322 14
f 773 459 246
f 603 459 296
f 437 679 121
f 121 171 437
f 529 171 121
f 661 121 679
f 718 211 328
f 81 157 613
f 157 477 613
f 658 675 712
f 658 304 675
f 542 304 123
f 123 658 184
f 304 658 123
f 583 208 633
f 633 724 583
f 428 11 647
f 647 538 428
f 108 413 479
f 158 108 479
f 138 108 158
f 454 138 158
f 366 378 454
f 454 262 366
f 478 542 739
f 739 229 478
f 739 526 229
f 381 241 717
f 717 653 381
f 12 16 72
f 130 16 12
f 12 685 130
f 472 435 717
f 717 241 472
f 551 69 500
f 460 318 589
f 421 479 460
f 460 589 421
f 196 99 103
f 196 103 229
f 455 314 196
f 229 584 196
f 196 584 455
f 455 111 162
f 552 455 683
f 552 111 455
f 725 664 77
f 13 69 551
f 522 69 13
f 638 664 725
f 617 664 638
f 725 77 638
f 717 206 183
f 206 617 183
f 616 653 717
f 717 227 616
f 616 481 653
f 483 481 616
f 5 107 263
f 263 664 5
f 341 493 561
f 199 592 341
f 592 659 341
f 341 213 199
f 341 561 220
f 220 213 341
f 171 323 254
f 312 323 171
f 171 593 312
f 424 213 220
f 579 213 424
f 562 424 273
f 519 579 521
f 519 521 437
f 437 125 519
f 315 18 125
f 125 244 315
f 722 116 759
f 759 116 720
f 759 720 127
f 127 680 759
f 571 170 362
f 195 170 571
f 295 695 317
f 295 224 571
f 280 189 498
f 498 105 280
f 498 489 83
f 572 105 498
f 498 561 572
f 498 83 561
f 277 189 280
f 676 52 311
f 329 52 433
f 489 498 621
f 305 9 449
f 305 576 9
f 9 576 556
f 556 576 21
f 556 21 36
f 2 135 47
f 133 319 191
f 118 319 696
f 696 379 118
f 149 763 114
f 696 763 149
f 676 615 743
f 743 763 676
f 696 85 430
f 85 666 430
f 332 505 430
f 614 516 750
f 212 414 392
f 212 392 473
f 434 170 544
f 176 740 541
f 176 474 740
f 51 474 506
f 153 740 51
f 669 60 348
f 348 599 669
f 640 599 348
f 348 210 640
f 436 60 669
f 210 348 436
f 436 348 60
f 749 318 460
f 582 318 749
f 590 159 555
f 159 98 555
f 337 98 93
f 93 291 337
f 182 291 93
f 595 182 93
f 93 177 595
f 286 318 582
f 582 177 286
f 410 526 415
f 775 77 664
f 775 638 77
f 128 69 522
f 622 65 294
f 294 65 217
f 217 475 294
f 255 137 300
f 300 488 443
f 78 300 443
f 443 546 78
f 425 511 554
f 6 575 45
f 45 645 6
f 753 714 529
f 660 272 735
f 441 272 290
f 280 105 553
f 66 316 124
f 124 316 578
f 578 402 124
f 368 591 646
f 368 646 559
f 80 14 765
f 765 14 322
f 131 773 246
f 762 773 340
f 676 311 762
f 648 296 110
f 110 296 459
f 370 648 110
f 181 121 134
f 121 661 134
f 200 211 25
f 25 770 200
f 25 756 559
f 559 770 25
f 17 211 370
f 581 708 557
f 557 388 581
f 635 523 647
f 438 523 635
f 495 538 401
f 495 428 538
f 495 401 429
f 723 523 438
f 465 299 454
f 465 569 299
f 188 739 542
f 526 739 188
f 542 139 188
f 188 415 526
f 214 415 188
f 507 72 543
f 223 685 298
f 298 12 223
f 685 12 298
f 627 472 534
f 534 241 43
f 534 472 241
f 588 507 543
f 543 72 588
f 588 72 287
f 435 472 719
f 398 775 664
f 396 589 569
f 396 421 589
f 299 569 585
f 569 408 585
f 585 568 454
f 515 262 454
f 454 609 515
f 262 515 352
f 353 314 99
f 99 196 353
f 353 196 314
f 219 278 628
f 178 13 776
f 776 227 293
f 522 13 467
f 467 638 522
f 468 13 551
f 627 704 468
f 468 776 13
f 551 569 468
f 569 719 468
f 468 472 627
f 468 719 472
f 674 638 178
f 617 638 674
f 674 183 617
f 293 227 276
f 276 183 293
f 276 227 717
f 717 183 276
f 471 616 227
f 107 126 387
f 55 387 169
f 437 659 234
f 234 659 592
f 493 341 639
f 639 659 699
f 639 341 659
f 257 593 171
f 171 345 257
f 257 680 561
f 345 680 257
f 705 659 437
f 705 254 659
f 437 171 705
f 171 254 705
f 699 659 32
f 32 312 699
f 323 312 32
f 699 312 91
f 91 639 699
f 493 639 91
f 91 312 593
f 562 273 64
f 697 424 220
f 697 273 424
f 727 521 283
f 521 579 283
f 520 562 727
f 727 250 520
f 579 424 74
f 199 213 605
f 605 213 579
f 221 18 579
f 579 519 221
f 125 18 221
f 221 519 125
f 261 315 199
f 199 605 261
f 18 315 261
f 261 605 579
f 579 18 261
f 711 680 722
f 722 759 711
f 711 759 680
f 199 315 100
f 100 315 244
f 100 244 437
f 195 571 302
f 571 224 302
f 62 295 33
f 73 317 68
f 73 295 317
f 611 489 695
f 362 83 611
f 83 489 611
f 663 498 192
f 444 243 441
f 277 570 444
f 383 311 52
f 192 311 383
f 52 329 383
f 383 663 192
f 498 663 383
f 383 329 489
f 383 621 498
f 433 117 22
f 22 329 433
f 22 117 489
f 489 329 22
f 81 613 525
f 536 375 92
f 536 321 239
f 239 375 536
f 61 47 135
f 731 321 536
f 731 47 321
f 253 461 126
f 253 126 420
f 420 126 175
f 126 432 175
f 63 118 51
f 51 118 741
f 741 153 51
f 148 149 114
f 694 414 148
f 414 212 148
f 203 615 209
f 203 743 615
f 558 614 750
f 68 763 558
f 558 763 696
f 558 73 68
f 295 73 558
f 558 62 33
f 33 295 558
f 136 666 85
f 411 432 170
f 170 434 411
f 411 434 432
f 418 757 574
f 418 136 85
f 574 757 497
f 432 434 497
f 497 434 574
f 497 757 577
f 577 432 497
f 600 506 474
f 527 506 625
f 29 182 590
f 29 291 182
f 37 98 159
f 37 93 98
f 410 415 624
f 624 415 214
f 229 410 624
f 624 584 229
f 624 681 584
f 397 128 522
f 522 638 397
f 397 500 69
f 69 128 397
f 453 137 226
f 137 255 226
f 151 443 488
f 151 488 376
f 376 137 151
f 453 354 151
f 151 137 453
f 554 167 389
f 240 684 766
f 718 714 342
f 406 660 735
f 496 290 272
f 280 553 15
f 80 591 343
f 591 368 343
f 343 14 80
f 377 6 340
f 575 6 377
f 340 773 377
f 773 131 377
f 651 121 181
f 718 517 764
f 764 211 718
f 260 661 679
f 260 400 661
f 756 25 336
f 282 328 211
f 211 17 282
f 233 708 733
f 708 581 733
f 40 721 81
f 40 525 359
f 81 525 40
f 692 658 712
f 184 658 692
f 542 123 464
f 464 139 542
f 454 158 642
f 642 465 454
f 380 609 454
f 454 568 380
f 106 123 214
f 106 464 123
f 139 464 106
f 627 534 364
f 43 483 364
f 483 616 364
f 507 588 309
f 72 507 309
f 569 589 201
f 201 719 569
f 669 691 201
f 201 691 478
f 201 478 223
f 223 12 201
f 201 12 72
f 201 309 588
f 72 309 201
f 164 201 588
f 719 201 164
f 84 500 664
f 133 500 84
f 652 84 664
f 687 84 652
f 202 585 408
f 568 585 202
f 630 352 500
f 500 289 630
f 647 11 630
f 551 500 703
f 500 352 703
f 703 569 551
f 703 408 569
f 610 628 673
f 673 58 610
f 715 13 178
f 715 467 13
f 178 638 715
f 638 467 715
f 178 776 338
f 338 674 178
f 338 776 293
f 293 674 338
f 293 183 207
f 207 674 293
f 183 674 207
f 275 471 227
f 227 776 275
f 776 468 275
f 704 471 275
f 275 468 704
f 107 387 23
f 23 387 55
f 23 263 107
f 593 257 218
f 493 91 218
f 218 91 593
f 218 257 561
f 706 32 659
f 323 32 706
f 562 64 50
f 50 492 727
f 727 562 50
f 579 74 580
f 580 283 579
f 580 250 727
f 727 283 580
f 567 592 199
f 199 100 567
f 567 234 592
f 437 234 567
f 567 100 437
f 427 277 192
f 427 665 277
f 189 665 427
f 427 498 189
f 192 498 427
f 189 277 122
f 122 665 189
f 277 665 122
f 192 277 8
f 277 444 8
f 8 311 192
f 8 290 602
f 441 290 8
f 8 444 441
f 403 662 8
f 8 736 403
f 8 662 773
f 243 444 466
f 466 444 570
f 570 373 466
f 489 621 187
f 187 383 489
f 621 383 187
f 773 762 485
f 485 456 773
f 536 92 71
f 439 452 71
f 71 452 42
f 321 47 771
f 631 61 135
f 135 678 631
f 678 267 631
f 42 462 518
f 518 462 2
f 2 47 518
f 259 71 42
f 536 71 259
f 326 594 577
f 150 573 31
f 191 307 185
f 608 191 319
f 608 307 191
f 319 118 274
f 118 63 274
f 547 510 694
f 694 148 547
f 547 148 114
f 544 332 190
f 102 558 696
f 696 430 102
f 102 430 505
f 102 505 516
f 90 558 224
f 62 558 90
f 224 295 90
f 295 62 90
f 681 624 689
f 584 681 689
f 689 624 214
f 689 123 184
f 214 123 689
f 638 775 654
f 654 397 638
f 500 397 654
f 511 425 504
f 425 240 504
f 684 240 690
f 714 753 41
f 41 342 714
f 718 342 451
f 660 406 426
f 370 272 156
f 156 416 370
f 563 272 370
f 290 496 501
f 501 563 370
f 496 563 501
f 222 553 105
f 686 15 634
f 457 373 330
f 243 466 330
f 732 15 686
f 280 15 732
f 732 277 280
f 732 570 277
f 369 131 145
f 698 131 246
f 698 292 131
f 370 110 258
f 370 736 394
f 394 501 370
f 290 501 394
f 738 517 718
f 121 517 738
f 718 451 738
f 70 651 181
f 53 651 70
f 160 517 121
f 121 651 160
f 53 764 682
f 682 764 517
f 334 25 211
f 211 764 334
f 566 336 25
f 233 733 265
f 265 530 233
f 675 233 532
f 746 581 388
f 388 530 746
f 361 388 557
f 557 54 361
f 388 58 734
f 734 58 673
f 135 248 494
f 494 678 135
f 561 584 494
f 367 678 494
f 220 561 494
f 494 248 220
f 494 477 367
f 508 721 279
f 721 40 279
f 635 289 48
f 484 600 601
f 484 500 133
f 484 289 500
f 214 188 395
f 395 106 214
f 395 188 139
f 139 106 395
f 168 534 43
f 43 364 168
f 168 364 534
f 210 436 270
f 270 745 210
f 270 436 669
f 669 201 270
f 270 159 590
f 270 589 159
f 270 201 589
f 590 182 270
f 172 745 270
f 595 172 270
f 270 182 595
f 670 162 111
f 719 164 670
f 719 288 355
f 355 288 308
f 717 435 355
f 355 308 717
f 597 288 719
f 597 552 683
f 683 308 597
f 308 288 597
f 285 319 133
f 133 84 285
f 84 372 285
f 285 418 85
f 696 319 285
f 285 85 696
f 751 84 623
f 751 372 84
f 664 263 502
f 687 652 767
f 623 84 767
f 767 84 687
f 399 630 11
f 352 630 399
f 352 399 618
f 401 352 618
f 429 401 618
f 641 352 515
f 641 703 352
f 358 628 278
f 358 67 628
f 673 628 564
f 628 67 564
f 219 628 626
f 628 610 626
f 626 371 219
f 54 371 626
f 626 361 54
f 626 610 58
f 561 493 87
f 87 218 561
f 493 218 87
f 281 254 323
f 323 706 281
f 659 254 281
f 281 706 659
f 362 611 194
f 194 611 695
f 194 571 362
f 194 295 571
f 695 295 194
f 671 8 602
f 8 671 140
f 773 456 612
f 612 8 773
f 458 373 457
f 458 466 373
f 457 330 458
f 458 330 466
f 357 762 311
f 357 485 762
f 47 61 56
f 56 771 47
f 42 518 442
f 442 518 707
f 442 259 42
f 143 518 47
f 707 518 143
f 536 259 38
f 38 442 707
f 729 326 31
f 594 326 729
f 331 744 431
f 431 175 331
f 384 573 431
f 431 744 384
f 31 573 384
f 384 729 31
f 31 347 324
f 324 150 31
f 39 506 527
f 191 185 39
f 39 185 51
f 51 506 39
f 264 215 379
f 148 215 264
f 264 379 696
f 95 148 212
f 95 215 148
f 510 547 499
f 743 510 499
f 763 743 499
f 339 434 544
f 544 190 339
f 666 136 339
f 574 434 339
f 614 558 34
f 558 102 34
f 516 614 34
f 34 102 516
f 136 418 112
f 418 469 112
f 112 339 136
f 469 339 112
f 775 398 155
f 155 654 775
f 684 690 132
f 344 425 554
f 554 389 344
f 389 132 344
f 344 132 690
f 503 240 425
f 503 690 240
f 486 406 370
f 486 426 406
f 370 416 486
f 180 496 272
f 272 563 180
f 180 563 496
f 553 222 650
f 131 292 129
f 129 145 131
f 369 145 742
f 742 351 369
f 356 736 370
f 370 258 356
f 445 764 53
f 53 70 445
f 661 400 327
f 327 350 661
f 661 350 232
f 232 509 134
f 232 134 661
f 25 509 232
f 232 350 25
f 25 350 24
f 24 566 25
f 14 566 24
f 25 70 440
f 440 509 25
f 440 70 181
f 101 733 581
f 101 265 733
f 581 746 101
f 530 265 101
f 101 746 530
f 712 675 514
f 514 532 712
f 675 532 514
f 712 532 374
f 247 689 184
f 482 494 40
f 482 525 613
f 359 525 482
f 482 613 477
f 477 494 482
f 423 723 438
f 423 48 289
f 289 484 423
f 601 723 423
f 423 484 601
f 382 484 133
f 133 527 382
f 527 625 382
f 506 600 391
f 600 484 391
f 49 670 111
f 719 670 49
f 49 597 719
f 111 552 49
f 552 597 49
f 435 719 667
f 667 355 435
f 719 355 667
f 31 285 476
f 476 347 31
f 448 512 235
f 372 751 636
f 751 463 636
f 169 463 346
f 55 169 346
f 346 751 55
f 346 463 751
f 204 630 289
f 289 303 204
f 216 358 278
f 673 564 268
f 40 494 268
f 46 564 67
f 761 58 388
f 761 626 58
f 388 361 761
f 361 626 761
f 677 23 55
f 55 512 677
f 263 23 677
f 677 502 263
f 736 8 205
f 8 140 205
f 205 394 736
f 259 442 491
f 491 38 259
f 442 38 491
f 710 331 175
f 710 175 432
f 710 432 577
f 577 594 710
f 666 339 758
f 758 339 190
f 758 430 666
f 332 430 758
f 758 190 332
f 574 339 236
f 236 339 469
f 236 418 574
f 236 469 418
f 500 654 700
f 654 155 700
f 700 155 398
f 664 500 700
f 700 398 664
f 441 657 174
f 174 116 441
f 572 116 174
f 197 325 634
f 197 634 15
f 243 325 197
f 679 14 225
f 14 24 225
f 632 513 184
f 184 692 632
f 632 692 712
f 712 374 632
f 760 247 530
f 734 247 760
f 760 530 388
f 388 734 760
f 249 40 359
f 359 482 249
f 755 285 372
f 755 476 285
f 623 235 537
f 537 751 623
f 55 751 537
f 537 512 55
f 537 235 512
f 301 28 404
f 404 289 635
f 404 28 303
f 404 303 289
f 647 301 404
f 404 635 647
f 673 268 737
f 737 268 494
f 737 734 673
f 584 689 737
f 737 494 584
f 689 247 737
f 737 247 734
f 564 46 713
f 713 268 564
f 713 279 40
f 40 268 713
f 713 216 278
f 502 677 533
f 57 105 572
f 572 174 57
f 57 222 105
f 57 657 222
f 57 174 657
f 553 650 604
f 422 197 650
f 243 197 422
f 422 560 243
f 772 632 374
f 513 632 772
f 530 247 772
f 184 513 772
f 772 247 184
f 549 482 40
f 40 249 549
f 549 249 482
f 636 450 656
f 656 450 461
f 461 253 656
f 59 636 463
f 59 450 636
f 417 278 297
f 417 297 508
f 508 279 417
f 109 533 677
f 109 512 448
f 109 677 512
f 650 197 363
f 363 604 650
f 530 772 607
f 233 530 607
f 607 532 233
f 386 713 278
f 279 713 748
f 748 417 279
f 713 386 748
f 385 320 768
f 385 768 88
f 94 644 490
f 94 490 333
f 333 252 94
f 78 447 20
f 633 78 20
f 726 96 147
f 726 393 152
f 152 96 726
f 405 393 726
f 147 146 726
f 531 709 165
f 165 186 531
f 165 709 360
f 165 407 186
f 26 754 446
f 26 691 669
f 669 599 26
f 599 754 26
f 65 19 528
f 65 528 535
f 535 540 65
f 65 540 217
f 65 643 19
f 30 82 565
f 747 649 30
f 30 649 82
f 316 154 578
f 316 409 306
f 306 231 316
f 316 142 154
f 316 231 266
f 266 142 316
f 1 586 296
f 296 586 271
f 296 550 238
f 119 620 296
f 238 480 296
f 730 550 296
f 296 271 730
f 296 480 769
f 296 728 668
f 769 242 296
f 296 619 728
f 296 242 284
f 284 539 296
f 668 10 296
f 349 119 296
f 296 637 349
f 296 655 1
f 539 619 296
f 296 230 603
f 296 620 230
f 296 10 637
f 296 211 200
f 200 770 296
f 296 770 655
f 648 211 296
f 583 310 75
f 583 75 208
f 724 310 583
f 241 381 481
f 481 483 241
f 481 381 653
f 556 3 313
f 36 3 556
f 313 9 556
f 749 108 138
f 749 524 163
f 749 138 412
f 412 524 749
f 163 582 749
f 460 413 749
f 413 108 749
f 716 672 124
f 124 402 716
f 124 672 390
f 390 86 124
f 124 86 66
f 765 606 598
f 598 4 765
f 4 646 765
f 765 591 80
f 765 470 606
f 765 115 470
f 646 591 765
f 765 322 115
f 762 645 676
f 340 6 762
f 762 6 645
f 454 299 585
f 352 538 378
f 401 538 352
f 378 366 352
f 352 366 262
f 510 179 694
f 209 702 510
f 510 203 209
f 702 179 510
f 743 203 510
f 750 688 558
f 195 302 558
f 558 688 195
f 558 302 224
f 523 723 600
f 541 523 600
f 600 723 601
f 600 176 541
f 474 176 600
f 29 98 337
f 590 555 29
f 337 291 29
f 29 555 98
f 318 286 37
f 159 589 37
f 37 589 318
f 177 93 37
f 37 286 177
f 226 141 269
f 226 269 453
f 300 256 226
f 256 141 226
f 226 255 300
f 354 693 151
f 151 693 245
f 546 443 151
f 151 245 546
f 369 596 377
f 377 596 45
f 45 575 377
f 377 131 369
f 282 17 370
f 282 714 718
f 735 714 282
f 718 328 282
f 370 406 282
f 282 406 735
f 479 421 642
f 642 158 479
f 569 465 642
f 642 396 569
f 421 396 642
f 364 704 627
f 364 471 704
f 616 471 364
f 50 97 251
f 220 21 50
f 50 449 120
f 120 97 50
f 21 576 50
f 50 697 220
f 251 587 50
f 50 587 492
f 50 305 449
f 576 305 50
f 50 64 273
f 273 697 50
f 562 520 580
f 580 424 562
f 580 520 250
f 580 74 424
f 51 185 274
f 274 63 51
f 274 608 319
f 274 185 307
f 307 608 274
f 504 240 766
f 622 294 504
f 766 622 504
f 475 511 504
f 504 294 475
f 738 753 529
f 529 121 738
f 738 41 753
f 342 41 738
f 738 451 342
f 682 651 53
f 517 160 682
f 682 160 651
f 566 368 559
f 559 756 566
f 756 336 566
f 14 343 566
f 566 343 368
f 287 314 670
f 670 588 287
f 670 314 455
f 455 162 670
f 670 164 588
f 285 326 577
f 577 757 285
f 757 418 285
f 31 326 285
f 618 399 11
f 618 495 429
f 11 428 618
f 428 495 618
f 641 202 408
f 641 515 609
f 609 380 641
f 641 380 568
f 568 202 641
f 408 703 641
f 311 8 357
f 357 612 456
f 456 485 357
f 8 612 357
f 56 267 367
f 56 367 439
f 56 239 321
f 321 771 56
f 56 92 375
f 375 239 56
f 439 71 56
f 56 71 92
f 56 631 267
f 61 631 56
f 38 731 536
f 38 143 47
f 47 731 38
f 707 143 38
f 133 191 39
f 39 527 133
f 149 148 264
f 696 149 264
f 95 118 379
f 473 740 95
f 95 212 473
f 740 153 95
f 95 741 118
f 153 741 95
f 379 215 95
f 499 547 114
f 114 763 499
f 132 389 167
f 132 167 684
f 503 344 690
f 425 344 503
f 660 426 486
f 272 660 486
f 486 156 272
f 416 156 486
f 243 330 325
f 325 732 686
f 325 373 570
f 686 634 325
f 325 330 373
f 570 732 325
f 742 701 615
f 392 414 742
f 742 246 392
f 615 351 742
f 414 752 742
f 742 752 701
f 742 129 292
f 742 698 246
f 292 698 742
f 145 129 742
f 356 110 459
f 459 773 356
f 773 662 356
f 356 662 403
f 403 736 356
f 356 258 110
f 445 70 25
f 25 334 445
f 445 334 764
f 134 509 440
f 181 134 440
f 438 635 423
f 635 48 423
f 391 382 625
f 391 625 506
f 484 382 391
f 647 630 204
f 204 301 647
f 204 28 301
f 303 28 204
f 205 671 602
f 602 290 205
f 290 394 205
f 205 140 671
f 710 384 744
f 594 729 710
f 744 331 710
f 729 384 710
f 225 260 679
f 225 327 400
f 400 260 225
f 350 327 225
f 225 24 350
f 358 216 713
f 67 358 713
f 713 46 67
f 441 560 422
f 422 657 441
f 222 657 422
f 422 650 222
f 420 175 656
f 656 253 420
f 656 324 347
f 656 175 431
f 431 573 656
f 347 476 656
f 573 150 656
f 150 324 656
f 656 755 372
f 372 636 656
f 476 755 656
f 59 169 387
f 59 387 126
f 59 463 169
f 126 461 59
f 461 450 59
f 623 767 109
f 109 652 664
f 664 502 109
f 109 235 623
f 109 767 652
f 448 235 109
f 502 533 109
f 363 15 553
f 363 197 15
f 553 604 363
f 607 772 374
f 607 374 532
f 278 417 748
f 748 386 278

