# https://github.com/mikedh/trimesh
v -0.02293227 -0.03759732 -0.04949269
v -0.00564537 -0.02012916 -0.04550748
v -0.01961810 -0.01557785 -0.04185796
v -0.02193464 -0.01242904 -0.03880892
v -0.03092762 -0.00894912 -0.02731068
v -0.02997885 -0.00895121 -0.03074684
v -0.00036576 -0.00199999 -0.00043835
v -0.00031608 -0.02307216 -0.04709228
v -0.00719988 -0.03107036 -0.04953363
v -0.00588316 -0.03391406 -0.04998562
v -0.01916380 -0.01258164 -0.03915600
v -0.03101237 -0.00649438 -0.01815406
v -0.02813279 -0.04185053 -0.04887566
v -0.02119493 -0.02634527 -0.04762856
v -0.03072433 -0.01497342 -0.03660706
v -0.00837892 -0.04731175 -0.04901919
v -0.00850004 -0.04254746 -0.04994737
v -0.02647911 -0.01584913 -0.04145004
v -0.01042301 -0.01506145 -0.04196712
v -0.02918522 -0.03719145 -0.04865672
v -0.00839093 -0.03363776 -0.04994759
v -0.03068817 -0.01283002 -0.03426102
v -0.00896577 -0.01333641 -0.04048688
v -0.03101238 -0.01264524 -0.03316270
v -0.00698183 -0.04263998 -0.04994749
v -0.02179817 -0.04242230 -0.04932064
v -0.02313828 -0.01571145 -0.04167434
v -0.02839712 -0.03320492 -0.04875231
v -0.02079926 -0.03558269 -0.04951111
v -0.00083935 -0.02878301 -0.04914518
v -0.02467947 -0.01578112 -0.04157647
v -0.02969585 -0.02556686 -0.04562493
v -0.02091747 -0.01527964 -0.04150425
v -0.00375436 -0.02891768 -0.04915857
v -0.00857631 -0.04198532 -0.04998155
v -0.02939713 -0.02036063 -0.04359330
v -0.02048651 -0.03769026 -0.04966877
v -0.02457523 -0.02424302 -0.04660693
v -0.02949439 -0.01729095 -0.04138879
v -0.02091237 -0.02552710 -0.04734304
v -0.03094571 -0.00933361 -0.02799420
v -0.00091745 -0.01426790 -0.04143464
v -0.00041041 -0.02329092 -0.04719431
v -0.01897755 -0.03867916 -0.04970426
v -0.01991209 -0.02799770 -0.04829326
v -0.00840578 -0.01239640 -0.03965132
v -0.03101232 -0.00914971 -0.00038045
v -0.01360624 -0.03802953 -0.04999522
v -0.02107185 -0.04304987 -0.04926642
v -0.02912516 -0.02940450 -0.04769771
v -0.02911030 -0.00928821 -0.03366654
v -0.02735238 -0.02898897 -0.04800392
v -0.02519609 -0.04254438 -0.04904397
v -0.00775617 -0.03132377 -0.04957235
v -0.00746370 -0.03331361 -0.04993271
v -0.02646044 -0.01980128 -0.04418959
v -0.03095184 -0.00608054 -0.01404495
v -0.02862553 -0.03296821 -0.04862959
v -0.03095170 -0.03883742 -0.04581935
v -0.02923986 -0.01161667 -0.03650341
v -0.00542765 -0.02815003 -0.04893970
v -0.03101238 -0.00695585 -0.02039469
v -0.02881386 -0.02990346 -0.04804330
v -0.02885101 -0.01370050 -0.03915480
v -0.03063187 -0.01878744 -0.04009403
v -0.02920393 -0.03867408 -0.04867871
v -0.02932616 -0.03302234 -0.04814487
v -0.02896949 -0.02610944 -0.04679370
v -0.03084121 -0.01531784 -0.03666757
v -0.00523030 -0.02907876 -0.04917963
v -0.03101234 -0.00708315 -0.00644071
v -0.02915913 -0.03147517 -0.04808262
v -0.03095294 -0.03185198 -0.04523097
v -0.00969861 -0.03321687 -0.04986902
v -0.00581449 -0.02326737 -0.04714145
v -0.02869483 -0.00970041 -0.03475468
v -0.00891550 -0.02237738 -0.04664402
v -0.00686603 -0.02738893 -0.04868061
v -0.02917514 -0.02332823 -0.04543605
v -0.02104363 -0.01423433 -0.04054365
v -0.02805972 -0.00000000 -0.00392048
v -0.02884823 -0.02589545 -0.04678132
v -0.00865856 -0.02617195 -0.04818887
v -0.02927525 -0.01484515 -0.03973299
v -0.02920585 -0.01995835 -0.04363624
v -0.02018282 -0.04700355 -0.04854283
v -0.01788239 -0.03326807 -0.04949025
v -0.00005690 -0.04893587 -0.04854667
v -0.02852956 -0.01109961 -0.03648599
v -0.00415971 -0.00000000 -0.02727452
v -0.01319703 -0.02847579 -0.04878072
v -0.02175716 -0.03823196 -0.04958420
v -0.03069263 -0.03885892 -0.04625995
v -0.02867630 -0.03012661 -0.04813884
v -0.02891316 -0.04690362 -0.04771505
v -0.03101241 -0.04027112 -0.04560343
v -0.02214925 -0.01227886 -0.03864958
v -0.00980990 -0.00000000 -0.02642180
v -0.01994879 -0.02789435 -0.04825873
v -0.02925500 -0.03715526 -0.04859183
v -0.00001223 -0.02149199 -0.04626876
v -0.02846756 -0.02673895 -0.04719765
v -0.03066152 -0.04785269 -0.04479618
v -0.02413470 -0.04333916 -0.04900046
v -0.00818154 -0.02344177 -0.04718674
v -0.02516371 -0.02795000 -0.04788804
v -0.03101238 -0.00797469 -0.02361242
v -0.03033774 -0.04791599 -0.04535072
v -0.02934868 -0.02552663 -0.04621429
v -0.00732314 -0.01228977 -0.03956538
v -0.00603056 -0.01936223 -0.04510318
v -0.02469795 -0.00014698 -0.01390740
v -0.03041246 -0.01521764 -0.00002086
v -0.02915020 -0.01547400 -0.04045060
v -0.02115490 -0.03643324 -0.04955162
v -0.02575626 -0.01245888 -0.03843154
v -0.03092780 -0.02729875 -0.04402150
v -0.03066255 -0.03929561 -0.04629911
v -0.02197610 -0.03329004 -0.04927533
v -0.02919607 -0.02978886 -0.04775284
v -0.03090936 -0.01932924 -0.03990456
v -0.01187985 -0.02232324 -0.04645983
v -0.01441705 -0.04258836 -0.04967170
v -0.02940369 -0.04565233 -0.04754410
v -0.01852924 -0.02814943 -0.04841197
v -0.02734940 -0.00000000 -0.00034889
v -0.01817862 -0.01944880 -0.04462577
v -0.00093899 -0.01390335 -0.04110218
v -0.00851709 -0.04281980 -0.04990067
v -0.01638879 -0.02603363 -0.04775438
v -0.03101241 -0.01999245 -0.03996551
v -0.02151034 -0.04240353 -0.04934409
v -0.00854277 -0.01923542 -0.04501513
v -0.02765547 -0.02919994 -0.04803511
v -0.01551303 -0.02892464 -0.04879841
v -0.02945626 -0.03661517 -0.04827299
v -0.02909695 -0.00649835 -0.02812825
v -0.03101239 -0.04985764 -0.04243755
v -0.00894052 -0.02702807 -0.04849079
v -0.01948836 -0.03787134 -0.04972768
v -0.00121805 -0.03087360 -0.04954371
v -0.02832246 -0.03536797 -0.04896996
v -0.00632287 -0.01510261 -0.04213926
v -0.03041246 -0.04994264 -0.00349784
v -0.03093022 -0.01036476 -0.03002856
v -0.02916638 -0.03618865 -0.04864729
v -0.03086774 -0.02506004 -0.04324436
v -0.02903351 -0.01812906 -0.04261648
v -0.03065566 -0.02553082 -0.04384470
v -0.02700923 -0.04394531 -0.04868370
v -0.03100939 -0.01290168 -0.03348672
v -0.00101312 -0.00005596 -0.02713585
v -0.00710333 -0.00000000 -0.02696068
v -0.03097318 -0.00901439 -0.02727280
v -0.03089330 -0.00954394 -0.02859382
v -0.00779705 -0.02898759 -0.04910862
v -0.02898013 -0.01636198 -0.04141515
v -0.01005861 -0.04238113 -0.04989171
v -0.02704623 -0.04989556 -0.04711493
v -0.02993599 -0.03925077 -0.04753638
v -0.03076460 -0.02239519 -0.04212455
v -0.00804215 -0.03258076 -0.04980713
v -0.03101239 -0.00965796 -0.02819685
v -0.01946456 -0.01558869 -0.04187437
v -0.03101240 -0.04171004 -0.04540762
v -0.00919991 -0.04285898 -0.04986693
v -0.03098574 -0.00646730 -0.00889302
v -0.02395054 -0.03855201 -0.04941902
v -0.02193133 -0.01972002 -0.04454258
v -0.02939931 -0.01382958 -0.03859730
v -0.02826190 -0.03012820 -0.04819464
v -0.02963434 -0.01369425 -0.03795520
v -0.02074551 -0.00004491 -0.01930158
v -0.02100686 -0.02323815 -0.04645819
v -0.03081587 -0.04442825 -0.04539659
v -0.02852959 -0.01471137 -0.04019675
v -0.01647403 -0.01943389 -0.04470762
v -0.02070086 -0.03271843 -0.04925191
v -0.02041275 -0.04738662 -0.04841548
v -0.02940533 -0.01336211 -0.03815966
v -0.02115965 -0.01544433 -0.04163806
v -0.02944084 -0.04631169 -0.04731879
v -0.00776088 -0.03189833 -0.04968278
v -0.02085942 -0.02813302 -0.04827780
v -0.00181802 -0.01369244 -0.04090085
v -0.03101241 -0.02535367 -0.04294329
v -0.02250674 -0.03803041 -0.04954298
v -0.02125719 -0.04507620 -0.04886131
v -0.02701493 -0.02362506 -0.04614030
v -0.00457974 -0.04999286 -0.04815882
v -0.02935217 -0.00555287 -0.02345576
v -0.03083407 -0.01329166 -0.03442830
v -0.02818913 -0.02328202 -0.04585843
v -0.03096754 -0.00717418 -0.00543127
v -0.02902140 -0.04458949 -0.04825326
v -0.02388539 -0.02891257 -0.04827434
v -0.02883778 -0.01776760 -0.04249673
v -0.02939296 -0.03958783 -0.04843824
v -0.02224632 -0.01946290 -0.04438065
v -0.01984367 -0.02863980 -0.04847601
v -0.02122957 -0.01216358 -0.03862552
v -0.01884626 -0.02774403 -0.04826265
v -0.02196760 -0.02789708 -0.04813081
v -0.00486649 -0.02322186 -0.04713116
v -0.02293106 -0.02367697 -0.04650896
v -0.02386432 -0.03793855 -0.04943949
v -0.03101241 -0.01473036 -0.03544521
v -0.02848943 -0.01422165 -0.03975880
v -0.00006022 -0.04706623 -0.04914425
v -0.01100250 -0.01952177 -0.04504130
v -0.02882459 -0.03297861 -0.04854988
v -0.00882888 -0.03375371 -0.04994608
v -0.02871162 -0.02769879 -0.04740754
v -0.02897659 -0.01002920 -0.03500182
v -0.02124849 -0.02986138 -0.04866351
v -0.02688609 -0.03930975 -0.04916997
v -0.02807738 -0.02884393 -0.04790236
v -0.02867525 -0.01831050 -0.04293447
v -0.02207644 -0.02898700 -0.04843118
v -0.00370380 -0.02075395 -0.04585095
v -0.03097151 -0.01759164 -0.03838331
v -0.02942605 -0.01986361 -0.04321566
v -0.00000604 -0.00200000 -0.01719801
v -0.02847994 -0.04649926 -0.04800799
v -0.02901937 -0.00662884 -0.02861709
v -0.03095019 -0.00870324 -0.02666801
v -0.02689305 -0.02914687 -0.04808584
v -0.00538149 -0.00000000 -0.02717089
v -0.00263378 -0.01180170 -0.03916924
v -0.03101235 -0.00820663 -0.00266266
v -0.00897415 -0.01885788 -0.04475781
v -0.02225836 -0.01930294 -0.04427144
v -0.02944105 -0.00900620 -0.03249671
v -0.02891987 -0.04681593 -0.04773463
v -0.02779643 -0.02488454 -0.04660390
v -0.03051609 -0.03057273 -0.04571510
v -0.00016458 -0.01698288 -0.04354293
v -0.00187838 -0.04735146 -0.04905852
v -0.01694358 -0.04260592 -0.04954837
v -0.00865703 -0.02606553 -0.04814969
v -0.02125514 -0.01899784 -0.04415276
v -0.00848100 -0.01466923 -0.04172190
v -0.02100097 -0.02486786 -0.04709569
v -0.03055786 -0.02672699 -0.04448441
v -0.02715822 -0.00199999 -0.00001312
v -0.02926521 -0.02414944 -0.04572753
v -0.02946048 -0.01735250 -0.04149810
v -0.02324946 -0.02397825 -0.04660712
v -0.00728349 -0.02969513 -0.04926585
v -0.02842304 -0.00876064 -0.03346862
v -0.03101239 -0.04992312 -0.04231819
v -0.03054531 -0.03504334 -0.04637988
v -0.02940472 -0.02898182 -0.04721017
v -0.02612929 -0.02086799 -0.04477620
v -0.03098574 -0.03637307 -0.04569803
v -0.02144806 -0.03269529 -0.04920194
v -0.00005811 -0.01206351 -0.03943456
v -0.01878156 -0.00012736 -0.02143004
v -0.01307679 -0.01419757 -0.04101249
v -0.02365689 -0.02892348 -0.04829602
v -0.00997258 -0.04252447 -0.04988686
v -0.02823381 -0.02029307 -0.04429186
v -0.02919110 -0.01539126 -0.04033019
v -0.03097309 -0.00880805 -0.02682218
v -0.02930677 -0.01412539 -0.03903945
v -0.00763128 -0.01887520 -0.04479672
v -0.01734685 -0.01309137 -0.03973511
v -0.02929536 -0.01654415 -0.04118351
v -0.00011741 -0.02686907 -0.04852393
v -0.03019929 -0.00952454 -0.03098092
v -0.01028721 -0.03174841 -0.04957624
v -0.01796499 -0.02039897 -0.04513377
v -0.02845814 -0.00749138 -0.03121687
v -0.02951467 -0.02137859 -0.04398524
v -0.03085725 -0.04407371 -0.04539969
v -0.01790379 -0.03798330 -0.04979743
v -0.02580749 -0.04969880 -0.04728035
v -0.01351064 -0.02913150 -0.04894481
v -0.00688039 -0.02795455 -0.04885949
v -0.02996783 -0.00858362 -0.03007523
v -0.03057349 -0.01278957 -0.03451887
v -0.00064291 -0.01753232 -0.04392279
v -0.02363160 -0.03329247 -0.04914645
v -0.03067495 -0.04657886 -0.04512770
v -0.01054199 -0.04202444 -0.04989120
v -0.01107208 -0.04627308 -0.04911679
v -0.02865021 -0.03216825 -0.04848764
v -0.01016743 -0.02309070 -0.04695113
v -0.02284832 -0.02867867 -0.04828935
v -0.02849710 -0.00957755 -0.03464457
v -0.00922020 -0.01240401 -0.03962109
v -0.02676989 -0.04256620 -0.04891723
v -0.02832065 -0.04744840 -0.04779138
v -0.01635513 -0.04716547 -0.04868824
v -0.03101240 -0.04350299 -0.04520355
v -0.02903283 -0.00670121 -0.02876976
v -0.00670434 -0.01531313 -0.04231370
v -0.01617671 -0.02338583 -0.04678913
v -0.00422923 -0.00000000 -0.02681208
v -0.02934408 -0.03084002 -0.04775464
v -0.03000531 -0.00849061 -0.02975826
v -0.03100088 -0.04129744 -0.04554146
v -0.02873944 -0.02991638 -0.04807785
v -0.02940640 -0.04866200 -0.04677675
v -0.00116415 -0.03312811 -0.04996232
v -0.01363531 -0.04537220 -0.04916961
v -0.01029125 -0.02369293 -0.04719462
v -0.00111740 -0.02171940 -0.04637809
v -0.00522675 -0.02914138 -0.04919135
v -0.03101241 -0.02046755 -0.04042532
v -0.00052062 -0.01199231 -0.03936488
v -0.02830576 -0.02076821 -0.04453399
v -0.00006961 -0.04753399 -0.04901248
v -0.00009517 -0.02012448 -0.04555308
v -0.02818759 -0.01204682 -0.03765800
v -0.01133304 -0.04166891 -0.04987626
v -0.02081474 -0.01542081 -0.04163939
v -0.02832297 -0.04303565 -0.04872241
v -0.00727926 -0.04716861 -0.04906803
v -0.02119626 -0.01845378 -0.04377775
v -0.02927965 -0.03137718 -0.04794103
v -0.00929226 -0.03275073 -0.04980498
v -0.02951154 -0.00805671 -0.03067417
v -0.03076690 -0.03072078 -0.04531012
v -0.01214431 -0.03667830 -0.04998973
v -0.02644350 -0.00014883 -0.01032473
v -0.02528150 -0.02355976 -0.04625752
v -0.00803153 -0.01834477 -0.04442193
v -0.03062002 -0.02956380 -0.04527615
v -0.02014812 -0.01915336 -0.04432902
v -0.01003816 -0.01489364 -0.04183845
v -0.03068885 -0.04892646 -0.04436596
v -0.00165928 -0.03315655 -0.04996373
v -0.02767983 -0.03841072 -0.04913390
v -0.03055256 -0.02996300 -0.04550387
v -0.02275934 -0.01948644 -0.04434815
v -0.02932047 -0.00572602 -0.02438409
v -0.02838984 -0.02703918 -0.04731317
v -0.00863690 -0.02741322 -0.04864683
v -0.03077615 -0.03948856 -0.04609687
v -0.01026289 -0.01906757 -0.04483120
v -0.00883189 -0.03445708 -0.04999368
v -0.01045784 -0.04267611 -0.04984264
v -0.02307767 -0.01578543 -0.04173354
v -0.01410828 -0.04058745 -0.04981357
v -0.02640017 -0.03904587 -0.04922037
v -0.02790747 -0.00000000 -0.00008634
v -0.00515349 -0.01925708 -0.04505580
v -0.03041246 -0.04486077 -0.00002664
v -0.00511051 -0.01528119 -0.04230628
v -0.02917024 -0.00656529 -0.02814180
v -0.00917068 -0.01426739 -0.04132242
v -0.01073938 -0.04253954 -0.04985012
v -0.03092665 -0.01441832 -0.03552433
v -0.02913902 -0.01371497 -0.03892085
v -0.02941565 -0.02860855 -0.04707617
v -0.02694880 -0.00000000 -0.00301205
v -0.02586573 -0.02964556 -0.04827953
v -0.02915449 -0.04985055 -0.04665163
v -0.02688318 -0.01611287 -0.04160321
v -0.02830432 -0.03255475 -0.04864138
v -0.02197492 -0.01584687 -0.04188066
v -0.01553176 -0.03781838 -0.04990889
v -0.01069926 -0.02282874 -0.04678620
v -0.01202650 -0.04719796 -0.04889002
v -0.02861799 -0.01265211 -0.03825367
v -0.00977556 -0.04200877 -0.04992795
v -0.01658868 -0.02887419 -0.04872399
v -0.00624782 -0.02982046 -0.04930930
v -0.02360351 -0.02222511 -0.04570628
v -0.02918982 -0.02354551 -0.04552465
v -0.01461319 -0.03793093 -0.04995431
v -0.02818286 -0.04578820 -0.04820727
v -0.01285598 -0.02328891 -0.04691337
v -0.02914207 -0.01779627 -0.04228386
v -0.02831747 -0.02092410 -0.04461446
v -0.02946444 -0.04619199 -0.04730765
v -0.03090829 -0.01451127 -0.03566779
v -0.02020743 -0.02731594 -0.04803728
v -0.03039022 -0.03009336 -0.04582471
v -0.02896630 -0.04277787 -0.04852512
v -0.02820175 -0.04904617 -0.04732644
v -0.03047000 -0.04831847 -0.04498572
v -0.02947109 -0.04024511 -0.04824024
v -0.00963896 -0.04741765 -0.04893426
v -0.02941674 -0.03389256 -0.04815366
v -0.00797837 -0.04767853 -0.04890053
v -0.00697816 -0.02880911 -0.04909668
v -0.01944776 -0.04718844 -0.04852873
v -0.03041246 -0.04945073 -0.00044910
v -0.01955106 -0.04291898 -0.04936396
v -0.02842166 -0.03634640 -0.04900774
v -0.00360304 -0.01318941 -0.04042388
v -0.02938583 -0.04220919 -0.04816353
v -0.03100770 -0.03421882 -0.04549429
v -0.02938455 -0.02402157 -0.04547103
v -0.03049352 -0.00965746 -0.03025982
v -0.02879616 -0.03464488 -0.04883910
v -0.01383736 -0.00000000 -0.02473415
v -0.01411310 -0.02154296 -0.04593444
v -0.02094829 -0.03146873 -0.04899609
v -0.02934471 -0.00781839 -0.03072115
v -0.03089610 -0.04320895 -0.04550074
v -0.02923278 -0.04737737 -0.04734400
v -0.02092557 -0.02772429 -0.04815210
v -0.02915923 -0.02479314 -0.04614522
v -0.01281484 -0.01941181 -0.04488850
v -0.01966102 -0.04298429 -0.04934610
v -0.00866744 -0.04406091 -0.04965911
v -0.03049098 -0.03043766 -0.04572961
v -0.00769543 -0.01230258 -0.03957319
v -0.02943761 -0.01296841 -0.03762794
v -0.00522886 -0.04718047 -0.04908175
v -0.00846162 -0.04888054 -0.04849713
v -0.02129953 -0.00000000 -0.01805016
v -0.03012375 -0.02155463 -0.04291105
v -0.02505267 -0.04836909 -0.04777578
v -0.02847885 -0.01938057 -0.04371908
v -0.03097654 -0.02801847 -0.04418789
v -0.00184270 -0.01730121 -0.04374990
v -0.00736169 -0.03115064 -0.04954679
v -0.02884714 -0.04883285 -0.04724784
v -0.02934659 -0.04004433 -0.04845783
v -0.02774977 -0.02841936 -0.04781197
v -0.02951932 -0.00702775 -0.02824028
v -0.02978904 -0.04931765 -0.04582879
v -0.02095902 -0.01951558 -0.04451447
v -0.02000844 -0.03836329 -0.04967566
v -0.00694602 -0.02957148 -0.04924939
v -0.02303666 -0.00008374 -0.01673538
v -0.00287845 -0.03015647 -0.04939788
v -0.02776544 -0.04243524 -0.04885766
v -0.01596072 -0.02849562 -0.04865147
v -0.00876311 -0.01753680 -0.04384572
v -0.02836634 -0.01297910 -0.03863682
v -0.02869047 -0.01367078 -0.03921927
v -0.00127136 -0.01402575 -0.04121028
v -0.02960901 -0.02524263 -0.04563920
v -0.00383049 -0.02766675 -0.04881059
v -0.02119957 -0.03330267 -0.04933574
v -0.02174645 -0.04726820 -0.04837602
v -0.03090518 -0.04243964 -0.04558375
v -0.01097302 -0.02834449 -0.04884108
v -0.00877525 -0.01980831 -0.04530824
v -0.00091857 -0.01525438 -0.04232676
v -0.00653866 -0.02638886 -0.04831859
v -0.00980281 -0.02786259 -0.04874670
v -0.02879463 -0.01277842 -0.03830570
v -0.02893487 -0.01817875 -0.04271686
v -0.02811266 -0.01217763 -0.03782109
v -0.03101241 -0.03338461 -0.04527138
v -0.02828286 -0.03911623 -0.04907286
v -0.00991114 -0.01185413 -0.03907639
v -0.02159291 -0.04672395 -0.04851567
v -0.02757446 -0.01924700 -0.04373029
v -0.03101235 -0.00640112 -0.01009448
v -0.02087644 -0.04647567 -0.04861215
v -0.00729400 -0.01583071 -0.04267023
v -0.00097869 -0.01918794 -0.04505579
v -0.02978501 -0.00720352 -0.02763098
v -0.00809008 -0.01567897 -0.04255664
v -0.00002710 -0.00875468 -0.03570362
v -0.02018630 -0.01962832 -0.04461405
v -0.02836535 -0.01514405 -0.04060997
v -0.03101239 -0.04911532 -0.04356766
v -0.00864838 -0.01944133 -0.04512187
v -0.00040782 -0.00199999 -0.00030581
v -0.00759212 -0.01551603 -0.04244732
v -0.03101241 -0.03213567 -0.04506092
v -0.00877731 -0.02157320 -0.04623085
v -0.03101237 -0.04965058 -0.03867676
v -0.03029013 -0.00925696 -0.03021955
v -0.00503876 -0.03396780 -0.04999576
v -0.00905429 -0.02401638 -0.04737526
v -0.03098357 -0.02605259 -0.04345775
v -0.01244041 -0.02888784 -0.04893770
v -0.03078059 -0.03001484 -0.04511609
v -0.02895802 -0.01072888 -0.03582446
v -0.00005051 -0.01838832 -0.04452712
v -0.02885025 -0.02185298 -0.04497825
v -0.00008952 -0.02984858 -0.04935743
v -0.02655219 -0.03431365 -0.04903434
v -0.02854729 -0.03701598 -0.04900205
v -0.02871540 -0.01853263 -0.04306174
v -0.02116967 -0.02805631 -0.04823830
v -0.02389762 -0.03849051 -0.04942576
v -0.02844317 -0.03489248 -0.04893322
v -0.01866121 -0.03810844 -0.04975433
v -0.02100601 -0.03843887 -0.04962441
v -0.02920508 -0.00633715 -0.02749854
v -0.00005690 -0.02937899 -0.04926903
v -0.03084588 -0.02527670 -0.04338675
v -0.00048625 -0.03139494 -0.04964624
v -0.03101238 -0.00730691 -0.02219766
v -0.01274883 -0.02874415 -0.04888920
v -0.03022325 -0.01791070 -0.04031450
v -0.02997523 -0.04954298 -0.04539292
v -0.01714671 -0.00000000 -0.02256975
v -0.02190609 -0.04268030 -0.04928064
v -0.01269120 -0.00000000 -0.02533265
v -0.02780552 -0.03445929 -0.04895419
v -0.02838591 -0.03982303 -0.04903135
v -0.02944916 -0.00717309 -0.02884043
v -0.03071587 -0.00982625 -0.02978647
v -0.02730575 -0.02019843 -0.04432342
v -0.02879459 -0.01664372 -0.04176788
v -0.00659734 -0.01950698 -0.04517395
v -0.02104815 -0.02911172 -0.04853102
v -0.00887086 -0.03243489 -0.04975879
v -0.03101239 -0.01166100 -0.03149838
v -0.01879992 -0.04253122 -0.04947429
v -0.01446686 -0.02773410 -0.04847554
v -0.02509710 -0.03876967 -0.04932705
v -0.01116838 -0.02409204 -0.04729814
v -0.03088762 -0.00848350 -0.02639818
v -0.01543008 -0.03780343 -0.04991263
v -0.01157254 -0.01530300 -0.04211478
v -0.00620056 -0.01237528 -0.03965496
v -0.02888599 -0.01464623 -0.03996422
v -0.02150157 -0.02875766 -0.04840919
v -0.02902182 -0.01478432 -0.03999572
v -0.03084851 -0.04364071 -0.04550666
v -0.00884708 -0.01582661 -0.04264465
v -0.02264103 -0.04713861 -0.04834290
v -0.00884971 -0.04962646 -0.04823891
v -0.02905553 -0.01268048 -0.03798381
v -0.01183128 -0.03319235 -0.04976572
v -0.00639155 -0.04810535 -0.04877150
v -0.02527883 -0.01951620 -0.04413539
v -0.00947516 -0.02897030 -0.04905080
v -0.00692276 -0.03318426 -0.04992777
v -0.00373480 -0.04254880 -0.04998390
v -0.03041246 -0.04872500 -0.00034794
v -0.01498886 -0.04996580 -0.04782464
v -0.01976272 -0.01219661 -0.03876733
v -0.02122478 -0.02223987 -0.04592170
v -0.02134692 -0.00004872 -0.01865146
v -0.02970913 -0.01727571 -0.04092786
v -0.02840611 -0.01868116 -0.04325824
v -0.00854706 -0.04773963 -0.04887562
v -0.03101232 -0.01396148 -0.00043214
v -0.03092564 -0.03849240 -0.04587035
v -0.02875257 -0.02352500 -0.04581636
v -0.00940573 -0.01543788 -0.04234096
v -0.02960224 -0.01372782 -0.03805957
v -0.02860864 -0.02921322 -0.04792586
v -0.00777380 -0.02279314 -0.04688184
v -0.03084599 -0.01510219 -0.03644208
v -0.02162197 -0.01620638 -0.04216547
v -0.02778551 -0.04691857 -0.04798955
v -0.02121327 -0.01389993 -0.04022495
v -0.02680954 -0.03798164 -0.04921009
v -0.00007270 -0.04971489 -0.04828763
v -0.02946486 -0.01369913 -0.03834383
v -0.02053543 -0.02394586 -0.04677903
v -0.02934144 -0.01751131 -0.04182147
v -0.00696150 -0.01213601 -0.03942901
v -0.02859647 -0.03703716 -0.04898354
v -0.00303384 -0.03374457 -0.04999602
v -0.02095642 -0.02539505 -0.04729219
v -0.01076506 -0.02896544 -0.04900803
v -0.02522953 -0.02953921 -0.04830611
v -0.02917880 -0.04229107 -0.04840825
v -0.00029936 -0.02922915 -0.04923922
v -0.02922632 -0.02640762 -0.04666539
v -0.03096381 -0.02155792 -0.04121800
v -0.02849752 -0.00336774 -0.00001570
v -0.02432238 -0.02358091 -0.04635204
v -0.02963591 -0.03513870 -0.04792585
v -0.03101232 -0.00908142 -0.00042562
v -0.02701625 -0.02845530 -0.04788391
v -0.03062880 -0.03870265 -0.04637163
v -0.02898458 -0.01912580 -0.04331312
v -0.02113757 -0.03846601 -0.04961652
v -0.02136873 -0.04655176 -0.04856671
v -0.02924419 -0.00757706 -0.03048601
v -0.02393733 -0.03781128 -0.04942920
v -0.02927737 -0.04811076 -0.04710159
v -0.00402472 -0.00002740 -0.02806423
v -0.03053808 -0.02189301 -0.04228812
v -0.00127680 -0.01781372 -0.04411370
v -0.02441572 -0.04991431 -0.04730738
v -0.02719032 -0.04954185 -0.04723340
v -0.02816182 -0.02585034 -0.04692125
v -0.00074955 -0.02900309 -0.04919371
v -0.00063981 -0.01943375 -0.04518724
v -0.03101238 -0.04995107 -0.03906445
v -0.01494917 -0.01917929 -0.04464283
v -0.00001284 -0.00200000 -0.01358456
v -0.03053790 -0.03440105 -0.04632131
v -0.01269550 -0.00199999 -0.00000705
v -0.02829085 -0.00002171 -0.00184071
v -0.03101239 -0.04807894 -0.04395110
v -0.03101241 -0.02695267 -0.04352562
v -0.00812678 -0.00005383 -0.02730244
v -0.02849696 -0.04729964 -0.04779471
v -0.02193382 -0.02771020 -0.04807063
v -0.01496303 -0.00000000 -0.02405863
v -0.03101237 -0.00671624 -0.01978077
v -0.02061339 -0.04991445 -0.04756551
v -0.02975405 -0.04907073 -0.04599212
v -0.00004041 -0.04417645 -0.04970412
v -0.02961366 -0.04817566 -0.04654690
v -0.02851125 -0.04804355 -0.04758907
v -0.01389968 -0.02771839 -0.04849825
v -0.00036401 -0.04367173 -0.04979935
v -0.02950211 -0.00784284 -0.03021066
v -0.03041246 -0.04999574 -0.02806277
v -0.02329258 -0.04303075 -0.04911740
v -0.03083711 -0.04816443 -0.04437830
v -0.03101240 -0.04553872 -0.04476872
v -0.00419580 -0.01526759 -0.04230533
v -0.02875770 -0.00977016 -0.03481573
v -0.03074758 -0.02625452 -0.04396956
v -0.03077783 -0.01824542 -0.03934248
v -0.02105988 -0.04231201 -0.04938233
v -0.02854613 -0.01051537 -0.03579566
v -0.03100263 -0.00616277 -0.01525022
v -0.01902269 -0.03830382 -0.04972537
v -0.02015765 -0.01568351 -0.04190128
v -0.02122337 -0.02478535 -0.04705134
v -0.03094990 -0.00644321 -0.01863075
v -0.02913067 -0.04054104 -0.04864887
v -0.00786977 -0.03352458 -0.04994391
v -0.00228451 -0.04951673 -0.04833562
v -0.02926554 -0.00832633 -0.03187082
v -0.00961242 -0.04108003 -0.04999301
v -0.00045166 -0.02760375 -0.04880356
v -0.02850443 -0.03650498 -0.04900303
v -0.02938051 -0.01168824 -0.03627682
v -0.00063043 -0.01394382 -0.04114226
v -0.02886670 -0.03374727 -0.04865936
v -0.02501605 -0.01962175 -0.04422185
v -0.02235993 -0.03829353 -0.04954105
v -0.00430729 -0.02756883 -0.04877711
v -0.02740662 -0.02484008 -0.04661810
v -0.01749689 -0.00000000 -0.02224297
v -0.02944347 -0.02159122 -0.04422007
v -0.03082285 -0.03891278 -0.04603724
v -0.02081019 -0.04691719 -0.04852977
v -0.02884781 -0.02721733 -0.04719560
v -0.02869332 -0.04955624 -0.04706130
v -0.00606713 -0.01994654 -0.04540835
v -0.00013919 -0.00200000 -0.00267829
v -0.01793680 -0.01922601 -0.04450559
v -0.00630865 -0.01178904 -0.03911957
v -0.01009687 -0.04069234 -0.04999438
v -0.02808850 -0.00000909 -0.00388586
v -0.02749312 -0.02957093 -0.04814104
v -0.02785321 -0.02793711 -0.04766607
v -0.02944956 -0.02493664 -0.04579302
v -0.00745636 -0.02910000 -0.04914199
v -0.02831171 -0.01734292 -0.04232874
v -0.03041246 -0.04999324 -0.00999831
v -0.00671325 -0.02657194 -0.04838321
v -0.02885049 -0.04442002 -0.04838188
v -0.00833063 -0.01667206 -0.04324906
v -0.00042823 -0.01511549 -0.04221217
v -0.02879459 -0.03427659 -0.04877858
v -0.02317757 -0.04308316 -0.04911592
v -0.03101233 -0.00755066 -0.00471118
v -0.03101241 -0.03694623 -0.04553954
v -0.02086205 -0.03368727 -0.04937953
v -0.02887960 -0.04762531 -0.04754423
v -0.00728747 -0.04263651 -0.04994577
v -0.02104352 -0.01632496 -0.04229960
v -0.03090909 -0.02263058 -0.04196827
v -0.01229393 -0.02903920 -0.04897315
v -0.01290096 -0.01195640 -0.03898107
v -0.03099953 -0.00887072 -0.00085158
v -0.00074298 -0.00009668 -0.02847943
v -0.03097688 -0.01185707 -0.03215523
v -0.02285063 -0.02247725 -0.04590384
v -0.00766190 -0.01538767 -0.04235688
v -0.00563643 -0.01628873 -0.04300614
v -0.02841946 -0.04485799 -0.04839656
v -0.00731332 -0.03352383 -0.04994814
v -0.03101239 -0.00821808 -0.02495287
v -0.02825811 -0.00001264 -0.00216868
v -0.02842384 -0.04327446 -0.04867395
v -0.02882723 -0.03289369 -0.04853463
v -0.03081371 -0.02401750 -0.04283929
v -0.00909628 -0.03259035 -0.04978237
v -0.02875058 -0.04491037 -0.04830004
v -0.02778149 -0.03360470 -0.04885838
v -0.01096805 -0.02336716 -0.04704095
v -0.02810723 -0.01898681 -0.04349798
v -0.00569221 -0.02752622 -0.04875612
v -0.02098932 -0.01875627 -0.04400340
v -0.02482716 -0.02151204 -0.04522662
v -0.02919772 -0.00590518 -0.02570399
v -0.03086970 -0.01114318 -0.03141336
v -0.02921583 -0.02795297 -0.04715938
v -0.01497541 -0.04713756 -0.04876406
v -0.02888486 -0.03896931 -0.04891404
v -0.00023780 -0.02370234 -0.04734734
v -0.02194850 -0.02379653 -0.04663178
v -0.02813307 -0.02455438 -0.04643793
v -0.03097380 -0.00659818 -0.01957663
v -0.00000428 -0.00041409 -0.02724951
v -0.03094297 -0.01628380 -0.03735009
v -0.02634217 -0.01954257 -0.04405342
v -0.02917309 -0.03134757 -0.04804893
v -0.00926138 -0.03297143 -0.04984505
v -0.01458120 -0.02882770 -0.04882370
v -0.00766063 -0.00000000 -0.02683831
v -0.02924601 -0.04330610 -0.04823390
v -0.00410503 -0.04724916 -0.04907453
v -0.00768599 -0.04982425 -0.04818975
v -0.02114674 -0.04882539 -0.04790101
v -0.02866643 -0.00695014 -0.02979621
v -0.02854073 -0.03797840 -0.04902946
v -0.00966244 -0.02292147 -0.04688921
v -0.02203100 -0.02912137 -0.04846141
v -0.02900749 -0.00809682 -0.03192966
v -0.00989726 -0.02718808 -0.04850223
v -0.03101232 -0.00964850 -0.00005784
v -0.01877400 -0.02357379 -0.04672940
v -0.02988502 -0.01084862 -0.03397586
v -0.02141387 -0.01648070 -0.04237701
v -0.02858972 -0.01924414 -0.04358317
v -0.00910089 -0.02254415 -0.04672147
v -0.01002416 -0.01530007 -0.04220939
v -0.02629088 -0.04951173 -0.04730825
v -0.02553469 -0.02865131 -0.04806354
v -0.03067635 -0.04903587 -0.04434612
v -0.00044089 -0.01751425 -0.04391204
v -0.02795241 -0.04898206 -0.04736565
v -0.02230465 -0.04722364 -0.04834486
v -0.02920169 -0.04989726 -0.04658748
v -0.02577503 -0.03788841 -0.04929181
v -0.03080834 -0.02592182 -0.04372631
v -0.02887623 -0.00780864 -0.03157238
v -0.00949001 -0.01184943 -0.03909866
v -0.02873901 -0.00735278 -0.03074251
v -0.03098156 -0.02988110 -0.04472631
v -0.02059791 -0.04273463 -0.04934998
v -0.02858092 -0.01164882 -0.03710575
v -0.02940578 -0.02435023 -0.04559185
v -0.00085338 -0.02184813 -0.04644768
v -0.01093970 -0.03113202 -0.04943287
v -0.00012020 -0.02188099 -0.04647120
v -0.00727519 -0.04184994 -0.04999992
v -0.01279329 -0.02765699 -0.04853120
v -0.00007178 -0.01503616 -0.04214357
v -0.00638616 -0.03383502 -0.04997639
v -0.00014098 -0.01395166 -0.04115449
v -0.00812107 -0.01483562 -0.04187727
v -0.02930527 -0.00968392 -0.03391934
v -0.02216718 -0.02772166 -0.04805561
v -0.00817556 -0.03194526 -0.04968403
v -0.03095884 -0.02870379 -0.04443036
v -0.02847194 -0.01561172 -0.04100953
v -0.02896410 -0.03800850 -0.04885526
v -0.02685686 -0.02810581 -0.04779699
v -0.03082850 -0.01531682 -0.03669651
v -0.01274920 -0.02922202 -0.04899472
v -0.02900864 -0.00768709 -0.03127202
v -0.00004391 -0.00200000 -0.00399780
v -0.03093267 -0.04667845 -0.04465104
v -0.02955615 -0.01711737 -0.04113530
v -0.02823607 -0.00000000 -0.00051908
v -0.00346937 -0.04994847 -0.04818255
v -0.00987169 -0.02368159 -0.04721128
v -0.01963686 -0.01983121 -0.04474902
v -0.01151690 -0.03319916 -0.04978198
v -0.02965802 -0.04390480 -0.04752344
v -0.00128948 -0.02163605 -0.04633302
v -0.02978476 -0.02147752 -0.04352334
v -0.02780989 -0.00000000 -0.00553908
v -0.02909631 -0.03830570 -0.04876369
v -0.02000931 -0.01217701 -0.03873294
v -0.02912373 -0.04235114 -0.04845019
v -0.00762116 -0.03424664 -0.04999483
v -0.02811060 -0.00000000 -0.00327453
v -0.00536860 -0.03322435 -0.04994276
v -0.03092822 -0.03776120 -0.04585601
v -0.02910104 -0.00748324 -0.03057314
v -0.02200186 -0.04977867 -0.04752357
v -0.03041246 -0.04991947 -0.00146649
v -0.00901335 -0.04721118 -0.04903282
v -0.02776042 -0.01264861 -0.03839907
v -0.01068708 -0.04983933 -0.04807793
v -0.00027270 -0.02751393 -0.04876984
v -0.02052602 -0.01898610 -0.04419052
v -0.02155330 -0.02025059 -0.04485298
v -0.03094468 -0.01055121 -0.03029636
v -0.02861714 -0.01477594 -0.04021799
v -0.02189395 -0.04274984 -0.04926854
v -0.03008243 -0.02165268 -0.04304561
v -0.02868581 -0.01075555 -0.03603124
v -0.02950091 -0.00672304 -0.02757818
v -0.02953888 -0.00835517 -0.03117720
v -0.02895515 -0.00780574 -0.03150756
v -0.01915695 -0.03867334 -0.04969624
v -0.02849285 -0.04904858 -0.04729345
v -0.02114835 -0.04758641 -0.04831267
v -0.02104697 -0.01239872 -0.03887055
v -0.02966960 -0.01050988 -0.03412524
v -0.02952000 -0.00822997 -0.03100699
v -0.02924213 -0.00822143 -0.03175366
v -0.02857270 -0.00698578 -0.02996990
v -0.00801020 -0.02465855 -0.04764679
v -0.00182104 -0.03319808 -0.04996825
v -0.03093932 -0.00751968 -0.02351198
v -0.02593735 -0.04869666 -0.04760420
v -0.02115271 -0.03686953 -0.04958141
v -0.02961559 -0.03956653 -0.04806391
v -0.02164697 -0.04942133 -0.04766749
v -0.00688092 -0.02876784 -0.04908771
v -0.01065694 -0.01520001 -0.04207864
v -0.00778395 -0.04257294 -0.04995129
v -0.03079565 -0.02541129 -0.04353666
v -0.02902063 -0.03285173 -0.04843493
v -0.00500065 -0.01519327 -0.04223561
v -0.03101240 -0.04277160 -0.04506421
v -0.00917031 -0.01896069 -0.04481858
v -0.00603993 -0.02885387 -0.04912874
v -0.03083390 -0.04350552 -0.04555980
v -0.01728709 -0.03933261 -0.04974277
v -0.03092578 -0.01418254 -0.03525497
v -0.00541581 -0.02798383 -0.04889352
v -0.00146640 -0.04270264 -0.04997844
v -0.00090222 -0.03323216 -0.04997763
v -0.02111452 -0.03895027 -0.04958771
v -0.00030156 -0.01971689 -0.04533820
v -0.02880414 -0.02968050 -0.04798656
v -0.00873269 -0.04513350 -0.04944856
v -0.02944972 -0.02938670 -0.04726261
v -0.00811352 -0.04175334 -0.04999945
v -0.02465890 -0.01582085 -0.04160899
v -0.02022105 -0.04241328 -0.04941523
v -0.00088328 -0.03300563 -0.04994181
v -0.02126786 -0.02263149 -0.04612268
v -0.02932344 -0.02710656 -0.04674871
v -0.02111016 -0.01728308 -0.04296602
v -0.02826769 -0.04402739 -0.04857230
v -0.00773817 -0.03293237 -0.04987470
v -0.00194594 -0.03057606 -0.04948296
v -0.02712059 -0.00000000 -0.00650055
v -0.02699139 -0.04912073 -0.04738854
v -0.02294811 -0.04749718 -0.04821155
v -0.02604186 -0.03322924 -0.04894414
v -0.02907019 -0.02737869 -0.04711372
v -0.02903447 -0.03887322 -0.04883269
v -0.02941485 -0.03868806 -0.04839444
v -0.00822755 -0.03402017 -0.04997480
v -0.00926664 -0.04762021 -0.04888522
v -0.00720035 -0.02923610 -0.04917733
v -0.02907428 -0.04795718 -0.04733879
v -0.02955276 -0.03035443 -0.04733148
v -0.03076896 -0.03520587 -0.04601093
v -0.00873376 -0.04330350 -0.04980296
v -0.03101236 -0.00623447 -0.01478278
v -0.02661475 -0.04699975 -0.04806265
v -0.03044544 -0.01814331 -0.04001486
v -0.02063055 -0.04953037 -0.04769231
v -0.00008343 -0.01878786 -0.04480629
v -0.00857546 -0.02408086 -0.04742026
v -0.02804622 -0.03768611 -0.04910180
v -0.02944663 -0.01039126 -0.03461894
v -0.02078760 -0.03334551 -0.04935981
v -0.00039986 -0.03268695 -0.04988649
v -0.02952789 -0.00582666 -0.02382290
v -0.00606814 -0.02922628 -0.04920029
v -0.03101241 -0.02451903 -0.04251775
v -0.02255398 -0.02337561 -0.04639942
v -0.02539206 -0.02912215 -0.04820556
v -0.02838626 -0.04894920 -0.04733972
v -0.02886306 -0.04348062 -0.04849012
v -0.00166841 -0.02323580 -0.04716372
v -0.01862999 -0.02354591 -0.04672628
v -0.00844539 -0.04662115 -0.04916496
v -0.02939229 -0.03545759 -0.04834389
v -0.02000813 -0.00000000 -0.01954474
v -0.02872080 -0.01183866 -0.03726571
v -0.02881335 -0.02828612 -0.04754579
v -0.02946983 -0.02816942 -0.04684503
v -0.02900847 -0.02284106 -0.04536756
v -0.02711425 -0.02046585 -0.04447995
v -0.00899264 -0.04688553 -0.04909688
v -0.02347475 -0.04698430 -0.04831682
v -0.00869174 -0.02020412 -0.04551957
v -0.02944029 -0.01000403 -0.03405739
v -0.03078904 -0.01925945 -0.04010547
v -0.02949693 -0.02103338 -0.04384085
v -0.01181916 -0.00199999 -0.00000783
v -0.02943338 -0.02305215 -0.04493099
v -0.02899056 -0.03212416 -0.04833566
v -0.02849731 -0.00911327 -0.03396765
v -0.01697016 -0.04998099 -0.04772230
v -0.02899305 -0.00970084 -0.03451403
v -0.00278579 -0.04250790 -0.04999372
v -0.00168285 -0.00199999 -0.00016300
v -0.02829975 -0.02375301 -0.04608973
v -0.02946398 -0.02030719 -0.04343090
v -0.00803824 -0.02224677 -0.04659390
v -0.00870992 -0.02602205 -0.04813150
v -0.02856679 -0.04307564 -0.04866110
v -0.02669235 -0.02798492 -0.04777475
v -0.02845782 -0.03061348 -0.04826395
v -0.02908241 -0.01986962 -0.04370778
v -0.02843595 -0.04803704 -0.04760284
v -0.02719460 -0.00000000 -0.00721683
v -0.00264602 -0.01901705 -0.04494261
v -0.03101241 -0.02959418 -0.04434326
v -0.02926473 -0.03527422 -0.04852861
v -0.02222580 -0.02323457 -0.04635434
v -0.00827499 -0.02801583 -0.04884230
v -0.00883370 -0.04798722 -0.04878450
v -0.03075266 -0.04696315 -0.04488830
v -0.03101239 -0.00983345 -0.02863084
v -0.02895705 -0.02570981 -0.04667412
v -0.00870662 -0.02595070 -0.04810537
v -0.03095904 -0.00678800 -0.02061764
v -0.03062856 -0.01870911 -0.04004462
v -0.01673183 -0.01326187 -0.03992927
v -0.00013808 -0.01612331 -0.04294190
v -0.02849126 -0.00624811 -0.02818216
v -0.03077512 -0.02639012 -0.04396881
v -0.02915045 -0.02610377 -0.04664020
v -0.02775844 -0.01554556 -0.04103944
v -0.00785131 -0.02782917 -0.04880143
v -0.00241710 -0.04960459 -0.04830534
v -0.00282921 -0.00199999 -0.00005875
v -0.03047680 -0.01189227 -0.03369340
v -0.00842810 -0.02141900 -0.04615775
v -0.03098942 -0.01959747 -0.03993039
v -0.00440840 -0.01919677 -0.04503072
v -0.02858077 -0.01826571 -0.04294456
v -0.02766255 -0.00000000 -0.00606692
v -0.02844932 -0.03398430 -0.04884446
f 671 152 700
f 591 349 887
f 887 349 925
f 894 349 467
f 925 349 894
f 230 541 570
f 390 541 471
f 541 230 471
f 533 541 390
f 390 467 533
f 467 349 533
f 570 541 717
f 717 533 349
f 541 533 717
f 644 759 700
f 481 491 602
f 602 863 481
f 245 349 591
f 925 894 347
f 347 887 925
f 591 887 347
f 347 894 467
f 347 245 591
f 567 245 347
f 347 717 567
f 107 230 494
f 113 717 349
f 567 717 113
f 349 245 113
f 113 245 567
f 602 223 589
f 700 759 589
f 589 223 700
f 7 644 700
f 700 152 7
f 7 152 467
f 781 319 16
f 602 491 101
f 101 462 700
f 700 223 101
f 101 223 602
f 467 152 126
f 126 347 467
f 230 456 854
f 730 251 138
f 138 497 730
f 251 230 465
f 465 138 251
f 610 726 465
f 726 497 465
f 497 138 465
f 152 671 90
f 112 490 326
f 606 863 602
f 602 209 606
f 873 319 781
f 873 823 319
f 587 608 654
f 587 654 144
f 144 780 587
f 587 230 251
f 587 471 230
f 390 471 587
f 587 780 390
f 708 16 319
f 848 385 781
f 26 432 502
f 616 168 574
f 928 566 310
f 682 147 667
f 257 671 700
f 700 462 257
f 462 101 257
f 858 101 314
f 197 449 506
f 902 418 480
f 262 418 702
f 702 418 455
f 455 418 687
f 64 506 519
f 290 890 595
f 326 490 931
f 717 347 762
f 762 592 456
f 490 576 792
f 456 592 57
f 332 726 610
f 332 304 726
f 426 497 726
f 730 497 426
f 426 304 730
f 610 760 103
f 299 126 152
f 152 90 299
f 299 90 126
f 129 812 665
f 532 893 823
f 823 812 532
f 730 304 578
f 578 359 730
f 238 209 313
f 238 708 209
f 413 708 319
f 209 708 413
f 413 606 209
f 319 823 413
f 823 606 413
f 493 481 863
f 502 616 132
f 132 26 502
f 499 26 132
f 53 26 499
f 432 26 53
f 92 574 187
f 187 574 634
f 170 180 265
f 32 492 438
f 651 492 147
f 651 438 492
f 32 438 651
f 274 886 638
f 274 638 147
f 147 682 274
f 638 886 85
f 928 886 416
f 566 928 416
f 416 580 566
f 366 782 435
f 197 506 218
f 448 64 355
f 265 180 355
f 543 480 895
f 480 543 879
f 902 480 879
f 879 85 902
f 193 189 895
f 895 480 376
f 376 193 895
f 312 480 418
f 418 262 312
f 312 376 480
f 519 506 157
f 157 64 519
f 375 85 556
f 902 85 375
f 484 449 197
f 484 573 449
f 197 218 484
f 415 98 498
f 315 366 89
f 250 595 890
f 490 864 337
f 415 537 430
f 430 112 326
f 490 112 430
f 430 919 490
f 430 537 919
f 81 931 770
f 840 98 415
f 570 717 47
f 47 762 570
f 717 762 47
f 230 762 194
f 670 230 570
f 570 762 670
f 670 762 230
f 758 576 778
f 778 576 490
f 503 792 576
f 699 599 12
f 230 854 12
f 770 864 915
f 915 699 770
f 915 792 805
f 915 805 494
f 915 864 490
f 490 792 915
f 494 599 915
f 915 599 699
f 618 57 592
f 592 12 618
f 618 12 854
f 618 854 456
f 456 57 618
f 662 451 395
f 662 96 451
f 395 451 469
f 469 906 736
f 451 96 469
f 469 131 310
f 230 131 469
f 590 386 569
f 395 386 590
f 383 332 610
f 304 332 383
f 610 103 383
f 383 103 304
f 726 304 601
f 601 426 726
f 304 426 601
f 502 432 13
f 603 182 304
f 160 846 198
f 304 103 108
f 500 399 598
f 598 498 500
f 500 498 98
f 500 98 595
f 595 250 500
f 706 90 228
f 706 98 90
f 25 812 823
f 25 665 812
f 129 665 409
f 409 853 129
f 665 25 409
f 823 873 409
f 409 25 823
f 359 578 850
f 313 209 88
f 88 209 602
f 602 589 88
f 88 589 759
f 910 848 781
f 43 8 696
f 696 784 43
f 696 8 101
f 895 189 568
f 481 493 141
f 43 784 628
f 628 784 491
f 491 30 628
f 923 339 688
f 865 818 70
f 309 865 70
f 369 865 309
f 616 574 825
f 574 489 825
f 813 492 32
f 32 149 813
f 147 638 888
f 888 651 147
f 906 469 594
f 736 906 594
f 594 419 736
f 790 416 886
f 769 682 667
f 769 274 682
f 886 274 769
f 769 790 886
f 36 85 886
f 556 85 36
f 529 633 702
f 782 116 97
f 747 257 745
f 657 523 461
f 461 523 674
f 687 418 539
f 539 455 687
f 702 455 539
f 539 529 702
f 232 529 539
f 360 653 506
f 506 753 360
f 831 539 360
f 360 539 653
f 448 355 526
f 60 214 526
f 526 180 60
f 526 355 180
f 436 366 435
f 506 64 436
f 436 64 448
f 448 366 436
f 505 262 56
f 56 262 702
f 702 633 56
f 633 529 336
f 174 908 834
f 880 262 505
f 79 879 406
f 638 85 79
f 85 879 79
f 556 247 268
f 268 375 556
f 157 375 268
f 268 170 265
f 521 355 64
f 64 157 521
f 39 247 928
f 39 268 247
f 449 573 148
f 148 506 449
f 148 573 902
f 902 375 148
f 148 157 506
f 148 375 157
f 721 484 218
f 573 484 721
f 721 418 902
f 902 573 721
f 711 225 919
f 490 919 137
f 919 225 137
f 258 711 919
f 617 89 791
f 892 749 51
f 892 214 749
f 758 794 892
f 290 595 76
f 76 595 617
f 76 890 290
f 76 250 890
f 733 794 758
f 733 250 794
f 450 366 315
f 782 366 450
f 490 337 691
f 691 337 770
f 691 931 490
f 770 931 691
f 191 864 770
f 770 337 191
f 191 337 864
f 415 430 904
f 904 840 415
f 326 931 904
f 904 430 326
f 931 81 904
f 762 840 904
f 592 762 679
f 679 699 592
f 357 762 347
f 357 840 762
f 347 126 357
f 126 90 357
f 90 98 357
f 98 840 357
f 167 762 456
f 351 778 490
f 607 503 402
f 402 503 576
f 402 576 758
f 51 749 801
f 749 626 801
f 801 892 51
f 801 402 758
f 592 699 622
f 622 12 592
f 699 12 622
f 62 599 494
f 62 12 599
f 494 230 62
f 230 12 62
f 60 180 630
f 760 611 175
f 816 465 230
f 593 611 760
f 465 611 593
f 593 760 610
f 610 465 593
f 851 386 73
f 73 386 395
f 395 469 73
f 73 469 736
f 851 380 829
f 829 419 878
f 32 651 109
f 109 419 32
f 878 419 109
f 732 149 32
f 32 419 117
f 117 244 32
f 569 386 874
f 889 632 814
f 182 603 284
f 760 175 284
f 403 442 767
f 767 284 175
f 198 846 100
f 100 66 198
f 808 160 198
f 569 874 777
f 846 160 777
f 304 108 911
f 911 603 304
f 760 284 911
f 911 284 603
f 595 98 579
f 579 90 671
f 228 90 579
f 315 89 579
f 579 450 315
f 579 116 782
f 782 450 579
f 617 595 579
f 579 89 617
f 671 97 579
f 579 97 116
f 129 853 166
f 737 132 616
f 499 132 737
f 737 49 499
f 404 850 578
f 499 49 789
f 390 780 553
f 553 467 390
f 553 7 467
f 644 7 553
f 759 644 553
f 553 88 759
f 525 414 709
f 709 783 525
f 101 8 742
f 686 288 105
f 686 105 764
f 764 105 859
f 491 784 269
f 784 696 269
f 269 101 491
f 269 696 101
f 327 568 189
f 867 908 174
f 568 327 867
f 361 901 171
f 901 94 171
f 171 94 546
f 102 338 546
f 102 82 895
f 406 879 913
f 913 879 543
f 913 543 895
f 895 82 913
f 564 30 491
f 564 585 30
f 70 818 34
f 34 818 30
f 30 585 34
f 339 923 447
f 447 443 495
f 30 818 61
f 61 822 30
f 818 822 61
f 635 688 43
f 43 628 635
f 439 628 30
f 30 822 439
f 439 635 628
f 439 822 688
f 688 635 439
f 279 822 818
f 279 923 688
f 688 822 279
f 493 309 839
f 839 141 493
f 647 48 830
f 830 48 743
f 17 812 129
f 129 166 17
f 860 731 552
f 860 142 731
f 502 452 346
f 731 142 577
f 845 66 771
f 771 146 845
f 66 146 771
f 546 94 303
f 303 827 546
f 851 829 120
f 849 818 429
f 849 388 818
f 923 388 909
f 443 447 909
f 909 447 923
f 574 92 140
f 140 489 574
f 140 92 187
f 823 893 824
f 863 606 824
f 824 606 823
f 856 496 916
f 916 121 856
f 186 469 310
f 186 594 469
f 161 769 667
f 790 769 161
f 667 566 161
f 566 580 161
f 580 416 161
f 416 790 161
f 896 886 928
f 222 247 556
f 556 36 222
f 928 247 222
f 222 896 928
f 222 36 886
f 886 896 222
f 27 181 362
f 362 181 620
f 858 459 905
f 826 858 314
f 374 288 686
f 745 42 128
f 434 645 523
f 434 523 657
f 657 328 434
f 523 645 330
f 317 181 33
f 445 658 918
f 918 658 745
f 458 461 468
f 468 461 674
f 506 653 930
f 653 539 930
f 930 539 418
f 930 218 506
f 448 526 478
f 478 526 214
f 18 360 753
f 753 922 18
f 831 360 18
f 464 922 753
f 753 176 464
f 788 753 506
f 506 436 788
f 673 834 908
f 371 79 406
f 265 355 84
f 84 268 265
f 157 268 263
f 268 84 263
f 263 84 355
f 885 39 928
f 916 496 761
f 268 39 761
f 170 268 761
f 735 498 598
f 758 225 735
f 225 711 735
f 498 258 637
f 415 498 637
f 637 875 415
f 738 89 366
f 366 791 738
f 738 791 89
f 876 366 448
f 876 791 366
f 214 791 876
f 448 478 876
f 876 478 214
f 613 791 214
f 214 892 613
f 617 791 613
f 613 76 617
f 250 76 613
f 794 250 613
f 613 892 794
f 273 500 250
f 250 733 273
f 399 500 273
f 273 733 758
f 598 399 273
f 758 735 273
f 273 735 598
f 775 679 762
f 81 679 775
f 762 904 775
f 775 904 81
f 699 679 648
f 648 679 81
f 770 699 648
f 648 81 770
f 230 194 661
f 71 194 762
f 762 167 71
f 71 661 194
f 71 167 456
f 230 661 71
f 71 456 230
f 778 351 296
f 296 225 758
f 758 778 296
f 792 503 425
f 425 503 607
f 758 892 715
f 715 801 758
f 892 801 715
f 230 107 163
f 163 107 494
f 805 792 515
f 515 425 607
f 793 801 626
f 354 412 180
f 180 170 554
f 554 701 545
f 170 761 554
f 761 701 554
f 275 175 611
f 275 295 403
f 611 295 275
f 275 767 175
f 96 295 165
f 165 295 611
f 165 816 230
f 165 611 465
f 465 816 165
f 230 469 165
f 165 469 96
f 302 442 403
f 403 295 302
f 302 295 96
f 324 73 736
f 32 244 614
f 386 321 67
f 182 284 377
f 623 66 845
f 623 563 707
f 707 423 623
f 198 66 623
f 623 423 198
f 284 767 124
f 124 377 284
f 182 377 124
f 124 767 707
f 124 404 578
f 304 182 124
f 124 578 304
f 384 767 442
f 442 302 384
f 384 808 198
f 384 302 808
f 146 100 907
f 907 100 846
f 846 874 907
f 907 874 386
f 907 67 814
f 386 67 907
f 20 146 66
f 66 100 20
f 20 100 146
f 136 874 846
f 846 777 136
f 136 777 874
f 98 706 153
f 153 579 98
f 153 706 228
f 228 579 153
f 832 737 616
f 511 737 832
f 239 737 511
f 781 881 828
f 853 409 828
f 828 873 781
f 828 409 873
f 286 881 781
f 286 737 408
f 190 780 144
f 144 654 190
f 654 608 190
f 534 783 190
f 783 709 190
f 528 387 16
f 16 387 540
f 781 16 540
f 540 910 781
f 540 414 525
f 525 910 540
f 740 742 8
f 688 339 78
f 78 655 688
f 859 105 803
f 474 764 859
f 718 555 174
f 174 872 718
f 40 379 405
f 405 560 40
f 338 102 584
f 485 203 405
f 289 219 260
f 260 203 289
f 203 485 289
f 278 135 705
f 705 433 495
f 361 171 283
f 283 171 119
f 213 102 546
f 82 102 213
f 546 827 213
f 641 213 877
f 82 213 641
f 877 827 641
f 339 447 744
f 810 388 923
f 923 279 810
f 818 388 810
f 810 279 818
f 431 309 70
f 431 839 309
f 627 830 35
f 647 830 627
f 343 17 166
f 35 17 261
f 17 343 261
f 334 860 552
f 452 860 334
f 216 616 502
f 502 346 216
f 216 346 616
f 513 168 616
f 616 346 513
f 398 303 94
f 146 907 398
f 398 814 632
f 398 907 814
f 712 452 502
f 712 860 452
f 712 629 860
f 142 860 392
f 860 629 392
f 629 398 487
f 142 392 487
f 487 392 629
f 206 577 187
f 731 577 206
f 552 731 206
f 187 577 1
f 1 577 142
f 703 120 889
f 321 120 703
f 703 67 321
f 814 67 703
f 827 303 63
f 50 827 63
f 63 120 50
f 63 303 889
f 889 120 63
f 851 120 300
f 300 120 321
f 300 386 851
f 300 321 386
f 565 835 109
f 249 849 429
f 388 156 476
f 476 757 278
f 476 705 495
f 278 705 476
f 489 140 276
f 615 856 121
f 310 566 475
f 475 566 667
f 667 147 475
f 475 117 419
f 419 594 475
f 594 186 475
f 147 492 475
f 492 813 475
f 920 117 475
f 475 614 920
f 475 732 32
f 32 614 475
f 723 836 164
f 689 836 723
f 720 539 549
f 539 362 549
f 344 831 27
f 27 362 344
f 344 539 831
f 344 362 539
f 266 905 133
f 586 459 858
f 858 826 586
f 298 374 686
f 174 374 298
f 298 872 174
f 518 128 393
f 631 747 745
f 745 128 631
f 671 257 311
f 311 229 671
f 817 133 341
f 231 434 328
f 231 328 266
f 817 341 231
f 231 341 434
f 231 133 817
f 266 133 231
f 232 539 241
f 671 772 798
f 181 551 798
f 242 723 352
f 350 297 815
f 815 297 143
f 815 658 445
f 27 831 31
f 831 18 31
f 208 18 922
f 208 31 18
f 922 464 208
f 27 31 208
f 208 181 27
f 208 551 181
f 435 782 208
f 782 97 208
f 208 464 176
f 208 176 436
f 208 436 435
f 370 673 908
f 246 109 651
f 246 888 638
f 406 109 246
f 246 371 406
f 638 79 246
f 79 371 246
f 114 521 157
f 157 263 114
f 355 521 114
f 114 263 355
f 39 885 65
f 916 761 65
f 65 761 39
f 496 856 538
f 538 761 496
f 538 701 761
f 498 735 802
f 802 735 711
f 802 258 498
f 711 258 802
f 875 637 173
f 173 537 415
f 415 875 173
f 173 637 258
f 919 537 173
f 173 258 919
f 494 805 678
f 678 163 494
f 912 163 678
f 792 425 460
f 460 515 792
f 425 515 460
f 607 402 323
f 323 515 607
f 233 626 749
f 233 793 626
f 24 912 787
f 510 912 24
f 221 121 928
f 221 615 121
f 856 615 221
f 221 538 856
f 701 538 221
f 821 354 151
f 412 354 821
f 701 354 548
f 172 354 180
f 15 548 172
f 180 554 172
f 172 554 545
f 545 701 172
f 926 151 24
f 861 926 719
f 861 214 60
f 749 214 861
f 60 630 861
f 412 821 861
f 861 630 180
f 180 412 861
f 403 767 819
f 477 324 736
f 410 380 851
f 410 477 380
f 324 477 410
f 736 419 752
f 419 829 752
f 380 335 329
f 329 829 380
f 329 752 829
f 329 335 736
f 736 752 329
f 707 767 394
f 394 423 707
f 767 384 394
f 198 423 394
f 394 384 198
f 773 623 381
f 563 623 773
f 381 707 773
f 707 563 773
f 542 59 777
f 96 59 340
f 340 302 96
f 160 808 340
f 808 302 340
f 777 59 255
f 395 852 255
f 255 662 395
f 569 777 255
f 255 852 569
f 96 662 255
f 255 59 96
f 395 590 252
f 252 852 395
f 252 590 569
f 569 852 252
f 408 737 391
f 737 239 391
f 306 286 781
f 737 286 306
f 385 848 600
f 848 910 600
f 525 783 600
f 600 910 525
f 763 553 780
f 780 190 763
f 547 204 75
f 75 105 547
f 871 204 8
f 871 8 43
f 871 75 204
f 43 688 871
f 686 764 307
f 764 514 307
f 130 764 405
f 130 514 764
f 405 379 130
f 914 474 859
f 91 447 495
f 495 433 91
f 597 584 235
f 405 203 597
f 698 102 895
f 698 584 102
f 235 584 698
f 621 14 248
f 568 867 205
f 205 867 174
f 219 508 714
f 714 562 219
f 368 508 200
f 135 508 368
f 520 508 219
f 200 508 520
f 405 99 45
f 45 485 405
f 28 283 685
f 28 398 58
f 28 901 361
f 28 94 901
f 171 134 649
f 260 219 649
f 219 562 649
f 401 508 135
f 716 139 339
f 339 744 716
f 605 744 447
f 123 239 511
f 367 627 35
f 35 261 367
f 345 820 367
f 795 820 345
f 168 513 486
f 187 634 486
f 486 574 168
f 486 634 574
f 287 398 94
f 58 398 287
f 681 632 889
f 889 303 681
f 695 712 502
f 695 623 845
f 381 623 695
f 483 398 629
f 629 712 483
f 932 28 685
f 932 487 398
f 398 28 932
f 487 932 501
f 501 932 685
f 119 482 501
f 889 814 72
f 72 703 889
f 814 703 72
f 356 829 878
f 878 109 356
f 921 109 406
f 921 565 109
f 406 913 921
f 120 835 693
f 835 565 693
f 565 921 693
f 751 249 429
f 9 865 369
f 278 87 440
f 440 482 119
f 388 849 652
f 652 156 388
f 668 476 561
f 757 476 668
f 561 476 530
f 530 476 156
f 372 276 140
f 372 325 48
f 372 516 325
f 807 501 482
f 807 1 142
f 142 487 807
f 487 501 807
f 824 333 305
f 866 186 310
f 310 475 866
f 866 475 186
f 620 164 666
f 164 836 666
f 666 836 720
f 720 549 666
f 666 362 620
f 666 549 362
f 3 723 164
f 3 164 620
f 620 181 3
f 181 317 3
f 674 523 544
f 544 723 674
f 523 330 544
f 330 723 544
f 929 905 459
f 929 133 905
f 174 834 536
f 713 105 288
f 883 466 927
f 185 393 128
f 645 434 588
f 434 341 588
f 427 241 330
f 427 330 645
f 645 588 427
f 427 588 341
f 174 536 427
f 785 241 689
f 330 241 785
f 689 723 785
f 785 723 330
f 320 241 539
f 320 836 689
f 689 241 320
f 720 836 320
f 320 539 720
f 97 798 4
f 4 798 551
f 4 208 97
f 551 208 4
f 201 97 671
f 671 798 201
f 201 798 97
f 33 181 80
f 181 798 80
f 535 798 772
f 11 798 535
f 23 242 352
f 674 723 748
f 723 242 748
f 748 297 674
f 143 297 748
f 420 581 675
f 675 468 420
f 458 468 675
f 479 420 282
f 479 581 420
f 282 727 479
f 479 727 237
f 479 237 918
f 479 918 745
f 101 858 479
f 745 257 479
f 479 257 101
f 612 815 445
f 350 815 612
f 254 880 505
f 651 888 739
f 739 246 651
f 912 678 264
f 264 678 805
f 800 323 402
f 402 801 800
f 801 793 800
f 24 787 672
f 672 926 24
f 719 926 672
f 793 233 270
f 270 787 793
f 701 221 207
f 151 354 207
f 207 354 701
f 24 151 207
f 207 510 24
f 310 131 207
f 207 928 310
f 207 221 928
f 912 510 207
f 207 131 230
f 207 163 912
f 230 163 207
f 192 821 151
f 69 548 15
f 701 548 69
f 15 172 69
f 378 548 354
f 354 172 378
f 378 172 548
f 884 270 233
f 787 270 884
f 884 233 749
f 749 861 884
f 767 275 522
f 522 819 767
f 522 275 403
f 403 819 522
f 851 73 236
f 236 410 851
f 572 777 160
f 572 542 777
f 160 340 118
f 118 340 59
f 188 789 49
f 441 179 797
f 582 779 600
f 850 404 195
f 195 707 381
f 195 124 707
f 404 124 195
f 550 882 855
f 730 359 159
f 642 159 359
f 625 528 16
f 105 75 446
f 446 803 105
f 446 871 688
f 75 871 446
f 655 803 446
f 688 655 446
f 240 914 859
f 339 139 898
f 898 914 339
f 750 597 203
f 750 203 650
f 750 650 338
f 338 584 750
f 584 597 750
f 636 14 405
f 405 597 636
f 636 597 235
f 243 621 555
f 14 621 243
f 243 560 405
f 405 14 243
f 555 621 697
f 697 621 248
f 248 205 697
f 174 555 697
f 697 205 174
f 227 134 52
f 650 725 571
f 571 424 650
f 52 134 217
f 217 171 546
f 217 134 171
f 650 424 217
f 546 338 217
f 338 650 217
f 485 45 184
f 184 520 485
f 200 520 184
f 125 45 99
f 705 45 125
f 433 705 125
f 361 283 843
f 843 28 361
f 283 28 843
f 171 649 358
f 358 649 562
f 260 649 868
f 868 196 260
f 868 227 52
f 52 725 868
f 725 196 868
f 744 605 202
f 202 99 405
f 353 123 511
f 343 123 353
f 353 261 343
f 303 398 659
f 754 695 845
f 398 695 754
f 845 146 754
f 146 398 754
f 558 695 398
f 398 483 558
f 712 695 558
f 558 483 712
f 109 835 253
f 253 356 109
f 253 835 120
f 253 120 829
f 829 356 253
f 50 120 844
f 120 693 844
f 844 693 921
f 421 751 54
f 54 751 429
f 741 87 278
f 278 757 741
f 87 766 74
f 178 135 278
f 278 440 178
f 178 401 135
f 178 440 401
f 862 440 87
f 508 401 256
f 401 440 256
f 562 714 256
f 256 358 562
f 171 358 256
f 119 171 256
f 256 440 119
f 363 372 140
f 516 372 363
f 488 428 489
f 489 276 488
f 795 428 44
f 820 795 44
f 37 140 187
f 187 1 37
f 1 807 37
f 863 824 833
f 824 305 833
f 531 74 838
f 55 74 531
f 140 37 212
f 212 37 74
f 352 723 331
f 723 811 331
f 723 3 517
f 517 811 723
f 444 466 883
f 210 466 444
f 768 220 742
f 133 466 407
f 407 341 133
f 407 177 341
f 407 466 210
f 272 713 122
f 547 105 722
f 105 713 722
f 722 77 547
f 883 927 470
f 547 77 470
f 437 128 42
f 437 185 128
f 199 529 232
f 199 336 529
f 232 241 199
f 241 427 199
f 199 427 169
f 463 427 127
f 341 177 127
f 127 427 341
f 169 427 786
f 786 427 536
f 272 427 765
f 765 427 463
f 671 734 453
f 46 734 671
f 46 557 411
f 242 23 46
f 917 259 798
f 917 331 259
f 690 254 505
f 370 254 690
f 673 370 690
f 888 246 396
f 396 739 888
f 246 739 396
f 805 515 226
f 226 264 805
f 515 323 226
f 323 264 226
f 912 264 154
f 719 672 692
f 692 672 787
f 793 787 397
f 281 861 821
f 821 192 281
f 926 861 281
f 756 172 701
f 701 69 756
f 756 69 172
f 787 884 799
f 719 692 799
f 799 692 787
f 799 861 719
f 799 884 861
f 93 572 160
f 457 188 49
f 640 575 457
f 575 188 457
f 857 797 179
f 179 389 857
f 857 389 600
f 710 857 600
f 797 857 710
f 891 582 600
f 891 783 534
f 891 600 783
f 730 159 891
f 891 159 582
f 891 251 730
f 891 587 251
f 608 587 891
f 534 190 891
f 891 190 608
f 899 870 381
f 899 695 502
f 381 695 899
f 676 882 550
f 318 13 432
f 502 13 318
f 318 899 502
f 150 676 837
f 382 841 724
f 524 855 882
f 524 640 441
f 524 882 640
f 583 159 382
f 583 724 277
f 382 724 583
f 277 582 583
f 582 159 583
f 528 625 924
f 924 625 553
f 553 763 924
f 339 914 83
f 914 240 83
f 248 14 38
f 14 636 38
f 38 205 248
f 650 203 106
f 106 900 650
f 650 900 755
f 755 725 650
f 755 196 725
f 99 202 512
f 512 202 605
f 345 367 316
f 367 285 316
f 158 367 261
f 158 285 367
f 211 681 303
f 303 659 211
f 68 921 913
f 68 844 921
f 68 641 827
f 68 827 50
f 50 844 68
f 509 162 683
f 751 162 509
f 183 751 421
f 183 162 751
f 183 421 865
f 865 9 183
f 527 766 87
f 87 741 527
f 527 741 766
f 838 74 704
f 704 162 838
f 683 162 704
f 440 862 663
f 215 714 508
f 508 256 215
f 215 256 714
f 428 488 619
f 619 44 428
f 29 37 807
f 807 663 29
f 29 663 862
f 29 862 87
f 87 74 29
f 74 37 29
f 804 531 333
f 804 333 824
f 21 74 55
f 21 212 74
f 342 363 140
f 140 212 342
f 516 363 342
f 212 21 342
f 325 516 342
f 48 325 342
f 259 331 19
f 19 331 811
f 742 740 308
f 308 768 742
f 133 507 643
f 742 220 643
f 111 507 133
f 364 713 288
f 364 122 713
f 547 470 897
f 897 470 927
f 400 713 272
f 272 765 400
f 669 535 772
f 669 772 671
f 671 453 669
f 110 557 518
f 411 557 110
f 518 393 110
f 646 46 671
f 557 46 646
f 671 229 646
f 734 46 291
f 291 46 23
f 267 798 11
f 267 917 798
f 145 397 787
f 504 397 145
f 145 787 912
f 912 154 145
f 6 800 793
f 793 397 6
f 6 397 800
f 800 397 472
f 472 397 504
f 472 280 800
f 800 280 301
f 926 281 22
f 22 281 192
f 160 118 639
f 639 93 160
f 639 118 59
f 600 779 809
f 809 710 600
f 600 389 294
f 441 640 86
f 86 294 389
f 694 294 86
f 86 179 441
f 86 389 179
f 850 195 234
f 550 224 373
f 373 676 550
f 224 676 373
f 656 234 195
f 870 899 656
f 381 870 656
f 656 195 381
f 882 676 454
f 454 575 640
f 640 882 454
f 454 150 575
f 676 150 454
f 292 318 432
f 432 53 292
f 499 789 660
f 789 188 660
f 683 704 322
f 322 74 766
f 322 704 74
f 440 663 115
f 115 663 807
f 482 440 115
f 115 807 482
f 55 531 776
f 531 804 776
f 743 48 473
f 133 643 2
f 2 643 220
f 133 929 348
f 348 111 133
f 504 145 155
f 323 800 5
f 800 301 5
f 5 264 323
f 5 154 264
f 365 694 781
f 365 294 694
f 781 385 365
f 600 294 365
f 385 600 365
f 684 676 224
f 684 656 676
f 837 676 680
f 676 656 680
f 680 318 837
f 899 318 680
f 680 656 899
f 499 660 609
f 104 660 188
f 104 188 575
f 575 150 104
f 150 609 104
f 104 609 660
f 728 842 441
f 441 417 728
f 417 806 728
f 728 806 841
f 728 841 382
f 729 524 441
f 441 842 729
f 664 684 422
f 359 850 422
f 422 642 359
f 850 234 422
f 422 234 664
f 271 741 683
f 683 322 271
f 766 741 271
f 271 322 766
f 624 21 55
f 48 342 774
f 774 473 48
f 559 824 893
f 559 893 743
f 743 473 559
f 41 145 154
f 41 155 145
f 664 234 95
f 95 684 664
f 382 869 293
f 293 224 550
f 550 855 293
f 796 869 382
f 382 159 796
f 159 642 796
f 642 422 796
f 796 422 604
f 604 422 596
f 224 293 596
f 596 293 604
f 596 684 224
f 596 422 684
f 746 774 624
f 847 342 21
f 847 774 342
f 604 293 903
f 903 293 869
f 677 624 55
f 677 746 624
f 473 774 10
f 774 746 10
f 911 108 103
f 911 103 760
f 893 532 17
f 743 893 17
f 17 532 812
f 17 830 743
f 35 830 17
f 930 721 218
f 418 721 930
f 436 176 788
f 788 176 753
f 296 137 225
f 490 137 296
f 296 351 490
f 244 117 614
f 614 117 920
f 213 827 877
f 481 141 431
f 491 481 431
f 70 34 431
f 431 564 491
f 585 564 431
f 431 34 585
f 141 839 431
f 495 443 476
f 443 909 476
f 476 909 388
f 475 813 149
f 149 732 475
f 65 121 916
f 928 121 65
f 65 885 928
f 477 335 380
f 736 335 477
f 520 289 485
f 219 289 520
f 123 166 853
f 123 343 166
f 853 828 123
f 123 286 408
f 123 828 881
f 881 286 123
f 408 391 123
f 123 391 239
f 552 206 486
f 486 334 552
f 486 206 187
f 486 346 452
f 452 334 486
f 486 513 346
f 94 28 287
f 287 28 58
f 685 283 501
f 501 283 119
f 657 461 479
f 479 328 657
f 858 905 479
f 266 328 479
f 479 461 458
f 479 905 266
f 458 675 479
f 479 675 581
f 674 297 612
f 445 918 612
f 612 727 282
f 612 468 674
f 282 420 612
f 612 297 350
f 420 468 612
f 918 237 612
f 237 727 612
f 254 312 262
f 262 880 254
f 189 193 254
f 193 376 254
f 376 312 254
f 908 867 254
f 254 327 189
f 254 867 327
f 254 370 908
f 73 324 236
f 324 410 236
f 16 708 625
f 625 238 313
f 708 238 625
f 313 88 625
f 88 553 625
f 243 130 379
f 379 40 243
f 872 298 243
f 243 298 686
f 555 718 243
f 686 307 243
f 243 718 872
f 243 40 560
f 243 307 514
f 514 130 243
f 217 571 725
f 217 725 52
f 424 571 217
f 184 705 135
f 184 368 200
f 135 368 184
f 184 45 705
f 868 649 134
f 134 227 868
f 202 898 139
f 405 764 202
f 139 716 202
f 764 474 202
f 474 914 202
f 202 716 744
f 914 898 202
f 818 865 54
f 429 818 54
f 865 421 54
f 505 56 690
f 690 199 169
f 690 56 633
f 633 336 690
f 169 786 690
f 834 673 690
f 690 536 834
f 336 199 690
f 690 786 536
f 924 709 414
f 414 540 924
f 924 190 709
f 387 528 924
f 924 540 387
f 924 763 190
f 83 78 339
f 859 803 83
f 655 78 83
f 83 803 655
f 83 240 859
f 38 698 895
f 895 568 38
f 235 698 38
f 568 205 38
f 38 636 235
f 260 196 755
f 755 203 260
f 755 106 203
f 900 106 755
f 447 91 512
f 512 125 99
f 512 91 433
f 512 605 447
f 433 125 512
f 616 825 158
f 158 353 511
f 158 825 489
f 158 832 616
f 489 428 158
f 511 832 158
f 158 795 345
f 158 428 795
f 261 353 158
f 345 316 158
f 158 316 285
f 632 681 211
f 211 398 632
f 211 659 398
f 82 641 68
f 68 913 82
f 249 751 509
f 509 652 849
f 509 668 561
f 683 741 509
f 561 530 509
f 849 249 509
f 509 741 757
f 156 652 509
f 757 668 509
f 509 530 156
f 183 493 863
f 183 309 493
f 183 9 369
f 369 309 183
f 863 833 183
f 838 162 183
f 183 305 333
f 183 531 838
f 183 833 305
f 333 531 183
f 619 372 48
f 619 48 647
f 627 367 619
f 276 372 619
f 619 367 820
f 647 627 619
f 619 488 276
f 820 44 619
f 33 80 19
f 19 317 33
f 19 517 3
f 798 259 19
f 19 3 317
f 19 80 798
f 811 517 19
f 174 427 364
f 364 374 174
f 288 374 364
f 364 427 272
f 272 122 364
f 400 444 883
f 400 407 210
f 463 127 400
f 77 722 400
f 883 470 400
f 210 444 400
f 177 407 400
f 400 765 463
f 400 722 713
f 400 470 77
f 400 127 177
f 745 658 110
f 242 46 110
f 143 748 110
f 110 437 42
f 110 42 745
f 658 815 110
f 110 815 143
f 393 185 110
f 110 748 242
f 185 437 110
f 110 46 411
f 747 631 646
f 257 747 646
f 646 128 518
f 646 311 257
f 646 631 128
f 518 557 646
f 229 311 646
f 535 669 267
f 352 331 267
f 11 535 267
f 267 23 352
f 267 453 734
f 734 291 267
f 331 917 267
f 267 669 453
f 267 291 23
f 22 192 151
f 151 926 22
f 542 572 639
f 59 542 639
f 572 93 639
f 86 306 781
f 49 737 86
f 86 457 49
f 737 306 86
f 640 457 86
f 781 694 86
f 441 797 806
f 806 582 277
f 277 724 806
f 779 582 806
f 806 417 441
f 797 710 806
f 806 809 779
f 806 724 841
f 710 809 806
f 8 204 2
f 2 740 8
f 2 308 740
f 2 204 547
f 2 466 133
f 547 897 2
f 2 927 466
f 220 768 2
f 768 308 2
f 2 897 927
f 101 742 348
f 314 101 348
f 348 826 314
f 459 586 348
f 348 929 459
f 348 586 826
f 742 643 348
f 348 643 507
f 507 111 348
f 609 292 53
f 609 53 499
f 318 292 609
f 837 318 609
f 609 150 837
f 504 155 41
f 41 472 504
f 280 472 41
f 41 301 280
f 154 5 41
f 41 5 301
f 656 684 95
f 234 656 95
f 855 524 293
f 293 728 382
f 524 729 293
f 842 728 293
f 293 729 842
f 624 774 847
f 21 624 847
f 869 796 903
f 903 796 604
f 10 804 824
f 55 776 10
f 10 776 804
f 824 559 10
f 10 559 473
f 10 677 55
f 746 677 10

