# https://github.com/mikedh/trimesh
v 0.01820954 0.03025040 -0.02500801
v 0.02379301 0.03083090 -0.03353582
v 0.00242369 0.02902824 -0.02516066
v 0.02493564 0.02552285 -0.03378608
v 0.00012700 0.02742584 -0.02853123
v 0.00787864 0.02522182 -0.03378607
v 0.02485612 0.03123018 -0.02714807
v 0.00742492 0.02927705 -0.02504287
v 0.02292485 0.03017809 -0.03378609
v 0.02492024 0.02779331 -0.03378608
v 0.02497987 0.02808869 -0.02853011
v 0.00129535 0.02903623 -0.03268265
v 0.02346383 0.02539406 -0.03378608
v 0.00009722 0.02903129 -0.02656469
v 0.00039896 0.02904793 -0.03127166
v 0.02419537 0.03112024 -0.02542000
v 0.00063357 0.02522157 -0.02851217
v 0.01627002 0.02501753 -0.03378608
v 0.02415495 0.03109515 -0.03326719
v 0.02219154 0.02536970 -0.03378609
v 0.01704683 0.03008174 -0.02502323
v 0.00042420 0.02627844 -0.03378607
v 0.02492726 0.03068587 -0.02851217
v 0.02361877 0.02504447 -0.02853018
v 0.02433572 0.02528235 -0.02851217
v 0.02474207 0.02975589 -0.03378608
v 0.02428956 0.03012814 -0.03378608
v 0.00035154 0.02794558 -0.03378607
v 0.00085331 0.02843502 -0.03378607
v 0.02470165 0.03121169 -0.03129252
v 0.02484415 0.02672207 -0.02851217
v 0.00963236 0.02507610 -0.02853080
v 0.00368941 0.02513445 -0.02851217
v 0.02072092 0.02527677 -0.03378608
v 0.02443184 0.02505180 -0.03378608
v 0.02375574 0.03105603 -0.02528534
v 0.02349135 0.02931983 -0.03378609
v 0.00184142 0.02903229 -0.03301007
f 3 16 14
f 14 17 3
f 14 16 7
f 7 30 14
f 18 24 32
f 24 3 32
f 28 29 9
f 9 22 28
f 6 22 18
f 17 22 6
f 5 17 14
f 5 22 17
f 14 28 5
f 5 28 22
f 9 29 2
f 29 19 2
f 14 30 15
f 30 19 15
f 15 28 14
f 29 28 15
f 18 32 33
f 33 6 18
f 17 6 33
f 33 3 17
f 33 32 3
f 36 25 16
f 24 25 36
f 16 3 36
f 8 3 24
f 24 21 8
f 35 25 24
f 35 4 25
f 35 13 4
f 35 24 18
f 31 4 11
f 25 4 31
f 16 25 31
f 11 7 31
f 31 7 16
f 11 4 10
f 12 15 19
f 29 15 12
f 1 21 24
f 24 36 1
f 1 36 3
f 3 8 1
f 1 8 21
f 18 22 34
f 34 35 18
f 30 7 23
f 23 7 11
f 11 10 23
f 27 2 19
f 9 2 27
f 38 19 29
f 29 12 38
f 38 12 19
f 13 35 20
f 35 34 20
f 20 22 9
f 20 34 22
f 30 23 26
f 26 23 10
f 26 19 30
f 26 27 19
f 26 10 4
f 4 27 26
f 9 27 37
f 37 20 9
f 13 20 37
f 4 13 37
f 37 27 4

