# https://github.com/mikedh/trimesh
v 0.02481025 -0.03600832 -0.05088215
v 0.03449011 -0.02660224 -0.06495907
v 0.03096458 -0.03127383 -0.06146505
v 0.00846768 -0.03823087 -0.05182389
v 0.02280401 -0.02636769 -0.09644645
v 0.01709166 -0.03514237 -0.07175015
v 0.03755306 -0.02559235 -0.05568217
v 0.03400677 -0.02722371 -0.06526272
v 0.03792696 -0.00275118 -0.06518221
v 0.02783416 -0.02393574 -0.08768796
v 0.03118094 -0.02476205 -0.07780190
v 0.02529677 -0.03104960 -0.07712010
v 0.02550946 -0.02699336 -0.08848943
v 0.02718946 -0.03044780 -0.07468701
v 0.01979385 -0.02832442 -0.09822994
v 0.02150001 -0.02827150 -0.09447698
v 0.04090058 -0.01688601 -0.05061921
v 0.02773145 -0.02910199 -0.07777730
v 0.03489367 -0.02384498 -0.06707943
v 0.03323527 -0.03212278 -0.05096147
v 0.01825534 -0.03242125 -0.08650173
v 0.03132680 -0.02501508 -0.07706407
v 0.02463426 -0.03158651 -0.07670401
v 0.02509721 -0.02452865 -0.09401574
v 0.02938571 -0.02486814 -0.08252533
v 0.03604505 -0.02610135 -0.06026703
v 0.03122622 -0.02561094 -0.07652320
v 0.03766024 -0.01335218 -0.06392591
v 0.03262061 -0.01037626 -0.08064712
v 0.00006081 -0.03692975 -0.06915160
v 0.00978236 -0.03308291 -0.09847541
v 0.03341676 -0.01018412 -0.07833072
v 0.02264042 -0.03609055 -0.05471627
v 0.02896351 -0.02527193 -0.08302776
v 0.03759573 -0.00016520 -0.06662800
v 0.02955382 -0.02631416 -0.07979431
v 0.04038388 -0.02030300 -0.05015593
v 0.00131781 -0.03855863 -0.05003716
v 0.03053588 -0.01988955 -0.08275786
v 0.03054074 -0.02782516 -0.07396048
v 0.03622575 -0.02222239 -0.06395276
v 0.02920781 -0.02395973 -0.08399162
v 0.02906008 -0.02541076 -0.08256366
v 0.01215587 -0.03807242 -0.05003082
v 0.02558554 -0.02986652 -0.08054906
v 0.01632627 -0.03040602 -0.09866318
v 0.02982046 -0.02690667 -0.07811820
v 0.02598030 -0.00112267 -0.09994729
v 0.01807444 -0.03606748 -0.06256364
v 0.03563823 -0.02391603 -0.06446730
v 0.03945334 -0.02208372 -0.05216010
v 0.03802186 -0.01492288 -0.06217014
v 0.02078227 -0.02728675 -0.09865761
v 0.02950534 -0.02622371 -0.08007008
v 0.04078435 -0.00497594 -0.05468949
v 0.02468790 -0.01634229 -0.09985712
v 0.02991151 -0.02034466 -0.08420743
v 0.02653033 -0.01299236 -0.09666819
v 0.02458723 -0.02558062 -0.09368700
v 0.03196076 -0.01925894 -0.07920951
v 0.02702613 -0.03355429 -0.06131874
v 0.02359957 -0.02431443 -0.09815050
v 0.03584138 -0.02795535 -0.05711931
v 0.03363700 -0.02787079 -0.06491057
v 0.02694822 -0.03139307 -0.07167240
v 0.02514044 -0.03564466 -0.05259885
v 0.01839338 -0.03741493 -0.05076010
v 0.02533528 -0.01216830 -0.09994434
v 0.04229796 -0.00058778 -0.05022442
v 0.02118368 -0.02923491 -0.09265669
v 0.02941012 -0.03087087 -0.06736114
v 0.02788011 -0.03029707 -0.07341721
v 0.01372277 -0.03198276 -0.09731080
v 0.03496713 -0.02604352 -0.06424253
v 0.04175420 -0.00429460 -0.05139957
v 0.04019544 -0.02063982 -0.05061727
v 0.00942128 -0.03325672 -0.09798213
v 0.03903052 -0.02111422 -0.05458378
v 0.01702015 -0.03740982 -0.05233482
v 0.00051424 -0.03601234 -0.08218781
v 0.00476810 -0.03404107 -0.09923054
v 0.00829117 -0.03839257 -0.05007719
v 0.02743423 -0.03439634 -0.05581859
v 0.04083013 -0.01635571 -0.05124655
v 0.02328237 -0.02545288 -0.09719873
v 0.02873799 -0.03460068 -0.05121747
v 0.02643186 -0.02481385 -0.09019451
v 0.03318232 -0.02542710 -0.07090290
v 0.03591414 -0.02194030 -0.06532866
v 0.04063612 -0.00065769 -0.05610847
v 0.04009630 -0.00661352 -0.05676939
v 0.01931787 -0.03729443 -0.05042398
v 0.03666947 -0.01459622 -0.06688962
v 0.02488398 -0.02629133 -0.09177992
v 0.03308470 -0.02792853 -0.06633394
v 0.02407841 -0.02658749 -0.09289636
v 0.02853347 -0.03479006 -0.05061472
v 0.03474337 -0.02586600 -0.06532265
v 0.02464959 -0.02344306 -0.09647265
v 0.02345838 -0.03367777 -0.06918219
v 0.03565228 -0.03013723 -0.05011119
v 0.03039642 -0.02402355 -0.08070721
v 0.02858173 -0.02905696 -0.07557434
v 0.00031414 -0.03594514 -0.08306534
v 0.01705011 -0.03096242 -0.09511453
v 0.03769077 -0.00010200 -0.06632318
v 0.03379686 -0.02829136 -0.06310923
v 0.03607478 -0.02510938 -0.06165784
v 0.03381268 -0.02773251 -0.06468941
v 0.02851602 -0.00189554 -0.09323924
v 0.02270500 -0.02464050 -0.09995746
v 0.01756561 -0.03490488 -0.07284881
v 0.01758277 -0.03731122 -0.05278276
v 0.02806993 -0.02815050 -0.07937507
v 0.04060229 -0.01927356 -0.05005164
v 0.02502782 -0.03108638 -0.07760070
v 0.03757757 -0.01015450 -0.06487727
v 0.02520822 -0.03522233 -0.05530639
v 0.03746206 -0.02713199 -0.05313579
v 0.03495600 -0.02623527 -0.06397808
v 0.03528765 -0.01231564 -0.07188238
v 0.02200581 -0.02660178 -0.09767527
v 0.03056416 -0.02460213 -0.07969921
v 0.03039224 -0.02750841 -0.07523630
v 0.01959304 -0.02830564 -0.09872082
v 0.03442732 -0.01321398 -0.07431763
v 0.03929547 -0.02362104 -0.05108677
v 0.02845575 -0.02580025 -0.08346967
v 0.03243966 -0.02766032 -0.06905287
v 0.03120964 -0.02355268 -0.07874741
v 0.04002703 -0.00014148 -0.05822209
v 0.03684306 -0.02047287 -0.06307993
v 0.03316959 -0.00715764 -0.07954609
v 0.01787801 -0.02936759 -0.09928902
v 0.03174125 -0.02568771 -0.07490935
v 0.02802087 -0.01282437 -0.09285734
v 0.02566586 -0.03430862 -0.06045968
v 0.03628518 -0.02033010 -0.06511279
v 0.01410848 -0.03189780 -0.09706965
v 0.04222367 -0.00009767 -0.05047202
v 0.03960766 -0.01452239 -0.05676141
v 0.03838314 -0.02658566 -0.05064819
v 0.03495817 -0.01405733 -0.07240665
v 0.04068675 -0.01554133 -0.05233971
v 0.02785387 -0.01366992 -0.09291799
v 0.03777100 -0.00441918 -0.06537912
v 0.03591274 -0.02768378 -0.05751786
v 0.03537390 -0.02842722 -0.05744469
v 0.00036652 -0.03816909 -0.05449073
v 0.03826774 -0.02668810 -0.05094276
v 0.02135946 -0.02939655 -0.09175163
v 0.00711694 -0.03364167 -0.09869938
v 0.01244386 -0.03326528 -0.09249888
v 0.03061542 -0.02612350 -0.07733389
v 0.04115188 -0.00316577 -0.05377996
v 0.03690754 -0.02872473 -0.05116372
v 0.03400659 -0.01203746 -0.07597336
v 0.02506753 -0.02900890 -0.08422790
v 0.03754770 -0.01381999 -0.06422238
v 0.03341463 -0.00305354 -0.07930024
v 0.03971906 -0.02256038 -0.05063769
v 0.03008653 -0.01307864 -0.08703745
v 0.04092572 -0.01502718 -0.05179977
v 0.03686755 -0.00078541 -0.06884720
v 0.02280486 -0.03059827 -0.08431840
v 0.01431471 -0.03165092 -0.09798710
v 0.03313985 -0.00778545 -0.07955501
v 0.02589569 -0.03407527 -0.06153775
v 0.04086408 -0.00429796 -0.05455575
v 0.01823326 -0.02948148 -0.09814802
v 0.03193208 -0.02455407 -0.07576245
v 0.03525308 -0.02477298 -0.06504782
v 0.03328917 -0.02642849 -0.06916603
v 0.04164223 -0.00341505 -0.05199035
v 0.03330407 -0.01335693 -0.07777745
v 0.03181520 -0.02541424 -0.07508401
v 0.02686831 -0.02628468 -0.08672670
v 0.03747685 -0.01270557 -0.06470316
v 0.04049362 -0.00003254 -0.05657175
v 0.02348640 -0.02298788 -0.09982016
v 0.03896223 -0.02486813 -0.05094715
v 0.02635914 -0.03086422 -0.07519767
v 0.03317911 -0.00928135 -0.07923515
v 0.03283995 -0.01173618 -0.07966812
v 0.03660632 -0.02075661 -0.06375295
v 0.02607439 -0.03038116 -0.07767895
v 0.02672851 -0.01283400 -0.09621842
v 0.02792063 -0.03148325 -0.06874860
v 0.02137717 -0.03342775 -0.07511463
v 0.03521702 -0.01282982 -0.07196819
v 0.03027710 -0.02773949 -0.07491234
v 0.04194343 -0.00635061 -0.05023823
v 0.01963898 -0.02870132 -0.09762086
v 0.04037297 -0.01594601 -0.05321618
v 0.03723094 -0.02852793 -0.05051839
v 0.02664773 -0.03534424 -0.05117863
v 0.02672802 -0.03037915 -0.07612225
v 0.03066322 -0.02662322 -0.07631505
v 0.01158174 -0.03353990 -0.09242254
v 0.03674785 -0.01831971 -0.06468849
v 0.02908807 -0.02845197 -0.07605803
v 0.03161610 -0.02710367 -0.07279017
v 0.03470863 -0.02750322 -0.06221959
v 0.02056346 -0.03572368 -0.06132361
v 0.02717937 -0.03306832 -0.06327967
v 0.02827859 -0.02679113 -0.08226360
v 0.03041729 -0.03379608 -0.05051006
v 0.03234555 -0.02977542 -0.06248415
v 0.02720880 -0.03425748 -0.05726313
v 0.02761098 -0.02882405 -0.07877359
v 0.02587485 -0.02596768 -0.08979980
v 0.02881128 -0.02573490 -0.08266793
v 0.03075935 -0.02511816 -0.07864152
v 0.02451735 -0.02390241 -0.09630981
v 0.03241302 -0.02714997 -0.07031941
v 0.02746439 -0.02948301 -0.07730181
v 0.03887913 -0.02492376 -0.05121732
v 0.03742266 -0.02762111 -0.05223108
v 0.03322829 -0.02624125 -0.06966869
v 0.03144350 -0.02747823 -0.07249871
v 0.02904487 -0.03205595 -0.06321992
v 0.01286372 -0.03177624 -0.09999073
v 0.02936612 -0.00029343 -0.09114184
v 0.03208942 -0.01821831 -0.07946750
v 0.02842559 -0.00918793 -0.09234919
v 0.03796266 -0.02540590 -0.05434906
v 0.03961208 -0.00051003 -0.05972355
v 0.02764855 -0.02343627 -0.08861212
v 0.02836742 -0.01052723 -0.09229383
v 0.03828794 -0.01487176 -0.06125570
v 0.02514072 -0.01376343 -0.09990495
v 0.03254448 -0.01443715 -0.07963050
v 0.00218783 -0.03429707 -0.09978556
v 0.01817472 -0.02936565 -0.09869429
v 0.00013447 -0.03572969 -0.08546195
v 0.02159200 -0.02653077 -0.09877068
v 0.03786070 -0.00113893 -0.06570637
v 0.01914517 -0.03265003 -0.08357524
v 0.00095012 -0.03447144 -0.09908000
v 0.01558398 -0.03169800 -0.09541761
v 0.02209824 -0.03317418 -0.07481387
v 0.02715615 -0.02965311 -0.07751935
v 0.03733189 -0.01597364 -0.06399951
v 0.01940694 -0.02920821 -0.09673799
v 0.00489805 -0.03848688 -0.05004805
v 0.03969110 -0.02226828 -0.05109134
v 0.02880885 -0.00227492 -0.09239914
v 0.03322489 -0.01229962 -0.07833357
v 0.04148157 -0.01006332 -0.05109662
v 0.02782760 -0.02369332 -0.08795730
v 0.03325668 -0.00029788 -0.08009428
v 0.03297868 -0.02770437 -0.06731157
v 0.03042931 -0.03174172 -0.06088537
v 0.03808935 -0.00059282 -0.06505871
v 0.01642454 -0.03475026 -0.07591750
v 0.03023651 -0.02738097 -0.07597872
v 0.02851809 -0.00135585 -0.09331631
v 0.03305439 -0.03235193 -0.05030712
v 0.02532719 -0.02989756 -0.08104451
v 0.04108977 -0.01388727 -0.05164446
v 0.01528832 -0.03095506 -0.09877423
v 0.03164464 -0.01926910 -0.08007313
v 0.02939998 -0.03177203 -0.06359942
v 0.03260028 -0.02491696 -0.07330994
v 0.02292646 -0.02872723 -0.08995610
v 0.03698294 -0.01558930 -0.06541834
v 0.02412077 -0.02306995 -0.09815171
v 0.03843950 -0.02672186 -0.05017016
v 0.04235258 -0.00049325 -0.05000237
v 0.02551072 -0.02589987 -0.09083364
v 0.03210989 -0.03180094 -0.05580368
v 0.01749732 -0.03513176 -0.07123270
v 0.03741148 -0.02655975 -0.05441362
v 0.03459372 -0.00011295 -0.07601294
v 0.02749126 -0.02316743 -0.08920310
v 0.03542688 -0.02805368 -0.05837214
v 0.01760518 -0.02940200 -0.09972319
v 0.02879014 -0.03075224 -0.06945394
v 0.02103606 -0.03578741 -0.05997185
v 0.03319552 -0.00009777 -0.08029051
v 0.00008869 -0.03702448 -0.06786091
v 0.02516162 -0.03572741 -0.05198739
v 0.02322691 -0.03652679 -0.05033501
v 0.03109050 -0.01110274 -0.08473832
v 0.03392722 -0.02747169 -0.06493716
v 0.03320260 -0.01889005 -0.07566145
v 0.03978264 -0.02159204 -0.05143012
v 0.02880190 -0.02130557 -0.08669402
v 0.02795889 -0.02851478 -0.07871876
v 0.02604933 -0.00022456 -0.09990505
v 0.02417581 -0.02246271 -0.09830641
v 0.03223525 -0.02419801 -0.07512383
v 0.03140016 -0.02679159 -0.07395678
v 0.04164660 -0.01075555 -0.05034289
v 0.02970896 -0.03120425 -0.06538615
v 0.03370930 -0.02880816 -0.06158462
v 0.02198094 -0.03328038 -0.07457162
v 0.00015928 -0.03504075 -0.09327822
v 0.02708285 -0.03522812 -0.05096857
v 0.02803096 -0.02924845 -0.07649711
v 0.02617045 -0.02392822 -0.09201461
v 0.02830771 -0.00995865 -0.09254914
v 0.01854752 -0.03685555 -0.05525409
v 0.01509621 -0.03431450 -0.08116884
v 0.03065430 -0.03032923 -0.06556559
v 0.01843890 -0.03660529 -0.05751634
v 0.03306209 -0.02891803 -0.06321745
v 0.02607254 -0.03400827 -0.06158704
v 0.02832995 -0.00009434 -0.09399791
v 0.03957013 -0.02097451 -0.05269096
v 0.03666394 -0.02093650 -0.06343301
v 0.01288973 -0.03798910 -0.05020337
v 0.03996688 -0.02218716 -0.05007960
v 0.01400020 -0.03407487 -0.08471770
v 0.03271874 -0.02477805 -0.07311191
v 0.01900775 -0.02863106 -0.09916985
v 0.03664751 -0.02149015 -0.06310983
v 0.02160632 -0.02933679 -0.09137291
v 0.03510455 -0.01296153 -0.07228028
v 0.03818474 -0.02162223 -0.05730310
v 0.03695599 -0.02742735 -0.05434124
v 0.03071359 -0.03168029 -0.06039019
v 0.03994910 -0.00039517 -0.05852699
v 0.02002036 -0.03285049 -0.08077565
v 0.01893781 -0.02872422 -0.09908633
v 0.03983015 -0.01462995 -0.05592349
v 0.02748480 -0.02930702 -0.07777185
v 0.03824761 -0.02640720 -0.05153020
v 0.02484404 -0.02680988 -0.09052823
v 0.01579012 -0.03165736 -0.09514424
v 0.03469555 -0.02512039 -0.06666706
v 0.03717075 -0.02570439 -0.05689011
v 0.02377483 -0.03626236 -0.05128301
v 0.03700268 -0.01569200 -0.06530503
v 0.02290738 -0.03248262 -0.07628692
v 0.01618694 -0.03157999 -0.09461198
v 0.03116407 -0.01319622 -0.08398169
v 0.03195611 -0.01266398 -0.08190089
v 0.03566701 -0.02113113 -0.06664269
v 0.02845641 -0.01287984 -0.09166586
v 0.02784880 -0.02699882 -0.08283070
v 0.04160380 -0.00072419 -0.05269905
v 0.02800809 -0.02410901 -0.08704313
v 0.04145864 -0.01365447 -0.05038194
v 0.02597121 -0.02316609 -0.09333353
v 0.03335458 -0.02437898 -0.07149306
v 0.01264055 -0.03192137 -0.09964287
v 0.02576103 -0.01289149 -0.09871007
v 0.01427316 -0.03780428 -0.05082044
v 0.02616588 -0.02249200 -0.09314619
v 0.03566870 -0.02444889 -0.06383096
v 0.02445273 -0.03351008 -0.06779241
v 0.00044814 -0.03844516 -0.05140196
v 0.03709567 -0.02331102 -0.05967508
v 0.03322728 -0.02612055 -0.06987301
v 0.03718759 -0.01346841 -0.06551678
v 0.00829065 -0.03335743 -0.09901351
v 0.01872545 -0.02973833 -0.09618401
f 290 149 353
f 353 149 30
f 233 239 290
f 281 290 30
f 30 149 281
f 281 149 290
f 290 353 140
f 140 38 269
f 140 353 38
f 38 353 104
f 269 38 44
f 245 44 38
f 82 44 245
f 235 353 30
f 235 104 353
f 269 44 115
f 115 44 101
f 81 233 222
f 222 357 81
f 101 44 283
f 283 44 92
f 233 81 113
f 239 233 4
f 233 44 4
f 4 44 82
f 82 245 80
f 80 4 82
f 38 104 80
f 80 245 38
f 239 4 80
f 30 290 298
f 298 235 30
f 290 239 298
f 104 235 298
f 239 80 298
f 298 80 104
f 313 115 101
f 269 115 344
f 222 111 277
f 68 231 111
f 31 357 222
f 152 357 255
f 255 81 152
f 152 81 357
f 86 97 209
f 233 113 79
f 67 81 92
f 67 113 81
f 67 79 113
f 92 44 67
f 290 140 309
f 309 68 290
f 179 309 140
f 280 309 179
f 37 313 287
f 115 313 37
f 268 313 101
f 48 111 222
f 48 68 111
f 290 68 48
f 222 233 48
f 48 233 290
f 221 86 209
f 347 31 222
f 255 357 77
f 357 31 77
f 81 6 49
f 258 20 101
f 101 283 258
f 258 283 97
f 233 79 349
f 79 67 349
f 69 140 269
f 69 342 140
f 251 280 274
f 5 85 94
f 316 277 111
f 17 344 115
f 115 37 17
f 292 89 346
f 61 221 209
f 205 221 61
f 209 308 61
f 61 308 205
f 255 77 314
f 306 49 92
f 81 49 306
f 204 279 283
f 20 258 207
f 97 86 207
f 207 258 97
f 312 44 233
f 233 349 312
f 312 67 44
f 312 349 67
f 146 237 254
f 280 179 106
f 106 274 280
f 254 237 164
f 164 274 254
f 254 227 90
f 90 227 342
f 323 179 140
f 140 342 323
f 342 227 323
f 177 94 211
f 212 211 43
f 329 18 5
f 47 154 198
f 213 154 47
f 265 16 5
f 277 316 325
f 236 316 111
f 111 85 236
f 236 85 5
f 195 268 101
f 287 320 317
f 138 89 339
f 111 231 180
f 203 147 276
f 276 147 63
f 27 154 213
f 292 346 171
f 313 268 181
f 287 313 246
f 222 277 261
f 347 240 139
f 240 21 139
f 209 97 83
f 83 308 209
f 31 21 189
f 199 77 31
f 199 314 77
f 199 189 314
f 314 189 304
f 92 81 303
f 303 306 92
f 81 306 303
f 272 81 255
f 272 6 81
f 272 49 6
f 92 49 272
f 192 69 269
f 269 344 192
f 344 294 192
f 342 69 174
f 254 106 131
f 131 106 179
f 131 227 254
f 254 274 35
f 35 106 254
f 274 106 35
f 213 43 34
f 34 87 213
f 59 85 111
f 177 211 128
f 211 212 128
f 5 94 96
f 96 329 5
f 94 329 96
f 18 329 13
f 13 329 94
f 54 212 43
f 54 43 213
f 206 341 94
f 206 94 177
f 198 154 293
f 154 27 293
f 20 296 148
f 208 296 20
f 3 322 295
f 295 208 3
f 86 322 271
f 20 207 271
f 271 207 86
f 271 322 3
f 271 208 20
f 3 208 271
f 5 18 158
f 158 265 5
f 265 158 70
f 193 16 70
f 16 265 70
f 70 158 18
f 122 236 5
f 5 16 122
f 122 16 193
f 316 236 125
f 276 195 156
f 156 195 101
f 101 20 156
f 156 148 276
f 20 148 156
f 268 195 218
f 119 150 218
f 218 150 268
f 218 63 147
f 185 89 138
f 138 200 185
f 60 224 286
f 138 339 286
f 267 180 291
f 2 203 8
f 213 11 22
f 22 176 213
f 119 2 120
f 273 150 119
f 7 150 273
f 328 150 7
f 89 317 41
f 41 317 320
f 161 246 313
f 226 328 7
f 246 161 226
f 223 309 280
f 223 280 251
f 340 145 136
f 224 145 340
f 237 146 32
f 231 68 348
f 68 187 348
f 166 261 240
f 222 261 166
f 165 358 244
f 244 325 193
f 193 70 244
f 31 347 73
f 347 139 73
f 73 21 31
f 73 139 21
f 352 308 297
f 297 308 100
f 100 189 297
f 279 189 33
f 283 279 33
f 238 189 21
f 105 358 165
f 165 336 105
f 240 261 330
f 31 189 153
f 153 199 31
f 189 199 153
f 204 272 112
f 279 204 112
f 112 272 255
f 112 189 279
f 112 304 189
f 255 314 112
f 314 304 112
f 159 28 169
f 75 294 344
f 75 192 294
f 69 192 75
f 75 174 69
f 213 87 25
f 85 59 270
f 270 94 85
f 270 211 94
f 213 47 36
f 36 54 213
f 18 13 210
f 202 47 198
f 198 293 202
f 263 295 322
f 23 221 205
f 205 308 23
f 308 352 23
f 23 352 297
f 240 330 23
f 23 330 336
f 23 21 240
f 23 336 165
f 23 238 21
f 335 238 23
f 327 70 18
f 193 125 15
f 15 122 193
f 321 218 147
f 321 2 119
f 119 218 321
f 76 37 287
f 287 310 76
f 287 317 78
f 78 310 287
f 311 317 89
f 89 185 311
f 163 17 84
f 344 17 163
f 334 200 138
f 138 286 334
f 178 28 159
f 29 32 184
f 337 232 224
f 56 180 231
f 231 291 56
f 56 291 180
f 130 171 11
f 11 102 130
f 292 171 130
f 130 89 292
f 130 339 89
f 130 286 339
f 60 286 130
f 123 11 213
f 123 102 11
f 276 148 64
f 355 219 135
f 135 27 213
f 213 176 135
f 176 355 135
f 176 22 264
f 332 273 26
f 7 273 332
f 26 120 332
f 142 181 268
f 287 246 51
f 51 351 287
f 88 355 176
f 176 264 88
f 328 226 217
f 217 142 328
f 181 142 217
f 29 223 167
f 247 223 29
f 58 348 187
f 58 187 136
f 136 145 58
f 165 244 151
f 70 318 151
f 151 244 70
f 234 261 277
f 277 325 134
f 325 244 134
f 134 234 277
f 244 234 134
f 282 196 1
f 1 196 299
f 1 299 97
f 97 283 1
f 324 238 335
f 297 189 324
f 189 238 324
f 342 174 155
f 174 169 155
f 159 169 91
f 249 75 344
f 62 87 111
f 111 180 62
f 99 301 214
f 214 62 99
f 99 62 180
f 18 210 289
f 215 129 220
f 220 202 215
f 47 202 220
f 215 202 173
f 173 8 215
f 2 8 173
f 173 355 2
f 173 219 355
f 307 220 129
f 107 148 296
f 107 64 148
f 296 208 107
f 208 307 107
f 221 263 253
f 253 263 322
f 86 221 253
f 253 322 86
f 221 23 65
f 65 23 182
f 241 23 297
f 335 23 241
f 297 324 241
f 241 324 335
f 53 125 236
f 53 15 125
f 194 311 132
f 132 311 185
f 132 163 194
f 144 163 84
f 194 163 144
f 159 141 52
f 266 334 286
f 266 52 334
f 9 146 254
f 146 178 356
f 356 178 159
f 232 337 338
f 338 184 232
f 224 340 162
f 162 337 224
f 252 129 215
f 252 64 129
f 109 203 276
f 276 64 109
f 7 332 331
f 355 88 331
f 331 315 171
f 331 171 346
f 331 264 315
f 331 88 264
f 287 351 354
f 351 50 354
f 127 226 161
f 127 217 226
f 183 32 29
f 29 167 183
f 237 32 183
f 251 274 160
f 29 340 284
f 284 247 29
f 309 223 257
f 223 247 257
f 68 309 257
f 170 234 244
f 168 100 308
f 283 33 333
f 333 1 283
f 333 33 189
f 189 1 333
f 55 169 174
f 55 91 169
f 260 249 344
f 326 141 260
f 260 163 326
f 344 163 260
f 24 25 87
f 87 62 24
f 256 220 124
f 47 220 256
f 256 206 47
f 341 206 256
f 256 114 341
f 256 289 114
f 18 289 256
f 256 201 18
f 208 295 305
f 305 307 208
f 40 220 305
f 220 307 305
f 95 307 129
f 95 107 307
f 129 64 95
f 64 107 95
f 40 201 191
f 124 220 191
f 191 220 40
f 188 65 295
f 295 263 188
f 188 263 221
f 221 65 188
f 259 151 45
f 45 151 318
f 12 197 182
f 182 23 12
f 216 327 18
f 197 242 72
f 242 216 72
f 72 216 278
f 200 334 243
f 334 52 243
f 230 141 326
f 230 52 141
f 117 178 146
f 146 9 117
f 102 123 42
f 42 250 102
f 102 250 228
f 25 301 343
f 213 25 343
f 350 58 145
f 350 145 224
f 348 58 350
f 285 8 203
f 203 109 285
f 172 50 351
f 172 331 89
f 41 50 172
f 89 41 172
f 74 332 120
f 19 346 89
f 89 331 19
f 19 331 346
f 133 160 274
f 274 164 133
f 251 160 133
f 133 164 237
f 133 223 251
f 133 167 223
f 237 183 133
f 133 183 167
f 136 187 302
f 261 234 46
f 234 170 46
f 282 1 66
f 1 168 66
f 189 100 137
f 100 168 137
f 103 201 40
f 40 305 103
f 18 201 103
f 186 45 242
f 186 242 197
f 197 12 186
f 259 45 186
f 116 12 23
f 116 23 165
f 197 72 14
f 14 72 278
f 232 184 175
f 224 232 175
f 175 143 224
f 275 228 345
f 345 228 250
f 345 288 275
f 345 291 231
f 231 348 345
f 348 350 345
f 224 288 345
f 345 350 224
f 345 99 267
f 301 99 345
f 267 291 345
f 10 343 301
f 301 345 10
f 10 345 250
f 262 224 60
f 262 39 224
f 57 288 224
f 224 39 57
f 7 331 108
f 331 172 108
f 98 74 120
f 98 120 2
f 2 355 98
f 355 331 98
f 247 284 225
f 225 302 247
f 284 302 225
f 229 340 136
f 136 302 229
f 229 284 340
f 229 302 284
f 110 257 247
f 247 302 110
f 110 302 187
f 110 187 68
f 68 257 110
f 118 168 1
f 118 137 168
f 118 1 189
f 189 137 118
f 300 216 18
f 18 103 300
f 248 184 32
f 248 175 184
f 121 190 32
f 121 32 146
f 146 356 121
f 93 121 356
f 190 121 93
f 224 143 93
f 93 356 159
f 159 52 93
f 52 266 93
f 93 286 224
f 93 266 286
f 143 175 126
f 71 300 103
f 295 278 71
f 278 216 71
f 216 300 71
f 71 305 295
f 71 103 305
f 32 190 157
f 157 248 32
f 143 126 319
f 319 93 143
f 190 93 319
f 272 283 92
f 272 204 283
f 131 323 227
f 179 323 131
f 125 325 316
f 193 325 125
f 218 195 276
f 276 63 218
f 273 120 26
f 119 120 273
f 166 347 222
f 166 240 347
f 270 34 43
f 111 87 270
f 43 211 270
f 87 34 270
f 270 59 111
f 212 54 36
f 177 128 36
f 36 128 212
f 36 206 177
f 47 206 36
f 321 203 2
f 147 203 321
f 264 22 11
f 11 171 264
f 171 315 264
f 150 328 142
f 268 150 142
f 99 180 267
f 289 13 94
f 94 341 289
f 341 114 289
f 289 210 13
f 173 293 27
f 173 202 293
f 27 135 173
f 173 135 219
f 122 15 53
f 236 122 53
f 144 17 37
f 317 311 144
f 84 17 144
f 144 78 317
f 37 76 144
f 144 76 310
f 310 78 144
f 144 311 194
f 162 338 337
f 184 338 162
f 162 340 29
f 29 184 162
f 354 41 320
f 354 320 287
f 354 50 41
f 127 161 313
f 313 181 127
f 181 217 127
f 260 141 159
f 174 75 260
f 159 91 260
f 260 55 174
f 75 249 260
f 91 55 260
f 24 301 25
f 214 301 24
f 24 62 214
f 201 256 191
f 191 256 124
f 216 45 318
f 242 45 216
f 216 318 70
f 70 327 216
f 230 132 185
f 230 185 200
f 326 163 230
f 163 132 230
f 200 243 230
f 230 243 52
f 117 169 28
f 342 155 117
f 254 90 117
f 117 90 342
f 28 178 117
f 117 155 169
f 117 9 254
f 285 252 215
f 215 8 285
f 64 252 285
f 285 109 64
f 46 330 261
f 358 105 46
f 46 244 358
f 46 105 336
f 336 330 46
f 46 170 244
f 66 196 282
f 97 299 66
f 66 83 97
f 299 196 66
f 308 83 66
f 66 168 308
f 165 151 116
f 116 151 259
f 116 186 12
f 259 186 116
f 14 65 182
f 182 197 14
f 295 65 14
f 14 278 295
f 10 42 123
f 10 123 213
f 250 42 10
f 213 343 10
f 57 130 102
f 60 130 57
f 102 228 57
f 275 288 57
f 57 228 275
f 57 262 60
f 39 262 57
f 108 226 7
f 108 51 246
f 246 226 108
f 351 51 108
f 108 172 351
f 332 74 98
f 98 331 332
f 319 126 175
f 175 248 319
f 319 157 190
f 248 157 319

