# https://github.com/mikedh/trimesh
v 0.12666368 -0.02606183 -0.02038484
v 0.12532845 -0.02800541 -0.02427654
v 0.12535734 -0.02729330 -0.02101627
v 0.12935640 -0.02530861 -0.02233835
v 0.12678600 -0.02577372 -0.02025388
v 0.12893704 -0.02504600 -0.02069681
v 0.12806155 -0.02513399 -0.02028854
v 0.12827777 -0.02585878 -0.02173037
v 0.12949525 -0.02536220 -0.02305299
v 0.12511451 -0.02752280 -0.02151298
v 0.12635402 -0.02566407 -0.02006988
v 0.12957520 -0.02535556 -0.02327973
v 0.12951287 -0.02528730 -0.02273693
v 0.12586726 -0.02701975 -0.02102411
v 0.12508503 -0.02807085 -0.02393824
v 0.12711116 -0.02708651 -0.02474656
v 0.12565511 -0.02787903 -0.02455441
v 0.12847035 -0.02599158 -0.02292870
v 0.12860206 -0.02603937 -0.02354343
v 0.12815908 -0.02652603 -0.02478426
v 0.13044959 -0.02504613 -0.02491839
v 0.12857920 -0.02558306 -0.02119791
v 0.12922182 -0.02586299 -0.02466429
f 10 11 15
f 17 11 21
f 21 11 7
f 7 6 21
f 15 11 2
f 11 17 2
f 6 7 1
f 15 22 14
f 14 22 6
f 6 1 14
f 5 7 11
f 11 1 5
f 5 1 7
f 16 17 21
f 21 20 16
f 16 20 17
f 23 20 21
f 18 2 17
f 11 10 3
f 3 1 11
f 3 14 1
f 3 10 15
f 15 14 3
f 17 20 19
f 19 18 17
f 20 23 19
f 22 18 19
f 2 18 8
f 8 18 22
f 15 2 8
f 8 22 15
f 12 23 21
f 21 13 12
f 6 22 4
f 21 6 4
f 4 13 21
f 9 13 23
f 23 12 9
f 9 12 13
f 22 19 4
f 4 19 23
f 23 13 4

