# https://github.com/mikedh/trimesh
v -0.08922290 -0.01676321 -0.14973193
v -0.09499474 -0.00482456 -0.13118181
v -0.05036553 -0.01661943 -0.13788537
v -0.09933859 -0.01454612 -0.13648699
v -0.09449284 -0.00042888 -0.13097049
v -0.08335754 -0.01674051 -0.14992062
v -0.05002759 -0.01661868 -0.13635680
v -0.08387075 -0.01669148 -0.13466201
v -0.09319849 -0.01677847 -0.14984187
v -0.09897245 -0.01680103 -0.14920265
v -0.08939444 -0.00442179 -0.12930376
v -0.09684495 -0.01679628 -0.14233630
v -0.05010312 -0.01259838 -0.12064152
v -0.08493628 -0.01652995 -0.13421572
v -0.09050860 -0.00998418 -0.13010443
v -0.09686191 -0.00002772 -0.14191773
v -0.09148721 -0.00602418 -0.13000058
v -0.09276701 -0.01080236 -0.13106920
v -0.09619295 -0.00961433 -0.13204578
v -0.08901541 -0.01349903 -0.13144322
v -0.09434492 -0.01156540 -0.13191807
v -0.09736976 -0.00936661 -0.13253328
v -0.09043912 -0.01315889 -0.13160708
v -0.09804001 -0.01680017 -0.14376445
v -0.09667077 -0.01096235 -0.13269959
v -0.09856682 -0.00408452 -0.13277150
v -0.08475227 -0.01675298 -0.13575594
v -0.09725357 -0.01566758 -0.13693229
v -0.09724582 -0.01210466 -0.13348568
v -0.07573909 -0.01671751 -0.13725645
v -0.08888109 -0.01055341 -0.12974815
v -0.05194120 -0.00031991 -0.12038696
v -0.05034587 -0.01626668 -0.12698434
v -0.09497596 -0.01678612 -0.14825325
v -0.09672593 -0.01336023 -0.13419148
v -0.09117468 -0.01677132 -0.14854609
v -0.09657521 -0.01026834 -0.13239003
v -0.09270067 -0.01193068 -0.13160077
v -0.09596575 -0.00350889 -0.13160884
v -0.09454324 -0.01678447 -0.14821507
v -0.09072820 -0.01075253 -0.13040739
v -0.05137559 -0.01662519 -0.13416696
v -0.09455170 -0.00426895 -0.13099782
v -0.09865831 -0.01643931 -0.13875342
v -0.05802874 -0.01664300 -0.14977945
v -0.09429560 -0.01171575 -0.13197764
v -0.09674392 -0.01538496 -0.13631634
v -0.09436135 -0.00583039 -0.13094423
v -0.08906011 -0.00683331 -0.12929865
v -0.09568097 -0.01196643 -0.13271949
v -0.09357482 -0.01672931 -0.13761920
v -0.09446722 -0.00341395 -0.13096730
v -0.09058543 -0.01243064 -0.13123435
v -0.05538988 -0.01663661 -0.14225448
v -0.09545732 -0.01106850 -0.13218121
v -0.05027032 -0.00130401 -0.11758437
v -0.05108773 -0.01661642 -0.14946445
v -0.08883517 -0.01468249 -0.13277311
v -0.09328783 -0.01017336 -0.13104418
v -0.08586287 -0.01598013 -0.13354571
v -0.05090304 -0.01661583 -0.14922787
v -0.07226842 -0.00006381 -0.12717920
v -0.09425322 -0.01670102 -0.13771110
v -0.09650832 -0.01679628 -0.13951956
v -0.06594317 -0.01668149 -0.13380818
v -0.09932898 -0.01483450 -0.13675486
v -0.09507641 -0.01675506 -0.13846138
v -0.09702970 -0.01246872 -0.13360773
v -0.09041311 -0.01421286 -0.13263345
v -0.09561473 -0.00811663 -0.13157760
v -0.06443651 -0.01666758 -0.14998781
v -0.09768088 -0.01583843 -0.13735767
v -0.05012238 -0.01583320 -0.12588225
v -0.09968007 -0.00859681 -0.13349030
v -0.09984190 -0.01211813 -0.13464447
v -0.09185078 -0.00713837 -0.13018246
v -0.09921305 -0.01658640 -0.13946273
v -0.05014642 -0.01662230 -0.13034028
v -0.05024622 -0.01662324 -0.12928784
v -0.09281015 -0.01118712 -0.13126042
v -0.09318154 -0.00646397 -0.13057726
v -0.09503193 -0.01678644 -0.14803046
v -0.09575889 -0.01367276 -0.13402096
v -0.08495658 -0.01655346 -0.13427710
v -0.08418202 -0.01672313 -0.13488888
v -0.09542582 -0.00418112 -0.13136968
v -0.05018109 -0.00000166 -0.14883992
v -0.08786513 -0.01676471 -0.13620135
v -0.09336869 -0.01401053 -0.13336132
v -0.09275935 -0.01624523 -0.13584983
v -0.09529705 -0.01678688 -0.14919959
v -0.08916815 -0.01126030 -0.13020255
v -0.09978283 -0.01399997 -0.13620149
v -0.05018309 -0.01480430 -0.12415552
v -0.05021005 -0.01172268 -0.11989074
v -0.05046436 -0.01661465 -0.14818965
v -0.09978406 -0.00023034 -0.14376769
v -0.09686661 -0.00534171 -0.13201900
v -0.09055409 -0.00544986 -0.12968692
v -0.09728513 -0.00904471 -0.13244823
v -0.09036844 -0.00097908 -0.12961790
v -0.09994565 -0.01330368 -0.14382494
v -0.09288847 -0.01677895 -0.14651134
v -0.09362293 -0.00815608 -0.13084318
v -0.05005361 -0.01056972 -0.14902840
v -0.08903515 -0.01597037 -0.13433037
v -0.05018796 -0.01049448 -0.11884056
v -0.09243347 -0.01059580 -0.13088489
v -0.08529215 -0.01664223 -0.13462018
v -0.08783755 -0.01621878 -0.13432052
v -0.08983809 -0.01456655 -0.13289637
v -0.09999362 -0.00287135 -0.14390808
v -0.09244922 -0.01523728 -0.13435668
v -0.09455181 -0.01507822 -0.13493672
v -0.09382841 -0.01678649 -0.13836599
v -0.09790788 -0.01545987 -0.13693723
v -0.09271256 -0.01677767 -0.14770531
v -0.05016666 -0.00685213 -0.11765844
v -0.09904870 -0.01573656 -0.13783826
v -0.09860309 -0.01073001 -0.13349901
v -0.09366577 -0.01297255 -0.13252611
v -0.08933938 -0.01506856 -0.13335203
v -0.09644289 -0.01679488 -0.14203323
v -0.09169336 -0.01462049 -0.13344128
v -0.05013898 -0.01661471 -0.14557339
v -0.08401012 -0.01629285 -0.13352037
v -0.09974433 -0.00032615 -0.13328813
v -0.07774476 -0.01672662 -0.13446860
v -0.08894310 -0.01004989 -0.12962503
v -0.09482719 -0.00900406 -0.13134789
v -0.05025513 -0.01661952 -0.13686398
v -0.07638816 -0.01672150 -0.13426003
v -0.09812715 -0.01020981 -0.13306954
v -0.09513152 -0.00674635 -0.13128525
v -0.09731585 -0.01672725 -0.13923942
v -0.05017824 -0.01661707 -0.14115980
v -0.05004334 -0.01607805 -0.14901715
v -0.09962209 -0.01680756 -0.14099200
v -0.08955851 -0.00136260 -0.12934653
v -0.09957402 -0.00019401 -0.14354878
v -0.09568796 -0.01679026 -0.14544754
v -0.09889865 -0.01221892 -0.13427843
v -0.05007542 -0.00186553 -0.14897304
v -0.05420703 -0.01663154 -0.14327079
v -0.05007697 -0.00161843 -0.11715788
v -0.06715714 -0.01668609 -0.13395461
v -0.09005970 -0.01674262 -0.13656247
v -0.08601445 -0.01675769 -0.13604715
v -0.08799331 -0.01370019 -0.13141237
v -0.09508662 -0.00711329 -0.13128129
v -0.09082247 -0.00580690 -0.12977748
v -0.09396393 -0.01676400 -0.13803996
v -0.09153565 -0.01314330 -0.13195232
v -0.09918935 -0.00754394 -0.13317656
v -0.09817521 -0.00532306 -0.13260182
v -0.08477521 -0.00024910 -0.12830897
v -0.09858683 -0.01556241 -0.13738044
v -0.09413705 -0.00919280 -0.13113828
v -0.08893011 -0.00066486 -0.12917291
v -0.09208062 -0.01145771 -0.13117164
v -0.05009030 -0.00340352 -0.11723535
v -0.09658105 -0.01334349 -0.13410849
v -0.09192918 -0.00067907 -0.13012958
v -0.08825407 -0.01368235 -0.13145692
v -0.09965642 -0.00337752 -0.13325631
v -0.09552840 -0.01393395 -0.13417625
v -0.09461674 -0.01678483 -0.14806393
v -0.05247664 -0.01663080 -0.13142813
v -0.05092981 -0.00053480 -0.11890409
v -0.09400484 -0.01104119 -0.13155871
v -0.08994860 -0.01580014 -0.13436316
v -0.07532175 -0.01671641 -0.13624299
v -0.09540055 -0.00816494 -0.13148296
v -0.08670605 -0.00003306 -0.13823594
v -0.09959673 -0.01680517 -0.14574297
v -0.09168925 -0.01674566 -0.13702324
f 7 145 13
f 140 16 87
f 16 140 127
f 71 57 9
f 10 175 112
f 87 32 169
f 16 127 62
f 62 32 87
f 125 137 7
f 105 137 57
f 7 137 105
f 6 9 87
f 87 71 6
f 6 71 9
f 143 71 87
f 143 105 57
f 87 145 143
f 143 145 7
f 7 105 143
f 91 10 9
f 9 10 97
f 87 9 97
f 97 140 87
f 97 10 112
f 112 127 97
f 97 127 140
f 56 145 87
f 87 169 56
f 87 16 174
f 174 62 87
f 16 62 174
f 112 175 102
f 7 13 73
f 79 73 33
f 138 102 175
f 93 102 138
f 161 13 145
f 161 118 13
f 145 151 161
f 13 118 107
f 110 126 13
f 137 125 96
f 57 71 45
f 45 143 57
f 71 143 45
f 34 91 9
f 24 138 175
f 13 126 94
f 94 73 13
f 126 73 94
f 7 73 78
f 73 79 78
f 78 125 7
f 33 73 14
f 14 73 126
f 126 110 14
f 85 79 33
f 49 161 151
f 95 20 13
f 13 107 95
f 95 107 20
f 20 107 23
f 93 66 4
f 145 56 156
f 156 5 145
f 156 56 169
f 156 169 32
f 32 62 156
f 156 62 127
f 127 5 156
f 57 137 61
f 137 96 61
f 61 96 125
f 61 36 57
f 138 24 12
f 9 57 1
f 1 36 9
f 57 36 1
f 9 36 117
f 132 79 128
f 128 168 132
f 132 168 79
f 84 109 33
f 33 14 84
f 84 14 110
f 33 109 8
f 8 85 33
f 109 85 8
f 79 85 88
f 53 107 92
f 53 23 107
f 89 166 114
f 114 113 89
f 60 110 13
f 13 149 60
f 77 66 93
f 93 138 77
f 11 151 145
f 145 139 11
f 145 5 159
f 159 139 145
f 151 11 99
f 99 11 139
f 118 161 129
f 161 49 129
f 76 49 151
f 76 129 49
f 123 12 141
f 34 167 123
f 138 12 123
f 123 88 138
f 40 34 9
f 40 167 34
f 30 168 65
f 172 123 30
f 30 65 172
f 172 65 146
f 42 168 30
f 79 168 42
f 30 123 54
f 36 61 54
f 128 79 27
f 79 88 27
f 27 168 128
f 27 172 146
f 123 172 27
f 27 65 168
f 146 65 27
f 20 23 153
f 153 89 20
f 20 89 124
f 124 89 113
f 44 72 119
f 66 77 119
f 119 77 44
f 90 113 114
f 114 72 90
f 90 171 113
f 90 72 44
f 110 171 90
f 109 84 90
f 90 84 110
f 106 171 110
f 171 106 122
f 5 139 163
f 163 159 5
f 129 76 104
f 76 81 104
f 127 74 165
f 34 123 82
f 82 123 141
f 30 54 3
f 36 54 103
f 103 54 123
f 103 117 36
f 88 123 148
f 148 27 88
f 123 27 148
f 147 88 85
f 147 176 88
f 147 85 109
f 109 176 147
f 88 176 115
f 135 77 138
f 23 53 38
f 158 59 15
f 15 104 158
f 129 104 15
f 166 89 83
f 66 166 83
f 83 4 66
f 20 124 69
f 47 114 66
f 66 116 47
f 157 119 72
f 157 116 66
f 66 119 157
f 111 122 164
f 164 69 111
f 20 69 164
f 13 20 164
f 164 149 13
f 139 159 101
f 101 163 139
f 159 163 101
f 17 76 151
f 17 81 76
f 52 139 5
f 52 99 139
f 150 104 81
f 26 165 155
f 127 165 26
f 131 42 30
f 30 3 131
f 79 42 131
f 136 3 54
f 136 61 125
f 136 131 3
f 79 131 136
f 125 78 136
f 136 78 79
f 138 88 64
f 88 115 64
f 77 135 63
f 44 77 63
f 63 90 44
f 63 176 109
f 109 90 63
f 59 19 170
f 121 153 23
f 89 153 121
f 121 83 89
f 28 72 114
f 114 47 28
f 58 122 106
f 58 164 122
f 127 26 39
f 39 5 127
f 154 150 155
f 155 165 154
f 154 165 74
f 104 150 173
f 74 100 173
f 144 54 61
f 61 136 144
f 144 136 54
f 152 115 176
f 152 64 115
f 138 64 152
f 92 107 31
f 31 107 118
f 118 129 31
f 37 19 133
f 37 170 19
f 23 38 46
f 46 121 23
f 83 121 162
f 5 39 86
f 86 26 155
f 86 39 26
f 48 150 81
f 81 17 48
f 48 17 151
f 133 19 22
f 22 74 133
f 22 100 74
f 130 173 100
f 130 59 158
f 130 19 59
f 158 104 130
f 104 173 130
f 150 154 70
f 70 173 150
f 176 63 51
f 51 152 176
f 67 63 135
f 67 135 138
f 138 152 67
f 59 170 108
f 108 15 59
f 129 15 108
f 108 31 129
f 38 31 160
f 160 46 38
f 170 37 55
f 55 37 133
f 99 52 43
f 43 52 5
f 18 108 170
f 31 108 18
f 41 160 31
f 41 18 170
f 31 18 41
f 68 162 121
f 68 142 162
f 121 46 68
f 46 50 68
f 120 55 133
f 133 74 120
f 75 74 127
f 75 120 74
f 75 127 112
f 112 102 75
f 75 102 93
f 134 98 155
f 155 150 134
f 150 48 134
f 5 86 2
f 2 43 5
f 98 134 2
f 48 43 2
f 2 134 48
f 170 55 21
f 55 75 21
f 21 50 46
f 142 68 29
f 29 68 50
f 35 75 93
f 142 75 35
f 162 142 35
f 55 120 25
f 25 75 55
f 120 75 25
f 80 21 46
f 80 41 170
f 170 21 80
f 66 114 166
f 10 91 82
f 175 10 82
f 91 34 82
f 82 24 175
f 82 12 24
f 141 12 82
f 103 123 167
f 103 40 9
f 9 117 103
f 167 40 103
f 69 124 113
f 113 171 69
f 69 122 111
f 171 122 69
f 28 47 116
f 28 157 72
f 116 157 28
f 58 60 149
f 110 60 58
f 58 106 110
f 149 164 58
f 31 38 53
f 31 53 92
f 100 22 130
f 130 22 19
f 74 173 70
f 70 154 74
f 152 51 67
f 67 51 63
f 151 99 43
f 43 48 151
f 2 86 155
f 155 98 2
f 29 75 142
f 50 21 29
f 29 21 75
f 4 83 35
f 93 4 35
f 83 162 35
f 160 41 80
f 46 160 80

