# https://github.com/mikedh/trimesh
v 0.00016831 -0.00724362 0.01452092
v 0.00082765 -0.01694204 0.00074879
v 0.00053629 -0.01419474 0.00809772
v 0.00305092 -0.01679698 0.00359484
v 0.01871450 -0.01809533 0.00416992
v 0.01525296 -0.01826675 0.00219858
v 0.01582361 -0.01747586 0.00612568
v 0.02371683 -0.01792010 0.00569835
v 0.02499487 -0.01001130 0.02360883
v 0.01063074 -0.01750649 0.00460863
v 0.00372888 -0.01678547 0.00408397
v 0.01235977 -0.00536967 0.02473763
v 0.01135714 -0.01601294 0.00880681
v 0.00247906 -0.01691219 0.00276647
v 0.02230147 -0.01576765 0.01180377
v 0.02374724 -0.00938576 0.02496931
v 0.01166667 -0.01817087 0.00059072
v 0.00616818 -0.01753344 0.00211684
v 0.02039746 -0.01742676 0.00715317
v 0.00357461 -0.01725771 0.00161259
v 0.01378169 -0.01706209 0.00692499
v 0.00874363 -0.00198762 0.02462967
v 0.00004653 -0.00001404 0.01760055
v 0.01607554 -0.01675975 0.00823865
v 0.02468088 -0.00522556 0.00537060
v 0.02495263 -0.01762497 0.00705674
v 0.00587054 -0.01526491 0.00852355
v 0.00776573 -0.01647228 0.00678093
v 0.02467700 -0.01768335 0.00680866
v 0.00007993 -0.01625262 0.00273760
v 0.00506091 -0.01700294 0.00404908
v 0.01726294 -0.01847787 0.00036389
v 0.00132075 -0.01637236 0.00388746
v 0.00024126 -0.00629522 0.01516512
v 0.01997649 -0.01772778 0.00601752
v 0.00418024 -0.01724193 0.00241737
v 0.01103651 -0.01757071 0.00449084
v 0.01147896 -0.01813242 0.00094868
v 0.01069432 -0.01746632 0.00477401
v 0.00088966 -0.01529370 0.00638035
v 0.00131109 -0.01672975 0.00262726
v 0.01656905 -0.01719470 0.00718582
v 0.02429976 -0.01775413 0.00650353
v 0.01371658 -0.01648863 0.00836865
v 0.00506789 -0.01687445 0.00457695
v 0.00354422 -0.01454369 0.00885956
v 0.01372184 -0.01631112 0.00879285
v 0.02104897 -0.01846181 0.00208096
v 0.00436966 -0.01718271 0.00289689
v 0.01933550 -0.01810244 0.00428356
v 0.01415506 -0.00621355 0.02488077
v 0.00000094 -0.00868771 0.01310591
v 0.00645877 -0.01741280 0.00306682
v 0.00857994 -0.00055416 0.02499707
v 0.02326014 -0.01860747 0.00001848
v 0.00002673 -0.01182436 0.01054176
v 0.01629804 -0.01748682 0.00618622
v 0.01071082 -0.01633457 0.00793158
v 0.01505661 -0.01787050 0.00446781
v 0.00207125 -0.01703978 0.00152850
v 0.00508941 -0.01670595 0.00510591
v 0.01128429 -0.01683170 0.00693649
v 0.00674129 -0.01535772 0.00865611
v 0.01855681 -0.01616985 0.01014882
v 0.00903066 -0.01729767 0.00479144
v 0.00195228 -0.01543426 0.00667549
v 0.01741857 -0.01675650 0.00853240
v 0.02498803 -0.01125158 0.01963147
v 0.00546954 -0.01535225 0.00822394
v 0.00569532 -0.01698343 0.00449211
v 0.00395191 -0.01507277 0.00815120
v 0.01393934 -0.01656059 0.00825146
v 0.01982883 -0.01691489 0.00862251
v 0.01593192 -0.01833832 0.00176223
v 0.00000000 -0.00303630 0.00015702
v 0.00013317 -0.01027491 0.01228142
v 0.00006038 -0.00312388 0.01651894
v 0.00976864 -0.01663091 0.00701878
v 0.00000243 -0.01057986 0.01159691
v 0.02025730 -0.01710240 0.00813806
v 0.02463036 -0.01572123 0.01237668
v 0.02007430 -0.01784973 0.00550574
v 0.02348373 -0.01853950 0.00144750
v 0.00845258 -0.01713893 0.00512050
v 0.00946629 -0.01803239 0.00002147
v 0.01601979 -0.01799751 0.00406811
v 0.00001915 -0.00900677 0.01301811
v 0.01115268 -0.01801437 0.00212459
v 0.02025972 -0.01800392 0.00486685
v 0.00943065 -0.01802948 0.00003237
v 0.01195456 -0.01822823 0.00006264
v 0.01659358 -0.01644276 0.00914247
v 0.02056734 -0.01586086 0.01123858
v 0.00672693 -0.01657176 0.00612383
v 0.02355777 -0.01723596 0.00827855
v 0.02328812 -0.01822990 0.00404888
v 0.00342651 -0.01544329 0.00730380
v 0.00717709 -0.01568412 0.00819243
v 0.00000021 -0.01189364 0.01024337
v 0.00729355 -0.01738800 0.00360914
v 0.02169816 -0.01676439 0.00935873
v 0.00070062 -0.01658916 0.00266415
v 0.00320696 -0.01668328 0.00413358
v 0.01290453 -0.01812822 0.00215681
v 0.01850507 -0.01853097 0.00013082
v 0.00136483 -0.01641962 0.00375679
v 0.00284673 -0.01704725 0.00236742
v 0.01433466 -0.01672751 0.00793827
v 0.02004895 -0.01732075 0.00742339
v 0.00040850 -0.01666306 0.00204772
v 0.00015587 -0.00413038 0.01620418
v 0.01181152 -0.01769729 0.00416848
v 0.02450410 -0.01781556 0.00629089
v 0.00817158 -0.01670520 0.00627912
v 0.00050886 -0.01613185 0.00410447
v 0.02346903 -0.01834287 0.00323846
v 0.01417467 -0.01781324 0.00443867
v 0.01882329 -0.01848381 0.00111589
v 0.01830770 -0.01813018 0.00385478
v 0.00133221 -0.01615188 0.00464914
v 0.01921742 -0.01768477 0.00606869
v 0.00435598 -0.01737429 0.00157406
v 0.00076879 -0.01219806 0.01074520
v 0.01049515 -0.01790934 0.00249206
v 0.00580030 -0.01744304 0.00256161
v 0.02050605 -0.01837395 0.00267460
v 0.00502196 -0.01572285 0.00738862
v 0.00598595 -0.01551717 0.00810122
v 0.00426454 -0.01661202 0.00500312
v 0.00018404 -0.00111298 0.01744080
v 0.00004181 -0.01418831 0.00745253
v 0.00014875 -0.01529483 0.00571001
v 0.00713364 -0.01648167 0.00652298
v 0.00000000 -0.00861646 0.00032554
v 0.00201076 -0.01719575 0.00002826
v 0.01048258 -0.00417315 0.02463506
v 0.02448634 -0.01846225 0.00229527
v 0.00178828 -0.01643875 0.00399705
v 0.02492771 -0.01602327 0.01175803
v 0.02057332 -0.01817785 0.00406256
v 0.00659719 -0.01774171 0.00046069
v 0.00280494 -0.01475514 0.00821181
v 0.01088463 -0.01678674 0.00693990
v 0.00011224 -0.01480670 0.00662561
v 0.02051950 -0.01850046 0.00157187
v 0.02162704 -0.01757573 0.00685262
v 0.00347394 -0.01643361 0.00511410
v 0.00003415 -0.01559159 0.00451333
v 0.00645071 -0.01705415 0.00461592
v 0.00054170 -0.01629528 0.00357999
v 0.00127408 -0.01633587 0.00397912
v 0.00000000 -0.00947621 0.00009214
v 0.00705599 -0.01762338 0.00225473
v 0.00985044 -0.01706758 0.00579307
v 0.02009961 -0.01828103 0.00327536
v 0.00007784 -0.01596011 0.00383318
v 0.00018240 -0.01549209 0.00530879
v 0.02477581 -0.01692398 0.00938168
v 0.02284666 -0.01732815 0.00787216
v 0.02416182 -0.00359849 0.00462203
v 0.02476644 -0.01859929 0.00026313
v 0.01053385 -0.01684457 0.00669238
v 0.02493927 -0.01756905 0.00726163
v 0.01784208 -0.01839119 0.00199926
v 0.02425650 -0.01642147 0.01068865
v 0.00873562 -0.01566283 0.00872982
v 0.00715304 -0.01782444 0.00010466
v 0.00308525 -0.01733229 0.00046106
v 0.02431851 -0.01678163 0.00971799
v 0.02455079 -0.01856588 0.00105924
v 0.02142793 -0.01835026 0.00296089
v 0.00963418 -0.01692668 0.00615203
v 0.00648184 -0.01731613 0.00351647
v 0.02392127 -0.01699183 0.00905821
v 0.00487019 -0.01513313 0.00839839
v 0.00013477 -0.00953702 0.01288461
v 0.02356833 -0.00392431 0.00385821
v 0.01113224 -0.01817404 0.00007818
v 0.01873658 -0.01759614 0.00629684
v 0.00146068 -0.01574724 0.00568027
v 0.00747795 -0.01720943 0.00450401
v 0.00017349 -0.00764686 0.01427439
v 0.00000781 -0.00784732 0.01380659
v 0.02391778 -0.01814989 0.00452658
v 0.00363959 -0.01724589 0.00177832
v 0.00413815 -0.01505744 0.00824899
v 0.02349147 -0.01662835 0.01002923
v 0.00107659 -0.01464511 0.00761256
v 0.00932775 -0.00310850 0.02449512
v 0.00639172 -0.01585799 0.00761123
v 0.00015751 -0.00211216 0.01704086
v 0.00022660 -0.00225936 0.01704384
v 0.01922138 -0.01842225 0.00209111
v 0.01136333 -0.01805317 0.00188029
v 0.00000621 -0.00438652 0.01577619
v 0.00695434 -0.01543207 0.00859388
v 0.02271475 -0.01709826 0.00856484
v 0.01796572 -0.01777717 0.00545817
v 0.00388972 -0.01666295 0.00465097
v 0.01559486 -0.01820137 0.00271427
v 0.01617335 -0.01832201 0.00211169
v 0.00001401 -0.01033562 0.01193321
v 0.01903422 -0.01846316 0.00156398
v 0.01607080 -0.01832349 0.00205884
v 0.00251525 -0.01706841 0.00185391
v 0.00102027 -0.01646033 0.00336459
v 0.00627518 -0.01756418 0.00193915
v 0.00394052 -0.01742199 0.00062984
v 0.00744414 -0.01769912 0.00187626
v 0.00000751 -0.01097704 0.01130740
v 0.01976434 -0.01854169 0.00063591
v 0.00604917 -0.01687719 0.00502637
v 0.00979825 -0.01658548 0.00712649
v 0.02418424 -0.01857591 0.00081669
v 0.00494219 -0.01713396 0.00343351
v 0.00366854 -0.01708062 0.00291465
v 0.01624216 -0.01668757 0.00846612
v 0.00722064 -0.01765748 0.00209408
v 0.02428442 -0.00365535 0.00493310
v 0.01618851 -0.01846032 0.00007490
v 0.01156196 -0.01792332 0.00290064
v 0.00472844 -0.01578349 0.00717519
v 0.02284467 -0.01852288 0.00161843
v 0.02354719 -0.01856489 0.00097405
v 0.00192957 -0.01659264 0.00356781
v 0.00000000 -0.00981682 0.00011490
v 0.01980709 -0.01591749 0.01095493
v 0.01467589 -0.01670968 0.00806173
v 0.02494059 -0.01615698 0.01144559
v 0.02181262 -0.01819856 0.00407777
v 0.00856552 -0.01560842 0.00878197
v 0.02043927 -0.01771467 0.00614785
v 0.00363337 -0.01558425 0.00714541
v 0.00026457 -0.01656028 0.00223981
v 0.00124943 -0.01537502 0.00640868
v 0.00121448 -0.01493903 0.00719247
v 0.00810366 -0.01791289 0.00014593
v 0.00654701 -0.01713497 0.00433185
v 0.00490938 -0.01623357 0.00625887
v 0.00802951 -0.01787551 0.00051375
v 0.01611240 -0.01789595 0.00462192
v 0.02152743 -0.01859360 0.00009890
v 0.02489547 -0.01742289 0.00779611
v 0.02437865 -0.00370429 0.00415059
v 0.00283115 -0.01563250 0.00669485
v 0.00350037 -0.01599843 0.00618357
v 0.01141389 -0.01617262 0.00847756
v 0.02341690 -0.00418558 0.00368591
v 0.02450200 -0.01858585 0.00062974
v 0.01999200 -0.01830830 0.00306072
v 0.00479723 -0.00010049 0.02088033
v 0.02486524 -0.01733007 0.00813526
v 0.02185497 -0.01697943 0.00877922
v 0.00299445 -0.01728108 0.00076495
v 0.01155998 -0.01755361 0.00476161
v 0.00769099 -0.01767161 0.00240300
v 0.02145499 -0.01813588 0.00439434
v 0.00341903 -0.01560198 0.00702688
v 0.02092610 -0.01608241 0.01084285
v 0.01496659 -0.01715868 0.00693200
v 0.00246586 -0.01689842 0.00280981
v 0.00815179 -0.00031486 0.02454843
v 0.00068901 -0.01614048 0.00421152
v 0.01937318 -0.00818418 0.02491779
v 0.01401126 -0.01718832 0.00660887
v 0.01732380 -0.00748010 0.02489634
v 0.02479322 -0.00977296 0.02430311
v 0.00149689 -0.01711561 0.00006475
v 0.02278925 -0.01796781 0.00537449
v 0.02486710 -0.01823600 0.00415603
v 0.00464576 -0.01552713 0.00761634
v 0.01616456 -0.01669731 0.00842372
v 0.01360444 -0.01628468 0.00882078
v 0.02471276 -0.00542993 0.00404914
v 0.00000000 -0.00783021 0.00039186
v 0.02411632 -0.01647649 0.01052869
v 0.02419774 -0.00952096 0.02481758
v 0.00420341 -0.01691701 0.00387746
v 0.00265461 -0.01641033 0.00471726
v 0.00040245 -0.01347629 0.00908030
v 0.00942859 -0.01698361 0.00591527
v 0.01139380 -0.01806362 0.00177655
v 0.00022130 -0.00975151 0.01281895
v 0.02465315 -0.01849138 0.00205167
v 0.00552423 -0.01622273 0.00654554
v 0.01965684 -0.01818489 0.00384945
v 0.01672919 -0.01660442 0.00878950
v 0.01976306 -0.01834425 0.00275796
v 0.01321320 -0.01676569 0.00758148
v 0.02368352 -0.01658018 0.01019391
v 0.00000487 -0.01173674 0.01048555
v 0.00007857 -0.01640569 0.00214722
v 0.02284247 -0.01829496 0.00353347
v 0.00383212 -0.01582711 0.00675482
v 0.00897689 -0.01733431 0.00462113
v 0.00014653 -0.00974015 0.01274974
v 0.01151409 -0.01601107 0.00885440
v 0.00003534 -0.01588332 0.00378980
v 0.00211228 -0.01633612 0.00458369
v 0.00003558 -0.00038986 0.01745931
v 0.01671884 -0.00729577 0.02484267
v 0.01788945 -0.01750426 0.00645930
v 0.00103425 -0.01605752 0.00470074
v 0.00062288 -0.01572674 0.00522302
v 0.00273757 -0.01720799 0.00103861
v 0.02334179 -0.01711388 0.00862182
v 0.01712506 -0.01732218 0.00691728
v 0.00002224 -0.01518694 0.00542601
v 0.00579659 -0.01549178 0.00808194
v 0.00017389 -0.01365631 0.00865712
v 0.00328555 -0.01712630 0.00231418
v 0.00001073 -0.00790112 0.01378638
v 0.00114801 -0.01631496 0.00395903
v 0.00225452 -0.01595909 0.00563086
v 0.01597595 -0.01807656 0.00357915
v 0.00051769 -0.01611591 0.00415645
v 0.00002756 -0.01376318 0.00810430
v 0.02143548 -0.01589315 0.01135970
v 0.02405242 -0.01832052 0.00346410
v 0.02258470 -0.01582255 0.01175216
v 0.02473117 -0.01837999 0.00299471
v 0.02435467 -0.01860123 0.00029172
v 0.00546299 -0.01619143 0.00660143
v 0.00018033 -0.00455999 0.01602858
v 0.00111183 -0.01407984 0.00854812
v 0.00008842 -0.00135768 0.01723929
v 0.00410922 -0.01741411 0.00091266
v 0.00000000 -0.00292828 0.00041674
v 0.00408419 -0.01736461 0.00134772
v 0.01905213 -0.01568771 0.01126135
v 0.01416250 -0.01835969 0.00000983
v 0.02040074 -0.01704471 0.00834180
v 0.02095976 -0.01857565 0.00033344
v 0.02305954 -0.01698992 0.00893256
v 0.02292730 -0.01819457 0.00421317
v 0.02093345 -0.00864797 0.02491357
v 0.00488435 -0.01732440 0.00256269
v 0.02253710 -0.01749613 0.00725209
v 0.00406206 -0.01657738 0.00500801
v 0.01148411 -0.00488609 0.02464130
v 0.01229701 -0.01612756 0.00881788
v 0.01374003 -0.01680854 0.00759023
v 0.01084948 -0.01796985 0.00233274
v 0.00026336 -0.01143675 0.01134267
v 0.00363392 -0.01610745 0.00598207
v 0.00860264 -0.00079948 0.02494398
v 0.02448916 -0.01851901 0.00181633
v 0.01340276 -0.01711727 0.00667655
v 0.01544143 -0.01836872 0.00098728
v 0.01601836 -0.01825956 0.00248433
v 0.01687499 -0.01795415 0.00450375
v 0.00308179 -0.01545083 0.00714659
v 0.02474637 -0.01787307 0.00602717
v 0.00598699 -0.01731540 0.00326484
v 0.01867493 -0.01735295 0.00708754
v 0.00617552 -0.01725146 0.00363925
v 0.00000127 -0.01452460 0.00652239
v 0.00169087 -0.01424101 0.00854663
v 0.02168867 -0.01859506 0.00008763
v 0.00433634 -0.01534823 0.00782234
v 0.02164116 -0.01850010 0.00179086
v 0.01930345 -0.01713731 0.00786586
v 0.01548418 -0.01831185 0.00185899
v 0.00978272 -0.01805684 0.00013279
v 0.00753745 -0.01639672 0.00689967
v 0.02342541 -0.01633177 0.01074001
v 0.00258037 -0.01647652 0.00443568
v 0.00065072 -0.01501166 0.00679434
v 0.00081865 -0.01425443 0.00813204
v 0.00397313 -0.01744472 0.00040521
v 0.01998582 -0.01854913 0.00061516
v 0.00042961 -0.01685082 0.00088866
v 0.00722666 -0.01625549 0.00708268
v 0.01699127 -0.01723935 0.00715187
v 0.01764179 -0.01644907 0.00933629
v 0.02148945 -0.01858978 0.00017637
v 0.00550161 -0.01719752 0.00349055
v 0.00003481 -0.01607589 0.00305582
v 0.00334464 -0.01735174 0.00061697
v 0.01011603 -0.01585490 0.00877018
v 0.00003462 -0.01234182 0.01000865
v 0.00429274 -0.01742615 0.00100661
v 0.00717901 -0.01769236 0.00167767
v 0.01703613 -0.01728042 0.00703188
v 0.01255387 -0.01664020 0.00771687
v 0.00555589 -0.01555557 0.00788131
v 0.02228248 -0.01857513 0.00059295
v 0.02120037 -0.01799092 0.00505768
v 0.00266894 -0.01697223 0.00264138
v 0.01967273 -0.01850601 0.00119926
v 0.02286563 -0.01792140 0.00559738
v 0.02186282 -0.01680326 0.00928274
v 0.02439771 -0.01858937 0.00055324
v 0.01144610 -0.01715437 0.00601815
v 0.01413855 -0.01667196 0.00803418
v 0.00030182 -0.01656504 0.00228983
v 0.01517551 -0.01841745 0.00002794
v 0.02364787 -0.01860559 0.00010828
v 0.01360316 -0.01692474 0.00725063
v 0.00411837 -0.01585609 0.00681554
v 0.01118858 -0.01729980 0.00546756
f 55 75 161
f 23 262 251
f 274 161 244
f 244 161 248
f 248 161 75
f 244 75 328
f 328 75 226
f 226 275 328
f 226 75 152
f 152 268 226
f 378 357 226
f 9 244 219
f 160 251 262
f 160 219 244
f 262 219 160
f 23 251 160
f 160 328 23
f 244 328 160
f 25 244 9
f 9 274 25
f 25 274 244
f 68 274 9
f 177 75 244
f 244 248 177
f 177 248 75
f 328 52 195
f 134 275 226
f 131 144 310
f 55 161 398
f 161 322 398
f 161 170 249
f 249 322 161
f 308 131 357
f 144 131 308
f 23 328 300
f 328 195 300
f 326 130 23
f 23 300 326
f 183 195 52
f 183 312 195
f 226 357 99
f 99 134 226
f 275 134 99
f 99 328 275
f 99 52 328
f 267 219 277
f 9 219 267
f 393 249 170
f 322 249 393
f 331 75 55
f 331 152 75
f 368 144 132
f 144 308 132
f 77 300 195
f 77 326 300
f 130 326 191
f 326 77 191
f 283 176 296
f 202 296 176
f 317 99 357
f 381 99 317
f 357 131 317
f 317 131 310
f 310 381 317
f 344 51 12
f 344 381 310
f 344 136 283
f 56 381 344
f 16 51 264
f 368 236 3
f 3 236 188
f 3 144 368
f 310 144 3
f 12 51 54
f 54 136 12
f 346 136 54
f 54 51 16
f 54 16 277
f 54 219 262
f 277 219 54
f 54 262 23
f 23 130 54
f 130 346 54
f 214 393 170
f 170 224 214
f 111 191 77
f 111 195 324
f 111 77 195
f 192 191 111
f 52 99 79
f 79 202 52
f 296 202 76
f 56 344 76
f 283 296 76
f 76 344 283
f 87 183 52
f 52 202 87
f 312 183 87
f 87 176 312
f 87 202 176
f 51 344 123
f 12 136 340
f 340 344 12
f 136 344 340
f 16 264 336
f 336 264 325
f 325 358 336
f 46 16 336
f 336 358 46
f 325 264 280
f 310 3 280
f 280 3 325
f 51 123 280
f 280 344 310
f 280 123 344
f 369 3 188
f 325 3 369
f 312 176 182
f 182 176 283
f 283 136 182
f 136 189 182
f 22 111 324
f 22 136 346
f 22 189 136
f 192 111 22
f 22 191 192
f 22 346 130
f 130 191 22
f 397 331 55
f 91 331 397
f 397 349 91
f 83 224 170
f 9 267 139
f 139 229 9
f 202 79 210
f 56 76 210
f 210 76 202
f 210 79 99
f 51 280 301
f 34 22 324
f 189 22 34
f 368 132 304
f 304 132 157
f 226 268 372
f 55 359 220
f 220 397 55
f 349 397 220
f 224 83 387
f 284 170 161
f 161 270 284
f 81 267 277
f 81 139 267
f 56 210 291
f 291 210 99
f 291 381 56
f 291 99 381
f 46 358 142
f 188 236 142
f 66 236 368
f 66 142 236
f 13 58 247
f 365 58 13
f 365 13 380
f 266 280 264
f 266 301 280
f 266 264 51
f 51 301 266
f 1 182 189
f 189 34 1
f 1 34 324
f 324 195 1
f 195 312 1
f 312 182 1
f 268 152 135
f 152 331 135
f 91 349 363
f 333 387 83
f 321 284 270
f 223 83 347
f 347 83 170
f 170 284 347
f 347 321 137
f 284 321 347
f 186 16 46
f 186 175 16
f 352 66 258
f 142 66 352
f 258 66 245
f 245 66 314
f 314 66 180
f 303 120 180
f 180 120 314
f 66 235 180
f 180 304 303
f 213 58 365
f 147 120 279
f 314 120 147
f 16 231 166
f 166 380 16
f 365 380 166
f 16 380 297
f 297 380 13
f 277 16 297
f 297 13 247
f 156 115 157
f 157 132 156
f 156 132 308
f 308 148 156
f 316 304 157
f 157 115 316
f 303 304 316
f 2 372 268
f 74 363 349
f 349 220 74
f 167 135 85
f 85 237 167
f 85 135 331
f 85 331 91
f 91 178 85
f 153 256 125
f 218 256 153
f 379 20 311
f 145 390 371
f 371 390 211
f 387 333 376
f 252 159 338
f 252 338 146
f 159 19 146
f 146 338 159
f 223 347 361
f 145 361 48
f 48 361 347
f 233 258 400
f 400 323 190
f 365 166 190
f 231 98 190
f 190 166 231
f 142 352 97
f 97 352 258
f 258 233 97
f 400 258 294
f 258 245 294
f 368 304 40
f 40 66 368
f 40 235 66
f 304 180 40
f 40 180 235
f 239 147 339
f 239 323 400
f 378 156 298
f 298 156 148
f 298 148 308
f 357 378 298
f 298 308 357
f 292 156 378
f 292 378 226
f 226 372 292
f 305 311 205
f 372 2 205
f 311 337 216
f 216 337 49
f 363 74 204
f 364 237 178
f 178 237 90
f 90 85 178
f 237 85 90
f 17 178 91
f 17 38 178
f 91 363 17
f 363 38 17
f 194 364 178
f 237 364 194
f 167 237 141
f 237 240 141
f 268 135 168
f 168 2 268
f 305 2 168
f 18 153 125
f 254 311 305
f 254 379 311
f 305 168 254
f 254 168 379
f 203 390 145
f 105 220 359
f 105 371 211
f 105 32 220
f 374 332 73
f 232 146 121
f 113 146 232
f 26 29 113
f 274 68 26
f 161 274 26
f 26 270 161
f 26 68 9
f 9 229 26
f 43 146 113
f 113 29 43
f 43 26 146
f 29 26 43
f 187 290 392
f 169 290 187
f 252 229 158
f 174 306 158
f 229 139 259
f 165 158 229
f 193 48 126
f 145 48 193
f 164 203 193
f 193 203 145
f 360 271 175
f 360 233 271
f 400 190 222
f 222 233 400
f 271 233 222
f 373 323 365
f 365 190 373
f 373 190 323
f 16 175 27
f 27 63 16
f 71 97 233
f 142 97 71
f 46 142 71
f 71 186 46
f 314 147 246
f 246 245 314
f 246 294 245
f 60 2 305
f 305 205 60
f 60 205 2
f 311 216 389
f 41 110 389
f 389 110 372
f 36 337 311
f 115 156 234
f 234 292 372
f 372 110 234
f 150 263 115
f 120 263 150
f 279 367 103
f 209 240 343
f 343 256 209
f 209 256 218
f 178 38 282
f 282 194 178
f 104 194 282
f 282 38 363
f 363 104 282
f 88 240 237
f 237 194 88
f 343 240 88
f 88 104 343
f 88 194 104
f 124 256 343
f 124 37 256
f 343 104 221
f 221 124 343
f 37 124 221
f 221 86 59
f 255 37 112
f 112 221 59
f 37 221 112
f 10 37 255
f 379 168 370
f 167 141 370
f 370 135 167
f 370 168 135
f 59 86 241
f 241 198 121
f 363 204 6
f 6 104 363
f 6 221 104
f 19 109 355
f 19 302 179
f 121 146 179
f 179 146 19
f 61 285 323
f 28 212 114
f 114 281 172
f 374 73 42
f 255 394 401
f 118 203 220
f 390 203 118
f 220 32 118
f 242 105 359
f 242 376 333
f 333 371 242
f 371 105 242
f 290 287 101
f 287 73 101
f 392 290 101
f 101 73 392
f 362 332 374
f 19 332 80
f 80 109 19
f 332 362 80
f 270 26 353
f 353 26 113
f 286 155 140
f 86 5 50
f 140 257 50
f 50 286 140
f 257 269 50
f 35 232 121
f 121 198 35
f 146 26 163
f 163 26 229
f 95 159 252
f 252 158 95
f 95 158 306
f 392 73 253
f 253 73 332
f 139 81 320
f 320 259 139
f 320 81 277
f 276 287 290
f 276 165 287
f 276 290 169
f 169 158 276
f 158 165 276
f 287 165 375
f 375 92 287
f 259 92 375
f 126 155 250
f 155 286 250
f 196 222 190
f 196 190 98
f 196 98 231
f 196 231 16
f 16 63 196
f 175 271 69
f 69 27 175
f 345 246 147
f 294 246 345
f 400 294 345
f 345 239 400
f 147 239 345
f 365 323 133
f 323 285 133
f 133 28 365
f 114 212 84
f 84 281 114
f 84 154 281
f 107 205 311
f 311 389 107
f 372 205 107
f 107 389 372
f 311 20 185
f 185 36 311
f 156 292 30
f 30 234 156
f 292 234 30
f 396 234 110
f 110 150 396
f 115 234 396
f 396 150 115
f 41 206 102
f 206 150 102
f 102 110 41
f 102 150 110
f 279 120 299
f 313 150 206
f 120 150 313
f 225 103 367
f 41 103 225
f 225 206 41
f 216 103 4
f 11 103 216
f 383 141 240
f 240 209 383
f 383 209 218
f 117 59 255
f 255 112 117
f 117 112 59
f 153 18 207
f 379 327 122
f 125 337 122
f 208 327 379
f 379 370 208
f 208 370 141
f 208 207 327
f 198 241 351
f 351 241 86
f 86 50 351
f 59 241 7
f 255 59 7
f 7 265 255
f 256 37 100
f 37 10 100
f 348 394 255
f 255 265 348
f 162 154 394
f 394 348 162
f 162 348 62
f 162 172 281
f 281 154 162
f 114 172 162
f 162 28 114
f 270 353 184
f 230 257 140
f 270 96 319
f 319 321 270
f 137 321 319
f 391 269 113
f 8 353 113
f 113 269 8
f 89 50 388
f 388 50 269
f 269 391 388
f 89 232 82
f 232 35 82
f 82 50 89
f 286 50 350
f 243 229 252
f 243 163 229
f 252 146 243
f 146 163 243
f 334 306 174
f 334 253 306
f 197 253 332
f 306 253 197
f 259 375 366
f 366 375 165
f 229 259 366
f 366 165 229
f 288 193 126
f 126 250 288
f 222 196 127
f 27 69 386
f 94 61 212
f 212 28 94
f 28 133 94
f 285 61 94
f 94 133 285
f 151 299 120
f 120 313 151
f 33 299 151
f 138 299 33
f 41 389 14
f 14 389 216
f 216 4 14
f 61 129 45
f 212 61 45
f 382 207 18
f 327 207 382
f 379 122 329
f 329 122 337
f 302 7 57
f 57 7 241
f 307 7 302
f 307 302 19
f 19 355 307
f 354 337 125
f 49 337 354
f 354 377 49
f 181 100 10
f 67 73 287
f 260 348 265
f 374 42 260
f 260 7 374
f 265 7 260
f 28 162 78
f 78 213 365
f 58 213 78
f 365 28 78
f 257 230 335
f 335 230 96
f 335 96 270
f 270 184 335
f 293 319 96
f 201 6 204
f 201 350 6
f 286 350 201
f 201 204 164
f 164 193 201
f 6 350 200
f 86 221 200
f 221 6 200
f 119 50 5
f 119 350 50
f 15 320 277
f 277 330 15
f 27 386 309
f 128 386 127
f 128 127 196
f 128 309 386
f 39 10 255
f 255 401 39
f 225 138 106
f 106 138 33
f 206 225 106
f 261 103 41
f 41 14 261
f 278 11 216
f 216 45 278
f 31 45 216
f 199 129 339
f 199 45 129
f 279 103 199
f 103 11 199
f 199 147 279
f 339 147 199
f 374 7 384
f 7 307 384
f 377 354 356
f 356 181 238
f 354 181 356
f 53 354 125
f 125 256 53
f 256 100 53
f 10 39 65
f 84 181 65
f 100 181 173
f 173 181 354
f 24 260 42
f 143 162 62
f 143 78 162
f 62 385 143
f 385 78 143
f 116 293 48
f 319 293 116
f 126 48 171
f 48 293 171
f 86 200 315
f 315 200 350
f 47 227 330
f 47 44 72
f 47 78 385
f 385 44 47
f 259 320 318
f 318 92 259
f 320 15 318
f 49 377 215
f 377 31 215
f 70 31 377
f 45 31 70
f 295 181 10
f 10 65 295
f 295 65 181
f 217 67 287
f 289 385 62
f 289 44 385
f 273 330 277
f 273 47 330
f 58 78 273
f 78 47 273
f 92 318 64
f 64 318 227
f 64 47 92
f 227 47 64
f 93 15 330
f 93 318 15
f 330 227 93
f 227 318 93
f 238 181 149
f 149 84 212
f 149 181 84
f 212 45 149
f 45 70 149
f 287 92 395
f 92 47 395
f 395 47 72
f 341 297 247
f 247 58 341
f 58 273 341
f 277 297 341
f 341 273 277
f 260 24 228
f 287 395 228
f 348 260 21
f 62 348 21
f 272 228 24
f 272 217 287
f 287 228 272
f 108 395 289
f 108 228 395
f 289 342 108
f 399 342 289
f 399 289 62
f 62 21 399
f 142 358 325
f 142 369 188
f 325 369 142
f 303 316 263
f 263 120 303
f 263 316 115
f 361 83 223
f 145 371 361
f 361 333 83
f 361 371 333
f 164 204 203
f 203 74 220
f 203 204 74
f 71 360 175
f 175 186 71
f 233 360 71
f 118 105 211
f 211 390 118
f 32 105 118
f 242 359 55
f 322 393 242
f 242 398 322
f 55 398 242
f 393 214 242
f 242 214 224
f 224 387 242
f 387 376 242
f 208 383 218
f 218 153 208
f 141 383 208
f 153 207 208
f 129 61 323
f 129 239 339
f 323 239 129
f 388 232 89
f 113 232 388
f 388 391 113
f 82 35 198
f 198 351 82
f 82 351 50
f 334 187 392
f 334 158 169
f 169 187 334
f 174 158 334
f 392 253 334
f 197 332 19
f 197 19 159
f 159 95 197
f 197 95 306
f 386 69 271
f 271 222 386
f 222 127 386
f 279 299 138
f 138 367 279
f 138 225 367
f 125 122 382
f 382 18 125
f 382 122 327
f 329 185 20
f 20 379 329
f 337 36 329
f 36 185 329
f 121 179 57
f 57 241 121
f 57 179 302
f 353 8 335
f 335 269 257
f 335 184 353
f 335 8 269
f 193 288 201
f 201 250 286
f 201 288 250
f 128 196 63
f 63 27 128
f 27 309 128
f 106 313 206
f 33 151 106
f 106 151 313
f 261 14 4
f 261 4 103
f 199 278 45
f 11 278 199
f 384 355 109
f 109 80 384
f 384 362 374
f 384 80 362
f 384 307 355
f 154 84 65
f 65 401 394
f 65 39 401
f 394 154 65
f 354 53 173
f 173 53 100
f 137 319 116
f 116 347 137
f 116 48 347
f 171 155 126
f 171 230 140
f 140 155 171
f 96 230 171
f 171 293 96
f 315 5 86
f 315 119 5
f 350 119 315
f 215 31 216
f 215 216 49
f 377 356 149
f 149 356 238
f 149 70 377
f 44 289 395
f 72 44 395
f 73 67 272
f 272 42 73
f 67 217 272
f 272 24 42
f 399 21 260
f 260 228 399
f 399 108 342
f 228 108 399

