# https://github.com/mikedh/trimesh
v 0.08281923 -0.00112545 0.03198238
v 0.08623906 -0.00009921 0.03250580
v 0.09893976 -0.00109156 0.02529473
v 0.07724878 -0.00126194 0.03164660
v 0.07596531 -0.00474950 0.02732857
v 0.07965381 -0.00050514 0.03198145
v 0.07732919 -0.00151167 0.03160105
v 0.08025842 -0.00010147 0.03209887
v 0.07643669 -0.00234014 0.03128060
v 0.08475880 -0.00032183 0.03236529
v 0.07656835 -0.00443833 0.02836780
v 0.09836369 -0.00113499 0.02520524
v 0.08244219 -0.00061351 0.03215902
v 0.08448638 -0.00098636 0.03207283
v 0.08173349 -0.00375505 0.02505188
v 0.07740619 -0.00046721 0.03178493
v 0.07892759 -0.00430719 0.02500630
v 0.08706981 -0.00013085 0.03252287
v 0.07778616 -0.00180043 0.03153840
v 0.09994007 -0.00015925 0.03250063
v 0.09933341 -0.00108370 0.02999133
v 0.08858621 -0.00001464 0.03261759
v 0.07574372 -0.00477676 0.02628309
v 0.07501389 -0.00173845 0.03137706
v 0.09956627 -0.00085655 0.03119464
v 0.07565058 -0.00221360 0.03129173
v 0.07606500 -0.00434806 0.02890350
v 0.09887316 -0.00043782 0.03240349
v 0.08178964 -0.00024821 0.03219229
v 0.09976654 -0.00117111 0.02840082
v 0.07523632 -0.00447676 0.02805988
v 0.09974266 -0.00104909 0.02557022
v 0.07561938 -0.00459798 0.02812279
v 0.09819071 -0.00032061 0.03251361
v 0.09992539 -0.00111683 0.02904611
v 0.07599514 -0.00483705 0.02509338
v 0.07895604 -0.00097619 0.03183272
v 0.07541323 -0.00337862 0.03062474
v 0.07507901 -0.00456613 0.02665762
v 0.09942995 -0.00078405 0.03150027
v 0.07922717 -0.00014653 0.03198680
v 0.07915920 -0.00165164 0.03164955
v 0.07591073 -0.00480362 0.02701423
v 0.08713074 -0.00023048 0.03248684
v 0.09646631 -0.00012599 0.03260216
v 0.07511078 -0.00034508 0.03156264
v 0.07594763 -0.00469748 0.02760765
v 0.07886326 -0.00106465 0.03180761
v 0.07648903 -0.00131743 0.03157741
v 0.07626343 -0.00278447 0.03104201
v 0.07543712 -0.00235370 0.03123282
v 0.09069667 -0.00213968 0.02503002
v 0.07574531 -0.00320417 0.03075406
v 0.07649928 -0.00109502 0.03162095
v 0.07516156 -0.00208158 0.03131226
v 0.09968033 -0.00091931 0.03087853
v 0.09474761 -0.00004486 0.03263547
v 0.08060278 -0.00011176 0.03213170
v 0.08712093 -0.00050288 0.03235005
v 0.09997517 -0.00113087 0.02704996
v 0.09905378 -0.00051073 0.03225293
v 0.07517573 -0.00129854 0.03147466
v 0.07590430 -0.00482372 0.02663949
v 0.07656846 -0.00249592 0.03120388
v 0.07649230 -0.00479615 0.02539778
v 0.07562721 -0.00393413 0.02992494
v 0.07598347 -0.00158467 0.03148513
v 0.08188059 -0.00057589 0.03213142
v 0.07814203 -0.00058131 0.03185018
v 0.09958728 -0.00065350 0.03186421
v 0.07795892 -0.00104329 0.03174479
v 0.07513781 -0.00214586 0.03128899
v 0.07518314 -0.00315289 0.03079896
v 0.07689735 -0.00239495 0.03126058
v 0.07561295 -0.00471781 0.02706155
v 0.07616979 -0.00357853 0.03034289
v 0.07901527 -0.00108890 0.03181384
v 0.07526738 -0.00061232 0.03155705
v 0.07694733 -0.00141548 0.03159239
f 24 46 39
f 39 46 36
f 24 39 73
f 46 12 52
f 38 73 66
f 20 35 60
f 56 35 20
f 60 35 30
f 66 73 31
f 31 73 39
f 21 35 56
f 36 46 17
f 17 52 12
f 46 8 41
f 62 46 24
f 24 73 72
f 51 72 73
f 73 50 51
f 66 28 76
f 76 38 66
f 28 38 76
f 73 38 53
f 11 47 56
f 56 20 70
f 57 20 32
f 32 22 57
f 8 22 32
f 32 20 60
f 28 20 34
f 64 50 34
f 34 50 73
f 57 22 34
f 73 53 34
f 34 38 28
f 34 53 38
f 23 39 36
f 36 63 23
f 23 63 39
f 65 30 35
f 35 63 65
f 60 30 65
f 65 63 36
f 65 32 60
f 36 32 65
f 43 21 56
f 43 63 35
f 35 21 43
f 46 52 15
f 15 17 46
f 52 17 15
f 58 22 8
f 69 58 8
f 9 50 64
f 9 51 50
f 47 11 33
f 66 31 33
f 56 70 25
f 25 70 40
f 25 11 56
f 61 20 28
f 61 70 20
f 61 28 66
f 66 70 61
f 40 70 27
f 66 33 27
f 27 33 11
f 27 70 66
f 27 25 40
f 11 25 27
f 8 32 3
f 3 41 8
f 3 32 36
f 3 12 46
f 46 41 3
f 36 17 3
f 3 17 12
f 45 20 57
f 57 34 45
f 45 34 20
f 64 34 14
f 56 47 5
f 5 43 56
f 47 33 5
f 5 33 43
f 16 8 46
f 16 69 8
f 46 62 78
f 62 69 78
f 54 69 62
f 26 51 19
f 51 9 19
f 44 22 18
f 43 33 75
f 39 63 75
f 63 43 75
f 75 31 39
f 75 33 31
f 59 34 22
f 22 14 59
f 59 14 34
f 1 14 22
f 22 44 1
f 10 19 42
f 42 19 9
f 9 1 42
f 42 1 44
f 13 19 10
f 68 7 13
f 2 29 68
f 68 13 2
f 2 13 10
f 2 44 18
f 58 29 2
f 10 42 2
f 2 42 44
f 18 22 2
f 22 58 2
f 6 29 58
f 58 69 6
f 69 54 49
f 64 14 74
f 14 1 74
f 74 9 64
f 74 1 9
f 19 13 55
f 26 19 55
f 55 13 7
f 7 67 55
f 55 67 24
f 24 72 55
f 71 49 67
f 71 6 69
f 69 49 71
f 79 67 7
f 77 7 68
f 4 71 67
f 67 79 4
f 6 71 37
f 48 37 71
f 48 71 7
f 7 77 48
f 69 16 78
f 78 16 46
f 49 54 62
f 49 62 24
f 24 67 49
f 72 51 55
f 55 51 26
f 4 79 7
f 7 71 4
f 29 6 48
f 68 29 48
f 48 77 68
f 6 37 48

