# https://github.com/mikedh/trimesh
v 0.05075256 0.03120907 -0.10310546
v 0.05369622 0.00582140 -0.14833236
v 0.05517351 0.02076734 -0.10795428
v 0.05098523 0.00997982 -0.14981409
v 0.05530345 0.01261122 -0.12419632
v 0.05091361 0.03067470 -0.10728137
v 0.05514430 0.00456126 -0.13480589
v 0.05035858 0.02876713 -0.12661172
v 0.05786757 0.00406982 -0.10379923
v 0.05641052 0.00008934 -0.12292277
v 0.05015715 0.02426625 -0.14464194
v 0.05380103 0.00459343 -0.14820300
v 0.05245280 0.02782697 -0.11316595
v 0.05260301 0.02948760 -0.10091085
v 0.05284931 0.01347795 -0.14619556
v 0.05415380 0.01901034 -0.12303410
v 0.05516693 0.02080394 -0.10792545
v 0.05693729 0.00020541 -0.11712365
v 0.05526322 0.02068774 -0.10716043
v 0.05300229 0.02533480 -0.11773358
v 0.05086277 0.02281346 -0.14286369
v 0.05049614 0.03081751 -0.10975659
v 0.05391668 0.00076091 -0.14874546
v 0.05369336 0.00647035 -0.14789101
v 0.05616988 0.00201674 -0.10049517
v 0.05598032 0.00397447 -0.12617821
v 0.05464775 0.00533841 -0.13944671
v 0.05082790 0.02696333 -0.13164224
v 0.05169195 0.01694740 -0.14961815
v 0.05174119 0.02545284 -0.12880052
v 0.05428743 0.01199825 -0.13536865
v 0.05521829 0.01916525 -0.11170698
v 0.05059236 0.02453744 -0.14080247
v 0.05811524 0.00312751 -0.10090955
v 0.05798972 0.00072051 -0.10379876
v 0.05767388 0.00759260 -0.10348381
v 0.05740015 0.00715691 -0.10782059
v 0.05576158 0.01838401 -0.10754552
v 0.05234920 0.01506026 -0.14779265
v 0.05708807 0.01229210 -0.10434171
v 0.05367240 0.02614312 -0.10834116
v 0.05771642 0.00661449 -0.10401192
v 0.05432350 0.01458412 -0.13057960
v 0.05382948 0.01695885 -0.13068229
v 0.05004750 0.02540249 -0.14235871
v 0.05544520 0.02197332 -0.10058791
v 0.05590660 0.00805729 -0.12362952
v 0.05239360 0.01509657 -0.14732873
v 0.05318173 0.01800235 -0.13467620
v 0.05541958 0.00002004 -0.13340416
v 0.05089601 0.02694092 -0.13114858
v 0.05328053 0.02680228 -0.10968322
v 0.05386853 0.00171908 -0.14895321
v 0.05504501 0.00627813 -0.13491173
v 0.05335986 0.02826755 -0.10101257
v 0.05548350 0.02020184 -0.10594312
v 0.05465135 0.00008418 -0.14150189
v 0.05009774 0.02918063 -0.10057827
v 0.05059704 0.02881053 -0.12425125
v 0.05272600 0.01304864 -0.14801967
v 0.05082063 0.02508401 -0.13757017
v 0.05342637 0.00731691 -0.14957712
v 0.05623916 0.00620790 -0.12209265
v 0.05523013 0.02009189 -0.10912961
v 0.05623446 0.01298134 -0.11334695
v 0.05333896 0.02237219 -0.10019133
v 0.05377858 0.00161729 -0.14988140
v 0.05651906 0.01140351 -0.11245825
v 0.05472353 0.00005993 -0.11945959
v 0.05277874 0.01624218 -0.14167861
v 0.05424970 0.02623173 -0.10130700
v 0.05013899 0.01494358 -0.14955017
v 0.05120760 0.02691133 -0.12854117
v 0.05167342 0.01790904 -0.14770399
v 0.05432808 0.00425322 -0.14325078
v 0.05658623 0.00638752 -0.11802579
v 0.05333736 0.01844735 -0.13242373
v 0.05105061 0.02452577 -0.13720850
v 0.05762457 0.00586831 -0.10615672
v 0.05270714 0.01212580 -0.14947937
v 0.05520010 0.00572995 -0.13376777
v 0.05028350 0.02187659 -0.14932728
v 0.05457629 0.01203744 -0.13268348
v 0.05440599 0.00079020 -0.14384692
v 0.05159616 0.01735068 -0.14955916
v 0.05304600 0.01999595 -0.13132332
v 0.05265099 0.02854773 -0.10721077
v 0.05222790 0.01881654 -0.14097792
v 0.05327730 0.01923471 -0.13121542
v 0.05779196 0.00117214 -0.10625465
v 0.05244999 0.01407226 -0.14875506
v 0.05283609 0.02557189 -0.11859083
v 0.05108640 0.02771858 -0.12583853
v 0.05505793 0.01164367 -0.12818107
v 0.05385860 0.02698726 -0.10244199
v 0.05069881 0.02126516 -0.14770815
v 0.05094306 0.02350752 -0.14055298
v 0.05464644 0.02289134 -0.10771744
v 0.05629126 0.00233810 -0.12343691
v 0.05327833 0.02754951 -0.10669286
v 0.05363471 0.01779590 -0.13090826
v 0.05141242 0.01862237 -0.14825316
v 0.05194019 0.02993537 -0.10402105
v 0.05415099 0.01118698 -0.13773560
v 0.05494916 0.00350410 -0.13721977
v 0.05117464 0.02011570 -0.14668716
v 0.05570405 0.00551249 -0.12851903
v 0.05575664 0.00642392 -0.12739207
v 0.05764282 0.00620133 -0.10558259
v 0.05418030 0.01930056 -0.12200834
v 0.05516555 0.02102075 -0.10731229
v 0.05403903 0.00368936 -0.14642395
v 0.05429251 0.01928107 -0.12091423
v 0.05329030 0.01968503 -0.13000400
v 0.05001664 0.01601477 -0.14834159
v 0.05723234 0.00649269 -0.11056273
v 0.05425532 0.01262867 -0.13477839
v 0.05166246 0.02743837 -0.12225656
v 0.05207527 0.02829078 -0.11396996
v 0.05436368 0.00667237 -0.14116188
v 0.05208746 0.01672884 -0.14674687
v 0.05206095 0.02743474 -0.11866603
v 0.05713287 0.01386343 -0.10057331
v 0.05413548 0.00006184 -0.12593752
v 0.05229042 0.02518566 -0.12501439
v 0.05432358 0.02588313 -0.10197083
v 0.05494878 0.00277584 -0.13746887
v 0.05359152 0.02532961 -0.11190629
v 0.05779791 0.00583973 -0.10351852
v 0.05070036 0.03102840 -0.10571570
v 0.05491830 0.00661975 -0.13579052
v 0.05168084 0.03044263 -0.10125273
v 0.05714673 0.00996482 -0.10703552
v 0.05490632 0.00582349 -0.13658652
v 0.05581437 0.01950840 -0.10399450
v 0.05002042 0.02363225 -0.14713770
v 0.05172555 0.00046528 -0.14967575
v 0.05583503 0.00838442 -0.10006095
v 0.05482666 0.01081006 -0.13169352
v 0.05590914 0.00028512 -0.10456694
v 0.05316459 0.01950375 -0.13151706
v 0.05685204 0.01534989 -0.10081395
v 0.05544314 0.00560571 -0.13131051
v 0.05751715 0.00699530 -0.10649381
v 0.05104403 0.02715325 -0.12910384
v 0.05408238 0.01005384 -0.13988718
v 0.05162073 0.02927315 -0.11253204
v 0.05003700 0.02642744 -0.13944757
v 0.05527091 0.00529654 -0.13321989
v 0.05773674 0.00828723 -0.10160393
v 0.05012127 0.02586372 -0.14055537
v 0.05406887 0.02593929 -0.10477993
v 0.05763785 0.01020235 -0.10006865
v 0.05494136 0.01017482 -0.13132692
v 0.05773703 0.00603289 -0.10428353
v 0.05759680 0.00049428 -0.10900410
v 0.05346522 0.00827711 -0.14800105
v 0.05260176 0.01836715 -0.13887343
v 0.05003130 0.02487688 -0.12688590
v 0.05091873 0.02331654 -0.14121054
v 0.05340760 0.02764723 -0.10472151
v 0.05671789 0.00000713 -0.11969355
v 0.05232232 0.02916047 -0.10656535
v 0.05717962 0.01305740 -0.10181121
v 0.05530904 0.00741877 -0.13100974
v 0.05088397 0.02910456 -0.12004742
v 0.05520857 0.01268584 -0.12513770
v 0.05679171 0.01100398 -0.10986907
v 0.05083795 0.02322891 -0.14207012
v 0.05613333 0.01930408 -0.10058437
v 0.05360407 0.01891858 -0.12890643
v 0.05582136 0.01879905 -0.10579269
v 0.05639351 0.01453622 -0.10845561
v 0.05681645 0.01308687 -0.10663611
v 0.05762212 0.00662095 -0.10545350
v 0.05526375 0.00828410 -0.13040597
v 0.05463526 0.01353799 -0.12950952
v 0.05196757 0.02817419 -0.11558232
v 0.05018720 0.02822062 -0.13105381
v 0.05082344 0.03035149 -0.11089190
v 0.05356990 0.02663225 -0.10747288
v 0.05810530 0.00362354 -0.10074949
v 0.05247180 0.02474459 -0.12455138
v 0.05303014 0.02754158 -0.10934564
v 0.05488613 0.01294120 -0.12810029
v 0.05320225 0.01822544 -0.13405876
v 0.05810350 0.00186393 -0.10169270
v 0.05010708 0.02920160 -0.10024155
v 0.05725739 0.00604099 -0.11056555
v 0.05588715 0.00451913 -0.12696230
v 0.05269077 0.02827516 -0.10856637
v 0.05283616 0.02639041 -0.11553388
v 0.05342564 0.01992570 -0.12801541
v 0.05299292 0.02206020 -0.12659947
v 0.05590005 0.00002465 -0.12833342
v 0.05454328 0.02532157 -0.10135915
v 0.05553123 0.00653930 -0.12979978
v 0.05144619 0.03021682 -0.10642296
v 0.05016620 0.02493702 -0.14278227
v 0.05046966 0.03001558 -0.11659520
v 0.05702003 0.00009232 -0.11619932
v 0.05613656 0.01639558 -0.10748021
v 0.05184807 0.02598946 -0.12623948
v 0.05420490 0.02567165 -0.10434762
v 0.05725962 0.01309750 -0.10064042
v 0.05562348 0.01837613 -0.10903045
v 0.05617558 0.01920698 -0.10028925
v 0.05082192 0.02693105 -0.13179206
v 0.05372893 0.02592385 -0.10861120
v 0.05615990 0.00037793 -0.10126526
v 0.05335220 0.00014399 -0.13446025
v 0.05202388 0.01549989 -0.14981336
v 0.05780720 0.00802423 -0.10091296
v 0.05601252 0.01683386 -0.10797314
v 0.05648965 0.01146007 -0.11271885
v 0.05740198 0.01160604 -0.10114285
v 0.05256363 0.01794668 -0.14010107
v 0.05067414 0.02684779 -0.13319730
v 0.05439911 0.01276536 -0.13328335
v 0.05759811 0.00125736 -0.10867222
v 0.05391656 0.02528804 -0.10879126
v 0.05808954 0.00055099 -0.10253022
v 0.05527922 0.00492499 -0.13326708
v 0.05292625 0.01775731 -0.13741624
v 0.05294227 0.01043573 -0.14971419
v 0.05141079 0.02492065 -0.13316673
v 0.05414447 0.02504055 -0.10712264
v 0.05311495 0.00932417 -0.14970560
v 0.05242408 0.02609221 -0.12054760
v 0.05022834 0.02596021 -0.13942429
v 0.05100419 0.02397262 -0.13893575
v 0.05004237 0.02741588 -0.11517261
v 0.05252305 0.01534804 -0.14569167
v 0.05221905 0.02993585 -0.10087902
v 0.05211880 0.02921999 -0.10838597
v 0.05673813 0.01322038 -0.10734010
v 0.05605283 0.00614274 -0.12424184
v 0.05724178 0.00821133 -0.10828679
v 0.05472440 0.02266668 -0.10750584
f 137 210 188
f 115 137 58
f 137 188 58
f 72 137 115
f 82 212 72
f 115 58 232
f 232 58 148
f 137 72 4
f 4 72 212
f 4 67 137
f 4 212 67
f 136 72 115
f 82 72 136
f 136 232 148
f 34 210 187
f 210 222 187
f 201 222 210
f 69 124 162
f 137 67 23
f 23 57 137
f 211 124 137
f 137 57 211
f 211 57 124
f 162 124 50
f 124 57 50
f 25 188 210
f 138 188 25
f 25 210 34
f 34 182 25
f 1 130 22
f 22 188 1
f 22 58 188
f 78 141 231
f 188 66 207
f 196 46 207
f 188 207 234
f 234 207 14
f 55 207 46
f 14 207 55
f 14 55 163
f 82 96 102
f 102 88 74
f 115 232 159
f 159 136 115
f 232 136 159
f 148 151 45
f 45 136 148
f 11 136 45
f 106 96 21
f 21 160 106
f 106 102 96
f 33 78 231
f 33 45 151
f 140 69 162
f 140 201 210
f 162 201 140
f 124 69 140
f 140 210 137
f 137 124 140
f 101 77 171
f 91 80 212
f 171 77 89
f 84 23 67
f 57 23 84
f 148 58 179
f 58 22 179
f 148 179 28
f 171 89 114
f 189 220 201
f 194 114 183
f 188 234 132
f 1 188 132
f 132 234 1
f 6 130 1
f 6 22 130
f 71 46 196
f 71 55 46
f 95 55 71
f 161 55 95
f 87 163 55
f 87 161 191
f 55 161 87
f 103 234 14
f 1 234 103
f 169 160 21
f 169 33 231
f 61 33 151
f 78 33 61
f 199 33 11
f 11 45 199
f 45 33 199
f 222 201 156
f 201 220 156
f 80 91 60
f 29 121 212
f 29 212 82
f 57 84 127
f 63 189 26
f 57 10 195
f 195 50 57
f 162 50 195
f 195 10 162
f 219 185 83
f 67 62 12
f 228 157 62
f 67 212 228
f 228 62 67
f 93 179 8
f 191 13 178
f 141 78 86
f 86 89 141
f 86 114 89
f 171 114 193
f 182 213 153
f 205 123 153
f 153 123 207
f 138 25 153
f 153 25 182
f 153 207 66
f 153 188 138
f 153 66 188
f 196 207 170
f 227 204 196
f 196 111 227
f 227 111 239
f 239 98 227
f 196 204 126
f 126 71 196
f 204 71 126
f 191 161 100
f 14 163 235
f 235 103 14
f 235 87 191
f 163 87 235
f 198 6 1
f 1 103 198
f 103 235 198
f 97 169 231
f 160 169 97
f 148 28 218
f 222 156 35
f 91 233 70
f 39 91 212
f 219 60 15
f 15 60 91
f 117 60 219
f 85 102 74
f 82 102 85
f 85 29 82
f 77 70 49
f 49 70 233
f 212 121 224
f 158 89 77
f 88 89 158
f 74 88 158
f 53 84 67
f 162 10 99
f 62 157 146
f 157 83 146
f 212 80 225
f 225 228 212
f 145 93 118
f 145 28 179
f 179 93 145
f 78 61 226
f 30 226 61
f 125 226 30
f 30 203 125
f 129 213 182
f 150 153 213
f 174 164 40
f 40 164 205
f 94 83 167
f 167 83 185
f 123 174 142
f 207 123 142
f 76 189 63
f 76 116 189
f 76 63 108
f 189 116 79
f 220 189 79
f 79 175 109
f 34 9 79
f 79 182 34
f 219 43 177
f 177 185 219
f 177 32 185
f 43 32 177
f 44 101 171
f 171 43 44
f 135 56 196
f 196 170 135
f 64 32 3
f 239 111 17
f 17 98 239
f 196 56 19
f 19 111 196
f 56 64 19
f 19 64 3
f 3 17 19
f 19 17 111
f 118 13 122
f 122 145 118
f 8 179 200
f 200 179 22
f 230 61 151
f 28 61 208
f 208 218 28
f 61 230 208
f 220 79 90
f 90 156 220
f 90 35 156
f 90 79 9
f 48 233 91
f 91 39 48
f 186 158 77
f 77 49 186
f 217 224 121
f 217 186 224
f 158 186 217
f 105 127 84
f 67 12 112
f 112 53 67
f 18 201 162
f 162 99 18
f 18 189 201
f 18 99 26
f 18 26 189
f 190 26 143
f 143 107 190
f 63 26 190
f 108 63 237
f 237 107 108
f 63 190 237
f 237 190 107
f 219 83 31
f 31 117 219
f 197 131 165
f 54 131 197
f 108 107 197
f 197 107 143
f 139 83 94
f 94 154 139
f 191 178 119
f 59 178 8
f 59 119 178
f 28 145 51
f 203 30 51
f 213 129 42
f 109 175 42
f 175 79 144
f 144 116 37
f 144 79 116
f 133 168 174
f 174 40 133
f 133 144 37
f 205 153 216
f 216 40 205
f 236 142 174
f 38 167 185
f 174 168 215
f 215 236 174
f 16 43 171
f 16 32 43
f 98 17 113
f 113 17 3
f 113 16 171
f 3 32 113
f 32 16 113
f 204 227 221
f 221 209 204
f 171 193 221
f 221 98 171
f 221 227 98
f 221 193 114
f 221 114 194
f 8 200 166
f 166 59 8
f 180 200 22
f 22 6 180
f 6 198 180
f 127 105 223
f 223 105 7
f 223 7 149
f 223 149 143
f 143 149 81
f 81 197 143
f 54 197 81
f 104 83 157
f 104 31 83
f 108 197 47
f 197 215 47
f 165 154 176
f 176 197 165
f 176 154 94
f 2 12 62
f 62 24 2
f 120 24 62
f 54 24 120
f 120 131 54
f 203 51 73
f 73 51 145
f 109 42 155
f 155 42 129
f 36 144 150
f 175 144 36
f 36 150 213
f 238 133 37
f 168 133 238
f 185 32 206
f 206 38 185
f 32 38 206
f 167 38 214
f 214 236 173
f 172 135 170
f 172 170 207
f 172 38 32
f 32 64 172
f 56 135 172
f 172 64 56
f 68 215 168
f 68 47 215
f 236 215 65
f 173 236 65
f 65 214 173
f 167 214 65
f 171 98 110
f 110 113 171
f 98 113 110
f 20 183 125
f 194 183 20
f 147 166 200
f 200 180 147
f 147 198 235
f 147 180 198
f 236 214 202
f 202 214 38
f 167 65 5
f 5 65 215
f 152 71 204
f 204 209 152
f 100 181 184
f 184 122 13
f 184 13 191
f 191 100 184
f 209 221 128
f 128 20 209
f 128 221 194
f 194 20 128
f 92 20 125
f 209 20 92
f 54 81 134
f 81 27 134
f 75 27 81
f 12 27 75
f 75 112 12
f 181 152 41
f 41 152 209
f 41 184 181
f 125 203 229
f 229 92 125
f 192 92 229
f 229 184 192
f 192 184 52
f 184 41 52
f 169 96 82
f 82 136 169
f 169 136 11
f 21 96 169
f 11 33 169
f 178 13 118
f 178 93 8
f 118 93 178
f 231 141 97
f 102 106 97
f 141 89 97
f 97 106 160
f 88 102 97
f 97 89 88
f 125 183 226
f 226 86 78
f 226 183 114
f 114 86 226
f 164 174 123
f 164 123 205
f 44 43 219
f 44 70 77
f 77 101 44
f 219 15 44
f 91 70 44
f 44 15 91
f 148 218 208
f 208 151 148
f 208 230 151
f 34 187 90
f 222 35 90
f 90 187 222
f 90 9 34
f 186 39 212
f 212 224 186
f 233 48 186
f 186 49 233
f 186 48 39
f 121 29 217
f 217 85 74
f 74 158 217
f 29 85 217
f 51 30 61
f 51 61 28
f 216 133 40
f 153 150 216
f 150 144 216
f 144 133 216
f 57 127 223
f 223 10 57
f 223 99 10
f 143 26 223
f 26 99 223
f 60 117 104
f 157 228 104
f 117 31 104
f 80 60 104
f 104 225 80
f 228 225 104
f 62 146 120
f 83 139 120
f 120 146 83
f 120 154 165
f 165 131 120
f 120 139 154
f 182 79 155
f 155 129 182
f 155 79 109
f 36 42 175
f 213 42 36
f 108 47 68
f 68 76 108
f 37 116 68
f 68 238 37
f 116 76 68
f 168 238 68
f 191 119 147
f 147 235 191
f 119 59 147
f 59 166 147
f 202 172 207
f 207 142 202
f 142 236 202
f 38 172 202
f 94 167 5
f 5 176 94
f 5 215 197
f 197 176 5
f 152 181 100
f 152 100 161
f 152 161 95
f 95 71 152
f 134 24 54
f 12 2 134
f 134 2 24
f 134 27 12
f 75 81 149
f 84 53 75
f 149 7 75
f 75 105 84
f 7 105 75
f 53 112 75
f 145 122 229
f 203 73 229
f 229 73 145
f 122 184 229
f 52 92 192
f 209 92 52
f 52 41 209

