# https://github.com/mikedh/trimesh
v -0.05766556 0.03814210 0.32574879
v -0.05736643 0.04026397 0.32575756
v -0.05795612 0.03536366 0.32588071
v -0.05128365 0.04985505 0.32761665
v -0.05719107 0.04187379 0.32677345
v -0.05368075 0.04161337 0.33472964
v -0.05697231 0.03265184 0.32583362
v -0.05461640 0.02195827 0.33693393
v -0.05792122 0.03573436 0.32566496
v -0.05546484 0.04840561 0.33019129
v -0.05635637 0.03446110 0.33219280
v -0.05681462 0.04000215 0.32590922
v -0.05349885 0.00891369 0.33984894
v -0.05888783 0.00152292 0.32831310
v -0.05799260 0.00521182 0.33044082
v -0.05481073 0.01468355 0.33714673
v -0.05286036 0.04235686 0.33559683
v -0.05452804 0.03072365 0.33594982
v -0.05745345 0.03768625 0.32571116
v -0.05580815 0.03543925 0.33294736
v -0.05045177 0.01536734 0.34464801
v -0.05860696 0.00926952 0.32898394
v -0.05862275 0.00968324 0.32894657
v -0.05576935 0.04860006 0.32967648
v -0.05382253 0.01881221 0.33866682
v -0.05217481 0.02209376 0.34104650
v -0.05049896 0.01338253 0.34480192
v -0.05823377 0.02560317 0.32543594
v -0.05321879 0.01051418 0.34032844
v -0.05288749 0.03177044 0.33822134
v -0.05162786 0.04767085 0.33529232
v -0.05530379 0.03680227 0.33353943
v -0.05002786 0.02994426 0.34246494
v -0.05699214 0.03730604 0.32584241
v -0.05137003 0.00026120 0.32759350
v -0.05503536 0.04872181 0.33071543
v -0.05315349 0.04579727 0.33415668
v -0.05448832 0.04637284 0.33220787
v -0.05395982 0.00005642 0.32677663
v -0.05867679 0.00407046 0.32533126
v -0.05737566 0.00614444 0.33190212
v -0.05888359 0.00680483 0.32822638
v -0.05342790 0.03057158 0.33769090
v -0.05009044 0.02851782 0.34274923
v -0.05160352 0.00703149 0.34341281
v -0.05004423 0.00403193 0.34610526
v -0.05287916 0.04148683 0.33583711
v -0.05249693 0.02488059 0.34013089
v -0.05529682 0.02233071 0.33566042
v -0.05850988 0.02521140 0.32561359
v -0.05701599 0.04042498 0.32988442
v -0.05551265 0.04976045 0.32877836
v -0.05525645 0.04931612 0.32645309
v -0.05835452 0.01836900 0.32539240
v -0.05709540 0.01870447 0.33227199
v -0.05313364 0.00826374 0.34056477
v -0.05548501 0.01666805 0.33568958
v -0.05422221 0.03656828 0.33522661
v -0.05496674 0.01288199 0.33690610
v -0.05019308 0.01554389 0.34501855
v -0.05592380 0.04237075 0.33127399
v -0.05119695 0.04990515 0.33489365
v -0.05130064 0.00273427 0.34402824
v -0.05790497 0.03591733 0.32685129
v -0.05173316 0.04814823 0.33499515
v -0.05757789 0.00312979 0.33142442
v -0.05292951 0.00873468 0.34094870
v -0.05514360 0.00031356 0.33670846
v -0.05050794 0.01566501 0.34452390
v -0.05326573 0.04621326 0.33388016
v -0.05322968 0.00606763 0.34041831
v -0.05568265 0.04919384 0.32763367
v -0.05806409 0.03157617 0.32932603
v -0.05000262 0.00037068 0.32796371
v -0.05291882 0.01095319 0.34084838
v -0.05466894 0.01208333 0.33750410
v -0.05779912 0.03704368 0.32637999
v -0.05732725 0.04011767 0.32940332
v -0.05697513 0.04226542 0.32954904
v -0.05378569 0.04157386 0.33459588
v -0.05607722 0.03326249 0.33287717
v -0.05076143 0.01919045 0.34366741
v -0.05467089 0.00988940 0.33756663
v -0.05602656 0.04654016 0.32991892
v -0.05450124 0.04770259 0.33177365
v -0.05341424 0.01032209 0.33996902
v -0.05837476 0.02806410 0.32897657
v -0.05723531 0.00946164 0.33216860
v -0.05598186 0.04675520 0.32620694
v -0.05731363 0.00214094 0.33205125
v -0.05407663 0.00259799 0.33884804
v -0.05840598 0.02759951 0.32564915
v -0.05797243 0.02943743 0.32552430
v -0.05246590 0.04982106 0.32724398
v -0.05002754 0.02185000 0.34425577
v -0.05854391 0.01942735 0.32533461
v -0.05388155 0.01699714 0.33870098
v -0.05705042 0.04320512 0.32920063
v -0.05853394 0.00180330 0.32533382
v -0.05655825 0.03356820 0.33194820
v -0.05070126 0.04805056 0.33609592
v -0.05740460 0.02074061 0.33152663
v -0.05063409 0.01850409 0.34395402
v -0.05531788 0.04797730 0.32639842
v -0.05849580 0.00727039 0.32534637
v -0.05639428 0.03536782 0.33196824
v -0.05802494 0.03451415 0.32789613
v -0.05132211 0.04901425 0.33510331
v -0.05041706 0.00642660 0.34542352
v -0.05736243 0.02728275 0.33117532
v -0.05000466 0.00363731 0.34618092
v -0.05451146 0.01704048 0.33754605
v -0.05069504 0.01645189 0.34413412
v -0.05601601 0.04205319 0.32615118
v -0.05862136 0.01841691 0.32555258
v -0.05116989 0.00125152 0.34428246
v -0.05543624 0.00956124 0.33604533
v -0.05319960 0.04782370 0.33341923
v -0.05659281 0.03831392 0.33105285
v -0.05848720 0.00779889 0.32926773
v -0.05024345 0.04888347 0.33624530
v -0.05752373 0.00012712 0.33155192
v -0.05680255 0.03670050 0.32589657
v -0.05232222 0.02333908 0.34063610
v -0.05509614 0.01136902 0.33669537
v -0.05557883 0.04955196 0.32640766
v -0.05656528 0.04338263 0.32600845
v -0.05507682 0.04747622 0.33106486
v -0.05320056 0.03017572 0.33812226
v -0.05713391 0.00288746 0.33245249
v -0.05183757 0.02398898 0.34126874
v -0.05032828 0.04859226 0.32788065
v -0.05427643 0.02441577 0.33725608
v -0.05116485 0.02386198 0.34228653
v -0.05670777 0.02036509 0.33303213
v -0.05210946 0.04962170 0.33401865
v -0.05217371 0.01403849 0.34199631
v -0.05167582 0.00024930 0.34341476
v -0.05122546 0.04256140 0.33746800
v -0.05103498 0.04251338 0.33768757
v -0.05474538 0.03091501 0.33555925
v -0.05023773 0.01854216 0.34451226
v -0.05750268 0.01343357 0.33148705
v -0.05400518 0.04806075 0.32676881
v -0.05658536 0.04318966 0.32997563
v -0.05651555 0.01901985 0.33348872
v -0.05795387 0.03539450 0.32671974
v -0.05880276 0.00504287 0.32851589
v -0.05751049 0.00770630 0.33158535
v -0.05070611 0.02242454 0.34321621
v -0.05221333 0.04715709 0.33480449
v -0.05583614 0.04820724 0.32627303
v -0.05809513 0.03351097 0.32858145
v -0.05142815 0.01226910 0.34338216
v -0.05865469 0.01571081 0.32564252
v -0.05352131 0.03532375 0.33652521
v -0.05797170 0.03520259 0.32651826
v -0.05397276 0.00043360 0.33906668
v -0.05669771 0.03146159 0.33198755
v -0.05699107 0.03838152 0.32584823
v -0.05633341 0.02566722 0.33339512
v -0.05501707 0.00827553 0.33693735
v -0.05181481 0.00015404 0.34315483
v -0.05741394 0.03763905 0.32973598
v -0.05560005 0.04948192 0.32675409
v -0.05720940 0.01480132 0.33211073
v -0.05724401 0.02025898 0.33189678
v -0.05805985 0.03026799 0.32550058
v -0.05386629 0.03510635 0.33608108
v -0.05873466 0.02222705 0.32837884
v -0.05631247 0.02821480 0.33314109
v -0.05085623 0.04227474 0.33795167
v -0.05354221 0.00456810 0.33984271
v -0.05663675 0.04503967 0.32602655
v -0.05647189 0.02766206 0.33290608
v -0.05559167 0.04818280 0.33007564
v -0.05108522 0.03523541 0.33979851
v -0.05698521 0.02686131 0.33200106
v -0.05577759 0.04881159 0.32660420
v -0.05033064 0.00857185 0.34541063
v -0.05039012 0.01943907 0.34416829
v -0.05150724 0.00641291 0.34359514
v -0.05469814 0.04485623 0.33238510
v -0.05348948 0.04767675 0.33310851
v -0.05448508 0.00164204 0.33807818
v -0.05645973 0.04425626 0.32991504
v -0.05854192 0.02816589 0.32861483
v -0.05475890 0.04831332 0.32655461
v -0.05335895 0.02475810 0.33876844
v -0.05323337 0.04795588 0.33333147
v -0.05812084 0.00976072 0.33013754
v -0.05422734 0.00938866 0.33843431
v -0.05063424 0.01870793 0.34392488
v -0.05045786 0.03961671 0.33919520
v -0.05002765 0.04404553 0.32795792
v -0.05225653 0.00808798 0.34221395
v -0.05370491 0.00838065 0.33946253
v -0.05866671 0.00960705 0.32545700
v -0.05029075 0.00045163 0.34577642
v -0.05101994 0.00708338 0.34439469
v -0.05392095 0.04860355 0.32679567
v -0.05127224 0.04846175 0.33536222
v -0.05466629 0.03642137 0.33460152
v -0.05692024 0.02188428 0.33250549
v -0.05069193 0.02528175 0.34266093
v -0.05311469 0.04930573 0.32704127
v -0.05033084 0.03630411 0.34035329
v -0.05622501 0.00012991 0.33441399
v -0.05439304 0.01248403 0.33802232
v -0.05396095 0.02392858 0.33787544
v -0.05128541 0.00006176 0.34411033
v -0.05669640 0.04329689 0.32976469
v -0.05670792 0.00119712 0.33337635
v -0.05696169 0.03910034 0.33026057
v -0.05423718 0.02828714 0.33680768
v -0.05612119 0.03038904 0.33324235
v -0.05189807 0.02219883 0.34146225
v -0.05021599 0.02510867 0.34333314
v -0.05075285 0.03478943 0.34031635
v -0.05588784 0.00933040 0.33507796
v -0.05162185 0.00744976 0.34337180
v -0.05285089 0.01505216 0.34070840
v -0.05880246 0.01970603 0.32844814
v -0.05500522 0.01036764 0.33690955
v -0.05321863 0.04855471 0.33312807
v -0.05853690 0.02420521 0.32567903
v -0.05140440 0.00936153 0.34361121
v -0.05175756 0.01808010 0.34225407
v -0.05768862 0.03792633 0.32752629
v -0.05834950 0.00039760 0.32959182
v -0.05004790 0.04402128 0.33820147
v -0.05399736 0.03055204 0.33681046
v -0.05376630 0.04996749 0.33192768
v -0.05215634 0.04855621 0.33435610
v -0.05044942 0.02067698 0.34388846
v -0.05021605 0.03717927 0.34019539
v -0.05674097 0.04476972 0.32914797
v -0.05841304 0.00006809 0.32537198
v -0.05470725 0.04637561 0.33191644
v -0.05404477 0.01714755 0.33839298
v -0.05800457 0.03479198 0.32593440
v -0.05225873 0.01268510 0.34194016
v -0.05348457 0.01640269 0.33946446
v -0.05126784 0.04096341 0.33793306
v -0.05661566 0.02603035 0.33283063
v -0.05522809 0.04107528 0.32638148
v -0.05393539 0.01705508 0.33859885
v -0.05003480 0.02715402 0.34312387
v -0.05171630 0.00750030 0.34320131
v -0.05325215 0.04910668 0.33288604
v -0.05123731 0.01329220 0.34363288
v -0.05238483 0.04594239 0.33501256
v -0.05476512 0.00112681 0.33750571
v -0.05180062 0.01750556 0.34224477
v -0.05868262 0.02366989 0.32853617
v -0.05048971 0.02960855 0.34197954
v -0.05039931 0.04583686 0.33722982
v -0.05473017 0.04191129 0.33318479
v -0.05645155 0.03678371 0.33162085
v -0.05291123 0.03563567 0.33732355
v -0.05002652 0.00312895 0.34615620
v -0.05510975 0.04325085 0.33223453
v -0.05709562 0.02116290 0.33217766
f 199 211 74
f 122 238 211
f 39 238 74
f 211 238 39
f 121 132 4
f 74 111 261
f 261 199 74
f 111 199 261
f 195 132 121
f 121 231 195
f 195 111 74
f 14 238 230
f 238 122 230
f 74 211 35
f 35 39 74
f 211 39 35
f 132 195 201
f 62 4 233
f 121 4 62
f 257 31 139
f 257 231 121
f 121 101 257
f 233 52 24
f 174 98 237
f 98 24 237
f 237 24 52
f 99 238 14
f 74 238 99
f 99 195 74
f 28 195 96
f 78 187 73
f 94 4 132
f 233 4 94
f 94 52 233
f 136 62 233
f 139 31 151
f 151 252 139
f 31 257 202
f 202 257 101
f 194 236 231
f 231 172 194
f 207 236 194
f 231 257 140
f 140 172 231
f 140 257 139
f 14 23 148
f 14 230 22
f 22 23 14
f 72 237 52
f 195 99 105
f 99 96 105
f 5 98 174
f 3 9 241
f 98 5 1
f 109 182 199
f 211 199 116
f 211 182 45
f 45 182 221
f 164 78 73
f 245 175 73
f 9 1 2
f 2 5 174
f 2 1 5
f 132 201 206
f 206 94 132
f 206 53 94
f 144 201 195
f 195 246 144
f 168 2 19
f 9 2 168
f 28 96 168
f 96 9 168
f 52 94 126
f 94 53 126
f 62 136 65
f 250 136 233
f 250 225 136
f 139 252 37
f 108 202 101
f 121 62 108
f 108 101 121
f 31 202 108
f 108 65 31
f 62 65 108
f 120 230 122
f 120 22 230
f 187 78 153
f 153 107 187
f 153 78 98
f 98 78 79
f 79 61 98
f 54 96 195
f 195 105 54
f 54 105 96
f 92 9 96
f 96 50 92
f 92 241 9
f 92 50 187
f 187 241 92
f 107 64 147
f 187 107 157
f 157 241 187
f 107 147 157
f 3 241 157
f 221 182 200
f 182 109 200
f 46 199 111
f 46 109 199
f 199 182 63
f 63 116 199
f 63 182 211
f 211 116 63
f 117 68 253
f 53 104 152
f 174 126 152
f 152 126 53
f 188 104 53
f 188 206 201
f 53 206 188
f 34 168 19
f 7 195 28
f 7 246 195
f 165 72 52
f 52 126 165
f 179 126 174
f 174 237 179
f 237 72 179
f 72 165 179
f 179 165 126
f 139 37 244
f 244 47 177
f 177 219 244
f 244 219 207
f 244 140 139
f 172 140 244
f 207 194 244
f 244 194 172
f 252 151 118
f 118 37 252
f 151 234 118
f 118 234 136
f 136 225 118
f 40 96 99
f 40 99 14
f 14 42 40
f 77 1 9
f 77 9 3
f 77 147 64
f 77 157 147
f 3 157 77
f 98 1 77
f 15 120 122
f 22 120 15
f 23 191 223
f 223 148 23
f 14 148 223
f 223 42 14
f 223 155 42
f 223 50 226
f 98 61 145
f 61 186 145
f 251 200 109
f 177 47 260
f 61 79 32
f 33 219 177
f 207 219 33
f 33 236 207
f 231 236 33
f 111 195 33
f 33 195 231
f 29 67 196
f 196 75 29
f 86 67 29
f 208 122 211
f 211 163 208
f 208 163 68
f 68 117 208
f 89 152 104
f 89 2 174
f 174 152 89
f 104 188 127
f 127 188 2
f 127 89 104
f 2 89 127
f 19 2 12
f 2 188 12
f 123 34 201
f 168 34 123
f 28 168 93
f 93 7 28
f 80 260 6
f 6 260 47
f 258 260 80
f 47 244 17
f 17 244 37
f 190 250 233
f 233 184 190
f 190 184 118
f 96 40 115
f 226 50 115
f 115 50 96
f 115 223 226
f 155 223 115
f 98 77 229
f 229 153 98
f 107 153 229
f 229 64 107
f 229 77 64
f 255 223 102
f 187 255 102
f 50 223 170
f 170 223 255
f 187 50 170
f 170 255 187
f 212 186 98
f 98 145 212
f 212 145 186
f 221 200 227
f 200 251 227
f 159 164 73
f 111 33 95
f 221 196 249
f 138 196 67
f 67 163 138
f 138 249 196
f 138 163 211
f 211 45 138
f 138 45 221
f 221 249 138
f 158 185 253
f 253 68 158
f 68 163 158
f 163 173 158
f 178 204 245
f 110 204 178
f 178 245 73
f 73 110 178
f 187 204 87
f 87 204 110
f 73 187 87
f 87 110 73
f 167 102 55
f 55 102 223
f 149 88 223
f 149 223 191
f 19 12 114
f 201 34 114
f 114 188 201
f 114 12 188
f 203 129 169
f 32 129 203
f 61 32 203
f 203 258 61
f 239 38 85
f 85 128 239
f 239 6 47
f 47 17 239
f 239 17 37
f 36 128 85
f 36 184 233
f 85 184 36
f 233 24 36
f 61 258 262
f 84 186 61
f 61 262 84
f 84 262 128
f 128 176 84
f 84 176 24
f 84 24 98
f 98 186 84
f 37 118 70
f 118 184 70
f 70 184 85
f 70 239 37
f 38 239 70
f 85 38 70
f 155 115 198
f 198 115 40
f 42 155 198
f 198 40 42
f 263 102 167
f 167 55 263
f 263 204 187
f 187 102 263
f 60 46 111
f 111 95 60
f 60 95 142
f 78 164 214
f 164 259 214
f 51 32 79
f 51 214 259
f 51 79 78
f 78 214 51
f 164 100 11
f 169 129 30
f 205 129 134
f 205 30 129
f 112 29 240
f 16 86 29
f 29 112 16
f 71 163 67
f 71 173 163
f 67 56 71
f 185 158 91
f 91 158 173
f 117 55 220
f 220 130 117
f 223 88 143
f 122 208 213
f 213 208 117
f 117 130 213
f 88 149 41
f 41 220 88
f 130 220 41
f 66 15 122
f 103 60 193
f 160 34 19
f 19 114 160
f 160 114 34
f 169 30 156
f 156 30 260
f 58 203 169
f 169 156 58
f 258 203 58
f 58 156 260
f 260 258 58
f 183 239 128
f 183 262 258
f 128 262 183
f 183 258 80
f 80 6 183
f 6 239 183
f 128 36 10
f 10 176 128
f 10 36 24
f 24 176 10
f 27 228 251
f 75 243 97
f 29 75 97
f 133 8 210
f 245 161 171
f 119 259 32
f 32 51 119
f 119 51 259
f 106 259 164
f 164 11 106
f 216 133 210
f 216 11 100
f 8 133 216
f 216 100 164
f 164 159 216
f 175 245 216
f 245 171 216
f 216 171 161
f 73 175 216
f 216 159 73
f 32 259 20
f 134 129 48
f 82 103 193
f 82 48 217
f 82 228 113
f 113 103 82
f 218 205 95
f 150 205 134
f 95 205 150
f 150 235 95
f 205 218 256
f 260 30 256
f 30 205 256
f 177 260 256
f 256 33 177
f 44 33 256
f 193 60 181
f 181 60 142
f 181 82 193
f 235 82 181
f 142 95 181
f 95 235 181
f 86 16 209
f 209 16 59
f 162 224 117
f 162 117 253
f 253 185 162
f 117 224 125
f 125 224 59
f 146 125 59
f 117 125 146
f 146 55 117
f 245 204 135
f 204 263 135
f 135 263 55
f 55 146 135
f 88 220 166
f 166 220 55
f 166 143 88
f 166 55 223
f 223 143 166
f 122 213 90
f 90 213 130
f 130 41 90
f 90 41 149
f 90 66 122
f 49 161 245
f 49 216 161
f 8 216 49
f 245 16 49
f 49 16 112
f 254 228 210
f 251 228 254
f 180 251 109
f 180 27 251
f 109 46 180
f 46 60 180
f 60 27 180
f 21 27 60
f 228 27 21
f 240 29 247
f 29 97 247
f 210 8 25
f 25 97 243
f 25 247 97
f 240 247 25
f 8 49 25
f 25 112 240
f 25 49 112
f 251 254 137
f 137 254 210
f 210 25 137
f 232 48 129
f 228 82 26
f 26 82 217
f 248 218 95
f 248 33 44
f 248 95 33
f 44 256 248
f 248 256 218
f 134 48 131
f 131 150 134
f 48 82 131
f 131 82 235
f 235 150 131
f 59 224 76
f 76 209 59
f 192 162 13
f 13 162 197
f 67 13 197
f 197 56 67
f 59 16 57
f 57 146 59
f 57 135 146
f 57 16 245
f 245 135 57
f 69 21 60
f 69 103 113
f 60 103 69
f 113 228 69
f 228 21 69
f 154 137 221
f 251 137 154
f 221 227 154
f 154 227 251
f 242 196 221
f 221 137 242
f 75 196 242
f 43 129 32
f 32 232 43
f 43 232 129
f 32 20 141
f 141 20 259
f 141 106 11
f 259 106 141
f 217 48 124
f 124 26 217
f 224 162 83
f 162 192 83
f 222 243 75
f 75 242 222
f 222 242 137
f 222 25 243
f 222 137 25
f 18 232 32
f 32 141 18
f 48 232 18
f 11 216 81
f 81 141 11
f 216 141 81
f 48 18 215
f 215 18 141
f 215 216 210
f 215 141 216
f 189 124 48
f 48 215 189
f 189 215 210
f 26 124 189
f 210 228 189
f 228 26 189
f 31 65 234
f 234 151 31
f 234 65 136
f 201 144 93
f 246 7 93
f 93 144 246
f 93 123 201
f 168 123 93
f 190 118 225
f 225 250 190
f 90 149 191
f 90 191 23
f 22 15 90
f 23 22 90
f 15 66 90
f 197 71 56
f 197 162 185
f 185 91 197
f 173 71 197
f 197 91 173
f 83 76 224
f 209 76 83
f 86 209 83
f 83 13 67
f 67 86 83
f 83 192 13

