# https://github.com/mikedh/trimesh
v -0.07112940 -0.04295602 0.28000816
v -0.07184537 -0.02405979 0.27642745
v -0.07064387 -0.04718339 0.26306218
v -0.07202094 -0.02070969 0.27408094
v -0.07225586 -0.01262695 0.27047933
v -0.06820972 -0.04994353 0.27680099
v -0.07165194 -0.02293002 0.27968854
v -0.07182429 -0.02032709 0.27760010
v -0.07181205 -0.03690050 0.27114437
v -0.07093674 -0.04978592 0.27760991
v -0.07221260 -0.02931228 0.26468682
v -0.07222161 -0.01321819 0.27121372
v -0.07194050 -0.03868880 0.26409938
v -0.07159333 -0.04298724 0.27065089
v -0.07196986 -0.00505937 0.27683431
v -0.07172453 -0.03613592 0.27376324
v -0.07233689 -0.00493889 0.26309861
v -0.07151058 -0.04407827 0.27161069
v -0.07052534 -0.00006555 0.27672152
v -0.07187708 -0.00021774 0.27832664
v -0.07163396 -0.04513503 0.26516867
v -0.07183811 -0.00877071 0.27862615
v -0.07239525 -0.01202247 0.26648031
v -0.07192234 -0.03519266 0.26954383
v -0.07248851 -0.01017589 0.26320202
v -0.07234717 -0.01748626 0.26670797
v -0.07171901 -0.03390793 0.27503214
v -0.07140214 -0.03834687 0.27842152
v -0.07117123 -0.02396989 0.26301565
v -0.07229079 -0.01247526 0.26965399
v -0.07233222 -0.00648452 0.26926139
v -0.07196004 -0.02995374 0.27214813
v -0.07128973 -0.04716076 0.27332050
v -0.07148235 -0.03840403 0.27709016
v -0.07128873 -0.04891227 0.27060158
v -0.07142310 -0.04598591 0.27142196
v -0.07114241 -0.04669833 0.27697450
v -0.07178620 -0.03831602 0.27057861
v -0.07173075 -0.03642928 0.27347418
v -0.07220161 -0.00809682 0.27227513
v -0.07220252 -0.02953453 0.26491754
v -0.07183113 -0.01585713 0.27809738
v -0.07122107 -0.04388131 0.27792576
v -0.07231127 -0.02549138 0.26346301
v -0.06754092 -0.04731978 0.26429384
v -0.07179827 -0.03066846 0.27508355
v -0.07235886 -0.00816426 0.26835047
v -0.07194982 -0.03858045 0.26381315
v -0.07218882 -0.00746966 0.27264275
v -0.07188337 -0.01492088 0.27744784
v -0.07152598 -0.03760798 0.27677614
v -0.07146196 -0.03824561 0.27750417
v -0.07202315 -0.02576344 0.26303117
v -0.07194604 -0.03130683 0.27159508
v -0.07142751 -0.04571759 0.27167439
v -0.07226289 -0.01967128 0.26854147
v -0.07137105 -0.04539917 0.27354732
v -0.07194236 -0.03005996 0.27246177
v -0.07239248 -0.01829746 0.26454227
v -0.07235274 -0.01764180 0.26648824
v -0.07188595 -0.00016725 0.27819428
v -0.07222547 -0.02831169 0.26511493
v -0.07166065 -0.03845727 0.27355603
v -0.07143725 -0.04419626 0.27332078
v -0.07191341 -0.02200108 0.27576433
v -0.07158579 -0.02696356 0.27982915
v -0.07232675 -0.01988866 0.26651255
v -0.06847818 -0.02077178 0.26296759
v -0.07128398 -0.04896426 0.27064776
v -0.07176799 -0.03698800 0.27216740
v -0.07136365 -0.04181690 0.27696873
v -0.07194593 -0.03115181 0.27170341
v -0.07159320 -0.03459609 0.27702732
v -0.07154417 -0.04674671 0.26543208
v -0.07092177 -0.04778318 0.27985966
v -0.07156322 -0.04704973 0.26321617
v -0.07097169 -0.04853678 0.27828363
v -0.07191493 -0.03406564 0.27053434
v -0.07175154 -0.00132660 0.27999862
v -0.07222271 -0.02955659 0.26388480
v -0.07089596 -0.04827218 0.27988042
v -0.07235986 -0.01749611 0.26632044
v -0.06686909 -0.04868959 0.27961852
v -0.07209562 -0.03380300 0.26455097
v -0.07126771 -0.04914064 0.27080826
v -0.07237669 -0.02179153 0.26306112
v -0.07187659 -0.01531393 0.27750330
v -0.07132113 -0.03888784 0.27944316
v -0.07235373 -0.00756935 0.26858981
v -0.07228202 -0.02084813 0.26755160
v -0.07117241 -0.04587522 0.27721219
v -0.07189810 -0.03555024 0.26996584
v -0.07212001 -0.03388991 0.26311440
v -0.07140065 -0.03837263 0.27843210
v -0.07114786 -0.04568338 0.27779013
v -0.07182936 -0.02332461 0.27688218
v -0.07115240 -0.04954853 0.27329559
v -0.07230416 -0.00664305 0.26992830
v -0.07185598 -0.02118321 0.27695935
v -0.07189593 -0.00901274 0.27775493
v -0.07174640 -0.03090939 0.27601543
v -0.07185114 -0.01872157 0.27744838
v -0.07190624 -0.00177047 0.27785742
v -0.07119808 -0.04867316 0.27342938
v -0.07143049 -0.03410338 0.27993771
v -0.07194452 -0.02706812 0.27373828
v -0.07210109 -0.03376943 0.26433520
v -0.07248800 -0.00989211 0.26328506
v -0.06871849 -0.01896000 0.26297134
v -0.07235654 -0.00671999 0.26862264
v -0.07226132 -0.01229789 0.27038943
v -0.07213333 -0.02948615 0.26755198
v -0.07221931 -0.03010309 0.26337154
v -0.07219984 -0.03001189 0.26449834
v -0.06859800 -0.01916258 0.26296909
v -0.07161494 -0.03565443 0.27616798
v -0.06850145 -0.02038147 0.26296784
v -0.06896444 -0.00494299 0.26301577
v -0.07192058 -0.03838583 0.26575919
v -0.07209329 -0.01937012 0.27290316
v -0.07184719 -0.02071096 0.27719773
v -0.07149142 -0.04760491 0.26563268
v -0.07184173 -0.01980017 0.27742534
v -0.07212899 -0.01965793 0.27198921
v -0.07148585 -0.03777388 0.27735300
v -0.07160029 -0.04643394 0.26308371
v -0.07228639 -0.01607690 0.26899359
v -0.07175515 -0.03906147 0.27066157
v -0.07177206 -0.02251016 0.27795860
v -0.07182496 -0.01855218 0.27785240
v -0.07146100 -0.03723129 0.27802047
v -0.07141242 -0.03685159 0.27899643
v -0.07099657 -0.04859548 0.27778546
v -0.07171240 -0.03311269 0.27557923
v -0.07175030 -0.04346968 0.26310602
v -0.07135320 -0.04614703 0.27305765
v -0.07202135 -0.03526363 0.26602118
v -0.07131545 -0.04298434 0.27699995
v -0.07232866 -0.02494008 0.26307648
v -0.07174234 -0.03930271 0.27073407
v -0.07245744 -0.00699341 0.26508613
v -0.07174650 -0.00341751 0.28002951
v -0.07100367 -0.04727468 0.26334935
v -0.06895250 -0.01994462 0.26297550
v -0.07170380 -0.02261862 0.27897452
v -0.07219971 -0.02919793 0.26534820
v -0.07068072 -0.02585819 0.26300788
v -0.07203486 -0.00805177 0.27549455
v -0.07235975 -0.01750890 0.26631952
v -0.07227982 -0.01265537 0.26991177
v -0.07197138 -0.03823400 0.26333717
v -0.07127629 -0.04389615 0.27697685
v -0.07185953 -0.00897163 0.27830970
v -0.07188928 -0.02123817 0.27639615
v -0.07242517 -0.00632390 0.26308312
v -0.07162191 -0.04590826 0.26350154
v -0.07230905 -0.02074149 0.26676147
v -0.07162165 -0.04568547 0.26423450
v -0.07168720 -0.04478917 0.26306613
v -0.07231318 -0.02516452 0.26362714
v -0.07128299 -0.03898322 0.28000906
v -0.07195180 -0.01440177 0.27640808
v -0.07162793 -0.04525460 0.26518326
v -0.07138579 -0.04059444 0.27739492
v -0.07223056 -0.02923848 0.26386853
v -0.07240311 -0.01025316 0.26653684
v -0.07141329 -0.03551934 0.27959899
v -0.07237466 -0.01768464 0.26560906
v -0.07218966 -0.01349165 0.27193103
v -0.07227756 -0.01253657 0.26997880
v -0.07200600 -0.03423723 0.26771956
v -0.07115751 -0.04952281 0.27319905
v -0.07221012 -0.02845366 0.26562828
v -0.07174319 -0.00914667 0.27989155
v -0.07140312 -0.04567952 0.27237268
v -0.07163606 -0.01973436 0.28003993
v -0.07223940 -0.02090507 0.26882773
v -0.07195560 -0.00033567 0.27713979
v -0.06850584 -0.00611605 0.26316113
v -0.07161118 -0.03189368 0.27795360
v -0.07106268 -0.04474439 0.27989742
v -0.07170336 -0.03633564 0.27408777
v -0.07222300 -0.03000796 0.26330079
v -0.07222585 -0.02840937 0.26500222
v -0.07206772 -0.02605118 0.27141295
v -0.07205449 -0.02037045 0.27348979
v -0.07138321 -0.04558022 0.27303110
v -0.07182978 -0.02447320 0.27658950
v -0.07139232 -0.04092444 0.27707341
v -0.07108254 -0.04541572 0.27910615
v -0.07141735 -0.03454442 0.27996446
v -0.06778882 -0.00068098 0.27973410
v -0.07212437 -0.02909036 0.26815186
v -0.07220466 -0.02100736 0.26984101
v -0.07145088 -0.03930761 0.27709538
v -0.07188868 -0.00069205 0.27814304
v -0.07176933 -0.03843777 0.27089052
v -0.07107386 -0.04682570 0.27807494
v -0.07250462 -0.00656218 0.26317065
v -0.07206524 -0.02007066 0.27335049
v -0.07147552 -0.03853252 0.27713175
v -0.07194459 -0.03791815 0.26541750
v -0.07162498 -0.04503642 0.26580511
v -0.07249919 -0.00809038 0.26311684
v -0.07165107 -0.03689107 0.27485426
v -0.07139729 -0.04708826 0.27052520
v -0.07162704 -0.04521717 0.26532687
v -0.07154635 -0.04379083 0.27100193
v -0.07200340 -0.03575661 0.26610183
v -0.07167838 -0.03313132 0.27624581
v -0.07183658 -0.02334419 0.27675725
v -0.07146174 -0.04432728 0.27259300
v -0.07155454 -0.03647075 0.27682156
v -0.07131388 -0.04799300 0.27138854
v -0.07234844 -0.00676325 0.26883852
v -0.06719972 -0.04923843 0.27224355
v -0.07234118 -0.01217562 0.26830809
v -0.07181680 -0.02135071 0.27752550
v -0.07164357 -0.03419352 0.27636025
v -0.07191438 -0.03291922 0.27131349
v -0.07165695 -0.03483494 0.27579488
v -0.07171947 -0.00220212 0.28004431
v -0.07250158 -0.00753875 0.26311551
v -0.06806900 -0.04703773 0.26304562
v -0.07132825 -0.04785027 0.27122540
v -0.07162094 -0.04581183 0.26387233
v -0.07145511 -0.03353864 0.27977506
v -0.07137533 -0.03862101 0.27871080
v -0.07109072 -0.04669797 0.27789489
v -0.07239772 -0.01935806 0.26379012
v -0.07189378 -0.03179576 0.27255061
v -0.07166622 -0.01945009 0.28001825
v -0.07081643 -0.04966440 0.27983307
v -0.07186798 -0.02196084 0.27657751
v -0.07237265 -0.00624305 0.26812697
v -0.07196630 -0.03686182 0.26610601
v -0.07181197 -0.02064985 0.27772873
v -0.07231887 -0.01270735 0.26884940
v -0.07220807 -0.03045529 0.26350048
v -0.06783628 -0.00003120 0.27973769
v -0.07171101 -0.04422547 0.26337377
v -0.07199615 -0.00836732 0.27619431
v -0.07135512 -0.03802733 0.27934893
v -0.06828108 -0.04700074 0.26301491
v -0.07235840 -0.00661038 0.26857245
v -0.07207234 -0.03323897 0.26623815
v -0.07162937 -0.00002858 0.28003703
v -0.07158401 -0.02627184 0.28001250
v -0.07222496 -0.02831703 0.26513183
v -0.07161416 -0.03602438 0.27600217
v -0.07249198 -0.00609820 0.26387797
v -0.07140815 -0.03543045 0.27972454
v -0.07078863 -0.04956019 0.27999604
v -0.07151169 -0.04716982 0.26593163
v -0.07171310 -0.04421094 0.26329361
v -0.07196739 -0.00509884 0.27687085
v -0.07182462 -0.02333181 0.27695674
v -0.07179307 -0.00356739 0.27940398
v -0.06761367 -0.04622704 0.26300641
v -0.07196079 -0.02097006 0.27516240
v -0.07162541 -0.02483019 0.26302389
v -0.07138666 -0.04529555 0.27331843
v -0.07159398 -0.04576942 0.26562349
v -0.07235697 -0.01215821 0.26784745
v -0.07169027 -0.03304391 0.27606140
v -0.07197633 -0.00945251 0.27645665
v -0.07152728 -0.04454714 0.27054670
v -0.07222328 -0.03001422 0.26327805
v -0.07231077 -0.01029993 0.26939702
v -0.07186602 -0.01807429 0.27732100
v -0.07212517 -0.02931498 0.26796645
v -0.07143415 -0.03866415 0.27773201
v -0.07159327 -0.04020005 0.27354823
v -0.07175279 -0.03645504 0.27292185
v -0.07241293 -0.01919385 0.26303931
v -0.07211106 -0.01700128 0.27299335
v -0.07082219 -0.04989561 0.27949472
v -0.06859427 -0.00789268 0.26300925
v -0.07132166 -0.04731732 0.27222555
v -0.07198656 -0.00875179 0.27633604
v -0.06821383 -0.00000383 0.27976748
v -0.07137880 -0.03622867 0.27984171
v -0.07193294 -0.03829341 0.26530285
v -0.07179604 -0.02077447 0.27794214
v -0.07136349 -0.03654249 0.27994456
v -0.07027346 -0.01898514 0.26299996
v -0.07223361 -0.02139168 0.26876793
v -0.07093197 -0.04999943 0.27693903
v -0.07164968 -0.01847717 0.28004085
v -0.07232781 -0.01267333 0.26860815
v -0.07133046 -0.04030275 0.27848986
v -0.07164239 -0.03141076 0.27765269
v -0.07193627 -0.03845081 0.26480744
v -0.07190554 -0.02167061 0.27599350
v -0.06733341 -0.04998822 0.27978542
v -0.07230865 -0.02093153 0.26669198
v -0.07147180 -0.03777235 0.27758279
v -0.07208094 -0.01953576 0.27314825
v -0.07171258 -0.04427071 0.26314086
v -0.07179268 -0.02720174 0.27652796
v -0.07149346 -0.03825361 0.27698901
v -0.07197204 -0.00226564 0.27685481
v -0.07247168 -0.00495123 0.26314995
v -0.07189258 -0.01066857 0.27766640
v -0.07235763 -0.01796054 0.26619934
v -0.07248565 -0.00535135 0.26432354
v -0.06862099 -0.01967344 0.26296963
v -0.06776139 -0.00087048 0.27972609
v -0.07174612 -0.03757091 0.27220858
v -0.07176634 -0.00024090 0.27981955
v -0.07178095 -0.00008390 0.27962686
v -0.06850519 -0.00518997 0.26338473
v -0.07203552 -0.02648300 0.27199410
v -0.07151859 -0.04709177 0.26578392
v -0.07172947 -0.01029014 0.27998582
v -0.07089966 -0.04820256 0.27988005
v -0.07100392 -0.04856639 0.27768202
v -0.06723441 -0.04922369 0.27198167
v -0.06802244 -0.04962233 0.27340788
v -0.06850196 -0.00759051 0.26304328
v -0.07169805 -0.01864641 0.27967602
v -0.07236530 -0.01211145 0.26760151
v -0.07016986 -0.04710834 0.26303842
v -0.07216763 -0.01324811 0.27245191
v -0.06730758 -0.04951954 0.27314752
v -0.07132923 -0.03851269 0.27951693
v -0.07224365 -0.02076184 0.26875580
v -0.07147078 -0.03896238 0.27697053
v -0.06856118 -0.02523883 0.26297081
v -0.07186247 -0.00024462 0.27853351
v -0.07203853 -0.03455172 0.26623431
v -0.06682425 -0.04953073 0.27955369
v -0.07143493 -0.04455030 0.27302339
v -0.07250804 -0.00558320 0.26320789
v -0.07135889 -0.03491782 0.28002281
v -0.07060664 -0.02289671 0.26300543
v -0.07200611 -0.02659864 0.27259460
v -0.07191466 -0.00872498 0.27748940
v -0.07195827 -0.03532383 0.26836527
v -0.07211023 -0.01964422 0.27243444
v -0.07190540 -0.02689609 0.27455759
v -0.07117757 -0.04431707 0.27833273
v -0.07183216 -0.02492664 0.27643224
v -0.07190458 -0.02471356 0.27518267
v -0.07221289 -0.02894679 0.26504142
v -0.07195499 -0.02689956 0.27357895
v -0.07097215 -0.04892597 0.27788869
v -0.07160173 -0.04575813 0.26519619
v -0.07146308 -0.00019342 0.27677966
v -0.07240834 -0.01887420 0.26357714
v -0.07111380 -0.04573033 0.27833139
v -0.07170576 -0.04424624 0.26360423
v -0.07187372 -0.02217891 0.27642254
v -0.07248399 -0.01108949 0.26321200
v -0.07192154 -0.03417594 0.27027931
v -0.07125596 -0.04026184 0.27973590
v -0.07185672 -0.03045632 0.27400658
v -0.07115388 -0.04950683 0.27332064
v -0.07238184 -0.01144478 0.26711793
v -0.07158329 -0.02650836 0.27996952
v -0.07195665 -0.03856199 0.26347976
v -0.07133052 -0.03787538 0.27982571
v -0.07159103 -0.03170537 0.27837062
v -0.07243785 -0.01175322 0.26487485
v -0.07170083 -0.02759761 0.27793025
v -0.07241184 -0.01943316 0.26308801
v -0.06904004 -0.04998631 0.27684273
v -0.07231953 -0.02083700 0.26639086
v -0.07239299 -0.01176128 0.26662185
v -0.07106775 -0.04781316 0.27725459
v -0.07163662 -0.03557934 0.27580621
v -0.06692596 -0.04991935 0.27737958
v -0.07223373 -0.02960510 0.26324969
v -0.07157582 -0.04632922 0.26489379
v -0.07176708 -0.03673789 0.27237924
v -0.07149287 -0.03286527 0.27945314
v -0.07161185 -0.02732549 0.27935454
v -0.07174158 -0.03607771 0.27344167
v -0.07235356 -0.00663373 0.26872233
v -0.07171535 -0.02753314 0.27771643
v -0.07178960 -0.02492566 0.27714237
v -0.07139846 -0.03820055 0.27855746
v -0.07183077 -0.02329728 0.27686568
v -0.07193324 -0.03826616 0.26534127
v -0.07183930 -0.02279616 0.27684748
v -0.07216527 -0.03216387 0.26338002
v -0.07169423 -0.03245738 0.27628434
v -0.07159134 -0.02378480 0.28003680
v -0.07113812 -0.04661857 0.27712597
v -0.07167059 -0.03349784 0.27620874
v -0.07222674 -0.02878627 0.26457479
v -0.07121729 -0.04927485 0.27133530
v -0.07223744 -0.02855489 0.26431071
v -0.07166848 -0.03316081 0.27641238
v -0.07171482 -0.03457293 0.27477204
v -0.07175281 -0.02778323 0.27704799
v -0.06867105 -0.00564663 0.26301020
v -0.07089628 -0.04966859 0.27844166
v -0.06896255 -0.01992433 0.26297567
v -0.07167908 -0.03291798 0.27633861
v -0.07202836 -0.03667343 0.26327411
v -0.07173711 -0.00947966 0.27994715
v -0.07132799 -0.03763856 0.27998472
v -0.07177328 -0.03099940 0.27543146
v -0.07122062 -0.03989432 0.28001628
v -0.07219083 -0.00766277 0.27257808
v -0.07209342 -0.03074827 0.26781878
v -0.07174815 -0.03673112 0.27284776
v -0.07141167 -0.03896539 0.27793068
v -0.07169915 -0.02178400 0.27919724
v -0.07190542 -0.03461358 0.27041021
v -0.07179123 -0.03081234 0.27515931
v -0.07219147 -0.02138128 0.27006246
v -0.07210233 -0.02508828 0.27092563
v -0.07176763 -0.03104576 0.27552291
v -0.07205184 -0.03399197 0.26627659
v -0.07141535 -0.03620068 0.27925258
v -0.07176425 -0.00567751 0.27974118
v -0.07167811 -0.04371942 0.26606513
v -0.07215017 -0.02989137 0.26655440
v -0.07119618 -0.02392449 0.26301611
v -0.07233602 -0.00796322 0.26901927
v -0.07159114 -0.02594267 0.27997760
v -0.07108677 -0.04548606 0.27898033
v -0.07204665 -0.03461767 0.26581358
v -0.07069612 -0.04979243 0.27999064
v -0.07231674 -0.02421202 0.26414324
v -0.07219346 -0.00745977 0.27253969
v -0.07166275 -0.02204659 0.27968552
v -0.07117713 -0.04937492 0.27290192
v -0.07191137 -0.02273305 0.27560132
v -0.07097302 -0.04917167 0.27762059
v -0.07138632 -0.04723696 0.27060648
v -0.07107443 -0.04976756 0.27334613
v -0.07184599 -0.01562854 0.27790933
v -0.07222073 -0.01969839 0.26979799
v -0.07154322 -0.00000430 0.28003022
v -0.07140467 -0.03923174 0.27789602
v -0.07233764 -0.01698227 0.26715766
v -0.07158356 -0.02570841 0.28002503
v -0.07227095 -0.02075346 0.26792349
v -0.07184274 -0.03620298 0.27090157
v -0.07123409 -0.04378141 0.27778250
v -0.07223374 -0.02943070 0.26346751
v -0.07142368 -0.04570657 0.27179098
v -0.07177275 -0.02598034 0.27716337
v -0.07089649 -0.04838680 0.27975859
v -0.07230849 -0.01854816 0.26753106
v -0.07161144 -0.04598361 0.26388342
v -0.07247815 -0.00547081 0.26456975
v -0.07174333 -0.02699722 0.27739582
v -0.07248620 -0.01015904 0.26331670
v -0.07139140 -0.04016147 0.27757265
v -0.07128554 -0.03951060 0.27967412
v -0.07236812 -0.01199777 0.26752058
v -0.07233707 -0.01950381 0.26630860
v -0.07218427 -0.00516119 0.26307834
v -0.07160980 -0.03652680 0.27583436
v -0.07172207 -0.00037619 0.28004435
v -0.07196646 -0.01049562 0.27653514
v -0.07183094 -0.04135385 0.26306432
v -0.06756627 -0.04675794 0.26362139
v -0.07164645 -0.04171687 0.27063524
v -0.07239722 -0.01110528 0.26659149
v -0.07152112 -0.03783495 0.27674820
v -0.07241689 -0.00599984 0.26308293
v -0.07223567 -0.02846509 0.26449217
v -0.07194958 -0.03521379 0.26871713
v -0.07105274 -0.04512022 0.27980711
v -0.07165298 -0.02323642 0.27961627
v -0.07219509 -0.02063185 0.27018448
v -0.07193728 -0.03783936 0.26589435
v -0.07246660 -0.00836123 0.26308410
v -0.07177121 -0.03723657 0.27187635
v -0.07131766 -0.04698002 0.27284132
v -0.06862633 -0.04987264 0.27986541
v -0.07170318 -0.01421853 0.28002389
v -0.07174273 -0.00547017 0.28004423
v -0.07138906 -0.03732224 0.27915062
v -0.07163886 -0.03697222 0.27505834
v -0.07186625 -0.03602896 0.27044447
v -0.07121463 -0.04528992 0.27695655
v -0.07172587 -0.02757686 0.27753905
v -0.07208537 -0.03200707 0.26692511
v -0.07157856 -0.04591917 0.26606033
v -0.07220665 -0.02933099 0.26493689
v -0.07196419 -0.00830668 0.27675830
v -0.07192911 -0.02707818 0.27403934
v -0.07172651 -0.02164326 0.27881859
v -0.07129577 -0.04035249 0.27902982
v -0.07166166 -0.04062650 0.27139614
v -0.06926057 -0.00001695 0.27664313
v -0.07154198 -0.03750228 0.27656293
v -0.06899719 -0.04706140 0.26302383
v -0.07087591 -0.04865026 0.27984462
v -0.07104339 -0.04571603 0.27954054
v -0.07200558 -0.03499019 0.26702418
v -0.07235555 -0.00664248 0.26866478
v -0.07188465 -0.01540417 0.27737518
v -0.07134136 -0.03719186 0.27999018
v -0.07161544 -0.04532697 0.26565080
v -0.07191474 -0.03349371 0.27092554
v -0.07167663 -0.03297606 0.27635512
v -0.07166019 -0.02772343 0.27853332
v -0.07134840 -0.04645335 0.27276326
v -0.07096232 -0.00493608 0.26305458
v -0.07137216 -0.04754831 0.27051566
v -0.07232181 -0.02505437 0.26331454
v -0.07246489 -0.01142249 0.26388849
v -0.07240860 -0.01891484 0.26354586
v -0.07220632 -0.02980375 0.26442983
v -0.07185120 -0.02196640 0.27685103
v -0.07231630 -0.02338595 0.26474567
v -0.07179241 -0.02755759 0.27643631
v -0.07231590 -0.02447016 0.26303663
v -0.07186272 -0.03953863 0.26609651
v -0.07165113 -0.03413733 0.27625178
v -0.07166776 -0.03149611 0.27718479
v -0.07158319 -0.03655533 0.27630010
v -0.07176920 -0.00458663 0.27970548
v -0.07208389 -0.02572418 0.27115072
v -0.07240622 -0.01932494 0.26342571
v -0.07142957 -0.03965165 0.27724416
v -0.07158530 -0.03623819 0.27641223
v -0.07113875 -0.04975896 0.27333190
v -0.07229446 -0.02086099 0.26716463
v -0.07185428 -0.00001163 0.27864721
v -0.07150283 -0.04256386 0.27338540
v -0.06835339 -0.02436638 0.26296686
v -0.07124632 -0.04783535 0.27343679
v -0.07177359 -0.02627531 0.27707714
v -0.07248881 -0.00767771 0.26370432
v -0.07230029 -0.01114841 0.26956613
v -0.07190180 -0.03530939 0.27003262
v -0.07172831 -0.04390514 0.26324285
v -0.07217337 -0.02045508 0.27074091
v -0.07140833 -0.03550433 0.27968801
v -0.07160162 -0.03183655 0.27813745
v -0.07226094 -0.01184864 0.27045038
v -0.07097192 -0.04663792 0.27997579
v -0.07170432 -0.03251042 0.27605504
v -0.07221994 -0.02994401 0.26354164
v -0.07235184 -0.00807105 0.26857386
v -0.07222858 -0.02895364 0.26430270
v -0.07139573 -0.04576634 0.27245168
v -0.06694592 -0.04989530 0.27706300
v -0.07221656 -0.02979053 0.26391205
v -0.07162054 -0.03551666 0.27613408
v -0.07221036 -0.02933405 0.26476823
v -0.07199511 -0.02971415 0.27133476
v -0.07099046 -0.04925886 0.27722562
v -0.06776600 -0.00038036 0.27967374
v -0.07135790 -0.04750052 0.26417818
v -0.07130661 -0.04665064 0.27355735
v -0.07141029 -0.03886791 0.27800737
v -0.07163159 -0.02352908 0.27987936
v -0.07234982 -0.00653319 0.26882815
v -0.07152986 -0.04698231 0.26305562
v -0.07189000 -0.01555941 0.27727871
v -0.06798166 -0.00010838 0.27662267
v -0.07162906 -0.02362772 0.27989726
v -0.07189388 -0.03887558 0.26600783
v -0.07216849 -0.02187449 0.27047891
v -0.07180847 -0.00293546 0.27920777
v -0.07145670 -0.04588209 0.27066709
v -0.07130398 -0.04709995 0.27303386
v -0.07132402 -0.04659776 0.27321213
v -0.07194107 -0.03882984 0.26375984
v -0.07188523 -0.02727532 0.27483344
v -0.06682546 -0.04965990 0.27940177
v -0.07168187 -0.01795008 0.28000868
v -0.07092257 -0.04801540 0.27964842
v -0.07229880 -0.01165856 0.26954488
v -0.07235122 -0.01212813 0.26802564
v -0.07034574 -0.04991384 0.27996953
v -0.07194858 -0.03120046 0.27159930
v -0.07216775 -0.02880534 0.26693722
v -0.07217715 -0.02868855 0.26670430
v -0.07234835 -0.01765907 0.26661658
v -0.07170174 -0.02774051 0.27788370
v -0.07211662 -0.03003413 0.26764529
v -0.07164012 -0.02246064 0.27995138
v -0.06959749 -0.04994184 0.27992426
v -0.07159852 -0.04571397 0.26553144
v -0.07249528 -0.00892722 0.26313301
v -0.07138139 -0.03793545 0.27896958
v -0.06784054 -0.00007969 0.27868296
v -0.07124440 -0.04043322 0.27982226
v -0.07183607 -0.03690602 0.27054342
v -0.07232265 -0.02060709 0.26637516
v -0.07236185 -0.00960750 0.26805511
v -0.07093840 -0.04733223 0.27995831
v -0.07160928 -0.04554143 0.26541755
v -0.07209158 -0.01945693 0.27292131
v -0.07210027 -0.01910579 0.27280537
v -0.07137467 -0.03687992 0.27959977
v -0.07231829 -0.02127128 0.26614265
v -0.06683945 -0.04981776 0.27899731
v -0.07182462 -0.02126652 0.27742440
v -0.07194499 -0.01426277 0.27655063
v -0.07204619 -0.03433263 0.26616148
v -0.07214317 -0.02333444 0.27057950
v -0.07146914 -0.04570912 0.27057945
v -0.07234836 -0.01160350 0.26818588
v -0.07191171 -0.03384098 0.27077015
v -0.07172935 -0.03665074 0.27336130
v -0.07156455 -0.03179854 0.27876234
v -0.07169737 -0.01805760 0.27977226
v -0.07226829 -0.01608968 0.26953504
v -0.07166970 -0.03420649 0.27586912
v -0.07223492 -0.02891051 0.26403493
v -0.06692767 -0.04944579 0.27975837
v -0.07224453 -0.02539287 0.26303516
v -0.06894062 -0.02576046 0.26297762
v -0.07181883 -0.03069093 0.27466022
v -0.07114880 -0.04208427 0.28001309
v -0.07168638 -0.03270212 0.27631020
v -0.07250092 -0.00575431 0.26351645
v -0.07190501 -0.03547106 0.26983397
v -0.07122009 -0.04827249 0.27346107
v -0.07109344 -0.04572524 0.27868188
v -0.07154702 -0.04650470 0.26604815
v -0.07141976 -0.04469140 0.27324289
v -0.06748520 -0.04761825 0.26553482
v -0.07150628 -0.03798609 0.27691619
v -0.07160825 -0.02484939 0.27995944
v -0.07187301 -0.03228835 0.27272354
v -0.07234669 -0.01096700 0.26832108
v -0.07194059 -0.01422912 0.27662153
v -0.07171450 -0.03349148 0.27534017
v -0.07153873 -0.04733013 0.26372884
v -0.07196654 -0.03769119 0.26468530
v -0.07171479 -0.03158795 0.27632199
v -0.07083519 -0.04928308 0.27990003
v -0.07171209 -0.00494114 0.26306914
v -0.07155941 -0.01909480 0.26302362
v -0.07183505 -0.03674665 0.27069624
v -0.07097297 -0.04939968 0.27738402
v -0.07217873 -0.01197698 0.27236255
v -0.07188544 -0.01012270 0.27782320
v -0.07168881 -0.03145943 0.27683891
v -0.07157226 -0.03558509 0.27692798
v -0.07167743 -0.01140650 0.28004225
v -0.07120980 -0.04100775 0.28000242
v -0.07163266 -0.03441430 0.27644633
v -0.07181449 -0.02761572 0.27602099
v -0.07196756 -0.00917125 0.27663280
v -0.06683567 -0.04981078 0.27907046
v -0.07195767 -0.03854593 0.26345681
v -0.07221028 -0.02023337 0.26991415
v -0.07179783 -0.03668596 0.27165905
v -0.07181244 -0.03741218 0.27070720
v -0.07097321 -0.04898958 0.27780478
v -0.07182124 -0.02488741 0.27662890
v -0.07160178 -0.03558382 0.27643337
v -0.07169349 -0.03285483 0.27609463
v -0.07248060 -0.01122629 0.26331623
v -0.07144672 -0.04430948 0.27299472
v -0.07193730 -0.03922282 0.26308591
v -0.07133936 -0.04783949 0.27094283
v -0.07201834 -0.03708755 0.26308398
v -0.06850661 -0.00531860 0.26328939
v -0.07178699 -0.02721980 0.27661894
v -0.07149830 -0.04757709 0.26530796
v -0.07213711 -0.03321414 0.26334806
v -0.07156115 -0.04646042 0.26534615
v -0.07204090 -0.03277733 0.26782228
v -0.07199709 -0.03730710 0.26379684
v -0.06850655 -0.04987076 0.27985802
v -0.07213470 -0.01415234 0.27301982
v -0.07130209 -0.04316933 0.27709501
v -0.07175070 -0.03563852 0.27348638
v -0.07218234 -0.01342749 0.27211007
v -0.07221579 -0.02046380 0.26970711
v -0.06752906 -0.04725637 0.26414246
v -0.07241597 -0.01191578 0.26569440
v -0.07222621 -0.02906519 0.26429394
v -0.07221359 -0.02153053 0.26931300
f 332 552 308
f 462 259 662
f 662 552 462
f 278 259 529
f 437 612 281
f 334 303 223
f 223 303 466
f 492 437 281
f 527 437 492
f 83 612 332
f 332 308 83
f 83 308 612
f 612 308 192
f 675 462 552
f 259 462 675
f 320 278 397
f 259 278 320
f 247 459 612
f 612 437 247
f 310 459 247
f 247 437 527
f 275 223 473
f 457 275 466
f 457 635 275
f 240 308 552
f 240 192 308
f 552 587 240
f 612 192 240
f 281 612 240
f 240 587 560
f 240 492 281
f 560 492 240
f 570 552 332
f 224 244 259
f 259 675 224
f 224 494 244
f 560 587 312
f 312 552 662
f 312 587 552
f 179 397 662
f 179 320 397
f 662 259 179
f 259 320 179
f 329 614 529
f 329 494 323
f 244 494 329
f 529 259 329
f 259 244 329
f 310 247 311
f 311 247 527
f 372 675 598
f 323 494 3
f 494 224 3
f 334 223 199
f 204 223 275
f 275 585 204
f 466 275 155
f 275 473 155
f 155 223 466
f 155 473 223
f 635 457 17
f 466 303 17
f 17 457 466
f 303 349 17
f 275 635 506
f 635 17 506
f 506 17 492
f 527 492 19
f 19 349 527
f 492 17 19
f 19 17 349
f 527 349 178
f 178 61 527
f 178 349 303
f 612 459 295
f 332 612 295
f 295 570 332
f 372 598 295
f 325 3 224
f 216 675 372
f 216 318 675
f 216 325 318
f 45 224 675
f 45 325 224
f 318 325 45
f 275 515 139
f 79 459 310
f 583 476 459
f 459 575 583
f 583 295 476
f 277 575 426
f 459 253 426
f 426 575 459
f 648 675 552
f 648 598 675
f 552 570 648
f 570 295 648
f 648 295 598
f 335 388 440
f 335 405 388
f 253 634 233
f 277 426 233
f 233 426 253
f 253 540 592
f 592 634 253
f 295 583 288
f 288 575 277
f 288 583 575
f 275 506 118
f 662 397 118
f 118 506 492
f 118 312 662
f 118 492 560
f 560 312 118
f 421 261 613
f 613 261 53
f 459 476 669
f 669 295 459
f 476 295 669
f 546 216 372
f 325 216 546
f 319 325 546
f 675 318 624
f 624 45 675
f 318 45 624
f 3 325 143
f 477 571 232
f 232 248 440
f 232 582 248
f 106 337 32
f 504 377 248
f 248 423 504
f 222 253 459
f 222 643 253
f 459 478 222
f 360 248 66
f 248 377 66
f 142 478 459
f 459 79 142
f 22 256 153
f 22 571 477
f 22 153 571
f 571 153 50
f 553 325 319
f 553 143 325
f 93 139 661
f 661 139 515
f 665 386 93
f 634 592 81
f 372 295 367
f 295 288 367
f 10 288 277
f 286 118 109
f 115 307 144
f 115 118 397
f 109 118 115
f 261 421 29
f 428 178 98
f 373 139 93
f 626 582 561
f 248 582 626
f 626 423 248
f 626 504 423
f 477 232 289
f 289 478 477
f 253 643 289
f 289 222 478
f 643 222 289
f 582 232 429
f 337 106 346
f 377 504 607
f 607 66 377
f 504 580 607
f 607 580 292
f 99 121 154
f 99 512 385
f 385 257 99
f 99 257 483
f 470 626 561
f 489 121 582
f 20 330 527
f 527 61 20
f 20 22 330
f 478 22 174
f 398 10 277
f 405 335 161
f 161 335 440
f 161 248 500
f 440 248 161
f 3 143 558
f 558 515 613
f 323 3 558
f 613 53 558
f 558 329 323
f 558 53 147
f 614 329 558
f 558 147 614
f 392 553 319
f 93 661 401
f 32 337 313
f 578 193 296
f 296 368 578
f 472 339 236
f 236 202 472
f 209 202 236
f 339 407 667
f 667 171 339
f 425 114 386
f 601 114 425
f 425 665 93
f 93 401 425
f 601 425 331
f 6 546 372
f 372 367 6
f 319 546 6
f 275 118 636
f 118 286 636
f 68 278 529
f 397 278 68
f 144 29 399
f 399 115 144
f 611 393 139
f 139 393 44
f 62 160 44
f 578 368 173
f 504 626 129
f 176 232 440
f 176 289 232
f 440 388 176
f 253 289 176
f 154 121 270
f 582 429 410
f 410 489 582
f 298 563 200
f 569 101 646
f 106 101 569
f 646 65 569
f 4 346 106
f 4 298 200
f 49 302 178
f 49 178 428
f 385 512 234
f 234 99 154
f 512 99 234
f 514 65 646
f 514 300 65
f 300 514 396
f 396 580 483
f 292 580 396
f 360 66 105
f 105 248 360
f 365 580 504
f 504 99 365
f 365 99 580
f 483 580 380
f 380 99 483
f 580 99 380
f 561 582 556
f 556 470 561
f 582 470 556
f 582 121 7
f 7 470 582
f 121 470 7
f 145 470 121
f 626 470 145
f 256 22 103
f 22 20 103
f 153 256 338
f 256 487 338
f 478 258 520
f 520 258 22
f 564 258 330
f 330 22 564
f 22 258 564
f 477 478 315
f 315 22 477
f 315 174 22
f 551 10 638
f 638 398 551
f 10 398 638
f 328 301 465
f 465 480 328
f 493 480 465
f 458 480 493
f 405 161 616
f 388 405 616
f 253 176 616
f 616 176 388
f 588 161 356
f 316 81 592
f 1 616 161
f 1 540 253
f 253 616 1
f 540 469 496
f 554 33 551
f 434 392 319
f 434 367 288
f 319 6 434
f 434 6 367
f 32 502 220
f 220 502 481
f 605 411 481
f 481 502 605
f 605 502 32
f 468 407 339
f 271 24 193
f 271 112 407
f 407 468 271
f 271 468 24
f 619 468 339
f 24 468 619
f 355 550 193
f 193 24 355
f 24 619 355
f 602 296 193
f 200 563 185
f 185 313 200
f 185 602 521
f 563 602 185
f 32 313 185
f 185 550 32
f 193 550 185
f 185 521 193
f 386 114 239
f 41 114 601
f 173 345 41
f 386 665 84
f 84 425 386
f 137 425 401
f 137 331 425
f 407 112 581
f 484 581 112
f 339 171 497
f 331 137 497
f 497 137 209
f 497 236 339
f 209 236 497
f 634 81 495
f 81 447 495
f 307 115 117
f 117 115 397
f 397 68 117
f 336 29 421
f 336 399 29
f 31 98 178
f 178 557 31
f 235 557 178
f 230 522 368
f 368 296 157
f 322 127 264
f 275 139 86
f 86 366 275
f 139 373 444
f 444 611 139
f 139 44 508
f 508 44 160
f 160 427 508
f 368 62 249
f 249 173 368
f 249 345 173
f 121 99 599
f 599 129 626
f 599 99 504
f 504 129 599
f 428 170 539
f 170 111 539
f 276 670 673
f 276 298 670
f 298 276 595
f 106 569 488
f 488 569 341
f 488 4 106
f 341 4 488
f 341 569 344
f 292 396 641
f 641 396 514
f 101 633 641
f 646 101 641
f 641 514 646
f 46 101 106
f 106 357 46
f 186 4 200
f 346 4 186
f 337 346 186
f 186 313 337
f 200 313 186
f 670 298 162
f 298 4 162
f 162 600 670
f 154 270 162
f 270 600 162
f 673 670 324
f 670 49 324
f 302 49 15
f 15 487 256
f 15 242 487
f 353 234 154
f 300 234 353
f 2 353 154
f 300 353 2
f 65 300 343
f 343 294 65
f 300 2 343
f 154 294 343
f 343 2 154
f 58 106 32
f 58 357 106
f 66 607 376
f 607 105 376
f 500 248 191
f 248 105 191
f 191 105 607
f 196 20 61
f 196 103 20
f 640 50 153
f 148 49 670
f 670 242 148
f 148 15 49
f 242 15 148
f 418 22 478
f 478 520 418
f 418 520 22
f 478 174 402
f 402 315 478
f 174 315 402
f 50 600 559
f 559 600 270
f 670 600 460
f 625 465 301
f 292 655 524
f 645 655 292
f 480 458 371
f 38 339 472
f 403 161 500
f 403 362 161
f 75 316 592
f 91 316 75
f 37 554 551
f 37 91 482
f 181 469 540
f 540 1 181
f 644 161 588
f 644 1 161
f 482 91 95
f 342 496 469
f 71 138 588
f 588 164 71
f 164 189 71
f 525 10 551
f 288 10 525
f 525 434 288
f 392 434 525
f 392 525 85
f 553 392 85
f 461 661 515
f 515 558 461
f 558 159 461
f 112 271 577
f 577 193 578
f 577 271 193
f 32 550 576
f 550 355 576
f 576 355 619
f 619 534 576
f 193 521 414
f 414 602 193
f 521 602 414
f 113 239 114
f 578 41 420
f 578 173 146
f 146 41 578
f 173 41 146
f 486 41 345
f 665 425 107
f 107 84 665
f 425 84 107
f 331 484 416
f 601 331 416
f 416 484 112
f 551 398 432
f 133 317 551
f 551 347 133
f 557 235 498
f 82 676 364
f 368 157 67
f 23 322 455
f 23 676 82
f 82 322 23
f 23 359 369
f 455 359 23
f 114 41 511
f 41 11 511
f 511 113 114
f 513 427 160
f 513 160 62
f 121 599 218
f 218 599 626
f 218 145 121
f 626 145 218
f 130 429 232
f 130 102 429
f 232 321 130
f 270 102 130
f 429 102 8
f 8 410 429
f 571 50 435
f 50 87 435
f 406 49 428
f 169 12 609
f 609 595 169
f 169 276 673
f 169 595 276
f 609 436 471
f 471 595 609
f 563 536 471
f 563 298 594
f 594 536 563
f 431 569 65
f 431 344 569
f 260 4 341
f 341 344 260
f 344 431 260
f 260 431 65
f 65 294 260
f 260 294 154
f 154 162 260
f 260 162 4
f 292 641 518
f 518 641 394
f 518 645 292
f 394 645 518
f 27 630 633
f 387 633 656
f 415 633 101
f 101 404 415
f 412 404 101
f 101 46 412
f 412 46 357
f 451 396 483
f 451 446 396
f 396 446 531
f 32 231 627
f 627 58 32
f 357 58 615
f 615 412 357
f 404 412 615
f 227 105 66
f 66 376 227
f 227 376 105
f 493 465 51
f 493 51 282
f 153 338 100
f 100 640 153
f 629 600 50
f 499 87 50
f 50 559 499
f 647 460 600
f 280 242 670
f 280 647 487
f 487 242 280
f 301 362 586
f 586 625 301
f 500 596 479
f 73 493 292
f 292 524 73
f 73 524 493
f 387 480 610
f 387 371 617
f 617 633 387
f 617 641 633
f 205 606 480
f 205 39 606
f 92 534 619
f 481 411 92
f 328 356 438
f 438 409 328
f 328 409 555
f 555 201 328
f 272 201 555
f 34 301 328
f 328 201 34
f 161 362 326
f 94 34 326
f 551 317 370
f 370 37 551
f 1 644 671
f 588 138 671
f 671 644 588
f 351 95 91
f 496 342 190
f 138 71 273
f 490 164 588
f 588 356 490
f 164 453 523
f 523 189 164
f 482 623 57
f 57 37 482
f 554 37 57
f 603 267 485
f 126 159 558
f 664 85 122
f 668 632 202
f 668 202 209
f 209 137 668
f 668 401 661
f 668 137 401
f 472 202 119
f 119 38 472
f 32 576 54
f 54 576 534
f 678 287 602
f 93 386 268
f 268 373 93
f 386 239 268
f 239 113 268
f 601 420 246
f 246 41 601
f 246 420 41
f 393 611 544
f 544 11 393
f 467 44 393
f 62 44 467
f 184 486 62
f 62 467 184
f 653 347 551
f 551 432 653
f 77 347 447
f 77 133 347
f 77 447 81
f 354 585 275
f 275 366 354
f 510 366 522
f 522 230 510
f 230 350 510
f 510 354 366
f 350 354 510
f 526 157 296
f 526 90 157
f 296 602 526
f 602 287 526
f 194 436 674
f 674 436 609
f 82 26 439
f 439 322 82
f 127 322 439
f 369 359 464
f 359 166 464
f 611 444 165
f 165 511 611
f 597 62 368
f 597 513 62
f 608 130 321
f 608 232 571
f 608 321 232
f 270 130 608
f 121 8 123
f 123 8 102
f 123 270 121
f 123 102 270
f 121 489 237
f 237 8 121
f 428 539 40
f 40 406 428
f 650 436 194
f 194 471 650
f 650 471 436
f 413 471 194
f 563 471 413
f 413 602 563
f 413 678 602
f 298 595 120
f 120 594 298
f 541 656 633
f 265 480 387
f 387 656 265
f 483 257 381
f 381 451 483
f 381 257 385
f 383 531 446
f 385 234 383
f 234 211 383
f 188 234 300
f 188 654 211
f 188 211 234
f 300 396 663
f 663 188 300
f 654 188 663
f 378 627 231
f 500 191 285
f 191 282 285
f 285 596 500
f 363 607 292
f 363 191 607
f 252 282 191
f 191 363 252
f 50 640 304
f 304 629 50
f 670 460 266
f 266 280 670
f 460 647 266
f 647 280 266
f 465 625 125
f 125 596 465
f 125 479 596
f 519 458 493
f 493 524 519
f 480 371 221
f 221 610 480
f 400 617 390
f 390 371 458
f 606 39 274
f 274 442 606
f 481 92 589
f 339 38 589
f 589 619 339
f 589 92 619
f 72 605 32
f 454 356 161
f 454 438 356
f 243 326 362
f 382 326 243
f 243 362 301
f 301 382 243
f 572 316 91
f 91 37 389
f 389 229 91
f 43 181 1
f 1 671 43
f 469 181 43
f 43 342 469
f 152 671 138
f 152 623 482
f 138 623 152
f 496 95 621
f 95 351 621
f 621 351 91
f 424 95 496
f 496 190 424
f 480 606 63
f 328 480 63
f 63 189 328
f 63 71 189
f 63 273 71
f 38 119 128
f 273 63 128
f 291 453 164
f 164 490 291
f 328 189 195
f 189 523 195
f 138 273 528
f 491 658 528
f 528 128 491
f 273 128 528
f 33 554 567
f 525 97 172
f 501 485 203
f 603 485 206
f 206 565 603
f 206 485 622
f 622 507 206
f 35 122 69
f 69 122 85
f 76 126 558
f 547 511 373
f 113 511 542
f 511 547 542
f 542 547 373
f 611 511 677
f 677 544 611
f 677 511 11
f 11 544 677
f 486 184 549
f 549 11 41
f 41 486 549
f 452 532 108
f 245 498 235
f 245 110 498
f 455 322 591
f 290 127 609
f 264 127 290
f 590 230 368
f 368 67 590
f 194 674 327
f 532 452 306
f 334 618 306
f 251 532 306
f 306 303 334
f 306 618 251
f 306 178 303
f 306 450 235
f 306 235 178
f 80 165 444
f 511 165 80
f 80 444 373
f 373 511 80
f 571 435 42
f 42 608 571
f 410 8 284
f 8 237 284
f 489 410 284
f 284 237 489
f 673 324 639
f 639 324 49
f 49 406 639
f 595 471 124
f 124 120 595
f 471 120 124
f 340 471 536
f 340 120 471
f 536 594 340
f 594 120 340
f 633 630 134
f 134 541 633
f 96 383 446
f 385 383 96
f 627 378 672
f 39 205 182
f 465 596 131
f 596 285 131
f 131 51 465
f 131 282 51
f 292 493 642
f 493 213 642
f 292 180 538
f 538 363 292
f 180 252 538
f 538 252 363
f 180 213 167
f 167 252 180
f 167 213 493
f 297 125 625
f 479 125 297
f 625 586 297
f 116 519 219
f 219 519 645
f 219 645 394
f 503 617 400
f 394 641 503
f 641 617 503
f 458 519 250
f 250 519 116
f 210 617 371
f 371 390 210
f 210 390 617
f 637 442 481
f 481 589 637
f 534 92 78
f 78 54 534
f 32 54 78
f 78 72 32
f 555 88 228
f 272 555 228
f 228 201 272
f 228 88 161
f 161 326 228
f 228 34 201
f 228 326 34
f 52 382 301
f 28 326 382
f 382 52 28
f 94 326 28
f 28 52 301
f 91 229 198
f 198 572 91
f 342 43 443
f 443 43 671
f 671 152 443
f 491 128 140
f 140 128 463
f 38 128 197
f 197 128 63
f 267 18 208
f 14 267 208
f 333 18 267
f 333 267 603
f 603 623 333
f 623 658 333
f 64 658 623
f 64 528 658
f 64 623 138
f 138 528 64
f 445 623 603
f 445 175 623
f 104 525 551
f 551 620 104
f 551 33 530
f 530 620 551
f 603 565 475
f 660 172 214
f 430 172 660
f 525 172 430
f 501 203 419
f 419 485 267
f 419 203 485
f 485 163 593
f 485 593 584
f 664 122 631
f 631 85 664
f 553 85 631
f 143 553 631
f 631 558 143
f 631 76 558
f 126 76 74
f 622 666 74
f 74 666 374
f 76 631 74
f 384 119 202
f 202 632 384
f 361 649 659
f 659 649 151
f 659 151 661
f 661 461 659
f 659 461 159
f 373 268 183
f 183 542 373
f 183 268 113
f 113 542 183
f 391 184 467
f 391 549 184
f 11 549 391
f 25 452 108
f 354 452 25
f 585 354 25
f 657 354 350
f 657 168 82
f 149 168 305
f 82 168 149
f 149 590 67
f 47 591 322
f 322 498 47
f 498 110 47
f 150 30 609
f 609 12 150
f 12 5 150
f 150 5 111
f 150 111 170
f 557 498 379
f 498 89 379
f 609 30 238
f 238 290 609
f 194 327 177
f 177 327 90
f 157 90 441
f 90 327 441
f 56 327 674
f 450 306 141
f 141 306 166
f 141 166 359
f 16 672 378
f 630 27 16
f 16 378 39
f 39 182 16
f 132 285 282
f 282 131 132
f 132 131 285
f 493 282 417
f 394 503 517
f 503 250 517
f 548 250 116
f 548 517 250
f 652 589 38
f 63 474 309
f 309 197 63
f 212 333 658
f 18 333 212
f 136 187 545
f 545 187 175
f 175 445 545
f 136 567 262
f 262 187 136
f 175 187 262
f 554 57 262
f 262 567 554
f 262 57 623
f 623 175 262
f 358 97 525
f 525 104 358
f 603 475 505
f 505 475 567
f 505 36 603
f 33 567 566
f 567 475 566
f 225 507 660
f 660 214 225
f 226 584 158
f 226 158 159
f 622 74 254
f 254 122 35
f 254 631 122
f 35 507 254
f 254 507 622
f 283 293 119
f 119 384 283
f 13 293 48
f 48 361 13
f 119 293 13
f 119 13 135
f 135 13 659
f 159 299 135
f 135 659 159
f 207 21 163
f 207 485 501
f 207 163 485
f 501 419 207
f 419 21 207
f 59 657 350
f 168 657 59
f 82 364 509
f 509 657 82
f 456 149 305
f 590 149 456
f 628 604 217
f 89 604 628
f 217 604 574
f 574 290 217
f 264 290 574
f 30 150 533
f 422 379 269
f 448 56 674
f 630 16 395
f 395 16 182
f 537 167 493
f 493 417 537
f 252 167 537
f 282 252 537
f 537 417 282
f 442 637 651
f 651 375 442
f 637 375 651
f 70 652 474
f 589 652 70
f 70 375 637
f 70 474 63
f 55 445 603
f 55 545 445
f 603 36 55
f 433 475 206
f 433 566 475
f 433 206 507
f 507 566 433
f 279 566 507
f 507 225 279
f 485 584 263
f 314 74 631
f 631 254 314
f 314 254 74
f 156 74 374
f 159 126 156
f 156 226 159
f 361 659 568
f 568 13 361
f 659 13 568
f 535 255 241
f 299 255 535
f 535 135 299
f 119 135 535
f 543 379 89
f 89 628 543
f 573 533 269
f 30 533 573
f 269 379 573
f 557 379 215
f 379 422 215
f 56 448 579
f 579 26 82
f 9 637 589
f 589 70 9
f 9 70 637
f 375 70 408
f 606 442 408
f 442 375 408
f 408 63 606
f 408 70 63
f 584 226 348
f 348 263 584
f 449 156 374
f 226 156 449
f 352 535 241
f 241 163 352
f 163 21 352
f 60 579 82
f 56 579 60
f 516 21 419
f 516 352 21
f 516 419 267
f 516 267 14
f 535 352 516
f 562 516 14
f 14 463 562
f 119 535 562
f 535 516 562
f 463 128 562
f 562 128 119
f 29 307 529
f 529 614 29
f 29 53 261
f 147 53 29
f 614 147 29
f 144 307 29
f 527 330 258
f 258 311 527
f 258 142 79
f 478 142 258
f 310 311 258
f 258 79 310
f 199 251 618
f 334 199 618
f 497 484 331
f 171 667 497
f 497 667 407
f 407 581 497
f 581 484 497
f 529 307 117
f 117 68 529
f 336 515 275
f 336 421 613
f 613 515 336
f 109 115 336
f 336 286 109
f 275 636 336
f 336 636 286
f 115 399 336
f 178 302 196
f 302 15 196
f 196 15 256
f 256 103 196
f 61 178 196
f 345 249 486
f 486 249 62
f 578 420 416
f 416 577 578
f 112 577 416
f 416 420 601
f 634 495 653
f 653 398 277
f 653 432 398
f 653 233 634
f 277 233 653
f 653 495 447
f 447 347 653
f 139 508 597
f 597 86 139
f 427 513 597
f 366 86 597
f 597 508 427
f 522 366 597
f 368 522 597
f 211 654 663
f 663 383 211
f 396 531 663
f 531 383 663
f 304 338 487
f 640 100 304
f 600 629 304
f 304 100 338
f 487 647 304
f 304 647 600
f 655 645 519
f 519 524 655
f 387 610 221
f 221 371 387
f 274 231 32
f 32 220 274
f 274 220 481
f 481 442 274
f 274 378 231
f 39 378 274
f 409 438 88
f 88 454 161
f 88 555 409
f 438 454 88
f 621 75 592
f 621 592 540
f 91 75 621
f 540 496 621
f 195 490 356
f 195 356 328
f 453 291 195
f 195 523 453
f 195 291 490
f 42 435 87
f 87 499 42
f 42 559 270
f 42 499 559
f 270 608 42
f 12 169 639
f 639 5 12
f 639 169 673
f 639 539 111
f 639 40 539
f 406 40 639
f 111 5 639
f 446 451 96
f 96 381 385
f 451 381 96
f 642 213 180
f 642 180 292
f 500 479 297
f 297 403 500
f 297 586 362
f 362 403 297
f 400 390 250
f 250 390 458
f 250 503 400
f 411 605 78
f 78 92 411
f 605 72 78
f 301 34 28
f 28 34 94
f 81 316 198
f 198 370 317
f 198 77 81
f 317 133 198
f 37 370 198
f 316 572 198
f 133 77 198
f 198 389 37
f 229 389 198
f 443 152 482
f 482 95 443
f 443 190 342
f 95 424 443
f 443 424 190
f 565 206 475
f 660 507 430
f 430 507 35
f 35 69 430
f 430 69 85
f 430 85 525
f 584 163 241
f 584 299 159
f 159 158 584
f 241 255 584
f 584 255 299
f 584 593 163
f 391 467 393
f 393 11 391
f 25 251 199
f 25 199 223
f 25 204 585
f 223 204 25
f 25 532 251
f 108 532 25
f 177 413 194
f 678 413 177
f 177 526 287
f 287 678 177
f 90 526 177
f 141 359 455
f 141 245 235
f 235 450 141
f 141 47 110
f 110 245 141
f 455 591 141
f 591 47 141
f 16 415 404
f 16 615 58
f 404 615 16
f 16 27 633
f 633 415 16
f 627 672 16
f 58 627 16
f 394 517 548
f 548 219 394
f 116 219 548
f 474 652 309
f 309 652 38
f 38 197 309
f 212 463 14
f 212 658 491
f 212 208 18
f 212 140 463
f 491 140 212
f 14 208 212
f 283 361 48
f 283 668 661
f 661 151 283
f 283 384 632
f 151 649 283
f 632 668 283
f 283 649 361
f 48 293 283
f 509 306 452
f 354 657 509
f 166 306 509
f 676 23 509
f 509 364 676
f 369 464 509
f 509 23 369
f 509 452 354
f 509 464 166
f 456 59 350
f 456 350 230
f 305 168 456
f 230 590 456
f 168 59 456
f 574 498 322
f 574 322 264
f 574 89 498
f 574 604 89
f 395 265 656
f 480 265 395
f 656 541 395
f 395 205 480
f 395 134 630
f 395 182 205
f 541 134 395
f 55 505 567
f 36 505 55
f 136 545 55
f 55 567 136
f 279 214 172
f 279 358 104
f 279 104 620
f 97 358 279
f 279 172 97
f 279 225 214
f 620 530 279
f 33 566 279
f 279 530 33
f 126 74 156
f 379 543 573
f 573 628 217
f 217 290 573
f 573 238 30
f 290 238 573
f 573 543 628
f 428 98 215
f 215 170 428
f 215 31 557
f 98 31 215
f 269 533 215
f 215 150 170
f 215 533 150
f 215 422 269
f 609 127 579
f 579 674 609
f 127 439 579
f 579 448 674
f 579 439 26
f 449 666 622
f 622 485 449
f 374 666 449
f 449 348 226
f 485 263 449
f 263 348 449
f 157 441 60
f 82 149 60
f 60 67 157
f 60 149 67
f 60 441 327
f 327 56 60

