# https://github.com/mikedh/trimesh
v 0.04697742 -0.10004589 0.24612045
v 0.03778501 -0.10222526 0.24903660
v 0.04439490 -0.10217686 0.24879875
v 0.04879162 -0.10028029 0.20034825
v 0.04679511 -0.10000268 0.23162870
v 0.04991960 -0.10234691 0.23641251
v 0.00037743 -0.10739771 0.21859796
v 0.04948532 -0.10246819 0.24456794
v 0.04977958 -0.10019029 0.20630543
v 0.01180385 -0.10001687 0.24433209
v 0.01609975 -0.10690788 0.21995602
v 0.04697924 -0.10260252 0.24619675
v 0.00298854 -0.10000322 0.21884838
v 0.04699356 -0.10004338 0.24486007
v 0.00054011 -0.10252733 0.21317870
v 0.00232791 -0.10029109 0.24338215
v 0.01674506 -0.10186272 0.20010787
v 0.00966867 -0.10193701 0.20135786
v 0.04858555 -0.10275413 0.22658366
v 0.04825705 -0.10199541 0.21494058
v 0.00706340 -0.10755416 0.21804775
v 0.04900746 -0.10297731 0.24096152
v 0.04888292 -0.10233278 0.24735867
v 0.04983889 -0.10105449 0.24866203
v 0.03222986 -0.10172806 0.20048192
v 0.01096273 -0.10728319 0.21899018
v 0.00216476 -0.10008959 0.22038602
v 0.04072554 -0.10212754 0.24923167
v 0.04606418 -0.10147918 0.20172132
v 0.00192440 -0.10208501 0.20411479
v 0.00005409 -0.10179486 0.23813902
v 0.00089226 -0.10077041 0.24171141
v 0.04810294 -0.10237069 0.21917457
v 0.04969555 -0.10100772 0.21420791
v 0.04842387 -0.10310001 0.23768527
v 0.04760337 -0.10208124 0.24891696
v 0.04775554 -0.10174812 0.20897182
v 0.04944614 -0.10247736 0.24511977
v 0.04864792 -0.10301175 0.23254103
v 0.04935427 -0.10292824 0.23674376
v 0.04513004 -0.10030749 0.20094238
f 7 2 31
f 21 2 7
f 15 7 31
f 30 7 15
f 18 7 30
f 18 17 21
f 21 7 18
f 12 2 21
f 2 10 16
f 31 2 32
f 2 16 32
f 17 18 41
f 41 4 17
f 6 40 34
f 35 40 22
f 22 40 38
f 37 29 4
f 17 4 25
f 4 29 25
f 21 17 25
f 25 29 21
f 10 24 1
f 5 10 1
f 1 14 5
f 4 41 13
f 13 10 5
f 13 16 10
f 13 41 18
f 13 18 30
f 19 34 40
f 33 37 19
f 9 34 4
f 9 24 6
f 6 34 9
f 9 1 24
f 9 13 5
f 4 13 9
f 5 14 9
f 14 1 9
f 2 12 3
f 12 36 3
f 28 36 24
f 28 10 2
f 28 24 10
f 2 3 28
f 28 3 36
f 6 24 8
f 24 38 8
f 8 40 6
f 8 38 40
f 23 36 12
f 23 12 22
f 22 38 23
f 24 36 23
f 23 38 24
f 27 32 16
f 16 13 27
f 27 15 31
f 31 32 27
f 30 15 27
f 27 13 30
f 40 35 39
f 39 19 40
f 34 19 20
f 20 19 37
f 4 34 20
f 20 37 4
f 19 39 11
f 33 19 11
f 11 39 35
f 11 37 33
f 11 35 22
f 21 29 11
f 29 37 11
f 22 12 11
f 26 12 21
f 21 11 26
f 26 11 12

