# https://github.com/mikedh/trimesh
v -0.00078424 0.05072331 0.49928280
v -0.02123713 0.05306181 0.48379609
v -0.02738374 0.05296759 0.47380448
v -0.00031856 0.05578838 0.47403907
v -0.02013607 0.05316637 0.48419318
v -0.01419821 0.05312412 0.48823420
v -0.03715915 0.05007481 0.48025502
v -0.01960558 0.05181648 0.49075406
v -0.00732185 0.05145067 0.49636042
v -0.00137151 0.05242421 0.49449710
v -0.02226243 0.05268902 0.48504579
v -0.02138259 0.05399929 0.47219120
v -0.02338374 0.05056240 0.49284978
v -0.01716393 0.05077864 0.49526574
v -0.01741004 0.05196537 0.49140525
v -0.02619784 0.05209866 0.48460601
v -0.03816297 0.05004198 0.47819870
v -0.01133023 0.05198373 0.49372130
v -0.00903822 0.05005922 0.46336893
v -0.01432704 0.05483956 0.47236305
v -0.00112584 0.05568137 0.47020804
v -0.01051380 0.05467186 0.48056431
v -0.01529486 0.05475559 0.47156930
v -0.01158472 0.05493140 0.47638913
v -0.03127489 0.05126725 0.48303510
v -0.00827803 0.05517606 0.47019397
v -0.01385851 0.05259786 0.49068689
v -0.00009712 0.05185586 0.49638611
v -0.02660652 0.05051667 0.46407196
v -0.00697870 0.05475975 0.46747295
v -0.00082777 0.05394783 0.48889133
v -0.02596164 0.05320659 0.47395905
v -0.00450090 0.05560112 0.47331382
v -0.01564646 0.05413563 0.48107062
v -0.00290736 0.05026614 0.46312356
v -0.03003065 0.05250524 0.47271183
v -0.00093339 0.05506510 0.48220226
v -0.02200249 0.05375575 0.47579271
v -0.03097433 0.05045415 0.46637972
v -0.00894688 0.05005434 0.49952569
v -0.03301739 0.05171944 0.47531073
v -0.00230761 0.05569259 0.47409471
v -0.00452686 0.05410059 0.46319810
v -0.01534976 0.05471616 0.47292383
v -0.01978861 0.05398018 0.47713735
v -0.00855517 0.05367598 0.48800066
v -0.01699153 0.05413783 0.47957433
v -0.02767527 0.05231331 0.48126882
v -0.01496568 0.05387691 0.48372737
v -0.00835464 0.05117666 0.49687608
v -0.00724205 0.05488616 0.46821694
v -0.03383817 0.05162163 0.47225626
v -0.02998655 0.05214107 0.47852167
v -0.03911595 0.05018661 0.47278051
v -0.00021681 0.05303365 0.49259927
v -0.00013198 0.05438815 0.46316983
v -0.01466057 0.05288239 0.46359395
v -0.01080708 0.05444861 0.48231276
v -0.01259811 0.05271956 0.49068446
v -0.00033401 0.05487415 0.48389849
v -0.01633434 0.05456926 0.47380952
v -0.00355632 0.05566573 0.47284604
v -0.02373967 0.05080511 0.49186493
v -0.01936133 0.05197763 0.49030497
v -0.00870135 0.05376367 0.46340472
v -0.00562331 0.05368341 0.46323226
v -0.01561872 0.05393990 0.48269458
v -0.00235140 0.05311734 0.49200064
v -0.02990077 0.05242286 0.47486521
v -0.03839622 0.05032478 0.47417652
v -0.02421278 0.05356998 0.47202649
v -0.02083785 0.05405834 0.47251667
v -0.03644354 0.05079025 0.47551931
v -0.03151211 0.05203152 0.47175857
v -0.00492740 0.05376953 0.48868252
v -0.00063571 0.05116115 0.49816876
v -0.02762371 0.05268680 0.47813202
v -0.03307288 0.05008627 0.48643137
v -0.01337633 0.05216960 0.49233732
v -0.00534433 0.05558904 0.47176363
v -0.02071975 0.05356372 0.48060989
v -0.02975586 0.05249768 0.47409890
v -0.01077459 0.05195888 0.49394138
v -0.00632072 0.05341505 0.48984453
v -0.01645251 0.05300279 0.48759769
v -0.01313827 0.05264215 0.49080780
v -0.03852784 0.05028340 0.47419694
v -0.02825259 0.05262937 0.47703426
v -0.03490162 0.05032706 0.48277345
v -0.01659502 0.05110698 0.49450202
v -0.00119562 0.05476451 0.48440315
v -0.00417441 0.05559230 0.47079932
v -0.02896357 0.05038640 0.48943164
v -0.01069893 0.05484319 0.47884940
v -0.01600467 0.05452123 0.47604256
v -0.03655089 0.05048931 0.47116433
v -0.02429182 0.05081777 0.49146466
v -0.01693813 0.05365635 0.48358863
v -0.00158085 0.05160002 0.49692667
v -0.03265611 0.05119968 0.48125348
v -0.01651872 0.05002140 0.49745614
v -0.00136509 0.05481165 0.46573125
v -0.01605551 0.05429709 0.47903771
v -0.01952018 0.05424451 0.47198659
v -0.03100561 0.05012782 0.48845477
v -0.00201049 0.05344040 0.46308766
v -0.03065964 0.05022578 0.48847602
v -0.00222358 0.05102398 0.49831888
v -0.01247075 0.05295414 0.48970014
v -0.00633782 0.05445576 0.46568100
v -0.00852738 0.05324513 0.48996190
v -0.03268803 0.05138025 0.47995274
v -0.01018490 0.05523264 0.47165328
v -0.01256192 0.05463410 0.47917074
v -0.01821332 0.05187839 0.49134580
v -0.02429180 0.05350019 0.47383065
v -0.00045549 0.05554717 0.46932576
v -0.03529974 0.05114777 0.47498306
v -0.00937729 0.05405046 0.48576928
v -0.01500466 0.05409339 0.48193162
v -0.00234296 0.05410483 0.48776444
v -0.02379862 0.05359219 0.47352822
v -0.00216569 0.05208153 0.49546810
v -0.00087316 0.05055206 0.49971623
v -0.00576207 0.05490324 0.48132797
v -0.00012644 0.05513134 0.48197528
v -0.01287557 0.05332665 0.46360977
v -0.02138502 0.05343945 0.48101340
v -0.00577225 0.05083138 0.49829992
v -0.00792374 0.05245641 0.49314490
v -0.00715705 0.05313496 0.49077416
v -0.00132968 0.05236267 0.49471046
v -0.00580715 0.05508474 0.46870822
v -0.00773802 0.05416823 0.48573405
v -0.00077111 0.05575456 0.47048623
v -0.01822894 0.05423466 0.47633947
v -0.01243254 0.05071828 0.49701787
v -0.03325241 0.05091747 0.48200304
v -0.01545033 0.05411455 0.48140361
v -0.02144340 0.05384395 0.47125461
v -0.02155281 0.05376644 0.47676041
v -0.01564552 0.05424588 0.48012855
v -0.01736673 0.05253383 0.46370226
v -0.02640394 0.05102178 0.48921698
v -0.02302111 0.05182174 0.48860902
v -0.00476080 0.05504010 0.46810777
v -0.00916201 0.05532810 0.47157966
v -0.02773656 0.05286110 0.47177469
v -0.01778015 0.05180293 0.49179106
v -0.00097158 0.05443982 0.48625489
v -0.02185812 0.05389153 0.47323988
v -0.00626114 0.05542852 0.47066504
v -0.02203901 0.05361532 0.47805720
v -0.02896409 0.05190152 0.48226826
v -0.00545048 0.05424626 0.46428275
v -0.02842607 0.05282814 0.47245597
v -0.00738572 0.05399477 0.46380307
v -0.01900835 0.05246339 0.48858604
v -0.00307154 0.05572251 0.47165968
v -0.00201183 0.05391746 0.48877784
v -0.02361784 0.05157944 0.46429612
v -0.03386756 0.05138547 0.47680954
v -0.01134340 0.05477084 0.47896087
v -0.00238459 0.05035854 0.49998559
v -0.00135914 0.05409078 0.48803060
v -0.02917573 0.05042184 0.46488434
v -0.01419639 0.05471243 0.47588323
v -0.00053906 0.05565381 0.46990424
v -0.00021222 0.05348549 0.49081352
v -0.01075174 0.05508721 0.47503075
v -0.01252400 0.05422584 0.48282344
v -0.00827505 0.05124704 0.49670265
v -0.02805412 0.05262565 0.47771516
v -0.00753263 0.05452355 0.46651946
v -0.01559752 0.05472838 0.47184721
v -0.00180318 0.05480345 0.46584034
v -0.01213295 0.05098293 0.49639769
v -0.02263553 0.05022965 0.49415666
v -0.00728466 0.05546563 0.47225403
v -0.01133611 0.05378970 0.48624934
v -0.00662421 0.05206027 0.49469217
v -0.02175720 0.05392815 0.47272877
v -0.00681424 0.05268571 0.49261403
v -0.02826820 0.05282750 0.47352344
v -0.02323383 0.05082013 0.49211693
v -0.01479061 0.05334847 0.48689255
v -0.00047779 0.05438721 0.46324704
v -0.02417989 0.05037362 0.49291725
v -0.01810913 0.05279007 0.48763087
v -0.03603394 0.05101495 0.47223452
v -0.00654587 0.05162026 0.49607011
v -0.03100349 0.05091330 0.48526137
v -0.03194284 0.05209072 0.47264689
v -0.02197766 0.05095533 0.49237232
v -0.00004334 0.05581376 0.47354032
v -0.03311644 0.05146167 0.47831594
v -0.01854515 0.05194982 0.49088888
v -0.01496419 0.05370348 0.48475499
v -0.02532624 0.05150376 0.46525277
v -0.00125800 0.05581213 0.47093945
v -0.00447131 0.05115626 0.49765224
v -0.03589346 0.05062720 0.47875539
v -0.00101308 0.05038063 0.46304774
v -0.00893042 0.05524271 0.47468265
v -0.00764189 0.05369316 0.46331306
v -0.00466490 0.05167515 0.49625742
v -0.00129949 0.05205173 0.49569483
v -0.03423387 0.05141825 0.47196422
v -0.02609177 0.05123429 0.46497009
v -0.00513825 0.05551450 0.47453963
v -0.03138809 0.05065167 0.48609631
v -0.01029040 0.05039421 0.49842020
v -0.01637142 0.05435253 0.47787795
v -0.01488318 0.05476847 0.47282756
v -0.00062036 0.05576591 0.47443006
v -0.00175884 0.05428133 0.46310947
v -0.01762594 0.05114587 0.49396481
v -0.01783449 0.05266751 0.46416843
v -0.02961108 0.05012152 0.48986364
v -0.02071737 0.05240761 0.48768110
v -0.01233207 0.05045745 0.49774698
v -0.02236788 0.05277217 0.48445030
v -0.01579398 0.05374125 0.48394795
v -0.01365076 0.05016250 0.49805604
v -0.02962818 0.05105699 0.48611122
v -0.02445242 0.05137677 0.48940333
v -0.02499782 0.05337826 0.47384222
v -0.02407205 0.05295206 0.48136982
v -0.03170509 0.05109651 0.46893360
v -0.01884892 0.05110390 0.49348529
v -0.02181384 0.05375820 0.47623734
v -0.00869309 0.05354143 0.48858488
v -0.03576252 0.05016662 0.46960659
v -0.00066740 0.05160259 0.46303049
v -0.01991449 0.05226331 0.48885068
v -0.01727299 0.05439142 0.47547091
v -0.01943212 0.05264942 0.46509648
v -0.02485972 0.05211087 0.48580500
v -0.00167283 0.05577582 0.47250518
v -0.00090715 0.05164943 0.49689382
v -0.00005810 0.05286545 0.49323651
v -0.00100359 0.05570651 0.47534598
v -0.03841745 0.05023351 0.47556921
v -0.03543331 0.05123401 0.47302016
v -0.03265852 0.05119399 0.48128771
v -0.03056313 0.05199729 0.47868766
v -0.02092588 0.05321893 0.48307791
v -0.00407774 0.05119761 0.49760296
v -0.03111184 0.05068463 0.48629904
v -0.01229792 0.05494718 0.47502260
v -0.01947563 0.05148001 0.49202542
v -0.02666748 0.05303236 0.47498090
v -0.02740822 0.05173737 0.48511792
v -0.00446669 0.05504116 0.48083826
v -0.01975408 0.05305505 0.48511871
v -0.02423724 0.05047744 0.49261332
v -0.00968596 0.05439464 0.48339074
v -0.01362464 0.05033777 0.49762332
v -0.00062516 0.05524613 0.48090781
v -0.03147274 0.05220713 0.47236694
v -0.00167579 0.05382325 0.48924412
v -0.00100203 0.05567240 0.47580229
v -0.02581096 0.05315467 0.47150020
v -0.00340115 0.05568262 0.47254595
v -0.00845923 0.05389813 0.48692965
v -0.02318740 0.05312133 0.48118655
v -0.03728155 0.05070840 0.47329548
v -0.00664049 0.05547973 0.47320765
v -0.02114822 0.05018439 0.46385356
v -0.00031406 0.05575077 0.47508920
v -0.02775432 0.05261002 0.47860539
v -0.02378078 0.05351692 0.47507239
v -0.00169571 0.05319885 0.49181306
v -0.00719400 0.05516487 0.47748595
v -0.03054641 0.05201468 0.47855542
v -0.02972900 0.05255675 0.47300098
v -0.03624419 0.05044701 0.47950643
v -0.00437800 0.05565029 0.47152848
v -0.00065390 0.05282882 0.46302976
v -0.02349093 0.05255835 0.48459592
v -0.03054966 0.05240738 0.47239065
v -0.03799160 0.05011529 0.47796625
v -0.01493359 0.05460720 0.47633391
v -0.01575469 0.05463999 0.47376305
v -0.03852880 0.05001021 0.47733893
v -0.01042439 0.05050913 0.49811728
v -0.00043344 0.05577565 0.47430648
v -0.01359219 0.05162922 0.49407826
v -0.03781759 0.05059321 0.47260606
v -0.00045730 0.05172433 0.49673486
v -0.00093566 0.05532254 0.46826070
v -0.01143322 0.05503804 0.47463660
v -0.02610344 0.05007408 0.49253282
v -0.02757899 0.05296934 0.47298899
v -0.00388741 0.05561083 0.47404256
v -0.01699044 0.05444222 0.47506330
v -0.00123749 0.05543431 0.47874717
v -0.01517617 0.05133810 0.49435499
v -0.00697458 0.05245750 0.49337652
v -0.01483986 0.05361511 0.48534632
v -0.01301816 0.05491885 0.47388418
v -0.02032757 0.05029966 0.49511892
v -0.02014396 0.05268835 0.48678276
v -0.01347142 0.05310394 0.48864358
v -0.03638277 0.05029066 0.47046376
v -0.02554228 0.05184385 0.48654011
v -0.00078908 0.05174226 0.49666406
v -0.00880870 0.05525320 0.47465402
v -0.03002782 0.05251032 0.47259123
v -0.03772210 0.05057815 0.47336272
v -0.01305694 0.05352211 0.48689537
v -0.03463089 0.05004391 0.48446967
v -0.00247464 0.05158285 0.49683942
v -0.00021221 0.05182838 0.49645858
v -0.00074531 0.05476386 0.48457467
v -0.03371304 0.05003667 0.46763119
v -0.02421219 0.05330474 0.47758794
v -0.03327927 0.05171769 0.47429450
v -0.00118317 0.05531709 0.48012058
v -0.00343627 0.05479260 0.46635039
v -0.02602388 0.05250872 0.48220134
v -0.01522906 0.05476819 0.47159787
v -0.01786060 0.05396518 0.48028766
v -0.01353979 0.05316989 0.48831792
v -0.02988731 0.05028081 0.46501895
v -0.00592318 0.05550794 0.47378840
v -0.03086571 0.05151173 0.48203646
v -0.02706140 0.05249450 0.46998300
v -0.03315370 0.05064999 0.48360119
v -0.02374413 0.05357323 0.47416033
v -0.00978781 0.05062018 0.49799190
v -0.02748208 0.05250975 0.47996908
v -0.01704897 0.05405825 0.48032967
v -0.01852592 0.05014381 0.49628532
v -0.02994607 0.05250715 0.47305206
v -0.01911415 0.05041434 0.49539720
v -0.01960279 0.05242539 0.46437333
v -0.00597870 0.05080180 0.49833179
v -0.01142745 0.05056249 0.49776147
v -0.00753111 0.05292660 0.49151698
v -0.00768289 0.05535088 0.47434780
f 164 35 203
f 234 203 35
f 35 19 234
f 279 56 234
f 164 203 124
f 279 234 29
f 19 285 316
f 316 285 54
f 325 29 269
f 19 316 269
f 269 316 325
f 269 234 19
f 269 29 234
f 54 285 243
f 195 56 117
f 40 35 164
f 40 19 35
f 86 79 18
f 164 124 129
f 279 29 143
f 161 143 29
f 337 143 161
f 52 244 260
f 216 56 279
f 173 69 41
f 56 135 168
f 168 117 56
f 168 135 195
f 195 117 168
f 195 135 200
f 239 215 195
f 195 200 239
f 239 200 159
f 127 140 23
f 23 322 157
f 130 86 18
f 181 130 191
f 299 130 181
f 235 64 158
f 158 189 303
f 124 240 108
f 108 129 124
f 132 299 123
f 299 181 123
f 191 129 206
f 206 129 201
f 206 181 191
f 206 123 181
f 338 40 164
f 164 129 338
f 331 40 338
f 50 129 191
f 50 339 331
f 263 337 148
f 148 71 263
f 127 143 218
f 218 143 337
f 157 43 65
f 127 23 65
f 65 23 157
f 166 29 325
f 166 161 29
f 337 263 237
f 237 263 71
f 237 218 337
f 127 218 237
f 237 71 140
f 237 140 127
f 325 316 233
f 233 316 54
f 39 166 325
f 325 233 39
f 289 244 52
f 148 337 328
f 337 161 199
f 199 328 337
f 156 71 148
f 41 69 82
f 82 318 41
f 152 51 26
f 157 322 174
f 174 51 157
f 322 26 174
f 174 26 51
f 56 216 187
f 187 216 102
f 187 135 56
f 133 51 152
f 311 232 46
f 180 49 311
f 311 119 180
f 180 119 49
f 49 119 257
f 257 125 58
f 91 125 257
f 220 158 303
f 235 158 220
f 266 228 128
f 321 228 332
f 332 48 321
f 321 2 247
f 247 228 321
f 128 228 247
f 2 5 247
f 228 266 77
f 77 266 128
f 271 332 77
f 77 332 228
f 77 252 184
f 103 94 213
f 41 318 118
f 118 318 244
f 135 187 291
f 291 187 102
f 195 215 4
f 215 287 4
f 259 60 126
f 286 40 331
f 331 339 286
f 137 339 177
f 177 14 137
f 101 285 19
f 19 40 101
f 18 191 83
f 83 130 18
f 191 130 83
f 232 304 111
f 8 64 226
f 226 64 145
f 145 64 235
f 235 220 145
f 145 306 226
f 220 306 145
f 197 158 64
f 197 8 115
f 64 8 197
f 324 232 311
f 324 304 232
f 99 108 240
f 1 124 28
f 28 124 203
f 203 234 28
f 28 234 56
f 307 99 240
f 177 339 172
f 339 50 172
f 18 177 172
f 43 216 106
f 106 216 279
f 57 143 127
f 127 65 57
f 279 143 57
f 57 205 279
f 57 65 43
f 43 205 57
f 190 39 96
f 190 289 52
f 96 289 190
f 96 39 305
f 305 39 233
f 305 289 96
f 305 233 54
f 54 289 305
f 54 243 87
f 328 199 74
f 74 260 148
f 148 328 74
f 52 260 74
f 52 74 209
f 209 74 199
f 166 39 209
f 161 166 209
f 209 199 161
f 294 156 184
f 71 156 294
f 294 116 71
f 184 227 294
f 227 116 294
f 193 260 244
f 244 318 193
f 193 82 260
f 318 82 193
f 69 173 88
f 88 82 69
f 184 82 88
f 88 77 184
f 173 77 88
f 155 43 157
f 157 110 155
f 157 51 30
f 30 110 157
f 102 216 176
f 216 133 320
f 320 176 216
f 219 78 293
f 219 105 78
f 103 213 47
f 103 47 142
f 319 94 254
f 254 125 91
f 297 94 319
f 315 60 91
f 265 119 311
f 311 46 265
f 78 89 312
f 293 78 312
f 312 101 293
f 285 101 312
f 32 227 184
f 32 116 227
f 252 116 32
f 283 213 94
f 95 213 283
f 136 213 95
f 95 236 136
f 21 200 135
f 135 291 21
f 179 170 268
f 264 239 159
f 212 339 40
f 40 286 212
f 212 286 339
f 14 90 217
f 256 219 293
f 97 219 256
f 40 339 224
f 224 101 40
f 86 130 340
f 59 304 86
f 86 340 59
f 59 340 111
f 10 299 132
f 10 68 299
f 185 8 226
f 189 158 85
f 304 324 6
f 6 324 311
f 108 99 248
f 201 129 248
f 129 108 248
f 1 28 76
f 76 28 290
f 60 315 31
f 241 10 132
f 273 68 241
f 68 10 241
f 195 126 241
f 241 56 195
f 241 28 56
f 123 206 207
f 206 307 207
f 132 123 207
f 207 241 132
f 28 241 207
f 314 307 290
f 290 28 314
f 28 207 314
f 314 207 307
f 313 307 206
f 99 307 313
f 313 206 201
f 9 50 191
f 9 172 50
f 9 191 18
f 18 172 9
f 71 116 122
f 317 116 252
f 252 77 317
f 128 153 317
f 317 77 128
f 66 205 43
f 43 106 66
f 279 205 66
f 66 106 279
f 52 39 208
f 208 190 52
f 39 190 208
f 70 87 243
f 229 39 52
f 52 209 229
f 229 209 39
f 281 309 156
f 148 260 281
f 281 156 148
f 146 133 152
f 146 320 133
f 144 97 226
f 144 219 97
f 226 306 144
f 107 219 249
f 249 78 107
f 105 219 107
f 78 105 107
f 323 47 153
f 333 142 323
f 323 142 47
f 98 247 5
f 128 247 98
f 171 257 58
f 49 257 171
f 22 142 58
f 94 142 22
f 58 125 22
f 22 254 94
f 125 254 22
f 103 142 114
f 49 98 223
f 223 98 5
f 319 254 37
f 37 254 91
f 37 259 319
f 91 60 37
f 60 259 37
f 94 297 274
f 274 210 94
f 242 295 210
f 119 265 134
f 134 315 91
f 134 257 119
f 91 257 134
f 89 329 25
f 249 144 225
f 225 144 306
f 222 2 321
f 321 16 222
f 243 196 73
f 184 252 3
f 3 32 184
f 252 32 3
f 95 283 167
f 167 283 94
f 94 210 308
f 20 214 301
f 284 61 95
f 296 236 95
f 95 61 296
f 267 118 244
f 244 289 267
f 326 179 268
f 326 295 33
f 210 295 326
f 268 308 326
f 301 170 292
f 159 200 278
f 62 264 33
f 239 264 62
f 33 295 62
f 215 239 42
f 42 242 215
f 295 242 42
f 251 217 115
f 251 185 194
f 115 8 251
f 8 185 251
f 230 251 194
f 217 251 230
f 336 101 14
f 14 217 336
f 217 230 336
f 339 137 221
f 221 224 339
f 221 137 14
f 111 340 131
f 131 340 68
f 183 130 299
f 183 340 130
f 299 68 183
f 68 340 183
f 109 111 304
f 304 59 109
f 109 59 111
f 232 111 75
f 75 46 232
f 75 265 46
f 226 97 63
f 63 185 226
f 97 256 63
f 86 304 27
f 304 6 27
f 27 6 85
f 79 86 27
f 27 15 79
f 27 85 158
f 115 15 27
f 27 197 115
f 158 197 27
f 186 6 311
f 85 6 186
f 311 300 186
f 189 85 186
f 273 31 261
f 261 31 160
f 261 68 273
f 261 160 68
f 150 31 315
f 150 165 31
f 169 31 273
f 60 31 169
f 126 60 169
f 169 241 126
f 12 71 182
f 71 122 182
f 38 317 153
f 141 136 38
f 276 82 184
f 249 219 93
f 93 144 249
f 219 144 93
f 81 153 128
f 128 323 81
f 81 323 153
f 213 136 45
f 45 47 213
f 45 136 141
f 141 153 45
f 153 47 45
f 58 142 34
f 34 171 58
f 34 142 333
f 163 142 94
f 163 114 142
f 163 94 103
f 103 114 163
f 255 223 5
f 255 186 300
f 189 186 255
f 303 189 255
f 262 242 210
f 262 274 297
f 210 274 262
f 270 287 215
f 215 242 270
f 242 262 270
f 270 259 126
f 270 262 297
f 270 126 195
f 319 259 270
f 270 297 319
f 211 25 329
f 211 329 89
f 211 78 249
f 211 89 78
f 154 25 16
f 321 48 154
f 154 16 321
f 327 25 154
f 154 112 327
f 48 112 154
f 306 16 253
f 253 225 306
f 16 25 253
f 238 16 306
f 238 220 303
f 238 306 220
f 196 112 246
f 246 112 48
f 48 332 246
f 277 112 196
f 118 73 162
f 162 73 196
f 41 118 162
f 162 196 41
f 95 167 250
f 250 170 301
f 268 170 204
f 204 308 268
f 204 170 94
f 94 308 204
f 175 20 322
f 214 20 175
f 61 284 175
f 104 296 61
f 61 175 104
f 236 296 104
f 104 175 322
f 322 23 104
f 104 23 140
f 104 71 12
f 140 71 104
f 243 267 310
f 310 267 289
f 310 70 243
f 341 308 210
f 210 326 341
f 341 326 308
f 322 20 113
f 170 179 147
f 147 292 170
f 152 26 147
f 147 92 152
f 301 292 147
f 147 26 322
f 200 92 147
f 147 278 200
f 322 113 147
f 147 20 301
f 147 113 20
f 288 14 177
f 288 177 18
f 79 15 288
f 18 79 288
f 194 185 13
f 13 230 194
f 13 336 230
f 13 63 256
f 185 63 13
f 101 336 334
f 188 256 293
f 14 101 258
f 258 221 14
f 101 224 258
f 224 221 258
f 111 131 84
f 84 75 111
f 160 75 84
f 68 160 84
f 84 131 68
f 121 134 265
f 265 75 121
f 121 75 160
f 315 134 121
f 160 31 121
f 31 165 121
f 165 150 121
f 121 150 315
f 273 241 55
f 55 169 273
f 241 169 55
f 231 153 141
f 141 38 231
f 231 38 153
f 116 317 272
f 317 38 272
f 136 182 151
f 151 38 136
f 151 182 122
f 82 276 335
f 260 82 335
f 36 276 309
f 309 281 36
f 36 335 276
f 36 281 260
f 260 335 36
f 171 34 139
f 198 255 300
f 223 255 198
f 49 223 198
f 311 49 198
f 198 300 311
f 192 253 25
f 225 253 192
f 249 225 192
f 192 211 249
f 25 211 192
f 16 238 11
f 11 238 303
f 303 255 11
f 11 255 5
f 11 5 2
f 2 222 11
f 196 246 275
f 41 196 275
f 89 25 138
f 25 245 138
f 327 112 100
f 100 25 327
f 100 245 25
f 112 277 100
f 100 277 245
f 282 196 243
f 94 170 24
f 170 250 24
f 24 167 94
f 24 250 167
f 214 175 44
f 44 175 284
f 72 104 12
f 236 104 72
f 72 136 236
f 12 182 72
f 72 182 136
f 80 147 179
f 278 147 80
f 298 217 90
f 298 288 217
f 298 90 14
f 14 288 298
f 149 288 15
f 217 288 149
f 149 15 115
f 115 217 149
f 330 122 116
f 116 272 330
f 330 272 38
f 330 151 122
f 38 151 330
f 49 171 120
f 171 139 120
f 280 222 16
f 16 11 280
f 280 11 222
f 41 275 53
f 53 173 41
f 53 275 246
f 53 77 173
f 271 77 53
f 53 332 271
f 53 246 332
f 245 277 7
f 7 138 245
f 89 138 7
f 7 312 89
f 285 312 7
f 202 277 196
f 196 282 202
f 178 13 256
f 256 188 178
f 178 188 293
f 293 101 178
f 101 334 178
f 49 120 67
f 67 120 139
f 67 139 34
f 67 98 49
f 67 34 333
f 128 98 67
f 333 323 67
f 67 323 128
f 277 202 17
f 17 202 282
f 17 7 277
f 285 7 17
f 17 243 285
f 17 282 243
f 336 13 302
f 13 178 302
f 302 334 336
f 302 178 334
f 331 338 50
f 50 338 129
f 51 133 30
f 30 216 43
f 43 155 30
f 30 133 216
f 30 155 110
f 76 240 124
f 76 124 1
f 76 307 240
f 290 307 76
f 313 248 99
f 201 248 313
f 102 176 146
f 146 291 102
f 152 92 146
f 176 320 146
f 146 92 200
f 200 21 146
f 146 21 291
f 243 73 267
f 267 73 118
f 239 62 42
f 42 62 295
f 156 309 276
f 184 156 276
f 270 4 287
f 195 4 270
f 54 87 310
f 310 289 54
f 87 70 310
f 301 214 44
f 95 250 44
f 44 250 301
f 44 284 95
f 80 264 159
f 80 326 33
f 33 264 80
f 179 326 80
f 159 278 80

