# https://github.com/mikedh/trimesh
v -0.05485471 -0.04838882 0.18764609
v -0.05374757 -0.01005099 0.15026864
v -0.06403854 -0.04402606 0.16418488
v -0.06354388 -0.02819756 0.15038363
v -0.06596074 -0.00396861 0.18756375
v -0.05359307 -0.03312826 0.15001044
v -0.06324442 -0.04585589 0.15110151
v -0.06572143 -0.03998760 0.19909002
v -0.06497441 -0.03551885 0.17674404
v -0.06077693 -0.00011643 0.15096255
v -0.06557947 -0.01698415 0.18081985
v -0.06385891 -0.04952470 0.16747589
v -0.05390144 -0.00204903 0.15171179
v -0.06257631 -0.04411721 0.19906654
v -0.06503977 -0.03136806 0.17545479
v -0.06364569 -0.04718281 0.16011691
v -0.06568343 -0.00125910 0.18183088
v -0.05374063 -0.01043938 0.15023618
v -0.05569129 -0.00003190 0.17826810
v -0.06211526 -0.04939591 0.19423516
v -0.06445241 -0.04133973 0.17015398
v -0.06474437 -0.00002437 0.16520949
v -0.06466940 -0.04995793 0.18599930
v -0.06516348 -0.00354145 0.17188023
v -0.05703237 -0.00357240 0.19832084
v -0.06565725 -0.01742635 0.18258009
v -0.06075127 -0.00128285 0.15065379
v -0.06596535 -0.02164977 0.19346368
v -0.05677319 -0.03259934 0.19972032
v -0.06481278 -0.04673897 0.18219296
v -0.05693863 -0.00095666 0.19684665
v -0.05540067 -0.04561861 0.19728401
v -0.06543258 -0.01954584 0.17805498
v -0.06288094 -0.04999339 0.15131453
v -0.06548037 -0.00051416 0.17771723
v -0.05427778 -0.00108238 0.15727904
v -0.05382415 -0.00458532 0.15073508
v -0.06384873 -0.00133176 0.15202190
v -0.06588648 -0.01101275 0.18655682
v -0.05427508 -0.04962278 0.17699119
v -0.05683489 -0.00001632 0.19527507
v -0.06636291 -0.00303137 0.19695544
v -0.06531363 -0.04735476 0.19563978
v -0.06511440 -0.00157806 0.17091126
v -0.06553497 -0.04539699 0.19769706
v -0.06554325 -0.04425108 0.19686936
v -0.06344263 -0.00196515 0.19926744
v -0.06390992 -0.00025280 0.15280317
v -0.06531643 -0.01057040 0.17512064
v -0.06331539 -0.03862806 0.15011328
v -0.06377328 -0.02405783 0.15235465
v -0.06382482 -0.02142307 0.15290272
v -0.06509332 -0.04895054 0.19393405
v -0.06626443 -0.00332440 0.19412879
v -0.06475507 -0.04789018 0.18339938
v -0.06527658 -0.04703054 0.19401665
v -0.06576317 -0.02301812 0.18825312
v -0.05305397 -0.04985680 0.15254565
v -0.06626131 -0.01285108 0.19824309
v -0.06323994 -0.00005182 0.19388593
v -0.06478895 -0.02322243 0.16816686
v -0.06522491 -0.04563191 0.18987587
v -0.06477446 -0.03789268 0.17387870
v -0.06521518 -0.02883136 0.17759714
v -0.06523809 -0.00096741 0.17290033
v -0.06538459 -0.01724438 0.17693825
v -0.06532095 -0.01445653 0.17554747
v -0.05301812 -0.04902173 0.15098633
v -0.06609867 -0.02486893 0.19978845
v -0.06068278 -0.00663174 0.15001493
v -0.06460933 -0.02291518 0.16528090
v -0.06419648 -0.04913506 0.17287299
v -0.05707421 -0.00631121 0.19913458
v -0.06628605 -0.00460773 0.19532804
v -0.06396698 -0.04938841 0.16912919
v -0.06491302 -0.04560936 0.18235659
v -0.06544682 -0.02276932 0.17877887
v -0.06308489 -0.02661511 0.19991496
v -0.06272218 -0.04037136 0.19998853
v -0.06487962 -0.04950374 0.19003646
v -0.06607816 -0.02323974 0.19767900
v -0.06518661 -0.04569927 0.18898659
v -0.06529553 -0.02463340 0.17679378
f 47 60 42
f 41 60 47
f 41 47 31
f 73 47 78
f 78 29 73
f 79 29 78
f 10 13 37
f 37 13 68
f 68 18 37
f 36 13 10
f 10 19 36
f 42 60 35
f 10 48 22
f 22 19 10
f 22 35 60
f 22 60 41
f 41 19 22
f 25 47 73
f 25 31 47
f 10 37 27
f 37 70 27
f 2 37 18
f 18 70 2
f 2 70 37
f 6 70 18
f 6 18 68
f 32 29 79
f 73 29 32
f 32 25 73
f 31 25 32
f 41 31 32
f 32 19 41
f 32 36 19
f 13 36 32
f 32 40 13
f 59 47 42
f 70 4 38
f 38 27 70
f 38 48 10
f 10 27 38
f 51 38 4
f 68 13 58
f 13 40 58
f 58 34 68
f 58 23 34
f 40 23 58
f 14 32 79
f 40 32 1
f 35 22 65
f 52 22 48
f 48 38 52
f 38 51 52
f 7 76 3
f 63 7 3
f 20 1 32
f 53 80 20
f 32 14 20
f 40 1 20
f 20 80 23
f 20 14 45
f 20 23 40
f 8 14 79
f 45 14 8
f 59 81 69
f 47 59 69
f 81 8 69
f 69 78 47
f 69 8 79
f 79 78 69
f 28 81 59
f 39 54 5
f 74 59 42
f 42 54 74
f 5 54 17
f 42 35 17
f 17 54 42
f 44 52 51
f 44 65 22
f 22 52 44
f 50 51 4
f 50 7 51
f 50 4 70
f 70 6 50
f 34 7 50
f 68 34 50
f 50 6 68
f 3 76 21
f 21 63 3
f 76 63 21
f 83 7 15
f 7 63 15
f 77 83 15
f 64 76 77
f 77 15 64
f 64 15 63
f 46 62 45
f 77 62 46
f 45 8 46
f 46 8 81
f 77 76 82
f 82 62 77
f 34 23 12
f 43 20 45
f 53 20 43
f 45 62 43
f 62 82 43
f 49 67 66
f 65 67 49
f 66 67 61
f 61 33 66
f 77 33 61
f 61 83 77
f 51 7 61
f 61 7 83
f 26 39 77
f 54 39 26
f 11 33 77
f 77 39 11
f 9 63 76
f 76 64 9
f 9 64 63
f 77 46 57
f 57 46 81
f 57 28 77
f 81 28 57
f 76 72 30
f 30 82 76
f 23 72 75
f 75 12 23
f 71 61 67
f 51 61 71
f 56 43 82
f 82 30 56
f 55 72 23
f 55 30 72
f 16 75 72
f 76 7 16
f 16 72 76
f 24 71 67
f 24 67 65
f 65 44 24
f 24 44 51
f 51 71 24
f 77 28 26
f 59 74 26
f 26 28 59
f 26 74 54
f 35 65 11
f 11 49 66
f 11 39 5
f 11 17 35
f 66 33 11
f 5 17 11
f 65 49 11
f 53 43 55
f 23 80 55
f 55 80 53
f 43 56 55
f 55 56 30
f 16 7 34
f 34 12 16
f 12 75 16

