# https://github.com/mikedh/trimesh
v 0.05052397 0.05178555 0.48560980
v 0.05491327 0.05005974 0.47919932
v 0.05409162 0.05174290 0.48235205
v 0.05089663 0.05107857 0.47469477
v 0.05406222 0.05085829 0.48586363
v 0.05235780 0.05126210 0.48589890
v 0.05617852 0.05049866 0.48476293
v 0.05578033 0.05068455 0.48489748
v 0.05073035 0.05164519 0.48590037
v 0.05584770 0.05069059 0.48469756
v 0.05427497 0.05115184 0.48065171
v 0.05351184 0.05076469 0.48649397
v 0.05263062 0.05150605 0.48502752
v 0.05155999 0.05261859 0.48189631
v 0.05027406 0.05167974 0.47473730
v 0.05285616 0.05137793 0.47838573
v 0.05643924 0.05018967 0.48344076
v 0.05068990 0.05237304 0.47683090
v 0.05220690 0.05259849 0.48045150
v 0.05259415 0.05199449 0.48348223
v 0.05092648 0.05296422 0.48091530
v 0.05498943 0.05124658 0.48333424
v 0.05506133 0.05046056 0.48614930
v 0.05323940 0.05115449 0.47857165
v 0.05105233 0.05138506 0.48641641
v 0.05584785 0.05074859 0.48411448
v 0.05114009 0.05181740 0.48510269
v 0.05021457 0.05329250 0.47997600
v 0.05328313 0.05137699 0.48495303
v 0.05068388 0.05257974 0.48269989
v 0.05332073 0.05199162 0.48085717
v 0.05045941 0.05314111 0.47843394
v 0.05495486 0.05068382 0.48102748
v 0.05305402 0.05186175 0.47995127
v 0.05307209 0.05145359 0.47896127
v 0.05622286 0.05027557 0.48302951
v 0.05004596 0.05015086 0.49018905
v 0.05322190 0.05081397 0.47778045
v 0.05187508 0.05246659 0.48229561
v 0.05097386 0.05308277 0.48009711
v 0.05241625 0.05123952 0.47729099
v 0.05397110 0.05096339 0.47955124
v 0.05103554 0.05244207 0.48295732
v 0.05440820 0.05130161 0.48141325
v 0.05265818 0.05219580 0.48276658
v 0.05122282 0.05258266 0.47819613
v 0.05382441 0.05010342 0.48793765
v 0.05186744 0.05020785 0.48902130
v 0.05115556 0.05274021 0.47843052
v 0.05127638 0.05024322 0.47588246
v 0.05012526 0.05281113 0.48222049
v 0.05064976 0.05197831 0.48485237
v 0.05233425 0.05253585 0.48045404
v 0.05229238 0.05024139 0.48867144
v 0.05212639 0.05027117 0.48871504
v 0.05014690 0.05239482 0.48370492
v 0.05340852 0.05206235 0.48228923
v 0.05122793 0.05294507 0.48070892
v 0.05132468 0.05295179 0.48046290
v 0.05158864 0.05163782 0.47674158
v 0.05172711 0.05166466 0.47703564
v 0.05446477 0.05150565 0.48225143
v 0.05501558 0.05081650 0.48528468
v 0.05030748 0.05127573 0.47399654
v 0.05056235 0.05324319 0.47938044
v 0.05425519 0.05056887 0.47913499
v 0.05395543 0.05180818 0.48219891
f 37 64 50
f 15 64 37
f 37 50 2
f 37 2 47
f 47 2 17
f 4 50 64
f 64 2 4
f 4 2 50
f 38 2 64
f 7 47 17
f 7 23 47
f 64 15 60
f 51 15 37
f 28 15 51
f 37 47 48
f 48 55 37
f 26 7 17
f 17 2 36
f 41 38 64
f 64 60 41
f 63 29 5
f 47 23 5
f 5 23 63
f 37 55 25
f 45 29 63
f 20 29 45
f 45 57 58
f 45 27 20
f 67 57 3
f 58 57 59
f 28 58 59
f 47 55 54
f 54 48 47
f 55 48 54
f 63 23 8
f 23 7 8
f 8 45 63
f 57 45 8
f 2 38 24
f 32 65 53
f 53 49 32
f 32 15 28
f 28 65 32
f 18 60 15
f 15 32 18
f 18 32 49
f 33 36 2
f 31 49 53
f 61 41 60
f 60 18 61
f 37 1 56
f 56 51 37
f 13 29 20
f 20 27 13
f 6 5 29
f 29 13 6
f 39 45 58
f 19 59 57
f 19 67 53
f 57 67 19
f 53 65 19
f 65 59 19
f 40 65 28
f 28 59 40
f 40 59 65
f 3 57 22
f 16 41 49
f 53 67 62
f 62 31 53
f 62 67 3
f 44 31 62
f 36 44 62
f 17 36 62
f 62 26 17
f 3 22 62
f 62 22 26
f 49 31 34
f 49 41 46
f 41 61 46
f 46 18 49
f 46 61 18
f 51 56 30
f 30 56 27
f 30 39 51
f 45 39 30
f 1 27 52
f 52 56 1
f 27 56 52
f 9 1 37
f 37 25 9
f 9 27 1
f 9 13 27
f 25 6 9
f 9 6 13
f 5 6 12
f 12 55 47
f 47 5 12
f 12 25 55
f 12 6 25
f 21 39 58
f 28 51 21
f 21 58 28
f 26 22 10
f 7 26 10
f 10 8 7
f 57 8 10
f 10 22 57
f 49 34 35
f 24 16 35
f 35 16 49
f 11 34 31
f 11 31 44
f 11 33 2
f 11 44 36
f 36 33 11
f 43 30 27
f 27 45 43
f 51 39 14
f 14 21 51
f 39 21 14
f 2 24 66
f 24 35 66
f 66 11 2
f 34 11 42
f 11 66 42
f 42 35 34
f 42 66 35
f 16 24 38
f 38 41 16
f 45 30 43

