# https://github.com/mikedh/trimesh
v -0.05049962 0.05019157 0.33549048
v -0.05222366 0.05165764 0.33313789
v -0.05022275 0.05492273 0.33382246
v -0.05026236 0.05237104 0.33487260
v -0.05274961 0.05699873 0.32918960
v -0.05183373 0.05188921 0.33350125
v -0.05395292 0.05438398 0.32796997
v -0.05000537 0.06111808 0.33078364
v -0.05056567 0.05733008 0.33245051
v -0.05493012 0.05165189 0.32778072
v -0.05270977 0.05595139 0.33080493
v -0.05140877 0.05154766 0.33405972
v -0.05249303 0.05557661 0.33121050
v -0.05539399 0.05014638 0.32727401
v -0.05010618 0.05592014 0.32793805
v -0.05129586 0.05964993 0.32988501
v -0.05185521 0.05044620 0.32743632
v -0.05054165 0.06081729 0.32989448
v -0.05184610 0.05441803 0.33241742
v -0.05413216 0.05393383 0.32876859
v -0.05452773 0.05286652 0.32749790
v -0.05537443 0.05020774 0.32774244
v -0.05244375 0.05189572 0.33279539
v -0.05479076 0.05132211 0.33012066
v -0.05034250 0.05840457 0.32787728
v -0.05101693 0.05221300 0.33419017
v -0.05407678 0.05397753 0.32682949
v -0.05068715 0.05852424 0.33177023
v -0.05127957 0.05780058 0.33153036
v -0.05081634 0.05537204 0.33304068
v -0.05328381 0.05485505 0.33061984
v -0.05430446 0.05249902 0.33033586
v -0.05423006 0.05366870 0.32769206
v -0.05435477 0.05108708 0.32669587
v -0.05462719 0.05170545 0.33020019
v -0.05265498 0.05076602 0.33296668
v -0.05354436 0.05372588 0.33079835
v -0.05150576 0.05861620 0.32755141
v -0.05353876 0.05536885 0.32892609
v -0.05134435 0.05024555 0.33461619
v -0.05057872 0.05037571 0.33534103
v -0.05066022 0.06065348 0.32863349
v -0.05422999 0.05277511 0.33033457
v -0.05051839 0.05857506 0.33191105
v -0.05148061 0.05935272 0.32907353
v -0.05524570 0.05086405 0.32963586
v -0.05379208 0.05453745 0.32691492
v -0.05202322 0.05843169 0.32841530
v -0.05234405 0.05324417 0.33236647
v -0.05003467 0.05640457 0.33335285
v -0.05007403 0.06146892 0.32810242
v -0.05321875 0.05139255 0.32701443
v -0.05076050 0.05187660 0.33458865
v -0.05314142 0.05607453 0.33018807
v -0.05007352 0.06037494 0.33149013
v -0.05171698 0.05772724 0.33112296
v -0.05447094 0.05302548 0.32993873
v -0.05188983 0.05848382 0.33061361
v -0.05219090 0.05598141 0.32733744
v -0.05033111 0.05659678 0.33299999
v -0.05017305 0.05015030 0.32792066
v -0.05319389 0.05507870 0.33062707
v -0.05328872 0.05090212 0.32699200
v -0.05318789 0.05192894 0.33192146
v -0.05486656 0.05147602 0.32996707
v -0.05146276 0.05330526 0.33328071
f 61 1 14
f 27 34 14
f 17 61 14
f 14 34 17
f 22 46 14
f 8 58 55
f 8 51 18
f 18 58 8
f 21 27 14
f 21 46 57
f 61 17 63
f 63 17 34
f 34 27 38
f 27 47 38
f 51 25 38
f 38 47 51
f 57 46 65
f 46 24 65
f 46 22 40
f 14 1 40
f 40 22 14
f 36 40 6
f 36 24 46
f 46 40 36
f 14 46 10
f 10 21 14
f 46 21 10
f 42 18 51
f 58 18 16
f 18 42 16
f 16 42 45
f 54 39 57
f 57 31 54
f 7 39 27
f 5 54 58
f 39 54 5
f 61 63 15
f 15 63 25
f 15 25 51
f 15 51 8
f 8 61 15
f 34 38 59
f 59 38 25
f 55 60 50
f 8 55 50
f 50 61 8
f 9 60 55
f 1 61 4
f 61 50 4
f 37 31 57
f 57 39 20
f 39 7 20
f 27 21 33
f 33 7 27
f 33 20 7
f 33 21 57
f 57 20 33
f 58 16 48
f 48 5 58
f 48 16 45
f 45 42 48
f 48 47 27
f 51 47 48
f 48 42 51
f 27 39 48
f 39 5 48
f 25 63 52
f 52 59 25
f 52 63 34
f 34 59 52
f 44 9 55
f 29 9 58
f 3 50 60
f 3 4 50
f 58 13 19
f 6 66 19
f 19 66 9
f 11 13 58
f 58 9 28
f 9 44 28
f 28 55 58
f 28 44 55
f 60 9 30
f 9 66 30
f 6 12 53
f 1 4 53
f 41 12 6
f 41 40 1
f 6 40 41
f 1 53 41
f 41 53 12
f 49 13 31
f 31 37 49
f 49 37 6
f 6 19 49
f 49 19 13
f 2 36 6
f 6 37 23
f 37 64 23
f 23 2 6
f 23 64 36
f 36 2 23
f 35 64 32
f 35 32 57
f 24 36 35
f 36 64 35
f 57 65 35
f 35 65 24
f 43 37 57
f 43 64 37
f 57 32 43
f 32 64 43
f 9 29 56
f 56 19 9
f 56 29 58
f 58 19 56
f 31 13 62
f 13 11 62
f 62 11 58
f 58 54 62
f 62 54 31
f 26 66 6
f 6 53 26
f 60 30 26
f 26 30 66
f 26 53 4
f 26 3 60
f 4 3 26

