# https://github.com/mikedh/trimesh
v 0.00005179 -0.05368781 0.01882915
v 0.02044487 -0.06264779 0.00234154
v 0.04621466 -0.08113193 0.04948403
v 0.04477785 -0.06657577 0.04974955
v 0.01817921 -0.06153986 0.00242150
v 0.01601034 -0.05048242 0.04978922
v 0.00063344 -0.06976144 0.01588688
v 0.00915065 -0.06063488 0.00299899
v 0.01486353 -0.06521836 0.04994357
v 0.00274810 -0.08079862 0.04994392
v 0.02955666 -0.06757477 0.00854185
v 0.04940577 -0.06070948 0.00314957
v 0.03789825 -0.06445775 0.00357222
v 0.00028523 -0.06566539 0.01543793
v 0.04949997 -0.07932506 0.04878610
v 0.04900002 -0.05821323 0.04763274
v 0.00056728 -0.08352907 0.04863694
v 0.00007720 -0.07012358 0.02763537
v 0.00050027 -0.06332791 0.00475960
v 0.04649965 -0.05017252 0.01294788
v 0.01291069 -0.05021161 0.01532492
v 0.04986068 -0.05727391 0.03017144
v 0.00116680 -0.06432842 0.00286074
v 0.00066055 -0.06186392 0.04224506
v 0.00192839 -0.05093366 0.02163514
v 0.02620420 -0.06432379 0.00289573
v 0.00158286 -0.05074289 0.01561186
v 0.04827983 -0.05153051 0.01207083
v 0.04643596 -0.06598321 0.00948115
v 0.01489783 -0.08424965 0.04983647
v 0.01983732 -0.06378063 0.00247073
v 0.03500017 -0.06283785 0.00236332
v 0.04972347 -0.05021858 0.03169403
v 0.04707164 -0.06192376 0.00328228
v 0.03534756 -0.06781694 0.00937750
v 0.00438935 -0.08416746 0.04965621
v 0.00873109 -0.05006020 0.01638372
v 0.04374346 -0.07386096 0.04984969
v 0.00361381 -0.06870631 0.04959447
v 0.04980797 -0.07110542 0.03993941
v 0.00019203 -0.07055080 0.04911483
v 0.03056852 -0.06209248 0.00232455
v 0.04984723 -0.05752933 0.00609337
v 0.03506698 -0.08368765 0.04958470
v 0.03239123 -0.06275111 0.00235341
v 0.00069822 -0.06209214 0.00232533
v 0.00236679 -0.06844606 0.01146212
v 0.00154143 -0.06696882 0.04911487
v 0.04206459 -0.07915801 0.04983458
v 0.04015186 -0.06721008 0.00846984
v 0.03436075 -0.06337274 0.00242432
v 0.00448502 -0.06175718 0.00239244
v 0.01601009 -0.05002450 0.03824397
v 0.04119339 -0.06694567 0.00796496
v 0.00543346 -0.06768779 0.00891262
v 0.04860752 -0.05930029 0.04850796
v 0.04815134 -0.06635815 0.01255980
v 0.03792431 -0.08331121 0.04999780
v 0.04874672 -0.05896921 0.00296864
v 0.04965870 -0.05248963 0.01627704
v 0.04391864 -0.06711890 0.01026347
v 0.00513009 -0.06424624 0.00262156
f 1 41 24
f 1 24 25
f 25 24 6
f 20 37 53
f 53 25 6
f 6 38 4
f 6 24 48
f 48 24 41
f 6 10 9
f 17 10 41
f 1 25 27
f 27 53 37
f 25 53 27
f 62 26 11
f 62 55 23
f 11 55 62
f 40 16 15
f 59 8 20
f 41 10 39
f 39 48 41
f 39 10 6
f 6 48 39
f 18 41 1
f 18 17 41
f 7 19 23
f 7 18 19
f 17 18 7
f 30 10 36
f 10 17 36
f 36 17 55
f 36 11 30
f 36 55 11
f 23 19 46
f 46 27 8
f 46 19 1
f 1 27 46
f 46 62 23
f 42 2 46
f 20 8 21
f 8 27 21
f 21 37 20
f 21 27 37
f 56 4 15
f 15 16 56
f 6 4 56
f 56 16 6
f 33 40 22
f 16 40 33
f 6 16 33
f 33 53 6
f 20 53 33
f 12 59 43
f 43 33 22
f 22 40 43
f 15 12 43
f 43 40 15
f 32 51 2
f 42 59 32
f 32 59 12
f 12 51 32
f 2 51 31
f 31 46 2
f 62 46 31
f 26 62 31
f 31 51 26
f 38 49 3
f 15 4 3
f 3 4 38
f 57 12 15
f 15 3 57
f 1 19 14
f 14 18 1
f 19 18 14
f 55 17 47
f 17 7 47
f 23 55 47
f 47 7 23
f 5 59 42
f 42 46 5
f 8 59 52
f 52 46 8
f 59 5 52
f 52 5 46
f 28 59 20
f 28 43 59
f 20 33 28
f 45 2 42
f 42 32 45
f 45 32 2
f 26 51 13
f 11 26 13
f 13 54 11
f 12 57 29
f 29 57 3
f 44 54 58
f 58 54 3
f 58 3 49
f 30 44 58
f 58 10 30
f 58 49 38
f 58 9 10
f 58 38 6
f 6 9 58
f 11 54 35
f 30 11 35
f 35 44 30
f 33 43 60
f 60 28 33
f 43 28 60
f 12 29 34
f 34 29 54
f 34 51 12
f 54 13 34
f 34 13 51
f 3 54 61
f 61 29 3
f 54 29 61
f 50 54 44
f 44 35 50
f 50 35 54

