# https://github.com/mikedh/trimesh
v -0.00086513 0.04932743 0.21360290
v -0.00381464 0.04815348 0.20165769
v -0.02253935 0.04032959 0.24709907
v -0.03000423 0.03750830 0.20013297
v -0.02143236 0.04339340 0.24962240
v -0.02673945 0.04506930 0.23560201
v -0.02534821 0.04143557 0.24111941
v -0.00024302 0.04489169 0.20165758
v -0.02368019 0.04919454 0.24737019
v -0.00001728 0.00653319 0.20165685
v -0.03000514 0.04242116 0.20165636
v -0.00564698 0.04989049 0.21164017
v -0.02999769 0.00326626 0.20099741
v -0.02629577 0.04288255 0.23789997
v -0.02558354 0.04389389 0.24095509
v -0.00087276 0.00368111 0.20165681
v -0.02694651 0.04707166 0.23100887
v -0.03000230 0.02749485 0.20146688
v -0.02897345 0.00337679 0.20165721
v -0.01469733 0.00057569 0.20165695
v -0.02705749 0.04640073 0.23220243
v -0.02289191 0.04695511 0.24847542
v -0.00059098 0.04067905 0.24375517
v -0.00610510 0.00106046 0.20165683
v -0.03000656 0.04973616 0.20000175
v -0.00334684 0.00194593 0.20165681
v -0.02177411 0.04156893 0.24859142
v -0.02553918 0.04998971 0.22352112
v -0.02322722 0.04470291 0.24709262
v -0.00020177 0.04310787 0.23528715
v -0.01053380 0.04948096 0.20165781
v -0.02443003 0.04475588 0.24442447
v -0.00355733 0.03915766 0.24905966
v -0.02133096 0.00078707 0.20165705
v -0.01520314 0.03891157 0.24991851
f 8 10 25
f 25 10 4
f 20 35 34
f 34 13 20
f 10 8 30
f 30 23 10
f 30 8 1
f 20 13 24
f 13 26 24
f 24 35 20
f 13 4 16
f 16 26 13
f 16 4 10
f 10 23 16
f 35 24 33
f 33 24 26
f 33 16 23
f 26 16 33
f 35 13 19
f 19 34 35
f 13 34 19
f 1 8 2
f 2 31 1
f 2 8 25
f 25 31 2
f 1 31 12
f 25 28 12
f 12 31 25
f 3 13 35
f 9 33 23
f 23 30 9
f 9 30 1
f 1 12 9
f 9 12 28
f 9 28 25
f 13 3 7
f 7 3 32
f 13 6 18
f 18 6 11
f 25 11 21
f 11 6 21
f 6 9 21
f 35 33 5
f 32 3 29
f 29 9 32
f 14 6 13
f 13 7 14
f 17 9 25
f 25 21 17
f 17 21 9
f 27 3 35
f 35 5 27
f 9 29 22
f 33 9 22
f 22 5 33
f 22 29 3
f 15 14 7
f 32 9 15
f 15 7 32
f 15 9 6
f 6 14 15
f 18 4 13
f 25 4 18
f 18 11 25
f 3 27 22
f 22 27 5

