# https://github.com/mikedh/trimesh
v 0.04597111 0.10140025 0.25279192
v 0.04657280 0.10170526 0.25134083
v 0.03668417 0.10007154 0.25117804
v 0.04673448 0.10091905 0.25127338
v 0.03842912 0.10061027 0.25580519
v 0.04810308 0.10010706 0.25766772
v 0.03617076 0.10079268 0.25475824
v 0.04780630 0.10116943 0.25367660
v 0.03671277 0.10009819 0.25761343
v 0.04317811 0.10101184 0.25430364
v 0.03611704 0.10064851 0.25502058
v 0.04104045 0.10134327 0.25304049
v 0.04674499 0.10039692 0.25137641
v 0.03991081 0.10124818 0.25340943
v 0.03675578 0.10120256 0.25132658
f 6 3 13
f 4 3 2
f 4 13 3
f 11 3 9
f 9 3 6
f 8 4 2
f 6 13 8
f 13 4 8
f 2 3 15
f 11 9 7
f 14 15 7
f 7 3 11
f 7 15 3
f 5 9 6
f 14 7 5
f 5 7 9
f 6 8 10
f 10 5 6
f 14 5 10
f 1 8 2
f 8 1 12
f 14 10 12
f 12 10 8
f 12 1 2
f 2 15 12
f 12 15 14

