# https://github.com/mikedh/trimesh
v 0.06514831 -0.06855602 0.24317730
v 0.06264213 -0.07130940 0.24896486
v 0.05450723 -0.09702328 0.23086170
v 0.07396704 -0.05013359 0.22159453
v 0.07169489 -0.05630108 0.22786484
v 0.06737829 -0.06566515 0.23672458
v 0.05738346 -0.09140344 0.24055841
v 0.05939890 -0.08775854 0.23963096
v 0.05515957 -0.05487351 0.24949539
v 0.06301062 -0.08246468 0.23068057
v 0.06692958 -0.05328275 0.24752293
v 0.07258297 -0.06640812 0.20081865
v 0.06673382 -0.07639388 0.22122753
v 0.05245807 -0.09895797 0.24229417
v 0.06196177 -0.07483093 0.24831485
v 0.06862711 -0.05114014 0.24344142
v 0.06298998 -0.07968532 0.23752816
v 0.06720619 -0.05497230 0.24590958
v 0.05550236 -0.09568468 0.23125138
v 0.06151506 -0.08424655 0.23569434
v 0.05874699 -0.08657282 0.24574988
v 0.07236604 -0.05299584 0.22777828
v 0.05136155 -0.09521226 0.20068852
v 0.05064358 -0.09423003 0.24945121
v 0.06515105 -0.08119158 0.21553338
v 0.07543075 -0.05422240 0.20750362
v 0.06841730 -0.06844873 0.22835986
v 0.06666257 -0.07701798 0.21939906
v 0.06606991 -0.08137357 0.20076001
v 0.05649448 -0.09233280 0.24301272
v 0.06680423 -0.07316824 0.22919517
v 0.06313841 -0.07278518 0.24653753
v 0.05907683 -0.08842618 0.23990812
v 0.05283917 -0.09857622 0.24164565
v 0.06745232 -0.07343247 0.22389135
v 0.06306206 -0.07584974 0.24359489
v 0.06476213 -0.08271415 0.21007030
v 0.05006185 -0.08986351 0.22915154
v 0.06885362 -0.05413283 0.24075802
v 0.06463528 -0.07186008 0.24186136
v 0.07067541 -0.05025777 0.23642706
v 0.05606341 -0.09463162 0.23567306
v 0.06551109 -0.07666736 0.22943821
v 0.05934854 -0.08558551 0.24472096
v 0.05556428 -0.09307239 0.24630179
v 0.06598296 -0.05000839 0.20751139
v 0.06225996 -0.08360458 0.23262833
v 0.06406459 -0.07557114 0.23975400
v 0.06833398 -0.07497352 0.21126226
v 0.05822358 -0.08588719 0.24846035
v 0.05464391 -0.09661314 0.23884132
v 0.06630083 -0.08063941 0.20369470
v 0.06670873 -0.05161045 0.24861482
v 0.05825439 -0.08514876 0.24911407
v 0.06032824 -0.08812476 0.22994233
v 0.06421303 -0.05003525 0.21828214
v 0.06307274 -0.05035581 0.24997886
v 0.05225838 -0.09918014 0.22464595
v 0.06908306 -0.05056496 0.24211004
v 0.06052376 -0.08737533 0.23233753
v 0.06963840 -0.07377072 0.20300838
v 0.05021752 -0.08914102 0.20830998
v 0.05419579 -0.09723699 0.23781821
v 0.06311585 -0.07628056 0.24277033
v 0.05785786 -0.08799803 0.24685823
v 0.05107717 -0.09943509 0.20934360
v 0.05027820 -0.09683506 0.22021264
v 0.07109022 -0.05572056 0.23096776
v 0.07226337 -0.05565360 0.22551569
v 0.06423837 -0.08406031 0.20427996
v 0.05101494 -0.06309681 0.20027211
v 0.06800587 -0.06702401 0.23260329
v 0.05025275 -0.09699140 0.24145294
v 0.07455791 -0.05742074 0.20807191
v 0.05433009 -0.09467970 0.24763460
v 0.07589728 -0.05534903 0.20084034
v 0.07049036 -0.06419246 0.22314793
v 0.05846844 -0.09110267 0.23155278
v 0.05551437 -0.09397983 0.24330977
v 0.06114561 -0.08664187 0.22981402
v 0.05264792 -0.09722399 0.24834252
v 0.05451381 -0.09627935 0.20048069
v 0.07358568 -0.05801619 0.21415856
v 0.05103585 -0.09954703 0.21117145
v 0.05076345 -0.05512369 0.20165494
v 0.05039756 -0.09641626 0.24389209
v 0.05362433 -0.09803316 0.23546171
v 0.05955500 -0.08341200 0.24687878
v 0.05557358 -0.09511096 0.23839082
v 0.07056255 -0.05190288 0.23575233
v 0.05122054 -0.09905027 0.20404998
v 0.06685502 -0.07493207 0.22444631
v 0.06863917 -0.07227796 0.21811625
v 0.07498266 -0.05059191 0.21572807
v 0.06248379 -0.07777680 0.24325145
v 0.06003219 -0.08781406 0.23490153
v 0.07164964 -0.05597057 0.22857503
v 0.06500680 -0.06756163 0.24468122
v 0.05101808 -0.07958802 0.20007740
v 0.05247234 -0.09796990 0.20144469
v 0.07517452 -0.05162703 0.21354075
v 0.05658757 -0.08924310 0.24942324
v 0.06252805 -0.08325695 0.23168602
v 0.06551995 -0.05903772 0.24833172
v 0.07294594 -0.06533925 0.20113492
v 0.07280566 -0.06286541 0.21018692
v 0.06457164 -0.08319681 0.20882111
v 0.06070075 -0.07737558 0.24956795
v 0.06230427 -0.08032982 0.23989742
v 0.06098744 -0.07884706 0.24717619
v 0.06845415 -0.06765086 0.22964621
v 0.05189531 -0.09834503 0.20074197
v 0.07521082 -0.05497717 0.20804358
v 0.05653629 -0.09211082 0.24358431
v 0.07017312 -0.06990706 0.21253045
v 0.06966419 -0.05286584 0.23853419
v 0.06701111 -0.05713975 0.24522592
v 0.06727638 -0.05376726 0.24628325
v 0.06161097 -0.08466115 0.23400483
v 0.06875410 -0.07475277 0.20794683
v 0.06597395 -0.07858875 0.21945252
v 0.06313164 -0.06800657 0.24963052
v 0.05026190 -0.09608469 0.20159147
v 0.06230749 -0.07805293 0.24358906
v 0.07223489 -0.06418946 0.21182303
v 0.06061625 -0.08270085 0.24391334
v 0.06722139 -0.05737686 0.24446979
v 0.06244380 -0.08711503 0.20015035
v 0.05683132 -0.08979365 0.24763759
v 0.06715621 -0.05044329 0.24778605
v 0.05167899 -0.07306227 0.24945741
v 0.05744152 -0.05125968 0.24483803
v 0.06329898 -0.08315247 0.22507322
v 0.05540440 -0.09529947 0.20053997
v 0.06618585 -0.08019769 0.20831134
v 0.06828656 -0.05417014 0.24285671
v 0.05733668 -0.08900386 0.24717760
v 0.06679776 -0.06932799 0.23531610
v 0.06366894 -0.06166674 0.20029664
v 0.05134175 -0.09879296 0.20115293
v 0.06827150 -0.07673390 0.20319123
v 0.05035762 -0.07739978 0.20165453
v 0.06427405 -0.07611407 0.23796818
v 0.06488152 -0.08084956 0.22045564
v 0.05007122 -0.08242931 0.24788440
v 0.07021421 -0.07136730 0.20638460
v 0.07585257 -0.05316488 0.20567885
v 0.06688247 -0.07513622 0.22369349
v 0.07040839 -0.06939169 0.21208342
v 0.05552960 -0.09337621 0.24550697
v 0.07265927 -0.05107444 0.22814388
v 0.05962948 -0.08774424 0.23838541
v 0.06981941 -0.05552210 0.23602469
v 0.05040357 -0.07125843 0.20165464
v 0.07296855 -0.05011591 0.22738100
v 0.05790460 -0.09024129 0.24149888
v 0.07505331 -0.05772163 0.20260248
v 0.06644191 -0.07344491 0.23102035
v 0.06570739 -0.07675660 0.22777810
v 0.06184116 -0.08015772 0.24247819
v 0.06988051 -0.06648276 0.22268615
v 0.07443935 -0.05538004 0.21319066
v 0.06945144 -0.06632581 0.20037488
v 0.06555903 -0.07554976 0.23189755
v 0.06369824 -0.08130134 0.22937804
v 0.07296228 -0.06188674 0.21141216
v 0.06484402 -0.08306094 0.20498317
v 0.06673370 -0.05001581 0.20102050
v 0.05798293 -0.08829607 0.24593132
v 0.05695302 -0.09360405 0.23185336
v 0.05907909 -0.08888297 0.23875920
v 0.06890420 -0.07489445 0.20569056
v 0.06865524 -0.07590571 0.20337646
v 0.06008812 -0.09019706 0.20759012
v 0.06305923 -0.07922195 0.23815205
v 0.07505719 -0.05842969 0.20052413
v 0.07657430 -0.05192819 0.20146992
v 0.07242808 -0.05141847 0.22888638
v 0.05361660 -0.09787643 0.22344265
v 0.06000483 -0.09040144 0.20379119
f 99 82 112
f 62 123 38
f 154 62 38
f 38 145 154
f 154 145 85
f 71 154 85
f 99 123 71
f 23 123 99
f 99 112 23
f 99 71 139
f 142 71 123
f 154 71 142
f 123 62 142
f 62 154 142
f 128 82 99
f 99 139 128
f 128 139 163
f 9 132 85
f 57 132 9
f 108 122 57
f 85 132 56
f 56 132 57
f 57 155 56
f 56 155 46
f 24 108 57
f 102 108 24
f 168 139 71
f 168 71 85
f 85 56 168
f 168 56 46
f 46 155 168
f 155 4 168
f 29 128 12
f 85 145 131
f 131 9 85
f 145 24 131
f 57 9 131
f 131 24 57
f 41 155 57
f 57 122 53
f 102 24 81
f 177 168 94
f 94 168 4
f 94 4 155
f 29 12 61
f 176 128 163
f 176 12 128
f 163 139 176
f 139 168 176
f 57 53 130
f 130 41 57
f 59 41 130
f 53 11 130
f 1 98 40
f 97 98 1
f 40 98 32
f 91 66 123
f 82 58 100
f 58 66 100
f 66 91 100
f 100 112 82
f 84 58 14
f 84 66 58
f 123 66 84
f 84 67 123
f 70 128 29
f 70 170 128
f 14 58 87
f 179 58 82
f 179 87 58
f 3 87 179
f 128 170 174
f 174 170 51
f 76 168 177
f 76 176 168
f 59 130 16
f 16 130 11
f 11 118 16
f 41 116 90
f 90 178 41
f 12 176 105
f 68 98 97
f 68 153 98
f 97 178 68
f 39 41 136
f 39 116 41
f 97 1 6
f 2 98 122
f 2 32 98
f 122 108 2
f 40 32 36
f 140 91 123
f 123 23 140
f 140 23 112
f 112 100 140
f 140 100 91
f 69 22 97
f 94 22 69
f 151 178 97
f 97 22 151
f 155 41 151
f 41 178 151
f 151 94 155
f 151 22 94
f 14 87 34
f 34 81 14
f 51 81 34
f 63 3 51
f 63 87 3
f 51 34 63
f 63 34 87
f 51 3 19
f 19 174 51
f 3 174 19
f 3 179 180
f 180 174 3
f 180 179 82
f 128 174 180
f 136 16 18
f 18 16 118
f 18 118 11
f 125 93 149
f 149 105 125
f 12 105 149
f 72 111 97
f 97 6 72
f 15 36 32
f 15 2 108
f 32 2 15
f 108 50 15
f 89 55 171
f 89 79 51
f 89 78 55
f 67 84 73
f 73 84 14
f 73 145 38
f 73 24 145
f 38 123 73
f 123 67 73
f 97 111 5
f 5 69 97
f 82 128 134
f 134 180 82
f 128 180 134
f 176 76 157
f 106 105 176
f 176 157 106
f 106 157 166
f 125 105 106
f 106 166 125
f 136 18 127
f 127 39 136
f 153 39 127
f 98 153 127
f 146 61 12
f 12 149 146
f 115 93 13
f 115 149 93
f 13 49 115
f 115 49 61
f 159 165 13
f 159 43 165
f 111 72 138
f 143 109 175
f 54 108 102
f 102 50 54
f 54 50 108
f 109 143 126
f 119 152 171
f 102 81 75
f 75 45 102
f 81 45 75
f 7 89 171
f 79 89 7
f 156 45 150
f 150 45 81
f 150 81 51
f 51 79 150
f 51 170 42
f 170 78 42
f 42 89 51
f 78 89 42
f 55 78 107
f 107 78 170
f 96 119 171
f 13 165 144
f 14 81 86
f 86 73 14
f 86 81 24
f 24 73 86
f 94 69 101
f 69 162 101
f 101 147 177
f 177 94 101
f 77 5 111
f 125 166 77
f 77 161 125
f 77 162 69
f 69 5 77
f 74 157 76
f 166 157 74
f 104 18 11
f 122 98 104
f 104 53 122
f 104 11 53
f 27 77 111
f 161 77 27
f 125 161 27
f 111 143 158
f 158 27 111
f 111 138 48
f 48 143 111
f 48 138 40
f 40 36 48
f 36 64 48
f 21 88 50
f 126 88 21
f 124 64 36
f 36 88 124
f 124 88 126
f 110 15 50
f 50 88 110
f 36 15 110
f 110 88 36
f 175 109 17
f 44 17 109
f 109 126 44
f 126 21 44
f 152 119 20
f 17 44 20
f 156 150 114
f 114 150 79
f 37 80 55
f 55 107 37
f 170 70 167
f 167 107 170
f 167 70 29
f 29 107 167
f 133 144 165
f 80 144 133
f 28 49 13
f 113 101 162
f 113 74 76
f 113 162 166
f 166 74 113
f 113 76 177
f 166 162 83
f 83 77 166
f 162 77 83
f 117 127 18
f 18 104 117
f 98 127 117
f 117 104 98
f 148 159 13
f 13 93 148
f 93 92 148
f 164 158 143
f 43 92 164
f 92 158 164
f 17 20 164
f 164 143 175
f 175 17 164
f 165 43 164
f 164 20 165
f 125 27 31
f 27 158 31
f 31 158 92
f 160 48 64
f 160 126 143
f 143 48 160
f 171 152 33
f 33 156 171
f 33 44 21
f 102 45 129
f 137 129 45
f 102 129 137
f 165 20 47
f 47 20 119
f 55 80 60
f 171 55 60
f 60 96 171
f 79 7 30
f 30 114 79
f 25 144 80
f 80 37 25
f 61 49 120
f 120 172 61
f 49 28 120
f 144 172 120
f 147 101 26
f 101 113 26
f 177 147 26
f 26 113 177
f 35 92 93
f 35 31 92
f 35 93 125
f 125 31 35
f 64 124 95
f 95 160 64
f 8 33 152
f 44 33 8
f 152 20 8
f 8 20 44
f 169 33 21
f 156 33 169
f 169 45 156
f 169 137 45
f 102 137 65
f 65 50 102
f 65 21 50
f 65 169 21
f 137 169 65
f 10 47 103
f 165 47 10
f 103 60 10
f 10 60 80
f 173 172 144
f 144 25 173
f 61 172 173
f 144 120 121
f 121 120 28
f 29 61 141
f 61 173 141
f 141 173 25
f 29 141 52
f 52 107 29
f 52 37 107
f 52 25 37
f 135 141 25
f 25 52 135
f 135 52 141
f 16 41 59
f 136 41 16
f 39 90 116
f 39 68 178
f 178 90 39
f 153 68 39
f 115 146 149
f 61 146 115
f 138 6 1
f 138 1 40
f 138 72 6
f 148 92 43
f 43 159 148
f 60 47 119
f 119 96 60
f 103 47 60
f 30 7 171
f 171 156 30
f 156 114 30
f 126 160 95
f 95 124 126
f 80 133 10
f 10 133 165
f 121 28 13
f 13 144 121

