# https://github.com/mikedh/trimesh
v -0.05615939 0.03881831 0.03559250
v -0.05473802 0.03834332 0.01836934
v -0.05377342 0.04093014 0.00708296
v -0.05406844 0.00132408 0.04944184
v -0.05379502 0.04398731 0.00744685
v -0.05096567 0.00008194 0.01118152
v -0.05710767 0.00245467 0.04982936
v -0.05692877 0.04778848 0.04719016
v -0.05352407 0.00205453 0.00578168
v -0.05568625 0.03189755 0.02939392
v -0.05695360 0.03285362 0.04625735
v -0.05049797 0.01701793 0.00058315
v -0.05161679 0.04773981 0.00240642
v -0.05632569 0.01779583 0.03779147
v -0.05350942 0.01402222 0.00510657
v -0.05016751 0.00459355 0.00212946
v -0.05713278 0.01566717 0.04953405
v -0.05055122 0.03653186 0.00130453
v -0.05065787 0.00032010 0.00749993
v -0.05014022 0.01882276 0.00662832
v -0.05638717 0.01961354 0.03850419
v -0.05629962 0.01940679 0.03735358
v -0.05128861 0.02187148 0.00069421
v -0.05108937 0.00755721 0.00041816
v -0.05243557 0.00027336 0.02869313
v -0.05482482 0.04895527 0.01989017
v -0.05693708 0.03370929 0.04602976
v -0.05360655 0.02024780 0.00584075
v -0.05679480 0.00162416 0.04518358
v -0.05708508 0.00008495 0.04961919
v -0.05538154 0.02753572 0.02597481
v -0.05358650 0.02832687 0.00529396
v -0.05369469 0.04687852 0.00688448
v -0.05364961 0.02168606 0.00622406
v -0.05028448 0.02826056 0.00092959
v -0.05597062 0.03332320 0.03290652
v -0.05632946 0.02156387 0.03758708
v -0.05645873 0.00161509 0.04068588
v -0.05616970 0.04842918 0.03648224
v -0.05037239 0.00061335 0.00636302
v -0.05177068 0.03757394 0.00189479
v -0.05712188 0.04596700 0.04955577
v -0.05068174 0.00138769 0.00139319
v -0.05379328 0.02419305 0.00771785
v -0.05606787 0.03486780 0.03418404
v -0.05593832 0.02995180 0.03234710
v -0.05708939 0.03144440 0.04829271
v -0.05682442 0.03163652 0.04441968
v -0.05340486 0.01935170 0.00461902
v -0.05717791 0.03883843 0.04978290
v -0.05449328 0.00009249 0.01734343
v -0.05677119 0.00767804 0.04456680
v -0.05366943 0.03903044 0.00589879
v -0.05002948 0.04866930 0.00204167
v -0.05415627 0.04608888 0.01170288
v -0.05670684 0.03246224 0.04272547
v -0.05421012 0.04784817 0.01249317
v -0.05360533 0.04788729 0.00724081
v -0.05381282 0.04592619 0.00783904
v -0.05414272 0.02454628 0.01174808
v -0.05339345 0.00068491 0.00449368
v -0.05000026 0.04976217 0.00404055
v -0.05713171 0.01118032 0.04971675
v -0.05637734 0.04977428 0.03947923
v -0.05689966 0.00714499 0.04646156
v -0.05716929 0.02925144 0.04954293
v -0.05399496 0.04812163 0.04788408
v -0.05622025 0.03542159 0.03617658
v -0.05078565 0.00485847 0.00038996
v -0.05664487 0.04954845 0.04344732
v -0.05687056 0.00067063 0.04637113
v -0.05409241 0.04508201 0.04907824
v -0.05137485 0.03140095 0.00106700
v -0.05369090 0.01721807 0.00688085
v -0.05355704 0.02584672 0.00509208
v -0.05454885 0.04823592 0.01647581
v -0.05465712 0.04880306 0.01780319
v -0.05007568 0.04249755 0.00160738
v -0.05593190 0.02744021 0.03239496
v -0.05709912 0.04711112 0.04955973
v -0.05365183 0.04997497 0.04373932
v -0.05379235 0.00039373 0.00897260
v -0.05370790 0.02708020 0.00665276
v -0.05685493 0.00390440 0.04596154
v -0.05151547 0.00218139 0.00063841
v -0.05377904 0.00253415 0.00870167
v -0.05637367 0.03349021 0.03816398
v -0.05582242 0.00067888 0.03315574
v -0.05337617 0.00308404 0.00439347
f 4 20 72
f 50 4 72
f 72 80 50
f 72 20 62
f 25 30 6
f 4 30 25
f 50 80 42
f 64 81 62
f 81 80 67
f 80 72 67
f 62 81 67
f 67 72 62
f 40 20 4
f 40 25 6
f 4 25 40
f 27 11 50
f 70 80 81
f 81 64 70
f 73 78 18
f 54 78 73
f 62 54 13
f 54 73 13
f 13 73 41
f 19 40 6
f 61 43 19
f 43 40 19
f 7 4 50
f 7 30 4
f 50 11 47
f 47 66 50
f 11 27 56
f 6 30 51
f 58 77 62
f 62 13 58
f 58 13 33
f 26 64 62
f 62 77 26
f 80 70 8
f 8 70 64
f 8 64 42
f 8 42 80
f 41 75 53
f 33 13 53
f 53 13 41
f 49 75 41
f 50 66 63
f 63 7 50
f 11 56 48
f 48 56 37
f 88 51 30
f 71 29 38
f 71 88 30
f 38 88 71
f 57 58 33
f 77 58 57
f 16 78 54
f 20 40 16
f 62 20 16
f 16 54 62
f 16 40 43
f 43 69 16
f 83 53 32
f 32 53 75
f 32 34 83
f 75 34 32
f 15 75 61
f 6 51 82
f 82 19 6
f 61 19 82
f 61 75 89
f 75 49 89
f 41 73 23
f 22 82 51
f 59 57 33
f 57 59 55
f 79 22 37
f 82 22 79
f 78 16 35
f 18 78 35
f 35 73 18
f 35 23 73
f 28 34 75
f 75 15 28
f 61 82 9
f 9 15 61
f 34 28 9
f 9 28 15
f 61 89 85
f 85 43 61
f 85 69 43
f 85 89 49
f 85 49 41
f 41 23 85
f 17 63 66
f 17 65 63
f 84 65 29
f 63 65 84
f 29 65 52
f 51 88 14
f 14 22 51
f 14 88 38
f 37 22 14
f 14 29 37
f 38 29 14
f 77 57 76
f 57 55 76
f 3 55 5
f 5 55 59
f 5 53 3
f 33 53 5
f 5 59 33
f 37 56 87
f 64 26 39
f 39 26 77
f 10 76 55
f 77 76 10
f 3 53 10
f 12 16 69
f 12 35 16
f 23 35 12
f 69 85 24
f 24 85 23
f 24 12 69
f 23 12 24
f 37 29 21
f 29 52 21
f 46 79 37
f 37 87 46
f 46 87 68
f 46 68 45
f 46 10 53
f 45 68 1
f 77 45 1
f 1 39 77
f 2 55 3
f 3 10 2
f 2 10 55
f 36 45 77
f 36 46 45
f 77 10 36
f 10 46 36
f 31 53 83
f 31 46 53
f 79 46 31
f 82 79 31
f 74 31 60
f 34 9 74
f 82 31 86
f 31 74 86
f 86 9 82
f 86 74 9
f 44 74 60
f 60 31 44
f 44 31 83
f 83 34 44
f 34 74 44
f 7 63 84
f 30 7 84
f 84 71 30
f 29 71 84
f 11 48 21
f 21 48 37
f 21 17 66
f 21 47 11
f 66 47 21
f 65 17 21
f 21 52 65
f 50 42 1
f 1 56 27
f 42 64 1
f 1 27 50
f 1 87 56
f 68 87 1
f 64 39 1

