# https://github.com/mikedh/trimesh
v 0.05012683 -0.03842050 0.27679664
v 0.05429054 -0.03102721 0.27759604
v 0.05562005 -0.00155858 0.27778547
v 0.05263185 -0.02659122 0.28050122
v 0.06633893 -0.03534271 0.25446716
v 0.06449873 -0.04741602 0.25555659
v 0.06701571 -0.00051617 0.25676304
v 0.05574622 -0.03360273 0.27510932
v 0.06625093 -0.00308855 0.25039217
v 0.05210752 -0.00151141 0.28297448
v 0.05585160 -0.04779511 0.25034109
v 0.05735153 -0.00445123 0.27519193
v 0.05610311 -0.00003686 0.27160658
v 0.05401748 -0.00123708 0.28016565
v 0.06795421 -0.03131960 0.25110011
v 0.06084378 -0.04949964 0.26278666
v 0.05146120 -0.04945348 0.27752500
v 0.06003727 -0.01082372 0.27040582
v 0.06731666 -0.01320457 0.25545009
v 0.05078168 -0.00411839 0.26248156
v 0.05938251 -0.01071841 0.27157231
v 0.05664217 -0.03463843 0.27355730
v 0.05165240 -0.03142425 0.28102011
v 0.06823052 -0.03183715 0.25028125
v 0.06788610 -0.03559411 0.25041516
v 0.05406600 -0.01855265 0.27954484
v 0.06545173 -0.04213595 0.25480652
v 0.06043950 -0.02843999 0.26796326
v 0.05018614 -0.00042567 0.28050414
v 0.06493299 -0.00051171 0.25403943
v 0.05485295 -0.01296756 0.27871910
v 0.05825798 -0.03489796 0.27084932
v 0.05928554 -0.01653730 0.27154449
v 0.05018743 -0.03916355 0.27653048
v 0.06585002 -0.04807774 0.25195840
v 0.06316162 -0.01576478 0.26422204
v 0.06257969 -0.01686660 0.26539547
v 0.06552171 -0.03362588 0.25673554
v 0.05355344 -0.02735746 0.27924621
v 0.05961250 -0.04194013 0.26697847
v 0.06485207 -0.03809436 0.25732925
v 0.05461915 -0.03414008 0.27661628
v 0.06683011 -0.02496537 0.25514759
v 0.06884572 -0.00588649 0.25187915
v 0.05988488 -0.04729856 0.26522998
v 0.05020712 -0.03376046 0.28242823
v 0.05068457 -0.00092826 0.28263946
v 0.05787258 -0.01324246 0.27410016
v 0.05067631 -0.02416881 0.28323073
v 0.06626024 -0.04651017 0.25134977
v 0.05286625 -0.03431340 0.27904045
v 0.06290745 -0.04899051 0.25082577
v 0.05661052 -0.01893152 0.27557991
v 0.05903134 -0.04991894 0.25955125
v 0.05767415 -0.04998400 0.26229869
v 0.05214353 -0.04941672 0.26337931
v 0.06052978 -0.04922045 0.26348483
v 0.05053364 -0.00037696 0.28006663
v 0.06819875 -0.01962330 0.25264764
v 0.05547940 -0.03935601 0.27424641
v 0.06615442 -0.03009569 0.25591949
v 0.06762188 -0.00300911 0.25519271
v 0.06231361 -0.00578146 0.26647105
v 0.06165444 -0.00291481 0.26771063
v 0.05077099 -0.04560163 0.27431999
v 0.05377049 -0.04866588 0.27464675
v 0.06715046 -0.01858431 0.25543295
v 0.05294001 -0.03414502 0.27897624
v 0.06186249 -0.00996068 0.26717585
v 0.05508374 -0.03493774 0.27578622
v 0.05004289 -0.00474130 0.28223084
v 0.06235129 -0.01489523 0.26600427
v 0.06209299 -0.01746701 0.26632433
v 0.05532153 -0.00084443 0.26610674
v 0.06774319 -0.01953952 0.25382423
v 0.06939300 -0.01176654 0.25008261
v 0.06022728 -0.03102891 0.26797316
v 0.06808231 -0.01865099 0.25310541
v 0.05710761 -0.00860966 0.27544265
v 0.06604388 -0.00005336 0.25886597
v 0.06916660 -0.01065350 0.25078186
v 0.05928738 -0.03932182 0.26816535
v 0.06898218 -0.02116475 0.25036572
v 0.06433036 -0.00315132 0.26236736
v 0.06720719 -0.01407866 0.25563812
v 0.05067769 -0.02678861 0.28286850
v 0.05817453 -0.01022109 0.27372288
v 0.06388550 -0.04519625 0.25757880
v 0.05442977 -0.01806540 0.27908278
v 0.06912361 -0.01753472 0.25036905
v 0.05600925 -0.02985417 0.27517376
v 0.05097256 -0.02342715 0.28300385
v 0.06512860 -0.03486201 0.25737087
v 0.06827976 -0.01347583 0.25296239
v 0.06006359 -0.04843155 0.26460779
v 0.05753497 -0.00356862 0.27493275
v 0.06449380 -0.04605467 0.25598151
v 0.06609871 -0.03652199 0.25485087
v 0.05484046 -0.00215469 0.26276804
v 0.06876730 -0.02379498 0.25042679
v 0.06185063 -0.00070502 0.26741171
v 0.06254919 -0.04985217 0.25919642
v 0.05925246 -0.04914390 0.26589852
v 0.05096761 -0.01829062 0.25159151
v 0.06254563 -0.04876193 0.25947563
v 0.05095804 -0.04656000 0.27403060
v 0.06782915 -0.00318599 0.25464716
v 0.05385586 -0.04933080 0.25454303
v 0.06330757 -0.03556666 0.26098714
v 0.06707284 -0.01816294 0.25565899
v 0.06746035 -0.01182678 0.25516698
v 0.06755678 -0.03058554 0.25225573
v 0.05874476 -0.04887527 0.26684664
v 0.06030469 -0.03794829 0.26654074
v 0.06749163 -0.00469096 0.25544527
v 0.05856271 -0.00144160 0.27323783
v 0.05186471 -0.01765646 0.28268240
v 0.05081621 -0.04565684 0.27924837
v 0.06152006 -0.03731298 0.26423445
v 0.05776417 -0.02194846 0.27341433
v 0.05324517 -0.02210943 0.28036348
v 0.06490063 -0.01630256 0.26046558
v 0.05036401 -0.02125078 0.28326377
f 71 104 1
f 55 108 54
f 54 108 52
f 71 123 47
f 123 10 47
f 11 108 104
f 52 108 11
f 11 9 76
f 104 9 11
f 46 123 71
f 71 1 46
f 20 9 104
f 30 9 20
f 20 104 71
f 76 9 44
f 118 46 1
f 118 65 17
f 104 108 56
f 56 65 104
f 55 17 56
f 56 108 55
f 34 1 104
f 104 65 34
f 34 118 1
f 65 118 34
f 117 31 10
f 89 31 117
f 50 35 52
f 7 9 30
f 30 80 7
f 7 44 9
f 17 65 106
f 106 56 17
f 65 56 106
f 116 3 96
f 48 31 89
f 123 46 49
f 49 10 123
f 49 117 10
f 17 103 66
f 66 118 17
f 30 20 99
f 99 74 30
f 20 74 99
f 13 80 30
f 30 74 13
f 107 7 62
f 44 7 107
f 46 118 51
f 118 66 51
f 51 66 68
f 8 89 39
f 91 89 8
f 8 120 91
f 91 120 89
f 89 120 53
f 53 120 33
f 53 48 89
f 33 48 53
f 14 96 3
f 10 31 14
f 14 47 10
f 116 101 14
f 14 3 116
f 14 101 80
f 80 13 14
f 31 48 79
f 116 96 87
f 87 48 33
f 24 11 76
f 35 50 25
f 25 98 35
f 25 50 52
f 52 11 25
f 11 24 25
f 113 66 103
f 102 54 52
f 52 35 102
f 55 54 102
f 102 17 55
f 29 74 20
f 71 47 29
f 29 20 71
f 72 7 80
f 121 39 89
f 8 39 2
f 31 79 12
f 12 14 31
f 96 14 12
f 33 18 21
f 21 87 33
f 116 87 21
f 18 64 21
f 66 113 60
f 8 70 60
f 60 70 66
f 68 66 42
f 66 70 42
f 42 70 8
f 8 2 42
f 42 39 68
f 42 2 39
f 102 97 88
f 58 13 74
f 74 29 58
f 58 29 47
f 47 14 58
f 58 14 13
f 101 64 63
f 63 64 18
f 73 72 33
f 37 72 73
f 103 57 95
f 22 120 8
f 8 60 22
f 22 60 113
f 37 73 38
f 83 24 76
f 89 117 26
f 26 121 89
f 117 121 26
f 117 49 92
f 92 121 117
f 35 98 27
f 98 97 27
f 16 57 103
f 16 103 17
f 17 102 16
f 84 72 80
f 84 63 72
f 80 101 84
f 101 63 84
f 103 95 45
f 62 7 115
f 7 19 115
f 7 72 36
f 36 19 7
f 36 72 37
f 76 44 81
f 61 110 37
f 37 38 61
f 61 38 98
f 76 81 78
f 39 121 4
f 121 92 4
f 86 49 46
f 46 92 86
f 86 92 49
f 35 27 6
f 6 27 97
f 6 102 35
f 6 97 102
f 102 88 105
f 105 16 102
f 72 63 69
f 33 72 69
f 69 18 33
f 120 22 32
f 33 120 32
f 94 81 44
f 19 78 94
f 94 78 81
f 37 110 122
f 122 36 37
f 19 36 122
f 77 109 28
f 28 109 73
f 28 73 33
f 33 32 28
f 28 32 77
f 93 38 73
f 73 109 93
f 98 38 93
f 77 32 82
f 82 22 113
f 82 32 22
f 41 105 88
f 16 105 41
f 41 93 109
f 98 93 41
f 41 97 98
f 41 88 97
f 67 19 110
f 67 78 19
f 110 61 67
f 83 78 59
f 90 83 76
f 76 78 90
f 90 78 83
f 23 92 46
f 23 4 92
f 39 4 23
f 68 39 23
f 46 51 23
f 23 51 68
f 111 115 19
f 19 94 111
f 110 19 85
f 85 122 110
f 19 122 85
f 5 61 98
f 5 112 61
f 5 15 112
f 103 45 40
f 78 67 75
f 75 59 78
f 112 15 100
f 100 15 24
f 24 83 100
f 114 40 45
f 82 40 114
f 77 82 114
f 61 112 43
f 43 67 61
f 43 75 67
f 119 41 109
f 119 109 77
f 77 114 119
f 12 79 48
f 12 87 96
f 48 87 12
f 21 64 101
f 21 101 116
f 69 63 18
f 111 94 44
f 111 107 62
f 44 107 111
f 62 115 111
f 5 25 24
f 98 25 5
f 24 15 5
f 40 82 113
f 40 113 103
f 83 59 43
f 43 100 83
f 59 75 43
f 112 100 43
f 57 16 119
f 119 95 57
f 16 41 119
f 119 45 95
f 119 114 45

