# https://github.com/mikedh/trimesh
v 0.06716269 -0.05458425 0.08049991
v 0.06448171 -0.05611394 0.05330947
v 0.06655809 -0.06278734 0.09897626
v 0.06527793 -0.05514737 0.06009782
v 0.05101099 -0.05007908 0.09937715
v 0.05114683 -0.08934288 0.09200063
v 0.06593152 -0.06015191 0.07998211
v 0.06654090 -0.06138588 0.09243365
v 0.06754398 -0.05714600 0.09099713
v 0.06744638 -0.05135700 0.07740373
v 0.06751387 -0.05480609 0.08554827
v 0.05359955 -0.07794382 0.05207360
v 0.06816835 -0.05730092 0.09960399
v 0.05618480 -0.08226059 0.08304705
v 0.06456750 -0.05521413 0.05258645
v 0.06001360 -0.07006504 0.05446874
v 0.05967971 -0.06969174 0.05124496
v 0.05032894 -0.07980459 0.05084853
v 0.06549066 -0.05163561 0.05626546
v 0.06696275 -0.05091029 0.07053998
v 0.05581985 -0.08071092 0.06921529
v 0.06726552 -0.05206770 0.07657084
v 0.05021006 -0.06583271 0.08394012
v 0.05810177 -0.07571249 0.06266759
v 0.06644625 -0.05051523 0.09952083
v 0.05246670 -0.08706360 0.08294399
v 0.05976291 -0.07328423 0.06771732
v 0.05226561 -0.07868911 0.05117658
v 0.06128671 -0.06766334 0.05677013
v 0.05062647 -0.08562140 0.06626801
v 0.05872352 -0.07458211 0.06291885
v 0.06124894 -0.06879411 0.06182060
v 0.05526393 -0.08397954 0.08543274
v 0.05573330 -0.07657421 0.05385526
v 0.06744913 -0.06002662 0.09801141
v 0.05235349 -0.08707389 0.08199551
v 0.06512388 -0.05353809 0.05557364
v 0.05941572 -0.07479671 0.07208082
v 0.06111255 -0.06649834 0.05114818
v 0.05687084 -0.07780332 0.06277437
v 0.05946151 -0.07088636 0.05357623
v 0.05854523 -0.07519966 0.06436104
v 0.06122427 -0.05592944 0.05115637
v 0.05010776 -0.06391907 0.07434202
v 0.06236552 -0.06969123 0.08089188
v 0.06659359 -0.05517143 0.07479013
v 0.05613891 -0.07579993 0.05317352
v 0.05135559 -0.08951808 0.09613030
v 0.05569865 -0.08440394 0.09310395
v 0.06561059 -0.05849744 0.07108348
v 0.05032856 -0.08180961 0.05529802
v 0.05398267 -0.08522994 0.08227959
v 0.05545680 -0.05015246 0.05523121
v 0.05018050 -0.08997747 0.09105741
v 0.05312614 -0.08625517 0.08194015
v 0.05339842 -0.08548453 0.07870426
v 0.05415133 -0.05465425 0.05015599
v 0.05920624 -0.07393975 0.06447758
v 0.06363973 -0.06975403 0.09922591
v 0.06602736 -0.05836570 0.07532403
v 0.05791689 -0.08183501 0.09987860
v 0.05525868 -0.08406120 0.08595481
v 0.06432707 -0.06658202 0.08998660
v 0.06520412 -0.05185491 0.05364571
v 0.05308542 -0.05013376 0.06104641
v 0.06017082 -0.07064377 0.05857345
v 0.06702284 -0.06148303 0.09859482
v 0.06014686 -0.07140730 0.06205252
v 0.05738048 -0.08265061 0.09933130
v 0.05743944 -0.08051694 0.08576184
v 0.06243494 -0.06368177 0.05413963
v 0.05535480 -0.07959951 0.06141233
v 0.05471150 -0.05164230 0.05052782
v 0.05009498 -0.06336896 0.07242445
v 0.05186024 -0.05198082 0.05240561
v 0.05688988 -0.08319558 0.09776871
v 0.06827586 -0.05012085 0.08553271
v 0.05081390 -0.08798300 0.07728241
v 0.05161735 -0.08213632 0.05841019
v 0.05597564 -0.08304058 0.08634512
v 0.06007415 -0.07034726 0.05619927
v 0.06096758 -0.06995299 0.06413994
v 0.05523005 -0.08584370 0.09936404
v 0.05018392 -0.05657295 0.05015864
v 0.05436600 -0.07709318 0.05163715
v 0.05322571 -0.07884612 0.09967186
v 0.05955238 -0.07886837 0.09908119
v 0.06279168 -0.06801155 0.07750799
v 0.06529212 -0.06494181 0.09388152
v 0.05033893 -0.08855214 0.07824853
v 0.05079754 -0.08448470 0.09832913
v 0.05519604 -0.08022851 0.06308372
v 0.06776930 -0.05273202 0.08445645
v 0.06633754 -0.05524957 0.07191412
v 0.06250421 -0.05012190 0.05379315
v 0.05145824 -0.07892310 0.05056251
v 0.05360364 -0.08123783 0.06055311
v 0.06275996 -0.05007950 0.05624068
v 0.06504353 -0.05426092 0.05593264
v 0.06105596 -0.06739587 0.05358169
v 0.05798235 -0.07548442 0.06051114
v 0.05001383 -0.08635438 0.09391829
v 0.06651569 -0.05299824 0.06946856
v 0.06587729 -0.06362935 0.09457266
v 0.05226737 -0.08881331 0.09904894
v 0.05246258 -0.07814130 0.05033308
v 0.06873380 -0.05024142 0.09186037
v 0.05300520 -0.07922048 0.05386039
v 0.05002016 -0.08017696 0.08212722
v 0.05869727 -0.07568944 0.06896247
v 0.06023255 -0.06871434 0.05129673
v 0.05644534 -0.07757523 0.05937951
v 0.06585169 -0.06050433 0.08047651
v 0.05676423 -0.07667286 0.05776792
v 0.06864316 -0.05379696 0.09833284
v 0.05009391 -0.07691395 0.09107641
v 0.05101243 -0.05759172 0.09978901
v 0.05596104 -0.08260145 0.08308321
v 0.06470186 -0.05734130 0.05795506
v 0.06461607 -0.05778873 0.05815396
v 0.06051391 -0.07722658 0.09988660
v 0.05004069 -0.07905468 0.05771683
f 107 5 25
f 5 84 74
f 106 84 57
f 77 5 107
f 75 65 53
f 75 84 5
f 5 65 75
f 102 5 116
f 116 74 102
f 53 65 98
f 5 77 98
f 98 65 5
f 73 75 53
f 73 43 57
f 64 43 73
f 57 84 73
f 84 75 73
f 117 25 5
f 121 13 117
f 117 13 25
f 117 5 102
f 102 91 117
f 122 74 84
f 78 90 30
f 107 25 115
f 25 13 115
f 23 116 5
f 15 43 64
f 53 98 95
f 95 73 53
f 64 73 95
f 95 98 77
f 77 20 95
f 121 117 61
f 61 117 86
f 83 69 61
f 102 74 109
f 109 122 102
f 74 122 109
f 18 122 84
f 78 30 92
f 92 56 78
f 21 56 92
f 121 82 45
f 121 45 59
f 67 29 8
f 82 29 32
f 21 92 40
f 74 116 44
f 116 23 44
f 5 74 44
f 44 23 5
f 37 15 64
f 8 29 113
f 29 7 113
f 113 67 8
f 7 67 113
f 64 95 19
f 19 95 20
f 19 37 64
f 20 37 19
f 14 61 69
f 78 56 55
f 90 6 54
f 102 122 54
f 54 122 90
f 121 61 87
f 47 17 114
f 84 106 96
f 96 18 84
f 18 96 28
f 28 96 106
f 90 122 51
f 122 18 51
f 51 30 90
f 18 28 51
f 97 92 30
f 29 100 71
f 71 7 29
f 88 45 82
f 82 32 88
f 13 67 35
f 35 67 7
f 3 59 89
f 89 88 3
f 29 67 3
f 3 32 29
f 3 67 13
f 3 13 121
f 121 59 3
f 27 82 121
f 121 58 27
f 42 58 110
f 121 87 110
f 66 29 82
f 21 40 24
f 24 110 21
f 42 110 24
f 114 40 112
f 10 20 77
f 99 37 20
f 15 37 99
f 76 69 83
f 83 6 26
f 26 55 83
f 105 117 91
f 86 117 105
f 105 61 86
f 83 61 105
f 85 28 106
f 106 17 85
f 17 47 85
f 85 97 108
f 30 51 79
f 79 97 30
f 108 97 79
f 79 28 108
f 79 51 28
f 114 112 72
f 92 97 72
f 120 71 2
f 2 119 120
f 15 99 2
f 63 88 89
f 45 88 63
f 89 59 63
f 63 59 45
f 104 88 32
f 32 3 104
f 104 3 88
f 38 58 121
f 121 110 38
f 38 110 58
f 70 110 87
f 61 14 70
f 70 87 61
f 70 14 21
f 21 110 70
f 68 66 82
f 58 66 68
f 82 27 68
f 68 27 58
f 111 100 16
f 16 100 29
f 101 40 114
f 101 24 40
f 93 11 1
f 93 10 77
f 1 10 93
f 1 11 9
f 13 35 9
f 20 10 22
f 22 10 1
f 119 2 4
f 4 2 99
f 20 22 46
f 46 22 1
f 1 9 46
f 83 55 52
f 52 62 83
f 52 55 56
f 49 76 83
f 83 62 49
f 49 14 69
f 69 76 49
f 21 14 118
f 78 55 36
f 55 26 36
f 36 90 78
f 36 6 90
f 36 26 6
f 48 54 6
f 48 6 83
f 83 105 48
f 48 105 91
f 48 91 102
f 102 54 48
f 108 28 12
f 12 85 108
f 28 85 12
f 34 85 47
f 97 85 34
f 34 72 97
f 34 47 114
f 114 72 34
f 39 2 71
f 39 100 111
f 39 71 100
f 15 2 39
f 43 15 39
f 111 17 39
f 39 17 106
f 39 106 57
f 57 43 39
f 29 66 81
f 81 16 29
f 81 66 58
f 114 17 41
f 41 101 114
f 16 101 41
f 41 17 111
f 111 16 41
f 60 35 7
f 60 9 35
f 120 119 60
f 119 94 60
f 94 46 60
f 60 46 9
f 103 94 119
f 119 4 103
f 103 99 20
f 103 4 99
f 14 49 80
f 80 49 62
f 21 118 33
f 33 56 21
f 33 52 56
f 62 52 33
f 31 101 16
f 16 81 31
f 31 81 58
f 24 101 31
f 31 58 42
f 42 24 31
f 120 60 50
f 50 60 7
f 50 71 120
f 7 71 50
f 72 112 40
f 72 40 92
f 107 115 9
f 9 77 107
f 9 115 13
f 9 93 77
f 11 93 9
f 103 46 94
f 20 46 103
f 33 80 62
f 14 80 33
f 33 118 14

