# https://github.com/mikedh/trimesh
v 0.05000460 -0.02824281 0.40443819
v 0.05019827 -0.02442650 0.40164095
v 0.05029144 -0.03190067 0.40131647
v 0.05038085 -0.03125910 0.40166489
v 0.05025299 -0.03192669 0.40260733
v 0.05003527 -0.02706979 0.40421218
v 0.05055750 -0.02533021 0.40036285
v 0.05004555 -0.03120922 0.40413638
v 0.05050014 -0.02446784 0.40078561
v 0.05057133 -0.02956752 0.40026088
v 0.05060330 -0.02330793 0.40002520
v 0.05002660 -0.02616949 0.40367801
v 0.05001882 -0.03285975 0.40210863
v 0.05023643 -0.03215535 0.40272662
v 0.05021111 -0.02574494 0.40291603
v 0.05013344 -0.03211887 0.40348854
v 0.05028737 -0.03151074 0.40036136
v 0.05055230 -0.03061882 0.40026998
f 11 18 17
f 17 2 11
f 13 2 17
f 10 18 11
f 11 2 12
f 12 13 1
f 12 2 13
f 8 9 1
f 1 13 8
f 7 10 11
f 13 14 16
f 16 8 13
f 9 8 16
f 11 9 16
f 16 7 11
f 3 14 13
f 18 14 3
f 13 17 3
f 3 17 18
f 18 10 4
f 4 14 18
f 10 7 4
f 6 12 1
f 1 9 6
f 6 9 11
f 5 16 14
f 14 4 5
f 7 16 5
f 5 4 7
f 11 12 15
f 15 6 11
f 12 6 15

