# https://github.com/mikedh/trimesh
v -0.06661589 -0.00352241 0.21138165
v -0.06640387 -0.02397077 0.21063691
v -0.06642702 -0.01666806 0.21374561
v -0.06534820 -0.00029464 0.23970799
v -0.06532029 -0.04916270 0.20610987
v -0.06398295 -0.02897859 0.24988967
v -0.06627740 -0.00092505 0.22727408
v -0.06622119 -0.00297621 0.22861165
v -0.06349373 -0.00063916 0.20045814
v -0.06615625 -0.03173791 0.20753469
v -0.06574554 -0.04406107 0.20735018
v -0.06633748 -0.02644088 0.21037259
v -0.06197440 -0.00034765 0.24314627
v -0.06637662 -0.01177196 0.20114202
v -0.06485922 -0.00114918 0.24468622
v -0.06580185 -0.00296200 0.23484815
v -0.06491452 -0.04913736 0.23436170
v -0.06582495 -0.04284643 0.21170407
v -0.06549755 -0.04794243 0.22078080
v -0.06533501 -0.04501624 0.23143923
v -0.06348017 -0.00120809 0.20002519
v -0.06564931 -0.02737188 0.23448787
v -0.06458633 -0.04656899 0.24100164
v -0.06395670 -0.04738695 0.24716580
v -0.06599761 -0.01442414 0.23128251
v -0.06456222 -0.04576444 0.24193146
v -0.06598022 -0.01908224 0.23089870
v -0.06536878 -0.04773138 0.20037917
v -0.06661474 -0.00257505 0.21244084
v -0.06628481 -0.02857149 0.20897376
v -0.05521161 -0.04936176 0.21209126
v -0.06608275 -0.03318059 0.20603810
v -0.06351809 -0.00046777 0.20179887
v -0.06415297 -0.04490808 0.24655891
v -0.06409723 -0.02212492 0.24976359
v -0.06440013 -0.04202262 0.24486736
v -0.06641071 -0.02290783 0.21148517
v -0.06658361 -0.00360869 0.20760892
v -0.06647608 -0.00153139 0.21870710
v -0.05728540 -0.00342996 0.20207945
v -0.06586666 -0.04085547 0.20822659
v -0.06551343 -0.03737157 0.23257106
v -0.06538369 -0.04018912 0.23329388
v -0.06523837 -0.04794985 0.22963356
v -0.06512694 -0.04497314 0.23513181
v -0.06612800 -0.00683634 0.22984975
v -0.06503106 -0.04529742 0.23657058
v -0.06596008 -0.00521234 0.23288099
v -0.06498154 -0.01612084 0.24349030
v -0.06628167 -0.00344216 0.22591773
v -0.06618040 -0.02344252 0.20085939
v -0.06477265 -0.01919656 0.24495187
v -0.06608245 -0.00619647 0.23078861
v -0.06567446 -0.00932049 0.23606376
v -0.06583443 -0.03916565 0.20311498
v -0.05554526 -0.04539621 0.20146870
v -0.06065893 -0.04629994 0.24980466
v -0.06645124 -0.02232439 0.21010138
v -0.06438133 -0.04553781 0.24410194
v -0.06565705 -0.04636016 0.21524911
v -0.06579470 -0.04351383 0.20987128
v -0.06613779 -0.03261647 0.20814894
v -0.06650268 -0.01898279 0.20918801
v -0.05399488 -0.03927285 0.24909877
v -0.06305045 -0.02824411 0.20003059
v -0.06643826 -0.00242248 0.20032274
v -0.06621306 -0.03039803 0.21079280
v -0.06662324 -0.00225318 0.21048843
v -0.06511668 -0.04315822 0.23621494
v -0.05699609 -0.00030547 0.24749306
v -0.06591300 -0.01703667 0.23242224
v -0.06465870 -0.02951898 0.24486764
v -0.06593026 -0.00451213 0.23331286
v -0.06408140 -0.04600773 0.24688652
v -0.06600478 -0.03383861 0.20292736
v -0.06409448 -0.01193871 0.24989444
v -0.06640720 -0.01753173 0.20457998
v -0.06532128 -0.02112870 0.23940586
v -0.06430485 -0.00636164 0.24840175
v -0.05656421 -0.00268083 0.24874180
v -0.06452150 -0.04798376 0.24061366
v -0.06512452 -0.04948294 0.22965134
v -0.06417231 -0.02311247 0.24920267
v -0.06222592 -0.04993916 0.22647468
v -0.06307540 -0.00013827 0.23147171
v -0.06658292 -0.00343063 0.20751653
v -0.06516555 -0.01905442 0.24150410
v -0.05622287 -0.03823959 0.20002018
v -0.06592511 -0.02586057 0.22996661
v -0.06553131 -0.04448463 0.22551749
v -0.06589157 -0.02578502 0.23137454
v -0.06049901 -0.04967666 0.24961298
v -0.06575699 -0.00745113 0.23520436
v -0.06582935 -0.04234116 0.20894714
v -0.06495831 -0.00344255 0.24384079
v -0.06639503 -0.01519527 0.21575334
v -0.06553922 -0.03352488 0.23403540
v -0.06532927 -0.04955098 0.20919290
v -0.06550372 -0.04826589 0.21623648
v -0.06537402 -0.04568698 0.23013414
v -0.06534444 -0.04971838 0.21949946
v -0.06484777 -0.01728778 0.24444816
v -0.05540212 -0.01925980 0.24903482
v -0.06391463 -0.04430656 0.24845909
v -0.06656013 -0.01120468 0.21056341
v -0.06540530 -0.04851782 0.20725562
v -0.06496114 -0.04793517 0.23497878
v -0.05528302 -0.04842511 0.20767639
v -0.06518782 -0.04956798 0.20077163
v -0.06436414 -0.04469819 0.24453732
v -0.06607725 -0.01008326 0.23036834
v -0.05490213 -0.04974494 0.22742037
v -0.05706663 -0.01579792 0.20013802
v -0.06588536 -0.02684859 0.23091798
v -0.06553078 -0.02443658 0.23651365
v -0.06636597 -0.02170387 0.20521499
v -0.06099141 -0.00770402 0.24988575
v -0.06581885 -0.02842582 0.23200735
v -0.06645950 -0.01708903 0.21219610
v -0.06543212 -0.04711584 0.20040423
v -0.06646660 -0.02281650 0.20865741
v -0.06467322 -0.04781683 0.23898138
v -0.06632329 -0.02741610 0.20903574
v -0.06564978 -0.04473024 0.20307883
v -0.06506114 -0.02801841 0.24109632
v -0.05335135 -0.04958507 0.24906401
v -0.06643251 -0.02269357 0.21069403
v -0.06487405 -0.00219411 0.24455853
v -0.06456306 -0.03568690 0.24474392
v -0.06536352 -0.04598047 0.22998434
v -0.06659596 -0.00612124 0.21158253
v -0.06429893 -0.04799684 0.24319544
v -0.06660317 -0.00501941 0.21179167
v -0.06531023 -0.04635406 0.23058120
v -0.06563432 -0.04708433 0.21327259
v -0.06507498 -0.04793540 0.23307188
v -0.05721365 -0.00369047 0.20102039
v -0.06554938 -0.04202695 0.22800447
v -0.06438836 -0.01053627 0.24789473
v -0.06391859 -0.03290576 0.24984449
v -0.06386068 -0.04664313 0.24826758
v -0.06236743 -0.04799140 0.20017921
v -0.05839261 -0.00006056 0.21844235
v -0.06649723 -0.01879982 0.20860231
v -0.06640999 -0.01153009 0.20203286
v -0.06557529 -0.04762280 0.21447640
f 70 80 137
f 31 108 126
f 109 108 31
f 88 137 56
f 126 108 56
f 56 137 126
f 79 15 76
f 70 15 79
f 79 80 70
f 113 137 88
f 84 109 112
f 109 31 112
f 126 84 112
f 112 31 126
f 142 108 109
f 142 56 108
f 109 28 142
f 88 56 142
f 142 65 88
f 142 28 65
f 101 109 84
f 92 140 141
f 57 140 92
f 141 24 92
f 126 57 92
f 17 82 92
f 92 84 126
f 92 101 84
f 82 101 92
f 76 15 139
f 13 15 70
f 117 79 76
f 80 79 117
f 117 103 80
f 117 57 126
f 17 92 132
f 132 92 24
f 137 113 21
f 88 65 21
f 21 113 88
f 64 117 126
f 103 117 64
f 126 137 64
f 64 137 80
f 80 103 64
f 85 143 33
f 70 143 85
f 136 82 17
f 6 140 57
f 6 117 76
f 57 117 6
f 86 38 68
f 116 14 51
f 137 21 9
f 33 143 9
f 65 28 66
f 66 21 65
f 51 14 66
f 66 14 145
f 66 9 21
f 33 9 66
f 66 86 68
f 68 39 66
f 66 7 33
f 66 39 7
f 29 39 68
f 141 140 104
f 140 6 104
f 76 139 35
f 35 6 76
f 120 75 51
f 120 66 28
f 51 66 120
f 5 106 120
f 120 28 109
f 109 5 120
f 145 14 121
f 51 75 121
f 121 116 51
f 98 106 5
f 109 101 98
f 98 5 109
f 17 132 81
f 81 122 17
f 107 136 17
f 107 47 136
f 17 122 107
f 122 47 107
f 137 9 40
f 40 9 143
f 70 137 40
f 40 143 70
f 128 95 49
f 15 95 128
f 4 95 15
f 7 16 4
f 15 13 4
f 33 7 4
f 4 85 33
f 4 13 70
f 70 85 4
f 1 29 68
f 49 87 72
f 72 104 6
f 102 128 49
f 71 48 53
f 53 25 71
f 75 120 124
f 145 121 144
f 14 116 77
f 77 121 14
f 116 121 77
f 32 121 75
f 47 118 42
f 71 118 22
f 48 73 8
f 8 53 48
f 8 16 7
f 8 73 16
f 7 50 8
f 93 87 16
f 16 73 93
f 133 1 131
f 29 1 133
f 110 22 59
f 110 59 34
f 125 72 87
f 49 72 52
f 52 102 49
f 38 144 63
f 68 38 63
f 63 144 121
f 63 58 131
f 121 58 63
f 131 58 119
f 91 118 71
f 146 98 101
f 121 30 123
f 75 124 55
f 55 32 75
f 10 30 121
f 121 32 10
f 20 47 45
f 20 42 118
f 71 22 115
f 22 125 115
f 115 87 78
f 115 125 87
f 97 22 118
f 97 59 22
f 53 8 46
f 78 87 54
f 87 93 54
f 132 59 26
f 26 47 122
f 59 97 26
f 74 34 59
f 74 132 24
f 74 59 132
f 74 24 141
f 141 104 74
f 104 34 74
f 72 125 129
f 129 125 22
f 104 72 129
f 129 34 104
f 83 52 72
f 6 35 83
f 83 72 6
f 131 1 105
f 105 63 131
f 3 119 58
f 25 8 27
f 71 25 27
f 27 91 71
f 12 2 121
f 121 123 12
f 118 91 114
f 62 94 30
f 30 10 62
f 43 20 45
f 42 20 43
f 82 136 44
f 135 18 61
f 135 124 120
f 135 120 106
f 106 98 135
f 98 146 135
f 69 118 47
f 69 97 118
f 47 26 69
f 69 26 97
f 111 8 25
f 111 46 8
f 132 26 23
f 23 26 122
f 36 22 110
f 36 129 22
f 110 34 36
f 34 129 36
f 7 3 96
f 96 3 58
f 96 50 7
f 67 123 18
f 67 12 123
f 2 114 37
f 61 94 11
f 11 135 61
f 124 135 11
f 134 44 136
f 136 47 134
f 90 67 18
f 12 67 90
f 2 12 90
f 89 114 91
f 89 37 114
f 2 37 127
f 127 58 121
f 121 2 127
f 94 62 41
f 41 11 94
f 100 20 118
f 47 20 100
f 100 134 47
f 18 135 60
f 60 90 18
f 138 100 118
f 90 100 138
f 118 114 138
f 2 90 138
f 138 114 2
f 44 134 130
f 134 100 130
f 90 60 19
f 19 100 90
f 19 130 100
f 19 99 101
f 44 130 19
f 135 99 19
f 19 60 135
f 19 101 82
f 82 44 19
f 4 87 49
f 49 95 4
f 16 87 4
f 144 66 145
f 86 66 144
f 38 86 144
f 123 94 61
f 61 18 123
f 30 94 123
f 54 48 71
f 71 115 54
f 54 73 48
f 54 93 73
f 54 115 78
f 83 35 139
f 83 139 15
f 15 128 83
f 128 102 83
f 102 52 83
f 105 1 68
f 68 63 105
f 29 133 3
f 39 29 3
f 7 39 3
f 3 133 131
f 131 119 3
f 47 42 43
f 45 47 43
f 53 46 111
f 25 53 111
f 122 81 23
f 23 81 132
f 99 135 146
f 99 146 101
f 91 27 127
f 127 96 58
f 37 89 127
f 127 8 50
f 50 96 127
f 127 89 91
f 127 27 8
f 41 62 10
f 124 11 41
f 41 10 32
f 41 55 124
f 32 55 41

