# https://github.com/mikedh/trimesh
v -0.05959199 -0.05673075 0.26594588
v -0.05641266 -0.08169197 0.25349137
v -0.05651172 -0.06978290 0.26679657
v -0.05607710 -0.06519148 0.27070750
v -0.05917021 -0.05004499 0.26971467
v -0.05038918 -0.08620618 0.25383046
v -0.05462966 -0.08364006 0.25602214
v -0.05990021 -0.05254232 0.26677275
v -0.05412382 -0.08170956 0.26033418
v -0.05781379 -0.05985860 0.26966427
v -0.05147374 -0.08941282 0.25514453
v -0.05074480 -0.05335019 0.26109101
v -0.05034820 -0.06846433 0.27846649
v -0.06104945 -0.05127259 0.26270795
v -0.05994573 -0.06507498 0.25982306
v -0.06032768 -0.05096433 0.26568465
v -0.05397341 -0.08773673 0.25103599
v -0.06151130 -0.05857449 0.25752107
v -0.05736425 -0.07895953 0.25472065
v -0.05191317 -0.08620756 0.25927368
v -0.06027432 -0.05343047 0.26521861
v -0.05500723 -0.07858781 0.26237472
v -0.05725651 -0.07149209 0.26335691
v -0.06111365 -0.05243567 0.26206525
v -0.05616981 -0.05120993 0.27701434
v -0.05136685 -0.07210302 0.27463975
v -0.05000848 -0.07503341 0.26848927
v -0.05091539 -0.08995788 0.25532999
v -0.05265790 -0.06618564 0.27643413
v -0.05294446 -0.07982856 0.26525709
v -0.06290697 -0.05264799 0.25239076
v -0.05877148 -0.06377715 0.26475785
v -0.05394496 -0.08779966 0.25100796
v -0.05087989 -0.05219173 0.27984065
v -0.05209661 -0.06554244 0.27764020
v -0.05128951 -0.08795315 0.25829434
v -0.05534040 -0.08561352 0.25060720
v -0.06009696 -0.06943491 0.25577774
v -0.05099340 -0.08854318 0.25787595
v -0.05225645 -0.07021880 0.27460841
v -0.06276581 -0.05269460 0.25335199
v -0.05907232 -0.07155338 0.25753109
v -0.05442538 -0.08045929 0.26138738
v -0.05441408 -0.07864997 0.26365590
v -0.05040245 -0.06595653 0.25044777
v -0.05070404 -0.07714642 0.27192546
v -0.05211294 -0.06238417 0.27928447
v -0.06006275 -0.05164031 0.25163897
v -0.05724453 -0.05701660 0.27233952
v -0.05029133 -0.08570082 0.26345836
v -0.06020726 -0.05604256 0.26417545
v -0.05562961 -0.05503117 0.27659403
v -0.05436691 -0.05284146 0.27979649
v -0.05245561 -0.08289849 0.26249623
v -0.06274652 -0.05298722 0.25333960
v -0.05907954 -0.06785194 0.26092806
v -0.05522387 -0.07798237 0.26239086
v -0.05201607 -0.08372974 0.26238630
v -0.05423099 -0.07571439 0.26662694
v -0.06247024 -0.06046260 0.25003058
v -0.05806737 -0.05233642 0.27220244
v -0.05329957 -0.05520670 0.28076084
v -0.05299532 -0.05024234 0.25098298
v -0.05751206 -0.06239540 0.26899849
v -0.05318257 -0.06086606 0.27843825
v -0.06256249 -0.05218651 0.25483553
v -0.05213678 -0.05636739 0.25052581
v -0.05297682 -0.07682017 0.26832810
v -0.05007886 -0.06295598 0.25692466
v -0.05486752 -0.06731234 0.27201742
v -0.05567722 -0.07953625 0.25941975
v -0.06088100 -0.06624623 0.25447827
v -0.05728051 -0.06684725 0.26690502
v -0.05221475 -0.05167671 0.27767703
v -0.06221896 -0.05042325 0.25715514
v -0.05027651 -0.05409153 0.28481351
v -0.05507617 -0.05392730 0.27810423
v -0.06248186 -0.05059595 0.25578954
v -0.05393587 -0.08312900 0.25876407
v -0.05488317 -0.07069538 0.26961004
v -0.05137356 -0.05562892 0.28347495
v -0.05561572 -0.06507533 0.27174950
v -0.05108329 -0.07841194 0.27006321
v -0.05637834 -0.05272210 0.27596391
v -0.06072801 -0.06975692 0.25209187
v -0.05751763 -0.05145654 0.27377120
v -0.05587742 -0.06068799 0.27355567
v -0.06160417 -0.05057708 0.26032297
v -0.06010655 -0.06314814 0.26051360
v -0.05278127 -0.06103931 0.27894766
v -0.05898921 -0.07618208 0.25110242
v -0.06147391 -0.05642786 0.25876484
v -0.05381510 -0.08252975 0.25991204
v -0.05373360 -0.06790804 0.27372502
v -0.05768543 -0.06765087 0.26518701
v -0.05286871 -0.08487782 0.25885519
v -0.06165798 -0.06599904 0.25006560
v -0.05703092 -0.06392340 0.26930061
v -0.05008991 -0.07993307 0.27013217
v -0.05176428 -0.06698056 0.27732754
v -0.06185336 -0.05028926 0.25912689
v -0.05758059 -0.06326200 0.26832187
v -0.05498965 -0.07991624 0.26076657
v -0.06202974 -0.05959294 0.25437716
v -0.05244631 -0.05409781 0.25070408
v -0.05119758 -0.08685113 0.25009603
v -0.05849777 -0.06077528 0.26749698
v -0.05681885 -0.06415082 0.26969444
f 69 76 27
f 31 78 48
f 48 78 63
f 5 63 101
f 74 63 5
f 74 34 63
f 63 34 12
f 76 69 12
f 12 34 76
f 63 78 75
f 75 101 63
f 78 101 75
f 6 69 27
f 81 13 76
f 97 106 37
f 105 67 63
f 69 6 45
f 45 12 69
f 45 6 106
f 63 12 45
f 45 105 63
f 67 105 45
f 19 37 2
f 2 71 19
f 37 71 2
f 37 106 33
f 36 33 11
f 41 78 31
f 41 66 78
f 99 6 27
f 99 50 6
f 27 76 99
f 76 13 99
f 99 13 46
f 36 50 58
f 103 79 43
f 96 79 36
f 7 71 37
f 36 79 7
f 6 50 28
f 106 6 28
f 28 33 106
f 28 11 33
f 21 16 14
f 104 92 66
f 18 92 104
f 72 38 104
f 15 18 104
f 104 38 15
f 19 71 23
f 77 62 53
f 53 81 76
f 53 62 81
f 20 58 43
f 36 58 20
f 43 58 54
f 43 54 44
f 43 79 9
f 37 33 17
f 17 7 37
f 17 33 36
f 36 7 17
f 36 11 39
f 11 28 39
f 39 50 36
f 39 28 50
f 91 37 19
f 91 97 37
f 85 38 72
f 85 104 97
f 72 104 85
f 97 91 85
f 85 91 38
f 88 14 16
f 66 92 88
f 5 101 88
f 88 16 5
f 88 101 78
f 78 66 88
f 21 14 24
f 24 92 21
f 14 88 24
f 24 88 92
f 55 41 31
f 31 104 55
f 66 41 55
f 55 104 66
f 60 104 31
f 31 48 60
f 97 104 60
f 60 48 63
f 63 67 60
f 106 97 60
f 60 45 106
f 67 45 60
f 19 23 42
f 42 91 19
f 38 91 42
f 21 92 51
f 51 92 18
f 56 42 23
f 15 38 56
f 38 42 56
f 3 23 22
f 22 44 3
f 71 103 22
f 22 103 43
f 43 44 22
f 50 99 83
f 83 99 46
f 79 96 93
f 93 9 79
f 46 13 26
f 26 40 46
f 13 40 26
f 100 40 13
f 13 35 100
f 13 81 47
f 47 35 13
f 21 51 1
f 89 51 18
f 89 18 15
f 107 1 89
f 89 1 51
f 15 56 32
f 32 89 15
f 107 89 32
f 77 53 25
f 25 74 5
f 34 74 25
f 76 34 25
f 25 53 76
f 25 52 77
f 87 52 49
f 46 40 68
f 68 59 44
f 68 83 46
f 3 44 80
f 44 59 80
f 59 68 80
f 80 40 94
f 80 68 40
f 57 23 71
f 71 22 57
f 57 22 23
f 30 58 50
f 50 83 30
f 83 68 30
f 30 68 44
f 94 40 29
f 40 100 29
f 29 100 35
f 94 29 65
f 35 47 65
f 65 29 35
f 65 52 87
f 81 62 65
f 65 62 77
f 77 52 65
f 3 108 73
f 107 32 73
f 94 65 70
f 70 65 87
f 70 80 94
f 3 80 70
f 107 61 8
f 8 1 107
f 21 1 8
f 8 61 5
f 5 16 8
f 8 16 21
f 5 61 86
f 86 25 5
f 61 25 86
f 10 61 107
f 10 49 61
f 10 108 87
f 87 49 10
f 52 25 84
f 84 49 52
f 84 25 61
f 61 49 84
f 90 47 81
f 81 65 90
f 90 65 47
f 107 73 102
f 95 32 56
f 95 73 32
f 95 56 23
f 95 23 3
f 3 73 95
f 87 108 82
f 82 70 87
f 64 10 107
f 108 10 64
f 98 73 108
f 98 102 73
f 4 82 108
f 70 82 4
f 4 108 3
f 3 70 4
f 79 103 7
f 7 103 71
f 93 96 36
f 93 20 43
f 36 20 93
f 43 9 93
f 30 54 58
f 30 44 54
f 98 64 107
f 107 102 98
f 108 64 98

