# https://github.com/mikedh/trimesh
v -0.05742783 0.03700303 0.47943648
v -0.05934932 0.02606540 0.46627900
v -0.05335270 0.03116932 0.49700667
v -0.06215108 0.02111267 0.46924020
v -0.06470075 0.01958404 0.47350056
v -0.05641652 0.03240868 0.49042806
v -0.06162975 0.02946732 0.47844332
v -0.06096235 0.03145418 0.47256429
v -0.05006816 0.03452950 0.49799042
v -0.06365315 0.01646890 0.47056100
v -0.05898580 0.03480244 0.47891925
v -0.05388024 0.03633871 0.49000457
v -0.06051934 0.02860158 0.48479607
v -0.06297898 0.01319638 0.48873912
v -0.06578466 0.00697001 0.47766131
v -0.05447465 0.03485972 0.49103516
v -0.06035406 0.02793360 0.46910679
v -0.06103826 0.00647147 0.49558105
v -0.05468029 0.03937909 0.48206905
v -0.05087312 0.04435072 0.47598516
v -0.05696091 0.03306878 0.46667716
v -0.06273968 0.01129098 0.49020686
v -0.05857043 0.01028397 0.49976101
v -0.05118174 0.04443203 0.47283409
v -0.06125910 0.00109709 0.49547865
v -0.05432387 0.00457022 0.46518061
v -0.06032605 0.02706835 0.48718427
v -0.06196600 0.02096699 0.48763238
v -0.06140343 0.02558995 0.48544730
v -0.05930832 0.03518862 0.47275032
v -0.05328815 0.04054472 0.48282469
v -0.06056274 0.02946883 0.48319712
v -0.06339023 0.02301804 0.47228880
v -0.05022230 0.03814693 0.49330763
v -0.05958226 0.03463385 0.47631564
v -0.06315850 0.00162673 0.49047865
v -0.06385295 0.01573357 0.48446376
v -0.05603624 0.03952838 0.47218885
v -0.06145285 0.00126976 0.49501451
v -0.05891362 0.03579364 0.47628160
v -0.05439273 0.04024574 0.48049641
v -0.06163636 0.02324329 0.48687034
v -0.06165477 0.00367699 0.49443904
v -0.05719119 0.03081660 0.49069321
v -0.06169962 0.03095721 0.47361785
v -0.06569495 0.01082239 0.47613126
v -0.05990335 0.00756755 0.49779566
v -0.05031944 0.02698409 0.46502043
v -0.05239288 0.04228949 0.48000771
v -0.06041918 0.00009070 0.49731606
v -0.05549909 0.03079723 0.49390863
v -0.06090477 0.01208689 0.49463339
v -0.06039465 0.02463793 0.48919939
v -0.06033623 0.03098384 0.48146151
v -0.05060717 0.04046747 0.48866644
v -0.05122743 0.04014524 0.48817036
v -0.05085581 0.04129935 0.48644048
v -0.06439737 0.00478519 0.48584832
v -0.06027673 0.00732038 0.49707300
v -0.06533891 0.00863071 0.48018450
v -0.05743313 0.03028942 0.46531951
v -0.05142128 0.04072723 0.48662277
v -0.05278945 0.03318538 0.49590185
v -0.06417833 0.01829550 0.48072003
v -0.05189786 0.03367090 0.49656964
v -0.06202195 0.02974885 0.47479538
v -0.06103098 0.02589197 0.48636721
v -0.05117777 0.03812167 0.49188501
v -0.05282315 0.02934748 0.49946943
v -0.05299896 0.04133647 0.48124003
v -0.06150266 0.01683180 0.46667444
v -0.06302417 0.00950968 0.48983227
v -0.05069217 0.00036572 0.46503532
v -0.05380110 0.04080924 0.47049226
v -0.05421535 0.04091874 0.47891162
v -0.05856070 0.03461242 0.48106101
v -0.05854716 0.03552426 0.47172094
v -0.06106529 0.02521870 0.48689020
v -0.06014874 0.02255569 0.46615474
v -0.05241317 0.03230692 0.49729688
v -0.06334509 0.00162569 0.48982379
v -0.05607358 0.03356306 0.48968219
v -0.05254091 0.03905384 0.46595340
v -0.06287820 0.01126194 0.48978843
v -0.06571021 0.00427025 0.47259367
v -0.06356083 0.02495226 0.47345319
v -0.05697447 0.03452143 0.48617578
v -0.05278967 0.03915751 0.46648485
v -0.05020614 0.04169447 0.46663142
v -0.06352098 0.02011498 0.48242927
v -0.05108808 0.04302532 0.48100110
v -0.05818212 0.03517060 0.47073475
v -0.06114974 0.00162248 0.49571822
v -0.05741447 0.03624055 0.48137874
v -0.05916387 0.03285208 0.48251907
v -0.06119866 0.02289569 0.48852176
v -0.06381410 0.02396542 0.47449009
v -0.05410175 0.03910393 0.48428594
v -0.06173559 0.00005094 0.49438802
v -0.05398072 0.02967060 0.49749978
v -0.06255674 0.00120169 0.49224584
v -0.05135094 0.03931807 0.46506178
v -0.06155892 0.00493848 0.49452634
v -0.05712182 0.03479962 0.48527819
v -0.05989816 0.02749870 0.48796378
v -0.06355733 0.02399596 0.47711746
v -0.05780513 0.03478190 0.48332128
v -0.06421829 0.01050720 0.48520744
v -0.06077337 0.00536061 0.46543865
v -0.05931364 0.02407838 0.49239939
v -0.05595625 0.03860408 0.48023442
v -0.06217778 0.02923109 0.47324446
v -0.06249248 0.01276195 0.46753619
v -0.05750426 0.01250454 0.46530786
v -0.05827723 0.03309312 0.48497807
v -0.06429519 0.00906251 0.47033353
v -0.05529059 0.02658492 0.49787392
v -0.05172804 0.03756059 0.49183619
v -0.05209637 0.03911891 0.48858767
v -0.05669990 0.03716675 0.47030242
v -0.05593906 0.03597623 0.48624786
v -0.06380532 0.02400152 0.47448385
v -0.06173178 0.00949114 0.46557513
v -0.06478605 0.01940304 0.47360180
v -0.06179864 0.01407398 0.46650080
v -0.06059506 0.02739751 0.48597768
v -0.06370517 0.00821854 0.48772859
v -0.06586882 0.00753314 0.47651441
v -0.06076572 0.02992096 0.48168149
v -0.05517423 0.04085768 0.47529406
v -0.06058269 0.01242721 0.49530644
v -0.05759671 0.03629409 0.48059776
v -0.06431398 0.01975016 0.47852051
v -0.05301506 0.03236331 0.49637376
v -0.06510603 0.01431750 0.47827818
v -0.05977359 0.02191804 0.49278048
v -0.06129640 0.00726256 0.49486285
v -0.05065465 0.02763797 0.46503384
v -0.06304307 0.00267450 0.49075847
v -0.05375460 0.03760944 0.46592716
v -0.06536586 0.01294169 0.47732729
v -0.05961968 0.03434618 0.47704078
v -0.05559578 0.03984671 0.47750173
v -0.06226101 0.00241080 0.46603517
v -0.06354145 0.01125895 0.48745851
v -0.06022717 0.02141568 0.49199867
v -0.05840352 0.02391171 0.49427858
v -0.06276635 0.02796290 0.47362920
v -0.05162524 0.03974415 0.46556743
v -0.05700723 0.03232792 0.48930241
v -0.05254031 0.04027111 0.48524188
v -0.06154549 0.02858706 0.48056729
v -0.06508512 0.00979120 0.48113869
v -0.06412045 0.00638105 0.48668336
v -0.05680434 0.02892463 0.46527988
v -0.05935974 0.03431502 0.47855608
v -0.06321463 0.02603622 0.47513450
v -0.06075284 0.02630610 0.48676898
v -0.06158677 0.03119084 0.47377346
v -0.06627506 0.00313207 0.47401378
v -0.05906829 0.00733170 0.49941653
v -0.06292271 0.00595627 0.46744078
v -0.05826258 0.03730235 0.47314776
v -0.05728720 0.03430249 0.48574532
v -0.06304790 0.00965616 0.46806671
v -0.05838510 0.00044855 0.46534310
v -0.05942454 0.02621235 0.49035145
v -0.05143509 0.03989239 0.46552577
v -0.06498337 0.00184020 0.48348300
v -0.05342905 0.04005036 0.48378155
v -0.06169012 0.02607530 0.48374198
v -0.06253934 0.02167722 0.48506065
v -0.06112570 0.02084738 0.49007747
v -0.05600853 0.03902050 0.47882048
v -0.06434357 0.01750883 0.48051940
v -0.05639247 0.03929310 0.47626164
v -0.06008241 0.02653595 0.48844320
v -0.05009026 0.03694567 0.49517570
v -0.05247244 0.03391630 0.49550303
v -0.05310915 0.04298677 0.47384469
v -0.06631550 0.00173065 0.47383278
v -0.06141227 0.02114521 0.46788105
v -0.06403156 0.01593735 0.48347971
v -0.06614077 0.00423830 0.47513141
v -0.05040439 0.04396859 0.47939238
v -0.06079768 0.02548929 0.48742941
v -0.05189911 0.03930503 0.48858431
v -0.05527449 0.04079883 0.47506843
v -0.06470253 0.01750087 0.47846184
v -0.05465199 0.02583633 0.49938268
v -0.05308643 0.04160032 0.48019704
v -0.05556445 0.03699551 0.48515861
v -0.05043437 0.04506537 0.47315778
v -0.05992619 0.00998570 0.49727819
v -0.05461046 0.03632341 0.48853607
v -0.06042758 0.00900598 0.49643633
v -0.05418934 0.04092918 0.47896547
v -0.06236424 0.01557600 0.46790733
v -0.05343360 0.03521599 0.49238780
v -0.05047172 0.03260202 0.49953401
v -0.05905749 0.00071383 0.49992317
v -0.06449058 0.01740762 0.47241720
v -0.06383998 0.01571002 0.47070467
v -0.06117123 0.01234386 0.49388034
v -0.06337109 0.01431490 0.48683489
v -0.05676092 0.02680158 0.49528760
v -0.06098114 0.03264153 0.47356884
v -0.06255156 0.02761570 0.47293623
v -0.05776778 0.03776560 0.47281875
v -0.05023542 0.04151077 0.46637585
v -0.05583554 0.00057317 0.46524109
v -0.06289113 0.01884144 0.46989561
v -0.05861438 0.00942364 0.49984290
v -0.05830986 0.02345321 0.49475438
v -0.06628345 0.00024165 0.47437126
v -0.05712539 0.03281829 0.48834704
v -0.05452782 0.03604494 0.48918060
v -0.05888093 0.03646041 0.47385306
v -0.06540970 0.01412388 0.47333998
v -0.05047229 0.03932550 0.49100961
v -0.06218366 0.01676562 0.48964607
v -0.06477749 0.00915165 0.47125304
v -0.05535442 0.04083514 0.47443287
v -0.06233601 0.02911740 0.47395304
v -0.05629833 0.03775089 0.48136510
v -0.05944304 0.01435539 0.49709365
v -0.06020436 0.01595260 0.49490053
v -0.05692479 0.03155400 0.49042129
v -0.06593278 0.00682949 0.47322137
v -0.06589231 0.01048125 0.47353909
v -0.06338528 0.01267611 0.48750217
v -0.06118671 0.03181109 0.47499827
v -0.05608216 0.03463567 0.48805210
v -0.05971494 0.01440794 0.49651189
v -0.05163387 0.03078884 0.49980349
v -0.06131042 0.00148908 0.46546013
v -0.05710557 0.02489676 0.49610937
v -0.06237059 0.00639805 0.46643874
v -0.06420658 0.02107779 0.47706993
v -0.06015441 0.02403645 0.46678986
v -0.06300054 0.00761917 0.49037342
v -0.06154234 0.01385485 0.49246411
v -0.05523043 0.03399677 0.49072487
v -0.06290065 0.02472903 0.48023594
v -0.05455432 0.03702809 0.48745559
v -0.06475363 0.01116427 0.47150774
v -0.05715814 0.01895586 0.49936804
v -0.05117990 0.04197466 0.48404216
v -0.06186003 0.00017192 0.49408935
v -0.05403809 0.03887350 0.48495466
v -0.06071492 0.01768714 0.46547980
v -0.06099979 0.02709283 0.48500713
v -0.05403913 0.04184649 0.47580452
v -0.06114378 0.01268289 0.46545347
v -0.06289663 0.01599236 0.48767759
v -0.06113767 0.02885566 0.48202116
v -0.05709331 0.03031537 0.49145230
v -0.05498325 0.03756309 0.48546122
v -0.06500515 0.01001338 0.48148049
v -0.05504629 0.02559687 0.49894802
v -0.06319779 0.00959860 0.48918654
v -0.05864539 0.03172775 0.46855524
v -0.05600231 0.02770695 0.49595100
v -0.06412296 0.02012188 0.47921019
v -0.06163155 0.03000946 0.47733971
v -0.05464280 0.03023729 0.49593014
v -0.05017317 0.00457697 0.46501455
v -0.05616208 0.03979446 0.47533239
v -0.05378251 0.04085022 0.48051850
v -0.06362848 0.00174857 0.48881615
v -0.06286201 0.00673103 0.49093943
v -0.06023471 0.03290008 0.47231432
v -0.05326904 0.04079920 0.48210965
v -0.05400991 0.03538517 0.49112745
v -0.06207761 0.00243433 0.49349555
v -0.05631536 0.03926285 0.47669200
v -0.06322741 0.01879564 0.48482755
v -0.06599518 0.00898925 0.47353616
v -0.05962984 0.00563261 0.49858180
v -0.05770965 0.02278140 0.49633265
v -0.05165599 0.04301868 0.47094549
v -0.05721993 0.03796996 0.47724814
v -0.06438699 0.01172806 0.48408658
v -0.06542747 0.00597957 0.48065189
v -0.05291077 0.03842033 0.46564450
v -0.05969562 0.00144637 0.49874466
v -0.05514646 0.03568004 0.46599278
v -0.06575047 0.00571096 0.47863327
v -0.05740309 0.03700880 0.47951269
v -0.06238994 0.00014169 0.49274423
v -0.05964042 0.02611852 0.46683736
v -0.06277724 0.01046782 0.49035269
v -0.05517516 0.03001783 0.49531089
v -0.06197015 0.00245343 0.49374915
v -0.06122854 0.02408228 0.48745495
v -0.05091254 0.03775351 0.49287762
v -0.06492567 0.01327972 0.48032168
v -0.06431700 0.00467600 0.48614126
v -0.05451494 0.03438418 0.49157788
v -0.05483108 0.04065644 0.47185848
v -0.06029123 0.02913387 0.48474125
v -0.05433253 0.03364444 0.49283280
v -0.06411269 0.01608940 0.48291359
v -0.05399358 0.04166255 0.47206560
v -0.06304703 0.00445264 0.49060779
v -0.05637127 0.03245907 0.49045522
v -0.06552792 0.00020809 0.47213300
v -0.06170257 0.00203923 0.49439675
v -0.06074878 0.01857935 0.46582570
v -0.05605538 0.02843660 0.49530374
v -0.06248934 0.02307291 0.47065550
v -0.06439867 0.01438611 0.48250706
v -0.06069712 0.02114009 0.46656258
v -0.05874705 0.02564622 0.49236787
v -0.06546036 0.01026973 0.47873493
v -0.06191529 0.02735511 0.48087881
v -0.06186449 0.00374725 0.49393448
v -0.06372704 0.01924686 0.48225034
v -0.06100450 0.03243351 0.47437961
v -0.05675398 0.03686202 0.48216474
v -0.05834380 0.03697987 0.47293831
v -0.06363507 0.01856228 0.48340908
v -0.06577573 0.00448574 0.47272456
v -0.05823591 0.02645878 0.46533714
v -0.06514936 0.00587671 0.48214422
v -0.06167444 0.02753151 0.48171580
v -0.05353648 0.03806016 0.48772156
v -0.05595093 0.03435739 0.48878697
v -0.06513986 0.00292739 0.48252724
v -0.05797369 0.03735990 0.47578972
v -0.06346277 0.01642599 0.48544227
v -0.05454442 0.04112169 0.47689709
v -0.05801431 0.03196474 0.48735914
v -0.06216702 0.02310169 0.48512206
v -0.06082479 0.03296261 0.47379817
v -0.06310896 0.02664767 0.47434204
v -0.06470968 0.00520611 0.48456073
v -0.05906068 0.02927656 0.48801635
v -0.06153331 0.01091975 0.49339521
v -0.06237393 0.01825638 0.48814752
v -0.05671515 0.03221244 0.46550577
v -0.06296470 0.02658066 0.47313778
v -0.06201852 0.02026126 0.48802975
v -0.05344906 0.04253929 0.47491127
v -0.06474201 0.00540290 0.48436643
v -0.06246456 0.01499520 0.48964978
v -0.06252472 0.00129458 0.46649260
v -0.05032329 0.04494592 0.47266814
v -0.05858869 0.01449986 0.49862590
v -0.05980691 0.02558792 0.46685767
v -0.05597228 0.03928174 0.47807835
v -0.05991750 0.02774452 0.48763708
v -0.05835962 0.02795975 0.46548737
v -0.06036090 0.00354326 0.49731732
v -0.05152966 0.04366703 0.47705741
v -0.05749415 0.03776979 0.47673215
v -0.06354516 0.02118120 0.48116847
v -0.06360941 0.01013393 0.46919640
v -0.06081605 0.02331014 0.48918515
v -0.06418237 0.00555958 0.48653836
v -0.05790707 0.01506525 0.49965667
v -0.05784500 0.02127982 0.49696947
v -0.05384292 0.03415718 0.49311122
v -0.05496683 0.03488437 0.49006931
v -0.06093194 0.02720512 0.48511250
v -0.06443284 0.01562375 0.47179697
v -0.05687377 0.03029880 0.46528266
v -0.06202767 0.01854977 0.48910812
v -0.06368991 0.02334523 0.47741199
v -0.06568858 0.00529582 0.47261922
v -0.06321691 0.02424598 0.47911301
v -0.06564201 0.00814978 0.47829800
v -0.06178273 0.02995907 0.47621428
v -0.06421581 0.02195938 0.47337498
v -0.05248128 0.04106596 0.48347190
v -0.06257308 0.00463648 0.49196255
v -0.06329535 0.01857871 0.48473115
v -0.06355596 0.02411606 0.47685339
v -0.06061469 0.00575009 0.49655904
v -0.05896322 0.01066863 0.49898325
v -0.05605991 0.03891503 0.47896463
v -0.06193270 0.01642595 0.49042507
v -0.06195499 0.00686736 0.46570058
v -0.05506523 0.03966067 0.48010833
v -0.06196696 0.02794641 0.47206484
v -0.06571149 0.01235733 0.47434401
v -0.05137502 0.03094636 0.49998718
v -0.05732798 0.03344404 0.48693378
v -0.06288169 0.02248775 0.48312851
v -0.06523906 0.01537546 0.47572912
v -0.06101170 0.00386334 0.49594087
v -0.06206219 0.00497280 0.46575045
v -0.06034944 0.00117827 0.49742180
v -0.06312692 0.01817269 0.48557987
v -0.05954277 0.01100489 0.49785583
v -0.05813703 0.02215056 0.49590320
v -0.06123098 0.01869432 0.49106894
v -0.05223121 0.00150009 0.46509689
v -0.05729142 0.03877160 0.47324393
v -0.06270192 0.02694486 0.47706828
v -0.06443190 0.01229325 0.48363328
v -0.05650651 0.03731092 0.48184246
v -0.06337825 0.02428083 0.47279747
v -0.06572296 0.00296289 0.47939758
v -0.06294153 0.00213736 0.49109388
v -0.06044112 0.03368572 0.47335864
v -0.05019270 0.03911066 0.49178729
v -0.06517500 0.01186996 0.47987361
v -0.05546108 0.03943609 0.47108952
v -0.05003047 0.03824863 0.46500894
v -0.06156084 0.02852727 0.48060266
v -0.05846744 0.03210968 0.48594269
v -0.05467085 0.03791283 0.48553072
v -0.06252852 0.02754166 0.47688229
v -0.05683258 0.02380146 0.49733974
v -0.05016300 0.04244964 0.48492085
v -0.05779305 0.02931202 0.49098467
v -0.06296054 0.02451560 0.48021004
v -0.05268786 0.03402185 0.49505926
v -0.06319302 0.00976617 0.48915590
v -0.06394253 0.01717523 0.48293193
v -0.05485525 0.04094640 0.47637581
v -0.06289703 0.01726854 0.48694598
v -0.05008062 0.02371774 0.46501086
v -0.06412887 0.01689516 0.48217449
v -0.05168921 0.03307912 0.49747142
v -0.05654620 0.03055634 0.46526956
v -0.06085818 0.02197419 0.46720744
v -0.06010990 0.02162834 0.49214448
v -0.05937203 0.01271630 0.49770583
v -0.05651297 0.03109068 0.49183785
v -0.05733371 0.02739505 0.49373253
v -0.05226745 0.04341624 0.47250611
v -0.05660465 0.02193523 0.49883384
v -0.06204347 0.02885831 0.47718413
v -0.05194412 0.04128842 0.48413313
v -0.06494610 0.00086613 0.48378784
v -0.05868228 0.03564991 0.47793758
v -0.05964191 0.02551754 0.46651967
v -0.05219085 0.04086631 0.48459483
v -0.06028474 0.01738210 0.49416546
v -0.05469858 0.03053292 0.49555661
v -0.06186369 0.02078525 0.48813643
v -0.05949873 0.01512466 0.49667521
v -0.05862718 0.02230629 0.49485570
v -0.05037667 0.03471082 0.49740283
v -0.06136114 0.03000566 0.47222949
v -0.05717893 0.03309064 0.48781658
v -0.05421896 0.02645720 0.46517643
v -0.05874734 0.03262019 0.48430014
v -0.06390067 0.01494670 0.48466104
v -0.05592752 0.03844235 0.48075191
v -0.06378544 0.01544003 0.48484259
v -0.05686815 0.03768346 0.47964954
v -0.06451467 0.02037344 0.47496654
v -0.06090034 0.02006314 0.49114331
v -0.06312692 0.02648869 0.47466465
v -0.06296989 0.02166262 0.48357356
v -0.06364309 0.02296608 0.47846800
v -0.06044962 0.00669752 0.49679646
v -0.06604164 0.00792195 0.47453763
v -0.05815395 0.02832530 0.49123783
v -0.05013579 0.04398511 0.48014572
v -0.06385361 0.00786141 0.48728837
v -0.05944682 0.02455581 0.49168195
v -0.06540208 0.01563676 0.47376936
v -0.05481581 0.02714315 0.49819755
v -0.05293754 0.03716175 0.49044821
v -0.06321831 0.00638202 0.48985004
v -0.06237271 0.01695358 0.48899342
v -0.06337714 0.02500014 0.47642664
v -0.05805577 0.02216434 0.49605249
v -0.06095997 0.00278543 0.49611063
v -0.06488373 0.01884942 0.47380288
v -0.06214240 0.02698316 0.48035741
v -0.05059409 0.04008507 0.48943412
v -0.06512234 0.00004436 0.48293134
v -0.06062405 0.01414739 0.49469223
v -0.06462302 0.01246105 0.48253483
v -0.06458334 0.01248500 0.48273673
v -0.05381570 0.03999528 0.48291341
v -0.06261966 0.01673696 0.48825380
v -0.06029602 0.00324316 0.49746096
v -0.06375924 0.00022419 0.48848053
v -0.05292015 0.04140289 0.48125950
v -0.06458027 0.01806943 0.47874022
v -0.05047434 0.03546955 0.49645345
v -0.06395693 0.01153319 0.48586590
v -0.06552210 0.00463386 0.48029752
v -0.06574255 0.00174195 0.47942577
v -0.05062457 0.04479273 0.47414101
v -0.05625060 0.03594325 0.48546350
v -0.06348938 0.02320110 0.47910484
v -0.05193435 0.04192957 0.48236889
v -0.05924200 0.03494167 0.47721959
v -0.06030719 0.01811275 0.49372061
v -0.05838928 0.02996282 0.48888227
v -0.05993919 0.02698619 0.48837780
v -0.06506011 0.01312101 0.47967558
v -0.05300115 0.04196668 0.47917408
v -0.05747689 0.03189228 0.48885694
v -0.05088787 0.04056327 0.48797187
v -0.05602500 0.03663250 0.48471541
v -0.05836399 0.01427216 0.49909127
v -0.06411223 0.00689139 0.48660550
v -0.06333209 0.02549701 0.47544358
v -0.06151804 0.02353529 0.48701973
v -0.05449256 0.03606413 0.46531985
v -0.05831984 0.02637723 0.49263387
v -0.05309264 0.03545020 0.49265459
v -0.05204460 0.03927922 0.46553748
v -0.06233543 0.01585007 0.48963590
v -0.06110379 0.01597032 0.49270682
v -0.05483230 0.02864398 0.49708420
v -0.05785303 0.02479276 0.49474102
v -0.06285288 0.01844010 0.46969683
v -0.06099863 0.00768277 0.49548407
v -0.05206986 0.03945455 0.48798168
v -0.05758118 0.02066330 0.49782006
v -0.05860317 0.01905945 0.49670925
v -0.05179602 0.03814190 0.46507957
v -0.05936110 0.03415733 0.47892837
v -0.06503113 0.01426818 0.47902356
v -0.05998981 0.03321141 0.47822205
v -0.05937459 0.02523471 0.46588966
v -0.06118608 0.02628486 0.48536331
v -0.05334470 0.04174617 0.47880066
v -0.06391689 0.01983765 0.48062254
v -0.06273028 0.00954638 0.46745396
v -0.06150654 0.01145230 0.49330715
v -0.05274148 0.02939481 0.49954044
v -0.05954910 0.02881715 0.46818054
v -0.06628925 0.00111559 0.47359743
v -0.05883960 0.01747570 0.49706060
v -0.06333035 0.01973001 0.48377279
v -0.05379309 0.02915258 0.49825954
v -0.05336285 0.03577597 0.49171954
v -0.05933777 0.00979644 0.49846988
v -0.06428127 0.01368811 0.48360677
v -0.06127951 0.00625820 0.49503632
v -0.05361528 0.04260925 0.47363157
v -0.05576978 0.03404995 0.48963241
v -0.05935415 0.00709985 0.49892522
v -0.05661623 0.03721609 0.48172973
v -0.06324319 0.02520589 0.47714296
v -0.06064057 0.01384769 0.49475108
v -0.06344483 0.02486770 0.47604462
v -0.05009814 0.04406550 0.47076974
v -0.06216685 0.01410906 0.49076659
v -0.06298922 0.00786184 0.49035487
v -0.06187156 0.00407523 0.49388139
v -0.06551268 0.00565327 0.48023501
v -0.06043510 0.02030140 0.49217793
v -0.05323306 0.03746806 0.48939847
v -0.06022950 0.02597258 0.48853607
v -0.05173639 0.04410659 0.47368888
v -0.05902663 0.02618700 0.49130069
v -0.06095508 0.02331820 0.48882807
v -0.06108426 0.03066156 0.47856415
v -0.05496524 0.04124512 0.47434263
v -0.06154388 0.01317660 0.49267947
v -0.06445319 0.00480497 0.48564947
v -0.05649818 0.03286200 0.48970351
v -0.05081153 0.04070178 0.46591583
v -0.05382703 0.04009757 0.48259319
v -0.06466848 0.00073328 0.48522633
v -0.06457319 0.01824588 0.47851558
v -0.05030184 0.03960594 0.49081493
v -0.06371178 0.02287474 0.47814754
v -0.06106364 0.03205199 0.47511351
v -0.05992845 0.02406189 0.49084974
v -0.06476203 0.00862131 0.48329632
v -0.06464617 0.01350930 0.48172305
v -0.05252669 0.03679875 0.49167906
v -0.05656087 0.02749425 0.46527013
v -0.05001476 0.03176315 0.46500827
v -0.05483061 0.03880926 0.46924353
v -0.05660230 0.01927877 0.46527177
v -0.05279029 0.03756869 0.49007252
v -0.06174312 0.03035999 0.47533678
v -0.05257159 0.04114398 0.48300418
v -0.05454770 0.03576635 0.46518965
v -0.06039587 0.02467841 0.46750250
v -0.06514959 0.01642375 0.47536556
v -0.05695248 0.02162850 0.49842908
v -0.06135432 0.00137826 0.49524354
v -0.05809653 0.03304220 0.48560642
v -0.05116758 0.02461815 0.46505435
v -0.05128133 0.04050679 0.48736734
v -0.06409008 0.00009164 0.46941227
v -0.05806788 0.01769914 0.49835864
v -0.05382256 0.04216484 0.47520310
v -0.06182602 0.01197667 0.49233767
v -0.06326648 0.00673141 0.48964468
v -0.06039672 0.01525691 0.49477475
v -0.05839405 0.02262465 0.49511246
v -0.05256741 0.00096830 0.46511034
v -0.06411498 0.02004307 0.47255607
v -0.06239016 0.02821473 0.47300474
v -0.05910504 0.01445069 0.49771249
v -0.06037324 0.02950451 0.47011280
v -0.06334575 0.02595571 0.47382061
v -0.05712012 0.03811815 0.47716917
v -0.05704357 0.03356133 0.48745239
v -0.05137219 0.04107801 0.48589458
v -0.06155107 0.02582176 0.48461453
v -0.06538589 0.00716967 0.48046115
v -0.05989927 0.02152676 0.46540368
v -0.06162492 0.02704850 0.47094657
v -0.06098432 0.01991038 0.46668599
v -0.06155156 0.02910669 0.47953801
v -0.05450533 0.02572872 0.49967399
v -0.05712707 0.02845792 0.49323387
v -0.06467136 0.01757201 0.47280602
v -0.05760763 0.02802028 0.49270991
v -0.06284657 0.00875365 0.49054739
v -0.06301992 0.01062717 0.48952010
v -0.05563626 0.03721749 0.48450545
v -0.06529622 0.01425772 0.47649042
v -0.06271149 0.02176310 0.48439306
v -0.06319353 0.02140418 0.48279768
v -0.06142945 0.00562912 0.49475435
v -0.05348510 0.03705891 0.48963682
v -0.06182821 0.02481810 0.48473134
v -0.05645297 0.03531364 0.48611740
v -0.06172172 0.01881827 0.48974929
v -0.06259965 0.00646456 0.46687760
v -0.06129335 0.02446126 0.46905298
v -0.06579486 0.00455020 0.47276283
v -0.06338196 0.00115698 0.46810396
v -0.05882361 0.01151118 0.49902737
v -0.06522606 0.01037551 0.48016183
v -0.05751693 0.03825480 0.47475111
v -0.05371142 0.03853673 0.46708060
v -0.05219535 0.03378506 0.49604606
v -0.06104804 0.00120388 0.46544963
v -0.05594137 0.03526646 0.48737137
v -0.06336956 0.02405770 0.47843555
v -0.06435845 0.02092672 0.47563991
v -0.06353290 0.00687084 0.46867974
v -0.06135988 0.02525226 0.46954814
v -0.06183416 0.01306500 0.46635192
v -0.06569238 0.00584829 0.47916640
v -0.05494898 0.03625782 0.48792895
v -0.05102883 0.04268767 0.48225370
v -0.05549109 0.02327741 0.49970137
v -0.05967434 0.03494829 0.47316560
v -0.05481010 0.04140328 0.47433525
v -0.05812161 0.01770679 0.49825967
v -0.05366945 0.04256462 0.47363191
v -0.05784322 0.02013761 0.49760558
v -0.05533155 0.02671231 0.49772032
v -0.06369500 0.02456890 0.47405115
v -0.05970773 0.01033335 0.49766003
v -0.06315639 0.02409485 0.47977555
v -0.05236212 0.04272381 0.47828073
v -0.05187200 0.03457751 0.49555795
v -0.06294551 0.00030499 0.49121058
v -0.05417977 0.03518805 0.49110474
v -0.05694477 0.02340622 0.49738277
v -0.06174605 0.01061377 0.46578565
v -0.05500859 0.03798994 0.48451010
v -0.05137986 0.04173268 0.48425012
v -0.05920006 0.03551585 0.47560689
v -0.06018269 0.02664099 0.48805583
v -0.06034646 0.02841228 0.48554542
v -0.06116848 0.01930929 0.49089112
v -0.06300666 0.01882267 0.48557868
v -0.06597770 0.00908501 0.47351178
v -0.05238918 0.04143824 0.48262318
v -0.06487146 0.01243620 0.48118899
v -0.05919078 0.02322020 0.49319907
v -0.06482286 0.01234128 0.47186360
v -0.05927333 0.03480388 0.47748501
v -0.06601461 0.00930448 0.47406980
v -0.05553023 0.03696515 0.48530957
v -0.05588585 0.03745086 0.48336354
v -0.05152295 0.04050738 0.48692298
v -0.06054753 0.03319585 0.47310482
v -0.06242647 0.02624598 0.48020019
v -0.05424043 0.04046082 0.48034672
v -0.06107892 0.00646945 0.49548536
v -0.05243907 0.03494261 0.49433067
v -0.05742903 0.03819825 0.47550600
v -0.06276158 0.00013170 0.49172281
v -0.06330286 0.01747874 0.48537531
v -0.05855322 0.03002433 0.48842602
v -0.05908574 0.03552724 0.47621220
v -0.06359489 0.00021348 0.46847983
v -0.05435505 0.03592370 0.48974659
v -0.06592990 0.00580847 0.47676082
v -0.06109115 0.01877174 0.49138524
v -0.06429677 0.01386722 0.48340477
v -0.05996199 0.02478635 0.46675512
v -0.05172004 0.03161419 0.49893760
v -0.06153246 0.02156905 0.48855498
v -0.06269512 0.01363398 0.48954703
v -0.05172450 0.03840151 0.46507671
v -0.05657383 0.02529380 0.49684191
v -0.05650890 0.02060932 0.49961053
v -0.06541053 0.01189240 0.47808822
v -0.06416181 0.00982972 0.47018741
v -0.06257720 0.00201224 0.49215617
v -0.06225502 0.00563283 0.49273397
v -0.06150884 0.00504030 0.49463368
v -0.05694566 0.03888236 0.47513514
v -0.06124683 0.00426423 0.46545759
v -0.06285184 0.02522197 0.47974993
v -0.05749356 0.03439698 0.46877326
v -0.05860932 0.03689553 0.47374997
v -0.05996907 0.03402269 0.47600927
v -0.05649142 0.03889175 0.47721931
v -0.06409901 0.02273133 0.47462800
v -0.06482891 0.00773477 0.48327618
v -0.05505763 0.02596323 0.49867389
v -0.06079500 0.02076612 0.49097822
v -0.06395265 0.02135353 0.47875599
v -0.05251008 0.04225579 0.47979212
v -0.06415991 0.00695399 0.48642118
v -0.05439323 0.03717075 0.48755264
v -0.05996035 0.00415455 0.49808084
v -0.05989498 0.01973031 0.49382690
v -0.05649652 0.03969466 0.47393097
v -0.06317942 0.00920718 0.46824947
v -0.05803188 0.03744200 0.47511059
v -0.06582275 0.00013418 0.47893873
v -0.06199506 0.03000723 0.47338996
v -0.05917185 0.03468113 0.47839736
v -0.05838197 0.03535386 0.48002526
v -0.06610236 0.00552937 0.47512681
v -0.05364134 0.03854730 0.48662130
v -0.06242505 0.00857618 0.46675604
v -0.06228115 0.02350378 0.48434911
v -0.06129002 0.00910318 0.49450505
v -0.06383163 0.02194159 0.47871300
v -0.06405277 0.02262160 0.47566131
v -0.05125832 0.03236728 0.49878872
v -0.05524120 0.03399343 0.49070881
v -0.06126887 0.02283323 0.48838678
v -0.05398719 0.03695351 0.46550845
v -0.05436394 0.04074077 0.47904025
v -0.06358667 0.02413985 0.47651972
v -0.06410078 0.02036097 0.47909111
v -0.05575949 0.03744249 0.48371150
v -0.05610109 0.03394008 0.48910923
v -0.05655439 0.03875153 0.47743361
v -0.06155052 0.01584473 0.49163575
v -0.06057664 0.01775152 0.49323671
v -0.05296225 0.03790831 0.48912450
v -0.05444677 0.04157219 0.47530632
v -0.05976269 0.00065070 0.46539821
v -0.06394912 0.02016437 0.47228588
v -0.05392824 0.04103706 0.47948965
v -0.05750140 0.03114693 0.48964778
v -0.05749563 0.03059733 0.46564463
v -0.05933663 0.00956235 0.49851504
v -0.06070352 0.03289103 0.47316289
v -0.06256428 0.02569686 0.48046880
v -0.06268572 0.00093038 0.49190139
v -0.06518379 0.00263481 0.48232464
v -0.06004195 0.02092411 0.46540939
v -0.06612098 0.00442199 0.47337253
v -0.06115286 0.01531224 0.46557565
v -0.06451720 0.01667781 0.47223505
v -0.05804562 0.02979407 0.48987633
v -0.06430729 0.01960470 0.47871283
v -0.05207932 0.03654970 0.49279552
v -0.06468631 0.01799973 0.47771802
v -0.06061721 0.01660632 0.49366001
v -0.05960680 0.03335238 0.47967165
v -0.06427519 0.01307828 0.48403851
v -0.05017646 0.01777051 0.46501469
v -0.05165110 0.00367041 0.46507368
v -0.06461655 0.00065072 0.48541661
v -0.05972094 0.00446587 0.49853981
v -0.05096549 0.03934487 0.49020183
v -0.05311185 0.03814289 0.48840622
v -0.06475480 0.01657140 0.47894600
v -0.05220417 0.04066186 0.48505411
v -0.06485424 0.00326732 0.47094716
v -0.06185227 0.02090148 0.46861677
v -0.06342040 0.00504947 0.46831011
v -0.06612361 0.00433094 0.47528127
v -0.06136660 0.02169250 0.46802109
v -0.05400811 0.02643805 0.49993278
v -0.06412771 0.00788233 0.48628956
v -0.06167452 0.00880072 0.46547470
v -0.05358182 0.04077159 0.47009757
v -0.05190881 0.03054852 0.49964822
v -0.05759685 0.03790553 0.47580893
v -0.06006734 0.02093375 0.49272917
v -0.05616632 0.03993676 0.47464831
v -0.05094949 0.04447300 0.47481891
v -0.05765176 0.01885537 0.49859807
v -0.06346809 0.01468861 0.48631753
v -0.06579090 0.01091099 0.47510314
v -0.05745652 0.02866257 0.49239484
v -0.05743628 0.02276754 0.49686189
v -0.06256408 0.01870108 0.48719819
v -0.06074051 0.00036758 0.49664453
v -0.06095265 0.03035922 0.47174564
v -0.06232816 0.02038853 0.48683757
v -0.05952184 0.03064440 0.48489392
v -0.06067581 0.02865076 0.48415802
v -0.05562167 0.03896395 0.48036932
v -0.06324291 0.00091386 0.46783433
v -0.05796237 0.03244586 0.48682634
v -0.05578430 0.03201857 0.49208171
v -0.05323228 0.04246806 0.47635231
v -0.05685308 0.03251325 0.48939496
v -0.06567635 0.00896505 0.47293066
v -0.05124636 0.04335376 0.47937776
v -0.05384906 0.03842447 0.48640334
v -0.06391307 0.00527653 0.46925464
v -0.06438132 0.00879775 0.48510308
v -0.06576198 0.01246114 0.47368550
v -0.06191364 0.02386439 0.48531898
v -0.05096129 0.04286018 0.46967842
v -0.06280984 0.02782306 0.47366303
v -0.05917123 0.02628866 0.49087712
v -0.06438152 0.01697571 0.47207702
v -0.05551451 0.00016943 0.46522825
v -0.06592178 0.00997020 0.47450735
v -0.06565198 0.00007387 0.48008977
v -0.06466729 0.00837334 0.48389117
v -0.05436665 0.03523998 0.49069812
v -0.06226288 0.02358353 0.47045658
v -0.05537126 0.03965431 0.47910027
v -0.06091074 0.01610989 0.49313320
v -0.05151238 0.04021858 0.48750815
v -0.05636750 0.03654322 0.48397539
v -0.05972058 0.00505317 0.49847611
v -0.06114778 0.02400501 0.48776329
v -0.06478566 0.00207161 0.48450956
v -0.05346712 0.03899201 0.46730220
v -0.05818979 0.01259157 0.46533528
v -0.06454618 0.00879552 0.48436878
v -0.06598839 0.00996768 0.47384226
v -0.05783332 0.01703116 0.49903533
v -0.06493666 0.01539950 0.47865540
v -0.06049499 0.03351344 0.47425438
v -0.06550764 0.01094651 0.47787731
v -0.06462174 0.00162479 0.48531758
v -0.06164439 0.01386795 0.49219817
v -0.05074401 0.03895709 0.49119211
v -0.06065565 0.03171255 0.47833392
v -0.05850656 0.02757142 0.49124146
v -0.05668839 0.03580913 0.48451685
v -0.06169243 0.02941494 0.47818929
v -0.05115901 0.04135584 0.48567087
v -0.05022972 0.01652517 0.46501682
v -0.06510836 0.01757539 0.47378646
v -0.06117403 0.00431775 0.49550621
v -0.06109187 0.01989318 0.49075749
v -0.06177529 0.03061378 0.47426634
v -0.06528141 0.00613846 0.48140285
v -0.06012385 0.02307717 0.46632922
v -0.05401179 0.03738812 0.48797988
v -0.06306144 0.02672656 0.47460148
v -0.06174468 0.02357174 0.48618555
v -0.05719647 0.02945013 0.49215475
v -0.05427658 0.03404185 0.49246186
v -0.06314322 0.00041098 0.46763176
v -0.05649281 0.03130259 0.49162041
v -0.05979288 0.02533575 0.49017453
f 576 9 267
f 387 201 200
f 200 201 73
f 73 267 200
f 200 267 9
f 410 9 576
f 410 210 89
f 102 210 410
f 9 410 548
f 548 410 89
f 582 508 102
f 307 590 215
f 576 267 424
f 102 410 698
f 410 521 698
f 698 582 102
f 367 698 521
f 582 698 367
f 61 582 367
f 341 582 61
f 508 582 341
f 348 24 193
f 193 463 348
f 348 463 548
f 433 24 818
f 818 548 89
f 89 210 304
f 773 267 73
f 20 463 193
f 650 24 433
f 433 304 650
f 387 200 695
f 806 347 863
f 806 630 347
f 427 521 138
f 427 367 521
f 740 140 285
f 679 8 757
f 433 818 281
f 281 304 433
f 281 818 89
f 89 304 281
f 533 215 181
f 533 307 215
f 477 685 484
f 201 286 50
f 73 201 50
f 247 700 434
f 361 700 247
f 193 24 556
f 416 463 645
f 63 695 737
f 737 695 200
f 737 200 9
f 588 449 48
f 48 424 588
f 576 424 48
f 48 410 576
f 48 521 410
f 138 521 48
f 575 48 449
f 588 424 772
f 772 424 267
f 267 851 772
f 761 575 449
f 761 449 588
f 251 313 761
f 285 140 634
f 140 577 634
f 399 577 140
f 140 740 399
f 399 650 304
f 399 723 650
f 341 679 21
f 262 679 341
f 61 601 447
f 564 304 210
f 564 210 102
f 661 763 123
f 661 642 763
f 763 642 125
f 493 717 357
f 466 124 614
f 251 763 71
f 374 86 403
f 762 85 780
f 630 762 780
f 347 630 780
f 732 724 123
f 123 383 732
f 123 724 529
f 762 533 278
f 278 533 181
f 215 590 824
f 590 477 824
f 774 477 484
f 566 477 774
f 650 723 648
f 24 650 541
f 541 556 24
f 793 556 20
f 91 645 463
f 49 645 91
f 812 91 463
f 49 91 812
f 49 812 718
f 426 65 63
f 63 737 426
f 426 737 65
f 446 737 9
f 65 737 446
f 677 662 19
f 19 805 677
f 19 662 98
f 662 413 98
f 494 645 49
f 49 718 494
f 293 363 302
f 406 335 218
f 207 335 406
f 207 757 45
f 406 679 207
f 679 757 207
f 524 711 319
f 578 761 588
f 588 772 578
f 578 851 267
f 575 761 324
f 61 367 324
f 251 761 787
f 123 763 787
f 787 763 251
f 787 383 123
f 392 383 787
f 285 634 835
f 304 149 788
f 120 399 740
f 120 740 508
f 577 399 409
f 409 634 577
f 409 835 634
f 287 120 508
f 508 341 287
f 341 21 287
f 163 120 287
f 709 679 406
f 709 21 679
f 709 287 21
f 272 8 679
f 679 262 272
f 272 262 8
f 61 447 755
f 755 341 61
f 755 262 341
f 8 262 801
f 801 447 8
f 262 755 801
f 801 755 447
f 384 805 19
f 168 564 102
f 168 149 304
f 304 564 168
f 113 642 246
f 246 673 113
f 642 113 366
f 203 125 366
f 366 125 642
f 366 764 203
f 377 277 535
f 37 377 322
f 322 377 535
f 638 493 655
f 459 493 638
f 124 466 852
f 816 466 219
f 764 366 219
f 614 764 219
f 219 466 614
f 202 764 614
f 10 71 763
f 763 198 10
f 10 198 203
f 203 764 10
f 353 17 532
f 61 353 532
f 532 601 61
f 374 403 33
f 727 148 45
f 8 447 727
f 45 757 727
f 727 757 8
f 602 148 86
f 602 457 336
f 455 133 639
f 639 133 239
f 392 782 162
f 323 85 762
f 165 529 724
f 724 732 116
f 116 222 724
f 669 278 230
f 230 222 669
f 230 219 673
f 816 219 230
f 230 673 246
f 230 246 358
f 358 165 230
f 643 730 288
f 691 730 643
f 461 128 675
f 675 128 15
f 128 691 15
f 15 691 643
f 215 824 726
f 181 215 726
f 337 834 566
f 566 843 337
f 337 843 562
f 437 477 566
f 566 834 437
f 154 337 562
f 719 337 154
f 469 36 305
f 361 534 600
f 600 534 226
f 395 226 131
f 345 837 714
f 714 856 345
f 643 552 284
f 362 519 585
f 585 247 434
f 585 519 794
f 794 247 585
f 651 534 794
f 794 519 651
f 651 362 722
f 651 519 362
f 672 136 722
f 831 677 320
f 129 54 265
f 524 265 846
f 846 54 524
f 227 595 226
f 37 697 255
f 697 470 255
f 37 771 451
f 838 796 816
f 816 230 838
f 838 230 278
f 838 278 181
f 675 842 46
f 717 133 743
f 264 528 743
f 357 717 743
f 766 133 486
f 264 743 766
f 766 743 133
f 556 541 180
f 491 20 193
f 491 793 20
f 193 556 491
f 556 793 491
f 185 812 463
f 463 20 185
f 500 527 753
f 753 718 500
f 191 718 753
f 80 695 63
f 514 100 293
f 536 100 514
f 310 514 293
f 63 65 635
f 503 831 121
f 677 831 503
f 320 677 402
f 402 677 805
f 813 858 731
f 245 413 121
f 731 678 151
f 170 151 375
f 731 151 170
f 170 813 731
f 416 645 248
f 645 494 248
f 431 257 861
f 431 310 293
f 861 310 431
f 542 745 82
f 364 745 542
f 328 745 364
f 862 302 363
f 16 862 363
f 299 862 16
f 363 199 16
f 16 826 364
f 731 858 327
f 731 327 777
f 364 826 690
f 690 328 364
f 690 217 121
f 841 711 664
f 664 218 841
f 841 218 335
f 335 319 841
f 841 319 711
f 142 711 524
f 244 389 758
f 758 389 624
f 570 265 524
f 524 319 570
f 232 319 855
f 265 570 232
f 232 570 319
f 45 855 159
f 855 319 159
f 155 324 367
f 575 324 155
f 61 324 608
f 608 324 761
f 608 353 61
f 525 353 608
f 608 761 525
f 254 787 761
f 267 773 254
f 761 578 254
f 863 347 636
f 511 740 285
f 511 168 102
f 149 168 511
f 102 508 511
f 508 740 511
f 88 788 149
f 163 399 209
f 209 120 163
f 399 120 209
f 835 409 300
f 300 88 835
f 300 399 304
f 163 287 321
f 321 287 77
f 647 709 406
f 163 321 647
f 406 218 647
f 77 287 92
f 287 709 92
f 92 647 77
f 709 647 92
f 111 805 381
f 41 384 19
f 535 277 343
f 64 322 318
f 318 322 90
f 90 528 318
f 90 743 528
f 336 457 859
f 400 414 859
f 859 545 400
f 717 493 735
f 493 459 735
f 638 545 369
f 124 852 474
f 474 713 124
f 474 852 133
f 474 133 455
f 2 353 525
f 86 148 342
f 311 33 403
f 403 694 583
f 148 727 112
f 819 602 336
f 148 602 819
f 336 859 819
f 819 414 148
f 819 859 414
f 653 602 86
f 653 86 374
f 374 124 653
f 124 713 653
f 238 383 392
f 392 162 238
f 814 162 782
f 702 165 724
f 702 230 165
f 669 222 811
f 222 116 811
f 730 184 783
f 783 288 730
f 184 726 783
f 643 408 315
f 181 726 160
f 160 726 184
f 160 184 730
f 160 838 181
f 675 838 160
f 730 461 160
f 160 461 675
f 490 726 824
f 169 437 834
f 594 154 469
f 81 270 484
f 484 36 81
f 360 154 562
f 290 703 101
f 759 101 703
f 469 305 271
f 271 305 376
f 658 759 703
f 484 685 658
f 658 36 484
f 290 685 99
f 685 477 99
f 376 703 275
f 275 703 290
f 794 591 839
f 361 247 839
f 839 247 794
f 794 534 649
f 649 591 794
f 649 839 591
f 649 534 361
f 361 839 649
f 430 600 226
f 226 395 430
f 345 856 325
f 856 284 325
f 60 408 643
f 362 585 798
f 722 534 520
f 520 651 722
f 534 651 520
f 865 465 167
f 136 672 110
f 167 465 110
f 110 557 167
f 412 687 333
f 107 831 320
f 104 107 164
f 524 54 770
f 265 54 559
f 559 846 265
f 54 846 559
f 563 6 82
f 82 745 563
f 722 136 791
f 791 496 722
f 791 553 496
f 54 129 32
f 244 655 418
f 418 389 244
f 655 389 418
f 621 322 535
f 621 90 322
f 621 493 357
f 621 655 493
f 621 389 655
f 226 595 234
f 595 478 234
f 131 226 234
f 226 534 444
f 444 227 226
f 37 255 482
f 482 255 470
f 482 331 37
f 482 470 394
f 394 423 482
f 441 478 595
f 595 227 441
f 722 496 441
f 441 534 722
f 441 444 534
f 227 444 441
f 478 382 512
f 283 771 401
f 480 408 401
f 401 771 480
f 453 697 37
f 37 451 453
f 14 451 231
f 697 14 84
f 297 573 312
f 823 838 675
f 675 46 823
f 189 778 486
f 189 768 852
f 189 523 778
f 650 648 592
f 253 422 332
f 422 741 332
f 750 422 253
f 750 592 648
f 253 592 750
f 809 500 718
f 809 592 253
f 527 500 809
f 253 332 809
f 753 527 809
f 269 191 753
f 670 494 718
f 718 191 670
f 375 494 670
f 63 363 442
f 442 363 293
f 134 80 63
f 63 442 134
f 387 695 235
f 235 531 387
f 69 531 695
f 695 80 69
f 69 80 536
f 699 514 263
f 263 310 699
f 514 310 263
f 320 402 544
f 250 98 413
f 413 813 250
f 250 170 98
f 813 170 250
f 121 217 644
f 644 245 121
f 858 813 720
f 720 813 413
f 413 245 720
f 375 151 440
f 19 98 481
f 98 170 481
f 663 494 375
f 663 248 494
f 416 248 663
f 293 302 51
f 51 431 293
f 302 431 51
f 82 6 306
f 233 87 745
f 82 862 243
f 243 862 299
f 808 431 302
f 302 862 808
f 826 16 659
f 659 16 199
f 731 777 119
f 777 749 119
f 579 776 119
f 119 749 579
f 637 690 121
f 328 690 637
f 121 233 637
f 745 328 637
f 637 233 745
f 12 690 826
f 438 330 40
f 40 218 664
f 40 330 218
f 723 399 633
f 664 711 35
f 35 142 664
f 711 142 35
f 152 411 256
f 316 758 326
f 256 411 326
f 326 411 316
f 400 545 708
f 244 758 708
f 708 655 244
f 411 152 7
f 7 129 265
f 855 66 580
f 224 66 855
f 45 148 224
f 224 855 45
f 148 414 224
f 224 414 66
f 267 254 836
f 836 254 578
f 392 787 236
f 144 392 236
f 236 347 144
f 236 636 347
f 149 511 83
f 83 88 149
f 83 511 285
f 285 835 83
f 835 88 83
f 304 788 74
f 74 300 304
f 38 409 399
f 399 300 38
f 38 300 409
f 30 321 77
f 77 647 30
f 30 647 321
f 452 402 805
f 805 111 452
f 668 343 277
f 799 343 668
f 535 343 802
f 340 343 799
f 443 343 368
f 626 854 368
f 368 340 470
f 343 340 368
f 37 322 183
f 693 539 183
f 183 312 693
f 183 539 771
f 183 771 37
f 297 312 183
f 66 414 373
f 265 580 373
f 373 580 66
f 569 459 638
f 638 369 569
f 717 735 569
f 569 735 459
f 569 133 717
f 106 369 545
f 133 852 567
f 852 768 567
f 486 133 567
f 567 189 486
f 768 189 567
f 816 796 386
f 374 4 752
f 182 4 374
f 781 4 182
f 309 313 251
f 764 202 821
f 202 516 821
f 212 516 202
f 525 342 439
f 291 2 439
f 439 2 525
f 208 17 353
f 208 342 148
f 208 112 599
f 148 112 208
f 313 311 428
f 784 311 313
f 33 311 784
f 86 342 641
f 641 342 525
f 525 694 641
f 403 583 628
f 736 639 239
f 736 569 369
f 455 639 736
f 239 133 736
f 133 569 736
f 736 474 455
f 713 474 736
f 669 811 640
f 372 15 643
f 643 315 372
f 643 288 404
f 404 552 643
f 288 783 404
f 404 783 726
f 726 490 404
f 552 404 489
f 489 404 490
f 719 154 505
f 154 594 505
f 81 360 298
f 270 81 298
f 405 658 703
f 290 99 249
f 249 275 290
f 393 50 286
f 286 483 393
f 393 483 50
f 391 93 473
f 361 600 349
f 349 504 361
f 194 395 131
f 131 196 194
f 47 194 196
f 361 504 631
f 631 23 361
f 631 430 395
f 600 430 631
f 504 349 631
f 631 349 600
f 825 714 837
f 825 572 714
f 408 153 259
f 259 153 714
f 714 572 259
f 643 284 607
f 607 60 643
f 607 284 856
f 632 153 408
f 408 60 632
f 434 699 415
f 415 585 434
f 362 798 472
f 804 129 256
f 804 32 129
f 847 509 615
f 615 797 847
f 847 167 820
f 820 557 847
f 167 557 820
f 571 110 465
f 557 110 314
f 314 509 847
f 847 557 314
f 699 509 314
f 412 333 807
f 121 831 492
f 164 87 625
f 625 104 164
f 121 492 625
f 625 492 104
f 95 770 54
f 164 107 115
f 107 95 115
f 115 95 450
f 810 563 745
f 458 621 535
f 389 621 458
f 535 802 458
f 343 620 458
f 458 802 343
f 546 52 131
f 131 234 546
f 546 234 478
f 686 423 394
f 394 377 686
f 686 377 37
f 37 331 686
f 470 512 221
f 221 512 382
f 221 368 470
f 382 441 221
f 346 470 697
f 346 512 470
f 815 283 837
f 815 337 719
f 345 337 815
f 815 837 345
f 297 408 671
f 671 573 297
f 697 453 795
f 697 84 22
f 499 408 297
f 499 523 408
f 408 523 701
f 796 46 701
f 701 46 842
f 701 386 796
f 842 315 701
f 701 315 408
f 584 852 466
f 584 189 852
f 523 189 840
f 130 750 648
f 422 750 130
f 805 384 828
f 828 741 422
f 656 809 718
f 656 718 812
f 753 809 197
f 197 741 753
f 650 592 344
f 592 809 344
f 344 541 650
f 344 180 541
f 556 180 344
f 344 809 556
f 681 269 753
f 753 741 681
f 384 41 681
f 681 828 384
f 741 828 681
f 293 100 266
f 266 442 293
f 100 134 266
f 266 134 442
f 536 80 3
f 80 134 3
f 3 100 536
f 3 134 100
f 695 531 789
f 789 235 695
f 531 235 789
f 785 69 536
f 536 514 785
f 531 69 785
f 387 531 785
f 785 700 361
f 785 201 387
f 501 333 687
f 687 754 501
f 150 810 501
f 501 807 333
f 745 216 501
f 501 810 745
f 501 388 807
f 257 431 44
f 431 501 44
f 44 501 754
f 861 257 417
f 662 677 744
f 744 618 662
f 676 503 121
f 195 720 245
f 195 644 217
f 245 644 195
f 779 151 678
f 779 440 151
f 375 440 436
f 436 663 375
f 440 779 436
f 57 55 416
f 6 431 864
f 864 306 6
f 738 542 82
f 82 243 738
f 510 199 363
f 363 683 510
f 419 363 63
f 419 683 363
f 63 635 179
f 179 419 63
f 683 419 179
f 65 446 487
f 487 635 65
f 487 446 9
f 776 845 568
f 568 407 416
f 416 55 568
f 518 678 731
f 731 119 518
f 468 579 623
f 623 12 468
f 623 327 858
f 690 12 623
f 274 659 199
f 723 633 706
f 218 330 725
f 356 330 438
f 438 1 356
f 320 544 454
f 454 111 381
f 454 356 1
f 94 107 320
f 435 708 265
f 400 708 435
f 435 414 400
f 265 373 435
f 435 373 414
f 638 655 371
f 655 708 371
f 371 545 638
f 371 708 545
f 411 7 475
f 316 411 475
f 680 708 758
f 680 475 7
f 680 758 316
f 316 475 680
f 611 152 256
f 611 7 152
f 256 129 611
f 129 7 611
f 26 254 773
f 26 109 254
f 114 578 267
f 267 836 114
f 114 836 578
f 787 254 707
f 707 236 787
f 254 109 707
f 398 773 73
f 73 597 398
f 166 689 863
f 402 452 225
f 225 452 111
f 854 716 173
f 175 64 486
f 486 778 175
f 322 64 175
f 5 124 374
f 516 212 610
f 610 212 781
f 781 182 610
f 610 182 313
f 313 309 610
f 291 439 609
f 439 208 609
f 350 439 342
f 342 208 350
f 350 208 439
f 385 208 599
f 17 208 385
f 313 428 79
f 79 694 525
f 525 761 79
f 79 761 313
f 827 311 403
f 403 628 827
f 97 653 713
f 713 736 97
f 762 278 229
f 229 370 762
f 629 370 814
f 762 370 629
f 629 323 762
f 629 814 782
f 627 640 811
f 162 640 627
f 627 238 162
f 437 169 760
f 169 489 760
f 552 489 329
f 329 489 169
f 58 360 562
f 58 298 360
f 271 616 550
f 734 616 271
f 131 52 734
f 139 305 36
f 36 658 139
f 658 405 139
f 800 99 50
f 50 473 800
f 800 473 93
f 517 734 137
f 517 196 131
f 131 734 517
f 775 286 201
f 395 47 756
f 395 194 654
f 654 47 395
f 194 47 654
f 660 798 585
f 585 415 660
f 147 110 672
f 722 362 445
f 445 672 722
f 498 167 847
f 338 687 412
f 412 352 338
f 338 352 687
f 699 310 206
f 432 509 699
f 432 615 509
f 699 206 432
f 310 615 432
f 432 206 310
f 613 310 861
f 613 615 310
f 699 314 515
f 515 314 110
f 110 147 515
f 848 492 831
f 104 492 848
f 831 107 848
f 107 104 848
f 729 1 438
f 438 11 729
f 107 94 729
f 770 95 522
f 524 770 522
f 164 115 587
f 587 388 164
f 412 807 587
f 587 450 412
f 587 115 450
f 604 87 164
f 164 388 604
f 745 87 604
f 604 216 745
f 844 22 561
f 747 382 478
f 478 513 747
f 478 441 769
f 791 716 456
f 456 716 854
f 553 791 456
f 667 854 626
f 626 692 667
f 397 692 626
f 748 221 441
f 496 692 748
f 748 441 496
f 692 397 748
f 786 815 719
f 231 451 488
f 488 451 771
f 408 480 479
f 479 671 408
f 451 14 205
f 205 14 697
f 697 795 205
f 697 22 549
f 549 22 844
f 549 346 697
f 466 619 390
f 390 584 466
f 135 701 523
f 523 840 135
f 723 792 223
f 355 656 812
f 812 185 355
f 809 656 355
f 355 185 20
f 20 556 355
f 556 809 355
f 75 332 741
f 741 197 75
f 269 681 565
f 485 670 191
f 467 785 514
f 150 501 228
f 228 501 431
f 228 431 6
f 497 754 687
f 497 765 754
f 497 687 847
f 847 765 497
f 462 417 754
f 754 765 462
f 462 765 847
f 861 417 462
f 462 797 861
f 847 797 462
f 503 676 192
f 662 618 192
f 192 676 662
f 121 413 258
f 258 676 121
f 375 670 581
f 502 57 678
f 55 57 502
f 502 56 776
f 678 57 62
f 663 436 850
f 416 663 850
f 850 57 416
f 683 179 657
f 657 487 683
f 776 568 476
f 476 568 55
f 220 845 407
f 407 568 220
f 220 568 845
f 187 119 776
f 776 56 187
f 678 518 830
f 579 749 554
f 554 623 579
f 554 749 777
f 554 777 327
f 327 623 554
f 12 274 537
f 537 274 199
f 199 510 537
f 468 12 537
f 664 142 688
f 142 495 688
f 688 40 664
f 218 725 710
f 710 725 633
f 710 633 399
f 710 399 163
f 163 647 710
f 710 647 218
f 330 356 790
f 790 725 330
f 633 725 790
f 320 454 289
f 289 454 1
f 289 94 320
f 282 454 381
f 356 454 282
f 282 790 356
f 708 680 849
f 849 680 7
f 265 708 849
f 849 7 265
f 211 597 73
f 863 636 751
f 751 166 863
f 590 689 822
f 689 166 822
f 166 211 822
f 822 211 73
f 73 50 822
f 50 99 822
f 822 477 590
f 822 99 477
f 303 175 778
f 183 175 303
f 425 175 183
f 374 752 598
f 598 5 374
f 240 583 694
f 471 106 545
f 471 97 736
f 271 550 241
f 241 594 469
f 469 271 241
f 704 271 376
f 376 275 704
f 704 734 271
f 137 734 704
f 99 800 25
f 25 800 93
f 25 39 99
f 354 483 286
f 391 473 354
f 50 483 354
f 354 473 50
f 161 775 201
f 380 631 395
f 23 631 380
f 214 147 672
f 362 472 396
f 396 445 362
f 443 739 507
f 696 739 443
f 443 368 696
f 696 368 854
f 854 173 696
f 833 739 558
f 110 571 558
f 171 758 624
f 624 606 171
f 171 326 758
f 256 326 171
f 171 804 256
f 171 606 804
f 105 498 847
f 847 687 105
f 687 352 105
f 177 865 167
f 167 498 177
f 365 13 804
f 67 13 365
f 666 352 412
f 412 450 803
f 450 95 803
f 1 729 132
f 132 729 94
f 132 289 1
f 94 289 132
f 76 522 95
f 76 95 107
f 107 729 76
f 76 729 11
f 11 522 76
f 156 522 11
f 156 142 524
f 524 522 156
f 388 501 448
f 448 604 388
f 339 734 52
f 844 561 242
f 242 561 546
f 242 546 478
f 593 561 22
f 829 513 478
f 478 769 829
f 771 283 108
f 108 488 771
f 283 815 108
f 72 550 292
f 292 550 616
f 292 22 84
f 616 734 292
f 84 617 292
f 292 617 72
f 734 339 292
f 141 135 619
f 701 135 141
f 141 619 466
f 792 130 188
f 188 223 792
f 188 130 648
f 560 648 723
f 723 223 560
f 828 351 174
f 381 805 174
f 805 828 174
f 31 273 269
f 269 565 31
f 31 565 481
f 31 170 375
f 31 481 170
f 375 581 31
f 31 485 273
f 70 485 191
f 273 485 70
f 652 514 699
f 652 467 514
f 190 612 785
f 434 700 646
f 646 699 434
f 700 785 646
f 785 612 646
f 605 850 436
f 605 62 57
f 57 850 605
f 468 537 574
f 574 537 510
f 574 579 468
f 683 487 178
f 178 34 296
f 178 487 9
f 407 34 178
f 416 407 178
f 178 463 416
f 9 548 178
f 548 463 178
f 589 502 678
f 678 830 589
f 56 502 589
f 684 706 633
f 633 790 684
f 684 176 706
f 790 176 684
f 421 183 322
f 421 425 183
f 694 79 857
f 857 240 694
f 742 471 736
f 742 736 369
f 157 471 545
f 157 859 457
f 545 859 157
f 457 602 157
f 653 97 122
f 122 547 653
f 317 704 275
f 137 622 540
f 540 682 137
f 18 517 137
f 137 682 18
f 294 308 93
f 586 25 93
f 93 308 586
f 586 308 39
f 39 25 586
f 286 775 721
f 721 354 286
f 391 354 721
f 213 161 201
f 201 785 213
f 23 380 213
f 213 380 161
f 361 23 213
f 213 785 361
f 543 756 47
f 543 161 756
f 395 756 538
f 538 380 395
f 756 161 538
f 161 380 538
f 237 415 699
f 699 515 237
f 237 515 147
f 596 214 672
f 280 472 798
f 280 596 472
f 214 596 280
f 295 739 833
f 295 507 739
f 295 78 67
f 624 507 29
f 29 606 624
f 29 295 67
f 507 295 29
f 42 458 620
f 443 507 42
f 96 558 739
f 739 146 96
f 53 865 555
f 865 177 555
f 555 558 53
f 833 558 555
f 186 295 833
f 78 295 186
f 833 555 186
f 186 555 177
f 67 78 186
f 804 606 252
f 252 365 804
f 13 666 301
f 301 666 412
f 412 803 301
f 804 13 301
f 301 803 95
f 32 804 301
f 54 32 301
f 301 95 54
f 728 11 438
f 728 156 11
f 674 495 142
f 142 156 674
f 204 593 52
f 561 593 204
f 530 339 52
f 52 593 530
f 464 786 719
f 464 127 786
f 786 127 261
f 261 127 72
f 706 176 268
f 268 792 723
f 723 706 268
f 422 130 268
f 268 130 792
f 268 176 351
f 746 282 381
f 260 190 699
f 612 190 260
f 699 646 260
f 260 646 612
f 699 190 715
f 579 574 118
f 683 178 767
f 767 178 296
f 767 510 683
f 767 574 510
f 767 118 574
f 106 471 378
f 471 742 378
f 471 157 506
f 506 547 471
f 653 547 506
f 704 317 551
f 551 622 137
f 137 704 551
f 43 93 391
f 43 294 93
f 275 294 43
f 43 317 275
f 775 832 460
f 460 721 775
f 47 832 279
f 279 543 47
f 279 832 775
f 606 29 526
f 67 365 526
f 526 29 67
f 172 42 620
f 624 389 733
f 389 458 733
f 110 558 359
f 558 96 359
f 429 96 146
f 429 146 791
f 429 791 136
f 27 105 352
f 177 665 158
f 158 186 177
f 67 186 158
f 158 27 126
f 158 665 105
f 105 27 158
f 158 126 13
f 158 13 67
f 72 617 420
f 420 261 72
f 422 268 143
f 143 268 351
f 143 828 422
f 143 351 828
f 351 176 276
f 282 746 603
f 603 746 176
f 117 652 699
f 699 715 117
f 579 118 68
f 68 776 579
f 68 845 776
f 296 34 68
f 407 845 68
f 68 34 407
f 705 853 622
f 391 853 705
f 705 43 391
f 59 832 47
f 59 460 832
f 517 18 59
f 18 460 59
f 59 47 196
f 196 517 59
f 379 18 391
f 379 460 18
f 391 721 379
f 721 460 379
f 443 42 28
f 42 172 28
f 817 507 624
f 624 733 817
f 458 42 334
f 334 733 458
f 145 420 617
f 145 617 231
f 231 488 145
f 176 746 712
f 712 276 176
f 622 551 103
f 103 705 622
f 860 42 507
f 507 817 860
f 24 348 818
f 818 348 548
f 533 689 590
f 863 689 533
f 590 307 533
f 533 806 863
f 533 762 630
f 630 806 533
f 578 772 851
f 763 125 198
f 198 125 203
f 219 113 673
f 219 366 113
f 165 661 123
f 246 642 165
f 358 246 165
f 642 661 165
f 123 529 165
f 730 691 461
f 461 691 128
f 335 207 159
f 159 207 45
f 159 319 335
f 367 427 155
f 155 427 138
f 138 48 155
f 48 575 155
f 264 766 64
f 64 528 264
f 318 528 64
f 64 766 486
f 724 222 702
f 222 230 702
f 360 81 36
f 469 154 360
f 360 36 469
f 290 101 658
f 658 685 290
f 101 759 658
f 357 743 621
f 743 90 621
f 823 46 796
f 796 838 823
f 580 232 855
f 265 232 580
f 788 88 74
f 88 300 74
f 340 668 277
f 394 470 340
f 277 377 340
f 340 377 394
f 799 668 340
f 784 182 374
f 374 33 784
f 313 182 784
f 641 694 403
f 641 403 86
f 675 15 372
f 372 842 675
f 372 315 842
f 401 408 259
f 259 825 837
f 259 283 401
f 837 283 259
f 572 825 259
f 714 153 632
f 856 714 632
f 632 607 856
f 60 607 632
f 87 233 625
f 625 233 121
f 686 482 423
f 331 482 686
f 417 44 754
f 257 44 417
f 864 862 82
f 82 306 864
f 431 808 864
f 864 808 862
f 738 16 364
f 364 542 738
f 299 16 738
f 738 243 299
f 217 690 623
f 623 195 217
f 858 720 623
f 720 195 623
f 274 12 826
f 826 659 274
f 225 454 544
f 111 454 225
f 225 544 402
f 610 10 764
f 71 10 610
f 610 309 251
f 251 71 610
f 764 821 610
f 610 821 516
f 609 2 291
f 353 2 609
f 609 208 353
f 385 447 601
f 601 532 385
f 599 112 385
f 385 532 17
f 385 727 447
f 385 112 727
f 669 640 229
f 229 278 669
f 162 814 229
f 814 370 229
f 229 640 162
f 144 347 629
f 629 392 144
f 347 780 629
f 629 782 392
f 629 780 85
f 85 323 629
f 627 116 732
f 627 732 383
f 383 238 627
f 627 811 116
f 760 489 490
f 760 824 477
f 477 437 760
f 760 490 824
f 345 325 329
f 329 337 345
f 834 337 329
f 329 284 552
f 329 169 834
f 329 325 284
f 562 843 58
f 58 774 484
f 58 843 566
f 566 774 58
f 484 270 58
f 270 298 58
f 376 305 139
f 139 703 376
f 139 405 703
f 797 615 613
f 861 797 613
f 807 388 587
f 667 692 496
f 496 553 667
f 667 456 854
f 553 456 667
f 626 368 748
f 368 221 748
f 748 397 626
f 617 84 14
f 617 14 231
f 479 539 693
f 479 480 771
f 771 539 479
f 693 312 479
f 479 312 573
f 573 671 479
f 205 795 453
f 205 453 451
f 189 584 135
f 135 390 619
f 135 840 189
f 584 390 135
f 75 197 809
f 75 809 332
f 19 481 565
f 565 41 19
f 565 681 41
f 6 563 228
f 228 810 150
f 563 810 228
f 192 744 677
f 677 503 192
f 618 744 192
f 662 676 258
f 258 413 662
f 635 487 657
f 657 179 635
f 55 502 476
f 476 502 776
f 751 707 109
f 636 236 751
f 751 26 773
f 773 398 751
f 109 26 751
f 236 707 751
f 751 398 597
f 597 211 751
f 751 211 166
f 303 499 297
f 297 183 303
f 778 523 303
f 523 499 303
f 598 202 614
f 614 124 598
f 781 212 598
f 598 4 781
f 598 752 4
f 598 212 202
f 124 5 598
f 558 865 53
f 558 571 465
f 465 865 558
f 739 696 146
f 146 696 173
f 146 173 716
f 146 716 791
f 216 604 448
f 448 501 216
f 478 512 242
f 242 549 844
f 512 346 242
f 346 549 242
f 382 747 829
f 829 441 382
f 829 747 513
f 829 769 441
f 141 466 816
f 816 386 141
f 386 701 141
f 223 188 560
f 560 188 648
f 31 581 670
f 670 485 31
f 269 273 70
f 191 269 70
f 605 436 779
f 605 779 678
f 678 62 605
f 119 187 589
f 589 518 119
f 589 187 56
f 589 830 518
f 175 425 421
f 322 175 421
f 857 428 311
f 311 827 857
f 857 628 583
f 857 79 428
f 857 827 628
f 583 240 857
f 97 471 122
f 471 547 122
f 18 853 391
f 18 540 622
f 622 853 18
f 682 540 18
f 99 39 294
f 275 249 294
f 294 249 99
f 39 308 294
f 672 445 596
f 596 396 472
f 445 396 596
f 798 660 280
f 280 237 147
f 280 660 415
f 415 237 280
f 147 214 280
f 665 177 498
f 498 105 665
f 40 688 674
f 438 40 674
f 674 688 495
f 674 728 438
f 156 728 674
f 546 561 204
f 52 546 204
f 530 292 339
f 22 292 530
f 530 593 22
f 719 505 464
f 594 241 464
f 464 505 594
f 464 550 72
f 464 241 550
f 72 127 464
f 378 742 369
f 369 106 378
f 506 157 602
f 602 653 506
f 161 543 279
f 775 161 279
f 526 252 606
f 365 252 526
f 136 110 429
f 110 359 429
f 429 359 96
f 13 126 27
f 352 666 27
f 27 666 13
f 603 176 790
f 790 282 603
f 467 652 117
f 785 467 117
f 117 190 785
f 117 715 190
f 118 767 68
f 68 767 296
f 28 620 343
f 28 343 443
f 28 172 620
f 145 108 815
f 815 786 145
f 488 108 145
f 786 261 145
f 261 420 145
f 712 746 381
f 712 174 351
f 381 174 712
f 351 276 712
f 317 43 103
f 103 551 317
f 43 705 103
f 860 817 733
f 860 334 42
f 733 334 860

