# https://github.com/mikedh/trimesh
v 0.07378305 0.02226225 0.27065891
v 0.07211715 0.02554982 0.27654614
v 0.07079167 0.03745712 0.27792442
v 0.07307861 0.02934274 0.27177354
v 0.07505572 0.01953610 0.26547756
v 0.07458835 0.03211428 0.26395384
v 0.07015429 0.04990617 0.27346542
v 0.07316928 0.01966654 0.27363621
v 0.07191718 0.03482622 0.27462693
v 0.07311988 0.04421424 0.26354979
v 0.06821185 0.04974269 0.26283450
v 0.06867826 0.00000286 0.27846355
v 0.07185676 0.04977376 0.26604543
v 0.07018492 0.03966060 0.27930706
v 0.07030000 0.03984157 0.27880591
v 0.07313122 0.00771771 0.27489823
v 0.07461132 0.02138960 0.26721154
v 0.07450728 0.02100868 0.26774926
v 0.07190730 0.03483142 0.27466433
v 0.07485150 0.01701019 0.26687026
v 0.07528541 0.02196246 0.26391655
v 0.07179592 0.04845404 0.26749647
v 0.07223620 0.01920349 0.27725544
v 0.07167869 0.04990774 0.26347870
v 0.07345765 0.02421273 0.27158744
v 0.07346771 0.02095785 0.27220574
v 0.07359116 0.02279493 0.27133911
v 0.07189390 0.02079414 0.27825608
v 0.07446667 0.02140221 0.26785555
v 0.07198679 0.00015865 0.27931096
v 0.07231671 0.01625484 0.27733822
v 0.07232391 0.04946730 0.26390930
v 0.07215964 0.01522127 0.27800573
v 0.07163083 0.00727676 0.26275222
v 0.07057250 0.03737014 0.27877062
v 0.07381652 0.03911410 0.26409034
v 0.07366148 0.02247533 0.27111741
v 0.07190347 0.02161898 0.27808084
v 0.07246102 0.03755689 0.27125293
v 0.07397003 0.01082459 0.27135438
v 0.07010940 0.04994391 0.26318116
v 0.07198399 0.01817488 0.26282469
v 0.07513820 0.02366406 0.26351742
v 0.07380792 0.02152813 0.27069978
v 0.07265376 0.02053394 0.27550225
v 0.07362685 0.03318811 0.26804807
v 0.06997093 0.04994794 0.27368856
v 0.07348040 0.01762407 0.27268557
v 0.07384881 0.01412842 0.27159237
v 0.07046133 0.04265046 0.27694332
v 0.07218374 0.03415322 0.27380306
v 0.07376632 0.03767625 0.26351428
v 0.07225299 0.02441810 0.27626253
v 0.07236347 0.04933559 0.26382565
v 0.06931078 0.04362282 0.26281972
v 0.07276959 0.00138966 0.27640282
v 0.07190580 0.02642461 0.27715700
v 0.07121663 0.04904246 0.26980744
v 0.07146501 0.03079277 0.27764242
v 0.06949538 0.04641964 0.27871886
v 0.07292712 0.04300874 0.26598919
v 0.07090090 0.03875623 0.27700887
v 0.06984041 0.04275325 0.27924697
v 0.07146882 0.04166461 0.27336420
v 0.07030450 0.03834876 0.27937760
v 0.07159230 0.02216847 0.27912346
v 0.07139549 0.02998452 0.27813453
v 0.07253230 0.02104107 0.27587754
v 0.07136922 0.03486924 0.27670303
v 0.07334570 0.01938355 0.27297342
v 0.07169294 0.04223755 0.27213284
v 0.07193364 0.01694419 0.27864813
v 0.06595878 0.04995836 0.27322625
v 0.07089961 0.03979328 0.27657976
v 0.07249939 0.01519214 0.27678259
v 0.06958948 0.04455219 0.27931606
v 0.07193326 0.04890547 0.26643098
v 0.07109558 0.04946723 0.27003653
v 0.07421607 0.03422688 0.26472725
v 0.07076378 0.04988272 0.27122807
v 0.07471362 0.02241440 0.26650460
v 0.06974719 0.04351974 0.27922807
v 0.07372397 0.01625426 0.27186775
v 0.07465844 0.03159451 0.26357269
v 0.07141438 0.02526910 0.27918286
v 0.07437082 0.03392702 0.26356014
v 0.07293982 0.02525013 0.27345196
v 0.07089239 0.04982502 0.27070382
v 0.07186692 0.01087540 0.27938225
v 0.07043779 0.04285567 0.27692982
v 0.07280978 0.02440429 0.27413260
v 0.07187592 0.04425591 0.26331770
v 0.07362264 0.02150221 0.27148003
v 0.07255393 0.00002086 0.27719628
v 0.06997945 0.04264153 0.27877355
v 0.07192023 0.04982087 0.26567468
v 0.07376942 0.03303610 0.26746409
v 0.07210494 0.03333118 0.27440078
v 0.06941771 0.04601498 0.27923995
v 0.07400170 0.03301472 0.26638610
v 0.07147538 0.01855199 0.26272433
v 0.07192987 0.02093628 0.26283709
v 0.07241253 0.02573723 0.27539391
v 0.06936853 0.04643517 0.27920256
v 0.07175015 0.01753007 0.27922902
v 0.07079885 0.03896725 0.27730318
v 0.07252813 0.02132443 0.27584210
v 0.07205541 0.03178819 0.27512366
v 0.06944331 0.04796751 0.27808508
v 0.07316431 0.03344818 0.26998824
v 0.07432522 0.00763517 0.26999933
v 0.06988451 0.03932886 0.26280409
v 0.07529500 0.01116940 0.26545928
v 0.07380299 0.03186866 0.26776097
v 0.07374774 0.02080921 0.27108019
v 0.07113309 0.03430434 0.26292389
v 0.07211323 0.00908982 0.27863541
v 0.07025447 0.03885344 0.27936653
v 0.06558768 0.04779312 0.27844520
v 0.07076191 0.03518514 0.27885002
v 0.07431485 0.01666626 0.26928961
v 0.07102676 0.04648956 0.27248301
v 0.07316129 0.03366232 0.26992086
v 0.07378717 0.03215977 0.26773173
v 0.07224311 0.04960786 0.26419832
v 0.07547357 0.01917991 0.26358215
v 0.07230191 0.01992872 0.27691486
v 0.06968514 0.04499957 0.27873054
v 0.07233705 0.01242283 0.27759676
v 0.07358468 0.02304040 0.27131430
v 0.07492034 0.02892464 0.26362117
v 0.07146137 0.04401654 0.27212358
v 0.06749667 0.04998514 0.27471561
v 0.07422792 0.01537709 0.26984906
v 0.07160459 0.04369557 0.27169590
v 0.07128224 0.03600528 0.27664534
v 0.07282092 0.02550844 0.27386975
v 0.07540657 0.01775843 0.26416435
v 0.07250352 0.01446030 0.27683996
v 0.07354683 0.01363190 0.27287174
v 0.07272091 0.00493797 0.27657368
v 0.07361259 0.03690962 0.26634517
v 0.07237619 0.03191081 0.27379498
v 0.07184420 0.03071068 0.27625947
v 0.07405912 0.00998772 0.27102661
v 0.07110285 0.03677366 0.27702991
v 0.07175054 0.01610943 0.27938388
v 0.06514878 0.04746751 0.27831805
v 0.07216745 0.00579476 0.27860067
v 0.07359479 0.02381174 0.27111170
v 0.07392396 0.01021315 0.27158366
v 0.07195536 0.01732517 0.27852102
v 0.07420861 0.03434570 0.26470401
v 0.07294927 0.03141991 0.27164353
v 0.07372346 0.00709945 0.27248200
v 0.07439036 0.01555542 0.26912998
v 0.07246404 0.01325875 0.27707424
v 0.07353710 0.02069768 0.27197268
v 0.07143641 0.02061209 0.26273394
v 0.07300224 0.00967449 0.27530153
v 0.07162471 0.04057693 0.27330983
v 0.07231775 0.01676108 0.27727770
v 0.07407010 0.03498613 0.26506332
v 0.06747916 0.04999651 0.26613904
v 0.07138615 0.02558458 0.27922193
v 0.07469941 0.02460954 0.26343835
v 0.07276349 0.00283320 0.27642210
v 0.07091263 0.04986082 0.27058140
v 0.07358534 0.02324766 0.27126828
v 0.07362057 0.03842576 0.26550008
v 0.06999855 0.04415776 0.27795573
v 0.07106030 0.03684038 0.27716256
v 0.07403451 0.00942977 0.27115219
v 0.07177358 0.03132983 0.27633682
v 0.07301970 0.03099540 0.27148586
v 0.07396108 0.03823036 0.26393689
v 0.07179535 0.03030218 0.27656334
v 0.07267584 0.03655470 0.27077789
v 0.07425628 0.02802339 0.26705156
v 0.07286035 0.03186883 0.27186067
v 0.07325893 0.01286364 0.27408225
v 0.07359378 0.03800340 0.26348748
v 0.07188626 0.04945488 0.26618147
v 0.07359776 0.01676297 0.27231974
v 0.07474192 0.01026268 0.26804277
v 0.07226783 0.02173115 0.27672461
v 0.07035283 0.03947803 0.27875647
v 0.07318259 0.02515465 0.27250230
v 0.07247950 0.01599821 0.27677484
v 0.07360316 0.01352539 0.27265385
v 0.07372483 0.04054580 0.26361405
v 0.07101628 0.03511280 0.27793588
v 0.07185932 0.01583092 0.27902441
v 0.07443004 0.03414498 0.26370628
v 0.07118367 0.03641057 0.27686423
v 0.07202605 0.03200653 0.27517034
v 0.07143914 0.04881330 0.26893495
v 0.07160254 0.00010980 0.27927882
v 0.07522126 0.02130970 0.26436324
v 0.07546581 0.01950498 0.26354507
v 0.07211175 0.02065715 0.27748668
v 0.07273296 0.02018516 0.27525523
v 0.07131150 0.04544606 0.27189133
v 0.07170550 0.01826922 0.26276874
v 0.07410670 0.02944244 0.26723639
v 0.07287632 0.04442114 0.26526898
v 0.07278792 0.01200929 0.27595888
v 0.07419806 0.03120290 0.26617546
v 0.07453743 0.03292765 0.26379802
v 0.07567190 0.00970628 0.26358024
v 0.07271123 0.04459874 0.26596649
v 0.07423643 0.01735763 0.26952372
v 0.07086468 0.03264925 0.27929663
v 0.07258064 0.03196138 0.27295679
v 0.07170192 0.03483047 0.27546696
v 0.07399050 0.01272120 0.27113433
v 0.07383394 0.03945760 0.26356933
v 0.07300145 0.03225011 0.27114032
v 0.07474482 0.01968860 0.26689993
v 0.07435626 0.01513499 0.26932991
v 0.07303795 0.03250951 0.27088574
v 0.07348667 0.04231939 0.26357161
v 0.07102872 0.03760843 0.27698731
v 0.07266597 0.03221158 0.27252857
v 0.06517295 0.04738667 0.27805905
v 0.07163370 0.02636142 0.27816531
v 0.07304942 0.03308321 0.27062042
v 0.07467102 0.01616924 0.26779926
v 0.07355949 0.03786124 0.26612004
v 0.07536788 0.02165419 0.26359151
v 0.06521597 0.04754771 0.27833879
v 0.07050291 0.03660245 0.27930301
v 0.07199272 0.01816299 0.27827248
v 0.07192902 0.04924393 0.26615117
v 0.07000204 0.04675897 0.27655128
v 0.07202661 0.04178651 0.27095394
v 0.07381236 0.01578935 0.27156631
v 0.07416011 0.02918495 0.26708209
v 0.06947866 0.04683121 0.27856284
v 0.07537601 0.02048836 0.26353471
v 0.07167698 0.03017868 0.27704158
v 0.07227248 0.01680772 0.27743672
v 0.07196538 0.01567268 0.27866012
v 0.07263862 0.03649646 0.27096437
v 0.07269600 0.02061042 0.27532643
v 0.07394857 0.03238865 0.26689828
v 0.07398602 0.01546349 0.27086808
v 0.07261055 0.02328734 0.27513530
v 0.07372473 0.03672632 0.26588627
v 0.07051811 0.03936510 0.27818777
v 0.07407970 0.02086899 0.26965772
v 0.07199325 0.02603216 0.27691056
v 0.07117094 0.03547340 0.27724115
v 0.07326685 0.04345518 0.26399962
v 0.07544981 0.01879513 0.26353607
v 0.07260607 0.03770671 0.27055599
v 0.07093892 0.03953824 0.27654432
v 0.07356867 0.03765214 0.26618634
v 0.07080339 0.03332217 0.27931010
v 0.06815867 0.00019629 0.27831864
v 0.07104246 0.03768422 0.27690654
v 0.07395908 0.02032738 0.27027388
v 0.07113677 0.04998556 0.26939214
v 0.07351073 0.01497904 0.27287819
v 0.07319006 0.04419306 0.26356239
v 0.07404507 0.01997702 0.26995275
v 0.07110472 0.04466861 0.27324096
v 0.07481826 0.03028708 0.26359337
v 0.07174734 0.03431527 0.27546774
v 0.07220004 0.01133423 0.27817088
v 0.07482131 0.02028894 0.26643404
v 0.06587619 0.04787558 0.27848527
v 0.07574116 0.00534767 0.26358921
v 0.07025253 0.03977108 0.27901236
v 0.07312630 0.04437149 0.26403202
v 0.07572959 0.00498673 0.26358302
v 0.07266044 0.01356169 0.27632722
v 0.07358211 0.01552539 0.27253123
v 0.07378934 0.01499842 0.27174378
v 0.07023076 0.03709033 0.26281228
v 0.07261162 0.01349688 0.27651420
v 0.07160408 0.02473870 0.27859506
v 0.07040185 0.03757540 0.27932262
v 0.07153155 0.04997683 0.26751499
v 0.07155224 0.04359145 0.27198099
v 0.07189238 0.01732014 0.27874979
v 0.07419082 0.02721611 0.26760845
v 0.07371242 0.03991584 0.26408735
v 0.07349456 0.01244193 0.27316514
v 0.07341377 0.04293994 0.26360406
v 0.07071859 0.04989617 0.26329405
v 0.07215404 0.02144588 0.27719299
v 0.07389654 0.03135097 0.26752303
v 0.07081686 0.04054149 0.27655779
v 0.07383893 0.01550393 0.27148903
v 0.07305878 0.02830652 0.27217340
v 0.07294024 0.04466143 0.26477224
v 0.07513568 0.02092565 0.26348926
v 0.07343674 0.01946628 0.27258615
v 0.07180881 0.03006168 0.27658418
v 0.07139087 0.04412933 0.27235463
v 0.06781078 0.04999549 0.26441340
v 0.07085058 0.03742984 0.27771638
v 0.07478813 0.02677444 0.26500553
v 0.07270432 0.00009199 0.27664485
v 0.07428348 0.01494231 0.26966047
v 0.07156017 0.02316118 0.27906181
v 0.07147635 0.02999857 0.27784091
v 0.07301133 0.03117718 0.27146188
v 0.07391792 0.01591788 0.27109759
v 0.07261405 0.02289790 0.27520003
v 0.07012232 0.04374037 0.27769222
v 0.07170924 0.02978976 0.27703716
v 0.07150932 0.03044743 0.27758318
v 0.07301204 0.03146013 0.27136422
v 0.07256548 0.03206857 0.27298121
v 0.07037167 0.04355286 0.27681628
v 0.07446939 0.00661235 0.26942893
v 0.07291849 0.01007160 0.27560335
v 0.07149077 0.02314954 0.27932003
v 0.07409710 0.03266974 0.26608303
v 0.07162776 0.02150958 0.27910753
v 0.07345149 0.01666616 0.27293227
v 0.07044013 0.03725342 0.27930421
v 0.07205922 0.00492363 0.26283576
v 0.07139354 0.03571385 0.27633519
v 0.07574063 0.00499362 0.26360632
v 0.07477650 0.01034269 0.26788689
v 0.07362503 0.03301520 0.26812628
v 0.07285560 0.02536599 0.27376127
v 0.07104714 0.03724428 0.27705827
v 0.07372742 0.01364624 0.27213606
v 0.07337254 0.02116767 0.26313257
v 0.07262077 0.04460939 0.26640904
v 0.07194531 0.03183435 0.27554775
v 0.07367086 0.03622596 0.26640156
v 0.07327096 0.01951056 0.27325476
v 0.07198792 0.03724987 0.27336653
v 0.07067314 0.03380644 0.26282298
v 0.07227219 0.02009963 0.27699542
v 0.07477503 0.03018926 0.26383892
v 0.07217256 0.02557770 0.27633467
v 0.07054408 0.04077507 0.27748029
v 0.07296321 0.02534997 0.27333984
v 0.06943111 0.04612921 0.27912635
v 0.07139530 0.03108346 0.27781192
v 0.07000923 0.04275658 0.27860990
v 0.07399936 0.03303224 0.26638879
v 0.07094627 0.04668335 0.27270853
v 0.07060191 0.03346565 0.26280149
v 0.07351590 0.01452485 0.27290447
v 0.07047303 0.04990352 0.27248650
v 0.06557291 0.04988921 0.27503647
v 0.07276186 0.02418944 0.27436423
v 0.07365939 0.02236084 0.27114987
v 0.07279235 0.04467242 0.26550857
v 0.07197530 0.03159168 0.27550170
v 0.07262351 0.01337843 0.27647801
v 0.07232236 0.02025472 0.27678526
v 0.07243278 0.02303994 0.27586086
v 0.07542843 0.02018630 0.26354295
v 0.07069474 0.03475569 0.27924775
v 0.07214052 0.03441282 0.27388445
v 0.07315799 0.04321183 0.26353015
v 0.07417056 0.01549156 0.27007951
v 0.07024777 0.03976439 0.27903292
v 0.07164671 0.04060871 0.27320217
v 0.07470624 0.02056056 0.26692135
v 0.07334724 0.01010606 0.27389848
v 0.07401014 0.01018788 0.27122757
v 0.07384580 0.03605387 0.26562934
v 0.07141238 0.01929336 0.26271783
v 0.06998506 0.04249073 0.27881964
v 0.07185396 0.03427647 0.27506708
v 0.07502096 0.02316529 0.26489871
v 0.07254313 0.03764776 0.27085635
v 0.07297925 0.01039812 0.27534991
v 0.06932197 0.00008416 0.27546879
v 0.07571692 0.00723645 0.26362345
v 0.07349759 0.04233041 0.26358349
v 0.07094215 0.04599795 0.27316128
v 0.06860998 0.04795819 0.27923408
v 0.07353072 0.02109313 0.27192985
v 0.07514541 0.01924487 0.26511217
v 0.07509042 0.02310659 0.26458019
v 0.07069820 0.03746200 0.27826926
v 0.07009029 0.03899994 0.26283327
v 0.07253873 0.02523602 0.27501707
v 0.07336421 0.03900665 0.26639881
v 0.07303104 0.03265345 0.27086187
v 0.07380772 0.01095286 0.27200338
v 0.07321528 0.04339378 0.26429887
v 0.07339501 0.03745863 0.26343631
v 0.07422087 0.01774761 0.26953225
v 0.07573160 0.00494945 0.26365011
v 0.07186535 0.03156817 0.27592459
v 0.07316832 0.03309543 0.27010239
v 0.07222124 0.04924313 0.26464666
v 0.07260081 0.02068213 0.27568044
v 0.07109423 0.03119041 0.27889329
v 0.07335669 0.04102278 0.26513964
v 0.06842696 0.00017187 0.27647362
v 0.07456603 0.00702602 0.26898609
v 0.07234998 0.03419023 0.27312378
v 0.07196546 0.00294761 0.27936635
v 0.06921424 0.04821751 0.27882365
v 0.07315207 0.03274210 0.27030206
v 0.07102975 0.03844424 0.27665398
v 0.07515890 0.02248749 0.26439879
v 0.07256421 0.02401758 0.27516620
v 0.07546100 0.01935074 0.26360962
v 0.07242299 0.01746611 0.27680750
v 0.07488174 0.02293433 0.26560340
v 0.07382910 0.01489346 0.27159302
v 0.07368366 0.02176046 0.27117406
v 0.07041092 0.04240946 0.27725313
v 0.07363818 0.03703655 0.26615605
v 0.07014259 0.03610267 0.26277246
v 0.06968908 0.04369661 0.27936140
v 0.07068409 0.03727724 0.27839224
v 0.07252487 0.03690251 0.27126933
v 0.07224152 0.01899385 0.27726585
v 0.07255468 0.03694077 0.27112633
v 0.07200835 0.02133623 0.26285704
v 0.07192506 0.02938072 0.27633993
v 0.07266348 0.00531160 0.27678341
v 0.07472481 0.00847437 0.26821623
v 0.07117972 0.03565317 0.27714665
v 0.07495985 0.02818183 0.26369778
v 0.07489757 0.01018236 0.26737135
v 0.07251164 0.02245274 0.27568061
v 0.07378423 0.03223700 0.26771632
v 0.07491302 0.01761380 0.26649256
v 0.07510435 0.01107806 0.26635836
v 0.07495326 0.01026528 0.26710958
v 0.07214083 0.02049206 0.27740872
v 0.07269536 0.00005080 0.27667777
v 0.07519710 0.02409106 0.26381038
v 0.07146887 0.02383234 0.27926873
v 0.07161736 0.02012517 0.27933927
v 0.07171658 0.01827509 0.26277105
v 0.07537741 0.02126678 0.26363861
v 0.07102023 0.04549084 0.27313899
v 0.07386868 0.03277738 0.26711215
v 0.07199981 0.04896126 0.26604111
v 0.07153220 0.03041153 0.27750920
v 0.07356774 0.02180458 0.27164085
v 0.07282444 0.04313723 0.26641515
v 0.07298403 0.03434987 0.27041193
v 0.07151046 0.02155559 0.26275826
v 0.07217487 0.04965479 0.26450882
v 0.07201126 0.04975297 0.26526597
v 0.07315042 0.04349283 0.26455807
v 0.07059301 0.04057393 0.27738575
v 0.07338409 0.01307127 0.27356842
v 0.07276116 0.04385897 0.26625600
v 0.07376675 0.02165171 0.27084899
v 0.06821004 0.00022361 0.27727416
v 0.07146522 0.02990695 0.27790985
v 0.07051900 0.04210712 0.27698111
v 0.07359062 0.03780808 0.26348238
v 0.07092015 0.04647901 0.27295129
v 0.07167537 0.04963948 0.26709480
v 0.07375693 0.02444268 0.26324546
v 0.07174640 0.04992861 0.26647401
v 0.07405971 0.02989382 0.26729231
v 0.07264478 0.02538153 0.27458071
v 0.06977656 0.03989020 0.26279995
v 0.06947088 0.04174441 0.26279582
v 0.07474519 0.01058577 0.26800581
v 0.07521147 0.01807220 0.26348165
v 0.07167031 0.04305466 0.27178493
v 0.07525138 0.02178851 0.26352110
v 0.07543187 0.01787908 0.26402440
v 0.07067933 0.03969471 0.27744916
v 0.07365025 0.01433278 0.27237843
v 0.07159830 0.00527498 0.26298452
v 0.07368134 0.03205573 0.26823200
v 0.07057095 0.03714884 0.27885947
v 0.07421601 0.00665643 0.27046766
v 0.06864589 0.00019160 0.27566540
v 0.07051700 0.03612078 0.27937653
v 0.07227738 0.04832610 0.26518635
v 0.07170593 0.04940498 0.26714454
v 0.07275470 0.04373288 0.26637732
v 0.07351251 0.03836779 0.26606413
v 0.07381012 0.02163216 0.27067074
v 0.07256754 0.03622178 0.26324704
v 0.07371668 0.02199538 0.27098897
v 0.07213877 0.03135398 0.27492426
v 0.07091590 0.04991700 0.27051344
v 0.07307893 0.03195555 0.27090581
v 0.07341786 0.01895817 0.27274488
v 0.07449317 0.01598700 0.26861204
v 0.07383006 0.03809292 0.26465878
v 0.07154026 0.03067034 0.27740100
v 0.07385702 0.01616423 0.27132189
v 0.07280981 0.04454682 0.26551312
v 0.07373125 0.03291817 0.26768496
v 0.07388572 0.01430218 0.27142180
v 0.07222177 0.04097187 0.27056220
v 0.07205438 0.04176055 0.27084280
v 0.07414948 0.01015915 0.27062419
v 0.07475016 0.02978225 0.26410821
v 0.07157090 0.02228231 0.27918154
v 0.07166160 0.04999911 0.26684656
v 0.07088635 0.03678512 0.27782665
v 0.07320850 0.01981585 0.27345208
v 0.07458798 0.03219586 0.26391929
v 0.07330517 0.03324384 0.26944920
v 0.07308159 0.02010916 0.27389919
v 0.07405081 0.02060837 0.26982685
v 0.07382755 0.01074272 0.27193694
v 0.07408939 0.00936915 0.27092908
v 0.07302025 0.01023029 0.27519958
v 0.07207567 0.02059421 0.27762935
v 0.07240726 0.04853444 0.26433053
v 0.07042975 0.03440583 0.26278939
v 0.07347472 0.03326817 0.26869427
v 0.07426154 0.01548596 0.26969119
v 0.07159362 0.04980484 0.26735794
v 0.06926316 0.04628968 0.27934638
v 0.07189238 0.03053131 0.27613167
v 0.07229000 0.03440257 0.27329241
v 0.07374363 0.03999964 0.26387682
v 0.07364050 0.02342153 0.27100598
v 0.07195892 0.00444842 0.27937774
v 0.07378740 0.02293009 0.27050344
v 0.07238585 0.03781361 0.27144929
v 0.07471838 0.02226556 0.26651721
v 0.07290348 0.01076531 0.27561222
v 0.07361168 0.02418998 0.27096344
v 0.07042102 0.03930954 0.26290447
v 0.07547456 0.01828962 0.26374868
v 0.07224917 0.01630624 0.27757742
v 0.07251400 0.01343881 0.27687786
v 0.07273158 0.01373377 0.27604056
v 0.07265308 0.03649568 0.27090241
v 0.07117379 0.03573498 0.27714005
v 0.07224351 0.02451267 0.27627932
v 0.07271208 0.04401118 0.26639052
v 0.07250082 0.03618077 0.26323303
v 0.07209207 0.04934840 0.26521779
v 0.07114364 0.02430722 0.26271443
v 0.07062693 0.04168165 0.27676448
v 0.07165964 0.03119428 0.27679989
v 0.07165431 0.02160319 0.27899668
v 0.07134811 0.03546780 0.27658644
v 0.07223234 0.04887495 0.26492370
v 0.07530673 0.02294671 0.26356382
v 0.07195304 0.03293415 0.27514107
v 0.07487039 0.01036478 0.26747699
v 0.07243500 0.01876174 0.26292135
v 0.07233688 0.02446405 0.26295804
v 0.07111125 0.03158224 0.27871108
v 0.07207337 0.04983497 0.26356047
v 0.07178453 0.01495987 0.27935931
v 0.07316417 0.02854359 0.27167107
v 0.07282011 0.01378578 0.27569648
v 0.07397510 0.01098984 0.27132188
v 0.07484414 0.02316281 0.26572831
v 0.07175418 0.02956419 0.27693627
v 0.07295469 0.02552548 0.27333872
v 0.07196642 0.03479539 0.27444232
v 0.07351139 0.02125300 0.27197516
v 0.07304856 0.03361276 0.27042220
v 0.07392941 0.02053358 0.27037058
v 0.07235701 0.04832387 0.26477930
v 0.07260133 0.03730246 0.27076286
v 0.07237541 0.03972278 0.27053292
v 0.07128837 0.03569046 0.27673259
v 0.07245554 0.01630790 0.27682863
v 0.07119627 0.03086322 0.27861553
v 0.07297563 0.04266171 0.26348092
v 0.07358302 0.01204413 0.27283556
v 0.07266742 0.00000755 0.27635072
v 0.07346922 0.03821283 0.26346824
v 0.07273541 0.03287467 0.27201463
v 0.07152159 0.02438091 0.27896819
v 0.07244820 0.01396451 0.27708023
v 0.07394632 0.02062673 0.27028359
v 0.07229968 0.04020592 0.27061536
v 0.07302695 0.00926357 0.27522669
v 0.07103773 0.04621904 0.27260716
v 0.07337097 0.01940641 0.27286635
v 0.07060782 0.03747680 0.27859826
v 0.07332705 0.01276890 0.27381545
v 0.07271886 0.01370925 0.27609133
v 0.07440044 0.01599880 0.26901881
v 0.07395829 0.03189942 0.26704325
v 0.07198671 0.03767923 0.27317949
v 0.07176218 0.03062179 0.27659202
v 0.07258364 0.02052715 0.27577113
v 0.07247645 0.03374725 0.27276593
v 0.07476330 0.03094705 0.26358925
v 0.07494204 0.01679671 0.26650506
v 0.07170796 0.02129812 0.27885038
v 0.07184867 0.03773421 0.26314180
v 0.07460327 0.02149503 0.26722657
v 0.06959386 0.04782495 0.27757788
v 0.07403353 0.03821856 0.26358408
v 0.07196933 0.03133668 0.27559905
v 0.06981121 0.04728446 0.27701847
v 0.07375943 0.03242394 0.26775641
v 0.07443247 0.00489226 0.26333050
v 0.07511374 0.02114717 0.26348663
v 0.07461221 0.02450404 0.26341946
v 0.07323986 0.02815163 0.27146983
v 0.07353935 0.02105108 0.27190332
v 0.07208144 0.01789042 0.27799213
v 0.07126357 0.04620769 0.27161999
v 0.07474293 0.03013161 0.26401266
v 0.07223461 0.02602277 0.27601001
v 0.07189779 0.00982845 0.27936442
v 0.07453977 0.03253787 0.26398463
v 0.07481651 0.02991219 0.26374833
v 0.07241508 0.01685502 0.27691375
v 0.07355136 0.02145299 0.27177678
v 0.07302306 0.04460589 0.26439031
v 0.07253698 0.02229737 0.27561598
v 0.07129944 0.03760250 0.26303193
v 0.07356262 0.03867151 0.26563199
v 0.07133243 0.03591155 0.27649315
v 0.07408129 0.03720415 0.26356755
v 0.07160700 0.02988558 0.27738963
v 0.06834093 0.04822659 0.27917545
v 0.07398334 0.03841350 0.26371493
v 0.07094670 0.03672869 0.27762418
v 0.07459418 0.02162077 0.26724176
v 0.07235872 0.04827865 0.26481118
v 0.07247617 0.02054232 0.27616995
v 0.07421401 0.01786289 0.26954416
v 0.07236330 0.02111950 0.26292683
v 0.07155090 0.02143689 0.27938432
v 0.07269457 0.01304987 0.27623615
v 0.07255765 0.02314131 0.27536764
v 0.07157815 0.02221533 0.27916696
v 0.07350791 0.03797444 0.26630951
v 0.06990423 0.04197999 0.27934804
v 0.07220781 0.01536438 0.27782011
v 0.07328182 0.01341670 0.27395196
v 0.07462244 0.03045500 0.26445886
v 0.07158119 0.02123288 0.27931297
v 0.07165374 0.00646304 0.26275561
v 0.06909492 0.04706473 0.27932983
v 0.07175676 0.04949466 0.26680899
v 0.07206423 0.03315020 0.27462506
v 0.07345702 0.01746012 0.27280616
v 0.07321416 0.04160870 0.26546854
v 0.07362821 0.02308405 0.27112688
v 0.07429398 0.01674235 0.26936792
v 0.07290540 0.01997146 0.27462193
v 0.07558972 0.01090056 0.26407207
v 0.07453128 0.02699775 0.26613629
v 0.07183928 0.02943303 0.27665558
v 0.07172964 0.00510849 0.26276895
v 0.07288511 0.02438309 0.27383932
v 0.07383745 0.03289858 0.26720637
v 0.07351132 0.01631495 0.27273262
v 0.07365416 0.02369170 0.27089353
v 0.07361537 0.04016572 0.26440883
v 0.07028643 0.03955276 0.27897321
v 0.07228629 0.04814318 0.26530430
v 0.07269911 0.02086382 0.27526718
v 0.07358194 0.03779875 0.26604499
v 0.07321824 0.04399287 0.26384712
v 0.07196468 0.00490310 0.26291487
v 0.07269991 0.03272348 0.27221761
v 0.07038880 0.04293416 0.27707848
v 0.07190986 0.01665769 0.27876910
v 0.07210236 0.01802507 0.26284760
v 0.07378255 0.01534684 0.27173515
v 0.07268055 0.02098155 0.27531806
v 0.07207338 0.02010989 0.27771040
v 0.06606117 0.04998980 0.27275570
v 0.07382372 0.02215830 0.27051084
v 0.07296222 0.02530731 0.27335215
v 0.07229906 0.04829806 0.26510028
v 0.07184414 0.04913278 0.26668363
v 0.07115724 0.04404570 0.27336105
v 0.07320399 0.02126016 0.27319117
v 0.07064346 0.03914403 0.27781059
v 0.07236689 0.03599185 0.26320264
v 0.07204403 0.04877218 0.26598350
v 0.06952880 0.04757101 0.27796886
v 0.06894913 0.00020955 0.27537056
v 0.07119642 0.03423730 0.27755109
v 0.07298559 0.03415520 0.27048035
v 0.07434052 0.01528222 0.26938070
v 0.07059578 0.03750071 0.26289280
v 0.07223337 0.01797509 0.26287390
v 0.07016147 0.03682765 0.26279277
v 0.07287856 0.02007601 0.27470811
v 0.07341994 0.01990509 0.27258330
v 0.07108119 0.04577102 0.27269790
v 0.07035654 0.03785005 0.27937788
v 0.07189338 0.03016917 0.27623470
v 0.07201922 0.02634217 0.27675405
v 0.06953797 0.04507259 0.27925398
v 0.07440040 0.02126093 0.26818004
v 0.07374565 0.03260665 0.26774592
v 0.07301948 0.03166514 0.27126304
v 0.07195771 0.04870586 0.26648245
v 0.07293444 0.03449152 0.27056248
v 0.07146490 0.04608982 0.27080379
v 0.07306758 0.00818921 0.27512269
v 0.07410605 0.03750469 0.26359039
v 0.07196356 0.00072340 0.27938015
v 0.07418117 0.02889628 0.26708774
v 0.06954079 0.00002652 0.27870400
v 0.07126388 0.02237264 0.26271725
v 0.07334491 0.04345845 0.26360296
v 0.07280890 0.04371900 0.26611576
v 0.07377165 0.02198940 0.27076173
v 0.07199839 0.00911345 0.27905729
v 0.07349214 0.01494859 0.27295683
v 0.07199296 0.01606883 0.27852754
v 0.07341135 0.02485129 0.27164270
v 0.07368030 0.02208681 0.27112069
v 0.07274171 0.03232406 0.27218581
v 0.06579213 0.04990608 0.27502124
v 0.07161422 0.02158926 0.27914476
v 0.07230205 0.04983710 0.26367955
v 0.07202284 0.00009415 0.27917700
v 0.07565053 0.01059629 0.26379244
v 0.07180910 0.03428290 0.27523960
v 0.07227045 0.04012682 0.27078030
v 0.07155673 0.02129554 0.27938438
v 0.07266642 0.02189311 0.27519498
v 0.07159814 0.03024223 0.27731565
v 0.06964518 0.04064560 0.26279698
v 0.07266961 0.02043196 0.27545821
v 0.07387081 0.03191720 0.26744690
v 0.07339218 0.02044583 0.27260234
v 0.07211250 0.04903491 0.26539625
v 0.07241747 0.04899403 0.26385968
v 0.07236615 0.02139443 0.27642438
v 0.07409651 0.02003452 0.26971689
v 0.07459675 0.02134478 0.26728844
v 0.07200923 0.00589062 0.27918045
v 0.07481089 0.01867665 0.26677571
v 0.06796470 0.00028151 0.27826457
v 0.07445726 0.01861815 0.26835216
v 0.07376325 0.02237623 0.27071778
v 0.07450468 0.03057870 0.26496632
v 0.07546038 0.01108831 0.26467847
v 0.07274051 0.03565596 0.27088931
v 0.07197643 0.00952095 0.27910941
v 0.07186748 0.02253610 0.27804775
v 0.06802883 0.04993666 0.26333390
v 0.07511240 0.02427891 0.26417461
v 0.07182109 0.03187060 0.27599647
v 0.07465357 0.02677813 0.26563973
v 0.07238330 0.02131481 0.27637576
v 0.07261873 0.02290801 0.27517977
v 0.07373997 0.02318000 0.27064731
v 0.07038942 0.04337079 0.27684403
v 0.07017775 0.04035516 0.27903803
v 0.07122933 0.04459455 0.27276822
v 0.07343142 0.02483089 0.27156538
v 0.07433432 0.03374093 0.26438985
v 0.07507059 0.01722686 0.26582800
v 0.07068219 0.03535037 0.27908519
v 0.07481848 0.02277946 0.26593450
v 0.07273119 0.02050204 0.27520885
v 0.07439639 0.02721116 0.26669083
v 0.07220962 0.01850570 0.27744849
v 0.07201089 0.00946264 0.27898872
v 0.07360651 0.03300940 0.26821144
v 0.06913393 0.04998922 0.27416071
v 0.07238024 0.03056989 0.27419815
v 0.07219852 0.02009558 0.27726313
v 0.07312971 0.02834852 0.27187925
v 0.06986507 0.04759756 0.27663986
v 0.07383845 0.02194437 0.27049226
v 0.07411250 0.02013725 0.26963005
v 0.07506354 0.02398526 0.26448960
v 0.07215202 0.02909121 0.27552739
v 0.07475693 0.01886688 0.26699054
v 0.06652321 0.04995855 0.27495692
v 0.07271528 0.02392010 0.27460040
v 0.07212523 0.04993611 0.26450577
v 0.07498309 0.01741443 0.26620201
v 0.07214832 0.03350948 0.27416640
v 0.07464122 0.00629337 0.26865758
v 0.07199210 0.01754281 0.27836017
v 0.07078106 0.04000083 0.27693325
v 0.07332805 0.04302478 0.26355802
v 0.07243700 0.01433856 0.27709032
v 0.07452936 0.00652612 0.26917044
v 0.07486313 0.01707393 0.26680878
v 0.07229771 0.01842459 0.27714011
v 0.07431553 0.02774475 0.26687616
v 0.07238170 0.01818233 0.27686633
v 0.07366728 0.01616997 0.27211186
v 0.06990295 0.04753399 0.27652539
v 0.07369425 0.02357825 0.27075259
v 0.07047173 0.00004707 0.27577189
v 0.07238103 0.01292925 0.27740113
v 0.07118288 0.04494604 0.27276539
v 0.07199056 0.01625041 0.27851828
v 0.07409211 0.03281081 0.26604458
v 0.07518208 0.01722457 0.26530845
v 0.07349184 0.02128706 0.27204600
v 0.07432868 0.02714744 0.26702644
v 0.07199207 0.04903064 0.26601877
v 0.07184800 0.04270663 0.27119942
v 0.07226085 0.03762998 0.27206163
v 0.07269057 0.03690754 0.27055591
v 0.07104640 0.04488004 0.27336362
v 0.07297701 0.03282100 0.27102871
v 0.07087817 0.04612573 0.27335702
v 0.07217251 0.03386238 0.27394850
v 0.07242549 0.01728159 0.27682185
v 0.07313710 0.02824303 0.27188245
v 0.07270182 0.01899753 0.26297764
v 0.06994547 0.03801649 0.26278004
v 0.07231441 0.00923332 0.27788363
v 0.07346978 0.02468471 0.27143973
v 0.07496824 0.02784325 0.26377721
f 522 645 708
f 708 645 382
f 382 645 406
f 353 225 148
f 724 198 710
f 798 576 12
f 12 378 798
f 626 382 406
f 353 272 626
f 708 382 626
f 626 198 708
f 352 7 406
f 265 723 712
f 273 276 210
f 255 210 276
f 327 276 273
f 395 276 327
f 708 198 30
f 30 198 724
f 231 710 198
f 12 710 231
f 231 353 148
f 12 231 260
f 402 378 12
f 12 260 402
f 402 260 458
f 148 225 742
f 458 260 742
f 225 353 742
f 742 231 148
f 742 260 231
f 656 325 667
f 667 325 378
f 605 798 378
f 378 325 605
f 576 798 605
f 605 395 576
f 605 276 395
f 605 325 276
f 614 527 740
f 291 41 24
f 265 291 24
f 723 24 782
f 782 24 41
f 736 723 54
f 736 712 723
f 273 210 379
f 691 325 656
f 276 325 691
f 11 41 55
f 198 626 119
f 119 231 198
f 119 626 272
f 119 272 353
f 353 231 119
f 395 427 790
f 378 402 481
f 656 667 481
f 477 402 458
f 477 481 402
f 11 656 477
f 656 481 477
f 728 708 147
f 708 30 405
f 405 527 708
f 131 550 268
f 406 645 104
f 645 522 104
f 750 742 353
f 750 675 302
f 458 742 750
f 750 41 11
f 750 302 41
f 11 477 750
f 750 477 458
f 556 723 265
f 265 24 556
f 556 24 723
f 54 723 32
f 723 782 32
f 770 626 406
f 54 32 451
f 725 379 210
f 101 204 656
f 101 372 204
f 656 204 671
f 671 691 656
f 276 691 471
f 471 255 276
f 318 790 403
f 403 790 427
f 395 790 785
f 686 667 378
f 378 481 686
f 686 481 667
f 189 641 323
f 576 395 437
f 557 147 614
f 105 147 670
f 89 527 614
f 614 147 89
f 708 527 89
f 89 147 708
f 728 147 440
f 440 147 105
f 319 117 818
f 532 805 287
f 287 608 532
f 805 608 287
f 137 425 613
f 778 425 137
f 210 255 200
f 753 805 561
f 84 601 595
f 595 268 550
f 131 268 616
f 522 76 99
f 99 104 522
f 406 104 109
f 104 99 109
f 109 352 406
f 353 675 73
f 73 750 353
f 675 750 73
f 7 352 47
f 406 7 47
f 47 770 406
f 302 675 164
f 125 32 782
f 782 451 125
f 125 451 32
f 379 725 653
f 273 379 653
f 653 746 273
f 653 138 746
f 372 101 34
f 544 372 34
f 11 544 34
f 533 387 265
f 817 387 533
f 92 55 41
f 601 222 380
f 265 712 380
f 380 222 265
f 518 350 544
f 84 166 86
f 228 434 596
f 220 434 228
f 716 641 140
f 716 323 641
f 139 580 536
f 281 139 536
f 277 139 281
f 576 437 94
f 94 437 724
f 724 710 94
f 12 576 94
f 94 710 12
f 56 30 724
f 56 167 30
f 319 818 149
f 149 740 527
f 149 117 740
f 149 818 117
f 815 137 563
f 760 608 815
f 815 718 760
f 532 608 760
f 8 652 323
f 147 557 193
f 193 670 147
f 715 768 748
f 748 614 715
f 614 740 715
f 740 117 715
f 805 793 179
f 215 19 326
f 326 19 338
f 805 179 205
f 205 179 733
f 205 608 805
f 114 293 733
f 608 293 114
f 815 4 773
f 296 137 815
f 296 778 137
f 815 773 490
f 335 357 490
f 697 357 335
f 215 326 269
f 269 326 335
f 687 69 362
f 687 335 69
f 213 165 400
f 230 200 550
f 442 200 230
f 375 409 385
f 751 820 304
f 126 200 442
f 534 725 126
f 126 725 210
f 210 200 126
f 550 200 361
f 766 793 805
f 429 550 131
f 131 753 429
f 429 753 304
f 304 820 429
f 268 595 321
f 596 746 803
f 746 138 803
f 113 746 596
f 596 434 113
f 113 327 273
f 273 746 113
f 721 675 353
f 721 780 675
f 353 626 721
f 626 780 721
f 133 770 675
f 675 780 133
f 626 770 133
f 133 780 626
f 43 166 84
f 84 595 43
f 43 595 550
f 550 361 43
f 644 101 656
f 644 34 101
f 644 656 11
f 11 34 644
f 265 222 788
f 265 387 10
f 387 92 10
f 10 92 41
f 10 291 265
f 10 41 291
f 112 387 817
f 112 92 387
f 469 731 817
f 469 544 11
f 469 817 544
f 11 55 469
f 55 92 469
f 92 731 469
f 554 166 544
f 142 638 809
f 140 641 455
f 455 190 140
f 552 434 220
f 220 216 552
f 306 216 220
f 306 500 216
f 190 216 332
f 220 228 156
f 156 228 494
f 580 139 789
f 640 789 139
f 559 641 189
f 319 377 531
f 724 437 305
f 305 56 724
f 318 56 305
f 305 790 318
f 305 785 790
f 395 785 305
f 305 437 395
f 797 805 532
f 44 93 581
f 188 718 815
f 815 563 188
f 25 760 718
f 202 412 652
f 189 323 572
f 323 652 814
f 652 412 814
f 814 572 323
f 652 8 511
f 593 631 127
f 722 772 127
f 722 322 674
f 670 193 717
f 33 789 717
f 789 640 717
f 733 793 208
f 733 179 709
f 709 179 793
f 808 591 338
f 808 421 39
f 338 421 808
f 39 529 808
f 161 591 808
f 808 529 161
f 796 349 352
f 69 335 548
f 335 326 548
f 301 800 759
f 118 639 65
f 65 708 728
f 696 634 482
f 728 634 696
f 696 65 728
f 733 293 466
f 466 205 733
f 466 293 608
f 608 205 466
f 492 309 175
f 702 492 218
f 218 668 180
f 342 613 698
f 578 668 218
f 578 594 668
f 668 594 404
f 400 165 67
f 67 459 400
f 165 459 67
f 226 459 165
f 335 490 108
f 815 490 771
f 771 490 357
f 602 697 425
f 357 697 602
f 374 19 215
f 19 374 551
f 259 213 335
f 259 687 362
f 335 687 259
f 259 696 482
f 482 634 259
f 259 634 213
f 555 213 400
f 385 409 21
f 21 409 442
f 442 230 21
f 820 751 438
f 550 429 438
f 438 429 820
f 534 384 474
f 138 653 474
f 474 725 534
f 474 653 725
f 411 442 534
f 534 126 411
f 411 126 442
f 805 753 654
f 654 766 805
f 654 753 131
f 131 766 654
f 341 616 268
f 268 321 341
f 123 510 519
f 302 164 506
f 675 770 506
f 506 164 675
f 41 302 506
f 506 782 41
f 544 166 464
f 473 361 240
f 473 43 361
f 333 43 473
f 166 43 607
f 607 464 166
f 553 441 816
f 817 533 574
f 817 731 468
f 468 112 817
f 468 731 92
f 92 112 468
f 290 380 712
f 712 254 290
f 817 692 418
f 544 817 418
f 418 518 544
f 624 554 544
f 624 86 166
f 166 554 624
f 624 601 84
f 84 86 624
f 690 788 222
f 817 574 690
f 690 574 788
f 376 529 39
f 514 16 155
f 155 16 167
f 167 56 155
f 173 514 151
f 151 16 173
f 173 16 514
f 167 16 141
f 30 167 141
f 181 455 641
f 641 377 181
f 377 515 181
f 151 190 391
f 190 455 391
f 435 113 434
f 395 327 435
f 327 113 435
f 151 514 370
f 121 156 589
f 589 156 494
f 20 228 596
f 237 278 295
f 237 295 365
f 264 278 716
f 659 278 237
f 323 716 659
f 716 278 659
f 75 559 189
f 537 75 139
f 559 75 537
f 277 281 635
f 660 797 532
f 775 44 581
f 581 251 775
f 581 266 512
f 512 251 581
f 700 251 18
f 700 775 251
f 676 775 700
f 561 805 81
f 81 629 561
f 805 629 81
f 27 169 130
f 760 25 819
f 130 169 819
f 819 27 130
f 532 760 819
f 794 202 593
f 412 202 794
f 593 127 794
f 765 202 652
f 572 814 617
f 330 563 137
f 643 634 728
f 722 634 643
f 728 440 643
f 643 322 722
f 23 127 772
f 772 674 23
f 359 127 631
f 722 127 340
f 127 359 340
f 28 772 722
f 28 674 772
f 33 717 243
f 243 717 193
f 129 715 117
f 129 117 319
f 768 715 129
f 131 616 504
f 504 208 793
f 504 766 131
f 793 766 504
f 238 793 733
f 733 709 238
f 238 709 793
f 218 397 221
f 407 397 218
f 510 397 407
f 110 510 123
f 110 397 510
f 110 221 397
f 123 566 227
f 161 529 367
f 161 545 294
f 699 99 76
f 50 545 161
f 161 90 50
f 352 109 600
f 326 623 571
f 192 548 326
f 362 69 192
f 69 548 192
f 611 705 122
f 122 705 349
f 558 4 815
f 558 175 4
f 815 608 558
f 608 114 558
f 492 175 558
f 315 309 492
f 492 702 315
f 154 175 309
f 309 315 154
f 4 175 154
f 218 180 154
f 154 702 218
f 154 315 702
f 320 252 439
f 320 307 252
f 320 634 722
f 439 165 320
f 165 213 320
f 213 634 320
f 252 307 2
f 698 252 2
f 2 342 698
f 540 342 2
f 540 2 749
f 749 2 307
f 307 320 749
f 57 252 698
f 459 226 57
f 439 252 57
f 57 282 439
f 85 165 439
f 85 226 165
f 439 282 579
f 579 85 439
f 226 85 579
f 282 57 579
f 579 57 226
f 523 697 335
f 335 144 523
f 459 57 562
f 726 269 335
f 335 551 726
f 726 551 374
f 215 269 726
f 726 374 215
f 363 51 524
f 524 51 813
f 335 213 752
f 213 555 752
f 777 438 751
f 777 375 385
f 561 375 777
f 777 753 561
f 304 753 777
f 777 751 304
f 642 341 321
f 707 595 601
f 6 321 595
f 595 509 6
f 284 506 263
f 263 47 352
f 770 47 263
f 263 506 770
f 203 705 611
f 633 43 333
f 633 607 43
f 711 159 372
f 711 372 544
f 450 159 711
f 544 464 711
f 711 607 450
f 464 607 711
f 606 473 240
f 333 473 606
f 441 553 42
f 204 441 42
f 42 671 204
f 265 788 364
f 788 574 364
f 364 533 265
f 364 574 533
f 135 485 705
f 705 203 135
f 197 705 334
f 334 22 197
f 71 367 501
f 485 627 61
f 485 501 448
f 350 518 339
f 339 116 350
f 544 350 683
f 350 116 683
f 258 638 142
f 258 665 638
f 123 519 449
f 449 566 123
f 688 566 449
f 449 704 524
f 524 404 449
f 449 594 688
f 449 404 594
f 569 376 39
f 256 809 638
f 256 569 809
f 376 569 256
f 111 155 318
f 514 155 111
f 480 56 318
f 318 155 480
f 480 155 56
f 30 141 426
f 426 405 30
f 527 405 426
f 426 149 527
f 319 149 426
f 426 141 16
f 369 16 151
f 369 515 16
f 160 377 319
f 160 515 377
f 151 391 513
f 434 552 430
f 430 435 434
f 430 427 395
f 395 435 430
f 470 552 216
f 560 370 216
f 560 216 190
f 121 589 394
f 394 266 581
f 216 500 49
f 49 332 216
f 500 295 49
f 648 237 83
f 337 8 648
f 648 8 323
f 26 511 8
f 673 511 26
f 734 8 337
f 337 609 734
f 734 609 8
f 447 188 563
f 93 27 447
f 718 188 447
f 447 25 718
f 447 819 25
f 27 819 447
f 567 237 497
f 567 262 581
f 337 648 70
f 651 156 121
f 497 237 310
f 237 365 310
f 351 716 140
f 351 264 716
f 140 190 476
f 795 659 237
f 31 535 189
f 189 572 31
f 670 535 31
f 670 717 801
f 801 535 670
f 588 139 277
f 588 537 139
f 319 635 358
f 358 635 281
f 319 531 207
f 207 635 319
f 93 775 714
f 714 775 676
f 676 1 714
f 93 44 457
f 457 775 93
f 676 700 528
f 528 1 676
f 744 1 528
f 805 797 528
f 528 629 805
f 93 744 528
f 528 719 93
f 413 375 561
f 561 764 413
f 561 629 530
f 530 764 561
f 650 27 93
f 792 794 127
f 673 765 664
f 664 511 673
f 673 399 245
f 245 765 673
f 572 617 162
f 563 330 87
f 87 330 91
f 540 749 53
f 53 360 342
f 53 342 540
f 354 330 137
f 91 330 354
f 767 792 422
f 127 23 422
f 422 792 127
f 38 66 547
f 547 722 516
f 722 340 516
f 722 674 597
f 597 28 722
f 674 28 597
f 157 281 536
f 536 580 157
f 157 358 281
f 157 129 319
f 319 358 157
f 799 157 580
f 129 157 799
f 811 227 566
f 811 566 688
f 688 594 811
f 811 578 218
f 594 578 811
f 218 221 390
f 390 811 218
f 227 811 390
f 123 227 390
f 390 110 123
f 221 110 390
f 727 529 582
f 727 367 529
f 582 501 727
f 727 501 367
f 454 787 74
f 64 90 161
f 64 680 90
f 443 759 800
f 443 381 812
f 757 90 443
f 796 235 443
f 812 796 443
f 128 171 99
f 99 699 128
f 774 796 352
f 352 600 774
f 685 600 109
f 253 571 362
f 326 571 253
f 362 192 253
f 253 192 326
f 362 571 428
f 428 571 623
f 812 381 462
f 462 796 812
f 349 796 462
f 65 696 283
f 118 65 283
f 283 696 324
f 408 326 338
f 408 623 326
f 408 261 623
f 14 639 118
f 492 558 478
f 478 558 114
f 478 114 733
f 186 749 320
f 720 214 180
f 720 180 668
f 59 314 496
f 425 697 655
f 697 523 655
f 698 613 655
f 655 613 425
f 655 57 698
f 655 562 57
f 459 562 625
f 300 523 144
f 144 562 300
f 564 363 524
f 524 338 564
f 524 813 784
f 784 813 98
f 59 752 346
f 346 752 555
f 199 17 442
f 442 409 199
f 5 474 384
f 616 341 612
f 341 642 612
f 745 504 616
f 208 504 745
f 745 642 208
f 733 208 590
f 208 642 590
f 802 100 321
f 321 6 802
f 802 6 509
f 769 519 510
f 510 604 769
f 124 478 733
f 510 407 124
f 124 407 218
f 218 492 124
f 492 478 124
f 782 506 465
f 465 96 782
f 54 451 452
f 452 451 782
f 782 96 452
f 452 736 54
f 398 517 736
f 630 517 568
f 197 22 484
f 22 703 484
f 349 705 58
f 58 88 349
f 58 705 197
f 352 349 80
f 349 88 80
f 695 203 584
f 611 122 584
f 584 203 611
f 584 443 695
f 381 443 584
f 102 159 450
f 450 633 102
f 450 607 424
f 424 633 450
f 607 633 424
f 298 606 240
f 816 606 298
f 298 553 816
f 132 800 301
f 705 485 541
f 541 334 705
f 663 703 22
f 472 71 236
f 71 501 236
f 236 135 472
f 392 290 254
f 254 453 392
f 713 453 254
f 601 627 176
f 176 665 601
f 191 525 627
f 601 380 191
f 191 627 601
f 661 61 627
f 485 448 649
f 690 621 280
f 280 692 817
f 817 690 280
f 217 690 222
f 217 621 690
f 217 222 601
f 601 624 217
f 704 449 244
f 244 338 524
f 244 421 338
f 570 501 582
f 638 501 570
f 570 256 638
f 319 426 706
f 706 426 16
f 455 181 587
f 587 289 455
f 575 391 455
f 455 289 575
f 575 513 391
f 145 370 514
f 151 370 40
f 370 560 40
f 40 190 151
f 40 560 190
f 266 394 632
f 632 394 589
f 672 476 190
f 672 295 278
f 383 26 8
f 299 567 158
f 115 609 158
f 158 567 115
f 93 609 115
f 581 93 115
f 115 567 581
f 48 648 83
f 237 567 48
f 694 609 337
f 337 70 694
f 158 609 694
f 121 262 212
f 212 651 121
f 262 567 212
f 247 365 295
f 247 134 365
f 365 134 689
f 220 156 689
f 237 648 184
f 184 795 237
f 489 1 744
f 93 714 415
f 415 714 1
f 1 489 415
f 415 744 93
f 415 489 744
f 44 775 487
f 487 457 44
f 775 457 487
f 738 776 512
f 738 512 266
f 791 20 596
f 791 776 20
f 629 528 29
f 29 528 700
f 18 779 739
f 739 700 18
f 739 29 700
f 629 29 739
f 739 5 384
f 27 650 150
f 169 27 150
f 532 819 150
f 150 819 169
f 93 660 526
f 526 650 93
f 526 660 532
f 610 792 767
f 107 399 673
f 749 186 107
f 360 53 107
f 107 53 749
f 652 511 693
f 511 664 693
f 693 765 652
f 693 664 765
f 45 245 399
f 45 399 593
f 617 72 242
f 242 72 670
f 242 162 617
f 105 670 286
f 670 72 286
f 286 233 105
f 786 610 286
f 286 610 767
f 286 422 233
f 767 422 286
f 103 388 467
f 103 467 137
f 137 613 103
f 781 354 137
f 636 248 410
f 410 248 467
f 467 388 410
f 636 620 311
f 311 248 636
f 620 107 311
f 637 722 547
f 547 66 637
f 436 340 359
f 436 516 340
f 547 516 436
f 129 799 270
f 748 768 270
f 768 129 270
f 343 454 74
f 63 454 343
f 343 373 63
f 366 15 758
f 639 14 758
f 758 14 366
f 90 680 267
f 759 443 267
f 757 443 317
f 317 443 235
f 545 50 460
f 50 416 460
f 63 373 95
f 347 416 50
f 347 95 416
f 63 95 347
f 90 171 669
f 669 50 90
f 239 109 99
f 239 685 109
f 99 345 239
f 120 763 362
f 539 428 623
f 763 120 539
f 362 428 539
f 539 120 362
f 623 261 195
f 261 146 195
f 146 628 195
f 257 408 338
f 338 591 257
f 257 591 161
f 787 475 257
f 74 787 257
f 257 294 74
f 161 294 257
f 257 475 15
f 396 459 335
f 335 314 396
f 314 446 396
f 308 314 459
f 308 446 314
f 59 496 546
f 335 752 546
f 546 752 59
f 174 314 335
f 174 496 314
f 335 546 174
f 174 546 496
f 459 625 730
f 335 459 730
f 592 144 335
f 196 108 143
f 143 214 196
f 335 108 196
f 196 551 335
f 196 647 551
f 98 647 196
f 196 784 98
f 338 19 9
f 9 564 338
f 59 346 573
f 573 314 59
f 573 555 400
f 573 346 555
f 400 459 573
f 459 314 573
f 17 199 599
f 599 739 17
f 629 739 599
f 596 803 762
f 246 642 321
f 246 590 642
f 733 590 246
f 100 348 97
f 97 348 336
f 97 336 142
f 733 604 432
f 432 124 733
f 432 604 510
f 510 124 432
f 549 465 735
f 549 568 517
f 735 568 549
f 517 398 543
f 735 465 183
f 183 568 735
f 630 568 183
f 183 465 506
f 703 663 77
f 521 284 197
f 197 484 521
f 521 506 284
f 78 58 197
f 197 284 78
f 284 263 491
f 491 263 352
f 352 80 491
f 301 472 285
f 285 132 301
f 135 132 285
f 472 135 285
f 456 713 254
f 485 713 456
f 456 541 485
f 22 334 356
f 356 663 22
f 506 445 806
f 485 135 807
f 135 236 807
f 389 501 638
f 638 486 389
f 389 448 501
f 627 622 170
f 170 176 627
f 622 389 170
f 170 389 486
f 638 665 229
f 627 525 288
f 288 661 627
f 36 627 485
f 544 683 488
f 488 393 544
f 52 624 544
f 544 393 52
f 182 217 52
f 52 217 624
f 577 217 182
f 417 258 142
f 209 509 595
f 524 704 747
f 747 244 524
f 704 244 747
f 39 421 423
f 421 244 423
f 178 449 809
f 583 706 16
f 16 515 583
f 515 160 583
f 583 160 319
f 319 706 583
f 430 185 503
f 503 145 430
f 370 145 503
f 552 470 328
f 328 430 552
f 328 185 430
f 279 672 190
f 8 609 508
f 508 383 8
f 609 383 508
f 618 447 563
f 93 447 618
f 618 609 93
f 618 383 609
f 563 87 344
f 344 618 563
f 673 26 681
f 26 383 681
f 493 48 567
f 567 299 493
f 493 70 648
f 648 48 493
f 520 689 156
f 365 689 520
f 93 355 37
f 37 660 93
f 797 660 37
f 719 528 756
f 93 719 756
f 756 355 93
f 756 528 797
f 797 37 756
f 756 37 355
f 20 776 743
f 776 738 743
f 271 739 368
f 5 739 271
f 596 433 741
f 741 779 596
f 741 739 779
f 68 359 631
f 68 631 593
f 593 399 68
f 399 107 68
f 360 107 431
f 431 107 620
f 593 202 732
f 732 45 593
f 786 286 152
f 152 286 72
f 755 311 729
f 729 107 673
f 729 311 107
f 729 781 755
f 354 781 729
f 673 681 729
f 729 681 657
f 91 354 729
f 729 87 91
f 657 344 729
f 729 344 87
f 505 320 722
f 722 637 505
f 754 68 107
f 359 68 754
f 201 436 359
f 359 754 201
f 547 436 201
f 201 38 547
f 810 443 90
f 90 267 810
f 810 267 443
f 419 639 63
f 419 76 522
f 419 65 639
f 419 522 708
f 708 65 419
f 171 128 312
f 312 669 171
f 796 774 603
f 774 345 603
f 60 345 774
f 60 239 345
f 232 539 324
f 763 539 232
f 362 763 232
f 324 696 232
f 232 259 362
f 696 259 232
f 35 283 324
f 623 195 136
f 324 539 136
f 136 539 623
f 479 628 146
f 324 136 479
f 479 35 324
f 408 257 62
f 261 408 62
f 274 15 366
f 274 257 15
f 366 14 662
f 662 187 366
f 662 14 261
f 261 187 662
f 144 592 313
f 313 625 562
f 316 196 214
f 783 433 596
f 596 762 783
f 604 97 701
f 321 100 444
f 444 246 321
f 733 246 444
f 444 604 733
f 444 97 604
f 13 398 96
f 13 543 398
f 96 465 13
f 517 543 13
f 13 549 517
f 465 549 13
f 684 77 663
f 684 445 506
f 684 646 77
f 506 646 684
f 506 521 463
f 463 521 484
f 463 646 506
f 679 646 463
f 463 703 679
f 463 484 703
f 168 80 88
f 168 491 80
f 88 58 168
f 58 78 168
f 168 78 284
f 284 491 168
f 619 517 630
f 630 663 619
f 206 456 254
f 334 541 211
f 211 356 334
f 678 183 506
f 630 183 678
f 678 663 630
f 485 807 502
f 502 807 236
f 502 501 485
f 502 236 501
f 665 176 495
f 495 229 665
f 485 649 401
f 401 36 485
f 683 393 542
f 542 488 683
f 393 488 542
f 182 52 461
f 461 52 393
f 598 577 182
f 621 217 598
f 217 577 598
f 258 417 249
f 509 209 615
f 595 707 194
f 194 209 595
f 538 244 449
f 449 178 538
f 672 279 414
f 414 49 295
f 295 672 414
f 383 618 565
f 618 344 565
f 677 344 657
f 657 681 677
f 70 493 585
f 585 493 299
f 585 299 158
f 158 694 585
f 585 694 70
f 368 739 219
f 739 741 219
f 737 107 186
f 737 754 107
f 38 201 292
f 292 201 754
f 63 347 82
f 82 419 63
f 331 146 261
f 283 35 586
f 507 195 628
f 628 479 507
f 507 136 195
f 507 479 136
f 106 62 257
f 366 187 682
f 682 62 366
f 682 187 261
f 261 62 682
f 177 562 144
f 144 313 177
f 177 313 562
f 625 313 241
f 241 313 592
f 214 720 224
f 224 316 214
f 519 769 46
f 809 449 46
f 46 449 519
f 142 809 46
f 46 97 142
f 100 97 658
f 658 444 100
f 97 444 658
f 663 356 297
f 297 619 663
f 712 619 297
f 297 254 712
f 297 206 254
f 275 619 712
f 736 517 275
f 517 619 275
f 483 678 506
f 483 806 663
f 663 678 483
f 163 249 371
f 371 249 417
f 761 615 209
f 804 681 383
f 383 565 804
f 804 677 681
f 804 565 344
f 344 677 804
f 223 331 261
f 283 586 223
f 118 283 223
f 223 14 118
f 261 14 223
f 35 479 420
f 366 62 250
f 62 106 250
f 329 46 769
f 329 769 604
f 604 701 329
f 499 701 97
f 97 46 499
f 712 736 666
f 666 275 712
f 736 275 666
f 206 297 498
f 456 206 498
f 498 297 356
f 541 456 498
f 506 806 234
f 234 483 506
f 806 483 234
f 153 249 163
f 163 761 153
f 79 761 163
f 615 761 79
f 172 479 146
f 172 420 479
f 331 420 172
f 146 331 172
f 386 3 223
f 386 586 35
f 386 223 586
f 331 223 303
f 223 3 303
f 425 778 602
f 778 296 602
f 602 296 815
f 815 771 602
f 602 771 357
f 214 773 4
f 4 154 214
f 214 490 773
f 143 108 214
f 214 108 490
f 214 154 180
f 777 21 230
f 385 21 777
f 777 230 550
f 550 438 777
f 581 262 394
f 394 262 121
f 189 535 801
f 801 75 189
f 801 640 139
f 801 717 640
f 139 75 801
f 277 635 207
f 641 559 207
f 207 377 641
f 207 531 377
f 559 537 207
f 207 588 277
f 537 588 207
f 422 440 105
f 105 233 422
f 422 643 440
f 422 674 322
f 322 643 422
f 422 23 674
f 562 655 300
f 300 655 523
f 745 612 642
f 616 612 745
f 736 452 398
f 398 452 96
f 349 462 584
f 584 122 349
f 584 462 381
f 333 606 102
f 204 372 102
f 372 159 102
f 102 441 204
f 816 441 102
f 102 633 333
f 102 606 816
f 691 671 298
f 298 471 691
f 255 471 298
f 240 361 298
f 298 200 255
f 298 361 200
f 671 42 298
f 298 42 553
f 695 443 132
f 132 135 203
f 132 203 695
f 132 443 800
f 529 376 570
f 582 529 570
f 376 256 570
f 575 181 515
f 575 369 151
f 515 369 575
f 151 513 575
f 575 587 181
f 289 587 575
f 145 403 427
f 145 111 318
f 318 403 145
f 427 430 145
f 514 111 145
f 278 264 672
f 672 351 140
f 140 476 672
f 264 351 672
f 83 237 48
f 689 306 220
f 689 247 295
f 500 306 689
f 689 295 500
f 134 247 689
f 184 648 323
f 323 659 184
f 659 795 184
f 18 251 791
f 596 779 791
f 251 512 791
f 512 776 791
f 791 779 18
f 739 384 534
f 534 442 739
f 442 17 739
f 526 150 650
f 532 150 526
f 572 162 242
f 670 31 242
f 242 31 572
f 467 248 311
f 137 467 311
f 311 781 137
f 755 781 311
f 270 799 580
f 270 614 748
f 33 243 270
f 270 557 614
f 270 193 557
f 270 789 33
f 580 789 270
f 270 243 193
f 758 454 63
f 63 639 758
f 787 454 758
f 758 475 787
f 15 475 758
f 267 64 161
f 161 367 267
f 267 71 472
f 301 759 267
f 267 472 301
f 267 367 71
f 680 64 267
f 74 294 95
f 95 343 74
f 95 294 545
f 545 460 95
f 373 343 95
f 95 460 416
f 308 396 446
f 459 396 308
f 98 813 9
f 19 551 9
f 9 647 98
f 51 363 9
f 9 813 51
f 551 647 9
f 363 564 9
f 599 530 629
f 409 375 599
f 599 199 409
f 375 413 599
f 599 413 764
f 764 530 599
f 380 290 288
f 288 713 485
f 61 661 288
f 290 392 288
f 288 191 380
f 485 61 288
f 288 392 453
f 453 713 288
f 525 191 288
f 328 470 216
f 216 370 328
f 370 503 328
f 328 503 185
f 520 567 497
f 497 310 520
f 156 651 520
f 520 212 567
f 520 310 365
f 651 212 520
f 743 738 266
f 266 632 743
f 743 589 494
f 743 632 589
f 228 20 743
f 494 228 743
f 613 342 431
f 431 620 636
f 342 360 431
f 431 103 613
f 636 410 431
f 388 103 431
f 431 410 388
f 202 765 732
f 765 245 732
f 245 45 732
f 412 794 152
f 152 814 412
f 152 610 786
f 152 617 814
f 794 792 152
f 152 72 617
f 792 610 152
f 99 171 603
f 603 90 757
f 757 317 603
f 603 171 90
f 603 235 796
f 603 317 235
f 603 345 99
f 600 685 60
f 60 774 600
f 685 239 60
f 703 77 646
f 679 703 646
f 663 806 684
f 684 806 445
f 495 170 486
f 495 486 638
f 176 170 495
f 638 229 495
f 448 389 401
f 401 389 622
f 401 622 627
f 401 649 448
f 627 36 401
f 598 339 518
f 518 418 598
f 182 461 598
f 598 418 692
f 598 683 116
f 692 280 598
f 116 339 598
f 598 393 683
f 598 280 621
f 598 461 393
f 39 423 538
f 538 569 39
f 809 569 538
f 538 423 244
f 538 178 809
f 190 332 414
f 414 279 190
f 332 49 414
f 138 474 219
f 474 5 219
f 219 803 138
f 219 762 803
f 219 271 368
f 433 783 219
f 5 271 219
f 219 741 433
f 219 783 762
f 292 637 66
f 292 737 186
f 292 186 320
f 66 38 292
f 292 505 637
f 320 505 292
f 754 737 292
f 82 347 50
f 50 669 82
f 82 699 76
f 82 128 699
f 76 419 82
f 82 312 128
f 669 312 82
f 335 730 241
f 241 592 335
f 241 730 625
f 524 784 224
f 784 196 224
f 668 404 224
f 224 404 524
f 224 720 668
f 196 316 224
f 250 106 257
f 257 274 250
f 250 274 366
f 46 329 499
f 499 329 701
f 356 211 498
f 498 211 541
f 665 258 153
f 601 665 153
f 153 707 601
f 258 249 153
f 153 194 707
f 209 194 153
f 153 761 209
f 142 336 79
f 336 348 79
f 79 802 509
f 100 802 79
f 79 348 100
f 79 417 142
f 509 615 79
f 163 371 79
f 79 371 417
f 303 420 331
f 35 420 303
f 303 386 35
f 3 386 303

