# https://github.com/mikedh/trimesh
v -0.05682015 -0.00118866 0.04557160
v -0.05641120 -0.04585713 0.03980655
v -0.05692093 -0.04119738 0.04679279
v -0.05556149 -0.03585936 0.02803151
v -0.05647924 -0.02992187 0.03950659
v -0.05248019 -0.04982887 0.02783726
v -0.05623935 -0.02421576 0.03624668
v -0.05015329 -0.01409781 0.00169165
v -0.05064089 -0.04974079 0.00613988
v -0.05019608 -0.00010691 0.00036270
v -0.05616060 -0.04051015 0.03575721
v -0.05469173 -0.04468077 0.01800406
v -0.05604552 -0.02725671 0.03370999
v -0.05036323 -0.00160409 0.00426002
v -0.05674833 -0.04850865 0.04490260
v -0.05602160 -0.03261354 0.03342681
v -0.05367153 -0.01855523 0.00661857
v -0.05623072 -0.04706881 0.03729758
v -0.05376973 -0.00044223 0.00871679
v -0.05394288 -0.04984250 0.04776812
v -0.05590389 -0.03203251 0.03197399
v -0.05693660 -0.03307074 0.04636508
v -0.05072046 -0.00029007 0.00825508
v -0.05487663 -0.04855043 0.02040691
v -0.05582171 -0.03481666 0.03111526
v -0.05712953 -0.04149824 0.04983260
v -0.05672294 -0.04787279 0.04448163
v -0.05616290 -0.02765305 0.03506574
v -0.05607748 -0.04103941 0.03470001
v -0.05493787 -0.00035531 0.02264221
v -0.05643561 -0.01397943 0.03942635
v -0.05418421 -0.02868118 0.04980530
v -0.05362372 -0.03287085 0.00551562
v -0.05667360 -0.00065428 0.04341019
v -0.05540269 -0.04821727 0.02684007
v -0.05474532 -0.02841825 0.01851924
v -0.05461344 -0.04974154 0.01751667
v -0.05691011 -0.00519550 0.04665147
v -0.05460778 -0.04929242 0.01720423
v -0.05562179 -0.04769949 0.02951717
v -0.05652313 -0.02878579 0.04009825
v -0.05412030 -0.00850400 0.04969548
v -0.05550414 -0.02873779 0.02731785
v -0.05639085 -0.00947753 0.03922615
v -0.05608251 -0.04339715 0.03492505
v -0.05712671 -0.02031320 0.04917876
v -0.05357150 -0.00271280 0.00632629
v -0.05413566 -0.01158072 0.04976927
v -0.05670562 -0.04342832 0.04386296
v -0.05316897 -0.04985733 0.03669976
v -0.05150832 -0.02180716 0.00069056
v -0.05709976 -0.00538555 0.04948208
v -0.05466512 -0.04606040 0.01773541
v -0.05621437 -0.00121118 0.03780616
v -0.05710354 -0.00815946 0.04935268
v -0.05641015 -0.00332237 0.03995064
v -0.05279475 -0.00000358 0.03298860
v -0.05695960 -0.00987562 0.04717866
v -0.05377649 -0.04379625 0.00740785
v -0.05388559 -0.04706294 0.00906501
v -0.05621958 -0.03445648 0.03612172
v -0.05401244 -0.04584566 0.01018147
v -0.05587159 -0.02850463 0.03160278
v -0.05663287 -0.00601446 0.04260304
v -0.05717732 -0.02629594 0.04967097
v -0.05344913 -0.00097117 0.00507029
v -0.05138569 -0.04552561 0.00181194
v -0.05106694 -0.00862025 0.00047545
v -0.05341807 -0.00821697 0.00450479
v -0.05015753 -0.02200922 0.00067150
v -0.05367184 -0.03767103 0.00604622
v -0.05514967 -0.04571700 0.02355659
v -0.05378165 -0.02179272 0.00769906
v -0.05674843 -0.04592354 0.04468697
v -0.05719508 -0.02574217 0.04995046
v -0.05510143 -0.04782367 0.02308265
v -0.05066192 -0.04948706 0.00869990
v -0.05417007 -0.04176981 0.04975121
v -0.05150255 -0.00255502 0.00044212
v -0.05049394 -0.02540218 0.00682645
v -0.05692992 -0.03978570 0.04680903
v -0.05365985 -0.03007982 0.00596121
v -0.05388963 -0.02859901 0.00860252
v -0.05025468 -0.00278988 0.00309331
v -0.05660504 -0.02970341 0.04130581
v -0.05399729 -0.02724771 0.00987860
v -0.05016498 -0.04789005 0.00303745
v -0.05708377 -0.00383026 0.04934671
v -0.05394423 -0.00266977 0.04743545
v -0.05641129 -0.00590096 0.03975615
v -0.05643186 -0.01708001 0.03924748
f 42 87 80
f 8 10 84
f 84 87 8
f 84 80 87
f 42 80 89
f 80 84 89
f 42 89 88
f 88 89 1
f 9 37 60
f 87 77 9
f 20 37 50
f 15 37 20
f 50 9 20
f 20 9 77
f 20 87 42
f 20 77 87
f 23 10 57
f 57 89 23
f 34 89 57
f 1 89 34
f 56 34 54
f 10 66 19
f 50 37 6
f 6 9 50
f 37 9 6
f 15 20 26
f 75 65 26
f 14 84 10
f 10 23 14
f 14 89 84
f 14 23 89
f 67 9 60
f 87 9 67
f 79 66 10
f 7 19 28
f 7 44 19
f 55 46 75
f 69 82 66
f 66 79 69
f 69 79 51
f 59 67 60
f 35 37 15
f 45 40 18
f 18 35 15
f 40 35 18
f 75 26 78
f 78 20 42
f 78 26 20
f 22 26 65
f 70 67 51
f 87 67 70
f 8 87 70
f 70 10 8
f 68 79 10
f 51 79 68
f 10 70 68
f 68 70 51
f 90 34 56
f 52 55 75
f 42 88 52
f 12 21 71
f 67 59 71
f 16 61 28
f 28 21 16
f 66 82 17
f 62 59 60
f 12 71 62
f 62 71 59
f 37 35 39
f 60 37 39
f 39 62 60
f 11 61 45
f 45 18 11
f 75 78 32
f 85 22 65
f 19 44 30
f 44 90 30
f 30 90 56
f 56 54 30
f 30 54 34
f 30 34 57
f 57 10 30
f 10 19 30
f 64 58 38
f 34 64 38
f 38 58 46
f 46 55 38
f 7 91 31
f 44 7 31
f 31 64 34
f 34 90 31
f 31 90 44
f 45 61 29
f 61 16 29
f 28 19 13
f 47 19 66
f 66 17 47
f 12 62 53
f 62 39 53
f 27 18 15
f 27 74 18
f 49 74 26
f 26 3 49
f 48 78 42
f 48 32 78
f 75 32 48
f 48 52 75
f 42 52 48
f 41 85 65
f 41 91 7
f 41 7 28
f 26 22 81
f 81 3 26
f 33 83 82
f 71 83 33
f 82 69 33
f 33 69 51
f 51 67 33
f 67 71 33
f 43 71 21
f 73 47 17
f 73 83 86
f 73 86 19
f 19 47 73
f 73 17 82
f 82 83 73
f 35 76 24
f 24 39 35
f 25 76 16
f 25 16 21
f 18 74 2
f 74 49 2
f 85 41 5
f 28 61 5
f 5 41 28
f 86 83 36
f 36 43 86
f 36 83 71
f 71 43 36
f 63 21 28
f 63 43 21
f 28 13 63
f 63 13 19
f 86 43 63
f 19 86 63
f 72 24 76
f 76 25 72
f 4 25 21
f 4 21 12
f 12 53 4
f 1 34 38
f 38 88 1
f 38 52 88
f 55 52 38
f 76 40 45
f 76 35 40
f 45 29 76
f 76 29 16
f 26 74 27
f 15 26 27
f 46 58 41
f 41 65 75
f 75 46 41
f 41 31 91
f 41 58 64
f 64 31 41
f 18 2 5
f 61 11 5
f 5 11 18
f 22 85 5
f 5 81 22
f 5 49 3
f 3 81 5
f 5 2 49
f 39 24 4
f 24 72 4
f 4 53 39
f 4 72 25

