# https://github.com/mikedh/trimesh
v -0.00694761 -0.00000826 0.39473582
v -0.02233532 -0.00196917 0.39441554
v -0.00011748 -0.00561113 0.39429300
v -0.00100785 -0.04389124 0.35018005
v -0.00004547 -0.01017633 0.39493830
v -0.01780604 -0.02159154 0.39592815
v -0.01730672 -0.00824680 0.39599249
v -0.00027753 -0.00176180 0.39406601
v -0.01734168 -0.01634583 0.39598897
v -0.00005075 -0.03751809 0.35576405
v -0.02259303 -0.01280082 0.39429125
v -0.01938321 -0.01941531 0.39562673
v -0.01848360 -0.02255123 0.39581026
v -0.00153382 -0.02811709 0.39752722
v -0.00015922 -0.03883173 0.35436866
v -0.00144011 -0.00019185 0.39415429
v -0.02047508 -0.00395680 0.39527139
v -0.02723147 -0.00123976 0.39142867
v -0.01085081 -0.02662484 0.39647551
v -0.02058931 -0.01995861 0.39522819
v -0.04378378 -0.02732035 0.35001915
v -0.02346087 -0.00413610 0.39377431
v -0.02214300 -0.04434150 0.35008508
v -0.01753945 -0.01989658 0.39596858
v -0.01690516 -0.01063502 0.39603230
v -0.00027668 -0.02400300 0.39765744
v -0.02310953 -0.00375090 0.39398871
v -0.02830247 -0.00131668 0.39001594
v -0.02233084 -0.00779360 0.39442732
v -0.04035136 -0.03362534 0.35011350
v -0.00008471 -0.02870042 0.39183324
v -0.00910442 -0.04504748 0.35017079
v -0.04724558 -0.00991608 0.35008657
v -0.03948564 -0.03484268 0.35012690
v -0.01949658 -0.00065124 0.39559276
v -0.02218299 -0.00036977 0.39448268
v -0.01707803 -0.00406287 0.39601521
v -0.02385478 -0.00200032 0.39352991
v -0.02033831 -0.00048823 0.39531887
v -0.01917984 -0.01776045 0.39568039
v -0.01667438 -0.01162841 0.39605496
v -0.01288678 -0.04524753 0.35007536
v -0.01708744 -0.01559239 0.39601423
v -0.01797936 -0.02354709 0.39572373
v -0.02670714 -0.01088526 0.39175495
v -0.02103870 -0.00272840 0.39504145
v -0.02128621 -0.00051687 0.39493850
v -0.02566854 -0.01399272 0.39240122
v -0.04163942 -0.03147288 0.35016100
v -0.01680045 -0.00778020 0.39604268
v -0.00273453 -0.04454451 0.35000400
v -0.03619569 -0.00002246 0.36718834
v -0.01763309 -0.00033083 0.39594852
v -0.00009494 -0.04190505 0.35158796
v -0.02333780 -0.00786094 0.39385060
v -0.02137051 -0.01268401 0.39490744
v -0.02110369 -0.01261689 0.39501821
v -0.04263359 -0.02960522 0.35016989
v -0.04545845 -0.02145983 0.35019250
v -0.02843409 -0.00048528 0.38873225
v -0.01647562 -0.04519364 0.35000094
v -0.00036983 -0.02875342 0.39451024
v -0.02379873 -0.01752076 0.39354395
v -0.01853685 -0.00183324 0.39579751
v -0.00623790 -0.02789856 0.39705972
v -0.02153198 -0.00878055 0.39482669
v -0.01897476 -0.01931094 0.39572314
v -0.02291586 -0.01532785 0.39410293
v -0.01820368 -0.00028079 0.39584884
v -0.01602865 -0.02465484 0.39605791
v -0.04648444 -0.01627129 0.35017722
v -0.01942761 -0.01165543 0.39561540
v -0.02128436 -0.01054153 0.39494289
v -0.01984877 -0.01819023 0.39547685
v -0.00722010 -0.02767066 0.39691344
v -0.01665484 -0.00546234 0.39605708
v -0.02149829 -0.00951243 0.39484370
v -0.02252509 -0.00490556 0.39432297
v -0.01654225 -0.00439490 0.39606817
v -0.04766566 -0.00230707 0.35000006
v -0.01680563 -0.01096591 0.39604209
v -0.01943819 -0.00429463 0.39561195
v -0.02200269 -0.01990185 0.39460750
v -0.02330492 -0.01612162 0.39386925
v -0.02241398 -0.01832772 0.39438899
v -0.01611010 -0.02398929 0.39610956
v -0.01231363 -0.02614459 0.39622020
v -0.02121622 -0.01794021 0.39497363
v -0.04058295 -0.00007026 0.36061949
v -0.02341891 -0.01450971 0.39380076
v -0.02222948 -0.01026269 0.39448229
v -0.01913347 -0.00722588 0.39569054
v -0.01726608 -0.01884476 0.39599652
v -0.00085698 -0.02906927 0.39695723
v -0.04642746 -0.00025561 0.35196020
v -0.01754921 -0.00832003 0.39596686
v -0.02090528 -0.00487833 0.39509715
v -0.01673028 -0.00352302 0.39604966
v -0.02293983 -0.00338948 0.39409064
v -0.00077421 -0.00032008 0.39408910
v -0.02826791 -0.00175620 0.39026858
v -0.02661832 -0.04317537 0.35015969
v -0.02274248 -0.01207993 0.39420758
v -0.04592503 -0.00018115 0.35273532
v -0.02377643 -0.01518028 0.39357870
v -0.02324593 -0.00778509 0.39390612
v -0.02622662 -0.00005081 0.39205394
v -0.02170488 -0.01867909 0.39474664
v -0.02359664 -0.01126093 0.39369057
v -0.00750772 -0.02759041 0.39688788
v -0.03571267 -0.03866406 0.35010507
v -0.02043894 -0.00989976 0.39528456
v -0.01892502 -0.00909938 0.39573612
v -0.01622822 -0.00606410 0.39609892
v -0.02602804 -0.00015578 0.39217751
v -0.02276883 -0.01035192 0.39419207
v -0.00004381 -0.02303068 0.39768104
v -0.02774703 -0.00533831 0.39110785
v -0.01902191 -0.01334959 0.39571945
v -0.01902106 -0.01775488 0.39571715
v -0.02237312 -0.00294033 0.39440019
v -0.02709084 -0.00920986 0.39151618
v -0.02851414 -0.00010400 0.38790400
v -0.02048510 -0.01105312 0.39526870
v -0.03750271 -0.03681600 0.35026084
v -0.04494348 -0.02285760 0.35039876
v -0.00013315 -0.02008595 0.39766941
v -0.03204359 -0.04094222 0.35019350
v -0.04758363 -0.00354535 0.35009235
v -0.04664761 -0.01526237 0.35021017
v -0.02059742 -0.00212962 0.39522143
v -0.02310797 -0.01664013 0.39398738
v -0.04727082 -0.00040791 0.35065843
v -0.00484998 -0.02823626 0.39706116
v -0.02032419 -0.01479940 0.39532051
v -0.01671854 -0.00113008 0.39604174
v -0.02978258 -0.04231039 0.35002754
v -0.00106245 -0.01806203 0.39754045
v -0.01791558 -0.02342966 0.39590987
v -0.01495065 -0.02477025 0.39622264
v -0.01721397 -0.02195301 0.39600163
v -0.02790910 -0.00292146 0.39100700
v -0.01391154 -0.00025245 0.39560483
v -0.00351397 -0.04461330 0.35010304
v -0.00042216 -0.01764349 0.39731615
f 42 94 61
f 51 61 80
f 42 61 51
f 87 137 19
f 89 52 1
f 104 100 95
f 62 94 54
f 54 31 62
f 117 94 62
f 62 31 117
f 26 94 117
f 26 14 94
f 32 94 42
f 42 51 32
f 54 94 4
f 94 51 4
f 4 51 80
f 107 69 1
f 1 52 107
f 52 89 107
f 107 89 104
f 10 5 117
f 117 31 10
f 10 31 54
f 138 143 136
f 136 143 53
f 1 69 53
f 53 143 1
f 133 95 100
f 100 10 133
f 133 4 80
f 54 4 133
f 94 14 134
f 14 65 134
f 140 65 14
f 14 26 140
f 117 86 140
f 140 26 117
f 19 137 110
f 144 51 94
f 94 32 144
f 144 32 51
f 34 111 125
f 130 33 71
f 128 111 137
f 111 128 70
f 70 128 137
f 137 87 70
f 70 87 19
f 19 110 70
f 65 140 70
f 70 110 65
f 8 10 100
f 16 138 100
f 143 138 16
f 1 143 16
f 16 100 104
f 16 89 1
f 104 89 16
f 127 8 100
f 117 5 127
f 127 138 136
f 117 79 114
f 114 86 117
f 95 133 123
f 104 95 123
f 123 107 104
f 15 10 54
f 54 133 15
f 15 133 10
f 94 134 23
f 23 61 94
f 137 61 23
f 23 134 65
f 137 65 75
f 75 110 137
f 65 110 75
f 139 140 86
f 139 70 140
f 83 58 49
f 30 111 34
f 34 83 30
f 83 49 30
f 59 48 45
f 45 71 59
f 122 130 45
f 130 71 45
f 59 71 21
f 21 71 33
f 21 49 58
f 21 30 49
f 21 33 80
f 80 61 21
f 21 61 137
f 137 111 21
f 111 30 21
f 80 33 129
f 5 10 3
f 10 8 3
f 3 127 5
f 8 127 3
f 100 138 145
f 145 127 100
f 138 127 145
f 41 114 79
f 101 133 80
f 102 65 137
f 137 23 102
f 102 23 65
f 44 83 34
f 44 139 83
f 34 125 44
f 44 125 111
f 111 70 44
f 70 139 44
f 126 48 59
f 59 21 126
f 126 21 48
f 48 21 63
f 63 58 83
f 63 21 58
f 69 107 36
f 83 20 88
f 74 20 12
f 39 35 69
f 69 36 39
f 39 36 47
f 133 101 28
f 80 129 142
f 142 101 80
f 12 20 13
f 83 139 13
f 13 20 83
f 96 24 7
f 7 37 96
f 96 37 53
f 141 139 86
f 141 24 139
f 86 114 141
f 114 41 141
f 85 63 83
f 99 36 38
f 38 109 22
f 142 109 38
f 83 47 91
f 47 121 91
f 99 121 2
f 2 36 99
f 2 121 47
f 47 36 2
f 72 74 12
f 72 39 74
f 98 127 136
f 136 53 98
f 53 37 98
f 98 79 117
f 117 127 98
f 60 123 133
f 133 28 60
f 107 123 60
f 60 28 107
f 118 130 122
f 118 33 130
f 122 45 118
f 45 142 118
f 118 129 33
f 118 142 129
f 12 13 67
f 67 13 120
f 12 67 40
f 40 67 120
f 40 72 12
f 64 53 69
f 92 113 64
f 64 96 53
f 113 96 64
f 69 35 64
f 35 92 64
f 139 24 6
f 24 96 6
f 6 113 139
f 6 96 113
f 7 24 9
f 79 98 76
f 24 141 93
f 93 9 24
f 7 9 93
f 78 121 99
f 48 63 84
f 99 38 27
f 27 38 22
f 115 36 107
f 107 38 115
f 115 38 36
f 18 38 107
f 142 38 18
f 101 142 18
f 107 28 18
f 18 28 101
f 83 56 77
f 77 56 47
f 83 88 108
f 108 56 83
f 88 56 108
f 47 56 73
f 73 56 88
f 88 57 73
f 131 39 47
f 82 92 35
f 35 39 82
f 39 72 82
f 82 40 92
f 72 40 82
f 20 74 135
f 119 40 120
f 92 40 119
f 119 113 92
f 139 113 119
f 119 13 139
f 120 13 119
f 25 76 50
f 50 76 98
f 81 141 41
f 81 76 141
f 43 93 141
f 43 76 25
f 141 76 43
f 37 93 43
f 43 98 37
f 29 91 121
f 121 78 29
f 48 84 105
f 105 45 48
f 105 109 142
f 105 142 45
f 63 85 132
f 132 84 63
f 55 27 22
f 66 47 83
f 83 77 66
f 66 77 47
f 39 131 17
f 46 131 47
f 97 57 88
f 97 46 57
f 131 46 97
f 109 105 90
f 90 105 84
f 22 109 90
f 90 55 22
f 27 55 106
f 106 90 84
f 55 90 106
f 20 135 124
f 39 17 124
f 68 132 85
f 85 103 68
f 11 103 85
f 112 135 74
f 112 124 135
f 74 39 112
f 39 124 112
f 116 11 78
f 103 11 116
f 116 78 99
f 93 37 7
f 79 76 81
f 81 41 79
f 43 50 98
f 25 50 43
f 46 73 57
f 47 73 46
f 124 97 88
f 124 88 20
f 124 17 131
f 131 97 124
f 83 91 11
f 11 85 83
f 91 29 11
f 11 29 78
f 84 132 116
f 116 106 84
f 99 27 116
f 27 106 116
f 132 68 116
f 116 68 103

