# https://github.com/mikedh/trimesh
v -0.00453554 0.06851807 0.30450763
v -0.00628638 0.06899992 0.30370630
v -0.00404584 0.06962895 0.30857703
v -0.00398703 0.07343324 0.30531300
v -0.00681760 0.07332161 0.30172207
v -0.00034447 0.06820569 0.30819620
v -0.00776414 0.07053720 0.30226954
v -0.00260176 0.07322408 0.30758141
v -0.00171883 0.06996485 0.31034788
v -0.00556565 0.07019299 0.30729219
v -0.00000593 0.06881378 0.30676202
v -0.00382864 0.06964935 0.30877565
v -0.00473438 0.06895810 0.30055109
v -0.00202138 0.06988501 0.30427097
f 8 9 11
f 5 13 7
f 5 8 4
f 11 13 14
f 14 8 11
f 4 8 14
f 14 5 4
f 13 5 14
f 6 13 11
f 6 1 13
f 11 9 6
f 9 12 6
f 7 13 2
f 13 1 2
f 7 2 10
f 10 5 7
f 8 5 10
f 9 8 10
f 10 12 9
f 3 2 1
f 1 6 3
f 3 6 12
f 12 10 3
f 3 10 2

