# https://github.com/mikedh/trimesh
v 0.04501141 -0.04637863 0.49947678
v 0.04780098 -0.04749613 0.49643235
v 0.03494734 -0.04916698 0.49867301
v 0.02272192 -0.04573485 0.45021376
v 0.00045329 -0.04932834 0.46297556
v 0.01569147 -0.00141078 0.45004221
v 0.02845731 -0.04996788 0.49886371
v 0.03284153 -0.04910820 0.49940614
v 0.04420349 -0.04250215 0.45006308
v 0.04450898 -0.04990140 0.49352460
v 0.01841746 -0.00041813 0.45771009
v 0.03874047 -0.04995458 0.49573657
v 0.04852812 -0.04911908 0.49310768
v 0.03276572 -0.04902562 0.49957963
v 0.02233595 -0.04663782 0.45103329
v 0.04403714 -0.04848046 0.49651590
v 0.04756379 -0.04999654 0.47301353
v 0.04757928 -0.04921506 0.49343961
v 0.00199093 -0.01862418 0.45001776
v 0.00170887 -0.01891378 0.45053016
v 0.04299047 -0.04899980 0.45009072
v 0.03941984 -0.04877010 0.49786925
v 0.03076807 -0.04963469 0.49899565
v 0.02741510 -0.04979461 0.49949276
v 0.00010702 -0.02597551 0.46299466
v 0.04840188 -0.00026821 0.46611046
v 0.04526233 -0.04974218 0.49348722
v 0.04459802 -0.00043882 0.45753531
v 0.01310448 -0.00970951 0.45000497
v 0.04381914 -0.00178333 0.45612858
v 0.04928928 -0.04727188 0.49599904
v 0.00072969 -0.02028399 0.45314617
v 0.04398868 -0.04802012 0.45048387
v 0.02347865 -0.04111523 0.45003113
v 0.03532554 -0.04981362 0.49719865
v 0.01711493 -0.00001727 0.45329311
v 0.00011368 -0.02090908 0.45500132
v 0.04963496 -0.04817288 0.49421523
v 0.04196877 -0.04872705 0.49691034
v 0.04953194 -0.04965637 0.49146781
v 0.04782504 -0.04996117 0.49173452
v 0.04448576 -0.00066999 0.45687636
v 0.02108233 -0.04906344 0.45349432
v 0.04326952 -0.04834328 0.49710313
v 0.04356762 -0.04713904 0.49892976
v 0.03137443 -0.04981379 0.49843310
v 0.03946354 -0.04854934 0.49822840
v 0.04200068 -0.04994779 0.45219784
v 0.03356389 -0.04941470 0.49863346
v 0.03692930 -0.04802672 0.49998330
v 0.04072520 -0.00000946 0.45633868
v 0.04517496 -0.00002991 0.46384643
v 0.03370221 -0.04967854 0.49802928
v 0.04055601 -0.04819904 0.45003740
v 0.01570005 -0.04994857 0.45925433
v 0.04986115 -0.00447639 0.47054754
v 0.04420220 -0.04553964 0.45048984
v 0.04773305 -0.04759008 0.49631987
v 0.02030588 -0.04974251 0.45464680
v 0.04339640 -0.00146069 0.45615807
v 0.03891033 -0.04970552 0.45047090
v 0.04927605 -0.04891337 0.49307867
v 0.04880323 -0.00123151 0.46667965
v 0.04970283 -0.00009505 0.47040304
v 0.04598676 -0.00004066 0.46487749
v 0.01599194 -0.00086432 0.45063983
v 0.03831642 -0.04821002 0.49920292
v 0.03969553 -0.04906396 0.49719106
v 0.04824263 -0.04690609 0.49713073
v 0.00002754 -0.02784709 0.46299798
v 0.04112801 -0.04715599 0.49989890
v 0.03498374 -0.04953492 0.49792281
v 0.03849364 -0.04892811 0.49792544
v 0.00000998 -0.04904597 0.46299766
v 0.02670222 -0.04968027 0.49987120
v 0.02667056 -0.04981720 0.49961774
v 0.04992141 -0.04512531 0.46802907
v 0.04197457 -0.04700347 0.49979648
v 0.04238920 -0.04945969 0.45011239
v 0.04287910 -0.00112788 0.45619355
v 0.03261674 -0.04929260 0.49912801
v 0.03597378 -0.04856499 0.49937118
v 0.01814859 -0.00047067 0.45764930
v 0.04931709 -0.04761463 0.49544698
v 0.04981851 -0.04805155 0.47637379
v 0.03127300 -0.04905353 0.49994186
v 0.03898766 -0.04987012 0.45114913
v 0.04839428 -0.04886908 0.49365067
v 0.04664419 -0.04796762 0.49621278
v 0.04933934 -0.04615215 0.49764336
v 0.03489481 -0.04959111 0.49783455
v 0.00028136 -0.02156435 0.45979817
v 0.04833934 -0.04610363 0.49829847
v 0.03881794 -0.04868840 0.49822717
v 0.03919654 -0.04068433 0.45003193
v 0.01607437 -0.00078936 0.45081038
v 0.03966538 -0.04771873 0.49956360
v 0.04985211 -0.04925096 0.46952888
v 0.00198273 -0.04982815 0.46289933
v 0.00406599 -0.04987030 0.46274560
v 0.04959884 -0.04969559 0.49134427
v 0.04733059 -0.04614935 0.49868922
v 0.00001110 -0.04501832 0.46299760
f 101 98 38
f 99 100 7
f 17 98 101
f 85 98 77
f 77 38 85
f 85 38 98
f 56 38 77
f 83 25 75
f 75 64 83
f 50 64 75
f 75 86 50
f 96 36 51
f 51 36 52
f 52 36 64
f 83 64 11
f 11 36 83
f 64 36 11
f 9 95 6
f 51 64 28
f 28 42 51
f 63 9 42
f 64 56 63
f 77 9 63
f 63 56 77
f 79 98 48
f 98 17 48
f 64 93 90
f 90 56 64
f 38 56 90
f 74 4 5
f 51 6 66
f 66 96 51
f 65 64 51
f 51 52 65
f 65 52 64
f 96 66 37
f 21 98 79
f 30 9 6
f 42 9 30
f 64 63 26
f 26 63 42
f 26 28 64
f 42 28 26
f 50 86 14
f 55 48 17
f 7 100 55
f 55 17 7
f 100 99 55
f 71 64 50
f 71 1 64
f 102 93 64
f 64 1 102
f 102 1 93
f 38 90 84
f 101 38 62
f 38 84 62
f 41 10 12
f 41 12 7
f 7 17 41
f 41 17 101
f 76 5 99
f 76 24 75
f 76 75 74
f 74 5 76
f 76 99 7
f 7 24 76
f 86 75 23
f 75 24 23
f 23 24 7
f 6 95 29
f 36 96 92
f 96 37 92
f 83 36 92
f 92 25 83
f 92 37 25
f 19 66 6
f 6 29 19
f 19 29 34
f 19 4 74
f 19 34 4
f 25 37 70
f 70 75 25
f 54 29 95
f 34 29 54
f 95 9 54
f 9 21 54
f 54 21 79
f 79 4 54
f 4 34 54
f 98 21 33
f 33 21 9
f 77 98 33
f 51 42 80
f 80 6 51
f 12 10 68
f 68 73 12
f 49 14 8
f 50 14 82
f 3 14 49
f 3 82 14
f 3 73 50
f 50 82 3
f 59 55 99
f 99 5 59
f 31 90 93
f 31 84 90
f 93 1 69
f 69 31 93
f 84 31 69
f 46 23 7
f 7 12 46
f 20 37 66
f 66 19 20
f 20 19 74
f 74 75 103
f 75 70 103
f 103 37 74
f 103 70 37
f 57 9 77
f 77 33 57
f 57 33 9
f 42 30 60
f 60 80 42
f 60 30 6
f 6 80 60
f 12 91 35
f 35 46 12
f 53 91 49
f 53 35 91
f 46 35 53
f 10 16 39
f 39 68 10
f 50 73 94
f 97 71 50
f 97 94 47
f 81 23 49
f 49 8 81
f 86 23 81
f 73 3 72
f 12 73 72
f 72 91 12
f 49 91 72
f 72 3 49
f 61 4 79
f 48 55 87
f 55 59 87
f 59 61 87
f 79 48 87
f 87 61 79
f 43 59 5
f 43 61 59
f 18 89 16
f 58 89 84
f 1 71 78
f 16 89 44
f 44 97 47
f 71 97 44
f 44 39 16
f 74 37 32
f 32 20 74
f 37 20 32
f 50 94 67
f 67 97 50
f 94 97 67
f 15 5 4
f 15 43 5
f 4 61 15
f 61 43 15
f 27 16 10
f 27 18 16
f 10 41 27
f 41 18 27
f 13 18 40
f 101 62 40
f 62 13 40
f 40 41 101
f 40 18 41
f 89 18 88
f 84 89 88
f 88 18 13
f 88 62 84
f 88 13 62
f 84 69 2
f 2 58 84
f 2 69 1
f 1 58 2
f 45 44 89
f 71 44 45
f 45 58 1
f 89 58 45
f 1 78 45
f 45 78 71
f 39 44 22
f 73 68 22
f 68 39 22
f 22 44 47
f 22 94 73
f 47 94 22
f 49 23 53
f 23 46 53
f 81 8 14
f 81 14 86

