# https://github.com/mikedh/trimesh
v 0.04892219 0.06552057 0.04990271
v 0.04954660 0.06354265 0.04802039
v 0.00028884 0.07196694 0.02332824
v 0.01599070 0.05011784 0.01701418
v 0.03066655 0.08413953 0.04970946
v 0.00044356 0.06363918 0.00245742
v 0.00895093 0.06176091 0.00235983
v 0.04917634 0.05039861 0.02848138
v 0.04995318 0.07667975 0.04435395
v 0.01598940 0.05942437 0.04968309
v 0.04658887 0.08036524 0.04826207
v 0.01599118 0.05002521 0.04879781
v 0.00017519 0.06867370 0.04911747
v 0.04650445 0.06609783 0.00975316
v 0.04380814 0.06656996 0.00846691
v 0.03595456 0.06776193 0.00918962
v 0.04946023 0.06386406 0.00753030
v 0.00015297 0.05977055 0.01330278
v 0.04974780 0.05581249 0.04518510
v 0.04988220 0.05687563 0.00275704
v 0.03786673 0.08327387 0.04936125
v 0.01133325 0.06249775 0.00232680
v 0.03343270 0.06400426 0.00249790
v 0.00046736 0.05088458 0.01570318
v 0.04974638 0.06287199 0.04695311
v 0.04976290 0.06668523 0.01598328
v 0.01803672 0.06230329 0.00231345
v 0.00128897 0.06559943 0.04802853
v 0.04385948 0.08145740 0.04878328
v 0.02143408 0.08422786 0.04981884
v 0.03551142 0.06721427 0.00793730
v 0.00588983 0.05004466 0.01525448
v 0.00593056 0.06749577 0.00826701
v 0.00004208 0.06181761 0.02048667
v 0.04912574 0.05800312 0.00287281
v 0.00128323 0.07807707 0.04006857
v 0.00871785 0.08057154 0.04960631
v 0.00021681 0.06818362 0.04911746
v 0.03581445 0.06446408 0.00327961
v 0.00516441 0.06449218 0.00339430
v 0.01936940 0.06743733 0.00806380
v 0.04938208 0.07937131 0.04875158
v 0.04714459 0.06563686 0.00912112
v 0.01749111 0.08388234 0.04922930
v 0.04190042 0.06710691 0.00902261
v 0.04483709 0.06301768 0.00340588
v 0.04978610 0.07484052 0.04777125
v 0.03201787 0.06740328 0.00796095
v 0.04313948 0.06702901 0.00933127
v 0.02821736 0.06430739 0.00275719
v 0.04984778 0.05387578 0.02043386
v 0.03930006 0.07907902 0.04974975
v 0.00215486 0.06076538 0.00288216
v 0.04819176 0.05070530 0.02232209
v 0.04787903 0.06550220 0.00950095
v 0.02416629 0.06218767 0.00231689
v 0.00152404 0.05245752 0.02297496
v 0.00039983 0.06960914 0.01539102
v 0.00031473 0.06762146 0.04911744
v 0.01219895 0.08332671 0.04833690
v 0.00029899 0.07964742 0.04819605
v 0.04758434 0.05082364 0.01920684
v 0.00137812 0.07332402 0.04995617
v 0.01700122 0.06435808 0.00293514
v 0.02888338 0.06164018 0.00237540
v 0.00393202 0.06789368 0.00961344
v 0.00172248 0.07989624 0.04857600
v 0.04540947 0.06269541 0.00336952
v 0.03387704 0.07829751 0.04994876
v 0.00375292 0.08202444 0.04634874
f 12 63 59
f 10 63 12
f 12 59 28
f 8 19 12
f 12 19 1
f 1 10 12
f 63 10 1
f 51 20 9
f 9 19 51
f 51 8 20
f 19 8 51
f 34 18 24
f 24 13 34
f 9 20 26
f 20 17 26
f 38 59 63
f 63 13 38
f 38 24 59
f 13 24 38
f 47 1 2
f 2 1 19
f 63 1 69
f 63 37 67
f 30 37 63
f 63 69 30
f 30 69 5
f 5 48 30
f 42 1 47
f 42 47 9
f 9 26 42
f 42 26 17
f 58 36 70
f 32 53 20
f 32 24 53
f 12 24 32
f 12 28 57
f 57 24 12
f 57 28 59
f 59 24 57
f 23 46 68
f 68 46 17
f 39 46 23
f 39 48 31
f 31 48 16
f 16 48 5
f 50 39 23
f 48 39 50
f 47 2 25
f 25 2 19
f 9 47 25
f 25 19 9
f 5 69 52
f 52 69 1
f 1 42 52
f 63 67 61
f 61 13 63
f 61 67 70
f 34 13 61
f 70 36 61
f 70 67 60
f 44 67 37
f 37 30 44
f 44 60 67
f 44 30 33
f 33 60 44
f 33 30 41
f 41 30 48
f 41 50 33
f 48 50 41
f 5 52 21
f 21 52 42
f 66 58 70
f 70 60 66
f 66 60 33
f 62 32 20
f 65 23 20
f 20 56 65
f 65 56 23
f 20 23 35
f 23 68 35
f 35 17 20
f 35 68 17
f 23 56 27
f 27 22 23
f 36 58 3
f 3 61 36
f 34 61 3
f 29 42 11
f 29 21 42
f 20 53 7
f 22 27 7
f 7 56 20
f 7 27 56
f 33 50 64
f 64 40 33
f 58 66 6
f 33 40 6
f 6 66 33
f 53 24 6
f 6 24 18
f 6 18 34
f 6 7 53
f 40 64 6
f 34 3 6
f 6 3 58
f 22 7 6
f 23 22 6
f 6 50 23
f 6 64 50
f 20 8 54
f 54 62 20
f 8 62 54
f 4 62 8
f 32 62 4
f 4 8 12
f 12 32 4
f 21 29 15
f 15 29 11
f 17 46 15
f 15 39 31
f 46 39 15
f 55 42 17
f 11 42 55
f 45 16 5
f 5 21 45
f 31 16 45
f 45 15 31
f 11 55 43
f 17 15 43
f 43 55 17
f 21 15 49
f 49 45 21
f 15 45 49
f 14 15 11
f 11 43 14
f 14 43 15

