# https://github.com/mikedh/trimesh
v -0.04814224 0.05100099 0.00430501
v -0.00011422 0.06791724 0.02023062
v -0.04933547 0.07246911 0.04995839
v -0.00241418 0.05023431 0.01649112
v -0.03653318 0.06338596 0.00242983
v -0.00102265 0.06746726 0.00817592
v -0.00008720 0.06214394 0.02859880
v -0.02037672 0.06419096 0.00252114
v -0.04858280 0.05067015 0.00600181
v -0.03639708 0.06817536 0.01106248
v -0.00002674 0.06185958 0.04222203
v -0.04945485 0.07156436 0.03971463
v -0.04656992 0.05938378 0.00300876
v -0.00006765 0.07837547 0.04625167
v -0.04892220 0.05617366 0.00268945
v -0.02050894 0.06279859 0.00236228
v -0.02548607 0.06433202 0.00291151
v -0.04117973 0.08111435 0.04999425
v -0.01468594 0.06667699 0.04993593
v -0.04626004 0.05050176 0.04049925
v -0.04403060 0.06157263 0.00345339
v -0.00470480 0.06557503 0.04829383
v -0.04863707 0.07476200 0.04495009
v -0.03870581 0.08277046 0.04907938
v -0.03762915 0.06736130 0.00928158
v -0.04989560 0.06438335 0.03328856
v -0.00014715 0.05882908 0.02020093
v -0.04085679 0.08199860 0.04875380
v -0.04967169 0.07026372 0.04692347
v -0.04120909 0.05004348 0.03045730
v -0.04931373 0.05045393 0.00820418
v -0.00148656 0.06033980 0.00525918
v -0.04120899 0.05010424 0.03795019
v -0.00029341 0.05254436 0.01677640
v -0.01993030 0.06751225 0.00834308
v -0.00020457 0.05775488 0.01781473
v -0.00053764 0.06581615 0.01315773
v -0.00647252 0.06431557 0.00284426
v -0.04702275 0.07927931 0.04947374
v -0.03530522 0.08382145 0.04990362
v -0.04782042 0.06313958 0.01020594
v -0.04998608 0.05229967 0.00334665
v -0.00521846 0.05027420 0.02063254
v -0.00236751 0.06756960 0.04911748
v -0.00009358 0.05963941 0.03264332
v -0.00345071 0.06240469 0.00231671
v -0.04120935 0.05282148 0.04885008
v -0.04477017 0.06514139 0.00985227
v -0.01076499 0.08433593 0.04989854
v -0.00035731 0.08020444 0.04904777
v -0.01339770 0.06397727 0.00249650
v -0.04861304 0.05153028 0.00232664
v -0.04678046 0.05233872 0.04841034
v -0.04989588 0.06000844 0.00804347
v -0.00160069 0.08390944 0.04923170
v -0.02900642 0.06713496 0.00792950
v -0.00139278 0.05233588 0.02285392
v -0.04685827 0.05280221 0.04969480
v -0.00296655 0.08040455 0.04935447
v -0.00193852 0.05146253 0.02211849
v -0.04348517 0.05069418 0.04341809
v -0.04627269 0.06353950 0.00765392
v -0.04059116 0.06626923 0.00792328
v -0.00070827 0.06260965 0.01039086
f 4 34 60
f 42 58 26
f 39 3 18
f 18 40 39
f 46 4 52
f 4 1 52
f 32 4 46
f 32 34 4
f 46 6 32
f 57 34 11
f 11 60 57
f 57 60 34
f 47 44 58
f 47 60 11
f 58 44 19
f 18 3 19
f 19 3 58
f 38 6 46
f 14 6 55
f 58 3 29
f 29 26 58
f 42 26 54
f 26 29 54
f 16 5 46
f 46 52 16
f 16 52 5
f 33 20 31
f 42 52 31
f 31 58 42
f 61 20 33
f 61 47 58
f 11 44 22
f 22 47 11
f 44 47 22
f 49 40 18
f 18 19 49
f 55 6 49
f 25 5 63
f 25 56 5
f 63 40 25
f 6 38 8
f 50 44 11
f 11 14 50
f 50 14 55
f 2 14 11
f 6 14 2
f 39 54 12
f 12 29 3
f 12 54 29
f 24 39 40
f 24 28 39
f 24 40 63
f 63 28 24
f 4 33 30
f 30 31 4
f 33 31 30
f 9 52 1
f 9 31 52
f 9 1 4
f 4 31 9
f 60 47 43
f 47 61 43
f 4 60 43
f 43 33 4
f 43 61 33
f 53 61 58
f 20 61 53
f 58 31 53
f 53 31 20
f 35 56 40
f 40 49 35
f 35 49 6
f 6 8 35
f 35 8 56
f 59 19 44
f 59 49 19
f 55 49 59
f 59 50 55
f 44 50 59
f 40 56 10
f 10 25 40
f 56 25 10
f 51 38 46
f 51 8 38
f 46 5 51
f 5 8 51
f 5 56 17
f 17 8 5
f 56 8 17
f 34 32 64
f 64 32 6
f 41 54 39
f 39 62 41
f 41 62 54
f 39 28 48
f 48 62 39
f 48 28 63
f 63 62 48
f 63 5 21
f 21 62 63
f 3 39 23
f 23 12 3
f 39 12 23
f 11 34 45
f 45 27 11
f 34 27 45
f 7 2 11
f 11 27 7
f 7 27 2
f 36 27 34
f 2 27 36
f 34 64 36
f 6 2 37
f 37 64 6
f 2 36 37
f 37 36 64
f 54 62 13
f 62 21 13
f 13 21 5
f 42 54 15
f 54 13 15
f 15 52 42
f 5 52 15
f 15 13 5

