# https://github.com/mikedh/trimesh
v -0.03120837 0.10018536 0.25670460
v -0.03501360 0.10091439 0.25398252
v -0.03291789 0.10155782 0.25144171
v -0.04019848 0.10119362 0.25263965
v -0.04134417 0.10074014 0.25363266
v -0.03203494 0.10102937 0.25357203
v -0.03380289 0.10104827 0.25348617
v -0.03851223 0.10054018 0.25536529
v -0.03009240 0.10069226 0.25486244
v -0.03277827 0.10003374 0.25721968
f 3 9 5
f 5 10 8
f 5 9 1
f 1 10 5
f 9 8 1
f 1 8 10
f 4 3 5
f 5 8 4
f 3 4 7
f 7 4 8
f 9 3 6
f 6 7 9
f 3 7 6
f 2 8 9
f 9 7 2
f 2 7 8

