# https://github.com/mikedh/trimesh
v 0.01042844 0.05042349 0.50029925
v 0.01398022 0.05029873 0.50046053
v 0.01646639 0.05015485 0.50060570
v 0.00695001 0.05038250 0.50054124
v 0.00062143 0.05007097 0.50087778
v 0.01384789 0.05001572 0.50104428
v 0.00277024 0.05014402 0.50084997
v 0.00788431 0.05014542 0.50101543
v 0.00334308 0.05001713 0.50115573
v 0.01504768 0.05013590 0.50076017
v 0.01986271 0.05005316 0.50032742
v 0.01252715 0.05043948 0.50017467
f 12 11 5
f 5 11 9
f 11 6 9
f 11 12 3
f 3 6 11
f 1 12 5
f 5 4 1
f 1 4 12
f 7 4 5
f 5 9 7
f 7 9 4
f 8 9 6
f 4 9 8
f 2 3 12
f 12 4 2
f 4 8 2
f 6 3 10
f 3 2 10
f 10 8 6
f 10 2 8

