# https://github.com/mikedh/trimesh
v 0.06647320 0.04603241 0.25088586
v 0.06036548 0.03607783 0.26685116
v 0.06594555 0.00284466 0.25893439
v 0.06802710 0.03021176 0.25104156
v 0.06098507 0.00081782 0.26890664
v 0.05084107 0.04642533 0.27886536
v 0.05671688 0.03597566 0.27314355
v 0.06193363 0.02229549 0.26603254
v 0.06273770 0.00922694 0.26546986
v 0.05136434 0.02844436 0.28182507
v 0.06152848 0.01636590 0.26759736
v 0.05193422 0.03561431 0.27997141
v 0.05320379 0.03902261 0.27754838
v 0.05435472 0.04494001 0.27464252
v 0.06433948 0.04831914 0.25563235
v 0.05092973 0.02513222 0.28281785
v 0.06316492 0.02184368 0.26347739
v 0.06294284 0.01207231 0.26488609
v 0.06744312 0.00294919 0.25563711
v 0.06872178 0.00049074 0.25245950
v 0.06717243 0.02585291 0.25408505
v 0.06426630 0.03915823 0.25826737
v 0.05257565 0.01869561 0.25030664
v 0.06326159 0.01922845 0.26362927
v 0.06375461 0.02162013 0.26225466
v 0.05025920 0.00177343 0.28233319
v 0.06817903 0.01668045 0.25293548
v 0.06478038 0.03438721 0.25823621
v 0.05097921 0.00665038 0.28298411
v 0.05811666 0.01613485 0.27326199
v 0.05011137 0.04340456 0.27565426
v 0.06465950 0.02127671 0.26037740
v 0.05074043 0.00064425 0.26270579
v 0.05350284 0.00275459 0.28086147
v 0.06625134 0.00784836 0.25011737
v 0.05177238 0.01239075 0.28300796
v 0.05067063 0.04710110 0.27414481
v 0.05191278 0.02711118 0.28136150
v 0.06580559 0.01584270 0.25855120
v 0.06758459 0.01968956 0.25418407
v 0.06581965 0.03149532 0.25643390
v 0.06220069 0.01555820 0.26629488
v 0.06179816 0.03526677 0.26412977
v 0.06190046 0.02452947 0.26579771
v 0.05135415 0.00473635 0.28308537
v 0.05553370 0.04486812 0.27294771
v 0.05364716 0.04692830 0.27520367
v 0.06090462 0.02655745 0.26761483
v 0.06637227 0.04955718 0.25002843
v 0.06887740 0.01759652 0.25097143
v 0.05484596 0.01343006 0.27873765
v 0.06473973 0.03534087 0.25815591
v 0.06925389 0.00930502 0.25041132
v 0.06062006 0.01643613 0.26909946
v 0.05758019 0.04237620 0.27031931
v 0.06481966 0.00655132 0.26115347
v 0.05197123 0.00915857 0.28285147
v 0.06452313 0.02007819 0.26083198
v 0.05001369 0.03683981 0.27722731
v 0.05477697 0.02543821 0.27766957
v 0.05315017 0.04989727 0.25655294
v 0.05177344 0.03828522 0.27956917
v 0.05947179 0.03893139 0.26793808
v 0.06341259 0.03175236 0.26153344
v 0.06622517 0.03966354 0.25353899
v 0.06123409 0.03613573 0.26508472
v 0.05459967 0.03834015 0.27573570
v 0.05678386 0.03281186 0.27351886
v 0.06069135 0.02679359 0.26800150
v 0.05716015 0.03398841 0.27276818
v 0.05638928 0.02435790 0.27520407
v 0.05032051 0.04208323 0.28044765
v 0.05735317 0.00301713 0.27520102
v 0.05917219 0.02686284 0.27043746
v 0.05650248 0.00191023 0.27646765
v 0.06673397 0.00874677 0.25693491
v 0.05446256 0.04879034 0.25320911
v 0.05003466 0.01674691 0.25443001
v 0.06625511 0.00463458 0.25029292
v 0.05366711 0.02116953 0.27986224
v 0.05385533 0.04717995 0.27485637
v 0.05701810 0.03481127 0.25086198
v 0.06795560 0.02016385 0.25314783
v 0.05009868 0.01537127 0.28256627
v 0.05442368 0.04985209 0.26801458
v 0.06343819 0.04278824 0.25910090
v 0.06513752 0.01670740 0.25993792
v 0.06684465 0.01289385 0.25647899
v 0.06218054 0.01939810 0.26590367
v 0.05178816 0.00985231 0.28301279
v 0.06254804 0.03646214 0.26235750
v 0.06049403 0.03084187 0.26762281
v 0.06567432 0.03684454 0.25584489
v 0.06152432 0.02752799 0.26616967
v 0.05267961 0.04977891 0.26945857
v 0.05040474 0.02150468 0.28331684
v 0.05422181 0.01674365 0.27949334
v 0.06409302 0.04384660 0.25748535
v 0.06351609 0.04371605 0.25871739
v 0.05768151 0.03480438 0.27181555
v 0.05253502 0.02292783 0.28117784
v 0.06596213 0.02307270 0.25733971
v 0.05220415 0.00082881 0.27751232
v 0.05755101 0.04821399 0.26907934
v 0.06678760 0.03536603 0.25328016
v 0.05756794 0.00015121 0.26895876
v 0.05583527 0.03724847 0.27423106
v 0.06319441 0.00135805 0.26489419
v 0.05459205 0.01419189 0.27908197
v 0.05322129 0.01994615 0.28059446
v 0.06032978 0.04911816 0.26391350
v 0.05934490 0.03985075 0.26794126
v 0.06457262 0.00126170 0.26195144
v 0.06807009 0.02670808 0.25159415
v 0.05377550 0.04904835 0.27455749
v 0.05564980 0.01490401 0.27743852
v 0.06558691 0.00666428 0.25950394
v 0.05651255 0.04052530 0.27247425
f 49 61 85
f 95 85 61
f 61 37 95
f 78 37 61
f 78 23 33
f 33 26 78
f 77 61 49
f 77 78 61
f 23 78 77
f 15 93 49
f 111 15 49
f 49 85 111
f 85 95 115
f 115 111 85
f 104 111 115
f 59 78 84
f 84 78 26
f 33 20 106
f 35 49 53
f 35 23 49
f 33 23 79
f 79 20 33
f 23 35 79
f 53 20 79
f 79 35 53
f 49 23 82
f 82 77 49
f 23 77 82
f 53 49 50
f 49 4 50
f 50 20 53
f 93 15 98
f 15 111 98
f 6 95 37
f 6 115 95
f 5 106 20
f 96 84 26
f 37 78 31
f 31 6 37
f 31 78 59
f 103 26 33
f 33 106 103
f 103 5 26
f 106 5 103
f 93 105 65
f 60 74 70
f 112 111 104
f 104 63 112
f 112 63 111
f 111 63 2
f 93 98 22
f 55 63 104
f 100 63 55
f 104 115 46
f 46 118 104
f 16 96 36
f 39 88 40
f 49 93 1
f 93 65 1
f 1 65 105
f 1 4 49
f 1 105 4
f 93 28 41
f 41 40 93
f 102 40 41
f 66 2 43
f 39 40 87
f 87 40 102
f 7 70 100
f 100 55 7
f 92 2 63
f 92 63 100
f 92 43 2
f 99 98 111
f 99 22 98
f 118 46 107
f 107 7 118
f 13 12 107
f 107 46 115
f 107 12 60
f 60 7 107
f 115 6 62
f 62 12 115
f 10 12 72
f 16 10 72
f 72 62 6
f 12 62 72
f 72 96 16
f 72 31 59
f 6 31 72
f 59 84 72
f 84 96 72
f 16 36 101
f 101 36 110
f 110 80 101
f 60 12 101
f 101 80 60
f 29 96 26
f 71 74 60
f 60 116 71
f 110 36 97
f 97 80 110
f 97 116 60
f 60 80 97
f 26 5 75
f 75 34 26
f 5 108 11
f 11 89 48
f 20 50 27
f 27 19 20
f 27 40 88
f 88 19 27
f 4 105 83
f 83 27 50
f 40 27 83
f 21 105 93
f 93 40 21
f 21 83 105
f 40 83 21
f 48 94 64
f 52 28 93
f 93 22 52
f 52 64 28
f 48 64 52
f 60 70 68
f 68 7 60
f 70 7 68
f 69 92 100
f 100 70 69
f 69 70 74
f 69 11 48
f 116 30 69
f 74 71 69
f 69 71 116
f 86 99 111
f 22 99 86
f 47 81 115
f 115 12 47
f 47 12 13
f 13 107 67
f 115 81 14
f 14 107 115
f 14 67 107
f 38 12 10
f 38 101 12
f 38 10 16
f 16 101 38
f 90 36 96
f 57 36 90
f 45 34 57
f 57 90 45
f 26 34 45
f 45 29 26
f 96 29 45
f 45 90 96
f 116 97 109
f 57 34 109
f 109 36 57
f 109 97 36
f 54 30 116
f 116 11 54
f 54 69 30
f 11 69 54
f 114 50 4
f 4 83 114
f 114 83 50
f 48 89 8
f 91 52 22
f 43 52 91
f 66 43 91
f 76 19 88
f 76 3 19
f 42 11 108
f 42 87 89
f 89 11 42
f 19 3 113
f 20 19 113
f 113 5 20
f 113 108 5
f 34 75 51
f 51 109 34
f 116 109 51
f 25 32 44
f 44 94 48
f 48 8 44
f 102 32 58
f 58 87 102
f 58 32 25
f 3 76 117
f 116 51 73
f 73 51 75
f 73 11 116
f 73 75 5
f 5 11 73
f 25 44 17
f 17 44 8
f 89 87 24
f 87 58 24
f 9 42 108
f 9 18 42
f 42 18 56
f 56 117 42
f 3 117 56
f 7 55 104
f 104 118 7
f 43 92 69
f 48 52 69
f 69 52 43
f 13 67 14
f 14 47 13
f 81 47 14
f 91 86 111
f 111 2 91
f 91 2 66
f 22 86 91
f 102 41 44
f 28 64 44
f 44 41 28
f 44 64 94
f 44 32 102
f 87 42 117
f 117 76 88
f 39 87 117
f 117 88 39
f 25 17 24
f 24 8 89
f 24 58 25
f 24 17 8
f 56 9 108
f 108 113 56
f 56 113 3
f 18 9 56

