# https://github.com/mikedh/trimesh
v 0.05782736 -0.02836495 0.50710542
v 0.05063842 -0.00225175 0.51741128
v 0.05165183 -0.00381726 0.51681738
v 0.06220570 -0.02379998 0.50572816
v 0.07186329 -0.01016506 0.50044830
v 0.05356408 -0.03249666 0.50774557
v 0.07166386 -0.01050743 0.50069588
v 0.05418463 -0.02651339 0.51026148
v 0.06248330 -0.02747223 0.50409479
v 0.07218537 -0.00585980 0.50053810
v 0.06560532 -0.03060974 0.50006831
v 0.05932765 -0.00937863 0.51132521
v 0.06845004 -0.00353531 0.50448218
v 0.05747865 -0.03153226 0.50580364
v 0.06495536 -0.00146136 0.50751728
v 0.05594351 -0.03208888 0.50649305
v 0.06278162 -0.03293936 0.50117651
v 0.06055230 -0.03214799 0.50329566
v 0.06152756 -0.01826118 0.50794768
v 0.05257040 -0.00558540 0.51614302
v 0.05263600 -0.03409978 0.50734556
v 0.05154379 -0.00057374 0.51697578
v 0.06012336 -0.03076042 0.50431654
v 0.05413634 -0.00304276 0.51530773
v 0.06847023 -0.00087649 0.50453329
v 0.05709493 -0.00529308 0.51328723
v 0.05949826 -0.02309097 0.50801789
v 0.05141661 -0.01084278 0.51619036
v 0.05391982 -0.02507753 0.51098447
v 0.05480294 -0.02364283 0.51097853
v 0.06188630 -0.03019607 0.50327036
v 0.05774999 -0.00192178 0.51296436
v 0.06370619 -0.02387032 0.50449169
v 0.05903192 -0.00452832 0.51198253
v 0.06944409 -0.00556207 0.50346138
v 0.06480247 -0.02573406 0.50287955
v 0.06799375 -0.00308756 0.50488857
v 0.06007442 -0.02292148 0.50764897
v 0.05082815 -0.00964879 0.51670774
v 0.05458835 -0.02041865 0.51213836
v 0.06286916 -0.03311907 0.50099760
v 0.06505217 -0.00989363 0.50681542
v 0.05132260 -0.00677715 0.51675705
v 0.05210240 -0.03973663 0.50344360
v 0.05480212 -0.00483405 0.51482918
v 0.06818230 -0.00958819 0.50419969
v 0.05895033 -0.03235959 0.50431917
v 0.05382721 -0.01716010 0.51346766
v 0.05258381 -0.02640595 0.51124956
v 0.06333850 -0.02053957 0.50588761
v 0.05428983 -0.02814561 0.50949391
v 0.05193195 -0.03468661 0.50735969
v 0.05521250 -0.00137436 0.51468561
v 0.05654652 -0.00537657 0.51366397
v 0.05163661 -0.02986922 0.51021246
v 0.06930323 -0.00611775 0.50353918
v 0.05497164 -0.03162336 0.50735756
v 0.06066415 -0.01106958 0.51008294
v 0.06948058 -0.00525261 0.50345384
v 0.05808129 -0.03221822 0.50500923
v 0.07101864 -0.00058214 0.50223380
v 0.05745012 -0.02727088 0.50787173
v 0.05689291 -0.00842958 0.51311510
v 0.05391356 -0.03388771 0.50673071
v 0.05961169 -0.01650961 0.50980885
v 0.06237378 -0.02865806 0.50362070
v 0.06844684 -0.00607749 0.50431766
v 0.06516534 -0.02301462 0.50359455
v 0.07251228 -0.00117613 0.50022577
v 0.05041260 -0.03468077 0.50820167
v 0.05765172 -0.02803917 0.50738429
v 0.06353234 -0.02332885 0.50483889
v 0.05150875 -0.00579903 0.51675685
v 0.05240854 -0.02744379 0.51094181
v 0.05782785 -0.01676678 0.51097863
v 0.05497010 -0.01299560 0.51368111
v 0.05178723 -0.00445852 0.51672125
v 0.05291131 -0.01447759 0.51463063
v 0.06424481 -0.01021562 0.50744429
v 0.05698351 -0.00381900 0.51344663
v 0.05580654 -0.00263641 0.51427793
v 0.05187742 -0.04260803 0.50077650
v 0.06334490 -0.02370308 0.50485520
v 0.06320000 -0.02852141 0.50302178
v 0.07018878 -0.01640704 0.50109822
v 0.05263739 -0.03801514 0.50456018
v 0.06959470 -0.00442072 0.50341365
v 0.06243569 -0.01994185 0.50677247
v 0.07054812 -0.00706051 0.50232586
v 0.07119474 -0.01595692 0.50009401
v 0.06328089 -0.00418954 0.50878273
v 0.05356457 -0.00252655 0.51567954
v 0.05989527 -0.03421519 0.50258067
v 0.05537013 -0.00969226 0.51397987
v 0.06147945 -0.02767154 0.50477997
v 0.07208752 -0.00163179 0.50110004
v 0.05215118 -0.04278846 0.50039209
v 0.06290148 -0.00502979 0.50903135
v 0.06398704 -0.00488233 0.50819559
v 0.05103613 -0.02531580 0.51254053
v 0.05127383 -0.01349445 0.51580791
v 0.06346616 -0.01844010 0.50642222
v 0.06665020 -0.01224271 0.50508851
v 0.05762579 -0.03194859 0.50547676
v 0.05815417 -0.00466977 0.51259640
v 0.05631935 -0.01535774 0.51232352
v 0.06773286 -0.01814835 0.50289708
v 0.05908527 -0.01819698 0.50979603
v 0.06689440 -0.00932481 0.50534246
v 0.06485309 -0.02127128 0.50440626
v 0.05865119 -0.00148041 0.51233940
v 0.06100529 -0.03645296 0.50026625
v 0.05494123 -0.03620165 0.50454250
v 0.06157258 -0.00262198 0.51016185
v 0.05932789 -0.02336723 0.50804249
v 0.05694399 -0.00507145 0.51341412
v 0.06441162 -0.02929195 0.50166904
v 0.06320727 -0.02664812 0.50383714
v 0.06446438 -0.03198769 0.50033120
v 0.05150006 -0.04253120 0.50104451
v 0.06292043 -0.00766965 0.50877868
v 0.05353343 -0.02693293 0.51050831
v 0.06970833 -0.02020880 0.50053753
v 0.07113503 -0.01000612 0.50144578
v 0.07049481 -0.00512971 0.50253688
v 0.06852286 -0.00352586 0.50441650
v 0.05552530 -0.01401967 0.51317294
v 0.05057217 -0.04246959 0.50157138
v 0.06805076 -0.00793003 0.50449989
v 0.07252486 -0.00285205 0.50007541
v 0.07034883 -0.01864848 0.50041201
v 0.05469111 -0.02721714 0.50966333
v 0.06022037 -0.01793185 0.50901401
v 0.07013157 -0.00796830 0.50261884
v 0.06913347 -0.02314233 0.50004922
v 0.05554135 -0.00840792 0.51402351
v 0.05948993 -0.01036019 0.51105589
v 0.06410419 -0.01626252 0.50640409
v 0.06040627 -0.02006959 0.50827302
v 0.06803107 -0.00309016 0.50485670
v 0.06457051 -0.02215921 0.50436958
v 0.05254080 -0.02362387 0.51232264
v 0.06528435 -0.00590647 0.50703510
v 0.07123866 -0.01281186 0.50084926
v 0.05954201 -0.01104950 0.51090982
v 0.05580233 -0.01964217 0.51158768
v 0.05009665 -0.01322461 0.51648263
v 0.05109008 -0.03998238 0.50375644
v 0.05064308 -0.02393723 0.51329324
v 0.05778241 -0.01048194 0.51222484
v 0.07131900 -0.00845053 0.50148687
v 0.06566060 -0.02992498 0.50034019
v 0.06620121 -0.02825098 0.50065653
v 0.06167003 -0.01806992 0.50788486
v 0.06430386 -0.01280810 0.50697136
v 0.05475783 -0.01733663 0.51287080
v 0.06057115 -0.00487063 0.51086785
v 0.05744294 -0.03793483 0.50164183
v 0.05239644 -0.01074766 0.51562124
v 0.07207209 -0.00047005 0.50109374
v 0.06108567 -0.03076658 0.50362121
v 0.06379719 -0.00046920 0.50847643
v 0.05089322 -0.01631253 0.51538819
v 0.05232685 -0.02361535 0.51244863
v 0.06762622 -0.02641793 0.50020628
v 0.05320190 -0.02396540 0.51181479
v 0.05706048 -0.02278849 0.50980016
v 0.05946943 -0.02495864 0.50733064
v 0.07205216 -0.00979203 0.50013209
v 0.05916327 -0.00323147 0.51192935
v 0.05052921 -0.01585229 0.51568904
v 0.06240775 -0.03336671 0.50121314
v 0.06182967 -0.02264098 0.50642523
v 0.06171932 -0.01673066 0.50816242
v 0.06788640 -0.01399542 0.50372847
v 0.05331586 -0.03440115 0.50674074
v 0.05913323 -0.01740406 0.50994270
v 0.06100646 -0.00940420 0.51008898
v 0.05791665 -0.02395710 0.50881365
v 0.06418069 -0.00777785 0.50778350
v 0.06179915 -0.00153386 0.51001578
v 0.06549441 -0.02923638 0.50080229
v 0.05000457 -0.01805742 0.51544750
v 0.07086475 -0.00711551 0.50203299
v 0.06003439 -0.00076270 0.51137999
v 0.05932774 -0.01370862 0.51063188
v 0.06016060 -0.01101664 0.51047720
v 0.06320896 -0.02227273 0.50546554
v 0.05118403 -0.02776557 0.51147516
v 0.07057559 -0.00951161 0.50203446
v 0.06449017 -0.01934327 0.50529302
v 0.05399224 -0.00468492 0.51534426
v 0.05800526 -0.02691016 0.50764246
v 0.06182063 -0.03208822 0.50238615
v 0.05004867 -0.02636627 0.51269091
v 0.05328976 -0.04181116 0.50075415
v 0.06349834 -0.03332132 0.50036990
v 0.05046569 -0.03401485 0.50862017
v 0.07135061 -0.00393555 0.50182611
v 0.05485154 -0.03058688 0.50794461
v 0.06250209 -0.01844127 0.50716584
v 0.05889216 -0.03810482 0.50048959
v 0.06003912 -0.02585664 0.50656727
v 0.07244083 -0.00249478 0.50033743
v 0.06528721 -0.01102325 0.50643514
v 0.06135809 -0.01171979 0.50944400
v 0.06388713 -0.01993693 0.50561617
v 0.06680273 -0.02652979 0.50088747
v 0.06590392 -0.00646943 0.50645807
v 0.05582210 -0.02442504 0.51001537
v 0.06025526 -0.03324793 0.50288374
v 0.05861471 -0.00218124 0.51234614
v 0.05677074 -0.00135187 0.51367128
v 0.06610654 -0.02921398 0.50028872
v 0.06783348 -0.00994468 0.50444783
v 0.05722779 -0.03941921 0.50054799
v 0.06657254 -0.00413283 0.50607049
v 0.05147130 -0.01801176 0.51464149
v 0.06028816 -0.00421544 0.51110647
v 0.05037250 -0.02111753 0.51437289
v 0.05736477 -0.02303886 0.50952106
v 0.05039763 -0.00629784 0.51730082
v 0.06153366 -0.03383375 0.50158407
v 0.05918205 -0.01933103 0.50941205
v 0.07136772 -0.00909866 0.50136528
v 0.07234034 -0.00226133 0.50058074
v 0.06341649 -0.02272014 0.50515648
v 0.06486881 -0.01433855 0.50621088
v 0.06097533 -0.03072332 0.50372216
v 0.05002889 -0.01289292 0.51657674
v 0.06154616 -0.02321740 0.50643857
v 0.05560530 -0.00587799 0.51422896
v 0.05182755 -0.03301942 0.50843659
v 0.05025483 -0.03786931 0.50599262
v 0.05283089 -0.03243864 0.50821033
v 0.05793274 -0.03365436 0.50428728
v 0.05553555 -0.02939168 0.50810077
v 0.06464512 -0.00549460 0.50761464
v 0.07094524 -0.01570385 0.50052525
v 0.05631899 -0.01836072 0.51160931
v 0.05182007 -0.00164645 0.51679157
v 0.06282871 -0.01239572 0.50820465
v 0.05182193 -0.00586054 0.51657226
v 0.06240162 -0.00526437 0.50940119
v 0.06194606 -0.01444954 0.50850809
v 0.05531239 -0.03897679 0.50218503
v 0.05384403 -0.01196068 0.51454008
v 0.05320541 -0.02231797 0.51238102
v 0.05856333 -0.00470866 0.51230629
v 0.05619087 -0.03845824 0.50206860
v 0.07032875 -0.00478142 0.50271776
v 0.05417045 -0.01358435 0.51405998
v 0.05748999 -0.03228150 0.50539120
v 0.05345771 -0.00130007 0.51578392
v 0.06086750 -0.02303154 0.50701555
v 0.05950298 -0.02703456 0.50650196
v 0.06811553 -0.00876328 0.50436928
v 0.07166373 -0.00968152 0.50086732
v 0.05983768 -0.02679618 0.50635020
v 0.06561789 -0.02017287 0.50409874
v 0.07206857 -0.00142480 0.50112676
v 0.05397875 -0.03993948 0.50211805
v 0.05510283 -0.00909043 0.51422433
v 0.05446722 -0.01295916 0.51399282
v 0.06126543 -0.01907455 0.50791657
v 0.07214566 -0.00693917 0.50051080
v 0.06730018 -0.02677966 0.50034207
v 0.05661651 -0.01967047 0.51103479
v 0.06493567 -0.00426066 0.50745874
v 0.06439991 -0.01388457 0.50671043
v 0.07056148 -0.00918886 0.50209172
v 0.06512728 -0.02680436 0.50220208
v 0.06294980 -0.03443890 0.50010036
v 0.06478917 -0.02931556 0.50134705
v 0.05781186 -0.03306679 0.50472735
v 0.06338766 -0.03126901 0.50155786
v 0.05312680 -0.00955163 0.51537505
v 0.05279809 -0.00646268 0.51591162
v 0.05244141 -0.00029814 0.51644782
v 0.06525304 -0.00075084 0.50728326
v 0.05003829 -0.02452929 0.51340513
v 0.05654904 -0.01866293 0.51137694
v 0.05818814 -0.01751231 0.51056057
v 0.06392346 -0.00264740 0.50832122
v 0.05037301 -0.01110072 0.51670075
v 0.05597522 -0.01411293 0.51284474
v 0.05251820 -0.03695738 0.50547370
v 0.05630971 -0.04038175 0.50029065
v 0.05603449 -0.02977251 0.50759903
v 0.06778455 -0.01036069 0.50442360
v 0.06115314 -0.00983827 0.50990691
v 0.06329572 -0.01796308 0.50667672
v 0.07165095 -0.00105551 0.50164604
v 0.05985378 -0.01494930 0.50999252
v 0.05428526 -0.02783974 0.50964234
v 0.05896254 -0.01243575 0.51109224
v 0.05451732 -0.00233843 0.51509190
v 0.05353233 -0.03156248 0.50828466
v 0.05337584 -0.02839737 0.50994046
v 0.05621400 -0.00606330 0.51382584
v 0.06171390 -0.00441649 0.51000042
v 0.06665411 -0.01329258 0.50491427
v 0.06637060 -0.00680831 0.50603078
v 0.05597632 -0.01764531 0.51200879
v 0.06970014 -0.01319479 0.50223687
v 0.05120293 -0.01462587 0.51561259
v 0.06573865 -0.00760832 0.50649136
v 0.07003393 -0.01366721 0.50185534
v 0.05725637 -0.02106831 0.51019416
v 0.05619588 -0.00649148 0.51379524
v 0.05039341 -0.03921356 0.50473960
v 0.05729670 -0.02476761 0.50891721
v 0.06067716 -0.01342466 0.50968292
v 0.06147152 -0.01370695 0.50902804
v 0.07068801 -0.01700180 0.50050103
v 0.05279027 -0.04102499 0.50183821
v 0.06533831 -0.01380015 0.50593734
v 0.05878121 -0.01410254 0.51093032
v 0.05982964 -0.00861121 0.51105263
v 0.06076832 -0.00441534 0.51073915
v 0.05197368 -0.03724004 0.50556738
v 0.06925628 -0.00310647 0.50376345
v 0.05669331 -0.01042538 0.51299025
v 0.07051321 -0.01818858 0.50038432
v 0.05552520 -0.02767745 0.50892277
v 0.06297599 -0.02507931 0.50462933
v 0.05102208 -0.00373389 0.51715895
v 0.05880053 -0.00877535 0.51175400
v 0.05491502 -0.00381454 0.51479914
v 0.05410818 -0.01757326 0.51320456
v 0.07235453 -0.00612744 0.50012734
v 0.06838385 -0.01337969 0.50339930
v 0.06588236 -0.02448180 0.50244867
v 0.06142604 -0.01487501 0.50881075
v 0.07020367 -0.00292111 0.50290662
v 0.06751160 -0.00014637 0.50537385
v 0.05432827 -0.02772603 0.50966878
v 0.06838977 -0.01338062 0.50339378
v 0.05597751 -0.01400533 0.51286717
v 0.05850668 -0.02017627 0.50961956
v 0.05836316 -0.02308238 0.50884824
v 0.05003961 -0.02873760 0.51164785
v 0.05442489 -0.00015408 0.51521300
v 0.05168607 -0.01080693 0.51603556
v 0.06599478 -0.01151470 0.50575942
v 0.05013729 -0.03269312 0.50953162
v 0.06107819 -0.01146728 0.50970010
v 0.05735050 -0.01626017 0.51141891
v 0.05390342 -0.02542660 0.51086258
v 0.05164751 -0.00908964 0.51633757
v 0.05215730 -0.01959367 0.51380303
v 0.06064701 -0.01855784 0.50853843
v 0.05709926 -0.03234435 0.50561562
v 0.06319362 -0.02890070 0.50285050
v 0.05920612 -0.03753540 0.50075784
v 0.05245226 -0.00474225 0.51629814
v 0.05818557 -0.03166724 0.50523387
v 0.05322773 -0.03127773 0.50861430
v 0.06612894 -0.01781981 0.50434572
v 0.06684045 -0.01590428 0.50418869
v 0.06711510 -0.01865778 0.50329470
v 0.06405990 -0.00902366 0.50776572
v 0.05182729 -0.01035574 0.51603072
v 0.06623008 -0.00664255 0.50616527
v 0.05671630 -0.02617662 0.50876731
v 0.06246672 -0.00635124 0.50925243
v 0.06992335 -0.00254865 0.50317408
v 0.05889844 -0.02772475 0.50664336
v 0.05915199 -0.02894312 0.50588831
v 0.06526913 -0.00530653 0.50710310
v 0.05623819 -0.01475636 0.51251950
v 0.06018583 -0.03179724 0.50375133
v 0.05425684 -0.01768998 0.51308925
v 0.05888362 -0.02258361 0.50864061
v 0.05185723 -0.02446994 0.51239668
v 0.07134226 -0.01051746 0.50114919
v 0.05232893 -0.03004633 0.50973878
v 0.07251290 -0.00346693 0.50003292
v 0.06552952 -0.00184594 0.50701878
v 0.05127060 -0.01790168 0.51478535
v 0.05051990 -0.00662883 0.51720173
v 0.06928950 -0.00070884 0.50379595
v 0.06297938 -0.02338196 0.50527836
v 0.05440707 -0.02265678 0.51158289
v 0.05654571 -0.02323715 0.50998524
v 0.05131944 -0.01224339 0.51600136
v 0.05662482 -0.03968793 0.50072826
v 0.06160149 -0.00027877 0.51020339
v 0.05326251 -0.01909557 0.51330389
v 0.05091843 -0.02027221 0.51431596
v 0.06686080 -0.02246547 0.50236199
v 0.06310739 -0.03427330 0.50008847
v 0.05031920 -0.04349142 0.50055828
v 0.06809515 -0.00855037 0.50440649
v 0.05649272 -0.03562960 0.50400130
v 0.06185711 -0.02855437 0.50408244
v 0.07191485 -0.01040941 0.50027684
v 0.05911553 -0.00480568 0.51190809
v 0.06473484 -0.00326525 0.50765626
v 0.06065365 -0.00158660 0.51090916
v 0.05367516 -0.01707796 0.51357693
v 0.06193155 -0.01760784 0.50779565
v 0.06737414 -0.00273414 0.50542553
v 0.06164125 -0.00008719 0.51017715
v 0.05464346 -0.02400593 0.51093999
v 0.06329564 -0.01544749 0.50724652
v 0.05989741 -0.03011636 0.50479051
v 0.07074994 -0.01283191 0.50134413
v 0.06410836 -0.00941350 0.50768088
v 0.05073251 -0.00371864 0.51731519
v 0.05155562 -0.04020560 0.50331919
v 0.06227880 -0.02537038 0.50508869
v 0.06486049 -0.02531125 0.50299099
v 0.06460407 -0.03131704 0.50056500
v 0.05966817 -0.02986971 0.50507261
v 0.05211927 -0.01968645 0.51379789
v 0.06367533 -0.01772757 0.50641898
v 0.06000535 -0.02522763 0.50683558
v 0.05461085 -0.03133660 0.50772514
v 0.05604931 -0.02498691 0.50965516
v 0.06896067 -0.01378583 0.50280606
v 0.06023212 -0.00629014 0.51098370
v 0.06628061 -0.01701781 0.50440706
v 0.06038572 -0.00273898 0.51107759
v 0.05516356 -0.02078636 0.51165757
v 0.06766215 -0.00564731 0.50503532
v 0.05053605 -0.03080265 0.51036098
v 0.05044732 -0.02235532 0.51395405
v 0.06387680 -0.00870866 0.50793738
v 0.06696066 -0.01391488 0.50454129
v 0.05444005 -0.03350617 0.50663698
v 0.06995307 -0.00474750 0.50306404
v 0.05711996 -0.03220463 0.50568178
v 0.07122877 -0.00746260 0.50167123
v 0.05926046 -0.00824061 0.51148811
v 0.06061150 -0.03621950 0.50073094
v 0.05610015 -0.03525197 0.50449142
v 0.06168239 -0.00880109 0.50962848
v 0.06369760 -0.01288782 0.50745312
v 0.07000690 -0.01420584 0.50176743
v 0.05232607 -0.01392778 0.51510225
v 0.06499828 -0.01557851 0.50581695
v 0.05910798 -0.03386306 0.50334855
v 0.05121645 -0.04049560 0.50320811
v 0.06200405 -0.00931913 0.50932838
v 0.05376382 -0.01903142 0.51302974
v 0.06526636 -0.00460820 0.50716804
v 0.06776546 -0.00608775 0.50490789
v 0.05157192 -0.02053006 0.51386227
v 0.06338812 -0.03317881 0.50054540
v 0.05266069 -0.01014494 0.51556252
v 0.05918474 -0.01523220 0.51039902
v 0.06239818 -0.01323889 0.50839616
v 0.06418053 -0.00206815 0.50813454
v 0.06205082 -0.03281090 0.50182278
v 0.07076800 -0.01438453 0.50103948
v 0.06267239 -0.00509321 0.50920481
v 0.06516735 -0.01338652 0.50615021
v 0.05086629 -0.03118011 0.50999484
f 130 393 69
f 183 393 342
f 378 393 130
f 378 97 393
f 346 342 393
f 392 378 11
f 97 378 392
f 130 69 204
f 69 226 204
f 230 393 183
f 230 2 393
f 2 230 222
f 222 230 285
f 393 2 22
f 22 69 393
f 22 279 69
f 183 342 281
f 97 392 288
f 11 378 135
f 378 90 135
f 234 346 393
f 327 22 2
f 96 226 69
f 293 96 261
f 69 279 160
f 160 336 61
f 61 293 160
f 160 293 261
f 160 96 69
f 261 96 160
f 404 336 343
f 343 160 279
f 336 160 343
f 373 218 446
f 446 40 373
f 428 281 149
f 324 90 315
f 324 135 90
f 82 128 393
f 82 120 128
f 70 234 321
f 198 346 70
f 346 234 70
f 128 120 444
f 120 82 444
f 39 222 285
f 285 230 39
f 2 222 410
f 410 327 2
f 77 410 222
f 232 300 45
f 404 343 185
f 185 343 213
f 152 182 11
f 153 214 267
f 182 152 153
f 195 281 342
f 119 392 11
f 11 182 414
f 414 119 11
f 373 40 146
f 40 425 146
f 263 350 277
f 277 94 263
f 332 290 175
f 213 343 53
f 367 293 61
f 202 112 355
f 288 112 202
f 273 288 392
f 273 112 288
f 287 70 321
f 393 128 311
f 311 234 393
f 196 82 97
f 97 288 196
f 321 234 44
f 330 218 373
f 78 127 441
f 441 306 78
f 306 48 78
f 78 48 373
f 183 163 171
f 171 163 306
f 222 39 381
f 381 39 350
f 101 306 441
f 277 350 451
f 127 159 264
f 327 410 3
f 410 77 3
f 22 327 3
f 279 22 241
f 22 3 241
f 241 3 77
f 45 300 54
f 45 54 81
f 81 54 80
f 81 80 213
f 213 53 81
f 404 185 400
f 400 185 424
f 189 195 342
f 342 346 427
f 384 425 40
f 292 270 406
f 341 374 224
f 300 232 136
f 136 20 263
f 136 263 94
f 94 127 323
f 107 85 175
f 324 85 107
f 215 109 290
f 409 439 79
f 290 109 42
f 42 103 290
f 42 109 409
f 409 79 42
f 96 225 266
f 266 331 204
f 266 204 226
f 456 324 315
f 456 85 324
f 96 293 199
f 61 336 382
f 336 25 382
f 288 202 216
f 216 202 355
f 411 444 82
f 321 44 86
f 86 287 321
f 246 86 44
f 250 287 246
f 287 86 246
f 316 196 288
f 44 411 316
f 82 196 316
f 316 411 82
f 156 304 127
f 373 146 156
f 282 224 108
f 334 292 406
f 270 439 314
f 401 48 306
f 401 330 373
f 373 48 401
f 380 163 183
f 183 390 380
f 380 390 218
f 147 171 306
f 147 101 230
f 306 101 147
f 147 230 183
f 183 171 147
f 73 77 222
f 247 159 127
f 247 451 159
f 441 127 252
f 127 264 252
f 263 20 278
f 319 178 422
f 12 178 319
f 12 319 435
f 422 178 157
f 362 157 121
f 362 109 257
f 409 109 362
f 11 135 165
f 165 214 11
f 267 214 165
f 36 333 413
f 135 324 131
f 131 123 135
f 324 107 131
f 131 107 123
f 55 189 342
f 149 100 49
f 167 341 309
f 309 146 167
f 167 146 425
f 425 384 167
f 164 428 149
f 164 384 428
f 428 384 248
f 416 390 449
f 416 384 40
f 449 248 416
f 416 248 384
f 392 119 197
f 119 450 197
f 182 153 272
f 272 333 36
f 420 62 312
f 27 374 341
f 270 292 417
f 127 75 371
f 348 75 127
f 108 75 283
f 75 348 283
f 139 173 88
f 108 224 352
f 224 139 352
f 63 323 12
f 63 136 94
f 94 323 63
f 173 4 383
f 88 173 188
f 391 68 333
f 135 123 391
f 391 165 135
f 175 430 360
f 360 107 175
f 423 107 360
f 290 103 302
f 175 290 302
f 302 430 175
f 302 317 430
f 169 397 90
f 378 331 169
f 169 90 378
f 331 266 169
f 226 96 10
f 10 266 226
f 96 266 10
f 258 266 225
f 175 85 440
f 85 456 440
f 151 225 96
f 96 199 151
f 257 109 46
f 109 215 46
f 46 215 290
f 290 332 46
f 13 25 140
f 140 25 336
f 13 140 217
f 220 390 183
f 183 281 220
f 281 428 220
f 148 44 234
f 148 411 44
f 234 311 148
f 444 411 148
f 128 444 148
f 148 311 128
f 288 246 262
f 262 246 44
f 262 316 288
f 44 316 262
f 288 216 387
f 387 246 288
f 387 216 250
f 250 246 387
f 304 156 240
f 240 282 108
f 240 156 146
f 146 282 240
f 108 283 240
f 268 146 309
f 309 282 268
f 268 282 146
f 340 282 309
f 224 282 340
f 309 341 340
f 341 224 340
f 294 452 177
f 406 270 245
f 270 314 245
f 245 334 406
f 294 334 245
f 245 314 294
f 43 381 350
f 350 73 43
f 243 73 350
f 243 278 20
f 77 73 243
f 350 263 243
f 263 278 243
f 363 344 159
f 159 451 363
f 363 451 350
f 28 39 230
f 344 363 28
f 350 39 28
f 28 363 350
f 76 247 127
f 76 127 94
f 45 81 329
f 329 192 45
f 212 170 219
f 219 157 320
f 424 219 320
f 320 400 424
f 80 54 116
f 116 105 80
f 219 170 34
f 162 336 404
f 162 280 336
f 180 362 238
f 307 362 257
f 238 362 307
f 409 362 445
f 377 55 459
f 358 377 459
f 342 427 459
f 459 55 342
f 459 427 346
f 459 346 198
f 198 233 459
f 132 337 62
f 299 377 358
f 71 62 325
f 62 337 325
f 210 30 420
f 341 167 221
f 221 167 384
f 365 62 420
f 420 30 365
f 375 164 149
f 29 30 384
f 389 446 218
f 218 390 351
f 390 416 351
f 351 389 218
f 446 389 351
f 40 446 351
f 351 416 40
f 118 326 412
f 326 383 412
f 412 383 4
f 193 62 71
f 193 312 62
f 368 193 71
f 374 27 38
f 65 177 108
f 294 177 65
f 174 334 294
f 292 334 174
f 442 423 270
f 359 107 423
f 106 348 127
f 127 304 106
f 108 352 133
f 133 65 108
f 88 188 102
f 102 359 417
f 102 417 292
f 265 139 88
f 265 352 139
f 300 136 310
f 136 63 310
f 328 54 300
f 328 435 54
f 12 435 328
f 328 63 12
f 58 242 291
f 206 242 58
f 439 242 453
f 453 314 439
f 242 206 453
f 323 186 296
f 187 178 12
f 187 291 178
f 58 291 187
f 318 452 294
f 294 186 318
f 33 72 83
f 72 383 83
f 83 413 33
f 36 413 83
f 227 391 141
f 68 391 227
f 227 72 68
f 227 383 72
f 173 383 227
f 227 188 173
f 141 391 110
f 191 102 110
f 208 391 333
f 165 391 208
f 333 272 208
f 267 165 208
f 208 153 267
f 208 272 153
f 270 423 228
f 423 360 228
f 270 317 458
f 317 302 458
f 345 302 103
f 103 42 345
f 345 42 79
f 239 456 315
f 239 144 456
f 315 90 239
f 90 144 239
f 266 258 5
f 397 169 5
f 5 169 266
f 90 397 5
f 5 144 90
f 376 258 225
f 144 258 376
f 421 332 175
f 175 440 421
f 421 440 456
f 124 376 225
f 322 87 367
f 67 87 13
f 199 87 251
f 293 367 335
f 367 87 335
f 335 199 293
f 335 87 199
f 280 217 403
f 379 217 280
f 77 243 356
f 356 243 20
f 356 192 77
f 45 192 356
f 230 101 386
f 386 28 230
f 344 28 386
f 297 329 81
f 279 241 92
f 77 192 92
f 92 241 77
f 192 329 92
f 170 212 32
f 366 244 157
f 99 180 238
f 54 435 26
f 26 116 54
f 422 157 398
f 398 157 219
f 400 181 388
f 404 400 388
f 400 320 114
f 91 181 114
f 114 181 400
f 284 181 91
f 284 388 181
f 399 99 269
f 91 99 399
f 399 284 91
f 438 445 362
f 438 362 121
f 178 445 438
f 438 157 178
f 158 216 355
f 250 216 158
f 355 112 436
f 112 273 436
f 436 273 392
f 392 223 436
f 172 223 392
f 392 197 172
f 276 31 161
f 161 31 396
f 396 95 161
f 377 299 74
f 74 49 195
f 195 189 74
f 384 30 385
f 385 221 384
f 30 210 385
f 166 29 384
f 149 49 122
f 122 375 149
f 49 74 122
f 337 132 122
f 122 299 337
f 122 74 299
f 8 122 132
f 118 412 9
f 9 412 95
f 9 272 118
f 9 95 396
f 9 354 84
f 182 272 9
f 179 193 341
f 312 193 179
f 256 368 95
f 193 368 256
f 231 4 173
f 292 174 402
f 270 417 138
f 138 442 270
f 201 102 292
f 292 402 201
f 88 102 201
f 12 323 150
f 323 296 150
f 145 296 186
f 186 187 145
f 313 187 186
f 294 314 313
f 313 186 294
f 127 318 339
f 339 318 186
f 339 186 323
f 339 323 127
f 127 371 286
f 286 318 127
f 207 110 102
f 191 110 260
f 260 110 391
f 107 359 361
f 359 102 361
f 123 107 361
f 361 391 123
f 361 102 191
f 191 260 361
f 361 260 391
f 270 458 155
f 155 439 270
f 155 79 439
f 7 258 144
f 144 5 7
f 7 5 258
f 190 124 225
f 13 87 126
f 87 322 126
f 217 269 447
f 447 99 238
f 269 99 447
f 434 151 199
f 87 67 59
f 37 217 140
f 37 403 217
f 279 329 254
f 329 297 254
f 24 329 279
f 279 92 24
f 24 92 329
f 111 32 212
f 213 32 111
f 111 185 213
f 362 180 429
f 157 362 429
f 429 366 157
f 98 99 157
f 301 99 91
f 91 114 301
f 301 114 320
f 301 320 157
f 157 99 301
f 249 34 105
f 105 116 249
f 219 34 249
f 249 398 219
f 280 162 15
f 15 379 280
f 93 436 223
f 41 197 450
f 41 172 197
f 372 161 23
f 369 415 407
f 1 415 369
f 71 1 369
f 369 368 71
f 57 419 298
f 14 104 357
f 14 1 71
f 14 357 372
f 372 23 14
f 14 253 104
f 337 299 295
f 299 51 295
f 200 51 299
f 419 57 200
f 384 164 142
f 142 166 384
f 164 375 142
f 122 8 349
f 8 405 349
f 349 405 30
f 30 29 349
f 117 354 414
f 84 354 117
f 66 9 396
f 354 9 66
f 341 193 115
f 193 168 115
f 115 27 341
f 95 412 259
f 259 256 95
f 173 38 255
f 255 231 173
f 255 38 27
f 352 201 19
f 19 133 352
f 137 187 12
f 137 145 187
f 296 145 137
f 12 150 137
f 137 150 296
f 347 206 58
f 314 453 347
f 347 453 206
f 58 187 347
f 187 313 347
f 347 313 314
f 50 102 188
f 50 207 102
f 205 345 79
f 332 421 338
f 338 46 332
f 338 305 46
f 46 305 408
f 408 190 46
f 124 190 408
f 456 144 408
f 376 124 408
f 144 376 408
f 271 190 225
f 271 151 257
f 225 151 271
f 257 46 271
f 46 190 271
f 217 447 426
f 13 217 426
f 426 67 13
f 370 447 238
f 199 251 125
f 125 434 199
f 432 251 87
f 87 59 432
f 157 244 457
f 457 98 157
f 244 366 457
f 399 15 454
f 454 15 162
f 284 399 454
f 372 47 18
f 407 23 229
f 229 23 161
f 161 369 229
f 229 369 407
f 104 253 60
f 60 253 47
f 235 298 358
f 358 459 235
f 235 459 233
f 433 57 16
f 433 14 57
f 253 14 433
f 289 14 71
f 57 14 289
f 289 200 57
f 274 414 182
f 274 117 414
f 412 115 418
f 418 115 168
f 154 201 402
f 154 19 201
f 308 408 305
f 308 338 421
f 305 338 308
f 308 421 456
f 456 408 308
f 67 426 448
f 209 307 257
f 434 89 134
f 257 151 134
f 151 434 134
f 134 67 257
f 35 56 89
f 67 56 35
f 35 59 67
f 443 93 211
f 211 18 47
f 17 450 119
f 17 41 450
f 172 41 17
f 194 414 276
f 276 161 194
f 119 414 194
f 194 17 119
f 194 161 372
f 372 18 194
f 21 233 198
f 21 235 233
f 21 64 235
f 113 287 250
f 6 57 298
f 298 235 6
f 235 64 6
f 431 6 64
f 237 289 51
f 51 200 237
f 200 289 237
f 203 259 412
f 412 418 203
f 67 448 129
f 143 370 238
f 143 209 370
f 434 35 184
f 184 89 434
f 184 35 89
f 172 17 455
f 17 194 455
f 455 211 93
f 18 211 455
f 455 194 18
f 223 172 455
f 455 93 223
f 52 21 198
f 198 70 52
f 287 21 52
f 70 287 52
f 176 21 287
f 64 21 176
f 287 113 176
f 64 176 395
f 395 176 113
f 395 113 250
f 250 158 395
f 395 158 355
f 355 436 395
f 395 93 443
f 436 93 395
f 16 431 353
f 353 433 16
f 394 209 257
f 257 67 394
f 67 129 394
f 437 431 64
f 64 395 437
f 209 394 303
f 275 353 431
f 431 437 275
f 47 253 275
f 253 433 275
f 433 353 275
f 443 211 275
f 275 211 47
f 370 209 364
f 209 303 364
f 236 437 395
f 236 275 437
f 236 395 443
f 443 275 236
f 130 204 331
f 331 378 130
f 393 97 82
f 153 152 11
f 11 214 153
f 149 281 100
f 281 195 100
f 127 78 156
f 156 78 373
f 401 163 330
f 306 163 401
f 330 163 380
f 218 330 380
f 49 100 195
f 33 413 72
f 333 68 72
f 72 413 333
f 220 248 449
f 428 248 220
f 449 390 220
f 43 73 222
f 222 381 43
f 277 451 76
f 76 94 277
f 451 247 76
f 173 139 38
f 38 224 374
f 38 139 224
f 106 240 283
f 106 283 348
f 304 240 106
f 328 310 63
f 300 310 328
f 409 445 291
f 291 439 409
f 291 445 178
f 291 242 439
f 83 272 36
f 83 383 326
f 118 272 83
f 83 326 118
f 228 360 430
f 228 317 270
f 430 317 228
f 356 232 45
f 356 136 232
f 20 136 356
f 441 252 386
f 386 252 264
f 159 344 386
f 386 264 159
f 386 101 441
f 297 81 53
f 297 53 343
f 32 34 170
f 105 34 32
f 80 105 32
f 213 80 32
f 121 157 438
f 74 55 377
f 189 55 74
f 179 385 210
f 179 210 420
f 420 312 179
f 341 221 179
f 221 385 179
f 138 359 423
f 423 442 138
f 417 359 138
f 201 265 88
f 352 265 201
f 286 177 452
f 286 371 75
f 108 177 286
f 286 75 108
f 452 318 286
f 126 367 61
f 61 382 126
f 126 25 13
f 126 322 367
f 126 382 25
f 37 140 336
f 336 280 37
f 280 403 37
f 254 297 343
f 254 343 279
f 111 219 424
f 424 185 111
f 111 212 219
f 422 398 249
f 249 319 422
f 249 26 435
f 249 435 319
f 116 26 249
f 15 399 269
f 15 269 217
f 217 379 15
f 369 161 95
f 95 368 369
f 407 415 14
f 14 415 1
f 14 23 407
f 358 298 200
f 200 299 358
f 298 419 200
f 405 132 62
f 405 365 30
f 62 365 405
f 405 8 132
f 349 142 375
f 375 122 349
f 29 166 349
f 166 142 349
f 396 31 66
f 276 414 66
f 66 31 276
f 414 354 66
f 4 231 255
f 255 412 4
f 27 115 255
f 255 115 412
f 19 174 294
f 294 65 19
f 65 133 19
f 110 207 50
f 141 110 50
f 188 227 50
f 50 227 141
f 79 155 205
f 205 155 458
f 302 345 205
f 205 458 302
f 99 98 457
f 180 99 457
f 457 429 180
f 366 429 457
f 404 388 454
f 454 162 404
f 388 284 454
f 357 104 60
f 372 357 60
f 60 47 372
f 337 295 289
f 71 325 289
f 289 325 337
f 289 295 51
f 274 9 84
f 182 9 274
f 84 117 274
f 174 19 154
f 154 402 174
f 56 134 89
f 67 134 56
f 251 432 35
f 35 432 59
f 434 125 35
f 35 125 251
f 16 57 431
f 57 6 431
f 203 418 168
f 203 168 193
f 193 256 203
f 256 259 203
f 238 307 143
f 307 209 143
f 364 394 129
f 447 370 364
f 364 426 447
f 364 129 448
f 364 448 426
f 364 303 394

