# https://github.com/mikedh/trimesh
v 0.00493210 0.01449863 0.00034871
v 0.00376731 0.04587318 0.01347652
v 0.00007436 0.02001773 0.01521289
v 0.01550036 0.00038839 0.02973946
v 0.04943298 0.03276476 0.01366175
v 0.01445398 0.00445893 0.04868955
v 0.00049094 0.01540586 0.00496972
v 0.04929853 0.04221781 0.01207245
v 0.01511901 0.00067924 0.03959865
v 0.00586030 0.00110957 0.01687872
v 0.00976207 0.04946803 0.01500831
v 0.00200837 0.04576720 0.01440658
v 0.00012460 0.00436306 0.03930488
v 0.00025760 0.04862530 0.02033537
v 0.00147550 0.03869105 0.01169510
v 0.01599986 0.00428742 0.04659641
v 0.00750263 0.01120143 0.00003276
v 0.00511389 0.00132338 0.01687874
v 0.00110571 0.00290117 0.01687882
v 0.01599099 0.04978128 0.03245310
v 0.01599217 0.04485480 0.04887245
v 0.04980717 0.03080049 0.01481498
v 0.00021067 0.02799986 0.00946473
v 0.00179590 0.00052662 0.04345998
v 0.01599127 0.04944940 0.04761156
v 0.01399754 0.00038558 0.02268692
v 0.00324443 0.04698441 0.01497433
v 0.01550008 0.00109113 0.01950079
v 0.04953532 0.04674893 0.02638048
v 0.00640815 0.01700120 0.00131627
v 0.04724531 0.04900597 0.01552997
v 0.04930501 0.04906833 0.02770101
v 0.01401802 0.00030942 0.02844108
v 0.00422963 0.00005276 0.04345994
v 0.00312562 0.00463114 0.04944085
v 0.01336478 0.00448711 0.04889546
v 0.01521661 0.00031517 0.03628666
v 0.01599919 0.00803882 0.04972327
v 0.04970536 0.04360911 0.02368218
v 0.00007711 0.04449105 0.01835665
v 0.00899750 0.01311927 0.00014798
v 0.04897374 0.04933085 0.02580647
v 0.04881320 0.03659670 0.01278152
v 0.00566074 0.04767781 0.01424559
v 0.04911212 0.04672248 0.01207254
v 0.01515645 0.00036476 0.03693070
v 0.00086335 0.03799815 0.01272307
v 0.00007725 0.00615176 0.02983431
v 0.00073850 0.00413059 0.04495848
v 0.00249368 0.04964205 0.01963733
v 0.00034320 0.01211987 0.00496816
f 29 38 22
f 29 32 38
f 32 29 45
f 11 45 44
f 4 28 22
f 39 29 22
f 39 45 29
f 32 45 42
f 13 19 24
f 20 42 50
f 50 42 11
f 50 11 44
f 25 50 14
f 20 50 25
f 25 42 20
f 32 42 25
f 16 9 22
f 16 6 9
f 22 38 16
f 38 6 16
f 22 9 37
f 37 4 22
f 45 11 31
f 31 42 45
f 11 42 31
f 41 1 45
f 44 45 2
f 40 13 14
f 24 19 18
f 18 10 24
f 28 4 26
f 26 10 28
f 19 13 48
f 48 40 3
f 13 40 48
f 19 48 51
f 51 48 3
f 35 25 14
f 46 37 9
f 8 41 45
f 43 41 8
f 8 39 22
f 45 39 8
f 5 41 43
f 5 8 22
f 43 8 5
f 22 28 17
f 17 5 22
f 41 5 17
f 28 10 17
f 10 18 17
f 1 41 17
f 17 51 1
f 17 18 19
f 19 51 17
f 45 1 30
f 30 2 45
f 1 2 30
f 27 50 44
f 14 50 27
f 37 46 34
f 24 10 34
f 10 26 34
f 34 46 9
f 9 6 34
f 34 35 24
f 4 37 33
f 33 26 4
f 37 34 33
f 33 34 26
f 1 51 7
f 49 13 24
f 24 35 49
f 14 13 49
f 49 35 14
f 21 35 38
f 25 35 21
f 38 32 21
f 32 25 21
f 36 34 6
f 35 34 36
f 36 6 38
f 38 35 36
f 15 2 1
f 1 7 15
f 23 7 51
f 3 40 23
f 23 51 3
f 23 15 7
f 12 40 14
f 14 27 12
f 2 15 12
f 44 2 12
f 12 27 44
f 47 23 40
f 15 23 47
f 40 12 47
f 47 12 15

