# https://github.com/mikedh/trimesh
v 0.00086038 0.04161062 0.24050717
v 0.00023435 0.00430205 0.20165680
v 0.00003805 0.04040026 0.20165749
v 0.03115329 0.04873729 0.24814625
v 0.03352305 0.04958377 0.24235440
v 0.00579520 0.00096883 0.20165666
v 0.04791208 0.00503877 0.20165612
v 0.04800309 0.00119616 0.22744505
v 0.00325342 0.03912033 0.24918933
v 0.03464414 0.04989370 0.22965565
v 0.00837782 0.00035141 0.20165661
v 0.04800158 0.01079847 0.24945109
v 0.04800306 0.00293256 0.24823025
v 0.02357714 0.04997668 0.20165732
v 0.00020759 0.04602804 0.22510602
v 0.04993743 0.00700264 0.20165613
v 0.00378460 0.04664824 0.20165755
v 0.02771775 0.04952909 0.20165726
v 0.04446242 0.04716498 0.20165697
v 0.04627635 0.04663233 0.20165693
v 0.00411754 0.00062544 0.20165668
v 0.00311279 0.00783731 0.20165683
v 0.00277910 0.04974238 0.21215594
v 0.03711652 0.00167145 0.20165621
v 0.04899988 0.01897793 0.24900540
v 0.04904683 0.02347291 0.20165645
v 0.04909492 0.04911966 0.20165694
v 0.01281039 0.03909374 0.24928131
v 0.04961408 0.01971116 0.24442350
v 0.03173527 0.04933030 0.24701794
v 0.04797550 0.04290896 0.20165683
v 0.04929160 0.00983347 0.20165619
v 0.00024220 0.04930952 0.21366525
v 0.04902498 0.00632924 0.20165613
v 0.04800349 0.00061420 0.24760721
v 0.00657165 0.04918471 0.20165756
v 0.02976098 0.04344866 0.24897098
v 0.03007961 0.00046230 0.20165629
f 7 34 16
f 16 27 29
f 20 27 31
f 12 9 13
f 34 7 6
f 6 22 20
f 20 31 6
f 6 38 11
f 26 31 27
f 26 6 31
f 22 36 14
f 17 22 3
f 17 36 22
f 12 13 25
f 25 29 27
f 16 29 35
f 29 25 35
f 35 25 13
f 35 13 9
f 11 38 35
f 32 27 16
f 32 26 27
f 16 34 32
f 34 6 32
f 6 26 32
f 19 27 20
f 20 22 19
f 23 14 36
f 12 25 37
f 5 25 27
f 30 25 5
f 5 23 30
f 21 6 11
f 11 35 21
f 21 35 9
f 8 35 38
f 8 7 16
f 16 35 8
f 1 30 15
f 18 14 27
f 27 19 18
f 22 14 18
f 18 19 22
f 30 23 33
f 33 15 30
f 3 15 33
f 33 17 3
f 36 17 33
f 33 23 36
f 4 25 30
f 4 37 25
f 9 37 4
f 4 1 9
f 4 30 1
f 28 9 12
f 12 37 28
f 28 37 9
f 14 23 10
f 23 5 10
f 27 14 10
f 10 5 27
f 2 21 9
f 9 1 2
f 1 15 2
f 3 22 2
f 22 6 2
f 6 21 2
f 2 15 3
f 7 8 24
f 24 8 38
f 24 6 7
f 38 6 24

