# https://github.com/mikedh/trimesh
v 0.00572006 0.01158248 -0.00691175
v 0.00015103 0.01376514 -0.00498565
v 0.00415086 0.01667357 -0.00262687
v 0.00402203 0.01233288 -0.00800286
v 0.00859086 0.01120164 -0.00007061
v 0.00674606 0.01120132 -0.00186938
v 0.00209081 0.01120054 -0.00738968
v 0.00388774 0.01120816 -0.00305359
v 0.00712203 0.01530073 -0.00492823
v 0.00434646 0.01120096 -0.00697006
v 0.00343637 0.01250102 -0.00827455
v 0.00223020 0.01120054 -0.00610817
v 0.00524830 0.01120108 -0.00408475
v 0.00835686 0.01223647 -0.00314029
v 0.00757862 0.01640278 -0.00011752
v 0.00787069 0.01289675 -0.00420451
v 0.00363621 0.01698505 -0.00341016
v 0.00495154 0.01468981 -0.00024404
f 2 17 11
f 9 11 17
f 18 17 2
f 15 9 17
f 15 18 5
f 5 14 15
f 15 14 9
f 2 12 8
f 8 12 5
f 8 18 2
f 5 18 8
f 9 14 16
f 5 12 6
f 1 16 14
f 9 16 1
f 1 14 5
f 17 18 3
f 3 15 17
f 18 15 3
f 2 11 7
f 7 12 2
f 11 9 4
f 9 1 4
f 13 6 12
f 12 7 13
f 5 6 13
f 10 4 1
f 10 13 7
f 10 7 11
f 11 4 10
f 10 1 5
f 5 13 10

