# https://github.com/mikedh/trimesh
v -0.00165574 -0.01177525 -0.00879789
v -0.00205812 -0.01246350 -0.00867971
v -0.00459180 -0.01120083 -0.00259779
v -0.00497780 -0.01569169 -0.00016059
v -0.00814634 -0.01506522 -0.00344869
v -0.00868227 -0.01256503 -0.00219357
v -0.00413364 -0.01321771 -0.00793154
v -0.00657948 -0.01700122 -0.00205000
v -0.00514155 -0.01700095 -0.00174100
v -0.00558793 -0.01489659 -0.00699673
v -0.00366443 -0.01148047 -0.00327351
v -0.00613911 -0.01642579 -0.00436184
v -0.00856911 -0.01175335 -0.00267611
v -0.00168471 -0.01442374 -0.00878928
v -0.00514015 -0.01572362 -0.00643401
v -0.00633572 -0.01527135 -0.00588013
v -0.00520579 -0.01120089 -0.00517415
v -0.00225109 -0.01474379 -0.00862296
v -0.00276396 -0.01590100 -0.00754323
f 6 8 4
f 6 4 3
f 9 4 8
f 17 3 1
f 1 3 11
f 11 3 4
f 5 8 6
f 19 9 8
f 4 9 19
f 7 17 1
f 16 5 10
f 18 19 10
f 10 7 18
f 17 7 13
f 6 3 13
f 3 17 13
f 13 7 10
f 13 5 6
f 10 5 13
f 10 19 15
f 15 16 10
f 19 18 14
f 4 19 14
f 14 18 1
f 14 11 4
f 1 11 14
f 2 7 1
f 1 18 2
f 2 18 7
f 16 15 12
f 8 5 12
f 5 16 12
f 12 19 8
f 12 15 19

