# https://github.com/mikedh/trimesh
v -0.00098378 -0.04804006 0.20165583
v -0.02310898 -0.04218990 0.24661380
v -0.02633965 -0.04557419 0.23846490
v -0.00301704 -0.04926060 0.20165583
v -0.02630737 -0.04986046 0.22649443
v -0.02865563 -0.04951063 0.20165621
v -0.02999565 -0.00748786 0.20074656
v -0.02358063 -0.04585799 0.24661176
v -0.02251856 -0.04722101 0.24908812
v -0.02998765 -0.04944143 0.20132665
v -0.02455186 -0.04498892 0.24419624
v -0.02309337 -0.00144939 0.20165703
v -0.02293523 -0.04357379 0.24739762
v -0.02999022 -0.03598443 0.20037355
v -0.02661591 -0.04379538 0.23660973
v -0.02326174 -0.04473867 0.24700270
v -0.00557128 -0.04946656 0.20165587
v -0.02998883 -0.04331415 0.20039532
v -0.02426724 -0.04595152 0.24510678
v -0.00865133 -0.00017399 0.20165685
v -0.02416498 -0.00179305 0.20165704
v -0.02182855 -0.04535243 0.24957804
v -0.01805018 -0.00020875 0.20165698
v -0.00068688 -0.04883195 0.21532361
v -0.00003006 -0.04717155 0.22111407
v -0.02378344 -0.04261944 0.24523213
v -0.02500881 -0.04947373 0.24446079
v -0.00014303 -0.04013745 0.24564672
v -0.00043695 -0.00488428 0.20165664
v -0.00395167 -0.00143999 0.20165676
v -0.02463888 -0.04104453 0.24249977
v -0.02664770 -0.04827185 0.23750490
v -0.00276243 -0.03897939 0.24968743
v -0.02012083 -0.03901972 0.24955857
v -0.02592384 -0.04264486 0.23924147
v -0.02527531 -0.04868480 0.24348647
v -0.02999574 -0.00698571 0.20123467
v -0.02999398 -0.01620750 0.20152591
v -0.02699098 -0.04980580 0.23241947
v -0.02579219 -0.04869876 0.24148377
v -0.00547111 -0.00056781 0.20165679
v -0.02659262 -0.04762330 0.23797523
v -0.01801989 -0.04985371 0.20165605
v -0.02159228 -0.04040160 0.24851097
f 25 29 28
f 28 29 33
f 25 28 27
f 33 23 34
f 37 44 34
f 34 21 37
f 1 29 25
f 31 44 37
f 32 38 10
f 37 38 32
f 39 10 5
f 39 32 10
f 27 32 39
f 20 23 33
f 33 41 20
f 33 29 30
f 30 41 33
f 9 28 33
f 9 27 28
f 12 34 23
f 21 34 12
f 5 10 6
f 6 43 5
f 10 43 6
f 10 4 17
f 17 43 10
f 5 43 17
f 17 39 5
f 27 39 17
f 24 1 25
f 4 1 24
f 25 27 24
f 24 17 4
f 27 17 24
f 7 30 29
f 41 30 7
f 7 20 41
f 23 20 7
f 7 12 23
f 37 21 7
f 21 12 7
f 18 4 10
f 18 1 4
f 37 15 35
f 35 31 37
f 22 34 44
f 44 9 22
f 33 34 22
f 22 9 33
f 13 9 44
f 29 1 14
f 1 18 14
f 14 7 29
f 31 35 36
f 27 9 8
f 40 32 27
f 27 36 40
f 2 13 44
f 44 31 2
f 31 26 2
f 9 13 16
f 16 8 9
f 11 26 31
f 11 36 27
f 31 36 11
f 3 35 15
f 27 8 19
f 19 11 27
f 42 3 15
f 42 15 37
f 37 32 42
f 40 3 42
f 32 40 42
f 10 38 14
f 14 38 37
f 37 7 14
f 14 18 10
f 3 40 36
f 3 36 35
f 19 16 13
f 13 2 19
f 19 2 26
f 8 16 19
f 26 11 19

