# https://github.com/mikedh/trimesh
v 0.04561902 -0.09480059 0.26824838
v 0.00482754 -0.09224329 0.28475612
v 0.04051098 -0.07545530 0.28119746
v 0.00102505 -0.08791468 0.28882406
v 0.04264105 -0.08842217 0.27523840
v 0.00014890 -0.07075876 0.27105159
v 0.04171577 -0.09117188 0.27493992
v 0.02710674 -0.09332653 0.28114183
v 0.04388075 -0.06358143 0.28174605
v 0.04379147 -0.08568003 0.27512677
v 0.00895325 -0.05123845 0.26534576
v 0.04372855 -0.09793750 0.26517878
v 0.04625667 -0.09834523 0.26377375
v 0.04549125 -0.09199967 0.27029836
v 0.03765365 -0.09090910 0.27841207
v 0.04735351 -0.05221978 0.28141577
v 0.04511800 -0.05573583 0.28270301
v 0.00586826 -0.09271487 0.28311939
v 0.00101407 -0.05151937 0.29185594
v 0.00106799 -0.05412542 0.29736225
v 0.04941849 -0.07342009 0.27335783
v 0.02393273 -0.05303713 0.29278589
v 0.03890573 -0.07556853 0.28240344
v 0.03337399 -0.09364000 0.28008069
v 0.00231666 -0.05598579 0.26701345
v 0.04468259 -0.08247452 0.27540373
v 0.00823606 -0.09209021 0.28531563
v 0.04680059 -0.05903634 0.28021156
v 0.04960023 -0.05530004 0.27345539
v 0.04948021 -0.09897923 0.25554850
v 0.00101402 -0.05152702 0.28857972
v 0.04774986 -0.09466077 0.26494525
v 0.02453599 -0.09294960 0.28243847
v 0.03673272 -0.09995903 0.25098023
v 0.03574690 -0.07261192 0.28517257
v 0.04264655 -0.06327411 0.28285442
v 0.04706699 -0.05268373 0.28158412
v 0.00023295 -0.06756834 0.29219018
v 0.04832738 -0.08975946 0.25009135
v 0.03566096 -0.06627661 0.28689128
v 0.03837591 -0.07507999 0.28287078
v 0.04276919 -0.08457561 0.27664254
v 0.04681361 -0.09972985 0.25062242
v 0.03867442 -0.09575020 0.27277204
v 0.04890395 -0.05907098 0.27801234
v 0.01833028 -0.05334673 0.29446804
v 0.00673214 -0.09236717 0.28433852
v 0.04925189 -0.08692542 0.26789930
v 0.04991423 -0.08990787 0.25765364
v 0.02441287 -0.09203376 0.28471715
v 0.04990456 -0.07480066 0.25473691
v 0.04121923 -0.06409239 0.28381004
v 0.03919879 -0.07859046 0.28129356
v 0.01282974 -0.09115366 0.28734670
v 0.04410329 -0.09521228 0.27002377
v 0.04991324 -0.07856662 0.25260360
v 0.01093637 -0.09392373 0.27893999
v 0.04300465 -0.05642692 0.28440952
v 0.04052513 -0.06596802 0.28386394
v 0.04949296 -0.07535085 0.27254280
v 0.03948919 -0.07230570 0.28289404
v 0.04229317 -0.09853822 0.26307429
v 0.00101397 -0.05106823 0.29071625
v 0.00540097 -0.09277503 0.28290611
v 0.01323012 -0.09831187 0.25027758
v 0.04844804 -0.09120154 0.26645987
v 0.04897625 -0.08922496 0.26699888
v 0.00009022 -0.09343988 0.28050798
v 0.04428270 -0.07569033 0.27806577
v 0.04265189 -0.07264028 0.28027653
v 0.04253702 -0.06524567 0.28241124
v 0.04865589 -0.09909143 0.25771591
v 0.04895044 -0.05075844 0.27559921
v 0.00412805 -0.05024284 0.29332904
v 0.04998927 -0.06407154 0.26609709
v 0.04167478 -0.09489854 0.27318714
v 0.01335101 -0.09113936 0.28729977
v 0.04193829 -0.09036753 0.27509405
v 0.01842029 -0.05114382 0.29367939
v 0.04992694 -0.06472890 0.27031078
v 0.04947784 -0.09567461 0.25045070
v 0.04795026 -0.06911088 0.27627041
v 0.00027575 -0.08672357 0.28939635
v 0.04823279 -0.09015534 0.26761198
v 0.04319969 -0.07298868 0.27972468
v 0.00496510 -0.09805667 0.25117324
v 0.01762614 -0.09189769 0.28603135
v 0.03574103 -0.05062934 0.28757432
v 0.00101456 -0.05370704 0.29707274
v 0.01842699 -0.05091178 0.26188317
v 0.04074933 -0.08344434 0.27864305
v 0.04101892 -0.09991688 0.25825669
v 0.04869053 -0.07893937 0.27222830
v 0.04112602 -0.08149998 0.27895514
v 0.00908318 -0.07300487 0.29977432
v 0.04770400 -0.09452469 0.26512465
v 0.00206561 -0.09222208 0.25135313
v 0.00014644 -0.08628072 0.28640519
v 0.00151670 -0.09777339 0.25216358
v 0.04361833 -0.06825762 0.28069710
v 0.04443546 -0.05008097 0.28070185
v 0.04449752 -0.05129979 0.28443926
v 0.04960063 -0.08208977 0.25081301
v 0.01783593 -0.05040390 0.29336116
v 0.04394565 -0.09636369 0.26947800
v 0.00002326 -0.09349574 0.26708361
v 0.04295408 -0.09989534 0.25834620
v 0.00747406 -0.09001846 0.28806295
v 0.00001166 -0.05981417 0.28765559
v 0.00539726 -0.05228762 0.26597010
v 0.00361421 -0.05190373 0.29754076
v 0.00367325 -0.09180239 0.28625224
v 0.04936977 -0.08977184 0.26591200
v 0.04976465 -0.05609681 0.27782597
v 0.04361010 -0.08734852 0.27465329
v 0.04236816 -0.09507510 0.27237057
v 0.04692965 -0.07039179 0.27701790
v 0.03578831 -0.09408742 0.27853944
v 0.04207697 -0.05696956 0.28499194
v 0.00044562 -0.06417696 0.26919155
v 0.04985382 -0.06397963 0.26368079
v 0.04675727 -0.08718914 0.27125041
v 0.03910299 -0.08534688 0.27928627
v 0.00324313 -0.09221453 0.28484166
v 0.04003368 -0.06668523 0.28403286
v 0.02508753 -0.09246637 0.28410833
v 0.03589742 -0.09995535 0.25613910
v 0.03397909 -0.09084745 0.28088266
v 0.03931216 -0.06144909 0.28588753
v 0.04940389 -0.09729522 0.25842676
v 0.04365628 -0.07483924 0.27882453
v 0.04745434 -0.09102899 0.26819379
v 0.03646078 -0.09416751 0.27812198
v 0.04976580 -0.06500896 0.26093675
v 0.03679667 -0.09512595 0.27493549
v 0.04859389 -0.06544084 0.27658891
v 0.03585971 -0.08918225 0.28039153
v 0.03068714 -0.05380831 0.25057646
v 0.04818109 -0.05711469 0.27933201
v 0.00051522 -0.09180792 0.25156345
v 0.03463691 -0.06892562 0.28681068
v 0.01229180 -0.07582865 0.29815778
v 0.04334076 -0.05825913 0.28363653
v 0.04530062 -0.06759872 0.27947570
v 0.00138192 -0.09208506 0.28524464
v 0.03322497 -0.07217135 0.25003532
v 0.04383144 -0.07405063 0.27890200
v 0.00341242 -0.05404219 0.26655598
f 138 103 39
f 95 102 22
f 95 111 20
f 138 73 134
f 46 111 95
f 95 22 46
f 63 31 109
f 138 134 51
f 51 134 75
f 75 134 121
f 142 102 95
f 16 73 102
f 68 99 127
f 99 86 127
f 127 86 34
f 106 99 68
f 106 68 109
f 88 22 102
f 104 88 101
f 102 73 101
f 101 88 102
f 109 68 98
f 98 38 109
f 89 20 111
f 109 38 89
f 89 38 20
f 56 103 138
f 138 51 56
f 56 51 75
f 102 142 129
f 73 16 114
f 114 16 139
f 102 144 17
f 139 16 37
f 37 16 102
f 102 17 37
f 138 39 146
f 34 86 65
f 65 146 39
f 138 146 65
f 140 86 99
f 99 106 140
f 68 127 92
f 34 107 92
f 92 127 34
f 34 65 43
f 43 65 39
f 43 107 34
f 49 56 75
f 22 88 79
f 79 88 104
f 79 46 22
f 111 46 79
f 79 104 111
f 111 63 19
f 19 89 111
f 19 63 109
f 109 89 19
f 35 142 137
f 137 142 128
f 142 87 50
f 73 114 29
f 29 134 73
f 29 121 134
f 75 121 29
f 29 114 75
f 28 144 139
f 139 37 28
f 76 116 78
f 138 140 110
f 110 140 148
f 110 11 138
f 63 11 110
f 31 63 110
f 110 148 31
f 97 65 86
f 86 140 97
f 138 65 97
f 97 140 138
f 109 31 120
f 64 92 107
f 107 33 64
f 2 124 64
f 64 124 68
f 90 73 138
f 138 11 90
f 90 101 73
f 74 11 63
f 74 63 111
f 74 90 11
f 111 104 74
f 104 101 74
f 101 90 74
f 81 43 39
f 30 43 81
f 81 39 103
f 103 56 81
f 81 49 30
f 56 49 81
f 75 114 80
f 80 49 75
f 114 49 80
f 107 43 72
f 72 43 30
f 107 72 13
f 40 129 142
f 40 35 129
f 8 135 118
f 118 33 8
f 8 33 135
f 122 78 116
f 136 21 114
f 76 78 7
f 15 78 42
f 129 35 41
f 41 35 137
f 102 129 119
f 119 58 102
f 148 140 25
f 140 120 25
f 31 148 25
f 25 120 31
f 6 140 106
f 6 120 140
f 6 106 109
f 109 120 6
f 108 142 95
f 27 33 87
f 27 124 2
f 68 92 57
f 57 64 68
f 92 64 57
f 30 49 130
f 49 113 130
f 130 72 30
f 130 113 32
f 32 13 130
f 130 13 72
f 107 13 12
f 118 135 44
f 44 13 118
f 44 12 13
f 44 33 107
f 135 33 44
f 105 116 76
f 55 116 105
f 105 13 32
f 142 35 141
f 141 40 142
f 35 40 141
f 142 50 24
f 24 33 118
f 24 128 142
f 118 128 24
f 83 98 68
f 38 98 83
f 20 38 83
f 95 20 83
f 48 113 60
f 114 21 60
f 60 49 114
f 60 113 49
f 26 69 42
f 144 69 117
f 117 26 21
f 69 26 117
f 139 144 117
f 59 119 129
f 45 114 139
f 45 136 114
f 133 7 78
f 78 15 133
f 133 15 137
f 76 7 133
f 133 105 76
f 137 128 133
f 133 128 118
f 118 13 133
f 13 105 133
f 123 15 42
f 42 91 123
f 137 15 123
f 123 53 137
f 123 91 53
f 53 91 94
f 42 69 94
f 94 91 42
f 2 64 47
f 47 27 2
f 18 64 33
f 33 27 18
f 142 108 54
f 32 113 66
f 14 122 116
f 14 132 122
f 14 116 55
f 55 105 14
f 107 12 62
f 62 44 107
f 12 44 62
f 1 105 32
f 132 14 1
f 1 14 105
f 33 24 126
f 126 24 50
f 87 33 126
f 126 50 87
f 68 124 145
f 145 83 68
f 21 26 93
f 93 26 122
f 93 60 21
f 93 122 48
f 48 60 93
f 78 122 5
f 122 115 5
f 42 78 5
f 5 115 42
f 10 26 42
f 42 115 10
f 122 26 10
f 10 115 122
f 21 136 82
f 82 117 21
f 70 100 59
f 77 87 142
f 142 54 77
f 77 54 87
f 84 66 113
f 48 122 84
f 122 132 84
f 96 1 32
f 132 1 96
f 96 84 132
f 32 66 96
f 66 84 96
f 83 145 4
f 4 108 95
f 95 83 4
f 124 27 112
f 112 145 124
f 112 27 87
f 87 54 112
f 112 54 108
f 108 4 112
f 112 4 145
f 58 36 143
f 143 144 102
f 102 58 143
f 52 36 58
f 59 100 52
f 129 41 23
f 137 53 23
f 23 41 137
f 131 94 69
f 131 70 94
f 147 69 144
f 144 100 147
f 94 70 3
f 3 70 59
f 67 113 48
f 48 84 67
f 67 84 113
f 9 100 144
f 144 143 9
f 36 52 71
f 71 52 100
f 125 59 129
f 100 70 85
f 85 147 100
f 23 3 61
f 61 3 59
f 59 125 61
f 129 23 61
f 61 125 129
f 28 37 17
f 28 17 144
f 27 47 18
f 18 47 64
f 82 45 139
f 139 117 82
f 136 45 82
f 119 59 52
f 58 119 52
f 3 23 53
f 53 94 3
f 71 143 36
f 100 9 71
f 71 9 143
f 85 131 69
f 69 147 85
f 70 131 85

