# https://github.com/mikedh/trimesh
v -0.05446755 0.07884329 0.26333347
v -0.05548934 0.06798817 0.27030098
v -0.05110730 0.07107931 0.27581571
v -0.05053904 0.06549990 0.25047512
v -0.05973815 0.06159374 0.26307359
v -0.05604480 0.07798570 0.26018696
v -0.05948360 0.07428248 0.25237166
v -0.05509720 0.06768423 0.27131528
v -0.05580847 0.07169457 0.26679892
v -0.06024334 0.06463186 0.25894835
v -0.05959957 0.05935859 0.25001702
v -0.06177806 0.06025202 0.25513774
v -0.05142821 0.05024509 0.25992376
v -0.05812542 0.07129225 0.26125036
v -0.06138729 0.05146098 0.26123693
v -0.05588437 0.07688823 0.25000567
v -0.05052392 0.09133006 0.25313688
v -0.05313264 0.06853936 0.27433203
v -0.05084364 0.05717891 0.28361392
v -0.05298807 0.08368816 0.25003600
v -0.05169777 0.06907863 0.27626385
v -0.05063067 0.05569183 0.26055940
v -0.05986130 0.07207709 0.25387144
v -0.05326846 0.07925100 0.26542487
v -0.05408007 0.08550223 0.25420702
v -0.06137836 0.05485968 0.25998853
v -0.05191470 0.05411157 0.28342989
v -0.05938249 0.05769537 0.26621981
v -0.05843648 0.07036354 0.26099562
v -0.05833313 0.07239474 0.25918603
v -0.05812731 0.06123834 0.26806891
v -0.05160578 0.08543653 0.26144726
v -0.05834252 0.07029575 0.26139100
v -0.06135825 0.06351330 0.25448039
v -0.05495329 0.05266138 0.27864233
v -0.05221790 0.05376635 0.28312719
v -0.05005756 0.06077712 0.27757325
v -0.06221744 0.05798146 0.25452062
v -0.05124441 0.07452908 0.27312145
v -0.05067360 0.05358048 0.26365846
v -0.05006512 0.06039194 0.25958545
v -0.05463184 0.05980613 0.27640891
v -0.05359508 0.08219861 0.26141340
v -0.05757727 0.08010824 0.25227895
v -0.05434187 0.08478327 0.25480702
v -0.06092081 0.06478368 0.25560133
v -0.06081812 0.05433348 0.26279963
v -0.05228728 0.07474984 0.27118722
v -0.06051228 0.07211680 0.25011704
v -0.05439528 0.08446328 0.25525758
v -0.06175306 0.06453196 0.25117221
v -0.05263080 0.07613507 0.26951495
v -0.05340139 0.08175588 0.26233945
v -0.05736278 0.07153204 0.26325309
v -0.05767608 0.07309895 0.26067636
v -0.05855091 0.06869824 0.26195499
v -0.05680661 0.05038372 0.27578317
v -0.05163428 0.07020463 0.27567017
v -0.05163811 0.06029480 0.25022147
v -0.06030345 0.06555123 0.25792808
v -0.05834714 0.07341211 0.25793102
v -0.05385638 0.06735757 0.27390205
v -0.06246149 0.05466315 0.25447828
v -0.05071000 0.07587984 0.27295822
v -0.06123876 0.05198379 0.26180773
v -0.05424050 0.05456173 0.27918646
v -0.05694514 0.07933782 0.25600059
v -0.05116265 0.08922760 0.25624209
v -0.06166067 0.06508775 0.25116265
v -0.05081552 0.08752562 0.25996174
v -0.05860319 0.05193945 0.27083660
v -0.06028819 0.06111212 0.26131459
v -0.05188614 0.08414708 0.26253652
v -0.05993334 0.05413057 0.26606426
v -0.05210894 0.06592996 0.27745223
v -0.05624135 0.06108235 0.27276425
v -0.05981636 0.05019619 0.26722385
v -0.05983147 0.05748223 0.25024012
v -0.06043914 0.06159086 0.26033875
v -0.06242568 0.05492315 0.25456859
v -0.05224138 0.07423479 0.27167084
v -0.05365889 0.05004448 0.28176173
v -0.05565002 0.07689816 0.26247262
v -0.05293966 0.05141028 0.25029175
v -0.05268292 0.08750115 0.25523074
v -0.06234405 0.05150463 0.25622819
v -0.05634667 0.07319060 0.26422332
v -0.05590398 0.07080095 0.26737318
v -0.05617081 0.05083680 0.27714267
v -0.05265761 0.06059623 0.27932223
v -0.05339043 0.07446909 0.26952229
v -0.05001242 0.07306725 0.26992021
v -0.05673552 0.06001904 0.27229305
v -0.06023329 0.05502301 0.26460973
v -0.05773119 0.07192751 0.26179823
v -0.05442752 0.06992774 0.27120125
v -0.05028154 0.09063674 0.25547873
v -0.05880828 0.05064729 0.27047122
v -0.05796887 0.07514054 0.25726963
v -0.05645601 0.05898804 0.27332688
v -0.05453155 0.06931672 0.27141384
v -0.05289193 0.05092747 0.25117219
v -0.05098648 0.05147178 0.28010909
v -0.05147543 0.08240427 0.26523613
v -0.05294040 0.08330158 0.26158891
v -0.06184969 0.05085255 0.25903410
v -0.05715787 0.06866408 0.26600245
v -0.05324049 0.07511874 0.26926911
v -0.05194498 0.08237711 0.26441940
v -0.05365751 0.07548666 0.26820144
v -0.05037690 0.08196073 0.26764239
v -0.05364085 0.06954738 0.27280962
v -0.05460715 0.06759527 0.27239116
v -0.05905198 0.06132510 0.26557198
v -0.06063337 0.06960177 0.25270297
v -0.06046750 0.07209820 0.25040146
v -0.06269053 0.05459661 0.25263026
f 20 11 16
f 17 4 20
f 20 44 17
f 92 41 97
f 97 4 17
f 97 41 4
f 92 97 111
f 78 84 117
f 78 11 84
f 37 41 92
f 92 111 37
f 19 103 37
f 37 64 19
f 37 111 64
f 84 4 13
f 4 41 13
f 13 103 82
f 59 4 84
f 59 20 4
f 84 11 59
f 11 20 59
f 49 20 16
f 44 20 49
f 16 11 49
f 117 84 86
f 27 103 19
f 82 103 27
f 103 13 40
f 41 37 40
f 40 37 103
f 84 13 102
f 102 13 106
f 102 86 84
f 106 86 102
f 77 13 82
f 106 13 77
f 7 23 44
f 44 49 7
f 115 49 69
f 69 49 51
f 51 78 117
f 11 78 51
f 51 49 11
f 117 38 51
f 51 115 69
f 63 38 117
f 117 86 63
f 90 27 19
f 17 44 25
f 25 85 17
f 70 111 97
f 95 14 54
f 22 13 41
f 41 40 22
f 22 40 13
f 116 115 23
f 49 115 116
f 23 115 60
f 38 63 80
f 54 107 88
f 2 93 76
f 107 93 2
f 96 88 2
f 2 88 107
f 62 42 90
f 67 6 43
f 44 23 67
f 23 99 67
f 99 14 67
f 68 70 97
f 68 97 17
f 17 85 68
f 61 99 23
f 29 14 23
f 23 60 29
f 10 56 29
f 29 60 10
f 83 95 54
f 83 6 95
f 26 47 38
f 47 26 65
f 65 26 38
f 38 47 72
f 74 98 71
f 77 98 74
f 74 65 77
f 47 65 74
f 12 51 38
f 38 72 12
f 82 27 36
f 36 89 82
f 27 90 36
f 90 42 36
f 89 42 100
f 100 93 89
f 100 42 76
f 76 93 100
f 71 98 57
f 57 93 71
f 89 93 57
f 82 89 57
f 57 77 82
f 57 98 77
f 39 58 64
f 19 64 3
f 64 58 3
f 3 21 19
f 3 58 21
f 75 62 90
f 21 62 75
f 75 90 19
f 19 21 75
f 96 62 112
f 58 39 112
f 21 58 18
f 18 62 21
f 58 112 18
f 18 112 62
f 76 42 113
f 42 62 113
f 44 67 50
f 95 6 55
f 6 67 55
f 14 95 55
f 55 67 14
f 110 88 96
f 64 111 52
f 111 24 52
f 52 110 108
f 24 110 52
f 111 70 32
f 32 73 111
f 32 68 85
f 70 68 32
f 104 24 111
f 111 73 104
f 73 32 105
f 105 104 73
f 105 32 85
f 85 50 105
f 105 67 43
f 105 50 67
f 23 14 30
f 30 61 23
f 33 29 56
f 14 29 33
f 33 56 107
f 33 107 54
f 54 14 33
f 54 88 87
f 87 83 54
f 1 110 24
f 83 110 1
f 1 105 43
f 43 6 1
f 6 83 1
f 106 77 15
f 77 65 15
f 15 86 106
f 15 63 86
f 15 80 63
f 38 80 15
f 15 65 38
f 107 56 114
f 94 72 47
f 47 74 94
f 46 60 115
f 10 12 79
f 79 72 10
f 79 12 72
f 66 36 42
f 96 112 81
f 81 112 39
f 101 62 96
f 101 113 62
f 96 2 101
f 8 2 76
f 76 113 8
f 85 25 45
f 45 50 85
f 45 25 44
f 44 50 45
f 88 110 9
f 9 110 83
f 9 87 88
f 83 87 9
f 24 104 109
f 109 105 24
f 104 105 109
f 24 105 53
f 53 1 24
f 105 1 53
f 31 93 107
f 107 114 31
f 71 93 31
f 31 114 71
f 28 74 71
f 71 114 28
f 28 94 74
f 114 94 28
f 72 94 5
f 5 94 114
f 10 72 5
f 5 56 10
f 5 114 56
f 12 46 34
f 34 46 115
f 115 51 34
f 51 12 34
f 35 42 89
f 35 66 42
f 89 36 35
f 36 66 35
f 96 81 91
f 91 110 96
f 108 110 91
f 91 52 108
f 91 81 52
f 64 52 48
f 52 81 48
f 116 7 49
f 23 7 116
f 99 61 30
f 30 14 99
f 46 12 10
f 10 60 46
f 113 101 8
f 8 101 2
f 48 81 39
f 48 39 64

