# https://github.com/mikedh/trimesh
v -0.04405856 -0.00437268 0.04941318
v -0.00185842 -0.04915740 0.01487461
v -0.00941116 -0.00004652 0.04163172
v -0.04119004 -0.04882927 0.04555560
v -0.00072126 -0.04890131 0.01476553
v -0.04615833 -0.04987451 0.03894568
v -0.04919805 -0.01968043 0.00077879
v -0.04712319 -0.02780356 0.04950675
v -0.04364163 -0.04937036 0.04496028
v -0.04993879 -0.01224272 0.00650441
v -0.04389917 -0.00072485 0.04738713
v -0.04672079 -0.04855306 0.04614553
v -0.04394016 -0.00117887 0.04793449
v -0.00388766 -0.00201306 0.04346001
v -0.04705890 -0.00855963 0.04936112
v -0.00591278 -0.01700114 0.00075442
v -0.00867918 -0.00061796 0.04346011
v -0.04866643 -0.01052305 0.00132971
v -0.04959622 -0.04791498 0.00198640
v -0.04413977 -0.02587741 0.04976649
v -0.04146311 -0.00006346 0.01706726
v -0.04411618 -0.04643465 0.04952099
v -0.01027420 -0.04985134 0.01875518
v -0.00225977 -0.00468698 0.04971365
v -0.00089415 -0.00010247 0.01687879
v -0.00552623 -0.04905746 0.01920035
v -0.04868367 -0.00471689 0.00235120
v -0.04696054 -0.04478585 0.04731902
v -0.04663415 -0.00066342 0.04421672
v -0.04879259 -0.04914550 0.00543710
v -0.04119080 -0.04456398 0.04887211
v -0.04998772 -0.04789796 0.00800414
v -0.00024724 -0.00408667 0.04461882
v -0.00008656 -0.01066717 0.03176576
v -0.04930202 -0.04855059 0.00208412
v -0.01465647 -0.04998841 0.01634936
v -0.00493426 -0.01268719 0.00005094
v -0.00006244 -0.00645424 0.03163091
v -0.00082008 -0.00072107 0.03580000
v -0.00287547 -0.01700064 0.00451043
v -0.04948506 -0.00083616 0.00637030
v -0.04711969 -0.04061869 0.04942968
v -0.01413198 -0.04979344 0.01514489
v -0.00016027 -0.01120022 0.01000747
v -0.04997654 -0.03080812 0.00107183
v -0.00003956 -0.03964362 0.01694146
v -0.03995142 -0.04996350 0.01277576
v -0.04119359 -0.02986503 0.04979039
v -0.04119001 -0.04903963 0.04485537
v -0.04119664 -0.01382228 0.04999680
v -0.00061245 -0.04828295 0.01557425
v -0.04417829 -0.04980673 0.01454582
v -0.00037928 -0.03618488 0.01257565
v -0.04675663 -0.00197202 0.04563536
f 32 35 30
f 19 35 32
f 37 35 19
f 37 41 25
f 25 44 37
f 3 39 25
f 32 15 10
f 10 15 41
f 16 35 37
f 8 15 32
f 32 42 8
f 29 11 3
f 53 44 46
f 22 42 12
f 12 9 22
f 22 9 4
f 43 30 35
f 27 41 37
f 37 18 27
f 7 18 37
f 7 27 18
f 44 25 38
f 46 44 38
f 14 24 39
f 39 24 33
f 33 25 39
f 33 38 25
f 41 15 54
f 54 29 41
f 21 29 3
f 3 25 21
f 41 29 21
f 21 25 41
f 15 1 13
f 13 54 15
f 13 24 11
f 13 1 24
f 11 29 13
f 29 54 13
f 24 1 50
f 15 8 50
f 50 1 15
f 37 44 40
f 40 53 37
f 44 53 40
f 28 42 32
f 32 12 28
f 28 12 42
f 9 12 6
f 32 30 6
f 6 12 32
f 31 24 22
f 22 4 31
f 24 31 26
f 26 31 4
f 17 39 3
f 17 14 39
f 24 14 17
f 3 11 17
f 11 24 17
f 46 38 34
f 34 33 46
f 38 33 34
f 22 24 48
f 48 50 22
f 24 50 48
f 20 42 22
f 22 50 20
f 20 8 42
f 20 50 8
f 6 47 36
f 30 43 36
f 36 47 30
f 24 26 51
f 46 33 51
f 51 33 24
f 49 4 9
f 49 26 4
f 45 10 41
f 45 7 37
f 41 27 45
f 27 7 45
f 45 19 32
f 32 10 45
f 37 19 45
f 52 6 30
f 30 47 52
f 52 47 6
f 23 49 9
f 26 49 23
f 9 6 23
f 6 36 23
f 26 23 2
f 2 43 35
f 2 36 43
f 2 23 36
f 5 51 26
f 26 2 5
f 5 2 35
f 37 53 5
f 5 53 46
f 46 51 5
f 35 16 5
f 5 16 37

