# https://github.com/mikedh/trimesh
v 0.06882888 0.04578237 0.24494737
v 0.07043106 0.00496190 0.24769381
v 0.07855448 0.03454972 0.20974330
v 0.07078332 0.04989909 0.22235195
v 0.07603963 0.00545466 0.22944578
v 0.07152174 0.03491077 0.24050199
v 0.07590370 0.01180113 0.22975345
v 0.08054592 0.02347676 0.20164767
v 0.07656346 0.01760480 0.22652268
v 0.05777484 0.03129292 0.24971764
v 0.07854961 0.03273897 0.21088519
v 0.05038918 0.00820774 0.22787968
v 0.07687036 0.03970962 0.21599747
v 0.07347113 0.00419006 0.23868831
v 0.08116239 0.00246836 0.20244923
v 0.08017056 0.00491162 0.20946094
v 0.07180580 0.03019876 0.24076282
v 0.06808193 0.03950061 0.24886170
v 0.07763679 0.00454415 0.22276102
v 0.07735115 0.04809540 0.20275390
v 0.07269807 0.04949141 0.21266271
v 0.05036994 0.01935296 0.24180644
v 0.05219521 0.00584561 0.22693087
v 0.06941374 0.03994632 0.24532662
v 0.05794678 0.04828130 0.24469862
v 0.07776326 0.00417450 0.22224100
v 0.07608957 0.04633311 0.21465539
v 0.07432096 0.04844839 0.20135953
v 0.07863437 0.03500260 0.20881907
v 0.06446744 0.04866981 0.24704073
v 0.07796323 0.04382190 0.20423794
v 0.07326358 0.03790890 0.23357433
v 0.07303825 0.02097949 0.23843662
v 0.06658823 0.00407452 0.24944187
v 0.06629472 0.04964449 0.20568841
v 0.07802499 0.00068220 0.22128793
v 0.07714752 0.04459812 0.20994062
v 0.07951976 0.01768611 0.21216192
v 0.07858210 0.01874062 0.21643391
v 0.06998774 0.00629993 0.24873985
v 0.07972059 0.02966782 0.20398005
v 0.06942398 0.04036588 0.24516617
v 0.06495862 0.03534413 0.24975787
v 0.07494873 0.01969798 0.23215317
v 0.05056770 0.01952483 0.24761983
v 0.05190092 0.01922964 0.24865894
v 0.07058377 0.03764103 0.24275537
v 0.07926445 0.03880009 0.20019377
v 0.05099414 0.04612361 0.20053028
v 0.07522785 0.04762505 0.21798934
v 0.07994264 0.02915424 0.20256108
v 0.06999153 0.03742720 0.24457875
v 0.07819968 0.00183554 0.20187290
v 0.05873129 0.00049799 0.22612923
v 0.07837376 0.00240968 0.21948003
v 0.05004623 0.04974240 0.20165694
v 0.07281968 0.03426871 0.23629401
v 0.06963983 0.02426829 0.24807208
v 0.06671330 0.04917045 0.20311046
v 0.07583472 0.00931889 0.23014724
v 0.07731261 0.00747065 0.22400358
v 0.06720260 0.00063246 0.24801219
v 0.08131420 0.01004135 0.20027936
v 0.07113887 0.04181857 0.23928330
v 0.07336012 0.00301502 0.23914219
v 0.07976394 0.02212674 0.20830564
v 0.06215283 0.00017188 0.22608184
v 0.07649087 0.01484306 0.22715521
v 0.06846918 0.03740653 0.24853088
v 0.07862112 0.03622386 0.20801687
v 0.07884615 0.00560752 0.21673291
v 0.07795704 0.03485440 0.21313806
v 0.07568273 0.01447217 0.23026030
v 0.07142380 0.00361543 0.24529072
v 0.05099386 0.04762278 0.20078392
v 0.06789286 0.04283820 0.24827443
v 0.07993709 0.00229426 0.21115557
v 0.06841863 0.03420801 0.24926831
v 0.07401812 0.04755939 0.22444277
v 0.07500138 0.04814951 0.21867157
v 0.07321771 0.02061906 0.23787458
v 0.05030574 0.01148552 0.22981425
v 0.08105572 0.01602169 0.20126877
v 0.07274188 0.04074664 0.23405491
v 0.07412251 0.04621860 0.22517429
v 0.07523622 0.03107301 0.22823493
v 0.07139194 0.01548681 0.24447330
v 0.07098792 0.00320192 0.20334405
v 0.07833596 0.04391238 0.20090634
v 0.06974864 0.04521558 0.24240529
v 0.07557473 0.03527461 0.22497419
v 0.05018683 0.01480340 0.20165627
v 0.07344426 0.00254446 0.23887562
v 0.06879145 0.00012333 0.21642451
v 0.07299385 0.00001099 0.24042521
v 0.08116171 0.00501197 0.20213741
v 0.07516059 0.02024136 0.23127678
v 0.07504055 0.02802463 0.22973157
v 0.07748554 0.04795892 0.20185822
v 0.07187185 0.01295171 0.24321986
v 0.05637195 0.04687845 0.24936842
v 0.05099359 0.04904053 0.20126533
v 0.07525296 0.03781676 0.22538411
v 0.07400689 0.04375570 0.22759265
v 0.07818431 0.04416314 0.20184048
v 0.06552886 0.04963177 0.24393623
v 0.07837859 0.04285941 0.20208340
v 0.08038082 0.00403937 0.20822450
v 0.08072261 0.01902883 0.20304531
v 0.07020616 0.04996767 0.22561974
v 0.07176547 0.01483059 0.24336472
v 0.08111677 0.00088263 0.20301395
v 0.06825530 0.04494011 0.24667813
v 0.08103062 0.00780443 0.20277326
v 0.07828587 0.04280243 0.20296265
v 0.06962796 0.00004424 0.24124778
v 0.05099473 0.04296919 0.20008338
v 0.07042137 0.02824733 0.24530643
v 0.07678472 0.00070952 0.22650731
v 0.07780895 0.00007676 0.20505679
v 0.07611009 0.04088531 0.21901124
v 0.07859903 0.00280257 0.21826845
v 0.07957862 0.00450661 0.21290223
v 0.07579340 0.03876676 0.22203403
v 0.07154929 0.04895416 0.23405374
v 0.06993694 0.04778055 0.24049966
v 0.07991696 0.00370279 0.21115537
v 0.05659520 0.04316556 0.24987332
v 0.06989795 0.02116891 0.24799073
v 0.07448784 0.03908716 0.22835245
v 0.05844854 0.02307694 0.24960286
v 0.07015948 0.04592597 0.24067019
v 0.07737722 0.04332698 0.20968747
v 0.07419241 0.04141875 0.22824946
v 0.07076453 0.02159826 0.24558866
v 0.07277596 0.04693451 0.23069458
v 0.08002351 0.02670772 0.20357218
v 0.07619772 0.04835770 0.21191826
v 0.07108283 0.03975828 0.24032821
v 0.07330021 0.00096111 0.23938996
v 0.08046481 0.01739784 0.20549890
v 0.05099972 0.01679262 0.20043001
v 0.07149697 0.02979072 0.24182208
v 0.06881553 0.00018821 0.24375981
v 0.07804426 0.03416552 0.21298744
v 0.08005481 0.03092944 0.20032872
v 0.07291540 0.04195689 0.23279703
v 0.07141948 0.00443471 0.20022496
v 0.06991336 0.04001161 0.24397206
v 0.07706943 0.03576470 0.21725475
v 0.07910306 0.03536727 0.20474484
v 0.07956065 0.00058314 0.21329860
v 0.07520063 0.00634297 0.23257430
v 0.07523572 0.03330267 0.22741303
v 0.08041675 0.01994390 0.20476839
v 0.07103048 0.03773548 0.24130997
v 0.07125705 0.02370096 0.24403821
v 0.07876415 0.02169954 0.21439821
v 0.08055994 0.00536002 0.20670945
v 0.07839808 0.03799219 0.20816834
v 0.07329809 0.04410569 0.23029178
v 0.07018087 0.03841973 0.24375589
f 56 101 25
f 56 110 35
f 45 101 56
f 56 35 59
f 22 45 56
f 106 125 110
f 106 110 56
f 56 25 106
f 106 25 101
f 117 92 56
f 117 142 92
f 4 35 110
f 4 21 35
f 35 21 28
f 28 59 35
f 56 59 28
f 28 102 56
f 95 120 152
f 120 112 152
f 92 142 148
f 142 117 148
f 92 54 23
f 62 23 54
f 101 76 30
f 30 106 101
f 21 4 138
f 110 125 138
f 138 4 110
f 99 28 20
f 20 28 21
f 20 138 99
f 21 138 20
f 102 28 75
f 56 102 75
f 53 112 120
f 120 148 53
f 53 148 63
f 120 54 88
f 88 148 120
f 88 54 92
f 92 148 88
f 94 54 120
f 94 67 54
f 94 120 95
f 12 62 45
f 23 62 12
f 92 23 12
f 116 94 95
f 67 94 116
f 117 28 48
f 48 146 63
f 48 148 117
f 63 148 48
f 113 30 76
f 49 28 117
f 49 75 28
f 49 117 56
f 56 75 49
f 95 152 36
f 36 119 95
f 77 152 112
f 15 53 63
f 112 53 15
f 63 96 15
f 15 96 112
f 45 22 82
f 82 12 45
f 92 12 82
f 56 92 82
f 82 22 56
f 45 62 46
f 62 34 46
f 34 131 46
f 101 45 46
f 40 34 62
f 95 62 144
f 144 116 95
f 144 62 54
f 54 67 144
f 67 116 144
f 63 146 83
f 106 30 126
f 125 106 126
f 126 136 125
f 160 13 72
f 57 32 156
f 161 32 130
f 101 46 128
f 128 46 131
f 34 43 128
f 78 43 34
f 34 40 78
f 100 87 74
f 141 83 109
f 108 77 112
f 30 113 1
f 1 126 30
f 90 126 1
f 132 126 90
f 136 126 132
f 132 161 136
f 72 13 150
f 13 103 150
f 150 145 72
f 124 103 13
f 99 138 37
f 37 105 99
f 48 160 70
f 80 138 125
f 57 156 6
f 64 132 90
f 161 132 64
f 55 36 152
f 141 109 38
f 16 108 38
f 38 108 141
f 111 87 100
f 33 100 81
f 33 111 100
f 95 119 140
f 10 131 34
f 34 128 10
f 10 128 131
f 43 78 18
f 18 128 43
f 18 76 101
f 101 128 18
f 129 78 40
f 40 74 129
f 129 74 87
f 2 62 95
f 95 74 2
f 2 40 62
f 2 74 40
f 141 108 159
f 112 96 159
f 159 108 112
f 13 160 133
f 133 37 13
f 13 37 27
f 27 37 138
f 138 80 27
f 145 38 11
f 72 145 11
f 146 48 151
f 48 70 151
f 136 161 104
f 104 85 136
f 136 85 79
f 125 136 79
f 79 80 125
f 90 1 149
f 149 1 42
f 52 162 149
f 42 24 149
f 149 24 52
f 156 162 47
f 47 6 156
f 47 162 52
f 139 156 32
f 32 64 139
f 139 64 90
f 32 161 84
f 84 64 32
f 123 38 71
f 127 38 123
f 16 38 127
f 127 108 16
f 77 108 127
f 81 100 73
f 100 14 73
f 130 32 86
f 86 32 57
f 111 33 157
f 87 111 157
f 52 118 157
f 157 47 52
f 65 74 95
f 100 74 65
f 65 14 100
f 69 18 78
f 69 118 52
f 24 18 69
f 52 24 69
f 8 51 41
f 146 51 8
f 8 83 146
f 8 109 83
f 114 96 63
f 114 159 96
f 89 107 48
f 99 105 89
f 89 28 99
f 89 48 28
f 115 37 48
f 48 107 115
f 72 11 3
f 3 160 72
f 3 70 160
f 66 11 38
f 13 85 121
f 85 104 121
f 121 124 13
f 134 161 130
f 134 104 161
f 85 27 50
f 50 79 85
f 50 27 80
f 80 79 50
f 161 64 147
f 147 84 161
f 64 84 147
f 122 38 55
f 122 71 38
f 122 55 152
f 9 73 68
f 153 65 93
f 14 65 153
f 93 140 153
f 36 55 26
f 26 68 61
f 9 68 26
f 154 103 130
f 130 86 154
f 39 9 38
f 39 86 9
f 39 154 86
f 44 73 9
f 81 73 44
f 44 33 81
f 44 157 33
f 47 157 143
f 87 157 135
f 135 129 87
f 135 157 129
f 118 69 58
f 129 157 58
f 58 157 118
f 78 129 58
f 58 69 78
f 37 115 31
f 105 37 31
f 70 3 29
f 29 3 41
f 137 8 41
f 41 3 137
f 155 38 109
f 155 66 38
f 7 73 14
f 14 153 7
f 7 68 73
f 36 26 19
f 19 26 61
f 91 150 103
f 103 154 91
f 9 86 97
f 97 44 9
f 57 44 97
f 17 44 57
f 157 44 17
f 17 143 157
f 57 6 17
f 5 140 119
f 5 153 140
f 150 91 158
f 145 150 158
f 158 38 145
f 158 39 38
f 154 39 158
f 158 91 154
f 98 86 57
f 57 97 98
f 98 97 86
f 60 7 153
f 153 5 60
f 18 1 113
f 18 113 76
f 42 1 18
f 18 24 42
f 48 37 133
f 133 160 48
f 27 85 13
f 139 162 156
f 90 149 139
f 139 149 162
f 65 140 93
f 95 140 65
f 114 83 141
f 63 83 114
f 141 159 114
f 103 124 134
f 130 103 134
f 124 121 134
f 134 121 104
f 77 127 122
f 152 77 122
f 123 71 122
f 122 127 123
f 55 38 26
f 38 9 26
f 31 89 105
f 107 89 31
f 31 115 107
f 29 51 146
f 146 151 29
f 29 151 70
f 41 51 29
f 155 3 11
f 109 8 155
f 8 137 155
f 11 66 155
f 155 137 3
f 47 143 17
f 6 47 17
f 36 19 60
f 119 36 60
f 61 68 60
f 68 7 60
f 60 19 61
f 60 5 119

