# https://github.com/mikedh/trimesh
v 0.00869155 -0.01119833 -0.00062111
v 0.00312941 -0.01575691 -0.00758519
v 0.00598307 -0.01119882 -0.00233086
v 0.00116602 -0.01295053 -0.00890866
v 0.00216845 -0.01320082 -0.00449394
v 0.00229290 -0.01136315 -0.00861207
v 0.00540324 -0.01341660 -0.00711888
v 0.00475190 -0.01474133 -0.00134250
v 0.00685193 -0.01627444 -0.00340809
v 0.00450475 -0.01699909 -0.00279288
v 0.00532575 -0.01699898 -0.00056087
v 0.00095109 -0.01699972 -0.00506955
v 0.00637941 -0.01119875 -0.00170566
v 0.00602650 -0.01409852 -0.00665188
v 0.00873527 -0.01508741 -0.00124186
v 0.00171496 -0.01119952 -0.00822918
v 0.00540186 -0.01302859 -0.00711972
v 0.00720253 -0.01406747 -0.00529471
v 0.00422140 -0.01699912 -0.00399923
f 15 1 11
f 12 4 2
f 12 2 19
f 16 4 12
f 12 5 16
f 8 11 1
f 12 11 8
f 8 5 12
f 10 11 12
f 12 19 10
f 10 19 11
f 18 1 15
f 13 16 5
f 13 8 1
f 5 8 13
f 1 18 17
f 17 18 14
f 2 14 9
f 14 18 9
f 9 19 2
f 9 18 15
f 15 11 9
f 11 19 9
f 1 16 3
f 3 13 1
f 16 13 3
f 6 16 1
f 1 17 6
f 4 16 6
f 7 14 2
f 7 17 14
f 7 2 4
f 4 6 7
f 7 6 17

