# https://github.com/mikedh/trimesh
v 0.07092437 -0.04036083 0.09881928
v 0.06834480 -0.02678476 0.05291384
v 0.05100175 -0.00154246 0.09989417
v 0.06800317 -0.02745169 0.05048084
v 0.06363883 -0.00097507 0.09892805
v 0.06858120 -0.02172052 0.05154545
v 0.05100853 -0.03714174 0.09968954
v 0.05406722 -0.04996892 0.07264174
v 0.07053262 -0.01897758 0.07002146
v 0.06931095 -0.02502966 0.06083621
v 0.06938965 -0.02305182 0.06017354
v 0.06724433 -0.04620315 0.06532346
v 0.05010877 -0.04142133 0.07865521
v 0.06928141 -0.00354817 0.05055139
v 0.05685701 -0.00003514 0.05613663
v 0.05101070 -0.04932362 0.08922760
v 0.06849428 -0.02169406 0.05074967
v 0.06972841 -0.00913712 0.05573986
v 0.06912701 -0.02817828 0.06216493
v 0.06777751 -0.04745338 0.07350498
v 0.05131752 -0.00066510 0.06988062
v 0.06880316 -0.01584761 0.05067989
v 0.06901673 -0.02330827 0.05631250
v 0.06926930 -0.04166599 0.08090887
v 0.07057302 -0.00067754 0.06371477
v 0.07233199 -0.02877435 0.09930478
v 0.05019116 -0.00153966 0.08065597
v 0.05230625 -0.04831359 0.05006709
v 0.05229396 -0.04909369 0.05132353
v 0.06830440 -0.02593440 0.05173704
v 0.06366436 -0.00158071 0.09933140
v 0.07027299 -0.04546026 0.09995270
v 0.07019454 -0.04435849 0.09670613
v 0.05101044 -0.04834837 0.08427978
v 0.06693570 -0.04814726 0.06554736
v 0.07344169 -0.00027477 0.09620684
v 0.06985889 -0.02727296 0.06935317
v 0.07045622 -0.01573940 0.06719325
v 0.05924652 -0.04969608 0.09912566
v 0.06967713 -0.00742342 0.05482194
v 0.06968678 -0.00160899 0.05413544
v 0.06851276 -0.02000584 0.05009265
v 0.06909784 -0.04924853 0.09454083
v 0.06363366 -0.00677090 0.09998210
v 0.06880468 -0.03707863 0.06876573
v 0.06253582 -0.04773161 0.05018133
v 0.06785624 -0.00027250 0.06698988
v 0.07277799 -0.00981638 0.09052246
v 0.07352895 -0.00250815 0.09759576
v 0.07085247 -0.01525385 0.07132464
v 0.06921485 -0.01681807 0.05486101
v 0.05101076 -0.04930785 0.09379634
v 0.07339879 -0.01197414 0.09850534
v 0.06930389 -0.00093858 0.05041539
v 0.07362494 -0.00712356 0.09959265
v 0.05018140 -0.02774867 0.08065548
v 0.07140452 -0.01119803 0.07521938
v 0.07038443 -0.01064213 0.06342181
v 0.06748563 -0.03961656 0.05768158
v 0.06942437 -0.01412890 0.05543639
v 0.06858913 -0.04419920 0.07713155
v 0.06615478 -0.04472278 0.05176520
v 0.07051836 -0.00999444 0.06469613
v 0.05101077 -0.04915895 0.09614370
v 0.06722212 -0.04274500 0.05948190
v 0.06977328 -0.02495331 0.06590168
v 0.07338964 -0.01394678 0.09994199
v 0.07251291 -0.02694599 0.09906618
v 0.06875006 -0.02860794 0.05862697
v 0.05019104 -0.00905735 0.07865582
v 0.05923328 -0.00166710 0.05019943
v 0.06893958 -0.03527674 0.06779860
v 0.06572756 -0.04653531 0.05033149
v 0.06934167 -0.04068375 0.08025772
v 0.05100991 -0.04445053 0.09908574
v 0.06940187 -0.02910818 0.06622230
v 0.06845703 -0.02913159 0.05620693
v 0.06945527 -0.04882775 0.09831209
v 0.07005757 -0.00437113 0.05847860
v 0.06760331 -0.04477237 0.06690968
v 0.05290185 -0.04966830 0.05833973
v 0.07009067 -0.02495441 0.06947272
v 0.07251947 -0.00822561 0.08715697
v 0.07028003 -0.02134481 0.06869928
v 0.06889860 -0.03571168 0.06785282
v 0.06555549 -0.04997648 0.05419048
v 0.06837395 -0.02477650 0.05143888
v 0.07047838 -0.02104671 0.07081265
v 0.07325330 -0.01121346 0.09638446
v 0.06850447 -0.02499523 0.05270193
v 0.06904773 -0.04298383 0.08044168
v 0.06892622 -0.03696280 0.06996435
v 0.06672167 -0.04046803 0.05127273
v 0.06895311 -0.02689154 0.05884893
v 0.06991273 -0.00687203 0.05721754
v 0.06896903 -0.02529189 0.05731074
v 0.06649082 -0.00045559 0.05231447
v 0.06311309 -0.00045915 0.09281827
v 0.05628778 -0.00078771 0.05015655
v 0.06789519 -0.04892958 0.07808709
v 0.07356782 -0.00594871 0.09865063
v 0.06741458 -0.04255203 0.06129415
v 0.06732111 -0.03921094 0.05560120
v 0.07028234 -0.04237263 0.09382965
f 99 21 15
f 28 21 99
f 3 21 27
f 46 73 86
f 55 53 89
f 75 7 13
f 56 27 13
f 3 27 56
f 13 7 56
f 56 7 3
f 70 28 13
f 13 27 70
f 70 21 28
f 70 27 21
f 8 81 86
f 16 8 52
f 81 8 16
f 16 52 13
f 13 34 16
f 97 99 15
f 54 99 97
f 98 36 15
f 15 21 98
f 3 36 98
f 98 21 3
f 49 36 31
f 31 3 55
f 55 49 31
f 71 99 54
f 67 53 55
f 68 53 67
f 54 97 25
f 55 3 44
f 44 67 55
f 13 52 64
f 64 75 13
f 7 75 39
f 75 64 39
f 39 64 52
f 52 8 39
f 39 8 86
f 29 16 34
f 13 28 29
f 29 34 13
f 81 16 29
f 86 81 29
f 29 46 86
f 28 46 29
f 15 36 47
f 47 97 15
f 36 25 47
f 47 25 97
f 5 36 3
f 3 31 5
f 5 31 36
f 32 39 78
f 67 44 32
f 7 39 32
f 3 7 32
f 32 44 3
f 50 89 53
f 88 53 68
f 68 84 88
f 88 84 53
f 101 49 55
f 55 83 101
f 30 87 90
f 4 87 30
f 1 32 104
f 43 32 78
f 43 39 86
f 78 39 43
f 53 84 9
f 9 50 53
f 4 30 93
f 93 62 73
f 73 4 93
f 73 62 65
f 62 93 65
f 65 93 59
f 92 24 59
f 26 1 104
f 32 1 26
f 68 67 26
f 67 32 26
f 100 43 86
f 32 43 100
f 100 20 32
f 104 32 33
f 33 20 104
f 32 20 33
f 91 24 104
f 89 50 57
f 50 58 57
f 49 101 95
f 95 36 49
f 95 25 36
f 50 9 38
f 38 58 50
f 38 9 84
f 86 73 12
f 73 65 12
f 68 72 37
f 104 24 74
f 74 92 104
f 24 92 74
f 85 72 68
f 68 26 85
f 104 92 85
f 85 26 104
f 89 57 63
f 63 57 58
f 63 101 83
f 63 95 101
f 54 25 41
f 58 38 23
f 23 38 84
f 23 96 90
f 86 12 35
f 35 12 20
f 35 100 86
f 20 100 35
f 80 12 65
f 20 12 80
f 72 69 94
f 69 77 94
f 94 77 96
f 2 93 30
f 2 77 93
f 2 30 90
f 90 96 2
f 96 77 2
f 103 77 59
f 59 93 103
f 93 77 103
f 18 63 58
f 95 63 18
f 58 23 18
f 68 37 82
f 82 84 68
f 59 85 45
f 45 92 59
f 45 85 92
f 89 63 48
f 48 63 83
f 48 83 55
f 25 95 79
f 79 41 25
f 95 41 79
f 11 23 84
f 96 23 11
f 51 23 6
f 102 80 65
f 59 24 102
f 102 65 59
f 76 37 72
f 60 23 51
f 60 18 23
f 40 41 95
f 95 18 40
f 18 14 40
f 66 82 37
f 37 76 66
f 84 82 66
f 80 102 61
f 24 91 61
f 61 102 24
f 20 80 61
f 61 91 104
f 104 20 61
f 72 94 19
f 19 76 72
f 22 14 18
f 96 11 10
f 10 11 84
f 84 66 10
f 42 87 4
f 42 4 73
f 54 14 42
f 14 22 42
f 73 46 42
f 42 71 54
f 99 71 42
f 28 99 42
f 42 46 28
f 87 42 17
f 90 87 17
f 17 23 90
f 17 6 23
f 85 69 72
f 59 77 85
f 85 77 69
f 55 89 48
f 40 14 54
f 54 41 40
f 10 19 94
f 10 94 96
f 10 66 76
f 76 19 10
f 17 60 51
f 51 6 17
f 18 60 17
f 17 22 18
f 17 42 22

