# https://github.com/mikedh/trimesh
v -0.00641562 0.00920190 0.44040756
v -0.00075505 0.01249467 0.44233538
v -0.00993686 0.00370894 0.43941443
v -0.01921804 0.00770866 0.44679302
v -0.01495568 0.01517579 0.44912119
v -0.02232679 0.00428997 0.44951371
v -0.01584519 0.00233373 0.44206973
v -0.01612463 0.00022987 0.44212229
v -0.01019327 0.00703339 0.44042589
v -0.02047359 0.00049235 0.44608692
v -0.01362256 0.01245402 0.44506380
v -0.02242563 0.00371106 0.44941741
v -0.00698450 0.00513400 0.43928741
v -0.00299467 0.01477145 0.44393639
v -0.01153199 0.00074850 0.43968332
v -0.01557025 0.00366557 0.44212173
v -0.00660894 0.01535592 0.44473581
v -0.00129978 0.01435517 0.44375196
v -0.00722955 0.01142640 0.44176998
v -0.01053160 0.01267620 0.44365589
v -0.00531032 0.00709389 0.43945022
v -0.01366356 0.00347733 0.44088255
v -0.00793526 0.00725408 0.43991674
v -0.01295662 0.00627364 0.44130935
v -0.00436072 0.01816556 0.44792364
v -0.01107051 0.00282234 0.43969235
v -0.01432737 0.00921800 0.44336977
v -0.00479132 0.00658487 0.43920905
v -0.00825019 0.00985017 0.44109960
v -0.01381070 0.01551822 0.44840862
v -0.00904276 0.00923292 0.44098880
v -0.02066116 0.00065811 0.44631455
v -0.01816212 0.01271044 0.44974966
v -0.00117626 0.00996205 0.44077811
v -0.00487086 0.01156196 0.44157365
v -0.01623480 0.01136091 0.44628055
v -0.01943999 0.00406532 0.44546497
v -0.02140320 0.00781325 0.44995495
v -0.01187336 0.01730955 0.44947540
v -0.00446799 0.00973676 0.44046717
v -0.01335388 0.01684300 0.44999494
v -0.01873035 0.01082138 0.44847917
v -0.00512637 0.01051556 0.44095348
v -0.01777787 0.00939003 0.44629285
v -0.00010349 0.01541762 0.44496241
v -0.00326250 0.00594287 0.43913820
v -0.01492269 0.00850675 0.44335468
v -0.02127218 0.00453591 0.44783800
v -0.00501383 0.00810866 0.43983249
v -0.00382126 0.01930123 0.44974196
v -0.01208727 0.00982273 0.44241599
v -0.01776343 0.00739148 0.44499929
v -0.01512152 0.00682983 0.44268637
v -0.00359754 0.00713564 0.43940499
v -0.01511065 0.00604328 0.44242020
v -0.00894628 0.01414279 0.44424949
v -0.01282347 0.00754010 0.44172899
v -0.00226866 0.00541205 0.43909837
v -0.00057195 0.00571117 0.43918253
v -0.01185082 0.01434839 0.44576691
v -0.00025229 0.00189944 0.43901754
v -0.01281846 0.01523373 0.44726914
v -0.02024582 0.01011914 0.44999351
v -0.00625397 0.01718211 0.44676220
v -0.01855278 0.00857146 0.44653292
v -0.00005942 0.00537682 0.43917830
v -0.01067447 0.01570738 0.44653906
v -0.00024682 0.01563087 0.44514751
v -0.00926349 0.01800203 0.44899140
v -0.01331637 0.00240215 0.44060000
v -0.00653142 0.01091878 0.44137077
v -0.01519751 0.00138662 0.44157611
v -0.01221950 0.00971981 0.44241959
v -0.00265439 0.01567781 0.44481968
v -0.01423717 0.00838540 0.44281094
v -0.00129130 0.00287994 0.43905918
v -0.01543380 0.01448062 0.44868806
v -0.01597660 0.00894344 0.44436579
v -0.00852632 0.00983332 0.44115409
v -0.01980158 0.00588452 0.44651636
v -0.01114241 0.00218013 0.43963149
v -0.02274787 0.00207010 0.44964220
v -0.01192428 0.01509888 0.44659847
v -0.02206253 0.00275900 0.44857943
v -0.02006981 0.00927115 0.44891385
v -0.00230706 0.01514116 0.44430780
v -0.00976796 0.00329001 0.43939901
v -0.01764724 0.00145865 0.44333695
v -0.00222932 0.01929947 0.44975479
v -0.00233026 0.01858588 0.44860347
v -0.01121150 0.00862842 0.44147532
v -0.01200941 0.01039199 0.44269532
v -0.01195704 0.01546211 0.44699928
v -0.02267362 0.00231358 0.44956230
v -0.01802605 0.00472084 0.44428553
v -0.01339210 0.01393459 0.44630202
v -0.01978915 0.00814602 0.44766844
v -0.02248415 0.00182588 0.44912694
v -0.01933609 0.00880856 0.44750519
v -0.01733605 0.00080975 0.44298620
v -0.00366623 0.01196293 0.44176692
v -0.00031563 0.01894884 0.44961574
v -0.01789659 0.00443423 0.44410224
v -0.00264393 0.01719822 0.44654964
v -0.00296565 0.01364686 0.44300743
v -0.01688290 0.00028167 0.44261952
v -0.00043678 0.00802324 0.44000290
v -0.01435888 0.00553131 0.44183625
v -0.01943018 0.01014379 0.44883495
v -0.00450891 0.00993328 0.44057792
v -0.00388121 0.01933451 0.44979829
v -0.01774623 0.01265081 0.44915257
v -0.01896415 0.00620872 0.44572600
v -0.01247742 0.00245146 0.44024162
v -0.00562674 0.01383420 0.44325337
v -0.01496842 0.01282769 0.44644020
v -0.00330347 0.00816265 0.43981994
v -0.00234315 0.00672168 0.43930380
v -0.01455003 0.00187406 0.44118936
v -0.01167539 0.00718320 0.44102330
v -0.00452629 0.01853708 0.44853219
v -0.01197168 0.00073508 0.43987931
v -0.01457759 0.01412416 0.44738122
v -0.00873908 0.01758700 0.44804429
v -0.00468541 0.01400965 0.44334237
v -0.00589414 0.01850180 0.44859798
v -0.00878228 0.00906089 0.44081173
v -0.00002653 0.00552717 0.43923288
v -0.01675534 0.00197796 0.44263789
v -0.01546851 0.01266469 0.44667012
v -0.01439592 0.00158306 0.44106703
v -0.01094734 0.00241373 0.43957348
v -0.01099425 0.00818065 0.44116793
v -0.01017736 0.00299437 0.43941543
v -0.01629150 0.00272154 0.44241627
v -0.01913097 0.01121671 0.44944434
v -0.00239801 0.01798508 0.44763789
v -0.00952530 0.01039059 0.44176946
v -0.01404184 0.01617241 0.44956511
v -0.00065022 0.00944957 0.44056606
v -0.01140553 0.01150816 0.44315267
v -0.01590742 0.00396121 0.44238587
v -0.00095725 0.01306264 0.44273982
v -0.01166857 0.00500392 0.44036746
v -0.00335524 0.00789850 0.43971380
v -0.00099665 0.00596281 0.43919086
v -0.01165566 0.01503848 0.44637611
v -0.00225231 0.01141751 0.44150243
v -0.01446046 0.00395159 0.44147980
v -0.00676324 0.01532731 0.44473793
v -0.00708204 0.01085418 0.44140774
v -0.01810264 0.01135040 0.44808347
v -0.01630222 0.00851066 0.44439826
v -0.01734272 0.01081734 0.44683297
v -0.01668764 0.01211643 0.44731946
v -0.02159760 0.00732879 0.44990782
v -0.01946542 0.01098708 0.44970596
v -0.00089930 0.01053873 0.44114653
v -0.00096460 0.01644151 0.44593257
v -0.00378166 0.01755666 0.44697586
v -0.02244215 0.00469038 0.44990241
v -0.00502573 0.01861762 0.44868271
v -0.01085291 0.01547490 0.44635943
v -0.00112430 0.01302565 0.44267301
v -0.00388195 0.01364686 0.44300399
v -0.00675456 0.01286216 0.44263810
v -0.01688607 0.00288271 0.44283792
v -0.00154274 0.01022846 0.44087445
v -0.00569061 0.01838279 0.44834401
v -0.00599264 0.00649987 0.43928480
v -0.02009823 0.00864031 0.44848213
v -0.00567223 0.01866492 0.44879436
v -0.01071228 0.00012988 0.43943685
v -0.02175049 0.00593039 0.44932197
v -0.01614924 0.01060112 0.44557108
v -0.01704658 0.01146276 0.44710126
v -0.00856592 0.01747511 0.44777103
v -0.00038961 0.01042774 0.44115973
v -0.00428101 0.01710793 0.44647520
v -0.00869238 0.01332181 0.44350638
v -0.00882047 0.01674055 0.44692690
v -0.01111709 0.00373779 0.43987207
v -0.00650149 0.01149648 0.44171154
v -0.00527240 0.01822105 0.44805010
v -0.00665667 0.01750012 0.44722087
v -0.00780835 0.01416334 0.44391367
v -0.01192985 0.00969014 0.44228702
v -0.01430202 0.01612149 0.44970701
v -0.01581330 0.01017175 0.44492857
v -0.00851202 0.01557440 0.44549675
v -0.01035063 0.00000190 0.43942235
v -0.00225086 0.01318323 0.44269097
v -0.02038193 0.00022473 0.44598482
v -0.01252783 0.00006388 0.44011019
v -0.00016396 0.00997427 0.44093978
v -0.01126144 0.00198742 0.43966117
v -0.01218015 0.01412926 0.44573165
v -0.00363240 0.01372608 0.44306084
v -0.01611048 0.00953025 0.44475626
v -0.00645657 0.01431026 0.44379839
v -0.01230295 0.01734979 0.44988591
v -0.00640935 0.01088365 0.44133305
v -0.00358186 0.01136066 0.44140069
v -0.01144803 0.01161382 0.44325154
v -0.01134110 0.00086804 0.43960384
v -0.00409932 0.01205122 0.44183748
v -0.01974139 0.00101563 0.44521293
v -0.02053321 0.00702882 0.44798751
v -0.00041732 0.00843954 0.44015329
v -0.00424118 0.01019429 0.44072443
v -0.02166531 0.00182788 0.44773433
v -0.01657376 0.01417846 0.44948197
v -0.02291867 0.00051143 0.44969317
v -0.01184603 0.00654334 0.44083389
v -0.01340044 0.00098900 0.44053091
v -0.00307098 0.01820762 0.44794009
v -0.02159491 0.00587374 0.44903008
v -0.02140884 0.00134185 0.44734282
v -0.00827457 0.01247948 0.44269510
v -0.00802554 0.00635569 0.43961419
v -0.00119337 0.00743391 0.43968351
v -0.00119089 0.01664856 0.44613517
v -0.00411276 0.01616806 0.44537790
v -0.01919070 0.00285051 0.44488436
v -0.02200157 0.00029610 0.44808258
v -0.01593271 0.01057656 0.44535435
v -0.00537831 0.01131911 0.44145158
v -0.01816655 0.00969575 0.44690418
v -0.01607360 0.01342668 0.44794705
v -0.02238368 0.00180292 0.44894526
v -0.00624500 0.01796192 0.44783184
v -0.00307391 0.01409811 0.44337104
v -0.00430058 0.01838408 0.44827527
v -0.01703473 0.00468065 0.44340483
v -0.01999400 0.00795992 0.44781376
v -0.01651648 0.00234320 0.44250901
v -0.01128538 0.01212844 0.44357085
v -0.00013402 0.00978959 0.44084945
v -0.02197499 0.00053000 0.44801915
v -0.02265710 0.00195882 0.44945916
v -0.01825851 0.01089946 0.44787100
v -0.00155024 0.00690008 0.43944218
v -0.02069777 0.00407769 0.44698808
v -0.00151354 0.00853859 0.44006751
v -0.02163177 0.00444697 0.44840693
v -0.01567968 0.00559628 0.44264187
v -0.01022175 0.01285534 0.44365591
v -0.00754463 0.01241959 0.44242004
v -0.00028123 0.00065060 0.43901869
v -0.00631709 0.01316453 0.44281421
v -0.00977548 0.01507344 0.44545935
v -0.00534170 0.01536270 0.44451054
v -0.01487089 0.01444130 0.44804195
v -0.01727381 0.00481111 0.44364654
v -0.00050018 0.01745076 0.44720467
v -0.00740791 0.01538422 0.44495044
v -0.01860250 0.00741755 0.44594310
v -0.00352224 0.01547694 0.44455230
v -0.02116300 0.00309251 0.44729256
v -0.01874546 0.00572570 0.44522693
v -0.01893794 0.01189465 0.44982362
v -0.01855592 0.00546189 0.44493473
v -0.01555631 0.00741495 0.44329472
v -0.01552794 0.00659497 0.44286895
v -0.01654774 0.00515196 0.44315796
v -0.00137981 0.01094615 0.44130581
v -0.00340692 0.00917222 0.44021824
v -0.00696741 0.01657824 0.44622789
v -0.00832041 0.01437610 0.44424397
v -0.00747648 0.01249485 0.44245978
v -0.01249567 0.01615927 0.44828240
v -0.00516968 0.01367065 0.44307569
v -0.00858547 0.01093652 0.44180313
v -0.01898635 0.00858759 0.44699219
v -0.01672203 0.00624451 0.44370984
v -0.00221243 0.00767591 0.43967834
v -0.01013534 0.00448267 0.43966884
v -0.00155318 0.00797895 0.43985106
v -0.01995285 0.00252439 0.44569819
v -0.01518032 0.01095642 0.44498812
v -0.01004721 0.00627953 0.44014000
v -0.00062626 0.01308976 0.44283562
v -0.00334529 0.01728020 0.44663759
v -0.01277342 0.00884087 0.44225731
v -0.01969892 0.00236141 0.44535722
v -0.01172428 0.00401304 0.44016938
v -0.02076665 0.00920059 0.44996246
v -0.00850724 0.00918596 0.44079024
v -0.01209094 0.01066351 0.44292779
v -0.02004311 0.00837314 0.44819702
v -0.01925401 0.00530606 0.44565964
v -0.01553488 0.01464869 0.44902108
v -0.00986547 0.00624463 0.44007570
v -0.00297873 0.01240399 0.44204592
v -0.00903831 0.00779545 0.44036419
v -0.00390543 0.01898754 0.44923711
v -0.01464678 0.01593112 0.44981370
v -0.01290467 0.01324437 0.44527401
v -0.00177251 0.01717216 0.44664620
v -0.01642883 0.01253532 0.44743319
f 102 249 128
f 213 249 102
f 41 63 161
f 63 38 161
f 214 22 24
f 24 22 108
f 140 209 244
f 45 102 128
f 45 255 102
f 68 255 45
f 194 193 8
f 191 193 194
f 8 215 194
f 128 249 66
f 249 61 66
f 76 61 249
f 249 191 76
f 76 191 46
f 22 214 144
f 267 140 244
f 3 170 28
f 40 267 28
f 13 28 46
f 3 28 13
f 3 134 132
f 287 38 63
f 63 85 287
f 213 161 82
f 161 12 82
f 238 140 195
f 209 140 238
f 128 209 238
f 238 45 128
f 195 45 238
f 159 255 68
f 255 104 137
f 213 239 225
f 225 239 193
f 225 193 191
f 225 249 213
f 225 191 249
f 193 239 32
f 262 224 37
f 167 224 103
f 260 52 262
f 262 37 260
f 48 208 80
f 259 84 48
f 48 84 12
f 58 66 61
f 58 76 46
f 61 76 58
f 9 281 214
f 9 133 295
f 214 281 277
f 3 144 277
f 277 144 214
f 220 170 3
f 3 277 220
f 120 9 214
f 133 9 120
f 40 28 49
f 284 120 214
f 73 133 284
f 133 120 284
f 131 215 8
f 16 142 22
f 167 142 135
f 142 16 135
f 135 16 22
f 134 13 173
f 46 191 173
f 173 13 46
f 191 194 173
f 87 134 3
f 3 13 87
f 87 13 134
f 70 131 22
f 215 131 70
f 215 70 205
f 205 132 134
f 134 173 205
f 22 144 286
f 188 297 41
f 195 140 178
f 178 2 195
f 178 266 2
f 2 266 148
f 140 267 168
f 168 148 266
f 168 267 40
f 203 148 168
f 62 96 123
f 201 41 111
f 201 39 41
f 299 104 255
f 74 258 104
f 104 299 74
f 74 159 68
f 102 255 89
f 89 50 111
f 111 41 89
f 41 161 89
f 213 102 89
f 89 161 213
f 296 50 216
f 50 89 216
f 211 84 259
f 259 37 279
f 279 211 259
f 224 100 207
f 94 82 12
f 230 211 239
f 84 211 230
f 12 84 230
f 230 94 12
f 95 224 262
f 95 103 224
f 88 224 167
f 167 100 88
f 88 100 224
f 40 43 110
f 52 260 257
f 291 37 80
f 80 260 291
f 291 260 37
f 241 154 99
f 241 152 154
f 99 85 241
f 261 63 41
f 41 297 261
f 154 152 176
f 52 257 274
f 274 97 99
f 274 257 97
f 99 154 228
f 52 274 65
f 44 154 199
f 44 228 154
f 199 52 44
f 52 65 44
f 99 228 44
f 44 65 274
f 44 274 99
f 199 154 189
f 189 280 27
f 80 208 235
f 235 97 80
f 235 85 99
f 99 97 235
f 113 260 80
f 80 97 113
f 156 235 208
f 156 161 38
f 156 174 161
f 38 287 156
f 80 37 243
f 243 48 80
f 243 37 259
f 259 48 243
f 208 48 217
f 217 156 208
f 174 156 217
f 161 174 217
f 217 48 161
f 6 12 161
f 161 48 6
f 54 118 28
f 54 28 267
f 54 117 145
f 267 117 54
f 23 220 295
f 170 220 23
f 293 9 295
f 295 220 293
f 281 9 293
f 293 277 281
f 293 220 277
f 145 117 276
f 276 54 145
f 118 54 276
f 276 267 244
f 276 117 267
f 21 28 170
f 21 49 28
f 57 214 24
f 57 284 214
f 73 284 75
f 284 57 75
f 199 189 75
f 75 189 27
f 75 57 24
f 153 52 199
f 199 264 153
f 153 264 52
f 262 52 275
f 52 264 275
f 108 246 55
f 55 246 264
f 22 131 119
f 72 131 8
f 22 142 149
f 142 246 149
f 149 108 22
f 149 246 108
f 264 246 265
f 265 275 264
f 265 246 142
f 262 275 265
f 167 234 265
f 265 142 167
f 7 135 22
f 22 119 7
f 22 132 114
f 114 70 22
f 122 194 215
f 132 205 196
f 196 205 70
f 70 114 196
f 26 132 22
f 22 286 26
f 3 132 26
f 139 188 41
f 41 39 139
f 229 212 253
f 253 123 229
f 34 178 140
f 140 168 34
f 266 178 158
f 158 168 266
f 178 34 158
f 158 34 168
f 271 139 39
f 163 60 147
f 147 60 197
f 159 74 222
f 222 74 299
f 255 159 222
f 222 299 255
f 68 45 86
f 86 74 68
f 45 18 86
f 258 74 86
f 181 177 185
f 64 268 185
f 69 201 111
f 39 201 69
f 172 69 111
f 177 69 172
f 137 216 90
f 90 216 89
f 255 137 90
f 90 89 255
f 160 137 104
f 160 216 137
f 160 64 185
f 282 18 45
f 195 2 282
f 282 45 195
f 2 148 294
f 294 148 203
f 105 294 198
f 218 32 239
f 239 211 218
f 218 207 32
f 193 32 10
f 10 207 193
f 32 207 10
f 98 239 213
f 98 230 239
f 40 110 210
f 210 168 40
f 203 168 210
f 202 43 151
f 202 227 43
f 202 183 227
f 63 261 157
f 152 261 33
f 33 212 229
f 33 297 212
f 33 261 297
f 229 123 130
f 123 116 130
f 11 280 130
f 130 116 11
f 280 189 226
f 97 257 4
f 4 113 97
f 4 257 260
f 260 113 4
f 171 156 287
f 171 287 85
f 245 48 12
f 12 6 245
f 245 6 48
f 244 209 221
f 221 242 244
f 244 242 278
f 278 242 118
f 278 276 244
f 118 276 278
f 146 221 209
f 242 221 146
f 118 242 146
f 146 58 46
f 46 28 146
f 28 118 146
f 91 31 133
f 295 133 127
f 133 31 127
f 199 75 47
f 53 55 264
f 264 47 53
f 53 47 75
f 53 75 24
f 24 108 53
f 108 55 53
f 262 265 254
f 254 265 234
f 254 95 262
f 129 100 167
f 194 122 15
f 15 173 194
f 15 205 173
f 215 205 15
f 15 122 215
f 81 114 132
f 132 196 81
f 81 196 114
f 3 26 182
f 182 26 286
f 182 144 3
f 182 286 144
f 188 139 30
f 139 271 30
f 30 271 62
f 30 253 188
f 30 62 123
f 123 253 30
f 77 253 212
f 197 60 298
f 60 247 298
f 123 96 298
f 96 62 298
f 298 62 197
f 11 116 298
f 298 116 123
f 227 183 248
f 251 60 163
f 251 247 60
f 190 269 251
f 62 271 93
f 163 147 93
f 105 198 232
f 17 64 252
f 252 223 258
f 258 198 252
f 115 200 252
f 150 17 252
f 124 177 39
f 39 69 124
f 124 69 177
f 162 172 111
f 177 172 126
f 104 258 283
f 283 160 104
f 258 160 283
f 184 160 185
f 172 162 184
f 2 294 164
f 207 218 285
f 224 207 285
f 211 279 285
f 285 218 211
f 285 37 224
f 285 279 37
f 213 82 240
f 240 98 213
f 151 183 71
f 71 202 151
f 183 202 71
f 109 241 85
f 229 152 112
f 112 33 229
f 152 33 112
f 130 36 300
f 229 130 300
f 300 152 229
f 175 36 130
f 154 36 175
f 175 189 154
f 175 226 189
f 235 156 290
f 156 171 290
f 85 235 290
f 290 171 85
f 128 66 59
f 66 58 59
f 58 146 59
f 79 29 288
f 288 29 151
f 288 23 295
f 295 127 288
f 263 47 264
f 167 135 236
f 236 129 167
f 135 7 236
f 72 129 236
f 100 129 106
f 8 193 106
f 106 72 8
f 106 129 72
f 193 207 106
f 106 207 100
f 212 297 292
f 292 77 212
f 297 77 292
f 5 77 297
f 253 77 5
f 27 280 92
f 73 75 92
f 92 75 27
f 151 29 19
f 19 183 151
f 19 248 183
f 138 92 141
f 79 288 138
f 138 127 31
f 138 288 127
f 219 141 247
f 219 138 141
f 256 269 190
f 268 64 256
f 190 181 256
f 256 17 150
f 256 64 17
f 185 268 256
f 256 181 185
f 247 251 56
f 56 251 269
f 248 219 56
f 163 93 67
f 39 177 67
f 67 271 39
f 67 93 271
f 67 251 163
f 177 181 67
f 190 251 67
f 67 181 190
f 83 147 197
f 83 93 147
f 197 62 83
f 62 93 83
f 258 86 14
f 14 198 258
f 14 232 198
f 64 160 179
f 179 252 64
f 223 252 179
f 258 223 179
f 179 160 258
f 115 252 272
f 294 206 272
f 169 184 185
f 172 184 169
f 216 160 25
f 160 184 25
f 18 282 143
f 143 164 18
f 143 282 2
f 2 164 143
f 192 294 105
f 192 164 294
f 18 164 192
f 105 232 192
f 232 14 192
f 192 86 18
f 192 14 86
f 101 294 203
f 203 206 101
f 101 206 294
f 35 206 203
f 203 210 35
f 43 227 35
f 227 206 35
f 35 110 43
f 35 210 110
f 166 206 227
f 136 109 157
f 136 157 261
f 155 176 152
f 152 300 155
f 107 146 209
f 107 59 146
f 107 209 128
f 128 59 107
f 23 288 1
f 170 23 1
f 1 21 170
f 40 49 1
f 1 288 151
f 49 21 1
f 1 43 40
f 151 43 1
f 78 264 199
f 78 263 264
f 141 92 289
f 289 280 11
f 289 92 280
f 73 92 51
f 51 133 73
f 92 138 51
f 247 141 20
f 141 237 20
f 20 298 247
f 20 237 298
f 204 237 141
f 298 237 204
f 11 298 204
f 204 289 11
f 141 289 204
f 273 219 248
f 138 219 273
f 79 138 273
f 248 19 273
f 273 29 79
f 273 19 29
f 186 200 115
f 150 252 186
f 186 252 200
f 186 256 150
f 269 256 186
f 180 219 247
f 247 56 180
f 180 56 219
f 125 252 198
f 125 272 252
f 231 169 185
f 185 177 231
f 177 126 231
f 233 25 184
f 296 216 233
f 216 25 233
f 227 248 270
f 270 166 227
f 270 186 166
f 269 186 270
f 248 56 270
f 270 56 269
f 250 272 206
f 206 166 250
f 115 272 250
f 250 186 115
f 166 186 250
f 241 109 42
f 109 136 42
f 187 138 31
f 187 51 138
f 31 91 187
f 187 91 133
f 133 51 187
f 165 125 198
f 272 125 165
f 165 198 294
f 294 272 165
f 296 233 121
f 121 233 184
f 254 234 167
f 103 95 254
f 167 103 254
f 94 230 240
f 82 94 240
f 230 98 240
f 63 157 109
f 109 85 63
f 280 226 175
f 175 130 280
f 131 72 236
f 236 7 119
f 236 119 131
f 188 253 5
f 297 188 5
f 154 176 155
f 155 36 154
f 155 300 36
f 47 263 78
f 199 47 78
f 172 169 231
f 231 126 172
f 152 241 42
f 42 261 152
f 42 136 261
f 121 162 111
f 121 50 296
f 111 50 121
f 121 184 162

